<svg width="800" height="600" viewBox="0 0 800 600" fill="none" xmlns="http://www.w3.org/2000/svg">
<rect width="800" height="600" fill="url(#paint0_linear_5176_12256)"/>
<path d="M273 94H280.353V101.265H287.08V94H294.433V116H287.08V108.633H280.353V116H273V94ZM304.102 101.296H297.63V94H317.932V101.296H311.457V116H304.104L304.102 101.296ZM321.155 94H328.826L333.542 101.729L338.25 94H345.92V116H338.596V105.095L333.538 112.917H333.412L328.349 105.095V115.999H321.154L321.155 94ZM349.579 94H356.934V108.727H367.274V115.999H349.579V94Z" fill="#E85859"/>
<g filter="url(#filter0_d_5176_12256)">
<path d="M372.81 123.479L363.171 231.467L319.841 243.479L276.63 231.483L267 123.479H372.81Z" fill="#E44D26"/>
<path d="M319.905 234.296L354.918 224.59L363.156 132.309H319.905V234.296Z" fill="#F16529"/>
<path d="M301.165 158.803H319.904V145.563H286.689L287.006 149.118L290.262 185.62H319.905V172.367H302.376L301.165 158.803ZM304.151 192.237H290.853L292.709 213.035L319.843 220.562L319.904 220.546V206.769L319.846 206.784L305.094 202.801L304.153 192.237H304.151Z" fill="#EBEBEB"/>
<path d="M319.859 185.612H336.17L334.633 202.792L319.858 206.778V220.56L347.012 213.032L347.211 210.794L350.324 175.92L350.646 172.363H319.859V185.612ZM319.859 158.769V158.801H351.852L352.121 155.824L352.725 149.103L353.041 145.549H319.859V158.762V158.769Z" fill="white"/>
</g>
<path d="M516.881 100.583H506.425L517.299 112.383V118H494.903V111.423H505.775L494.903 99.623V94H516.881V100.583V100.583ZM490.463 100.583H480.007L490.88 112.383V118H468.483V111.423H479.357L468.483 99.623V94H490.463V100.583V100.583ZM464.303 100.852H453.02V111.148H464.303V118H445V94H464.303V100.852V100.852Z" fill="#3B68D7"/>
<g filter="url(#filter1_d_5176_12256)">
<path d="M437.63 232.347L428 124.343H533.808L524.17 232.329L480.839 244.343L437.63 232.347V232.347Z" fill="#1572B6"/>
<path d="M480.906 235.161L515.918 225.454L524.155 133.175H480.906V235.161Z" fill="#33A9DC"/>
<path d="M480.905 172.304H498.433L499.644 158.74H480.905V145.494H514.121L513.803 149.047L510.548 185.549H480.905V172.304V172.304Z" fill="white"/>
<path d="M480.984 206.706L480.926 206.722L466.174 202.738L465.23 192.174H451.935L453.791 212.972L480.924 220.504L480.986 220.486V206.706H480.984Z" fill="#EBEBEB"/>
<path d="M497.307 184.989L495.711 202.729L480.938 206.716V220.498L508.093 212.972L508.293 210.734L510.598 184.989H497.307V184.989Z" fill="white"/>
<path d="M480.951 145.494V158.739H448.955L448.689 155.762L448.086 149.047L447.769 145.494H480.951ZM480.905 172.305V185.552H466.339L466.074 182.575L465.47 175.859L465.152 172.305H480.905V172.305Z" fill="#EBEBEB"/>
</g>
<g filter="url(#filter2_d_5176_12256)">
<path d="M196.062 413V387.297H173.562V413H161.648V355.422H173.562V377.375H196.062V355.422H208.016V413H196.062ZM261.375 355.422V365.617H244.148V413H232.039V365.617H214.734V355.422H261.375ZM279.461 413H268.25V355.422H285.75L296.219 400.695L306.609 355.422H323.914V413H312.703V374.055C312.703 372.935 312.716 371.372 312.742 369.367C312.768 367.336 312.781 365.773 312.781 364.68L301.883 413H290.203L279.383 364.68C279.383 365.773 279.396 367.336 279.422 369.367C279.448 371.372 279.461 372.935 279.461 374.055V413ZM335.086 355.422H347.117V402.648H375.633V413H335.086V355.422ZM421.688 414.406C415.854 414.406 411.297 412.688 408.016 409.25C404.734 405.812 403.094 401.997 403.094 397.805C403.094 394.341 403.953 391.372 405.672 388.898C407.391 386.424 410.203 383.977 414.109 381.555L415.32 380.812C413.654 378.938 412.365 377.023 411.453 375.07C410.542 373.117 410.086 371.086 410.086 368.977C410.086 364.784 411.492 361.516 414.305 359.172C417.117 356.802 420.763 355.617 425.242 355.617C429.331 355.617 432.703 356.828 435.359 359.25C438.042 361.646 439.383 364.719 439.383 368.469C439.383 371.854 438.576 374.602 436.961 376.711C435.372 378.82 433.029 380.773 429.93 382.57L438.094 392.648C439.031 391.294 439.747 389.823 440.242 388.234C440.763 386.646 441.036 384.966 441.062 383.195H450.945C450.789 386.685 449.956 390.214 448.445 393.781C447.612 395.786 446.258 398 444.383 400.422L454.852 413H441.336L437.352 408.117C435.424 409.914 433.628 411.242 431.961 412.102C428.992 413.638 425.568 414.406 421.688 414.406ZM421.062 387.922C418.276 389.771 416.427 391.398 415.516 392.805C414.63 394.211 414.188 395.76 414.188 397.453C414.188 399.354 414.956 401.099 416.492 402.688C418.055 404.276 420.047 405.07 422.469 405.07C424.292 405.07 426.01 404.654 427.625 403.82C429.266 402.961 430.594 402.01 431.609 400.969L421.062 387.922ZM420.32 368.586C420.32 369.628 420.685 370.721 421.414 371.867C421.883 372.622 422.898 373.964 424.461 375.891C426.023 374.797 427.143 373.872 427.82 373.117C429.122 371.711 429.773 370.188 429.773 368.547C429.773 367.349 429.383 366.281 428.602 365.344C427.82 364.406 426.635 363.938 425.047 363.938C424.057 363.938 423.133 364.211 422.273 364.758C420.971 365.565 420.32 366.841 420.32 368.586ZM525.555 408.703C521.258 412.635 515.763 414.602 509.07 414.602C500.789 414.602 494.279 411.945 489.539 406.633C484.799 401.294 482.43 393.977 482.43 384.68C482.43 374.628 485.125 366.88 490.516 361.438C495.203 356.698 501.167 354.328 508.406 354.328C518.094 354.328 525.177 357.505 529.656 363.859C532.13 367.427 533.458 371.008 533.641 374.602H521.609C520.828 371.841 519.826 369.758 518.602 368.352C516.414 365.852 513.172 364.602 508.875 364.602C504.5 364.602 501.049 366.372 498.523 369.914C495.997 373.43 494.734 378.417 494.734 384.875C494.734 391.333 496.062 396.177 498.719 399.406C501.401 402.609 504.799 404.211 508.914 404.211C513.133 404.211 516.349 402.831 518.562 400.07C519.786 398.586 520.802 396.359 521.609 393.391H533.523C532.482 399.667 529.826 404.771 525.555 408.703ZM563.641 404.68C566.479 404.68 568.784 404.367 570.555 403.742C573.914 402.544 575.594 400.318 575.594 397.062C575.594 395.161 574.76 393.69 573.094 392.648C571.427 391.633 568.81 390.734 565.242 389.953L559.148 388.586C553.159 387.232 549.018 385.76 546.727 384.172C542.846 381.516 540.906 377.362 540.906 371.711C540.906 366.555 542.781 362.271 546.531 358.859C550.281 355.448 555.789 353.742 563.055 353.742C569.122 353.742 574.292 355.357 578.562 358.586C582.859 361.789 585.112 366.451 585.32 372.57H573.758C573.549 369.107 572.039 366.646 569.227 365.188C567.352 364.224 565.021 363.742 562.234 363.742C559.135 363.742 556.661 364.367 554.812 365.617C552.964 366.867 552.039 368.612 552.039 370.852C552.039 372.909 552.951 374.445 554.773 375.461C555.945 376.138 558.445 376.932 562.273 377.844L572.195 380.227C576.544 381.268 579.826 382.661 582.039 384.406C585.477 387.115 587.195 391.034 587.195 396.164C587.195 401.424 585.177 405.799 581.141 409.289C577.13 412.753 571.453 414.484 564.109 414.484C556.609 414.484 550.711 412.779 546.414 409.367C542.117 405.93 539.969 401.216 539.969 395.227H551.453C551.818 397.857 552.534 399.823 553.602 401.125C555.555 403.495 558.901 404.68 563.641 404.68ZM617 404.68C619.839 404.68 622.143 404.367 623.914 403.742C627.273 402.544 628.953 400.318 628.953 397.062C628.953 395.161 628.12 393.69 626.453 392.648C624.786 391.633 622.169 390.734 618.602 389.953L612.508 388.586C606.518 387.232 602.378 385.76 600.086 384.172C596.206 381.516 594.266 377.362 594.266 371.711C594.266 366.555 596.141 362.271 599.891 358.859C603.641 355.448 609.148 353.742 616.414 353.742C622.482 353.742 627.651 355.357 631.922 358.586C636.219 361.789 638.471 366.451 638.68 372.57H627.117C626.909 369.107 625.398 366.646 622.586 365.188C620.711 364.224 618.38 363.742 615.594 363.742C612.495 363.742 610.021 364.367 608.172 365.617C606.323 366.867 605.398 368.612 605.398 370.852C605.398 372.909 606.31 374.445 608.133 375.461C609.305 376.138 611.805 376.932 615.633 377.844L625.555 380.227C629.904 381.268 633.185 382.661 635.398 384.406C638.836 387.115 640.555 391.034 640.555 396.164C640.555 401.424 638.536 405.799 634.5 409.289C630.49 412.753 624.812 414.484 617.469 414.484C609.969 414.484 604.07 412.779 599.773 409.367C595.477 405.93 593.328 401.216 593.328 395.227H604.812C605.177 397.857 605.893 399.823 606.961 401.125C608.914 403.495 612.26 404.68 617 404.68ZM171.18 447.422H183.133V505H171.18V447.422ZM213.523 470.664C209.747 470.664 207.156 472.266 205.75 475.469C205.021 477.161 204.656 479.323 204.656 481.953V505H193.562V462.5H204.305V468.711C205.737 466.523 207.091 464.948 208.367 463.984C210.659 462.266 213.562 461.406 217.078 461.406C221.479 461.406 225.073 462.565 227.859 464.883C230.672 467.174 232.078 470.99 232.078 476.328V505H220.672V479.102C220.672 476.862 220.372 475.143 219.773 473.945C218.68 471.758 216.596 470.664 213.523 470.664ZM261.883 497.07V505.391L256.609 505.586C251.349 505.768 247.755 504.857 245.828 502.852C244.578 501.576 243.953 499.609 243.953 496.953V470.742H238.016V462.812H243.953V450.938H254.969V462.812H261.883V470.742H254.969V493.242C254.969 494.987 255.19 496.081 255.633 496.523C256.076 496.94 257.43 497.148 259.695 497.148C260.034 497.148 260.385 497.148 260.75 497.148C261.141 497.122 261.518 497.096 261.883 497.07ZM290.438 472.695C285.958 472.695 282.951 474.154 281.414 477.07C280.555 478.711 280.125 481.237 280.125 484.648V505H268.914V462.422H279.539V469.844C281.258 467.005 282.755 465.065 284.031 464.023C286.115 462.279 288.823 461.406 292.156 461.406C292.365 461.406 292.534 461.419 292.664 461.445C292.82 461.445 293.146 461.458 293.641 461.484V472.891C292.938 472.812 292.312 472.76 291.766 472.734C291.219 472.708 290.776 472.695 290.438 472.695ZM335.711 467.812C339.305 472.318 341.102 477.643 341.102 483.789C341.102 490.039 339.305 495.391 335.711 499.844C332.117 504.271 326.661 506.484 319.344 506.484C312.026 506.484 306.57 504.271 302.977 499.844C299.383 495.391 297.586 490.039 297.586 483.789C297.586 477.643 299.383 472.318 302.977 467.812C306.57 463.307 312.026 461.055 319.344 461.055C326.661 461.055 332.117 463.307 335.711 467.812ZM319.305 470.469C316.049 470.469 313.536 471.628 311.766 473.945C310.021 476.237 309.148 479.518 309.148 483.789C309.148 488.06 310.021 491.354 311.766 493.672C313.536 495.99 316.049 497.148 319.305 497.148C322.56 497.148 325.06 495.99 326.805 493.672C328.549 491.354 329.422 488.06 329.422 483.789C329.422 479.518 328.549 476.237 326.805 473.945C325.06 471.628 322.56 470.469 319.305 470.469ZM387.859 447.5V505H377.039V499.102C375.451 501.628 373.641 503.464 371.609 504.609C369.578 505.755 367.052 506.328 364.031 506.328C359.057 506.328 354.865 504.323 351.453 500.312C348.068 496.276 346.375 491.107 346.375 484.805C346.375 477.539 348.042 471.823 351.375 467.656C354.734 463.49 359.214 461.406 364.812 461.406C367.391 461.406 369.682 461.979 371.688 463.125C373.693 464.245 375.32 465.807 376.57 467.812V447.5H387.859ZM357.859 483.984C357.859 487.917 358.641 491.055 360.203 493.398C361.74 495.768 364.083 496.953 367.234 496.953C370.385 496.953 372.781 495.781 374.422 493.438C376.062 491.094 376.883 488.06 376.883 484.336C376.883 479.128 375.568 475.404 372.938 473.164C371.323 471.81 369.448 471.133 367.312 471.133C364.057 471.133 361.661 472.37 360.125 474.844C358.615 477.292 357.859 480.339 357.859 483.984ZM425.32 498.984C425.216 499.115 424.956 499.505 424.539 500.156C424.122 500.807 423.628 501.38 423.055 501.875C421.31 503.438 419.617 504.505 417.977 505.078C416.362 505.651 414.461 505.938 412.273 505.938C405.971 505.938 401.727 503.672 399.539 499.141C398.315 496.641 397.703 492.956 397.703 488.086V462.422H409.109V488.086C409.109 490.508 409.396 492.331 409.969 493.555C410.984 495.716 412.977 496.797 415.945 496.797C419.747 496.797 422.352 495.26 423.758 492.188C424.487 490.521 424.852 488.32 424.852 485.586V462.422H436.141V505H425.32V498.984ZM483.758 477.695H472.352C472.143 476.107 471.609 474.674 470.75 473.398C469.5 471.68 467.56 470.82 464.93 470.82C461.18 470.82 458.615 472.682 457.234 476.406C456.505 478.385 456.141 481.016 456.141 484.297C456.141 487.422 456.505 489.935 457.234 491.836C458.562 495.378 461.062 497.148 464.734 497.148C467.339 497.148 469.188 496.445 470.281 495.039C471.375 493.633 472.039 491.81 472.273 489.57H483.641C483.38 492.956 482.156 496.159 479.969 499.18C476.479 504.049 471.31 506.484 464.461 506.484C457.612 506.484 452.573 504.453 449.344 500.391C446.115 496.328 444.5 491.055 444.5 484.57C444.5 477.253 446.284 471.562 449.852 467.5C453.419 463.438 458.341 461.406 464.617 461.406C469.956 461.406 474.318 462.604 477.703 465C481.115 467.396 483.133 471.628 483.758 477.695ZM510.945 497.07V505.391L505.672 505.586C500.411 505.768 496.818 504.857 494.891 502.852C493.641 501.576 493.016 499.609 493.016 496.953V470.742H487.078V462.812H493.016V450.938H504.031V462.812H510.945V470.742H504.031V493.242C504.031 494.987 504.253 496.081 504.695 496.523C505.138 496.94 506.492 497.148 508.758 497.148C509.096 497.148 509.448 497.148 509.812 497.148C510.203 497.122 510.581 497.096 510.945 497.07ZM529.539 462.422V505H518.25V462.422H529.539ZM529.539 447.07V457.344H518.25V447.07H529.539ZM575.867 467.812C579.461 472.318 581.258 477.643 581.258 483.789C581.258 490.039 579.461 495.391 575.867 499.844C572.273 504.271 566.818 506.484 559.5 506.484C552.182 506.484 546.727 504.271 543.133 499.844C539.539 495.391 537.742 490.039 537.742 483.789C537.742 477.643 539.539 472.318 543.133 467.812C546.727 463.307 552.182 461.055 559.5 461.055C566.818 461.055 572.273 463.307 575.867 467.812ZM559.461 470.469C556.206 470.469 553.693 471.628 551.922 473.945C550.177 476.237 549.305 479.518 549.305 483.789C549.305 488.06 550.177 491.354 551.922 493.672C553.693 495.99 556.206 497.148 559.461 497.148C562.716 497.148 565.216 495.99 566.961 493.672C568.706 491.354 569.578 488.06 569.578 483.789C569.578 479.518 568.706 476.237 566.961 473.945C565.216 471.628 562.716 470.469 559.461 470.469ZM609.305 470.664C605.529 470.664 602.938 472.266 601.531 475.469C600.802 477.161 600.438 479.323 600.438 481.953V505H589.344V462.5H600.086V468.711C601.518 466.523 602.872 464.948 604.148 463.984C606.44 462.266 609.344 461.406 612.859 461.406C617.26 461.406 620.854 462.565 623.641 464.883C626.453 467.174 627.859 470.99 627.859 476.328V505H616.453V479.102C616.453 476.862 616.154 475.143 615.555 473.945C614.461 471.758 612.378 470.664 609.305 470.664Z" fill="#E85859"/>
</g>
<line x1="91" y1="299" x2="742" y2="299" stroke="#E85859" stroke-width="2"/>
<path d="M741.435 592.713C741.435 593.599 742.138 594.276 742.998 594.276C743.884 594.276 744.587 593.599 744.587 592.713V576.563C744.587 575.703 743.884 575 742.998 575C742.112 575 741.435 575.703 741.435 576.563V592.713Z" fill="#030060"/>
<path d="M748.654 576.849C748.654 577.787 749.436 578.412 750.451 578.412C751.467 578.412 752.249 577.787 752.249 576.849V576.693C752.249 575.755 751.467 575.156 750.451 575.156C749.436 575.156 748.654 575.755 748.654 576.693V576.849ZM748.889 592.713C748.889 593.599 749.592 594.276 750.451 594.276C751.337 594.276 752.04 593.599 752.04 592.713V581.825C752.04 580.939 751.337 580.236 750.451 580.236C749.566 580.236 748.889 580.939 748.889 581.825V592.713Z" fill="#030060"/>
<path d="M756.16 592.713C756.16 593.573 756.863 594.276 757.723 594.276C758.608 594.276 759.312 593.573 759.312 592.713V592.01C760.276 593.287 761.708 594.433 764.001 594.433C767.257 594.433 770.383 591.854 770.383 587.295V587.243C770.383 582.658 767.231 580.106 764.001 580.106C761.76 580.106 760.328 581.252 759.312 582.685V576.563C759.312 575.677 758.608 575 757.723 575C756.837 575 756.16 575.677 756.16 576.563V592.713ZM763.245 591.698C761.109 591.698 759.234 589.926 759.234 587.295V587.243C759.234 584.612 761.109 582.841 763.245 582.841C765.381 582.841 767.179 584.586 767.179 587.243V587.295C767.179 590.004 765.407 591.698 763.245 591.698Z" fill="#030060"/>
<path d="M773.818 592.713C773.818 593.599 774.522 594.276 775.381 594.276C776.267 594.276 776.97 593.599 776.97 592.713V576.563C776.97 575.703 776.267 575 775.381 575C774.496 575 773.818 575.703 773.818 576.563V592.713Z" fill="#030060"/>
<path d="M787.628 594.459C791.874 594.459 795 591.203 795 587.295V587.243C795 583.31 791.9 580.106 787.68 580.106C783.46 580.106 780.334 583.362 780.334 587.295V587.347C780.334 591.255 783.434 594.459 787.628 594.459ZM787.68 591.698C785.232 591.698 783.486 589.692 783.486 587.295V587.243C783.486 584.847 785.101 582.867 787.628 582.867C790.103 582.867 791.848 584.873 791.848 587.295V587.347C791.848 589.718 790.233 591.698 787.68 591.698Z" fill="#030060"/>
<path d="M736.96 590.09C735.74 590.65 734.453 591.046 733.208 591.294C728.074 592.314 725.36 589.099 729.634 586.781C730.099 586.529 730.632 586.291 731.228 586.075L732.011 585.826C732.241 585.763 732.463 585.661 732.534 585.515C732.905 584.723 729.731 584.467 727.622 585.589C728.458 585.431 729.186 585.408 729.668 585.609C724.878 586.845 723.788 590.757 726.335 592.642C727.649 593.615 729.127 593.873 731.832 593.682C733.637 593.555 735.48 592.837 736.96 591.969V590.09Z" fill="url(#paint1_linear_5176_12256)"/>
<path d="M734.542 592.784C734.542 593.607 735.171 594.165 736.03 594.165C736.89 594.165 737.478 593.644 737.478 592.784V586.011C737.478 584.214 737.009 582.755 735.993 581.765C735.029 580.776 733.492 580.228 731.434 580.228C729.637 580.228 728.308 580.541 727.006 581.036C726.537 581.218 726.146 581.713 726.146 582.286C726.146 583.016 726.745 583.589 727.475 583.589C727.631 583.589 727.787 583.563 727.97 583.511C728.829 583.172 729.819 582.964 731.018 582.964C733.232 582.964 734.43 584.006 734.43 585.959V585.968L734.542 592.784Z" fill="url(#paint2_linear_5176_12256)"/>
<path d="M733.611 578.379C733.611 578.591 733.273 578.721 732.805 578.721C732.077 578.721 731.583 578.64 730.984 578.282L729.216 577.24C728.956 577.093 728.774 576.93 728.774 576.751C728.774 576.442 729.814 576.116 730.646 576.116C731.192 576.116 731.609 576.295 731.895 576.589L733.377 578.021C733.481 578.119 733.611 578.265 733.611 578.379Z" fill="url(#paint3_linear_5176_12256)"/>
<defs>
<filter id="filter0_d_5176_12256" x="187" y="43.4789" width="305.81" height="320" filterUnits="userSpaceOnUse" color-interpolation-filters="sRGB">
<feFlood flood-opacity="0" result="BackgroundImageFix"/>
<feColorMatrix in="SourceAlpha" type="matrix" values="0 0 0 0 0 0 0 0 0 0 0 0 0 0 0 0 0 0 127 0" result="hardAlpha"/>
<feOffset dx="20" dy="20"/>
<feGaussianBlur stdDeviation="50"/>
<feComposite in2="hardAlpha" operator="out"/>
<feColorMatrix type="matrix" values="0 0 0 0 0 0 0 0 0 0 0 0 0 0 0 0 0 0 0.25 0"/>
<feBlend mode="normal" in2="BackgroundImageFix" result="effect1_dropShadow_5176_12256"/>
<feBlend mode="normal" in="SourceGraphic" in2="effect1_dropShadow_5176_12256" result="shape"/>
</filter>
<filter id="filter1_d_5176_12256" x="348" y="44.3434" width="305.808" height="320" filterUnits="userSpaceOnUse" color-interpolation-filters="sRGB">
<feFlood flood-opacity="0" result="BackgroundImageFix"/>
<feColorMatrix in="SourceAlpha" type="matrix" values="0 0 0 0 0 0 0 0 0 0 0 0 0 0 0 0 0 0 127 0" result="hardAlpha"/>
<feOffset dx="20" dy="20"/>
<feGaussianBlur stdDeviation="50"/>
<feComposite in2="hardAlpha" operator="out"/>
<feColorMatrix type="matrix" values="0 0 0 0 0 0 0 0 0 0 0 0 0 0 0 0 0 0 0.25 0"/>
<feBlend mode="normal" in2="BackgroundImageFix" result="effect1_dropShadow_5176_12256"/>
<feBlend mode="normal" in="SourceGraphic" in2="effect1_dropShadow_5176_12256" result="shape"/>
</filter>
<filter id="filter2_d_5176_12256" x="141.648" y="333.742" width="538.906" height="212.742" filterUnits="userSpaceOnUse" color-interpolation-filters="sRGB">
<feFlood flood-opacity="0" result="BackgroundImageFix"/>
<feColorMatrix in="SourceAlpha" type="matrix" values="0 0 0 0 0 0 0 0 0 0 0 0 0 0 0 0 0 0 127 0" result="hardAlpha"/>
<feOffset dx="10" dy="10"/>
<feGaussianBlur stdDeviation="15"/>
<feComposite in2="hardAlpha" operator="out"/>
<feColorMatrix type="matrix" values="0 0 0 0 0 0 0 0 0 0 0 0 0 0 0 0 0 0 0.25 0"/>
<feBlend mode="normal" in2="BackgroundImageFix" result="effect1_dropShadow_5176_12256"/>
<feBlend mode="normal" in="SourceGraphic" in2="effect1_dropShadow_5176_12256" result="shape"/>
</filter>
<linearGradient id="paint0_linear_5176_12256" x1="800" y1="1.57938e-05" x2="-2.41944" y2="596.747" gradientUnits="userSpaceOnUse">
<stop stop-color="#FFF4F4"/>
<stop offset="1" stop-color="#FFBFBF"/>
</linearGradient>
<linearGradient id="paint1_linear_5176_12256" x1="725" y1="576.116" x2="725" y2="594.165" gradientUnits="userSpaceOnUse">
<stop stop-color="#008EE3"/>
<stop offset="1" stop-color="#0055C2"/>
</linearGradient>
<linearGradient id="paint2_linear_5176_12256" x1="725" y1="576.116" x2="725" y2="594.165" gradientUnits="userSpaceOnUse">
<stop stop-color="#008EE3"/>
<stop offset="1" stop-color="#0055C2"/>
</linearGradient>
<linearGradient id="paint3_linear_5176_12256" x1="725" y1="576.116" x2="725" y2="594.165" gradientUnits="userSpaceOnUse">
<stop stop-color="#008EE3"/>
<stop offset="1" stop-color="#0055C2"/>
</linearGradient>
</defs>
</svg>
