<svg width="800" height="600" viewBox="0 0 800 600" fill="none" xmlns="http://www.w3.org/2000/svg">
<rect width="800" height="600" fill="url(#paint0_linear_5188_12693)"/>
<path d="M353.383 282H327.289V224.422H355.258C362.315 224.526 367.315 226.57 370.258 230.555C372.029 233.003 372.914 235.932 372.914 239.344C372.914 242.859 372.029 245.685 370.258 247.82C369.268 249.018 367.81 250.112 365.883 251.102C368.826 252.169 371.039 253.862 372.523 256.18C374.034 258.497 374.789 261.31 374.789 264.617C374.789 268.029 373.93 271.089 372.211 273.797C371.117 275.594 369.75 277.104 368.109 278.328C366.26 279.734 364.073 280.698 361.547 281.219C359.047 281.74 356.326 282 353.383 282ZM353.109 256.648H338.773V272H352.914C355.44 272 357.406 271.661 358.812 270.984C361.365 269.734 362.641 267.339 362.641 263.797C362.641 260.802 361.404 258.745 358.93 257.625C357.549 257 355.609 256.674 353.109 256.648ZM359.086 245.672C360.648 244.734 361.43 243.055 361.43 240.633C361.43 237.951 360.388 236.18 358.305 235.32C356.508 234.721 354.216 234.422 351.43 234.422H338.773V247.117H352.914C355.44 247.117 357.497 246.635 359.086 245.672ZM419.516 244.812C423.109 249.318 424.906 254.643 424.906 260.789C424.906 267.039 423.109 272.391 419.516 276.844C415.922 281.271 410.466 283.484 403.148 283.484C395.831 283.484 390.375 281.271 386.781 276.844C383.188 272.391 381.391 267.039 381.391 260.789C381.391 254.643 383.188 249.318 386.781 244.812C390.375 240.307 395.831 238.055 403.148 238.055C410.466 238.055 415.922 240.307 419.516 244.812ZM403.109 247.469C399.854 247.469 397.341 248.628 395.57 250.945C393.826 253.237 392.953 256.518 392.953 260.789C392.953 265.06 393.826 268.354 395.57 270.672C397.341 272.99 399.854 274.148 403.109 274.148C406.365 274.148 408.865 272.99 410.609 270.672C412.354 268.354 413.227 265.06 413.227 260.789C413.227 256.518 412.354 253.237 410.609 250.945C408.865 248.628 406.365 247.469 403.109 247.469ZM468.422 244.812C472.016 249.318 473.812 254.643 473.812 260.789C473.812 267.039 472.016 272.391 468.422 276.844C464.828 281.271 459.372 283.484 452.055 283.484C444.737 283.484 439.281 281.271 435.688 276.844C432.094 272.391 430.297 267.039 430.297 260.789C430.297 254.643 432.094 249.318 435.688 244.812C439.281 240.307 444.737 238.055 452.055 238.055C459.372 238.055 464.828 240.307 468.422 244.812ZM452.016 247.469C448.76 247.469 446.247 248.628 444.477 250.945C442.732 253.237 441.859 256.518 441.859 260.789C441.859 265.06 442.732 268.354 444.477 270.672C446.247 272.99 448.76 274.148 452.016 274.148C455.271 274.148 457.771 272.99 459.516 270.672C461.26 268.354 462.133 265.06 462.133 260.789C462.133 256.518 461.26 253.237 459.516 250.945C457.771 248.628 455.271 247.469 452.016 247.469ZM501.312 274.07V282.391L496.039 282.586C490.779 282.768 487.185 281.857 485.258 279.852C484.008 278.576 483.383 276.609 483.383 273.953V247.742H477.445V239.812H483.383V227.938H494.398V239.812H501.312V247.742H494.398V270.242C494.398 271.987 494.62 273.081 495.062 273.523C495.505 273.94 496.859 274.148 499.125 274.148C499.464 274.148 499.815 274.148 500.18 274.148C500.57 274.122 500.948 274.096 501.312 274.07ZM537.797 241.375C541.13 243.51 543.044 247.182 543.539 252.391H532.406C532.25 250.958 531.846 249.826 531.195 248.992C529.971 247.482 527.888 246.727 524.945 246.727C522.523 246.727 520.792 247.104 519.75 247.859C518.734 248.615 518.227 249.5 518.227 250.516C518.227 251.792 518.773 252.716 519.867 253.289C520.961 253.888 524.828 254.917 531.469 256.375C535.896 257.417 539.216 258.992 541.43 261.102C543.617 263.237 544.711 265.906 544.711 269.109C544.711 273.328 543.135 276.779 539.984 279.461C536.859 282.117 532.016 283.445 525.453 283.445C518.76 283.445 513.812 282.039 510.609 279.227C507.432 276.388 505.844 272.781 505.844 268.406H517.133C517.367 270.385 517.875 271.792 518.656 272.625C520.036 274.109 522.589 274.852 526.312 274.852C528.5 274.852 530.232 274.526 531.508 273.875C532.81 273.224 533.461 272.247 533.461 270.945C533.461 269.695 532.94 268.745 531.898 268.094C530.857 267.443 526.99 266.323 520.297 264.734C515.479 263.536 512.081 262.039 510.102 260.242C508.122 258.471 507.133 255.919 507.133 252.586C507.133 248.654 508.669 245.281 511.742 242.469C514.841 239.63 519.19 238.211 524.789 238.211C530.102 238.211 534.438 239.266 537.797 241.375ZM572.484 274.07V282.391L567.211 282.586C561.951 282.768 558.357 281.857 556.43 279.852C555.18 278.576 554.555 276.609 554.555 273.953V247.742H548.617V239.812H554.555V227.938H565.57V239.812H572.484V247.742H565.57V270.242C565.57 271.987 565.792 273.081 566.234 273.523C566.677 273.94 568.031 274.148 570.297 274.148C570.635 274.148 570.987 274.148 571.352 274.148C571.742 274.122 572.12 274.096 572.484 274.07ZM601.039 249.695C596.56 249.695 593.552 251.154 592.016 254.07C591.156 255.711 590.727 258.237 590.727 261.648V282H579.516V239.422H590.141V246.844C591.859 244.005 593.357 242.065 594.633 241.023C596.716 239.279 599.424 238.406 602.758 238.406C602.966 238.406 603.135 238.419 603.266 238.445C603.422 238.445 603.747 238.458 604.242 238.484V249.891C603.539 249.812 602.914 249.76 602.367 249.734C601.82 249.708 601.378 249.695 601.039 249.695ZM612.406 244.031C615.349 240.281 620.401 238.406 627.562 238.406C632.224 238.406 636.365 239.331 639.984 241.18C643.604 243.029 645.414 246.518 645.414 251.648V271.18C645.414 272.534 645.44 274.174 645.492 276.102C645.57 277.56 645.792 278.549 646.156 279.07C646.521 279.591 647.068 280.021 647.797 280.359V282H635.688C635.349 281.141 635.115 280.333 634.984 279.578C634.854 278.823 634.75 277.964 634.672 277C633.135 278.667 631.365 280.086 629.359 281.258C626.964 282.638 624.255 283.328 621.234 283.328C617.38 283.328 614.19 282.234 611.664 280.047C609.164 277.833 607.914 274.708 607.914 270.672C607.914 265.438 609.932 261.648 613.969 259.305C616.182 258.029 619.438 257.117 623.734 256.57L627.523 256.102C629.581 255.841 631.052 255.516 631.938 255.125C633.526 254.448 634.32 253.393 634.32 251.961C634.32 250.216 633.708 249.018 632.484 248.367C631.286 247.69 629.516 247.352 627.172 247.352C624.542 247.352 622.68 248.003 621.586 249.305C620.805 250.268 620.284 251.57 620.023 253.211H609.281C609.516 249.487 610.557 246.427 612.406 244.031ZM620.688 273.953C621.729 274.812 623.005 275.242 624.516 275.242C626.911 275.242 629.112 274.539 631.117 273.133C633.148 271.727 634.203 269.161 634.281 265.438V261.297C633.578 261.74 632.862 262.104 632.133 262.391C631.43 262.651 630.453 262.898 629.203 263.133L626.703 263.602C624.359 264.018 622.68 264.526 621.664 265.125C619.945 266.141 619.086 267.716 619.086 269.852C619.086 271.753 619.62 273.12 620.688 273.953ZM691 243.992C694.438 247.664 696.156 253.055 696.156 260.164C696.156 267.664 694.464 273.38 691.078 277.312C687.719 281.245 683.383 283.211 678.07 283.211C674.685 283.211 671.872 282.365 669.633 280.672C668.409 279.734 667.211 278.367 666.039 276.57V298.758H655.023V239.422H665.688V245.711C666.885 243.862 668.161 242.404 669.516 241.336C671.99 239.435 674.932 238.484 678.344 238.484C683.318 238.484 687.536 240.32 691 243.992ZM684.672 260.711C684.672 257.43 683.917 254.526 682.406 252C680.922 249.474 678.5 248.211 675.141 248.211C671.104 248.211 668.331 250.125 666.82 253.953C666.039 255.984 665.648 258.562 665.648 261.688C665.648 266.635 666.964 270.112 669.594 272.117C671.156 273.289 673.005 273.875 675.141 273.875C678.24 273.875 680.596 272.677 682.211 270.281C683.852 267.885 684.672 264.695 684.672 260.711ZM353.383 374H327.289V316.422H355.258C362.315 316.526 367.315 318.57 370.258 322.555C372.029 325.003 372.914 327.932 372.914 331.344C372.914 334.859 372.029 337.685 370.258 339.82C369.268 341.018 367.81 342.112 365.883 343.102C368.826 344.169 371.039 345.862 372.523 348.18C374.034 350.497 374.789 353.31 374.789 356.617C374.789 360.029 373.93 363.089 372.211 365.797C371.117 367.594 369.75 369.104 368.109 370.328C366.26 371.734 364.073 372.698 361.547 373.219C359.047 373.74 356.326 374 353.383 374ZM353.109 348.648H338.773V364H352.914C355.44 364 357.406 363.661 358.812 362.984C361.365 361.734 362.641 359.339 362.641 355.797C362.641 352.802 361.404 350.745 358.93 349.625C357.549 349 355.609 348.674 353.109 348.648ZM359.086 337.672C360.648 336.734 361.43 335.055 361.43 332.633C361.43 329.951 360.388 328.18 358.305 327.32C356.508 326.721 354.216 326.422 351.43 326.422H338.773V339.117H352.914C355.44 339.117 357.497 338.635 359.086 337.672ZM385.609 336.031C388.552 332.281 393.604 330.406 400.766 330.406C405.427 330.406 409.568 331.331 413.188 333.18C416.807 335.029 418.617 338.518 418.617 343.648V363.18C418.617 364.534 418.643 366.174 418.695 368.102C418.773 369.56 418.995 370.549 419.359 371.07C419.724 371.591 420.271 372.021 421 372.359V374H408.891C408.552 373.141 408.318 372.333 408.188 371.578C408.057 370.823 407.953 369.964 407.875 369C406.339 370.667 404.568 372.086 402.562 373.258C400.167 374.638 397.458 375.328 394.438 375.328C390.583 375.328 387.393 374.234 384.867 372.047C382.367 369.833 381.117 366.708 381.117 362.672C381.117 357.438 383.135 353.648 387.172 351.305C389.385 350.029 392.641 349.117 396.938 348.57L400.727 348.102C402.784 347.841 404.255 347.516 405.141 347.125C406.729 346.448 407.523 345.393 407.523 343.961C407.523 342.216 406.911 341.018 405.688 340.367C404.49 339.69 402.719 339.352 400.375 339.352C397.745 339.352 395.883 340.003 394.789 341.305C394.008 342.268 393.487 343.57 393.227 345.211H382.484C382.719 341.487 383.76 338.427 385.609 336.031ZM393.891 365.953C394.932 366.812 396.208 367.242 397.719 367.242C400.115 367.242 402.315 366.539 404.32 365.133C406.352 363.727 407.406 361.161 407.484 357.438V353.297C406.781 353.74 406.065 354.104 405.336 354.391C404.633 354.651 403.656 354.898 402.406 355.133L399.906 355.602C397.562 356.018 395.883 356.526 394.867 357.125C393.148 358.141 392.289 359.716 392.289 361.852C392.289 363.753 392.823 365.12 393.891 365.953ZM457.875 333.375C461.208 335.51 463.122 339.182 463.617 344.391H452.484C452.328 342.958 451.924 341.826 451.273 340.992C450.049 339.482 447.966 338.727 445.023 338.727C442.602 338.727 440.87 339.104 439.828 339.859C438.812 340.615 438.305 341.5 438.305 342.516C438.305 343.792 438.852 344.716 439.945 345.289C441.039 345.888 444.906 346.917 451.547 348.375C455.974 349.417 459.294 350.992 461.508 353.102C463.695 355.237 464.789 357.906 464.789 361.109C464.789 365.328 463.214 368.779 460.062 371.461C456.938 374.117 452.094 375.445 445.531 375.445C438.839 375.445 433.891 374.039 430.688 371.227C427.51 368.388 425.922 364.781 425.922 360.406H437.211C437.445 362.385 437.953 363.792 438.734 364.625C440.115 366.109 442.667 366.852 446.391 366.852C448.578 366.852 450.31 366.526 451.586 365.875C452.888 365.224 453.539 364.247 453.539 362.945C453.539 361.695 453.018 360.745 451.977 360.094C450.935 359.443 447.068 358.323 440.375 356.734C435.557 355.536 432.159 354.039 430.18 352.242C428.201 350.471 427.211 347.919 427.211 344.586C427.211 340.654 428.747 337.281 431.82 334.469C434.919 331.63 439.268 330.211 444.867 330.211C450.18 330.211 454.516 331.266 457.875 333.375ZM484.516 331.422V374H473.227V331.422H484.516ZM484.516 316.07V326.344H473.227V316.07H484.516ZM532.172 346.695H520.766C520.557 345.107 520.023 343.674 519.164 342.398C517.914 340.68 515.974 339.82 513.344 339.82C509.594 339.82 507.029 341.682 505.648 345.406C504.919 347.385 504.555 350.016 504.555 353.297C504.555 356.422 504.919 358.935 505.648 360.836C506.977 364.378 509.477 366.148 513.148 366.148C515.753 366.148 517.602 365.445 518.695 364.039C519.789 362.633 520.453 360.81 520.688 358.57H532.055C531.794 361.956 530.57 365.159 528.383 368.18C524.893 373.049 519.724 375.484 512.875 375.484C506.026 375.484 500.987 373.453 497.758 369.391C494.529 365.328 492.914 360.055 492.914 353.57C492.914 346.253 494.698 340.562 498.266 336.5C501.833 332.438 506.755 330.406 513.031 330.406C518.37 330.406 522.732 331.604 526.117 334C529.529 336.396 531.547 340.628 532.172 346.695ZM569.203 333.375C572.536 335.51 574.451 339.182 574.945 344.391H563.812C563.656 342.958 563.253 341.826 562.602 340.992C561.378 339.482 559.294 338.727 556.352 338.727C553.93 338.727 552.198 339.104 551.156 339.859C550.141 340.615 549.633 341.5 549.633 342.516C549.633 343.792 550.18 344.716 551.273 345.289C552.367 345.888 556.234 346.917 562.875 348.375C567.302 349.417 570.622 350.992 572.836 353.102C575.023 355.237 576.117 357.906 576.117 361.109C576.117 365.328 574.542 368.779 571.391 371.461C568.266 374.117 563.422 375.445 556.859 375.445C550.167 375.445 545.219 374.039 542.016 371.227C538.839 368.388 537.25 364.781 537.25 360.406H548.539C548.773 362.385 549.281 363.792 550.062 364.625C551.443 366.109 553.995 366.852 557.719 366.852C559.906 366.852 561.638 366.526 562.914 365.875C564.216 365.224 564.867 364.247 564.867 362.945C564.867 361.695 564.346 360.745 563.305 360.094C562.263 359.443 558.396 358.323 551.703 356.734C546.885 355.536 543.487 354.039 541.508 352.242C539.529 350.471 538.539 347.919 538.539 344.586C538.539 340.654 540.076 337.281 543.148 334.469C546.247 331.63 550.596 330.211 556.195 330.211C561.508 330.211 565.844 331.266 569.203 333.375Z" fill="#614984"/>
<g filter="url(#filter0_d_5188_12693)">
<path d="M145.188 380.745C147.135 381.869 149.447 382.761 151.991 383.37C154.535 383.978 157.261 384.291 160.015 384.291C162.769 384.291 165.495 383.978 168.039 383.37C170.583 382.761 172.895 381.869 174.842 380.745L260.173 331.483C262.12 330.359 263.665 329.025 264.719 327.556C265.773 326.088 266.315 324.514 266.315 322.924C266.315 321.334 265.773 319.76 264.719 318.292C263.665 316.823 262.12 315.488 260.173 314.364L174.841 265.102C172.894 263.978 170.582 263.086 168.039 262.478C165.495 261.869 162.768 261.556 160.015 261.556C157.261 261.556 154.535 261.869 151.991 262.477C149.447 263.086 147.135 263.977 145.188 265.101L59.8557 314.364C57.9084 315.488 56.3638 316.822 55.3099 318.291C54.2561 319.76 53.7136 321.334 53.7136 322.923C53.7136 324.513 54.2561 326.087 55.3099 327.556C56.3638 329.024 57.9084 330.359 59.8557 331.483L145.188 380.745Z" fill="#876AB4"/>
<path d="M145.188 357.337C147.135 358.461 149.447 359.353 151.991 359.961C154.535 360.569 157.261 360.883 160.015 360.883C162.769 360.883 165.495 360.569 168.039 359.961C170.583 359.353 172.895 358.461 174.842 357.337L260.173 308.075C262.12 306.951 263.665 305.616 264.719 304.148C265.773 302.679 266.315 301.105 266.315 299.515C266.315 297.926 265.773 296.352 264.719 294.883C263.665 293.414 262.12 292.08 260.173 290.956L174.841 241.693C172.894 240.569 170.582 239.678 168.039 239.069C165.495 238.461 162.768 238.148 160.015 238.148C157.261 238.148 154.535 238.461 151.991 239.069C149.447 239.677 147.135 240.569 145.188 241.693L59.8557 290.955C57.9084 292.079 56.3638 293.414 55.3099 294.882C54.2561 296.351 53.7136 297.925 53.7136 299.515C53.7136 301.104 54.2561 302.679 55.3099 304.147C56.3638 305.616 57.9084 306.95 59.8557 308.074L145.188 357.337Z" fill="#6F5A90"/>
<path d="M145.159 334.203C147.106 335.327 149.418 336.219 151.962 336.827C154.506 337.435 157.232 337.749 159.986 337.749C162.74 337.749 165.466 337.435 168.01 336.827C170.554 336.219 172.866 335.327 174.813 334.203L260.144 284.941C262.092 283.817 263.636 282.482 264.69 281.014C265.744 279.545 266.286 277.971 266.286 276.381C266.286 274.792 265.744 273.218 264.69 271.749C263.636 270.28 262.092 268.946 260.144 267.822L174.812 218.559C172.865 217.435 170.554 216.544 168.01 215.935C165.466 215.327 162.739 215.014 159.986 215.014C157.232 215.014 154.506 215.327 151.962 215.935C149.418 216.543 147.106 217.435 145.159 218.559L59.8268 267.821C57.8795 268.945 56.3349 270.28 55.281 271.748C54.2271 273.217 53.6847 274.791 53.6847 276.381C53.6847 277.97 54.2271 279.545 55.281 281.013C56.3349 282.482 57.8795 283.816 59.8268 284.94L145.159 334.203Z" fill="#563D7C"/>
<path d="M143.544 278.217L127.262 268.817L141.595 260.542C142.915 259.776 144.351 259.079 145.886 258.46C147.269 257.889 148.823 257.469 150.468 257.221C152.042 256.996 153.69 257.016 155.246 257.277C157.111 257.627 158.79 258.247 160.121 259.078C163.046 260.767 164.281 262.494 163.826 264.258C163.222 266.182 161.545 267.941 159.052 269.265L143.544 278.217ZM100.056 270.787L169.68 310.98L203.417 291.503C206.5 289.73 209.171 287.734 211.365 285.564C213.472 283.516 214.925 281.267 215.656 278.922C216.338 276.648 216.07 274.313 214.876 272.111C213.477 269.659 211.048 267.445 207.806 265.666C203.962 263.314 198.958 261.703 193.472 261.05C187.909 260.525 182.204 261.164 177.384 262.851C178.957 260.495 179.412 257.94 178.701 255.449C177.757 252.975 175.528 250.727 172.313 249.003C169.585 247.326 166.235 246.027 162.514 245.204C159.359 244.553 155.96 244.397 152.666 244.753C149.128 245.171 145.766 245.983 142.77 247.146C139.176 248.516 135.842 250.101 132.824 251.875L100.056 270.787ZM173.093 295.273L153.98 284.239L170.651 274.614C173.356 272.891 176.973 271.733 180.938 271.321C184.481 271.04 188.041 271.931 191.617 273.995C193.223 274.856 194.442 275.929 195.171 277.123C195.72 278.104 195.822 279.15 195.467 280.16C195.074 281.204 194.346 282.197 193.322 283.087C192.209 284.073 190.918 284.988 189.471 285.817L173.09 295.274L173.093 295.273Z" fill="white"/>
</g>
<path d="M741.435 592.713C741.435 593.599 742.138 594.276 742.998 594.276C743.884 594.276 744.587 593.599 744.587 592.713V576.563C744.587 575.703 743.884 575 742.998 575C742.112 575 741.435 575.703 741.435 576.563V592.713Z" fill="#030060"/>
<path d="M748.654 576.849C748.654 577.787 749.436 578.412 750.452 578.412C751.467 578.412 752.249 577.787 752.249 576.849V576.693C752.249 575.755 751.467 575.156 750.452 575.156C749.436 575.156 748.654 575.755 748.654 576.693V576.849ZM748.889 592.713C748.889 593.599 749.592 594.276 750.452 594.276C751.337 594.276 752.041 593.599 752.041 592.713V581.825C752.041 580.939 751.337 580.236 750.452 580.236C749.566 580.236 748.889 580.939 748.889 581.825V592.713Z" fill="#030060"/>
<path d="M756.16 592.713C756.16 593.573 756.863 594.276 757.723 594.276C758.608 594.276 759.312 593.573 759.312 592.713V592.01C760.276 593.287 761.708 594.433 764.001 594.433C767.257 594.433 770.383 591.854 770.383 587.295V587.243C770.383 582.658 767.231 580.106 764.001 580.106C761.76 580.106 760.328 581.252 759.312 582.685V576.563C759.312 575.677 758.608 575 757.723 575C756.837 575 756.16 575.677 756.16 576.563V592.713ZM763.245 591.698C761.109 591.698 759.234 589.926 759.234 587.295V587.243C759.234 584.612 761.109 582.841 763.245 582.841C765.381 582.841 767.179 584.586 767.179 587.243V587.295C767.179 590.004 765.407 591.698 763.245 591.698Z" fill="#030060"/>
<path d="M773.819 592.713C773.819 593.599 774.522 594.276 775.382 594.276C776.267 594.276 776.971 593.599 776.971 592.713V576.563C776.971 575.703 776.267 575 775.382 575C774.496 575 773.819 575.703 773.819 576.563V592.713Z" fill="#030060"/>
<path d="M787.628 594.459C791.874 594.459 795 591.203 795 587.295V587.243C795 583.31 791.9 580.106 787.68 580.106C783.46 580.106 780.334 583.362 780.334 587.295V587.347C780.334 591.255 783.434 594.459 787.628 594.459ZM787.68 591.698C785.232 591.698 783.486 589.692 783.486 587.295V587.243C783.486 584.847 785.101 582.867 787.628 582.867C790.103 582.867 791.848 584.873 791.848 587.295V587.347C791.848 589.718 790.233 591.698 787.68 591.698Z" fill="#030060"/>
<path d="M736.96 590.09C735.74 590.65 734.453 591.046 733.208 591.294C728.074 592.314 725.36 589.099 729.634 586.781C730.099 586.529 730.632 586.291 731.228 586.075L732.011 585.826C732.241 585.763 732.463 585.661 732.534 585.515C732.905 584.723 729.731 584.467 727.622 585.589C728.458 585.431 729.186 585.408 729.668 585.609C724.878 586.845 723.788 590.757 726.335 592.642C727.649 593.615 729.127 593.873 731.832 593.682C733.637 593.555 735.48 592.837 736.96 591.969V590.09Z" fill="url(#paint1_linear_5188_12693)"/>
<path d="M734.542 592.784C734.542 593.607 735.171 594.165 736.03 594.165C736.89 594.165 737.478 593.644 737.478 592.784V586.011C737.478 584.214 737.009 582.755 735.993 581.765C735.029 580.776 733.492 580.228 731.434 580.228C729.637 580.228 728.308 580.541 727.006 581.036C726.537 581.218 726.146 581.713 726.146 582.286C726.146 583.016 726.745 583.589 727.475 583.589C727.631 583.589 727.787 583.563 727.97 583.511C728.829 583.172 729.819 582.964 731.018 582.964C733.232 582.964 734.43 584.006 734.43 585.959V585.968L734.542 592.784Z" fill="url(#paint2_linear_5188_12693)"/>
<path d="M733.611 578.379C733.611 578.591 733.273 578.721 732.805 578.721C732.077 578.721 731.583 578.64 730.984 578.282L729.216 577.24C728.956 577.093 728.774 576.93 728.774 576.751C728.774 576.442 729.814 576.116 730.646 576.116C731.192 576.116 731.609 576.295 731.895 576.589L733.377 578.021C733.481 578.119 733.611 578.265 733.611 578.379Z" fill="url(#paint3_linear_5188_12693)"/>
<defs>
<filter id="filter0_d_5188_12693" x="13.6847" y="175.014" width="312.631" height="269.278" filterUnits="userSpaceOnUse" color-interpolation-filters="sRGB">
<feFlood flood-opacity="0" result="BackgroundImageFix"/>
<feColorMatrix in="SourceAlpha" type="matrix" values="0 0 0 0 0 0 0 0 0 0 0 0 0 0 0 0 0 0 127 0" result="hardAlpha"/>
<feOffset dx="10" dy="10"/>
<feGaussianBlur stdDeviation="25"/>
<feComposite in2="hardAlpha" operator="out"/>
<feColorMatrix type="matrix" values="0 0 0 0 0 0 0 0 0 0 0 0 0 0 0 0 0 0 0.25 0"/>
<feBlend mode="normal" in2="BackgroundImageFix" result="effect1_dropShadow_5188_12693"/>
<feBlend mode="normal" in="SourceGraphic" in2="effect1_dropShadow_5188_12693" result="shape"/>
</filter>
<linearGradient id="paint0_linear_5188_12693" x1="800" y1="0" x2="-2.41945" y2="596.747" gradientUnits="userSpaceOnUse">
<stop stop-color="#F4EFFF"/>
<stop offset="1" stop-color="#CAB1FF"/>
</linearGradient>
<linearGradient id="paint1_linear_5188_12693" x1="725" y1="576.116" x2="725" y2="594.165" gradientUnits="userSpaceOnUse">
<stop stop-color="#008EE3"/>
<stop offset="1" stop-color="#0055C2"/>
</linearGradient>
<linearGradient id="paint2_linear_5188_12693" x1="725" y1="576.116" x2="725" y2="594.165" gradientUnits="userSpaceOnUse">
<stop stop-color="#008EE3"/>
<stop offset="1" stop-color="#0055C2"/>
</linearGradient>
<linearGradient id="paint3_linear_5188_12693" x1="725" y1="576.116" x2="725" y2="594.165" gradientUnits="userSpaceOnUse">
<stop stop-color="#008EE3"/>
<stop offset="1" stop-color="#0055C2"/>
</linearGradient>
</defs>
</svg>
