<svg width="800" height="600" viewBox="0 0 800 600" fill="none" xmlns="http://www.w3.org/2000/svg">
<g clip-path="url(#clip0_5188_12736)">
<rect width="800" height="600" fill="url(#paint0_linear_5188_12736)"/>
<path d="M283.094 223.422H295.125V270.648H323.641V281H283.094V223.422ZM342.547 238.422V281H331.258V238.422H342.547ZM342.547 223.07V233.344H331.258V223.07H342.547ZM373.406 246.664C369.63 246.664 367.039 248.266 365.633 251.469C364.904 253.161 364.539 255.323 364.539 257.953V281H353.445V238.5H364.188V244.711C365.62 242.523 366.974 240.948 368.25 239.984C370.542 238.266 373.445 237.406 376.961 237.406C381.362 237.406 384.956 238.565 387.742 240.883C390.555 243.174 391.961 246.99 391.961 252.328V281H380.555V255.102C380.555 252.862 380.255 251.143 379.656 249.945C378.562 247.758 376.479 246.664 373.406 246.664ZM429.578 274.984C429.474 275.115 429.214 275.505 428.797 276.156C428.38 276.807 427.885 277.38 427.312 277.875C425.568 279.438 423.875 280.505 422.234 281.078C420.62 281.651 418.719 281.938 416.531 281.938C410.229 281.938 405.984 279.672 403.797 275.141C402.573 272.641 401.961 268.956 401.961 264.086V238.422H413.367V264.086C413.367 266.508 413.654 268.331 414.227 269.555C415.242 271.716 417.234 272.797 420.203 272.797C424.005 272.797 426.609 271.26 428.016 268.188C428.745 266.521 429.109 264.32 429.109 261.586V238.422H440.398V281H429.578V274.984ZM489.109 281H475.242L467.898 268.227L460.516 281H447L461.531 259.438L447.625 238.5H461.258L468.367 250.844L475.32 238.5H488.562L474.578 259.242L489.109 281ZM544.344 282.602C536.115 282.602 529.826 280.362 525.477 275.883C519.643 270.388 516.727 262.471 516.727 252.133C516.727 241.586 519.643 233.669 525.477 228.383C529.826 223.904 536.115 221.664 544.344 221.664C552.573 221.664 558.862 223.904 563.211 228.383C569.018 233.669 571.922 241.586 571.922 252.133C571.922 262.471 569.018 270.388 563.211 275.883C558.862 280.362 552.573 282.602 544.344 282.602ZM555.711 267.133C558.497 263.617 559.891 258.617 559.891 252.133C559.891 245.674 558.484 240.688 555.672 237.172C552.885 233.63 549.109 231.859 544.344 231.859C539.578 231.859 535.776 233.617 532.938 237.133C530.099 240.648 528.68 245.648 528.68 252.133C528.68 258.617 530.099 263.617 532.938 267.133C535.776 270.648 539.578 272.406 544.344 272.406C549.109 272.406 552.898 270.648 555.711 267.133ZM602.039 272.68C604.878 272.68 607.182 272.367 608.953 271.742C612.312 270.544 613.992 268.318 613.992 265.062C613.992 263.161 613.159 261.69 611.492 260.648C609.826 259.633 607.208 258.734 603.641 257.953L597.547 256.586C591.557 255.232 587.417 253.76 585.125 252.172C581.245 249.516 579.305 245.362 579.305 239.711C579.305 234.555 581.18 230.271 584.93 226.859C588.68 223.448 594.188 221.742 601.453 221.742C607.521 221.742 612.69 223.357 616.961 226.586C621.258 229.789 623.51 234.451 623.719 240.57H612.156C611.948 237.107 610.438 234.646 607.625 233.188C605.75 232.224 603.419 231.742 600.633 231.742C597.534 231.742 595.06 232.367 593.211 233.617C591.362 234.867 590.438 236.612 590.438 238.852C590.438 240.909 591.349 242.445 593.172 243.461C594.344 244.138 596.844 244.932 600.672 245.844L610.594 248.227C614.943 249.268 618.224 250.661 620.438 252.406C623.875 255.115 625.594 259.034 625.594 264.164C625.594 269.424 623.576 273.799 619.539 277.289C615.529 280.753 609.852 282.484 602.508 282.484C595.008 282.484 589.109 280.779 584.812 277.367C580.516 273.93 578.367 269.216 578.367 263.227H589.852C590.216 265.857 590.932 267.823 592 269.125C593.953 271.495 597.299 272.68 602.039 272.68ZM282.156 315.422H294.109V373H282.156V315.422ZM324.5 338.664C320.724 338.664 318.133 340.266 316.727 343.469C315.997 345.161 315.633 347.323 315.633 349.953V373H304.539V330.5H315.281V336.711C316.714 334.523 318.068 332.948 319.344 331.984C321.635 330.266 324.539 329.406 328.055 329.406C332.456 329.406 336.049 330.565 338.836 332.883C341.648 335.174 343.055 338.99 343.055 344.328V373H331.648V347.102C331.648 344.862 331.349 343.143 330.75 341.945C329.656 339.758 327.573 338.664 324.5 338.664ZM372.859 365.07V373.391L367.586 373.586C362.326 373.768 358.732 372.857 356.805 370.852C355.555 369.576 354.93 367.609 354.93 364.953V338.742H348.992V330.812H354.93V318.938H365.945V330.812H372.859V338.742H365.945V361.242C365.945 362.987 366.167 364.081 366.609 364.523C367.052 364.94 368.406 365.148 370.672 365.148C371.01 365.148 371.362 365.148 371.727 365.148C372.117 365.122 372.495 365.096 372.859 365.07ZM401.414 340.695C396.935 340.695 393.927 342.154 392.391 345.07C391.531 346.711 391.102 349.237 391.102 352.648V373H379.891V330.422H390.516V337.844C392.234 335.005 393.732 333.065 395.008 332.023C397.091 330.279 399.799 329.406 403.133 329.406C403.341 329.406 403.51 329.419 403.641 329.445C403.797 329.445 404.122 329.458 404.617 329.484V340.891C403.914 340.812 403.289 340.76 402.742 340.734C402.195 340.708 401.753 340.695 401.414 340.695ZM446.688 335.812C450.281 340.318 452.078 345.643 452.078 351.789C452.078 358.039 450.281 363.391 446.688 367.844C443.094 372.271 437.638 374.484 430.32 374.484C423.003 374.484 417.547 372.271 413.953 367.844C410.359 363.391 408.562 358.039 408.562 351.789C408.562 345.643 410.359 340.318 413.953 335.812C417.547 331.307 423.003 329.055 430.32 329.055C437.638 329.055 443.094 331.307 446.688 335.812ZM430.281 338.469C427.026 338.469 424.513 339.628 422.742 341.945C420.997 344.237 420.125 347.518 420.125 351.789C420.125 356.06 420.997 359.354 422.742 361.672C424.513 363.99 427.026 365.148 430.281 365.148C433.536 365.148 436.036 363.99 437.781 361.672C439.526 359.354 440.398 356.06 440.398 351.789C440.398 347.518 439.526 344.237 437.781 341.945C436.036 339.628 433.536 338.469 430.281 338.469ZM498.836 315.5V373H488.016V367.102C486.427 369.628 484.617 371.464 482.586 372.609C480.555 373.755 478.029 374.328 475.008 374.328C470.034 374.328 465.841 372.323 462.43 368.312C459.044 364.276 457.352 359.107 457.352 352.805C457.352 345.539 459.018 339.823 462.352 335.656C465.711 331.49 470.19 329.406 475.789 329.406C478.367 329.406 480.659 329.979 482.664 331.125C484.669 332.245 486.297 333.807 487.547 335.812V315.5H498.836ZM468.836 351.984C468.836 355.917 469.617 359.055 471.18 361.398C472.716 363.768 475.06 364.953 478.211 364.953C481.362 364.953 483.758 363.781 485.398 361.438C487.039 359.094 487.859 356.06 487.859 352.336C487.859 347.128 486.544 343.404 483.914 341.164C482.299 339.81 480.424 339.133 478.289 339.133C475.034 339.133 472.638 340.37 471.102 342.844C469.591 345.292 468.836 348.339 468.836 351.984ZM536.297 366.984C536.193 367.115 535.932 367.505 535.516 368.156C535.099 368.807 534.604 369.38 534.031 369.875C532.286 371.438 530.594 372.505 528.953 373.078C527.339 373.651 525.438 373.938 523.25 373.938C516.948 373.938 512.703 371.672 510.516 367.141C509.292 364.641 508.68 360.956 508.68 356.086V330.422H520.086V356.086C520.086 358.508 520.372 360.331 520.945 361.555C521.961 363.716 523.953 364.797 526.922 364.797C530.724 364.797 533.328 363.26 534.734 360.188C535.464 358.521 535.828 356.32 535.828 353.586V330.422H547.117V373H536.297V366.984ZM594.734 345.695H583.328C583.12 344.107 582.586 342.674 581.727 341.398C580.477 339.68 578.536 338.82 575.906 338.82C572.156 338.82 569.591 340.682 568.211 344.406C567.482 346.385 567.117 349.016 567.117 352.297C567.117 355.422 567.482 357.935 568.211 359.836C569.539 363.378 572.039 365.148 575.711 365.148C578.315 365.148 580.164 364.445 581.258 363.039C582.352 361.633 583.016 359.81 583.25 357.57H594.617C594.357 360.956 593.133 364.159 590.945 367.18C587.456 372.049 582.286 374.484 575.438 374.484C568.589 374.484 563.549 372.453 560.32 368.391C557.091 364.328 555.477 359.055 555.477 352.57C555.477 345.253 557.26 339.562 560.828 335.5C564.396 331.438 569.318 329.406 575.594 329.406C580.932 329.406 585.294 330.604 588.68 333C592.091 335.396 594.109 339.628 594.734 345.695ZM621.922 365.07V373.391L616.648 373.586C611.388 373.768 607.794 372.857 605.867 370.852C604.617 369.576 603.992 367.609 603.992 364.953V338.742H598.055V330.812H603.992V318.938H615.008V330.812H621.922V338.742H615.008V361.242C615.008 362.987 615.229 364.081 615.672 364.523C616.115 364.94 617.469 365.148 619.734 365.148C620.073 365.148 620.424 365.148 620.789 365.148C621.18 365.122 621.557 365.096 621.922 365.07ZM640.516 330.422V373H629.227V330.422H640.516ZM640.516 315.07V325.344H629.227V315.07H640.516ZM686.844 335.812C690.438 340.318 692.234 345.643 692.234 351.789C692.234 358.039 690.438 363.391 686.844 367.844C683.25 372.271 677.794 374.484 670.477 374.484C663.159 374.484 657.703 372.271 654.109 367.844C650.516 363.391 648.719 358.039 648.719 351.789C648.719 345.643 650.516 340.318 654.109 335.812C657.703 331.307 663.159 329.055 670.477 329.055C677.794 329.055 683.25 331.307 686.844 335.812ZM670.438 338.469C667.182 338.469 664.669 339.628 662.898 341.945C661.154 344.237 660.281 347.518 660.281 351.789C660.281 356.06 661.154 359.354 662.898 361.672C664.669 363.99 667.182 365.148 670.438 365.148C673.693 365.148 676.193 363.99 677.938 361.672C679.682 359.354 680.555 356.06 680.555 351.789C680.555 347.518 679.682 344.237 677.938 341.945C676.193 339.628 673.693 338.469 670.438 338.469ZM720.281 338.664C716.505 338.664 713.914 340.266 712.508 343.469C711.779 345.161 711.414 347.323 711.414 349.953V373H700.32V330.5H711.062V336.711C712.495 334.523 713.849 332.948 715.125 331.984C717.417 330.266 720.32 329.406 723.836 329.406C728.237 329.406 731.831 330.565 734.617 332.883C737.43 335.174 738.836 338.99 738.836 344.328V373H727.43V347.102C727.43 344.862 727.13 343.143 726.531 341.945C725.438 339.758 723.354 338.664 720.281 338.664Z" fill="#E0F7F9"/>
<circle cx="80" cy="299" r="173" fill="white"/>
<path d="M87.9937 246.419C88.6437 246.175 89.5375 246.094 90.1062 246.419C90.2687 246.5 90.4312 246.663 90.35 246.825V246.988H90.4312C90.2687 247.475 89.4562 247.394 89.05 247.556C88.6437 247.719 88.3187 248.125 87.9125 248.125C87.5062 248.125 86.8562 247.963 86.775 247.556C86.6937 246.988 87.5062 246.419 87.9937 246.419V246.419ZM96.2812 247.556C95.875 247.394 95.0625 247.475 94.9812 246.988V246.825C94.9 246.663 95.0625 246.5 95.1437 246.419C95.8473 246.134 96.6339 246.134 97.3375 246.419C97.825 246.419 98.6375 246.988 98.5562 247.556C98.475 247.963 97.825 248.044 97.4187 248.044C97.0125 248.044 96.6875 247.719 96.2812 247.556V247.556ZM81.9812 259.338C84.4187 260.963 87.5875 263.156 91.5687 263.156C95.55 263.156 100.262 260.963 103.106 259.338C104.65 258.281 106.762 256.656 108.387 255.519C109.687 254.463 109.606 253.406 110.744 253.406C111.8 253.488 110.987 254.463 109.525 256.088C107.981 257.144 105.706 258.769 103.837 259.906C100.262 261.531 96.0375 264.213 91.5687 264.213C87.1812 264.213 83.6062 262.019 81.0875 260.394C79.7875 259.338 78.8125 258.281 78 257.713C76.7 256.656 76.8625 255.031 77.4312 255.031C78.325 255.113 78.4875 256.088 79.0562 256.656C79.8687 257.144 80.8437 258.281 81.9812 259.338V259.338Z" fill="#F9C105"/>
<path d="M98.5561 247.556C98.4749 247.963 97.8249 248.044 97.4186 248.044C97.0124 248.044 96.6874 247.719 96.2811 247.556C95.8749 247.394 95.0624 247.475 94.9811 246.988V246.825C94.8999 246.663 95.0624 246.5 95.1436 246.419C95.8472 246.134 96.6338 246.134 97.3374 246.419C97.8249 246.419 98.6374 246.988 98.5561 247.556V247.556Z" fill="black"/>
<path d="M135.119 290.212V297.687H130.65C134.707 305.085 137.612 313.058 139.263 321.331C140.481 321.25 141.944 321.494 143.488 321.819C144.138 320.112 144.544 318.406 144.788 316.7C146.331 305.406 139.181 294.356 135.119 290.212V290.212ZM135.119 290.212V297.687H130.65C134.707 305.085 137.612 313.058 139.263 321.331C140.481 321.25 141.944 321.494 143.488 321.819C144.138 320.112 144.544 318.406 144.788 316.7C146.331 305.406 139.181 294.356 135.119 290.212V290.212ZM172.9 354.969V354.238L172.819 354.156C171.438 352.531 170.788 349.85 170.056 346.681C169.406 343.431 168.594 340.262 165.994 338.15C165.506 337.744 165.019 337.663 164.45 337.094C163.987 336.786 163.458 336.591 162.906 336.525C165.181 329.863 165.425 323.119 164.288 316.7C163.719 313.206 162.744 309.794 161.444 306.544C157.056 295.087 149.419 285.094 143.569 278.269C140.563 274.45 137.475 270.631 135.119 266.569C132.438 261.937 130.65 256.981 130.731 250.887C130.894 239.594 131.625 221.963 123.663 210.994C119.438 205.062 112.531 201 101.644 201C100.344 201 99.0438 201.081 97.6626 201.162C87.3438 201.975 80.9251 205.713 76.9438 210.994C67.6001 223.344 71.9876 243.819 71.6626 252.35C71.0126 261.206 69.2251 268.194 63.0501 276.888C60.5313 279.813 57.6063 283.388 54.7626 287.45C49.3188 295.088 43.8751 304.187 40.7063 313.612C38.6751 319.706 37.5376 325.963 38.1063 331.975L38.3501 333.844C38.0251 334.088 37.7001 334.412 37.4563 334.9C35.2626 337.094 33.7188 339.775 32.0126 341.725C30.3063 343.35 28.0313 343.919 25.4313 344.975C22.8313 346.112 19.9876 347.169 18.3626 350.5C17.5501 352.044 17.2251 353.75 17.2251 355.375C17.2251 357 17.4688 358.706 17.7126 359.763C18.2001 363.013 18.6876 365.694 18.0376 367.644C16.0063 373.169 15.7626 376.987 17.1438 379.75C18.6063 382.431 21.5313 383.488 24.8626 384.625C31.5251 386.25 40.5438 385.681 47.6938 389.5C55.2501 393.238 63.0501 394.944 69.1438 393.319C73.5313 392.344 77.1876 389.5 79.1376 385.6C79.5438 385.6 79.8688 385.6 80.2751 385.519C84.8251 385.275 89.8626 383.406 97.6626 382.919C99.8563 382.756 102.213 383 104.813 383.325C108.956 383.975 113.669 384.869 118.869 384.544C119.031 385.6 119.356 386.088 119.763 387.225H119.844C123.013 393.563 128.944 396.406 135.281 395.919C141.619 395.431 148.363 391.613 153.888 385.356C159.006 379.1 167.7 376.5 173.388 373.088C176.231 371.544 178.588 369.35 178.75 366.181C178.913 362.931 177.125 359.6 172.9 354.969V354.969ZM109.688 238.7C109.363 237.644 108.875 237.075 108.225 236.019C107.494 235.45 106.844 234.881 106.031 234.881H105.869C105.138 234.881 104.406 235.125 103.756 236.019C102.944 236.75 102.375 237.644 102.05 238.7C101.644 239.756 101.4 240.812 101.319 241.95V242.112C101.319 242.844 101.4 243.575 101.481 244.306C99.8563 243.737 97.9063 243.169 96.5251 242.6C96.4438 242.112 96.3626 241.544 96.3626 241.056V240.894C96.2813 238.7 96.6876 236.587 97.5813 234.637C98.2313 232.85 99.4501 231.306 101.075 230.25C102.538 229.194 104.244 228.625 105.95 228.625H106.113C107.819 228.625 109.363 229.194 110.906 230.25C112.45 231.387 113.588 232.931 114.481 234.637C115.375 236.669 115.781 238.294 115.863 240.488C115.863 240.325 115.944 240.163 115.944 240V240.813C115.863 240.813 115.863 240.731 115.863 240.65C115.863 242.519 115.375 244.469 114.644 246.256C114.238 247.231 113.669 248.206 112.856 248.938C112.613 248.775 112.369 248.694 112.125 248.613C111.313 248.206 110.5 248.044 109.769 247.556C109.203 247.282 108.601 247.091 107.981 246.987C108.388 246.5 109.2 245.931 109.525 245.363C109.931 244.306 110.175 243.25 110.256 242.112V241.95C110.256 240.894 110.094 239.756 109.688 238.7V238.7ZM75.8876 235.125C76.2938 233.5 77.1063 232.038 78.2438 230.738C79.3001 229.681 80.3563 229.113 81.6563 229.113H81.9001C83.1029 229.13 84.2692 229.528 85.2313 230.25C86.4501 231.306 87.4251 232.606 88.0751 233.987C88.8063 235.612 89.2126 237.238 89.2938 239.431C89.3751 240 89.3751 240.406 89.3751 240.813C89.3751 241.138 89.3751 241.381 89.2938 241.625V242.275C89.0854 242.358 88.8668 242.413 88.6438 242.437C87.3438 242.925 86.3688 243.575 85.3938 244.063C85.4751 243.413 85.4751 242.681 85.3938 241.95V241.787C85.3126 240.731 85.0688 240.163 84.7438 239.106C84.4728 238.272 83.9981 237.518 83.3626 236.913C83.1509 236.732 82.9052 236.596 82.6401 236.512C82.3749 236.429 82.0957 236.399 81.8188 236.425H81.6563C81.0876 236.425 80.6001 236.75 80.1938 237.481C79.6251 238.131 79.3001 238.863 79.1376 239.675C78.9751 240.569 78.8938 241.463 78.9751 242.356V242.519C79.0563 243.575 79.3001 244.144 79.6251 245.2C80.0313 246.256 80.4376 246.825 81.0063 247.394C81.0876 247.475 81.1688 247.556 81.2501 247.556C80.6813 248.044 80.3563 248.125 79.8688 248.694C79.5346 248.962 79.1467 249.156 78.7313 249.263C77.9188 248.206 77.1876 247.15 76.5376 245.931C75.7251 244.225 75.3188 242.437 75.2376 240.569C75.0751 238.7 75.3188 236.831 75.8876 235.125V235.125ZM76.7813 252.269C78.5688 251.131 79.8688 249.994 80.7626 249.506C81.5751 248.937 81.9001 248.694 82.1438 248.45H82.2251C83.6063 246.744 85.8001 244.631 89.0501 243.494C90.1876 243.25 91.4876 243.006 92.9501 243.006C95.6313 243.006 98.9626 243.494 102.863 246.256C105.3 247.881 107.169 248.45 111.556 250.075C113.669 251.131 114.888 252.188 115.538 253.325V252.188C116.106 253.406 116.106 254.787 115.619 256.006C114.644 258.606 111.394 261.287 106.925 262.912C104.65 263.969 102.781 265.594 100.506 266.65C98.2313 267.787 95.7126 269.088 92.2188 268.844C90.9722 268.947 89.7189 268.752 88.5626 268.275C87.5876 267.787 86.6938 267.3 85.8813 266.731C84.2563 265.594 82.8751 263.969 80.8438 262.912C77.5126 260.881 75.7251 258.687 75.1563 257.144C74.5876 254.95 75.1563 253.325 76.7813 252.269V252.269ZM78.0813 379.506C77.5938 385.519 74.1001 388.769 68.8188 389.988C63.4563 391.044 56.3063 389.987 49.0751 386.25C41.1938 381.862 31.6876 382.431 25.6751 381.294C22.5876 380.806 20.6376 379.669 19.6626 378.044C18.7688 376.419 18.7688 373.169 20.7188 368.05C21.6938 365.287 20.9626 361.875 20.4751 358.95C20.0688 355.7 19.8251 353.181 20.8813 351.312C22.1813 348.55 24.1313 348.062 26.4876 346.925C28.9251 345.869 31.7688 345.3 34.0438 343.188V343.106C36.1563 340.912 37.7001 338.231 39.5688 336.281C41.1126 334.656 42.6563 333.6 45.0126 333.6H45.0938C45.5001 333.6 45.9063 333.6 46.3938 333.681C49.4813 334.169 52.1626 336.444 54.7626 339.775L62.2376 353.344H62.3188C64.2688 357.65 68.4938 362.037 72.0688 366.669C75.6438 371.544 78.4063 375.85 78.0813 379.425V379.506V379.506ZM104.813 374.306C96.7688 376.175 88.2376 375.606 80.2751 371.219C79.3001 370.731 78.3251 370.162 77.4313 369.512C76.5376 367.969 75.4001 366.506 74.1001 365.206C73.5021 364.188 72.7324 363.281 71.8251 362.525C73.3688 362.525 74.6688 362.281 75.7251 361.956C76.8626 361.387 77.8376 360.412 78.2438 359.275C79.1376 357.081 78.2438 353.587 75.4001 349.769C72.5563 346.031 67.7626 341.725 60.7751 337.419C58.0938 335.713 56.0626 333.925 54.5188 331.975C52.9751 330.106 51.9188 328.156 51.2688 326.125C49.9688 321.737 50.1313 317.269 51.1876 312.719C52.4063 307.356 54.8438 302.156 57.2001 297.687C58.8251 294.844 60.3688 292.325 61.6688 290.294C62.4813 289.725 61.9126 291.269 58.5001 297.687L58.2563 298.175C55.0063 304.269 48.9126 318.487 57.2813 329.537C57.6063 321.494 59.3938 313.531 62.5626 306.137C63.6188 303.7 65.0001 300.856 66.4626 297.687C71.2563 287.531 77.1063 274.369 77.6751 263.319C78.0813 263.644 79.4626 264.456 80.0313 264.944C81.8188 266.081 83.2001 267.706 84.9063 268.763C86.6126 270.388 88.8063 271.444 92.1376 271.444C92.4626 271.525 92.7063 271.525 93.0313 271.525C96.3626 271.525 99.0438 270.469 101.238 269.331C103.594 268.275 105.463 266.65 107.25 266.081H107.331C111.15 265.025 114.156 262.831 115.944 260.394C118.869 271.931 125.775 288.669 130.163 296.794C134.476 304.44 137.548 312.722 139.263 321.331C140.481 321.25 141.944 321.494 143.488 321.819C144.138 320.112 144.544 318.406 144.788 316.7C146.331 305.406 139.181 294.356 135.119 290.212C134.875 290.05 134.631 289.806 134.469 289.644C132.681 288.019 132.6 286.881 133.494 286.881C134.063 287.369 134.55 287.856 135.119 288.425C139.669 293.138 144.95 300.694 146.981 309.306C147.631 311.662 147.956 314.181 147.956 316.7C147.956 318.731 147.713 320.844 147.225 322.875C147.713 323.119 148.281 323.362 148.85 323.444C157.381 327.75 160.469 331 159.006 335.875V335.55H157.381C158.6 331.731 155.919 328.806 148.606 325.638C141.131 322.388 135.119 322.875 134.063 329.375C133.981 329.7 133.981 329.944 133.9 330.512C133.331 330.675 132.763 330.919 132.194 331C128.7 333.194 126.75 336.444 125.694 340.669C124.638 344.975 124.313 350.012 123.988 355.862C123.825 358.544 122.606 362.687 121.388 366.831C116.431 370.325 110.825 373.006 104.813 374.306V374.306ZM172.25 370.162C167.131 373.412 157.95 375.931 152.1 382.919C146.981 388.931 140.806 392.181 135.363 392.587C129.919 392.994 125.206 390.963 122.444 385.275H122.363C120.656 382.025 121.388 376.906 122.85 371.544C124.313 366.1 126.344 360.575 126.669 356.106C126.913 350.338 127.238 345.3 128.213 341.4C129.269 337.581 130.813 334.9 133.494 333.356L133.9 333.194C134.144 338.069 136.663 343.269 141.131 344.406C145.925 345.462 152.913 341.644 155.838 338.15L157.544 338.069C160.144 337.988 162.338 338.15 164.531 340.262C166.238 341.887 167.05 344.569 167.781 347.413C168.513 350.663 169.081 353.75 171.113 356.025C175.175 360.331 176.475 363.419 176.394 365.287C176.231 367.481 174.85 368.537 172.25 370.162V370.162ZM135.119 290.212V297.687H130.65C134.707 305.085 137.612 313.058 139.263 321.331C140.481 321.25 141.944 321.494 143.488 321.819C144.138 320.112 144.544 318.406 144.788 316.7C146.331 305.406 139.181 294.356 135.119 290.212V290.212Z" fill="black"/>
<path d="M115.537 252.187V253.325C114.887 252.187 113.669 251.131 111.556 250.075C107.169 248.45 105.3 247.881 102.862 246.256C98.9624 243.494 95.6311 243.006 92.9499 243.006C91.4874 243.006 90.1874 243.25 89.0499 243.494C85.7999 244.631 83.6061 246.744 82.2249 248.45H82.1436C81.8999 248.694 81.5749 248.937 80.7624 249.506C79.8686 249.994 78.5686 251.131 76.7811 252.269C75.1561 253.325 74.5874 254.95 75.1561 257.144C75.7249 258.687 77.5124 260.881 80.8436 262.912C82.8749 263.969 84.2561 265.594 85.8811 266.731C86.6936 267.3 87.5874 267.787 88.5624 268.275C89.6999 268.762 90.9186 268.925 92.2186 268.844C95.7124 269.087 98.2311 267.787 100.506 266.65C102.781 265.594 104.65 263.969 106.925 262.912C111.394 261.287 114.644 258.606 115.619 256.006C116.106 254.787 116.106 253.406 115.537 252.187V252.187ZM94.9811 246.825C94.8999 246.662 95.0624 246.5 95.1436 246.419C95.8472 246.134 96.6338 246.134 97.3374 246.419C97.8249 246.419 98.6374 246.987 98.5561 247.556C98.4749 247.962 97.8249 248.044 97.4186 248.044C97.0124 248.044 96.6874 247.719 96.2811 247.556C95.8749 247.394 95.0624 247.475 94.9811 246.987V246.825V246.825ZM87.9936 246.419C88.6436 246.175 89.5374 246.094 90.1061 246.419C90.2686 246.5 90.4311 246.662 90.3499 246.825V246.987H90.4311C90.2686 247.475 89.4561 247.394 89.0499 247.556C88.6436 247.719 88.3186 248.125 87.9124 248.125C87.5061 248.125 86.8561 247.962 86.7749 247.556C86.6936 246.987 87.5061 246.419 87.9936 246.419V246.419ZM109.525 256.087C107.981 257.144 105.706 258.769 103.837 259.906C100.262 261.531 96.0374 264.212 91.5686 264.212C87.1811 264.212 83.6061 262.019 81.0874 260.394C79.7874 259.337 78.8124 258.281 77.9999 257.712C76.6999 256.656 76.8624 255.031 77.4311 255.031C78.3249 255.112 78.4874 256.087 79.0561 256.656C79.8686 257.144 80.8436 258.281 81.9811 259.337C84.4186 260.962 87.5874 263.156 91.5686 263.156C95.5499 263.156 100.262 260.962 103.106 259.337C104.65 258.281 106.762 256.656 108.387 255.519C109.687 254.462 109.606 253.406 110.744 253.406C111.8 253.487 110.987 254.462 109.525 256.087V256.087ZM176.394 365.287C176.231 367.481 174.85 368.537 172.25 370.162C167.131 373.412 157.95 375.931 152.1 382.919C146.981 388.931 140.806 392.181 135.362 392.587C129.919 392.994 125.206 390.962 122.444 385.275H122.362C120.656 382.025 121.387 376.906 122.85 371.544C124.312 366.1 126.344 360.575 126.669 356.106C126.912 350.337 127.237 345.3 128.212 341.4C129.269 337.581 130.812 334.9 133.494 333.356L133.9 333.194C134.144 338.069 136.662 343.269 141.131 344.406C145.925 345.462 152.912 341.644 155.837 338.15L157.544 338.069C160.144 337.987 162.337 338.15 164.531 340.262C166.237 341.887 167.05 344.569 167.781 347.412C168.512 350.662 169.081 353.75 171.112 356.025C175.175 360.331 176.475 363.419 176.394 365.287V365.287ZM78.0811 379.425V379.506C77.5936 385.519 74.0999 388.769 68.8186 389.987C63.4561 391.044 56.3061 389.987 49.0749 386.25C41.1936 381.862 31.6874 382.431 25.6749 381.294C22.5874 380.806 20.6374 379.669 19.6624 378.044C18.7686 376.419 18.7686 373.169 20.7186 368.05C21.6936 365.287 20.9624 361.875 20.4749 358.95C20.0686 355.7 19.8249 353.181 20.8811 351.312C22.1811 348.55 24.1311 348.062 26.4874 346.925C28.9249 345.869 31.7686 345.3 34.0436 343.187V343.106C36.1561 340.912 37.6999 338.231 39.5686 336.281C41.1124 334.656 42.6561 333.6 45.0124 333.6H45.0936C45.4999 333.6 45.9061 333.6 46.3936 333.681C49.4811 334.169 52.1624 336.444 54.7624 339.775L62.2374 353.344H62.3186C64.2686 357.65 68.4936 362.037 72.0686 366.669C75.6436 371.544 78.4061 375.85 78.0811 379.425V379.425Z" fill="#F9C105"/>
<path d="M90.4312 246.988C90.2687 247.475 89.4562 247.394 89.05 247.556C88.6437 247.719 88.3187 248.125 87.9125 248.125C87.5062 248.125 86.8562 247.963 86.775 247.556C86.6937 246.988 87.5062 246.419 87.9937 246.419C88.6437 246.175 89.5375 246.094 90.1062 246.419C90.2687 246.5 90.4312 246.663 90.35 246.825V246.988H90.4312V246.988ZM109.525 256.088C107.981 257.144 105.706 258.769 103.837 259.906C100.262 261.531 96.0375 264.213 91.5687 264.213C87.1812 264.213 83.6062 262.019 81.0875 260.394C79.7875 259.338 78.8125 258.281 78 257.713C76.7 256.656 76.8625 255.031 77.4312 255.031C78.325 255.113 78.4875 256.088 79.0562 256.656C79.8687 257.144 80.8437 258.281 81.9812 259.338C84.4187 260.963 87.5875 263.156 91.5687 263.156C95.55 263.156 100.262 260.963 103.106 259.338C104.65 258.281 106.762 256.656 108.387 255.519C109.687 254.463 109.606 253.406 110.744 253.406C111.8 253.488 110.987 254.463 109.525 256.088V256.088Z" fill="black"/>
<circle cx="132.5" cy="111.5" r="19.5" fill="white"/>
<circle cx="172" cy="76" r="10" fill="white"/>
<circle cx="212.5" cy="60.5" r="7.5" fill="white"/>
<circle cx="246.5" cy="56.5" r="5.5" fill="white"/>
<circle cx="288.5" cy="76.5" r="3.5" fill="white"/>
<circle cx="270.5" cy="62.5" r="4.5" fill="white"/>
<path d="M741.435 592.713C741.435 593.599 742.138 594.276 742.998 594.276C743.884 594.276 744.587 593.599 744.587 592.713V576.563C744.587 575.703 743.884 575 742.998 575C742.112 575 741.435 575.703 741.435 576.563V592.713Z" fill="white"/>
<path d="M748.654 576.849C748.654 577.787 749.436 578.412 750.452 578.412C751.467 578.412 752.249 577.787 752.249 576.849V576.693C752.249 575.755 751.467 575.156 750.452 575.156C749.436 575.156 748.654 575.755 748.654 576.693V576.849ZM748.889 592.713C748.889 593.599 749.592 594.276 750.452 594.276C751.337 594.276 752.041 593.599 752.041 592.713V581.825C752.041 580.939 751.337 580.236 750.452 580.236C749.566 580.236 748.889 580.939 748.889 581.825V592.713Z" fill="white"/>
<path d="M756.16 592.713C756.16 593.573 756.863 594.276 757.723 594.276C758.608 594.276 759.312 593.573 759.312 592.713V592.01C760.276 593.287 761.708 594.433 764.001 594.433C767.257 594.433 770.383 591.854 770.383 587.295V587.243C770.383 582.658 767.231 580.106 764.001 580.106C761.76 580.106 760.328 581.252 759.312 582.685V576.563C759.312 575.677 758.608 575 757.723 575C756.837 575 756.16 575.677 756.16 576.563V592.713ZM763.245 591.698C761.109 591.698 759.234 589.926 759.234 587.295V587.243C759.234 584.612 761.109 582.841 763.245 582.841C765.381 582.841 767.179 584.586 767.179 587.243V587.295C767.179 590.004 765.407 591.698 763.245 591.698Z" fill="white"/>
<path d="M773.819 592.713C773.819 593.599 774.522 594.276 775.382 594.276C776.267 594.276 776.971 593.599 776.971 592.713V576.563C776.971 575.703 776.267 575 775.382 575C774.496 575 773.819 575.703 773.819 576.563V592.713Z" fill="white"/>
<path d="M787.628 594.459C791.874 594.459 795 591.203 795 587.295V587.243C795 583.31 791.9 580.106 787.68 580.106C783.46 580.106 780.334 583.362 780.334 587.295V587.347C780.334 591.255 783.434 594.459 787.628 594.459ZM787.68 591.698C785.232 591.698 783.486 589.692 783.486 587.295V587.243C783.486 584.847 785.101 582.867 787.628 582.867C790.103 582.867 791.848 584.873 791.848 587.295V587.347C791.848 589.718 790.233 591.698 787.68 591.698Z" fill="white"/>
<path d="M736.96 590.09C735.74 590.65 734.453 591.046 733.208 591.294C728.074 592.314 725.36 589.099 729.634 586.781C730.099 586.529 730.632 586.291 731.228 586.075L732.011 585.826C732.241 585.763 732.463 585.661 732.534 585.515C732.905 584.723 729.731 584.467 727.622 585.589C728.458 585.431 729.186 585.408 729.668 585.609C724.878 586.845 723.788 590.757 726.335 592.642C727.649 593.615 729.127 593.873 731.832 593.682C733.637 593.555 735.48 592.837 736.96 591.969V590.09Z" fill="white"/>
<path d="M734.542 592.784C734.542 593.607 735.171 594.165 736.03 594.165C736.89 594.165 737.478 593.644 737.478 592.784V586.011C737.478 584.214 737.009 582.755 735.993 581.765C735.029 580.776 733.492 580.228 731.434 580.228C729.637 580.228 728.308 580.541 727.006 581.036C726.537 581.218 726.146 581.713 726.146 582.286C726.146 583.016 726.745 583.589 727.475 583.589C727.631 583.589 727.787 583.563 727.97 583.511C728.829 583.172 729.819 582.964 731.018 582.964C733.232 582.964 734.43 584.006 734.43 585.959V585.968L734.542 592.784Z" fill="white"/>
<path d="M733.611 578.379C733.611 578.591 733.273 578.721 732.805 578.721C732.077 578.721 731.583 578.64 730.984 578.282L729.216 577.24C728.956 577.093 728.774 576.93 728.774 576.751C728.774 576.442 729.814 576.116 730.646 576.116C731.192 576.116 731.609 576.295 731.895 576.589L733.377 578.021C733.481 578.119 733.611 578.265 733.611 578.379Z" fill="white"/>
</g>
<defs>
<linearGradient id="paint0_linear_5188_12736" x1="800" y1="2.84559e-05" x2="-2.41943" y2="596.747" gradientUnits="userSpaceOnUse">
<stop stop-color="#96CD6A"/>
<stop offset="1" stop-color="#3B7336"/>
</linearGradient>
<clipPath id="clip0_5188_12736">
<rect width="800" height="600" fill="white"/>
</clipPath>
</defs>
</svg>
