<svg width="800" height="600" viewBox="0 0 800 600" fill="none" xmlns="http://www.w3.org/2000/svg">
<g clip-path="url(#clip0_5188_12810)">
<rect width="800" height="600" fill="url(#paint0_linear_5188_12810)"/>
<circle cx="80" cy="299" r="173" fill="white"/>
<path d="M339.109 223.422H351.336L335.125 281H323.641L316.688 247.328L314.656 236.195L312.625 247.328L305.672 281H294.5L278.172 223.422H290.945L298.562 256.391L300.203 265.57L301.883 256.586L308.367 223.422H321.062L327.898 256.391L329.656 265.57L331.414 256.742L339.109 223.422ZM368.484 238.422V281H357.195V238.422H368.484ZM368.484 223.07V233.344H357.195V223.07H368.484ZM399.344 246.664C395.568 246.664 392.977 248.266 391.57 251.469C390.841 253.161 390.477 255.323 390.477 257.953V281H379.383V238.5H390.125V244.711C391.557 242.523 392.911 240.948 394.188 239.984C396.479 238.266 399.383 237.406 402.898 237.406C407.299 237.406 410.893 238.565 413.68 240.883C416.492 243.174 417.898 246.99 417.898 252.328V281H406.492V255.102C406.492 252.862 406.193 251.143 405.594 249.945C404.5 247.758 402.417 246.664 399.344 246.664ZM466.961 223.5V281H456.141V275.102C454.552 277.628 452.742 279.464 450.711 280.609C448.68 281.755 446.154 282.328 443.133 282.328C438.159 282.328 433.966 280.323 430.555 276.312C427.169 272.276 425.477 267.107 425.477 260.805C425.477 253.539 427.143 247.823 430.477 243.656C433.836 239.49 438.315 237.406 443.914 237.406C446.492 237.406 448.784 237.979 450.789 239.125C452.794 240.245 454.422 241.807 455.672 243.812V223.5H466.961ZM436.961 259.984C436.961 263.917 437.742 267.055 439.305 269.398C440.841 271.768 443.185 272.953 446.336 272.953C449.487 272.953 451.883 271.781 453.523 269.438C455.164 267.094 455.984 264.06 455.984 260.336C455.984 255.128 454.669 251.404 452.039 249.164C450.424 247.81 448.549 247.133 446.414 247.133C443.159 247.133 440.763 248.37 439.227 250.844C437.716 253.292 436.961 256.339 436.961 259.984ZM512.625 243.812C516.219 248.318 518.016 253.643 518.016 259.789C518.016 266.039 516.219 271.391 512.625 275.844C509.031 280.271 503.576 282.484 496.258 282.484C488.94 282.484 483.484 280.271 479.891 275.844C476.297 271.391 474.5 266.039 474.5 259.789C474.5 253.643 476.297 248.318 479.891 243.812C483.484 239.307 488.94 237.055 496.258 237.055C503.576 237.055 509.031 239.307 512.625 243.812ZM496.219 246.469C492.964 246.469 490.451 247.628 488.68 249.945C486.935 252.237 486.062 255.518 486.062 259.789C486.062 264.06 486.935 267.354 488.68 269.672C490.451 271.99 492.964 273.148 496.219 273.148C499.474 273.148 501.974 271.99 503.719 269.672C505.464 267.354 506.336 264.06 506.336 259.789C506.336 255.518 505.464 252.237 503.719 249.945C501.974 247.628 499.474 246.469 496.219 246.469ZM558.328 281L551.648 249.984L544.891 281H533.328L521.375 238.422H533.328L539.969 268.969L546.102 238.422H557.391L563.875 269.086L570.516 238.422H582.117L569.773 281H558.328ZM617.625 240.375C620.958 242.51 622.872 246.182 623.367 251.391H612.234C612.078 249.958 611.674 248.826 611.023 247.992C609.799 246.482 607.716 245.727 604.773 245.727C602.352 245.727 600.62 246.104 599.578 246.859C598.562 247.615 598.055 248.5 598.055 249.516C598.055 250.792 598.602 251.716 599.695 252.289C600.789 252.888 604.656 253.917 611.297 255.375C615.724 256.417 619.044 257.992 621.258 260.102C623.445 262.237 624.539 264.906 624.539 268.109C624.539 272.328 622.964 275.779 619.812 278.461C616.688 281.117 611.844 282.445 605.281 282.445C598.589 282.445 593.641 281.039 590.438 278.227C587.26 275.388 585.672 271.781 585.672 267.406H596.961C597.195 269.385 597.703 270.792 598.484 271.625C599.865 273.109 602.417 273.852 606.141 273.852C608.328 273.852 610.06 273.526 611.336 272.875C612.638 272.224 613.289 271.247 613.289 269.945C613.289 268.695 612.768 267.745 611.727 267.094C610.685 266.443 606.818 265.323 600.125 263.734C595.307 262.536 591.909 261.039 589.93 259.242C587.951 257.471 586.961 254.919 586.961 251.586C586.961 247.654 588.497 244.281 591.57 241.469C594.669 238.63 599.018 237.211 604.617 237.211C609.93 237.211 614.266 238.266 617.625 240.375ZM681.453 282.602C673.224 282.602 666.935 280.362 662.586 275.883C656.753 270.388 653.836 262.471 653.836 252.133C653.836 241.586 656.753 233.669 662.586 228.383C666.935 223.904 673.224 221.664 681.453 221.664C689.682 221.664 695.971 223.904 700.32 228.383C706.128 233.669 709.031 241.586 709.031 252.133C709.031 262.471 706.128 270.388 700.32 275.883C695.971 280.362 689.682 282.602 681.453 282.602ZM692.82 267.133C695.607 263.617 697 258.617 697 252.133C697 245.674 695.594 240.688 692.781 237.172C689.995 233.63 686.219 231.859 681.453 231.859C676.688 231.859 672.885 233.617 670.047 237.133C667.208 240.648 665.789 245.648 665.789 252.133C665.789 258.617 667.208 263.617 670.047 267.133C672.885 270.648 676.688 272.406 681.453 272.406C686.219 272.406 690.008 270.648 692.82 267.133ZM739.148 272.68C741.987 272.68 744.292 272.367 746.062 271.742C749.422 270.544 751.102 268.318 751.102 265.062C751.102 263.161 750.268 261.69 748.602 260.648C746.935 259.633 744.318 258.734 740.75 257.953L734.656 256.586C728.667 255.232 724.526 253.76 722.234 252.172C718.354 249.516 716.414 245.362 716.414 239.711C716.414 234.555 718.289 230.271 722.039 226.859C725.789 223.448 731.297 221.742 738.562 221.742C744.63 221.742 749.799 223.357 754.07 226.586C758.367 229.789 760.62 234.451 760.828 240.57H749.266C749.057 237.107 747.547 234.646 744.734 233.188C742.859 232.224 740.529 231.742 737.742 231.742C734.643 231.742 732.169 232.367 730.32 233.617C728.471 234.867 727.547 236.612 727.547 238.852C727.547 240.909 728.458 242.445 730.281 243.461C731.453 244.138 733.953 244.932 737.781 245.844L747.703 248.227C752.052 249.268 755.333 250.661 757.547 252.406C760.984 255.115 762.703 259.034 762.703 264.164C762.703 269.424 760.685 273.799 756.648 277.289C752.638 280.753 746.961 282.484 739.617 282.484C732.117 282.484 726.219 280.779 721.922 277.367C717.625 273.93 715.477 269.216 715.477 263.227H726.961C727.326 265.857 728.042 267.823 729.109 269.125C731.062 271.495 734.409 272.68 739.148 272.68ZM282.156 315.422H294.109V373H282.156V315.422ZM324.5 338.664C320.724 338.664 318.133 340.266 316.727 343.469C315.997 345.161 315.633 347.323 315.633 349.953V373H304.539V330.5H315.281V336.711C316.714 334.523 318.068 332.948 319.344 331.984C321.635 330.266 324.539 329.406 328.055 329.406C332.456 329.406 336.049 330.565 338.836 332.883C341.648 335.174 343.055 338.99 343.055 344.328V373H331.648V347.102C331.648 344.862 331.349 343.143 330.75 341.945C329.656 339.758 327.573 338.664 324.5 338.664ZM372.859 365.07V373.391L367.586 373.586C362.326 373.768 358.732 372.857 356.805 370.852C355.555 369.576 354.93 367.609 354.93 364.953V338.742H348.992V330.812H354.93V318.938H365.945V330.812H372.859V338.742H365.945V361.242C365.945 362.987 366.167 364.081 366.609 364.523C367.052 364.94 368.406 365.148 370.672 365.148C371.01 365.148 371.362 365.148 371.727 365.148C372.117 365.122 372.495 365.096 372.859 365.07ZM401.414 340.695C396.935 340.695 393.927 342.154 392.391 345.07C391.531 346.711 391.102 349.237 391.102 352.648V373H379.891V330.422H390.516V337.844C392.234 335.005 393.732 333.065 395.008 332.023C397.091 330.279 399.799 329.406 403.133 329.406C403.341 329.406 403.51 329.419 403.641 329.445C403.797 329.445 404.122 329.458 404.617 329.484V340.891C403.914 340.812 403.289 340.76 402.742 340.734C402.195 340.708 401.753 340.695 401.414 340.695ZM446.688 335.812C450.281 340.318 452.078 345.643 452.078 351.789C452.078 358.039 450.281 363.391 446.688 367.844C443.094 372.271 437.638 374.484 430.32 374.484C423.003 374.484 417.547 372.271 413.953 367.844C410.359 363.391 408.562 358.039 408.562 351.789C408.562 345.643 410.359 340.318 413.953 335.812C417.547 331.307 423.003 329.055 430.32 329.055C437.638 329.055 443.094 331.307 446.688 335.812ZM430.281 338.469C427.026 338.469 424.513 339.628 422.742 341.945C420.997 344.237 420.125 347.518 420.125 351.789C420.125 356.06 420.997 359.354 422.742 361.672C424.513 363.99 427.026 365.148 430.281 365.148C433.536 365.148 436.036 363.99 437.781 361.672C439.526 359.354 440.398 356.06 440.398 351.789C440.398 347.518 439.526 344.237 437.781 341.945C436.036 339.628 433.536 338.469 430.281 338.469ZM498.836 315.5V373H488.016V367.102C486.427 369.628 484.617 371.464 482.586 372.609C480.555 373.755 478.029 374.328 475.008 374.328C470.034 374.328 465.841 372.323 462.43 368.312C459.044 364.276 457.352 359.107 457.352 352.805C457.352 345.539 459.018 339.823 462.352 335.656C465.711 331.49 470.19 329.406 475.789 329.406C478.367 329.406 480.659 329.979 482.664 331.125C484.669 332.245 486.297 333.807 487.547 335.812V315.5H498.836ZM468.836 351.984C468.836 355.917 469.617 359.055 471.18 361.398C472.716 363.768 475.06 364.953 478.211 364.953C481.362 364.953 483.758 363.781 485.398 361.438C487.039 359.094 487.859 356.06 487.859 352.336C487.859 347.128 486.544 343.404 483.914 341.164C482.299 339.81 480.424 339.133 478.289 339.133C475.034 339.133 472.638 340.37 471.102 342.844C469.591 345.292 468.836 348.339 468.836 351.984ZM536.297 366.984C536.193 367.115 535.932 367.505 535.516 368.156C535.099 368.807 534.604 369.38 534.031 369.875C532.286 371.438 530.594 372.505 528.953 373.078C527.339 373.651 525.438 373.938 523.25 373.938C516.948 373.938 512.703 371.672 510.516 367.141C509.292 364.641 508.68 360.956 508.68 356.086V330.422H520.086V356.086C520.086 358.508 520.372 360.331 520.945 361.555C521.961 363.716 523.953 364.797 526.922 364.797C530.724 364.797 533.328 363.26 534.734 360.188C535.464 358.521 535.828 356.32 535.828 353.586V330.422H547.117V373H536.297V366.984ZM594.734 345.695H583.328C583.12 344.107 582.586 342.674 581.727 341.398C580.477 339.68 578.536 338.82 575.906 338.82C572.156 338.82 569.591 340.682 568.211 344.406C567.482 346.385 567.117 349.016 567.117 352.297C567.117 355.422 567.482 357.935 568.211 359.836C569.539 363.378 572.039 365.148 575.711 365.148C578.315 365.148 580.164 364.445 581.258 363.039C582.352 361.633 583.016 359.81 583.25 357.57H594.617C594.357 360.956 593.133 364.159 590.945 367.18C587.456 372.049 582.286 374.484 575.438 374.484C568.589 374.484 563.549 372.453 560.32 368.391C557.091 364.328 555.477 359.055 555.477 352.57C555.477 345.253 557.26 339.562 560.828 335.5C564.396 331.438 569.318 329.406 575.594 329.406C580.932 329.406 585.294 330.604 588.68 333C592.091 335.396 594.109 339.628 594.734 345.695ZM621.922 365.07V373.391L616.648 373.586C611.388 373.768 607.794 372.857 605.867 370.852C604.617 369.576 603.992 367.609 603.992 364.953V338.742H598.055V330.812H603.992V318.938H615.008V330.812H621.922V338.742H615.008V361.242C615.008 362.987 615.229 364.081 615.672 364.523C616.115 364.94 617.469 365.148 619.734 365.148C620.073 365.148 620.424 365.148 620.789 365.148C621.18 365.122 621.557 365.096 621.922 365.07ZM640.516 330.422V373H629.227V330.422H640.516ZM640.516 315.07V325.344H629.227V315.07H640.516ZM686.844 335.812C690.438 340.318 692.234 345.643 692.234 351.789C692.234 358.039 690.438 363.391 686.844 367.844C683.25 372.271 677.794 374.484 670.477 374.484C663.159 374.484 657.703 372.271 654.109 367.844C650.516 363.391 648.719 358.039 648.719 351.789C648.719 345.643 650.516 340.318 654.109 335.812C657.703 331.307 663.159 329.055 670.477 329.055C677.794 329.055 683.25 331.307 686.844 335.812ZM670.438 338.469C667.182 338.469 664.669 339.628 662.898 341.945C661.154 344.237 660.281 347.518 660.281 351.789C660.281 356.06 661.154 359.354 662.898 361.672C664.669 363.99 667.182 365.148 670.438 365.148C673.693 365.148 676.193 363.99 677.938 361.672C679.682 359.354 680.555 356.06 680.555 351.789C680.555 347.518 679.682 344.237 677.938 341.945C676.193 339.628 673.693 338.469 670.438 338.469ZM720.281 338.664C716.505 338.664 713.914 340.266 712.508 343.469C711.779 345.161 711.414 347.323 711.414 349.953V373H700.32V330.5H711.062V336.711C712.495 334.523 713.849 332.948 715.125 331.984C717.417 330.266 720.32 329.406 723.836 329.406C728.237 329.406 731.831 330.565 734.617 332.883C737.43 335.174 738.836 338.99 738.836 344.328V373H727.43V347.102C727.43 344.862 727.13 343.143 726.531 341.945C725.438 339.758 723.354 338.664 720.281 338.664Z" fill="#4F4F4F"/>
<circle cx="132.5" cy="111.5" r="19.5" fill="white"/>
<circle cx="172" cy="76" r="10" fill="white"/>
<circle cx="212.5" cy="60.5" r="7.5" fill="white"/>
<circle cx="246.5" cy="56.5" r="5.5" fill="white"/>
<circle cx="288.5" cy="76.5" r="3.5" fill="white"/>
<circle cx="270.5" cy="62.5" r="4.5" fill="white"/>
<path d="M41.9175 302.048L41.9213 341.906L89.8087 348.466L89.7702 302.356L41.9175 302.048Z" fill="#0DA2D6"/>
<path d="M41.9214 341.906L89.8087 348.466L89.7703 302.356M158.156 240.883L94.7345 250.125V296.967L158.156 296.463V240.883Z" fill="#20B5EC"/>
<path d="M158.156 240.883L94.7344 250.125V295.656" fill="#0DA2D6"/>
<path d="M41.8828 257.482L41.927 297.319L89.8163 297.046L89.7932 250.978L41.8828 257.482Z" fill="#20B5EC"/>
<path d="M41.9272 297.319L89.8165 297.046L89.7935 250.978" fill="#0DA2D6"/>
<path d="M95.5801 349.179L159.1 358.117L159.117 302.788L95.4917 302.685L95.5801 349.179Z" fill="#20B5EC"/>
<path d="M95.5801 349.179L159.1 358.117L159.117 302.788" fill="#0DA2D6"/>
<path d="M741.435 592.713C741.435 593.599 742.138 594.276 742.998 594.276C743.884 594.276 744.587 593.599 744.587 592.713V576.563C744.587 575.703 743.884 575 742.998 575C742.112 575 741.435 575.703 741.435 576.563V592.713Z" fill="#030060"/>
<path d="M748.654 576.849C748.654 577.787 749.436 578.412 750.452 578.412C751.467 578.412 752.249 577.787 752.249 576.849V576.693C752.249 575.755 751.467 575.156 750.452 575.156C749.436 575.156 748.654 575.755 748.654 576.693V576.849ZM748.889 592.713C748.889 593.599 749.592 594.276 750.452 594.276C751.337 594.276 752.041 593.599 752.041 592.713V581.825C752.041 580.939 751.337 580.236 750.452 580.236C749.566 580.236 748.889 580.939 748.889 581.825V592.713Z" fill="#030060"/>
<path d="M756.16 592.713C756.16 593.573 756.863 594.276 757.723 594.276C758.608 594.276 759.312 593.573 759.312 592.713V592.01C760.276 593.287 761.708 594.433 764.001 594.433C767.257 594.433 770.383 591.854 770.383 587.295V587.243C770.383 582.658 767.231 580.106 764.001 580.106C761.76 580.106 760.328 581.252 759.312 582.685V576.563C759.312 575.677 758.608 575 757.723 575C756.837 575 756.16 575.677 756.16 576.563V592.713ZM763.245 591.698C761.109 591.698 759.234 589.926 759.234 587.295V587.243C759.234 584.612 761.109 582.841 763.245 582.841C765.381 582.841 767.179 584.586 767.179 587.243V587.295C767.179 590.004 765.407 591.698 763.245 591.698Z" fill="#030060"/>
<path d="M773.819 592.713C773.819 593.599 774.522 594.276 775.382 594.276C776.267 594.276 776.971 593.599 776.971 592.713V576.563C776.971 575.703 776.267 575 775.382 575C774.496 575 773.819 575.703 773.819 576.563V592.713Z" fill="#030060"/>
<path d="M787.628 594.459C791.874 594.459 795 591.203 795 587.295V587.243C795 583.31 791.9 580.106 787.68 580.106C783.46 580.106 780.334 583.362 780.334 587.295V587.347C780.334 591.255 783.434 594.459 787.628 594.459ZM787.68 591.698C785.232 591.698 783.486 589.692 783.486 587.295V587.243C783.486 584.847 785.101 582.867 787.628 582.867C790.103 582.867 791.848 584.873 791.848 587.295V587.347C791.848 589.718 790.233 591.698 787.68 591.698Z" fill="#030060"/>
<path d="M736.96 590.09C735.74 590.65 734.453 591.046 733.208 591.294C728.074 592.314 725.36 589.099 729.634 586.781C730.099 586.529 730.632 586.291 731.228 586.075L732.011 585.826C732.241 585.763 732.463 585.661 732.534 585.515C732.905 584.723 729.731 584.467 727.622 585.589C728.458 585.431 729.186 585.408 729.668 585.609C724.878 586.845 723.788 590.757 726.335 592.642C727.649 593.615 729.127 593.873 731.832 593.682C733.637 593.555 735.48 592.837 736.96 591.969V590.09Z" fill="url(#paint1_linear_5188_12810)"/>
<path d="M734.542 592.784C734.542 593.607 735.171 594.165 736.03 594.165C736.89 594.165 737.478 593.644 737.478 592.784V586.011C737.478 584.214 737.009 582.755 735.993 581.765C735.029 580.776 733.492 580.228 731.434 580.228C729.637 580.228 728.308 580.541 727.006 581.036C726.537 581.218 726.146 581.713 726.146 582.286C726.146 583.016 726.745 583.589 727.475 583.589C727.631 583.589 727.787 583.563 727.97 583.511C728.829 583.172 729.819 582.964 731.018 582.964C733.232 582.964 734.43 584.006 734.43 585.959V585.968L734.542 592.784Z" fill="url(#paint2_linear_5188_12810)"/>
<path d="M733.611 578.379C733.611 578.591 733.273 578.721 732.805 578.721C732.077 578.721 731.583 578.64 730.984 578.282L729.216 577.24C728.956 577.093 728.774 576.93 728.774 576.751C728.774 576.442 729.814 576.116 730.646 576.116C731.192 576.116 731.609 576.295 731.895 576.589L733.377 578.021C733.481 578.119 733.611 578.265 733.611 578.379Z" fill="url(#paint3_linear_5188_12810)"/>
</g>
<defs>
<linearGradient id="paint0_linear_5188_12810" x1="800" y1="2.20924e-05" x2="1.22569" y2="601.627" gradientUnits="userSpaceOnUse">
<stop stop-color="#ECFAFF"/>
<stop offset="1" stop-color="#75BBD1"/>
</linearGradient>
<linearGradient id="paint1_linear_5188_12810" x1="725" y1="576.116" x2="725" y2="594.165" gradientUnits="userSpaceOnUse">
<stop stop-color="#008EE3"/>
<stop offset="1" stop-color="#0055C2"/>
</linearGradient>
<linearGradient id="paint2_linear_5188_12810" x1="725" y1="576.116" x2="725" y2="594.165" gradientUnits="userSpaceOnUse">
<stop stop-color="#008EE3"/>
<stop offset="1" stop-color="#0055C2"/>
</linearGradient>
<linearGradient id="paint3_linear_5188_12810" x1="725" y1="576.116" x2="725" y2="594.165" gradientUnits="userSpaceOnUse">
<stop stop-color="#008EE3"/>
<stop offset="1" stop-color="#0055C2"/>
</linearGradient>
<clipPath id="clip0_5188_12810">
<rect width="800" height="600" fill="white"/>
</clipPath>
</defs>
</svg>
