<svg width="800" height="600" viewBox="0 0 800 600" fill="none" xmlns="http://www.w3.org/2000/svg">
<g clip-path="url(#clip0_5188_12837)">
<rect width="800" height="600" fill="url(#paint0_linear_5188_12837)"/>
<circle cx="80" cy="299" r="173" fill="white"/>
<path d="M272.836 177.422H285.688L298.188 221.133L310.805 177.422H323.305L303.656 235H292.289L272.836 177.422ZM339.594 192.422V235H328.305V192.422H339.594ZM339.594 177.07V187.344H328.305V177.07H339.594ZM379.75 194.375C383.083 196.51 384.997 200.182 385.492 205.391H374.359C374.203 203.958 373.799 202.826 373.148 201.992C371.924 200.482 369.841 199.727 366.898 199.727C364.477 199.727 362.745 200.104 361.703 200.859C360.688 201.615 360.18 202.5 360.18 203.516C360.18 204.792 360.727 205.716 361.82 206.289C362.914 206.888 366.781 207.917 373.422 209.375C377.849 210.417 381.169 211.992 383.383 214.102C385.57 216.237 386.664 218.906 386.664 222.109C386.664 226.328 385.089 229.779 381.938 232.461C378.812 235.117 373.969 236.445 367.406 236.445C360.714 236.445 355.766 235.039 352.562 232.227C349.385 229.388 347.797 225.781 347.797 221.406H359.086C359.32 223.385 359.828 224.792 360.609 225.625C361.99 227.109 364.542 227.852 368.266 227.852C370.453 227.852 372.185 227.526 373.461 226.875C374.763 226.224 375.414 225.247 375.414 223.945C375.414 222.695 374.893 221.745 373.852 221.094C372.81 220.443 368.943 219.323 362.25 217.734C357.432 216.536 354.034 215.039 352.055 213.242C350.076 211.471 349.086 208.919 349.086 205.586C349.086 201.654 350.622 198.281 353.695 195.469C356.794 192.63 361.143 191.211 366.742 191.211C372.055 191.211 376.391 192.266 379.75 194.375ZM422.25 228.984C422.146 229.115 421.885 229.505 421.469 230.156C421.052 230.807 420.557 231.38 419.984 231.875C418.24 233.438 416.547 234.505 414.906 235.078C413.292 235.651 411.391 235.938 409.203 235.938C402.901 235.938 398.656 233.672 396.469 229.141C395.245 226.641 394.633 222.956 394.633 218.086V192.422H406.039V218.086C406.039 220.508 406.326 222.331 406.898 223.555C407.914 225.716 409.906 226.797 412.875 226.797C416.677 226.797 419.281 225.26 420.688 222.188C421.417 220.521 421.781 218.32 421.781 215.586V192.422H433.07V235H422.25V228.984ZM445.453 197.031C448.396 193.281 453.448 191.406 460.609 191.406C465.271 191.406 469.411 192.331 473.031 194.18C476.651 196.029 478.461 199.518 478.461 204.648V224.18C478.461 225.534 478.487 227.174 478.539 229.102C478.617 230.56 478.839 231.549 479.203 232.07C479.568 232.591 480.115 233.021 480.844 233.359V235H468.734C468.396 234.141 468.161 233.333 468.031 232.578C467.901 231.823 467.797 230.964 467.719 230C466.182 231.667 464.411 233.086 462.406 234.258C460.01 235.638 457.302 236.328 454.281 236.328C450.427 236.328 447.237 235.234 444.711 233.047C442.211 230.833 440.961 227.708 440.961 223.672C440.961 218.438 442.979 214.648 447.016 212.305C449.229 211.029 452.484 210.117 456.781 209.57L460.57 209.102C462.628 208.841 464.099 208.516 464.984 208.125C466.573 207.448 467.367 206.393 467.367 204.961C467.367 203.216 466.755 202.018 465.531 201.367C464.333 200.69 462.562 200.352 460.219 200.352C457.589 200.352 455.727 201.003 454.633 202.305C453.852 203.268 453.331 204.57 453.07 206.211H442.328C442.562 202.487 443.604 199.427 445.453 197.031ZM453.734 226.953C454.776 227.812 456.052 228.242 457.562 228.242C459.958 228.242 462.159 227.539 464.164 226.133C466.195 224.727 467.25 222.161 467.328 218.438V214.297C466.625 214.74 465.909 215.104 465.18 215.391C464.477 215.651 463.5 215.898 462.25 216.133L459.75 216.602C457.406 217.018 455.727 217.526 454.711 218.125C452.992 219.141 452.133 220.716 452.133 222.852C452.133 224.753 452.667 226.12 453.734 226.953ZM488.617 177.422H499.75V235H488.617V177.422ZM297.992 318.68C300.831 318.68 303.135 318.367 304.906 317.742C308.266 316.544 309.945 314.318 309.945 311.062C309.945 309.161 309.112 307.69 307.445 306.648C305.779 305.633 303.161 304.734 299.594 303.953L293.5 302.586C287.51 301.232 283.37 299.76 281.078 298.172C277.198 295.516 275.258 291.362 275.258 285.711C275.258 280.555 277.133 276.271 280.883 272.859C284.633 269.448 290.141 267.742 297.406 267.742C303.474 267.742 308.643 269.357 312.914 272.586C317.211 275.789 319.464 280.451 319.672 286.57H308.109C307.901 283.107 306.391 280.646 303.578 279.188C301.703 278.224 299.372 277.742 296.586 277.742C293.487 277.742 291.013 278.367 289.164 279.617C287.315 280.867 286.391 282.612 286.391 284.852C286.391 286.909 287.302 288.445 289.125 289.461C290.297 290.138 292.797 290.932 296.625 291.844L306.547 294.227C310.896 295.268 314.177 296.661 316.391 298.406C319.828 301.115 321.547 305.034 321.547 310.164C321.547 315.424 319.529 319.799 315.492 323.289C311.482 326.753 305.805 328.484 298.461 328.484C290.961 328.484 285.062 326.779 280.766 323.367C276.469 319.93 274.32 315.216 274.32 309.227H285.805C286.169 311.857 286.885 313.823 287.953 315.125C289.906 317.495 293.253 318.68 297.992 318.68ZM349.047 319.07V327.391L343.773 327.586C338.513 327.768 334.919 326.857 332.992 324.852C331.742 323.576 331.117 321.609 331.117 318.953V292.742H325.18V284.812H331.117V272.938H342.133V284.812H349.047V292.742H342.133V315.242C342.133 316.987 342.354 318.081 342.797 318.523C343.24 318.94 344.594 319.148 346.859 319.148C347.198 319.148 347.549 319.148 347.914 319.148C348.305 319.122 348.682 319.096 349.047 319.07ZM383.5 320.984C383.396 321.115 383.135 321.505 382.719 322.156C382.302 322.807 381.807 323.38 381.234 323.875C379.49 325.438 377.797 326.505 376.156 327.078C374.542 327.651 372.641 327.938 370.453 327.938C364.151 327.938 359.906 325.672 357.719 321.141C356.495 318.641 355.883 314.956 355.883 310.086V284.422H367.289V310.086C367.289 312.508 367.576 314.331 368.148 315.555C369.164 317.716 371.156 318.797 374.125 318.797C377.927 318.797 380.531 317.26 381.938 314.188C382.667 312.521 383.031 310.32 383.031 307.586V284.422H394.32V327H383.5V320.984ZM443.852 269.5V327H433.031V321.102C431.443 323.628 429.633 325.464 427.602 326.609C425.57 327.755 423.044 328.328 420.023 328.328C415.049 328.328 410.857 326.323 407.445 322.312C404.06 318.276 402.367 313.107 402.367 306.805C402.367 299.539 404.034 293.823 407.367 289.656C410.727 285.49 415.206 283.406 420.805 283.406C423.383 283.406 425.674 283.979 427.68 285.125C429.685 286.245 431.312 287.807 432.562 289.812V269.5H443.852ZM413.852 305.984C413.852 309.917 414.633 313.055 416.195 315.398C417.732 317.768 420.076 318.953 423.227 318.953C426.378 318.953 428.773 317.781 430.414 315.438C432.055 313.094 432.875 310.06 432.875 306.336C432.875 301.128 431.56 297.404 428.93 295.164C427.315 293.81 425.44 293.133 423.305 293.133C420.049 293.133 417.654 294.37 416.117 296.844C414.607 299.292 413.852 302.339 413.852 305.984ZM465.453 284.422V327H454.164V284.422H465.453ZM465.453 269.07V279.344H454.164V269.07H465.453ZM511.781 289.812C515.375 294.318 517.172 299.643 517.172 305.789C517.172 312.039 515.375 317.391 511.781 321.844C508.188 326.271 502.732 328.484 495.414 328.484C488.096 328.484 482.641 326.271 479.047 321.844C475.453 317.391 473.656 312.039 473.656 305.789C473.656 299.643 475.453 294.318 479.047 289.812C482.641 285.307 488.096 283.055 495.414 283.055C502.732 283.055 508.188 285.307 511.781 289.812ZM495.375 292.469C492.12 292.469 489.607 293.628 487.836 295.945C486.091 298.237 485.219 301.518 485.219 305.789C485.219 310.06 486.091 313.354 487.836 315.672C489.607 317.99 492.12 319.148 495.375 319.148C498.63 319.148 501.13 317.99 502.875 315.672C504.62 313.354 505.492 310.06 505.492 305.789C505.492 301.518 504.62 298.237 502.875 295.945C501.13 293.628 498.63 292.469 495.375 292.469ZM588.969 322.703C584.672 326.635 579.177 328.602 572.484 328.602C564.203 328.602 557.693 325.945 552.953 320.633C548.214 315.294 545.844 307.977 545.844 298.68C545.844 288.628 548.539 280.88 553.93 275.438C558.617 270.698 564.581 268.328 571.82 268.328C581.508 268.328 588.591 271.505 593.07 277.859C595.544 281.427 596.872 285.008 597.055 288.602H585.023C584.242 285.841 583.24 283.758 582.016 282.352C579.828 279.852 576.586 278.602 572.289 278.602C567.914 278.602 564.464 280.372 561.938 283.914C559.411 287.43 558.148 292.417 558.148 298.875C558.148 305.333 559.477 310.177 562.133 313.406C564.815 316.609 568.214 318.211 572.328 318.211C576.547 318.211 579.763 316.831 581.977 314.07C583.201 312.586 584.216 310.359 585.023 307.391H596.938C595.896 313.667 593.24 318.771 588.969 322.703ZM640.766 289.812C644.359 294.318 646.156 299.643 646.156 305.789C646.156 312.039 644.359 317.391 640.766 321.844C637.172 326.271 631.716 328.484 624.398 328.484C617.081 328.484 611.625 326.271 608.031 321.844C604.438 317.391 602.641 312.039 602.641 305.789C602.641 299.643 604.438 294.318 608.031 289.812C611.625 285.307 617.081 283.055 624.398 283.055C631.716 283.055 637.172 285.307 640.766 289.812ZM624.359 292.469C621.104 292.469 618.591 293.628 616.82 295.945C615.076 298.237 614.203 301.518 614.203 305.789C614.203 310.06 615.076 313.354 616.82 315.672C618.591 317.99 621.104 319.148 624.359 319.148C627.615 319.148 630.115 317.99 631.859 315.672C633.604 313.354 634.477 310.06 634.477 305.789C634.477 301.518 633.604 298.237 631.859 295.945C630.115 293.628 627.615 292.469 624.359 292.469ZM692.914 269.5V327H682.094V321.102C680.505 323.628 678.695 325.464 676.664 326.609C674.633 327.755 672.107 328.328 669.086 328.328C664.112 328.328 659.919 326.323 656.508 322.312C653.122 318.276 651.43 313.107 651.43 306.805C651.43 299.539 653.096 293.823 656.43 289.656C659.789 285.49 664.268 283.406 669.867 283.406C672.445 283.406 674.737 283.979 676.742 285.125C678.747 286.245 680.375 287.807 681.625 289.812V269.5H692.914ZM662.914 305.984C662.914 309.917 663.695 313.055 665.258 315.398C666.794 317.768 669.138 318.953 672.289 318.953C675.44 318.953 677.836 317.781 679.477 315.438C681.117 313.094 681.938 310.06 681.938 306.336C681.938 301.128 680.622 297.404 677.992 295.164C676.378 293.81 674.503 293.133 672.367 293.133C669.112 293.133 666.716 294.37 665.18 296.844C663.669 299.292 662.914 302.339 662.914 305.984ZM739.516 314.5C739.229 317.026 737.914 319.591 735.57 322.195C731.924 326.336 726.82 328.406 720.258 328.406C714.841 328.406 710.062 326.661 705.922 323.172C701.781 319.682 699.711 314.005 699.711 306.141C699.711 298.771 701.573 293.12 705.297 289.188C709.047 285.255 713.904 283.289 719.867 283.289C723.409 283.289 726.599 283.953 729.438 285.281C732.276 286.609 734.62 288.706 736.469 291.57C738.135 294.096 739.216 297.026 739.711 300.359C739.997 302.312 740.115 305.125 740.062 308.797H710.922C711.078 313.068 712.419 316.062 714.945 317.781C716.482 318.849 718.331 319.383 720.492 319.383C722.784 319.383 724.646 318.732 726.078 317.43C726.859 316.727 727.549 315.75 728.148 314.5H739.516ZM728.5 301.453C728.318 298.51 727.419 296.284 725.805 294.773C724.216 293.237 722.237 292.469 719.867 292.469C717.289 292.469 715.284 293.276 713.852 294.891C712.445 296.505 711.56 298.693 711.195 301.453H728.5ZM276.156 361.422H288.109V419H276.156V361.422ZM318.5 384.664C314.724 384.664 312.133 386.266 310.727 389.469C309.997 391.161 309.633 393.323 309.633 395.953V419H298.539V376.5H309.281V382.711C310.714 380.523 312.068 378.948 313.344 377.984C315.635 376.266 318.539 375.406 322.055 375.406C326.456 375.406 330.049 376.565 332.836 378.883C335.648 381.174 337.055 384.99 337.055 390.328V419H325.648V393.102C325.648 390.862 325.349 389.143 324.75 387.945C323.656 385.758 321.573 384.664 318.5 384.664ZM366.859 411.07V419.391L361.586 419.586C356.326 419.768 352.732 418.857 350.805 416.852C349.555 415.576 348.93 413.609 348.93 410.953V384.742H342.992V376.812H348.93V364.938H359.945V376.812H366.859V384.742H359.945V407.242C359.945 408.987 360.167 410.081 360.609 410.523C361.052 410.94 362.406 411.148 364.672 411.148C365.01 411.148 365.362 411.148 365.727 411.148C366.117 411.122 366.495 411.096 366.859 411.07ZM395.414 386.695C390.935 386.695 387.927 388.154 386.391 391.07C385.531 392.711 385.102 395.237 385.102 398.648V419H373.891V376.422H384.516V383.844C386.234 381.005 387.732 379.065 389.008 378.023C391.091 376.279 393.799 375.406 397.133 375.406C397.341 375.406 397.51 375.419 397.641 375.445C397.797 375.445 398.122 375.458 398.617 375.484V386.891C397.914 386.812 397.289 386.76 396.742 386.734C396.195 386.708 395.753 386.695 395.414 386.695ZM440.688 381.812C444.281 386.318 446.078 391.643 446.078 397.789C446.078 404.039 444.281 409.391 440.688 413.844C437.094 418.271 431.638 420.484 424.32 420.484C417.003 420.484 411.547 418.271 407.953 413.844C404.359 409.391 402.562 404.039 402.562 397.789C402.562 391.643 404.359 386.318 407.953 381.812C411.547 377.307 417.003 375.055 424.32 375.055C431.638 375.055 437.094 377.307 440.688 381.812ZM424.281 384.469C421.026 384.469 418.513 385.628 416.742 387.945C414.997 390.237 414.125 393.518 414.125 397.789C414.125 402.06 414.997 405.354 416.742 407.672C418.513 409.99 421.026 411.148 424.281 411.148C427.536 411.148 430.036 409.99 431.781 407.672C433.526 405.354 434.398 402.06 434.398 397.789C434.398 393.518 433.526 390.237 431.781 387.945C430.036 385.628 427.536 384.469 424.281 384.469ZM492.836 361.5V419H482.016V413.102C480.427 415.628 478.617 417.464 476.586 418.609C474.555 419.755 472.029 420.328 469.008 420.328C464.034 420.328 459.841 418.323 456.43 414.312C453.044 410.276 451.352 405.107 451.352 398.805C451.352 391.539 453.018 385.823 456.352 381.656C459.711 377.49 464.19 375.406 469.789 375.406C472.367 375.406 474.659 375.979 476.664 377.125C478.669 378.245 480.297 379.807 481.547 381.812V361.5H492.836ZM462.836 397.984C462.836 401.917 463.617 405.055 465.18 407.398C466.716 409.768 469.06 410.953 472.211 410.953C475.362 410.953 477.758 409.781 479.398 407.438C481.039 405.094 481.859 402.06 481.859 398.336C481.859 393.128 480.544 389.404 477.914 387.164C476.299 385.81 474.424 385.133 472.289 385.133C469.034 385.133 466.638 386.37 465.102 388.844C463.591 391.292 462.836 394.339 462.836 397.984ZM530.297 412.984C530.193 413.115 529.932 413.505 529.516 414.156C529.099 414.807 528.604 415.38 528.031 415.875C526.286 417.438 524.594 418.505 522.953 419.078C521.339 419.651 519.438 419.938 517.25 419.938C510.948 419.938 506.703 417.672 504.516 413.141C503.292 410.641 502.68 406.956 502.68 402.086V376.422H514.086V402.086C514.086 404.508 514.372 406.331 514.945 407.555C515.961 409.716 517.953 410.797 520.922 410.797C524.724 410.797 527.328 409.26 528.734 406.188C529.464 404.521 529.828 402.32 529.828 399.586V376.422H541.117V419H530.297V412.984ZM588.734 391.695H577.328C577.12 390.107 576.586 388.674 575.727 387.398C574.477 385.68 572.536 384.82 569.906 384.82C566.156 384.82 563.591 386.682 562.211 390.406C561.482 392.385 561.117 395.016 561.117 398.297C561.117 401.422 561.482 403.935 562.211 405.836C563.539 409.378 566.039 411.148 569.711 411.148C572.315 411.148 574.164 410.445 575.258 409.039C576.352 407.633 577.016 405.81 577.25 403.57H588.617C588.357 406.956 587.133 410.159 584.945 413.18C581.456 418.049 576.286 420.484 569.438 420.484C562.589 420.484 557.549 418.453 554.32 414.391C551.091 410.328 549.477 405.055 549.477 398.57C549.477 391.253 551.26 385.562 554.828 381.5C558.396 377.438 563.318 375.406 569.594 375.406C574.932 375.406 579.294 376.604 582.68 379C586.091 381.396 588.109 385.628 588.734 391.695ZM615.922 411.07V419.391L610.648 419.586C605.388 419.768 601.794 418.857 599.867 416.852C598.617 415.576 597.992 413.609 597.992 410.953V384.742H592.055V376.812H597.992V364.938H609.008V376.812H615.922V384.742H609.008V407.242C609.008 408.987 609.229 410.081 609.672 410.523C610.115 410.94 611.469 411.148 613.734 411.148C614.073 411.148 614.424 411.148 614.789 411.148C615.18 411.122 615.557 411.096 615.922 411.07ZM634.516 376.422V419H623.227V376.422H634.516ZM634.516 361.07V371.344H623.227V361.07H634.516ZM680.844 381.812C684.438 386.318 686.234 391.643 686.234 397.789C686.234 404.039 684.438 409.391 680.844 413.844C677.25 418.271 671.794 420.484 664.477 420.484C657.159 420.484 651.703 418.271 648.109 413.844C644.516 409.391 642.719 404.039 642.719 397.789C642.719 391.643 644.516 386.318 648.109 381.812C651.703 377.307 657.159 375.055 664.477 375.055C671.794 375.055 677.25 377.307 680.844 381.812ZM664.438 384.469C661.182 384.469 658.669 385.628 656.898 387.945C655.154 390.237 654.281 393.518 654.281 397.789C654.281 402.06 655.154 405.354 656.898 407.672C658.669 409.99 661.182 411.148 664.438 411.148C667.693 411.148 670.193 409.99 671.938 407.672C673.682 405.354 674.555 402.06 674.555 397.789C674.555 393.518 673.682 390.237 671.938 387.945C670.193 385.628 667.693 384.469 664.438 384.469ZM714.281 384.664C710.505 384.664 707.914 386.266 706.508 389.469C705.779 391.161 705.414 393.323 705.414 395.953V419H694.32V376.5H705.062V382.711C706.495 380.523 707.849 378.948 709.125 377.984C711.417 376.266 714.32 375.406 717.836 375.406C722.237 375.406 725.831 376.565 728.617 378.883C731.43 381.174 732.836 384.99 732.836 390.328V419H721.43V393.102C721.43 390.862 721.13 389.143 720.531 387.945C719.438 385.758 717.354 384.664 714.281 384.664Z" fill="#3B68D7"/>
<circle cx="132.5" cy="111.5" r="19.5" fill="white"/>
<circle cx="172" cy="76" r="10" fill="white"/>
<circle cx="212.5" cy="60.5" r="7.5" fill="white"/>
<circle cx="246.5" cy="56.5" r="5.5" fill="white"/>
<circle cx="288.5" cy="76.5" r="3.5" fill="white"/>
<circle cx="270.5" cy="62.5" r="4.5" fill="white"/>
<path d="M40.2106 338.748L71.4846 315.17L127.466 366.625L154.788 353.365V252.385L127.466 239.125L71.4846 290.581L40.2015 267.011L27.2876 274.543L58.1153 302.875L27.2876 331.208L40.2106 338.748ZM127.466 272.977V332.774L87.7955 302.875L127.466 272.977Z" fill="#1677C7"/>
<path d="M127.375 239.125L156.062 251.875V353.875L127.375 366.625V239.125Z" fill="#3DA2FF"/>
<path d="M741.435 592.713C741.435 593.599 742.138 594.276 742.998 594.276C743.884 594.276 744.587 593.599 744.587 592.713V576.563C744.587 575.703 743.884 575 742.998 575C742.112 575 741.435 575.703 741.435 576.563V592.713Z" fill="#030060"/>
<path d="M748.654 576.849C748.654 577.787 749.436 578.412 750.452 578.412C751.467 578.412 752.249 577.787 752.249 576.849V576.693C752.249 575.755 751.467 575.156 750.452 575.156C749.436 575.156 748.654 575.755 748.654 576.693V576.849ZM748.889 592.713C748.889 593.599 749.592 594.276 750.452 594.276C751.337 594.276 752.041 593.599 752.041 592.713V581.825C752.041 580.939 751.337 580.236 750.452 580.236C749.566 580.236 748.889 580.939 748.889 581.825V592.713Z" fill="#030060"/>
<path d="M756.16 592.713C756.16 593.573 756.863 594.276 757.723 594.276C758.608 594.276 759.312 593.573 759.312 592.713V592.01C760.276 593.287 761.708 594.433 764.001 594.433C767.257 594.433 770.383 591.854 770.383 587.295V587.243C770.383 582.658 767.231 580.106 764.001 580.106C761.76 580.106 760.328 581.252 759.312 582.685V576.563C759.312 575.677 758.608 575 757.723 575C756.837 575 756.16 575.677 756.16 576.563V592.713ZM763.245 591.698C761.109 591.698 759.234 589.926 759.234 587.295V587.243C759.234 584.612 761.109 582.841 763.245 582.841C765.381 582.841 767.179 584.586 767.179 587.243V587.295C767.179 590.004 765.407 591.698 763.245 591.698Z" fill="#030060"/>
<path d="M773.819 592.713C773.819 593.599 774.522 594.276 775.382 594.276C776.267 594.276 776.971 593.599 776.971 592.713V576.563C776.971 575.703 776.267 575 775.382 575C774.496 575 773.819 575.703 773.819 576.563V592.713Z" fill="#030060"/>
<path d="M787.628 594.459C791.874 594.459 795 591.203 795 587.295V587.243C795 583.31 791.9 580.106 787.68 580.106C783.46 580.106 780.334 583.362 780.334 587.295V587.347C780.334 591.255 783.434 594.459 787.628 594.459ZM787.68 591.698C785.232 591.698 783.486 589.692 783.486 587.295V587.243C783.486 584.847 785.101 582.867 787.628 582.867C790.103 582.867 791.848 584.873 791.848 587.295V587.347C791.848 589.718 790.233 591.698 787.68 591.698Z" fill="#030060"/>
<path d="M736.96 590.09C735.74 590.65 734.453 591.046 733.208 591.294C728.074 592.314 725.36 589.099 729.634 586.781C730.099 586.529 730.632 586.291 731.228 586.075L732.011 585.826C732.241 585.763 732.463 585.661 732.534 585.515C732.905 584.723 729.731 584.467 727.622 585.589C728.458 585.431 729.186 585.408 729.668 585.609C724.878 586.845 723.788 590.757 726.335 592.642C727.649 593.615 729.127 593.873 731.832 593.682C733.637 593.555 735.48 592.837 736.96 591.969V590.09Z" fill="url(#paint1_linear_5188_12837)"/>
<path d="M734.542 592.784C734.542 593.607 735.171 594.165 736.03 594.165C736.89 594.165 737.478 593.644 737.478 592.784V586.011C737.478 584.214 737.009 582.755 735.993 581.765C735.029 580.776 733.492 580.228 731.434 580.228C729.637 580.228 728.308 580.541 727.006 581.036C726.537 581.218 726.146 581.713 726.146 582.286C726.146 583.016 726.745 583.589 727.475 583.589C727.631 583.589 727.787 583.563 727.97 583.511C728.829 583.172 729.819 582.964 731.018 582.964C733.232 582.964 734.43 584.006 734.43 585.959V585.968L734.542 592.784Z" fill="url(#paint2_linear_5188_12837)"/>
<path d="M733.611 578.379C733.611 578.591 733.273 578.721 732.805 578.721C732.077 578.721 731.583 578.64 730.984 578.282L729.216 577.24C728.956 577.093 728.774 576.93 728.774 576.751C728.774 576.442 729.814 576.116 730.646 576.116C731.192 576.116 731.609 576.295 731.895 576.589L733.377 578.021C733.481 578.119 733.611 578.265 733.611 578.379Z" fill="url(#paint3_linear_5188_12837)"/>
</g>
<defs>
<linearGradient id="paint0_linear_5188_12837" x1="800" y1="1.71483e-05" x2="-2.41942" y2="596.747" gradientUnits="userSpaceOnUse">
<stop stop-color="#D0EDFF"/>
<stop offset="1" stop-color="#78B3FF"/>
</linearGradient>
<linearGradient id="paint1_linear_5188_12837" x1="725" y1="576.116" x2="725" y2="594.165" gradientUnits="userSpaceOnUse">
<stop stop-color="#008EE3"/>
<stop offset="1" stop-color="#0055C2"/>
</linearGradient>
<linearGradient id="paint2_linear_5188_12837" x1="725" y1="576.116" x2="725" y2="594.165" gradientUnits="userSpaceOnUse">
<stop stop-color="#008EE3"/>
<stop offset="1" stop-color="#0055C2"/>
</linearGradient>
<linearGradient id="paint3_linear_5188_12837" x1="725" y1="576.116" x2="725" y2="594.165" gradientUnits="userSpaceOnUse">
<stop stop-color="#008EE3"/>
<stop offset="1" stop-color="#0055C2"/>
</linearGradient>
<clipPath id="clip0_5188_12837">
<rect width="800" height="600" fill="white"/>
</clipPath>
</defs>
</svg>
