<svg width="800" height="600" viewBox="0 0 800 600" fill="none" xmlns="http://www.w3.org/2000/svg">
<g clip-path="url(#clip0_5188_12858)">
<rect width="800" height="600" fill="url(#paint0_linear_5188_12858)"/>
<circle cx="80" cy="299" r="173" fill="white"/>
<path d="M301.898 281H277.094V223.422H301.898C305.466 223.474 308.435 223.891 310.805 224.672C314.841 226 318.109 228.435 320.609 231.977C322.615 234.841 323.982 237.94 324.711 241.273C325.44 244.607 325.805 247.784 325.805 250.805C325.805 258.461 324.268 264.945 321.195 270.258C317.029 277.419 310.596 281 301.898 281ZM310.844 238.109C308.995 234.984 305.336 233.422 299.867 233.422H288.773V271H299.867C305.544 271 309.503 268.201 311.742 262.602C312.966 259.529 313.578 255.87 313.578 251.625C313.578 245.766 312.667 241.26 310.844 238.109ZM369.516 243.812C373.109 248.318 374.906 253.643 374.906 259.789C374.906 266.039 373.109 271.391 369.516 275.844C365.922 280.271 360.466 282.484 353.148 282.484C345.831 282.484 340.375 280.271 336.781 275.844C333.188 271.391 331.391 266.039 331.391 259.789C331.391 253.643 333.188 248.318 336.781 243.812C340.375 239.307 345.831 237.055 353.148 237.055C360.466 237.055 365.922 239.307 369.516 243.812ZM353.109 246.469C349.854 246.469 347.341 247.628 345.57 249.945C343.826 252.237 342.953 255.518 342.953 259.789C342.953 264.06 343.826 267.354 345.57 269.672C347.341 271.99 349.854 273.148 353.109 273.148C356.365 273.148 358.865 271.99 360.609 269.672C362.354 267.354 363.227 264.06 363.227 259.789C363.227 255.518 362.354 252.237 360.609 249.945C358.865 247.628 356.365 246.469 353.109 246.469ZM419.75 253.695H408.344C408.135 252.107 407.602 250.674 406.742 249.398C405.492 247.68 403.552 246.82 400.922 246.82C397.172 246.82 394.607 248.682 393.227 252.406C392.497 254.385 392.133 257.016 392.133 260.297C392.133 263.422 392.497 265.935 393.227 267.836C394.555 271.378 397.055 273.148 400.727 273.148C403.331 273.148 405.18 272.445 406.273 271.039C407.367 269.633 408.031 267.81 408.266 265.57H419.633C419.372 268.956 418.148 272.159 415.961 275.18C412.471 280.049 407.302 282.484 400.453 282.484C393.604 282.484 388.565 280.453 385.336 276.391C382.107 272.328 380.492 267.055 380.492 260.57C380.492 253.253 382.276 247.562 385.844 243.5C389.411 239.438 394.333 237.406 400.609 237.406C405.948 237.406 410.31 238.604 413.695 241C417.107 243.396 419.125 247.628 419.75 253.695ZM466.508 281H453.07L442.875 262.797L438.266 267.602V281H427.328V223.617H438.266V254.633L452.133 238.617H465.922L451.039 254.906L466.508 281ZM508.422 268.5C508.135 271.026 506.82 273.591 504.477 276.195C500.831 280.336 495.727 282.406 489.164 282.406C483.747 282.406 478.969 280.661 474.828 277.172C470.688 273.682 468.617 268.005 468.617 260.141C468.617 252.771 470.479 247.12 474.203 243.188C477.953 239.255 482.81 237.289 488.773 237.289C492.315 237.289 495.505 237.953 498.344 239.281C501.182 240.609 503.526 242.706 505.375 245.57C507.042 248.096 508.122 251.026 508.617 254.359C508.904 256.312 509.021 259.125 508.969 262.797H479.828C479.984 267.068 481.326 270.062 483.852 271.781C485.388 272.849 487.237 273.383 489.398 273.383C491.69 273.383 493.552 272.732 494.984 271.43C495.766 270.727 496.456 269.75 497.055 268.5H508.422ZM497.406 255.453C497.224 252.51 496.326 250.284 494.711 248.773C493.122 247.237 491.143 246.469 488.773 246.469C486.195 246.469 484.19 247.276 482.758 248.891C481.352 250.505 480.466 252.693 480.102 255.453H497.406ZM537.914 248.695C533.435 248.695 530.427 250.154 528.891 253.07C528.031 254.711 527.602 257.237 527.602 260.648V281H516.391V238.422H527.016V245.844C528.734 243.005 530.232 241.065 531.508 240.023C533.591 238.279 536.299 237.406 539.633 237.406C539.841 237.406 540.01 237.419 540.141 237.445C540.297 237.445 540.622 237.458 541.117 237.484V248.891C540.414 248.812 539.789 248.76 539.242 248.734C538.695 248.708 538.253 248.695 537.914 248.695ZM276.156 315.422H288.109V373H276.156V315.422ZM318.5 338.664C314.724 338.664 312.133 340.266 310.727 343.469C309.997 345.161 309.633 347.323 309.633 349.953V373H298.539V330.5H309.281V336.711C310.714 334.523 312.068 332.948 313.344 331.984C315.635 330.266 318.539 329.406 322.055 329.406C326.456 329.406 330.049 330.565 332.836 332.883C335.648 335.174 337.055 338.99 337.055 344.328V373H325.648V347.102C325.648 344.862 325.349 343.143 324.75 341.945C323.656 339.758 321.573 338.664 318.5 338.664ZM366.859 365.07V373.391L361.586 373.586C356.326 373.768 352.732 372.857 350.805 370.852C349.555 369.576 348.93 367.609 348.93 364.953V338.742H342.992V330.812H348.93V318.938H359.945V330.812H366.859V338.742H359.945V361.242C359.945 362.987 360.167 364.081 360.609 364.523C361.052 364.94 362.406 365.148 364.672 365.148C365.01 365.148 365.362 365.148 365.727 365.148C366.117 365.122 366.495 365.096 366.859 365.07ZM395.414 340.695C390.935 340.695 387.927 342.154 386.391 345.07C385.531 346.711 385.102 349.237 385.102 352.648V373H373.891V330.422H384.516V337.844C386.234 335.005 387.732 333.065 389.008 332.023C391.091 330.279 393.799 329.406 397.133 329.406C397.341 329.406 397.51 329.419 397.641 329.445C397.797 329.445 398.122 329.458 398.617 329.484V340.891C397.914 340.812 397.289 340.76 396.742 340.734C396.195 340.708 395.753 340.695 395.414 340.695ZM440.688 335.812C444.281 340.318 446.078 345.643 446.078 351.789C446.078 358.039 444.281 363.391 440.688 367.844C437.094 372.271 431.638 374.484 424.32 374.484C417.003 374.484 411.547 372.271 407.953 367.844C404.359 363.391 402.562 358.039 402.562 351.789C402.562 345.643 404.359 340.318 407.953 335.812C411.547 331.307 417.003 329.055 424.32 329.055C431.638 329.055 437.094 331.307 440.688 335.812ZM424.281 338.469C421.026 338.469 418.513 339.628 416.742 341.945C414.997 344.237 414.125 347.518 414.125 351.789C414.125 356.06 414.997 359.354 416.742 361.672C418.513 363.99 421.026 365.148 424.281 365.148C427.536 365.148 430.036 363.99 431.781 361.672C433.526 359.354 434.398 356.06 434.398 351.789C434.398 347.518 433.526 344.237 431.781 341.945C430.036 339.628 427.536 338.469 424.281 338.469ZM492.836 315.5V373H482.016V367.102C480.427 369.628 478.617 371.464 476.586 372.609C474.555 373.755 472.029 374.328 469.008 374.328C464.034 374.328 459.841 372.323 456.43 368.312C453.044 364.276 451.352 359.107 451.352 352.805C451.352 345.539 453.018 339.823 456.352 335.656C459.711 331.49 464.19 329.406 469.789 329.406C472.367 329.406 474.659 329.979 476.664 331.125C478.669 332.245 480.297 333.807 481.547 335.812V315.5H492.836ZM462.836 351.984C462.836 355.917 463.617 359.055 465.18 361.398C466.716 363.768 469.06 364.953 472.211 364.953C475.362 364.953 477.758 363.781 479.398 361.438C481.039 359.094 481.859 356.06 481.859 352.336C481.859 347.128 480.544 343.404 477.914 341.164C476.299 339.81 474.424 339.133 472.289 339.133C469.034 339.133 466.638 340.37 465.102 342.844C463.591 345.292 462.836 348.339 462.836 351.984ZM530.297 366.984C530.193 367.115 529.932 367.505 529.516 368.156C529.099 368.807 528.604 369.38 528.031 369.875C526.286 371.438 524.594 372.505 522.953 373.078C521.339 373.651 519.438 373.938 517.25 373.938C510.948 373.938 506.703 371.672 504.516 367.141C503.292 364.641 502.68 360.956 502.68 356.086V330.422H514.086V356.086C514.086 358.508 514.372 360.331 514.945 361.555C515.961 363.716 517.953 364.797 520.922 364.797C524.724 364.797 527.328 363.26 528.734 360.188C529.464 358.521 529.828 356.32 529.828 353.586V330.422H541.117V373H530.297V366.984ZM588.734 345.695H577.328C577.12 344.107 576.586 342.674 575.727 341.398C574.477 339.68 572.536 338.82 569.906 338.82C566.156 338.82 563.591 340.682 562.211 344.406C561.482 346.385 561.117 349.016 561.117 352.297C561.117 355.422 561.482 357.935 562.211 359.836C563.539 363.378 566.039 365.148 569.711 365.148C572.315 365.148 574.164 364.445 575.258 363.039C576.352 361.633 577.016 359.81 577.25 357.57H588.617C588.357 360.956 587.133 364.159 584.945 367.18C581.456 372.049 576.286 374.484 569.438 374.484C562.589 374.484 557.549 372.453 554.32 368.391C551.091 364.328 549.477 359.055 549.477 352.57C549.477 345.253 551.26 339.562 554.828 335.5C558.396 331.438 563.318 329.406 569.594 329.406C574.932 329.406 579.294 330.604 582.68 333C586.091 335.396 588.109 339.628 588.734 345.695ZM615.922 365.07V373.391L610.648 373.586C605.388 373.768 601.794 372.857 599.867 370.852C598.617 369.576 597.992 367.609 597.992 364.953V338.742H592.055V330.812H597.992V318.938H609.008V330.812H615.922V338.742H609.008V361.242C609.008 362.987 609.229 364.081 609.672 364.523C610.115 364.94 611.469 365.148 613.734 365.148C614.073 365.148 614.424 365.148 614.789 365.148C615.18 365.122 615.557 365.096 615.922 365.07ZM634.516 330.422V373H623.227V330.422H634.516ZM634.516 315.07V325.344H623.227V315.07H634.516ZM680.844 335.812C684.438 340.318 686.234 345.643 686.234 351.789C686.234 358.039 684.438 363.391 680.844 367.844C677.25 372.271 671.794 374.484 664.477 374.484C657.159 374.484 651.703 372.271 648.109 367.844C644.516 363.391 642.719 358.039 642.719 351.789C642.719 345.643 644.516 340.318 648.109 335.812C651.703 331.307 657.159 329.055 664.477 329.055C671.794 329.055 677.25 331.307 680.844 335.812ZM664.438 338.469C661.182 338.469 658.669 339.628 656.898 341.945C655.154 344.237 654.281 347.518 654.281 351.789C654.281 356.06 655.154 359.354 656.898 361.672C658.669 363.99 661.182 365.148 664.438 365.148C667.693 365.148 670.193 363.99 671.938 361.672C673.682 359.354 674.555 356.06 674.555 351.789C674.555 347.518 673.682 344.237 671.938 341.945C670.193 339.628 667.693 338.469 664.438 338.469ZM714.281 338.664C710.505 338.664 707.914 340.266 706.508 343.469C705.779 345.161 705.414 347.323 705.414 349.953V373H694.32V330.5H705.062V336.711C706.495 334.523 707.849 332.948 709.125 331.984C711.417 330.266 714.32 329.406 717.836 329.406C722.237 329.406 725.831 330.565 728.617 332.883C731.43 335.174 732.836 338.99 732.836 344.328V373H721.43V347.102C721.43 344.862 721.13 343.143 720.531 341.945C719.438 339.758 717.354 338.664 714.281 338.664Z" fill="#E5F3FF"/>
<circle cx="132.5" cy="111.5" r="19.5" fill="white"/>
<circle cx="172" cy="76" r="10" fill="white"/>
<circle cx="212.5" cy="60.5" r="7.5" fill="white"/>
<circle cx="246.5" cy="56.5" r="5.5" fill="white"/>
<circle cx="288.5" cy="76.5" r="3.5" fill="white"/>
<circle cx="270.5" cy="62.5" r="4.5" fill="white"/>
<path d="M141.221 370.199C141.221 369.805 141.352 369.411 141.221 369.018C140.96 368.624 140.829 368.361 140.567 368.099C139.913 367.312 139.259 366.655 138.473 365.868L130.753 357.994L136.772 351.825L140.044 348.282C140.567 347.757 141.221 346.707 141.221 345.92V345.395C141.221 344.214 140.698 343.558 139.52 343.295L139.782 343.426H138.866C138.081 343.426 135.856 345.526 135.333 346.182C133.37 348.151 132.062 349.988 129.445 351.957V336.339C129.445 334.896 128.66 334.24 127.22 334.24H126.828C125.389 334.24 124.211 334.896 124.211 336.339V370.33C124.211 371.774 125.389 372.299 126.828 372.299H127.22C128.66 372.299 129.445 371.642 129.445 370.33V364.293L133.37 368.099C134.548 369.28 135.726 370.068 136.772 371.117C137.296 371.642 138.343 372.299 139.128 372.299H139.52C140.829 372.299 141.221 371.642 141.483 370.592L141.221 370.724V370.199V370.199ZM192.383 343.426H191.86C188.981 343.426 186.364 344.214 184.009 345.92C180.083 348.807 177.859 352.613 177.859 357.6V370.461C177.859 371.905 178.382 372.299 179.822 372.299H180.214C181.653 372.299 183.093 371.774 183.093 370.461V358.387C183.093 355.763 183.616 353.269 185.579 351.301C187.149 349.726 189.112 348.413 191.336 348.413C193.037 348.413 195 348.02 195 345.92C195 344.345 193.822 343.426 192.383 343.426V343.426ZM172.232 349.988C170.793 347.626 168.83 345.789 166.344 344.607C161.764 342.376 156.923 342.114 152.474 344.739L151.82 345.132C149.988 346.182 148.418 347.495 147.24 349.201C143.838 354.188 143.446 359.831 146.455 365.08L146.717 365.605C148.025 367.836 149.726 369.674 151.951 370.855C156.661 373.48 161.764 373.742 166.475 371.117L166.868 370.855C168.176 370.068 168.438 368.755 167.784 367.443C167.522 366.918 166.998 366.524 166.475 366.262H166.213C165.297 366.13 162.811 367.18 161.895 367.574C160.063 367.836 157.97 367.968 156.138 367.312L166.082 358.65C167.522 357.337 169.092 355.894 170.662 354.713C171.971 353.663 173.279 352.219 172.232 350.382V349.988ZM163.204 354.713L152.082 364.293C151.689 363.899 151.427 363.374 151.166 362.981C150.381 361.668 149.857 360.093 149.857 358.519C149.726 354.581 151.166 351.301 154.699 349.332C157.316 347.757 160.194 347.495 163.073 348.545C164.512 349.069 166.213 349.988 167.129 351.301C165.821 352.482 164.381 353.532 163.204 354.713V354.713ZM57.4782 334.24H57.0856C55.6463 334.24 54.8612 334.765 54.8612 336.208V346.838C52.2443 344.476 49.1039 343.557 45.4401 343.557H44.3933C41.9072 343.557 39.5519 343.951 37.3275 345.264C32.617 348.02 30 352.088 30 357.6V358.65C30 361.143 30.6542 363.243 31.9627 365.474C34.7105 370.199 39.0285 372.561 44.3933 372.561H45.4401C47.9263 372.561 50.5432 372.167 52.6368 370.986C57.3473 368.23 60.0952 364.162 60.0952 358.781V336.471C60.0952 334.765 58.9175 334.24 57.4782 334.24ZM53.4219 362.849C51.4592 366.13 48.5805 367.968 44.7859 367.968C43.2157 367.968 41.6455 367.574 40.337 366.787C36.935 364.949 34.9722 361.931 34.9722 357.994C34.9722 356.55 35.2339 355.238 35.8882 353.925C37.7201 350.119 40.7296 348.02 44.9167 348.02C47.0103 348.02 48.8422 348.676 50.4124 349.857C53.1602 351.825 54.7304 354.45 54.7304 357.862C54.8612 359.7 54.3378 361.275 53.4219 362.849ZM77.8906 343.426H77.1055C74.6194 343.426 72.1332 343.82 70.0397 345.132C65.3291 347.888 62.7121 351.957 62.7121 357.469V358.519C62.7121 361.012 63.3664 363.112 64.6749 365.343C67.4227 370.068 71.7407 372.43 77.2363 372.43H78.2831C80.7692 372.43 83.2554 372.036 85.4798 370.855C90.1903 368.099 92.9381 364.031 92.9381 358.65V357.6C92.9381 355.238 92.1531 353.269 91.1063 351.301C88.2276 346.051 83.6479 343.426 77.8906 343.426V343.426ZM86.2649 362.849C84.3021 365.999 81.5543 367.968 77.7597 367.968C76.0587 367.968 74.3577 367.574 72.7875 366.655C69.5163 364.687 67.6844 361.931 67.6844 358.125C67.6844 356.681 67.9461 355.369 68.6003 354.057C70.4322 350.251 73.4417 348.151 77.6289 348.151C79.5916 348.151 81.2926 348.676 82.8628 349.726C85.7415 351.694 87.4425 354.45 87.4425 357.994C87.5734 359.568 87.1808 361.275 86.2649 362.849V362.849ZM118.323 345.264L118.192 345.395C115.967 343.951 113.481 343.426 110.864 343.426H109.818C107.331 343.426 104.845 343.82 102.752 345.132C98.0412 347.888 95.4243 351.957 95.4243 357.337V358.387C95.4243 359.7 95.686 360.881 95.9477 362.193C98.0412 369.411 103.668 373.48 111.257 372.955C113.351 372.823 118.977 372.167 118.977 369.018V368.493C118.977 367.312 118.061 366.262 117.014 365.999L116.883 365.737H115.967L115.706 366.13C114.528 366.655 112.565 367.705 111.257 367.705C109.687 367.705 107.986 367.705 106.546 366.918C102.752 365.08 100.527 362.062 100.527 357.862C100.527 356.419 100.789 355.106 101.443 353.794C103.275 350.119 106.285 347.757 110.472 347.888C111.257 347.888 112.696 348.282 113.481 348.676C114.136 348.938 115.837 349.988 116.622 349.988H116.883L117.014 349.726C118.192 349.463 119.108 348.545 119.108 347.363V346.838C119.108 346.313 118.846 345.92 118.584 345.526L118.323 345.264V345.264ZM36.2807 304.317L36.4116 304.58C46.7486 322.166 64.8057 329.515 84.5638 329.515C122.772 329.515 154.306 312.323 168.699 276.233C178.382 276.758 188.327 273.87 193.037 264.552L194.215 262.19L191.86 260.878C186.233 257.597 178.775 257.203 172.494 259.04C171.709 252.216 167.26 246.31 162.026 242.111L159.933 240.405L158.232 242.505C154.699 246.573 153.652 253.397 154.175 258.647C154.568 262.453 155.745 266.39 158.101 269.539C156.269 270.589 154.306 272.033 152.474 272.689C148.81 274.002 144.754 275.314 140.829 275.314H132.062V256.809H115.052V224H95.4243V239.749H62.7121V256.809H45.7018V275.183H31.0468L30.7851 277.151C30.1308 285.55 31.1776 293.687 34.7105 301.43L36.2807 304.317V304.317ZM115.052 260.747H129.445V275.183H115.052V260.747ZM98.0412 226.625H112.435V241.061H98.0412V226.625ZM98.0412 243.686H112.435V258.122H98.0412V243.686ZM98.0412 260.747H112.435V275.183H98.0412V260.747ZM81.0309 243.686H95.4243V258.122H81.0309V243.686ZM81.0309 260.747H95.4243V275.183H81.0309V260.747ZM82.4703 301.693C82.4703 303.924 80.6384 305.761 78.414 305.761C76.1895 305.761 74.3577 303.924 74.3577 301.693C74.3577 299.462 76.1895 297.624 78.414 297.624C80.6384 297.756 82.4703 299.462 82.4703 301.693ZM65.3291 243.686H78.414V258.122H65.3291V243.686ZM65.3291 260.747H78.414V275.183H65.3291V260.747ZM48.3188 260.747H62.7121V275.183H48.3188V260.747ZM51.4592 310.617C53.5527 310.617 55.6463 310.617 57.609 310.486C62.7121 310.223 67.161 309.567 70.8247 308.517C73.8343 315.473 79.3299 321.903 89.1435 326.628L84.5638 326.759C63.8898 326.628 52.7676 319.672 43.6082 310.486C46.3561 310.617 48.973 310.617 51.4592 310.617V310.617ZM78.414 304.58C79.9841 304.58 81.2926 303.268 81.2926 301.693C81.2926 301.299 81.1618 300.905 81.0309 300.643C80.7692 301.037 80.5075 301.299 79.9841 301.299C79.3299 301.299 78.8065 300.774 78.8065 300.118C78.8065 299.724 79.0682 299.33 79.3299 299.068C79.1991 298.937 78.8065 298.805 78.414 298.805C76.8438 298.805 75.5353 300.118 75.5353 301.693C75.6661 303.268 76.8438 304.58 78.414 304.58Z" fill="#019BC6"/>
<path d="M741.435 592.713C741.435 593.599 742.138 594.276 742.998 594.276C743.884 594.276 744.587 593.599 744.587 592.713V576.563C744.587 575.703 743.884 575 742.998 575C742.112 575 741.435 575.703 741.435 576.563V592.713Z" fill="white"/>
<path d="M748.654 576.849C748.654 577.787 749.436 578.412 750.452 578.412C751.467 578.412 752.249 577.787 752.249 576.849V576.693C752.249 575.755 751.467 575.156 750.452 575.156C749.436 575.156 748.654 575.755 748.654 576.693V576.849ZM748.889 592.713C748.889 593.599 749.592 594.276 750.452 594.276C751.337 594.276 752.041 593.599 752.041 592.713V581.825C752.041 580.939 751.337 580.236 750.452 580.236C749.566 580.236 748.889 580.939 748.889 581.825V592.713Z" fill="white"/>
<path d="M756.16 592.713C756.16 593.573 756.863 594.276 757.723 594.276C758.608 594.276 759.312 593.573 759.312 592.713V592.01C760.276 593.287 761.708 594.433 764.001 594.433C767.257 594.433 770.383 591.854 770.383 587.295V587.243C770.383 582.658 767.231 580.106 764.001 580.106C761.76 580.106 760.328 581.252 759.312 582.685V576.563C759.312 575.677 758.608 575 757.723 575C756.837 575 756.16 575.677 756.16 576.563V592.713ZM763.245 591.698C761.109 591.698 759.234 589.926 759.234 587.295V587.243C759.234 584.612 761.109 582.841 763.245 582.841C765.381 582.841 767.179 584.586 767.179 587.243V587.295C767.179 590.004 765.407 591.698 763.245 591.698Z" fill="white"/>
<path d="M773.819 592.713C773.819 593.599 774.522 594.276 775.382 594.276C776.267 594.276 776.971 593.599 776.971 592.713V576.563C776.971 575.703 776.267 575 775.382 575C774.496 575 773.819 575.703 773.819 576.563V592.713Z" fill="white"/>
<path d="M787.628 594.459C791.874 594.459 795 591.203 795 587.295V587.243C795 583.31 791.9 580.106 787.68 580.106C783.46 580.106 780.334 583.362 780.334 587.295V587.347C780.334 591.255 783.434 594.459 787.628 594.459ZM787.68 591.698C785.232 591.698 783.486 589.692 783.486 587.295V587.243C783.486 584.847 785.101 582.867 787.628 582.867C790.103 582.867 791.848 584.873 791.848 587.295V587.347C791.848 589.718 790.233 591.698 787.68 591.698Z" fill="white"/>
<path d="M736.96 590.09C735.74 590.65 734.453 591.046 733.208 591.294C728.074 592.314 725.36 589.099 729.634 586.781C730.099 586.529 730.632 586.291 731.228 586.075L732.011 585.826C732.241 585.763 732.463 585.661 732.534 585.515C732.905 584.723 729.731 584.467 727.622 585.589C728.458 585.431 729.186 585.408 729.668 585.609C724.878 586.845 723.788 590.757 726.335 592.642C727.649 593.615 729.127 593.873 731.832 593.682C733.637 593.555 735.48 592.837 736.96 591.969V590.09Z" fill="white"/>
<path d="M734.542 592.784C734.542 593.607 735.171 594.165 736.03 594.165C736.89 594.165 737.478 593.644 737.478 592.784V586.011C737.478 584.214 737.009 582.755 735.993 581.765C735.029 580.776 733.492 580.228 731.434 580.228C729.637 580.228 728.308 580.541 727.006 581.036C726.537 581.218 726.146 581.713 726.146 582.286C726.146 583.016 726.745 583.589 727.475 583.589C727.631 583.589 727.787 583.563 727.97 583.511C728.829 583.172 729.819 582.964 731.018 582.964C733.232 582.964 734.43 584.006 734.43 585.959V585.968L734.542 592.784Z" fill="white"/>
<path d="M733.611 578.379C733.611 578.591 733.273 578.721 732.805 578.721C732.077 578.721 731.583 578.64 730.984 578.282L729.216 577.24C728.956 577.093 728.774 576.93 728.774 576.751C728.774 576.442 729.814 576.116 730.646 576.116C731.192 576.116 731.609 576.295 731.895 576.589L733.377 578.021C733.481 578.119 733.611 578.265 733.611 578.379Z" fill="white"/>
</g>
<defs>
<linearGradient id="paint0_linear_5188_12858" x1="800" y1="2.20924e-05" x2="1.22569" y2="601.627" gradientUnits="userSpaceOnUse">
<stop stop-color="#80D7F2"/>
<stop offset="1" stop-color="#2B90B0"/>
</linearGradient>
<clipPath id="clip0_5188_12858">
<rect width="800" height="600" fill="white"/>
</clipPath>
</defs>
</svg>
