<?xml version="1.0" encoding="UTF-8"?>
<svg width="800px" height="600px" viewBox="0 0 800 600" version="1.1" xmlns="http://www.w3.org/2000/svg" xmlns:xlink="http://www.w3.org/1999/xlink">
    <title>2041-10-18-12-10_Git&amp;GitHubGlossary</title>
    <defs>
        <path d="M8.68744595,14.5405413 C10.6544909,13.5649687 12,11.5915112 12,9.31636202 C12,6.07252388 9.26504479,3.44227578 5.89152197,3.44227578 C4.52034181,3.44227578 3.25480793,3.87689217 2.23537065,4.61058921 L2.23537065,1.05770107 C2.23537065,0.476155373 1.74046224,0 1.11695169,0 C0.493934821,0 0.0167986821,0.476630104 0.0167986821,1.05770107 L0.0167986821,1.80184219 L0,9.32158406 C-0.0041824725,11.2003327 0.951817666,12.865215 2.41753644,13.8939574 C2.4777647,13.9362085 2.55848043,13.9312238 2.6127846,13.8823265 C2.66758244,13.8334292 2.6779496,13.7558106 2.63746831,13.6950451 C0.724974359,10.8146136 1.16014819,5.53963813 5.89176881,5.53963813 C8.05899866,5.53963813 9.80709909,7.22944376 9.81623206,9.31351363 C9.82240299,10.8599505 9.11620201,12.0365717 8.19549958,12.7781018 C6.36026565,14.2561773 3.64974731,12.6382934 4.49738595,10.4697214 C4.5894562,10.2335427 4.71879884,9.9959397 4.88664808,9.76189723 L5.12361171,9.47705853 C5.19766284,9.39967734 5.25048599,9.29903433 5.2146946,9.19411874 C5.01401603,8.62800181 3.46832203,8.97526767 3.04005964,10.0315445 C3.34292878,9.79631524 3.65986763,9.66433998 3.96940137,9.71489885 C2.38890334,11.275815 3.44141679,13.9563846 5.46005069,14.7513219 C6.40494316,15.1232738 7.55964718,15.0976383 8.68744595,14.5405413" id="path-1"></path>
        <linearGradient x1="28.568518%" y1="104.445731%" x2="78.3472072%" y2="20.6880271%" id="linearGradient-3">
            <stop stop-color="#000F98" offset="0%"></stop>
            <stop stop-color="#00A5FD" offset="100%"></stop>
        </linearGradient>
    </defs>
    <g id="2041-10-18-12-10_Git&amp;GitHubGlossary" stroke="none" stroke-width="1" fill="none" fill-rule="evenodd">
        <rect fill="#FFFFFF" x="0" y="0" width="800" height="600"></rect>
        <g id="bloovee-winner-logo" transform="translate(725.000000, 580.000000)">
            <path d="M13,13.7751507 C13,14.396312 13.4732558,14.8717809 14.0514961,14.8717809 C14.6474304,14.8717809 15.1204503,14.3968042 15.1204503,13.7751507 L15.1204503,2.09687626 C15.1204503,1.49368045 14.6474304,1 14.0514961,1 C13.4557977,1 13,1.49392656 13,2.09687626 L13,13.7751507 Z M21.7920364,15 C24.6483217,15 26.751078,12.7149437 26.751078,9.97312215 L26.751078,9.93645297 C26.751078,7.17641992 24.6657798,4.92778666 21.8269526,4.92778666 C18.9881254,4.92778666 16.885369,7.212843 16.885369,9.97312215 L16.885369,10.0095452 C16.885369,12.7516128 18.9706673,15 21.7920364,15 Z M21.8269526,13.0621935 C20.179994,13.0621935 19.0055834,11.6547366 19.0055834,9.97312215 L19.0055834,9.93645297 C19.0055834,8.25459244 20.0919958,6.86534709 21.7920364,6.86534709 C23.456689,6.86534709 24.6306277,8.27305008 24.6306277,9.97312215 L24.6306277,10.0095452 C24.6306277,11.6731942 23.5444513,13.0621935 21.8269526,13.0621935 Z M32.8092717,15 C35.665557,15 37.7683133,12.7149437 37.7683133,9.97312215 L37.7683133,9.93645297 C37.7683133,7.17641992 35.6830151,4.92778666 32.8441878,4.92778666 C30.0053606,4.92778666 27.9026043,7.212843 27.9026043,9.97312215 L27.9026043,10.0095452 C27.9026043,12.7516128 29.9879025,15 32.8092717,15 Z M32.8441878,13.0621935 C31.1969933,13.0621935 30.0228187,11.6547366 30.0228187,9.97312215 L30.0228187,9.93645297 C30.0228187,8.25459244 31.109231,6.86534709 32.8092717,6.86534709 C34.4739243,6.86534709 35.647863,8.27305008 35.647863,9.97312215 L35.647863,10.0095452 C35.647863,11.6731942 34.5614506,13.0621935 32.8441878,13.0621935 Z M44.1416963,13.9944275 L47.2261164,6.6096472 C47.2784906,6.49988574 47.3487948,6.28060893 47.3487948,6.07954366 C47.3487948,5.47610175 46.8929971,5.01933658 46.3147568,5.01933658 C45.7539746,5.01933658 45.4737015,5.40300947 45.3158709,5.78692847 L42.8976893,12.2215093 L40.5144239,5.82335156 C40.3393711,5.36634029 40.041404,5.01933658 39.4629278,5.01933658 C38.8846875,5.01933658 38.4116676,5.53098247 38.4116676,6.07954366 C38.4116676,6.28060893 38.4817358,6.46346265 38.534346,6.62785874 L41.6182943,13.9944275 C41.8638872,14.5796579 42.2491448,14.9633308 42.8273851,14.9633308 L42.9326055,14.9633308 C43.5108458,14.9633308 43.8965752,14.5612003 44.1416963,13.9944275 Z M50.0949054,9.27837643 C50.2876522,7.77961573 51.1987758,6.73762019 52.4956289,6.73762019 C53.8974665,6.73762019 54.7036056,7.8524619 54.8437422,9.27837643 L50.0949054,9.27837643 Z M56.070527,13.72027 C56.2281217,13.5558739 56.3508002,13.3181395 56.3508002,13.0439819 C56.3508002,12.5320899 55.9830006,12.1481709 55.5095089,12.1481709 C55.2641519,12.1481709 55.1242513,12.2215093 54.9664207,12.3492362 C54.3704864,12.8611282 53.6695676,13.1901665 52.7759021,13.1901665 C51.4089807,13.1901665 50.3402624,12.3128131 50.1123635,10.7409601 L55.9126964,10.7409601 C56.4560206,10.7409601 56.9115824,10.3021604 56.9115824,9.68050697 C56.9115824,7.45057746 55.4568987,4.92778666 52.513087,4.92778666 C49.8672425,4.92778666 47.9919132,7.19438536 47.9919132,9.95466451 L47.9919132,9.9913337 C47.9919132,12.9708897 50.0597533,15 52.7409859,15 C54.1779755,15 55.2292357,14.5063195 56.070527,13.72027 Z M60.1833231,9.27837643 C60.3763058,7.77961573 61.2871935,6.73762019 62.5842825,6.73762019 C63.9858841,6.73762019 64.7920233,7.8524619 64.9321598,9.27837643 L60.1833231,9.27837643 Z M66.1589447,13.72027 C66.3167752,13.5558739 66.4394537,13.3181395 66.4394537,13.0439819 C66.4394537,12.5320899 66.0714183,12.1481709 65.5981624,12.1481709 C65.3528055,12.1481709 65.2126689,12.2215093 65.0548383,12.3492362 C64.4591399,12.8611282 63.7582212,13.1901665 62.8643197,13.1901665 C61.4976342,13.1901665 60.4289159,12.3128131 60.2007812,10.7409601 L66.0011141,10.7409601 C66.5444382,10.7409601 67,10.3021604 67,9.68050697 C67,7.45057746 65.5455522,4.92778666 62.6015046,4.92778666 C59.9556601,4.92778666 58.0805667,7.19438536 58.0805667,9.95466451 L58.0805667,9.9913337 C58.0805667,12.9708897 60.1484069,15 62.8294035,15 C64.2663932,15 65.3178893,14.5063195 66.1589447,13.72027 L66.1589447,13.72027 Z" id="Fill-1" fill="#030060"></path>
            <g id="Group-4">
                <mask id="mask-2" fill="white">
                    <use xlink:href="#path-1"></use>
                </mask>
                <g id="Clip-3"></g>
                <path d="M8.68744595,14.5405413 C10.6544909,13.5649687 12,11.5915112 12,9.31636202 C12,6.07252388 9.26504479,3.44227578 5.89152197,3.44227578 C4.52034181,3.44227578 3.25480793,3.87689217 2.23537065,4.61058921 L2.23537065,1.05770107 C2.23537065,0.476155373 1.74046224,0 1.11695169,0 C0.493934821,0 0.0167986821,0.476630104 0.0167986821,1.05770107 L0.0167986821,1.80184219 L0,9.32158406 C-0.0041824725,11.2003327 0.951817666,12.865215 2.41753644,13.8939574 C2.4777647,13.9362085 2.55848043,13.9312238 2.6127846,13.8823265 C2.66758244,13.8334292 2.6779496,13.7558106 2.63746831,13.6950451 C0.724974359,10.8146136 1.16014819,5.53963813 5.89176881,5.53963813 C8.05899866,5.53963813 9.80709909,7.22944376 9.81623206,9.31351363 C9.82240299,10.8599505 9.11620201,12.0365717 8.19549958,12.7781018 C6.36026565,14.2561773 3.64974731,12.6382934 4.49738595,10.4697214 C4.5894562,10.2335427 4.71879884,9.9959397 4.88664808,9.76189723 L5.12361171,9.47705853 C5.19766284,9.39967734 5.25048599,9.29903433 5.2146946,9.19411874 C5.01401603,8.62800181 3.46832203,8.97526767 3.04005964,10.0315445 C3.34292878,9.79631524 3.65986763,9.66433998 3.96940137,9.71489885 C2.38890334,11.275815 3.44141679,13.9563846 5.46005069,14.7513219 C6.40494316,15.1232738 7.55964718,15.0976383 8.68744595,14.5405413" id="Fill-2" fill="url(#linearGradient-3)" mask="url(#mask-2)"></path>
            </g>
        </g>
        <text id="Git-&amp;-GitHub-Glossar" fill-rule="nonzero" font-family="Helvetica" font-size="18" font-weight="normal" fill="#0055C2">
            <tspan x="10" y="23">Git &amp; GitHub Glossary</tspan>
        </text>
        <g id="Group-2" transform="translate(182.000000, 79.000000)">
            <text id="GitHub" font-family="Helvetica-Bold, Helvetica" font-size="48" font-weight="bold" fill="#363636">
                <tspan x="268" y="148">GitHub </tspan>
            </text>
            <g id="git-copy" transform="translate(0.000000, 39.000000)">
                <path d="M132.507992,30.989795 C127.741741,30.989795 124.192739,33.3366866 124.192739,38.9856406 C124.192739,43.2411278 126.531458,46.1956966 132.252004,46.1956966 C137.100101,46.1956966 140.394856,43.3301839 140.394856,38.8092745 C140.394856,33.6859264 137.446642,30.989795 132.507992,30.989795 L132.507992,30.989795 Z M122.980715,70.872982 C121.852279,72.2612103 120.727325,73.7367485 120.727325,75.477709 C120.727325,78.9508989 125.143551,79.995126 131.21238,79.995126 C136.236359,79.995126 143.081858,79.6423938 143.081858,74.9573417 C143.081858,72.1721541 139.787103,72.0010266 135.626864,71.7390967 L122.980715,70.872982 Z M148.623038,31.2517249 C150.181603,33.2511229 151.830723,36.0310718 151.830723,40.0281215 C151.830723,49.6706328 144.292141,55.3178406 133.376957,55.3178406 C130.601143,55.3178406 128.088283,54.9720932 126.529717,54.5372896 L123.670315,59.1420166 L132.159709,59.6606377 C147.149802,60.619301 155.985737,61.0541046 155.985737,72.6052115 C155.985737,82.5987088 147.236872,88.2424242 132.159709,88.2424242 C116.476533,88.2424242 110.5,84.2453746 110.5,77.3845584 C110.5,73.4730724 112.234448,71.3933493 115.26625,68.5208518 C112.405107,67.3089897 111.454295,65.1384642 111.454295,62.7915727 C111.454295,60.8794847 112.406848,59.1420166 113.967156,57.4901123 C115.527463,55.8417003 117.26017,54.1880498 119.337677,52.277708 C115.092109,50.1927463 111.887907,45.6753293 111.887907,39.2440781 C111.887907,29.2540732 118.472194,22.393257 131.727838,22.393257 C135.454464,22.393257 137.709596,22.7372582 139.700032,23.2628641 L156.596973,23.2628641 L156.596973,30.6457938 L148.623038,31.2517249 L148.623038,31.2517249 Z M171.839571,15.4660852 C166.899179,15.4660852 164.039777,12.5970802 164.039777,7.64311337 C164.039777,2.69613138 166.899179,0 171.839571,0 C176.865292,0 179.722953,2.69438518 179.722953,7.64311337 C179.724694,12.5970802 176.865292,15.4660852 171.839571,15.4660852 Z M160.659692,67.6774377 L160.659692,60.8166215 L165.081143,60.2089442 C166.293167,60.0343243 166.465567,59.7741407 166.465567,58.4679838 L166.465567,32.9263298 C166.465567,31.9729051 166.207838,31.3617355 165.338872,31.103298 L160.659692,29.4513937 L161.612246,22.4177038 L179.550553,22.4177038 L179.550553,58.46973 C179.550553,59.8631968 179.63414,60.0343243 180.936718,60.2106904 L185.356427,60.8183677 L185.356427,67.6791839 L160.659692,67.6791839 L160.659692,67.6774377 Z M219.61875,64.3072735 C215.890382,66.1285591 210.434532,67.7822096 205.492399,67.7822096 C195.183227,67.7822096 191.285942,63.6157786 191.285942,53.7934088 L191.285942,31.0317038 C191.285942,30.5130827 191.285942,30.1638429 190.591118,30.1638429 L184.527514,30.1638429 L184.527514,22.4316734 C192.154908,21.56032 195.184969,17.7378902 196.137522,8.26825264 L204.370928,8.26825264 L204.370928,20.6086415 C204.370928,21.2145726 204.370928,21.4782487 205.064011,21.4782487 L217.280031,21.4782487 L217.280031,30.1655891 L204.370928,30.1655891 L204.370928,50.9278961 C204.370928,56.0529904 205.584694,58.0506422 210.262132,58.0506422 C212.691405,58.0506422 215.200782,57.4447111 217.280031,56.6624139 L219.61875,64.3072735 L219.61875,64.3072735 Z" id="Shape" fill="#31251C" fill-rule="nonzero"></path>
                <path d="M89.442164,41.4462795 L49.6395459,1.71597605 C47.3492638,-0.571992016 43.6312734,-0.571992016 41.3392417,1.71597605 L33.0739303,9.9666334 L43.5560388,20.4319041 C45.9950405,19.6110301 48.78747,20.1611903 50.7295732,22.1015968 C52.6821742,24.0524826 53.2298124,26.8644128 52.3864847,29.3060764 L62.4906703,39.3923478 C64.9331713,38.5522619 67.7553447,39.095436 69.7079458,41.0463217 C72.4373881,43.7691784 72.4373881,48.1826862 69.7079458,50.9072894 C66.9767538,53.6318926 62.5571567,53.6318926 59.8277144,50.9072894 C57.7753837,48.8568509 57.2679873,45.8475616 58.307275,43.3238105 L48.8837003,33.9169434 L48.8819506,58.6724085 C49.5485645,59.0007581 50.1749365,59.4373932 50.7295732,59.9893 C53.4590155,62.7121567 53.4590155,67.123918 50.7295732,69.8520143 C48.0001308,72.5748709 43.5770345,72.5748709 40.8510914,69.8520143 C38.121649,67.123918 38.121649,62.7121567 40.8510914,59.9893 C41.5264534,59.3168819 42.3050443,58.8086387 43.1378742,58.4680633 L43.1378742,33.4838013 C42.3050443,33.1449725 41.5264534,32.6384757 40.8510914,31.9625645 C38.7830139,29.8999002 38.2861154,26.8731455 39.3463988,24.3389152 L29.01301,14.0203539 L1.72033603,41.2628927 C-0.573445342,43.5526073 -0.573445342,47.2640059 1.72033603,49.5537205 L41.5229541,89.284024 C43.8149859,91.571992 47.5312266,91.571992 49.8267576,89.284024 L89.442164,49.7353607 C91.7359453,47.4473927 91.7359453,43.7342475 89.442164,41.4462795 L89.442164,41.4462795 Z" id="Path" fill="#F34F29" fill-rule="nonzero"></path>
                <polygon id="Path" points="3.14462401e-15 0 221 0 221 91 0 91"></polygon>
            </g>
            <g id="github-copy" transform="translate(302.000000, 0.000000)" fill="#000000" fill-rule="nonzero">
                <path d="M50.4997709,0 C25.7339742,0.00102176966 4.6238288,17.8712781 0.656670947,42.1934076 C-3.31048691,66.5155372 11.0362795,90.1106787 34.5307775,97.9038244 C37.0555355,98.3435189 38.0023197,96.8363896 38.0023197,95.5174567 C38.0023197,94.3243231 37.9391503,90.3679264 37.9391503,86.1604336 C25.2521908,88.4839519 21.9700054,83.083426 20.9601022,80.2574642 C19.839492,77.5089962 18.0630712,75.073353 15.7843483,73.1610096 C14.0170177,72.2190223 11.4922597,69.8954538 15.7211788,69.8327551 C18.9983467,70.1865607 21.8960627,72.1085149 23.4848602,74.9821347 C24.879695,77.4751678 27.2144213,79.3133917 29.9736525,80.0910219 C32.7328838,80.868652 35.6897306,80.5217445 38.1914746,79.1268786 C38.4100734,76.5728249 39.5541349,74.1848468 41.410642,72.4075705 C30.1754689,71.1515875 18.4353442,66.8182452 18.4353442,47.6019063 C18.3643869,42.6088489 20.2162344,37.7779959 23.6110981,34.1000891 C22.0673691,29.7605144 22.2479962,24.9981498 24.1160497,20.7866693 C24.1160497,20.7866693 28.3448679,19.4678369 38.0022187,25.9361996 C46.2646815,23.6752961 54.987336,23.6752961 63.2497988,25.9361996 C72.9068971,19.405088 77.1359678,20.7866693 77.1359678,20.7866693 C79.0042749,24.9980916 79.1849056,29.7605534 77.6409194,34.1000891 C81.0460059,37.7717009 82.8994703,42.6067719 82.8166733,47.6019063 C82.8166733,66.8810946 71.0133286,71.1515875 59.7782565,72.4075705 C62.2166303,74.8664748 63.460514,78.2583649 63.1866798,81.7018447 C63.1866798,88.4214542 63.1235104,93.8219801 63.1235104,95.5176577 C63.1235104,96.8364901 64.0702946,98.4064186 66.5950526,97.9040254 C90.0462463,90.0479406 104.327164,66.4485748 100.332839,42.1519818 C96.3385141,17.8553889 75.2446001,0.0128135193 50.4997709,0 Z" id="Path"></path>
            </g>
        </g>
        <text id="GLOSSARY" font-family="Helvetica-Bold, Helvetica" font-size="60" font-weight="bold" fill="#363636">
            <tspan x="233.244141" y="358">GLOSSARY</tspan>
        </text>
        <g id="Group" transform="translate(329.000000, 408.000000)" fill-rule="nonzero">
            <path d="M140,28.3333333 C140,25.3878147 137.884931,23 135.275862,23 L7.72413793,23 C5.1150686,23 3,25.3878147 3,28.3333333 L3,115 L140,115 L140,28.3333333 Z" id="Path" fill="#E6F3FF"></path>
            <path d="M3,114 L3,115.2 C3,117.850967 5.1150686,120 7.72413793,120 L135.275862,120 C137.884931,120 140,117.850967 140,115.2 L140,114 L3,114 Z" id="Path" fill="#4AA5FF"></path>
            <path d="M71,87 L125,87 L125,106.2 C125,108.850967 122.897685,111 120.304348,111 L71,111 L71,87 Z" id="Path" fill="#E6F3FF"></path>
            <path d="M17,87 L66.3043478,87 C68.8976849,87 71,89.1490332 71,91.8 L71,111 L17,111 L17,87 Z" id="Path" fill="#E6F3FF" transform="translate(44.000000, 99.000000) rotate(-180.000000) translate(-44.000000, -99.000000) "></path>
            <path d="M134.9,122 L7.1,122 C3.18055175,121.995318 0.00427825091,118.519656 0,114.230769 L0,28.7692308 C0.00427825091,24.4803437 3.18055175,21.0046815 7.1,21 L134.9,21 C138.819448,21.0046815 141.995722,24.4803437 142,28.7692308 L142,114.230769 C141.995722,118.519656 138.819448,121.995318 134.9,122 Z M7.1,25.6976744 C5.79346685,25.6991171 4.73333333,26.8700667 4.73333333,28.3149502 L4.73333333,114.68505 C4.73333333,116.129933 5.79346685,117.300883 7.1,117.302326 L134.9,117.302326 C136.206711,117.301358 137.266667,116.13013 137.266667,114.68505 L137.266667,28.3149502 C137.266667,26.8698695 136.206711,25.6986417 134.9,25.6976744 L7.1,25.6976744 Z" id="Shape" fill="#21257C"></path>
            <path d="M62,111 L81,111 L81,118.2 C81,120.850967 78.8733526,123 76.25,123 L66.75,123 C64.1266474,123 62,120.850967 62,118.2 L62,111 Z" id="Path" fill="#21257C"></path>
            <path d="M75.7999998,125 L66.2,125 C62.2253483,124.99561 59.0043386,121.736255 59,117.714286 L59,110.428572 C59,109.784422 59.2526293,109.166604 59.7027539,108.711121 C60.1528785,108.255638 60.7634278,107.999827 61.4,108 L80.5999997,108 C81.2366325,107.999627 81.8472966,108.255373 82.2974641,108.7109 C82.7476315,109.166427 83.0003693,109.78436 83,110.428572 L83,117.714286 C82.9956612,121.736255 79.7746515,124.99561 75.7999998,125 L75.7999998,125 Z M63.8,112.857144 L63.8,117.714286 C63.801323,119.054994 64.875065,120.141519 66.2,120.142858 L75.8,120.142858 C77.1251156,120.14196 78.1991128,119.055177 78.1999998,117.714286 L78.1999998,112.857144 L63.8,112.857144 Z" id="Shape" fill="#21257C"></path>
            <path d="M110.923515,89.9235972 L110.923515,89.9235972 C108.770507,92.0766224 105.789141,93.1893878 102.751974,92.9735442 C99.7148082,92.7577005 96.9207741,91.234492 95.0938865,88.7986258 L73,59.3400257 L80.3400522,52 L109.798663,74.0938785 C112.234532,75.9207928 113.757729,78.7148538 113.97355,81.7520382 C114.189371,84.7892227 113.076573,87.7705961 110.923515,89.9235972 L110.923515,89.9235972 Z" id="Path" fill="#4AA5FF"></path>
            <path d="M128.442205,24.8624615 C109.587929,18.2322438 88.7560024,20.2082436 71.4995838,30.2637194 C54.2442846,20.2070529 33.4124204,18.2309892 14.5589728,24.8624615 C11.8005422,25.8939786 9.98082404,28.5277187 10.0001525,31.4603736 L10.0001525,99.2292254 C9.98546351,102.212065 11.8915769,104.86915 14.7310537,105.823795 C14.7035311,107.715589 15.4386202,109.539514 16.7720614,110.888005 C18.1055026,112.236495 19.926151,112.997151 21.8271732,113 L121.172846,113 C123.07378,112.997187 124.894363,112.236621 126.227796,110.888245 C127.561229,109.539869 128.296373,107.716068 128.268965,105.82436 C131.108447,104.869375 133.014487,102.212155 132.999857,99.2292019 L132.999857,31.4603736 C133.018572,28.5282571 131.199662,25.8950163 128.442205,24.8624615 Z M14.7310537,31.4603736 C14.7082197,30.5060215 15.2846529,29.63837 16.1759183,29.2855526 C33.7131244,23.1316393 53.0828206,24.9706467 69.1346364,34.3135858 L69.1346364,106.64108 C53.3878362,98.3300579 35.0030424,96.4658173 17.8956628,101.445385 C17.1709193,101.707576 16.3631649,101.600638 15.7324919,101.159005 C15.1018189,100.717371 14.7278697,99.9968119 14.7310537,99.2293431 L14.7310537,31.4603736 Z M19.4618001,105.937499 C33.3209268,101.906274 48.1510339,102.737395 61.4678233,108.291635 L21.8271732,108.291635 C20.521391,108.290337 19.4631561,107.237172 19.4618001,105.937593 L19.4618001,105.937499 Z M121.172846,108.291635 L81.5300432,108.291635 C94.8469491,102.741549 109.671776,101.896652 123.538514,105.897503 C123.548226,106.528544 123.303537,107.13722 122.858939,107.587241 C122.414341,108.037262 121.806978,108.291032 121.172846,108.291729 L121.172846,108.291635 Z M128.268965,99.2291313 C128.272545,99.9967493 127.898715,100.717594 127.26795,101.159358 C126.637184,101.601123 125.829215,101.707966 125.104427,101.445456 C107.996396,96.4727805 89.6142426,98.3367255 73.8653827,106.64108 L73.8653827,34.3135858 C89.9177342,24.9709665 109.287663,23.1320547 126.82526,29.2857644 C127.716172,29.6387105 128.292164,30.5063091 128.268965,31.4603736 L128.268965,99.2291313 Z" id="Shape" fill="#21257C"></path>
            <circle id="Oval" fill="#4AA5FF" cx="60" cy="39" r="37"></circle>
            <path d="M88,39.5000237 C88,46.7934709 85.0950127,53.7881975 79.9241022,58.9454434 C74.7531917,64.1026894 67.739932,67 60.4271602,67 C23.8523839,65.5515119 23.8627639,13.4430157 60.4273977,12 C75.655377,12 88,24.3122856 88,39.5000237 Z" id="Path" fill="#E6F3FF"></path>
            <path d="M58,52.5 C57.9977662,51.8362812 58.2604349,51.1990912 58.7297616,50.7297634 C59.1990883,50.2604355 59.8362768,49.9977662 60.5,50 L60.5,50 C61.1636644,49.9979674 61.8007358,50.2607014 62.2700187,50.7299855 C62.7393016,51.1992695 63.002035,51.8363424 63,52.5 L63,52.5 C62.9964708,53.8792555 61.8792463,54.9964826 60.5,55 L60.5,55 C59.1205742,54.9969204 58.0030939,53.8794375 58,52.5 L58,52.5 Z" id="Path" fill="#4AA5FF"></path>
            <path d="M115.955148,81.3226554 C115.693182,77.6186144 113.840753,74.2113295 110.878614,71.9850814 L93.9995201,59.2828879 C109.558784,33.849804 90.1235679,-0.423670533 60.2281529,0.00396264373 C38.5747969,0.0284891867 21.0275959,17.6347733 21.0039201,39.3602672 C20.5772817,69.514283 55.0655071,88.99446 80.396288,73.0536193 L93.0035424,89.9220017 C100.434051,100.068681 116.972075,93.8784972 115.955148,81.3226554 Z M25.7275515,39.3602909 C25.7492082,20.2511454 41.1830485,4.76535807 60.2287434,4.74297522 C106.000567,6.64583148 105.987247,72.0815986 60.2284836,73.9776065 C41.1828863,73.955067 25.7492079,58.4693148 25.7275515,39.3602672 L25.7275515,39.3602909 Z M108.906711,87.941088 C107.249737,89.5795991 104.970384,90.4238573 102.649746,90.2586285 C100.329108,90.0933998 98.191422,88.9346496 96.7816682,87.0777884 L84.2960946,70.3719427 C86.9428292,68.2973622 89.3150378,65.8925569 91.355302,63.2157339 L108.046254,75.7757701 C109.89735,77.1899188 111.052568,79.3347735 111.217264,81.6632789 C111.38196,83.9917843 110.540212,86.2788278 108.906711,87.941088 L108.906711,87.941088 Z" id="Shape" fill="#21257C"></path>
            <path d="M60.3445206,48 C58.2833427,47.9285763 57.8421856,46.120008 58.0085189,44.3687248 C57.9990545,41.3661228 59.6814779,38.6188362 62.3475753,37.2833316 L64.7715561,36.063685 C66.7150704,35.0177382 67.7243051,32.7892616 67.2357055,30.6226322 C66.747106,28.4560028 64.881529,26.8871441 62.6807092,26.7921039 L60.3445673,26.7921039 C57.7653585,26.7950777 55.6752318,28.9033656 55.6722837,31.5049854 C55.6474394,32.7885095 54.6087831,33.8159041 53.3360731,33.8158656 C52.0633631,33.8158271 51.0247679,32.7883696 51,31.504844 C51.116994,24.9830172 56.5782161,21.4120669 62.6807092,22.079458 C72.5241362,22.0111213 75.5990829,35.9443077 66.8610714,40.2795696 L64.4373477,41.4991455 C63.3581709,42.040623 62.6771849,43.1529859 62.680569,44.3687719 C62.8408517,46.1207385 62.4192248,47.9235335 60.3445206,48 Z" id="Path" fill="#4AA5FF"></path>
        </g>
        <g id="git" transform="translate(661.000000, 9.000000)">
            <path d="M46.8658496,11.2380575 C45.1623498,11.2380575 43.8939053,12.0891281 43.8939053,14.1376499 C43.8939053,15.6808485 44.7297841,16.7522856 46.7743573,16.7522856 C48.5071097,16.7522856 49.6846843,15.7131436 49.6846843,14.073693 C49.6846843,12.2157755 48.6309666,11.2380575 46.8658496,11.2380575 L46.8658496,11.2380575 Z M43.4607172,25.7011913 C43.0574041,26.2046147 42.6553359,26.7397 42.6553359,27.3710373 C42.6553359,28.6305458 44.2337339,29.0092215 46.4027864,29.0092215 C48.1984009,29.0092215 50.6450424,28.8813076 50.6450424,27.1823327 C50.6450424,26.1723196 49.4674678,26.1102624 47.9805621,26.0152768 L43.4607172,25.7011913 Z M52.6255087,11.3330431 C53.1825537,12.0580995 53.7719634,13.0662128 53.7719634,14.5156924 C53.7719634,18.0124273 51.0776081,20.0603158 47.1764255,20.0603158 C46.1843252,20.0603158 45.2862067,19.9349349 44.7291617,19.7772589 L43.7071863,21.4471049 L46.7413702,21.6351763 C52.0989611,21.9828234 55.257002,22.1404995 55.257002,26.3293624 C55.257002,29.9533779 52.1300809,32 46.7413702,32 C41.1360655,32 39,30.5505204 39,28.0625322 C39,26.6440812 39.6199071,25.8898959 40.7034998,24.848221 C39.680902,24.4087545 39.3410734,23.6216409 39.3410734,22.7705703 C39.3410734,22.0771758 39.6815244,21.4471049 40.2391918,20.8480627 C40.7968593,20.2502869 41.416144,19.6506115 42.1586633,18.9578502 C40.6412601,18.2017651 39.4960502,16.563581 39.4960502,14.231369 C39.4960502,10.6086199 41.8493321,8.12063165 46.5870158,8.12063165 C47.9189448,8.12063165 48.7249485,8.24537935 49.436348,8.43598369 L55.4754632,8.43598369 L55.4754632,11.1133099 L52.6255087,11.3330431 L52.6255087,11.3330431 Z M60.9233016,5.60858036 C59.1575621,5.60858036 58.1355867,4.56817192 58.1355867,2.77167847 C58.1355867,0.977717972 59.1575621,0 60.9233016,0 C62.7195385,0 63.7408917,0.977084735 63.7408917,2.77167847 C63.7415139,4.56817192 62.7195385,5.60858036 60.9233016,5.60858036 Z M56.9275147,24.5423675 L56.9275147,22.0543792 L58.50778,21.8340127 C58.9409681,21.770689 59.0025853,21.6763367 59.0025853,21.2026754 L59.0025853,11.9403174 C59.0025853,11.59457 58.9104706,11.372937 58.5998947,11.279218 L56.9275147,10.6801757 L57.2679657,8.12949697 L63.6792742,8.12949697 L63.6792742,21.2033087 C63.6792742,21.7086318 63.7091492,21.770689 64.174702,21.834646 L65.7543448,22.0550125 L65.7543448,24.5430008 L56.9275147,24.5430008 L56.9275147,24.5423675 Z M78,23.32022 C76.6674487,23.9806863 74.7174798,24.5803617 72.9511179,24.5803617 C69.2665294,24.5803617 67.8736056,23.0694582 67.8736056,19.5074999 L67.8736056,11.2532552 C67.8736056,11.0651838 67.8736056,10.9385364 67.6252693,10.9385364 L65.458084,10.9385364 L65.458084,8.13456287 C68.1841815,7.81857759 69.2671518,6.43242174 69.6076028,2.99837733 L72.5502944,2.99837733 L72.5502944,7.47346341 C72.5502944,7.69319666 72.5502944,7.78881545 72.7980083,7.78881545 L77.1641212,7.78881545 L77.1641212,10.9391697 L72.5502944,10.9391697 L72.5502944,18.4683579 C72.5502944,20.3269086 72.9841049,21.0513318 74.6558625,21.0513318 C75.5241059,21.0513318 76.4209796,20.8315985 77.1641212,20.5479083 L78,23.32022 L78,23.32022 Z" id="Shape" fill="#31251C" fill-rule="nonzero"></path>
            <path d="M32.3772539,15.0299695 L17.9690664,0.622277028 C17.140005,-0.207425676 15.7941261,-0.207425676 14.9644314,0.622277028 L11.9724635,3.61427365 L15.7668919,7.40937182 C16.6497884,7.11169223 17.6606226,7.31120089 18.3636464,8.01486479 C19.0704703,8.72232885 19.2687104,9.74203981 18.9634334,10.6274783 L22.6210571,14.2851371 C23.5052204,13.9804906 24.5268216,14.1774658 25.2336455,14.8849299 C26.221679,15.8723394 26.221679,17.4728423 25.2336455,18.4608852 C24.2449787,19.4489281 22.6451246,19.4489281 21.6570912,18.4608852 C20.914166,17.7173195 20.7304932,16.6260388 21.1067059,15.7108324 L17.6954571,12.2995509 L17.6948238,21.2768075 C17.9361319,21.3958793 18.1628729,21.5542195 18.3636464,21.7543616 C19.3516798,22.7417711 19.3516798,24.3416406 18.3636464,25.3309502 C17.375613,26.3183598 15.7744921,26.3183598 14.7877254,25.3309502 C13.799692,24.3416406 13.799692,22.7417711 14.7877254,21.7543616 C15.0322003,21.5105176 15.3140432,21.3262096 15.6155201,21.2027043 L15.6155201,12.1424774 C15.3140432,12.0196054 15.0322003,11.8359308 14.7877254,11.5908201 C14.0391001,10.842821 13.8592273,9.74520661 14.2430403,8.82620003 L10.5024471,5.08430417 L0.622746073,14.9634666 C-0.207582024,15.7938027 -0.207582024,17.1396945 0.622746073,17.9700305 L15.0309336,32.377723 C15.8606284,33.2074257 17.2058739,33.2074257 18.0368353,32.377723 L32.3772539,18.0359 C33.207582,17.2061973 33.207582,15.8596722 32.3772539,15.0299695 L32.3772539,15.0299695 Z" id="Path" fill="#F34F29" fill-rule="nonzero"></path>
            <polygon id="Path" points="1.12409637e-15 0 79 0 79 33 0 33"></polygon>
        </g>
        <g id="github-copy" transform="translate(748.000000, 3.000000)" fill="#000000" fill-rule="nonzero">
            <path d="M22.9998956,0 C11.7204239,0.000469179946 2.10590223,8.20619911 0.299077857,19.3745239 C-1.50774651,30.5428487 5.02642435,41.3773525 15.7268887,44.9558377 C16.8767785,45.1577383 17.3079872,44.4656891 17.3079872,43.8600567 C17.3079872,43.3121892 17.279217,41.4954764 17.279217,39.5634644 C11.5009978,40.6303861 10.0061411,38.1505528 9.54618516,36.8529173 C9.03580825,35.5908656 8.22674528,34.472458 7.1889111,33.5943411 C6.38398825,33.161796 5.23409847,32.0948512 7.16014086,32.066061 C8.65271236,32.2285228 9.97246422,33.1110528 10.6960749,34.4305721 C11.3313462,35.5753322 12.3946869,36.4194146 13.6513665,36.7764896 C14.9080461,37.1335647 16.2547288,36.9742705 17.3941369,36.3337708 C17.4936968,35.160991 18.0147545,34.0644705 18.8602924,33.2483742 C13.7432829,32.6716473 8.39629538,30.6818473 8.39629538,21.8580182 C8.36397821,19.5652878 9.20739391,17.3470389 10.7535694,15.6582042 C10.0504849,13.6655423 10.1327507,11.4787423 10.9835474,9.54489918 C10.9835474,9.54489918 12.9095438,8.93931288 17.3079412,11.9094794 C21.0710431,10.8713094 25.0437372,10.8713094 28.806839,11.9094794 C33.2051215,8.9104996 35.1312329,9.54489918 35.1312329,9.54489918 C35.982145,11.4787155 36.0644125,13.6655602 35.3612108,15.6582042 C36.9120423,17.3441484 37.7561944,19.564334 37.7184849,21.8580182 C37.7184849,30.7107067 32.3427041,32.6716473 27.2257406,33.2483742 C28.336287,34.3774629 28.9028084,35.9349635 28.7780918,37.5161532 C28.7780918,40.6016882 28.7493216,43.0815215 28.7493216,43.8601489 C28.7493216,44.4657352 29.1805302,45.1866208 30.33042,44.95593 C41.0111617,41.3485442 47.5153422,30.5121007 45.6961446,19.3555019 C43.876947,8.19890308 34.2698179,0.00588375885 22.9998956,0 Z" id="Path"></path>
        </g>
    </g>
</svg>