<?xml version="1.0" encoding="UTF-8"?>
<svg width="800px" height="600px" viewBox="0 0 800 600" version="1.1" xmlns="http://www.w3.org/2000/svg" xmlns:xlink="http://www.w3.org/1999/xlink">
    <title>2041-10-17-18-10_RequestForReviewandMerge—PullRequest</title>
    <defs>
        <path d="M8.68744595,14.5405413 C10.6544909,13.5649687 12,11.5915112 12,9.31636202 C12,6.07252388 9.26504479,3.44227578 5.89152197,3.44227578 C4.52034181,3.44227578 3.25480793,3.87689217 2.23537065,4.61058921 L2.23537065,1.05770107 C2.23537065,0.476155373 1.74046224,0 1.11695169,0 C0.493934821,0 0.0167986821,0.476630104 0.0167986821,1.05770107 L0.0167986821,1.80184219 L0,9.32158406 C-0.0041824725,11.2003327 0.951817666,12.865215 2.41753644,13.8939574 C2.4777647,13.9362085 2.55848043,13.9312238 2.6127846,13.8823265 C2.66758244,13.8334292 2.6779496,13.7558106 2.63746831,13.6950451 C0.724974359,10.8146136 1.16014819,5.53963813 5.89176881,5.53963813 C8.05899866,5.53963813 9.80709909,7.22944376 9.81623206,9.31351363 C9.82240299,10.8599505 9.11620201,12.0365717 8.19549958,12.7781018 C6.36026565,14.2561773 3.64974731,12.6382934 4.49738595,10.4697214 C4.5894562,10.2335427 4.71879884,9.9959397 4.88664808,9.76189723 L5.12361171,9.47705853 C5.19766284,9.39967734 5.25048599,9.29903433 5.2146946,9.19411874 C5.01401603,8.62800181 3.46832203,8.97526767 3.04005964,10.0315445 C3.34292878,9.79631524 3.65986763,9.66433998 3.96940137,9.71489885 C2.38890334,11.275815 3.44141679,13.9563846 5.46005069,14.7513219 C6.40494316,15.1232738 7.55964718,15.0976383 8.68744595,14.5405413" id="path-1"></path>
        <linearGradient x1="28.568518%" y1="104.445731%" x2="78.3472072%" y2="20.6880271%" id="linearGradient-3">
            <stop stop-color="#000F98" offset="0%"></stop>
            <stop stop-color="#00A5FD" offset="100%"></stop>
        </linearGradient>
        <circle id="path-4" cx="145" cy="119" r="13"></circle>
        <mask id="mask-5" maskContentUnits="userSpaceOnUse" maskUnits="objectBoundingBox" x="0" y="0" width="26" height="26" fill="white">
            <use xlink:href="#path-4"></use>
        </mask>
        <linearGradient x1="78.4549092%" y1="0%" x2="21.5450908%" y2="100%" id="linearGradient-6">
            <stop stop-color="#00C6FF" offset="0.0491695804%"></stop>
            <stop stop-color="#079DC2" offset="100%"></stop>
        </linearGradient>
    </defs>
    <g id="2041-10-17-18-10_RequestForReviewandMerge—PullRequest" stroke="none" stroke-width="1" fill="none" fill-rule="evenodd">
        <rect fill="#FFFFFF" x="0" y="0" width="800" height="600"></rect>
        <rect id="Rectangle-Copy-7" stroke="#199ABD" fill="#F3FDFF" x="35.5" y="160.5" width="725" height="354"></rect>
        <text id="Request-For-Review-a" fill-rule="nonzero" font-family="Helvetica" font-size="18" font-weight="normal" fill="#0055C2">
            <tspan x="10" y="23">Request For Review and Merge — Pull Request</tspan>
        </text>
        <g id="github-copy" transform="translate(748.000000, 3.000000)" fill="#000000" fill-rule="nonzero">
            <path d="M22.9998956,0 C11.7204239,0.000469179946 2.10590223,8.20619911 0.299077857,19.3745239 C-1.50774651,30.5428487 5.02642435,41.3773525 15.7268887,44.9558377 C16.8767785,45.1577383 17.3079872,44.4656891 17.3079872,43.8600567 C17.3079872,43.3121892 17.279217,41.4954764 17.279217,39.5634644 C11.5009978,40.6303861 10.0061411,38.1505528 9.54618516,36.8529173 C9.03580825,35.5908656 8.22674528,34.472458 7.1889111,33.5943411 C6.38398825,33.161796 5.23409847,32.0948512 7.16014086,32.066061 C8.65271236,32.2285228 9.97246422,33.1110528 10.6960749,34.4305721 C11.3313462,35.5753322 12.3946869,36.4194146 13.6513665,36.7764896 C14.9080461,37.1335647 16.2547288,36.9742705 17.3941369,36.3337708 C17.4936968,35.160991 18.0147545,34.0644705 18.8602924,33.2483742 C13.7432829,32.6716473 8.39629538,30.6818473 8.39629538,21.8580182 C8.36397821,19.5652878 9.20739391,17.3470389 10.7535694,15.6582042 C10.0504849,13.6655423 10.1327507,11.4787423 10.9835474,9.54489918 C10.9835474,9.54489918 12.9095438,8.93931288 17.3079412,11.9094794 C21.0710431,10.8713094 25.0437372,10.8713094 28.806839,11.9094794 C33.2051215,8.9104996 35.1312329,9.54489918 35.1312329,9.54489918 C35.982145,11.4787155 36.0644125,13.6655602 35.3612108,15.6582042 C36.9120423,17.3441484 37.7561944,19.564334 37.7184849,21.8580182 C37.7184849,30.7107067 32.3427041,32.6716473 27.2257406,33.2483742 C28.336287,34.3774629 28.9028084,35.9349635 28.7780918,37.5161532 C28.7780918,40.6016882 28.7493216,43.0815215 28.7493216,43.8601489 C28.7493216,44.4657352 29.1805302,45.1866208 30.33042,44.95593 C41.0111617,41.3485442 47.5153422,30.5121007 45.6961446,19.3555019 C43.876947,8.19890308 34.2698179,0.00588375885 22.9998956,0 Z" id="Path"></path>
        </g>
        <g id="bloovee-winner-logo" transform="translate(725.000000, 580.000000)">
            <path d="M13,13.7751507 C13,14.396312 13.4732558,14.8717809 14.0514961,14.8717809 C14.6474304,14.8717809 15.1204503,14.3968042 15.1204503,13.7751507 L15.1204503,2.09687626 C15.1204503,1.49368045 14.6474304,1 14.0514961,1 C13.4557977,1 13,1.49392656 13,2.09687626 L13,13.7751507 Z M21.7920364,15 C24.6483217,15 26.751078,12.7149437 26.751078,9.97312215 L26.751078,9.93645297 C26.751078,7.17641992 24.6657798,4.92778666 21.8269526,4.92778666 C18.9881254,4.92778666 16.885369,7.212843 16.885369,9.97312215 L16.885369,10.0095452 C16.885369,12.7516128 18.9706673,15 21.7920364,15 Z M21.8269526,13.0621935 C20.179994,13.0621935 19.0055834,11.6547366 19.0055834,9.97312215 L19.0055834,9.93645297 C19.0055834,8.25459244 20.0919958,6.86534709 21.7920364,6.86534709 C23.456689,6.86534709 24.6306277,8.27305008 24.6306277,9.97312215 L24.6306277,10.0095452 C24.6306277,11.6731942 23.5444513,13.0621935 21.8269526,13.0621935 Z M32.8092717,15 C35.665557,15 37.7683133,12.7149437 37.7683133,9.97312215 L37.7683133,9.93645297 C37.7683133,7.17641992 35.6830151,4.92778666 32.8441878,4.92778666 C30.0053606,4.92778666 27.9026043,7.212843 27.9026043,9.97312215 L27.9026043,10.0095452 C27.9026043,12.7516128 29.9879025,15 32.8092717,15 Z M32.8441878,13.0621935 C31.1969933,13.0621935 30.0228187,11.6547366 30.0228187,9.97312215 L30.0228187,9.93645297 C30.0228187,8.25459244 31.109231,6.86534709 32.8092717,6.86534709 C34.4739243,6.86534709 35.647863,8.27305008 35.647863,9.97312215 L35.647863,10.0095452 C35.647863,11.6731942 34.5614506,13.0621935 32.8441878,13.0621935 Z M44.1416963,13.9944275 L47.2261164,6.6096472 C47.2784906,6.49988574 47.3487948,6.28060893 47.3487948,6.07954366 C47.3487948,5.47610175 46.8929971,5.01933658 46.3147568,5.01933658 C45.7539746,5.01933658 45.4737015,5.40300947 45.3158709,5.78692847 L42.8976893,12.2215093 L40.5144239,5.82335156 C40.3393711,5.36634029 40.041404,5.01933658 39.4629278,5.01933658 C38.8846875,5.01933658 38.4116676,5.53098247 38.4116676,6.07954366 C38.4116676,6.28060893 38.4817358,6.46346265 38.534346,6.62785874 L41.6182943,13.9944275 C41.8638872,14.5796579 42.2491448,14.9633308 42.8273851,14.9633308 L42.9326055,14.9633308 C43.5108458,14.9633308 43.8965752,14.5612003 44.1416963,13.9944275 Z M50.0949054,9.27837643 C50.2876522,7.77961573 51.1987758,6.73762019 52.4956289,6.73762019 C53.8974665,6.73762019 54.7036056,7.8524619 54.8437422,9.27837643 L50.0949054,9.27837643 Z M56.070527,13.72027 C56.2281217,13.5558739 56.3508002,13.3181395 56.3508002,13.0439819 C56.3508002,12.5320899 55.9830006,12.1481709 55.5095089,12.1481709 C55.2641519,12.1481709 55.1242513,12.2215093 54.9664207,12.3492362 C54.3704864,12.8611282 53.6695676,13.1901665 52.7759021,13.1901665 C51.4089807,13.1901665 50.3402624,12.3128131 50.1123635,10.7409601 L55.9126964,10.7409601 C56.4560206,10.7409601 56.9115824,10.3021604 56.9115824,9.68050697 C56.9115824,7.45057746 55.4568987,4.92778666 52.513087,4.92778666 C49.8672425,4.92778666 47.9919132,7.19438536 47.9919132,9.95466451 L47.9919132,9.9913337 C47.9919132,12.9708897 50.0597533,15 52.7409859,15 C54.1779755,15 55.2292357,14.5063195 56.070527,13.72027 Z M60.1833231,9.27837643 C60.3763058,7.77961573 61.2871935,6.73762019 62.5842825,6.73762019 C63.9858841,6.73762019 64.7920233,7.8524619 64.9321598,9.27837643 L60.1833231,9.27837643 Z M66.1589447,13.72027 C66.3167752,13.5558739 66.4394537,13.3181395 66.4394537,13.0439819 C66.4394537,12.5320899 66.0714183,12.1481709 65.5981624,12.1481709 C65.3528055,12.1481709 65.2126689,12.2215093 65.0548383,12.3492362 C64.4591399,12.8611282 63.7582212,13.1901665 62.8643197,13.1901665 C61.4976342,13.1901665 60.4289159,12.3128131 60.2007812,10.7409601 L66.0011141,10.7409601 C66.5444382,10.7409601 67,10.3021604 67,9.68050697 C67,7.45057746 65.5455522,4.92778666 62.6015046,4.92778666 C59.9556601,4.92778666 58.0805667,7.19438536 58.0805667,9.95466451 L58.0805667,9.9913337 C58.0805667,12.9708897 60.1484069,15 62.8294035,15 C64.2663932,15 65.3178893,14.5063195 66.1589447,13.72027 L66.1589447,13.72027 Z" id="Fill-1" fill="#030060"></path>
            <g id="Group-4">
                <mask id="mask-2" fill="white">
                    <use xlink:href="#path-1"></use>
                </mask>
                <g id="Clip-3"></g>
                <path d="M8.68744595,14.5405413 C10.6544909,13.5649687 12,11.5915112 12,9.31636202 C12,6.07252388 9.26504479,3.44227578 5.89152197,3.44227578 C4.52034181,3.44227578 3.25480793,3.87689217 2.23537065,4.61058921 L2.23537065,1.05770107 C2.23537065,0.476155373 1.74046224,0 1.11695169,0 C0.493934821,0 0.0167986821,0.476630104 0.0167986821,1.05770107 L0.0167986821,1.80184219 L0,9.32158406 C-0.0041824725,11.2003327 0.951817666,12.865215 2.41753644,13.8939574 C2.4777647,13.9362085 2.55848043,13.9312238 2.6127846,13.8823265 C2.66758244,13.8334292 2.6779496,13.7558106 2.63746831,13.6950451 C0.724974359,10.8146136 1.16014819,5.53963813 5.89176881,5.53963813 C8.05899866,5.53963813 9.80709909,7.22944376 9.81623206,9.31351363 C9.82240299,10.8599505 9.11620201,12.0365717 8.19549958,12.7781018 C6.36026565,14.2561773 3.64974731,12.6382934 4.49738595,10.4697214 C4.5894562,10.2335427 4.71879884,9.9959397 4.88664808,9.76189723 L5.12361171,9.47705853 C5.19766284,9.39967734 5.25048599,9.29903433 5.2146946,9.19411874 C5.01401603,8.62800181 3.46832203,8.97526767 3.04005964,10.0315445 C3.34292878,9.79631524 3.65986763,9.66433998 3.96940137,9.71489885 C2.38890334,11.275815 3.44141679,13.9563846 5.46005069,14.7513219 C6.40494316,15.1232738 7.55964718,15.0976383 8.68744595,14.5405413" id="Fill-2" fill="url(#linearGradient-3)" mask="url(#mask-2)"></path>
            </g>
        </g>
        <g id="Group-2-Copy-11" transform="translate(222.000000, 269.000000)" stroke="#1576ED">
            <circle id="Oval" stroke-width="2" fill="#7BB2FF" cx="13" cy="119" r="12"></circle>
            <circle id="Oval-Copy" stroke-width="2" fill="#7BB2FF" cx="65" cy="162" r="12"></circle>
            <circle id="Oval-Copy-4" stroke-width="2" fill="#FFC159" cx="145" cy="13" r="12"></circle>
            <circle id="Oval-Copy-3" stroke-width="2" fill="#7BB2FF" cx="91" cy="119" r="12"></circle>
            <use id="Oval-Copy-5" mask="url(#mask-5)" stroke-width="4" stroke-dasharray="4" xlink:href="#path-4"></use>
            <line x1="14.5" y1="130.916667" x2="15" y2="161" id="Line-6" stroke-width="2" stroke-linecap="square"></line>
            <line x1="15" y1="161" x2="53.0869565" y2="161.5" id="Line" stroke-width="2" stroke-linecap="round"></line>
            <line x1="91" y1="13" x2="132" y2="13" id="Line-Copy-2" stroke-width="2"></line>
            <line x1="91" y1="109" x2="91" y2="13" id="Line-Copy-4" stroke-width="2"></line>
            <line x1="26.9105991" y1="119.5" x2="78" y2="119.5" id="Line-Copy" stroke-width="2" stroke-linecap="round"></line>
            <line x1="104" y1="119" x2="132" y2="119" id="Line-Copy-3" stroke-width="2" stroke-dasharray="4"></line>
        </g>
        <text id="You-Created-branch-A" font-family="Helvetica-Bold, Helvetica" font-size="21" font-weight="bold" fill="#0055C2">
            <tspan x="66" y="299">You</tspan>
            <tspan x="104.11377" y="299" font-family="Helvetica" font-weight="normal"></tspan>
            <tspan x="66" y="324" font-family="Helvetica" font-weight="normal">Created </tspan>
            <tspan x="66" y="349" font-family="Helvetica" font-weight="normal">branch A and </tspan>
            <tspan x="66" y="374" font-family="Helvetica" font-weight="normal">pushed it to </tspan>
            <tspan x="66" y="399" font-family="Helvetica" font-weight="normal">the remote </tspan>
            <tspan x="66" y="424" font-family="Helvetica" font-weight="normal">repository</tspan>
        </text>
        <text id="Reviewer-—-review-Pu" font-family="Helvetica-Bold, Helvetica" font-size="21" font-weight="bold" fill="#0055C2">
            <tspan x="592" y="299">Reviewer</tspan>
            <tspan x="684.223633" y="299" font-family="Helvetica" font-weight="normal"></tspan>
            <tspan x="592" y="324" font-family="Helvetica" font-weight="normal">— review Pull </tspan>
            <tspan x="592" y="349" font-family="Helvetica" font-weight="normal">Request and </tspan>
            <tspan x="592" y="374" font-family="Helvetica" font-weight="normal">provide feedback</tspan>
            <tspan x="592" y="399" font-family="Helvetica" font-weight="normal">— when the code </tspan>
            <tspan x="592" y="424" font-family="Helvetica" font-weight="normal">is ready to merge, </tspan>
            <tspan x="592" y="449" font-family="Helvetica" font-weight="normal">merge the branch </tspan>
            <tspan x="592" y="474" font-family="Helvetica" font-weight="normal">with the base </tspan>
            <tspan x="592" y="499" font-family="Helvetica" font-weight="normal">branch) </tspan>
        </text>
        <text id="branch-A-(managed-by" font-family="Helvetica" font-size="21" font-weight="normal" fill="#0055C2">
            <tspan x="388" y="274"> branch A </tspan>
            <tspan x="388" y="299">(managed by you)</tspan>
        </text>
        <text id="Pull-Request" font-family="Helvetica-Bold, Helvetica" font-size="21" font-weight="bold" fill="#0055C2">
            <tspan x="309" y="195"> Pull Request</tspan>
        </text>
        <text id="Request-to-Merge" font-family="Helvetica" font-size="18" font-weight="normal" fill="#FF6464">
            <tspan x="388" y="337">Request to Merge</tspan>
        </text>
        <text id="master-branch-(manag" font-family="Helvetica" font-size="21" font-weight="normal" fill="#0055C2">
            <tspan x="387" y="388"> master branch</tspan>
            <tspan x="387" y="413">(managed by the </tspan>
            <tspan x="387" y="438">reviewer)</tspan>
        </text>
        <g id="programmer" transform="translate(113.000000, 197.000000)" fill-rule="nonzero">
            <path d="M31,32.7746177 C25.3305583,37.0800409 19.6694417,37.0702112 14,32.7746177 C15.3653281,31.9980687 16.7556317,30.8578196 18.1958864,29 C21.1513222,31.7031767 24.0318315,31.7818146 26.7957884,29 C28.2443683,30.8479899 29.6346719,31.9980687 31,32.7746177 Z" id="Path" fill="#E9E9E9"></path>
            <path d="M46.9344319,58 L0.0655680642,57.9912088 C-0.197842217,52.0835165 0.319895232,46.5098901 1.84585824,41.3230769 C2.51800862,39.0373626 4.27104945,37.1912088 6.5781602,36.3648352 C9.13051499,35.4593407 11.6374542,35.221978 14.2261415,34 C20.4117415,37.8417582 26.5882585,37.8505495 32.7738585,34 C35.3716289,35.221978 37.869485,35.4593407 40.4218398,36.3648352 C42.7289505,37.1824176 44.4819914,39.0373626 45.1541418,41.3230769 C46.6801048,46.5098901 47.1978422,52.0923077 46.9344319,58 Z" id="Path" fill="#7CA3C2"></path>
            <path d="M26.7870281,29 L27,31.3133 C23.78606,33.5943589 20.4269119,33.5298767 17,31.3133 L17.2032914,29 L26.7870281,29 Z" id="Path" fill="#EAB353"></path>
            <path d="M31.9024766,14.5065748 C31.9024766,14.4596118 31.9024766,14.4032561 31.9024766,14.356293 C31.9024766,6.07201002 27.6949126,1 22.5037623,1 C17.3126119,1 13.1050479,6.07201002 13.1050479,14.3469004 C13.1050479,14.3938635 13.1050479,14.4502192 13.1050479,14.4971822 C9.86285577,13.1634314 10.51858,20.3863494 14.0248833,21.1565435 C15.5457993,26.6793989 18.7697769,31 22.5037623,31 C26.2377476,31 29.4617252,26.6793989 30.9735339,21.1659361 C34.4798372,20.395742 35.1355615,13.172824 31.9024766,14.5065748 Z" id="Path" fill="#FFCC66"></path>
            <path d="M14.6359098,17 C14.8476175,14.4387966 14.2401086,12.1295148 15.1513719,10.0973468 C19.3210918,12.826498 23.3435368,12.1211174 28.7835025,8.73696994 C29.2989646,11.3905446 30.2010232,14.9930242 32.0327544,16.588528 C35.7146263,9.93779646 34.0117606,2.43892874 28.7282744,2.58168434 C24.5493499,-1.78495756 18.1889162,-0.323812002 13.6878278,4.79859484 C12.5740616,6.05820308 11.9481434,7.64530947 12.0033715,9.25760801 C12.0954183,11.9783618 12.9698628,14.9426399 13.8903308,16.7480784 L14.6359098,17 Z" id="Path" fill="#5E5E61"></path>
        </g>
        <g id="Group-5-Copy-8" transform="translate(223.000000, 202.000000)" fill="#C5DDFF">
            <rect id="Rectangle" transform="translate(162.500000, 13.500000) rotate(-540.000000) translate(-162.500000, -13.500000) " x="0" y="6" width="325" height="15"></rect>
            <path d="M338.433002,-1.58110681 L350.475478,29.6401279 C350.67423,30.1554105 350.417631,30.7342498 349.902348,30.9330017 C349.787535,30.9772868 349.665534,31 349.542476,31 L325.457524,31 C324.905239,31 324.457524,30.5522847 324.457524,30 C324.457524,29.8769421 324.480237,29.7549411 324.524522,29.6401279 L336.566998,-1.58110681 C336.76575,-2.0963894 337.344589,-2.35298826 337.859872,-2.1542364 C338.123245,-2.05264956 338.331415,-1.8444801 338.433002,-1.58110681 Z" id="Triangle-Copy" transform="translate(337.500000, 13.500000) scale(-1, 1) rotate(-450.000000) translate(-337.500000, -13.500000) "></path>
        </g>
        <g id="Group-5-Copy-8" transform="translate(367.000000, 337.000000) rotate(-270.000000) translate(-367.000000, -337.000000) translate(331.000000, 324.000000)" fill="#FF6464">
            <rect id="Rectangle" transform="translate(25.500000, 12.500000) rotate(-540.000000) translate(-25.500000, -12.500000) " x="0" y="8" width="51" height="9"></rect>
            <path d="M60.879292,2.62330825 L72.2003466,23.5237169 C72.4633905,24.0093364 72.2829574,24.616248 71.7973378,24.879292 C71.651086,24.9585117 71.4873837,25 71.3210547,25 L48.6789453,25 C48.1266606,25 47.6789453,24.5522847 47.6789453,24 C47.6789453,23.8336709 47.7204336,23.6699687 47.7996534,23.5237169 L59.120708,2.62330825 C59.383752,2.1376887 59.9906636,1.95725551 60.4762831,2.22029943 C60.6468677,2.31269941 60.786892,2.45272367 60.879292,2.62330825 Z" id="Triangle-Copy" transform="translate(60.000000, 13.000000) scale(-1, 1) rotate(-450.000000) translate(-60.000000, -13.000000) "></path>
        </g>
        <g id="web-designer" transform="translate(648.000000, 197.000000)" fill-rule="nonzero">
            <path d="M48.9700461,41.0846561 L34.0714286,35 L34.0714286,35 L33.5829493,37.1904762 L32.3617512,42.3015873 C32.2396313,42.7883598 31.6290323,42.9100529 31.3847926,42.5449735 L26.5,37.5555556 L26.5,37.5555556 L21.7373272,42.6666667 C21.3709677,43.031746 20.8824885,42.9100529 20.7603687,42.4232804 L19.5391705,37.3121693 L18.9285714,35 L18.9285714,35 L4.02995392,41.0846561 C1.5875576,42.0582011 0,44.4920635 0,47.047619 L0,55.6878307 C0,57.026455 1.09907834,58 2.3202765,58 L50.6797235,58 C52.0230415,58 53,56.9047619 53,55.6878307 L53,47.047619 C53,44.4920635 51.4124424,42.0582011 48.9700461,41.0846561 Z" id="Path" fill="#444445"></path>
            <path d="M34,29 L34,32.375 L26.5,38 L19,32.375 L19,29 C19.2419355,29.25 19.483871,29.375 19.6048387,29.5 L23.4758065,32.25 C23.8387097,32.5 24.3225806,32.75 24.8064516,32.75 L28.0725806,32.75 C28.5564516,32.75 29.0403226,32.625 29.4032258,32.25 L33.2741935,29.5 C33.516129,29.375 33.7580645,29.125 34,29 Z" id="Path" fill="#F7BA49"></path>
            <path d="M35.9137931,7.38938053 L28.4310345,5 L20.3448276,5.47787611 L17.3275862,8.5840708 L16,11.8097345 L16,21.9646018 C16,24.7123894 17.3275862,27.340708 19.6206897,28.8938053 L23.362069,31.5221239 C23.7241379,31.7610619 24.2068966,32 24.8103448,32 L28.0689655,32 C28.5517241,32 29.0344828,31.880531 29.3965517,31.5221239 L33.2586207,28.8938053 C35.5517241,27.340708 37,24.7123894 37,21.9646018 L37,11.0929204 L35.9137931,7.38938053 Z" id="Path" fill="#FFCB66"></path>
            <path d="M34,32 L34,34.9748378 L33.516129,37.3299178 L32.3064516,42.535884 C32.1854839,43.0316903 31.5806452,43.1556419 31.3387097,42.7837872 L26.5,37.5778209 L34,32 Z M26.5,37.5778209 L21.7822581,42.7837872 C21.4193548,43.1556419 20.9354839,43.0316903 20.8145161,42.535884 L19.6048387,37.3299178 L19,34.9748378 L19,32 L26.5,37.5778209 Z" id="Shape" fill="#E5E5E4"></path>
            <path d="M35.4136852,4.93975904 C35.4136852,4.93975904 32.8935195,-0.843373494 26.5331013,0.602409639 C26.5331013,0.602409639 21.372762,0.602409639 19.5726437,0 C19.5726437,0 19.5726437,1.20481928 20.5327068,2.28915663 C20.5327068,2.28915663 9.13195719,4.81927711 16.4524385,20 C16.4524385,20 14.772328,6.02409639 24.4929672,8.07228916 C24.4929672,8.07228916 26.4130934,11.3253012 31.5734327,8.91566265 C31.5734327,8.91566265 36.733772,7.22891566 36.733772,12.0481928 L36.9737878,20 C37.0937957,20 44.6542928,8.79518072 35.4136852,4.93975904 Z" id="Path" fill="#EA715F"></path>
        </g>
        <g id="Group-Copy-4" transform="translate(23.000000, 132.000000)" fill-rule="nonzero">
            <path d="M42.7710454,6.80909971 C41.162748,2.3285576 31.2816332,0 21.5106758,0 C11.7397184,0 1.96876101,2.30648596 0.272337742,6.7428848 C0.0996847698,7.00482588 0.0077439811,7.31185389 0.00796008981,7.62575024 L0.00796008981,48.3810261 C-0.00265336327,48.4689925 -0.00265336327,48.5579194 0.00796008981,48.6458858 C0.0026270321,48.7230441 0.0026270321,48.8004796 0.00796008981,48.8776379 C0.00796008981,54.207938 10.8254124,57 21.5106758,57 C32.1959393,57 42.9913601,54.207938 42.9913601,48.8776379 C42.9966887,48.8041627 42.9966887,48.7303969 42.9913601,48.6569216 C43.00288,48.5653185 43.00288,48.4726292 42.9913601,48.3810261 L42.9913601,7.62575024 C42.9969842,7.33807698 42.9205538,7.05476882 42.7710454,6.80909971 Z" id="Path" fill="url(#linearGradient-6)"></path>
            <path d="M21.4979885,0 C35.4219291,0 42.9895712,3.95423341 42.9895712,5.98627002 C43.0034763,6.04950499 43.0034763,6.11525474 42.9895712,6.1784897 C42.5336892,8.26544622 34.9530218,12 21.4979885,12 C8.04295525,12 0.462287908,8.22425629 0.00640585121,6.1784897 C-0.00213528374,6.12854899 -0.00213528374,6.07740067 0.00640585121,6.02745995 C0.00640585121,3.95423341 7.574048,0 21.4979885,0 Z" id="Path" fill="#A1E0E9"></path>
        </g>
        <g id="Group-3-Copy" transform="translate(80.000000, 132.000000)" fill-rule="nonzero">
            <g id="Group-2-Copy" transform="translate(0.000000, 16.000000)">
                <path d="M50,23.1785352 C50,28.8194065 45.665646,33.4090909 40.3364591,33.4090909 L11.1341698,33.4090909 C8.5806126,33.4225193 6.12618779,32.3445054 4.30888518,30.4110861 C2.49005749,28.516171 1.46533193,25.9049269 1.47058824,23.1785352 C1.47058824,18.8908509 3.97983989,15.0905212 7.75616386,13.6014971 C9.60769644,5.72023676 16.1251506,0.150095124 23.6673767,0.00298050416 C31.2096028,-0.144134115 37.9098031,5.16819104 40.024732,12.9720837 C40.2171561,12.9586037 40.3278,12.9586037 40.3364591,12.9586037 C40.4807772,12.9586037 40.6250953,12.9586037 40.7674892,12.968973 C43.1670269,13.0697621 45.4456616,14.1303794 47.1588574,15.9439104 C48.9751265,17.8418308 50,20.4520283 50,23.1785352 Z" id="Path" fill="#C5DDFF"></path>
                <path d="M7.35294118,12.7272727 C7.27515187,13.0579673 7.20106682,13.3886619 7.13439028,13.7282942 C6.7121055,13.9159857 6.29722922,14.1081461 5.88235294,14.3181818 C6.35649726,13.7670242 6.84669334,13.2367211 7.35294118,12.7272727 Z" id="Path" fill="#607D8B"></path>
                <path d="M30.8823529,15.8713367 C31.579855,15.1484986 32.4156613,14.5297983 33.3549878,14.0409845 C34.3080877,13.5454464 35.3487473,13.1822071 36.4374859,12.9650472 C38.651798,12.5340348 40.9692933,12.6916306 43.0738961,13.4163404 C45.1779542,14.130402 46.9837181,15.3577502 48.261738,16.9424317 C48.8890007,17.7261897 49.3626918,18.5904998 49.6645378,19.5020195 C49.9587267,20.4030927 50.0606321,21.3413603 49.9654647,22.2727273 C49.7854072,20.4617689 48.9907066,18.7334663 47.6770474,17.2959124 C46.3891271,15.8872213 44.6809563,14.7944539 42.728345,14.130081 C40.7802625,13.4617121 38.6514734,13.2632655 36.5782236,13.5567643 C34.46484,13.871842 32.4944417,14.6725325 30.8823529,15.8713367 L30.8823529,15.8713367 Z" id="Path" fill="#7BB2FF"></path>
                <path d="M5.88235294,15.9199107 C5.98360437,15.8650888 6.08574398,15.8124168 6.18965992,15.7608198 C6.08663215,15.8113419 5.98360437,15.8650888 5.88235294,15.9199107 Z M7.0138821,13.7671743 C7.08138306,13.5668079 7.15302881,13.3664415 7.22881936,13.1660751 C7.15302881,13.3631021 7.08138306,13.5634684 7.0138821,13.7671743 Z M11.7647059,6.36363636 C11.6302961,6.48652775 11.4976626,6.61175674 11.3668055,6.73932333 C11.4964784,6.61409434 11.6323685,6.48686169 11.7647059,6.36363636 Z" id="Shape" fill="#55717C"></path>
                <path d="M45.5882353,32.0715643 C43.7782561,33.9579152 41.3854062,35.0056565 38.9003717,35 L9.67214461,35 C7.89005662,35.006812 6.14063949,34.4701705 4.61556118,33.4488052 C4.53531324,33.3947539 4.45634926,33.3399914 4.37866925,33.2845178 C4.30066825,33.2290441 4.22266725,33.1714368 4.14562922,33.1127627 C4.0685912,33.0540886 3.99733102,32.9975481 3.92510788,32.938874 L3.91740407,32.9324732 C3.84132902,32.8716655 3.76717992,32.8087242 3.69303082,32.7447161 C3.61888172,32.680708 3.5533994,32.622034 3.48406518,32.5590927 L3.45228699,32.530289 C3.40317525,32.4844166 3.35598946,32.4396109 3.30687772,32.3916048 L3.22213589,32.3105279 C3.1826539,32.272123 3.14509786,32.234785 3.10657885,32.1942465 C3.01702214,32.1046352 2.92842841,32.0107566 2.84079766,31.9158113 C1.02035446,29.9662983 -0.00528127204,27.2798169 0,24.4748702 C0,24.3927264 0,24.3105827 0,24.2295058 C0,24.1750989 0,24.1228256 0,24.0630847 C0,23.9254673 0.0115761565,23.7910503 0.0221688851,23.6544997 C0.0221688851,23.5872912 0.0317986383,23.5190159 0.0385394656,23.4518074 C0.0452802929,23.3845989 0.0481692188,23.3451273 0.0549100461,23.2843196 C0.0616508734,23.2235119 0.0683917006,23.1541698 0.0770584786,23.0890949 C0.100169886,22.8942258 0.128738154,22.7007791 0.162763282,22.5087548 C0.170467085,22.4618155 0.179133863,22.4170099 0.187800641,22.3700706 C0.204171221,22.2836597 0.221504777,22.1983155 0.237875358,22.1129714 C0.251357012,22.0542973 0.263875692,21.9956232 0.277357346,21.938016 C0.290839001,21.8804087 0.306246606,21.8132002 0.321654211,21.7513257 C0.33224694,21.70652 0.342839668,21.6638479 0.354395372,21.6211759 C0.365951076,21.5785038 0.375580829,21.540099 0.387136533,21.4984937 C0.398692237,21.4568884 0.412173892,21.4067488 0.425655546,21.3598095 C0.439137201,21.3128702 0.449729929,21.2755322 0.463211584,21.2339269 C0.521632087,21.0369242 0.585830442,20.8424107 0.655806649,20.6503864 C0.676992106,20.5906455 0.699140538,20.5309047 0.721288971,20.4722306 C0.743437403,20.4135565 0.765585836,20.3538156 0.789660219,20.2951415 C0.813734602,20.2364674 0.835883034,20.1777933 0.860920393,20.120186 C0.885957751,20.0625788 0.909069159,20.0039047 0.935069493,19.9473642 C0.961069827,19.8908237 0.98514421,19.8321496 1.01210752,19.7756091 C1.03907083,19.7190686 1.06410819,19.6614614 1.09203447,19.6059877 C1.11996076,19.550514 1.14596109,19.4929067 1.17485035,19.437433 C1.23070292,19.3307529 1.28848144,19.2144715 1.34818591,19.1045909 C1.40789038,18.9947104 1.46374295,18.8986982 1.52248444,18.7973521 C1.71597688,18.4704645 1.92558123,18.1556364 2.15034435,17.8542994 C2.18212254,17.8105606 2.21390072,17.7689553 2.24664188,17.7262833 C2.36797678,17.573375 2.49284258,17.4243784 2.62123929,17.2792934 C2.65301747,17.2419553 2.68383268,17.2067509 2.71753682,17.1726132 C2.83180989,17.0431746 2.94961387,16.917292 3.07094876,16.7949655 L3.16243142,16.7032205 C3.30816168,16.5609803 3.45806484,16.4212293 3.6121409,16.2839675 L3.70843843,16.2018238 C3.78932835,16.1335485 3.87214423,16.0652732 3.95496011,15.9991315 C3.99347912,15.9681942 4.03199814,15.9383238 4.07051715,15.9095201 C4.15622195,15.8423116 4.24385271,15.7772367 4.33148346,15.7132286 C4.37578033,15.6801578 4.42200314,15.6492205 4.46822596,15.6172165 L4.58859787,15.5350728 L4.68489541,15.4731983 C4.73400715,15.4401274 4.78119294,15.4081234 4.83415658,15.3771861 L4.85149014,15.3665181 C4.89867593,15.3355809 4.94778767,15.3067772 4.99593644,15.2779736 C5.0440852,15.2491699 5.10090075,15.2150323 5.15386439,15.1851618 L5.31371829,15.0944837 L5.47549815,15.0080728 L5.64016693,14.9237955 C5.74994612,14.8693886 5.86068828,14.8171153 5.97335639,14.7659088 C6.0860245,14.7147023 6.19002584,14.6698967 6.29884205,14.625091 C6.31713858,14.5450809 6.33639809,14.4661376 6.35565759,14.3861275 C6.38454685,14.2687793 6.41343611,14.1503643 6.44425132,14.0351497 C6.47506654,13.9199352 6.50588175,13.8015202 6.54054886,13.6852388 C6.57521597,13.5689574 6.60603118,13.4537429 6.63684639,13.3385283 C6.6676616,13.2233137 6.70618061,13.1102327 6.74277368,12.9982186 C6.74319123,12.99611 6.74319123,12.9939263 6.74277368,12.9918178 C6.77840376,12.8851376 6.81307087,12.7784574 6.85062691,12.6717773 C6.85062691,12.6643097 6.85062691,12.6557753 6.85833071,12.6472408 C6.93280081,12.4338805 7.01048082,12.2205202 7.09137074,12.0071599 L7.11159322,11.9548866 C7.14722331,11.8631417 7.1828534,11.7713967 7.22040944,11.6807186 L7.24640977,11.6167105 C7.28107688,11.5324332 7.31574399,11.4481559 7.35137408,11.3638785 L7.38604119,11.2838684 C7.42552318,11.1931903 7.46404219,11.1035789 7.50448716,11.0139676 L7.52470964,10.9680951 C7.56996948,10.8678158 7.61619229,10.7675364 7.66241511,10.6683239 C7.70863793,10.5691113 7.75871264,10.468832 7.80493546,10.3696194 L7.84441745,10.2906761 C7.87908456,10.2224008 7.91182572,10.1541255 7.94841878,10.086917 C7.97249316,10.0378441 7.99656755,9.98877127 8.02353086,9.94076519 C8.05049417,9.89275912 8.0880502,9.81594941 8.11982839,9.75407491 C8.13427302,9.72740488 8.14871765,9.70073484 8.16316228,9.6740648 C8.20842212,9.58765387 8.25945981,9.50230974 8.30471965,9.41696561 C8.34997949,9.33162148 8.40101718,9.24627735 8.4510919,9.16093323 C8.48961091,9.09585833 8.52716695,9.02971663 8.56664894,8.96570853 L8.63116829,8.85902837 C8.6658354,8.80248789 8.70050251,8.74594741 8.7361326,8.69047372 C8.77176268,8.63500004 8.80450385,8.58379356 8.84013393,8.52618628 C8.87576402,8.46857899 8.88731972,8.45151016 8.91235708,8.41310531 C8.95183907,8.35123081 8.99228403,8.28722272 9.03465495,8.22641503 L9.08569264,8.14960531 C9.13287843,8.07812961 9.18199017,8.0066539 9.23013894,7.93624499 C9.32451052,7.80040559 9.42080805,7.66527739 9.51903154,7.53086039 C9.56236543,7.4711195 9.60666229,7.41137861 9.65095916,7.35163772 C9.74982462,7.22006552 9.85093703,7.08920452 9.95429638,6.95905473 C9.9966673,6.90464785 10.0400012,6.85237457 10.0842981,6.79690089 L10.12378,6.74889481 C10.1854105,6.6731519 10.2480039,6.59740899 10.3105973,6.52273288 L10.3317827,6.49819644 C10.4011169,6.41605272 10.4714141,6.33497579 10.5436373,6.25389887 C10.8739378,5.87838471 11.21772,5.51673897 11.5797987,5.17216205 C11.7216771,5.03632265 11.8654814,4.90297245 12.0112117,4.77211145 C12.1017314,4.69103453 12.193214,4.61209122 12.2846967,4.5331479 C12.2956377,4.5223452 12.3072193,4.51236608 12.3193638,4.50327745 C12.4156613,4.42113373 12.5119588,4.34112361 12.6082564,4.26218029 C12.7045539,4.18323697 12.8075923,4.10216005 12.9087047,4.02321673 L12.9144825,4.02321673 C13.0175209,3.94320661 13.1215222,3.8653301 13.2245606,3.78745358 C13.3275989,3.70957706 13.4344892,3.63490095 13.5394535,3.56022484 C13.7506661,3.41158382 13.9650886,3.2693436 14.182721,3.1335042 C14.2915372,3.0652289 14.4003535,2.9969536 14.5101326,2.9308119 C14.6199118,2.8646702 14.729691,2.7995953 14.8413962,2.73665401 C14.8991747,2.70251636 14.9588791,2.67051231 15.0176206,2.63850826 C15.7408509,2.23005332 16.4897433,1.87994449 17.2584642,1.59090909 C16.9618678,1.82667224 9.29465829,5.77597176 9.60473634,14.0266153 C6.72793849,15.181167 4.39244209,17.5711942 3.12583836,20.6567872 C2.62910449,24.0077672 3.64369986,27.4159865 5.84239175,29.7822081 C7.66077603,31.7709108 10.1166331,32.8799604 12.6718127,32.8663315 L41.9010028,32.8663315 C43.1649327,32.8683273 44.4171865,32.5984094 45.5882353,32.0715643 Z" id="Path" fill="#7BB2FF"></path>
            </g>
            <g id="github-copy-9" transform="translate(25.000000, 0.000000)" fill="#000000">
                <path d="M15.9999274,0 C8.15333836,0.000364917736 1.46497546,6.38259931 0.208054161,15.0690741 C-1.04886714,23.755549 3.49664303,32.1823853 10.9404443,34.9656516 C11.7403677,35.1226853 12.0403389,34.5844248 12.0403389,34.1133774 C12.0403389,33.6872582 12.0203248,32.2742594 12.0203248,30.7715834 C8.00069412,31.6014114 6.96079379,29.6726521 6.64082446,28.6633801 C6.28577965,27.6817844 5.72295324,26.8119118 5.00098164,26.128932 C4.44103531,25.792508 3.64111198,24.9626621 4.98096755,24.9402697 C6.01927816,25.0666288 6.93736642,25.753041 7.44074779,26.7793338 C7.88267565,27.6697028 8.62239089,28.3262113 9.49660279,28.6039364 C10.3708147,28.8816614 11.3076374,28.7577659 12.1002692,28.2595995 C12.1695282,27.3474375 12.5320031,26.4945881 13.1202034,25.8598466 C9.56054461,25.4112813 5.84090113,23.863659 5.84090113,17.0006808 C5.81841963,15.217446 6.40514359,13.4921414 7.48074395,12.1786032 C6.9916417,10.6287551 7.04887007,8.92791065 7.64072862,7.42381047 C7.64072862,7.42381047 8.9805522,6.95279891 12.0403069,9.26292843 C14.6581169,8.45546289 17.4217302,8.45546289 20.0395402,9.26292843 C23.0992149,6.93038858 24.4391185,7.42381047 24.4391185,7.42381047 C25.0310574,8.92788987 25.0882869,10.6287691 24.5991032,12.1786032 C25.6779425,13.4898932 26.2651787,15.2167042 26.238946,17.0006808 C26.238946,23.8861052 22.4992724,25.4112813 18.9396456,25.8598466 C19.7121997,26.7380267 20.1063015,27.949416 20.0195421,29.1792302 C20.0195421,31.5790908 19.999528,33.50785 19.999528,34.1134492 C19.999528,34.5844607 20.2994993,35.1451495 21.0994226,34.9657233 C28.5295038,32.1599788 33.0541511,23.7316338 31.7886223,15.0542792 C30.5230936,6.37692462 23.8398733,0.00457625688 15.9999274,0 Z" id="Path"></path>
            </g>
        </g>
        <g id="trial-copy" transform="translate(4.000000, 570.000000)" fill="#006AE1" fill-rule="nonzero">
            <path d="M24.7390408,0.0712262435 C23.8197062,-0.175854327 23.1591603,0.239201967 22.6859188,1.01735927 C22.6046689,1.15134921 22.52713,1.31717641 22.4478332,1.49316028 C22.1428011,1.2575123 21.7678493,1.130415 21.3824051,1.13201247 C21.3529129,1.13201247 21.3224442,1.13259843 21.2931474,1.134161 L15.1740157,1.4288998 C14.9503832,1.43964243 14.7687429,1.47870655 14.6234306,1.53906062 C14.2647714,1.59678794 13.9347315,1.76994119 13.6833929,2.03224516 L0.468959043,15.8746167 C-0.17420408,16.5457384 -0.153305673,17.6121889 0.516224599,18.2565516 L7.02930103,24.5302495 C7.34177077,24.8320424 7.7593469,25.0004949 8.19375245,25 C8.63515806,25 9.07597773,24.8259649 9.40566475,24.4831773 L22.6199033,10.6400244 C23.0124808,10.2306324 23.3675584,9.67455464 23.2691211,9.15636906 C23.2718554,9.11457045 23.2687304,9.07296716 23.2691211,9.02804342 L23.1146291,2.88735879 C23.1183122,2.59624806 23.0497989,2.30876172 22.9152153,2.0506053 C23.3099413,1.28006549 23.6851361,0.550347698 24.542752,0.780630696 C25.0023217,0.904854604 25.1966573,0.194082907 24.7390408,0.0712262435 Z M8.52812889,13.4245632 L9.32781975,14.170287 L8.29716074,16.7269943 L10.7727157,15.5176743 L11.5754357,16.2662228 L7.51909394,18.1808206 L6.90418013,17.6074042 L8.52812889,13.4245632 Z M10.8555796,8.86713434 L14.7160332,15.2007265 L13.8468014,16.1328635 L9.99486962,9.79013275 L10.8555796,8.86713434 Z M17.1802579,6.51873344 L17.7982008,7.09497455 L16.1742521,11.2778156 L15.3745612,10.5320918 L16.4052202,7.97538454 L13.9296652,9.1847045 L13.1269453,8.43615601 L17.1802579,6.51873344 Z M21.1763507,2.2398705 C21.4058425,2.2398705 21.6355297,2.32542139 21.8136544,2.49691289 C21.8259591,2.50882745 21.8343575,2.52289053 21.8460763,2.53539105 C21.6548656,2.73520403 21.419905,2.85845134 21.1132648,2.82387959 C20.6425624,2.7709477 20.6474452,3.50808768 21.1132648,3.56062893 C21.5214674,3.60652927 21.8320138,3.4873837 22.0857244,3.27643744 C22.062433,3.47297911 21.9760108,3.65665988 21.8394357,3.79989667 C21.6663502,3.98098016 21.4266486,4.08326003 21.1761554,4.0829171 C20.9384391,4.08306483 20.7099506,3.99090921 20.5388516,3.82587432 C20.1727885,3.47281343 20.1612599,2.89015669 20.5130704,2.52289053 C20.686209,2.34188379 20.9258761,2.23961864 21.1763507,2.2398705 Z" id="Shape"></path>
        </g>
    </g>
</svg>