<?xml version="1.0" encoding="UTF-8"?>
<svg width="800px" height="600px" viewBox="0 0 800 600" version="1.1" xmlns="http://www.w3.org/2000/svg" xmlns:xlink="http://www.w3.org/1999/xlink">
    <title>2041-10-16-19-10_Non-Fast-forwardMerge(NoOption)</title>
    <defs>
        <path d="M8.68744595,14.5405413 C10.6544909,13.5649687 12,11.5915112 12,9.31636202 C12,6.07252388 9.26504479,3.44227578 5.89152197,3.44227578 C4.52034181,3.44227578 3.25480793,3.87689217 2.23537065,4.61058921 L2.23537065,1.05770107 C2.23537065,0.476155373 1.74046224,0 1.11695169,0 C0.493934821,0 0.0167986821,0.476630104 0.0167986821,1.05770107 L0.0167986821,1.80184219 L0,9.32158406 C-0.0041824725,11.2003327 0.951817666,12.865215 2.41753644,13.8939574 C2.4777647,13.9362085 2.55848043,13.9312238 2.6127846,13.8823265 C2.66758244,13.8334292 2.6779496,13.7558106 2.63746831,13.6950451 C0.724974359,10.8146136 1.16014819,5.53963813 5.89176881,5.53963813 C8.05899866,5.53963813 9.80709909,7.22944376 9.81623206,9.31351363 C9.82240299,10.8599505 9.11620201,12.0365717 8.19549958,12.7781018 C6.36026565,14.2561773 3.64974731,12.6382934 4.49738595,10.4697214 C4.5894562,10.2335427 4.71879884,9.9959397 4.88664808,9.76189723 L5.12361171,9.47705853 C5.19766284,9.39967734 5.25048599,9.29903433 5.2146946,9.19411874 C5.01401603,8.62800181 3.46832203,8.97526767 3.04005964,10.0315445 C3.34292878,9.79631524 3.65986763,9.66433998 3.96940137,9.71489885 C2.38890334,11.275815 3.44141679,13.9563846 5.46005069,14.7513219 C6.40494316,15.1232738 7.55964718,15.0976383 8.68744595,14.5405413" id="path-1"></path>
        <linearGradient x1="28.568518%" y1="104.445731%" x2="78.3472072%" y2="20.6880271%" id="linearGradient-3">
            <stop stop-color="#000F98" offset="0%"></stop>
            <stop stop-color="#00A5FD" offset="100%"></stop>
        </linearGradient>
        <filter x="-57.1%" y="-41.4%" width="214.3%" height="182.8%" filterUnits="objectBoundingBox" id="filter-4">
            <feOffset dx="0" dy="2" in="SourceAlpha" result="shadowOffsetOuter1"></feOffset>
            <feGaussianBlur stdDeviation="2" in="shadowOffsetOuter1" result="shadowBlurOuter1"></feGaussianBlur>
            <feColorMatrix values="0 0 0 0 1   0 0 0 0 1   0 0 0 0 1  0 0 0 0.5 0" type="matrix" in="shadowBlurOuter1" result="shadowMatrixOuter1"></feColorMatrix>
            <feMerge>
                <feMergeNode in="shadowMatrixOuter1"></feMergeNode>
                <feMergeNode in="SourceGraphic"></feMergeNode>
            </feMerge>
        </filter>
        <filter x="-57.1%" y="-41.4%" width="214.3%" height="182.8%" filterUnits="objectBoundingBox" id="filter-5">
            <feOffset dx="0" dy="2" in="SourceAlpha" result="shadowOffsetOuter1"></feOffset>
            <feGaussianBlur stdDeviation="2" in="shadowOffsetOuter1" result="shadowBlurOuter1"></feGaussianBlur>
            <feColorMatrix values="0 0 0 0 1   0 0 0 0 1   0 0 0 0 1  0 0 0 1 0" type="matrix" in="shadowBlurOuter1" result="shadowMatrixOuter1"></feColorMatrix>
            <feMerge>
                <feMergeNode in="shadowMatrixOuter1"></feMergeNode>
                <feMergeNode in="SourceGraphic"></feMergeNode>
            </feMerge>
        </filter>
        <filter x="-59.5%" y="-43.1%" width="219.0%" height="186.2%" filterUnits="objectBoundingBox" id="filter-6">
            <feOffset dx="0" dy="2" in="SourceAlpha" result="shadowOffsetOuter1"></feOffset>
            <feGaussianBlur stdDeviation="2" in="shadowOffsetOuter1" result="shadowBlurOuter1"></feGaussianBlur>
            <feColorMatrix values="0 0 0 0 1   0 0 0 0 1   0 0 0 0 1  0 0 0 1 0" type="matrix" in="shadowBlurOuter1" result="shadowMatrixOuter1"></feColorMatrix>
            <feMerge>
                <feMergeNode in="shadowMatrixOuter1"></feMergeNode>
                <feMergeNode in="SourceGraphic"></feMergeNode>
            </feMerge>
        </filter>
        <path d="M596.5,102.5 L629.924658,102.5 C632.133797,102.5 633.924658,104.290861 633.924658,106.5 L633.924658,321.588036 C633.924658,323.797175 632.133797,325.588036 629.924658,325.588036 L620.384626,325.588036 L620.384626,325.588036 L634.5,363.5 L602.165753,325.588036 L596.5,325.588036 C594.290861,325.588036 592.5,323.797175 592.5,321.588036 L592.5,106.5 C592.5,104.290861 594.290861,102.5 596.5,102.5 Z" id="path-7"></path>
        <filter x="-7.7%" y="-1.2%" width="111.9%" height="102.1%" filterUnits="objectBoundingBox" id="filter-8">
            <feMorphology radius="0.25" operator="dilate" in="SourceAlpha" result="shadowSpreadOuter1"></feMorphology>
            <feOffset dx="-1" dy="-1" in="shadowSpreadOuter1" result="shadowOffsetOuter1"></feOffset>
            <feGaussianBlur stdDeviation="0.5" in="shadowOffsetOuter1" result="shadowBlurOuter1"></feGaussianBlur>
            <feComposite in="shadowBlurOuter1" in2="SourceAlpha" operator="out" result="shadowBlurOuter1"></feComposite>
            <feColorMatrix values="0 0 0 0 0   0 0 0 0 0   0 0 0 0 0  0 0 0 0.5 0" type="matrix" in="shadowBlurOuter1"></feColorMatrix>
        </filter>
        <filter x="-5.4%" y="-0.9%" width="107.1%" height="101.3%" filterUnits="objectBoundingBox" id="filter-9">
            <feOffset dx="0" dy="0" in="SourceAlpha" result="shadowOffsetInner1"></feOffset>
            <feComposite in="shadowOffsetInner1" in2="SourceAlpha" operator="arithmetic" k2="-1" k3="1" result="shadowInnerInner1"></feComposite>
            <feColorMatrix values="0 0 0 0 0   0 0 0 0 0   0 0 0 0 0  0 0 0 0.5 0" type="matrix" in="shadowInnerInner1"></feColorMatrix>
        </filter>
        <path d="M430.517667,322 L530.054054,322 C530.606339,322 531.054054,322.447715 531.054054,323 L531.054054,344.560976 C531.054054,345.11326 531.501769,345.560976 532.054054,345.560976 L575.384309,345.560976 C575.936593,345.560976 576.384309,346.008691 576.384309,346.560976 C576.384309,347.047317 576.034408,347.463139 575.555223,347.546262 L480.878361,363.969529 C480.762171,363.989684 480.643333,363.989129 480.527337,363.96789 L390.833468,347.544622 C390.290215,347.445151 389.930459,346.924119 390.02993,346.380866 C390.11689,345.905945 390.53076,345.560976 391.013577,345.560976 L428.517667,345.560976 C429.069952,345.560976 429.517667,345.11326 429.517667,344.560976 L429.517667,323 C429.517667,322.447715 429.965383,322 430.517667,322 Z" id="path-10"></path>
        <filter x="3.9%" y="-4.8%" width="93.9%" height="119.0%" filterUnits="objectBoundingBox" id="filter-11">
            <feOffset dx="2" dy="2" in="SourceAlpha" result="shadowOffsetOuter1"></feOffset>
            <feGaussianBlur stdDeviation="1" in="shadowOffsetOuter1" result="shadowBlurOuter1"></feGaussianBlur>
            <feColorMatrix values="0 0 0 0 0   0 0 0 0 0   0 0 0 0 0  0 0 0 0.5 0" type="matrix" in="shadowBlurOuter1"></feColorMatrix>
        </filter>
    </defs>
    <g id="2041-10-16-19-10_Non-Fast-forwardMerge(NoOption)" stroke="none" stroke-width="1" fill="none" fill-rule="evenodd">
        <rect fill="#FFFFFF" x="0" y="0" width="800" height="600"></rect>
        <g id="bloovee-winner-logo" transform="translate(725.000000, 580.000000)">
            <path d="M13,13.7751507 C13,14.396312 13.4732558,14.8717809 14.0514961,14.8717809 C14.6474304,14.8717809 15.1204503,14.3968042 15.1204503,13.7751507 L15.1204503,2.09687626 C15.1204503,1.49368045 14.6474304,1 14.0514961,1 C13.4557977,1 13,1.49392656 13,2.09687626 L13,13.7751507 Z M21.7920364,15 C24.6483217,15 26.751078,12.7149437 26.751078,9.97312215 L26.751078,9.93645297 C26.751078,7.17641992 24.6657798,4.92778666 21.8269526,4.92778666 C18.9881254,4.92778666 16.885369,7.212843 16.885369,9.97312215 L16.885369,10.0095452 C16.885369,12.7516128 18.9706673,15 21.7920364,15 Z M21.8269526,13.0621935 C20.179994,13.0621935 19.0055834,11.6547366 19.0055834,9.97312215 L19.0055834,9.93645297 C19.0055834,8.25459244 20.0919958,6.86534709 21.7920364,6.86534709 C23.456689,6.86534709 24.6306277,8.27305008 24.6306277,9.97312215 L24.6306277,10.0095452 C24.6306277,11.6731942 23.5444513,13.0621935 21.8269526,13.0621935 Z M32.8092717,15 C35.665557,15 37.7683133,12.7149437 37.7683133,9.97312215 L37.7683133,9.93645297 C37.7683133,7.17641992 35.6830151,4.92778666 32.8441878,4.92778666 C30.0053606,4.92778666 27.9026043,7.212843 27.9026043,9.97312215 L27.9026043,10.0095452 C27.9026043,12.7516128 29.9879025,15 32.8092717,15 Z M32.8441878,13.0621935 C31.1969933,13.0621935 30.0228187,11.6547366 30.0228187,9.97312215 L30.0228187,9.93645297 C30.0228187,8.25459244 31.109231,6.86534709 32.8092717,6.86534709 C34.4739243,6.86534709 35.647863,8.27305008 35.647863,9.97312215 L35.647863,10.0095452 C35.647863,11.6731942 34.5614506,13.0621935 32.8441878,13.0621935 Z M44.1416963,13.9944275 L47.2261164,6.6096472 C47.2784906,6.49988574 47.3487948,6.28060893 47.3487948,6.07954366 C47.3487948,5.47610175 46.8929971,5.01933658 46.3147568,5.01933658 C45.7539746,5.01933658 45.4737015,5.40300947 45.3158709,5.78692847 L42.8976893,12.2215093 L40.5144239,5.82335156 C40.3393711,5.36634029 40.041404,5.01933658 39.4629278,5.01933658 C38.8846875,5.01933658 38.4116676,5.53098247 38.4116676,6.07954366 C38.4116676,6.28060893 38.4817358,6.46346265 38.534346,6.62785874 L41.6182943,13.9944275 C41.8638872,14.5796579 42.2491448,14.9633308 42.8273851,14.9633308 L42.9326055,14.9633308 C43.5108458,14.9633308 43.8965752,14.5612003 44.1416963,13.9944275 Z M50.0949054,9.27837643 C50.2876522,7.77961573 51.1987758,6.73762019 52.4956289,6.73762019 C53.8974665,6.73762019 54.7036056,7.8524619 54.8437422,9.27837643 L50.0949054,9.27837643 Z M56.070527,13.72027 C56.2281217,13.5558739 56.3508002,13.3181395 56.3508002,13.0439819 C56.3508002,12.5320899 55.9830006,12.1481709 55.5095089,12.1481709 C55.2641519,12.1481709 55.1242513,12.2215093 54.9664207,12.3492362 C54.3704864,12.8611282 53.6695676,13.1901665 52.7759021,13.1901665 C51.4089807,13.1901665 50.3402624,12.3128131 50.1123635,10.7409601 L55.9126964,10.7409601 C56.4560206,10.7409601 56.9115824,10.3021604 56.9115824,9.68050697 C56.9115824,7.45057746 55.4568987,4.92778666 52.513087,4.92778666 C49.8672425,4.92778666 47.9919132,7.19438536 47.9919132,9.95466451 L47.9919132,9.9913337 C47.9919132,12.9708897 50.0597533,15 52.7409859,15 C54.1779755,15 55.2292357,14.5063195 56.070527,13.72027 Z M60.1833231,9.27837643 C60.3763058,7.77961573 61.2871935,6.73762019 62.5842825,6.73762019 C63.9858841,6.73762019 64.7920233,7.8524619 64.9321598,9.27837643 L60.1833231,9.27837643 Z M66.1589447,13.72027 C66.3167752,13.5558739 66.4394537,13.3181395 66.4394537,13.0439819 C66.4394537,12.5320899 66.0714183,12.1481709 65.5981624,12.1481709 C65.3528055,12.1481709 65.2126689,12.2215093 65.0548383,12.3492362 C64.4591399,12.8611282 63.7582212,13.1901665 62.8643197,13.1901665 C61.4976342,13.1901665 60.4289159,12.3128131 60.2007812,10.7409601 L66.0011141,10.7409601 C66.5444382,10.7409601 67,10.3021604 67,9.68050697 C67,7.45057746 65.5455522,4.92778666 62.6015046,4.92778666 C59.9556601,4.92778666 58.0805667,7.19438536 58.0805667,9.95466451 L58.0805667,9.9913337 C58.0805667,12.9708897 60.1484069,15 62.8294035,15 C64.2663932,15 65.3178893,14.5063195 66.1589447,13.72027 L66.1589447,13.72027 Z" id="Fill-1" fill="#030060"></path>
            <g id="Group-4">
                <mask id="mask-2" fill="white">
                    <use xlink:href="#path-1"></use>
                </mask>
                <g id="Clip-3"></g>
                <path d="M8.68744595,14.5405413 C10.6544909,13.5649687 12,11.5915112 12,9.31636202 C12,6.07252388 9.26504479,3.44227578 5.89152197,3.44227578 C4.52034181,3.44227578 3.25480793,3.87689217 2.23537065,4.61058921 L2.23537065,1.05770107 C2.23537065,0.476155373 1.74046224,0 1.11695169,0 C0.493934821,0 0.0167986821,0.476630104 0.0167986821,1.05770107 L0.0167986821,1.80184219 L0,9.32158406 C-0.0041824725,11.2003327 0.951817666,12.865215 2.41753644,13.8939574 C2.4777647,13.9362085 2.55848043,13.9312238 2.6127846,13.8823265 C2.66758244,13.8334292 2.6779496,13.7558106 2.63746831,13.6950451 C0.724974359,10.8146136 1.16014819,5.53963813 5.89176881,5.53963813 C8.05899866,5.53963813 9.80709909,7.22944376 9.81623206,9.31351363 C9.82240299,10.8599505 9.11620201,12.0365717 8.19549958,12.7781018 C6.36026565,14.2561773 3.64974731,12.6382934 4.49738595,10.4697214 C4.5894562,10.2335427 4.71879884,9.9959397 4.88664808,9.76189723 L5.12361171,9.47705853 C5.19766284,9.39967734 5.25048599,9.29903433 5.2146946,9.19411874 C5.01401603,8.62800181 3.46832203,8.97526767 3.04005964,10.0315445 C3.34292878,9.79631524 3.65986763,9.66433998 3.96940137,9.71489885 C2.38890334,11.275815 3.44141679,13.9563846 5.46005069,14.7513219 C6.40494316,15.1232738 7.55964718,15.0976383 8.68744595,14.5405413" id="Fill-2" fill="url(#linearGradient-3)" mask="url(#mask-2)"></path>
            </g>
        </g>
        <text id="Non-Fast-forward-Mer" fill-rule="nonzero" font-family="Helvetica" font-size="18" font-weight="normal" fill="#0055C2">
            <tspan x="10" y="23">Non-Fast-forward Merge (No Option)</tspan>
        </text>
        <g id="git" transform="translate(704.000000, 9.000000)">
            <path d="M46.8658496,11.2380575 C45.1623498,11.2380575 43.8939053,12.0891281 43.8939053,14.1376499 C43.8939053,15.6808485 44.7297841,16.7522856 46.7743573,16.7522856 C48.5071097,16.7522856 49.6846843,15.7131436 49.6846843,14.073693 C49.6846843,12.2157755 48.6309666,11.2380575 46.8658496,11.2380575 L46.8658496,11.2380575 Z M43.4607172,25.7011913 C43.0574041,26.2046147 42.6553359,26.7397 42.6553359,27.3710373 C42.6553359,28.6305458 44.2337339,29.0092215 46.4027864,29.0092215 C48.1984009,29.0092215 50.6450424,28.8813076 50.6450424,27.1823327 C50.6450424,26.1723196 49.4674678,26.1102624 47.9805621,26.0152768 L43.4607172,25.7011913 Z M52.6255087,11.3330431 C53.1825537,12.0580995 53.7719634,13.0662128 53.7719634,14.5156924 C53.7719634,18.0124273 51.0776081,20.0603158 47.1764255,20.0603158 C46.1843252,20.0603158 45.2862067,19.9349349 44.7291617,19.7772589 L43.7071863,21.4471049 L46.7413702,21.6351763 C52.0989611,21.9828234 55.257002,22.1404995 55.257002,26.3293624 C55.257002,29.9533779 52.1300809,32 46.7413702,32 C41.1360655,32 39,30.5505204 39,28.0625322 C39,26.6440812 39.6199071,25.8898959 40.7034998,24.848221 C39.680902,24.4087545 39.3410734,23.6216409 39.3410734,22.7705703 C39.3410734,22.0771758 39.6815244,21.4471049 40.2391918,20.8480627 C40.7968593,20.2502869 41.416144,19.6506115 42.1586633,18.9578502 C40.6412601,18.2017651 39.4960502,16.563581 39.4960502,14.231369 C39.4960502,10.6086199 41.8493321,8.12063165 46.5870158,8.12063165 C47.9189448,8.12063165 48.7249485,8.24537935 49.436348,8.43598369 L55.4754632,8.43598369 L55.4754632,11.1133099 L52.6255087,11.3330431 L52.6255087,11.3330431 Z M60.9233016,5.60858036 C59.1575621,5.60858036 58.1355867,4.56817192 58.1355867,2.77167847 C58.1355867,0.977717972 59.1575621,0 60.9233016,0 C62.7195385,0 63.7408917,0.977084735 63.7408917,2.77167847 C63.7415139,4.56817192 62.7195385,5.60858036 60.9233016,5.60858036 Z M56.9275147,24.5423675 L56.9275147,22.0543792 L58.50778,21.8340127 C58.9409681,21.770689 59.0025853,21.6763367 59.0025853,21.2026754 L59.0025853,11.9403174 C59.0025853,11.59457 58.9104706,11.372937 58.5998947,11.279218 L56.9275147,10.6801757 L57.2679657,8.12949697 L63.6792742,8.12949697 L63.6792742,21.2033087 C63.6792742,21.7086318 63.7091492,21.770689 64.174702,21.834646 L65.7543448,22.0550125 L65.7543448,24.5430008 L56.9275147,24.5430008 L56.9275147,24.5423675 Z M78,23.32022 C76.6674487,23.9806863 74.7174798,24.5803617 72.9511179,24.5803617 C69.2665294,24.5803617 67.8736056,23.0694582 67.8736056,19.5074999 L67.8736056,11.2532552 C67.8736056,11.0651838 67.8736056,10.9385364 67.6252693,10.9385364 L65.458084,10.9385364 L65.458084,8.13456287 C68.1841815,7.81857759 69.2671518,6.43242174 69.6076028,2.99837733 L72.5502944,2.99837733 L72.5502944,7.47346341 C72.5502944,7.69319666 72.5502944,7.78881545 72.7980083,7.78881545 L77.1641212,7.78881545 L77.1641212,10.9391697 L72.5502944,10.9391697 L72.5502944,18.4683579 C72.5502944,20.3269086 72.9841049,21.0513318 74.6558625,21.0513318 C75.5241059,21.0513318 76.4209796,20.8315985 77.1641212,20.5479083 L78,23.32022 L78,23.32022 Z" id="Shape" fill="#31251C" fill-rule="nonzero"></path>
            <path d="M32.3772539,15.0299695 L17.9690664,0.622277028 C17.140005,-0.207425676 15.7941261,-0.207425676 14.9644314,0.622277028 L11.9724635,3.61427365 L15.7668919,7.40937182 C16.6497884,7.11169223 17.6606226,7.31120089 18.3636464,8.01486479 C19.0704703,8.72232885 19.2687104,9.74203981 18.9634334,10.6274783 L22.6210571,14.2851371 C23.5052204,13.9804906 24.5268216,14.1774658 25.2336455,14.8849299 C26.221679,15.8723394 26.221679,17.4728423 25.2336455,18.4608852 C24.2449787,19.4489281 22.6451246,19.4489281 21.6570912,18.4608852 C20.914166,17.7173195 20.7304932,16.6260388 21.1067059,15.7108324 L17.6954571,12.2995509 L17.6948238,21.2768075 C17.9361319,21.3958793 18.1628729,21.5542195 18.3636464,21.7543616 C19.3516798,22.7417711 19.3516798,24.3416406 18.3636464,25.3309502 C17.375613,26.3183598 15.7744921,26.3183598 14.7877254,25.3309502 C13.799692,24.3416406 13.799692,22.7417711 14.7877254,21.7543616 C15.0322003,21.5105176 15.3140432,21.3262096 15.6155201,21.2027043 L15.6155201,12.1424774 C15.3140432,12.0196054 15.0322003,11.8359308 14.7877254,11.5908201 C14.0391001,10.842821 13.8592273,9.74520661 14.2430403,8.82620003 L10.5024471,5.08430417 L0.622746073,14.9634666 C-0.207582024,15.7938027 -0.207582024,17.1396945 0.622746073,17.9700305 L15.0309336,32.377723 C15.8606284,33.2074257 17.2058739,33.2074257 18.0368353,32.377723 L32.3772539,18.0359 C33.207582,17.2061973 33.207582,15.8596722 32.3772539,15.0299695 L32.3772539,15.0299695 Z" id="Path" fill="#F34F29" fill-rule="nonzero"></path>
            <polygon id="Path" points="1.12409637e-15 0 79 0 79 33 0 33"></polygon>
        </g>
        <text id="A1" font-family="Helvetica" font-size="18" font-weight="normal" fill="#199ABD">
            <tspan x="437" y="186">A1</tspan>
        </text>
        <text id="A1-Copy-4" font-family="Helvetica" font-size="18" font-weight="normal" fill="#199ABD">
            <tspan x="438" y="467">A1</tspan>
        </text>
        <text id="A2-Copy-3" font-family="Helvetica" font-size="18" font-weight="normal" fill="#199ABD">
            <tspan x="509" y="186">A2</tspan>
        </text>
        <text id="A2-Copy-4" font-family="Helvetica" font-size="18" font-weight="normal" fill="#199ABD">
            <tspan x="511" y="467">A2</tspan>
        </text>
        <text id="HEAD,-Master-(M4)" font-family="Helvetica" font-size="18" font-weight="normal" fill="#006AE1">
            <tspan x="453.494629" y="251">HEAD, </tspan>
            <tspan x="453.494629" y="273">Master</tspan>
            <tspan x="462.503418" y="295">(M4)</tspan>
        </text>
        <text id="HEAD,-Master-Copy-3" font-family="Helvetica" font-size="18" font-weight="normal" fill="#006AE1">
            <tspan x="565" y="530">HEAD, </tspan>
            <tspan x="565" y="552">Master</tspan>
        </text>
        <text id="HEAD,-Branch_A-Copy-3" font-family="Helvetica" font-size="18" font-weight="normal" fill="#199ABD">
            <tspan x="491.494629" y="109">HEAD, </tspan>
            <tspan x="476.975098" y="131"> Branch_A</tspan>
        </text>
        <text id="HEAD,-Branch_A-Copy-4" font-family="Helvetica" font-size="18" font-weight="normal" fill="#199ABD">
            <tspan x="491.494629" y="393">HEAD, </tspan>
            <tspan x="476.975098" y="415"> Branch_A</tspan>
        </text>
        <text id="Merge-Copy" font-family="Helvetica" font-size="16" font-weight="normal" fill="#DE4040">
            <tspan x="576.324219" y="441">Merge</tspan>
        </text>
        <circle id="Oval-Copy-14" stroke="#1576ED" stroke-width="4" cx="227" cy="213" r="14"></circle>
        <circle id="Oval-Copy-26" stroke="#1576ED" stroke-width="4" cx="227" cy="488" r="14"></circle>
        <circle id="Oval-Copy-27" stroke="#199ABD" stroke-width="4" cx="445" cy="158" r="14"></circle>
        <circle id="Oval-Copy-28" stroke="#199ABD" stroke-width="4" cx="445" cy="438" r="14"></circle>
        <line x1="381.579545" y1="163.573529" x2="431.420455" y2="201.426471" id="Line-6-Copy-11" stroke="#199ABD" stroke-width="3" stroke-linecap="round" transform="translate(406.500000, 182.500000) scale(1, -1) translate(-406.500000, -182.500000) "></line>
        <line x1="381.579545" y1="444.573529" x2="431.420455" y2="482.426471" id="Line-6-Copy-12" stroke="#199ABD" stroke-width="3" stroke-linecap="round" transform="translate(406.500000, 463.500000) scale(1, -1) translate(-406.500000, -463.500000) "></line>
        <text id="M1-Copy-4" font-family="Helvetica" font-size="18" font-weight="normal" fill="#006AE1">
            <tspan x="216" y="244">M1</tspan>
        </text>
        <text id="M1-Copy-5" font-family="Helvetica" font-size="18" font-weight="normal" fill="#006AE1">
            <tspan x="216" y="522">M1</tspan>
        </text>
        <text id="M2-Copy-4" font-family="Helvetica" font-size="18" font-weight="normal" fill="#006AE1">
            <tspan x="288" y="244">M2</tspan>
        </text>
        <text id="M2-Copy-5" font-family="Helvetica" font-size="18" font-weight="normal" fill="#006AE1">
            <tspan x="288" y="522">M2</tspan>
        </text>
        <text id="M3" font-family="Helvetica" font-size="18" font-weight="normal" fill="#006AE1">
            <tspan x="360" y="244">M3</tspan>
        </text>
        <text id="M3-Copy-2" font-family="Helvetica" font-size="18" font-weight="normal" fill="#006AE1">
            <tspan x="360" y="522">M3</tspan>
        </text>
        <text id="M4" font-family="Helvetica" font-size="18" font-weight="normal" fill="#006AE1">
            <tspan x="471" y="522">M4</tspan>
        </text>
        <line x1="530.579545" y1="444.573529" x2="580.420455" y2="482.426471" id="Line-6-Copy-13" stroke="#199ABD" stroke-width="3" stroke-linecap="round" transform="translate(555.500000, 463.500000) scale(-1, -1) translate(-555.500000, -463.500000) "></line>
        <line x1="245" y1="213.5" x2="284" y2="213.5" id="Line-Copy-14" stroke="#1576ED" stroke-width="3" stroke-linecap="round"></line>
        <line x1="245" y1="488.5" x2="284" y2="488.5" id="Line-Copy-16" stroke="#1576ED" stroke-width="3" stroke-linecap="round"></line>
        <line x1="461" y1="158" x2="504" y2="158" id="Line-Copy-17" stroke="#199ABD" stroke-width="3" stroke-linecap="round"></line>
        <line x1="461" y1="439" x2="504" y2="439" id="Line-Copy-18" stroke="#199ABD" stroke-width="3" stroke-linecap="round"></line>
        <text id="Non-Fast-forward-Mer" font-family="Helvetica-Bold, Helvetica" font-size="24" font-weight="bold" fill="#363636">
            <tspan x="50" y="83">Non-Fast-forward Merge</tspan>
            <tspan x="50" y="112" font-family="Helvetica" font-weight="normal">(no option)</tspan>
        </text>
        <line x1="388" y1="488" x2="575.423313" y2="488.5" id="Line-Copy-19" stroke="#006AE1" stroke-width="3" stroke-linecap="round"></line>
        <line x1="314" y1="213.5" x2="353" y2="213.5" id="Line-Copy-20" stroke="#1576ED" stroke-width="3" stroke-linecap="round"></line>
        <line x1="384" y1="213.5" x2="461.426471" y2="214" id="Line-Copy-22" stroke="#1576ED" stroke-width="3" stroke-linecap="round"></line>
        <line x1="314" y1="488.5" x2="353" y2="488.5" id="Line-Copy-21" stroke="#1576ED" stroke-width="3" stroke-linecap="round"></line>
        <circle id="Oval-Copy-29" stroke="#1576ED" stroke-width="4" cx="300" cy="213" r="14"></circle>
        <circle id="Oval-Copy-30" stroke="#1576ED" stroke-width="4" cx="300" cy="488" r="14"></circle>
        <circle id="Oval-Copy-31" stroke="#1576ED" stroke-width="4" cx="370" cy="213" r="14"></circle>
        <circle id="Oval-Copy-36" stroke="#1576ED" stroke-width="4" fill="#FF9696" cx="479" cy="213" r="14"></circle>
        <circle id="Oval-Copy-37" stroke="#1576ED" stroke-width="4" fill="#FFFFFF" cx="479" cy="488" r="14"></circle>
        <circle id="Oval-Copy-32" stroke="#1576ED" stroke-width="4" cx="370" cy="488" r="14"></circle>
        <circle id="Oval-Copy-33" stroke="#199ABD" stroke-width="4" cx="518" cy="158" r="14"></circle>
        <circle id="Oval-Copy-34" stroke="#199ABD" stroke-width="4" cx="518" cy="438" r="14"></circle>
        <circle id="Oval-Copy-35" stroke="#006AE1" stroke-width="4" fill="#FF9696" cx="591" cy="488" r="14"></circle>
        <g id="Group-4" filter="url(#filter-4)" transform="translate(469.000000, 181.000000)" fill-rule="nonzero">
            <path d="M10.5,0 C4.70101013,0 0,4.76003584 0,10.6318376 C0,16.2473809 9.35454545,28.1260431 9.75545455,28.6383044 C9.93662417,28.8669578 10.2104897,29 10.5,29 C10.7895103,29 11.0633758,28.8669578 11.2445455,28.6383044 C11.6454545,28.1260431 21,16.2473809 21,10.6318376 C21,4.76003584 16.2989899,0 10.5,0 Z M10.5,15.4644911 C7.86409551,15.4644911 5.72727273,13.3008384 5.72727273,10.6318376 C5.72727273,7.96283681 7.86409551,5.79918415 10.5,5.79918415 C13.1359045,5.79918415 15.2727273,7.96283681 15.2727273,10.6318376 C15.2727273,13.3008384 13.1359045,15.4644911 10.5,15.4644911 Z" id="Shape" fill="#FF9797"></path>
            <path d="M10.5,0 L10.5,5.79999888 C13.1359045,5.79999888 15.2727273,7.9639555 15.2727273,10.6333313 C15.2727273,13.3027071 13.1359045,15.4666637 10.5,15.4666637 L10.5,29 C10.7888344,29.000989 11.0625804,28.8694862 11.2445455,28.6423278 C11.6454545,28.1299946 21,16.2496635 21,10.6333313 C21,4.76070457 16.2989899,0 10.5,0 Z" id="Path" fill="#E47979"></path>
        </g>
        <g id="Group-2" filter="url(#filter-5)" transform="translate(581.000000, 455.000000)" fill-rule="nonzero">
            <path d="M10.5,0 C4.70101013,0 0,4.76003584 0,10.6318376 C0,16.2473809 9.35454545,28.1260431 9.75545455,28.6383044 C9.93662417,28.8669578 10.2104897,29 10.5,29 C10.7895103,29 11.0633758,28.8669578 11.2445455,28.6383044 C11.6454545,28.1260431 21,16.2473809 21,10.6318376 C21,4.76003584 16.2989899,0 10.5,0 Z M10.5,15.4644911 C7.86409551,15.4644911 5.72727273,13.3008384 5.72727273,10.6318376 C5.72727273,7.96283681 7.86409551,5.79918415 10.5,5.79918415 C13.1359045,5.79918415 15.2727273,7.96283681 15.2727273,10.6318376 C15.2727273,13.3008384 13.1359045,15.4644911 10.5,15.4644911 Z" id="Shape" fill="#FF9797"></path>
            <path d="M10.5,0 L10.5,5.79999888 C13.1359045,5.79999888 15.2727273,7.9639555 15.2727273,10.6333313 C15.2727273,13.3027071 13.1359045,15.4666637 10.5,15.4666637 L10.5,29 C10.7888344,29.000989 11.0625804,28.8694862 11.2445455,28.6423278 C11.6454545,28.1299946 21,16.2496635 21,10.6333313 C21,4.76070457 16.2989899,0 10.5,0 Z" id="Path" fill="#E47979"></path>
        </g>
        <g id="Group-3" filter="url(#filter-6)" transform="translate(470.000000, 455.000000)" fill-rule="nonzero" stroke="#979797" stroke-dasharray="2,2">
            <path d="M10.5,0 C4.70101013,0 0,4.76003584 0,10.6318376 C0,16.2473809 9.35454545,28.1260431 9.75545455,28.6383044 C9.93662417,28.8669578 10.2104897,29 10.5,29 C10.7895103,29 11.0633758,28.8669578 11.2445455,28.6383044 C11.6454545,28.1260431 21,16.2473809 21,10.6318376 C21,4.76003584 16.2989899,0 10.5,0 Z M10.5,15.4644911 C7.86409551,15.4644911 5.72727273,13.3008384 5.72727273,10.6318376 C5.72727273,7.96283681 7.86409551,5.79918415 10.5,5.79918415 C13.1359045,5.79918415 15.2727273,7.96283681 15.2727273,10.6318376 C15.2727273,13.3008384 13.1359045,15.4644911 10.5,15.4644911 Z" id="Shape" fill="#F2F2F2"></path>
            <path d="M10.5,0 L10.5,5.79999888 C13.1359045,5.79999888 15.2727273,7.9639555 15.2727273,10.6333313 C15.2727273,13.3027071 13.1359045,15.4666637 10.5,15.4666637 L10.5,29 C10.7888344,29.000989 11.0625804,28.8694862 11.2445455,28.6423278 C11.6454545,28.1299946 21,16.2496635 21,10.6333313 C21,4.76070457 16.2989899,0 10.5,0 Z" id="Path" fill="#ECEBEB"></path>
        </g>
        <g id="Rectangle-Copy-49" transform="translate(613.500000, 233.000000) scale(-1, 1) rotate(270.000000) translate(-613.500000, -233.000000) ">
            <use fill="black" fill-opacity="1" filter="url(#filter-8)" xlink:href="#path-7"></use>
            <use fill="#FFFFFF" fill-rule="evenodd" xlink:href="#path-7"></use>
            <use fill="black" fill-opacity="1" filter="url(#filter-9)" xlink:href="#path-7"></use>
            <use stroke="#0055C2" stroke-width="0.5" xlink:href="#path-7"></use>
        </g>
        <text id="$-git-merge-Branch_A" font-family="Helvetica" font-size="21" font-weight="normal" fill="#0055C2">
            <tspan x="530" y="238">$ git merge Branch_A</tspan>
        </text>
        <path id="Path-20-Copy" d="M564.675064,499.356729 C565.205011,500.189173 565.708136,501.022641 566.205219,501.885142 L572.229848,500.290817 L569.047858,515.616448 L558.696548,503.875478 L564.200143,502.415507 C563.957116,502.001154 563.711868,501.59291 563.461867,501.187342 L562.987934,500.430784 L564.675064,499.356729 Z M559.818327,492.807973 C560.488354,493.581771 561.132303,494.371872 561.752808,495.17853 L562.365597,495.990717 L560.757963,497.180471 C560.175122,496.392917 559.57086,495.62178 558.942653,494.866788 L558.306371,494.117167 L559.818327,492.807973 Z M553.994131,487.097026 C554.837268,487.79578 555.652106,488.519705 556.439932,489.267827 L557.025757,489.83344 L555.624728,491.260717 C554.881984,490.531632 554.113842,489.825702 553.319044,489.143819 L552.717928,488.63693 L553.994131,487.097026 Z M547.271201,482.435714 C548.225144,482.98256 549.152684,483.557712 550.054526,484.160246 L550.726101,484.617265 L549.586833,486.261062 C548.73509,485.670745 547.858856,485.106411 546.957389,484.568916 L546.276545,484.17084 L547.271201,482.435714 Z M488.256756,481.171651 L488.954968,483.045817 C488.139103,483.349764 487.320367,483.665838 486.49876,483.994042 L485.264197,484.495447 L484.501079,482.646758 C485.759154,482.127438 487.011045,481.635734 488.256756,481.171651 Z M539.873257,478.978953 C540.906941,479.363 541.916814,479.775788 542.903309,480.216596 L543.638803,480.552445 L542.793259,482.364917 C541.857426,481.928338 540.898934,481.518351 539.917293,481.135644 L539.176713,480.85374 L539.873257,478.978953 Z M495.926912,478.640891 L496.477661,480.563566 C495.641657,480.803038 494.802497,481.055815 493.960182,481.321898 L492.694343,481.731003 L492.066808,479.832003 C493.360301,479.404561 494.647003,479.00752 495.926912,478.640891 Z M532.040521,476.727268 C533.053185,476.940286 534.047503,477.177299 535.023709,477.437872 L535.993887,477.706282 L535.443048,479.62893 C534.513424,479.362593 533.565972,479.118723 532.60042,478.897754 L531.628824,478.684436 L532.040521,476.727268 Z M503.804094,476.752022 L504.181337,478.716122 C503.220989,478.900575 502.256277,479.103423 501.287199,479.324673 L500.316665,479.552057 L499.849464,477.607392 C501.175124,477.288905 502.493335,477.003778 503.804094,476.752022 Z M511.820677,475.620149 L511.998129,477.612261 C511.024065,477.699028 510.045295,477.805683 509.061814,477.932233 L508.076762,478.065415 L507.796147,476.085199 C509.145766,475.893945 510.48728,475.738924 511.820677,475.620149 Z M523.986295,475.560903 C525.001933,475.644883 526.012405,475.751605 527.017697,475.88107 L528.021263,476.018115 L527.735503,477.997595 C526.763842,477.857325 525.787054,477.739102 524.805125,477.642927 L523.821483,477.554101 L523.986295,475.560903 Z M518.94532,475.331188 L519.954717,475.347618 L519.907702,477.347065 C518.928649,477.324043 517.944616,477.322204 516.955595,477.341552 L515.964911,477.367963 L515.897487,475.369099 C516.918339,475.334665 517.934286,475.322026 518.94532,475.331188 Z" transform="translate(527.059620, 495.972374) scale(1, -1) rotate(-22.000000) translate(-527.059620, -495.972374) " fill="#DE4040" fill-rule="nonzero"></path>
        <text id="Master-Branch-Copy-2" font-family="Helvetica-Bold, Helvetica" font-size="21" font-weight="bold" fill="#006AE1">
            <tspan x="44" y="218">Master Branch</tspan>
        </text>
        <text id="Master-Branch-Copy-3" font-family="Helvetica-Bold, Helvetica" font-size="21" font-weight="bold" fill="#006AE1">
            <tspan x="44" y="493">Master Branch</tspan>
        </text>
        <text id="Branch_A-Copy-2" font-family="Helvetica-Bold, Helvetica" font-size="21" font-weight="bold" fill="#199ABD">
            <tspan x="44" y="163">Branch_A</tspan>
        </text>
        <text id="Branch_A-Copy-3" font-family="Helvetica-Bold, Helvetica" font-size="21" font-weight="bold" fill="#199ABD">
            <tspan x="44" y="444">Branch_A</tspan>
        </text>
        <path id="Line-42-Copy" d="M573.100252,448.102849 L579.419355,462.423077 L564.17171,458.886222 L573.100252,448.102849 Z M563.704182,448.112753 L566.785146,450.663765 L565.50964,452.204247 L562.428676,449.653235 L563.704182,448.112753 Z M557.542254,443.010729 L560.623218,445.561741 L559.347712,447.102223 L556.266748,444.551211 L557.542254,443.010729 Z M551.380326,437.908706 L554.46129,440.459718 L553.185784,442.000199 L550.10482,439.449188 L551.380326,437.908706 Z M545.218398,432.806682 L548.299362,435.357694 L547.023856,436.898176 L543.942892,434.347164 L545.218398,432.806682 Z" fill="#DE4040" fill-rule="nonzero"></path>
        <g id="Path-2-Copy">
            <use fill="black" fill-opacity="1" filter="url(#filter-11)" xlink:href="#path-10"></use>
            <use fill="#FFC0C0" fill-rule="evenodd" xlink:href="#path-10"></use>
        </g>
        <g id="trial-copy" transform="translate(4.000000, 570.000000)" fill="#006AE1" fill-rule="nonzero">
            <path d="M24.7390408,0.0712262435 C23.8197062,-0.175854327 23.1591603,0.239201967 22.6859188,1.01735927 C22.6046689,1.15134921 22.52713,1.31717641 22.4478332,1.49316028 C22.1428011,1.2575123 21.7678493,1.130415 21.3824051,1.13201247 C21.3529129,1.13201247 21.3224442,1.13259843 21.2931474,1.134161 L15.1740157,1.4288998 C14.9503832,1.43964243 14.7687429,1.47870655 14.6234306,1.53906062 C14.2647714,1.59678794 13.9347315,1.76994119 13.6833929,2.03224516 L0.468959043,15.8746167 C-0.17420408,16.5457384 -0.153305673,17.6121889 0.516224599,18.2565516 L7.02930103,24.5302495 C7.34177077,24.8320424 7.7593469,25.0004949 8.19375245,25 C8.63515806,25 9.07597773,24.8259649 9.40566475,24.4831773 L22.6199033,10.6400244 C23.0124808,10.2306324 23.3675584,9.67455464 23.2691211,9.15636906 C23.2718554,9.11457045 23.2687304,9.07296716 23.2691211,9.02804342 L23.1146291,2.88735879 C23.1183122,2.59624806 23.0497989,2.30876172 22.9152153,2.0506053 C23.3099413,1.28006549 23.6851361,0.550347698 24.542752,0.780630696 C25.0023217,0.904854604 25.1966573,0.194082907 24.7390408,0.0712262435 Z M8.52812889,13.4245632 L9.32781975,14.170287 L8.29716074,16.7269943 L10.7727157,15.5176743 L11.5754357,16.2662228 L7.51909394,18.1808206 L6.90418013,17.6074042 L8.52812889,13.4245632 Z M10.8555796,8.86713434 L14.7160332,15.2007265 L13.8468014,16.1328635 L9.99486962,9.79013275 L10.8555796,8.86713434 Z M17.1802579,6.51873344 L17.7982008,7.09497455 L16.1742521,11.2778156 L15.3745612,10.5320918 L16.4052202,7.97538454 L13.9296652,9.1847045 L13.1269453,8.43615601 L17.1802579,6.51873344 Z M21.1763507,2.2398705 C21.4058425,2.2398705 21.6355297,2.32542139 21.8136544,2.49691289 C21.8259591,2.50882745 21.8343575,2.52289053 21.8460763,2.53539105 C21.6548656,2.73520403 21.419905,2.85845134 21.1132648,2.82387959 C20.6425624,2.7709477 20.6474452,3.50808768 21.1132648,3.56062893 C21.5214674,3.60652927 21.8320138,3.4873837 22.0857244,3.27643744 C22.062433,3.47297911 21.9760108,3.65665988 21.8394357,3.79989667 C21.6663502,3.98098016 21.4266486,4.08326003 21.1761554,4.0829171 C20.9384391,4.08306483 20.7099506,3.99090921 20.5388516,3.82587432 C20.1727885,3.47281343 20.1612599,2.89015669 20.5130704,2.52289053 C20.686209,2.34188379 20.9258761,2.23961864 21.1763507,2.2398705 Z" id="Shape"></path>
        </g>
    </g>
</svg>