<?xml version="1.0" encoding="UTF-8"?>
<svg width="800px" height="600px" viewBox="0 0 800 600" version="1.1" xmlns="http://www.w3.org/2000/svg" xmlns:xlink="http://www.w3.org/1999/xlink">
    <title>2041-10-16-15-10_SwitchCurrentBranch(1)—GitCheckout</title>
    <defs>
        <rect id="path-1" x="20" y="62" width="766" height="140"></rect>
        <filter x="-0.5%" y="-2.9%" width="102.1%" height="111.4%" filterUnits="objectBoundingBox" id="filter-2">
            <feOffset dx="4" dy="4" in="SourceAlpha" result="shadowOffsetOuter1"></feOffset>
            <feGaussianBlur stdDeviation="2" in="shadowOffsetOuter1" result="shadowBlurOuter1"></feGaussianBlur>
            <feComposite in="shadowBlurOuter1" in2="SourceAlpha" operator="out" result="shadowBlurOuter1"></feComposite>
            <feColorMatrix values="0 0 0 0 0   0 0 0 0 0   0 0 0 0 0  0 0 0 0.5 0" type="matrix" in="shadowBlurOuter1"></feColorMatrix>
        </filter>
        <linearGradient x1="1.18752487e-05%" y1="49.9999884%" x2="100.000032%" y2="49.9999884%" id="linearGradient-3">
            <stop stop-color="#FCD635" offset="0%"></stop>
            <stop stop-color="#F7A928" offset="100%"></stop>
        </linearGradient>
    </defs>
    <g id="2041-10-16-15-10_SwitchCurrentBranch(1)—GitCheckout" stroke="none" stroke-width="1" fill="none" fill-rule="evenodd">
        <rect fill="#FFFFFF" x="0" y="0" width="800" height="600"></rect>
        <g id="Rectangle-Copy-4">
            <use fill="black" fill-opacity="1" filter="url(#filter-2)" xlink:href="#path-1"></use>
            <rect stroke="#006AE1" stroke-width="4" stroke-linejoin="square" fill="#FFFFFF" fill-rule="evenodd" x="22" y="64" width="762" height="136"></rect>
        </g>
        <text id="Switch-Current-Branc" fill-rule="nonzero" font-family="Helvetica" font-size="18" font-weight="normal" fill="#0055C2">
            <tspan x="10" y="23">Switch Current Branch (1) — Git Checkout</tspan>
        </text>
        <g id="git" transform="translate(704.000000, 9.000000)">
            <path d="M46.8658496,11.2380575 C45.1623498,11.2380575 43.8939053,12.0891281 43.8939053,14.1376499 C43.8939053,15.6808485 44.7297841,16.7522856 46.7743573,16.7522856 C48.5071097,16.7522856 49.6846843,15.7131436 49.6846843,14.073693 C49.6846843,12.2157755 48.6309666,11.2380575 46.8658496,11.2380575 L46.8658496,11.2380575 Z M43.4607172,25.7011913 C43.0574041,26.2046147 42.6553359,26.7397 42.6553359,27.3710373 C42.6553359,28.6305458 44.2337339,29.0092215 46.4027864,29.0092215 C48.1984009,29.0092215 50.6450424,28.8813076 50.6450424,27.1823327 C50.6450424,26.1723196 49.4674678,26.1102624 47.9805621,26.0152768 L43.4607172,25.7011913 Z M52.6255087,11.3330431 C53.1825537,12.0580995 53.7719634,13.0662128 53.7719634,14.5156924 C53.7719634,18.0124273 51.0776081,20.0603158 47.1764255,20.0603158 C46.1843252,20.0603158 45.2862067,19.9349349 44.7291617,19.7772589 L43.7071863,21.4471049 L46.7413702,21.6351763 C52.0989611,21.9828234 55.257002,22.1404995 55.257002,26.3293624 C55.257002,29.9533779 52.1300809,32 46.7413702,32 C41.1360655,32 39,30.5505204 39,28.0625322 C39,26.6440812 39.6199071,25.8898959 40.7034998,24.848221 C39.680902,24.4087545 39.3410734,23.6216409 39.3410734,22.7705703 C39.3410734,22.0771758 39.6815244,21.4471049 40.2391918,20.8480627 C40.7968593,20.2502869 41.416144,19.6506115 42.1586633,18.9578502 C40.6412601,18.2017651 39.4960502,16.563581 39.4960502,14.231369 C39.4960502,10.6086199 41.8493321,8.12063165 46.5870158,8.12063165 C47.9189448,8.12063165 48.7249485,8.24537935 49.436348,8.43598369 L55.4754632,8.43598369 L55.4754632,11.1133099 L52.6255087,11.3330431 L52.6255087,11.3330431 Z M60.9233016,5.60858036 C59.1575621,5.60858036 58.1355867,4.56817192 58.1355867,2.77167847 C58.1355867,0.977717972 59.1575621,0 60.9233016,0 C62.7195385,0 63.7408917,0.977084735 63.7408917,2.77167847 C63.7415139,4.56817192 62.7195385,5.60858036 60.9233016,5.60858036 Z M56.9275147,24.5423675 L56.9275147,22.0543792 L58.50778,21.8340127 C58.9409681,21.770689 59.0025853,21.6763367 59.0025853,21.2026754 L59.0025853,11.9403174 C59.0025853,11.59457 58.9104706,11.372937 58.5998947,11.279218 L56.9275147,10.6801757 L57.2679657,8.12949697 L63.6792742,8.12949697 L63.6792742,21.2033087 C63.6792742,21.7086318 63.7091492,21.770689 64.174702,21.834646 L65.7543448,22.0550125 L65.7543448,24.5430008 L56.9275147,24.5430008 L56.9275147,24.5423675 Z M78,23.32022 C76.6674487,23.9806863 74.7174798,24.5803617 72.9511179,24.5803617 C69.2665294,24.5803617 67.8736056,23.0694582 67.8736056,19.5074999 L67.8736056,11.2532552 C67.8736056,11.0651838 67.8736056,10.9385364 67.6252693,10.9385364 L65.458084,10.9385364 L65.458084,8.13456287 C68.1841815,7.81857759 69.2671518,6.43242174 69.6076028,2.99837733 L72.5502944,2.99837733 L72.5502944,7.47346341 C72.5502944,7.69319666 72.5502944,7.78881545 72.7980083,7.78881545 L77.1641212,7.78881545 L77.1641212,10.9391697 L72.5502944,10.9391697 L72.5502944,18.4683579 C72.5502944,20.3269086 72.9841049,21.0513318 74.6558625,21.0513318 C75.5241059,21.0513318 76.4209796,20.8315985 77.1641212,20.5479083 L78,23.32022 L78,23.32022 Z" id="Shape" fill="#31251C" fill-rule="nonzero"></path>
            <path d="M32.3772539,15.0299695 L17.9690664,0.622277028 C17.140005,-0.207425676 15.7941261,-0.207425676 14.9644314,0.622277028 L11.9724635,3.61427365 L15.7668919,7.40937182 C16.6497884,7.11169223 17.6606226,7.31120089 18.3636464,8.01486479 C19.0704703,8.72232885 19.2687104,9.74203981 18.9634334,10.6274783 L22.6210571,14.2851371 C23.5052204,13.9804906 24.5268216,14.1774658 25.2336455,14.8849299 C26.221679,15.8723394 26.221679,17.4728423 25.2336455,18.4608852 C24.2449787,19.4489281 22.6451246,19.4489281 21.6570912,18.4608852 C20.914166,17.7173195 20.7304932,16.6260388 21.1067059,15.7108324 L17.6954571,12.2995509 L17.6948238,21.2768075 C17.9361319,21.3958793 18.1628729,21.5542195 18.3636464,21.7543616 C19.3516798,22.7417711 19.3516798,24.3416406 18.3636464,25.3309502 C17.375613,26.3183598 15.7744921,26.3183598 14.7877254,25.3309502 C13.799692,24.3416406 13.799692,22.7417711 14.7877254,21.7543616 C15.0322003,21.5105176 15.3140432,21.3262096 15.6155201,21.2027043 L15.6155201,12.1424774 C15.3140432,12.0196054 15.0322003,11.8359308 14.7877254,11.5908201 C14.0391001,10.842821 13.8592273,9.74520661 14.2430403,8.82620003 L10.5024471,5.08430417 L0.622746073,14.9634666 C-0.207582024,15.7938027 -0.207582024,17.1396945 0.622746073,17.9700305 L15.0309336,32.377723 C15.8606284,33.2074257 17.2058739,33.2074257 18.0368353,32.377723 L32.3772539,18.0359 C33.207582,17.2061973 33.207582,15.8596722 32.3772539,15.0299695 L32.3772539,15.0299695 Z" id="Path" fill="#F34F29" fill-rule="nonzero"></path>
            <polygon id="Path" points="1.12409637e-15 0 79 0 79 33 0 33"></polygon>
        </g>
        <text id="$-git-checkout-[exis" font-family="Helvetica-Bold, Helvetica" font-size="36" font-weight="bold" fill="#0055C2">
            <tspan x="79.9316406" y="146">$ git checkout [existing branch name]</tspan>
        </text>
        <text id="switch-current-branc" font-family="Helvetica" font-size="18" font-weight="normal" fill="#0055C2">
            <tspan x="535.995117" y="251">switch </tspan>
            <tspan x="532.989258" y="273">current </tspan>
            <tspan x="533.481445" y="295">branch</tspan>
        </text>
        <text id="Current-Branch" font-family="Helvetica" font-size="18" font-weight="normal" fill="#0055C2">
            <tspan x="699.989746" y="232">Current </tspan>
            <tspan x="701.483887" y="254">Branch</tspan>
        </text>
        <text id="switch-current-branc-copy" font-family="Helvetica" font-size="18" font-weight="normal" fill="#0055C2">
            <tspan x="651.483887" y="412">switch current </tspan>
            <tspan x="679.481445" y="434">branch</tspan>
        </text>
        <text id="forcefully-switch-cu" font-family="Helvetica" font-size="18" font-weight="normal" fill="#0055C2">
            <tspan x="682.486816" y="475">forcefully </tspan>
            <tspan x="693.495117" y="497">switch </tspan>
            <tspan x="690.489258" y="519">current </tspan>
            <tspan x="690.981445" y="541">branch</tspan>
        </text>
        <text id="create-new-branch" font-family="Helvetica" font-size="18" font-weight="normal" fill="#0055C2">
            <tspan x="655.475586" y="356">create new </tspan>
            <tspan x="671.981445" y="378">branch</tspan>
        </text>
        <text id="$-git-checkout--b-[n" font-family="Helvetica-Bold, Helvetica" font-size="24" font-weight="bold" fill="#0055C2">
            <tspan x="68" y="410">$ git checkout -b [new branch name]</tspan>
        </text>
        <text id="$-git-checkout--f-[e" font-family="Helvetica-Bold, Helvetica" font-size="24" font-weight="bold" fill="#0055C2">
            <tspan x="70" y="526">$ git checkout -f [existing branch name]</tspan>
        </text>
        <path d="M758,335 C760.485281,335 762.735281,336.007359 764.363961,337.636039 C765.992641,339.264719 767,341.514719 767,344 L767,344 L767,431 C767,433.485281 765.992641,435.735281 764.363961,437.363961 C762.735281,438.992641 760.485281,440 758,440 L758,440 L49,440 C46.5147186,440 44.2647186,438.992641 42.636039,437.363961 C41.0073593,435.735281 40,433.485281 40,431 L40,431 L40,344 C40,341.514719 41.0073593,339.264719 42.636039,337.636039 C44.2647186,336.007359 46.5147186,335 49,335 L49,335 Z" id="Rectangle-Copy-2" stroke="#0055C2" stroke-width="2"></path>
        <rect id="Rectangle-Copy-7" stroke="#0055C2" stroke-width="2" x="40" y="455" width="727" height="105" rx="10"></rect>
        <ellipse id="Oval-Copy-5" stroke="#1576ED" stroke-width="4" cx="396.552885" cy="286.163043" rx="11.7932692" ry="11.8369565"></ellipse>
        <ellipse id="Oval-Copy-8" stroke="#1576ED" stroke-width="4" cx="480.552885" cy="286.163043" rx="11.7932692" ry="11.8369565"></ellipse>
        <ellipse id="Oval-Copy-6" stroke="#1576ED" stroke-width="4" fill="#FF9696" cx="480.206731" cy="246.836957" rx="11.7932692" ry="11.8369565"></ellipse>
        <ellipse id="Oval-Copy-7" stroke="#1576ED" stroke-width="4" cx="313.793269" cy="286.163043" rx="11.7932692" ry="11.8369565"></ellipse>
        <line x1="396.552885" y1="248.253019" x2="396.552885" y2="271.638285" id="Line-6-Copy" stroke="#1576ED" stroke-width="3" stroke-linecap="square" transform="translate(396.552885, 259.945652) scale(1, -1) translate(-396.552885, -259.945652) "></line>
        <line x1="327.126205" y1="286.163043" x2="382.759615" y2="286.163043" id="Line-Copy-2" stroke="#1576ED" stroke-width="3" stroke-linecap="round"></line>
        <line x1="409.874924" y1="286.163043" x2="468" y2="286" id="Line-Copy-3" stroke="#1576ED" stroke-width="3" stroke-linecap="round"></line>
        <line x1="396.807616" y1="246.836957" x2="468" y2="247" id="Line-Copy-4" stroke="#1576ED" stroke-width="3" stroke-linecap="round"></line>
        <g id="Group" transform="translate(495.826928, 239.708786)" fill="#0055C2">
            <polygon id="Fill-1" transform="translate(13.673072, 29.291214) scale(1, -1) rotate(-270.000000) translate(-13.673072, -29.291214) " points="35.1730721 33.5250069 34.9278261 32.5955858 33.0591537 28.7749072 30.5108612 25.4074032 27.3667245 22.5832917 23.7096104 20.39362 19.6247158 18.9316347 15.2046642 18.2912138 10.7452039 18.5423112 6.54711061 19.6411344 2.71095369 21.502267 -0.670188168 24.0402775 -3.50573995 27.1717281 -5.70428163 30.8140863 -7.17219318 34.8824989 -7.80488681 39.2140776 -7.82692785 40.2117024 -4.19866482 40.2912138 -4.17907127 39.4043601 -4.19753329 39.6247761 -3.60713133 35.5827531 -3.69514148 35.9337553 -2.34938498 32.2038958 -2.50186399 32.5238741 -0.485674135 29.1836272 -0.69333828 29.462834 1.90837063 26.5896338 1.65300885 26.8225217 4.75530722 24.4938174 4.45780154 24.6753033 7.97578577 22.9685365 7.64234775 23.0917034 11.4910883 22.0843156 11.1322997 22.1407855 15.2268745 21.9102337 14.8632268 21.8942919 18.9216248 22.4823063 18.5692006 22.3946528 22.3141705 23.7349779 21.9928959 23.5831156 25.3466748 25.591172 25.0663368 25.3843465 27.951177 27.9755548 27.7173456 27.7212234 30.0554839 30.8110045 29.8732628 30.5147068 31.5869364 34.0184889 31.4632782 33.6864038 31.6631102 34.4437138"></polygon>
            <polygon id="Triangle" transform="translate(6.882960, 8.494440) rotate(-64.000000) translate(-6.882960, -8.494440) " points="6.88295979 4.49443993 14.3829598 12.4944399 -0.617040214 12.4944399"></polygon>
        </g>
        <g id="Group-Copy" transform="translate(619.580732, 413.961588) rotate(42.000000) translate(-619.580732, -413.961588) translate(607.244196, 388.565981)" fill="#0055C2">
            <polygon id="Fill-1" transform="translate(13.673072, 29.291214) scale(1, -1) rotate(-270.000000) translate(-13.673072, -29.291214) " points="35.1730721 33.5250069 34.9278261 32.5955858 33.0591537 28.7749072 30.5108612 25.4074032 27.3667245 22.5832917 23.7096104 20.39362 19.6247158 18.9316347 15.2046642 18.2912138 10.7452039 18.5423112 6.54711061 19.6411344 2.71095369 21.502267 -0.670188168 24.0402775 -3.50573995 27.1717281 -5.70428163 30.8140863 -7.17219318 34.8824989 -7.80488681 39.2140776 -7.82692785 40.2117024 -4.19866482 40.2912138 -4.17907127 39.4043601 -4.19753329 39.6247761 -3.60713133 35.5827531 -3.69514148 35.9337553 -2.34938498 32.2038958 -2.50186399 32.5238741 -0.485674135 29.1836272 -0.69333828 29.462834 1.90837063 26.5896338 1.65300885 26.8225217 4.75530722 24.4938174 4.45780154 24.6753033 7.97578577 22.9685365 7.64234775 23.0917034 11.4910883 22.0843156 11.1322997 22.1407855 15.2268745 21.9102337 14.8632268 21.8942919 18.9216248 22.4823063 18.5692006 22.3946528 22.3141705 23.7349779 21.9928959 23.5831156 25.3466748 25.591172 25.0663368 25.3843465 27.951177 27.9755548 27.7173456 27.7212234 30.0554839 30.8110045 29.8732628 30.5147068 31.5869364 34.0184889 31.4632782 33.6864038 31.6631102 34.4437138"></polygon>
            <polygon id="Triangle" transform="translate(6.882960, 8.494440) rotate(-64.000000) translate(-6.882960, -8.494440) " points="6.88295979 4.49443993 14.3829598 12.4944399 -0.617040214 12.4944399"></polygon>
        </g>
        <g id="Group-Copy-2" transform="translate(649.580732, 517.961588) rotate(42.000000) translate(-649.580732, -517.961588) translate(637.244196, 492.565981)" fill="#DE4040">
            <polygon id="Fill-1" transform="translate(13.673072, 29.291214) scale(1, -1) rotate(-270.000000) translate(-13.673072, -29.291214) " points="35.1730721 33.5250069 34.9278261 32.5955858 33.0591537 28.7749072 30.5108612 25.4074032 27.3667245 22.5832917 23.7096104 20.39362 19.6247158 18.9316347 15.2046642 18.2912138 10.7452039 18.5423112 6.54711061 19.6411344 2.71095369 21.502267 -0.670188168 24.0402775 -3.50573995 27.1717281 -5.70428163 30.8140863 -7.17219318 34.8824989 -7.80488681 39.2140776 -7.82692785 40.2117024 -4.19866482 40.2912138 -4.17907127 39.4043601 -4.19753329 39.6247761 -3.60713133 35.5827531 -3.69514148 35.9337553 -2.34938498 32.2038958 -2.50186399 32.5238741 -0.485674135 29.1836272 -0.69333828 29.462834 1.90837063 26.5896338 1.65300885 26.8225217 4.75530722 24.4938174 4.45780154 24.6753033 7.97578577 22.9685365 7.64234775 23.0917034 11.4910883 22.0843156 11.1322997 22.1407855 15.2268745 21.9102337 14.8632268 21.8942919 18.9216248 22.4823063 18.5692006 22.3946528 22.3141705 23.7349779 21.9928959 23.5831156 25.3466748 25.591172 25.0663368 25.3843465 27.951177 27.9755548 27.7173456 27.7212234 30.0554839 30.8110045 29.8732628 30.5147068 31.5869364 34.0184889 31.4632782 33.6864038 31.6631102 34.4437138"></polygon>
            <polygon id="Triangle" transform="translate(6.882960, 8.494440) rotate(-64.000000) translate(-6.882960, -8.494440) " points="6.88295979 4.49443993 14.3829598 12.4944399 -0.617040214 12.4944399"></polygon>
        </g>
        <g id="Group-Copy-5" transform="translate(511.000000, 341.000000)">
            <circle id="Oval-Copy-5" stroke="#1576ED" stroke-width="4" cx="73.5" cy="70.5" r="12.5"></circle>
            <circle id="Oval-Copy-6" stroke="#1576ED" stroke-width="4" fill="#FF9696" cx="103.5" cy="40.5" r="12.5"></circle>
            <circle id="Oval-Copy-7" stroke="#1576ED" stroke-width="4" cx="10.5" cy="70.5" r="12.5"></circle>
            <line x1="73" y1="41.5" x2="73" y2="58.5" id="Line-6-Copy" stroke="#1576ED" stroke-width="3" stroke-linecap="round" transform="translate(73.000000, 50.000000) scale(1, -1) translate(-73.000000, -50.000000) "></line>
            <line x1="25" y1="71" x2="62" y2="71" id="Line-Copy-2" stroke="#1576ED" stroke-width="3" stroke-linecap="round"></line>
            <line x1="73.7129691" y1="41" x2="92" y2="41" id="Line-Copy-4" stroke="#1576ED" stroke-width="3" stroke-linecap="round"></line>
            <g id="star-copy-3" transform="translate(94.000000, 0.000000)" fill="url(#linearGradient-3)" fill-rule="nonzero">
                <path d="M16.8828704,20.9402263 C16.1357569,21.4989414 11.3419239,17.9571398 10.4238191,17.9493822 C9.50571424,17.9416314 4.65792444,21.4019781 3.9195153,20.8307072 C3.18110616,20.259443 4.91708104,14.391636 4.64041958,13.4750579 C4.36375171,12.5584799 -0.277652471,8.80072711 0.0131039008,7.88894048 C0.303860273,6.97716056 6.17057931,6.89245775 6.91769281,6.33374131 C7.66480631,5.77502287 9.64405459,-0.00774846428 10.5621594,0 C11.4802642,0.00776472594 13.3701229,5.82322267 14.1085321,6.39449085 C14.8469412,6.96575903 20.7115899,7.14957259 20.9882514,8.06614397 C21.2649193,8.98272206 16.5661932,12.6615701 16.2754369,13.5733567 C15.9846805,14.4851366 17.6299839,20.3815045 16.8828704,20.9402263 L16.8828704,20.9402263 Z" id="Path"></path>
            </g>
            <g id="star-copy-4" transform="translate(117.000000, 20.000000)" fill="url(#linearGradient-3)" fill-rule="nonzero">
                <path d="M16.8828704,20.9402263 C16.1357569,21.4989414 11.3419239,17.9571398 10.4238191,17.9493822 C9.50571424,17.9416314 4.65792444,21.4019781 3.9195153,20.8307072 C3.18110616,20.259443 4.91708104,14.391636 4.64041958,13.4750579 C4.36375171,12.5584799 -0.277652471,8.80072711 0.0131039008,7.88894048 C0.303860273,6.97716056 6.17057931,6.89245775 6.91769281,6.33374131 C7.66480631,5.77502287 9.64405459,-0.00774846428 10.5621594,0 C11.4802642,0.00776472594 13.3701229,5.82322267 14.1085321,6.39449085 C14.8469412,6.96575903 20.7115899,7.14957259 20.9882514,8.06614397 C21.2649193,8.98272206 16.5661932,12.6615701 16.2754369,13.5733567 C15.9846805,14.4851366 17.6299839,20.3815045 16.8828704,20.9402263 L16.8828704,20.9402263 Z" id="Path"></path>
            </g>
        </g>
        <circle id="Oval-Copy-5" stroke="#1576ED" stroke-width="4" cx="614.5" cy="518.5" r="9.5"></circle>
        <circle id="Oval-Copy-6" stroke="#1576ED" stroke-width="4" fill="#FF9696" cx="647.5" cy="486.5" r="9.5"></circle>
        <circle id="Oval-Copy-9" stroke="#1576ED" stroke-width="4" fill="#FF9696" cx="678.5" cy="236.5" r="9.5"></circle>
        <circle id="Oval-Copy-7" stroke="#1576ED" stroke-width="4" cx="546.5" cy="518.5" r="9.5"></circle>
        <line x1="614" y1="487.555556" x2="614" y2="506.444444" id="Line-6-Copy" stroke="#1576ED" stroke-width="3" stroke-linecap="round" transform="translate(614.000000, 497.000000) scale(1, -1) translate(-614.000000, -497.000000) "></line>
        <line x1="557.80553" y1="519" x2="603" y2="519" id="Line-Copy-2" stroke="#1576ED" stroke-width="3" stroke-linecap="round"></line>
        <line x1="614.788018" y1="487" x2="635" y2="487" id="Line-Copy-4" stroke="#1576ED" stroke-width="3" stroke-linecap="round"></line>
        <text id="Key-Options" font-family="Helvetica-Bold, Helvetica" font-size="24" font-weight="bold" fill="#0055C2">
            <tspan x="57.3242188" y="326">Key Options</tspan>
        </text>
        <text id="Forcefully-switch-cu" font-family="Helvetica" font-size="21" font-weight="normal" fill="#0055C2">
            <tspan x="54" y="482">Forcefully switch current branch</tspan>
        </text>
        <text id="Create-and-switch-to" font-family="Helvetica" font-size="21" font-weight="normal" fill="#0055C2">
            <tspan x="54" y="362">Create and switch to new branch</tspan>
        </text>
        <text id="Switch-current-branc" font-family="Helvetica" font-size="21" font-weight="normal" fill="#0055C2">
            <tspan x="36" y="90">Switch current branch</tspan>
        </text>
    </g>
</svg>