<?xml version="1.0" encoding="UTF-8"?>
<svg width="800px" height="600px" viewBox="0 0 800 600" version="1.1" xmlns="http://www.w3.org/2000/svg" xmlns:xlink="http://www.w3.org/1999/xlink">
    <title>2041-10-17-14-10_UploadToRemoteRepository—GitPush</title>
    <defs>
        <path d="M8.68744595,14.5405413 C10.6544909,13.5649687 12,11.5915112 12,9.31636202 C12,6.07252388 9.26504479,3.44227578 5.89152197,3.44227578 C4.52034181,3.44227578 3.25480793,3.87689217 2.23537065,4.61058921 L2.23537065,1.05770107 C2.23537065,0.476155373 1.74046224,0 1.11695169,0 C0.493934821,0 0.0167986821,0.476630104 0.0167986821,1.05770107 L0.0167986821,1.80184219 L0,9.32158406 C-0.0041824725,11.2003327 0.951817666,12.865215 2.41753644,13.8939574 C2.4777647,13.9362085 2.55848043,13.9312238 2.6127846,13.8823265 C2.66758244,13.8334292 2.6779496,13.7558106 2.63746831,13.6950451 C0.724974359,10.8146136 1.16014819,5.53963813 5.89176881,5.53963813 C8.05899866,5.53963813 9.80709909,7.22944376 9.81623206,9.31351363 C9.82240299,10.8599505 9.11620201,12.0365717 8.19549958,12.7781018 C6.36026565,14.2561773 3.64974731,12.6382934 4.49738595,10.4697214 C4.5894562,10.2335427 4.71879884,9.9959397 4.88664808,9.76189723 L5.12361171,9.47705853 C5.19766284,9.39967734 5.25048599,9.29903433 5.2146946,9.19411874 C5.01401603,8.62800181 3.46832203,8.97526767 3.04005964,10.0315445 C3.34292878,9.79631524 3.65986763,9.66433998 3.96940137,9.71489885 C2.38890334,11.275815 3.44141679,13.9563846 5.46005069,14.7513219 C6.40494316,15.1232738 7.55964718,15.0976383 8.68744595,14.5405413" id="path-1"></path>
        <linearGradient x1="28.568518%" y1="104.445731%" x2="78.3472072%" y2="20.6880271%" id="linearGradient-3">
            <stop stop-color="#000F98" offset="0%"></stop>
            <stop stop-color="#00A5FD" offset="100%"></stop>
        </linearGradient>
        <rect id="path-4" x="20" y="62" width="766" height="140"></rect>
        <filter x="-0.5%" y="-2.9%" width="102.1%" height="111.4%" filterUnits="objectBoundingBox" id="filter-5">
            <feOffset dx="4" dy="4" in="SourceAlpha" result="shadowOffsetOuter1"></feOffset>
            <feGaussianBlur stdDeviation="2" in="shadowOffsetOuter1" result="shadowBlurOuter1"></feGaussianBlur>
            <feComposite in="shadowBlurOuter1" in2="SourceAlpha" operator="out" result="shadowBlurOuter1"></feComposite>
            <feColorMatrix values="0 0 0 0 0   0 0 0 0 0   0 0 0 0 0  0 0 0 0.5 0" type="matrix" in="shadowBlurOuter1"></feColorMatrix>
        </filter>
        <linearGradient x1="1.18752487e-05%" y1="49.9999884%" x2="100.000032%" y2="49.9999884%" id="linearGradient-6">
            <stop stop-color="#FCD635" offset="0%"></stop>
            <stop stop-color="#F7A928" offset="100%"></stop>
        </linearGradient>
        <linearGradient x1="78.4549092%" y1="0%" x2="21.5450908%" y2="100%" id="linearGradient-7">
            <stop stop-color="#00C6FF" offset="0.0491695804%"></stop>
            <stop stop-color="#079DC2" offset="100%"></stop>
        </linearGradient>
        <linearGradient x1="78.4549092%" y1="0%" x2="21.5450908%" y2="100%" id="linearGradient-8">
            <stop stop-color="#00A5FF" offset="0.0491695804%"></stop>
            <stop stop-color="#0755C2" offset="100%"></stop>
        </linearGradient>
    </defs>
    <g id="2041-10-17-14-10_UploadToRemoteRepository—GitPush" stroke="none" stroke-width="1" fill="none" fill-rule="evenodd">
        <rect fill="#FFFFFF" x="0" y="0" width="800" height="600"></rect>
        <rect id="Rectangle-Copy-5" stroke="#199ABD" fill="#E0FBFF" x="147.5" y="251.5" width="611" height="125.361032"></rect>
        <ellipse id="Oval-Copy-7" fill="#FFF2F2" cx="622" cy="279.5" rx="32" ry="21.5"></ellipse>
        <rect id="Rectangle-Copy-4" stroke="#006AE1" fill="#E1EDFF" x="147.5" y="425.138968" width="611" height="125.361032"></rect>
        <g id="bloovee-winner-logo" transform="translate(725.000000, 580.000000)">
            <path d="M13,13.7751507 C13,14.396312 13.4732558,14.8717809 14.0514961,14.8717809 C14.6474304,14.8717809 15.1204503,14.3968042 15.1204503,13.7751507 L15.1204503,2.09687626 C15.1204503,1.49368045 14.6474304,1 14.0514961,1 C13.4557977,1 13,1.49392656 13,2.09687626 L13,13.7751507 Z M21.7920364,15 C24.6483217,15 26.751078,12.7149437 26.751078,9.97312215 L26.751078,9.93645297 C26.751078,7.17641992 24.6657798,4.92778666 21.8269526,4.92778666 C18.9881254,4.92778666 16.885369,7.212843 16.885369,9.97312215 L16.885369,10.0095452 C16.885369,12.7516128 18.9706673,15 21.7920364,15 Z M21.8269526,13.0621935 C20.179994,13.0621935 19.0055834,11.6547366 19.0055834,9.97312215 L19.0055834,9.93645297 C19.0055834,8.25459244 20.0919958,6.86534709 21.7920364,6.86534709 C23.456689,6.86534709 24.6306277,8.27305008 24.6306277,9.97312215 L24.6306277,10.0095452 C24.6306277,11.6731942 23.5444513,13.0621935 21.8269526,13.0621935 Z M32.8092717,15 C35.665557,15 37.7683133,12.7149437 37.7683133,9.97312215 L37.7683133,9.93645297 C37.7683133,7.17641992 35.6830151,4.92778666 32.8441878,4.92778666 C30.0053606,4.92778666 27.9026043,7.212843 27.9026043,9.97312215 L27.9026043,10.0095452 C27.9026043,12.7516128 29.9879025,15 32.8092717,15 Z M32.8441878,13.0621935 C31.1969933,13.0621935 30.0228187,11.6547366 30.0228187,9.97312215 L30.0228187,9.93645297 C30.0228187,8.25459244 31.109231,6.86534709 32.8092717,6.86534709 C34.4739243,6.86534709 35.647863,8.27305008 35.647863,9.97312215 L35.647863,10.0095452 C35.647863,11.6731942 34.5614506,13.0621935 32.8441878,13.0621935 Z M44.1416963,13.9944275 L47.2261164,6.6096472 C47.2784906,6.49988574 47.3487948,6.28060893 47.3487948,6.07954366 C47.3487948,5.47610175 46.8929971,5.01933658 46.3147568,5.01933658 C45.7539746,5.01933658 45.4737015,5.40300947 45.3158709,5.78692847 L42.8976893,12.2215093 L40.5144239,5.82335156 C40.3393711,5.36634029 40.041404,5.01933658 39.4629278,5.01933658 C38.8846875,5.01933658 38.4116676,5.53098247 38.4116676,6.07954366 C38.4116676,6.28060893 38.4817358,6.46346265 38.534346,6.62785874 L41.6182943,13.9944275 C41.8638872,14.5796579 42.2491448,14.9633308 42.8273851,14.9633308 L42.9326055,14.9633308 C43.5108458,14.9633308 43.8965752,14.5612003 44.1416963,13.9944275 Z M50.0949054,9.27837643 C50.2876522,7.77961573 51.1987758,6.73762019 52.4956289,6.73762019 C53.8974665,6.73762019 54.7036056,7.8524619 54.8437422,9.27837643 L50.0949054,9.27837643 Z M56.070527,13.72027 C56.2281217,13.5558739 56.3508002,13.3181395 56.3508002,13.0439819 C56.3508002,12.5320899 55.9830006,12.1481709 55.5095089,12.1481709 C55.2641519,12.1481709 55.1242513,12.2215093 54.9664207,12.3492362 C54.3704864,12.8611282 53.6695676,13.1901665 52.7759021,13.1901665 C51.4089807,13.1901665 50.3402624,12.3128131 50.1123635,10.7409601 L55.9126964,10.7409601 C56.4560206,10.7409601 56.9115824,10.3021604 56.9115824,9.68050697 C56.9115824,7.45057746 55.4568987,4.92778666 52.513087,4.92778666 C49.8672425,4.92778666 47.9919132,7.19438536 47.9919132,9.95466451 L47.9919132,9.9913337 C47.9919132,12.9708897 50.0597533,15 52.7409859,15 C54.1779755,15 55.2292357,14.5063195 56.070527,13.72027 Z M60.1833231,9.27837643 C60.3763058,7.77961573 61.2871935,6.73762019 62.5842825,6.73762019 C63.9858841,6.73762019 64.7920233,7.8524619 64.9321598,9.27837643 L60.1833231,9.27837643 Z M66.1589447,13.72027 C66.3167752,13.5558739 66.4394537,13.3181395 66.4394537,13.0439819 C66.4394537,12.5320899 66.0714183,12.1481709 65.5981624,12.1481709 C65.3528055,12.1481709 65.2126689,12.2215093 65.0548383,12.3492362 C64.4591399,12.8611282 63.7582212,13.1901665 62.8643197,13.1901665 C61.4976342,13.1901665 60.4289159,12.3128131 60.2007812,10.7409601 L66.0011141,10.7409601 C66.5444382,10.7409601 67,10.3021604 67,9.68050697 C67,7.45057746 65.5455522,4.92778666 62.6015046,4.92778666 C59.9556601,4.92778666 58.0805667,7.19438536 58.0805667,9.95466451 L58.0805667,9.9913337 C58.0805667,12.9708897 60.1484069,15 62.8294035,15 C64.2663932,15 65.3178893,14.5063195 66.1589447,13.72027 L66.1589447,13.72027 Z" id="Fill-1" fill="#030060"></path>
            <g id="Group-4">
                <mask id="mask-2" fill="white">
                    <use xlink:href="#path-1"></use>
                </mask>
                <g id="Clip-3"></g>
                <path d="M8.68744595,14.5405413 C10.6544909,13.5649687 12,11.5915112 12,9.31636202 C12,6.07252388 9.26504479,3.44227578 5.89152197,3.44227578 C4.52034181,3.44227578 3.25480793,3.87689217 2.23537065,4.61058921 L2.23537065,1.05770107 C2.23537065,0.476155373 1.74046224,0 1.11695169,0 C0.493934821,0 0.0167986821,0.476630104 0.0167986821,1.05770107 L0.0167986821,1.80184219 L0,9.32158406 C-0.0041824725,11.2003327 0.951817666,12.865215 2.41753644,13.8939574 C2.4777647,13.9362085 2.55848043,13.9312238 2.6127846,13.8823265 C2.66758244,13.8334292 2.6779496,13.7558106 2.63746831,13.6950451 C0.724974359,10.8146136 1.16014819,5.53963813 5.89176881,5.53963813 C8.05899866,5.53963813 9.80709909,7.22944376 9.81623206,9.31351363 C9.82240299,10.8599505 9.11620201,12.0365717 8.19549958,12.7781018 C6.36026565,14.2561773 3.64974731,12.6382934 4.49738595,10.4697214 C4.5894562,10.2335427 4.71879884,9.9959397 4.88664808,9.76189723 L5.12361171,9.47705853 C5.19766284,9.39967734 5.25048599,9.29903433 5.2146946,9.19411874 C5.01401603,8.62800181 3.46832203,8.97526767 3.04005964,10.0315445 C3.34292878,9.79631524 3.65986763,9.66433998 3.96940137,9.71489885 C2.38890334,11.275815 3.44141679,13.9563846 5.46005069,14.7513219 C6.40494316,15.1232738 7.55964718,15.0976383 8.68744595,14.5405413" id="Fill-2" fill="url(#linearGradient-3)" mask="url(#mask-2)"></path>
            </g>
        </g>
        <g id="Rectangle-Copy-4">
            <use fill="black" fill-opacity="1" filter="url(#filter-5)" xlink:href="#path-4"></use>
            <rect stroke="#006AE1" stroke-width="4" stroke-linejoin="square" fill="#FFFFFF" fill-rule="evenodd" x="22" y="64" width="762" height="136"></rect>
        </g>
        <text id="Upload-To-Remote-Rep" fill-rule="nonzero" font-family="Helvetica" font-size="18" font-weight="normal" fill="#0055C2">
            <tspan x="10" y="23">Upload To Remote Repository — Git Push</tspan>
        </text>
        <text id="$-git-push" font-family="Helvetica-Bold, Helvetica" font-size="36" font-weight="bold" fill="#0055C2">
            <tspan x="108.500977" y="151">$ git push</tspan>
        </text>
        <g id="Group-2-Copy-2" transform="translate(537.000000, 443.000000)" stroke="#1576ED" stroke-width="2">
            <circle id="Oval" fill="#7BB2FF" cx="7.5" cy="31.5" r="6.5"></circle>
            <circle id="Oval-Copy-4" fill="#FFC159" cx="83.5" cy="7.5" r="6.5"></circle>
            <circle id="Oval-Copy-3" fill="#7BB2FF" cx="52.5" cy="31.5" r="6.5"></circle>
            <line x1="53" y1="8.519444" x2="53" y2="24" id="Line-6-Copy" stroke-linecap="square"></line>
            <line x1="54.5217391" y1="8" x2="77.4782609" y2="8" id="Line-Copy-2" stroke-linecap="round"></line>
            <line x1="15.5253456" y1="32" x2="45" y2="32" id="Line-Copy" stroke-linecap="round"></line>
        </g>
        <g id="Group-2-Copy-4" transform="translate(537.000000, 271.000000)" stroke="#1576ED" stroke-width="2">
            <circle id="Oval" fill="#7BB2FF" cx="7.5" cy="31.5" r="6.5"></circle>
            <circle id="Oval-Copy-4" fill="#FFC159" cx="83.5" cy="7.5" r="6.5"></circle>
            <circle id="Oval-Copy-3" fill="#7BB2FF" cx="52.5" cy="31.5" r="6.5"></circle>
            <line x1="53" y1="7.51944444" x2="53" y2="24" id="Line-6-Copy" stroke-linecap="round" stroke-dasharray="4"></line>
            <line x1="54.5217391" y1="7" x2="77.4782609" y2="7" id="Line-Copy-2" stroke-linecap="round" stroke-dasharray="4"></line>
            <line x1="15.5253456" y1="32" x2="45" y2="32" id="Line-Copy" stroke-linecap="round"></line>
        </g>
        <text id="New-branch:-Branch-A" font-family="Helvetica" font-size="18" font-weight="normal" fill="#0055C2">
            <tspan x="516.948242" y="528">New branch: Branch A</tspan>
        </text>
        <text id="Branch-A-is-created" font-family="Helvetica" font-size="18" font-weight="normal" fill="#199ABD">
            <tspan x="528.945312" y="349">Branch A is created</tspan>
        </text>
        <g id="star-copy-3" transform="translate(632.000000, 267.000000)" fill="url(#linearGradient-6)" fill-rule="nonzero">
            <path d="M9.64735451,11.9658436 C9.22043251,12.2851093 6.48109935,10.2612228 5.95646803,10.2567899 C5.43183671,10.2523608 2.66167111,12.2297017 2.23972303,11.9032612 C1.81777495,11.5768246 2.8097606,8.22379202 2.65166833,7.70003311 C2.4935724,7.1762742 -0.158658555,5.02898692 0.00748794331,4.50796599 C0.173634442,3.98694889 3.52604532,3.93854728 3.95296732,3.61928075 C4.37988932,3.30001307 5.51088833,-0.00442769388 6.03551966,0 C6.56015098,0.00443698625 7.64007025,3.32755581 8.06201833,3.65399477 C8.48396641,3.98043373 11.8351942,4.08547005 11.9932865,4.60922512 C12.1513824,5.13298403 9.46639613,7.23518289 9.30024963,7.75620382 C9.13410313,8.27722092 10.0742765,11.646574 9.64735451,11.9658436 L9.64735451,11.9658436 Z" id="Path"></path>
        </g>
        <g id="star-copy-4" transform="translate(616.000000, 258.000000)" fill="url(#linearGradient-6)" fill-rule="nonzero">
            <path d="M9.64735451,11.9658436 C9.22043251,12.2851093 6.48109935,10.2612228 5.95646803,10.2567899 C5.43183671,10.2523608 2.66167111,12.2297017 2.23972303,11.9032612 C1.81777495,11.5768246 2.8097606,8.22379202 2.65166833,7.70003311 C2.4935724,7.1762742 -0.158658555,5.02898692 0.00748794331,4.50796599 C0.173634442,3.98694889 3.52604532,3.93854728 3.95296732,3.61928075 C4.37988932,3.30001307 5.51088833,-0.00442769388 6.03551966,0 C6.56015098,0.00443698625 7.64007025,3.32755581 8.06201833,3.65399477 C8.48396641,3.98043373 11.8351942,4.08547005 11.9932865,4.60922512 C12.1513824,5.13298403 9.46639613,7.23518289 9.30024963,7.75620382 C9.13410313,8.27722092 10.0742765,11.646574 9.64735451,11.9658436 L9.64735451,11.9658436 Z" id="Path"></path>
        </g>
        <line x1="619.5" y1="462.5" x2="616.5" y2="510.5" id="Line-46" stroke="#0055C2" stroke-linecap="square"></line>
        <ellipse id="Oval-Copy-6" fill="#FFF2F2" cx="318" cy="291.5" rx="32" ry="21.5"></ellipse>
        <g id="Group-2-Copy-9" transform="translate(235.000000, 295.000000)" stroke="#1576ED" stroke-width="2">
            <circle id="Oval" fill="#7BB2FF" cx="7.5" cy="7.5" r="6.5"></circle>
            <circle id="Oval-Copy" fill="#7BB2FF" cx="44.5" cy="7.5" r="6.5"></circle>
            <circle id="Oval-Copy-2" fill="#FF6464" cx="81.5" cy="7.5" r="6.5"></circle>
            <line x1="15" y1="7" x2="38" y2="7" id="Line" stroke-linecap="round"></line>
            <line x1="51.5217391" y1="7" x2="74.4782609" y2="7" id="Line-Copy-4" stroke-linecap="round" stroke-dasharray="4"></line>
        </g>
        <text id="Master-Branch-is-upd" font-family="Helvetica" font-size="18" font-weight="normal" fill="#199ABD">
            <tspan x="183.444824" y="339">Master Branch is updated </tspan>
            <tspan x="241" y="361">(FF merge)</tspan>
        </text>
        <g id="star-copy-7" transform="translate(329.000000, 281.000000)" fill="url(#linearGradient-6)" fill-rule="nonzero">
            <path d="M9.64735451,11.9658436 C9.22043251,12.2851093 6.48109935,10.2612228 5.95646803,10.2567899 C5.43183671,10.2523608 2.66167111,12.2297017 2.23972303,11.9032612 C1.81777495,11.5768246 2.8097606,8.22379202 2.65166833,7.70003311 C2.4935724,7.1762742 -0.158658555,5.02898692 0.00748794331,4.50796599 C0.173634442,3.98694889 3.52604532,3.93854728 3.95296732,3.61928075 C4.37988932,3.30001307 5.51088833,-0.00442769388 6.03551966,0 C6.56015098,0.00443698625 7.64007025,3.32755581 8.06201833,3.65399477 C8.48396641,3.98043373 11.8351942,4.08547005 11.9932865,4.60922512 C12.1513824,5.13298403 9.46639613,7.23518289 9.30024963,7.75620382 C9.13410313,8.27722092 10.0742765,11.646574 9.64735451,11.9658436 L9.64735451,11.9658436 Z" id="Path"></path>
        </g>
        <g id="star-copy-8" transform="translate(313.000000, 272.000000)" fill="url(#linearGradient-6)" fill-rule="nonzero">
            <path d="M9.64735451,11.9658436 C9.22043251,12.2851093 6.48109935,10.2612228 5.95646803,10.2567899 C5.43183671,10.2523608 2.66167111,12.2297017 2.23972303,11.9032612 C1.81777495,11.5768246 2.8097606,8.22379202 2.65166833,7.70003311 C2.4935724,7.1762742 -0.158658555,5.02898692 0.00748794331,4.50796599 C0.173634442,3.98694889 3.52604532,3.93854728 3.95296732,3.61928075 C4.37988932,3.30001307 5.51088833,-0.00442769388 6.03551966,0 C6.56015098,0.00443698625 7.64007025,3.32755581 8.06201833,3.65399477 C8.48396641,3.98043373 11.8351942,4.08547005 11.9932865,4.60922512 C12.1513824,5.13298403 9.46639613,7.23518289 9.30024963,7.75620382 C9.13410313,8.27722092 10.0742765,11.646574 9.64735451,11.9658436 L9.64735451,11.9658436 Z" id="Path"></path>
        </g>
        <path d="M297.91847,284 L297.91847,285.65816 L305.150456,285.65816 L305.150456,289.348641 L297.91847,289.348641 L297.91847,291 L292.304257,287.50172 C292.121974,287.425907 292.10172,287.32779 292.243496,287.24702 L292.304257,287.217622 L297.91847,284 Z" id="Path-Copy-3" fill="#DE4040" transform="translate(298.650456, 287.500000) rotate(-180.000000) translate(-298.650456, -287.500000) "></path>
        <g id="Group-2-Copy-9" transform="translate(235.000000, 467.000000)" stroke="#1576ED" stroke-width="2">
            <circle id="Oval" fill="#7BB2FF" cx="7.5" cy="7.5" r="6.5"></circle>
            <circle id="Oval-Copy" fill="#7BB2FF" cx="44.5" cy="7.5" r="6.5"></circle>
            <circle id="Oval-Copy-2" fill="#FF6464" cx="81.5" cy="7.5" r="6.5"></circle>
            <line x1="51.5217391" y1="8" x2="74.4782609" y2="8" id="Line-Copy-4" stroke-linecap="round"></line>
            <line x1="14.5217391" y1="8" x2="37.4782609" y2="8" id="Line-Copy-5" stroke-linecap="round"></line>
        </g>
        <text id="New-commit-on-Master" font-family="Helvetica" font-size="18" font-weight="normal" fill="#0055C2">
            <tspan x="217" y="513">New commit on </tspan>
            <tspan x="217" y="535">Master Branch</tspan>
        </text>
        <path d="M296.91847,464 L296.91847,465.65816 L304.150456,465.65816 L304.150456,469.348641 L296.91847,469.348641 L296.91847,471 L291.304257,467.50172 C291.121974,467.425907 291.10172,467.32779 291.243496,467.24702 L291.304257,467.217622 L296.91847,464 Z" id="Path-Copy-3" fill="#DE4040" transform="translate(297.650456, 467.500000) rotate(-180.000000) translate(-297.650456, -467.500000) "></path>
        <line x1="315.5" y1="485.5" x2="305.5" y2="500.5" id="Line-46-Copy-3" stroke="#0055C2" stroke-linecap="square"></line>
        <text id="Remote-Repository-na" font-family="Helvetica-Bold, Helvetica" font-size="28" font-weight="bold" fill="#0055C2">
            <tspan x="341.155273" y="114">Remote </tspan>
            <tspan x="319.375977" y="148">Repository </tspan>
            <tspan x="355.927734" y="182">name</tspan>
        </text>
        <text id="Branch-name" font-family="Helvetica-Bold, Helvetica" font-size="28" font-weight="bold" fill="#0055C2">
            <tspan x="541.265625" y="132">Branch </tspan>
            <tspan x="552.927734" y="166">name</tspan>
        </text>
        <g id="Group-Copy-5" transform="translate(60.000000, 265.000000)" fill-rule="nonzero">
            <path d="M42.7710454,6.80909971 C41.162748,2.3285576 31.2816332,0 21.5106758,0 C11.7397184,0 1.96876101,2.30648596 0.272337742,6.7428848 C0.0996847698,7.00482588 0.0077439811,7.31185389 0.00796008981,7.62575024 L0.00796008981,48.3810261 C-0.00265336327,48.4689925 -0.00265336327,48.5579194 0.00796008981,48.6458858 C0.0026270321,48.7230441 0.0026270321,48.8004796 0.00796008981,48.8776379 C0.00796008981,54.207938 10.8254124,57 21.5106758,57 C32.1959393,57 42.9913601,54.207938 42.9913601,48.8776379 C42.9966887,48.8041627 42.9966887,48.7303969 42.9913601,48.6569216 C43.00288,48.5653185 43.00288,48.4726292 42.9913601,48.3810261 L42.9913601,7.62575024 C42.9969842,7.33807698 42.9205538,7.05476882 42.7710454,6.80909971 Z" id="Path" fill="url(#linearGradient-7)"></path>
            <path d="M21.4979885,0 C35.4219291,0 42.9895712,3.95423341 42.9895712,5.98627002 C43.0034763,6.04950499 43.0034763,6.11525474 42.9895712,6.1784897 C42.5336892,8.26544622 34.9530218,12 21.4979885,12 C8.04295525,12 0.462287908,8.22425629 0.00640585121,6.1784897 C-0.00213528374,6.12854899 -0.00213528374,6.07740067 0.00640585121,6.02745995 C0.00640585121,3.95423341 7.574048,0 21.4979885,0 Z" id="Path" fill="#A1E0E9"></path>
        </g>
        <g id="Group-Copy-2" transform="translate(60.000000, 440.000000)" fill-rule="nonzero">
            <path d="M42.7710454,7.2683831 C41.162748,2.78784099 31.2816332,0.459283388 21.5106758,0.459283388 C11.7397184,0.459283388 1.96876101,2.76576935 0.272337742,7.20216819 C0.0996847698,7.46410927 0.0077439811,7.77113728 0.00796008981,8.08503363 L0.00796008981,48.8403095 C-0.00265336327,48.9282759 -0.00265336327,49.0172028 0.00796008981,49.1051692 C0.0026270321,49.1823275 0.0026270321,49.259763 0.00796008981,49.3369213 C0.00796008981,54.6672214 10.8254124,57.4592834 21.5106758,57.4592834 C32.1959393,57.4592834 42.9913601,54.6672214 42.9913601,49.3369213 C42.9966887,49.2634461 42.9966887,49.1896803 42.9913601,49.116205 C43.00288,49.0246019 43.00288,48.9319126 42.9913601,48.8403095 L42.9913601,8.08503363 C42.9969842,7.79736037 42.9205538,7.51405221 42.7710454,7.2683831 Z" id="Path" fill="url(#linearGradient-8)"></path>
            <path d="M21.9979418,0.459283388 C36.2456949,0.459283388 43.9893287,4.4135168 43.9893287,6.44555341 C44.0035571,6.50878838 44.0035571,6.57453812 43.9893287,6.63777309 C43.5228447,8.72472961 35.7658828,12.4592834 21.9979418,12.4592834 C8.23000072,12.4592834 0.47303879,8.68353968 0.00655482449,6.63777309 C-0.0021849415,6.58783237 -0.0021849415,6.53668406 0.00655482449,6.48674334 C0.00655482449,4.4135168 7.75018865,0.459283388 21.9979418,0.459283388 Z" id="Path" fill="#7BB2FF"></path>
        </g>
        <text id="Local-Repository-Copy-2" font-family="Helvetica-Bold, Helvetica" font-size="18" font-weight="bold" fill="#0055C2">
            <tspan x="58.4936523" y="515">Local </tspan>
            <tspan x="34.9916992" y="537">Repository</tspan>
        </text>
        <text id="Remote-Repository-Copy-2" font-family="Helvetica-Bold, Helvetica" font-size="18" font-weight="bold" fill="#199ABD">
            <tspan x="49.4926758" y="343">Remote </tspan>
            <tspan x="35.4916992" y="365">Repository</tspan>
        </text>
        <g id="Group-5-Copy-7" transform="translate(608.000000, 402.298742) rotate(-90.000000) translate(-608.000000, -402.298742) translate(576.201258, 382.298742)" fill="#FFC159">
            <rect id="Rectangle" transform="translate(26.097484, 21.000000) rotate(-540.000000) translate(-26.097484, -21.000000) " x="0.0974842767" y="10" width="52" height="22"></rect>
            <path d="M56.6709466,13.4014236 L73.4985815,25.1807681 C73.9510308,25.4974826 74.0610656,26.121013 73.7443511,26.5734623 C73.5572224,26.840789 73.251433,27 72.9251192,27 L39.2698494,27 C38.7175646,27 38.2698494,26.5522847 38.2698494,26 C38.2698494,25.6736862 38.4290603,25.3678968 38.696387,25.1807681 L55.5240219,13.4014236 C55.8683421,13.1603995 56.3266265,13.1603995 56.6709466,13.4014236 Z" id="Triangle-Copy" transform="translate(56.097484, 20.000000) scale(-1, 1) rotate(-450.000000) translate(-56.097484, -20.000000) "></path>
        </g>
        <g id="Group-5-Copy-8" transform="translate(266.500000, 402.701258) rotate(-90.000000) translate(-266.500000, -402.701258) translate(234.701258, 382.701258)" fill="#FFC159">
            <rect id="Rectangle" transform="translate(25.500000, 20.500000) rotate(-540.000000) translate(-25.500000, -20.500000) " x="-0.5" y="9.5" width="52" height="22"></rect>
            <path d="M57.0734623,13.9014236 L73.9010973,25.6807681 C74.3535466,25.9974826 74.4635813,26.621013 74.1468668,27.0734623 C73.9597382,27.340789 73.6539487,27.5 73.3276349,27.5 L39.6723651,27.5 C39.1200803,27.5 38.6723651,27.0522847 38.6723651,26.5 C38.6723651,26.1736862 38.8315761,25.8678968 39.0989027,25.6807681 L55.9265377,13.9014236 C56.2708578,13.6603995 56.7291422,13.6603995 57.0734623,13.9014236 Z" id="Triangle-Copy" transform="translate(56.500000, 20.500000) scale(-1, 1) rotate(-450.000000) translate(-56.500000, -20.500000) "></path>
        </g>
        <text id="$-git-push-origin-Br-Copy-2" font-family="Helvetica-Bold, Helvetica" font-size="18" font-weight="bold" fill="#0055C2">
            <tspan x="495.825195" y="408">$ git push origin Branch A</tspan>
        </text>
        <text id="$-git-push-origin-ma-copy-2" font-family="Helvetica-Bold, Helvetica" font-size="18" font-weight="bold" fill="#0055C2">
            <tspan x="163.985352" y="408">$ git push origin master</tspan>
        </text>
        <text id="Push-New-Branch" font-family="Helvetica-Bold, Helvetica" font-size="18" font-weight="bold" fill="#0055C2">
            <tspan x="531.482422" y="246">Push New Branch</tspan>
        </text>
        <text id="Push-Existing-Branch" font-family="Helvetica-Bold, Helvetica" font-size="18" font-weight="bold" fill="#0055C2">
            <tspan x="172.980957" y="246">Push Existing Branch</tspan>
        </text>
        <g id="trial-copy" transform="translate(4.000000, 570.000000)" fill="#006AE1" fill-rule="nonzero">
            <path d="M24.7390408,0.0712262435 C23.8197062,-0.175854327 23.1591603,0.239201967 22.6859188,1.01735927 C22.6046689,1.15134921 22.52713,1.31717641 22.4478332,1.49316028 C22.1428011,1.2575123 21.7678493,1.130415 21.3824051,1.13201247 C21.3529129,1.13201247 21.3224442,1.13259843 21.2931474,1.134161 L15.1740157,1.4288998 C14.9503832,1.43964243 14.7687429,1.47870655 14.6234306,1.53906062 C14.2647714,1.59678794 13.9347315,1.76994119 13.6833929,2.03224516 L0.468959043,15.8746167 C-0.17420408,16.5457384 -0.153305673,17.6121889 0.516224599,18.2565516 L7.02930103,24.5302495 C7.34177077,24.8320424 7.7593469,25.0004949 8.19375245,25 C8.63515806,25 9.07597773,24.8259649 9.40566475,24.4831773 L22.6199033,10.6400244 C23.0124808,10.2306324 23.3675584,9.67455464 23.2691211,9.15636906 C23.2718554,9.11457045 23.2687304,9.07296716 23.2691211,9.02804342 L23.1146291,2.88735879 C23.1183122,2.59624806 23.0497989,2.30876172 22.9152153,2.0506053 C23.3099413,1.28006549 23.6851361,0.550347698 24.542752,0.780630696 C25.0023217,0.904854604 25.1966573,0.194082907 24.7390408,0.0712262435 Z M8.52812889,13.4245632 L9.32781975,14.170287 L8.29716074,16.7269943 L10.7727157,15.5176743 L11.5754357,16.2662228 L7.51909394,18.1808206 L6.90418013,17.6074042 L8.52812889,13.4245632 Z M10.8555796,8.86713434 L14.7160332,15.2007265 L13.8468014,16.1328635 L9.99486962,9.79013275 L10.8555796,8.86713434 Z M17.1802579,6.51873344 L17.7982008,7.09497455 L16.1742521,11.2778156 L15.3745612,10.5320918 L16.4052202,7.97538454 L13.9296652,9.1847045 L13.1269453,8.43615601 L17.1802579,6.51873344 Z M21.1763507,2.2398705 C21.4058425,2.2398705 21.6355297,2.32542139 21.8136544,2.49691289 C21.8259591,2.50882745 21.8343575,2.52289053 21.8460763,2.53539105 C21.6548656,2.73520403 21.419905,2.85845134 21.1132648,2.82387959 C20.6425624,2.7709477 20.6474452,3.50808768 21.1132648,3.56062893 C21.5214674,3.60652927 21.8320138,3.4873837 22.0857244,3.27643744 C22.062433,3.47297911 21.9760108,3.65665988 21.8394357,3.79989667 C21.6663502,3.98098016 21.4266486,4.08326003 21.1761554,4.0829171 C20.9384391,4.08306483 20.7099506,3.99090921 20.5388516,3.82587432 C20.1727885,3.47281343 20.1612599,2.89015669 20.5130704,2.52289053 C20.686209,2.34188379 20.9258761,2.23961864 21.1763507,2.2398705 Z" id="Shape"></path>
        </g>
        <polyline id="Path-23" stroke="#0055C2" stroke-width="4" points="312.962286 103 303.962286 103 303.962286 176 312.962286 176"></polyline>
        <polyline id="Path-23-Copy" stroke="#0055C2" stroke-width="4" points="536.962286 103 527.962286 103 527.962286 176 536.962286 176"></polyline>
        <polyline id="Path-23-Copy-2" stroke="#0055C2" stroke-width="4" transform="translate(484.462286, 139.500000) scale(-1, 1) translate(-484.462286, -139.500000) " points="488.962286 103 479.962286 103 479.962286 176 488.962286 176"></polyline>
        <polyline id="Path-23-Copy-3" stroke="#0055C2" stroke-width="4" transform="translate(647.462286, 139.500000) scale(-1, 1) translate(-647.462286, -139.500000) " points="651.962286 103 642.962286 103 642.962286 176 651.962286 176"></polyline>
        <g id="git" transform="translate(661.000000, 9.000000)">
            <path d="M46.8658496,11.2380575 C45.1623498,11.2380575 43.8939053,12.0891281 43.8939053,14.1376499 C43.8939053,15.6808485 44.7297841,16.7522856 46.7743573,16.7522856 C48.5071097,16.7522856 49.6846843,15.7131436 49.6846843,14.073693 C49.6846843,12.2157755 48.6309666,11.2380575 46.8658496,11.2380575 L46.8658496,11.2380575 Z M43.4607172,25.7011913 C43.0574041,26.2046147 42.6553359,26.7397 42.6553359,27.3710373 C42.6553359,28.6305458 44.2337339,29.0092215 46.4027864,29.0092215 C48.1984009,29.0092215 50.6450424,28.8813076 50.6450424,27.1823327 C50.6450424,26.1723196 49.4674678,26.1102624 47.9805621,26.0152768 L43.4607172,25.7011913 Z M52.6255087,11.3330431 C53.1825537,12.0580995 53.7719634,13.0662128 53.7719634,14.5156924 C53.7719634,18.0124273 51.0776081,20.0603158 47.1764255,20.0603158 C46.1843252,20.0603158 45.2862067,19.9349349 44.7291617,19.7772589 L43.7071863,21.4471049 L46.7413702,21.6351763 C52.0989611,21.9828234 55.257002,22.1404995 55.257002,26.3293624 C55.257002,29.9533779 52.1300809,32 46.7413702,32 C41.1360655,32 39,30.5505204 39,28.0625322 C39,26.6440812 39.6199071,25.8898959 40.7034998,24.848221 C39.680902,24.4087545 39.3410734,23.6216409 39.3410734,22.7705703 C39.3410734,22.0771758 39.6815244,21.4471049 40.2391918,20.8480627 C40.7968593,20.2502869 41.416144,19.6506115 42.1586633,18.9578502 C40.6412601,18.2017651 39.4960502,16.563581 39.4960502,14.231369 C39.4960502,10.6086199 41.8493321,8.12063165 46.5870158,8.12063165 C47.9189448,8.12063165 48.7249485,8.24537935 49.436348,8.43598369 L55.4754632,8.43598369 L55.4754632,11.1133099 L52.6255087,11.3330431 L52.6255087,11.3330431 Z M60.9233016,5.60858036 C59.1575621,5.60858036 58.1355867,4.56817192 58.1355867,2.77167847 C58.1355867,0.977717972 59.1575621,0 60.9233016,0 C62.7195385,0 63.7408917,0.977084735 63.7408917,2.77167847 C63.7415139,4.56817192 62.7195385,5.60858036 60.9233016,5.60858036 Z M56.9275147,24.5423675 L56.9275147,22.0543792 L58.50778,21.8340127 C58.9409681,21.770689 59.0025853,21.6763367 59.0025853,21.2026754 L59.0025853,11.9403174 C59.0025853,11.59457 58.9104706,11.372937 58.5998947,11.279218 L56.9275147,10.6801757 L57.2679657,8.12949697 L63.6792742,8.12949697 L63.6792742,21.2033087 C63.6792742,21.7086318 63.7091492,21.770689 64.174702,21.834646 L65.7543448,22.0550125 L65.7543448,24.5430008 L56.9275147,24.5430008 L56.9275147,24.5423675 Z M78,23.32022 C76.6674487,23.9806863 74.7174798,24.5803617 72.9511179,24.5803617 C69.2665294,24.5803617 67.8736056,23.0694582 67.8736056,19.5074999 L67.8736056,11.2532552 C67.8736056,11.0651838 67.8736056,10.9385364 67.6252693,10.9385364 L65.458084,10.9385364 L65.458084,8.13456287 C68.1841815,7.81857759 69.2671518,6.43242174 69.6076028,2.99837733 L72.5502944,2.99837733 L72.5502944,7.47346341 C72.5502944,7.69319666 72.5502944,7.78881545 72.7980083,7.78881545 L77.1641212,7.78881545 L77.1641212,10.9391697 L72.5502944,10.9391697 L72.5502944,18.4683579 C72.5502944,20.3269086 72.9841049,21.0513318 74.6558625,21.0513318 C75.5241059,21.0513318 76.4209796,20.8315985 77.1641212,20.5479083 L78,23.32022 L78,23.32022 Z" id="Shape" fill="#31251C" fill-rule="nonzero"></path>
            <path d="M32.3772539,15.0299695 L17.9690664,0.622277028 C17.140005,-0.207425676 15.7941261,-0.207425676 14.9644314,0.622277028 L11.9724635,3.61427365 L15.7668919,7.40937182 C16.6497884,7.11169223 17.6606226,7.31120089 18.3636464,8.01486479 C19.0704703,8.72232885 19.2687104,9.74203981 18.9634334,10.6274783 L22.6210571,14.2851371 C23.5052204,13.9804906 24.5268216,14.1774658 25.2336455,14.8849299 C26.221679,15.8723394 26.221679,17.4728423 25.2336455,18.4608852 C24.2449787,19.4489281 22.6451246,19.4489281 21.6570912,18.4608852 C20.914166,17.7173195 20.7304932,16.6260388 21.1067059,15.7108324 L17.6954571,12.2995509 L17.6948238,21.2768075 C17.9361319,21.3958793 18.1628729,21.5542195 18.3636464,21.7543616 C19.3516798,22.7417711 19.3516798,24.3416406 18.3636464,25.3309502 C17.375613,26.3183598 15.7744921,26.3183598 14.7877254,25.3309502 C13.799692,24.3416406 13.799692,22.7417711 14.7877254,21.7543616 C15.0322003,21.5105176 15.3140432,21.3262096 15.6155201,21.2027043 L15.6155201,12.1424774 C15.3140432,12.0196054 15.0322003,11.8359308 14.7877254,11.5908201 C14.0391001,10.842821 13.8592273,9.74520661 14.2430403,8.82620003 L10.5024471,5.08430417 L0.622746073,14.9634666 C-0.207582024,15.7938027 -0.207582024,17.1396945 0.622746073,17.9700305 L15.0309336,32.377723 C15.8606284,33.2074257 17.2058739,33.2074257 18.0368353,32.377723 L32.3772539,18.0359 C33.207582,17.2061973 33.207582,15.8596722 32.3772539,15.0299695 L32.3772539,15.0299695 Z" id="Path" fill="#F34F29" fill-rule="nonzero"></path>
            <polygon id="Path" points="1.12409637e-15 0 79 0 79 33 0 33"></polygon>
        </g>
        <g id="github-copy" transform="translate(748.000000, 3.000000)" fill="#000000" fill-rule="nonzero">
            <path d="M22.9998956,0 C11.7204239,0.000469179946 2.10590223,8.20619911 0.299077857,19.3745239 C-1.50774651,30.5428487 5.02642435,41.3773525 15.7268887,44.9558377 C16.8767785,45.1577383 17.3079872,44.4656891 17.3079872,43.8600567 C17.3079872,43.3121892 17.279217,41.4954764 17.279217,39.5634644 C11.5009978,40.6303861 10.0061411,38.1505528 9.54618516,36.8529173 C9.03580825,35.5908656 8.22674528,34.472458 7.1889111,33.5943411 C6.38398825,33.161796 5.23409847,32.0948512 7.16014086,32.066061 C8.65271236,32.2285228 9.97246422,33.1110528 10.6960749,34.4305721 C11.3313462,35.5753322 12.3946869,36.4194146 13.6513665,36.7764896 C14.9080461,37.1335647 16.2547288,36.9742705 17.3941369,36.3337708 C17.4936968,35.160991 18.0147545,34.0644705 18.8602924,33.2483742 C13.7432829,32.6716473 8.39629538,30.6818473 8.39629538,21.8580182 C8.36397821,19.5652878 9.20739391,17.3470389 10.7535694,15.6582042 C10.0504849,13.6655423 10.1327507,11.4787423 10.9835474,9.54489918 C10.9835474,9.54489918 12.9095438,8.93931288 17.3079412,11.9094794 C21.0710431,10.8713094 25.0437372,10.8713094 28.806839,11.9094794 C33.2051215,8.9104996 35.1312329,9.54489918 35.1312329,9.54489918 C35.982145,11.4787155 36.0644125,13.6655602 35.3612108,15.6582042 C36.9120423,17.3441484 37.7561944,19.564334 37.7184849,21.8580182 C37.7184849,30.7107067 32.3427041,32.6716473 27.2257406,33.2483742 C28.336287,34.3774629 28.9028084,35.9349635 28.7780918,37.5161532 C28.7780918,40.6016882 28.7493216,43.0815215 28.7493216,43.8601489 C28.7493216,44.4657352 29.1805302,45.1866208 30.33042,44.95593 C41.0111617,41.3485442 47.5153422,30.5121007 45.6961446,19.3555019 C43.876947,8.19890308 34.2698179,0.00588375885 22.9998956,0 Z" id="Path"></path>
        </g>
    </g>
</svg>