<?xml version="1.0" encoding="UTF-8"?>
<svg width="800px" height="600px" viewBox="0 0 800 600" version="1.1" xmlns="http://www.w3.org/2000/svg" xmlns:xlink="http://www.w3.org/1999/xlink">
    <title>2041-10-14-13-10_CreateLocalRepository—GitInit</title>
    <defs>
        <rect id="path-1" x="20" y="62" width="766" height="140"></rect>
        <filter x="-0.5%" y="-2.9%" width="102.1%" height="111.4%" filterUnits="objectBoundingBox" id="filter-2">
            <feOffset dx="4" dy="4" in="SourceAlpha" result="shadowOffsetOuter1"></feOffset>
            <feGaussianBlur stdDeviation="2" in="shadowOffsetOuter1" result="shadowBlurOuter1"></feGaussianBlur>
            <feComposite in="shadowBlurOuter1" in2="SourceAlpha" operator="out" result="shadowBlurOuter1"></feComposite>
            <feColorMatrix values="0 0 0 0 0   0 0 0 0 0   0 0 0 0 0  0 0 0 0.5 0" type="matrix" in="shadowBlurOuter1"></feColorMatrix>
        </filter>
        <path d="M8.68744595,14.5405413 C10.6544909,13.5649687 12,11.5915112 12,9.31636202 C12,6.07252388 9.26504479,3.44227578 5.89152197,3.44227578 C4.52034181,3.44227578 3.25480793,3.87689217 2.23537065,4.61058921 L2.23537065,1.05770107 C2.23537065,0.476155373 1.74046224,0 1.11695169,0 C0.493934821,0 0.0167986821,0.476630104 0.0167986821,1.05770107 L0.0167986821,1.80184219 L0,9.32158406 C-0.0041824725,11.2003327 0.951817666,12.865215 2.41753644,13.8939574 C2.4777647,13.9362085 2.55848043,13.9312238 2.6127846,13.8823265 C2.66758244,13.8334292 2.6779496,13.7558106 2.63746831,13.6950451 C0.724974359,10.8146136 1.16014819,5.53963813 5.89176881,5.53963813 C8.05899866,5.53963813 9.80709909,7.22944376 9.81623206,9.31351363 C9.82240299,10.8599505 9.11620201,12.0365717 8.19549958,12.7781018 C6.36026565,14.2561773 3.64974731,12.6382934 4.49738595,10.4697214 C4.5894562,10.2335427 4.71879884,9.9959397 4.88664808,9.76189723 L5.12361171,9.47705853 C5.19766284,9.39967734 5.25048599,9.29903433 5.2146946,9.19411874 C5.01401603,8.62800181 3.46832203,8.97526767 3.04005964,10.0315445 C3.34292878,9.79631524 3.65986763,9.66433998 3.96940137,9.71489885 C2.38890334,11.275815 3.44141679,13.9563846 5.46005069,14.7513219 C6.40494316,15.1232738 7.55964718,15.0976383 8.68744595,14.5405413" id="path-3"></path>
        <linearGradient x1="28.568518%" y1="104.445731%" x2="78.3472072%" y2="20.6880271%" id="linearGradient-5">
            <stop stop-color="#000F98" offset="0%"></stop>
            <stop stop-color="#00A5FD" offset="100%"></stop>
        </linearGradient>
        <linearGradient x1="78.4549092%" y1="0%" x2="21.5450908%" y2="100%" id="linearGradient-6">
            <stop stop-color="#00A5FF" offset="0.0491695804%"></stop>
            <stop stop-color="#0755C2" offset="100%"></stop>
        </linearGradient>
        <path d="M41.5550343,260.478712 L41.5544119,293.478712 C41.5542655,296.240135 43.7927996,298.478754 46.5542233,298.478806 C46.5542548,298.478806 46.5542862,298.478806 46.5543176,298.478712 L83.8143224,298.478712 C86.5757462,298.478712 88.8143224,296.240135 88.8143224,293.478712 L88.8143224,269.785725 C88.8143224,267.024301 86.5757462,264.785725 83.8143224,264.785725 L67.5256891,264.785725 C65.8970843,264.785725 64.3705282,263.992542 63.434347,262.659906 L59.8829281,257.60453 C58.9467469,256.271894 57.4201909,255.478712 55.791586,255.478712 L46.5551286,255.478712 C43.7937417,255.478806 41.5551807,257.717325 41.5550343,260.478712 Z" id="path-7"></path>
        <filter x="-10.6%" y="-11.6%" width="129.6%" height="132.6%" filterUnits="objectBoundingBox" id="filter-8">
            <feOffset dx="2" dy="2" in="SourceAlpha" result="shadowOffsetOuter1"></feOffset>
            <feGaussianBlur stdDeviation="2" in="shadowOffsetOuter1" result="shadowBlurOuter1"></feGaussianBlur>
            <feColorMatrix values="0 0 0 0 0   0 0 0 0 0   0 0 0 0 0  0 0 0 0.5 0" type="matrix" in="shadowBlurOuter1"></feColorMatrix>
        </filter>
        <path d="M490.554789,337.478712 L490.554412,357.448408 C490.554266,360.209832 492.7928,362.448451 495.554223,362.448503 C495.554255,362.448503 495.554286,362.448503 495.554318,362.448408 L518.493109,362.448408 C521.254533,362.448408 523.493109,360.209832 523.493109,357.448408 L523.493109,343.965418 C523.493109,341.203994 521.254533,338.965418 518.493109,338.965418 L509.442833,338.965418 C507.814229,338.965418 506.287672,338.172235 505.351491,336.839599 L503.781348,334.60453 C502.845166,333.271894 501.31861,332.478712 499.690005,332.478712 L495.554883,332.478712 C492.793496,332.478806 490.554935,334.717325 490.554789,337.478712 Z" id="path-9"></path>
        <filter x="-15.2%" y="-16.7%" width="142.5%" height="146.7%" filterUnits="objectBoundingBox" id="filter-10">
            <feOffset dx="2" dy="2" in="SourceAlpha" result="shadowOffsetOuter1"></feOffset>
            <feGaussianBlur stdDeviation="2" in="shadowOffsetOuter1" result="shadowBlurOuter1"></feGaussianBlur>
            <feColorMatrix values="0 0 0 0 0   0 0 0 0 0   0 0 0 0 0  0 0 0 0.5 0" type="matrix" in="shadowBlurOuter1"></feColorMatrix>
        </filter>
        <path d="M530.979031,376.509015 L530.978654,396.478712 C530.978508,399.240135 533.217042,401.478754 535.978466,401.478806 C535.978497,401.478806 535.978529,401.478806 535.97856,401.478712 L558.917351,401.478712 C561.678775,401.478712 563.917351,399.240135 563.917351,396.478712 L563.917351,382.995721 C563.917351,380.234297 561.678775,377.995721 558.917351,377.995721 L549.867076,377.995721 C548.238471,377.995721 546.711915,377.202538 545.775734,375.869902 L544.20559,373.634833 C543.269409,372.302197 541.742853,371.509015 540.114248,371.509015 L535.979125,371.509015 C533.217738,371.509109 530.979177,373.747628 530.979031,376.509015 Z" id="path-11"></path>
        <filter x="-15.2%" y="-16.7%" width="142.5%" height="146.7%" filterUnits="objectBoundingBox" id="filter-12">
            <feOffset dx="2" dy="2" in="SourceAlpha" result="shadowOffsetOuter1"></feOffset>
            <feGaussianBlur stdDeviation="2" in="shadowOffsetOuter1" result="shadowBlurOuter1"></feGaussianBlur>
            <feColorMatrix values="0 0 0 0 0   0 0 0 0 0   0 0 0 0 0  0 0 0 0.5 0" type="matrix" in="shadowBlurOuter1"></feColorMatrix>
        </filter>
        <path d="M13.75,0 C13.7941911,0 13.8378467,0.00229316871 13.8808541,0.00676700035 L13.75,0 C13.8162355,0 13.881929,0.00525694116 13.9465226,0.0155397695 C13.9701591,0.0191086024 13.992749,0.0233404213 14.0151161,0.0281708262 C14.0322448,0.0321398038 14.0500238,0.0363983451 14.0676885,0.0410407894 C14.0946367,0.0478045058 14.1205565,0.0555325238 14.1461088,0.0640632613 C14.160755,0.0693053936 14.1758776,0.0746759142 14.1908891,0.0803344975 C14.2187365,0.0904816017 14.2457589,0.101793784 14.2722804,0.114007418 C14.2843465,0.119888443 14.2963476,0.125640889 14.3082569,0.131585085 C14.337487,0.145899179 14.3659242,0.161546133 14.3936604,0.1782393 C14.4041654,0.184752089 14.415414,0.191741556 14.4265562,0.198913179 C14.4582781,0.219233101 14.4881961,0.24048749 14.5171,0.262983615 C14.5214712,0.266446375 14.5260487,0.270054306 14.530603,0.273695915 C14.5355396,0.277595341 14.5403427,0.281499913 14.5451161,0.285439232 L14.6338835,0.366116524 L14.6338835,0.366116524 L22.1338835,7.86611652 C22.1964743,7.92870737 22.2524583,7.99790512 22.3006994,8.07257393 C22.307848,8.08394838 22.3144473,8.0945475 22.3208831,8.10523728 C22.3376983,8.1327042 22.3537499,8.16181144 22.3686469,8.19159666 C22.3743591,8.2036524 22.3801116,8.21565349 22.3856703,8.22774155 C22.3982062,8.25424114 22.4095184,8.28126351 22.4198899,8.30874741 C22.4253241,8.3241224 22.4306946,8.339245 22.4357736,8.35447029 C22.4444675,8.37944354 22.4521955,8.40536325 22.4590909,8.43162036 C22.4636017,8.4499762 22.4678602,8.4677552 22.4717297,8.48563619 C22.4766596,8.50725102 22.4808914,8.52984086 22.484507,8.55263585 C22.4947431,8.61807104 22.5,8.68376452 22.5,8.75 L22.5,23.75 C22.5,25.8210678 20.8210678,27.5 18.75,27.5 L3.75,27.5 C1.67893219,27.5 0,25.8210678 0,23.75 L0,3.75 C0,1.67893219 1.67893219,0 3.75,0 Z M12.5,2.5 L3.75,2.5 C3.05964406,2.5 2.5,3.05964406 2.5,3.75 L2.5,23.75 C2.5,24.4403559 3.05964406,25 3.75,25 L18.75,25 C19.4403559,25 20,24.4403559 20,23.75 L20,10 L13.75,10 C13.1027913,10 12.5704661,9.50812534 12.5064536,8.87780524 L12.5,8.75 L12.5,2.5 Z M16.25,18.75 C16.9403559,18.75 17.5,19.3096441 17.5,20 C17.5,20.6903559 16.9403559,21.25 16.25,21.25 L16.25,21.25 L6.25,21.25 C5.55964406,21.25 5,20.6903559 5,20 C5,19.3096441 5.55964406,18.75 6.25,18.75 L6.25,18.75 Z M16.25,13.75 C16.9403559,13.75 17.5,14.3096441 17.5,15 C17.5,15.6903559 16.9403559,16.25 16.25,16.25 L16.25,16.25 L6.25,16.25 C5.55964406,16.25 5,15.6903559 5,15 C5,14.3096441 5.55964406,13.75 6.25,13.75 L6.25,13.75 Z M8.75,8.75 C9.44035594,8.75 10,9.30964406 10,10 C10,10.6903559 9.44035594,11.25 8.75,11.25 L8.75,11.25 L6.25,11.25 C5.55964406,11.25 5,10.6903559 5,10 C5,9.30964406 5.55964406,8.75 6.25,8.75 L6.25,8.75 Z M15,4.268 L15,7.5 L18.233,7.5 L15,4.268 Z" id="path-13"></path>
        <path d="M13.75,0 C13.7941911,0 13.8378467,0.00229316871 13.8808541,0.00676700035 L13.75,0 C13.8162355,0 13.881929,0.00525694116 13.9465226,0.0155397695 C13.9701591,0.0191086024 13.992749,0.0233404213 14.0151161,0.0281708262 C14.0322448,0.0321398038 14.0500238,0.0363983451 14.0676885,0.0410407894 C14.0946367,0.0478045058 14.1205565,0.0555325238 14.1461088,0.0640632613 C14.160755,0.0693053936 14.1758776,0.0746759142 14.1908891,0.0803344975 C14.2187365,0.0904816017 14.2457589,0.101793784 14.2722804,0.114007418 C14.2843465,0.119888443 14.2963476,0.125640889 14.3082569,0.131585085 C14.337487,0.145899179 14.3659242,0.161546133 14.3936604,0.1782393 C14.4041654,0.184752089 14.415414,0.191741556 14.4265562,0.198913179 C14.4582781,0.219233101 14.4881961,0.24048749 14.5171,0.262983615 C14.5214712,0.266446375 14.5260487,0.270054306 14.530603,0.273695915 C14.5355396,0.277595341 14.5403427,0.281499913 14.5451161,0.285439232 L14.6338835,0.366116524 L14.6338835,0.366116524 L22.1338835,7.86611652 C22.1964743,7.92870737 22.2524583,7.99790512 22.3006994,8.07257393 C22.307848,8.08394838 22.3144473,8.0945475 22.3208831,8.10523728 C22.3376983,8.1327042 22.3537499,8.16181144 22.3686469,8.19159666 C22.3743591,8.2036524 22.3801116,8.21565349 22.3856703,8.22774155 C22.3982062,8.25424114 22.4095184,8.28126351 22.4198899,8.30874741 C22.4253241,8.3241224 22.4306946,8.339245 22.4357736,8.35447029 C22.4444675,8.37944354 22.4521955,8.40536325 22.4590909,8.43162036 C22.4636017,8.4499762 22.4678602,8.4677552 22.4717297,8.48563619 C22.4766596,8.50725102 22.4808914,8.52984086 22.484507,8.55263585 C22.4947431,8.61807104 22.5,8.68376452 22.5,8.75 L22.5,23.75 C22.5,25.8210678 20.8210678,27.5 18.75,27.5 L3.75,27.5 C1.67893219,27.5 0,25.8210678 0,23.75 L0,3.75 C0,1.67893219 1.67893219,0 3.75,0 Z M12.5,2.5 L3.75,2.5 C3.05964406,2.5 2.5,3.05964406 2.5,3.75 L2.5,23.75 C2.5,24.4403559 3.05964406,25 3.75,25 L18.75,25 C19.4403559,25 20,24.4403559 20,23.75 L20,10 L13.75,10 C13.1027913,10 12.5704661,9.50812534 12.5064536,8.87780524 L12.5,8.75 L12.5,2.5 Z M16.25,18.75 C16.9403559,18.75 17.5,19.3096441 17.5,20 C17.5,20.6903559 16.9403559,21.25 16.25,21.25 L16.25,21.25 L6.25,21.25 C5.55964406,21.25 5,20.6903559 5,20 C5,19.3096441 5.55964406,18.75 6.25,18.75 L6.25,18.75 Z M16.25,13.75 C16.9403559,13.75 17.5,14.3096441 17.5,15 C17.5,15.6903559 16.9403559,16.25 16.25,16.25 L16.25,16.25 L6.25,16.25 C5.55964406,16.25 5,15.6903559 5,15 C5,14.3096441 5.55964406,13.75 6.25,13.75 L6.25,13.75 Z M8.75,8.75 C9.44035594,8.75 10,9.30964406 10,10 C10,10.6903559 9.44035594,11.25 8.75,11.25 L8.75,11.25 L6.25,11.25 C5.55964406,11.25 5,10.6903559 5,10 C5,9.30964406 5.55964406,8.75 6.25,8.75 L6.25,8.75 Z M15,4.268 L15,7.5 L18.233,7.5 L15,4.268 Z" id="path-15"></path>
        <linearGradient x1="1.18752487e-05%" y1="49.9999884%" x2="100.000032%" y2="49.9999884%" id="linearGradient-17">
            <stop stop-color="#FCD635" offset="0%"></stop>
            <stop stop-color="#F7A928" offset="100%"></stop>
        </linearGradient>
    </defs>
    <g id="2041-10-14-13-10_CreateLocalRepository—GitInit" stroke="none" stroke-width="1" fill="none" fill-rule="evenodd">
        <rect fill="#FFFFFF" x="0" y="0" width="800" height="600"></rect>
        <ellipse id="Oval" fill-opacity="0.5" fill="#FFC0C0" cx="275" cy="385" rx="78" ry="100"></ellipse>
        <text id="Create-Local-Reposit" fill-rule="nonzero" font-family="Helvetica" font-size="18" font-weight="normal" fill="#0055C2">
            <tspan x="10" y="23">Create Local Repository</tspan>
        </text>
        <ellipse id="Oval-Copy" fill-opacity="0.5" fill="#FFC0C0" cx="588" cy="387.5" rx="78" ry="28.5"></ellipse>
        <g id="Rectangle-Copy-4">
            <use fill="black" fill-opacity="1" filter="url(#filter-2)" xlink:href="#path-1"></use>
            <rect stroke="#006AE1" stroke-width="4" stroke-linejoin="square" fill="#FFFFFF" fill-rule="evenodd" x="22" y="64" width="762" height="136"></rect>
        </g>
        <g id="bloovee-winner-logo" transform="translate(725.000000, 580.000000)">
            <path d="M13,13.7751507 C13,14.396312 13.4732558,14.8717809 14.0514961,14.8717809 C14.6474304,14.8717809 15.1204503,14.3968042 15.1204503,13.7751507 L15.1204503,2.09687626 C15.1204503,1.49368045 14.6474304,1 14.0514961,1 C13.4557977,1 13,1.49392656 13,2.09687626 L13,13.7751507 Z M21.7920364,15 C24.6483217,15 26.751078,12.7149437 26.751078,9.97312215 L26.751078,9.93645297 C26.751078,7.17641992 24.6657798,4.92778666 21.8269526,4.92778666 C18.9881254,4.92778666 16.885369,7.212843 16.885369,9.97312215 L16.885369,10.0095452 C16.885369,12.7516128 18.9706673,15 21.7920364,15 Z M21.8269526,13.0621935 C20.179994,13.0621935 19.0055834,11.6547366 19.0055834,9.97312215 L19.0055834,9.93645297 C19.0055834,8.25459244 20.0919958,6.86534709 21.7920364,6.86534709 C23.456689,6.86534709 24.6306277,8.27305008 24.6306277,9.97312215 L24.6306277,10.0095452 C24.6306277,11.6731942 23.5444513,13.0621935 21.8269526,13.0621935 Z M32.8092717,15 C35.665557,15 37.7683133,12.7149437 37.7683133,9.97312215 L37.7683133,9.93645297 C37.7683133,7.17641992 35.6830151,4.92778666 32.8441878,4.92778666 C30.0053606,4.92778666 27.9026043,7.212843 27.9026043,9.97312215 L27.9026043,10.0095452 C27.9026043,12.7516128 29.9879025,15 32.8092717,15 Z M32.8441878,13.0621935 C31.1969933,13.0621935 30.0228187,11.6547366 30.0228187,9.97312215 L30.0228187,9.93645297 C30.0228187,8.25459244 31.109231,6.86534709 32.8092717,6.86534709 C34.4739243,6.86534709 35.647863,8.27305008 35.647863,9.97312215 L35.647863,10.0095452 C35.647863,11.6731942 34.5614506,13.0621935 32.8441878,13.0621935 Z M44.1416963,13.9944275 L47.2261164,6.6096472 C47.2784906,6.49988574 47.3487948,6.28060893 47.3487948,6.07954366 C47.3487948,5.47610175 46.8929971,5.01933658 46.3147568,5.01933658 C45.7539746,5.01933658 45.4737015,5.40300947 45.3158709,5.78692847 L42.8976893,12.2215093 L40.5144239,5.82335156 C40.3393711,5.36634029 40.041404,5.01933658 39.4629278,5.01933658 C38.8846875,5.01933658 38.4116676,5.53098247 38.4116676,6.07954366 C38.4116676,6.28060893 38.4817358,6.46346265 38.534346,6.62785874 L41.6182943,13.9944275 C41.8638872,14.5796579 42.2491448,14.9633308 42.8273851,14.9633308 L42.9326055,14.9633308 C43.5108458,14.9633308 43.8965752,14.5612003 44.1416963,13.9944275 Z M50.0949054,9.27837643 C50.2876522,7.77961573 51.1987758,6.73762019 52.4956289,6.73762019 C53.8974665,6.73762019 54.7036056,7.8524619 54.8437422,9.27837643 L50.0949054,9.27837643 Z M56.070527,13.72027 C56.2281217,13.5558739 56.3508002,13.3181395 56.3508002,13.0439819 C56.3508002,12.5320899 55.9830006,12.1481709 55.5095089,12.1481709 C55.2641519,12.1481709 55.1242513,12.2215093 54.9664207,12.3492362 C54.3704864,12.8611282 53.6695676,13.1901665 52.7759021,13.1901665 C51.4089807,13.1901665 50.3402624,12.3128131 50.1123635,10.7409601 L55.9126964,10.7409601 C56.4560206,10.7409601 56.9115824,10.3021604 56.9115824,9.68050697 C56.9115824,7.45057746 55.4568987,4.92778666 52.513087,4.92778666 C49.8672425,4.92778666 47.9919132,7.19438536 47.9919132,9.95466451 L47.9919132,9.9913337 C47.9919132,12.9708897 50.0597533,15 52.7409859,15 C54.1779755,15 55.2292357,14.5063195 56.070527,13.72027 Z M60.1833231,9.27837643 C60.3763058,7.77961573 61.2871935,6.73762019 62.5842825,6.73762019 C63.9858841,6.73762019 64.7920233,7.8524619 64.9321598,9.27837643 L60.1833231,9.27837643 Z M66.1589447,13.72027 C66.3167752,13.5558739 66.4394537,13.3181395 66.4394537,13.0439819 C66.4394537,12.5320899 66.0714183,12.1481709 65.5981624,12.1481709 C65.3528055,12.1481709 65.2126689,12.2215093 65.0548383,12.3492362 C64.4591399,12.8611282 63.7582212,13.1901665 62.8643197,13.1901665 C61.4976342,13.1901665 60.4289159,12.3128131 60.2007812,10.7409601 L66.0011141,10.7409601 C66.5444382,10.7409601 67,10.3021604 67,9.68050697 C67,7.45057746 65.5455522,4.92778666 62.6015046,4.92778666 C59.9556601,4.92778666 58.0805667,7.19438536 58.0805667,9.95466451 L58.0805667,9.9913337 C58.0805667,12.9708897 60.1484069,15 62.8294035,15 C64.2663932,15 65.3178893,14.5063195 66.1589447,13.72027 L66.1589447,13.72027 Z" id="Fill-1" fill="#030060"></path>
            <g id="Group-4">
                <mask id="mask-4" fill="white">
                    <use xlink:href="#path-3"></use>
                </mask>
                <g id="Clip-3"></g>
                <path d="M8.68744595,14.5405413 C10.6544909,13.5649687 12,11.5915112 12,9.31636202 C12,6.07252388 9.26504479,3.44227578 5.89152197,3.44227578 C4.52034181,3.44227578 3.25480793,3.87689217 2.23537065,4.61058921 L2.23537065,1.05770107 C2.23537065,0.476155373 1.74046224,0 1.11695169,0 C0.493934821,0 0.0167986821,0.476630104 0.0167986821,1.05770107 L0.0167986821,1.80184219 L0,9.32158406 C-0.0041824725,11.2003327 0.951817666,12.865215 2.41753644,13.8939574 C2.4777647,13.9362085 2.55848043,13.9312238 2.6127846,13.8823265 C2.66758244,13.8334292 2.6779496,13.7558106 2.63746831,13.6950451 C0.724974359,10.8146136 1.16014819,5.53963813 5.89176881,5.53963813 C8.05899866,5.53963813 9.80709909,7.22944376 9.81623206,9.31351363 C9.82240299,10.8599505 9.11620201,12.0365717 8.19549958,12.7781018 C6.36026565,14.2561773 3.64974731,12.6382934 4.49738595,10.4697214 C4.5894562,10.2335427 4.71879884,9.9959397 4.88664808,9.76189723 L5.12361171,9.47705853 C5.19766284,9.39967734 5.25048599,9.29903433 5.2146946,9.19411874 C5.01401603,8.62800181 3.46832203,8.97526767 3.04005964,10.0315445 C3.34292878,9.79631524 3.65986763,9.66433998 3.96940137,9.71489885 C2.38890334,11.275815 3.44141679,13.9563846 5.46005069,14.7513219 C6.40494316,15.1232738 7.55964718,15.0976383 8.68744595,14.5405413" id="Fill-2" fill="url(#linearGradient-5)" mask="url(#mask-4)"></path>
            </g>
        </g>
        <g id="Group-Copy" transform="translate(254.000000, 339.000000)" fill-rule="nonzero">
            <path d="M42.7710454,6.80909971 C41.162748,2.3285576 31.2816332,0 21.5106758,0 C11.7397184,0 1.96876101,2.30648596 0.272337742,6.7428848 C0.0996847698,7.00482588 0.0077439811,7.31185389 0.00796008981,7.62575024 L0.00796008981,48.3810261 C-0.00265336327,48.4689925 -0.00265336327,48.5579194 0.00796008981,48.6458858 C0.0026270321,48.7230441 0.0026270321,48.8004796 0.00796008981,48.8776379 C0.00796008981,54.207938 10.8254124,57 21.5106758,57 C32.1959393,57 42.9913601,54.207938 42.9913601,48.8776379 C42.9966887,48.8041627 42.9966887,48.7303969 42.9913601,48.6569216 C43.00288,48.5653185 43.00288,48.4726292 42.9913601,48.3810261 L42.9913601,7.62575024 C42.9969842,7.33807698 42.9205538,7.05476882 42.7710454,6.80909971 Z" id="Path" fill="url(#linearGradient-6)"></path>
            <path d="M21.9979418,1 C36.2456949,1 43.9893287,4.95423341 43.9893287,6.98627002 C44.0035571,7.04950499 44.0035571,7.11525474 43.9893287,7.1784897 C43.5228447,9.26544622 35.7658828,13 21.9979418,13 C8.23000072,13 0.47303879,9.22425629 0.00655482449,7.1784897 C-0.0021849415,7.12854899 -0.0021849415,7.07740067 0.00655482449,7.02745995 C0.00655482449,4.95423341 7.75018865,1 21.9979418,1 Z" id="Path" fill="#7BB2FF"></path>
        </g>
        <rect id="Rectangle-Copy-4" stroke="#006AE1" x="63.5" y="277.5" width="301" height="218"></rect>
        <text id="Working-Directory-(Y" font-family="Helvetica" font-size="21" font-weight="normal" fill="#0055C2">
            <tspan x="130.753662" y="516">Working Directory</tspan>
            <tspan x="108.753906" y="541">(Your Local Computer)</tspan>
        </text>
        <text id="Directory-Structure" font-family="Helvetica-Bold, Helvetica" font-size="24" font-weight="bold" fill="#0055C2">
            <tspan x="481.634766" y="260">Directory Structure</tspan>
        </text>
        <text id="Working-Directory" font-family="Helvetica" font-size="21" font-weight="normal" fill="#0055C2">
            <tspan x="530" y="356">Working Directory</tspan>
        </text>
        <text id="…" font-family="Helvetica" font-size="21" font-weight="normal" fill="#0055C2">
            <tspan x="531" y="515">…</tspan>
        </text>
        <text id="Local-Repository-(-." font-family="Helvetica" font-size="21" font-weight="normal" fill="#0055C2">
            <tspan x="253.398438" y="425">Local </tspan>
            <tspan x="228.312256" y="450">Repository</tspan>
            <tspan x="211.403564" y="475">( .git directory)</tspan>
        </text>
        <text id=".git" font-family="Helvetica-Bold, Helvetica" font-size="21" font-weight="bold" fill="#0055C2">
            <tspan x="571" y="397">.git</tspan>
        </text>
        <g id="Path-Copy-4">
            <use fill="black" fill-opacity="1" filter="url(#filter-8)" xlink:href="#path-7"></use>
            <use fill="#7BB2FF" fill-rule="evenodd" xlink:href="#path-7"></use>
        </g>
        <g id="Path-Copy-5">
            <use fill="black" fill-opacity="1" filter="url(#filter-10)" xlink:href="#path-9"></use>
            <use fill="#7BB2FF" fill-rule="evenodd" xlink:href="#path-9"></use>
        </g>
        <g id="Path-Copy-6">
            <use fill="black" fill-opacity="1" filter="url(#filter-12)" xlink:href="#path-11"></use>
            <use fill="#7BB2FF" fill-rule="evenodd" xlink:href="#path-11"></use>
        </g>
        <g id="file-text" transform="translate(530.750000, 417.250000)">
            <mask id="mask-14" fill="white">
                <use xlink:href="#path-13"></use>
            </mask>
            <use id="Combined-Shape" fill="#0055C2" fill-rule="nonzero" xlink:href="#path-13"></use>
            <g id="Group" mask="url(#mask-14)">
                <g transform="translate(-3.750000, -1.250000)" id="🎨Color">
                    <rect id="Rectangle" fill="#0055C2" x="0" y="0" width="30" height="30"></rect>
                </g>
            </g>
        </g>
        <g id="file-text-copy" transform="translate(530.750000, 456.250000)">
            <mask id="mask-16" fill="white">
                <use xlink:href="#path-15"></use>
            </mask>
            <use id="Combined-Shape" fill="#0055C2" fill-rule="nonzero" xlink:href="#path-15"></use>
            <g id="Group" mask="url(#mask-16)">
                <g transform="translate(-3.750000, -1.250000)" id="🎨Color">
                    <rect id="Rectangle" fill="#0055C2" x="0" y="0" width="30" height="30"></rect>
                </g>
            </g>
        </g>
        <polyline id="Path-3" stroke="#0055C2" points="507.023713 362.448408 507.023713 391.5 530.97856 391.5"></polyline>
        <polyline id="Path-3-Copy" stroke="#0055C2" points="507.023713 362.5 507.023713 430.5 530.97856 430.5"></polyline>
        <polyline id="Path-3-Copy-2" stroke="#0055C2" points="507.023713 401.5 507.023713 469.5 530.97856 469.5"></polyline>
        <polyline id="Path-3-Copy-3" stroke="#0055C2" points="507.023713 444.5 507.023713 512.5 530.97856 512.5"></polyline>
        <g id="documents-copy-26" transform="translate(116.000000, 365.000000)" fill-rule="nonzero">
            <path d="M35,11.1236559 L35,43.1236559 L8,43.1236559 L8,39.4665131 C8.00883271,39.4556331 30.973487,11.1381016 30.9851301,11.1236559 L35,11.1236559 Z" id="Path" fill="#A4C2F7"></path>
            <path d="M32,40.1236559 C31.0219034,40.1236559 0.600937931,40.1236559 0,40.1236559 C0,37.6447035 0,1.77870353 0,0.123655914 L23.1724138,0.123655914 L25.5632552,5.42527496 L32,7.74270353 C32,9.16851306 32,38.5039416 32,40.1236559 Z" id="Path" fill="#FFFFFF"></path>
            <polygon id="Path" fill="#A4C2F7" points="32 9.12365591 23 9.12365591 23 1.12365591"></polygon>
            <path d="M30.9677419,40.1236559 L1.03225806,40.1236559 C0.462141935,40.1236559 0,39.716565 0,39.214565 L0,1.03274682 C0,0.530655914 0.462141935,0.123655914 1.03225806,0.123655914 L22.7096774,0.123655914 C22.9834323,0.123655914 23.2459355,0.219474096 23.4395871,0.389928641 L31.6976516,7.66265591 C31.8912,7.83311046 32,8.06438319 32,8.3054741 L32,39.214565 C32,39.716565 31.5377548,40.1236559 30.9677419,40.1236559 Z M2.06451613,38.3054741 L29.9354839,38.3054741 L29.9354839,8.68201955 L22.2820129,1.94183773 L2.06451613,1.94183773 L2.06451613,38.3054741 Z" id="Shape" fill="#418CFE"></path>
            <path d="M30.8096886,9.29032258 L22.5051903,9.29032258 C21.9319723,9.29032258 21.467128,8.87993091 21.467128,8.37365591 L21.467128,1.04032258 C21.467128,0.534047581 21.9319723,0.123655914 22.5051903,0.123655914 C23.0784083,0.123655914 23.5432526,0.534047581 23.5432526,1.04032258 L23.5432526,7.45698925 L30.8096886,7.45698925 C31.3829066,7.45698925 31.8477509,7.86738091 31.8477509,8.37365591 C31.8477509,8.87993091 31.3829066,9.29032258 30.8096886,9.29032258 Z M34.9619377,44.1236559 L7.03806228,44.1236559 C6.46474048,44.1236559 6,43.7131726 6,43.2069892 L6,39.5403226 C6,39.0341392 6.46474048,38.6236559 7.03806228,38.6236559 C7.61138408,38.6236559 8.07612457,39.0341392 8.07612457,39.5403226 L8.07612457,42.2903226 L33.9238754,42.2903226 L33.9238754,12.0403226 L30.8096886,12.0403226 C30.2364706,12.0403226 29.7716263,11.6299309 29.7716263,11.1236559 C29.7716263,10.6173809 30.2364706,10.2069892 30.8096886,10.2069892 L34.9619377,10.2069892 C35.5351557,10.2069892 36,10.6173809 36,11.1236559 L36,43.2069892 C36,43.7131726 35.5351557,44.1236559 34.9619377,44.1236559 Z" id="Shape" fill="#418CFE"></path>
            <path d="M25.9565217,33.1236559 L4.04347826,33.1236559 C3.46716522,33.1236559 3,32.716565 3,32.214565 C3,31.712565 3.46716522,31.3054741 4.04347826,31.3054741 L25.9565217,31.3054741 C26.5327304,31.3054741 27,31.712565 27,32.214565 C27,32.716565 26.5327304,33.1236559 25.9565217,33.1236559 Z M25.9565217,29.4872923 L4.04347826,29.4872923 C3.46716522,29.4872923 3,29.0802014 3,28.5782014 C3,28.0762014 3.46716522,27.6691105 4.04347826,27.6691105 L25.9565217,27.6691105 C26.5327304,27.6691105 27,28.0762014 27,28.5782014 C27,29.0802014 26.5327304,29.4872923 25.9565217,29.4872923 Z M25.9565217,25.8509286 L4.04347826,25.8509286 C3.46716522,25.8509286 3,25.4438377 3,24.9418377 C3,24.4398377 3.46716522,24.0327468 4.04347826,24.0327468 L25.9565217,24.0327468 C26.5327304,24.0327468 27,24.4398377 27,24.9418377 C27,25.4438377 26.5327304,25.8509286 25.9565217,25.8509286 Z M25.9565217,22.214565 L4.04347826,22.214565 C3.46716522,22.214565 3,21.807565 3,21.3054741 C3,20.8033832 3.46716522,20.3963832 4.04347826,20.3963832 L25.9565217,20.3963832 C26.5327304,20.3963832 27,20.8033832 27,21.3054741 C27,21.807565 26.5327304,22.214565 25.9565217,22.214565 Z M25.9565217,18.5782014 L4.04347826,18.5782014 C3.46716522,18.5782014 3,18.1712014 3,17.6691105 C3,17.1670196 3.46716522,16.7600196 4.04347826,16.7600196 L25.9565217,16.7600196 C26.5327304,16.7600196 27,17.1670196 27,17.6691105 C27,18.1712014 26.5327304,18.5782014 25.9565217,18.5782014 Z M13.4347826,14.9418377 L4.04347826,14.9418377 C3.46716522,14.9418377 3,14.5348377 3,14.0327468 C3,13.5306559 3.46716522,13.1236559 4.04347826,13.1236559 L13.4347826,13.1236559 C14.0110957,13.1236559 14.4782609,13.5306559 14.4782609,14.0327468 C14.4782609,14.5348377 14.0110957,14.9418377 13.4347826,14.9418377 Z" id="Shape" fill="#418CFE"></path>
        </g>
        <text id="Working-Files-Copy-2" font-family="Helvetica" font-size="21" font-weight="normal" fill="#0055C2">
            <tspan x="76" y="428">Working </tspan>
            <tspan x="76" y="453">Files</tspan>
        </text>
        <text id="Working-Files-Copy-3" font-family="Helvetica" font-size="21" font-weight="normal" fill="#0055C2">
            <tspan x="564" y="447">Working </tspan>
            <tspan x="564" y="472">Files</tspan>
        </text>
        <g id="star" transform="translate(298.000000, 326.000000)" fill="url(#linearGradient-17)" fill-rule="nonzero">
            <path d="M12.0477348,14.2321921 C11.5145894,14.6119273 8.09367648,12.2047136 7.43851045,12.1994411 C6.78334441,12.1941731 3.32392758,14.5460254 2.79699363,14.1577566 C2.27005968,13.7694923 3.50886355,9.78139044 3.31143599,9.15843081 C3.11400385,8.53547119 -0.198134752,5.98148451 0.00935103559,5.36178144 C0.216836824,4.74208293 4.40336871,4.68451399 4.93651415,4.3047779 C5.46965959,3.92504044 6.88206505,-0.00526630567 7.53723109,0 C8.19239713,0.00527735803 9.54101358,3.95779982 10.0679475,4.3460668 C10.5948815,4.73433379 14.779936,4.85926414 14.9773635,5.4822192 C15.1747957,6.10517883 11.8217518,8.60553727 11.614266,9.22524034 C11.4067802,9.84493885 12.5808803,13.8524524 12.0477348,14.2321921 L12.0477348,14.2321921 Z" id="Path"></path>
        </g>
        <g id="star-copy-2" transform="translate(305.000000, 345.000000)" fill="url(#linearGradient-17)" fill-rule="nonzero">
            <path d="M12.0477348,14.2321921 C11.5145894,14.6119273 8.09367648,12.2047136 7.43851045,12.1994411 C6.78334441,12.1941731 3.32392758,14.5460254 2.79699363,14.1577566 C2.27005968,13.7694923 3.50886355,9.78139044 3.31143599,9.15843081 C3.11400385,8.53547119 -0.198134752,5.98148451 0.00935103559,5.36178144 C0.216836824,4.74208293 4.40336871,4.68451399 4.93651415,4.3047779 C5.46965959,3.92504044 6.88206505,-0.00526630567 7.53723109,0 C8.19239713,0.00527735803 9.54101358,3.95779982 10.0679475,4.3460668 C10.5948815,4.73433379 14.779936,4.85926414 14.9773635,5.4822192 C15.1747957,6.10517883 11.8217518,8.60553727 11.614266,9.22524034 C11.4067802,9.84493885 12.5808803,13.8524524 12.0477348,14.2321921 L12.0477348,14.2321921 Z" id="Path"></path>
        </g>
        <g id="star-copy" transform="translate(278.000000, 322.000000)" fill="url(#linearGradient-17)" fill-rule="nonzero">
            <path d="M12.0477348,14.2321921 C11.5145894,14.6119273 8.09367648,12.2047136 7.43851045,12.1994411 C6.78334441,12.1941731 3.32392758,14.5460254 2.79699363,14.1577566 C2.27005968,13.7694923 3.50886355,9.78139044 3.31143599,9.15843081 C3.11400385,8.53547119 -0.198134752,5.98148451 0.00935103559,5.36178144 C0.216836824,4.74208293 4.40336871,4.68451399 4.93651415,4.3047779 C5.46965959,3.92504044 6.88206505,-0.00526630567 7.53723109,0 C8.19239713,0.00527735803 9.54101358,3.95779982 10.0679475,4.3460668 C10.5948815,4.73433379 14.779936,4.85926414 14.9773635,5.4822192 C15.1747957,6.10517883 11.8217518,8.60553727 11.614266,9.22524034 C11.4067802,9.84493885 12.5808803,13.8524524 12.0477348,14.2321921 L12.0477348,14.2321921 Z" id="Path"></path>
        </g>
        <g id="star-copy-3" transform="translate(591.000000, 362.000000)" fill="url(#linearGradient-17)" fill-rule="nonzero">
            <path d="M12.0477348,14.2321921 C11.5145894,14.6119273 8.09367648,12.2047136 7.43851045,12.1994411 C6.78334441,12.1941731 3.32392758,14.5460254 2.79699363,14.1577566 C2.27005968,13.7694923 3.50886355,9.78139044 3.31143599,9.15843081 C3.11400385,8.53547119 -0.198134752,5.98148451 0.00935103559,5.36178144 C0.216836824,4.74208293 4.40336871,4.68451399 4.93651415,4.3047779 C5.46965959,3.92504044 6.88206505,-0.00526630567 7.53723109,0 C8.19239713,0.00527735803 9.54101358,3.95779982 10.0679475,4.3460668 C10.5948815,4.73433379 14.779936,4.85926414 14.9773635,5.4822192 C15.1747957,6.10517883 11.8217518,8.60553727 11.614266,9.22524034 C11.4067802,9.84493885 12.5808803,13.8524524 12.0477348,14.2321921 L12.0477348,14.2321921 Z" id="Path"></path>
        </g>
        <g id="star-copy-4" transform="translate(607.000000, 377.000000)" fill="url(#linearGradient-17)" fill-rule="nonzero">
            <path d="M12.0477348,14.2321921 C11.5145894,14.6119273 8.09367648,12.2047136 7.43851045,12.1994411 C6.78334441,12.1941731 3.32392758,14.5460254 2.79699363,14.1577566 C2.27005968,13.7694923 3.50886355,9.78139044 3.31143599,9.15843081 C3.11400385,8.53547119 -0.198134752,5.98148451 0.00935103559,5.36178144 C0.216836824,4.74208293 4.40336871,4.68451399 4.93651415,4.3047779 C5.46965959,3.92504044 6.88206505,-0.00526630567 7.53723109,0 C8.19239713,0.00527735803 9.54101358,3.95779982 10.0679475,4.3460668 C10.5948815,4.73433379 14.779936,4.85926414 14.9773635,5.4822192 C15.1747957,6.10517883 11.8217518,8.60553727 11.614266,9.22524034 C11.4067802,9.84493885 12.5808803,13.8524524 12.0477348,14.2321921 L12.0477348,14.2321921 Z" id="Path"></path>
        </g>
        <text id="$-git-init" font-family="Helvetica-Bold, Helvetica" font-size="36" font-weight="bold" fill="#0055C2">
            <tspan x="333.505859" y="149">$ git init</tspan>
        </text>
        <g id="git" transform="translate(704.000000, 9.000000)">
            <path d="M46.8658496,11.2380575 C45.1623498,11.2380575 43.8939053,12.0891281 43.8939053,14.1376499 C43.8939053,15.6808485 44.7297841,16.7522856 46.7743573,16.7522856 C48.5071097,16.7522856 49.6846843,15.7131436 49.6846843,14.073693 C49.6846843,12.2157755 48.6309666,11.2380575 46.8658496,11.2380575 L46.8658496,11.2380575 Z M43.4607172,25.7011913 C43.0574041,26.2046147 42.6553359,26.7397 42.6553359,27.3710373 C42.6553359,28.6305458 44.2337339,29.0092215 46.4027864,29.0092215 C48.1984009,29.0092215 50.6450424,28.8813076 50.6450424,27.1823327 C50.6450424,26.1723196 49.4674678,26.1102624 47.9805621,26.0152768 L43.4607172,25.7011913 Z M52.6255087,11.3330431 C53.1825537,12.0580995 53.7719634,13.0662128 53.7719634,14.5156924 C53.7719634,18.0124273 51.0776081,20.0603158 47.1764255,20.0603158 C46.1843252,20.0603158 45.2862067,19.9349349 44.7291617,19.7772589 L43.7071863,21.4471049 L46.7413702,21.6351763 C52.0989611,21.9828234 55.257002,22.1404995 55.257002,26.3293624 C55.257002,29.9533779 52.1300809,32 46.7413702,32 C41.1360655,32 39,30.5505204 39,28.0625322 C39,26.6440812 39.6199071,25.8898959 40.7034998,24.848221 C39.680902,24.4087545 39.3410734,23.6216409 39.3410734,22.7705703 C39.3410734,22.0771758 39.6815244,21.4471049 40.2391918,20.8480627 C40.7968593,20.2502869 41.416144,19.6506115 42.1586633,18.9578502 C40.6412601,18.2017651 39.4960502,16.563581 39.4960502,14.231369 C39.4960502,10.6086199 41.8493321,8.12063165 46.5870158,8.12063165 C47.9189448,8.12063165 48.7249485,8.24537935 49.436348,8.43598369 L55.4754632,8.43598369 L55.4754632,11.1133099 L52.6255087,11.3330431 L52.6255087,11.3330431 Z M60.9233016,5.60858036 C59.1575621,5.60858036 58.1355867,4.56817192 58.1355867,2.77167847 C58.1355867,0.977717972 59.1575621,0 60.9233016,0 C62.7195385,0 63.7408917,0.977084735 63.7408917,2.77167847 C63.7415139,4.56817192 62.7195385,5.60858036 60.9233016,5.60858036 Z M56.9275147,24.5423675 L56.9275147,22.0543792 L58.50778,21.8340127 C58.9409681,21.770689 59.0025853,21.6763367 59.0025853,21.2026754 L59.0025853,11.9403174 C59.0025853,11.59457 58.9104706,11.372937 58.5998947,11.279218 L56.9275147,10.6801757 L57.2679657,8.12949697 L63.6792742,8.12949697 L63.6792742,21.2033087 C63.6792742,21.7086318 63.7091492,21.770689 64.174702,21.834646 L65.7543448,22.0550125 L65.7543448,24.5430008 L56.9275147,24.5430008 L56.9275147,24.5423675 Z M78,23.32022 C76.6674487,23.9806863 74.7174798,24.5803617 72.9511179,24.5803617 C69.2665294,24.5803617 67.8736056,23.0694582 67.8736056,19.5074999 L67.8736056,11.2532552 C67.8736056,11.0651838 67.8736056,10.9385364 67.6252693,10.9385364 L65.458084,10.9385364 L65.458084,8.13456287 C68.1841815,7.81857759 69.2671518,6.43242174 69.6076028,2.99837733 L72.5502944,2.99837733 L72.5502944,7.47346341 C72.5502944,7.69319666 72.5502944,7.78881545 72.7980083,7.78881545 L77.1641212,7.78881545 L77.1641212,10.9391697 L72.5502944,10.9391697 L72.5502944,18.4683579 C72.5502944,20.3269086 72.9841049,21.0513318 74.6558625,21.0513318 C75.5241059,21.0513318 76.4209796,20.8315985 77.1641212,20.5479083 L78,23.32022 L78,23.32022 Z" id="Shape" fill="#31251C" fill-rule="nonzero"></path>
            <path d="M32.3772539,15.0299695 L17.9690664,0.622277028 C17.140005,-0.207425676 15.7941261,-0.207425676 14.9644314,0.622277028 L11.9724635,3.61427365 L15.7668919,7.40937182 C16.6497884,7.11169223 17.6606226,7.31120089 18.3636464,8.01486479 C19.0704703,8.72232885 19.2687104,9.74203981 18.9634334,10.6274783 L22.6210571,14.2851371 C23.5052204,13.9804906 24.5268216,14.1774658 25.2336455,14.8849299 C26.221679,15.8723394 26.221679,17.4728423 25.2336455,18.4608852 C24.2449787,19.4489281 22.6451246,19.4489281 21.6570912,18.4608852 C20.914166,17.7173195 20.7304932,16.6260388 21.1067059,15.7108324 L17.6954571,12.2995509 L17.6948238,21.2768075 C17.9361319,21.3958793 18.1628729,21.5542195 18.3636464,21.7543616 C19.3516798,22.7417711 19.3516798,24.3416406 18.3636464,25.3309502 C17.375613,26.3183598 15.7744921,26.3183598 14.7877254,25.3309502 C13.799692,24.3416406 13.799692,22.7417711 14.7877254,21.7543616 C15.0322003,21.5105176 15.3140432,21.3262096 15.6155201,21.2027043 L15.6155201,12.1424774 C15.3140432,12.0196054 15.0322003,11.8359308 14.7877254,11.5908201 C14.0391001,10.842821 13.8592273,9.74520661 14.2430403,8.82620003 L10.5024471,5.08430417 L0.622746073,14.9634666 C-0.207582024,15.7938027 -0.207582024,17.1396945 0.622746073,17.9700305 L15.0309336,32.377723 C15.8606284,33.2074257 17.2058739,33.2074257 18.0368353,32.377723 L32.3772539,18.0359 C33.207582,17.2061973 33.207582,15.8596722 32.3772539,15.0299695 L32.3772539,15.0299695 Z" id="Path" fill="#F34F29" fill-rule="nonzero"></path>
            <polygon id="Path" points="1.12409637e-15 0 79 0 79 33 0 33"></polygon>
        </g>
        <g id="trial-copy" transform="translate(4.000000, 570.000000)" fill="#006AE1" fill-rule="nonzero">
            <path d="M24.7390408,0.0712262435 C23.8197062,-0.175854327 23.1591603,0.239201967 22.6859188,1.01735927 C22.6046689,1.15134921 22.52713,1.31717641 22.4478332,1.49316028 C22.1428011,1.2575123 21.7678493,1.130415 21.3824051,1.13201247 C21.3529129,1.13201247 21.3224442,1.13259843 21.2931474,1.134161 L15.1740157,1.4288998 C14.9503832,1.43964243 14.7687429,1.47870655 14.6234306,1.53906062 C14.2647714,1.59678794 13.9347315,1.76994119 13.6833929,2.03224516 L0.468959043,15.8746167 C-0.17420408,16.5457384 -0.153305673,17.6121889 0.516224599,18.2565516 L7.02930103,24.5302495 C7.34177077,24.8320424 7.7593469,25.0004949 8.19375245,25 C8.63515806,25 9.07597773,24.8259649 9.40566475,24.4831773 L22.6199033,10.6400244 C23.0124808,10.2306324 23.3675584,9.67455464 23.2691211,9.15636906 C23.2718554,9.11457045 23.2687304,9.07296716 23.2691211,9.02804342 L23.1146291,2.88735879 C23.1183122,2.59624806 23.0497989,2.30876172 22.9152153,2.0506053 C23.3099413,1.28006549 23.6851361,0.550347698 24.542752,0.780630696 C25.0023217,0.904854604 25.1966573,0.194082907 24.7390408,0.0712262435 Z M8.52812889,13.4245632 L9.32781975,14.170287 L8.29716074,16.7269943 L10.7727157,15.5176743 L11.5754357,16.2662228 L7.51909394,18.1808206 L6.90418013,17.6074042 L8.52812889,13.4245632 Z M10.8555796,8.86713434 L14.7160332,15.2007265 L13.8468014,16.1328635 L9.99486962,9.79013275 L10.8555796,8.86713434 Z M17.1802579,6.51873344 L17.7982008,7.09497455 L16.1742521,11.2778156 L15.3745612,10.5320918 L16.4052202,7.97538454 L13.9296652,9.1847045 L13.1269453,8.43615601 L17.1802579,6.51873344 Z M21.1763507,2.2398705 C21.4058425,2.2398705 21.6355297,2.32542139 21.8136544,2.49691289 C21.8259591,2.50882745 21.8343575,2.52289053 21.8460763,2.53539105 C21.6548656,2.73520403 21.419905,2.85845134 21.1132648,2.82387959 C20.6425624,2.7709477 20.6474452,3.50808768 21.1132648,3.56062893 C21.5214674,3.60652927 21.8320138,3.4873837 22.0857244,3.27643744 C22.062433,3.47297911 21.9760108,3.65665988 21.8394357,3.79989667 C21.6663502,3.98098016 21.4266486,4.08326003 21.1761554,4.0829171 C20.9384391,4.08306483 20.7099506,3.99090921 20.5388516,3.82587432 C20.1727885,3.47281343 20.1612599,2.89015669 20.5130704,2.52289053 C20.686209,2.34188379 20.9258761,2.23961864 21.1763507,2.2398705 Z" id="Shape"></path>
        </g>
    </g>
</svg>