<svg width="800" height="600" viewBox="0 0 800 600" fill="none" xmlns="http://www.w3.org/2000/svg">
<rect width="800" height="600" fill="url(#paint0_linear_5189_11501)"/>
<path d="M153.688 419.297H141.461V440H129.508V382.422H154.586C160.367 382.422 164.977 383.906 168.414 386.875C171.852 389.844 173.57 394.44 173.57 400.664C173.57 407.461 171.852 412.266 168.414 415.078C164.977 417.891 160.068 419.297 153.688 419.297ZM159.312 407.305C160.875 405.924 161.656 403.737 161.656 400.742C161.656 397.747 160.862 395.612 159.273 394.336C157.711 393.06 155.51 392.422 152.672 392.422H141.461V409.375H152.672C155.51 409.375 157.724 408.685 159.312 407.305ZM199 428.828L207.789 397.422H219.625L205.016 439.297C202.203 447.37 199.977 452.37 198.336 454.297C196.695 456.25 193.414 457.227 188.492 457.227C187.503 457.227 186.708 457.214 186.109 457.188C185.51 457.188 184.612 457.148 183.414 457.07V448.164L184.82 448.242C185.914 448.294 186.956 448.255 187.945 448.125C188.935 447.995 189.768 447.695 190.445 447.227C191.096 446.784 191.695 445.859 192.242 444.453C192.815 443.047 193.049 442.188 192.945 441.875L177.32 397.422H189.703L199 428.828ZM245.719 432.07V440.391L240.445 440.586C235.185 440.768 231.591 439.857 229.664 437.852C228.414 436.576 227.789 434.609 227.789 431.953V405.742H221.852V397.812H227.789V385.938H238.805V397.812H245.719V405.742H238.805V428.242C238.805 429.987 239.026 431.081 239.469 431.523C239.911 431.94 241.266 432.148 243.531 432.148C243.87 432.148 244.221 432.148 244.586 432.148C244.977 432.122 245.354 432.096 245.719 432.07ZM291.344 415V440H279.977V414.102C279.977 411.81 279.586 409.961 278.805 408.555C277.789 406.576 275.862 405.586 273.023 405.586C270.081 405.586 267.841 406.576 266.305 408.555C264.794 410.508 264.039 413.307 264.039 416.953V440H252.945V382.617H264.039V402.969C265.654 400.495 267.516 398.776 269.625 397.812C271.76 396.823 274 396.328 276.344 396.328C278.974 396.328 281.357 396.784 283.492 397.695C285.654 398.607 287.424 400 288.805 401.875C289.977 403.464 290.693 405.104 290.953 406.797C291.214 408.464 291.344 411.198 291.344 415ZM337.281 402.812C340.875 407.318 342.672 412.643 342.672 418.789C342.672 425.039 340.875 430.391 337.281 434.844C333.688 439.271 328.232 441.484 320.914 441.484C313.596 441.484 308.141 439.271 304.547 434.844C300.953 430.391 299.156 425.039 299.156 418.789C299.156 412.643 300.953 407.318 304.547 402.812C308.141 398.307 313.596 396.055 320.914 396.055C328.232 396.055 333.688 398.307 337.281 402.812ZM320.875 405.469C317.62 405.469 315.107 406.628 313.336 408.945C311.591 411.237 310.719 414.518 310.719 418.789C310.719 423.06 311.591 426.354 313.336 428.672C315.107 430.99 317.62 432.148 320.875 432.148C324.13 432.148 326.63 430.99 328.375 428.672C330.12 426.354 330.992 423.06 330.992 418.789C330.992 414.518 330.12 411.237 328.375 408.945C326.63 406.628 324.13 405.469 320.875 405.469ZM370.719 405.664C366.943 405.664 364.352 407.266 362.945 410.469C362.216 412.161 361.852 414.323 361.852 416.953V440H350.758V397.5H361.5V403.711C362.932 401.523 364.286 399.948 365.562 398.984C367.854 397.266 370.758 396.406 374.273 396.406C378.674 396.406 382.268 397.565 385.055 399.883C387.867 402.174 389.273 405.99 389.273 411.328V440H377.867V414.102C377.867 411.862 377.568 410.143 376.969 408.945C375.875 406.758 373.792 405.664 370.719 405.664ZM449.039 440H422.945V382.422H450.914C457.971 382.526 462.971 384.57 465.914 388.555C467.685 391.003 468.57 393.932 468.57 397.344C468.57 400.859 467.685 403.685 465.914 405.82C464.924 407.018 463.466 408.112 461.539 409.102C464.482 410.169 466.695 411.862 468.18 414.18C469.69 416.497 470.445 419.31 470.445 422.617C470.445 426.029 469.586 429.089 467.867 431.797C466.773 433.594 465.406 435.104 463.766 436.328C461.917 437.734 459.729 438.698 457.203 439.219C454.703 439.74 451.982 440 449.039 440ZM448.766 414.648H434.43V430H448.57C451.096 430 453.062 429.661 454.469 428.984C457.021 427.734 458.297 425.339 458.297 421.797C458.297 418.802 457.06 416.745 454.586 415.625C453.206 415 451.266 414.674 448.766 414.648ZM454.742 403.672C456.305 402.734 457.086 401.055 457.086 398.633C457.086 395.951 456.044 394.18 453.961 393.32C452.164 392.721 449.872 392.422 447.086 392.422H434.43V405.117H448.57C451.096 405.117 453.154 404.635 454.742 403.672ZM481.266 402.031C484.208 398.281 489.26 396.406 496.422 396.406C501.083 396.406 505.224 397.331 508.844 399.18C512.464 401.029 514.273 404.518 514.273 409.648V429.18C514.273 430.534 514.299 432.174 514.352 434.102C514.43 435.56 514.651 436.549 515.016 437.07C515.38 437.591 515.927 438.021 516.656 438.359V440H504.547C504.208 439.141 503.974 438.333 503.844 437.578C503.714 436.823 503.609 435.964 503.531 435C501.995 436.667 500.224 438.086 498.219 439.258C495.823 440.638 493.115 441.328 490.094 441.328C486.24 441.328 483.049 440.234 480.523 438.047C478.023 435.833 476.773 432.708 476.773 428.672C476.773 423.438 478.792 419.648 482.828 417.305C485.042 416.029 488.297 415.117 492.594 414.57L496.383 414.102C498.44 413.841 499.911 413.516 500.797 413.125C502.385 412.448 503.18 411.393 503.18 409.961C503.18 408.216 502.568 407.018 501.344 406.367C500.146 405.69 498.375 405.352 496.031 405.352C493.401 405.352 491.539 406.003 490.445 407.305C489.664 408.268 489.143 409.57 488.883 411.211H478.141C478.375 407.487 479.417 404.427 481.266 402.031ZM489.547 431.953C490.589 432.812 491.865 433.242 493.375 433.242C495.771 433.242 497.971 432.539 499.977 431.133C502.008 429.727 503.062 427.161 503.141 423.438V419.297C502.438 419.74 501.721 420.104 500.992 420.391C500.289 420.651 499.312 420.898 498.062 421.133L495.562 421.602C493.219 422.018 491.539 422.526 490.523 423.125C488.805 424.141 487.945 425.716 487.945 427.852C487.945 429.753 488.479 431.12 489.547 431.953ZM553.531 399.375C556.865 401.51 558.779 405.182 559.273 410.391H548.141C547.984 408.958 547.581 407.826 546.93 406.992C545.706 405.482 543.622 404.727 540.68 404.727C538.258 404.727 536.526 405.104 535.484 405.859C534.469 406.615 533.961 407.5 533.961 408.516C533.961 409.792 534.508 410.716 535.602 411.289C536.695 411.888 540.562 412.917 547.203 414.375C551.63 415.417 554.951 416.992 557.164 419.102C559.352 421.237 560.445 423.906 560.445 427.109C560.445 431.328 558.87 434.779 555.719 437.461C552.594 440.117 547.75 441.445 541.188 441.445C534.495 441.445 529.547 440.039 526.344 437.227C523.167 434.388 521.578 430.781 521.578 426.406H532.867C533.102 428.385 533.609 429.792 534.391 430.625C535.771 432.109 538.323 432.852 542.047 432.852C544.234 432.852 545.966 432.526 547.242 431.875C548.544 431.224 549.195 430.247 549.195 428.945C549.195 427.695 548.674 426.745 547.633 426.094C546.591 425.443 542.724 424.323 536.031 422.734C531.214 421.536 527.815 420.039 525.836 418.242C523.857 416.471 522.867 413.919 522.867 410.586C522.867 406.654 524.404 403.281 527.477 400.469C530.576 397.63 534.924 396.211 540.523 396.211C545.836 396.211 550.172 397.266 553.531 399.375ZM580.172 397.422V440H568.883V397.422H580.172ZM580.172 382.07V392.344H568.883V382.07H580.172ZM627.828 412.695H616.422C616.214 411.107 615.68 409.674 614.82 408.398C613.57 406.68 611.63 405.82 609 405.82C605.25 405.82 602.685 407.682 601.305 411.406C600.576 413.385 600.211 416.016 600.211 419.297C600.211 422.422 600.576 424.935 601.305 426.836C602.633 430.378 605.133 432.148 608.805 432.148C611.409 432.148 613.258 431.445 614.352 430.039C615.445 428.633 616.109 426.81 616.344 424.57H627.711C627.451 427.956 626.227 431.159 624.039 434.18C620.549 439.049 615.38 441.484 608.531 441.484C601.682 441.484 596.643 439.453 593.414 435.391C590.185 431.328 588.57 426.055 588.57 419.57C588.57 412.253 590.354 406.562 593.922 402.5C597.49 398.438 602.411 396.406 608.688 396.406C614.026 396.406 618.388 397.604 621.773 400C625.185 402.396 627.203 406.628 627.828 412.695ZM664.859 399.375C668.193 401.51 670.107 405.182 670.602 410.391H659.469C659.312 408.958 658.909 407.826 658.258 406.992C657.034 405.482 654.951 404.727 652.008 404.727C649.586 404.727 647.854 405.104 646.812 405.859C645.797 406.615 645.289 407.5 645.289 408.516C645.289 409.792 645.836 410.716 646.93 411.289C648.023 411.888 651.891 412.917 658.531 414.375C662.958 415.417 666.279 416.992 668.492 419.102C670.68 421.237 671.773 423.906 671.773 427.109C671.773 431.328 670.198 434.779 667.047 437.461C663.922 440.117 659.078 441.445 652.516 441.445C645.823 441.445 640.875 440.039 637.672 437.227C634.495 434.388 632.906 430.781 632.906 426.406H644.195C644.43 428.385 644.938 429.792 645.719 430.625C647.099 432.109 649.651 432.852 653.375 432.852C655.562 432.852 657.294 432.526 658.57 431.875C659.872 431.224 660.523 430.247 660.523 428.945C660.523 427.695 660.003 426.745 658.961 426.094C657.919 425.443 654.052 424.323 647.359 422.734C642.542 421.536 639.143 420.039 637.164 418.242C635.185 416.471 634.195 413.919 634.195 410.586C634.195 406.654 635.732 403.281 638.805 400.469C641.904 397.63 646.253 396.211 651.852 396.211C657.164 396.211 661.5 397.266 664.859 399.375Z" fill="#E0F7F9"/>
<g filter="url(#filter0_d_5189_11501)">
<g filter="url(#filter1_d_5189_11501)">
<path d="M399.279 102C348.507 102 351.677 123.964 351.677 123.964L351.733 146.719H400.185V153.551H332.489C332.489 153.551 300 149.875 300 200.978C300 252.082 328.357 250.27 328.357 250.27H345.281V226.556C345.281 226.556 344.369 198.268 373.186 198.268H421.241C421.241 198.268 448.24 198.703 448.24 172.239V128.482C448.24 128.482 452.34 102 399.279 102ZM372.563 117.302C373.708 117.301 374.842 117.526 375.9 117.962C376.958 118.399 377.919 119.039 378.729 119.847C379.539 120.654 380.181 121.613 380.618 122.669C381.056 123.724 381.281 124.855 381.28 125.997C381.281 127.139 381.056 128.27 380.618 129.326C380.181 130.381 379.539 131.34 378.729 132.148C377.919 132.955 376.958 133.596 375.9 134.032C374.842 134.469 373.708 134.693 372.563 134.692C371.418 134.693 370.284 134.469 369.226 134.032C368.169 133.596 367.207 132.955 366.398 132.148C365.588 131.34 364.946 130.381 364.508 129.326C364.071 128.27 363.846 127.139 363.847 125.997C363.846 124.855 364.071 123.724 364.508 122.669C364.946 121.613 365.588 120.654 366.398 119.847C367.207 119.039 368.169 118.399 369.226 117.962C370.284 117.526 371.418 117.301 372.563 117.302V117.302Z" fill="url(#paint1_linear_5189_11501)"/>
</g>
<g filter="url(#filter2_d_5189_11501)">
<path d="M400.721 300.47C451.493 300.47 448.323 278.506 448.323 278.506L448.267 255.752H399.815V248.92H467.51C467.51 248.92 500 252.596 500 201.491C500 150.387 471.642 152.2 471.642 152.2H454.718V175.914C454.718 175.914 455.631 204.201 426.814 204.201H378.759C378.759 204.201 351.76 203.766 351.76 230.231V273.989C351.76 273.989 347.66 300.47 400.72 300.47H400.721ZM427.437 285.169C426.292 285.17 425.158 284.946 424.1 284.509C423.042 284.073 422.081 283.432 421.271 282.625C420.462 281.817 419.82 280.858 419.382 279.803C418.944 278.747 418.72 277.616 418.721 276.474C418.72 275.332 418.944 274.201 419.382 273.145C419.819 272.09 420.461 271.131 421.271 270.323C422.081 269.516 423.042 268.875 424.1 268.438C425.158 268.002 426.292 267.778 427.437 267.779C428.582 267.778 429.716 268.002 430.774 268.438C431.832 268.875 432.793 269.515 433.603 270.323C434.412 271.131 435.054 272.089 435.492 273.145C435.93 274.2 436.154 275.331 436.153 276.473C436.154 277.616 435.93 278.747 435.492 279.802C435.054 280.857 434.412 281.816 433.603 282.624C432.793 283.432 431.832 284.072 430.774 284.509C429.716 284.945 428.582 285.169 427.437 285.168V285.169Z" fill="url(#paint2_linear_5189_11501)"/>
</g>
</g>
<path d="M741.435 592.713C741.435 593.599 742.138 594.276 742.998 594.276C743.883 594.276 744.587 593.599 744.587 592.713V576.563C744.587 575.703 743.883 575 742.998 575C742.112 575 741.435 575.703 741.435 576.563V592.713Z" fill="white"/>
<path d="M748.654 576.849C748.654 577.787 749.435 578.412 750.451 578.412C751.467 578.412 752.248 577.787 752.248 576.849V576.693C752.248 575.755 751.467 575.156 750.451 575.156C749.435 575.156 748.654 575.755 748.654 576.693V576.849ZM748.888 592.713C748.888 593.599 749.591 594.276 750.451 594.276C751.337 594.276 752.04 593.599 752.04 592.713V581.825C752.04 580.939 751.337 580.236 750.451 580.236C749.565 580.236 748.888 580.939 748.888 581.825V592.713Z" fill="white"/>
<path d="M756.159 592.713C756.159 593.573 756.863 594.276 757.722 594.276C758.608 594.276 759.311 593.573 759.311 592.713V592.01C760.275 593.287 761.708 594.433 764 594.433C767.256 594.433 770.382 591.854 770.382 587.295V587.243C770.382 582.658 767.23 580.106 764 580.106C761.76 580.106 760.327 581.252 759.311 582.685V576.563C759.311 575.677 758.608 575 757.722 575C756.837 575 756.159 575.677 756.159 576.563V592.713ZM763.245 591.698C761.109 591.698 759.233 589.926 759.233 587.295V587.243C759.233 584.612 761.109 582.841 763.245 582.841C765.381 582.841 767.178 584.586 767.178 587.243V587.295C767.178 590.004 765.407 591.698 763.245 591.698Z" fill="white"/>
<path d="M773.818 592.713C773.818 593.599 774.521 594.276 775.381 594.276C776.267 594.276 776.97 593.599 776.97 592.713V576.563C776.97 575.703 776.267 575 775.381 575C774.495 575 773.818 575.703 773.818 576.563V592.713Z" fill="white"/>
<path d="M787.628 594.459C791.874 594.459 795 591.203 795 587.295V587.243C795 583.31 791.9 580.106 787.68 580.106C783.46 580.106 780.334 583.362 780.334 587.295V587.347C780.334 591.255 783.434 594.459 787.628 594.459ZM787.68 591.698C785.231 591.698 783.486 589.692 783.486 587.295V587.243C783.486 584.847 785.101 582.867 787.628 582.867C790.102 582.867 791.848 584.873 791.848 587.295V587.347C791.848 589.718 790.233 591.698 787.68 591.698Z" fill="white"/>
<path d="M736.96 590.09C735.74 590.65 734.453 591.046 733.208 591.294C728.074 592.314 725.36 589.099 729.634 586.781C730.099 586.529 730.632 586.291 731.228 586.075L732.011 585.826C732.241 585.763 732.463 585.661 732.534 585.515C732.905 584.723 729.731 584.467 727.622 585.589C728.458 585.431 729.186 585.408 729.668 585.609C724.878 586.845 723.788 590.757 726.335 592.642C727.649 593.615 729.127 593.873 731.832 593.682C733.637 593.555 735.48 592.837 736.96 591.969V590.09Z" fill="url(#paint3_linear_5189_11501)"/>
<path d="M734.542 592.784C734.542 593.607 735.171 594.165 736.03 594.165C736.89 594.165 737.478 593.644 737.478 592.784V586.011C737.478 584.214 737.009 582.755 735.993 581.765C735.029 580.775 733.492 580.228 731.434 580.228C729.637 580.228 728.308 580.541 727.006 581.036C726.537 581.218 726.146 581.713 726.146 582.286C726.146 583.016 726.745 583.589 727.475 583.589C727.631 583.589 727.787 583.563 727.97 583.511C728.829 583.172 729.819 582.964 731.018 582.964C733.232 582.964 734.43 584.006 734.43 585.959V585.968L734.542 592.784Z" fill="url(#paint4_linear_5189_11501)"/>
<path d="M733.611 578.379C733.611 578.591 733.273 578.721 732.805 578.721C732.077 578.721 731.583 578.64 730.984 578.282L729.216 577.24C728.956 577.093 728.774 576.93 728.774 576.751C728.774 576.442 729.814 576.116 730.646 576.116C731.192 576.116 731.609 576.295 731.895 576.589L733.377 578.021C733.481 578.119 733.611 578.265 733.611 578.379Z" fill="url(#paint5_linear_5189_11501)"/>
<defs>
<filter id="filter0_d_5189_11501" x="296" y="102" width="208" height="206.47" filterUnits="userSpaceOnUse" color-interpolation-filters="sRGB">
<feFlood flood-opacity="0" result="BackgroundImageFix"/>
<feColorMatrix in="SourceAlpha" type="matrix" values="0 0 0 0 0 0 0 0 0 0 0 0 0 0 0 0 0 0 127 0" result="hardAlpha"/>
<feOffset dy="4"/>
<feGaussianBlur stdDeviation="2"/>
<feComposite in2="hardAlpha" operator="out"/>
<feColorMatrix type="matrix" values="0 0 0 0 0 0 0 0 0 0 0 0 0 0 0 0 0 0 0.25 0"/>
<feBlend mode="normal" in2="BackgroundImageFix" result="effect1_dropShadow_5189_11501"/>
<feBlend mode="normal" in="SourceGraphic" in2="effect1_dropShadow_5189_11501" result="shape"/>
</filter>
<filter id="filter1_d_5189_11501" x="250" y="56" width="248.313" height="248.278" filterUnits="userSpaceOnUse" color-interpolation-filters="sRGB">
<feFlood flood-opacity="0" result="BackgroundImageFix"/>
<feColorMatrix in="SourceAlpha" type="matrix" values="0 0 0 0 0 0 0 0 0 0 0 0 0 0 0 0 0 0 127 0" result="hardAlpha"/>
<feOffset dy="4"/>
<feGaussianBlur stdDeviation="25"/>
<feComposite in2="hardAlpha" operator="out"/>
<feColorMatrix type="matrix" values="0 0 0 0 1 0 0 0 0 1 0 0 0 0 1 0 0 0 1 0"/>
<feBlend mode="normal" in2="BackgroundImageFix" result="effect1_dropShadow_5189_11501"/>
<feBlend mode="normal" in="SourceGraphic" in2="effect1_dropShadow_5189_11501" result="shape"/>
</filter>
<filter id="filter2_d_5189_11501" x="301.687" y="106.192" width="248.313" height="248.278" filterUnits="userSpaceOnUse" color-interpolation-filters="sRGB">
<feFlood flood-opacity="0" result="BackgroundImageFix"/>
<feColorMatrix in="SourceAlpha" type="matrix" values="0 0 0 0 0 0 0 0 0 0 0 0 0 0 0 0 0 0 127 0" result="hardAlpha"/>
<feOffset dy="4"/>
<feGaussianBlur stdDeviation="25"/>
<feComposite in2="hardAlpha" operator="out"/>
<feColorMatrix type="matrix" values="0 0 0 0 1 0 0 0 0 1 0 0 0 0 1 0 0 0 1 0"/>
<feBlend mode="normal" in2="BackgroundImageFix" result="effect1_dropShadow_5189_11501"/>
<feBlend mode="normal" in="SourceGraphic" in2="effect1_dropShadow_5189_11501" result="shape"/>
</filter>
<linearGradient id="paint0_linear_5189_11501" x1="800" y1="5.44067e-05" x2="-2.41941" y2="596.747" gradientUnits="userSpaceOnUse">
<stop stop-color="#419401"/>
<stop offset="1" stop-color="#011200"/>
</linearGradient>
<linearGradient id="paint1_linear_5189_11501" x1="319.22" y1="119.851" x2="418.092" y2="217.978" gradientUnits="userSpaceOnUse">
<stop stop-color="#387EB8"/>
<stop offset="1" stop-color="#366994"/>
</linearGradient>
<linearGradient id="paint2_linear_5189_11501" x1="380.056" y1="182.706" x2="486.245" y2="283.338" gradientUnits="userSpaceOnUse">
<stop stop-color="#FFE052"/>
<stop offset="1" stop-color="#FFC331"/>
</linearGradient>
<linearGradient id="paint3_linear_5189_11501" x1="719.394" y1="601.3" x2="738.186" y2="600.76" gradientUnits="userSpaceOnUse">
<stop stop-color="white"/>
<stop offset="1" stop-color="#009AF9"/>
</linearGradient>
<linearGradient id="paint4_linear_5189_11501" x1="719.394" y1="601.3" x2="738.186" y2="600.76" gradientUnits="userSpaceOnUse">
<stop stop-color="white"/>
<stop offset="1" stop-color="#009AF9"/>
</linearGradient>
<linearGradient id="paint5_linear_5189_11501" x1="719.394" y1="601.3" x2="738.186" y2="600.76" gradientUnits="userSpaceOnUse">
<stop stop-color="white"/>
<stop offset="1" stop-color="#009AF9"/>
</linearGradient>
</defs>
</svg>
