<svg width="800" height="600" viewBox="0 0 800 600" fill="none" xmlns="http://www.w3.org/2000/svg">
<rect width="800" height="600" fill="url(#paint0_linear_5188_12956)"/>
<path d="M208.547 404.297H196.32V425H184.367V367.422H209.445C215.227 367.422 219.836 368.906 223.273 371.875C226.711 374.844 228.43 379.44 228.43 385.664C228.43 392.461 226.711 397.266 223.273 400.078C219.836 402.891 214.927 404.297 208.547 404.297ZM214.172 392.305C215.734 390.924 216.516 388.737 216.516 385.742C216.516 382.747 215.721 380.612 214.133 379.336C212.57 378.06 210.37 377.422 207.531 377.422H196.32V394.375H207.531C210.37 394.375 212.583 393.685 214.172 392.305ZM271.789 425V399.297H249.289V425H237.375V367.422H249.289V389.375H271.789V367.422H283.742V425H271.789ZM319.719 404.297H307.492V425H295.539V367.422H320.617C326.398 367.422 331.008 368.906 334.445 371.875C337.883 374.844 339.602 379.44 339.602 385.664C339.602 392.461 337.883 397.266 334.445 400.078C331.008 402.891 326.099 404.297 319.719 404.297ZM325.344 392.305C326.906 390.924 327.688 388.737 327.688 385.742C327.688 382.747 326.893 380.612 325.305 379.336C323.742 378.06 321.542 377.422 318.703 377.422H307.492V394.375H318.703C321.542 394.375 323.755 393.685 325.344 392.305ZM395.773 425H369.68V367.422H397.648C404.706 367.526 409.706 369.57 412.648 373.555C414.419 376.003 415.305 378.932 415.305 382.344C415.305 385.859 414.419 388.685 412.648 390.82C411.659 392.018 410.201 393.112 408.273 394.102C411.216 395.169 413.43 396.862 414.914 399.18C416.424 401.497 417.18 404.31 417.18 407.617C417.18 411.029 416.32 414.089 414.602 416.797C413.508 418.594 412.141 420.104 410.5 421.328C408.651 422.734 406.464 423.698 403.938 424.219C401.438 424.74 398.716 425 395.773 425ZM395.5 399.648H381.164V415H395.305C397.831 415 399.797 414.661 401.203 413.984C403.755 412.734 405.031 410.339 405.031 406.797C405.031 403.802 403.794 401.745 401.32 400.625C399.94 400 398 399.674 395.5 399.648ZM401.477 388.672C403.039 387.734 403.82 386.055 403.82 383.633C403.82 380.951 402.779 379.18 400.695 378.32C398.898 377.721 396.607 377.422 393.82 377.422H381.164V390.117H395.305C397.831 390.117 399.888 389.635 401.477 388.672ZM428 387.031C430.943 383.281 435.995 381.406 443.156 381.406C447.818 381.406 451.958 382.331 455.578 384.18C459.198 386.029 461.008 389.518 461.008 394.648V414.18C461.008 415.534 461.034 417.174 461.086 419.102C461.164 420.56 461.385 421.549 461.75 422.07C462.115 422.591 462.661 423.021 463.391 423.359V425H451.281C450.943 424.141 450.708 423.333 450.578 422.578C450.448 421.823 450.344 420.964 450.266 420C448.729 421.667 446.958 423.086 444.953 424.258C442.557 425.638 439.849 426.328 436.828 426.328C432.974 426.328 429.784 425.234 427.258 423.047C424.758 420.833 423.508 417.708 423.508 413.672C423.508 408.438 425.526 404.648 429.562 402.305C431.776 401.029 435.031 400.117 439.328 399.57L443.117 399.102C445.174 398.841 446.646 398.516 447.531 398.125C449.12 397.448 449.914 396.393 449.914 394.961C449.914 393.216 449.302 392.018 448.078 391.367C446.88 390.69 445.109 390.352 442.766 390.352C440.135 390.352 438.273 391.003 437.18 392.305C436.398 393.268 435.878 394.57 435.617 396.211H424.875C425.109 392.487 426.151 389.427 428 387.031ZM436.281 416.953C437.323 417.812 438.599 418.242 440.109 418.242C442.505 418.242 444.706 417.539 446.711 416.133C448.742 414.727 449.797 412.161 449.875 408.438V404.297C449.172 404.74 448.456 405.104 447.727 405.391C447.023 405.651 446.047 405.898 444.797 406.133L442.297 406.602C439.953 407.018 438.273 407.526 437.258 408.125C435.539 409.141 434.68 410.716 434.68 412.852C434.68 414.753 435.214 416.12 436.281 416.953ZM500.266 384.375C503.599 386.51 505.513 390.182 506.008 395.391H494.875C494.719 393.958 494.315 392.826 493.664 391.992C492.44 390.482 490.357 389.727 487.414 389.727C484.992 389.727 483.26 390.104 482.219 390.859C481.203 391.615 480.695 392.5 480.695 393.516C480.695 394.792 481.242 395.716 482.336 396.289C483.43 396.888 487.297 397.917 493.938 399.375C498.365 400.417 501.685 401.992 503.898 404.102C506.086 406.237 507.18 408.906 507.18 412.109C507.18 416.328 505.604 419.779 502.453 422.461C499.328 425.117 494.484 426.445 487.922 426.445C481.229 426.445 476.281 425.039 473.078 422.227C469.901 419.388 468.312 415.781 468.312 411.406H479.602C479.836 413.385 480.344 414.792 481.125 415.625C482.505 417.109 485.057 417.852 488.781 417.852C490.969 417.852 492.701 417.526 493.977 416.875C495.279 416.224 495.93 415.247 495.93 413.945C495.93 412.695 495.409 411.745 494.367 411.094C493.326 410.443 489.458 409.323 482.766 407.734C477.948 406.536 474.549 405.039 472.57 403.242C470.591 401.471 469.602 398.919 469.602 395.586C469.602 391.654 471.138 388.281 474.211 385.469C477.31 382.63 481.659 381.211 487.258 381.211C492.57 381.211 496.906 382.266 500.266 384.375ZM526.906 382.422V425H515.617V382.422H526.906ZM526.906 367.07V377.344H515.617V367.07H526.906ZM574.562 397.695H563.156C562.948 396.107 562.414 394.674 561.555 393.398C560.305 391.68 558.365 390.82 555.734 390.82C551.984 390.82 549.419 392.682 548.039 396.406C547.31 398.385 546.945 401.016 546.945 404.297C546.945 407.422 547.31 409.935 548.039 411.836C549.367 415.378 551.867 417.148 555.539 417.148C558.143 417.148 559.992 416.445 561.086 415.039C562.18 413.633 562.844 411.81 563.078 409.57H574.445C574.185 412.956 572.961 416.159 570.773 419.18C567.284 424.049 562.115 426.484 555.266 426.484C548.417 426.484 543.378 424.453 540.148 420.391C536.919 416.328 535.305 411.055 535.305 404.57C535.305 397.253 537.089 391.562 540.656 387.5C544.224 383.438 549.146 381.406 555.422 381.406C560.76 381.406 565.122 382.604 568.508 385C571.919 387.396 573.938 391.628 574.562 397.695ZM611.594 384.375C614.927 386.51 616.841 390.182 617.336 395.391H606.203C606.047 393.958 605.643 392.826 604.992 391.992C603.768 390.482 601.685 389.727 598.742 389.727C596.32 389.727 594.589 390.104 593.547 390.859C592.531 391.615 592.023 392.5 592.023 393.516C592.023 394.792 592.57 395.716 593.664 396.289C594.758 396.888 598.625 397.917 605.266 399.375C609.693 400.417 613.013 401.992 615.227 404.102C617.414 406.237 618.508 408.906 618.508 412.109C618.508 416.328 616.932 419.779 613.781 422.461C610.656 425.117 605.812 426.445 599.25 426.445C592.557 426.445 587.609 425.039 584.406 422.227C581.229 419.388 579.641 415.781 579.641 411.406H590.93C591.164 413.385 591.672 414.792 592.453 415.625C593.833 417.109 596.385 417.852 600.109 417.852C602.297 417.852 604.029 417.526 605.305 416.875C606.607 416.224 607.258 415.247 607.258 413.945C607.258 412.695 606.737 411.745 605.695 411.094C604.654 410.443 600.786 409.323 594.094 407.734C589.276 406.536 585.878 405.039 583.898 403.242C581.919 401.471 580.93 398.919 580.93 395.586C580.93 391.654 582.466 388.281 585.539 385.469C588.638 382.63 592.987 381.211 598.586 381.211C603.898 381.211 608.234 382.266 611.594 384.375Z" fill="#E5F3FF"/>
<path d="M400 127C322.683 127 260 158.788 260 198C260 237.212 322.683 269 400 269C477.317 269 540 237.212 540 198C540 158.788 477.317 127 400 127ZM363.571 211.833C360.23 214.961 356.52 216.252 352.434 217.582C348.348 218.914 343.149 218.639 336.827 218.639H322.497L318.526 241.571H301.796L316.725 163.602H348.898C358.578 163.602 365.638 166.388 370.077 171.472C374.516 176.556 375.849 183.773 374.08 192.884C373.349 196.638 372.119 200.128 370.382 203.238C368.642 206.35 366.371 209.255 363.571 211.833ZM412.406 218.639L419.008 185.571C419.76 181.7 419.485 178.824 418.181 177.418C416.875 176.01 414.098 175.068 409.851 175.068H396.583L388.034 218.639H371.434L386.363 142.963H402.963L398.994 163.602H413.781C423.087 163.602 429.504 165.471 433.035 168.718C436.566 171.965 437.625 176.414 436.213 183.688L429.268 218.639H412.406ZM504.662 193.005C503.933 196.759 502.7 200.19 500.966 203.297C499.229 206.409 496.96 209.255 494.158 211.833C490.816 214.961 487.104 216.252 483.021 217.582C478.937 218.914 473.733 218.639 467.411 218.639H453.081L449.113 241.571H432.382L447.309 163.602H479.485C489.164 163.602 496.225 166.388 500.661 171.472C505.095 176.556 506.431 183.897 504.662 193.005ZM473.144 175.068H461.684L455.435 207.173H465.614C472.356 207.173 477.383 206.508 480.683 203.962C483.988 201.421 486.213 197.477 487.37 191.531C488.479 185.818 487.975 181.363 485.858 179.015C483.738 176.666 479.501 175.068 473.144 175.068ZM342.56 175.068H331.098L324.849 207.173H335.025C341.769 207.173 346.795 206.508 350.097 203.962C353.399 201.421 355.626 197.477 356.781 191.531C357.89 185.818 357.386 181.363 355.269 179.015C353.152 176.666 348.917 175.068 342.56 175.068Z" fill="#E5F3FF"/>
<path d="M741.436 592.713C741.436 593.599 742.139 594.276 742.999 594.276C743.884 594.276 744.588 593.599 744.588 592.713V576.563C744.588 575.703 743.884 575 742.999 575C742.113 575 741.436 575.703 741.436 576.563V592.713Z" fill="white"/>
<path d="M748.655 576.849C748.655 577.787 749.436 578.412 750.452 578.412C751.468 578.412 752.249 577.787 752.249 576.849V576.693C752.249 575.755 751.468 575.156 750.452 575.156C749.436 575.156 748.655 575.755 748.655 576.693V576.849ZM748.889 592.713C748.889 593.599 749.592 594.276 750.452 594.276C751.338 594.276 752.041 593.599 752.041 592.713V581.825C752.041 580.939 751.338 580.236 750.452 580.236C749.566 580.236 748.889 580.939 748.889 581.825V592.713Z" fill="white"/>
<path d="M756.16 592.713C756.16 593.573 756.864 594.276 757.723 594.276C758.609 594.276 759.312 593.573 759.312 592.713V592.01C760.276 593.287 761.709 594.433 764.001 594.433C767.257 594.433 770.383 591.854 770.383 587.295V587.243C770.383 582.658 767.231 580.106 764.001 580.106C761.761 580.106 760.328 581.252 759.312 582.685V576.563C759.312 575.677 758.609 575 757.723 575C756.838 575 756.16 575.677 756.16 576.563V592.713ZM763.246 591.698C761.11 591.698 759.234 589.926 759.234 587.295V587.243C759.234 584.612 761.11 582.841 763.246 582.841C765.382 582.841 767.179 584.586 767.179 587.243V587.295C767.179 590.004 765.408 591.698 763.246 591.698Z" fill="white"/>
<path d="M773.819 592.713C773.819 593.599 774.522 594.276 775.382 594.276C776.268 594.276 776.971 593.599 776.971 592.713V576.563C776.971 575.703 776.268 575 775.382 575C774.496 575 773.819 575.703 773.819 576.563V592.713Z" fill="white"/>
<path d="M787.629 594.459C791.875 594.459 795.001 591.203 795.001 587.295V587.243C795.001 583.31 791.901 580.106 787.681 580.106C783.461 580.106 780.335 583.362 780.335 587.295V587.347C780.335 591.255 783.435 594.459 787.629 594.459ZM787.681 591.698C785.232 591.698 783.487 589.692 783.487 587.295V587.243C783.487 584.847 785.102 582.867 787.629 582.867C790.103 582.867 791.849 584.873 791.849 587.295V587.347C791.849 589.718 790.234 591.698 787.681 591.698Z" fill="white"/>
<path d="M736.96 590.09C735.74 590.65 734.453 591.046 733.208 591.294C728.074 592.314 725.36 589.099 729.634 586.781C730.099 586.529 730.632 586.291 731.228 586.075L732.011 585.826C732.241 585.763 732.463 585.661 732.534 585.515C732.905 584.723 729.731 584.467 727.622 585.589C728.458 585.431 729.186 585.408 729.668 585.609C724.878 586.845 723.788 590.757 726.335 592.642C727.649 593.615 729.127 593.873 731.832 593.682C733.637 593.555 735.48 592.837 736.96 591.969V590.09Z" fill="url(#paint1_linear_5188_12956)"/>
<path d="M734.542 592.784C734.542 593.607 735.171 594.165 736.03 594.165C736.89 594.165 737.478 593.644 737.478 592.784V586.011C737.478 584.214 737.009 582.755 735.993 581.765C735.029 580.775 733.492 580.228 731.434 580.228C729.637 580.228 728.308 580.541 727.006 581.036C726.537 581.218 726.146 581.713 726.146 582.286C726.146 583.016 726.745 583.589 727.475 583.589C727.631 583.589 727.787 583.563 727.97 583.511C728.829 583.172 729.819 582.964 731.018 582.964C733.232 582.964 734.43 584.006 734.43 585.959V585.968L734.542 592.784Z" fill="url(#paint2_linear_5188_12956)"/>
<path d="M733.611 578.379C733.611 578.591 733.273 578.721 732.805 578.721C732.077 578.721 731.583 578.64 730.984 578.282L729.216 577.24C728.956 577.093 728.774 576.93 728.774 576.751C728.774 576.442 729.814 576.116 730.646 576.116C731.192 576.116 731.609 576.295 731.895 576.589L733.377 578.021C733.481 578.119 733.611 578.265 733.611 578.379Z" fill="url(#paint3_linear_5188_12956)"/>
<defs>
<linearGradient id="paint0_linear_5188_12956" x1="800" y1="-1.86968e-05" x2="1.22566" y2="601.627" gradientUnits="userSpaceOnUse">
<stop stop-color="#0087B1"/>
<stop offset="1" stop-color="#001B23"/>
</linearGradient>
<linearGradient id="paint1_linear_5188_12956" x1="719.394" y1="601.3" x2="738.186" y2="600.76" gradientUnits="userSpaceOnUse">
<stop stop-color="white"/>
<stop offset="1" stop-color="#009AF9"/>
</linearGradient>
<linearGradient id="paint2_linear_5188_12956" x1="719.394" y1="601.3" x2="738.186" y2="600.76" gradientUnits="userSpaceOnUse">
<stop stop-color="white"/>
<stop offset="1" stop-color="#009AF9"/>
</linearGradient>
<linearGradient id="paint3_linear_5188_12956" x1="719.394" y1="601.3" x2="738.186" y2="600.76" gradientUnits="userSpaceOnUse">
<stop stop-color="white"/>
<stop offset="1" stop-color="#009AF9"/>
</linearGradient>
</defs>
</svg>
