<svg width="800" height="600" viewBox="0 0 800 600" fill="none" xmlns="http://www.w3.org/2000/svg">
<rect width="800" height="600" fill="url(#paint0_linear_5188_12968)"/>
<path d="M190.547 402.422H178.125V425H166.367V367.422H194.609C198.646 367.5 201.745 367.995 203.906 368.906C206.094 369.818 207.943 371.159 209.453 372.93C210.703 374.388 211.693 376.003 212.422 377.773C213.151 379.544 213.516 381.562 213.516 383.828C213.516 386.562 212.826 389.258 211.445 391.914C210.065 394.544 207.786 396.406 204.609 397.5C207.266 398.568 209.141 400.091 210.234 402.07C211.354 404.023 211.914 407.018 211.914 411.055V414.922C211.914 417.552 212.018 419.336 212.227 420.273C212.539 421.758 213.268 422.852 214.414 423.555V425H201.172C200.807 423.724 200.547 422.695 200.391 421.914C200.078 420.299 199.909 418.646 199.883 416.953L199.805 411.602C199.753 407.93 199.076 405.482 197.773 404.258C196.497 403.034 194.089 402.422 190.547 402.422ZM197.852 391.953C200.247 390.859 201.445 388.698 201.445 385.469C201.445 381.979 200.286 379.635 197.969 378.438C196.667 377.76 194.714 377.422 192.109 377.422H178.125V392.891H191.758C194.466 392.891 196.497 392.578 197.852 391.953ZM250.312 418.984C250.208 419.115 249.948 419.505 249.531 420.156C249.115 420.807 248.62 421.38 248.047 421.875C246.302 423.438 244.609 424.505 242.969 425.078C241.354 425.651 239.453 425.938 237.266 425.938C230.964 425.938 226.719 423.672 224.531 419.141C223.307 416.641 222.695 412.956 222.695 408.086V382.422H234.102V408.086C234.102 410.508 234.388 412.331 234.961 413.555C235.977 415.716 237.969 416.797 240.938 416.797C244.74 416.797 247.344 415.26 248.75 412.188C249.479 410.521 249.844 408.32 249.844 405.586V382.422H261.133V425H250.312V418.984ZM295.039 426.133C291.523 426.133 288.698 425.43 286.562 424.023C285.286 423.19 283.906 421.732 282.422 419.648V425H271.523V367.5H282.617V387.969C284.023 385.99 285.573 384.479 287.266 383.438C289.271 382.135 291.823 381.484 294.922 381.484C300.521 381.484 304.896 383.503 308.047 387.539C311.224 391.576 312.812 396.784 312.812 403.164C312.812 409.779 311.25 415.26 308.125 419.609C305 423.958 300.638 426.133 295.039 426.133ZM301.133 404.336C301.133 401.315 300.742 398.815 299.961 396.836C298.477 393.086 295.742 391.211 291.758 391.211C287.721 391.211 284.948 393.047 283.438 396.719C282.656 398.672 282.266 401.198 282.266 404.297C282.266 407.943 283.073 410.964 284.688 413.359C286.302 415.755 288.763 416.953 292.07 416.953C294.935 416.953 297.161 415.794 298.75 413.477C300.339 411.159 301.133 408.112 301.133 404.336ZM338.125 413.828L346.914 382.422H358.75L344.141 424.297C341.328 432.37 339.102 437.37 337.461 439.297C335.82 441.25 332.539 442.227 327.617 442.227C326.628 442.227 325.833 442.214 325.234 442.188C324.635 442.188 323.737 442.148 322.539 442.07V433.164L323.945 433.242C325.039 433.294 326.081 433.255 327.07 433.125C328.06 432.995 328.893 432.695 329.57 432.227C330.221 431.784 330.82 430.859 331.367 429.453C331.94 428.047 332.174 427.188 332.07 426.875L316.445 382.422H328.828L338.125 413.828ZM414.805 425H388.711V367.422H416.68C423.737 367.526 428.737 369.57 431.68 373.555C433.451 376.003 434.336 378.932 434.336 382.344C434.336 385.859 433.451 388.685 431.68 390.82C430.69 392.018 429.232 393.112 427.305 394.102C430.247 395.169 432.461 396.862 433.945 399.18C435.456 401.497 436.211 404.31 436.211 407.617C436.211 411.029 435.352 414.089 433.633 416.797C432.539 418.594 431.172 420.104 429.531 421.328C427.682 422.734 425.495 423.698 422.969 424.219C420.469 424.74 417.747 425 414.805 425ZM414.531 399.648H400.195V415H414.336C416.862 415 418.828 414.661 420.234 413.984C422.786 412.734 424.062 410.339 424.062 406.797C424.062 403.802 422.826 401.745 420.352 400.625C418.971 400 417.031 399.674 414.531 399.648ZM420.508 388.672C422.07 387.734 422.852 386.055 422.852 383.633C422.852 380.951 421.81 379.18 419.727 378.32C417.93 377.721 415.638 377.422 412.852 377.422H400.195V390.117H414.336C416.862 390.117 418.919 389.635 420.508 388.672ZM447.031 387.031C449.974 383.281 455.026 381.406 462.188 381.406C466.849 381.406 470.99 382.331 474.609 384.18C478.229 386.029 480.039 389.518 480.039 394.648V414.18C480.039 415.534 480.065 417.174 480.117 419.102C480.195 420.56 480.417 421.549 480.781 422.07C481.146 422.591 481.693 423.021 482.422 423.359V425H470.312C469.974 424.141 469.74 423.333 469.609 422.578C469.479 421.823 469.375 420.964 469.297 420C467.76 421.667 465.99 423.086 463.984 424.258C461.589 425.638 458.88 426.328 455.859 426.328C452.005 426.328 448.815 425.234 446.289 423.047C443.789 420.833 442.539 417.708 442.539 413.672C442.539 408.438 444.557 404.648 448.594 402.305C450.807 401.029 454.062 400.117 458.359 399.57L462.148 399.102C464.206 398.841 465.677 398.516 466.562 398.125C468.151 397.448 468.945 396.393 468.945 394.961C468.945 393.216 468.333 392.018 467.109 391.367C465.911 390.69 464.141 390.352 461.797 390.352C459.167 390.352 457.305 391.003 456.211 392.305C455.43 393.268 454.909 394.57 454.648 396.211H443.906C444.141 392.487 445.182 389.427 447.031 387.031ZM455.312 416.953C456.354 417.812 457.63 418.242 459.141 418.242C461.536 418.242 463.737 417.539 465.742 416.133C467.773 414.727 468.828 412.161 468.906 408.438V404.297C468.203 404.74 467.487 405.104 466.758 405.391C466.055 405.651 465.078 405.898 463.828 406.133L461.328 406.602C458.984 407.018 457.305 407.526 456.289 408.125C454.57 409.141 453.711 410.716 453.711 412.852C453.711 414.753 454.245 416.12 455.312 416.953ZM519.297 384.375C522.63 386.51 524.544 390.182 525.039 395.391H513.906C513.75 393.958 513.346 392.826 512.695 391.992C511.471 390.482 509.388 389.727 506.445 389.727C504.023 389.727 502.292 390.104 501.25 390.859C500.234 391.615 499.727 392.5 499.727 393.516C499.727 394.792 500.273 395.716 501.367 396.289C502.461 396.888 506.328 397.917 512.969 399.375C517.396 400.417 520.716 401.992 522.93 404.102C525.117 406.237 526.211 408.906 526.211 412.109C526.211 416.328 524.635 419.779 521.484 422.461C518.359 425.117 513.516 426.445 506.953 426.445C500.26 426.445 495.312 425.039 492.109 422.227C488.932 419.388 487.344 415.781 487.344 411.406H498.633C498.867 413.385 499.375 414.792 500.156 415.625C501.536 417.109 504.089 417.852 507.812 417.852C510 417.852 511.732 417.526 513.008 416.875C514.31 416.224 514.961 415.247 514.961 413.945C514.961 412.695 514.44 411.745 513.398 411.094C512.357 410.443 508.49 409.323 501.797 407.734C496.979 406.536 493.581 405.039 491.602 403.242C489.622 401.471 488.633 398.919 488.633 395.586C488.633 391.654 490.169 388.281 493.242 385.469C496.341 382.63 500.69 381.211 506.289 381.211C511.602 381.211 515.938 382.266 519.297 384.375ZM545.938 382.422V425H534.648V382.422H545.938ZM545.938 367.07V377.344H534.648V367.07H545.938ZM593.594 397.695H582.188C581.979 396.107 581.445 394.674 580.586 393.398C579.336 391.68 577.396 390.82 574.766 390.82C571.016 390.82 568.451 392.682 567.07 396.406C566.341 398.385 565.977 401.016 565.977 404.297C565.977 407.422 566.341 409.935 567.07 411.836C568.398 415.378 570.898 417.148 574.57 417.148C577.174 417.148 579.023 416.445 580.117 415.039C581.211 413.633 581.875 411.81 582.109 409.57H593.477C593.216 412.956 591.992 416.159 589.805 419.18C586.315 424.049 581.146 426.484 574.297 426.484C567.448 426.484 562.409 424.453 559.18 420.391C555.951 416.328 554.336 411.055 554.336 404.57C554.336 397.253 556.12 391.562 559.688 387.5C563.255 383.438 568.177 381.406 574.453 381.406C579.792 381.406 584.154 382.604 587.539 385C590.951 387.396 592.969 391.628 593.594 397.695ZM630.625 384.375C633.958 386.51 635.872 390.182 636.367 395.391H625.234C625.078 393.958 624.674 392.826 624.023 391.992C622.799 390.482 620.716 389.727 617.773 389.727C615.352 389.727 613.62 390.104 612.578 390.859C611.562 391.615 611.055 392.5 611.055 393.516C611.055 394.792 611.602 395.716 612.695 396.289C613.789 396.888 617.656 397.917 624.297 399.375C628.724 400.417 632.044 401.992 634.258 404.102C636.445 406.237 637.539 408.906 637.539 412.109C637.539 416.328 635.964 419.779 632.812 422.461C629.688 425.117 624.844 426.445 618.281 426.445C611.589 426.445 606.641 425.039 603.438 422.227C600.26 419.388 598.672 415.781 598.672 411.406H609.961C610.195 413.385 610.703 414.792 611.484 415.625C612.865 417.109 615.417 417.852 619.141 417.852C621.328 417.852 623.06 417.526 624.336 416.875C625.638 416.224 626.289 415.247 626.289 413.945C626.289 412.695 625.768 411.745 624.727 411.094C623.685 410.443 619.818 409.323 613.125 407.734C608.307 406.536 604.909 405.039 602.93 403.242C600.951 401.471 599.961 398.919 599.961 395.586C599.961 391.654 601.497 388.281 604.57 385.469C607.669 382.63 612.018 381.211 617.617 381.211C622.93 381.211 627.266 382.266 630.625 384.375Z" fill="#BF3133"/>
<path d="M427.265 164.994C408.591 177.027 390.088 188.953 371.097 201.189C399.538 205.072 427.471 208.885 455.958 212.774C446.255 196.614 436.799 180.87 427.265 164.994V164.994ZM463.989 111.744C461.481 115.508 458.969 119.27 456.466 123.036C447.866 135.973 439.269 148.909 430.68 161.85C430.202 162.573 429.581 163.145 430.255 164.255C438.557 177.961 446.791 191.71 455.045 205.444C456.347 207.613 457.665 209.774 459.351 211.855L464.356 111.852L463.989 111.744V111.744ZM350.679 154.479C351.068 154.847 352.038 155.06 352.487 154.839C360.449 150.925 368.462 147.099 376.251 142.863C378.789 141.484 380.74 139.008 382.93 137.002C390.175 130.358 397.407 123.7 404.64 117.04C405.083 116.631 405.605 116.236 405.871 115.72C408.468 110.643 411.019 105.542 413.663 100.291C410.511 99.1104 407.523 97.9499 404.5 96.8948C404.089 96.7517 403.444 97.0364 402.996 97.285C395.997 101.196 388.866 104.897 382.087 109.163C378.695 111.296 375.931 114.439 372.928 117.18C368.091 121.597 363.256 126.024 358.487 130.519C357.22 131.711 356.067 133.074 355.083 134.508C351.819 139.257 348.657 144.074 345.346 149.03C347.199 150.947 348.88 152.776 350.679 154.479V154.479ZM379.777 147.985C375.819 164.718 371.879 181.355 367.812 198.539C386.888 186.248 405.524 174.241 424.036 162.313C409.304 157.543 394.618 152.789 379.777 147.985V147.985ZM411.339 119.887L427.555 159.332C438.141 143.432 448.515 127.846 459.125 111.904C443.008 114.597 427.276 117.225 411.339 119.887ZM380.442 144.563C394.956 149.276 409.182 153.894 423.819 158.644C418.383 145.401 413.134 132.621 407.775 119.57L380.442 144.563V144.563ZM351.279 164.236L336.097 200.527C345.826 200.239 355.258 199.96 365.011 199.672C360.432 187.856 355.943 176.27 351.279 164.236V164.236ZM365.355 191.256L365.713 191.178C369.183 176.743 372.706 162.406 376.251 147.408C368.345 151.516 360.803 155.436 353.054 159.464C357.007 169.743 361.224 180.583 365.355 191.256V191.256ZM453.29 109.564C448.673 108.342 444.059 107.113 439.437 105.899C432.799 104.155 426.155 102.429 419.519 100.667C418.691 100.447 418.09 100.304 417.603 101.303C415.258 106.107 412.839 110.877 410.457 115.662C410.383 115.811 410.398 116.005 410.341 116.373C424.719 114.195 439.002 112.03 453.282 109.866L453.29 109.564V109.564ZM426.506 98.6349C438.905 102.066 451.305 105.496 464.137 109.046L457.92 91.3289C447.383 93.666 436.973 95.9741 426.562 98.2823L426.506 98.6349V98.6349ZM437.898 213.332L407.024 209.118C394.2 207.367 381.399 205.441 368.546 203.959C363.885 203.423 359.099 203.917 354.373 203.997C350.49 204.063 346.606 204.211 342.724 204.334C342.324 204.345 341.925 204.426 341.527 204.855C373.628 207.824 405.731 210.791 437.83 213.761L437.898 213.332V213.332ZM336.73 189.45C340.87 179.851 344.986 170.246 349.14 160.656C349.556 159.692 349.526 159.04 348.712 158.267C346.973 156.612 345.36 154.83 343.46 152.856L335.885 190.248L336.164 190.38C336.356 190.071 336.589 189.782 336.73 189.45ZM418.263 96.1013C425.24 94.3004 432.317 92.8956 439.353 91.3245C439.807 91.2219 440.252 91.0716 440.7 90.943L440.632 90.599L410.402 94.6647C413.242 95.9062 415.429 96.8326 418.263 96.1013V96.1013ZM352.769 244.149V256.502H345.941V224.305H355.323C359.696 224.305 362.934 225.101 365.034 226.694C367.134 228.287 368.185 230.706 368.185 233.949C368.185 235.844 367.663 237.529 366.619 239.004C365.577 240.479 364.103 241.637 362.192 242.474L371.663 256.501H364.087L356.402 244.148H352.769V244.149ZM352.769 238.599H354.972C357.128 238.599 358.722 238.238 359.75 237.519C360.776 236.8 361.29 235.669 361.29 234.129C361.29 232.601 360.766 231.516 359.715 230.869C358.666 230.223 357.04 229.9 354.839 229.9H352.767V238.599H352.769ZM392.628 256.502L391.726 253.353H391.373C390.653 254.499 389.633 255.382 388.313 256.006C386.991 256.631 385.485 256.941 383.798 256.941C380.905 256.941 378.725 256.168 377.257 254.619C375.788 253.069 375.056 250.842 375.056 247.936V231.881H381.772V246.262C381.772 248.038 382.089 249.371 382.72 250.26C383.35 251.149 384.355 251.591 385.735 251.591C387.615 251.591 388.973 250.962 389.809 249.709C390.646 248.453 391.065 246.373 391.065 243.467V231.883H397.782V256.504H392.628V256.502ZM418.526 231.417C421.433 231.417 423.709 232.553 425.355 234.821C426.999 237.089 427.82 240.198 427.82 244.148C427.82 248.213 426.971 251.363 425.277 253.593C423.581 255.826 421.272 256.94 418.35 256.94C415.458 256.94 413.19 255.889 411.545 253.789H411.083L409.961 256.499H404.829V222.235H411.545V230.208C411.545 231.221 411.456 232.842 411.279 235.075H411.545C413.115 232.639 415.443 231.417 418.526 231.417V231.417ZM416.367 236.792C414.709 236.792 413.498 237.303 412.735 238.323C411.972 239.345 411.573 241.029 411.545 243.379V244.104C411.545 246.748 411.937 248.641 412.722 249.787C413.508 250.932 414.753 251.504 416.457 251.504C417.835 251.504 418.932 250.868 419.748 249.599C420.563 248.33 420.97 246.483 420.97 244.061C420.97 241.639 420.558 239.82 419.736 238.609C418.915 237.398 417.792 236.792 416.367 236.792ZM429.405 231.881H436.76L441.407 245.733C441.803 246.937 442.076 248.361 442.221 250.005H442.354C442.514 248.494 442.829 247.069 443.299 245.733L447.857 231.881H455.058L444.642 259.651C443.688 262.22 442.326 264.143 440.559 265.421C438.788 266.699 436.723 267.336 434.358 267.336C433.198 267.336 432.06 267.212 430.946 266.962V261.633C431.754 261.822 432.634 261.918 433.588 261.918C434.776 261.918 435.815 261.555 436.704 260.828C437.593 260.102 438.287 259.005 438.784 257.537L439.18 256.324L429.405 231.881Z" fill="#D91404"/>
<path d="M741.436 592.713C741.436 593.599 742.139 594.276 742.999 594.276C743.884 594.276 744.588 593.599 744.588 592.713V576.563C744.588 575.703 743.884 575 742.999 575C742.113 575 741.436 575.703 741.436 576.563V592.713Z" fill="#030060"/>
<path d="M748.655 576.849C748.655 577.787 749.436 578.412 750.452 578.412C751.468 578.412 752.249 577.787 752.249 576.849V576.693C752.249 575.755 751.468 575.156 750.452 575.156C749.436 575.156 748.655 575.755 748.655 576.693V576.849ZM748.889 592.713C748.889 593.599 749.592 594.276 750.452 594.276C751.338 594.276 752.041 593.599 752.041 592.713V581.825C752.041 580.939 751.338 580.236 750.452 580.236C749.566 580.236 748.889 580.939 748.889 581.825V592.713Z" fill="#030060"/>
<path d="M756.16 592.713C756.16 593.573 756.864 594.276 757.723 594.276C758.609 594.276 759.312 593.573 759.312 592.713V592.01C760.276 593.287 761.709 594.433 764.001 594.433C767.257 594.433 770.383 591.854 770.383 587.295V587.243C770.383 582.658 767.231 580.106 764.001 580.106C761.761 580.106 760.328 581.252 759.312 582.685V576.563C759.312 575.677 758.609 575 757.723 575C756.838 575 756.16 575.677 756.16 576.563V592.713ZM763.246 591.698C761.11 591.698 759.234 589.926 759.234 587.295V587.243C759.234 584.612 761.11 582.841 763.246 582.841C765.382 582.841 767.179 584.586 767.179 587.243V587.295C767.179 590.004 765.408 591.698 763.246 591.698Z" fill="#030060"/>
<path d="M773.819 592.713C773.819 593.599 774.522 594.276 775.382 594.276C776.268 594.276 776.971 593.599 776.971 592.713V576.563C776.971 575.703 776.268 575 775.382 575C774.496 575 773.819 575.703 773.819 576.563V592.713Z" fill="#030060"/>
<path d="M787.629 594.459C791.875 594.459 795.001 591.203 795.001 587.295V587.243C795.001 583.31 791.901 580.106 787.681 580.106C783.461 580.106 780.335 583.362 780.335 587.295V587.347C780.335 591.255 783.435 594.459 787.629 594.459ZM787.681 591.698C785.232 591.698 783.487 589.692 783.487 587.295V587.243C783.487 584.847 785.102 582.867 787.629 582.867C790.103 582.867 791.849 584.873 791.849 587.295V587.347C791.849 589.718 790.234 591.698 787.681 591.698Z" fill="#030060"/>
<path d="M736.96 590.09C735.74 590.65 734.453 591.046 733.208 591.294C728.074 592.314 725.36 589.099 729.634 586.781C730.099 586.529 730.632 586.291 731.228 586.075L732.011 585.826C732.241 585.763 732.463 585.661 732.534 585.515C732.905 584.723 729.731 584.467 727.622 585.589C728.458 585.431 729.186 585.408 729.668 585.609C724.878 586.845 723.788 590.757 726.335 592.642C727.649 593.615 729.127 593.873 731.832 593.682C733.637 593.555 735.48 592.837 736.96 591.969V590.09Z" fill="url(#paint1_linear_5188_12968)"/>
<path d="M734.542 592.784C734.542 593.607 735.171 594.165 736.03 594.165C736.89 594.165 737.478 593.644 737.478 592.784V586.011C737.478 584.214 737.009 582.755 735.993 581.765C735.029 580.776 733.492 580.228 731.434 580.228C729.637 580.228 728.308 580.541 727.006 581.036C726.537 581.218 726.146 581.713 726.146 582.286C726.146 583.016 726.745 583.589 727.475 583.589C727.631 583.589 727.787 583.563 727.97 583.511C728.829 583.172 729.819 582.964 731.018 582.964C733.232 582.964 734.43 584.006 734.43 585.959V585.968L734.542 592.784Z" fill="url(#paint2_linear_5188_12968)"/>
<path d="M733.611 578.379C733.611 578.591 733.273 578.721 732.805 578.721C732.077 578.721 731.583 578.64 730.984 578.282L729.216 577.24C728.956 577.093 728.774 576.93 728.774 576.751C728.774 576.442 729.814 576.116 730.646 576.116C731.192 576.116 731.609 576.295 731.895 576.589L733.377 578.021C733.481 578.119 733.611 578.265 733.611 578.379Z" fill="url(#paint3_linear_5188_12968)"/>
<defs>
<linearGradient id="paint0_linear_5188_12968" x1="800" y1="-30.5" x2="2.05509e-05" y2="600" gradientUnits="userSpaceOnUse">
<stop stop-color="#FFC7DB"/>
<stop stop-color="white"/>
<stop offset="1" stop-color="#FFCCEB"/>
</linearGradient>
<linearGradient id="paint1_linear_5188_12968" x1="725" y1="576.116" x2="725" y2="594.165" gradientUnits="userSpaceOnUse">
<stop stop-color="#008EE3"/>
<stop offset="1" stop-color="#0055C2"/>
</linearGradient>
<linearGradient id="paint2_linear_5188_12968" x1="725" y1="576.116" x2="725" y2="594.165" gradientUnits="userSpaceOnUse">
<stop stop-color="#008EE3"/>
<stop offset="1" stop-color="#0055C2"/>
</linearGradient>
<linearGradient id="paint3_linear_5188_12968" x1="725" y1="576.116" x2="725" y2="594.165" gradientUnits="userSpaceOnUse">
<stop stop-color="#008EE3"/>
<stop offset="1" stop-color="#0055C2"/>
</linearGradient>
</defs>
</svg>
