<svg width="800" height="600" viewBox="0 0 800 600" fill="none" xmlns="http://www.w3.org/2000/svg">
<rect width="800" height="600" fill="url(#paint0_linear_5188_12980)"/>
<path d="M245.406 472.594C242.229 474.547 238.323 475.523 233.688 475.523C226.057 475.523 219.807 472.88 214.938 467.594C209.859 462.281 207.32 455.016 207.32 445.797C207.32 436.474 209.885 429 215.016 423.375C220.146 417.75 226.93 414.938 235.367 414.938C242.685 414.938 248.557 416.799 252.984 420.523C257.438 424.221 259.99 428.844 260.641 434.391H248.805C247.893 430.458 245.667 427.711 242.125 426.148C240.146 425.289 237.945 424.859 235.523 424.859C230.888 424.859 227.073 426.617 224.078 430.133C221.109 433.622 219.625 438.883 219.625 445.914C219.625 452.997 221.24 458.01 224.469 460.953C227.698 463.896 231.37 465.367 235.484 465.367C239.521 465.367 242.828 464.208 245.406 461.891C247.984 459.547 249.573 456.487 250.172 452.711H236.852V443.102H260.836V474H252.867L251.656 466.812C249.339 469.547 247.255 471.474 245.406 472.594ZM306.969 436.812C310.562 441.318 312.359 446.643 312.359 452.789C312.359 459.039 310.562 464.391 306.969 468.844C303.375 473.271 297.919 475.484 290.602 475.484C283.284 475.484 277.828 473.271 274.234 468.844C270.641 464.391 268.844 459.039 268.844 452.789C268.844 446.643 270.641 441.318 274.234 436.812C277.828 432.307 283.284 430.055 290.602 430.055C297.919 430.055 303.375 432.307 306.969 436.812ZM290.562 439.469C287.307 439.469 284.794 440.628 283.023 442.945C281.279 445.237 280.406 448.518 280.406 452.789C280.406 457.06 281.279 460.354 283.023 462.672C284.794 464.99 287.307 466.148 290.562 466.148C293.818 466.148 296.318 464.99 298.062 462.672C299.807 460.354 300.68 457.06 300.68 452.789C300.68 448.518 299.807 445.237 298.062 442.945C296.318 440.628 293.818 439.469 290.562 439.469ZM369.82 474H343.727V416.422H371.695C378.753 416.526 383.753 418.57 386.695 422.555C388.466 425.003 389.352 427.932 389.352 431.344C389.352 434.859 388.466 437.685 386.695 439.82C385.706 441.018 384.247 442.112 382.32 443.102C385.263 444.169 387.477 445.862 388.961 448.18C390.471 450.497 391.227 453.31 391.227 456.617C391.227 460.029 390.367 463.089 388.648 465.797C387.555 467.594 386.188 469.104 384.547 470.328C382.698 471.734 380.51 472.698 377.984 473.219C375.484 473.74 372.763 474 369.82 474ZM369.547 448.648H355.211V464H369.352C371.878 464 373.844 463.661 375.25 462.984C377.802 461.734 379.078 459.339 379.078 455.797C379.078 452.802 377.841 450.745 375.367 449.625C373.987 449 372.047 448.674 369.547 448.648ZM375.523 437.672C377.086 436.734 377.867 435.055 377.867 432.633C377.867 429.951 376.826 428.18 374.742 427.32C372.945 426.721 370.654 426.422 367.867 426.422H355.211V439.117H369.352C371.878 439.117 373.935 438.635 375.523 437.672ZM402.047 436.031C404.99 432.281 410.042 430.406 417.203 430.406C421.865 430.406 426.005 431.331 429.625 433.18C433.245 435.029 435.055 438.518 435.055 443.648V463.18C435.055 464.534 435.081 466.174 435.133 468.102C435.211 469.56 435.432 470.549 435.797 471.07C436.161 471.591 436.708 472.021 437.438 472.359V474H425.328C424.99 473.141 424.755 472.333 424.625 471.578C424.495 470.823 424.391 469.964 424.312 469C422.776 470.667 421.005 472.086 419 473.258C416.604 474.638 413.896 475.328 410.875 475.328C407.021 475.328 403.831 474.234 401.305 472.047C398.805 469.833 397.555 466.708 397.555 462.672C397.555 457.438 399.573 453.648 403.609 451.305C405.823 450.029 409.078 449.117 413.375 448.57L417.164 448.102C419.221 447.841 420.693 447.516 421.578 447.125C423.167 446.448 423.961 445.393 423.961 443.961C423.961 442.216 423.349 441.018 422.125 440.367C420.927 439.69 419.156 439.352 416.812 439.352C414.182 439.352 412.32 440.003 411.227 441.305C410.445 442.268 409.924 443.57 409.664 445.211H398.922C399.156 441.487 400.198 438.427 402.047 436.031ZM410.328 465.953C411.37 466.812 412.646 467.242 414.156 467.242C416.552 467.242 418.753 466.539 420.758 465.133C422.789 463.727 423.844 461.161 423.922 457.438V453.297C423.219 453.74 422.503 454.104 421.773 454.391C421.07 454.651 420.094 454.898 418.844 455.133L416.344 455.602C414 456.018 412.32 456.526 411.305 457.125C409.586 458.141 408.727 459.716 408.727 461.852C408.727 463.753 409.26 465.12 410.328 465.953ZM474.312 433.375C477.646 435.51 479.56 439.182 480.055 444.391H468.922C468.766 442.958 468.362 441.826 467.711 440.992C466.487 439.482 464.404 438.727 461.461 438.727C459.039 438.727 457.307 439.104 456.266 439.859C455.25 440.615 454.742 441.5 454.742 442.516C454.742 443.792 455.289 444.716 456.383 445.289C457.477 445.888 461.344 446.917 467.984 448.375C472.411 449.417 475.732 450.992 477.945 453.102C480.133 455.237 481.227 457.906 481.227 461.109C481.227 465.328 479.651 468.779 476.5 471.461C473.375 474.117 468.531 475.445 461.969 475.445C455.276 475.445 450.328 474.039 447.125 471.227C443.948 468.388 442.359 464.781 442.359 460.406H453.648C453.883 462.385 454.391 463.792 455.172 464.625C456.552 466.109 459.104 466.852 462.828 466.852C465.016 466.852 466.747 466.526 468.023 465.875C469.326 465.224 469.977 464.247 469.977 462.945C469.977 461.695 469.456 460.745 468.414 460.094C467.372 459.443 463.505 458.323 456.812 456.734C451.995 455.536 448.596 454.039 446.617 452.242C444.638 450.471 443.648 447.919 443.648 444.586C443.648 440.654 445.185 437.281 448.258 434.469C451.357 431.63 455.706 430.211 461.305 430.211C466.617 430.211 470.953 431.266 474.312 433.375ZM500.953 431.422V474H489.664V431.422H500.953ZM500.953 416.07V426.344H489.664V416.07H500.953ZM548.609 446.695H537.203C536.995 445.107 536.461 443.674 535.602 442.398C534.352 440.68 532.411 439.82 529.781 439.82C526.031 439.82 523.466 441.682 522.086 445.406C521.357 447.385 520.992 450.016 520.992 453.297C520.992 456.422 521.357 458.935 522.086 460.836C523.414 464.378 525.914 466.148 529.586 466.148C532.19 466.148 534.039 465.445 535.133 464.039C536.227 462.633 536.891 460.81 537.125 458.57H548.492C548.232 461.956 547.008 465.159 544.82 468.18C541.331 473.049 536.161 475.484 529.312 475.484C522.464 475.484 517.424 473.453 514.195 469.391C510.966 465.328 509.352 460.055 509.352 453.57C509.352 446.253 511.135 440.562 514.703 436.5C518.271 432.438 523.193 430.406 529.469 430.406C534.807 430.406 539.169 431.604 542.555 434C545.966 436.396 547.984 440.628 548.609 446.695ZM585.641 433.375C588.974 435.51 590.888 439.182 591.383 444.391H580.25C580.094 442.958 579.69 441.826 579.039 440.992C577.815 439.482 575.732 438.727 572.789 438.727C570.367 438.727 568.635 439.104 567.594 439.859C566.578 440.615 566.07 441.5 566.07 442.516C566.07 443.792 566.617 444.716 567.711 445.289C568.805 445.888 572.672 446.917 579.312 448.375C583.74 449.417 587.06 450.992 589.273 453.102C591.461 455.237 592.555 457.906 592.555 461.109C592.555 465.328 590.979 468.779 587.828 471.461C584.703 474.117 579.859 475.445 573.297 475.445C566.604 475.445 561.656 474.039 558.453 471.227C555.276 468.388 553.688 464.781 553.688 460.406H564.977C565.211 462.385 565.719 463.792 566.5 464.625C567.88 466.109 570.432 466.852 574.156 466.852C576.344 466.852 578.076 466.526 579.352 465.875C580.654 465.224 581.305 464.247 581.305 462.945C581.305 461.695 580.784 460.745 579.742 460.094C578.701 459.443 574.833 458.323 568.141 456.734C563.323 455.536 559.924 454.039 557.945 452.242C555.966 450.471 554.977 447.919 554.977 444.586C554.977 440.654 556.513 437.281 559.586 434.469C562.685 431.63 567.034 430.211 572.633 430.211C577.945 430.211 582.281 431.266 585.641 433.375Z" fill="#196060"/>
<path fill-rule="evenodd" clip-rule="evenodd" d="M314.87 216.327C315.267 223.272 322.212 220.097 325.387 217.914C328.364 215.731 329.356 217.517 329.554 213.35C329.753 210.572 329.951 207.992 329.951 205.214C325.387 204.817 320.426 205.809 316.656 208.587C314.87 209.977 311.1 214.541 314.87 216.327" fill="#F6D2A2"/>
<path d="M318.64 221.288C317.251 221.288 314.671 220.692 314.274 216.723C313.083 215.93 312.687 214.938 312.687 214.342C312.488 211.961 315.068 209.183 316.457 208.191C319.632 205.809 323.799 204.619 328.165 204.619H330.744V205.214C330.943 207.397 330.744 209.58 330.546 211.564C330.546 212.159 330.546 212.755 330.348 213.35C330.149 216.327 329.554 216.723 328.165 217.319C327.569 217.517 326.974 217.716 325.982 218.509C324.99 219.105 321.616 221.288 318.64 221.288V221.288ZM328.165 205.809C323.998 205.809 320.227 207 317.251 209.183C315.862 210.175 313.877 212.556 314.076 214.144C314.076 214.739 314.473 215.334 315.266 215.731L315.663 215.93V216.327C315.862 219.502 317.449 219.898 318.64 219.898C320.624 219.898 323.402 218.509 325.188 217.319C326.379 216.525 327.173 216.327 327.768 216.128C328.76 215.731 328.958 215.731 329.157 213.35C329.157 212.755 329.157 212.159 329.355 211.564C329.554 209.778 329.554 207.794 329.554 206.008C328.958 205.809 328.562 205.809 328.165 205.809V205.809Z" fill="black"/>
<path fill-rule="evenodd" clip-rule="evenodd" d="M314.871 216.327C315.863 215.93 317.054 215.731 317.649 214.739Z" fill="#C6B198"/>
<path d="M314.87 216.922C314.672 216.922 314.275 216.723 314.275 216.525C314.077 216.128 314.275 215.731 314.672 215.731C314.87 215.731 315.069 215.533 315.069 215.533C315.863 215.136 316.656 214.937 317.053 214.342C317.252 214.144 317.649 213.945 318.045 214.144C318.244 214.342 318.442 214.739 318.244 215.136C317.45 216.128 316.458 216.525 315.664 216.723L315.267 216.922H314.87Z" fill="black"/>
<path fill-rule="evenodd" clip-rule="evenodd" d="M331.142 132.388C304.154 124.847 324.196 90.5172 345.826 104.606L331.142 132.388V132.388Z" fill="#6AD7E5"/>
<path d="M331.538 133.181L330.943 132.983C317.053 129.014 317.251 119.092 317.648 116.116C318.64 108.575 325.784 100.638 335.309 100.638C339.079 100.638 342.651 101.828 346.223 104.209L346.818 104.606L331.538 133.181V133.181ZM335.309 102.027C326.379 102.027 319.831 109.369 318.838 116.314C317.846 123.458 322.212 129.014 330.745 131.594L344.834 104.805C341.857 103.019 338.682 102.027 335.309 102.027V102.027Z" fill="black"/>
<path fill-rule="evenodd" clip-rule="evenodd" d="M450.801 102.027C472.034 87.1437 491.48 120.878 466.676 129.411L450.801 102.027V102.027Z" fill="#6AD7E5"/>
<path d="M466.476 130.205L450.006 101.828L450.601 101.431C454.371 98.8516 458.142 97.4625 461.912 97.4625C471.04 97.4625 477.589 105.003 478.978 112.345C479.573 115.322 480.168 125.442 467.071 129.808L466.476 130.205ZM451.792 102.423L467.071 128.816C474.811 126.038 478.779 120.084 477.589 112.941C476.398 106.194 470.246 99.2485 461.912 99.2485C458.539 99.05 455.165 100.042 451.792 102.423Z" fill="black"/>
<path fill-rule="evenodd" clip-rule="evenodd" d="M455.562 302.845C460.92 306.219 470.842 316.339 462.706 321.3C454.967 328.444 450.602 313.363 443.656 311.378C446.633 307.409 450.403 303.639 455.562 302.845Z" fill="#F6D2A2"/>
<path d="M458.538 323.88C455.363 323.88 452.585 320.705 450.204 317.728C448.021 315.347 445.838 312.767 443.457 311.973L442.465 311.775L443.06 310.981C445.441 307.608 449.41 303.242 455.363 302.25H455.562L455.76 302.448C459.134 304.631 466.476 310.783 466.277 316.537C466.277 318.72 465.087 320.506 462.904 321.895C461.515 323.284 460.126 323.88 458.538 323.88V323.88ZM444.648 310.981C447.029 311.973 449.013 314.553 450.998 316.736C453.379 319.713 455.76 322.292 458.34 322.292C459.53 322.292 460.721 321.697 461.912 320.506H462.11C463.896 319.316 464.888 317.927 464.888 316.141C464.888 311.577 459.134 305.822 455.165 303.242C451.593 304.234 448.021 306.616 444.648 310.981ZM462.705 321.895C462.507 321.895 462.309 321.697 462.11 321.498C461.713 320.705 461.316 319.713 461.118 318.919C460.523 317.331 459.927 315.744 458.737 314.553C458.538 314.355 458.538 313.958 458.737 313.561C458.935 313.362 459.332 313.362 459.729 313.561C461.118 314.95 461.912 316.736 462.507 318.522L463.499 320.903C463.698 321.3 463.499 321.697 463.301 321.895H462.705V321.895Z" fill="black"/>
<path fill-rule="evenodd" clip-rule="evenodd" d="M358.725 314.355C352.375 315.347 348.803 321.102 343.446 324.078C338.485 327.055 336.5 323.086 336.103 322.292C335.31 321.895 335.31 322.689 334.119 321.498C329.555 314.156 338.882 308.798 343.843 305.227C350.788 303.639 355.153 309.592 358.725 314.355" fill="#F6D2A2"/>
<path d="M340.071 325.666C337.492 325.666 336.103 323.483 335.706 322.689H335.507C334.912 322.689 334.515 322.491 333.721 321.697V321.498C329.356 314.553 336.896 309.195 341.857 305.623L343.643 304.433H344.04C344.834 304.234 345.429 304.234 346.223 304.234C352.176 304.234 355.946 309.394 359.121 313.561L360.114 314.95L358.923 315.148C355.153 315.744 352.375 318.125 349.596 320.506C347.81 322.094 346.025 323.483 344.04 324.673C342.453 325.269 341.262 325.666 340.071 325.666V325.666ZM335.706 321.498C335.904 321.498 336.103 321.498 336.5 321.697H336.698L336.896 321.895C337.293 322.491 338.285 324.277 340.27 324.277C341.262 324.277 342.254 323.88 343.246 323.284C345.231 322.292 347.017 320.705 348.604 319.316C351.184 317.133 353.962 314.752 357.534 313.759C354.557 309.791 350.985 305.425 346.025 305.425C345.429 305.425 344.834 305.425 344.239 305.623L342.651 306.814C337.492 310.386 331.142 314.95 334.912 320.903C335.11 321.3 335.309 321.498 335.706 321.498V321.498ZM336.103 322.888C335.706 322.888 335.309 322.491 335.507 322.094C335.706 320.109 336.698 318.72 337.69 317.133C338.285 316.339 338.682 315.545 339.079 314.752C339.278 314.355 339.675 314.355 339.873 314.355C340.27 314.553 340.27 314.95 340.27 315.148C339.873 316.141 339.278 316.934 338.682 317.728C337.69 319.117 336.896 320.308 336.698 321.895C336.698 322.689 336.5 322.888 336.103 322.888V322.888Z" fill="black"/>
<path fill-rule="evenodd" clip-rule="evenodd" d="M332.333 123.061C328.761 121.275 326.181 118.695 328.364 114.528C330.348 110.758 334.119 111.155 337.69 112.941L332.333 123.061V123.061ZM461.119 119.489C464.69 117.703 467.27 115.123 465.087 110.956C463.103 107.186 459.333 107.583 455.761 109.369L461.119 119.489Z" fill="black"/>
<path fill-rule="evenodd" clip-rule="evenodd" d="M485.527 215.334C485.13 222.28 478.184 219.105 475.009 216.922C472.033 214.739 471.041 216.525 470.842 212.358C470.644 209.58 470.445 207 470.445 204.222C475.009 203.825 479.97 204.817 483.741 207.595C485.725 209.183 489.297 213.548 485.527 215.334" fill="#F6D2A2"/>
<path d="M481.954 220.295C478.978 220.295 475.604 218.113 474.612 217.517C473.62 216.922 473.025 216.525 472.429 216.327C470.842 215.731 470.445 215.334 470.247 212.358C470.247 211.763 470.247 211.167 470.048 210.572C469.85 208.588 469.651 206.405 469.85 204.222V203.627H472.429C476.795 203.627 480.962 204.817 484.137 207.198C485.526 208.191 488.106 210.969 487.908 213.35C487.908 214.144 487.511 215.136 486.32 215.731C485.923 219.7 483.344 220.295 481.954 220.295V220.295ZM471.04 205.016C471.04 206.802 471.04 208.786 471.239 210.572C471.239 211.167 471.239 211.763 471.437 212.358C471.636 214.739 471.834 214.739 472.826 215.136C473.422 215.334 474.215 215.731 475.406 216.327C477.192 217.517 479.97 218.906 481.954 218.906C483.145 218.906 484.733 218.509 484.931 215.334V214.938L485.328 214.739C486.122 214.342 486.519 213.945 486.519 213.152C486.717 211.564 484.733 209.183 483.344 208.191C480.367 206.008 476.398 204.817 472.429 204.817C472.033 205.016 471.636 205.016 471.04 205.016V205.016Z" fill="black"/>
<path fill-rule="evenodd" clip-rule="evenodd" d="M485.526 215.334C484.534 214.938 483.343 214.739 482.748 213.747Z" fill="#C6B198"/>
<path d="M485.526 216.128H485.328L484.931 215.93C483.939 215.533 482.946 215.334 482.351 214.342C482.153 214.144 482.153 213.548 482.549 213.35C482.748 213.152 483.343 213.152 483.542 213.548C483.939 214.144 484.732 214.342 485.526 214.739C485.724 214.739 485.923 214.938 485.923 214.938C486.32 215.136 486.518 215.533 486.32 215.731C486.121 215.93 485.724 216.128 485.526 216.128Z" fill="black"/>
<path fill-rule="evenodd" clip-rule="evenodd" d="M397.62 87.9375C424.607 87.9375 449.809 91.7078 463.104 117.703C475.01 146.675 470.645 178.028 472.629 208.786C474.216 235.178 477.59 265.539 465.485 289.947C452.587 315.545 420.44 322.094 394.048 321.102C373.212 320.308 348.209 313.561 336.302 294.511C322.61 272.286 328.96 239.147 329.952 214.342C331.143 184.973 322.015 155.406 331.738 126.831C341.462 96.8672 368.449 90.1203 397.62 87.9375" fill="#6AD7E5"/>
<path d="M398.611 321.895H393.65C385.515 321.697 373.211 320.308 361.107 315.347C349.399 310.584 340.866 303.838 335.31 294.908C324.197 276.85 326.182 252.045 327.968 230.019C328.365 224.463 328.761 219.303 328.96 214.342C329.357 204.023 328.563 193.308 327.571 183.188C325.983 164.534 324.396 145.286 330.547 126.633C335.31 112.742 343.843 102.82 356.741 96.4703C366.861 91.5094 379.363 88.7313 397.222 87.3422C423.813 87.1438 450.205 90.9141 463.5 117.306C472.232 138.539 472.232 161.359 472.43 183.386C472.43 191.72 472.43 200.253 473.026 208.588C473.224 211.167 473.422 213.747 473.422 216.327C475.01 240.536 476.796 267.92 465.683 290.145C460.127 301.456 450.404 309.791 437.108 315.148C426.393 319.514 412.899 321.895 398.611 321.895V321.895ZM397.619 88.5328C369.64 90.7156 342.255 96.8672 332.135 127.03C325.983 145.484 327.571 164.534 329.158 182.989C329.952 193.308 330.944 203.825 330.547 214.342C330.349 219.303 329.952 224.463 329.555 230.019C327.769 251.847 325.785 276.453 336.699 294.114C341.263 301.456 355.947 318.919 393.849 320.308H398.81C442.665 320.308 458.936 300.861 464.89 289.352C475.804 267.523 474.018 240.139 472.629 216.128C472.43 213.548 472.232 210.969 472.232 208.389C471.835 200.055 471.636 191.522 471.636 183.188C471.438 161.359 471.438 138.539 462.905 117.505C456.952 105.797 448.022 97.8594 435.719 93.2953C423.019 89.1281 408.732 88.5328 397.619 88.5328V88.5328Z" fill="black"/>
<path fill-rule="evenodd" clip-rule="evenodd" d="M402.382 124.053C407.145 152.231 453.182 144.691 446.634 116.314C440.68 90.914 400.795 98.0578 402.382 124.053Z" fill="white"/>
<path d="M424.209 142.508C415.279 142.508 403.968 137.745 401.587 124.252C401.19 117.902 403.174 112.147 407.342 107.781C411.906 102.82 418.851 100.042 425.995 100.042C434.329 100.042 444.251 104.408 447.029 116.512C448.617 123.259 447.426 129.212 443.656 133.975C439.488 139.134 432.146 142.508 424.209 142.508ZM402.976 124.053C403.968 129.609 406.548 133.975 410.715 137.15C414.287 139.928 419.248 141.317 424.209 141.317C431.551 141.317 438.695 138.142 442.663 133.181C446.235 128.816 447.227 123.061 445.838 116.711C443.259 105.4 433.932 101.431 425.995 101.431C419.248 101.431 412.699 104.209 408.334 108.773C404.563 112.742 402.579 118.1 402.976 124.053V124.053Z" fill="black"/>
<path fill-rule="evenodd" clip-rule="evenodd" d="M347.415 128.617C353.765 153.025 392.857 146.873 391.468 122.267C389.682 92.8984 341.263 98.4547 347.415 128.617Z" fill="white"/>
<path d="M368.249 144.889C359.717 144.889 349.795 140.722 346.62 128.816C345.231 121.87 346.62 115.52 350.588 110.758C354.954 105.4 362.098 102.225 369.837 102.225C380.156 102.225 391.07 108.377 391.864 122.267C392.26 128.022 390.474 133.181 386.506 137.348C382.338 141.912 375.393 144.889 368.249 144.889ZM369.837 103.614C362.495 103.614 355.748 106.591 351.581 111.552C347.81 116.116 346.62 121.87 348.009 128.419C350.787 139.531 360.312 143.5 368.249 143.5C374.996 143.5 381.545 140.92 385.712 136.356C389.284 132.586 391.07 127.625 390.673 122.267C390.276 113.734 384.521 103.614 369.837 103.614V103.614Z" fill="black"/>
<path fill-rule="evenodd" clip-rule="evenodd" d="M407.937 157.788C407.937 161.359 408.731 165.527 408.136 169.495C407.144 171.281 405.358 171.48 403.77 172.075C401.587 171.678 399.802 170.289 398.809 168.305C398.214 163.939 399.008 159.573 399.206 155.208L407.937 157.788V157.788Z" fill="white"/>
<path d="M403.77 172.869C401.19 172.472 399.206 170.884 398.214 168.702C397.817 165.527 398.015 162.55 398.214 159.573C398.412 158.184 398.412 156.795 398.412 155.406V154.612L408.532 157.787V158.184C408.532 159.375 408.731 160.566 408.731 161.955C408.929 164.534 409.128 167.312 408.731 169.892V170.091C407.937 171.678 406.548 172.075 405.159 172.67C404.762 172.472 404.365 172.67 403.77 172.869ZM399.404 168.106C400.198 169.892 401.785 171.083 403.571 171.48C403.968 171.281 404.365 171.281 404.564 171.083C405.754 170.686 406.746 170.289 407.342 169.297C407.739 166.916 407.54 164.336 407.342 161.756C407.342 160.566 407.143 159.375 407.143 158.383L399.603 156.002C399.603 157.192 399.404 158.383 399.404 159.375C399.206 162.55 399.007 165.328 399.404 168.106V168.106Z" fill="black"/>
<path fill-rule="evenodd" clip-rule="evenodd" d="M364.876 124.648C364.876 128.617 361.9 131.792 358.328 131.792C354.756 131.792 351.779 128.617 351.779 124.648C351.779 120.68 354.756 117.505 358.328 117.505C361.9 117.505 364.876 120.68 364.876 124.648Z" fill="black"/>
<path fill-rule="evenodd" clip-rule="evenodd" d="M362.695 126.236C362.695 127.228 361.901 128.022 361.107 128.022C360.313 128.022 359.52 127.228 359.52 126.236C359.52 125.244 360.313 124.45 361.107 124.45C362.099 124.45 362.695 125.244 362.695 126.236Z" fill="white"/>
<path fill-rule="evenodd" clip-rule="evenodd" d="M420.241 122.863C420.241 126.831 417.265 130.006 413.693 130.006C410.121 130.006 407.145 126.831 407.145 122.863C407.145 118.894 410.121 115.719 413.693 115.719C417.265 115.719 420.241 118.894 420.241 122.863Z" fill="black"/>
<path fill-rule="evenodd" clip-rule="evenodd" d="M418.256 124.45C418.256 125.442 417.66 126.236 416.668 126.236C415.874 126.236 415.081 125.442 415.081 124.45C415.081 123.458 415.676 122.664 416.668 122.664C417.462 122.664 418.256 123.458 418.256 124.45ZM388.887 157.391C385.91 164.336 390.474 178.425 398.412 168.106C397.817 163.741 398.61 159.375 398.809 155.009L388.887 157.391Z" fill="white"/>
<path d="M393.054 172.472C391.665 172.472 390.276 171.678 389.284 170.091C387.101 166.916 386.704 160.963 388.292 157.192L388.49 156.795L399.404 154.017V154.811L399.206 159.177C399.007 162.153 398.809 164.931 399.206 167.908V168.106L399.007 168.305C397.023 171.083 395.039 172.472 393.054 172.472ZM389.482 157.986C388.292 161.359 388.689 166.717 390.475 169.297C391.268 170.488 392.062 171.083 393.054 171.083C394.443 171.083 396.031 169.892 397.618 167.908C397.221 164.931 397.42 161.955 397.817 159.177L398.015 155.803L389.482 157.986Z" fill="black"/>
<path fill-rule="evenodd" clip-rule="evenodd" d="M389.88 143.897C384.522 144.294 380.157 150.842 382.935 155.803C386.705 162.55 394.841 155.208 400 155.803C405.953 156.002 410.716 162.153 415.478 156.994C420.836 151.239 413.097 145.683 407.342 143.103L389.88 143.897V143.897Z" fill="#F6D2A2"/>
<path d="M411.31 159.772C409.524 159.772 407.739 158.978 405.953 158.184C404.167 157.391 402.182 156.597 399.999 156.597H399.404C397.817 156.597 396.031 157.192 394.046 157.986C391.864 158.78 389.681 159.375 387.696 159.375C385.315 159.375 383.529 158.383 382.338 156.2C380.949 153.819 381.148 151.041 382.537 148.461C384.124 145.484 386.903 143.698 389.879 143.302L407.54 142.508H407.739C412.104 144.294 417.065 147.667 418.057 151.636C418.454 153.62 417.859 155.605 416.271 157.391C414.684 159.177 413.096 159.772 411.31 159.772V159.772ZM400.198 155.406C402.381 155.406 404.564 156.398 406.548 157.192C408.334 157.986 409.921 158.581 411.509 158.581C412.898 158.581 414.088 157.986 415.279 156.795C416.668 155.406 417.065 153.819 416.867 152.231C416.073 148.858 411.31 145.683 407.54 144.095L390.276 144.889C387.696 145.088 385.315 146.873 383.926 149.255C382.735 151.438 382.735 153.819 383.728 155.803C384.72 157.589 385.91 158.383 387.895 158.383C389.681 158.383 391.665 157.589 393.649 156.994C395.832 156.2 397.618 155.605 399.603 155.605C399.603 155.208 399.801 155.208 400.198 155.406V155.406Z" fill="#231F20"/>
<path fill-rule="evenodd" clip-rule="evenodd" d="M389.284 143.698C388.887 134.372 406.746 133.181 408.731 140.92C410.914 148.858 390.078 150.644 389.284 143.698" fill="black"/>
<path d="M741.436 592.713C741.436 593.599 742.139 594.276 742.999 594.276C743.884 594.276 744.588 593.599 744.588 592.713V576.563C744.588 575.703 743.884 575 742.999 575C742.113 575 741.436 575.703 741.436 576.563V592.713Z" fill="#030060"/>
<path d="M748.655 576.849C748.655 577.787 749.436 578.412 750.452 578.412C751.468 578.412 752.249 577.787 752.249 576.849V576.693C752.249 575.755 751.468 575.156 750.452 575.156C749.436 575.156 748.655 575.755 748.655 576.693V576.849ZM748.889 592.713C748.889 593.599 749.592 594.276 750.452 594.276C751.338 594.276 752.041 593.599 752.041 592.713V581.825C752.041 580.939 751.338 580.236 750.452 580.236C749.566 580.236 748.889 580.939 748.889 581.825V592.713Z" fill="#030060"/>
<path d="M756.16 592.713C756.16 593.573 756.864 594.276 757.723 594.276C758.609 594.276 759.312 593.573 759.312 592.713V592.01C760.276 593.287 761.709 594.433 764.001 594.433C767.257 594.433 770.383 591.854 770.383 587.295V587.243C770.383 582.658 767.231 580.106 764.001 580.106C761.761 580.106 760.328 581.252 759.312 582.685V576.563C759.312 575.677 758.609 575 757.723 575C756.838 575 756.16 575.677 756.16 576.563V592.713ZM763.246 591.698C761.11 591.698 759.234 589.926 759.234 587.295V587.243C759.234 584.612 761.11 582.841 763.246 582.841C765.382 582.841 767.179 584.586 767.179 587.243V587.295C767.179 590.004 765.408 591.698 763.246 591.698Z" fill="#030060"/>
<path d="M773.819 592.713C773.819 593.599 774.522 594.276 775.382 594.276C776.268 594.276 776.971 593.599 776.971 592.713V576.563C776.971 575.703 776.268 575 775.382 575C774.496 575 773.819 575.703 773.819 576.563V592.713Z" fill="#030060"/>
<path d="M787.629 594.459C791.875 594.459 795.001 591.203 795.001 587.295V587.243C795.001 583.31 791.901 580.106 787.681 580.106C783.461 580.106 780.335 583.362 780.335 587.295V587.347C780.335 591.255 783.435 594.459 787.629 594.459ZM787.681 591.698C785.232 591.698 783.487 589.692 783.487 587.295V587.243C783.487 584.847 785.102 582.867 787.629 582.867C790.103 582.867 791.849 584.873 791.849 587.295V587.347C791.849 589.718 790.234 591.698 787.681 591.698Z" fill="#030060"/>
<path d="M736.96 590.09C735.74 590.65 734.453 591.046 733.208 591.294C728.074 592.314 725.36 589.099 729.634 586.781C730.099 586.529 730.632 586.291 731.228 586.075L732.011 585.826C732.241 585.763 732.463 585.661 732.534 585.515C732.905 584.723 729.731 584.467 727.622 585.589C728.458 585.431 729.186 585.408 729.668 585.609C724.878 586.845 723.788 590.757 726.335 592.642C727.649 593.615 729.127 593.873 731.832 593.682C733.637 593.555 735.48 592.837 736.96 591.969V590.09Z" fill="url(#paint1_linear_5188_12980)"/>
<path d="M734.542 592.784C734.542 593.607 735.171 594.165 736.03 594.165C736.89 594.165 737.478 593.644 737.478 592.784V586.011C737.478 584.214 737.009 582.755 735.993 581.765C735.029 580.776 733.492 580.228 731.434 580.228C729.637 580.228 728.308 580.541 727.006 581.036C726.537 581.218 726.146 581.713 726.146 582.286C726.146 583.016 726.745 583.589 727.475 583.589C727.631 583.589 727.787 583.563 727.97 583.511C728.829 583.172 729.819 582.964 731.018 582.964C733.232 582.964 734.43 584.006 734.43 585.959V585.968L734.542 592.784Z" fill="url(#paint2_linear_5188_12980)"/>
<path d="M733.611 578.379C733.611 578.591 733.273 578.721 732.805 578.721C732.077 578.721 731.583 578.64 730.984 578.282L729.216 577.24C728.956 577.093 728.774 576.93 728.774 576.751C728.774 576.442 729.814 576.116 730.646 576.116C731.192 576.116 731.609 576.295 731.895 576.589L733.377 578.021C733.481 578.119 733.611 578.265 733.611 578.379Z" fill="url(#paint3_linear_5188_12980)"/>
<defs>
<linearGradient id="paint0_linear_5188_12980" x1="800" y1="2.20924e-05" x2="1.22569" y2="601.627" gradientUnits="userSpaceOnUse">
<stop stop-color="#ECFAFF"/>
<stop offset="1" stop-color="#75BBD1"/>
</linearGradient>
<linearGradient id="paint1_linear_5188_12980" x1="725" y1="576.116" x2="725" y2="594.165" gradientUnits="userSpaceOnUse">
<stop stop-color="#008EE3"/>
<stop offset="1" stop-color="#0055C2"/>
</linearGradient>
<linearGradient id="paint2_linear_5188_12980" x1="725" y1="576.116" x2="725" y2="594.165" gradientUnits="userSpaceOnUse">
<stop stop-color="#008EE3"/>
<stop offset="1" stop-color="#0055C2"/>
</linearGradient>
<linearGradient id="paint3_linear_5188_12980" x1="725" y1="576.116" x2="725" y2="594.165" gradientUnits="userSpaceOnUse">
<stop stop-color="#008EE3"/>
<stop offset="1" stop-color="#0055C2"/>
</linearGradient>
</defs>
</svg>
