<svg width="800" height="600" viewBox="0 0 800 600" fill="none" xmlns="http://www.w3.org/2000/svg">
<rect width="800" height="600" fill="url(#paint0_linear_5234_11802)"/>
<path d="M193.586 412.703C189.289 416.635 183.794 418.602 177.102 418.602C168.82 418.602 162.31 415.945 157.57 410.633C152.831 405.294 150.461 397.977 150.461 388.68C150.461 378.628 153.156 370.88 158.547 365.438C163.234 360.698 169.198 358.328 176.438 358.328C186.125 358.328 193.208 361.505 197.688 367.859C200.161 371.427 201.49 375.008 201.672 378.602H189.641C188.859 375.841 187.857 373.758 186.633 372.352C184.445 369.852 181.203 368.602 176.906 368.602C172.531 368.602 169.081 370.372 166.555 373.914C164.029 377.43 162.766 382.417 162.766 388.875C162.766 395.333 164.094 400.177 166.75 403.406C169.432 406.609 172.831 408.211 176.945 408.211C181.164 408.211 184.38 406.831 186.594 404.07C187.818 402.586 188.833 400.359 189.641 397.391H201.555C200.513 403.667 197.857 408.771 193.586 412.703ZM210.109 359.422H221.242V417H210.109V359.422ZM267.648 379.812C271.242 384.318 273.039 389.643 273.039 395.789C273.039 402.039 271.242 407.391 267.648 411.844C264.055 416.271 258.599 418.484 251.281 418.484C243.964 418.484 238.508 416.271 234.914 411.844C231.32 407.391 229.523 402.039 229.523 395.789C229.523 389.643 231.32 384.318 234.914 379.812C238.508 375.307 243.964 373.055 251.281 373.055C258.599 373.055 264.055 375.307 267.648 379.812ZM251.242 382.469C247.987 382.469 245.474 383.628 243.703 385.945C241.958 388.237 241.086 391.518 241.086 395.789C241.086 400.06 241.958 403.354 243.703 405.672C245.474 407.99 247.987 409.148 251.242 409.148C254.497 409.148 256.997 407.99 258.742 405.672C260.487 403.354 261.359 400.06 261.359 395.789C261.359 391.518 260.487 388.237 258.742 385.945C256.997 383.628 254.497 382.469 251.242 382.469ZM308.352 410.984C308.247 411.115 307.987 411.505 307.57 412.156C307.154 412.807 306.659 413.38 306.086 413.875C304.341 415.438 302.648 416.505 301.008 417.078C299.393 417.651 297.492 417.938 295.305 417.938C289.003 417.938 284.758 415.672 282.57 411.141C281.346 408.641 280.734 404.956 280.734 400.086V374.422H292.141V400.086C292.141 402.508 292.427 404.331 293 405.555C294.016 407.716 296.008 408.797 298.977 408.797C302.779 408.797 305.383 407.26 306.789 404.188C307.518 402.521 307.883 400.32 307.883 397.586V374.422H319.172V417H308.352V410.984ZM368.703 359.5V417H357.883V411.102C356.294 413.628 354.484 415.464 352.453 416.609C350.422 417.755 347.896 418.328 344.875 418.328C339.901 418.328 335.708 416.323 332.297 412.312C328.911 408.276 327.219 403.107 327.219 396.805C327.219 389.539 328.885 383.823 332.219 379.656C335.578 375.49 340.057 373.406 345.656 373.406C348.234 373.406 350.526 373.979 352.531 375.125C354.536 376.245 356.164 377.807 357.414 379.812V359.5H368.703ZM338.703 395.984C338.703 399.917 339.484 403.055 341.047 405.398C342.583 407.768 344.927 408.953 348.078 408.953C351.229 408.953 353.625 407.781 355.266 405.438C356.906 403.094 357.727 400.06 357.727 396.336C357.727 391.128 356.411 387.404 353.781 385.164C352.167 383.81 350.292 383.133 348.156 383.133C344.901 383.133 342.505 384.37 340.969 386.844C339.458 389.292 338.703 392.339 338.703 395.984ZM428.312 417H402.219V359.422H430.188C437.245 359.526 442.245 361.57 445.188 365.555C446.958 368.003 447.844 370.932 447.844 374.344C447.844 377.859 446.958 380.685 445.188 382.82C444.198 384.018 442.74 385.112 440.812 386.102C443.755 387.169 445.969 388.862 447.453 391.18C448.964 393.497 449.719 396.31 449.719 399.617C449.719 403.029 448.859 406.089 447.141 408.797C446.047 410.594 444.68 412.104 443.039 413.328C441.19 414.734 439.003 415.698 436.477 416.219C433.977 416.74 431.255 417 428.312 417ZM428.039 391.648H413.703V407H427.844C430.37 407 432.336 406.661 433.742 405.984C436.294 404.734 437.57 402.339 437.57 398.797C437.57 395.802 436.333 393.745 433.859 392.625C432.479 392 430.539 391.674 428.039 391.648ZM434.016 380.672C435.578 379.734 436.359 378.055 436.359 375.633C436.359 372.951 435.318 371.18 433.234 370.32C431.438 369.721 429.146 369.422 426.359 369.422H413.703V382.117H427.844C430.37 382.117 432.427 381.635 434.016 380.672ZM460.539 379.031C463.482 375.281 468.534 373.406 475.695 373.406C480.357 373.406 484.497 374.331 488.117 376.18C491.737 378.029 493.547 381.518 493.547 386.648V406.18C493.547 407.534 493.573 409.174 493.625 411.102C493.703 412.56 493.924 413.549 494.289 414.07C494.654 414.591 495.201 415.021 495.93 415.359V417H483.82C483.482 416.141 483.247 415.333 483.117 414.578C482.987 413.823 482.883 412.964 482.805 412C481.268 413.667 479.497 415.086 477.492 416.258C475.096 417.638 472.388 418.328 469.367 418.328C465.513 418.328 462.323 417.234 459.797 415.047C457.297 412.833 456.047 409.708 456.047 405.672C456.047 400.438 458.065 396.648 462.102 394.305C464.315 393.029 467.57 392.117 471.867 391.57L475.656 391.102C477.714 390.841 479.185 390.516 480.07 390.125C481.659 389.448 482.453 388.393 482.453 386.961C482.453 385.216 481.841 384.018 480.617 383.367C479.419 382.69 477.648 382.352 475.305 382.352C472.674 382.352 470.812 383.003 469.719 384.305C468.938 385.268 468.417 386.57 468.156 388.211H457.414C457.648 384.487 458.69 381.427 460.539 379.031ZM468.82 408.953C469.862 409.812 471.138 410.242 472.648 410.242C475.044 410.242 477.245 409.539 479.25 408.133C481.281 406.727 482.336 404.161 482.414 400.438V396.297C481.711 396.74 480.995 397.104 480.266 397.391C479.562 397.651 478.586 397.898 477.336 398.133L474.836 398.602C472.492 399.018 470.812 399.526 469.797 400.125C468.078 401.141 467.219 402.716 467.219 404.852C467.219 406.753 467.753 408.12 468.82 408.953ZM532.805 376.375C536.138 378.51 538.052 382.182 538.547 387.391H527.414C527.258 385.958 526.854 384.826 526.203 383.992C524.979 382.482 522.896 381.727 519.953 381.727C517.531 381.727 515.799 382.104 514.758 382.859C513.742 383.615 513.234 384.5 513.234 385.516C513.234 386.792 513.781 387.716 514.875 388.289C515.969 388.888 519.836 389.917 526.477 391.375C530.904 392.417 534.224 393.992 536.438 396.102C538.625 398.237 539.719 400.906 539.719 404.109C539.719 408.328 538.143 411.779 534.992 414.461C531.867 417.117 527.023 418.445 520.461 418.445C513.768 418.445 508.82 417.039 505.617 414.227C502.44 411.388 500.852 407.781 500.852 403.406H512.141C512.375 405.385 512.883 406.792 513.664 407.625C515.044 409.109 517.596 409.852 521.32 409.852C523.508 409.852 525.24 409.526 526.516 408.875C527.818 408.224 528.469 407.247 528.469 405.945C528.469 404.695 527.948 403.745 526.906 403.094C525.865 402.443 521.997 401.323 515.305 399.734C510.487 398.536 507.089 397.039 505.109 395.242C503.13 393.471 502.141 390.919 502.141 387.586C502.141 383.654 503.677 380.281 506.75 377.469C509.849 374.63 514.198 373.211 519.797 373.211C525.109 373.211 529.445 374.266 532.805 376.375ZM559.445 374.422V417H548.156V374.422H559.445ZM559.445 359.07V369.344H548.156V359.07H559.445ZM607.102 389.695H595.695C595.487 388.107 594.953 386.674 594.094 385.398C592.844 383.68 590.904 382.82 588.273 382.82C584.523 382.82 581.958 384.682 580.578 388.406C579.849 390.385 579.484 393.016 579.484 396.297C579.484 399.422 579.849 401.935 580.578 403.836C581.906 407.378 584.406 409.148 588.078 409.148C590.682 409.148 592.531 408.445 593.625 407.039C594.719 405.633 595.383 403.81 595.617 401.57H606.984C606.724 404.956 605.5 408.159 603.312 411.18C599.823 416.049 594.654 418.484 587.805 418.484C580.956 418.484 575.917 416.453 572.688 412.391C569.458 408.328 567.844 403.055 567.844 396.57C567.844 389.253 569.628 383.562 573.195 379.5C576.763 375.438 581.685 373.406 587.961 373.406C593.299 373.406 597.661 374.604 601.047 377C604.458 379.396 606.477 383.628 607.102 389.695ZM644.133 376.375C647.466 378.51 649.38 382.182 649.875 387.391H638.742C638.586 385.958 638.182 384.826 637.531 383.992C636.307 382.482 634.224 381.727 631.281 381.727C628.859 381.727 627.128 382.104 626.086 382.859C625.07 383.615 624.562 384.5 624.562 385.516C624.562 386.792 625.109 387.716 626.203 388.289C627.297 388.888 631.164 389.917 637.805 391.375C642.232 392.417 645.552 393.992 647.766 396.102C649.953 398.237 651.047 400.906 651.047 404.109C651.047 408.328 649.471 411.779 646.32 414.461C643.195 417.117 638.352 418.445 631.789 418.445C625.096 418.445 620.148 417.039 616.945 414.227C613.768 411.388 612.18 407.781 612.18 403.406H623.469C623.703 405.385 624.211 406.792 624.992 407.625C626.372 409.109 628.924 409.852 632.648 409.852C634.836 409.852 636.568 409.526 637.844 408.875C639.146 408.224 639.797 407.247 639.797 405.945C639.797 404.695 639.276 403.745 638.234 403.094C637.193 402.443 633.326 401.323 626.633 399.734C621.815 398.536 618.417 397.039 616.438 395.242C614.458 393.471 613.469 390.919 613.469 387.586C613.469 383.654 615.005 380.281 618.078 377.469C621.177 374.63 625.526 373.211 631.125 373.211C636.438 373.211 640.773 374.266 644.133 376.375Z" fill="#3B68D7"/>
<path d="M741.436 592.713C741.436 593.599 742.139 594.276 742.999 594.276C743.884 594.276 744.588 593.599 744.588 592.713V576.563C744.588 575.703 743.884 575 742.999 575C742.113 575 741.436 575.703 741.436 576.563V592.713Z" fill="#030060"/>
<path d="M748.655 576.849C748.655 577.787 749.436 578.412 750.452 578.412C751.468 578.412 752.249 577.787 752.249 576.849V576.693C752.249 575.755 751.468 575.156 750.452 575.156C749.436 575.156 748.655 575.755 748.655 576.693V576.849ZM748.889 592.713C748.889 593.599 749.592 594.276 750.452 594.276C751.338 594.276 752.041 593.599 752.041 592.713V581.825C752.041 580.939 751.338 580.236 750.452 580.236C749.566 580.236 748.889 580.939 748.889 581.825V592.713Z" fill="#030060"/>
<path d="M756.16 592.713C756.16 593.573 756.864 594.276 757.723 594.276C758.609 594.276 759.312 593.573 759.312 592.713V592.01C760.276 593.287 761.709 594.433 764.001 594.433C767.257 594.433 770.383 591.854 770.383 587.295V587.243C770.383 582.658 767.231 580.106 764.001 580.106C761.761 580.106 760.328 581.252 759.312 582.685V576.563C759.312 575.677 758.609 575 757.723 575C756.838 575 756.16 575.677 756.16 576.563V592.713ZM763.246 591.698C761.11 591.698 759.234 589.926 759.234 587.295V587.243C759.234 584.612 761.11 582.841 763.246 582.841C765.382 582.841 767.179 584.586 767.179 587.243V587.295C767.179 590.004 765.408 591.698 763.246 591.698Z" fill="#030060"/>
<path d="M773.819 592.713C773.819 593.599 774.522 594.276 775.382 594.276C776.268 594.276 776.971 593.599 776.971 592.713V576.563C776.971 575.703 776.268 575 775.382 575C774.496 575 773.819 575.703 773.819 576.563V592.713Z" fill="#030060"/>
<path d="M787.629 594.459C791.875 594.459 795.001 591.203 795.001 587.295V587.243C795.001 583.31 791.901 580.106 787.681 580.106C783.461 580.106 780.335 583.362 780.335 587.295V587.347C780.335 591.255 783.435 594.459 787.629 594.459ZM787.681 591.698C785.232 591.698 783.487 589.692 783.487 587.295V587.243C783.487 584.847 785.102 582.867 787.629 582.867C790.103 582.867 791.849 584.873 791.849 587.295V587.347C791.849 589.718 790.234 591.698 787.681 591.698Z" fill="#030060"/>
<path d="M736.96 590.09C735.74 590.65 734.453 591.046 733.208 591.294C728.074 592.314 725.36 589.099 729.634 586.781C730.099 586.529 730.632 586.291 731.228 586.075L732.011 585.826C732.241 585.763 732.463 585.661 732.534 585.515C732.905 584.723 729.731 584.467 727.622 585.589C728.458 585.431 729.186 585.408 729.668 585.609C724.878 586.845 723.788 590.757 726.335 592.642C727.649 593.615 729.127 593.873 731.832 593.682C733.637 593.555 735.48 592.837 736.96 591.969V590.09Z" fill="url(#paint1_linear_5234_11802)"/>
<path d="M734.542 592.784C734.542 593.607 735.171 594.165 736.03 594.165C736.89 594.165 737.478 593.644 737.478 592.784V586.011C737.478 584.214 737.009 582.755 735.993 581.765C735.029 580.776 733.492 580.228 731.434 580.228C729.637 580.228 728.308 580.541 727.006 581.036C726.537 581.218 726.146 581.713 726.146 582.286C726.146 583.016 726.745 583.589 727.475 583.589C727.631 583.589 727.787 583.563 727.97 583.511C728.829 583.172 729.819 582.964 731.018 582.964C733.232 582.964 734.43 584.006 734.43 585.959V585.968L734.542 592.784Z" fill="url(#paint2_linear_5234_11802)"/>
<path d="M733.611 578.379C733.611 578.591 733.273 578.721 732.805 578.721C732.077 578.721 731.583 578.64 730.984 578.282L729.216 577.24C728.956 577.093 728.774 576.93 728.774 576.751C728.774 576.442 729.814 576.116 730.646 576.116C731.192 576.116 731.609 576.295 731.895 576.589L733.377 578.021C733.481 578.119 733.611 578.265 733.611 578.379Z" fill="url(#paint3_linear_5234_11802)"/>
<path d="M481.608 216.439C481.608 233.825 467.266 247.971 449.633 247.971H353.005C344.556 248.013 336.434 244.69 330.421 238.731C324.403 232.891 321.012 224.843 321.029 216.439C321.029 203.224 329.332 191.511 341.828 186.922C347.954 162.631 369.52 145.463 394.476 145.009C419.433 144.556 441.603 160.929 448.601 184.982C449.238 184.94 449.604 184.94 449.633 184.94C450.11 184.94 450.588 184.94 451.059 184.972C458.999 185.283 466.538 188.552 472.207 194.141C478.217 199.991 481.609 208.036 481.608 216.439Z" fill="#F4F9FF"/>
<path d="M339.208 184.371C339.047 185.001 338.895 185.63 338.757 186.277C337.887 186.634 337.032 187 336.178 187.4C337.155 186.351 338.165 185.341 339.208 184.371Z" fill="#607D8B"/>
<path d="M417.982 191.318C420.193 189.025 422.842 187.062 425.82 185.511C428.841 183.939 432.139 182.786 435.59 182.097C442.609 180.73 449.954 181.23 456.625 183.529C463.294 185.795 469.018 189.689 473.069 194.717C475.057 197.203 476.558 199.946 477.515 202.838C478.447 205.697 478.77 208.674 478.469 211.629C477.898 205.883 475.379 200.399 471.215 195.838C467.133 191.369 461.719 187.902 455.53 185.794C449.355 183.673 442.608 183.043 436.036 183.975C429.338 184.974 423.092 187.515 417.982 191.318V191.318Z" fill="#7BB2FF"/>
<path fill-rule="evenodd" clip-rule="evenodd" d="M357.39 166.2C356.906 166.59 356.427 166.987 355.956 167.392C356.423 166.995 356.913 166.591 357.39 166.2ZM340.257 189.69C340.501 189.054 340.759 188.419 341.032 187.783C340.759 188.408 340.501 189.044 340.257 189.69ZM336.18 196.486C336.545 196.324 336.913 196.168 337.288 196.015C336.916 196.165 336.545 196.324 336.18 196.486Z" fill="#55717C"/>
<path d="M469.49 242.24C463.475 247.883 455.524 251.017 447.266 251H350.141C344.219 251.02 338.405 249.415 333.337 246.36C333.071 246.198 332.808 246.034 332.55 245.868C332.291 245.702 332.032 245.53 331.776 245.354C331.52 245.179 331.283 245.01 331.043 244.834L331.018 244.815C330.765 244.633 330.518 244.445 330.272 244.253C330.026 244.062 329.808 243.886 329.578 243.698L329.472 243.612C329.309 243.475 329.152 243.341 328.989 243.197L328.707 242.955C328.576 242.84 328.451 242.728 328.323 242.607C328.026 242.339 327.731 242.058 327.44 241.774C321.391 235.942 317.982 227.905 318 219.514C318 219.269 318 219.023 318 218.78C318 218.617 318 218.461 318 218.282C318 217.871 318.038 217.469 318.074 217.06C318.074 216.859 318.106 216.655 318.128 216.454C318.15 216.253 318.16 216.135 318.182 215.953C318.205 215.771 318.227 215.563 318.256 215.369C318.333 214.786 318.428 214.207 318.541 213.633C318.566 213.492 318.595 213.358 318.624 213.218C318.678 212.959 318.736 212.704 318.79 212.449C318.835 212.273 318.877 212.098 318.922 211.925C318.966 211.753 319.018 211.552 319.069 211.367C319.104 211.233 319.139 211.105 319.178 210.977C319.216 210.85 319.248 210.735 319.286 210.61C319.325 210.486 319.37 210.336 319.414 210.196C319.459 210.055 319.494 209.943 319.539 209.819C319.733 209.23 319.947 208.648 320.179 208.073C320.25 207.895 320.323 207.716 320.397 207.54C320.47 207.365 320.544 207.186 320.624 207.011C320.704 206.835 320.778 206.66 320.861 206.487C320.944 206.315 321.021 206.139 321.107 205.97C321.194 205.801 321.274 205.626 321.363 205.456C321.453 205.287 321.536 205.115 321.629 204.949C321.722 204.783 321.808 204.611 321.904 204.445C322.09 204.126 322.282 203.778 322.48 203.449C322.678 203.12 322.864 202.833 323.059 202.53C323.702 201.552 324.399 200.61 325.146 199.709C325.251 199.578 325.357 199.454 325.466 199.326C325.869 198.869 326.284 198.423 326.71 197.989C326.816 197.877 326.918 197.772 327.03 197.67C327.41 197.282 327.802 196.906 328.205 196.54L328.509 196.265C328.993 195.84 329.491 195.422 330.003 195.011L330.323 194.766C330.592 194.561 330.867 194.357 331.142 194.159C331.27 194.067 331.398 193.977 331.526 193.891C331.811 193.69 332.102 193.495 332.394 193.304C332.541 193.205 332.694 193.112 332.848 193.017L333.248 192.771L333.568 192.586C333.731 192.487 333.888 192.391 334.064 192.299L334.121 192.267C334.278 192.174 334.441 192.088 334.601 192.002C334.761 191.916 334.95 191.814 335.126 191.724L335.657 191.453L336.195 191.194L336.742 190.942C337.107 190.78 337.475 190.623 337.849 190.47C338.224 190.317 338.569 190.183 338.931 190.049C338.992 189.809 339.056 189.573 339.12 189.334C339.216 188.983 339.312 188.629 339.414 188.284C339.517 187.939 339.619 187.585 339.734 187.237C339.849 186.889 339.952 186.545 340.054 186.2C340.157 185.855 340.285 185.517 340.406 185.182C340.408 185.176 340.408 185.169 340.406 185.163C340.525 184.844 340.64 184.525 340.765 184.205C340.765 184.183 340.765 184.158 340.79 184.132C341.038 183.494 341.296 182.856 341.565 182.217L341.632 182.061C341.75 181.786 341.869 181.512 341.993 181.241L342.08 181.049C342.195 180.797 342.31 180.545 342.429 180.293L342.544 180.054C342.675 179.782 342.803 179.514 342.937 179.246L343.005 179.109C343.155 178.809 343.309 178.509 343.462 178.212C343.616 177.915 343.782 177.615 343.936 177.319L344.067 177.082C344.182 176.878 344.291 176.674 344.413 176.473C344.493 176.326 344.573 176.179 344.662 176.036C344.752 175.892 344.877 175.662 344.982 175.477C345.03 175.397 345.078 175.318 345.126 175.238C345.277 174.979 345.446 174.724 345.597 174.469C345.747 174.213 345.917 173.958 346.083 173.703C346.211 173.508 346.336 173.31 346.467 173.119L346.681 172.8C346.797 172.631 346.912 172.461 347.03 172.295C347.149 172.129 347.257 171.976 347.376 171.804C347.494 171.632 347.533 171.581 347.616 171.466C347.747 171.281 347.881 171.089 348.022 170.907L348.192 170.677C348.349 170.464 348.512 170.25 348.672 170.039C348.985 169.633 349.305 169.229 349.632 168.826C349.776 168.648 349.923 168.469 350.07 168.29C350.399 167.897 350.735 167.505 351.078 167.116C351.219 166.953 351.363 166.797 351.51 166.631L351.641 166.487C351.846 166.261 352.054 166.034 352.262 165.811L352.332 165.737C352.563 165.492 352.796 165.249 353.036 165.006C354.134 163.883 355.276 162.801 356.48 161.77C356.951 161.364 357.429 160.965 357.913 160.574C358.214 160.331 358.518 160.095 358.822 159.859C358.858 159.827 358.897 159.797 358.937 159.77C359.257 159.524 359.577 159.284 359.897 159.048C360.217 158.812 360.56 158.57 360.896 158.333H360.915C361.257 158.094 361.603 157.861 361.945 157.628C362.288 157.395 362.643 157.172 362.992 156.948C363.693 156.504 364.406 156.078 365.129 155.672C365.491 155.468 365.852 155.263 366.217 155.065C366.582 154.868 366.947 154.673 367.318 154.485C367.51 154.383 367.708 154.287 367.904 154.191C370.307 152.969 372.795 151.922 375.35 151.057C374.364 151.762 348.886 163.577 349.917 188.258C340.357 191.712 332.596 198.862 328.387 208.093C326.737 218.117 330.108 228.313 337.414 235.391C343.457 241.34 351.618 244.658 360.108 244.617H457.237C461.437 244.623 465.598 243.816 469.49 242.24Z" fill="#7BB2FF"/>
<defs>
<linearGradient id="paint0_linear_5234_11802" x1="800" y1="1.71483e-05" x2="-2.41942" y2="596.747" gradientUnits="userSpaceOnUse">
<stop stop-color="#D0EDFF"/>
<stop offset="1" stop-color="#78B3FF"/>
</linearGradient>
<linearGradient id="paint1_linear_5234_11802" x1="725" y1="576.116" x2="725" y2="594.165" gradientUnits="userSpaceOnUse">
<stop stop-color="#008EE3"/>
<stop offset="1" stop-color="#0055C2"/>
</linearGradient>
<linearGradient id="paint2_linear_5234_11802" x1="725" y1="576.116" x2="725" y2="594.165" gradientUnits="userSpaceOnUse">
<stop stop-color="#008EE3"/>
<stop offset="1" stop-color="#0055C2"/>
</linearGradient>
<linearGradient id="paint3_linear_5234_11802" x1="725" y1="576.116" x2="725" y2="594.165" gradientUnits="userSpaceOnUse">
<stop stop-color="#008EE3"/>
<stop offset="1" stop-color="#0055C2"/>
</linearGradient>
</defs>
</svg>
