<svg width="800" height="600" viewBox="0 0 800 600" fill="none" xmlns="http://www.w3.org/2000/svg">
<rect width="800" height="600" fill="url(#paint0_linear_5188_12986)"/>
<path d="M378.82 267.422H391.047L374.836 325H363.352L356.398 291.328L354.367 280.195L352.336 291.328L345.383 325H334.211L317.883 267.422H330.656L338.273 300.391L339.914 309.57L341.594 300.586L348.078 267.422H360.773L367.609 300.391L369.367 309.57L371.125 300.742L378.82 267.422ZM432.492 312.5C432.206 315.026 430.891 317.591 428.547 320.195C424.901 324.336 419.797 326.406 413.234 326.406C407.818 326.406 403.039 324.661 398.898 321.172C394.758 317.682 392.688 312.005 392.688 304.141C392.688 296.771 394.549 291.12 398.273 287.188C402.023 283.255 406.88 281.289 412.844 281.289C416.385 281.289 419.576 281.953 422.414 283.281C425.253 284.609 427.596 286.706 429.445 289.57C431.112 292.096 432.193 295.026 432.688 298.359C432.974 300.312 433.091 303.125 433.039 306.797H403.898C404.055 311.068 405.396 314.062 407.922 315.781C409.458 316.849 411.307 317.383 413.469 317.383C415.76 317.383 417.622 316.732 419.055 315.43C419.836 314.727 420.526 313.75 421.125 312.5H432.492ZM421.477 299.453C421.294 296.51 420.396 294.284 418.781 292.773C417.193 291.237 415.214 290.469 412.844 290.469C410.266 290.469 408.26 291.276 406.828 292.891C405.422 294.505 404.536 296.693 404.172 299.453H421.477ZM463.703 326.133C460.188 326.133 457.362 325.43 455.227 324.023C453.951 323.19 452.57 321.732 451.086 319.648V325H440.188V267.5H451.281V287.969C452.688 285.99 454.237 284.479 455.93 283.438C457.935 282.135 460.487 281.484 463.586 281.484C469.185 281.484 473.56 283.503 476.711 287.539C479.888 291.576 481.477 296.784 481.477 303.164C481.477 309.779 479.914 315.26 476.789 319.609C473.664 323.958 469.302 326.133 463.703 326.133ZM469.797 304.336C469.797 301.315 469.406 298.815 468.625 296.836C467.141 293.086 464.406 291.211 460.422 291.211C456.385 291.211 453.612 293.047 452.102 296.719C451.32 298.672 450.93 301.198 450.93 304.297C450.93 307.943 451.737 310.964 453.352 313.359C454.966 315.755 457.427 316.953 460.734 316.953C463.599 316.953 465.826 315.794 467.414 313.477C469.003 311.159 469.797 308.112 469.797 304.336ZM145.383 359.422H157.336V417H145.383V359.422ZM187.727 382.664C183.951 382.664 181.359 384.266 179.953 387.469C179.224 389.161 178.859 391.323 178.859 393.953V417H167.766V374.5H178.508V380.711C179.94 378.523 181.294 376.948 182.57 375.984C184.862 374.266 187.766 373.406 191.281 373.406C195.682 373.406 199.276 374.565 202.062 376.883C204.875 379.174 206.281 382.99 206.281 388.328V417H194.875V391.102C194.875 388.862 194.576 387.143 193.977 385.945C192.883 383.758 190.799 382.664 187.727 382.664ZM236.555 359.07V368.133C235.93 368.055 234.875 368.003 233.391 367.977C231.932 367.924 230.917 368.25 230.344 368.953C229.797 369.63 229.523 370.385 229.523 371.219V374.812H236.828V382.664H229.523V417H218.43V382.664H212.219V374.812H218.312V372.078C218.312 367.521 219.081 364.383 220.617 362.664C222.232 360.112 226.125 358.836 232.297 358.836C233 358.836 233.638 358.862 234.211 358.914C234.784 358.94 235.565 358.992 236.555 359.07ZM264.641 384.695C260.161 384.695 257.154 386.154 255.617 389.07C254.758 390.711 254.328 393.237 254.328 396.648V417H243.117V374.422H253.742V381.844C255.461 379.005 256.958 377.065 258.234 376.023C260.318 374.279 263.026 373.406 266.359 373.406C266.568 373.406 266.737 373.419 266.867 373.445C267.023 373.445 267.349 373.458 267.844 373.484V384.891C267.141 384.812 266.516 384.76 265.969 384.734C265.422 384.708 264.979 384.695 264.641 384.695ZM276.008 379.031C278.951 375.281 284.003 373.406 291.164 373.406C295.826 373.406 299.966 374.331 303.586 376.18C307.206 378.029 309.016 381.518 309.016 386.648V406.18C309.016 407.534 309.042 409.174 309.094 411.102C309.172 412.56 309.393 413.549 309.758 414.07C310.122 414.591 310.669 415.021 311.398 415.359V417H299.289C298.951 416.141 298.716 415.333 298.586 414.578C298.456 413.823 298.352 412.964 298.273 412C296.737 413.667 294.966 415.086 292.961 416.258C290.565 417.638 287.857 418.328 284.836 418.328C280.982 418.328 277.792 417.234 275.266 415.047C272.766 412.833 271.516 409.708 271.516 405.672C271.516 400.438 273.534 396.648 277.57 394.305C279.784 393.029 283.039 392.117 287.336 391.57L291.125 391.102C293.182 390.841 294.654 390.516 295.539 390.125C297.128 389.448 297.922 388.393 297.922 386.961C297.922 385.216 297.31 384.018 296.086 383.367C294.888 382.69 293.117 382.352 290.773 382.352C288.143 382.352 286.281 383.003 285.188 384.305C284.406 385.268 283.885 386.57 283.625 388.211H272.883C273.117 384.487 274.159 381.427 276.008 379.031ZM284.289 408.953C285.331 409.812 286.607 410.242 288.117 410.242C290.513 410.242 292.714 409.539 294.719 408.133C296.75 406.727 297.805 404.161 297.883 400.438V396.297C297.18 396.74 296.464 397.104 295.734 397.391C295.031 397.651 294.055 397.898 292.805 398.133L290.305 398.602C287.961 399.018 286.281 399.526 285.266 400.125C283.547 401.141 282.688 402.716 282.688 404.852C282.688 406.753 283.221 408.12 284.289 408.953ZM348.273 376.375C351.607 378.51 353.521 382.182 354.016 387.391H342.883C342.727 385.958 342.323 384.826 341.672 383.992C340.448 382.482 338.365 381.727 335.422 381.727C333 381.727 331.268 382.104 330.227 382.859C329.211 383.615 328.703 384.5 328.703 385.516C328.703 386.792 329.25 387.716 330.344 388.289C331.438 388.888 335.305 389.917 341.945 391.375C346.372 392.417 349.693 393.992 351.906 396.102C354.094 398.237 355.188 400.906 355.188 404.109C355.188 408.328 353.612 411.779 350.461 414.461C347.336 417.117 342.492 418.445 335.93 418.445C329.237 418.445 324.289 417.039 321.086 414.227C317.909 411.388 316.32 407.781 316.32 403.406H327.609C327.844 405.385 328.352 406.792 329.133 407.625C330.513 409.109 333.065 409.852 336.789 409.852C338.977 409.852 340.708 409.526 341.984 408.875C343.286 408.224 343.938 407.247 343.938 405.945C343.938 404.695 343.417 403.745 342.375 403.094C341.333 402.443 337.466 401.323 330.773 399.734C325.956 398.536 322.557 397.039 320.578 395.242C318.599 393.471 317.609 390.919 317.609 387.586C317.609 383.654 319.146 380.281 322.219 377.469C325.318 374.63 329.667 373.211 335.266 373.211C340.578 373.211 344.914 374.266 348.273 376.375ZM382.961 409.07V417.391L377.688 417.586C372.427 417.768 368.833 416.857 366.906 414.852C365.656 413.576 365.031 411.609 365.031 408.953V382.742H359.094V374.812H365.031V362.938H376.047V374.812H382.961V382.742H376.047V405.242C376.047 406.987 376.268 408.081 376.711 408.523C377.154 408.94 378.508 409.148 380.773 409.148C381.112 409.148 381.464 409.148 381.828 409.148C382.219 409.122 382.596 409.096 382.961 409.07ZM411.516 384.695C407.036 384.695 404.029 386.154 402.492 389.07C401.633 390.711 401.203 393.237 401.203 396.648V417H389.992V374.422H400.617V381.844C402.336 379.005 403.833 377.065 405.109 376.023C407.193 374.279 409.901 373.406 413.234 373.406C413.443 373.406 413.612 373.419 413.742 373.445C413.898 373.445 414.224 373.458 414.719 373.484V384.891C414.016 384.812 413.391 384.76 412.844 384.734C412.297 384.708 411.854 384.695 411.516 384.695ZM448.586 410.984C448.482 411.115 448.221 411.505 447.805 412.156C447.388 412.807 446.893 413.38 446.32 413.875C444.576 415.438 442.883 416.505 441.242 417.078C439.628 417.651 437.727 417.938 435.539 417.938C429.237 417.938 424.992 415.672 422.805 411.141C421.581 408.641 420.969 404.956 420.969 400.086V374.422H432.375V400.086C432.375 402.508 432.661 404.331 433.234 405.555C434.25 407.716 436.242 408.797 439.211 408.797C443.013 408.797 445.617 407.26 447.023 404.188C447.753 402.521 448.117 400.32 448.117 397.586V374.422H459.406V417H448.586V410.984ZM507.023 389.695H495.617C495.409 388.107 494.875 386.674 494.016 385.398C492.766 383.68 490.826 382.82 488.195 382.82C484.445 382.82 481.88 384.682 480.5 388.406C479.771 390.385 479.406 393.016 479.406 396.297C479.406 399.422 479.771 401.935 480.5 403.836C481.828 407.378 484.328 409.148 488 409.148C490.604 409.148 492.453 408.445 493.547 407.039C494.641 405.633 495.305 403.81 495.539 401.57H506.906C506.646 404.956 505.422 408.159 503.234 411.18C499.745 416.049 494.576 418.484 487.727 418.484C480.878 418.484 475.839 416.453 472.609 412.391C469.38 408.328 467.766 403.055 467.766 396.57C467.766 389.253 469.549 383.562 473.117 379.5C476.685 375.438 481.607 373.406 487.883 373.406C493.221 373.406 497.583 374.604 500.969 377C504.38 379.396 506.398 383.628 507.023 389.695ZM534.211 409.07V417.391L528.938 417.586C523.677 417.768 520.083 416.857 518.156 414.852C516.906 413.576 516.281 411.609 516.281 408.953V382.742H510.344V374.812H516.281V362.938H527.297V374.812H534.211V382.742H527.297V405.242C527.297 406.987 527.518 408.081 527.961 408.523C528.404 408.94 529.758 409.148 532.023 409.148C532.362 409.148 532.714 409.148 533.078 409.148C533.469 409.122 533.846 409.096 534.211 409.07ZM568.664 410.984C568.56 411.115 568.299 411.505 567.883 412.156C567.466 412.807 566.971 413.38 566.398 413.875C564.654 415.438 562.961 416.505 561.32 417.078C559.706 417.651 557.805 417.938 555.617 417.938C549.315 417.938 545.07 415.672 542.883 411.141C541.659 408.641 541.047 404.956 541.047 400.086V374.422H552.453V400.086C552.453 402.508 552.74 404.331 553.312 405.555C554.328 407.716 556.32 408.797 559.289 408.797C563.091 408.797 565.695 407.26 567.102 404.188C567.831 402.521 568.195 400.32 568.195 397.586V374.422H579.484V417H568.664V410.984ZM611.672 384.695C607.193 384.695 604.185 386.154 602.648 389.07C601.789 390.711 601.359 393.237 601.359 396.648V417H590.148V374.422H600.773V381.844C602.492 379.005 603.99 377.065 605.266 376.023C607.349 374.279 610.057 373.406 613.391 373.406C613.599 373.406 613.768 373.419 613.898 373.445C614.055 373.445 614.38 373.458 614.875 373.484V384.891C614.172 384.812 613.547 384.76 613 384.734C612.453 384.708 612.01 384.695 611.672 384.695ZM657.883 404.5C657.596 407.026 656.281 409.591 653.938 412.195C650.292 416.336 645.188 418.406 638.625 418.406C633.208 418.406 628.43 416.661 624.289 413.172C620.148 409.682 618.078 404.005 618.078 396.141C618.078 388.771 619.94 383.12 623.664 379.188C627.414 375.255 632.271 373.289 638.234 373.289C641.776 373.289 644.966 373.953 647.805 375.281C650.643 376.609 652.987 378.706 654.836 381.57C656.503 384.096 657.583 387.026 658.078 390.359C658.365 392.312 658.482 395.125 658.43 398.797H629.289C629.445 403.068 630.786 406.062 633.312 407.781C634.849 408.849 636.698 409.383 638.859 409.383C641.151 409.383 643.013 408.732 644.445 407.43C645.227 406.727 645.917 405.75 646.516 404.5H657.883ZM646.867 391.453C646.685 388.51 645.786 386.284 644.172 384.773C642.583 383.237 640.604 382.469 638.234 382.469C635.656 382.469 633.651 383.276 632.219 384.891C630.812 386.505 629.927 388.693 629.562 391.453H646.867ZM303.781 509H277.688V451.422H305.656C312.714 451.526 317.714 453.57 320.656 457.555C322.427 460.003 323.312 462.932 323.312 466.344C323.312 469.859 322.427 472.685 320.656 474.82C319.667 476.018 318.208 477.112 316.281 478.102C319.224 479.169 321.438 480.862 322.922 483.18C324.432 485.497 325.188 488.31 325.188 491.617C325.188 495.029 324.328 498.089 322.609 500.797C321.516 502.594 320.148 504.104 318.508 505.328C316.659 506.734 314.471 507.698 311.945 508.219C309.445 508.74 306.724 509 303.781 509ZM303.508 483.648H289.172V499H303.312C305.839 499 307.805 498.661 309.211 497.984C311.763 496.734 313.039 494.339 313.039 490.797C313.039 487.802 311.802 485.745 309.328 484.625C307.948 484 306.008 483.674 303.508 483.648ZM309.484 472.672C311.047 471.734 311.828 470.055 311.828 467.633C311.828 464.951 310.786 463.18 308.703 462.32C306.906 461.721 304.615 461.422 301.828 461.422H289.172V474.117H303.312C305.839 474.117 307.896 473.635 309.484 472.672ZM336.008 471.031C338.951 467.281 344.003 465.406 351.164 465.406C355.826 465.406 359.966 466.331 363.586 468.18C367.206 470.029 369.016 473.518 369.016 478.648V498.18C369.016 499.534 369.042 501.174 369.094 503.102C369.172 504.56 369.393 505.549 369.758 506.07C370.122 506.591 370.669 507.021 371.398 507.359V509H359.289C358.951 508.141 358.716 507.333 358.586 506.578C358.456 505.823 358.352 504.964 358.273 504C356.737 505.667 354.966 507.086 352.961 508.258C350.565 509.638 347.857 510.328 344.836 510.328C340.982 510.328 337.792 509.234 335.266 507.047C332.766 504.833 331.516 501.708 331.516 497.672C331.516 492.438 333.534 488.648 337.57 486.305C339.784 485.029 343.039 484.117 347.336 483.57L351.125 483.102C353.182 482.841 354.654 482.516 355.539 482.125C357.128 481.448 357.922 480.393 357.922 478.961C357.922 477.216 357.31 476.018 356.086 475.367C354.888 474.69 353.117 474.352 350.773 474.352C348.143 474.352 346.281 475.003 345.188 476.305C344.406 477.268 343.885 478.57 343.625 480.211H332.883C333.117 476.487 334.159 473.427 336.008 471.031ZM344.289 500.953C345.331 501.812 346.607 502.242 348.117 502.242C350.513 502.242 352.714 501.539 354.719 500.133C356.75 498.727 357.805 496.161 357.883 492.438V488.297C357.18 488.74 356.464 489.104 355.734 489.391C355.031 489.651 354.055 489.898 352.805 490.133L350.305 490.602C347.961 491.018 346.281 491.526 345.266 492.125C343.547 493.141 342.688 494.716 342.688 496.852C342.688 498.753 343.221 500.12 344.289 500.953ZM408.273 468.375C411.607 470.51 413.521 474.182 414.016 479.391H402.883C402.727 477.958 402.323 476.826 401.672 475.992C400.448 474.482 398.365 473.727 395.422 473.727C393 473.727 391.268 474.104 390.227 474.859C389.211 475.615 388.703 476.5 388.703 477.516C388.703 478.792 389.25 479.716 390.344 480.289C391.438 480.888 395.305 481.917 401.945 483.375C406.372 484.417 409.693 485.992 411.906 488.102C414.094 490.237 415.188 492.906 415.188 496.109C415.188 500.328 413.612 503.779 410.461 506.461C407.336 509.117 402.492 510.445 395.93 510.445C389.237 510.445 384.289 509.039 381.086 506.227C377.909 503.388 376.32 499.781 376.32 495.406H387.609C387.844 497.385 388.352 498.792 389.133 499.625C390.513 501.109 393.065 501.852 396.789 501.852C398.977 501.852 400.708 501.526 401.984 500.875C403.286 500.224 403.938 499.247 403.938 497.945C403.938 496.695 403.417 495.745 402.375 495.094C401.333 494.443 397.466 493.323 390.773 491.734C385.956 490.536 382.557 489.039 380.578 487.242C378.599 485.471 377.609 482.919 377.609 479.586C377.609 475.654 379.146 472.281 382.219 469.469C385.318 466.63 389.667 465.211 395.266 465.211C400.578 465.211 404.914 466.266 408.273 468.375ZM434.914 466.422V509H423.625V466.422H434.914ZM434.914 451.07V461.344H423.625V451.07H434.914ZM482.57 481.695H471.164C470.956 480.107 470.422 478.674 469.562 477.398C468.312 475.68 466.372 474.82 463.742 474.82C459.992 474.82 457.427 476.682 456.047 480.406C455.318 482.385 454.953 485.016 454.953 488.297C454.953 491.422 455.318 493.935 456.047 495.836C457.375 499.378 459.875 501.148 463.547 501.148C466.151 501.148 468 500.445 469.094 499.039C470.188 497.633 470.852 495.81 471.086 493.57H482.453C482.193 496.956 480.969 500.159 478.781 503.18C475.292 508.049 470.122 510.484 463.273 510.484C456.424 510.484 451.385 508.453 448.156 504.391C444.927 500.328 443.312 495.055 443.312 488.57C443.312 481.253 445.096 475.562 448.664 471.5C452.232 467.438 457.154 465.406 463.43 465.406C468.768 465.406 473.13 466.604 476.516 469C479.927 471.396 481.945 475.628 482.57 481.695ZM519.602 468.375C522.935 470.51 524.849 474.182 525.344 479.391H514.211C514.055 477.958 513.651 476.826 513 475.992C511.776 474.482 509.693 473.727 506.75 473.727C504.328 473.727 502.596 474.104 501.555 474.859C500.539 475.615 500.031 476.5 500.031 477.516C500.031 478.792 500.578 479.716 501.672 480.289C502.766 480.888 506.633 481.917 513.273 483.375C517.701 484.417 521.021 485.992 523.234 488.102C525.422 490.237 526.516 492.906 526.516 496.109C526.516 500.328 524.94 503.779 521.789 506.461C518.664 509.117 513.82 510.445 507.258 510.445C500.565 510.445 495.617 509.039 492.414 506.227C489.237 503.388 487.648 499.781 487.648 495.406H498.938C499.172 497.385 499.68 498.792 500.461 499.625C501.841 501.109 504.393 501.852 508.117 501.852C510.305 501.852 512.036 501.526 513.312 500.875C514.615 500.224 515.266 499.247 515.266 497.945C515.266 496.695 514.745 495.745 513.703 495.094C512.661 494.443 508.794 493.323 502.102 491.734C497.284 490.536 493.885 489.039 491.906 487.242C489.927 485.471 488.938 482.919 488.938 479.586C488.938 475.654 490.474 472.281 493.547 469.469C496.646 466.63 500.995 465.211 506.594 465.211C511.906 465.211 516.242 466.266 519.602 468.375Z" fill="#3B68D7"/>
<path d="M741.436 592.713C741.436 593.599 742.139 594.276 742.999 594.276C743.884 594.276 744.588 593.599 744.588 592.713V576.563C744.588 575.703 743.884 575 742.999 575C742.113 575 741.436 575.703 741.436 576.563V592.713Z" fill="#030060"/>
<path d="M748.655 576.849C748.655 577.787 749.436 578.412 750.452 578.412C751.468 578.412 752.249 577.787 752.249 576.849V576.693C752.249 575.755 751.468 575.156 750.452 575.156C749.436 575.156 748.655 575.755 748.655 576.693V576.849ZM748.889 592.713C748.889 593.599 749.592 594.276 750.452 594.276C751.338 594.276 752.041 593.599 752.041 592.713V581.825C752.041 580.939 751.338 580.236 750.452 580.236C749.566 580.236 748.889 580.939 748.889 581.825V592.713Z" fill="#030060"/>
<path d="M756.16 592.713C756.16 593.573 756.864 594.276 757.723 594.276C758.609 594.276 759.312 593.573 759.312 592.713V592.01C760.276 593.287 761.709 594.433 764.001 594.433C767.257 594.433 770.383 591.854 770.383 587.295V587.243C770.383 582.658 767.231 580.106 764.001 580.106C761.761 580.106 760.328 581.252 759.312 582.685V576.563C759.312 575.677 758.609 575 757.723 575C756.838 575 756.16 575.677 756.16 576.563V592.713ZM763.246 591.698C761.11 591.698 759.234 589.926 759.234 587.295V587.243C759.234 584.612 761.11 582.841 763.246 582.841C765.382 582.841 767.179 584.586 767.179 587.243V587.295C767.179 590.004 765.408 591.698 763.246 591.698Z" fill="#030060"/>
<path d="M773.819 592.713C773.819 593.599 774.522 594.276 775.382 594.276C776.268 594.276 776.971 593.599 776.971 592.713V576.563C776.971 575.703 776.268 575 775.382 575C774.496 575 773.819 575.703 773.819 576.563V592.713Z" fill="#030060"/>
<path d="M787.629 594.459C791.875 594.459 795.001 591.203 795.001 587.295V587.243C795.001 583.31 791.901 580.106 787.681 580.106C783.461 580.106 780.335 583.362 780.335 587.295V587.347C780.335 591.255 783.435 594.459 787.629 594.459ZM787.681 591.698C785.232 591.698 783.487 589.692 783.487 587.295V587.243C783.487 584.847 785.102 582.867 787.629 582.867C790.103 582.867 791.849 584.873 791.849 587.295V587.347C791.849 589.718 790.234 591.698 787.681 591.698Z" fill="#030060"/>
<path d="M736.96 590.09C735.74 590.65 734.453 591.046 733.208 591.294C728.074 592.314 725.36 589.099 729.634 586.781C730.099 586.529 730.632 586.291 731.228 586.075L732.011 585.826C732.241 585.763 732.463 585.661 732.534 585.515C732.905 584.723 729.731 584.467 727.622 585.589C728.458 585.431 729.186 585.408 729.668 585.609C724.878 586.845 723.788 590.757 726.335 592.642C727.649 593.615 729.127 593.873 731.832 593.682C733.637 593.555 735.48 592.837 736.96 591.969V590.09Z" fill="url(#paint1_linear_5188_12986)"/>
<path d="M734.542 592.784C734.542 593.607 735.171 594.165 736.03 594.165C736.89 594.165 737.478 593.644 737.478 592.784V586.011C737.478 584.214 737.009 582.755 735.993 581.765C735.029 580.776 733.492 580.228 731.434 580.228C729.637 580.228 728.308 580.541 727.006 581.036C726.537 581.218 726.146 581.713 726.146 582.286C726.146 583.016 726.745 583.589 727.475 583.589C727.631 583.589 727.787 583.563 727.97 583.511C728.829 583.172 729.819 582.964 731.018 582.964C733.232 582.964 734.43 584.006 734.43 585.959V585.968L734.542 592.784Z" fill="url(#paint2_linear_5188_12986)"/>
<path d="M733.611 578.379C733.611 578.591 733.273 578.721 732.805 578.721C732.077 578.721 731.583 578.64 730.984 578.282L729.216 577.24C728.956 577.093 728.774 576.93 728.774 576.751C728.774 576.442 729.814 576.116 730.646 576.116C731.192 576.116 731.609 576.295 731.895 576.589L733.377 578.021C733.481 578.119 733.611 578.265 733.611 578.379Z" fill="url(#paint3_linear_5188_12986)"/>
<path d="M427.049 196.476H302.95C300.583 196.476 298.646 194.54 298.646 192.173V167.366C298.646 165 300.583 163.063 302.95 163.063H427.049C429.416 163.063 431.352 165 431.352 167.366V192.173C431.352 194.562 429.437 196.476 427.049 196.476Z" fill="#E5F3FF"/>
<path opacity="0.3" d="M426.726 163.343H357.189V177.349C357.189 182.319 361.213 186.343 366.183 186.343H431.352V167.947C431.352 165.408 429.287 163.343 426.726 163.343Z" fill="white"/>
<path d="M431.352 180.878V167.969C431.352 165.408 429.287 163.343 426.726 163.343H368.162V164.01C368.162 167.366 370.873 170.077 374.229 170.077H425.306V174.811C425.285 178.167 428.017 180.878 431.352 180.878Z" fill="white"/>
<path d="M427.049 110.868H302.95C300.583 110.868 298.646 108.931 298.646 106.565V81.7576C298.646 79.3909 300.583 77.4545 302.95 77.4545H427.049C429.416 77.4545 431.352 79.3909 431.352 81.7576V106.565C431.352 108.953 429.437 110.868 427.049 110.868Z" fill="#E5F3FF"/>
<path opacity="0.3" d="M426.726 77.4545H357.189V91.4609C357.189 96.4309 361.213 100.454 366.183 100.454H431.352V82.0803C431.352 79.52 429.287 77.4545 426.726 77.4545Z" fill="white"/>
<path d="M431.352 94.9894V82.0803C431.352 79.52 429.287 77.4545 426.726 77.4545H368.162V78.1215C368.162 81.4779 370.873 84.1888 374.229 84.1888H425.306V88.9221C425.285 92.2785 428.017 94.9894 431.352 94.9894Z" fill="white"/>
<path d="M427.049 112.481H302.95C299.68 112.481 297.033 109.835 297.033 106.565V81.7575C297.033 78.4872 299.68 75.8409 302.95 75.8409H427.049C430.32 75.8409 432.966 78.4872 432.966 81.7575V106.565C432.966 109.835 430.32 112.481 427.049 112.481ZM302.95 79.0682C301.465 79.0682 300.26 80.273 300.26 81.7575V106.565C300.26 108.049 301.465 109.254 302.95 109.254H427.049C428.534 109.254 429.739 108.049 429.739 106.565V81.7575C429.739 80.273 428.534 79.0682 427.049 79.0682H302.95Z" fill="#418DFE"/>
<path d="M427.049 153.683H302.95C300.583 153.683 298.646 151.746 298.646 149.38V124.573C298.646 122.206 300.583 120.27 302.95 120.27H427.049C429.416 120.27 431.352 122.206 431.352 124.573V149.38C431.352 151.746 429.437 153.683 427.049 153.683Z" fill="#E5F3FF"/>
<path opacity="0.3" d="M426.726 119.689H357.189V133.695C357.189 138.665 361.213 142.688 366.183 142.688H431.352V124.293C431.352 121.776 429.287 119.689 426.726 119.689Z" fill="white"/>
<path d="M431.352 137.224V124.315C431.352 121.754 429.287 119.689 426.726 119.689H368.162V120.356C368.162 123.712 370.873 126.423 374.229 126.423H425.306V131.156C425.285 134.513 428.017 137.224 431.352 137.224Z" fill="white"/>
<path d="M427.049 155.296H302.95C299.68 155.296 297.033 152.65 297.033 149.38V124.573C297.033 121.302 299.68 118.656 302.95 118.656H427.049C430.32 118.656 432.966 121.302 432.966 124.573V149.38C432.966 152.65 430.32 155.296 427.049 155.296ZM302.95 121.883C301.465 121.883 300.26 123.088 300.26 124.573V149.38C300.26 150.864 301.465 152.069 302.95 152.069H427.049C428.534 152.069 429.739 150.864 429.739 149.38V124.573C429.739 123.088 428.534 121.883 427.049 121.883H302.95ZM427.049 198.09H302.95C299.68 198.09 297.033 195.444 297.033 192.173V167.366C297.033 164.096 299.68 161.45 302.95 161.45H427.049C430.32 161.45 432.966 164.096 432.966 167.366V192.173C432.966 195.444 430.32 198.09 427.049 198.09ZM302.95 164.677C301.465 164.677 300.26 165.882 300.26 167.366V192.173C300.26 193.658 301.465 194.863 302.95 194.863H427.049C428.534 194.863 429.739 193.658 429.739 192.173V167.366C429.739 165.882 428.534 164.677 427.049 164.677H302.95Z" fill="#418DFE"/>
<path d="M331.134 110.868H313.75V120.248H331.134V110.868Z" fill="#6EBAFF"/>
<path d="M416.249 110.868H398.865V120.248H416.249V110.868Z" fill="#6EBAFF"/>
<path d="M331.134 153.683H313.75V163.063H331.134V153.683Z" fill="#6EBAFF"/>
<path d="M416.249 153.683H398.865V163.063H416.249V153.683Z" fill="#6EBAFF"/>
<path d="M331.135 121.883H313.75C312.868 121.883 312.137 121.152 312.137 120.27V110.889C312.137 110.007 312.868 109.275 313.75 109.275H331.135C332.017 109.275 332.748 110.007 332.748 110.889V120.27C332.748 121.152 332.038 121.883 331.135 121.883ZM315.364 118.656H329.521V112.503H315.364V118.656ZM416.249 121.883H398.864C397.982 121.883 397.251 121.152 397.251 120.27V110.889C397.251 110.007 397.982 109.275 398.864 109.275H416.249C417.131 109.275 417.862 110.007 417.862 110.889V120.27C417.862 121.152 417.152 121.883 416.249 121.883ZM400.478 118.656H414.635V112.503H400.478V118.656ZM331.135 164.677H313.75C312.868 164.677 312.137 163.945 312.137 163.063V153.683C312.137 152.801 312.868 152.069 313.75 152.069H331.135C332.017 152.069 332.748 152.801 332.748 153.683V163.063C332.748 163.967 332.038 164.677 331.135 164.677ZM315.364 161.45H329.521V155.296H315.364V161.45ZM416.249 164.677H398.864C397.982 164.677 397.251 163.945 397.251 163.063V153.683C397.251 152.801 397.982 152.069 398.864 152.069H416.249C417.131 152.069 417.862 152.801 417.862 153.683V163.063C417.862 163.967 417.152 164.677 416.249 164.677ZM400.478 161.45H414.635V155.296H400.478V161.45Z" fill="#418DFE"/>
<path d="M415.323 206.545H399.703C398.09 206.545 396.799 205.255 396.799 203.641V196.498H418.249V203.641C418.228 205.255 416.937 206.545 415.323 206.545Z" fill="#6EBAFF"/>
<path opacity="0.3" d="M418.228 201.963V196.476H405.146V198.886C405.146 200.586 406.523 201.963 408.223 201.963H418.228Z" fill="white"/>
<path d="M415.324 208.159H399.704C397.208 208.159 395.186 206.137 395.186 203.641V196.498C395.186 195.616 395.917 194.884 396.799 194.884H418.25C419.132 194.884 419.863 195.616 419.863 196.498V203.641C419.842 206.137 417.819 208.159 415.324 208.159ZM398.391 198.09V203.619C398.391 204.329 398.972 204.91 399.682 204.91H415.302C416.012 204.91 416.593 204.329 416.593 203.619V198.09H398.391Z" fill="#418DFE"/>
<path d="M334.642 206.545H319.022C317.408 206.545 316.117 205.255 316.117 203.641V196.498H337.568V203.641C337.546 205.255 336.255 206.545 334.642 206.545Z" fill="#6EBAFF"/>
<path opacity="0.3" d="M337.546 201.963V196.476H324.465V198.886C324.465 200.586 325.842 201.963 327.542 201.963H337.546Z" fill="white"/>
<path d="M334.642 208.159H319.022C316.526 208.159 314.504 206.137 314.504 203.641V196.498C314.504 195.616 315.235 194.884 316.118 194.884H337.568C338.45 194.884 339.182 195.616 339.182 196.498V203.641C339.16 206.137 337.138 208.159 334.642 208.159ZM317.731 198.09V203.619C317.731 204.329 318.312 204.91 319.022 204.91H334.642C335.352 204.91 335.933 204.329 335.933 203.619V198.09H317.731Z" fill="#418DFE"/>
<path d="M369.777 99.4431C372.688 99.4431 375.048 97.0831 375.048 94.1718C375.048 91.2606 372.688 88.9006 369.777 88.9006C366.866 88.9006 364.506 91.2606 364.506 94.1718C364.506 97.0831 366.866 99.4431 369.777 99.4431Z" fill="white"/>
<path d="M392.023 99.4431C394.934 99.4431 397.294 97.0831 397.294 94.1718C397.294 91.2606 394.934 88.9006 392.023 88.9006C389.112 88.9006 386.752 91.2606 386.752 94.1718C386.752 97.0831 389.112 99.4431 392.023 99.4431Z" fill="white"/>
<path d="M414.248 99.4431C417.159 99.4431 419.519 97.0831 419.519 94.1718C419.519 91.2606 417.159 88.9006 414.248 88.9006C411.337 88.9006 408.977 91.2606 408.977 94.1718C408.977 97.0831 411.337 99.4431 414.248 99.4431Z" fill="white"/>
<path d="M311.342 102.369C310.46 102.369 309.729 101.638 309.729 100.755V87.5882C309.729 86.7061 310.46 85.9745 311.342 85.9745C312.224 85.9745 312.956 86.7061 312.956 87.5882V100.755C312.956 101.638 312.246 102.369 311.342 102.369ZM324.337 102.369C323.455 102.369 322.724 101.638 322.724 100.755V87.5882C322.724 86.7061 323.455 85.9745 324.337 85.9745C325.219 85.9745 325.951 86.7061 325.951 87.5882V100.755C325.951 101.638 325.219 102.369 324.337 102.369ZM337.311 102.369C336.429 102.369 335.697 101.638 335.697 100.755V87.5882C335.697 86.7061 336.429 85.9745 337.311 85.9745C338.193 85.9745 338.925 86.7061 338.925 87.5882V100.755C338.925 101.638 338.193 102.369 337.311 102.369ZM350.285 102.369C349.402 102.369 348.671 101.638 348.671 100.755V87.5882C348.671 86.7061 349.402 85.9745 350.285 85.9745C351.167 85.9745 351.898 86.7061 351.898 87.5882V100.755C351.898 101.638 351.167 102.369 350.285 102.369Z" fill="#418DFE"/>
<path d="M369.777 142.237C372.688 142.237 375.048 139.877 375.048 136.965C375.048 134.054 372.688 131.694 369.777 131.694C366.866 131.694 364.506 134.054 364.506 136.965C364.506 139.877 366.866 142.237 369.777 142.237Z" fill="white"/>
<path d="M392.023 142.237C394.934 142.237 397.294 139.877 397.294 136.965C397.294 134.054 394.934 131.694 392.023 131.694C389.112 131.694 386.752 134.054 386.752 136.965C386.752 139.877 389.112 142.237 392.023 142.237Z" fill="white"/>
<path d="M414.248 142.237C417.159 142.237 419.519 139.877 419.519 136.965C419.519 134.054 417.159 131.694 414.248 131.694C411.337 131.694 408.977 134.054 408.977 136.965C408.977 139.877 411.337 142.237 414.248 142.237Z" fill="white"/>
<path d="M311.342 145.163C310.46 145.163 309.729 144.431 309.729 143.549V130.382C309.729 129.5 310.46 128.768 311.342 128.768C312.224 128.768 312.956 129.5 312.956 130.382V143.549C312.956 144.453 312.246 145.163 311.342 145.163ZM324.337 145.163C323.455 145.163 322.724 144.431 322.724 143.549V130.382C322.724 129.5 323.455 128.768 324.337 128.768C325.219 128.768 325.951 129.5 325.951 130.382V143.549C325.951 144.453 325.219 145.163 324.337 145.163ZM337.311 145.163C336.429 145.163 335.697 144.431 335.697 143.549V130.382C335.697 129.5 336.429 128.768 337.311 128.768C338.193 128.768 338.925 129.5 338.925 130.382V143.549C338.925 144.453 338.193 145.163 337.311 145.163ZM350.285 145.163C349.402 145.163 348.671 144.431 348.671 143.549V130.382C348.671 129.5 349.402 128.768 350.285 128.768C351.167 128.768 351.898 129.5 351.898 130.382V143.549C351.898 144.453 351.167 145.163 350.285 145.163Z" fill="#418DFE"/>
<path d="M369.777 185.052C372.688 185.052 375.048 182.692 375.048 179.781C375.048 176.869 372.688 174.509 369.777 174.509C366.866 174.509 364.506 176.869 364.506 179.781C364.506 182.692 366.866 185.052 369.777 185.052Z" fill="white"/>
<path d="M369.776 101.057C365.967 101.057 362.869 97.9585 362.869 94.1718C362.869 90.3637 365.967 87.287 369.776 87.287C373.584 87.287 376.66 90.3852 376.66 94.1718C376.682 97.9585 373.584 101.057 369.776 101.057ZM369.776 90.4927C367.753 90.4927 366.096 92.1279 366.096 94.1503C366.096 96.1727 367.732 97.8079 369.776 97.8079C371.798 97.8079 373.433 96.1727 373.433 94.1503C373.455 92.1494 371.798 90.4927 369.776 90.4927ZM369.776 143.872C365.967 143.872 362.869 140.774 362.869 136.987C362.869 133.179 365.967 130.102 369.776 130.102C373.584 130.102 376.66 133.2 376.66 136.987C376.682 140.774 373.584 143.872 369.776 143.872ZM369.776 133.308C367.753 133.308 366.096 134.943 366.096 136.965C366.096 138.988 367.732 140.623 369.776 140.623C371.798 140.623 373.433 138.988 373.433 136.965C373.455 134.943 371.798 133.308 369.776 133.308ZM369.776 186.665C365.967 186.665 362.869 183.567 362.869 179.781C362.869 175.994 365.967 172.896 369.776 172.896C373.584 172.896 376.66 175.994 376.66 179.781C376.66 183.567 373.584 186.665 369.776 186.665ZM369.776 176.102C367.753 176.102 366.096 177.737 366.096 179.759C366.096 181.782 367.732 183.417 369.776 183.417C371.798 183.417 373.433 181.782 373.433 179.759C373.433 177.737 371.798 176.102 369.776 176.102Z" fill="#418DFE"/>
<path d="M392.023 185.052C394.934 185.052 397.294 182.692 397.294 179.781C397.294 176.869 394.934 174.509 392.023 174.509C389.112 174.509 386.752 176.869 386.752 179.781C386.752 182.692 389.112 185.052 392.023 185.052Z" fill="white"/>
<path d="M414.248 185.052C417.159 185.052 419.519 182.692 419.519 179.781C419.519 176.869 417.159 174.509 414.248 174.509C411.337 174.509 408.977 176.869 408.977 179.781C408.977 182.692 411.337 185.052 414.248 185.052Z" fill="white"/>
<path d="M311.342 187.978C310.46 187.978 309.729 187.246 309.729 186.364V173.197C309.729 172.315 310.46 171.583 311.342 171.583C312.224 171.583 312.956 172.315 312.956 173.197V186.364C312.956 187.246 312.246 187.978 311.342 187.978ZM324.337 187.978C323.455 187.978 322.724 187.246 322.724 186.364V173.197C322.724 172.315 323.455 171.583 324.337 171.583C325.219 171.583 325.951 172.315 325.951 173.197V186.364C325.951 187.246 325.219 187.978 324.337 187.978ZM337.311 187.978C336.429 187.978 335.697 187.246 335.697 186.364V173.197C335.697 172.315 336.429 171.583 337.311 171.583C338.193 171.583 338.925 172.315 338.925 173.197V186.364C338.925 187.246 338.193 187.978 337.311 187.978ZM350.285 187.978C349.402 187.978 348.671 187.246 348.671 186.364V173.197C348.671 172.315 349.402 171.583 350.285 171.583C351.167 171.583 351.898 172.315 351.898 173.197V186.364C351.898 187.246 351.167 187.978 350.285 187.978Z" fill="#418DFE"/>
<path d="M392.023 99.4431C394.934 99.4431 397.294 97.0831 397.294 94.1718C397.294 91.2606 394.934 88.9006 392.023 88.9006C389.112 88.9006 386.752 91.2606 386.752 94.1718C386.752 97.0831 389.112 99.4431 392.023 99.4431Z" fill="white"/>
<path d="M392.024 101.057C388.215 101.057 385.139 97.9585 385.139 94.1718C385.139 90.3637 388.237 87.287 392.024 87.287C395.81 87.287 398.908 90.3852 398.908 94.1718C398.908 97.9585 395.81 101.057 392.024 101.057ZM392.024 90.4927C390.001 90.4927 388.366 92.1279 388.366 94.1503C388.366 96.1727 390.001 97.8079 392.024 97.8079C394.046 97.8079 395.681 96.1727 395.681 94.1503C395.681 92.1494 394.046 90.4927 392.024 90.4927Z" fill="#418DFE"/>
<path d="M392.023 142.237C394.934 142.237 397.294 139.877 397.294 136.965C397.294 134.054 394.934 131.694 392.023 131.694C389.112 131.694 386.752 134.054 386.752 136.965C386.752 139.877 389.112 142.237 392.023 142.237Z" fill="white"/>
<path d="M392.024 143.872C388.215 143.872 385.139 140.774 385.139 136.987C385.139 133.179 388.237 130.102 392.024 130.102C395.81 130.102 398.908 133.2 398.908 136.987C398.908 140.774 395.81 143.872 392.024 143.872ZM392.024 133.308C390.001 133.308 388.366 134.943 388.366 136.965C388.366 138.988 390.001 140.623 392.024 140.623C394.046 140.623 395.681 138.988 395.681 136.965C395.681 134.943 394.046 133.308 392.024 133.308Z" fill="#418DFE"/>
<path d="M392.023 185.052C394.934 185.052 397.294 182.692 397.294 179.781C397.294 176.869 394.934 174.509 392.023 174.509C389.112 174.509 386.752 176.869 386.752 179.781C386.752 182.692 389.112 185.052 392.023 185.052Z" fill="white"/>
<path d="M392.024 186.665C388.215 186.665 385.139 183.567 385.139 179.781C385.139 175.994 388.237 172.896 392.024 172.896C395.81 172.896 398.908 175.994 398.908 179.781C398.908 183.567 395.81 186.665 392.024 186.665ZM392.024 176.102C390.001 176.102 388.366 177.737 388.366 179.759C388.366 181.782 390.001 183.417 392.024 183.417C394.046 183.417 395.681 181.782 395.681 179.759C395.681 177.737 394.046 176.102 392.024 176.102ZM414.249 101.057C410.44 101.057 407.364 97.9585 407.364 94.1718C407.364 90.3637 410.462 87.287 414.249 87.287C418.035 87.287 421.134 90.3852 421.134 94.1718C421.134 97.9585 418.057 101.057 414.249 101.057ZM414.249 90.4927C412.226 90.4927 410.591 92.1279 410.591 94.1503C410.591 96.1727 412.226 97.8079 414.249 97.8079C416.271 97.8079 417.906 96.1727 417.906 94.1503C417.906 92.1494 416.271 90.4927 414.249 90.4927ZM414.249 143.872C410.44 143.872 407.364 140.774 407.364 136.987C407.364 133.179 410.462 130.102 414.249 130.102C418.035 130.102 421.134 133.2 421.134 136.987C421.134 140.774 418.057 143.872 414.249 143.872ZM414.249 133.308C412.226 133.308 410.591 134.943 410.591 136.965C410.591 138.988 412.226 140.623 414.249 140.623C416.271 140.623 417.906 138.988 417.906 136.965C417.906 134.943 416.271 133.308 414.249 133.308ZM414.249 186.665C410.44 186.665 407.364 183.567 407.364 179.781C407.364 175.994 410.462 172.896 414.249 172.896C418.035 172.896 421.134 175.994 421.134 179.781C421.134 183.567 418.057 186.665 414.249 186.665ZM414.249 176.102C412.226 176.102 410.591 177.737 410.591 179.759C410.591 181.782 412.226 183.417 414.249 183.417C416.271 183.417 417.906 181.782 417.906 179.759C417.906 177.737 416.271 176.102 414.249 176.102Z" fill="#418DFE"/>
<path d="M506.347 112.396C506.347 128.798 492.817 142.142 476.181 142.142H385.023C377.052 142.182 369.39 139.047 363.717 133.426C358.04 127.916 354.841 120.323 354.858 112.396C354.858 99.9285 362.69 88.8784 374.478 84.5488C380.258 61.6326 400.603 45.4364 424.147 45.0087C447.691 44.5809 468.606 60.0274 475.208 82.7186C475.809 82.6794 476.154 82.6794 476.181 82.6794C476.632 82.6794 477.082 82.6794 477.527 82.7096C485.017 83.0026 492.13 86.0866 497.478 91.3597C503.148 96.8783 506.347 104.468 506.347 112.396Z" fill="#F4F9FF"/>
<path d="M372.007 82.1428C371.856 82.7367 371.712 83.3306 371.582 83.9406C370.761 84.2777 369.955 84.6228 369.148 85C370.07 84.0101 371.023 83.0577 372.007 82.1428Z" fill="#607D8B"/>
<path d="M446.324 88.6964C448.41 86.5328 450.909 84.681 453.718 83.2178C456.568 81.7346 459.68 80.6474 462.935 79.9974C469.557 78.7072 476.486 79.179 482.78 81.3482C489.071 83.4855 494.471 87.1592 498.292 91.9024C500.168 94.2484 501.584 96.8354 502.487 99.5638C503.367 102.261 503.671 105.069 503.387 107.857C502.848 102.437 500.472 97.2634 496.544 92.9605C492.693 88.744 487.585 85.4731 481.746 83.4845C475.921 81.484 469.556 80.89 463.356 81.7685C457.037 82.7116 451.145 85.1082 446.324 88.6964V88.6964Z" fill="#7BB2FF"/>
<path fill-rule="evenodd" clip-rule="evenodd" d="M389.159 65.0001C388.702 65.3679 388.251 65.7427 387.806 66.1246C388.247 65.7497 388.709 65.3689 389.159 65.0001ZM372.999 87.1603C373.228 86.5606 373.472 85.9609 373.73 85.3611C373.472 85.9509 373.228 86.5506 372.999 87.1603ZM369.15 93.5715C369.495 93.4185 369.842 93.2716 370.196 93.1277C369.845 93.2686 369.495 93.4185 369.15 93.5715Z" fill="#55717C"/>
<path d="M494.915 136.736C489.24 142.059 481.739 145.016 473.949 145H382.321C376.735 145.019 371.25 143.505 366.469 140.622C366.218 140.47 365.97 140.315 365.727 140.159C365.482 140.002 365.238 139.84 364.996 139.674C364.755 139.508 364.531 139.349 364.305 139.183L364.281 139.165C364.042 138.994 363.81 138.816 363.577 138.635C363.345 138.455 363.14 138.289 362.922 138.111L362.823 138.03C362.669 137.901 362.521 137.774 362.367 137.639L362.101 137.41C361.977 137.302 361.86 137.196 361.739 137.082C361.458 136.829 361.18 136.564 360.906 136.296C355.199 130.794 351.983 123.212 352 115.296C352 115.065 352 114.833 352 114.604C352 114.45 352 114.303 352 114.134C352 113.746 352.036 113.367 352.069 112.981C352.069 112.792 352.1 112.599 352.121 112.409C352.142 112.22 352.151 112.108 352.172 111.937C352.193 111.765 352.214 111.569 352.242 111.386C352.314 110.836 352.404 110.29 352.51 109.748C352.534 109.615 352.562 109.489 352.589 109.356C352.64 109.113 352.694 108.872 352.746 108.631C352.788 108.465 352.827 108.3 352.869 108.137C352.912 107.974 352.96 107.785 353.008 107.61C353.042 107.484 353.075 107.363 353.111 107.243C353.147 107.122 353.177 107.014 353.214 106.897C353.25 106.779 353.292 106.638 353.334 106.505C353.377 106.373 353.41 106.267 353.452 106.15C353.635 105.594 353.837 105.045 354.056 104.503C354.122 104.335 354.192 104.166 354.261 104C354.331 103.835 354.4 103.666 354.476 103.501C354.551 103.335 354.62 103.169 354.699 103.007C354.777 102.844 354.85 102.679 354.931 102.519C355.013 102.36 355.088 102.194 355.173 102.034C355.257 101.875 355.336 101.712 355.423 101.556C355.511 101.399 355.592 101.237 355.683 101.08C355.858 100.779 356.039 100.451 356.226 100.141C356.414 99.8306 356.589 99.5596 356.773 99.2736C357.379 98.3511 358.037 97.4626 358.741 96.6122C358.841 96.4887 358.94 96.3713 359.043 96.2509C359.423 95.8194 359.815 95.3989 360.217 94.9894C360.317 94.8841 360.414 94.7847 360.519 94.6884C360.877 94.3231 361.247 93.9678 361.627 93.6226L361.914 93.3637C362.371 92.9622 362.841 92.5678 363.324 92.1805L363.626 91.9486C363.879 91.756 364.139 91.5633 364.398 91.3766C364.519 91.2893 364.64 91.205 364.761 91.1237C365.029 90.934 365.304 90.7504 365.579 90.5697C365.718 90.4764 365.863 90.3891 366.007 90.2988L366.385 90.067L366.687 89.8923C366.841 89.799 366.989 89.7087 367.155 89.6214L367.209 89.5913C367.357 89.504 367.511 89.4227 367.662 89.3414C367.813 89.2601 367.991 89.1638 368.157 89.0795L368.658 88.8236L369.165 88.5797L369.681 88.3418C370.026 88.1883 370.373 88.0408 370.726 87.8963C371.079 87.7518 371.405 87.6253 371.746 87.4989C371.804 87.273 371.864 87.0503 371.924 86.8245C372.015 86.4933 372.105 86.1591 372.202 85.8339C372.299 85.5088 372.395 85.1746 372.504 84.8464C372.613 84.5183 372.709 84.1931 372.806 83.868C372.902 83.5428 373.023 83.2237 373.138 82.9076C373.139 82.9016 373.139 82.8955 373.138 82.8895C373.25 82.5884 373.358 82.2874 373.476 81.9863C373.476 81.9652 373.476 81.9411 373.5 81.917C373.734 81.3149 373.977 80.7128 374.231 80.1106L374.294 79.9631C374.406 79.7042 374.518 79.4453 374.635 79.1894L374.717 79.0087C374.825 78.7709 374.934 78.533 375.046 78.2952L375.155 78.0694C375.278 77.8135 375.399 77.5606 375.526 77.3077L375.589 77.1782C375.731 76.8952 375.876 76.6122 376.021 76.3322C376.166 76.0522 376.323 75.7692 376.468 75.4892L376.591 75.2665C376.7 75.0738 376.803 74.8811 376.918 74.6914C376.993 74.5529 377.068 74.4144 377.153 74.279C377.238 74.1435 377.355 73.9267 377.455 73.7521C377.5 73.6768 377.545 73.6015 377.591 73.5263C377.733 73.2824 377.893 73.0416 378.034 72.8007C378.176 72.5599 378.336 72.319 378.493 72.0781C378.614 71.8945 378.732 71.7078 378.856 71.5272L379.058 71.2261C379.167 71.0666 379.275 70.907 379.387 70.7504C379.499 70.5939 379.601 70.4494 379.713 70.2868C379.825 70.1242 379.861 70.076 379.939 69.9677C380.063 69.793 380.19 69.6124 380.323 69.4408L380.483 69.224C380.631 69.0223 380.785 68.8206 380.936 68.6219C381.231 68.2385 381.533 67.8572 381.841 67.4778C381.977 67.3092 382.116 67.1406 382.255 66.972C382.565 66.6007 382.882 66.2314 383.206 65.8641C383.339 65.7106 383.474 65.563 383.613 65.4065L383.737 65.271C383.93 65.0572 384.126 64.8435 384.323 64.6327L384.389 64.5635C384.606 64.3317 384.827 64.1029 385.053 63.874C386.089 62.8143 387.166 61.7937 388.302 60.8212C388.746 60.4379 389.197 60.0615 389.654 59.6922C389.938 59.4634 390.225 59.2406 390.511 59.0178C390.546 58.9873 390.582 58.9592 390.62 58.9335C390.922 58.7017 391.224 58.4759 391.526 58.2531C391.828 58.0303 392.151 57.8015 392.468 57.5787H392.486C392.809 57.3529 393.135 57.1331 393.458 56.9133C393.781 56.6936 394.116 56.4828 394.445 56.2721C395.107 55.8526 395.779 55.4512 396.461 55.0678C396.803 54.8751 397.144 54.6824 397.488 54.4958C397.832 54.3091 398.176 54.1255 398.526 53.9478C398.707 53.8515 398.895 53.7612 399.079 53.6708C401.346 52.5181 403.694 51.5301 406.104 50.7144C405.174 51.3797 381.138 62.5253 382.11 85.8099C373.091 89.0682 365.77 95.8132 361.799 104.521C360.242 113.978 363.423 123.597 370.315 130.275C376.016 135.887 383.715 139.017 391.725 138.978H483.355C487.318 138.984 491.243 138.222 494.915 136.736Z" fill="#7BB2FF"/>
<defs>
<linearGradient id="paint0_linear_5188_12986" x1="800" y1="2.20924e-05" x2="1.22569" y2="601.627" gradientUnits="userSpaceOnUse">
<stop stop-color="#80D7F2"/>
<stop offset="1" stop-color="#2B90B0"/>
</linearGradient>
<linearGradient id="paint1_linear_5188_12986" x1="725" y1="576.116" x2="725" y2="594.165" gradientUnits="userSpaceOnUse">
<stop stop-color="#008EE3"/>
<stop offset="1" stop-color="#0055C2"/>
</linearGradient>
<linearGradient id="paint2_linear_5188_12986" x1="725" y1="576.116" x2="725" y2="594.165" gradientUnits="userSpaceOnUse">
<stop stop-color="#008EE3"/>
<stop offset="1" stop-color="#0055C2"/>
</linearGradient>
<linearGradient id="paint3_linear_5188_12986" x1="725" y1="576.116" x2="725" y2="594.165" gradientUnits="userSpaceOnUse">
<stop stop-color="#008EE3"/>
<stop offset="1" stop-color="#0055C2"/>
</linearGradient>
</defs>
</svg>
