<svg width="800" height="600" viewBox="0 0 800 600" fill="none" xmlns="http://www.w3.org/2000/svg">
<rect width="800" height="600" fill="#FFF8E1"/>
<path d="M103.805 411.164H82.5938L78.6094 423H66.0312L86.5781 365.422H100.172L120.562 423H107.516L103.805 411.164ZM100.445 401.242L93.2578 378.586L85.8359 401.242H100.445ZM179.547 365.422H191.773L175.562 423H164.078L157.125 389.328L155.094 378.195L153.062 389.328L146.109 423H134.938L118.609 365.422H131.383L139 398.391L140.641 407.57L142.32 398.586L148.805 365.422H161.5L168.336 398.391L170.094 407.57L171.852 398.742L179.547 365.422ZM219.977 414.68C222.815 414.68 225.12 414.367 226.891 413.742C230.25 412.544 231.93 410.318 231.93 407.062C231.93 405.161 231.096 403.69 229.43 402.648C227.763 401.633 225.146 400.734 221.578 399.953L215.484 398.586C209.495 397.232 205.354 395.76 203.062 394.172C199.182 391.516 197.242 387.362 197.242 381.711C197.242 376.555 199.117 372.271 202.867 368.859C206.617 365.448 212.125 363.742 219.391 363.742C225.458 363.742 230.628 365.357 234.898 368.586C239.195 371.789 241.448 376.451 241.656 382.57H230.094C229.885 379.107 228.375 376.646 225.562 375.188C223.688 374.224 221.357 373.742 218.57 373.742C215.471 373.742 212.997 374.367 211.148 375.617C209.299 376.867 208.375 378.612 208.375 380.852C208.375 382.909 209.286 384.445 211.109 385.461C212.281 386.138 214.781 386.932 218.609 387.844L228.531 390.227C232.88 391.268 236.161 392.661 238.375 394.406C241.812 397.115 243.531 401.034 243.531 406.164C243.531 411.424 241.513 415.799 237.477 419.289C233.466 422.753 227.789 424.484 220.445 424.484C212.945 424.484 207.047 422.779 202.75 419.367C198.453 415.93 196.305 411.216 196.305 405.227H207.789C208.154 407.857 208.87 409.823 209.938 411.125C211.891 413.495 215.237 414.68 219.977 414.68ZM273.766 365.422H285.719V423H273.766V365.422ZM316.109 388.664C312.333 388.664 309.742 390.266 308.336 393.469C307.607 395.161 307.242 397.323 307.242 399.953V423H296.148V380.5H306.891V386.711C308.323 384.523 309.677 382.948 310.953 381.984C313.245 380.266 316.148 379.406 319.664 379.406C324.065 379.406 327.659 380.565 330.445 382.883C333.258 385.174 334.664 388.99 334.664 394.328V423H323.258V397.102C323.258 394.862 322.958 393.143 322.359 391.945C321.266 389.758 319.182 388.664 316.109 388.664ZM364.469 415.07V423.391L359.195 423.586C353.935 423.768 350.341 422.857 348.414 420.852C347.164 419.576 346.539 417.609 346.539 414.953V388.742H340.602V380.812H346.539V368.938H357.555V380.812H364.469V388.742H357.555V411.242C357.555 412.987 357.776 414.081 358.219 414.523C358.661 414.94 360.016 415.148 362.281 415.148C362.62 415.148 362.971 415.148 363.336 415.148C363.727 415.122 364.104 415.096 364.469 415.07ZM393.023 390.695C388.544 390.695 385.536 392.154 384 395.07C383.141 396.711 382.711 399.237 382.711 402.648V423H371.5V380.422H382.125V387.844C383.844 385.005 385.341 383.065 386.617 382.023C388.701 380.279 391.409 379.406 394.742 379.406C394.951 379.406 395.12 379.419 395.25 379.445C395.406 379.445 395.732 379.458 396.227 379.484V390.891C395.523 390.812 394.898 390.76 394.352 390.734C393.805 390.708 393.362 390.695 393.023 390.695ZM438.297 385.812C441.891 390.318 443.688 395.643 443.688 401.789C443.688 408.039 441.891 413.391 438.297 417.844C434.703 422.271 429.247 424.484 421.93 424.484C414.612 424.484 409.156 422.271 405.562 417.844C401.969 413.391 400.172 408.039 400.172 401.789C400.172 395.643 401.969 390.318 405.562 385.812C409.156 381.307 414.612 379.055 421.93 379.055C429.247 379.055 434.703 381.307 438.297 385.812ZM421.891 388.469C418.635 388.469 416.122 389.628 414.352 391.945C412.607 394.237 411.734 397.518 411.734 401.789C411.734 406.06 412.607 409.354 414.352 411.672C416.122 413.99 418.635 415.148 421.891 415.148C425.146 415.148 427.646 413.99 429.391 411.672C431.135 409.354 432.008 406.06 432.008 401.789C432.008 397.518 431.135 394.237 429.391 391.945C427.646 389.628 425.146 388.469 421.891 388.469ZM490.445 365.5V423H479.625V417.102C478.036 419.628 476.227 421.464 474.195 422.609C472.164 423.755 469.638 424.328 466.617 424.328C461.643 424.328 457.451 422.323 454.039 418.312C450.654 414.276 448.961 409.107 448.961 402.805C448.961 395.539 450.628 389.823 453.961 385.656C457.32 381.49 461.799 379.406 467.398 379.406C469.977 379.406 472.268 379.979 474.273 381.125C476.279 382.245 477.906 383.807 479.156 385.812V365.5H490.445ZM460.445 401.984C460.445 405.917 461.227 409.055 462.789 411.398C464.326 413.768 466.669 414.953 469.82 414.953C472.971 414.953 475.367 413.781 477.008 411.438C478.648 409.094 479.469 406.06 479.469 402.336C479.469 397.128 478.154 393.404 475.523 391.164C473.909 389.81 472.034 389.133 469.898 389.133C466.643 389.133 464.247 390.37 462.711 392.844C461.201 395.292 460.445 398.339 460.445 401.984ZM527.906 416.984C527.802 417.115 527.542 417.505 527.125 418.156C526.708 418.807 526.214 419.38 525.641 419.875C523.896 421.438 522.203 422.505 520.562 423.078C518.948 423.651 517.047 423.938 514.859 423.938C508.557 423.938 504.312 421.672 502.125 417.141C500.901 414.641 500.289 410.956 500.289 406.086V380.422H511.695V406.086C511.695 408.508 511.982 410.331 512.555 411.555C513.57 413.716 515.562 414.797 518.531 414.797C522.333 414.797 524.938 413.26 526.344 410.188C527.073 408.521 527.438 406.32 527.438 403.586V380.422H538.727V423H527.906V416.984ZM586.344 395.695H574.938C574.729 394.107 574.195 392.674 573.336 391.398C572.086 389.68 570.146 388.82 567.516 388.82C563.766 388.82 561.201 390.682 559.82 394.406C559.091 396.385 558.727 399.016 558.727 402.297C558.727 405.422 559.091 407.935 559.82 409.836C561.148 413.378 563.648 415.148 567.32 415.148C569.924 415.148 571.773 414.445 572.867 413.039C573.961 411.633 574.625 409.81 574.859 407.57H586.227C585.966 410.956 584.742 414.159 582.555 417.18C579.065 422.049 573.896 424.484 567.047 424.484C560.198 424.484 555.159 422.453 551.93 418.391C548.701 414.328 547.086 409.055 547.086 402.57C547.086 395.253 548.87 389.562 552.438 385.5C556.005 381.438 560.927 379.406 567.203 379.406C572.542 379.406 576.904 380.604 580.289 383C583.701 385.396 585.719 389.628 586.344 395.695ZM613.531 415.07V423.391L608.258 423.586C602.997 423.768 599.404 422.857 597.477 420.852C596.227 419.576 595.602 417.609 595.602 414.953V388.742H589.664V380.812H595.602V368.938H606.617V380.812H613.531V388.742H606.617V411.242C606.617 412.987 606.839 414.081 607.281 414.523C607.724 414.94 609.078 415.148 611.344 415.148C611.682 415.148 612.034 415.148 612.398 415.148C612.789 415.122 613.167 415.096 613.531 415.07ZM632.125 380.422V423H620.836V380.422H632.125ZM632.125 365.07V375.344H620.836V365.07H632.125ZM678.453 385.812C682.047 390.318 683.844 395.643 683.844 401.789C683.844 408.039 682.047 413.391 678.453 417.844C674.859 422.271 669.404 424.484 662.086 424.484C654.768 424.484 649.312 422.271 645.719 417.844C642.125 413.391 640.328 408.039 640.328 401.789C640.328 395.643 642.125 390.318 645.719 385.812C649.312 381.307 654.768 379.055 662.086 379.055C669.404 379.055 674.859 381.307 678.453 385.812ZM662.047 388.469C658.792 388.469 656.279 389.628 654.508 391.945C652.763 394.237 651.891 397.518 651.891 401.789C651.891 406.06 652.763 409.354 654.508 411.672C656.279 413.99 658.792 415.148 662.047 415.148C665.302 415.148 667.802 413.99 669.547 411.672C671.292 409.354 672.164 406.06 672.164 401.789C672.164 397.518 671.292 394.237 669.547 391.945C667.802 389.628 665.302 388.469 662.047 388.469ZM711.891 388.664C708.115 388.664 705.523 390.266 704.117 393.469C703.388 395.161 703.023 397.323 703.023 399.953V423H691.93V380.5H702.672V386.711C704.104 384.523 705.458 382.948 706.734 381.984C709.026 380.266 711.93 379.406 715.445 379.406C719.846 379.406 723.44 380.565 726.227 382.883C729.039 385.174 730.445 388.99 730.445 394.328V423H719.039V397.102C719.039 394.862 718.74 393.143 718.141 391.945C717.047 389.758 714.964 388.664 711.891 388.664Z" fill="#FF9900"/>
<g clip-path="url(#clip0_5188_12998)">
<path d="M356.362 181.436C356.31 183.435 356.557 185.43 357.094 187.356C357.685 189.003 358.396 190.605 359.223 192.147C359.519 192.603 359.68 193.134 359.689 193.677C359.689 194.342 359.289 195.008 358.425 195.673L354.234 198.467C353.729 198.831 353.127 199.039 352.505 199.065C351.747 199.013 351.036 198.681 350.51 198.134C349.613 197.171 348.811 196.124 348.114 195.008C347.449 193.877 346.783 192.612 346.052 191.083C340.864 197.202 334.345 200.261 326.495 200.261C320.906 200.261 316.451 198.664 313.192 195.47C309.933 192.276 308.27 188.021 308.27 182.7C308.27 177.046 310.265 172.456 314.323 168.997C318.381 165.538 323.768 163.809 330.619 163.809C332.979 163.828 335.335 164.006 337.67 164.341C340.132 164.674 342.659 165.206 345.32 165.805V160.949C345.32 155.892 344.255 152.368 342.194 150.306C340.064 148.244 336.473 147.246 331.351 147.246C328.93 147.246 326.518 147.536 324.167 148.111C321.722 148.693 319.321 149.449 316.983 150.372C316.226 150.711 315.449 151 314.655 151.237C314.31 151.35 313.952 151.418 313.59 151.437C312.659 151.437 312.193 150.771 312.193 149.375V146.115C312.193 145.051 312.326 144.252 312.659 143.787C313.161 143.181 313.799 142.702 314.522 142.39C317.19 141.07 320.003 140.066 322.903 139.397C326.293 138.527 329.781 138.102 333.28 138.133C341.197 138.133 346.983 139.929 350.708 143.521C354.367 147.113 356.229 152.567 356.229 159.884V181.436H356.362ZM329.356 191.547C331.689 191.521 334.003 191.117 336.207 190.35C338.649 189.505 340.827 188.037 342.526 186.091C343.599 184.865 344.373 183.407 344.788 181.832C345.245 179.938 345.468 177.994 345.453 176.045V173.254C343.436 172.763 341.393 172.386 339.334 172.124C337.26 171.861 335.171 171.728 333.081 171.726C328.624 171.726 325.365 172.591 323.17 174.388C320.974 176.185 319.91 178.711 319.91 182.037C319.91 185.164 320.709 187.492 322.371 189.088C323.968 190.751 326.296 191.55 329.356 191.55V191.547ZM382.77 198.731C381.572 198.731 380.774 198.531 380.242 198.066C379.71 197.667 379.244 196.735 378.845 195.472L363.213 144.053C362.91 143.193 362.709 142.299 362.614 141.392C362.614 140.327 363.146 139.729 364.211 139.729H370.73C371.994 139.729 372.859 139.928 373.324 140.394C373.856 140.793 374.255 141.724 374.655 142.988L385.83 187.023L396.206 142.989C396.539 141.658 396.938 140.794 397.47 140.395C398.002 139.995 398.934 139.73 400.132 139.73H405.455C406.719 139.73 407.584 139.929 408.116 140.395C408.649 140.794 409.114 141.725 409.38 142.989L419.89 187.556L431.394 142.989C431.793 141.658 432.259 140.794 432.725 140.395C433.257 139.995 434.122 139.73 435.319 139.73H441.506C442.57 139.73 443.169 140.262 443.169 141.393C443.153 141.751 443.109 142.107 443.036 142.457C442.931 143.025 442.775 143.582 442.57 144.121L426.539 195.539C426.14 196.869 425.674 197.734 425.142 198.133C424.39 198.615 423.506 198.847 422.614 198.798H416.893C415.629 198.798 414.764 198.599 414.232 198.133C413.699 197.668 413.234 196.802 412.968 195.472L402.658 152.567L392.414 195.405C392.081 196.736 391.683 197.6 391.15 198.067C390.618 198.533 389.687 198.732 388.489 198.732L382.77 198.731ZM468.245 200.527C464.795 200.53 461.357 200.129 458.001 199.329C454.676 198.531 452.081 197.666 450.352 196.668C449.287 196.069 448.556 195.404 448.29 194.805C448.031 194.217 447.895 193.583 447.891 192.942V189.551C447.891 188.154 448.423 187.489 449.421 187.489C449.828 187.491 450.232 187.558 450.618 187.689C451.017 187.822 451.616 188.088 452.281 188.354C454.631 189.387 457.084 190.168 459.598 190.682C462.204 191.211 464.855 191.479 467.514 191.481C471.704 191.481 474.964 190.749 477.226 189.286C478.309 188.632 479.2 187.703 479.808 186.593C480.416 185.483 480.719 184.232 480.686 182.967C480.709 182.11 480.563 181.258 480.254 180.459C479.946 179.659 479.482 178.929 478.89 178.31C477.693 177.046 475.43 175.915 472.172 174.85L462.525 171.857C457.669 170.328 454.077 168.066 451.882 165.072C449.74 162.312 448.571 158.921 448.556 155.427C448.502 152.851 449.121 150.306 450.352 148.043C451.54 145.903 453.174 144.043 455.143 142.589C457.216 141.019 459.561 139.846 462.061 139.129C464.784 138.345 467.607 137.965 470.44 138C471.93 137.989 473.419 138.078 474.897 138.266C476.427 138.466 477.825 138.732 479.22 138.998C480.551 139.33 481.815 139.663 483.012 140.062C483.983 140.363 484.919 140.764 485.806 141.26C486.589 141.655 487.272 142.224 487.801 142.923C488.234 143.57 488.444 144.341 488.4 145.118V148.244C488.4 149.641 487.868 150.373 486.87 150.373C486.338 150.373 485.473 150.107 484.342 149.575C480.55 147.845 476.293 146.981 471.571 146.981C467.779 146.981 464.786 147.579 462.724 148.844C460.662 150.108 459.598 152.038 459.598 154.764C459.579 155.647 459.748 156.524 460.091 157.338C460.435 158.152 460.947 158.884 461.593 159.487C462.924 160.751 465.385 162.014 468.91 163.145L478.356 166.137C483.147 167.667 486.604 169.795 488.666 172.522C490.696 175.198 491.774 178.476 491.726 181.835C491.76 184.507 491.168 187.149 489.996 189.551C488.816 191.828 487.16 193.824 485.141 195.405C482.945 197.114 480.437 198.38 477.757 199.131C474.676 200.079 471.468 200.55 468.245 200.528L468.245 200.527Z" fill="#252F3E"/>
<path d="M480.816 232.853C458.932 249.017 427.136 257.598 399.798 257.598C361.483 257.599 326.96 243.431 300.886 219.884C298.824 218.021 300.686 215.494 303.148 216.956C331.351 233.32 366.14 243.23 402.126 243.23C426.405 243.23 453.079 238.173 477.624 227.797C481.283 226.134 484.409 230.193 480.818 232.855L480.816 232.853Z" fill="#FF9900"/>
<path d="M489.928 222.478C487.134 218.886 471.436 220.748 464.319 221.613C462.19 221.879 461.858 220.016 463.787 218.62C476.292 209.84 496.846 212.367 499.241 215.294C501.636 218.287 498.576 238.841 486.868 248.686C485.072 250.216 483.343 249.418 484.141 247.422C486.802 240.837 492.722 226.003 489.928 222.478Z" fill="#FF9900"/>
</g>
<path d="M741.436 592.713C741.436 593.599 742.139 594.276 742.999 594.276C743.884 594.276 744.588 593.599 744.588 592.713V576.563C744.588 575.703 743.884 575 742.999 575C742.113 575 741.436 575.703 741.436 576.563V592.713Z" fill="#030060"/>
<path d="M748.655 576.849C748.655 577.787 749.436 578.412 750.452 578.412C751.468 578.412 752.249 577.787 752.249 576.849V576.693C752.249 575.755 751.468 575.156 750.452 575.156C749.436 575.156 748.655 575.755 748.655 576.693V576.849ZM748.889 592.713C748.889 593.599 749.592 594.276 750.452 594.276C751.338 594.276 752.041 593.599 752.041 592.713V581.825C752.041 580.939 751.338 580.236 750.452 580.236C749.566 580.236 748.889 580.939 748.889 581.825V592.713Z" fill="#030060"/>
<path d="M756.16 592.713C756.16 593.573 756.864 594.276 757.723 594.276C758.609 594.276 759.312 593.573 759.312 592.713V592.01C760.276 593.287 761.709 594.433 764.001 594.433C767.257 594.433 770.383 591.854 770.383 587.295V587.243C770.383 582.658 767.231 580.106 764.001 580.106C761.761 580.106 760.328 581.252 759.312 582.685V576.563C759.312 575.677 758.609 575 757.723 575C756.838 575 756.16 575.677 756.16 576.563V592.713ZM763.246 591.698C761.11 591.698 759.234 589.926 759.234 587.295V587.243C759.234 584.612 761.11 582.841 763.246 582.841C765.382 582.841 767.179 584.586 767.179 587.243V587.295C767.179 590.004 765.408 591.698 763.246 591.698Z" fill="#030060"/>
<path d="M773.819 592.713C773.819 593.599 774.522 594.276 775.382 594.276C776.268 594.276 776.971 593.599 776.971 592.713V576.563C776.971 575.703 776.268 575 775.382 575C774.496 575 773.819 575.703 773.819 576.563V592.713Z" fill="#030060"/>
<path d="M787.629 594.459C791.875 594.459 795.001 591.203 795.001 587.295V587.243C795.001 583.31 791.901 580.106 787.681 580.106C783.461 580.106 780.335 583.362 780.335 587.295V587.347C780.335 591.255 783.435 594.459 787.629 594.459ZM787.681 591.698C785.232 591.698 783.487 589.692 783.487 587.295V587.243C783.487 584.847 785.102 582.867 787.629 582.867C790.103 582.867 791.849 584.873 791.849 587.295V587.347C791.849 589.718 790.234 591.698 787.681 591.698Z" fill="#030060"/>
<path d="M736.96 590.09C735.74 590.65 734.453 591.046 733.208 591.294C728.074 592.314 725.36 589.099 729.634 586.781C730.099 586.529 730.632 586.291 731.228 586.075L732.011 585.826C732.241 585.763 732.463 585.661 732.534 585.515C732.905 584.723 729.731 584.467 727.622 585.589C728.458 585.431 729.186 585.408 729.668 585.609C724.878 586.845 723.788 590.757 726.335 592.642C727.649 593.615 729.127 593.873 731.832 593.682C733.637 593.555 735.48 592.837 736.96 591.969V590.09Z" fill="url(#paint0_linear_5188_12998)"/>
<path d="M734.542 592.784C734.542 593.607 735.171 594.165 736.03 594.165C736.89 594.165 737.478 593.644 737.478 592.784V586.011C737.478 584.214 737.009 582.755 735.993 581.765C735.029 580.776 733.492 580.228 731.434 580.228C729.637 580.228 728.308 580.541 727.006 581.036C726.537 581.218 726.146 581.713 726.146 582.286C726.146 583.016 726.745 583.589 727.475 583.589C727.631 583.589 727.787 583.563 727.97 583.511C728.829 583.172 729.819 582.964 731.018 582.964C733.232 582.964 734.43 584.006 734.43 585.959V585.968L734.542 592.784Z" fill="url(#paint1_linear_5188_12998)"/>
<path d="M733.611 578.379C733.611 578.591 733.273 578.721 732.805 578.721C732.077 578.721 731.583 578.64 730.984 578.282L729.216 577.24C728.956 577.093 728.774 576.93 728.774 576.751C728.774 576.442 729.814 576.116 730.646 576.116C731.192 576.116 731.609 576.295 731.895 576.589L733.377 578.021C733.481 578.119 733.611 578.265 733.611 578.379Z" fill="url(#paint2_linear_5188_12998)"/>
<defs>
<linearGradient id="paint0_linear_5188_12998" x1="725" y1="576.116" x2="725" y2="594.165" gradientUnits="userSpaceOnUse">
<stop stop-color="#008EE3"/>
<stop offset="1" stop-color="#0055C2"/>
</linearGradient>
<linearGradient id="paint1_linear_5188_12998" x1="725" y1="576.116" x2="725" y2="594.165" gradientUnits="userSpaceOnUse">
<stop stop-color="#008EE3"/>
<stop offset="1" stop-color="#0055C2"/>
</linearGradient>
<linearGradient id="paint2_linear_5188_12998" x1="725" y1="576.116" x2="725" y2="594.165" gradientUnits="userSpaceOnUse">
<stop stop-color="#008EE3"/>
<stop offset="1" stop-color="#0055C2"/>
</linearGradient>
<clipPath id="clip0_5188_12998">
<rect width="200" height="119.599" fill="white" transform="translate(300 138)"/>
</clipPath>
</defs>
</svg>
