<svg width="800" height="600" viewBox="0 0 800 600" fill="none" xmlns="http://www.w3.org/2000/svg">
<rect width="800" height="600" fill="#FCFCFC"/>
<path d="M354.539 372.594C351.362 374.547 347.456 375.523 342.82 375.523C335.19 375.523 328.94 372.88 324.07 367.594C318.992 362.281 316.453 355.016 316.453 345.797C316.453 336.474 319.018 329 324.148 323.375C329.279 317.75 336.062 314.938 344.5 314.938C351.818 314.938 357.69 316.799 362.117 320.523C366.57 324.221 369.122 328.844 369.773 334.391H357.938C357.026 330.458 354.799 327.711 351.258 326.148C349.279 325.289 347.078 324.859 344.656 324.859C340.021 324.859 336.206 326.617 333.211 330.133C330.242 333.622 328.758 338.883 328.758 345.914C328.758 352.997 330.372 358.01 333.602 360.953C336.831 363.896 340.503 365.367 344.617 365.367C348.654 365.367 351.961 364.208 354.539 361.891C357.117 359.547 358.706 356.487 359.305 352.711H345.984V343.102H369.969V374H362L360.789 366.812C358.471 369.547 356.388 371.474 354.539 372.594ZM422.117 369.703C417.82 373.635 412.326 375.602 405.633 375.602C397.352 375.602 390.841 372.945 386.102 367.633C381.362 362.294 378.992 354.977 378.992 345.68C378.992 335.628 381.688 327.88 387.078 322.438C391.766 317.698 397.729 315.328 404.969 315.328C414.656 315.328 421.74 318.505 426.219 324.859C428.693 328.427 430.021 332.008 430.203 335.602H418.172C417.391 332.841 416.388 330.758 415.164 329.352C412.977 326.852 409.734 325.602 405.438 325.602C401.062 325.602 397.612 327.372 395.086 330.914C392.56 334.43 391.297 339.417 391.297 345.875C391.297 352.333 392.625 357.177 395.281 360.406C397.964 363.609 401.362 365.211 405.477 365.211C409.695 365.211 412.911 363.831 415.125 361.07C416.349 359.586 417.365 357.359 418.172 354.391H430.086C429.044 360.667 426.388 365.771 422.117 369.703ZM463.758 353.297H451.531V374H439.578V316.422H464.656C470.438 316.422 475.047 317.906 478.484 320.875C481.922 323.844 483.641 328.44 483.641 334.664C483.641 341.461 481.922 346.266 478.484 349.078C475.047 351.891 470.138 353.297 463.758 353.297ZM469.383 341.305C470.945 339.924 471.727 337.737 471.727 334.742C471.727 331.747 470.932 329.612 469.344 328.336C467.781 327.06 465.581 326.422 462.742 326.422H451.531V343.375H462.742C465.581 343.375 467.794 342.685 469.383 341.305ZM171.18 408.422H183.133V466H171.18V408.422ZM213.523 431.664C209.747 431.664 207.156 433.266 205.75 436.469C205.021 438.161 204.656 440.323 204.656 442.953V466H193.562V423.5H204.305V429.711C205.737 427.523 207.091 425.948 208.367 424.984C210.659 423.266 213.562 422.406 217.078 422.406C221.479 422.406 225.073 423.565 227.859 425.883C230.672 428.174 232.078 431.99 232.078 437.328V466H220.672V440.102C220.672 437.862 220.372 436.143 219.773 434.945C218.68 432.758 216.596 431.664 213.523 431.664ZM261.883 458.07V466.391L256.609 466.586C251.349 466.768 247.755 465.857 245.828 463.852C244.578 462.576 243.953 460.609 243.953 457.953V431.742H238.016V423.812H243.953V411.938H254.969V423.812H261.883V431.742H254.969V454.242C254.969 455.987 255.19 457.081 255.633 457.523C256.076 457.94 257.43 458.148 259.695 458.148C260.034 458.148 260.385 458.148 260.75 458.148C261.141 458.122 261.518 458.096 261.883 458.07ZM290.438 433.695C285.958 433.695 282.951 435.154 281.414 438.07C280.555 439.711 280.125 442.237 280.125 445.648V466H268.914V423.422H279.539V430.844C281.258 428.005 282.755 426.065 284.031 425.023C286.115 423.279 288.823 422.406 292.156 422.406C292.365 422.406 292.534 422.419 292.664 422.445C292.82 422.445 293.146 422.458 293.641 422.484V433.891C292.938 433.812 292.312 433.76 291.766 433.734C291.219 433.708 290.776 433.695 290.438 433.695ZM335.711 428.812C339.305 433.318 341.102 438.643 341.102 444.789C341.102 451.039 339.305 456.391 335.711 460.844C332.117 465.271 326.661 467.484 319.344 467.484C312.026 467.484 306.57 465.271 302.977 460.844C299.383 456.391 297.586 451.039 297.586 444.789C297.586 438.643 299.383 433.318 302.977 428.812C306.57 424.307 312.026 422.055 319.344 422.055C326.661 422.055 332.117 424.307 335.711 428.812ZM319.305 431.469C316.049 431.469 313.536 432.628 311.766 434.945C310.021 437.237 309.148 440.518 309.148 444.789C309.148 449.06 310.021 452.354 311.766 454.672C313.536 456.99 316.049 458.148 319.305 458.148C322.56 458.148 325.06 456.99 326.805 454.672C328.549 452.354 329.422 449.06 329.422 444.789C329.422 440.518 328.549 437.237 326.805 434.945C325.06 432.628 322.56 431.469 319.305 431.469ZM387.859 408.5V466H377.039V460.102C375.451 462.628 373.641 464.464 371.609 465.609C369.578 466.755 367.052 467.328 364.031 467.328C359.057 467.328 354.865 465.323 351.453 461.312C348.068 457.276 346.375 452.107 346.375 445.805C346.375 438.539 348.042 432.823 351.375 428.656C354.734 424.49 359.214 422.406 364.812 422.406C367.391 422.406 369.682 422.979 371.688 424.125C373.693 425.245 375.32 426.807 376.57 428.812V408.5H387.859ZM357.859 444.984C357.859 448.917 358.641 452.055 360.203 454.398C361.74 456.768 364.083 457.953 367.234 457.953C370.385 457.953 372.781 456.781 374.422 454.438C376.062 452.094 376.883 449.06 376.883 445.336C376.883 440.128 375.568 436.404 372.938 434.164C371.323 432.81 369.448 432.133 367.312 432.133C364.057 432.133 361.661 433.37 360.125 435.844C358.615 438.292 357.859 441.339 357.859 444.984ZM425.32 459.984C425.216 460.115 424.956 460.505 424.539 461.156C424.122 461.807 423.628 462.38 423.055 462.875C421.31 464.438 419.617 465.505 417.977 466.078C416.362 466.651 414.461 466.938 412.273 466.938C405.971 466.938 401.727 464.672 399.539 460.141C398.315 457.641 397.703 453.956 397.703 449.086V423.422H409.109V449.086C409.109 451.508 409.396 453.331 409.969 454.555C410.984 456.716 412.977 457.797 415.945 457.797C419.747 457.797 422.352 456.26 423.758 453.188C424.487 451.521 424.852 449.32 424.852 446.586V423.422H436.141V466H425.32V459.984ZM483.758 438.695H472.352C472.143 437.107 471.609 435.674 470.75 434.398C469.5 432.68 467.56 431.82 464.93 431.82C461.18 431.82 458.615 433.682 457.234 437.406C456.505 439.385 456.141 442.016 456.141 445.297C456.141 448.422 456.505 450.935 457.234 452.836C458.562 456.378 461.062 458.148 464.734 458.148C467.339 458.148 469.188 457.445 470.281 456.039C471.375 454.633 472.039 452.81 472.273 450.57H483.641C483.38 453.956 482.156 457.159 479.969 460.18C476.479 465.049 471.31 467.484 464.461 467.484C457.612 467.484 452.573 465.453 449.344 461.391C446.115 457.328 444.5 452.055 444.5 445.57C444.5 438.253 446.284 432.562 449.852 428.5C453.419 424.438 458.341 422.406 464.617 422.406C469.956 422.406 474.318 423.604 477.703 426C481.115 428.396 483.133 432.628 483.758 438.695ZM510.945 458.07V466.391L505.672 466.586C500.411 466.768 496.818 465.857 494.891 463.852C493.641 462.576 493.016 460.609 493.016 457.953V431.742H487.078V423.812H493.016V411.938H504.031V423.812H510.945V431.742H504.031V454.242C504.031 455.987 504.253 457.081 504.695 457.523C505.138 457.94 506.492 458.148 508.758 458.148C509.096 458.148 509.448 458.148 509.812 458.148C510.203 458.122 510.581 458.096 510.945 458.07ZM529.539 423.422V466H518.25V423.422H529.539ZM529.539 408.07V418.344H518.25V408.07H529.539ZM575.867 428.812C579.461 433.318 581.258 438.643 581.258 444.789C581.258 451.039 579.461 456.391 575.867 460.844C572.273 465.271 566.818 467.484 559.5 467.484C552.182 467.484 546.727 465.271 543.133 460.844C539.539 456.391 537.742 451.039 537.742 444.789C537.742 438.643 539.539 433.318 543.133 428.812C546.727 424.307 552.182 422.055 559.5 422.055C566.818 422.055 572.273 424.307 575.867 428.812ZM559.461 431.469C556.206 431.469 553.693 432.628 551.922 434.945C550.177 437.237 549.305 440.518 549.305 444.789C549.305 449.06 550.177 452.354 551.922 454.672C553.693 456.99 556.206 458.148 559.461 458.148C562.716 458.148 565.216 456.99 566.961 454.672C568.706 452.354 569.578 449.06 569.578 444.789C569.578 440.518 568.706 437.237 566.961 434.945C565.216 432.628 562.716 431.469 559.461 431.469ZM609.305 431.664C605.529 431.664 602.938 433.266 601.531 436.469C600.802 438.161 600.438 440.323 600.438 442.953V466H589.344V423.5H600.086V429.711C601.518 427.523 602.872 425.948 604.148 424.984C606.44 423.266 609.344 422.406 612.859 422.406C617.26 422.406 620.854 423.565 623.641 425.883C626.453 428.174 627.859 431.99 627.859 437.328V466H616.453V440.102C616.453 437.862 616.154 436.143 615.555 434.945C614.461 432.758 612.378 431.664 609.305 431.664Z" fill="#4F4F4F"/>
<g clip-path="url(#clip0_5188_13010)">
<path d="M438.005 140.387L455.389 123.001L456.545 115.684C424.869 86.8758 374.512 90.1453 345.949 122.499C337.966 131.667 332.17 142.529 328.996 154.263L335.22 153.382L369.99 147.659L372.669 144.915C380.106 136.693 390.399 131.616 401.45 130.72C412.5 129.824 423.477 133.176 432.141 140.092L438.005 140.387Z" fill="#EA4335"/>
<path d="M480.162 153.744C476.166 139.027 467.961 125.797 456.553 115.677L432.151 140.079C437.235 144.233 441.311 149.488 444.068 155.447C446.826 161.406 448.195 167.913 448.072 174.478V178.807C453.799 178.807 459.291 181.082 463.341 185.132C467.391 189.182 469.666 194.674 469.666 200.401C469.666 206.128 467.391 211.621 463.341 215.671C459.291 219.72 453.799 221.996 448.072 221.996H404.584L400.316 226.632V252.684L404.584 256.775H448.073C460.188 256.903 472.021 253.122 481.816 245.992C491.612 238.863 498.848 228.766 502.451 217.198C506.054 205.631 505.831 193.211 501.816 181.78C497.801 170.349 490.208 160.517 480.163 153.744" fill="#4285F4"/>
<path d="M361.146 256.775H404.588V222.005H361.146C358.072 222.002 355.035 221.338 352.241 220.057L346.079 221.944L328.571 239.328L327.047 245.244C336.848 252.71 348.825 256.76 361.146 256.775" fill="#34A853"/>
<path d="M361.148 143.99C349.38 144.061 337.928 147.807 328.391 154.702C318.854 161.598 311.709 171.3 307.954 182.454C304.198 193.607 304.02 205.655 307.443 216.914C310.866 228.174 317.721 238.084 327.049 245.259L352.245 220.063C349.044 218.616 346.241 216.415 344.077 213.647C341.913 210.879 340.453 207.628 339.822 204.172C339.192 200.716 339.409 197.158 340.455 193.804C341.501 190.451 343.346 187.401 345.83 184.917C348.314 182.432 351.364 180.588 354.718 179.542C358.071 178.495 361.629 178.278 365.085 178.909C368.541 179.54 371.793 181 374.56 183.164C377.328 185.327 379.53 188.13 380.976 191.332L406.172 166.136C400.884 159.222 394.068 153.626 386.257 149.784C378.446 145.942 369.853 143.959 361.148 143.99" fill="#FBBC05"/>
</g>
<path d="M741.436 592.713C741.436 593.599 742.139 594.276 742.999 594.276C743.884 594.276 744.588 593.599 744.588 592.713V576.563C744.588 575.703 743.884 575 742.999 575C742.113 575 741.436 575.703 741.436 576.563V592.713Z" fill="#030060"/>
<path d="M748.655 576.849C748.655 577.787 749.436 578.412 750.452 578.412C751.468 578.412 752.249 577.787 752.249 576.849V576.693C752.249 575.755 751.468 575.156 750.452 575.156C749.436 575.156 748.655 575.755 748.655 576.693V576.849ZM748.889 592.713C748.889 593.599 749.592 594.276 750.452 594.276C751.338 594.276 752.041 593.599 752.041 592.713V581.825C752.041 580.939 751.338 580.236 750.452 580.236C749.566 580.236 748.889 580.939 748.889 581.825V592.713Z" fill="#030060"/>
<path d="M756.16 592.713C756.16 593.573 756.864 594.276 757.723 594.276C758.609 594.276 759.312 593.573 759.312 592.713V592.01C760.276 593.287 761.709 594.433 764.001 594.433C767.257 594.433 770.383 591.854 770.383 587.295V587.243C770.383 582.658 767.231 580.106 764.001 580.106C761.761 580.106 760.328 581.252 759.312 582.685V576.563C759.312 575.677 758.609 575 757.723 575C756.838 575 756.16 575.677 756.16 576.563V592.713ZM763.246 591.698C761.11 591.698 759.234 589.926 759.234 587.295V587.243C759.234 584.612 761.11 582.841 763.246 582.841C765.382 582.841 767.179 584.586 767.179 587.243V587.295C767.179 590.004 765.408 591.698 763.246 591.698Z" fill="#030060"/>
<path d="M773.819 592.713C773.819 593.599 774.522 594.276 775.382 594.276C776.268 594.276 776.971 593.599 776.971 592.713V576.563C776.971 575.703 776.268 575 775.382 575C774.496 575 773.819 575.703 773.819 576.563V592.713Z" fill="#030060"/>
<path d="M787.629 594.459C791.875 594.459 795.001 591.203 795.001 587.295V587.243C795.001 583.31 791.901 580.106 787.681 580.106C783.461 580.106 780.335 583.362 780.335 587.295V587.347C780.335 591.255 783.435 594.459 787.629 594.459ZM787.681 591.698C785.232 591.698 783.487 589.692 783.487 587.295V587.243C783.487 584.847 785.102 582.867 787.629 582.867C790.103 582.867 791.849 584.873 791.849 587.295V587.347C791.849 589.718 790.234 591.698 787.681 591.698Z" fill="#030060"/>
<path d="M736.96 590.09C735.74 590.65 734.453 591.046 733.208 591.294C728.074 592.314 725.36 589.099 729.634 586.781C730.099 586.529 730.632 586.291 731.228 586.075L732.011 585.826C732.241 585.763 732.463 585.661 732.534 585.515C732.905 584.723 729.731 584.467 727.622 585.589C728.458 585.431 729.186 585.408 729.668 585.609C724.878 586.845 723.788 590.757 726.335 592.642C727.649 593.615 729.127 593.873 731.832 593.682C733.637 593.555 735.48 592.837 736.96 591.969V590.09Z" fill="url(#paint0_linear_5188_13010)"/>
<path d="M734.542 592.784C734.542 593.607 735.171 594.165 736.03 594.165C736.89 594.165 737.478 593.644 737.478 592.784V586.011C737.478 584.214 737.009 582.755 735.993 581.765C735.029 580.776 733.492 580.228 731.434 580.228C729.637 580.228 728.308 580.541 727.006 581.036C726.537 581.218 726.146 581.713 726.146 582.286C726.146 583.016 726.745 583.589 727.475 583.589C727.631 583.589 727.787 583.563 727.97 583.511C728.829 583.172 729.819 582.964 731.018 582.964C733.232 582.964 734.43 584.006 734.43 585.959V585.968L734.542 592.784Z" fill="url(#paint1_linear_5188_13010)"/>
<path d="M733.611 578.379C733.611 578.591 733.273 578.721 732.805 578.721C732.077 578.721 731.583 578.64 730.984 578.282L729.216 577.24C728.956 577.093 728.774 576.93 728.774 576.751C728.774 576.442 729.814 576.116 730.646 576.116C731.192 576.116 731.609 576.295 731.895 576.589L733.377 578.021C733.481 578.119 733.611 578.265 733.611 578.379Z" fill="url(#paint2_linear_5188_13010)"/>
<defs>
<linearGradient id="paint0_linear_5188_13010" x1="725" y1="576.116" x2="725" y2="594.165" gradientUnits="userSpaceOnUse">
<stop stop-color="#008EE3"/>
<stop offset="1" stop-color="#0055C2"/>
</linearGradient>
<linearGradient id="paint1_linear_5188_13010" x1="725" y1="576.116" x2="725" y2="594.165" gradientUnits="userSpaceOnUse">
<stop stop-color="#008EE3"/>
<stop offset="1" stop-color="#0055C2"/>
</linearGradient>
<linearGradient id="paint2_linear_5188_13010" x1="725" y1="576.116" x2="725" y2="594.165" gradientUnits="userSpaceOnUse">
<stop stop-color="#008EE3"/>
<stop offset="1" stop-color="#0055C2"/>
</linearGradient>
<clipPath id="clip0_5188_13010">
<rect width="200" height="160.778" fill="white" transform="translate(305 96)"/>
</clipPath>
</defs>
</svg>
