<svg width="50" height="50" viewBox="0 0 50 50" fill="none" xmlns="http://www.w3.org/2000/svg">
<path d="M24.9258 0.400757L1.7785 8.54685L5.43593 38.8738L24.9504 49.5992L44.5652 38.7289L48.2215 8.40271L24.9258 0.400757Z" fill="#B3B3B3"/>
<path d="M45.9125 10.1555L24.8719 2.9801V47.0367L42.5051 37.2778L45.9125 10.1555Z" fill="#A6120D"/>
<path d="M4.37537 10.2847L7.51052 37.4074L24.8715 47.0367V2.97925L4.37537 10.2847Z" fill="#DD1B16"/>
<path d="M30.6637 26.4336L24.8719 29.1422H18.7672L15.8973 36.3196L10.5602 36.4188L24.8719 4.57971L30.6637 26.4336ZM30.1035 25.0699L24.9102 14.7883L20.65 24.893H24.8715L30.1035 25.0699Z" fill="#F2F2F2"/>
<path d="M24.8715 4.57971L24.9097 14.7883L29.7437 24.9008H24.882L24.8715 29.1356L31.5937 29.1422L34.7351 36.4196L39.8422 36.5141L24.8715 4.57971Z" fill="#B3B3B3"/>
</svg>
