<svg width="50" height="30" viewBox="0 0 50 30" fill="none" xmlns="http://www.w3.org/2000/svg">
<g clip-path="url(#clip0_2790_12538)">
<path d="M14.0905 10.859C14.0776 11.3587 14.1393 11.8575 14.2734 12.339C14.4212 12.7508 14.5991 13.1511 14.8057 13.5368C14.8797 13.6508 14.9201 13.7834 14.9222 13.9193C14.9222 14.0855 14.8224 14.252 14.6062 14.4181L13.5586 15.1166C13.4322 15.2076 13.2819 15.2597 13.1263 15.2662C12.9369 15.2532 12.759 15.1702 12.6274 15.0334C12.4032 14.7927 12.2027 14.5309 12.0285 14.2519C11.8623 13.9692 11.6958 13.653 11.513 13.2707C10.216 14.8004 8.58623 15.5652 6.62387 15.5652C5.22653 15.5652 4.11284 15.1659 3.29801 14.3675C2.48318 13.569 2.0674 12.5053 2.0674 11.175C2.0674 9.76147 2.56626 8.61403 3.58071 7.7493C4.59516 6.88456 5.94202 6.45215 7.65486 6.45215C8.24476 6.45697 8.83367 6.50143 9.4176 6.58523C10.0329 6.6684 10.6648 6.80139 11.33 6.9511V5.73713C11.33 4.47287 11.0638 3.59197 10.5484 3.07638C10.0161 2.56089 9.11827 2.31146 7.83775 2.31146C7.23259 2.31143 6.62961 2.384 6.04174 2.52762C5.43042 2.67326 4.83024 2.8622 4.24573 3.09302C4.05662 3.17763 3.86219 3.24983 3.66369 3.30918C3.57759 3.33757 3.48808 3.35435 3.39753 3.35908C3.16474 3.35908 3.04829 3.19283 3.04829 2.84359V2.02876C3.04829 1.7626 3.08156 1.56298 3.16474 1.44672C3.29022 1.29514 3.44985 1.17546 3.63052 1.09748C4.29751 0.767462 5.00071 0.516336 5.72586 0.34919C6.57323 0.131762 7.44529 0.0255465 8.32007 0.0332193C10.2994 0.0332193 11.7457 0.482175 12.677 1.38018C13.5917 2.27819 14.0573 3.64178 14.0573 5.47106V10.859H14.0905ZM7.33899 13.3867C7.92237 13.3803 8.50084 13.2792 9.05182 13.0873C9.66219 12.8762 10.2068 12.5092 10.6316 12.0227C10.8996 11.7162 11.0932 11.3518 11.197 10.9581C11.3112 10.4844 11.3671 9.99851 11.3632 9.51128V8.81356C10.859 8.69082 10.3483 8.59644 9.83357 8.53086C9.31502 8.46517 8.79286 8.432 8.27017 8.43152C7.156 8.43152 6.34117 8.64769 5.79241 9.09692C5.24364 9.54617 4.97757 10.1778 4.97757 11.0093C4.97757 11.7908 5.17719 12.3729 5.59288 12.772C5.99212 13.1878 6.57406 13.3873 7.33899 13.3873V13.3867ZM20.6924 15.1827C20.3931 15.1827 20.1936 15.1328 20.0605 15.0164C19.9274 14.9166 19.8111 14.6837 19.7113 14.3678L15.8032 1.51326C15.7274 1.29808 15.6772 1.07475 15.6535 0.84786C15.6535 0.5817 15.7866 0.432079 16.0528 0.432079H17.6824C17.9984 0.432079 18.2148 0.481984 18.331 0.598334C18.4641 0.698145 18.5638 0.931035 18.6637 1.24691L21.4575 12.2556L24.0516 1.2472C24.1347 0.914495 24.2345 0.69843 24.3675 0.59862C24.5006 0.49881 24.7334 0.432365 25.0329 0.432365H26.3637C26.6797 0.432365 26.8961 0.48227 27.0291 0.59862C27.1622 0.69843 27.2786 0.93132 27.3451 1.2472L29.9726 12.3889L32.8485 1.2472C32.9484 0.914495 33.0647 0.69843 33.1812 0.59862C33.3143 0.49881 33.5305 0.432365 33.8298 0.432365H35.3764C35.6426 0.432365 35.7922 0.565445 35.7922 0.848145C35.7883 0.937618 35.7772 1.02663 35.7589 1.11431C35.7328 1.25616 35.6939 1.39533 35.6425 1.53009L31.6348 14.3847C31.535 14.7172 31.4186 14.9334 31.2855 15.0332C31.0975 15.1536 30.8764 15.2118 30.6536 15.1995H29.2233C28.9074 15.1995 28.691 15.1496 28.5579 15.0332C28.4249 14.9169 28.3085 14.7005 28.242 14.3678L25.6646 3.64178L23.1036 14.3512C23.0204 14.6839 22.9207 14.9 22.7876 15.0166C22.6545 15.1332 22.4217 15.1829 22.1222 15.1829L20.6924 15.1827ZM42.0613 15.6316C41.1989 15.6326 40.3393 15.5321 39.5004 15.3323C38.6689 15.1327 38.0203 14.9165 37.588 14.6669C37.3218 14.5173 37.139 14.3509 37.0725 14.2011C37.0078 14.0543 36.9738 13.8958 36.9727 13.7353V12.8878C36.9727 12.5386 37.1058 12.3723 37.3552 12.3723C37.457 12.3727 37.5581 12.3895 37.6545 12.4222C37.7543 12.4555 37.904 12.522 38.0703 12.5885C38.6577 12.8468 39.2709 13.0419 39.8996 13.1705C40.5509 13.3027 41.2139 13.3696 41.8785 13.3701C42.9261 13.3701 43.7411 13.1872 44.3064 12.8214C44.5773 12.6579 44.8001 12.4256 44.952 12.1481C45.104 11.8707 45.1797 11.5579 45.1715 11.2416C45.1773 11.0275 45.1407 10.8144 45.0636 10.6146C44.9865 10.4148 44.8706 10.2322 44.7225 10.0775C44.4232 9.76157 43.8575 9.47867 43.0429 9.21251L40.6312 8.46432C39.4172 8.0819 38.5192 7.5165 37.9705 6.76802C37.4351 6.07788 37.1428 5.23016 37.139 4.35671C37.1255 3.71282 37.2803 3.07655 37.588 2.51079C37.8851 1.97579 38.2935 1.51078 38.7857 1.14719C39.304 0.754809 39.8903 0.461548 40.5152 0.282174C41.1959 0.0862323 41.9017 -0.00885363 42.6101 -5.06886e-05C42.9825 -0.00275081 43.3547 0.0194789 43.7242 0.0664894C44.1067 0.116394 44.4562 0.182934 44.8051 0.249379C45.1378 0.332555 45.4537 0.415635 45.753 0.51554C45.9957 0.590601 46.2298 0.69093 46.4515 0.814875C46.6473 0.913617 46.818 1.05584 46.9504 1.23066C47.0585 1.39248 47.111 1.5851 47.1 1.77942V2.56098C47.1 2.91022 46.9669 3.0933 46.7175 3.0933C46.5844 3.0933 46.3682 3.02676 46.0855 2.89368C45.1376 2.4613 44.0733 2.24511 42.8927 2.24511C41.9448 2.24511 41.1965 2.39473 40.681 2.71089C40.1655 3.02705 39.8994 3.50937 39.8994 4.19093C39.8949 4.41175 39.9369 4.63104 40.0229 4.8345C40.1088 5.03795 40.2368 5.22098 40.3983 5.37163C40.731 5.6876 41.3462 6.00357 42.2276 6.28627L44.589 7.03418C45.7867 7.41669 46.651 7.94882 47.1665 8.63057C47.6741 9.29953 47.9434 10.1191 47.9315 10.9587C47.94 11.6267 47.792 12.2873 47.4991 12.8877C47.204 13.4569 46.79 13.956 46.2852 14.3511C45.7361 14.7785 45.1092 15.0949 44.4392 15.2827C43.669 15.5196 42.867 15.6374 42.0612 15.6319L42.0613 15.6316Z" fill="#252F3E"/>
<path d="M45.2043 23.7133C39.7332 27.7542 31.7843 29.8994 24.9496 29.8994C15.3709 29.8998 6.74022 26.3577 0.22167 20.4709C-0.293825 20.0051 0.171765 19.3733 0.787071 19.7389C7.83794 23.8298 16.5352 26.3074 25.5317 26.3074C31.6015 26.3074 38.2698 25.0431 44.4062 22.4493C45.3208 22.0335 46.1024 23.0481 45.2046 23.7135L45.2043 23.7133Z" fill="#FF9900"/>
<path d="M47.4825 21.1194C46.784 20.2214 42.8595 20.6871 41.0801 20.9032C40.5478 20.9698 40.4648 20.504 40.947 20.155C44.0734 17.9599 49.2119 18.5917 49.8105 19.3235C50.4094 20.0718 49.6443 25.2103 46.7175 27.6715C46.2685 28.054 45.8361 27.8544 46.0356 27.3555C46.7009 25.7092 48.181 22.0008 47.4825 21.1194Z" fill="#FF9900"/>
</g>
<defs>
<clipPath id="clip0_2790_12538">
<rect width="50" height="29.8998" fill="white"/>
</clipPath>
</defs>
</svg>
