<svg width="200" height="200" viewBox="0 0 200 200" fill="none" xmlns="http://www.w3.org/2000/svg">
<path d="M114.258 158.438L114.531 148.633C114.57 147.148 114.961 113.047 80.8594 104.414C78.8281 103.906 77.4219 102.07 77.3828 100C77.3828 97.8906 78.75 96.0547 80.7813 95.5078C114.609 86.3672 114.492 51.6406 114.492 51.2891L114.375 42.5781L120.82 48.4375C121.719 49.2578 143.125 69.0234 144.18 98.125C144.844 116.68 137.031 134.57 121.016 151.367L114.258 158.438V158.438ZM91.0937 99.8438C112.617 108.906 119.219 128.203 121.211 139.688C131.953 126.367 137.148 112.539 136.641 98.3984C136.055 81.25 127.148 67.3828 121.133 59.9219C119.063 71.25 112.422 90.4688 91.0937 99.8438V99.8438ZM34.375 103.75H27.6953C25.625 103.75 23.9063 102.07 23.9063 99.9609C23.9063 97.8906 25.5859 96.1719 27.6953 96.1719H34.375C36.4453 96.1719 38.1641 97.8516 38.1641 99.9609C38.1641 102.031 36.4844 103.75 34.375 103.75ZM15.5859 103.75H8.86719C6.79688 103.75 5.07812 102.07 5.07812 99.9609C5.07812 97.8906 6.75781 96.1719 8.86719 96.1719H15.5859C17.6563 96.1719 19.375 97.8516 19.375 99.9609C19.3359 102.031 17.6563 103.75 15.5859 103.75V103.75ZM52.4609 103.75H44.4531C42.3828 103.75 40.6641 102.07 40.6641 99.9609C40.6641 97.8906 42.3438 96.1719 44.4531 96.1719H52.4609C54.5313 96.1719 56.25 97.8516 56.25 99.9609C56.2109 102.031 54.5313 103.75 52.4609 103.75ZM69.1797 103.75H62.4609C60.3906 103.75 58.6719 102.07 58.6719 99.9609C58.6719 97.8906 60.3516 96.1719 62.4609 96.1719H69.1797C71.25 96.1719 72.9688 97.8516 72.9688 99.9609C72.9688 102.031 71.2891 103.75 69.1797 103.75ZM97.3828 57.5C91.7188 57.5 87.1484 52.9297 87.1484 47.2656C87.1484 52.9297 82.5781 57.5 76.9141 57.5C82.5781 57.5 87.1484 62.0703 87.1484 67.7344C87.1484 62.0703 91.7188 57.5 97.3828 57.5ZM172.344 114.766C166.25 114.766 161.328 109.844 161.328 103.75C161.328 109.844 156.406 114.766 150.312 114.766C156.406 114.766 161.328 119.687 161.328 125.781C161.328 119.687 166.25 114.766 172.344 114.766ZM87.1484 137.148C79.3359 137.148 72.9688 130.82 72.9688 122.969C72.9688 130.781 66.6406 137.148 58.7891 137.148C66.6016 137.148 72.9688 143.477 72.9688 151.328C73.0078 143.477 79.3359 137.148 87.1484 137.148V137.148Z" fill="#E17107"/>
<path d="M109.727 179.18C70.938 179.18 38.1255 151.523 31.6411 113.32C31.2505 111.055 32.7739 108.867 35.0786 108.477C37.3833 108.125 39.5318 109.609 39.9224 111.914C45.7427 146.055 75.0786 170.781 109.727 170.781H110.001C128.907 170.703 146.68 163.281 160 149.844C173.321 136.406 180.625 118.594 180.547 99.6875C180.469 80.7813 173.047 63.0078 159.61 49.6875C146.25 36.4062 128.555 29.1406 109.727 29.1406H109.454C74.8443 29.2578 45.5474 54.1016 39.8443 88.2031C39.4536 90.5078 37.3052 92.0312 35.0005 91.6406C32.6958 91.25 31.1724 89.1016 31.563 86.7969C38.0083 48.6719 70.7427 20.8984 109.454 20.7422H109.766C130.821 20.7422 150.625 28.9063 165.586 43.75C180.586 58.6719 188.907 78.5156 188.985 99.6875C189.063 120.859 180.899 140.781 165.977 155.781C151.055 170.781 131.211 179.102 110.04 179.18H109.727V179.18Z" fill="#E17107"/>
</svg>
