<svg width="50" height="50" viewBox="0 0 50 50" fill="none" xmlns="http://www.w3.org/2000/svg">
<g clip-path="url(#clip0_5183_12689)">
<path d="M8.95417 47.9167H41.575C42.3667 47.9271 43.0479 47.3438 43.1792 46.5479L49.9792 3.9917C50.1208 3.10211 49.5271 2.2667 48.6563 2.12295L48.375 2.10211L1.62083 2.08336C0.739583 2.07295 0.00833333 2.78753 0 3.69795L0.01875 3.98336L6.82083 46.0584C6.98958 47.1188 7.89375 47.9063 8.95417 47.9167ZM32.7813 17.4792L30.2583 32.4896H19.8417L17.0292 17.4792H32.7813Z" fill="#2680F8"/>
<path d="M25 17.4791H17.0292L19.8417 32.4916H25V17.4791Z" fill="#DEDEDE"/>
<path d="M1.60208 2.08337C0.729167 2.08337 0.00833333 2.79379 0 3.69796L0.01875 3.98337L6.82083 46.0584C6.98958 47.1188 7.89375 47.9063 8.95417 47.9167H25V32.4917H19.8417L17.0292 17.4792H25V2.09379L1.62083 2.08337C1.61458 2.08337 1.60833 2.08337 1.60208 2.08337Z" fill="#216FD8"/>
</g>
<defs>
<clipPath id="clip0_5183_12689">
<rect width="50" height="50" fill="white"/>
</clipPath>
</defs>
</svg>
