<svg width="160" height="148" viewBox="0 0 160 148" fill="none" xmlns="http://www.w3.org/2000/svg">
<g filter="url(#filter0_d_2790_12505)">
<path d="M65.9379 86.6132C66.4809 86.9267 67.1254 87.1753 67.8348 87.345C68.5443 87.5146 69.3046 87.602 70.0725 87.602C70.8403 87.602 71.6007 87.5146 72.3101 87.345C73.0195 87.1753 73.664 86.9267 74.207 86.6132L98.0021 72.8763C98.5451 72.5628 98.9758 72.1907 99.2697 71.7812C99.5635 71.3717 99.7148 70.9327 99.7148 70.4894C99.7148 70.0461 99.5635 69.6072 99.2697 69.1977C98.9758 68.7881 98.5451 68.416 98.0021 68.1026L74.2067 54.3655C73.6638 54.052 73.0192 53.8034 72.3099 53.6337C71.6005 53.4641 70.8402 53.3768 70.0724 53.3767C69.3045 53.3767 68.5442 53.464 67.8348 53.6336C67.1254 53.8033 66.4809 54.0519 65.9379 54.3653L42.1426 68.1024C41.5996 68.4158 41.1688 68.7879 40.875 69.1975C40.5811 69.607 40.4298 70.046 40.4298 70.4893C40.4298 70.9325 40.5811 71.3715 40.875 71.781C41.1688 72.1906 41.5996 72.5627 42.1426 72.8761L65.9379 86.6132Z" fill="#876AB4"/>
<path d="M65.9379 80.0855C66.4809 80.3989 67.1254 80.6476 67.8348 80.8173C68.5443 80.9869 69.3046 81.0742 70.0725 81.0742C70.8403 81.0742 71.6007 80.9869 72.3101 80.8173C73.0195 80.6476 73.664 80.3989 74.207 80.0855L98.0021 66.3486C98.5451 66.0351 98.9758 65.663 99.2697 65.2535C99.5635 64.8439 99.7148 64.405 99.7148 63.9617C99.7148 63.5184 99.5635 63.0795 99.2697 62.6699C98.9758 62.2604 98.5451 61.8883 98.0021 61.5749L74.2067 47.8378C73.6638 47.5243 73.0192 47.2757 72.3099 47.106C71.6005 46.9364 70.8402 46.849 70.0724 46.849C69.3045 46.849 68.5442 46.9363 67.8348 47.1059C67.1254 47.2756 66.4809 47.5242 65.9379 47.8376L42.1426 61.5747C41.5996 61.8881 41.1688 62.2602 40.875 62.6698C40.5811 63.0793 40.4298 63.5183 40.4298 63.9615C40.4298 64.4048 40.5811 64.8438 40.875 65.2533C41.1688 65.6629 41.5996 66.035 42.1426 66.3484L65.9379 80.0855Z" fill="#6F5A90"/>
<path d="M65.9299 73.6345C66.4728 73.948 67.1174 74.1967 67.8268 74.3663C68.5362 74.536 69.2965 74.6233 70.0644 74.6233C70.8323 74.6233 71.5926 74.536 72.302 74.3663C73.0114 74.1967 73.656 73.948 74.1989 73.6345L97.994 59.8976C98.537 59.5842 98.9677 59.2121 99.2616 58.8026C99.5555 58.393 99.7067 57.9541 99.7067 57.5108C99.7067 57.0675 99.5555 56.6286 99.2616 56.219C98.9677 55.8095 98.537 55.4374 97.994 55.1239L74.1986 41.3869C73.6557 41.0734 73.0112 40.8247 72.3018 40.6551C71.5925 40.4854 70.8321 40.3981 70.0643 40.3981C69.2965 40.3981 68.5362 40.4854 67.8268 40.655C67.1174 40.8246 66.4728 41.0733 65.9299 41.3867L42.1345 55.1238C41.5915 55.4372 41.1608 55.8093 40.8669 56.2188C40.573 56.6284 40.4218 57.0673 40.4218 57.5106C40.4218 57.9539 40.573 58.3929 40.8669 58.8024C41.1608 59.2119 41.5915 59.584 42.1345 59.8975L65.9299 73.6345Z" fill="#563D7C"/>
<path d="M65.4796 58.0226L60.9392 55.4014L64.9361 53.094C65.3042 52.8803 65.7046 52.6859 66.1324 52.5132C66.5183 52.3541 66.9515 52.237 67.4104 52.1678C67.8491 52.1052 68.3087 52.1106 68.7426 52.1835C69.2627 52.281 69.7308 52.4539 70.1019 52.6858C70.9177 53.1568 71.2622 53.6382 71.1352 54.13C70.9667 54.6668 70.4992 55.1571 69.8039 55.5265L65.4796 58.0226ZM53.3527 55.9506L72.7675 67.1588L82.1754 61.7276C83.035 61.2332 83.7799 60.6765 84.3915 60.0715C84.9792 59.5004 85.3845 58.873 85.5882 58.2192C85.7783 57.5852 85.7037 56.9341 85.3706 56.32C84.9805 55.6362 84.3032 55.0187 83.3992 54.5227C82.3273 53.867 80.9318 53.4176 79.4023 53.2355C77.8509 53.0891 76.2599 53.2673 74.9158 53.7378C75.3547 53.0809 75.4814 52.3682 75.283 51.6736C75.0198 50.9838 74.3985 50.3568 73.5019 49.8762C72.7413 49.4086 71.8071 49.0464 70.7695 48.8167C69.8894 48.6352 68.9417 48.5919 68.0231 48.6911C67.0367 48.8075 66.0992 49.0341 65.2635 49.3583C64.2613 49.7404 63.3317 50.1824 62.49 50.677L53.3527 55.9506ZM73.7195 62.7788L68.3895 59.7018L73.0384 57.018C73.7927 56.5374 74.8014 56.2145 75.907 56.0997C76.895 56.0212 77.8875 56.2698 78.8847 56.8455C79.3326 57.0855 79.6727 57.3847 79.8759 57.7175C80.0289 57.991 80.0573 58.2827 79.9584 58.5645C79.8487 58.8557 79.6459 59.1325 79.3604 59.3807C79.0498 59.6556 78.6898 59.9107 78.2864 60.142L73.7186 62.779L73.7195 62.7788Z" fill="white"/>
</g>
<defs>
<filter id="filter0_d_2790_12505" x="0.421753" y="0.398071" width="159.293" height="147.204" filterUnits="userSpaceOnUse" color-interpolation-filters="sRGB">
<feFlood flood-opacity="0" result="BackgroundImageFix"/>
<feColorMatrix in="SourceAlpha" type="matrix" values="0 0 0 0 0 0 0 0 0 0 0 0 0 0 0 0 0 0 127 0" result="hardAlpha"/>
<feOffset dx="10" dy="10"/>
<feGaussianBlur stdDeviation="25"/>
<feComposite in2="hardAlpha" operator="out"/>
<feColorMatrix type="matrix" values="0 0 0 0 0 0 0 0 0 0 0 0 0 0 0 0 0 0 0.25 0"/>
<feBlend mode="normal" in2="BackgroundImageFix" result="effect1_dropShadow_2790_12505"/>
<feBlend mode="normal" in="SourceGraphic" in2="effect1_dropShadow_2790_12505" result="shape"/>
</filter>
</defs>
</svg>
