<svg width="164" height="106" viewBox="0 0 164 106" fill="none" xmlns="http://www.w3.org/2000/svg">
<path d="M163.608 71.4394C163.608 88.8254 149.266 102.971 131.633 102.971H35.0051C26.5556 103.013 18.4342 99.6902 12.4209 93.7312C6.40262 87.8908 3.0119 79.8426 3.02943 71.4394C3.02943 58.2242 11.3322 46.5111 23.8276 41.9217C29.9542 17.6306 51.5198 0.462614 76.4762 0.00918632C101.433 -0.444241 123.603 15.9291 130.601 39.9818C131.238 39.9402 131.604 39.9402 131.633 39.9402C132.11 39.9402 132.588 39.9402 133.059 39.9722C140.999 40.2828 148.538 43.5518 154.207 49.1413C160.217 54.991 163.609 63.036 163.608 71.4394Z" fill="#F4F9FF"/>
<path d="M21.2075 39.3714C21.0473 40.0009 20.8946 40.6305 20.7573 41.277C19.8872 41.6343 19.0325 42.0001 18.1777 42.4C19.1546 41.3507 20.1645 40.3412 21.2075 39.3714Z" fill="#607D8B"/>
<path d="M99.9824 46.3183C102.193 44.0249 104.842 42.0619 107.82 40.511C110.841 38.9387 114.139 37.7862 117.59 37.0972C124.609 35.7297 131.954 36.2297 138.625 38.5291C145.294 40.7947 151.018 44.6888 155.069 49.7166C157.057 52.2033 158.558 54.9456 159.515 57.8377C160.447 60.6966 160.77 63.6735 160.469 66.6285C159.898 60.8828 157.379 55.3992 153.215 50.8382C149.133 46.3687 143.719 42.9016 137.53 40.7936C131.355 38.6731 124.608 38.0434 118.036 38.9746C111.338 39.9743 105.092 42.5147 99.9824 46.3183V46.3183Z" fill="#7BB2FF"/>
<path fill-rule="evenodd" clip-rule="evenodd" d="M39.3903 21.2001C38.9057 21.59 38.4275 21.9873 37.9557 22.392C38.4232 21.9947 38.9131 21.591 39.3903 21.2001ZM22.2573 44.69C22.5007 44.0542 22.759 43.4185 23.0322 42.7828C22.759 43.4079 22.5007 44.0436 22.2573 44.69ZM18.1797 51.4858C18.5447 51.3237 18.913 51.168 19.2877 51.0154C18.9162 51.1648 18.5447 51.3237 18.1797 51.4858Z" fill="#55717C"/>
<path d="M151.49 97.2397C145.475 102.883 137.524 106.017 129.266 106H32.1405C26.2186 106.02 20.4053 104.415 15.3375 101.36C15.0708 101.198 14.8084 101.034 14.5503 100.868C14.2911 100.702 14.0319 100.53 13.7759 100.354C13.5199 100.179 13.2831 100.01 13.0431 99.8342L13.0175 99.8151C12.7647 99.6332 12.5183 99.4449 12.2719 99.2534C12.0255 99.0619 11.8079 98.8864 11.5775 98.6981L11.4719 98.6119C11.3087 98.4747 11.1519 98.3407 10.9887 98.1971L10.7071 97.9545C10.5759 97.8396 10.4511 97.7279 10.3232 97.6067C10.0256 97.3386 9.73116 97.0578 9.43996 96.7737C3.39063 90.9418 -0.0175496 82.9052 6.79639e-05 74.5143C6.79639e-05 74.2685 6.79639e-05 74.0228 6.79639e-05 73.7803C6.79639e-05 73.6175 6.79639e-05 73.4611 6.79639e-05 73.2824C6.79639e-05 72.8707 0.0384675 72.4686 0.0736671 72.0601C0.0736671 71.8591 0.105667 71.6548 0.128067 71.4538C0.150466 71.2527 0.160066 71.1346 0.182466 70.9527C0.204866 70.7708 0.227265 70.5634 0.256065 70.3687C0.332864 69.7858 0.427796 69.2071 0.540862 68.6326C0.566462 68.4922 0.595261 68.3582 0.624061 68.2178C0.67846 67.9593 0.73606 67.704 0.790459 67.4487C0.835258 67.2731 0.876858 67.0976 0.921657 66.9253C0.966457 66.753 1.01766 66.5519 1.06886 66.3668C1.10406 66.2328 1.13926 66.1051 1.17765 65.9775C1.21605 65.8498 1.24805 65.7349 1.28645 65.6105C1.32485 65.486 1.36965 65.336 1.41445 65.1956C1.45925 65.0552 1.49445 64.9435 1.53925 64.819C1.73338 64.2297 1.94671 63.6478 2.17924 63.0734C2.24964 62.8946 2.32324 62.7159 2.39684 62.5404C2.47044 62.3649 2.54404 62.1862 2.62404 62.0107C2.70404 61.8351 2.77764 61.6596 2.86084 61.4873C2.94403 61.3149 3.02083 61.1394 3.10723 60.9703C3.19363 60.8011 3.27363 60.6256 3.36323 60.4565C3.45283 60.2873 3.53603 60.115 3.62883 59.9491C3.72163 59.7831 3.80802 59.6108 3.90402 59.4448C4.08962 59.1257 4.28162 58.7778 4.48002 58.4491C4.67841 58.1204 4.86401 57.8332 5.05921 57.53C5.70219 56.5522 6.3987 55.6104 7.14559 54.7089C7.25119 54.5781 7.35678 54.4536 7.46558 54.326C7.86878 53.8685 8.28371 53.4228 8.71037 52.9888C8.81597 52.8771 8.91837 52.7718 9.03037 52.6697C9.41009 52.2824 9.80156 51.9059 10.2048 51.5399L10.5087 51.2655C10.993 50.84 11.4911 50.4219 12.0031 50.0113L12.3231 49.7655C12.5919 49.5613 12.8671 49.3571 13.1423 49.1592C13.2703 49.0666 13.3983 48.9773 13.5263 48.8911C13.8111 48.6901 14.1023 48.4954 14.3935 48.3039C14.5407 48.205 14.6943 48.1124 14.8479 48.0167L15.2479 47.771L15.5679 47.5859C15.7311 47.4869 15.8879 47.3912 16.0639 47.2987L16.1215 47.2667C16.2783 47.1742 16.4415 47.088 16.6015 47.0019C16.7615 46.9157 16.9503 46.8136 17.1263 46.7242L17.6575 46.453L18.1951 46.1945L18.7423 45.9423C19.1071 45.7796 19.475 45.6232 19.8494 45.47C20.2238 45.3168 20.5694 45.1828 20.931 45.0488C20.9918 44.8094 21.0558 44.5733 21.1198 44.3339C21.2158 43.9829 21.3118 43.6286 21.4142 43.284C21.5166 42.9393 21.619 42.5851 21.7342 42.2372C21.8494 41.8894 21.9518 41.5447 22.0542 41.2C22.1566 40.8554 22.2846 40.5171 22.4062 40.182C22.4076 40.1757 22.4076 40.1692 22.4062 40.1629C22.5246 39.8437 22.6398 39.5246 22.7646 39.2055C22.7646 39.1831 22.7646 39.1576 22.7902 39.1321C23.0377 38.4938 23.2958 37.8555 23.5646 37.2173L23.6318 37.0609C23.7502 36.7864 23.8686 36.512 23.9934 36.2407L24.0798 36.0492C24.195 35.7971 24.3102 35.545 24.4286 35.2929L24.5438 35.0535C24.675 34.7823 24.803 34.5142 24.9374 34.2461L25.0046 34.1089C25.155 33.8089 25.3086 33.5089 25.4622 33.2122C25.6158 32.9154 25.7822 32.6154 25.9358 32.3186L26.067 32.0824C26.1822 31.8782 26.291 31.6739 26.4126 31.4729C26.4926 31.3261 26.5726 31.1793 26.6622 31.0357C26.7518 30.8921 26.8766 30.6623 26.9822 30.4772C27.0302 30.3974 27.0782 30.3176 27.1262 30.2378C27.2766 29.9793 27.4462 29.724 27.5966 29.4687C27.747 29.2134 27.9166 28.9581 28.0829 28.7028C28.2109 28.5081 28.3357 28.3103 28.4669 28.1188L28.6813 27.7997C28.7965 27.6305 28.9117 27.4614 29.0301 27.2954C29.1485 27.1295 29.2573 26.9763 29.3757 26.804C29.4941 26.6316 29.5325 26.5806 29.6157 26.4657C29.7469 26.2806 29.8813 26.0891 30.0221 25.9072L30.1917 25.6774C30.3485 25.4636 30.5117 25.2498 30.6717 25.0392C30.9853 24.6328 31.3053 24.2286 31.6317 23.8265C31.7757 23.6478 31.9229 23.469 32.0701 23.2903C32.3986 22.8967 32.7346 22.5053 33.0781 22.1159C33.2189 21.9532 33.3629 21.7968 33.5101 21.6308L33.6413 21.4872C33.8461 21.2607 34.0541 21.0341 34.2621 20.8107L34.3325 20.7373C34.5629 20.4915 34.7965 20.249 35.0365 20.0065C36.1341 18.8831 37.2764 17.8013 38.4796 16.7705C38.9511 16.3641 39.429 15.9652 39.9132 15.5737C40.214 15.3312 40.518 15.095 40.822 14.8589C40.8584 14.8265 40.8968 14.7967 40.9372 14.7695C41.2572 14.5238 41.5772 14.2844 41.8972 14.0483C42.2172 13.8121 42.5596 13.5696 42.8956 13.3334H42.9148C43.2572 13.0941 43.6028 12.8611 43.9452 12.6281C44.2876 12.3952 44.6428 12.1718 44.9916 11.9484C45.6934 11.5037 46.4059 11.0782 47.1291 10.6718C47.4907 10.4676 47.8523 10.2634 48.2171 10.0655C48.5819 9.86763 48.9467 9.67296 49.3179 9.48467C49.5099 9.38255 49.7083 9.28681 49.9035 9.19107C52.3068 7.96918 54.7954 6.92184 57.3498 6.05719C56.3642 6.76247 30.8861 18.5767 31.9165 43.2584C22.3569 46.7123 14.5961 53.862 10.3872 63.0925C8.73651 73.1169 12.108 83.3126 19.4142 90.3911C25.4567 96.3403 33.6175 99.658 42.1084 99.6172H139.237C143.437 99.6232 147.598 98.8157 151.49 97.2397Z" fill="#7BB2FF"/>
</svg>
