<svg width="64" height="64" viewBox="0 0 64 64" fill="none" xmlns="http://www.w3.org/2000/svg">
<path d="M46.46 25.028C44.8837 23.5114 43.3275 21.9739 41.792 20.416C41.463 20.079 41.288 19.677 41.288 19.249C41.288 18.832 41.462 18.423 41.774 18.099C42.423 17.427 43.46 17.397 44.187 18.032C44.311 18.141 44.432 18.253 44.6 18.409C44.697 18.5 44.809 18.605 44.946 18.729L46.2 19.885L46.201 14.501C46.201 12.885 46.201 15.758 46.2 14.142C46.196 10.626 43.818 8.261 40.283 8.257C40.184 8.257 38.082 8.265 37.869 8.276C37.6507 8.28754 37.4325 8.25453 37.2274 8.17899C37.0224 8.10345 36.8348 7.98696 36.6763 7.83661C36.5177 7.68626 36.3914 7.50521 36.305 7.30447C36.2187 7.10374 36.1741 6.88752 36.174 6.669C36.174 5.765 36.919 5.034 37.823 5.06C38.018 5.066 40.139 5.073 40.334 5.081C40.898 5.104 41.46 5.138 42.017 5.187C45.479 5.488 48.821 8.728 49.313 12.262C49.404 12.922 49.452 13.587 49.455 14.241C49.461 16.062 49.462 13.529 49.462 16.096L49.461 19.752L50.701 18.67C50.821 18.565 50.924 18.476 51.014 18.395C51.174 18.254 51.298 18.145 51.424 18.04C52.215 17.383 53.234 17.422 53.901 18.136C54.203 18.459 54.365 18.845 54.365 19.248C54.365 19.701 54.166 20.14 53.792 20.517C52.2674 22.0526 50.7263 23.5717 49.169 25.074C48.511 25.709 47.144 25.687 46.46 25.028V25.028ZM17.219 39C18.7953 40.5166 20.3514 42.0541 21.887 43.612C22.216 43.949 22.391 44.351 22.391 44.779C22.391 45.196 22.217 45.605 21.905 45.929C21.256 46.601 20.219 46.631 19.492 45.996C19.3526 45.8722 19.2149 45.7465 19.079 45.619C18.9646 45.5113 18.8493 45.4046 18.733 45.299L17.479 44.143L17.478 49.527C17.478 51.143 17.478 48.27 17.479 49.886C17.483 53.402 19.861 55.767 23.396 55.771C23.495 55.771 25.597 55.763 25.81 55.752C26.0282 55.7405 26.2465 55.7735 26.4515 55.849C26.6566 55.9246 26.8441 56.041 27.0027 56.1914C27.1613 56.3417 27.2876 56.5228 27.3739 56.7235C27.4603 56.9243 27.5049 57.1405 27.505 57.359C27.505 58.263 26.76 58.994 25.856 58.968C25.661 58.962 23.54 58.955 23.345 58.947C22.7832 58.9248 22.2221 58.8895 21.662 58.841C18.2 58.54 14.858 55.3 14.366 51.766C14.2751 51.1102 14.2277 50.4491 14.224 49.787C14.218 47.966 14.217 50.499 14.217 47.932L14.218 44.276L12.978 45.358C12.858 45.463 12.755 45.552 12.665 45.633C12.505 45.774 12.381 45.883 12.255 45.988C11.464 46.645 10.445 46.606 9.77796 45.892C9.47596 45.569 9.31396 45.183 9.31396 44.78C9.31396 44.327 9.51296 43.888 9.88696 43.511C11.4115 41.9754 12.9526 40.4563 14.51 38.954C15.168 38.319 16.535 38.342 17.219 39Z" fill="#418DFE"/>
<path d="M10.5109 13.925C10.9819 14.896 11.6769 15.792 12.6349 16.659C13.5859 17.52 14.7959 17.996 16.1459 17.996C16.1509 17.996 16.1549 17.996 16.1599 17.994L16.3429 17.999C17.6118 17.9936 18.8332 17.5159 19.7689 16.659C20.7269 15.792 21.4219 14.896 21.8939 13.922C22.8759 11.877 23.3829 9.798 23.3999 7.729L23.4039 7.495C23.4099 7.255 23.4129 7.016 23.3889 6.771C23.1459 4.352 21.7729 2.611 19.4139 1.735C18.4369 1.376 17.3599 1.188 16.1919 1.177C15.0449 1.188 13.9679 1.376 12.9869 1.736C10.6319 2.611 9.25794 4.352 9.01494 6.772C8.995 7.01279 8.98999 7.25459 8.99994 7.496L9.00394 7.739C9.02094 9.798 9.52794 11.878 10.5109 13.925ZM16.3419 16.83L16.3429 16.841L16.3419 16.83ZM29.6169 23.115C29.0639 22.7051 28.4479 22.388 27.7929 22.176L22.9519 20.34C21.9299 19.952 20.8939 19.844 19.9349 20.536L19.7359 20.697C19.4529 20.956 19.2659 21.256 19.1159 21.498C19.0649 21.578 19.0159 21.659 18.9609 21.736L16.2019 25.61L15.8229 25.078C14.8749 23.748 13.9279 22.418 12.9859 21.084C12.9175 20.987 12.8454 20.8926 12.7699 20.801C12.4179 20.386 12.0269 20.116 11.5729 19.976L11.1639 19.904L9.62894 20.288L4.65294 22.162C3.92294 22.408 3.29594 22.729 2.78894 23.116C1.07794 24.422 1.17194 26.04 1.18294 26.115L1.18994 30.01C1.24194 30.467 1.34694 30.886 1.50094 31.258C2.12094 32.755 3.43194 33.286 4.37294 33.286H28.0359C28.9659 33.286 30.2739 32.758 30.8959 31.273C31.0549 30.893 31.1619 30.466 31.2209 29.878L31.2159 26.217C31.2319 26.039 31.3269 24.421 29.6169 23.115V23.115ZM42.1109 43.46C42.5819 44.431 43.2769 45.327 44.2349 46.194C45.1859 47.055 46.3959 47.531 47.7459 47.531C47.7509 47.531 47.7549 47.531 47.7599 47.529L47.9429 47.534C49.2118 47.5286 50.4332 47.0509 51.3689 46.194C52.3269 45.327 53.0219 44.431 53.4939 43.457C54.4759 41.412 54.9829 39.333 54.9999 37.264L55.0039 37.03C55.0099 36.79 55.0129 36.551 54.9889 36.306C54.7459 33.887 53.3729 32.146 51.0139 31.27C50.0369 30.911 48.9599 30.723 47.7919 30.712C46.6449 30.723 45.5679 30.911 44.5869 31.271C42.2319 32.146 40.8579 33.887 40.6149 36.307C40.5919 36.55 40.5949 36.789 40.6009 37.029L40.6049 37.272C40.6199 39.333 41.1269 41.413 42.1109 43.46V43.46ZM47.9409 46.365L47.9419 46.376L47.9409 46.365ZM61.2159 52.65C60.6629 52.2401 60.0469 51.923 59.3919 51.711L54.5509 49.875C53.5289 49.487 52.4929 49.379 51.5339 50.071L51.3349 50.232C51.0519 50.491 50.8649 50.791 50.7149 51.033C50.6639 51.113 50.6149 51.194 50.5599 51.271L47.7999 55.144L47.4209 54.612C46.4729 53.282 45.5259 51.952 44.5839 50.618C44.5155 50.521 44.4434 50.4266 44.3679 50.335C44.0159 49.92 43.6249 49.65 43.1709 49.51L42.7619 49.438L41.2269 49.822L36.2509 51.696C35.5209 51.942 34.8939 52.263 34.3869 52.65C32.6759 53.956 32.7699 55.574 32.7809 55.649L32.7889 59.545C32.8409 60.002 32.9459 60.421 33.0999 60.793C33.7199 62.29 35.0309 62.821 35.9719 62.821H59.6349C60.5649 62.821 61.8729 62.293 62.4949 60.808C62.6539 60.428 62.7609 60.001 62.8199 59.413L62.8149 55.752C62.8319 55.574 62.9259 53.956 61.2159 52.65V52.65Z" fill="#418DFE"/>
</svg>
