<svg width="91" height="91" viewBox="0 0 91 91" fill="none" xmlns="http://www.w3.org/2000/svg">
<path d="M89.9545 21.5399V69.9019H9.56885V21.5399C9.56885 20.2999 10.6421 19.2892 11.9411 19.2892H87.5927C88.3221 19.2892 88.975 19.5983 89.4022 20.0915C89.7461 20.484 89.9545 20.9876 89.9545 21.5399V21.5399Z" fill="#97CEFF"/>
<path d="M24.9591 19.2888H41.2557V23.2518H24.9591V19.2888ZM22.2291 65.935C21.9234 67.1402 21.3746 68.5643 20.7078 69.898H15.4423C15.5916 69.5924 15.7688 69.2728 15.9667 68.9324C16.5711 67.9113 17.3213 66.8624 18.0924 65.935H22.2291Z" fill="#BFE0FF"/>
<path d="M89.958 69.8981V75.3407C89.958 76.5807 88.9022 77.581 87.5962 77.581H11.9447C10.6352 77.581 9.57935 76.5807 9.57935 75.3407V69.8981H89.958Z" fill="white"/>
<path d="M23.2606 70.9088V74.1772C23.2606 74.4238 23.0592 74.6252 22.8126 74.6252H21.458V77.581H11.9447C10.6352 77.581 9.57935 76.5807 9.57935 75.3407V69.8981H10.4199L10.6283 70.4607H10.6526V69.8981H15.338V70.103C15.3693 70.037 15.404 69.9675 15.4422 69.8981H20.7077C20.614 70.0891 20.5202 70.2767 20.4195 70.4607H22.8126C23.0592 70.4607 23.2606 70.6622 23.2606 70.9088V70.9088Z" fill="#F0F2F2"/>
<path d="M9.57544 69.8994H89.959V71.3478H9.57544V69.8994Z" fill="#F0F2F2"/>
<path d="M13.3752 23.2537H85.8279V65.9351H13.3752V23.2537ZM60.1531 85.6974C60.0454 85.687 59.9329 85.6821 59.8252 85.6821H39.3856C39.2779 85.6821 39.1651 85.6873 39.0577 85.6974L41.4706 77.5824H57.745L60.1531 85.6974Z" fill="white"/>
<path d="M58.2077 79.4198H41.0032L41.4679 77.5824H57.7427L58.2077 79.4198Z" fill="#F0F2F2"/>
<path d="M64.0627 90.083H35.1455C35.1455 88.8649 35.6203 87.7684 36.3889 86.9716C37.0791 86.2506 38.019 85.7786 39.0564 85.6973C39.1641 85.6869 39.2766 85.682 39.3843 85.682H59.8239C59.9315 85.682 60.0444 85.6872 60.1518 85.6973C62.3399 85.8699 64.0627 87.7632 64.0627 90.083V90.083Z" fill="white"/>
<path d="M64.0627 90.0831H63.6761C63.0495 88.667 61.7231 87.6622 60.1518 87.5351C60.0441 87.5247 59.9319 87.5198 59.8239 87.5198H39.3843C39.2766 87.5198 39.1641 87.5247 39.0564 87.5351C38.0186 87.6164 37.0791 88.0933 36.3889 88.8091C36.0335 89.1814 35.7452 89.6124 35.537 90.0831H35.1455C35.1455 88.865 35.6207 87.7685 36.3889 86.9714C37.0791 86.2507 38.019 85.7787 39.0564 85.6974C39.1641 85.687 39.2766 85.6821 39.3843 85.6821H59.8239C59.9316 85.6821 60.0444 85.6873 60.1518 85.6974C62.3399 85.87 64.0627 87.7633 64.0627 90.0831ZM16.884 29.094H22.4878V62.6834H16.884V29.094Z" fill="#F0F2F2"/>
<path d="M18.1796 27.8002H23.7802V33.3981H18.1796V27.8002ZM18.1796 33.3984H23.7802V38.9963H18.1796V33.3984ZM18.1796 38.9963H23.7802V44.5942H18.1796V38.9963ZM18.1796 44.5945H23.7802V50.1924H18.1796V44.5945ZM18.1796 50.1924H23.7802V55.7903H18.1796V50.1924ZM82.1946 29.6636V60.8682C82.1946 61.285 81.7865 61.6227 81.2825 61.6227H69.829C69.325 61.6227 68.9173 61.285 68.9173 60.8682V29.6636C68.9173 29.2468 69.325 28.9092 69.829 28.9092H81.2825C81.7868 28.9092 82.1946 29.2464 82.1946 29.6636Z" fill="white"/>
<path d="M71.6538 47.8497H74.3522V50.5443H71.6538V47.8497Z" fill="#CDECFF"/>
<path d="M76.4362 47.8497H79.1345V50.5443H76.4362V47.8497Z" fill="#FE8E00"/>
<path d="M71.6538 52.0544H74.3522V54.749H71.6538V52.0544Z" fill="#98CB61"/>
<path d="M76.4362 52.0544H79.1345V54.749H76.4362V52.0544Z" fill="#EC5352"/>
<path d="M71.6538 56.2592H74.3522V58.9537H71.6538V56.2592Z" fill="#9FA3A6"/>
<path d="M76.4362 56.2592H79.1345V58.9537H76.4362V56.2592Z" fill="#FE8E00"/>
<path d="M15.338 65.935V69.898H10.6526V57.5331C10.6526 57.2205 10.9061 56.9705 11.2153 56.9705H13.5354V65.935H15.338Z" fill="#BFE0FF"/>
<path d="M13.5354 23.2518H85.9881V65.935H13.5354V23.2518Z" fill="white"/>
<path d="M41.2557 23.2518V26.1868C41.2557 26.6661 40.8632 27.0551 40.3839 27.0551H25.8308C25.348 27.0551 24.959 26.6661 24.959 26.1868V23.2518H41.2557ZM23.9865 63.5697C23.8315 63.8331 23.6136 64.0541 23.3524 64.2129C23.0912 64.3717 22.7948 64.4633 22.4895 64.4797C22.4583 64.9034 22.368 65.3966 22.229 65.935H18.0923C18.9989 64.8513 19.9367 63.9344 20.7147 63.4308C20.4542 62.8889 20.4611 62.236 20.7876 61.6802C21.3086 60.798 24.1428 59.6518 24.1428 59.6518C24.1428 59.6518 24.5075 62.6875 23.9865 63.5697ZM15.338 57.5331V65.935H13.5354V56.9705H14.7754C15.088 56.9705 15.338 57.2205 15.338 57.5331ZM61.4667 40.183C61.2743 41.3421 61.2229 42.1611 62.2003 43.1301L59.8811 45.4496C58.9121 44.4718 58.0931 44.5233 56.9341 44.7153L55.0456 38.2946L61.4667 40.183ZM80.9702 30.8878V62.0925C80.9702 62.5093 80.5621 62.8469 80.0581 62.8469H68.6043C68.1003 62.8469 67.6922 62.5096 67.6922 62.0925V30.8878C67.6922 30.471 68.1003 30.1334 68.6043 30.1334H80.0578C80.5618 30.1334 80.9702 30.471 80.9702 30.8878ZM58.2699 61.6222L44.8873 34.1885L31.502 61.6222H58.2699Z" fill="#BFE0FF"/>
<path d="M60.3149 85.6974C60.2072 85.687 60.0947 85.6821 59.987 85.6821H39.5475C39.4398 85.6821 39.3269 85.6873 39.2192 85.6974L41.6321 77.5824H57.9065L60.3149 85.6974V85.6974Z" fill="white"/>
<path d="M58.3693 79.4198H41.165L41.6298 77.5824H57.9042L58.3693 79.4198Z" fill="#F0F2F2"/>
<path d="M64.2244 90.083H35.3073C35.3073 88.8649 35.782 87.7684 36.5507 86.9716C37.2408 86.2506 38.1804 85.7786 39.2182 85.6973C39.3258 85.6869 39.438 85.682 39.546 85.682H59.9856C60.0933 85.682 60.2058 85.6872 60.3135 85.6973C62.5017 85.8699 64.2244 87.7632 64.2244 90.083V90.083Z" fill="white"/>
<path d="M64.2244 90.0831H63.8375C63.2109 88.667 61.8845 87.6622 60.3135 87.5351C60.2058 87.5247 60.0933 87.5198 59.9856 87.5198H39.546C39.4384 87.5198 39.3255 87.5247 39.2182 87.5351C38.1804 87.6164 37.2408 88.0933 36.5507 88.8091C36.1952 89.1814 35.907 89.6124 35.6987 90.0831H35.3073C35.3073 88.865 35.7821 87.7685 36.5507 86.9714C37.2408 86.2507 38.1804 85.7787 39.2182 85.6974C39.3258 85.687 39.438 85.6821 39.546 85.6821H59.9856C60.0933 85.6821 60.2058 85.6873 60.3135 85.6974C62.5017 85.87 64.2244 87.7633 64.2244 90.0831V90.0831ZM17.0458 29.094H22.6496V57.1942H17.0458V29.094Z" fill="#BFE0FF"/>
<path d="M18.3411 27.8002H23.9417V33.3981H18.3411V27.8002ZM18.3411 33.3984H23.9417V38.9963H18.3411V33.3984ZM18.3411 38.9963H23.9417V44.5942H18.3411V38.9963ZM18.3411 44.5945H23.9417V50.1924H18.3411V44.5945ZM18.3411 50.1924H23.9417V55.7903H18.3411V50.1924ZM82.1946 29.6636V60.8682C82.1946 61.285 81.7865 61.6227 81.2825 61.6227H69.829C69.325 61.6227 68.9173 61.285 68.9173 60.8682V29.6636C68.9173 29.2468 69.325 28.9092 69.829 28.9092H81.2825C81.7868 28.9092 82.1946 29.2464 82.1946 29.6636Z" fill="white"/>
<path d="M71.8153 47.8497H74.5137V50.5443H71.8153V47.8497Z" fill="#CDECFF"/>
<path d="M76.5977 47.8497H79.296V50.5443H76.5977V47.8497Z" fill="#FE8E00"/>
<path d="M71.8153 52.0544H74.5137V54.749H71.8153V52.0544Z" fill="#98CB61"/>
<path d="M76.5977 52.0544H79.296V54.749H76.5977V52.0544Z" fill="#EC5352"/>
<path d="M71.8153 56.2592H74.5137V58.9537H71.8153V56.2592Z" fill="#9FA3A6"/>
<path d="M76.5977 56.2592H79.296V58.9537H76.5977V56.2592Z" fill="#FE8E00"/>
<path d="M60.3952 60.398L47.013 32.9642L33.6273 60.398H60.3952Z" fill="#CDECFF"/>
<path d="M57.6662 32.9642C57.6662 33.8218 56.9674 34.5203 56.1102 34.5203C55.6977 34.5197 55.3022 34.3556 55.0104 34.0639C54.7187 33.7722 54.5545 33.3768 54.5538 32.9642C54.5538 32.1063 55.2523 31.4082 56.1099 31.4082C56.5223 31.4089 56.9177 31.5731 57.2093 31.8648C57.501 32.1564 57.6652 32.5518 57.6659 32.9642H57.6662Z" fill="#9FA3A6"/>
<path d="M48.5676 32.9642C48.5676 33.8218 47.8688 34.5203 47.0116 34.5203C46.599 34.5197 46.2035 34.3556 45.9118 34.0639C45.62 33.7722 45.4558 33.3768 45.4552 32.9642C45.4552 32.1063 46.1537 31.4082 47.0112 31.4082C47.4237 31.4088 47.8191 31.573 48.1108 31.8647C48.4025 32.1563 48.5666 32.5517 48.5673 32.9642H48.5676Z" fill="white"/>
<path d="M39.4679 32.9642C39.4679 33.8218 38.7694 34.5203 37.9119 34.5203C37.4994 34.5196 37.104 34.3555 36.8123 34.0638C36.5206 33.7721 36.3565 33.3767 36.3558 32.9642C36.3558 32.1063 37.054 31.4082 37.9119 31.4082C38.3243 31.4089 38.7197 31.5731 39.0113 31.8648C39.303 32.1564 39.4672 32.5518 39.4679 32.9642V32.9642Z" fill="#9FA3A6"/>
<path d="M62.1749 39.475C61.9828 40.6336 61.931 41.4526 62.9088 42.4217L60.5897 44.7411C59.6206 43.7634 58.8016 43.8148 57.6426 44.0069L55.7542 37.5862L62.1749 39.475V39.475Z" fill="white"/>
<path d="M60.2229 42.7359C60.5989 42.7359 60.9036 42.4311 60.9036 42.0552C60.9036 41.6792 60.5989 41.3744 60.2229 41.3744C59.8469 41.3744 59.5421 41.6792 59.5421 42.0552C59.5421 42.4311 59.8469 42.7359 60.2229 42.7359Z" fill="#CDECFF"/>
<path d="M18.2705 72.9789C16.4248 76.1017 14.8466 76.7332 13.7434 76.0812C12.6414 75.43 12.433 73.7427 14.2787 70.6198C15.5898 68.4015 17.5852 66.0546 19.0256 65.1182C19.1839 65.4492 19.4374 65.7256 19.7536 65.9118C20.0697 66.0993 20.4346 66.1883 20.8015 66.1674C20.6754 67.8808 19.5817 70.7605 18.2705 72.9792V72.9789Z" fill="#FE8E00"/>
<path d="M22.2981 65.2578C22.1429 65.5212 21.9251 65.7421 21.6639 65.9008C21.4027 66.0596 21.1063 66.1513 20.8011 66.1678C20.4342 66.1885 20.0695 66.0994 19.7535 65.9118C19.5436 65.7877 19.3602 65.6234 19.2138 65.4284C19.0673 65.2334 18.9607 65.0114 18.9001 64.7752C18.8395 64.5389 18.826 64.2931 18.8604 64.0516C18.8948 63.8102 18.9764 63.5779 19.1006 63.368C19.6216 62.4868 22.4558 61.3396 22.4558 61.3396C22.4558 61.3396 22.8187 64.3763 22.2981 65.2575V65.2578Z" fill="white"/>
<path d="M4.74619 60.771L9.606 73.9622L6.32722 75.1702L1.46741 61.9787C1.88837 63.1214 5.16715 61.9137 4.74619 60.771V60.771Z" fill="#ACE5FB"/>
<path d="M4.74619 60.7709C5.16715 61.9136 1.88837 63.1216 1.46741 61.9789L2.10719 58.6585L4.74619 60.7709ZM13.651 59.2205V76.1593C13.651 76.4705 13.3985 76.7227 13.0873 76.7227H9.5289C9.45491 76.7227 9.38166 76.7081 9.3133 76.6798C9.24495 76.6515 9.18285 76.61 9.13054 76.5577C9.07822 76.5053 9.03673 76.4432 9.00841 76.3749C8.9801 76.3065 8.96553 76.2333 8.96553 76.1593V59.2201C8.96553 58.9092 9.21769 58.6567 9.5289 58.6567H13.0873C13.3985 58.6567 13.651 58.9092 13.651 59.2205V59.2205Z" fill="white"/>
<path d="M21.5729 72.5961V75.8655C21.5729 76.1128 21.3718 76.3118 21.1265 76.3118H1.48965C1.37131 76.3117 1.25784 76.2647 1.17416 76.181C1.09048 76.0973 1.04343 75.9839 1.04333 75.8655V72.5965C1.04333 72.3488 1.24444 72.1481 1.48965 72.1481H21.1265C21.2451 72.1485 21.3586 72.1959 21.4422 72.2799C21.5259 72.3639 21.5729 72.4776 21.5729 72.5961V72.5961Z" fill="white"/>
<path d="M19.7699 76.3119V89.6368C19.7694 89.7553 19.722 89.8688 19.638 89.9525C19.5541 90.0361 19.4404 90.0831 19.3218 90.0831H3.29437C3.17584 90.0831 3.06213 90.0361 2.97816 89.9525C2.89418 89.8688 2.84677 89.7553 2.84631 89.6368V76.3119H19.7699V76.3119Z" fill="white"/>
<path d="M2.84631 76.3119H19.7702V77.8905H2.84631V76.3119Z" fill="#F0F2F2"/>
<path d="M42.9906 9.89647V24.4488C42.9906 24.68 42.8988 24.9017 42.7353 25.0652C42.5719 25.2286 42.3503 25.3205 42.1191 25.3206H27.5668C27.3356 25.3205 27.114 25.2286 26.9505 25.0652C26.7871 24.9017 26.6953 24.68 26.6953 24.4488V9.89647C26.6954 9.66532 26.7873 9.44366 26.9508 9.28024C27.1143 9.11683 27.336 9.02502 27.5671 9.02502H42.1191C42.3503 9.02502 42.5721 9.11687 42.7356 9.28037C42.8991 9.44386 42.9909 9.6656 42.9909 9.89682L42.9906 9.89647Z" fill="#CDECFF"/>
<path d="M38.7688 15.2863H37.9206L37.5723 13.3493H35.2236C35.1962 14.6379 35.1962 15.9563 35.1962 17.2845V18.0403C35.1962 19.3428 35.1962 20.6553 35.224 21.9595L36.787 22.1263V22.7313H32.246V22.1263L33.809 21.9595C33.8347 20.6769 33.8347 19.3643 33.8347 18.0403V17.2842C33.8347 15.9758 33.8347 14.6597 33.8069 13.3493H31.4589L31.1099 15.2863H30.2638L30.3854 12.5931H38.6473L38.7688 15.2867V15.2863Z" fill="#ACE5FB"/>
<path d="M39.0953 14.7968H38.2471L37.8987 12.8594H35.5501C35.5226 14.1484 35.5226 15.4665 35.5226 16.7947V17.5508C35.5226 18.8533 35.5226 20.1655 35.5501 21.47L37.1131 21.6364V22.2418H32.5728V21.6364L34.1358 21.4697C34.1615 20.187 34.1615 18.8748 34.1615 17.5508V16.7947C34.1615 15.4863 34.1615 14.1699 34.1337 12.8594H31.7857L31.4367 14.7968H30.5906L30.7121 12.1036H38.974L39.0956 14.7968H39.0953Z" fill="white"/>
<path d="M9.56889 57.3189C9.76339 57.3189 9.91621 57.1626 9.91621 56.9716V21.5403C9.91621 20.4913 10.8262 19.6334 11.9411 19.6334H26.3483V24.5203C26.3483 25.1907 26.8936 25.736 27.5674 25.736H42.1205C42.7908 25.736 43.3396 25.1907 43.3396 24.5203V9.96729C43.3396 9.29347 42.7908 8.74817 42.1205 8.74817H27.5674C26.8936 8.74817 26.3483 9.29347 26.3483 9.96729V18.9388H11.9411C10.4442 18.9388 9.22156 20.1058 9.22156 21.5403V56.9712C9.22156 57.1623 9.37786 57.3189 9.56889 57.3189ZM27.043 9.96764C27.043 9.67588 27.2792 9.44317 27.5674 9.44317H42.1205C42.4088 9.44317 42.645 9.67588 42.645 9.96764V24.5207C42.645 24.809 42.4088 25.0417 42.1205 25.0417H27.5674C27.2792 25.0417 27.043 24.809 27.043 24.5207V9.96764Z" fill="#3B68D7"/>
<path d="M90.303 69.8867V21.5413C90.303 20.1694 89.1575 18.9406 87.5928 18.9406H45.1725C45.0804 18.9406 44.9921 18.9771 44.9269 19.0423C44.8618 19.1074 44.8252 19.1958 44.8252 19.2879C44.8252 19.38 44.8618 19.4683 44.9269 19.5335C44.9921 19.5986 45.0804 19.6352 45.1725 19.6352H87.5928C88.7772 19.6352 89.6083 20.5563 89.6083 21.5413V69.5515H22.5792C22.4871 69.5515 22.3987 69.5881 22.3336 69.6532C22.2684 69.7183 22.2318 69.8067 22.2318 69.8988C22.2318 69.9909 22.2684 70.0793 22.3336 70.1444C22.3987 70.2095 22.4871 70.2461 22.5792 70.2461H89.6107V75.3411C89.6107 76.3841 88.707 77.2323 87.5962 77.2323H22.3214C22.2293 77.2323 22.141 77.2689 22.0759 77.334C22.0107 77.3992 21.9741 77.4875 21.9741 77.5796C21.9741 77.6717 22.0107 77.7601 22.0759 77.8252C22.141 77.8904 22.2293 77.927 22.3214 77.927H41.0053L38.7897 85.3796C37.7859 85.5081 36.8516 85.9874 36.1396 86.7307C35.2747 87.6268 34.7989 88.8181 34.7989 90.0824C34.7989 90.2769 34.9552 90.4297 35.1462 90.4297H64.2245C64.4156 90.4297 64.5718 90.2769 64.5718 90.0824C64.5718 87.6997 62.8352 85.6783 60.581 85.3796L58.3724 77.927H87.5966C89.0901 77.927 90.3057 76.7669 90.3057 75.3411V69.8988C90.3054 69.8946 90.3033 69.8912 90.303 69.887V69.8867ZM41.8913 77.929H57.4863L59.6849 85.3341H39.6893L41.8913 77.929V77.929ZM35.6672 89.7347C35.7471 88.783 36.1396 87.8974 36.803 87.2131C37.4455 86.5358 38.2999 86.126 39.2204 86.0461C39.2308 86.0461 39.2412 86.0426 39.2516 86.0426C39.4739 86.019 59.9329 86.0235 60.126 86.0426C60.1365 86.0426 60.1469 86.0426 60.1573 86.0461C62.0433 86.2093 63.5403 87.7966 63.7001 89.7347H35.6672V89.7347Z" fill="#3B68D7"/>
<path d="M49.6864 75.4935C49.7139 75.4949 49.7396 75.5019 49.7674 75.5019C50.7416 75.5019 51.5283 74.71 51.5283 73.7406C51.5287 73.5092 51.4834 73.28 51.395 73.0661C51.3067 72.8523 51.177 72.658 51.0134 72.4943C50.8498 72.3307 50.6555 72.2009 50.4417 72.1125C50.2279 72.024 49.9987 71.9786 49.7674 71.9789C49.7396 71.9789 49.7139 71.9859 49.6864 71.9872C49.659 71.9859 49.6333 71.9789 49.6055 71.9789C49.3741 71.9786 49.1449 72.0239 48.931 72.1124C48.7172 72.2008 48.5229 72.3305 48.3592 72.4942C48.1956 72.6578 48.0659 72.8522 47.9775 73.0661C47.8891 73.2799 47.8438 73.5091 47.8442 73.7406C47.8446 74.2075 48.0303 74.6553 48.3605 74.9855C48.6907 75.3156 49.1385 75.5012 49.6055 75.5015C49.6333 75.5015 49.659 75.4949 49.6864 75.4935ZM78.8575 36.6779C79.3875 36.6994 79.9964 36.9929 80.1589 37.5382C80.1845 37.6241 80.2425 37.6967 80.3207 37.7406C80.3989 37.7844 80.4912 37.796 80.5778 37.773C80.8581 37.8362 81.0571 37.5774 80.9859 37.3395C80.7657 36.6008 80.0308 35.978 78.7904 35.978C78.7682 35.978 78.7467 35.9787 78.7251 35.979C77.0423 36.0304 75.8215 37.5462 74.5124 38.492C72.6566 39.8333 71.2058 39.3776 70.7793 38.3496C70.747 38.2741 70.6888 38.2126 70.6152 38.1763C70.5416 38.1399 70.4574 38.131 70.3778 38.1512C70.3072 38.1316 70.2322 38.1352 70.1639 38.1616C70.0788 38.1969 70.0112 38.2645 69.976 38.3496C69.9408 38.4346 69.9408 38.5302 69.976 38.6153C71.7008 42.7749 77.4275 36.7571 78.8575 36.6779ZM18.1792 27.4518C17.9882 27.4518 17.8319 27.6081 17.8319 27.7991V55.7903C17.8319 55.9813 17.9882 56.1376 18.1792 56.1376H23.9414C24.1324 56.1376 24.2887 55.9813 24.2887 55.7903V27.7991C24.2887 27.6081 24.1324 27.4518 23.9414 27.4518H18.1792ZM18.6898 39.3443H23.4343V44.2486H18.6898V39.3443ZM23.4343 38.6496H18.6898V33.7454H23.4343V38.6496ZM18.6898 44.9432H23.4343V49.844H18.6898V44.9432V44.9432ZM23.4343 28.1464V33.0507H18.6898V28.1464H23.4343ZM18.6898 55.443V50.5387H23.4343V55.443H18.6898Z" fill="#3B68D7"/>
<path d="M69.8304 61.9693H81.2818C81.9765 61.9693 82.5426 61.4761 82.5426 60.8683V29.6643C82.5426 29.0565 81.9765 28.5598 81.2818 28.5598H69.8304C69.1358 28.5598 68.5696 29.0565 68.5696 29.6643V60.8683C68.5696 61.4761 69.1358 61.9693 69.8304 61.9693ZM81.2818 61.2747H69.8304C69.5213 61.2747 69.2643 61.0871 69.2643 60.8683V45.6129H81.848V60.8683C81.848 61.0871 81.5875 61.2747 81.2818 61.2747ZM69.8304 29.2545H81.2818C81.5875 29.2545 81.848 29.442 81.848 29.6643V44.9183H69.2643V29.6647C69.2643 29.4424 69.5213 29.2548 69.8304 29.2548V29.2545ZM56.111 31.0606C55.1801 31.0606 54.4056 31.7309 54.2423 32.6166H48.8796C48.7163 31.7309 47.9418 31.0606 47.011 31.0606C46.0801 31.0606 45.3056 31.7309 45.1423 32.6166H39.7796C39.6989 32.1798 39.4678 31.7851 39.1265 31.5009C38.7852 31.2167 38.3551 31.0609 37.911 31.0606C36.862 31.0606 36.0076 31.915 36.0076 32.9639C36.0076 34.0129 36.862 34.8673 37.911 34.8673C38.8418 34.8673 39.6163 34.197 39.7796 33.3113H45.1423C45.2285 33.7852 45.4933 34.2079 45.8821 34.4922L33.3158 60.2466C33.2067 60.472 33.3648 60.7467 33.6284 60.7467H60.397C60.6488 60.7467 60.8235 60.4741 60.7061 60.2466L48.1432 34.4887C48.5218 34.2108 48.7927 33.7941 48.8796 33.3113H54.2423C54.4056 34.197 55.1801 34.8673 56.111 34.8673C57.1599 34.8673 58.0143 34.0129 58.0143 32.9639C58.0143 31.915 57.1599 31.0606 56.111 31.0606V31.0606ZM37.911 34.1726C37.2441 34.1726 36.7023 33.6308 36.7023 32.9639C36.7023 32.2971 37.2441 31.7552 37.911 31.7552C38.4563 31.7552 38.9182 32.1165 39.0676 32.6166V33.3113C38.9932 33.5602 38.8405 33.7786 38.6321 33.9338C38.4237 34.0889 38.1708 34.1727 37.911 34.1726V34.1726ZM59.8413 60.0521H34.1841L46.5073 34.7978C46.6671 34.843 46.8373 34.8673 47.011 34.8673C47.1881 34.8673 47.3583 34.843 47.5215 34.7944L59.8413 60.0521V60.0521ZM47.011 34.1726C46.6907 34.1716 46.3838 34.044 46.1574 33.8175C45.9309 33.591 45.8033 33.2842 45.8023 32.9639C45.8023 32.3221 46.3215 31.7552 47.011 31.7552C47.6813 31.7552 48.2197 32.3012 48.2197 32.9639C48.2188 33.2843 48.0912 33.5912 47.8647 33.8177C47.6382 34.0442 47.3313 34.1718 47.011 34.1726V34.1726ZM56.111 34.1726C55.7905 34.1724 55.4832 34.0449 55.2566 33.8183C55.03 33.5917 54.9025 33.2844 54.9023 32.9639C54.9023 32.3009 55.4406 31.7552 56.111 31.7552C56.7778 31.7552 57.3197 32.2971 57.3197 32.9639C57.3197 33.6308 56.7778 34.1726 56.111 34.1726Z" fill="#3B68D7"/>
<path d="M62.2725 39.1429L55.8852 37.2638C55.6139 37.1509 55.3187 37.4291 55.4302 37.7153L57.3092 44.1062C57.3578 44.2729 57.528 44.3806 57.6982 44.3493C58.7506 44.1756 59.3758 44.1583 60.0871 44.7522L60.0111 44.8279C59.686 45.153 60.1774 45.6441 60.5022 45.3194L63.4871 42.3344C63.8122 42.0094 63.3208 41.5182 62.996 41.8433L62.9196 41.9197C62.9196 41.919 62.9189 41.9187 62.9186 41.918C62.3246 41.2095 62.342 40.5808 62.5191 39.5319C62.5469 39.3582 62.4427 39.1915 62.2725 39.1429ZM62.425 42.4143L60.5807 44.2587C59.9486 43.7137 59.3546 43.547 58.7124 43.547C58.4484 43.547 58.1741 43.5748 57.8892 43.6164L56.4721 38.7955L59.2959 41.6193C59.1118 42.0014 59.1813 42.4668 59.4974 42.7829C59.6905 42.9742 59.9514 43.0815 60.2233 43.0815C60.4952 43.0815 60.756 42.9742 60.9492 42.7829C61.0449 42.6874 61.1208 42.5739 61.1726 42.4491C61.2244 42.3242 61.251 42.1904 61.251 42.0552C61.251 41.92 61.2244 41.7862 61.1726 41.6613C61.1208 41.5365 61.0449 41.423 60.9492 41.3275C60.6366 41.0149 60.1677 40.9455 59.7857 41.1261L56.9612 38.3023L61.7828 39.7229C61.6404 40.7058 61.6578 41.522 62.425 42.4143ZM60.4595 41.8208C60.588 41.9493 60.588 42.1611 60.4595 42.2896C60.3275 42.4216 60.1191 42.4216 59.9871 42.2896C59.9254 42.2272 59.8908 42.143 59.8908 42.0552C59.8908 41.9674 59.9254 41.8832 59.9871 41.8208C60.0499 41.7584 60.1348 41.7234 60.2233 41.7234C60.3118 41.7234 60.3967 41.7584 60.4595 41.8208ZM20.7703 71.8021H19.3046C20.2458 69.9161 20.9474 67.8738 21.1211 66.4741C21.4271 66.4167 21.7172 66.2943 21.9719 66.1151C22.2266 65.936 22.4398 65.7042 22.5972 65.4356C23.1599 64.4804 22.8404 61.6219 22.8021 61.2989L22.7466 60.8474L22.3263 61.0176C22.0241 61.1392 19.3671 62.2367 18.8009 63.1919C18.6422 63.4599 18.5425 63.7587 18.5084 64.0684C18.4742 64.378 18.5065 64.6913 18.6029 64.9875C17.1824 66.0122 15.2929 68.2351 13.9974 70.4163V59.2219C13.9974 58.7183 13.591 58.3084 13.0874 58.3084H9.53073C9.02711 58.3084 8.61726 58.7183 8.61726 59.2219V70.2774L5.07798 60.6772C5.07798 60.6668 5.07451 60.6598 5.07104 60.6494C5.04996 60.5905 5.01263 60.5387 4.96337 60.5001L4.93905 60.4827L2.32367 58.3883C2.2771 58.3507 2.22159 58.3258 2.16254 58.3161C2.1035 58.3064 2.04294 58.3121 1.98676 58.3327C1.87214 58.3744 1.78879 58.4717 1.76447 58.5932L1.12539 61.9241C1.09726 62.0839 0.912477 61.4309 4.71676 71.8021H1.84783C1.21222 71.8021 0.694702 72.3162 0.694702 72.9518V75.5081C0.694702 76.1437 1.21222 76.6612 1.84783 76.6612H2.50081V89.2797C2.50081 89.9153 3.01485 90.4293 3.65047 90.4293H18.9676C19.5998 90.4293 20.1173 89.9153 20.1173 89.2797V76.6612H20.7703C21.4024 76.6612 21.9199 76.1437 21.9199 75.5081V72.9518C21.9199 72.3162 21.4024 71.8021 20.7703 71.8021ZM19.3983 63.5461C19.6936 63.0495 21.1037 62.3062 22.1596 61.8442C22.22 62.5285 22.3447 64.4905 21.9998 65.0813C21.8988 65.2522 21.7652 65.4015 21.6064 65.5206C21.4477 65.6398 21.2671 65.7265 21.0749 65.7759C20.8826 65.8252 20.6826 65.8362 20.4861 65.8082C20.2896 65.7802 20.1005 65.7138 19.9297 65.6127C19.2142 65.1876 18.9753 64.2606 19.3983 63.5461ZM14.5774 70.7949C15.8035 68.7213 17.5783 66.6165 18.919 65.6162C18.926 65.6232 18.9294 65.6266 18.9329 65.6336C19.0962 65.8454 19.2247 65.9622 19.3844 66.0816C19.3844 66.1164 19.9047 66.4446 20.416 66.4984C20.3014 67.3285 19.9957 68.3844 19.5685 69.4924C19.2733 70.26 18.9155 71.0484 18.5231 71.8021H14.0321C14.1884 71.4826 14.369 71.1457 14.5774 70.7949ZM13.0874 59.0031C13.2055 59.0031 13.3027 59.1003 13.3027 59.2219V60.4146H12.1534C12.0613 60.4146 11.9729 60.4512 11.9078 60.5163C11.8427 60.5815 11.8061 60.6698 11.8061 60.7619C11.8061 60.8541 11.8427 60.9424 11.9078 61.0075C11.9729 61.0727 12.0613 61.1093 12.1534 61.1093H13.3027V62.1058H12.1534C12.0613 62.1058 11.9729 62.1424 11.9078 62.2075C11.8427 62.2726 11.8061 62.361 11.8061 62.4531C11.8061 62.5452 11.8427 62.6336 11.9078 62.6987C11.9729 62.7638 12.0613 62.8004 12.1534 62.8004H13.3027V63.7962H12.1534C12.0613 63.7962 11.9729 63.8328 11.9078 63.8979C11.8427 63.9631 11.8061 64.0514 11.8061 64.1435C11.8061 64.2357 11.8427 64.324 11.9078 64.3891C11.9729 64.4543 12.0613 64.4909 12.1534 64.4909H13.3027V65.4867H12.1534C12.0613 65.4867 11.9729 65.5232 11.9078 65.5884C11.8427 65.6535 11.8061 65.7419 11.8061 65.834C11.8061 65.9261 11.8427 66.0144 11.9078 66.0796C11.9729 66.1447 12.0613 66.1813 12.1534 66.1813H13.3027V67.1775H12.1534C12.0613 67.1775 11.9729 67.214 11.9078 67.2792C11.8427 67.3443 11.8061 67.4327 11.8061 67.5248C11.8061 67.6169 11.8427 67.7052 11.9078 67.7704C11.9729 67.8355 12.0613 67.8721 12.1534 67.8721H13.3027V68.8679H12.1534C12.0613 68.8679 11.9729 68.9045 11.9078 68.9696C11.8427 69.0348 11.8061 69.1231 11.8061 69.2152C11.8061 69.3073 11.8427 69.3957 11.9078 69.4608C11.9729 69.526 12.0613 69.5626 12.1534 69.5626H13.3027V70.559H12.1534C12.0613 70.559 11.9729 70.5956 11.9078 70.6608C11.8427 70.7259 11.8061 70.8142 11.8061 70.9064C11.8061 70.9985 11.8427 71.0868 11.9078 71.152C11.9729 71.2171 12.0613 71.2537 12.1534 71.2537H13.3027V71.7087L13.261 71.8025H9.31192V59.2222C9.31192 59.1007 9.40917 59.0034 9.53073 59.0034L13.0874 59.0031ZM2.34104 59.2879L4.43543 60.9655C4.46773 61.6421 2.2556 62.4649 1.83047 61.9241L2.34104 59.2879ZM2.12917 62.7751C3.11315 62.8629 4.26697 62.3416 4.75844 61.806L8.44012 71.8021H5.45657L2.12917 62.7751ZM19.4226 89.2797C19.4226 89.5298 19.2177 89.7347 18.9676 89.7347H3.65047C3.40039 89.7347 3.19547 89.5298 3.19547 89.2797V76.6612H19.4226V89.2797ZM21.2253 75.5081C21.2253 75.7617 21.0204 75.9666 20.7703 75.9666H1.84783C1.59428 75.9666 1.38936 75.7617 1.38936 75.5081V72.9518C1.38936 72.7017 1.59428 72.4968 1.84783 72.4968H20.7703C21.0204 72.4968 21.2253 72.7017 21.2253 72.9518V75.5081ZM74.0296 7.24179C74.1457 7.24179 74.257 7.19569 74.339 7.11361C74.4211 7.03154 74.4672 6.92023 74.4672 6.80416V4.93796C74.4672 4.8219 74.4211 4.71058 74.339 4.62851C74.257 4.54644 74.1457 4.50033 74.0296 4.50033C73.9135 4.50033 73.8022 4.54644 73.7201 4.62851C73.6381 4.71058 73.592 4.8219 73.592 4.93796V6.80416C73.592 7.0459 73.7878 7.24179 74.0296 7.24179ZM74.0296 13.3926C74.1457 13.3926 74.257 13.3465 74.339 13.2644C74.4211 13.1824 74.4672 13.0711 74.4672 12.955V9.32229C74.4672 9.20622 74.4211 9.09491 74.339 9.01284C74.257 8.93076 74.1457 8.88466 74.0296 8.88466C73.9135 8.88466 73.8022 8.93076 73.7201 9.01284C73.6381 9.09491 73.592 9.20622 73.592 9.32229V12.9546C73.592 13.1964 73.7878 13.3926 74.0296 13.3926ZM60.0569 10.3987C60.173 10.3987 60.2843 10.3526 60.3664 10.2705C60.4484 10.1884 60.4946 10.0771 60.4946 9.96103V8.09518C60.4946 7.97911 60.4484 7.8678 60.3664 7.78573C60.2843 7.70365 60.173 7.65755 60.0569 7.65755C59.9409 7.65755 59.8295 7.70365 59.7475 7.78573C59.6654 7.8678 59.6193 7.97911 59.6193 8.09518V9.96137C59.6193 10.2031 59.8152 10.3987 60.0569 10.3987ZM60.0569 16.5498C60.173 16.5498 60.2843 16.5037 60.3664 16.4217C60.4484 16.3396 60.4946 16.2283 60.4946 16.1122V12.4795C60.4946 12.3634 60.4484 12.2521 60.3664 12.1701C60.2843 12.088 60.173 12.0419 60.0569 12.0419C59.9409 12.0419 59.8295 12.088 59.7475 12.1701C59.6654 12.2521 59.6193 12.3634 59.6193 12.4795V16.1119C59.6193 16.3536 59.8152 16.5498 60.0569 16.5498ZM77.9471 79.4284C77.831 79.4284 77.7197 79.4745 77.6376 79.5566C77.5556 79.6387 77.5095 79.75 77.5095 79.866V81.7319C77.5095 81.848 77.5556 81.9593 77.6376 82.0413C77.7197 82.1234 77.831 82.1695 77.9471 82.1695C78.0632 82.1695 78.1745 82.1234 78.2566 82.0413C78.3386 81.9593 78.3847 81.848 78.3847 81.7319V79.8657C78.3847 79.7496 78.3386 79.6383 78.2566 79.5562C78.1745 79.4742 78.0632 79.4284 77.9471 79.4284ZM47.0109 3.31177C47.127 3.31177 47.2383 3.26567 47.3204 3.18359C47.4024 3.10152 47.4486 2.99021 47.4486 2.87414V1.00795C47.4486 0.891878 47.4024 0.780565 47.3204 0.698492C47.2383 0.61642 47.127 0.570313 47.0109 0.570312C46.8949 0.570313 46.7835 0.61642 46.7015 0.698492C46.6194 0.780565 46.5733 0.891878 46.5733 1.00795V2.87414C46.5733 3.11623 46.7688 3.31177 47.0109 3.31177ZM47.0109 9.46296C47.0684 9.46296 47.1253 9.45164 47.1784 9.42964C47.2315 9.40765 47.2797 9.37541 47.3204 9.33478C47.361 9.29414 47.3932 9.24589 47.4152 9.1928C47.4372 9.1397 47.4486 9.08279 47.4486 9.02532V5.39227C47.4486 5.2762 47.4024 5.16489 47.3204 5.08282C47.2383 5.00074 47.127 4.95464 47.0109 4.95464C46.8949 4.95464 46.7835 5.00074 46.7015 5.08282C46.6194 5.16489 46.5733 5.2762 46.5733 5.39227V9.02463C46.5733 9.26672 46.7688 9.46296 47.0109 9.46296ZM4.10095 7.31994C4.15842 7.31994 4.21533 7.30862 4.26843 7.28663C4.32152 7.26464 4.36977 7.2324 4.4104 7.19176C4.45104 7.15112 4.48328 7.10288 4.50527 7.04978C4.52726 6.99669 4.53858 6.93978 4.53858 6.88231V5.01611C4.53858 4.90005 4.49248 4.78873 4.4104 4.70666C4.32833 4.62459 4.21702 4.57848 4.10095 4.57848C3.98488 4.57848 3.87357 4.62459 3.7915 4.70666C3.70942 4.78873 3.66332 4.90005 3.66332 5.01611V6.88231C3.66332 7.1244 3.85886 7.31994 4.10095 7.31994ZM4.10095 13.4711C4.21702 13.4711 4.32833 13.425 4.4104 13.3429C4.49248 13.2609 4.53858 13.1496 4.53858 13.0335V9.40079C4.53858 9.28472 4.49248 9.1734 4.4104 9.09133C4.32833 9.00926 4.21702 8.96315 4.10095 8.96315C3.98488 8.96315 3.87357 9.00926 3.7915 9.09133C3.70942 9.1734 3.66332 9.28472 3.66332 9.40079V13.0331C3.66332 13.2752 3.85886 13.4711 4.10095 13.4711ZM4.34616 27.399V29.2655C4.34616 29.3816 4.39227 29.4929 4.47434 29.575C4.55642 29.6571 4.66773 29.7032 4.7838 29.7032C4.89986 29.7032 5.01118 29.6571 5.09325 29.575C5.17532 29.4929 5.22143 29.3816 5.22143 29.2655V27.3993C5.22143 27.2833 5.17532 27.172 5.09325 27.0899C5.01118 27.0078 4.89986 26.9617 4.7838 26.9617C4.66773 26.9617 4.55642 27.0078 4.47434 27.0899C4.39227 27.172 4.34616 27.2829 4.34616 27.399ZM4.7838 31.3464C4.66773 31.3464 4.55642 31.3925 4.47434 31.4746C4.39227 31.5566 4.34616 31.6679 4.34616 31.784V35.4164C4.34616 35.5324 4.39227 35.6438 4.47434 35.7258C4.55642 35.8079 4.66773 35.854 4.7838 35.854C4.89986 35.854 5.01118 35.8079 5.09325 35.7258C5.17532 35.6438 5.22143 35.5324 5.22143 35.4164V31.784C5.22143 31.6679 5.17532 31.5566 5.09325 31.4746C5.01118 31.3925 4.89986 31.3464 4.7838 31.3464ZM72.4086 83.1358C72.2925 83.1358 72.1812 83.1819 72.0992 83.264C72.0171 83.346 71.971 83.4574 71.971 83.5734V87.2058C71.971 87.3219 72.0171 87.4332 72.0992 87.5152C72.1812 87.5973 72.2925 87.6434 72.4086 87.6434C72.5247 87.6434 72.636 87.5973 72.7181 87.5152C72.8001 87.4332 72.8462 87.3219 72.8462 87.2058V83.5741C72.8462 83.4581 72.8001 83.3467 72.7181 83.2647C72.636 83.1826 72.5247 83.1358 72.4086 83.1358Z" fill="#3F7AEA"/>
</svg>
