<svg width="111" height="111" viewBox="0 0 111 111" fill="none" xmlns="http://www.w3.org/2000/svg">
<path d="M49.6569 14.6936C57.3038 14.3649 83.1468 18.6445 80.3103 39.7917C79.4431 46.2661 75.3673 50.7703 68.9579 52.2888C60.051 54.3995 53.1404 57.3982 54.6936 68.9205C56.2467 80.4429 42.4393 87.4992 31.87 84.0894C28.2414 82.8655 24.8896 80.9384 22.0063 78.4182C19.1231 75.898 16.7648 72.8341 15.0666 69.4018C10.0369 58.8794 10.199 44.5673 16.9258 33.1898C23.6743 21.7759 33.6391 15.3821 49.6569 14.6936Z" fill="#BFE0FF"/>
<path d="M48.5468 34.149C51.7322 34.149 54.3145 31.5667 54.3145 28.3813C54.3145 25.1959 51.7322 22.6136 48.5468 22.6136C45.3614 22.6136 42.7792 25.1959 42.7792 28.3813C42.7792 31.5667 45.3614 34.149 48.5468 34.149Z" fill="#FFC639"/>
<path d="M65.4041 41.8313C68.5895 41.8313 71.1718 39.2491 71.1718 36.0637C71.1718 32.8783 68.5895 30.296 65.4041 30.296C62.2187 30.296 59.6365 32.8783 59.6365 36.0637C59.6365 39.2491 62.2187 41.8313 65.4041 41.8313Z" fill="#61D6A0"/>
<path d="M32.2368 41.8313C35.4222 41.8313 38.0044 39.2491 38.0044 36.0637C38.0044 32.8783 35.4222 30.296 32.2368 30.296C29.0514 30.296 26.4691 32.8783 26.4691 36.0637C26.4691 39.2491 29.0514 41.8313 32.2368 41.8313Z" fill="#584360"/>
<path d="M25.9758 60.6615C29.1612 60.6615 31.7435 58.0793 31.7435 54.8939C31.7435 51.7085 29.1612 49.1262 25.9758 49.1262C22.7904 49.1262 20.2081 51.7085 20.2081 54.8939C20.2081 58.0793 22.7904 60.6615 25.9758 60.6615Z" fill="#FF736C"/>
<path d="M37.6524 76.7964C41.1955 76.7964 44.0678 73.9241 44.0678 70.3809C44.0678 66.8378 41.1955 63.9655 37.6524 63.9655C34.1092 63.9655 31.2369 66.8378 31.2369 70.3809C31.2369 73.9241 34.1092 76.7964 37.6524 76.7964Z" fill="white"/>
<path d="M98.5758 27.3451C104.646 29.9232 76.9412 76.7973 76.9412 76.7973L72.5784 74.6848C72.5784 74.6848 92.2913 24.6767 98.5758 27.3451Z" fill="#419BFF"/>
<path d="M82.9499 66.2583C79.5245 72.4153 76.9403 76.7946 76.9403 76.7946L72.5784 74.6873C72.5784 74.6873 74.4428 69.9525 77.2091 63.4833L82.9499 66.2583Z" fill="#3B68D7"/>
<path d="M76.9412 76.7973L72.5784 74.6848C66.3589 76.7348 64.8812 79.3728 62.1721 84.9584C60.7968 87.7993 57.9602 89.2692 55.5043 90.0271C55.2692 90.1001 55.0651 90.2494 54.9245 90.4515C54.7839 90.6535 54.7147 90.8967 54.7279 91.1426C54.7412 91.3884 54.8361 91.6228 54.9976 91.8086C55.1591 91.9944 55.3781 92.1209 55.6197 92.1682C59.6932 93.3381 64.0386 93.1345 67.9849 91.5889C73.9962 89.3542 77.3835 80.8219 76.9412 76.7973Z" fill="#97CEFF"/>
<path d="M67.9875 91.5889C64.0406 93.1331 59.6956 93.3373 55.6214 92.1699C55.3802 92.1224 55.1616 91.996 55.0002 91.8107C54.8387 91.6253 54.7436 91.3915 54.7297 91.146C54.7157 90.9006 54.7839 90.6575 54.9234 90.4551C55.0628 90.2527 55.2657 90.1024 55.5 90.028C57.9628 89.2648 60.7985 87.7993 62.1686 84.9549C62.6196 84.027 63.0271 83.1859 63.4434 82.4141C62.6803 84.9463 64.2152 87.4958 66.8688 87.3657C69.3524 87.2391 70.3063 90.054 67.9875 91.5889ZM23.9855 90.3818C23.8433 91.4397 22.898 93.0371 21.9606 92.9105C21.589 92.8485 21.2351 92.7073 20.9228 92.4964C20.6106 92.2856 20.3473 92.0101 20.1509 91.6886C19.9545 91.3671 19.8295 91.0071 19.7845 90.633C19.7394 90.259 19.7753 89.8796 19.8898 89.5207C20.1551 88.487 20.6702 87.9849 21.6077 88.1115C22.5451 88.2381 24.1277 89.3203 23.9855 90.3818ZM46.8281 91.5135C41.0717 91.0192 31.5994 89.8771 30.8423 92.4197C29.6213 96.5189 39.2289 97.1259 43.8077 95.4618C48.3864 93.7976 49.4825 91.7415 46.8281 91.5135Z" fill="#FF736C"/>
<path d="M82.9499 67.1246C82.8193 67.1243 82.6903 67.0947 82.5727 67.0379L76.8319 64.2629C76.7262 64.2154 76.631 64.1472 76.5521 64.0622C76.4732 63.9773 76.4121 63.8775 76.3725 63.7685C76.3328 63.6596 76.3154 63.5439 76.3213 63.4281C76.3272 63.3123 76.3562 63.1989 76.4066 63.0945C76.457 62.9902 76.5279 62.897 76.615 62.8205C76.702 62.744 76.8036 62.6857 76.9136 62.6491C77.0235 62.6125 77.1397 62.5983 77.2553 62.6074C77.3709 62.6165 77.4834 62.6486 77.5863 62.702L83.3271 65.477C83.5037 65.5625 83.6461 65.7054 83.731 65.8823C83.8159 66.0592 83.8382 66.2597 83.7944 66.451C83.7507 66.6422 83.6433 66.813 83.4899 66.9354C83.3365 67.0577 83.1461 67.1244 82.9499 67.1246Z" fill="#584360"/>
</svg>
