<svg width="50" height="50" viewBox="0 0 50 50" fill="none" xmlns="http://www.w3.org/2000/svg">
<path d="M35.5078 24.0625L35.5469 23.2812V23.0469H35.2344C34.7656 23.0469 34.2578 23.1641 33.9062 23.3984C33.3594 23.7109 33.0469 24.2969 33.0469 25.1172C33.0469 26.2891 33.6328 26.9531 34.6484 26.9531C34.9609 26.9531 35.1562 26.9141 35.5469 26.7969V25.1172L35.5078 24.0625ZM6.36719 25.0781C6.36719 26.3281 6.99219 26.9922 8.20312 26.9922C8.47656 26.9922 8.59375 26.9922 8.98438 26.9141V23.2031C8.59375 23.125 8.51562 23.0859 8.20312 23.0859C7.03125 23.0859 6.36719 23.8281 6.36719 25.0781ZM17.9297 26.6016C17.9297 27.0703 18.2031 27.2656 18.8281 27.2656C19.1797 27.2656 19.5312 27.2266 19.9219 27.1484V25.5859C18.3594 25.7422 17.9297 25.9766 17.9297 26.6016ZM42.5391 23.0469C41.6406 23.0469 41.0938 23.7891 41.0938 25.0781C41.0938 26.3672 41.6016 27.1094 42.5391 27.1094C43.4375 27.1094 43.9453 26.3672 43.9453 25.0781C43.9453 23.8281 43.4375 23.0469 42.5391 23.0469ZM49.2188 17.1484C49.2188 15.6641 48.0078 14.4531 46.5234 14.4531H3.08594C1.60156 14.4531 0.390625 15.6641 0.390625 17.1484V32.8125C0.390625 34.3359 1.60156 35.5469 3.08594 35.5469H46.4844C47.9688 35.5469 49.1797 34.3359 49.1797 32.8516V17.1484H49.2188ZM4.02344 25.1172C4.02344 22.7734 5.58594 21.2109 8.00781 21.2109C8.39844 21.2109 8.63281 21.25 9.02344 21.3281V17.9688H11.3672V28.5156C10.1953 28.75 9.29688 28.8281 8.35938 28.8281C5.50781 28.8281 4.02344 27.5781 4.02344 25.1172ZM14.8438 26.7578C14.8438 28.5938 14.7656 29.4922 14.375 30.2734C13.9844 31.0156 13.5547 31.4844 12.5391 31.9922L10.3906 30.9766C11.4062 30.5078 11.8359 30.0781 12.1484 29.4141C12.4609 28.75 12.5 27.9688 12.5 25.9766V21.4844H14.8438V26.7578ZM14.8438 20.3125H12.5V17.9688H14.8438V20.3125ZM21.875 28.6328C21.0938 28.7891 19.6094 28.9062 18.6328 28.9062C16.6797 28.9062 15.8594 28.2422 15.8594 26.7188C15.8594 25.0781 17.1484 24.3359 19.8828 24.1016V23.5938C19.8828 23.1641 19.6875 23.0078 19.1016 23.0078C18.2422 23.0078 17.1484 23.2422 16.3672 23.7109V21.9141C17.5391 21.4453 18.3594 21.2109 19.4141 21.2109C20.5859 21.2109 21.2891 21.5234 21.6406 22.1484C21.8359 22.5 21.8359 22.9297 21.8359 23.9062V28.6328H21.875ZM30.0781 28.9062H27.7344V24.2969C27.7344 23.3984 27.3438 23.0859 26.5234 23.0859C26.2109 23.0859 25.7812 23.125 25.3906 23.2422V28.9062H23.0469V21.7578C24.6094 21.4063 25.5859 21.25 26.7188 21.25C27.8906 21.25 28.8281 21.5234 29.3359 22.0313C29.8438 22.5391 30.0781 23.0469 30.0781 24.2188V28.9062ZM37.6172 24.375L37.8906 26.5625V27.2266C37.8906 29.2187 37.6562 30.1562 37.1484 30.8984C36.4453 32.0312 35.1562 32.5781 33.3594 32.5781C32.4609 32.5781 31.6016 32.4609 30.8203 32.1094V29.9609C31.6016 30.3906 32.4609 30.5859 33.3203 30.5859C34.8438 30.5859 35.5078 29.9609 35.5078 28.5156V28.4766C35.1172 28.7109 34.5703 28.7891 33.9844 28.7891C31.9531 28.7891 30.6641 27.4609 30.6641 25.3516C30.6641 22.7344 32.5781 21.25 35.9375 21.25C36.9141 21.25 37.8516 21.3672 38.9453 21.5625L38.0469 23.2422C37.4219 23.125 38.5547 23.2422 37.7734 23.1641L37.6172 24.375ZM42.5 28.9453C40.1953 28.9453 38.75 27.5 38.75 25.1563C38.75 22.7344 40.2344 21.2109 42.5781 21.2109C44.8828 21.2109 46.2891 22.6562 46.2891 25.0391C46.3281 27.4219 44.8438 28.9453 42.5 28.9453Z" fill="#003A2B"/>
</svg>
