<svg width="53" height="53" viewBox="0 0 53 53" fill="none" xmlns="http://www.w3.org/2000/svg">
<path d="M16.5625 22.9324C16.4998 22.9324 16.4376 22.9448 16.3796 22.9688C16.3216 22.9929 16.269 23.0283 16.2247 23.0728C16.1803 23.1172 16.1452 23.17 16.1214 23.228C16.0975 23.2861 16.0853 23.3482 16.0855 23.411V26.0877C14.97 26.3463 13.9042 26.7853 12.9304 27.3877L11.0423 25.4997C10.9979 25.4552 10.9453 25.4199 10.8873 25.3958C10.8293 25.3717 10.7672 25.3594 10.7044 25.3594C10.6416 25.3594 10.5794 25.3717 10.5215 25.3958C10.4635 25.4199 10.4108 25.4552 10.3665 25.4997L7.66184 28.2026C7.61738 28.247 7.58209 28.2995 7.55802 28.3575C7.53394 28.4155 7.52155 28.4777 7.52155 28.5405C7.52155 28.6033 7.53394 28.6655 7.55802 28.7235C7.58209 28.7814 7.61738 28.834 7.66184 28.8783L9.55494 30.7715C8.95075 31.7435 8.50935 32.8075 8.24816 33.9217H5.57331C5.44681 33.9217 5.32548 33.9719 5.23602 34.0614C5.14657 34.1508 5.09631 34.2721 5.09631 34.3986V38.2212C5.09631 38.4862 5.30997 38.7 5.57331 38.7H8.24981C8.50912 39.815 8.94885 40.8801 9.55163 41.8534L7.6635 43.7415C7.61903 43.7858 7.58375 43.8386 7.55967 43.8966C7.5356 43.9546 7.5232 44.0166 7.5232 44.0794C7.5232 44.1421 7.5356 44.2043 7.55967 44.2623C7.58375 44.3203 7.61903 44.3731 7.6635 44.4174L10.3665 47.1219C10.4108 47.1664 10.4635 47.2018 10.5215 47.2259C10.5794 47.2499 10.6416 47.2623 10.7044 47.2623C10.7672 47.2623 10.8293 47.2499 10.8873 47.2259C10.9453 47.2018 10.9979 47.1664 11.0423 47.1219L12.9353 45.2289C13.9072 45.8337 14.9712 46.2755 16.0855 46.5372V49.2105C16.0855 49.4755 16.2975 49.6876 16.5625 49.6876H20.3852C20.6502 49.6876 20.8622 49.4755 20.8622 49.2105V46.534C21.9777 46.2754 23.0434 45.8362 24.0173 45.2338L25.9054 47.1219C25.9498 47.1664 26.0024 47.2018 26.0604 47.2259C26.1184 47.2499 26.1805 47.2623 26.2433 47.2623C26.3061 47.2623 26.3683 47.2499 26.4262 47.2259C26.4842 47.2018 26.5369 47.1664 26.5812 47.1219L29.2842 44.4174C29.3287 44.3731 29.3639 44.3203 29.388 44.2623C29.4121 44.2043 29.4245 44.1421 29.4245 44.0794C29.4245 44.0166 29.4121 43.9546 29.388 43.8966C29.3639 43.8386 29.3287 43.7858 29.2842 43.7415L27.3928 41.8501C27.9969 40.8782 28.4383 39.8142 28.6995 38.7H31.3727C31.6377 38.7 31.8514 38.4846 31.8514 38.2212V34.4002C31.8516 34.3373 31.8394 34.275 31.8154 34.2169C31.7914 34.1587 31.7562 34.1059 31.7117 34.0614C31.6672 34.0169 31.6143 33.9816 31.5562 33.9577C31.498 33.9337 31.4356 33.9215 31.3727 33.9217H28.6979C28.4386 32.8066 27.9988 31.7414 27.3961 30.7681L29.2842 28.8799C29.3289 28.8356 29.3644 28.783 29.3886 28.7249C29.4128 28.6667 29.4253 28.6043 29.4253 28.5413C29.4253 28.4783 29.4128 28.4161 29.3886 28.3579C29.3644 28.2998 29.3289 28.247 29.2842 28.2026L26.5812 25.4997C26.5369 25.4552 26.4842 25.4199 26.4262 25.3958C26.3683 25.3717 26.3061 25.3594 26.2433 25.3594C26.1805 25.3594 26.1184 25.3717 26.0604 25.3958C26.0024 25.4199 25.9498 25.4552 25.9054 25.4997L24.0123 27.3911C23.0404 26.7869 21.9764 26.3454 20.8622 26.0842V23.411C20.8624 23.3482 20.8502 23.2861 20.8263 23.228C20.8025 23.17 20.7673 23.1172 20.723 23.0728C20.6787 23.0283 20.6261 22.9929 20.5681 22.9688C20.5101 22.9448 20.4479 22.9324 20.3852 22.9324H16.5625V22.9324ZM18.4738 29.6219C20.2476 29.6219 21.9487 30.3266 23.2029 31.5809C24.4572 32.8351 25.1618 34.5363 25.1618 36.31C25.162 37.1884 24.9892 38.0582 24.6532 38.8698C24.3172 39.6814 23.8246 40.419 23.2035 41.0402C22.5825 41.6614 21.8451 42.154 21.0336 42.4902C20.2221 42.8264 19.3523 42.9995 18.4738 42.9995C17.5953 42.9997 16.7253 42.8269 15.9136 42.4908C15.1019 42.1547 14.3643 41.662 13.7431 41.0408C13.1219 40.4196 12.6291 39.6819 12.293 38.8702C11.9569 38.0585 11.784 37.1886 11.7843 36.31C11.7843 35.4316 11.9573 34.5618 12.2935 33.7502C12.6297 32.9387 13.1225 32.2013 13.7437 31.5802C14.3649 30.9592 15.1024 30.4666 15.914 30.1306C16.7256 29.7946 17.5954 29.6217 18.4738 29.6219V29.6219ZM36.0351 20.4133C35.9964 20.4233 35.9602 20.4409 35.9284 20.4651C35.8966 20.4892 35.8699 20.5193 35.8499 20.5538C35.8299 20.5883 35.8169 20.6265 35.8117 20.666C35.8065 20.7056 35.8093 20.7458 35.8197 20.7843L36.2587 22.4207C35.619 22.7622 35.0394 23.2058 34.5428 23.7341L33.0787 22.8894C33.0445 22.8687 33.0065 22.8552 32.9669 22.8496C32.9274 22.8439 32.8871 22.8462 32.8485 22.8564C32.8099 22.8666 32.7737 22.8843 32.7421 22.9088C32.7105 22.9332 32.6841 22.9639 32.6646 22.9988L31.4539 25.0972C31.4337 25.1316 31.4207 25.1697 31.4153 25.2092C31.41 25.2487 31.4126 25.2887 31.4229 25.3273C31.4332 25.3658 31.4511 25.4018 31.4755 25.4334C31.4998 25.465 31.5302 25.4915 31.5648 25.5112L33.0323 26.3576C32.8225 27.0513 32.7274 27.7746 32.7507 28.499L31.1143 28.938C31.0759 28.948 31.0398 28.9655 31.0081 28.9895C30.9765 29.0135 30.9499 29.0436 30.9299 29.0779C30.9099 29.1122 30.8968 29.1501 30.8916 29.1895C30.8863 29.2289 30.8888 29.269 30.899 29.3074L31.5268 31.646C31.5368 31.6844 31.5543 31.7204 31.5783 31.7521C31.6023 31.7838 31.6323 31.8103 31.6666 31.8303C31.701 31.8504 31.7389 31.8635 31.7783 31.8688C31.8177 31.8741 31.8577 31.8715 31.8961 31.8613L33.5341 31.4207C33.8754 32.061 34.3191 32.6411 34.8475 33.1382L34.0012 34.6024C33.9811 34.6368 33.968 34.6749 33.9627 34.7144C33.9573 34.7539 33.9599 34.794 33.9702 34.8325C33.9806 34.871 33.9984 34.9071 34.0228 34.9386C34.0471 34.9702 34.0775 34.9967 34.1122 35.0165L36.209 36.2255C36.3547 36.3116 36.5386 36.2586 36.623 36.1161L37.4694 34.6487C38.1631 34.8585 38.8865 34.9537 39.6109 34.9304L40.0498 36.5666C40.0598 36.6052 40.0774 36.6416 40.1015 36.6733C40.1256 36.7051 40.1558 36.7318 40.1903 36.7518C40.2248 36.7718 40.263 36.7848 40.3025 36.79C40.3421 36.7952 40.3823 36.7924 40.4208 36.7819L42.7578 36.1543C42.7964 36.1443 42.8327 36.1267 42.8645 36.1026C42.8962 36.0785 42.9229 36.0483 42.943 36.0138C42.963 35.9793 42.976 35.9412 42.9811 35.9016C42.9863 35.8621 42.9836 35.8218 42.9731 35.7833L42.5342 34.1469C43.1738 33.8055 43.7534 33.3619 44.2501 32.8336L45.7158 33.6783C45.7502 33.6985 45.7881 33.7116 45.8276 33.7171C45.867 33.7225 45.9072 33.72 45.9457 33.7098C45.9842 33.6996 46.0203 33.682 46.0519 33.6578C46.0835 33.6336 46.11 33.6034 46.1299 33.5689L47.339 31.4705C47.3591 31.436 47.3722 31.398 47.3775 31.3585C47.3828 31.3189 47.3802 31.2787 47.3699 31.2402C47.3596 31.2017 47.3417 31.1656 47.3174 31.134C47.293 31.1025 47.2626 31.0761 47.228 31.0564L45.7606 30.2117C45.9705 29.5174 46.0656 28.7934 46.0421 28.0684L47.6802 27.6313C47.7186 27.6211 47.7547 27.6033 47.7863 27.5791C47.8179 27.5549 47.8444 27.5247 47.8643 27.4902C47.8842 27.4557 47.897 27.4176 47.9021 27.3782C47.9071 27.3387 47.9043 27.2987 47.8938 27.2603L47.2678 24.9217C47.2578 24.8831 47.2402 24.8467 47.2161 24.8149C47.1919 24.7832 47.1618 24.7565 47.1272 24.7365C47.0927 24.7165 47.0546 24.7035 47.015 24.6983C46.9755 24.6931 46.9353 24.6959 46.8968 24.7064L45.2587 25.1469C44.9178 24.5074 44.4747 23.9278 43.947 23.431L44.7917 21.9652C44.8118 21.9309 44.825 21.8929 44.8305 21.8534C44.8359 21.814 44.8335 21.7738 44.8233 21.7353C44.8131 21.6968 44.7955 21.6608 44.7713 21.6292C44.7471 21.5976 44.7168 21.571 44.6823 21.5512L42.5839 20.3421C42.5497 20.3215 42.5117 20.3078 42.4721 20.3021C42.4326 20.2964 42.3923 20.2988 42.3537 20.309C42.3151 20.3192 42.2789 20.3371 42.2473 20.3615C42.2157 20.386 42.1894 20.4165 42.1698 20.4513L41.3235 21.9205C40.6298 21.7102 39.9064 21.6145 39.1819 21.6373L38.743 20.0009C38.733 19.9624 38.7155 19.9264 38.6915 19.8947C38.6675 19.8631 38.6375 19.8365 38.6031 19.8165C38.5688 19.7965 38.5309 19.7833 38.4915 19.7781C38.4521 19.7728 38.4121 19.7753 38.3737 19.7855L36.0351 20.4149V20.4133ZM38.3008 24.1928C39.3858 23.9024 40.5417 24.0547 41.5144 24.6162C42.4871 25.1777 43.1971 26.1025 43.4882 27.1873C43.7791 28.2725 43.6271 29.4288 43.0655 30.402C42.5039 31.3751 41.5788 32.0853 40.4937 32.3764C39.9562 32.5204 39.3957 32.5572 38.844 32.4846C38.2924 32.412 37.7605 32.2313 37.2786 31.9531C36.7967 31.6748 36.3744 31.3044 36.0357 30.8629C35.697 30.4215 35.4486 29.9176 35.3047 29.3801C35.0143 28.2949 35.1668 27.1389 35.7287 26.1661C36.2905 25.1933 37.2157 24.4836 38.3008 24.1928V24.1928ZM25.9899 3.3125C25.8971 3.31294 25.8082 3.35011 25.7427 3.41591C25.6772 3.48172 25.6404 3.57075 25.6404 3.66358V5.62624C24.8224 5.81607 24.0408 6.1383 23.3267 6.58022L21.942 5.19398C21.9097 5.16118 21.8711 5.13513 21.8286 5.11735C21.7861 5.09957 21.7405 5.09046 21.6944 5.09046C21.6483 5.09046 21.6027 5.09957 21.5602 5.11735C21.5177 5.13513 21.4792 5.16118 21.4468 5.19398L19.4643 7.17826C19.4315 7.21062 19.4054 7.24918 19.3877 7.29168C19.3699 7.33419 19.3607 7.37966 19.3607 7.42573C19.3607 7.4718 19.3699 7.51747 19.3877 7.55998C19.4054 7.60248 19.4315 7.64104 19.4643 7.6734L20.8522 9.06136C20.4091 9.77365 20.0851 10.5536 19.8933 11.3702H17.9323C17.886 11.3698 17.8402 11.3784 17.7974 11.3959C17.7546 11.4134 17.7157 11.4392 17.683 11.4719C17.6503 11.5046 17.6244 11.5436 17.607 11.5864C17.5895 11.6292 17.5807 11.675 17.5811 11.7212V14.5236C17.5811 14.7191 17.7385 14.8748 17.9323 14.8748H19.8949C20.0849 15.6923 20.4072 16.4733 20.8489 17.1869L19.4643 18.5733C19.4317 18.6057 19.4058 18.6442 19.3882 18.6867C19.3705 18.7292 19.3614 18.7747 19.3614 18.8207C19.3614 18.8667 19.3705 18.9123 19.3882 18.9548C19.4058 18.9973 19.4317 19.0359 19.4643 19.0684L21.4468 21.051C21.4792 21.084 21.5179 21.1103 21.5605 21.1282C21.6032 21.1461 21.649 21.1553 21.6953 21.1553C21.7415 21.1553 21.7873 21.1461 21.83 21.1282C21.8727 21.1103 21.9113 21.084 21.9437 21.051L23.33 19.663C24.0428 20.1063 24.8232 20.4302 25.6404 20.6219V22.5829C25.6404 22.7767 25.7961 22.9324 25.9899 22.9324H28.7939C28.8865 22.932 28.9751 22.895 29.0406 22.8295C29.106 22.7641 29.143 22.6754 29.1434 22.5829V20.6203C29.9615 20.4305 30.743 20.1082 31.4572 19.6662L32.8418 21.051C32.8742 21.084 32.9129 21.1103 32.9555 21.1282C32.9982 21.1461 33.044 21.1553 33.0903 21.1553C33.1365 21.1553 33.1823 21.1461 33.225 21.1282C33.2677 21.1103 33.3063 21.084 33.3387 21.051L35.3196 19.0684C35.3524 19.0359 35.3785 18.9972 35.3963 18.9546C35.4141 18.9119 35.4233 18.8661 35.4233 18.8199C35.4233 18.7737 35.4141 18.7279 35.3963 18.6853C35.3785 18.6426 35.3524 18.6039 35.3196 18.5715L33.9333 17.1853C34.376 16.4724 34.6994 15.6919 34.8906 14.8748H36.8516C36.9447 14.8748 37.034 14.8377 37.0999 14.7719C37.1657 14.7061 37.2027 14.6167 37.2027 14.5236V11.7212C37.2029 11.6751 37.194 11.6293 37.1764 11.5866C37.1589 11.5439 37.133 11.5052 37.1004 11.4725C37.0677 11.4399 37.0289 11.4141 36.9862 11.3965C36.9435 11.379 36.8978 11.37 36.8516 11.3702H34.8889C34.6989 10.5527 34.3767 9.77175 33.9349 9.05812L35.3196 7.6734C35.3526 7.64101 35.3789 7.60243 35.3968 7.55977C35.4147 7.51711 35.424 7.47119 35.424 7.42492C35.424 7.37865 35.4147 7.33293 35.3968 7.29027C35.3789 7.24761 35.3526 7.20883 35.3196 7.17644L33.337 5.19398C33.3047 5.16118 33.2661 5.13513 33.2236 5.11735C33.1811 5.09957 33.1355 5.09046 33.0894 5.09046C33.0434 5.09046 32.9977 5.09957 32.9552 5.11735C32.9127 5.13513 32.8742 5.16118 32.8418 5.19398L31.4539 6.58204C30.741 6.13929 29.9605 5.81582 29.1434 5.62462V3.66358C29.1436 3.61755 29.1347 3.57193 29.1173 3.52934C29.0998 3.48675 29.0741 3.44804 29.0416 3.41541C29.0092 3.38278 28.9706 3.35695 28.9281 3.33929C28.8855 3.32162 28.84 3.3125 28.7939 3.3125H25.9899V3.3125ZM27.3928 8.21827C28.6933 8.21871 29.9404 8.73554 30.86 9.65516C31.7796 10.5748 32.2965 11.822 32.2969 13.1225C32.2969 14.4233 31.7803 15.6709 30.8606 16.5909C29.941 17.5109 28.6936 18.0278 27.3928 18.0282C26.0916 18.0282 24.8438 17.5113 23.9238 16.5913C23.0038 15.6713 22.4869 14.4236 22.4869 13.1225C22.4874 11.8217 23.0044 10.5742 23.9244 9.65455C24.8444 8.73489 26.0919 8.21827 27.3928 8.21827V8.21827Z" fill="#418DFE"/>
</svg>
