<svg width="50" height="50" viewBox="0 0 50 50" fill="none" xmlns="http://www.w3.org/2000/svg">
<path d="M0 25C0 11.1929 11.1929 0 25 0C38.8071 0 50 11.1929 50 25C50 38.8071 38.8071 50 25 50C11.1929 50 0 38.8071 0 25Z" fill="#333333"/>
<path d="M20.155 39.9225C22.9379 39.9225 25.1938 37.6666 25.1938 34.8837V29.845H20.155C17.3722 29.845 15.1163 32.101 15.1163 34.8837C15.1163 37.6666 17.3722 39.9225 20.155 39.9225Z" fill="#0ACF83"/>
<path d="M15.1163 24.8062C15.1163 22.0234 17.3722 19.7675 20.155 19.7675H25.1938V29.845H20.155C17.3722 29.845 15.1163 27.589 15.1163 24.8062Z" fill="#A259FF"/>
<path d="M15.1163 15.1163C15.1163 12.3334 17.3722 10.0775 20.155 10.0775H25.1938V20.155H20.155C17.3722 20.155 15.1163 17.899 15.1163 15.1163Z" fill="#F24E1E"/>
<path d="M24.8062 10.0775H29.845C32.6278 10.0775 34.8837 12.3334 34.8837 15.1163C34.8837 17.899 32.6278 20.155 29.845 20.155H24.8062V10.0775Z" fill="#FF7262"/>
<path d="M34.8837 24.8062C34.8837 27.589 32.6278 29.845 29.845 29.845C27.0621 29.845 24.8062 27.589 24.8062 24.8062C24.8062 22.0234 27.0621 19.7675 29.845 19.7675C32.6278 19.7675 34.8837 22.0234 34.8837 24.8062Z" fill="#1ABCFE"/>
</svg>
