<svg width="50" height="41" viewBox="0 0 50 41" fill="none" xmlns="http://www.w3.org/2000/svg">
<g clip-path="url(#clip0_2790_12545)">
<path d="M33.2518 11.0966L37.5978 6.75015L37.8867 4.92104C29.9678 -2.2811 17.3785 -1.46372 10.2377 6.62478C8.24202 8.91681 6.79285 11.6321 5.9995 14.5658L7.55538 14.3455L16.2479 12.9146L16.9178 12.2287C18.777 10.1731 21.3503 8.9039 24.1129 8.67987C26.8756 8.45584 29.6197 9.29384 31.7858 11.023L33.2518 11.0966Z" fill="#EA4335"/>
<path d="M43.7909 14.4358C42.7919 10.7566 40.7406 7.44904 37.8886 4.91907L31.7881 11.0195C33.0593 12.0582 34.0781 13.3719 34.7675 14.8616C35.457 16.3513 35.7992 17.9782 35.7684 19.6194V20.7017C37.2001 20.7017 38.5733 21.2704 39.5857 22.2829C40.5981 23.2953 41.1669 24.6684 41.1669 26.1002C41.1669 27.532 40.5981 28.9051 39.5857 29.9176C38.5733 30.93 37.2001 31.4988 35.7684 31.4988H24.8965L23.8295 32.658V39.1708L24.8965 40.1936H35.7687C38.7974 40.2256 41.7556 39.2803 44.2045 37.498C46.6535 35.7156 48.4625 33.1913 49.3632 30.2995C50.2639 27.4077 50.2082 24.3025 49.2045 21.4449C48.2008 18.5872 46.3025 16.1292 43.7913 14.4358" fill="#4285F4"/>
<path d="M14.0369 40.1935H24.8973V31.5011H14.0369C13.2685 31.5005 12.5092 31.3344 11.8107 31.014L10.2701 31.4858L5.89318 35.8319L5.51212 37.3108C7.96237 39.1774 10.9567 40.1899 14.0369 40.1935Z" fill="#34A853"/>
<path d="M14.0373 11.9974C11.0952 12.0153 8.23214 12.9516 5.84795 14.6755C3.46376 16.3995 1.67749 18.825 0.738602 21.6133C-0.200286 24.4017 -0.244915 27.4136 0.610947 30.2285C1.46681 33.0435 3.18043 35.5208 5.51249 37.3146L11.8115 31.0156C11.0111 30.654 10.3104 30.1037 9.76943 29.4117C9.2285 28.7198 8.86352 27.9069 8.70581 27.0429C8.54809 26.1789 8.60236 25.2895 8.86395 24.451C9.12554 23.6126 9.58664 22.8501 10.2077 22.2291C10.8287 21.6081 11.5912 21.147 12.4296 20.8854C13.2681 20.6238 14.1574 20.5695 15.0215 20.7272C15.8855 20.8849 16.6983 21.2499 17.3903 21.7908C18.0822 22.3318 18.6326 23.0325 18.9942 23.8329L25.2932 17.5339C23.9711 15.8055 22.2671 14.4064 20.3144 13.4459C18.3618 12.4854 16.2134 11.9897 14.0373 11.9974Z" fill="#FBBC05"/>
</g>
<defs>
<clipPath id="clip0_2790_12545">
<rect width="50" height="40.1944" fill="white"/>
</clipPath>
</defs>
</svg>
