<svg width="128" height="128" viewBox="0 0 128 128" fill="none" xmlns="http://www.w3.org/2000/svg">
<path fill-rule="evenodd" clip-rule="evenodd" d="M21.1 68.7C21.3 72.2 24.8 70.6 26.4 69.5C27.9 68.4 28.4 69.3 28.5 67.2C28.6 65.8 28.7 64.5 28.7 63.1C26.4 62.9 23.9 63.4 22 64.8C21.1 65.5 19.2 67.8 21.1 68.7" fill="#F6D2A2"/>
<path d="M23 71.2C22.3 71.2 21 70.9001 20.8 68.9001C20.2 68.5001 20 68 20 67.7C19.9 66.5 21.2 65.1 21.9 64.6C23.5 63.4 25.6 62.8 27.8 62.8H29.1V63.1C29.2 64.2 29.1 65.3001 29 66.3001C29 66.6001 29 66.9 28.9 67.2C28.8 68.7 28.5 68.9 27.8 69.2C27.5 69.3 27.2 69.4001 26.7 69.8001C26.2 70.1001 24.5 71.2 23 71.2V71.2ZM27.8 63.4001C25.7 63.4001 23.8 64 22.3 65.1C21.6 65.6 20.6 66.8 20.7 67.6C20.7 67.9 20.9 68.2001 21.3 68.4001L21.5 68.5V68.7C21.6 70.3 22.4 70.5 23 70.5C24 70.5 25.4 69.8 26.3 69.2C26.9 68.8 27.3 68.7 27.6 68.6C28.1 68.4 28.2 68.4 28.3 67.2C28.3 66.9 28.3 66.6001 28.4 66.3001C28.5 65.4001 28.5 64.4 28.5 63.5C28.2 63.4 28 63.4001 27.8 63.4001V63.4001Z" fill="black"/>
<path fill-rule="evenodd" clip-rule="evenodd" d="M21.1 68.7C21.6 68.5 22.2 68.4 22.5 67.9Z" fill="#C6B198"/>
<path d="M21.1 69C21 69 20.8 68.9 20.8 68.8C20.7 68.6 20.8 68.4 21 68.4C21.1 68.4 21.2 68.3 21.2 68.3C21.6 68.1 22 68 22.2 67.7C22.3 67.6 22.5 67.5 22.7 67.6C22.8 67.7 22.9 67.9 22.8 68.1C22.4 68.6 21.9 68.8 21.5 68.9L21.3 69H21.1Z" fill="black"/>
<path fill-rule="evenodd" clip-rule="evenodd" d="M29.3 26.3999C15.7 22.5999 25.8 5.29991 36.7 12.3999L29.3 26.3999V26.3999Z" fill="#6AD7E5"/>
<path d="M29.5 26.7999L29.2 26.6999C22.2 24.6999 22.3 19.6999 22.5 18.1999C23 14.3999 26.6 10.3999 31.4 10.3999C33.3 10.3999 35.1 10.9999 36.9 12.1999L37.2 12.3999L29.5 26.7999V26.7999ZM31.4 11.0999C26.9 11.0999 23.6 14.7999 23.1 18.2999C22.6 21.8999 24.8 24.6999 29.1 25.9999L36.2 12.4999C34.7 11.5999 33.1 11.0999 31.4 11.0999V11.0999Z" fill="black"/>
<path fill-rule="evenodd" clip-rule="evenodd" d="M89.6 11.1C100.3 3.59997 110.1 20.6 97.6 24.9L89.6 11.1V11.1Z" fill="#6AD7E5"/>
<path d="M97.5 25.3L89.2 11L89.5 10.8C91.4 9.50005 93.3 8.80005 95.2 8.80005C99.8 8.80005 103.1 12.6 103.8 16.3C104.1 17.8 104.4 22.9 97.8 25.1L97.5 25.3ZM90.1 11.3L97.8 24.6C101.7 23.2 103.7 20.2 103.1 16.6C102.5 13.2 99.4 9.70005 95.2 9.70005C93.5 9.60005 91.8 10.1 90.1 11.3Z" fill="black"/>
<path fill-rule="evenodd" clip-rule="evenodd" d="M92 112.3C94.7 114 99.7 119.1 95.6 121.6C91.7 125.2 89.5 117.6 86 116.6C87.5 114.6 89.4 112.7 92 112.3Z" fill="#F6D2A2"/>
<path d="M93.5 122.9C91.9 122.9 90.5 121.3 89.3 119.8C88.2 118.6 87.1 117.3 85.9 116.9L85.4 116.8L85.7 116.4C86.9 114.7 88.9 112.5 91.9 112H92L92.1 112.1C93.8 113.2 97.5 116.3 97.4 119.2C97.4 120.3 96.8 121.2 95.7 121.9C95 122.6 94.3 122.9 93.5 122.9V122.9ZM86.5 116.4C87.7 116.9 88.7 118.2 89.7 119.3C90.9 120.8 92.1 122.1 93.4 122.1C94 122.1 94.6 121.8 95.2 121.2H95.3C96.2 120.6 96.7 119.9 96.7 119C96.7 116.7 93.8 113.8 91.8 112.5C90 113 88.2 114.2 86.5 116.4ZM95.6 121.9C95.5 121.9 95.4 121.8 95.3 121.7C95.1 121.3 94.9 120.8 94.8 120.4C94.5 119.6 94.2 118.8 93.6 118.2C93.5 118.1 93.5 117.9 93.6 117.7C93.7 117.6 93.9 117.6 94.1 117.7C94.8 118.4 95.2 119.3 95.5 120.2L96 121.4C96.1 121.6 96 121.8 95.9 121.9H95.6V121.9Z" fill="black"/>
<path fill-rule="evenodd" clip-rule="evenodd" d="M43.2 118.1C40 118.6 38.2 121.5 35.5 123C33 124.5 32 122.5 31.8 122.1C31.4 121.9 31.4 122.3 30.8 121.7C28.5 118 33.2 115.3 35.7 113.5C39.2 112.7 41.4 115.7 43.2 118.1" fill="#F6D2A2"/>
<path d="M33.8 123.8C32.5 123.8 31.8 122.7 31.6 122.3H31.5C31.2 122.3 31 122.2 30.6 121.8V121.7C28.4 118.2 32.2 115.5 34.7 113.7L35.6 113.1H35.8C36.2 113 36.5 113 36.9 113C39.9 113 41.8 115.6 43.4 117.7L43.9 118.4L43.3 118.5C41.4 118.8 40 120 38.6 121.2C37.7 122 36.8 122.7 35.8 123.3C35 123.6 34.4 123.8 33.8 123.8V123.8ZM31.6 121.7C31.7 121.7 31.8 121.7 32 121.8H32.1L32.2 121.9C32.4 122.2 32.9 123.1 33.9 123.1C34.4 123.1 34.9 122.9 35.4 122.6C36.4 122.1 37.3 121.3 38.1 120.6C39.4 119.5 40.8 118.3 42.6 117.8C41.1 115.8 39.3 113.6 36.8 113.6C36.5 113.6 36.2 113.6 35.9 113.7L35.1 114.3C32.5 116.1 29.3 118.4 31.2 121.4C31.3 121.6 31.4 121.7 31.6 121.7V121.7ZM31.8 122.4C31.6 122.4 31.4 122.2 31.5 122C31.6 121 32.1 120.3 32.6 119.5C32.9 119.1 33.1 118.7 33.3 118.3C33.4 118.1 33.6 118.1 33.7 118.1C33.9 118.2 33.9 118.4 33.9 118.5C33.7 119 33.4 119.4 33.1 119.8C32.6 120.5 32.2 121.1 32.1 121.9C32.1 122.3 32 122.4 31.8 122.4V122.4Z" fill="black"/>
<path fill-rule="evenodd" clip-rule="evenodd" d="M29.9 21.7C28.1 20.8 26.8 19.5 27.9 17.4C28.9 15.5 30.8 15.7 32.6 16.6L29.9 21.7V21.7ZM94.8 19.9C96.6 19 97.9 17.7 96.8 15.6C95.8 13.7 93.9 13.9 92.1 14.8L94.8 19.9Z" fill="black"/>
<path fill-rule="evenodd" clip-rule="evenodd" d="M107.1 68.2C106.9 71.7 103.4 70.1 101.8 69C100.3 67.9 99.8 68.8 99.7 66.7C99.6 65.3 99.5 64 99.5 62.6C101.8 62.4 104.3 62.9 106.2 64.3C107.2 65.1 109 67.3 107.1 68.2" fill="#F6D2A2"/>
<path d="M105.3 70.7C103.8 70.7 102.1 69.6001 101.6 69.3001C101.1 69.0001 100.8 68.8 100.5 68.7C99.7 68.4 99.5 68.2 99.4 66.7C99.4 66.4 99.4 66.1001 99.3 65.8001C99.2 64.8001 99.1 63.7 99.2 62.6V62.3H100.5C102.7 62.3 104.8 62.9 106.4 64.1C107.1 64.6 108.4 66 108.3 67.2C108.3 67.6 108.1 68.1001 107.5 68.4001C107.3 70.4001 106 70.7 105.3 70.7V70.7ZM99.8 63C99.8 63.9 99.8 64.9001 99.9 65.8001C99.9 66.1001 99.9 66.4 100 66.7C100.1 67.9 100.2 67.9 100.7 68.1C101 68.2 101.4 68.4 102 68.7C102.9 69.3 104.3 70 105.3 70C105.9 70 106.7 69.8 106.8 68.2V68L107 67.9001C107.4 67.7001 107.6 67.5 107.6 67.1C107.7 66.3 106.7 65.1 106 64.6C104.5 63.5 102.5 62.9001 100.5 62.9001C100.3 63.0001 100.1 63 99.8 63V63Z" fill="black"/>
<path fill-rule="evenodd" clip-rule="evenodd" d="M107.1 68.2C106.6 68 106 67.9 105.7 67.4Z" fill="#C6B198"/>
<path d="M107.1 68.6H107L106.8 68.5C106.3 68.3 105.8 68.2 105.5 67.7C105.4 67.6 105.4 67.3 105.6 67.2C105.7 67.1 106 67.1 106.1 67.3C106.3 67.6 106.7 67.7 107.1 67.9C107.2 67.9 107.3 68 107.3 68C107.5 68.1 107.6 68.3 107.5 68.4C107.4 68.5 107.2 68.6 107.1 68.6Z" fill="black"/>
<path fill-rule="evenodd" clip-rule="evenodd" d="M62.8 4C76.4 4 89.1 5.9 95.8 19C101.8 33.6 99.6 49.4 100.6 64.9C101.4 78.2 103.1 93.5 97 105.8C90.5 118.7 74.3 122 61 121.5C50.5 121.1 37.9 117.7 31.9 108.1C25 96.9 28.2 80.2 28.7 67.7C29.3 52.9 24.7 38 29.6 23.6C34.5 8.5 48.1 5.1 62.8 4" fill="#6AD7E5"/>
<path d="M63.3 121.9H60.8C56.7 121.8 50.5 121.1 44.4 118.6C38.5 116.2 34.2 112.8 31.4 108.3C25.8 99.1999 26.8 86.6999 27.7 75.5999C27.9 72.7999 28.1 70.1999 28.2 67.6999C28.4 62.4999 28 57.0999 27.5 51.9999C26.7 42.5999 25.9 32.8999 29 23.4999C31.4 16.4999 35.7 11.4999 42.2 8.2999C47.3 5.7999 53.6 4.3999 62.6 3.6999C76 3.5999 89.3 5.4999 96 18.7999C100.4 29.4999 100.4 40.9999 100.5 52.0999C100.5 56.2999 100.5 60.5999 100.8 64.7999C100.9 66.0999 101 67.3999 101 68.6999C101.8 80.8999 102.7 94.6999 97.1 105.9C94.3 111.6 89.4 115.8 82.7 118.5C77.3 120.7 70.5 121.9 63.3 121.9V121.9ZM62.8 4.2999C48.7 5.3999 34.9 8.49991 29.8 23.6999C26.7 32.9999 27.5 42.5999 28.3 51.8999C28.7 57.0999 29.2 62.3999 29 67.6999C28.9 70.1999 28.7 72.7999 28.5 75.5999C27.6 86.5999 26.6 98.9999 32.1 107.9C34.4 111.6 41.8 120.4 60.9 121.1H63.4C85.5 121.1 93.7 111.3 96.7 105.5C102.2 94.4999 101.3 80.6999 100.6 68.5999C100.5 67.2999 100.4 65.9999 100.4 64.6999C100.2 60.4999 100.1 56.1999 100.1 51.9999C100 40.9999 100 29.4999 95.7 18.8999C92.7 12.9999 88.2 8.9999 82 6.6999C75.6 4.5999 68.4 4.2999 62.8 4.2999V4.2999Z" fill="black"/>
<path fill-rule="evenodd" clip-rule="evenodd" d="M65.2 22.2C67.6 36.4 90.8 32.6 87.5 18.3C84.5 5.49999 64.4 9.09999 65.2 22.2Z" fill="white"/>
<path d="M76.2 31.5001C71.7 31.5001 66 29.1001 64.8 22.3001C64.6 19.1001 65.6 16.2001 67.7 14.0001C70 11.5001 73.5 10.1001 77.1 10.1001C81.3 10.1001 86.3 12.3001 87.7 18.4001C88.5 21.8001 87.9 24.8001 86 27.2001C83.9 29.8001 80.2 31.5001 76.2 31.5001ZM65.5 22.2001C66 25.0001 67.3 27.2001 69.4 28.8001C71.2 30.2001 73.7 30.9001 76.2 30.9001C79.9 30.9001 83.5 29.3001 85.5 26.8001C87.3 24.6001 87.8 21.7001 87.1 18.5001C85.8 12.8001 81.1 10.8001 77.1 10.8001C73.7 10.8001 70.4 12.2001 68.2 14.5001C66.3 16.5001 65.3 19.2001 65.5 22.2001V22.2001Z" fill="black"/>
<path fill-rule="evenodd" clip-rule="evenodd" d="M37.5 24.4999C40.7 36.7999 60.4 33.6999 59.7 21.2999C58.8 6.49994 34.4 9.29994 37.5 24.4999Z" fill="white"/>
<path d="M48 32.7C43.7 32.7 38.7 30.6 37.1 24.6C36.4 21.1 37.1 17.9 39.1 15.5C41.3 12.8 44.9 11.2 48.8 11.2C54 11.2 59.5 14.3 59.9 21.3C60.1 24.2 59.2 26.8 57.2 28.9C55.1 31.2 51.6 32.7 48 32.7ZM48.8 11.9C45.1 11.9 41.7 13.4 39.6 15.9C37.7 18.2 37.1 21.1 37.8 24.4C39.2 30 44 32 48 32C51.4 32 54.7 30.7 56.8 28.4C58.6 26.5 59.5 24 59.3 21.3C59.1 17 56.2 11.9 48.8 11.9V11.9Z" fill="black"/>
<path fill-rule="evenodd" clip-rule="evenodd" d="M68 39.2C68 41 68.4 43.1 68.1 45.1C67.6 46 66.7 46.1 65.9 46.4C64.8 46.2 63.9 45.5 63.4 44.5C63.1 42.3 63.5 40.1 63.6 37.9L68 39.2V39.2Z" fill="white"/>
<path d="M65.9 46.8C64.6 46.6 63.6 45.8 63.1 44.7C62.9 43.1 63 41.6 63.1 40.1C63.2 39.4 63.2 38.7 63.2 38V37.6L68.3 39.2V39.4C68.3 40 68.4 40.6 68.4 41.3C68.5 42.6 68.6 44 68.4 45.3V45.4C68 46.2 67.3 46.4 66.6 46.7C66.4 46.6 66.2 46.7 65.9 46.8ZM63.7 44.4C64.1 45.3 64.9 45.9 65.8 46.1C66 46 66.2 46 66.3 45.9C66.9 45.7 67.4 45.5 67.7 45C67.9 43.8 67.8 42.5 67.7 41.2C67.7 40.6 67.6 40 67.6 39.5L63.8 38.3C63.8 38.9 63.7 39.5 63.7 40C63.6 41.6 63.5 43 63.7 44.4V44.4Z" fill="black"/>
<path fill-rule="evenodd" clip-rule="evenodd" d="M46.3 22.4999C46.3 24.4999 44.8 26.0999 43 26.0999C41.2 26.0999 39.7 24.4999 39.7 22.4999C39.7 20.4999 41.2 18.8999 43 18.8999C44.8 18.8999 46.3 20.4999 46.3 22.4999Z" fill="black"/>
<path fill-rule="evenodd" clip-rule="evenodd" d="M45.2 23.2999C45.2 23.7999 44.8 24.1999 44.4 24.1999C44 24.1999 43.6 23.7999 43.6 23.2999C43.6 22.7999 44 22.3999 44.4 22.3999C44.9 22.3999 45.2 22.7999 45.2 23.2999Z" fill="white"/>
<path fill-rule="evenodd" clip-rule="evenodd" d="M74.2 21.6C74.2 23.6 72.7 25.2 70.9 25.2C69.1 25.2 67.6 23.6 67.6 21.6C67.6 19.6 69.1 18 70.9 18C72.7 18 74.2 19.6 74.2 21.6Z" fill="black"/>
<path fill-rule="evenodd" clip-rule="evenodd" d="M73.2 22.4C73.2 22.9 72.9 23.3 72.4 23.3C72 23.3 71.6 22.9 71.6 22.4C71.6 21.9 71.9 21.5 72.4 21.5C72.8 21.5 73.2 21.9 73.2 22.4ZM58.4 39C56.9 42.5 59.2 49.6 63.2 44.4C62.9 42.2 63.3 40 63.4 37.8L58.4 39Z" fill="white"/>
<path d="M60.5 46.6C59.8 46.6 59.1 46.2001 58.6 45.4001C57.5 43.8001 57.3 40.8001 58.1 38.9001L58.2 38.7001L63.7 37.3V37.7001L63.6 39.9001C63.5 41.4001 63.4 42.8 63.6 44.3V44.4001L63.5 44.5C62.5 45.9 61.5 46.6 60.5 46.6ZM58.7 39.3C58.1 41 58.3 43.7 59.2 45C59.6 45.6 60 45.9001 60.5 45.9001C61.2 45.9001 62 45.3 62.8 44.3C62.6 42.8 62.7 41.3001 62.9 39.9001L63 38.2001L58.7 39.3Z" fill="black"/>
<path fill-rule="evenodd" clip-rule="evenodd" d="M58.9 32.2001C56.2 32.4001 54 35.7001 55.4 38.2001C57.3 41.6001 61.4 37.9001 64 38.2001C67 38.3001 69.4 41.4 71.8 38.8C74.5 35.9 70.6 33.1 67.7 31.8L58.9 32.2001V32.2001Z" fill="#F6D2A2"/>
<path d="M69.7 40.2C68.8 40.2 67.9 39.8 67 39.4C66.1 39 65.1 38.6 64 38.6H63.7C62.9 38.6 62 38.9 61 39.3C59.9 39.7 58.8 40 57.8 40C56.6 40 55.7 39.5 55.1 38.4C54.4 37.2 54.5 35.8 55.2 34.5C56 33 57.4 32.1 58.9 31.9L67.8 31.5H67.9C70.1 32.4 72.6 34.1 73.1 36.1C73.3 37.1 73 38.1 72.2 39C71.4 39.9 70.6 40.2 69.7 40.2V40.2ZM64.1 38C65.2 38 66.3 38.5 67.3 38.9C68.2 39.3 69 39.6 69.8 39.6C70.5 39.6 71.1 39.3 71.7 38.7C72.4 38 72.6 37.2 72.5 36.4C72.1 34.7 69.7 33.1 67.8 32.3L59.1 32.7C57.8 32.8 56.6 33.7 55.9 34.9C55.3 36 55.3 37.2 55.8 38.2C56.3 39.1 56.9 39.5 57.9 39.5C58.8 39.5 59.8 39.1 60.8 38.8C61.9 38.4 62.8 38.1 63.8 38.1C63.8 37.9 63.9 37.9 64.1 38V38Z" fill="#231F20"/>
<path fill-rule="evenodd" clip-rule="evenodd" d="M58.6 32.1C58.4 27.4 67.4 26.8 68.4 30.7C69.5 34.7 59 35.6 58.6 32.1" fill="black"/>
</svg>
