<svg width="286" height="244" viewBox="0 0 286 244" fill="none" xmlns="http://www.w3.org/2000/svg">
<path d="M82 70H84.6195V72.5881H87.0157V70H89.6352V77.8372H87.0157V75.2129H84.6195V77.8372H82V70ZM93.0797 72.5991H90.774V70H98.0065V72.5991H95.6997V77.8372H93.0802L93.0797 72.5991ZM99.1546 70H101.887L103.567 72.7534L105.244 70H107.977V77.8372H105.368V73.9523L103.566 76.7387H103.521L101.717 73.9523V77.8366H99.1541L99.1546 70ZM109.28 70H111.9V75.2464H115.584V77.8366H109.28V70Z" fill="black"/>
<g filter="url(#filter0_d_5183_12606)">
<path d="M117.693 80.5013L114.259 118.97L98.8236 123.249L83.4306 118.976L80 80.5013H117.693Z" fill="#E44D26"/>
<path d="M98.8466 119.978L111.32 116.521L114.254 83.6471H98.8466V119.978Z" fill="#F16529"/>
<path d="M92.1708 93.085H98.8461V88.3687H87.0139L87.1269 89.6348L88.2867 102.638H98.8466V97.9172H92.6022L92.1708 93.085ZM93.2343 104.995H88.4974L89.1583 112.404L98.8246 115.086L98.8461 115.08V110.172L98.8256 110.178L93.5705 108.759L93.2353 104.995H93.2343Z" fill="#EBEBEB"/>
<path d="M98.8303 102.635H104.641L104.093 108.755L98.8298 110.176V115.085L108.503 112.403L108.574 111.606L109.683 99.1828L109.798 97.9158H98.8303V102.635ZM98.8303 93.073V93.0845H110.227L110.323 92.0238L110.538 89.6295L110.651 88.3634H98.8303V93.0706V93.073Z" fill="white"/>
</g>
<path d="M159.606 72.3451H155.882L159.755 76.5485V78.5496H151.777V76.2065H155.65L151.777 72.0031V70H159.606V72.3451V72.3451ZM150.195 72.3451H146.471L150.344 76.5485V78.5496H142.366V76.2065H146.239L142.366 72.0031V70H150.195V72.3451V72.3451ZM140.876 72.4409H136.857V76.1087H140.876V78.5496H134V70H140.876V72.4409V72.4409Z" fill="#131313"/>
<g filter="url(#filter1_d_5183_12606)">
<path d="M131.43 119.284L128 80.8093H165.692L162.259 119.278L146.823 123.557L131.43 119.284V119.284Z" fill="#1572B6"/>
<path d="M146.847 120.286L159.319 116.828L162.254 83.9556H146.847V120.286Z" fill="#33A9DC"/>
<path d="M146.846 97.8946H153.09L153.522 93.0627H146.846V88.3439H158.679L158.566 89.6098L157.406 102.613H146.846V97.8946V97.8946Z" fill="white"/>
<path d="M146.875 110.15L146.854 110.156L141.599 108.736L141.263 104.973H136.526L137.188 112.382L146.853 115.065L146.875 115.059V110.15H146.875Z" fill="#EBEBEB"/>
<path d="M152.69 102.413L152.121 108.733L146.858 110.153V115.063L156.532 112.382L156.603 111.585L157.424 102.413H152.69V102.413Z" fill="white"/>
<path d="M146.863 88.3439V93.0623H135.465L135.37 92.0018L135.155 89.6098L135.042 88.3439H146.863ZM146.846 97.895V102.614H141.658L141.563 101.553L141.348 99.161L141.235 97.895H146.846V97.895Z" fill="#EBEBEB"/>
</g>
<defs>
<filter id="filter0_d_5183_12606" x="0" y="0.501343" width="237.693" height="242.748" filterUnits="userSpaceOnUse" color-interpolation-filters="sRGB">
<feFlood flood-opacity="0" result="BackgroundImageFix"/>
<feColorMatrix in="SourceAlpha" type="matrix" values="0 0 0 0 0 0 0 0 0 0 0 0 0 0 0 0 0 0 127 0" result="hardAlpha"/>
<feOffset dx="20" dy="20"/>
<feGaussianBlur stdDeviation="50"/>
<feComposite in2="hardAlpha" operator="out"/>
<feColorMatrix type="matrix" values="0 0 0 0 0 0 0 0 0 0 0 0 0 0 0 0 0 0 0.25 0"/>
<feBlend mode="normal" in2="BackgroundImageFix" result="effect1_dropShadow_5183_12606"/>
<feBlend mode="normal" in="SourceGraphic" in2="effect1_dropShadow_5183_12606" result="shape"/>
</filter>
<filter id="filter1_d_5183_12606" x="48" y="0.809326" width="237.693" height="242.748" filterUnits="userSpaceOnUse" color-interpolation-filters="sRGB">
<feFlood flood-opacity="0" result="BackgroundImageFix"/>
<feColorMatrix in="SourceAlpha" type="matrix" values="0 0 0 0 0 0 0 0 0 0 0 0 0 0 0 0 0 0 127 0" result="hardAlpha"/>
<feOffset dx="20" dy="20"/>
<feGaussianBlur stdDeviation="50"/>
<feComposite in2="hardAlpha" operator="out"/>
<feColorMatrix type="matrix" values="0 0 0 0 0 0 0 0 0 0 0 0 0 0 0 0 0 0 0.25 0"/>
<feBlend mode="normal" in2="BackgroundImageFix" result="effect1_dropShadow_5183_12606"/>
<feBlend mode="normal" in="SourceGraphic" in2="effect1_dropShadow_5183_12606" result="shape"/>
</filter>
</defs>
</svg>
