<svg width="429" height="142" viewBox="0 0 429 142" fill="none" xmlns="http://www.w3.org/2000/svg">
<path d="M133.049 125.476H8.94951C6.58285 125.476 4.64648 123.54 4.64648 121.173V96.3664C4.64648 93.9997 6.58285 92.0634 8.94951 92.0634H133.049C135.416 92.0634 137.352 93.9997 137.352 96.3664V121.173C137.352 123.562 135.437 125.476 133.049 125.476Z" fill="#E5F3FF"/>
<path opacity="0.3" d="M132.726 92.343H63.1895V106.349C63.1895 111.319 67.2128 115.343 72.1828 115.343H137.352V96.9473C137.352 94.4085 135.287 92.343 132.726 92.343Z" fill="white"/>
<path d="M137.352 109.878V96.9688C137.352 94.4085 135.287 92.343 132.726 92.343H74.1621V93.01C74.1621 96.3664 76.873 99.0773 80.2294 99.0773H131.306V103.811C131.285 107.167 134.017 109.878 137.352 109.878Z" fill="white"/>
<path d="M133.049 39.8676H8.94951C6.58285 39.8676 4.64648 37.9312 4.64648 35.5645V10.7576C4.64648 8.39089 6.58285 6.45453 8.94951 6.45453H133.049C135.416 6.45453 137.352 8.39089 137.352 10.7576V35.5645C137.352 37.9527 135.437 39.8676 133.049 39.8676Z" fill="#E5F3FF"/>
<path opacity="0.3" d="M132.726 6.45453H63.1895V20.4609C63.1895 25.4309 67.2128 29.4542 72.1828 29.4542H137.352V11.0803C137.352 8.51998 135.287 6.45453 132.726 6.45453Z" fill="white"/>
<path d="M137.352 23.9894V11.0803C137.352 8.51998 135.287 6.45453 132.726 6.45453H74.1621V7.1215C74.1621 10.4779 76.873 13.1888 80.2294 13.1888H131.306V17.9221C131.285 21.2785 134.017 23.9894 137.352 23.9894Z" fill="white"/>
<path d="M133.049 41.4812H8.94987C5.67957 41.4812 3.0332 38.8348 3.0332 35.5645V10.7575C3.0332 7.48725 5.67957 4.84088 8.94987 4.84088H133.049C136.32 4.84088 138.966 7.48725 138.966 10.7575V35.5645C138.966 38.8348 136.32 41.4812 133.049 41.4812ZM8.94987 8.06815C7.46532 8.06815 6.26048 9.273 6.26048 10.7575V35.5645C6.26048 37.0491 7.46532 38.2539 8.94987 38.2539H133.049C134.534 38.2539 135.739 37.0491 135.739 35.5645V10.7575C135.739 9.273 134.534 8.06815 133.049 8.06815H8.94987Z" fill="#418DFE"/>
<path d="M133.049 82.6827H8.94951C6.58285 82.6827 4.64648 80.7464 4.64648 78.3797V53.5727C4.64648 51.2061 6.58285 49.2697 8.94951 49.2697H133.049C135.416 49.2697 137.352 51.2061 137.352 53.5727V78.3797C137.352 80.7464 135.437 82.6827 133.049 82.6827Z" fill="#E5F3FF"/>
<path opacity="0.3" d="M132.726 48.6888H63.1895V62.6951C63.1895 67.6651 67.2128 71.6885 72.1828 71.6885H137.352V53.293C137.352 50.7758 135.287 48.6888 132.726 48.6888Z" fill="white"/>
<path d="M137.352 66.2236V53.3145C137.352 50.7542 135.287 48.6888 132.726 48.6888H74.1621V49.3558C74.1621 52.7121 76.873 55.423 80.2294 55.423H131.306V60.1564C131.285 63.5127 134.017 66.2236 137.352 66.2236Z" fill="white"/>
<path d="M133.049 84.2964H8.94987C5.67957 84.2964 3.0332 81.65 3.0332 78.3797V53.5727C3.0332 50.3024 5.67957 47.6561 8.94987 47.6561H133.049C136.32 47.6561 138.966 50.3024 138.966 53.5727V78.3797C138.966 81.65 136.32 84.2964 133.049 84.2964ZM8.94987 50.8833C7.46532 50.8833 6.26048 52.0882 6.26048 53.5727V78.3797C6.26048 79.8643 7.46532 81.0691 8.94987 81.0691H133.049C134.534 81.0691 135.739 79.8643 135.739 78.3797V53.5727C135.739 52.0882 134.534 50.8833 133.049 50.8833H8.94987ZM133.049 127.09H8.94987C5.67957 127.09 3.0332 124.444 3.0332 121.173V96.3664C3.0332 93.0961 5.67957 90.4497 8.94987 90.4497H133.049C136.32 90.4497 138.966 93.0961 138.966 96.3664V121.173C138.966 124.444 136.32 127.09 133.049 127.09ZM8.94987 93.677C7.46532 93.677 6.26048 94.8818 6.26048 96.3664V121.173C6.26048 122.658 7.46532 123.863 8.94987 123.863H133.049C134.534 123.863 135.739 122.658 135.739 121.173V96.3664C135.739 94.8818 134.534 93.677 133.049 93.677H8.94987Z" fill="#418DFE"/>
<path d="M37.1342 39.8676H19.75V49.2482H37.1342V39.8676Z" fill="#6EBAFF"/>
<path d="M122.249 39.8676H104.865V49.2482H122.249V39.8676Z" fill="#6EBAFF"/>
<path d="M37.1342 82.6827H19.75V92.0633H37.1342V82.6827Z" fill="#6EBAFF"/>
<path d="M122.249 82.6827H104.865V92.0633H122.249V82.6827Z" fill="#6EBAFF"/>
<path d="M37.1346 50.8833H19.7504C18.8682 50.8833 18.1367 50.1518 18.1367 49.2697V39.8891C18.1367 39.007 18.8682 38.2755 19.7504 38.2755H37.1346C38.0167 38.2755 38.7482 39.007 38.7482 39.8891V49.2697C38.7482 50.1518 38.0382 50.8833 37.1346 50.8833ZM21.364 47.6561H35.521V41.5027H21.364V47.6561ZM122.249 50.8833H104.864C103.982 50.8833 103.251 50.1518 103.251 49.2697V39.8891C103.251 39.007 103.982 38.2755 104.864 38.2755H122.249C123.131 38.2755 123.862 39.007 123.862 39.8891V49.2697C123.862 50.1518 123.152 50.8833 122.249 50.8833ZM106.478 47.6561H120.635V41.5027H106.478V47.6561ZM37.1346 93.677H19.7504C18.8682 93.677 18.1367 92.9455 18.1367 92.0633V82.6827C18.1367 81.8006 18.8682 81.0691 19.7504 81.0691H37.1346C38.0167 81.0691 38.7482 81.8006 38.7482 82.6827V92.0633C38.7482 92.967 38.0382 93.677 37.1346 93.677ZM21.364 90.4497H35.521V84.2964H21.364V90.4497ZM122.249 93.677H104.864C103.982 93.677 103.251 92.9455 103.251 92.0633V82.6827C103.251 81.8006 103.982 81.0691 104.864 81.0691H122.249C123.131 81.0691 123.862 81.8006 123.862 82.6827V92.0633C123.862 92.967 123.152 93.677 122.249 93.677ZM106.478 90.4497H120.635V84.2964H106.478V90.4497Z" fill="#418DFE"/>
<path d="M121.323 135.545H105.703C104.09 135.545 102.799 134.255 102.799 132.641V125.498H124.249V132.641C124.228 134.255 122.937 135.545 121.323 135.545Z" fill="#6EBAFF"/>
<path opacity="0.3" d="M124.228 130.963V125.476H111.146V127.886C111.146 129.586 112.523 130.963 114.223 130.963H124.228Z" fill="white"/>
<path d="M121.324 137.159H105.704C103.208 137.159 101.186 135.137 101.186 132.641V125.498C101.186 124.616 101.917 123.884 102.799 123.884H124.25C125.132 123.884 125.863 124.616 125.863 125.498V132.641C125.842 135.137 123.819 137.159 121.324 137.159ZM104.391 127.09V132.619C104.391 133.329 104.972 133.91 105.682 133.91H121.302C122.012 133.91 122.593 133.329 122.593 132.619V127.09H104.391Z" fill="#418DFE"/>
<path d="M40.6417 135.545H25.0217C23.4081 135.545 22.1172 134.255 22.1172 132.641V125.498H43.5678V132.641C43.5463 134.255 42.2554 135.545 40.6417 135.545Z" fill="#6EBAFF"/>
<path opacity="0.3" d="M43.5461 130.963V125.476H30.4648V127.886C30.4648 129.586 31.8418 130.963 33.5415 130.963H43.5461Z" fill="white"/>
<path d="M40.6421 137.159H25.0221C22.5263 137.159 20.5039 135.137 20.5039 132.641V125.498C20.5039 124.616 21.2354 123.884 22.1175 123.884H43.5682C44.4503 123.884 45.1818 124.616 45.1818 125.498V132.641C45.1603 135.137 43.1378 137.159 40.6421 137.159ZM23.7312 127.09V132.619C23.7312 133.329 24.3121 133.91 25.0221 133.91H40.6421C41.3521 133.91 41.933 133.329 41.933 132.619V127.09H23.7312Z" fill="#418DFE"/>
<path d="M75.7771 28.4431C78.6883 28.4431 81.0483 26.0831 81.0483 23.1718C81.0483 20.2606 78.6883 17.9006 75.7771 17.9006C72.8659 17.9006 70.5059 20.2606 70.5059 23.1718C70.5059 26.0831 72.8659 28.4431 75.7771 28.4431Z" fill="white"/>
<path d="M98.0232 28.4431C100.934 28.4431 103.294 26.0831 103.294 23.1718C103.294 20.2606 100.934 17.9006 98.0232 17.9006C95.112 17.9006 92.752 20.2606 92.752 23.1718C92.752 26.0831 95.112 28.4431 98.0232 28.4431Z" fill="white"/>
<path d="M120.248 28.4431C123.159 28.4431 125.519 26.0831 125.519 23.1718C125.519 20.2606 123.159 17.9006 120.248 17.9006C117.337 17.9006 114.977 20.2606 114.977 23.1718C114.977 26.0831 117.337 28.4431 120.248 28.4431Z" fill="white"/>
<path d="M17.3422 31.3691C16.46 31.3691 15.7285 30.6376 15.7285 29.7555V16.5882C15.7285 15.7061 16.46 14.9745 17.3422 14.9745C18.2243 14.9745 18.9558 15.7061 18.9558 16.5882V29.7555C18.9558 30.6376 18.2458 31.3691 17.3422 31.3691ZM30.3373 31.3691C29.4552 31.3691 28.7237 30.6376 28.7237 29.7555V16.5882C28.7237 15.7061 29.4552 14.9745 30.3373 14.9745C31.2194 14.9745 31.9509 15.7061 31.9509 16.5882V29.7555C31.9509 30.6376 31.2194 31.3691 30.3373 31.3691ZM43.3109 31.3691C42.4288 31.3691 41.6973 30.6376 41.6973 29.7555V16.5882C41.6973 15.7061 42.4288 14.9745 43.3109 14.9745C44.1931 14.9745 44.9246 15.7061 44.9246 16.5882V29.7555C44.9246 30.6376 44.1931 31.3691 43.3109 31.3691ZM56.2846 31.3691C55.4025 31.3691 54.6709 30.6376 54.6709 29.7555V16.5882C54.6709 15.7061 55.4025 14.9745 56.2846 14.9745C57.1667 14.9745 57.8982 15.7061 57.8982 16.5882V29.7555C57.8982 30.6376 57.1667 31.3691 56.2846 31.3691Z" fill="#418DFE"/>
<path d="M75.7771 71.2366C78.6883 71.2366 81.0483 68.8766 81.0483 65.9654C81.0483 63.0542 78.6883 60.6942 75.7771 60.6942C72.8659 60.6942 70.5059 63.0542 70.5059 65.9654C70.5059 68.8766 72.8659 71.2366 75.7771 71.2366Z" fill="white"/>
<path d="M98.0232 71.2366C100.934 71.2366 103.294 68.8766 103.294 65.9654C103.294 63.0542 100.934 60.6942 98.0232 60.6942C95.112 60.6942 92.752 63.0542 92.752 65.9654C92.752 68.8766 95.112 71.2366 98.0232 71.2366Z" fill="white"/>
<path d="M120.248 71.2366C123.159 71.2366 125.519 68.8766 125.519 65.9654C125.519 63.0542 123.159 60.6942 120.248 60.6942C117.337 60.6942 114.977 63.0542 114.977 65.9654C114.977 68.8766 117.337 71.2366 120.248 71.2366Z" fill="white"/>
<path d="M17.3422 74.1627C16.46 74.1627 15.7285 73.4312 15.7285 72.5491V59.3818C15.7285 58.4997 16.46 57.7682 17.3422 57.7682C18.2243 57.7682 18.9558 58.4997 18.9558 59.3818V72.5491C18.9558 73.4527 18.2458 74.1627 17.3422 74.1627ZM30.3373 74.1627C29.4552 74.1627 28.7237 73.4312 28.7237 72.5491V59.3818C28.7237 58.4997 29.4552 57.7682 30.3373 57.7682C31.2194 57.7682 31.9509 58.4997 31.9509 59.3818V72.5491C31.9509 73.4527 31.2194 74.1627 30.3373 74.1627ZM43.3109 74.1627C42.4288 74.1627 41.6973 73.4312 41.6973 72.5491V59.3818C41.6973 58.4997 42.4288 57.7682 43.3109 57.7682C44.1931 57.7682 44.9246 58.4997 44.9246 59.3818V72.5491C44.9246 73.4527 44.1931 74.1627 43.3109 74.1627ZM56.2846 74.1627C55.4025 74.1627 54.6709 73.4312 54.6709 72.5491V59.3818C54.6709 58.4997 55.4025 57.7682 56.2846 57.7682C57.1667 57.7682 57.8982 58.4997 57.8982 59.3818V72.5491C57.8982 73.4527 57.1667 74.1627 56.2846 74.1627Z" fill="#418DFE"/>
<path d="M75.7771 114.052C78.6883 114.052 81.0483 111.692 81.0483 108.781C81.0483 105.869 78.6883 103.509 75.7771 103.509C72.8659 103.509 70.5059 105.869 70.5059 108.781C70.5059 111.692 72.8659 114.052 75.7771 114.052Z" fill="white"/>
<path d="M75.7755 30.0567C71.9673 30.0567 68.8691 26.9585 68.8691 23.1718C68.8691 19.3637 71.9673 16.287 75.7755 16.287C79.5837 16.287 82.6604 19.3852 82.6604 23.1718C82.6819 26.9585 79.5837 30.0567 75.7755 30.0567ZM75.7755 19.4927C73.7531 19.4927 72.0964 21.1279 72.0964 23.1503C72.0964 25.1727 73.7316 26.8079 75.7755 26.8079C77.7979 26.8079 79.4331 25.1727 79.4331 23.1503C79.4546 21.1494 77.7979 19.4927 75.7755 19.4927ZM75.7755 72.8718C71.9673 72.8718 68.8691 69.7737 68.8691 65.987C68.8691 62.1788 71.9673 59.1021 75.7755 59.1021C79.5837 59.1021 82.6604 62.2003 82.6604 65.987C82.6819 69.7737 79.5837 72.8718 75.7755 72.8718ZM75.7755 62.3079C73.7531 62.3079 72.0964 63.943 72.0964 65.9655C72.0964 67.9879 73.7316 69.623 75.7755 69.623C77.7979 69.623 79.4331 67.9879 79.4331 65.9655C79.4546 63.943 77.7979 62.3079 75.7755 62.3079ZM75.7755 115.665C71.9673 115.665 68.8691 112.567 68.8691 108.781C68.8691 104.994 71.9673 101.896 75.7755 101.896C79.5837 101.896 82.6604 104.994 82.6604 108.781C82.6604 112.567 79.5837 115.665 75.7755 115.665ZM75.7755 105.102C73.7531 105.102 72.0964 106.737 72.0964 108.759C72.0964 110.782 73.7316 112.417 75.7755 112.417C77.7979 112.417 79.4331 110.782 79.4331 108.759C79.4331 106.737 77.7979 105.102 75.7755 105.102Z" fill="#418DFE"/>
<path d="M98.0232 114.052C100.934 114.052 103.294 111.692 103.294 108.781C103.294 105.869 100.934 103.509 98.0232 103.509C95.112 103.509 92.752 105.869 92.752 108.781C92.752 111.692 95.112 114.052 98.0232 114.052Z" fill="white"/>
<path d="M120.248 114.052C123.159 114.052 125.519 111.692 125.519 108.781C125.519 105.869 123.159 103.509 120.248 103.509C117.337 103.509 114.977 105.869 114.977 108.781C114.977 111.692 117.337 114.052 120.248 114.052Z" fill="white"/>
<path d="M17.3422 116.978C16.46 116.978 15.7285 116.246 15.7285 115.364V102.197C15.7285 101.315 16.46 100.583 17.3422 100.583C18.2243 100.583 18.9558 101.315 18.9558 102.197V115.364C18.9558 116.246 18.2458 116.978 17.3422 116.978ZM30.3373 116.978C29.4552 116.978 28.7237 116.246 28.7237 115.364V102.197C28.7237 101.315 29.4552 100.583 30.3373 100.583C31.2194 100.583 31.9509 101.315 31.9509 102.197V115.364C31.9509 116.246 31.2194 116.978 30.3373 116.978ZM43.3109 116.978C42.4288 116.978 41.6973 116.246 41.6973 115.364V102.197C41.6973 101.315 42.4288 100.583 43.3109 100.583C44.1931 100.583 44.9246 101.315 44.9246 102.197V115.364C44.9246 116.246 44.1931 116.978 43.3109 116.978ZM56.2846 116.978C55.4025 116.978 54.6709 116.246 54.6709 115.364V102.197C54.6709 101.315 55.4025 100.583 56.2846 100.583C57.1667 100.583 57.8982 101.315 57.8982 102.197V115.364C57.8982 116.246 57.1667 116.978 56.2846 116.978Z" fill="#418DFE"/>
<path d="M98.0232 28.4431C100.934 28.4431 103.294 26.0831 103.294 23.1718C103.294 20.2606 100.934 17.9006 98.0232 17.9006C95.112 17.9006 92.752 20.2606 92.752 23.1718C92.752 26.0831 95.112 28.4431 98.0232 28.4431Z" fill="white"/>
<path d="M98.0235 30.0567C94.2153 30.0567 91.1387 26.9585 91.1387 23.1718C91.1387 19.3637 94.2369 16.287 98.0235 16.287C101.81 16.287 104.908 19.3852 104.908 23.1718C104.908 26.9585 101.81 30.0567 98.0235 30.0567ZM98.0235 19.4927C96.0011 19.4927 94.3659 21.1279 94.3659 23.1503C94.3659 25.1727 96.0011 26.8079 98.0235 26.8079C100.046 26.8079 101.681 25.1727 101.681 23.1503C101.681 21.1494 100.046 19.4927 98.0235 19.4927Z" fill="#418DFE"/>
<path d="M98.0232 71.2366C100.934 71.2366 103.294 68.8766 103.294 65.9654C103.294 63.0542 100.934 60.6942 98.0232 60.6942C95.112 60.6942 92.752 63.0542 92.752 65.9654C92.752 68.8766 95.112 71.2366 98.0232 71.2366Z" fill="white"/>
<path d="M98.0235 72.8718C94.2153 72.8718 91.1387 69.7736 91.1387 65.987C91.1387 62.1788 94.2369 59.1021 98.0235 59.1021C101.81 59.1021 104.908 62.2003 104.908 65.987C104.908 69.7736 101.81 72.8718 98.0235 72.8718ZM98.0235 62.3079C96.0011 62.3079 94.3659 63.943 94.3659 65.9654C94.3659 67.9879 96.0011 69.623 98.0235 69.623C100.046 69.623 101.681 67.9879 101.681 65.9654C101.681 63.943 100.046 62.3079 98.0235 62.3079Z" fill="#418DFE"/>
<path d="M98.0232 114.052C100.934 114.052 103.294 111.692 103.294 108.781C103.294 105.869 100.934 103.509 98.0232 103.509C95.112 103.509 92.752 105.869 92.752 108.781C92.752 111.692 95.112 114.052 98.0232 114.052Z" fill="white"/>
<path d="M98.0235 115.665C94.2153 115.665 91.1387 112.567 91.1387 108.781C91.1387 104.994 94.2369 101.896 98.0235 101.896C101.81 101.896 104.908 104.994 104.908 108.781C104.908 112.567 101.81 115.665 98.0235 115.665ZM98.0235 105.102C96.0011 105.102 94.3659 106.737 94.3659 108.759C94.3659 110.782 96.0011 112.417 98.0235 112.417C100.046 112.417 101.681 110.782 101.681 108.759C101.681 106.737 100.046 105.102 98.0235 105.102ZM120.249 30.0567C116.44 30.0567 113.364 26.9585 113.364 23.1718C113.364 19.3637 116.462 16.287 120.249 16.287C124.035 16.287 127.134 19.3852 127.134 23.1718C127.134 26.9585 124.057 30.0567 120.249 30.0567ZM120.249 19.4927C118.226 19.4927 116.591 21.1279 116.591 23.1503C116.591 25.1727 118.226 26.8079 120.249 26.8079C122.271 26.8079 123.906 25.1727 123.906 23.1503C123.906 21.1494 122.271 19.4927 120.249 19.4927ZM120.249 72.8718C116.44 72.8718 113.364 69.7737 113.364 65.987C113.364 62.1788 116.462 59.1021 120.249 59.1021C124.035 59.1021 127.134 62.2003 127.134 65.987C127.134 69.7737 124.057 72.8718 120.249 72.8718ZM120.249 62.3079C118.226 62.3079 116.591 63.943 116.591 65.9655C116.591 67.9879 118.226 69.623 120.249 69.623C122.271 69.623 123.906 67.9879 123.906 65.9655C123.906 63.943 122.271 62.3079 120.249 62.3079ZM120.249 115.665C116.44 115.665 113.364 112.567 113.364 108.781C113.364 104.994 116.462 101.896 120.249 101.896C124.035 101.896 127.134 104.994 127.134 108.781C127.134 112.567 124.057 115.665 120.249 115.665ZM120.249 105.102C118.226 105.102 116.591 106.737 116.591 108.759C116.591 110.782 118.226 112.417 120.249 112.417C122.271 112.417 123.906 110.782 123.906 108.759C123.906 106.737 122.271 105.102 120.249 105.102Z" fill="#418DFE"/>
<path d="M327.729 86.6855L327.741 86.6319V86.577V86.5767V86.5764V86.576V86.5757V86.5754V86.5751V86.5747V86.5744V86.5741V86.5737V86.5734V86.5731V86.5728V86.5724V86.5721V86.5718V86.5715V86.5711V86.5708V86.5705V86.5701V86.5698V86.5695V86.5692V86.5688V86.5685V86.5682V86.5678V86.5675V86.5672V86.5669V86.5665V86.5662V86.5659V86.5656V86.5652V86.5649V86.5646V86.5643V86.5639V86.5636V86.5633V86.5629V86.5626V86.5623V86.562V86.5616V86.5613V86.561V86.5607V86.5603V86.56V86.5597V86.5594V86.559V86.5587V86.5584V86.5581V86.5577V86.5574V86.5571V86.5568V86.5564V86.5561V86.5558V86.5555V86.5551V86.5548V86.5545V86.5542V86.5539V86.5535V86.5532V86.5529V86.5526V86.5522V86.5519V86.5516V86.5513V86.551V86.5506V86.5503V86.55V86.5497V86.5493V86.549V86.5487V86.5484V86.5481V86.5477V86.5474V86.5471V86.5468V86.5465V86.5462V86.5458V86.5455V86.5452V86.5449V86.5446V86.5442V86.5439V86.5436V86.5433V86.543V86.5427V86.5424V86.542V86.5417V86.5414V86.5411V86.5408V86.5405V86.5401V86.5398V86.5395V86.5392V86.5389V86.5386V86.5383V86.538V86.5376V86.5373V86.537V86.5367V86.5364V86.5361V86.5358V86.5355V86.5352V86.5349V86.5345V86.5342V86.5339V86.5336V86.5333V86.533V86.5327V86.5324V86.5321V86.5318V86.5315V86.5312V86.5309V86.5306V86.5303V86.53V86.5297V86.5294V86.5291V86.5287V86.5284V86.5281V86.5278V86.5275V86.5272V86.5269V86.5266V86.5263V86.526V86.5257V86.5255V86.5252V86.5249V86.5246V86.5243V86.524V86.5237V86.5234V86.5231V86.5228V86.5225V86.5222V86.5219V86.5216V86.5213V86.521V86.5207V86.5205V86.5202V86.5199V86.5196V86.5193V86.519V86.5187V86.5184V86.5181V86.5179V86.5176V86.5173V86.517V86.5167V86.5164V86.5161V86.5159V86.5156V86.5153V86.515V86.5148C328.486 82.915 330.955 78.1209 338.203 74.2036C345.505 70.2564 357.667 67.197 377.789 67.197C397.91 67.197 410.072 70.2564 417.374 74.2036C424.622 78.1209 427.092 82.915 427.836 86.5148V86.515V86.5153V86.5156V86.5159V86.5162V86.5165V86.5167V86.517V86.5173V86.5176V86.5179V86.5182V86.5185V86.5188V86.519V86.5193V86.5196V86.5199V86.5202V86.5205V86.5208V86.5211V86.5214V86.5217V86.522V86.5222V86.5225V86.5228V86.5231V86.5234V86.5237V86.524V86.5243V86.5246V86.5249V86.5252V86.5255V86.5258V86.5261V86.5264V86.5267V86.527V86.5273V86.5276V86.5279V86.5282V86.5285V86.5288V86.5291V86.5294V86.5297V86.53V86.5303V86.5306V86.5309V86.5312V86.5315V86.5318V86.5322V86.5325V86.5328V86.5331V86.5334V86.5337V86.534V86.5343V86.5346V86.5349V86.5352V86.5355V86.5359V86.5362V86.5365V86.5368V86.5371V86.5374V86.5377V86.538V86.5384V86.5387V86.539V86.5393V86.5396V86.5399V86.5402V86.5406V86.5409V86.5412V86.5415V86.5418V86.5421V86.5424V86.5428V86.5431V86.5434V86.5437V86.544V86.5443V86.5447V86.545V86.5453V86.5456V86.5459V86.5463V86.5466V86.5469V86.5472V86.5475V86.5479V86.5482V86.5485V86.5488V86.5492V86.5495V86.5498V86.5501V86.5504V86.5508V86.5511V86.5514V86.5517V86.5521V86.5524V86.5527V86.553V86.5534V86.5537V86.554V86.5543V86.5547V86.555V86.5553V86.5556V86.556V86.5563V86.5566V86.5569V86.5573V86.5576V86.5579V86.5582V86.5586V86.5589V86.5592V86.5595V86.5599V86.5602V86.5605V86.5609V86.5612V86.5615V86.5618V86.5622V86.5625V86.5628V86.5632V86.5635V86.5638V86.5641V86.5645V86.5648V86.5651V86.5655V86.5658V86.5661V86.5664V86.5668V86.5671V86.5674V86.5678V86.5681V86.5684V86.5688V86.5691V86.5694V86.5697V86.5701V86.5704V86.5707V86.5711V86.5714V86.5717V86.5721V86.5724V86.5727V86.5731V86.5734V86.5737V86.574V86.5744V86.5747V86.575V86.5754V86.5757V86.576V86.5764V86.5767V86.577V86.6319L427.848 86.6855C428.063 87.6568 428.118 88.5223 428.118 89.2879V117.527C428.118 120.775 426.937 126.258 420.117 130.952C413.264 135.669 400.676 139.617 377.789 139.617C354.901 139.617 342.313 135.669 335.46 130.952C328.64 126.258 327.459 120.775 327.459 117.527V89.2879C327.459 88.5223 327.514 87.6568 327.729 86.6855Z" fill="#97CEFF" stroke="#418DFE"/>
<path d="M327.729 54.4127L327.741 54.3591V54.3043V54.3039V54.3036V54.3033V54.3029V54.3026V54.3023V54.302V54.3016V54.3013V54.301V54.3007V54.3003V54.3V54.2997V54.2993V54.299V54.2987V54.2984V54.298V54.2977V54.2974V54.297V54.2967V54.2964V54.2961V54.2957V54.2954V54.2951V54.2948V54.2944V54.2941V54.2938V54.2934V54.2931V54.2928V54.2925V54.2921V54.2918V54.2915V54.2912V54.2908V54.2905V54.2902V54.2899V54.2895V54.2892V54.2889V54.2885V54.2882V54.2879V54.2876V54.2872V54.2869V54.2866V54.2863V54.2859V54.2856V54.2853V54.285V54.2846V54.2843V54.284V54.2837V54.2833V54.283V54.2827V54.2824V54.2821V54.2817V54.2814V54.2811V54.2808V54.2804V54.2801V54.2798V54.2795V54.2792V54.2788V54.2785V54.2782V54.2779V54.2775V54.2772V54.2769V54.2766V54.2763V54.2759V54.2756V54.2753V54.275V54.2747V54.2743V54.274V54.2737V54.2734V54.2731V54.2728V54.2724V54.2721V54.2718V54.2715V54.2712V54.2708V54.2705V54.2702V54.2699V54.2696V54.2693V54.269V54.2686V54.2683V54.268V54.2677V54.2674V54.2671V54.2668V54.2664V54.2661V54.2658V54.2655V54.2652V54.2649V54.2646V54.2643V54.2639V54.2636V54.2633V54.263V54.2627V54.2624V54.2621V54.2618V54.2615V54.2612V54.2609V54.2606V54.2602V54.2599V54.2596V54.2593V54.259V54.2587V54.2584V54.2581V54.2578V54.2575V54.2572V54.2569V54.2566V54.2563V54.256V54.2557V54.2554V54.2551V54.2548V54.2545V54.2542V54.2539V54.2536V54.2533V54.253V54.2527V54.2524V54.2521V54.2518V54.2515V54.2512V54.2509V54.2506V54.2503V54.25V54.2497V54.2494V54.2491V54.2488V54.2486V54.2483V54.248V54.2477V54.2474V54.2471V54.2468V54.2465V54.2462V54.2459V54.2457V54.2454V54.2451V54.2448V54.2445V54.2442V54.2439V54.2437V54.2434V54.2431V54.2428V54.2425V54.2422V54.242C328.486 50.6422 330.955 45.8481 338.203 41.9308C345.505 37.9837 357.667 34.9243 377.789 34.9243C397.91 34.9243 410.072 37.9837 417.374 41.9308C424.622 45.8481 427.092 50.6422 427.836 54.242V54.2423V54.2426V54.2428V54.2431V54.2434V54.2437V54.244V54.2443V54.2446V54.2448V54.2451V54.2454V54.2457V54.246V54.2463V54.2466V54.2469V54.2471V54.2474V54.2477V54.248V54.2483V54.2486V54.2489V54.2492V54.2495V54.2498V54.2501V54.2504V54.2507V54.251V54.2512V54.2515V54.2518V54.2521V54.2524V54.2527V54.253V54.2533V54.2536V54.2539V54.2542V54.2545V54.2548V54.2551V54.2554V54.2557V54.256V54.2563V54.2566V54.2569V54.2573V54.2576V54.2579V54.2582V54.2585V54.2588V54.2591V54.2594V54.2597V54.26V54.2603V54.2606V54.2609V54.2612V54.2615V54.2619V54.2622V54.2625V54.2628V54.2631V54.2634V54.2637V54.264V54.2643V54.2646V54.265V54.2653V54.2656V54.2659V54.2662V54.2665V54.2668V54.2672V54.2675V54.2678V54.2681V54.2684V54.2687V54.269V54.2694V54.2697V54.27V54.2703V54.2706V54.2709V54.2713V54.2716V54.2719V54.2722V54.2725V54.2729V54.2732V54.2735V54.2738V54.2741V54.2745V54.2748V54.2751V54.2754V54.2757V54.2761V54.2764V54.2767V54.277V54.2774V54.2777V54.278V54.2783V54.2786V54.279V54.2793V54.2796V54.2799V54.2803V54.2806V54.2809V54.2812V54.2816V54.2819V54.2822V54.2825V54.2829V54.2832V54.2835V54.2838V54.2842V54.2845V54.2848V54.2851V54.2855V54.2858V54.2861V54.2865V54.2868V54.2871V54.2874V54.2878V54.2881V54.2884V54.2887V54.2891V54.2894V54.2897V54.2901V54.2904V54.2907V54.291V54.2914V54.2917V54.292V54.2924V54.2927V54.293V54.2934V54.2937V54.294V54.2943V54.2947V54.295V54.2953V54.2957V54.296V54.2963V54.2966V54.297V54.2973V54.2976V54.298V54.2983V54.2986V54.299V54.2993V54.2996V54.3V54.3003V54.3006V54.3009V54.3013V54.3016V54.3019V54.3023V54.3026V54.3029V54.3033V54.3036V54.3039V54.3043V54.3591L427.848 54.4127C428.063 55.3841 428.118 56.2496 428.118 57.0152V85.2538C428.118 88.5027 426.937 93.9848 420.117 98.6789C413.264 103.396 400.676 107.345 377.789 107.345C354.901 107.345 342.313 103.396 335.46 98.6789C328.64 93.9848 327.459 88.5027 327.459 85.2538V57.0152C327.459 56.2496 327.514 55.3841 327.729 54.4127Z" fill="#97CEFF" stroke="#418DFE"/>
<path d="M327.729 20.5264L327.741 20.4728V20.4179V20.4176V20.4172V20.4169V20.4166V20.4163V20.4159V20.4156V20.4153V20.415V20.4146V20.4143V20.414V20.4136V20.4133V20.413V20.4127V20.4123V20.412V20.4117V20.4113V20.411V20.4107V20.4104V20.41V20.4097V20.4094V20.4091V20.4087V20.4084V20.4081V20.4077V20.4074V20.4071V20.4068V20.4064V20.4061V20.4058V20.4055V20.4051V20.4048V20.4045V20.4042V20.4038V20.4035V20.4032V20.4028V20.4025V20.4022V20.4019V20.4015V20.4012V20.4009V20.4006V20.4002V20.3999V20.3996V20.3993V20.3989V20.3986V20.3983V20.398V20.3976V20.3973V20.397V20.3967V20.3963V20.396V20.3957V20.3954V20.3951V20.3947V20.3944V20.3941V20.3938V20.3934V20.3931V20.3928V20.3925V20.3922V20.3918V20.3915V20.3912V20.3909V20.3905V20.3902V20.3899V20.3896V20.3893V20.3889V20.3886V20.3883V20.388V20.3877V20.3874V20.387V20.3867V20.3864V20.3861V20.3858V20.3854V20.3851V20.3848V20.3845V20.3842V20.3839V20.3835V20.3832V20.3829V20.3826V20.3823V20.382V20.3817V20.3813V20.381V20.3807V20.3804V20.3801V20.3798V20.3795V20.3792V20.3788V20.3785V20.3782V20.3779V20.3776V20.3773V20.377V20.3767V20.3764V20.376V20.3757V20.3754V20.3751V20.3748V20.3745V20.3742V20.3739V20.3736V20.3733V20.373V20.3727V20.3724V20.3721V20.3718V20.3714V20.3711V20.3708V20.3705V20.3702V20.3699V20.3696V20.3693V20.369V20.3687V20.3684V20.3681V20.3678V20.3675V20.3672V20.3669V20.3666V20.3663V20.366V20.3657V20.3654V20.3651V20.3649V20.3646V20.3643V20.364V20.3637V20.3634V20.3631V20.3628V20.3625V20.3622V20.3619V20.3616V20.3613V20.361V20.3608V20.3605V20.3602V20.3599V20.3596V20.3593V20.359V20.3587V20.3584V20.3582V20.3579V20.3576V20.3573V20.357V20.3567V20.3565V20.3562V20.3559V20.3556C328.486 16.7559 330.955 11.9617 338.203 8.04448C345.505 4.09731 357.667 1.0379 377.789 1.0379C397.91 1.0379 410.072 4.09731 417.374 8.04448C424.622 11.9617 427.092 16.7559 427.836 20.3556V20.3559V20.3562V20.3565V20.3568V20.3571V20.3573V20.3576V20.3579V20.3582V20.3585V20.3588V20.3591V20.3593V20.3596V20.3599V20.3602V20.3605V20.3608V20.3611V20.3614V20.3617V20.362V20.3622V20.3625V20.3628V20.3631V20.3634V20.3637V20.364V20.3643V20.3646V20.3649V20.3652V20.3655V20.3658V20.3661V20.3664V20.3667V20.367V20.3673V20.3676V20.3679V20.3682V20.3685V20.3688V20.3691V20.3694V20.3697V20.37V20.3703V20.3706V20.3709V20.3712V20.3715V20.3718V20.3721V20.3724V20.3727V20.373V20.3733V20.3736V20.374V20.3743V20.3746V20.3749V20.3752V20.3755V20.3758V20.3761V20.3764V20.3767V20.377V20.3774V20.3777V20.378V20.3783V20.3786V20.3789V20.3792V20.3795V20.3799V20.3802V20.3805V20.3808V20.3811V20.3814V20.3817V20.3821V20.3824V20.3827V20.383V20.3833V20.3836V20.384V20.3843V20.3846V20.3849V20.3852V20.3855V20.3859V20.3862V20.3865V20.3868V20.3871V20.3875V20.3878V20.3881V20.3884V20.3887V20.3891V20.3894V20.3897V20.39V20.3904V20.3907V20.391V20.3913V20.3916V20.392V20.3923V20.3926V20.3929V20.3933V20.3936V20.3939V20.3942V20.3946V20.3949V20.3952V20.3955V20.3959V20.3962V20.3965V20.3968V20.3972V20.3975V20.3978V20.3981V20.3985V20.3988V20.3991V20.3994V20.3998V20.4001V20.4004V20.4008V20.4011V20.4014V20.4017V20.4021V20.4024V20.4027V20.403V20.4034V20.4037V20.404V20.4044V20.4047V20.405V20.4054V20.4057V20.406V20.4063V20.4067V20.407V20.4073V20.4077V20.408V20.4083V20.4086V20.409V20.4093V20.4096V20.41V20.4103V20.4106V20.411V20.4113V20.4116V20.4119V20.4123V20.4126V20.4129V20.4133V20.4136V20.4139V20.4143V20.4146V20.4149V20.4153V20.4156V20.4159V20.4162V20.4166V20.4169V20.4172V20.4176V20.4179V20.4728L427.848 20.5264C428.063 21.4977 428.118 22.3632 428.118 23.1288V51.3675C428.118 54.6164 426.937 60.0985 420.117 64.7925C413.264 69.5094 400.676 73.4584 377.789 73.4584C354.901 73.4584 342.313 69.5094 335.46 64.7925C328.64 60.0985 327.459 54.6164 327.459 51.3675V23.1288C327.459 22.3632 327.514 21.4977 327.729 20.5264Z" fill="#97CEFF" stroke="#418DFE"/>
<path d="M427.835 20.3559V20.3562V20.3565V20.3568V20.3571V20.3573V20.3576V20.3579V20.3582V20.3585V20.3588V20.3591V20.3593V20.3596V20.3599V20.3602V20.3605V20.3608V20.3611V20.3614V20.3617V20.362V20.3622V20.3625V20.3628V20.3631V20.3634V20.3637V20.364V20.3643V20.3646V20.3649V20.3652V20.3655V20.3658C427.063 23.9918 424.538 28.7587 417.269 32.6419C409.945 36.5549 397.797 39.572 377.787 39.572C357.778 39.572 345.63 36.5549 338.305 32.6419C331.036 28.7587 328.512 23.9918 327.74 20.3658V20.3657V20.3654V20.3651V20.3649V20.3646V20.3643V20.364V20.3637V20.3634V20.3631V20.3628V20.3625V20.3622V20.3619V20.3616V20.3613V20.361V20.3608V20.3605V20.3602V20.3599V20.3596V20.3593V20.359V20.3587V20.3584V20.3582V20.3579V20.3576V20.3573V20.357V20.3567V20.3565V20.3562V20.3559V20.3556C328.484 16.7559 330.954 11.9617 338.202 8.04448C345.504 4.09731 357.666 1.0379 377.787 1.0379C397.909 1.0379 410.071 4.09731 417.373 8.04448C424.62 11.9617 427.09 16.7559 427.835 20.3556V20.3559Z" fill="#52AAFF" stroke="#418DFE"/>
<path d="M309.608 88.4394C309.608 105.825 295.266 119.971 277.633 119.971H181.005C172.556 120.013 164.434 116.69 158.421 110.731C152.403 104.891 149.012 96.8426 149.029 88.4394C149.029 75.2242 157.332 63.5111 169.828 58.9217C175.954 34.6306 197.52 17.4626 222.476 17.0092C247.433 16.5558 269.603 32.9291 276.601 56.9818C277.238 56.9402 277.604 56.9402 277.633 56.9402C278.11 56.9402 278.588 56.9402 279.059 56.9722C286.999 57.2828 294.538 60.5518 300.207 66.1413C306.217 71.991 309.609 80.036 309.608 88.4394Z" fill="#F4F9FF"/>
<path d="M167.208 56.3714C167.047 57.0009 166.895 57.6305 166.757 58.277C165.887 58.6343 165.032 59.0001 164.178 59.4C165.155 58.3507 166.165 57.3412 167.208 56.3714Z" fill="#607D8B"/>
<path d="M245.982 63.3183C248.193 61.0249 250.842 59.0619 253.82 57.511C256.841 55.9387 260.139 54.7862 263.59 54.0972C270.609 52.7297 277.954 53.2297 284.625 55.5291C291.294 57.7947 297.018 61.6888 301.069 66.7166C303.057 69.2033 304.558 71.9456 305.515 74.8377C306.447 77.6966 306.77 80.6735 306.469 83.6285C305.898 77.8828 303.379 72.3992 299.215 67.8382C295.133 63.3687 289.719 59.9016 283.53 57.7936C277.355 55.6731 270.608 55.0434 264.036 55.9746C257.338 56.9743 251.092 59.5147 245.982 63.3183V63.3183Z" fill="#7BB2FF"/>
<path fill-rule="evenodd" clip-rule="evenodd" d="M185.39 38.2001C184.906 38.59 184.427 38.9873 183.956 39.392C184.423 38.9947 184.913 38.591 185.39 38.2001ZM168.257 61.69C168.501 61.0542 168.759 60.4185 169.032 59.7828C168.759 60.4079 168.501 61.0436 168.257 61.69ZM164.18 68.4858C164.545 68.3237 164.913 68.168 165.288 68.0154C164.916 68.1648 164.545 68.3237 164.18 68.4858Z" fill="#55717C"/>
<path d="M297.49 114.24C291.475 119.883 283.524 123.017 275.266 123H178.141C172.219 123.02 166.405 121.415 161.337 118.36C161.071 118.198 160.808 118.034 160.55 117.868C160.291 117.702 160.032 117.53 159.776 117.354C159.52 117.179 159.283 117.01 159.043 116.834L159.018 116.815C158.765 116.633 158.518 116.445 158.272 116.253C158.026 116.062 157.808 115.886 157.578 115.698L157.472 115.612C157.309 115.475 157.152 115.341 156.989 115.197L156.707 114.955C156.576 114.84 156.451 114.728 156.323 114.607C156.026 114.339 155.731 114.058 155.44 113.774C149.391 107.942 145.982 99.9052 146 91.5143C146 91.2685 146 91.0228 146 90.7803C146 90.6175 146 90.4611 146 90.2824C146 89.8707 146.038 89.4686 146.074 89.0601C146.074 88.8591 146.106 88.6548 146.128 88.4538C146.15 88.2527 146.16 88.1346 146.182 87.9527C146.205 87.7708 146.227 87.5634 146.256 87.3687C146.333 86.7858 146.428 86.2071 146.541 85.6326C146.566 85.4922 146.595 85.3582 146.624 85.2178C146.678 84.9593 146.736 84.704 146.79 84.4487C146.835 84.2731 146.877 84.0976 146.922 83.9253C146.966 83.753 147.018 83.5519 147.069 83.3668C147.104 83.2328 147.139 83.1051 147.178 82.9775C147.216 82.8498 147.248 82.7349 147.286 82.6105C147.325 82.486 147.37 82.336 147.414 82.1956C147.459 82.0552 147.494 81.9435 147.539 81.819C147.733 81.2297 147.947 80.6478 148.179 80.0734C148.25 79.8946 148.323 79.7159 148.397 79.5404C148.47 79.3649 148.544 79.1862 148.624 79.0107C148.704 78.8351 148.778 78.6596 148.861 78.4873C148.944 78.3149 149.021 78.1394 149.107 77.9703C149.194 77.8011 149.274 77.6256 149.363 77.4565C149.453 77.2873 149.536 77.115 149.629 76.9491C149.722 76.7831 149.808 76.6108 149.904 76.4448C150.09 76.1257 150.282 75.7778 150.48 75.4491C150.678 75.1204 150.864 74.8332 151.059 74.53C151.702 73.5522 152.399 72.6104 153.146 71.7089C153.251 71.5781 153.357 71.4536 153.466 71.326C153.869 70.8685 154.284 70.4228 154.71 69.9888C154.816 69.8771 154.918 69.7718 155.03 69.6697C155.41 69.2824 155.802 68.9059 156.205 68.5399L156.509 68.2655C156.993 67.84 157.491 67.4219 158.003 67.0113L158.323 66.7655C158.592 66.5613 158.867 66.3571 159.142 66.1592C159.27 66.0666 159.398 65.9773 159.526 65.8911C159.811 65.6901 160.102 65.4954 160.394 65.3039C160.541 65.205 160.694 65.1124 160.848 65.0167L161.248 64.771L161.568 64.5859C161.731 64.4869 161.888 64.3912 162.064 64.2987L162.121 64.2667C162.278 64.1742 162.441 64.088 162.601 64.0019C162.761 63.9157 162.95 63.8136 163.126 63.7242L163.657 63.453L164.195 63.1945L164.742 62.9423C165.107 62.7796 165.475 62.6232 165.849 62.47C166.224 62.3168 166.569 62.1828 166.931 62.0488C166.992 61.8094 167.056 61.5733 167.12 61.3339C167.216 60.9829 167.312 60.6286 167.414 60.284C167.517 59.9393 167.619 59.5851 167.734 59.2372C167.849 58.8894 167.952 58.5447 168.054 58.2C168.157 57.8554 168.285 57.5171 168.406 57.182C168.408 57.1757 168.408 57.1692 168.406 57.1629C168.525 56.8437 168.64 56.5246 168.765 56.2055C168.765 56.1831 168.765 56.1576 168.79 56.1321C169.038 55.4938 169.296 54.8555 169.565 54.2173L169.632 54.0609C169.75 53.7864 169.869 53.512 169.993 53.2407L170.08 53.0492C170.195 52.7971 170.31 52.545 170.429 52.2929L170.544 52.0535C170.675 51.7823 170.803 51.5142 170.937 51.2461L171.005 51.1089C171.155 50.8089 171.309 50.5089 171.462 50.2122C171.616 49.9154 171.782 49.6154 171.936 49.3186L172.067 49.0824C172.182 48.8782 172.291 48.6739 172.413 48.4729C172.493 48.3261 172.573 48.1793 172.662 48.0357C172.752 47.8921 172.877 47.6623 172.982 47.4772C173.03 47.3974 173.078 47.3176 173.126 47.2378C173.277 46.9793 173.446 46.724 173.597 46.4687C173.747 46.2134 173.917 45.9581 174.083 45.7028C174.211 45.5081 174.336 45.3103 174.467 45.1188L174.681 44.7997C174.797 44.6305 174.912 44.4614 175.03 44.2954C175.149 44.1295 175.257 43.9763 175.376 43.804C175.494 43.6316 175.533 43.5806 175.616 43.4657C175.747 43.2806 175.881 43.0891 176.022 42.9072L176.192 42.6774C176.349 42.4636 176.512 42.2498 176.672 42.0392C176.985 41.6328 177.305 41.2286 177.632 40.8265C177.776 40.6478 177.923 40.469 178.07 40.2903C178.399 39.8967 178.735 39.5053 179.078 39.1159C179.219 38.9532 179.363 38.7968 179.51 38.6308L179.641 38.4872C179.846 38.2607 180.054 38.0341 180.262 37.8107L180.332 37.7373C180.563 37.4915 180.796 37.249 181.036 37.0065C182.134 35.8831 183.276 34.8013 184.48 33.7705C184.951 33.3641 185.429 32.9652 185.913 32.5737C186.214 32.3312 186.518 32.095 186.822 31.8589C186.858 31.8265 186.897 31.7967 186.937 31.7695C187.257 31.5238 187.577 31.2844 187.897 31.0483C188.217 30.8121 188.56 30.5696 188.896 30.3334H188.915C189.257 30.0941 189.603 29.8611 189.945 29.6281C190.288 29.3952 190.643 29.1718 190.992 28.9484C191.693 28.5037 192.406 28.0782 193.129 27.6718C193.491 27.4676 193.852 27.2634 194.217 27.0655C194.582 26.8676 194.947 26.673 195.318 26.4847C195.51 26.3825 195.708 26.2868 195.904 26.1911C198.307 24.9692 200.795 23.9218 203.35 23.0572C202.364 23.7625 176.886 35.5767 177.917 60.2584C168.357 63.7123 160.596 70.862 156.387 80.0925C154.737 90.1169 158.108 100.313 165.414 107.391C171.457 113.34 179.618 116.658 188.108 116.617H285.237C289.437 116.623 293.598 115.816 297.49 114.24Z" fill="#7BB2FF"/>
</svg>
