<svg width="213" height="168" viewBox="0 0 213 168" fill="none" xmlns="http://www.w3.org/2000/svg">
<path d="M133.049 151.476H8.94951C6.58285 151.476 4.64648 149.54 4.64648 147.173V122.366C4.64648 120 6.58285 118.063 8.94951 118.063H133.049C135.416 118.063 137.352 120 137.352 122.366V147.173C137.352 149.562 135.437 151.476 133.049 151.476Z" fill="#E5F3FF"/>
<path opacity="0.3" d="M132.726 118.343H63.1895V132.349C63.1895 137.319 67.2128 141.343 72.1828 141.343H137.352V122.947C137.352 120.408 135.287 118.343 132.726 118.343Z" fill="white"/>
<path d="M137.352 135.878V122.969C137.352 120.408 135.287 118.343 132.726 118.343H74.1621V119.01C74.1621 122.366 76.873 125.077 80.2294 125.077H131.306V129.811C131.285 133.167 134.017 135.878 137.352 135.878Z" fill="white"/>
<path d="M133.049 65.8676H8.94951C6.58285 65.8676 4.64648 63.9312 4.64648 61.5645V36.7576C4.64648 34.3909 6.58285 32.4545 8.94951 32.4545H133.049C135.416 32.4545 137.352 34.3909 137.352 36.7576V61.5645C137.352 63.9527 135.437 65.8676 133.049 65.8676Z" fill="#E5F3FF"/>
<path opacity="0.3" d="M132.726 32.4545H63.1895V46.4609C63.1895 51.4309 67.2128 55.4542 72.1828 55.4542H137.352V37.0803C137.352 34.52 135.287 32.4545 132.726 32.4545Z" fill="white"/>
<path d="M137.352 49.9894V37.0803C137.352 34.52 135.287 32.4545 132.726 32.4545H74.1621V33.1215C74.1621 36.4779 76.873 39.1888 80.2294 39.1888H131.306V43.9221C131.285 47.2785 134.017 49.9894 137.352 49.9894Z" fill="white"/>
<path d="M133.049 67.4812H8.94987C5.67957 67.4812 3.0332 64.8348 3.0332 61.5645V36.7575C3.0332 33.4872 5.67957 30.8409 8.94987 30.8409H133.049C136.32 30.8409 138.966 33.4872 138.966 36.7575V61.5645C138.966 64.8348 136.32 67.4812 133.049 67.4812ZM8.94987 34.0682C7.46532 34.0682 6.26048 35.273 6.26048 36.7575V61.5645C6.26048 63.0491 7.46532 64.2539 8.94987 64.2539H133.049C134.534 64.2539 135.739 63.0491 135.739 61.5645V36.7575C135.739 35.273 134.534 34.0682 133.049 34.0682H8.94987Z" fill="#418DFE"/>
<path d="M133.049 108.683H8.94951C6.58285 108.683 4.64648 106.746 4.64648 104.38V79.5727C4.64648 77.2061 6.58285 75.2697 8.94951 75.2697H133.049C135.416 75.2697 137.352 77.2061 137.352 79.5727V104.38C137.352 106.746 135.437 108.683 133.049 108.683Z" fill="#E5F3FF"/>
<path opacity="0.3" d="M132.726 74.6888H63.1895V88.6951C63.1895 93.6651 67.2128 97.6885 72.1828 97.6885H137.352V79.293C137.352 76.7758 135.287 74.6888 132.726 74.6888Z" fill="white"/>
<path d="M137.352 92.2236V79.3145C137.352 76.7542 135.287 74.6888 132.726 74.6888H74.1621V75.3558C74.1621 78.7121 76.873 81.423 80.2294 81.423H131.306V86.1564C131.285 89.5127 134.017 92.2236 137.352 92.2236Z" fill="white"/>
<path d="M133.049 110.296H8.94987C5.67957 110.296 3.0332 107.65 3.0332 104.38V79.5727C3.0332 76.3024 5.67957 73.6561 8.94987 73.6561H133.049C136.32 73.6561 138.966 76.3024 138.966 79.5727V104.38C138.966 107.65 136.32 110.296 133.049 110.296ZM8.94987 76.8833C7.46532 76.8833 6.26048 78.0882 6.26048 79.5727V104.38C6.26048 105.864 7.46532 107.069 8.94987 107.069H133.049C134.534 107.069 135.739 105.864 135.739 104.38V79.5727C135.739 78.0882 134.534 76.8833 133.049 76.8833H8.94987ZM133.049 153.09H8.94987C5.67957 153.09 3.0332 150.444 3.0332 147.173V122.366C3.0332 119.096 5.67957 116.45 8.94987 116.45H133.049C136.32 116.45 138.966 119.096 138.966 122.366V147.173C138.966 150.444 136.32 153.09 133.049 153.09ZM8.94987 119.677C7.46532 119.677 6.26048 120.882 6.26048 122.366V147.173C6.26048 148.658 7.46532 149.863 8.94987 149.863H133.049C134.534 149.863 135.739 148.658 135.739 147.173V122.366C135.739 120.882 134.534 119.677 133.049 119.677H8.94987Z" fill="#418DFE"/>
<path d="M37.1342 65.8676H19.75V75.2482H37.1342V65.8676Z" fill="#6EBAFF"/>
<path d="M122.249 65.8676H104.865V75.2482H122.249V65.8676Z" fill="#6EBAFF"/>
<path d="M37.1342 108.683H19.75V118.063H37.1342V108.683Z" fill="#6EBAFF"/>
<path d="M122.249 108.683H104.865V118.063H122.249V108.683Z" fill="#6EBAFF"/>
<path d="M37.1346 76.8833H19.7504C18.8682 76.8833 18.1367 76.1518 18.1367 75.2697V65.8891C18.1367 65.007 18.8682 64.2755 19.7504 64.2755H37.1346C38.0167 64.2755 38.7482 65.007 38.7482 65.8891V75.2697C38.7482 76.1518 38.0382 76.8833 37.1346 76.8833ZM21.364 73.6561H35.521V67.5027H21.364V73.6561ZM122.249 76.8833H104.864C103.982 76.8833 103.251 76.1518 103.251 75.2697V65.8891C103.251 65.007 103.982 64.2755 104.864 64.2755H122.249C123.131 64.2755 123.862 65.007 123.862 65.8891V75.2697C123.862 76.1518 123.152 76.8833 122.249 76.8833ZM106.478 73.6561H120.635V67.5027H106.478V73.6561ZM37.1346 119.677H19.7504C18.8682 119.677 18.1367 118.945 18.1367 118.063V108.683C18.1367 107.801 18.8682 107.069 19.7504 107.069H37.1346C38.0167 107.069 38.7482 107.801 38.7482 108.683V118.063C38.7482 118.967 38.0382 119.677 37.1346 119.677ZM21.364 116.45H35.521V110.296H21.364V116.45ZM122.249 119.677H104.864C103.982 119.677 103.251 118.945 103.251 118.063V108.683C103.251 107.801 103.982 107.069 104.864 107.069H122.249C123.131 107.069 123.862 107.801 123.862 108.683V118.063C123.862 118.967 123.152 119.677 122.249 119.677ZM106.478 116.45H120.635V110.296H106.478V116.45Z" fill="#418DFE"/>
<path d="M121.323 161.545H105.703C104.09 161.545 102.799 160.255 102.799 158.641V151.498H124.249V158.641C124.228 160.255 122.937 161.545 121.323 161.545Z" fill="#6EBAFF"/>
<path opacity="0.3" d="M124.228 156.963V151.476H111.146V153.886C111.146 155.586 112.523 156.963 114.223 156.963H124.228Z" fill="white"/>
<path d="M121.324 163.159H105.704C103.208 163.159 101.186 161.137 101.186 158.641V151.498C101.186 150.616 101.917 149.884 102.799 149.884H124.25C125.132 149.884 125.863 150.616 125.863 151.498V158.641C125.842 161.137 123.819 163.159 121.324 163.159ZM104.391 153.09V158.619C104.391 159.329 104.972 159.91 105.682 159.91H121.302C122.012 159.91 122.593 159.329 122.593 158.619V153.09H104.391Z" fill="#418DFE"/>
<path d="M40.6417 161.545H25.0217C23.4081 161.545 22.1172 160.255 22.1172 158.641V151.498H43.5678V158.641C43.5463 160.255 42.2554 161.545 40.6417 161.545Z" fill="#6EBAFF"/>
<path opacity="0.3" d="M43.5461 156.963V151.476H30.4648V153.886C30.4648 155.586 31.8418 156.963 33.5415 156.963H43.5461Z" fill="white"/>
<path d="M40.6421 163.159H25.0221C22.5263 163.159 20.5039 161.137 20.5039 158.641V151.498C20.5039 150.616 21.2354 149.884 22.1175 149.884H43.5682C44.4503 149.884 45.1818 150.616 45.1818 151.498V158.641C45.1603 161.137 43.1378 163.159 40.6421 163.159ZM23.7312 153.09V158.619C23.7312 159.329 24.3121 159.91 25.0221 159.91H40.6421C41.3521 159.91 41.933 159.329 41.933 158.619V153.09H23.7312Z" fill="#418DFE"/>
<path d="M75.7771 54.4431C78.6883 54.4431 81.0483 52.0831 81.0483 49.1718C81.0483 46.2606 78.6883 43.9006 75.7771 43.9006C72.8659 43.9006 70.5059 46.2606 70.5059 49.1718C70.5059 52.0831 72.8659 54.4431 75.7771 54.4431Z" fill="white"/>
<path d="M98.0232 54.4431C100.934 54.4431 103.294 52.0831 103.294 49.1718C103.294 46.2606 100.934 43.9006 98.0232 43.9006C95.112 43.9006 92.752 46.2606 92.752 49.1718C92.752 52.0831 95.112 54.4431 98.0232 54.4431Z" fill="white"/>
<path d="M120.248 54.4431C123.159 54.4431 125.519 52.0831 125.519 49.1718C125.519 46.2606 123.159 43.9006 120.248 43.9006C117.337 43.9006 114.977 46.2606 114.977 49.1718C114.977 52.0831 117.337 54.4431 120.248 54.4431Z" fill="white"/>
<path d="M17.3422 57.3691C16.46 57.3691 15.7285 56.6376 15.7285 55.7555V42.5882C15.7285 41.7061 16.46 40.9745 17.3422 40.9745C18.2243 40.9745 18.9558 41.7061 18.9558 42.5882V55.7555C18.9558 56.6376 18.2458 57.3691 17.3422 57.3691ZM30.3373 57.3691C29.4552 57.3691 28.7237 56.6376 28.7237 55.7555V42.5882C28.7237 41.7061 29.4552 40.9745 30.3373 40.9745C31.2194 40.9745 31.9509 41.7061 31.9509 42.5882V55.7555C31.9509 56.6376 31.2194 57.3691 30.3373 57.3691ZM43.3109 57.3691C42.4288 57.3691 41.6973 56.6376 41.6973 55.7555V42.5882C41.6973 41.7061 42.4288 40.9745 43.3109 40.9745C44.1931 40.9745 44.9246 41.7061 44.9246 42.5882V55.7555C44.9246 56.6376 44.1931 57.3691 43.3109 57.3691ZM56.2846 57.3691C55.4025 57.3691 54.6709 56.6376 54.6709 55.7555V42.5882C54.6709 41.7061 55.4025 40.9745 56.2846 40.9745C57.1667 40.9745 57.8982 41.7061 57.8982 42.5882V55.7555C57.8982 56.6376 57.1667 57.3691 56.2846 57.3691Z" fill="#418DFE"/>
<path d="M75.7771 97.2366C78.6883 97.2366 81.0483 94.8766 81.0483 91.9654C81.0483 89.0542 78.6883 86.6942 75.7771 86.6942C72.8659 86.6942 70.5059 89.0542 70.5059 91.9654C70.5059 94.8766 72.8659 97.2366 75.7771 97.2366Z" fill="white"/>
<path d="M98.0232 97.2366C100.934 97.2366 103.294 94.8766 103.294 91.9654C103.294 89.0542 100.934 86.6942 98.0232 86.6942C95.112 86.6942 92.752 89.0542 92.752 91.9654C92.752 94.8766 95.112 97.2366 98.0232 97.2366Z" fill="white"/>
<path d="M120.248 97.2366C123.159 97.2366 125.519 94.8766 125.519 91.9654C125.519 89.0542 123.159 86.6942 120.248 86.6942C117.337 86.6942 114.977 89.0542 114.977 91.9654C114.977 94.8766 117.337 97.2366 120.248 97.2366Z" fill="white"/>
<path d="M17.3422 100.163C16.46 100.163 15.7285 99.4312 15.7285 98.5491V85.3818C15.7285 84.4997 16.46 83.7682 17.3422 83.7682C18.2243 83.7682 18.9558 84.4997 18.9558 85.3818V98.5491C18.9558 99.4527 18.2458 100.163 17.3422 100.163ZM30.3373 100.163C29.4552 100.163 28.7237 99.4312 28.7237 98.5491V85.3818C28.7237 84.4997 29.4552 83.7682 30.3373 83.7682C31.2194 83.7682 31.9509 84.4997 31.9509 85.3818V98.5491C31.9509 99.4527 31.2194 100.163 30.3373 100.163ZM43.3109 100.163C42.4288 100.163 41.6973 99.4312 41.6973 98.5491V85.3818C41.6973 84.4997 42.4288 83.7682 43.3109 83.7682C44.1931 83.7682 44.9246 84.4997 44.9246 85.3818V98.5491C44.9246 99.4527 44.1931 100.163 43.3109 100.163ZM56.2846 100.163C55.4025 100.163 54.6709 99.4312 54.6709 98.5491V85.3818C54.6709 84.4997 55.4025 83.7682 56.2846 83.7682C57.1667 83.7682 57.8982 84.4997 57.8982 85.3818V98.5491C57.8982 99.4527 57.1667 100.163 56.2846 100.163Z" fill="#418DFE"/>
<path d="M75.7771 140.052C78.6883 140.052 81.0483 137.692 81.0483 134.781C81.0483 131.869 78.6883 129.509 75.7771 129.509C72.8659 129.509 70.5059 131.869 70.5059 134.781C70.5059 137.692 72.8659 140.052 75.7771 140.052Z" fill="white"/>
<path d="M75.7755 56.0567C71.9673 56.0567 68.8691 52.9585 68.8691 49.1718C68.8691 45.3637 71.9673 42.287 75.7755 42.287C79.5837 42.287 82.6604 45.3852 82.6604 49.1718C82.6819 52.9585 79.5837 56.0567 75.7755 56.0567ZM75.7755 45.4927C73.7531 45.4927 72.0964 47.1279 72.0964 49.1503C72.0964 51.1727 73.7316 52.8079 75.7755 52.8079C77.7979 52.8079 79.4331 51.1727 79.4331 49.1503C79.4546 47.1494 77.7979 45.4927 75.7755 45.4927ZM75.7755 98.8718C71.9673 98.8718 68.8691 95.7737 68.8691 91.987C68.8691 88.1788 71.9673 85.1021 75.7755 85.1021C79.5837 85.1021 82.6604 88.2003 82.6604 91.987C82.6819 95.7737 79.5837 98.8718 75.7755 98.8718ZM75.7755 88.3079C73.7531 88.3079 72.0964 89.943 72.0964 91.9655C72.0964 93.9879 73.7316 95.623 75.7755 95.623C77.7979 95.623 79.4331 93.9879 79.4331 91.9655C79.4546 89.943 77.7979 88.3079 75.7755 88.3079ZM75.7755 141.665C71.9673 141.665 68.8691 138.567 68.8691 134.781C68.8691 130.994 71.9673 127.896 75.7755 127.896C79.5837 127.896 82.6604 130.994 82.6604 134.781C82.6604 138.567 79.5837 141.665 75.7755 141.665ZM75.7755 131.102C73.7531 131.102 72.0964 132.737 72.0964 134.759C72.0964 136.782 73.7316 138.417 75.7755 138.417C77.7979 138.417 79.4331 136.782 79.4331 134.759C79.4331 132.737 77.7979 131.102 75.7755 131.102Z" fill="#418DFE"/>
<path d="M98.0232 140.052C100.934 140.052 103.294 137.692 103.294 134.781C103.294 131.869 100.934 129.509 98.0232 129.509C95.112 129.509 92.752 131.869 92.752 134.781C92.752 137.692 95.112 140.052 98.0232 140.052Z" fill="white"/>
<path d="M120.248 140.052C123.159 140.052 125.519 137.692 125.519 134.781C125.519 131.869 123.159 129.509 120.248 129.509C117.337 129.509 114.977 131.869 114.977 134.781C114.977 137.692 117.337 140.052 120.248 140.052Z" fill="white"/>
<path d="M17.3422 142.978C16.46 142.978 15.7285 142.246 15.7285 141.364V128.197C15.7285 127.315 16.46 126.583 17.3422 126.583C18.2243 126.583 18.9558 127.315 18.9558 128.197V141.364C18.9558 142.246 18.2458 142.978 17.3422 142.978ZM30.3373 142.978C29.4552 142.978 28.7237 142.246 28.7237 141.364V128.197C28.7237 127.315 29.4552 126.583 30.3373 126.583C31.2194 126.583 31.9509 127.315 31.9509 128.197V141.364C31.9509 142.246 31.2194 142.978 30.3373 142.978ZM43.3109 142.978C42.4288 142.978 41.6973 142.246 41.6973 141.364V128.197C41.6973 127.315 42.4288 126.583 43.3109 126.583C44.1931 126.583 44.9246 127.315 44.9246 128.197V141.364C44.9246 142.246 44.1931 142.978 43.3109 142.978ZM56.2846 142.978C55.4025 142.978 54.6709 142.246 54.6709 141.364V128.197C54.6709 127.315 55.4025 126.583 56.2846 126.583C57.1667 126.583 57.8982 127.315 57.8982 128.197V141.364C57.8982 142.246 57.1667 142.978 56.2846 142.978Z" fill="#418DFE"/>
<path d="M98.0232 54.4431C100.934 54.4431 103.294 52.0831 103.294 49.1718C103.294 46.2606 100.934 43.9006 98.0232 43.9006C95.112 43.9006 92.752 46.2606 92.752 49.1718C92.752 52.0831 95.112 54.4431 98.0232 54.4431Z" fill="white"/>
<path d="M98.0235 56.0567C94.2153 56.0567 91.1387 52.9585 91.1387 49.1718C91.1387 45.3637 94.2369 42.287 98.0235 42.287C101.81 42.287 104.908 45.3852 104.908 49.1718C104.908 52.9585 101.81 56.0567 98.0235 56.0567ZM98.0235 45.4927C96.0011 45.4927 94.3659 47.1279 94.3659 49.1503C94.3659 51.1727 96.0011 52.8079 98.0235 52.8079C100.046 52.8079 101.681 51.1727 101.681 49.1503C101.681 47.1494 100.046 45.4927 98.0235 45.4927Z" fill="#418DFE"/>
<path d="M98.0232 97.2366C100.934 97.2366 103.294 94.8766 103.294 91.9654C103.294 89.0542 100.934 86.6942 98.0232 86.6942C95.112 86.6942 92.752 89.0542 92.752 91.9654C92.752 94.8766 95.112 97.2366 98.0232 97.2366Z" fill="white"/>
<path d="M98.0235 98.8718C94.2153 98.8718 91.1387 95.7736 91.1387 91.987C91.1387 88.1788 94.2369 85.1021 98.0235 85.1021C101.81 85.1021 104.908 88.2003 104.908 91.987C104.908 95.7736 101.81 98.8718 98.0235 98.8718ZM98.0235 88.3079C96.0011 88.3079 94.3659 89.943 94.3659 91.9654C94.3659 93.9879 96.0011 95.623 98.0235 95.623C100.046 95.623 101.681 93.9879 101.681 91.9654C101.681 89.943 100.046 88.3079 98.0235 88.3079Z" fill="#418DFE"/>
<path d="M98.0232 140.052C100.934 140.052 103.294 137.692 103.294 134.781C103.294 131.869 100.934 129.509 98.0232 129.509C95.112 129.509 92.752 131.869 92.752 134.781C92.752 137.692 95.112 140.052 98.0232 140.052Z" fill="white"/>
<path d="M98.0235 141.665C94.2153 141.665 91.1387 138.567 91.1387 134.781C91.1387 130.994 94.2369 127.896 98.0235 127.896C101.81 127.896 104.908 130.994 104.908 134.781C104.908 138.567 101.81 141.665 98.0235 141.665ZM98.0235 131.102C96.0011 131.102 94.3659 132.737 94.3659 134.759C94.3659 136.782 96.0011 138.417 98.0235 138.417C100.046 138.417 101.681 136.782 101.681 134.759C101.681 132.737 100.046 131.102 98.0235 131.102ZM120.249 56.0567C116.44 56.0567 113.364 52.9585 113.364 49.1718C113.364 45.3637 116.462 42.287 120.249 42.287C124.035 42.287 127.134 45.3852 127.134 49.1718C127.134 52.9585 124.057 56.0567 120.249 56.0567ZM120.249 45.4927C118.226 45.4927 116.591 47.1279 116.591 49.1503C116.591 51.1727 118.226 52.8079 120.249 52.8079C122.271 52.8079 123.906 51.1727 123.906 49.1503C123.906 47.1494 122.271 45.4927 120.249 45.4927ZM120.249 98.8718C116.44 98.8718 113.364 95.7737 113.364 91.987C113.364 88.1788 116.462 85.1021 120.249 85.1021C124.035 85.1021 127.134 88.2003 127.134 91.987C127.134 95.7737 124.057 98.8718 120.249 98.8718ZM120.249 88.3079C118.226 88.3079 116.591 89.943 116.591 91.9655C116.591 93.9879 118.226 95.623 120.249 95.623C122.271 95.623 123.906 93.9879 123.906 91.9655C123.906 89.943 122.271 88.3079 120.249 88.3079ZM120.249 141.665C116.44 141.665 113.364 138.567 113.364 134.781C113.364 130.994 116.462 127.896 120.249 127.896C124.035 127.896 127.134 130.994 127.134 134.781C127.134 138.567 124.057 141.665 120.249 141.665ZM120.249 131.102C118.226 131.102 116.591 132.737 116.591 134.759C116.591 136.782 118.226 138.417 120.249 138.417C122.271 138.417 123.906 136.782 123.906 134.759C123.906 132.737 122.271 131.102 120.249 131.102Z" fill="#418DFE"/>
<path d="M212.347 67.3957C212.347 83.7975 198.817 97.1421 182.181 97.1421H91.0233C83.0521 97.1819 75.3903 94.0474 69.7175 88.4256C64.0398 82.9158 60.841 75.3231 60.8575 67.3957C60.8575 54.9285 68.6903 43.8784 80.4785 39.5488C86.2582 16.6326 106.603 0.436428 130.147 0.00866634C153.691 -0.419095 174.606 15.0274 181.208 37.7186C181.809 37.6794 182.154 37.6794 182.181 37.6794C182.632 37.6794 183.082 37.6794 183.527 37.7096C191.017 38.0026 198.13 41.0866 203.478 46.3597C209.148 51.8783 212.347 59.4679 212.347 67.3957Z" fill="#F4F9FF"/>
<path d="M78.0067 37.1428C77.8555 37.7367 77.7115 38.3306 77.5819 38.9406C76.7612 39.2777 75.9548 39.6228 75.1484 40C76.07 39.0101 77.0228 38.0577 78.0067 37.1428Z" fill="#607D8B"/>
<path d="M152.324 43.6964C154.41 41.5328 156.909 39.681 159.718 38.2178C162.568 36.7346 165.68 35.6474 168.935 34.9974C175.557 33.7072 182.486 34.179 188.78 36.3482C195.071 38.4855 200.471 42.1592 204.292 46.9024C206.168 49.2484 207.584 51.8354 208.487 54.5638C209.367 57.2609 209.671 60.0693 209.387 62.8571C208.848 57.4365 206.472 52.2634 202.544 47.9605C198.693 43.744 193.585 40.4731 187.746 38.4845C181.921 36.484 175.556 35.89 169.356 36.7685C163.037 37.7116 157.145 40.1082 152.324 43.6964V43.6964Z" fill="#7BB2FF"/>
<path fill-rule="evenodd" clip-rule="evenodd" d="M95.1587 20.0001C94.7015 20.3679 94.2504 20.7427 93.8053 21.1246C94.2464 20.7497 94.7086 20.3689 95.1587 20.0001ZM78.9985 42.1603C79.2281 41.5606 79.4718 40.9609 79.7296 40.3611C79.4718 40.9509 79.2281 41.5506 78.9985 42.1603ZM75.1502 48.5715C75.4946 48.4185 75.842 48.2716 76.1955 48.1277C75.845 48.2686 75.4946 48.4185 75.1502 48.5715Z" fill="#55717C"/>
<path d="M200.915 91.7355C195.24 97.0591 187.739 100.016 179.949 99.9998H88.3212C82.7345 100.019 77.2503 98.5048 72.4693 95.6223C72.2178 95.4698 71.9702 95.3152 71.7267 95.1587C71.4822 95.0021 71.2376 94.8395 70.9961 94.674C70.7546 94.5084 70.5312 94.3488 70.3048 94.1832L70.2807 94.1651C70.0422 93.9935 69.8097 93.8159 69.5773 93.6353C69.3448 93.4546 69.1396 93.289 68.9222 93.1114L68.8226 93.0301C68.6686 92.9007 68.5207 92.7742 68.3667 92.6387L68.1011 92.4099C67.9773 92.3015 67.8596 92.1962 67.7388 92.0817C67.4581 91.8289 67.1803 91.5639 66.9056 91.296C61.1987 85.7941 57.9834 78.2125 58.0001 70.2965C58.0001 70.0646 58.0001 69.8328 58.0001 69.604C58.0001 69.4505 58.0001 69.3029 58.0001 69.1343C58.0001 68.746 58.0363 68.3666 58.0695 67.9813C58.0695 67.7916 58.0997 67.5989 58.1208 67.4092C58.1419 67.2196 58.151 67.1082 58.1721 66.9365C58.1933 66.7649 58.2144 66.5692 58.2416 66.3856C58.314 65.8356 58.4036 65.2897 58.5102 64.7478C58.5344 64.6153 58.5616 64.4889 58.5887 64.3564C58.6401 64.1125 58.6944 63.8717 58.7457 63.6308C58.788 63.4652 58.8272 63.2996 58.8695 63.1371C58.9118 62.9745 58.9601 62.7848 59.0084 62.6102C59.0416 62.4838 59.0748 62.3633 59.111 62.2429C59.1472 62.1225 59.1774 62.0141 59.2136 61.8967C59.2499 61.7793 59.2921 61.6378 59.3344 61.5053C59.3767 61.3728 59.4099 61.2674 59.4521 61.15C59.6353 60.594 59.8365 60.0451 60.0559 59.5032C60.1223 59.3346 60.1917 59.166 60.2612 59.0004C60.3306 58.8348 60.4 58.6662 60.4755 58.5006C60.551 58.335 60.6204 58.1694 60.6989 58.0069C60.7774 57.8443 60.8498 57.6787 60.9314 57.5191C61.0129 57.3596 61.0883 57.194 61.1729 57.0344C61.2574 56.8749 61.3359 56.7123 61.4234 56.5557C61.511 56.3992 61.5925 56.2366 61.683 56.08C61.8581 55.779 62.0393 55.4508 62.2264 55.1407C62.4136 54.8306 62.5887 54.5596 62.7728 54.2736C63.3794 53.3511 64.0365 52.4626 64.7411 51.6122C64.8407 51.4887 64.9404 51.3713 65.043 51.2509C65.4234 50.8194 65.8148 50.3989 66.2173 49.9894C66.3169 49.8841 66.4135 49.7847 66.5192 49.6884C66.8774 49.3231 67.2467 48.9678 67.6271 48.6226L67.9139 48.3637C68.3708 47.9622 68.8407 47.5678 69.3237 47.1805L69.6256 46.9486C69.8792 46.756 70.1388 46.5633 70.3984 46.3766C70.5192 46.2893 70.6399 46.205 70.7607 46.1237C71.0293 45.934 71.3041 45.7504 71.5788 45.5697C71.7176 45.4764 71.8625 45.3891 72.0074 45.2988L72.3848 45.067L72.6867 44.8923C72.8406 44.799 72.9886 44.7087 73.1546 44.6214L73.2089 44.5913C73.3569 44.504 73.5108 44.4227 73.6618 44.3414C73.8127 44.2601 73.9908 44.1638 74.1569 44.0795L74.658 43.8236L75.1651 43.5797L75.6814 43.3418C76.0255 43.1883 76.3727 43.0408 76.7259 42.8963C77.0791 42.7518 77.4051 42.6253 77.7462 42.4989C77.8036 42.273 77.864 42.0503 77.9244 41.8245C78.0149 41.4933 78.1055 41.1591 78.2021 40.8339C78.2987 40.5088 78.3953 40.1746 78.504 39.8464C78.6127 39.5183 78.7093 39.1931 78.8059 38.868C78.9025 38.5428 79.0232 38.2237 79.1379 37.9076C79.1392 37.9016 79.1392 37.8955 79.1379 37.8895C79.2496 37.5884 79.3583 37.2874 79.476 36.9863C79.476 36.9652 79.476 36.9411 79.5002 36.917C79.7336 36.3149 79.9772 35.7128 80.2307 35.1106L80.2941 34.9631C80.4058 34.7042 80.5175 34.4453 80.6353 34.1894L80.7168 34.0087C80.8255 33.7709 80.9341 33.533 81.0458 33.2952L81.1545 33.0694C81.2783 32.8135 81.399 32.5606 81.5258 32.3077L81.5892 32.1782C81.7311 31.8952 81.876 31.6122 82.0209 31.3322C82.1658 31.0522 82.3228 30.7692 82.4677 30.4892L82.5915 30.2665C82.7002 30.0738 82.8028 29.8811 82.9175 29.6914C82.993 29.5529 83.0684 29.4144 83.153 29.279C83.2375 29.1435 83.3552 28.9267 83.4549 28.7521C83.5001 28.6768 83.5454 28.6015 83.5907 28.5263C83.7326 28.2824 83.8926 28.0416 84.0345 27.8007C84.1764 27.5599 84.3364 27.319 84.4933 27.0781C84.6141 26.8945 84.7318 26.7078 84.8556 26.5272L85.0579 26.2261C85.1665 26.0666 85.2752 25.907 85.3869 25.7504C85.4986 25.5939 85.6012 25.4494 85.7129 25.2868C85.8246 25.1242 85.8609 25.076 85.9394 24.9677C86.0631 24.793 86.1899 24.6124 86.3227 24.4408L86.4827 24.224C86.6307 24.0223 86.7846 23.8206 86.9356 23.6219C87.2314 23.2385 87.5333 22.8572 87.8412 22.4778C87.9771 22.3092 88.1159 22.1406 88.2548 21.972C88.5647 21.6007 88.8817 21.2314 89.2057 20.8641C89.3386 20.7106 89.4744 20.563 89.6133 20.4065L89.737 20.271C89.9303 20.0572 90.1265 19.8435 90.3227 19.6327L90.3891 19.5635C90.6065 19.3317 90.8268 19.1029 91.0533 18.874C92.0887 17.8143 93.1664 16.7937 94.3015 15.8212C94.7463 15.4379 95.1971 15.0615 95.654 14.6922C95.9377 14.4634 96.2245 14.2406 96.5113 14.0178C96.5456 13.9873 96.5819 13.9592 96.62 13.9335C96.9219 13.7017 97.2238 13.4759 97.5256 13.2531C97.8275 13.0303 98.1505 12.8015 98.4675 12.5787H98.4856C98.8086 12.3529 99.1347 12.1331 99.4577 11.9133C99.7807 11.6936 100.116 11.4828 100.445 11.2721C101.107 10.8526 101.779 10.4512 102.461 10.0678C102.803 9.87512 103.144 9.68243 103.488 9.49577C103.832 9.30911 104.176 9.12546 104.526 8.94783C104.707 8.85148 104.895 8.76116 105.079 8.67084C107.346 7.51812 109.694 6.53006 112.104 5.71436C111.174 6.37972 87.1378 17.5253 88.1099 40.8099C79.0914 44.0682 71.7699 50.8132 67.7992 59.5212C66.242 68.9782 69.4226 78.5968 76.3153 85.2746C82.0158 90.887 89.7146 94.0169 97.7249 93.9785H189.355C193.318 93.9841 197.243 93.2224 200.915 91.7355Z" fill="#7BB2FF"/>
</svg>
