<svg width="50" height="50" viewBox="0 0 50 50" fill="none" xmlns="http://www.w3.org/2000/svg">
<path d="M5.81523 7.15469L6.87773 8.92148L7.85703 10.5551C8.36523 11.4027 8.87344 12.2504 9.38086 13.098L10.4207 14.8324L11.9371 17.3578L13.7922 20.4578C14.327 21.3504 14.8629 22.2426 15.3984 23.1348L15.4703 23.2391C15.548 23.2633 15.6098 23.2426 15.6738 23.2273C16.3797 23.0578 17.0855 22.8895 17.7914 22.7211C18.9363 22.4477 20.0813 22.175 21.2258 21.9012L23.0195 21.4723C24.1766 21.1957 25.3344 20.9199 26.4918 20.6426C27.6621 20.3629 28.8316 20.0816 30.0016 19.8012C30.593 19.6594 31.1844 19.518 31.7762 19.377L35.2105 18.5582L38.9508 17.6676L39.1527 17.6129L39.0977 17.5035C38.7582 17.0223 38.4172 16.5418 38.077 16.0609L37.0688 14.6336L35.9906 13.1109L34.9598 11.6512L33.9387 10.2086L32.8836 8.71797L31.85 7.26055L31.3047 6.49141C31.2215 6.37305 31.1551 6.24609 31.1105 6.10781C31.0031 5.77344 31.1258 5.55117 31.3207 5.38672C31.4473 5.27969 31.5926 5.20156 31.7504 5.15508C31.9699 5.09023 32.191 5.02852 32.4152 4.98633C32.8648 4.90156 33.3172 4.8293 33.7687 4.7543C34.2781 4.66953 34.7879 4.58867 35.298 4.50469C35.6203 4.45156 35.9426 4.3957 36.2652 4.34102L37.5805 4.11953C38.0059 4.04805 38.432 3.97734 38.8574 3.90742L40.2512 3.67969L41.2188 3.5168C41.5859 3.45547 41.9539 3.39414 42.3215 3.33398C42.7801 3.25937 43.2379 3.18398 43.6969 3.11211C43.9695 3.06953 44.2434 3.0543 44.5145 3.13242C44.718 3.19141 44.9027 3.28672 45.0754 3.4082L45.3137 3.57461C45.3375 3.51953 45.3031 3.48984 45.2875 3.4582C44.9434 2.76211 44.4742 2.16367 43.8789 1.66445C43.3246 1.20078 42.7023 0.859766 42.0145 0.642578C41.6082 0.513672 41.1906 0.453906 40.7648 0.421875L40.5559 0.390625H9.59414L9.42656 0.417578C9.05391 0.446875 8.6875 0.502344 8.32695 0.601172C7.5375 0.817969 6.83594 1.19453 6.21719 1.72812C5.85313 2.0418 5.53555 2.39492 5.26602 2.79336C4.85 3.4082 4.56602 4.07656 4.42383 4.82031L4.60391 5.13398C5.00742 5.8082 5.41133 6.48125 5.81523 7.15469ZM7.8625 41.4613C8.24141 41.607 8.63281 41.7094 9.03672 41.759L9.4457 41.7773C9.50938 41.7855 9.5707 41.7969 9.6332 41.7969H22.2457C22.2254 41.7969 22.207 41.7387 22.1844 41.6992C21.6879 40.8523 21.1867 40.0211 20.6961 39.1711C20.0785 38.1 19.4668 37.0316 18.8582 35.9551C18.2082 34.8051 17.5641 33.6543 16.9187 32.5012C16.3059 31.4047 15.6941 30.3094 15.0836 29.2121C14.7148 28.5488 14.348 27.8855 13.9801 27.2219L13.8816 27.0703L13.7027 27.1059C13.348 27.1973 12.9941 27.2898 12.6398 27.3828C12.1469 27.5125 11.6547 27.6445 11.1613 27.7734C10.0543 28.0617 8.94688 28.348 7.83984 28.6355C6.71367 28.9277 5.61172 29.2207 4.48477 29.5117C4.41641 29.5297 4.6875 29.5359 4.29688 29.5477V36.5418C4.6875 36.5824 4.35 36.6566 4.35859 36.7281C4.38437 36.9352 4.3918 37.1437 4.42852 37.3492C4.56484 38.1137 4.85391 38.8129 5.29727 39.45C5.94727 40.3844 6.80195 41.0527 7.8625 41.4613ZM5.47109 25.684C6.77422 25.3742 8.07734 25.0648 9.38047 24.7555L11.0977 24.3496C11.3836 24.2816 11.6711 24.2164 11.9547 24.1398C12.207 24.0715 12.2387 23.9879 12.1086 23.7598C11.9207 23.4301 11.7297 23.1027 11.5391 22.7746L9.86406 19.8906L8.18945 17.0059C7.62148 16.0277 7.05312 15.0492 6.48477 14.0711L5.02539 11.5605L4.41875 10.4742C4.37969 10.4078 4.68789 10.3293 4.29727 10.2941V25.9719C4.29727 25.9613 4.37695 25.9523 4.42734 25.9402L5.47109 25.684ZM45.577 36.8902C45.066 37.0719 44.5555 37.2547 44.0445 37.4375C42.8816 37.8543 41.7191 38.2711 40.5562 38.6883C39.9109 38.9199 39.2656 39.1543 38.6191 39.3852C37.3023 39.8555 35.9848 40.3238 34.6672 40.793C33.9035 41.0648 33.1398 41.3105 32.377 41.5836C32.168 41.659 31.9617 41.7969 31.7547 41.7969H40.5168L40.7059 41.7789C40.9281 41.7695 41.1477 41.7484 41.3664 41.7082C42.266 41.5438 43.0715 41.1773 43.7848 40.6086C44.3324 40.1719 44.7785 39.6492 45.1277 39.0398C45.4871 38.4125 45.7004 37.7395 45.8027 37.027C45.8117 36.9656 45.8309 36.8988 45.7793 36.8352C45.7074 36.8297 45.643 36.8664 45.577 36.8902ZM44.8242 25.1242C44.4375 24.5957 44.0508 24.068 43.6648 23.5391C43.1328 22.809 42.6012 22.0781 42.0699 21.348C41.8539 21.0516 41.6352 20.7574 41.4238 20.4578C41.3605 20.3676 41.2879 20.3438 41.1891 20.3703L41.1324 20.3867C40.1539 20.6242 39.175 20.8617 38.1961 21.0988L36.4426 21.5242L33.0121 22.3574C31.8809 22.6324 30.75 22.9074 29.6187 23.182C28.443 23.4668 27.2672 23.7508 26.0922 24.0359C24.9355 24.3168 23.7793 24.5984 22.623 24.8797C21.5047 25.1512 20.3863 25.423 19.268 25.6941C18.677 25.8375 18.0863 25.9805 17.4957 26.125C17.4086 26.1461 17.3148 26.1512 17.2227 26.2215L17.3016 26.3719C17.7969 27.2273 18.2918 28.0824 18.7883 28.9371C19.35 29.9051 19.9125 30.8727 20.4762 31.8395C21.0961 32.902 21.7176 33.9641 22.3387 35.0266C22.6953 35.6367 23.05 36.248 23.4098 36.8566C23.8094 37.5324 24.2109 38.2074 24.6184 38.8793C24.7402 39.0805 24.8785 39.2723 25.018 39.4613C25.1117 39.5875 25.2277 39.6953 25.3645 39.7777C25.5051 39.8629 25.6574 39.8895 25.8172 39.8535C25.9 39.8348 25.9809 39.8074 26.0609 39.7797L26.3555 39.6707C27.4258 39.3043 28.4961 38.9383 29.5676 38.5734C30.4031 38.2887 31.2395 38.0059 32.0758 37.723C32.9059 37.4418 33.7363 37.1613 34.5664 36.8812C35.3902 36.6027 36.2145 36.3246 37.0387 36.0465C37.8812 35.7617 38.7238 35.477 39.5664 35.1914C40.6004 34.8406 41.6344 34.4883 42.6688 34.1383C43.666 33.8008 44.6637 33.4652 45.6617 33.1289C45.7227 33.1082 45.7902 33.0996 45.841 33.0324L45.8473 32.8871C45.8473 30.8184 45.8469 28.7488 45.8496 26.6797C45.8496 26.5691 45.8199 26.4801 45.7535 26.3914C45.4406 25.9707 45.1332 25.5469 44.8242 25.1242ZM44.6527 5.6293C44.4203 5.33516 44.1246 5.2418 43.7625 5.33633C43.6047 5.37773 43.4426 5.40352 43.282 5.4332C42.7543 5.52969 42.227 5.62461 41.6992 5.72031C40.9273 5.86055 40.1559 6.00234 39.3836 6.14102C38.7727 6.25117 38.1605 6.35898 37.5492 6.46641L35.0957 6.8957C34.9926 6.91367 34.8887 6.93164 34.7898 6.96328C34.6453 7.00977 34.6031 7.10039 34.6691 7.23633C34.7234 7.34727 34.7906 7.45352 34.8633 7.55352C35.3703 8.25273 35.8805 8.95039 36.3898 9.64805C37.0922 10.6102 37.7953 11.5723 38.498 12.534C39.0926 13.3477 39.6879 14.1613 40.2832 14.9746C40.7508 15.6141 41.2188 16.2527 41.6867 16.8918L41.7793 17.0035C43.1258 16.6703 44.4703 16.3383 45.8379 16.0004L45.8473 15.7902C45.8473 12.9746 45.8469 10.1594 45.8496 7.34414C45.8496 7.21992 45.8191 7.11992 45.7414 7.02148C45.3996 6.59063 45.0648 6.15469 44.727 5.7207L44.6527 5.6293ZM45.7445 19.2707C45.1305 19.418 44.5145 19.5586 43.8855 19.725C43.9523 19.8434 45.6766 22.1711 45.777 22.2812L45.8402 22.316L45.8473 22.1742V21.1938C45.848 20.6254 45.8496 20.0566 45.848 19.4883C45.848 19.4187 45.8672 19.3449 45.8199 19.2746L45.7445 19.2707ZM5.05078 49.6094V42.9168H6.46992V48.4375H9.18437V49.6094H5.05078ZM14.4441 49.6094L13.959 48.0164H11.5191L11.0336 49.6094H9.50469L11.8668 42.8895H13.6016L15.973 49.6094H14.4441ZM13.6199 46.8262C13.1715 45.3828 12.9188 44.5664 12.8625 44.377C12.8063 44.1875 12.7656 44.0383 12.741 43.9285C12.6402 44.3191 12.352 45.2852 11.8758 46.8262H13.6199ZM18.2344 47.0414V49.6094H16.8152V42.9168H18.7652C19.6746 42.9168 20.3477 43.0824 20.784 43.4133C21.2203 43.7441 21.4387 44.2473 21.4387 44.9215C21.4387 45.3152 21.3305 45.6652 21.1137 45.9719C20.8969 46.2785 20.5902 46.5187 20.1937 46.693C21.2008 48.1977 21.857 49.1695 22.1621 49.609H20.5875L18.9898 47.041H18.2344V47.0414ZM18.2344 45.8879H18.6922C19.1406 45.8879 19.4719 45.8133 19.6855 45.6637C19.8992 45.5141 20.0059 45.2793 20.0059 44.9586C20.0059 44.6414 19.8969 44.4152 19.6785 44.2812C19.4602 44.1473 19.1223 44.0797 18.6645 44.0797H18.2344V45.8879ZM27.1012 49.6094L26.616 48.0164H24.1762L23.6906 49.6094H22.1617L24.5238 42.8895H26.2586L28.6301 49.6094H27.1012ZM26.2773 46.8262C25.8289 45.3828 25.5762 44.5664 25.5199 44.377C25.4637 44.1875 25.423 44.0383 25.3984 43.9285C25.2977 44.3191 25.0094 45.2852 24.5332 46.8262H26.2773ZM33.2902 42.9168H34.723L32.4477 49.6094H30.9004L28.6301 42.9168H30.0629L31.3219 46.8992C31.3922 47.1344 31.4645 47.4082 31.5395 47.7211C31.6145 48.034 31.6609 48.2512 31.6789 48.3734C31.7125 48.0926 31.827 47.6012 32.0223 46.8996L33.2902 42.9168ZM39.4195 49.6094H35.5652V42.9168H39.4195V44.0797H36.9844V45.5492H39.2504V46.7121H36.9844V48.4375H39.4195V49.6094ZM40.8156 49.6094V42.9168H42.2348V48.4375H44.9492V49.6094H40.8156Z" fill="#FD4F31"/>
</svg>
