<svg width="60" height="60" viewBox="0 0 60 60" fill="none" xmlns="http://www.w3.org/2000/svg">
<path d="M27.075 13.975C27.275 13.9 27.55 13.875 27.725 13.975C27.775 14 27.825 14.05 27.8 14.1V14.15H27.825C27.775 14.3 27.525 14.275 27.4 14.325C27.275 14.375 27.175 14.5 27.05 14.5C26.925 14.5 26.725 14.45 26.7 14.325C26.675 14.15 26.925 13.975 27.075 13.975V13.975ZM29.625 14.325C29.5 14.275 29.25 14.3 29.225 14.15V14.1C29.2 14.05 29.25 14 29.275 13.975C29.4915 13.8874 29.7335 13.8874 29.95 13.975C30.1 13.975 30.35 14.15 30.325 14.325C30.3 14.45 30.1 14.475 29.975 14.475C29.85 14.475 29.75 14.375 29.625 14.325V14.325ZM25.225 17.95C25.975 18.45 26.95 19.125 28.175 19.125C29.4 19.125 30.85 18.45 31.725 17.95C32.2 17.625 32.85 17.125 33.35 16.775C33.75 16.45 33.725 16.125 34.075 16.125C34.4 16.15 34.15 16.45 33.7 16.95C33.225 17.275 32.525 17.775 31.95 18.125C30.85 18.625 29.55 19.45 28.175 19.45C26.825 19.45 25.725 18.775 24.95 18.275C24.55 17.95 24.25 17.625 24 17.45C23.6 17.125 23.65 16.625 23.825 16.625C24.1 16.65 24.15 16.95 24.325 17.125C24.575 17.275 24.875 17.625 25.225 17.95V17.95Z" fill="#F9C105"/>
<path d="M30.325 14.325C30.3 14.45 30.1 14.475 29.975 14.475C29.85 14.475 29.75 14.375 29.625 14.325C29.5 14.275 29.25 14.3 29.225 14.15V14.1C29.2 14.05 29.25 14 29.275 13.975C29.4915 13.8874 29.7335 13.8874 29.95 13.975C30.1 13.975 30.35 14.15 30.325 14.325V14.325Z" fill="black"/>
<path d="M41.575 27.45V29.75H40.2C41.4484 32.026 42.342 34.4793 42.85 37.025C43.225 37 43.675 37.075 44.15 37.175C44.35 36.65 44.475 36.125 44.55 35.6C45.025 32.125 42.825 28.725 41.575 27.45V27.45ZM41.575 27.45V29.75H40.2C41.4484 32.026 42.342 34.4793 42.85 37.025C43.225 37 43.675 37.075 44.15 37.175C44.35 36.65 44.475 36.125 44.55 35.6C45.025 32.125 42.825 28.725 41.575 27.45V27.45ZM53.2 47.375V47.15L53.175 47.125C52.75 46.625 52.55 45.8 52.325 44.825C52.125 43.825 51.875 42.85 51.075 42.2C50.925 42.075 50.775 42.05 50.6 41.875C50.4575 41.7804 50.2948 41.7204 50.125 41.7C50.825 39.65 50.9 37.575 50.55 35.6C50.375 34.525 50.075 33.475 49.675 32.475C48.325 28.95 45.975 25.875 44.175 23.775C43.25 22.6 42.3 21.425 41.575 20.175C40.75 18.75 40.2 17.225 40.225 15.35C40.275 11.875 40.5 6.45 38.05 3.075C36.75 1.25 34.625 0 31.275 0C30.875 0 30.475 0.025 30.05 0.05C26.875 0.3 24.9 1.45 23.675 3.075C20.8 6.875 22.15 13.175 22.05 15.8C21.85 18.525 21.3 20.675 19.4 23.35C18.625 24.25 17.725 25.35 16.85 26.6C15.175 28.95 13.5 31.75 12.525 34.65C11.9 36.525 11.55 38.45 11.725 40.3L11.8 40.875C11.7 40.95 11.6 41.05 11.525 41.2C10.85 41.875 10.375 42.7 9.85 43.3C9.325 43.8 8.625 43.975 7.825 44.3C7.025 44.65 6.15 44.975 5.65 46C5.4 46.475 5.3 47 5.3 47.5C5.3 48 5.375 48.525 5.45 48.85C5.6 49.85 5.75 50.675 5.55 51.275C4.925 52.975 4.85 54.15 5.275 55C5.725 55.825 6.625 56.15 7.65 56.5C9.7 57 12.475 56.825 14.675 58C17 59.15 19.4 59.675 21.275 59.175C22.625 58.875 23.75 58 24.35 56.8C24.475 56.8 24.575 56.8 24.7 56.775C26.1 56.7 27.65 56.125 30.05 55.975C30.725 55.925 31.45 56 32.25 56.1C33.525 56.3 34.975 56.575 36.575 56.475C36.625 56.8 36.725 56.95 36.85 57.3H36.875C37.85 59.25 39.675 60.125 41.625 59.975C43.575 59.825 45.65 58.65 47.35 56.725C48.925 54.8 51.6 54 53.35 52.95C54.225 52.475 54.95 51.8 55 50.825C55.05 49.825 54.5 48.8 53.2 47.375V47.375ZM33.75 11.6C33.65 11.275 33.5 11.1 33.3 10.775C33.075 10.6 32.875 10.425 32.625 10.425H32.575C32.35 10.425 32.125 10.5 31.925 10.775C31.675 11 31.5 11.275 31.4 11.6C31.275 11.925 31.2 12.25 31.175 12.6V12.65C31.175 12.875 31.2 13.1 31.225 13.325C30.725 13.15 30.125 12.975 29.7 12.8C29.675 12.65 29.65 12.475 29.65 12.325V12.275C29.625 11.6 29.75 10.95 30.025 10.35C30.225 9.8 30.6 9.325 31.1 9C31.55 8.675 32.075 8.5 32.6 8.5H32.65C33.175 8.5 33.65 8.675 34.125 9C34.6 9.35 34.95 9.825 35.225 10.35C35.5 10.975 35.625 11.475 35.65 12.15C35.65 12.1 35.675 12.05 35.675 12V12.25C35.65 12.25 35.65 12.225 35.65 12.2C35.65 12.775 35.5 13.375 35.275 13.925C35.15 14.225 34.975 14.525 34.725 14.75C34.65 14.7 34.575 14.675 34.5 14.65C34.25 14.525 34 14.475 33.775 14.325C33.601 14.2406 33.4158 14.1817 33.225 14.15C33.35 14 33.6 13.825 33.7 13.65C33.825 13.325 33.9 13 33.925 12.65V12.6C33.925 12.275 33.875 11.925 33.75 11.6V11.6ZM23.35 10.5C23.475 10 23.725 9.55 24.075 9.15C24.4 8.825 24.725 8.65 25.125 8.65H25.2C25.5701 8.65534 25.9289 8.77788 26.225 9C26.6 9.325 26.9 9.725 27.1 10.15C27.325 10.65 27.45 11.15 27.475 11.825C27.5 12 27.5 12.125 27.5 12.25C27.5 12.35 27.5 12.425 27.475 12.5V12.7C27.4109 12.7255 27.3436 12.7423 27.275 12.75C26.875 12.9 26.575 13.1 26.275 13.25C26.3 13.05 26.3 12.825 26.275 12.6V12.55C26.25 12.225 26.175 12.05 26.075 11.725C25.9916 11.4682 25.8455 11.2362 25.65 11.05C25.5849 10.9945 25.5093 10.9527 25.4277 10.9269C25.3461 10.9011 25.2602 10.892 25.175 10.9H25.125C24.95 10.9 24.8 11 24.675 11.225C24.5 11.425 24.4 11.65 24.35 11.9C24.3 12.175 24.275 12.45 24.3 12.725V12.775C24.325 13.1 24.4 13.275 24.5 13.6C24.625 13.925 24.75 14.1 24.925 14.275C24.95 14.3 24.975 14.325 25 14.325C24.825 14.475 24.725 14.5 24.575 14.675C24.4721 14.7576 24.3528 14.8173 24.225 14.85C23.975 14.525 23.75 14.2 23.55 13.825C23.3 13.3 23.175 12.75 23.15 12.175C23.1 11.6 23.175 11.025 23.35 10.5V10.5ZM23.625 15.775C24.175 15.425 24.575 15.075 24.85 14.925C25.1 14.75 25.2 14.675 25.275 14.6H25.3C25.725 14.075 26.4 13.425 27.4 13.075C27.75 13 28.15 12.925 28.6 12.925C29.425 12.925 30.45 13.075 31.65 13.925C32.4 14.425 32.975 14.6 34.325 15.1C34.975 15.425 35.35 15.75 35.55 16.1V15.75C35.725 16.125 35.725 16.55 35.575 16.925C35.275 17.725 34.275 18.55 32.9 19.05C32.2 19.375 31.625 19.875 30.925 20.2C30.225 20.55 29.45 20.95 28.375 20.875C27.9914 20.9068 27.6058 20.8468 27.25 20.7C26.95 20.55 26.675 20.4 26.425 20.225C25.925 19.875 25.5 19.375 24.875 19.05C23.85 18.425 23.3 17.75 23.125 17.275C22.95 16.6 23.125 16.1 23.625 15.775V15.775ZM24.025 54.925C23.875 56.775 22.8 57.775 21.175 58.15C19.525 58.475 17.325 58.15 15.1 57C12.675 55.65 9.75 55.825 7.9 55.475C6.95 55.325 6.35 54.975 6.05 54.475C5.775 53.975 5.775 52.975 6.375 51.4C6.675 50.55 6.45 49.5 6.3 48.6C6.175 47.6 6.1 46.825 6.425 46.25C6.825 45.4 7.425 45.25 8.15 44.9C8.9 44.575 9.775 44.4 10.475 43.75V43.725C11.125 43.05 11.6 42.225 12.175 41.625C12.65 41.125 13.125 40.8 13.85 40.8H13.875C14 40.8 14.125 40.8 14.275 40.825C15.225 40.975 16.05 41.675 16.85 42.7L19.15 46.875H19.175C19.775 48.2 21.075 49.55 22.175 50.975C23.275 52.475 24.125 53.8 24.025 54.9V54.925V54.925ZM32.25 53.325C29.775 53.9 27.15 53.725 24.7 52.375C24.4 52.225 24.1 52.05 23.825 51.85C23.55 51.375 23.2 50.925 22.8 50.525C22.616 50.2117 22.3792 49.9326 22.1 49.7C22.575 49.7 22.975 49.625 23.3 49.525C23.65 49.35 23.95 49.05 24.075 48.7C24.35 48.025 24.075 46.95 23.2 45.775C22.325 44.625 20.85 43.3 18.7 41.975C17.875 41.45 17.25 40.9 16.775 40.3C16.3 39.725 15.975 39.125 15.775 38.5C15.375 37.15 15.425 35.775 15.75 34.375C16.125 32.725 16.875 31.125 17.6 29.75C18.1 28.875 18.575 28.1 18.975 27.475C19.225 27.3 19.05 27.775 18 29.75L17.925 29.9C16.925 31.775 15.05 36.15 17.625 39.55C17.725 37.075 18.275 34.625 19.25 32.35C19.575 31.6 20 30.725 20.45 29.75C21.925 26.625 23.725 22.575 23.9 19.175C24.025 19.275 24.45 19.525 24.625 19.675C25.175 20.025 25.6 20.525 26.125 20.85C26.65 21.35 27.325 21.675 28.35 21.675C28.45 21.7 28.525 21.7 28.625 21.7C29.65 21.7 30.475 21.375 31.15 21.025C31.875 20.7 32.45 20.2 33 20.025H33.025C34.2 19.7 35.125 19.025 35.675 18.275C36.575 21.825 38.7 26.975 40.05 29.475C41.3772 31.8275 42.3223 34.376 42.85 37.025C43.225 37 43.675 37.075 44.15 37.175C44.35 36.65 44.475 36.125 44.55 35.6C45.025 32.125 42.825 28.725 41.575 27.45C41.5 27.4 41.425 27.325 41.375 27.275C40.825 26.775 40.8 26.425 41.075 26.425C41.25 26.575 41.4 26.725 41.575 26.9C42.975 28.35 44.6 30.675 45.225 33.325C45.425 34.05 45.525 34.825 45.525 35.6C45.525 36.225 45.45 36.875 45.3 37.5C45.45 37.575 45.625 37.65 45.8 37.675C48.425 39 49.375 40 48.925 41.5V41.4H48.425C48.8 40.225 47.975 39.325 45.725 38.35C43.425 37.35 41.575 37.5 41.25 39.5C41.225 39.6 41.225 39.675 41.2 39.85C41.025 39.9 40.85 39.975 40.675 40C39.6 40.675 39 41.675 38.675 42.975C38.35 44.3 38.25 45.85 38.15 47.65C38.1 48.475 37.725 49.75 37.35 51.025C35.825 52.1 34.1 52.925 32.25 53.325V53.325ZM53 52.05C51.425 53.05 48.6 53.825 46.8 55.975C45.225 57.825 43.325 58.825 41.65 58.95C39.975 59.075 38.525 58.45 37.675 56.7H37.65C37.125 55.7 37.35 54.125 37.8 52.475C38.25 50.8 38.875 49.1 38.975 47.725C39.05 45.95 39.15 44.4 39.45 43.2C39.775 42.025 40.25 41.2 41.075 40.725L41.2 40.675C41.275 42.175 42.05 43.775 43.425 44.125C44.9 44.45 47.05 43.275 47.95 42.2L48.475 42.175C49.275 42.15 49.95 42.2 50.625 42.85C51.15 43.35 51.4 44.175 51.625 45.05C51.85 46.05 52.025 47 52.65 47.7C53.9 49.025 54.3 49.975 54.275 50.55C54.225 51.225 53.8 51.55 53 52.05V52.05ZM41.575 27.45V29.75H40.2C41.4484 32.026 42.342 34.4793 42.85 37.025C43.225 37 43.675 37.075 44.15 37.175C44.35 36.65 44.475 36.125 44.55 35.6C45.025 32.125 42.825 28.725 41.575 27.45V27.45Z" fill="black"/>
<path d="M35.55 15.75V16.1C35.35 15.75 34.975 15.425 34.325 15.1C32.975 14.6 32.4 14.425 31.65 13.925C30.45 13.075 29.425 12.925 28.6 12.925C28.15 12.925 27.75 13 27.4 13.075C26.4 13.425 25.725 14.075 25.3 14.6H25.275C25.2 14.675 25.1 14.75 24.85 14.925C24.575 15.075 24.175 15.425 23.625 15.775C23.125 16.1 22.95 16.6 23.125 17.275C23.3 17.75 23.85 18.425 24.875 19.05C25.5 19.375 25.925 19.875 26.425 20.225C26.675 20.4 26.95 20.55 27.25 20.7C27.6 20.85 27.975 20.9 28.375 20.875C29.45 20.95 30.225 20.55 30.925 20.2C31.625 19.875 32.2 19.375 32.9 19.05C34.275 18.55 35.275 17.725 35.575 16.925C35.725 16.55 35.725 16.125 35.55 15.75V15.75ZM29.225 14.1C29.2 14.05 29.25 14 29.275 13.975C29.4915 13.8875 29.7335 13.8875 29.95 13.975C30.1 13.975 30.35 14.15 30.325 14.325C30.3 14.45 30.1 14.475 29.975 14.475C29.85 14.475 29.75 14.375 29.625 14.325C29.5 14.275 29.25 14.3 29.225 14.15V14.1V14.1ZM27.075 13.975C27.275 13.9 27.55 13.875 27.725 13.975C27.775 14 27.825 14.05 27.8 14.1V14.15H27.825C27.775 14.3 27.525 14.275 27.4 14.325C27.275 14.375 27.175 14.5 27.05 14.5C26.925 14.5 26.725 14.45 26.7 14.325C26.675 14.15 26.925 13.975 27.075 13.975V13.975ZM33.7 16.95C33.225 17.275 32.525 17.775 31.95 18.125C30.85 18.625 29.55 19.45 28.175 19.45C26.825 19.45 25.725 18.775 24.95 18.275C24.55 17.95 24.25 17.625 24 17.45C23.6 17.125 23.65 16.625 23.825 16.625C24.1 16.65 24.15 16.95 24.325 17.125C24.575 17.275 24.875 17.625 25.225 17.95C25.975 18.45 26.95 19.125 28.175 19.125C29.4 19.125 30.85 18.45 31.725 17.95C32.2 17.625 32.85 17.125 33.35 16.775C33.75 16.45 33.725 16.125 34.075 16.125C34.4 16.15 34.15 16.45 33.7 16.95V16.95ZM54.275 50.55C54.225 51.225 53.8 51.55 53 52.05C51.425 53.05 48.6 53.825 46.8 55.975C45.225 57.825 43.325 58.825 41.65 58.95C39.975 59.075 38.525 58.45 37.675 56.7H37.65C37.125 55.7 37.35 54.125 37.8 52.475C38.25 50.8 38.875 49.1 38.975 47.725C39.05 45.95 39.15 44.4001 39.45 43.2001C39.775 42.0251 40.25 41.2001 41.075 40.7251L41.2 40.675C41.275 42.175 42.05 43.775 43.425 44.125C44.9 44.45 47.05 43.275 47.95 42.2L48.475 42.1751C49.275 42.1501 49.95 42.2 50.625 42.85C51.15 43.35 51.4 44.175 51.625 45.05C51.85 46.05 52.025 47 52.65 47.7C53.9 49.025 54.3 49.975 54.275 50.55V50.55ZM24.025 54.9V54.925C23.875 56.775 22.8 57.775 21.175 58.15C19.525 58.475 17.325 58.15 15.1 57C12.675 55.65 9.74999 55.825 7.89999 55.475C6.94999 55.325 6.34999 54.9751 6.04999 54.4751C5.77499 53.9751 5.77499 52.975 6.37499 51.4C6.67499 50.55 6.44999 49.5001 6.29999 48.6C6.17499 47.6 6.09999 46.825 6.42499 46.25C6.82499 45.4 7.42499 45.25 8.14999 44.9C8.89999 44.575 9.77499 44.4 10.475 43.75V43.725C11.125 43.05 11.6 42.225 12.175 41.625C12.65 41.125 13.125 40.8 13.85 40.8H13.875C14 40.8 14.125 40.8 14.275 40.825C15.225 40.975 16.05 41.675 16.85 42.7L19.15 46.875H19.175C19.775 48.2 21.075 49.55 22.175 50.975C23.275 52.475 24.125 53.8 24.025 54.9V54.9Z" fill="#F9C105"/>
<path d="M27.825 14.15C27.775 14.3 27.525 14.275 27.4 14.325C27.275 14.375 27.175 14.5 27.05 14.5C26.925 14.5 26.725 14.45 26.7 14.325C26.675 14.15 26.925 13.975 27.075 13.975C27.275 13.9 27.55 13.875 27.725 13.975C27.775 14 27.825 14.05 27.8 14.1V14.15H27.825V14.15ZM33.7 16.95C33.225 17.275 32.525 17.775 31.95 18.125C30.85 18.625 29.55 19.45 28.175 19.45C26.825 19.45 25.725 18.775 24.95 18.275C24.55 17.95 24.25 17.625 24 17.45C23.6 17.125 23.65 16.625 23.825 16.625C24.1 16.65 24.15 16.95 24.325 17.125C24.575 17.275 24.875 17.625 25.225 17.95C25.975 18.45 26.95 19.125 28.175 19.125C29.4 19.125 30.85 18.45 31.725 17.95C32.2 17.625 32.85 17.125 33.35 16.775C33.75 16.45 33.725 16.125 34.075 16.125C34.4 16.15 34.15 16.45 33.7 16.95V16.95Z" fill="black"/>
</svg>
