<svg width="100" height="100" viewBox="0 0 100 100" fill="none" xmlns="http://www.w3.org/2000/svg">
<path fill-rule="evenodd" clip-rule="evenodd" d="M52.9867 47.4019C45.9654 47.6753 38.3978 46.3534 32.0156 43.1618L33.3375 41.0648C39.5375 43.9825 46.6496 44.9859 52.9867 44.7119C52.9867 44.9397 53.259 40.4262 53.6694 37.9645H44.1418C45.0077 28.0261 48.0623 19.1817 52.6214 11.6598H24.1284V55.0608H54.0798C53.396 52.4616 52.9867 47.3106 52.9867 47.4019V47.4019Z" fill="#D0E9FB"/>
<path fill-rule="evenodd" clip-rule="evenodd" d="M55.8582 44.5293C61.0554 44.0277 65.614 42.6601 68.3953 40.8822L70.0367 42.9792C66.2065 45.2136 61.2375 46.6719 55.8582 47.2193C55.9952 49.9092 56.4055 52.4616 57.0893 55.0608H77.6038V11.6598H55.7669C51.117 18.7719 48.4727 26.7042 47.4699 35.0925H57.2719C56.4506 38.2836 55.9495 41.4296 55.8582 44.5293V44.5293ZM37.0754 18.2246H39.8566V24.6529H37.0754V18.2246Z" fill="#00ACEC"/>
<path fill-rule="evenodd" clip-rule="evenodd" d="M60.2342 18.2246H63.0159V24.6529H60.2342V18.2246Z" fill="black"/>
<path fill-rule="evenodd" clip-rule="evenodd" d="M55.8582 44.5293C61.0554 44.0276 65.614 42.6601 68.3953 40.8822L70.0367 42.9792C66.2065 45.2136 61.2375 46.6719 55.8582 47.2192C56.0859 52.0512 57.2719 56.8381 59.6417 61.4429L57.2719 62.7186C52.941 55.881 52.166 46.6719 53.6699 37.9645H44.1418C45.3273 24.4246 50.524 12.936 58.0921 4.00085L60.1429 5.77875C52.7584 14.3497 48.7009 24.3338 47.4699 35.0925H57.2719C56.4506 38.2836 55.9495 41.4295 55.8582 44.5293V44.5293Z" fill="black"/>
<path fill-rule="evenodd" clip-rule="evenodd" d="M52.9867 44.7119V47.4018C45.9654 47.6753 38.3978 46.3534 32.0156 43.1618L33.3375 41.0648C39.537 43.9825 46.6491 44.9853 52.9867 44.7119Z" fill="#00ACEC"/>
<path fill-rule="evenodd" clip-rule="evenodd" d="M8.17198 69.6487C6.89576 69.74 6.25764 69.7856 5.43692 69.7856C4.93525 69.7856 4.43358 69.7856 3.84112 69.74H2.9296C2.47359 69.74 2.24584 69.9226 2.24584 70.3781C2.24584 70.7885 2.47359 71.0162 3.02091 71.0619L3.97808 71.1532C5.52823 71.2901 5.66467 71.4266 5.66467 72.749C5.66467 72.9316 5.61953 73.3871 5.61953 73.8888L4.75315 89.2517C4.57054 92.3515 4.5254 92.6249 4.25148 92.9896C4.11452 93.2173 3.70468 93.4456 3.06605 93.5369L2.47359 93.6282C1.60721 93.8108 1.47025 93.9473 1.47025 94.4489C1.47025 94.8137 1.69799 95.0419 2.06322 95.0419H2.29097L2.8383 94.9963C3.52206 94.9506 4.57054 94.905 5.34561 94.905C6.12068 94.905 7.71597 94.9506 8.17198 94.9963L8.8101 95.0419L9.03784 95.0876C9.40255 95.1332 9.72161 94.8142 9.72161 94.4038C9.72161 93.9478 9.49386 93.7657 8.94654 93.6744L8.21712 93.5831C6.53053 93.4005 6.34791 93.1271 6.34791 91.303C6.34791 90.7111 6.34791 89.8903 6.39357 89.3435L6.89472 74.3909L13.4138 94.0848C13.5965 94.6321 13.6872 94.7229 13.9155 94.7229C14.1889 94.7229 14.2346 94.6316 14.4628 94.0391L21.1641 74.4356L21.2554 89.5718V91.0306C21.2554 92.9901 21.0727 93.3548 19.8422 93.5374L19.2492 93.6287C18.6111 93.7201 18.3833 93.9021 18.3833 94.4038C18.3833 94.8142 18.6111 94.9968 19.0671 95.0419H19.2497L19.7514 94.9506C20.3444 94.905 22.0761 94.8137 22.8968 94.8137C23.6262 94.8137 24.0823 94.8137 24.6747 94.905C25.2672 94.9506 25.7232 94.9506 25.8601 94.9506H26.4075C26.863 94.9506 27.0912 94.768 27.0912 94.3125C27.0912 93.9021 26.8635 93.7195 26.1341 93.6287L25.496 93.5374C24.5388 93.4461 24.2197 93.1271 24.0828 92.489C23.9915 91.8514 23.9915 91.0763 23.9458 88.3407L23.8545 75.1199L23.8089 73.2512C23.8089 71.4271 23.9002 71.2907 25.3585 71.108L26.2249 71.0167C26.863 70.9254 27.0456 70.7433 27.0456 70.2873C27.0456 69.877 26.9086 69.74 26.3618 69.6943H26.2249L25.6775 69.74C24.9938 69.74 24.4464 69.7856 23.8083 69.7856C23.1246 69.7856 22.5316 69.74 21.3462 69.6943L14.6449 89.1609L8.17198 69.6487V69.6487ZM58.0013 75.5753V72.9772H57.4996L56.8615 75.165H56.8159L56.1321 72.9772H55.6304V75.5753H55.9495V74.0719V73.4338L56.6789 75.5759H56.9523L57.6817 73.3881V75.5753H58.0013V75.5753ZM33.4288 92.808C34.1582 92.489 34.9333 91.897 35.4806 91.2589C35.8453 90.7116 35.9818 90.3469 35.9818 89.6631L36.0731 85.5605C34.7968 86.1981 34.0669 86.6085 33.4288 87.064C33.201 87.2009 33.0184 87.383 32.8363 87.52C31.4683 88.6598 30.7845 89.9365 30.7845 91.1219C30.7845 92.3063 31.4226 93.0814 32.3347 93.0814C32.6537 93.0814 33.0184 92.9901 33.4288 92.808V92.808ZM33.4288 85.5143C34.2039 85.0583 35.1154 84.6023 36.0731 84.1919V80.909C36.0731 78.6756 35.5714 77.7185 34.3408 77.7185C34.0218 77.7185 33.7027 77.7641 33.4293 77.8554C32.1982 78.3114 31.2867 79.5882 30.9671 81.4564L30.8302 82.1401C30.6475 82.9609 30.4655 83.1435 29.8273 83.1435H29.1892C28.6876 83.1435 28.4142 82.8701 28.4142 82.414C28.4142 81.639 29.1892 79.7703 30.0556 78.7218C30.9671 77.6277 32.1526 76.8521 33.4293 76.4874C33.9305 76.3504 34.4778 76.2596 35.0251 76.2596C36.3926 76.2596 37.0764 76.4422 37.6694 76.9434C38.5352 77.6728 38.7635 78.3571 38.7635 80.59V80.8634L38.6722 89.1609C38.6722 91.8514 38.6722 91.8514 38.7635 92.215C38.8092 92.5797 39.0826 92.9445 39.4473 92.9901C40.131 93.0814 40.405 92.8075 40.6784 92.3063C40.9061 91.7144 41.6361 91.7144 41.5447 92.352C41.4991 93.0358 41.317 93.5831 40.724 94.2669C39.9946 95.0876 38.9918 95.3153 37.989 95.3153C36.6209 95.3153 35.9828 94.4489 35.9828 92.6249C35.299 93.4913 34.387 94.2207 33.4298 94.7223C32.564 95.1327 31.6063 95.4061 30.7399 95.4061C28.962 95.4061 27.7766 94.1294 27.7766 92.1689C27.7755 89.8909 29.7812 87.5195 33.4288 85.5143V85.5143ZM53.259 73.2963H54.1254V75.5753H54.4445V73.2963H55.3109V72.9772H53.259V73.2963ZM53.9885 92.0781C53.1677 93.2179 51.9833 94.1755 50.068 94.1299C46.3301 93.9929 44.8256 89.936 44.8256 85.423C44.8256 81.0003 46.7861 77.7636 49.4298 77.6272C50.3414 77.5815 51.0256 77.9006 51.6181 78.4935C52.2111 79.0409 52.6666 79.7703 52.8948 80.3622C53.3498 81.6846 54.6266 82.6423 54.444 78.6762C54.3526 77.2173 52.5753 76.1683 50.5691 76.214C45.5088 76.3509 41.9982 80.3166 41.9982 86.5166C41.9982 91.9427 44.6881 95.5436 48.6994 95.5436C50.249 95.5436 52.1187 95.4523 53.3944 94.4495C54.3978 93.7201 54.6712 93.3553 54.8533 92.5797C55.0831 91.5774 54.2624 91.7144 53.9885 92.0781Z" fill="black"/>
<path fill-rule="evenodd" clip-rule="evenodd" d="M72.4522 68.691C65.9782 68.828 61.3288 74.4351 61.3288 82.2771C61.3288 90.3926 65.8418 95.9997 72.2701 95.9997H72.4527C75.7356 95.954 78.2881 94.6316 80.4769 91.8057C82.5733 89.161 83.4853 86.2428 83.4853 82.2315C83.4853 78.5392 82.7103 75.6667 81.1612 73.2963C79.2006 70.3325 76.1911 68.691 72.6354 68.691H72.4522V68.691ZM72.4522 94.6316C70.0824 94.6316 68.4861 93.7196 66.9359 91.44C65.2945 89.0245 64.5661 86.1976 64.5661 82.3228C64.5661 75.165 67.7566 70.196 72.4522 70.0591H72.6348C74.778 70.0591 76.5097 71.0168 77.9229 72.9773C79.5643 75.165 80.3394 78.2197 80.3394 82.2315C80.3394 85.9247 79.7013 88.7506 78.2419 91.0307C76.6918 93.5375 74.9601 94.6316 72.4522 94.6316V94.6316ZM97.1617 70.2417C95.748 69.3297 94.4272 68.965 92.6031 68.965C88.4994 68.965 85.4453 72.0201 85.4453 76.2597C85.4453 79.1779 86.7677 80.9552 90.0952 82.6424L92.2384 83.6457C94.8365 84.9681 95.9306 86.4259 95.9306 88.7973C95.9306 92.0345 93.9701 94.3136 91.2807 94.3136C89.867 94.3136 88.6359 93.7663 87.8619 92.7178C87.1781 91.8524 86.6308 90.4844 86.403 89.3446L86.3117 88.4782C86.1747 87.7032 86.0383 87.4749 85.5823 87.4749C85.1719 87.4749 84.9442 87.8396 84.9442 88.569L85.0811 94.2218C86.8595 95.2702 88.6369 95.7719 90.7795 95.7719C93.47 95.7719 95.4751 94.8599 96.8432 92.9907C97.9373 91.5318 98.5303 89.7088 98.5303 87.7483C98.5303 84.3751 97.2079 82.3233 94.1076 80.7275L92.6949 79.9981C90.1414 78.7224 89.5941 78.3577 88.956 77.6282C88.3184 76.8988 87.9993 75.9411 87.9993 74.7557C87.9993 72.2032 89.6398 70.3792 91.8285 70.3792C93.9706 70.3792 95.6121 71.975 95.9768 74.3459L96.0681 74.9834C96.1137 75.4851 96.2958 75.7129 96.6611 75.7129C97.1171 75.7129 97.2084 75.6672 97.2992 74.8921V74.8008L97.1617 70.2417V70.2417Z" fill="#00ACEC"/>
</svg>
