<svg width="50" height="31" viewBox="0 0 50 31" fill="none" xmlns="http://www.w3.org/2000/svg">
<path d="M24.692 30.5716C24.5228 30.5716 24.3648 30.5265 24.218 30.4475L22.7171 29.556C22.4914 29.4318 22.6043 29.3867 22.672 29.3641C22.9767 29.2626 23.0331 29.2399 23.3491 29.0595C23.383 29.0368 23.4282 29.0482 23.462 29.0707L24.6131 29.7591C24.6582 29.7817 24.7146 29.7817 24.7484 29.7591L29.2512 27.1522C29.2963 27.1297 29.319 27.0845 29.319 27.0281V21.8257C29.319 21.7691 29.2963 21.7241 29.2512 21.7015L24.7484 19.1059C24.7033 19.0833 24.6469 19.0833 24.6131 19.1059L20.1103 21.7015C20.0651 21.724 20.0425 21.7805 20.0425 21.8256V27.028C20.0425 27.0732 20.0651 27.1296 20.1103 27.1522L21.3404 27.8632C22.0062 28.2017 22.4237 27.8067 22.4237 27.4118V22.277C22.4237 22.2093 22.4802 22.1416 22.5592 22.1416H23.1347C23.2024 22.1416 23.2701 22.198 23.2701 22.277V27.4118C23.2701 28.3032 22.7848 28.8224 21.9384 28.8224C21.6789 28.8224 21.4758 28.8224 20.9002 28.5402L19.7153 27.8632C19.4219 27.6939 19.2413 27.3779 19.2413 27.0393V21.8369C19.2413 21.4984 19.4219 21.1823 19.7153 21.0131L24.218 18.4062C24.5002 18.2482 24.8839 18.2482 25.166 18.4062L29.6688 21.0131C29.9622 21.1823 30.1428 21.4984 30.1428 21.8369V27.0393C30.1428 27.3779 29.9622 27.6939 29.6688 27.8632L25.166 30.47C25.0193 30.5378 24.8501 30.5716 24.6921 30.5716H24.692ZM26.0801 26.9942C24.1052 26.9942 23.6989 26.0914 23.6989 25.324C23.6989 25.2563 23.7554 25.1886 23.8344 25.1886H24.4212C24.4889 25.1886 24.5453 25.2337 24.5453 25.3015C24.6356 25.8996 24.8952 26.193 26.0914 26.193C27.0393 26.193 27.4457 25.9785 27.4457 25.4707C27.4457 25.1773 27.3327 24.963 25.8544 24.8162C24.6243 24.692 23.8569 24.4212 23.8569 23.4394C23.8569 22.5253 24.6244 21.9836 25.9109 21.9836C27.3553 21.9836 28.0663 22.4802 28.1567 23.5634C28.1567 23.5974 28.1453 23.6312 28.1228 23.6651C28.1001 23.6876 28.0663 23.7102 28.0325 23.7102H27.4456C27.3892 23.7102 27.3327 23.6651 27.3215 23.6086C27.1861 22.988 26.8362 22.7848 25.9109 22.7848C24.8726 22.7848 24.7484 23.146 24.7484 23.4168C24.7484 23.7441 24.8952 23.8456 26.2945 24.0262C27.6826 24.2068 28.3372 24.4663 28.3372 25.4368C28.3259 26.43 27.5134 26.9942 26.0801 26.9942Z" fill="#539E43"/>
<path d="M10.7209 10.2245C10.7209 10.0214 10.6081 9.82939 10.4275 9.72784L5.64261 6.9743C5.56352 6.92909 5.4733 6.90653 5.38308 6.8952H5.33787C5.24764 6.8952 5.15732 6.92909 5.07833 6.9743L0.293418 9.72784C0.112778 9.82939 0 10.0213 0 10.2245L0.0113266 17.6275C0.0113266 17.729 0.0677645 17.8306 0.157987 17.8758C0.248307 17.9322 0.361085 17.9322 0.440176 17.8758L3.28404 16.2507C3.46458 16.1492 3.57746 15.9573 3.57746 15.7542V12.2896C3.57746 12.0865 3.69023 11.8946 3.87087 11.7931L5.07833 11.0934C5.16865 11.0369 5.2702 11.0143 5.37175 11.0143C5.4733 11.0143 5.57485 11.0369 5.65394 11.0934L6.86139 11.7931C7.04204 11.8946 7.15481 12.0864 7.15481 12.2896V15.7542C7.15481 15.9573 7.26769 16.1492 7.44823 16.2507L10.2921 17.8758C10.3824 17.9322 10.4952 17.9322 10.5855 17.8758C10.6758 17.8306 10.7323 17.729 10.7323 17.6275L10.7209 10.2245ZM33.7201 0.0339066C33.6299 -0.0113022 33.517 -0.0113022 33.438 0.0339066C33.3477 0.0903445 33.2913 0.180567 33.2913 0.282116V7.61757C33.2913 7.68524 33.2575 7.7529 33.1897 7.79811C33.1221 7.8319 33.0543 7.8319 32.9866 7.79811L31.7904 7.10973C31.7027 7.05979 31.6035 7.03353 31.5026 7.03353C31.4017 7.03353 31.3025 7.05979 31.2148 7.10973L26.4299 9.8746C26.2494 9.97614 26.1365 10.168 26.1365 10.3711V15.8895C26.1365 16.0926 26.2494 16.2846 26.4299 16.3861L31.2148 19.151C31.3025 19.2009 31.4017 19.2272 31.5026 19.2272C31.6035 19.2272 31.7027 19.2009 31.7904 19.151L36.5753 16.3861C36.7559 16.2846 36.8687 16.0927 36.8687 15.8895V2.13294C36.8687 1.91852 36.7559 1.72675 36.5753 1.6251L33.7202 0.0339066H33.7201ZM33.2801 14.0727C33.2801 14.1291 33.2575 14.1742 33.2123 14.1968L31.576 15.1447C31.5531 15.1558 31.528 15.1616 31.5026 15.1616C31.4772 15.1616 31.4521 15.1558 31.4292 15.1447L29.7929 14.1968C29.7477 14.1742 29.7252 14.1178 29.7252 14.0727V12.1767C29.7252 12.1203 29.7477 12.0752 29.7929 12.0526L31.4292 11.1046C31.4521 11.0935 31.4772 11.0877 31.5026 11.0877C31.528 11.0877 31.5531 11.0935 31.576 11.1046L33.2123 12.0526C33.2575 12.0751 33.2801 12.1316 33.2801 12.1767V14.0727ZM49.6435 12.1316C49.8242 12.0301 49.9257 11.8382 49.9257 11.635V10.2921C49.9257 10.089 49.8128 9.89715 49.6435 9.7956L44.8925 7.04206C44.8048 6.99214 44.7056 6.9659 44.6047 6.9659C44.5038 6.9659 44.4047 6.99214 44.317 7.04206L39.5321 9.80683C39.3514 9.90838 39.2386 10.1002 39.2386 10.3034V15.8219C39.2386 16.025 39.3514 16.2168 39.5321 16.3184L44.2831 19.0268C44.4637 19.1283 44.6781 19.1283 44.8474 19.0268L47.725 17.4245C47.8153 17.3793 47.8718 17.2777 47.8718 17.1762C47.8718 17.0746 47.8153 16.9731 47.725 16.9279L42.9176 14.163C42.8273 14.1067 42.7709 14.0163 42.7709 13.9148V12.1882C42.7709 12.0866 42.8273 11.9851 42.9176 11.9398L44.4185 11.0822C44.4625 11.0545 44.5133 11.0398 44.5652 11.0398C44.6172 11.0398 44.668 11.0545 44.7119 11.0822L46.2128 11.9398C46.3031 11.9963 46.3596 12.0865 46.3596 12.1882V13.5424C46.3596 13.6439 46.416 13.7455 46.5062 13.7906C46.5966 13.847 46.7093 13.847 46.7997 13.7906L49.6435 12.1316V12.1316Z" fill="#333333"/>
<path d="M44.5314 11.8721C44.5481 11.8611 44.5677 11.8552 44.5878 11.8552C44.6078 11.8552 44.6274 11.8611 44.6441 11.8721L45.5583 12.4025C45.5922 12.425 45.6147 12.4589 45.6147 12.5041V13.5649C45.6147 13.61 45.5922 13.6439 45.5583 13.6664L44.6441 14.1968C44.6274 14.2078 44.6078 14.2137 44.5878 14.2137C44.5677 14.2137 44.5481 14.2078 44.5314 14.1968L43.6172 13.6664C43.5833 13.6439 43.5608 13.61 43.5608 13.5649V12.5041C43.5608 12.4589 43.5833 12.425 43.6172 12.4025L44.5314 11.8721V11.8721Z" fill="#539E43"/>
<mask id="mask0_2793_11563" style="mask-type:alpha" maskUnits="userSpaceOnUse" x="13" y="6" width="11" height="14">
<path d="M18.7221 7.06457C18.6344 7.01465 18.5353 6.9884 18.4344 6.9884C18.3335 6.9884 18.2343 7.01465 18.1466 7.06457L13.3956 9.80669C13.215 9.90823 13.1134 10.1001 13.1134 10.3032V15.7992C13.1134 16.0023 13.2263 16.1941 13.3956 16.2957L18.1466 19.038C18.2343 19.0879 18.3335 19.1141 18.4344 19.1141C18.5353 19.1141 18.6344 19.0879 18.7221 19.038L23.4733 16.2957C23.6538 16.1941 23.7554 16.0023 23.7554 15.7992V10.3033C23.7554 10.1002 23.6425 9.90833 23.4733 9.80678L18.7221 7.06457Z" fill="white"/>
</mask>
<g mask="url(#mask0_2793_11563)">
<path d="M18.7221 7.06457C18.6344 7.01465 18.5353 6.9884 18.4344 6.9884C18.3335 6.9884 18.2343 7.01465 18.1466 7.06457L13.3956 9.80669C13.215 9.90823 13.1134 10.1001 13.1134 10.3032V15.7992C13.1134 16.0023 13.2263 16.1941 13.3956 16.2957L18.1466 19.038C18.2343 19.0879 18.3335 19.1141 18.4344 19.1141C18.5353 19.1141 18.6344 19.0879 18.7221 19.038L23.4733 16.2957C23.6538 16.1941 23.7554 16.0023 23.7554 15.7992V10.3033C23.7554 10.1002 23.6425 9.90833 23.4733 9.80678L18.7221 7.06457Z" fill="url(#paint0_linear_2793_11563)"/>
<path d="M23.4845 9.80683L18.7109 7.06462C18.664 7.04093 18.6148 7.02202 18.5642 7.00818L13.215 16.1718C13.2593 16.2259 13.3128 16.2718 13.3731 16.3072L18.1466 19.0496C18.2821 19.1285 18.4401 19.1511 18.5867 19.1059L23.6087 9.9198C23.5748 9.87469 23.5296 9.84071 23.4845 9.80693V9.80683Z" fill="url(#paint1_linear_2793_11563)"/>
<path fill-rule="evenodd" clip-rule="evenodd" d="M23.4958 16.2957C23.6313 16.2167 23.7328 16.0813 23.778 15.9346L18.5415 6.99672C18.4061 6.97417 18.2593 6.98539 18.1353 7.06439L13.3955 9.79547L18.5076 19.117C18.582 19.1048 18.6542 19.082 18.722 19.0493L23.4957 16.2958L23.4958 16.2957Z" fill="url(#paint2_linear_2793_11563)"/>
<path fill-rule="evenodd" clip-rule="evenodd" d="M23.4958 16.2958L18.7335 19.0381C18.6662 19.0723 18.5938 19.0952 18.519 19.1057L18.6094 19.275L23.8908 16.2169V16.1491L23.7554 15.9233C23.7328 16.0813 23.6313 16.2168 23.4958 16.2958V16.2958Z" fill="url(#paint3_linear_2793_11563)"/>
<path fill-rule="evenodd" clip-rule="evenodd" d="M23.4958 16.2958L18.7335 19.0381C18.6662 19.0723 18.5938 19.0952 18.519 19.1057L18.6094 19.275L23.8908 16.2169V16.1491L23.7554 15.9233C23.7328 16.0813 23.6313 16.2168 23.4958 16.2958V16.2958Z" fill="url(#paint4_linear_2793_11563)"/>
</g>
<defs>
<linearGradient id="paint0_linear_2793_11563" x1="20.37" y1="9.10883" x2="15.1624" y2="17.2915" gradientUnits="userSpaceOnUse">
<stop stop-color="#41873F"/>
<stop offset="0.3288" stop-color="#418B3D"/>
<stop offset="0.6352" stop-color="#419637"/>
<stop offset="0.9319" stop-color="#3FA92D"/>
<stop offset="1" stop-color="#3FAE2A"/>
</linearGradient>
<linearGradient id="paint1_linear_2793_11563" x1="17.7131" y1="13.6951" x2="30.7552" y2="6.60923" gradientUnits="userSpaceOnUse">
<stop offset="0.1376" stop-color="#41873F"/>
<stop offset="0.4032" stop-color="#54A044"/>
<stop offset="0.7136" stop-color="#66B848"/>
<stop offset="0.9081" stop-color="#6CC04A"/>
</linearGradient>
<linearGradient id="paint2_linear_2793_11563" x1="12.9398" y1="13.0514" x2="23.9337" y2="13.0514" gradientUnits="userSpaceOnUse">
<stop offset="0.09192" stop-color="#6CC04A"/>
<stop offset="0.2864" stop-color="#66B848"/>
<stop offset="0.5968" stop-color="#54A044"/>
<stop offset="0.8624" stop-color="#41873F"/>
</linearGradient>
<linearGradient id="paint3_linear_2793_11563" x1="12.9399" y1="17.6084" x2="23.9336" y2="17.6084" gradientUnits="userSpaceOnUse">
<stop offset="0.09192" stop-color="#6CC04A"/>
<stop offset="0.2864" stop-color="#66B848"/>
<stop offset="0.5968" stop-color="#54A044"/>
<stop offset="0.8624" stop-color="#41873F"/>
</linearGradient>
<linearGradient id="paint4_linear_2793_11563" x1="25.5352" y1="8.84893" x2="22.7501" y2="23.443" gradientUnits="userSpaceOnUse">
<stop stop-color="#41873F"/>
<stop offset="0.3288" stop-color="#418B3D"/>
<stop offset="0.6352" stop-color="#419637"/>
<stop offset="0.9319" stop-color="#3FA92D"/>
<stop offset="1" stop-color="#3FAE2A"/>
</linearGradient>
</defs>
</svg>
