<svg width="72" height="72" viewBox="0 0 72 72" fill="none" xmlns="http://www.w3.org/2000/svg">
<path d="M60 6H12C8.68629 6 6 8.68629 6 12V60C6 63.3137 8.68629 66 12 66H60C63.3137 66 66 63.3137 66 60V12C66 8.68629 63.3137 6 60 6Z" fill="#90CAF9"/>
<path d="M30 51H24C22.4087 51 20.8826 50.3679 19.7574 49.2426C18.6321 48.1174 18 46.5913 18 45V27C18 25.4087 18.6321 23.8826 19.7574 22.7574C20.8826 21.6321 22.4087 21 24 21H30C31.5913 21 33.1174 21.6321 34.2426 22.7574C35.3679 23.8826 36 25.4087 36 27V45C36 46.5913 35.3679 48.1174 34.2426 49.2426C33.1174 50.3679 31.5913 51 30 51ZM24 27V45H30V27H24ZM48 51H42C41.2044 51 40.4413 50.6839 39.8787 50.1213C39.3161 49.5587 39 48.7956 39 48C39 47.2044 39.3161 46.4413 39.8787 45.8787C40.4413 45.3161 41.2044 45 42 45H48V39H45C43.4087 39 41.8826 38.3679 40.7574 37.2426C39.6321 36.1174 39 34.5913 39 33V27C39 25.4087 39.6321 23.8826 40.7574 22.7574C41.8826 21.6321 43.4087 21 45 21H51C51.7956 21 52.5587 21.3161 53.1213 21.8787C53.6839 22.4413 54 23.2044 54 24C54 24.7956 53.6839 25.5587 53.1213 26.1213C52.5587 26.6839 51.7956 27 51 27H45V33H48C49.5913 33 51.1174 33.6321 52.2426 34.7574C53.3679 35.8826 54 37.4087 54 39V45C54 46.5913 53.3679 48.1174 52.2426 49.2426C51.1174 50.3679 49.5913 51 48 51V51Z" fill="#1E88E5"/>
</svg>
