<svg width="50" height="26" viewBox="0 0 50 26" fill="none" xmlns="http://www.w3.org/2000/svg">
<path d="M25 0C11.1934 0 0 5.67241 0 12.6694C0 19.6664 11.1934 25.3388 25 25.3388C38.8066 25.3388 50 19.6664 50 12.6694C50 5.67241 38.8066 0 25 0ZM18.4949 15.1377C17.8982 15.6959 17.2357 15.9263 16.5061 16.1636C15.7765 16.4014 14.848 16.3523 13.719 16.3523H11.1603L10.4511 20.4443H7.4635L10.1295 6.53133H15.8747C17.6032 6.53133 18.864 7.02851 19.6566 7.93572C20.4492 8.84293 20.6874 10.1307 20.3715 11.7565C20.2409 12.4263 20.0212 13.0492 19.711 13.604C19.4004 14.1593 18.9949 14.6778 18.4949 15.1377ZM27.2154 16.3523L28.3944 10.4515C28.5286 9.76078 28.4795 9.24763 28.2466 8.99679C28.0134 8.74554 27.5174 8.57736 26.7592 8.57736H24.3899L22.8631 16.3523H19.8988L22.5648 2.84848H25.5291L24.8204 6.53133H27.461C29.1227 6.53133 30.2685 6.86483 30.8991 7.44426C31.5297 8.0237 31.7187 8.81756 31.4667 10.1156L30.2264 16.3523H27.2154ZM43.6896 11.7782C43.5595 12.448 43.3394 13.0602 43.0296 13.6147C42.7194 14.17 42.3143 14.6778 41.8138 15.1377C41.2172 15.6959 40.5543 15.9263 39.8251 16.1636C39.0959 16.4014 38.1666 16.3523 37.0376 16.3523H34.4788L33.7701 20.4443H30.7825L33.448 6.53133H39.1937C40.9222 6.53133 42.1829 7.02851 42.9752 7.93572C43.767 8.84293 44.0055 10.1528 43.6896 11.7782ZM38.0614 8.57736H36.015L34.8991 14.3062H36.7168C37.9207 14.3062 38.8185 14.1876 39.4077 13.7333C39.9978 13.2799 40.3951 12.5761 40.6018 11.515C40.7998 10.4957 40.7098 9.70062 40.3317 9.2816C39.9532 8.86257 39.1966 8.57736 38.0614 8.57736ZM14.7429 8.57736H12.696L11.5801 14.3062H13.3974C14.6017 14.3062 15.4991 14.1876 16.0887 13.7333C16.6784 13.2799 17.0761 12.5761 17.2824 11.515C17.4804 10.4957 17.3904 9.70062 17.0123 9.2816C16.6342 8.86257 15.878 8.57736 14.7429 8.57736Z" fill="#6181B6"/>
</svg>
