<svg width="50" height="50" viewBox="0 0 50 50" fill="none" xmlns="http://www.w3.org/2000/svg">
<g clip-path="url(#clip0_3019_11856)">
<path d="M24.786 0.0140381C12.1246 0.0140381 12.9152 5.50473 12.9152 5.50473L12.9293 11.1933H25.0117V12.9011H8.13029C8.13029 12.9011 0.0283203 11.9822 0.0283203 24.7574C0.0283203 37.533 7.09992 37.0799 7.09992 37.0799H11.3202V31.1515C11.3202 31.1515 11.0927 24.0799 18.2789 24.0799H30.2626C30.2626 24.0799 36.9953 24.1887 36.9953 17.5729V6.63412C36.9953 6.63412 38.0179 0.0140381 24.786 0.0140381ZM18.1237 3.83946C18.4092 3.8392 18.692 3.89525 18.9558 4.00439C19.2196 4.11354 19.4594 4.27363 19.6612 4.47553C19.8631 4.67742 20.0232 4.91714 20.1324 5.18097C20.2415 5.4448 20.2976 5.72757 20.2973 6.01308C20.2976 6.2986 20.2415 6.58136 20.1324 6.8452C20.0232 7.10903 19.8631 7.34875 19.6612 7.55064C19.4594 7.75253 19.2196 7.91263 18.9558 8.02177C18.692 8.13092 18.4092 8.18696 18.1237 8.18671C17.8382 8.18696 17.5554 8.13092 17.2916 8.02177C17.0277 7.91263 16.788 7.75253 16.5861 7.55064C16.3842 7.34875 16.2241 7.10903 16.115 6.8452C16.0059 6.58136 15.9498 6.2986 15.9501 6.01308C15.9498 5.72757 16.0059 5.4448 16.115 5.18097C16.2241 4.91714 16.3842 4.67742 16.5861 4.47553C16.788 4.27363 17.0277 4.11354 17.2916 4.00439C17.5554 3.89525 17.8382 3.8392 18.1237 3.83946Z" fill="url(#paint0_linear_3019_11856)"/>
<path d="M25.1455 49.6294C37.8068 49.6294 37.0163 44.1387 37.0163 44.1387L37.0022 38.4503H24.9196V36.7425H41.801C41.801 36.7425 49.9029 37.6613 49.9029 24.8858C49.9029 12.1104 42.8313 12.5635 42.8313 12.5635H38.611V18.4917C38.611 18.4917 38.8386 25.5633 31.6523 25.5633H19.6687C19.6687 25.5633 12.9359 25.4545 12.9359 32.0705V43.0095C12.9359 43.0095 11.9136 49.6294 25.1453 49.6294H25.1455ZM31.8078 45.8043C31.5223 45.8046 31.2395 45.7485 30.9757 45.6394C30.7118 45.5302 30.4721 45.3701 30.2702 45.1683C30.0683 44.9664 29.9082 44.7266 29.7991 44.4628C29.6899 44.199 29.6339 43.9162 29.6341 43.6307C29.6339 43.3452 29.6899 43.0624 29.799 42.7985C29.9082 42.5347 30.0683 42.2949 30.2701 42.093C30.472 41.8911 30.7118 41.731 30.9756 41.6218C31.2395 41.5127 31.5222 41.4566 31.8078 41.4569C32.0933 41.4566 32.3761 41.5127 32.6399 41.6218C32.9037 41.731 33.1434 41.8911 33.3453 42.0929C33.5472 42.2948 33.7073 42.5346 33.8165 42.7984C33.9256 43.0622 33.9817 43.345 33.9814 43.6305C33.9817 43.916 33.9256 44.1988 33.8165 44.4626C33.7073 44.7265 33.5472 44.9662 33.3453 45.1681C33.1434 45.37 32.9037 45.5301 32.6399 45.6392C32.3761 45.7483 32.0933 45.8044 31.8078 45.8041V45.8043Z" fill="url(#paint1_linear_3019_11856)"/>
</g>
<defs>
<linearGradient id="paint0_linear_3019_11856" x1="4.82125" y1="4.47663" x2="29.5376" y2="28.9464" gradientUnits="userSpaceOnUse">
<stop stop-color="#387EB8"/>
<stop offset="1" stop-color="#366994"/>
</linearGradient>
<linearGradient id="paint1_linear_3019_11856" x1="19.9922" y1="20.1897" x2="46.5347" y2="45.2812" gradientUnits="userSpaceOnUse">
<stop stop-color="#FFE052"/>
<stop offset="1" stop-color="#FFC331"/>
</linearGradient>
<clipPath id="clip0_3019_11856">
<rect width="50" height="49.8" fill="white"/>
</clipPath>
</defs>
</svg>
