<svg width="50" height="50" viewBox="0 0 50 50" fill="none" xmlns="http://www.w3.org/2000/svg">
<g clip-path="url(#clip0_2793_11587)">
<path d="M11.8083 26.7771C11.6438 27.275 11.5312 27.775 11.4292 28.2583L12.4521 29.1187C12.5021 28.5938 12.5917 28.0687 12.7167 27.5437L11.8083 26.7771ZM11.2396 31.6812C11.2646 32.3958 11.3271 32.975 11.3917 33.3792L12.9062 33.9583C12.7917 33.4333 12.6792 32.8396 12.6042 32.2062L11.2396 31.6812ZM5.89792 21.8604L5.00208 21.025C4.67292 21.3625 4.35833 21.6979 4.06875 22.0354L5.04167 22.9229C5.30625 22.5583 5.59792 22.1958 5.9 21.8583L5.89792 21.8604ZM14.6146 23.9375L14.0458 23.0208C13.7562 23.3042 13.4896 23.6125 13.2625 23.9229L13.8687 24.8917C14.0833 24.5542 14.3354 24.2437 14.6146 23.9375ZM15.9271 16.4458L15.675 15.625C15.2833 15.625 14.8792 15.6521 14.4625 15.7063L14.7021 16.5C15.0687 16.4604 15.4354 16.4458 15.8 16.4458H15.9271ZM10.1021 16.9312C9.78542 17.1062 9.45833 17.2958 9.11667 17.5083L9.69792 18.4521C10.0271 18.2375 10.3417 18.0354 10.6708 17.8604L10.1021 16.9312ZM2.08333 27.8813L0.63125 27.3146C0.391667 27.8937 0.127083 28.5687 0 28.9312L1.45208 29.4958C1.61667 29.0375 1.88125 28.3792 2.08333 27.8813Z" fill="#C70B00"/>
<path d="M21.7229 16.8895C21.6084 16.8229 21.2938 16.6604 20.4979 16.4187L20.4459 17.3083C20.8625 17.4562 21.2667 17.6187 21.6709 17.7916V17.7937L21.7229 16.8895Z" fill="#C70B00"/>
<path d="M21.7229 20.8229C21.2938 20.7292 20.8771 20.675 20.4729 20.6479V20.65L20.4229 21.4979C20.8396 21.5104 21.2563 21.5646 21.6729 21.6584L21.7229 20.8229ZM17.7938 21.8625L17.5167 20.975C17.0875 21.1084 16.7209 21.2584 16.4063 21.4063L16.6959 22.3354C17.0625 22.1459 17.4292 21.9834 17.7938 21.8625ZM16.1042 34.375H18.5313V32.0584L20.625 34.375H24.2125L21.3938 31.3459V31.3438C21.3938 31.3438 23.6063 31.1438 23.6063 28.1C23.6063 25.0542 20.9271 24.7709 20.9271 24.7709H16.1042V34.375ZM18.5271 27.1813H20.4729C20.4729 27.1813 21.0167 27.3979 21.0167 28.2729C21.0167 29.15 20.4604 29.3771 20.4604 29.3771H18.5271V27.1813Z" fill="#C70B00"/>
<path d="M36.6771 24.8375V34.3729H42.675V31.9104H39.2271V24.8375H36.6771Z" fill="#C70B00"/>
<path d="M35.6271 34.3729V24.8375H33.0646V34.3729H35.6271Z" fill="#C70B00"/>
<path d="M29.5896 24.8375H27.1271C25.3729 24.8375 24.7771 26.5334 24.7771 27.3438V34.375H27.2396V32.6917H29.55V34.375H31.9354V27.3438C31.9396 25.2979 30.1959 24.8375 29.5896 24.8375ZM27.2292 29.9688V27.6375C27.2292 27.6375 27.2292 27.1125 28 27.1125H28.8458C29.5271 27.1125 29.5396 27.6375 29.5396 27.6375V29.9688H27.2292ZM49.6729 27.2896V24.8375H45.7584C44.7479 24.8375 43.3979 25.7271 43.3979 27.3854V28.2334C43.3979 29.8896 44.7354 30.7375 45.7584 30.7375C46.4167 30.7417 46.7271 30.7417 46.8563 30.7438C46.6583 30.7417 46.2854 30.7375 47.7021 30.7375V31.925L43.5229 31.9375V34.375H47.6521C48.4979 34.375 49.9521 33.7146 50.0021 31.8688V30.9271C50.0021 29.35 48.7896 28.4209 47.6521 28.4209H45.5938V27.2896H49.6729Z" fill="#C70B00"/>
<path d="M23.375 29.6062H16.1042V34.375H18.5313V32.0583L20.625 34.375H24.2125L21.3938 31.3458V31.3437C21.3959 31.3437 22.8084 31.2145 23.375 29.6062Z" fill="#AD0A00"/>
<path d="M39.2271 29.6062H36.6771V34.3729H42.675V31.9104H39.2271V29.6062Z" fill="#AD0A00"/>
<path d="M35.6271 29.6062H33.0646V34.3729H35.6271V29.6062Z" fill="#AD0A00"/>
<path d="M31.9396 29.6062H29.5417V29.9687H27.2292V29.6062H24.7792V34.375H27.2417V32.6916H29.5542V34.375H31.9396V29.6062Z" fill="#AD0A00"/>
<path d="M46.7854 30.7437C46.8083 30.7437 46.8333 30.7437 46.8562 30.7437C46.8354 30.7437 46.8125 30.7437 46.7854 30.7437ZM49.6604 29.6062H43.7729C44.2437 30.3562 45.0708 30.7374 45.7562 30.7374C46.3187 30.7416 46.625 30.7416 46.7833 30.7437C46.5937 30.7416 46.4416 30.7374 47.7 30.7374V31.925L43.5208 31.9375V34.375H47.65C48.4958 34.375 49.95 33.7145 50 31.8687V30.927C50 30.4145 49.8729 29.9708 49.6604 29.6062Z" fill="#AD0A00"/>
<path d="M0.974976 33.7145C0.906226 34.1291 0.881226 34.3708 0.881226 34.3708L0.883309 34.3729H10.8604C10.8604 34.3729 8.95414 25.0937 15.2666 21.3333C16.6458 20.6187 21.0271 17.952 28.2 23.6104C28.4291 23.4083 28.6437 23.2437 28.6437 23.2437C28.6437 23.2437 22.075 16.2541 14.7625 17.0333C11.0729 17.3833 6.55414 20.9541 3.90206 25.6687C1.88539 29.2499 1.19373 32.402 0.974976 33.7145Z" fill="#C70B00"/>
<path d="M13.3812 17.3021C9.99998 18.273 6.23123 21.5292 3.89998 25.6688C1.88539 29.25 1.19164 32.4 0.974976 33.7125C0.906226 34.1271 0.881226 34.3688 0.881226 34.3688L0.883309 34.3709H10.8604C10.8604 34.3709 9.37081 27.1271 13.3812 22.8459V17.3021Z" fill="#AD0A00"/>
</g>
<defs>
<clipPath id="clip0_2793_11587">
<rect width="50" height="50" fill="white"/>
</clipPath>
</defs>
</svg>
