<svg width="50" height="50" viewBox="0 0 50 50" fill="none" xmlns="http://www.w3.org/2000/svg">
<path d="M25 29.4531C27.4594 29.4531 29.4531 27.4594 29.4531 25C29.4531 22.5406 27.4594 20.5469 25 20.5469C22.5406 20.5469 20.5469 22.5406 20.5469 25C20.5469 27.4594 22.5406 29.4531 25 29.4531Z" fill="#61DAFB"/>
<path d="M41.9141 17.6563C41.0547 17.3438 40.1562 17.0313 39.2187 16.7578C39.4531 15.8203 39.6484 14.8828 39.8047 13.9844C40.625 8.82812 39.7266 5.19531 37.2266 3.78906C36.4844 3.35937 35.6641 3.16406 34.7266 3.16406C31.9922 3.16406 28.5156 5.19531 25 8.59375C21.4844 5.19531 18.0078 3.16406 15.2734 3.16406C14.3359 3.16406 13.5156 3.35937 12.7734 3.78906C10.2734 5.23438 9.375 8.86719 10.1953 13.9844C10.3516 14.8828 10.5469 15.8203 10.7812 16.7578C9.84375 17.0313 8.94531 17.3047 8.08594 17.6563C3.20313 19.5312 0.546875 22.1094 0.546875 25C0.546875 27.8906 3.24219 30.4688 8.08594 32.3438C8.94531 32.6563 9.84375 32.9688 10.7812 33.2422C10.5469 34.1797 10.3516 35.1172 10.1953 36.0156C9.375 41.1719 10.2734 44.8047 12.7734 46.2109C13.5156 46.6406 14.3359 46.8359 15.2734 46.8359C18.0469 46.8359 21.5234 44.8047 25 41.4063C28.5156 44.8047 31.9922 46.8359 34.7266 46.8359C35.6641 46.8359 36.4844 46.6406 37.2266 46.2109C39.7266 44.7656 40.625 41.1328 39.8047 36.0156C39.6484 35.1172 39.4531 34.1797 39.2187 33.2422C40.1562 32.9688 41.0547 32.6953 41.9141 32.3438C46.7969 30.4688 49.4531 27.8906 49.4531 25C49.4531 22.1094 46.7969 19.5312 41.9141 17.6563ZM36.1328 5.74219C37.7344 6.67969 38.2812 9.57031 37.6172 13.6719C37.5 14.4922 37.3047 15.3516 37.0703 16.25C35.0391 15.7813 32.8906 15.4688 30.625 15.2734C29.2969 13.3984 27.9297 11.7188 26.5625 10.1953C29.4531 7.34375 32.3828 5.39062 34.7656 5.39062C35.2734 5.39062 35.7422 5.50781 36.1328 5.74219ZM31.7578 28.9063C31.0547 30.1563 30.2344 31.4063 29.375 32.6563C27.9297 32.7734 26.4844 32.8125 25 32.8125C23.4766 32.8125 22.0312 32.7734 20.625 32.6563C19.7656 31.4063 18.9844 30.1563 18.2812 28.9063C17.5391 27.6172 16.8359 26.2891 16.2109 25C16.8359 23.7109 17.5391 22.3828 18.2812 21.0938C18.9844 19.8438 19.8047 18.5938 20.6641 17.3438C22.1094 17.2266 23.5547 17.1875 25.0391 17.1875C26.5625 17.1875 28.0078 17.2266 29.4141 17.3438C30.2734 18.5938 31.0547 19.8438 31.7578 21.0938C32.5 22.3828 33.2031 23.7109 33.8281 25C33.1641 26.2891 32.5 27.5781 31.7578 28.9063ZM35 27.6172C35.5859 28.9844 36.0547 30.3125 36.4844 31.6406C35.1562 31.9531 33.75 32.1875 32.2656 32.3828C32.7344 31.6406 33.2422 30.8594 33.6719 30.0391C34.1406 29.2188 34.5703 28.3984 35 27.6172ZM25 38.2031C24.0625 37.1875 23.1641 36.0938 22.3047 34.9609C23.2031 35 24.1016 35.0391 25 35.0391C25.8984 35.0391 26.7969 35 27.6953 34.9609C26.8359 36.0938 25.9375 37.1875 25 38.2031ZM17.7344 32.3438C16.25 32.1484 14.8437 31.9141 13.5156 31.6016C13.9453 30.3125 14.4141 28.9453 15 27.5781C15.4297 28.3594 15.8594 29.1797 16.3281 29.9609C16.7969 30.8203 17.2656 31.5625 17.7344 32.3438ZM15 22.3828C14.4141 21.0156 13.9453 19.6875 13.5156 18.3594C14.8437 18.0469 16.25 17.8125 17.7344 17.6172C17.2656 18.3594 16.7578 19.1406 16.3281 19.9609C15.8594 20.7813 15.4297 21.6016 15 22.3828ZM25 11.7969C25.9375 12.8125 26.8359 13.9063 27.6953 15.0391C26.7969 15 25.8984 14.9609 25 14.9609C24.1016 14.9609 23.2031 15 22.3047 15.0391C23.1641 13.9063 24.0625 12.8125 25 11.7969ZM33.6719 20L32.2656 17.6563C33.75 17.8516 35.1562 18.0859 36.4844 18.3984C36.0547 19.6875 35.5859 21.0547 35 22.4219C34.5703 21.6016 34.1406 20.7812 33.6719 20ZM12.3828 13.6719C11.7188 9.57031 12.2656 6.67969 13.8672 5.74219C14.2578 5.50781 14.7266 5.39062 15.2344 5.39062C17.5781 5.39062 20.5078 7.30469 23.4375 10.1953C22.0703 11.6797 20.7031 13.3984 19.375 15.2734C17.1094 15.4688 14.9609 15.8203 12.9297 16.25C12.6953 15.3516 12.5391 14.4922 12.3828 13.6719ZM2.73437 25C2.73437 23.1641 4.96094 21.2109 8.86719 19.7656C9.64844 19.4531 10.5078 19.1797 11.3672 18.9453C11.9922 20.8984 12.7734 22.9688 13.7109 25.0391C12.7734 27.1094 11.9531 29.1406 11.3672 31.0938C5.97656 29.5313 2.73437 27.1875 2.73437 25ZM13.8672 44.2578C12.2656 43.3203 11.7188 40.4297 12.3828 36.3281C12.5 35.5078 12.6953 34.6484 12.9297 33.75C14.9609 34.2188 17.1094 34.5313 19.375 34.7266C20.7031 36.6016 22.0703 38.2813 23.4375 39.8047C20.5469 42.6563 17.6172 44.6094 15.2344 44.6094C14.7266 44.6094 14.2578 44.4922 13.8672 44.2578ZM37.6172 36.3281C38.2812 40.4297 37.7344 43.3203 36.1328 44.2578C35.7422 44.4922 35.2734 44.6094 34.7656 44.6094C32.4219 44.6094 29.4922 42.6953 26.5625 39.8047C27.9297 38.3203 29.2969 36.6016 30.625 34.7266C32.8906 34.5313 35.0391 34.1797 37.0703 33.75C37.3047 34.6484 37.4609 35.5078 37.6172 36.3281ZM41.1328 30.2344C40.3516 30.5469 39.4922 30.8203 38.6328 31.0547C38.0078 29.1016 37.2266 27.0313 36.2891 24.9609C37.2266 22.8906 38.0469 20.8594 38.6328 18.9063C44.0234 20.4688 47.2656 22.8125 47.2656 25C47.2656 26.8359 45 28.7891 41.1328 30.2344Z" fill="#61DAFB"/>
</svg>
