<svg width="50" height="50" viewBox="0 0 50 50" fill="none" xmlns="http://www.w3.org/2000/svg">
<path d="M32.2336 21.3496C27.1868 24.6019 22.186 27.825 17.0532 31.132C24.7399 32.1816 32.2895 33.2121 39.9887 34.2632C37.3661 29.8957 34.8106 25.6406 32.2336 21.3496ZM42.159 6.95776C41.4813 7.97495 40.8024 8.99175 40.1258 10.0097C37.8016 13.5062 35.4782 17.0023 33.1567 20.5C33.0274 20.6953 32.8598 20.85 33.0418 21.15C35.2856 24.8542 37.511 28.5703 39.7418 32.282C40.0938 32.8683 40.4501 33.4523 40.9055 34.0148L42.2583 6.98706L42.159 6.95776ZM11.5348 18.5078C11.6399 18.6074 11.902 18.6648 12.0235 18.605C14.1754 17.5472 16.3411 16.5132 18.4461 15.3683C19.1321 14.9957 19.6594 14.3265 20.2512 13.7843C22.2094 11.9886 24.1641 10.189 26.1188 8.38901C26.2387 8.27847 26.3797 8.17183 26.4516 8.03237C27.1536 6.66011 27.843 5.28159 28.5575 3.86245C27.7055 3.54331 26.8981 3.22964 26.0809 2.94448C25.97 2.90581 25.7958 2.98276 25.6747 3.04995C23.7829 4.10698 21.8555 5.10737 20.0235 6.26011C19.1067 6.83667 18.3598 7.68628 17.5481 8.4269C16.2407 9.62066 14.934 10.8171 13.645 12.032C13.3028 12.3542 12.9911 12.7226 12.725 13.1101C11.843 14.3937 10.9883 15.6957 10.0934 17.0351C10.5942 17.5531 11.0485 18.0476 11.5348 18.5078ZM19.3993 16.7527C18.3293 21.275 17.2645 25.7714 16.1653 30.416C21.3211 27.0941 26.3579 23.8488 31.361 20.625C27.3793 19.3359 23.4102 18.0511 19.3993 16.7527ZM27.9293 9.15855L32.3122 19.8195C35.1731 15.5222 37.977 11.3097 40.8446 7.00112C36.4887 7.72886 32.2368 8.43901 27.9293 9.15855ZM19.579 15.8277C23.5016 17.1015 27.3465 18.3496 31.3024 19.6335C29.8333 16.0542 28.4145 12.6003 26.9661 9.073L19.579 15.8277ZM11.6969 21.1449L7.5938 30.9531C10.2231 30.8753 12.7723 30.8 15.4083 30.7222C14.1708 27.5285 12.9575 24.3972 11.6969 21.1449ZM15.5012 28.4476L15.5981 28.4265C16.536 24.525 17.4879 20.6503 18.4461 16.5968C16.3094 17.707 14.2711 18.7664 12.1766 19.855C13.245 22.6332 14.3848 25.5628 15.5012 28.4476ZM39.2676 6.3687C38.0196 6.03823 36.7727 5.7062 35.5235 5.37808C33.7293 4.90659 31.9336 4.44019 30.1403 3.96401C29.9165 3.90464 29.754 3.86597 29.6223 4.13589C28.9887 5.43433 28.3348 6.72339 27.6911 8.01675C27.6711 8.05698 27.675 8.10933 27.6598 8.20894C31.5458 7.62026 35.4059 7.03511 39.2653 6.45034L39.2676 6.3687ZM32.0286 3.41479C35.3797 4.34214 38.7309 5.26909 42.1993 6.22847L40.5188 1.44019C37.6711 2.07183 34.8575 2.69565 32.0438 3.31948L32.0286 3.41479ZM35.1075 34.414L26.7633 33.275C23.2973 32.8019 19.8375 32.2812 16.3637 31.8808C15.104 31.7359 13.8106 31.8695 12.5333 31.891C11.4836 31.9089 10.434 31.9488 9.38481 31.982C9.27661 31.9851 9.1688 32.007 9.06138 32.123C17.7372 32.9253 26.4137 33.7273 35.0891 34.53L35.1075 34.414ZM7.76489 27.9593C8.88364 25.3652 9.99614 22.7691 11.1188 20.1773C11.2313 19.9167 11.2231 19.7406 11.0032 19.5316C10.5333 19.0843 10.0973 18.6027 9.58364 18.0691L7.53638 28.175L7.61177 28.2109C7.66372 28.1273 7.72661 28.0492 7.76489 27.9593ZM29.8008 2.73003C31.6864 2.24331 33.5993 1.86362 35.5008 1.43901C35.6235 1.41128 35.7438 1.37065 35.8649 1.33589L35.8465 1.24292L27.6762 2.34175C28.4438 2.67729 29.0348 2.92769 29.8008 2.73003ZM12.0997 42.7429V46.0816H10.2543V37.3796H12.7899C13.9719 37.3796 14.8469 37.5949 15.4145 38.0253C15.9821 38.4558 16.2661 39.1097 16.2661 39.9863C16.2661 40.4984 16.125 40.9539 15.843 41.3523C15.5614 41.7511 15.1629 42.064 14.6465 42.2902L17.2063 46.0812H15.1586L13.0817 42.7425H12.0997V42.7429ZM12.0997 41.2429H12.695C13.2778 41.2429 13.7086 41.1453 13.9864 40.9511C14.2637 40.7566 14.4028 40.4511 14.4028 40.0347C14.4028 39.6218 14.261 39.3285 13.977 39.1539C13.6934 38.9792 13.254 38.8918 12.659 38.8918H12.0993V41.2429H12.0997ZM22.8723 46.0816L22.6286 45.2304H22.5333C22.3387 45.5402 22.0629 45.7789 21.7063 45.9476C21.3489 46.1164 20.9418 46.2003 20.486 46.2003C19.704 46.2003 19.1149 45.9914 18.718 45.5726C18.3211 45.1539 18.1231 44.5519 18.1231 43.7664V39.4273H19.9383V43.314C19.9383 43.7941 20.0239 44.1542 20.1946 44.3945C20.3649 44.6347 20.6364 44.7542 21.0094 44.7542C21.5176 44.7542 21.8844 44.5843 22.1106 44.2457C22.3368 43.9062 22.45 43.3441 22.45 42.5585V39.4277H24.2653V46.082H22.8723V46.0816ZM29.8719 39.3019C30.6575 39.3019 31.2727 39.6089 31.7176 40.2218C32.1618 40.8347 32.3836 41.6749 32.3836 42.7425C32.3836 43.8414 32.1543 44.6925 31.6965 45.2953C31.2379 45.8988 30.6141 46.2 29.8243 46.2C29.0426 46.2 28.4297 45.916 27.9852 45.3484H27.8602L27.5571 46.0808H26.17V36.8203H27.9852V38.975C27.9852 39.2488 27.961 39.6871 27.9133 40.2906H27.9852C28.4094 39.632 29.0387 39.3019 29.8719 39.3019ZM29.2883 40.7546C28.8403 40.7546 28.5129 40.8925 28.3067 41.1683C28.1004 41.4445 27.9926 41.8996 27.9852 42.5347V42.7308C27.9852 43.4453 28.0911 43.957 28.3032 44.2667C28.5157 44.5761 28.852 44.7308 29.3125 44.7308C29.6852 44.7308 29.9817 44.5589 30.202 44.216C30.4223 43.873 30.5325 43.3738 30.5325 42.7191C30.5325 42.0644 30.4211 41.573 30.1989 41.2457C29.977 40.9183 29.6735 40.7546 29.2883 40.7546ZM32.8122 39.4273H34.8L36.0559 43.171C36.1629 43.4964 36.2368 43.8812 36.2758 44.3257H36.3118C36.3551 43.9171 36.4403 43.532 36.5672 43.171L37.7993 39.4273H39.7454L36.9301 46.9328C36.6723 47.6269 36.3043 48.1468 35.8266 48.4921C35.3481 48.8375 34.7899 49.0097 34.1508 49.0097C33.8372 49.0097 33.5297 48.9761 33.2286 48.9085V47.4683C33.4469 47.5195 33.6848 47.5453 33.9426 47.5453C34.2637 47.5453 34.5446 47.4472 34.7848 47.2507C35.0251 47.0546 35.2125 46.7582 35.3469 46.3613L35.454 46.0335L32.8122 39.4273Z" fill="#D91404"/>
</svg>
