<?xml version="1.0" encoding="utf-8"?>
<!-- Generator: Adobe Illustrator 24.0.2, SVG Export Plug-In . SVG Version: 6.00 Build 0)  -->
<svg version="1.1" id="Layer_1" xmlns="http://www.w3.org/2000/svg" xmlns:xlink="http://www.w3.org/1999/xlink" x="0px" y="0px"
	 viewBox="0 0 512 512" style="enable-background:new 0 0 512 512;" xml:space="preserve">
<style type="text/css">
	.st0{fill:url(#SVGID_1_);}
	.st1{fill:none;stroke:#BEBEBE;stroke-width:6;stroke-miterlimit:10;}
	.st2{opacity:0.5;}
	.st3{fill:#D8D8D8;}
	.st4{fill:#FFFFFF;}
	.st5{fill:url(#SVGID_2_);}
	.st6{fill:url(#SVGID_3_);}
	.st7{fill:none;stroke:url(#SVGID_4_);stroke-miterlimit:10;}
	.st8{fill:url(#SVGID_5_);}
	.st9{fill:url(#SVGID_6_);}
	.st10{fill:url(#SVGID_7_);}
	.st11{fill:url(#SVGID_8_);}
	.st12{fill:url(#SVGID_9_);}
	.st13{fill:none;stroke:url(#SVGID_10_);stroke-miterlimit:10;}
	.st14{fill:url(#SVGID_11_);}
	.st15{fill:url(#SVGID_12_);}
	.st16{fill:url(#SVGID_13_);}
	.st17{fill:url(#SVGID_14_);}
	.st18{fill:url(#SVGID_15_);}
	.st19{fill:url(#SVGID_16_);}
	.st20{fill:#231F20;}
	.st21{fill:url(#SVGID_17_);}
	.st22{fill:url(#SVGID_18_);}
	.st23{fill:url(#SVGID_19_);}
	.st24{fill:url(#SVGID_20_);}
	.st25{fill:url(#SVGID_21_);}
	.st26{fill:url(#SVGID_22_);}
	.st27{fill:url(#SVGID_23_);}
	.st28{fill:url(#SVGID_24_);}
	.st29{fill:url(#SVGID_25_);}
	.st30{fill:url(#SVGID_26_);}
	.st31{fill:url(#SVGID_27_);}
	.st32{fill:url(#SVGID_28_);}
	.st33{fill:url(#SVGID_29_);}
	.st34{fill:url(#SVGID_30_);}
	.st35{fill:#BABABA;}
	.st36{fill:url(#SVGID_31_);}
	.st37{fill:url(#SVGID_32_);}
	.st38{fill:url(#SVGID_33_);}
	.st39{fill:url(#SVGID_34_);}
	.st40{fill:url(#SVGID_35_);}
	.st41{fill:#3A1D1D;}
	.st42{fill:none;}
	.st43{fill:#3A3F4F;}
	.st44{font-family:'BebasKai';}
	.st45{font-size:89.7964px;}
	.st46{font-size:49.7267px;}
	.st47{fill:#3A3A3A;}
	.st48{font-family:'Arial-BoldMT';}
	.st49{font-size:56.9596px;}
</style>
<g>
	<g>
		<path class="st41" d="M348.6,396.6c7.4-6.2,9.1-16.4,9.1-16.4s-10.3,0-17.7,6.2c-7.4,6.2-9.1,16.4-9.1,16.4
			S341.3,402.8,348.6,396.6"/>
		<path class="st41" d="M307.4,154.7c-5.9-8.1-5.9-17.4-5.8-17.5c0-0.1,12.8,4,18.2,12.9c5.5,8.8,2.3,17.6,2.4,17.6
			C322.3,167.6,313.3,162.7,307.4,154.7"/>
		<path class="st41" d="M317.5,127.7c-11.4,1.5-16,9.9-16,9.8c0.1,0,12.2,3.9,22.7,3.1c10.6-0.9,17.1-7.2,17.1-7.3
			C341.5,133.3,329.1,126.2,317.5,127.7"/>
		<path class="st41" d="M329.5,165.4c-3.9-8.8-2-17.8-2-17.8c0-0.1,11.1,5.9,14.6,15.5c3.5,9.4-1.2,17.4-1.1,17.4
			C341,180.3,333.4,174.1,329.5,165.4"/>
		<path class="st41" d="M344.3,141c-11-0.4-16.9,6.9-16.9,6.8c0.1,0,10.6,5.8,20.7,6.8c10.2,0.9,17.6-4.1,17.7-4.2
			C365.9,150.5,355.4,141.5,344.3,141"/>
		<path class="st41" d="M348.4,179.4c-2.1-9.2,1.5-17.5,1.5-17.5c0-0.1,9.5,7.6,11,17.5c1.6,9.7-4.3,16.7-4.3,16.7
			C356.7,195.9,350.4,188.5,348.4,179.4"/>
		<path class="st41" d="M367.1,158.4c-10.5-2.3-17.5,3.8-17.4,3.8c0.1,0,8.9,7.4,18.5,10.1c9.7,2.7,17.8-0.9,17.8-1
			C386.1,171.2,377.7,160.7,367.1,158.4"/>
		<path class="st41" d="M363.9,196.3c-0.3-9.3,4.6-16.8,4.7-16.8c0-0.1,7.7,9,7.5,18.8c-0.2,9.7-7.2,15.4-7.1,15.5
			C369,213.8,364.3,205.5,363.9,196.3"/>
		<path class="st41" d="M385.9,179.1c-9.7-4-17.6,0.7-17.5,0.6c0.1,0,7.3,8.7,16.1,13c8.9,4.3,17.4,2.2,17.5,2.1
			C402.1,194.9,395.7,183.2,385.9,179.1"/>
		<path class="st41" d="M376,215.4c1.3-9.1,7.4-15.5,7.5-15.5c0-0.1,5.9,10.1,4.1,19.7c-1.8,9.5-9.6,13.8-9.6,13.8
			C378,233.3,374.8,224.4,376,215.4"/>
		<path class="st41" d="M400.4,202.5c-8.7-5.6-17.2-2.4-17.2-2.5c0.1,0,5.5,9.7,13.5,15.5c8,5.7,16.7,5.2,16.7,5.2
			C413.5,220.7,409.3,208.2,400.4,202.5"/>
		<path class="st41" d="M384.6,236.2c2.8-8.7,9.9-13.8,9.9-13.8c0.1-0.1,4.1,10.9,0.7,20c-3.4,9-11.7,11.8-11.7,11.9
			C383.6,254.1,381.9,244.8,384.6,236.2"/>
		<path class="st41" d="M410.6,228c-7.6-7.1-16.4-5.4-16.4-5.4c0.1,0.1,3.8,10.5,10.6,17.5c6.9,7,15.5,8.1,15.5,8
			C420.4,248.1,418.4,235,410.6,228"/>
		<path class="st41" d="M389.6,258.1c4.2-8,12-11.8,12-11.8c0.1-0.1,2.2,11.4-2.7,19.7c-4.8,8.2-13.5,9.6-13.4,9.6
			C385.5,275.6,385.4,266.1,389.6,258.1"/>
		<path class="st41" d="M416.4,254.7c-6.3-8.3-15.2-8.2-15.1-8.3c0.1,0.1,1.9,11,7.4,19.1c5.6,8.2,13.8,10.7,13.8,10.7
			C422.6,276.3,422.8,263,416.4,254.7"/>
		<path class="st41" d="M390.7,280.6c5.4-7.2,13.7-9.5,13.8-9.5c0.1-0.1,0.2,11.7-6,19c-6.1,7.3-14.8,7.1-14.8,7.1
			C383.8,297.2,385.3,287.7,390.7,280.6"/>
		<path class="st41" d="M417.6,282c-4.7-9.3-13.5-10.8-13.4-10.9c0.1,0.1,0.1,11.1,4,20.2c4,9.1,11.6,13.1,11.7,13.1
			C420,304.5,422.4,291.4,417.6,282"/>
		<path class="st41" d="M388,303.1c6.6-6.1,15.1-7,15.1-6.9c0.1-0.1-1.8,11.6-9.2,17.8c-7.3,6.2-15.8,4.4-15.8,4.5
			C378.2,318.4,381.5,309.2,388,303.1"/>
		<path class="st41" d="M414,309.3c-3-10.1-11.3-13.2-11.2-13.2c0,0.1-1.8,11.1,0.4,20.8c2.3,9.8,9,15.1,9.1,15.1
			C412.3,332.1,417.1,319.5,414,309.3"/>
		<path class="st41" d="M381.2,325.1c7.6-5,16-4.3,16.1-4.2c0.1-0.1-3.9,11.3-12.3,16.2c-8.3,4.9-16.4,1.6-16.3,1.7
			C368.8,338.7,373.8,330,381.2,325.1"/>
		<path class="st41" d="M405.6,335.9c-1.1-10.6-8.7-15.1-8.6-15.2c0,0.1-3.8,10.7-3.5,20.8c0.4,10.2,5.9,16.8,6,16.8
			C399.5,358.4,406.7,346.6,405.6,335.9"/>
		<path class="st41" d="M370.4,345.9c8.5-3.7,16.6-1.5,16.6-1.4c0.1,0-6,10.6-15.4,14.1c-9.2,3.5-16.5-1.2-16.5-1.1
			C355.3,357.4,362,349.5,370.4,345.9"/>
		<path class="st41" d="M392.2,361c1.1-10.8-5.5-16.7-5.4-16.7c0,0.1-5.8,10.1-7.6,20.3c-1.7,10.3,2.3,17.9,2.4,17.9
			C381.5,382.6,391.2,372,392.2,361"/>
		<path class="st41" d="M355.3,365c9.2-2.3,16.8,1.4,16.8,1.4c0.1,0-8.2,9.7-18.3,11.6c-10,2-16.3-3.9-16.3-3.9
			C337.6,374.1,346.2,367.2,355.3,365"/>
		<path class="st41" d="M373.6,384c3.4-10.8-1.9-17.8-1.8-17.8c0,0.1-7.9,9.1-12,19.2c-4.1,10.2-1.8,18.5-1.8,18.5
			C358.1,404.1,370.3,394.9,373.6,384"/>
		<path class="st41" d="M265.4,133l0.1,2c16.6-0.9,33,1.6,48.8,7.3c15.4,5.6,29.5,14,41.9,25.1c25.8,22.9,41.9,54.8,45.1,89.9
			c2.7,28.7-0.2,54.1-8.5,75.4c-8.9,22.9-24,40.6-44.7,52.4l1,1.7c21.2-12.1,36.5-30.1,45.6-53.4c8.4-21.6,11.4-47.3,8.7-76.3
			c-3.3-35.6-19.6-67.9-45.8-91.2c-12.6-11.2-27-19.8-42.6-25.4C298.9,134.6,282.3,132.1,265.4,133"/>
	</g>
</g>
<g>
	<g>
		<path class="st41" d="M141.2,396.6c-7.4-6.2-9.1-16.4-9.1-16.4s10.3,0,17.7,6.2c7.4,6.2,9.1,16.4,9.1,16.4
			S148.6,402.8,141.2,396.6"/>
		<path class="st41" d="M182.4,154.7c5.9-8.1,5.9-17.4,5.8-17.5c0-0.1-12.8,4-18.2,12.9c-5.5,8.8-2.3,17.6-2.4,17.6
			C167.6,167.6,176.6,162.7,182.4,154.7"/>
		<path class="st41" d="M172.3,127.7c11.4,1.5,16,9.9,16,9.8c-0.1,0-12.2,3.9-22.7,3.1c-10.6-0.9-17.1-7.2-17.1-7.3
			C148.4,133.3,160.8,126.2,172.3,127.7"/>
		<path class="st41" d="M160.3,165.4c3.9-8.8,2-17.8,2-17.8c0-0.1-11.1,5.9-14.6,15.5c-3.5,9.4,1.2,17.4,1.1,17.4
			C148.8,180.3,156.4,174.1,160.3,165.4"/>
		<path class="st41" d="M145.6,141c11-0.4,16.9,6.9,16.9,6.8c-0.1,0-10.6,5.8-20.7,6.8c-10.2,0.9-17.6-4.1-17.7-4.2
			C123.9,150.5,134.4,141.5,145.6,141"/>
		<path class="st41" d="M141.5,179.4c2.1-9.2-1.5-17.5-1.5-17.5c0-0.1-9.5,7.6-11,17.5c-1.6,9.7,4.3,16.7,4.3,16.7
			C133.2,195.9,139.4,188.5,141.5,179.4"/>
		<path class="st41" d="M122.7,158.4c10.5-2.3,17.5,3.8,17.4,3.8c-0.1,0-8.9,7.4-18.5,10.1c-9.7,2.7-17.8-0.9-17.8-1
			C103.7,171.2,112.2,160.7,122.7,158.4"/>
		<path class="st41" d="M125.9,196.3c0.3-9.3-4.6-16.8-4.7-16.8c0-0.1-7.7,9-7.5,18.8c0.2,9.7,7.2,15.4,7.1,15.5
			C120.8,213.8,125.6,205.5,125.9,196.3"/>
		<path class="st41" d="M104,179.1c9.7-4,17.6,0.7,17.5,0.6c-0.1,0-7.3,8.7-16.1,13c-8.9,4.3-17.4,2.2-17.5,2.1
			C87.8,194.9,94.2,183.2,104,179.1"/>
		<path class="st41" d="M113.8,215.4c-1.3-9.1-7.4-15.5-7.5-15.5c0-0.1-5.9,10.1-4.1,19.7c1.8,9.5,9.6,13.8,9.6,13.8
			C111.8,233.3,115.1,224.4,113.8,215.4"/>
		<path class="st41" d="M89.4,202.5c8.7-5.6,17.2-2.4,17.2-2.5c-0.1,0-5.5,9.7-13.5,15.5c-8,5.7-16.7,5.2-16.7,5.2
			C76.3,220.7,80.6,208.2,89.4,202.5"/>
		<path class="st41" d="M105.2,236.2c-2.8-8.7-9.9-13.8-9.9-13.8c-0.1-0.1-4.1,10.9-0.7,20c3.4,9,11.7,11.8,11.7,11.9
			C106.3,254.1,108,244.8,105.2,236.2"/>
		<path class="st41" d="M79.2,228c7.6-7.1,16.4-5.4,16.4-5.4C95.5,222.6,91.8,233,85,240c-6.9,7-15.5,8.1-15.5,8
			C69.4,248.1,71.5,235,79.2,228"/>
		<path class="st41" d="M100.3,258.1c-4.2-8-12-11.8-12-11.8c-0.1-0.1-2.2,11.4,2.7,19.7c4.8,8.2,13.5,9.6,13.4,9.6
			C104.3,275.6,104.4,266.1,100.3,258.1"/>
		<path class="st41" d="M73.4,254.7c6.3-8.3,15.2-8.2,15.1-8.3c-0.1,0.1-1.9,11-7.4,19.1c-5.6,8.2-13.8,10.7-13.8,10.7
			C67.2,276.3,67.1,263,73.4,254.7"/>
		<path class="st41" d="M99.1,280.6c-5.4-7.2-13.7-9.5-13.8-9.5c-0.1-0.1-0.2,11.7,6,19c6.1,7.3,14.8,7.1,14.8,7.1
			C106,297.2,104.5,287.7,99.1,280.6"/>
		<path class="st41" d="M72.3,282c4.7-9.3,13.5-10.8,13.4-10.9c-0.1,0.1-0.1,11.1-4,20.2c-4,9.1-11.6,13.1-11.7,13.1
			C69.9,304.5,67.5,291.4,72.3,282"/>
		<path class="st41" d="M101.9,303.1c-6.6-6.1-15.1-7-15.1-6.9c-0.1-0.1,1.8,11.6,9.2,17.8c7.3,6.2,15.8,4.4,15.8,4.5
			C111.6,318.4,108.4,309.2,101.9,303.1"/>
		<path class="st41" d="M75.8,309.3c3-10.1,11.3-13.2,11.2-13.2c0,0.1,1.8,11.1-0.4,20.8c-2.3,9.8-9,15.1-9.1,15.1
			C77.5,332.1,72.8,319.5,75.8,309.3"/>
		<path class="st41" d="M108.6,325.1c-7.6-5-16-4.3-16.1-4.2c-0.1-0.1,3.9,11.3,12.3,16.2c8.3,4.9,16.4,1.6,16.3,1.7
			C121.1,338.7,116.1,330,108.6,325.1"/>
		<path class="st41" d="M84.3,335.9c1.1-10.6,8.7-15.1,8.6-15.2c0,0.1,3.8,10.7,3.5,20.8c-0.4,10.2-5.9,16.8-6,16.8
			C90.3,358.4,83.1,346.6,84.3,335.9"/>
		<path class="st41" d="M119.5,345.9c-8.5-3.7-16.6-1.5-16.6-1.4c-0.1,0,6,10.6,15.4,14.1c9.2,3.5,16.5-1.2,16.5-1.1
			C134.6,357.4,127.8,349.5,119.5,345.9"/>
		<path class="st41" d="M97.7,361c-1.1-10.8,5.5-16.7,5.4-16.7c0,0.1,5.8,10.1,7.6,20.3c1.7,10.3-2.3,17.9-2.4,17.9
			C108.3,382.6,98.7,372,97.7,361"/>
		<path class="st41" d="M134.5,365c-9.2-2.3-16.8,1.4-16.8,1.4c-0.1,0,8.2,9.7,18.3,11.6c10,2,16.3-3.9,16.3-3.9
			C152.2,374.1,143.6,367.2,134.5,365"/>
		<path class="st41" d="M116.2,384c-3.4-10.8,1.9-17.8,1.8-17.8c0,0.1,7.9,9.1,12,19.2c4.1,10.2,1.8,18.5,1.8,18.5
			C131.7,404.1,119.6,394.9,116.2,384"/>
		<path class="st41" d="M224.4,133l-0.1,2c-16.6-0.9-33,1.6-48.8,7.3c-15.4,5.6-29.5,14-41.9,25.1c-25.8,22.9-41.9,54.8-45.1,89.9
			c-2.7,28.7,0.2,54.1,8.5,75.4c8.9,22.9,24,40.6,44.7,52.4l-1,1.7c-21.2-12.1-36.5-30.1-45.6-53.4c-8.4-21.6-11.4-47.3-8.7-76.3
			c3.3-35.6,19.6-67.9,45.8-91.2c12.6-11.2,27-19.8,42.6-25.4C190.9,134.6,207.6,132.1,224.4,133"/>
	</g>
</g>
<path id="SVGID_x5F_1_x5F_" class="st42" d="M451,286C451,398.7,359.7,490,247.1,490S43.1,398.7,43.1,286S134.4,82.1,247.1,82.1
	S451,173.4,451,286z"/>
<text class="st43 st44 st45"><textPath  xlink:href="#SVGID_x5F_1_x5F_" startOffset="-716.9393%">
Academic</textPath>
</text>
<path id="SVGID_x5F_2_x5F_" class="st42" d="M360,314c0,62.4-50.6,112.9-112.9,112.9S134.1,376.4,134.1,314s50.6-112.9,112.9-112.9
	S360,251.7,360,314z"/>
<text class="st43 st44 st46"><textPath  xlink:href="#SVGID_x5F_2_x5F_" startOffset="-716.9393%">
education</textPath>
</text>
<path id="SVGID_x5F_3_x5F_" class="st42" d="M469,282.8C469,163.1,369.3,66,246.2,66S23.5,163.1,23.5,282.8s99.7,216.8,222.8,216.8
	S469,402.5,469,282.8z"/>
<text class="st47 st48 st49"><textPath  xlink:href="#SVGID_x5F_3_x5F_" startOffset="-99.8453%">
EXPERT</textPath>
</text>
<g>
	<path class="st41" d="M316.2,265.4c-2.5-1.2-3.7,0.4-4.8,2.4c-11.1,23.1-30.1,35.3-59.7,40.6c1.8,3.2,8.2,6.5,5.5,11.1
		c-1,1.8-1.8,4.1-0.7,6.3c25.5-2,53.5-24.8,61.1-55.1C318.1,268.7,318.6,266.5,316.2,265.4z"/>
	<path class="st41" d="M172.1,265.4c2.5-1.2,3.7,0.4,4.8,2.4c11.1,23.1,30.1,35.3,59.7,40.6c-1.8,3.2-8.2,6.5-5.5,11.1
		c1,1.8,1.8,4.1,0.7,6.3c-25.5-2-53.5-24.8-61.1-55.1C170.1,268.7,169.6,266.5,172.1,265.4z"/>
	<rect x="239.8" y="314" transform="matrix(0.7071 -0.7071 0.7071 0.7071 -153.6709 266.056)" class="st43" width="9" height="9"/>
	<polygon class="st43" points="250.1,322 252.9,370.2 244.5,383.3 235.7,369.6 238.5,322 244.4,327 	"/>
</g>
<g>
	<path class="st43" d="M241.2,296.2l-24.4-10.6c-0.3-0.1-0.5-0.4-0.5-0.7V248c0-0.6,0.6-1,1.1-0.7l24.4,10.6
		c0.3,0.1,0.5,0.4,0.5,0.7v36.9C242.3,296.1,241.7,296.5,241.2,296.2"/>
	<path class="st43" d="M242.3,256.5l-19.6-13c-0.3-0.2-0.6,0-0.6,0.3v3.7c0,0.2,0.1,0.3,0.2,0.4L242.3,256.5z"/>
	<path class="st43" d="M242.3,254.2L228,240.6c-0.3-0.2-0.7-0.1-0.7,0.3v3.3c0,0.1,0.1,0.3,0.2,0.3L242.3,254.2z"/>
	<path class="st43" d="M245.7,296.2l24.4-10.6c0.3-0.1,0.5-0.4,0.5-0.7V248c0-0.6-0.6-1-1.1-0.7l-24.4,10.6
		c-0.3,0.1-0.5,0.4-0.5,0.7v36.9C244.6,296.1,245.2,296.5,245.7,296.2"/>
	<path class="st43" d="M244.6,256.5l19.6-13c0.3-0.2,0.6,0,0.6,0.3v3.7c0,0.2-0.1,0.3-0.2,0.4L244.6,256.5z"/>
	<path class="st43" d="M244.6,254.2l14.3-13.6c0.3-0.2,0.7-0.1,0.7,0.3v3.3c0,0.1-0.1,0.3-0.2,0.3L244.6,254.2z"/>
</g>
<path class="st41" d="M327.7,397.9c0.5,2,0.9,3.9,1.4,5.8c0.1,0.4,0.2,0.5,0.6,0.5c1.7,0.1,5.5,0.4,5.9,0.5
	c-0.3,0.2-3.6,2.2-5.1,3.1c-0.3,0.2-0.4,0.4-0.3,0.8c0.5,1.9,0.9,3.7,1.4,5.7c-0.2-0.2-3.1-2.6-4.4-3.7c-0.4-0.3-0.6-0.4-1-0.1
	c-1.6,1-3.2,2-5,3c0.1-0.4,0.4-1,0.4-1c0.6-1.5,1.3-3,1.9-4.5c0.1-0.3,0.1-0.5-0.2-0.8c-1.5-1.2-2.9-2.5-4.5-3.8
	c0.2,0,4.1,0.3,5.9,0.4c0.4,0,0.6-0.1,0.7-0.4C326.1,401.7,327.6,398.2,327.7,397.9z"/>
<path class="st41" d="M311,407.9c0.1,2.1,0.2,4,0.3,6c0,0.4,0.1,0.5,0.5,0.6c1.6,0.4,5.4,1.4,5.7,1.5c-0.3,0.1-3.9,1.6-5.5,2.1
	c-0.4,0.1-0.5,0.3-0.4,0.7c0.1,1.9,0.2,3.8,0.3,5.9c-0.2-0.2-2.6-3.1-3.7-4.5c-0.3-0.4-0.5-0.5-1-0.3c-1.7,0.7-3.5,1.4-5.4,2.1
	c0.2-0.3,0.5-0.9,0.6-0.9c0.9-1.4,1.8-2.8,2.7-4.1c0.2-0.3,0.2-0.5,0-0.8c-1.2-1.5-2.4-3-3.7-4.6c0.2,0,4,1,5.7,1.5
	c0.4,0.1,0.6,0,0.8-0.3C308.7,411.5,310.8,408.2,311,407.9z"/>
<path class="st41" d="M293.9,415c-0.2,2.1-0.4,4-0.6,5.9c0,0.4,0.1,0.5,0.4,0.7c1.5,0.6,5.1,2.2,5.5,2.3c-0.3,0.1-4.1,1-5.8,1.3
	c-0.4,0.1-0.5,0.3-0.5,0.6c-0.2,1.9-0.3,3.8-0.5,5.9c-0.2-0.3-2.1-3.5-3-5c-0.2-0.4-0.5-0.5-0.9-0.4c-1.8,0.4-3.7,0.8-5.7,1.3
	c0.3-0.3,0.7-0.8,0.7-0.8c1.1-1.2,2.2-2.5,3.3-3.7c0.2-0.3,0.3-0.5,0.1-0.8c-1-1.7-2-3.3-3-5.1c0.2,0.1,3.8,1.6,5.4,2.3
	c0.4,0.2,0.6,0.1,0.8-0.2C291.1,418.2,293.7,415.3,293.9,415z"/>
<path class="st41" d="M208.7,415.6c-1.2,1.7-2.3,3.3-3.4,4.9c-0.2,0.3-0.2,0.5,0,0.8c1,1.3,3.4,4.4,3.6,4.7c-0.3-0.1-4-1.2-5.7-1.7
	c-0.4-0.1-0.6,0-0.8,0.3c-1.1,1.6-2.2,3.2-3.3,4.9c0-0.3-0.2-4.1-0.2-5.8c0-0.5-0.1-0.7-0.6-0.8c-1.8-0.5-3.6-1.1-5.6-1.6
	c0.4-0.1,1-0.4,1-0.4c1.5-0.5,3.1-1.1,4.6-1.6c0.3-0.1,0.4-0.3,0.4-0.6c-0.1-1.9-0.1-3.9-0.2-5.9c0.1,0.2,2.5,3.2,3.6,4.7
	c0.2,0.3,0.4,0.4,0.8,0.2C204.7,417,208.3,415.8,208.7,415.6z"/>
<path class="st41" d="M190,410c-1.5,1.5-2.8,2.9-4.2,4.2c-0.3,0.3-0.3,0.4-0.1,0.8c0.8,1.5,2.5,4.9,2.7,5.3
	c-0.3-0.1-3.8-1.9-5.3-2.7c-0.4-0.2-0.6-0.1-0.8,0.1c-1.3,1.4-2.7,2.7-4.1,4.2c0-0.3,0.6-4,0.9-5.7c0.1-0.5,0-0.7-0.5-0.9
	c-1.7-0.8-3.4-1.7-5.2-2.6c0.4-0.1,1-0.2,1-0.2c1.6-0.3,3.2-0.5,4.9-0.8c0.4-0.1,0.5-0.2,0.5-0.6c0.3-1.9,0.6-3.8,0.9-5.8
	c0.1,0.2,1.9,3.6,2.7,5.2c0.2,0.4,0.4,0.4,0.7,0.4C185.8,410.6,189.6,410,190,410z"/>
<path class="st41" d="M173.3,402.1c-1.7,1.2-3.2,2.4-4.8,3.5c-0.3,0.2-0.4,0.4-0.2,0.7c0.6,1.6,1.8,5.2,1.9,5.6
	c-0.3-0.2-3.4-2.4-4.8-3.4c-0.3-0.2-0.5-0.2-0.8,0c-1.5,1.2-3.1,2.3-4.7,3.5c0.1-0.3,1.2-3.9,1.7-5.5c0.1-0.4,0.1-0.7-0.3-1
	c-1.6-1.1-3.1-2.2-4.8-3.4c0.4,0,1,0,1,0c1.6,0,3.3,0,4.9,0c0.4,0,0.5-0.1,0.6-0.5c0.6-1.9,1.1-3.7,1.7-5.6c0.1,0.2,1.4,3.9,1.9,5.6
	c0.1,0.4,0.3,0.5,0.7,0.5C169.1,402.1,172.9,402.1,173.3,402.1z"/>
</svg>
