<?xml version="1.0" encoding="utf-8"?>
<!-- Generator: Adobe Illustrator 24.0.2, SVG Export Plug-In . SVG Version: 6.00 Build 0)  -->
<svg version="1.1" id="Layer_1" xmlns="http://www.w3.org/2000/svg" xmlns:xlink="http://www.w3.org/1999/xlink" x="0px" y="0px"
	 viewBox="0 0 512 512" style="enable-background:new 0 0 512 512;" xml:space="preserve">
<style type="text/css">
	.st0{fill:url(#SVGID_1_);}
	.st1{fill:none;stroke:#BEBEBE;stroke-width:6;stroke-miterlimit:10;}
	.st2{opacity:0.5;}
	.st3{fill:#D8D8D8;}
	.st4{fill:#FFFFFF;}
	.st5{fill:url(#SVGID_2_);}
	.st6{fill:url(#SVGID_3_);}
	.st7{fill:none;stroke:url(#SVGID_4_);stroke-miterlimit:10;}
	.st8{fill:url(#SVGID_5_);}
	.st9{fill:url(#SVGID_6_);}
	.st10{fill:url(#SVGID_7_);}
	.st11{fill:url(#SVGID_8_);}
	.st12{fill:url(#SVGID_9_);}
	.st13{fill:none;stroke:url(#SVGID_10_);stroke-miterlimit:10;}
	.st14{fill:url(#SVGID_11_);}
	.st15{fill:url(#SVGID_12_);}
	.st16{fill:url(#SVGID_13_);}
	.st17{fill:url(#SVGID_14_);}
	.st18{fill:url(#SVGID_15_);}
	.st19{fill:url(#SVGID_16_);}
	.st20{fill:#231F20;}
	.st21{fill:url(#SVGID_17_);}
	.st22{font-family:'OpenSans-ExtraboldItalic';}
	.st23{font-size:59.168px;}
	.st24{fill:url(#SVGID_18_);}
	.st25{fill:url(#SVGID_19_);}
	.st26{fill:url(#SVGID_20_);}
	.st27{fill:url(#SVGID_21_);}
	.st28{fill:url(#SVGID_22_);}
	.st29{fill:url(#SVGID_23_);}
	.st30{fill:url(#SVGID_24_);}
	.st31{font-family:'OpenSans-BoldItalic';}
	.st32{font-size:38.1244px;}
	.st33{letter-spacing:1;}
	.st34{fill:url(#SVGID_25_);}
	.st35{fill:url(#SVGID_26_);}
	.st36{fill:url(#SVGID_27_);}
	.st37{fill:url(#SVGID_28_);}
	.st38{fill:url(#SVGID_29_);}
	.st39{fill:url(#SVGID_30_);}
	.st40{fill:#BABABA;}
	.st41{fill:url(#SVGID_31_);}
	.st42{fill:url(#SVGID_32_);}
	.st43{fill:url(#SVGID_33_);}
	.st44{fill:url(#SVGID_34_);}
	.st45{fill:url(#SVGID_35_);}
	.st46{fill:#3A1D1D;}
	.st47{fill:#3A3F4F;}
</style>
<g>
	<g>
		<g>
			<path class="st4" d="M140.7,161.1c-0.5-0.4-0.9-0.7-1.3-1.1c-3.6-2.9-5.5-4.6-5.5-4.6l0,0l-13.2-11.1
				c-15.5-15-19.1-24.4-19.2-41.9c0-1.6-0.2-3.2-0.4-4.7v0c0-0.3-0.1-0.5-0.1-0.8c0,0,0,0,0,0c0,0,0-0.1,0-0.1c0-0.1,0-0.2-0.1-0.3
				c-0.1-0.4-0.2-0.8-0.3-1.2c-0.1-0.4-0.2-0.7-0.3-1.1c0,0,0-0.1,0-0.1c0,0,0,0,0-0.1c-0.1-0.3-0.2-0.5-0.2-0.8
				c0-0.1-0.1-0.2-0.1-0.3c0-0.1-0.1-0.3-0.1-0.4c-0.1-0.2-0.1-0.3-0.2-0.5c0-0.1-0.1-0.2-0.1-0.2c-0.1-0.3-0.3-0.7-0.4-1
				c0-0.1-0.1-0.1-0.1-0.2c-0.1-0.1-0.1-0.3-0.2-0.4c0-0.1-0.1-0.1-0.1-0.2c-0.1-0.1-0.1-0.3-0.2-0.4c-0.1-0.1-0.1-0.3-0.2-0.4
				c-0.5-1.1-1.1-2.1-1.7-3.1c-0.1-0.2-0.3-0.5-0.4-0.7c0,0,0,0,0,0c-0.8-1.3-1.7-2.5-2.7-3.7c-0.1-0.2-0.3-0.3-0.4-0.5
				c-0.6-0.8-1.3-1.5-2-2.2c-0.2-0.2-0.3-0.3-0.5-0.5c-0.4-0.4-0.8-0.8-1.2-1.2c-0.4-0.3-0.7-0.7-1.1-1c-0.8-0.7-1.6-1.4-2.5-2.1
				c-0.5-0.4-0.9-0.7-1.4-1.1c-0.5-0.4-1.1-0.8-1.6-1.2c-0.5-0.4-1.1-0.7-1.6-1.1c-0.5-0.4-1.1-0.7-1.7-1.1c-0.3-0.2-0.7-0.4-1-0.6
				c-0.2-0.1-0.5-0.3-0.7-0.4c-0.3-0.2-0.5-0.3-0.8-0.4c-0.5-0.3-1.1-0.6-1.6-0.9c-0.1-0.1-0.2-0.1-0.3-0.2
				c-0.6-0.3-1.2-0.6-1.8-0.9c-0.2-0.1-0.3-0.2-0.5-0.2c-0.2-0.1-0.3-0.2-0.5-0.2c-0.2-0.1-0.5-0.2-0.8-0.4
				c-0.4-0.2-0.8-0.4-1.3-0.6c-0.3-0.1-0.6-0.2-0.8-0.4c-0.2-0.1-0.5-0.2-0.7-0.3c-0.2-0.1-0.5-0.2-0.7-0.3
				c-0.6-0.2-1.1-0.5-1.6-0.7c-0.2-0.1-0.4-0.1-0.5-0.2c-0.1,0-0.2-0.1-0.3-0.1c-0.3-0.1-0.5-0.2-0.8-0.3c-0.3-0.1-0.5-0.2-0.8-0.3
				c-0.8-0.3-1.6-0.6-2.4-0.9c-0.2-0.1-0.4-0.1-0.5-0.2c-0.2-0.1-0.3-0.1-0.5-0.2c-0.1,0-0.2-0.1-0.2-0.1c-0.3-0.1-0.6-0.2-0.9-0.3
				c-0.7-0.2-1.4-0.4-2.1-0.6c-0.2-0.1-0.4-0.1-0.6-0.2c-0.2,0-0.3-0.1-0.5-0.1c-0.2,0-0.3-0.1-0.5-0.1c-0.2-0.1-0.5-0.1-0.7-0.1
				c-0.2,0-0.4-0.1-0.6-0.1l-0.1,0c-0.1,0-0.3-0.1-0.4-0.1c0,0,0,0,0,0c-0.2,0-0.3-0.1-0.5-0.1c-0.2,0-0.3,0-0.5-0.1
				c-0.1,0-0.3,0-0.4,0c-0.1,0-0.1,0-0.2,0c-0.1,0-0.3,0-0.4,0c-0.2,0-0.4,0-0.5,0c-0.1,0-0.2,0-0.2,0h0c-0.1,0-0.1,0-0.1,0
				c0,0-0.1,0-0.1,0c-0.1,0-0.1,0.1-0.2,0.1c0,0,0,0,0,0.1c-0.2,0.5,0.5,1.9,1.7,4c0.1,0.2,0.2,0.3,0.3,0.5c0.2,0.3,0.4,0.7,0.7,1.1
				c0.8,1.3,1.8,2.8,2.9,4.4c0.3,0.4,0.6,0.9,0.9,1.4c1,1.4,2,2.9,3,4.3c0.3,0.5,0.7,1,1,1.5c5.8,8,11.7,15.9,11.7,15.9
				s-0.9,6.8-5.5,13.7c-0.4,0.7-0.9,1.3-1.4,2c-0.9,1.1-1.8,2.2-2.9,3.3c-5.2,5.2-13.2,9.5-25.3,9.8c-0.8,0-1.6,0-2.5,0
				c-0.5,0-1,0-1.5-0.1L10.7,90.3c-2.9,0.2-8.1,36.8,14.2,55.7c2,1.7,3.9,3,5.8,4c0.2,0.1,0.4,0.2,0.6,0.3c0.4,0.2,0.8,0.4,1.2,0.6
				c0.3,0.1,0.6,0.3,1,0.4c0.2,0.1,0.4,0.2,0.6,0.2c0,0,0.1,0,0.1,0c0.2,0.1,0.4,0.2,0.6,0.2c0.1,0,0.2,0.1,0.3,0.1l0.6,0.2
				c0.2,0.1,0.4,0.1,0.6,0.2c0.1,0,0.2,0.1,0.4,0.1c0.2,0.1,0.4,0.1,0.6,0.2c0,0,0.1,0,0.1,0c0.2,0.1,0.4,0.1,0.6,0.2
				c0.1,0,0.2,0,0.3,0.1c0.1,0,0.3,0.1,0.4,0.1c0,0,0,0,0,0c0.2,0.1,0.5,0.1,0.7,0.2c0,0,0.1,0,0.1,0c0.2,0,0.4,0.1,0.5,0.1
				c0,0,0,0,0,0c0.1,0,0.2,0,0.3,0c0.1,0,0.3,0.1,0.4,0.1c0.2,0,0.5,0.1,0.7,0.1c0.2,0,0.4,0.1,0.7,0.1c0.2,0,0.4,0,0.7,0.1h0
				c15.1,1.4,30.9-5.4,56.7,15.6l5.7,4.7l1.3,1.1l6.1,5.1l34.5-13.5C144.8,164.5,142.6,162.6,140.7,161.1z M457.3,407.8
				c-1.5-19.3-16.8-35.2-36.1-37.3c-5.7-0.6-11.2-0.1-16.2,1.4c-4.5,1.3-9.4,0.5-13-2.5c-0.9-0.7-1.9-1.5-2.9-2.4
				c-0.3-0.3-0.7-0.6-1.1-0.9c-2.1-1.7-4.4-3.6-7.1-5.8L343.1,371l7.7,6.4l1.1,0.9l11.8,9.8l0,0c0,0,3.9,3.3,7.5,6.3
				c3.6,3,5.3,7.6,4.8,12.2c-0.3,2.9-0.3,6,0,9.1c2.2,19.4,18.3,34.8,37.8,36.1C438.8,453.4,459.3,432.7,457.3,407.8z M398.7,433
				c-12.1-9.9-13.9-27.8-3.9-39.9c9.9-12.1,27.8-13.9,39.9-3.9c12.1,9.9,13.9,27.8,3.9,39.9C428.6,441.1,410.8,442.9,398.7,433z"/>
			<linearGradient id="SVGID_1_" gradientUnits="userSpaceOnUse" x1="8.0051" y1="255.6268" x2="457.4393" y2="255.6268">
				<stop  offset="6.407080e-03" style="stop-color:#7A7A7A"/>
				<stop  offset="0.123" style="stop-color:#4D4D4D"/>
				<stop  offset="0.3036" style="stop-color:#B3B3B3"/>
				<stop  offset="0.4944" style="stop-color:#8C8C8D"/>
				<stop  offset="0.5795" style="stop-color:#79797A"/>
				<stop  offset="0.6261" style="stop-color:#909091"/>
				<stop  offset="0.6911" style="stop-color:#AAAAAA"/>
				<stop  offset="0.7498" style="stop-color:#BABABA"/>
				<stop  offset="0.7961" style="stop-color:#BFBFBF"/>
				<stop  offset="0.8768" style="stop-color:#5C5C5C"/>
				<stop  offset="0.9976" style="stop-color:#7E7E80"/>
			</linearGradient>
			<path class="st0" d="M140.7,161.1c-0.5-0.4-0.9-0.7-1.3-1.1c-3.6-2.9-5.5-4.6-5.5-4.6l0,0l-13.2-11.1
				c-15.5-15-19.1-24.4-19.2-41.9c0-1.6-0.2-3.2-0.4-4.7v0c0-0.3-0.1-0.5-0.1-0.8c0,0,0,0,0,0c0,0,0-0.1,0-0.1c0-0.1,0-0.2-0.1-0.3
				c-0.1-0.4-0.2-0.8-0.3-1.2c-0.1-0.4-0.2-0.7-0.3-1.1c0,0,0-0.1,0-0.1c0,0,0,0,0-0.1c-0.1-0.3-0.2-0.5-0.2-0.8
				c0-0.1-0.1-0.2-0.1-0.3c0-0.1-0.1-0.3-0.1-0.4c-0.1-0.2-0.1-0.3-0.2-0.5c0-0.1-0.1-0.2-0.1-0.2c-0.1-0.3-0.3-0.7-0.4-1
				c0-0.1-0.1-0.1-0.1-0.2c-0.1-0.1-0.1-0.3-0.2-0.4c0-0.1-0.1-0.1-0.1-0.2c-0.1-0.1-0.1-0.3-0.2-0.4c-0.1-0.1-0.1-0.3-0.2-0.4
				c-0.5-1.1-1.1-2.1-1.7-3.1c-0.1-0.2-0.3-0.5-0.4-0.7c0,0,0,0,0,0c-0.8-1.3-1.7-2.5-2.7-3.7c-0.1-0.2-0.3-0.3-0.4-0.5
				c-0.6-0.8-1.3-1.5-2-2.2c-0.2-0.2-0.3-0.3-0.5-0.5c-0.4-0.4-0.8-0.8-1.2-1.2c-0.4-0.3-0.7-0.7-1.1-1c-0.8-0.7-1.6-1.4-2.5-2.1
				c-0.5-0.4-0.9-0.7-1.4-1.1c-0.5-0.4-1.1-0.8-1.6-1.2c-0.5-0.4-1.1-0.7-1.6-1.1c-0.5-0.4-1.1-0.7-1.7-1.1c-0.3-0.2-0.7-0.4-1-0.6
				c-0.2-0.1-0.5-0.3-0.7-0.4c-0.3-0.2-0.5-0.3-0.8-0.4c-0.5-0.3-1.1-0.6-1.6-0.9c-0.1-0.1-0.2-0.1-0.3-0.2
				c-0.6-0.3-1.2-0.6-1.8-0.9c-0.2-0.1-0.3-0.2-0.5-0.2c-0.2-0.1-0.3-0.2-0.5-0.2c-0.2-0.1-0.5-0.2-0.8-0.4
				c-0.4-0.2-0.8-0.4-1.3-0.6c-0.3-0.1-0.6-0.2-0.8-0.4c-0.2-0.1-0.5-0.2-0.7-0.3c-0.2-0.1-0.5-0.2-0.7-0.3
				c-0.6-0.2-1.1-0.5-1.6-0.7c-0.2-0.1-0.4-0.1-0.5-0.2c-0.1,0-0.2-0.1-0.3-0.1c-0.3-0.1-0.5-0.2-0.8-0.3c-0.3-0.1-0.5-0.2-0.8-0.3
				c-0.8-0.3-1.6-0.6-2.4-0.9c-0.2-0.1-0.4-0.1-0.5-0.2c-0.2-0.1-0.3-0.1-0.5-0.2c-0.1,0-0.2-0.1-0.2-0.1c-0.3-0.1-0.6-0.2-0.9-0.3
				c-0.7-0.2-1.4-0.4-2.1-0.6c-0.2-0.1-0.4-0.1-0.6-0.2c-0.2,0-0.3-0.1-0.5-0.1c-0.2,0-0.3-0.1-0.5-0.1c-0.2-0.1-0.5-0.1-0.7-0.1
				c-0.2,0-0.4-0.1-0.6-0.1l-0.1,0c-0.1,0-0.3-0.1-0.4-0.1c0,0,0,0,0,0c-0.2,0-0.3-0.1-0.5-0.1c-0.2,0-0.3,0-0.5-0.1
				c-0.1,0-0.3,0-0.4,0c-0.1,0-0.1,0-0.2,0c-0.1,0-0.3,0-0.4,0c-0.2,0-0.4,0-0.5,0c-0.1,0-0.2,0-0.2,0h0c-0.1,0-0.1,0-0.1,0
				c0,0-0.1,0-0.1,0c-0.1,0-0.1,0.1-0.2,0.1c0,0,0,0,0,0.1c-0.2,0.5,0.5,1.9,1.7,4c0.1,0.2,0.2,0.3,0.3,0.5c0.2,0.3,0.4,0.7,0.7,1.1
				c0.8,1.3,1.8,2.8,2.9,4.4c0.3,0.4,0.6,0.9,0.9,1.4c1,1.4,2,2.9,3,4.3c0.3,0.5,0.7,1,1,1.5c5.8,8,11.7,15.9,11.7,15.9
				s-0.9,6.8-5.5,13.7c-0.4,0.7-0.9,1.3-1.4,2c-0.9,1.1-1.8,2.2-2.9,3.3c-5.2,5.2-13.2,9.5-25.3,9.8c-0.8,0-1.6,0-2.5,0
				c-0.5,0-1,0-1.5-0.1L10.7,90.3c-2.9,0.2-8.1,36.8,14.2,55.7c2,1.7,3.9,3,5.8,4c0.2,0.1,0.4,0.2,0.6,0.3c0.4,0.2,0.8,0.4,1.2,0.6
				c0.3,0.1,0.6,0.3,1,0.4c0.2,0.1,0.4,0.2,0.6,0.2c0,0,0.1,0,0.1,0c0.2,0.1,0.4,0.2,0.6,0.2c0.1,0,0.2,0.1,0.3,0.1l0.6,0.2
				c0.2,0.1,0.4,0.1,0.6,0.2c0.1,0,0.2,0.1,0.4,0.1c0.2,0.1,0.4,0.1,0.6,0.2c0,0,0.1,0,0.1,0c0.2,0.1,0.4,0.1,0.6,0.2
				c0.1,0,0.2,0,0.3,0.1c0.1,0,0.3,0.1,0.4,0.1c0,0,0,0,0,0c0.2,0.1,0.5,0.1,0.7,0.2c0,0,0.1,0,0.1,0c0.2,0,0.4,0.1,0.5,0.1
				c0,0,0,0,0,0c0.1,0,0.2,0,0.3,0c0.1,0,0.3,0.1,0.4,0.1c0.2,0,0.5,0.1,0.7,0.1c0.2,0,0.4,0.1,0.7,0.1c0.2,0,0.4,0,0.7,0.1h0
				c15.1,1.4,30.9-5.4,56.7,15.6l5.7,4.7l1.3,1.1l6.1,5.1l34.5-13.5C144.8,164.5,142.6,162.6,140.7,161.1z M457.3,407.8
				c-1.5-19.3-16.8-35.2-36.1-37.3c-5.7-0.6-11.2-0.1-16.2,1.4c-4.5,1.3-9.4,0.5-13-2.5c-0.9-0.7-1.9-1.5-2.9-2.4
				c-0.3-0.3-0.7-0.6-1.1-0.9c-2.1-1.7-4.4-3.6-7.1-5.8L343.1,371l7.7,6.4l1.1,0.9l11.8,9.8l0,0c0,0,3.9,3.3,7.5,6.3
				c3.6,3,5.3,7.6,4.8,12.2c-0.3,2.9-0.3,6,0,9.1c2.2,19.4,18.3,34.8,37.8,36.1C438.8,453.4,459.3,432.7,457.3,407.8z M398.7,433
				c-12.1-9.9-13.9-27.8-3.9-39.9c9.9-12.1,27.8-13.9,39.9-3.9c12.1,9.9,13.9,27.8,3.9,39.9C428.6,441.1,410.8,442.9,398.7,433z"/>
			<path class="st4" d="M10.7,90.3l23.4,31.2c35.1,1.8,39-28.8,39-28.8S49.8,62.1,50.8,59.7c0.9-2.3,45.5,9.5,50.3,38.1
				c-0.5,34.7-20.5,53.4-58,55.9c0,0,0,0,0,0c-6-0.6-11.8-2.4-18.1-7.7C2.6,127.1,7.8,90.6,10.7,90.3z"/>
			<linearGradient id="SVGID_2_" gradientUnits="userSpaceOnUse" x1="9.2492" y1="106.5349" x2="99.829" y2="106.5349">
				<stop  offset="6.407080e-03" style="stop-color:#7A7A7A"/>
				<stop  offset="0.123" style="stop-color:#4D4D4D"/>
				<stop  offset="0.3036" style="stop-color:#B3B3B3"/>
				<stop  offset="0.4944" style="stop-color:#8C8C8D"/>
				<stop  offset="0.5795" style="stop-color:#79797A"/>
				<stop  offset="0.6261" style="stop-color:#909091"/>
				<stop  offset="0.6911" style="stop-color:#AAAAAA"/>
				<stop  offset="0.7498" style="stop-color:#BABABA"/>
				<stop  offset="0.7961" style="stop-color:#BFBFBF"/>
				<stop  offset="0.8768" style="stop-color:#5C5C5C"/>
				<stop  offset="0.9976" style="stop-color:#7E7E80"/>
			</linearGradient>
			<path class="st5" d="M43.7,152.4c36.7-2.7,55.6-21,56.1-54.5C95.6,73.4,60.1,61,52.2,60.6c1.8,4,12,18.4,21.9,31.3l0.3,0.4
				l-0.1,0.5c0,0.3-3.9,27.7-33.6,29.8c-2.2,0.2-4.4,0.2-6.8,0.1l-0.6,0L10.7,92.4C10,94.6,9,100,9.3,107.6
				c0.4,9.2,3.1,26.2,16.4,37.4c5.3,4.5,10.7,6.8,17.4,7.4L43.7,152.4z"/>
		</g>
		<linearGradient id="SVGID_3_" gradientUnits="userSpaceOnUse" x1="385.4336" y1="411.0551" x2="447.7976" y2="411.0551">
			<stop  offset="0" style="stop-color:#581CC4"/>
			<stop  offset="1" style="stop-color:#AB55F8"/>
		</linearGradient>
		<path style="fill:none;stroke:url(#SVGID_3_);stroke-miterlimit:10;" d="M436.1,387.3c-13.1-10.7-32.4-8.8-43.2,4.3
			c-10.7,13.1-8.8,32.4,4.3,43.2c13.1,10.7,32.4,8.8,43.2-4.3C451.1,417.4,449.2,398.1,436.1,387.3z M419.3,438.7l-14.2-2.3
			l-11.1-9.1l-5.1-13.4l2.3-14.2l9.1-11.1l13.4-5.1l14.2,2.3l11.1,9.1l5.1,13.4l-2.3,14.2l-9.1,11.1L419.3,438.7z"/>
		
			<linearGradient id="SVGID_4_" gradientUnits="userSpaceOnUse" x1="504.9342" y1="862.5725" x2="582.2688" y2="862.5725" gradientTransform="matrix(0.6341 -0.7733 0.7733 0.6341 -595.1123 284.4628)">
			<stop  offset="0" style="stop-color:#FFFFFF"/>
			<stop  offset="5.197240e-03" style="stop-color:#F8F8F8"/>
			<stop  offset="3.928075e-02" style="stop-color:#CBCBCC"/>
			<stop  offset="7.580426e-02" style="stop-color:#A3A4A5"/>
			<stop  offset="0.1143" style="stop-color:#828384"/>
			<stop  offset="0.1553" style="stop-color:#676869"/>
			<stop  offset="0.1998" style="stop-color:#525355"/>
			<stop  offset="0.2494" style="stop-color:#434446"/>
			<stop  offset="0.3083" style="stop-color:#3B3C3E"/>
			<stop  offset="0.4004" style="stop-color:#38393B"/>
			<stop  offset="0.465" style="stop-color:#444547"/>
			<stop  offset="0.5829" style="stop-color:#656667"/>
			<stop  offset="0.7409" style="stop-color:#9A9B9C"/>
			<stop  offset="0.9309" style="stop-color:#E3E3E3"/>
			<stop  offset="1" style="stop-color:#FFFFFF"/>
		</linearGradient>
		<path style="fill:url(#SVGID_4_);" d="M441.1,381.2c-16.5-13.5-40.9-11.1-54.4,5.4c-13.5,16.5-11.1,40.9,5.4,54.4
			c16.5,13.5,40.9,11.1,54.4-5.4C460.1,419.1,457.7,394.7,441.1,381.2z M440.3,430.5c-10.7,13.1-30.1,15-43.2,4.3
			c-13.1-10.7-15-30.1-4.3-43.2c10.7-13.1,30.1-15,43.2-4.3C449.2,398.1,451.1,417.4,440.3,430.5z"/>
		<linearGradient id="SVGID_5_" gradientUnits="userSpaceOnUse" x1="377.9446" y1="411.0561" x2="455.2879" y2="411.0561">
			<stop  offset="6.407080e-03" style="stop-color:#7A7A7A"/>
			<stop  offset="0.123" style="stop-color:#4D4D4D"/>
			<stop  offset="0.3036" style="stop-color:#B3B3B3"/>
			<stop  offset="0.4944" style="stop-color:#8C8C8D"/>
			<stop  offset="0.5795" style="stop-color:#79797A"/>
			<stop  offset="0.6261" style="stop-color:#909091"/>
			<stop  offset="0.6911" style="stop-color:#AAAAAA"/>
			<stop  offset="0.7498" style="stop-color:#BABABA"/>
			<stop  offset="0.7961" style="stop-color:#BFBFBF"/>
			<stop  offset="0.8768" style="stop-color:#5C5C5C"/>
			<stop  offset="0.9976" style="stop-color:#7E7E80"/>
		</linearGradient>
		<path class="st8" d="M441.1,381.2c-16.5-13.5-40.9-11.1-54.4,5.4c-13.5,16.5-11.1,40.9,5.4,54.4c16.5,13.5,40.9,11.1,54.4-5.4
			C460.1,419.1,457.7,394.7,441.1,381.2z M440.3,430.5c-10.7,13.1-30.1,15-43.2,4.3c-13.1-10.7-15-30.1-4.3-43.2
			c10.7-13.1,30.1-15,43.2-4.3C449.2,398.1,451.1,417.4,440.3,430.5z"/>
	</g>
	<g>
		<g>
			
				<linearGradient id="SVGID_6_" gradientUnits="userSpaceOnUse" x1="-202.7468" y1="-235.3541" x2="-121.6132" y2="-235.3541" gradientTransform="matrix(-0.6341 -0.7733 -0.7733 0.6341 -4.6264 284.4628)">
				<stop  offset="0.3918" style="stop-color:#4D4C51"/>
				<stop  offset="0.4132" style="stop-color:#3F3E43"/>
				<stop  offset="0.4734" style="stop-color:#1E1C21"/>
				<stop  offset="0.5231" style="stop-color:#09080C"/>
				<stop  offset="0.5557" style="stop-color:#020004"/>
				<stop  offset="0.556" style="stop-color:#0C0B0E"/>
				<stop  offset="0.5573" style="stop-color:#343235"/>
				<stop  offset="0.5587" style="stop-color:#555456"/>
				<stop  offset="0.5602" style="stop-color:#706F71"/>
				<stop  offset="0.5618" style="stop-color:#868486"/>
				<stop  offset="0.5636" style="stop-color:#959395"/>
				<stop  offset="0.5657" style="stop-color:#9D9C9D"/>
				<stop  offset="0.5689" style="stop-color:#A09FA0"/>
				<stop  offset="0.5709" style="stop-color:#AAA9AA"/>
				<stop  offset="0.5774" style="stop-color:#C4C4C4"/>
				<stop  offset="0.5849" style="stop-color:#DADADA"/>
				<stop  offset="0.5937" style="stop-color:#EBEBEB"/>
				<stop  offset="0.6045" style="stop-color:#F6F6F6"/>
				<stop  offset="0.6197" style="stop-color:#FDFDFD"/>
				<stop  offset="0.6618" style="stop-color:#FFFFFF"/>
				<stop  offset="0.8552" style="stop-color:#757575"/>
				<stop  offset="0.8805" style="stop-color:#626262"/>
			</linearGradient>
			<path class="st9" d="M501.6,90.5c-0.1-0.1-0.2-0.2-0.3-0.2l-23.4,31.2c-0.5,0-1,0-1.5,0.1c-0.8,0-1.7,0-2.5,0
				c-12.1-0.2-20-4.5-25.3-9.8c-1.1-1.1-2-2.2-2.9-3.3c-0.5-0.7-1-1.3-1.4-2c-4.6-7-5.5-13.7-5.5-13.7s23.3-30.6,22.3-33.1
				c0-0.1-0.1-0.1-0.2-0.2c0,0-0.1,0-0.1,0c0,0-0.1,0-0.1,0c-0.1,0-0.2,0-0.2,0c-0.1,0-0.3,0-0.5,0c-0.1,0-0.2,0-0.4,0
				c-0.1,0-0.1,0-0.2,0c-0.1,0-0.3,0-0.4,0c-0.1,0-0.3,0-0.5,0.1c-0.2,0-0.3,0-0.5,0.1c-0.4,0.1-0.9,0.2-1.4,0.3
				c-0.2,0-0.4,0.1-0.6,0.1c-0.2,0-0.4,0.1-0.6,0.1c-0.1,0-0.2,0-0.3,0.1c-0.1,0-0.2,0-0.3,0.1c-0.2,0.1-0.5,0.1-0.7,0.2
				c-0.5,0.1-1,0.3-1.5,0.4c-0.4,0.1-0.9,0.3-1.3,0.4c-0.4,0.1-0.9,0.3-1.4,0.5c-0.4,0.1-0.8,0.3-1.2,0.4c-0.3,0.1-0.5,0.2-0.8,0.3
				c-0.8,0.3-1.6,0.6-2.4,0.9c-0.4,0.2-0.8,0.3-1.2,0.5c-0.1,0.1-0.3,0.1-0.4,0.2c-0.1,0.1-0.3,0.1-0.4,0.2
				c-0.5,0.2-1.1,0.5-1.6,0.7c-0.4,0.2-0.8,0.4-1.2,0.5c0,0-0.1,0-0.1,0.1c-0.4,0.2-0.9,0.4-1.3,0.6c-0.4,0.2-0.9,0.4-1.3,0.7
				c-1,0.5-2.1,1.1-3.1,1.7c-0.3,0.1-0.5,0.3-0.8,0.4c-0.3,0.2-0.5,0.3-0.8,0.5c-0.6,0.4-1.2,0.7-1.8,1.1c-0.3,0.2-0.7,0.4-1,0.7
				c-0.4,0.3-0.8,0.6-1.3,0.9c-0.4,0.3-0.8,0.6-1.2,0.9c-0.4,0.3-0.8,0.6-1.2,0.9c-0.4,0.3-0.8,0.6-1.2,0.9c-0.4,0.3-0.8,0.7-1.2,1
				c-0.4,0.3-0.7,0.6-1.1,1c-0.4,0.3-0.7,0.7-1.1,1c-0.4,0.3-0.7,0.7-1.1,1.1c-0.1,0.1-0.2,0.2-0.3,0.3c-0.2,0.2-0.4,0.4-0.6,0.6
				c-1.1,1.2-2.1,2.4-3.1,3.7c-0.2,0.3-0.4,0.5-0.6,0.8c-0.2,0.3-0.4,0.6-0.6,0.9c-0.1,0.1-0.1,0.2-0.2,0.3
				c-0.4,0.7-0.9,1.4-1.3,2.1c-1,1.7-1.8,3.6-2.5,5.5c-0.3,0.8-0.5,1.5-0.7,2.3c-0.2,0.8-0.4,1.6-0.5,2.4c-0.2,1.5-0.4,3.1-0.4,4.7
				c-0.2,17.5-3.8,26.9-19.2,41.9l-13.2,11.1l0,0c0,0-1.9,1.6-5.4,4.5c-0.4,0.3-0.8,0.7-1.3,1.1c-1.9,1.6-4.1,3.4-6.6,5.5l34.5,13.5
				l6.1-5.1l1.3-1.1l5.6-4.6c25.8-21,41.6-14.1,56.7-15.6c0.2,0,0.4,0,0.7-0.1c0.2,0,0.4,0,0.7-0.1c0.2,0,0.5-0.1,0.7-0.1
				c0.1,0,0.3,0,0.4-0.1c0.1,0,0.2,0,0.3,0c0,0,0,0,0,0c0.1,0,0.2,0,0.3-0.1l0.8-0.2c0.2,0,0.4-0.1,0.7-0.1l1-0.2
				c0.3-0.1,0.6-0.2,0.9-0.2c0.1,0,0.2,0,0.2-0.1l0,0c0.3-0.1,0.6-0.2,1-0.3l0.2-0.1c0.3-0.1,0.7-0.3,1-0.4c0.6-0.2,1.2-0.5,1.8-0.8
				c0.2-0.1,0.3-0.2,0.5-0.2c0,0,0,0,0,0c0.2-0.1,0.4-0.2,0.6-0.3c0.3-0.1,0.6-0.3,0.8-0.5c0.3-0.2,0.6-0.4,1-0.6
				c0.1-0.1,0.3-0.2,0.4-0.3c0.6-0.4,1.2-0.8,1.8-1.3c0.2-0.1,0.3-0.2,0.5-0.4c0.2-0.1,0.4-0.3,0.6-0.4c0.2-0.2,0.4-0.3,0.6-0.5
				c0.2-0.2,0.4-0.3,0.6-0.5c2.1-1.8,3.9-3.7,5.6-5.7c1.3-1.6,2.5-3.3,3.5-5.1c1.3-2.2,2.4-4.5,3.3-6.8c0.4-0.9,0.7-1.8,1-2.8
				c0.8-2.2,1.4-4.4,1.9-6.6c0-0.2,0.1-0.4,0.1-0.6C505.5,104.6,503.4,92.1,501.6,90.5z M131.2,360.2c-2.6,2.2-5,4.1-7,5.8
				c-0.4,0.3-0.7,0.6-1.1,0.9c-1.1,0.9-2.1,1.7-3,2.5c-3.6,3-8.5,3.9-13,2.5c-5.1-1.5-10.5-2.1-16.2-1.4
				c-19.3,2.1-34.6,18-36.1,37.3c-2,25,18.6,45.6,43.4,44c19.5-1.3,35.6-16.6,37.8-36.1c0.3-3.1,0.3-6.1,0-9.1
				c-0.5-4.6,1.3-9.2,4.8-12.2c3.6-3.1,7.5-6.3,7.5-6.3l0,0l11.8-9.8l1.1-0.9l7.7-6.4L131.2,360.2z M113.3,433
				c-12.1,9.9-29.9,8.1-39.9-3.9c-9.9-12.1-8.1-29.9,3.9-39.9c12.1-9.9,29.9-8.2,39.9,3.9C127.2,405.2,125.4,423,113.3,433z"/>
			
				<linearGradient id="SVGID_7_" gradientUnits="userSpaceOnUse" x1="-157.722" y1="32.1627" x2="-157.722" y2="-449.8953" gradientTransform="matrix(-0.6341 -0.7733 -0.7733 0.6341 -4.6264 284.4628)">
				<stop  offset="6.407080e-03" style="stop-color:#7A7A7A"/>
				<stop  offset="0.123" style="stop-color:#4D4D4D"/>
				<stop  offset="0.3036" style="stop-color:#B3B3B3"/>
				<stop  offset="0.4944" style="stop-color:#8C8C8D"/>
				<stop  offset="0.5795" style="stop-color:#79797A"/>
				<stop  offset="0.6261" style="stop-color:#909091"/>
				<stop  offset="0.6911" style="stop-color:#AAAAAA"/>
				<stop  offset="0.7498" style="stop-color:#BABABA"/>
				<stop  offset="0.7961" style="stop-color:#BFBFBF"/>
				<stop  offset="0.8768" style="stop-color:#5C5C5C"/>
				<stop  offset="0.9976" style="stop-color:#7E7E80"/>
			</linearGradient>
			<path class="st10" d="M501.6,90.5c-0.1-0.1-0.2-0.2-0.3-0.2l-23.4,31.2c-0.5,0-1,0-1.5,0.1c-0.8,0-1.7,0-2.5,0
				c-12.1-0.2-20-4.5-25.3-9.8c-1.1-1.1-2-2.2-2.9-3.3c-0.5-0.7-1-1.3-1.4-2c-4.6-7-5.5-13.7-5.5-13.7s23.3-30.6,22.3-33.1
				c0-0.1-0.1-0.1-0.2-0.2c0,0-0.1,0-0.1,0c0,0-0.1,0-0.1,0c-0.1,0-0.2,0-0.2,0c-0.1,0-0.3,0-0.5,0c-0.1,0-0.2,0-0.4,0
				c-0.1,0-0.1,0-0.2,0c-0.1,0-0.3,0-0.4,0c-0.1,0-0.3,0-0.5,0.1c-0.2,0-0.3,0-0.5,0.1c-0.4,0.1-0.9,0.2-1.4,0.3
				c-0.2,0-0.4,0.1-0.6,0.1c-0.2,0-0.4,0.1-0.6,0.1c-0.1,0-0.2,0-0.3,0.1c-0.1,0-0.2,0-0.3,0.1c-0.2,0.1-0.5,0.1-0.7,0.2
				c-0.5,0.1-1,0.3-1.5,0.4c-0.4,0.1-0.9,0.3-1.3,0.4c-0.4,0.1-0.9,0.3-1.4,0.5c-0.4,0.1-0.8,0.3-1.2,0.4c-0.3,0.1-0.5,0.2-0.8,0.3
				c-0.8,0.3-1.6,0.6-2.4,0.9c-0.4,0.2-0.8,0.3-1.2,0.5c-0.1,0.1-0.3,0.1-0.4,0.2c-0.1,0.1-0.3,0.1-0.4,0.2
				c-0.5,0.2-1.1,0.5-1.6,0.7c-0.4,0.2-0.8,0.4-1.2,0.5c0,0-0.1,0-0.1,0.1c-0.4,0.2-0.9,0.4-1.3,0.6c-0.4,0.2-0.9,0.4-1.3,0.7
				c-1,0.5-2.1,1.1-3.1,1.7c-0.3,0.1-0.5,0.3-0.8,0.4c-0.3,0.2-0.5,0.3-0.8,0.5c-0.6,0.4-1.2,0.7-1.8,1.1c-0.3,0.2-0.7,0.4-1,0.7
				c-0.4,0.3-0.8,0.6-1.3,0.9c-0.4,0.3-0.8,0.6-1.2,0.9c-0.4,0.3-0.8,0.6-1.2,0.9c-0.4,0.3-0.8,0.6-1.2,0.9c-0.4,0.3-0.8,0.7-1.2,1
				c-0.4,0.3-0.7,0.6-1.1,1c-0.4,0.3-0.7,0.7-1.1,1c-0.4,0.3-0.7,0.7-1.1,1.1c-0.1,0.1-0.2,0.2-0.3,0.3c-0.2,0.2-0.4,0.4-0.6,0.6
				c-1.1,1.2-2.1,2.4-3.1,3.7c-0.2,0.3-0.4,0.5-0.6,0.8c-0.2,0.3-0.4,0.6-0.6,0.9c-0.1,0.1-0.1,0.2-0.2,0.3
				c-0.4,0.7-0.9,1.4-1.3,2.1c-1,1.7-1.8,3.6-2.5,5.5c-0.3,0.8-0.5,1.5-0.7,2.3c-0.2,0.8-0.4,1.6-0.5,2.4c-0.2,1.5-0.4,3.1-0.4,4.7
				c-0.2,17.5-3.8,26.9-19.2,41.9l-13.2,11.1l0,0c0,0-1.9,1.6-5.4,4.5c-0.4,0.3-0.8,0.7-1.3,1.1c-1.9,1.6-4.1,3.4-6.6,5.5l34.5,13.5
				l6.1-5.1l1.3-1.1l5.6-4.6c25.8-21,41.6-14.1,56.7-15.6c0.2,0,0.4,0,0.7-0.1c0.2,0,0.4,0,0.7-0.1c0.2,0,0.5-0.1,0.7-0.1
				c0.1,0,0.3,0,0.4-0.1c0.1,0,0.2,0,0.3,0c0,0,0,0,0,0c0.1,0,0.2,0,0.3-0.1l0.8-0.2c0.2,0,0.4-0.1,0.7-0.1l1-0.2
				c0.3-0.1,0.6-0.2,0.9-0.2c0.1,0,0.2,0,0.2-0.1l0,0c0.3-0.1,0.6-0.2,1-0.3l0.2-0.1c0.3-0.1,0.7-0.3,1-0.4c0.6-0.2,1.2-0.5,1.8-0.8
				c0.2-0.1,0.3-0.2,0.5-0.2c0,0,0,0,0,0c0.2-0.1,0.4-0.2,0.6-0.3c0.3-0.1,0.6-0.3,0.8-0.5c0.3-0.2,0.6-0.4,1-0.6
				c0.1-0.1,0.3-0.2,0.4-0.3c0.6-0.4,1.2-0.8,1.8-1.3c0.2-0.1,0.3-0.2,0.5-0.4c0.2-0.1,0.4-0.3,0.6-0.4c0.2-0.2,0.4-0.3,0.6-0.5
				c0.2-0.2,0.4-0.3,0.6-0.5c2.1-1.8,3.9-3.7,5.6-5.7c1.3-1.6,2.5-3.3,3.5-5.1c1.3-2.2,2.4-4.5,3.3-6.8c0.4-0.9,0.7-1.8,1-2.8
				c0.8-2.2,1.4-4.4,1.9-6.6c0-0.2,0.1-0.4,0.1-0.6C505.5,104.6,503.4,92.1,501.6,90.5z M131.2,360.2c-2.6,2.2-5,4.1-7,5.8
				c-0.4,0.3-0.7,0.6-1.1,0.9c-1.1,0.9-2.1,1.7-3,2.5c-3.6,3-8.5,3.9-13,2.5c-5.1-1.5-10.5-2.1-16.2-1.4
				c-19.3,2.1-34.6,18-36.1,37.3c-2,25,18.6,45.6,43.4,44c19.5-1.3,35.6-16.6,37.8-36.1c0.3-3.1,0.3-6.1,0-9.1
				c-0.5-4.6,1.3-9.2,4.8-12.2c3.6-3.1,7.5-6.3,7.5-6.3l0,0l11.8-9.8l1.1-0.9l7.7-6.4L131.2,360.2z M113.3,433
				c-12.1,9.9-29.9,8.1-39.9-3.9c-9.9-12.1-8.1-29.9,3.9-39.9c12.1-9.9,29.9-8.2,39.9,3.9C127.2,405.2,125.4,423,113.3,433z"/>
			<path class="st4" d="M501.3,90.3l-23.4,31.2c-35.1,1.8-39-28.8-39-28.8s23.3-30.6,22.3-33.1c-0.9-2.3-45.5,9.5-50.3,38.1
				c0.5,34.7,20.5,53.4,58,55.9c0,0,0,0,0,0c6-0.6,11.8-2.4,18.1-7.7C509.4,127.1,504.2,90.6,501.3,90.3z"/>
			
				<linearGradient id="SVGID_8_" gradientUnits="userSpaceOnUse" x1="50.1386" y1="-149.0804" x2="-17.7957" y2="-211.3533" gradientTransform="matrix(0.9974 7.240000e-02 -7.240000e-02 0.9974 429.7155 287.7988)">
				<stop  offset="6.407080e-03" style="stop-color:#7A7A7A"/>
				<stop  offset="0.123" style="stop-color:#4D4D4D"/>
				<stop  offset="0.3036" style="stop-color:#B3B3B3"/>
				<stop  offset="0.4944" style="stop-color:#8C8C8D"/>
				<stop  offset="0.5795" style="stop-color:#79797A"/>
				<stop  offset="0.6261" style="stop-color:#909091"/>
				<stop  offset="0.6911" style="stop-color:#AAAAAA"/>
				<stop  offset="0.7498" style="stop-color:#BABABA"/>
				<stop  offset="0.7961" style="stop-color:#BFBFBF"/>
				<stop  offset="0.8768" style="stop-color:#5C5C5C"/>
				<stop  offset="0.9976" style="stop-color:#7E7E80"/>
			</linearGradient>
			<path class="st11" d="M468.3,152.4c-36.7-2.7-55.6-21-56.1-54.5c4.2-24.5,39.7-36.9,47.6-37.3c-1.8,4-12,18.4-21.9,31.3l-0.3,0.4
				l0.1,0.5c0,0.3,3.9,27.7,33.6,29.8c2.2,0.2,4.4,0.2,6.8,0.1l0.6,0l22.7-30.3c0.8,2.2,1.8,7.6,1.4,15.2
				c-0.4,9.2-3.1,26.2-16.4,37.4c-5.3,4.5-10.7,6.8-17.4,7.4L468.3,152.4z"/>
		</g>
		<linearGradient id="SVGID_9_" gradientUnits="userSpaceOnUse" x1="64.2013" y1="411.0551" x2="126.5694" y2="411.0551">
			<stop  offset="0" style="stop-color:#581CC4"/>
			<stop  offset="1" style="stop-color:#AB55F8"/>
		</linearGradient>
		<path style="fill:none;stroke:url(#SVGID_9_);stroke-miterlimit:10;" d="M119.1,391.6c-10.7-13.1-30.1-15-43.2-4.3
			c-13.1,10.7-15,30.1-4.3,43.2c10.8,13.1,30.1,15,43.2,4.3C127.9,424,129.9,404.7,119.1,391.6z M79.2,433.6l-9.1-11.1l-2.3-14.2
			l5.1-13.4l11.1-9.1l14.2-2.3l13.4,5.1l9.1,11.1l2.3,14.2l-5.1,13.4l-11.1,9.1l-14.2,2.3L79.2,433.6z"/>
		
			<linearGradient id="SVGID_10_" gradientUnits="userSpaceOnUse" x1="-199.9715" y1="2.9322" x2="-122.6319" y2="2.9322" gradientTransform="matrix(-0.6341 -0.7733 -0.7733 0.6341 -4.6264 284.4628)">
			<stop  offset="0" style="stop-color:#FFFFFF"/>
			<stop  offset="3.047684e-02" style="stop-color:#DBDBDB"/>
			<stop  offset="7.227004e-02" style="stop-color:#B0B0B1"/>
			<stop  offset="0.1162" style="stop-color:#8B8B8D"/>
			<stop  offset="0.1619" style="stop-color:#6D6D6F"/>
			<stop  offset="0.2098" style="stop-color:#555658"/>
			<stop  offset="0.2609" style="stop-color:#454648"/>
			<stop  offset="0.3176" style="stop-color:#3B3C3E"/>
			<stop  offset="0.3906" style="stop-color:#38393B"/>
			<stop  offset="0.4762" style="stop-color:#4D4E50"/>
			<stop  offset="0.6538" style="stop-color:#858586"/>
			<stop  offset="0.9061" style="stop-color:#DDDDDD"/>
			<stop  offset="1" style="stop-color:#FFFFFF"/>
		</linearGradient>
		<path style="fill:url(#SVGID_10_);" d="M125.3,386.5c-13.5-16.5-37.9-18.9-54.4-5.4c-16.5,13.5-18.9,37.9-5.4,54.4
			c13.5,16.5,37.9,18.9,54.4,5.4S138.8,403,125.3,386.5z M114.8,434.8c-13.1,10.7-32.4,8.8-43.2-4.3c-10.7-13.1-8.8-32.4,4.3-43.2
			c13.1-10.7,32.4-8.8,43.2,4.3C129.9,404.7,127.9,424,114.8,434.8z"/>
		<linearGradient id="SVGID_11_" gradientUnits="userSpaceOnUse" x1="56.7188" y1="411.0561" x2="134.0613" y2="411.0561">
			<stop  offset="6.407080e-03" style="stop-color:#7A7A7A"/>
			<stop  offset="0.123" style="stop-color:#4D4D4D"/>
			<stop  offset="0.3036" style="stop-color:#B3B3B3"/>
			<stop  offset="0.4944" style="stop-color:#8C8C8D"/>
			<stop  offset="0.5795" style="stop-color:#79797A"/>
			<stop  offset="0.6261" style="stop-color:#909091"/>
			<stop  offset="0.6911" style="stop-color:#AAAAAA"/>
			<stop  offset="0.7498" style="stop-color:#BABABA"/>
			<stop  offset="0.7961" style="stop-color:#BFBFBF"/>
			<stop  offset="0.8768" style="stop-color:#5C5C5C"/>
			<stop  offset="0.9976" style="stop-color:#7E7E80"/>
		</linearGradient>
		<path class="st14" d="M125.3,386.5c-13.5-16.5-37.9-18.9-54.4-5.4c-16.5,13.5-18.9,37.9-5.4,54.4c13.5,16.5,37.9,18.9,54.4,5.4
			S138.8,403,125.3,386.5z M114.8,434.8c-13.1,10.7-32.4,8.8-43.2-4.3c-10.7-13.1-8.8-32.4,4.3-43.2c13.1-10.7,32.4-8.8,43.2,4.3
			C129.9,404.7,127.9,424,114.8,434.8z"/>
	</g>
	<g>
		<linearGradient id="SVGID_12_" gradientUnits="userSpaceOnUse" x1="417.4985" y1="168.0239" x2="417.4985" y2="368.8718">
			<stop  offset="6.407080e-03" style="stop-color:#7A7A7A"/>
			<stop  offset="0.123" style="stop-color:#4D4D4D"/>
			<stop  offset="0.3036" style="stop-color:#B3B3B3"/>
			<stop  offset="0.4944" style="stop-color:#8C8C8D"/>
			<stop  offset="0.5795" style="stop-color:#79797A"/>
			<stop  offset="0.6261" style="stop-color:#909091"/>
			<stop  offset="0.6911" style="stop-color:#AAAAAA"/>
			<stop  offset="0.7498" style="stop-color:#BABABA"/>
			<stop  offset="0.7961" style="stop-color:#BFBFBF"/>
			<stop  offset="0.8768" style="stop-color:#5C5C5C"/>
			<stop  offset="0.9976" style="stop-color:#7E7E80"/>
		</linearGradient>
		<path class="st15" d="M412.1,332.1c0,5.5-1.7,10.7-4.6,14.7l6.4-2.5c7.2-2.8,12.2-8.9,13.5-16h-15.3V332.1z"/>
		<linearGradient id="SVGID_13_" gradientUnits="userSpaceOnUse" x1="417.6479" y1="168.0244" x2="417.6479" y2="368.8725">
			<stop  offset="6.407080e-03" style="stop-color:#7A7A7A"/>
			<stop  offset="0.123" style="stop-color:#4D4D4D"/>
			<stop  offset="0.3036" style="stop-color:#B3B3B3"/>
			<stop  offset="0.4944" style="stop-color:#8C8C8D"/>
			<stop  offset="0.5795" style="stop-color:#79797A"/>
			<stop  offset="0.6261" style="stop-color:#909091"/>
			<stop  offset="0.6911" style="stop-color:#AAAAAA"/>
			<stop  offset="0.7498" style="stop-color:#BABABA"/>
			<stop  offset="0.7961" style="stop-color:#BFBFBF"/>
			<stop  offset="0.8768" style="stop-color:#5C5C5C"/>
			<stop  offset="0.9976" style="stop-color:#7E7E80"/>
		</linearGradient>
		<path class="st16" d="M427.7,212c0-8.5-5.4-16.1-13.8-19.4l-6.4-2.5c2.9,4.1,4.6,9.2,4.6,14.7v46.5h15.6V212z"/>
		<linearGradient id="SVGID_14_" gradientUnits="userSpaceOnUse" x1="98.4981" y1="168.0243" x2="98.4981" y2="368.8722">
			<stop  offset="6.407080e-03" style="stop-color:#7A7A7A"/>
			<stop  offset="0.123" style="stop-color:#4D4D4D"/>
			<stop  offset="0.3036" style="stop-color:#B3B3B3"/>
			<stop  offset="0.4944" style="stop-color:#8C8C8D"/>
			<stop  offset="0.5795" style="stop-color:#79797A"/>
			<stop  offset="0.6261" style="stop-color:#909091"/>
			<stop  offset="0.6911" style="stop-color:#AAAAAA"/>
			<stop  offset="0.7498" style="stop-color:#BABABA"/>
			<stop  offset="0.7961" style="stop-color:#BFBFBF"/>
			<stop  offset="0.8768" style="stop-color:#5C5C5C"/>
			<stop  offset="0.9976" style="stop-color:#7E7E80"/>
		</linearGradient>
		<path class="st17" d="M104,204.9c0-5.5,1.7-10.7,4.6-14.7l-6.4,2.5c-8.4,3.3-13.8,10.9-13.8,19.4v39.3H104V204.9z"/>
		<linearGradient id="SVGID_15_" gradientUnits="userSpaceOnUse" x1="98.6472" y1="168.0242" x2="98.6472" y2="368.8729">
			<stop  offset="6.407080e-03" style="stop-color:#7A7A7A"/>
			<stop  offset="0.123" style="stop-color:#4D4D4D"/>
			<stop  offset="0.3036" style="stop-color:#B3B3B3"/>
			<stop  offset="0.4944" style="stop-color:#8C8C8D"/>
			<stop  offset="0.5795" style="stop-color:#79797A"/>
			<stop  offset="0.6261" style="stop-color:#909091"/>
			<stop  offset="0.6911" style="stop-color:#AAAAAA"/>
			<stop  offset="0.7498" style="stop-color:#BABABA"/>
			<stop  offset="0.7961" style="stop-color:#BFBFBF"/>
			<stop  offset="0.8768" style="stop-color:#5C5C5C"/>
			<stop  offset="0.9976" style="stop-color:#7E7E80"/>
		</linearGradient>
		<path class="st18" d="M102.2,344.3l6.4,2.5c-2.9-4.1-4.6-9.2-4.6-14.7v-3.8H88.7C89.9,335.4,94.9,341.5,102.2,344.3z"/>
	</g>
	<g>
		<path class="st20" d="M428.4,324H87.8c-5.9,0-10.7-4.8-10.7-10.7v-36.9c0-5.9,4.8-10.7,10.7-10.7h340.6c5.9,0,10.7,4.8,10.7,10.7
			v36.9C439.1,319.2,434.3,324,428.4,324z"/>
		<linearGradient id="SVGID_16_" gradientUnits="userSpaceOnUse" x1="258.0728" y1="319.8957" x2="258.0728" y2="222.6952">
			<stop  offset="6.407080e-03" style="stop-color:#7A7A7A"/>
			<stop  offset="0.123" style="stop-color:#4D4D4D"/>
			<stop  offset="0.3036" style="stop-color:#B3B3B3"/>
			<stop  offset="0.4944" style="stop-color:#8C8C8D"/>
			<stop  offset="0.5795" style="stop-color:#79797A"/>
			<stop  offset="0.6261" style="stop-color:#909091"/>
			<stop  offset="0.6911" style="stop-color:#AAAAAA"/>
			<stop  offset="0.7498" style="stop-color:#BABABA"/>
			<stop  offset="0.7961" style="stop-color:#BFBFBF"/>
			<stop  offset="0.8768" style="stop-color:#5C5C5C"/>
			<stop  offset="0.9976" style="stop-color:#7E7E80"/>
		</linearGradient>
		<path class="st19" d="M87.8,321.5c-5.1,0-9.2-4.1-9.2-9.2v-36.9c0-5.1,4.1-9.2,9.2-9.2h340.6c5.1,0,9.2,4.1,9.2,9.2v36.9
			c0,5.1-4.1,9.2-9.2,9.2H87.8z"/>
	</g>
	<g>
		<text transform="matrix(0.8892 0 0 1 142.7363 316.4775)" class="st20 st22 st23">The best</text>
		<g>
			<polygon class="st4" points="150.6,314 156.7,281.1 148.6,281.1 149.8,274.7 173.1,274.7 171.9,281.1 163.7,281.1 157.6,314 			
				"/>
			<polygon class="st4" points="193.4,314 196.6,296.8 184.7,296.8 181.4,314 174.4,314 181.8,274.7 188.8,274.7 185.9,290.4 
				197.9,290.4 200.8,274.7 207.8,274.7 200.4,314 			"/>
			<polygon class="st4" points="212,314 219.4,274.7 238.6,274.7 237.5,280.9 225.2,280.9 223.5,290.5 234.8,290.5 233.6,296.7 
				222.2,296.7 220.2,307.7 232.4,307.7 231.2,314 			"/>
			<path class="st4" d="M255.2,314l7.4-39.2h11.3c3.3,0,5.9,0.7,7.5,2c1.6,1.3,2.3,3.2,2.3,5.7c0,4.9-2.2,8-6.6,9.5l-1,0.3v2.4
				l1,0.4c1.2,0.4,2.1,1.2,2.9,2.3c0.7,1.1,1.1,2.6,1.1,4.3c0,4-1.1,7-3.4,9.1c-2.3,2.1-5.7,3.2-10.1,3.2H255.2z M263.3,308.2h3.9
				c1.9,0,3.5-0.6,4.7-1.8c1.3-1.2,1.9-2.8,1.9-4.6c0-1.7-0.4-3-1.2-4c-0.9-1-2.2-1.5-4.1-1.5h-3L263.3,308.2z M266.5,290.9h3.7
				c1.9,0,3.4-0.5,4.5-1.5c1.1-1,1.6-2.6,1.6-4.6c0-2.8-1.8-4.4-4.8-4.4h-2.8L266.5,290.9z"/>
			<polygon class="st4" points="288.6,314 295.9,274.7 315.2,274.7 314.1,280.9 301.8,280.9 300.1,290.5 311.4,290.5 310.2,296.7 
				298.8,296.7 296.7,307.7 309,307.7 307.8,314 			"/>
			<path class="st4" d="M326.3,314.6c-1.7,0-3.4-0.2-4.9-0.7c-1.2-0.3-2.3-0.8-3.2-1.4v-6.7c0.9,0.5,1.9,0.9,2.9,1.3
				c2,0.8,3.9,1.1,5.6,1.1c1.6,0,3-0.4,3.9-1.3c1-0.9,1.5-2.1,1.5-3.6c0-0.7-0.1-1.4-0.4-2.1c-0.3-0.6-0.6-1.1-1.1-1.7
				c-0.3-0.3-0.9-1-3.2-3.1c-1.9-1.7-3.2-3.4-4-5.1c-0.8-1.7-1.2-3.5-1.2-5.6c0-2.3,0.5-4.3,1.5-6.1c1-1.8,2.3-3.1,4.2-4.1
				c1.8-1,3.9-1.5,6.2-1.5c3.3,0,6.4,0.8,9.2,2.2l-2.4,5.8c-2.5-1.3-4.8-1.9-6.7-1.9c-1.5,0-2.7,0.4-3.5,1.2c-0.9,0.8-1.4,2-1.4,3.5
				c0,1.3,0.4,2.4,1.1,3.5c0.7,0.9,1.8,2.1,3.5,3.6c1.9,1.6,3.3,3.2,4.1,4.8c0.9,1.6,1.3,3.5,1.3,5.7c0,3.9-1.1,6.8-3.3,8.9
				C333.5,313.5,330.3,314.6,326.3,314.6z"/>
			<polygon class="st4" points="352.2,314 358.2,281.1 350.1,281.1 351.3,274.7 374.7,274.7 373.4,281.1 365.2,281.1 359.1,314 			
				"/>
		</g>
	</g>
	<g>
		<g>
			<path class="st4" d="M439.1,207.9v44.4H434V213c0-11.1-7-21.1-17.8-25.3l-17-6.7l-34.5-13.5L268.9,130c-7-2.7-14.8-2.7-21.7,0
				L99.9,187.7c-10.8,4.2-17.8,14.2-17.8,25.3v39.3h-5.1v-44.4c0-11.9,7.2-22.7,18.3-27.3l151.6-62.2c7.2-2.9,15.2-2.9,22.4,0
				l103.4,42.4l34,13.9l14.2,5.8C431.9,185.2,439.1,196,439.1,207.9z"/>
			<linearGradient id="SVGID_17_" gradientUnits="userSpaceOnUse" x1="78.5508" y1="183.3252" x2="437.5928" y2="183.3252">
				<stop  offset="6.407080e-03" style="stop-color:#7A7A7A"/>
				<stop  offset="0.123" style="stop-color:#4D4D4D"/>
				<stop  offset="0.3036" style="stop-color:#B3B3B3"/>
				<stop  offset="0.4944" style="stop-color:#8C8C8D"/>
				<stop  offset="0.5795" style="stop-color:#79797A"/>
				<stop  offset="0.6261" style="stop-color:#909091"/>
				<stop  offset="0.6911" style="stop-color:#AAAAAA"/>
				<stop  offset="0.7498" style="stop-color:#BABABA"/>
				<stop  offset="0.7961" style="stop-color:#BFBFBF"/>
				<stop  offset="0.8768" style="stop-color:#5C5C5C"/>
				<stop  offset="0.9976" style="stop-color:#7E7E80"/>
			</linearGradient>
			<path class="st21" d="M435.5,249.8V212c0-11.8-7.3-22.2-18.7-26.7l-147.3-57.7c-3.6-1.4-7.5-2.1-11.4-2.1s-7.8,0.7-11.4,2.1
				L99.3,185.3C88,189.8,80.6,200.3,80.6,212v37.8h-2.1v-42.9c0-11.4,6.8-21.5,17.3-25.9l151.6-62.2c3.4-1.4,7-2.1,10.6-2.1
				c3.7,0,7.2,0.7,10.6,2.1l151.6,62.2c10.5,4.3,17.3,14.5,17.3,25.9v42.9H435.5z"/>
		</g>
		<g>
			<path class="st4" d="M439.1,329.3v1.7c0,11.9-7.2,22.7-18.3,27.3L389,368l-37.1,11.3l-82.7,25.3c-7.2,2.9-15.2,2.9-22.4,0
				L95.3,358.3C84.3,353.7,77.1,343,77.1,331v-1.7h5.3c1.3,9.7,7.9,18.1,17.5,21.9l147.3,41.9c7,2.7,14.8,2.7,21.7,0l74.2-21.1
				l37.8-10.7l35.4-10.1c9.6-3.8,16.3-12.2,17.5-21.9H439.1z"/>
			<linearGradient id="SVGID_18_" gradientUnits="userSpaceOnUse" x1="78.5508" y1="367.0742" x2="437.5928" y2="367.0742">
				<stop  offset="6.407080e-03" style="stop-color:#7A7A7A"/>
				<stop  offset="0.123" style="stop-color:#4D4D4D"/>
				<stop  offset="0.3036" style="stop-color:#B3B3B3"/>
				<stop  offset="0.4944" style="stop-color:#8C8C8D"/>
				<stop  offset="0.5795" style="stop-color:#79797A"/>
				<stop  offset="0.6261" style="stop-color:#909091"/>
				<stop  offset="0.6911" style="stop-color:#AAAAAA"/>
				<stop  offset="0.7498" style="stop-color:#BABABA"/>
				<stop  offset="0.7961" style="stop-color:#BFBFBF"/>
				<stop  offset="0.8768" style="stop-color:#5C5C5C"/>
				<stop  offset="0.9976" style="stop-color:#7E7E80"/>
			</linearGradient>
			<path class="st24" d="M258.1,404.3c-3.7,0-7.2-0.7-10.6-2.1l-0.1,0L95.8,355.8c-10.5-4.3-17.3-14.5-17.3-25.8v-0.2h2.5
				c1.8,9.8,8.7,18,18.3,21.8l0.1,0l147.3,41.9c3.6,1.4,7.4,2.1,11.3,2.1c3.9,0,7.7-0.7,11.3-2.1l147.3-41.9l0.1,0
				c9.6-3.8,16.5-12,18.3-21.8h2.5v0.2c0,11.4-6.8,21.5-17.3,25.8l-151.6,46.4l-0.1,0C265.3,403.6,261.7,404.3,258.1,404.3z"/>
		</g>
	</g>
	<g>
		<g>
			<linearGradient id="SVGID_19_" gradientUnits="userSpaceOnUse" x1="187.4696" y1="346.0381" x2="326.8115" y2="346.0381">
				<stop  offset="6.407080e-03" style="stop-color:#7A7A7A"/>
				<stop  offset="0.123" style="stop-color:#4D4D4D"/>
				<stop  offset="0.3036" style="stop-color:#B3B3B3"/>
				<stop  offset="0.4944" style="stop-color:#8C8C8D"/>
				<stop  offset="0.5795" style="stop-color:#79797A"/>
				<stop  offset="0.6261" style="stop-color:#909091"/>
				<stop  offset="0.6911" style="stop-color:#AAAAAA"/>
				<stop  offset="0.7498" style="stop-color:#BABABA"/>
				<stop  offset="0.7961" style="stop-color:#BFBFBF"/>
				<stop  offset="0.8768" style="stop-color:#5C5C5C"/>
				<stop  offset="0.9976" style="stop-color:#7E7E80"/>
			</linearGradient>
			<path class="st25" d="M209.8,360.2c-0.2,0-0.3-0.1-0.4-0.2c-0.1-0.1-0.1-0.3-0.1-0.4l2.7-12.9c0.2-0.9,0.4-1.8,0.6-2.8
				c0.1-0.5,0.3-1.1,0.4-1.6l-8.8,17.6c-0.1,0.2-0.3,0.3-0.4,0.3h-5.2c-0.3,0-0.5-0.2-0.5-0.5l-0.9-17c-0.1,0.4-0.1,0.8-0.2,1.2
				c-0.2,1.1-0.4,2.2-0.6,3.2l-2.7,12.7c0,0.2-0.3,0.4-0.5,0.4H188c-0.2,0-0.3-0.1-0.4-0.2c-0.1-0.1-0.1-0.3-0.1-0.4l5.8-27.2
				c0-0.2,0.3-0.4,0.5-0.4h7.5c0.3,0,0.5,0.2,0.5,0.5l1.1,18.8l9.5-19c0.1-0.2,0.3-0.3,0.4-0.3h7.9c0.2,0,0.3,0.1,0.4,0.2
				c0.1,0.1,0.1,0.3,0.1,0.4l-5.8,27.2c0,0.2-0.3,0.4-0.5,0.4H209.8z"/>
			<linearGradient id="SVGID_20_" gradientUnits="userSpaceOnUse" x1="187.4696" y1="346.0381" x2="326.8115" y2="346.0381">
				<stop  offset="6.407080e-03" style="stop-color:#7A7A7A"/>
				<stop  offset="0.123" style="stop-color:#4D4D4D"/>
				<stop  offset="0.3036" style="stop-color:#B3B3B3"/>
				<stop  offset="0.4944" style="stop-color:#8C8C8D"/>
				<stop  offset="0.5795" style="stop-color:#79797A"/>
				<stop  offset="0.6261" style="stop-color:#909091"/>
				<stop  offset="0.6911" style="stop-color:#AAAAAA"/>
				<stop  offset="0.7498" style="stop-color:#BABABA"/>
				<stop  offset="0.7961" style="stop-color:#BFBFBF"/>
				<stop  offset="0.8768" style="stop-color:#5C5C5C"/>
				<stop  offset="0.9976" style="stop-color:#7E7E80"/>
			</linearGradient>
			<path class="st26" d="M234.8,360.5c-2.3,0-4.2-0.5-5.8-1.4c-1.6-0.9-2.8-2.2-3.6-3.8c-0.8-1.6-1.2-3.5-1.2-5.7
				c0-1.4,0.1-2.9,0.4-4.3c0.3-1.4,0.7-2.8,1.2-4.2c0.5-1.3,1.2-2.6,2-3.8c0.8-1.2,1.8-2.2,2.9-3.1c1.1-0.9,2.4-1.6,3.8-2.1
				c1.4-0.5,3-0.7,4.7-0.7c3.4,0,6.1,1,7.8,2.9c1.7,1.9,2.6,4.5,2.6,7.7c0,1.5-0.1,3-0.4,4.5c-0.2,1.5-0.6,2.9-1.1,4.3
				c-0.5,1.4-1.2,2.6-2,3.8c-0.8,1.2-1.8,2.2-2.8,3c-1.1,0.9-2.4,1.6-3.8,2C238.1,360.3,236.5,360.5,234.8,360.5z M238.7,337.3
				c-0.7,0-1.4,0.1-2,0.4c-0.7,0.3-1.3,0.7-1.8,1.2c-0.6,0.5-1.1,1.2-1.5,1.9c-0.5,0.8-0.9,1.6-1.2,2.5c-0.3,0.9-0.6,1.9-0.8,3
				c-0.2,1-0.3,2.2-0.3,3.3c0,1.1,0.2,2.1,0.5,2.8c0.3,0.7,0.8,1.3,1.4,1.6c0.6,0.4,1.4,0.6,2.3,0.6c0.7,0,1.3-0.1,2-0.4
				c0.6-0.3,1.2-0.6,1.8-1.1c0.6-0.5,1.1-1.1,1.5-1.8c0.5-0.7,0.9-1.5,1.2-2.4c0.3-0.9,0.6-1.9,0.8-3c0.2-1.1,0.3-2.3,0.3-3.6
				c0-1.6-0.4-2.8-1.1-3.7C241,337.8,240,337.3,238.7,337.3z"/>
			<linearGradient id="SVGID_21_" gradientUnits="userSpaceOnUse" x1="187.4696" y1="346.0381" x2="326.8115" y2="346.0381">
				<stop  offset="6.407080e-03" style="stop-color:#7A7A7A"/>
				<stop  offset="0.123" style="stop-color:#4D4D4D"/>
				<stop  offset="0.3036" style="stop-color:#B3B3B3"/>
				<stop  offset="0.4944" style="stop-color:#8C8C8D"/>
				<stop  offset="0.5795" style="stop-color:#79797A"/>
				<stop  offset="0.6261" style="stop-color:#909091"/>
				<stop  offset="0.6911" style="stop-color:#AAAAAA"/>
				<stop  offset="0.7498" style="stop-color:#BABABA"/>
				<stop  offset="0.7961" style="stop-color:#BFBFBF"/>
				<stop  offset="0.8768" style="stop-color:#5C5C5C"/>
				<stop  offset="0.9976" style="stop-color:#7E7E80"/>
			</linearGradient>
			<path class="st27" d="M257.1,360.2c-0.2,0-0.3-0.1-0.4-0.2c-0.1-0.1-0.1-0.3-0.1-0.4l4.6-21.8h-5.9c-0.2,0-0.3-0.1-0.4-0.2
				s-0.1-0.3-0.1-0.4l1-4.8c0-0.2,0.3-0.4,0.5-0.4h18.8c0.2,0,0.3,0.1,0.4,0.2s0.1,0.3,0.1,0.4l-1,4.8c0,0.2-0.3,0.4-0.5,0.4h-6.2
				l-4.6,22c0,0.2-0.3,0.4-0.5,0.4H257.1z"/>
			<linearGradient id="SVGID_22_" gradientUnits="userSpaceOnUse" x1="187.4696" y1="346.0381" x2="326.8115" y2="346.0381">
				<stop  offset="6.407080e-03" style="stop-color:#7A7A7A"/>
				<stop  offset="0.123" style="stop-color:#4D4D4D"/>
				<stop  offset="0.3036" style="stop-color:#B3B3B3"/>
				<stop  offset="0.4944" style="stop-color:#8C8C8D"/>
				<stop  offset="0.5795" style="stop-color:#79797A"/>
				<stop  offset="0.6261" style="stop-color:#909091"/>
				<stop  offset="0.6911" style="stop-color:#AAAAAA"/>
				<stop  offset="0.7498" style="stop-color:#BABABA"/>
				<stop  offset="0.7961" style="stop-color:#BFBFBF"/>
				<stop  offset="0.8768" style="stop-color:#5C5C5C"/>
				<stop  offset="0.9976" style="stop-color:#7E7E80"/>
			</linearGradient>
			<path class="st28" d="M286.7,360.5c-2.3,0-4.2-0.5-5.8-1.4c-1.6-0.9-2.8-2.2-3.6-3.8c-0.8-1.6-1.2-3.5-1.2-5.7
				c0-1.4,0.1-2.9,0.4-4.3c0.3-1.4,0.7-2.8,1.2-4.2c0.5-1.3,1.2-2.6,2-3.8c0.8-1.2,1.8-2.2,2.9-3.1c1.1-0.9,2.4-1.6,3.8-2.1
				c1.4-0.5,3-0.7,4.7-0.7c3.4,0,6.1,1,7.8,2.9c1.7,1.9,2.6,4.5,2.6,7.7c0,1.5-0.1,3-0.4,4.5c-0.2,1.5-0.6,2.9-1.1,4.3
				c-0.5,1.4-1.2,2.6-2,3.8c-0.8,1.2-1.8,2.2-2.8,3c-1.1,0.9-2.4,1.6-3.8,2C290,360.3,288.4,360.5,286.7,360.5z M290.5,337.3
				c-0.7,0-1.4,0.1-2,0.4c-0.7,0.3-1.3,0.7-1.8,1.2c-0.6,0.5-1.1,1.2-1.5,1.9c-0.5,0.8-0.9,1.6-1.2,2.5c-0.3,0.9-0.6,1.9-0.8,3
				c-0.2,1-0.3,2.2-0.3,3.3c0,1.1,0.2,2.1,0.5,2.8c0.3,0.7,0.8,1.3,1.4,1.6c0.6,0.4,1.4,0.6,2.3,0.6c0.7,0,1.3-0.1,2-0.4
				c0.6-0.3,1.2-0.6,1.8-1.1c0.6-0.5,1.1-1.1,1.5-1.8c0.5-0.7,0.9-1.5,1.2-2.4c0.3-0.9,0.6-1.9,0.8-3c0.2-1.1,0.3-2.3,0.3-3.6
				c0-1.6-0.4-2.8-1.1-3.7C292.9,337.8,291.9,337.3,290.5,337.3z"/>
			<linearGradient id="SVGID_23_" gradientUnits="userSpaceOnUse" x1="187.4696" y1="346.0381" x2="326.8115" y2="346.0381">
				<stop  offset="6.407080e-03" style="stop-color:#7A7A7A"/>
				<stop  offset="0.123" style="stop-color:#4D4D4D"/>
				<stop  offset="0.3036" style="stop-color:#B3B3B3"/>
				<stop  offset="0.4944" style="stop-color:#8C8C8D"/>
				<stop  offset="0.5795" style="stop-color:#79797A"/>
				<stop  offset="0.6261" style="stop-color:#909091"/>
				<stop  offset="0.6911" style="stop-color:#AAAAAA"/>
				<stop  offset="0.7498" style="stop-color:#BABABA"/>
				<stop  offset="0.7961" style="stop-color:#BFBFBF"/>
				<stop  offset="0.8768" style="stop-color:#5C5C5C"/>
				<stop  offset="0.9976" style="stop-color:#7E7E80"/>
			</linearGradient>
			<path class="st29" d="M319,360.2c-0.2,0-0.4-0.1-0.5-0.3l-3.7-10.1h-1.5l-2.1,10c0,0.2-0.3,0.4-0.5,0.4H305
				c-0.2,0-0.3-0.1-0.4-0.2c-0.1-0.1-0.1-0.3-0.1-0.4l5.8-27.2c0-0.2,0.3-0.4,0.5-0.4h6.7c2.8,0,5.1,0.6,6.8,1.9
				c1.7,1.3,2.6,3.3,2.6,6.1c0,1.5-0.3,2.9-0.8,4c-0.6,1.1-1.3,2.1-2.3,2.9c-0.8,0.7-1.7,1.2-2.7,1.6l4.7,11.1c0.1,0.2,0,0.3,0,0.5
				c-0.1,0.1-0.2,0.2-0.4,0.2H319z M315.4,344c0.8,0,1.4-0.1,2-0.3c0.6-0.2,1.1-0.4,1.5-0.7c0.4-0.3,0.7-0.7,0.9-1.1
				c0.2-0.5,0.3-1,0.3-1.7c0-0.9-0.2-1.5-0.7-1.9c-0.5-0.4-1.3-0.6-2.4-0.6h-1l-1.4,6.4H315.4z"/>
		</g>
		<text transform="matrix(1 0 0 1 186.9834 359.6738)" class="st20 st31 st32 st33">motor</text>
	</g>
	<g>
		<g>
			<linearGradient id="SVGID_24_" gradientUnits="userSpaceOnUse" x1="218.3777" y1="426.0659" x2="302.791" y2="426.0659">
				<stop  offset="6.407080e-03" style="stop-color:#7A7A7A"/>
				<stop  offset="0.123" style="stop-color:#4D4D4D"/>
				<stop  offset="0.3036" style="stop-color:#B3B3B3"/>
				<stop  offset="0.4944" style="stop-color:#8C8C8D"/>
				<stop  offset="0.5795" style="stop-color:#79797A"/>
				<stop  offset="0.6261" style="stop-color:#909091"/>
				<stop  offset="0.6911" style="stop-color:#AAAAAA"/>
				<stop  offset="0.7498" style="stop-color:#BABABA"/>
				<stop  offset="0.7961" style="stop-color:#BFBFBF"/>
				<stop  offset="0.8768" style="stop-color:#5C5C5C"/>
				<stop  offset="0.9976" style="stop-color:#7E7E80"/>
			</linearGradient>
			<path class="st30" d="M234.6,440.2c-0.3,0-0.5-0.2-0.5-0.5l-0.3-12.4c0-1.1,0-2-0.1-2.8c0-0.4,0-0.8,0-1.1
				c-0.1,0.1-0.1,0.3-0.2,0.4c-0.3,0.9-0.7,1.8-1.1,2.7l-6,13.4c-0.1,0.2-0.3,0.3-0.5,0.3h-6.3c-0.3,0-0.5-0.2-0.5-0.5l-0.8-27.2
				c0-0.1,0-0.3,0.1-0.4c0.1-0.1,0.2-0.2,0.4-0.2h5.3c0.3,0,0.5,0.2,0.5,0.5l0.1,14.9c0,1,0,2-0.1,3.2c0,0.1,0,0.2,0,0.3
				c0-0.1,0.1-0.3,0.2-0.4c0.4-1.1,0.8-2.1,1.2-2.9l6.9-15.2c0.1-0.2,0.3-0.3,0.5-0.3h5c0.3,0,0.5,0.2,0.5,0.5l0.4,15.2
				c0,0.6,0,1.6,0,2.8c0,0.1,0,0.3,0,0.4c0.2-0.6,0.4-1.2,0.7-1.8c0.3-0.7,0.5-1.4,0.8-2l6.1-14.8c0.1-0.2,0.3-0.3,0.5-0.3h5.8
				c0.2,0,0.3,0.1,0.4,0.2c0.1,0.1,0.1,0.3,0,0.5l-12,27.2c-0.1,0.2-0.3,0.3-0.5,0.3H234.6z"/>
			<linearGradient id="SVGID_25_" gradientUnits="userSpaceOnUse" x1="218.3777" y1="426.0659" x2="302.791" y2="426.0659">
				<stop  offset="6.407080e-03" style="stop-color:#7A7A7A"/>
				<stop  offset="0.123" style="stop-color:#4D4D4D"/>
				<stop  offset="0.3036" style="stop-color:#B3B3B3"/>
				<stop  offset="0.4944" style="stop-color:#8C8C8D"/>
				<stop  offset="0.5795" style="stop-color:#79797A"/>
				<stop  offset="0.6261" style="stop-color:#909091"/>
				<stop  offset="0.6911" style="stop-color:#AAAAAA"/>
				<stop  offset="0.7498" style="stop-color:#BABABA"/>
				<stop  offset="0.7961" style="stop-color:#BFBFBF"/>
				<stop  offset="0.8768" style="stop-color:#5C5C5C"/>
				<stop  offset="0.9976" style="stop-color:#7E7E80"/>
			</linearGradient>
			<path class="st34" d="M267.6,440.2c-0.3,0-0.5-0.2-0.5-0.5l-0.4-6h-8l-3.1,6.2c-0.1,0.2-0.3,0.3-0.4,0.3h-6
				c-0.2,0-0.3-0.1-0.4-0.2s-0.1-0.3,0-0.5l14.3-27.2c0.1-0.2,0.3-0.3,0.4-0.3h6.9c0.3,0,0.5,0.2,0.5,0.5l2.7,27.2
				c0,0.1,0,0.3-0.1,0.4c-0.1,0.1-0.2,0.2-0.4,0.2H267.6z M266.3,427.9l-0.4-6.5c0,0-0.2-2.3-0.2-2.3c-0.3,0.7-0.7,1.4-1,2.2
				l-3.2,6.6H266.3z"/>
			<linearGradient id="SVGID_26_" gradientUnits="userSpaceOnUse" x1="218.3777" y1="426.0659" x2="302.791" y2="426.0659">
				<stop  offset="6.407080e-03" style="stop-color:#7A7A7A"/>
				<stop  offset="0.123" style="stop-color:#4D4D4D"/>
				<stop  offset="0.3036" style="stop-color:#B3B3B3"/>
				<stop  offset="0.4944" style="stop-color:#8C8C8D"/>
				<stop  offset="0.5795" style="stop-color:#79797A"/>
				<stop  offset="0.6261" style="stop-color:#909091"/>
				<stop  offset="0.6911" style="stop-color:#AAAAAA"/>
				<stop  offset="0.7498" style="stop-color:#BABABA"/>
				<stop  offset="0.7961" style="stop-color:#BFBFBF"/>
				<stop  offset="0.8768" style="stop-color:#5C5C5C"/>
				<stop  offset="0.9976" style="stop-color:#7E7E80"/>
			</linearGradient>
			<path class="st35" d="M282.9,440.2c-0.2,0-0.3-0.1-0.4-0.2s-0.1-0.3-0.1-0.4l2.2-10.3l-4.4-16.7c0-0.1,0-0.3,0.1-0.4
				c0.1-0.1,0.2-0.2,0.4-0.2h5.8c0.2,0,0.4,0.2,0.5,0.4l2.1,9.8l6.3-10c0.1-0.1,0.3-0.2,0.4-0.2h6.4c0.2,0,0.4,0.1,0.4,0.3
				c0.1,0.2,0.1,0.4,0,0.5l-11.4,16.7l-2.2,10.3c0,0.2-0.3,0.4-0.5,0.4H282.9z"/>
		</g>
		<text transform="matrix(1 0 0 1 215.4531 439.6738)" class="st20 st31 st32 st33">WAY</text>
	</g>
	<linearGradient id="SVGID_27_" gradientUnits="userSpaceOnUse" x1="117.8073" y1="210.6162" x2="404.8596" y2="210.6162">
		<stop  offset="6.407080e-03" style="stop-color:#7A7A7A"/>
		<stop  offset="0.123" style="stop-color:#4D4D4D"/>
		<stop  offset="0.3036" style="stop-color:#B3B3B3"/>
		<stop  offset="0.4944" style="stop-color:#8C8C8D"/>
		<stop  offset="0.5795" style="stop-color:#79797A"/>
		<stop  offset="0.6261" style="stop-color:#909091"/>
		<stop  offset="0.6911" style="stop-color:#AAAAAA"/>
		<stop  offset="0.7498" style="stop-color:#BABABA"/>
		<stop  offset="0.7961" style="stop-color:#BFBFBF"/>
		<stop  offset="0.8768" style="stop-color:#5C5C5C"/>
		<stop  offset="0.9976" style="stop-color:#7E7E80"/>
	</linearGradient>
	<path class="st36" d="M117.8,206.7l3.1,12.7l13.9,2.9c8.6,1.8,17.5,0.1,24.7-4.8l5.5-3.7c3.4-2.3,7.6-3.2,11.6-2.4
		c6.5,1.2,17.7,3.1,31.1,4.5L197,201.7c0,0,23.1-13.1,50.7-8.8c25.4,4.6,32.7,15.7,32.7,15.7h-53.4c0,0,11.9,9.6,30,15
		c0,0,65.7-11.9,119.8,3.3c3.5,1,6.7,2.7,9.3,5.2l6.6,6.1h7.3l5-10.8c0,0-37.7-15.8-105.7-20.8L275,193.3c-13.1-7.3-28-10.9-43-10.2
		c-17.1,0.8-39.8,4.2-59.6,14.8C172.4,197.9,151,203.5,117.8,206.7z"/>
	<linearGradient id="SVGID_28_" gradientUnits="userSpaceOnUse" x1="192.9713" y1="242.5001" x2="399.0956" y2="242.5001">
		<stop  offset="6.407080e-03" style="stop-color:#7A7A7A"/>
		<stop  offset="0.123" style="stop-color:#4D4D4D"/>
		<stop  offset="0.3036" style="stop-color:#B3B3B3"/>
		<stop  offset="0.4944" style="stop-color:#8C8C8D"/>
		<stop  offset="0.5795" style="stop-color:#79797A"/>
		<stop  offset="0.6261" style="stop-color:#909091"/>
		<stop  offset="0.6911" style="stop-color:#AAAAAA"/>
		<stop  offset="0.7498" style="stop-color:#BABABA"/>
		<stop  offset="0.7961" style="stop-color:#BFBFBF"/>
		<stop  offset="0.8768" style="stop-color:#5C5C5C"/>
		<stop  offset="0.9976" style="stop-color:#7E7E80"/>
	</linearGradient>
	<path class="st37" d="M382.3,246.7c-3.6-11.7-14.5-20.3-27.4-20.3c-12.9,0-23.8,8.5-27.4,20.3h-38.3c-45-29.2-96.2-16.9-96.2-16.9
		c54.4,0,89.3,28.8,89.3,28.8h44.2h8.7c-0.2-1.2-0.3-2.4-0.3-3.6c0-3,0.6-5.8,1.8-8.3c3.2-6.9,10.1-11.6,18.2-11.6
		c8.1,0,15,4.8,18.2,11.6c1.2,2.5,1.8,5.4,1.8,8.3c0,1.2-0.1,2.4-0.3,3.6h8.7h11.9l3.9-11.9H382.3z"/>
	<linearGradient id="SVGID_29_" gradientUnits="userSpaceOnUse" x1="113.3883" y1="242.5001" x2="199.1848" y2="242.5001">
		<stop  offset="6.407080e-03" style="stop-color:#7A7A7A"/>
		<stop  offset="0.123" style="stop-color:#4D4D4D"/>
		<stop  offset="0.3036" style="stop-color:#B3B3B3"/>
		<stop  offset="0.4944" style="stop-color:#8C8C8D"/>
		<stop  offset="0.5795" style="stop-color:#79797A"/>
		<stop  offset="0.6261" style="stop-color:#909091"/>
		<stop  offset="0.6911" style="stop-color:#AAAAAA"/>
		<stop  offset="0.7498" style="stop-color:#BABABA"/>
		<stop  offset="0.7961" style="stop-color:#BFBFBF"/>
		<stop  offset="0.8768" style="stop-color:#5C5C5C"/>
		<stop  offset="0.9976" style="stop-color:#7E7E80"/>
	</linearGradient>
	<path class="st38" d="M192.5,246.7c-3.6-11.7-14.5-20.3-27.4-20.3c-6.8,0-13,2.4-17.9,6.3l-16.6-4.5c-6.2-1.7-12.8,1.4-15.4,7.3
		l-1.7,3.8l24.5,6.7l7.2,2.4c3-8.7,12.1-13.5,20-13.5c8.1,0,15,4.8,18.2,11.6c1.2,2.5,1.8,5.4,1.8,8.3c0,1.2-0.1,2.4-0.3,3.6h10.6
		l3.9-11.9H192.5z"/>
	<g>
		<path class="st40" d="M168.2,183.9c3.3,3,4.4,7.1,2.6,9.2c-1.9,2.1-6.1,1.3-9.4-1.7c-3.3-3-4.4-7.1-2.6-9.2
			C160.7,180.2,164.9,180.9,168.2,183.9z"/>
		<path class="st40" d="M357.5,128.9c-5.8,0-11.2,1.7-15.8,4.7c-1.5-24.1-21.5-43.2-45.9-43.2c-24.7,0-44.8,19.4-45.9,43.8
			c0,0,0,0-0.1,0c-11.3,0-21.1,6.5-25.8,15.9c-2.6-13.4-14.3-23.5-28.4-23.5c-16,0-29,13-29,29c0,0.4,0,0.7,0,1.1
			c-1.9-0.4-3.8-0.6-5.7-0.6c-16,0-29,13-29,29c0,2.2,0.3,4.4,0.7,6.4c2.9-12.9,14.4-22.6,28.2-22.6c13.8,0,25.3,9.6,28.2,22.6
			c0.5-2.1,0.7-4.2,0.7-6.4c0-13.2-8.9-24.4-21-27.9c4.4-10.5,14.7-17.8,26.7-17.8c11.6,0,21.6,6.8,26.2,16.7
			c-0.6,2.3-0.9,4.6-0.9,7.1c0,2.2,0.3,4.4,0.7,6.4c2.9-12.9,14.4-22.6,28.2-22.6c13.8,0,25.3,9.6,28.2,22.6
			c0.5-2.1,0.7-4.2,0.7-6.4c0-14.1-10-25.8-23.3-28.4c7.8-14.3,22.9-24,40.3-24c18.3,0,34.1,10.8,41.5,26.3
			c-5.4,5.3-8.8,12.6-8.8,20.8c0,2.2,0.3,4.4,0.7,6.4c2.9-12.9,14.4-22.6,28.2-22.6c13.8,0,25.3,9.6,28.2,22.6
			c0.5-2.1,0.7-4.2,0.7-6.4C386.5,141.9,373.6,128.9,357.5,128.9z"/>
		<path class="st40" d="M317.5,123.9c-4.5-4.1-10.2-5.1-12.7-2.3c-2.6,2.8-1,8.4,3.5,12.5c4.5,4.1,10.2,5.1,12.7,2.3
			C323.6,133.5,322,127.9,317.5,123.9z"/>
		<path class="st40" d="M261.3,157.3c-3.3-3-7.5-3.8-9.4-1.7c-1.9,2.1-0.7,6.2,2.6,9.2c3.3,3,7.5,3.8,9.4,1.7
			C265.7,164.4,264.6,160.3,261.3,157.3z"/>
		<path class="st40" d="M209.4,152.4c-3.3-3-7.5-3.8-9.4-1.7c-1.9,2.1-0.7,6.2,2.6,9.2c3.3,3,7.5,3.8,9.4,1.7
			C213.8,159.5,212.7,155.4,209.4,152.4z"/>
		<path class="st40" d="M367.8,148.2c-3.3-3-7.5-3.8-9.4-1.7c-1.9,2.1-0.7,6.2,2.6,9.2c3.3,3,7.5,3.8,9.4,1.7
			C372.2,155.3,371.1,151.2,367.8,148.2z"/>
	</g>
	<g>
		
			<linearGradient id="SVGID_30_" gradientUnits="userSpaceOnUse" x1="258.0728" y1="472.0067" x2="258.0728" y2="499.0621" gradientTransform="matrix(1 0 0 -1 0 882.4931)">
			<stop  offset="0" style="stop-color:#581CC4"/>
			<stop  offset="1" style="stop-color:#000000"/>
		</linearGradient>
		<polygon class="st39" points="258.1,392 260.4,387.3 265.6,386.5 261.8,382.8 262.7,377.7 258.1,380.1 253.4,377.7 254.3,382.8 
			250.6,386.5 255.8,387.3 		"/>
		
			<linearGradient id="SVGID_31_" gradientUnits="userSpaceOnUse" x1="287.304" y1="479.1504" x2="287.304" y2="506.2058" gradientTransform="matrix(1 0 0 -1 0 882.4931)">
			<stop  offset="0" style="stop-color:#581CC4"/>
			<stop  offset="1" style="stop-color:#000000"/>
		</linearGradient>
		<polygon class="st41" points="287.3,384.8 289.6,380.1 294.8,379.4 291.1,375.7 291.9,370.5 287.3,373 282.7,370.5 283.5,375.7 
			279.8,379.4 285,380.1 		"/>
		
			<linearGradient id="SVGID_32_" gradientUnits="userSpaceOnUse" x1="316.5353" y1="488.099" x2="316.5353" y2="515.1544" gradientTransform="matrix(1 0 0 -1 0 882.4931)">
			<stop  offset="0" style="stop-color:#581CC4"/>
			<stop  offset="1" style="stop-color:#000000"/>
		</linearGradient>
		<polygon class="st42" points="316.5,375.9 318.9,371.2 324,370.4 320.3,366.8 321.2,361.6 316.5,364 311.9,361.6 312.8,366.8 
			309,370.4 314.2,371.2 		"/>
		
			<linearGradient id="SVGID_33_" gradientUnits="userSpaceOnUse" x1="1117.4644" y1="479.1504" x2="1117.4644" y2="506.2058" gradientTransform="matrix(-1 0 0 -1 1346.3058 882.4931)">
			<stop  offset="0" style="stop-color:#581CC4"/>
			<stop  offset="1" style="stop-color:#000000"/>
		</linearGradient>
		<polygon class="st43" points="228.8,384.8 226.5,380.1 221.3,379.4 225.1,375.7 224.2,370.5 228.8,373 233.5,370.5 232.6,375.7 
			236.4,379.4 231.2,380.1 		"/>
		
			<linearGradient id="SVGID_34_" gradientUnits="userSpaceOnUse" x1="1146.6956" y1="488.099" x2="1146.6956" y2="515.1544" gradientTransform="matrix(-1 0 0 -1 1346.3058 882.4931)">
			<stop  offset="0" style="stop-color:#581CC4"/>
			<stop  offset="1" style="stop-color:#000000"/>
		</linearGradient>
		<polygon class="st44" points="199.6,375.9 197.3,371.2 192.1,370.4 195.9,366.8 195,361.6 199.6,364 204.3,361.6 203.4,366.8 
			207.1,370.4 201.9,371.2 		"/>
	</g>
</g>
</svg>
