<svg width="65" height="65" viewBox="0 0 65 65" fill="none" xmlns="http://www.w3.org/2000/svg">
<path fill-rule="evenodd" clip-rule="evenodd" d="M64.4392 43.0816L56.034 38.229V10.0862C56.0339 9.78901 55.9158 9.504 55.7056 9.29388L46.7401 0.328362C46.5299 0.118177 46.2449 6.3473e-05 45.9477 0H10.0855C9.46657 0 8.96482 0.50175 8.96482 1.12069V14.3953L1.18719 13.9279C0.763627 13.9028 0.362162 14.119 0.15006 14.4864C-0.0620421 14.8539 -0.0484033 15.3097 0.185294 15.6639L7.88671 27.3291C7.9839 27.4811 8.1161 27.6075 8.27223 27.6978L8.96594 28.0979V63.8793C8.96594 64.4983 9.46769 65 10.0866 65H54.9133C55.5322 65 56.034 64.4983 56.034 63.8793V55.2735L57.0594 55.8653C57.5954 56.1747 58.2808 55.9911 58.5903 55.4551L64.8494 44.6135C64.9983 44.356 65.0388 44.0499 64.9619 43.7625C64.8849 43.4752 64.6969 43.2302 64.4392 43.0816ZM11.2062 2.24138H45.4838L53.7926 10.5502V36.9357L15.652 14.9153C15.496 14.8244 15.3202 14.7729 15.1398 14.7651L11.2062 14.5297V2.24138ZM8.76757 24.5958L3.28962 16.3027L13.2134 16.8989L8.76757 24.5958ZM15.5007 17.4166L51.5064 38.2032L46.368 47.1037L10.3623 26.3172L15.5007 17.4166ZM53.7926 62.7586H11.2062V29.3923L53.7926 53.9791V62.7586ZM57.2096 53.3639L48.309 48.2244L53.4474 39.3239L62.348 44.4634L57.2096 53.3639Z" fill="#418DFE"/>
<path fill-rule="evenodd" clip-rule="evenodd" d="M19.1154 11H45.8846C46.5006 11 47 10.5523 47 10C47 9.44772 46.5006 9 45.8846 9H19.1154C18.4994 9 18 9.44772 18 10C18 10.5523 18.4994 11 19.1154 11Z" fill="#418DFE"/>
<path fill-rule="evenodd" clip-rule="evenodd" d="M19.1154 16H45.8846C46.5006 16 47 15.5523 47 15C47 14.4477 46.5006 14 45.8846 14H19.1154C18.4994 14 18 14.4477 18 15C18 15.5523 18.4994 16 19.1154 16Z" fill="#418DFE"/>
<path fill-rule="evenodd" clip-rule="evenodd" d="M19.1154 56H45.8846C46.5006 56 47 55.5523 47 55C47 54.4477 46.5006 54 45.8846 54H19.1154C18.4994 54 18 54.4477 18 55C18 55.5523 18.4994 56 19.1154 56Z" fill="#418DFE"/>
<path fill-rule="evenodd" clip-rule="evenodd" d="M45.8889 18H28.1111C27.4975 18 27 18.4477 27 19C27 19.5523 27.4975 20 28.1111 20H45.8889C46.5025 20 47 19.5523 47 19C47 18.4477 46.5025 18 45.8889 18Z" fill="#418DFE"/>
<path fill-rule="evenodd" clip-rule="evenodd" d="M19.1364 51H41.8636C42.4912 51 43 50.5523 43 50C43 49.4477 42.4912 49 41.8636 49H19.1364C18.5088 49 18 49.4477 18 50C18 50.5523 18.5088 51 19.1364 51Z" fill="#418DFE"/>
<path fill-rule="evenodd" clip-rule="evenodd" d="M45.9167 23H35.0833C34.485 23 34 23.4477 34 24C34 24.5523 34.485 25 35.0833 25H45.9167C46.515 25 47 24.5523 47 24C47 23.4477 46.515 23 45.9167 23Z" fill="#418DFE"/>
<path fill-rule="evenodd" clip-rule="evenodd" d="M19.1429 47H32.8571C33.4883 47 34 46.5523 34 46C34 45.4477 33.4883 45 32.8571 45H19.1429C18.5117 45 18 45.4477 18 46C18 46.5523 18.5117 47 19.1429 47Z" fill="#418DFE"/>
<path fill-rule="evenodd" clip-rule="evenodd" d="M19.1 42H27.9C28.5075 42 29 41.5523 29 41C29 40.4477 28.5075 40 27.9 40H19.1C18.4925 40 18 40.4477 18 41C18 41.5523 18.4925 42 19.1 42Z" fill="#418DFE"/>
</svg>
