<svg width="195" height="195" viewBox="0 0 195 195" fill="none" xmlns="http://www.w3.org/2000/svg">
<path d="M17.8264 142.55V142.513L10.6265 138.425L10.4015 69.1628C10.4015 66.7627 12.0891 63.8378 14.1515 62.6378L108.764 8.03781C109.814 7.40014 110.789 7.36283 111.464 7.73774L118.514 11.7878C118.552 11.7878 118.589 11.8253 118.664 11.8627C119.339 12.2378 119.789 13.0627 119.789 14.2627L119.976 83.5629L17.8264 142.55Z" fill="#4C5C75"/>
<path d="M118.678 11.8552C118.017 11.4644 118.588 12.246 117.536 12.8771L94.5391 26.1342L22.9342 67.4681C20.8598 68.7005 19.1766 71.6166 19.1766 74.0214L17.8236 142.531L10.6111 138.425L10.4008 69.1645C10.4008 66.7595 12.084 63.8436 14.1584 62.6411L108.761 8.02021C109.813 7.41896 110.775 7.35896 111.466 7.74977L118.678 11.8552Z" fill="#9A9A9A"/>
<path d="M119.983 83.5479L17.825 142.532L17.6197 73.2629C17.6197 70.855 19.2997 67.9432 21.3903 66.7299L115.989 12.1135C118.08 10.9004 119.778 11.871 119.797 14.2788L119.983 83.5479Z" fill="#1C2841"/>
<path d="M117.091 81.8439L20.7952 137.484L20.5865 73.2454C20.5865 71.9096 21.7134 69.9477 22.924 69.2382L116.924 14.9753L117.091 81.8439Z" fill="#8E8E8E"/>
<path d="M17.8287 142.527L17.8597 151.833L77.7433 186.595C79.8217 187.805 83.1873 187.805 85.2812 186.595L179.876 131.985C180.931 131.38 181.458 130.574 181.458 129.783L181.427 120.534C181.427 121.325 180.9 122.116 179.845 122.721L17.8287 142.527Z" fill="#9D9D9D"/>
<path d="M17.8357 142.523L77.7207 177.324C79.7965 178.531 83.1722 178.531 85.2616 177.324L179.851 122.713C181.95 121.501 181.961 119.546 179.885 118.34L120 83.5384L17.8357 142.523Z" fill="#F8F9FE"/>
<path d="M71.8265 122.375L71.789 121.625C71.789 121.55 71.8265 121.475 71.9389 121.438L76.289 118.925C76.4765 118.813 76.7766 118.813 76.9265 118.925L81.2766 121.438C81.3514 121.475 81.389 121.55 81.389 121.588L81.4265 121.625V122.375C81.4265 122.45 81.389 122.525 81.2766 122.6L76.9265 125.113C76.739 125.188 76.439 125.188 76.289 125.113L71.9389 122.563C71.8641 122.525 71.8265 122.45 71.8265 122.375ZM80.7515 148.85L80.7891 149.525C80.7891 149.6 80.714 149.638 80.6389 149.675L69.3889 156.2C69.239 156.275 69.014 156.275 68.8266 156.2C68.789 156.2 68.789 156.2 68.7515 156.2L64.4389 153.688C64.4016 153.65 64.3265 153.613 64.3265 153.575C64.289 153.538 64.289 153.538 64.289 153.5V152.713C64.289 152.638 64.3265 152.563 64.4389 152.525L75.6889 146.038C75.8391 145.925 76.1391 145.925 76.289 146.038L80.6389 148.55C80.7515 148.625 80.7891 148.7 80.7515 148.775V148.85ZM72.239 140.45C72.1266 140.413 72.0891 140.338 72.0891 140.3V139.513C72.0891 139.475 72.0891 139.475 72.1639 139.438C72.1266 139.4 72.1639 139.363 72.2014 139.325H72.239L76.5891 136.813C76.7766 136.7 77.0391 136.7 77.2265 136.813L81.5389 139.325H81.5764C81.614 139.363 81.6515 139.4 81.6515 139.438C81.689 139.438 81.689 139.475 81.689 139.513V140.3C81.689 140.338 81.6515 140.413 81.5764 140.45L77.189 143C77.0015 143.075 76.739 143.113 76.5516 143L72.239 140.45ZM80.5641 125.863L84.8765 128.375H84.914C84.9891 128.413 85.0266 128.45 84.9891 128.525C84.9891 128.525 85.0266 128.525 85.0266 128.563V129.313C85.0266 129.388 84.9891 129.463 84.8765 129.538L80.5266 132.05C80.489 132.088 80.4515 132.088 80.3764 132.088C80.2265 132.125 80.0766 132.125 79.964 132.05C79.9264 132.05 79.9264 132.05 79.8891 132.05L75.5765 129.538C75.4639 129.463 75.4266 129.388 75.4266 129.313V128.563C75.4266 128.525 75.4266 128.525 75.4639 128.488C75.5015 128.45 75.5015 128.413 75.5765 128.375L79.9264 125.863C80.1141 125.75 80.3764 125.75 80.5641 125.863ZM79.5891 118.138C79.514 118.1 79.4764 118.063 79.4764 117.988V117.2C79.4764 117.172 79.5186 117.132 79.5609 117.088C79.5843 117.065 79.5515 117.032 79.5891 117.013L83.9765 114.5C84.1264 114.388 84.4265 114.388 84.5766 114.5L88.9265 117.013C88.9641 117.05 89.0389 117.088 89.0389 117.125C89.0764 117.163 89.0764 117.163 89.0764 117.2V117.988C89.0764 118.025 89.0389 118.1 88.9265 118.138L84.5766 120.688C84.3889 120.8 84.1264 120.8 83.939 120.688L79.5891 118.138ZM88.3639 121.325L92.7141 123.875C92.7889 123.913 92.8264 123.988 92.8264 124.063V124.1C92.8264 124.063 92.864 124.063 92.864 124.063V124.775C92.864 124.888 92.8264 124.925 92.7141 125L88.3266 127.513C88.1765 127.625 87.8764 127.625 87.689 127.513L83.3766 125C83.3015 124.963 83.2264 124.888 83.2264 124.813V124.063C83.2264 124.025 83.2264 124.025 83.264 123.988C83.3015 123.95 83.3015 123.913 83.3766 123.875L87.764 121.325C87.9139 121.25 88.1765 121.25 88.3639 121.325ZM84.239 138.575L79.8891 136.063C79.7765 135.988 79.739 135.913 79.739 135.875V135.088L79.7765 135.05C79.7765 134.975 79.814 134.938 79.8891 134.9L84.239 132.388C84.4265 132.275 84.689 132.275 84.8765 132.388L89.2266 134.9C89.3014 134.938 89.339 135.013 89.339 135.088V135.875C89.339 135.913 89.3014 135.988 89.2266 136.063L84.8389 138.575C84.6515 138.65 84.3889 138.65 84.239 138.575ZM97.0264 130.663C97.0264 130.7 97.0264 130.738 96.9891 130.775L97.0264 131.45C97.0264 131.525 96.9516 131.563 96.8765 131.638L92.4891 134.15C92.4515 134.188 92.3765 134.188 92.3389 134.188C92.2265 134.225 92.1139 134.225 92.0015 134.188C91.9265 134.188 91.8889 134.188 91.8514 134.15L87.539 131.638C87.4264 131.563 87.3891 131.525 87.3891 131.45V130.663C87.3891 130.588 87.4264 130.513 87.539 130.475L91.8889 127.963C92.0766 127.85 92.3389 127.85 92.5266 127.963L96.8765 130.475C96.9516 130.55 97.0264 130.588 97.0264 130.663ZM87.239 113.713C87.1639 113.675 87.1266 113.6 87.1266 113.563V112.775C87.1266 112.7 87.1639 112.625 87.239 112.588L91.6264 110.075C91.7766 109.963 92.0766 109.963 92.2265 110.075L96.5764 112.588C96.614 112.625 96.689 112.663 96.689 112.7C96.7266 112.738 96.7266 112.738 96.7266 112.775V113.563C96.7266 113.6 96.689 113.675 96.614 113.713L92.2265 116.263C92.0391 116.375 91.7766 116.338 91.5891 116.263L87.239 113.713ZM96.2015 116.825L100.514 119.338C100.551 119.338 100.589 119.375 100.589 119.375C100.627 119.413 100.664 119.45 100.664 119.525V120.313C100.664 120.388 100.627 120.425 100.514 120.5L96.164 123.013C95.9765 123.125 95.714 123.125 95.5266 123.013L91.1764 120.5C91.1016 120.463 91.064 120.388 91.064 120.313V119.525C91.064 119.488 91.1016 119.413 91.1764 119.375V119.338L95.5641 116.825C95.6014 116.788 95.6765 116.788 95.714 116.788C95.8639 116.75 96.0516 116.788 96.2015 116.825ZM104.002 112.325L108.351 114.838C108.427 114.913 108.464 114.988 108.464 115.063L108.501 115.775C108.501 115.85 108.464 115.925 108.351 115.963L103.964 118.513C103.814 118.588 103.514 118.588 103.327 118.513L99.014 115.963C98.939 115.925 98.8641 115.85 98.8641 115.813V115.025C98.8641 114.95 98.9014 114.913 99.014 114.838L103.364 112.325C103.552 112.213 103.814 112.213 104.002 112.325ZM94.8891 109.325C94.814 109.288 94.7765 109.213 94.7765 109.138V108.35C94.7765 108.275 94.814 108.238 94.8891 108.163L99.2766 105.65H99.3141C99.464 105.538 99.7265 105.575 99.8765 105.65L102.052 106.925L104.227 108.163V108.2C104.339 108.238 104.377 108.313 104.377 108.388V109.138C104.377 109.213 104.339 109.288 104.264 109.325L99.8765 111.838C99.689 111.95 99.4265 111.95 99.239 111.838L94.8891 109.325ZM102.539 104.9C102.464 104.825 102.426 104.788 102.426 104.713V103.925C102.426 103.888 102.464 103.813 102.539 103.775L106.926 101.225C107.077 101.15 107.376 101.15 107.527 101.225L111.877 103.775C111.952 103.813 111.989 103.85 112.026 103.925V104.713C112.026 104.788 111.989 104.863 111.914 104.9L107.527 107.413C107.489 107.45 107.452 107.488 107.376 107.45C107.264 107.488 107.151 107.488 107.039 107.45C107.002 107.488 106.926 107.45 106.889 107.413L102.539 104.9ZM99.5015 129.725L95.189 127.213H95.1514C95.0766 127.138 95.039 127.1 95.039 127.025V126.238C95.039 126.2 95.0766 126.125 95.189 126.088L99.5391 123.538C99.7265 123.463 99.9891 123.463 100.177 123.538L104.526 126.088C104.601 126.125 104.639 126.2 104.639 126.238L104.677 126.275V127.025C104.677 127.1 104.639 127.138 104.526 127.213L100.139 129.725C99.9891 129.838 99.689 129.838 99.5015 129.725ZM107.151 125.3L102.839 122.825L102.726 122.713C102.726 122.675 102.689 122.638 102.689 122.638V121.85L102.726 121.813C102.726 121.775 102.764 121.7 102.839 121.663L107.189 119.113C107.376 119.038 107.639 119.038 107.826 119.113L112.177 121.663C112.251 121.738 112.326 121.775 112.326 121.85V122.6C112.326 122.713 112.289 122.75 112.177 122.825L107.789 125.3C107.601 125.413 107.376 125.413 107.151 125.3ZM114.802 120.913L110.489 118.4V118.363C110.451 118.363 110.451 118.363 110.451 118.325C110.376 118.288 110.339 118.25 110.339 118.213V117.425C110.339 117.35 110.376 117.313 110.489 117.238L114.876 114.725C115.027 114.613 115.289 114.613 115.477 114.725L119.826 117.238C119.939 117.275 119.976 117.35 119.976 117.425V118.213C119.976 118.25 119.939 118.325 119.826 118.363L115.439 120.913C115.289 120.988 114.989 120.988 114.839 120.913H114.802ZM118.927 112.363L130.139 105.875C130.289 105.838 130.477 105.8 130.626 105.838C130.702 105.838 130.739 105.838 130.776 105.875L135.127 108.388C135.202 108.463 135.239 108.5 135.239 108.575V108.688L135.276 109.363C135.276 109.4 135.239 109.438 135.202 109.475C135.164 109.513 135.164 109.513 135.127 109.55L123.877 116.038C123.726 116.15 123.427 116.15 123.239 116.038L118.927 113.525L118.814 113.413C118.777 113.413 118.777 113.375 118.777 113.338V112.55C118.777 112.475 118.851 112.438 118.927 112.363ZM116.264 110.488V110.525L116.301 111.275C116.301 111.313 116.264 111.388 116.226 111.388C116.189 111.425 116.189 111.463 116.152 111.463L111.764 113.975C111.614 114.088 111.314 114.088 111.164 113.975L106.814 111.463C106.739 111.425 106.664 111.35 106.664 111.275V110.525C106.664 110.563 106.664 110.6 106.701 110.638V110.525C106.701 110.45 106.739 110.375 106.814 110.338L111.164 107.788C111.351 107.713 111.652 107.713 111.801 107.788L116.152 110.338C116.226 110.375 116.264 110.413 116.264 110.488ZM110.189 100.475C110.114 100.438 110.077 100.363 110.077 100.288V99.5377C110.077 99.4628 110.114 99.3878 110.189 99.3502L114.539 96.8003C114.727 96.6879 115.027 96.7252 115.177 96.8003L119.526 99.3502C119.564 99.3878 119.601 99.3878 119.601 99.3878C119.639 99.4253 119.677 99.4628 119.677 99.5377V100.288C119.677 100.363 119.639 100.438 119.526 100.475L115.177 102.988C114.989 103.1 114.727 103.1 114.539 102.988L110.189 100.475ZM114.577 105.838L122.339 101.375L122.376 101.338C122.411 101.324 122.449 101.347 122.487 101.338C122.612 101.303 122.728 101.303 122.841 101.338C122.884 101.347 122.943 101.321 122.977 101.338L125.752 102.95L127.326 103.888C127.439 103.925 127.476 104 127.476 104.075V104.825C127.476 104.9 127.439 104.938 127.326 105.013L119.564 109.513C119.377 109.625 119.076 109.625 118.927 109.513L114.577 107C114.464 106.925 114.426 106.888 114.426 106.775V106.025C114.426 105.95 114.502 105.913 114.577 105.838ZM128.114 121.363L128.152 121.4V122.188C128.152 122.225 128.114 122.263 128.039 122.3C128.039 122.338 128.001 122.338 128.001 122.338V122.375L85.0639 147.163C84.8765 147.275 84.6139 147.275 84.4265 147.163L80.0766 144.65C80.0015 144.575 79.964 144.538 79.964 144.463V143.675C79.964 143.647 80.0061 143.602 80.0484 143.563C80.0718 143.54 80.039 143.507 80.0766 143.488L123.051 118.7C123.202 118.588 123.464 118.588 123.652 118.7L128.001 121.213C128.077 121.25 128.114 121.288 128.114 121.363ZM142.776 112.963V113.713C142.776 113.788 142.739 113.825 142.664 113.863C142.664 113.9 142.627 113.9 142.627 113.9L131.414 120.388C131.226 120.5 130.964 120.5 130.776 120.388L126.427 117.875C126.314 117.8 126.277 117.763 126.277 117.688V116.938L126.314 116.9C126.314 116.825 126.351 116.788 126.427 116.75L137.677 110.225C137.714 110.188 137.752 110.188 137.826 110.225C137.939 110.188 138.051 110.188 138.164 110.225C138.239 110.188 138.276 110.225 138.314 110.225L142.627 112.775C142.664 112.813 142.702 112.813 142.702 112.85C142.739 112.85 142.776 112.925 142.776 112.963ZM48.8765 135.725C48.8765 135.725 48.839 135.688 48.839 135.65V134.863C48.839 134.825 48.839 134.825 48.8765 134.788C48.8765 134.75 48.9516 134.713 48.9889 134.675L53.3391 132.163C53.5265 132.05 53.8266 132.05 53.9765 132.163L58.3266 134.675C58.4015 134.75 58.439 134.788 58.439 134.863V135.65C58.439 135.725 58.4015 135.763 58.3266 135.838L53.939 138.35C53.789 138.463 53.489 138.463 53.3391 138.35L48.9889 135.838C48.9141 135.8 48.8765 135.763 48.8765 135.725ZM50.6765 140.263L46.289 142.775C46.1391 142.85 45.8391 142.85 45.6889 142.775L41.3015 140.263V140.225C41.2264 140.15 41.1891 140.113 41.1891 140.075V139.288C41.1891 139.25 41.2264 139.213 41.2639 139.213C41.2264 139.175 41.2639 139.138 41.3015 139.1H41.339L45.6889 136.588C45.8766 136.475 46.1764 136.475 46.3266 136.588L50.6765 139.1C50.7515 139.138 50.8266 139.213 50.8266 139.288V140.038C50.8266 140.113 50.7891 140.188 50.6765 140.263ZM61.8889 142.813L54.0891 147.313C53.9014 147.388 53.6391 147.388 53.4514 147.313L51.8765 146.375L49.1391 144.8C49.1015 144.763 49.0265 144.725 49.0265 144.688C48.9889 144.65 48.9889 144.613 48.9889 144.613V143.825C48.9889 143.75 49.0265 143.713 49.1391 143.638L56.9016 139.138C57.0891 139.025 57.3516 139.025 57.539 139.138L59.1515 140.075L61.8889 141.65V141.688C61.964 141.725 62.0015 141.763 62.0015 141.838V142.625C62.0015 142.7 61.964 142.738 61.8889 142.813ZM64.1766 126.875C64.1391 126.838 64.1391 126.838 64.1391 126.8V126.013C64.1391 125.975 64.1766 125.9 64.289 125.863L68.6391 123.313C68.8266 123.238 69.1264 123.238 69.2766 123.313L73.6265 125.863C73.7391 125.9 73.7766 125.975 73.7391 126.05V126.125L73.7766 126.8C73.7766 126.875 73.7015 126.95 73.6265 126.988L69.239 129.538C69.0891 129.613 68.8266 129.613 68.6391 129.538L64.289 126.988C64.2515 126.95 64.1766 126.913 64.1766 126.875ZM56.6391 131.413C56.5265 131.338 56.4889 131.3 56.4889 131.225V130.475C56.4889 130.456 56.5223 130.445 56.5281 130.426C56.5242 130.38 56.5466 130.334 56.6391 130.288L61.0265 127.738C61.1764 127.625 61.439 127.663 61.6264 127.738L65.9765 130.288C66.1265 130.363 66.164 130.55 65.9765 130.625C66.0889 130.588 66.1265 130.513 66.1265 130.475V131.225C66.1265 131.3 66.0889 131.338 65.9765 131.413L61.6264 133.925L61.5891 133.963C61.5616 133.976 61.5129 133.954 61.479 133.963C61.354 133.998 61.2375 133.998 61.124 133.963C61.0764 133.953 61.0311 133.98 60.989 133.963L56.6391 131.413ZM74.0764 144.8L61.8889 151.85C61.7766 151.888 61.7015 151.888 61.5516 151.888C61.514 151.888 61.4765 151.888 61.4014 151.85C61.3266 151.888 61.289 151.888 61.2515 151.85L56.9016 149.3C56.8265 149.263 56.789 149.188 56.789 149.113V148.363C56.789 148.288 56.8265 148.213 56.9016 148.175L69.0891 141.125C69.239 141.088 69.4265 141.05 69.5766 141.088C69.6515 141.088 69.689 141.088 69.7265 141.125L74.0764 143.638C74.1515 143.713 74.2266 143.75 74.2266 143.825V144.613C74.2266 144.65 74.189 144.763 74.0764 144.8ZM69.356 137.545C69.3624 137.566 69.3889 137.578 69.3889 137.6V138.35C69.3889 138.425 69.3514 138.5 69.239 138.538L64.9264 141.088C64.739 141.163 64.4389 141.163 64.289 141.088L59.9391 138.538C59.8265 138.5 59.7889 138.425 59.7889 138.35V137.6C59.7889 137.525 59.8265 137.488 59.864 137.45C59.864 137.45 59.9016 137.413 59.9391 137.413L64.289 134.863C64.4764 134.788 64.739 134.788 64.9264 134.863L69.239 137.413H69.2766C69.3107 137.43 69.3091 137.469 69.3278 137.498C69.3372 137.513 69.3546 137.529 69.356 137.545ZM72.0891 136.55L67.7389 134.038C67.6641 133.963 67.6265 133.925 67.6265 133.85V133.063C67.6311 133.053 67.6172 133.035 67.6265 133.025C67.6265 132.988 67.6641 132.913 67.7389 132.875L72.1266 130.363C72.2765 130.288 72.5766 130.25 72.7265 130.363L77.0766 132.875C77.1515 132.913 77.2265 132.988 77.2265 133.063V133.85C77.2265 133.925 77.189 133.963 77.0766 134.038L72.7265 136.55C72.539 136.663 72.239 136.663 72.0891 136.55Z" fill="#1C2841"/>
<path d="M56.6393 131.412C56.5291 131.338 56.4923 131.301 56.4923 131.228V130.455C56.4923 130.492 56.5291 130.529 56.5657 130.529C56.4923 130.455 56.4923 130.345 56.6393 130.272L61.0151 127.734C61.1621 127.661 61.4563 127.661 61.6401 127.734L65.9791 130.272C66.1263 130.382 66.1631 130.529 65.9791 130.639C66.0895 130.603 66.1263 130.529 66.1263 130.455V131.228C66.1263 131.301 66.0895 131.338 65.9791 131.412L61.6033 133.949C61.4563 134.022 61.1621 134.022 60.9782 133.949L56.6393 131.412ZM64.2877 126.962C64.2141 126.926 64.1405 126.852 64.1405 126.815V126.043C64.1405 126.043 64.1405 126.043 64.1773 126.043C64.1773 125.97 64.2141 125.896 64.2877 125.859L68.6635 123.322C68.8105 123.212 69.1048 123.212 69.2886 123.322L73.6276 125.859C73.738 125.896 73.7746 125.97 73.738 126.043L73.7746 126.815C73.7746 126.889 73.7012 126.926 73.6276 126.999L69.2518 129.536C69.068 129.61 68.8105 129.61 68.6267 129.536L64.2877 126.962ZM48.9908 135.824C48.8806 135.787 48.8438 135.714 48.8438 135.64V134.868C48.8438 134.794 48.8806 134.758 48.9908 134.684L53.3666 132.147C53.5138 132.073 53.8078 132.073 53.9919 132.147L58.3308 134.684C58.4042 134.758 58.441 134.794 58.441 134.868V135.64C58.441 135.714 58.4042 135.787 58.3308 135.824L53.955 138.361C53.7712 138.435 53.5138 138.435 53.3298 138.361L48.9908 135.824ZM69.3254 137.7C69.3622 137.663 69.399 137.626 69.399 137.589V138.361C69.399 138.435 69.3622 138.472 69.2518 138.545L64.9128 141.082C64.729 141.156 64.4347 141.156 64.2877 141.082L59.9488 138.545C59.8384 138.472 59.8015 138.435 59.8015 138.361V137.589C59.8015 137.516 59.8384 137.442 59.912 137.405L64.2877 134.868C64.4716 134.758 64.729 134.758 64.9128 134.868L69.2518 137.405C69.399 137.479 69.399 137.589 69.3254 137.7ZM50.6824 140.237L46.3066 142.774C46.1228 142.847 45.8653 142.847 45.6815 142.774L41.3057 140.237C41.2321 140.2 41.1953 140.126 41.1953 140.09V139.281C41.1953 139.207 41.2321 139.17 41.3057 139.097L45.7183 136.596C45.8653 136.486 46.1596 136.486 46.3434 136.596L50.6824 139.097C50.756 139.17 50.7926 139.244 50.7926 139.281V140.053C50.7926 140.126 50.756 140.2 50.6824 140.237ZM61.8975 142.811L54.1021 147.297C53.9182 147.407 53.624 147.407 53.477 147.297L49.138 144.796C49.0276 144.723 48.9908 144.649 48.9908 144.613V143.84C48.9908 143.767 49.0276 143.693 49.138 143.656L56.9335 139.134C57.0805 139.023 57.3747 139.023 57.5586 139.134L61.8975 141.671C61.9711 141.707 62.0079 141.781 62.0079 141.855V142.627C62.0079 142.7 61.9711 142.737 61.8975 142.811ZM110.215 100.487C110.105 100.413 110.068 100.377 110.068 100.303V99.531C110.068 99.4574 110.105 99.3838 110.178 99.3472L114.554 96.81C114.738 96.6996 115.032 96.7364 115.179 96.81L119.555 99.3472C119.628 99.3838 119.665 99.4574 119.665 99.531V100.303C119.665 100.377 119.628 100.45 119.555 100.487L115.179 102.988C114.995 103.098 114.701 103.098 114.554 102.988L110.215 100.487ZM72.2302 140.457C72.12 140.421 72.0832 140.347 72.0832 140.274V139.538C72.0832 139.464 72.12 139.391 72.2302 139.317L76.606 136.817C76.7532 136.707 77.0472 136.707 77.2311 136.817L81.5703 139.317C81.6436 139.391 81.6805 139.464 81.6805 139.501V140.274C81.6805 140.347 81.6436 140.421 81.5703 140.457L77.1945 142.995C77.0104 143.068 76.7532 143.105 76.5692 142.995L72.2302 140.457ZM84.2177 138.582L79.8787 136.045C79.8051 135.971 79.7683 135.934 79.7683 135.861V135.089C79.7317 135.015 79.7683 134.979 79.8787 134.905L84.2545 132.404C84.4015 132.294 84.6957 132.294 84.8795 132.404L89.2185 134.905C89.2921 134.979 89.3289 135.015 89.3289 135.089V135.861C89.3289 135.934 89.2921 135.971 89.2185 136.045L84.8427 138.582C84.6589 138.656 84.4015 138.656 84.2177 138.582ZM72.0832 136.56L67.7442 134.022C67.6706 133.986 67.6338 133.912 67.6338 133.839V133.066C67.597 133.03 67.6338 132.956 67.7442 132.883L72.12 130.382C72.267 130.272 72.5613 130.272 72.7451 130.382L77.0841 132.883C77.1577 132.919 77.1945 132.993 77.1945 133.066V133.839C77.1945 133.912 77.1577 133.986 77.0841 134.022L72.7083 136.56C72.5245 136.67 72.2302 136.67 72.0832 136.56ZM87.2329 113.725C87.1593 113.688 87.1225 113.614 87.1225 113.541V112.805C87.1225 112.732 87.1593 112.658 87.2329 112.585L91.6087 110.084C91.7925 109.974 92.0868 109.974 92.2338 110.084L96.5727 112.585C96.6832 112.658 96.72 112.732 96.72 112.805V113.541C96.72 113.614 96.6832 113.688 96.6095 113.725L92.2338 116.262C92.05 116.372 91.7557 116.335 91.6087 116.262L87.2329 113.725ZM97.014 130.676C97.014 130.713 97.014 130.75 96.9774 130.787L97.014 131.448C97.014 131.522 96.9406 131.559 96.867 131.632L92.4912 134.133C92.3074 134.243 92.05 134.243 91.8661 134.133L87.5272 131.632C87.4167 131.559 87.3799 131.522 87.3799 131.448V130.676C87.3799 130.676 87.4167 130.676 87.4167 130.713C87.4167 130.639 87.4167 130.566 87.5272 130.492L91.903 127.955C92.0868 127.881 92.3442 127.881 92.528 127.955L96.867 130.492C96.9406 130.566 97.014 130.603 97.014 130.676ZM96.2051 116.814L100.544 119.351C100.618 119.424 100.655 119.461 100.655 119.535V120.307C100.655 120.38 100.618 120.417 100.507 120.491L96.1315 123.028C95.9845 123.101 95.6903 123.101 95.5065 123.028L91.1675 120.491C91.0939 120.454 91.0571 120.38 91.0571 120.307V119.535C91.0571 119.461 91.0939 119.424 91.1675 119.351L95.5801 116.814C95.7271 116.74 96.0213 116.74 96.2051 116.814ZM94.8814 109.312C94.8078 109.275 94.771 109.202 94.771 109.128V108.356C94.771 108.283 94.8078 108.246 94.8814 108.172L99.2572 105.635C99.441 105.562 99.6984 105.562 99.8822 105.672L104.221 108.172C104.332 108.246 104.368 108.319 104.368 108.393V109.128C104.368 109.202 104.332 109.275 104.258 109.312L99.8454 111.849C99.6984 111.96 99.4042 111.96 99.2204 111.849L94.8814 109.312ZM111.171 113.982L106.832 111.445C106.722 111.408 106.685 111.334 106.685 111.298V110.526C106.685 110.452 106.722 110.379 106.832 110.342L111.171 107.805C111.355 107.694 111.649 107.694 111.796 107.805L116.135 110.342C116.245 110.379 116.282 110.452 116.282 110.526V111.298C116.282 111.334 116.245 111.408 116.172 111.445L111.796 113.982C111.612 114.092 111.318 114.092 111.171 113.982ZM114.811 120.895L110.472 118.395C110.399 118.321 110.362 118.247 110.362 118.211V117.439C110.362 117.365 110.399 117.292 110.472 117.255L114.848 114.718C115.032 114.607 115.289 114.607 115.473 114.718L119.812 117.255C119.923 117.292 119.959 117.365 119.959 117.439V118.211C119.959 118.247 119.923 118.321 119.812 118.358L115.436 120.895C115.289 121.005 114.995 121.005 114.811 120.895ZM102.566 104.899C102.456 104.826 102.419 104.789 102.419 104.716V103.944C102.419 103.87 102.456 103.796 102.53 103.76L106.905 101.222C107.089 101.149 107.383 101.149 107.531 101.222L111.906 103.76C111.98 103.833 112.017 103.87 112.017 103.944V104.716C112.017 104.789 111.98 104.863 111.906 104.899L107.531 107.4C107.347 107.547 107.053 107.51 106.905 107.4L102.566 104.899ZM114.591 105.856L122.349 101.37C122.533 101.259 122.827 101.259 122.974 101.37L127.35 103.87C127.424 103.944 127.461 104.017 127.461 104.054V104.826C127.461 104.899 127.424 104.973 127.35 105.01L119.555 109.496C119.371 109.606 119.077 109.606 118.93 109.496L114.591 106.995C114.48 106.922 114.444 106.885 114.444 106.775V106.04C114.444 105.966 114.48 105.892 114.591 105.856ZM142.757 112.952V113.725C142.757 113.798 142.721 113.835 142.647 113.908L131.395 120.38C131.211 120.491 130.954 120.491 130.77 120.38L126.431 117.88C126.321 117.806 126.284 117.769 126.284 117.696V116.924C126.284 116.85 126.358 116.777 126.431 116.74L137.683 110.231C137.867 110.158 138.124 110.158 138.308 110.231L142.647 112.769C142.721 112.805 142.757 112.879 142.757 112.952ZM104.001 112.327L108.34 114.828C108.45 114.901 108.487 114.975 108.45 115.048L108.487 115.784C108.487 115.857 108.45 115.931 108.34 115.968L103.964 118.505C103.817 118.578 103.523 118.578 103.339 118.505L98.9998 115.968C98.9262 115.931 98.8525 115.857 98.8525 115.784V115.012C98.8525 114.938 98.9262 114.901 98.9998 114.828L103.376 112.327C103.559 112.217 103.817 112.217 104.001 112.327ZM80.7612 148.768L80.798 149.503C80.798 149.577 80.7244 149.65 80.651 149.687L69.399 156.195C69.215 156.306 68.9575 156.306 68.7737 156.195L64.4347 153.658C64.3246 153.621 64.2877 153.548 64.2877 153.511V152.702C64.2877 152.739 64.3246 152.739 64.3246 152.739C64.2877 152.665 64.3246 152.592 64.4347 152.518L75.6867 146.046C75.834 145.936 76.128 145.936 76.3118 146.046L80.651 148.547C80.7612 148.62 80.798 148.694 80.7612 148.768ZM71.8258 122.403L71.789 121.631C71.789 121.557 71.8626 121.483 71.936 121.447L76.3118 118.91C76.4958 118.799 76.7532 118.799 76.937 118.91L81.276 121.447C81.3862 121.52 81.423 121.594 81.3496 121.704C81.3862 121.667 81.423 121.631 81.423 121.631V122.403C81.423 122.476 81.3862 122.513 81.276 122.587L76.9002 125.087C76.7532 125.197 76.459 125.197 76.2752 125.087L71.936 122.55C71.8626 122.513 71.8258 122.439 71.8258 122.403ZM99.5144 129.72L95.1754 127.22C95.102 127.146 95.0652 127.109 95.0652 127.036L95.0284 126.264C95.0284 126.19 95.102 126.153 95.1754 126.08L99.5512 123.542C99.7352 123.469 99.9924 123.432 100.176 123.542L104.515 126.08C104.626 126.117 104.662 126.19 104.662 126.264V127.036C104.662 127.109 104.626 127.146 104.515 127.22L100.14 129.72C99.9924 129.83 99.6984 129.83 99.5144 129.72ZM118.93 112.364L130.145 105.892C130.329 105.782 130.586 105.782 130.77 105.892L135.109 108.393C135.219 108.466 135.256 108.54 135.256 108.613V109.349C135.256 109.422 135.219 109.496 135.146 109.533L123.857 116.041C123.71 116.152 123.416 116.152 123.232 116.041L118.93 113.504C118.819 113.467 118.783 113.394 118.783 113.32V112.548C118.783 112.475 118.819 112.438 118.93 112.364ZM107.163 125.308L102.824 122.807C102.75 122.734 102.677 122.697 102.677 122.623V121.851C102.677 121.888 102.75 121.925 102.787 121.998C102.677 121.888 102.677 121.741 102.824 121.667L107.2 119.13C107.383 119.02 107.641 119.02 107.825 119.13L112.164 121.667C112.237 121.741 112.311 121.778 112.311 121.851V122.587C112.311 122.697 112.274 122.734 112.164 122.807L107.788 125.308C107.604 125.418 107.347 125.418 107.163 125.308ZM88.3728 121.336L92.7118 123.874C92.8222 123.947 92.8222 124.021 92.8222 124.094C92.8222 124.057 92.8588 124.057 92.8588 124.057V124.793C92.8588 124.903 92.8222 124.94 92.7118 125.013L88.336 127.514C88.189 127.624 87.8948 127.624 87.711 127.514L83.372 125.013C83.2984 124.94 83.2248 124.903 83.2248 124.83V124.057C83.2248 123.984 83.2616 123.947 83.372 123.874L87.7478 121.336C87.9316 121.226 88.189 121.226 88.3728 121.336ZM80.5406 125.859L84.8795 128.36C85.0268 128.433 85.0268 128.544 84.9531 128.654C84.9899 128.617 85.0268 128.58 85.0268 128.544V129.316C85.0268 129.389 84.9899 129.463 84.8795 129.536L80.5406 132.037C80.3567 132.147 80.0625 132.147 79.9155 132.037L75.5765 129.536C75.4661 129.463 75.4293 129.389 75.4293 129.316V128.58C75.4293 128.507 75.4661 128.433 75.5765 128.36L79.9155 125.859C80.0993 125.749 80.3935 125.749 80.5406 125.859ZM128.012 121.226C128.086 121.263 128.122 121.3 128.122 121.373V122.182C128.122 122.219 128.086 122.292 128.012 122.366L85.0633 147.15C84.8795 147.26 84.5853 147.26 84.4383 147.15L80.0625 144.649C79.9889 144.576 79.9523 144.539 79.9523 144.465V143.693C79.9523 143.62 79.9889 143.546 80.0625 143.509L123.048 118.689C123.195 118.615 123.489 118.578 123.673 118.689L128.012 121.226ZM74.0688 144.796L61.8607 151.82C61.7137 151.93 61.4563 151.93 61.2357 151.82L56.8967 149.282C56.8231 149.246 56.7863 149.209 56.7863 149.135V148.363C56.7863 148.29 56.8231 148.216 56.8967 148.179L69.1048 141.119C69.2886 141.046 69.546 141.046 69.7298 141.119L74.0688 143.656C74.1424 143.73 74.216 143.767 74.216 143.84V144.613C74.216 144.649 74.1792 144.76 74.0688 144.796ZM79.5845 118.137C79.5111 118.1 79.4743 118.064 79.4743 117.953V117.218C79.4743 117.144 79.5111 117.108 79.5845 117.034L83.9602 114.497C84.1441 114.387 84.4383 114.387 84.5853 114.497L88.9245 117.034C89.0347 117.071 89.0715 117.144 89.0715 117.181V117.953C89.0715 118.027 89.0347 118.1 88.9245 118.137L84.5487 120.674C84.3647 120.785 84.1075 120.785 83.9234 120.674L79.5845 118.137Z" fill="#1C2841"/>
<path d="M110.195 99.3429C110.026 99.4407 110.025 99.6084 110.193 99.7062L114.545 102.235C114.713 102.333 115.003 102.333 115.172 102.235L119.54 99.7132C119.722 99.6084 119.711 99.4478 119.542 99.35L115.191 96.821C115.022 96.7232 114.745 96.7162 114.563 96.821L110.195 99.3429ZM102.548 103.758C102.366 103.863 102.378 104.024 102.546 104.121L106.898 106.65C107.066 106.748 107.343 106.755 107.525 106.65L111.893 104.128C112.062 104.031 112.063 103.863 111.895 103.765L107.543 101.236C107.375 101.138 107.085 101.138 106.916 101.236L102.548 103.758ZM94.8886 108.18C94.7192 108.278 94.7183 108.446 94.8866 108.543L99.2383 111.072C99.4066 111.17 99.6961 111.17 99.8655 111.072L104.246 108.544C104.415 108.446 104.404 108.285 104.236 108.187L99.8839 105.658C99.7156 105.56 99.4382 105.553 99.2689 105.651L94.8886 108.18ZM114.585 105.847C114.403 105.952 114.403 106.105 114.583 106.21L118.923 108.732C119.091 108.83 119.368 108.837 119.55 108.732L127.33 104.24C127.512 104.135 127.5 103.975 127.332 103.877L122.992 101.355C122.812 101.25 122.547 101.25 122.365 101.355L114.585 105.847ZM106.817 110.332C106.647 110.43 106.634 110.59 106.815 110.695L111.154 113.217C111.323 113.315 111.612 113.315 111.782 113.217L116.15 110.695C116.331 110.59 116.32 110.43 116.152 110.332L111.812 107.81C111.632 107.705 111.366 107.705 111.185 107.81L106.817 110.332ZM99 114.845C98.8306 114.943 98.8176 115.103 98.998 115.208L103.338 117.73C103.506 117.828 103.795 117.828 103.965 117.73L108.345 115.201C108.514 115.103 108.503 114.943 108.335 114.845L103.995 112.323C103.815 112.218 103.55 112.218 103.38 112.316L99 114.845ZM91.1833 119.358C91.014 119.456 91.0009 119.616 91.1813 119.721L95.521 122.243C95.6893 122.341 95.9788 122.341 96.1482 122.243L100.528 119.714C100.698 119.616 100.699 119.449 100.53 119.351L96.1907 116.829C96.0104 116.724 95.7329 116.731 95.5636 116.829L91.1833 119.358ZM83.3666 123.871C83.1973 123.969 83.1843 124.129 83.3647 124.234L87.7044 126.756C87.8727 126.854 88.1621 126.854 88.3315 126.756L92.7118 124.227C92.8812 124.129 92.8821 123.962 92.7138 123.864L88.374 121.342C88.1937 121.237 87.9163 121.244 87.7469 121.342L83.3666 123.871ZM75.5621 128.377C75.3806 128.482 75.3797 128.635 75.56 128.74L79.8998 131.262C80.0681 131.36 80.3454 131.367 80.5269 131.262L84.8951 128.74C85.0645 128.642 85.0655 128.475 84.8972 128.377L80.5574 125.855C80.3771 125.75 80.0996 125.757 79.9302 125.855L75.5621 128.377ZM67.7455 132.89C67.564 132.995 67.5631 133.148 67.7434 133.253L72.0832 135.775C72.2515 135.873 72.5288 135.88 72.7103 135.775L77.0784 133.253C77.2479 133.155 77.2488 132.988 77.0805 132.89L72.7407 130.368C72.5604 130.263 72.283 130.27 72.1136 130.368L67.7455 132.89ZM59.9288 137.403C59.7473 137.507 59.7464 137.661 59.9267 137.766L64.2665 140.288C64.4348 140.386 64.7121 140.393 64.8936 140.288L69.2618 137.766C69.4433 137.661 69.4322 137.501 69.2639 137.403L64.9241 134.881C64.7438 134.776 64.4785 134.776 64.2969 134.881L59.9288 137.403ZM87.2413 112.595C87.0599 112.7 87.071 112.861 87.2393 112.959L91.5911 115.488C91.7594 115.585 92.0368 115.592 92.2182 115.488L96.5864 112.966C96.7679 112.861 96.7567 112.7 96.5884 112.602L92.2366 110.073C92.0683 109.976 91.791 109.969 91.6095 110.073L87.2413 112.595ZM79.582 117.017C79.4125 117.115 79.4116 117.283 79.5799 117.381L83.9317 119.91C84.1 120.008 84.3894 120.008 84.5589 119.91L88.9391 117.381C89.1085 117.283 89.1095 117.115 88.9412 117.018L84.5894 114.489C84.4211 114.391 84.1316 114.391 83.9622 114.489L79.582 117.017ZM71.9347 121.433C71.7653 121.53 71.7644 121.698 71.9327 121.796L76.2845 124.325C76.4528 124.423 76.7422 124.423 76.9116 124.325L81.2797 121.803C81.4612 121.698 81.4501 121.537 81.2818 121.44L76.93 118.911C76.7617 118.813 76.4843 118.806 76.3028 118.911L71.9347 121.433ZM64.2874 125.848C64.106 125.953 64.1172 126.113 64.2855 126.211L68.6372 128.74C68.8055 128.838 69.0829 128.845 69.2643 128.74L73.6325 126.218C73.8018 126.12 73.8028 125.953 73.6345 125.855L69.2828 123.326C69.1145 123.228 68.825 123.228 68.6556 123.326L64.2874 125.848ZM56.6281 130.27C56.4587 130.368 56.4578 130.535 56.6261 130.633L60.9778 133.162C61.1461 133.26 61.4356 133.26 61.605 133.162L65.9852 130.633C66.1546 130.535 66.1434 130.375 65.9751 130.277L61.6234 127.748C61.4551 127.65 61.1777 127.643 61.0083 127.741L56.6281 130.27ZM48.9809 134.685C48.7994 134.79 48.8105 134.951 48.9788 135.048L53.3306 137.577C53.4989 137.675 53.7762 137.682 53.9578 137.577L58.3258 135.055C58.5074 134.951 58.4962 134.79 58.3279 134.692L53.9761 132.163C53.8078 132.065 53.5305 132.058 53.349 132.163L48.9809 134.685ZM41.3215 139.107C41.1521 139.205 41.1511 139.373 41.3194 139.47L45.6712 141.999C45.8395 142.097 46.129 142.097 46.2984 141.999L50.6786 139.471C50.848 139.373 50.849 139.205 50.6807 139.107L46.3289 136.578C46.1606 136.48 45.8711 136.48 45.7017 136.578L41.3215 139.107ZM49.1234 143.641C48.954 143.739 48.941 143.9 49.1214 144.004L53.4611 146.526C53.6294 146.624 53.9189 146.624 54.0883 146.526L61.8808 142.027C62.0622 141.923 62.051 141.762 61.8827 141.664L57.543 139.142C57.3627 139.037 57.0973 139.037 56.9159 139.142L49.1234 143.641ZM118.914 112.372C118.745 112.47 118.732 112.63 118.912 112.735L123.252 115.257C123.432 115.362 123.71 115.355 123.879 115.257L135.12 108.767C135.302 108.662 135.302 108.509 135.122 108.404L130.782 105.882C130.602 105.777 130.337 105.777 130.155 105.882L118.914 112.372ZM110.48 117.241C110.311 117.339 110.298 117.5 110.478 117.604L114.818 120.126C114.998 120.231 115.276 120.224 115.445 120.126L119.826 117.598C119.995 117.5 119.996 117.346 119.815 117.241L115.476 114.719C115.295 114.614 115.03 114.614 114.861 114.712L110.48 117.241ZM102.833 121.656C102.652 121.761 102.651 121.915 102.831 122.02L107.171 124.542C107.351 124.646 107.617 124.646 107.798 124.542L112.166 122.02C112.348 121.915 112.349 121.761 112.168 121.656L107.828 119.134C107.648 119.03 107.383 119.03 107.201 119.134L102.833 121.656ZM95.1738 126.078C95.0044 126.176 94.9914 126.337 95.1718 126.442L99.5115 128.964C99.6918 129.069 99.9692 129.062 100.139 128.964L104.519 126.435C104.688 126.337 104.701 126.176 104.521 126.072L100.181 123.55C100.001 123.445 99.7234 123.452 99.554 123.55L95.1738 126.078ZM87.5266 130.494C87.3571 130.591 87.3442 130.752 87.5245 130.857L91.8643 133.379C92.0446 133.484 92.322 133.477 92.4914 133.379L96.8595 130.857C97.041 130.752 97.0419 130.598 96.8616 130.494L92.5218 127.972C92.3415 127.867 92.0762 127.867 91.8947 127.972L87.5266 130.494ZM79.8793 134.909C79.6978 135.014 79.697 135.167 79.8773 135.272L84.217 137.794C84.3973 137.899 84.6627 137.899 84.8441 137.794L89.2123 135.272C89.3816 135.174 89.3946 135.014 89.2143 134.909L84.8746 132.387C84.6943 132.282 84.4168 132.289 84.2474 132.387L79.8793 134.909ZM72.2199 139.331C72.0505 139.429 72.0376 139.589 72.2179 139.694L76.5576 142.216C76.7379 142.321 77.0153 142.314 77.1848 142.216L81.565 139.687C81.7344 139.589 81.7353 139.436 81.5549 139.331L77.2152 136.809C77.0349 136.704 76.7695 136.704 76.6002 136.802L72.2199 139.331ZM56.9133 148.168C56.7439 148.266 56.7309 148.427 56.9113 148.531L61.251 151.053C61.4313 151.158 61.7088 151.151 61.8782 151.053L74.063 144.019C74.2445 143.914 74.2453 143.76 74.065 143.655L69.7253 141.133C69.5449 141.029 69.2796 141.029 69.0981 141.133L56.9133 148.168ZM126.428 116.738C126.258 116.836 126.245 116.997 126.426 117.102L130.765 119.624C130.946 119.728 131.223 119.721 131.392 119.624L142.633 113.134C142.815 113.029 142.816 112.875 142.635 112.77L138.296 110.248C138.115 110.143 137.85 110.143 137.669 110.248L126.428 116.738ZM128.002 121.582L85.0424 146.387C84.8678 146.482 84.5981 146.498 84.4076 146.387L80.0751 143.863C79.8847 143.768 79.9006 143.593 80.0751 143.498L123.035 118.694C123.209 118.598 123.479 118.583 123.67 118.694L128.002 121.217C128.192 121.328 128.177 121.487 128.002 121.582Z" fill="#4D5C75"/>
<path d="M50.6736 140.247L46.2964 142.768C46.14 142.866 45.847 142.866 45.671 142.768L41.3134 140.247C41.2351 140.189 41.1961 140.13 41.1961 140.071V139.29C41.1961 139.348 41.2351 139.427 41.3134 139.466L45.671 142.006C45.847 142.104 46.1204 142.104 46.2964 142.006L50.6736 139.466C50.7713 139.427 50.8104 139.348 50.8104 139.29V140.052C50.8104 140.13 50.7713 140.189 50.6736 140.247ZM48.9735 135.811C48.8954 135.772 48.8563 135.714 48.8563 135.636V134.873C48.8563 134.932 48.8954 134.991 48.9735 135.049L53.3312 137.57C53.5071 137.668 53.7807 137.687 53.9565 137.57L58.3338 135.049C58.412 135.01 58.451 134.932 58.451 134.873V135.655C58.451 135.714 58.412 135.772 58.3338 135.831L53.9565 138.352C53.7807 138.45 53.5071 138.45 53.3312 138.352L48.9735 135.811ZM64.2939 126.979C64.1961 126.94 64.1571 126.862 64.1571 126.803V126.021C64.1571 126.099 64.1961 126.158 64.2939 126.217L68.6321 128.737C68.808 128.835 69.0815 128.835 69.2574 128.737L73.6346 126.217C73.7129 126.178 73.7519 126.099 73.7519 126.041L73.7714 126.803C73.7714 126.881 73.7129 126.94 73.6346 126.998L69.2574 129.519C69.0815 129.617 68.808 129.617 68.6321 129.519L64.2939 126.979ZM80.5328 131.258L84.8904 128.737C84.9881 128.698 85.0272 128.62 85.0272 128.562V129.324C85.0272 129.402 84.9881 129.46 84.8904 129.519L80.5328 132.04C80.3568 132.138 80.0638 132.138 79.9074 132.04L75.5692 129.519C75.4715 129.46 75.4324 129.402 75.4324 129.324V128.562C75.4324 128.62 75.4715 128.679 75.5692 128.737L79.9074 131.258C80.0638 131.356 80.3373 131.376 80.5328 131.258ZM80.7672 148.767L80.7868 149.51C80.7868 149.588 80.7281 149.647 80.65 149.686L69.3942 156.193C69.2183 156.291 68.9448 156.291 68.7689 156.193L64.4307 153.672C64.3329 153.614 64.2939 153.555 64.2939 153.496V152.715C64.2939 152.773 64.3329 152.851 64.4307 152.891L68.7689 155.411C68.9448 155.529 69.2183 155.509 69.3942 155.411L80.65 148.924C80.7086 148.865 80.7672 148.826 80.7672 148.767ZM79.5753 118.146C79.497 118.107 79.4579 118.048 79.4579 117.97V117.208C79.4579 117.267 79.497 117.325 79.5753 117.384L83.9329 119.905C84.1087 120.003 84.3823 120.003 84.5583 119.905L88.9355 117.384C89.0332 117.325 89.0723 117.267 89.0723 117.189V117.97C89.0723 118.029 89.0332 118.107 88.9355 118.146L84.5583 120.686C84.3823 120.784 84.1087 120.784 83.9329 120.686L79.5753 118.146ZM56.6337 131.415C56.536 131.356 56.4969 131.297 56.4969 131.219V130.457C56.4969 130.516 56.536 130.594 56.6337 130.633L60.9719 133.154C61.1477 133.251 61.4409 133.251 61.5972 133.154L65.994 130.633C66.0722 130.594 66.1113 130.516 66.1113 130.457V131.239C66.1113 131.297 66.0722 131.356 65.994 131.415L61.6168 133.935C61.4409 134.033 61.1477 134.033 60.9719 133.935L56.6337 131.415ZM72.2277 140.462C72.1299 140.423 72.0909 140.345 72.0909 140.286V139.524C72.0909 139.583 72.1299 139.642 72.2081 139.7L76.5658 142.221C76.7417 142.319 77.0152 142.319 77.1912 142.221L81.5684 139.681C81.6466 139.642 81.6856 139.583 81.6856 139.505V140.286C81.6856 140.345 81.6466 140.404 81.5684 140.462L77.1912 142.983C77.0152 143.081 76.7417 143.1 76.5658 142.983L72.2277 140.462ZM71.8173 122.387L71.7977 121.624C71.7977 121.683 71.8564 121.742 71.9345 121.8L76.2922 124.321C76.4486 124.419 76.7417 124.419 76.9175 124.321L81.2753 121.8C81.373 121.742 81.412 121.683 81.412 121.624V122.387C81.412 122.465 81.373 122.523 81.2753 122.582L76.9175 125.103C76.7417 125.2 76.4486 125.2 76.2922 125.103L71.9345 122.562C71.8564 122.523 71.8173 122.445 71.8173 122.387ZM64.8997 140.286L69.2574 137.766C69.3551 137.707 69.3942 137.648 69.3942 137.59V138.352C69.3942 138.43 69.3551 138.489 69.2574 138.547L64.8997 141.068C64.7238 141.166 64.4307 141.166 64.2744 141.068L59.9362 138.547C59.8385 138.489 59.7994 138.43 59.7994 138.352V137.59C59.7994 137.648 59.8385 137.707 59.9362 137.766L64.2744 140.286C64.4307 140.384 64.7042 140.384 64.8997 140.286ZM61.8903 142.807L54.0933 147.302C53.9175 147.399 53.6244 147.399 53.468 147.302L49.1299 144.781C49.0322 144.722 48.9931 144.664 48.9931 144.605V143.823C48.9931 143.882 49.0322 143.96 49.1299 143.999L53.468 146.52C53.6244 146.618 53.9175 146.618 54.0933 146.52L61.8903 142.025C61.9685 141.967 62.0075 141.908 62.0075 141.85V142.612C62.0075 142.69 61.9685 142.749 61.8903 142.807ZM72.0909 136.554L67.7527 134.033C67.655 133.974 67.6159 133.916 67.6159 133.838V133.076C67.6159 133.134 67.655 133.193 67.7527 133.251L72.0909 135.772C72.2473 135.87 72.5208 135.87 72.7162 135.772L77.0739 133.251C77.1716 133.212 77.2107 133.134 77.2107 133.076V133.838C77.2107 133.916 77.1716 133.974 77.0739 134.033L72.7162 136.554C72.5403 136.652 72.2473 136.652 72.0909 136.554ZM74.0646 144.8L61.8707 151.835C61.7145 151.933 61.4409 151.933 61.2455 151.835L56.9073 149.295C56.8292 149.256 56.79 149.197 56.79 149.119V148.357C56.79 148.416 56.8292 148.474 56.9073 148.533L61.2455 151.054C61.4409 151.151 61.7145 151.151 61.8707 151.054L74.0646 144.019C74.1623 143.96 74.2014 143.902 74.2014 143.843V144.605C74.2014 144.664 74.1623 144.742 74.0646 144.8ZM84.226 138.567L79.8879 136.046C79.7902 135.987 79.7511 135.929 79.7511 135.87V135.088C79.7511 135.147 79.7902 135.225 79.8683 135.264L84.226 137.785C84.4019 137.902 84.6559 137.902 84.8513 137.785L89.2091 135.264C89.3068 135.225 89.3459 135.147 89.3459 135.088V135.87C89.3459 135.929 89.3068 135.987 89.2091 136.046L84.8513 138.567C84.6559 138.664 84.4019 138.664 84.226 138.567ZM94.8956 109.313C94.7979 109.274 94.7588 109.196 94.7588 109.138V108.356C94.7588 108.434 94.7979 108.493 94.8956 108.551L99.2338 111.072C99.4096 111.17 99.7028 111.17 99.859 111.072L104.236 108.551C104.334 108.493 104.373 108.434 104.373 108.375V109.138C104.373 109.216 104.334 109.274 104.256 109.313L99.859 111.854C99.7028 111.952 99.4096 111.952 99.2338 111.854L94.8956 109.313ZM107.168 125.318L102.829 122.797C102.751 122.738 102.693 122.68 102.693 122.621V121.839C102.693 121.898 102.751 121.976 102.829 122.015L107.168 124.536C107.343 124.653 107.617 124.653 107.793 124.536L112.17 122.015C112.248 121.976 112.307 121.898 112.307 121.839V122.602C112.307 122.68 112.268 122.738 112.17 122.797L107.793 125.318C107.617 125.415 107.363 125.415 107.168 125.318ZM91.8667 134.15L87.5285 131.63C87.4308 131.571 87.3918 131.512 87.3918 131.454V130.672C87.3918 130.75 87.4308 130.809 87.5285 130.848L91.8667 133.388C92.0425 133.486 92.3161 133.486 92.492 133.388L96.8693 130.848C96.9278 130.809 96.9865 130.75 96.9865 130.692L97.0061 131.454C97.0061 131.512 96.9474 131.571 96.8693 131.63L92.492 134.15C92.3161 134.248 92.0425 134.248 91.8667 134.15ZM96.1462 122.25L100.523 119.709C100.621 119.67 100.66 119.592 100.66 119.534V120.296C100.66 120.374 100.621 120.432 100.523 120.491L96.1462 123.012C95.9899 123.11 95.6968 123.11 95.5209 123.012L91.1827 120.491C91.1045 120.452 91.046 120.374 91.046 120.315V119.534C91.046 119.612 91.085 119.67 91.1827 119.729L95.5209 122.25C95.6968 122.348 95.9703 122.348 96.1462 122.25ZM88.3297 126.764L92.7069 124.223C92.8046 124.184 92.8437 124.106 92.8437 124.048V124.81C92.8437 124.888 92.8046 124.946 92.7069 125.005L88.3297 127.526C88.1733 127.624 87.8803 127.624 87.7044 127.526L83.3661 125.005C83.288 124.946 83.2295 124.888 83.2295 124.829V124.048C83.2295 124.126 83.2685 124.184 83.3661 124.243L87.7044 126.764C87.8803 126.862 88.1538 126.862 88.3297 126.764ZM99.5073 129.734L95.1692 127.213C95.0909 127.155 95.0519 127.096 95.0519 127.037L95.0324 126.256C95.0324 126.334 95.0909 126.392 95.1692 126.451L99.5073 128.972C99.6832 129.07 99.9762 129.07 100.133 128.972L104.51 126.432C104.608 126.392 104.647 126.314 104.647 126.256V127.018C104.647 127.096 104.608 127.155 104.529 127.213L100.133 129.734C99.9762 129.832 99.7028 129.832 99.5073 129.734ZM102.556 104.897C102.458 104.838 102.419 104.78 102.419 104.721V103.94C102.419 103.998 102.458 104.076 102.536 104.115L106.894 106.656C107.07 106.753 107.343 106.753 107.519 106.656L111.897 104.135C111.975 104.076 112.014 104.018 112.014 103.94V104.721C112.014 104.78 111.975 104.858 111.897 104.897L107.519 107.418C107.343 107.535 107.07 107.516 106.894 107.418L102.556 104.897ZM87.2354 113.73C87.1572 113.691 87.1182 113.612 87.1182 113.554V112.772C87.1182 112.85 87.1572 112.909 87.2354 112.968L91.5931 115.489C91.769 115.586 92.0425 115.586 92.2184 115.489L96.5956 112.968C96.6739 112.909 96.7129 112.85 96.7129 112.792V113.554C96.7129 113.612 96.6739 113.691 96.5956 113.73L92.2184 116.251C92.0425 116.368 91.769 116.348 91.5931 116.251L87.2354 113.73ZM103.963 117.736L108.34 115.195C108.399 115.156 108.457 115.117 108.457 115.059L108.477 115.801C108.477 115.86 108.438 115.918 108.34 115.977L103.963 118.498C103.806 118.596 103.513 118.596 103.337 118.498L98.9992 115.977C98.9211 115.938 98.8625 115.86 98.8625 115.801V115.02C98.8625 115.098 98.9015 115.156 98.9992 115.215L103.337 117.736C103.513 117.833 103.787 117.833 103.963 117.736ZM110.079 100.305L110.06 99.5232C110.06 99.6014 110.118 99.66 110.196 99.6991L114.554 102.239C114.71 102.337 115.004 102.337 115.179 102.239L119.537 99.7187C119.635 99.66 119.674 99.6014 119.674 99.5232V100.305C119.674 100.364 119.635 100.442 119.537 100.481L115.179 103.002C115.004 103.099 114.71 103.099 114.554 103.002L110.196 100.481C110.118 100.422 110.079 100.364 110.079 100.305ZM111.154 113.984L106.816 111.463C106.738 111.424 106.679 111.346 106.679 111.287V110.525C106.679 110.584 106.718 110.642 106.816 110.701L111.154 113.222C111.33 113.319 111.603 113.319 111.779 113.222L116.156 110.701C116.235 110.642 116.274 110.584 116.274 110.505L116.293 111.287C116.293 111.346 116.235 111.424 116.156 111.463L111.779 113.984C111.623 114.081 111.33 114.081 111.154 113.984ZM127.999 121.585C128.096 121.527 128.135 121.468 128.135 121.39V122.172C128.135 122.23 128.096 122.308 127.999 122.348L85.0468 147.165C84.8709 147.263 84.5973 147.263 84.4215 147.165L80.0638 144.644C79.9855 144.586 79.9464 144.527 79.9464 144.449V143.687C79.9464 143.745 79.9855 143.823 80.0638 143.862L84.4019 146.383C84.5973 146.501 84.8709 146.481 85.0468 146.383L127.999 121.585ZM114.828 120.901L110.489 118.381C110.392 118.322 110.353 118.263 110.353 118.205V117.423C110.353 117.482 110.392 117.56 110.47 117.599L114.828 120.12C115.004 120.237 115.277 120.217 115.453 120.12L119.83 117.599C119.908 117.54 119.948 117.482 119.948 117.423V118.205C119.948 118.263 119.908 118.322 119.83 118.361L115.453 120.901C115.277 120.999 115.004 120.999 114.828 120.901ZM119.557 108.727L127.334 104.233C127.412 104.194 127.471 104.115 127.471 104.057V104.838C127.471 104.897 127.432 104.956 127.334 105.014L119.557 109.509C119.361 109.607 119.088 109.607 118.931 109.509L114.593 106.988C114.496 106.929 114.456 106.871 114.456 106.793V106.03C114.456 106.089 114.496 106.167 114.574 106.206L118.931 108.727C119.088 108.825 119.361 108.844 119.557 108.727ZM123.875 115.254L135.112 108.766C135.209 108.708 135.248 108.649 135.248 108.59L135.268 109.353C135.268 109.431 135.209 109.489 135.131 109.548L123.875 116.036C123.719 116.133 123.426 116.133 123.25 116.036L118.912 113.515C118.834 113.456 118.775 113.398 118.775 113.319V112.557C118.775 112.616 118.834 112.675 118.912 112.733L123.25 115.254C123.426 115.371 123.719 115.352 123.875 115.254ZM142.772 112.948V113.73C142.772 113.788 142.733 113.847 142.635 113.906L131.399 120.393C131.223 120.491 130.949 120.491 130.773 120.393L126.435 117.872C126.338 117.814 126.298 117.755 126.298 117.697V116.915C126.298 116.993 126.338 117.052 126.435 117.11L130.773 119.631C130.949 119.729 131.223 119.729 131.399 119.631L142.635 113.124C142.733 113.085 142.772 113.007 142.772 112.948Z" fill="#1C2841"/>
<path d="M64.4267 152.534C64.2573 152.632 64.2443 152.793 64.4247 152.898L68.7644 155.42C68.9447 155.525 69.2222 155.518 69.3916 155.42L80.6447 148.923C80.814 148.825 80.827 148.664 80.6467 148.559L76.307 146.038C76.1266 145.933 75.8492 145.94 75.6798 146.038L64.4267 152.534Z" fill="#4D5C75"/>
<path d="M111.587 92.3922C113.203 91.4588 115.834 91.4588 117.44 92.3922L150.979 111.883C152.586 112.817 152.577 114.34 150.96 115.274L72.3874 160.638C70.7707 161.571 68.1405 161.571 66.5343 160.638L32.9948 141.147C31.3886 140.213 31.3971 138.69 33.0138 137.756L111.587 92.3922ZM67.8537 159.876C68.7395 160.391 70.185 160.391 71.0765 159.876L149.649 114.512C150.541 113.997 150.546 113.16 149.66 112.645L116.12 93.154C115.235 92.6393 113.789 92.6392 112.898 93.154L34.3247 138.518C33.4332 139.033 33.4284 139.87 34.3142 140.385L67.8537 159.876Z" fill="#DDDDDD"/>
<path d="M133.446 146.48C133.294 146.785 133.091 147.038 132.786 147.241L112.841 158.813C111.775 159.473 110.405 159.473 109.339 158.813L96.6509 151.504C96.2956 151.302 96.0927 151.048 95.9403 150.743C95.5853 149.982 95.7882 148.967 96.6509 148.51L116.596 136.939C117.662 136.279 118.982 136.279 120.047 136.939L132.786 144.247C133.598 144.704 133.801 145.719 133.446 146.48Z" fill="#B0B8CF"/>
<path d="M133.446 146.48C133.294 146.785 133.091 147.038 132.786 147.241L112.841 158.813C111.775 159.473 110.405 159.473 109.339 158.813L96.6509 151.504C96.2956 151.302 96.0927 151.048 95.9402 150.743C96.0418 150.388 96.2955 150.134 96.6509 149.931L116.596 138.36C117.662 137.7 118.982 137.7 120.047 138.36L132.786 145.668C133.142 145.871 133.344 146.125 133.446 146.48Z" fill="#D3D3D3"/>
<path d="M35.998 131.542C36.1704 131.44 36.4055 131.456 36.672 131.605C37.2285 131.926 37.6518 132.71 37.6518 133.337L115.009 88.5991C115.009 87.972 114.585 87.1882 114.037 86.8747C113.77 86.7179 113.527 86.7101 113.355 86.812L35.998 131.542Z" fill="#101C32"/>
<path d="M36.6748 131.606C36.1293 131.291 35.6974 131.578 35.6956 132.205L37.6523 133.334C37.6541 132.707 37.2252 131.924 36.6748 131.606Z" fill="#4D5C75"/>
<path d="M115.159 17.97L115.147 17.985V17.9775L115.159 17.97Z" fill="white"/>
<path d="M87.0413 96.51L85.395 95.55L85.32 69.375L86.97 70.335L87.0413 96.51Z" fill="#DEDFFB"/>
<path d="M86.97 70.335L85.32 69.375L113.145 53.31L114.795 54.27L86.97 70.335Z" fill="#F3F1FC"/>
<path d="M114.795 54.27L114.87 80.4413L87.0413 96.51L86.97 70.335L114.795 54.27Z" fill="white"/>
<path d="M55.4588 114.742L53.8088 113.786L53.7375 87.6113L55.3838 88.5712L55.4588 114.742Z" fill="#DEDFFB"/>
<path d="M55.3838 88.5712L53.7375 87.6113L81.57 71.5425L83.2163 72.5025L55.3838 88.5712Z" fill="#F3F1FC"/>
<path d="M83.2163 72.5025L83.2913 98.6738L55.4587 114.743L55.3838 88.5713L83.2163 72.5025Z" fill="white"/>
<path d="M23.865 132.986L22.215 132.026L22.14 105.851L23.79 106.811L23.865 132.986Z" fill="#DEDFFB"/>
<path d="M23.79 106.811L22.14 105.851L49.9725 89.7825L51.6225 90.7425L23.79 106.811Z" fill="#F3F1FC"/>
<path d="M51.6225 90.7425L51.6975 116.917L23.865 132.986L23.79 106.811L51.6225 90.7425Z" fill="white"/>
<path d="M23.7787 101.003L22.1325 100.042L22.0575 73.8675L23.7075 74.8275L23.7787 101.003Z" fill="#DEDFFB"/>
<path d="M23.7075 74.8275L22.0575 73.8675L49.89 57.7988L51.54 58.7588L23.7075 74.8275Z" fill="#F3F1FC"/>
<path d="M51.54 58.7588L51.6112 84.9338L23.7787 101.003L23.7075 74.8275L51.54 58.7588Z" fill="white"/>
<path d="M55.3762 82.7588L53.7262 81.8025L53.6512 55.6275L55.3012 56.5875L55.3762 82.7588Z" fill="#DEDFFB"/>
<path d="M55.3012 56.5875L53.6512 55.6275L81.48 39.5625L83.1262 40.5188L55.3012 56.5875Z" fill="#F3F1FC"/>
<path d="M83.1262 40.5188L83.2012 66.6938L55.3762 82.7588L55.3012 56.5875L83.1262 40.5188Z" fill="white"/>
<path d="M86.9587 64.5263L85.3088 63.5663L85.2337 37.3913L86.8838 38.3513L86.9587 64.5263Z" fill="#DEDFFB"/>
<path d="M86.8838 38.3513L85.2337 37.3913L113.066 21.3225L114.716 22.2825L86.8838 38.3513Z" fill="#F3F1FC"/>
<path d="M114.716 22.2825L114.791 48.4575L86.9588 64.5263L86.8838 38.3513L114.716 22.2825Z" fill="white"/>
<path d="M36.6552 77.7827C36.6552 78.811 35.9413 80.0673 35.0418 80.5815C34.1566 81.0953 33.4284 80.6815 33.4284 79.6532C33.4141 78.6253 34.1423 77.3833 35.0418 76.8548C35.927 76.341 36.6552 76.7551 36.6552 77.7827Z" fill="#FFD06C"/>
<path d="M49.77 80.7225L33.36 90.1987L25.5488 94.7062L31.9425 81.8625L35.6963 85.0275L41.5275 72.1163L49.77 80.7225Z" fill="#78E75A"/>
<path d="M69.3174 85.8021C73.0753 83.6325 76.1317 85.3742 76.144 89.6948C76.1562 94.013 73.1196 99.2725 69.3617 101.442C65.6038 103.612 62.5452 101.871 62.533 97.5531C62.5207 93.2326 65.5594 87.9718 69.3174 85.8021ZM67.4508 99.1866L73.6102 91.1577L67.4255 90.2533L67.4508 99.1866Z" fill="#F45170"/>
<path d="M67.425 90.255L73.6087 91.1588L67.4512 99.1875L67.425 90.255Z" fill="#FDFEFE"/>
<path d="M102.839 46.8722C103.002 46.7783 103.132 46.8521 103.132 47.0391L103.14 49.6506C103.14 49.8376 103.011 50.0604 102.849 50.1544L98.8364 52.4709C98.6737 52.5649 98.5442 52.4911 98.5436 52.3041L98.5362 49.6925C98.5357 49.5055 98.6644 49.2827 98.8271 49.1887L102.839 46.8722Z" fill="#DBA660"/>
<path d="M101.449 43.4512L101.46 47.6625L100.207 48.3862L100.196 44.175L101.449 43.4512Z" fill="#C9CEE2"/>
<path d="M109.899 42.7965C110.056 42.7057 110.191 42.7763 110.192 42.9633L110.199 45.5748C110.2 45.7618 110.065 45.9879 109.908 46.0786L105.896 48.3951C105.733 48.4891 105.604 48.4153 105.603 48.2283L105.596 45.6168C105.595 45.4298 105.724 45.2069 105.887 45.113L109.899 42.7965Z" fill="#78E75A"/>
<path d="M102.803 34.1047C102.966 34.0108 103.095 34.0846 103.096 34.2716L103.103 36.8831C103.104 37.0636 102.975 37.293 102.813 37.3869L98.8002 39.7034C98.6375 39.7974 98.508 39.7171 98.5075 39.5366L98.5 36.9251C98.4995 36.7381 98.6282 36.5152 98.7909 36.4213L102.803 34.1047Z" fill="#F45170"/>
<path d="M95.78 50.948C95.9427 50.854 96.0722 50.9279 96.0727 51.1148L96.0801 53.7264C96.0807 53.9134 95.952 54.1362 95.7893 54.2302L91.777 56.5467C91.6198 56.6374 91.4847 56.5668 91.4842 56.3798L91.4768 53.7683C91.4763 53.5813 91.6105 53.3552 91.7677 53.2645L95.78 50.948Z" fill="#FFD06C"/>
<path d="M101.434 38.1825L101.441 42.0187L108.495 37.9463L108.514 43.59L107.269 44.31L107.254 40.0987L101.449 43.4512L100.196 44.175L94.3875 47.5275L94.3987 51.7387L93.1537 52.4588L93.1387 46.815L100.193 42.7425L100.181 38.9062L101.434 38.1825Z" fill="#C9CEE2"/>
<path d="M104.309 72.8615L103.123 73.7086C102.986 74.4825 102.753 75.2688 102.433 76.0378L103.181 76.6824L101.576 79.4557L100.641 79.1384C100.13 79.804 99.5668 80.3996 98.9658 80.9062L98.8333 82.3456L96.5612 83.6574L96.4211 82.3753C95.8191 82.5633 95.2544 82.6189 94.7412 82.5448L93.8108 83.9392L92.196 83.0244L92.9378 81.5198C92.6143 81.1225 92.3774 80.6074 92.2369 79.9936L91.0498 80.5167L91.0424 77.9085L92.2286 77.0669C92.3652 76.2956 92.5984 75.512 92.9186 74.7375L92.1707 74.093L93.775 71.3224L94.7102 71.6316C95.2214 70.9687 95.7846 70.3731 96.3856 69.8638L96.518 68.4244L98.7902 67.1126L98.9303 68.3946C99.5323 68.2093 100.097 68.1538 100.61 68.2252L101.541 66.8389L103.155 67.751L102.414 69.2556C102.737 69.6583 102.974 70.1707 103.115 70.7818L104.302 70.2533L104.309 72.8615ZM97.6842 78.726C99.2905 77.7986 100.587 75.5533 100.582 73.7098C100.576 71.864 99.2716 71.1205 97.6653 72.0479C96.0609 72.9741 94.7646 75.2194 94.7698 77.0652C94.7751 78.9087 96.0798 79.6523 97.6842 78.726Z" fill="#4C5C75"/>
<path d="M110.796 75.2327L110.152 75.693C110.078 76.1136 109.951 76.5408 109.777 76.9587L110.183 77.309L109.311 78.816L108.803 78.6436C108.525 79.0053 108.219 79.3289 107.893 79.6042L107.821 80.3864L106.586 81.0993L106.51 80.4026C106.183 80.5047 105.876 80.5349 105.597 80.4946L105.092 81.2524L104.214 80.7553L104.617 79.9377C104.441 79.7217 104.313 79.4419 104.236 79.1083L103.591 79.3926L103.587 77.9753L104.232 77.5179C104.306 77.0988 104.433 76.673 104.607 76.2522L104.2 75.9019L105.072 74.3963L105.58 74.5644C105.858 74.2041 106.164 73.8805 106.491 73.6037L106.563 72.8215L107.797 72.1087L107.874 72.8054C108.201 72.7047 108.508 72.6745 108.786 72.7133L109.292 71.96L110.17 72.4556L109.766 73.2732C109.942 73.4921 110.071 73.7705 110.147 74.1026L110.792 73.8154L110.796 75.2327ZM107.196 78.4195C108.069 77.9156 108.774 76.6954 108.771 75.6937C108.768 74.6907 108.059 74.2866 107.186 74.7906C106.314 75.2939 105.61 76.514 105.613 77.517C105.616 78.5188 106.325 78.9228 107.196 78.4195Z" fill="#BF7D5A"/>
<path d="M76.0879 54.1576C76.1483 57.0786 74.1104 60.706 71.539 62.2505C71.5092 62.2683 71.4789 62.2862 71.4492 62.3034C68.9274 63.7593 66.8375 62.6367 66.781 59.7442C66.7174 56.8287 68.7586 53.1994 71.3267 51.6568C71.3566 51.6389 71.3868 51.6212 71.4166 51.604C73.9446 50.1443 76.0315 51.2724 76.0879 54.1576ZM68.1041 58.9504C68.0776 57.6262 68.6495 56.0575 69.6357 54.7622L69.3547 54.4193C68.216 55.9186 67.5536 57.7304 67.5872 59.2637L68.1041 58.9504ZM71.357 53.1622L71.422 53.1247L71.4138 52.5345L71.3488 52.5721C70.8644 52.8629 70.3966 53.2452 69.9551 53.7134L70.1549 54.148C70.5348 53.7454 70.9409 53.4137 71.357 53.1622Z" fill="#8FABFE"/>
<path d="M67.0585 63.5281C67.1907 63.6405 67.333 63.7408 67.4862 63.8271C67.6406 63.9135 67.8017 63.9832 67.9683 64.0379L66.8994 65.8983L65.9862 65.3853L67.0585 63.5281Z" fill="#1D2943"/>
<path d="M71.4138 52.5345L71.422 53.1247L71.357 53.1622C70.9409 53.4137 70.5348 53.7454 70.155 54.148L69.9551 53.7134C70.3966 53.2452 70.8644 52.8629 71.3488 52.5721L71.4138 52.5345ZM69.3547 54.4193L69.6357 54.7622C68.6495 56.0575 68.0776 57.6262 68.1041 58.9504L67.5872 59.2637C67.5536 57.7304 68.216 55.9186 69.3547 54.4193Z" fill="white"/>
<path d="M75.3827 50.0784C77.5908 51.318 77.6154 55.4084 75.4379 59.1987C74.342 61.1064 72.8975 62.5784 71.4511 63.4135C70.2205 64.124 68.9887 64.373 67.9683 64.0379C67.8017 63.9832 67.6406 63.9135 67.4862 63.8271C67.333 63.7408 67.1907 63.6404 67.0585 63.5281C65.2825 62.0176 65.4014 58.2397 67.431 54.7067C68.5258 52.7993 69.9701 51.3265 71.417 50.491C72.848 49.6648 74.2816 49.462 75.3827 50.0784ZM71.539 62.2505C74.1104 60.706 76.1483 57.0786 76.0879 54.1576C76.0314 51.2724 73.9446 50.1443 71.4166 51.604C71.3868 51.6212 71.3566 51.6389 71.3267 51.6568C68.7586 53.1994 66.7174 56.8287 66.781 59.7442C66.8375 62.6367 68.9274 63.7593 71.4492 62.3034C71.4789 62.2862 71.5092 62.2683 71.539 62.2505Z" fill="#4C5C75"/>
<path d="M65.6463 65.3898C65.7497 65.3301 65.8534 65.3151 65.9341 65.3594L66.9484 65.9298C67.1082 66.021 67.1123 66.3142 66.9535 66.5929L63.2071 73.071C63.0998 73.2587 62.9578 73.4034 62.8159 73.4854C62.675 73.5667 62.5341 73.5863 62.4269 73.5252L61.6115 73.0681C61.3962 72.9454 61.3918 72.5438 61.609 72.1715L65.3554 65.6971C65.4356 65.5582 65.5408 65.4507 65.6463 65.3898Z" fill="#FFD06C"/>
<path d="M32.5416 120.116C31.7774 120.74 30.9901 121.342 30.1918 121.9L30.1221 125.631L32.4625 124.346L32.5416 120.116Z" fill="#FFDE9B"/>
<path d="M37.1889 115.785C36.4294 116.576 35.6427 117.355 34.8289 118.113L34.7357 123.098L37.0762 121.813L37.1889 115.785Z" fill="#F45170"/>
<path d="M46.3854 103.574C45.8003 104.533 45.02 105.754 44.0795 107.139L44.1099 117.884L46.4222 116.549L46.3854 103.574Z" fill="#BF7D5A"/>
<path d="M41.8389 110.265C41.1244 111.218 40.3552 112.202 39.5311 113.2L39.5519 120.515L41.8642 119.18L41.8389 110.265Z" fill="#B28AFD"/>
<path d="M46.9135 98.0959L44.0392 100.048L44.9036 100.57C43.0603 103.561 36.6405 113.394 28.7373 118.916L28.5744 119.033L28.6844 120.067L28.8473 119.95C37.2467 114.094 44.1831 103.256 45.5898 100.971L46.3573 101.431L46.9135 98.0959Z" fill="#E3E7F0"/>
<path d="M181.434 100.002L181.408 106.88C181.408 107.354 181.118 107.801 180.513 108.143L144.019 129.35C142.809 130.06 140.862 130.06 139.652 129.35L102.921 108.143C102.289 107.801 102 107.328 102 106.88V99.9753C102 100.449 102.316 100.923 102.921 101.265L139.652 122.472C140.862 123.182 142.809 123.182 144.019 122.472L180.539 101.265C181.145 100.923 181.434 100.476 181.434 100.002Z" fill="#434148"/>
<path d="M180.522 98.7399C181.731 99.4382 181.737 100.564 180.535 101.262L144.019 122.483C142.817 123.181 140.874 123.182 139.665 122.483L102.925 101.272C101.716 100.574 101.693 99.4386 102.895 98.7403L139.412 77.519C140.613 76.8207 142.573 76.8302 143.782 77.5285L180.522 98.7399Z" fill="#B8B8B8"/>
<path d="M125.14 97.7018C126.037 95.9809 127.735 94.3916 130.236 92.9482C132.664 91.5463 135.317 90.5814 138.207 90.0609C141.11 89.5336 143.973 89.485 146.799 89.9014C149.636 90.3109 152.171 91.1716 154.392 92.4623C156.697 93.8016 158.032 95.1064 158.42 96.3902C158.82 97.6672 158.215 98.7777 156.616 99.7007C155.763 100.193 154.839 100.492 153.856 100.603C152.86 100.707 151.891 100.617 150.909 100.311C151.38 101.824 150.558 103.198 148.418 104.434C147.204 105.135 145.824 105.6 144.265 105.836C142.706 106.058 141.137 106.037 139.557 105.759C137.989 105.489 136.554 104.961 135.24 104.198C133.951 103.448 133.057 102.622 132.594 101.713C132.132 100.804 132.101 99.8948 132.502 98.9999C132.914 98.0976 133.721 97.2993 134.935 96.5984C135.873 96.057 136.882 95.6546 137.962 95.4049C139.041 95.1549 140.144 95.0577 141.282 95.1204L139.55 94.114L142.519 92.3998L151.548 97.6466C152.181 98.0145 152.766 98.2154 153.305 98.2224C153.845 98.2434 154.325 98.1324 154.733 97.8964C155.466 97.4731 155.602 96.911 155.174 96.2167C154.735 95.5161 153.732 94.7108 152.18 93.8086C150.305 92.719 148.212 92.0042 145.914 91.6713C143.616 91.3381 141.303 91.3868 138.952 91.8171C136.602 92.2472 134.428 93.0451 132.409 94.211C130.389 95.3769 129.005 96.6611 128.29 98.0558C127.551 99.4506 127.507 100.832 128.159 102.199C128.81 103.566 130.097 104.801 132.008 105.912C133.954 107.043 136.094 107.8 138.441 108.188C140.799 108.57 143.159 108.563 145.558 108.161C147.944 107.751 150.141 106.967 152.16 105.801C153.026 105.301 153.82 104.732 154.531 104.101C155.229 103.476 155.784 102.81 156.183 102.136L159.018 102.949C158.643 103.636 158.028 104.351 157.185 105.086C156.342 105.822 155.404 106.488 154.37 107.085C151.87 108.528 149.144 109.493 146.195 109.993C143.22 110.492 140.309 110.513 137.388 110.055C134.491 109.597 131.884 108.695 129.544 107.335C127.239 105.995 125.713 104.482 124.956 102.803C124.187 101.13 124.244 99.423 125.14 97.7018ZM142.027 96.779C140.554 96.7719 139.222 97.0981 138.056 97.7712C136.89 98.4444 136.31 99.2217 136.342 100.075C136.361 100.936 137.003 101.727 138.257 102.456C139.535 103.198 140.911 103.58 142.408 103.601C143.882 103.622 145.226 103.289 146.392 102.616C147.558 101.942 148.137 101.179 148.118 100.318C148.111 99.4508 147.444 98.6459 146.155 97.8962C144.877 97.1537 143.513 96.7791 142.027 96.779Z" fill="white"/>
</svg>
