<svg width="64" height="64" viewBox="0 0 64 64" fill="none" xmlns="http://www.w3.org/2000/svg">
<path d="M1.51801 33.326L1.52001 54.065L26.437 57.4781L26.417 33.486L1.51801 33.326Z" fill="#0DA2D6"/>
<path d="M1.52 54.065L26.437 57.478L26.417 33.486M62 1.5L29 6.309V30.682L62 30.42V1.5Z" fill="#20B5EC"/>
<path d="M62 1.5L29 6.309V30" fill="#0DA2D6"/>
<path d="M1.5 10.1371L1.523 30.8651L26.441 30.7231L26.429 6.75305L1.5 10.1371Z" fill="#20B5EC"/>
<path d="M1.52299 30.8651L26.441 30.7231L26.429 6.75305" fill="#0DA2D6"/>
<path d="M29.44 57.849L62.491 62.5L62.5 33.711L29.394 33.657L29.44 57.849Z" fill="#20B5EC"/>
<path d="M29.44 57.8489L62.491 62.4999L62.5 33.7109" fill="#0DA2D6"/>
</svg>
