<?xml version="1.0" encoding="UTF-8"?>
<svg width="800px" height="600px" viewBox="0 0 800 600" version="1.1" xmlns="http://www.w3.org/2000/svg" xmlns:xlink="http://www.w3.org/1999/xlink">
    <title>2041-10-11-15-10_CollaboratingOnGit&amp;GitHub—Branch</title>
    <defs>
        <path d="M8.68744595,14.5405413 C10.6544909,13.5649687 12,11.5915112 12,9.31636202 C12,6.07252388 9.26504479,3.44227578 5.89152197,3.44227578 C4.52034181,3.44227578 3.25480793,3.87689217 2.23537065,4.61058921 L2.23537065,1.05770107 C2.23537065,0.476155373 1.74046224,0 1.11695169,0 C0.493934821,0 0.0167986821,0.476630104 0.0167986821,1.05770107 L0.0167986821,1.80184219 L0,9.32158406 C-0.0041824725,11.2003327 0.951817666,12.865215 2.41753644,13.8939574 C2.4777647,13.9362085 2.55848043,13.9312238 2.6127846,13.8823265 C2.66758244,13.8334292 2.6779496,13.7558106 2.63746831,13.6950451 C0.724974359,10.8146136 1.16014819,5.53963813 5.89176881,5.53963813 C8.05899866,5.53963813 9.80709909,7.22944376 9.81623206,9.31351363 C9.82240299,10.8599505 9.11620201,12.0365717 8.19549958,12.7781018 C6.36026565,14.2561773 3.64974731,12.6382934 4.49738595,10.4697214 C4.5894562,10.2335427 4.71879884,9.9959397 4.88664808,9.76189723 L5.12361171,9.47705853 C5.19766284,9.39967734 5.25048599,9.29903433 5.2146946,9.19411874 C5.01401603,8.62800181 3.46832203,8.97526767 3.04005964,10.0315445 C3.34292878,9.79631524 3.65986763,9.66433998 3.96940137,9.71489885 C2.38890334,11.275815 3.44141679,13.9563846 5.46005069,14.7513219 C6.40494316,15.1232738 7.55964718,15.0976383 8.68744595,14.5405413" id="path-1"></path>
        <linearGradient x1="28.568518%" y1="104.445731%" x2="78.3472072%" y2="20.6880271%" id="linearGradient-3">
            <stop stop-color="#000F98" offset="0%"></stop>
            <stop stop-color="#00A5FD" offset="100%"></stop>
        </linearGradient>
        <linearGradient x1="32.1347447%" y1="14.4184139%" x2="56.5507815%" y2="75.461337%" id="linearGradient-4">
            <stop stop-color="#000000" offset="0%"></stop>
            <stop stop-color="#191919" offset="100%"></stop>
        </linearGradient>
        <linearGradient x1="41.256555%" y1="27.4242437%" x2="66.2542373%" y2="91.8289958%" id="linearGradient-5">
            <stop stop-color="#000000" offset="0%"></stop>
            <stop stop-color="#191919" offset="100%"></stop>
        </linearGradient>
        <linearGradient x1="37.7767324%" y1="54.6472168%" x2="54.5561385%" y2="48.5166165%" id="linearGradient-6">
            <stop stop-color="#FFB268" offset="26.3%"></stop>
            <stop stop-color="#FFBD82" offset="89%"></stop>
        </linearGradient>
        <linearGradient x1="62.3385512%" y1="55.2275559%" x2="45.33121%" y2="48.4943619%" id="linearGradient-7">
            <stop stop-color="#FFB268" offset="26.3%"></stop>
            <stop stop-color="#FFBD82" offset="89%"></stop>
        </linearGradient>
        <linearGradient x1="50%" y1="34.4268793%" x2="50%" y2="102.16082%" id="linearGradient-8">
            <stop stop-color="#F9B701" offset="21.5%"></stop>
            <stop stop-color="#F9DD01" offset="85.2%"></stop>
        </linearGradient>
        <linearGradient x1="-0.126903553%" y1="49.9990888%" x2="100.126904%" y2="49.9990888%" id="linearGradient-9">
            <stop stop-color="#F9B701" offset="6.4%"></stop>
            <stop stop-color="#F9DD01" offset="85.2%"></stop>
        </linearGradient>
        <linearGradient x1="94.6898239%" y1="49.9981326%" x2="18.68591%" y2="49.9981326%" id="linearGradient-10">
            <stop stop-color="#FFB268" offset="26.3%"></stop>
            <stop stop-color="#FFBD82" offset="89%"></stop>
        </linearGradient>
        <linearGradient x1="42.9653078%" y1="23.0349219%" x2="67.7077887%" y2="98.8866064%" id="linearGradient-11">
            <stop stop-color="#FFB268" offset="26.3%"></stop>
            <stop stop-color="#FFBD82" offset="89%"></stop>
        </linearGradient>
        <linearGradient x1="50%" y1="120.60429%" x2="50%" y2="27.1566046%" id="linearGradient-12">
            <stop stop-color="#BB0020" offset="12.3%"></stop>
            <stop stop-color="#640520" offset="85.2%"></stop>
        </linearGradient>
        <linearGradient x1="64.4410833%" y1="13.9130435%" x2="40.5627198%" y2="71.0543478%" id="linearGradient-13">
            <stop stop-color="#F9B701" offset="6.4%"></stop>
            <stop stop-color="#F9B901" offset="29.1%"></stop>
            <stop stop-color="#F9DD01" offset="85.2%"></stop>
        </linearGradient>
        <linearGradient x1="64.7746701%" y1="13.826087%" x2="40.8855458%" y2="70.9565217%" id="linearGradient-14">
            <stop stop-color="#F9B701" offset="6.4%"></stop>
            <stop stop-color="#F9B901" offset="29.1%"></stop>
            <stop stop-color="#F9DD01" offset="85.2%"></stop>
        </linearGradient>
        <linearGradient x1="18.8518519%" y1="791.490613%" x2="67.6944444%" y2="-375.677452%" id="linearGradient-15">
            <stop stop-color="#7212DE" offset="12.3%"></stop>
            <stop stop-color="#450078" offset="85.2%"></stop>
        </linearGradient>
        <linearGradient x1="31.1388889%" y1="497.808781%" x2="79.9814815%" y2="-669.350176%" id="linearGradient-16">
            <stop stop-color="#7212DE" offset="12.3%"></stop>
            <stop stop-color="#450078" offset="85.2%"></stop>
        </linearGradient>
        <linearGradient x1="43.4351852%" y1="204.136058%" x2="92.2777778%" y2="-963.0229%" id="linearGradient-17">
            <stop stop-color="#7212DE" offset="12.3%"></stop>
            <stop stop-color="#450078" offset="85.2%"></stop>
        </linearGradient>
        <linearGradient x1="15.2494472%" y1="21.5232725%" x2="104.890049%" y2="118.727393%" id="linearGradient-18">
            <stop stop-color="#000000" offset="0%"></stop>
            <stop stop-color="#191919" offset="100%"></stop>
        </linearGradient>
        <linearGradient x1="36.55911%" y1="40.4899497%" x2="64.1818664%" y2="65.9434673%" id="linearGradient-19">
            <stop stop-color="#F9B701" offset="6.4%"></stop>
            <stop stop-color="#F9B901" offset="29.1%"></stop>
            <stop stop-color="#F9DD01" offset="100%"></stop>
        </linearGradient>
        <linearGradient x1="56.8072846%" y1="36.2347716%" x2="36.2375903%" y2="74.3540609%" id="linearGradient-20">
            <stop stop-color="#F9B701" offset="6.4%"></stop>
            <stop stop-color="#F9B901" offset="29.1%"></stop>
            <stop stop-color="#F9DD01" offset="95.3%"></stop>
        </linearGradient>
        <path d="M339,46 L466,46 C468.209139,46 470,47.790861 470,50 L470,129.544727 C470,131.753866 468.209139,133.544727 466,133.544727 L383,133.544727 L383,133.544727 L366.5,150 L366.5,133.544727 L339,133.544727 C336.790861,133.544727 335,131.753866 335,129.544727 L335,50 C335,47.790861 336.790861,46 339,46 Z" id="path-21"></path>
        <filter x="-3.9%" y="-5.0%" width="115.2%" height="120.1%" filterUnits="objectBoundingBox" id="filter-22">
            <feMorphology radius="0.25" operator="dilate" in="SourceAlpha" result="shadowSpreadOuter1"></feMorphology>
            <feOffset dx="5" dy="5" in="shadowSpreadOuter1" result="shadowOffsetOuter1"></feOffset>
            <feGaussianBlur stdDeviation="2.5" in="shadowOffsetOuter1" result="shadowBlurOuter1"></feGaussianBlur>
            <feComposite in="shadowBlurOuter1" in2="SourceAlpha" operator="out" result="shadowBlurOuter1"></feComposite>
            <feColorMatrix values="0 0 0 0 0   0 0 0 0 0   0 0 0 0 0  0 0 0 0.5 0" type="matrix" in="shadowBlurOuter1"></feColorMatrix>
        </filter>
        <path d="M343,407.090909 L470,407.090909 C472.209139,407.090909 474,408.88177 474,411.090909 L474,487.648822 C474,489.857961 472.209139,491.648822 470,491.648822 L387,491.648822 L387,491.648822 L357.343269,531.090909 L370.5,491.648822 L343,491.648822 C340.790861,491.648822 339,489.857961 339,487.648822 L339,411.090909 C339,408.88177 340.790861,407.090909 343,407.090909 Z" id="path-23"></path>
        <filter x="-3.9%" y="-12.3%" width="115.2%" height="117.4%" filterUnits="objectBoundingBox" id="filter-24">
            <feMorphology radius="0.25" operator="dilate" in="SourceAlpha" result="shadowSpreadOuter1"></feMorphology>
            <feOffset dx="5" dy="-5" in="shadowSpreadOuter1" result="shadowOffsetOuter1"></feOffset>
            <feGaussianBlur stdDeviation="2.5" in="shadowOffsetOuter1" result="shadowBlurOuter1"></feGaussianBlur>
            <feComposite in="shadowBlurOuter1" in2="SourceAlpha" operator="out" result="shadowBlurOuter1"></feComposite>
            <feColorMatrix values="0 0 0 0 0   0 0 0 0 0   0 0 0 0 0  0 0 0 0.5 0" type="matrix" in="shadowBlurOuter1"></feColorMatrix>
        </filter>
    </defs>
    <g id="2041-10-11-15-10_CollaboratingOnGit&amp;GitHub—Branch" stroke="none" stroke-width="1" fill="none" fill-rule="evenodd">
        <rect fill="#FFFFFF" x="0" y="0" width="800" height="600"></rect>
        <g id="bloovee-winner-logo" transform="translate(725.000000, 580.000000)">
            <path d="M13,13.7751507 C13,14.396312 13.4732558,14.8717809 14.0514961,14.8717809 C14.6474304,14.8717809 15.1204503,14.3968042 15.1204503,13.7751507 L15.1204503,2.09687626 C15.1204503,1.49368045 14.6474304,1 14.0514961,1 C13.4557977,1 13,1.49392656 13,2.09687626 L13,13.7751507 Z M21.7920364,15 C24.6483217,15 26.751078,12.7149437 26.751078,9.97312215 L26.751078,9.93645297 C26.751078,7.17641992 24.6657798,4.92778666 21.8269526,4.92778666 C18.9881254,4.92778666 16.885369,7.212843 16.885369,9.97312215 L16.885369,10.0095452 C16.885369,12.7516128 18.9706673,15 21.7920364,15 Z M21.8269526,13.0621935 C20.179994,13.0621935 19.0055834,11.6547366 19.0055834,9.97312215 L19.0055834,9.93645297 C19.0055834,8.25459244 20.0919958,6.86534709 21.7920364,6.86534709 C23.456689,6.86534709 24.6306277,8.27305008 24.6306277,9.97312215 L24.6306277,10.0095452 C24.6306277,11.6731942 23.5444513,13.0621935 21.8269526,13.0621935 Z M32.8092717,15 C35.665557,15 37.7683133,12.7149437 37.7683133,9.97312215 L37.7683133,9.93645297 C37.7683133,7.17641992 35.6830151,4.92778666 32.8441878,4.92778666 C30.0053606,4.92778666 27.9026043,7.212843 27.9026043,9.97312215 L27.9026043,10.0095452 C27.9026043,12.7516128 29.9879025,15 32.8092717,15 Z M32.8441878,13.0621935 C31.1969933,13.0621935 30.0228187,11.6547366 30.0228187,9.97312215 L30.0228187,9.93645297 C30.0228187,8.25459244 31.109231,6.86534709 32.8092717,6.86534709 C34.4739243,6.86534709 35.647863,8.27305008 35.647863,9.97312215 L35.647863,10.0095452 C35.647863,11.6731942 34.5614506,13.0621935 32.8441878,13.0621935 Z M44.1416963,13.9944275 L47.2261164,6.6096472 C47.2784906,6.49988574 47.3487948,6.28060893 47.3487948,6.07954366 C47.3487948,5.47610175 46.8929971,5.01933658 46.3147568,5.01933658 C45.7539746,5.01933658 45.4737015,5.40300947 45.3158709,5.78692847 L42.8976893,12.2215093 L40.5144239,5.82335156 C40.3393711,5.36634029 40.041404,5.01933658 39.4629278,5.01933658 C38.8846875,5.01933658 38.4116676,5.53098247 38.4116676,6.07954366 C38.4116676,6.28060893 38.4817358,6.46346265 38.534346,6.62785874 L41.6182943,13.9944275 C41.8638872,14.5796579 42.2491448,14.9633308 42.8273851,14.9633308 L42.9326055,14.9633308 C43.5108458,14.9633308 43.8965752,14.5612003 44.1416963,13.9944275 Z M50.0949054,9.27837643 C50.2876522,7.77961573 51.1987758,6.73762019 52.4956289,6.73762019 C53.8974665,6.73762019 54.7036056,7.8524619 54.8437422,9.27837643 L50.0949054,9.27837643 Z M56.070527,13.72027 C56.2281217,13.5558739 56.3508002,13.3181395 56.3508002,13.0439819 C56.3508002,12.5320899 55.9830006,12.1481709 55.5095089,12.1481709 C55.2641519,12.1481709 55.1242513,12.2215093 54.9664207,12.3492362 C54.3704864,12.8611282 53.6695676,13.1901665 52.7759021,13.1901665 C51.4089807,13.1901665 50.3402624,12.3128131 50.1123635,10.7409601 L55.9126964,10.7409601 C56.4560206,10.7409601 56.9115824,10.3021604 56.9115824,9.68050697 C56.9115824,7.45057746 55.4568987,4.92778666 52.513087,4.92778666 C49.8672425,4.92778666 47.9919132,7.19438536 47.9919132,9.95466451 L47.9919132,9.9913337 C47.9919132,12.9708897 50.0597533,15 52.7409859,15 C54.1779755,15 55.2292357,14.5063195 56.070527,13.72027 Z M60.1833231,9.27837643 C60.3763058,7.77961573 61.2871935,6.73762019 62.5842825,6.73762019 C63.9858841,6.73762019 64.7920233,7.8524619 64.9321598,9.27837643 L60.1833231,9.27837643 Z M66.1589447,13.72027 C66.3167752,13.5558739 66.4394537,13.3181395 66.4394537,13.0439819 C66.4394537,12.5320899 66.0714183,12.1481709 65.5981624,12.1481709 C65.3528055,12.1481709 65.2126689,12.2215093 65.0548383,12.3492362 C64.4591399,12.8611282 63.7582212,13.1901665 62.8643197,13.1901665 C61.4976342,13.1901665 60.4289159,12.3128131 60.2007812,10.7409601 L66.0011141,10.7409601 C66.5444382,10.7409601 67,10.3021604 67,9.68050697 C67,7.45057746 65.5455522,4.92778666 62.6015046,4.92778666 C59.9556601,4.92778666 58.0805667,7.19438536 58.0805667,9.95466451 L58.0805667,9.9913337 C58.0805667,12.9708897 60.1484069,15 62.8294035,15 C64.2663932,15 65.3178893,14.5063195 66.1589447,13.72027 L66.1589447,13.72027 Z" id="Fill-1" fill="#030060"></path>
            <g id="Group-4">
                <mask id="mask-2" fill="white">
                    <use xlink:href="#path-1"></use>
                </mask>
                <g id="Clip-3"></g>
                <path d="M8.68744595,14.5405413 C10.6544909,13.5649687 12,11.5915112 12,9.31636202 C12,6.07252388 9.26504479,3.44227578 5.89152197,3.44227578 C4.52034181,3.44227578 3.25480793,3.87689217 2.23537065,4.61058921 L2.23537065,1.05770107 C2.23537065,0.476155373 1.74046224,0 1.11695169,0 C0.493934821,0 0.0167986821,0.476630104 0.0167986821,1.05770107 L0.0167986821,1.80184219 L0,9.32158406 C-0.0041824725,11.2003327 0.951817666,12.865215 2.41753644,13.8939574 C2.4777647,13.9362085 2.55848043,13.9312238 2.6127846,13.8823265 C2.66758244,13.8334292 2.6779496,13.7558106 2.63746831,13.6950451 C0.724974359,10.8146136 1.16014819,5.53963813 5.89176881,5.53963813 C8.05899866,5.53963813 9.80709909,7.22944376 9.81623206,9.31351363 C9.82240299,10.8599505 9.11620201,12.0365717 8.19549958,12.7781018 C6.36026565,14.2561773 3.64974731,12.6382934 4.49738595,10.4697214 C4.5894562,10.2335427 4.71879884,9.9959397 4.88664808,9.76189723 L5.12361171,9.47705853 C5.19766284,9.39967734 5.25048599,9.29903433 5.2146946,9.19411874 C5.01401603,8.62800181 3.46832203,8.97526767 3.04005964,10.0315445 C3.34292878,9.79631524 3.65986763,9.66433998 3.96940137,9.71489885 C2.38890334,11.275815 3.44141679,13.9563846 5.46005069,14.7513219 C6.40494316,15.1232738 7.55964718,15.0976383 8.68744595,14.5405413" id="Fill-2" fill="url(#linearGradient-3)" mask="url(#mask-2)"></path>
            </g>
        </g>
        <text id="Collaborating-On-Git" fill-rule="nonzero" font-family="Helvetica" font-size="18" font-weight="normal" fill="#0055C2">
            <tspan x="10" y="23">Collaborating On Git&amp;Git Hub — Branch</tspan>
        </text>
        <g id="git" transform="translate(661.000000, 9.000000)">
            <path d="M46.8658496,11.2380575 C45.1623498,11.2380575 43.8939053,12.0891281 43.8939053,14.1376499 C43.8939053,15.6808485 44.7297841,16.7522856 46.7743573,16.7522856 C48.5071097,16.7522856 49.6846843,15.7131436 49.6846843,14.073693 C49.6846843,12.2157755 48.6309666,11.2380575 46.8658496,11.2380575 L46.8658496,11.2380575 Z M43.4607172,25.7011913 C43.0574041,26.2046147 42.6553359,26.7397 42.6553359,27.3710373 C42.6553359,28.6305458 44.2337339,29.0092215 46.4027864,29.0092215 C48.1984009,29.0092215 50.6450424,28.8813076 50.6450424,27.1823327 C50.6450424,26.1723196 49.4674678,26.1102624 47.9805621,26.0152768 L43.4607172,25.7011913 Z M52.6255087,11.3330431 C53.1825537,12.0580995 53.7719634,13.0662128 53.7719634,14.5156924 C53.7719634,18.0124273 51.0776081,20.0603158 47.1764255,20.0603158 C46.1843252,20.0603158 45.2862067,19.9349349 44.7291617,19.7772589 L43.7071863,21.4471049 L46.7413702,21.6351763 C52.0989611,21.9828234 55.257002,22.1404995 55.257002,26.3293624 C55.257002,29.9533779 52.1300809,32 46.7413702,32 C41.1360655,32 39,30.5505204 39,28.0625322 C39,26.6440812 39.6199071,25.8898959 40.7034998,24.848221 C39.680902,24.4087545 39.3410734,23.6216409 39.3410734,22.7705703 C39.3410734,22.0771758 39.6815244,21.4471049 40.2391918,20.8480627 C40.7968593,20.2502869 41.416144,19.6506115 42.1586633,18.9578502 C40.6412601,18.2017651 39.4960502,16.563581 39.4960502,14.231369 C39.4960502,10.6086199 41.8493321,8.12063165 46.5870158,8.12063165 C47.9189448,8.12063165 48.7249485,8.24537935 49.436348,8.43598369 L55.4754632,8.43598369 L55.4754632,11.1133099 L52.6255087,11.3330431 L52.6255087,11.3330431 Z M60.9233016,5.60858036 C59.1575621,5.60858036 58.1355867,4.56817192 58.1355867,2.77167847 C58.1355867,0.977717972 59.1575621,0 60.9233016,0 C62.7195385,0 63.7408917,0.977084735 63.7408917,2.77167847 C63.7415139,4.56817192 62.7195385,5.60858036 60.9233016,5.60858036 Z M56.9275147,24.5423675 L56.9275147,22.0543792 L58.50778,21.8340127 C58.9409681,21.770689 59.0025853,21.6763367 59.0025853,21.2026754 L59.0025853,11.9403174 C59.0025853,11.59457 58.9104706,11.372937 58.5998947,11.279218 L56.9275147,10.6801757 L57.2679657,8.12949697 L63.6792742,8.12949697 L63.6792742,21.2033087 C63.6792742,21.7086318 63.7091492,21.770689 64.174702,21.834646 L65.7543448,22.0550125 L65.7543448,24.5430008 L56.9275147,24.5430008 L56.9275147,24.5423675 Z M78,23.32022 C76.6674487,23.9806863 74.7174798,24.5803617 72.9511179,24.5803617 C69.2665294,24.5803617 67.8736056,23.0694582 67.8736056,19.5074999 L67.8736056,11.2532552 C67.8736056,11.0651838 67.8736056,10.9385364 67.6252693,10.9385364 L65.458084,10.9385364 L65.458084,8.13456287 C68.1841815,7.81857759 69.2671518,6.43242174 69.6076028,2.99837733 L72.5502944,2.99837733 L72.5502944,7.47346341 C72.5502944,7.69319666 72.5502944,7.78881545 72.7980083,7.78881545 L77.1641212,7.78881545 L77.1641212,10.9391697 L72.5502944,10.9391697 L72.5502944,18.4683579 C72.5502944,20.3269086 72.9841049,21.0513318 74.6558625,21.0513318 C75.5241059,21.0513318 76.4209796,20.8315985 77.1641212,20.5479083 L78,23.32022 L78,23.32022 Z" id="Shape" fill="#31251C" fill-rule="nonzero"></path>
            <path d="M32.3772539,15.0299695 L17.9690664,0.622277028 C17.140005,-0.207425676 15.7941261,-0.207425676 14.9644314,0.622277028 L11.9724635,3.61427365 L15.7668919,7.40937182 C16.6497884,7.11169223 17.6606226,7.31120089 18.3636464,8.01486479 C19.0704703,8.72232885 19.2687104,9.74203981 18.9634334,10.6274783 L22.6210571,14.2851371 C23.5052204,13.9804906 24.5268216,14.1774658 25.2336455,14.8849299 C26.221679,15.8723394 26.221679,17.4728423 25.2336455,18.4608852 C24.2449787,19.4489281 22.6451246,19.4489281 21.6570912,18.4608852 C20.914166,17.7173195 20.7304932,16.6260388 21.1067059,15.7108324 L17.6954571,12.2995509 L17.6948238,21.2768075 C17.9361319,21.3958793 18.1628729,21.5542195 18.3636464,21.7543616 C19.3516798,22.7417711 19.3516798,24.3416406 18.3636464,25.3309502 C17.375613,26.3183598 15.7744921,26.3183598 14.7877254,25.3309502 C13.799692,24.3416406 13.799692,22.7417711 14.7877254,21.7543616 C15.0322003,21.5105176 15.3140432,21.3262096 15.6155201,21.2027043 L15.6155201,12.1424774 C15.3140432,12.0196054 15.0322003,11.8359308 14.7877254,11.5908201 C14.0391001,10.842821 13.8592273,9.74520661 14.2430403,8.82620003 L10.5024471,5.08430417 L0.622746073,14.9634666 C-0.207582024,15.7938027 -0.207582024,17.1396945 0.622746073,17.9700305 L15.0309336,32.377723 C15.8606284,33.2074257 17.2058739,33.2074257 18.0368353,32.377723 L32.3772539,18.0359 C33.207582,17.2061973 33.207582,15.8596722 32.3772539,15.0299695 L32.3772539,15.0299695 Z" id="Path" fill="#F34F29" fill-rule="nonzero"></path>
            <polygon id="Path" points="1.12409637e-15 0 79 0 79 33 0 33"></polygon>
        </g>
        <g id="github-copy" transform="translate(748.000000, 3.000000)" fill="#000000" fill-rule="nonzero">
            <path d="M22.9998956,0 C11.7204239,0.000469179946 2.10590223,8.20619911 0.299077857,19.3745239 C-1.50774651,30.5428487 5.02642435,41.3773525 15.7268887,44.9558377 C16.8767785,45.1577383 17.3079872,44.4656891 17.3079872,43.8600567 C17.3079872,43.3121892 17.279217,41.4954764 17.279217,39.5634644 C11.5009978,40.6303861 10.0061411,38.1505528 9.54618516,36.8529173 C9.03580825,35.5908656 8.22674528,34.472458 7.1889111,33.5943411 C6.38398825,33.161796 5.23409847,32.0948512 7.16014086,32.066061 C8.65271236,32.2285228 9.97246422,33.1110528 10.6960749,34.4305721 C11.3313462,35.5753322 12.3946869,36.4194146 13.6513665,36.7764896 C14.9080461,37.1335647 16.2547288,36.9742705 17.3941369,36.3337708 C17.4936968,35.160991 18.0147545,34.0644705 18.8602924,33.2483742 C13.7432829,32.6716473 8.39629538,30.6818473 8.39629538,21.8580182 C8.36397821,19.5652878 9.20739391,17.3470389 10.7535694,15.6582042 C10.0504849,13.6655423 10.1327507,11.4787423 10.9835474,9.54489918 C10.9835474,9.54489918 12.9095438,8.93931288 17.3079412,11.9094794 C21.0710431,10.8713094 25.0437372,10.8713094 28.806839,11.9094794 C33.2051215,8.9104996 35.1312329,9.54489918 35.1312329,9.54489918 C35.982145,11.4787155 36.0644125,13.6655602 35.3612108,15.6582042 C36.9120423,17.3441484 37.7561944,19.564334 37.7184849,21.8580182 C37.7184849,30.7107067 32.3427041,32.6716473 27.2257406,33.2483742 C28.336287,34.3774629 28.9028084,35.9349635 28.7780918,37.5161532 C28.7780918,40.6016882 28.7493216,43.0815215 28.7493216,43.8601489 C28.7493216,44.4657352 29.1805302,45.1866208 30.33042,44.95593 C41.0111617,41.3485442 47.5153422,30.5121007 45.6961446,19.3555019 C43.876947,8.19890308 34.2698179,0.00588375885 22.9998956,0 Z" id="Path"></path>
        </g>
        <circle id="Oval-Copy" stroke="#7BB2FF" stroke-width="4" fill="#C5DDFF" cx="240.5" cy="401.5" r="49.5"></circle>
        <circle id="Oval-Copy-3" stroke="#7BB2FF" stroke-width="4" fill="#C5DDFF" cx="462.5" cy="401.5" r="49.5"></circle>
        <circle id="Oval-Copy-5" stroke="#7BB2FF" stroke-width="4" fill="#C5DDFF" cx="673.5" cy="401.5" r="49.5"></circle>
        <circle id="Oval-Copy-6" stroke="#5DCDDD" stroke-width="4" fill="#A1E0E9" cx="240.5" cy="201.5" r="49.5"></circle>
        <circle id="Oval-Copy-7" stroke="#5DCDDD" stroke-width="4" fill="#A1E0E9" cx="464.5" cy="201.5" r="49.5"></circle>
        <text id="Master-Branch" font-family="Helvetica-Bold, Helvetica" font-size="21" font-weight="bold" fill="#0055C2">
            <tspan x="180.058838" y="486">Master Branch </tspan>
        </text>
        <text id="Topic-Branch" font-family="Helvetica-Bold, Helvetica" font-size="21" font-weight="bold" fill="#199ABD">
            <tspan x="186.682861" y="136">Topic Branch</tspan>
        </text>
        <text id="Edit-and-Commit" font-family="Helvetica" font-size="18" font-weight="normal" fill="#0055C2">
            <tspan x="315.475098" y="363">Edit and </tspan>
            <tspan x="317.500977" y="385">Commit</tspan>
        </text>
        <text id="Edit-and-Commit-Copy" font-family="Helvetica" font-size="18" font-weight="normal" fill="#199ABD">
            <tspan x="315.475098" y="162">Edit and </tspan>
            <tspan x="317.500977" y="184">Commit</tspan>
        </text>
        <text id="Create-new-Branch" font-family="Helvetica" font-size="18" font-weight="normal" fill="#0055C2">
            <tspan x="180.486816" y="284">Create </tspan>
            <tspan x="190.989746" y="306">new </tspan>
            <tspan x="178.983887" y="328">Branch</tspan>
        </text>
        <path id="Line" d="M403,397 L412,401.5 L403,406 L403,402 L292,402 L292,401 L403,401 L403,397 Z" fill="#0055C2" fill-rule="nonzero"></path>
        <path id="Line-Copy-3" d="M403,197 L412,201.5 L403,206 L403,202 L292,202 L292,201 L403,201 L403,197 Z" fill="#199ABD" fill-rule="nonzero"></path>
        <path id="Line-Copy-2" d="M240.5,253 L245,262 L241,262 L241,350 L240,350 L240,262 L236,262 L240.5,253 Z" fill="#0055C2" fill-rule="nonzero"></path>
        <text id="Merge" font-family="Helvetica-Bold, Helvetica" font-size="21" font-weight="bold" fill="#DE4040">
            <tspan x="549" y="379">Merge</tspan>
        </text>
        <text id="Developer-A" fill-rule="nonzero" font-family="Helvetica-Bold, Helvetica" font-size="18" font-weight="bold" fill="#0055C2">
            <tspan x="27" y="447">Developer A</tspan>
        </text>
        <g id="web-designer" transform="translate(59.000000, 372.000000)" fill-rule="nonzero">
            <path d="M40.1,34 L27.9,29 L27.9,29 L27.5,30.8 L26.5,35 C26.4,35.4 25.9,35.5 25.7,35.2 L21.7,31.1 L21.7,31.1 L17.8,35.3 C17.5,35.6 17.1,35.5 17,35.1 L16,30.9 L15.5,29 L15.5,29 L3.3,34 C1.3,34.8 0,36.8 0,38.9 L0,46 C0,47.1 0.9,47.9 1.9,47.9 L41.5,47.9 C42.6,47.9 43.4,47 43.4,46 L43.4,38.9 C43.4,36.8 42.1,34.8 40.1,34 Z" id="Path" fill="#444445"></path>
            <path d="M27.9,23.9 L27.9,26.6 L21.7,31.1 L15.5,26.6 L15.5,23.9 C15.7,24.1 15.9,24.2 16,24.3 L19.2,26.5 C19.5,26.7 19.9,26.9 20.3,26.9 L23,26.9 C23.4,26.9 23.8,26.8 24.1,26.5 L27.3,24.3 C27.5,24.2 27.7,24 27.9,23.9 Z" id="Path" fill="#F7BA49"></path>
            <path d="M29.5,6.3 L23.3,4.3 L16.6,4.7 L14.1,7.3 L13,10 L13,18.5 C13,20.8 14.1,23 16,24.3 L19.1,26.5 C19.4,26.7 19.8,26.9 20.3,26.9 L23,26.9 C23.4,26.9 23.8,26.8 24.1,26.5 L27.3,24.3 C29.2,23 30.4,20.8 30.4,18.5 L30.4,9.4 L29.5,6.3 Z" id="Path" fill="#FFCB66"></path>
            <path d="M27.9,26.6 L27.9,29 L27.5,30.9 L26.5,35.1 C26.4,35.5 25.9,35.6 25.7,35.3 L21.7,31.1 L27.9,26.6 Z M21.7,31.1 L17.8,35.3 C17.5,35.6 17.1,35.5 17,35.1 L16,30.9 L15.5,29 L15.5,26.6 L21.7,31.1 Z" id="Shape" fill="#E5E5E4"></path>
            <path d="M28.9,4.1 C28.9,4.1 26.8,-0.7 21.5,0.5 C21.5,0.5 17.2,0.5 15.7,0 C15.7,0 15.7,1 16.5,1.9 C16.5,1.9 7,4 13.1,16.6 C13.1,16.6 11.7,5 19.8,6.7 C19.8,6.7 21.4,9.4 25.7,7.4 C25.7,7.4 30,6 30,10 L30.2,16.6 C30.3,16.6 36.6,7.3 28.9,4.1 Z" id="Path" fill="#EA715F"></path>
        </g>
        <g id="avatar-copy" transform="translate(63.000000, 170.000000)" fill-rule="nonzero">
            <path d="M18.0092747,2.6318291 C18.0092747,0.942283281 19.595251,-0.315693769 21.2554251,0.0699634288 C27.0984957,1.44731056 28.6937467,6.72714125 28.5360766,12.6130047 C28.4340547,16.4053004 28.7122962,19.7752098 28.9812629,22.0248768 C29.1667572,23.5766879 27.9517695,24.9448527 26.3657932,24.954035 L20.671118,25 C19.1964383,25.0091289 18,23.8337927 18,22.3738047 L18,2.6318291 L18.0092747,2.6318291 Z" id="XMLID_283_" fill="url(#linearGradient-4)"></path>
            <g id="XMLID_161_">
                <g id="XMLID_167_">
                    <path d="M18,2.91103884 C18,1.22135068 16.4375635,-0.0367323513 14.8020305,0.348957337 C9.04568528,1.72642051 7.47411168,7.006696 7.62944162,12.8930553 C7.72994924,16.6856706 7.45583756,20.0558638 7.19086294,22.3057203 C7.00812183,23.8576621 8.20507614,25.2259422 9.76751269,25.2351253 L15.377665,25.2810942 C16.8304569,25.2902238 18.0091371,24.1147886 18.0091371,22.6546776 L18.0091371,2.91103884 L18,2.91103884 Z" id="XMLID_284_" fill="url(#linearGradient-5)"></path>
                    <path d="M10.9553299,15.1796442 C10.9553299,15.1796442 10.5715736,14.114406 9.84974619,14.0225751 C9.23756345,13.9399273 8.47918782,14.7204898 8.61624365,15.785728 C8.75329949,16.8509661 9.05482234,18.6416683 9.05482234,18.6416683 C9.05482234,18.6416683 9.34720812,19.8997513 10.3979695,19.550794 C11.4304569,19.2018366 10.9553299,15.1796442 10.9553299,15.1796442 Z" id="XMLID_791_" fill="url(#linearGradient-6)"></path>
                    <path d="M25.1269036,15.1520949 C25.1269036,15.1520949 25.528934,14.0960398 26.2507614,14.013392 C26.8720812,13.9399273 27.6121827,14.7296729 27.4568528,15.794911 C27.3015228,16.8601492 26.9817259,18.6416683 26.9817259,18.6416683 C26.9817259,18.6416683 26.671066,19.8997513 25.6203046,19.5232447 C24.5786802,19.1651043 25.1269036,15.1520949 25.1269036,15.1520949 L25.1269036,15.1520949 Z" id="XMLID_759_" fill="url(#linearGradient-7)"></path>
                    <g id="XMLID_272_" transform="translate(0.000000, 4.233403)">
                        <g id="XMLID_276_">
                            <path d="M30.8192893,28.7063325 C27.0182741,27.9992347 24.3411168,26.6125885 22.1299492,23.6097188 L13.8609137,23.6097188 C11.6497462,26.6125885 8.98172589,27.9992347 5.1715736,28.7063325 C0.603045685,29.5603597 0,35.0518462 0,36.5854218 L0,43.7665965 L36,43.7665965 L36,36.5854218 C36,35.0518462 35.3969543,29.5603597 30.8192893,28.7063325 L30.8192893,28.7063325 Z" id="XMLID_282_" stroke="url(#linearGradient-9)" fill="url(#linearGradient-8)"></path>
                            <path d="M18.0730964,19.1100057 L13.4040609,19.1100057 L13.4040609,28.026784 C13.4040609,28.9267266 14.884264,28.9450928 18.0730964,28.9450928 C21.2619289,28.9450928 22.742132,28.9359097 22.742132,28.026784 L22.742132,19.1100057 L18.0730964,19.1100057 L18.0730964,19.1100057 Z" id="XMLID_281_" fill="url(#linearGradient-10)"></path>
                            <path d="M25.9035533,10.9095083 C25.8761421,4.85785345 24.7888325,0 18,0 C11.2111675,0 10.1238579,4.85785345 10.0964467,10.9095083 C10.0142132,10.5330017 10.315736,13.6368854 10.3431472,13.5358714 C11.4121827,18.6600344 15.7248731,22.3516357 18,22.3516357 C20.2751269,22.3516357 24.5878173,18.6692175 25.6568528,13.5450545 C25.684264,13.4807729 25.9857868,10.5330017 25.9035533,10.9095083 Z" id="XMLID_280_" fill="url(#linearGradient-11)"></path>
                        </g>
                        <path d="M18.6304569,17.0713602 C18.2832487,17.0713602 18.2467005,17.2917544 18,17.2917544 C17.7532995,17.2917544 17.7167513,17.0621772 17.3695431,17.0713602 C16.857868,17.0713602 15.4507614,17.7692749 15.4507614,17.7692749 C15.4507614,17.7692749 15.5969543,17.8427396 15.9258883,17.9713029 C16.7025381,18.2743447 16.7847716,18.7794146 18,18.7794146 C19.2152284,18.7794146 19.2974619,18.2743447 20.0741117,17.9713029 C20.4030457,17.8427396 20.5492386,17.7692749 20.5492386,17.7692749 C20.5492386,17.7692749 19.142132,17.0713602 18.6304569,17.0713602 L18.6304569,17.0713602 Z" id="XMLID_275_" fill="url(#linearGradient-12)"></path>
                        <ellipse id="XMLID_274_" fill="url(#linearGradient-13)" cx="25.9857868" cy="14.6837574" rx="1" ry="1"></ellipse>
                        <ellipse id="XMLID_273_" fill="url(#linearGradient-14)" cx="10.1055838" cy="14.8031376" rx="1" ry="1"></ellipse>
                    </g>
                    <g id="XMLID_172_" transform="translate(16.081218, 37.669026)">
                        <ellipse id="XMLID_260_" fill="url(#linearGradient-15)" cx="0.5" cy="0.495886742" rx="1" ry="1"></ellipse>
                        <ellipse id="XMLID_220_" fill="url(#linearGradient-16)" cx="0.5" cy="3.46202411" rx="1" ry="1"></ellipse>
                        <ellipse id="XMLID_210_" fill="url(#linearGradient-17)" cx="0.5" cy="6.42816147" rx="1" ry="1"></ellipse>
                    </g>
                    <path d="M26.2324873,5.48230342 C25.3918782,1.94681462 22.4406091,0 18,0 C13.5593909,0 10.6081218,1.94681462 9.76751269,5.48230342 C8.54314721,10.5972833 10.2426396,16.1806007 10.4071066,16.6397551 C10.4071066,16.6397551 9.94111675,14.1878707 10.8822335,12.0849436 C10.6903553,13.4073082 10.7360406,14.3990817 10.7360406,14.3990817 C10.7360406,14.3990817 14.8477157,13.2971112 18,11.295198 C19.3705584,10.4228047 20.5492386,9.38511575 21.1431472,8.19131433 C21.3350254,7.79644155 21.8284264,7.65869524 22.1939086,7.89745552 C23.1898477,8.54027167 24.057868,9.50449589 24.8345178,10.9095083 C26.1411168,13.278745 25.4101523,16.8142338 25.4101523,16.8142338 C25.5654822,16.3550794 27.4568528,10.5972833 26.2324873,5.48230342 L26.2324873,5.48230342 Z" id="XMLID_171_" fill="url(#linearGradient-18)"></path>
                </g>
                <g id="XMLID_163_" transform="translate(11.530964, 28.908360)">
                    <polygon id="XMLID_166_" fill="url(#linearGradient-19)" points="11.1380711 0 6.40507614 4.31605127 7.65685279 7.3097379 12.9015228 1.64377272"></polygon>
                    <polygon id="XMLID_165_" fill="url(#linearGradient-20)" points="0 1.68968816 5.19898477 7.27300555 6.32284264 4.21503731 1.78172589 0.0367323513"></polygon>
                </g>
            </g>
        </g>
        <text id="Developer-B-Copy" fill-rule="nonzero" font-family="Helvetica-Bold, Helvetica" font-size="18" font-weight="bold" fill="#0055C2">
            <tspan x="27" y="241">Developer B</tspan>
        </text>
        <g id="documents-copy-22" transform="translate(221.000000, 373.000000)" fill-rule="nonzero">
            <path d="M42,13 L42,51 L9,51 L9,46.6571429 C9.01079554,46.6442229 37.0787063,13.0171543 37.0929368,13 L42,13 Z" id="Path" fill="#A4C2F7"></path>
            <path d="M38,47 C36.8690759,47 1.69483448,47 1,47 C1,44.1492048 1,2.90330476 1,1 L27.7931034,1 L30.5575138,7.0968619 L38,9.76190476 C38,11.4015857 38,45.1373286 38,47 Z" id="Path" fill="#FFFFFF"></path>
            <polygon id="Path" fill="#A4C2F7" points="38 10 28 10 28 1"></polygon>
            <path d="M36.7741935,47 L1.22580645,47 C0.548793548,47 0,46.5216682 0,45.9318182 L0,1.06818182 C0,0.478225 0.548793548,0 1.22580645,0 L26.9677419,0 C27.2928258,0 27.6045484,0.112586364 27.8345097,0.312870455 L37.6409613,8.858325 C37.8708,9.05860909 38,9.33035455 38,9.61363636 L38,45.9318182 C38,46.5216682 37.4510839,47 36.7741935,47 Z M2.4516129,44.8636364 L35.5483871,44.8636364 L35.5483871,10.0560773 L26.4598903,2.13636364 L2.4516129,2.13636364 L2.4516129,44.8636364 Z" id="Shape" fill="#418CFE"></path>
            <path d="M36.9446367,10.8333333 L27.2560554,10.8333333 C26.587301,10.8333333 26.0449827,10.348325 26.0449827,9.75 L26.0449827,1.08333333 C26.0449827,0.485008333 26.587301,0 27.2560554,0 C27.9248097,0 28.467128,0.485008333 28.467128,1.08333333 L28.467128,8.66666667 L36.9446367,8.66666667 C37.613391,8.66666667 38.1557093,9.151675 38.1557093,9.75 C38.1557093,10.348325 37.613391,10.8333333 36.9446367,10.8333333 Z M41.7889273,52 L9.21107266,52 C8.54219723,52 8,51.5148833 8,50.9166667 L8,46.5833333 C8,45.9851167 8.54219723,45.5 9.21107266,45.5 C9.8799481,45.5 10.4221453,45.9851167 10.4221453,46.5833333 L10.4221453,49.8333333 L40.5778547,49.8333333 L40.5778547,14.0833333 L36.9446367,14.0833333 C36.2758824,14.0833333 35.733564,13.598325 35.733564,13 C35.733564,12.401675 36.2758824,11.9166667 36.9446367,11.9166667 L41.7889273,11.9166667 C42.4576817,11.9166667 43,12.401675 43,13 L43,50.9166667 C43,51.5148833 42.4576817,52 41.7889273,52 Z" id="Shape" fill="#418CFE"></path>
            <path d="M31.7391304,40 L5.26086957,40 C4.5644913,40 4,39.5114909 4,38.9090909 C4,38.3066909 4.5644913,37.8181818 5.26086957,37.8181818 L31.7391304,37.8181818 C32.4353826,37.8181818 33,38.3066909 33,38.9090909 C33,39.5114909 32.4353826,40 31.7391304,40 Z M31.7391304,35.6363636 L5.26086957,35.6363636 C4.5644913,35.6363636 4,35.1478545 4,34.5454545 C4,33.9430545 4.5644913,33.4545455 5.26086957,33.4545455 L31.7391304,33.4545455 C32.4353826,33.4545455 33,33.9430545 33,34.5454545 C33,35.1478545 32.4353826,35.6363636 31.7391304,35.6363636 Z M31.7391304,31.2727273 L5.26086957,31.2727273 C4.5644913,31.2727273 4,30.7842182 4,30.1818182 C4,29.5794182 4.5644913,29.0909091 5.26086957,29.0909091 L31.7391304,29.0909091 C32.4353826,29.0909091 33,29.5794182 33,30.1818182 C33,30.7842182 32.4353826,31.2727273 31.7391304,31.2727273 Z M31.7391304,26.9090909 L5.26086957,26.9090909 C4.5644913,26.9090909 4,26.4206909 4,25.8181818 C4,25.2156727 4.5644913,24.7272727 5.26086957,24.7272727 L31.7391304,24.7272727 C32.4353826,24.7272727 33,25.2156727 33,25.8181818 C33,26.4206909 32.4353826,26.9090909 31.7391304,26.9090909 Z M31.7391304,22.5454545 L5.26086957,22.5454545 C4.5644913,22.5454545 4,22.0570545 4,21.4545455 C4,20.8520364 4.5644913,20.3636364 5.26086957,20.3636364 L31.7391304,20.3636364 C32.4353826,20.3636364 33,20.8520364 33,21.4545455 C33,22.0570545 32.4353826,22.5454545 31.7391304,22.5454545 Z M16.6086957,18.1818182 L5.26086957,18.1818182 C4.5644913,18.1818182 4,17.6934182 4,17.0909091 C4,16.4884 4.5644913,16 5.26086957,16 L16.6086957,16 C17.3050739,16 17.8695652,16.4884 17.8695652,17.0909091 C17.8695652,17.6934182 17.3050739,18.1818182 16.6086957,18.1818182 Z" id="Shape" fill="#418CFE"></path>
        </g>
        <g id="documents-copy-23" transform="translate(443.000000, 373.000000)" fill-rule="nonzero">
            <path d="M42,13 L42,51 L9,51 L9,46.6571429 C9.01079554,46.6442229 37.0787063,13.0171543 37.0929368,13 L42,13 Z" id="Path" fill="#A4C2F7"></path>
            <path d="M38,47 C36.8690759,47 1.69483448,47 1,47 C1,44.1492048 1,2.90330476 1,1 L27.7931034,1 L30.5575138,7.0968619 L38,9.76190476 C38,11.4015857 38,45.1373286 38,47 Z" id="Path" fill="#FFFFFF"></path>
            <polygon id="Path" fill="#A4C2F7" points="38 10 28 10 28 1"></polygon>
            <path d="M36.7741935,47 L1.22580645,47 C0.548793548,47 0,46.5216682 0,45.9318182 L0,1.06818182 C0,0.478225 0.548793548,0 1.22580645,0 L26.9677419,0 C27.2928258,0 27.6045484,0.112586364 27.8345097,0.312870455 L37.6409613,8.858325 C37.8708,9.05860909 38,9.33035455 38,9.61363636 L38,45.9318182 C38,46.5216682 37.4510839,47 36.7741935,47 Z M2.4516129,44.8636364 L35.5483871,44.8636364 L35.5483871,10.0560773 L26.4598903,2.13636364 L2.4516129,2.13636364 L2.4516129,44.8636364 Z" id="Shape" fill="#418CFE"></path>
            <path d="M36.9446367,10.8333333 L27.2560554,10.8333333 C26.587301,10.8333333 26.0449827,10.348325 26.0449827,9.75 L26.0449827,1.08333333 C26.0449827,0.485008333 26.587301,0 27.2560554,0 C27.9248097,0 28.467128,0.485008333 28.467128,1.08333333 L28.467128,8.66666667 L36.9446367,8.66666667 C37.613391,8.66666667 38.1557093,9.151675 38.1557093,9.75 C38.1557093,10.348325 37.613391,10.8333333 36.9446367,10.8333333 Z M41.7889273,52 L9.21107266,52 C8.54219723,52 8,51.5148833 8,50.9166667 L8,46.5833333 C8,45.9851167 8.54219723,45.5 9.21107266,45.5 C9.8799481,45.5 10.4221453,45.9851167 10.4221453,46.5833333 L10.4221453,49.8333333 L40.5778547,49.8333333 L40.5778547,14.0833333 L36.9446367,14.0833333 C36.2758824,14.0833333 35.733564,13.598325 35.733564,13 C35.733564,12.401675 36.2758824,11.9166667 36.9446367,11.9166667 L41.7889273,11.9166667 C42.4576817,11.9166667 43,12.401675 43,13 L43,50.9166667 C43,51.5148833 42.4576817,52 41.7889273,52 Z" id="Shape" fill="#418CFE"></path>
            <path d="M31.7391304,40 L5.26086957,40 C4.5644913,40 4,39.5114909 4,38.9090909 C4,38.3066909 4.5644913,37.8181818 5.26086957,37.8181818 L31.7391304,37.8181818 C32.4353826,37.8181818 33,38.3066909 33,38.9090909 C33,39.5114909 32.4353826,40 31.7391304,40 Z M31.7391304,35.6363636 L5.26086957,35.6363636 C4.5644913,35.6363636 4,35.1478545 4,34.5454545 C4,33.9430545 4.5644913,33.4545455 5.26086957,33.4545455 L31.7391304,33.4545455 C32.4353826,33.4545455 33,33.9430545 33,34.5454545 C33,35.1478545 32.4353826,35.6363636 31.7391304,35.6363636 Z M31.7391304,31.2727273 L5.26086957,31.2727273 C4.5644913,31.2727273 4,30.7842182 4,30.1818182 C4,29.5794182 4.5644913,29.0909091 5.26086957,29.0909091 L31.7391304,29.0909091 C32.4353826,29.0909091 33,29.5794182 33,30.1818182 C33,30.7842182 32.4353826,31.2727273 31.7391304,31.2727273 Z M31.7391304,26.9090909 L5.26086957,26.9090909 C4.5644913,26.9090909 4,26.4206909 4,25.8181818 C4,25.2156727 4.5644913,24.7272727 5.26086957,24.7272727 L31.7391304,24.7272727 C32.4353826,24.7272727 33,25.2156727 33,25.8181818 C33,26.4206909 32.4353826,26.9090909 31.7391304,26.9090909 Z M31.7391304,22.5454545 L5.26086957,22.5454545 C4.5644913,22.5454545 4,22.0570545 4,21.4545455 C4,20.8520364 4.5644913,20.3636364 5.26086957,20.3636364 L31.7391304,20.3636364 C32.4353826,20.3636364 33,20.8520364 33,21.4545455 C33,22.0570545 32.4353826,22.5454545 31.7391304,22.5454545 Z M16.6086957,18.1818182 L5.26086957,18.1818182 C4.5644913,18.1818182 4,17.6934182 4,17.0909091 C4,16.4884 4.5644913,16 5.26086957,16 L16.6086957,16 C17.3050739,16 17.8695652,16.4884 17.8695652,17.0909091 C17.8695652,17.6934182 17.3050739,18.1818182 16.6086957,18.1818182 Z" id="Shape" fill="#418CFE"></path>
        </g>
        <g id="documents-copy-24" transform="translate(654.000000, 373.000000)" fill-rule="nonzero">
            <path d="M42,13 L42,51 L9,51 L9,46.6571429 C9.01079554,46.6442229 37.0787063,13.0171543 37.0929368,13 L42,13 Z" id="Path" fill="#A4C2F7"></path>
            <path d="M38,47 C36.8690759,47 1.69483448,47 1,47 C1,44.1492048 1,2.90330476 1,1 L27.7931034,1 L30.5575138,7.0968619 L38,9.76190476 C38,11.4015857 38,45.1373286 38,47 Z" id="Path" fill="#FFFFFF"></path>
            <polygon id="Path" fill="#A4C2F7" points="38 10 28 10 28 1"></polygon>
            <path d="M36.7741935,47 L1.22580645,47 C0.548793548,47 0,46.5216682 0,45.9318182 L0,1.06818182 C0,0.478225 0.548793548,0 1.22580645,0 L26.9677419,0 C27.2928258,0 27.6045484,0.112586364 27.8345097,0.312870455 L37.6409613,8.858325 C37.8708,9.05860909 38,9.33035455 38,9.61363636 L38,45.9318182 C38,46.5216682 37.4510839,47 36.7741935,47 Z M2.4516129,44.8636364 L35.5483871,44.8636364 L35.5483871,10.0560773 L26.4598903,2.13636364 L2.4516129,2.13636364 L2.4516129,44.8636364 Z" id="Shape" fill="#418CFE"></path>
            <path d="M36.9446367,10.8333333 L27.2560554,10.8333333 C26.587301,10.8333333 26.0449827,10.348325 26.0449827,9.75 L26.0449827,1.08333333 C26.0449827,0.485008333 26.587301,0 27.2560554,0 C27.9248097,0 28.467128,0.485008333 28.467128,1.08333333 L28.467128,8.66666667 L36.9446367,8.66666667 C37.613391,8.66666667 38.1557093,9.151675 38.1557093,9.75 C38.1557093,10.348325 37.613391,10.8333333 36.9446367,10.8333333 Z M41.7889273,52 L9.21107266,52 C8.54219723,52 8,51.5148833 8,50.9166667 L8,46.5833333 C8,45.9851167 8.54219723,45.5 9.21107266,45.5 C9.8799481,45.5 10.4221453,45.9851167 10.4221453,46.5833333 L10.4221453,49.8333333 L40.5778547,49.8333333 L40.5778547,14.0833333 L36.9446367,14.0833333 C36.2758824,14.0833333 35.733564,13.598325 35.733564,13 C35.733564,12.401675 36.2758824,11.9166667 36.9446367,11.9166667 L41.7889273,11.9166667 C42.4576817,11.9166667 43,12.401675 43,13 L43,50.9166667 C43,51.5148833 42.4576817,52 41.7889273,52 Z" id="Shape" fill="#418CFE"></path>
            <path d="M31.7391304,40 L5.26086957,40 C4.5644913,40 4,39.5114909 4,38.9090909 C4,38.3066909 4.5644913,37.8181818 5.26086957,37.8181818 L31.7391304,37.8181818 C32.4353826,37.8181818 33,38.3066909 33,38.9090909 C33,39.5114909 32.4353826,40 31.7391304,40 Z M31.7391304,35.6363636 L5.26086957,35.6363636 C4.5644913,35.6363636 4,35.1478545 4,34.5454545 C4,33.9430545 4.5644913,33.4545455 5.26086957,33.4545455 L31.7391304,33.4545455 C32.4353826,33.4545455 33,33.9430545 33,34.5454545 C33,35.1478545 32.4353826,35.6363636 31.7391304,35.6363636 Z M31.7391304,31.2727273 L5.26086957,31.2727273 C4.5644913,31.2727273 4,30.7842182 4,30.1818182 C4,29.5794182 4.5644913,29.0909091 5.26086957,29.0909091 L31.7391304,29.0909091 C32.4353826,29.0909091 33,29.5794182 33,30.1818182 C33,30.7842182 32.4353826,31.2727273 31.7391304,31.2727273 Z M31.7391304,26.9090909 L5.26086957,26.9090909 C4.5644913,26.9090909 4,26.4206909 4,25.8181818 C4,25.2156727 4.5644913,24.7272727 5.26086957,24.7272727 L31.7391304,24.7272727 C32.4353826,24.7272727 33,25.2156727 33,25.8181818 C33,26.4206909 32.4353826,26.9090909 31.7391304,26.9090909 Z M31.7391304,22.5454545 L5.26086957,22.5454545 C4.5644913,22.5454545 4,22.0570545 4,21.4545455 C4,20.8520364 4.5644913,20.3636364 5.26086957,20.3636364 L31.7391304,20.3636364 C32.4353826,20.3636364 33,20.8520364 33,21.4545455 C33,22.0570545 32.4353826,22.5454545 31.7391304,22.5454545 Z M16.6086957,18.1818182 L5.26086957,18.1818182 C4.5644913,18.1818182 4,17.6934182 4,17.0909091 C4,16.4884 4.5644913,16 5.26086957,16 L16.6086957,16 C17.3050739,16 17.8695652,16.4884 17.8695652,17.0909091 C17.8695652,17.6934182 17.3050739,18.1818182 16.6086957,18.1818182 Z" id="Shape" fill="#418CFE"></path>
        </g>
        <g id="documents-copy-25" transform="translate(221.000000, 173.000000)" fill-rule="nonzero">
            <path d="M42,13 L42,51 L9,51 L9,46.6571429 C9.01079554,46.6442229 37.0787063,13.0171543 37.0929368,13 L42,13 Z" id="Path" fill="#A4C2F7"></path>
            <path d="M38,47 C36.8690759,47 1.69483448,47 1,47 C1,44.1492048 1,2.90330476 1,1 L27.7931034,1 L30.5575138,7.0968619 L38,9.76190476 C38,11.4015857 38,45.1373286 38,47 Z" id="Path" fill="#FFFFFF"></path>
            <polygon id="Path" fill="#A4C2F7" points="38 10 28 10 28 1"></polygon>
            <path d="M36.7741935,47 L1.22580645,47 C0.548793548,47 0,46.5216682 0,45.9318182 L0,1.06818182 C0,0.478225 0.548793548,0 1.22580645,0 L26.9677419,0 C27.2928258,0 27.6045484,0.112586364 27.8345097,0.312870455 L37.6409613,8.858325 C37.8708,9.05860909 38,9.33035455 38,9.61363636 L38,45.9318182 C38,46.5216682 37.4510839,47 36.7741935,47 Z M2.4516129,44.8636364 L35.5483871,44.8636364 L35.5483871,10.0560773 L26.4598903,2.13636364 L2.4516129,2.13636364 L2.4516129,44.8636364 Z" id="Shape" fill="#418CFE"></path>
            <path d="M36.9446367,10.8333333 L27.2560554,10.8333333 C26.587301,10.8333333 26.0449827,10.348325 26.0449827,9.75 L26.0449827,1.08333333 C26.0449827,0.485008333 26.587301,0 27.2560554,0 C27.9248097,0 28.467128,0.485008333 28.467128,1.08333333 L28.467128,8.66666667 L36.9446367,8.66666667 C37.613391,8.66666667 38.1557093,9.151675 38.1557093,9.75 C38.1557093,10.348325 37.613391,10.8333333 36.9446367,10.8333333 Z M41.7889273,52 L9.21107266,52 C8.54219723,52 8,51.5148833 8,50.9166667 L8,46.5833333 C8,45.9851167 8.54219723,45.5 9.21107266,45.5 C9.8799481,45.5 10.4221453,45.9851167 10.4221453,46.5833333 L10.4221453,49.8333333 L40.5778547,49.8333333 L40.5778547,14.0833333 L36.9446367,14.0833333 C36.2758824,14.0833333 35.733564,13.598325 35.733564,13 C35.733564,12.401675 36.2758824,11.9166667 36.9446367,11.9166667 L41.7889273,11.9166667 C42.4576817,11.9166667 43,12.401675 43,13 L43,50.9166667 C43,51.5148833 42.4576817,52 41.7889273,52 Z" id="Shape" fill="#418CFE"></path>
            <path d="M31.7391304,40 L5.26086957,40 C4.5644913,40 4,39.5114909 4,38.9090909 C4,38.3066909 4.5644913,37.8181818 5.26086957,37.8181818 L31.7391304,37.8181818 C32.4353826,37.8181818 33,38.3066909 33,38.9090909 C33,39.5114909 32.4353826,40 31.7391304,40 Z M31.7391304,35.6363636 L5.26086957,35.6363636 C4.5644913,35.6363636 4,35.1478545 4,34.5454545 C4,33.9430545 4.5644913,33.4545455 5.26086957,33.4545455 L31.7391304,33.4545455 C32.4353826,33.4545455 33,33.9430545 33,34.5454545 C33,35.1478545 32.4353826,35.6363636 31.7391304,35.6363636 Z M31.7391304,31.2727273 L5.26086957,31.2727273 C4.5644913,31.2727273 4,30.7842182 4,30.1818182 C4,29.5794182 4.5644913,29.0909091 5.26086957,29.0909091 L31.7391304,29.0909091 C32.4353826,29.0909091 33,29.5794182 33,30.1818182 C33,30.7842182 32.4353826,31.2727273 31.7391304,31.2727273 Z M31.7391304,26.9090909 L5.26086957,26.9090909 C4.5644913,26.9090909 4,26.4206909 4,25.8181818 C4,25.2156727 4.5644913,24.7272727 5.26086957,24.7272727 L31.7391304,24.7272727 C32.4353826,24.7272727 33,25.2156727 33,25.8181818 C33,26.4206909 32.4353826,26.9090909 31.7391304,26.9090909 Z M31.7391304,22.5454545 L5.26086957,22.5454545 C4.5644913,22.5454545 4,22.0570545 4,21.4545455 C4,20.8520364 4.5644913,20.3636364 5.26086957,20.3636364 L31.7391304,20.3636364 C32.4353826,20.3636364 33,20.8520364 33,21.4545455 C33,22.0570545 32.4353826,22.5454545 31.7391304,22.5454545 Z M16.6086957,18.1818182 L5.26086957,18.1818182 C4.5644913,18.1818182 4,17.6934182 4,17.0909091 C4,16.4884 4.5644913,16 5.26086957,16 L16.6086957,16 C17.3050739,16 17.8695652,16.4884 17.8695652,17.0909091 C17.8695652,17.6934182 17.3050739,18.1818182 16.6086957,18.1818182 Z" id="Shape" fill="#418CFE"></path>
        </g>
        <g id="documents-copy-26" transform="translate(445.000000, 173.000000)" fill-rule="nonzero">
            <path d="M42,13 L42,51 L9,51 L9,46.6571429 C9.01079554,46.6442229 37.0787063,13.0171543 37.0929368,13 L42,13 Z" id="Path" fill="#5DCDDD"></path>
            <path d="M38,47 C36.8690759,47 1.69483448,47 1,47 C1,44.1492048 1,2.90330476 1,1 L27.7931034,1 L30.5575138,7.0968619 L38,9.76190476 C38,11.4015857 38,45.1373286 38,47 Z" id="Path" fill="#FFFFFF"></path>
            <polygon id="Path" fill="#5DCDDD" points="38 10 28 10 28 1"></polygon>
            <path d="M36.7741935,47 L1.22580645,47 C0.548793548,47 0,46.5216682 0,45.9318182 L0,1.06818182 C0,0.478225 0.548793548,0 1.22580645,0 L26.9677419,0 C27.2928258,0 27.6045484,0.112586364 27.8345097,0.312870455 L37.6409613,8.858325 C37.8708,9.05860909 38,9.33035455 38,9.61363636 L38,45.9318182 C38,46.5216682 37.4510839,47 36.7741935,47 Z M2.4516129,44.8636364 L35.5483871,44.8636364 L35.5483871,10.0560773 L26.4598903,2.13636364 L2.4516129,2.13636364 L2.4516129,44.8636364 Z" id="Shape" fill="#199ABD"></path>
            <path d="M36.9446367,10.8333333 L27.2560554,10.8333333 C26.587301,10.8333333 26.0449827,10.348325 26.0449827,9.75 L26.0449827,1.08333333 C26.0449827,0.485008333 26.587301,0 27.2560554,0 C27.9248097,0 28.467128,0.485008333 28.467128,1.08333333 L28.467128,8.66666667 L36.9446367,8.66666667 C37.613391,8.66666667 38.1557093,9.151675 38.1557093,9.75 C38.1557093,10.348325 37.613391,10.8333333 36.9446367,10.8333333 Z M41.7889273,52 L9.21107266,52 C8.54219723,52 8,51.5148833 8,50.9166667 L8,46.5833333 C8,45.9851167 8.54219723,45.5 9.21107266,45.5 C9.8799481,45.5 10.4221453,45.9851167 10.4221453,46.5833333 L10.4221453,49.8333333 L40.5778547,49.8333333 L40.5778547,14.0833333 L36.9446367,14.0833333 C36.2758824,14.0833333 35.733564,13.598325 35.733564,13 C35.733564,12.401675 36.2758824,11.9166667 36.9446367,11.9166667 L41.7889273,11.9166667 C42.4576817,11.9166667 43,12.401675 43,13 L43,50.9166667 C43,51.5148833 42.4576817,52 41.7889273,52 Z" id="Shape" fill="#199ABD"></path>
            <path d="M31.7391304,40 L5.26086957,40 C4.5644913,40 4,39.5114909 4,38.9090909 C4,38.3066909 4.5644913,37.8181818 5.26086957,37.8181818 L31.7391304,37.8181818 C32.4353826,37.8181818 33,38.3066909 33,38.9090909 C33,39.5114909 32.4353826,40 31.7391304,40 Z M31.7391304,35.6363636 L5.26086957,35.6363636 C4.5644913,35.6363636 4,35.1478545 4,34.5454545 C4,33.9430545 4.5644913,33.4545455 5.26086957,33.4545455 L31.7391304,33.4545455 C32.4353826,33.4545455 33,33.9430545 33,34.5454545 C33,35.1478545 32.4353826,35.6363636 31.7391304,35.6363636 Z M31.7391304,31.2727273 L5.26086957,31.2727273 C4.5644913,31.2727273 4,30.7842182 4,30.1818182 C4,29.5794182 4.5644913,29.0909091 5.26086957,29.0909091 L31.7391304,29.0909091 C32.4353826,29.0909091 33,29.5794182 33,30.1818182 C33,30.7842182 32.4353826,31.2727273 31.7391304,31.2727273 Z M31.7391304,26.9090909 L5.26086957,26.9090909 C4.5644913,26.9090909 4,26.4206909 4,25.8181818 C4,25.2156727 4.5644913,24.7272727 5.26086957,24.7272727 L31.7391304,24.7272727 C32.4353826,24.7272727 33,25.2156727 33,25.8181818 C33,26.4206909 32.4353826,26.9090909 31.7391304,26.9090909 Z M31.7391304,22.5454545 L5.26086957,22.5454545 C4.5644913,22.5454545 4,22.0570545 4,21.4545455 C4,20.8520364 4.5644913,20.3636364 5.26086957,20.3636364 L31.7391304,20.3636364 C32.4353826,20.3636364 33,20.8520364 33,21.4545455 C33,22.0570545 32.4353826,22.5454545 31.7391304,22.5454545 Z M16.6086957,18.1818182 L5.26086957,18.1818182 C4.5644913,18.1818182 4,17.6934182 4,17.0909091 C4,16.4884 4.5644913,16 5.26086957,16 L16.6086957,16 C17.3050739,16 17.8695652,16.4884 17.8695652,17.0909091 C17.8695652,17.6934182 17.3050739,18.1818182 16.6086957,18.1818182 Z" id="Shape" fill="#199ABD"></path>
        </g>
        <g id="Rectangle-Copy-49">
            <use fill="black" fill-opacity="1" filter="url(#filter-22)" xlink:href="#path-21"></use>
            <use stroke="#0055C2" stroke-width="0.5" fill="#FFFFFF" fill-rule="evenodd" xlink:href="#path-21"></use>
        </g>
        <g id="Rectangle-Copy-50" transform="translate(406.500000, 469.090909) scale(-1, 1) rotate(-180.000000) translate(-406.500000, -469.090909) ">
            <use fill="black" fill-opacity="1" filter="url(#filter-24)" xlink:href="#path-23"></use>
            <use stroke="#0055C2" stroke-width="0.5" fill="#FFFFFF" fill-rule="evenodd" xlink:href="#path-23"></use>
        </g>
        <text id="Developer-B-creates" font-family="Helvetica-Oblique, Helvetica" font-size="18" font-style="italic" font-weight="normal" fill="#0055C2">
            <tspan x="348" y="72">Developer B </tspan>
            <tspan x="348" y="94" font-family="Helvetica">creates a </tspan>
            <tspan x="348" y="116" font-family="Helvetica">new feature</tspan>
        </text>
        <text id="Developer-A-continue" font-family="Helvetica-Oblique, Helvetica" font-size="18" font-style="italic" font-weight="normal" fill="#0055C2">
            <tspan x="351" y="474">Developer A</tspan>
            <tspan x="449.068359" y="474" font-family="Helvetica"> </tspan>
            <tspan x="351" y="496" font-family="Helvetica">continues his </tspan>
            <tspan x="351" y="518" font-family="Helvetica">coding</tspan>
        </text>
        <g id="Group-2-Copy" transform="translate(569.367441, 305.201325) rotate(49.000000) translate(-569.367441, -305.201325) translate(476.020835, 299.201325)" fill="#DE4040">
            <rect id="Rectangle" transform="translate(89.000000, 5.358443) rotate(-540.000000) translate(-89.000000, -5.358443) " x="9.09494702e-13" y="2.85844278" width="178" height="5"></rect>
            <path d="M182.071108,2.10947522 L186.386566,10.0211479 C186.651028,10.5059962 186.472371,11.1134328 185.987522,11.3778956 C185.840634,11.4580166 185.675989,11.5 185.50867,11.5 L176.877755,11.5 C176.32547,11.5 175.877755,11.0522847 175.877755,10.5 C175.877755,10.332681 175.919738,10.1680365 175.999859,10.0211479 L180.315317,2.10947522 C180.57978,1.62462688 181.187216,1.44596905 181.672064,1.71043177 C181.840631,1.80237715 181.979163,1.9409087 182.071108,2.10947522 Z" id="Triangle-Copy" transform="translate(181.193212, 6.000000) scale(-1, 1) rotate(-450.000000) translate(-181.193212, -6.000000) "></path>
        </g>
        <g id="Group-2-Copy-2" transform="translate(570.346606, 402.000000) rotate(-360.000000) translate(-570.346606, -402.000000) translate(517.000000, 396.000000)" fill="#DE4040">
            <rect id="Rectangle" transform="translate(49.000000, 5.358443) rotate(-540.000000) translate(-49.000000, -5.358443) " x="0" y="2.85844278" width="98" height="5"></rect>
            <path d="M102.071108,2.10947522 L106.386566,10.0211479 C106.651028,10.5059962 106.472371,11.1134328 105.987522,11.3778956 C105.840634,11.4580166 105.675989,11.5 105.50867,11.5 L96.8777545,11.5 C96.3254698,11.5 95.8777545,11.0522847 95.8777545,10.5 C95.8777545,10.332681 95.9197379,10.1680365 95.999859,10.0211479 L100.315317,2.10947522 C100.57978,1.62462688 101.187216,1.44596905 101.672064,1.71043177 C101.840631,1.80237715 101.979163,1.9409087 102.071108,2.10947522 Z" id="Triangle-Copy" transform="translate(101.193212, 6.000000) scale(-1, 1) rotate(-450.000000) translate(-101.193212, -6.000000) "></path>
        </g>
    </g>
</svg>