<?xml version="1.0" encoding="UTF-8"?>
<svg width="800px" height="600px" viewBox="0 0 800 600" version="1.1" xmlns="http://www.w3.org/2000/svg" xmlns:xlink="http://www.w3.org/1999/xlink">
    <title>2041-10-13-11-10_Git&amp;GitHubInitialSettingsOverview</title>
    <defs>
        <path d="M8.68744595,14.5405413 C10.6544909,13.5649687 12,11.5915112 12,9.31636202 C12,6.07252388 9.26504479,3.44227578 5.89152197,3.44227578 C4.52034181,3.44227578 3.25480793,3.87689217 2.23537065,4.61058921 L2.23537065,1.05770107 C2.23537065,0.476155373 1.74046224,0 1.11695169,0 C0.493934821,0 0.0167986821,0.476630104 0.0167986821,1.05770107 L0.0167986821,1.80184219 L0,9.32158406 C-0.0041824725,11.2003327 0.951817666,12.865215 2.41753644,13.8939574 C2.4777647,13.9362085 2.55848043,13.9312238 2.6127846,13.8823265 C2.66758244,13.8334292 2.6779496,13.7558106 2.63746831,13.6950451 C0.724974359,10.8146136 1.16014819,5.53963813 5.89176881,5.53963813 C8.05899866,5.53963813 9.80709909,7.22944376 9.81623206,9.31351363 C9.82240299,10.8599505 9.11620201,12.0365717 8.19549958,12.7781018 C6.36026565,14.2561773 3.64974731,12.6382934 4.49738595,10.4697214 C4.5894562,10.2335427 4.71879884,9.9959397 4.88664808,9.76189723 L5.12361171,9.47705853 C5.19766284,9.39967734 5.25048599,9.29903433 5.2146946,9.19411874 C5.01401603,8.62800181 3.46832203,8.97526767 3.04005964,10.0315445 C3.34292878,9.79631524 3.65986763,9.66433998 3.96940137,9.71489885 C2.38890334,11.275815 3.44141679,13.9563846 5.46005069,14.7513219 C6.40494316,15.1232738 7.55964718,15.0976383 8.68744595,14.5405413" id="path-1"></path>
        <linearGradient x1="28.568518%" y1="104.445731%" x2="78.3472072%" y2="20.6880271%" id="linearGradient-3">
            <stop stop-color="#000F98" offset="0%"></stop>
            <stop stop-color="#00A5FD" offset="100%"></stop>
        </linearGradient>
        <rect id="path-4" x="592" y="0" width="103" height="424"></rect>
        <filter x="-4.9%" y="-1.2%" width="113.6%" height="103.3%" filterUnits="objectBoundingBox" id="filter-5">
            <feOffset dx="2" dy="2" in="SourceAlpha" result="shadowOffsetOuter1"></feOffset>
            <feGaussianBlur stdDeviation="2" in="shadowOffsetOuter1" result="shadowBlurOuter1"></feGaussianBlur>
            <feColorMatrix values="0 0 0 0 0   0 0 0 0 0   0 0 0 0 0  0 0 0 0.5 0" type="matrix" in="shadowBlurOuter1"></feColorMatrix>
        </filter>
        <rect id="path-6" x="0" y="0" width="539" height="425"></rect>
        <filter x="-0.9%" y="-1.2%" width="102.6%" height="103.3%" filterUnits="objectBoundingBox" id="filter-7">
            <feOffset dx="2" dy="2" in="SourceAlpha" result="shadowOffsetOuter1"></feOffset>
            <feGaussianBlur stdDeviation="2" in="shadowOffsetOuter1" result="shadowBlurOuter1"></feGaussianBlur>
            <feComposite in="shadowBlurOuter1" in2="SourceAlpha" operator="out" result="shadowBlurOuter1"></feComposite>
            <feColorMatrix values="0 0 0 0 0   0 0 0 0 0   0 0 0 0 0  0 0 0 0.5 0" type="matrix" in="shadowBlurOuter1"></feColorMatrix>
        </filter>
    </defs>
    <g id="2041-10-13-11-10_Git&amp;GitHubInitialSettingsOverview" stroke="none" stroke-width="1" fill="none" fill-rule="evenodd">
        <rect fill="#FFFFFF" x="0" y="0" width="800" height="600"></rect>
        <g id="bloovee-winner-logo" transform="translate(725.000000, 580.000000)">
            <path d="M13,13.7751507 C13,14.396312 13.4732558,14.8717809 14.0514961,14.8717809 C14.6474304,14.8717809 15.1204503,14.3968042 15.1204503,13.7751507 L15.1204503,2.09687626 C15.1204503,1.49368045 14.6474304,1 14.0514961,1 C13.4557977,1 13,1.49392656 13,2.09687626 L13,13.7751507 Z M21.7920364,15 C24.6483217,15 26.751078,12.7149437 26.751078,9.97312215 L26.751078,9.93645297 C26.751078,7.17641992 24.6657798,4.92778666 21.8269526,4.92778666 C18.9881254,4.92778666 16.885369,7.212843 16.885369,9.97312215 L16.885369,10.0095452 C16.885369,12.7516128 18.9706673,15 21.7920364,15 Z M21.8269526,13.0621935 C20.179994,13.0621935 19.0055834,11.6547366 19.0055834,9.97312215 L19.0055834,9.93645297 C19.0055834,8.25459244 20.0919958,6.86534709 21.7920364,6.86534709 C23.456689,6.86534709 24.6306277,8.27305008 24.6306277,9.97312215 L24.6306277,10.0095452 C24.6306277,11.6731942 23.5444513,13.0621935 21.8269526,13.0621935 Z M32.8092717,15 C35.665557,15 37.7683133,12.7149437 37.7683133,9.97312215 L37.7683133,9.93645297 C37.7683133,7.17641992 35.6830151,4.92778666 32.8441878,4.92778666 C30.0053606,4.92778666 27.9026043,7.212843 27.9026043,9.97312215 L27.9026043,10.0095452 C27.9026043,12.7516128 29.9879025,15 32.8092717,15 Z M32.8441878,13.0621935 C31.1969933,13.0621935 30.0228187,11.6547366 30.0228187,9.97312215 L30.0228187,9.93645297 C30.0228187,8.25459244 31.109231,6.86534709 32.8092717,6.86534709 C34.4739243,6.86534709 35.647863,8.27305008 35.647863,9.97312215 L35.647863,10.0095452 C35.647863,11.6731942 34.5614506,13.0621935 32.8441878,13.0621935 Z M44.1416963,13.9944275 L47.2261164,6.6096472 C47.2784906,6.49988574 47.3487948,6.28060893 47.3487948,6.07954366 C47.3487948,5.47610175 46.8929971,5.01933658 46.3147568,5.01933658 C45.7539746,5.01933658 45.4737015,5.40300947 45.3158709,5.78692847 L42.8976893,12.2215093 L40.5144239,5.82335156 C40.3393711,5.36634029 40.041404,5.01933658 39.4629278,5.01933658 C38.8846875,5.01933658 38.4116676,5.53098247 38.4116676,6.07954366 C38.4116676,6.28060893 38.4817358,6.46346265 38.534346,6.62785874 L41.6182943,13.9944275 C41.8638872,14.5796579 42.2491448,14.9633308 42.8273851,14.9633308 L42.9326055,14.9633308 C43.5108458,14.9633308 43.8965752,14.5612003 44.1416963,13.9944275 Z M50.0949054,9.27837643 C50.2876522,7.77961573 51.1987758,6.73762019 52.4956289,6.73762019 C53.8974665,6.73762019 54.7036056,7.8524619 54.8437422,9.27837643 L50.0949054,9.27837643 Z M56.070527,13.72027 C56.2281217,13.5558739 56.3508002,13.3181395 56.3508002,13.0439819 C56.3508002,12.5320899 55.9830006,12.1481709 55.5095089,12.1481709 C55.2641519,12.1481709 55.1242513,12.2215093 54.9664207,12.3492362 C54.3704864,12.8611282 53.6695676,13.1901665 52.7759021,13.1901665 C51.4089807,13.1901665 50.3402624,12.3128131 50.1123635,10.7409601 L55.9126964,10.7409601 C56.4560206,10.7409601 56.9115824,10.3021604 56.9115824,9.68050697 C56.9115824,7.45057746 55.4568987,4.92778666 52.513087,4.92778666 C49.8672425,4.92778666 47.9919132,7.19438536 47.9919132,9.95466451 L47.9919132,9.9913337 C47.9919132,12.9708897 50.0597533,15 52.7409859,15 C54.1779755,15 55.2292357,14.5063195 56.070527,13.72027 Z M60.1833231,9.27837643 C60.3763058,7.77961573 61.2871935,6.73762019 62.5842825,6.73762019 C63.9858841,6.73762019 64.7920233,7.8524619 64.9321598,9.27837643 L60.1833231,9.27837643 Z M66.1589447,13.72027 C66.3167752,13.5558739 66.4394537,13.3181395 66.4394537,13.0439819 C66.4394537,12.5320899 66.0714183,12.1481709 65.5981624,12.1481709 C65.3528055,12.1481709 65.2126689,12.2215093 65.0548383,12.3492362 C64.4591399,12.8611282 63.7582212,13.1901665 62.8643197,13.1901665 C61.4976342,13.1901665 60.4289159,12.3128131 60.2007812,10.7409601 L66.0011141,10.7409601 C66.5444382,10.7409601 67,10.3021604 67,9.68050697 C67,7.45057746 65.5455522,4.92778666 62.6015046,4.92778666 C59.9556601,4.92778666 58.0805667,7.19438536 58.0805667,9.95466451 L58.0805667,9.9913337 C58.0805667,12.9708897 60.1484069,15 62.8294035,15 C64.2663932,15 65.3178893,14.5063195 66.1589447,13.72027 L66.1589447,13.72027 Z" id="Fill-1" fill="#030060"></path>
            <g id="Group-4">
                <mask id="mask-2" fill="white">
                    <use xlink:href="#path-1"></use>
                </mask>
                <g id="Clip-3"></g>
                <path d="M8.68744595,14.5405413 C10.6544909,13.5649687 12,11.5915112 12,9.31636202 C12,6.07252388 9.26504479,3.44227578 5.89152197,3.44227578 C4.52034181,3.44227578 3.25480793,3.87689217 2.23537065,4.61058921 L2.23537065,1.05770107 C2.23537065,0.476155373 1.74046224,0 1.11695169,0 C0.493934821,0 0.0167986821,0.476630104 0.0167986821,1.05770107 L0.0167986821,1.80184219 L0,9.32158406 C-0.0041824725,11.2003327 0.951817666,12.865215 2.41753644,13.8939574 C2.4777647,13.9362085 2.55848043,13.9312238 2.6127846,13.8823265 C2.66758244,13.8334292 2.6779496,13.7558106 2.63746831,13.6950451 C0.724974359,10.8146136 1.16014819,5.53963813 5.89176881,5.53963813 C8.05899866,5.53963813 9.80709909,7.22944376 9.81623206,9.31351363 C9.82240299,10.8599505 9.11620201,12.0365717 8.19549958,12.7781018 C6.36026565,14.2561773 3.64974731,12.6382934 4.49738595,10.4697214 C4.5894562,10.2335427 4.71879884,9.9959397 4.88664808,9.76189723 L5.12361171,9.47705853 C5.19766284,9.39967734 5.25048599,9.29903433 5.2146946,9.19411874 C5.01401603,8.62800181 3.46832203,8.97526767 3.04005964,10.0315445 C3.34292878,9.79631524 3.65986763,9.66433998 3.96940137,9.71489885 C2.38890334,11.275815 3.44141679,13.9563846 5.46005069,14.7513219 C6.40494316,15.1232738 7.55964718,15.0976383 8.68744595,14.5405413" id="Fill-2" fill="url(#linearGradient-3)" mask="url(#mask-2)"></path>
            </g>
        </g>
        <text id="Git-&amp;-GitHub-Initial" fill-rule="nonzero" font-family="Helvetica" font-size="18" font-weight="normal" fill="#0055C2">
            <tspan x="10" y="23">Git &amp; GitHub Initial Setting Overview</tspan>
        </text>
        <g id="git" transform="translate(661.000000, 9.000000)">
            <path d="M46.8658496,11.2380575 C45.1623498,11.2380575 43.8939053,12.0891281 43.8939053,14.1376499 C43.8939053,15.6808485 44.7297841,16.7522856 46.7743573,16.7522856 C48.5071097,16.7522856 49.6846843,15.7131436 49.6846843,14.073693 C49.6846843,12.2157755 48.6309666,11.2380575 46.8658496,11.2380575 L46.8658496,11.2380575 Z M43.4607172,25.7011913 C43.0574041,26.2046147 42.6553359,26.7397 42.6553359,27.3710373 C42.6553359,28.6305458 44.2337339,29.0092215 46.4027864,29.0092215 C48.1984009,29.0092215 50.6450424,28.8813076 50.6450424,27.1823327 C50.6450424,26.1723196 49.4674678,26.1102624 47.9805621,26.0152768 L43.4607172,25.7011913 Z M52.6255087,11.3330431 C53.1825537,12.0580995 53.7719634,13.0662128 53.7719634,14.5156924 C53.7719634,18.0124273 51.0776081,20.0603158 47.1764255,20.0603158 C46.1843252,20.0603158 45.2862067,19.9349349 44.7291617,19.7772589 L43.7071863,21.4471049 L46.7413702,21.6351763 C52.0989611,21.9828234 55.257002,22.1404995 55.257002,26.3293624 C55.257002,29.9533779 52.1300809,32 46.7413702,32 C41.1360655,32 39,30.5505204 39,28.0625322 C39,26.6440812 39.6199071,25.8898959 40.7034998,24.848221 C39.680902,24.4087545 39.3410734,23.6216409 39.3410734,22.7705703 C39.3410734,22.0771758 39.6815244,21.4471049 40.2391918,20.8480627 C40.7968593,20.2502869 41.416144,19.6506115 42.1586633,18.9578502 C40.6412601,18.2017651 39.4960502,16.563581 39.4960502,14.231369 C39.4960502,10.6086199 41.8493321,8.12063165 46.5870158,8.12063165 C47.9189448,8.12063165 48.7249485,8.24537935 49.436348,8.43598369 L55.4754632,8.43598369 L55.4754632,11.1133099 L52.6255087,11.3330431 L52.6255087,11.3330431 Z M60.9233016,5.60858036 C59.1575621,5.60858036 58.1355867,4.56817192 58.1355867,2.77167847 C58.1355867,0.977717972 59.1575621,0 60.9233016,0 C62.7195385,0 63.7408917,0.977084735 63.7408917,2.77167847 C63.7415139,4.56817192 62.7195385,5.60858036 60.9233016,5.60858036 Z M56.9275147,24.5423675 L56.9275147,22.0543792 L58.50778,21.8340127 C58.9409681,21.770689 59.0025853,21.6763367 59.0025853,21.2026754 L59.0025853,11.9403174 C59.0025853,11.59457 58.9104706,11.372937 58.5998947,11.279218 L56.9275147,10.6801757 L57.2679657,8.12949697 L63.6792742,8.12949697 L63.6792742,21.2033087 C63.6792742,21.7086318 63.7091492,21.770689 64.174702,21.834646 L65.7543448,22.0550125 L65.7543448,24.5430008 L56.9275147,24.5430008 L56.9275147,24.5423675 Z M78,23.32022 C76.6674487,23.9806863 74.7174798,24.5803617 72.9511179,24.5803617 C69.2665294,24.5803617 67.8736056,23.0694582 67.8736056,19.5074999 L67.8736056,11.2532552 C67.8736056,11.0651838 67.8736056,10.9385364 67.6252693,10.9385364 L65.458084,10.9385364 L65.458084,8.13456287 C68.1841815,7.81857759 69.2671518,6.43242174 69.6076028,2.99837733 L72.5502944,2.99837733 L72.5502944,7.47346341 C72.5502944,7.69319666 72.5502944,7.78881545 72.7980083,7.78881545 L77.1641212,7.78881545 L77.1641212,10.9391697 L72.5502944,10.9391697 L72.5502944,18.4683579 C72.5502944,20.3269086 72.9841049,21.0513318 74.6558625,21.0513318 C75.5241059,21.0513318 76.4209796,20.8315985 77.1641212,20.5479083 L78,23.32022 L78,23.32022 Z" id="Shape" fill="#31251C" fill-rule="nonzero"></path>
            <path d="M32.3772539,15.0299695 L17.9690664,0.622277028 C17.140005,-0.207425676 15.7941261,-0.207425676 14.9644314,0.622277028 L11.9724635,3.61427365 L15.7668919,7.40937182 C16.6497884,7.11169223 17.6606226,7.31120089 18.3636464,8.01486479 C19.0704703,8.72232885 19.2687104,9.74203981 18.9634334,10.6274783 L22.6210571,14.2851371 C23.5052204,13.9804906 24.5268216,14.1774658 25.2336455,14.8849299 C26.221679,15.8723394 26.221679,17.4728423 25.2336455,18.4608852 C24.2449787,19.4489281 22.6451246,19.4489281 21.6570912,18.4608852 C20.914166,17.7173195 20.7304932,16.6260388 21.1067059,15.7108324 L17.6954571,12.2995509 L17.6948238,21.2768075 C17.9361319,21.3958793 18.1628729,21.5542195 18.3636464,21.7543616 C19.3516798,22.7417711 19.3516798,24.3416406 18.3636464,25.3309502 C17.375613,26.3183598 15.7744921,26.3183598 14.7877254,25.3309502 C13.799692,24.3416406 13.799692,22.7417711 14.7877254,21.7543616 C15.0322003,21.5105176 15.3140432,21.3262096 15.6155201,21.2027043 L15.6155201,12.1424774 C15.3140432,12.0196054 15.0322003,11.8359308 14.7877254,11.5908201 C14.0391001,10.842821 13.8592273,9.74520661 14.2430403,8.82620003 L10.5024471,5.08430417 L0.622746073,14.9634666 C-0.207582024,15.7938027 -0.207582024,17.1396945 0.622746073,17.9700305 L15.0309336,32.377723 C15.8606284,33.2074257 17.2058739,33.2074257 18.0368353,32.377723 L32.3772539,18.0359 C33.207582,17.2061973 33.207582,15.8596722 32.3772539,15.0299695 L32.3772539,15.0299695 Z" id="Path" fill="#F34F29" fill-rule="nonzero"></path>
            <polygon id="Path" points="1.12409637e-15 0 79 0 79 33 0 33"></polygon>
        </g>
        <g id="github-copy" transform="translate(748.000000, 3.000000)" fill="#000000" fill-rule="nonzero">
            <path d="M22.9998956,0 C11.7204239,0.000469179946 2.10590223,8.20619911 0.299077857,19.3745239 C-1.50774651,30.5428487 5.02642435,41.3773525 15.7268887,44.9558377 C16.8767785,45.1577383 17.3079872,44.4656891 17.3079872,43.8600567 C17.3079872,43.3121892 17.279217,41.4954764 17.279217,39.5634644 C11.5009978,40.6303861 10.0061411,38.1505528 9.54618516,36.8529173 C9.03580825,35.5908656 8.22674528,34.472458 7.1889111,33.5943411 C6.38398825,33.161796 5.23409847,32.0948512 7.16014086,32.066061 C8.65271236,32.2285228 9.97246422,33.1110528 10.6960749,34.4305721 C11.3313462,35.5753322 12.3946869,36.4194146 13.6513665,36.7764896 C14.9080461,37.1335647 16.2547288,36.9742705 17.3941369,36.3337708 C17.4936968,35.160991 18.0147545,34.0644705 18.8602924,33.2483742 C13.7432829,32.6716473 8.39629538,30.6818473 8.39629538,21.8580182 C8.36397821,19.5652878 9.20739391,17.3470389 10.7535694,15.6582042 C10.0504849,13.6655423 10.1327507,11.4787423 10.9835474,9.54489918 C10.9835474,9.54489918 12.9095438,8.93931288 17.3079412,11.9094794 C21.0710431,10.8713094 25.0437372,10.8713094 28.806839,11.9094794 C33.2051215,8.9104996 35.1312329,9.54489918 35.1312329,9.54489918 C35.982145,11.4787155 36.0644125,13.6655602 35.3612108,15.6582042 C36.9120423,17.3441484 37.7561944,19.564334 37.7184849,21.8580182 C37.7184849,30.7107067 32.3427041,32.6716473 27.2257406,33.2483742 C28.336287,34.3774629 28.9028084,35.9349635 28.7780918,37.5161532 C28.7780918,40.6016882 28.7493216,43.0815215 28.7493216,43.8601489 C28.7493216,44.4657352 29.1805302,45.1866208 30.33042,44.95593 C41.0111617,41.3485442 47.5153422,30.5121007 45.6961446,19.3555019 C43.876947,8.19890308 34.2698179,0.00588375885 22.9998956,0 Z" id="Path"></path>
        </g>
        <g id="Group" transform="translate(53.000000, 99.000000)">
            <path id="Line-4-Copy-19" d="M583.132122,218.027108 L592.132122,222.527108 L583.132122,227.027108 L583.132,223.027 L538.720357,223.027108 L538.720357,222.027108 L583.132,222.027 L583.132122,218.027108 Z" fill="#363636" fill-rule="nonzero"></path>
            <g id="Rectangle-Copy-20">
                <use fill="black" fill-opacity="1" filter="url(#filter-5)" xlink:href="#path-4"></use>
                <use fill="#E6E6E6" fill-rule="evenodd" xlink:href="#path-4"></use>
            </g>
            <text id="Launch-a-Project" font-family="Helvetica" font-size="18" font-weight="normal" fill="#363636">
                <tspan x="606.967285" y="217">Launch a </tspan>
                <tspan x="615.989258" y="239">Project</tspan>
            </text>
            <g id="Rectangle-Copy-19">
                <use fill="black" fill-opacity="1" filter="url(#filter-7)" xlink:href="#path-6"></use>
                <use fill-opacity="0.5" fill="#C5DDFF" fill-rule="evenodd" xlink:href="#path-6"></use>
            </g>
            <text id="Install-Git" font-family="Helvetica-Bold, Helvetica" font-size="18" font-weight="bold" fill="#0055C2">
                <tspan x="90" y="112">Install Git</tspan>
            </text>
            <text id="Git-User-Setings" font-family="Helvetica-Bold, Helvetica" font-size="18" font-weight="bold" fill="#0055C2">
                <tspan x="92" y="205">Git User Setings</tspan>
            </text>
            <text id="Sign-Up-GitHub" font-family="Helvetica-Bold, Helvetica" font-size="18" font-weight="bold" fill="#0055C2">
                <tspan x="90" y="299">Sign Up GitHub</tspan>
            </text>
            <text id="GitHub-Access-Authen" font-family="Helvetica-Bold, Helvetica" font-size="18" font-weight="bold" fill="#0055C2">
                <tspan x="90" y="392">GitHub Access Authentication Settings</tspan>
            </text>
            <g id="git-copy-8" transform="translate(87.000000, 149.000000)">
                <path d="M23.033769,5.61902877 C22.1601794,5.61902877 21.509695,6.04456406 21.509695,7.06882495 C21.509695,7.84042427 21.9383508,8.37614279 22.9868499,8.37614279 C23.8754409,8.37614279 24.4793253,7.85657181 24.4793253,7.03684648 C24.4793253,6.10788776 23.9389572,5.61902877 23.033769,5.61902877 L23.033769,5.61902877 Z M21.2875473,12.8505956 C21.0807201,13.1023074 20.8745312,13.36985 20.8745312,13.6855187 C20.8745312,14.3152729 21.6839661,14.5046108 22.7963007,14.5046108 C23.7171287,14.5046108 24.9718166,14.4406538 24.9718166,13.5911663 C24.9718166,13.0861598 24.3679322,13.0551312 23.6054164,13.0076384 L21.2875473,12.8505956 Z M25.9874404,5.66652155 C26.2731045,6.02904975 26.5753659,6.53310642 26.5753659,7.2578462 C26.5753659,9.00621364 25.1936452,10.0301579 23.1930387,10.0301579 C22.6842693,10.0301579 22.2236958,9.96746745 21.9380316,9.88862944 L21.4139417,10.7235525 L22.9699335,10.8175882 C25.7174159,10.9914117 27.3369241,11.0702497 27.3369241,13.1646812 C27.3369241,14.976689 25.7333748,16 22.9699335,16 C20.0954182,16 19,15.2752602 19,14.0312661 C19,13.3220406 19.3179011,12.944948 19.8735896,12.4241105 C19.3491805,12.2043773 19.1749094,11.8108204 19.1749094,11.3852852 C19.1749094,11.0385879 19.3494997,10.7235525 19.635483,10.4240313 C19.9214663,10.1251435 20.2390482,9.82530573 20.6198273,9.47892508 C19.8416719,9.10088257 19.2543847,8.28179048 19.2543847,7.11568449 C19.2543847,5.30430997 20.461196,4.06031583 22.8907774,4.06031583 C23.5738178,4.06031583 23.9871531,4.12268967 24.3519733,4.21799185 L27.4489555,4.21799185 L27.4489555,5.55665493 L25.9874404,5.66652155 L25.9874404,5.66652155 Z M30.2427188,2.80429018 C29.3372113,2.80429018 28.8131214,2.28408596 28.8131214,1.38583924 C28.8131214,0.488858986 29.3372113,0 30.2427188,0 C31.1638659,0 31.6876368,0.488542368 31.6876368,1.38583924 C31.6879558,2.28408596 31.1638659,2.80429018 30.2427188,2.80429018 Z M28.1935973,12.2711838 L28.1935973,11.0271896 L29.0039897,10.9170064 C29.2261375,10.8853445 29.2577361,10.8381684 29.2577361,10.6013377 L29.2577361,5.97015871 C29.2577361,5.797285 29.2104978,5.68646852 29.051228,5.63960898 L28.1935973,5.34008786 L28.3681875,4.06474849 L31.656038,4.06474849 L31.656038,10.6016543 C31.656038,10.8543159 31.6713586,10.8853445 31.9101036,10.917323 L32.7201768,11.0275062 L32.7201768,12.2715004 L28.1935973,12.2715004 L28.1935973,12.2711838 Z M39,11.66011 C38.3166403,11.9903431 37.3166563,12.2901809 36.4108297,12.2901809 C34.5212971,12.2901809 33.8069772,11.5347291 33.8069772,9.75374995 L33.8069772,5.62662762 C33.8069772,5.53259192 33.8069772,5.46926822 33.6796253,5.46926822 L32.5682482,5.46926822 L32.5682482,4.06728143 C33.9662469,3.9092888 34.5216163,3.21621087 34.6962066,1.49918867 L36.2052792,1.49918867 L36.2052792,3.73673171 C36.2052792,3.84659833 36.2052792,3.89440773 36.332312,3.89440773 L38.5713442,3.89440773 L38.5713442,5.46958483 L36.2052792,5.46958483 L36.2052792,9.23417897 C36.2052792,10.1634543 36.4277461,10.5256659 37.2850577,10.5256659 C37.7303107,10.5256659 38.1902459,10.4157993 38.5713442,10.2739542 L39,11.66011 L39,11.66011 Z" id="Shape" fill="#31251C" fill-rule="nonzero"></path>
                <path d="M16.6791914,7.74271155 L9.25679177,0.320566954 C8.82969954,-0.106855651 8.136368,-0.106855651 7.70894949,0.320566954 L6.16763269,1.86189855 L8.12233823,3.81694912 C8.57716372,3.66359903 9.09789649,3.76637622 9.46006026,4.12886974 C9.82418168,4.49332092 9.92630533,5.01862657 9.76904143,5.47476153 L11.6532719,7.35901004 C12.1087499,7.2020709 12.6350293,7.30354298 12.9991507,7.66799417 C13.5081376,8.17665969 13.5081376,9.00116116 12.9991507,9.51015297 C12.4898375,10.0191448 11.6656703,10.0191448 11.1566833,9.51015297 C10.7739643,9.12710401 10.679345,8.56492908 10.8731515,8.09345911 L9.11584155,6.33613228 L9.11551527,10.9607796 C9.23982554,11.0221196 9.35663151,11.1036888 9.46006026,11.2067923 C9.96904718,11.7154578 9.96904718,12.539633 9.46006026,13.0492774 C8.95107334,13.5579429 8.12625351,13.5579429 7.61791914,13.0492774 C7.10893222,12.539633 7.10893222,11.7154578 7.61791914,11.2067923 C7.74386078,11.0811757 7.88905256,10.9862292 8.04435882,10.9226052 L8.04435882,6.25521563 C7.88905256,6.19191793 7.74386078,6.09729766 7.61791914,5.97102854 C7.23226367,5.58569564 7.13960195,5.02025795 7.33732379,4.54683032 L5.41035151,2.61918699 L0.320808583,7.70845249 C-0.106936194,8.13620137 -0.106936194,8.82953957 0.320808583,9.25728845 L7.74320823,16.679433 C8.17062673,17.1068557 8.863632,17.1068557 9.29170305,16.679433 L16.6791914,9.29122123 C17.1069362,8.86379863 17.1069362,8.17013416 16.6791914,7.74271155 L16.6791914,7.74271155 Z" id="Path" fill="#F34F29" fill-rule="nonzero"></path>
                <polygon id="Path" points="5.54933649e-16 0 39 0 39 17 0 17"></polygon>
            </g>
            <g id="git-copy-7" transform="translate(87.000000, 58.000000)">
                <path d="M23.033769,5.61902877 C22.1601794,5.61902877 21.509695,6.04456406 21.509695,7.06882495 C21.509695,7.84042427 21.9383508,8.37614279 22.9868499,8.37614279 C23.8754409,8.37614279 24.4793253,7.85657181 24.4793253,7.03684648 C24.4793253,6.10788776 23.9389572,5.61902877 23.033769,5.61902877 L23.033769,5.61902877 Z M21.2875473,12.8505956 C21.0807201,13.1023074 20.8745312,13.36985 20.8745312,13.6855187 C20.8745312,14.3152729 21.6839661,14.5046108 22.7963007,14.5046108 C23.7171287,14.5046108 24.9718166,14.4406538 24.9718166,13.5911663 C24.9718166,13.0861598 24.3679322,13.0551312 23.6054164,13.0076384 L21.2875473,12.8505956 Z M25.9874404,5.66652155 C26.2731045,6.02904975 26.5753659,6.53310642 26.5753659,7.2578462 C26.5753659,9.00621364 25.1936452,10.0301579 23.1930387,10.0301579 C22.6842693,10.0301579 22.2236958,9.96746745 21.9380316,9.88862944 L21.4139417,10.7235525 L22.9699335,10.8175882 C25.7174159,10.9914117 27.3369241,11.0702497 27.3369241,13.1646812 C27.3369241,14.976689 25.7333748,16 22.9699335,16 C20.0954182,16 19,15.2752602 19,14.0312661 C19,13.3220406 19.3179011,12.944948 19.8735896,12.4241105 C19.3491805,12.2043773 19.1749094,11.8108204 19.1749094,11.3852852 C19.1749094,11.0385879 19.3494997,10.7235525 19.635483,10.4240313 C19.9214663,10.1251435 20.2390482,9.82530573 20.6198273,9.47892508 C19.8416719,9.10088257 19.2543847,8.28179048 19.2543847,7.11568449 C19.2543847,5.30430997 20.461196,4.06031583 22.8907774,4.06031583 C23.5738178,4.06031583 23.9871531,4.12268967 24.3519733,4.21799185 L27.4489555,4.21799185 L27.4489555,5.55665493 L25.9874404,5.66652155 L25.9874404,5.66652155 Z M30.2427188,2.80429018 C29.3372113,2.80429018 28.8131214,2.28408596 28.8131214,1.38583924 C28.8131214,0.488858986 29.3372113,0 30.2427188,0 C31.1638659,0 31.6876368,0.488542368 31.6876368,1.38583924 C31.6879558,2.28408596 31.1638659,2.80429018 30.2427188,2.80429018 Z M28.1935973,12.2711838 L28.1935973,11.0271896 L29.0039897,10.9170064 C29.2261375,10.8853445 29.2577361,10.8381684 29.2577361,10.6013377 L29.2577361,5.97015871 C29.2577361,5.797285 29.2104978,5.68646852 29.051228,5.63960898 L28.1935973,5.34008786 L28.3681875,4.06474849 L31.656038,4.06474849 L31.656038,10.6016543 C31.656038,10.8543159 31.6713586,10.8853445 31.9101036,10.917323 L32.7201768,11.0275062 L32.7201768,12.2715004 L28.1935973,12.2715004 L28.1935973,12.2711838 Z M39,11.66011 C38.3166403,11.9903431 37.3166563,12.2901809 36.4108297,12.2901809 C34.5212971,12.2901809 33.8069772,11.5347291 33.8069772,9.75374995 L33.8069772,5.62662762 C33.8069772,5.53259192 33.8069772,5.46926822 33.6796253,5.46926822 L32.5682482,5.46926822 L32.5682482,4.06728143 C33.9662469,3.9092888 34.5216163,3.21621087 34.6962066,1.49918867 L36.2052792,1.49918867 L36.2052792,3.73673171 C36.2052792,3.84659833 36.2052792,3.89440773 36.332312,3.89440773 L38.5713442,3.89440773 L38.5713442,5.46958483 L36.2052792,5.46958483 L36.2052792,9.23417897 C36.2052792,10.1634543 36.4277461,10.5256659 37.2850577,10.5256659 C37.7303107,10.5256659 38.1902459,10.4157993 38.5713442,10.2739542 L39,11.66011 L39,11.66011 Z" id="Shape" fill="#31251C" fill-rule="nonzero"></path>
                <path d="M16.6791914,7.74271155 L9.25679177,0.320566954 C8.82969954,-0.106855651 8.136368,-0.106855651 7.70894949,0.320566954 L6.16763269,1.86189855 L8.12233823,3.81694912 C8.57716372,3.66359903 9.09789649,3.76637622 9.46006026,4.12886974 C9.82418168,4.49332092 9.92630533,5.01862657 9.76904143,5.47476153 L11.6532719,7.35901004 C12.1087499,7.2020709 12.6350293,7.30354298 12.9991507,7.66799417 C13.5081376,8.17665969 13.5081376,9.00116116 12.9991507,9.51015297 C12.4898375,10.0191448 11.6656703,10.0191448 11.1566833,9.51015297 C10.7739643,9.12710401 10.679345,8.56492908 10.8731515,8.09345911 L9.11584155,6.33613228 L9.11551527,10.9607796 C9.23982554,11.0221196 9.35663151,11.1036888 9.46006026,11.2067923 C9.96904718,11.7154578 9.96904718,12.539633 9.46006026,13.0492774 C8.95107334,13.5579429 8.12625351,13.5579429 7.61791914,13.0492774 C7.10893222,12.539633 7.10893222,11.7154578 7.61791914,11.2067923 C7.74386078,11.0811757 7.88905256,10.9862292 8.04435882,10.9226052 L8.04435882,6.25521563 C7.88905256,6.19191793 7.74386078,6.09729766 7.61791914,5.97102854 C7.23226367,5.58569564 7.13960195,5.02025795 7.33732379,4.54683032 L5.41035151,2.61918699 L0.320808583,7.70845249 C-0.106936194,8.13620137 -0.106936194,8.82953957 0.320808583,9.25728845 L7.74320823,16.679433 C8.17062673,17.1068557 8.863632,17.1068557 9.29170305,16.679433 L16.6791914,9.29122123 C17.1069362,8.86379863 17.1069362,8.17013416 16.6791914,7.74271155 L16.6791914,7.74271155 Z" id="Path" fill="#F34F29" fill-rule="nonzero"></path>
                <polygon id="Path" points="5.54933649e-16 0 39 0 39 17 0 17"></polygon>
            </g>
            <rect id="Rectangle-Copy-5" stroke="#0055C2" x="16.5" y="78.5" width="513" height="59" rx="3"></rect>
            <rect id="Rectangle-Copy-7" stroke="#0055C2" x="16.5" y="171.5" width="513" height="59" rx="3"></rect>
            <rect id="Rectangle-Copy-8" stroke="#0055C2" x="16.5" y="265.5" width="513" height="59" rx="3"></rect>
            <rect id="Rectangle-Copy-9" stroke="#0055C2" x="16.5" y="358.5" width="513" height="59" rx="3"></rect>
            <path id="Line-4-Copy-21" d="M273,138 L273,163 L277,163 L272.5,172 L268,163 L272,163 L272,138 L273,138 Z" fill="#0055C2" fill-rule="nonzero"></path>
            <path id="Line-4-Copy-22" d="M273,231 L273,256 L277,256 L272.5,265 L268,256 L272,256 L272,231 L273,231 Z" fill="#0055C2" fill-rule="nonzero"></path>
            <path id="Line-4-Copy-23" d="M273,325 L273,350 L277,350 L272.5,359 L268,350 L272,350 L272,325 L273,325 Z" fill="#0055C2" fill-rule="nonzero"></path>
            <g id="github-copy-7" transform="translate(96.000000, 239.000000)" fill="#000000" fill-rule="nonzero">
                <path d="M10.9999501,0 C5.60542012,0.000229376862 1.00717063,4.01191956 0.143037236,9.47198947 C-0.721096158,14.9320594 2.40394208,20.2289279 7.52155549,21.9784096 C8.07150278,22.0771165 8.27773301,21.7387813 8.27773301,21.4426944 C8.27773301,21.174848 8.26397333,20.2866774 8.26397333,19.3421382 C5.50047721,19.8637443 4.78554573,18.6513813 4.56556682,18.0169818 C4.32147351,17.3999787 3.93453035,16.8532017 3.43817488,16.4239001 C3.05321177,16.2124336 2.50326449,15.6908162 3.42441519,15.6767409 C4.13825374,15.7561667 4.76943941,16.1876258 5.1155141,16.8327241 C5.41933951,17.3923846 5.92789374,17.8050471 6.52891442,17.9796172 C7.12993509,18.1541872 7.77400073,18.07631 8.31893506,17.7631768 C8.36655065,17.1898178 8.61575216,16.6537411 9.02013985,16.2547607 C6.57287442,15.9728054 4.01561953,15.0000142 4.01561953,10.6861422 C4.00016349,9.56525179 4.40353622,8.48077458 5.14301147,7.65512204 C4.80675367,6.68093181 4.84609817,5.61182955 5.25300093,4.66639515 C5.25300093,4.66639515 6.17412964,4.37033074 8.27771101,5.82241216 C10.0774554,5.31486239 11.9774395,5.31486239 13.7771839,5.82241216 C15.8807103,4.35624425 16.801894,4.66639515 16.801894,4.66639515 C17.208852,5.61181649 17.2481973,6.68094056 16.9118834,7.65512204 C17.6535854,8.47936143 18.0573104,9.56478553 18.0392754,10.6861422 C18.0392754,15.0141233 15.4682498,15.9728054 13.0210064,16.2547607 C13.5521373,16.8067597 13.8230823,17.5682044 13.7634352,18.3412304 C13.7634352,19.8497142 13.7496755,21.0620772 13.7496755,21.4427395 C13.7496755,21.7388039 13.9559058,22.0912368 14.505853,21.9784547 C19.6140338,20.2148438 22.7247289,14.917027 21.8546779,9.4626898 C20.9846268,4.00835262 16.3899129,0.00287650432 10.9999501,0 Z" id="Path"></path>
            </g>
            <g id="github-copy-8" transform="translate(96.000000, 333.000000)" fill="#000000" fill-rule="nonzero">
                <path d="M10.9999501,0 C5.60542012,0.000229376862 1.00717063,4.01191956 0.143037236,9.47198947 C-0.721096158,14.9320594 2.40394208,20.2289279 7.52155549,21.9784096 C8.07150278,22.0771165 8.27773301,21.7387813 8.27773301,21.4426944 C8.27773301,21.174848 8.26397333,20.2866774 8.26397333,19.3421382 C5.50047721,19.8637443 4.78554573,18.6513813 4.56556682,18.0169818 C4.32147351,17.3999787 3.93453035,16.8532017 3.43817488,16.4239001 C3.05321177,16.2124336 2.50326449,15.6908162 3.42441519,15.6767409 C4.13825374,15.7561667 4.76943941,16.1876258 5.1155141,16.8327241 C5.41933951,17.3923846 5.92789374,17.8050471 6.52891442,17.9796172 C7.12993509,18.1541872 7.77400073,18.07631 8.31893506,17.7631768 C8.36655065,17.1898178 8.61575216,16.6537411 9.02013985,16.2547607 C6.57287442,15.9728054 4.01561953,15.0000142 4.01561953,10.6861422 C4.00016349,9.56525179 4.40353622,8.48077458 5.14301147,7.65512204 C4.80675367,6.68093181 4.84609817,5.61182955 5.25300093,4.66639515 C5.25300093,4.66639515 6.17412964,4.37033074 8.27771101,5.82241216 C10.0774554,5.31486239 11.9774395,5.31486239 13.7771839,5.82241216 C15.8807103,4.35624425 16.801894,4.66639515 16.801894,4.66639515 C17.208852,5.61181649 17.2481973,6.68094056 16.9118834,7.65512204 C17.6535854,8.47936143 18.0573104,9.56478553 18.0392754,10.6861422 C18.0392754,15.0141233 15.4682498,15.9728054 13.0210064,16.2547607 C13.5521373,16.8067597 13.8230823,17.5682044 13.7634352,18.3412304 C13.7634352,19.8497142 13.7496755,21.0620772 13.7496755,21.4427395 C13.7496755,21.7388039 13.9559058,22.0912368 14.505853,21.9784547 C19.6140338,20.2148438 22.7247289,14.917027 21.8546779,9.4626898 C20.9846268,4.00835262 16.3899129,0.00287650432 10.9999501,0 Z" id="Path"></path>
            </g>
            <text id="Step-1" font-family="Helvetica-Bold, Helvetica" font-size="21" font-weight="bold" fill="#0055C2">
                <tspan x="20" y="73">Step 1</tspan>
            </text>
            <text id="Step-2" font-family="Helvetica-Bold, Helvetica" font-size="21" font-weight="bold" fill="#0055C2">
                <tspan x="19.6950673" y="163">Step 2</tspan>
            </text>
            <text id="Step-3" font-family="Helvetica-Bold, Helvetica" font-size="21" font-weight="bold" fill="#0055C2">
                <tspan x="19.6950673" y="258">Step 3</tspan>
            </text>
            <text id="Step-4" font-family="Helvetica-Bold, Helvetica" font-size="21" font-weight="bold" fill="#0055C2">
                <tspan x="19.6950673" y="351">Step 4</tspan>
            </text>
            <g id="Shape-2" transform="translate(36.000000, 94.000000)" fill="#0055C2" fill-rule="nonzero">
                <path d="M14,28 C13.8720969,28 13.7505937,27.9440078 13.6674567,27.8467313 L0.103192557,11.8739443 C-0.00642513962,11.7439696 -0.0309279068,11.5622277 0.0403495024,11.407825 C0.111626912,11.2534222 0.265789669,11.1542916 0.435735809,11.1535815 L6.78031099,11.1535815 L6.78031099,5.69283703 C6.78031099,5.45098572 6.9762119,5.25492649 7.2178679,5.25492649 L20.7821321,5.25492649 C21.0237881,5.25492649 21.219689,5.45098572 21.219689,5.69283703 L21.219689,11.1535815 L27.5642642,11.1535815 C27.7342103,11.1542916 27.8883731,11.2534222 27.9596505,11.407825 C28.0309279,11.5622277 28.0064251,11.7439696 27.8968074,11.8739443 L14.3325433,27.8467313 C14.2494063,27.9440078 14.1279031,28 14,28 Z M1.38085873,12.0294026 L14,26.8855177 L26.6191413,12.0294026 L20.7821321,12.0294026 C20.5404761,12.0294026 20.3445752,11.8333433 20.3445752,11.591492 L20.3445752,6.13074758 L7.65542481,6.13074758 L7.65542481,11.591492 C7.65542481,11.8333433 7.45952391,12.0294026 7.2178679,12.0294026 L1.38085873,12.0294026 Z M20.7821321,3.50328433 L7.2178679,3.50328433 C6.9762119,3.50328433 6.78031099,3.3072251 6.78031099,3.06537379 C6.78031099,2.82352247 6.9762119,2.62746325 7.2178679,2.62746325 L20.7821321,2.62746325 C21.0237881,2.62746325 21.219689,2.82352247 21.219689,3.06537379 C21.219689,3.3072251 21.0237881,3.50328433 20.7821321,3.50328433 Z M20.7821321,0.875821082 L7.2178679,0.875821082 C6.9762119,0.875821082 6.78031099,0.679761855 6.78031099,0.437910541 C6.78031099,0.196059227 6.9762119,0 7.2178679,0 L20.7821321,0 C21.0237881,0 21.219689,0.196059227 21.219689,0.437910541 C21.219689,0.679761855 21.0237881,0.875821082 20.7821321,0.875821082 Z" id="Shape"></path>
            </g>
            <text id="Initial-Settings" font-family="Helvetica-Bold, Helvetica" font-size="28" font-weight="bold" fill="#0055C2">
                <tspan x="174.324219" y="34">Initial Settings</tspan>
            </text>
            <g id="Group-6" transform="translate(33.000000, 184.000000)" fill-rule="nonzero">
                <g id="Group-5">
                    <g id="Group-3">
                        <path d="M20.7996486,33 C20.6125591,33.000445 20.4395131,32.9007943 20.3459686,32.73874 L18.400644,29.3630243 C17.1382898,29.5520315 15.8548363,29.5520315 14.592482,29.3630243 L12.6471574,32.73874 C12.5155482,32.9656163 12.2361637,33.0597418 11.9941333,32.9587459 L8.0416186,31.3224519 C7.79992078,31.2212453 7.67057081,30.9566179 7.7391653,30.7036853 L8.74963427,26.9360841 C7.72417667,26.1774028 6.81621095,25.2715891 6.05505035,24.2478868 L2.29500596,25.258539 C2.04211923,25.3271459 1.77753975,25.1977725 1.67635148,24.9560309 L0.0403541063,21.0027997 C-0.0606235288,20.7607254 0.0334849322,20.4812902 0.26032014,20.3496571 L3.63542398,18.4039798 C3.44645099,17.1413967 3.44645099,15.8577106 3.63542398,14.5951275 L0.26032014,12.6494502 C0.0334849322,12.5178171 -0.0606235288,12.238382 0.0403541063,11.9963077 L1.67635148,8.04307644 C1.77753975,7.80133481 2.04211923,7.67196139 2.29500596,7.74056832 L6.06192429,8.75122047 C6.82046807,7.72557697 7.72611755,6.81744665 8.74963427,6.05614806 L7.7391653,2.29542201 C7.67057081,2.04248944 7.79992078,1.77786199 8.0416186,1.67665539 L11.9941333,0.0403614221 C12.2361637,-0.0606345191 12.5155482,0.0334910026 12.6471574,0.260367333 L14.592482,3.63608303 C15.8548363,3.44707579 17.1382898,3.44707579 18.400644,3.63608303 L20.3459686,0.260367333 C20.4775779,0.0334910026 20.7569624,-0.0606345191 20.9989928,0.0403614221 L24.9515075,1.67665539 C25.1932053,1.77786199 25.3225553,2.04248944 25.2539608,2.29542201 L24.2434918,6.06302324 C25.2689494,6.82170454 26.1769151,7.7275182 26.9380757,8.75122047 L30.6981201,7.74056832 C30.9510068,7.67196139 31.2155863,7.80133481 31.3167746,8.04307644 L32.952772,11.9963077 C33.0537496,12.238382 32.9596411,12.5178171 32.7328059,12.6494502 L29.3577021,14.5951275 C29.5466751,15.8577106 29.5466751,17.1413967 29.3577021,18.4039798 L32.7396799,20.3496571 C32.9665151,20.4812902 33.0606235,20.7607254 32.9596459,21.0027997 L31.3167746,24.9560309 C31.2155863,25.1977725 30.9510068,25.3271459 30.6981201,25.258539 L26.9312018,24.2478868 C26.172658,25.2735303 25.2670085,26.1816607 24.2434918,26.9429593 L25.2539608,30.7036853 C25.3225553,30.9566179 25.1932053,31.2212453 24.9515075,31.3224519 L20.9989928,32.9587459 C20.9359463,32.9856111 20.8681774,32.9996348 20.7996486,33 Z M8.86649122,30.5318057 L11.9735115,31.8243404 L13.8707185,28.5242517 C13.9787414,28.3320588 14.1969865,28.2298242 14.4137596,28.2698699 C15.7938813,28.513956 17.2061187,28.513956 18.5862404,28.2698699 C18.8030135,28.2298242 19.0212586,28.3320588 19.1292815,28.5242517 L21.0196146,31.8174652 L24.1266348,30.5249305 L23.1436616,26.860457 C23.0846725,26.6477594 23.1675824,26.4210979 23.3498798,26.2966919 C24.492344,25.5004643 25.4878259,24.5117809 26.2919255,23.3747384 C26.4181674,23.1949729 26.6444198,23.1149422 26.8555884,23.175358 L30.5262716,24.1585094 L31.8185721,21.0509259 L28.5190816,19.153375 C28.3285139,19.0438625 28.2268546,18.826767 28.2647459,18.6102354 C28.5086887,17.2321642 28.5086887,15.8219446 28.2647459,14.4438734 C28.2247074,14.227061 28.3269235,14.0087763 28.5190816,13.9007338 L31.8116982,12.0031828 L30.5193977,8.88872417 L26.8555884,9.87875077 C26.6428445,9.9400049 26.4149193,9.85660253 26.2919255,9.67249522 C25.4983286,8.51998751 24.5096833,7.51487644 23.3705016,6.70241542 C23.1907687,6.57615066 23.1107525,6.34985721 23.1711574,6.13865027 L24.1266348,2.46730163 L21.0196146,1.1747669 L19.1224076,4.47485557 C19.012915,4.66545782 18.7958588,4.76713548 18.5793664,4.72923741 C17.1992447,4.48515128 15.7870074,4.48515128 14.4068857,4.72923741 C14.1918113,4.77055285 13.9747902,4.66758828 13.8707185,4.47485557 L11.9735115,1.1747669 L8.86649122,2.46730163 L9.84946444,6.13177509 C9.90845359,6.34447272 9.82554369,6.57113418 9.64324628,6.69554024 C8.5002003,7.49382255 7.50468325,8.48486727 6.70120058,9.62436893 C6.57631142,9.80590825 6.34876926,9.88639506 6.13753761,9.82374929 L2.46685442,8.86809861 L1.17455397,11.9756821 L4.47404448,13.8732331 C4.66461218,13.9827455 4.76627141,14.1998411 4.72838021,14.4163727 C4.48443735,15.7944439 4.48443735,17.2046634 4.72838021,18.5827346 C4.76841863,18.7995471 4.66620254,19.0178318 4.47404448,19.1258742 L1.17455397,21.0234252 L2.46685442,24.1310087 L6.13066367,23.1478573 C6.34340763,23.0866032 6.57133279,23.1700055 6.69432664,23.3541128 C7.49246425,24.497366 8.48332935,25.4930636 9.62262447,26.2966919 C9.80154568,26.4237013 9.88357297,26.6479499 9.82884262,26.860457 L8.86649122,30.5318057 Z" id="Shape" fill="#0055C2"></path>
                        <path d="M11.2311261,23.3747384 C8.65789263,19.9206304 9.00792088,15.1013178 12.0532507,12.0554358 C15.0985806,9.00955391 19.9170197,8.6594622 23.3705016,11.2331622 C21.3384895,8.50554755 17.9003483,7.21712129 14.5766128,7.93769619 C11.2528773,8.65827108 8.65670173,11.2549173 7.93625744,14.5792554 C7.21581315,17.9035935 8.50400588,21.3423579 11.2311261,23.3747384 Z" id="Path" fill="#C2D1FF"></path>
                    </g>
                    <path d="M16.5,25.4780762 C11.4373898,25.4780762 7.33333333,21.4041751 7.33333333,16.3787633 C7.33333333,11.3533515 11.4373898,7.27945035 16.5,7.27945035 C21.5626102,7.27945035 25.6666667,11.3533515 25.6666667,16.3787633 C25.6591264,21.4010715 21.5594837,25.4705914 16.5,25.4780762 L16.5,25.4780762 Z M16.5,8.31238207 C12.0120849,8.31238207 8.37391088,11.923824 8.37391088,16.3787633 C8.37391088,20.8337026 12.0120849,24.4451445 16.5,24.4451445 C20.9879151,24.4451445 24.6260891,20.8337026 24.6260891,16.3787633 C24.6223143,11.925377 20.9863506,8.31612914 16.5,8.31238207 Z" id="Shape" fill="#0055C2"></path>
                </g>
            </g>
            <g id="Group-2" transform="translate(33.000000, 279.000000)" stroke="#0055C2">
                <circle id="Oval" fill-rule="nonzero" cx="16.5" cy="16.5" r="16.5"></circle>
                <circle id="Oval" stroke-linecap="round" stroke-linejoin="round" fill-rule="nonzero" cx="13" cy="11" r="4"></circle>
                <path d="M19,24 L19,21.0976335 C18.9935301,18.837427 17.1790447,17.006732 14.9386485,17 L12.0613515,17 C9.82095528,17.006732 8.00646991,18.837427 8,21.0976335 L8,24 L19,24" id="Path" stroke-linecap="round" stroke-linejoin="round" fill-rule="nonzero"></path>
                <line x1="22" y1="22" x2="28" y2="22" id="Path" stroke-width="2" stroke-linecap="round" stroke-linejoin="round"></line>
                <line x1="25" y1="19" x2="25" y2="25" id="Path" stroke-width="2" stroke-linecap="round" stroke-linejoin="round"></line>
            </g>
            <g id="Group-4" transform="translate(35.000000, 374.000000)" stroke="#0055C2" stroke-linecap="round" stroke-linejoin="round">
                <path d="M31.74822,19 L24.25178,19 C23.5604349,19 23,18.4417906 23,17.7531907 L23,1.2468093 C23,0.558209419 23.5604349,0 24.25178,0 L31.74822,0 C32.4395651,0 33,0.558209419 33,1.2468093 L33,17.7531187 C33,18.4417906 32.4395651,19 31.74822,19 Z" id="Path"></path>
                <polyline id="Path" points="27 20.7693881 27 23 5 23 5 6 19.9418581 6"></polyline>
                <polygon id="Path" points="33 28 0 28 5.14286286 23 27.8571371 23"></polygon>
                <line x1="23" y1="16" x2="33" y2="16" id="Path"></line>
                <line x1="27" y1="17" x2="28" y2="17" id="Path"></line>
                <polyline id="Path" points="11 17.2590847 12.7991663 19 19 13"></polyline>
                <polyline id="Path" points="25 8.83939669 26.1244841 10 30 6"></polyline>
            </g>
        </g>
    </g>
</svg>