<?xml version="1.0" encoding="UTF-8"?>
<svg width="800px" height="603px" viewBox="0 0 800 603" version="1.1" xmlns="http://www.w3.org/2000/svg" xmlns:xlink="http://www.w3.org/1999/xlink">
    <title>2041-10-14-11-10_ThreeCasesToLaunchGitProject</title>
    <defs>
        <path d="M8.68744595,14.5405413 C10.6544909,13.5649687 12,11.5915112 12,9.31636202 C12,6.07252388 9.26504479,3.44227578 5.89152197,3.44227578 C4.52034181,3.44227578 3.25480793,3.87689217 2.23537065,4.61058921 L2.23537065,1.05770107 C2.23537065,0.476155373 1.74046224,0 1.11695169,0 C0.493934821,0 0.0167986821,0.476630104 0.0167986821,1.05770107 L0.0167986821,1.80184219 L0,9.32158406 C-0.0041824725,11.2003327 0.951817666,12.865215 2.41753644,13.8939574 C2.4777647,13.9362085 2.55848043,13.9312238 2.6127846,13.8823265 C2.66758244,13.8334292 2.6779496,13.7558106 2.63746831,13.6950451 C0.724974359,10.8146136 1.16014819,5.53963813 5.89176881,5.53963813 C8.05899866,5.53963813 9.80709909,7.22944376 9.81623206,9.31351363 C9.82240299,10.8599505 9.11620201,12.0365717 8.19549958,12.7781018 C6.36026565,14.2561773 3.64974731,12.6382934 4.49738595,10.4697214 C4.5894562,10.2335427 4.71879884,9.9959397 4.88664808,9.76189723 L5.12361171,9.47705853 C5.19766284,9.39967734 5.25048599,9.29903433 5.2146946,9.19411874 C5.01401603,8.62800181 3.46832203,8.97526767 3.04005964,10.0315445 C3.34292878,9.79631524 3.65986763,9.66433998 3.96940137,9.71489885 C2.38890334,11.275815 3.44141679,13.9563846 5.46005069,14.7513219 C6.40494316,15.1232738 7.55964718,15.0976383 8.68744595,14.5405413" id="path-1"></path>
        <linearGradient x1="28.568518%" y1="104.445731%" x2="78.3472072%" y2="20.6880271%" id="linearGradient-3">
            <stop stop-color="#000F98" offset="0%"></stop>
            <stop stop-color="#00A5FD" offset="100%"></stop>
        </linearGradient>
    </defs>
    <g id="2041-10-14-11-10_ThreeCasesToLaunchGitProject" stroke="none" stroke-width="1" fill="none" fill-rule="evenodd">
        <rect fill="#FFFFFF" x="0" y="0" width="800" height="603"></rect>
        <rect id="Rectangle" fill="#EDF4FF" x="10" y="116" width="769" height="147"></rect>
        <rect id="Rectangle-Copy" fill="#FFF6E7" x="10" y="262" width="769" height="147"></rect>
        <rect id="Rectangle-Copy-2" fill="#ECFCFF" x="10" y="408" width="769" height="147"></rect>
        <g id="Group-2" transform="translate(440.000000, 248.000000)">
            <path id="Line-4-Copy-25" d="M9.37070562,79.0963434 L28.2657929,88.8033344 L9.16314773,98.0952096 L9.25,90.095 L0.48361385,89.9999105 L-1.01629664,89.9835243 L-0.983524346,86.9837034 L0.51638615,87.0000895 L9.283,87.095 L9.37070562,79.0963434 Z" fill="#0055C2" fill-rule="nonzero"></path>
            <path id="Line-4-Copy-32" d="M9.37070562,231.096343 L28.2657929,240.803334 L9.16314773,250.09521 L9.25,242.095 L0.48361385,241.99991 L-1.01629664,241.983524 L-0.983524346,238.983703 L0.51638615,239.00009 L9.283,239.095 L9.37070562,231.096343 Z" fill="#0055C2" fill-rule="nonzero"></path>
            <line x1="0.5" y1="13.5" x2="263.5" y2="13.5" id="Line-4-Copy-27" stroke="#0055C2" stroke-width="3" stroke-linecap="square"></line>
            <line x1="0.5" y1="239.5" x2="0.5" y2="13.5" id="Line-4-Copy-28" stroke="#0055C2" stroke-width="3" stroke-linecap="square"></line>
            <line x1="263.5" y1="13.5" x2="263.5" y2="0.5" id="Line-4-Copy-30" stroke="#0055C2" stroke-width="3" stroke-linecap="square"></line>
        </g>
        <rect id="Rectangle-Copy-5" stroke="#0055C2" fill="#FFFFFF" x="127.5" y="123.5" width="132" height="125" rx="3"></rect>
        <rect id="Rectangle-Copy-6" stroke="#0055C2" fill="#FFFFFF" x="468.5" y="123.5" width="132" height="125" rx="3"></rect>
        <rect id="Rectangle-Copy-11" stroke="#0055C2" fill="#FFFFFF" x="296.5" y="123.5" width="132" height="125" rx="3"></rect>
        <rect id="Rectangle-Copy-8" stroke="#0055C2" fill="#FFFFFF" x="637.5" y="123.5" width="132" height="125" rx="3"></rect>
        <rect id="Rectangle-Copy-9" stroke="#0055C2" fill="#FFFFFF" x="637.5" y="274.5" width="132.614035" height="125" rx="3"></rect>
        <rect id="Rectangle-Copy-10" stroke="#0055C2" fill="#FFFFFF" x="637.5" y="425.5" width="132.614035" height="125" rx="3"></rect>
        <rect id="Rectangle-Copy-12" stroke="#0055C2" fill="#FFFFFF" x="468.5" y="274.5" width="132" height="125" rx="3"></rect>
        <rect id="Rectangle-Copy-7" stroke="#0055C2" fill="#FFFFFF" x="468.5" y="425.5" width="132" height="125" rx="3"></rect>
        <text id="Three-Cases-To-Launc" fill-rule="nonzero" font-family="Helvetica" font-size="18" font-weight="normal" fill="#0055C2">
            <tspan x="10" y="23">Three Cases To Launch Git Project</tspan>
        </text>
        <g id="git" transform="translate(661.000000, 9.000000)">
            <path d="M46.8658496,11.2380575 C45.1623498,11.2380575 43.8939053,12.0891281 43.8939053,14.1376499 C43.8939053,15.6808485 44.7297841,16.7522856 46.7743573,16.7522856 C48.5071097,16.7522856 49.6846843,15.7131436 49.6846843,14.073693 C49.6846843,12.2157755 48.6309666,11.2380575 46.8658496,11.2380575 L46.8658496,11.2380575 Z M43.4607172,25.7011913 C43.0574041,26.2046147 42.6553359,26.7397 42.6553359,27.3710373 C42.6553359,28.6305458 44.2337339,29.0092215 46.4027864,29.0092215 C48.1984009,29.0092215 50.6450424,28.8813076 50.6450424,27.1823327 C50.6450424,26.1723196 49.4674678,26.1102624 47.9805621,26.0152768 L43.4607172,25.7011913 Z M52.6255087,11.3330431 C53.1825537,12.0580995 53.7719634,13.0662128 53.7719634,14.5156924 C53.7719634,18.0124273 51.0776081,20.0603158 47.1764255,20.0603158 C46.1843252,20.0603158 45.2862067,19.9349349 44.7291617,19.7772589 L43.7071863,21.4471049 L46.7413702,21.6351763 C52.0989611,21.9828234 55.257002,22.1404995 55.257002,26.3293624 C55.257002,29.9533779 52.1300809,32 46.7413702,32 C41.1360655,32 39,30.5505204 39,28.0625322 C39,26.6440812 39.6199071,25.8898959 40.7034998,24.848221 C39.680902,24.4087545 39.3410734,23.6216409 39.3410734,22.7705703 C39.3410734,22.0771758 39.6815244,21.4471049 40.2391918,20.8480627 C40.7968593,20.2502869 41.416144,19.6506115 42.1586633,18.9578502 C40.6412601,18.2017651 39.4960502,16.563581 39.4960502,14.231369 C39.4960502,10.6086199 41.8493321,8.12063165 46.5870158,8.12063165 C47.9189448,8.12063165 48.7249485,8.24537935 49.436348,8.43598369 L55.4754632,8.43598369 L55.4754632,11.1133099 L52.6255087,11.3330431 L52.6255087,11.3330431 Z M60.9233016,5.60858036 C59.1575621,5.60858036 58.1355867,4.56817192 58.1355867,2.77167847 C58.1355867,0.977717972 59.1575621,0 60.9233016,0 C62.7195385,0 63.7408917,0.977084735 63.7408917,2.77167847 C63.7415139,4.56817192 62.7195385,5.60858036 60.9233016,5.60858036 Z M56.9275147,24.5423675 L56.9275147,22.0543792 L58.50778,21.8340127 C58.9409681,21.770689 59.0025853,21.6763367 59.0025853,21.2026754 L59.0025853,11.9403174 C59.0025853,11.59457 58.9104706,11.372937 58.5998947,11.279218 L56.9275147,10.6801757 L57.2679657,8.12949697 L63.6792742,8.12949697 L63.6792742,21.2033087 C63.6792742,21.7086318 63.7091492,21.770689 64.174702,21.834646 L65.7543448,22.0550125 L65.7543448,24.5430008 L56.9275147,24.5430008 L56.9275147,24.5423675 Z M78,23.32022 C76.6674487,23.9806863 74.7174798,24.5803617 72.9511179,24.5803617 C69.2665294,24.5803617 67.8736056,23.0694582 67.8736056,19.5074999 L67.8736056,11.2532552 C67.8736056,11.0651838 67.8736056,10.9385364 67.6252693,10.9385364 L65.458084,10.9385364 L65.458084,8.13456287 C68.1841815,7.81857759 69.2671518,6.43242174 69.6076028,2.99837733 L72.5502944,2.99837733 L72.5502944,7.47346341 C72.5502944,7.69319666 72.5502944,7.78881545 72.7980083,7.78881545 L77.1641212,7.78881545 L77.1641212,10.9391697 L72.5502944,10.9391697 L72.5502944,18.4683579 C72.5502944,20.3269086 72.9841049,21.0513318 74.6558625,21.0513318 C75.5241059,21.0513318 76.4209796,20.8315985 77.1641212,20.5479083 L78,23.32022 L78,23.32022 Z" id="Shape" fill="#31251C" fill-rule="nonzero"></path>
            <path d="M32.3772539,15.0299695 L17.9690664,0.622277028 C17.140005,-0.207425676 15.7941261,-0.207425676 14.9644314,0.622277028 L11.9724635,3.61427365 L15.7668919,7.40937182 C16.6497884,7.11169223 17.6606226,7.31120089 18.3636464,8.01486479 C19.0704703,8.72232885 19.2687104,9.74203981 18.9634334,10.6274783 L22.6210571,14.2851371 C23.5052204,13.9804906 24.5268216,14.1774658 25.2336455,14.8849299 C26.221679,15.8723394 26.221679,17.4728423 25.2336455,18.4608852 C24.2449787,19.4489281 22.6451246,19.4489281 21.6570912,18.4608852 C20.914166,17.7173195 20.7304932,16.6260388 21.1067059,15.7108324 L17.6954571,12.2995509 L17.6948238,21.2768075 C17.9361319,21.3958793 18.1628729,21.5542195 18.3636464,21.7543616 C19.3516798,22.7417711 19.3516798,24.3416406 18.3636464,25.3309502 C17.375613,26.3183598 15.7744921,26.3183598 14.7877254,25.3309502 C13.799692,24.3416406 13.799692,22.7417711 14.7877254,21.7543616 C15.0322003,21.5105176 15.3140432,21.3262096 15.6155201,21.2027043 L15.6155201,12.1424774 C15.3140432,12.0196054 15.0322003,11.8359308 14.7877254,11.5908201 C14.0391001,10.842821 13.8592273,9.74520661 14.2430403,8.82620003 L10.5024471,5.08430417 L0.622746073,14.9634666 C-0.207582024,15.7938027 -0.207582024,17.1396945 0.622746073,17.9700305 L15.0309336,32.377723 C15.8606284,33.2074257 17.2058739,33.2074257 18.0368353,32.377723 L32.3772539,18.0359 C33.207582,17.2061973 33.207582,15.8596722 32.3772539,15.0299695 L32.3772539,15.0299695 Z" id="Path" fill="#F34F29" fill-rule="nonzero"></path>
            <polygon id="Path" points="1.12409637e-15 0 79 0 79 33 0 33"></polygon>
        </g>
        <g id="github-copy" transform="translate(748.000000, 3.000000)" fill="#000000" fill-rule="nonzero">
            <path d="M22.9998956,0 C11.7204239,0.000469179946 2.10590223,8.20619911 0.299077857,19.3745239 C-1.50774651,30.5428487 5.02642435,41.3773525 15.7268887,44.9558377 C16.8767785,45.1577383 17.3079872,44.4656891 17.3079872,43.8600567 C17.3079872,43.3121892 17.279217,41.4954764 17.279217,39.5634644 C11.5009978,40.6303861 10.0061411,38.1505528 9.54618516,36.8529173 C9.03580825,35.5908656 8.22674528,34.472458 7.1889111,33.5943411 C6.38398825,33.161796 5.23409847,32.0948512 7.16014086,32.066061 C8.65271236,32.2285228 9.97246422,33.1110528 10.6960749,34.4305721 C11.3313462,35.5753322 12.3946869,36.4194146 13.6513665,36.7764896 C14.9080461,37.1335647 16.2547288,36.9742705 17.3941369,36.3337708 C17.4936968,35.160991 18.0147545,34.0644705 18.8602924,33.2483742 C13.7432829,32.6716473 8.39629538,30.6818473 8.39629538,21.8580182 C8.36397821,19.5652878 9.20739391,17.3470389 10.7535694,15.6582042 C10.0504849,13.6655423 10.1327507,11.4787423 10.9835474,9.54489918 C10.9835474,9.54489918 12.9095438,8.93931288 17.3079412,11.9094794 C21.0710431,10.8713094 25.0437372,10.8713094 28.806839,11.9094794 C33.2051215,8.9104996 35.1312329,9.54489918 35.1312329,9.54489918 C35.982145,11.4787155 36.0644125,13.6655602 35.3612108,15.6582042 C36.9120423,17.3441484 37.7561944,19.564334 37.7184849,21.8580182 C37.7184849,30.7107067 32.3427041,32.6716473 27.2257406,33.2483742 C28.336287,34.3774629 28.9028084,35.9349635 28.7780918,37.5161532 C28.7780918,40.6016882 28.7493216,43.0815215 28.7493216,43.8601489 C28.7493216,44.4657352 29.1805302,45.1866208 30.33042,44.95593 C41.0111617,41.3485442 47.5153422,30.5121007 45.6961446,19.3555019 C43.876947,8.19890308 34.2698179,0.00588375885 22.9998956,0 Z" id="Path"></path>
        </g>
        <text id="Create-Local-Reposit" font-family="Helvetica-Bold, Helvetica" font-size="18" font-weight="bold" fill="#0055C2">
            <tspan x="136" y="182">Create Local </tspan>
            <tspan x="136" y="204">Repository</tspan>
        </text>
        <g id="git-copy-4" transform="translate(197.000000, 128.000000)">
            <path d="M33.5346183,7.96029076 C32.3156878,7.96029076 31.4080588,8.56313241 31.4080588,10.0141687 C31.4080588,11.1072677 32.0061676,11.8662023 33.4691515,11.8662023 C34.7090136,11.8662023 35.551621,11.1301434 35.551621,9.96886585 C35.551621,8.65284099 34.7976388,7.96029076 33.5346183,7.96029076 L33.5346183,7.96029076 Z M31.0980933,18.2050105 C30.8095047,18.5616021 30.5218068,18.9406208 30.5218068,19.3878181 C30.5218068,20.2799699 31.6512215,20.5481986 33.2032759,20.5481986 C34.4881186,20.5481986 36.2388004,20.4575929 36.2388004,19.2541523 C36.2388004,18.5387264 35.3961929,18.4947692 34.3322451,18.4274878 L31.0980933,18.2050105 Z M37.6559129,8.0275722 C38.0545036,8.54115381 38.4762527,9.2552341 38.4762527,10.2819488 C38.4762527,12.7588027 36.5483205,14.2093904 33.7568494,14.2093904 C33.046957,14.2093904 32.404313,14.1205789 32.0057223,14.0088917 L31.274453,15.1916993 L33.4455478,15.3249166 C37.2791444,15.5711666 39.5388644,15.6828538 39.5388644,18.649965 C39.5388644,21.216976 37.3014121,22.6666667 33.4455478,22.6666667 C29.4347007,22.6666667 27.90625,21.639952 27.90625,19.8776269 C27.90625,18.8728909 28.3498214,18.3386763 29.1251805,17.6008232 C28.3934659,17.2895344 28.1503033,16.7319956 28.1503033,16.129154 C28.1503033,15.6379995 28.3939113,15.1916993 28.7929474,14.7673777 C29.1919835,14.3439532 29.6351095,13.9191831 30.1664153,13.4284772 C29.0806453,12.892917 28.2611962,11.7325365 28.2611962,10.080553 C28.2611962,7.51443912 29.945075,5.75211409 33.3351003,5.75211409 C34.2881552,5.75211409 34.8648871,5.84047704 35.3739253,5.97548845 L39.6951832,5.97548845 L39.6951832,7.87192781 L37.6559129,8.0275722 L37.6559129,8.0275722 Z M43.593356,3.97274442 C42.3298902,3.97274442 41.598621,3.23578845 41.598621,1.96327225 C41.598621,0.69255023 42.3298902,0 43.593356,0 C44.8786441,0 45.6094682,0.692101687 45.6094682,1.96327225 C45.6099134,3.23578845 44.8786441,3.97274442 43.593356,3.97274442 Z M40.7341912,17.384177 L40.7341912,15.621852 L41.8649419,15.465759 C42.1749074,15.4209047 42.2189974,15.3540718 42.2189974,15.0185618 L42.2189974,8.45772483 C42.2189974,8.21282041 42.1530852,8.0558304 41.9308541,7.98944605 L40.7341912,7.56512447 L40.9777992,5.75839369 L45.5653781,5.75839369 L45.5653781,15.0190103 C45.5653781,15.3769475 45.586755,15.4209047 45.9198789,15.4662076 L47.0501842,15.6223005 L47.0501842,17.3846255 L40.7341912,17.3846255 L40.7341912,17.384177 Z M55.8125,16.5184892 C54.8589997,16.9863194 53.4637095,17.4110896 52.1997983,17.4110896 C49.5633099,17.4110896 48.5666104,16.3408662 48.5666104,13.8178124 L48.5666104,7.97105579 C48.5666104,7.83783855 48.5666104,7.74812997 48.3889147,7.74812997 L46.8381963,7.74812997 L46.8381963,5.76198203 C48.7888414,5.53815913 49.5637553,4.55629873 49.8073632,2.12385061 L51.9129911,2.12385061 L51.9129911,5.29370325 C51.9129911,5.44934763 51.9129911,5.51707761 52.0902415,5.51707761 L55.2143912,5.51707761 L55.2143912,7.74857851 L51.9129911,7.74857851 L51.9129911,13.0817535 C51.9129911,14.3982269 52.223402,14.91136 53.4196196,14.91136 C54.0408867,14.91136 54.68264,14.7557156 55.2143912,14.5547684 L55.8125,16.5184892 L55.8125,16.5184892 Z" id="Shape" fill="#31251C" fill-rule="nonzero"></path>
            <path d="M23.468253,10.9308869 L13.0246561,0.452565111 C12.4237211,-0.150855037 11.4481775,-0.150855037 10.8467835,0.452565111 L8.67809243,2.62856265 L11.428437,5.38863405 C12.0683937,5.1721398 12.8010844,5.31723701 13.3106625,5.82899257 C13.8229951,6.34351189 13.966687,7.08511986 13.7454107,7.7290751 L16.3965942,10.3891906 C17.037469,10.1676295 17.777964,10.3108842 18.2902966,10.8254035 C19.0064605,11.5435196 19.0064605,12.7075216 18.2902966,13.4260983 C17.5736737,14.144675 16.4140392,14.144675 15.6978753,13.4260983 C15.1593752,12.8853233 15.0262422,12.0916646 15.2989354,11.4260599 L12.8263338,8.94512792 L12.8258747,15.4740418 C13.0007839,15.5606395 13.1651344,15.675796 13.3106625,15.8213539 C14.0268264,16.5394699 14.0268264,17.7030113 13.3106625,18.4225093 C12.5944987,19.1406253 11.433946,19.1406253 10.7187003,18.4225093 C10.0025365,17.7030113 10.0025365,16.5394699 10.7187003,15.8213539 C10.8959049,15.6440128 11.1001953,15.5099706 11.3187171,15.4201486 L11.3187171,8.83089265 C11.1001953,8.7415312 10.8959049,8.60794964 10.7187003,8.42968735 C10.1760685,7.88568796 10.0456899,7.08742299 10.323892,6.41905456 L7.61256917,3.69767576 L0.451389808,10.8825212 C-0.150463269,11.4864019 -0.150463269,12.4652323 0.451389808,13.0691131 L10.8949868,23.5474349 C11.4963808,24.150855 12.4714654,24.150855 13.0737776,23.5474349 L23.468253,13.1170182 C24.0701061,12.5135981 24.0701061,11.534307 23.468253,10.9308869 L23.468253,10.9308869 Z" id="Path" fill="#F34F29" fill-rule="nonzero"></path>
            <polygon id="Path" points="7.94159853e-16 0 55.8125 0 55.8125 24 0 24"></polygon>
        </g>
        <text id="Create-Remote-Reposi" font-family="Helvetica-Bold, Helvetica" font-size="18" font-weight="bold" fill="#0055C2">
            <tspan x="479" y="171">Create </tspan>
            <tspan x="479" y="193">Remote </tspan>
            <tspan x="479" y="215">Repository</tspan>
        </text>
        <text id="Work-with-Local-Repo" font-family="Helvetica-Bold, Helvetica" font-size="18" font-weight="bold" fill="#0055C2">
            <tspan x="302" y="171">Work with </tspan>
            <tspan x="302" y="193">Local </tspan>
            <tspan x="302" y="215">Repository</tspan>
        </text>
        <text id="Start-Sharing-Projec" font-family="Helvetica-Bold, Helvetica" font-size="18" font-weight="bold" fill="#0055C2">
            <tspan x="641" y="182">Start Sharing </tspan>
            <tspan x="641" y="204">Project Files</tspan>
        </text>
        <text id="Step-4" font-family="Helvetica" font-size="14" font-weight="normal" fill="#0055C2">
            <tspan x="641" y="139">Step 4</tspan>
        </text>
        <text id="Step-2" font-family="Helvetica" font-size="14" font-weight="normal" fill="#0055C2">
            <tspan x="641" y="290">Step 2</tspan>
        </text>
        <text id="Step-2-Copy" font-family="Helvetica" font-size="14" font-weight="normal" fill="#0055C2">
            <tspan x="641" y="443">Step 2</tspan>
        </text>
        <text id="Step-3" font-family="Helvetica" font-size="14" font-weight="normal" fill="#0055C2">
            <tspan x="473" y="139">Step 3</tspan>
        </text>
        <text id="Step-1" font-family="Helvetica" font-size="14" font-weight="normal" fill="#0055C2">
            <tspan x="473" y="290">Step 1</tspan>
        </text>
        <text id="Step-1-Copy" font-family="Helvetica" font-size="14" font-weight="normal" fill="#0055C2">
            <tspan x="473" y="443">Step 1</tspan>
        </text>
        <text id="Step-2" font-family="Helvetica" font-size="14" font-weight="normal" fill="#0055C2">
            <tspan x="301" y="139">Step 2</tspan>
        </text>
        <text id="Step-1" font-family="Helvetica" font-size="14" font-weight="normal" fill="#0055C2">
            <tspan x="132" y="139">Step 1</tspan>
        </text>
        <path id="Line-4-Copy-21" d="M618.265823,177.297872 L637.265823,186.797872 L618.265823,196.297872 L618.265,188.297 L598.734177,188.297872 L598.734177,185.297872 L618.265,185.297 L618.265823,177.297872 Z" fill="#0055C2" fill-rule="nonzero"></path>
        <path id="Line-4-Copy-24" d="M278.265823,177.297872 L297.265823,186.797872 L278.265823,196.297872 L278.265,188.297 L258.734177,188.297872 L258.734177,185.297872 L278.265,185.297 L278.265823,177.297872 Z" fill="#0055C2" fill-rule="nonzero"></path>
        <path id="Line-4-Copy-31" d="M449.265823,177.297872 L468.265823,186.797872 L449.265823,196.297872 L449.265,188.297 L429.734177,188.297872 L429.734177,185.297872 L449.265,185.297 L449.265823,177.297872 Z" fill="#0055C2" fill-rule="nonzero"></path>
        <g id="Group-3" transform="translate(694.000000, 126.000000)" fill-rule="nonzero">
            <g id="Group" transform="translate(0.000000, 3.000000)">
                <path d="M25.8363017,5.97021807 C24.8971928,5.97021807 24.1979222,6.42234931 24.1979222,7.51062651 C24.1979222,8.33045079 24.6587271,8.89965172 25.7858636,8.89965172 C26.7410989,8.89965172 27.3902747,8.34760755 27.3902747,7.47664938 C27.3902747,6.48963074 26.809379,5.97021807 25.8363017,5.97021807 L25.8363017,5.97021807 Z M23.9591133,13.6537579 C23.7367741,13.9212016 23.515121,14.2054656 23.515121,14.5408636 C23.515121,15.2099774 24.3852636,15.4111489 25.5810233,15.4111489 C26.5709133,15.4111489 27.9197028,15.3431947 27.9197028,14.4406142 C27.9197028,13.9040448 27.2705271,13.8710769 26.4508227,13.8206158 L23.9591133,13.6537579 Z M29.0114984,6.02067915 C29.3185873,6.40586536 29.6435183,6.94142557 29.6435183,7.71146159 C29.6435183,9.56910199 28.1581686,10.6570428 26.0075166,10.6570428 C25.4605895,10.6570428 24.9654729,10.5904342 24.658384,10.5066688 L24.0949873,11.3937745 L25.7676785,11.4936874 C28.7212221,11.678375 30.4621934,11.7621403 30.4621934,13.9874738 C30.4621934,15.912732 28.7383779,17 25.7676785,17 C22.6775746,17 21.5,16.229964 21.5,14.9082202 C21.5,14.1546681 21.8417437,13.7540072 22.4391089,13.2006174 C21.875369,12.9671508 21.6880276,12.5489967 21.6880276,12.0968655 C21.6880276,11.7284996 21.8757122,11.3937745 22.1831442,11.0755333 C22.4905763,10.7579649 22.8319768,10.4393873 23.2413144,10.0713579 C22.4047972,9.66968773 21.7734636,8.79940238 21.7734636,7.56041477 C21.7734636,5.63582934 23.0707857,4.31408557 25.6825857,4.31408557 C26.4168542,4.31408557 26.8611896,4.38035778 27.2533713,4.48161634 L30.5826272,4.48161634 L30.5826272,5.90394586 L29.0114984,6.02067915 L29.0114984,6.02067915 Z M33.5859227,2.97955832 C32.6125022,2.97955832 32.0491055,2.42684133 32.0491055,1.47245419 C32.0491055,0.519412673 32.6125022,0 33.5859227,0 C34.5761558,0 35.1392096,0.519076265 35.1392096,1.47245419 C35.1395525,2.42684133 34.5761558,2.97955832 33.5859227,2.97955832 Z M31.3831171,13.0381327 L31.3831171,11.716389 L32.254289,11.5993193 C32.4930978,11.5656786 32.5270663,11.5155539 32.5270663,11.2639213 L32.5270663,6.34329362 C32.5270663,6.15961531 32.4762851,6.0418728 32.3050701,5.99208454 L31.3831171,5.67384335 L31.5708016,4.31879527 L35.1052409,4.31879527 L35.1052409,11.2642577 C35.1052409,11.5327107 35.1217105,11.5656786 35.3783613,11.5996557 L36.2491901,11.7167254 L36.2491901,13.0384691 L31.3831171,13.0384691 L31.3831171,13.0381327 Z M43,12.3888669 C42.2653884,12.7397396 41.1904055,13.0583172 40.2166419,13.0583172 C38.1853944,13.0583172 37.4175005,12.2556497 37.4175005,10.3633593 L37.4175005,5.97829184 C37.4175005,5.87837891 37.4175005,5.81109748 37.2805972,5.81109748 L36.0858668,5.81109748 L36.0858668,4.32148652 C37.5887155,4.15361935 38.1857375,3.41722405 38.3734221,1.59288796 L39.9956751,1.59288796 L39.9956751,3.97027744 C39.9956751,4.08701073 39.9956751,4.13780821 40.1322354,4.13780821 L42.539195,4.13780821 L42.539195,5.81143389 L39.9956751,5.81143389 L39.9956751,9.81131515 C39.9956751,10.7986702 40.2348271,11.18352 41.156437,11.18352 C41.635084,11.18352 42.1295144,11.0667867 42.539195,10.9160763 L43,12.3888669 L43,12.3888669 Z" id="Shape" fill="#31251C"></path>
                <path d="M18.0808041,8.19816517 L10.0346734,0.339423834 C9.5716911,-0.113141278 8.8200964,-0.113141278 8.35676038,0.339423834 L6.68592115,1.97142199 L8.80488766,4.04147554 C9.29793378,3.87910485 9.86242561,3.98792776 10.2550233,4.37174443 C10.6497432,4.75763392 10.7604486,5.31383989 10.5899693,5.79680633 L12.6325384,7.79189298 C13.1262919,7.62572213 13.6967965,7.73316316 14.0915163,8.11905265 C14.6432753,8.65763968 14.6432753,9.53064123 14.0915163,10.0695737 C13.5394037,10.6085062 12.6459787,10.6085062 12.0942197,10.0695737 C11.6793395,9.66399248 11.5767689,9.06874844 11.7868617,8.56954494 L9.88187865,6.70884594 L9.88152496,11.6055314 C10.0162815,11.6704796 10.1429031,11.756847 10.2550233,11.8660154 C10.8067822,12.4046024 10.8067822,13.2772585 10.2550233,13.8168819 C9.70326438,14.355469 8.80913196,14.355469 8.25808041,13.8168819 C7.70632148,13.2772585 7.70632148,12.4046024 8.25808041,11.8660154 C8.39460538,11.7330096 8.55199815,11.632478 8.72035536,11.5651114 L8.72035536,6.62316949 C8.55199815,6.5561484 8.39460538,6.45596223 8.25808041,6.32226551 C7.84001692,5.91426597 7.7395685,5.31556724 7.95390562,4.81429092 L5.8650029,2.77325682 L0.347767287,8.16189087 C-0.115922429,8.61480145 -0.115922429,9.34892425 0.347767287,9.80183483 L8.393898,17.6605762 C8.85723402,18.1131413 9.60847503,18.1131413 10.0725184,17.6605762 L18.0808041,9.83776366 C18.5444939,9.38519855 18.5444939,8.65073028 18.0808041,8.19816517 L18.0808041,8.19816517 Z" id="Path" fill="#F34F29"></path>
            </g>
            <path d="M59.4999478,0 C53.8602119,0.000239803083 49.0529511,4.19427955 48.1495389,9.90253444 C47.2461267,15.6107893 50.5132122,21.1484246 55.8634444,22.9774282 C56.4383893,23.0806218 56.6539936,22.7269078 56.6539936,22.4173623 C56.6539936,22.1373411 56.6396085,21.2087991 56.6396085,20.2213263 C53.7504989,20.7666418 53.0030705,19.4991714 52.7730926,18.8359355 C52.5179041,18.1908869 52.1133726,17.6192563 51.5944556,17.170441 C51.1919941,16.9493624 50.6170492,16.4040351 51.5800704,16.3893201 C52.3263562,16.4723561 52.9862321,16.923427 53.3480375,17.5978479 C53.6656731,18.1829476 54.1973435,18.6143674 54.8256833,18.7968725 C55.4540231,18.9793775 56.1273644,18.8979605 56.6970685,18.570594 C56.7468484,17.9711732 57.0073773,17.4107293 57.4301462,16.9936135 C54.8716414,16.698842 52.1981477,15.6818331 52.1981477,11.171876 C52.1819891,10.000036 52.603697,8.86626433 53.3767847,8.00308213 C53.0252425,6.98461052 53.0663754,5.86691271 53.4917737,4.87850402 C53.4917737,4.87850402 54.4547719,4.56898214 56.6539706,6.08706726 C58.5355215,5.55644704 60.5218686,5.55644704 62.4034195,6.08706726 C64.6025607,4.55425535 65.5656164,4.87850402 65.5656164,4.87850402 C65.9910725,5.86689906 66.0322062,6.98461968 65.6806054,8.00308213 C66.4560212,8.86478695 66.8780972,9.9995485 66.8592424,11.171876 C66.8592424,15.6965834 64.1713521,16.698842 61.6128703,16.9936135 C62.1681435,17.5707033 62.4514042,18.3667591 62.3890459,19.1749227 C62.3890459,20.7519739 62.3746608,22.0194443 62.3746608,22.4174095 C62.3746608,22.7269313 62.5902651,23.0953839 63.16521,22.9774753 C68.5055808,21.1337003 71.7576711,15.5950737 70.8480723,9.89281206 C69.9384735,4.19055046 65.1349089,0.00300725452 59.4999478,0 Z" id="Path-Copy" fill="#000000"></path>
        </g>
        <g id="Group-3-Copy" transform="translate(694.000000, 279.000000)" fill-rule="nonzero">
            <g id="Group" transform="translate(0.000000, 3.000000)">
                <path d="M25.8363017,5.97021807 C24.8971928,5.97021807 24.1979222,6.42234931 24.1979222,7.51062651 C24.1979222,8.33045079 24.6587271,8.89965172 25.7858636,8.89965172 C26.7410989,8.89965172 27.3902747,8.34760755 27.3902747,7.47664938 C27.3902747,6.48963074 26.809379,5.97021807 25.8363017,5.97021807 L25.8363017,5.97021807 Z M23.9591133,13.6537579 C23.7367741,13.9212016 23.515121,14.2054656 23.515121,14.5408636 C23.515121,15.2099774 24.3852636,15.4111489 25.5810233,15.4111489 C26.5709133,15.4111489 27.9197028,15.3431947 27.9197028,14.4406142 C27.9197028,13.9040448 27.2705271,13.8710769 26.4508227,13.8206158 L23.9591133,13.6537579 Z M29.0114984,6.02067915 C29.3185873,6.40586536 29.6435183,6.94142557 29.6435183,7.71146159 C29.6435183,9.56910199 28.1581686,10.6570428 26.0075166,10.6570428 C25.4605895,10.6570428 24.9654729,10.5904342 24.658384,10.5066688 L24.0949873,11.3937745 L25.7676785,11.4936874 C28.7212221,11.678375 30.4621934,11.7621403 30.4621934,13.9874738 C30.4621934,15.912732 28.7383779,17 25.7676785,17 C22.6775746,17 21.5,16.229964 21.5,14.9082202 C21.5,14.1546681 21.8417437,13.7540072 22.4391089,13.2006174 C21.875369,12.9671508 21.6880276,12.5489967 21.6880276,12.0968655 C21.6880276,11.7284996 21.8757122,11.3937745 22.1831442,11.0755333 C22.4905763,10.7579649 22.8319768,10.4393873 23.2413144,10.0713579 C22.4047972,9.66968773 21.7734636,8.79940238 21.7734636,7.56041477 C21.7734636,5.63582934 23.0707857,4.31408557 25.6825857,4.31408557 C26.4168542,4.31408557 26.8611896,4.38035778 27.2533713,4.48161634 L30.5826272,4.48161634 L30.5826272,5.90394586 L29.0114984,6.02067915 L29.0114984,6.02067915 Z M33.5859227,2.97955832 C32.6125022,2.97955832 32.0491055,2.42684133 32.0491055,1.47245419 C32.0491055,0.519412673 32.6125022,0 33.5859227,0 C34.5761558,0 35.1392096,0.519076265 35.1392096,1.47245419 C35.1395525,2.42684133 34.5761558,2.97955832 33.5859227,2.97955832 Z M31.3831171,13.0381327 L31.3831171,11.716389 L32.254289,11.5993193 C32.4930978,11.5656786 32.5270663,11.5155539 32.5270663,11.2639213 L32.5270663,6.34329362 C32.5270663,6.15961531 32.4762851,6.0418728 32.3050701,5.99208454 L31.3831171,5.67384335 L31.5708016,4.31879527 L35.1052409,4.31879527 L35.1052409,11.2642577 C35.1052409,11.5327107 35.1217105,11.5656786 35.3783613,11.5996557 L36.2491901,11.7167254 L36.2491901,13.0384691 L31.3831171,13.0384691 L31.3831171,13.0381327 Z M43,12.3888669 C42.2653884,12.7397396 41.1904055,13.0583172 40.2166419,13.0583172 C38.1853944,13.0583172 37.4175005,12.2556497 37.4175005,10.3633593 L37.4175005,5.97829184 C37.4175005,5.87837891 37.4175005,5.81109748 37.2805972,5.81109748 L36.0858668,5.81109748 L36.0858668,4.32148652 C37.5887155,4.15361935 38.1857375,3.41722405 38.3734221,1.59288796 L39.9956751,1.59288796 L39.9956751,3.97027744 C39.9956751,4.08701073 39.9956751,4.13780821 40.1322354,4.13780821 L42.539195,4.13780821 L42.539195,5.81143389 L39.9956751,5.81143389 L39.9956751,9.81131515 C39.9956751,10.7986702 40.2348271,11.18352 41.156437,11.18352 C41.635084,11.18352 42.1295144,11.0667867 42.539195,10.9160763 L43,12.3888669 L43,12.3888669 Z" id="Shape" fill="#31251C"></path>
                <path d="M18.0808041,8.19816517 L10.0346734,0.339423834 C9.5716911,-0.113141278 8.8200964,-0.113141278 8.35676038,0.339423834 L6.68592115,1.97142199 L8.80488766,4.04147554 C9.29793378,3.87910485 9.86242561,3.98792776 10.2550233,4.37174443 C10.6497432,4.75763392 10.7604486,5.31383989 10.5899693,5.79680633 L12.6325384,7.79189298 C13.1262919,7.62572213 13.6967965,7.73316316 14.0915163,8.11905265 C14.6432753,8.65763968 14.6432753,9.53064123 14.0915163,10.0695737 C13.5394037,10.6085062 12.6459787,10.6085062 12.0942197,10.0695737 C11.6793395,9.66399248 11.5767689,9.06874844 11.7868617,8.56954494 L9.88187865,6.70884594 L9.88152496,11.6055314 C10.0162815,11.6704796 10.1429031,11.756847 10.2550233,11.8660154 C10.8067822,12.4046024 10.8067822,13.2772585 10.2550233,13.8168819 C9.70326438,14.355469 8.80913196,14.355469 8.25808041,13.8168819 C7.70632148,13.2772585 7.70632148,12.4046024 8.25808041,11.8660154 C8.39460538,11.7330096 8.55199815,11.632478 8.72035536,11.5651114 L8.72035536,6.62316949 C8.55199815,6.5561484 8.39460538,6.45596223 8.25808041,6.32226551 C7.84001692,5.91426597 7.7395685,5.31556724 7.95390562,4.81429092 L5.8650029,2.77325682 L0.347767287,8.16189087 C-0.115922429,8.61480145 -0.115922429,9.34892425 0.347767287,9.80183483 L8.393898,17.6605762 C8.85723402,18.1131413 9.60847503,18.1131413 10.0725184,17.6605762 L18.0808041,9.83776366 C18.5444939,9.38519855 18.5444939,8.65073028 18.0808041,8.19816517 L18.0808041,8.19816517 Z" id="Path" fill="#F34F29"></path>
            </g>
            <path d="M59.4999478,0 C53.8602119,0.000239803083 49.0529511,4.19427955 48.1495389,9.90253444 C47.2461267,15.6107893 50.5132122,21.1484246 55.8634444,22.9774282 C56.4383893,23.0806218 56.6539936,22.7269078 56.6539936,22.4173623 C56.6539936,22.1373411 56.6396085,21.2087991 56.6396085,20.2213263 C53.7504989,20.7666418 53.0030705,19.4991714 52.7730926,18.8359355 C52.5179041,18.1908869 52.1133726,17.6192563 51.5944556,17.170441 C51.1919941,16.9493624 50.6170492,16.4040351 51.5800704,16.3893201 C52.3263562,16.4723561 52.9862321,16.923427 53.3480375,17.5978479 C53.6656731,18.1829476 54.1973435,18.6143674 54.8256833,18.7968725 C55.4540231,18.9793775 56.1273644,18.8979605 56.6970685,18.570594 C56.7468484,17.9711732 57.0073773,17.4107293 57.4301462,16.9936135 C54.8716414,16.698842 52.1981477,15.6818331 52.1981477,11.171876 C52.1819891,10.000036 52.603697,8.86626433 53.3767847,8.00308213 C53.0252425,6.98461052 53.0663754,5.86691271 53.4917737,4.87850402 C53.4917737,4.87850402 54.4547719,4.56898214 56.6539706,6.08706726 C58.5355215,5.55644704 60.5218686,5.55644704 62.4034195,6.08706726 C64.6025607,4.55425535 65.5656164,4.87850402 65.5656164,4.87850402 C65.9910725,5.86689906 66.0322062,6.98461968 65.6806054,8.00308213 C66.4560212,8.86478695 66.8780972,9.9995485 66.8592424,11.171876 C66.8592424,15.6965834 64.1713521,16.698842 61.6128703,16.9936135 C62.1681435,17.5707033 62.4514042,18.3667591 62.3890459,19.1749227 C62.3890459,20.7519739 62.3746608,22.0194443 62.3746608,22.4174095 C62.3746608,22.7269313 62.5902651,23.0953839 63.16521,22.9774753 C68.5055808,21.1337003 71.7576711,15.5950737 70.8480723,9.89281206 C69.9384735,4.19055046 65.1349089,0.00300725452 59.4999478,0 Z" id="Path-Copy" fill="#000000"></path>
        </g>
        <g id="Group-3-Copy-2" transform="translate(694.000000, 429.000000)" fill-rule="nonzero">
            <g id="Group" transform="translate(0.000000, 3.000000)">
                <path d="M25.8363017,5.97021807 C24.8971928,5.97021807 24.1979222,6.42234931 24.1979222,7.51062651 C24.1979222,8.33045079 24.6587271,8.89965172 25.7858636,8.89965172 C26.7410989,8.89965172 27.3902747,8.34760755 27.3902747,7.47664938 C27.3902747,6.48963074 26.809379,5.97021807 25.8363017,5.97021807 L25.8363017,5.97021807 Z M23.9591133,13.6537579 C23.7367741,13.9212016 23.515121,14.2054656 23.515121,14.5408636 C23.515121,15.2099774 24.3852636,15.4111489 25.5810233,15.4111489 C26.5709133,15.4111489 27.9197028,15.3431947 27.9197028,14.4406142 C27.9197028,13.9040448 27.2705271,13.8710769 26.4508227,13.8206158 L23.9591133,13.6537579 Z M29.0114984,6.02067915 C29.3185873,6.40586536 29.6435183,6.94142557 29.6435183,7.71146159 C29.6435183,9.56910199 28.1581686,10.6570428 26.0075166,10.6570428 C25.4605895,10.6570428 24.9654729,10.5904342 24.658384,10.5066688 L24.0949873,11.3937745 L25.7676785,11.4936874 C28.7212221,11.678375 30.4621934,11.7621403 30.4621934,13.9874738 C30.4621934,15.912732 28.7383779,17 25.7676785,17 C22.6775746,17 21.5,16.229964 21.5,14.9082202 C21.5,14.1546681 21.8417437,13.7540072 22.4391089,13.2006174 C21.875369,12.9671508 21.6880276,12.5489967 21.6880276,12.0968655 C21.6880276,11.7284996 21.8757122,11.3937745 22.1831442,11.0755333 C22.4905763,10.7579649 22.8319768,10.4393873 23.2413144,10.0713579 C22.4047972,9.66968773 21.7734636,8.79940238 21.7734636,7.56041477 C21.7734636,5.63582934 23.0707857,4.31408557 25.6825857,4.31408557 C26.4168542,4.31408557 26.8611896,4.38035778 27.2533713,4.48161634 L30.5826272,4.48161634 L30.5826272,5.90394586 L29.0114984,6.02067915 L29.0114984,6.02067915 Z M33.5859227,2.97955832 C32.6125022,2.97955832 32.0491055,2.42684133 32.0491055,1.47245419 C32.0491055,0.519412673 32.6125022,0 33.5859227,0 C34.5761558,0 35.1392096,0.519076265 35.1392096,1.47245419 C35.1395525,2.42684133 34.5761558,2.97955832 33.5859227,2.97955832 Z M31.3831171,13.0381327 L31.3831171,11.716389 L32.254289,11.5993193 C32.4930978,11.5656786 32.5270663,11.5155539 32.5270663,11.2639213 L32.5270663,6.34329362 C32.5270663,6.15961531 32.4762851,6.0418728 32.3050701,5.99208454 L31.3831171,5.67384335 L31.5708016,4.31879527 L35.1052409,4.31879527 L35.1052409,11.2642577 C35.1052409,11.5327107 35.1217105,11.5656786 35.3783613,11.5996557 L36.2491901,11.7167254 L36.2491901,13.0384691 L31.3831171,13.0384691 L31.3831171,13.0381327 Z M43,12.3888669 C42.2653884,12.7397396 41.1904055,13.0583172 40.2166419,13.0583172 C38.1853944,13.0583172 37.4175005,12.2556497 37.4175005,10.3633593 L37.4175005,5.97829184 C37.4175005,5.87837891 37.4175005,5.81109748 37.2805972,5.81109748 L36.0858668,5.81109748 L36.0858668,4.32148652 C37.5887155,4.15361935 38.1857375,3.41722405 38.3734221,1.59288796 L39.9956751,1.59288796 L39.9956751,3.97027744 C39.9956751,4.08701073 39.9956751,4.13780821 40.1322354,4.13780821 L42.539195,4.13780821 L42.539195,5.81143389 L39.9956751,5.81143389 L39.9956751,9.81131515 C39.9956751,10.7986702 40.2348271,11.18352 41.156437,11.18352 C41.635084,11.18352 42.1295144,11.0667867 42.539195,10.9160763 L43,12.3888669 L43,12.3888669 Z" id="Shape" fill="#31251C"></path>
                <path d="M18.0808041,8.19816517 L10.0346734,0.339423834 C9.5716911,-0.113141278 8.8200964,-0.113141278 8.35676038,0.339423834 L6.68592115,1.97142199 L8.80488766,4.04147554 C9.29793378,3.87910485 9.86242561,3.98792776 10.2550233,4.37174443 C10.6497432,4.75763392 10.7604486,5.31383989 10.5899693,5.79680633 L12.6325384,7.79189298 C13.1262919,7.62572213 13.6967965,7.73316316 14.0915163,8.11905265 C14.6432753,8.65763968 14.6432753,9.53064123 14.0915163,10.0695737 C13.5394037,10.6085062 12.6459787,10.6085062 12.0942197,10.0695737 C11.6793395,9.66399248 11.5767689,9.06874844 11.7868617,8.56954494 L9.88187865,6.70884594 L9.88152496,11.6055314 C10.0162815,11.6704796 10.1429031,11.756847 10.2550233,11.8660154 C10.8067822,12.4046024 10.8067822,13.2772585 10.2550233,13.8168819 C9.70326438,14.355469 8.80913196,14.355469 8.25808041,13.8168819 C7.70632148,13.2772585 7.70632148,12.4046024 8.25808041,11.8660154 C8.39460538,11.7330096 8.55199815,11.632478 8.72035536,11.5651114 L8.72035536,6.62316949 C8.55199815,6.5561484 8.39460538,6.45596223 8.25808041,6.32226551 C7.84001692,5.91426597 7.7395685,5.31556724 7.95390562,4.81429092 L5.8650029,2.77325682 L0.347767287,8.16189087 C-0.115922429,8.61480145 -0.115922429,9.34892425 0.347767287,9.80183483 L8.393898,17.6605762 C8.85723402,18.1131413 9.60847503,18.1131413 10.0725184,17.6605762 L18.0808041,9.83776366 C18.5444939,9.38519855 18.5444939,8.65073028 18.0808041,8.19816517 L18.0808041,8.19816517 Z" id="Path" fill="#F34F29"></path>
            </g>
            <path d="M59.4999478,0 C53.8602119,0.000239803083 49.0529511,4.19427955 48.1495389,9.90253444 C47.2461267,15.6107893 50.5132122,21.1484246 55.8634444,22.9774282 C56.4383893,23.0806218 56.6539936,22.7269078 56.6539936,22.4173623 C56.6539936,22.1373411 56.6396085,21.2087991 56.6396085,20.2213263 C53.7504989,20.7666418 53.0030705,19.4991714 52.7730926,18.8359355 C52.5179041,18.1908869 52.1133726,17.6192563 51.5944556,17.170441 C51.1919941,16.9493624 50.6170492,16.4040351 51.5800704,16.3893201 C52.3263562,16.4723561 52.9862321,16.923427 53.3480375,17.5978479 C53.6656731,18.1829476 54.1973435,18.6143674 54.8256833,18.7968725 C55.4540231,18.9793775 56.1273644,18.8979605 56.6970685,18.570594 C56.7468484,17.9711732 57.0073773,17.4107293 57.4301462,16.9936135 C54.8716414,16.698842 52.1981477,15.6818331 52.1981477,11.171876 C52.1819891,10.000036 52.603697,8.86626433 53.3767847,8.00308213 C53.0252425,6.98461052 53.0663754,5.86691271 53.4917737,4.87850402 C53.4917737,4.87850402 54.4547719,4.56898214 56.6539706,6.08706726 C58.5355215,5.55644704 60.5218686,5.55644704 62.4034195,6.08706726 C64.6025607,4.55425535 65.5656164,4.87850402 65.5656164,4.87850402 C65.9910725,5.86689906 66.0322062,6.98461968 65.6806054,8.00308213 C66.4560212,8.86478695 66.8780972,9.9995485 66.8592424,11.171876 C66.8592424,15.6965834 64.1713521,16.698842 61.6128703,16.9936135 C62.1681435,17.5707033 62.4514042,18.3667591 62.3890459,19.1749227 C62.3890459,20.7519739 62.3746608,22.0194443 62.3746608,22.4174095 C62.3746608,22.7269313 62.5902651,23.0953839 63.16521,22.9774753 C68.5055808,21.1337003 71.7576711,15.5950737 70.8480723,9.89281206 C69.9384735,4.19055046 65.1349089,0.00300725452 59.4999478,0 Z" id="Path-Copy" fill="#000000"></path>
        </g>
        <g id="Group-Copy" transform="translate(367.000000, 129.000000)" fill-rule="nonzero">
            <path d="M33.6472766,7.96029076 C32.4242511,7.96029076 31.513573,8.56313241 31.513573,10.0141687 C31.513573,11.1072677 32.1136911,11.8662023 33.5815898,11.8662023 C34.8256172,11.8662023 35.6710554,11.1301434 35.6710554,9.96886585 C35.6710554,8.65284099 34.9145401,7.96029076 33.6472766,7.96029076 L33.6472766,7.96029076 Z M31.2025662,18.2050105 C30.9130081,18.5616021 30.6243437,18.9406208 30.6243437,19.3878181 C30.6243437,20.2799699 31.7575525,20.5481986 33.314821,20.5481986 C34.6039801,20.5481986 36.3605432,20.4575929 36.3605432,19.2541523 C36.3605432,18.5387264 35.5151051,18.4947692 34.447583,18.4274878 L31.2025662,18.2050105 Z M37.7824165,8.0275722 C38.1823463,8.54115381 38.6055122,9.2552341 38.6055122,10.2819488 C38.6055122,12.7588027 36.6711032,14.2093904 33.8702542,14.2093904 C33.1579771,14.2093904 32.5131741,14.1205789 32.1132443,14.0088917 L31.3795184,15.1916993 L33.5579068,15.3249166 C37.4043823,15.5711666 39.6716937,15.6828538 39.6716937,18.649965 C39.6716937,21.216976 37.4267248,22.6666667 33.5579068,22.6666667 C29.5335855,22.6666667 28,21.639952 28,19.8776269 C28,18.8728909 28.4450615,18.3386763 29.2230255,17.6008232 C28.4888527,17.2895344 28.2448732,16.7319956 28.2448732,16.129154 C28.2448732,15.6379995 28.4892996,15.1916993 28.8896762,14.7673777 C29.2900528,14.3439532 29.7346675,13.9191831 30.2677583,13.4284772 C29.1783406,12.892917 28.3561386,11.7325365 28.3561386,10.080553 C28.3561386,7.51443912 30.0456743,5.75211409 33.4470883,5.75211409 C34.403345,5.75211409 34.9820143,5.84047704 35.4927626,5.97548845 L39.8285377,5.97548845 L39.8285377,7.87192781 L37.7824165,8.0275722 L37.7824165,8.0275722 Z M43.7398063,3.97274442 C42.4720959,3.97274442 41.73837,3.23578845 41.73837,1.96327225 C41.73837,0.69255023 42.4720959,0 43.7398063,0 C45.0294122,0 45.7626915,0.692101687 45.7626915,1.96327225 C45.7631382,3.23578845 45.0294122,3.97274442 43.7398063,3.97274442 Z M40.8710362,17.384177 L40.8710362,15.621852 L42.0055856,15.465759 C42.3165925,15.4209047 42.3608305,15.3540718 42.3608305,15.0185618 L42.3608305,8.45772483 C42.3608305,8.21282041 42.2946969,8.0558304 42.0717193,7.98944605 L40.8710362,7.56512447 L41.1154626,5.75839369 L45.7184533,5.75839369 L45.7184533,15.0190103 C45.7184533,15.3769475 45.739902,15.4209047 46.074145,15.4662076 L47.2082476,15.6223005 L47.2082476,17.3846255 L40.8710362,17.3846255 L40.8710362,17.384177 Z M56,16.5184892 C55.0432965,16.9863194 53.6433188,17.4110896 52.3751616,17.4110896 C49.729816,17.4110896 48.7297681,16.3408662 48.7297681,13.8178124 L48.7297681,7.97105579 C48.7297681,7.83783855 48.7297681,7.74812997 48.5514754,7.74812997 L46.9955475,7.74812997 L46.9955475,5.76198203 C48.9527457,5.53815913 49.7302628,4.55629873 49.9746892,2.12385061 L52.0873909,2.12385061 L52.0873909,5.29370325 C52.0873909,5.44934763 52.0873909,5.51707761 52.2652368,5.51707761 L55.3998819,5.51707761 L55.3998819,7.74857851 L52.0873909,7.74857851 L52.0873909,13.0817535 C52.0873909,14.3982269 52.3988446,14.91136 53.5990808,14.91136 C54.222435,14.91136 54.8663443,14.7557156 55.3998819,14.5547684 L56,16.5184892 L56,16.5184892 Z" id="Shape" fill="#31251C"></path>
            <path d="M23.5470938,10.9308869 L13.0684119,0.452565111 C12.4654582,-0.150855037 11.4866372,-0.150855037 10.8832228,0.452565111 L8.70724615,2.62856265 L11.4668304,5.38863405 C12.108937,5.1721398 12.8440892,5.31723701 13.3553792,5.82899257 C13.869433,6.34351189 14.0136075,7.08511986 13.7915879,7.7290751 L16.4516779,10.3891906 C17.0947057,10.1676295 17.8376884,10.3108842 18.3517422,10.8254035 C19.070312,11.5435196 19.070312,12.7075216 18.3517422,13.4260983 C17.6327118,14.144675 16.4691815,14.144675 15.7506118,13.4260983 C15.2103026,12.8853233 15.0767223,12.0916646 15.3503316,11.4260599 L12.8694234,8.94512792 L12.8689627,15.4740418 C13.0444596,15.5606395 13.2093621,15.675796 13.3553792,15.8213539 C14.073949,16.5394699 14.073949,17.7030113 13.3553792,18.4225093 C12.6368094,19.1406253 11.4723579,19.1406253 10.7547094,18.4225093 C10.0361396,17.7030113 10.0361396,16.5394699 10.7547094,15.8213539 C10.9325093,15.6440128 11.137486,15.5099706 11.3567419,15.4201486 L11.3567419,8.83089265 C11.137486,8.7415312 10.9325093,8.60794964 10.7547094,8.42968735 C10.2102546,7.88568796 10.079438,7.08742299 10.3585748,6.41905456 L7.63814331,3.69767576 L0.452906235,10.8825212 C-0.150968745,11.4864019 -0.150968745,12.4652323 0.452906235,13.0691131 L10.9315881,23.5474349 C11.5350024,24.150855 12.5133628,24.150855 13.1176984,23.5474349 L23.5470938,13.1170182 C24.1509687,12.5135981 24.1509687,11.534307 23.5470938,10.9308869 L23.5470938,10.9308869 Z" id="Path" fill="#F34F29"></path>
        </g>
        <text id="Case-1:-Project-Init" font-family="Helvetica-Bold, Helvetica" font-size="21" font-weight="bold" fill="#0055C2">
            <tspan x="20" y="170">Case 1:</tspan>
            <tspan x="20" y="195">Project </tspan>
            <tspan x="20" y="220">Initiator</tspan>
        </text>
        <text id="Case-2:-Project-Memb" font-family="Helvetica-Bold, Helvetica" font-size="21" font-weight="bold" fill="#D28A11">
            <tspan x="20" y="313">Case 2:</tspan>
            <tspan x="20" y="338">Project </tspan>
            <tspan x="20" y="363">Member</tspan>
        </text>
        <text id="Case-3:-Non-Project" font-family="Helvetica-Bold, Helvetica" font-size="21" font-weight="bold" fill="#199ABD">
            <tspan x="20" y="461">Case 3:</tspan>
            <tspan x="20" y="486">Non-Project </tspan>
            <tspan x="20" y="511">Member</tspan>
        </text>
        <text id="Get-Remote-Repositor" font-family="Helvetica-Bold, Helvetica" font-size="18" font-weight="bold" fill="#0055C2">
            <tspan x="479" y="333">Get Remote </tspan>
            <tspan x="479" y="355">Repository </tspan>
            <tspan x="479" y="377">Access</tspan>
        </text>
        <text id="Clone-Remote-Reposit" font-family="Helvetica-Bold, Helvetica" font-size="18" font-weight="bold" fill="#0055C2">
            <tspan x="645" y="333">Clone </tspan>
            <tspan x="645" y="355">Remote </tspan>
            <tspan x="645" y="377">Repository </tspan>
        </text>
        <text id="Clone-Remote-Reposit-Copy" font-family="Helvetica-Bold, Helvetica" font-size="18" font-weight="bold" fill="#0055C2">
            <tspan x="645" y="473">Clone </tspan>
            <tspan x="645" y="495">Remote </tspan>
            <tspan x="645" y="517">Repository </tspan>
        </text>
        <text id="Fork-Remote-Reposito" font-family="Helvetica-Bold, Helvetica" font-size="18" font-weight="bold" fill="#0055C2">
            <tspan x="479" y="484">Fork Remote </tspan>
            <tspan x="479" y="506">Repository</tspan>
        </text>
        <path id="Line-4-Copy-22" d="M618.04878,326.964539 L637.04878,336.464539 L618.04878,345.964539 L618.048,337.964 L598.95122,337.964539 L598.95122,334.964539 L618.048,334.964 L618.04878,326.964539 Z" fill="#0055C2" fill-rule="nonzero"></path>
        <path id="Line-4-Copy-23" d="M618.04878,477.964539 L637.04878,487.464539 L618.04878,496.964539 L618.048,488.964 L598.95122,488.964539 L598.95122,485.964539 L618.048,485.964 L618.04878,477.964539 Z" fill="#0055C2" fill-rule="nonzero"></path>
        <path d="M580.499916,126 C571.427297,126.000386 563.693878,132.747319 562.240563,141.930164 C560.787247,151.113009 566.042993,160.021379 574.649889,162.963689 C575.5748,163.129696 575.921642,162.560678 575.921642,162.062713 C575.921642,161.612244 575.898501,160.118503 575.898501,158.52996 C571.250803,159.407206 570.048418,157.368232 569.678453,156.301288 C569.267933,155.263601 568.617165,154.344021 567.782385,153.622014 C567.134947,153.266366 566.210036,152.3891 567.759244,152.365428 C568.95979,152.499008 570.02133,153.224643 570.603365,154.309581 C571.114344,155.250829 571.969639,155.944852 572.980447,156.238447 C573.991254,156.532042 575.074456,156.401067 575.990936,155.874434 C576.071017,154.910148 576.490129,154.008565 577.170235,153.337552 C573.05438,152.863354 568.753542,151.227297 568.753542,143.972148 C568.727548,142.087014 569.405947,140.263121 570.64961,138.874523 C570.084086,137.236113 570.150256,135.438077 570.834592,133.848028 C570.834592,133.848028 572.383763,133.350102 575.921605,135.792239 C578.948448,134.938632 582.143876,134.938632 585.170718,135.792239 C588.708467,133.326411 590.257731,133.848028 590.257731,133.848028 C590.94216,135.438055 591.008332,137.236127 590.442713,138.874523 C591.690121,140.260744 592.369113,142.08623 592.338781,143.972148 C592.338781,151.251026 588.014784,152.863354 583.898965,153.337552 C584.792231,154.265914 585.247911,155.546526 585.147596,156.846615 C585.147596,159.38361 585.124454,161.422584 585.124454,162.062789 C585.124454,162.560716 585.471296,163.153444 586.396207,162.963765 C594.987239,159.997692 600.218862,151.087727 598.755595,141.914524 C597.292327,132.74132 589.564854,126.004838 580.499916,126 Z" id="Path" fill="#000000" fill-rule="nonzero"></path>
        <path d="M580.499916,430 C571.427297,430.000386 563.693878,436.747319 562.240563,445.930164 C560.787247,455.113009 566.042993,464.021379 574.649889,466.963689 C575.5748,467.129696 575.921642,466.560678 575.921642,466.062713 C575.921642,465.612244 575.898501,464.118503 575.898501,462.52996 C571.250803,463.407206 570.048418,461.368232 569.678453,460.301288 C569.267933,459.263601 568.617165,458.344021 567.782385,457.622014 C567.134947,457.266366 566.210036,456.3891 567.759244,456.365428 C568.95979,456.499008 570.02133,457.224643 570.603365,458.309581 C571.114344,459.250829 571.969639,459.944852 572.980447,460.238447 C573.991254,460.532042 575.074456,460.401067 575.990936,459.874434 C576.071017,458.910148 576.490129,458.008565 577.170235,457.337552 C573.05438,456.863354 568.753542,455.227297 568.753542,447.972148 C568.727548,446.087014 569.405947,444.263121 570.64961,442.874523 C570.084086,441.236113 570.150256,439.438077 570.834592,437.848028 C570.834592,437.848028 572.383763,437.350102 575.921605,439.792239 C578.948448,438.938632 582.143876,438.938632 585.170718,439.792239 C588.708467,437.326411 590.257731,437.848028 590.257731,437.848028 C590.94216,439.438055 591.008332,441.236127 590.442713,442.874523 C591.690121,444.260744 592.369113,446.08623 592.338781,447.972148 C592.338781,455.251026 588.014784,456.863354 583.898965,457.337552 C584.792231,458.265914 585.247911,459.546526 585.147596,460.846615 C585.147596,463.38361 585.124454,465.422584 585.124454,466.062789 C585.124454,466.560716 585.471296,467.153444 586.396207,466.963765 C594.987239,463.997692 600.218862,455.087727 598.755595,445.914524 C597.292327,436.74132 589.564854,430.004838 580.499916,430 Z" id="Path" fill="#000000" fill-rule="nonzero"></path>
        <path d="M579.499921,281 C570.917714,281.000365 563.602317,287.382599 562.227559,296.069074 C560.852802,304.755549 565.824453,313.182385 573.966111,315.965652 C574.841027,316.122685 575.169121,315.584425 575.169121,315.113377 C575.169121,314.687258 575.14723,313.274259 575.14723,311.771583 C570.750759,312.601411 569.613368,310.672652 569.263402,309.66338 C568.875071,308.681784 568.25948,307.811912 567.469824,307.128932 C566.857382,306.792508 565.982466,305.962662 567.447933,305.94027 C568.583585,306.066629 569.587745,306.753041 570.138318,307.779334 C570.621676,308.669703 571.43074,309.326211 572.386909,309.603936 C573.343079,309.881661 574.367728,309.757766 575.234669,309.259599 C575.310421,308.347437 575.706878,307.494588 576.350222,306.859847 C572.456846,306.411281 568.388486,304.863659 568.388486,298.000681 C568.363896,296.217446 569.005626,294.492141 570.182064,293.178603 C569.647108,291.628755 569.709702,289.927911 570.357047,288.42381 C570.357047,288.42381 571.822479,287.952799 575.169086,290.262928 C578.032315,289.455463 581.055017,289.455463 583.918247,290.262928 C587.264766,287.930389 588.730286,288.42381 588.730286,288.42381 C589.377719,289.92789 589.440314,291.628769 588.905269,293.178603 C590.08525,294.489893 590.727539,296.216704 590.698847,298.000681 C590.698847,304.886105 586.608579,306.411281 582.715237,306.859847 C583.560218,307.738027 583.991267,308.949416 583.896374,310.17923 C583.896374,312.579091 583.874484,314.50785 583.874484,315.113449 C583.874484,315.584461 584.202577,316.145149 585.077493,315.965723 C593.204145,313.159979 598.152978,304.731634 596.768806,296.054279 C595.384634,287.376925 588.074861,281.004576 579.499921,281 Z" id="Path" fill="#000000" fill-rule="nonzero"></path>
        <text id="Key-Steps-to-Launch" font-family="Helvetica-Bold, Helvetica" font-size="21" font-weight="bold" fill="#0055C2">
            <tspan x="10" y="82">Key Steps to Launch Git Project by Different Cases</tspan>
        </text>
        <g id="bloovee-winner-logo" transform="translate(725.000000, 580.000000)">
            <path d="M13,13.7751507 C13,14.396312 13.4732558,14.8717809 14.0514961,14.8717809 C14.6474304,14.8717809 15.1204503,14.3968042 15.1204503,13.7751507 L15.1204503,2.09687626 C15.1204503,1.49368045 14.6474304,1 14.0514961,1 C13.4557977,1 13,1.49392656 13,2.09687626 L13,13.7751507 Z M21.7920364,15 C24.6483217,15 26.751078,12.7149437 26.751078,9.97312215 L26.751078,9.93645297 C26.751078,7.17641992 24.6657798,4.92778666 21.8269526,4.92778666 C18.9881254,4.92778666 16.885369,7.212843 16.885369,9.97312215 L16.885369,10.0095452 C16.885369,12.7516128 18.9706673,15 21.7920364,15 Z M21.8269526,13.0621935 C20.179994,13.0621935 19.0055834,11.6547366 19.0055834,9.97312215 L19.0055834,9.93645297 C19.0055834,8.25459244 20.0919958,6.86534709 21.7920364,6.86534709 C23.456689,6.86534709 24.6306277,8.27305008 24.6306277,9.97312215 L24.6306277,10.0095452 C24.6306277,11.6731942 23.5444513,13.0621935 21.8269526,13.0621935 Z M32.8092717,15 C35.665557,15 37.7683133,12.7149437 37.7683133,9.97312215 L37.7683133,9.93645297 C37.7683133,7.17641992 35.6830151,4.92778666 32.8441878,4.92778666 C30.0053606,4.92778666 27.9026043,7.212843 27.9026043,9.97312215 L27.9026043,10.0095452 C27.9026043,12.7516128 29.9879025,15 32.8092717,15 Z M32.8441878,13.0621935 C31.1969933,13.0621935 30.0228187,11.6547366 30.0228187,9.97312215 L30.0228187,9.93645297 C30.0228187,8.25459244 31.109231,6.86534709 32.8092717,6.86534709 C34.4739243,6.86534709 35.647863,8.27305008 35.647863,9.97312215 L35.647863,10.0095452 C35.647863,11.6731942 34.5614506,13.0621935 32.8441878,13.0621935 Z M44.1416963,13.9944275 L47.2261164,6.6096472 C47.2784906,6.49988574 47.3487948,6.28060893 47.3487948,6.07954366 C47.3487948,5.47610175 46.8929971,5.01933658 46.3147568,5.01933658 C45.7539746,5.01933658 45.4737015,5.40300947 45.3158709,5.78692847 L42.8976893,12.2215093 L40.5144239,5.82335156 C40.3393711,5.36634029 40.041404,5.01933658 39.4629278,5.01933658 C38.8846875,5.01933658 38.4116676,5.53098247 38.4116676,6.07954366 C38.4116676,6.28060893 38.4817358,6.46346265 38.534346,6.62785874 L41.6182943,13.9944275 C41.8638872,14.5796579 42.2491448,14.9633308 42.8273851,14.9633308 L42.9326055,14.9633308 C43.5108458,14.9633308 43.8965752,14.5612003 44.1416963,13.9944275 Z M50.0949054,9.27837643 C50.2876522,7.77961573 51.1987758,6.73762019 52.4956289,6.73762019 C53.8974665,6.73762019 54.7036056,7.8524619 54.8437422,9.27837643 L50.0949054,9.27837643 Z M56.070527,13.72027 C56.2281217,13.5558739 56.3508002,13.3181395 56.3508002,13.0439819 C56.3508002,12.5320899 55.9830006,12.1481709 55.5095089,12.1481709 C55.2641519,12.1481709 55.1242513,12.2215093 54.9664207,12.3492362 C54.3704864,12.8611282 53.6695676,13.1901665 52.7759021,13.1901665 C51.4089807,13.1901665 50.3402624,12.3128131 50.1123635,10.7409601 L55.9126964,10.7409601 C56.4560206,10.7409601 56.9115824,10.3021604 56.9115824,9.68050697 C56.9115824,7.45057746 55.4568987,4.92778666 52.513087,4.92778666 C49.8672425,4.92778666 47.9919132,7.19438536 47.9919132,9.95466451 L47.9919132,9.9913337 C47.9919132,12.9708897 50.0597533,15 52.7409859,15 C54.1779755,15 55.2292357,14.5063195 56.070527,13.72027 Z M60.1833231,9.27837643 C60.3763058,7.77961573 61.2871935,6.73762019 62.5842825,6.73762019 C63.9858841,6.73762019 64.7920233,7.8524619 64.9321598,9.27837643 L60.1833231,9.27837643 Z M66.1589447,13.72027 C66.3167752,13.5558739 66.4394537,13.3181395 66.4394537,13.0439819 C66.4394537,12.5320899 66.0714183,12.1481709 65.5981624,12.1481709 C65.3528055,12.1481709 65.2126689,12.2215093 65.0548383,12.3492362 C64.4591399,12.8611282 63.7582212,13.1901665 62.8643197,13.1901665 C61.4976342,13.1901665 60.4289159,12.3128131 60.2007812,10.7409601 L66.0011141,10.7409601 C66.5444382,10.7409601 67,10.3021604 67,9.68050697 C67,7.45057746 65.5455522,4.92778666 62.6015046,4.92778666 C59.9556601,4.92778666 58.0805667,7.19438536 58.0805667,9.95466451 L58.0805667,9.9913337 C58.0805667,12.9708897 60.1484069,15 62.8294035,15 C64.2663932,15 65.3178893,14.5063195 66.1589447,13.72027 L66.1589447,13.72027 Z" id="Fill-1" fill="#030060"></path>
            <g id="Group-4">
                <mask id="mask-2" fill="white">
                    <use xlink:href="#path-1"></use>
                </mask>
                <g id="Clip-3"></g>
                <path d="M8.68744595,14.5405413 C10.6544909,13.5649687 12,11.5915112 12,9.31636202 C12,6.07252388 9.26504479,3.44227578 5.89152197,3.44227578 C4.52034181,3.44227578 3.25480793,3.87689217 2.23537065,4.61058921 L2.23537065,1.05770107 C2.23537065,0.476155373 1.74046224,0 1.11695169,0 C0.493934821,0 0.0167986821,0.476630104 0.0167986821,1.05770107 L0.0167986821,1.80184219 L0,9.32158406 C-0.0041824725,11.2003327 0.951817666,12.865215 2.41753644,13.8939574 C2.4777647,13.9362085 2.55848043,13.9312238 2.6127846,13.8823265 C2.66758244,13.8334292 2.6779496,13.7558106 2.63746831,13.6950451 C0.724974359,10.8146136 1.16014819,5.53963813 5.89176881,5.53963813 C8.05899866,5.53963813 9.80709909,7.22944376 9.81623206,9.31351363 C9.82240299,10.8599505 9.11620201,12.0365717 8.19549958,12.7781018 C6.36026565,14.2561773 3.64974731,12.6382934 4.49738595,10.4697214 C4.5894562,10.2335427 4.71879884,9.9959397 4.88664808,9.76189723 L5.12361171,9.47705853 C5.19766284,9.39967734 5.25048599,9.29903433 5.2146946,9.19411874 C5.01401603,8.62800181 3.46832203,8.97526767 3.04005964,10.0315445 C3.34292878,9.79631524 3.65986763,9.66433998 3.96940137,9.71489885 C2.38890334,11.275815 3.44141679,13.9563846 5.46005069,14.7513219 C6.40494316,15.1232738 7.55964718,15.0976383 8.68744595,14.5405413" id="Fill-2" fill="url(#linearGradient-3)" mask="url(#mask-2)"></path>
            </g>
        </g>
    </g>
</svg>