<?xml version="1.0" encoding="UTF-8"?>
<svg width="800px" height="600px" viewBox="0 0 800 600" version="1.1" xmlns="http://www.w3.org/2000/svg" xmlns:xlink="http://www.w3.org/1999/xlink">
    <title>2041-10-11-11-10_WhatIsGit?</title>
    <defs>
        <linearGradient x1="76.1538992%" y1="15.3125669%" x2="33.0215953%" y2="58.0561958%" id="linearGradient-1">
            <stop stop-color="#0052CC" offset="18%"></stop>
            <stop stop-color="#2684FF" offset="100%"></stop>
        </linearGradient>
        <linearGradient x1="69.53125%" y1="0%" x2="30.46875%" y2="100%" id="linearGradient-2">
            <stop stop-color="#00A5FF" offset="0.0491695804%"></stop>
            <stop stop-color="#0755C2" offset="100%"></stop>
        </linearGradient>
        <path d="M8.68744595,14.5405413 C10.6544909,13.5649687 12,11.5915112 12,9.31636202 C12,6.07252388 9.26504479,3.44227578 5.89152197,3.44227578 C4.52034181,3.44227578 3.25480793,3.87689217 2.23537065,4.61058921 L2.23537065,1.05770107 C2.23537065,0.476155373 1.74046224,0 1.11695169,0 C0.493934821,0 0.0167986821,0.476630104 0.0167986821,1.05770107 L0.0167986821,1.80184219 L0,9.32158406 C-0.0041824725,11.2003327 0.951817666,12.865215 2.41753644,13.8939574 C2.4777647,13.9362085 2.55848043,13.9312238 2.6127846,13.8823265 C2.66758244,13.8334292 2.6779496,13.7558106 2.63746831,13.6950451 C0.724974359,10.8146136 1.16014819,5.53963813 5.89176881,5.53963813 C8.05899866,5.53963813 9.80709909,7.22944376 9.81623206,9.31351363 C9.82240299,10.8599505 9.11620201,12.0365717 8.19549958,12.7781018 C6.36026565,14.2561773 3.64974731,12.6382934 4.49738595,10.4697214 C4.5894562,10.2335427 4.71879884,9.9959397 4.88664808,9.76189723 L5.12361171,9.47705853 C5.19766284,9.39967734 5.25048599,9.29903433 5.2146946,9.19411874 C5.01401603,8.62800181 3.46832203,8.97526767 3.04005964,10.0315445 C3.34292878,9.79631524 3.65986763,9.66433998 3.96940137,9.71489885 C2.38890334,11.275815 3.44141679,13.9563846 5.46005069,14.7513219 C6.40494316,15.1232738 7.55964718,15.0976383 8.68744595,14.5405413" id="path-3"></path>
        <linearGradient x1="28.568518%" y1="104.445731%" x2="78.3472072%" y2="20.6880271%" id="linearGradient-5">
            <stop stop-color="#000F98" offset="0%"></stop>
            <stop stop-color="#00A5FD" offset="100%"></stop>
        </linearGradient>
    </defs>
    <g id="2041-10-11-11-10_WhatIsGit?" stroke="none" stroke-width="1" fill="none" fill-rule="evenodd">
        <rect fill="#FFFFFF" x="0" y="0" width="800" height="600"></rect>
        <path id="Line" d="M562.190657,186.319082 L562.680918,187.190657 L562.245131,187.435788 L555.906,191 L559.5,191 L559.5,192 L555.91,192 L562.245131,195.564212 L562.680918,195.809343 L562.190657,196.680918 L561.754869,196.435788 L553.754869,191.935788 L552.980136,191.5 L553.754869,191.064212 L561.754869,186.564212 L562.190657,186.319082 Z M567.5,191 L567.5,192 L562.5,192 L562.5,191 L567.5,191 Z M575.5,191 L575.5,192 L570.5,192 L570.5,191 L575.5,191 Z" fill="#0055C2" fill-rule="nonzero"></path>
        <path id="Line-Copy" d="M637.809343,186.319082 L638.245131,186.564212 L646.245131,191.064212 L647.019864,191.5 L646.245131,191.935788 L638.245131,196.435788 L637.809343,196.680918 L637.319082,195.809343 L637.754869,195.564212 L644.98,191.499 L637.754869,187.435788 L637.319082,187.190657 L637.809343,186.319082 Z M626,191 L626,192 L621,192 L621,191 L626,191 Z M634,191 L634,192 L629,192 L629,191 L634,191 Z M642,191 L642,192 L637,192 L637,191 L642,191 Z" fill="#0055C2" fill-rule="nonzero"></path>
        <path d="M183.046011,60.13 L179.956011,54.76 L174.216011,57.14 L175.826011,63.14 C174.084746,64.3595572 172.571674,65.8760147 171.356011,67.62 L165.356011,66.01 L162.976011,71.74 L168.346011,74.84 C167.976056,76.9337836 167.976056,79.0762164 168.346011,81.17 L162.976011,84.26 L165.356011,90 L171.356011,88.39 C171.356011,88.39 167.046011,70 183.046011,60.13 Z" id="Path" fill="#FFFFFF" fill-rule="nonzero"></path>
        <ellipse id="Oval" fill-opacity="0.604594624" fill="#C5DDFF" cx="362.5" cy="321.5" rx="212.5" ry="94.5"></ellipse>
        <text id="Remote-Repository" font-family="Helvetica-Bold, Helvetica" font-size="21" font-weight="bold" fill="#0055C2">
            <tspan x="186" y="156">Remote Repository</tspan>
        </text>
        <text id="Local-Repository" font-family="Helvetica-Bold, Helvetica" font-size="21" font-weight="bold" fill="#0055C2">
            <tspan x="85" y="375">Local Repository</tspan>
        </text>
        <text id="Version-History" font-family="Helvetica" font-size="21" font-weight="normal" fill="#0055C2">
            <tspan x="129.886475" y="498">Version History</tspan>
        </text>
        <text id="Version-History-Copy" font-family="Helvetica" font-size="21" font-weight="normal" fill="#0055C2">
            <tspan x="465.886475" y="498">Version History</tspan>
        </text>
        <text id="Local-Repository" font-family="Helvetica-Bold, Helvetica" font-size="21" font-weight="bold" fill="#0055C2">
            <tspan x="419" y="374">Local Repository</tspan>
        </text>
        <text id="Deployment-Server" font-family="Helvetica" font-size="21" font-weight="normal" fill="#0055C2">
            <tspan x="652.472656" y="155">Deployment </tspan>
            <tspan x="677.574219" y="180">Server</tspan>
        </text>
        <text id="GitHub" font-family="Helvetica" font-size="21" font-weight="normal" fill="#0055C2">
            <tspan x="224" y="229">GitHub</tspan>
        </text>
        <text id="GitLab" font-family="Helvetica" font-size="21" font-weight="normal" fill="#0055C2">
            <tspan x="334.063965" y="230">GitLab</tspan>
        </text>
        <g id="documents" transform="translate(89.000000, 383.000000)" fill-rule="nonzero">
            <path d="M51.9807692,16.5079365 L51.9807692,63.968254 L11.2115385,63.968254 L11.2115385,58.5442177 C11.2248756,58.5280812 45.9008493,16.5293615 45.9184301,16.5079365 L51.9807692,16.5079365 Z" id="Path" fill="#A4C2F7"></path>
            <path d="M45.8653846,57.7777778 C44.4946387,57.7777778 1.86141061,57.7777778 1.01923077,57.7777778 C1.01923077,54.26101 1.01923077,3.37968065 1.01923077,1.03174603 L33.4940318,1.03174603 L36.8446581,8.5528921 L45.8653846,11.840514 C45.8653846,13.8632398 45.8653846,55.4799688 45.8653846,57.7777778 Z" id="Path" fill="#FFFFFF"></path>
            <polygon id="Path" fill="#A4C2F7" points="45.8653846 12.3809524 33.6346154 12.3809524 33.6346154 1.03174603"></polygon>
            <path d="M46.3585608,58.8095238 L1.54528536,58.8095238 C0.691824256,58.8095238 0,58.2110032 0,57.4729437 L0,1.33658009 C0,0.598386905 0.691824256,0 1.54528536,0 L33.9962779,0 C34.4060876,0 34.7990537,0.140875541 35.0889492,0.391484307 L47.4512321,11.084125 C47.7409731,11.3347338 47.9038462,11.6747597 47.9038462,12.0292208 L47.9038462,57.4729437 C47.9038462,58.2110032 47.2118674,58.8095238 46.3585608,58.8095238 Z M3.09057072,56.1363636 L44.8132754,56.1363636 L44.8132754,12.5828323 L33.3560662,2.67316017 L3.09057072,2.67316017 L3.09057072,56.1363636 Z" id="Shape" fill="#418CFE"></path>
            <path d="M45.4174874,13.5416667 L33.2854671,13.5416667 C32.4480544,13.5416667 31.7689646,12.9354062 31.7689646,12.1875 L31.7689646,1.35416667 C31.7689646,0.606260417 32.4480544,0 33.2854671,0 C34.1228798,0 34.8019697,0.606260417 34.8019697,1.35416667 L34.8019697,10.8333333 L45.4174874,10.8333333 C46.2549001,10.8333333 46.9339899,11.4395937 46.9339899,12.1875 C46.9339899,12.9354062 46.2549001,13.5416667 45.4174874,13.5416667 Z M51.4834975,65 L10.6895795,65 C9.85201511,65 9.17307692,64.3936042 9.17307692,63.6458333 L9.17307692,58.2291667 C9.17307692,57.4813958 9.85201511,56.875 10.6895795,56.875 C11.5271438,56.875 12.206082,57.4813958 12.206082,58.2291667 L12.206082,62.2916667 L49.9669949,62.2916667 L49.9669949,17.6041667 L45.4174874,17.6041667 C44.5800747,17.6041667 43.9009848,16.9979062 43.9009848,16.25 C43.9009848,15.5020937 44.5800747,14.8958333 45.4174874,14.8958333 L51.4834975,14.8958333 C52.3209102,14.8958333 53,15.5020937 53,16.25 L53,63.6458333 C53,64.3936042 52.3209102,65 51.4834975,65 Z" id="Shape" fill="#418CFE"></path>
            <path d="M39.2182274,50.5555556 L6.64715719,50.5555556 C5.79053804,50.5555556 5.09615385,49.9465346 5.09615385,49.1955267 C5.09615385,48.4445188 5.79053804,47.8354978 6.64715719,47.8354978 L39.2182274,47.8354978 C40.0746915,47.8354978 40.7692308,48.4445188 40.7692308,49.1955267 C40.7692308,49.9465346 40.0746915,50.5555556 39.2182274,50.5555556 Z M39.2182274,45.1154401 L6.64715719,45.1154401 C5.79053804,45.1154401 5.09615385,44.5064192 5.09615385,43.7554113 C5.09615385,43.0044033 5.79053804,42.3953824 6.64715719,42.3953824 L39.2182274,42.3953824 C40.0746915,42.3953824 40.7692308,43.0044033 40.7692308,43.7554113 C40.7692308,44.5064192 40.0746915,45.1154401 39.2182274,45.1154401 Z M39.2182274,39.6753247 L6.64715719,39.6753247 C5.79053804,39.6753247 5.09615385,39.0663038 5.09615385,38.3152958 C5.09615385,37.5642879 5.79053804,36.955267 6.64715719,36.955267 L39.2182274,36.955267 C40.0746915,36.955267 40.7692308,37.5642879 40.7692308,38.3152958 C40.7692308,39.0663038 40.0746915,39.6753247 39.2182274,39.6753247 Z M39.2182274,34.2352092 L6.64715719,34.2352092 C5.79053804,34.2352092 5.09615385,33.6263243 5.09615385,32.8751804 C5.09615385,32.1240364 5.79053804,31.5151515 6.64715719,31.5151515 L39.2182274,31.5151515 C40.0746915,31.5151515 40.7692308,32.1240364 40.7692308,32.8751804 C40.7692308,33.6263243 40.0746915,34.2352092 39.2182274,34.2352092 Z M39.2182274,28.7950938 L6.64715719,28.7950938 C5.79053804,28.7950938 5.09615385,28.1862089 5.09615385,27.4350649 C5.09615385,26.683921 5.79053804,26.0750361 6.64715719,26.0750361 L39.2182274,26.0750361 C40.0746915,26.0750361 40.7692308,26.683921 40.7692308,27.4350649 C40.7692308,28.1862089 40.0746915,28.7950938 39.2182274,28.7950938 Z M20.6061873,23.3549784 L6.64715719,23.3549784 C5.79053804,23.3549784 5.09615385,22.7460934 5.09615385,21.9949495 C5.09615385,21.2438056 5.79053804,20.6349206 6.64715719,20.6349206 L20.6061873,20.6349206 C21.4628064,20.6349206 22.1571906,21.2438056 22.1571906,21.9949495 C22.1571906,22.7460934 21.4628064,23.3549784 20.6061873,23.3549784 Z" id="Shape" fill="#418CFE"></path>
        </g>
        <g id="documents-copy" transform="translate(175.000000, 383.000000)" fill-rule="nonzero">
            <path d="M51.9807692,16.5079365 L51.9807692,63.968254 L11.2115385,63.968254 L11.2115385,58.5442177 C11.2248756,58.5280812 45.9008493,16.5293615 45.9184301,16.5079365 L51.9807692,16.5079365 Z" id="Path" fill="#A4C2F7"></path>
            <path d="M45.8653846,57.7777778 C44.4946387,57.7777778 1.86141061,57.7777778 1.01923077,57.7777778 C1.01923077,54.26101 1.01923077,3.37968065 1.01923077,1.03174603 L33.4940318,1.03174603 L36.8446581,8.5528921 L45.8653846,11.840514 C45.8653846,13.8632398 45.8653846,55.4799688 45.8653846,57.7777778 Z" id="Path" fill="#FFFFFF"></path>
            <polygon id="Path" fill="#A4C2F7" points="45.8653846 12.3809524 33.6346154 12.3809524 33.6346154 1.03174603"></polygon>
            <path d="M46.3585608,58.8095238 L1.54528536,58.8095238 C0.691824256,58.8095238 0,58.2110032 0,57.4729437 L0,1.33658009 C0,0.598386905 0.691824256,0 1.54528536,0 L33.9962779,0 C34.4060876,0 34.7990537,0.140875541 35.0889492,0.391484307 L47.4512321,11.084125 C47.7409731,11.3347338 47.9038462,11.6747597 47.9038462,12.0292208 L47.9038462,57.4729437 C47.9038462,58.2110032 47.2118674,58.8095238 46.3585608,58.8095238 Z M3.09057072,56.1363636 L44.8132754,56.1363636 L44.8132754,12.5828323 L33.3560662,2.67316017 L3.09057072,2.67316017 L3.09057072,56.1363636 Z" id="Shape" fill="#418CFE"></path>
            <path d="M45.4174874,13.5416667 L33.2854671,13.5416667 C32.4480544,13.5416667 31.7689646,12.9354062 31.7689646,12.1875 L31.7689646,1.35416667 C31.7689646,0.606260417 32.4480544,0 33.2854671,0 C34.1228798,0 34.8019697,0.606260417 34.8019697,1.35416667 L34.8019697,10.8333333 L45.4174874,10.8333333 C46.2549001,10.8333333 46.9339899,11.4395937 46.9339899,12.1875 C46.9339899,12.9354062 46.2549001,13.5416667 45.4174874,13.5416667 Z M51.4834975,65 L10.6895795,65 C9.85201511,65 9.17307692,64.3936042 9.17307692,63.6458333 L9.17307692,58.2291667 C9.17307692,57.4813958 9.85201511,56.875 10.6895795,56.875 C11.5271438,56.875 12.206082,57.4813958 12.206082,58.2291667 L12.206082,62.2916667 L49.9669949,62.2916667 L49.9669949,17.6041667 L45.4174874,17.6041667 C44.5800747,17.6041667 43.9009848,16.9979062 43.9009848,16.25 C43.9009848,15.5020937 44.5800747,14.8958333 45.4174874,14.8958333 L51.4834975,14.8958333 C52.3209102,14.8958333 53,15.5020937 53,16.25 L53,63.6458333 C53,64.3936042 52.3209102,65 51.4834975,65 Z" id="Shape" fill="#418CFE"></path>
            <path d="M39.2182274,50.5555556 L6.64715719,50.5555556 C5.79053804,50.5555556 5.09615385,49.9465346 5.09615385,49.1955267 C5.09615385,48.4445188 5.79053804,47.8354978 6.64715719,47.8354978 L39.2182274,47.8354978 C40.0746915,47.8354978 40.7692308,48.4445188 40.7692308,49.1955267 C40.7692308,49.9465346 40.0746915,50.5555556 39.2182274,50.5555556 Z M39.2182274,45.1154401 L6.64715719,45.1154401 C5.79053804,45.1154401 5.09615385,44.5064192 5.09615385,43.7554113 C5.09615385,43.0044033 5.79053804,42.3953824 6.64715719,42.3953824 L39.2182274,42.3953824 C40.0746915,42.3953824 40.7692308,43.0044033 40.7692308,43.7554113 C40.7692308,44.5064192 40.0746915,45.1154401 39.2182274,45.1154401 Z M39.2182274,39.6753247 L6.64715719,39.6753247 C5.79053804,39.6753247 5.09615385,39.0663038 5.09615385,38.3152958 C5.09615385,37.5642879 5.79053804,36.955267 6.64715719,36.955267 L39.2182274,36.955267 C40.0746915,36.955267 40.7692308,37.5642879 40.7692308,38.3152958 C40.7692308,39.0663038 40.0746915,39.6753247 39.2182274,39.6753247 Z M39.2182274,34.2352092 L6.64715719,34.2352092 C5.79053804,34.2352092 5.09615385,33.6263243 5.09615385,32.8751804 C5.09615385,32.1240364 5.79053804,31.5151515 6.64715719,31.5151515 L39.2182274,31.5151515 C40.0746915,31.5151515 40.7692308,32.1240364 40.7692308,32.8751804 C40.7692308,33.6263243 40.0746915,34.2352092 39.2182274,34.2352092 Z M39.2182274,28.7950938 L6.64715719,28.7950938 C5.79053804,28.7950938 5.09615385,28.1862089 5.09615385,27.4350649 C5.09615385,26.683921 5.79053804,26.0750361 6.64715719,26.0750361 L39.2182274,26.0750361 C40.0746915,26.0750361 40.7692308,26.683921 40.7692308,27.4350649 C40.7692308,28.1862089 40.0746915,28.7950938 39.2182274,28.7950938 Z M20.6061873,23.3549784 L6.64715719,23.3549784 C5.79053804,23.3549784 5.09615385,22.7460934 5.09615385,21.9949495 C5.09615385,21.2438056 5.79053804,20.6349206 6.64715719,20.6349206 L20.6061873,20.6349206 C21.4628064,20.6349206 22.1571906,21.2438056 22.1571906,21.9949495 C22.1571906,22.7460934 21.4628064,23.3549784 20.6061873,23.3549784 Z" id="Shape" fill="#418CFE"></path>
        </g>
        <g id="documents-copy-3" transform="translate(514.000000, 383.000000)" fill-rule="nonzero">
            <path d="M51.9807692,16.5079365 L51.9807692,63.968254 L11.2115385,63.968254 L11.2115385,58.5442177 C11.2248756,58.5280812 45.9008493,16.5293615 45.9184301,16.5079365 L51.9807692,16.5079365 Z" id="Path" fill="#A4C2F7"></path>
            <path d="M45.8653846,57.7777778 C44.4946387,57.7777778 1.86141061,57.7777778 1.01923077,57.7777778 C1.01923077,54.26101 1.01923077,3.37968065 1.01923077,1.03174603 L33.4940318,1.03174603 L36.8446581,8.5528921 L45.8653846,11.840514 C45.8653846,13.8632398 45.8653846,55.4799688 45.8653846,57.7777778 Z" id="Path" fill="#FFFFFF"></path>
            <polygon id="Path" fill="#A4C2F7" points="45.8653846 12.3809524 33.6346154 12.3809524 33.6346154 1.03174603"></polygon>
            <path d="M46.3585608,58.8095238 L1.54528536,58.8095238 C0.691824256,58.8095238 0,58.2110032 0,57.4729437 L0,1.33658009 C0,0.598386905 0.691824256,0 1.54528536,0 L33.9962779,0 C34.4060876,0 34.7990537,0.140875541 35.0889492,0.391484307 L47.4512321,11.084125 C47.7409731,11.3347338 47.9038462,11.6747597 47.9038462,12.0292208 L47.9038462,57.4729437 C47.9038462,58.2110032 47.2118674,58.8095238 46.3585608,58.8095238 Z M3.09057072,56.1363636 L44.8132754,56.1363636 L44.8132754,12.5828323 L33.3560662,2.67316017 L3.09057072,2.67316017 L3.09057072,56.1363636 Z" id="Shape" fill="#418CFE"></path>
            <path d="M45.4174874,13.5416667 L33.2854671,13.5416667 C32.4480544,13.5416667 31.7689646,12.9354062 31.7689646,12.1875 L31.7689646,1.35416667 C31.7689646,0.606260417 32.4480544,0 33.2854671,0 C34.1228798,0 34.8019697,0.606260417 34.8019697,1.35416667 L34.8019697,10.8333333 L45.4174874,10.8333333 C46.2549001,10.8333333 46.9339899,11.4395937 46.9339899,12.1875 C46.9339899,12.9354062 46.2549001,13.5416667 45.4174874,13.5416667 Z M51.4834975,65 L10.6895795,65 C9.85201511,65 9.17307692,64.3936042 9.17307692,63.6458333 L9.17307692,58.2291667 C9.17307692,57.4813958 9.85201511,56.875 10.6895795,56.875 C11.5271438,56.875 12.206082,57.4813958 12.206082,58.2291667 L12.206082,62.2916667 L49.9669949,62.2916667 L49.9669949,17.6041667 L45.4174874,17.6041667 C44.5800747,17.6041667 43.9009848,16.9979062 43.9009848,16.25 C43.9009848,15.5020937 44.5800747,14.8958333 45.4174874,14.8958333 L51.4834975,14.8958333 C52.3209102,14.8958333 53,15.5020937 53,16.25 L53,63.6458333 C53,64.3936042 52.3209102,65 51.4834975,65 Z" id="Shape" fill="#418CFE"></path>
            <path d="M39.2182274,50.5555556 L6.64715719,50.5555556 C5.79053804,50.5555556 5.09615385,49.9465346 5.09615385,49.1955267 C5.09615385,48.4445188 5.79053804,47.8354978 6.64715719,47.8354978 L39.2182274,47.8354978 C40.0746915,47.8354978 40.7692308,48.4445188 40.7692308,49.1955267 C40.7692308,49.9465346 40.0746915,50.5555556 39.2182274,50.5555556 Z M39.2182274,45.1154401 L6.64715719,45.1154401 C5.79053804,45.1154401 5.09615385,44.5064192 5.09615385,43.7554113 C5.09615385,43.0044033 5.79053804,42.3953824 6.64715719,42.3953824 L39.2182274,42.3953824 C40.0746915,42.3953824 40.7692308,43.0044033 40.7692308,43.7554113 C40.7692308,44.5064192 40.0746915,45.1154401 39.2182274,45.1154401 Z M39.2182274,39.6753247 L6.64715719,39.6753247 C5.79053804,39.6753247 5.09615385,39.0663038 5.09615385,38.3152958 C5.09615385,37.5642879 5.79053804,36.955267 6.64715719,36.955267 L39.2182274,36.955267 C40.0746915,36.955267 40.7692308,37.5642879 40.7692308,38.3152958 C40.7692308,39.0663038 40.0746915,39.6753247 39.2182274,39.6753247 Z M39.2182274,34.2352092 L6.64715719,34.2352092 C5.79053804,34.2352092 5.09615385,33.6263243 5.09615385,32.8751804 C5.09615385,32.1240364 5.79053804,31.5151515 6.64715719,31.5151515 L39.2182274,31.5151515 C40.0746915,31.5151515 40.7692308,32.1240364 40.7692308,32.8751804 C40.7692308,33.6263243 40.0746915,34.2352092 39.2182274,34.2352092 Z M39.2182274,28.7950938 L6.64715719,28.7950938 C5.79053804,28.7950938 5.09615385,28.1862089 5.09615385,27.4350649 C5.09615385,26.683921 5.79053804,26.0750361 6.64715719,26.0750361 L39.2182274,26.0750361 C40.0746915,26.0750361 40.7692308,26.683921 40.7692308,27.4350649 C40.7692308,28.1862089 40.0746915,28.7950938 39.2182274,28.7950938 Z M20.6061873,23.3549784 L6.64715719,23.3549784 C5.79053804,23.3549784 5.09615385,22.7460934 5.09615385,21.9949495 C5.09615385,21.2438056 5.79053804,20.6349206 6.64715719,20.6349206 L20.6061873,20.6349206 C21.4628064,20.6349206 22.1571906,21.2438056 22.1571906,21.9949495 C22.1571906,22.7460934 21.4628064,23.3549784 20.6061873,23.3549784 Z" id="Shape" fill="#418CFE"></path>
        </g>
        <g id="documents-copy-5" transform="translate(422.000000, 383.000000)" fill-rule="nonzero">
            <path d="M51.9807692,16.5079365 L51.9807692,63.968254 L11.2115385,63.968254 L11.2115385,58.5442177 C11.2248756,58.5280812 45.9008493,16.5293615 45.9184301,16.5079365 L51.9807692,16.5079365 Z" id="Path" fill="#A4C2F7"></path>
            <path d="M45.8653846,57.7777778 C44.4946387,57.7777778 1.86141061,57.7777778 1.01923077,57.7777778 C1.01923077,54.26101 1.01923077,3.37968065 1.01923077,1.03174603 L33.4940318,1.03174603 L36.8446581,8.5528921 L45.8653846,11.840514 C45.8653846,13.8632398 45.8653846,55.4799688 45.8653846,57.7777778 Z" id="Path" fill="#FFFFFF"></path>
            <polygon id="Path" fill="#A4C2F7" points="45.8653846 12.3809524 33.6346154 12.3809524 33.6346154 1.03174603"></polygon>
            <path d="M46.3585608,58.8095238 L1.54528536,58.8095238 C0.691824256,58.8095238 0,58.2110032 0,57.4729437 L0,1.33658009 C0,0.598386905 0.691824256,0 1.54528536,0 L33.9962779,0 C34.4060876,0 34.7990537,0.140875541 35.0889492,0.391484307 L47.4512321,11.084125 C47.7409731,11.3347338 47.9038462,11.6747597 47.9038462,12.0292208 L47.9038462,57.4729437 C47.9038462,58.2110032 47.2118674,58.8095238 46.3585608,58.8095238 Z M3.09057072,56.1363636 L44.8132754,56.1363636 L44.8132754,12.5828323 L33.3560662,2.67316017 L3.09057072,2.67316017 L3.09057072,56.1363636 Z" id="Shape" fill="#418CFE"></path>
            <path d="M45.4174874,13.5416667 L33.2854671,13.5416667 C32.4480544,13.5416667 31.7689646,12.9354062 31.7689646,12.1875 L31.7689646,1.35416667 C31.7689646,0.606260417 32.4480544,0 33.2854671,0 C34.1228798,0 34.8019697,0.606260417 34.8019697,1.35416667 L34.8019697,10.8333333 L45.4174874,10.8333333 C46.2549001,10.8333333 46.9339899,11.4395937 46.9339899,12.1875 C46.9339899,12.9354062 46.2549001,13.5416667 45.4174874,13.5416667 Z M51.4834975,65 L10.6895795,65 C9.85201511,65 9.17307692,64.3936042 9.17307692,63.6458333 L9.17307692,58.2291667 C9.17307692,57.4813958 9.85201511,56.875 10.6895795,56.875 C11.5271438,56.875 12.206082,57.4813958 12.206082,58.2291667 L12.206082,62.2916667 L49.9669949,62.2916667 L49.9669949,17.6041667 L45.4174874,17.6041667 C44.5800747,17.6041667 43.9009848,16.9979062 43.9009848,16.25 C43.9009848,15.5020937 44.5800747,14.8958333 45.4174874,14.8958333 L51.4834975,14.8958333 C52.3209102,14.8958333 53,15.5020937 53,16.25 L53,63.6458333 C53,64.3936042 52.3209102,65 51.4834975,65 Z" id="Shape" fill="#418CFE"></path>
            <path d="M39.2182274,50.5555556 L6.64715719,50.5555556 C5.79053804,50.5555556 5.09615385,49.9465346 5.09615385,49.1955267 C5.09615385,48.4445188 5.79053804,47.8354978 6.64715719,47.8354978 L39.2182274,47.8354978 C40.0746915,47.8354978 40.7692308,48.4445188 40.7692308,49.1955267 C40.7692308,49.9465346 40.0746915,50.5555556 39.2182274,50.5555556 Z M39.2182274,45.1154401 L6.64715719,45.1154401 C5.79053804,45.1154401 5.09615385,44.5064192 5.09615385,43.7554113 C5.09615385,43.0044033 5.79053804,42.3953824 6.64715719,42.3953824 L39.2182274,42.3953824 C40.0746915,42.3953824 40.7692308,43.0044033 40.7692308,43.7554113 C40.7692308,44.5064192 40.0746915,45.1154401 39.2182274,45.1154401 Z M39.2182274,39.6753247 L6.64715719,39.6753247 C5.79053804,39.6753247 5.09615385,39.0663038 5.09615385,38.3152958 C5.09615385,37.5642879 5.79053804,36.955267 6.64715719,36.955267 L39.2182274,36.955267 C40.0746915,36.955267 40.7692308,37.5642879 40.7692308,38.3152958 C40.7692308,39.0663038 40.0746915,39.6753247 39.2182274,39.6753247 Z M39.2182274,34.2352092 L6.64715719,34.2352092 C5.79053804,34.2352092 5.09615385,33.6263243 5.09615385,32.8751804 C5.09615385,32.1240364 5.79053804,31.5151515 6.64715719,31.5151515 L39.2182274,31.5151515 C40.0746915,31.5151515 40.7692308,32.1240364 40.7692308,32.8751804 C40.7692308,33.6263243 40.0746915,34.2352092 39.2182274,34.2352092 Z M39.2182274,28.7950938 L6.64715719,28.7950938 C5.79053804,28.7950938 5.09615385,28.1862089 5.09615385,27.4350649 C5.09615385,26.683921 5.79053804,26.0750361 6.64715719,26.0750361 L39.2182274,26.0750361 C40.0746915,26.0750361 40.7692308,26.683921 40.7692308,27.4350649 C40.7692308,28.1862089 40.0746915,28.7950938 39.2182274,28.7950938 Z M20.6061873,23.3549784 L6.64715719,23.3549784 C5.79053804,23.3549784 5.09615385,22.7460934 5.09615385,21.9949495 C5.09615385,21.2438056 5.79053804,20.6349206 6.64715719,20.6349206 L20.6061873,20.6349206 C21.4628064,20.6349206 22.1571906,21.2438056 22.1571906,21.9949495 C22.1571906,22.7460934 21.4628064,23.3549784 20.6061873,23.3549784 Z" id="Shape" fill="#418CFE"></path>
        </g>
        <g id="documents-copy-2" transform="translate(261.000000, 383.000000)" fill-rule="nonzero">
            <path d="M51.9807692,16.5079365 L51.9807692,63.968254 L11.2115385,63.968254 L11.2115385,58.5442177 C11.2248756,58.5280812 45.9008493,16.5293615 45.9184301,16.5079365 L51.9807692,16.5079365 Z" id="Path" fill="#A4C2F7"></path>
            <path d="M45.8653846,57.7777778 C44.4946387,57.7777778 1.86141061,57.7777778 1.01923077,57.7777778 C1.01923077,54.26101 1.01923077,3.37968065 1.01923077,1.03174603 L33.4940318,1.03174603 L36.8446581,8.5528921 L45.8653846,11.840514 C45.8653846,13.8632398 45.8653846,55.4799688 45.8653846,57.7777778 Z" id="Path" fill="#FFFFFF"></path>
            <polygon id="Path" fill="#A4C2F7" points="45.8653846 12.3809524 33.6346154 12.3809524 33.6346154 1.03174603"></polygon>
            <path d="M46.3585608,58.8095238 L1.54528536,58.8095238 C0.691824256,58.8095238 0,58.2110032 0,57.4729437 L0,1.33658009 C0,0.598386905 0.691824256,0 1.54528536,0 L33.9962779,0 C34.4060876,0 34.7990537,0.140875541 35.0889492,0.391484307 L47.4512321,11.084125 C47.7409731,11.3347338 47.9038462,11.6747597 47.9038462,12.0292208 L47.9038462,57.4729437 C47.9038462,58.2110032 47.2118674,58.8095238 46.3585608,58.8095238 Z M3.09057072,56.1363636 L44.8132754,56.1363636 L44.8132754,12.5828323 L33.3560662,2.67316017 L3.09057072,2.67316017 L3.09057072,56.1363636 Z" id="Shape" fill="#418CFE"></path>
            <path d="M45.4174874,13.5416667 L33.2854671,13.5416667 C32.4480544,13.5416667 31.7689646,12.9354062 31.7689646,12.1875 L31.7689646,1.35416667 C31.7689646,0.606260417 32.4480544,0 33.2854671,0 C34.1228798,0 34.8019697,0.606260417 34.8019697,1.35416667 L34.8019697,10.8333333 L45.4174874,10.8333333 C46.2549001,10.8333333 46.9339899,11.4395937 46.9339899,12.1875 C46.9339899,12.9354062 46.2549001,13.5416667 45.4174874,13.5416667 Z M51.4834975,65 L10.6895795,65 C9.85201511,65 9.17307692,64.3936042 9.17307692,63.6458333 L9.17307692,58.2291667 C9.17307692,57.4813958 9.85201511,56.875 10.6895795,56.875 C11.5271438,56.875 12.206082,57.4813958 12.206082,58.2291667 L12.206082,62.2916667 L49.9669949,62.2916667 L49.9669949,17.6041667 L45.4174874,17.6041667 C44.5800747,17.6041667 43.9009848,16.9979062 43.9009848,16.25 C43.9009848,15.5020937 44.5800747,14.8958333 45.4174874,14.8958333 L51.4834975,14.8958333 C52.3209102,14.8958333 53,15.5020937 53,16.25 L53,63.6458333 C53,64.3936042 52.3209102,65 51.4834975,65 Z" id="Shape" fill="#418CFE"></path>
            <path d="M39.2182274,50.5555556 L6.64715719,50.5555556 C5.79053804,50.5555556 5.09615385,49.9465346 5.09615385,49.1955267 C5.09615385,48.4445188 5.79053804,47.8354978 6.64715719,47.8354978 L39.2182274,47.8354978 C40.0746915,47.8354978 40.7692308,48.4445188 40.7692308,49.1955267 C40.7692308,49.9465346 40.0746915,50.5555556 39.2182274,50.5555556 Z M39.2182274,45.1154401 L6.64715719,45.1154401 C5.79053804,45.1154401 5.09615385,44.5064192 5.09615385,43.7554113 C5.09615385,43.0044033 5.79053804,42.3953824 6.64715719,42.3953824 L39.2182274,42.3953824 C40.0746915,42.3953824 40.7692308,43.0044033 40.7692308,43.7554113 C40.7692308,44.5064192 40.0746915,45.1154401 39.2182274,45.1154401 Z M39.2182274,39.6753247 L6.64715719,39.6753247 C5.79053804,39.6753247 5.09615385,39.0663038 5.09615385,38.3152958 C5.09615385,37.5642879 5.79053804,36.955267 6.64715719,36.955267 L39.2182274,36.955267 C40.0746915,36.955267 40.7692308,37.5642879 40.7692308,38.3152958 C40.7692308,39.0663038 40.0746915,39.6753247 39.2182274,39.6753247 Z M39.2182274,34.2352092 L6.64715719,34.2352092 C5.79053804,34.2352092 5.09615385,33.6263243 5.09615385,32.8751804 C5.09615385,32.1240364 5.79053804,31.5151515 6.64715719,31.5151515 L39.2182274,31.5151515 C40.0746915,31.5151515 40.7692308,32.1240364 40.7692308,32.8751804 C40.7692308,33.6263243 40.0746915,34.2352092 39.2182274,34.2352092 Z M39.2182274,28.7950938 L6.64715719,28.7950938 C5.79053804,28.7950938 5.09615385,28.1862089 5.09615385,27.4350649 C5.09615385,26.683921 5.79053804,26.0750361 6.64715719,26.0750361 L39.2182274,26.0750361 C40.0746915,26.0750361 40.7692308,26.683921 40.7692308,27.4350649 C40.7692308,28.1862089 40.0746915,28.7950938 39.2182274,28.7950938 Z M20.6061873,23.3549784 L6.64715719,23.3549784 C5.79053804,23.3549784 5.09615385,22.7460934 5.09615385,21.9949495 C5.09615385,21.2438056 5.79053804,20.6349206 6.64715719,20.6349206 L20.6061873,20.6349206 C21.4628064,20.6349206 22.1571906,21.2438056 22.1571906,21.9949495 C22.1571906,22.7460934 21.4628064,23.3549784 20.6061873,23.3549784 Z" id="Shape" fill="#418CFE"></path>
        </g>
        <g id="documents-copy-4" transform="translate(596.000000, 383.000000)" fill-rule="nonzero">
            <path d="M51.9807692,16.5079365 L51.9807692,63.968254 L11.2115385,63.968254 L11.2115385,58.5442177 C11.2248756,58.5280812 45.9008493,16.5293615 45.9184301,16.5079365 L51.9807692,16.5079365 Z" id="Path" fill="#A4C2F7"></path>
            <path d="M45.8653846,57.7777778 C44.4946387,57.7777778 1.86141061,57.7777778 1.01923077,57.7777778 C1.01923077,54.26101 1.01923077,3.37968065 1.01923077,1.03174603 L33.4940318,1.03174603 L36.8446581,8.5528921 L45.8653846,11.840514 C45.8653846,13.8632398 45.8653846,55.4799688 45.8653846,57.7777778 Z" id="Path" fill="#FFFFFF"></path>
            <polygon id="Path" fill="#A4C2F7" points="45.8653846 12.3809524 33.6346154 12.3809524 33.6346154 1.03174603"></polygon>
            <path d="M46.3585608,58.8095238 L1.54528536,58.8095238 C0.691824256,58.8095238 0,58.2110032 0,57.4729437 L0,1.33658009 C0,0.598386905 0.691824256,0 1.54528536,0 L33.9962779,0 C34.4060876,0 34.7990537,0.140875541 35.0889492,0.391484307 L47.4512321,11.084125 C47.7409731,11.3347338 47.9038462,11.6747597 47.9038462,12.0292208 L47.9038462,57.4729437 C47.9038462,58.2110032 47.2118674,58.8095238 46.3585608,58.8095238 Z M3.09057072,56.1363636 L44.8132754,56.1363636 L44.8132754,12.5828323 L33.3560662,2.67316017 L3.09057072,2.67316017 L3.09057072,56.1363636 Z" id="Shape" fill="#418CFE"></path>
            <path d="M45.4174874,13.5416667 L33.2854671,13.5416667 C32.4480544,13.5416667 31.7689646,12.9354062 31.7689646,12.1875 L31.7689646,1.35416667 C31.7689646,0.606260417 32.4480544,0 33.2854671,0 C34.1228798,0 34.8019697,0.606260417 34.8019697,1.35416667 L34.8019697,10.8333333 L45.4174874,10.8333333 C46.2549001,10.8333333 46.9339899,11.4395937 46.9339899,12.1875 C46.9339899,12.9354062 46.2549001,13.5416667 45.4174874,13.5416667 Z M51.4834975,65 L10.6895795,65 C9.85201511,65 9.17307692,64.3936042 9.17307692,63.6458333 L9.17307692,58.2291667 C9.17307692,57.4813958 9.85201511,56.875 10.6895795,56.875 C11.5271438,56.875 12.206082,57.4813958 12.206082,58.2291667 L12.206082,62.2916667 L49.9669949,62.2916667 L49.9669949,17.6041667 L45.4174874,17.6041667 C44.5800747,17.6041667 43.9009848,16.9979062 43.9009848,16.25 C43.9009848,15.5020937 44.5800747,14.8958333 45.4174874,14.8958333 L51.4834975,14.8958333 C52.3209102,14.8958333 53,15.5020937 53,16.25 L53,63.6458333 C53,64.3936042 52.3209102,65 51.4834975,65 Z" id="Shape" fill="#418CFE"></path>
            <path d="M39.2182274,50.5555556 L6.64715719,50.5555556 C5.79053804,50.5555556 5.09615385,49.9465346 5.09615385,49.1955267 C5.09615385,48.4445188 5.79053804,47.8354978 6.64715719,47.8354978 L39.2182274,47.8354978 C40.0746915,47.8354978 40.7692308,48.4445188 40.7692308,49.1955267 C40.7692308,49.9465346 40.0746915,50.5555556 39.2182274,50.5555556 Z M39.2182274,45.1154401 L6.64715719,45.1154401 C5.79053804,45.1154401 5.09615385,44.5064192 5.09615385,43.7554113 C5.09615385,43.0044033 5.79053804,42.3953824 6.64715719,42.3953824 L39.2182274,42.3953824 C40.0746915,42.3953824 40.7692308,43.0044033 40.7692308,43.7554113 C40.7692308,44.5064192 40.0746915,45.1154401 39.2182274,45.1154401 Z M39.2182274,39.6753247 L6.64715719,39.6753247 C5.79053804,39.6753247 5.09615385,39.0663038 5.09615385,38.3152958 C5.09615385,37.5642879 5.79053804,36.955267 6.64715719,36.955267 L39.2182274,36.955267 C40.0746915,36.955267 40.7692308,37.5642879 40.7692308,38.3152958 C40.7692308,39.0663038 40.0746915,39.6753247 39.2182274,39.6753247 Z M39.2182274,34.2352092 L6.64715719,34.2352092 C5.79053804,34.2352092 5.09615385,33.6263243 5.09615385,32.8751804 C5.09615385,32.1240364 5.79053804,31.5151515 6.64715719,31.5151515 L39.2182274,31.5151515 C40.0746915,31.5151515 40.7692308,32.1240364 40.7692308,32.8751804 C40.7692308,33.6263243 40.0746915,34.2352092 39.2182274,34.2352092 Z M39.2182274,28.7950938 L6.64715719,28.7950938 C5.79053804,28.7950938 5.09615385,28.1862089 5.09615385,27.4350649 C5.09615385,26.683921 5.79053804,26.0750361 6.64715719,26.0750361 L39.2182274,26.0750361 C40.0746915,26.0750361 40.7692308,26.683921 40.7692308,27.4350649 C40.7692308,28.1862089 40.0746915,28.7950938 39.2182274,28.7950938 Z M20.6061873,23.3549784 L6.64715719,23.3549784 C5.79053804,23.3549784 5.09615385,22.7460934 5.09615385,21.9949495 C5.09615385,21.2438056 5.79053804,20.6349206 6.64715719,20.6349206 L20.6061873,20.6349206 C21.4628064,20.6349206 22.1571906,21.2438056 22.1571906,21.9949495 C22.1571906,22.7460934 21.4628064,23.3549784 20.6061873,23.3549784 Z" id="Shape" fill="#418CFE"></path>
        </g>
        <text id="v.1" font-family="Helvetica" font-size="18" font-weight="normal" fill="#0055C2">
            <tspan x="104.157715" y="464">v.1</tspan>
        </text>
        <text id="v.1" font-family="Helvetica" font-size="18" font-weight="normal" fill="#0055C2">
            <tspan x="437.157715" y="464">v.1</tspan>
        </text>
        <text id="v.2" font-family="Helvetica" font-size="18" font-weight="normal" fill="#0055C2">
            <tspan x="190.157715" y="464">v.2</tspan>
        </text>
        <text id="v.3" font-family="Helvetica" font-size="18" font-weight="normal" fill="#0055C2">
            <tspan x="529.157715" y="464">v.3</tspan>
        </text>
        <text id="v.4" font-family="Helvetica" font-size="18" font-weight="normal" fill="#0055C2">
            <tspan x="276.157715" y="464">v.4</tspan>
        </text>
        <text id="v.5" font-family="Helvetica" font-size="18" font-weight="normal" fill="#0055C2">
            <tspan x="611.157715" y="464">v.5</tspan>
        </text>
        <rect id="Rectangle" stroke="#0055C2" x="50.5" y="349.5" width="300" height="159" rx="8"></rect>
        <rect id="Rectangle-Copy-2" stroke="#0055C2" x="169.5" y="132.5" width="386" height="117" rx="8"></rect>
        <rect id="Rectangle-Copy-4" stroke="#0055C2" x="643.5" y="132.5" width="134" height="117" rx="8"></rect>
        <g id="Group-2-Copy" transform="translate(134.000000, 216.000000)" fill-rule="nonzero">
            <path d="M71,31.0020229 C71,38.5468664 64.77614,44.6857143 57.1237626,44.6857143 L15.1911106,44.6857143 C11.5243629,44.7036751 7.99996317,43.2617976 5.39043084,40.6757882 C2.77870859,38.1412794 1.30726709,34.648658 1.31481481,31.0020229 C1.31481481,25.2671097 4.91794248,20.1840488 10.3405064,18.192432 C12.9991908,7.65099733 22.3578453,0.200756968 33.188008,0.00398651846 C44.0181706,-0.192783931 53.6392372,6.91261874 56.6761421,17.3505717 C56.9524511,17.3325418 57.1113287,17.3325418 57.1237626,17.3325418 C57.3309944,17.3325418 57.5382261,17.3325418 57.7426948,17.346411 C61.18828,17.4812196 64.4602564,18.8998288 66.9202978,21.3254838 C69.5283461,23.8640122 71,27.3552338 71,31.0020229 Z" id="Path" fill="#C5DDFF"></path>
            <path d="M9.2037037,17.0857143 C9.13415431,17.3589085 9.06791678,17.6321027 9.00830301,17.9126806 C8.63074914,18.0677368 8.25981901,18.2264848 7.88888889,18.4 C8.31280903,17.9446763 8.75108064,17.5065811 9.2037037,17.0857143 Z" id="Path" fill="#607D8B"></path>
            <path d="M43.3888889,20.1003983 C44.348302,19.1051436 45.4979524,18.2532733 46.7899946,17.5802398 C48.1009821,16.897948 49.5324079,16.3978144 51.0299664,16.0988133 C54.0757496,15.505365 57.263461,15.7223539 60.1583391,16.7201857 C63.0524681,17.7033562 65.5362938,19.393256 67.2942083,21.5751576 C68.1570072,22.6542911 68.8085686,23.8443344 69.2237575,25.0993792 C69.6284138,26.3400405 69.7685845,27.6319138 69.637682,28.9142857 C69.390013,26.4208301 68.2969036,24.0411808 66.4899672,22.0618549 C64.7184346,20.1222694 62.3688482,18.6176699 59.6830341,17.7029142 C57.0034494,16.7826566 54.075303,16.5094214 51.2235508,16.9135312 C48.3165947,17.3473525 45.6063147,18.4497998 43.3888889,20.1003983 L43.3888889,20.1003983 Z" id="Path" fill="#7BB2FF"></path>
            <path d="M7.88888889,22.3428571 C8.04730988,22.2725081 8.20712053,22.2049178 8.36971049,22.138707 C8.20851019,22.2035384 8.04730988,22.2725081 7.88888889,22.3428571 Z M9.65931294,19.3937148 C9.76492694,19.1178362 9.877026,18.8419575 9.99561014,18.5660789 C9.877026,18.8373596 9.76492694,19.1132382 9.65931294,19.3937148 Z M17.0925926,9.2 C16.882291,9.36920555 16.6747688,9.54162968 16.4700259,9.7172724 C16.6729159,9.54484827 16.8855336,9.36966535 17.0925926,9.2 Z" id="Shape" fill="#55717C"></path>
            <path d="M65.7407407,42.198327 C63.1306513,44.6471734 59.6800302,46.0073432 56.0964738,46 L13.9477641,46 C11.3778953,46.0088433 8.85513962,45.3121794 6.65589289,43.9862507 C6.54017094,43.9160817 6.42630055,43.8449895 6.31428171,43.7729739 C6.20179998,43.7009584 6.08931825,43.6261731 5.97822518,43.5500028 C5.86713211,43.4738326 5.76437102,43.4004321 5.66022127,43.3242619 L5.64911197,43.3159524 C5.53940756,43.2370123 5.43248049,43.1553024 5.32555341,43.0722076 C5.21862633,42.9891128 5.12419722,42.9129425 5.02421346,42.8312326 L4.97838757,42.7938399 C4.90756574,42.7342886 4.83952124,42.6761223 4.76869941,42.6138011 L4.64649703,42.5085477 C4.58956184,42.4586908 4.53540397,42.4102188 4.47985743,42.3575921 C4.35071174,42.2412593 4.22295472,42.1193869 4.09658635,41.9961296 C1.47140721,39.4652866 -0.00761588453,35.9777169 0,32.3363562 C0,32.2297179 0,32.1230795 0,32.0178261 C0,31.9471955 0,31.8793347 0,31.8017795 C0,31.6231256 0.0166934539,31.4486265 0.0319687506,31.2713576 C0.0319687506,31.184108 0.045855384,31.0954735 0.0555760274,31.0082239 C0.0652966708,30.9209744 0.0694626608,30.8697326 0.0791833042,30.7907925 C0.0889039476,30.7118524 0.098624591,30.621833 0.111122561,30.5373533 C0.144450481,30.2843757 0.185647494,30.0332447 0.234713598,29.7839602 C0.245822905,29.723024 0.258320875,29.6648576 0.270818845,29.6039214 C0.294426122,29.4917434 0.319422062,29.3809503 0.343029339,29.2701572 C0.362470626,29.1939869 0.380523249,29.1178167 0.399964536,29.0430313 C0.419405823,28.968246 0.441624436,28.8809964 0.46384305,28.8006714 C0.479118347,28.742505 0.494393643,28.6871085 0.511057603,28.6317119 C0.527721564,28.5763154 0.541608197,28.5264585 0.558272157,28.4724469 C0.574936117,28.4184352 0.594377404,28.3533443 0.613818691,28.2924081 C0.633259977,28.2314719 0.648535274,28.1829999 0.667976561,28.1289883 C0.752222137,27.8732409 0.844799693,27.6207249 0.945709229,27.3714404 C0.976259823,27.2938853 1.00819908,27.2163301 1.04013834,27.1401598 C1.07207759,27.0639896 1.10401685,26.9864344 1.13873343,26.9102642 C1.17345002,26.8340939 1.20538927,26.7579236 1.24149452,26.6831383 C1.27759977,26.608353 1.31092769,26.5321827 1.3484216,26.4587823 C1.38591551,26.3853819 1.42063209,26.3092116 1.45951467,26.2358112 C1.49839724,26.1624107 1.53450249,26.0876254 1.57477372,26.0156099 C1.61504496,25.9435944 1.65253887,25.868809 1.69419877,25.7967935 C1.77474124,25.6583021 1.85806104,25.5073465 1.94415817,25.3647004 C2.0302553,25.2220543 2.11079777,25.0974121 2.19550624,24.9658453 C2.47453297,24.5414823 2.77679397,24.1327749 3.10091474,23.7415815 C3.14674063,23.6848 3.19256652,23.6307884 3.23978107,23.5753919 C3.41475265,23.3768876 3.594816,23.1834613 3.77997111,22.995113 C3.825797,22.946641 3.87023423,22.9009389 3.91883744,22.8566216 C4.08362549,22.6885854 4.25350531,22.5251656 4.42847689,22.3663622 L4.56039991,22.2472596 C4.77055096,22.0626044 4.98671955,21.8811807 5.20890569,21.7029885 L5.34777202,21.5963501 C5.46441974,21.5077156 5.58384479,21.4190812 5.70326984,21.3332165 C5.75881637,21.293054 5.8143629,21.2542764 5.86990944,21.2168837 C5.99350048,21.1296342 6.11986884,21.0451544 6.2462372,20.9620596 C6.31011572,20.9191273 6.37677156,20.8789648 6.4434274,20.8374174 L6.61701032,20.730779 L6.75587665,20.650454 C6.82669848,20.6075217 6.89474298,20.5659743 6.97111947,20.5258118 L6.99611541,20.5119626 C7.06415991,20.4718001 7.13498174,20.4344075 7.20441491,20.3970148 C7.27384808,20.3596221 7.35577921,20.3153049 7.4321557,20.2765273 L7.66267381,20.1588096 L7.89596925,20.0466316 L8.13343068,19.9372234 C8.29173831,19.8665928 8.45143459,19.7987321 8.6139082,19.7322562 C8.77638181,19.6657803 8.92635745,19.607614 9.08327641,19.5494476 C9.10966101,19.4455791 9.13743428,19.3430954 9.16520755,19.2392269 C9.20686745,19.0868864 9.24852735,18.933161 9.29296457,18.7835903 C9.3374018,18.6340196 9.38183903,18.4802942 9.43183091,18.3293386 C9.48182279,18.178383 9.52626002,18.0288123 9.57069724,17.8792416 C9.61513447,17.7296709 9.670681,17.5828701 9.72345021,17.4374541 C9.72405235,17.4347168 9.72405235,17.4318819 9.72345021,17.4291446 C9.77483075,17.2906533 9.82482263,17.1521619 9.8789805,17.0136705 C9.8789805,17.0039761 9.8789805,16.9928968 9.89008981,16.9818175 C9.99747978,16.7048348 10.1094986,16.427852 10.2261463,16.1508693 L10.2553083,16.0830085 C10.3066888,15.9639059 10.3580694,15.8448033 10.4122272,15.7270857 L10.4497211,15.6439908 C10.499713,15.5345826 10.5497049,15.4251745 10.6010854,15.3157663 L10.6510773,15.2118977 C10.7080125,15.0941801 10.7635591,14.9778473 10.8218829,14.8615146 L10.8510448,14.8019633 C10.916312,14.6717814 10.9829679,14.5415995 11.0496237,14.4128025 C11.1162795,14.2840055 11.18849,14.1538236 11.2551459,14.0250267 L11.3120811,13.922543 C11.362073,13.8339086 11.4092875,13.7452741 11.4620567,13.6580245 C11.4967733,13.5943185 11.5314899,13.5306124 11.5703725,13.4682913 C11.609255,13.4059702 11.6634129,13.3062564 11.7092388,13.2259314 C11.7300687,13.1913086 11.7508987,13.1566857 11.7717286,13.1220629 C11.8369958,13.0098849 11.910595,12.8990918 11.9758622,12.7882987 C12.0411293,12.6775056 12.1147285,12.5667125 12.186939,12.4559194 C12.2424855,12.3714396 12.2966434,12.285575 12.3535786,12.2024802 L12.446619,12.0639888 C12.4966109,11.9905884 12.5466028,11.9171879 12.5979833,11.8451724 C12.6493639,11.7731569 12.6965784,11.706681 12.747959,11.6318957 C12.7993395,11.5571104 12.8160035,11.5349517 12.8521087,11.4850948 C12.9090439,11.4047698 12.9673678,11.321675 13.028469,11.2427349 L13.1020681,11.1430211 C13.1701126,11.0502319 13.2409345,10.9574427 13.3103676,10.8660384 C13.4464566,10.6896927 13.585323,10.5142703 13.7269666,10.3397712 C13.7894565,10.262216 13.853335,10.1846608 13.9172135,10.1071057 C14.0597829,9.93629964 14.2055926,9.76641688 14.3546425,9.59745741 C14.4157436,9.5268268 14.4782335,9.45896603 14.542112,9.38695052 L14.5990472,9.3246294 C14.6879217,9.22630052 14.7781848,9.12797164 14.8684479,9.03102768 L14.8989985,8.99917467 C14.9989822,8.89253631 15.1003547,8.78728286 15.2045044,8.68202942 C15.6808159,8.19453978 16.1765688,7.72505402 16.6987062,7.27772688 C16.9033026,7.10138119 17.1106763,6.92826698 17.3208274,6.75838422 C17.4513617,6.65313078 17.5832847,6.55064716 17.7152077,6.44816354 C17.7309853,6.43413957 17.7476866,6.42118474 17.7651996,6.40938596 C17.904066,6.3027476 18.0429323,6.19887907 18.1817986,6.09639545 C18.320665,5.99391183 18.4692519,5.88865839 18.6150616,5.78617477 L18.6233936,5.78617477 C18.7719805,5.68230624 18.9219562,5.58120754 19.0705432,5.48010883 C19.2191301,5.37901013 19.3732718,5.28206617 19.5246361,5.18512221 C19.8292162,4.99215756 20.1384253,4.80750239 20.4522632,4.63115671 C20.6091821,4.54252223 20.7661011,4.45388775 20.9244087,4.3680231 C21.0827163,4.28215844 21.241024,4.1976787 21.4021089,4.11596879 C21.4854287,4.07165155 21.5715258,4.03010414 21.6562343,3.98855673 C22.699172,3.45830362 23.7791162,3.00379499 24.8876539,2.62857143 C24.4599456,2.93463737 13.4034081,8.06158806 13.8505577,18.772511 C9.70205705,20.2713412 6.33414289,23.3740564 4.5076307,27.3797499 C3.79131317,31.7299668 5.25441545,36.1544912 8.42504999,39.2263021 C11.0472601,41.8080209 14.588741,43.2477806 18.2734504,43.2300878 L60.4235488,43.2300878 C62.2462052,43.2326787 64.052024,42.8822733 65.7407407,42.198327 Z" id="Path" fill="#7BB2FF"></path>
        </g>
        <rect id="Rectangle-Copy" stroke="#0055C2" x="386.5" y="349.5" width="300" height="159" rx="8"></rect>
        <g id="github" transform="translate(233.000000, 167.000000)" fill="#000000" fill-rule="nonzero">
            <path d="M22.4998979,0 C11.4656321,0.000458753725 2.06012174,8.02383913 0.292576165,18.9439789 C-1.47496941,29.8641187 4.91715425,40.4578558 15.3849999,43.9568191 C16.509892,44.154233 16.9317266,43.4775627 16.9317266,42.8853887 C16.9317266,42.3496961 16.9035818,40.5733547 16.9035818,38.6842763 C11.2509761,39.7274886 9.78861627,37.3027627 9.3386594,36.0339635 C8.83937764,34.7999575 8.04790299,33.7064034 7.03263043,32.8478002 C6.2452059,32.4248672 5.12031372,31.3816323 7.00448562,31.3534819 C8.46460992,31.5123334 9.75567152,32.3752516 10.4635516,33.6654482 C11.0850126,34.7847692 12.1252372,35.6100942 13.3545977,35.9592343 C14.5839581,36.3083744 15.9013651,36.15262 17.0160035,35.5263537 C17.1133991,34.3796357 17.6231294,33.3074822 18.4502861,32.5095215 C13.4445159,31.9456107 8.21376722,30.0000285 8.21376722,21.3722845 C8.1821526,19.1305036 9.00723317,16.9615492 10.5197962,15.3102441 C9.83199614,13.3618636 9.91247354,11.2236591 10.7447746,9.33279031 C10.7447746,9.33279031 12.6289015,8.74066148 16.9316816,11.6448243 C20.6129769,10.6297248 24.4993081,10.6297248 28.1806034,11.6448243 C32.483271,8.7124885 34.3675104,9.33279031 34.3675104,9.33279031 C35.1999245,11.223633 35.2804035,13.3618811 34.5924888,15.3102441 C36.1096066,16.9587229 36.9354076,19.1295711 36.8985178,21.3722845 C36.8985178,30.0282466 31.6396019,31.9456107 26.6338767,32.5095215 C27.7202808,33.6135193 28.2744865,35.1364087 28.1524811,36.6824609 C28.1524811,39.6994284 28.1243363,42.1241543 28.1243363,42.885479 C28.1243363,43.4776078 28.5461709,44.1824736 29.6710631,43.9569093 C40.1196147,40.4296876 46.4824,29.834054 44.7027502,18.9253796 C42.9231004,8.01670523 33.5248218,0.00575300865 22.4998979,0 Z" id="Path"></path>
        </g>
        <g id="gitlab" transform="translate(343.000000, 167.000000)" fill-rule="nonzero">
            <polygon id="Path" fill="#E24329" points="24.0000921 44 32.6808511 17.3953488 15.3191489 17.3953488 23.9999079 44"></polygon>
            <polygon id="Path" fill="#FC6D26" points="24.5106383 44 15.5797609 17.3953488 3.06382979 17.3953488"></polygon>
            <path d="M2.7163883,17.3953488 L0.0877906125,25.4803763 C-0.1519749,26.2177277 0.110617764,27.0255082 0.738237238,27.4812627 L23.4893617,44 L2.71620466,17.3953488 L2.7163883,17.3953488 Z" id="Path" fill="#FCA326"></path>
            <path d="M3.06382979,17.3953488 L15.3191489,17.3953488 L10.0525214,0.646323621 C9.7814764,-0.215537116 8.60150232,-0.215345293 8.33064295,0.646323621 L3.06382979,17.3953488 Z" id="Path" fill="#E24329"></path>
            <polygon id="Path" fill="#FC6D26" points="23.4895513 44 32.4201601 17.3953488 44.9361702 17.3953488 23.4893617 44"></polygon>
            <path d="M45.2836427,17.3953488 L47.9122443,25.4803763 C48.1519714,26.2177674 47.8893011,27.0255573 47.2616131,27.4812627 L24.5106383,44 L45.2836427,17.3953488 L45.2836427,17.3953488 Z" id="Path" fill="#FCA326"></path>
            <path d="M44.9361702,17.3953488 L32.6808511,17.3953488 L37.9475844,0.646323621 C38.2186254,-0.215537116 39.3985816,-0.215345293 39.6694368,0.646323621 L44.9361702,17.3953488 Z" id="Path" fill="#E24329"></path>
        </g>
        <g id="Group" transform="translate(457.000000, 167.000000)">
            <path d="M0.373178187,0.544176152 C0.6698955,0.19341283 1.10338576,-0.00579899623 1.55779181,0.000128623501 L46.4422833,0.00799741569 C46.8964843,0.00193535591 47.3301796,0.201147183 47.6268969,0.551910504 C47.9236142,0.902882861 48.0528001,1.36945243 47.9802099,1.82661535 L41.4516088,42.6828079 C41.329805,43.449554 40.6754685,44.0097719 39.9136822,43.9998708 L8.59390871,43.9998708 C7.57867207,43.9911676 6.71620282,43.2409355 6.54846628,42.2204191 L0.0198651743,1.818881 C-0.0529300199,1.36150904 0.0764608746,0.894939473 0.373178187,0.544176152 Z M19.0518099,29.1999508 L29.048333,29.1999508 L31.4704649,14.7843727 L16.345059,14.7843727 L19.0518099,29.1999508 Z" id="Shape" fill="#2684FF"></path>
            <path d="M46.9787234,15.3488372 L32.1068628,15.3488372 L29.6111758,29.4859597 L19.3110791,29.4859597 L7.14893617,43.492498 C7.53431825,43.815986 8.0259762,43.9957699 8.53559329,44 L40.8145117,44 C41.5994319,44.0097098 42.273428,43.4603132 42.399142,42.7083779 L46.9787234,15.3488372 Z" id="Path" fill="url(#linearGradient-1)" fill-rule="nonzero"></path>
        </g>
        <text id="Bitbucket" font-family="Helvetica" font-size="21" font-weight="normal" fill="#0055C2">
            <tspan x="440.810547" y="230">Bitbucket</tspan>
        </text>
        <path d="M429.34549,307.484075 C429.34549,307.665319 429.296232,307.843155 429.202982,307.998571 C428.918834,308.472151 428.304574,308.625716 427.830994,308.341568 L427.830994,308.341568 L415.390854,300.877484 C415.250104,300.793034 415.132306,300.675236 415.047856,300.534487 C414.763708,300.060906 414.917273,299.446646 415.390854,299.162498 L415.390854,299.162498 L427.830994,291.698414 C427.986409,291.605165 428.164246,291.555907 428.34549,291.555907 C428.897774,291.555907 429.34549,292.003622 429.34549,292.555907 L429.34549,292.555907 L429.345198,295.780907 L531.120198,295.780907 L531.121075,292.695953 C531.121075,292.143668 531.56879,291.695953 532.121075,291.695953 C532.302319,291.695953 532.480155,291.74521 532.635571,291.83846 L545.075711,299.302544 C545.549291,299.586692 545.702856,300.200952 545.418708,300.674532 C545.334258,300.815282 545.21646,300.93308 545.075711,301.01753 L532.635571,308.481614 C532.16199,308.765762 531.54773,308.612197 531.263582,308.138616 C531.170333,307.983201 531.121075,307.805365 531.121075,307.624121 L531.120198,303.985907 L429.345198,303.985907 Z" id="Combined-Shape" fill="#7BB2FF" transform="translate(480.233282, 300.090089) rotate(-300.000000) translate(-480.233282, -300.090089) "></path>
        <path d="M188.332765,307.484075 C188.332765,307.665319 188.283507,307.843155 188.190258,307.998571 C187.906109,308.472151 187.291849,308.625716 186.818269,308.341568 L186.818269,308.341568 L174.378129,300.877484 C174.237379,300.793034 174.119581,300.675236 174.035132,300.534487 C173.750983,300.060906 173.904548,299.446646 174.378129,299.162498 L174.378129,299.162498 L186.818269,291.698414 C186.973684,291.605165 187.151521,291.555907 187.332765,291.555907 C187.885049,291.555907 188.332765,292.003622 188.332765,292.555907 L188.332765,292.555907 L188.332473,295.780907 L290.107473,295.780907 L290.10835,292.695953 C290.10835,292.143668 290.556065,291.695953 291.10835,291.695953 C291.289594,291.695953 291.46743,291.74521 291.622846,291.83846 L304.062986,299.302544 C304.536566,299.586692 304.690131,300.200952 304.405983,300.674532 C304.321533,300.815282 304.203735,300.93308 304.062986,301.01753 L291.622846,308.481614 C291.149265,308.765762 290.535005,308.612197 290.250857,308.138616 C290.157608,307.983201 290.10835,307.805365 290.10835,307.624121 L290.107473,303.985907 L188.332473,303.985907 Z" id="Combined-Shape-Copy" fill="#7BB2FF" transform="translate(239.220557, 300.090089) scale(-1, 1) rotate(-300.000000) translate(-239.220557, -300.090089) "></path>
        <g id="git" transform="translate(315.000000, 300.000000)">
            <path d="M48.0523268,11.5786047 C46.3057004,11.5786047 45.0051434,12.4554653 45.0051434,14.5660635 C45.0051434,16.1560258 45.8621837,17.2599306 47.9585182,17.2599306 C49.7351378,17.2599306 50.9425244,16.1892995 50.9425244,14.5001685 C50.9425244,12.5859505 49.8621303,11.5786047 48.0523268,11.5786047 L48.0523268,11.5786047 Z M44.5609885,26.4800153 C44.147465,26.9986939 43.7352178,27.5499939 43.7352178,28.2004627 C43.7352178,29.4981381 45.3535753,29.8882888 47.5775405,29.8882888 C49.4186136,29.8882888 51.9271953,29.7564988 51.9271953,28.0060397 C51.9271953,26.9654202 50.7198088,26.9014825 49.1952598,26.8036186 L44.5609885,26.4800153 Z M53.9578,11.6764686 C54.5289475,12.4234965 55.133279,13.4621587 55.133279,14.9555619 C55.133279,18.5582584 52.3707121,20.6682042 48.3707654,20.6682042 C47.3535486,20.6682042 46.432693,20.5390238 45.8615455,20.3765698 L44.8136973,22.0970172 L47.9246961,22.2907877 C53.4179221,22.6489696 56.6559134,22.8114237 56.6559134,27.1272219 C56.6559134,30.861056 53.4498298,32.969697 47.9246961,32.969697 C42.1774849,32.969697 39.9873418,31.4762938 39.9873418,28.9129119 C39.9873418,27.4514776 40.6229427,26.6744382 41.7339681,25.6011974 C40.6854818,25.1484137 40.3370499,24.3374482 40.3370499,23.4605876 C40.3370499,22.7461811 40.6861199,22.0970172 41.2579056,21.4798222 C41.8296912,20.863932 42.464654,20.2460845 43.2259712,19.5323305 C41.6701528,18.7533338 40.4959502,17.0655077 40.4959502,14.6626226 C40.4959502,10.9300933 42.9088089,8.3667114 47.766434,8.3667114 C49.1320826,8.3667114 49.9584915,8.49523933 50.6879011,8.69161956 L56.8799053,8.69161956 L56.8799053,11.4500768 L53.9578,11.6764686 L53.9578,11.6764686 Z M62.4656636,5.77853734 C60.6552219,5.77853734 59.6073737,4.70660138 59.6073737,2.85566873 C59.6073737,1.00734579 60.6552219,0 62.4656636,0 C64.3073749,0 65.3545852,1.00669336 65.3545852,2.85566873 C65.3552231,4.70660138 64.3073749,5.77853734 62.4656636,5.77853734 Z M58.3687176,25.2860756 L58.3687176,22.7226938 L59.9889896,22.4956495 C60.4331445,22.4304069 60.4963217,22.3331954 60.4963217,21.8451807 L60.4963217,12.3021452 C60.4963217,11.9459206 60.4018749,11.7175715 60.0834363,11.6210124 L58.3687176,11.0038174 L58.7177876,8.37584537 L65.2914077,8.37584537 L65.2914077,21.8458332 C65.2914077,22.3664691 65.3220391,22.4304069 65.799378,22.4963019 L67.4190118,22.7233462 L67.4190118,25.286728 L58.3687176,25.286728 L58.3687176,25.2860756 Z M79.9746835,24.0268934 C78.6083967,24.7073737 76.6090615,25.3252212 74.7979817,25.3252212 C71.0201124,25.3252212 69.5919247,23.7685327 69.5919247,20.0986363 L69.5919247,11.594263 C69.5919247,11.4004924 69.5919247,11.2700072 69.3373014,11.2700072 L67.1152507,11.2700072 L67.1152507,8.38106477 C69.9103634,8.05550419 71.0207506,6.62734361 71.3698206,3.08923725 L74.3870108,3.08923725 L74.3870108,7.699932 C74.3870108,7.92632383 74.3870108,8.02484016 74.6409959,8.02484016 L79.1176433,8.02484016 L79.1176433,11.2706597 L74.3870108,11.2706597 L74.3870108,19.0280051 C74.3870108,20.9428755 74.8318038,21.6892509 76.5458843,21.6892509 C77.4361086,21.6892509 78.3556879,21.4628591 79.1176433,21.1705722 L79.9746835,24.0268934 L79.9746835,24.0268934 Z" id="Shape" fill="#31251C" fill-rule="nonzero"></path>
            <path d="M33.1969312,15.4854231 L18.4239795,0.641133908 C17.5739292,-0.213711303 16.1939774,-0.213711303 15.3432777,0.641133908 L12.2755638,3.72379709 L16.1660537,7.63389824 C17.071302,7.32719805 18.107727,7.53275243 18.8285488,8.25773948 C19.553267,8.98664184 19.7565258,10.0372531 19.4435203,10.9495231 L23.1937421,14.7180201 C24.1002892,14.4041418 25.1477538,14.607086 25.872472,15.3359883 C26.8855189,16.3533194 26.8855189,18.0023223 25.872472,19.0203059 C24.8587757,20.0382895 23.2184189,20.0382895 22.205372,19.0203059 C21.4436386,18.254208 21.2553158,17.1298582 21.6410529,16.1869182 L18.1434434,12.6722646 L18.142794,21.9215592 C18.3902112,22.0442393 18.6226925,22.2073777 18.8285488,22.4135846 C19.8415958,23.4309157 19.8415958,25.0792661 18.8285488,26.0985548 C17.8155019,27.1158858 16.1738463,27.1158858 15.1620982,26.0985548 C14.1490512,25.0792661 14.1490512,23.4309157 15.1620982,22.4135846 C15.4127624,22.1623515 15.7017405,21.9724584 16.0108497,21.8452104 L16.0108497,12.5104313 C15.7017405,12.3838359 15.4127624,12.1945953 15.1620982,11.9420571 C14.3945203,11.1713913 14.2100938,10.0405159 14.6036236,9.09366063 L10.7683318,5.23837399 L0.638511796,15.416905 C-0.212837265,16.2724027 -0.212837265,17.6590791 0.638511796,18.5145769 L15.4114636,33.3588661 C16.2621633,34.2137113 17.6414656,34.2137113 18.4934641,33.3588661 L33.1969312,18.5824425 C34.0482803,17.7275973 34.0482803,16.3402683 33.1969312,15.4854231 L33.1969312,15.4854231 Z" id="Path" fill="#F34F29" fill-rule="nonzero"></path>
            <polygon id="Path" points="1.1525545e-15 0 81 0 81 34 0 34"></polygon>
        </g>
        <g id="Group-2" transform="translate(285.000000, 477.000000)">
            <ellipse id="Oval" fill="#006AE1" cx="13" cy="15.5217391" rx="13" ry="13.4782609"></ellipse>
            <text id="1" font-family="Helvetica-Bold, Helvetica" font-size="24" font-weight="bold" fill="#FFFFFF">
                <tspan x="6.97617187" y="23">1</tspan>
            </text>
        </g>
        <g id="Group-2-Copy-3" transform="translate(706.000000, 72.000000)">
            <ellipse id="Oval" fill="#006AE1" cx="13" cy="15.5217391" rx="13" ry="13.4782609"></ellipse>
            <text id="3" font-family="Helvetica-Bold, Helvetica" font-size="24" font-weight="bold" fill="#FFFFFF">
                <tspan x="6.97617187" y="23">3</tspan>
            </text>
        </g>
        <g id="Group-2-Copy-2" transform="translate(633.000000, 283.000000)">
            <ellipse id="Oval" fill="#006AE1" cx="13" cy="15.5217391" rx="13" ry="13.4782609"></ellipse>
            <text id="2" font-family="Helvetica-Bold, Helvetica" font-size="24" font-weight="bold" fill="#FFFFFF">
                <tspan x="6.97617187" y="23">2</tspan>
            </text>
        </g>
        <text id="Task-Management-&amp;-Au" font-family="Helvetica" font-size="21" font-weight="normal" fill="#0055C2">
            <tspan x="527" y="83">Task Management </tspan>
            <tspan x="527" y="108">&amp; Automation</tspan>
        </text>
        <text id="Share-and-collaborat" font-family="Helvetica" font-size="21" font-weight="normal" fill="#0055C2">
            <tspan x="524" y="293">Share and </tspan>
            <tspan x="524" y="318">collaborate</tspan>
        </text>
        <g id="Group-2-Copy-5" transform="translate(713.000000, 500.000000)"></g>
        <g id="laptop" transform="translate(365.000000, 467.000000)" fill-rule="nonzero">
            <path d="M60.3825186,0 L8.29672672,0 C5.8983241,0 3.96226415,1.94887515 3.96226415,4.36315332 L3.96226415,32.7672815 C3.96226415,33.7998944 4.32346936,34.7307005 4.91584592,35.4869804 C5.69604918,36.4905056 6.92414691,37.1304348 8.29672672,37.1304348 L60.5125524,37.1304348 C61.8128912,37.0868032 62.9831961,36.4614179 63.7633994,35.5015242 C64.3557759,34.7452443 64.7169811,33.7998944 64.7169811,32.7672815 L64.7169811,4.36315332 C64.7169811,1.94887515 62.766473,0 60.3825186,0 Z M8.29672672,34.2216659 C7.50207525,34.2216659 6.85190586,33.5671929 6.85190586,32.7672815 L6.85190586,4.36315332 C6.85190586,3.54869804 7.50207525,2.90876888 8.29672672,2.90876888 L60.3825186,2.90876888 C61.17717,2.90876888 61.8273394,3.54869804 61.8273394,4.36315332 L61.8273394,32.7672815 C61.8273394,33.5671929 61.17717,34.2216659 60.3825186,34.2216659 L8.29672672,34.2216659 Z" id="Shape" fill="#0055C2"></path>
            <path d="M62.0754717,4.13039439 L62.0754717,33.0000404 C62.0754717,33.8130617 61.4194332,34.4782609 60.6176084,34.4782609 L8.06163687,34.4782609 C7.25981206,34.4782609 6.60377358,33.8130617 6.60377358,33.0000404 L6.60377358,4.13039439 C6.60377358,3.30259092 7.25981206,2.65217391 8.06163687,2.65217391 L60.6176084,2.65217391 C61.4194332,2.65217391 62.0754717,3.30259092 62.0754717,4.13039439 Z" id="Path" fill="#FFFFFF"></path>
            <path d="M69.8918639,55.1700996 L66.2021495,38.2834914 C65.9833917,37.2783362 65.4437893,36.4024152 64.7000128,35.7418846 C63.8249818,34.9521198 62.6728575,34.4782609 61.4186463,34.4782609 L8.56676981,34.4782609 C7.32714246,34.4782609 6.16043437,34.9521198 5.29998715,35.7275252 C4.54162689,36.3880558 4.0020244,37.2639768 3.78326663,38.2834914 L0.108136144,55.1700996 C-0.19812473,56.5916763 0.151887698,58.0706904 1.08525417,59.2050799 C2.01862064,60.3394694 3.4040865,61 4.89163932,61 L65.1083607,61 C66.5959135,61 67.9813794,60.3394694 68.9147458,59.2050799 C69.8481123,58.0706904 70.1981247,56.5916763 69.8918639,55.1700996 Z M66.6396651,57.3958005 C66.2604849,57.8553 65.7062986,58.1281279 65.1083607,58.1281279 L4.89163932,58.1281279 C4.29370142,58.1281279 3.72493123,57.8553 3.3457511,57.3958005 C2.98115482,56.9363009 2.83531631,56.3475671 2.95198712,55.7731927 L6.64170146,38.8865846 C6.83129152,37.9963042 7.64798718,37.350133 8.56676981,37.350133 L61.4186463,37.350133 C62.3520128,37.350133 63.1687085,37.9963042 63.3582985,38.8865846 L67.033429,55.7731927 C67.1646837,56.3475671 67.0188452,56.9363009 66.6396651,57.3958005 Z" id="Shape" fill="#0055C2"></path>
            <path d="M67.3108584,55.9430908 L63.6042889,38.6993788 C63.4036111,37.7827614 62.5891555,37.1295536 61.648044,37.1304348 L8.34404505,37.1304348 C7.41740269,37.1304348 6.59372058,37.7902716 6.40250867,38.6993788 L2.6812306,55.9430908 C2.56356173,56.5296116 2.71064781,57.1307954 3.07836304,57.6000121 C3.46078687,58.0692287 4.03442262,58.3478261 4.63747559,58.3478261 L65.369322,58.3478261 C65.972375,58.3478261 66.5313021,58.0692287 66.913726,57.6000121 C67.2961498,57.1307954 67.4432359,56.5296116 67.3108584,55.9430908 L67.3108584,55.9430908 Z M10.7178226,41.1086957 L59.2821774,41.1086957 C60.1067996,41.1086957 60.754717,41.7054348 60.754717,42.4347826 C60.754717,43.1641304 60.1067996,43.7608696 59.2821774,43.7608696 L10.7178226,43.7608696 C9.90792582,43.7608696 9.24528302,43.1641304 9.24528302,42.4347826 C9.24528302,41.7054348 9.90792582,41.1086957 10.7178226,41.1086957 Z M38.1437603,53.0434783 L6.76190012,53.0434783 C5.94851543,53.0434783 5.28301887,52.46 5.28301887,51.7173913 C5.28301887,50.9880435 5.94851543,50.3913043 6.76190012,50.3913043 L38.1437603,50.3913043 C38.9571449,50.3913043 39.6226415,50.9880435 39.6226415,51.7173913 C39.6226415,52.46 38.9571449,53.0434783 38.1437603,53.0434783 L38.1437603,53.0434783 Z M60.5719856,53.0434783 L46.4091465,53.0434783 C45.5822291,53.0434783 44.9056604,52.46 44.9056604,51.7173913 C44.9056604,50.9880435 45.5822291,50.3913043 46.4091465,50.3913043 L60.5719856,50.3913043 C61.398903,50.3913043 62.0754717,50.9880435 62.0754717,51.7173913 C62.0754717,52.46 61.398903,53.0434783 60.5719856,53.0434783 Z" id="Shape" fill="#D0E8F9"></path>
            <path d="M60.754717,42.4347826 C60.754717,43.1641304 60.1067996,43.7608696 59.2821774,43.7608696 L10.7178226,43.7608696 C9.90792582,43.7608696 9.24528302,43.1641304 9.24528302,42.4347826 C9.24528302,41.7054348 9.90792582,41.1086957 10.7178226,41.1086957 L59.2821774,41.1086957 C60.1067996,41.1086957 60.754717,41.7054348 60.754717,42.4347826 Z M39.6226415,51.7173913 C39.6226415,52.46 38.9571449,53.0434783 38.1437603,53.0434783 L6.76190012,53.0434783 C5.94851543,53.0434783 5.28301887,52.46 5.28301887,51.7173913 C5.28301887,50.9880435 5.94851543,50.3913043 6.76190012,50.3913043 L38.1437603,50.3913043 C38.9571449,50.3913043 39.6226415,50.9880435 39.6226415,51.7173913 Z M62.0754717,51.7173913 C62.0754717,52.46 61.398903,53.0434783 60.5719856,53.0434783 L46.4091465,53.0434783 C45.5822291,53.0434783 44.9056604,52.46 44.9056604,51.7173913 C44.9056604,50.9880435 45.5822291,50.3913043 46.4091465,50.3913043 L60.5719856,50.3913043 C61.398903,50.3913043 62.0754717,50.9880435 62.0754717,51.7173913 Z" id="Shape" fill="#0055C2"></path>
            <path d="M17.1698113,34.4782609 L27.3415878,34.4782609 L40.9433962,2.65217391 L30.7716197,2.65217391 L17.1698113,34.4782609 Z M33.8041231,34.4782609 L47.5471698,2.65217391 L44.1201984,2.65217391 L30.3773585,34.4782609 L33.8041231,34.4782609 Z" id="Shape" fill="#C5DDFF"></path>
        </g>
        <g id="Group-6" transform="translate(573.000000, 163.000000)">
            <g id="Group-5" fill-rule="nonzero">
                <g id="Group-3">
                    <ellipse id="Oval" fill="#E8EEFF" cx="26.9943759" cy="64.5999267" rx="19.1220473" ry="3.40007333"></ellipse>
                    <path d="M34.0357886,54.3997092 C33.7296422,54.4004451 33.4464759,54.2361734 33.2934032,53.9690307 L30.1101447,48.404244 C28.0444742,48.715818 25.9442776,48.715818 23.878607,48.404244 L20.6953485,53.9690307 C20.4799879,54.3430309 20.0228133,54.4981946 19.6267635,54.3317052 L13.1590122,51.6343137 C12.7635067,51.467477 12.5518431,51.031245 12.6640887,50.6142917 L14.3175833,44.4034911 C12.6395618,43.1528231 11.1537997,41.6596109 9.90826421,39.9720622 L3.75546429,41.6380981 C3.34164965,41.751195 2.90870141,41.537926 2.74312061,41.1394207 L0.0660339922,34.6226135 C-0.0992021381,34.2235598 0.0547935255,33.7629176 0.425978412,33.5459236 L5.9488756,30.3385211 C5.63964708,28.257183 5.63964708,26.1410571 5.9488756,24.059719 L0.425978412,20.8523165 C0.0547935255,20.6353224 -0.0992021381,20.1746803 0.0660339922,19.7756266 L2.74312061,13.2588194 C2.90870141,12.8603141 3.34164965,12.6470451 3.75546429,12.7601419 L9.91951247,14.4261779 C11.1607659,12.7354291 12.6427378,11.2383979 14.3175833,9.98341539 L12.6640887,3.78394835 C12.5518431,3.36699505 12.7635067,2.93076302 13.1590122,2.76392635 L19.6267635,0.06653484 C20.0228133,-0.0999545562 20.4799879,0.0552091177 20.6953485,0.429209329 L23.878607,5.99399601 C25.9442776,5.68242209 28.0444742,5.68242209 30.1101447,5.99399601 L33.2934032,0.429209329 C33.5087638,0.0552091177 33.9659384,-0.0999545562 34.3619882,0.06653484 L40.8297395,2.76392635 C41.225245,2.93076302 41.4369086,3.36699505 41.3246631,3.78394835 L39.6711684,9.99474897 C41.3491899,11.245417 42.834952,12.7386291 44.0804875,14.4261779 L50.2332874,12.7601419 C50.6471021,12.6470451 51.0800503,12.8603141 51.2456311,13.2588194 L53.9227177,19.7756266 C54.0879539,20.1746803 53.9339582,20.6353224 53.5627733,20.8523165 L48.0398761,24.059719 C48.3491047,26.1410571 48.3491047,28.257183 48.0398761,30.3385211 L53.5740216,33.5459236 C53.9452065,33.7629176 54.0992021,34.2235598 53.933966,34.6226135 L51.2456311,41.1394207 C51.0800503,41.537926 50.6471021,41.751195 50.2332874,41.6380981 L44.0692393,39.9720622 C42.8279858,41.662811 41.3460139,43.1598421 39.6711684,44.4148247 L41.3246631,50.6142917 C41.4369086,51.031245 41.225245,51.467477 40.8297395,51.6343137 L34.3619882,54.3317052 C34.2588213,54.3759918 34.1479267,54.3991096 34.0357886,54.3997092 Z M14.5088038,50.3309523 L19.5930187,52.4616649 L22.6975394,47.0215475 C22.8743041,46.7047221 23.2314325,46.5361908 23.5861521,46.6022052 C25.8445331,47.0045753 28.1554669,47.0045753 30.4138479,46.6022052 C30.7685675,46.5361908 31.1256959,46.7047221 31.3024606,47.0215475 L34.395733,52.4503313 L39.4799479,50.3196187 L37.8714463,44.2788217 C37.7749186,43.9281948 37.9105893,43.5545488 38.2088942,43.3494683 C40.0783811,42.0369062 41.7073515,40.4070852 43.0231508,38.5326978 C43.2297284,38.2363586 43.5999597,38.1044301 43.9455084,38.204024 L49.9520809,39.8247257 L52.0667543,34.7019485 L46.667588,31.573881 C46.35575,31.3933524 46.1893985,31.0354756 46.2514023,30.6785284 C46.6505815,28.406811 46.6505815,26.0820977 46.2514023,23.8103803 C46.1858849,23.4529702 46.3531476,23.093133 46.667588,22.9150276 L52.0555061,19.7869602 L49.9408326,14.6528494 L43.9455084,16.2848846 C43.5973819,16.3858606 43.2244135,16.2483738 43.0231508,15.9448773 C41.7245377,14.0449959 40.1067545,12.3880943 38.242639,11.0487717 C37.9485305,10.8406273 37.8175951,10.4675879 37.9164393,10.1194183 L39.4799479,4.06728779 L34.395733,1.93657517 L31.2912124,7.3766925 C31.1120427,7.69089576 30.7568598,7.85850895 30.4025996,7.79603488 C28.1442187,7.39366474 25.8332848,7.39366474 23.5749039,7.79603488 C23.2229639,7.86414241 22.8678385,7.69440777 22.6975394,7.3766925 L19.5930187,1.93657517 L14.5088038,4.06728779 L16.1173054,10.1080847 C16.2138331,10.4587117 16.0781624,10.8323577 15.7798576,11.0374381 C13.9094187,12.3533874 12.2803908,13.987101 10.9656009,15.8655423 C10.7612369,16.1648055 10.3888951,16.2974861 10.0432434,16.194216 L4.03667087,14.6188487 L1.9219974,19.7416259 L7.3211637,22.8696933 C7.63300175,23.050222 7.79935322,23.4080988 7.73734943,23.765046 C7.33817021,26.0367634 7.33817021,28.3614767 7.73734943,30.6331941 C7.80286685,30.9906042 7.63560416,31.3504413 7.3211637,31.5285467 L1.9219974,34.6566142 L4.03667087,39.7793913 L10.0319951,38.1586897 C10.3801216,38.0577138 10.75309,38.1952006 10.9543527,38.4986971 C12.2603961,40.3833227 13.8818117,42.0247062 15.7461128,43.3494683 C16.0388929,43.5588403 16.1731194,43.9285087 16.0835607,44.2788217 L14.5088038,50.3309523 Z" id="Shape" fill="#0055C2"></path>
                    <path d="M18.3782063,38.5326978 C14.1674607,32.8386833 14.7402342,24.8941616 19.7235012,19.873098 C24.7067682,14.8520344 32.5914868,14.2749166 38.242639,18.5175995 C34.9175283,14.0211919 29.2914791,11.897252 23.8526392,13.0851025 C18.4137992,14.272953 14.1655119,18.5534623 12.9866031,24.0335542 C11.8076942,29.5136461 13.915646,35.1823672 18.3782063,38.5326978 Z" id="Path" fill="#C2D1FF"></path>
                </g>
                <path d="M27,42 C18.7157288,42 12,35.2842712 12,27 C12,18.7157288 18.7157288,12 27,12 C35.2842712,12 42,18.7157288 42,27 C41.9876614,35.2791551 35.2791551,41.9876614 27,42 L27,42 Z M27,13.7027633 C19.6561389,13.7027633 13.7027633,19.6561389 13.7027633,27 C13.7027633,34.3438611 19.6561389,40.2972367 27,40.2972367 C34.3438611,40.2972367 40.2972367,34.3438611 40.2972367,27 C40.2910598,19.658699 34.341301,13.7089402 27,13.7027633 Z" id="Shape" fill="#0055C2"></path>
            </g>
            <text id="API" font-family="Helvetica-Bold, Helvetica" font-size="14" font-weight="bold" fill="#0055C2">
                <tspan x="16" y="31">API</tspan>
            </text>
        </g>
        <g id="laptop-copy" transform="translate(27.000000, 467.000000)" fill-rule="nonzero">
            <path d="M60.3825186,0 L8.29672672,0 C5.8983241,0 3.96226415,1.94887515 3.96226415,4.36315332 L3.96226415,32.7672815 C3.96226415,33.7998944 4.32346936,34.7307005 4.91584592,35.4869804 C5.69604918,36.4905056 6.92414691,37.1304348 8.29672672,37.1304348 L60.5125524,37.1304348 C61.8128912,37.0868032 62.9831961,36.4614179 63.7633994,35.5015242 C64.3557759,34.7452443 64.7169811,33.7998944 64.7169811,32.7672815 L64.7169811,4.36315332 C64.7169811,1.94887515 62.766473,0 60.3825186,0 Z M8.29672672,34.2216659 C7.50207525,34.2216659 6.85190586,33.5671929 6.85190586,32.7672815 L6.85190586,4.36315332 C6.85190586,3.54869804 7.50207525,2.90876888 8.29672672,2.90876888 L60.3825186,2.90876888 C61.17717,2.90876888 61.8273394,3.54869804 61.8273394,4.36315332 L61.8273394,32.7672815 C61.8273394,33.5671929 61.17717,34.2216659 60.3825186,34.2216659 L8.29672672,34.2216659 Z" id="Shape" fill="#0055C2"></path>
            <path d="M62.0754717,4.13039439 L62.0754717,33.0000404 C62.0754717,33.8130617 61.4194332,34.4782609 60.6176084,34.4782609 L8.06163687,34.4782609 C7.25981206,34.4782609 6.60377358,33.8130617 6.60377358,33.0000404 L6.60377358,4.13039439 C6.60377358,3.30259092 7.25981206,2.65217391 8.06163687,2.65217391 L60.6176084,2.65217391 C61.4194332,2.65217391 62.0754717,3.30259092 62.0754717,4.13039439 Z" id="Path" fill="#FFFFFF"></path>
            <path d="M69.8918639,55.1700996 L66.2021495,38.2834914 C65.9833917,37.2783362 65.4437893,36.4024152 64.7000128,35.7418846 C63.8249818,34.9521198 62.6728575,34.4782609 61.4186463,34.4782609 L8.56676981,34.4782609 C7.32714246,34.4782609 6.16043437,34.9521198 5.29998715,35.7275252 C4.54162689,36.3880558 4.0020244,37.2639768 3.78326663,38.2834914 L0.108136144,55.1700996 C-0.19812473,56.5916763 0.151887698,58.0706904 1.08525417,59.2050799 C2.01862064,60.3394694 3.4040865,61 4.89163932,61 L65.1083607,61 C66.5959135,61 67.9813794,60.3394694 68.9147458,59.2050799 C69.8481123,58.0706904 70.1981247,56.5916763 69.8918639,55.1700996 Z M66.6396651,57.3958005 C66.2604849,57.8553 65.7062986,58.1281279 65.1083607,58.1281279 L4.89163932,58.1281279 C4.29370142,58.1281279 3.72493123,57.8553 3.3457511,57.3958005 C2.98115482,56.9363009 2.83531631,56.3475671 2.95198712,55.7731927 L6.64170146,38.8865846 C6.83129152,37.9963042 7.64798718,37.350133 8.56676981,37.350133 L61.4186463,37.350133 C62.3520128,37.350133 63.1687085,37.9963042 63.3582985,38.8865846 L67.033429,55.7731927 C67.1646837,56.3475671 67.0188452,56.9363009 66.6396651,57.3958005 Z" id="Shape" fill="#0055C2"></path>
            <path d="M67.3108584,55.9430908 L63.6042889,38.6993788 C63.4036111,37.7827614 62.5891555,37.1295536 61.648044,37.1304348 L8.34404505,37.1304348 C7.41740269,37.1304348 6.59372058,37.7902716 6.40250867,38.6993788 L2.6812306,55.9430908 C2.56356173,56.5296116 2.71064781,57.1307954 3.07836304,57.6000121 C3.46078687,58.0692287 4.03442262,58.3478261 4.63747559,58.3478261 L65.369322,58.3478261 C65.972375,58.3478261 66.5313021,58.0692287 66.913726,57.6000121 C67.2961498,57.1307954 67.4432359,56.5296116 67.3108584,55.9430908 L67.3108584,55.9430908 Z M10.7178226,41.1086957 L59.2821774,41.1086957 C60.1067996,41.1086957 60.754717,41.7054348 60.754717,42.4347826 C60.754717,43.1641304 60.1067996,43.7608696 59.2821774,43.7608696 L10.7178226,43.7608696 C9.90792582,43.7608696 9.24528302,43.1641304 9.24528302,42.4347826 C9.24528302,41.7054348 9.90792582,41.1086957 10.7178226,41.1086957 Z M38.1437603,53.0434783 L6.76190012,53.0434783 C5.94851543,53.0434783 5.28301887,52.46 5.28301887,51.7173913 C5.28301887,50.9880435 5.94851543,50.3913043 6.76190012,50.3913043 L38.1437603,50.3913043 C38.9571449,50.3913043 39.6226415,50.9880435 39.6226415,51.7173913 C39.6226415,52.46 38.9571449,53.0434783 38.1437603,53.0434783 L38.1437603,53.0434783 Z M60.5719856,53.0434783 L46.4091465,53.0434783 C45.5822291,53.0434783 44.9056604,52.46 44.9056604,51.7173913 C44.9056604,50.9880435 45.5822291,50.3913043 46.4091465,50.3913043 L60.5719856,50.3913043 C61.398903,50.3913043 62.0754717,50.9880435 62.0754717,51.7173913 C62.0754717,52.46 61.398903,53.0434783 60.5719856,53.0434783 Z" id="Shape" fill="#D0E8F9"></path>
            <path d="M60.754717,42.4347826 C60.754717,43.1641304 60.1067996,43.7608696 59.2821774,43.7608696 L10.7178226,43.7608696 C9.90792582,43.7608696 9.24528302,43.1641304 9.24528302,42.4347826 C9.24528302,41.7054348 9.90792582,41.1086957 10.7178226,41.1086957 L59.2821774,41.1086957 C60.1067996,41.1086957 60.754717,41.7054348 60.754717,42.4347826 Z M39.6226415,51.7173913 C39.6226415,52.46 38.9571449,53.0434783 38.1437603,53.0434783 L6.76190012,53.0434783 C5.94851543,53.0434783 5.28301887,52.46 5.28301887,51.7173913 C5.28301887,50.9880435 5.94851543,50.3913043 6.76190012,50.3913043 L38.1437603,50.3913043 C38.9571449,50.3913043 39.6226415,50.9880435 39.6226415,51.7173913 Z M62.0754717,51.7173913 C62.0754717,52.46 61.398903,53.0434783 60.5719856,53.0434783 L46.4091465,53.0434783 C45.5822291,53.0434783 44.9056604,52.46 44.9056604,51.7173913 C44.9056604,50.9880435 45.5822291,50.3913043 46.4091465,50.3913043 L60.5719856,50.3913043 C61.398903,50.3913043 62.0754717,50.9880435 62.0754717,51.7173913 Z" id="Shape" fill="#0055C2"></path>
            <path d="M17.1698113,34.4782609 L27.3415878,34.4782609 L40.9433962,2.65217391 L30.7716197,2.65217391 L17.1698113,34.4782609 Z M33.8041231,34.4782609 L47.5471698,2.65217391 L44.1201984,2.65217391 L30.3773585,34.4782609 L33.8041231,34.4782609 Z" id="Shape" fill="#C5DDFF"></path>
        </g>
        <g id="Group-Copy-2" transform="translate(38.000000, 335.000000)" fill-rule="nonzero">
            <path d="M29.8402642,5.7339787 C28.7181963,1.96089061 21.8243953,0 15.0074482,0 C8.19050122,0 1.37355419,1.94230397 0.190003076,5.67821878 C0.0695475138,5.89880074 0.00540277751,6.15735065 0.00555355103,6.42168441 L0.00555355103,40.7419167 C-0.00185118368,40.8159937 -0.00185118368,40.8908795 0.00555355103,40.9649564 C0.00183281309,41.0299319 0.00183281309,41.0951407 0.00555355103,41.1601162 C0.00555355103,45.6487899 7.55261328,48 15.0074482,48 C22.4622832,48 29.9939721,45.6487899 29.9939721,41.1601162 C29.9976898,41.0982422 29.9976898,41.0361237 29.9939721,40.9742498 C30.0020093,40.8971103 30.0020093,40.8190562 29.9939721,40.7419167 L29.9939721,6.42168441 C29.997896,6.17943324 29.9445724,5.94085796 29.8402642,5.7339787 Z" id="Path" fill="url(#linearGradient-2)"></path>
            <path d="M14.9985967,0 C24.7129738,0 29.9927241,3.29519451 29.9927241,4.98855835 C30.0024253,5.04125416 30.0024253,5.09604561 29.9927241,5.14874142 C29.6746669,6.88787185 24.3858292,10 14.9985967,10 C5.61136413,10 0.322526447,6.85354691 0.00446919852,5.14874142 C-0.00148973284,5.10712415 -0.00148973284,5.06450056 0.00446919852,5.0228833 C0.00446919852,3.29519451 5.28421953,0 14.9985967,0 Z" id="Path" fill="#7BB2FF"></path>
        </g>
        <g id="Group-Copy-3" transform="translate(376.000000, 335.000000)" fill-rule="nonzero">
            <path d="M29.8402642,5.7339787 C28.7181963,1.96089061 21.8243953,0 15.0074482,0 C8.19050122,0 1.37355419,1.94230397 0.190003076,5.67821878 C0.0695475138,5.89880074 0.00540277751,6.15735065 0.00555355103,6.42168441 L0.00555355103,40.7419167 C-0.00185118368,40.8159937 -0.00185118368,40.8908795 0.00555355103,40.9649564 C0.00183281309,41.0299319 0.00183281309,41.0951407 0.00555355103,41.1601162 C0.00555355103,45.6487899 7.55261328,48 15.0074482,48 C22.4622832,48 29.9939721,45.6487899 29.9939721,41.1601162 C29.9976898,41.0982422 29.9976898,41.0361237 29.9939721,40.9742498 C30.0020093,40.8971103 30.0020093,40.8190562 29.9939721,40.7419167 L29.9939721,6.42168441 C29.997896,6.17943324 29.9445724,5.94085796 29.8402642,5.7339787 Z" id="Path" fill="url(#linearGradient-2)"></path>
            <path d="M14.9985967,0 C24.7129738,0 29.9927241,3.29519451 29.9927241,4.98855835 C30.0024253,5.04125416 30.0024253,5.09604561 29.9927241,5.14874142 C29.6746669,6.88787185 24.3858292,10 14.9985967,10 C5.61136413,10 0.322526447,6.85354691 0.00446919852,5.14874142 C-0.00148973284,5.10712415 -0.00148973284,5.06450056 0.00446919852,5.0228833 C0.00446919852,3.29519451 5.28421953,0 14.9985967,0 Z" id="Path" fill="#7BB2FF"></path>
        </g>
        <text id="What-Is-Git?" fill-rule="nonzero" font-family="Helvetica" font-size="18" font-weight="normal" fill="#0055C2">
            <tspan x="10" y="23">What Is Git?</tspan>
        </text>
        <g id="bloovee-winner-logo" transform="translate(725.000000, 580.000000)">
            <path d="M13,13.7751507 C13,14.396312 13.4732558,14.8717809 14.0514961,14.8717809 C14.6474304,14.8717809 15.1204503,14.3968042 15.1204503,13.7751507 L15.1204503,2.09687626 C15.1204503,1.49368045 14.6474304,1 14.0514961,1 C13.4557977,1 13,1.49392656 13,2.09687626 L13,13.7751507 Z M21.7920364,15 C24.6483217,15 26.751078,12.7149437 26.751078,9.97312215 L26.751078,9.93645297 C26.751078,7.17641992 24.6657798,4.92778666 21.8269526,4.92778666 C18.9881254,4.92778666 16.885369,7.212843 16.885369,9.97312215 L16.885369,10.0095452 C16.885369,12.7516128 18.9706673,15 21.7920364,15 Z M21.8269526,13.0621935 C20.179994,13.0621935 19.0055834,11.6547366 19.0055834,9.97312215 L19.0055834,9.93645297 C19.0055834,8.25459244 20.0919958,6.86534709 21.7920364,6.86534709 C23.456689,6.86534709 24.6306277,8.27305008 24.6306277,9.97312215 L24.6306277,10.0095452 C24.6306277,11.6731942 23.5444513,13.0621935 21.8269526,13.0621935 Z M32.8092717,15 C35.665557,15 37.7683133,12.7149437 37.7683133,9.97312215 L37.7683133,9.93645297 C37.7683133,7.17641992 35.6830151,4.92778666 32.8441878,4.92778666 C30.0053606,4.92778666 27.9026043,7.212843 27.9026043,9.97312215 L27.9026043,10.0095452 C27.9026043,12.7516128 29.9879025,15 32.8092717,15 Z M32.8441878,13.0621935 C31.1969933,13.0621935 30.0228187,11.6547366 30.0228187,9.97312215 L30.0228187,9.93645297 C30.0228187,8.25459244 31.109231,6.86534709 32.8092717,6.86534709 C34.4739243,6.86534709 35.647863,8.27305008 35.647863,9.97312215 L35.647863,10.0095452 C35.647863,11.6731942 34.5614506,13.0621935 32.8441878,13.0621935 Z M44.1416963,13.9944275 L47.2261164,6.6096472 C47.2784906,6.49988574 47.3487948,6.28060893 47.3487948,6.07954366 C47.3487948,5.47610175 46.8929971,5.01933658 46.3147568,5.01933658 C45.7539746,5.01933658 45.4737015,5.40300947 45.3158709,5.78692847 L42.8976893,12.2215093 L40.5144239,5.82335156 C40.3393711,5.36634029 40.041404,5.01933658 39.4629278,5.01933658 C38.8846875,5.01933658 38.4116676,5.53098247 38.4116676,6.07954366 C38.4116676,6.28060893 38.4817358,6.46346265 38.534346,6.62785874 L41.6182943,13.9944275 C41.8638872,14.5796579 42.2491448,14.9633308 42.8273851,14.9633308 L42.9326055,14.9633308 C43.5108458,14.9633308 43.8965752,14.5612003 44.1416963,13.9944275 Z M50.0949054,9.27837643 C50.2876522,7.77961573 51.1987758,6.73762019 52.4956289,6.73762019 C53.8974665,6.73762019 54.7036056,7.8524619 54.8437422,9.27837643 L50.0949054,9.27837643 Z M56.070527,13.72027 C56.2281217,13.5558739 56.3508002,13.3181395 56.3508002,13.0439819 C56.3508002,12.5320899 55.9830006,12.1481709 55.5095089,12.1481709 C55.2641519,12.1481709 55.1242513,12.2215093 54.9664207,12.3492362 C54.3704864,12.8611282 53.6695676,13.1901665 52.7759021,13.1901665 C51.4089807,13.1901665 50.3402624,12.3128131 50.1123635,10.7409601 L55.9126964,10.7409601 C56.4560206,10.7409601 56.9115824,10.3021604 56.9115824,9.68050697 C56.9115824,7.45057746 55.4568987,4.92778666 52.513087,4.92778666 C49.8672425,4.92778666 47.9919132,7.19438536 47.9919132,9.95466451 L47.9919132,9.9913337 C47.9919132,12.9708897 50.0597533,15 52.7409859,15 C54.1779755,15 55.2292357,14.5063195 56.070527,13.72027 Z M60.1833231,9.27837643 C60.3763058,7.77961573 61.2871935,6.73762019 62.5842825,6.73762019 C63.9858841,6.73762019 64.7920233,7.8524619 64.9321598,9.27837643 L60.1833231,9.27837643 Z M66.1589447,13.72027 C66.3167752,13.5558739 66.4394537,13.3181395 66.4394537,13.0439819 C66.4394537,12.5320899 66.0714183,12.1481709 65.5981624,12.1481709 C65.3528055,12.1481709 65.2126689,12.2215093 65.0548383,12.3492362 C64.4591399,12.8611282 63.7582212,13.1901665 62.8643197,13.1901665 C61.4976342,13.1901665 60.4289159,12.3128131 60.2007812,10.7409601 L66.0011141,10.7409601 C66.5444382,10.7409601 67,10.3021604 67,9.68050697 C67,7.45057746 65.5455522,4.92778666 62.6015046,4.92778666 C59.9556601,4.92778666 58.0805667,7.19438536 58.0805667,9.95466451 L58.0805667,9.9913337 C58.0805667,12.9708897 60.1484069,15 62.8294035,15 C64.2663932,15 65.3178893,14.5063195 66.1589447,13.72027 L66.1589447,13.72027 Z" id="Fill-1" fill="#030060"></path>
            <g id="Group-4">
                <mask id="mask-4" fill="white">
                    <use xlink:href="#path-3"></use>
                </mask>
                <g id="Clip-3"></g>
                <path d="M8.68744595,14.5405413 C10.6544909,13.5649687 12,11.5915112 12,9.31636202 C12,6.07252388 9.26504479,3.44227578 5.89152197,3.44227578 C4.52034181,3.44227578 3.25480793,3.87689217 2.23537065,4.61058921 L2.23537065,1.05770107 C2.23537065,0.476155373 1.74046224,0 1.11695169,0 C0.493934821,0 0.0167986821,0.476630104 0.0167986821,1.05770107 L0.0167986821,1.80184219 L0,9.32158406 C-0.0041824725,11.2003327 0.951817666,12.865215 2.41753644,13.8939574 C2.4777647,13.9362085 2.55848043,13.9312238 2.6127846,13.8823265 C2.66758244,13.8334292 2.6779496,13.7558106 2.63746831,13.6950451 C0.724974359,10.8146136 1.16014819,5.53963813 5.89176881,5.53963813 C8.05899866,5.53963813 9.80709909,7.22944376 9.81623206,9.31351363 C9.82240299,10.8599505 9.11620201,12.0365717 8.19549958,12.7781018 C6.36026565,14.2561773 3.64974731,12.6382934 4.49738595,10.4697214 C4.5894562,10.2335427 4.71879884,9.9959397 4.88664808,9.76189723 L5.12361171,9.47705853 C5.19766284,9.39967734 5.25048599,9.29903433 5.2146946,9.19411874 C5.01401603,8.62800181 3.46832203,8.97526767 3.04005964,10.0315445 C3.34292878,9.79631524 3.65986763,9.66433998 3.96940137,9.71489885 C2.38890334,11.275815 3.44141679,13.9563846 5.46005069,14.7513219 C6.40494316,15.1232738 7.55964718,15.0976383 8.68744595,14.5405413" id="Fill-2" fill="url(#linearGradient-5)" mask="url(#mask-4)"></path>
            </g>
        </g>
        <g id="Group-7" transform="translate(688.000000, 197.000000)" fill="#0055C2" fill-rule="nonzero">
            <path d="M8.49873452,20 L0.622734703,22.8243438 L0.00510924228,23.0466824 L0,23.0466824 L0,36.9799003 L0.0178653607,36.9799003 L0.00255710389,37.0275453 L0.617630296,37.2551766 L8.03679159,40 L16.3696306,37.1254793 L16.9898076,36.9110815 L16.9871942,36.9030858 L16.9871942,35.3705368 L16.9973866,35.341427 L16.9871942,35.3387166 L16.9871942,23.2318506 L17,23.1947939 L16.3874789,22.9645146 L8.49871883,20 L8.49873452,20 Z M7.84027445,21.6703006 L7.84027445,32.4669564 L1.30671655,34.740634 L1.30671655,24.0127965 L7.84027445,21.6703006 Z M9.14698603,21.683541 L15.6805441,24.139853 L15.6805441,34.8597486 L9.14698603,32.4722566 L9.14698603,21.683541 Z M8.48852583,33.671296 L15.1701099,36.1117264 L8.05210455,38.5653918 L1.44198158,36.1223147 L8.48852583,33.671296 Z" id="Shape" transform="translate(8.500000, 30.000000) rotate(-180.000000) translate(-8.500000, -30.000000) "></path>
            <path d="M36.4987345,20 L28.6227347,22.8243438 L28.0051092,23.0466824 L28,23.0466824 L28,36.9799003 L28.0178654,36.9799003 L28.0025571,37.0275453 L28.6176303,37.2551766 L36.0367916,40 L44.3696306,37.1254793 L44.9898076,36.9110815 L44.9871942,36.9030858 L44.9871942,35.3705368 L44.9973866,35.341427 L44.9871942,35.3387166 L44.9871942,23.2318506 L45,23.1947939 L44.3874789,22.9645146 L36.4987188,20 L36.4987345,20 Z M35.8402744,21.6703006 L35.8402744,32.4669564 L29.3067165,34.740634 L29.3067165,24.0127965 L35.8402744,21.6703006 Z M37.146986,21.683541 L43.6805441,24.139853 L43.6805441,34.8597486 L37.146986,32.4722566 L37.146986,21.683541 Z M36.4885258,33.671296 L43.1701099,36.1117264 L36.0521045,38.5653918 L29.4419816,36.1223147 L36.4885258,33.671296 Z" id="Shape-Copy" transform="translate(36.500000, 30.000000) rotate(-180.000000) translate(-36.500000, -30.000000) "></path>
            <path d="M23.4987345,0 L15.6227347,2.82434378 L15.0051092,3.04668237 L15,3.04668237 L15,16.9799003 L15.0178654,16.9799003 L15.0025571,17.0275453 L15.6176303,17.2551766 L23.0367916,20 L31.3696306,17.1254793 L31.9898076,16.9110815 L31.9871942,16.9030858 L31.9871942,15.3705368 L31.9973866,15.341427 L31.9871942,15.3387166 L31.9871942,3.23185063 L32,3.19479385 L31.3874789,2.96451456 L23.4987188,0 L23.4987345,0 Z M22.8402744,1.67030061 L22.8402744,12.4669564 L16.3067165,14.740634 L16.3067165,4.01279646 L22.8402744,1.67030061 Z M24.146986,1.68354098 L30.6805441,4.13985304 L30.6805441,14.8597486 L24.146986,12.4722566 L24.146986,1.68354098 Z M23.4885258,13.671296 L30.1701099,16.1117264 L23.0521045,18.5653918 L16.4419816,16.1223147 L23.4885258,13.671296 Z" id="Shape-Copy-2" transform="translate(23.500000, 10.000000) rotate(-180.000000) translate(-23.500000, -10.000000) "></path>
        </g>
        <line x1="608.5" y1="117.5" x2="598.5" y2="160.5" id="Line-11" stroke="#0055C2" stroke-linecap="square"></line>
        <g id="git" transform="translate(704.000000, 9.000000)">
            <path d="M46.8658496,11.2380575 C45.1623498,11.2380575 43.8939053,12.0891281 43.8939053,14.1376499 C43.8939053,15.6808485 44.7297841,16.7522856 46.7743573,16.7522856 C48.5071097,16.7522856 49.6846843,15.7131436 49.6846843,14.073693 C49.6846843,12.2157755 48.6309666,11.2380575 46.8658496,11.2380575 L46.8658496,11.2380575 Z M43.4607172,25.7011913 C43.0574041,26.2046147 42.6553359,26.7397 42.6553359,27.3710373 C42.6553359,28.6305458 44.2337339,29.0092215 46.4027864,29.0092215 C48.1984009,29.0092215 50.6450424,28.8813076 50.6450424,27.1823327 C50.6450424,26.1723196 49.4674678,26.1102624 47.9805621,26.0152768 L43.4607172,25.7011913 Z M52.6255087,11.3330431 C53.1825537,12.0580995 53.7719634,13.0662128 53.7719634,14.5156924 C53.7719634,18.0124273 51.0776081,20.0603158 47.1764255,20.0603158 C46.1843252,20.0603158 45.2862067,19.9349349 44.7291617,19.7772589 L43.7071863,21.4471049 L46.7413702,21.6351763 C52.0989611,21.9828234 55.257002,22.1404995 55.257002,26.3293624 C55.257002,29.9533779 52.1300809,32 46.7413702,32 C41.1360655,32 39,30.5505204 39,28.0625322 C39,26.6440812 39.6199071,25.8898959 40.7034998,24.848221 C39.680902,24.4087545 39.3410734,23.6216409 39.3410734,22.7705703 C39.3410734,22.0771758 39.6815244,21.4471049 40.2391918,20.8480627 C40.7968593,20.2502869 41.416144,19.6506115 42.1586633,18.9578502 C40.6412601,18.2017651 39.4960502,16.563581 39.4960502,14.231369 C39.4960502,10.6086199 41.8493321,8.12063165 46.5870158,8.12063165 C47.9189448,8.12063165 48.7249485,8.24537935 49.436348,8.43598369 L55.4754632,8.43598369 L55.4754632,11.1133099 L52.6255087,11.3330431 L52.6255087,11.3330431 Z M60.9233016,5.60858036 C59.1575621,5.60858036 58.1355867,4.56817192 58.1355867,2.77167847 C58.1355867,0.977717972 59.1575621,0 60.9233016,0 C62.7195385,0 63.7408917,0.977084735 63.7408917,2.77167847 C63.7415139,4.56817192 62.7195385,5.60858036 60.9233016,5.60858036 Z M56.9275147,24.5423675 L56.9275147,22.0543792 L58.50778,21.8340127 C58.9409681,21.770689 59.0025853,21.6763367 59.0025853,21.2026754 L59.0025853,11.9403174 C59.0025853,11.59457 58.9104706,11.372937 58.5998947,11.279218 L56.9275147,10.6801757 L57.2679657,8.12949697 L63.6792742,8.12949697 L63.6792742,21.2033087 C63.6792742,21.7086318 63.7091492,21.770689 64.174702,21.834646 L65.7543448,22.0550125 L65.7543448,24.5430008 L56.9275147,24.5430008 L56.9275147,24.5423675 Z M78,23.32022 C76.6674487,23.9806863 74.7174798,24.5803617 72.9511179,24.5803617 C69.2665294,24.5803617 67.8736056,23.0694582 67.8736056,19.5074999 L67.8736056,11.2532552 C67.8736056,11.0651838 67.8736056,10.9385364 67.6252693,10.9385364 L65.458084,10.9385364 L65.458084,8.13456287 C68.1841815,7.81857759 69.2671518,6.43242174 69.6076028,2.99837733 L72.5502944,2.99837733 L72.5502944,7.47346341 C72.5502944,7.69319666 72.5502944,7.78881545 72.7980083,7.78881545 L77.1641212,7.78881545 L77.1641212,10.9391697 L72.5502944,10.9391697 L72.5502944,18.4683579 C72.5502944,20.3269086 72.9841049,21.0513318 74.6558625,21.0513318 C75.5241059,21.0513318 76.4209796,20.8315985 77.1641212,20.5479083 L78,23.32022 L78,23.32022 Z" id="Shape" fill="#31251C" fill-rule="nonzero"></path>
            <path d="M32.3772539,15.0299695 L17.9690664,0.622277028 C17.140005,-0.207425676 15.7941261,-0.207425676 14.9644314,0.622277028 L11.9724635,3.61427365 L15.7668919,7.40937182 C16.6497884,7.11169223 17.6606226,7.31120089 18.3636464,8.01486479 C19.0704703,8.72232885 19.2687104,9.74203981 18.9634334,10.6274783 L22.6210571,14.2851371 C23.5052204,13.9804906 24.5268216,14.1774658 25.2336455,14.8849299 C26.221679,15.8723394 26.221679,17.4728423 25.2336455,18.4608852 C24.2449787,19.4489281 22.6451246,19.4489281 21.6570912,18.4608852 C20.914166,17.7173195 20.7304932,16.6260388 21.1067059,15.7108324 L17.6954571,12.2995509 L17.6948238,21.2768075 C17.9361319,21.3958793 18.1628729,21.5542195 18.3636464,21.7543616 C19.3516798,22.7417711 19.3516798,24.3416406 18.3636464,25.3309502 C17.375613,26.3183598 15.7744921,26.3183598 14.7877254,25.3309502 C13.799692,24.3416406 13.799692,22.7417711 14.7877254,21.7543616 C15.0322003,21.5105176 15.3140432,21.3262096 15.6155201,21.2027043 L15.6155201,12.1424774 C15.3140432,12.0196054 15.0322003,11.8359308 14.7877254,11.5908201 C14.0391001,10.842821 13.8592273,9.74520661 14.2430403,8.82620003 L10.5024471,5.08430417 L0.622746073,14.9634666 C-0.207582024,15.7938027 -0.207582024,17.1396945 0.622746073,17.9700305 L15.0309336,32.377723 C15.8606284,33.2074257 17.2058739,33.2074257 18.0368353,32.377723 L32.3772539,18.0359 C33.207582,17.2061973 33.207582,15.8596722 32.3772539,15.0299695 L32.3772539,15.0299695 Z" id="Path" fill="#F34F29" fill-rule="nonzero"></path>
            <polygon id="Path" points="1.12409637e-15 0 79 0 79 33 0 33"></polygon>
        </g>
    </g>
</svg>