<?xml version="1.0" encoding="UTF-8"?>
<svg width="800px" height="600px" viewBox="0 0 800 600" version="1.1" xmlns="http://www.w3.org/2000/svg" xmlns:xlink="http://www.w3.org/1999/xlink">
    <title>2041-10-11-12-10_WhatIsVersionControl?</title>
    <defs>
        <path d="M8.68744595,14.5405413 C10.6544909,13.5649687 12,11.5915112 12,9.31636202 C12,6.07252388 9.26504479,3.44227578 5.89152197,3.44227578 C4.52034181,3.44227578 3.25480793,3.87689217 2.23537065,4.61058921 L2.23537065,1.05770107 C2.23537065,0.476155373 1.74046224,0 1.11695169,0 C0.493934821,0 0.0167986821,0.476630104 0.0167986821,1.05770107 L0.0167986821,1.80184219 L0,9.32158406 C-0.0041824725,11.2003327 0.951817666,12.865215 2.41753644,13.8939574 C2.4777647,13.9362085 2.55848043,13.9312238 2.6127846,13.8823265 C2.66758244,13.8334292 2.6779496,13.7558106 2.63746831,13.6950451 C0.724974359,10.8146136 1.16014819,5.53963813 5.89176881,5.53963813 C8.05899866,5.53963813 9.80709909,7.22944376 9.81623206,9.31351363 C9.82240299,10.8599505 9.11620201,12.0365717 8.19549958,12.7781018 C6.36026565,14.2561773 3.64974731,12.6382934 4.49738595,10.4697214 C4.5894562,10.2335427 4.71879884,9.9959397 4.88664808,9.76189723 L5.12361171,9.47705853 C5.19766284,9.39967734 5.25048599,9.29903433 5.2146946,9.19411874 C5.01401603,8.62800181 3.46832203,8.97526767 3.04005964,10.0315445 C3.34292878,9.79631524 3.65986763,9.66433998 3.96940137,9.71489885 C2.38890334,11.275815 3.44141679,13.9563846 5.46005069,14.7513219 C6.40494316,15.1232738 7.55964718,15.0976383 8.68744595,14.5405413" id="path-1"></path>
        <linearGradient x1="28.568518%" y1="104.445731%" x2="78.3472072%" y2="20.6880271%" id="linearGradient-3">
            <stop stop-color="#000F98" offset="0%"></stop>
            <stop stop-color="#00A5FD" offset="100%"></stop>
        </linearGradient>
        <linearGradient x1="78.5361153%" y1="0%" x2="21.4638847%" y2="100%" id="linearGradient-4">
            <stop stop-color="#00A5FF" offset="0.0491695804%"></stop>
            <stop stop-color="#0755C2" offset="100%"></stop>
        </linearGradient>
        <path d="M665.5,290.5 L737.5,290.5 C739.709139,290.5 741.5,292.290861 741.5,294.5 L741.5,433.611243 C741.5,435.820382 739.709139,437.611243 737.5,437.611243 L700,437.611243 L700,437.611243 L673.381188,453.5 L680.166667,437.611243 L665.5,437.611243 C663.290861,437.611243 661.5,435.820382 661.5,433.611243 L661.5,294.5 C661.5,292.290861 663.290861,290.5 665.5,290.5 Z" id="path-5"></path>
        <filter x="-19.1%" y="-9.4%" width="125.6%" height="112.8%" filterUnits="objectBoundingBox" id="filter-6">
            <feMorphology radius="0.25" operator="dilate" in="SourceAlpha" result="shadowSpreadOuter1"></feMorphology>
            <feOffset dx="-5" dy="-5" in="shadowSpreadOuter1" result="shadowOffsetOuter1"></feOffset>
            <feGaussianBlur stdDeviation="2.5" in="shadowOffsetOuter1" result="shadowBlurOuter1"></feGaussianBlur>
            <feComposite in="shadowBlurOuter1" in2="SourceAlpha" operator="out" result="shadowBlurOuter1"></feComposite>
            <feColorMatrix values="0 0 0 0 0   0 0 0 0 0   0 0 0 0 0  0 0 0 0.5 0" type="matrix" in="shadowBlurOuter1"></feColorMatrix>
        </filter>
    </defs>
    <g id="2041-10-11-12-10_WhatIsVersionControl?" stroke="none" stroke-width="1" fill="none" fill-rule="evenodd">
        <rect fill="#FFFFFF" x="0" y="0" width="800" height="600"></rect>
        <g id="Group-2" transform="translate(75.000000, 467.000000)" fill="#C5DDFF">
            <rect id="Rectangle" x="34" y="19" width="660" height="34"></rect>
            <g id="Triangle-2">
                <polygon id="Triangle" transform="translate(17.500000, 36.500000) rotate(-90.000000) translate(-17.500000, -36.500000) " points="17.5 19 54 54 -19 54"></polygon>
            </g>
        </g>
        <g id="documents-copy-7" transform="translate(205.000000, 368.000000)" fill-rule="nonzero">
            <path d="M42,13 L42,51 L9,51 L9,46.6571429 C9.01079554,46.6442229 37.0787063,13.0171543 37.0929368,13 L42,13 Z" id="Path" fill="#A4C2F7"></path>
            <path d="M38,47 C36.8690759,47 1.69483448,47 1,47 C1,44.1492048 1,2.90330476 1,1 L27.7931034,1 L30.5575138,7.0968619 L38,9.76190476 C38,11.4015857 38,45.1373286 38,47 Z" id="Path" fill="#FFFFFF"></path>
            <polygon id="Path" fill="#A4C2F7" points="38 10 28 10 28 1"></polygon>
            <path d="M36.7741935,47 L1.22580645,47 C0.548793548,47 0,46.5216682 0,45.9318182 L0,1.06818182 C0,0.478225 0.548793548,0 1.22580645,0 L26.9677419,0 C27.2928258,0 27.6045484,0.112586364 27.8345097,0.312870455 L37.6409613,8.858325 C37.8708,9.05860909 38,9.33035455 38,9.61363636 L38,45.9318182 C38,46.5216682 37.4510839,47 36.7741935,47 Z M2.4516129,44.8636364 L35.5483871,44.8636364 L35.5483871,10.0560773 L26.4598903,2.13636364 L2.4516129,2.13636364 L2.4516129,44.8636364 Z" id="Shape" fill="#418CFE"></path>
            <path d="M36.9446367,10.8333333 L27.2560554,10.8333333 C26.587301,10.8333333 26.0449827,10.348325 26.0449827,9.75 L26.0449827,1.08333333 C26.0449827,0.485008333 26.587301,0 27.2560554,0 C27.9248097,0 28.467128,0.485008333 28.467128,1.08333333 L28.467128,8.66666667 L36.9446367,8.66666667 C37.613391,8.66666667 38.1557093,9.151675 38.1557093,9.75 C38.1557093,10.348325 37.613391,10.8333333 36.9446367,10.8333333 Z M41.7889273,52 L9.21107266,52 C8.54219723,52 8,51.5148833 8,50.9166667 L8,46.5833333 C8,45.9851167 8.54219723,45.5 9.21107266,45.5 C9.8799481,45.5 10.4221453,45.9851167 10.4221453,46.5833333 L10.4221453,49.8333333 L40.5778547,49.8333333 L40.5778547,14.0833333 L36.9446367,14.0833333 C36.2758824,14.0833333 35.733564,13.598325 35.733564,13 C35.733564,12.401675 36.2758824,11.9166667 36.9446367,11.9166667 L41.7889273,11.9166667 C42.4576817,11.9166667 43,12.401675 43,13 L43,50.9166667 C43,51.5148833 42.4576817,52 41.7889273,52 Z" id="Shape" fill="#418CFE"></path>
            <path d="M31.7391304,40 L5.26086957,40 C4.5644913,40 4,39.5114909 4,38.9090909 C4,38.3066909 4.5644913,37.8181818 5.26086957,37.8181818 L31.7391304,37.8181818 C32.4353826,37.8181818 33,38.3066909 33,38.9090909 C33,39.5114909 32.4353826,40 31.7391304,40 Z M31.7391304,35.6363636 L5.26086957,35.6363636 C4.5644913,35.6363636 4,35.1478545 4,34.5454545 C4,33.9430545 4.5644913,33.4545455 5.26086957,33.4545455 L31.7391304,33.4545455 C32.4353826,33.4545455 33,33.9430545 33,34.5454545 C33,35.1478545 32.4353826,35.6363636 31.7391304,35.6363636 Z M31.7391304,31.2727273 L5.26086957,31.2727273 C4.5644913,31.2727273 4,30.7842182 4,30.1818182 C4,29.5794182 4.5644913,29.0909091 5.26086957,29.0909091 L31.7391304,29.0909091 C32.4353826,29.0909091 33,29.5794182 33,30.1818182 C33,30.7842182 32.4353826,31.2727273 31.7391304,31.2727273 Z M31.7391304,26.9090909 L5.26086957,26.9090909 C4.5644913,26.9090909 4,26.4206909 4,25.8181818 C4,25.2156727 4.5644913,24.7272727 5.26086957,24.7272727 L31.7391304,24.7272727 C32.4353826,24.7272727 33,25.2156727 33,25.8181818 C33,26.4206909 32.4353826,26.9090909 31.7391304,26.9090909 Z M31.7391304,22.5454545 L5.26086957,22.5454545 C4.5644913,22.5454545 4,22.0570545 4,21.4545455 C4,20.8520364 4.5644913,20.3636364 5.26086957,20.3636364 L31.7391304,20.3636364 C32.4353826,20.3636364 33,20.8520364 33,21.4545455 C33,22.0570545 32.4353826,22.5454545 31.7391304,22.5454545 Z M16.6086957,18.1818182 L5.26086957,18.1818182 C4.5644913,18.1818182 4,17.6934182 4,17.0909091 C4,16.4884 4.5644913,16 5.26086957,16 L16.6086957,16 C17.3050739,16 17.8695652,16.4884 17.8695652,17.0909091 C17.8695652,17.6934182 17.3050739,18.1818182 16.6086957,18.1818182 Z" id="Shape" fill="#418CFE"></path>
        </g>
        <g id="documents-copy-10" transform="translate(205.000000, 256.000000)" fill-rule="nonzero">
            <path d="M42,13 L42,51 L9,51 L9,46.6571429 C9.01079554,46.6442229 37.0787063,13.0171543 37.0929368,13 L42,13 Z" id="Path" fill="#A4C2F7"></path>
            <path d="M38,47 C36.8690759,47 1.69483448,47 1,47 C1,44.1492048 1,2.90330476 1,1 L27.7931034,1 L30.5575138,7.0968619 L38,9.76190476 C38,11.4015857 38,45.1373286 38,47 Z" id="Path" fill="#FFFFFF"></path>
            <polygon id="Path" fill="#A4C2F7" points="38 10 28 10 28 1"></polygon>
            <path d="M36.7741935,47 L1.22580645,47 C0.548793548,47 0,46.5216682 0,45.9318182 L0,1.06818182 C0,0.478225 0.548793548,0 1.22580645,0 L26.9677419,0 C27.2928258,0 27.6045484,0.112586364 27.8345097,0.312870455 L37.6409613,8.858325 C37.8708,9.05860909 38,9.33035455 38,9.61363636 L38,45.9318182 C38,46.5216682 37.4510839,47 36.7741935,47 Z M2.4516129,44.8636364 L35.5483871,44.8636364 L35.5483871,10.0560773 L26.4598903,2.13636364 L2.4516129,2.13636364 L2.4516129,44.8636364 Z" id="Shape" fill="#418CFE"></path>
            <path d="M36.9446367,10.8333333 L27.2560554,10.8333333 C26.587301,10.8333333 26.0449827,10.348325 26.0449827,9.75 L26.0449827,1.08333333 C26.0449827,0.485008333 26.587301,0 27.2560554,0 C27.9248097,0 28.467128,0.485008333 28.467128,1.08333333 L28.467128,8.66666667 L36.9446367,8.66666667 C37.613391,8.66666667 38.1557093,9.151675 38.1557093,9.75 C38.1557093,10.348325 37.613391,10.8333333 36.9446367,10.8333333 Z M41.7889273,52 L9.21107266,52 C8.54219723,52 8,51.5148833 8,50.9166667 L8,46.5833333 C8,45.9851167 8.54219723,45.5 9.21107266,45.5 C9.8799481,45.5 10.4221453,45.9851167 10.4221453,46.5833333 L10.4221453,49.8333333 L40.5778547,49.8333333 L40.5778547,14.0833333 L36.9446367,14.0833333 C36.2758824,14.0833333 35.733564,13.598325 35.733564,13 C35.733564,12.401675 36.2758824,11.9166667 36.9446367,11.9166667 L41.7889273,11.9166667 C42.4576817,11.9166667 43,12.401675 43,13 L43,50.9166667 C43,51.5148833 42.4576817,52 41.7889273,52 Z" id="Shape" fill="#418CFE"></path>
            <path d="M31.7391304,40 L5.26086957,40 C4.5644913,40 4,39.5114909 4,38.9090909 C4,38.3066909 4.5644913,37.8181818 5.26086957,37.8181818 L31.7391304,37.8181818 C32.4353826,37.8181818 33,38.3066909 33,38.9090909 C33,39.5114909 32.4353826,40 31.7391304,40 Z M31.7391304,35.6363636 L5.26086957,35.6363636 C4.5644913,35.6363636 4,35.1478545 4,34.5454545 C4,33.9430545 4.5644913,33.4545455 5.26086957,33.4545455 L31.7391304,33.4545455 C32.4353826,33.4545455 33,33.9430545 33,34.5454545 C33,35.1478545 32.4353826,35.6363636 31.7391304,35.6363636 Z M31.7391304,31.2727273 L5.26086957,31.2727273 C4.5644913,31.2727273 4,30.7842182 4,30.1818182 C4,29.5794182 4.5644913,29.0909091 5.26086957,29.0909091 L31.7391304,29.0909091 C32.4353826,29.0909091 33,29.5794182 33,30.1818182 C33,30.7842182 32.4353826,31.2727273 31.7391304,31.2727273 Z M31.7391304,26.9090909 L5.26086957,26.9090909 C4.5644913,26.9090909 4,26.4206909 4,25.8181818 C4,25.2156727 4.5644913,24.7272727 5.26086957,24.7272727 L31.7391304,24.7272727 C32.4353826,24.7272727 33,25.2156727 33,25.8181818 C33,26.4206909 32.4353826,26.9090909 31.7391304,26.9090909 Z M31.7391304,22.5454545 L5.26086957,22.5454545 C4.5644913,22.5454545 4,22.0570545 4,21.4545455 C4,20.8520364 4.5644913,20.3636364 5.26086957,20.3636364 L31.7391304,20.3636364 C32.4353826,20.3636364 33,20.8520364 33,21.4545455 C33,22.0570545 32.4353826,22.5454545 31.7391304,22.5454545 Z M16.6086957,18.1818182 L5.26086957,18.1818182 C4.5644913,18.1818182 4,17.6934182 4,17.0909091 C4,16.4884 4.5644913,16 5.26086957,16 L16.6086957,16 C17.3050739,16 17.8695652,16.4884 17.8695652,17.0909091 C17.8695652,17.6934182 17.3050739,18.1818182 16.6086957,18.1818182 Z" id="Shape" fill="#418CFE"></path>
        </g>
        <g id="documents-copy-9" transform="translate(585.000000, 368.000000)" fill-rule="nonzero">
            <path d="M42,13 L42,51 L9,51 L9,46.6571429 C9.01079554,46.6442229 37.0787063,13.0171543 37.0929368,13 L42,13 Z" id="Path" fill="#A4C2F7"></path>
            <path d="M38,47 C36.8690759,47 1.69483448,47 1,47 C1,44.1492048 1,2.90330476 1,1 L27.7931034,1 L30.5575138,7.0968619 L38,9.76190476 C38,11.4015857 38,45.1373286 38,47 Z" id="Path" fill="#FFFFFF"></path>
            <polygon id="Path" fill="#A4C2F7" points="38 10 28 10 28 1"></polygon>
            <path d="M36.7741935,47 L1.22580645,47 C0.548793548,47 0,46.5216682 0,45.9318182 L0,1.06818182 C0,0.478225 0.548793548,0 1.22580645,0 L26.9677419,0 C27.2928258,0 27.6045484,0.112586364 27.8345097,0.312870455 L37.6409613,8.858325 C37.8708,9.05860909 38,9.33035455 38,9.61363636 L38,45.9318182 C38,46.5216682 37.4510839,47 36.7741935,47 Z M2.4516129,44.8636364 L35.5483871,44.8636364 L35.5483871,10.0560773 L26.4598903,2.13636364 L2.4516129,2.13636364 L2.4516129,44.8636364 Z" id="Shape" fill="#418CFE"></path>
            <path d="M36.9446367,10.8333333 L27.2560554,10.8333333 C26.587301,10.8333333 26.0449827,10.348325 26.0449827,9.75 L26.0449827,1.08333333 C26.0449827,0.485008333 26.587301,0 27.2560554,0 C27.9248097,0 28.467128,0.485008333 28.467128,1.08333333 L28.467128,8.66666667 L36.9446367,8.66666667 C37.613391,8.66666667 38.1557093,9.151675 38.1557093,9.75 C38.1557093,10.348325 37.613391,10.8333333 36.9446367,10.8333333 Z M41.7889273,52 L9.21107266,52 C8.54219723,52 8,51.5148833 8,50.9166667 L8,46.5833333 C8,45.9851167 8.54219723,45.5 9.21107266,45.5 C9.8799481,45.5 10.4221453,45.9851167 10.4221453,46.5833333 L10.4221453,49.8333333 L40.5778547,49.8333333 L40.5778547,14.0833333 L36.9446367,14.0833333 C36.2758824,14.0833333 35.733564,13.598325 35.733564,13 C35.733564,12.401675 36.2758824,11.9166667 36.9446367,11.9166667 L41.7889273,11.9166667 C42.4576817,11.9166667 43,12.401675 43,13 L43,50.9166667 C43,51.5148833 42.4576817,52 41.7889273,52 Z" id="Shape" fill="#418CFE"></path>
            <path d="M31.7391304,40 L5.26086957,40 C4.5644913,40 4,39.5114909 4,38.9090909 C4,38.3066909 4.5644913,37.8181818 5.26086957,37.8181818 L31.7391304,37.8181818 C32.4353826,37.8181818 33,38.3066909 33,38.9090909 C33,39.5114909 32.4353826,40 31.7391304,40 Z M31.7391304,35.6363636 L5.26086957,35.6363636 C4.5644913,35.6363636 4,35.1478545 4,34.5454545 C4,33.9430545 4.5644913,33.4545455 5.26086957,33.4545455 L31.7391304,33.4545455 C32.4353826,33.4545455 33,33.9430545 33,34.5454545 C33,35.1478545 32.4353826,35.6363636 31.7391304,35.6363636 Z M31.7391304,31.2727273 L5.26086957,31.2727273 C4.5644913,31.2727273 4,30.7842182 4,30.1818182 C4,29.5794182 4.5644913,29.0909091 5.26086957,29.0909091 L31.7391304,29.0909091 C32.4353826,29.0909091 33,29.5794182 33,30.1818182 C33,30.7842182 32.4353826,31.2727273 31.7391304,31.2727273 Z M31.7391304,26.9090909 L5.26086957,26.9090909 C4.5644913,26.9090909 4,26.4206909 4,25.8181818 C4,25.2156727 4.5644913,24.7272727 5.26086957,24.7272727 L31.7391304,24.7272727 C32.4353826,24.7272727 33,25.2156727 33,25.8181818 C33,26.4206909 32.4353826,26.9090909 31.7391304,26.9090909 Z M31.7391304,22.5454545 L5.26086957,22.5454545 C4.5644913,22.5454545 4,22.0570545 4,21.4545455 C4,20.8520364 4.5644913,20.3636364 5.26086957,20.3636364 L31.7391304,20.3636364 C32.4353826,20.3636364 33,20.8520364 33,21.4545455 C33,22.0570545 32.4353826,22.5454545 31.7391304,22.5454545 Z M16.6086957,18.1818182 L5.26086957,18.1818182 C4.5644913,18.1818182 4,17.6934182 4,17.0909091 C4,16.4884 4.5644913,16 5.26086957,16 L16.6086957,16 C17.3050739,16 17.8695652,16.4884 17.8695652,17.0909091 C17.8695652,17.6934182 17.3050739,18.1818182 16.6086957,18.1818182 Z" id="Shape" fill="#418CFE"></path>
        </g>
        <g id="documents-copy-11" transform="translate(585.000000, 256.000000)" fill-rule="nonzero">
            <path d="M42,13 L42,51 L9,51 L9,46.6571429 C9.01079554,46.6442229 37.0787063,13.0171543 37.0929368,13 L42,13 Z" id="Path" fill="#A4C2F7"></path>
            <path d="M38,47 C36.8690759,47 1.69483448,47 1,47 C1,44.1492048 1,2.90330476 1,1 L27.7931034,1 L30.5575138,7.0968619 L38,9.76190476 C38,11.4015857 38,45.1373286 38,47 Z" id="Path" fill="#FFFFFF"></path>
            <polygon id="Path" fill="#A4C2F7" points="38 10 28 10 28 1"></polygon>
            <path d="M36.7741935,47 L1.22580645,47 C0.548793548,47 0,46.5216682 0,45.9318182 L0,1.06818182 C0,0.478225 0.548793548,0 1.22580645,0 L26.9677419,0 C27.2928258,0 27.6045484,0.112586364 27.8345097,0.312870455 L37.6409613,8.858325 C37.8708,9.05860909 38,9.33035455 38,9.61363636 L38,45.9318182 C38,46.5216682 37.4510839,47 36.7741935,47 Z M2.4516129,44.8636364 L35.5483871,44.8636364 L35.5483871,10.0560773 L26.4598903,2.13636364 L2.4516129,2.13636364 L2.4516129,44.8636364 Z" id="Shape" fill="#418CFE"></path>
            <path d="M36.9446367,10.8333333 L27.2560554,10.8333333 C26.587301,10.8333333 26.0449827,10.348325 26.0449827,9.75 L26.0449827,1.08333333 C26.0449827,0.485008333 26.587301,0 27.2560554,0 C27.9248097,0 28.467128,0.485008333 28.467128,1.08333333 L28.467128,8.66666667 L36.9446367,8.66666667 C37.613391,8.66666667 38.1557093,9.151675 38.1557093,9.75 C38.1557093,10.348325 37.613391,10.8333333 36.9446367,10.8333333 Z M41.7889273,52 L9.21107266,52 C8.54219723,52 8,51.5148833 8,50.9166667 L8,46.5833333 C8,45.9851167 8.54219723,45.5 9.21107266,45.5 C9.8799481,45.5 10.4221453,45.9851167 10.4221453,46.5833333 L10.4221453,49.8333333 L40.5778547,49.8333333 L40.5778547,14.0833333 L36.9446367,14.0833333 C36.2758824,14.0833333 35.733564,13.598325 35.733564,13 C35.733564,12.401675 36.2758824,11.9166667 36.9446367,11.9166667 L41.7889273,11.9166667 C42.4576817,11.9166667 43,12.401675 43,13 L43,50.9166667 C43,51.5148833 42.4576817,52 41.7889273,52 Z" id="Shape" fill="#418CFE"></path>
            <path d="M31.7391304,40 L5.26086957,40 C4.5644913,40 4,39.5114909 4,38.9090909 C4,38.3066909 4.5644913,37.8181818 5.26086957,37.8181818 L31.7391304,37.8181818 C32.4353826,37.8181818 33,38.3066909 33,38.9090909 C33,39.5114909 32.4353826,40 31.7391304,40 Z M31.7391304,35.6363636 L5.26086957,35.6363636 C4.5644913,35.6363636 4,35.1478545 4,34.5454545 C4,33.9430545 4.5644913,33.4545455 5.26086957,33.4545455 L31.7391304,33.4545455 C32.4353826,33.4545455 33,33.9430545 33,34.5454545 C33,35.1478545 32.4353826,35.6363636 31.7391304,35.6363636 Z M31.7391304,31.2727273 L5.26086957,31.2727273 C4.5644913,31.2727273 4,30.7842182 4,30.1818182 C4,29.5794182 4.5644913,29.0909091 5.26086957,29.0909091 L31.7391304,29.0909091 C32.4353826,29.0909091 33,29.5794182 33,30.1818182 C33,30.7842182 32.4353826,31.2727273 31.7391304,31.2727273 Z M31.7391304,26.9090909 L5.26086957,26.9090909 C4.5644913,26.9090909 4,26.4206909 4,25.8181818 C4,25.2156727 4.5644913,24.7272727 5.26086957,24.7272727 L31.7391304,24.7272727 C32.4353826,24.7272727 33,25.2156727 33,25.8181818 C33,26.4206909 32.4353826,26.9090909 31.7391304,26.9090909 Z M31.7391304,22.5454545 L5.26086957,22.5454545 C4.5644913,22.5454545 4,22.0570545 4,21.4545455 C4,20.8520364 4.5644913,20.3636364 5.26086957,20.3636364 L31.7391304,20.3636364 C32.4353826,20.3636364 33,20.8520364 33,21.4545455 C33,22.0570545 32.4353826,22.5454545 31.7391304,22.5454545 Z M16.6086957,18.1818182 L5.26086957,18.1818182 C4.5644913,18.1818182 4,17.6934182 4,17.0909091 C4,16.4884 4.5644913,16 5.26086957,16 L16.6086957,16 C17.3050739,16 17.8695652,16.4884 17.8695652,17.0909091 C17.8695652,17.6934182 17.3050739,18.1818182 16.6086957,18.1818182 Z" id="Shape" fill="#418CFE"></path>
        </g>
        <g id="documents-copy-8" transform="translate(395.000000, 368.000000)" fill-rule="nonzero">
            <path d="M42,13 L42,51 L9,51 L9,46.6571429 C9.01079554,46.6442229 37.0787063,13.0171543 37.0929368,13 L42,13 Z" id="Path" fill="#A4C2F7"></path>
            <path d="M38,47 C36.8690759,47 1.69483448,47 1,47 C1,44.1492048 1,2.90330476 1,1 L27.7931034,1 L30.5575138,7.0968619 L38,9.76190476 C38,11.4015857 38,45.1373286 38,47 Z" id="Path" fill="#FFFFFF"></path>
            <polygon id="Path" fill="#A4C2F7" points="38 10 28 10 28 1"></polygon>
            <path d="M36.7741935,47 L1.22580645,47 C0.548793548,47 0,46.5216682 0,45.9318182 L0,1.06818182 C0,0.478225 0.548793548,0 1.22580645,0 L26.9677419,0 C27.2928258,0 27.6045484,0.112586364 27.8345097,0.312870455 L37.6409613,8.858325 C37.8708,9.05860909 38,9.33035455 38,9.61363636 L38,45.9318182 C38,46.5216682 37.4510839,47 36.7741935,47 Z M2.4516129,44.8636364 L35.5483871,44.8636364 L35.5483871,10.0560773 L26.4598903,2.13636364 L2.4516129,2.13636364 L2.4516129,44.8636364 Z" id="Shape" fill="#418CFE"></path>
            <path d="M36.9446367,10.8333333 L27.2560554,10.8333333 C26.587301,10.8333333 26.0449827,10.348325 26.0449827,9.75 L26.0449827,1.08333333 C26.0449827,0.485008333 26.587301,0 27.2560554,0 C27.9248097,0 28.467128,0.485008333 28.467128,1.08333333 L28.467128,8.66666667 L36.9446367,8.66666667 C37.613391,8.66666667 38.1557093,9.151675 38.1557093,9.75 C38.1557093,10.348325 37.613391,10.8333333 36.9446367,10.8333333 Z M41.7889273,52 L9.21107266,52 C8.54219723,52 8,51.5148833 8,50.9166667 L8,46.5833333 C8,45.9851167 8.54219723,45.5 9.21107266,45.5 C9.8799481,45.5 10.4221453,45.9851167 10.4221453,46.5833333 L10.4221453,49.8333333 L40.5778547,49.8333333 L40.5778547,14.0833333 L36.9446367,14.0833333 C36.2758824,14.0833333 35.733564,13.598325 35.733564,13 C35.733564,12.401675 36.2758824,11.9166667 36.9446367,11.9166667 L41.7889273,11.9166667 C42.4576817,11.9166667 43,12.401675 43,13 L43,50.9166667 C43,51.5148833 42.4576817,52 41.7889273,52 Z" id="Shape" fill="#418CFE"></path>
            <path d="M31.7391304,40 L5.26086957,40 C4.5644913,40 4,39.5114909 4,38.9090909 C4,38.3066909 4.5644913,37.8181818 5.26086957,37.8181818 L31.7391304,37.8181818 C32.4353826,37.8181818 33,38.3066909 33,38.9090909 C33,39.5114909 32.4353826,40 31.7391304,40 Z M31.7391304,35.6363636 L5.26086957,35.6363636 C4.5644913,35.6363636 4,35.1478545 4,34.5454545 C4,33.9430545 4.5644913,33.4545455 5.26086957,33.4545455 L31.7391304,33.4545455 C32.4353826,33.4545455 33,33.9430545 33,34.5454545 C33,35.1478545 32.4353826,35.6363636 31.7391304,35.6363636 Z M31.7391304,31.2727273 L5.26086957,31.2727273 C4.5644913,31.2727273 4,30.7842182 4,30.1818182 C4,29.5794182 4.5644913,29.0909091 5.26086957,29.0909091 L31.7391304,29.0909091 C32.4353826,29.0909091 33,29.5794182 33,30.1818182 C33,30.7842182 32.4353826,31.2727273 31.7391304,31.2727273 Z M31.7391304,26.9090909 L5.26086957,26.9090909 C4.5644913,26.9090909 4,26.4206909 4,25.8181818 C4,25.2156727 4.5644913,24.7272727 5.26086957,24.7272727 L31.7391304,24.7272727 C32.4353826,24.7272727 33,25.2156727 33,25.8181818 C33,26.4206909 32.4353826,26.9090909 31.7391304,26.9090909 Z M31.7391304,22.5454545 L5.26086957,22.5454545 C4.5644913,22.5454545 4,22.0570545 4,21.4545455 C4,20.8520364 4.5644913,20.3636364 5.26086957,20.3636364 L31.7391304,20.3636364 C32.4353826,20.3636364 33,20.8520364 33,21.4545455 C33,22.0570545 32.4353826,22.5454545 31.7391304,22.5454545 Z M16.6086957,18.1818182 L5.26086957,18.1818182 C4.5644913,18.1818182 4,17.6934182 4,17.0909091 C4,16.4884 4.5644913,16 5.26086957,16 L16.6086957,16 C17.3050739,16 17.8695652,16.4884 17.8695652,17.0909091 C17.8695652,17.6934182 17.3050739,18.1818182 16.6086957,18.1818182 Z" id="Shape" fill="#418CFE"></path>
        </g>
        <g id="documents-copy-12" transform="translate(395.000000, 256.000000)" fill-rule="nonzero">
            <path d="M42,13 L42,51 L9,51 L9,46.6571429 C9.01079554,46.6442229 37.0787063,13.0171543 37.0929368,13 L42,13 Z" id="Path" fill="#A4C2F7"></path>
            <path d="M38,47 C36.8690759,47 1.69483448,47 1,47 C1,44.1492048 1,2.90330476 1,1 L27.7931034,1 L30.5575138,7.0968619 L38,9.76190476 C38,11.4015857 38,45.1373286 38,47 Z" id="Path" fill="#FFFFFF"></path>
            <polygon id="Path" fill="#A4C2F7" points="38 10 28 10 28 1"></polygon>
            <path d="M36.7741935,47 L1.22580645,47 C0.548793548,47 0,46.5216682 0,45.9318182 L0,1.06818182 C0,0.478225 0.548793548,0 1.22580645,0 L26.9677419,0 C27.2928258,0 27.6045484,0.112586364 27.8345097,0.312870455 L37.6409613,8.858325 C37.8708,9.05860909 38,9.33035455 38,9.61363636 L38,45.9318182 C38,46.5216682 37.4510839,47 36.7741935,47 Z M2.4516129,44.8636364 L35.5483871,44.8636364 L35.5483871,10.0560773 L26.4598903,2.13636364 L2.4516129,2.13636364 L2.4516129,44.8636364 Z" id="Shape" fill="#418CFE"></path>
            <path d="M36.9446367,10.8333333 L27.2560554,10.8333333 C26.587301,10.8333333 26.0449827,10.348325 26.0449827,9.75 L26.0449827,1.08333333 C26.0449827,0.485008333 26.587301,0 27.2560554,0 C27.9248097,0 28.467128,0.485008333 28.467128,1.08333333 L28.467128,8.66666667 L36.9446367,8.66666667 C37.613391,8.66666667 38.1557093,9.151675 38.1557093,9.75 C38.1557093,10.348325 37.613391,10.8333333 36.9446367,10.8333333 Z M41.7889273,52 L9.21107266,52 C8.54219723,52 8,51.5148833 8,50.9166667 L8,46.5833333 C8,45.9851167 8.54219723,45.5 9.21107266,45.5 C9.8799481,45.5 10.4221453,45.9851167 10.4221453,46.5833333 L10.4221453,49.8333333 L40.5778547,49.8333333 L40.5778547,14.0833333 L36.9446367,14.0833333 C36.2758824,14.0833333 35.733564,13.598325 35.733564,13 C35.733564,12.401675 36.2758824,11.9166667 36.9446367,11.9166667 L41.7889273,11.9166667 C42.4576817,11.9166667 43,12.401675 43,13 L43,50.9166667 C43,51.5148833 42.4576817,52 41.7889273,52 Z" id="Shape" fill="#418CFE"></path>
            <path d="M31.7391304,40 L5.26086957,40 C4.5644913,40 4,39.5114909 4,38.9090909 C4,38.3066909 4.5644913,37.8181818 5.26086957,37.8181818 L31.7391304,37.8181818 C32.4353826,37.8181818 33,38.3066909 33,38.9090909 C33,39.5114909 32.4353826,40 31.7391304,40 Z M31.7391304,35.6363636 L5.26086957,35.6363636 C4.5644913,35.6363636 4,35.1478545 4,34.5454545 C4,33.9430545 4.5644913,33.4545455 5.26086957,33.4545455 L31.7391304,33.4545455 C32.4353826,33.4545455 33,33.9430545 33,34.5454545 C33,35.1478545 32.4353826,35.6363636 31.7391304,35.6363636 Z M31.7391304,31.2727273 L5.26086957,31.2727273 C4.5644913,31.2727273 4,30.7842182 4,30.1818182 C4,29.5794182 4.5644913,29.0909091 5.26086957,29.0909091 L31.7391304,29.0909091 C32.4353826,29.0909091 33,29.5794182 33,30.1818182 C33,30.7842182 32.4353826,31.2727273 31.7391304,31.2727273 Z M31.7391304,26.9090909 L5.26086957,26.9090909 C4.5644913,26.9090909 4,26.4206909 4,25.8181818 C4,25.2156727 4.5644913,24.7272727 5.26086957,24.7272727 L31.7391304,24.7272727 C32.4353826,24.7272727 33,25.2156727 33,25.8181818 C33,26.4206909 32.4353826,26.9090909 31.7391304,26.9090909 Z M31.7391304,22.5454545 L5.26086957,22.5454545 C4.5644913,22.5454545 4,22.0570545 4,21.4545455 C4,20.8520364 4.5644913,20.3636364 5.26086957,20.3636364 L31.7391304,20.3636364 C32.4353826,20.3636364 33,20.8520364 33,21.4545455 C33,22.0570545 32.4353826,22.5454545 31.7391304,22.5454545 Z M16.6086957,18.1818182 L5.26086957,18.1818182 C4.5644913,18.1818182 4,17.6934182 4,17.0909091 C4,16.4884 4.5644913,16 5.26086957,16 L16.6086957,16 C17.3050739,16 17.8695652,16.4884 17.8695652,17.0909091 C17.8695652,17.6934182 17.3050739,18.1818182 16.6086957,18.1818182 Z" id="Shape" fill="#418CFE"></path>
        </g>
        <text id="Commit" font-family="Helvetica-Bold, Helvetica" font-size="21" font-weight="bold" fill="#0055C2">
            <tspan x="235" y="328">Commit</tspan>
        </text>
        <text id="Repository" font-family="Helvetica-Bold, Helvetica" font-size="21" font-weight="bold" fill="#0055C2">
            <tspan x="38" y="383">Repository</tspan>
        </text>
        <text id="Commit" font-family="Helvetica-Bold, Helvetica" font-size="21" font-weight="bold" fill="#0055C2">
            <tspan x="425" y="328">Commit</tspan>
        </text>
        <text id="Commit" font-family="Helvetica-Bold, Helvetica" font-size="21" font-weight="bold" fill="#0055C2">
            <tspan x="615" y="328">Commit</tspan>
        </text>
        <text id="Built-main-structure" font-family="Helvetica" font-size="21" font-weight="normal" fill="#0055C2">
            <tspan x="179.898438" y="168">Built main </tspan>
            <tspan x="173.479492" y="193">structure of </tspan>
            <tspan x="176.376221" y="218">homepage</tspan>
        </text>
        <text id="Key-Edits" font-family="Helvetica" font-size="21" font-weight="normal" fill="#0055C2">
            <tspan x="25" y="168">Key Edits</tspan>
        </text>
        <text id="Working-Files-(Worki" font-family="Helvetica" font-size="21" font-weight="normal" fill="#0055C2">
            <tspan x="25" y="275">Working Files </tspan>
            <tspan x="25" y="300">(Working Tree)</tspan>
        </text>
        <text id="Completed-landing-pa" font-family="Helvetica" font-size="21" font-weight="normal" fill="#0055C2">
            <tspan x="366.222656" y="168">Completed </tspan>
            <tspan x="353.943604" y="193"> landing page </tspan>
            <tspan x="386.058838" y="218">design</tspan>
        </text>
        <text id="Created-contact-form" font-family="Helvetica" font-size="21" font-weight="normal" fill="#0055C2">
            <tspan x="569.64502" y="168">Created </tspan>
            <tspan x="543.979492" y="193">contact forms</tspan>
        </text>
        <text id="…" font-family="Helvetica" font-size="21" font-weight="normal" fill="#0055C2">
            <tspan x="696" y="168">…</tspan>
        </text>
        <text id="…" font-family="Helvetica" font-size="21" font-weight="normal" fill="#0055C2">
            <tspan x="696" y="118">…</tspan>
        </text>
        <text id="…-copy" font-family="Helvetica" font-size="21" font-weight="normal" fill="#0055C2">
            <tspan x="696" y="249">…</tspan>
        </text>
        <text id="Day-1" font-family="Helvetica-Bold, Helvetica" font-size="21" font-weight="bold" fill="#0055C2">
            <tspan x="195.981201" y="118">Day 1</tspan>
        </text>
        <text id="Day-2" font-family="Helvetica-Bold, Helvetica" font-size="21" font-weight="bold" fill="#0055C2">
            <tspan x="388.981201" y="118">Day 2</tspan>
        </text>
        <text id="Day-3" font-family="Helvetica-Bold, Helvetica" font-size="21" font-weight="bold" fill="#0055C2">
            <tspan x="578.981201" y="118">Day 3</tspan>
        </text>
        <g id="bloovee-winner-logo" transform="translate(725.000000, 580.000000)">
            <path d="M13,13.7751507 C13,14.396312 13.4732558,14.8717809 14.0514961,14.8717809 C14.6474304,14.8717809 15.1204503,14.3968042 15.1204503,13.7751507 L15.1204503,2.09687626 C15.1204503,1.49368045 14.6474304,1 14.0514961,1 C13.4557977,1 13,1.49392656 13,2.09687626 L13,13.7751507 Z M21.7920364,15 C24.6483217,15 26.751078,12.7149437 26.751078,9.97312215 L26.751078,9.93645297 C26.751078,7.17641992 24.6657798,4.92778666 21.8269526,4.92778666 C18.9881254,4.92778666 16.885369,7.212843 16.885369,9.97312215 L16.885369,10.0095452 C16.885369,12.7516128 18.9706673,15 21.7920364,15 Z M21.8269526,13.0621935 C20.179994,13.0621935 19.0055834,11.6547366 19.0055834,9.97312215 L19.0055834,9.93645297 C19.0055834,8.25459244 20.0919958,6.86534709 21.7920364,6.86534709 C23.456689,6.86534709 24.6306277,8.27305008 24.6306277,9.97312215 L24.6306277,10.0095452 C24.6306277,11.6731942 23.5444513,13.0621935 21.8269526,13.0621935 Z M32.8092717,15 C35.665557,15 37.7683133,12.7149437 37.7683133,9.97312215 L37.7683133,9.93645297 C37.7683133,7.17641992 35.6830151,4.92778666 32.8441878,4.92778666 C30.0053606,4.92778666 27.9026043,7.212843 27.9026043,9.97312215 L27.9026043,10.0095452 C27.9026043,12.7516128 29.9879025,15 32.8092717,15 Z M32.8441878,13.0621935 C31.1969933,13.0621935 30.0228187,11.6547366 30.0228187,9.97312215 L30.0228187,9.93645297 C30.0228187,8.25459244 31.109231,6.86534709 32.8092717,6.86534709 C34.4739243,6.86534709 35.647863,8.27305008 35.647863,9.97312215 L35.647863,10.0095452 C35.647863,11.6731942 34.5614506,13.0621935 32.8441878,13.0621935 Z M44.1416963,13.9944275 L47.2261164,6.6096472 C47.2784906,6.49988574 47.3487948,6.28060893 47.3487948,6.07954366 C47.3487948,5.47610175 46.8929971,5.01933658 46.3147568,5.01933658 C45.7539746,5.01933658 45.4737015,5.40300947 45.3158709,5.78692847 L42.8976893,12.2215093 L40.5144239,5.82335156 C40.3393711,5.36634029 40.041404,5.01933658 39.4629278,5.01933658 C38.8846875,5.01933658 38.4116676,5.53098247 38.4116676,6.07954366 C38.4116676,6.28060893 38.4817358,6.46346265 38.534346,6.62785874 L41.6182943,13.9944275 C41.8638872,14.5796579 42.2491448,14.9633308 42.8273851,14.9633308 L42.9326055,14.9633308 C43.5108458,14.9633308 43.8965752,14.5612003 44.1416963,13.9944275 Z M50.0949054,9.27837643 C50.2876522,7.77961573 51.1987758,6.73762019 52.4956289,6.73762019 C53.8974665,6.73762019 54.7036056,7.8524619 54.8437422,9.27837643 L50.0949054,9.27837643 Z M56.070527,13.72027 C56.2281217,13.5558739 56.3508002,13.3181395 56.3508002,13.0439819 C56.3508002,12.5320899 55.9830006,12.1481709 55.5095089,12.1481709 C55.2641519,12.1481709 55.1242513,12.2215093 54.9664207,12.3492362 C54.3704864,12.8611282 53.6695676,13.1901665 52.7759021,13.1901665 C51.4089807,13.1901665 50.3402624,12.3128131 50.1123635,10.7409601 L55.9126964,10.7409601 C56.4560206,10.7409601 56.9115824,10.3021604 56.9115824,9.68050697 C56.9115824,7.45057746 55.4568987,4.92778666 52.513087,4.92778666 C49.8672425,4.92778666 47.9919132,7.19438536 47.9919132,9.95466451 L47.9919132,9.9913337 C47.9919132,12.9708897 50.0597533,15 52.7409859,15 C54.1779755,15 55.2292357,14.5063195 56.070527,13.72027 Z M60.1833231,9.27837643 C60.3763058,7.77961573 61.2871935,6.73762019 62.5842825,6.73762019 C63.9858841,6.73762019 64.7920233,7.8524619 64.9321598,9.27837643 L60.1833231,9.27837643 Z M66.1589447,13.72027 C66.3167752,13.5558739 66.4394537,13.3181395 66.4394537,13.0439819 C66.4394537,12.5320899 66.0714183,12.1481709 65.5981624,12.1481709 C65.3528055,12.1481709 65.2126689,12.2215093 65.0548383,12.3492362 C64.4591399,12.8611282 63.7582212,13.1901665 62.8643197,13.1901665 C61.4976342,13.1901665 60.4289159,12.3128131 60.2007812,10.7409601 L66.0011141,10.7409601 C66.5444382,10.7409601 67,10.3021604 67,9.68050697 C67,7.45057746 65.5455522,4.92778666 62.6015046,4.92778666 C59.9556601,4.92778666 58.0805667,7.19438536 58.0805667,9.95466451 L58.0805667,9.9913337 C58.0805667,12.9708897 60.1484069,15 62.8294035,15 C64.2663932,15 65.3178893,14.5063195 66.1589447,13.72027 L66.1589447,13.72027 Z" id="Fill-1" fill="#030060"></path>
            <g id="Group-4">
                <mask id="mask-2" fill="white">
                    <use xlink:href="#path-1"></use>
                </mask>
                <g id="Clip-3"></g>
                <path d="M8.68744595,14.5405413 C10.6544909,13.5649687 12,11.5915112 12,9.31636202 C12,6.07252388 9.26504479,3.44227578 5.89152197,3.44227578 C4.52034181,3.44227578 3.25480793,3.87689217 2.23537065,4.61058921 L2.23537065,1.05770107 C2.23537065,0.476155373 1.74046224,0 1.11695169,0 C0.493934821,0 0.0167986821,0.476630104 0.0167986821,1.05770107 L0.0167986821,1.80184219 L0,9.32158406 C-0.0041824725,11.2003327 0.951817666,12.865215 2.41753644,13.8939574 C2.4777647,13.9362085 2.55848043,13.9312238 2.6127846,13.8823265 C2.66758244,13.8334292 2.6779496,13.7558106 2.63746831,13.6950451 C0.724974359,10.8146136 1.16014819,5.53963813 5.89176881,5.53963813 C8.05899866,5.53963813 9.80709909,7.22944376 9.81623206,9.31351363 C9.82240299,10.8599505 9.11620201,12.0365717 8.19549958,12.7781018 C6.36026565,14.2561773 3.64974731,12.6382934 4.49738595,10.4697214 C4.5894562,10.2335427 4.71879884,9.9959397 4.88664808,9.76189723 L5.12361171,9.47705853 C5.19766284,9.39967734 5.25048599,9.29903433 5.2146946,9.19411874 C5.01401603,8.62800181 3.46832203,8.97526767 3.04005964,10.0315445 C3.34292878,9.79631524 3.65986763,9.66433998 3.96940137,9.71489885 C2.38890334,11.275815 3.44141679,13.9563846 5.46005069,14.7513219 C6.40494316,15.1232738 7.55964718,15.0976383 8.68744595,14.5405413" id="Fill-2" fill="url(#linearGradient-3)" mask="url(#mask-2)"></path>
            </g>
        </g>
        <rect id="Rectangle-Copy" stroke="#006AE1" x="29.5" y="340.5" width="728" height="107"></rect>
        <g id="git" transform="translate(704.000000, 9.000000)">
            <path d="M46.8658496,11.2380575 C45.1623498,11.2380575 43.8939053,12.0891281 43.8939053,14.1376499 C43.8939053,15.6808485 44.7297841,16.7522856 46.7743573,16.7522856 C48.5071097,16.7522856 49.6846843,15.7131436 49.6846843,14.073693 C49.6846843,12.2157755 48.6309666,11.2380575 46.8658496,11.2380575 L46.8658496,11.2380575 Z M43.4607172,25.7011913 C43.0574041,26.2046147 42.6553359,26.7397 42.6553359,27.3710373 C42.6553359,28.6305458 44.2337339,29.0092215 46.4027864,29.0092215 C48.1984009,29.0092215 50.6450424,28.8813076 50.6450424,27.1823327 C50.6450424,26.1723196 49.4674678,26.1102624 47.9805621,26.0152768 L43.4607172,25.7011913 Z M52.6255087,11.3330431 C53.1825537,12.0580995 53.7719634,13.0662128 53.7719634,14.5156924 C53.7719634,18.0124273 51.0776081,20.0603158 47.1764255,20.0603158 C46.1843252,20.0603158 45.2862067,19.9349349 44.7291617,19.7772589 L43.7071863,21.4471049 L46.7413702,21.6351763 C52.0989611,21.9828234 55.257002,22.1404995 55.257002,26.3293624 C55.257002,29.9533779 52.1300809,32 46.7413702,32 C41.1360655,32 39,30.5505204 39,28.0625322 C39,26.6440812 39.6199071,25.8898959 40.7034998,24.848221 C39.680902,24.4087545 39.3410734,23.6216409 39.3410734,22.7705703 C39.3410734,22.0771758 39.6815244,21.4471049 40.2391918,20.8480627 C40.7968593,20.2502869 41.416144,19.6506115 42.1586633,18.9578502 C40.6412601,18.2017651 39.4960502,16.563581 39.4960502,14.231369 C39.4960502,10.6086199 41.8493321,8.12063165 46.5870158,8.12063165 C47.9189448,8.12063165 48.7249485,8.24537935 49.436348,8.43598369 L55.4754632,8.43598369 L55.4754632,11.1133099 L52.6255087,11.3330431 L52.6255087,11.3330431 Z M60.9233016,5.60858036 C59.1575621,5.60858036 58.1355867,4.56817192 58.1355867,2.77167847 C58.1355867,0.977717972 59.1575621,0 60.9233016,0 C62.7195385,0 63.7408917,0.977084735 63.7408917,2.77167847 C63.7415139,4.56817192 62.7195385,5.60858036 60.9233016,5.60858036 Z M56.9275147,24.5423675 L56.9275147,22.0543792 L58.50778,21.8340127 C58.9409681,21.770689 59.0025853,21.6763367 59.0025853,21.2026754 L59.0025853,11.9403174 C59.0025853,11.59457 58.9104706,11.372937 58.5998947,11.279218 L56.9275147,10.6801757 L57.2679657,8.12949697 L63.6792742,8.12949697 L63.6792742,21.2033087 C63.6792742,21.7086318 63.7091492,21.770689 64.174702,21.834646 L65.7543448,22.0550125 L65.7543448,24.5430008 L56.9275147,24.5430008 L56.9275147,24.5423675 Z M78,23.32022 C76.6674487,23.9806863 74.7174798,24.5803617 72.9511179,24.5803617 C69.2665294,24.5803617 67.8736056,23.0694582 67.8736056,19.5074999 L67.8736056,11.2532552 C67.8736056,11.0651838 67.8736056,10.9385364 67.6252693,10.9385364 L65.458084,10.9385364 L65.458084,8.13456287 C68.1841815,7.81857759 69.2671518,6.43242174 69.6076028,2.99837733 L72.5502944,2.99837733 L72.5502944,7.47346341 C72.5502944,7.69319666 72.5502944,7.78881545 72.7980083,7.78881545 L77.1641212,7.78881545 L77.1641212,10.9391697 L72.5502944,10.9391697 L72.5502944,18.4683579 C72.5502944,20.3269086 72.9841049,21.0513318 74.6558625,21.0513318 C75.5241059,21.0513318 76.4209796,20.8315985 77.1641212,20.5479083 L78,23.32022 L78,23.32022 Z" id="Shape" fill="#31251C" fill-rule="nonzero"></path>
            <path d="M32.3772539,15.0299695 L17.9690664,0.622277028 C17.140005,-0.207425676 15.7941261,-0.207425676 14.9644314,0.622277028 L11.9724635,3.61427365 L15.7668919,7.40937182 C16.6497884,7.11169223 17.6606226,7.31120089 18.3636464,8.01486479 C19.0704703,8.72232885 19.2687104,9.74203981 18.9634334,10.6274783 L22.6210571,14.2851371 C23.5052204,13.9804906 24.5268216,14.1774658 25.2336455,14.8849299 C26.221679,15.8723394 26.221679,17.4728423 25.2336455,18.4608852 C24.2449787,19.4489281 22.6451246,19.4489281 21.6570912,18.4608852 C20.914166,17.7173195 20.7304932,16.6260388 21.1067059,15.7108324 L17.6954571,12.2995509 L17.6948238,21.2768075 C17.9361319,21.3958793 18.1628729,21.5542195 18.3636464,21.7543616 C19.3516798,22.7417711 19.3516798,24.3416406 18.3636464,25.3309502 C17.375613,26.3183598 15.7744921,26.3183598 14.7877254,25.3309502 C13.799692,24.3416406 13.799692,22.7417711 14.7877254,21.7543616 C15.0322003,21.5105176 15.3140432,21.3262096 15.6155201,21.2027043 L15.6155201,12.1424774 C15.3140432,12.0196054 15.0322003,11.8359308 14.7877254,11.5908201 C14.0391001,10.842821 13.8592273,9.74520661 14.2430403,8.82620003 L10.5024471,5.08430417 L0.622746073,14.9634666 C-0.207582024,15.7938027 -0.207582024,17.1396945 0.622746073,17.9700305 L15.0309336,32.377723 C15.8606284,33.2074257 17.2058739,33.2074257 18.0368353,32.377723 L32.3772539,18.0359 C33.207582,17.2061973 33.207582,15.8596722 32.3772539,15.0299695 L32.3772539,15.0299695 Z" id="Path" fill="#F34F29" fill-rule="nonzero"></path>
            <polygon id="Path" points="1.12409637e-15 0 79 0 79 33 0 33"></polygon>
        </g>
        <rect id="Rectangle" fill="#DE4040" x="197" y="424" width="69" height="14" rx="2"></rect>
        <rect id="Rectangle" fill="#DE4040" x="387" y="424" width="69" height="14" rx="2"></rect>
        <path id="Line-2-Copy-17" d="M227,315.162162 L227,354.837 L231,354.837838 L226.5,363.837838 L222,354.837838 L226,354.837 L226,315.162162 L227,315.162162 Z" fill="#0055C2" fill-rule="nonzero"></path>
        <path id="Line-2-Copy-18" d="M417,315.162162 L417,354.837 L421,354.837838 L416.5,363.837838 L412,354.837838 L416,354.837 L416,315.162162 L417,315.162162 Z" fill="#0055C2" fill-rule="nonzero"></path>
        <path id="Line-2-Copy-19" d="M607,315.162162 L607,354.837 L611,354.837838 L606.5,363.837838 L602,354.837838 L606,354.837 L606,315.162162 L607,315.162162 Z" fill="#0055C2" fill-rule="nonzero"></path>
        <path id="Line-2-Copy-17" d="M750,130 L759,134.5 L750,139 L750,135 L125,135 L125,134 L750,134 L750,130 Z" fill="#0055C2" fill-rule="nonzero"></path>
        <text id="What-Is-Version-Cont" fill-rule="nonzero" font-family="Helvetica" font-size="18" font-weight="normal" fill="#0055C2">
            <tspan x="10" y="23">What Is Version Control?</tspan>
        </text>
        <text id="Committed-Copy" font-family="Helvetica" font-size="12" font-weight="normal" fill="#FFFFFF">
            <tspan x="393" y="435">Committed</tspan>
        </text>
        <text id="Committed-Copy-2" font-family="Helvetica" font-size="12" font-weight="normal" fill="#FFFFFF">
            <tspan x="201" y="435">Committed</tspan>
        </text>
        <rect id="Rectangle" fill="#DE4040" x="577" y="424" width="69" height="14" rx="2"></rect>
        <text id="Committed" font-family="Helvetica" font-size="12" font-weight="normal" fill="#FFFFFF">
            <tspan x="581" y="435">Committed</tspan>
        </text>
        <g id="Group" transform="translate(37.862069, 320.000000)" fill-rule="nonzero">
            <path d="M30.9469372,4.89777348 C29.7884422,1.6749274 22.6708391,0 15.6325849,0 C8.59433078,0 1.55607664,1.65905131 0.334102419,4.85014521 C0.209736357,5.03855897 0.143509209,5.25940368 0.143664877,5.48518877 L0.143664877,34.8003872 C0.136019754,34.8636613 0.136019754,34.9276262 0.143664877,34.9909003 C0.139823348,35.0464002 0.139823348,35.1020994 0.143664877,35.1575992 C0.143664877,38.9916747 7.93573428,41 15.6325849,41 C23.3294356,41 31.1056352,38.9916747 31.1056352,35.1575992 C31.1094735,35.1047486 31.1094735,35.051689 31.1056352,34.9988383 C31.1139332,34.9329484 31.1139332,34.8662772 31.1056352,34.8003872 L31.1056352,5.48518877 C31.1096864,5.2782659 31.0546317,5.07448284 30.9469372,4.89777348 Z" id="Path" fill="url(#linearGradient-4)"></path>
            <path d="M15.4985499,0.189655172 C25.5367396,0.189655172 30.9924816,3.15533023 30.9924816,4.67935769 C31.0025061,4.72678391 31.0025061,4.77609623 30.9924816,4.82352245 C30.6638224,6.38873984 25.1986901,9.18965517 15.4985499,9.18965517 C5.7984096,9.18965517 0.333277329,6.35784739 0.0046181718,4.82352245 C-0.0015393906,4.78606691 -0.0015393906,4.74770568 0.0046181718,4.71025014 C0.0046181718,3.15533023 5.46036018,0.189655172 15.4985499,0.189655172 Z" id="Path" fill="#7BB2FF"></path>
        </g>
        <text id="you-can-record,-trac" font-family="Helvetica" font-size="24" font-weight="normal" fill="#0055C2">
            <tspan x="148.03125" y="510">you can record, track and retrieve your codig histories</tspan>
        </text>
        <g id="Rectangle-Copy-48" transform="translate(701.500000, 372.000000) scale(-1, 1) rotate(270.000000) translate(-701.500000, -372.000000) ">
            <use fill="black" fill-opacity="1" filter="url(#filter-6)" xlink:href="#path-5"></use>
            <use stroke="#0055C2" stroke-width="0.5" fill="#FFFFFF" fill-rule="evenodd" xlink:href="#path-5"></use>
        </g>
        <text id="A-snapshot-of-a-set" font-family="Helvetica" font-size="18" font-weight="normal" fill="#0055C2">
            <tspan x="644" y="357">A snapshot of a </tspan>
            <tspan x="644" y="379">set of project </tspan>
            <tspan x="644" y="401">files (a version)</tspan>
        </text>
    </g>
</svg>