<svg width="800" height="600" viewBox="0 0 800 600" fill="none" xmlns="http://www.w3.org/2000/svg">
<rect width="800" height="600" fill="url(#paint0_linear_5176_12019)"/>
<g filter="url(#filter0_d_5176_12019)">
<path d="M300.109 284.422H312.336L296.125 342H284.641L277.688 308.328L275.656 297.195L273.625 308.328L266.672 342H255.5L239.172 284.422H251.945L259.562 317.391L261.203 326.57L262.883 317.586L269.367 284.422H282.062L288.898 317.391L290.656 326.57L292.414 317.742L300.109 284.422ZM353.781 329.5C353.495 332.026 352.18 334.591 349.836 337.195C346.19 341.336 341.086 343.406 334.523 343.406C329.107 343.406 324.328 341.661 320.188 338.172C316.047 334.682 313.977 329.005 313.977 321.141C313.977 313.771 315.839 308.12 319.562 304.188C323.312 300.255 328.169 298.289 334.133 298.289C337.674 298.289 340.865 298.953 343.703 300.281C346.542 301.609 348.885 303.706 350.734 306.57C352.401 309.096 353.482 312.026 353.977 315.359C354.263 317.312 354.38 320.125 354.328 323.797H325.188C325.344 328.068 326.685 331.062 329.211 332.781C330.747 333.849 332.596 334.383 334.758 334.383C337.049 334.383 338.911 333.732 340.344 332.43C341.125 331.727 341.815 330.75 342.414 329.5H353.781ZM342.766 316.453C342.583 313.51 341.685 311.284 340.07 309.773C338.482 308.237 336.503 307.469 334.133 307.469C331.555 307.469 329.549 308.276 328.117 309.891C326.711 311.505 325.826 313.693 325.461 316.453H342.766ZM384.992 343.133C381.477 343.133 378.651 342.43 376.516 341.023C375.24 340.19 373.859 338.732 372.375 336.648V342H361.477V284.5H372.57V304.969C373.977 302.99 375.526 301.479 377.219 300.438C379.224 299.135 381.776 298.484 384.875 298.484C390.474 298.484 394.849 300.503 398 304.539C401.177 308.576 402.766 313.784 402.766 320.164C402.766 326.779 401.203 332.26 398.078 336.609C394.953 340.958 390.591 343.133 384.992 343.133ZM391.086 321.336C391.086 318.315 390.695 315.815 389.914 313.836C388.43 310.086 385.695 308.211 381.711 308.211C377.674 308.211 374.901 310.047 373.391 313.719C372.609 315.672 372.219 318.198 372.219 321.297C372.219 324.943 373.026 327.964 374.641 330.359C376.255 332.755 378.716 333.953 382.023 333.953C384.888 333.953 387.115 332.794 388.703 330.477C390.292 328.159 391.086 325.112 391.086 321.336ZM276.32 422.164H255.109L251.125 434H238.547L259.094 376.422H272.688L293.078 434H280.031L276.32 422.164ZM272.961 412.242L265.773 389.586L258.352 412.242H272.961ZM335.188 395.992C338.625 399.664 340.344 405.055 340.344 412.164C340.344 419.664 338.651 425.38 335.266 429.312C331.906 433.245 327.57 435.211 322.258 435.211C318.872 435.211 316.06 434.365 313.82 432.672C312.596 431.734 311.398 430.367 310.227 428.57V450.758H299.211V391.422H309.875V397.711C311.073 395.862 312.349 394.404 313.703 393.336C316.177 391.435 319.12 390.484 322.531 390.484C327.505 390.484 331.724 392.32 335.188 395.992ZM328.859 412.711C328.859 409.43 328.104 406.526 326.594 404C325.109 401.474 322.688 400.211 319.328 400.211C315.292 400.211 312.518 402.125 311.008 405.953C310.227 407.984 309.836 410.562 309.836 413.688C309.836 418.635 311.151 422.112 313.781 424.117C315.344 425.289 317.193 425.875 319.328 425.875C322.427 425.875 324.784 424.677 326.398 422.281C328.039 419.885 328.859 416.695 328.859 412.711ZM384.094 395.992C387.531 399.664 389.25 405.055 389.25 412.164C389.25 419.664 387.557 425.38 384.172 429.312C380.812 433.245 376.477 435.211 371.164 435.211C367.779 435.211 364.966 434.365 362.727 432.672C361.503 431.734 360.305 430.367 359.133 428.57V450.758H348.117V391.422H358.781V397.711C359.979 395.862 361.255 394.404 362.609 393.336C365.083 391.435 368.026 390.484 371.438 390.484C376.411 390.484 380.63 392.32 384.094 395.992ZM377.766 412.711C377.766 409.43 377.01 406.526 375.5 404C374.016 401.474 371.594 400.211 368.234 400.211C364.198 400.211 361.424 402.125 359.914 405.953C359.133 407.984 358.742 410.562 358.742 413.688C358.742 418.635 360.057 422.112 362.688 424.117C364.25 425.289 366.099 425.875 368.234 425.875C371.333 425.875 373.69 424.677 375.305 422.281C376.945 419.885 377.766 416.695 377.766 412.711ZM397.57 376.422H408.703V434H397.57V376.422ZM431.047 391.422V434H419.758V391.422H431.047ZM431.047 376.07V386.344H419.758V376.07H431.047ZM478.703 406.695H467.297C467.089 405.107 466.555 403.674 465.695 402.398C464.445 400.68 462.505 399.82 459.875 399.82C456.125 399.82 453.56 401.682 452.18 405.406C451.451 407.385 451.086 410.016 451.086 413.297C451.086 416.422 451.451 418.935 452.18 420.836C453.508 424.378 456.008 426.148 459.68 426.148C462.284 426.148 464.133 425.445 465.227 424.039C466.32 422.633 466.984 420.81 467.219 418.57H478.586C478.326 421.956 477.102 425.159 474.914 428.18C471.424 433.049 466.255 435.484 459.406 435.484C452.557 435.484 447.518 433.453 444.289 429.391C441.06 425.328 439.445 420.055 439.445 413.57C439.445 406.253 441.229 400.562 444.797 396.5C448.365 392.438 453.286 390.406 459.562 390.406C464.901 390.406 469.263 391.604 472.648 394C476.06 396.396 478.078 400.628 478.703 406.695ZM488 396.031C490.943 392.281 495.995 390.406 503.156 390.406C507.818 390.406 511.958 391.331 515.578 393.18C519.198 395.029 521.008 398.518 521.008 403.648V423.18C521.008 424.534 521.034 426.174 521.086 428.102C521.164 429.56 521.385 430.549 521.75 431.07C522.115 431.591 522.661 432.021 523.391 432.359V434H511.281C510.943 433.141 510.708 432.333 510.578 431.578C510.448 430.823 510.344 429.964 510.266 429C508.729 430.667 506.958 432.086 504.953 433.258C502.557 434.638 499.849 435.328 496.828 435.328C492.974 435.328 489.784 434.234 487.258 432.047C484.758 429.833 483.508 426.708 483.508 422.672C483.508 417.438 485.526 413.648 489.562 411.305C491.776 410.029 495.031 409.117 499.328 408.57L503.117 408.102C505.174 407.841 506.646 407.516 507.531 407.125C509.12 406.448 509.914 405.393 509.914 403.961C509.914 402.216 509.302 401.018 508.078 400.367C506.88 399.69 505.109 399.352 502.766 399.352C500.135 399.352 498.273 400.003 497.18 401.305C496.398 402.268 495.878 403.57 495.617 405.211H484.875C485.109 401.487 486.151 398.427 488 396.031ZM496.281 425.953C497.323 426.812 498.599 427.242 500.109 427.242C502.505 427.242 504.706 426.539 506.711 425.133C508.742 423.727 509.797 421.161 509.875 417.438V413.297C509.172 413.74 508.456 414.104 507.727 414.391C507.023 414.651 506.047 414.898 504.797 415.133L502.297 415.602C499.953 416.018 498.273 416.526 497.258 417.125C495.539 418.141 494.68 419.716 494.68 421.852C494.68 423.753 495.214 425.12 496.281 425.953ZM550.422 426.07V434.391L545.148 434.586C539.888 434.768 536.294 433.857 534.367 431.852C533.117 430.576 532.492 428.609 532.492 425.953V399.742H526.555V391.812H532.492V379.938H543.508V391.812H550.422V399.742H543.508V422.242C543.508 423.987 543.729 425.081 544.172 425.523C544.615 425.94 545.969 426.148 548.234 426.148C548.573 426.148 548.924 426.148 549.289 426.148C549.68 426.122 550.057 426.096 550.422 426.07ZM569.016 391.422V434H557.727V391.422H569.016ZM569.016 376.07V386.344H557.727V376.07H569.016ZM615.344 396.812C618.938 401.318 620.734 406.643 620.734 412.789C620.734 419.039 618.938 424.391 615.344 428.844C611.75 433.271 606.294 435.484 598.977 435.484C591.659 435.484 586.203 433.271 582.609 428.844C579.016 424.391 577.219 419.039 577.219 412.789C577.219 406.643 579.016 401.318 582.609 396.812C586.203 392.307 591.659 390.055 598.977 390.055C606.294 390.055 611.75 392.307 615.344 396.812ZM598.938 399.469C595.682 399.469 593.169 400.628 591.398 402.945C589.654 405.237 588.781 408.518 588.781 412.789C588.781 417.06 589.654 420.354 591.398 422.672C593.169 424.99 595.682 426.148 598.938 426.148C602.193 426.148 604.693 424.99 606.438 422.672C608.182 420.354 609.055 417.06 609.055 412.789C609.055 408.518 608.182 405.237 606.438 402.945C604.693 400.628 602.193 399.469 598.938 399.469ZM648.781 399.664C645.005 399.664 642.414 401.266 641.008 404.469C640.279 406.161 639.914 408.323 639.914 410.953V434H628.82V391.5H639.562V397.711C640.995 395.523 642.349 393.948 643.625 392.984C645.917 391.266 648.82 390.406 652.336 390.406C656.737 390.406 660.331 391.565 663.117 393.883C665.93 396.174 667.336 399.99 667.336 405.328V434H655.93V408.102C655.93 405.862 655.63 404.143 655.031 402.945C653.938 400.758 651.854 399.664 648.781 399.664ZM270.383 526H244.289V468.422H272.258C279.315 468.526 284.315 470.57 287.258 474.555C289.029 477.003 289.914 479.932 289.914 483.344C289.914 486.859 289.029 489.685 287.258 491.82C286.268 493.018 284.81 494.112 282.883 495.102C285.826 496.169 288.039 497.862 289.523 500.18C291.034 502.497 291.789 505.31 291.789 508.617C291.789 512.029 290.93 515.089 289.211 517.797C288.117 519.594 286.75 521.104 285.109 522.328C283.26 523.734 281.073 524.698 278.547 525.219C276.047 525.74 273.326 526 270.383 526ZM270.109 500.648H255.773V516H269.914C272.44 516 274.406 515.661 275.812 514.984C278.365 513.734 279.641 511.339 279.641 507.797C279.641 504.802 278.404 502.745 275.93 501.625C274.549 501 272.609 500.674 270.109 500.648ZM276.086 489.672C277.648 488.734 278.43 487.055 278.43 484.633C278.43 481.951 277.388 480.18 275.305 479.32C273.508 478.721 271.216 478.422 268.43 478.422H255.773V491.117H269.914C272.44 491.117 274.497 490.635 276.086 489.672ZM302.609 488.031C305.552 484.281 310.604 482.406 317.766 482.406C322.427 482.406 326.568 483.331 330.188 485.18C333.807 487.029 335.617 490.518 335.617 495.648V515.18C335.617 516.534 335.643 518.174 335.695 520.102C335.773 521.56 335.995 522.549 336.359 523.07C336.724 523.591 337.271 524.021 338 524.359V526H325.891C325.552 525.141 325.318 524.333 325.188 523.578C325.057 522.823 324.953 521.964 324.875 521C323.339 522.667 321.568 524.086 319.562 525.258C317.167 526.638 314.458 527.328 311.438 527.328C307.583 527.328 304.393 526.234 301.867 524.047C299.367 521.833 298.117 518.708 298.117 514.672C298.117 509.438 300.135 505.648 304.172 503.305C306.385 502.029 309.641 501.117 313.938 500.57L317.727 500.102C319.784 499.841 321.255 499.516 322.141 499.125C323.729 498.448 324.523 497.393 324.523 495.961C324.523 494.216 323.911 493.018 322.688 492.367C321.49 491.69 319.719 491.352 317.375 491.352C314.745 491.352 312.883 492.003 311.789 493.305C311.008 494.268 310.487 495.57 310.227 497.211H299.484C299.719 493.487 300.76 490.427 302.609 488.031ZM310.891 517.953C311.932 518.812 313.208 519.242 314.719 519.242C317.115 519.242 319.315 518.539 321.32 517.133C323.352 515.727 324.406 513.161 324.484 509.438V505.297C323.781 505.74 323.065 506.104 322.336 506.391C321.633 506.651 320.656 506.898 319.406 507.133L316.906 507.602C314.562 508.018 312.883 508.526 311.867 509.125C310.148 510.141 309.289 511.716 309.289 513.852C309.289 515.753 309.823 517.12 310.891 517.953ZM374.875 485.375C378.208 487.51 380.122 491.182 380.617 496.391H369.484C369.328 494.958 368.924 493.826 368.273 492.992C367.049 491.482 364.966 490.727 362.023 490.727C359.602 490.727 357.87 491.104 356.828 491.859C355.812 492.615 355.305 493.5 355.305 494.516C355.305 495.792 355.852 496.716 356.945 497.289C358.039 497.888 361.906 498.917 368.547 500.375C372.974 501.417 376.294 502.992 378.508 505.102C380.695 507.237 381.789 509.906 381.789 513.109C381.789 517.328 380.214 520.779 377.062 523.461C373.938 526.117 369.094 527.445 362.531 527.445C355.839 527.445 350.891 526.039 347.688 523.227C344.51 520.388 342.922 516.781 342.922 512.406H354.211C354.445 514.385 354.953 515.792 355.734 516.625C357.115 518.109 359.667 518.852 363.391 518.852C365.578 518.852 367.31 518.526 368.586 517.875C369.888 517.224 370.539 516.247 370.539 514.945C370.539 513.695 370.018 512.745 368.977 512.094C367.935 511.443 364.068 510.323 357.375 508.734C352.557 507.536 349.159 506.039 347.18 504.242C345.201 502.471 344.211 499.919 344.211 496.586C344.211 492.654 345.747 489.281 348.82 486.469C351.919 483.63 356.268 482.211 361.867 482.211C367.18 482.211 371.516 483.266 374.875 485.375ZM401.516 483.422V526H390.227V483.422H401.516ZM401.516 468.07V478.344H390.227V468.07H401.516ZM449.172 498.695H437.766C437.557 497.107 437.023 495.674 436.164 494.398C434.914 492.68 432.974 491.82 430.344 491.82C426.594 491.82 424.029 493.682 422.648 497.406C421.919 499.385 421.555 502.016 421.555 505.297C421.555 508.422 421.919 510.935 422.648 512.836C423.977 516.378 426.477 518.148 430.148 518.148C432.753 518.148 434.602 517.445 435.695 516.039C436.789 514.633 437.453 512.81 437.688 510.57H449.055C448.794 513.956 447.57 517.159 445.383 520.18C441.893 525.049 436.724 527.484 429.875 527.484C423.026 527.484 417.987 525.453 414.758 521.391C411.529 517.328 409.914 512.055 409.914 505.57C409.914 498.253 411.698 492.562 415.266 488.5C418.833 484.438 423.755 482.406 430.031 482.406C435.37 482.406 439.732 483.604 443.117 486C446.529 488.396 448.547 492.628 449.172 498.695ZM486.203 485.375C489.536 487.51 491.451 491.182 491.945 496.391H480.812C480.656 494.958 480.253 493.826 479.602 492.992C478.378 491.482 476.294 490.727 473.352 490.727C470.93 490.727 469.198 491.104 468.156 491.859C467.141 492.615 466.633 493.5 466.633 494.516C466.633 495.792 467.18 496.716 468.273 497.289C469.367 497.888 473.234 498.917 479.875 500.375C484.302 501.417 487.622 502.992 489.836 505.102C492.023 507.237 493.117 509.906 493.117 513.109C493.117 517.328 491.542 520.779 488.391 523.461C485.266 526.117 480.422 527.445 473.859 527.445C467.167 527.445 462.219 526.039 459.016 523.227C455.839 520.388 454.25 516.781 454.25 512.406H465.539C465.773 514.385 466.281 515.792 467.062 516.625C468.443 518.109 470.995 518.852 474.719 518.852C476.906 518.852 478.638 518.526 479.914 517.875C481.216 517.224 481.867 516.247 481.867 514.945C481.867 513.695 481.346 512.745 480.305 512.094C479.263 511.443 475.396 510.323 468.703 508.734C463.885 507.536 460.487 506.039 458.508 504.242C456.529 502.471 455.539 499.919 455.539 496.586C455.539 492.654 457.076 489.281 460.148 486.469C463.247 483.63 467.596 482.211 473.195 482.211C478.508 482.211 482.844 483.266 486.203 485.375Z" fill="white"/>
</g>
<path d="M74.8264 190.55V190.513L67.6265 186.425L67.4015 117.163C67.4015 114.763 69.089 111.838 71.1515 110.638L165.764 56.0378C166.814 55.4002 167.789 55.3629 168.464 55.7378L175.514 59.7878C175.552 59.7878 175.589 59.8254 175.664 59.8627C176.339 60.2378 176.789 61.0627 176.789 62.2627L176.976 131.563L74.8264 190.55Z" fill="#4C5C75"/>
<path d="M175.678 59.8551C175.017 59.4643 175.588 60.2459 174.536 60.8771L151.539 74.1341L79.9342 115.468C77.8598 116.701 76.1765 119.617 76.1765 122.021L74.8236 190.53L67.611 186.425L67.4008 117.164C67.4008 114.759 69.084 111.844 71.1584 110.641L165.761 56.0202C166.813 55.4189 167.775 55.3589 168.466 55.7497L175.678 59.8551Z" fill="#9A9A9A"/>
<path d="M176.984 131.548L74.825 190.532L74.6198 121.263C74.6198 118.855 76.2997 115.943 78.3903 114.73L172.989 60.1135C175.08 58.9004 176.778 59.8711 176.797 62.2788L176.984 131.548Z" fill="#1C2841"/>
<path d="M174.091 129.844L77.7952 185.484L77.5865 121.245C77.5865 119.91 78.7134 117.948 79.924 117.238L173.924 62.9752L174.091 129.844Z" fill="#8E8E8E"/>
<path d="M74.8287 190.527L74.8597 199.833L134.743 234.595C136.822 235.805 140.187 235.805 142.281 234.595L236.876 179.985C237.931 179.38 238.458 178.574 238.458 177.783L238.427 168.534C238.427 169.325 237.9 170.116 236.845 170.721L74.8287 190.527Z" fill="#9D9D9D"/>
<path d="M74.8357 190.523L134.721 225.324C136.797 226.531 140.172 226.531 142.262 225.324L236.851 170.713C238.95 169.501 238.961 167.546 236.885 166.34L177 131.538L74.8357 190.523Z" fill="#F8F9FE"/>
<path d="M128.827 170.375L128.789 169.625C128.789 169.55 128.827 169.475 128.939 169.438L133.289 166.925C133.476 166.813 133.777 166.813 133.926 166.925L138.277 169.438C138.351 169.475 138.389 169.55 138.389 169.588L138.427 169.625V170.375C138.427 170.45 138.389 170.525 138.277 170.6L133.926 173.113C133.739 173.188 133.439 173.188 133.289 173.113L128.939 170.563C128.864 170.525 128.827 170.45 128.827 170.375ZM137.752 196.85L137.789 197.525C137.789 197.6 137.714 197.638 137.639 197.675L126.389 204.2C126.239 204.275 126.014 204.275 125.827 204.2C125.789 204.2 125.789 204.2 125.751 204.2L121.439 201.688C121.402 201.65 121.327 201.613 121.327 201.575C121.289 201.538 121.289 201.538 121.289 201.5V200.713C121.289 200.638 121.327 200.563 121.439 200.525L132.689 194.038C132.839 193.925 133.139 193.925 133.289 194.038L137.639 196.55C137.752 196.625 137.789 196.7 137.752 196.775V196.85V196.85ZM129.239 188.45C129.127 188.413 129.089 188.338 129.089 188.3V187.513C129.089 187.475 129.089 187.475 129.164 187.438C129.127 187.4 129.164 187.363 129.201 187.325H129.239L133.589 184.813C133.777 184.7 134.039 184.7 134.227 184.813L138.539 187.325H138.576C138.614 187.363 138.652 187.4 138.652 187.438C138.689 187.438 138.689 187.475 138.689 187.513V188.3C138.689 188.338 138.652 188.413 138.576 188.45L134.189 191C134.002 191.075 133.739 191.113 133.552 191L129.239 188.45ZM137.564 173.863L141.876 176.375H141.914C141.989 176.413 142.027 176.45 141.989 176.525C141.989 176.525 142.027 176.525 142.027 176.563V177.313C142.027 177.388 141.989 177.463 141.876 177.538L137.527 180.05C137.489 180.088 137.451 180.088 137.376 180.088C137.226 180.125 137.077 180.125 136.964 180.05C136.926 180.05 136.926 180.05 136.889 180.05L132.577 177.538C132.464 177.463 132.427 177.388 132.427 177.313V176.563C132.427 176.525 132.427 176.525 132.464 176.488C132.501 176.45 132.501 176.413 132.577 176.375L136.926 173.863C137.114 173.75 137.376 173.75 137.564 173.863ZM136.589 166.138C136.514 166.1 136.476 166.063 136.476 165.988V165.2C136.476 165.172 136.519 165.132 136.561 165.088C136.584 165.065 136.552 165.032 136.589 165.013L140.976 162.5C141.126 162.388 141.426 162.388 141.577 162.5L145.927 165.013C145.964 165.05 146.039 165.088 146.039 165.125C146.076 165.163 146.076 165.163 146.076 165.2V165.988C146.076 166.025 146.039 166.1 145.927 166.138L141.577 168.688C141.389 168.8 141.126 168.8 140.939 168.688L136.589 166.138ZM145.364 169.325L149.714 171.875C149.789 171.913 149.826 171.988 149.826 172.063V172.1C149.826 172.063 149.864 172.063 149.864 172.063V172.775C149.864 172.888 149.826 172.925 149.714 173L145.327 175.513C145.176 175.625 144.876 175.625 144.689 175.513L140.377 173C140.302 172.963 140.226 172.888 140.226 172.813V172.063C140.226 172.025 140.226 172.025 140.264 171.988C140.302 171.95 140.302 171.913 140.377 171.875L144.764 169.325C144.914 169.25 145.176 169.25 145.364 169.325ZM141.239 186.575L136.889 184.063C136.777 183.988 136.739 183.913 136.739 183.875V183.088L136.777 183.05C136.777 182.975 136.814 182.938 136.889 182.9L141.239 180.388C141.426 180.275 141.689 180.275 141.876 180.388L146.227 182.9C146.301 182.938 146.339 183.013 146.339 183.088V183.875C146.339 183.913 146.301 183.988 146.227 184.063L141.839 186.575C141.651 186.65 141.389 186.65 141.239 186.575ZM154.026 178.663C154.026 178.7 154.026 178.738 153.989 178.775L154.026 179.45C154.026 179.525 153.952 179.563 153.876 179.638L149.489 182.15C149.452 182.188 149.376 182.188 149.339 182.188C149.227 182.225 149.114 182.225 149.002 182.188C148.926 182.188 148.889 182.188 148.851 182.15L144.539 179.638C144.426 179.563 144.389 179.525 144.389 179.45V178.663C144.389 178.588 144.426 178.513 144.539 178.475L148.889 175.963C149.077 175.85 149.339 175.85 149.527 175.963L153.876 178.475C153.952 178.55 154.026 178.588 154.026 178.663ZM144.239 161.713C144.164 161.675 144.127 161.6 144.127 161.563V160.775C144.127 160.7 144.164 160.625 144.239 160.588L148.626 158.075C148.777 157.963 149.077 157.963 149.227 158.075L153.576 160.588C153.614 160.625 153.689 160.663 153.689 160.7C153.727 160.738 153.727 160.738 153.727 160.775V161.563C153.727 161.6 153.689 161.675 153.614 161.713L149.227 164.263C149.039 164.375 148.777 164.338 148.589 164.263L144.239 161.713ZM153.202 164.825L157.514 167.338C157.551 167.338 157.589 167.375 157.589 167.375C157.626 167.413 157.664 167.45 157.664 167.525V168.313C157.664 168.388 157.626 168.425 157.514 168.5L153.164 171.013C152.977 171.125 152.714 171.125 152.527 171.013L148.176 168.5C148.102 168.463 148.064 168.388 148.064 168.313V167.525C148.064 167.488 148.102 167.413 148.176 167.375V167.338L152.564 164.825C152.601 164.788 152.676 164.788 152.714 164.788C152.864 164.75 153.052 164.788 153.202 164.825ZM161.002 160.325L165.351 162.838C165.427 162.913 165.464 162.988 165.464 163.063L165.501 163.775C165.501 163.85 165.464 163.925 165.351 163.963L160.964 166.513C160.814 166.588 160.514 166.588 160.327 166.513L156.014 163.963C155.939 163.925 155.864 163.85 155.864 163.813V163.025C155.864 162.95 155.901 162.913 156.014 162.838L160.364 160.325C160.552 160.213 160.814 160.213 161.002 160.325ZM151.889 157.325C151.814 157.288 151.777 157.213 151.777 157.138V156.35C151.777 156.275 151.814 156.238 151.889 156.163L156.277 153.65H156.314C156.464 153.538 156.727 153.575 156.876 153.65L159.052 154.925L161.227 156.163V156.2C161.339 156.238 161.376 156.313 161.376 156.388V157.138C161.376 157.213 161.339 157.288 161.264 157.325L156.876 159.838C156.689 159.95 156.426 159.95 156.239 159.838L151.889 157.325ZM159.539 152.9C159.464 152.825 159.426 152.788 159.426 152.713V151.925C159.426 151.888 159.464 151.813 159.539 151.775L163.926 149.225C164.077 149.15 164.376 149.15 164.527 149.225L168.876 151.775C168.952 151.813 168.989 151.85 169.026 151.925V152.713C169.026 152.788 168.989 152.863 168.914 152.9L164.527 155.413C164.489 155.45 164.452 155.488 164.376 155.45C164.264 155.488 164.151 155.488 164.039 155.45C164.002 155.488 163.926 155.45 163.889 155.413L159.539 152.9ZM156.502 177.725L152.189 175.213H152.151C152.077 175.138 152.039 175.1 152.039 175.025V174.238C152.039 174.2 152.077 174.125 152.189 174.088L156.539 171.538C156.727 171.463 156.989 171.463 157.177 171.538L161.526 174.088C161.601 174.125 161.639 174.2 161.639 174.238L161.677 174.275V175.025C161.677 175.1 161.639 175.138 161.526 175.213L157.139 177.725C156.989 177.838 156.689 177.838 156.502 177.725ZM164.151 173.3L159.839 170.825L159.726 170.713C159.726 170.675 159.689 170.638 159.689 170.638V169.85L159.726 169.813C159.726 169.775 159.764 169.7 159.839 169.663L164.189 167.113C164.376 167.038 164.639 167.038 164.826 167.113L169.177 169.663C169.251 169.738 169.326 169.775 169.326 169.85V170.6C169.326 170.713 169.289 170.75 169.177 170.825L164.789 173.3C164.601 173.413 164.376 173.413 164.151 173.3ZM171.802 168.913L167.489 166.4V166.363C167.451 166.363 167.451 166.363 167.451 166.325C167.376 166.288 167.339 166.25 167.339 166.213V165.425C167.339 165.35 167.376 165.313 167.489 165.238L171.876 162.725C172.027 162.613 172.289 162.613 172.477 162.725L176.826 165.238C176.939 165.275 176.976 165.35 176.976 165.425V166.213C176.976 166.25 176.939 166.325 176.826 166.363L172.439 168.913C172.289 168.988 171.989 168.988 171.839 168.913H171.802V168.913ZM175.927 160.363L187.139 153.875C187.289 153.838 187.477 153.8 187.626 153.838C187.702 153.838 187.739 153.838 187.776 153.875L192.127 156.388C192.202 156.463 192.239 156.5 192.239 156.575V156.688L192.276 157.363C192.276 157.4 192.239 157.438 192.202 157.475C192.164 157.513 192.164 157.513 192.127 157.55L180.877 164.038C180.726 164.15 180.427 164.15 180.239 164.038L175.927 161.525L175.814 161.413C175.777 161.413 175.777 161.375 175.777 161.338V160.55C175.777 160.475 175.851 160.438 175.927 160.363ZM173.264 158.488V158.525L173.301 159.275C173.301 159.313 173.264 159.388 173.226 159.388C173.189 159.425 173.189 159.463 173.152 159.463L168.764 161.975C168.614 162.088 168.314 162.088 168.164 161.975L163.814 159.463C163.739 159.425 163.664 159.35 163.664 159.275V158.525C163.664 158.563 163.664 158.6 163.701 158.638V158.525C163.701 158.45 163.739 158.375 163.814 158.338L168.164 155.788C168.351 155.713 168.652 155.713 168.801 155.788L173.152 158.338C173.226 158.375 173.264 158.413 173.264 158.488ZM167.189 148.475C167.114 148.438 167.077 148.363 167.077 148.288V147.538C167.077 147.463 167.114 147.388 167.189 147.35L171.539 144.8C171.727 144.688 172.027 144.725 172.177 144.8L176.526 147.35C176.564 147.388 176.601 147.388 176.601 147.388C176.639 147.425 176.677 147.463 176.677 147.538V148.288C176.677 148.363 176.639 148.438 176.526 148.475L172.177 150.988C171.989 151.1 171.727 151.1 171.539 150.988L167.189 148.475ZM171.577 153.838L179.339 149.375L179.376 149.338C179.411 149.324 179.449 149.347 179.487 149.338C179.612 149.303 179.728 149.303 179.841 149.338C179.884 149.347 179.943 149.321 179.977 149.338L182.752 150.95L184.326 151.888C184.439 151.925 184.476 152 184.476 152.075V152.825C184.476 152.9 184.439 152.938 184.326 153.013L176.564 157.513C176.376 157.625 176.076 157.625 175.927 157.513L171.577 155C171.464 154.925 171.426 154.888 171.426 154.775V154.025C171.426 153.95 171.502 153.913 171.577 153.838ZM185.114 169.363L185.152 169.4V170.188C185.152 170.225 185.114 170.263 185.039 170.3C185.039 170.338 185.001 170.338 185.001 170.338V170.375L142.064 195.163C141.876 195.275 141.614 195.275 141.426 195.163L137.077 192.65C137.001 192.575 136.964 192.538 136.964 192.463V191.675C136.964 191.647 137.006 191.602 137.048 191.563C137.072 191.54 137.039 191.507 137.077 191.488L180.051 166.7C180.202 166.588 180.464 166.588 180.652 166.7L185.001 169.213C185.077 169.25 185.114 169.288 185.114 169.363ZM199.776 160.963V161.713C199.776 161.788 199.739 161.825 199.664 161.863C199.664 161.9 199.627 161.9 199.627 161.9L188.414 168.388C188.226 168.5 187.964 168.5 187.776 168.388L183.427 165.875C183.314 165.8 183.277 165.763 183.277 165.688V164.938L183.314 164.9C183.314 164.825 183.351 164.788 183.427 164.75L194.677 158.225C194.714 158.188 194.752 158.188 194.826 158.225C194.939 158.188 195.051 158.188 195.164 158.225C195.239 158.188 195.276 158.225 195.314 158.225L199.627 160.775C199.664 160.813 199.702 160.813 199.702 160.85C199.739 160.85 199.776 160.925 199.776 160.963ZM105.877 183.725C105.877 183.725 105.839 183.688 105.839 183.65V182.863C105.839 182.825 105.839 182.825 105.877 182.788C105.877 182.75 105.952 182.713 105.989 182.675L110.339 180.163C110.527 180.05 110.827 180.05 110.976 180.163L115.327 182.675C115.401 182.75 115.439 182.788 115.439 182.863V183.65C115.439 183.725 115.401 183.763 115.327 183.838L110.939 186.35C110.789 186.463 110.489 186.463 110.339 186.35L105.989 183.838C105.914 183.8 105.877 183.763 105.877 183.725ZM107.676 188.263L103.289 190.775C103.139 190.85 102.839 190.85 102.689 190.775L98.3015 188.263V188.225C98.2264 188.15 98.1891 188.113 98.1891 188.075V187.288C98.1891 187.25 98.2264 187.213 98.2639 187.213C98.2264 187.175 98.2639 187.138 98.3015 187.1H98.339L102.689 184.588C102.877 184.475 103.176 184.475 103.327 184.588L107.676 187.1C107.752 187.138 107.827 187.213 107.827 187.288V188.038C107.827 188.113 107.789 188.188 107.676 188.263ZM118.889 190.813L111.089 195.313C110.901 195.388 110.639 195.388 110.451 195.313L108.876 194.375L106.139 192.8C106.102 192.763 106.026 192.725 106.026 192.688C105.989 192.65 105.989 192.613 105.989 192.613V191.825C105.989 191.75 106.026 191.713 106.139 191.638L113.902 187.138C114.089 187.025 114.352 187.025 114.539 187.138L116.152 188.075L118.889 189.65V189.688C118.964 189.725 119.002 189.763 119.002 189.838V190.625C119.002 190.7 118.964 190.738 118.889 190.813ZM121.177 174.875C121.139 174.838 121.139 174.838 121.139 174.8V174.013C121.139 173.975 121.177 173.9 121.289 173.863L125.639 171.313C125.827 171.238 126.126 171.238 126.277 171.313L130.626 173.863C130.739 173.9 130.777 173.975 130.739 174.05V174.125L130.777 174.8C130.777 174.875 130.702 174.95 130.626 174.988L126.239 177.538C126.089 177.613 125.827 177.613 125.639 177.538L121.289 174.988C121.251 174.95 121.177 174.913 121.177 174.875ZM113.639 179.413C113.526 179.338 113.489 179.3 113.489 179.225V178.475C113.489 178.456 113.522 178.445 113.528 178.426C113.524 178.38 113.547 178.334 113.639 178.288L118.027 175.738C118.176 175.625 118.439 175.663 118.626 175.738L122.977 178.288C123.126 178.363 123.164 178.55 122.977 178.625C123.089 178.588 123.126 178.513 123.126 178.475V179.225C123.126 179.3 123.089 179.338 122.977 179.413L118.626 181.925L118.589 181.963C118.562 181.976 118.513 181.954 118.479 181.963C118.354 181.998 118.238 181.998 118.124 181.963C118.076 181.953 118.031 181.98 117.989 181.963L113.639 179.413ZM131.076 192.8L118.889 199.85C118.777 199.888 118.701 199.888 118.552 199.888C118.514 199.888 118.476 199.888 118.401 199.85C118.327 199.888 118.289 199.888 118.251 199.85L113.902 197.3C113.827 197.263 113.789 197.188 113.789 197.113V196.363C113.789 196.288 113.827 196.213 113.902 196.175L126.089 189.125C126.239 189.088 126.426 189.05 126.577 189.088C126.651 189.088 126.689 189.088 126.727 189.125L131.076 191.638C131.152 191.713 131.227 191.75 131.227 191.825V192.613C131.227 192.65 131.189 192.763 131.076 192.8ZM126.356 185.545C126.362 185.566 126.389 185.578 126.389 185.6V186.35C126.389 186.425 126.351 186.5 126.239 186.538L121.926 189.088C121.739 189.163 121.439 189.163 121.289 189.088L116.939 186.538C116.826 186.5 116.789 186.425 116.789 186.35V185.6C116.789 185.525 116.826 185.488 116.864 185.45C116.864 185.45 116.902 185.413 116.939 185.413L121.289 182.863C121.476 182.788 121.739 182.788 121.926 182.863L126.239 185.413H126.277C126.311 185.43 126.309 185.469 126.328 185.498C126.337 185.513 126.355 185.529 126.356 185.545ZM129.089 184.55L124.739 182.038C124.664 181.963 124.627 181.925 124.627 181.85V181.063C124.631 181.053 124.617 181.035 124.627 181.025C124.627 180.988 124.664 180.913 124.739 180.875L129.127 178.363C129.277 178.288 129.577 178.25 129.726 178.363L134.077 180.875C134.151 180.913 134.227 180.988 134.227 181.063V181.85C134.227 181.925 134.189 181.963 134.077 182.038L129.726 184.55C129.539 184.663 129.239 184.663 129.089 184.55Z" fill="#1C2841"/>
<path d="M113.639 179.412C113.529 179.338 113.492 179.301 113.492 179.228V178.455C113.492 178.492 113.529 178.529 113.566 178.529C113.492 178.455 113.492 178.345 113.639 178.272L118.015 175.734C118.162 175.661 118.456 175.661 118.64 175.734L122.979 178.272C123.126 178.382 123.163 178.529 122.979 178.639C123.089 178.603 123.126 178.529 123.126 178.455V179.228C123.126 179.301 123.089 179.338 122.979 179.412L118.603 181.949C118.456 182.022 118.162 182.022 117.978 181.949L113.639 179.412ZM121.288 174.962C121.214 174.926 121.14 174.852 121.14 174.815V174.043C121.14 174.043 121.14 174.043 121.177 174.043C121.177 173.97 121.214 173.896 121.288 173.859L125.664 171.322C125.811 171.212 126.105 171.212 126.289 171.322L130.628 173.859C130.738 173.896 130.775 173.97 130.738 174.043L130.775 174.815C130.775 174.889 130.701 174.926 130.628 174.999L126.252 177.536C126.068 177.61 125.811 177.61 125.627 177.536L121.288 174.962ZM105.991 183.824C105.881 183.787 105.844 183.714 105.844 183.64V182.868C105.844 182.794 105.881 182.758 105.991 182.684L110.367 180.147C110.514 180.073 110.808 180.073 110.992 180.147L115.331 182.684C115.404 182.758 115.441 182.794 115.441 182.868V183.64C115.441 183.714 115.404 183.787 115.331 183.824L110.955 186.361C110.771 186.435 110.514 186.435 110.33 186.361L105.991 183.824ZM126.325 185.7C126.362 185.663 126.399 185.626 126.399 185.589V186.361C126.399 186.435 126.362 186.472 126.252 186.545L121.913 189.082C121.729 189.156 121.435 189.156 121.288 189.082L116.949 186.545C116.838 186.472 116.802 186.435 116.802 186.361V185.589C116.802 185.516 116.838 185.442 116.912 185.405L121.288 182.868C121.472 182.758 121.729 182.758 121.913 182.868L126.252 185.405C126.399 185.479 126.399 185.589 126.325 185.7ZM107.682 188.237L103.307 190.774C103.123 190.847 102.865 190.847 102.682 190.774L98.3057 188.237C98.2321 188.2 98.1953 188.126 98.1953 188.09V187.281C98.1953 187.207 98.2321 187.17 98.3057 187.097L102.718 184.596C102.865 184.486 103.16 184.486 103.343 184.596L107.682 187.097C107.756 187.17 107.793 187.244 107.793 187.281V188.053C107.793 188.126 107.756 188.2 107.682 188.237ZM118.898 190.811L111.102 195.297C110.918 195.407 110.624 195.407 110.477 195.297L106.138 192.796C106.028 192.723 105.991 192.649 105.991 192.613V191.84C105.991 191.767 106.028 191.693 106.138 191.656L113.933 187.134C114.08 187.023 114.375 187.023 114.559 187.134L118.898 189.671C118.971 189.707 119.008 189.781 119.008 189.855V190.627C119.008 190.7 118.971 190.737 118.898 190.811ZM167.215 148.487C167.104 148.413 167.068 148.377 167.068 148.303V147.531C167.068 147.457 167.104 147.384 167.178 147.347L171.554 144.81C171.738 144.7 172.032 144.736 172.179 144.81L176.555 147.347C176.628 147.384 176.665 147.457 176.665 147.531V148.303C176.665 148.377 176.628 148.45 176.555 148.487L172.179 150.988C171.995 151.098 171.701 151.098 171.554 150.988L167.215 148.487ZM129.23 188.457C129.12 188.421 129.083 188.347 129.083 188.274V187.538C129.083 187.464 129.12 187.391 129.23 187.317L133.606 184.817C133.753 184.707 134.047 184.707 134.231 184.817L138.57 187.317C138.644 187.391 138.68 187.464 138.68 187.501V188.274C138.68 188.347 138.644 188.421 138.57 188.457L134.194 190.995C134.01 191.068 133.753 191.105 133.569 190.995L129.23 188.457ZM141.218 186.582L136.879 184.045C136.805 183.971 136.768 183.934 136.768 183.861V183.089C136.732 183.015 136.768 182.979 136.879 182.905L141.254 180.404C141.401 180.294 141.696 180.294 141.88 180.404L146.218 182.905C146.292 182.979 146.329 183.015 146.329 183.089V183.861C146.329 183.934 146.292 183.971 146.218 184.045L141.843 186.582C141.659 186.656 141.401 186.656 141.218 186.582ZM129.083 184.56L124.744 182.022C124.671 181.986 124.634 181.912 124.634 181.839V181.066C124.597 181.03 124.634 180.956 124.744 180.883L129.12 178.382C129.267 178.272 129.561 178.272 129.745 178.382L134.084 180.883C134.158 180.919 134.194 180.993 134.194 181.066V181.839C134.194 181.912 134.158 181.986 134.084 182.022L129.708 184.56C129.524 184.67 129.23 184.67 129.083 184.56ZM144.233 161.725C144.159 161.688 144.123 161.614 144.123 161.541V160.805C144.123 160.732 144.159 160.658 144.233 160.585L148.609 158.084C148.793 157.974 149.087 157.974 149.234 158.084L153.573 160.585C153.683 160.658 153.72 160.732 153.72 160.805V161.541C153.72 161.614 153.683 161.688 153.61 161.725L149.234 164.262C149.05 164.372 148.756 164.335 148.609 164.262L144.233 161.725ZM154.014 178.676C154.014 178.713 154.014 178.75 153.977 178.787L154.014 179.448C154.014 179.522 153.941 179.559 153.867 179.632L149.491 182.133C149.307 182.243 149.05 182.243 148.866 182.133L144.527 179.632C144.417 179.559 144.38 179.522 144.38 179.448V178.676C144.38 178.676 144.417 178.676 144.417 178.713C144.417 178.639 144.417 178.566 144.527 178.492L148.903 175.955C149.087 175.881 149.344 175.881 149.528 175.955L153.867 178.492C153.941 178.566 154.014 178.603 154.014 178.676ZM153.205 164.814L157.544 167.351C157.618 167.424 157.654 167.461 157.654 167.535V168.307C157.654 168.38 157.618 168.417 157.507 168.491L153.131 171.028C152.984 171.101 152.69 171.101 152.506 171.028L148.167 168.491C148.094 168.454 148.057 168.38 148.057 168.307V167.535C148.057 167.461 148.094 167.424 148.167 167.351L152.58 164.814C152.727 164.74 153.021 164.74 153.205 164.814ZM151.881 157.312C151.808 157.275 151.771 157.202 151.771 157.128V156.356C151.771 156.283 151.808 156.246 151.881 156.172L156.257 153.635C156.441 153.562 156.698 153.562 156.882 153.672L161.221 156.172C161.332 156.246 161.368 156.319 161.368 156.393V157.128C161.368 157.202 161.332 157.275 161.258 157.312L156.845 159.849C156.698 159.96 156.404 159.96 156.22 159.849L151.881 157.312ZM168.171 161.982L163.832 159.445C163.722 159.408 163.685 159.334 163.685 159.298V158.526C163.685 158.452 163.722 158.379 163.832 158.342L168.171 155.805C168.355 155.694 168.649 155.694 168.796 155.805L173.135 158.342C173.245 158.379 173.282 158.452 173.282 158.526V159.298C173.282 159.334 173.245 159.408 173.172 159.445L168.796 161.982C168.612 162.092 168.318 162.092 168.171 161.982ZM171.811 168.895L167.472 166.395C167.399 166.321 167.362 166.247 167.362 166.211V165.439C167.362 165.365 167.399 165.292 167.472 165.255L171.848 162.718C172.032 162.607 172.289 162.607 172.473 162.718L176.812 165.255C176.923 165.292 176.959 165.365 176.959 165.439V166.211C176.959 166.247 176.923 166.321 176.812 166.358L172.436 168.895C172.289 169.005 171.995 169.005 171.811 168.895ZM159.566 152.899C159.456 152.826 159.419 152.789 159.419 152.716V151.944C159.419 151.87 159.456 151.796 159.53 151.76L163.905 149.222C164.089 149.149 164.383 149.149 164.531 149.222L168.906 151.76C168.98 151.833 169.017 151.87 169.017 151.944V152.716C169.017 152.789 168.98 152.863 168.906 152.899L164.531 155.4C164.347 155.547 164.053 155.51 163.905 155.4L159.566 152.899ZM171.591 153.856L179.349 149.37C179.533 149.259 179.827 149.259 179.974 149.37L184.35 151.87C184.424 151.944 184.461 152.017 184.461 152.054V152.826C184.461 152.899 184.424 152.973 184.35 153.01L176.555 157.496C176.371 157.606 176.077 157.606 175.93 157.496L171.591 154.995C171.48 154.922 171.444 154.885 171.444 154.775V154.04C171.444 153.966 171.48 153.892 171.591 153.856ZM199.757 160.952V161.725C199.757 161.798 199.721 161.835 199.647 161.908L188.395 168.38C188.211 168.491 187.954 168.491 187.77 168.38L183.431 165.88C183.321 165.806 183.284 165.769 183.284 165.696V164.924C183.284 164.85 183.358 164.777 183.431 164.74L194.683 158.231C194.867 158.158 195.124 158.158 195.308 158.231L199.647 160.769C199.721 160.805 199.757 160.879 199.757 160.952ZM161.001 160.327L165.34 162.828C165.45 162.901 165.487 162.975 165.45 163.048L165.487 163.784C165.487 163.857 165.45 163.931 165.34 163.968L160.964 166.505C160.817 166.578 160.523 166.578 160.339 166.505L156 163.968C155.926 163.931 155.853 163.857 155.853 163.784V163.012C155.853 162.938 155.926 162.901 156 162.828L160.376 160.327C160.559 160.217 160.817 160.217 161.001 160.327ZM137.761 196.768L137.798 197.503C137.798 197.577 137.724 197.65 137.651 197.687L126.399 204.195C126.215 204.306 125.958 204.306 125.774 204.195L121.435 201.658C121.325 201.621 121.288 201.548 121.288 201.511V200.702C121.288 200.739 121.325 200.739 121.325 200.739C121.288 200.665 121.325 200.592 121.435 200.518L132.687 194.046C132.834 193.936 133.128 193.936 133.312 194.046L137.651 196.547C137.761 196.62 137.798 196.694 137.761 196.768ZM128.826 170.403L128.789 169.631C128.789 169.557 128.863 169.483 128.936 169.447L133.312 166.91C133.496 166.799 133.753 166.799 133.937 166.91L138.276 169.447C138.386 169.52 138.423 169.594 138.35 169.704C138.386 169.667 138.423 169.631 138.423 169.631V170.403C138.423 170.476 138.386 170.513 138.276 170.587L133.9 173.087C133.753 173.197 133.459 173.197 133.275 173.087L128.936 170.55C128.863 170.513 128.826 170.439 128.826 170.403ZM156.514 177.72L152.175 175.22C152.102 175.146 152.065 175.109 152.065 175.036L152.028 174.264C152.028 174.19 152.102 174.153 152.175 174.08L156.551 171.542C156.735 171.469 156.992 171.432 157.176 171.542L161.515 174.08C161.626 174.117 161.662 174.19 161.662 174.264V175.036C161.662 175.109 161.626 175.146 161.515 175.22L157.14 177.72C156.992 177.83 156.698 177.83 156.514 177.72ZM175.93 160.364L187.145 153.892C187.329 153.782 187.586 153.782 187.77 153.892L192.109 156.393C192.219 156.466 192.256 156.54 192.256 156.613V157.349C192.256 157.422 192.219 157.496 192.146 157.533L180.857 164.041C180.71 164.152 180.416 164.152 180.232 164.041L175.93 161.504C175.819 161.467 175.783 161.394 175.783 161.32V160.548C175.783 160.475 175.819 160.438 175.93 160.364ZM164.163 173.308L159.824 170.807C159.75 170.734 159.677 170.697 159.677 170.623V169.851C159.677 169.888 159.75 169.925 159.787 169.998C159.677 169.888 159.677 169.741 159.824 169.667L164.2 167.13C164.383 167.02 164.641 167.02 164.825 167.13L169.164 169.667C169.237 169.741 169.311 169.778 169.311 169.851V170.587C169.311 170.697 169.274 170.734 169.164 170.807L164.788 173.308C164.604 173.418 164.347 173.418 164.163 173.308ZM145.373 169.336L149.712 171.874C149.822 171.947 149.822 172.021 149.822 172.094C149.822 172.057 149.859 172.057 149.859 172.057V172.793C149.859 172.903 149.822 172.94 149.712 173.013L145.336 175.514C145.189 175.624 144.895 175.624 144.711 175.514L140.372 173.013C140.298 172.94 140.225 172.903 140.225 172.83V172.057C140.225 171.984 140.262 171.947 140.372 171.874L144.748 169.336C144.932 169.226 145.189 169.226 145.373 169.336ZM137.541 173.859L141.88 176.36C142.027 176.433 142.027 176.544 141.953 176.654C141.99 176.617 142.027 176.58 142.027 176.544V177.316C142.027 177.389 141.99 177.463 141.88 177.536L137.541 180.037C137.357 180.147 137.062 180.147 136.915 180.037L132.577 177.536C132.466 177.463 132.429 177.389 132.429 177.316V176.58C132.429 176.507 132.466 176.433 132.577 176.36L136.915 173.859C137.099 173.749 137.394 173.749 137.541 173.859ZM185.012 169.226C185.086 169.263 185.122 169.3 185.122 169.373V170.182C185.122 170.219 185.086 170.292 185.012 170.366L142.063 195.15C141.88 195.26 141.585 195.26 141.438 195.15L137.062 192.649C136.989 192.576 136.952 192.539 136.952 192.465V191.693C136.952 191.62 136.989 191.546 137.062 191.509L180.048 166.689C180.195 166.615 180.489 166.578 180.673 166.689L185.012 169.226ZM131.069 192.796L118.861 199.82C118.714 199.93 118.456 199.93 118.236 199.82L113.897 197.282C113.823 197.246 113.786 197.209 113.786 197.135V196.363C113.786 196.29 113.823 196.216 113.897 196.179L126.105 189.119C126.289 189.046 126.546 189.046 126.73 189.119L131.069 191.656C131.142 191.73 131.216 191.767 131.216 191.84V192.613C131.216 192.649 131.179 192.76 131.069 192.796ZM136.584 166.137C136.511 166.1 136.474 166.064 136.474 165.953V165.218C136.474 165.144 136.511 165.108 136.584 165.034L140.96 162.497C141.144 162.387 141.438 162.387 141.585 162.497L145.924 165.034C146.035 165.071 146.071 165.144 146.071 165.181V165.953C146.071 166.027 146.035 166.1 145.924 166.137L141.549 168.674C141.365 168.785 141.107 168.785 140.923 168.674L136.584 166.137Z" fill="#1C2841"/>
<path d="M167.195 147.343C167.026 147.441 167.025 147.608 167.193 147.706L171.545 150.235C171.713 150.333 172.003 150.333 172.172 150.235L176.54 147.713C176.722 147.608 176.711 147.448 176.542 147.35L172.191 144.821C172.022 144.723 171.745 144.716 171.563 144.821L167.195 147.343ZM159.548 151.758C159.366 151.863 159.378 152.024 159.546 152.121L163.898 154.65C164.066 154.748 164.343 154.755 164.525 154.65L168.893 152.128C169.062 152.031 169.063 151.863 168.895 151.765L164.543 149.236C164.375 149.138 164.085 149.138 163.916 149.236L159.548 151.758ZM151.889 156.18C151.719 156.278 151.718 156.446 151.887 156.543L156.238 159.072C156.407 159.17 156.696 159.17 156.866 159.072L161.246 156.544C161.415 156.446 161.404 156.285 161.236 156.187L156.884 153.658C156.716 153.56 156.438 153.553 156.269 153.651L151.889 156.18ZM171.585 153.847C171.403 153.952 171.403 154.105 171.583 154.21L175.923 156.732C176.091 156.83 176.368 156.837 176.55 156.732L184.33 152.24C184.512 152.135 184.5 151.975 184.332 151.877L179.992 149.355C179.812 149.25 179.547 149.25 179.365 149.355L171.585 153.847ZM163.817 158.332C163.647 158.43 163.634 158.59 163.815 158.695L168.154 161.217C168.323 161.315 168.612 161.315 168.782 161.217L173.15 158.695C173.331 158.59 173.32 158.43 173.152 158.332L168.812 155.81C168.632 155.705 168.366 155.705 168.185 155.81L163.817 158.332ZM156 162.845C155.831 162.943 155.818 163.103 155.998 163.208L160.338 165.73C160.506 165.828 160.795 165.828 160.965 165.73L165.345 163.201C165.515 163.103 165.503 162.943 165.335 162.845L160.995 160.323C160.815 160.218 160.55 160.218 160.38 160.316L156 162.845ZM148.183 167.358C148.014 167.456 148.001 167.616 148.181 167.721L152.521 170.243C152.689 170.341 152.979 170.341 153.148 170.243L157.528 167.714C157.698 167.616 157.699 167.449 157.53 167.351L153.191 164.829C153.01 164.724 152.733 164.731 152.564 164.829L148.183 167.358ZM140.367 171.871C140.197 171.969 140.184 172.129 140.365 172.234L144.704 174.756C144.873 174.854 145.162 174.854 145.332 174.756L149.712 172.227C149.881 172.129 149.882 171.962 149.714 171.864L145.374 169.342C145.194 169.237 144.916 169.244 144.747 169.342L140.367 171.871ZM132.562 176.377C132.381 176.482 132.38 176.635 132.56 176.74L136.9 179.262C137.068 179.36 137.345 179.367 137.527 179.262L141.895 176.74C142.064 176.642 142.065 176.475 141.897 176.377L137.557 173.855C137.377 173.75 137.1 173.757 136.93 173.855L132.562 176.377ZM124.745 180.89C124.564 180.995 124.563 181.148 124.743 181.253L129.083 183.775C129.251 183.873 129.529 183.88 129.71 183.775L134.078 181.253C134.248 181.155 134.249 180.988 134.08 180.89L129.741 178.368C129.56 178.263 129.283 178.27 129.114 178.368L124.745 180.89ZM116.929 185.403C116.747 185.507 116.746 185.661 116.927 185.766L121.266 188.288C121.435 188.386 121.712 188.393 121.894 188.288L126.262 185.766C126.443 185.661 126.432 185.501 126.264 185.403L121.924 182.881C121.744 182.776 121.478 182.776 121.297 182.881L116.929 185.403ZM144.241 160.595C144.06 160.7 144.071 160.861 144.239 160.959L148.591 163.488C148.759 163.585 149.037 163.592 149.218 163.488L153.586 160.966C153.768 160.861 153.757 160.7 153.588 160.602L149.237 158.073C149.068 157.976 148.791 157.969 148.609 158.073L144.241 160.595ZM136.582 165.017C136.413 165.115 136.412 165.283 136.58 165.381L140.932 167.91C141.1 168.008 141.389 168.008 141.559 167.91L145.939 165.381C146.108 165.283 146.109 165.115 145.941 165.018L141.589 162.489C141.421 162.391 141.132 162.391 140.962 162.489L136.582 165.017ZM128.935 169.433C128.765 169.53 128.764 169.698 128.933 169.796L133.284 172.325C133.453 172.423 133.742 172.423 133.912 172.325L138.28 169.803C138.461 169.698 138.45 169.537 138.282 169.44L133.93 166.911C133.762 166.813 133.484 166.806 133.303 166.911L128.935 169.433ZM121.287 173.848C121.106 173.953 121.117 174.113 121.285 174.211L125.637 176.74C125.806 176.838 126.083 176.845 126.264 176.74L130.632 174.218C130.802 174.12 130.803 173.953 130.635 173.855L126.283 171.326C126.114 171.228 125.825 171.228 125.656 171.326L121.287 173.848ZM113.628 178.27C113.459 178.368 113.458 178.535 113.626 178.633L117.978 181.162C118.146 181.26 118.436 181.26 118.605 181.162L122.985 178.633C123.155 178.535 123.143 178.375 122.975 178.277L118.623 175.748C118.455 175.65 118.178 175.643 118.008 175.741L113.628 178.27ZM105.981 182.685C105.799 182.79 105.811 182.951 105.979 183.048L110.331 185.577C110.499 185.675 110.776 185.682 110.958 185.577L115.326 183.055C115.507 182.951 115.496 182.79 115.328 182.692L110.976 180.163C110.808 180.065 110.53 180.058 110.349 180.163L105.981 182.685ZM98.3215 187.107C98.1521 187.205 98.1511 187.373 98.3194 187.47L102.671 189.999C102.84 190.097 103.129 190.097 103.298 189.999L107.679 187.471C107.848 187.373 107.849 187.205 107.681 187.107L103.329 184.578C103.161 184.48 102.871 184.48 102.702 184.578L98.3215 187.107ZM106.123 191.641C105.954 191.739 105.941 191.9 106.121 192.004L110.461 194.526C110.629 194.624 110.919 194.624 111.088 194.526L118.881 190.027C119.062 189.923 119.051 189.762 118.883 189.664L114.543 187.142C114.363 187.037 114.097 187.037 113.916 187.142L106.123 191.641ZM175.914 160.372C175.745 160.47 175.732 160.63 175.912 160.735L180.252 163.257C180.432 163.362 180.71 163.355 180.879 163.257L192.12 156.767C192.302 156.662 192.302 156.509 192.122 156.404L187.782 153.882C187.602 153.777 187.337 153.777 187.155 153.882L175.914 160.372ZM167.48 165.241C167.311 165.339 167.298 165.5 167.478 165.604L171.818 168.126C171.998 168.231 172.276 168.224 172.445 168.126L176.826 165.598C176.995 165.5 176.996 165.346 176.815 165.241L172.476 162.719C172.295 162.614 172.03 162.614 171.861 162.712L167.48 165.241ZM159.833 169.656C159.652 169.761 159.651 169.915 159.831 170.02L164.171 172.542C164.351 172.646 164.617 172.646 164.798 172.542L169.166 170.02C169.348 169.915 169.349 169.761 169.168 169.656L164.828 167.134C164.648 167.03 164.383 167.03 164.201 167.134L159.833 169.656ZM152.174 174.078C152.004 174.176 151.991 174.337 152.172 174.442L156.512 176.964C156.692 177.069 156.969 177.062 157.139 176.964L161.519 174.435C161.688 174.337 161.701 174.176 161.521 174.072L157.181 171.55C157.001 171.445 156.723 171.452 156.554 171.55L152.174 174.078ZM144.527 178.494C144.357 178.591 144.344 178.752 144.525 178.857L148.864 181.379C149.045 181.484 149.322 181.477 149.491 181.379L153.86 178.857C154.041 178.752 154.042 178.598 153.862 178.494L149.522 175.972C149.342 175.867 149.076 175.867 148.895 175.972L144.527 178.494ZM136.879 182.909C136.698 183.014 136.697 183.167 136.877 183.272L141.217 185.794C141.397 185.899 141.663 185.899 141.844 185.794L146.212 183.272C146.382 183.174 146.395 183.014 146.214 182.909L141.875 180.387C141.694 180.282 141.417 180.289 141.247 180.387L136.879 182.909ZM129.22 187.331C129.051 187.429 129.038 187.589 129.218 187.694L133.558 190.216C133.738 190.321 134.015 190.314 134.185 190.216L138.565 187.687C138.734 187.589 138.735 187.436 138.555 187.331L134.215 184.809C134.035 184.704 133.77 184.704 133.6 184.802L129.22 187.331ZM113.913 196.168C113.744 196.266 113.731 196.427 113.911 196.531L118.251 199.053C118.431 199.158 118.709 199.151 118.878 199.053L131.063 192.019C131.244 191.914 131.245 191.76 131.065 191.655L126.725 189.133C126.545 189.029 126.28 189.029 126.098 189.133L113.913 196.168ZM183.428 164.738C183.258 164.836 183.245 164.997 183.426 165.102L187.765 167.624C187.946 167.728 188.223 167.721 188.393 167.624L199.633 161.134C199.815 161.029 199.816 160.875 199.636 160.77L195.296 158.248C195.115 158.143 194.85 158.143 194.669 158.248L183.428 164.738ZM185.002 169.582L142.042 194.387C141.868 194.482 141.598 194.498 141.408 194.387L137.075 191.863C136.885 191.768 136.901 191.593 137.075 191.498L180.035 166.694C180.209 166.598 180.479 166.583 180.67 166.694L185.002 169.217C185.192 169.328 185.177 169.487 185.002 169.582Z" fill="#4D5C75"/>
<path d="M107.674 188.247L103.296 190.768C103.14 190.866 102.847 190.866 102.671 190.768L98.3134 188.247C98.2352 188.189 98.1962 188.13 98.1962 188.071V187.29C98.1962 187.348 98.2352 187.427 98.3134 187.466L102.671 190.006C102.847 190.104 103.12 190.104 103.296 190.006L107.674 187.466C107.771 187.427 107.81 187.348 107.81 187.29V188.052C107.81 188.13 107.771 188.189 107.674 188.247ZM105.974 183.811C105.895 183.772 105.856 183.714 105.856 183.636V182.873C105.856 182.932 105.895 182.991 105.974 183.049L110.331 185.57C110.507 185.668 110.781 185.687 110.957 185.57L115.334 183.049C115.412 183.01 115.451 182.932 115.451 182.873V183.655C115.451 183.714 115.412 183.772 115.334 183.831L110.957 186.352C110.781 186.45 110.507 186.45 110.331 186.352L105.974 183.811ZM121.294 174.979C121.196 174.94 121.157 174.862 121.157 174.803V174.021C121.157 174.099 121.196 174.158 121.294 174.217L125.632 176.737C125.808 176.835 126.082 176.835 126.257 176.737L130.635 174.217C130.713 174.178 130.752 174.099 130.752 174.041L130.771 174.803C130.771 174.881 130.713 174.94 130.635 174.998L126.257 177.519C126.082 177.617 125.808 177.617 125.632 177.519L121.294 174.979ZM137.533 179.258L141.89 176.737C141.988 176.698 142.027 176.62 142.027 176.562V177.324C142.027 177.402 141.988 177.46 141.89 177.519L137.533 180.04C137.357 180.138 137.064 180.138 136.907 180.04L132.569 177.519C132.472 177.46 132.432 177.402 132.432 177.324V176.562C132.432 176.62 132.472 176.679 132.569 176.737L136.907 179.258C137.064 179.356 137.337 179.376 137.533 179.258ZM137.767 196.767L137.787 197.51C137.787 197.588 137.728 197.647 137.65 197.686L126.394 204.193C126.218 204.291 125.945 204.291 125.769 204.193L121.431 201.672C121.333 201.614 121.294 201.555 121.294 201.496V200.715C121.294 200.773 121.333 200.851 121.431 200.891L125.769 203.411C125.945 203.529 126.218 203.509 126.394 203.411L137.65 196.924C137.709 196.865 137.767 196.826 137.767 196.767ZM136.575 166.146C136.497 166.107 136.458 166.048 136.458 165.97V165.208C136.458 165.267 136.497 165.325 136.575 165.384L140.933 167.905C141.109 168.003 141.382 168.003 141.558 167.905L145.936 165.384C146.033 165.325 146.072 165.267 146.072 165.189V165.97C146.072 166.029 146.033 166.107 145.936 166.146L141.558 168.686C141.382 168.784 141.109 168.784 140.933 168.686L136.575 166.146ZM113.634 179.415C113.536 179.356 113.497 179.297 113.497 179.219V178.457C113.497 178.516 113.536 178.594 113.634 178.633L117.972 181.154C118.148 181.251 118.441 181.251 118.597 181.154L122.994 178.633C123.072 178.594 123.111 178.516 123.111 178.457V179.239C123.111 179.297 123.072 179.356 122.994 179.415L118.617 181.935C118.441 182.033 118.148 182.033 117.972 181.935L113.634 179.415ZM129.228 188.462C129.13 188.423 129.091 188.345 129.091 188.286V187.524C129.091 187.583 129.13 187.642 129.208 187.7L133.566 190.221C133.742 190.319 134.015 190.319 134.191 190.221L138.568 187.681C138.647 187.642 138.686 187.583 138.686 187.505V188.286C138.686 188.345 138.647 188.404 138.568 188.462L134.191 190.983C134.015 191.081 133.742 191.1 133.566 190.983L129.228 188.462ZM128.817 170.387L128.798 169.625C128.798 169.683 128.856 169.742 128.935 169.8L133.292 172.321C133.449 172.419 133.742 172.419 133.918 172.321L138.275 169.8C138.373 169.742 138.412 169.683 138.412 169.625V170.387C138.412 170.465 138.373 170.523 138.275 170.582L133.918 173.103C133.742 173.2 133.449 173.2 133.292 173.103L128.935 170.562C128.856 170.523 128.817 170.445 128.817 170.387ZM121.9 188.286L126.257 185.766C126.355 185.707 126.394 185.648 126.394 185.59V186.352C126.394 186.43 126.355 186.489 126.257 186.547L121.9 189.068C121.724 189.166 121.431 189.166 121.274 189.068L116.936 186.547C116.839 186.489 116.799 186.43 116.799 186.352V185.59C116.799 185.648 116.839 185.707 116.936 185.766L121.274 188.286C121.431 188.384 121.704 188.384 121.9 188.286ZM118.89 190.807L111.093 195.302C110.918 195.399 110.624 195.399 110.468 195.302L106.13 192.781C106.032 192.722 105.993 192.664 105.993 192.605V191.823C105.993 191.882 106.032 191.96 106.13 191.999L110.468 194.52C110.624 194.618 110.918 194.618 111.093 194.52L118.89 190.026C118.969 189.967 119.008 189.908 119.008 189.85V190.612C119.008 190.69 118.969 190.749 118.89 190.807ZM129.091 184.554L124.753 182.033C124.655 181.975 124.616 181.916 124.616 181.838V181.076C124.616 181.134 124.655 181.193 124.753 181.251L129.091 183.772C129.247 183.87 129.521 183.87 129.716 183.772L134.074 181.251C134.172 181.212 134.211 181.134 134.211 181.076V181.838C134.211 181.916 134.172 181.975 134.074 182.033L129.716 184.554C129.54 184.652 129.247 184.652 129.091 184.554ZM131.065 192.8L118.871 199.835C118.715 199.933 118.441 199.933 118.246 199.835L113.907 197.295C113.829 197.256 113.79 197.197 113.79 197.119V196.357C113.79 196.416 113.829 196.474 113.907 196.533L118.246 199.054C118.441 199.151 118.715 199.151 118.871 199.054L131.065 192.019C131.162 191.96 131.201 191.902 131.201 191.843V192.605C131.201 192.664 131.162 192.742 131.065 192.8ZM141.226 186.567L136.888 184.046C136.79 183.987 136.751 183.929 136.751 183.87V183.088C136.751 183.147 136.79 183.225 136.868 183.264L141.226 185.785C141.402 185.902 141.656 185.902 141.851 185.785L146.209 183.264C146.307 183.225 146.346 183.147 146.346 183.088V183.87C146.346 183.929 146.307 183.987 146.209 184.046L141.851 186.567C141.656 186.664 141.402 186.664 141.226 186.567ZM151.896 157.313C151.798 157.274 151.759 157.196 151.759 157.138V156.356C151.759 156.434 151.798 156.493 151.896 156.551L156.234 159.072C156.41 159.17 156.703 159.17 156.859 159.072L161.236 156.551C161.334 156.493 161.373 156.434 161.373 156.375V157.138C161.373 157.216 161.334 157.274 161.256 157.313L156.859 159.854C156.703 159.952 156.41 159.952 156.234 159.854L151.896 157.313ZM164.168 173.318L159.829 170.797C159.751 170.738 159.693 170.68 159.693 170.621V169.839C159.693 169.898 159.751 169.976 159.829 170.015L164.168 172.536C164.343 172.653 164.617 172.653 164.793 172.536L169.17 170.015C169.248 169.976 169.307 169.898 169.307 169.839V170.602C169.307 170.68 169.268 170.738 169.17 170.797L164.793 173.318C164.617 173.415 164.363 173.415 164.168 173.318ZM148.867 182.15L144.528 179.63C144.431 179.571 144.392 179.512 144.392 179.454V178.672C144.392 178.75 144.431 178.809 144.528 178.848L148.867 181.388C149.043 181.486 149.316 181.486 149.492 181.388L153.869 178.848C153.928 178.809 153.987 178.75 153.987 178.692L154.006 179.454C154.006 179.512 153.947 179.571 153.869 179.63L149.492 182.15C149.316 182.248 149.043 182.248 148.867 182.15ZM153.146 170.25L157.524 167.709C157.621 167.67 157.66 167.592 157.66 167.534V168.296C157.66 168.374 157.621 168.432 157.524 168.491L153.146 171.012C152.99 171.11 152.697 171.11 152.521 171.012L148.183 168.491C148.105 168.452 148.046 168.374 148.046 168.315V167.534C148.046 167.612 148.085 167.67 148.183 167.729L152.521 170.25C152.697 170.348 152.97 170.348 153.146 170.25ZM145.33 174.764L149.707 172.223C149.805 172.184 149.844 172.106 149.844 172.048V172.81C149.844 172.888 149.805 172.946 149.707 173.005L145.33 175.526C145.173 175.624 144.88 175.624 144.704 175.526L140.366 173.005C140.288 172.946 140.23 172.888 140.23 172.829V172.048C140.23 172.126 140.269 172.184 140.366 172.243L144.704 174.764C144.88 174.862 145.154 174.862 145.33 174.764ZM156.507 177.734L152.169 175.213C152.091 175.155 152.052 175.096 152.052 175.037L152.032 174.256C152.032 174.334 152.091 174.392 152.169 174.451L156.507 176.972C156.683 177.07 156.976 177.07 157.133 176.972L161.51 174.432C161.608 174.392 161.647 174.314 161.647 174.256V175.018C161.647 175.096 161.608 175.155 161.529 175.213L157.133 177.734C156.976 177.832 156.703 177.832 156.507 177.734ZM159.556 152.897C159.458 152.838 159.419 152.78 159.419 152.721V151.94C159.419 151.998 159.458 152.076 159.536 152.115L163.894 154.656C164.07 154.753 164.343 154.753 164.519 154.656L168.897 152.135C168.975 152.076 169.014 152.018 169.014 151.94V152.721C169.014 152.78 168.975 152.858 168.897 152.897L164.519 155.418C164.343 155.535 164.07 155.516 163.894 155.418L159.556 152.897ZM144.235 161.73C144.157 161.691 144.118 161.613 144.118 161.554V160.772C144.118 160.85 144.157 160.909 144.235 160.968L148.593 163.489C148.769 163.586 149.043 163.586 149.218 163.489L153.596 160.968C153.674 160.909 153.713 160.85 153.713 160.792V161.554C153.713 161.613 153.674 161.691 153.596 161.73L149.218 164.251C149.043 164.368 148.769 164.348 148.593 164.251L144.235 161.73ZM160.963 165.736L165.34 163.195C165.399 163.156 165.457 163.117 165.457 163.059L165.477 163.801C165.477 163.86 165.438 163.918 165.34 163.977L160.963 166.498C160.806 166.596 160.513 166.596 160.337 166.498L155.999 163.977C155.921 163.938 155.863 163.86 155.863 163.801V163.02C155.863 163.098 155.902 163.156 155.999 163.215L160.337 165.736C160.513 165.833 160.787 165.833 160.963 165.736ZM167.079 148.305L167.06 147.523C167.06 147.601 167.118 147.66 167.196 147.699L171.554 150.239C171.711 150.337 172.004 150.337 172.179 150.239L176.537 147.719C176.635 147.66 176.674 147.601 176.674 147.523V148.305C176.674 148.364 176.635 148.442 176.537 148.481L172.179 151.002C172.004 151.099 171.711 151.099 171.554 151.002L167.196 148.481C167.118 148.422 167.079 148.364 167.079 148.305ZM168.154 161.984L163.816 159.463C163.738 159.424 163.679 159.346 163.679 159.287V158.525C163.679 158.584 163.718 158.642 163.816 158.701L168.154 161.222C168.33 161.319 168.603 161.319 168.779 161.222L173.157 158.701C173.235 158.642 173.274 158.584 173.274 158.506L173.293 159.287C173.293 159.346 173.235 159.424 173.157 159.463L168.779 161.984C168.623 162.081 168.33 162.081 168.154 161.984ZM184.999 169.585C185.096 169.527 185.135 169.468 185.135 169.39V170.172C185.135 170.23 185.096 170.308 184.999 170.348L142.047 195.165C141.871 195.263 141.597 195.263 141.421 195.165L137.064 192.644C136.986 192.586 136.946 192.527 136.946 192.449V191.687C136.946 191.745 136.986 191.823 137.064 191.862L141.402 194.383C141.597 194.501 141.871 194.481 142.047 194.383L184.999 169.585ZM171.828 168.901L167.49 166.381C167.392 166.322 167.353 166.263 167.353 166.205V165.423C167.353 165.482 167.392 165.56 167.47 165.599L171.828 168.12C172.004 168.237 172.277 168.217 172.453 168.12L176.83 165.599C176.908 165.54 176.948 165.482 176.948 165.423V166.205C176.948 166.263 176.908 166.322 176.83 166.361L172.453 168.901C172.277 168.999 172.004 168.999 171.828 168.901ZM176.557 156.727L184.334 152.233C184.412 152.194 184.471 152.115 184.471 152.057V152.838C184.471 152.897 184.432 152.956 184.334 153.014L176.557 157.509C176.361 157.607 176.088 157.607 175.931 157.509L171.593 154.988C171.496 154.929 171.456 154.871 171.456 154.793V154.03C171.456 154.089 171.496 154.167 171.574 154.206L175.931 156.727C176.088 156.825 176.361 156.844 176.557 156.727ZM180.875 163.254L192.112 156.766C192.209 156.708 192.248 156.649 192.248 156.59L192.268 157.353C192.268 157.431 192.209 157.489 192.131 157.548L180.875 164.036C180.719 164.133 180.426 164.133 180.25 164.036L175.912 161.515C175.834 161.456 175.775 161.398 175.775 161.319V160.557C175.775 160.616 175.834 160.675 175.912 160.733L180.25 163.254C180.426 163.371 180.719 163.352 180.875 163.254ZM199.772 160.948V161.73C199.772 161.788 199.733 161.847 199.635 161.906L188.399 168.393C188.223 168.491 187.949 168.491 187.773 168.393L183.435 165.872C183.338 165.814 183.298 165.755 183.298 165.697V164.915C183.298 164.993 183.338 165.052 183.435 165.11L187.773 167.631C187.949 167.729 188.223 167.729 188.399 167.631L199.635 161.124C199.733 161.085 199.772 161.007 199.772 160.948Z" fill="#1C2841"/>
<path d="M121.427 200.535C121.257 200.632 121.244 200.793 121.425 200.898L125.764 203.42C125.945 203.525 126.222 203.518 126.392 203.42L137.645 196.923C137.814 196.825 137.827 196.664 137.647 196.56L133.307 194.038C133.127 193.933 132.849 193.94 132.68 194.038L121.427 200.535Z" fill="#4D5C75"/>
<path d="M168.587 140.392C170.203 139.459 172.834 139.459 174.44 140.392L207.979 159.883C209.585 160.817 209.577 162.34 207.96 163.274L129.387 208.638C127.771 209.571 125.14 209.571 123.534 208.638L89.9947 189.147C88.3886 188.213 88.3971 186.69 90.0137 185.756L168.587 140.392ZM124.854 207.876C125.739 208.391 127.185 208.391 128.076 207.876L206.649 162.512C207.541 161.997 207.546 161.16 206.66 160.645L173.12 141.154C172.235 140.639 170.789 140.639 169.897 141.154L91.3246 186.518C90.4331 187.033 90.4283 187.87 91.3141 188.385L124.854 207.876Z" fill="#DDDDDD"/>
<path d="M190.446 194.48C190.294 194.785 190.091 195.038 189.786 195.242L169.841 206.813C168.775 207.473 167.405 207.473 166.339 206.813L153.651 199.505C153.295 199.302 153.093 199.048 152.94 198.743C152.585 197.982 152.788 196.967 153.651 196.51L173.596 184.939C174.662 184.279 175.982 184.279 177.047 184.939L189.786 192.247C190.598 192.704 190.801 193.719 190.446 194.48Z" fill="#B0B8CF"/>
<path d="M190.446 194.48C190.294 194.785 190.091 195.038 189.786 195.241L169.841 206.813C168.775 207.473 167.405 207.473 166.339 206.813L153.651 199.504C153.296 199.302 153.093 199.048 152.94 198.743C153.042 198.388 153.296 198.134 153.651 197.931L173.596 186.36C174.662 185.7 175.982 185.7 177.048 186.36L189.786 193.668C190.142 193.871 190.345 194.125 190.446 194.48Z" fill="#D3D3D3"/>
<path d="M92.9979 179.542C93.1703 179.44 93.4055 179.456 93.672 179.605C94.2285 179.926 94.6517 180.71 94.6517 181.337L172.009 136.599C172.009 135.972 171.585 135.188 171.037 134.875C170.77 134.718 170.527 134.71 170.355 134.812L92.9979 179.542Z" fill="#101C32"/>
<path d="M93.6748 179.606C93.1294 179.291 92.6975 179.578 92.6957 180.205L94.6524 181.334C94.6542 180.707 94.2253 179.924 93.6748 179.606Z" fill="#4D5C75"/>
<path d="M172.159 65.97L172.147 65.985V65.9775L172.159 65.97Z" fill="white"/>
<path d="M144.041 144.51L142.395 143.55L142.32 117.375L143.97 118.335L144.041 144.51Z" fill="#DEDFFB"/>
<path d="M143.97 118.335L142.32 117.375L170.145 101.31L171.795 102.27L143.97 118.335Z" fill="#F3F1FC"/>
<path d="M171.795 102.27L171.87 128.441L144.041 144.51L143.97 118.335L171.795 102.27Z" fill="white"/>
<path d="M112.459 162.743L110.809 161.786L110.738 135.611L112.384 136.571L112.459 162.743Z" fill="#DEDFFB"/>
<path d="M112.384 136.571L110.738 135.611L138.57 119.542L140.216 120.502L112.384 136.571Z" fill="#F3F1FC"/>
<path d="M140.216 120.503L140.291 146.674L112.459 162.743L112.384 136.571L140.216 120.503Z" fill="white"/>
<path d="M80.865 180.986L79.215 180.026L79.14 153.851L80.79 154.811L80.865 180.986Z" fill="#DEDFFB"/>
<path d="M80.79 154.811L79.14 153.851L106.973 137.782L108.623 138.742L80.79 154.811Z" fill="#F3F1FC"/>
<path d="M108.623 138.742L108.698 164.917L80.865 180.986L80.79 154.811L108.623 138.742Z" fill="white"/>
<path d="M80.7787 149.002L79.1325 148.042L79.0575 121.867L80.7075 122.827L80.7787 149.002Z" fill="#DEDFFB"/>
<path d="M80.7075 122.828L79.0575 121.868L106.89 105.799L108.54 106.759L80.7075 122.828Z" fill="#F3F1FC"/>
<path d="M108.54 106.759L108.611 132.934L80.7788 149.003L80.7075 122.828L108.54 106.759Z" fill="white"/>
<path d="M112.376 130.759L110.726 129.803L110.651 103.628L112.301 104.588L112.376 130.759Z" fill="#DEDFFB"/>
<path d="M112.301 104.587L110.651 103.627L138.48 87.5625L140.126 88.5188L112.301 104.587Z" fill="#F3F1FC"/>
<path d="M140.126 88.5187L140.201 114.694L112.376 130.759L112.301 104.587L140.126 88.5187Z" fill="white"/>
<path d="M143.959 112.526L142.309 111.566L142.234 85.3912L143.884 86.3512L143.959 112.526Z" fill="#DEDFFB"/>
<path d="M143.884 86.3513L142.234 85.3913L170.066 69.3225L171.716 70.2825L143.884 86.3513Z" fill="#F3F1FC"/>
<path d="M171.716 70.2825L171.791 96.4575L143.959 112.526L143.884 86.3513L171.716 70.2825Z" fill="white"/>
<path d="M93.6551 125.783C93.6551 126.811 92.9412 128.067 92.0417 128.582C91.1565 129.095 90.4283 128.682 90.4283 127.653C90.414 126.625 91.1422 125.383 92.0417 124.855C92.9269 124.341 93.6551 124.755 93.6551 125.783Z" fill="#FFD06C"/>
<path d="M106.77 128.723L90.36 138.199L82.5487 142.706L88.9425 129.863L92.6962 133.028L98.5275 120.116L106.77 128.723Z" fill="#78E75A"/>
<path d="M126.317 133.802C130.075 131.632 133.132 133.374 133.144 137.695C133.156 142.013 130.12 147.273 126.362 149.442C122.604 151.612 119.545 149.871 119.533 145.553C119.521 141.233 122.559 135.972 126.317 133.802ZM124.451 147.187L130.61 139.158L124.426 138.253L124.451 147.187Z" fill="#F45170"/>
<path d="M124.425 138.255L130.609 139.159L124.451 147.188L124.425 138.255Z" fill="#FDFEFE"/>
<path d="M159.839 94.8722C160.002 94.7782 160.132 94.852 160.132 95.039L160.14 97.6506C160.14 97.8375 160.011 98.0604 159.849 98.1543L155.836 100.471C155.674 100.565 155.544 100.491 155.544 100.304L155.536 97.6925C155.536 97.5055 155.664 97.2826 155.827 97.1887L159.839 94.8722Z" fill="#DBA660"/>
<path d="M158.449 91.4512L158.46 95.6625L157.208 96.3862L157.196 92.175L158.449 91.4512Z" fill="#C9CEE2"/>
<path d="M166.899 90.7964C167.056 90.7057 167.191 90.7763 167.192 90.9633L167.199 93.5748C167.2 93.7618 167.065 93.9879 166.908 94.0786L162.896 96.3951C162.733 96.489 162.604 96.4152 162.603 96.2282L162.596 93.6167C162.595 93.4297 162.724 93.2069 162.887 93.1129L166.899 90.7964Z" fill="#78E75A"/>
<path d="M159.803 82.1047C159.966 82.0108 160.095 82.0846 160.096 82.2716L160.103 84.8831C160.104 85.0636 159.975 85.2929 159.812 85.3869L155.8 87.7034C155.637 87.7974 155.508 87.7171 155.507 87.5366L155.5 84.925C155.499 84.738 155.628 84.5152 155.791 84.4212L159.803 82.1047Z" fill="#F45170"/>
<path d="M152.78 98.948C152.943 98.854 153.072 98.9278 153.073 99.1148L153.08 101.726C153.081 101.913 152.952 102.136 152.789 102.23L148.777 104.547C148.62 104.637 148.485 104.567 148.484 104.38L148.477 101.768C148.476 101.581 148.611 101.355 148.768 101.264L152.78 98.948Z" fill="#FFD06C"/>
<path d="M158.434 86.1825L158.441 90.0187L165.495 85.9462L165.514 91.59L164.269 92.31L164.254 88.0987L158.449 91.4512L157.196 92.175L151.388 95.5275L151.399 99.7387L150.154 100.459L150.139 94.815L157.193 90.7425L157.181 86.9062L158.434 86.1825Z" fill="#C9CEE2"/>
<path d="M161.309 120.861L160.123 121.709C159.986 122.482 159.753 123.269 159.433 124.038L160.181 124.682L158.576 127.456L157.641 127.138C157.13 127.804 156.567 128.4 155.966 128.906L155.833 130.346L153.561 131.657L153.421 130.375C152.819 130.563 152.255 130.619 151.741 130.545L150.811 131.939L149.196 131.024L149.938 129.52C149.614 129.122 149.378 128.607 149.237 127.994L148.05 128.517L148.042 125.909L149.229 125.067C149.365 124.296 149.598 123.512 149.919 122.738L149.171 122.093L150.775 119.322L151.71 119.632C152.221 118.969 152.785 118.373 153.386 117.864L153.518 116.424L155.79 115.113L155.93 116.395C156.532 116.209 157.097 116.154 157.61 116.225L158.541 114.839L160.155 115.751L159.414 117.256C159.737 117.658 159.974 118.171 160.115 118.782L161.302 118.253L161.309 120.861ZM154.684 126.726C156.291 125.799 157.587 123.553 157.582 121.71C157.576 119.864 156.272 119.12 154.665 120.048C153.061 120.974 151.765 123.219 151.77 125.065C151.775 126.909 153.08 127.652 154.684 126.726Z" fill="#4C5C75"/>
<path d="M167.796 123.233L167.152 123.693C167.078 124.114 166.951 124.541 166.777 124.959L167.183 125.309L166.312 126.816L165.803 126.644C165.526 127.005 165.219 127.329 164.893 127.604L164.821 128.386L163.586 129.099L163.51 128.403C163.183 128.505 162.876 128.535 162.597 128.495L162.092 129.252L161.214 128.755L161.617 127.938C161.441 127.722 161.313 127.442 161.236 127.108L160.591 127.393L160.587 125.975L161.232 125.518C161.306 125.099 161.433 124.673 161.607 124.252L161.2 123.902L162.072 122.396L162.58 122.564C162.858 122.204 163.164 121.88 163.491 121.604L163.563 120.822L164.797 120.109L164.874 120.805C165.201 120.705 165.508 120.674 165.786 120.713L166.292 119.96L167.17 120.456L166.766 121.273C166.942 121.492 167.071 121.77 167.147 122.103L167.792 121.815L167.796 123.233ZM164.196 126.419C165.069 125.916 165.774 124.695 165.771 123.694C165.768 122.691 165.059 122.287 164.186 122.791C163.314 123.294 162.61 124.514 162.613 125.517C162.616 126.519 163.325 126.923 164.196 126.419Z" fill="#BF7D5A"/>
<path d="M133.088 102.158C133.148 105.079 131.11 108.706 128.539 110.25C128.509 110.268 128.479 110.286 128.449 110.303C125.927 111.759 123.838 110.637 123.781 107.744C123.717 104.829 125.759 101.199 128.327 99.6568C128.357 99.6389 128.387 99.6212 128.417 99.604C130.945 98.1443 133.032 99.2724 133.088 102.158ZM125.104 106.95C125.078 105.626 125.65 104.058 126.636 102.762L126.355 102.419C125.216 103.919 124.554 105.73 124.587 107.264L125.104 106.95ZM128.357 101.162L128.422 101.125L128.414 100.535L128.349 100.572C127.864 100.863 127.397 101.245 126.955 101.713L127.155 102.148C127.535 101.745 127.941 101.414 128.357 101.162Z" fill="#8FABFE"/>
<path d="M124.059 111.528C124.191 111.64 124.333 111.741 124.486 111.827C124.641 111.913 124.802 111.983 124.968 112.038L123.9 113.898L122.986 113.385L124.059 111.528Z" fill="#1D2943"/>
<path d="M128.414 100.535L128.422 101.125L128.357 101.162C127.941 101.414 127.535 101.745 127.155 102.148L126.955 101.713C127.397 101.245 127.864 100.863 128.349 100.572L128.414 100.535ZM126.355 102.419L126.636 102.762C125.65 104.058 125.078 105.626 125.104 106.95L124.587 107.264C124.554 105.73 125.216 103.919 126.355 102.419Z" fill="white"/>
<path d="M132.383 98.0784C134.591 99.318 134.615 103.408 132.438 107.199C131.342 109.106 129.898 110.578 128.451 111.413C127.221 112.124 125.989 112.373 124.968 112.038C124.802 111.983 124.641 111.913 124.486 111.827C124.333 111.741 124.191 111.64 124.059 111.528C122.283 110.018 122.401 106.24 124.431 102.707C125.526 100.799 126.97 99.3265 128.417 98.491C129.848 97.6648 131.282 97.462 132.383 98.0784ZM128.539 110.25C131.11 108.706 133.148 105.079 133.088 102.158C133.032 99.2724 130.945 98.1443 128.417 99.604C128.387 99.6212 128.357 99.6389 128.327 99.6568C125.759 101.199 123.717 104.829 123.781 107.744C123.838 110.637 125.927 111.759 128.449 110.303C128.479 110.286 128.509 110.268 128.539 110.25Z" fill="#4C5C75"/>
<path d="M122.646 113.39C122.75 113.33 122.853 113.315 122.934 113.359L123.948 113.93C124.108 114.021 124.112 114.314 123.954 114.593L120.207 121.071C120.1 121.259 119.958 121.403 119.816 121.485C119.675 121.567 119.534 121.586 119.427 121.525L118.612 121.068C118.396 120.945 118.392 120.544 118.609 120.171L122.355 113.697C122.436 113.558 122.541 113.451 122.646 113.39Z" fill="#FFD06C"/>
<path d="M89.5416 168.116C88.7774 168.74 87.9901 169.342 87.1918 169.9L87.1221 173.631L89.4625 172.346L89.5416 168.116Z" fill="#FFDE9B"/>
<path d="M94.1889 163.785C93.4294 164.576 92.6427 165.355 91.8289 166.113L91.7357 171.098L94.0762 169.813L94.1889 163.785Z" fill="#F45170"/>
<path d="M103.386 151.574C102.8 152.533 102.02 153.754 101.08 155.139L101.11 165.884L103.422 164.549L103.386 151.574Z" fill="#BF7D5A"/>
<path d="M98.839 158.265C98.1245 159.218 97.3553 160.202 96.5312 161.2L96.552 168.515L98.8643 167.18L98.839 158.265Z" fill="#B28AFD"/>
<path d="M103.914 146.096L101.039 148.048L101.904 148.57C100.06 151.561 93.6405 161.394 85.7373 166.916L85.5745 167.033L85.6845 168.067L85.8474 167.95C94.2467 162.094 101.183 151.256 102.59 148.971L103.357 149.431L103.914 146.096Z" fill="#E3E7F0"/>
<path d="M238.434 148.002L238.408 154.88C238.408 155.354 238.118 155.801 237.513 156.143L201.019 177.35C199.809 178.06 197.862 178.06 196.652 177.35L159.921 156.143C159.289 155.801 159 155.328 159 154.88V147.975C159 148.449 159.316 148.923 159.921 149.265L196.652 170.472C197.862 171.182 199.809 171.182 201.019 170.472L237.539 149.265C238.145 148.923 238.434 148.476 238.434 148.002Z" fill="#434148"/>
<path d="M237.521 146.74C238.731 147.438 238.737 148.564 237.535 149.262L201.018 170.483C199.817 171.181 197.874 171.182 196.665 170.483L159.925 149.272C158.716 148.574 158.693 147.439 159.895 146.74L196.412 125.519C197.613 124.821 199.573 124.83 200.782 125.529L237.521 146.74Z" fill="#B8B8B8"/>
<path d="M182.14 145.702C183.037 143.981 184.736 142.392 187.236 140.948C189.664 139.546 192.317 138.581 195.207 138.061C198.11 137.534 200.973 137.485 203.799 137.901C206.636 138.311 209.171 139.172 211.392 140.462C213.697 141.802 215.032 143.106 215.42 144.39C215.82 145.667 215.215 146.778 213.616 147.701C212.763 148.193 211.839 148.492 210.856 148.603C209.86 148.707 208.891 148.617 207.909 148.311C208.38 149.824 207.558 151.198 205.418 152.434C204.204 153.135 202.824 153.6 201.265 153.836C199.706 154.058 198.137 154.037 196.557 153.759C194.989 153.489 193.554 152.961 192.24 152.198C190.951 151.448 190.057 150.622 189.594 149.713C189.132 148.804 189.101 147.895 189.502 147C189.914 146.098 190.721 145.299 191.935 144.598C192.873 144.057 193.882 143.655 194.962 143.405C196.041 143.155 197.144 143.058 198.282 143.12L196.55 142.114L199.519 140.4L208.548 145.647C209.181 146.014 209.766 146.215 210.305 146.222C210.845 146.243 211.325 146.132 211.733 145.896C212.466 145.473 212.602 144.911 212.174 144.217C211.735 143.516 210.732 142.711 209.18 141.809C207.305 140.719 205.212 140.004 202.914 139.671C200.616 139.338 198.303 139.387 195.952 139.817C193.602 140.247 191.428 141.045 189.409 142.211C187.389 143.377 186.005 144.661 185.29 146.056C184.551 147.451 184.508 148.832 185.159 150.199C185.81 151.566 187.097 152.801 189.008 153.912C190.954 155.043 193.095 155.8 195.441 156.188C197.799 156.57 200.159 156.563 202.558 156.161C204.944 155.751 207.141 154.967 209.16 153.801C210.026 153.301 210.82 152.732 211.531 152.101C212.229 151.476 212.784 150.81 213.183 150.136L216.018 150.949C215.643 151.636 215.028 152.351 214.185 153.086C213.342 153.822 212.404 154.488 211.37 155.085C208.87 156.528 206.144 157.493 203.195 157.993C200.22 158.492 197.309 158.513 194.388 158.055C191.491 157.597 188.884 156.695 186.544 155.335C184.239 153.995 182.713 152.482 181.956 150.803C181.187 149.13 181.244 147.423 182.14 145.702ZM199.027 144.779C197.554 144.772 196.222 145.098 195.056 145.771C193.89 146.444 193.31 147.222 193.342 148.075C193.361 148.936 194.003 149.727 195.257 150.456C196.535 151.198 197.911 151.58 199.408 151.601C200.882 151.622 202.226 151.289 203.392 150.616C204.558 149.942 205.137 149.179 205.118 148.318C205.111 147.451 204.444 146.646 203.155 145.896C201.877 145.154 200.513 144.779 199.027 144.779Z" fill="white"/>
<path d="M741.435 592.713C741.435 593.599 742.138 594.276 742.998 594.276C743.884 594.276 744.587 593.599 744.587 592.713V576.563C744.587 575.703 743.884 575 742.998 575C742.112 575 741.435 575.703 741.435 576.563V592.713Z" fill="white"/>
<path d="M748.654 576.849C748.654 577.787 749.436 578.412 750.451 578.412C751.467 578.412 752.249 577.787 752.249 576.849V576.693C752.249 575.755 751.467 575.156 750.451 575.156C749.436 575.156 748.654 575.755 748.654 576.693V576.849ZM748.889 592.713C748.889 593.599 749.592 594.276 750.451 594.276C751.337 594.276 752.04 593.599 752.04 592.713V581.825C752.04 580.939 751.337 580.236 750.451 580.236C749.566 580.236 748.889 580.939 748.889 581.825V592.713Z" fill="white"/>
<path d="M756.16 592.713C756.16 593.573 756.863 594.276 757.723 594.276C758.608 594.276 759.312 593.573 759.312 592.713V592.01C760.276 593.287 761.708 594.433 764.001 594.433C767.257 594.433 770.383 591.854 770.383 587.295V587.243C770.383 582.658 767.231 580.106 764.001 580.106C761.76 580.106 760.328 581.252 759.312 582.685V576.563C759.312 575.677 758.608 575 757.723 575C756.837 575 756.16 575.677 756.16 576.563V592.713ZM763.245 591.698C761.109 591.698 759.234 589.926 759.234 587.295V587.243C759.234 584.612 761.109 582.841 763.245 582.841C765.381 582.841 767.179 584.586 767.179 587.243V587.295C767.179 590.004 765.407 591.698 763.245 591.698Z" fill="white"/>
<path d="M773.818 592.713C773.818 593.599 774.522 594.276 775.381 594.276C776.267 594.276 776.97 593.599 776.97 592.713V576.563C776.97 575.703 776.267 575 775.381 575C774.496 575 773.818 575.703 773.818 576.563V592.713Z" fill="white"/>
<path d="M787.628 594.459C791.874 594.459 795 591.203 795 587.295V587.243C795 583.31 791.9 580.106 787.68 580.106C783.46 580.106 780.334 583.362 780.334 587.295V587.347C780.334 591.255 783.434 594.459 787.628 594.459ZM787.68 591.698C785.232 591.698 783.486 589.692 783.486 587.295V587.243C783.486 584.847 785.101 582.867 787.628 582.867C790.103 582.867 791.848 584.873 791.848 587.295V587.347C791.848 589.718 790.233 591.698 787.68 591.698Z" fill="white"/>
<path d="M736.96 590.09C735.74 590.65 734.453 591.046 733.208 591.294C728.074 592.314 725.36 589.099 729.634 586.781C730.099 586.529 730.632 586.291 731.228 586.075L732.011 585.826C732.241 585.763 732.463 585.661 732.534 585.515C732.905 584.723 729.731 584.467 727.622 585.589C728.458 585.431 729.186 585.408 729.668 585.609C724.878 586.845 723.788 590.757 726.335 592.642C727.649 593.615 729.127 593.873 731.832 593.682C733.637 593.555 735.48 592.837 736.96 591.969V590.09Z" fill="white"/>
<path d="M734.542 592.784C734.542 593.607 735.171 594.165 736.03 594.165C736.89 594.165 737.478 593.644 737.478 592.784V586.011C737.478 584.214 737.009 582.755 735.993 581.765C735.029 580.776 733.492 580.228 731.434 580.228C729.637 580.228 728.308 580.541 727.006 581.036C726.537 581.218 726.146 581.713 726.146 582.286C726.146 583.016 726.745 583.589 727.475 583.589C727.631 583.589 727.787 583.563 727.97 583.511C728.829 583.172 729.819 582.964 731.018 582.964C733.232 582.964 734.43 584.006 734.43 585.959V585.968L734.542 592.784Z" fill="white"/>
<path d="M733.611 578.379C733.611 578.591 733.273 578.721 732.805 578.721C732.077 578.721 731.583 578.64 730.984 578.282L729.216 577.24C728.956 577.093 728.774 576.93 728.774 576.751C728.774 576.442 729.814 576.116 730.646 576.116C731.192 576.116 731.609 576.295 731.895 576.589L733.377 578.021C733.481 578.119 733.611 578.265 733.611 578.379Z" fill="white"/>
<defs>
<filter id="filter0_d_5176_12019" x="218.547" y="264.422" width="488.789" height="303.062" filterUnits="userSpaceOnUse" color-interpolation-filters="sRGB">
<feFlood flood-opacity="0" result="BackgroundImageFix"/>
<feColorMatrix in="SourceAlpha" type="matrix" values="0 0 0 0 0 0 0 0 0 0 0 0 0 0 0 0 0 0 127 0" result="hardAlpha"/>
<feOffset dx="10" dy="10"/>
<feGaussianBlur stdDeviation="15"/>
<feComposite in2="hardAlpha" operator="out"/>
<feColorMatrix type="matrix" values="0 0 0 0 0 0 0 0 0 0 0 0 0 0 0 0 0 0 0.25 0"/>
<feBlend mode="normal" in2="BackgroundImageFix" result="effect1_dropShadow_5176_12019"/>
<feBlend mode="normal" in="SourceGraphic" in2="effect1_dropShadow_5176_12019" result="shape"/>
</filter>
<linearGradient id="paint0_linear_5176_12019" x1="800" y1="3.19758e-05" x2="-2.41943" y2="596.747" gradientUnits="userSpaceOnUse">
<stop stop-color="#636363"/>
<stop offset="1" stop-color="#131313"/>
</linearGradient>
</defs>
</svg>
