<svg width="800" height="600" viewBox="0 0 800 600" fill="none" xmlns="http://www.w3.org/2000/svg">
<rect width="800" height="600" fill="url(#paint0_linear_5176_12297)"/>
<line x1="91" y1="218" x2="742" y2="218" stroke="#E85859" stroke-width="2"/>
<path d="M375.672 356.201C369.5 356.201 364.783 354.521 361.521 351.162C357.146 347.041 354.959 341.104 354.959 333.35C354.959 325.439 357.146 319.502 361.521 315.537C364.783 312.178 369.5 310.498 375.672 310.498C381.844 310.498 386.561 312.178 389.822 315.537C394.178 319.502 396.355 325.439 396.355 333.35C396.355 341.104 394.178 347.041 389.822 351.162C386.561 354.521 381.844 356.201 375.672 356.201ZM384.197 344.6C386.287 341.963 387.332 338.213 387.332 333.35C387.332 328.506 386.277 324.766 384.168 322.129C382.078 319.473 379.246 318.145 375.672 318.145C372.098 318.145 369.246 319.463 367.117 322.1C364.988 324.736 363.924 328.486 363.924 333.35C363.924 338.213 364.988 341.963 367.117 344.6C369.246 347.236 372.098 348.555 375.672 348.555C379.246 348.555 382.088 347.236 384.197 344.6ZM399.461 323.066H408.836L415.486 346.621L422.283 323.066H431.248L419.734 355H410.916L399.461 323.066ZM463.328 345.625C463.113 347.52 462.127 349.443 460.369 351.396C457.635 354.502 453.807 356.055 448.885 356.055C444.822 356.055 441.238 354.746 438.133 352.129C435.027 349.512 433.475 345.254 433.475 339.355C433.475 333.828 434.871 329.59 437.664 326.641C440.477 323.691 444.119 322.217 448.592 322.217C451.248 322.217 453.641 322.715 455.77 323.711C457.898 324.707 459.656 326.279 461.043 328.428C462.293 330.322 463.104 332.52 463.475 335.02C463.689 336.484 463.777 338.594 463.738 341.348H441.883C442 344.551 443.006 346.797 444.9 348.086C446.053 348.887 447.439 349.287 449.061 349.287C450.779 349.287 452.176 348.799 453.25 347.822C453.836 347.295 454.354 346.562 454.803 345.625H463.328ZM455.066 335.84C454.93 333.633 454.256 331.963 453.045 330.83C451.854 329.678 450.369 329.102 448.592 329.102C446.658 329.102 445.154 329.707 444.08 330.918C443.025 332.129 442.361 333.77 442.088 335.84H455.066ZM485.447 330.771C482.088 330.771 479.832 331.865 478.68 334.053C478.035 335.283 477.713 337.178 477.713 339.736V355H469.305V323.066H477.273V328.633C478.562 326.504 479.686 325.049 480.643 324.268C482.205 322.959 484.236 322.305 486.736 322.305C486.893 322.305 487.02 322.314 487.117 322.334C487.234 322.334 487.479 322.344 487.85 322.363V330.918C487.322 330.859 486.854 330.82 486.443 330.801C486.033 330.781 485.701 330.771 485.447 330.771ZM489.637 323.066H499.012L505.662 346.621L512.459 323.066H521.424L509.91 355H501.092L489.637 323.066ZM534.754 323.066V355H526.287V323.066H534.754ZM534.754 311.553V319.258H526.287V311.553H534.754ZM570.203 345.625C569.988 347.52 569.002 349.443 567.244 351.396C564.51 354.502 560.682 356.055 555.76 356.055C551.697 356.055 548.113 354.746 545.008 352.129C541.902 349.512 540.35 345.254 540.35 339.355C540.35 333.828 541.746 329.59 544.539 326.641C547.352 323.691 550.994 322.217 555.467 322.217C558.123 322.217 560.516 322.715 562.645 323.711C564.773 324.707 566.531 326.279 567.918 328.428C569.168 330.322 569.979 332.52 570.35 335.02C570.564 336.484 570.652 338.594 570.613 341.348H548.758C548.875 344.551 549.881 346.797 551.775 348.086C552.928 348.887 554.314 349.287 555.936 349.287C557.654 349.287 559.051 348.799 560.125 347.822C560.711 347.295 561.229 346.562 561.678 345.625H570.203ZM561.941 335.84C561.805 333.633 561.131 331.963 559.92 330.83C558.729 329.678 557.244 329.102 555.467 329.102C553.533 329.102 552.029 329.707 550.955 330.918C549.9 332.129 549.236 333.77 548.963 335.84H561.941ZM600.496 355L595.486 331.738L590.418 355H581.746L572.781 323.066H581.746L586.727 345.977L591.326 323.066H599.793L604.656 346.064L609.637 323.066H618.338L609.08 355H600.496ZM666.297 327.109C668.992 330.488 670.34 334.482 670.34 339.092C670.34 343.779 668.992 347.793 666.297 351.133C663.602 354.453 659.51 356.113 654.021 356.113C648.533 356.113 644.441 354.453 641.746 351.133C639.051 347.793 637.703 343.779 637.703 339.092C637.703 334.482 639.051 330.488 641.746 327.109C644.441 323.73 648.533 322.041 654.021 322.041C659.51 322.041 663.602 323.73 666.297 327.109ZM653.992 329.102C651.551 329.102 649.666 329.971 648.338 331.709C647.029 333.428 646.375 335.889 646.375 339.092C646.375 342.295 647.029 344.766 648.338 346.504C649.666 348.242 651.551 349.111 653.992 349.111C656.434 349.111 658.309 348.242 659.617 346.504C660.926 344.766 661.58 342.295 661.58 339.092C661.58 335.889 660.926 333.428 659.617 331.709C658.309 329.971 656.434 329.102 653.992 329.102ZM691.316 311.553V318.35C690.848 318.291 690.057 318.252 688.943 318.232C687.85 318.193 687.088 318.438 686.658 318.965C686.248 319.473 686.043 320.039 686.043 320.664V323.359H691.521V329.248H686.043V355H677.723V329.248H673.064V323.359H677.635V321.309C677.635 317.891 678.211 315.537 679.363 314.248C680.574 312.334 683.494 311.377 688.123 311.377C688.65 311.377 689.129 311.396 689.559 311.436C689.988 311.455 690.574 311.494 691.316 311.553ZM398.582 380.816H407.752L395.594 424H386.98L381.766 398.746L380.242 390.396L378.719 398.746L373.504 424H365.125L352.879 380.816H362.459L368.172 405.543L369.402 412.428L370.662 405.689L375.525 380.816H385.047L390.174 405.543L391.492 412.428L392.811 405.807L398.582 380.816ZM438.836 414.625C438.621 416.52 437.635 418.443 435.877 420.396C433.143 423.502 429.314 425.055 424.393 425.055C420.33 425.055 416.746 423.746 413.641 421.129C410.535 418.512 408.982 414.254 408.982 408.355C408.982 402.828 410.379 398.59 413.172 395.641C415.984 392.691 419.627 391.217 424.1 391.217C426.756 391.217 429.148 391.715 431.277 392.711C433.406 393.707 435.164 395.279 436.551 397.428C437.801 399.322 438.611 401.52 438.982 404.02C439.197 405.484 439.285 407.594 439.246 410.348H417.391C417.508 413.551 418.514 415.797 420.408 417.086C421.561 417.887 422.947 418.287 424.568 418.287C426.287 418.287 427.684 417.799 428.758 416.822C429.344 416.295 429.861 415.562 430.311 414.625H438.836ZM430.574 404.84C430.438 402.633 429.764 400.963 428.553 399.83C427.361 398.678 425.877 398.102 424.1 398.102C422.166 398.102 420.662 398.707 419.588 399.918C418.533 401.129 417.869 402.77 417.596 404.84H430.574ZM462.244 424.85C459.607 424.85 457.488 424.322 455.887 423.268C454.93 422.643 453.895 421.549 452.781 419.986V424H444.607V380.875H452.928V396.227C453.982 394.742 455.145 393.609 456.414 392.828C457.918 391.852 459.832 391.363 462.156 391.363C466.355 391.363 469.637 392.877 472 395.904C474.383 398.932 475.574 402.838 475.574 407.623C475.574 412.584 474.402 416.695 472.059 419.957C469.715 423.219 466.443 424.85 462.244 424.85ZM466.814 408.502C466.814 406.236 466.521 404.361 465.936 402.877C464.822 400.064 462.771 398.658 459.783 398.658C456.756 398.658 454.676 400.035 453.543 402.789C452.957 404.254 452.664 406.148 452.664 408.473C452.664 411.207 453.27 413.473 454.48 415.27C455.691 417.066 457.537 417.965 460.018 417.965C462.166 417.965 463.836 417.096 465.027 415.357C466.219 413.619 466.814 411.334 466.814 408.502ZM503.582 393.531C506.082 395.133 507.518 397.887 507.889 401.793H499.539C499.422 400.719 499.119 399.869 498.631 399.244C497.713 398.111 496.15 397.545 493.943 397.545C492.127 397.545 490.828 397.828 490.047 398.395C489.285 398.961 488.904 399.625 488.904 400.387C488.904 401.344 489.314 402.037 490.135 402.467C490.955 402.916 493.855 403.688 498.836 404.781C502.156 405.562 504.646 406.744 506.307 408.326C507.947 409.928 508.768 411.93 508.768 414.332C508.768 417.496 507.586 420.084 505.223 422.096C502.879 424.088 499.246 425.084 494.324 425.084C489.305 425.084 485.594 424.029 483.191 421.92C480.809 419.791 479.617 417.086 479.617 413.805H488.084C488.26 415.289 488.641 416.344 489.227 416.969C490.262 418.082 492.176 418.639 494.969 418.639C496.609 418.639 497.908 418.395 498.865 417.906C499.842 417.418 500.33 416.686 500.33 415.709C500.33 414.771 499.939 414.059 499.158 413.57C498.377 413.082 495.477 412.242 490.457 411.051C486.844 410.152 484.295 409.029 482.811 407.682C481.326 406.354 480.584 404.439 480.584 401.939C480.584 398.99 481.736 396.461 484.041 394.352C486.365 392.223 489.627 391.158 493.826 391.158C497.811 391.158 501.062 391.949 503.582 393.531ZM523.562 392.066V424H515.096V392.066H523.562ZM523.562 380.553V388.258H515.096V380.553H523.562ZM546.297 418.053V424.293L542.342 424.439C538.396 424.576 535.701 423.893 534.256 422.389C533.318 421.432 532.85 419.957 532.85 417.965V398.307H528.396V392.359H532.85V383.453H541.111V392.359H546.297V398.307H541.111V415.182C541.111 416.49 541.277 417.311 541.609 417.643C541.941 417.955 542.957 418.111 544.656 418.111C544.91 418.111 545.174 418.111 545.447 418.111C545.74 418.092 546.023 418.072 546.297 418.053ZM578.992 414.625C578.777 416.52 577.791 418.443 576.033 420.396C573.299 423.502 569.471 425.055 564.549 425.055C560.486 425.055 556.902 423.746 553.797 421.129C550.691 418.512 549.139 414.254 549.139 408.355C549.139 402.828 550.535 398.59 553.328 395.641C556.141 392.691 559.783 391.217 564.256 391.217C566.912 391.217 569.305 391.715 571.434 392.711C573.562 393.707 575.32 395.279 576.707 397.428C577.957 399.322 578.768 401.52 579.139 404.02C579.354 405.484 579.441 407.594 579.402 410.348H557.547C557.664 413.551 558.67 415.797 560.564 417.086C561.717 417.887 563.104 418.287 564.725 418.287C566.443 418.287 567.84 417.799 568.914 416.822C569.5 416.295 570.018 415.562 570.467 414.625H578.992ZM570.73 404.84C570.594 402.633 569.92 400.963 568.709 399.83C567.518 398.678 566.033 398.102 564.256 398.102C562.322 398.102 560.818 398.707 559.744 399.918C558.689 401.129 558.025 402.77 557.752 404.84H570.73ZM375.174 493H356.57V449.816H375.174C377.85 449.855 380.076 450.168 381.854 450.754C384.881 451.75 387.332 453.576 389.207 456.232C390.711 458.381 391.736 460.705 392.283 463.205C392.83 465.705 393.104 468.088 393.104 470.354C393.104 476.096 391.951 480.959 389.646 484.943C386.521 490.314 381.697 493 375.174 493ZM381.883 460.832C380.496 458.488 377.752 457.316 373.65 457.316H365.33V485.5H373.65C377.908 485.5 380.877 483.4 382.557 479.201C383.475 476.896 383.934 474.152 383.934 470.969C383.934 466.574 383.25 463.195 381.883 460.832ZM426.59 483.625C426.375 485.52 425.389 487.443 423.631 489.396C420.896 492.502 417.068 494.055 412.146 494.055C408.084 494.055 404.5 492.746 401.395 490.129C398.289 487.512 396.736 483.254 396.736 477.355C396.736 471.828 398.133 467.59 400.926 464.641C403.738 461.691 407.381 460.217 411.854 460.217C414.51 460.217 416.902 460.715 419.031 461.711C421.16 462.707 422.918 464.279 424.305 466.428C425.555 468.322 426.365 470.52 426.736 473.02C426.951 474.484 427.039 476.594 427 479.348H405.145C405.262 482.551 406.268 484.797 408.162 486.086C409.314 486.887 410.701 487.287 412.322 487.287C414.041 487.287 415.438 486.799 416.512 485.822C417.098 485.295 417.615 484.562 418.064 483.625H426.59ZM418.328 473.84C418.191 471.633 417.518 469.963 416.307 468.83C415.115 467.678 413.631 467.102 411.854 467.102C409.92 467.102 408.416 467.707 407.342 468.918C406.287 470.129 405.623 471.77 405.35 473.84H418.328ZM429.52 461.066H438.895L445.545 484.621L452.342 461.066H461.307L449.793 493H440.975L429.52 461.066ZM493.387 483.625C493.172 485.52 492.186 487.443 490.428 489.396C487.693 492.502 483.865 494.055 478.943 494.055C474.881 494.055 471.297 492.746 468.191 490.129C465.086 487.512 463.533 483.254 463.533 477.355C463.533 471.828 464.93 467.59 467.723 464.641C470.535 461.691 474.178 460.217 478.65 460.217C481.307 460.217 483.699 460.715 485.828 461.711C487.957 462.707 489.715 464.279 491.102 466.428C492.352 468.322 493.162 470.52 493.533 473.02C493.748 474.484 493.836 476.594 493.797 479.348H471.941C472.059 482.551 473.064 484.797 474.959 486.086C476.111 486.887 477.498 487.287 479.119 487.287C480.838 487.287 482.234 486.799 483.309 485.822C483.895 485.295 484.412 484.562 484.861 483.625H493.387ZM485.125 473.84C484.988 471.633 484.314 469.963 483.104 468.83C481.912 467.678 480.428 467.102 478.65 467.102C476.717 467.102 475.213 467.707 474.139 468.918C473.084 470.129 472.42 471.77 472.146 473.84H485.125ZM499.627 449.816H507.977V493H499.627V449.816ZM542.781 465.109C545.477 468.488 546.824 472.482 546.824 477.092C546.824 481.779 545.477 485.793 542.781 489.133C540.086 492.453 535.994 494.113 530.506 494.113C525.018 494.113 520.926 492.453 518.23 489.133C515.535 485.793 514.188 481.779 514.188 477.092C514.188 472.482 515.535 468.488 518.23 465.109C520.926 461.73 525.018 460.041 530.506 460.041C535.994 460.041 540.086 461.73 542.781 465.109ZM530.477 467.102C528.035 467.102 526.15 467.971 524.822 469.709C523.514 471.428 522.859 473.889 522.859 477.092C522.859 480.295 523.514 482.766 524.822 484.504C526.15 486.242 528.035 487.111 530.477 487.111C532.918 487.111 534.793 486.242 536.102 484.504C537.41 482.766 538.064 480.295 538.064 477.092C538.064 473.889 537.41 471.428 536.102 469.709C534.793 467.971 532.918 467.102 530.477 467.102ZM579.578 464.494C582.156 467.248 583.445 471.291 583.445 476.623C583.445 482.248 582.176 486.535 579.637 489.484C577.117 492.434 573.865 493.908 569.881 493.908C567.342 493.908 565.232 493.273 563.553 492.004C562.635 491.301 561.736 490.275 560.857 488.928V505.568H552.596V461.066H560.594V465.783C561.492 464.396 562.449 463.303 563.465 462.502C565.32 461.076 567.527 460.363 570.086 460.363C573.816 460.363 576.98 461.74 579.578 464.494ZM574.832 477.033C574.832 474.572 574.266 472.395 573.133 470.5C572.02 468.605 570.203 467.658 567.684 467.658C564.656 467.658 562.576 469.094 561.443 471.965C560.857 473.488 560.564 475.422 560.564 477.766C560.564 481.477 561.551 484.084 563.523 485.588C564.695 486.467 566.082 486.906 567.684 486.906C570.008 486.906 571.775 486.008 572.986 484.211C574.217 482.414 574.832 480.021 574.832 477.033ZM607.439 469.855C606.736 468.312 605.359 467.541 603.309 467.541C600.926 467.541 599.324 468.312 598.504 469.855C598.055 470.734 597.83 472.043 597.83 473.781V493H589.363V461.125H597.479V465.783C598.514 464.123 599.49 462.941 600.408 462.238C602.029 460.988 604.129 460.363 606.707 460.363C609.148 460.363 611.121 460.9 612.625 461.975C613.836 462.971 614.754 464.25 615.379 465.812C616.473 463.938 617.83 462.561 619.451 461.682C621.17 460.803 623.084 460.363 625.193 460.363C626.6 460.363 627.986 460.637 629.354 461.184C630.721 461.73 631.961 462.688 633.074 464.055C633.973 465.168 634.578 466.535 634.891 468.156C635.086 469.23 635.184 470.803 635.184 472.873L635.125 493H626.57V472.668C626.57 471.457 626.375 470.461 625.984 469.68C625.242 468.195 623.875 467.453 621.883 467.453C619.578 467.453 617.986 468.41 617.107 470.324C616.658 471.34 616.434 472.561 616.434 473.986V493H608.025V473.986C608.025 472.092 607.83 470.715 607.439 469.855ZM670.223 483.625C670.008 485.52 669.021 487.443 667.264 489.396C664.529 492.502 660.701 494.055 655.779 494.055C651.717 494.055 648.133 492.746 645.027 490.129C641.922 487.512 640.369 483.254 640.369 477.355C640.369 471.828 641.766 467.59 644.559 464.641C647.371 461.691 651.014 460.217 655.486 460.217C658.143 460.217 660.535 460.715 662.664 461.711C664.793 462.707 666.551 464.279 667.938 466.428C669.188 468.322 669.998 470.52 670.369 473.02C670.584 474.484 670.672 476.594 670.633 479.348H648.777C648.895 482.551 649.9 484.797 651.795 486.086C652.947 486.887 654.334 487.287 655.955 487.287C657.674 487.287 659.07 486.799 660.145 485.822C660.73 485.295 661.248 484.562 661.697 483.625H670.223ZM661.961 473.84C661.824 471.633 661.15 469.963 659.939 468.83C658.748 467.678 657.264 467.102 655.486 467.102C653.553 467.102 652.049 467.707 650.975 468.918C649.92 470.129 649.256 471.77 648.982 473.84H661.961ZM691.316 467.248C688.484 467.248 686.541 468.449 685.486 470.852C684.939 472.121 684.666 473.742 684.666 475.715V493H676.346V461.125H684.402V465.783C685.477 464.143 686.492 462.961 687.449 462.238C689.168 460.949 691.346 460.305 693.982 460.305C697.283 460.305 699.979 461.174 702.068 462.912C704.178 464.631 705.232 467.492 705.232 471.496V493H696.678V473.576C696.678 471.896 696.453 470.607 696.004 469.709C695.184 468.068 693.621 467.248 691.316 467.248ZM727.586 487.053V493.293L723.631 493.439C719.686 493.576 716.99 492.893 715.545 491.389C714.607 490.432 714.139 488.957 714.139 486.965V467.307H709.686V461.359H714.139V452.453H722.4V461.359H727.586V467.307H722.4V484.182C722.4 485.49 722.566 486.311 722.898 486.643C723.23 486.955 724.246 487.111 725.945 487.111C726.199 487.111 726.463 487.111 726.736 487.111C727.029 487.092 727.312 487.072 727.586 487.053Z" fill="#E85859"/>
<path d="M109.078 474.516C91.0443 474.516 78.3815 468.201 71.0898 455.57C63.8633 442.94 60.25 424.939 60.25 401.566C60.25 378.194 63.8633 360.16 71.0898 347.465C78.3815 334.77 91.0443 328.422 109.078 328.422C127.112 328.422 139.775 334.77 147.066 347.465C154.293 360.16 157.906 378.194 157.906 401.566C157.906 424.939 154.26 442.94 146.969 455.57C139.742 468.201 127.112 474.516 109.078 474.516ZM125.387 438.871C127.926 430.277 129.195 417.842 129.195 401.566C129.195 384.509 127.893 371.879 125.289 363.676C122.75 355.473 117.346 351.371 109.078 351.371C100.81 351.371 95.3411 355.473 92.6719 363.676C90.0026 371.879 88.668 384.509 88.668 401.566C88.668 417.842 90.0026 430.31 92.6719 438.969C95.3411 447.562 100.81 451.859 109.078 451.859C117.346 451.859 122.783 447.53 125.387 438.871ZM241.012 471H212.496V373.344H179.195V354.398C187.984 354.008 194.137 353.422 197.652 352.641C203.251 351.404 207.809 348.93 211.324 345.219C213.733 342.68 215.556 339.294 216.793 335.062C217.509 332.523 217.867 330.635 217.867 329.398H241.012V471Z" fill="#E85859" fill-opacity="0.8"/>
<path d="M290 53H297.353V60.2653H304.08V53H311.433V75H304.08V67.6334H297.353V75H290V53ZM321.102 60.2961H314.63V53H334.932V60.2961H328.457V75H321.104L321.102 60.2961ZM338.155 53H345.826L350.542 60.7293L355.25 53H362.92V75H355.596V64.0947L350.538 71.9165H350.412L345.349 64.0947V74.9985H338.154L338.155 53ZM366.579 53H373.934V67.7274H384.274V74.9985H366.579V53Z" fill="#E85859"/>
<g filter="url(#filter0_d_5176_12297)">
<path d="M389.81 82.4789L380.171 190.467L336.841 202.479L293.63 190.483L284 82.4789H389.81Z" fill="#E44D26"/>
<path d="M336.905 193.296L371.918 183.59L380.156 91.3091H336.905V193.296Z" fill="#F16529"/>
<path d="M318.165 117.803H336.904V104.563H303.689L304.006 108.118L307.262 144.62H336.905V131.367H319.376L318.165 117.803ZM321.151 151.237H307.853L309.709 172.035L336.843 179.562L336.904 179.546V165.769L336.846 165.784L322.094 161.801L321.153 151.237H321.151Z" fill="#EBEBEB"/>
<path d="M336.859 144.612H353.17L351.633 161.792L336.858 165.778V179.56L364.012 172.032L364.211 169.794L367.324 134.92L367.646 131.363H336.859V144.612ZM336.859 117.769V117.801H368.852L369.121 114.824L369.725 108.103L370.041 104.549H336.859V117.762V117.769Z" fill="white"/>
</g>
<path d="M533.881 59.583H523.425L534.299 71.3827V77H511.903V70.4226H522.775L511.903 58.623V53H533.881V59.583V59.583ZM507.463 59.583H497.007L507.88 71.3827V77H485.483V70.4226H496.357L485.483 58.623V53H507.463V59.583V59.583ZM481.303 59.8521H470.02V70.1479H481.303V77H462V53H481.303V59.8521V59.8521Z" fill="#E85859"/>
<g filter="url(#filter1_d_5176_12297)">
<path d="M454.63 191.347L445 83.3434H550.808L541.17 191.329L497.839 203.343L454.63 191.347V191.347Z" fill="#1572B6"/>
<path d="M497.906 194.161L532.918 184.454L541.155 92.1751H497.906V194.161Z" fill="#33A9DC"/>
<path d="M497.905 131.304H515.433L516.644 117.74H497.905V104.494H531.121L530.803 108.047L527.548 144.549H497.905V131.304V131.304Z" fill="white"/>
<path d="M497.984 165.706L497.926 165.722L483.174 161.738L482.23 151.174H468.935L470.791 171.972L497.924 179.504L497.986 179.486V165.706H497.984Z" fill="#EBEBEB"/>
<path d="M514.307 143.989L512.711 161.729L497.938 165.716V179.498L525.093 171.972L525.293 169.734L527.598 143.989H514.307V143.989Z" fill="white"/>
<path d="M497.951 104.494V117.739H465.955L465.689 114.762L465.086 108.047L464.769 104.494H497.951ZM497.905 131.305V144.552H483.339L483.074 141.575L482.47 134.859L482.152 131.305H497.905V131.305Z" fill="#EBEBEB"/>
</g>
<defs>
<filter id="filter0_d_5176_12297" x="204" y="2.47888" width="305.81" height="320" filterUnits="userSpaceOnUse" color-interpolation-filters="sRGB">
<feFlood flood-opacity="0" result="BackgroundImageFix"/>
<feColorMatrix in="SourceAlpha" type="matrix" values="0 0 0 0 0 0 0 0 0 0 0 0 0 0 0 0 0 0 127 0" result="hardAlpha"/>
<feOffset dx="20" dy="20"/>
<feGaussianBlur stdDeviation="50"/>
<feComposite in2="hardAlpha" operator="out"/>
<feColorMatrix type="matrix" values="0 0 0 0 0 0 0 0 0 0 0 0 0 0 0 0 0 0 0.25 0"/>
<feBlend mode="normal" in2="BackgroundImageFix" result="effect1_dropShadow_5176_12297"/>
<feBlend mode="normal" in="SourceGraphic" in2="effect1_dropShadow_5176_12297" result="shape"/>
</filter>
<filter id="filter1_d_5176_12297" x="365" y="3.34338" width="305.808" height="320" filterUnits="userSpaceOnUse" color-interpolation-filters="sRGB">
<feFlood flood-opacity="0" result="BackgroundImageFix"/>
<feColorMatrix in="SourceAlpha" type="matrix" values="0 0 0 0 0 0 0 0 0 0 0 0 0 0 0 0 0 0 127 0" result="hardAlpha"/>
<feOffset dx="20" dy="20"/>
<feGaussianBlur stdDeviation="50"/>
<feComposite in2="hardAlpha" operator="out"/>
<feColorMatrix type="matrix" values="0 0 0 0 0 0 0 0 0 0 0 0 0 0 0 0 0 0 0.25 0"/>
<feBlend mode="normal" in2="BackgroundImageFix" result="effect1_dropShadow_5176_12297"/>
<feBlend mode="normal" in="SourceGraphic" in2="effect1_dropShadow_5176_12297" result="shape"/>
</filter>
<linearGradient id="paint0_linear_5176_12297" x1="800" y1="1.57938e-05" x2="-2.41944" y2="596.747" gradientUnits="userSpaceOnUse">
<stop stop-color="#FFF4F4"/>
<stop offset="1" stop-color="#FFBFBF"/>
</linearGradient>
</defs>
</svg>
