<svg width="800" height="600" viewBox="0 0 800 600" fill="none" xmlns="http://www.w3.org/2000/svg">
<rect width="800" height="600" fill="url(#paint0_linear_5189_11861)"/>
<line x1="91" y1="218" x2="742" y2="218" stroke="#E85859" stroke-width="2"/>
<path d="M109.078 474.516C91.0443 474.516 78.3815 468.201 71.0898 455.57C63.8633 442.94 60.25 424.939 60.25 401.566C60.25 378.194 63.8633 360.16 71.0898 347.465C78.3815 334.77 91.0443 328.422 109.078 328.422C127.112 328.422 139.775 334.77 147.066 347.465C154.293 360.16 157.906 378.194 157.906 401.566C157.906 424.939 154.26 442.94 146.969 455.57C139.742 468.201 127.112 474.516 109.078 474.516ZM125.387 438.871C127.926 430.277 129.195 417.842 129.195 401.566C129.195 384.509 127.893 371.879 125.289 363.676C122.75 355.473 117.346 351.371 109.078 351.371C100.81 351.371 95.3411 355.473 92.6719 363.676C90.0026 371.879 88.668 384.509 88.668 401.566C88.668 417.842 90.0026 430.31 92.6719 438.969C95.3411 447.562 100.81 451.859 109.078 451.859C117.346 451.859 122.783 447.53 125.387 438.871ZM226.461 379.105C239.026 379.105 249.312 383.37 257.32 391.898C265.393 400.427 269.43 411.332 269.43 424.613C269.43 437.829 265.491 449.483 257.613 459.574C249.736 469.665 237.496 474.711 220.895 474.711C203.056 474.711 189.905 467.257 181.441 452.348C174.866 440.694 171.578 425.655 171.578 407.23C171.578 396.423 172.034 387.634 172.945 380.863C174.573 368.819 177.73 358.793 182.418 350.785C186.454 343.949 191.728 338.448 198.238 334.281C204.814 330.115 212.659 328.031 221.773 328.031C234.924 328.031 245.406 331.417 253.219 338.188C261.031 344.893 265.426 353.845 266.402 365.043H238.668C238.668 362.764 237.789 360.258 236.031 357.523C233.036 353.096 228.512 350.883 222.457 350.883C213.408 350.883 206.962 355.961 203.121 366.117C201.038 371.716 199.605 379.984 198.824 390.922C202.275 386.82 206.279 383.826 210.836 381.938C215.393 380.049 220.602 379.105 226.461 379.105ZM207.711 405.668C202.242 409.9 199.508 416.736 199.508 426.176C199.508 433.793 201.559 440.01 205.66 444.828C209.762 449.646 214.97 452.055 221.285 452.055C227.47 452.055 232.32 449.743 235.836 445.121C239.417 440.434 241.207 434.379 241.207 426.957C241.207 418.689 239.189 412.374 235.152 408.012C231.116 403.585 226.168 401.371 220.309 401.371C215.556 401.371 211.357 402.803 207.711 405.668Z" fill="#E85859" fill-opacity="0.8"/>
<path d="M290 53H297.353V60.2653H304.08V53H311.433V75H304.08V67.6334H297.353V75H290V53ZM321.102 60.2961H314.63V53H334.932V60.2961H328.457V75H321.104L321.102 60.2961ZM338.155 53H345.826L350.542 60.7293L355.25 53H362.92V75H355.596V64.0947L350.538 71.9165H350.412L345.349 64.0947V74.9985H338.154L338.155 53ZM366.579 53H373.934V67.7274H384.274V74.9985H366.579V53Z" fill="#E85859"/>
<g filter="url(#filter0_d_5189_11861)">
<path d="M389.81 82.479L380.171 190.467L336.841 202.479L293.63 190.483L284 82.479H389.81Z" fill="#E44D26"/>
<path d="M336.905 193.296L371.918 183.59L380.156 91.3091H336.905V193.296Z" fill="#F16529"/>
<path d="M318.165 117.803H336.904V104.563H303.689L304.006 108.118L307.262 144.62H336.905V131.368H319.376L318.165 117.803ZM321.151 151.237H307.853L309.709 172.035L336.843 179.562L336.904 179.546V165.769L336.846 165.784L322.094 161.801L321.153 151.237H321.151Z" fill="#EBEBEB"/>
<path d="M336.859 144.612H353.17L351.633 161.792L336.858 165.779V179.56L364.012 172.032L364.211 169.794L367.324 134.921L367.646 131.364H336.859V144.612ZM336.859 117.769V117.802H368.852L369.121 114.824L369.725 108.103L370.041 104.549H336.859V117.763V117.769Z" fill="white"/>
</g>
<path d="M533.881 59.583H523.425L534.299 71.3827V77H511.903V70.4226H522.775L511.903 58.623V53H533.881V59.583V59.583ZM507.463 59.583H497.007L507.88 71.3827V77H485.483V70.4226H496.357L485.483 58.623V53H507.463V59.583V59.583ZM481.303 59.8521H470.02V70.1479H481.303V77H462V53H481.303V59.8521V59.8521Z" fill="#E85859"/>
<g filter="url(#filter1_d_5189_11861)">
<path d="M454.63 191.347L445 83.3433H550.808L541.17 191.329L497.839 203.343L454.63 191.347V191.347Z" fill="#1572B6"/>
<path d="M497.906 194.161L532.918 184.454L541.155 92.1748H497.906V194.161Z" fill="#33A9DC"/>
<path d="M497.905 131.304H515.433L516.644 117.74H497.905V104.494H531.121L530.803 108.047L527.548 144.549H497.905V131.304V131.304Z" fill="white"/>
<path d="M497.984 165.706L497.926 165.722L483.174 161.738L482.23 151.174H468.935L470.791 171.972L497.924 179.504L497.986 179.486V165.706H497.984Z" fill="#EBEBEB"/>
<path d="M514.307 143.989L512.711 161.729L497.938 165.717V179.498L525.093 171.972L525.293 169.734L527.598 143.989H514.307V143.989Z" fill="white"/>
<path d="M497.951 104.494V117.739H465.955L465.689 114.762L465.086 108.047L464.769 104.494H497.951ZM497.905 131.305V144.552H483.339L483.074 141.575L482.47 134.859L482.152 131.305H497.905V131.305Z" fill="#EBEBEB"/>
</g>
<path d="M372.376 387V364.51H352.688V387H342.264V336.619H352.688V355.828H372.376V336.619H382.835V387H372.376ZM429.524 336.619V345.54H414.451V387H403.855V345.54H388.714V336.619H429.524ZM445.35 387H435.54V336.619H450.853L460.013 376.233L469.104 336.619H484.246V387H474.437V352.923C474.437 351.943 474.448 350.576 474.471 348.821C474.493 347.044 474.505 345.677 474.505 344.72L464.969 387H454.749L445.281 344.72C445.281 345.677 445.293 347.044 445.315 348.821C445.338 350.576 445.35 351.943 445.35 352.923V387ZM494.021 336.619H504.549V377.942H529.5V387H494.021V336.619ZM549.769 376.814V387H539.412V376.814H549.769ZM539.412 361.399V351.214H549.769V361.399H539.412ZM377.879 463.24C374.119 466.681 369.311 468.401 363.455 468.401C356.209 468.401 350.512 466.077 346.365 461.429C342.218 456.757 340.145 450.354 340.145 442.22C340.145 433.424 342.503 426.645 347.22 421.883C351.321 417.736 356.539 415.662 362.874 415.662C371.351 415.662 377.549 418.442 381.468 424.002C383.632 427.124 384.795 430.257 384.954 433.401H374.427C373.743 430.986 372.866 429.163 371.795 427.933C369.881 425.745 367.044 424.651 363.284 424.651C359.456 424.651 356.437 426.201 354.227 429.3C352.016 432.376 350.911 436.74 350.911 442.391C350.911 448.042 352.073 452.28 354.397 455.105C356.744 457.908 359.718 459.31 363.318 459.31C367.01 459.31 369.824 458.102 371.761 455.687C372.832 454.388 373.72 452.439 374.427 449.842H384.852C383.94 455.333 381.616 459.799 377.879 463.24ZM410.862 438.733C406.943 438.733 404.311 440.009 402.967 442.562C402.215 443.997 401.839 446.207 401.839 449.192V467H392.029V429.744H401.326V436.238C402.83 433.755 404.14 432.057 405.257 431.146C407.08 429.619 409.45 428.855 412.366 428.855C412.549 428.855 412.697 428.867 412.811 428.89C412.947 428.89 413.232 428.901 413.665 428.924V438.904C413.05 438.836 412.503 438.79 412.024 438.768C411.546 438.745 411.159 438.733 410.862 438.733ZM451.297 456.062C451.046 458.273 449.896 460.517 447.845 462.796C444.655 466.419 440.188 468.23 434.446 468.23C429.707 468.23 425.525 466.704 421.902 463.65C418.279 460.597 416.468 455.63 416.468 448.748C416.468 442.299 418.097 437.355 421.355 433.914C424.637 430.473 428.886 428.753 434.104 428.753C437.203 428.753 439.995 429.334 442.479 430.496C444.962 431.658 447.013 433.493 448.631 435.999C450.089 438.209 451.035 440.773 451.468 443.689C451.718 445.398 451.821 447.859 451.775 451.072H426.277C426.414 454.809 427.588 457.43 429.798 458.934C431.142 459.868 432.76 460.335 434.651 460.335C436.657 460.335 438.286 459.765 439.539 458.626C440.223 458.011 440.826 457.156 441.351 456.062H451.297ZM441.658 444.646C441.499 442.072 440.713 440.123 439.3 438.802C437.91 437.457 436.178 436.785 434.104 436.785C431.849 436.785 430.094 437.492 428.841 438.904C427.61 440.317 426.836 442.231 426.517 444.646H441.658ZM459.773 433.777C462.348 430.496 466.769 428.855 473.035 428.855C477.114 428.855 480.737 429.664 483.904 431.282C487.072 432.9 488.655 435.953 488.655 440.442V457.532C488.655 458.717 488.678 460.153 488.724 461.839C488.792 463.115 488.986 463.981 489.305 464.437C489.624 464.892 490.102 465.268 490.74 465.564V467H480.145C479.848 466.248 479.643 465.542 479.529 464.881C479.415 464.22 479.324 463.468 479.256 462.625C477.911 464.083 476.362 465.325 474.607 466.351C472.511 467.558 470.141 468.162 467.498 468.162C464.126 468.162 461.334 467.205 459.124 465.291C456.937 463.354 455.843 460.62 455.843 457.088C455.843 452.508 457.609 449.192 461.141 447.142C463.077 446.025 465.926 445.228 469.686 444.749L473.001 444.339C474.801 444.111 476.089 443.826 476.863 443.484C478.253 442.892 478.948 441.969 478.948 440.716C478.948 439.189 478.413 438.141 477.342 437.571C476.294 436.979 474.744 436.683 472.693 436.683C470.392 436.683 468.763 437.252 467.806 438.392C467.122 439.235 466.666 440.374 466.438 441.81H457.039C457.244 438.551 458.156 435.874 459.773 433.777ZM467.02 459.959C467.931 460.711 469.048 461.087 470.369 461.087C472.465 461.087 474.391 460.472 476.146 459.241C477.923 458.011 478.846 455.766 478.914 452.508V448.885C478.299 449.272 477.672 449.591 477.034 449.842C476.419 450.07 475.564 450.286 474.471 450.491L472.283 450.901C470.232 451.266 468.763 451.71 467.874 452.234C466.37 453.123 465.618 454.502 465.618 456.37C465.618 458.034 466.085 459.23 467.02 459.959ZM514.393 460.062V467.342L509.778 467.513C505.175 467.672 502.031 466.875 500.345 465.12C499.251 464.004 498.704 462.283 498.704 459.959V437.024H493.509V430.086H498.704V419.695H508.343V430.086H514.393V437.024H508.343V456.712C508.343 458.239 508.536 459.196 508.924 459.583C509.311 459.948 510.496 460.13 512.479 460.13C512.775 460.13 513.082 460.13 513.401 460.13C513.743 460.107 514.074 460.084 514.393 460.062ZM552.537 456.062C552.286 458.273 551.136 460.517 549.085 462.796C545.895 466.419 541.429 468.23 535.687 468.23C530.947 468.23 526.766 466.704 523.143 463.65C519.52 460.597 517.708 455.63 517.708 448.748C517.708 442.299 519.337 437.355 522.596 433.914C525.877 430.473 530.127 428.753 535.345 428.753C538.444 428.753 541.235 429.334 543.719 430.496C546.202 431.658 548.253 433.493 549.871 435.999C551.329 438.209 552.275 440.773 552.708 443.689C552.959 445.398 553.061 447.859 553.016 451.072H527.518C527.654 454.809 528.828 457.43 531.038 458.934C532.382 459.868 534 460.335 535.892 460.335C537.897 460.335 539.526 459.765 540.779 458.626C541.463 458.011 542.067 457.156 542.591 456.062H552.537ZM542.898 444.646C542.739 442.072 541.953 440.123 540.54 438.802C539.15 437.457 537.418 436.785 535.345 436.785C533.089 436.785 531.334 437.492 530.081 438.904C528.851 440.317 528.076 442.231 527.757 444.646H542.898ZM579.881 416.619H590.408V457.942H615.359V467H579.881V416.619ZM631.902 429.744V467H622.024V429.744H631.902ZM631.902 416.312V425.301H622.024V416.312H631.902ZM667.039 431.453C669.956 433.322 671.631 436.535 672.063 441.092H662.322C662.186 439.839 661.832 438.847 661.263 438.118C660.192 436.797 658.369 436.136 655.794 436.136C653.675 436.136 652.16 436.466 651.248 437.127C650.359 437.788 649.915 438.562 649.915 439.451C649.915 440.568 650.394 441.377 651.351 441.878C652.308 442.402 655.691 443.302 661.502 444.578C665.376 445.49 668.281 446.868 670.218 448.714C672.132 450.582 673.089 452.918 673.089 455.721C673.089 459.412 671.71 462.431 668.953 464.778C666.219 467.103 661.98 468.265 656.238 468.265C650.382 468.265 646.053 467.034 643.25 464.573C640.47 462.09 639.08 458.934 639.08 455.105H648.958C649.163 456.837 649.607 458.068 650.291 458.797C651.499 460.096 653.732 460.745 656.99 460.745C658.904 460.745 660.42 460.46 661.536 459.891C662.675 459.321 663.245 458.466 663.245 457.327C663.245 456.233 662.789 455.402 661.878 454.832C660.966 454.262 657.583 453.283 651.727 451.893C647.511 450.844 644.537 449.534 642.806 447.962C641.074 446.412 640.208 444.179 640.208 441.263C640.208 437.822 641.552 434.871 644.241 432.41C646.953 429.926 650.758 428.685 655.657 428.685C660.306 428.685 664.1 429.607 667.039 431.453ZM697.391 460.062V467.342L692.776 467.513C688.174 467.672 685.029 466.875 683.343 465.12C682.249 464.004 681.702 462.283 681.702 459.959V437.024H676.507V430.086H681.702V419.695H691.341V430.086H697.391V437.024H691.341V456.712C691.341 458.239 691.535 459.196 691.922 459.583C692.309 459.948 693.494 460.13 695.477 460.13C695.773 460.13 696.08 460.13 696.399 460.13C696.741 460.107 697.072 460.084 697.391 460.062ZM729.314 431.453C732.231 433.322 733.906 436.535 734.339 441.092H724.598C724.461 439.839 724.108 438.847 723.538 438.118C722.467 436.797 720.644 436.136 718.069 436.136C715.95 436.136 714.435 436.466 713.523 437.127C712.635 437.788 712.19 438.562 712.19 439.451C712.19 440.568 712.669 441.377 713.626 441.878C714.583 442.402 717.967 443.302 723.777 444.578C727.651 445.49 730.556 446.868 732.493 448.714C734.407 450.582 735.364 452.918 735.364 455.721C735.364 459.412 733.986 462.431 731.229 464.778C728.494 467.103 724.256 468.265 718.514 468.265C712.658 468.265 708.328 467.034 705.525 464.573C702.745 462.09 701.355 458.934 701.355 455.105H711.233C711.438 456.837 711.883 458.068 712.566 458.797C713.774 460.096 716.007 460.745 719.266 460.745C721.18 460.745 722.695 460.46 723.812 459.891C724.951 459.321 725.521 458.466 725.521 457.327C725.521 456.233 725.065 455.402 724.153 454.832C723.242 454.262 719.858 453.283 714.002 451.893C709.786 450.844 706.813 449.534 705.081 447.962C703.349 446.412 702.483 444.179 702.483 441.263C702.483 437.822 703.828 434.871 706.517 432.41C709.228 429.926 713.034 428.685 717.933 428.685C722.581 428.685 726.375 429.607 729.314 431.453Z" fill="#E85859"/>
<defs>
<filter id="filter0_d_5189_11861" x="204" y="2.479" width="305.81" height="320" filterUnits="userSpaceOnUse" color-interpolation-filters="sRGB">
<feFlood flood-opacity="0" result="BackgroundImageFix"/>
<feColorMatrix in="SourceAlpha" type="matrix" values="0 0 0 0 0 0 0 0 0 0 0 0 0 0 0 0 0 0 127 0" result="hardAlpha"/>
<feOffset dx="20" dy="20"/>
<feGaussianBlur stdDeviation="50"/>
<feComposite in2="hardAlpha" operator="out"/>
<feColorMatrix type="matrix" values="0 0 0 0 0 0 0 0 0 0 0 0 0 0 0 0 0 0 0.25 0"/>
<feBlend mode="normal" in2="BackgroundImageFix" result="effect1_dropShadow_5189_11861"/>
<feBlend mode="normal" in="SourceGraphic" in2="effect1_dropShadow_5189_11861" result="shape"/>
</filter>
<filter id="filter1_d_5189_11861" x="365" y="3.34326" width="305.808" height="320" filterUnits="userSpaceOnUse" color-interpolation-filters="sRGB">
<feFlood flood-opacity="0" result="BackgroundImageFix"/>
<feColorMatrix in="SourceAlpha" type="matrix" values="0 0 0 0 0 0 0 0 0 0 0 0 0 0 0 0 0 0 127 0" result="hardAlpha"/>
<feOffset dx="20" dy="20"/>
<feGaussianBlur stdDeviation="50"/>
<feComposite in2="hardAlpha" operator="out"/>
<feColorMatrix type="matrix" values="0 0 0 0 0 0 0 0 0 0 0 0 0 0 0 0 0 0 0.25 0"/>
<feBlend mode="normal" in2="BackgroundImageFix" result="effect1_dropShadow_5189_11861"/>
<feBlend mode="normal" in="SourceGraphic" in2="effect1_dropShadow_5189_11861" result="shape"/>
</filter>
<linearGradient id="paint0_linear_5189_11861" x1="800" y1="1.57938e-05" x2="-2.41944" y2="596.747" gradientUnits="userSpaceOnUse">
<stop stop-color="#FFF4F4"/>
<stop offset="1" stop-color="#FFBFBF"/>
</linearGradient>
</defs>
</svg>
