<svg width="800" height="600" viewBox="0 0 800 600" fill="none" xmlns="http://www.w3.org/2000/svg">
<rect width="800" height="600" fill="url(#paint0_linear_5189_11843)"/>
<line x1="91" y1="218" x2="742" y2="218" stroke="#E85859" stroke-width="2"/>
<path d="M109.078 474.516C91.0443 474.516 78.3815 468.201 71.0898 455.57C63.8633 442.94 60.25 424.939 60.25 401.566C60.25 378.194 63.8633 360.16 71.0898 347.465C78.3815 334.77 91.0443 328.422 109.078 328.422C127.112 328.422 139.775 334.77 147.066 347.465C154.293 360.16 157.906 378.194 157.906 401.566C157.906 424.939 154.26 442.94 146.969 455.57C139.742 468.201 127.112 474.516 109.078 474.516ZM125.387 438.871C127.926 430.277 129.195 417.842 129.195 401.566C129.195 384.509 127.893 371.879 125.289 363.676C122.75 355.473 117.346 351.371 109.078 351.371C100.81 351.371 95.3411 355.473 92.6719 363.676C90.0026 371.879 88.668 384.509 88.668 401.566C88.668 417.842 90.0026 430.31 92.6719 438.969C95.3411 447.562 100.81 451.859 109.078 451.859C117.346 451.859 122.783 447.53 125.387 438.871ZM218.648 400.688C215.263 400.688 212.333 401.111 209.859 401.957C205.497 403.52 202.21 406.417 199.996 410.648L174.996 409.477L184.957 331.254H262.984V354.887H205.074L199.996 385.844C204.293 383.044 207.646 381.189 210.055 380.277C214.091 378.78 219.007 378.031 224.801 378.031C236.52 378.031 246.741 381.97 255.465 389.848C264.189 397.725 268.551 409.184 268.551 424.223C268.551 437.309 264.352 448.995 255.953 459.281C247.555 469.568 234.99 474.711 218.258 474.711C204.781 474.711 193.714 471.098 185.055 463.871C176.396 456.645 171.578 446.391 170.602 433.109H198.336C199.443 439.164 201.559 443.852 204.684 447.172C207.809 450.427 212.366 452.055 218.355 452.055C225.257 452.055 230.497 449.646 234.078 444.828C237.724 439.945 239.547 433.826 239.547 426.469C239.547 419.242 237.854 413.155 234.469 408.207C231.083 403.194 225.81 400.688 218.648 400.688Z" fill="#E85859" fill-opacity="0.8"/>
<path d="M290 53H297.353V60.2653H304.08V53H311.433V75H304.08V67.6334H297.353V75H290V53ZM321.102 60.2961H314.63V53H334.932V60.2961H328.457V75H321.104L321.102 60.2961ZM338.155 53H345.826L350.542 60.7293L355.25 53H362.92V75H355.596V64.0947L350.538 71.9165H350.412L345.349 64.0947V74.9985H338.154L338.155 53ZM366.579 53H373.934V67.7274H384.274V74.9985H366.579V53Z" fill="#E85859"/>
<g filter="url(#filter0_d_5189_11843)">
<path d="M389.81 82.479L380.171 190.467L336.841 202.479L293.63 190.483L284 82.479H389.81Z" fill="#E44D26"/>
<path d="M336.905 193.297L371.918 183.59L380.156 91.3093H336.905V193.297Z" fill="#F16529"/>
<path d="M318.165 117.803H336.904V104.563H303.689L304.006 108.118L307.262 144.62H336.905V131.368H319.376L318.165 117.803ZM321.151 151.237H307.853L309.709 172.035L336.843 179.562L336.904 179.546V165.769L336.846 165.784L322.094 161.801L321.153 151.237H321.151Z" fill="#EBEBEB"/>
<path d="M336.859 144.612H353.17L351.633 161.792L336.858 165.779V179.56L364.012 172.032L364.211 169.794L367.324 134.92L367.646 131.363H336.859V144.612ZM336.859 117.769V117.801H368.852L369.121 114.824L369.725 108.103L370.041 104.549H336.859V117.762V117.769Z" fill="white"/>
</g>
<path d="M533.881 59.583H523.425L534.299 71.3827V77H511.903V70.4226H522.775L511.903 58.623V53H533.881V59.583V59.583ZM507.463 59.583H497.007L507.88 71.3827V77H485.483V70.4226H496.357L485.483 58.623V53H507.463V59.583V59.583ZM481.303 59.8521H470.02V70.1479H481.303V77H462V53H481.303V59.8521V59.8521Z" fill="#E85859"/>
<g filter="url(#filter1_d_5189_11843)">
<path d="M454.63 191.347L445 83.3433H550.808L541.17 191.329L497.839 203.343L454.63 191.347V191.347Z" fill="#1572B6"/>
<path d="M497.906 194.161L532.918 184.454L541.155 92.175H497.906V194.161Z" fill="#33A9DC"/>
<path d="M497.905 131.304H515.433L516.644 117.74H497.905V104.494H531.121L530.803 108.047L527.548 144.549H497.905V131.304V131.304Z" fill="white"/>
<path d="M497.984 165.706L497.926 165.722L483.174 161.738L482.23 151.174H468.935L470.791 171.972L497.924 179.504L497.986 179.486V165.706H497.984Z" fill="#EBEBEB"/>
<path d="M514.307 143.989L512.711 161.729L497.938 165.716V179.498L525.093 171.972L525.293 169.734L527.598 143.989H514.307V143.989Z" fill="white"/>
<path d="M497.951 104.494V117.739H465.955L465.689 114.762L465.086 108.047L464.769 104.494H497.951ZM497.905 131.305V144.552H483.339L483.074 141.575L482.47 134.859L482.152 131.305H497.905V131.305Z" fill="#EBEBEB"/>
</g>
<path d="M372.376 387V364.51H352.688V387H342.264V336.619H352.688V355.828H372.376V336.619H382.835V387H372.376ZM429.524 336.619V345.54H414.451V387H403.855V345.54H388.714V336.619H429.524ZM445.35 387H435.54V336.619H450.853L460.013 376.233L469.104 336.619H484.246V387H474.437V352.923C474.437 351.943 474.448 350.576 474.471 348.821C474.493 347.044 474.505 345.677 474.505 344.72L464.969 387H454.749L445.281 344.72C445.281 345.677 445.293 347.044 445.315 348.821C445.338 350.576 445.35 351.943 445.35 352.923V387ZM494.021 336.619H504.549V377.942H529.5V387H494.021V336.619ZM549.769 376.814V387H539.412V376.814H549.769ZM539.412 361.399V351.214H549.769V361.399H539.412ZM371.829 456.644H353.27L349.783 467H338.777L356.756 416.619H368.65L386.492 467H375.076L371.829 456.644ZM368.89 447.962L362.601 428.138L356.106 447.962H368.89ZM426.038 416.688V467H416.57V461.839C415.18 464.049 413.597 465.656 411.819 466.658C410.042 467.661 407.832 468.162 405.188 468.162C400.836 468.162 397.168 466.408 394.183 462.898C391.22 459.367 389.739 454.843 389.739 449.329C389.739 442.972 391.198 437.97 394.114 434.324C397.054 430.678 400.973 428.855 405.872 428.855C408.128 428.855 410.133 429.357 411.888 430.359C413.642 431.339 415.066 432.706 416.16 434.461V416.688H426.038ZM399.788 448.611C399.788 452.052 400.472 454.798 401.839 456.849C403.183 458.922 405.234 459.959 407.991 459.959C410.748 459.959 412.845 458.934 414.28 456.883C415.716 454.832 416.434 452.177 416.434 448.919C416.434 444.362 415.283 441.103 412.981 439.144C411.569 437.959 409.928 437.366 408.06 437.366C405.211 437.366 403.115 438.449 401.771 440.613C400.449 442.755 399.788 445.421 399.788 448.611ZM468.831 416.688V467H459.363V461.839C457.973 464.049 456.39 465.656 454.612 466.658C452.835 467.661 450.625 468.162 447.981 468.162C443.629 468.162 439.961 466.408 436.976 462.898C434.013 459.367 432.532 454.843 432.532 449.329C432.532 442.972 433.991 437.97 436.907 434.324C439.847 430.678 443.766 428.855 448.665 428.855C450.921 428.855 452.926 429.357 454.681 430.359C456.435 431.339 457.859 432.706 458.953 434.461V416.688H468.831ZM442.581 448.611C442.581 452.052 443.265 454.798 444.632 456.849C445.976 458.922 448.027 459.959 450.784 459.959C453.541 459.959 455.638 458.934 457.073 456.883C458.509 454.832 459.227 452.177 459.227 448.919C459.227 444.362 458.076 441.103 455.774 439.144C454.362 437.959 452.721 437.366 450.853 437.366C448.004 437.366 445.908 438.449 444.563 440.613C443.242 442.755 442.581 445.421 442.581 448.611ZM497.986 416.619H508.514V457.942H533.465V467H497.986V416.619ZM550.008 429.744V467H540.13V429.744H550.008ZM550.008 416.312V425.301H540.13V416.312H550.008ZM577.01 436.956C573.706 436.956 571.438 438.357 570.208 441.16C569.57 442.641 569.251 444.533 569.251 446.834V467H559.544V429.812H568.943V435.247C570.197 433.333 571.382 431.954 572.498 431.111C574.503 429.607 577.044 428.855 580.12 428.855C583.971 428.855 587.116 429.869 589.554 431.897C592.015 433.903 593.245 437.241 593.245 441.912V467H583.265V444.339C583.265 442.379 583.003 440.875 582.479 439.827C581.521 437.913 579.699 436.956 577.01 436.956ZM636.448 467H624.69L615.77 451.072L611.736 455.276V467H602.166V416.79H611.736V443.929L623.87 429.915H635.936L622.913 444.168L636.448 467ZM666.902 431.453C669.819 433.322 671.494 436.535 671.927 441.092H662.186C662.049 439.839 661.696 438.847 661.126 438.118C660.055 436.797 658.232 436.136 655.657 436.136C653.538 436.136 652.023 436.466 651.111 437.127C650.223 437.788 649.778 438.562 649.778 439.451C649.778 440.568 650.257 441.377 651.214 441.878C652.171 442.402 655.555 443.302 661.365 444.578C665.239 445.49 668.144 446.868 670.081 448.714C671.995 450.582 672.952 452.918 672.952 455.721C672.952 459.412 671.574 462.431 668.816 464.778C666.082 467.103 661.844 468.265 656.102 468.265C650.245 468.265 645.916 467.034 643.113 464.573C640.333 462.09 638.943 458.934 638.943 455.105H648.821C649.026 456.837 649.471 458.068 650.154 458.797C651.362 460.096 653.595 460.745 656.854 460.745C658.768 460.745 660.283 460.46 661.399 459.891C662.539 459.321 663.108 458.466 663.108 457.327C663.108 456.233 662.653 455.402 661.741 454.832C660.83 454.262 657.446 453.283 651.59 451.893C647.374 450.844 644.401 449.534 642.669 447.962C640.937 446.412 640.071 444.179 640.071 441.263C640.071 437.822 641.416 434.871 644.104 432.41C646.816 429.926 650.621 428.685 655.521 428.685C660.169 428.685 663.963 429.607 666.902 431.453Z" fill="#E85859"/>
<defs>
<filter id="filter0_d_5189_11843" x="204" y="2.479" width="305.81" height="320" filterUnits="userSpaceOnUse" color-interpolation-filters="sRGB">
<feFlood flood-opacity="0" result="BackgroundImageFix"/>
<feColorMatrix in="SourceAlpha" type="matrix" values="0 0 0 0 0 0 0 0 0 0 0 0 0 0 0 0 0 0 127 0" result="hardAlpha"/>
<feOffset dx="20" dy="20"/>
<feGaussianBlur stdDeviation="50"/>
<feComposite in2="hardAlpha" operator="out"/>
<feColorMatrix type="matrix" values="0 0 0 0 0 0 0 0 0 0 0 0 0 0 0 0 0 0 0.25 0"/>
<feBlend mode="normal" in2="BackgroundImageFix" result="effect1_dropShadow_5189_11843"/>
<feBlend mode="normal" in="SourceGraphic" in2="effect1_dropShadow_5189_11843" result="shape"/>
</filter>
<filter id="filter1_d_5189_11843" x="365" y="3.34326" width="305.808" height="320" filterUnits="userSpaceOnUse" color-interpolation-filters="sRGB">
<feFlood flood-opacity="0" result="BackgroundImageFix"/>
<feColorMatrix in="SourceAlpha" type="matrix" values="0 0 0 0 0 0 0 0 0 0 0 0 0 0 0 0 0 0 127 0" result="hardAlpha"/>
<feOffset dx="20" dy="20"/>
<feGaussianBlur stdDeviation="50"/>
<feComposite in2="hardAlpha" operator="out"/>
<feColorMatrix type="matrix" values="0 0 0 0 0 0 0 0 0 0 0 0 0 0 0 0 0 0 0.25 0"/>
<feBlend mode="normal" in2="BackgroundImageFix" result="effect1_dropShadow_5189_11843"/>
<feBlend mode="normal" in="SourceGraphic" in2="effect1_dropShadow_5189_11843" result="shape"/>
</filter>
<linearGradient id="paint0_linear_5189_11843" x1="800" y1="1.57938e-05" x2="-2.41944" y2="596.747" gradientUnits="userSpaceOnUse">
<stop stop-color="#FFF4F4"/>
<stop offset="1" stop-color="#FFBFBF"/>
</linearGradient>
</defs>
</svg>
