<svg width="800" height="600" viewBox="0 0 800 600" fill="none" xmlns="http://www.w3.org/2000/svg">
<rect width="800" height="600" fill="url(#paint0_linear_5189_11933)"/>
<line x1="91" y1="218" x2="742" y2="218" stroke="#E85859" stroke-width="2"/>
<path d="M129.684 471H101.168V373.344H67.8672V354.398C76.6562 354.008 82.8086 353.422 86.3242 352.641C91.9232 351.404 96.4805 348.93 99.9961 345.219C102.405 342.68 104.228 339.294 105.465 335.062C106.181 332.523 106.539 330.635 106.539 329.398H129.684V471ZM220.406 474.516C202.372 474.516 189.71 468.201 182.418 455.57C175.191 442.94 171.578 424.939 171.578 401.566C171.578 378.194 175.191 360.16 182.418 347.465C189.71 334.77 202.372 328.422 220.406 328.422C238.44 328.422 251.103 334.77 258.395 347.465C265.621 360.16 269.234 378.194 269.234 401.566C269.234 424.939 265.589 442.94 258.297 455.57C251.07 468.201 238.44 474.516 220.406 474.516ZM236.715 438.871C239.254 430.277 240.523 417.842 240.523 401.566C240.523 384.509 239.221 371.879 236.617 363.676C234.078 355.473 228.674 351.371 220.406 351.371C212.138 351.371 206.669 355.473 204 363.676C201.331 371.879 199.996 384.509 199.996 401.566C199.996 417.842 201.331 430.31 204 438.969C206.669 447.562 212.138 451.859 220.406 451.859C228.674 451.859 234.111 447.53 236.715 438.871Z" fill="#E85859" fill-opacity="0.8"/>
<path d="M290 53H297.353V60.2653H304.08V53H311.433V75H304.08V67.6334H297.353V75H290V53ZM321.102 60.2961H314.63V53H334.932V60.2961H328.457V75H321.104L321.102 60.2961ZM338.155 53H345.826L350.542 60.7293L355.25 53H362.92V75H355.596V64.0947L350.538 71.9165H350.412L345.349 64.0947V74.9985H338.154L338.155 53ZM366.579 53H373.934V67.7274H384.274V74.9985H366.579V53Z" fill="#E85859"/>
<g filter="url(#filter0_d_5189_11933)">
<path d="M389.81 82.479L380.171 190.467L336.841 202.479L293.63 190.483L284 82.479H389.81Z" fill="#E44D26"/>
<path d="M336.905 193.296L371.918 183.59L380.156 91.3091H336.905V193.296Z" fill="#F16529"/>
<path d="M318.165 117.803H336.904V104.563H303.689L304.006 108.118L307.262 144.62H336.905V131.368H319.376L318.165 117.803ZM321.151 151.237H307.853L309.709 172.035L336.843 179.562L336.904 179.546V165.769L336.846 165.784L322.094 161.801L321.153 151.237H321.151Z" fill="#EBEBEB"/>
<path d="M336.859 144.612H353.17L351.633 161.792L336.858 165.779V179.56L364.012 172.032L364.211 169.794L367.324 134.921L367.646 131.364H336.859V144.612ZM336.859 117.769V117.802H368.852L369.121 114.824L369.725 108.103L370.041 104.549H336.859V117.763V117.769Z" fill="white"/>
</g>
<path d="M533.881 59.583H523.425L534.299 71.3827V77H511.903V70.4226H522.775L511.903 58.623V53H533.881V59.583V59.583ZM507.463 59.583H497.007L507.88 71.3827V77H485.483V70.4226H496.357L485.483 58.623V53H507.463V59.583V59.583ZM481.303 59.8521H470.02V70.1479H481.303V77H462V53H481.303V59.8521V59.8521Z" fill="#E85859"/>
<g filter="url(#filter1_d_5189_11933)">
<path d="M454.63 191.347L445 83.3433H550.808L541.17 191.329L497.839 203.343L454.63 191.347V191.347Z" fill="#1572B6"/>
<path d="M497.906 194.161L532.918 184.454L541.155 92.1748H497.906V194.161Z" fill="#33A9DC"/>
<path d="M497.905 131.304H515.433L516.644 117.74H497.905V104.494H531.121L530.803 108.047L527.548 144.549H497.905V131.304V131.304Z" fill="white"/>
<path d="M497.984 165.706L497.926 165.722L483.174 161.738L482.23 151.174H468.935L470.791 171.972L497.924 179.504L497.986 179.486V165.706H497.984Z" fill="#EBEBEB"/>
<path d="M514.307 143.989L512.711 161.729L497.938 165.717V179.498L525.093 171.972L525.293 169.734L527.598 143.989H514.307V143.989Z" fill="white"/>
<path d="M497.951 104.494V117.739H465.955L465.689 114.762L465.086 108.047L464.769 104.494H497.951ZM497.905 131.305V144.552H483.339L483.074 141.575L482.47 134.859L482.152 131.305H497.905V131.305Z" fill="#EBEBEB"/>
</g>
<path d="M332.335 347H309.503V296.619H333.976C340.151 296.71 344.526 298.499 347.101 301.985C348.65 304.127 349.425 306.691 349.425 309.676C349.425 312.752 348.65 315.224 347.101 317.093C346.235 318.141 344.959 319.098 343.272 319.964C345.847 320.898 347.784 322.379 349.083 324.407C350.405 326.435 351.065 328.896 351.065 331.79C351.065 334.775 350.313 337.452 348.81 339.822C347.853 341.395 346.656 342.716 345.221 343.787C343.603 345.018 341.689 345.861 339.479 346.316C337.291 346.772 334.91 347 332.335 347ZM332.096 324.817H319.552V338.25H331.925C334.135 338.25 335.855 337.954 337.086 337.361C339.319 336.268 340.436 334.171 340.436 331.072C340.436 328.452 339.353 326.652 337.188 325.672C335.981 325.125 334.283 324.84 332.096 324.817ZM337.325 315.213C338.692 314.393 339.376 312.923 339.376 310.804C339.376 308.457 338.465 306.907 336.642 306.155C335.069 305.631 333.064 305.369 330.626 305.369H319.552V316.478H331.925C334.135 316.478 335.935 316.056 337.325 315.213ZM377.862 318.733C373.943 318.733 371.311 320.009 369.967 322.562C369.215 323.997 368.839 326.207 368.839 329.192V347H359.029V309.744H368.326V316.238C369.83 313.755 371.14 312.057 372.257 311.146C374.08 309.619 376.45 308.855 379.366 308.855C379.549 308.855 379.697 308.867 379.811 308.89C379.947 308.89 380.232 308.901 380.665 308.924V318.904C380.05 318.836 379.503 318.79 379.024 318.768C378.546 318.745 378.159 318.733 377.862 318.733ZM396.422 309.744V347H386.544V309.744H396.422ZM396.422 296.312V305.301H386.544V296.312H396.422ZM439.796 296.688V347H430.328V341.839C428.938 344.049 427.354 345.656 425.577 346.658C423.8 347.661 421.59 348.162 418.946 348.162C414.594 348.162 410.925 346.408 407.94 342.898C404.978 339.367 403.497 334.843 403.497 329.329C403.497 322.972 404.955 317.97 407.872 314.324C410.812 310.678 414.731 308.855 419.63 308.855C421.886 308.855 423.891 309.357 425.646 310.359C427.4 311.339 428.824 312.706 429.918 314.461V296.688H439.796ZM413.546 328.611C413.546 332.052 414.229 334.798 415.597 336.849C416.941 338.922 418.992 339.959 421.749 339.959C424.506 339.959 426.603 338.934 428.038 336.883C429.474 334.832 430.191 332.177 430.191 328.919C430.191 324.362 429.041 321.103 426.739 319.144C425.326 317.959 423.686 317.366 421.817 317.366C418.969 317.366 416.873 318.449 415.528 320.613C414.207 322.755 413.546 325.421 413.546 328.611ZM459.21 353.528C460.258 354.417 462.024 354.861 464.508 354.861C468.017 354.861 470.364 353.688 471.549 351.341C472.324 349.837 472.711 347.308 472.711 343.753V341.36C471.777 342.955 470.774 344.152 469.703 344.949C467.766 346.43 465.248 347.171 462.149 347.171C457.364 347.171 453.536 345.496 450.665 342.146C447.817 338.774 446.393 334.217 446.393 328.475C446.393 322.938 447.771 318.289 450.528 314.529C453.285 310.747 457.193 308.855 462.252 308.855C464.12 308.855 465.75 309.14 467.14 309.71C469.509 310.69 471.424 312.49 472.882 315.11V309.744H482.35V345.086C482.35 349.894 481.541 353.517 479.923 355.955C477.143 360.148 471.811 362.244 463.927 362.244C459.164 362.244 455.279 361.31 452.271 359.441C449.264 357.573 447.6 354.782 447.281 351.067H457.877C458.15 352.207 458.595 353.027 459.21 353.528ZM457.569 334.285C458.891 337.43 461.261 339.002 464.679 339.002C466.957 339.002 468.883 338.147 470.455 336.438C472.027 334.707 472.813 331.961 472.813 328.201C472.813 324.669 472.062 321.98 470.558 320.135C469.076 318.289 467.083 317.366 464.576 317.366C461.158 317.366 458.8 318.973 457.501 322.186C456.817 323.895 456.476 326.002 456.476 328.509C456.476 330.674 456.84 332.599 457.569 334.285ZM501.49 309.744V347H491.612V309.744H501.49ZM501.49 296.312V305.301H491.612V296.312H501.49ZM528.492 316.956C525.188 316.956 522.921 318.357 521.69 321.16C521.052 322.641 520.733 324.533 520.733 326.834V347H511.026V309.812H520.426V315.247C521.679 313.333 522.864 311.954 523.98 311.111C525.986 309.607 528.526 308.855 531.603 308.855C535.453 308.855 538.598 309.869 541.036 311.897C543.497 313.903 544.728 317.241 544.728 321.912V347H534.747V324.339C534.747 322.379 534.485 320.875 533.961 319.827C533.004 317.913 531.181 316.956 528.492 316.956ZM564.278 353.528C565.326 354.417 567.092 354.861 569.576 354.861C573.085 354.861 575.432 353.688 576.617 351.341C577.392 349.837 577.779 347.308 577.779 343.753V341.36C576.845 342.955 575.842 344.152 574.771 344.949C572.835 346.43 570.317 347.171 567.218 347.171C562.433 347.171 558.604 345.496 555.733 342.146C552.885 338.774 551.461 334.217 551.461 328.475C551.461 322.938 552.84 318.289 555.597 314.529C558.354 310.747 562.262 308.855 567.32 308.855C569.189 308.855 570.818 309.14 572.208 309.71C574.578 310.69 576.492 312.49 577.95 315.11V309.744H587.418V345.086C587.418 349.894 586.609 353.517 584.991 355.955C582.211 360.148 576.879 362.244 568.995 362.244C564.233 362.244 560.348 361.31 557.34 359.441C554.332 357.573 552.669 354.782 552.35 351.067H562.945C563.219 352.207 563.663 353.027 564.278 353.528ZM562.638 334.285C563.959 337.43 566.329 339.002 569.747 339.002C572.026 339.002 573.951 338.147 575.523 336.438C577.096 334.707 577.882 331.961 577.882 328.201C577.882 324.669 577.13 321.98 575.626 320.135C574.145 318.289 572.151 317.366 569.645 317.366C566.227 317.366 563.868 318.973 562.569 322.186C561.886 323.895 561.544 326.002 561.544 328.509C561.544 330.674 561.909 332.599 562.638 334.285ZM339.376 427V404.51H319.688V427H309.264V376.619H319.688V395.828H339.376V376.619H349.835V427H339.376ZM396.524 376.619V385.54H381.451V427H370.855V385.54H355.714V376.619H396.524ZM412.35 427H402.54V376.619H417.853L427.013 416.233L436.104 376.619H451.246V427H441.437V392.923C441.437 391.943 441.448 390.576 441.471 388.821C441.493 387.044 441.505 385.677 441.505 384.72L431.969 427H421.749L412.281 384.72C412.281 385.677 412.293 387.044 412.315 388.821C412.338 390.576 412.35 391.943 412.35 392.923V427ZM461.021 376.619H471.549V417.942H496.5V427H461.021V376.619ZM522.682 393.777C525.257 390.496 529.677 388.855 535.943 388.855C540.022 388.855 543.645 389.664 546.812 391.282C549.98 392.9 551.563 395.953 551.563 400.442V417.532C551.563 418.717 551.586 420.153 551.632 421.839C551.7 423.115 551.894 423.981 552.213 424.437C552.532 424.892 553.01 425.268 553.648 425.564V427H543.053C542.757 426.248 542.551 425.542 542.438 424.881C542.324 424.22 542.232 423.468 542.164 422.625C540.82 424.083 539.27 425.325 537.516 426.351C535.419 427.558 533.049 428.162 530.406 428.162C527.034 428.162 524.243 427.205 522.032 425.291C519.845 423.354 518.751 420.62 518.751 417.088C518.751 412.508 520.517 409.192 524.049 407.142C525.986 406.025 528.834 405.228 532.594 404.749L535.909 404.339C537.709 404.111 538.997 403.826 539.771 403.484C541.161 402.892 541.856 401.969 541.856 400.716C541.856 399.189 541.321 398.141 540.25 397.571C539.202 396.979 537.652 396.683 535.602 396.683C533.3 396.683 531.671 397.252 530.714 398.392C530.03 399.235 529.575 400.374 529.347 401.81H519.947C520.152 398.551 521.064 395.874 522.682 393.777ZM529.928 419.959C530.839 420.711 531.956 421.087 533.277 421.087C535.374 421.087 537.299 420.472 539.054 419.241C540.831 418.011 541.754 415.766 541.822 412.508V408.885C541.207 409.272 540.58 409.591 539.942 409.842C539.327 410.07 538.473 410.286 537.379 410.491L535.191 410.901C533.141 411.266 531.671 411.71 530.782 412.234C529.278 413.123 528.526 414.502 528.526 416.37C528.526 418.034 528.993 419.23 529.928 419.959ZM577.779 396.956C574.475 396.956 572.208 398.357 570.978 401.16C570.34 402.641 570.021 404.533 570.021 406.834V427H560.313V389.812H569.713V395.247C570.966 393.333 572.151 391.954 573.268 391.111C575.273 389.607 577.813 388.855 580.89 388.855C584.741 388.855 587.885 389.869 590.323 391.897C592.784 393.903 594.015 397.241 594.015 401.912V427H584.034V404.339C584.034 402.379 583.772 400.875 583.248 399.827C582.291 397.913 580.468 396.956 577.779 396.956ZM636.944 376.688V427H627.477V421.839C626.087 424.049 624.503 425.656 622.726 426.658C620.948 427.661 618.738 428.162 616.095 428.162C611.743 428.162 608.074 426.408 605.089 422.898C602.127 419.367 600.646 414.843 600.646 409.329C600.646 402.972 602.104 397.97 605.021 394.324C607.96 390.678 611.879 388.855 616.778 388.855C619.034 388.855 621.039 389.357 622.794 390.359C624.549 391.339 625.973 392.706 627.066 394.461V376.688H636.944ZM610.694 408.611C610.694 412.052 611.378 414.798 612.745 416.849C614.09 418.922 616.14 419.959 618.897 419.959C621.655 419.959 623.751 418.934 625.187 416.883C626.622 414.832 627.34 412.177 627.34 408.919C627.34 404.362 626.189 401.103 623.888 399.144C622.475 397.959 620.834 397.366 618.966 397.366C616.118 397.366 614.021 398.449 612.677 400.613C611.355 402.755 610.694 405.421 610.694 408.611ZM344.879 503.24C341.119 506.681 336.311 508.401 330.455 508.401C323.209 508.401 317.512 506.077 313.365 501.429C309.218 496.757 307.145 490.354 307.145 482.22C307.145 473.424 309.503 466.645 314.22 461.883C318.321 457.736 323.539 455.662 329.874 455.662C338.351 455.662 344.549 458.442 348.468 464.002C350.632 467.124 351.795 470.257 351.954 473.401H341.427C340.743 470.986 339.866 469.163 338.795 467.933C336.881 465.745 334.044 464.651 330.284 464.651C326.456 464.651 323.437 466.201 321.227 469.3C319.016 472.376 317.911 476.74 317.911 482.391C317.911 488.042 319.073 492.28 321.397 495.105C323.744 497.908 326.718 499.31 330.318 499.31C334.01 499.31 336.824 498.102 338.761 495.687C339.832 494.388 340.72 492.439 341.427 489.842H351.852C350.94 495.333 348.616 499.799 344.879 503.24ZM378.204 499.72C380.688 499.72 382.704 499.446 384.254 498.899C387.193 497.851 388.663 495.903 388.663 493.055C388.663 491.391 387.934 490.104 386.476 489.192C385.017 488.304 382.727 487.518 379.605 486.834L374.273 485.638C369.033 484.453 365.41 483.165 363.404 481.775C360.009 479.451 358.312 475.817 358.312 470.872C358.312 466.36 359.952 462.612 363.233 459.627C366.515 456.642 371.334 455.149 377.691 455.149C383.001 455.149 387.524 456.562 391.261 459.388C395.021 462.19 396.992 466.269 397.174 471.624H387.057C386.874 468.593 385.553 466.44 383.092 465.164C381.451 464.321 379.412 463.899 376.974 463.899C374.262 463.899 372.097 464.446 370.479 465.54C368.862 466.634 368.053 468.16 368.053 470.12C368.053 471.92 368.85 473.265 370.445 474.153C371.471 474.746 373.658 475.441 377.008 476.238L385.689 478.323C389.495 479.235 392.366 480.454 394.303 481.98C397.311 484.35 398.814 487.78 398.814 492.269C398.814 496.871 397.049 500.7 393.517 503.753C390.007 506.784 385.04 508.299 378.614 508.299C372.052 508.299 366.891 506.806 363.131 503.821C359.371 500.813 357.491 496.689 357.491 491.448H367.54C367.859 493.75 368.486 495.47 369.42 496.609C371.129 498.683 374.057 499.72 378.204 499.72ZM424.894 499.72C427.377 499.72 429.394 499.446 430.943 498.899C433.883 497.851 435.353 495.903 435.353 493.055C435.353 491.391 434.623 490.104 433.165 489.192C431.707 488.304 429.417 487.518 426.295 486.834L420.963 485.638C415.722 484.453 412.099 483.165 410.094 481.775C406.699 479.451 405.001 475.817 405.001 470.872C405.001 466.36 406.642 462.612 409.923 459.627C413.204 456.642 418.023 455.149 424.381 455.149C429.69 455.149 434.213 456.562 437.95 459.388C441.71 462.19 443.681 466.269 443.863 471.624H433.746C433.564 468.593 432.242 466.44 429.781 465.164C428.141 464.321 426.101 463.899 423.663 463.899C420.951 463.899 418.787 464.446 417.169 465.54C415.551 466.634 414.742 468.16 414.742 470.12C414.742 471.92 415.54 473.265 417.135 474.153C418.16 474.746 420.348 475.441 423.697 476.238L432.379 478.323C436.184 479.235 439.055 480.454 440.992 481.98C444 484.35 445.504 487.78 445.504 492.269C445.504 496.871 443.738 500.7 440.206 503.753C436.697 506.784 431.729 508.299 425.304 508.299C418.741 508.299 413.58 506.806 409.82 503.821C406.061 500.813 404.181 496.689 404.181 491.448H414.229C414.549 493.75 415.175 495.47 416.109 496.609C417.818 498.683 420.746 499.72 424.894 499.72Z" fill="#E85859"/>
<defs>
<filter id="filter0_d_5189_11933" x="204" y="2.479" width="305.81" height="320" filterUnits="userSpaceOnUse" color-interpolation-filters="sRGB">
<feFlood flood-opacity="0" result="BackgroundImageFix"/>
<feColorMatrix in="SourceAlpha" type="matrix" values="0 0 0 0 0 0 0 0 0 0 0 0 0 0 0 0 0 0 127 0" result="hardAlpha"/>
<feOffset dx="20" dy="20"/>
<feGaussianBlur stdDeviation="50"/>
<feComposite in2="hardAlpha" operator="out"/>
<feColorMatrix type="matrix" values="0 0 0 0 0 0 0 0 0 0 0 0 0 0 0 0 0 0 0.25 0"/>
<feBlend mode="normal" in2="BackgroundImageFix" result="effect1_dropShadow_5189_11933"/>
<feBlend mode="normal" in="SourceGraphic" in2="effect1_dropShadow_5189_11933" result="shape"/>
</filter>
<filter id="filter1_d_5189_11933" x="365" y="3.34326" width="305.808" height="320" filterUnits="userSpaceOnUse" color-interpolation-filters="sRGB">
<feFlood flood-opacity="0" result="BackgroundImageFix"/>
<feColorMatrix in="SourceAlpha" type="matrix" values="0 0 0 0 0 0 0 0 0 0 0 0 0 0 0 0 0 0 127 0" result="hardAlpha"/>
<feOffset dx="20" dy="20"/>
<feGaussianBlur stdDeviation="50"/>
<feComposite in2="hardAlpha" operator="out"/>
<feColorMatrix type="matrix" values="0 0 0 0 0 0 0 0 0 0 0 0 0 0 0 0 0 0 0.25 0"/>
<feBlend mode="normal" in2="BackgroundImageFix" result="effect1_dropShadow_5189_11933"/>
<feBlend mode="normal" in="SourceGraphic" in2="effect1_dropShadow_5189_11933" result="shape"/>
</filter>
<linearGradient id="paint0_linear_5189_11933" x1="800" y1="0" x2="1.78814e-05" y2="600" gradientUnits="userSpaceOnUse">
<stop stop-color="#FFF4F4"/>
<stop offset="1" stop-color="#FFBFBF"/>
</linearGradient>
</defs>
</svg>
