<svg width="800" height="600" viewBox="0 0 800 600" fill="none" xmlns="http://www.w3.org/2000/svg">
<rect width="800" height="600" fill="url(#paint0_linear_5189_11969)"/>
<line x1="91" y1="218" x2="742" y2="218" stroke="#E85859" stroke-width="2"/>
<path d="M129.684 471H101.168V373.344H67.8672V354.398C76.6562 354.008 82.8086 353.422 86.3242 352.641C91.9232 351.404 96.4805 348.93 99.9961 345.219C102.405 342.68 104.228 339.294 105.465 335.062C106.181 332.523 106.539 330.635 106.539 329.398H129.684V471ZM230.074 471H201.559V373.344H168.258V354.398C177.047 354.008 183.199 353.422 186.715 352.641C192.314 351.404 196.871 348.93 200.387 345.219C202.796 342.68 204.618 339.294 205.855 335.062C206.572 332.523 206.93 330.635 206.93 329.398H230.074V471Z" fill="#E85859" fill-opacity="0.8"/>
<path d="M290 53H297.353V60.2653H304.08V53H311.433V75H304.08V67.6334H297.353V75H290V53ZM321.102 60.2961H314.63V53H334.932V60.2961H328.457V75H321.104L321.102 60.2961ZM338.155 53H345.826L350.542 60.7293L355.25 53H362.92V75H355.596V64.0947L350.538 71.9165H350.412L345.349 64.0947V74.9985H338.154L338.155 53ZM366.579 53H373.934V67.7274H384.274V74.9985H366.579V53Z" fill="#E85859"/>
<g filter="url(#filter0_d_5189_11969)">
<path d="M389.81 82.479L380.171 190.467L336.841 202.479L293.63 190.483L284 82.479H389.81Z" fill="#E44D26"/>
<path d="M336.905 193.296L371.918 183.59L380.156 91.3091H336.905V193.296Z" fill="#F16529"/>
<path d="M318.165 117.803H336.904V104.563H303.689L304.006 108.118L307.262 144.62H336.905V131.368H319.376L318.165 117.803ZM321.151 151.237H307.853L309.709 172.035L336.843 179.562L336.904 179.546V165.769L336.846 165.784L322.094 161.801L321.153 151.237H321.151Z" fill="#EBEBEB"/>
<path d="M336.859 144.612H353.17L351.633 161.792L336.858 165.779V179.56L364.012 172.032L364.211 169.794L367.324 134.921L367.646 131.364H336.859V144.612ZM336.859 117.769V117.802H368.852L369.121 114.824L369.725 108.103L370.041 104.549H336.859V117.763V117.769Z" fill="white"/>
</g>
<path d="M533.881 59.583H523.425L534.299 71.3827V77H511.903V70.4226H522.775L511.903 58.623V53H533.881V59.583V59.583ZM507.463 59.583H497.007L507.88 71.3827V77H485.483V70.4226H496.357L485.483 58.623V53H507.463V59.583V59.583ZM481.303 59.8521H470.02V70.1479H481.303V77H462V53H481.303V59.8521V59.8521Z" fill="#E85859"/>
<g filter="url(#filter1_d_5189_11969)">
<path d="M454.63 191.347L445 83.3433H550.808L541.17 191.329L497.839 203.343L454.63 191.347V191.347Z" fill="#1572B6"/>
<path d="M497.906 194.161L532.918 184.454L541.155 92.1748H497.906V194.161Z" fill="#33A9DC"/>
<path d="M497.905 131.304H515.433L516.644 117.74H497.905V104.494H531.121L530.803 108.047L527.548 144.549H497.905V131.304V131.304Z" fill="white"/>
<path d="M497.984 165.706L497.926 165.722L483.174 161.738L482.23 151.174H468.935L470.791 171.972L497.924 179.504L497.986 179.486V165.706H497.984Z" fill="#EBEBEB"/>
<path d="M514.307 143.989L512.711 161.729L497.938 165.717V179.498L525.093 171.972L525.293 169.734L527.598 143.989H514.307V143.989Z" fill="white"/>
<path d="M497.951 104.494V117.739H465.955L465.689 114.762L465.086 108.047L464.769 104.494H497.951ZM497.905 131.305V144.552H483.339L483.074 141.575L482.47 134.859L482.152 131.305H497.905V131.305Z" fill="#EBEBEB"/>
</g>
<path d="M344.879 423.24C341.119 426.681 336.311 428.401 330.455 428.401C323.209 428.401 317.512 426.077 313.365 421.429C309.218 416.757 307.145 410.354 307.145 402.22C307.145 393.424 309.503 386.645 314.22 381.883C318.321 377.736 323.539 375.662 329.874 375.662C338.351 375.662 344.549 378.442 348.468 384.002C350.632 387.124 351.795 390.257 351.954 393.401H341.427C340.743 390.986 339.866 389.163 338.795 387.933C336.881 385.745 334.044 384.651 330.284 384.651C326.456 384.651 323.437 386.201 321.227 389.3C319.016 392.376 317.911 396.74 317.911 402.391C317.911 408.042 319.073 412.28 321.397 415.105C323.744 417.908 326.718 419.31 330.318 419.31C334.01 419.31 336.824 418.102 338.761 415.687C339.832 414.388 340.72 412.439 341.427 409.842H351.852C350.94 415.333 348.616 419.799 344.879 423.24ZM378.204 419.72C380.688 419.72 382.704 419.446 384.254 418.899C387.193 417.851 388.663 415.903 388.663 413.055C388.663 411.391 387.934 410.104 386.476 409.192C385.017 408.304 382.727 407.518 379.605 406.834L374.273 405.638C369.033 404.453 365.41 403.165 363.404 401.775C360.009 399.451 358.312 395.817 358.312 390.872C358.312 386.36 359.952 382.612 363.233 379.627C366.515 376.642 371.334 375.149 377.691 375.149C383.001 375.149 387.524 376.562 391.261 379.388C395.021 382.19 396.992 386.269 397.174 391.624H387.057C386.874 388.593 385.553 386.44 383.092 385.164C381.451 384.321 379.412 383.899 376.974 383.899C374.262 383.899 372.097 384.446 370.479 385.54C368.862 386.634 368.053 388.16 368.053 390.12C368.053 391.92 368.85 393.265 370.445 394.153C371.471 394.746 373.658 395.441 377.008 396.238L385.689 398.323C389.495 399.235 392.366 400.454 394.303 401.98C397.311 404.35 398.814 407.78 398.814 412.269C398.814 416.871 397.049 420.7 393.517 423.753C390.007 426.784 385.04 428.299 378.614 428.299C372.052 428.299 366.891 426.806 363.131 423.821C359.371 420.813 357.491 416.689 357.491 411.448H367.54C367.859 413.75 368.486 415.47 369.42 416.609C371.129 418.683 374.057 419.72 378.204 419.72ZM424.894 419.72C427.377 419.72 429.394 419.446 430.943 418.899C433.883 417.851 435.353 415.903 435.353 413.055C435.353 411.391 434.623 410.104 433.165 409.192C431.707 408.304 429.417 407.518 426.295 406.834L420.963 405.638C415.722 404.453 412.099 403.165 410.094 401.775C406.699 399.451 405.001 395.817 405.001 390.872C405.001 386.36 406.642 382.612 409.923 379.627C413.204 376.642 418.023 375.149 424.381 375.149C429.69 375.149 434.213 376.562 437.95 379.388C441.71 382.19 443.681 386.269 443.863 391.624H433.746C433.564 388.593 432.242 386.44 429.781 385.164C428.141 384.321 426.101 383.899 423.663 383.899C420.951 383.899 418.787 384.446 417.169 385.54C415.551 386.634 414.742 388.16 414.742 390.12C414.742 391.92 415.54 393.265 417.135 394.153C418.16 394.746 420.348 395.441 423.697 396.238L432.379 398.323C436.184 399.235 439.055 400.454 440.992 401.98C444 404.35 445.504 407.78 445.504 412.269C445.504 416.871 443.738 420.7 440.206 423.753C436.697 426.784 431.729 428.299 425.304 428.299C418.741 428.299 413.58 426.806 409.82 423.821C406.061 420.813 404.181 416.689 404.181 411.448H414.229C414.549 413.75 415.175 415.47 416.109 416.609C417.818 418.683 420.746 419.72 424.894 419.72ZM495.782 427H472.95V376.619H497.423C503.598 376.71 507.973 378.499 510.548 381.985C512.097 384.127 512.872 386.691 512.872 389.676C512.872 392.752 512.097 395.224 510.548 397.093C509.682 398.141 508.406 399.098 506.72 399.964C509.295 400.898 511.231 402.379 512.53 404.407C513.852 406.435 514.513 408.896 514.513 411.79C514.513 414.775 513.761 417.452 512.257 419.822C511.3 421.395 510.104 422.716 508.668 423.787C507.05 425.018 505.136 425.861 502.926 426.316C500.738 426.772 498.357 427 495.782 427ZM495.543 404.817H482.999V418.25H495.372C497.582 418.25 499.303 417.954 500.533 417.361C502.766 416.268 503.883 414.171 503.883 411.072C503.883 408.452 502.8 406.652 500.636 405.672C499.428 405.125 497.73 404.84 495.543 404.817ZM500.772 395.213C502.14 394.393 502.823 392.923 502.823 390.804C502.823 388.457 501.912 386.907 500.089 386.155C498.517 385.631 496.511 385.369 494.073 385.369H482.999V396.478H495.372C497.582 396.478 499.382 396.056 500.772 395.213ZM523.98 393.777C526.555 390.496 530.976 388.855 537.242 388.855C541.321 388.855 544.944 389.664 548.111 391.282C551.279 392.9 552.862 395.953 552.862 400.442V417.532C552.862 418.717 552.885 420.153 552.931 421.839C552.999 423.115 553.193 423.981 553.512 424.437C553.831 424.892 554.309 425.268 554.947 425.564V427H544.352C544.055 426.248 543.85 425.542 543.736 424.881C543.622 424.22 543.531 423.468 543.463 422.625C542.118 424.083 540.569 425.325 538.814 426.351C536.718 427.558 534.348 428.162 531.705 428.162C528.333 428.162 525.541 427.205 523.331 425.291C521.144 423.354 520.05 420.62 520.05 417.088C520.05 412.508 521.816 409.192 525.348 407.142C527.285 406.025 530.133 405.228 533.893 404.749L537.208 404.339C539.008 404.111 540.296 403.826 541.07 403.484C542.46 402.892 543.155 401.969 543.155 400.716C543.155 399.189 542.62 398.141 541.549 397.571C540.501 396.979 538.951 396.683 536.9 396.683C534.599 396.683 532.97 397.252 532.013 398.392C531.329 399.235 530.873 400.374 530.646 401.81H521.246C521.451 398.551 522.363 395.874 523.98 393.777ZM531.227 419.959C532.138 420.711 533.255 421.087 534.576 421.087C536.673 421.087 538.598 420.472 540.353 419.241C542.13 418.011 543.053 415.766 543.121 412.508V408.885C542.506 409.272 541.879 409.591 541.241 409.842C540.626 410.07 539.771 410.286 538.678 410.491L536.49 410.901C534.439 411.266 532.97 411.71 532.081 412.234C530.577 413.123 529.825 414.502 529.825 416.37C529.825 418.034 530.292 419.23 531.227 419.959ZM587.213 391.453C590.13 393.322 591.804 396.535 592.237 401.092H582.496C582.359 399.839 582.006 398.847 581.437 398.118C580.366 396.797 578.543 396.136 575.968 396.136C573.849 396.136 572.333 396.466 571.422 397.127C570.533 397.788 570.089 398.562 570.089 399.451C570.089 400.568 570.567 401.377 571.524 401.878C572.481 402.402 575.865 403.302 581.676 404.578C585.549 405.49 588.455 406.868 590.392 408.714C592.306 410.582 593.263 412.918 593.263 415.721C593.263 419.412 591.884 422.431 589.127 424.778C586.393 427.103 582.154 428.265 576.412 428.265C570.556 428.265 566.227 427.034 563.424 424.573C560.644 422.09 559.254 418.934 559.254 415.105H569.132C569.337 416.837 569.781 418.068 570.465 418.797C571.673 420.096 573.906 420.745 577.164 420.745C579.078 420.745 580.593 420.46 581.71 419.891C582.849 419.321 583.419 418.466 583.419 417.327C583.419 416.233 582.963 415.402 582.052 414.832C581.14 414.262 577.757 413.283 571.9 411.893C567.685 410.844 564.711 409.534 562.979 407.962C561.248 406.412 560.382 404.179 560.382 401.263C560.382 397.822 561.726 394.871 564.415 392.41C567.127 389.926 570.932 388.685 575.831 388.685C580.479 388.685 584.273 389.607 587.213 391.453ZM610.523 389.744V427H600.646V389.744H610.523ZM610.523 376.312V385.301H600.646V376.312H610.523ZM652.223 403.108H642.242C642.06 401.718 641.593 400.465 640.841 399.349C639.747 397.845 638.049 397.093 635.748 397.093C632.467 397.093 630.222 398.722 629.015 401.98C628.377 403.712 628.058 406.014 628.058 408.885C628.058 411.619 628.377 413.818 629.015 415.481C630.177 418.58 632.364 420.13 635.577 420.13C637.856 420.13 639.474 419.515 640.431 418.284C641.388 417.054 641.969 415.459 642.174 413.499H652.12C651.892 416.461 650.821 419.264 648.907 421.907C645.854 426.168 641.331 428.299 635.338 428.299C629.345 428.299 624.936 426.521 622.11 422.967C619.285 419.412 617.872 414.798 617.872 409.124C617.872 402.721 619.433 397.742 622.555 394.188C625.676 390.633 629.983 388.855 635.475 388.855C640.146 388.855 643.963 389.904 646.925 392C649.91 394.096 651.676 397.799 652.223 403.108ZM684.625 391.453C687.542 393.322 689.216 396.535 689.649 401.092H679.908C679.771 399.839 679.418 398.847 678.849 398.118C677.778 396.797 675.955 396.136 673.38 396.136C671.261 396.136 669.745 396.466 668.834 397.127C667.945 397.788 667.501 398.562 667.501 399.451C667.501 400.568 667.979 401.377 668.937 401.878C669.894 402.402 673.277 403.302 679.088 404.578C682.962 405.49 685.867 406.868 687.804 408.714C689.718 410.582 690.675 412.918 690.675 415.721C690.675 419.412 689.296 422.431 686.539 424.778C683.805 427.103 679.566 428.265 673.824 428.265C667.968 428.265 663.639 427.034 660.836 424.573C658.056 422.09 656.666 418.934 656.666 415.105H666.544C666.749 416.837 667.193 418.068 667.877 418.797C669.085 420.096 671.318 420.745 674.576 420.745C676.49 420.745 678.006 420.46 679.122 419.891C680.261 419.321 680.831 418.466 680.831 417.327C680.831 416.233 680.375 415.402 679.464 414.832C678.552 414.262 675.169 413.283 669.312 411.893C665.097 410.844 662.123 409.534 660.392 407.962C658.66 406.412 657.794 404.179 657.794 401.263C657.794 397.822 659.138 394.871 661.827 392.41C664.539 389.926 668.344 388.685 673.243 388.685C677.892 388.685 681.686 389.607 684.625 391.453Z" fill="#E85859"/>
<defs>
<filter id="filter0_d_5189_11969" x="204" y="2.479" width="305.81" height="320" filterUnits="userSpaceOnUse" color-interpolation-filters="sRGB">
<feFlood flood-opacity="0" result="BackgroundImageFix"/>
<feColorMatrix in="SourceAlpha" type="matrix" values="0 0 0 0 0 0 0 0 0 0 0 0 0 0 0 0 0 0 127 0" result="hardAlpha"/>
<feOffset dx="20" dy="20"/>
<feGaussianBlur stdDeviation="50"/>
<feComposite in2="hardAlpha" operator="out"/>
<feColorMatrix type="matrix" values="0 0 0 0 0 0 0 0 0 0 0 0 0 0 0 0 0 0 0.25 0"/>
<feBlend mode="normal" in2="BackgroundImageFix" result="effect1_dropShadow_5189_11969"/>
<feBlend mode="normal" in="SourceGraphic" in2="effect1_dropShadow_5189_11969" result="shape"/>
</filter>
<filter id="filter1_d_5189_11969" x="365" y="3.34326" width="305.808" height="320" filterUnits="userSpaceOnUse" color-interpolation-filters="sRGB">
<feFlood flood-opacity="0" result="BackgroundImageFix"/>
<feColorMatrix in="SourceAlpha" type="matrix" values="0 0 0 0 0 0 0 0 0 0 0 0 0 0 0 0 0 0 127 0" result="hardAlpha"/>
<feOffset dx="20" dy="20"/>
<feGaussianBlur stdDeviation="50"/>
<feComposite in2="hardAlpha" operator="out"/>
<feColorMatrix type="matrix" values="0 0 0 0 0 0 0 0 0 0 0 0 0 0 0 0 0 0 0.25 0"/>
<feBlend mode="normal" in2="BackgroundImageFix" result="effect1_dropShadow_5189_11969"/>
<feBlend mode="normal" in="SourceGraphic" in2="effect1_dropShadow_5189_11969" result="shape"/>
</filter>
<linearGradient id="paint0_linear_5189_11969" x1="800" y1="0" x2="1.78814e-05" y2="600" gradientUnits="userSpaceOnUse">
<stop stop-color="#FFF4F4"/>
<stop offset="1" stop-color="#FFBFBF"/>
</linearGradient>
</defs>
</svg>
