<svg width="800" height="600" viewBox="0 0 800 600" fill="none" xmlns="http://www.w3.org/2000/svg">
<rect width="800" height="600" fill="url(#paint0_linear_5189_12005)"/>
<line x1="91" y1="218" x2="742" y2="218" stroke="#E85859" stroke-width="2"/>
<path d="M129.684 471H101.168V373.344H67.8672V354.398C76.6562 354.008 82.8086 353.422 86.3242 352.641C91.9232 351.404 96.4805 348.93 99.9961 345.219C102.405 342.68 104.228 339.294 105.465 335.062C106.181 332.523 106.539 330.635 106.539 329.398H129.684V471ZM234.859 358.207C231.539 354.236 226.786 352.25 220.602 352.25C212.138 352.25 206.376 355.408 203.316 361.723C201.559 365.368 200.517 371.163 200.191 379.105H173.141C173.596 367.061 175.777 357.328 179.684 349.906C187.105 335.779 200.289 328.715 219.234 328.715C234.208 328.715 246.122 332.882 254.977 341.215C263.831 349.483 268.258 360.453 268.258 374.125C268.258 384.607 265.133 393.917 258.883 402.055C254.781 407.458 248.043 413.48 238.668 420.121L227.535 428.031C220.569 432.979 215.784 436.56 213.18 438.773C210.641 440.987 208.492 443.559 206.734 446.488H268.551V471H171.578C171.839 460.844 174.02 451.566 178.121 443.168C182.092 433.728 191.467 423.734 206.246 413.188C219.072 404.008 227.372 397.432 231.148 393.461C236.943 387.276 239.84 380.505 239.84 373.148C239.84 367.159 238.18 362.178 234.859 358.207Z" fill="#E85859" fill-opacity="0.8"/>
<path d="M290 53H297.353V60.2653H304.08V53H311.433V75H304.08V67.6334H297.353V75H290V53ZM321.102 60.2961H314.63V53H334.932V60.2961H328.457V75H321.104L321.102 60.2961ZM338.155 53H345.826L350.542 60.7293L355.25 53H362.92V75H355.596V64.0947L350.538 71.9165H350.412L345.349 64.0947V74.9985H338.154L338.155 53ZM366.579 53H373.934V67.7274H384.274V74.9985H366.579V53Z" fill="#E85859"/>
<g filter="url(#filter0_d_5189_12005)">
<path d="M389.81 82.4785L380.171 190.466L336.841 202.479L293.63 190.483L284 82.4785H389.81Z" fill="#E44D26"/>
<path d="M336.905 193.296L371.918 183.589L380.156 91.3086H336.905V193.296Z" fill="#F16529"/>
<path d="M318.165 117.802H336.904V104.562H303.689L304.006 108.117L307.262 144.619H336.905V131.367H319.376L318.165 117.802ZM321.151 151.236H307.853L309.709 172.034L336.843 179.561L336.904 179.545V165.768L336.846 165.783L322.094 161.8L321.153 151.236H321.151Z" fill="#EBEBEB"/>
<path d="M336.859 144.611H353.17L351.633 161.791L336.858 165.778V179.559L364.012 172.031L364.211 169.793L367.324 134.92L367.646 131.363H336.859V144.611ZM336.859 117.768V117.801H368.852L369.121 114.823L369.725 108.102L370.041 104.548H336.859V117.762V117.768Z" fill="white"/>
</g>
<path d="M533.881 59.583H523.425L534.299 71.3827V77H511.903V70.4226H522.775L511.903 58.623V53H533.881V59.583V59.583ZM507.463 59.583H497.007L507.88 71.3827V77H485.483V70.4226H496.357L485.483 58.623V53H507.463V59.583V59.583ZM481.303 59.8521H470.02V70.1479H481.303V77H462V53H481.303V59.8521V59.8521Z" fill="#E85859"/>
<g filter="url(#filter1_d_5189_12005)">
<path d="M454.63 191.347L445 83.3438H550.808L541.17 191.329L497.839 203.344L454.63 191.347V191.347Z" fill="#1572B6"/>
<path d="M497.906 194.162L532.918 184.454L541.155 92.1758H497.906V194.162Z" fill="#33A9DC"/>
<path d="M497.905 131.304H515.433L516.644 117.741H497.905V104.494H531.121L530.803 108.048L527.548 144.55H497.905V131.304V131.304Z" fill="white"/>
<path d="M497.984 165.706L497.926 165.722L483.174 161.738L482.23 151.174H468.935L470.791 171.972L497.924 179.504L497.986 179.486V165.706H497.984Z" fill="#EBEBEB"/>
<path d="M514.307 143.989L512.711 161.729L497.938 165.717V179.498L525.093 171.972L525.293 169.734L527.598 143.989H514.307V143.989Z" fill="white"/>
<path d="M497.951 104.494V117.739H465.955L465.689 114.763L465.086 108.048L464.769 104.494H497.951ZM497.905 131.306V144.552H483.339L483.074 141.575L482.47 134.859L482.152 131.306H497.905V131.306Z" fill="#EBEBEB"/>
</g>
<path d="M344.879 383.24C341.119 386.681 336.311 388.401 330.455 388.401C323.209 388.401 317.512 386.077 313.365 381.429C309.218 376.757 307.145 370.354 307.145 362.22C307.145 353.424 309.503 346.645 314.22 341.883C318.321 337.736 323.539 335.662 329.874 335.662C338.351 335.662 344.549 338.442 348.468 344.002C350.632 347.124 351.795 350.257 351.954 353.401H341.427C340.743 350.986 339.866 349.163 338.795 347.933C336.881 345.745 334.044 344.651 330.284 344.651C326.456 344.651 323.437 346.201 321.227 349.3C319.016 352.376 317.911 356.74 317.911 362.391C317.911 368.042 319.073 372.28 321.397 375.105C323.744 377.908 326.718 379.31 330.318 379.31C334.01 379.31 336.824 378.102 338.761 375.687C339.832 374.388 340.72 372.439 341.427 369.842H351.852C350.94 375.333 348.616 379.799 344.879 383.24ZM378.204 379.72C380.688 379.72 382.704 379.446 384.254 378.899C387.193 377.851 388.663 375.903 388.663 373.055C388.663 371.391 387.934 370.104 386.476 369.192C385.017 368.304 382.727 367.518 379.605 366.834L374.273 365.638C369.033 364.453 365.41 363.165 363.404 361.775C360.009 359.451 358.312 355.817 358.312 350.872C358.312 346.36 359.952 342.612 363.233 339.627C366.515 336.642 371.334 335.149 377.691 335.149C383.001 335.149 387.524 336.562 391.261 339.388C395.021 342.19 396.992 346.269 397.174 351.624H387.057C386.874 348.593 385.553 346.44 383.092 345.164C381.451 344.321 379.412 343.899 376.974 343.899C374.262 343.899 372.097 344.446 370.479 345.54C368.862 346.634 368.053 348.16 368.053 350.12C368.053 351.92 368.85 353.265 370.445 354.153C371.471 354.746 373.658 355.441 377.008 356.238L385.689 358.323C389.495 359.235 392.366 360.454 394.303 361.98C397.311 364.35 398.814 367.78 398.814 372.269C398.814 376.871 397.049 380.7 393.517 383.753C390.007 386.784 385.04 388.299 378.614 388.299C372.052 388.299 366.891 386.806 363.131 383.821C359.371 380.813 357.491 376.689 357.491 371.448H367.54C367.859 373.75 368.486 375.47 369.42 376.609C371.129 378.683 374.057 379.72 378.204 379.72ZM424.894 379.72C427.377 379.72 429.394 379.446 430.943 378.899C433.883 377.851 435.353 375.903 435.353 373.055C435.353 371.391 434.623 370.104 433.165 369.192C431.707 368.304 429.417 367.518 426.295 366.834L420.963 365.638C415.722 364.453 412.099 363.165 410.094 361.775C406.699 359.451 405.001 355.817 405.001 350.872C405.001 346.36 406.642 342.612 409.923 339.627C413.204 336.642 418.023 335.149 424.381 335.149C429.69 335.149 434.213 336.562 437.95 339.388C441.71 342.19 443.681 346.269 443.863 351.624H433.746C433.564 348.593 432.242 346.44 429.781 345.164C428.141 344.321 426.101 343.899 423.663 343.899C420.951 343.899 418.787 344.446 417.169 345.54C415.551 346.634 414.742 348.16 414.742 350.12C414.742 351.92 415.54 353.265 417.135 354.153C418.16 354.746 420.348 355.441 423.697 356.238L432.379 358.323C436.184 359.235 439.055 360.454 440.992 361.98C444 364.35 445.504 367.78 445.504 372.269C445.504 376.871 443.738 380.7 440.206 383.753C436.697 386.784 431.729 388.299 425.304 388.299C418.741 388.299 413.58 386.806 409.82 383.821C406.061 380.813 404.181 376.689 404.181 371.448H414.229C414.549 373.75 415.175 375.47 416.109 376.609C417.818 378.683 420.746 379.72 424.894 379.72ZM466.251 376.814V387H455.895V376.814H466.251ZM455.895 361.399V351.214H466.251V361.399H455.895ZM514.376 379.72C516.86 379.72 518.876 379.446 520.426 378.899C523.365 377.851 524.835 375.903 524.835 373.055C524.835 371.391 524.106 370.104 522.647 369.192C521.189 368.304 518.899 367.518 515.777 366.834L510.445 365.638C505.204 364.453 501.581 363.165 499.576 361.775C496.181 359.451 494.483 355.817 494.483 350.872C494.483 346.36 496.124 342.612 499.405 339.627C502.687 336.642 507.506 335.149 513.863 335.149C519.173 335.149 523.696 336.562 527.433 339.388C531.192 342.19 533.163 346.269 533.346 351.624H523.229C523.046 348.593 521.725 346.44 519.264 345.164C517.623 344.321 515.584 343.899 513.146 343.899C510.434 343.899 508.269 344.446 506.651 345.54C505.034 346.634 504.225 348.16 504.225 350.12C504.225 351.92 505.022 353.265 506.617 354.153C507.643 354.746 509.83 355.441 513.18 356.238L521.861 358.323C525.667 359.235 528.538 360.454 530.475 361.98C533.482 364.35 534.986 367.78 534.986 372.269C534.986 376.871 533.22 380.7 529.688 383.753C526.179 386.784 521.212 388.299 514.786 388.299C508.224 388.299 503.062 386.806 499.303 383.821C495.543 380.813 493.663 376.689 493.663 371.448H503.712C504.031 373.75 504.658 375.47 505.592 376.609C507.301 378.683 510.229 379.72 514.376 379.72ZM559.049 380.062V387.342L554.435 387.513C549.832 387.672 546.687 386.875 545.001 385.12C543.907 384.004 543.36 382.283 543.36 379.959V357.024H538.165V350.086H543.36V339.695H552.999V350.086H559.049V357.024H552.999V376.712C552.999 378.239 553.193 379.196 553.58 379.583C553.967 379.948 555.152 380.13 557.135 380.13C557.431 380.13 557.739 380.13 558.058 380.13C558.399 380.107 558.73 380.084 559.049 380.062ZM580.445 377.225L588.136 349.744H598.492L585.709 386.385C583.248 393.449 581.3 397.824 579.864 399.51C578.429 401.219 575.558 402.073 571.251 402.073C570.385 402.073 569.69 402.062 569.166 402.039C568.642 402.039 567.856 402.005 566.808 401.937V394.144L568.038 394.212C568.995 394.257 569.907 394.223 570.772 394.109C571.638 393.995 572.368 393.733 572.96 393.323C573.53 392.936 574.054 392.127 574.532 390.896C575.034 389.666 575.239 388.914 575.147 388.641L561.476 349.744H572.311L580.445 377.225ZM604.474 336.619H614.215V387H604.474V336.619ZM633.766 349.744V387H623.888V349.744H633.766ZM633.766 336.312V345.301H623.888V336.312H633.766ZM660.768 356.956C657.464 356.956 655.196 358.357 653.966 361.16C653.328 362.641 653.009 364.533 653.009 366.834V387H643.302V349.812H652.701V355.247C653.954 353.333 655.139 351.954 656.256 351.111C658.261 349.607 660.802 348.855 663.878 348.855C667.729 348.855 670.873 349.869 673.312 351.897C675.772 353.903 677.003 357.241 677.003 361.912V387H667.022V364.339C667.022 362.379 666.76 360.875 666.236 359.827C665.279 357.913 663.456 356.956 660.768 356.956ZM696.554 393.528C697.602 394.417 699.368 394.861 701.852 394.861C705.361 394.861 707.708 393.688 708.893 391.341C709.667 389.837 710.055 387.308 710.055 383.753V381.36C709.12 382.955 708.118 384.152 707.047 384.949C705.11 386.43 702.592 387.171 699.493 387.171C694.708 387.171 690.88 385.496 688.009 382.146C685.16 378.774 683.736 374.217 683.736 368.475C683.736 362.938 685.115 358.289 687.872 354.529C690.629 350.747 694.537 348.855 699.596 348.855C701.464 348.855 703.093 349.14 704.483 349.71C706.853 350.69 708.767 352.49 710.226 355.11V349.744H719.693V385.086C719.693 389.894 718.884 393.517 717.267 395.955C714.487 400.148 709.155 402.244 701.271 402.244C696.508 402.244 692.623 401.31 689.615 399.441C686.607 397.573 684.944 394.782 684.625 391.067H695.221C695.494 392.207 695.938 393.027 696.554 393.528ZM694.913 374.285C696.235 377.43 698.604 379.002 702.022 379.002C704.301 379.002 706.227 378.147 707.799 376.438C709.371 374.707 710.157 371.961 710.157 368.201C710.157 364.669 709.405 361.98 707.901 360.135C706.42 358.289 704.426 357.366 701.92 357.366C698.502 357.366 696.144 358.973 694.845 362.186C694.161 363.895 693.819 366.002 693.819 368.509C693.819 370.674 694.184 372.599 694.913 374.285ZM345.938 416.619V425.54H330.865V467H320.27V425.54H305.128V416.619H345.938ZM378.033 456.062C377.783 458.273 376.632 460.517 374.581 462.796C371.391 466.419 366.925 468.23 361.183 468.23C356.443 468.23 352.262 466.704 348.639 463.65C345.016 460.597 343.204 455.63 343.204 448.748C343.204 442.299 344.833 437.355 348.092 433.914C351.373 430.473 355.623 428.753 360.841 428.753C363.94 428.753 366.731 429.334 369.215 430.496C371.699 431.658 373.749 433.493 375.367 435.999C376.826 438.209 377.771 440.773 378.204 443.689C378.455 445.398 378.557 447.859 378.512 451.072H353.014C353.15 454.809 354.324 457.43 356.534 458.934C357.879 459.868 359.496 460.335 361.388 460.335C363.393 460.335 365.022 459.765 366.275 458.626C366.959 458.011 367.563 457.156 368.087 456.062H378.033ZM368.395 444.646C368.235 442.072 367.449 440.123 366.036 438.802C364.646 437.457 362.914 436.785 360.841 436.785C358.585 436.785 356.83 437.492 355.577 438.904C354.347 440.317 353.572 442.231 353.253 444.646H368.395ZM418.297 467H406.163L399.737 455.823L393.277 467H381.451L394.166 448.133L381.998 429.812H393.927L400.147 440.613L406.231 429.812H417.818L405.582 447.962L418.297 467ZM441.129 460.062V467.342L436.515 467.513C431.912 467.672 428.767 466.875 427.081 465.12C425.987 464.004 425.44 462.283 425.44 459.959V437.024H420.245V430.086H425.44V419.695H435.079V430.086H441.129V437.024H435.079V456.712C435.079 458.239 435.273 459.196 435.66 459.583C436.048 459.948 437.232 460.13 439.215 460.13C439.511 460.13 439.819 460.13 440.138 460.13C440.479 460.107 440.81 460.084 441.129 460.062ZM473.053 431.453C475.969 433.322 477.644 436.535 478.077 441.092H468.336C468.199 439.839 467.846 438.847 467.276 438.118C466.205 436.797 464.382 436.136 461.808 436.136C459.688 436.136 458.173 436.466 457.262 437.127C456.373 437.788 455.929 438.562 455.929 439.451C455.929 440.568 456.407 441.377 457.364 441.878C458.321 442.402 461.705 443.302 467.516 444.578C471.389 445.49 474.295 446.868 476.231 448.714C478.146 450.582 479.103 452.918 479.103 455.721C479.103 459.412 477.724 462.431 474.967 464.778C472.232 467.103 467.994 468.265 462.252 468.265C456.396 468.265 452.066 467.034 449.264 464.573C446.484 462.09 445.094 458.934 445.094 455.105H454.972C455.177 456.837 455.621 458.068 456.305 458.797C457.512 460.096 459.745 460.745 463.004 460.745C464.918 460.745 466.433 460.46 467.55 459.891C468.689 459.321 469.259 458.466 469.259 457.327C469.259 456.233 468.803 455.402 467.892 454.832C466.98 454.262 463.596 453.283 457.74 451.893C453.525 450.844 450.551 449.534 448.819 447.962C447.088 446.412 446.222 444.179 446.222 441.263C446.222 437.822 447.566 434.871 450.255 432.41C452.966 429.926 456.772 428.685 461.671 428.685C466.319 428.685 470.113 429.607 473.053 431.453Z" fill="#E85859"/>
<defs>
<filter id="filter0_d_5189_12005" x="204" y="2.47852" width="305.81" height="320" filterUnits="userSpaceOnUse" color-interpolation-filters="sRGB">
<feFlood flood-opacity="0" result="BackgroundImageFix"/>
<feColorMatrix in="SourceAlpha" type="matrix" values="0 0 0 0 0 0 0 0 0 0 0 0 0 0 0 0 0 0 127 0" result="hardAlpha"/>
<feOffset dx="20" dy="20"/>
<feGaussianBlur stdDeviation="50"/>
<feComposite in2="hardAlpha" operator="out"/>
<feColorMatrix type="matrix" values="0 0 0 0 0 0 0 0 0 0 0 0 0 0 0 0 0 0 0.25 0"/>
<feBlend mode="normal" in2="BackgroundImageFix" result="effect1_dropShadow_5189_12005"/>
<feBlend mode="normal" in="SourceGraphic" in2="effect1_dropShadow_5189_12005" result="shape"/>
</filter>
<filter id="filter1_d_5189_12005" x="365" y="3.34375" width="305.808" height="320" filterUnits="userSpaceOnUse" color-interpolation-filters="sRGB">
<feFlood flood-opacity="0" result="BackgroundImageFix"/>
<feColorMatrix in="SourceAlpha" type="matrix" values="0 0 0 0 0 0 0 0 0 0 0 0 0 0 0 0 0 0 127 0" result="hardAlpha"/>
<feOffset dx="20" dy="20"/>
<feGaussianBlur stdDeviation="50"/>
<feComposite in2="hardAlpha" operator="out"/>
<feColorMatrix type="matrix" values="0 0 0 0 0 0 0 0 0 0 0 0 0 0 0 0 0 0 0.25 0"/>
<feBlend mode="normal" in2="BackgroundImageFix" result="effect1_dropShadow_5189_12005"/>
<feBlend mode="normal" in="SourceGraphic" in2="effect1_dropShadow_5189_12005" result="shape"/>
</filter>
<linearGradient id="paint0_linear_5189_12005" x1="800" y1="0" x2="1.78814e-05" y2="600" gradientUnits="userSpaceOnUse">
<stop stop-color="#FFF4F4"/>
<stop offset="1" stop-color="#FFBFBF"/>
</linearGradient>
</defs>
</svg>
