<svg width="800" height="600" viewBox="0 0 800 600" fill="none" xmlns="http://www.w3.org/2000/svg">
<rect width="800" height="600" fill="url(#paint0_linear_5189_11807)"/>
<line x1="91" y1="218" x2="742" y2="218" stroke="#E85859" stroke-width="2"/>
<path d="M327.376 427V404.51H307.688V427H297.264V376.619H307.688V395.828H327.376V376.619H337.835V427H327.376ZM384.524 376.619V385.54H369.451V427H358.855V385.54H343.714V376.619H384.524ZM400.35 427H390.54V376.619H405.853L415.013 416.233L424.104 376.619H439.246V427H429.437V392.923C429.437 391.943 429.448 390.576 429.471 388.821C429.493 387.044 429.505 385.677 429.505 384.72L419.969 427H409.749L400.281 384.72C400.281 385.677 400.293 387.044 400.315 388.821C400.338 390.576 400.35 391.943 400.35 392.923V427ZM449.021 376.619H459.549V417.942H484.5V427H449.021V376.619ZM533.069 427H510.237V376.619H534.71C540.885 376.71 545.26 378.499 547.835 381.985C549.384 384.127 550.159 386.691 550.159 389.676C550.159 392.752 549.384 395.224 547.835 397.093C546.969 398.141 545.693 399.098 544.007 399.964C546.582 400.898 548.519 402.379 549.817 404.407C551.139 406.435 551.8 408.896 551.8 411.79C551.8 414.775 551.048 417.452 549.544 419.822C548.587 421.395 547.391 422.716 545.955 423.787C544.337 425.018 542.423 425.861 540.213 426.316C538.025 426.772 535.644 427 533.069 427ZM532.83 404.817H520.286V418.25H532.659C534.869 418.25 536.59 417.954 537.82 417.361C540.053 416.268 541.17 414.171 541.17 411.072C541.17 408.452 540.088 406.652 537.923 405.672C536.715 405.125 535.018 404.84 532.83 404.817ZM538.06 395.213C539.427 394.393 540.11 392.923 540.11 390.804C540.11 388.457 539.199 386.907 537.376 386.155C535.804 385.631 533.799 385.369 531.36 385.369H520.286V396.478H532.659C534.869 396.478 536.67 396.056 538.06 395.213ZM561.268 393.777C563.842 390.496 568.263 388.855 574.529 388.855C578.608 388.855 582.231 389.664 585.398 391.282C588.566 392.9 590.149 395.953 590.149 400.442V417.532C590.149 418.717 590.172 420.153 590.218 421.839C590.286 423.115 590.48 423.981 590.799 424.437C591.118 424.892 591.596 425.268 592.234 425.564V427H581.639C581.342 426.248 581.137 425.542 581.023 424.881C580.91 424.22 580.818 423.468 580.75 422.625C579.406 424.083 577.856 425.325 576.102 426.351C574.005 427.558 571.635 428.162 568.992 428.162C565.62 428.162 562.828 427.205 560.618 425.291C558.431 423.354 557.337 420.62 557.337 417.088C557.337 412.508 559.103 409.192 562.635 407.142C564.572 406.025 567.42 405.228 571.18 404.749L574.495 404.339C576.295 404.111 577.583 403.826 578.357 403.484C579.747 402.892 580.442 401.969 580.442 400.716C580.442 399.189 579.907 398.141 578.836 397.571C577.788 396.979 576.238 396.683 574.188 396.683C571.886 396.683 570.257 397.252 569.3 398.392C568.616 399.235 568.16 400.374 567.933 401.81H558.533C558.738 398.551 559.65 395.874 561.268 393.777ZM568.514 419.959C569.425 420.711 570.542 421.087 571.863 421.087C573.96 421.087 575.885 420.472 577.64 419.241C579.417 418.011 580.34 415.766 580.408 412.508V408.885C579.793 409.272 579.166 409.591 578.528 409.842C577.913 410.07 577.059 410.286 575.965 410.491L573.777 410.901C571.727 411.266 570.257 411.71 569.368 412.234C567.864 413.123 567.112 414.502 567.112 416.37C567.112 418.034 567.579 419.23 568.514 419.959ZM624.5 391.453C627.417 393.322 629.091 396.535 629.524 401.092H619.783C619.646 399.839 619.293 398.847 618.724 398.118C617.653 396.797 615.83 396.136 613.255 396.136C611.136 396.136 609.62 396.466 608.709 397.127C607.82 397.788 607.376 398.562 607.376 399.451C607.376 400.568 607.854 401.377 608.812 401.878C609.769 402.402 613.152 403.302 618.963 404.578C622.837 405.49 625.742 406.868 627.679 408.714C629.593 410.582 630.55 412.918 630.55 415.721C630.55 419.412 629.171 422.431 626.414 424.778C623.68 427.103 619.441 428.265 613.699 428.265C607.843 428.265 603.514 427.034 600.711 424.573C597.931 422.09 596.541 418.934 596.541 415.105H606.419C606.624 416.837 607.068 418.068 607.752 418.797C608.96 420.096 611.193 420.745 614.451 420.745C616.365 420.745 617.881 420.46 618.997 419.891C620.136 419.321 620.706 418.466 620.706 417.327C620.706 416.233 620.25 415.402 619.339 414.832C618.427 414.262 615.044 413.283 609.188 411.893C604.972 410.844 601.998 409.534 600.267 407.962C598.535 406.412 597.669 404.179 597.669 401.263C597.669 397.822 599.013 394.871 601.702 392.41C604.414 389.926 608.219 388.685 613.118 388.685C617.767 388.685 621.561 389.607 624.5 391.453ZM647.811 389.744V427H637.933V389.744H647.811ZM647.811 376.312V385.301H637.933V376.312H647.811ZM689.51 403.108H679.529C679.347 401.718 678.88 400.465 678.128 399.349C677.034 397.845 675.337 397.093 673.035 397.093C669.754 397.093 667.509 398.722 666.302 401.98C665.664 403.712 665.345 406.014 665.345 408.885C665.345 411.619 665.664 413.818 666.302 415.481C667.464 418.58 669.651 420.13 672.864 420.13C675.143 420.13 676.761 419.515 677.718 418.284C678.675 417.054 679.256 415.459 679.461 413.499H689.407C689.179 416.461 688.108 419.264 686.194 421.907C683.141 426.168 678.618 428.299 672.625 428.299C666.632 428.299 662.223 426.521 659.397 422.967C656.572 419.412 655.159 414.798 655.159 409.124C655.159 402.721 656.72 397.742 659.842 394.188C662.964 390.633 667.27 388.855 672.762 388.855C677.433 388.855 681.25 389.904 684.212 392C687.197 394.096 688.963 397.799 689.51 403.108ZM721.912 391.453C724.829 393.322 726.504 396.535 726.937 401.092H717.195C717.059 399.839 716.705 398.847 716.136 398.118C715.065 396.797 713.242 396.136 710.667 396.136C708.548 396.136 707.033 396.466 706.121 397.127C705.232 397.788 704.788 398.562 704.788 399.451C704.788 400.568 705.267 401.377 706.224 401.878C707.181 402.402 710.564 403.302 716.375 404.578C720.249 405.49 723.154 406.868 725.091 408.714C727.005 410.582 727.962 412.918 727.962 415.721C727.962 419.412 726.583 422.431 723.826 424.778C721.092 427.103 716.854 428.265 711.111 428.265C705.255 428.265 700.926 427.034 698.123 424.573C695.343 422.09 693.953 418.934 693.953 415.105H703.831C704.036 416.837 704.48 418.068 705.164 418.797C706.372 420.096 708.605 420.745 711.863 420.745C713.777 420.745 715.293 420.46 716.409 419.891C717.549 419.321 718.118 418.466 718.118 417.327C718.118 416.233 717.662 415.402 716.751 414.832C715.84 414.262 712.456 413.283 706.6 411.893C702.384 410.844 699.41 409.534 697.679 407.962C695.947 406.412 695.081 404.179 695.081 401.263C695.081 397.822 696.425 394.871 699.114 392.41C701.826 389.926 705.631 388.685 710.53 388.685C715.179 388.685 718.973 389.607 721.912 391.453Z" fill="#E85859"/>
<path d="M109.078 474.516C91.0443 474.516 78.3815 468.201 71.0898 455.57C63.8633 442.94 60.25 424.939 60.25 401.566C60.25 378.194 63.8633 360.16 71.0898 347.465C78.3815 334.77 91.0443 328.422 109.078 328.422C127.112 328.422 139.775 334.77 147.066 347.465C154.293 360.16 157.906 378.194 157.906 401.566C157.906 424.939 154.26 442.94 146.969 455.57C139.742 468.201 127.112 474.516 109.078 474.516ZM125.387 438.871C127.926 430.277 129.195 417.842 129.195 401.566C129.195 384.509 127.893 371.879 125.289 363.676C122.75 355.473 117.346 351.371 109.078 351.371C100.81 351.371 95.3411 355.473 92.6719 363.676C90.0026 371.879 88.668 384.509 88.668 401.566C88.668 417.842 90.0026 430.31 92.6719 438.969C95.3411 447.562 100.81 451.859 109.078 451.859C117.346 451.859 122.783 447.53 125.387 438.871ZM203.609 357.621C200.484 361.788 198.987 367.354 199.117 374.32H173.141C173.401 367.289 174.605 360.616 176.754 354.301C179.033 348.767 182.613 343.656 187.496 338.969C191.142 335.648 195.471 333.109 200.484 331.352C205.497 329.594 211.65 328.715 218.941 328.715C232.483 328.715 243.388 332.23 251.656 339.262C259.99 346.228 264.156 355.603 264.156 367.387C264.156 375.72 261.682 382.751 256.734 388.48C253.609 392.061 250.354 394.503 246.969 395.805C249.508 395.805 253.154 397.986 257.906 402.348C265.003 408.923 268.551 417.908 268.551 429.301C268.551 441.28 264.384 451.827 256.051 460.941C247.783 469.991 235.51 474.516 219.234 474.516C199.182 474.516 185.25 467.973 177.438 454.887C173.336 447.921 171.057 438.806 170.602 427.543H197.945C197.945 433.207 198.857 437.895 200.68 441.605C204.065 448.441 210.217 451.859 219.137 451.859C224.605 451.859 229.358 450.004 233.395 446.293C237.496 442.517 239.547 437.113 239.547 430.082C239.547 420.772 235.771 414.555 228.219 411.43C223.922 409.672 217.151 408.793 207.906 408.793V388.871C216.956 388.741 223.271 387.862 226.852 386.234C233.036 383.5 236.129 377.966 236.129 369.633C236.129 364.229 234.534 359.835 231.344 356.449C228.219 353.064 223.792 351.371 218.062 351.371C211.487 351.371 206.669 353.454 203.609 357.621Z" fill="#E85859" fill-opacity="0.8"/>
<path d="M290 53H297.353V60.2653H304.08V53H311.433V75H304.08V67.6334H297.353V75H290V53ZM321.102 60.2961H314.63V53H334.932V60.2961H328.457V75H321.104L321.102 60.2961ZM338.155 53H345.826L350.542 60.7293L355.25 53H362.92V75H355.596V64.0947L350.538 71.9165H350.412L345.349 64.0947V74.9985H338.154L338.155 53ZM366.579 53H373.934V67.7274H384.274V74.9985H366.579V53Z" fill="#E85859"/>
<g filter="url(#filter0_d_5189_11807)">
<path d="M389.81 82.4789L380.171 190.467L336.841 202.479L293.63 190.483L284 82.4789H389.81Z" fill="#E44D26"/>
<path d="M336.905 193.296L371.918 183.59L380.156 91.3092H336.905V193.296Z" fill="#F16529"/>
<path d="M318.165 117.803H336.904V104.563H303.689L304.006 108.118L307.262 144.62H336.905V131.367H319.376L318.165 117.803ZM321.151 151.237H307.853L309.709 172.035L336.843 179.562L336.904 179.546V165.769L336.846 165.784L322.094 161.801L321.153 151.237H321.151Z" fill="#EBEBEB"/>
<path d="M336.859 144.612H353.17L351.633 161.792L336.858 165.779V179.56L364.012 172.032L364.211 169.794L367.324 134.92L367.646 131.363H336.859V144.612ZM336.859 117.769V117.801H368.852L369.121 114.824L369.725 108.103L370.041 104.549H336.859V117.762V117.769Z" fill="white"/>
</g>
<path d="M533.881 59.583H523.425L534.299 71.3827V77H511.903V70.4226H522.775L511.903 58.623V53H533.881V59.583V59.583ZM507.463 59.583H497.007L507.88 71.3827V77H485.483V70.4226H496.357L485.483 58.623V53H507.463V59.583V59.583ZM481.303 59.8521H470.02V70.1479H481.303V77H462V53H481.303V59.8521V59.8521Z" fill="#E85859"/>
<g filter="url(#filter1_d_5189_11807)">
<path d="M454.63 191.347L445 83.3434H550.808L541.17 191.329L497.839 203.343L454.63 191.347V191.347Z" fill="#1572B6"/>
<path d="M497.906 194.161L532.918 184.454L541.155 92.1752H497.906V194.161Z" fill="#33A9DC"/>
<path d="M497.905 131.304H515.433L516.644 117.74H497.905V104.494H531.121L530.803 108.048L527.548 144.549H497.905V131.304V131.304Z" fill="white"/>
<path d="M497.984 165.706L497.926 165.722L483.174 161.738L482.23 151.174H468.935L470.791 171.972L497.924 179.504L497.986 179.486V165.706H497.984Z" fill="#EBEBEB"/>
<path d="M514.307 143.989L512.711 161.729L497.938 165.717V179.498L525.093 171.972L525.293 169.734L527.598 143.989H514.307V143.989Z" fill="white"/>
<path d="M497.951 104.494V117.739H465.955L465.689 114.762L465.086 108.048L464.769 104.494H497.951ZM497.905 131.305V144.552H483.339L483.074 141.575L482.47 134.859L482.152 131.305H497.905V131.305Z" fill="#EBEBEB"/>
</g>
<defs>
<filter id="filter0_d_5189_11807" x="204" y="2.47888" width="305.81" height="320" filterUnits="userSpaceOnUse" color-interpolation-filters="sRGB">
<feFlood flood-opacity="0" result="BackgroundImageFix"/>
<feColorMatrix in="SourceAlpha" type="matrix" values="0 0 0 0 0 0 0 0 0 0 0 0 0 0 0 0 0 0 127 0" result="hardAlpha"/>
<feOffset dx="20" dy="20"/>
<feGaussianBlur stdDeviation="50"/>
<feComposite in2="hardAlpha" operator="out"/>
<feColorMatrix type="matrix" values="0 0 0 0 0 0 0 0 0 0 0 0 0 0 0 0 0 0 0.25 0"/>
<feBlend mode="normal" in2="BackgroundImageFix" result="effect1_dropShadow_5189_11807"/>
<feBlend mode="normal" in="SourceGraphic" in2="effect1_dropShadow_5189_11807" result="shape"/>
</filter>
<filter id="filter1_d_5189_11807" x="365" y="3.34338" width="305.808" height="320" filterUnits="userSpaceOnUse" color-interpolation-filters="sRGB">
<feFlood flood-opacity="0" result="BackgroundImageFix"/>
<feColorMatrix in="SourceAlpha" type="matrix" values="0 0 0 0 0 0 0 0 0 0 0 0 0 0 0 0 0 0 127 0" result="hardAlpha"/>
<feOffset dx="20" dy="20"/>
<feGaussianBlur stdDeviation="50"/>
<feComposite in2="hardAlpha" operator="out"/>
<feColorMatrix type="matrix" values="0 0 0 0 0 0 0 0 0 0 0 0 0 0 0 0 0 0 0.25 0"/>
<feBlend mode="normal" in2="BackgroundImageFix" result="effect1_dropShadow_5189_11807"/>
<feBlend mode="normal" in="SourceGraphic" in2="effect1_dropShadow_5189_11807" result="shape"/>
</filter>
<linearGradient id="paint0_linear_5189_11807" x1="800" y1="1.57938e-05" x2="-2.41944" y2="596.747" gradientUnits="userSpaceOnUse">
<stop stop-color="#FFF4F4"/>
<stop offset="1" stop-color="#FFBFBF"/>
</linearGradient>
</defs>
</svg>
