<svg width="800" height="600" viewBox="0 0 800 600" fill="none" xmlns="http://www.w3.org/2000/svg">
<rect width="800" height="600" fill="url(#paint0_linear_5189_12077)"/>
<line x1="91" y1="218" x2="742" y2="218" stroke="#E85859" stroke-width="2"/>
<path d="M129.684 471H101.168V373.344H67.8672V354.398C76.6562 354.008 82.8086 353.422 86.3242 352.641C91.9232 351.404 96.4805 348.93 99.9961 345.219C102.405 342.68 104.228 339.294 105.465 335.062C106.181 332.523 106.539 330.635 106.539 329.398H129.684V471ZM217.281 475.102C206.669 475.102 197.132 471.977 188.668 465.727C180.204 459.411 175.354 450.232 174.117 438.188H201.852C202.503 442.354 204.26 445.74 207.125 448.344C209.99 450.948 213.798 452.25 218.551 452.25C227.73 452.25 234.176 447.172 237.887 437.016C239.905 431.417 241.174 423.246 241.695 412.504C239.156 415.694 236.454 418.135 233.59 419.828C228.382 422.953 221.969 424.516 214.352 424.516C203.089 424.516 193.095 420.642 184.371 412.895C175.647 405.082 171.285 393.852 171.285 379.203C171.285 364.034 175.647 351.762 184.371 342.387C193.16 332.947 204.553 328.227 218.551 328.227C240.1 328.227 254.879 337.764 262.887 356.84C267.444 367.647 269.723 381.872 269.723 399.516C269.723 416.638 267.542 430.928 263.18 442.387C254.846 464.197 239.547 475.102 217.281 475.102ZM207.516 355.473C202.177 359.639 199.508 366.703 199.508 376.664C199.508 385.062 201.201 391.378 204.586 395.609C208.036 399.776 213.31 401.859 220.406 401.859C224.247 401.859 227.861 400.753 231.246 398.539C237.561 394.503 240.719 387.504 240.719 377.543C240.719 369.535 238.831 363.188 235.055 358.5C231.344 353.812 226.233 351.469 219.723 351.469C214.97 351.469 210.901 352.803 207.516 355.473Z" fill="#E85859" fill-opacity="0.8"/>
<path d="M290 53H297.353V60.2653H304.08V53H311.433V75H304.08V67.6334H297.353V75H290V53ZM321.102 60.2961H314.63V53H334.932V60.2961H328.457V75H321.104L321.102 60.2961ZM338.155 53H345.826L350.542 60.7293L355.25 53H362.92V75H355.596V64.0947L350.538 71.9165H350.412L345.349 64.0947V74.9985H338.154L338.155 53ZM366.579 53H373.934V67.7274H384.274V74.9985H366.579V53Z" fill="#E85859"/>
<g filter="url(#filter0_d_5189_12077)">
<path d="M389.81 82.4785L380.171 190.466L336.841 202.479L293.63 190.483L284 82.4785H389.81Z" fill="#E44D26"/>
<path d="M336.905 193.296L371.918 183.589L380.156 91.3086H336.905V193.296Z" fill="#F16529"/>
<path d="M318.165 117.802H336.904V104.562H303.689L304.006 108.117L307.262 144.619H336.905V131.367H319.376L318.165 117.802ZM321.151 151.236H307.853L309.709 172.034L336.843 179.561L336.904 179.545V165.768L336.846 165.783L322.094 161.8L321.153 151.236H321.151Z" fill="#EBEBEB"/>
<path d="M336.859 144.611H353.17L351.633 161.791L336.858 165.778V179.559L364.012 172.031L364.211 169.793L367.324 134.92L367.646 131.363H336.859V144.611ZM336.859 117.768V117.801H368.852L369.121 114.823L369.725 108.102L370.041 104.548H336.859V117.762V117.768Z" fill="white"/>
</g>
<path d="M533.881 59.583H523.425L534.299 71.3827V77H511.903V70.4226H522.775L511.903 58.623V53H533.881V59.583V59.583ZM507.463 59.583H497.007L507.88 71.3827V77H485.483V70.4226H496.357L485.483 58.623V53H507.463V59.583V59.583ZM481.303 59.8521H470.02V70.1479H481.303V77H462V53H481.303V59.8521V59.8521Z" fill="#E85859"/>
<g filter="url(#filter1_d_5189_12077)">
<path d="M454.63 191.347L445 83.3438H550.808L541.17 191.329L497.839 203.344L454.63 191.347V191.347Z" fill="#1572B6"/>
<path d="M497.906 194.162L532.918 184.454L541.155 92.1758H497.906V194.162Z" fill="#33A9DC"/>
<path d="M497.905 131.304H515.433L516.644 117.741H497.905V104.494H531.121L530.803 108.048L527.548 144.55H497.905V131.304V131.304Z" fill="white"/>
<path d="M497.984 165.706L497.926 165.722L483.174 161.738L482.23 151.174H468.935L470.791 171.972L497.924 179.504L497.986 179.486V165.706H497.984Z" fill="#EBEBEB"/>
<path d="M514.307 143.989L512.711 161.729L497.938 165.717V179.498L525.093 171.972L525.293 169.734L527.598 143.989H514.307V143.989Z" fill="white"/>
<path d="M497.951 104.494V117.739H465.955L465.689 114.763L465.086 108.048L464.769 104.494H497.951ZM497.905 131.306V144.552H483.339L483.074 141.575L482.47 134.859L482.152 131.306H497.905V131.306Z" fill="#EBEBEB"/>
</g>
<path d="M344.879 303.24C341.119 306.681 336.311 308.401 330.455 308.401C323.209 308.401 317.512 306.077 313.365 301.429C309.218 296.757 307.145 290.354 307.145 282.22C307.145 273.424 309.503 266.645 314.22 261.883C318.321 257.736 323.539 255.662 329.874 255.662C338.351 255.662 344.549 258.442 348.468 264.002C350.632 267.124 351.795 270.257 351.954 273.401H341.427C340.743 270.986 339.866 269.163 338.795 267.933C336.881 265.745 334.044 264.651 330.284 264.651C326.456 264.651 323.437 266.201 321.227 269.3C319.016 272.376 317.911 276.74 317.911 282.391C317.911 288.042 319.073 292.28 321.397 295.105C323.744 297.908 326.718 299.31 330.318 299.31C334.01 299.31 336.824 298.102 338.761 295.687C339.832 294.388 340.72 292.439 341.427 289.842H351.852C350.94 295.333 348.616 299.799 344.879 303.24ZM378.204 299.72C380.688 299.72 382.704 299.446 384.254 298.899C387.193 297.851 388.663 295.903 388.663 293.055C388.663 291.391 387.934 290.104 386.476 289.192C385.017 288.304 382.727 287.518 379.605 286.834L374.273 285.638C369.033 284.453 365.41 283.165 363.404 281.775C360.009 279.451 358.312 275.817 358.312 270.872C358.312 266.36 359.952 262.612 363.233 259.627C366.515 256.642 371.334 255.149 377.691 255.149C383.001 255.149 387.524 256.562 391.261 259.388C395.021 262.19 396.992 266.269 397.174 271.624H387.057C386.874 268.593 385.553 266.44 383.092 265.164C381.451 264.321 379.412 263.899 376.974 263.899C374.262 263.899 372.097 264.446 370.479 265.54C368.862 266.634 368.053 268.16 368.053 270.12C368.053 271.92 368.85 273.265 370.445 274.153C371.471 274.746 373.658 275.441 377.008 276.238L385.689 278.323C389.495 279.235 392.366 280.454 394.303 281.98C397.311 284.35 398.814 287.78 398.814 292.269C398.814 296.871 397.049 300.7 393.517 303.753C390.007 306.784 385.04 308.299 378.614 308.299C372.052 308.299 366.891 306.806 363.131 303.821C359.371 300.813 357.491 296.689 357.491 291.448H367.54C367.859 293.75 368.486 295.47 369.42 296.609C371.129 298.683 374.057 299.72 378.204 299.72ZM424.894 299.72C427.377 299.72 429.394 299.446 430.943 298.899C433.883 297.851 435.353 295.903 435.353 293.055C435.353 291.391 434.623 290.104 433.165 289.192C431.707 288.304 429.417 287.518 426.295 286.834L420.963 285.638C415.722 284.453 412.099 283.165 410.094 281.775C406.699 279.451 405.001 275.817 405.001 270.872C405.001 266.36 406.642 262.612 409.923 259.627C413.204 256.642 418.023 255.149 424.381 255.149C429.69 255.149 434.213 256.562 437.95 259.388C441.71 262.19 443.681 266.269 443.863 271.624H433.746C433.564 268.593 432.242 266.44 429.781 265.164C428.141 264.321 426.101 263.899 423.663 263.899C420.951 263.899 418.787 264.446 417.169 265.54C415.551 266.634 414.742 268.16 414.742 270.12C414.742 271.92 415.54 273.265 417.135 274.153C418.16 274.746 420.348 275.441 423.697 276.238L432.379 278.323C436.184 279.235 439.055 280.454 440.992 281.98C444 284.35 445.504 287.78 445.504 292.269C445.504 296.871 443.738 300.7 440.206 303.753C436.697 306.784 431.729 308.299 425.304 308.299C418.741 308.299 413.58 306.806 409.82 303.821C406.061 300.813 404.181 296.689 404.181 291.448H414.229C414.549 293.75 415.175 295.47 416.109 296.609C417.818 298.683 420.746 299.72 424.894 299.72ZM466.251 296.814V307H455.895V296.814H466.251ZM455.895 281.399V271.214H466.251V281.399H455.895ZM309.332 336.619H319.859V377.942H344.811V387H309.332V336.619ZM352.74 353.777C355.315 350.496 359.736 348.855 366.002 348.855C370.081 348.855 373.704 349.664 376.871 351.282C380.038 352.9 381.622 355.953 381.622 360.442V377.532C381.622 378.717 381.645 380.153 381.69 381.839C381.759 383.115 381.952 383.981 382.271 384.437C382.59 384.892 383.069 385.268 383.707 385.564V387H373.111C372.815 386.248 372.61 385.542 372.496 384.881C372.382 384.22 372.291 383.468 372.223 382.625C370.878 384.083 369.329 385.325 367.574 386.351C365.478 387.558 363.108 388.162 360.465 388.162C357.092 388.162 354.301 387.205 352.091 385.291C349.903 383.354 348.81 380.62 348.81 377.088C348.81 372.508 350.576 369.192 354.107 367.142C356.044 366.025 358.893 365.228 362.652 364.749L365.968 364.339C367.768 364.111 369.055 363.826 369.83 363.484C371.22 362.892 371.915 361.969 371.915 360.716C371.915 359.189 371.38 358.141 370.309 357.571C369.26 356.979 367.711 356.683 365.66 356.683C363.359 356.683 361.729 357.252 360.772 358.392C360.089 359.235 359.633 360.374 359.405 361.81H350.006C350.211 358.551 351.122 355.874 352.74 353.777ZM359.986 379.959C360.898 380.711 362.014 381.087 363.336 381.087C365.432 381.087 367.358 380.472 369.112 379.241C370.89 378.011 371.812 375.766 371.881 372.508V368.885C371.266 369.272 370.639 369.591 370.001 369.842C369.386 370.07 368.531 370.286 367.438 370.491L365.25 370.901C363.199 371.266 361.729 371.71 360.841 372.234C359.337 373.123 358.585 374.502 358.585 376.37C358.585 378.034 359.052 379.23 359.986 379.959ZM405.445 377.225L413.136 349.744H423.492L410.709 386.385C408.248 393.449 406.3 397.824 404.864 399.51C403.429 401.219 400.558 402.073 396.251 402.073C395.385 402.073 394.69 402.062 394.166 402.039C393.642 402.039 392.856 402.005 391.808 401.937V394.144L393.038 394.212C393.995 394.257 394.907 394.223 395.772 394.109C396.638 393.995 397.368 393.733 397.96 393.323C398.53 392.936 399.054 392.127 399.532 390.896C400.034 389.666 400.239 388.914 400.147 388.641L386.476 349.744H397.311L405.445 377.225ZM460.338 354.461C463.482 358.403 465.055 363.063 465.055 368.44C465.055 373.909 463.482 378.592 460.338 382.488C457.193 386.362 452.42 388.299 446.017 388.299C439.614 388.299 434.84 386.362 431.695 382.488C428.551 378.592 426.979 373.909 426.979 368.44C426.979 363.063 428.551 358.403 431.695 354.461C434.84 350.519 439.614 348.548 446.017 348.548C452.42 348.548 457.193 350.519 460.338 354.461ZM445.982 356.785C443.134 356.785 440.935 357.799 439.386 359.827C437.859 361.832 437.096 364.703 437.096 368.44C437.096 372.177 437.859 375.06 439.386 377.088C440.935 379.116 443.134 380.13 445.982 380.13C448.831 380.13 451.018 379.116 452.545 377.088C454.072 375.06 454.835 372.177 454.835 368.44C454.835 364.703 454.072 361.832 452.545 359.827C451.018 357.799 448.831 356.785 445.982 356.785ZM495.953 381.736C495.862 381.85 495.634 382.192 495.27 382.762C494.905 383.331 494.472 383.833 493.971 384.266C492.444 385.633 490.963 386.567 489.527 387.068C488.115 387.57 486.451 387.82 484.537 387.82C479.023 387.82 475.309 385.838 473.395 381.873C472.324 379.686 471.788 376.461 471.788 372.2V349.744H481.769V372.2C481.769 374.319 482.019 375.914 482.521 376.985C483.409 378.877 485.152 379.822 487.75 379.822C491.077 379.822 493.355 378.478 494.586 375.789C495.224 374.331 495.543 372.405 495.543 370.013V349.744H505.421V387H495.953V381.736ZM531.91 380.062V387.342L527.296 387.513C522.693 387.672 519.549 386.875 517.862 385.12C516.769 384.004 516.222 382.283 516.222 379.959V357.024H511.026V350.086H516.222V339.695H525.86V350.086H531.91V357.024H525.86V376.712C525.86 378.239 526.054 379.196 526.441 379.583C526.829 379.948 528.014 380.13 529.996 380.13C530.292 380.13 530.6 380.13 530.919 380.13C531.261 380.107 531.591 380.084 531.91 380.062ZM568.346 401.116L565.919 397.801C564.347 395.796 562.672 392.811 560.895 388.846C557.727 381.759 556.144 374.786 556.144 367.928C556.144 361.684 557.477 355.486 560.143 349.334C561.943 345.141 564.575 340.63 568.038 335.799H575.387L573.302 339.627C570.431 344.891 568.437 350.405 567.32 356.17C566.591 359.952 566.227 364.077 566.227 368.543C566.227 375.516 567.241 381.93 569.269 387.786C570.453 391.25 572.55 395.693 575.558 401.116H568.346ZM589.811 347.317C588.717 348.776 588.193 350.724 588.238 353.162H579.146C579.238 350.701 579.659 348.366 580.411 346.155C581.209 344.218 582.462 342.43 584.171 340.789C585.447 339.627 586.962 338.738 588.717 338.123C590.471 337.508 592.625 337.2 595.177 337.2C599.916 337.2 603.733 338.431 606.627 340.892C609.544 343.33 611.002 346.611 611.002 350.735C611.002 353.652 610.136 356.113 608.404 358.118C607.311 359.371 606.171 360.226 604.986 360.682C605.875 360.682 607.151 361.445 608.814 362.972C611.298 365.273 612.54 368.418 612.54 372.405C612.54 376.598 611.082 380.289 608.165 383.479C605.271 386.647 600.976 388.23 595.279 388.23C588.261 388.23 583.385 385.94 580.65 381.36C579.215 378.922 578.417 375.732 578.258 371.79H587.828C587.828 373.772 588.147 375.413 588.785 376.712C589.97 379.104 592.123 380.301 595.245 380.301C597.159 380.301 598.823 379.651 600.235 378.353C601.671 377.031 602.389 375.14 602.389 372.679C602.389 369.42 601.067 367.244 598.424 366.15C596.92 365.535 594.55 365.228 591.314 365.228V358.255C594.482 358.209 596.692 357.902 597.945 357.332C600.11 356.375 601.192 354.438 601.192 351.521C601.192 349.63 600.634 348.092 599.518 346.907C598.424 345.722 596.874 345.13 594.869 345.13C592.568 345.13 590.882 345.859 589.811 347.317ZM625.733 397.801L623.307 401.116H616.095C619.103 395.693 621.199 391.25 622.384 387.786C624.412 381.93 625.426 375.516 625.426 368.543C625.426 364.077 625.061 359.952 624.332 356.17C623.215 350.405 621.222 344.891 618.351 339.627L616.266 335.799H623.614C627.078 340.63 629.71 345.141 631.51 349.334C634.176 355.486 635.509 361.684 635.509 367.928C635.509 374.786 633.925 381.759 630.758 388.846C628.98 392.811 627.306 395.796 625.733 397.801ZM657.999 363.689H697.203V371.141H657.999V363.689ZM330.729 448.885H320.03V467H309.571V416.619H331.515C336.573 416.619 340.606 417.918 343.614 420.516C346.622 423.113 348.126 427.135 348.126 432.581C348.126 438.528 346.622 442.732 343.614 445.193C340.606 447.654 336.311 448.885 330.729 448.885ZM335.65 438.392C337.018 437.184 337.701 435.27 337.701 432.649C337.701 430.029 337.006 428.16 335.616 427.044C334.249 425.927 332.324 425.369 329.84 425.369H320.03V440.203H329.84C332.324 440.203 334.26 439.599 335.65 438.392ZM386.305 434.461C389.449 438.403 391.021 443.063 391.021 448.44C391.021 453.909 389.449 458.592 386.305 462.488C383.16 466.362 378.386 468.299 371.983 468.299C365.58 468.299 360.807 466.362 357.662 462.488C354.518 458.592 352.945 453.909 352.945 448.44C352.945 443.063 354.518 438.403 357.662 434.461C360.807 430.519 365.58 428.548 371.983 428.548C378.386 428.548 383.16 430.519 386.305 434.461ZM371.949 436.785C369.101 436.785 366.902 437.799 365.353 439.827C363.826 441.832 363.062 444.703 363.062 448.44C363.062 452.177 363.826 455.06 365.353 457.088C366.902 459.116 369.101 460.13 371.949 460.13C374.798 460.13 376.985 459.116 378.512 457.088C380.038 455.06 380.802 452.177 380.802 448.44C380.802 444.703 380.038 441.832 378.512 439.827C376.985 437.799 374.798 436.785 371.949 436.785ZM423.697 431.453C426.614 433.322 428.289 436.535 428.722 441.092H418.98C418.844 439.839 418.491 438.847 417.921 438.118C416.85 436.797 415.027 436.136 412.452 436.136C410.333 436.136 408.818 436.466 407.906 437.127C407.018 437.788 406.573 438.562 406.573 439.451C406.573 440.568 407.052 441.377 408.009 441.878C408.966 442.402 412.35 443.302 418.16 444.578C422.034 445.49 424.939 446.868 426.876 448.714C428.79 450.582 429.747 452.918 429.747 455.721C429.747 459.412 428.368 462.431 425.611 464.778C422.877 467.103 418.639 468.265 412.896 468.265C407.04 468.265 402.711 467.034 399.908 464.573C397.128 462.09 395.738 458.934 395.738 455.105H405.616C405.821 456.837 406.266 458.068 406.949 458.797C408.157 460.096 410.39 460.745 413.648 460.745C415.562 460.745 417.078 460.46 418.194 459.891C419.334 459.321 419.903 458.466 419.903 457.327C419.903 456.233 419.448 455.402 418.536 454.832C417.625 454.262 414.241 453.283 408.385 451.893C404.169 450.844 401.196 449.534 399.464 447.962C397.732 446.412 396.866 444.179 396.866 441.263C396.866 437.822 398.211 434.871 400.899 432.41C403.611 429.926 407.416 428.685 412.315 428.685C416.964 428.685 420.758 429.607 423.697 431.453ZM447.008 429.744V467H437.13V429.744H447.008ZM447.008 416.312V425.301H437.13V416.312H447.008ZM473.531 460.062V467.342L468.917 467.513C464.314 467.672 461.17 466.875 459.483 465.12C458.39 464.004 457.843 462.283 457.843 459.959V437.024H452.647V430.086H457.843V419.695H467.481V430.086H473.531V437.024H467.481V456.712C467.481 458.239 467.675 459.196 468.062 459.583C468.45 459.948 469.635 460.13 471.617 460.13C471.913 460.13 472.221 460.13 472.54 460.13C472.882 460.107 473.212 460.084 473.531 460.062ZM489.801 429.744V467H479.923V429.744H489.801ZM489.801 416.312V425.301H479.923V416.312H489.801ZM530.338 434.461C533.482 438.403 535.055 443.063 535.055 448.44C535.055 453.909 533.482 458.592 530.338 462.488C527.193 466.362 522.42 468.299 516.017 468.299C509.614 468.299 504.84 466.362 501.695 462.488C498.551 458.592 496.979 453.909 496.979 448.44C496.979 443.063 498.551 438.403 501.695 434.461C504.84 430.519 509.614 428.548 516.017 428.548C522.42 428.548 527.193 430.519 530.338 434.461ZM515.982 436.785C513.134 436.785 510.935 437.799 509.386 439.827C507.859 441.832 507.096 444.703 507.096 448.44C507.096 452.177 507.859 455.06 509.386 457.088C510.935 459.116 513.134 460.13 515.982 460.13C518.831 460.13 521.018 459.116 522.545 457.088C524.072 455.06 524.835 452.177 524.835 448.44C524.835 444.703 524.072 441.832 522.545 439.827C521.018 437.799 518.831 436.785 515.982 436.785ZM559.596 436.956C556.292 436.956 554.024 438.357 552.794 441.16C552.156 442.641 551.837 444.533 551.837 446.834V467H542.13V429.812H551.529V435.247C552.783 433.333 553.967 431.954 555.084 431.111C557.089 429.607 559.63 428.855 562.706 428.855C566.557 428.855 569.701 429.869 572.14 431.897C574.601 433.903 575.831 437.241 575.831 441.912V467H565.851V444.339C565.851 442.379 565.589 440.875 565.064 439.827C564.107 437.913 562.285 436.956 559.596 436.956ZM330.729 528.885H320.03V547H309.571V496.619H331.515C336.573 496.619 340.606 497.918 343.614 500.516C346.622 503.113 348.126 507.135 348.126 512.581C348.126 518.528 346.622 522.732 343.614 525.193C340.606 527.654 336.311 528.885 330.729 528.885ZM335.65 518.392C337.018 517.184 337.701 515.27 337.701 512.649C337.701 510.029 337.006 508.16 335.616 507.044C334.249 505.927 332.324 505.369 329.84 505.369H320.03V520.203H329.84C332.324 520.203 334.26 519.599 335.65 518.392ZM373.966 518.733C370.047 518.733 367.415 520.009 366.07 522.562C365.318 523.997 364.942 526.207 364.942 529.192V547H355.133V509.744H364.43V516.238C365.934 513.755 367.244 512.057 368.36 511.146C370.183 509.619 372.553 508.855 375.47 508.855C375.652 508.855 375.8 508.867 375.914 508.89C376.051 508.89 376.336 508.901 376.769 508.924V518.904C376.153 518.836 375.606 518.79 375.128 518.768C374.649 518.745 374.262 518.733 373.966 518.733ZM413.58 514.461C416.725 518.403 418.297 523.063 418.297 528.44C418.297 533.909 416.725 538.592 413.58 542.488C410.436 546.362 405.662 548.299 399.259 548.299C392.856 548.299 388.082 546.362 384.938 542.488C381.793 538.592 380.221 533.909 380.221 528.44C380.221 523.063 381.793 518.403 384.938 514.461C388.082 510.519 392.856 508.548 399.259 508.548C405.662 508.548 410.436 510.519 413.58 514.461ZM399.225 516.785C396.376 516.785 394.177 517.799 392.628 519.827C391.101 521.832 390.338 524.703 390.338 528.44C390.338 532.177 391.101 535.06 392.628 537.088C394.177 539.116 396.376 540.13 399.225 540.13C402.073 540.13 404.26 539.116 405.787 537.088C407.314 535.06 408.077 532.177 408.077 528.44C408.077 524.703 407.314 521.832 405.787 519.827C404.26 517.799 402.073 516.785 399.225 516.785ZM456.51 513.743C459.518 516.956 461.021 521.673 461.021 527.894C461.021 534.456 459.54 539.458 456.578 542.898C453.639 546.339 449.845 548.06 445.196 548.06C442.234 548.06 439.773 547.319 437.813 545.838C436.743 545.018 435.694 543.821 434.669 542.249V561.663H425.03V509.744H434.361V515.247C435.41 513.629 436.526 512.353 437.711 511.419C439.876 509.756 442.451 508.924 445.436 508.924C449.788 508.924 453.479 510.53 456.51 513.743ZM450.973 528.372C450.973 525.501 450.312 522.96 448.99 520.75C447.691 518.54 445.572 517.435 442.633 517.435C439.101 517.435 436.674 519.109 435.353 522.459C434.669 524.236 434.327 526.492 434.327 529.227C434.327 533.556 435.478 536.598 437.779 538.353C439.146 539.378 440.764 539.891 442.633 539.891C445.344 539.891 447.407 538.842 448.819 536.746C450.255 534.65 450.973 531.858 450.973 528.372ZM499.986 536.062C499.736 538.273 498.585 540.517 496.534 542.796C493.344 546.419 488.878 548.23 483.136 548.23C478.396 548.23 474.215 546.704 470.592 543.65C466.969 540.597 465.157 535.63 465.157 528.748C465.157 522.299 466.786 517.355 470.045 513.914C473.326 510.473 477.576 508.753 482.794 508.753C485.893 508.753 488.684 509.334 491.168 510.496C493.652 511.658 495.702 513.493 497.32 515.999C498.779 518.209 499.724 520.773 500.157 523.689C500.408 525.398 500.51 527.859 500.465 531.072H474.967C475.104 534.809 476.277 537.43 478.487 538.934C479.832 539.868 481.45 540.335 483.341 540.335C485.346 540.335 486.975 539.765 488.229 538.626C488.912 538.011 489.516 537.156 490.04 536.062H499.986ZM490.348 524.646C490.188 522.072 489.402 520.123 487.989 518.802C486.599 517.457 484.868 516.785 482.794 516.785C480.538 516.785 478.784 517.492 477.53 518.904C476.3 520.317 475.525 522.231 475.206 524.646H490.348ZM525.792 518.733C521.873 518.733 519.241 520.009 517.896 522.562C517.145 523.997 516.769 526.207 516.769 529.192V547H506.959V509.744H516.256V516.238C517.76 513.755 519.07 512.057 520.187 511.146C522.009 509.619 524.379 508.855 527.296 508.855C527.478 508.855 527.626 508.867 527.74 508.89C527.877 508.89 528.162 508.901 528.595 508.924V518.904C527.979 518.836 527.433 518.79 526.954 518.768C526.476 518.745 526.088 518.733 525.792 518.733ZM551.393 540.062V547.342L546.778 547.513C542.175 547.672 539.031 546.875 537.345 545.12C536.251 544.004 535.704 542.283 535.704 539.959V517.024H530.509V510.086H535.704V499.695H545.343V510.086H551.393V517.024H545.343V536.712C545.343 538.239 545.536 539.196 545.924 539.583C546.311 539.948 547.496 540.13 549.479 540.13C549.775 540.13 550.082 540.13 550.401 540.13C550.743 540.107 551.074 540.084 551.393 540.062ZM572.789 537.225L580.479 509.744H590.836L578.053 546.385C575.592 553.449 573.644 557.824 572.208 559.51C570.772 561.219 567.901 562.073 563.595 562.073C562.729 562.073 562.034 562.062 561.51 562.039C560.986 562.039 560.2 562.005 559.151 561.937V554.144L560.382 554.212C561.339 554.257 562.25 554.223 563.116 554.109C563.982 553.995 564.711 553.733 565.304 553.323C565.873 552.936 566.397 552.127 566.876 550.896C567.377 549.666 567.582 548.914 567.491 548.641L553.819 509.744H564.654L572.789 537.225Z" fill="#E85859"/>
<defs>
<filter id="filter0_d_5189_12077" x="204" y="2.47852" width="305.81" height="320" filterUnits="userSpaceOnUse" color-interpolation-filters="sRGB">
<feFlood flood-opacity="0" result="BackgroundImageFix"/>
<feColorMatrix in="SourceAlpha" type="matrix" values="0 0 0 0 0 0 0 0 0 0 0 0 0 0 0 0 0 0 127 0" result="hardAlpha"/>
<feOffset dx="20" dy="20"/>
<feGaussianBlur stdDeviation="50"/>
<feComposite in2="hardAlpha" operator="out"/>
<feColorMatrix type="matrix" values="0 0 0 0 0 0 0 0 0 0 0 0 0 0 0 0 0 0 0.25 0"/>
<feBlend mode="normal" in2="BackgroundImageFix" result="effect1_dropShadow_5189_12077"/>
<feBlend mode="normal" in="SourceGraphic" in2="effect1_dropShadow_5189_12077" result="shape"/>
</filter>
<filter id="filter1_d_5189_12077" x="365" y="3.34375" width="305.808" height="320" filterUnits="userSpaceOnUse" color-interpolation-filters="sRGB">
<feFlood flood-opacity="0" result="BackgroundImageFix"/>
<feColorMatrix in="SourceAlpha" type="matrix" values="0 0 0 0 0 0 0 0 0 0 0 0 0 0 0 0 0 0 127 0" result="hardAlpha"/>
<feOffset dx="20" dy="20"/>
<feGaussianBlur stdDeviation="50"/>
<feComposite in2="hardAlpha" operator="out"/>
<feColorMatrix type="matrix" values="0 0 0 0 0 0 0 0 0 0 0 0 0 0 0 0 0 0 0.25 0"/>
<feBlend mode="normal" in2="BackgroundImageFix" result="effect1_dropShadow_5189_12077"/>
<feBlend mode="normal" in="SourceGraphic" in2="effect1_dropShadow_5189_12077" result="shape"/>
</filter>
<linearGradient id="paint0_linear_5189_12077" x1="800" y1="0" x2="1.78814e-05" y2="600" gradientUnits="userSpaceOnUse">
<stop stop-color="#FFF4F4"/>
<stop offset="1" stop-color="#FFBFBF"/>
</linearGradient>
</defs>
</svg>
