<svg width="800" height="600" viewBox="0 0 800 600" fill="none" xmlns="http://www.w3.org/2000/svg">
<rect width="800" height="600" fill="url(#paint0_linear_5189_12023)"/>
<line x1="91" y1="218" x2="742" y2="218" stroke="#E85859" stroke-width="2"/>
<path d="M129.684 471H101.168V373.344H67.8672V354.398C76.6562 354.008 82.8086 353.422 86.3242 352.641C91.9232 351.404 96.4805 348.93 99.9961 345.219C102.405 342.68 104.228 339.294 105.465 335.062C106.181 332.523 106.539 330.635 106.539 329.398H129.684V471ZM226.461 379.105C239.026 379.105 249.312 383.37 257.32 391.898C265.393 400.427 269.43 411.332 269.43 424.613C269.43 437.829 265.491 449.483 257.613 459.574C249.736 469.665 237.496 474.711 220.895 474.711C203.056 474.711 189.905 467.257 181.441 452.348C174.866 440.694 171.578 425.655 171.578 407.23C171.578 396.423 172.034 387.634 172.945 380.863C174.573 368.819 177.73 358.793 182.418 350.785C186.454 343.949 191.728 338.448 198.238 334.281C204.814 330.115 212.659 328.031 221.773 328.031C234.924 328.031 245.406 331.417 253.219 338.188C261.031 344.893 265.426 353.845 266.402 365.043H238.668C238.668 362.764 237.789 360.258 236.031 357.523C233.036 353.096 228.512 350.883 222.457 350.883C213.408 350.883 206.962 355.961 203.121 366.117C201.038 371.716 199.605 379.984 198.824 390.922C202.275 386.82 206.279 383.826 210.836 381.938C215.393 380.049 220.602 379.105 226.461 379.105ZM207.711 405.668C202.242 409.9 199.508 416.736 199.508 426.176C199.508 433.793 201.559 440.01 205.66 444.828C209.762 449.646 214.97 452.055 221.285 452.055C227.47 452.055 232.32 449.743 235.836 445.121C239.417 440.434 241.207 434.379 241.207 426.957C241.207 418.689 239.189 412.374 235.152 408.012C231.116 403.585 226.168 401.371 220.309 401.371C215.556 401.371 211.357 402.803 207.711 405.668Z" fill="#E85859" fill-opacity="0.8"/>
<path d="M290 53H297.353V60.2653H304.08V53H311.433V75H304.08V67.6334H297.353V75H290V53ZM321.102 60.2961H314.63V53H334.932V60.2961H328.457V75H321.104L321.102 60.2961ZM338.155 53H345.826L350.542 60.7293L355.25 53H362.92V75H355.596V64.0947L350.538 71.9165H350.412L345.349 64.0947V74.9985H338.154L338.155 53ZM366.579 53H373.934V67.7274H384.274V74.9985H366.579V53Z" fill="#E85859"/>
<g filter="url(#filter0_d_5189_12023)">
<path d="M389.81 82.4785L380.171 190.466L336.841 202.479L293.63 190.483L284 82.4785H389.81Z" fill="#E44D26"/>
<path d="M336.905 193.296L371.918 183.589L380.156 91.3086H336.905V193.296Z" fill="#F16529"/>
<path d="M318.165 117.802H336.904V104.562H303.689L304.006 108.117L307.262 144.619H336.905V131.367H319.376L318.165 117.802ZM321.151 151.236H307.853L309.709 172.034L336.843 179.561L336.904 179.545V165.768L336.846 165.783L322.094 161.8L321.153 151.236H321.151Z" fill="#EBEBEB"/>
<path d="M336.859 144.611H353.17L351.633 161.791L336.858 165.778V179.559L364.012 172.031L364.211 169.793L367.324 134.92L367.646 131.363H336.859V144.611ZM336.859 117.768V117.801H368.852L369.121 114.823L369.725 108.102L370.041 104.548H336.859V117.762V117.768Z" fill="white"/>
</g>
<path d="M533.881 59.583H523.425L534.299 71.3827V77H511.903V70.4226H522.775L511.903 58.623V53H533.881V59.583V59.583ZM507.463 59.583H497.007L507.88 71.3827V77H485.483V70.4226H496.357L485.483 58.623V53H507.463V59.583V59.583ZM481.303 59.8521H470.02V70.1479H481.303V77H462V53H481.303V59.8521V59.8521Z" fill="#E85859"/>
<g filter="url(#filter1_d_5189_12023)">
<path d="M454.63 191.347L445 83.3438H550.808L541.17 191.329L497.839 203.344L454.63 191.347V191.347Z" fill="#1572B6"/>
<path d="M497.906 194.162L532.918 184.454L541.155 92.1758H497.906V194.162Z" fill="#33A9DC"/>
<path d="M497.905 131.304H515.433L516.644 117.741H497.905V104.494H531.121L530.803 108.048L527.548 144.55H497.905V131.304V131.304Z" fill="white"/>
<path d="M497.984 165.706L497.926 165.722L483.174 161.738L482.23 151.174H468.935L470.791 171.972L497.924 179.504L497.986 179.486V165.706H497.984Z" fill="#EBEBEB"/>
<path d="M514.307 143.989L512.711 161.729L497.938 165.717V179.498L525.093 171.972L525.293 169.734L527.598 143.989H514.307V143.989Z" fill="white"/>
<path d="M497.951 104.494V117.739H465.955L465.689 114.763L465.086 108.048L464.769 104.494H497.951ZM497.905 131.306V144.552H483.339L483.074 141.575L482.47 134.859L482.152 131.306H497.905V131.306Z" fill="#EBEBEB"/>
</g>
<path d="M344.879 343.24C341.119 346.681 336.311 348.401 330.455 348.401C323.209 348.401 317.512 346.077 313.365 341.429C309.218 336.757 307.145 330.354 307.145 322.22C307.145 313.424 309.503 306.645 314.22 301.883C318.321 297.736 323.539 295.662 329.874 295.662C338.351 295.662 344.549 298.442 348.468 304.002C350.632 307.124 351.795 310.257 351.954 313.401H341.427C340.743 310.986 339.866 309.163 338.795 307.933C336.881 305.745 334.044 304.651 330.284 304.651C326.456 304.651 323.437 306.201 321.227 309.3C319.016 312.376 317.911 316.74 317.911 322.391C317.911 328.042 319.073 332.28 321.397 335.105C323.744 337.908 326.718 339.31 330.318 339.31C334.01 339.31 336.824 338.102 338.761 335.687C339.832 334.388 340.72 332.439 341.427 329.842H351.852C350.94 335.333 348.616 339.799 344.879 343.24ZM378.204 339.72C380.688 339.72 382.704 339.446 384.254 338.899C387.193 337.851 388.663 335.903 388.663 333.055C388.663 331.391 387.934 330.104 386.476 329.192C385.017 328.304 382.727 327.518 379.605 326.834L374.273 325.638C369.033 324.453 365.41 323.165 363.404 321.775C360.009 319.451 358.312 315.817 358.312 310.872C358.312 306.36 359.952 302.612 363.233 299.627C366.515 296.642 371.334 295.149 377.691 295.149C383.001 295.149 387.524 296.562 391.261 299.388C395.021 302.19 396.992 306.269 397.174 311.624H387.057C386.874 308.593 385.553 306.44 383.092 305.164C381.451 304.321 379.412 303.899 376.974 303.899C374.262 303.899 372.097 304.446 370.479 305.54C368.862 306.634 368.053 308.16 368.053 310.12C368.053 311.92 368.85 313.265 370.445 314.153C371.471 314.746 373.658 315.441 377.008 316.238L385.689 318.323C389.495 319.235 392.366 320.454 394.303 321.98C397.311 324.35 398.814 327.78 398.814 332.269C398.814 336.871 397.049 340.7 393.517 343.753C390.007 346.784 385.04 348.299 378.614 348.299C372.052 348.299 366.891 346.806 363.131 343.821C359.371 340.813 357.491 336.689 357.491 331.448H367.54C367.859 333.75 368.486 335.47 369.42 336.609C371.129 338.683 374.057 339.72 378.204 339.72ZM424.894 339.72C427.377 339.72 429.394 339.446 430.943 338.899C433.883 337.851 435.353 335.903 435.353 333.055C435.353 331.391 434.623 330.104 433.165 329.192C431.707 328.304 429.417 327.518 426.295 326.834L420.963 325.638C415.722 324.453 412.099 323.165 410.094 321.775C406.699 319.451 405.001 315.817 405.001 310.872C405.001 306.36 406.642 302.612 409.923 299.627C413.204 296.642 418.023 295.149 424.381 295.149C429.69 295.149 434.213 296.562 437.95 299.388C441.71 302.19 443.681 306.269 443.863 311.624H433.746C433.564 308.593 432.242 306.44 429.781 305.164C428.141 304.321 426.101 303.899 423.663 303.899C420.951 303.899 418.787 304.446 417.169 305.54C415.551 306.634 414.742 308.16 414.742 310.12C414.742 311.92 415.54 313.265 417.135 314.153C418.16 314.746 420.348 315.441 423.697 316.238L432.379 318.323C436.184 319.235 439.055 320.454 440.992 321.98C444 324.35 445.504 327.78 445.504 332.269C445.504 336.871 443.738 340.7 440.206 343.753C436.697 346.784 431.729 348.299 425.304 348.299C418.741 348.299 413.58 346.806 409.82 343.821C406.061 340.813 404.181 336.689 404.181 331.448H414.229C414.549 333.75 415.175 335.47 416.109 336.609C417.818 338.683 420.746 339.72 424.894 339.72ZM466.251 336.814V347H455.895V336.814H466.251ZM455.895 321.399V311.214H466.251V321.399H455.895ZM337.53 416.644H318.971L315.484 427H304.479L322.457 376.619H334.352L352.193 427H340.777L337.53 416.644ZM334.591 407.962L328.302 388.138L321.808 407.962H334.591ZM391.739 376.688V427H382.271V421.839C380.882 424.049 379.298 425.656 377.521 426.658C375.743 427.661 373.533 428.162 370.89 428.162C366.537 428.162 362.869 426.408 359.884 422.898C356.922 419.367 355.44 414.843 355.44 409.329C355.44 402.972 356.899 397.97 359.815 394.324C362.755 390.678 366.674 388.855 371.573 388.855C373.829 388.855 375.834 389.357 377.589 390.359C379.343 391.339 380.768 392.706 381.861 394.461V376.688H391.739ZM365.489 408.611C365.489 412.052 366.173 414.798 367.54 416.849C368.884 418.922 370.935 419.959 373.692 419.959C376.45 419.959 378.546 418.934 379.981 416.883C381.417 414.832 382.135 412.177 382.135 408.919C382.135 404.362 380.984 401.103 378.683 399.144C377.27 397.959 375.629 397.366 373.761 397.366C370.912 397.366 368.816 398.449 367.472 400.613C366.15 402.755 365.489 405.421 365.489 408.611ZM401.07 389.915H410.812V430.999C410.812 434.759 410.071 437.539 408.59 439.339C407.109 441.139 404.203 442.039 399.874 442.039C399.578 442.039 399.133 442.028 398.541 442.005C397.971 441.982 397.254 441.959 396.388 441.937V434.144C396.935 434.189 397.322 434.212 397.55 434.212C397.778 434.235 397.983 434.246 398.165 434.246C399.122 434.246 399.84 434.007 400.318 433.528C400.82 433.073 401.07 432.173 401.07 430.828V389.915ZM401.07 376.312H410.812V385.301H401.07V376.312ZM444 421.736C443.909 421.85 443.681 422.192 443.316 422.762C442.952 423.331 442.519 423.833 442.018 424.266C440.491 425.633 439.01 426.567 437.574 427.068C436.161 427.57 434.498 427.82 432.584 427.82C427.07 427.82 423.355 425.838 421.441 421.873C420.37 419.686 419.835 416.461 419.835 412.2V389.744H429.815V412.2C429.815 414.319 430.066 415.914 430.567 416.985C431.456 418.877 433.199 419.822 435.797 419.822C439.124 419.822 441.402 418.478 442.633 415.789C443.271 414.331 443.59 412.405 443.59 410.013V389.744H453.468V427H444V421.736ZM488.57 391.453C491.487 393.322 493.162 396.535 493.595 401.092H483.854C483.717 399.839 483.364 398.847 482.794 398.118C481.723 396.797 479.9 396.136 477.325 396.136C475.206 396.136 473.691 396.466 472.779 397.127C471.891 397.788 471.446 398.562 471.446 399.451C471.446 400.568 471.925 401.377 472.882 401.878C473.839 402.402 477.223 403.302 483.033 404.578C486.907 405.49 489.812 406.868 491.749 408.714C493.663 410.582 494.62 412.918 494.62 415.721C494.62 419.412 493.242 422.431 490.484 424.778C487.75 427.103 483.512 428.265 477.77 428.265C471.913 428.265 467.584 427.034 464.781 424.573C462.001 422.09 460.611 418.934 460.611 415.105H470.489C470.694 416.837 471.139 418.068 471.822 418.797C473.03 420.096 475.263 420.745 478.521 420.745C480.436 420.745 481.951 420.46 483.067 419.891C484.207 419.321 484.776 418.466 484.776 417.327C484.776 416.233 484.321 415.402 483.409 414.832C482.498 414.262 479.114 413.283 473.258 411.893C469.042 410.844 466.069 409.534 464.337 407.962C462.605 406.412 461.739 404.179 461.739 401.263C461.739 397.822 463.084 394.871 465.772 392.41C468.484 389.926 472.289 388.685 477.188 388.685C481.837 388.685 485.631 389.607 488.57 391.453ZM518.922 420.062V427.342L514.308 427.513C509.705 427.672 506.56 426.875 504.874 425.12C503.78 424.004 503.233 422.283 503.233 419.959V397.024H498.038V390.086H503.233V379.695H512.872V390.086H518.922V397.024H512.872V416.712C512.872 418.239 513.066 419.196 513.453 419.583C513.84 419.948 515.025 420.13 517.008 420.13C517.304 420.13 517.612 420.13 517.931 420.13C518.272 420.107 518.603 420.084 518.922 420.062ZM535.191 389.744V427H525.313V389.744H535.191ZM535.191 376.312V385.301H525.313V376.312H535.191ZM562.193 396.956C558.889 396.956 556.622 398.357 555.392 401.16C554.754 402.641 554.435 404.533 554.435 406.834V427H544.728V389.812H554.127V395.247C555.38 393.333 556.565 391.954 557.682 391.111C559.687 389.607 562.228 388.855 565.304 388.855C569.155 388.855 572.299 389.869 574.737 391.897C577.198 393.903 578.429 397.241 578.429 401.912V427H568.448V404.339C568.448 402.379 568.186 400.875 567.662 399.827C566.705 397.913 564.882 396.956 562.193 396.956ZM597.979 433.528C599.028 434.417 600.794 434.861 603.277 434.861C606.786 434.861 609.133 433.688 610.318 431.341C611.093 429.837 611.48 427.308 611.48 423.753V421.36C610.546 422.955 609.544 424.152 608.473 424.949C606.536 426.43 604.018 427.171 600.919 427.171C596.134 427.171 592.306 425.496 589.435 422.146C586.586 418.774 585.162 414.217 585.162 408.475C585.162 402.938 586.541 398.289 589.298 394.529C592.055 390.747 595.963 388.855 601.021 388.855C602.89 388.855 604.519 389.14 605.909 389.71C608.279 390.69 610.193 392.49 611.651 395.11V389.744H621.119V425.086C621.119 429.894 620.31 433.517 618.692 435.955C615.912 440.148 610.58 442.244 602.696 442.244C597.934 442.244 594.049 441.31 591.041 439.441C588.033 437.573 586.37 434.782 586.051 431.067H596.646C596.92 432.207 597.364 433.027 597.979 433.528ZM596.339 414.285C597.66 417.43 600.03 419.002 603.448 419.002C605.727 419.002 607.652 418.147 609.225 416.438C610.797 414.707 611.583 411.961 611.583 408.201C611.583 404.669 610.831 401.98 609.327 400.135C607.846 398.289 605.852 397.366 603.346 397.366C599.928 397.366 597.569 398.973 596.271 402.186C595.587 403.895 595.245 406.002 595.245 408.509C595.245 410.674 595.61 412.599 596.339 414.285ZM327.618 499.72C330.102 499.72 332.118 499.446 333.668 498.899C336.607 497.851 338.077 495.903 338.077 493.055C338.077 491.391 337.348 490.104 335.89 489.192C334.431 488.304 332.141 487.518 329.02 486.834L323.688 485.638C318.447 484.453 314.824 483.165 312.818 481.775C309.423 479.451 307.726 475.817 307.726 470.872C307.726 466.36 309.366 462.612 312.647 459.627C315.929 456.642 320.748 455.149 327.105 455.149C332.415 455.149 336.938 456.562 340.675 459.388C344.435 462.19 346.406 466.269 346.588 471.624H336.471C336.288 468.593 334.967 466.44 332.506 465.164C330.865 464.321 328.826 463.899 326.388 463.899C323.676 463.899 321.511 464.446 319.894 465.54C318.276 466.634 317.467 468.16 317.467 470.12C317.467 471.92 318.264 473.265 319.859 474.153C320.885 474.746 323.072 475.441 326.422 476.238L335.104 478.323C338.909 479.235 341.78 480.454 343.717 481.98C346.725 484.35 348.229 487.78 348.229 492.269C348.229 496.871 346.463 500.7 342.931 503.753C339.422 506.784 334.454 508.299 328.028 508.299C321.466 508.299 316.305 506.806 312.545 503.821C308.785 500.813 306.905 496.689 306.905 491.448H316.954C317.273 493.75 317.9 495.47 318.834 496.609C320.543 498.683 323.471 499.72 327.618 499.72ZM365.25 469.744V507H355.372V469.744H365.25ZM365.25 456.312V465.301H355.372V456.312H365.25ZM403.463 507H371.3V499.412L390.406 477.674H372.599V469.744H402.813V477.845L383.912 499.002H403.463V507ZM441.607 496.062C441.357 498.273 440.206 500.517 438.155 502.796C434.965 506.419 430.499 508.23 424.757 508.23C420.017 508.23 415.836 506.704 412.213 503.65C408.59 500.597 406.778 495.63 406.778 488.748C406.778 482.299 408.408 477.355 411.666 473.914C414.947 470.473 419.197 468.753 424.415 468.753C427.514 468.753 430.305 469.334 432.789 470.496C435.273 471.658 437.324 473.493 438.941 475.999C440.4 478.209 441.345 480.773 441.778 483.689C442.029 485.398 442.132 487.859 442.086 491.072H416.588C416.725 494.809 417.898 497.43 420.108 498.934C421.453 499.868 423.071 500.335 424.962 500.335C426.967 500.335 428.596 499.765 429.85 498.626C430.533 498.011 431.137 497.156 431.661 496.062H441.607ZM431.969 484.646C431.809 482.072 431.023 480.123 429.61 478.802C428.22 477.457 426.489 476.785 424.415 476.785C422.159 476.785 420.405 477.492 419.151 478.904C417.921 480.317 417.146 482.231 416.827 484.646H431.969ZM474.352 471.453C477.268 473.322 478.943 476.535 479.376 481.092H469.635C469.498 479.839 469.145 478.847 468.575 478.118C467.504 476.797 465.681 476.136 463.106 476.136C460.987 476.136 459.472 476.466 458.561 477.127C457.672 477.788 457.228 478.562 457.228 479.451C457.228 480.568 457.706 481.377 458.663 481.878C459.62 482.402 463.004 483.302 468.814 484.578C472.688 485.49 475.593 486.868 477.53 488.714C479.444 490.582 480.401 492.918 480.401 495.721C480.401 499.412 479.023 502.431 476.266 504.778C473.531 507.103 469.293 508.265 463.551 508.265C457.695 508.265 453.365 507.034 450.562 504.573C447.783 502.09 446.393 498.934 446.393 495.105H456.271C456.476 496.837 456.92 498.068 457.604 498.797C458.811 500.096 461.044 500.745 464.303 500.745C466.217 500.745 467.732 500.46 468.849 499.891C469.988 499.321 470.558 498.466 470.558 497.327C470.558 496.233 470.102 495.402 469.19 494.832C468.279 494.262 464.895 493.283 459.039 491.893C454.824 490.844 451.85 489.534 450.118 487.962C448.386 486.412 447.521 484.179 447.521 481.263C447.521 477.822 448.865 474.871 451.554 472.41C454.265 469.926 458.071 468.685 462.97 468.685C467.618 468.685 471.412 469.607 474.352 471.453Z" fill="#E85859"/>
<defs>
<filter id="filter0_d_5189_12023" x="204" y="2.47852" width="305.81" height="320" filterUnits="userSpaceOnUse" color-interpolation-filters="sRGB">
<feFlood flood-opacity="0" result="BackgroundImageFix"/>
<feColorMatrix in="SourceAlpha" type="matrix" values="0 0 0 0 0 0 0 0 0 0 0 0 0 0 0 0 0 0 127 0" result="hardAlpha"/>
<feOffset dx="20" dy="20"/>
<feGaussianBlur stdDeviation="50"/>
<feComposite in2="hardAlpha" operator="out"/>
<feColorMatrix type="matrix" values="0 0 0 0 0 0 0 0 0 0 0 0 0 0 0 0 0 0 0.25 0"/>
<feBlend mode="normal" in2="BackgroundImageFix" result="effect1_dropShadow_5189_12023"/>
<feBlend mode="normal" in="SourceGraphic" in2="effect1_dropShadow_5189_12023" result="shape"/>
</filter>
<filter id="filter1_d_5189_12023" x="365" y="3.34375" width="305.808" height="320" filterUnits="userSpaceOnUse" color-interpolation-filters="sRGB">
<feFlood flood-opacity="0" result="BackgroundImageFix"/>
<feColorMatrix in="SourceAlpha" type="matrix" values="0 0 0 0 0 0 0 0 0 0 0 0 0 0 0 0 0 0 127 0" result="hardAlpha"/>
<feOffset dx="20" dy="20"/>
<feGaussianBlur stdDeviation="50"/>
<feComposite in2="hardAlpha" operator="out"/>
<feColorMatrix type="matrix" values="0 0 0 0 0 0 0 0 0 0 0 0 0 0 0 0 0 0 0.25 0"/>
<feBlend mode="normal" in2="BackgroundImageFix" result="effect1_dropShadow_5189_12023"/>
<feBlend mode="normal" in="SourceGraphic" in2="effect1_dropShadow_5189_12023" result="shape"/>
</filter>
<linearGradient id="paint0_linear_5189_12023" x1="800" y1="0" x2="1.78814e-05" y2="600" gradientUnits="userSpaceOnUse">
<stop stop-color="#FFF4F4"/>
<stop offset="1" stop-color="#FFBFBF"/>
</linearGradient>
</defs>
</svg>
