<svg width="800" height="600" viewBox="0 0 800 600" fill="none" xmlns="http://www.w3.org/2000/svg">
<rect width="800" height="600" fill="url(#paint0_linear_5189_12149)"/>
<line x1="91" y1="218" x2="742" y2="218" stroke="#E85859" stroke-width="2"/>
<path d="M123.531 358.207C120.211 354.236 115.458 352.25 109.273 352.25C100.81 352.25 95.0482 355.408 91.9883 361.723C90.2305 365.368 89.1888 371.163 88.8633 379.105H61.8125C62.2682 367.061 64.4492 357.328 68.3555 349.906C75.7773 335.779 88.9609 328.715 107.906 328.715C122.88 328.715 134.794 332.882 143.648 341.215C152.503 349.483 156.93 360.453 156.93 374.125C156.93 384.607 153.805 393.917 147.555 402.055C143.453 407.458 136.715 413.48 127.34 420.121L116.207 428.031C109.241 432.979 104.456 436.56 101.852 438.773C99.3125 440.987 97.1641 443.559 95.4062 446.488H157.223V471H60.25C60.5104 460.844 62.6914 451.566 66.793 443.168C70.7643 433.728 80.1393 423.734 94.918 413.188C107.743 404.008 116.044 397.432 119.82 393.461C125.615 387.276 128.512 380.505 128.512 373.148C128.512 367.159 126.852 362.178 123.531 358.207ZM234.859 358.207C231.539 354.236 226.786 352.25 220.602 352.25C212.138 352.25 206.376 355.408 203.316 361.723C201.559 365.368 200.517 371.163 200.191 379.105H173.141C173.596 367.061 175.777 357.328 179.684 349.906C187.105 335.779 200.289 328.715 219.234 328.715C234.208 328.715 246.122 332.882 254.977 341.215C263.831 349.483 268.258 360.453 268.258 374.125C268.258 384.607 265.133 393.917 258.883 402.055C254.781 407.458 248.043 413.48 238.668 420.121L227.535 428.031C220.569 432.979 215.784 436.56 213.18 438.773C210.641 440.987 208.492 443.559 206.734 446.488H268.551V471H171.578C171.839 460.844 174.02 451.566 178.121 443.168C182.092 433.728 191.467 423.734 206.246 413.188C219.072 404.008 227.372 397.432 231.148 393.461C236.943 387.276 239.84 380.505 239.84 373.148C239.84 367.159 238.18 362.178 234.859 358.207Z" fill="#E85859" fill-opacity="0.8"/>
<path d="M290 53H297.353V60.2653H304.08V53H311.433V75H304.08V67.6334H297.353V75H290V53ZM321.102 60.2961H314.63V53H334.932V60.2961H328.457V75H321.104L321.102 60.2961ZM338.155 53H345.826L350.542 60.7293L355.25 53H362.92V75H355.596V64.0947L350.538 71.9165H350.412L345.349 64.0947V74.9985H338.154L338.155 53ZM366.579 53H373.934V67.7274H384.274V74.9985H366.579V53Z" fill="#E85859"/>
<g filter="url(#filter0_d_5189_12149)">
<path d="M389.81 82.4785L380.171 190.466L336.841 202.479L293.63 190.483L284 82.4785H389.81Z" fill="#E44D26"/>
<path d="M336.905 193.296L371.918 183.589L380.156 91.3086H336.905V193.296Z" fill="#F16529"/>
<path d="M318.165 117.802H336.904V104.562H303.689L304.006 108.117L307.262 144.619H336.905V131.367H319.376L318.165 117.802ZM321.151 151.236H307.853L309.709 172.034L336.843 179.561L336.904 179.545V165.768L336.846 165.783L322.094 161.8L321.153 151.236H321.151Z" fill="#EBEBEB"/>
<path d="M336.859 144.611H353.17L351.633 161.791L336.858 165.778V179.559L364.012 172.031L364.211 169.793L367.324 134.92L367.646 131.363H336.859V144.611ZM336.859 117.768V117.801H368.852L369.121 114.823L369.725 108.102L370.041 104.548H336.859V117.762V117.768Z" fill="white"/>
</g>
<path d="M533.881 59.583H523.425L534.299 71.3827V77H511.903V70.4226H522.775L511.903 58.623V53H533.881V59.583V59.583ZM507.463 59.583H497.007L507.88 71.3827V77H485.483V70.4226H496.357L485.483 58.623V53H507.463V59.583V59.583ZM481.303 59.8521H470.02V70.1479H481.303V77H462V53H481.303V59.8521V59.8521Z" fill="#E85859"/>
<g filter="url(#filter1_d_5189_12149)">
<path d="M454.63 191.347L445 83.3438H550.808L541.17 191.329L497.839 203.344L454.63 191.347V191.347Z" fill="#1572B6"/>
<path d="M497.906 194.162L532.918 184.454L541.155 92.1758H497.906V194.162Z" fill="#33A9DC"/>
<path d="M497.905 131.304H515.433L516.644 117.741H497.905V104.494H531.121L530.803 108.048L527.548 144.55H497.905V131.304V131.304Z" fill="white"/>
<path d="M497.984 165.706L497.926 165.722L483.174 161.738L482.23 151.174H468.935L470.791 171.972L497.924 179.504L497.986 179.486V165.706H497.984Z" fill="#EBEBEB"/>
<path d="M514.307 143.99L512.711 161.73L497.938 165.717V179.499L525.093 171.973L525.293 169.735L527.598 143.99H514.307V143.99Z" fill="white"/>
<path d="M497.951 104.494V117.739H465.955L465.689 114.763L465.086 108.048L464.769 104.494H497.951ZM497.905 131.306V144.552H483.339L483.074 141.575L482.47 134.859L482.152 131.306H497.905V131.306Z" fill="#EBEBEB"/>
</g>
<path d="M330.729 368.885H320.03V387H309.571V336.619H331.515C336.573 336.619 340.606 337.918 343.614 340.516C346.622 343.113 348.126 347.135 348.126 352.581C348.126 358.528 346.622 362.732 343.614 365.193C340.606 367.654 336.311 368.885 330.729 368.885ZM335.65 358.392C337.018 357.184 337.701 355.27 337.701 352.649C337.701 350.029 337.006 348.16 335.616 347.044C334.249 345.927 332.324 345.369 329.84 345.369H320.03V360.203H329.84C332.324 360.203 334.26 359.599 335.65 358.392ZM379.127 381.736C379.036 381.85 378.808 382.192 378.443 382.762C378.079 383.331 377.646 383.833 377.145 384.266C375.618 385.633 374.137 386.567 372.701 387.068C371.288 387.57 369.625 387.82 367.711 387.82C362.197 387.82 358.482 385.838 356.568 381.873C355.497 379.686 354.962 376.461 354.962 372.2V349.744H364.942V372.2C364.942 374.319 365.193 375.914 365.694 376.985C366.583 378.877 368.326 379.822 370.924 379.822C374.251 379.822 376.529 378.478 377.76 375.789C378.398 374.331 378.717 372.405 378.717 370.013V349.744H388.595V387H379.127V381.736ZM418.263 387.991C415.187 387.991 412.714 387.376 410.846 386.146C409.729 385.416 408.521 384.14 407.223 382.317V387H397.687V336.688H407.394V354.598C408.624 352.866 409.98 351.544 411.461 350.633C413.215 349.493 415.449 348.924 418.16 348.924C423.059 348.924 426.887 350.69 429.645 354.222C432.424 357.754 433.814 362.311 433.814 367.894C433.814 373.681 432.447 378.478 429.713 382.283C426.979 386.089 423.162 387.991 418.263 387.991ZM423.595 368.919C423.595 366.276 423.253 364.088 422.569 362.356C421.271 359.075 418.878 357.435 415.392 357.435C411.86 357.435 409.433 359.041 408.111 362.254C407.428 363.963 407.086 366.173 407.086 368.885C407.086 372.075 407.792 374.718 409.205 376.814C410.618 378.911 412.771 379.959 415.665 379.959C418.172 379.959 420.12 378.945 421.51 376.917C422.9 374.889 423.595 372.223 423.595 368.919ZM441.026 336.619H450.768V387H441.026V336.619ZM470.318 349.744V387H460.44V349.744H470.318ZM470.318 336.312V345.301H460.44V336.312H470.318ZM505.455 351.453C508.372 353.322 510.047 356.535 510.479 361.092H500.738C500.602 359.839 500.248 358.847 499.679 358.118C498.608 356.797 496.785 356.136 494.21 356.136C492.091 356.136 490.576 356.466 489.664 357.127C488.775 357.788 488.331 358.562 488.331 359.451C488.331 360.568 488.81 361.377 489.767 361.878C490.724 362.402 494.107 363.302 499.918 364.578C503.792 365.49 506.697 366.868 508.634 368.714C510.548 370.582 511.505 372.918 511.505 375.721C511.505 379.412 510.126 382.431 507.369 384.778C504.635 387.103 500.396 388.265 494.654 388.265C488.798 388.265 484.469 387.034 481.666 384.573C478.886 382.09 477.496 378.934 477.496 375.105H487.374C487.579 376.837 488.023 378.068 488.707 378.797C489.915 380.096 492.148 380.745 495.406 380.745C497.32 380.745 498.836 380.46 499.952 379.891C501.091 379.321 501.661 378.466 501.661 377.327C501.661 376.233 501.205 375.402 500.294 374.832C499.382 374.262 495.999 373.283 490.143 371.893C485.927 370.844 482.953 369.534 481.222 367.962C479.49 366.412 478.624 364.179 478.624 361.263C478.624 357.822 479.968 354.871 482.657 352.41C485.369 349.926 489.174 348.685 494.073 348.685C498.722 348.685 502.516 349.607 505.455 351.453ZM552.418 365.125V387H542.472V364.339C542.472 362.334 542.13 360.716 541.446 359.485C540.558 357.754 538.871 356.888 536.388 356.888C533.813 356.888 531.853 357.754 530.509 359.485C529.187 361.194 528.526 363.644 528.526 366.834V387H518.819V336.79H528.526V354.598C529.939 352.433 531.568 350.929 533.414 350.086C535.283 349.22 537.242 348.787 539.293 348.787C541.594 348.787 543.679 349.186 545.548 349.983C547.439 350.781 548.989 352 550.196 353.641C551.222 355.031 551.848 356.466 552.076 357.947C552.304 359.406 552.418 361.798 552.418 365.125ZM571.559 349.744V387H561.681V349.744H571.559ZM571.559 336.312V345.301H561.681V336.312H571.559ZM598.561 356.956C595.257 356.956 592.989 358.357 591.759 361.16C591.121 362.641 590.802 364.533 590.802 366.834V387H581.095V349.812H590.494V355.247C591.747 353.333 592.932 351.954 594.049 351.111C596.054 349.607 598.595 348.855 601.671 348.855C605.522 348.855 608.666 349.869 611.104 351.897C613.565 353.903 614.796 357.241 614.796 361.912V387H604.815V364.339C604.815 362.379 604.553 360.875 604.029 359.827C603.072 357.913 601.249 356.956 598.561 356.956ZM634.347 393.528C635.395 394.417 637.161 394.861 639.645 394.861C643.154 394.861 645.501 393.688 646.686 391.341C647.46 389.837 647.848 387.308 647.848 383.753V381.36C646.913 382.955 645.911 384.152 644.84 384.949C642.903 386.43 640.385 387.171 637.286 387.171C632.501 387.171 628.673 385.496 625.802 382.146C622.953 378.774 621.529 374.217 621.529 368.475C621.529 362.938 622.908 358.289 625.665 354.529C628.422 350.747 632.33 348.855 637.389 348.855C639.257 348.855 640.886 349.14 642.276 349.71C644.646 350.69 646.56 352.49 648.019 355.11V349.744H657.486V385.086C657.486 389.894 656.677 393.517 655.06 395.955C652.28 400.148 646.948 402.244 639.063 402.244C634.301 402.244 630.416 401.31 627.408 399.441C624.4 397.573 622.737 394.782 622.418 391.067H633.014C633.287 392.207 633.731 393.027 634.347 393.528ZM632.706 374.285C634.028 377.43 636.397 379.002 639.815 379.002C642.094 379.002 644.02 378.147 645.592 376.438C647.164 374.707 647.95 371.961 647.95 368.201C647.95 364.669 647.198 361.98 645.694 360.135C644.213 358.289 642.219 357.366 639.713 357.366C636.295 357.366 633.937 358.973 632.638 362.186C631.954 363.895 631.612 366.002 631.612 368.509C631.612 370.674 631.977 372.599 632.706 374.285ZM358.346 416.619H369.044L354.859 467H344.811L338.727 437.537L336.949 427.796L335.172 437.537L329.088 467H319.312L305.025 416.619H316.202L322.867 445.467L324.303 453.499L325.772 445.638L331.446 416.619H342.555L348.536 445.467L350.074 453.499L351.612 445.774L358.346 416.619ZM405.309 456.062C405.058 458.273 403.907 460.517 401.856 462.796C398.666 466.419 394.2 468.23 388.458 468.23C383.718 468.23 379.537 466.704 375.914 463.65C372.291 460.597 370.479 455.63 370.479 448.748C370.479 442.299 372.109 437.355 375.367 433.914C378.648 430.473 382.898 428.753 388.116 428.753C391.215 428.753 394.007 429.334 396.49 430.496C398.974 431.658 401.025 433.493 402.643 435.999C404.101 438.209 405.047 440.773 405.479 443.689C405.73 445.398 405.833 447.859 405.787 451.072H380.289C380.426 454.809 381.599 457.43 383.81 458.934C385.154 459.868 386.772 460.335 388.663 460.335C390.668 460.335 392.298 459.765 393.551 458.626C394.234 458.011 394.838 457.156 395.362 456.062H405.309ZM395.67 444.646C395.51 442.072 394.724 440.123 393.312 438.802C391.922 437.457 390.19 436.785 388.116 436.785C385.86 436.785 384.106 437.492 382.853 438.904C381.622 440.317 380.847 442.231 380.528 444.646H395.67ZM432.618 467.991C429.542 467.991 427.07 467.376 425.201 466.146C424.085 465.416 422.877 464.14 421.578 462.317V467H412.042V416.688H421.749V434.598C422.979 432.866 424.335 431.544 425.816 430.633C427.571 429.493 429.804 428.924 432.516 428.924C437.415 428.924 441.243 430.69 444 434.222C446.78 437.754 448.17 442.311 448.17 447.894C448.17 453.681 446.803 458.478 444.068 462.283C441.334 466.089 437.517 467.991 432.618 467.991ZM437.95 448.919C437.95 446.276 437.608 444.088 436.925 442.356C435.626 439.075 433.233 437.435 429.747 437.435C426.215 437.435 423.788 439.041 422.467 442.254C421.783 443.963 421.441 446.173 421.441 448.885C421.441 452.075 422.148 454.718 423.561 456.814C424.973 458.911 427.127 459.959 430.021 459.959C432.527 459.959 434.475 458.945 435.865 456.917C437.255 454.889 437.95 452.223 437.95 448.919ZM480.846 431.453C483.762 433.322 485.437 436.535 485.87 441.092H476.129C475.992 439.839 475.639 438.847 475.069 438.118C473.998 436.797 472.175 436.136 469.601 436.136C467.481 436.136 465.966 436.466 465.055 437.127C464.166 437.788 463.722 438.562 463.722 439.451C463.722 440.568 464.2 441.377 465.157 441.878C466.114 442.402 469.498 443.302 475.309 444.578C479.182 445.49 482.088 446.868 484.024 448.714C485.938 450.582 486.896 452.918 486.896 455.721C486.896 459.412 485.517 462.431 482.76 464.778C480.025 467.103 475.787 468.265 470.045 468.265C464.189 468.265 459.859 467.034 457.057 464.573C454.277 462.09 452.887 458.934 452.887 455.105H462.765C462.97 456.837 463.414 458.068 464.098 458.797C465.305 460.096 467.538 460.745 470.797 460.745C472.711 460.745 474.226 460.46 475.343 459.891C476.482 459.321 477.052 458.466 477.052 457.327C477.052 456.233 476.596 455.402 475.685 454.832C474.773 454.262 471.389 453.283 465.533 451.893C461.318 450.844 458.344 449.534 456.612 447.962C454.881 446.412 454.015 444.179 454.015 441.263C454.015 437.822 455.359 434.871 458.048 432.41C460.759 429.926 464.565 428.685 469.464 428.685C474.112 428.685 477.906 429.607 480.846 431.453ZM504.156 429.744V467H494.278V429.744H504.156ZM504.156 416.312V425.301H494.278V416.312H504.156ZM530.68 460.062V467.342L526.065 467.513C521.463 467.672 518.318 466.875 516.632 465.12C515.538 464.004 514.991 462.283 514.991 459.959V437.024H509.796V430.086H514.991V419.695H524.63V430.086H530.68V437.024H524.63V456.712C524.63 458.239 524.824 459.196 525.211 459.583C525.598 459.948 526.783 460.13 528.766 460.13C529.062 460.13 529.369 460.13 529.688 460.13C530.03 460.107 530.361 460.084 530.68 460.062ZM568.824 456.062C568.574 458.273 567.423 460.517 565.372 462.796C562.182 466.419 557.716 468.23 551.974 468.23C547.234 468.23 543.053 466.704 539.43 463.65C535.807 460.597 533.995 455.63 533.995 448.748C533.995 442.299 535.624 437.355 538.883 433.914C542.164 430.473 546.414 428.753 551.632 428.753C554.731 428.753 557.522 429.334 560.006 430.496C562.49 431.658 564.54 433.493 566.158 435.999C567.617 438.209 568.562 440.773 568.995 443.689C569.246 445.398 569.348 447.859 569.303 451.072H543.805C543.941 454.809 545.115 457.43 547.325 458.934C548.67 459.868 550.287 460.335 552.179 460.335C554.184 460.335 555.813 459.765 557.066 458.626C557.75 458.011 558.354 457.156 558.878 456.062H568.824ZM559.186 444.646C559.026 442.072 558.24 440.123 556.827 438.802C555.437 437.457 553.705 436.785 551.632 436.785C549.376 436.785 547.621 437.492 546.368 438.904C545.138 440.317 544.363 442.231 544.044 444.646H559.186ZM601.568 431.453C604.485 433.322 606.16 436.535 606.593 441.092H596.852C596.715 439.839 596.362 438.847 595.792 438.118C594.721 436.797 592.898 436.136 590.323 436.136C588.204 436.136 586.689 436.466 585.777 437.127C584.889 437.788 584.444 438.562 584.444 439.451C584.444 440.568 584.923 441.377 585.88 441.878C586.837 442.402 590.221 443.302 596.031 444.578C599.905 445.49 602.81 446.868 604.747 448.714C606.661 450.582 607.618 452.918 607.618 455.721C607.618 459.412 606.24 462.431 603.482 464.778C600.748 467.103 596.51 468.265 590.768 468.265C584.911 468.265 580.582 467.034 577.779 464.573C574.999 462.09 573.609 458.934 573.609 455.105H583.487C583.692 456.837 584.137 458.068 584.82 458.797C586.028 460.096 588.261 460.745 591.52 460.745C593.434 460.745 594.949 460.46 596.065 459.891C597.205 459.321 597.774 458.466 597.774 457.327C597.774 456.233 597.319 455.402 596.407 454.832C595.496 454.262 592.112 453.283 586.256 451.893C582.04 450.844 579.067 449.534 577.335 447.962C575.603 446.412 574.737 444.179 574.737 441.263C574.737 437.822 576.082 434.871 578.771 432.41C581.482 429.926 585.287 428.685 590.187 428.685C594.835 428.685 598.629 429.607 601.568 431.453Z" fill="#E85859"/>
<defs>
<filter id="filter0_d_5189_12149" x="204" y="2.47852" width="305.81" height="320" filterUnits="userSpaceOnUse" color-interpolation-filters="sRGB">
<feFlood flood-opacity="0" result="BackgroundImageFix"/>
<feColorMatrix in="SourceAlpha" type="matrix" values="0 0 0 0 0 0 0 0 0 0 0 0 0 0 0 0 0 0 127 0" result="hardAlpha"/>
<feOffset dx="20" dy="20"/>
<feGaussianBlur stdDeviation="50"/>
<feComposite in2="hardAlpha" operator="out"/>
<feColorMatrix type="matrix" values="0 0 0 0 0 0 0 0 0 0 0 0 0 0 0 0 0 0 0.25 0"/>
<feBlend mode="normal" in2="BackgroundImageFix" result="effect1_dropShadow_5189_12149"/>
<feBlend mode="normal" in="SourceGraphic" in2="effect1_dropShadow_5189_12149" result="shape"/>
</filter>
<filter id="filter1_d_5189_12149" x="365" y="3.34375" width="305.808" height="320" filterUnits="userSpaceOnUse" color-interpolation-filters="sRGB">
<feFlood flood-opacity="0" result="BackgroundImageFix"/>
<feColorMatrix in="SourceAlpha" type="matrix" values="0 0 0 0 0 0 0 0 0 0 0 0 0 0 0 0 0 0 127 0" result="hardAlpha"/>
<feOffset dx="20" dy="20"/>
<feGaussianBlur stdDeviation="50"/>
<feComposite in2="hardAlpha" operator="out"/>
<feColorMatrix type="matrix" values="0 0 0 0 0 0 0 0 0 0 0 0 0 0 0 0 0 0 0.25 0"/>
<feBlend mode="normal" in2="BackgroundImageFix" result="effect1_dropShadow_5189_12149"/>
<feBlend mode="normal" in="SourceGraphic" in2="effect1_dropShadow_5189_12149" result="shape"/>
</filter>
<linearGradient id="paint0_linear_5189_12149" x1="800" y1="0" x2="1.78814e-05" y2="600" gradientUnits="userSpaceOnUse">
<stop stop-color="#FFF4F4"/>
<stop offset="1" stop-color="#FFBFBF"/>
</linearGradient>
</defs>
</svg>
