<svg width="800" height="600" viewBox="0 0 800 600" fill="none" xmlns="http://www.w3.org/2000/svg">
<rect width="800" height="600" fill="url(#paint0_linear_5188_12699)"/>
<path d="M273 94H280.353V101.265H287.08V94H294.433V116H287.08V108.633H280.353V116H273V94ZM304.102 101.296H297.63V94H317.932V101.296H311.457V116H304.104L304.102 101.296ZM321.155 94H328.826L333.542 101.729L338.25 94H345.92V116H338.596V105.095L333.538 112.917H333.412L328.349 105.095V115.999H321.154L321.155 94ZM349.579 94H356.934V108.727H367.274V115.999H349.579V94Z" fill="#E85859"/>
<g filter="url(#filter0_d_5188_12699)">
<path d="M372.81 123.479L363.171 231.467L319.841 243.479L276.63 231.483L267 123.479H372.81Z" fill="#E44D26"/>
<path d="M319.905 234.296L354.918 224.59L363.156 132.309H319.905V234.296Z" fill="#F16529"/>
<path d="M301.165 158.803H319.904V145.563H286.689L287.006 149.118L290.262 185.62H319.905V172.367H302.376L301.165 158.803ZM304.151 192.237H290.853L292.709 213.035L319.843 220.562L319.904 220.546V206.769L319.846 206.784L305.094 202.801L304.153 192.237H304.151Z" fill="#EBEBEB"/>
<path d="M319.859 185.612H336.17L334.633 202.792L319.858 206.778V220.56L347.012 213.032L347.211 210.794L350.324 175.92L350.647 172.363H319.859V185.612ZM319.859 158.769V158.801H351.852L352.121 155.824L352.725 149.103L353.041 145.549H319.859V158.762V158.769Z" fill="white"/>
</g>
<path d="M516.881 100.583H506.425L517.299 112.383V118H494.903V111.423H505.775L494.903 99.623V94H516.881V100.583V100.583ZM490.463 100.583H480.007L490.88 112.383V118H468.483V111.423H479.357L468.483 99.623V94H490.463V100.583V100.583ZM464.303 100.852H453.02V111.148H464.303V118H445V94H464.303V100.852V100.852Z" fill="#3B68D7"/>
<g filter="url(#filter1_d_5188_12699)">
<path d="M437.63 232.347L428 124.343H533.808L524.17 232.329L480.839 244.343L437.63 232.347V232.347Z" fill="#1572B6"/>
<path d="M480.906 235.161L515.918 225.454L524.155 133.175H480.906V235.161Z" fill="#33A9DC"/>
<path d="M480.905 172.304H498.433L499.644 158.74H480.905V145.494H514.121L513.803 149.047L510.548 185.549H480.905V172.304V172.304Z" fill="white"/>
<path d="M480.984 206.706L480.926 206.722L466.174 202.738L465.23 192.174H451.935L453.791 212.972L480.924 220.504L480.986 220.486V206.706H480.984Z" fill="#EBEBEB"/>
<path d="M497.307 184.989L495.711 202.729L480.938 206.716V220.498L508.093 212.972L508.293 210.734L510.598 184.989H497.307V184.989Z" fill="white"/>
<path d="M480.951 145.494V158.739H448.955L448.689 155.762L448.086 149.047L447.768 145.494H480.951ZM480.905 172.305V185.552H466.339L466.074 182.575L465.47 175.859L465.152 172.305H480.905V172.305Z" fill="#EBEBEB"/>
</g>
<g filter="url(#filter2_d_5188_12699)">
<path d="M196.062 413V387.297H173.562V413H161.648V355.422H173.562V377.375H196.062V355.422H208.016V413H196.062ZM261.375 355.422V365.617H244.148V413H232.039V365.617H214.734V355.422H261.375ZM279.461 413H268.25V355.422H285.75L296.219 400.695L306.609 355.422H323.914V413H312.703V374.055C312.703 372.935 312.716 371.372 312.742 369.367C312.768 367.336 312.781 365.773 312.781 364.68L301.883 413H290.203L279.383 364.68C279.383 365.773 279.396 367.336 279.422 369.367C279.448 371.372 279.461 372.935 279.461 374.055V413ZM335.086 355.422H347.117V402.648H375.633V413H335.086V355.422ZM421.688 414.406C415.854 414.406 411.297 412.688 408.016 409.25C404.734 405.812 403.094 401.997 403.094 397.805C403.094 394.341 403.953 391.372 405.672 388.898C407.391 386.424 410.203 383.977 414.109 381.555L415.32 380.812C413.654 378.938 412.365 377.023 411.453 375.07C410.542 373.117 410.086 371.086 410.086 368.977C410.086 364.784 411.492 361.516 414.305 359.172C417.117 356.802 420.763 355.617 425.242 355.617C429.331 355.617 432.703 356.828 435.359 359.25C438.042 361.646 439.383 364.719 439.383 368.469C439.383 371.854 438.576 374.602 436.961 376.711C435.372 378.82 433.029 380.773 429.93 382.57L438.094 392.648C439.031 391.294 439.747 389.823 440.242 388.234C440.763 386.646 441.036 384.966 441.062 383.195H450.945C450.789 386.685 449.956 390.214 448.445 393.781C447.612 395.786 446.258 398 444.383 400.422L454.852 413H441.336L437.352 408.117C435.424 409.914 433.628 411.242 431.961 412.102C428.992 413.638 425.568 414.406 421.688 414.406ZM421.062 387.922C418.276 389.771 416.427 391.398 415.516 392.805C414.63 394.211 414.188 395.76 414.188 397.453C414.188 399.354 414.956 401.099 416.492 402.688C418.055 404.276 420.047 405.07 422.469 405.07C424.292 405.07 426.01 404.654 427.625 403.82C429.266 402.961 430.594 402.01 431.609 400.969L421.062 387.922ZM420.32 368.586C420.32 369.628 420.685 370.721 421.414 371.867C421.883 372.622 422.898 373.964 424.461 375.891C426.023 374.797 427.143 373.872 427.82 373.117C429.122 371.711 429.773 370.188 429.773 368.547C429.773 367.349 429.383 366.281 428.602 365.344C427.82 364.406 426.635 363.938 425.047 363.938C424.057 363.938 423.133 364.211 422.273 364.758C420.971 365.565 420.32 366.841 420.32 368.586ZM525.555 408.703C521.258 412.635 515.763 414.602 509.07 414.602C500.789 414.602 494.279 411.945 489.539 406.633C484.799 401.294 482.43 393.977 482.43 384.68C482.43 374.628 485.125 366.88 490.516 361.438C495.203 356.698 501.167 354.328 508.406 354.328C518.094 354.328 525.177 357.505 529.656 363.859C532.13 367.427 533.458 371.008 533.641 374.602H521.609C520.828 371.841 519.826 369.758 518.602 368.352C516.414 365.852 513.172 364.602 508.875 364.602C504.5 364.602 501.049 366.372 498.523 369.914C495.997 373.43 494.734 378.417 494.734 384.875C494.734 391.333 496.062 396.177 498.719 399.406C501.401 402.609 504.799 404.211 508.914 404.211C513.133 404.211 516.349 402.831 518.562 400.07C519.786 398.586 520.802 396.359 521.609 393.391H533.523C532.482 399.667 529.826 404.771 525.555 408.703ZM563.641 404.68C566.479 404.68 568.784 404.367 570.555 403.742C573.914 402.544 575.594 400.318 575.594 397.062C575.594 395.161 574.76 393.69 573.094 392.648C571.427 391.633 568.81 390.734 565.242 389.953L559.148 388.586C553.159 387.232 549.018 385.76 546.727 384.172C542.846 381.516 540.906 377.362 540.906 371.711C540.906 366.555 542.781 362.271 546.531 358.859C550.281 355.448 555.789 353.742 563.055 353.742C569.122 353.742 574.292 355.357 578.562 358.586C582.859 361.789 585.112 366.451 585.32 372.57H573.758C573.549 369.107 572.039 366.646 569.227 365.188C567.352 364.224 565.021 363.742 562.234 363.742C559.135 363.742 556.661 364.367 554.812 365.617C552.964 366.867 552.039 368.612 552.039 370.852C552.039 372.909 552.951 374.445 554.773 375.461C555.945 376.138 558.445 376.932 562.273 377.844L572.195 380.227C576.544 381.268 579.826 382.661 582.039 384.406C585.477 387.115 587.195 391.034 587.195 396.164C587.195 401.424 585.177 405.799 581.141 409.289C577.13 412.753 571.453 414.484 564.109 414.484C556.609 414.484 550.711 412.779 546.414 409.367C542.117 405.93 539.969 401.216 539.969 395.227H551.453C551.818 397.857 552.534 399.823 553.602 401.125C555.555 403.495 558.901 404.68 563.641 404.68ZM617 404.68C619.839 404.68 622.143 404.367 623.914 403.742C627.273 402.544 628.953 400.318 628.953 397.062C628.953 395.161 628.12 393.69 626.453 392.648C624.786 391.633 622.169 390.734 618.602 389.953L612.508 388.586C606.518 387.232 602.378 385.76 600.086 384.172C596.206 381.516 594.266 377.362 594.266 371.711C594.266 366.555 596.141 362.271 599.891 358.859C603.641 355.448 609.148 353.742 616.414 353.742C622.482 353.742 627.651 355.357 631.922 358.586C636.219 361.789 638.471 366.451 638.68 372.57H627.117C626.909 369.107 625.398 366.646 622.586 365.188C620.711 364.224 618.38 363.742 615.594 363.742C612.495 363.742 610.021 364.367 608.172 365.617C606.323 366.867 605.398 368.612 605.398 370.852C605.398 372.909 606.31 374.445 608.133 375.461C609.305 376.138 611.805 376.932 615.633 377.844L625.555 380.227C629.904 381.268 633.185 382.661 635.398 384.406C638.836 387.115 640.555 391.034 640.555 396.164C640.555 401.424 638.536 405.799 634.5 409.289C630.49 412.753 624.812 414.484 617.469 414.484C609.969 414.484 604.07 412.779 599.773 409.367C595.477 405.93 593.328 401.216 593.328 395.227H604.812C605.177 397.857 605.893 399.823 606.961 401.125C608.914 403.495 612.26 404.68 617 404.68ZM247.234 493.164H226.023L222.039 505H209.461L230.008 447.422H243.602L263.992 505H250.945L247.234 493.164ZM243.875 483.242L236.688 460.586L229.266 483.242H243.875ZM309.188 447.5V505H298.367V499.102C296.779 501.628 294.969 503.464 292.938 504.609C290.906 505.755 288.38 506.328 285.359 506.328C280.385 506.328 276.193 504.323 272.781 500.312C269.396 496.276 267.703 491.107 267.703 484.805C267.703 477.539 269.37 471.823 272.703 467.656C276.062 463.49 280.542 461.406 286.141 461.406C288.719 461.406 291.01 461.979 293.016 463.125C295.021 464.245 296.648 465.807 297.898 467.812V447.5H309.188ZM279.188 483.984C279.188 487.917 279.969 491.055 281.531 493.398C283.068 495.768 285.411 496.953 288.562 496.953C291.714 496.953 294.109 495.781 295.75 493.438C297.391 491.094 298.211 488.06 298.211 484.336C298.211 479.128 296.896 475.404 294.266 473.164C292.651 471.81 290.776 471.133 288.641 471.133C285.385 471.133 282.99 472.37 281.453 474.844C279.943 477.292 279.188 480.339 279.188 483.984ZM315.164 462.422H327.664L336.531 493.828L345.594 462.422H357.547L342.195 505H330.438L315.164 462.422ZM365.477 467.031C368.419 463.281 373.471 461.406 380.633 461.406C385.294 461.406 389.435 462.331 393.055 464.18C396.674 466.029 398.484 469.518 398.484 474.648V494.18C398.484 495.534 398.51 497.174 398.562 499.102C398.641 500.56 398.862 501.549 399.227 502.07C399.591 502.591 400.138 503.021 400.867 503.359V505H388.758C388.419 504.141 388.185 503.333 388.055 502.578C387.924 501.823 387.82 500.964 387.742 500C386.206 501.667 384.435 503.086 382.43 504.258C380.034 505.638 377.326 506.328 374.305 506.328C370.451 506.328 367.26 505.234 364.734 503.047C362.234 500.833 360.984 497.708 360.984 493.672C360.984 488.438 363.003 484.648 367.039 482.305C369.253 481.029 372.508 480.117 376.805 479.57L380.594 479.102C382.651 478.841 384.122 478.516 385.008 478.125C386.596 477.448 387.391 476.393 387.391 474.961C387.391 473.216 386.779 472.018 385.555 471.367C384.357 470.69 382.586 470.352 380.242 470.352C377.612 470.352 375.75 471.003 374.656 472.305C373.875 473.268 373.354 474.57 373.094 476.211H362.352C362.586 472.487 363.628 469.427 365.477 467.031ZM373.758 496.953C374.799 497.812 376.076 498.242 377.586 498.242C379.982 498.242 382.182 497.539 384.188 496.133C386.219 494.727 387.273 492.161 387.352 488.438V484.297C386.648 484.74 385.932 485.104 385.203 485.391C384.5 485.651 383.523 485.898 382.273 486.133L379.773 486.602C377.43 487.018 375.75 487.526 374.734 488.125C373.016 489.141 372.156 490.716 372.156 492.852C372.156 494.753 372.69 496.12 373.758 496.953ZM428.445 470.664C424.669 470.664 422.078 472.266 420.672 475.469C419.943 477.161 419.578 479.323 419.578 481.953V505H408.484V462.5H419.227V468.711C420.659 466.523 422.013 464.948 423.289 463.984C425.581 462.266 428.484 461.406 432 461.406C436.401 461.406 439.995 462.565 442.781 464.883C445.594 467.174 447 470.99 447 476.328V505H435.594V479.102C435.594 476.862 435.294 475.143 434.695 473.945C433.602 471.758 431.518 470.664 428.445 470.664ZM494.148 477.695H482.742C482.534 476.107 482 474.674 481.141 473.398C479.891 471.68 477.951 470.82 475.32 470.82C471.57 470.82 469.005 472.682 467.625 476.406C466.896 478.385 466.531 481.016 466.531 484.297C466.531 487.422 466.896 489.935 467.625 491.836C468.953 495.378 471.453 497.148 475.125 497.148C477.729 497.148 479.578 496.445 480.672 495.039C481.766 493.633 482.43 491.81 482.664 489.57H494.031C493.771 492.956 492.547 496.159 490.359 499.18C486.87 504.049 481.701 506.484 474.852 506.484C468.003 506.484 462.964 504.453 459.734 500.391C456.505 496.328 454.891 491.055 454.891 484.57C454.891 477.253 456.674 471.562 460.242 467.5C463.81 463.438 468.732 461.406 475.008 461.406C480.346 461.406 484.708 462.604 488.094 465C491.505 467.396 493.523 471.628 494.148 477.695ZM538.289 492.5C538.003 495.026 536.688 497.591 534.344 500.195C530.698 504.336 525.594 506.406 519.031 506.406C513.615 506.406 508.836 504.661 504.695 501.172C500.555 497.682 498.484 492.005 498.484 484.141C498.484 476.771 500.346 471.12 504.07 467.188C507.82 463.255 512.677 461.289 518.641 461.289C522.182 461.289 525.372 461.953 528.211 463.281C531.049 464.609 533.393 466.706 535.242 469.57C536.909 472.096 537.99 475.026 538.484 478.359C538.771 480.312 538.888 483.125 538.836 486.797H509.695C509.852 491.068 511.193 494.062 513.719 495.781C515.255 496.849 517.104 497.383 519.266 497.383C521.557 497.383 523.419 496.732 524.852 495.43C525.633 494.727 526.323 493.75 526.922 492.5H538.289ZM527.273 479.453C527.091 476.51 526.193 474.284 524.578 472.773C522.99 471.237 521.01 470.469 518.641 470.469C516.062 470.469 514.057 471.276 512.625 472.891C511.219 474.505 510.333 476.693 509.969 479.453H527.273ZM585.125 447.5V505H574.305V499.102C572.716 501.628 570.906 503.464 568.875 504.609C566.844 505.755 564.318 506.328 561.297 506.328C556.323 506.328 552.13 504.323 548.719 500.312C545.333 496.276 543.641 491.107 543.641 484.805C543.641 477.539 545.307 471.823 548.641 467.656C552 463.49 556.479 461.406 562.078 461.406C564.656 461.406 566.948 461.979 568.953 463.125C570.958 464.245 572.586 465.807 573.836 467.812V447.5H585.125ZM555.125 483.984C555.125 487.917 555.906 491.055 557.469 493.398C559.005 495.768 561.349 496.953 564.5 496.953C567.651 496.953 570.047 495.781 571.688 493.438C573.328 491.094 574.148 488.06 574.148 484.336C574.148 479.128 572.833 475.404 570.203 473.164C568.589 471.81 566.714 471.133 564.578 471.133C561.323 471.133 558.927 472.37 557.391 474.844C555.88 477.292 555.125 480.339 555.125 483.984Z" fill="#3B68D7"/>
</g>
<line x1="91" y1="299" x2="742" y2="299" stroke="#3B68D7" stroke-width="2"/>
<path d="M741.435 592.713C741.435 593.599 742.138 594.276 742.998 594.276C743.884 594.276 744.587 593.599 744.587 592.713V576.563C744.587 575.703 743.884 575 742.998 575C742.112 575 741.435 575.703 741.435 576.563V592.713Z" fill="#030060"/>
<path d="M748.654 576.849C748.654 577.787 749.436 578.412 750.452 578.412C751.467 578.412 752.249 577.787 752.249 576.849V576.693C752.249 575.755 751.467 575.156 750.452 575.156C749.436 575.156 748.654 575.755 748.654 576.693V576.849ZM748.889 592.713C748.889 593.599 749.592 594.276 750.452 594.276C751.337 594.276 752.041 593.599 752.041 592.713V581.825C752.041 580.939 751.337 580.236 750.452 580.236C749.566 580.236 748.889 580.939 748.889 581.825V592.713Z" fill="#030060"/>
<path d="M756.16 592.713C756.16 593.573 756.863 594.276 757.723 594.276C758.608 594.276 759.312 593.573 759.312 592.713V592.01C760.276 593.287 761.708 594.433 764.001 594.433C767.257 594.433 770.383 591.854 770.383 587.295V587.243C770.383 582.658 767.231 580.106 764.001 580.106C761.76 580.106 760.328 581.252 759.312 582.685V576.563C759.312 575.677 758.608 575 757.723 575C756.837 575 756.16 575.677 756.16 576.563V592.713ZM763.245 591.698C761.109 591.698 759.234 589.926 759.234 587.295V587.243C759.234 584.612 761.109 582.841 763.245 582.841C765.381 582.841 767.179 584.586 767.179 587.243V587.295C767.179 590.004 765.407 591.698 763.245 591.698Z" fill="#030060"/>
<path d="M773.819 592.713C773.819 593.599 774.522 594.276 775.382 594.276C776.267 594.276 776.971 593.599 776.971 592.713V576.563C776.971 575.703 776.267 575 775.382 575C774.496 575 773.819 575.703 773.819 576.563V592.713Z" fill="#030060"/>
<path d="M787.628 594.459C791.874 594.459 795 591.203 795 587.295V587.243C795 583.31 791.9 580.106 787.68 580.106C783.46 580.106 780.334 583.362 780.334 587.295V587.347C780.334 591.255 783.434 594.459 787.628 594.459ZM787.68 591.698C785.232 591.698 783.486 589.692 783.486 587.295V587.243C783.486 584.847 785.101 582.867 787.628 582.867C790.103 582.867 791.848 584.873 791.848 587.295V587.347C791.848 589.718 790.233 591.698 787.68 591.698Z" fill="#030060"/>
<path d="M736.96 590.09C735.74 590.65 734.453 591.046 733.208 591.294C728.074 592.314 725.36 589.099 729.634 586.781C730.099 586.529 730.632 586.291 731.228 586.075L732.011 585.826C732.241 585.763 732.463 585.661 732.534 585.515C732.905 584.723 729.731 584.467 727.622 585.589C728.458 585.431 729.186 585.408 729.668 585.609C724.878 586.845 723.788 590.757 726.335 592.642C727.649 593.615 729.127 593.873 731.832 593.682C733.637 593.555 735.48 592.837 736.96 591.969V590.09Z" fill="url(#paint1_linear_5188_12699)"/>
<path d="M734.542 592.784C734.542 593.607 735.171 594.165 736.03 594.165C736.89 594.165 737.478 593.644 737.478 592.784V586.011C737.478 584.214 737.009 582.755 735.993 581.765C735.029 580.776 733.492 580.228 731.434 580.228C729.637 580.228 728.308 580.541 727.006 581.036C726.537 581.218 726.146 581.713 726.146 582.286C726.146 583.016 726.745 583.589 727.475 583.589C727.631 583.589 727.787 583.563 727.97 583.511C728.829 583.172 729.819 582.964 731.018 582.964C733.232 582.964 734.43 584.006 734.43 585.959V585.968L734.542 592.784Z" fill="url(#paint2_linear_5188_12699)"/>
<path d="M733.611 578.379C733.611 578.591 733.273 578.721 732.805 578.721C732.077 578.721 731.583 578.64 730.984 578.282L729.216 577.24C728.956 577.093 728.774 576.93 728.774 576.751C728.774 576.442 729.814 576.116 730.646 576.116C731.192 576.116 731.609 576.295 731.895 576.589L733.377 578.021C733.481 578.119 733.611 578.265 733.611 578.379Z" fill="url(#paint3_linear_5188_12699)"/>
<defs>
<filter id="filter0_d_5188_12699" x="187" y="43.4789" width="305.81" height="320" filterUnits="userSpaceOnUse" color-interpolation-filters="sRGB">
<feFlood flood-opacity="0" result="BackgroundImageFix"/>
<feColorMatrix in="SourceAlpha" type="matrix" values="0 0 0 0 0 0 0 0 0 0 0 0 0 0 0 0 0 0 127 0" result="hardAlpha"/>
<feOffset dx="20" dy="20"/>
<feGaussianBlur stdDeviation="50"/>
<feComposite in2="hardAlpha" operator="out"/>
<feColorMatrix type="matrix" values="0 0 0 0 0 0 0 0 0 0 0 0 0 0 0 0 0 0 0.25 0"/>
<feBlend mode="normal" in2="BackgroundImageFix" result="effect1_dropShadow_5188_12699"/>
<feBlend mode="normal" in="SourceGraphic" in2="effect1_dropShadow_5188_12699" result="shape"/>
</filter>
<filter id="filter1_d_5188_12699" x="348" y="44.3434" width="305.808" height="320" filterUnits="userSpaceOnUse" color-interpolation-filters="sRGB">
<feFlood flood-opacity="0" result="BackgroundImageFix"/>
<feColorMatrix in="SourceAlpha" type="matrix" values="0 0 0 0 0 0 0 0 0 0 0 0 0 0 0 0 0 0 127 0" result="hardAlpha"/>
<feOffset dx="20" dy="20"/>
<feGaussianBlur stdDeviation="50"/>
<feComposite in2="hardAlpha" operator="out"/>
<feColorMatrix type="matrix" values="0 0 0 0 0 0 0 0 0 0 0 0 0 0 0 0 0 0 0.25 0"/>
<feBlend mode="normal" in2="BackgroundImageFix" result="effect1_dropShadow_5188_12699"/>
<feBlend mode="normal" in="SourceGraphic" in2="effect1_dropShadow_5188_12699" result="shape"/>
</filter>
<filter id="filter2_d_5188_12699" x="141.648" y="333.742" width="538.906" height="212.742" filterUnits="userSpaceOnUse" color-interpolation-filters="sRGB">
<feFlood flood-opacity="0" result="BackgroundImageFix"/>
<feColorMatrix in="SourceAlpha" type="matrix" values="0 0 0 0 0 0 0 0 0 0 0 0 0 0 0 0 0 0 127 0" result="hardAlpha"/>
<feOffset dx="10" dy="10"/>
<feGaussianBlur stdDeviation="15"/>
<feComposite in2="hardAlpha" operator="out"/>
<feColorMatrix type="matrix" values="0 0 0 0 0 0 0 0 0 0 0 0 0 0 0 0 0 0 0.25 0"/>
<feBlend mode="normal" in2="BackgroundImageFix" result="effect1_dropShadow_5188_12699"/>
<feBlend mode="normal" in="SourceGraphic" in2="effect1_dropShadow_5188_12699" result="shape"/>
</filter>
<linearGradient id="paint0_linear_5188_12699" x1="800" y1="2.20924e-05" x2="1.22569" y2="601.627" gradientUnits="userSpaceOnUse">
<stop stop-color="#ECFAFF"/>
<stop offset="1" stop-color="#75BBD1"/>
</linearGradient>
<linearGradient id="paint1_linear_5188_12699" x1="725" y1="576.116" x2="725" y2="594.165" gradientUnits="userSpaceOnUse">
<stop stop-color="#008EE3"/>
<stop offset="1" stop-color="#0055C2"/>
</linearGradient>
<linearGradient id="paint2_linear_5188_12699" x1="725" y1="576.116" x2="725" y2="594.165" gradientUnits="userSpaceOnUse">
<stop stop-color="#008EE3"/>
<stop offset="1" stop-color="#0055C2"/>
</linearGradient>
<linearGradient id="paint3_linear_5188_12699" x1="725" y1="576.116" x2="725" y2="594.165" gradientUnits="userSpaceOnUse">
<stop stop-color="#008EE3"/>
<stop offset="1" stop-color="#0055C2"/>
</linearGradient>
</defs>
</svg>
