<svg width="800" height="600" viewBox="0 0 800 600" fill="none" xmlns="http://www.w3.org/2000/svg">
<rect width="800" height="600" fill="url(#paint0_linear_5189_11897)"/>
<line x1="91" y1="218" x2="742" y2="218" stroke="#E85859" stroke-width="2"/>
<path d="M109.078 474.516C91.0443 474.516 78.3815 468.201 71.0898 455.57C63.8633 442.94 60.25 424.939 60.25 401.566C60.25 378.194 63.8633 360.16 71.0898 347.465C78.3815 334.77 91.0443 328.422 109.078 328.422C127.112 328.422 139.775 334.77 147.066 347.465C154.293 360.16 157.906 378.194 157.906 401.566C157.906 424.939 154.26 442.94 146.969 455.57C139.742 468.201 127.112 474.516 109.078 474.516ZM125.387 438.871C127.926 430.277 129.195 417.842 129.195 401.566C129.195 384.509 127.893 371.879 125.289 363.676C122.75 355.473 117.346 351.371 109.078 351.371C100.81 351.371 95.3411 355.473 92.6719 363.676C90.0026 371.879 88.668 384.509 88.668 401.566C88.668 417.842 90.0026 430.31 92.6719 438.969C95.3411 447.562 100.81 451.859 109.078 451.859C117.346 451.859 122.783 447.53 125.387 438.871ZM253.414 374.906C245.992 385.453 239.775 396.326 234.762 407.523C230.79 416.312 227.21 427.055 224.02 439.75C220.829 452.445 219.234 462.862 219.234 471H190.328C191.174 445.609 199.508 419.21 215.328 391.801C225.549 374.809 234.111 362.96 241.012 356.254H170.406L170.797 331.254H270.797V353.031C266.63 357.133 260.836 364.424 253.414 374.906Z" fill="#E85859" fill-opacity="0.8"/>
<path d="M290 53H297.353V60.2653H304.08V53H311.433V75H304.08V67.6334H297.353V75H290V53ZM321.102 60.2961H314.63V53H334.932V60.2961H328.457V75H321.104L321.102 60.2961ZM338.155 53H345.826L350.542 60.7293L355.25 53H362.92V75H355.596V64.0947L350.538 71.9165H350.412L345.349 64.0947V74.9985H338.154L338.155 53ZM366.579 53H373.934V67.7274H384.274V74.9985H366.579V53Z" fill="#E85859"/>
<g filter="url(#filter0_d_5189_11897)">
<path d="M389.81 82.479L380.171 190.467L336.841 202.479L293.63 190.483L284 82.479H389.81Z" fill="#E44D26"/>
<path d="M336.905 193.296L371.918 183.59L380.156 91.3091H336.905V193.296Z" fill="#F16529"/>
<path d="M318.165 117.803H336.904V104.563H303.689L304.006 108.118L307.262 144.62H336.905V131.368H319.376L318.165 117.803ZM321.151 151.237H307.853L309.709 172.035L336.843 179.562L336.904 179.546V165.769L336.846 165.784L322.094 161.801L321.153 151.237H321.151Z" fill="#EBEBEB"/>
<path d="M336.859 144.612H353.17L351.633 161.792L336.858 165.779V179.56L364.012 172.032L364.211 169.794L367.324 134.921L367.646 131.364H336.859V144.612ZM336.859 117.769V117.802H368.852L369.121 114.824L369.725 108.103L370.041 104.549H336.859V117.763V117.769Z" fill="white"/>
</g>
<path d="M533.881 59.583H523.425L534.299 71.3827V77H511.903V70.4226H522.775L511.903 58.623V53H533.881V59.583V59.583ZM507.463 59.583H497.007L507.88 71.3827V77H485.483V70.4226H496.357L485.483 58.623V53H507.463V59.583V59.583ZM481.303 59.8521H470.02V70.1479H481.303V77H462V53H481.303V59.8521V59.8521Z" fill="#E85859"/>
<g filter="url(#filter1_d_5189_11897)">
<path d="M454.63 191.347L445 83.3433H550.808L541.17 191.329L497.839 203.343L454.63 191.347V191.347Z" fill="#1572B6"/>
<path d="M497.906 194.161L532.918 184.454L541.155 92.1748H497.906V194.161Z" fill="#33A9DC"/>
<path d="M497.905 131.304H515.433L516.644 117.74H497.905V104.494H531.121L530.803 108.047L527.548 144.549H497.905V131.304V131.304Z" fill="white"/>
<path d="M497.984 165.706L497.926 165.722L483.174 161.738L482.23 151.174H468.935L470.791 171.972L497.924 179.504L497.986 179.486V165.706H497.984Z" fill="#EBEBEB"/>
<path d="M514.307 143.989L512.711 161.729L497.938 165.717V179.498L525.093 171.972L525.293 169.734L527.598 143.989H514.307V143.989Z" fill="white"/>
<path d="M497.951 104.494V117.739H465.955L465.689 114.762L465.086 108.047L464.769 104.494H497.951ZM497.905 131.305V144.552H483.339L483.074 141.575L482.47 134.859L482.152 131.305H497.905V131.305Z" fill="#EBEBEB"/>
</g>
<path d="M339.376 387V364.51H319.688V387H309.264V336.619H319.688V355.828H339.376V336.619H349.835V387H339.376ZM396.524 336.619V345.54H381.451V387H370.855V345.54H355.714V336.619H396.524ZM412.35 387H402.54V336.619H417.853L427.013 376.233L436.104 336.619H451.246V387H441.437V352.923C441.437 351.943 441.448 350.576 441.471 348.821C441.493 347.044 441.505 345.677 441.505 344.72L431.969 387H421.749L412.281 344.72C412.281 345.677 412.293 347.044 412.315 348.821C412.338 350.576 412.35 351.943 412.35 352.923V387ZM461.021 336.619H471.549V377.942H496.5V387H461.021V336.619ZM516.769 376.814V387H506.412V376.814H516.769ZM506.412 361.399V351.214H516.769V361.399H506.412ZM344.879 463.24C341.119 466.681 336.311 468.401 330.455 468.401C323.209 468.401 317.512 466.077 313.365 461.429C309.218 456.757 307.145 450.354 307.145 442.22C307.145 433.424 309.503 426.645 314.22 421.883C318.321 417.736 323.539 415.662 329.874 415.662C338.351 415.662 344.549 418.442 348.468 424.002C350.632 427.124 351.795 430.257 351.954 433.401H341.427C340.743 430.986 339.866 429.163 338.795 427.933C336.881 425.745 334.044 424.651 330.284 424.651C326.456 424.651 323.437 426.201 321.227 429.3C319.016 432.376 317.911 436.74 317.911 442.391C317.911 448.042 319.073 452.28 321.397 455.105C323.744 457.908 326.718 459.31 330.318 459.31C334.01 459.31 336.824 458.102 338.761 455.687C339.832 454.388 340.72 452.439 341.427 449.842H351.852C350.94 455.333 348.616 459.799 344.879 463.24ZM377.862 438.733C373.943 438.733 371.311 440.009 369.967 442.562C369.215 443.997 368.839 446.207 368.839 449.192V467H359.029V429.744H368.326V436.238C369.83 433.755 371.14 432.057 372.257 431.146C374.08 429.619 376.45 428.855 379.366 428.855C379.549 428.855 379.697 428.867 379.811 428.89C379.947 428.89 380.232 428.901 380.665 428.924V438.904C380.05 438.836 379.503 438.79 379.024 438.768C378.546 438.745 378.159 438.733 377.862 438.733ZM418.297 456.062C418.046 458.273 416.896 460.517 414.845 462.796C411.655 466.419 407.188 468.23 401.446 468.23C396.707 468.23 392.525 466.704 388.902 463.65C385.279 460.597 383.468 455.63 383.468 448.748C383.468 442.299 385.097 437.355 388.355 433.914C391.637 430.473 395.886 428.753 401.104 428.753C404.203 428.753 406.995 429.334 409.479 430.496C411.962 431.658 414.013 433.493 415.631 435.999C417.089 438.209 418.035 440.773 418.468 443.689C418.718 445.398 418.821 447.859 418.775 451.072H393.277C393.414 454.809 394.588 457.43 396.798 458.934C398.142 459.868 399.76 460.335 401.651 460.335C403.657 460.335 405.286 459.765 406.539 458.626C407.223 458.011 407.826 457.156 408.351 456.062H418.297ZM408.658 444.646C408.499 442.072 407.713 440.123 406.3 438.802C404.91 437.457 403.178 436.785 401.104 436.785C398.849 436.785 397.094 437.492 395.841 438.904C394.61 440.317 393.836 442.231 393.517 444.646H408.658ZM426.773 433.777C429.348 430.496 433.769 428.855 440.035 428.855C444.114 428.855 447.737 429.664 450.904 431.282C454.072 432.9 455.655 435.953 455.655 440.442V457.532C455.655 458.717 455.678 460.153 455.724 461.839C455.792 463.115 455.986 463.981 456.305 464.437C456.624 464.892 457.102 465.268 457.74 465.564V467H447.145C446.848 466.248 446.643 465.542 446.529 464.881C446.415 464.22 446.324 463.468 446.256 462.625C444.911 464.083 443.362 465.325 441.607 466.351C439.511 467.558 437.141 468.162 434.498 468.162C431.126 468.162 428.334 467.205 426.124 465.291C423.937 463.354 422.843 460.62 422.843 457.088C422.843 452.508 424.609 449.192 428.141 447.142C430.077 446.025 432.926 445.228 436.686 444.749L440.001 444.339C441.801 444.111 443.089 443.826 443.863 443.484C445.253 442.892 445.948 441.969 445.948 440.716C445.948 439.189 445.413 438.141 444.342 437.571C443.294 436.979 441.744 436.683 439.693 436.683C437.392 436.683 435.763 437.252 434.806 438.392C434.122 439.235 433.666 440.374 433.438 441.81H424.039C424.244 438.551 425.156 435.874 426.773 433.777ZM434.02 459.959C434.931 460.711 436.048 461.087 437.369 461.087C439.465 461.087 441.391 460.472 443.146 459.241C444.923 458.011 445.846 455.766 445.914 452.508V448.885C445.299 449.272 444.672 449.591 444.034 449.842C443.419 450.07 442.564 450.286 441.471 450.491L439.283 450.901C437.232 451.266 435.763 451.71 434.874 452.234C433.37 453.123 432.618 454.502 432.618 456.37C432.618 458.034 433.085 459.23 434.02 459.959ZM481.393 460.062V467.342L476.778 467.513C472.175 467.672 469.031 466.875 467.345 465.12C466.251 464.004 465.704 462.283 465.704 459.959V437.024H460.509V430.086H465.704V419.695H475.343V430.086H481.393V437.024H475.343V456.712C475.343 458.239 475.536 459.196 475.924 459.583C476.311 459.948 477.496 460.13 479.479 460.13C479.775 460.13 480.082 460.13 480.401 460.13C480.743 460.107 481.074 460.084 481.393 460.062ZM519.537 456.062C519.286 458.273 518.136 460.517 516.085 462.796C512.895 466.419 508.429 468.23 502.687 468.23C497.947 468.23 493.766 466.704 490.143 463.65C486.52 460.597 484.708 455.63 484.708 448.748C484.708 442.299 486.337 437.355 489.596 433.914C492.877 430.473 497.127 428.753 502.345 428.753C505.444 428.753 508.235 429.334 510.719 430.496C513.202 431.658 515.253 433.493 516.871 435.999C518.329 438.209 519.275 440.773 519.708 443.689C519.959 445.398 520.061 447.859 520.016 451.072H494.518C494.654 454.809 495.828 457.43 498.038 458.934C499.382 459.868 501 460.335 502.892 460.335C504.897 460.335 506.526 459.765 507.779 458.626C508.463 458.011 509.067 457.156 509.591 456.062H519.537ZM509.898 444.646C509.739 442.072 508.953 440.123 507.54 438.802C506.15 437.457 504.418 436.785 502.345 436.785C500.089 436.785 498.334 437.492 497.081 438.904C495.851 440.317 495.076 442.231 494.757 444.646H509.898ZM583.487 416.619V425.54H568.414V467H557.818V425.54H542.677V416.619H583.487ZM585.094 433.777C587.669 430.496 592.089 428.855 598.355 428.855C602.434 428.855 606.057 429.664 609.225 431.282C612.392 432.9 613.976 435.953 613.976 440.442V457.532C613.976 458.717 613.998 460.153 614.044 461.839C614.112 463.115 614.306 463.981 614.625 464.437C614.944 464.892 615.423 465.268 616.061 465.564V467H605.465C605.169 466.248 604.964 465.542 604.85 464.881C604.736 464.22 604.645 463.468 604.576 462.625C603.232 464.083 601.682 465.325 599.928 466.351C597.831 467.558 595.462 468.162 592.818 468.162C589.446 468.162 586.655 467.205 584.444 465.291C582.257 463.354 581.163 460.62 581.163 457.088C581.163 452.508 582.929 449.192 586.461 447.142C588.398 446.025 591.246 445.228 595.006 444.749L598.321 444.339C600.121 444.111 601.409 443.826 602.184 443.484C603.574 442.892 604.269 441.969 604.269 440.716C604.269 439.189 603.733 438.141 602.662 437.571C601.614 436.979 600.064 436.683 598.014 436.683C595.712 436.683 594.083 437.252 593.126 438.392C592.442 439.235 591.987 440.374 591.759 441.81H582.359C582.564 438.551 583.476 435.874 585.094 433.777ZM592.34 459.959C593.251 460.711 594.368 461.087 595.689 461.087C597.786 461.087 599.711 460.472 601.466 459.241C603.243 458.011 604.166 455.766 604.234 452.508V448.885C603.619 449.272 602.993 449.591 602.354 449.842C601.739 450.07 600.885 450.286 599.791 450.491L597.604 450.901C595.553 451.266 594.083 451.71 593.194 452.234C591.69 453.123 590.938 454.502 590.938 456.37C590.938 458.034 591.406 459.23 592.34 459.959ZM642.892 467.991C639.815 467.991 637.343 467.376 635.475 466.146C634.358 465.416 633.15 464.14 631.852 462.317V467H622.315V416.688H632.022V434.598C633.253 432.866 634.609 431.544 636.09 430.633C637.844 429.493 640.077 428.924 642.789 428.924C647.688 428.924 651.516 430.69 654.273 434.222C657.053 437.754 658.443 442.311 658.443 447.894C658.443 453.681 657.076 458.478 654.342 462.283C651.607 466.089 647.791 467.991 642.892 467.991ZM648.224 448.919C648.224 446.276 647.882 444.088 647.198 442.356C645.899 439.075 643.507 437.435 640.021 437.435C636.489 437.435 634.062 439.041 632.74 442.254C632.057 443.963 631.715 446.173 631.715 448.885C631.715 452.075 632.421 454.718 633.834 456.814C635.247 458.911 637.4 459.959 640.294 459.959C642.8 459.959 644.749 458.945 646.139 456.917C647.529 454.889 648.224 452.223 648.224 448.919ZM665.655 416.619H675.396V467H665.655V416.619ZM716.822 456.062C716.572 458.273 715.421 460.517 713.37 462.796C710.18 466.419 705.714 468.23 699.972 468.23C695.232 468.23 691.051 466.704 687.428 463.65C683.805 460.597 681.993 455.63 681.993 448.748C681.993 442.299 683.622 437.355 686.881 433.914C690.162 430.473 694.412 428.753 699.63 428.753C702.729 428.753 705.52 429.334 708.004 430.496C710.488 431.658 712.538 433.493 714.156 435.999C715.615 438.209 716.56 440.773 716.993 443.689C717.244 445.398 717.346 447.859 717.301 451.072H691.803C691.939 454.809 693.113 457.43 695.323 458.934C696.668 459.868 698.285 460.335 700.177 460.335C702.182 460.335 703.811 459.765 705.064 458.626C705.748 458.011 706.352 457.156 706.876 456.062H716.822ZM707.184 444.646C707.024 442.072 706.238 440.123 704.825 438.802C703.435 437.457 701.703 436.785 699.63 436.785C697.374 436.785 695.619 437.492 694.366 438.904C693.136 440.317 692.361 442.231 692.042 444.646H707.184ZM749.566 431.453C752.483 433.322 754.158 436.535 754.591 441.092H744.85C744.713 439.839 744.36 438.847 743.79 438.118C742.719 436.797 740.896 436.136 738.321 436.136C736.202 436.136 734.687 436.466 733.775 437.127C732.887 437.788 732.442 438.562 732.442 439.451C732.442 440.568 732.921 441.377 733.878 441.878C734.835 442.402 738.219 443.302 744.029 444.578C747.903 445.49 750.808 446.868 752.745 448.714C754.659 450.582 755.616 452.918 755.616 455.721C755.616 459.412 754.238 462.431 751.48 464.778C748.746 467.103 744.508 468.265 738.766 468.265C732.91 468.265 728.58 467.034 725.777 464.573C722.997 462.09 721.607 458.934 721.607 455.105H731.485C731.69 456.837 732.135 458.068 732.818 458.797C734.026 460.096 736.259 460.745 739.518 460.745C741.432 460.745 742.947 460.46 744.063 459.891C745.203 459.321 745.772 458.466 745.772 457.327C745.772 456.233 745.317 455.402 744.405 454.832C743.494 454.262 740.11 453.283 734.254 451.893C730.038 450.844 727.065 449.534 725.333 447.962C723.601 446.412 722.735 444.179 722.735 441.263C722.735 437.822 724.08 434.871 726.769 432.41C729.48 429.926 733.285 428.685 738.185 428.685C742.833 428.685 746.627 429.607 749.566 431.453Z" fill="#E85859"/>
<defs>
<filter id="filter0_d_5189_11897" x="204" y="2.479" width="305.81" height="320" filterUnits="userSpaceOnUse" color-interpolation-filters="sRGB">
<feFlood flood-opacity="0" result="BackgroundImageFix"/>
<feColorMatrix in="SourceAlpha" type="matrix" values="0 0 0 0 0 0 0 0 0 0 0 0 0 0 0 0 0 0 127 0" result="hardAlpha"/>
<feOffset dx="20" dy="20"/>
<feGaussianBlur stdDeviation="50"/>
<feComposite in2="hardAlpha" operator="out"/>
<feColorMatrix type="matrix" values="0 0 0 0 0 0 0 0 0 0 0 0 0 0 0 0 0 0 0.25 0"/>
<feBlend mode="normal" in2="BackgroundImageFix" result="effect1_dropShadow_5189_11897"/>
<feBlend mode="normal" in="SourceGraphic" in2="effect1_dropShadow_5189_11897" result="shape"/>
</filter>
<filter id="filter1_d_5189_11897" x="365" y="3.34326" width="305.808" height="320" filterUnits="userSpaceOnUse" color-interpolation-filters="sRGB">
<feFlood flood-opacity="0" result="BackgroundImageFix"/>
<feColorMatrix in="SourceAlpha" type="matrix" values="0 0 0 0 0 0 0 0 0 0 0 0 0 0 0 0 0 0 127 0" result="hardAlpha"/>
<feOffset dx="20" dy="20"/>
<feGaussianBlur stdDeviation="50"/>
<feComposite in2="hardAlpha" operator="out"/>
<feColorMatrix type="matrix" values="0 0 0 0 0 0 0 0 0 0 0 0 0 0 0 0 0 0 0.25 0"/>
<feBlend mode="normal" in2="BackgroundImageFix" result="effect1_dropShadow_5189_11897"/>
<feBlend mode="normal" in="SourceGraphic" in2="effect1_dropShadow_5189_11897" result="shape"/>
</filter>
<linearGradient id="paint0_linear_5189_11897" x1="800" y1="1.57938e-05" x2="-2.41944" y2="596.747" gradientUnits="userSpaceOnUse">
<stop stop-color="#FFF4F4"/>
<stop offset="1" stop-color="#FFBFBF"/>
</linearGradient>
</defs>
</svg>
