<svg width="800" height="600" viewBox="0 0 800 600" fill="none" xmlns="http://www.w3.org/2000/svg">
<rect width="800" height="600" fill="url(#paint0_linear_5189_12041)"/>
<line x1="91" y1="218" x2="742" y2="218" stroke="#E85859" stroke-width="2"/>
<path d="M129.684 471H101.168V373.344H67.8672V354.398C76.6562 354.008 82.8086 353.422 86.3242 352.641C91.9232 351.404 96.4805 348.93 99.9961 345.219C102.405 342.68 104.228 339.294 105.465 335.062C106.181 332.523 106.539 330.635 106.539 329.398H129.684V471ZM203.609 357.621C200.484 361.788 198.987 367.354 199.117 374.32H173.141C173.401 367.289 174.605 360.616 176.754 354.301C179.033 348.767 182.613 343.656 187.496 338.969C191.142 335.648 195.471 333.109 200.484 331.352C205.497 329.594 211.65 328.715 218.941 328.715C232.483 328.715 243.388 332.23 251.656 339.262C259.99 346.228 264.156 355.603 264.156 367.387C264.156 375.72 261.682 382.751 256.734 388.48C253.609 392.061 250.354 394.503 246.969 395.805C249.508 395.805 253.154 397.986 257.906 402.348C265.003 408.923 268.551 417.908 268.551 429.301C268.551 441.28 264.384 451.827 256.051 460.941C247.783 469.991 235.51 474.516 219.234 474.516C199.182 474.516 185.25 467.973 177.438 454.887C173.336 447.921 171.057 438.806 170.602 427.543H197.945C197.945 433.207 198.857 437.895 200.68 441.605C204.065 448.441 210.217 451.859 219.137 451.859C224.605 451.859 229.358 450.004 233.395 446.293C237.496 442.517 239.547 437.113 239.547 430.082C239.547 420.772 235.771 414.555 228.219 411.43C223.922 409.672 217.151 408.793 207.906 408.793V388.871C216.956 388.741 223.271 387.862 226.852 386.234C233.036 383.5 236.129 377.966 236.129 369.633C236.129 364.229 234.534 359.835 231.344 356.449C228.219 353.064 223.792 351.371 218.062 351.371C211.487 351.371 206.669 353.454 203.609 357.621Z" fill="#E85859" fill-opacity="0.8"/>
<path d="M290 53H297.353V60.2653H304.08V53H311.433V75H304.08V67.6334H297.353V75H290V53ZM321.102 60.2961H314.63V53H334.932V60.2961H328.457V75H321.104L321.102 60.2961ZM338.155 53H345.826L350.542 60.7293L355.25 53H362.92V75H355.596V64.0947L350.538 71.9165H350.412L345.349 64.0947V74.9985H338.154L338.155 53ZM366.579 53H373.934V67.7274H384.274V74.9985H366.579V53Z" fill="#E85859"/>
<g filter="url(#filter0_d_5189_12041)">
<path d="M389.81 82.4785L380.171 190.466L336.841 202.479L293.63 190.483L284 82.4785H389.81Z" fill="#E44D26"/>
<path d="M336.905 193.296L371.918 183.589L380.156 91.3086H336.905V193.296Z" fill="#F16529"/>
<path d="M318.165 117.802H336.904V104.562H303.689L304.006 108.117L307.262 144.619H336.905V131.367H319.376L318.165 117.802ZM321.151 151.236H307.853L309.709 172.034L336.843 179.561L336.904 179.545V165.768L336.846 165.783L322.094 161.8L321.153 151.236H321.151Z" fill="#EBEBEB"/>
<path d="M336.859 144.611H353.17L351.633 161.791L336.858 165.778V179.559L364.012 172.031L364.211 169.793L367.324 134.92L367.646 131.363H336.859V144.611ZM336.859 117.768V117.801H368.852L369.121 114.823L369.725 108.102L370.041 104.548H336.859V117.762V117.768Z" fill="white"/>
</g>
<path d="M533.881 59.583H523.425L534.299 71.3827V77H511.903V70.4226H522.775L511.903 58.623V53H533.881V59.583V59.583ZM507.463 59.583H497.007L507.88 71.3827V77H485.483V70.4226H496.357L485.483 58.623V53H507.463V59.583V59.583ZM481.303 59.8521H470.02V70.1479H481.303V77H462V53H481.303V59.8521V59.8521Z" fill="#E85859"/>
<g filter="url(#filter1_d_5189_12041)">
<path d="M454.63 191.347L445 83.3438H550.808L541.17 191.329L497.839 203.344L454.63 191.347V191.347Z" fill="#1572B6"/>
<path d="M497.906 194.162L532.918 184.454L541.155 92.1758H497.906V194.162Z" fill="#33A9DC"/>
<path d="M497.905 131.304H515.433L516.644 117.741H497.905V104.494H531.121L530.803 108.048L527.548 144.55H497.905V131.304V131.304Z" fill="white"/>
<path d="M497.984 165.706L497.926 165.722L483.174 161.738L482.23 151.174H468.935L470.791 171.972L497.924 179.504L497.986 179.486V165.706H497.984Z" fill="#EBEBEB"/>
<path d="M514.307 143.989L512.711 161.729L497.938 165.717V179.498L525.093 171.972L525.293 169.734L527.598 143.989H514.307V143.989Z" fill="white"/>
<path d="M497.951 104.494V117.739H465.955L465.689 114.763L465.086 108.048L464.769 104.494H497.951ZM497.905 131.306V144.552H483.339L483.074 141.575L482.47 134.859L482.152 131.306H497.905V131.306Z" fill="#EBEBEB"/>
</g>
<path d="M344.879 383.24C341.119 386.681 336.311 388.401 330.455 388.401C323.209 388.401 317.512 386.077 313.365 381.429C309.218 376.757 307.145 370.354 307.145 362.22C307.145 353.424 309.503 346.645 314.22 341.883C318.321 337.736 323.539 335.662 329.874 335.662C338.351 335.662 344.549 338.442 348.468 344.002C350.632 347.124 351.795 350.257 351.954 353.401H341.427C340.743 350.986 339.866 349.163 338.795 347.933C336.881 345.745 334.044 344.651 330.284 344.651C326.456 344.651 323.437 346.201 321.227 349.3C319.016 352.376 317.911 356.74 317.911 362.391C317.911 368.042 319.073 372.28 321.397 375.105C323.744 377.908 326.718 379.31 330.318 379.31C334.01 379.31 336.824 378.102 338.761 375.687C339.832 374.388 340.72 372.439 341.427 369.842H351.852C350.94 375.333 348.616 379.799 344.879 383.24ZM378.204 379.72C380.688 379.72 382.704 379.446 384.254 378.899C387.193 377.851 388.663 375.903 388.663 373.055C388.663 371.391 387.934 370.104 386.476 369.192C385.017 368.304 382.727 367.518 379.605 366.834L374.273 365.638C369.033 364.453 365.41 363.165 363.404 361.775C360.009 359.451 358.312 355.817 358.312 350.872C358.312 346.36 359.952 342.612 363.233 339.627C366.515 336.642 371.334 335.149 377.691 335.149C383.001 335.149 387.524 336.562 391.261 339.388C395.021 342.19 396.992 346.269 397.174 351.624H387.057C386.874 348.593 385.553 346.44 383.092 345.164C381.451 344.321 379.412 343.899 376.974 343.899C374.262 343.899 372.097 344.446 370.479 345.54C368.862 346.634 368.053 348.16 368.053 350.12C368.053 351.92 368.85 353.265 370.445 354.153C371.471 354.746 373.658 355.441 377.008 356.238L385.689 358.323C389.495 359.235 392.366 360.454 394.303 361.98C397.311 364.35 398.814 367.78 398.814 372.269C398.814 376.871 397.049 380.7 393.517 383.753C390.007 386.784 385.04 388.299 378.614 388.299C372.052 388.299 366.891 386.806 363.131 383.821C359.371 380.813 357.491 376.689 357.491 371.448H367.54C367.859 373.75 368.486 375.47 369.42 376.609C371.129 378.683 374.057 379.72 378.204 379.72ZM424.894 379.72C427.377 379.72 429.394 379.446 430.943 378.899C433.883 377.851 435.353 375.903 435.353 373.055C435.353 371.391 434.623 370.104 433.165 369.192C431.707 368.304 429.417 367.518 426.295 366.834L420.963 365.638C415.722 364.453 412.099 363.165 410.094 361.775C406.699 359.451 405.001 355.817 405.001 350.872C405.001 346.36 406.642 342.612 409.923 339.627C413.204 336.642 418.023 335.149 424.381 335.149C429.69 335.149 434.213 336.562 437.95 339.388C441.71 342.19 443.681 346.269 443.863 351.624H433.746C433.564 348.593 432.242 346.44 429.781 345.164C428.141 344.321 426.101 343.899 423.663 343.899C420.951 343.899 418.787 344.446 417.169 345.54C415.551 346.634 414.742 348.16 414.742 350.12C414.742 351.92 415.54 353.265 417.135 354.153C418.16 354.746 420.348 355.441 423.697 356.238L432.379 358.323C436.184 359.235 439.055 360.454 440.992 361.98C444 364.35 445.504 367.78 445.504 372.269C445.504 376.871 443.738 380.7 440.206 383.753C436.697 386.784 431.729 388.299 425.304 388.299C418.741 388.299 413.58 386.806 409.82 383.821C406.061 380.813 404.181 376.689 404.181 371.448H414.229C414.549 373.75 415.175 375.47 416.109 376.609C417.818 378.683 420.746 379.72 424.894 379.72ZM466.251 376.814V387H455.895V376.814H466.251ZM455.895 361.399V351.214H466.251V361.399H455.895ZM514.376 379.72C516.86 379.72 518.876 379.446 520.426 378.899C523.365 377.851 524.835 375.903 524.835 373.055C524.835 371.391 524.106 370.104 522.647 369.192C521.189 368.304 518.899 367.518 515.777 366.834L510.445 365.638C505.204 364.453 501.581 363.165 499.576 361.775C496.181 359.451 494.483 355.817 494.483 350.872C494.483 346.36 496.124 342.612 499.405 339.627C502.687 336.642 507.506 335.149 513.863 335.149C519.173 335.149 523.696 336.562 527.433 339.388C531.192 342.19 533.163 346.269 533.346 351.624H523.229C523.046 348.593 521.725 346.44 519.264 345.164C517.623 344.321 515.584 343.899 513.146 343.899C510.434 343.899 508.269 344.446 506.651 345.54C505.034 346.634 504.225 348.16 504.225 350.12C504.225 351.92 505.022 353.265 506.617 354.153C507.643 354.746 509.83 355.441 513.18 356.238L521.861 358.323C525.667 359.235 528.538 360.454 530.475 361.98C533.482 364.35 534.986 367.78 534.986 372.269C534.986 376.871 533.22 380.7 529.688 383.753C526.179 386.784 521.212 388.299 514.786 388.299C508.224 388.299 503.062 386.806 499.303 383.821C495.543 380.813 493.663 376.689 493.663 371.448H503.712C504.031 373.75 504.658 375.47 505.592 376.609C507.301 378.683 510.229 379.72 514.376 379.72ZM559.049 380.062V387.342L554.435 387.513C549.832 387.672 546.687 386.875 545.001 385.12C543.907 384.004 543.36 382.283 543.36 379.959V357.024H538.165V350.086H543.36V339.695H552.999V350.086H559.049V357.024H552.999V376.712C552.999 378.239 553.193 379.196 553.58 379.583C553.967 379.948 555.152 380.13 557.135 380.13C557.431 380.13 557.739 380.13 558.058 380.13C558.399 380.107 558.73 380.084 559.049 380.062ZM580.445 377.225L588.136 349.744H598.492L585.709 386.385C583.248 393.449 581.3 397.824 579.864 399.51C578.429 401.219 575.558 402.073 571.251 402.073C570.385 402.073 569.69 402.062 569.166 402.039C568.642 402.039 567.856 402.005 566.808 401.937V394.144L568.038 394.212C568.995 394.257 569.907 394.223 570.772 394.109C571.638 393.995 572.368 393.733 572.96 393.323C573.53 392.936 574.054 392.127 574.532 390.896C575.034 389.666 575.239 388.914 575.147 388.641L561.476 349.744H572.311L580.445 377.225ZM604.474 336.619H614.215V387H604.474V336.619ZM633.766 349.744V387H623.888V349.744H633.766ZM633.766 336.312V345.301H623.888V336.312H633.766ZM660.768 356.956C657.464 356.956 655.196 358.357 653.966 361.16C653.328 362.641 653.009 364.533 653.009 366.834V387H643.302V349.812H652.701V355.247C653.954 353.333 655.139 351.954 656.256 351.111C658.261 349.607 660.802 348.855 663.878 348.855C667.729 348.855 670.873 349.869 673.312 351.897C675.772 353.903 677.003 357.241 677.003 361.912V387H667.022V364.339C667.022 362.379 666.76 360.875 666.236 359.827C665.279 357.913 663.456 356.956 660.768 356.956ZM696.554 393.528C697.602 394.417 699.368 394.861 701.852 394.861C705.361 394.861 707.708 393.688 708.893 391.341C709.667 389.837 710.055 387.308 710.055 383.753V381.36C709.12 382.955 708.118 384.152 707.047 384.949C705.11 386.43 702.592 387.171 699.493 387.171C694.708 387.171 690.88 385.496 688.009 382.146C685.16 378.774 683.736 374.217 683.736 368.475C683.736 362.938 685.115 358.289 687.872 354.529C690.629 350.747 694.537 348.855 699.596 348.855C701.464 348.855 703.093 349.14 704.483 349.71C706.853 350.69 708.767 352.49 710.226 355.11V349.744H719.693V385.086C719.693 389.894 718.884 393.517 717.267 395.955C714.487 400.148 709.155 402.244 701.271 402.244C696.508 402.244 692.623 401.31 689.615 399.441C686.607 397.573 684.944 394.782 684.625 391.067H695.221C695.494 392.207 695.938 393.027 696.554 393.528ZM694.913 374.285C696.235 377.43 698.604 379.002 702.022 379.002C704.301 379.002 706.227 378.147 707.799 376.438C709.371 374.707 710.157 371.961 710.157 368.201C710.157 364.669 709.405 361.98 707.901 360.135C706.42 358.289 704.426 357.366 701.92 357.366C698.502 357.366 696.144 358.973 694.845 362.186C694.161 363.895 693.819 366.002 693.819 368.509C693.819 370.674 694.184 372.599 694.913 374.285ZM332.335 467H309.503V416.619H333.976C340.151 416.71 344.526 418.499 347.101 421.985C348.65 424.127 349.425 426.691 349.425 429.676C349.425 432.752 348.65 435.224 347.101 437.093C346.235 438.141 344.959 439.098 343.272 439.964C345.847 440.898 347.784 442.379 349.083 444.407C350.405 446.435 351.065 448.896 351.065 451.79C351.065 454.775 350.313 457.452 348.81 459.822C347.853 461.395 346.656 462.716 345.221 463.787C343.603 465.018 341.689 465.861 339.479 466.316C337.291 466.772 334.91 467 332.335 467ZM332.096 444.817H319.552V458.25H331.925C334.135 458.25 335.855 457.954 337.086 457.361C339.319 456.268 340.436 454.171 340.436 451.072C340.436 448.452 339.353 446.652 337.188 445.672C335.981 445.125 334.283 444.84 332.096 444.817ZM337.325 435.213C338.692 434.393 339.376 432.923 339.376 430.804C339.376 428.457 338.465 426.907 336.642 426.155C335.069 425.631 333.064 425.369 330.626 425.369H319.552V436.478H331.925C334.135 436.478 335.935 436.056 337.325 435.213ZM360.533 433.777C363.108 430.496 367.529 428.855 373.795 428.855C377.874 428.855 381.497 429.664 384.664 431.282C387.831 432.9 389.415 435.953 389.415 440.442V457.532C389.415 458.717 389.438 460.153 389.483 461.839C389.552 463.115 389.745 463.981 390.064 464.437C390.383 464.892 390.862 465.268 391.5 465.564V467H380.904C380.608 466.248 380.403 465.542 380.289 464.881C380.175 464.22 380.084 463.468 380.016 462.625C378.671 464.083 377.122 465.325 375.367 466.351C373.271 467.558 370.901 468.162 368.258 468.162C364.885 468.162 362.094 467.205 359.884 465.291C357.696 463.354 356.603 460.62 356.603 457.088C356.603 452.508 358.368 449.192 361.9 447.142C363.837 446.025 366.686 445.228 370.445 444.749L373.761 444.339C375.561 444.111 376.848 443.826 377.623 443.484C379.013 442.892 379.708 441.969 379.708 440.716C379.708 439.189 379.173 438.141 378.102 437.571C377.053 436.979 375.504 436.683 373.453 436.683C371.152 436.683 369.522 437.252 368.565 438.392C367.882 439.235 367.426 440.374 367.198 441.81H357.799C358.004 438.551 358.915 435.874 360.533 433.777ZM367.779 459.959C368.691 460.711 369.807 461.087 371.129 461.087C373.225 461.087 375.151 460.472 376.905 459.241C378.683 458.011 379.605 455.766 379.674 452.508V448.885C379.059 449.272 378.432 449.591 377.794 449.842C377.179 450.07 376.324 450.286 375.23 450.491L373.043 450.901C370.992 451.266 369.522 451.71 368.634 452.234C367.13 453.123 366.378 454.502 366.378 456.37C366.378 458.034 366.845 459.23 367.779 459.959ZM430.328 443.108H420.348C420.165 441.718 419.698 440.465 418.946 439.349C417.853 437.845 416.155 437.093 413.854 437.093C410.572 437.093 408.328 438.722 407.12 441.98C406.482 443.712 406.163 446.014 406.163 448.885C406.163 451.619 406.482 453.818 407.12 455.481C408.282 458.58 410.47 460.13 413.683 460.13C415.961 460.13 417.579 459.515 418.536 458.284C419.493 457.054 420.074 455.459 420.279 453.499H430.226C429.998 456.461 428.927 459.264 427.013 461.907C423.959 466.168 419.436 468.299 413.443 468.299C407.451 468.299 403.041 466.521 400.216 462.967C397.39 459.412 395.978 454.798 395.978 449.124C395.978 442.721 397.538 437.742 400.66 434.188C403.782 430.633 408.089 428.855 413.58 428.855C418.251 428.855 422.068 429.904 425.03 432C428.015 434.096 429.781 437.799 430.328 443.108ZM471.241 467H459.483L450.562 451.072L446.529 455.276V467H436.959V416.79H446.529V443.929L458.663 429.915H470.729L457.706 444.168L471.241 467ZM486.554 473.528C487.602 474.417 489.368 474.861 491.852 474.861C495.361 474.861 497.708 473.688 498.893 471.341C499.667 469.837 500.055 467.308 500.055 463.753V461.36C499.12 462.955 498.118 464.152 497.047 464.949C495.11 466.43 492.592 467.171 489.493 467.171C484.708 467.171 480.88 465.496 478.009 462.146C475.16 458.774 473.736 454.217 473.736 448.475C473.736 442.938 475.115 438.289 477.872 434.529C480.629 430.747 484.537 428.855 489.596 428.855C491.464 428.855 493.093 429.14 494.483 429.71C496.853 430.69 498.767 432.49 500.226 435.11V429.744H509.693V465.086C509.693 469.894 508.884 473.517 507.267 475.955C504.487 480.148 499.155 482.244 491.271 482.244C486.508 482.244 482.623 481.31 479.615 479.441C476.607 477.573 474.944 474.782 474.625 471.067H485.221C485.494 472.207 485.938 473.027 486.554 473.528ZM484.913 454.285C486.235 457.43 488.604 459.002 492.022 459.002C494.301 459.002 496.227 458.147 497.799 456.438C499.371 454.707 500.157 451.961 500.157 448.201C500.157 444.669 499.405 441.98 497.901 440.135C496.42 438.289 494.426 437.366 491.92 437.366C488.502 437.366 486.144 438.973 484.845 442.186C484.161 443.895 483.819 446.002 483.819 448.509C483.819 450.674 484.184 452.599 484.913 454.285ZM537.55 438.733C533.631 438.733 530.999 440.009 529.654 442.562C528.902 443.997 528.526 446.207 528.526 449.192V467H518.717V429.744H528.014V436.238C529.518 433.755 530.828 432.057 531.944 431.146C533.767 429.619 536.137 428.855 539.054 428.855C539.236 428.855 539.384 428.867 539.498 428.89C539.635 428.89 539.92 428.901 540.353 428.924V438.904C539.737 438.836 539.19 438.79 538.712 438.768C538.233 438.745 537.846 438.733 537.55 438.733ZM577.164 434.461C580.309 438.403 581.881 443.063 581.881 448.44C581.881 453.909 580.309 458.592 577.164 462.488C574.02 466.362 569.246 468.299 562.843 468.299C556.44 468.299 551.666 466.362 548.521 462.488C545.377 458.592 543.805 453.909 543.805 448.44C543.805 443.063 545.377 438.403 548.521 434.461C551.666 430.519 556.44 428.548 562.843 428.548C569.246 428.548 574.02 430.519 577.164 434.461ZM562.809 436.785C559.96 436.785 557.761 437.799 556.212 439.827C554.685 441.832 553.922 444.703 553.922 448.44C553.922 452.177 554.685 455.06 556.212 457.088C557.761 459.116 559.96 460.13 562.809 460.13C565.657 460.13 567.844 459.116 569.371 457.088C570.898 455.06 571.661 452.177 571.661 448.44C571.661 444.703 570.898 441.832 569.371 439.827C567.844 437.799 565.657 436.785 562.809 436.785ZM612.779 461.736C612.688 461.85 612.46 462.192 612.096 462.762C611.731 463.331 611.298 463.833 610.797 464.266C609.27 465.633 607.789 466.567 606.354 467.068C604.941 467.57 603.277 467.82 601.363 467.82C595.849 467.82 592.135 465.838 590.221 461.873C589.15 459.686 588.614 456.461 588.614 452.2V429.744H598.595V452.2C598.595 454.319 598.845 455.914 599.347 456.985C600.235 458.877 601.979 459.822 604.576 459.822C607.903 459.822 610.182 458.478 611.412 455.789C612.05 454.331 612.369 452.405 612.369 450.013V429.744H622.247V467H612.779V461.736ZM649.215 436.956C645.911 436.956 643.644 438.357 642.413 441.16C641.775 442.641 641.456 444.533 641.456 446.834V467H631.749V429.812H641.148V435.247C642.402 433.333 643.587 431.954 644.703 431.111C646.708 429.607 649.249 428.855 652.325 428.855C656.176 428.855 659.321 429.869 661.759 431.897C664.22 433.903 665.45 437.241 665.45 441.912V467H655.47V444.339C655.47 442.379 655.208 440.875 654.684 439.827C653.727 437.913 651.904 436.956 649.215 436.956ZM708.38 416.688V467H698.912V461.839C697.522 464.049 695.938 465.656 694.161 466.658C692.384 467.661 690.174 468.162 687.53 468.162C683.178 468.162 679.509 466.408 676.524 462.898C673.562 459.367 672.081 454.843 672.081 449.329C672.081 442.972 673.539 437.97 676.456 434.324C679.396 430.678 683.315 428.855 688.214 428.855C690.47 428.855 692.475 429.357 694.229 430.359C695.984 431.339 697.408 432.706 698.502 434.461V416.688H708.38ZM682.13 448.611C682.13 452.052 682.813 454.798 684.181 456.849C685.525 458.922 687.576 459.959 690.333 459.959C693.09 459.959 695.187 458.934 696.622 456.883C698.058 454.832 698.775 452.177 698.775 448.919C698.775 444.362 697.625 441.103 695.323 439.144C693.91 437.959 692.27 437.366 690.401 437.366C687.553 437.366 685.457 438.449 684.112 440.613C682.791 442.755 682.13 445.421 682.13 448.611ZM742.936 431.453C745.852 433.322 747.527 436.535 747.96 441.092H738.219C738.082 439.839 737.729 438.847 737.159 438.118C736.088 436.797 734.265 436.136 731.69 436.136C729.571 436.136 728.056 436.466 727.145 437.127C726.256 437.788 725.812 438.562 725.812 439.451C725.812 440.568 726.29 441.377 727.247 441.878C728.204 442.402 731.588 443.302 737.398 444.578C741.272 445.49 744.177 446.868 746.114 448.714C748.028 450.582 748.985 452.918 748.985 455.721C748.985 459.412 747.607 462.431 744.85 464.778C742.115 467.103 737.877 468.265 732.135 468.265C726.279 468.265 721.949 467.034 719.146 464.573C716.367 462.09 714.977 458.934 714.977 455.105H724.854C725.06 456.837 725.504 458.068 726.188 458.797C727.395 460.096 729.628 460.745 732.887 460.745C734.801 460.745 736.316 460.46 737.433 459.891C738.572 459.321 739.142 458.466 739.142 457.327C739.142 456.233 738.686 455.402 737.774 454.832C736.863 454.262 733.479 453.283 727.623 451.893C723.408 450.844 720.434 449.534 718.702 447.962C716.97 446.412 716.104 444.179 716.104 441.263C716.104 437.822 717.449 434.871 720.138 432.41C722.849 429.926 726.655 428.685 731.554 428.685C736.202 428.685 739.996 429.607 742.936 431.453Z" fill="#E85859"/>
<defs>
<filter id="filter0_d_5189_12041" x="204" y="2.47852" width="305.81" height="320" filterUnits="userSpaceOnUse" color-interpolation-filters="sRGB">
<feFlood flood-opacity="0" result="BackgroundImageFix"/>
<feColorMatrix in="SourceAlpha" type="matrix" values="0 0 0 0 0 0 0 0 0 0 0 0 0 0 0 0 0 0 127 0" result="hardAlpha"/>
<feOffset dx="20" dy="20"/>
<feGaussianBlur stdDeviation="50"/>
<feComposite in2="hardAlpha" operator="out"/>
<feColorMatrix type="matrix" values="0 0 0 0 0 0 0 0 0 0 0 0 0 0 0 0 0 0 0.25 0"/>
<feBlend mode="normal" in2="BackgroundImageFix" result="effect1_dropShadow_5189_12041"/>
<feBlend mode="normal" in="SourceGraphic" in2="effect1_dropShadow_5189_12041" result="shape"/>
</filter>
<filter id="filter1_d_5189_12041" x="365" y="3.34375" width="305.808" height="320" filterUnits="userSpaceOnUse" color-interpolation-filters="sRGB">
<feFlood flood-opacity="0" result="BackgroundImageFix"/>
<feColorMatrix in="SourceAlpha" type="matrix" values="0 0 0 0 0 0 0 0 0 0 0 0 0 0 0 0 0 0 127 0" result="hardAlpha"/>
<feOffset dx="20" dy="20"/>
<feGaussianBlur stdDeviation="50"/>
<feComposite in2="hardAlpha" operator="out"/>
<feColorMatrix type="matrix" values="0 0 0 0 0 0 0 0 0 0 0 0 0 0 0 0 0 0 0.25 0"/>
<feBlend mode="normal" in2="BackgroundImageFix" result="effect1_dropShadow_5189_12041"/>
<feBlend mode="normal" in="SourceGraphic" in2="effect1_dropShadow_5189_12041" result="shape"/>
</filter>
<linearGradient id="paint0_linear_5189_12041" x1="800" y1="0" x2="1.78814e-05" y2="600" gradientUnits="userSpaceOnUse">
<stop stop-color="#FFF4F4"/>
<stop offset="1" stop-color="#FFBFBF"/>
</linearGradient>
</defs>
</svg>
