<svg width="800" height="600" viewBox="0 0 800 600" fill="none" xmlns="http://www.w3.org/2000/svg">
<rect width="800" height="600" fill="url(#paint0_linear_5189_11879)"/>
<line x1="91" y1="218" x2="742" y2="218" stroke="#E85859" stroke-width="2"/>
<path d="M109.078 474.516C91.0443 474.516 78.3815 468.201 71.0898 455.57C63.8633 442.94 60.25 424.939 60.25 401.566C60.25 378.194 63.8633 360.16 71.0898 347.465C78.3815 334.77 91.0443 328.422 109.078 328.422C127.112 328.422 139.775 334.77 147.066 347.465C154.293 360.16 157.906 378.194 157.906 401.566C157.906 424.939 154.26 442.94 146.969 455.57C139.742 468.201 127.112 474.516 109.078 474.516ZM125.387 438.871C127.926 430.277 129.195 417.842 129.195 401.566C129.195 384.509 127.893 371.879 125.289 363.676C122.75 355.473 117.346 351.371 109.078 351.371C100.81 351.371 95.3411 355.473 92.6719 363.676C90.0026 371.879 88.668 384.509 88.668 401.566C88.668 417.842 90.0026 430.31 92.6719 438.969C95.3411 447.562 100.81 451.859 109.078 451.859C117.346 451.859 122.783 447.53 125.387 438.871ZM217.281 475.102C206.669 475.102 197.132 471.977 188.668 465.727C180.204 459.411 175.354 450.232 174.117 438.188H201.852C202.503 442.354 204.26 445.74 207.125 448.344C209.99 450.948 213.798 452.25 218.551 452.25C227.73 452.25 234.176 447.172 237.887 437.016C239.905 431.417 241.174 423.246 241.695 412.504C239.156 415.694 236.454 418.135 233.59 419.828C228.382 422.953 221.969 424.516 214.352 424.516C203.089 424.516 193.095 420.642 184.371 412.895C175.647 405.082 171.285 393.852 171.285 379.203C171.285 364.034 175.647 351.762 184.371 342.387C193.16 332.947 204.553 328.227 218.551 328.227C240.1 328.227 254.879 337.764 262.887 356.84C267.444 367.647 269.723 381.872 269.723 399.516C269.723 416.638 267.542 430.928 263.18 442.387C254.846 464.197 239.547 475.102 217.281 475.102ZM207.516 355.473C202.177 359.639 199.508 366.703 199.508 376.664C199.508 385.062 201.201 391.378 204.586 395.609C208.036 399.776 213.31 401.859 220.406 401.859C224.247 401.859 227.861 400.753 231.246 398.539C237.561 394.503 240.719 387.504 240.719 377.543C240.719 369.535 238.831 363.188 235.055 358.5C231.344 353.812 226.233 351.469 219.723 351.469C214.97 351.469 210.901 352.803 207.516 355.473Z" fill="#E85859" fill-opacity="0.8"/>
<path d="M290 53H297.353V60.2653H304.08V53H311.433V75H304.08V67.6334H297.353V75H290V53ZM321.102 60.2961H314.63V53H334.932V60.2961H328.457V75H321.104L321.102 60.2961ZM338.155 53H345.826L350.542 60.7293L355.25 53H362.92V75H355.596V64.0947L350.538 71.9165H350.412L345.349 64.0947V74.9985H338.154L338.155 53ZM366.579 53H373.934V67.7274H384.274V74.9985H366.579V53Z" fill="#E85859"/>
<g filter="url(#filter0_d_5189_11879)">
<path d="M389.81 82.479L380.171 190.467L336.841 202.479L293.63 190.483L284 82.479H389.81Z" fill="#E44D26"/>
<path d="M336.905 193.296L371.918 183.59L380.156 91.3091H336.905V193.296Z" fill="#F16529"/>
<path d="M318.165 117.803H336.904V104.563H303.689L304.006 108.118L307.262 144.62H336.905V131.368H319.376L318.165 117.803ZM321.151 151.237H307.853L309.709 172.035L336.843 179.562L336.904 179.546V165.769L336.846 165.784L322.094 161.801L321.153 151.237H321.151Z" fill="#EBEBEB"/>
<path d="M336.859 144.612H353.17L351.633 161.792L336.858 165.779V179.56L364.012 172.032L364.211 169.794L367.324 134.921L367.646 131.364H336.859V144.612ZM336.859 117.769V117.802H368.852L369.121 114.824L369.725 108.103L370.041 104.549H336.859V117.763V117.769Z" fill="white"/>
</g>
<path d="M533.881 59.583H523.425L534.299 71.3827V77H511.903V70.4226H522.775L511.903 58.623V53H533.881V59.583V59.583ZM507.463 59.583H497.007L507.88 71.3827V77H485.483V70.4226H496.357L485.483 58.623V53H507.463V59.583V59.583ZM481.303 59.8521H470.02V70.1479H481.303V77H462V53H481.303V59.8521V59.8521Z" fill="#E85859"/>
<g filter="url(#filter1_d_5189_11879)">
<path d="M454.63 191.347L445 83.3433H550.808L541.17 191.329L497.839 203.343L454.63 191.347V191.347Z" fill="#1572B6"/>
<path d="M497.906 194.161L532.918 184.454L541.155 92.1748H497.906V194.161Z" fill="#33A9DC"/>
<path d="M497.905 131.304H515.433L516.644 117.74H497.905V104.494H531.121L530.803 108.047L527.548 144.549H497.905V131.304V131.304Z" fill="white"/>
<path d="M497.984 165.706L497.926 165.722L483.174 161.738L482.23 151.174H468.935L470.791 171.972L497.924 179.504L497.986 179.486V165.706H497.984Z" fill="#EBEBEB"/>
<path d="M514.307 143.989L512.711 161.729L497.938 165.717V179.498L525.093 171.972L525.293 169.734L527.598 143.989H514.307V143.989Z" fill="white"/>
<path d="M497.951 104.494V117.739H465.955L465.689 114.762L465.086 108.047L464.769 104.494H497.951ZM497.905 131.305V144.552H483.339L483.074 141.575L482.47 134.859L482.152 131.305H497.905V131.305Z" fill="#EBEBEB"/>
</g>
<path d="M339.376 347V324.51H319.688V347H309.264V296.619H319.688V315.828H339.376V296.619H349.835V347H339.376ZM396.524 296.619V305.54H381.451V347H370.855V305.54H355.714V296.619H396.524ZM412.35 347H402.54V296.619H417.853L427.013 336.233L436.104 296.619H451.246V347H441.437V312.923C441.437 311.943 441.448 310.576 441.471 308.821C441.493 307.044 441.505 305.677 441.505 304.72L431.969 347H421.749L412.281 304.72C412.281 305.677 412.293 307.044 412.315 308.821C412.338 310.576 412.35 311.943 412.35 312.923V347ZM461.021 296.619H471.549V337.942H496.5V347H461.021V296.619ZM516.769 336.814V347H506.412V336.814H516.769ZM506.412 321.399V311.214H516.769V321.399H506.412ZM339.376 427V404.51H319.688V427H309.264V376.619H319.688V395.828H339.376V376.619H349.835V427H339.376ZM369.146 389.744V427H359.269V389.744H369.146ZM369.146 376.312V385.301H359.269V376.312H369.146ZM412.521 376.688V427H403.053V421.839C401.663 424.049 400.079 425.656 398.302 426.658C396.524 427.661 394.314 428.162 391.671 428.162C387.319 428.162 383.65 426.408 380.665 422.898C377.703 419.367 376.222 414.843 376.222 409.329C376.222 402.972 377.68 397.97 380.597 394.324C383.536 390.678 387.455 388.855 392.354 388.855C394.61 388.855 396.616 389.357 398.37 390.359C400.125 391.339 401.549 392.706 402.643 394.461V376.688H412.521ZM386.271 408.611C386.271 412.052 386.954 414.798 388.321 416.849C389.666 418.922 391.716 419.959 394.474 419.959C397.231 419.959 399.327 418.934 400.763 416.883C402.198 414.832 402.916 412.177 402.916 408.919C402.916 404.362 401.765 401.103 399.464 399.144C398.051 397.959 396.41 397.366 394.542 397.366C391.694 397.366 389.597 398.449 388.253 400.613C386.931 402.755 386.271 405.421 386.271 408.611ZM455.313 376.688V427H445.846V421.839C444.456 424.049 442.872 425.656 441.095 426.658C439.317 427.661 437.107 428.162 434.464 428.162C430.112 428.162 426.443 426.408 423.458 422.898C420.496 419.367 419.015 414.843 419.015 409.329C419.015 402.972 420.473 397.97 423.39 394.324C426.329 390.678 430.248 388.855 435.147 388.855C437.403 388.855 439.409 389.357 441.163 390.359C442.918 391.339 444.342 392.706 445.436 394.461V376.688H455.313ZM429.063 408.611C429.063 412.052 429.747 414.798 431.114 416.849C432.459 418.922 434.509 419.959 437.267 419.959C440.024 419.959 442.12 418.934 443.556 416.883C444.991 414.832 445.709 412.177 445.709 408.919C445.709 404.362 444.558 401.103 442.257 399.144C440.844 397.959 439.203 397.366 437.335 397.366C434.487 397.366 432.39 398.449 431.046 400.613C429.724 402.755 429.063 405.421 429.063 408.611ZM496.09 416.062C495.839 418.273 494.688 420.517 492.638 422.796C489.448 426.419 484.981 428.23 479.239 428.23C474.5 428.23 470.318 426.704 466.695 423.65C463.072 420.597 461.261 415.63 461.261 408.748C461.261 402.299 462.89 397.355 466.148 393.914C469.43 390.473 473.679 388.753 478.897 388.753C481.996 388.753 484.788 389.334 487.271 390.496C489.755 391.658 491.806 393.493 493.424 395.999C494.882 398.209 495.828 400.773 496.261 403.689C496.511 405.398 496.614 407.859 496.568 411.072H471.07C471.207 414.809 472.381 417.43 474.591 418.934C475.935 419.868 477.553 420.335 479.444 420.335C481.45 420.335 483.079 419.765 484.332 418.626C485.016 418.011 485.619 417.156 486.144 416.062H496.09ZM486.451 404.646C486.292 402.072 485.506 400.123 484.093 398.802C482.703 397.457 480.971 396.785 478.897 396.785C476.642 396.785 474.887 397.492 473.634 398.904C472.403 400.317 471.629 402.231 471.31 404.646H486.451ZM520.699 396.956C517.395 396.956 515.128 398.357 513.897 401.16C513.259 402.641 512.94 404.533 512.94 406.834V427H503.233V389.812H512.633V395.247C513.886 393.333 515.071 391.954 516.188 391.111C518.193 389.607 520.733 388.855 523.81 388.855C527.66 388.855 530.805 389.869 533.243 391.897C535.704 393.903 536.935 397.241 536.935 401.912V427H526.954V404.339C526.954 402.379 526.692 400.875 526.168 399.827C525.211 397.913 523.388 396.956 520.699 396.956ZM344.4 484.988H319.928V497.942H347.818V507H309.64V456.619H346.588V465.54H319.928V476.238H344.4V484.988ZM355.44 456.619H365.182V507H355.44V456.619ZM406.607 496.062C406.357 498.273 405.206 500.517 403.155 502.796C399.965 506.419 395.499 508.23 389.757 508.23C385.017 508.23 380.836 506.704 377.213 503.65C373.59 500.597 371.778 495.63 371.778 488.748C371.778 482.299 373.408 477.355 376.666 473.914C379.947 470.473 384.197 468.753 389.415 468.753C392.514 468.753 395.305 469.334 397.789 470.496C400.273 471.658 402.324 473.493 403.941 475.999C405.4 478.209 406.345 480.773 406.778 483.689C407.029 485.398 407.132 487.859 407.086 491.072H381.588C381.725 494.809 382.898 497.43 385.108 498.934C386.453 499.868 388.071 500.335 389.962 500.335C391.967 500.335 393.596 499.765 394.85 498.626C395.533 498.011 396.137 497.156 396.661 496.062H406.607ZM396.969 484.646C396.809 482.072 396.023 480.123 394.61 478.802C393.22 477.457 391.489 476.785 389.415 476.785C387.159 476.785 385.405 477.492 384.151 478.904C382.921 480.317 382.146 482.231 381.827 484.646H396.969ZM434.601 479.998C433.78 478.198 432.174 477.298 429.781 477.298C427.001 477.298 425.133 478.198 424.176 479.998C423.652 481.023 423.39 482.55 423.39 484.578V507H413.512V469.812H422.979V475.247C424.187 473.31 425.326 471.932 426.397 471.111C428.289 469.653 430.738 468.924 433.746 468.924C436.594 468.924 438.896 469.55 440.65 470.804C442.063 471.966 443.134 473.458 443.863 475.281C445.139 473.094 446.723 471.487 448.614 470.462C450.619 469.437 452.853 468.924 455.313 468.924C456.954 468.924 458.572 469.243 460.167 469.881C461.762 470.519 463.209 471.635 464.508 473.23C465.556 474.529 466.262 476.124 466.627 478.016C466.855 479.269 466.969 481.103 466.969 483.519L466.9 507H456.92V483.279C456.92 481.867 456.692 480.704 456.236 479.793C455.37 478.061 453.775 477.195 451.451 477.195C448.762 477.195 446.905 478.312 445.88 480.545C445.356 481.73 445.094 483.154 445.094 484.817V507H435.284V484.817C435.284 482.607 435.056 481.001 434.601 479.998ZM507.848 496.062C507.597 498.273 506.446 500.517 504.396 502.796C501.205 506.419 496.739 508.23 490.997 508.23C486.257 508.23 482.076 506.704 478.453 503.65C474.83 500.597 473.019 495.63 473.019 488.748C473.019 482.299 474.648 477.355 477.906 473.914C481.188 470.473 485.437 468.753 490.655 468.753C493.754 468.753 496.546 469.334 499.029 470.496C501.513 471.658 503.564 473.493 505.182 475.999C506.64 478.209 507.586 480.773 508.019 483.689C508.269 485.398 508.372 487.859 508.326 491.072H482.828C482.965 494.809 484.138 497.43 486.349 498.934C487.693 499.868 489.311 500.335 491.202 500.335C493.207 500.335 494.837 499.765 496.09 498.626C496.773 498.011 497.377 497.156 497.901 496.062H507.848ZM498.209 484.646C498.049 482.072 497.263 480.123 495.851 478.802C494.461 477.457 492.729 476.785 490.655 476.785C488.399 476.785 486.645 477.492 485.392 478.904C484.161 480.317 483.386 482.231 483.067 484.646H498.209ZM532.457 476.956C529.153 476.956 526.886 478.357 525.655 481.16C525.017 482.641 524.698 484.533 524.698 486.834V507H514.991V469.812H524.391V475.247C525.644 473.333 526.829 471.954 527.945 471.111C529.951 469.607 532.491 468.855 535.567 468.855C539.418 468.855 542.563 469.869 545.001 471.897C547.462 473.903 548.692 477.241 548.692 481.912V507H538.712V484.339C538.712 482.379 538.45 480.875 537.926 479.827C536.969 477.913 535.146 476.956 532.457 476.956ZM574.771 500.062V507.342L570.157 507.513C565.554 507.672 562.41 506.875 560.724 505.12C559.63 504.004 559.083 502.283 559.083 499.959V477.024H553.888V470.086H559.083V459.695H568.722V470.086H574.771V477.024H568.722V496.712C568.722 498.239 568.915 499.196 569.303 499.583C569.69 499.948 570.875 500.13 572.857 500.13C573.154 500.13 573.461 500.13 573.78 500.13C574.122 500.107 574.452 500.084 574.771 500.062ZM606.695 471.453C609.612 473.322 611.287 476.535 611.72 481.092H601.979C601.842 479.839 601.489 478.847 600.919 478.118C599.848 476.797 598.025 476.136 595.45 476.136C593.331 476.136 591.816 476.466 590.904 477.127C590.016 477.788 589.571 478.562 589.571 479.451C589.571 480.568 590.05 481.377 591.007 481.878C591.964 482.402 595.348 483.302 601.158 484.578C605.032 485.49 607.937 486.868 609.874 488.714C611.788 490.582 612.745 492.918 612.745 495.721C612.745 499.412 611.367 502.431 608.609 504.778C605.875 507.103 601.637 508.265 595.895 508.265C590.038 508.265 585.709 507.034 582.906 504.573C580.126 502.09 578.736 498.934 578.736 495.105H588.614C588.819 496.837 589.264 498.068 589.947 498.797C591.155 500.096 593.388 500.745 596.646 500.745C598.561 500.745 600.076 500.46 601.192 499.891C602.332 499.321 602.901 498.466 602.901 497.327C602.901 496.233 602.446 495.402 601.534 494.832C600.623 494.262 597.239 493.283 591.383 491.893C587.167 490.844 584.194 489.534 582.462 487.962C580.73 486.412 579.864 484.179 579.864 481.263C579.864 477.822 581.209 474.871 583.897 472.41C586.609 469.926 590.414 468.685 595.313 468.685C599.962 468.685 603.756 469.607 606.695 471.453Z" fill="#E85859"/>
<defs>
<filter id="filter0_d_5189_11879" x="204" y="2.479" width="305.81" height="320" filterUnits="userSpaceOnUse" color-interpolation-filters="sRGB">
<feFlood flood-opacity="0" result="BackgroundImageFix"/>
<feColorMatrix in="SourceAlpha" type="matrix" values="0 0 0 0 0 0 0 0 0 0 0 0 0 0 0 0 0 0 127 0" result="hardAlpha"/>
<feOffset dx="20" dy="20"/>
<feGaussianBlur stdDeviation="50"/>
<feComposite in2="hardAlpha" operator="out"/>
<feColorMatrix type="matrix" values="0 0 0 0 0 0 0 0 0 0 0 0 0 0 0 0 0 0 0.25 0"/>
<feBlend mode="normal" in2="BackgroundImageFix" result="effect1_dropShadow_5189_11879"/>
<feBlend mode="normal" in="SourceGraphic" in2="effect1_dropShadow_5189_11879" result="shape"/>
</filter>
<filter id="filter1_d_5189_11879" x="365" y="3.34326" width="305.808" height="320" filterUnits="userSpaceOnUse" color-interpolation-filters="sRGB">
<feFlood flood-opacity="0" result="BackgroundImageFix"/>
<feColorMatrix in="SourceAlpha" type="matrix" values="0 0 0 0 0 0 0 0 0 0 0 0 0 0 0 0 0 0 127 0" result="hardAlpha"/>
<feOffset dx="20" dy="20"/>
<feGaussianBlur stdDeviation="50"/>
<feComposite in2="hardAlpha" operator="out"/>
<feColorMatrix type="matrix" values="0 0 0 0 0 0 0 0 0 0 0 0 0 0 0 0 0 0 0.25 0"/>
<feBlend mode="normal" in2="BackgroundImageFix" result="effect1_dropShadow_5189_11879"/>
<feBlend mode="normal" in="SourceGraphic" in2="effect1_dropShadow_5189_11879" result="shape"/>
</filter>
<linearGradient id="paint0_linear_5189_11879" x1="800" y1="0" x2="1.78814e-05" y2="600" gradientUnits="userSpaceOnUse">
<stop stop-color="#FFF4F4"/>
<stop offset="1" stop-color="#FFBFBF"/>
</linearGradient>
</defs>
</svg>
