<svg width="800" height="600" viewBox="0 0 800 600" fill="none" xmlns="http://www.w3.org/2000/svg">
<rect width="800" height="600" fill="url(#paint0_linear_5189_12059)"/>
<line x1="91" y1="218" x2="742" y2="218" stroke="#E85859" stroke-width="2"/>
<path d="M129.684 471H101.168V373.344H67.8672V354.398C76.6562 354.008 82.8086 353.422 86.3242 352.641C91.9232 351.404 96.4805 348.93 99.9961 345.219C102.405 342.68 104.228 339.294 105.465 335.062C106.181 332.523 106.539 330.635 106.539 329.398H129.684V471ZM253.414 374.906C245.992 385.453 239.775 396.326 234.762 407.523C230.79 416.312 227.21 427.055 224.02 439.75C220.829 452.445 219.234 462.862 219.234 471H190.328C191.174 445.609 199.508 419.21 215.328 391.801C225.549 374.809 234.111 362.96 241.012 356.254H170.406L170.797 331.254H270.797V353.031C266.63 357.133 260.836 364.424 253.414 374.906Z" fill="#E85859" fill-opacity="0.8"/>
<path d="M290 53H297.353V60.2653H304.08V53H311.433V75H304.08V67.6334H297.353V75H290V53ZM321.102 60.2961H314.63V53H334.932V60.2961H328.457V75H321.104L321.102 60.2961ZM338.155 53H345.826L350.542 60.7293L355.25 53H362.92V75H355.596V64.0947L350.538 71.9165H350.412L345.349 64.0947V74.9985H338.154L338.155 53ZM366.579 53H373.934V67.7274H384.274V74.9985H366.579V53Z" fill="#E85859"/>
<g filter="url(#filter0_d_5189_12059)">
<path d="M389.81 82.4785L380.171 190.466L336.841 202.479L293.63 190.483L284 82.4785H389.81Z" fill="#E44D26"/>
<path d="M336.905 193.296L371.918 183.589L380.156 91.3086H336.905V193.296Z" fill="#F16529"/>
<path d="M318.165 117.802H336.904V104.562H303.689L304.006 108.117L307.262 144.619H336.905V131.367H319.376L318.165 117.802ZM321.151 151.236H307.853L309.709 172.034L336.843 179.561L336.904 179.545V165.768L336.846 165.783L322.094 161.8L321.153 151.236H321.151Z" fill="#EBEBEB"/>
<path d="M336.859 144.611H353.17L351.633 161.791L336.858 165.778V179.559L364.012 172.031L364.211 169.793L367.324 134.92L367.646 131.363H336.859V144.611ZM336.859 117.768V117.801H368.852L369.121 114.823L369.725 108.102L370.041 104.548H336.859V117.762V117.768Z" fill="white"/>
</g>
<path d="M533.881 59.583H523.425L534.299 71.3827V77H511.903V70.4226H522.775L511.903 58.623V53H533.881V59.583V59.583ZM507.463 59.583H497.007L507.88 71.3827V77H485.483V70.4226H496.357L485.483 58.623V53H507.463V59.583V59.583ZM481.303 59.8521H470.02V70.1479H481.303V77H462V53H481.303V59.8521V59.8521Z" fill="#E85859"/>
<g filter="url(#filter1_d_5189_12059)">
<path d="M454.63 191.347L445 83.3438H550.808L541.17 191.329L497.839 203.344L454.63 191.347V191.347Z" fill="#1572B6"/>
<path d="M497.906 194.162L532.918 184.454L541.155 92.1758H497.906V194.162Z" fill="#33A9DC"/>
<path d="M497.905 131.304H515.433L516.644 117.741H497.905V104.494H531.121L530.803 108.048L527.548 144.55H497.905V131.304V131.304Z" fill="white"/>
<path d="M497.984 165.706L497.926 165.722L483.174 161.738L482.23 151.174H468.935L470.791 171.972L497.924 179.504L497.986 179.486V165.706H497.984Z" fill="#EBEBEB"/>
<path d="M514.307 143.989L512.711 161.729L497.938 165.717V179.498L525.093 171.972L525.293 169.734L527.598 143.989H514.307V143.989Z" fill="white"/>
<path d="M497.951 104.494V117.739H465.955L465.689 114.763L465.086 108.048L464.769 104.494H497.951ZM497.905 131.306V144.552H483.339L483.074 141.575L482.47 134.859L482.152 131.306H497.905V131.306Z" fill="#EBEBEB"/>
</g>
<path d="M344.879 303.24C341.119 306.681 336.311 308.401 330.455 308.401C323.209 308.401 317.512 306.077 313.365 301.429C309.218 296.757 307.145 290.354 307.145 282.22C307.145 273.424 309.503 266.645 314.22 261.883C318.321 257.736 323.539 255.662 329.874 255.662C338.351 255.662 344.549 258.442 348.468 264.002C350.632 267.124 351.795 270.257 351.954 273.401H341.427C340.743 270.986 339.866 269.163 338.795 267.933C336.881 265.745 334.044 264.651 330.284 264.651C326.456 264.651 323.437 266.201 321.227 269.3C319.016 272.376 317.911 276.74 317.911 282.391C317.911 288.042 319.073 292.28 321.397 295.105C323.744 297.908 326.718 299.31 330.318 299.31C334.01 299.31 336.824 298.102 338.761 295.687C339.832 294.388 340.72 292.439 341.427 289.842H351.852C350.94 295.333 348.616 299.799 344.879 303.24ZM378.204 299.72C380.688 299.72 382.704 299.446 384.254 298.899C387.193 297.851 388.663 295.903 388.663 293.055C388.663 291.391 387.934 290.104 386.476 289.192C385.017 288.304 382.727 287.518 379.605 286.834L374.273 285.638C369.033 284.453 365.41 283.165 363.404 281.775C360.009 279.451 358.312 275.817 358.312 270.872C358.312 266.36 359.952 262.612 363.233 259.627C366.515 256.642 371.334 255.149 377.691 255.149C383.001 255.149 387.524 256.562 391.261 259.388C395.021 262.19 396.992 266.269 397.174 271.624H387.057C386.874 268.593 385.553 266.44 383.092 265.164C381.451 264.321 379.412 263.899 376.974 263.899C374.262 263.899 372.097 264.446 370.479 265.54C368.862 266.634 368.053 268.16 368.053 270.12C368.053 271.92 368.85 273.265 370.445 274.153C371.471 274.746 373.658 275.441 377.008 276.238L385.689 278.323C389.495 279.235 392.366 280.454 394.303 281.98C397.311 284.35 398.814 287.78 398.814 292.269C398.814 296.871 397.049 300.7 393.517 303.753C390.007 306.784 385.04 308.299 378.614 308.299C372.052 308.299 366.891 306.806 363.131 303.821C359.371 300.813 357.491 296.689 357.491 291.448H367.54C367.859 293.75 368.486 295.47 369.42 296.609C371.129 298.683 374.057 299.72 378.204 299.72ZM424.894 299.72C427.377 299.72 429.394 299.446 430.943 298.899C433.883 297.851 435.353 295.903 435.353 293.055C435.353 291.391 434.623 290.104 433.165 289.192C431.707 288.304 429.417 287.518 426.295 286.834L420.963 285.638C415.722 284.453 412.099 283.165 410.094 281.775C406.699 279.451 405.001 275.817 405.001 270.872C405.001 266.36 406.642 262.612 409.923 259.627C413.204 256.642 418.023 255.149 424.381 255.149C429.69 255.149 434.213 256.562 437.95 259.388C441.71 262.19 443.681 266.269 443.863 271.624H433.746C433.564 268.593 432.242 266.44 429.781 265.164C428.141 264.321 426.101 263.899 423.663 263.899C420.951 263.899 418.787 264.446 417.169 265.54C415.551 266.634 414.742 268.16 414.742 270.12C414.742 271.92 415.54 273.265 417.135 274.153C418.16 274.746 420.348 275.441 423.697 276.238L432.379 278.323C436.184 279.235 439.055 280.454 440.992 281.98C444 284.35 445.504 287.78 445.504 292.269C445.504 296.871 443.738 300.7 440.206 303.753C436.697 306.784 431.729 308.299 425.304 308.299C418.741 308.299 413.58 306.806 409.82 303.821C406.061 300.813 404.181 296.689 404.181 291.448H414.229C414.549 293.75 415.175 295.47 416.109 296.609C417.818 298.683 420.746 299.72 424.894 299.72ZM466.251 296.814V307H455.895V296.814H466.251ZM455.895 281.399V271.214H466.251V281.399H455.895ZM309.332 336.619H319.859V377.942H344.811V387H309.332V336.619ZM352.74 353.777C355.315 350.496 359.736 348.855 366.002 348.855C370.081 348.855 373.704 349.664 376.871 351.282C380.038 352.9 381.622 355.953 381.622 360.442V377.532C381.622 378.717 381.645 380.153 381.69 381.839C381.759 383.115 381.952 383.981 382.271 384.437C382.59 384.892 383.069 385.268 383.707 385.564V387H373.111C372.815 386.248 372.61 385.542 372.496 384.881C372.382 384.22 372.291 383.468 372.223 382.625C370.878 384.083 369.329 385.325 367.574 386.351C365.478 387.558 363.108 388.162 360.465 388.162C357.092 388.162 354.301 387.205 352.091 385.291C349.903 383.354 348.81 380.62 348.81 377.088C348.81 372.508 350.576 369.192 354.107 367.142C356.044 366.025 358.893 365.228 362.652 364.749L365.968 364.339C367.768 364.111 369.055 363.826 369.83 363.484C371.22 362.892 371.915 361.969 371.915 360.716C371.915 359.189 371.38 358.141 370.309 357.571C369.26 356.979 367.711 356.683 365.66 356.683C363.359 356.683 361.729 357.252 360.772 358.392C360.089 359.235 359.633 360.374 359.405 361.81H350.006C350.211 358.551 351.122 355.874 352.74 353.777ZM359.986 379.959C360.898 380.711 362.014 381.087 363.336 381.087C365.432 381.087 367.358 380.472 369.112 379.241C370.89 378.011 371.812 375.766 371.881 372.508V368.885C371.266 369.272 370.639 369.591 370.001 369.842C369.386 370.07 368.531 370.286 367.438 370.491L365.25 370.901C363.199 371.266 361.729 371.71 360.841 372.234C359.337 373.123 358.585 374.502 358.585 376.37C358.585 378.034 359.052 379.23 359.986 379.959ZM405.445 377.225L413.136 349.744H423.492L410.709 386.385C408.248 393.449 406.3 397.824 404.864 399.51C403.429 401.219 400.558 402.073 396.251 402.073C395.385 402.073 394.69 402.062 394.166 402.039C393.642 402.039 392.856 402.005 391.808 401.937V394.144L393.038 394.212C393.995 394.257 394.907 394.223 395.772 394.109C396.638 393.995 397.368 393.733 397.96 393.323C398.53 392.936 399.054 392.127 399.532 390.896C400.034 389.666 400.239 388.914 400.147 388.641L386.476 349.744H397.311L405.445 377.225ZM460.338 354.461C463.482 358.403 465.055 363.063 465.055 368.44C465.055 373.909 463.482 378.592 460.338 382.488C457.193 386.362 452.42 388.299 446.017 388.299C439.614 388.299 434.84 386.362 431.695 382.488C428.551 378.592 426.979 373.909 426.979 368.44C426.979 363.063 428.551 358.403 431.695 354.461C434.84 350.519 439.614 348.548 446.017 348.548C452.42 348.548 457.193 350.519 460.338 354.461ZM445.982 356.785C443.134 356.785 440.935 357.799 439.386 359.827C437.859 361.832 437.096 364.703 437.096 368.44C437.096 372.177 437.859 375.06 439.386 377.088C440.935 379.116 443.134 380.13 445.982 380.13C448.831 380.13 451.018 379.116 452.545 377.088C454.072 375.06 454.835 372.177 454.835 368.44C454.835 364.703 454.072 361.832 452.545 359.827C451.018 357.799 448.831 356.785 445.982 356.785ZM495.953 381.736C495.862 381.85 495.634 382.192 495.27 382.762C494.905 383.331 494.472 383.833 493.971 384.266C492.444 385.633 490.963 386.567 489.527 387.068C488.115 387.57 486.451 387.82 484.537 387.82C479.023 387.82 475.309 385.838 473.395 381.873C472.324 379.686 471.788 376.461 471.788 372.2V349.744H481.769V372.2C481.769 374.319 482.019 375.914 482.521 376.985C483.409 378.877 485.152 379.822 487.75 379.822C491.077 379.822 493.355 378.478 494.586 375.789C495.224 374.331 495.543 372.405 495.543 370.013V349.744H505.421V387H495.953V381.736ZM531.91 380.062V387.342L527.296 387.513C522.693 387.672 519.549 386.875 517.862 385.12C516.769 384.004 516.222 382.283 516.222 379.959V357.024H511.026V350.086H516.222V339.695H525.86V350.086H531.91V357.024H525.86V376.712C525.86 378.239 526.054 379.196 526.441 379.583C526.829 379.948 528.014 380.13 529.996 380.13C530.292 380.13 530.6 380.13 530.919 380.13C531.261 380.107 531.591 380.084 531.91 380.062ZM568.346 401.116L565.919 397.801C564.347 395.796 562.672 392.811 560.895 388.846C557.727 381.759 556.144 374.786 556.144 367.928C556.144 361.684 557.477 355.486 560.143 349.334C561.943 345.141 564.575 340.63 568.038 335.799H575.387L573.302 339.627C570.431 344.891 568.437 350.405 567.32 356.17C566.591 359.952 566.227 364.077 566.227 368.543C566.227 375.516 567.241 381.93 569.269 387.786C570.453 391.25 572.55 395.693 575.558 401.116H568.346ZM602.901 387H592.921V352.82H581.266V346.189C584.342 346.053 586.495 345.848 587.726 345.574C589.685 345.141 591.28 344.275 592.511 342.977C593.354 342.088 593.992 340.903 594.425 339.422C594.675 338.533 594.801 337.872 594.801 337.439H602.901V387ZM625.733 397.801L623.307 401.116H616.095C619.103 395.693 621.199 391.25 622.384 387.786C624.412 381.93 625.426 375.516 625.426 368.543C625.426 364.077 625.061 359.952 624.332 356.17C623.215 350.405 621.222 344.891 618.351 339.627L616.266 335.799H623.614C627.078 340.63 629.71 345.141 631.51 349.334C634.176 355.486 635.509 361.684 635.509 367.928C635.509 374.786 633.925 381.759 630.758 388.846C628.98 392.811 627.306 395.796 625.733 397.801ZM657.999 363.689H697.203V371.141H657.999V363.689ZM332.335 467H309.503V416.619H333.976C340.151 416.71 344.526 418.499 347.101 421.985C348.65 424.127 349.425 426.691 349.425 429.676C349.425 432.752 348.65 435.224 347.101 437.093C346.235 438.141 344.959 439.098 343.272 439.964C345.847 440.898 347.784 442.379 349.083 444.407C350.405 446.435 351.065 448.896 351.065 451.79C351.065 454.775 350.313 457.452 348.81 459.822C347.853 461.395 346.656 462.716 345.221 463.787C343.603 465.018 341.689 465.861 339.479 466.316C337.291 466.772 334.91 467 332.335 467ZM332.096 444.817H319.552V458.25H331.925C334.135 458.25 335.855 457.954 337.086 457.361C339.319 456.268 340.436 454.171 340.436 451.072C340.436 448.452 339.353 446.652 337.188 445.672C335.981 445.125 334.283 444.84 332.096 444.817ZM337.325 435.213C338.692 434.393 339.376 432.923 339.376 430.804C339.376 428.457 338.465 426.907 336.642 426.155C335.069 425.631 333.064 425.369 330.626 425.369H319.552V436.478H331.925C334.135 436.478 335.935 436.056 337.325 435.213ZM360.533 433.777C363.108 430.496 367.529 428.855 373.795 428.855C377.874 428.855 381.497 429.664 384.664 431.282C387.831 432.9 389.415 435.953 389.415 440.442V457.532C389.415 458.717 389.438 460.153 389.483 461.839C389.552 463.115 389.745 463.981 390.064 464.437C390.383 464.892 390.862 465.268 391.5 465.564V467H380.904C380.608 466.248 380.403 465.542 380.289 464.881C380.175 464.22 380.084 463.468 380.016 462.625C378.671 464.083 377.122 465.325 375.367 466.351C373.271 467.558 370.901 468.162 368.258 468.162C364.885 468.162 362.094 467.205 359.884 465.291C357.696 463.354 356.603 460.62 356.603 457.088C356.603 452.508 358.368 449.192 361.9 447.142C363.837 446.025 366.686 445.228 370.445 444.749L373.761 444.339C375.561 444.111 376.848 443.826 377.623 443.484C379.013 442.892 379.708 441.969 379.708 440.716C379.708 439.189 379.173 438.141 378.102 437.571C377.053 436.979 375.504 436.683 373.453 436.683C371.152 436.683 369.522 437.252 368.565 438.392C367.882 439.235 367.426 440.374 367.198 441.81H357.799C358.004 438.551 358.915 435.874 360.533 433.777ZM367.779 459.959C368.691 460.711 369.807 461.087 371.129 461.087C373.225 461.087 375.151 460.472 376.905 459.241C378.683 458.011 379.605 455.766 379.674 452.508V448.885C379.059 449.272 378.432 449.591 377.794 449.842C377.179 450.07 376.324 450.286 375.23 450.491L373.043 450.901C370.992 451.266 369.522 451.71 368.634 452.234C367.13 453.123 366.378 454.502 366.378 456.37C366.378 458.034 366.845 459.23 367.779 459.959ZM423.766 431.453C426.682 433.322 428.357 436.535 428.79 441.092H419.049C418.912 439.839 418.559 438.847 417.989 438.118C416.918 436.797 415.095 436.136 412.521 436.136C410.401 436.136 408.886 436.466 407.975 437.127C407.086 437.788 406.642 438.562 406.642 439.451C406.642 440.568 407.12 441.377 408.077 441.878C409.034 442.402 412.418 443.302 418.229 444.578C422.102 445.49 425.007 446.868 426.944 448.714C428.858 450.582 429.815 452.918 429.815 455.721C429.815 459.412 428.437 462.431 425.68 464.778C422.945 467.103 418.707 468.265 412.965 468.265C407.109 468.265 402.779 467.034 399.977 464.573C397.197 462.09 395.807 458.934 395.807 455.105H405.685C405.89 456.837 406.334 458.068 407.018 458.797C408.225 460.096 410.458 460.745 413.717 460.745C415.631 460.745 417.146 460.46 418.263 459.891C419.402 459.321 419.972 458.466 419.972 457.327C419.972 456.233 419.516 455.402 418.604 454.832C417.693 454.262 414.309 453.283 408.453 451.893C404.238 450.844 401.264 449.534 399.532 447.962C397.8 446.412 396.935 444.179 396.935 441.263C396.935 437.822 398.279 434.871 400.968 432.41C403.679 429.926 407.485 428.685 412.384 428.685C417.032 428.685 420.826 429.607 423.766 431.453ZM447.076 429.744V467H437.198V429.744H447.076ZM447.076 416.312V425.301H437.198V416.312H447.076ZM488.775 443.108H478.795C478.613 441.718 478.146 440.465 477.394 439.349C476.3 437.845 474.602 437.093 472.301 437.093C469.02 437.093 466.775 438.722 465.567 441.98C464.929 443.712 464.61 446.014 464.61 448.885C464.61 451.619 464.929 453.818 465.567 455.481C466.729 458.58 468.917 460.13 472.13 460.13C474.409 460.13 476.026 459.515 476.983 458.284C477.94 457.054 478.521 455.459 478.727 453.499H488.673C488.445 456.461 487.374 459.264 485.46 461.907C482.407 466.168 477.883 468.299 471.891 468.299C465.898 468.299 461.489 466.521 458.663 462.967C455.838 459.412 454.425 454.798 454.425 449.124C454.425 442.721 455.986 437.742 459.107 434.188C462.229 430.633 466.536 428.855 472.027 428.855C476.699 428.855 480.515 429.904 483.478 432C486.463 434.096 488.229 437.799 488.775 443.108ZM344.879 543.24C341.119 546.681 336.311 548.401 330.455 548.401C323.209 548.401 317.512 546.077 313.365 541.429C309.218 536.757 307.145 530.354 307.145 522.22C307.145 513.424 309.503 506.645 314.22 501.883C318.321 497.736 323.539 495.662 329.874 495.662C338.351 495.662 344.549 498.442 348.468 504.002C350.632 507.124 351.795 510.257 351.954 513.401H341.427C340.743 510.986 339.866 509.163 338.795 507.933C336.881 505.745 334.044 504.651 330.284 504.651C326.456 504.651 323.437 506.201 321.227 509.3C319.016 512.376 317.911 516.74 317.911 522.391C317.911 528.042 319.073 532.28 321.397 535.105C323.744 537.908 326.718 539.31 330.318 539.31C334.01 539.31 336.824 538.102 338.761 535.687C339.832 534.388 340.72 532.439 341.427 529.842H351.852C350.94 535.333 348.616 539.799 344.879 543.24ZM390.201 514.461C393.346 518.403 394.918 523.063 394.918 528.44C394.918 533.909 393.346 538.592 390.201 542.488C387.057 546.362 382.283 548.299 375.88 548.299C369.477 548.299 364.703 546.362 361.559 542.488C358.414 538.592 356.842 533.909 356.842 528.44C356.842 523.063 358.414 518.403 361.559 514.461C364.703 510.519 369.477 508.548 375.88 508.548C382.283 508.548 387.057 510.519 390.201 514.461ZM375.846 516.785C372.997 516.785 370.799 517.799 369.249 519.827C367.722 521.832 366.959 524.703 366.959 528.44C366.959 532.177 367.722 535.06 369.249 537.088C370.799 539.116 372.997 540.13 375.846 540.13C378.694 540.13 380.882 539.116 382.408 537.088C383.935 535.06 384.698 532.177 384.698 528.44C384.698 524.703 383.935 521.832 382.408 519.827C380.882 517.799 378.694 516.785 375.846 516.785ZM419.459 516.956C416.155 516.956 413.888 518.357 412.657 521.16C412.019 522.641 411.7 524.533 411.7 526.834V547H401.993V509.812H411.393V515.247C412.646 513.333 413.831 511.954 414.947 511.111C416.952 509.607 419.493 508.855 422.569 508.855C426.42 508.855 429.565 509.869 432.003 511.897C434.464 513.903 435.694 517.241 435.694 521.912V547H425.714V524.339C425.714 522.379 425.452 520.875 424.928 519.827C423.971 517.913 422.148 516.956 419.459 516.956ZM476.949 523.108H466.969C466.786 521.718 466.319 520.465 465.567 519.349C464.474 517.845 462.776 517.093 460.475 517.093C457.193 517.093 454.949 518.722 453.741 521.98C453.103 523.712 452.784 526.014 452.784 528.885C452.784 531.619 453.103 533.818 453.741 535.481C454.903 538.58 457.091 540.13 460.304 540.13C462.582 540.13 464.2 539.515 465.157 538.284C466.114 537.054 466.695 535.459 466.9 533.499H476.847C476.619 536.461 475.548 539.264 473.634 541.907C470.58 546.168 466.057 548.299 460.064 548.299C454.072 548.299 449.662 546.521 446.837 542.967C444.011 539.412 442.599 534.798 442.599 529.124C442.599 522.721 444.16 517.742 447.281 514.188C450.403 510.633 454.71 508.855 460.201 508.855C464.872 508.855 468.689 509.904 471.651 512C474.636 514.096 476.402 517.799 476.949 523.108ZM515.572 536.062C515.322 538.273 514.171 540.517 512.12 542.796C508.93 546.419 504.464 548.23 498.722 548.23C493.982 548.23 489.801 546.704 486.178 543.65C482.555 540.597 480.743 535.63 480.743 528.748C480.743 522.299 482.372 517.355 485.631 513.914C488.912 510.473 493.162 508.753 498.38 508.753C501.479 508.753 504.27 509.334 506.754 510.496C509.238 511.658 511.288 513.493 512.906 515.999C514.365 518.209 515.31 520.773 515.743 523.689C515.994 525.398 516.096 527.859 516.051 531.072H490.553C490.689 534.809 491.863 537.43 494.073 538.934C495.418 539.868 497.035 540.335 498.927 540.335C500.932 540.335 502.561 539.765 503.814 538.626C504.498 538.011 505.102 537.156 505.626 536.062H515.572ZM505.934 524.646C505.774 522.072 504.988 520.123 503.575 518.802C502.185 517.457 500.453 516.785 498.38 516.785C496.124 516.785 494.369 517.492 493.116 518.904C491.886 520.317 491.111 522.231 490.792 524.646H505.934ZM553.854 513.743C556.861 516.956 558.365 521.673 558.365 527.894C558.365 534.456 556.884 539.458 553.922 542.898C550.982 546.339 547.188 548.06 542.54 548.06C539.578 548.06 537.117 547.319 535.157 545.838C534.086 545.018 533.038 543.821 532.013 542.249V561.663H522.374V509.744H531.705V515.247C532.753 513.629 533.87 512.353 535.055 511.419C537.219 509.756 539.794 508.924 542.779 508.924C547.132 508.924 550.823 510.53 553.854 513.743ZM548.316 528.372C548.316 525.501 547.656 522.96 546.334 520.75C545.035 518.54 542.916 517.435 539.977 517.435C536.445 517.435 534.018 519.109 532.696 522.459C532.013 524.236 531.671 526.492 531.671 529.227C531.671 533.556 532.822 536.598 535.123 538.353C536.49 539.378 538.108 539.891 539.977 539.891C542.688 539.891 544.75 538.842 546.163 536.746C547.599 534.65 548.316 531.858 548.316 528.372ZM582.496 540.062V547.342L577.882 547.513C573.279 547.672 570.134 546.875 568.448 545.12C567.354 544.004 566.808 542.283 566.808 539.959V517.024H561.612V510.086H566.808V499.695H576.446V510.086H582.496V517.024H576.446V536.712C576.446 538.239 576.64 539.196 577.027 539.583C577.415 539.948 578.6 540.13 580.582 540.13C580.878 540.13 581.186 540.13 581.505 540.13C581.847 540.107 582.177 540.084 582.496 540.062Z" fill="#E85859"/>
<defs>
<filter id="filter0_d_5189_12059" x="204" y="2.47852" width="305.81" height="320" filterUnits="userSpaceOnUse" color-interpolation-filters="sRGB">
<feFlood flood-opacity="0" result="BackgroundImageFix"/>
<feColorMatrix in="SourceAlpha" type="matrix" values="0 0 0 0 0 0 0 0 0 0 0 0 0 0 0 0 0 0 127 0" result="hardAlpha"/>
<feOffset dx="20" dy="20"/>
<feGaussianBlur stdDeviation="50"/>
<feComposite in2="hardAlpha" operator="out"/>
<feColorMatrix type="matrix" values="0 0 0 0 0 0 0 0 0 0 0 0 0 0 0 0 0 0 0.25 0"/>
<feBlend mode="normal" in2="BackgroundImageFix" result="effect1_dropShadow_5189_12059"/>
<feBlend mode="normal" in="SourceGraphic" in2="effect1_dropShadow_5189_12059" result="shape"/>
</filter>
<filter id="filter1_d_5189_12059" x="365" y="3.34375" width="305.808" height="320" filterUnits="userSpaceOnUse" color-interpolation-filters="sRGB">
<feFlood flood-opacity="0" result="BackgroundImageFix"/>
<feColorMatrix in="SourceAlpha" type="matrix" values="0 0 0 0 0 0 0 0 0 0 0 0 0 0 0 0 0 0 127 0" result="hardAlpha"/>
<feOffset dx="20" dy="20"/>
<feGaussianBlur stdDeviation="50"/>
<feComposite in2="hardAlpha" operator="out"/>
<feColorMatrix type="matrix" values="0 0 0 0 0 0 0 0 0 0 0 0 0 0 0 0 0 0 0.25 0"/>
<feBlend mode="normal" in2="BackgroundImageFix" result="effect1_dropShadow_5189_12059"/>
<feBlend mode="normal" in="SourceGraphic" in2="effect1_dropShadow_5189_12059" result="shape"/>
</filter>
<linearGradient id="paint0_linear_5189_12059" x1="800" y1="0" x2="1.78814e-05" y2="600" gradientUnits="userSpaceOnUse">
<stop stop-color="#FFF4F4"/>
<stop offset="1" stop-color="#FFBFBF"/>
</linearGradient>
</defs>
</svg>
