<svg width="800" height="600" viewBox="0 0 800 600" fill="none" xmlns="http://www.w3.org/2000/svg">
<rect width="800" height="600" fill="url(#paint0_linear_5189_11789)"/>
<line x1="91" y1="218" x2="742" y2="218" stroke="#E85859" stroke-width="2"/>
<path d="M318.729 328.885H308.03V347H297.571V296.619H319.515C324.573 296.619 328.606 297.918 331.614 300.516C334.622 303.113 336.126 307.135 336.126 312.581C336.126 318.528 334.622 322.732 331.614 325.193C328.606 327.654 324.311 328.885 318.729 328.885ZM323.65 318.392C325.018 317.184 325.701 315.27 325.701 312.649C325.701 310.029 325.006 308.16 323.616 307.044C322.249 305.927 320.324 305.369 317.84 305.369H308.03V320.203H317.84C320.324 320.203 322.26 319.599 323.65 318.392ZM361.966 318.733C358.047 318.733 355.415 320.009 354.07 322.562C353.318 323.997 352.942 326.207 352.942 329.192V347H343.133V309.744H352.43V316.238C353.934 313.755 355.244 312.057 356.36 311.146C358.183 309.619 360.553 308.855 363.47 308.855C363.652 308.855 363.8 308.867 363.914 308.89C364.051 308.89 364.336 308.901 364.769 308.924V318.904C364.153 318.836 363.606 318.79 363.128 318.768C362.649 318.745 362.262 318.733 361.966 318.733ZM402.4 336.062C402.15 338.273 400.999 340.517 398.948 342.796C395.758 346.419 391.292 348.23 385.55 348.23C380.81 348.23 376.629 346.704 373.006 343.65C369.383 340.597 367.571 335.63 367.571 328.748C367.571 322.299 369.201 317.355 372.459 313.914C375.74 310.473 379.99 308.753 385.208 308.753C388.307 308.753 391.098 309.334 393.582 310.496C396.066 311.658 398.117 313.493 399.734 315.999C401.193 318.209 402.138 320.773 402.571 323.689C402.822 325.398 402.924 327.859 402.879 331.072H377.381C377.518 334.809 378.691 337.43 380.901 338.934C382.246 339.868 383.864 340.335 385.755 340.335C387.76 340.335 389.389 339.765 390.643 338.626C391.326 338.011 391.93 337.156 392.454 336.062H402.4ZM392.762 324.646C392.602 322.072 391.816 320.123 390.403 318.802C389.013 317.457 387.282 316.785 385.208 316.785C382.952 316.785 381.198 317.492 379.944 318.904C378.714 320.317 377.939 322.231 377.62 324.646H392.762ZM440.682 313.743C443.689 316.956 445.193 321.673 445.193 327.894C445.193 334.456 443.712 339.458 440.75 342.898C437.811 346.339 434.017 348.06 429.368 348.06C426.406 348.06 423.945 347.319 421.985 345.838C420.914 345.018 419.866 343.821 418.841 342.249V361.663H409.202V309.744H418.533V315.247C419.581 313.629 420.698 312.353 421.883 311.419C424.048 309.756 426.622 308.924 429.607 308.924C433.96 308.924 437.651 310.53 440.682 313.743ZM435.145 328.372C435.145 325.501 434.484 322.96 433.162 320.75C431.863 318.54 429.744 317.435 426.805 317.435C423.273 317.435 420.846 319.109 419.524 322.459C418.841 324.236 418.499 326.492 418.499 329.227C418.499 333.556 419.65 336.598 421.951 338.353C423.318 339.378 424.936 339.891 426.805 339.891C429.516 339.891 431.578 338.842 432.991 336.746C434.427 334.65 435.145 331.858 435.145 328.372ZM453.67 313.777C456.245 310.496 460.665 308.855 466.932 308.855C471.01 308.855 474.633 309.664 477.801 311.282C480.968 312.9 482.552 315.953 482.552 320.442V337.532C482.552 338.717 482.575 340.153 482.62 341.839C482.688 343.115 482.882 343.981 483.201 344.437C483.52 344.892 483.999 345.268 484.637 345.564V347H474.041C473.745 346.248 473.54 345.542 473.426 344.881C473.312 344.22 473.221 343.468 473.152 342.625C471.808 344.083 470.258 345.325 468.504 346.351C466.408 347.558 464.038 348.162 461.395 348.162C458.022 348.162 455.231 347.205 453.021 345.291C450.833 343.354 449.739 340.62 449.739 337.088C449.739 332.508 451.505 329.192 455.037 327.142C456.974 326.025 459.822 325.228 463.582 324.749L466.897 324.339C468.698 324.111 469.985 323.826 470.76 323.484C472.15 322.892 472.845 321.969 472.845 320.716C472.845 319.189 472.309 318.141 471.238 317.571C470.19 316.979 468.641 316.683 466.59 316.683C464.288 316.683 462.659 317.252 461.702 318.392C461.019 319.235 460.563 320.374 460.335 321.81H450.936C451.141 318.551 452.052 315.874 453.67 313.777ZM460.916 339.959C461.827 340.711 462.944 341.087 464.266 341.087C466.362 341.087 468.287 340.472 470.042 339.241C471.819 338.011 472.742 335.766 472.811 332.508V328.885C472.195 329.272 471.569 329.591 470.931 329.842C470.315 330.07 469.461 330.286 468.367 330.491L466.18 330.901C464.129 331.266 462.659 331.71 461.771 332.234C460.267 333.123 459.515 334.502 459.515 336.37C459.515 338.034 459.982 339.23 460.916 339.959ZM509.964 318.733C506.045 318.733 503.413 320.009 502.068 322.562C501.316 323.997 500.94 326.207 500.94 329.192V347H491.131V309.744H500.428V316.238C501.932 313.755 503.242 312.057 504.358 311.146C506.181 309.619 508.551 308.855 511.468 308.855C511.65 308.855 511.798 308.867 511.912 308.89C512.049 308.89 512.334 308.901 512.767 308.924V318.904C512.151 318.836 511.604 318.79 511.126 318.768C510.647 318.745 510.26 318.733 509.964 318.733ZM528.523 309.744V347H518.646V309.744H528.523ZM528.523 296.312V305.301H518.646V296.312H528.523ZM555.525 316.956C552.221 316.956 549.954 318.357 548.724 321.16C548.086 322.641 547.767 324.533 547.767 326.834V347H538.06V309.812H547.459V315.247C548.712 313.333 549.897 311.954 551.014 311.111C553.019 309.607 555.56 308.855 558.636 308.855C562.487 308.855 565.631 309.869 568.069 311.897C570.53 313.903 571.761 317.241 571.761 321.912V347H561.78V324.339C561.78 322.379 561.518 320.875 560.994 319.827C560.037 317.913 558.214 316.956 555.525 316.956ZM591.312 353.528C592.36 354.417 594.126 354.861 596.609 354.861C600.118 354.861 602.465 353.688 603.65 351.341C604.425 349.837 604.812 347.308 604.812 343.753V341.36C603.878 342.955 602.876 344.152 601.805 344.949C599.868 346.43 597.35 347.171 594.251 347.171C589.466 347.171 585.638 345.496 582.767 342.146C579.918 338.774 578.494 334.217 578.494 328.475C578.494 322.938 579.873 318.289 582.63 314.529C585.387 310.747 589.295 308.855 594.354 308.855C596.222 308.855 597.851 309.14 599.241 309.71C601.611 310.69 603.525 312.49 604.983 315.11V309.744H614.451V345.086C614.451 349.894 613.642 353.517 612.024 355.955C609.244 360.148 603.912 362.244 596.028 362.244C591.266 362.244 587.381 361.31 584.373 359.441C581.365 357.573 579.702 354.782 579.383 351.067H589.979C590.252 352.207 590.696 353.027 591.312 353.528ZM589.671 334.285C590.993 337.43 593.362 339.002 596.78 339.002C599.059 339.002 600.984 338.147 602.557 336.438C604.129 334.707 604.915 331.961 604.915 328.201C604.915 324.669 604.163 321.98 602.659 320.135C601.178 318.289 599.184 317.366 596.678 317.366C593.26 317.366 590.901 318.973 589.603 322.186C588.919 323.895 588.577 326.002 588.577 328.509C588.577 330.674 588.942 332.599 589.671 334.285ZM660.525 296.312V304.241C659.979 304.173 659.056 304.127 657.757 304.104C656.481 304.059 655.592 304.344 655.091 304.959C654.612 305.551 654.373 306.212 654.373 306.941V310.086H660.765V316.956H654.373V347H644.666V316.956H639.231V310.086H644.563V307.693C644.563 303.706 645.236 300.96 646.58 299.456C647.993 297.223 651.399 296.106 656.8 296.106C657.415 296.106 657.973 296.129 658.475 296.175C658.976 296.198 659.66 296.243 660.525 296.312ZM697.439 314.461C700.584 318.403 702.156 323.063 702.156 328.44C702.156 333.909 700.584 338.592 697.439 342.488C694.295 346.362 689.521 348.299 683.118 348.299C676.715 348.299 671.941 346.362 668.797 342.488C665.652 338.592 664.08 333.909 664.08 328.44C664.08 323.063 665.652 318.403 668.797 314.461C671.941 310.519 676.715 308.548 683.118 308.548C689.521 308.548 694.295 310.519 697.439 314.461ZM683.084 316.785C680.236 316.785 678.037 317.799 676.487 319.827C674.961 321.832 674.197 324.703 674.197 328.44C674.197 332.177 674.961 335.06 676.487 337.088C678.037 339.116 680.236 340.13 683.084 340.13C685.932 340.13 688.12 339.116 689.646 337.088C691.173 335.06 691.937 332.177 691.937 328.44C691.937 324.703 691.173 321.832 689.646 319.827C688.12 317.799 685.932 316.785 683.084 316.785ZM727.894 318.733C723.974 318.733 721.342 320.009 719.998 322.562C719.246 323.997 718.87 326.207 718.87 329.192V347H709.061V309.744H718.357V316.238C719.861 313.755 721.172 312.057 722.288 311.146C724.111 309.619 726.481 308.855 729.397 308.855C729.58 308.855 729.728 308.867 729.842 308.89C729.979 308.89 730.263 308.901 730.696 308.924V318.904C730.081 318.836 729.534 318.79 729.056 318.768C728.577 318.745 728.19 318.733 727.894 318.733ZM346.346 376.619H357.044L342.859 427H332.811L326.727 397.537L324.949 387.796L323.172 397.537L317.088 427H307.312L293.025 376.619H304.202L310.867 405.467L312.303 413.499L313.772 405.638L319.446 376.619H330.555L336.536 405.467L338.074 413.499L339.612 405.774L346.346 376.619ZM393.309 416.062C393.058 418.273 391.907 420.517 389.856 422.796C386.666 426.419 382.2 428.23 376.458 428.23C371.718 428.23 367.537 426.704 363.914 423.65C360.291 420.597 358.479 415.63 358.479 408.748C358.479 402.299 360.109 397.355 363.367 393.914C366.648 390.473 370.898 388.753 376.116 388.753C379.215 388.753 382.007 389.334 384.49 390.496C386.974 391.658 389.025 393.493 390.643 395.999C392.101 398.209 393.047 400.773 393.479 403.689C393.73 405.398 393.833 407.859 393.787 411.072H368.289C368.426 414.809 369.599 417.43 371.81 418.934C373.154 419.868 374.772 420.335 376.663 420.335C378.668 420.335 380.298 419.765 381.551 418.626C382.234 418.011 382.838 417.156 383.362 416.062H393.309ZM383.67 404.646C383.51 402.072 382.724 400.123 381.312 398.802C379.922 397.457 378.19 396.785 376.116 396.785C373.86 396.785 372.106 397.492 370.853 398.904C369.622 400.317 368.847 402.231 368.528 404.646H383.67ZM420.618 427.991C417.542 427.991 415.07 427.376 413.201 426.146C412.085 425.416 410.877 424.14 409.578 422.317V427H400.042V376.688H409.749V394.598C410.979 392.866 412.335 391.544 413.816 390.633C415.571 389.493 417.804 388.924 420.516 388.924C425.415 388.924 429.243 390.69 432 394.222C434.78 397.754 436.17 402.311 436.17 407.894C436.17 413.681 434.803 418.478 432.068 422.283C429.334 426.089 425.517 427.991 420.618 427.991ZM425.95 408.919C425.95 406.276 425.608 404.088 424.925 402.356C423.626 399.075 421.233 397.435 417.747 397.435C414.215 397.435 411.788 399.041 410.467 402.254C409.783 403.963 409.441 406.173 409.441 408.885C409.441 412.075 410.148 414.718 411.561 416.814C412.973 418.911 415.127 419.959 418.021 419.959C420.527 419.959 422.475 418.945 423.865 416.917C425.255 414.889 425.95 412.223 425.95 408.919ZM468.846 391.453C471.762 393.322 473.437 396.535 473.87 401.092H464.129C463.992 399.839 463.639 398.847 463.069 398.118C461.998 396.797 460.175 396.136 457.601 396.136C455.481 396.136 453.966 396.466 453.055 397.127C452.166 397.788 451.722 398.562 451.722 399.451C451.722 400.568 452.2 401.377 453.157 401.878C454.114 402.402 457.498 403.302 463.309 404.578C467.182 405.49 470.088 406.868 472.024 408.714C473.938 410.582 474.896 412.918 474.896 415.721C474.896 419.412 473.517 422.431 470.76 424.778C468.025 427.103 463.787 428.265 458.045 428.265C452.189 428.265 447.859 427.034 445.057 424.573C442.277 422.09 440.887 418.934 440.887 415.105H450.765C450.97 416.837 451.414 418.068 452.098 418.797C453.305 420.096 455.538 420.745 458.797 420.745C460.711 420.745 462.226 420.46 463.343 419.891C464.482 419.321 465.052 418.466 465.052 417.327C465.052 416.233 464.596 415.402 463.685 414.832C462.773 414.262 459.389 413.283 453.533 411.893C449.318 410.844 446.344 409.534 444.612 407.962C442.881 406.412 442.015 404.179 442.015 401.263C442.015 397.822 443.359 394.871 446.048 392.41C448.759 389.926 452.565 388.685 457.464 388.685C462.112 388.685 465.906 389.607 468.846 391.453ZM492.156 389.744V427H482.278V389.744H492.156ZM492.156 376.312V385.301H482.278V376.312H492.156ZM518.68 420.062V427.342L514.065 427.513C509.463 427.672 506.318 426.875 504.632 425.12C503.538 424.004 502.991 422.283 502.991 419.959V397.024H497.796V390.086H502.991V379.695H512.63V390.086H518.68V397.024H512.63V416.712C512.63 418.239 512.824 419.196 513.211 419.583C513.598 419.948 514.783 420.13 516.766 420.13C517.062 420.13 517.369 420.13 517.688 420.13C518.03 420.107 518.361 420.084 518.68 420.062ZM556.824 416.062C556.574 418.273 555.423 420.517 553.372 422.796C550.182 426.419 545.716 428.23 539.974 428.23C535.234 428.23 531.053 426.704 527.43 423.65C523.807 420.597 521.995 415.63 521.995 408.748C521.995 402.299 523.624 397.355 526.883 393.914C530.164 390.473 534.414 388.753 539.632 388.753C542.731 388.753 545.522 389.334 548.006 390.496C550.49 391.658 552.54 393.493 554.158 395.999C555.617 398.209 556.562 400.773 556.995 403.689C557.246 405.398 557.348 407.859 557.303 411.072H531.805C531.941 414.809 533.115 417.43 535.325 418.934C536.67 419.868 538.287 420.335 540.179 420.335C542.184 420.335 543.813 419.765 545.066 418.626C545.75 418.011 546.354 417.156 546.878 416.062H556.824ZM547.186 404.646C547.026 402.072 546.24 400.123 544.827 398.802C543.437 397.457 541.705 396.785 539.632 396.785C537.376 396.785 535.621 397.492 534.368 398.904C533.138 400.317 532.363 402.231 532.044 404.646H547.186ZM332.879 503.24C329.119 506.681 324.311 508.401 318.455 508.401C311.209 508.401 305.512 506.077 301.365 501.429C297.218 496.757 295.145 490.354 295.145 482.22C295.145 473.424 297.503 466.645 302.22 461.883C306.321 457.736 311.539 455.662 317.874 455.662C326.351 455.662 332.549 458.442 336.468 464.002C338.632 467.124 339.795 470.257 339.954 473.401H329.427C328.743 470.986 327.866 469.163 326.795 467.933C324.881 465.745 322.044 464.651 318.284 464.651C314.456 464.651 311.437 466.201 309.227 469.3C307.016 472.376 305.911 476.74 305.911 482.391C305.911 488.042 307.073 492.28 309.397 495.105C311.744 497.908 314.718 499.31 318.318 499.31C322.01 499.31 324.824 498.102 326.761 495.687C327.832 494.388 328.72 492.439 329.427 489.842H339.852C338.94 495.333 336.616 499.799 332.879 503.24ZM378.201 474.461C381.346 478.403 382.918 483.063 382.918 488.44C382.918 493.909 381.346 498.592 378.201 502.488C375.057 506.362 370.283 508.299 363.88 508.299C357.477 508.299 352.703 506.362 349.559 502.488C346.414 498.592 344.842 493.909 344.842 488.44C344.842 483.063 346.414 478.403 349.559 474.461C352.703 470.519 357.477 468.548 363.88 468.548C370.283 468.548 375.057 470.519 378.201 474.461ZM363.846 476.785C360.997 476.785 358.799 477.799 357.249 479.827C355.722 481.832 354.959 484.703 354.959 488.44C354.959 492.177 355.722 495.06 357.249 497.088C358.799 499.116 360.997 500.13 363.846 500.13C366.694 500.13 368.882 499.116 370.408 497.088C371.935 495.06 372.698 492.177 372.698 488.44C372.698 484.703 371.935 481.832 370.408 479.827C368.882 477.799 366.694 476.785 363.846 476.785ZM423.831 456.688V507H414.363V501.839C412.973 504.049 411.39 505.656 409.612 506.658C407.835 507.661 405.625 508.162 402.981 508.162C398.629 508.162 394.961 506.408 391.976 502.898C389.013 499.367 387.532 494.843 387.532 489.329C387.532 482.972 388.991 477.97 391.907 474.324C394.847 470.678 398.766 468.855 403.665 468.855C405.921 468.855 407.926 469.357 409.681 470.359C411.435 471.339 412.859 472.706 413.953 474.461V456.688H423.831ZM397.581 488.611C397.581 492.052 398.265 494.798 399.632 496.849C400.976 498.922 403.027 499.959 405.784 499.959C408.541 499.959 410.638 498.934 412.073 496.883C413.509 494.832 414.227 492.177 414.227 488.919C414.227 484.362 413.076 481.103 410.774 479.144C409.362 477.959 407.721 477.366 405.853 477.366C403.004 477.366 400.908 478.449 399.563 480.613C398.242 482.755 397.581 485.421 397.581 488.611ZM442.732 469.744V507H432.854V469.744H442.732ZM442.732 456.312V465.301H432.854V456.312H442.732ZM469.734 476.956C466.43 476.956 464.163 478.357 462.933 481.16C462.295 482.641 461.976 484.533 461.976 486.834V507H452.269V469.812H461.668V475.247C462.921 473.333 464.106 471.954 465.223 471.111C467.228 469.607 469.769 468.855 472.845 468.855C476.696 468.855 479.84 469.869 482.278 471.897C484.739 473.903 485.97 477.241 485.97 481.912V507H475.989V484.339C475.989 482.379 475.727 480.875 475.203 479.827C474.246 477.913 472.423 476.956 469.734 476.956ZM505.521 513.528C506.569 514.417 508.335 514.861 510.818 514.861C514.327 514.861 516.674 513.688 517.859 511.341C518.634 509.837 519.021 507.308 519.021 503.753V501.36C518.087 502.955 517.085 504.152 516.014 504.949C514.077 506.43 511.559 507.171 508.46 507.171C503.675 507.171 499.847 505.496 496.976 502.146C494.127 498.774 492.703 494.217 492.703 488.475C492.703 482.938 494.082 478.289 496.839 474.529C499.596 470.747 503.504 468.855 508.562 468.855C510.431 468.855 512.06 469.14 513.45 469.71C515.82 470.69 517.734 472.49 519.192 475.11V469.744H528.66V505.086C528.66 509.894 527.851 513.517 526.233 515.955C523.453 520.148 518.121 522.244 510.237 522.244C505.475 522.244 501.59 521.31 498.582 519.441C495.574 517.573 493.911 514.782 493.592 511.067H504.188C504.461 512.207 504.905 513.027 505.521 513.528ZM503.88 494.285C505.201 497.43 507.571 499.002 510.989 499.002C513.268 499.002 515.193 498.147 516.766 496.438C518.338 494.707 519.124 491.961 519.124 488.201C519.124 484.669 518.372 481.98 516.868 480.135C515.387 478.289 513.393 477.366 510.887 477.366C507.469 477.366 505.11 478.973 503.812 482.186C503.128 483.895 502.786 486.002 502.786 488.509C502.786 490.674 503.151 492.599 503.88 494.285Z" fill="#E85859"/>
<path d="M109.078 474.516C91.0443 474.516 78.3815 468.201 71.0898 455.57C63.8633 442.94 60.25 424.939 60.25 401.566C60.25 378.194 63.8633 360.16 71.0898 347.465C78.3815 334.77 91.0443 328.422 109.078 328.422C127.112 328.422 139.775 334.77 147.066 347.465C154.293 360.16 157.906 378.194 157.906 401.566C157.906 424.939 154.26 442.94 146.969 455.57C139.742 468.201 127.112 474.516 109.078 474.516ZM125.387 438.871C127.926 430.277 129.195 417.842 129.195 401.566C129.195 384.509 127.893 371.879 125.289 363.676C122.75 355.473 117.346 351.371 109.078 351.371C100.81 351.371 95.3411 355.473 92.6719 363.676C90.0026 371.879 88.668 384.509 88.668 401.566C88.668 417.842 90.0026 430.31 92.6719 438.969C95.3411 447.562 100.81 451.859 109.078 451.859C117.346 451.859 122.783 447.53 125.387 438.871ZM234.859 358.207C231.539 354.236 226.786 352.25 220.602 352.25C212.138 352.25 206.376 355.408 203.316 361.723C201.559 365.368 200.517 371.163 200.191 379.105H173.141C173.596 367.061 175.777 357.328 179.684 349.906C187.105 335.779 200.289 328.715 219.234 328.715C234.208 328.715 246.122 332.882 254.977 341.215C263.831 349.483 268.258 360.453 268.258 374.125C268.258 384.607 265.133 393.917 258.883 402.055C254.781 407.458 248.043 413.48 238.668 420.121L227.535 428.031C220.569 432.979 215.784 436.56 213.18 438.773C210.641 440.987 208.492 443.559 206.734 446.488H268.551V471H171.578C171.839 460.844 174.02 451.566 178.121 443.168C182.092 433.728 191.467 423.734 206.246 413.188C219.072 404.008 227.372 397.432 231.148 393.461C236.943 387.276 239.84 380.505 239.84 373.148C239.84 367.159 238.18 362.178 234.859 358.207Z" fill="#E85859" fill-opacity="0.8"/>
<path d="M290 53H297.353V60.2653H304.08V53H311.433V75H304.08V67.6334H297.353V75H290V53ZM321.102 60.2961H314.63V53H334.932V60.2961H328.457V75H321.104L321.102 60.2961ZM338.155 53H345.826L350.542 60.7293L355.25 53H362.92V75H355.596V64.0947L350.538 71.9165H350.412L345.349 64.0947V74.9985H338.154L338.155 53ZM366.579 53H373.934V67.7274H384.274V74.9985H366.579V53Z" fill="#E85859"/>
<g filter="url(#filter0_d_5189_11789)">
<path d="M389.81 82.4789L380.171 190.467L336.841 202.479L293.63 190.483L284 82.4789H389.81Z" fill="#E44D26"/>
<path d="M336.905 193.296L371.918 183.59L380.156 91.3092H336.905V193.296Z" fill="#F16529"/>
<path d="M318.165 117.803H336.904V104.563H303.689L304.006 108.118L307.262 144.62H336.905V131.367H319.376L318.165 117.803ZM321.151 151.237H307.853L309.709 172.035L336.843 179.562L336.904 179.546V165.769L336.846 165.784L322.094 161.801L321.153 151.237H321.151Z" fill="#EBEBEB"/>
<path d="M336.859 144.612H353.17L351.633 161.792L336.858 165.779V179.56L364.012 172.032L364.211 169.794L367.324 134.92L367.646 131.363H336.859V144.612ZM336.859 117.769V117.801H368.852L369.121 114.824L369.725 108.103L370.041 104.549H336.859V117.762V117.769Z" fill="white"/>
</g>
<path d="M533.881 59.583H523.425L534.299 71.3827V77H511.903V70.4226H522.775L511.903 58.623V53H533.881V59.583V59.583ZM507.463 59.583H497.007L507.88 71.3827V77H485.483V70.4226H496.357L485.483 58.623V53H507.463V59.583V59.583ZM481.303 59.8521H470.02V70.1479H481.303V77H462V53H481.303V59.8521V59.8521Z" fill="#E85859"/>
<g filter="url(#filter1_d_5189_11789)">
<path d="M454.63 191.347L445 83.3434H550.808L541.17 191.329L497.839 203.343L454.63 191.347V191.347Z" fill="#1572B6"/>
<path d="M497.906 194.161L532.918 184.454L541.155 92.1752H497.906V194.161Z" fill="#33A9DC"/>
<path d="M497.905 131.304H515.433L516.644 117.74H497.905V104.494H531.121L530.803 108.048L527.548 144.549H497.905V131.304V131.304Z" fill="white"/>
<path d="M497.984 165.706L497.926 165.722L483.174 161.738L482.23 151.174H468.935L470.791 171.972L497.924 179.504L497.986 179.486V165.706H497.984Z" fill="#EBEBEB"/>
<path d="M514.307 143.989L512.711 161.729L497.938 165.716V179.498L525.093 171.972L525.293 169.734L527.598 143.989H514.307V143.989Z" fill="white"/>
<path d="M497.951 104.494V117.739H465.955L465.689 114.762L465.086 108.048L464.769 104.494H497.951ZM497.905 131.305V144.552H483.339L483.074 141.575L482.47 134.859L482.152 131.305H497.905V131.305Z" fill="#EBEBEB"/>
</g>
<defs>
<filter id="filter0_d_5189_11789" x="204" y="2.47888" width="305.81" height="320" filterUnits="userSpaceOnUse" color-interpolation-filters="sRGB">
<feFlood flood-opacity="0" result="BackgroundImageFix"/>
<feColorMatrix in="SourceAlpha" type="matrix" values="0 0 0 0 0 0 0 0 0 0 0 0 0 0 0 0 0 0 127 0" result="hardAlpha"/>
<feOffset dx="20" dy="20"/>
<feGaussianBlur stdDeviation="50"/>
<feComposite in2="hardAlpha" operator="out"/>
<feColorMatrix type="matrix" values="0 0 0 0 0 0 0 0 0 0 0 0 0 0 0 0 0 0 0.25 0"/>
<feBlend mode="normal" in2="BackgroundImageFix" result="effect1_dropShadow_5189_11789"/>
<feBlend mode="normal" in="SourceGraphic" in2="effect1_dropShadow_5189_11789" result="shape"/>
</filter>
<filter id="filter1_d_5189_11789" x="365" y="3.34338" width="305.808" height="320" filterUnits="userSpaceOnUse" color-interpolation-filters="sRGB">
<feFlood flood-opacity="0" result="BackgroundImageFix"/>
<feColorMatrix in="SourceAlpha" type="matrix" values="0 0 0 0 0 0 0 0 0 0 0 0 0 0 0 0 0 0 127 0" result="hardAlpha"/>
<feOffset dx="20" dy="20"/>
<feGaussianBlur stdDeviation="50"/>
<feComposite in2="hardAlpha" operator="out"/>
<feColorMatrix type="matrix" values="0 0 0 0 0 0 0 0 0 0 0 0 0 0 0 0 0 0 0.25 0"/>
<feBlend mode="normal" in2="BackgroundImageFix" result="effect1_dropShadow_5189_11789"/>
<feBlend mode="normal" in="SourceGraphic" in2="effect1_dropShadow_5189_11789" result="shape"/>
</filter>
<linearGradient id="paint0_linear_5189_11789" x1="800" y1="1.57938e-05" x2="-2.41944" y2="596.747" gradientUnits="userSpaceOnUse">
<stop stop-color="#FFF4F4"/>
<stop offset="1" stop-color="#FFBFBF"/>
</linearGradient>
</defs>
</svg>
