<svg width="800" height="600" viewBox="0 0 800 600" fill="none" xmlns="http://www.w3.org/2000/svg">
<rect width="800" height="600" fill="url(#paint0_linear_5189_12095)"/>
<line x1="91" y1="218" x2="742" y2="218" stroke="#E85859" stroke-width="2"/>
<path d="M123.531 358.207C120.211 354.236 115.458 352.25 109.273 352.25C100.81 352.25 95.0482 355.408 91.9883 361.723C90.2305 365.368 89.1888 371.163 88.8633 379.105H61.8125C62.2682 367.061 64.4492 357.328 68.3555 349.906C75.7773 335.779 88.9609 328.715 107.906 328.715C122.88 328.715 134.794 332.882 143.648 341.215C152.503 349.483 156.93 360.453 156.93 374.125C156.93 384.607 153.805 393.917 147.555 402.055C143.453 407.458 136.715 413.48 127.34 420.121L116.207 428.031C109.241 432.979 104.456 436.56 101.852 438.773C99.3125 440.987 97.1641 443.559 95.4062 446.488H157.223V471H60.25C60.5104 460.844 62.6914 451.566 66.793 443.168C70.7643 433.728 80.1393 423.734 94.918 413.188C107.743 404.008 116.044 397.432 119.82 393.461C125.615 387.276 128.512 380.505 128.512 373.148C128.512 367.159 126.852 362.178 123.531 358.207ZM241.012 471H212.496V373.344H179.195V354.398C187.984 354.008 194.137 353.422 197.652 352.641C203.251 351.404 207.809 348.93 211.324 345.219C213.733 342.68 215.556 339.294 216.793 335.062C217.509 332.523 217.867 330.635 217.867 329.398H241.012V471Z" fill="#E85859" fill-opacity="0.8"/>
<path d="M290 53H297.353V60.2653H304.08V53H311.433V75H304.08V67.6334H297.353V75H290V53ZM321.102 60.2961H314.63V53H334.932V60.2961H328.457V75H321.104L321.102 60.2961ZM338.155 53H345.826L350.542 60.7293L355.25 53H362.92V75H355.596V64.0947L350.538 71.9165H350.412L345.349 64.0947V74.9985H338.154L338.155 53ZM366.579 53H373.934V67.7274H384.274V74.9985H366.579V53Z" fill="#E85859"/>
<g filter="url(#filter0_d_5189_12095)">
<path d="M389.81 82.4785L380.171 190.466L336.841 202.479L293.63 190.483L284 82.4785H389.81Z" fill="#E44D26"/>
<path d="M336.905 193.296L371.918 183.589L380.156 91.3086H336.905V193.296Z" fill="#F16529"/>
<path d="M318.165 117.802H336.904V104.562H303.689L304.006 108.117L307.262 144.619H336.905V131.367H319.376L318.165 117.802ZM321.151 151.236H307.853L309.709 172.034L336.843 179.561L336.904 179.545V165.768L336.846 165.783L322.094 161.8L321.153 151.236H321.151Z" fill="#EBEBEB"/>
<path d="M336.859 144.611H353.17L351.633 161.791L336.858 165.778V179.559L364.012 172.031L364.211 169.793L367.324 134.92L367.646 131.363H336.859V144.611ZM336.859 117.768V117.801H368.852L369.121 114.823L369.725 108.102L370.041 104.548H336.859V117.762V117.768Z" fill="white"/>
</g>
<path d="M533.881 59.583H523.425L534.299 71.3827V77H511.903V70.4226H522.775L511.903 58.623V53H533.881V59.583V59.583ZM507.463 59.583H497.007L507.88 71.3827V77H485.483V70.4226H496.357L485.483 58.623V53H507.463V59.583V59.583ZM481.303 59.8521H470.02V70.1479H481.303V77H462V53H481.303V59.8521V59.8521Z" fill="#E85859"/>
<g filter="url(#filter1_d_5189_12095)">
<path d="M454.63 191.347L445 83.3438H550.808L541.17 191.329L497.839 203.344L454.63 191.347V191.347Z" fill="#1572B6"/>
<path d="M497.906 194.162L532.918 184.454L541.155 92.1758H497.906V194.162Z" fill="#33A9DC"/>
<path d="M497.905 131.304H515.433L516.644 117.741H497.905V104.494H531.121L530.803 108.048L527.548 144.55H497.905V131.304V131.304Z" fill="white"/>
<path d="M497.984 165.706L497.926 165.722L483.174 161.738L482.23 151.174H468.935L470.791 171.972L497.924 179.504L497.986 179.486V165.706H497.984Z" fill="#EBEBEB"/>
<path d="M514.307 143.989L512.711 161.729L497.938 165.717V179.498L525.093 171.972L525.293 169.734L527.598 143.989H514.307V143.989Z" fill="white"/>
<path d="M497.951 104.494V117.739H465.955L465.689 114.763L465.086 108.048L464.769 104.494H497.951ZM497.905 131.306V144.552H483.339L483.074 141.575L482.47 134.859L482.152 131.306H497.905V131.306Z" fill="#EBEBEB"/>
</g>
<path d="M344.879 343.24C341.119 346.681 336.311 348.401 330.455 348.401C323.209 348.401 317.512 346.077 313.365 341.429C309.218 336.757 307.145 330.354 307.145 322.22C307.145 313.424 309.503 306.645 314.22 301.883C318.321 297.736 323.539 295.662 329.874 295.662C338.351 295.662 344.549 298.442 348.468 304.002C350.632 307.124 351.795 310.257 351.954 313.401H341.427C340.743 310.986 339.866 309.163 338.795 307.933C336.881 305.745 334.044 304.651 330.284 304.651C326.456 304.651 323.437 306.201 321.227 309.3C319.016 312.376 317.911 316.74 317.911 322.391C317.911 328.042 319.073 332.28 321.397 335.105C323.744 337.908 326.718 339.31 330.318 339.31C334.01 339.31 336.824 338.102 338.761 335.687C339.832 334.388 340.72 332.439 341.427 329.842H351.852C350.94 335.333 348.616 339.799 344.879 343.24ZM378.204 339.72C380.688 339.72 382.704 339.446 384.254 338.899C387.193 337.851 388.663 335.903 388.663 333.055C388.663 331.391 387.934 330.104 386.476 329.192C385.017 328.304 382.727 327.518 379.605 326.834L374.273 325.638C369.033 324.453 365.41 323.165 363.404 321.775C360.009 319.451 358.312 315.817 358.312 310.872C358.312 306.36 359.952 302.612 363.233 299.627C366.515 296.642 371.334 295.149 377.691 295.149C383.001 295.149 387.524 296.562 391.261 299.388C395.021 302.19 396.992 306.269 397.174 311.624H387.057C386.874 308.593 385.553 306.44 383.092 305.164C381.451 304.321 379.412 303.899 376.974 303.899C374.262 303.899 372.097 304.446 370.479 305.54C368.862 306.634 368.053 308.16 368.053 310.12C368.053 311.92 368.85 313.265 370.445 314.153C371.471 314.746 373.658 315.441 377.008 316.238L385.689 318.323C389.495 319.235 392.366 320.454 394.303 321.98C397.311 324.35 398.814 327.78 398.814 332.269C398.814 336.871 397.049 340.7 393.517 343.753C390.007 346.784 385.04 348.299 378.614 348.299C372.052 348.299 366.891 346.806 363.131 343.821C359.371 340.813 357.491 336.689 357.491 331.448H367.54C367.859 333.75 368.486 335.47 369.42 336.609C371.129 338.683 374.057 339.72 378.204 339.72ZM424.894 339.72C427.377 339.72 429.394 339.446 430.943 338.899C433.883 337.851 435.353 335.903 435.353 333.055C435.353 331.391 434.623 330.104 433.165 329.192C431.707 328.304 429.417 327.518 426.295 326.834L420.963 325.638C415.722 324.453 412.099 323.165 410.094 321.775C406.699 319.451 405.001 315.817 405.001 310.872C405.001 306.36 406.642 302.612 409.923 299.627C413.204 296.642 418.023 295.149 424.381 295.149C429.69 295.149 434.213 296.562 437.95 299.388C441.71 302.19 443.681 306.269 443.863 311.624H433.746C433.564 308.593 432.242 306.44 429.781 305.164C428.141 304.321 426.101 303.899 423.663 303.899C420.951 303.899 418.787 304.446 417.169 305.54C415.551 306.634 414.742 308.16 414.742 310.12C414.742 311.92 415.54 313.265 417.135 314.153C418.16 314.746 420.348 315.441 423.697 316.238L432.379 318.323C436.184 319.235 439.055 320.454 440.992 321.98C444 324.35 445.504 327.78 445.504 332.269C445.504 336.871 443.738 340.7 440.206 343.753C436.697 346.784 431.729 348.299 425.304 348.299C418.741 348.299 413.58 346.806 409.82 343.821C406.061 340.813 404.181 336.689 404.181 331.448H414.229C414.549 333.75 415.175 335.47 416.109 336.609C417.818 338.683 420.746 339.72 424.894 339.72ZM466.251 336.814V347H455.895V336.814H466.251ZM455.895 321.399V311.214H466.251V321.399H455.895ZM330.729 407.244H319.859V427H309.571V376.619H334.283C337.815 376.688 340.527 377.12 342.418 377.918C344.332 378.715 345.95 379.889 347.271 381.438C348.365 382.715 349.231 384.127 349.869 385.677C350.507 387.226 350.826 388.992 350.826 390.975C350.826 393.367 350.222 395.726 349.015 398.05C347.807 400.351 345.813 401.98 343.033 402.938C345.357 403.872 346.998 405.205 347.955 406.937C348.935 408.646 349.425 411.266 349.425 414.798V418.182C349.425 420.483 349.516 422.044 349.698 422.864C349.972 424.163 350.61 425.12 351.612 425.735V427H340.025C339.706 425.883 339.479 424.983 339.342 424.3C339.068 422.887 338.92 421.44 338.897 419.959L338.829 415.276C338.784 412.063 338.191 409.922 337.052 408.851C335.935 407.78 333.827 407.244 330.729 407.244ZM337.12 398.084C339.216 397.127 340.265 395.236 340.265 392.41C340.265 389.357 339.251 387.306 337.223 386.258C336.083 385.665 334.374 385.369 332.096 385.369H319.859V398.904H331.788C334.158 398.904 335.935 398.631 337.12 398.084ZM391.021 416.062C390.771 418.273 389.62 420.517 387.569 422.796C384.379 426.419 379.913 428.23 374.171 428.23C369.431 428.23 365.25 426.704 361.627 423.65C358.004 420.597 356.192 415.63 356.192 408.748C356.192 402.299 357.822 397.355 361.08 393.914C364.361 390.473 368.611 388.753 373.829 388.753C376.928 388.753 379.719 389.334 382.203 390.496C384.687 391.658 386.738 393.493 388.355 395.999C389.814 398.209 390.759 400.773 391.192 403.689C391.443 405.398 391.546 407.859 391.5 411.072H366.002C366.139 414.809 367.312 417.43 369.522 418.934C370.867 419.868 372.485 420.335 374.376 420.335C376.381 420.335 378.01 419.765 379.264 418.626C379.947 418.011 380.551 417.156 381.075 416.062H391.021ZM381.383 404.646C381.223 402.072 380.437 400.123 379.024 398.802C377.634 397.457 375.903 396.785 373.829 396.785C371.573 396.785 369.819 397.492 368.565 398.904C367.335 400.317 366.56 402.231 366.241 404.646H381.383ZM423.766 391.453C426.682 393.322 428.357 396.535 428.79 401.092H419.049C418.912 399.839 418.559 398.847 417.989 398.118C416.918 396.797 415.095 396.136 412.521 396.136C410.401 396.136 408.886 396.466 407.975 397.127C407.086 397.788 406.642 398.562 406.642 399.451C406.642 400.568 407.12 401.377 408.077 401.878C409.034 402.402 412.418 403.302 418.229 404.578C422.102 405.49 425.007 406.868 426.944 408.714C428.858 410.582 429.815 412.918 429.815 415.721C429.815 419.412 428.437 422.431 425.68 424.778C422.945 427.103 418.707 428.265 412.965 428.265C407.109 428.265 402.779 427.034 399.977 424.573C397.197 422.09 395.807 418.934 395.807 415.105H405.685C405.89 416.837 406.334 418.068 407.018 418.797C408.225 420.096 410.458 420.745 413.717 420.745C415.631 420.745 417.146 420.46 418.263 419.891C419.402 419.321 419.972 418.466 419.972 417.327C419.972 416.233 419.516 415.402 418.604 414.832C417.693 414.262 414.309 413.283 408.453 411.893C404.238 410.844 401.264 409.534 399.532 407.962C397.8 406.412 396.935 404.179 396.935 401.263C396.935 397.822 398.279 394.871 400.968 392.41C403.679 389.926 407.485 388.685 412.384 388.685C417.032 388.685 420.826 389.607 423.766 391.453ZM468.268 393.743C471.275 396.956 472.779 401.673 472.779 407.894C472.779 414.456 471.298 419.458 468.336 422.898C465.396 426.339 461.603 428.06 456.954 428.06C453.992 428.06 451.531 427.319 449.571 425.838C448.5 425.018 447.452 423.821 446.427 422.249V441.663H436.788V389.744H446.119V395.247C447.167 393.629 448.284 392.353 449.469 391.419C451.633 389.756 454.208 388.924 457.193 388.924C461.546 388.924 465.237 390.53 468.268 393.743ZM462.73 408.372C462.73 405.501 462.07 402.96 460.748 400.75C459.449 398.54 457.33 397.435 454.391 397.435C450.859 397.435 448.432 399.109 447.11 402.459C446.427 404.236 446.085 406.492 446.085 409.227C446.085 413.556 447.236 416.598 449.537 418.353C450.904 419.378 452.522 419.891 454.391 419.891C457.102 419.891 459.164 418.842 460.577 416.746C462.013 414.65 462.73 411.858 462.73 408.372ZM510.924 394.461C514.068 398.403 515.641 403.063 515.641 408.44C515.641 413.909 514.068 418.592 510.924 422.488C507.779 426.362 503.006 428.299 496.603 428.299C490.2 428.299 485.426 426.362 482.281 422.488C479.137 418.592 477.564 413.909 477.564 408.44C477.564 403.063 479.137 398.403 482.281 394.461C485.426 390.519 490.2 388.548 496.603 388.548C503.006 388.548 507.779 390.519 510.924 394.461ZM496.568 396.785C493.72 396.785 491.521 397.799 489.972 399.827C488.445 401.832 487.682 404.703 487.682 408.44C487.682 412.177 488.445 415.06 489.972 417.088C491.521 419.116 493.72 420.13 496.568 420.13C499.417 420.13 501.604 419.116 503.131 417.088C504.658 415.06 505.421 412.177 505.421 408.44C505.421 404.703 504.658 401.832 503.131 399.827C501.604 397.799 499.417 396.785 496.568 396.785ZM540.182 396.956C536.878 396.956 534.61 398.357 533.38 401.16C532.742 402.641 532.423 404.533 532.423 406.834V427H522.716V389.812H532.115V395.247C533.368 393.333 534.553 391.954 535.67 391.111C537.675 389.607 540.216 388.855 543.292 388.855C547.143 388.855 550.287 389.869 552.726 391.897C555.187 393.903 556.417 397.241 556.417 401.912V427H546.437V404.339C546.437 402.379 546.174 400.875 545.65 399.827C544.693 397.913 542.87 396.956 540.182 396.956ZM591.109 391.453C594.026 393.322 595.701 396.535 596.134 401.092H586.393C586.256 399.839 585.903 398.847 585.333 398.118C584.262 396.797 582.439 396.136 579.864 396.136C577.745 396.136 576.23 396.466 575.318 397.127C574.43 397.788 573.985 398.562 573.985 399.451C573.985 400.568 574.464 401.377 575.421 401.878C576.378 402.402 579.762 403.302 585.572 404.578C589.446 405.49 592.351 406.868 594.288 408.714C596.202 410.582 597.159 412.918 597.159 415.721C597.159 419.412 595.781 422.431 593.023 424.778C590.289 427.103 586.051 428.265 580.309 428.265C574.452 428.265 570.123 427.034 567.32 424.573C564.54 422.09 563.15 418.934 563.15 415.105H573.028C573.233 416.837 573.678 418.068 574.361 418.797C575.569 420.096 577.802 420.745 581.061 420.745C582.975 420.745 584.49 420.46 585.606 419.891C586.746 419.321 587.315 418.466 587.315 417.327C587.315 416.233 586.86 415.402 585.948 414.832C585.037 414.262 581.653 413.283 575.797 411.893C571.581 410.844 568.608 409.534 566.876 407.962C565.144 406.412 564.278 404.179 564.278 401.263C564.278 397.822 565.623 394.871 568.312 392.41C571.023 389.926 574.828 388.685 579.728 388.685C584.376 388.685 588.17 389.607 591.109 391.453ZM614.42 389.744V427H604.542V389.744H614.42ZM614.42 376.312V385.301H604.542V376.312H614.42ZM620.23 389.744H631.168L638.927 417.225L646.856 389.744H657.315L643.883 427H633.595L620.23 389.744ZM694.742 416.062C694.492 418.273 693.341 420.517 691.29 422.796C688.1 426.419 683.634 428.23 677.892 428.23C673.152 428.23 668.971 426.704 665.348 423.65C661.725 420.597 659.913 415.63 659.913 408.748C659.913 402.299 661.542 397.355 664.801 393.914C668.082 390.473 672.332 388.753 677.55 388.753C680.649 388.753 683.44 389.334 685.924 390.496C688.408 391.658 690.458 393.493 692.076 395.999C693.535 398.209 694.48 400.773 694.913 403.689C695.164 405.398 695.266 407.859 695.221 411.072H669.723C669.859 414.809 671.033 417.43 673.243 418.934C674.588 419.868 676.205 420.335 678.097 420.335C680.102 420.335 681.731 419.765 682.984 418.626C683.668 418.011 684.272 417.156 684.796 416.062H694.742ZM685.104 404.646C684.944 402.072 684.158 400.123 682.745 398.802C681.355 397.457 679.623 396.785 677.55 396.785C675.294 396.785 673.539 397.492 672.286 398.904C671.056 400.317 670.281 402.231 669.962 404.646H685.104ZM331.036 507H309.332V456.619H331.036C334.158 456.665 336.756 457.029 338.829 457.713C342.361 458.875 345.221 461.006 347.408 464.104C349.163 466.611 350.359 469.323 350.997 472.239C351.635 475.156 351.954 477.936 351.954 480.579C351.954 487.278 350.61 492.952 347.921 497.601C344.275 503.867 338.647 507 331.036 507ZM338.863 469.471C337.245 466.736 334.044 465.369 329.259 465.369H319.552V498.25H329.259C334.226 498.25 337.69 495.8 339.649 490.901C340.72 488.213 341.256 485.011 341.256 481.297C341.256 476.17 340.458 472.228 338.863 469.471ZM391.021 496.062C390.771 498.273 389.62 500.517 387.569 502.796C384.379 506.419 379.913 508.23 374.171 508.23C369.431 508.23 365.25 506.704 361.627 503.65C358.004 500.597 356.192 495.63 356.192 488.748C356.192 482.299 357.822 477.355 361.08 473.914C364.361 470.473 368.611 468.753 373.829 468.753C376.928 468.753 379.719 469.334 382.203 470.496C384.687 471.658 386.738 473.493 388.355 475.999C389.814 478.209 390.759 480.773 391.192 483.689C391.443 485.398 391.546 487.859 391.5 491.072H366.002C366.139 494.809 367.312 497.43 369.522 498.934C370.867 499.868 372.485 500.335 374.376 500.335C376.381 500.335 378.01 499.765 379.264 498.626C379.947 498.011 380.551 497.156 381.075 496.062H391.021ZM381.383 484.646C381.223 482.072 380.437 480.123 379.024 478.802C377.634 477.457 375.903 476.785 373.829 476.785C371.573 476.785 369.819 477.492 368.565 478.904C367.335 480.317 366.56 482.231 366.241 484.646H381.383ZM423.766 471.453C426.682 473.322 428.357 476.535 428.79 481.092H419.049C418.912 479.839 418.559 478.847 417.989 478.118C416.918 476.797 415.095 476.136 412.521 476.136C410.401 476.136 408.886 476.466 407.975 477.127C407.086 477.788 406.642 478.562 406.642 479.451C406.642 480.568 407.12 481.377 408.077 481.878C409.034 482.402 412.418 483.302 418.229 484.578C422.102 485.49 425.007 486.868 426.944 488.714C428.858 490.582 429.815 492.918 429.815 495.721C429.815 499.412 428.437 502.431 425.68 504.778C422.945 507.103 418.707 508.265 412.965 508.265C407.109 508.265 402.779 507.034 399.977 504.573C397.197 502.09 395.807 498.934 395.807 495.105H405.685C405.89 496.837 406.334 498.068 407.018 498.797C408.225 500.096 410.458 500.745 413.717 500.745C415.631 500.745 417.146 500.46 418.263 499.891C419.402 499.321 419.972 498.466 419.972 497.327C419.972 496.233 419.516 495.402 418.604 494.832C417.693 494.262 414.309 493.283 408.453 491.893C404.238 490.844 401.264 489.534 399.532 487.962C397.8 486.412 396.935 484.179 396.935 481.263C396.935 477.822 398.279 474.871 400.968 472.41C403.679 469.926 407.485 468.685 412.384 468.685C417.032 468.685 420.826 469.607 423.766 471.453ZM447.076 469.744V507H437.198V469.744H447.076ZM447.076 456.312V465.301H437.198V456.312H447.076ZM467.071 513.528C468.119 514.417 469.885 514.861 472.369 514.861C475.878 514.861 478.225 513.688 479.41 511.341C480.185 509.837 480.572 507.308 480.572 503.753V501.36C479.638 502.955 478.635 504.152 477.564 504.949C475.628 506.43 473.11 507.171 470.011 507.171C465.226 507.171 461.397 505.496 458.526 502.146C455.678 498.774 454.254 494.217 454.254 488.475C454.254 482.938 455.632 478.289 458.39 474.529C461.147 470.747 465.055 468.855 470.113 468.855C471.982 468.855 473.611 469.14 475.001 469.71C477.371 470.69 479.285 472.49 480.743 475.11V469.744H490.211V505.086C490.211 509.894 489.402 513.517 487.784 515.955C485.004 520.148 479.672 522.244 471.788 522.244C467.026 522.244 463.141 521.31 460.133 519.441C457.125 517.573 455.462 514.782 455.143 511.067H465.738C466.012 512.207 466.456 513.027 467.071 513.528ZM465.431 494.285C466.752 497.43 469.122 499.002 472.54 499.002C474.819 499.002 476.744 498.147 478.316 496.438C479.889 494.707 480.675 491.961 480.675 488.201C480.675 484.669 479.923 481.98 478.419 480.135C476.938 478.289 474.944 477.366 472.438 477.366C469.02 477.366 466.661 478.973 465.362 482.186C464.679 483.895 464.337 486.002 464.337 488.509C464.337 490.674 464.701 492.599 465.431 494.285ZM516.871 476.956C513.567 476.956 511.3 478.357 510.069 481.16C509.431 482.641 509.112 484.533 509.112 486.834V507H499.405V469.812H508.805V475.247C510.058 473.333 511.243 471.954 512.359 471.111C514.365 469.607 516.905 468.855 519.981 468.855C523.832 468.855 526.977 469.869 529.415 471.897C531.876 473.903 533.106 477.241 533.106 481.912V507H523.126V484.339C523.126 482.379 522.864 480.875 522.34 479.827C521.383 477.913 519.56 476.956 516.871 476.956Z" fill="#E85859"/>
<defs>
<filter id="filter0_d_5189_12095" x="204" y="2.47852" width="305.81" height="320" filterUnits="userSpaceOnUse" color-interpolation-filters="sRGB">
<feFlood flood-opacity="0" result="BackgroundImageFix"/>
<feColorMatrix in="SourceAlpha" type="matrix" values="0 0 0 0 0 0 0 0 0 0 0 0 0 0 0 0 0 0 127 0" result="hardAlpha"/>
<feOffset dx="20" dy="20"/>
<feGaussianBlur stdDeviation="50"/>
<feComposite in2="hardAlpha" operator="out"/>
<feColorMatrix type="matrix" values="0 0 0 0 0 0 0 0 0 0 0 0 0 0 0 0 0 0 0.25 0"/>
<feBlend mode="normal" in2="BackgroundImageFix" result="effect1_dropShadow_5189_12095"/>
<feBlend mode="normal" in="SourceGraphic" in2="effect1_dropShadow_5189_12095" result="shape"/>
</filter>
<filter id="filter1_d_5189_12095" x="365" y="3.34375" width="305.808" height="320" filterUnits="userSpaceOnUse" color-interpolation-filters="sRGB">
<feFlood flood-opacity="0" result="BackgroundImageFix"/>
<feColorMatrix in="SourceAlpha" type="matrix" values="0 0 0 0 0 0 0 0 0 0 0 0 0 0 0 0 0 0 127 0" result="hardAlpha"/>
<feOffset dx="20" dy="20"/>
<feGaussianBlur stdDeviation="50"/>
<feComposite in2="hardAlpha" operator="out"/>
<feColorMatrix type="matrix" values="0 0 0 0 0 0 0 0 0 0 0 0 0 0 0 0 0 0 0.25 0"/>
<feBlend mode="normal" in2="BackgroundImageFix" result="effect1_dropShadow_5189_12095"/>
<feBlend mode="normal" in="SourceGraphic" in2="effect1_dropShadow_5189_12095" result="shape"/>
</filter>
<linearGradient id="paint0_linear_5189_12095" x1="800" y1="0" x2="1.78814e-05" y2="600" gradientUnits="userSpaceOnUse">
<stop stop-color="#FFF4F4"/>
<stop offset="1" stop-color="#FFBFBF"/>
</linearGradient>
</defs>
</svg>
