<svg width="800" height="600" viewBox="0 0 800 600" fill="none" xmlns="http://www.w3.org/2000/svg">
<rect width="800" height="600" fill="url(#paint0_linear_5189_12113)"/>
<line x1="91" y1="218" x2="742" y2="218" stroke="#E85859" stroke-width="2"/>
<path d="M129.684 471H101.168V373.344H67.8672V354.398C76.6562 354.008 82.8086 353.422 86.3242 352.641C91.9232 351.404 96.4805 348.93 99.9961 345.219C102.405 342.68 104.228 339.294 105.465 335.062C106.181 332.523 106.539 330.635 106.539 329.398H129.684V471ZM182.809 462.113C174.671 453.78 170.602 443.656 170.602 431.742C170.602 423.799 172.392 416.605 175.973 410.16C179.618 403.715 184.924 398.865 191.891 395.609C185.055 391.052 180.595 386.137 178.512 380.863C176.493 375.525 175.484 370.544 175.484 365.922C175.484 355.635 179.358 346.879 187.105 339.652C194.853 332.361 205.79 328.715 219.918 328.715C234.046 328.715 244.983 332.361 252.73 339.652C260.478 346.879 264.352 355.635 264.352 365.922C264.352 370.544 263.31 375.525 261.227 380.863C259.208 386.137 254.781 390.727 247.945 394.633C254.911 398.539 260.152 403.715 263.668 410.16C267.184 416.605 268.941 423.799 268.941 431.742C268.941 443.656 264.514 453.812 255.66 462.211C246.871 470.544 234.566 474.711 218.746 474.711C202.926 474.711 190.947 470.512 182.809 462.113ZM199.508 429.887C199.508 436.853 201.298 442.257 204.879 446.098C208.525 449.939 213.538 451.859 219.918 451.859C226.298 451.859 231.279 449.939 234.859 446.098C238.505 442.257 240.328 436.853 240.328 429.887C240.328 422.66 238.473 417.191 234.762 413.48C231.116 409.704 226.168 407.816 219.918 407.816C213.668 407.816 208.688 409.704 204.977 413.48C201.331 417.191 199.508 422.66 199.508 429.887ZM206.832 381.645C209.957 384.9 214.319 386.527 219.918 386.527C225.582 386.527 229.944 384.9 233.004 381.645C236.129 378.389 237.691 374.19 237.691 369.047C237.691 363.448 236.129 359.086 233.004 355.961C229.944 352.771 225.582 351.176 219.918 351.176C214.319 351.176 209.924 352.771 206.734 355.961C203.609 359.086 202.047 363.448 202.047 369.047C202.047 374.19 203.642 378.389 206.832 381.645Z" fill="#E85859" fill-opacity="0.8"/>
<path d="M290 53H297.353V60.2653H304.08V53H311.433V75H304.08V67.6334H297.353V75H290V53ZM321.102 60.2961H314.63V53H334.932V60.2961H328.457V75H321.104L321.102 60.2961ZM338.155 53H345.826L350.542 60.7293L355.25 53H362.92V75H355.596V64.0947L350.538 71.9165H350.412L345.349 64.0947V74.9985H338.154L338.155 53ZM366.579 53H373.934V67.7274H384.274V74.9985H366.579V53Z" fill="#E85859"/>
<g filter="url(#filter0_d_5189_12113)">
<path d="M389.81 82.4785L380.171 190.466L336.841 202.479L293.63 190.483L284 82.4785H389.81Z" fill="#E44D26"/>
<path d="M336.905 193.296L371.918 183.589L380.156 91.3086H336.905V193.296Z" fill="#F16529"/>
<path d="M318.165 117.802H336.904V104.562H303.689L304.006 108.117L307.262 144.619H336.905V131.367H319.376L318.165 117.802ZM321.151 151.236H307.853L309.709 172.034L336.843 179.561L336.904 179.545V165.768L336.846 165.783L322.094 161.8L321.153 151.236H321.151Z" fill="#EBEBEB"/>
<path d="M336.859 144.611H353.17L351.633 161.791L336.858 165.778V179.559L364.012 172.031L364.211 169.793L367.324 134.92L367.646 131.363H336.859V144.611ZM336.859 117.768V117.801H368.852L369.121 114.823L369.725 108.102L370.041 104.548H336.859V117.762V117.768Z" fill="white"/>
</g>
<path d="M533.881 59.583H523.425L534.299 71.3827V77H511.903V70.4226H522.775L511.903 58.623V53H533.881V59.583V59.583ZM507.463 59.583H497.007L507.88 71.3827V77H485.483V70.4226H496.357L485.483 58.623V53H507.463V59.583V59.583ZM481.303 59.8521H470.02V70.1479H481.303V77H462V53H481.303V59.8521V59.8521Z" fill="#E85859"/>
<g filter="url(#filter1_d_5189_12113)">
<path d="M454.63 191.347L445 83.3438H550.808L541.17 191.329L497.839 203.344L454.63 191.347V191.347Z" fill="#1572B6"/>
<path d="M497.906 194.162L532.918 184.454L541.155 92.1758H497.906V194.162Z" fill="#33A9DC"/>
<path d="M497.905 131.304H515.433L516.644 117.741H497.905V104.494H531.121L530.803 108.048L527.548 144.55H497.905V131.304V131.304Z" fill="white"/>
<path d="M497.984 165.706L497.926 165.722L483.174 161.738L482.23 151.174H468.935L470.791 171.972L497.924 179.504L497.986 179.486V165.706H497.984Z" fill="#EBEBEB"/>
<path d="M514.307 143.989L512.711 161.729L497.938 165.717V179.498L525.093 171.972L525.293 169.734L527.598 143.989H514.307V143.989Z" fill="white"/>
<path d="M497.951 104.494V117.739H465.955L465.689 114.763L465.086 108.048L464.769 104.494H497.951ZM497.905 131.306V144.552H483.339L483.074 141.575L482.47 134.859L482.152 131.306H497.905V131.306Z" fill="#EBEBEB"/>
</g>
<path d="M344.879 303.24C341.119 306.681 336.311 308.401 330.455 308.401C323.209 308.401 317.512 306.077 313.365 301.429C309.218 296.757 307.145 290.354 307.145 282.22C307.145 273.424 309.503 266.645 314.22 261.883C318.321 257.736 323.539 255.662 329.874 255.662C338.351 255.662 344.549 258.442 348.468 264.002C350.632 267.124 351.795 270.257 351.954 273.401H341.427C340.743 270.986 339.866 269.163 338.795 267.933C336.881 265.745 334.044 264.651 330.284 264.651C326.456 264.651 323.437 266.201 321.227 269.3C319.016 272.376 317.911 276.74 317.911 282.391C317.911 288.042 319.073 292.28 321.397 295.105C323.744 297.908 326.718 299.31 330.318 299.31C334.01 299.31 336.824 298.102 338.761 295.687C339.832 294.388 340.72 292.439 341.427 289.842H351.852C350.94 295.333 348.616 299.799 344.879 303.24ZM378.204 299.72C380.688 299.72 382.704 299.446 384.254 298.899C387.193 297.851 388.663 295.903 388.663 293.055C388.663 291.391 387.934 290.104 386.476 289.192C385.017 288.304 382.727 287.518 379.605 286.834L374.273 285.638C369.033 284.453 365.41 283.165 363.404 281.775C360.009 279.451 358.312 275.817 358.312 270.872C358.312 266.36 359.952 262.612 363.233 259.627C366.515 256.642 371.334 255.149 377.691 255.149C383.001 255.149 387.524 256.562 391.261 259.388C395.021 262.19 396.992 266.269 397.174 271.624H387.057C386.874 268.593 385.553 266.44 383.092 265.164C381.451 264.321 379.412 263.899 376.974 263.899C374.262 263.899 372.097 264.446 370.479 265.54C368.862 266.634 368.053 268.16 368.053 270.12C368.053 271.92 368.85 273.265 370.445 274.153C371.471 274.746 373.658 275.441 377.008 276.238L385.689 278.323C389.495 279.235 392.366 280.454 394.303 281.98C397.311 284.35 398.814 287.78 398.814 292.269C398.814 296.871 397.049 300.7 393.517 303.753C390.007 306.784 385.04 308.299 378.614 308.299C372.052 308.299 366.891 306.806 363.131 303.821C359.371 300.813 357.491 296.689 357.491 291.448H367.54C367.859 293.75 368.486 295.47 369.42 296.609C371.129 298.683 374.057 299.72 378.204 299.72ZM424.894 299.72C427.377 299.72 429.394 299.446 430.943 298.899C433.883 297.851 435.353 295.903 435.353 293.055C435.353 291.391 434.623 290.104 433.165 289.192C431.707 288.304 429.417 287.518 426.295 286.834L420.963 285.638C415.722 284.453 412.099 283.165 410.094 281.775C406.699 279.451 405.001 275.817 405.001 270.872C405.001 266.36 406.642 262.612 409.923 259.627C413.204 256.642 418.023 255.149 424.381 255.149C429.69 255.149 434.213 256.562 437.95 259.388C441.71 262.19 443.681 266.269 443.863 271.624H433.746C433.564 268.593 432.242 266.44 429.781 265.164C428.141 264.321 426.101 263.899 423.663 263.899C420.951 263.899 418.787 264.446 417.169 265.54C415.551 266.634 414.742 268.16 414.742 270.12C414.742 271.92 415.54 273.265 417.135 274.153C418.16 274.746 420.348 275.441 423.697 276.238L432.379 278.323C436.184 279.235 439.055 280.454 440.992 281.98C444 284.35 445.504 287.78 445.504 292.269C445.504 296.871 443.738 300.7 440.206 303.753C436.697 306.784 431.729 308.299 425.304 308.299C418.741 308.299 413.58 306.806 409.82 303.821C406.061 300.813 404.181 296.689 404.181 291.448H414.229C414.549 293.75 415.175 295.47 416.109 296.609C417.818 298.683 420.746 299.72 424.894 299.72ZM466.251 296.814V307H455.895V296.814H466.251ZM455.895 281.399V271.214H466.251V281.399H455.895ZM309.332 336.619H319.859V377.942H344.811V387H309.332V336.619ZM352.74 353.777C355.315 350.496 359.736 348.855 366.002 348.855C370.081 348.855 373.704 349.664 376.871 351.282C380.038 352.9 381.622 355.953 381.622 360.442V377.532C381.622 378.717 381.645 380.153 381.69 381.839C381.759 383.115 381.952 383.981 382.271 384.437C382.59 384.892 383.069 385.268 383.707 385.564V387H373.111C372.815 386.248 372.61 385.542 372.496 384.881C372.382 384.22 372.291 383.468 372.223 382.625C370.878 384.083 369.329 385.325 367.574 386.351C365.478 387.558 363.108 388.162 360.465 388.162C357.092 388.162 354.301 387.205 352.091 385.291C349.903 383.354 348.81 380.62 348.81 377.088C348.81 372.508 350.576 369.192 354.107 367.142C356.044 366.025 358.893 365.228 362.652 364.749L365.968 364.339C367.768 364.111 369.055 363.826 369.83 363.484C371.22 362.892 371.915 361.969 371.915 360.716C371.915 359.189 371.38 358.141 370.309 357.571C369.26 356.979 367.711 356.683 365.66 356.683C363.359 356.683 361.729 357.252 360.772 358.392C360.089 359.235 359.633 360.374 359.405 361.81H350.006C350.211 358.551 351.122 355.874 352.74 353.777ZM359.986 379.959C360.898 380.711 362.014 381.087 363.336 381.087C365.432 381.087 367.358 380.472 369.112 379.241C370.89 378.011 371.812 375.766 371.881 372.508V368.885C371.266 369.272 370.639 369.591 370.001 369.842C369.386 370.07 368.531 370.286 367.438 370.491L365.25 370.901C363.199 371.266 361.729 371.71 360.841 372.234C359.337 373.123 358.585 374.502 358.585 376.37C358.585 378.034 359.052 379.23 359.986 379.959ZM405.445 377.225L413.136 349.744H423.492L410.709 386.385C408.248 393.449 406.3 397.824 404.864 399.51C403.429 401.219 400.558 402.073 396.251 402.073C395.385 402.073 394.69 402.062 394.166 402.039C393.642 402.039 392.856 402.005 391.808 401.937V394.144L393.038 394.212C393.995 394.257 394.907 394.223 395.772 394.109C396.638 393.995 397.368 393.733 397.96 393.323C398.53 392.936 399.054 392.127 399.532 390.896C400.034 389.666 400.239 388.914 400.147 388.641L386.476 349.744H397.311L405.445 377.225ZM460.338 354.461C463.482 358.403 465.055 363.063 465.055 368.44C465.055 373.909 463.482 378.592 460.338 382.488C457.193 386.362 452.42 388.299 446.017 388.299C439.614 388.299 434.84 386.362 431.695 382.488C428.551 378.592 426.979 373.909 426.979 368.44C426.979 363.063 428.551 358.403 431.695 354.461C434.84 350.519 439.614 348.548 446.017 348.548C452.42 348.548 457.193 350.519 460.338 354.461ZM445.982 356.785C443.134 356.785 440.935 357.799 439.386 359.827C437.859 361.832 437.096 364.703 437.096 368.44C437.096 372.177 437.859 375.06 439.386 377.088C440.935 379.116 443.134 380.13 445.982 380.13C448.831 380.13 451.018 379.116 452.545 377.088C454.072 375.06 454.835 372.177 454.835 368.44C454.835 364.703 454.072 361.832 452.545 359.827C451.018 357.799 448.831 356.785 445.982 356.785ZM495.953 381.736C495.862 381.85 495.634 382.192 495.27 382.762C494.905 383.331 494.472 383.833 493.971 384.266C492.444 385.633 490.963 386.567 489.527 387.068C488.115 387.57 486.451 387.82 484.537 387.82C479.023 387.82 475.309 385.838 473.395 381.873C472.324 379.686 471.788 376.461 471.788 372.2V349.744H481.769V372.2C481.769 374.319 482.019 375.914 482.521 376.985C483.409 378.877 485.152 379.822 487.75 379.822C491.077 379.822 493.355 378.478 494.586 375.789C495.224 374.331 495.543 372.405 495.543 370.013V349.744H505.421V387H495.953V381.736ZM531.91 380.062V387.342L527.296 387.513C522.693 387.672 519.549 386.875 517.862 385.12C516.769 384.004 516.222 382.283 516.222 379.959V357.024H511.026V350.086H516.222V339.695H525.86V350.086H531.91V357.024H525.86V376.712C525.86 378.239 526.054 379.196 526.441 379.583C526.829 379.948 528.014 380.13 529.996 380.13C530.292 380.13 530.6 380.13 530.919 380.13C531.261 380.107 531.591 380.084 531.91 380.062ZM568.346 401.116L565.919 397.801C564.347 395.796 562.672 392.811 560.895 388.846C557.727 381.759 556.144 374.786 556.144 367.928C556.144 361.684 557.477 355.486 560.143 349.334C561.943 345.141 564.575 340.63 568.038 335.799H575.387L573.302 339.627C570.431 344.891 568.437 350.405 567.32 356.17C566.591 359.952 566.227 364.077 566.227 368.543C566.227 375.516 567.241 381.93 569.269 387.786C570.453 391.25 572.55 395.693 575.558 401.116H568.346ZM600.748 347.522C599.586 346.132 597.923 345.438 595.758 345.438C592.796 345.438 590.779 346.543 589.708 348.753C589.093 350.029 588.728 352.057 588.614 354.837H579.146C579.306 350.621 580.069 347.215 581.437 344.617C584.034 339.673 588.648 337.2 595.279 337.2C600.52 337.2 604.69 338.659 607.789 341.575C610.888 344.469 612.438 348.309 612.438 353.094C612.438 356.762 611.344 360.021 609.156 362.869C607.721 364.76 605.362 366.868 602.081 369.192L598.185 371.961C595.746 373.693 594.072 374.946 593.16 375.721C592.271 376.495 591.52 377.396 590.904 378.421H612.54V387H578.6C578.691 383.445 579.454 380.198 580.89 377.259C582.28 373.955 585.561 370.457 590.733 366.766C595.222 363.553 598.128 361.251 599.449 359.861C601.477 357.697 602.491 355.327 602.491 352.752C602.491 350.656 601.91 348.912 600.748 347.522ZM625.733 397.801L623.307 401.116H616.095C619.103 395.693 621.199 391.25 622.384 387.786C624.412 381.93 625.426 375.516 625.426 368.543C625.426 364.077 625.061 359.952 624.332 356.17C623.215 350.405 621.222 344.891 618.351 339.627L616.266 335.799H623.614C627.078 340.63 629.71 345.141 631.51 349.334C634.176 355.486 635.509 361.684 635.509 367.928C635.509 374.786 633.925 381.759 630.758 388.846C628.98 392.811 627.306 395.796 625.733 397.801ZM657.999 363.689H697.203V371.141H657.999V363.689ZM331.036 467H309.332V416.619H331.036C334.158 416.665 336.756 417.029 338.829 417.713C342.361 418.875 345.221 421.006 347.408 424.104C349.163 426.611 350.359 429.323 350.997 432.239C351.635 435.156 351.954 437.936 351.954 440.579C351.954 447.278 350.61 452.952 347.921 457.601C344.275 463.867 338.647 467 331.036 467ZM338.863 429.471C337.245 426.736 334.044 425.369 329.259 425.369H319.552V458.25H329.259C334.226 458.25 337.69 455.8 339.649 450.901C340.72 448.213 341.256 445.011 341.256 441.297C341.256 436.17 340.458 432.228 338.863 429.471ZM369.146 429.744V467H359.269V429.744H369.146ZM369.146 416.312V425.301H359.269V416.312H369.146ZM404.283 431.453C407.2 433.322 408.875 436.535 409.308 441.092H399.566C399.43 439.839 399.076 438.847 398.507 438.118C397.436 436.797 395.613 436.136 393.038 436.136C390.919 436.136 389.404 436.466 388.492 437.127C387.604 437.788 387.159 438.562 387.159 439.451C387.159 440.568 387.638 441.377 388.595 441.878C389.552 442.402 392.936 443.302 398.746 444.578C402.62 445.49 405.525 446.868 407.462 448.714C409.376 450.582 410.333 452.918 410.333 455.721C410.333 459.412 408.954 462.431 406.197 464.778C403.463 467.103 399.225 468.265 393.482 468.265C387.626 468.265 383.297 467.034 380.494 464.573C377.714 462.09 376.324 458.934 376.324 455.105H386.202C386.407 456.837 386.852 458.068 387.535 458.797C388.743 460.096 390.976 460.745 394.234 460.745C396.148 460.745 397.664 460.46 398.78 459.891C399.92 459.321 400.489 458.466 400.489 457.327C400.489 456.233 400.034 455.402 399.122 454.832C398.211 454.262 394.827 453.283 388.971 451.893C384.755 450.844 381.782 449.534 380.05 447.962C378.318 446.412 377.452 444.179 377.452 441.263C377.452 437.822 378.797 434.871 381.485 432.41C384.197 429.926 388.002 428.685 392.901 428.685C397.55 428.685 401.344 429.607 404.283 431.453ZM448.785 433.743C451.793 436.956 453.297 441.673 453.297 447.894C453.297 454.456 451.816 459.458 448.854 462.898C445.914 466.339 442.12 468.06 437.472 468.06C434.509 468.06 432.049 467.319 430.089 465.838C429.018 465.018 427.97 463.821 426.944 462.249V481.663H417.306V429.744H426.637V435.247C427.685 433.629 428.801 432.353 429.986 431.419C432.151 429.756 434.726 428.924 437.711 428.924C442.063 428.924 445.755 430.53 448.785 433.743ZM443.248 448.372C443.248 445.501 442.587 442.96 441.266 440.75C439.967 438.54 437.848 437.435 434.908 437.435C431.376 437.435 428.95 439.109 427.628 442.459C426.944 444.236 426.603 446.492 426.603 449.227C426.603 453.556 427.753 456.598 430.055 458.353C431.422 459.378 433.04 459.891 434.908 459.891C437.62 459.891 439.682 458.842 441.095 456.746C442.53 454.65 443.248 451.858 443.248 448.372ZM460.577 416.619H470.318V467H460.577V416.619ZM481.256 433.777C483.831 430.496 488.251 428.855 494.518 428.855C498.596 428.855 502.219 429.664 505.387 431.282C508.554 432.9 510.138 435.953 510.138 440.442V457.532C510.138 458.717 510.16 460.153 510.206 461.839C510.274 463.115 510.468 463.981 510.787 464.437C511.106 464.892 511.585 465.268 512.223 465.564V467H501.627C501.331 466.248 501.126 465.542 501.012 464.881C500.898 464.22 500.807 463.468 500.738 462.625C499.394 464.083 497.844 465.325 496.09 466.351C493.993 467.558 491.624 468.162 488.98 468.162C485.608 468.162 482.817 467.205 480.606 465.291C478.419 463.354 477.325 460.62 477.325 457.088C477.325 452.508 479.091 449.192 482.623 447.142C484.56 446.025 487.408 445.228 491.168 444.749L494.483 444.339C496.284 444.111 497.571 443.826 498.346 443.484C499.736 442.892 500.431 441.969 500.431 440.716C500.431 439.189 499.895 438.141 498.824 437.571C497.776 436.979 496.227 436.683 494.176 436.683C491.874 436.683 490.245 437.252 489.288 438.392C488.604 439.235 488.149 440.374 487.921 441.81H478.521C478.727 438.551 479.638 435.874 481.256 433.777ZM488.502 459.959C489.413 460.711 490.53 461.087 491.852 461.087C493.948 461.087 495.873 460.472 497.628 459.241C499.405 458.011 500.328 455.766 500.396 452.508V448.885C499.781 449.272 499.155 449.591 498.517 449.842C497.901 450.07 497.047 450.286 495.953 450.491L493.766 450.901C491.715 451.266 490.245 451.71 489.356 452.234C487.853 453.123 487.101 454.502 487.101 456.37C487.101 458.034 487.568 459.23 488.502 459.959ZM533.961 457.225L541.651 429.744H552.008L539.225 466.385C536.764 473.449 534.815 477.824 533.38 479.51C531.944 481.219 529.073 482.073 524.767 482.073C523.901 482.073 523.206 482.062 522.682 482.039C522.158 482.039 521.371 482.005 520.323 481.937V474.144L521.554 474.212C522.511 474.257 523.422 474.223 524.288 474.109C525.154 473.995 525.883 473.733 526.476 473.323C527.045 472.936 527.569 472.127 528.048 470.896C528.549 469.666 528.754 468.914 528.663 468.641L514.991 429.744H525.826L533.961 457.225ZM330.729 528.885H320.03V547H309.571V496.619H331.515C336.573 496.619 340.606 497.918 343.614 500.516C346.622 503.113 348.126 507.135 348.126 512.581C348.126 518.528 346.622 522.732 343.614 525.193C340.606 527.654 336.311 528.885 330.729 528.885ZM335.65 518.392C337.018 517.184 337.701 515.27 337.701 512.649C337.701 510.029 337.006 508.16 335.616 507.044C334.249 505.927 332.324 505.369 329.84 505.369H320.03V520.203H329.84C332.324 520.203 334.26 519.599 335.65 518.392ZM373.966 518.733C370.047 518.733 367.415 520.009 366.07 522.562C365.318 523.997 364.942 526.207 364.942 529.192V547H355.133V509.744H364.43V516.238C365.934 513.755 367.244 512.057 368.36 511.146C370.183 509.619 372.553 508.855 375.47 508.855C375.652 508.855 375.8 508.867 375.914 508.89C376.051 508.89 376.336 508.901 376.769 508.924V518.904C376.153 518.836 375.606 518.79 375.128 518.768C374.649 518.745 374.262 518.733 373.966 518.733ZM413.58 514.461C416.725 518.403 418.297 523.063 418.297 528.44C418.297 533.909 416.725 538.592 413.58 542.488C410.436 546.362 405.662 548.299 399.259 548.299C392.856 548.299 388.082 546.362 384.938 542.488C381.793 538.592 380.221 533.909 380.221 528.44C380.221 523.063 381.793 518.403 384.938 514.461C388.082 510.519 392.856 508.548 399.259 508.548C405.662 508.548 410.436 510.519 413.58 514.461ZM399.225 516.785C396.376 516.785 394.177 517.799 392.628 519.827C391.101 521.832 390.338 524.703 390.338 528.44C390.338 532.177 391.101 535.06 392.628 537.088C394.177 539.116 396.376 540.13 399.225 540.13C402.073 540.13 404.26 539.116 405.787 537.088C407.314 535.06 408.077 532.177 408.077 528.44C408.077 524.703 407.314 521.832 405.787 519.827C404.26 517.799 402.073 516.785 399.225 516.785ZM456.51 513.743C459.518 516.956 461.021 521.673 461.021 527.894C461.021 534.456 459.54 539.458 456.578 542.898C453.639 546.339 449.845 548.06 445.196 548.06C442.234 548.06 439.773 547.319 437.813 545.838C436.743 545.018 435.694 543.821 434.669 542.249V561.663H425.03V509.744H434.361V515.247C435.41 513.629 436.526 512.353 437.711 511.419C439.876 509.756 442.451 508.924 445.436 508.924C449.788 508.924 453.479 510.53 456.51 513.743ZM450.973 528.372C450.973 525.501 450.312 522.96 448.99 520.75C447.691 518.54 445.572 517.435 442.633 517.435C439.101 517.435 436.674 519.109 435.353 522.459C434.669 524.236 434.327 526.492 434.327 529.227C434.327 533.556 435.478 536.598 437.779 538.353C439.146 539.378 440.764 539.891 442.633 539.891C445.344 539.891 447.407 538.842 448.819 536.746C450.255 534.65 450.973 531.858 450.973 528.372ZM499.986 536.062C499.736 538.273 498.585 540.517 496.534 542.796C493.344 546.419 488.878 548.23 483.136 548.23C478.396 548.23 474.215 546.704 470.592 543.65C466.969 540.597 465.157 535.63 465.157 528.748C465.157 522.299 466.786 517.355 470.045 513.914C473.326 510.473 477.576 508.753 482.794 508.753C485.893 508.753 488.684 509.334 491.168 510.496C493.652 511.658 495.702 513.493 497.32 515.999C498.779 518.209 499.724 520.773 500.157 523.689C500.408 525.398 500.51 527.859 500.465 531.072H474.967C475.104 534.809 476.277 537.43 478.487 538.934C479.832 539.868 481.45 540.335 483.341 540.335C485.346 540.335 486.975 539.765 488.229 538.626C488.912 538.011 489.516 537.156 490.04 536.062H499.986ZM490.348 524.646C490.188 522.072 489.402 520.123 487.989 518.802C486.599 517.457 484.868 516.785 482.794 516.785C480.538 516.785 478.784 517.492 477.53 518.904C476.3 520.317 475.525 522.231 475.206 524.646H490.348ZM525.792 518.733C521.873 518.733 519.241 520.009 517.896 522.562C517.145 523.997 516.769 526.207 516.769 529.192V547H506.959V509.744H516.256V516.238C517.76 513.755 519.07 512.057 520.187 511.146C522.009 509.619 524.379 508.855 527.296 508.855C527.478 508.855 527.626 508.867 527.74 508.89C527.877 508.89 528.162 508.901 528.595 508.924V518.904C527.979 518.836 527.433 518.79 526.954 518.768C526.476 518.745 526.088 518.733 525.792 518.733ZM551.393 540.062V547.342L546.778 547.513C542.175 547.672 539.031 546.875 537.345 545.12C536.251 544.004 535.704 542.283 535.704 539.959V517.024H530.509V510.086H535.704V499.695H545.343V510.086H551.393V517.024H545.343V536.712C545.343 538.239 545.536 539.196 545.924 539.583C546.311 539.948 547.496 540.13 549.479 540.13C549.775 540.13 550.082 540.13 550.401 540.13C550.743 540.107 551.074 540.084 551.393 540.062ZM572.789 537.225L580.479 509.744H590.836L578.053 546.385C575.592 553.449 573.644 557.824 572.208 559.51C570.772 561.219 567.901 562.073 563.595 562.073C562.729 562.073 562.034 562.062 561.51 562.039C560.986 562.039 560.2 562.005 559.151 561.937V554.144L560.382 554.212C561.339 554.257 562.25 554.223 563.116 554.109C563.982 553.995 564.711 553.733 565.304 553.323C565.873 552.936 566.397 552.127 566.876 550.896C567.377 549.666 567.582 548.914 567.491 548.641L553.819 509.744H564.654L572.789 537.225Z" fill="#E85859"/>
<defs>
<filter id="filter0_d_5189_12113" x="204" y="2.47852" width="305.81" height="320" filterUnits="userSpaceOnUse" color-interpolation-filters="sRGB">
<feFlood flood-opacity="0" result="BackgroundImageFix"/>
<feColorMatrix in="SourceAlpha" type="matrix" values="0 0 0 0 0 0 0 0 0 0 0 0 0 0 0 0 0 0 127 0" result="hardAlpha"/>
<feOffset dx="20" dy="20"/>
<feGaussianBlur stdDeviation="50"/>
<feComposite in2="hardAlpha" operator="out"/>
<feColorMatrix type="matrix" values="0 0 0 0 0 0 0 0 0 0 0 0 0 0 0 0 0 0 0.25 0"/>
<feBlend mode="normal" in2="BackgroundImageFix" result="effect1_dropShadow_5189_12113"/>
<feBlend mode="normal" in="SourceGraphic" in2="effect1_dropShadow_5189_12113" result="shape"/>
</filter>
<filter id="filter1_d_5189_12113" x="365" y="3.34375" width="305.808" height="320" filterUnits="userSpaceOnUse" color-interpolation-filters="sRGB">
<feFlood flood-opacity="0" result="BackgroundImageFix"/>
<feColorMatrix in="SourceAlpha" type="matrix" values="0 0 0 0 0 0 0 0 0 0 0 0 0 0 0 0 0 0 127 0" result="hardAlpha"/>
<feOffset dx="20" dy="20"/>
<feGaussianBlur stdDeviation="50"/>
<feComposite in2="hardAlpha" operator="out"/>
<feColorMatrix type="matrix" values="0 0 0 0 0 0 0 0 0 0 0 0 0 0 0 0 0 0 0.25 0"/>
<feBlend mode="normal" in2="BackgroundImageFix" result="effect1_dropShadow_5189_12113"/>
<feBlend mode="normal" in="SourceGraphic" in2="effect1_dropShadow_5189_12113" result="shape"/>
</filter>
<linearGradient id="paint0_linear_5189_12113" x1="800" y1="0" x2="1.78814e-05" y2="600" gradientUnits="userSpaceOnUse">
<stop stop-color="#FFF4F4"/>
<stop offset="1" stop-color="#FFBFBF"/>
</linearGradient>
</defs>
</svg>
