<svg width="800" height="600" viewBox="0 0 800 600" fill="none" xmlns="http://www.w3.org/2000/svg">
<rect width="800" height="600" fill="url(#paint0_linear_5189_12131)"/>
<line x1="91" y1="218" x2="742" y2="218" stroke="#E85859" stroke-width="2"/>
<path d="M123.531 358.207C120.211 354.236 115.458 352.25 109.273 352.25C100.81 352.25 95.0482 355.408 91.9883 361.723C90.2305 365.368 89.1888 371.163 88.8633 379.105H61.8125C62.2682 367.061 64.4492 357.328 68.3555 349.906C75.7773 335.779 88.9609 328.715 107.906 328.715C122.88 328.715 134.794 332.882 143.648 341.215C152.503 349.483 156.93 360.453 156.93 374.125C156.93 384.607 153.805 393.917 147.555 402.055C143.453 407.458 136.715 413.48 127.34 420.121L116.207 428.031C109.241 432.979 104.456 436.56 101.852 438.773C99.3125 440.987 97.1641 443.559 95.4062 446.488H157.223V471H60.25C60.5104 460.844 62.6914 451.566 66.793 443.168C70.7643 433.728 80.1393 423.734 94.918 413.188C107.743 404.008 116.044 397.432 119.82 393.461C125.615 387.276 128.512 380.505 128.512 373.148C128.512 367.159 126.852 362.178 123.531 358.207ZM220.406 474.516C202.372 474.516 189.71 468.201 182.418 455.57C175.191 442.94 171.578 424.939 171.578 401.566C171.578 378.194 175.191 360.16 182.418 347.465C189.71 334.77 202.372 328.422 220.406 328.422C238.44 328.422 251.103 334.77 258.395 347.465C265.621 360.16 269.234 378.194 269.234 401.566C269.234 424.939 265.589 442.94 258.297 455.57C251.07 468.201 238.44 474.516 220.406 474.516ZM236.715 438.871C239.254 430.277 240.523 417.842 240.523 401.566C240.523 384.509 239.221 371.879 236.617 363.676C234.078 355.473 228.674 351.371 220.406 351.371C212.138 351.371 206.669 355.473 204 363.676C201.331 371.879 199.996 384.509 199.996 401.566C199.996 417.842 201.331 430.31 204 438.969C206.669 447.562 212.138 451.859 220.406 451.859C228.674 451.859 234.111 447.53 236.715 438.871Z" fill="#E85859" fill-opacity="0.8"/>
<path d="M290 53H297.353V60.2653H304.08V53H311.433V75H304.08V67.6334H297.353V75H290V53ZM321.102 60.2961H314.63V53H334.932V60.2961H328.457V75H321.104L321.102 60.2961ZM338.155 53H345.826L350.542 60.7293L355.25 53H362.92V75H355.596V64.0947L350.538 71.9165H350.412L345.349 64.0947V74.9985H338.154L338.155 53ZM366.579 53H373.934V67.7274H384.274V74.9985H366.579V53Z" fill="#E85859"/>
<g filter="url(#filter0_d_5189_12131)">
<path d="M389.81 82.4785L380.171 190.466L336.841 202.479L293.63 190.483L284 82.4785H389.81Z" fill="#E44D26"/>
<path d="M336.905 193.296L371.918 183.589L380.156 91.3086H336.905V193.296Z" fill="#F16529"/>
<path d="M318.165 117.802H336.904V104.562H303.689L304.006 108.117L307.262 144.619H336.905V131.367H319.376L318.165 117.802ZM321.151 151.236H307.853L309.709 172.034L336.843 179.561L336.904 179.545V165.768L336.846 165.783L322.094 161.8L321.153 151.236H321.151Z" fill="#EBEBEB"/>
<path d="M336.859 144.611H353.17L351.633 161.791L336.858 165.778V179.559L364.012 172.031L364.211 169.793L367.324 134.92L367.646 131.363H336.859V144.611ZM336.859 117.768V117.801H368.852L369.121 114.823L369.725 108.102L370.041 104.548H336.859V117.762V117.768Z" fill="white"/>
</g>
<path d="M533.881 59.583H523.425L534.299 71.3827V77H511.903V70.4226H522.775L511.903 58.623V53H533.881V59.583V59.583ZM507.463 59.583H497.007L507.88 71.3827V77H485.483V70.4226H496.357L485.483 58.623V53H507.463V59.583V59.583ZM481.303 59.8521H470.02V70.1479H481.303V77H462V53H481.303V59.8521V59.8521Z" fill="#E85859"/>
<g filter="url(#filter1_d_5189_12131)">
<path d="M454.63 191.347L445 83.3438H550.808L541.17 191.329L497.839 203.344L454.63 191.347V191.347Z" fill="#1572B6"/>
<path d="M497.906 194.162L532.918 184.454L541.155 92.1758H497.906V194.162Z" fill="#33A9DC"/>
<path d="M497.905 131.304H515.433L516.644 117.741H497.905V104.494H531.121L530.803 108.048L527.548 144.55H497.905V131.304V131.304Z" fill="white"/>
<path d="M497.984 165.706L497.926 165.722L483.174 161.738L482.23 151.174H468.935L470.791 171.972L497.924 179.504L497.986 179.486V165.706H497.984Z" fill="#EBEBEB"/>
<path d="M514.307 143.989L512.711 161.729L497.938 165.717V179.498L525.093 171.972L525.293 169.734L527.598 143.989H514.307V143.989Z" fill="white"/>
<path d="M497.951 104.494V117.739H465.955L465.689 114.763L465.086 108.048L464.769 104.494H497.951ZM497.905 131.306V144.552H483.339L483.074 141.575L482.47 134.859L482.152 131.306H497.905V131.306Z" fill="#EBEBEB"/>
</g>
<path d="M344.879 303.24C341.119 306.681 336.311 308.401 330.455 308.401C323.209 308.401 317.512 306.077 313.365 301.429C309.218 296.757 307.145 290.354 307.145 282.22C307.145 273.424 309.503 266.645 314.22 261.883C318.321 257.736 323.539 255.662 329.874 255.662C338.351 255.662 344.549 258.442 348.468 264.002C350.632 267.124 351.795 270.257 351.954 273.401H341.427C340.743 270.986 339.866 269.163 338.795 267.933C336.881 265.745 334.044 264.651 330.284 264.651C326.456 264.651 323.437 266.201 321.227 269.3C319.016 272.376 317.911 276.74 317.911 282.391C317.911 288.042 319.073 292.28 321.397 295.105C323.744 297.908 326.718 299.31 330.318 299.31C334.01 299.31 336.824 298.102 338.761 295.687C339.832 294.388 340.72 292.439 341.427 289.842H351.852C350.94 295.333 348.616 299.799 344.879 303.24ZM378.204 299.72C380.688 299.72 382.704 299.446 384.254 298.899C387.193 297.851 388.663 295.903 388.663 293.055C388.663 291.391 387.934 290.104 386.476 289.192C385.017 288.304 382.727 287.518 379.605 286.834L374.273 285.638C369.033 284.453 365.41 283.165 363.404 281.775C360.009 279.451 358.312 275.817 358.312 270.872C358.312 266.36 359.952 262.612 363.233 259.627C366.515 256.642 371.334 255.149 377.691 255.149C383.001 255.149 387.524 256.562 391.261 259.388C395.021 262.19 396.992 266.269 397.174 271.624H387.057C386.874 268.593 385.553 266.44 383.092 265.164C381.451 264.321 379.412 263.899 376.974 263.899C374.262 263.899 372.097 264.446 370.479 265.54C368.862 266.634 368.053 268.16 368.053 270.12C368.053 271.92 368.85 273.265 370.445 274.153C371.471 274.746 373.658 275.441 377.008 276.238L385.689 278.323C389.495 279.235 392.366 280.454 394.303 281.98C397.311 284.35 398.814 287.78 398.814 292.269C398.814 296.871 397.049 300.7 393.517 303.753C390.007 306.784 385.04 308.299 378.614 308.299C372.052 308.299 366.891 306.806 363.131 303.821C359.371 300.813 357.491 296.689 357.491 291.448H367.54C367.859 293.75 368.486 295.47 369.42 296.609C371.129 298.683 374.057 299.72 378.204 299.72ZM424.894 299.72C427.377 299.72 429.394 299.446 430.943 298.899C433.883 297.851 435.353 295.903 435.353 293.055C435.353 291.391 434.623 290.104 433.165 289.192C431.707 288.304 429.417 287.518 426.295 286.834L420.963 285.638C415.722 284.453 412.099 283.165 410.094 281.775C406.699 279.451 405.001 275.817 405.001 270.872C405.001 266.36 406.642 262.612 409.923 259.627C413.204 256.642 418.023 255.149 424.381 255.149C429.69 255.149 434.213 256.562 437.95 259.388C441.71 262.19 443.681 266.269 443.863 271.624H433.746C433.564 268.593 432.242 266.44 429.781 265.164C428.141 264.321 426.101 263.899 423.663 263.899C420.951 263.899 418.787 264.446 417.169 265.54C415.551 266.634 414.742 268.16 414.742 270.12C414.742 271.92 415.54 273.265 417.135 274.153C418.16 274.746 420.348 275.441 423.697 276.238L432.379 278.323C436.184 279.235 439.055 280.454 440.992 281.98C444 284.35 445.504 287.78 445.504 292.269C445.504 296.871 443.738 300.7 440.206 303.753C436.697 306.784 431.729 308.299 425.304 308.299C418.741 308.299 413.58 306.806 409.82 303.821C406.061 300.813 404.181 296.689 404.181 291.448H414.229C414.549 293.75 415.175 295.47 416.109 296.609C417.818 298.683 420.746 299.72 424.894 299.72ZM466.251 296.814V307H455.895V296.814H466.251ZM455.895 281.399V271.214H466.251V281.399H455.895ZM309.332 336.619H319.859V377.942H344.811V387H309.332V336.619ZM352.74 353.777C355.315 350.496 359.736 348.855 366.002 348.855C370.081 348.855 373.704 349.664 376.871 351.282C380.038 352.9 381.622 355.953 381.622 360.442V377.532C381.622 378.717 381.645 380.153 381.69 381.839C381.759 383.115 381.952 383.981 382.271 384.437C382.59 384.892 383.069 385.268 383.707 385.564V387H373.111C372.815 386.248 372.61 385.542 372.496 384.881C372.382 384.22 372.291 383.468 372.223 382.625C370.878 384.083 369.329 385.325 367.574 386.351C365.478 387.558 363.108 388.162 360.465 388.162C357.092 388.162 354.301 387.205 352.091 385.291C349.903 383.354 348.81 380.62 348.81 377.088C348.81 372.508 350.576 369.192 354.107 367.142C356.044 366.025 358.893 365.228 362.652 364.749L365.968 364.339C367.768 364.111 369.055 363.826 369.83 363.484C371.22 362.892 371.915 361.969 371.915 360.716C371.915 359.189 371.38 358.141 370.309 357.571C369.26 356.979 367.711 356.683 365.66 356.683C363.359 356.683 361.729 357.252 360.772 358.392C360.089 359.235 359.633 360.374 359.405 361.81H350.006C350.211 358.551 351.122 355.874 352.74 353.777ZM359.986 379.959C360.898 380.711 362.014 381.087 363.336 381.087C365.432 381.087 367.358 380.472 369.112 379.241C370.89 378.011 371.812 375.766 371.881 372.508V368.885C371.266 369.272 370.639 369.591 370.001 369.842C369.386 370.07 368.531 370.286 367.438 370.491L365.25 370.901C363.199 371.266 361.729 371.71 360.841 372.234C359.337 373.123 358.585 374.502 358.585 376.37C358.585 378.034 359.052 379.23 359.986 379.959ZM405.445 377.225L413.136 349.744H423.492L410.709 386.385C408.248 393.449 406.3 397.824 404.864 399.51C403.429 401.219 400.558 402.073 396.251 402.073C395.385 402.073 394.69 402.062 394.166 402.039C393.642 402.039 392.856 402.005 391.808 401.937V394.144L393.038 394.212C393.995 394.257 394.907 394.223 395.772 394.109C396.638 393.995 397.368 393.733 397.96 393.323C398.53 392.936 399.054 392.127 399.532 390.896C400.034 389.666 400.239 388.914 400.147 388.641L386.476 349.744H397.311L405.445 377.225ZM460.338 354.461C463.482 358.403 465.055 363.063 465.055 368.44C465.055 373.909 463.482 378.592 460.338 382.488C457.193 386.362 452.42 388.299 446.017 388.299C439.614 388.299 434.84 386.362 431.695 382.488C428.551 378.592 426.979 373.909 426.979 368.44C426.979 363.063 428.551 358.403 431.695 354.461C434.84 350.519 439.614 348.548 446.017 348.548C452.42 348.548 457.193 350.519 460.338 354.461ZM445.982 356.785C443.134 356.785 440.935 357.799 439.386 359.827C437.859 361.832 437.096 364.703 437.096 368.44C437.096 372.177 437.859 375.06 439.386 377.088C440.935 379.116 443.134 380.13 445.982 380.13C448.831 380.13 451.018 379.116 452.545 377.088C454.072 375.06 454.835 372.177 454.835 368.44C454.835 364.703 454.072 361.832 452.545 359.827C451.018 357.799 448.831 356.785 445.982 356.785ZM495.953 381.736C495.862 381.85 495.634 382.192 495.27 382.762C494.905 383.331 494.472 383.833 493.971 384.266C492.444 385.633 490.963 386.567 489.527 387.068C488.115 387.57 486.451 387.82 484.537 387.82C479.023 387.82 475.309 385.838 473.395 381.873C472.324 379.686 471.788 376.461 471.788 372.2V349.744H481.769V372.2C481.769 374.319 482.019 375.914 482.521 376.985C483.409 378.877 485.152 379.822 487.75 379.822C491.077 379.822 493.355 378.478 494.586 375.789C495.224 374.331 495.543 372.405 495.543 370.013V349.744H505.421V387H495.953V381.736ZM531.91 380.062V387.342L527.296 387.513C522.693 387.672 519.549 386.875 517.862 385.12C516.769 384.004 516.222 382.283 516.222 379.959V357.024H511.026V350.086H516.222V339.695H525.86V350.086H531.91V357.024H525.86V376.712C525.86 378.239 526.054 379.196 526.441 379.583C526.829 379.948 528.014 380.13 529.996 380.13C530.292 380.13 530.6 380.13 530.919 380.13C531.261 380.107 531.591 380.084 531.91 380.062ZM568.346 401.116L565.919 397.801C564.347 395.796 562.672 392.811 560.895 388.846C557.727 381.759 556.144 374.786 556.144 367.928C556.144 361.684 557.477 355.486 560.143 349.334C561.943 345.141 564.575 340.63 568.038 335.799H575.387L573.302 339.627C570.431 344.891 568.437 350.405 567.32 356.17C566.591 359.952 566.227 364.077 566.227 368.543C566.227 375.516 567.241 381.93 569.269 387.786C570.453 391.25 572.55 395.693 575.558 401.116H568.346ZM613.019 368.714V376.336H607.413V387H597.877V376.336H578.258V367.825L596.476 337.747H607.413V368.714H613.019ZM585.47 368.714H597.877V347.317L585.47 368.714ZM625.733 397.801L623.307 401.116H616.095C619.103 395.693 621.199 391.25 622.384 387.786C624.412 381.93 625.426 375.516 625.426 368.543C625.426 364.077 625.061 359.952 624.332 356.17C623.215 350.405 621.222 344.891 618.351 339.627L616.266 335.799H623.614C627.078 340.63 629.71 345.141 631.51 349.334C634.176 355.486 635.509 361.684 635.509 367.928C635.509 374.786 633.925 381.759 630.758 388.846C628.98 392.811 627.306 395.796 625.733 397.801ZM657.999 363.689H697.203V371.141H657.999V363.689ZM309.332 416.619H319.859V457.942H344.811V467H309.332V416.619ZM352.74 433.777C355.315 430.496 359.736 428.855 366.002 428.855C370.081 428.855 373.704 429.664 376.871 431.282C380.038 432.9 381.622 435.953 381.622 440.442V457.532C381.622 458.717 381.645 460.153 381.69 461.839C381.759 463.115 381.952 463.981 382.271 464.437C382.59 464.892 383.069 465.268 383.707 465.564V467H373.111C372.815 466.248 372.61 465.542 372.496 464.881C372.382 464.22 372.291 463.468 372.223 462.625C370.878 464.083 369.329 465.325 367.574 466.351C365.478 467.558 363.108 468.162 360.465 468.162C357.092 468.162 354.301 467.205 352.091 465.291C349.903 463.354 348.81 460.62 348.81 457.088C348.81 452.508 350.576 449.192 354.107 447.142C356.044 446.025 358.893 445.228 362.652 444.749L365.968 444.339C367.768 444.111 369.055 443.826 369.83 443.484C371.22 442.892 371.915 441.969 371.915 440.716C371.915 439.189 371.38 438.141 370.309 437.571C369.26 436.979 367.711 436.683 365.66 436.683C363.359 436.683 361.729 437.252 360.772 438.392C360.089 439.235 359.633 440.374 359.405 441.81H350.006C350.211 438.551 351.122 435.874 352.74 433.777ZM359.986 459.959C360.898 460.711 362.014 461.087 363.336 461.087C365.432 461.087 367.358 460.472 369.112 459.241C370.89 458.011 371.812 455.766 371.881 452.508V448.885C371.266 449.272 370.639 449.591 370.001 449.842C369.386 450.07 368.531 450.286 367.438 450.491L365.25 450.901C363.199 451.266 361.729 451.71 360.841 452.234C359.337 453.123 358.585 454.502 358.585 456.37C358.585 458.034 359.052 459.23 359.986 459.959ZM405.445 457.225L413.136 429.744H423.492L410.709 466.385C408.248 473.449 406.3 477.824 404.864 479.51C403.429 481.219 400.558 482.073 396.251 482.073C395.385 482.073 394.69 482.062 394.166 482.039C393.642 482.039 392.856 482.005 391.808 481.937V474.144L393.038 474.212C393.995 474.257 394.907 474.223 395.772 474.109C396.638 473.995 397.368 473.733 397.96 473.323C398.53 472.936 399.054 472.127 399.532 470.896C400.034 469.666 400.239 468.914 400.147 468.641L386.476 429.744H397.311L405.445 457.225ZM461.158 456.062C460.908 458.273 459.757 460.517 457.706 462.796C454.516 466.419 450.05 468.23 444.308 468.23C439.568 468.23 435.387 466.704 431.764 463.65C428.141 460.597 426.329 455.63 426.329 448.748C426.329 442.299 427.958 437.355 431.217 433.914C434.498 430.473 438.748 428.753 443.966 428.753C447.065 428.753 449.856 429.334 452.34 430.496C454.824 431.658 456.874 433.493 458.492 435.999C459.951 438.209 460.896 440.773 461.329 443.689C461.58 445.398 461.682 447.859 461.637 451.072H436.139C436.275 454.809 437.449 457.43 439.659 458.934C441.004 459.868 442.621 460.335 444.513 460.335C446.518 460.335 448.147 459.765 449.4 458.626C450.084 458.011 450.688 457.156 451.212 456.062H461.158ZM451.52 444.646C451.36 442.072 450.574 440.123 449.161 438.802C447.771 437.457 446.039 436.785 443.966 436.785C441.71 436.785 439.955 437.492 438.702 438.904C437.472 440.317 436.697 442.231 436.378 444.646H451.52ZM486.964 438.733C483.045 438.733 480.413 440.009 479.068 442.562C478.316 443.997 477.94 446.207 477.94 449.192V467H468.131V429.744H477.428V436.238C478.932 433.755 480.242 432.057 481.358 431.146C483.181 429.619 485.551 428.855 488.468 428.855C488.65 428.855 488.798 428.867 488.912 428.89C489.049 428.89 489.334 428.901 489.767 428.924V438.904C489.151 438.836 488.604 438.79 488.126 438.768C487.647 438.745 487.26 438.733 486.964 438.733ZM516.393 433.777C518.967 430.496 523.388 428.855 529.654 428.855C533.733 428.855 537.356 429.664 540.523 431.282C543.691 432.9 545.274 435.953 545.274 440.442V457.532C545.274 458.717 545.297 460.153 545.343 461.839C545.411 463.115 545.605 463.981 545.924 464.437C546.243 464.892 546.721 465.268 547.359 465.564V467H536.764C536.467 466.248 536.262 465.542 536.148 464.881C536.035 464.22 535.943 463.468 535.875 462.625C534.531 464.083 532.981 465.325 531.227 466.351C529.13 467.558 526.76 468.162 524.117 468.162C520.745 468.162 517.953 467.205 515.743 465.291C513.556 463.354 512.462 460.62 512.462 457.088C512.462 452.508 514.228 449.192 517.76 447.142C519.697 446.025 522.545 445.228 526.305 444.749L529.62 444.339C531.42 444.111 532.708 443.826 533.482 443.484C534.872 442.892 535.567 441.969 535.567 440.716C535.567 439.189 535.032 438.141 533.961 437.571C532.913 436.979 531.363 436.683 529.312 436.683C527.011 436.683 525.382 437.252 524.425 438.392C523.741 439.235 523.285 440.374 523.058 441.81H513.658C513.863 438.551 514.775 435.874 516.393 433.777ZM523.639 459.959C524.55 460.711 525.667 461.087 526.988 461.087C529.085 461.087 531.01 460.472 532.765 459.241C534.542 458.011 535.465 455.766 535.533 452.508V448.885C534.918 449.272 534.291 449.591 533.653 449.842C533.038 450.07 532.184 450.286 531.09 450.491L528.902 450.901C526.852 451.266 525.382 451.71 524.493 452.234C522.989 453.123 522.237 454.502 522.237 456.37C522.237 458.034 522.704 459.23 523.639 459.959ZM571.49 436.956C568.186 436.956 565.919 438.357 564.688 441.16C564.05 442.641 563.731 444.533 563.731 446.834V467H554.024V429.812H563.424V435.247C564.677 433.333 565.862 431.954 566.979 431.111C568.984 429.607 571.524 428.855 574.601 428.855C578.451 428.855 581.596 429.869 584.034 431.897C586.495 433.903 587.726 437.241 587.726 441.912V467H577.745V444.339C577.745 442.379 577.483 440.875 576.959 439.827C576.002 437.913 574.179 436.956 571.49 436.956ZM630.655 416.688V467H621.188V461.839C619.798 464.049 618.214 465.656 616.437 466.658C614.659 467.661 612.449 468.162 609.806 468.162C605.453 468.162 601.785 466.408 598.8 462.898C595.838 459.367 594.356 454.843 594.356 449.329C594.356 442.972 595.815 437.97 598.731 434.324C601.671 430.678 605.59 428.855 610.489 428.855C612.745 428.855 614.75 429.357 616.505 430.359C618.259 431.339 619.684 432.706 620.777 434.461V416.688H630.655ZM604.405 448.611C604.405 452.052 605.089 454.798 606.456 456.849C607.8 458.922 609.851 459.959 612.608 459.959C615.366 459.959 617.462 458.934 618.897 456.883C620.333 454.832 621.051 452.177 621.051 448.919C621.051 444.362 619.9 441.103 617.599 439.144C616.186 437.959 614.545 437.366 612.677 437.366C609.828 437.366 607.732 438.449 606.388 440.613C605.066 442.755 604.405 445.421 604.405 448.611ZM331.617 548.401C324.417 548.401 318.914 546.442 315.108 542.522C310.004 537.715 307.452 530.787 307.452 521.741C307.452 512.513 310.004 505.586 315.108 500.96C318.914 497.041 324.417 495.081 331.617 495.081C338.818 495.081 344.321 497.041 348.126 500.96C353.207 505.586 355.748 512.513 355.748 521.741C355.748 530.787 353.207 537.715 348.126 542.522C344.321 546.442 338.818 548.401 331.617 548.401ZM341.563 534.866C344.002 531.79 345.221 527.415 345.221 521.741C345.221 516.09 343.99 511.727 341.529 508.65C339.091 505.551 335.787 504.002 331.617 504.002C327.447 504.002 324.12 505.54 321.637 508.616C319.153 511.692 317.911 516.067 317.911 521.741C317.911 527.415 319.153 531.79 321.637 534.866C324.12 537.942 327.447 539.48 331.617 539.48C335.787 539.48 339.103 537.942 341.563 534.866ZM359.371 509.744H370.309L378.067 537.225L385.997 509.744H396.456L383.023 547H372.735L359.371 509.744ZM433.883 536.062C433.632 538.273 432.481 540.517 430.431 542.796C427.241 546.419 422.774 548.23 417.032 548.23C412.293 548.23 408.111 546.704 404.488 543.65C400.865 540.597 399.054 535.63 399.054 528.748C399.054 522.299 400.683 517.355 403.941 513.914C407.223 510.473 411.472 508.753 416.69 508.753C419.789 508.753 422.581 509.334 425.064 510.496C427.548 511.658 429.599 513.493 431.217 515.999C432.675 518.209 433.621 520.773 434.054 523.689C434.304 525.398 434.407 527.859 434.361 531.072H408.863C409 534.809 410.174 537.43 412.384 538.934C413.728 539.868 415.346 540.335 417.237 540.335C419.243 540.335 420.872 539.765 422.125 538.626C422.809 538.011 423.412 537.156 423.937 536.062H433.883ZM424.244 524.646C424.085 522.072 423.299 520.123 421.886 518.802C420.496 517.457 418.764 516.785 416.69 516.785C414.435 516.785 412.68 517.492 411.427 518.904C410.196 520.317 409.422 522.231 409.103 524.646H424.244ZM459.688 518.733C455.769 518.733 453.137 520.009 451.793 522.562C451.041 523.997 450.665 526.207 450.665 529.192V547H440.855V509.744H450.152V516.238C451.656 513.755 452.966 512.057 454.083 511.146C455.906 509.619 458.276 508.855 461.192 508.855C461.375 508.855 461.523 508.867 461.637 508.89C461.773 508.89 462.058 508.901 462.491 508.924V518.904C461.876 518.836 461.329 518.79 460.851 518.768C460.372 518.745 459.985 518.733 459.688 518.733ZM485.938 496.312V504.241C485.483 504.218 485.038 504.207 484.605 504.207C484.173 504.184 483.648 504.173 483.033 504.173C481.507 504.173 480.572 504.594 480.23 505.438C479.889 506.281 479.741 507.602 479.786 509.402V510.086H486.178V516.956H479.786V547H470.079V516.956H464.645V510.086H469.977V507.693C469.977 503.729 470.854 500.778 472.608 498.841C474.181 497.018 477.382 496.106 482.213 496.106C482.805 496.106 483.409 496.129 484.024 496.175C484.64 496.22 485.278 496.266 485.938 496.312ZM501.661 496.619V547H491.954V496.619H501.661ZM542.096 514.461C545.24 518.403 546.812 523.063 546.812 528.44C546.812 533.909 545.24 538.592 542.096 542.488C538.951 546.362 534.177 548.299 527.774 548.299C521.371 548.299 516.598 546.362 513.453 542.488C510.309 538.592 508.736 533.909 508.736 528.44C508.736 523.063 510.309 518.403 513.453 514.461C516.598 510.519 521.371 508.548 527.774 508.548C534.177 508.548 538.951 510.519 542.096 514.461ZM527.74 516.785C524.892 516.785 522.693 517.799 521.144 519.827C519.617 521.832 518.854 524.703 518.854 528.44C518.854 532.177 519.617 535.06 521.144 537.088C522.693 539.116 524.892 540.13 527.74 540.13C530.589 540.13 532.776 539.116 534.303 537.088C535.829 535.06 536.593 532.177 536.593 528.44C536.593 524.703 535.829 521.832 534.303 519.827C532.776 517.799 530.589 516.785 527.74 516.785ZM582.086 547L576.241 519.861L570.328 547H560.211L549.752 509.744H560.211L566.021 536.473L571.388 509.744H581.266L586.939 536.575L592.75 509.744H602.901L592.101 547H582.086Z" fill="#E85859"/>
<defs>
<filter id="filter0_d_5189_12131" x="204" y="2.47852" width="305.81" height="320" filterUnits="userSpaceOnUse" color-interpolation-filters="sRGB">
<feFlood flood-opacity="0" result="BackgroundImageFix"/>
<feColorMatrix in="SourceAlpha" type="matrix" values="0 0 0 0 0 0 0 0 0 0 0 0 0 0 0 0 0 0 127 0" result="hardAlpha"/>
<feOffset dx="20" dy="20"/>
<feGaussianBlur stdDeviation="50"/>
<feComposite in2="hardAlpha" operator="out"/>
<feColorMatrix type="matrix" values="0 0 0 0 0 0 0 0 0 0 0 0 0 0 0 0 0 0 0.25 0"/>
<feBlend mode="normal" in2="BackgroundImageFix" result="effect1_dropShadow_5189_12131"/>
<feBlend mode="normal" in="SourceGraphic" in2="effect1_dropShadow_5189_12131" result="shape"/>
</filter>
<filter id="filter1_d_5189_12131" x="365" y="3.34375" width="305.808" height="320" filterUnits="userSpaceOnUse" color-interpolation-filters="sRGB">
<feFlood flood-opacity="0" result="BackgroundImageFix"/>
<feColorMatrix in="SourceAlpha" type="matrix" values="0 0 0 0 0 0 0 0 0 0 0 0 0 0 0 0 0 0 127 0" result="hardAlpha"/>
<feOffset dx="20" dy="20"/>
<feGaussianBlur stdDeviation="50"/>
<feComposite in2="hardAlpha" operator="out"/>
<feColorMatrix type="matrix" values="0 0 0 0 0 0 0 0 0 0 0 0 0 0 0 0 0 0 0.25 0"/>
<feBlend mode="normal" in2="BackgroundImageFix" result="effect1_dropShadow_5189_12131"/>
<feBlend mode="normal" in="SourceGraphic" in2="effect1_dropShadow_5189_12131" result="shape"/>
</filter>
<linearGradient id="paint0_linear_5189_12131" x1="800" y1="0" x2="1.78814e-05" y2="600" gradientUnits="userSpaceOnUse">
<stop stop-color="#FFF4F4"/>
<stop offset="1" stop-color="#FFBFBF"/>
</linearGradient>
</defs>
</svg>
