<svg width="800" height="600" viewBox="0 0 800 600" fill="none" xmlns="http://www.w3.org/2000/svg">
<rect width="800" height="600" fill="url(#paint0_linear_5189_11825)"/>
<line x1="91" y1="218" x2="742" y2="218" stroke="#E85859" stroke-width="2"/>
<path d="M372.376 347V324.51H352.688V347H342.264V296.619H352.688V315.828H372.376V296.619H382.835V347H372.376ZM429.524 296.619V305.54H414.451V347H403.855V305.54H388.714V296.619H429.524ZM445.35 347H435.54V296.619H450.853L460.013 336.233L469.104 296.619H484.246V347H474.437V312.923C474.437 311.943 474.448 310.576 474.471 308.821C474.493 307.044 474.505 305.677 474.505 304.72L464.969 347H454.749L445.281 304.72C445.281 305.677 445.293 307.044 445.315 308.821C445.338 310.576 445.35 311.943 445.35 312.923V347ZM494.021 296.619H504.549V337.942H529.5V347H494.021V296.619ZM549.769 336.814V347H539.412V336.814H549.769ZM539.412 321.399V311.214H549.769V321.399H539.412ZM371.829 416.644H353.27L349.783 427H338.777L356.756 376.619H368.65L386.492 427H375.076L371.829 416.644ZM368.89 407.962L362.601 388.138L356.106 407.962H368.89ZM426.038 376.688V427H416.57V421.839C415.18 424.049 413.597 425.656 411.819 426.658C410.042 427.661 407.832 428.162 405.188 428.162C400.836 428.162 397.168 426.408 394.183 422.898C391.22 419.367 389.739 414.843 389.739 409.329C389.739 402.972 391.198 397.97 394.114 394.324C397.054 390.678 400.973 388.855 405.872 388.855C408.128 388.855 410.133 389.357 411.888 390.359C413.642 391.339 415.066 392.706 416.16 394.461V376.688H426.038ZM399.788 408.611C399.788 412.052 400.472 414.798 401.839 416.849C403.183 418.922 405.234 419.959 407.991 419.959C410.748 419.959 412.845 418.934 414.28 416.883C415.716 414.832 416.434 412.177 416.434 408.919C416.434 404.362 415.283 401.103 412.981 399.144C411.569 397.959 409.928 397.366 408.06 397.366C405.211 397.366 403.115 398.449 401.771 400.613C400.449 402.755 399.788 405.421 399.788 408.611ZM468.831 376.688V427H459.363V421.839C457.973 424.049 456.39 425.656 454.612 426.658C452.835 427.661 450.625 428.162 447.981 428.162C443.629 428.162 439.961 426.408 436.976 422.898C434.013 419.367 432.532 414.843 432.532 409.329C432.532 402.972 433.991 397.97 436.907 394.324C439.847 390.678 443.766 388.855 448.665 388.855C450.921 388.855 452.926 389.357 454.681 390.359C456.435 391.339 457.859 392.706 458.953 394.461V376.688H468.831ZM442.581 408.611C442.581 412.052 443.265 414.798 444.632 416.849C445.976 418.922 448.027 419.959 450.784 419.959C453.541 419.959 455.638 418.934 457.073 416.883C458.509 414.832 459.227 412.177 459.227 408.919C459.227 404.362 458.076 401.103 455.774 399.144C454.362 397.959 452.721 397.366 450.853 397.366C448.004 397.366 445.908 398.449 444.563 400.613C443.242 402.755 442.581 405.421 442.581 408.611ZM497.166 376.619H507.625V427H497.166V376.619ZM537.601 399.998C536.78 398.198 535.174 397.298 532.781 397.298C530.001 397.298 528.133 398.198 527.176 399.998C526.652 401.023 526.39 402.55 526.39 404.578V427H516.512V389.812H525.979V395.247C527.187 393.31 528.326 391.932 529.397 391.111C531.289 389.653 533.738 388.924 536.746 388.924C539.594 388.924 541.896 389.55 543.65 390.804C545.063 391.966 546.134 393.458 546.863 395.281C548.139 393.094 549.723 391.487 551.614 390.462C553.619 389.437 555.853 388.924 558.313 388.924C559.954 388.924 561.572 389.243 563.167 389.881C564.762 390.519 566.209 391.635 567.508 393.23C568.556 394.529 569.262 396.124 569.627 398.016C569.855 399.269 569.969 401.103 569.969 403.519L569.9 427H559.92V403.279C559.92 401.867 559.692 400.704 559.236 399.793C558.37 398.061 556.775 397.195 554.451 397.195C551.762 397.195 549.905 398.312 548.88 400.545C548.356 401.73 548.094 403.154 548.094 404.817V427H538.284V404.817C538.284 402.607 538.056 401.001 537.601 399.998ZM580.359 393.777C582.934 390.496 587.355 388.855 593.621 388.855C597.7 388.855 601.323 389.664 604.49 391.282C607.658 392.9 609.241 395.953 609.241 400.442V417.532C609.241 418.717 609.264 420.153 609.31 421.839C609.378 423.115 609.572 423.981 609.891 424.437C610.21 424.892 610.688 425.268 611.326 425.564V427H600.73C600.434 426.248 600.229 425.542 600.115 424.881C600.001 424.22 599.91 423.468 599.842 422.625C598.497 424.083 596.948 425.325 595.193 426.351C593.097 427.558 590.727 428.162 588.084 428.162C584.712 428.162 581.92 427.205 579.71 425.291C577.522 423.354 576.429 420.62 576.429 417.088C576.429 412.508 578.195 409.192 581.727 407.142C583.663 406.025 586.512 405.228 590.271 404.749L593.587 404.339C595.387 404.111 596.674 403.826 597.449 403.484C598.839 402.892 599.534 401.969 599.534 400.716C599.534 399.189 598.999 398.141 597.928 397.571C596.88 396.979 595.33 396.683 593.279 396.683C590.978 396.683 589.349 397.252 588.392 398.392C587.708 399.235 587.252 400.374 587.024 401.81H577.625C577.83 398.551 578.742 395.874 580.359 393.777ZM587.605 419.959C588.517 420.711 589.633 421.087 590.955 421.087C593.051 421.087 594.977 420.472 596.731 419.241C598.509 418.011 599.432 415.766 599.5 412.508V408.885C598.885 409.272 598.258 409.591 597.62 409.842C597.005 410.07 596.15 410.286 595.057 410.491L592.869 410.901C590.818 411.266 589.349 411.71 588.46 412.234C586.956 413.123 586.204 414.502 586.204 416.37C586.204 418.034 586.671 419.23 587.605 419.959ZM628.45 433.528C629.498 434.417 631.264 434.861 633.748 434.861C637.257 434.861 639.604 433.688 640.789 431.341C641.564 429.837 641.951 427.308 641.951 423.753V421.36C641.017 422.955 640.014 424.152 638.943 424.949C637.007 426.43 634.489 427.171 631.39 427.171C626.604 427.171 622.776 425.496 619.905 422.146C617.057 418.774 615.633 414.217 615.633 408.475C615.633 402.938 617.011 398.289 619.769 394.529C622.526 390.747 626.434 388.855 631.492 388.855C633.361 388.855 634.99 389.14 636.38 389.71C638.75 390.69 640.664 392.49 642.122 395.11V389.744H651.59V425.086C651.59 429.894 650.781 433.517 649.163 435.955C646.383 440.148 641.051 442.244 633.167 442.244C628.405 442.244 624.52 441.31 621.512 439.441C618.504 437.573 616.84 434.782 616.521 431.067H627.117C627.391 432.207 627.835 433.027 628.45 433.528ZM626.81 414.285C628.131 417.43 630.501 419.002 633.919 419.002C636.198 419.002 638.123 418.147 639.695 416.438C641.268 414.707 642.054 411.961 642.054 408.201C642.054 404.669 641.302 401.98 639.798 400.135C638.317 398.289 636.323 397.366 633.816 397.366C630.398 397.366 628.04 398.973 626.741 402.186C626.058 403.895 625.716 406.002 625.716 408.509C625.716 410.674 626.08 412.599 626.81 414.285ZM692.605 416.062C692.355 418.273 691.204 420.517 689.153 422.796C685.963 426.419 681.497 428.23 675.755 428.23C671.015 428.23 666.834 426.704 663.211 423.65C659.588 420.597 657.776 415.63 657.776 408.748C657.776 402.299 659.406 397.355 662.664 393.914C665.945 390.473 670.195 388.753 675.413 388.753C678.512 388.753 681.303 389.334 683.787 390.496C686.271 391.658 688.322 393.493 689.939 395.999C691.398 398.209 692.343 400.773 692.776 403.689C693.027 405.398 693.13 407.859 693.084 411.072H667.586C667.723 414.809 668.896 417.43 671.106 418.934C672.451 419.868 674.069 420.335 675.96 420.335C677.965 420.335 679.594 419.765 680.848 418.626C681.531 418.011 682.135 417.156 682.659 416.062H692.605ZM682.967 404.646C682.807 402.072 682.021 400.123 680.608 398.802C679.218 397.457 677.487 396.785 675.413 396.785C673.157 396.785 671.403 397.492 670.149 398.904C668.919 400.317 668.144 402.231 667.825 404.646H682.967ZM342.947 473.777C345.522 470.496 349.943 468.855 356.209 468.855C360.288 468.855 363.911 469.664 367.078 471.282C370.245 472.9 371.829 475.953 371.829 480.442V497.532C371.829 498.717 371.852 500.153 371.897 501.839C371.966 503.115 372.16 503.981 372.479 504.437C372.798 504.892 373.276 505.268 373.914 505.564V507H363.318C363.022 506.248 362.817 505.542 362.703 504.881C362.589 504.22 362.498 503.468 362.43 502.625C361.085 504.083 359.536 505.325 357.781 506.351C355.685 507.558 353.315 508.162 350.672 508.162C347.299 508.162 344.508 507.205 342.298 505.291C340.11 503.354 339.017 500.62 339.017 497.088C339.017 492.508 340.783 489.192 344.314 487.142C346.251 486.025 349.1 485.228 352.859 484.749L356.175 484.339C357.975 484.111 359.262 483.826 360.037 483.484C361.427 482.892 362.122 481.969 362.122 480.716C362.122 479.189 361.587 478.141 360.516 477.571C359.467 476.979 357.918 476.683 355.867 476.683C353.566 476.683 351.937 477.252 350.979 478.392C350.296 479.235 349.84 480.374 349.612 481.81H340.213C340.418 478.551 341.329 475.874 342.947 473.777ZM350.193 499.959C351.105 500.711 352.221 501.087 353.543 501.087C355.639 501.087 357.565 500.472 359.319 499.241C361.097 498.011 362.02 495.766 362.088 492.508V488.885C361.473 489.272 360.846 489.591 360.208 489.842C359.593 490.07 358.738 490.286 357.645 490.491L355.457 490.901C353.406 491.266 351.937 491.71 351.048 492.234C349.544 493.123 348.792 494.502 348.792 496.37C348.792 498.034 349.259 499.23 350.193 499.959ZM398.045 476.956C394.741 476.956 392.474 478.357 391.243 481.16C390.605 482.641 390.286 484.533 390.286 486.834V507H380.579V469.812H389.979V475.247C391.232 473.333 392.417 471.954 393.533 471.111C395.538 469.607 398.079 468.855 401.155 468.855C405.006 468.855 408.151 469.869 410.589 471.897C413.05 473.903 414.28 477.241 414.28 481.912V507H404.3V484.339C404.3 482.379 404.038 480.875 403.514 479.827C402.557 477.913 400.734 476.956 398.045 476.956ZM457.21 456.688V507H447.742V501.839C446.352 504.049 444.769 505.656 442.991 506.658C441.214 507.661 439.004 508.162 436.36 508.162C432.008 508.162 428.34 506.408 425.354 502.898C422.392 499.367 420.911 494.843 420.911 489.329C420.911 482.972 422.369 477.97 425.286 474.324C428.226 470.678 432.145 468.855 437.044 468.855C439.3 468.855 441.305 469.357 443.06 470.359C444.814 471.339 446.238 472.706 447.332 474.461V456.688H457.21ZM430.96 488.611C430.96 492.052 431.644 494.798 433.011 496.849C434.355 498.922 436.406 499.959 439.163 499.959C441.92 499.959 444.017 498.934 445.452 496.883C446.888 494.832 447.605 492.177 447.605 488.919C447.605 484.362 446.455 481.103 444.153 479.144C442.741 477.959 441.1 477.366 439.231 477.366C436.383 477.366 434.287 478.449 432.942 480.613C431.621 482.755 430.96 485.421 430.96 488.611ZM482.64 456.619H493.885L504.822 494.866L515.862 456.619H526.8L509.607 507H499.661L482.64 456.619ZM541.053 469.744V507H531.175V469.744H541.053ZM541.053 456.312V465.301H531.175V456.312H541.053ZM584.427 456.688V507H574.959V501.839C573.569 504.049 571.985 505.656 570.208 506.658C568.431 507.661 566.22 508.162 563.577 508.162C559.225 508.162 555.556 506.408 552.571 502.898C549.609 499.367 548.128 494.843 548.128 489.329C548.128 482.972 549.586 477.97 552.503 474.324C555.442 470.678 559.362 468.855 564.261 468.855C566.517 468.855 568.522 469.357 570.276 470.359C572.031 471.339 573.455 472.706 574.549 474.461V456.688H584.427ZM558.177 488.611C558.177 492.052 558.86 494.798 560.228 496.849C561.572 498.922 563.623 499.959 566.38 499.959C569.137 499.959 571.233 498.934 572.669 496.883C574.104 494.832 574.822 492.177 574.822 488.919C574.822 484.362 573.672 481.103 571.37 479.144C569.957 477.959 568.317 477.366 566.448 477.366C563.6 477.366 561.504 478.449 560.159 480.613C558.838 482.755 558.177 485.421 558.177 488.611ZM625.203 496.062C624.952 498.273 623.802 500.517 621.751 502.796C618.561 506.419 614.095 508.23 608.353 508.23C603.613 508.23 599.432 506.704 595.809 503.65C592.186 500.597 590.374 495.63 590.374 488.748C590.374 482.299 592.003 477.355 595.262 473.914C598.543 470.473 602.793 468.753 608.011 468.753C611.11 468.753 613.901 469.334 616.385 470.496C618.868 471.658 620.919 473.493 622.537 475.999C623.995 478.209 624.941 480.773 625.374 483.689C625.625 485.398 625.727 487.859 625.682 491.072H600.184C600.32 494.809 601.494 497.43 603.704 498.934C605.049 499.868 606.666 500.335 608.558 500.335C610.563 500.335 612.192 499.765 613.445 498.626C614.129 498.011 614.733 497.156 615.257 496.062H625.203ZM615.564 484.646C615.405 482.072 614.619 480.123 613.206 478.802C611.816 477.457 610.084 476.785 608.011 476.785C605.755 476.785 604 477.492 602.747 478.904C601.517 480.317 600.742 482.231 600.423 484.646H615.564ZM663.348 474.461C666.492 478.403 668.064 483.063 668.064 488.44C668.064 493.909 666.492 498.592 663.348 502.488C660.203 506.362 655.429 508.299 649.026 508.299C642.623 508.299 637.85 506.362 634.705 502.488C631.561 498.592 629.988 493.909 629.988 488.44C629.988 483.063 631.561 478.403 634.705 474.461C637.85 470.519 642.623 468.548 649.026 468.548C655.429 468.548 660.203 470.519 663.348 474.461ZM648.992 476.785C646.144 476.785 643.945 477.799 642.396 479.827C640.869 481.832 640.105 484.703 640.105 488.44C640.105 492.177 640.869 495.06 642.396 497.088C643.945 499.116 646.144 500.13 648.992 500.13C651.84 500.13 654.028 499.116 655.555 497.088C657.081 495.06 657.845 492.177 657.845 488.44C657.845 484.703 657.081 481.832 655.555 479.827C654.028 477.799 651.84 476.785 648.992 476.785Z" fill="#E85859"/>
<path d="M109.078 474.516C91.0443 474.516 78.3815 468.201 71.0898 455.57C63.8633 442.94 60.25 424.939 60.25 401.566C60.25 378.194 63.8633 360.16 71.0898 347.465C78.3815 334.77 91.0443 328.422 109.078 328.422C127.112 328.422 139.775 334.77 147.066 347.465C154.293 360.16 157.906 378.194 157.906 401.566C157.906 424.939 154.26 442.94 146.969 455.57C139.742 468.201 127.112 474.516 109.078 474.516ZM125.387 438.871C127.926 430.277 129.195 417.842 129.195 401.566C129.195 384.509 127.893 371.879 125.289 363.676C122.75 355.473 117.346 351.371 109.078 351.371C100.81 351.371 95.3411 355.473 92.6719 363.676C90.0026 371.879 88.668 384.509 88.668 401.566C88.668 417.842 90.0026 430.31 92.6719 438.969C95.3411 447.562 100.81 451.859 109.078 451.859C117.346 451.859 122.783 447.53 125.387 438.871ZM269.918 418.754V440.531H253.902V471H226.656V440.531H170.602V416.215L222.652 330.277H253.902V418.754H269.918ZM191.207 418.754H226.656V357.621L191.207 418.754Z" fill="#E85859" fill-opacity="0.8"/>
<path d="M290 53H297.353V60.2653H304.08V53H311.433V75H304.08V67.6334H297.353V75H290V53ZM321.102 60.2961H314.63V53H334.932V60.2961H328.457V75H321.104L321.102 60.2961ZM338.155 53H345.826L350.542 60.7293L355.25 53H362.92V75H355.596V64.0947L350.538 71.9165H350.412L345.349 64.0947V74.9985H338.154L338.155 53ZM366.579 53H373.934V67.7274H384.274V74.9985H366.579V53Z" fill="#E85859"/>
<g filter="url(#filter0_d_5189_11825)">
<path d="M389.81 82.479L380.171 190.467L336.841 202.479L293.63 190.483L284 82.479H389.81Z" fill="#E44D26"/>
<path d="M336.905 193.297L371.918 183.59L380.156 91.3093H336.905V193.297Z" fill="#F16529"/>
<path d="M318.165 117.803H336.904V104.563H303.689L304.006 108.118L307.262 144.62H336.905V131.368H319.376L318.165 117.803ZM321.151 151.237H307.853L309.709 172.035L336.843 179.562L336.904 179.546V165.769L336.846 165.784L322.094 161.801L321.153 151.237H321.151Z" fill="#EBEBEB"/>
<path d="M336.859 144.612H353.17L351.633 161.792L336.858 165.779V179.56L364.012 172.032L364.211 169.794L367.324 134.92L367.646 131.363H336.859V144.612ZM336.859 117.769V117.801H368.852L369.121 114.824L369.725 108.103L370.041 104.549H336.859V117.762V117.769Z" fill="white"/>
</g>
<path d="M533.881 59.583H523.425L534.299 71.3827V77H511.903V70.4226H522.775L511.903 58.623V53H533.881V59.583V59.583ZM507.463 59.583H497.007L507.88 71.3827V77H485.483V70.4226H496.357L485.483 58.623V53H507.463V59.583V59.583ZM481.303 59.8521H470.02V70.1479H481.303V77H462V53H481.303V59.8521V59.8521Z" fill="#E85859"/>
<g filter="url(#filter1_d_5189_11825)">
<path d="M454.63 191.347L445 83.3433H550.808L541.17 191.329L497.839 203.343L454.63 191.347V191.347Z" fill="#1572B6"/>
<path d="M497.906 194.161L532.918 184.454L541.155 92.175H497.906V194.161Z" fill="#33A9DC"/>
<path d="M497.905 131.304H515.433L516.644 117.74H497.905V104.494H531.121L530.803 108.047L527.548 144.549H497.905V131.304V131.304Z" fill="white"/>
<path d="M497.984 165.706L497.926 165.722L483.174 161.738L482.23 151.174H468.935L470.791 171.972L497.924 179.504L497.986 179.486V165.706H497.984Z" fill="#EBEBEB"/>
<path d="M514.307 143.989L512.711 161.729L497.938 165.716V179.498L525.093 171.972L525.293 169.734L527.598 143.989H514.307V143.989Z" fill="white"/>
<path d="M497.951 104.494V117.739H465.955L465.689 114.762L465.086 108.047L464.769 104.494H497.951ZM497.905 131.305V144.552H483.339L483.074 141.575L482.47 134.859L482.152 131.305H497.905V131.305Z" fill="#EBEBEB"/>
</g>
<defs>
<filter id="filter0_d_5189_11825" x="204" y="2.479" width="305.81" height="320" filterUnits="userSpaceOnUse" color-interpolation-filters="sRGB">
<feFlood flood-opacity="0" result="BackgroundImageFix"/>
<feColorMatrix in="SourceAlpha" type="matrix" values="0 0 0 0 0 0 0 0 0 0 0 0 0 0 0 0 0 0 127 0" result="hardAlpha"/>
<feOffset dx="20" dy="20"/>
<feGaussianBlur stdDeviation="50"/>
<feComposite in2="hardAlpha" operator="out"/>
<feColorMatrix type="matrix" values="0 0 0 0 0 0 0 0 0 0 0 0 0 0 0 0 0 0 0.25 0"/>
<feBlend mode="normal" in2="BackgroundImageFix" result="effect1_dropShadow_5189_11825"/>
<feBlend mode="normal" in="SourceGraphic" in2="effect1_dropShadow_5189_11825" result="shape"/>
</filter>
<filter id="filter1_d_5189_11825" x="365" y="3.34326" width="305.808" height="320" filterUnits="userSpaceOnUse" color-interpolation-filters="sRGB">
<feFlood flood-opacity="0" result="BackgroundImageFix"/>
<feColorMatrix in="SourceAlpha" type="matrix" values="0 0 0 0 0 0 0 0 0 0 0 0 0 0 0 0 0 0 127 0" result="hardAlpha"/>
<feOffset dx="20" dy="20"/>
<feGaussianBlur stdDeviation="50"/>
<feComposite in2="hardAlpha" operator="out"/>
<feColorMatrix type="matrix" values="0 0 0 0 0 0 0 0 0 0 0 0 0 0 0 0 0 0 0.25 0"/>
<feBlend mode="normal" in2="BackgroundImageFix" result="effect1_dropShadow_5189_11825"/>
<feBlend mode="normal" in="SourceGraphic" in2="effect1_dropShadow_5189_11825" result="shape"/>
</filter>
<linearGradient id="paint0_linear_5189_11825" x1="800" y1="1.57938e-05" x2="-2.41944" y2="596.747" gradientUnits="userSpaceOnUse">
<stop stop-color="#FFF4F4"/>
<stop offset="1" stop-color="#FFBFBF"/>
</linearGradient>
</defs>
</svg>
