<svg width="800" height="600" viewBox="0 0 800 600" fill="none" xmlns="http://www.w3.org/2000/svg">
<rect width="800" height="600" fill="url(#paint0_linear_5189_11951)"/>
<line x1="91" y1="218" x2="742" y2="218" stroke="#E85859" stroke-width="2"/>
<path d="M129.684 471H101.168V373.344H67.8672V354.398C76.6562 354.008 82.8086 353.422 86.3242 352.641C91.9232 351.404 96.4805 348.93 99.9961 345.219C102.405 342.68 104.228 339.294 105.465 335.062C106.181 332.523 106.539 330.635 106.539 329.398H129.684V471ZM269.918 418.754V440.531H253.902V471H226.656V440.531H170.602V416.215L222.652 330.277H253.902V418.754H269.918ZM191.207 418.754H226.656V357.621L191.207 418.754Z" fill="#E85859" fill-opacity="0.8"/>
<path d="M290 53H297.353V60.2653H304.08V53H311.433V75H304.08V67.6334H297.353V75H290V53ZM321.102 60.2961H314.63V53H334.932V60.2961H328.457V75H321.104L321.102 60.2961ZM338.155 53H345.826L350.542 60.7293L355.25 53H362.92V75H355.596V64.0947L350.538 71.9165H350.412L345.349 64.0947V74.9985H338.154L338.155 53ZM366.579 53H373.934V67.7274H384.274V74.9985H366.579V53Z" fill="#E85859"/>
<g filter="url(#filter0_d_5189_11951)">
<path d="M389.81 82.4785L380.171 190.466L336.841 202.479L293.63 190.483L284 82.4785H389.81Z" fill="#E44D26"/>
<path d="M336.905 193.296L371.918 183.589L380.156 91.3086H336.905V193.296Z" fill="#F16529"/>
<path d="M318.165 117.802H336.904V104.562H303.689L304.006 108.117L307.262 144.619H336.905V131.367H319.376L318.165 117.802ZM321.151 151.236H307.853L309.709 172.034L336.843 179.561L336.904 179.545V165.768L336.846 165.783L322.094 161.8L321.153 151.236H321.151Z" fill="#EBEBEB"/>
<path d="M336.859 144.611H353.17L351.633 161.791L336.858 165.778V179.559L364.012 172.031L364.211 169.793L367.324 134.92L367.646 131.363H336.859V144.611ZM336.859 117.768V117.801H368.852L369.121 114.823L369.725 108.102L370.041 104.548H336.859V117.762V117.768Z" fill="white"/>
</g>
<path d="M533.881 59.583H523.425L534.299 71.3827V77H511.903V70.4226H522.775L511.903 58.623V53H533.881V59.583V59.583ZM507.463 59.583H497.007L507.88 71.3827V77H485.483V70.4226H496.357L485.483 58.623V53H507.463V59.583V59.583ZM481.303 59.8521H470.02V70.1479H481.303V77H462V53H481.303V59.8521V59.8521Z" fill="#E85859"/>
<g filter="url(#filter1_d_5189_11951)">
<path d="M454.63 191.347L445 83.3438H550.808L541.17 191.329L497.839 203.344L454.63 191.347V191.347Z" fill="#1572B6"/>
<path d="M497.906 194.162L532.918 184.454L541.155 92.1758H497.906V194.162Z" fill="#33A9DC"/>
<path d="M497.905 131.304H515.433L516.644 117.741H497.905V104.494H531.121L530.803 108.048L527.548 144.55H497.905V131.304V131.304Z" fill="white"/>
<path d="M497.984 165.706L497.926 165.722L483.174 161.738L482.23 151.174H468.935L470.791 171.972L497.924 179.504L497.986 179.486V165.706H497.984Z" fill="#EBEBEB"/>
<path d="M514.307 143.989L512.711 161.729L497.938 165.717V179.498L525.093 171.972L525.293 169.734L527.598 143.989H514.307V143.989Z" fill="white"/>
<path d="M497.951 104.494V117.739H465.955L465.689 114.763L465.086 108.048L464.769 104.494H497.951ZM497.905 131.306V144.552H483.339L483.074 141.575L482.47 134.859L482.152 131.306H497.905V131.306Z" fill="#EBEBEB"/>
</g>
<path d="M339.039 316.777C335.816 319.727 331.695 321.201 326.676 321.201C320.465 321.201 315.582 319.209 312.027 315.225C308.473 311.221 306.695 305.732 306.695 298.76C306.695 291.221 308.717 285.41 312.76 281.328C316.275 277.773 320.748 275.996 326.178 275.996C333.443 275.996 338.756 278.379 342.115 283.145C343.971 285.82 344.967 288.506 345.104 291.201H336.08C335.494 289.131 334.742 287.568 333.824 286.514C332.184 284.639 329.752 283.701 326.529 283.701C323.248 283.701 320.66 285.029 318.766 287.686C316.871 290.322 315.924 294.062 315.924 298.906C315.924 303.75 316.92 307.383 318.912 309.805C320.924 312.207 323.473 313.408 326.559 313.408C329.723 313.408 332.135 312.373 333.795 310.303C334.713 309.189 335.475 307.52 336.08 305.293H345.016C344.234 310 342.242 313.828 339.039 316.777ZM367.604 313.76C369.732 313.76 371.461 313.525 372.789 313.057C375.309 312.158 376.568 310.488 376.568 308.047C376.568 306.621 375.943 305.518 374.693 304.736C373.443 303.975 371.48 303.301 368.805 302.715L364.234 301.689C359.742 300.674 356.637 299.57 354.918 298.379C352.008 296.387 350.553 293.271 350.553 289.033C350.553 285.166 351.959 281.953 354.771 279.395C357.584 276.836 361.715 275.557 367.164 275.557C371.715 275.557 375.592 276.768 378.795 279.189C382.018 281.592 383.707 285.088 383.863 289.678H375.191C375.035 287.08 373.902 285.234 371.793 284.141C370.387 283.418 368.639 283.057 366.549 283.057C364.225 283.057 362.369 283.525 360.982 284.463C359.596 285.4 358.902 286.709 358.902 288.389C358.902 289.932 359.586 291.084 360.953 291.846C361.832 292.354 363.707 292.949 366.578 293.633L374.02 295.42C377.281 296.201 379.742 297.246 381.402 298.555C383.98 300.586 385.27 303.525 385.27 307.373C385.27 311.318 383.756 314.6 380.729 317.217C377.721 319.814 373.463 321.113 367.955 321.113C362.33 321.113 357.906 319.834 354.684 317.275C351.461 314.697 349.85 311.162 349.85 306.67H358.463C358.736 308.643 359.273 310.117 360.074 311.094C361.539 312.871 364.049 313.76 367.604 313.76ZM407.623 313.76C409.752 313.76 411.48 313.525 412.809 313.057C415.328 312.158 416.588 310.488 416.588 308.047C416.588 306.621 415.963 305.518 414.713 304.736C413.463 303.975 411.5 303.301 408.824 302.715L404.254 301.689C399.762 300.674 396.656 299.57 394.938 298.379C392.027 296.387 390.572 293.271 390.572 289.033C390.572 285.166 391.979 281.953 394.791 279.395C397.604 276.836 401.734 275.557 407.184 275.557C411.734 275.557 415.611 276.768 418.814 279.189C422.037 281.592 423.727 285.088 423.883 289.678H415.211C415.055 287.08 413.922 285.234 411.812 284.141C410.406 283.418 408.658 283.057 406.568 283.057C404.244 283.057 402.389 283.525 401.002 284.463C399.615 285.4 398.922 286.709 398.922 288.389C398.922 289.932 399.605 291.084 400.973 291.846C401.852 292.354 403.727 292.949 406.598 293.633L414.039 295.42C417.301 296.201 419.762 297.246 421.422 298.555C424 300.586 425.289 303.525 425.289 307.373C425.289 311.318 423.775 314.6 420.748 317.217C417.74 319.814 413.482 321.113 407.975 321.113C402.35 321.113 397.926 319.834 394.703 317.275C391.48 314.697 389.869 311.162 389.869 306.67H398.482C398.756 308.643 399.293 310.117 400.094 311.094C401.559 312.871 404.068 313.76 407.623 313.76ZM443.072 311.27V320H434.195V311.27H443.072ZM434.195 298.057V289.326H443.072V298.057H434.195ZM487.252 320H468.648V276.816H487.252C489.928 276.855 492.154 277.168 493.932 277.754C496.959 278.75 499.41 280.576 501.285 283.232C502.789 285.381 503.814 287.705 504.361 290.205C504.908 292.705 505.182 295.088 505.182 297.354C505.182 303.096 504.029 307.959 501.725 311.943C498.6 317.314 493.775 320 487.252 320ZM493.961 287.832C492.574 285.488 489.83 284.316 485.729 284.316H477.408V312.5H485.729C489.986 312.5 492.955 310.4 494.635 306.201C495.553 303.896 496.012 301.152 496.012 297.969C496.012 293.574 495.328 290.195 493.961 287.832ZM527.389 295.771C524.029 295.771 521.773 296.865 520.621 299.053C519.977 300.283 519.654 302.178 519.654 304.736V320H511.246V288.066H519.215V293.633C520.504 291.504 521.627 290.049 522.584 289.268C524.146 287.959 526.178 287.305 528.678 287.305C528.834 287.305 528.961 287.314 529.059 287.334C529.176 287.334 529.42 287.344 529.791 287.363V295.918C529.264 295.859 528.795 295.82 528.385 295.801C527.975 295.781 527.643 295.771 527.389 295.771ZM535.914 291.523C538.121 288.711 541.91 287.305 547.281 287.305C550.777 287.305 553.883 287.998 556.598 289.385C559.312 290.771 560.67 293.389 560.67 297.236V311.885C560.67 312.9 560.689 314.131 560.729 315.576C560.787 316.67 560.953 317.412 561.227 317.803C561.5 318.193 561.91 318.516 562.457 318.77V320H553.375C553.121 319.355 552.945 318.75 552.848 318.184C552.75 317.617 552.672 316.973 552.613 316.25C551.461 317.5 550.133 318.564 548.629 319.443C546.832 320.479 544.801 320.996 542.535 320.996C539.645 320.996 537.252 320.176 535.357 318.535C533.482 316.875 532.545 314.531 532.545 311.504C532.545 307.578 534.059 304.736 537.086 302.979C538.746 302.021 541.188 301.338 544.41 300.928L547.252 300.576C548.795 300.381 549.898 300.137 550.562 299.844C551.754 299.336 552.35 298.545 552.35 297.471C552.35 296.162 551.891 295.264 550.973 294.775C550.074 294.268 548.746 294.014 546.988 294.014C545.016 294.014 543.619 294.502 542.799 295.479C542.213 296.201 541.822 297.178 541.627 298.408H533.57C533.746 295.615 534.527 293.32 535.914 291.523ZM542.125 313.965C542.906 314.609 543.863 314.932 544.996 314.932C546.793 314.932 548.443 314.404 549.947 313.35C551.471 312.295 552.262 310.371 552.32 307.578V304.473C551.793 304.805 551.256 305.078 550.709 305.293C550.182 305.488 549.449 305.674 548.512 305.85L546.637 306.201C544.879 306.514 543.619 306.895 542.857 307.344C541.568 308.105 540.924 309.287 540.924 310.889C540.924 312.314 541.324 313.34 542.125 313.965ZM592.34 320L587.33 296.738L582.262 320H573.59L564.625 288.066H573.59L578.57 310.977L583.17 288.066H591.637L596.5 311.064L601.48 288.066H610.182L600.924 320H592.34ZM623.395 288.066V320H614.928V288.066H623.395ZM623.395 276.553V284.258H614.928V276.553H623.395ZM646.539 294.248C643.707 294.248 641.764 295.449 640.709 297.852C640.162 299.121 639.889 300.742 639.889 302.715V320H631.568V288.125H639.625V292.783C640.699 291.143 641.715 289.961 642.672 289.238C644.391 287.949 646.568 287.305 649.205 287.305C652.506 287.305 655.201 288.174 657.291 289.912C659.4 291.631 660.455 294.492 660.455 298.496V320H651.9V300.576C651.9 298.896 651.676 297.607 651.227 296.709C650.406 295.068 648.844 294.248 646.539 294.248ZM677.213 325.596C678.111 326.357 679.625 326.738 681.754 326.738C684.762 326.738 686.773 325.732 687.789 323.721C688.453 322.432 688.785 320.264 688.785 317.217V315.166C687.984 316.533 687.125 317.559 686.207 318.242C684.547 319.512 682.389 320.146 679.732 320.146C675.631 320.146 672.35 318.711 669.889 315.84C667.447 312.949 666.227 309.043 666.227 304.121C666.227 299.375 667.408 295.391 669.771 292.168C672.135 288.926 675.484 287.305 679.82 287.305C681.422 287.305 682.818 287.549 684.01 288.037C686.041 288.877 687.682 290.42 688.932 292.666V288.066H697.047V318.359C697.047 322.48 696.354 325.586 694.967 327.676C692.584 331.27 688.014 333.066 681.256 333.066C677.174 333.066 673.844 332.266 671.266 330.664C668.688 329.062 667.262 326.67 666.988 323.486H676.07C676.305 324.463 676.686 325.166 677.213 325.596ZM675.807 309.102C676.939 311.797 678.971 313.145 681.9 313.145C683.854 313.145 685.504 312.412 686.852 310.947C688.199 309.463 688.873 307.109 688.873 303.887C688.873 300.859 688.229 298.555 686.939 296.973C685.67 295.391 683.961 294.6 681.812 294.6C678.883 294.6 676.861 295.977 675.748 298.73C675.162 300.195 674.869 302.002 674.869 304.15C674.869 306.006 675.182 307.656 675.807 309.102ZM308.57 345.816H317.594V381.236H338.98V389H308.57V345.816ZM353.16 357.066V389H344.693V357.066H353.16ZM353.16 345.553V353.258H344.693V345.553H353.16ZM376.305 363.248C373.473 363.248 371.529 364.449 370.475 366.852C369.928 368.121 369.654 369.742 369.654 371.715V389H361.334V357.125H369.391V361.783C370.465 360.143 371.48 358.961 372.438 358.238C374.156 356.949 376.334 356.305 378.971 356.305C382.271 356.305 384.967 357.174 387.057 358.912C389.166 360.631 390.221 363.492 390.221 367.496V389H381.666V369.576C381.666 367.896 381.441 366.607 380.992 365.709C380.172 364.068 378.609 363.248 376.305 363.248ZM425.289 379.625C425.074 381.52 424.088 383.443 422.33 385.396C419.596 388.502 415.768 390.055 410.846 390.055C406.783 390.055 403.199 388.746 400.094 386.129C396.988 383.512 395.436 379.254 395.436 373.355C395.436 367.828 396.832 363.59 399.625 360.641C402.438 357.691 406.08 356.217 410.553 356.217C413.209 356.217 415.602 356.715 417.73 357.711C419.859 358.707 421.617 360.279 423.004 362.428C424.254 364.322 425.064 366.52 425.436 369.02C425.65 370.484 425.738 372.594 425.699 375.348H403.844C403.961 378.551 404.967 380.797 406.861 382.086C408.014 382.887 409.4 383.287 411.021 383.287C412.74 383.287 414.137 382.799 415.211 381.822C415.797 381.295 416.314 380.562 416.764 379.625H425.289ZM417.027 369.84C416.891 367.633 416.217 365.963 415.006 364.83C413.814 363.678 412.33 363.102 410.553 363.102C408.619 363.102 407.115 363.707 406.041 364.918C404.986 366.129 404.322 367.77 404.049 369.84H417.027ZM453.355 358.531C455.855 360.133 457.291 362.887 457.662 366.793H449.312C449.195 365.719 448.893 364.869 448.404 364.244C447.486 363.111 445.924 362.545 443.717 362.545C441.9 362.545 440.602 362.828 439.82 363.395C439.059 363.961 438.678 364.625 438.678 365.387C438.678 366.344 439.088 367.037 439.908 367.467C440.729 367.916 443.629 368.688 448.609 369.781C451.93 370.562 454.42 371.744 456.08 373.326C457.721 374.928 458.541 376.93 458.541 379.332C458.541 382.496 457.359 385.084 454.996 387.096C452.652 389.088 449.02 390.084 444.098 390.084C439.078 390.084 435.367 389.029 432.965 386.92C430.582 384.791 429.391 382.086 429.391 378.805H437.857C438.033 380.289 438.414 381.344 439 381.969C440.035 383.082 441.949 383.639 444.742 383.639C446.383 383.639 447.682 383.395 448.639 382.906C449.615 382.418 450.104 381.686 450.104 380.709C450.104 379.771 449.713 379.059 448.932 378.57C448.15 378.082 445.25 377.242 440.23 376.051C436.617 375.152 434.068 374.029 432.584 372.682C431.1 371.354 430.357 369.439 430.357 366.939C430.357 363.99 431.51 361.461 433.814 359.352C436.139 357.223 439.4 356.158 443.6 356.158C447.584 356.158 450.836 356.949 453.355 358.531ZM482.652 360.523C484.859 357.711 488.648 356.305 494.02 356.305C497.516 356.305 500.621 356.998 503.336 358.385C506.051 359.771 507.408 362.389 507.408 366.236V380.885C507.408 381.9 507.428 383.131 507.467 384.576C507.525 385.67 507.691 386.412 507.965 386.803C508.238 387.193 508.648 387.516 509.195 387.77V389H500.113C499.859 388.355 499.684 387.75 499.586 387.184C499.488 386.617 499.41 385.973 499.352 385.25C498.199 386.5 496.871 387.564 495.367 388.443C493.57 389.479 491.539 389.996 489.273 389.996C486.383 389.996 483.99 389.176 482.096 387.535C480.221 385.875 479.283 383.531 479.283 380.504C479.283 376.578 480.797 373.736 483.824 371.979C485.484 371.021 487.926 370.338 491.148 369.928L493.99 369.576C495.533 369.381 496.637 369.137 497.301 368.844C498.492 368.336 499.088 367.545 499.088 366.471C499.088 365.162 498.629 364.264 497.711 363.775C496.812 363.268 495.484 363.014 493.727 363.014C491.754 363.014 490.357 363.502 489.537 364.479C488.951 365.201 488.561 366.178 488.365 367.408H480.309C480.484 364.615 481.266 362.32 482.652 360.523ZM488.863 382.965C489.645 383.609 490.602 383.932 491.734 383.932C493.531 383.932 495.182 383.404 496.686 382.35C498.209 381.295 499 379.371 499.059 376.578V373.473C498.531 373.805 497.994 374.078 497.447 374.293C496.92 374.488 496.188 374.674 495.25 374.85L493.375 375.201C491.617 375.514 490.357 375.895 489.596 376.344C488.307 377.105 487.662 378.287 487.662 379.889C487.662 381.314 488.062 382.34 488.863 382.965ZM529.879 363.248C527.047 363.248 525.104 364.449 524.049 366.852C523.502 368.121 523.229 369.742 523.229 371.715V389H514.908V357.125H522.965V361.783C524.039 360.143 525.055 358.961 526.012 358.238C527.73 356.949 529.908 356.305 532.545 356.305C535.846 356.305 538.541 357.174 540.631 358.912C542.74 360.631 543.795 363.492 543.795 367.496V389H535.24V369.576C535.24 367.896 535.016 366.607 534.566 365.709C533.746 364.068 532.184 363.248 529.879 363.248ZM580.592 345.875V389H572.477V384.576C571.285 386.471 569.928 387.848 568.404 388.707C566.881 389.566 564.986 389.996 562.721 389.996C558.99 389.996 555.846 388.492 553.287 385.484C550.748 382.457 549.479 378.58 549.479 373.854C549.479 368.404 550.729 364.117 553.229 360.992C555.748 357.867 559.107 356.305 563.307 356.305C565.24 356.305 566.959 356.734 568.463 357.594C569.967 358.434 571.188 359.605 572.125 361.109V345.875H580.592ZM558.092 373.238C558.092 376.188 558.678 378.541 559.85 380.299C561.002 382.076 562.76 382.965 565.123 382.965C567.486 382.965 569.283 382.086 570.514 380.328C571.744 378.57 572.359 376.295 572.359 373.502C572.359 369.596 571.373 366.803 569.4 365.123C568.189 364.107 566.783 363.6 565.182 363.6C562.74 363.6 560.943 364.527 559.791 366.383C558.658 368.219 558.092 370.504 558.092 373.238ZM324.244 451.76C326.373 451.76 328.102 451.525 329.43 451.057C331.949 450.158 333.209 448.488 333.209 446.047C333.209 444.621 332.584 443.518 331.334 442.736C330.084 441.975 328.121 441.301 325.445 440.715L320.875 439.689C316.383 438.674 313.277 437.57 311.559 436.379C308.648 434.387 307.193 431.271 307.193 427.033C307.193 423.166 308.6 419.953 311.412 417.395C314.225 414.836 318.355 413.557 323.805 413.557C328.355 413.557 332.232 414.768 335.436 417.189C338.658 419.592 340.348 423.088 340.504 427.678H331.832C331.676 425.08 330.543 423.234 328.434 422.141C327.027 421.418 325.279 421.057 323.189 421.057C320.865 421.057 319.01 421.525 317.623 422.463C316.236 423.4 315.543 424.709 315.543 426.389C315.543 427.932 316.227 429.084 317.594 429.846C318.473 430.354 320.348 430.949 323.219 431.633L330.66 433.42C333.922 434.201 336.383 435.246 338.043 436.555C340.621 438.586 341.91 441.525 341.91 445.373C341.91 449.318 340.396 452.6 337.369 455.217C334.361 457.814 330.104 459.113 324.596 459.113C318.971 459.113 314.547 457.834 311.324 455.275C308.102 452.697 306.49 449.162 306.49 444.67H315.104C315.377 446.643 315.914 448.117 316.715 449.094C318.18 450.871 320.689 451.76 324.244 451.76ZM362.535 452.053V458.293L358.58 458.439C354.635 458.576 351.939 457.893 350.494 456.389C349.557 455.432 349.088 453.957 349.088 451.965V432.307H344.635V426.359H349.088V417.453H357.35V426.359H362.535V432.307H357.35V449.182C357.35 450.49 357.516 451.311 357.848 451.643C358.18 451.955 359.195 452.111 360.895 452.111C361.148 452.111 361.412 452.111 361.686 452.111C361.979 452.092 362.262 452.072 362.535 452.053ZM380.875 449.621L387.467 426.066H396.344L385.387 457.473C383.277 463.527 381.607 467.277 380.377 468.723C379.146 470.188 376.686 470.92 372.994 470.92C372.252 470.92 371.656 470.91 371.207 470.891C370.758 470.891 370.084 470.861 369.186 470.803V464.123L370.24 464.182C371.061 464.221 371.842 464.191 372.584 464.094C373.326 463.996 373.951 463.771 374.459 463.42C374.947 463.088 375.396 462.395 375.807 461.34C376.236 460.285 376.412 459.641 376.334 459.406L364.615 426.066H373.902L380.875 449.621ZM401.471 414.816H409.82V458H401.471V414.816ZM426.578 426.066V458H418.111V426.066H426.578ZM426.578 414.553V422.258H418.111V414.553H426.578ZM449.723 432.248C446.891 432.248 444.947 433.449 443.893 435.852C443.346 437.121 443.072 438.742 443.072 440.715V458H434.752V426.125H442.809V430.783C443.883 429.143 444.898 427.961 445.855 427.238C447.574 425.949 449.752 425.305 452.389 425.305C455.689 425.305 458.385 426.174 460.475 427.912C462.584 429.631 463.639 432.492 463.639 436.496V458H455.084V438.576C455.084 436.896 454.859 435.607 454.41 434.709C453.59 433.068 452.027 432.248 449.723 432.248ZM480.396 463.596C481.295 464.357 482.809 464.738 484.938 464.738C487.945 464.738 489.957 463.732 490.973 461.721C491.637 460.432 491.969 458.264 491.969 455.217V453.166C491.168 454.533 490.309 455.559 489.391 456.242C487.73 457.512 485.572 458.146 482.916 458.146C478.814 458.146 475.533 456.711 473.072 453.84C470.631 450.949 469.41 447.043 469.41 442.121C469.41 437.375 470.592 433.391 472.955 430.168C475.318 426.926 478.668 425.305 483.004 425.305C484.605 425.305 486.002 425.549 487.193 426.037C489.225 426.877 490.865 428.42 492.115 430.666V426.066H500.23V456.359C500.23 460.48 499.537 463.586 498.15 465.676C495.768 469.27 491.197 471.066 484.439 471.066C480.357 471.066 477.027 470.266 474.449 468.664C471.871 467.062 470.445 464.67 470.172 461.486H479.254C479.488 462.463 479.869 463.166 480.396 463.596ZM478.99 447.102C480.123 449.797 482.154 451.145 485.084 451.145C487.037 451.145 488.688 450.412 490.035 448.947C491.383 447.463 492.057 445.109 492.057 441.887C492.057 438.859 491.412 436.555 490.123 434.973C488.854 433.391 487.145 432.6 484.996 432.6C482.066 432.6 480.045 433.977 478.932 436.73C478.346 438.195 478.053 440.002 478.053 442.15C478.053 444.006 478.365 445.656 478.99 447.102ZM328.287 527H308.717V483.816H329.693C334.986 483.895 338.736 485.428 340.943 488.416C342.271 490.252 342.936 492.449 342.936 495.008C342.936 497.645 342.271 499.764 340.943 501.365C340.201 502.264 339.107 503.084 337.662 503.826C339.869 504.627 341.529 505.896 342.643 507.635C343.775 509.373 344.342 511.482 344.342 513.963C344.342 516.521 343.697 518.816 342.408 520.848C341.588 522.195 340.562 523.328 339.332 524.246C337.945 525.301 336.305 526.023 334.41 526.414C332.535 526.805 330.494 527 328.287 527ZM328.082 507.986H317.33V519.5H327.936C329.83 519.5 331.305 519.246 332.359 518.738C334.273 517.801 335.23 516.004 335.23 513.348C335.23 511.102 334.303 509.559 332.447 508.719C331.412 508.25 329.957 508.006 328.082 507.986ZM332.564 499.754C333.736 499.051 334.322 497.791 334.322 495.975C334.322 493.963 333.541 492.635 331.979 491.99C330.631 491.541 328.912 491.316 326.822 491.316H317.33V500.838H327.936C329.83 500.838 331.373 500.477 332.564 499.754ZM377.887 499.109C380.582 502.488 381.93 506.482 381.93 511.092C381.93 515.779 380.582 519.793 377.887 523.133C375.191 526.453 371.1 528.113 365.611 528.113C360.123 528.113 356.031 526.453 353.336 523.133C350.641 519.793 349.293 515.779 349.293 511.092C349.293 506.482 350.641 502.488 353.336 499.109C356.031 495.73 360.123 494.041 365.611 494.041C371.1 494.041 375.191 495.73 377.887 499.109ZM365.582 501.102C363.141 501.102 361.256 501.971 359.928 503.709C358.619 505.428 357.965 507.889 357.965 511.092C357.965 514.295 358.619 516.766 359.928 518.504C361.256 520.242 363.141 521.111 365.582 521.111C368.023 521.111 369.898 520.242 371.207 518.504C372.516 516.766 373.17 514.295 373.17 511.092C373.17 507.889 372.516 505.428 371.207 503.709C369.898 501.971 368.023 501.102 365.582 501.102ZM403.99 502.771C400.631 502.771 398.375 503.865 397.223 506.053C396.578 507.283 396.256 509.178 396.256 511.736V527H387.848V495.066H395.816V500.633C397.105 498.504 398.229 497.049 399.186 496.268C400.748 494.959 402.779 494.305 405.279 494.305C405.436 494.305 405.562 494.314 405.66 494.334C405.777 494.334 406.021 494.344 406.393 494.363V502.918C405.865 502.859 405.396 502.82 404.986 502.801C404.576 502.781 404.244 502.771 403.99 502.771ZM440.377 483.875V527H432.262V522.576C431.07 524.471 429.713 525.848 428.189 526.707C426.666 527.566 424.771 527.996 422.506 527.996C418.775 527.996 415.631 526.492 413.072 523.484C410.533 520.457 409.264 516.58 409.264 511.854C409.264 506.404 410.514 502.117 413.014 498.992C415.533 495.867 418.893 494.305 423.092 494.305C425.025 494.305 426.744 494.734 428.248 495.594C429.752 496.434 430.973 497.605 431.91 499.109V483.875H440.377ZM417.877 511.238C417.877 514.188 418.463 516.541 419.635 518.299C420.787 520.076 422.545 520.965 424.908 520.965C427.271 520.965 429.068 520.086 430.299 518.328C431.529 516.57 432.145 514.295 432.145 511.502C432.145 507.596 431.158 504.803 429.186 503.123C427.975 502.107 426.568 501.6 424.967 501.6C422.525 501.6 420.729 502.527 419.576 504.383C418.443 506.219 417.877 508.504 417.877 511.238ZM475.328 517.625C475.113 519.52 474.127 521.443 472.369 523.396C469.635 526.502 465.807 528.055 460.885 528.055C456.822 528.055 453.238 526.746 450.133 524.129C447.027 521.512 445.475 517.254 445.475 511.355C445.475 505.828 446.871 501.59 449.664 498.641C452.477 495.691 456.119 494.217 460.592 494.217C463.248 494.217 465.641 494.715 467.77 495.711C469.898 496.707 471.656 498.279 473.043 500.428C474.293 502.322 475.104 504.52 475.475 507.02C475.689 508.484 475.777 510.594 475.738 513.348H453.883C454 516.551 455.006 518.797 456.9 520.086C458.053 520.887 459.439 521.287 461.061 521.287C462.779 521.287 464.176 520.799 465.25 519.822C465.836 519.295 466.354 518.562 466.803 517.625H475.328ZM467.066 507.84C466.93 505.633 466.256 503.963 465.045 502.83C463.854 501.678 462.369 501.102 460.592 501.102C458.658 501.102 457.154 501.707 456.08 502.918C455.025 504.129 454.361 505.77 454.088 507.84H467.066ZM497.447 502.771C494.088 502.771 491.832 503.865 490.68 506.053C490.035 507.283 489.713 509.178 489.713 511.736V527H481.305V495.066H489.273V500.633C490.562 498.504 491.686 497.049 492.643 496.268C494.205 494.959 496.236 494.305 498.736 494.305C498.893 494.305 499.02 494.314 499.117 494.334C499.234 494.334 499.479 494.344 499.85 494.363V502.918C499.322 502.859 498.854 502.82 498.443 502.801C498.033 502.781 497.701 502.771 497.447 502.771ZM526.773 496.531C529.273 498.133 530.709 500.887 531.08 504.793H522.73C522.613 503.719 522.311 502.869 521.822 502.244C520.904 501.111 519.342 500.545 517.135 500.545C515.318 500.545 514.02 500.828 513.238 501.395C512.477 501.961 512.096 502.625 512.096 503.387C512.096 504.344 512.506 505.037 513.326 505.467C514.146 505.916 517.047 506.688 522.027 507.781C525.348 508.562 527.838 509.744 529.498 511.326C531.139 512.928 531.959 514.93 531.959 517.332C531.959 520.496 530.777 523.084 528.414 525.096C526.07 527.088 522.438 528.084 517.516 528.084C512.496 528.084 508.785 527.029 506.383 524.92C504 522.791 502.809 520.086 502.809 516.805H511.275C511.451 518.289 511.832 519.344 512.418 519.969C513.453 521.082 515.367 521.639 518.16 521.639C519.801 521.639 521.1 521.395 522.057 520.906C523.033 520.418 523.521 519.686 523.521 518.709C523.521 517.771 523.131 517.059 522.35 516.57C521.568 516.082 518.668 515.242 513.648 514.051C510.035 513.152 507.486 512.029 506.002 510.682C504.518 509.354 503.775 507.439 503.775 504.939C503.775 501.99 504.928 499.461 507.232 497.352C509.557 495.223 512.818 494.158 517.018 494.158C521.002 494.158 524.254 494.949 526.773 496.531Z" fill="#E85859"/>
<defs>
<filter id="filter0_d_5189_11951" x="204" y="2.47852" width="305.81" height="320" filterUnits="userSpaceOnUse" color-interpolation-filters="sRGB">
<feFlood flood-opacity="0" result="BackgroundImageFix"/>
<feColorMatrix in="SourceAlpha" type="matrix" values="0 0 0 0 0 0 0 0 0 0 0 0 0 0 0 0 0 0 127 0" result="hardAlpha"/>
<feOffset dx="20" dy="20"/>
<feGaussianBlur stdDeviation="50"/>
<feComposite in2="hardAlpha" operator="out"/>
<feColorMatrix type="matrix" values="0 0 0 0 0 0 0 0 0 0 0 0 0 0 0 0 0 0 0.25 0"/>
<feBlend mode="normal" in2="BackgroundImageFix" result="effect1_dropShadow_5189_11951"/>
<feBlend mode="normal" in="SourceGraphic" in2="effect1_dropShadow_5189_11951" result="shape"/>
</filter>
<filter id="filter1_d_5189_11951" x="365" y="3.34375" width="305.808" height="320" filterUnits="userSpaceOnUse" color-interpolation-filters="sRGB">
<feFlood flood-opacity="0" result="BackgroundImageFix"/>
<feColorMatrix in="SourceAlpha" type="matrix" values="0 0 0 0 0 0 0 0 0 0 0 0 0 0 0 0 0 0 127 0" result="hardAlpha"/>
<feOffset dx="20" dy="20"/>
<feGaussianBlur stdDeviation="50"/>
<feComposite in2="hardAlpha" operator="out"/>
<feColorMatrix type="matrix" values="0 0 0 0 0 0 0 0 0 0 0 0 0 0 0 0 0 0 0.25 0"/>
<feBlend mode="normal" in2="BackgroundImageFix" result="effect1_dropShadow_5189_11951"/>
<feBlend mode="normal" in="SourceGraphic" in2="effect1_dropShadow_5189_11951" result="shape"/>
</filter>
<linearGradient id="paint0_linear_5189_11951" x1="800" y1="0" x2="1.78814e-05" y2="600" gradientUnits="userSpaceOnUse">
<stop stop-color="#FFF4F4"/>
<stop offset="1" stop-color="#FFBFBF"/>
</linearGradient>
</defs>
</svg>
