<svg width="800" height="600" viewBox="0 0 800 600" fill="none" xmlns="http://www.w3.org/2000/svg">
<rect width="800" height="600" fill="url(#paint0_linear_5189_11915)"/>
<line x1="91" y1="218" x2="742" y2="218" stroke="#E85859" stroke-width="2"/>
<path d="M109.078 474.516C91.0443 474.516 78.3815 468.201 71.0898 455.57C63.8633 442.94 60.25 424.939 60.25 401.566C60.25 378.194 63.8633 360.16 71.0898 347.465C78.3815 334.77 91.0443 328.422 109.078 328.422C127.112 328.422 139.775 334.77 147.066 347.465C154.293 360.16 157.906 378.194 157.906 401.566C157.906 424.939 154.26 442.94 146.969 455.57C139.742 468.201 127.112 474.516 109.078 474.516ZM125.387 438.871C127.926 430.277 129.195 417.842 129.195 401.566C129.195 384.509 127.893 371.879 125.289 363.676C122.75 355.473 117.346 351.371 109.078 351.371C100.81 351.371 95.3411 355.473 92.6719 363.676C90.0026 371.879 88.668 384.509 88.668 401.566C88.668 417.842 90.0026 430.31 92.6719 438.969C95.3411 447.562 100.81 451.859 109.078 451.859C117.346 451.859 122.783 447.53 125.387 438.871ZM182.809 462.113C174.671 453.78 170.602 443.656 170.602 431.742C170.602 423.799 172.392 416.605 175.973 410.16C179.618 403.715 184.924 398.865 191.891 395.609C185.055 391.052 180.595 386.137 178.512 380.863C176.493 375.525 175.484 370.544 175.484 365.922C175.484 355.635 179.358 346.879 187.105 339.652C194.853 332.361 205.79 328.715 219.918 328.715C234.046 328.715 244.983 332.361 252.73 339.652C260.478 346.879 264.352 355.635 264.352 365.922C264.352 370.544 263.31 375.525 261.227 380.863C259.208 386.137 254.781 390.727 247.945 394.633C254.911 398.539 260.152 403.715 263.668 410.16C267.184 416.605 268.941 423.799 268.941 431.742C268.941 443.656 264.514 453.812 255.66 462.211C246.871 470.544 234.566 474.711 218.746 474.711C202.926 474.711 190.947 470.512 182.809 462.113ZM199.508 429.887C199.508 436.853 201.298 442.257 204.879 446.098C208.525 449.939 213.538 451.859 219.918 451.859C226.298 451.859 231.279 449.939 234.859 446.098C238.505 442.257 240.328 436.853 240.328 429.887C240.328 422.66 238.473 417.191 234.762 413.48C231.116 409.704 226.168 407.816 219.918 407.816C213.668 407.816 208.688 409.704 204.977 413.48C201.331 417.191 199.508 422.66 199.508 429.887ZM206.832 381.645C209.957 384.9 214.319 386.527 219.918 386.527C225.582 386.527 229.944 384.9 233.004 381.645C236.129 378.389 237.691 374.19 237.691 369.047C237.691 363.448 236.129 359.086 233.004 355.961C229.944 352.771 225.582 351.176 219.918 351.176C214.319 351.176 209.924 352.771 206.734 355.961C203.609 359.086 202.047 363.448 202.047 369.047C202.047 374.19 203.642 378.389 206.832 381.645Z" fill="#E85859" fill-opacity="0.8"/>
<path d="M290 53H297.353V60.2653H304.08V53H311.433V75H304.08V67.6334H297.353V75H290V53ZM321.102 60.2961H314.63V53H334.932V60.2961H328.457V75H321.104L321.102 60.2961ZM338.155 53H345.826L350.542 60.7293L355.25 53H362.92V75H355.596V64.0947L350.538 71.9165H350.412L345.349 64.0947V74.9985H338.154L338.155 53ZM366.579 53H373.934V67.7274H384.274V74.9985H366.579V53Z" fill="#E85859"/>
<g filter="url(#filter0_d_5189_11915)">
<path d="M389.81 82.479L380.171 190.467L336.841 202.479L293.63 190.483L284 82.479H389.81Z" fill="#E44D26"/>
<path d="M336.905 193.296L371.918 183.59L380.156 91.3091H336.905V193.296Z" fill="#F16529"/>
<path d="M318.165 117.803H336.904V104.563H303.689L304.006 108.118L307.262 144.62H336.905V131.368H319.376L318.165 117.803ZM321.151 151.237H307.853L309.709 172.035L336.843 179.562L336.904 179.546V165.769L336.846 165.784L322.094 161.801L321.153 151.237H321.151Z" fill="#EBEBEB"/>
<path d="M336.859 144.612H353.17L351.633 161.792L336.858 165.779V179.56L364.012 172.032L364.211 169.794L367.324 134.921L367.646 131.364H336.859V144.612ZM336.859 117.769V117.802H368.852L369.121 114.824L369.725 108.103L370.041 104.549H336.859V117.763V117.769Z" fill="white"/>
</g>
<path d="M533.881 59.583H523.425L534.299 71.3827V77H511.903V70.4226H522.775L511.903 58.623V53H533.881V59.583V59.583ZM507.463 59.583H497.007L507.88 71.3827V77H485.483V70.4226H496.357L485.483 58.623V53H507.463V59.583V59.583ZM481.303 59.8521H470.02V70.1479H481.303V77H462V53H481.303V59.8521V59.8521Z" fill="#E85859"/>
<g filter="url(#filter1_d_5189_11915)">
<path d="M454.63 191.347L445 83.3433H550.808L541.17 191.329L497.839 203.343L454.63 191.347V191.347Z" fill="#1572B6"/>
<path d="M497.906 194.161L532.918 184.454L541.155 92.1748H497.906V194.161Z" fill="#33A9DC"/>
<path d="M497.905 131.304H515.433L516.644 117.74H497.905V104.494H531.121L530.803 108.047L527.548 144.549H497.905V131.304V131.304Z" fill="white"/>
<path d="M497.984 165.706L497.926 165.722L483.174 161.738L482.23 151.174H468.935L470.791 171.972L497.924 179.504L497.986 179.486V165.706H497.984Z" fill="#EBEBEB"/>
<path d="M514.307 143.989L512.711 161.729L497.938 165.717V179.498L525.093 171.972L525.293 169.734L527.598 143.989H514.307V143.989Z" fill="white"/>
<path d="M497.951 104.494V117.739H465.955L465.689 114.762L465.086 108.047L464.769 104.494H497.951ZM497.905 131.305V144.552H483.339L483.074 141.575L482.47 134.859L482.152 131.305H497.905V131.305Z" fill="#EBEBEB"/>
</g>
<path d="M339.376 387V364.51H319.688V387H309.264V336.619H319.688V355.828H339.376V336.619H349.835V387H339.376ZM396.524 336.619V345.54H381.451V387H370.855V345.54H355.714V336.619H396.524ZM412.35 387H402.54V336.619H417.853L427.013 376.233L436.104 336.619H451.246V387H441.437V352.923C441.437 351.943 441.448 350.576 441.471 348.821C441.493 347.044 441.505 345.677 441.505 344.72L431.969 387H421.749L412.281 344.72C412.281 345.677 412.293 347.044 412.315 348.821C412.338 350.576 412.35 351.943 412.35 352.923V387ZM461.021 336.619H471.549V377.942H496.5V387H461.021V336.619ZM516.769 376.814V387H506.412V376.814H516.769ZM506.412 361.399V351.214H516.769V361.399H506.412ZM344.879 463.24C341.119 466.681 336.311 468.401 330.455 468.401C323.209 468.401 317.512 466.077 313.365 461.429C309.218 456.757 307.145 450.354 307.145 442.22C307.145 433.424 309.503 426.645 314.22 421.883C318.321 417.736 323.539 415.662 329.874 415.662C338.351 415.662 344.549 418.442 348.468 424.002C350.632 427.124 351.795 430.257 351.954 433.401H341.427C340.743 430.986 339.866 429.163 338.795 427.933C336.881 425.745 334.044 424.651 330.284 424.651C326.456 424.651 323.437 426.201 321.227 429.3C319.016 432.376 317.911 436.74 317.911 442.391C317.911 448.042 319.073 452.28 321.397 455.105C323.744 457.908 326.718 459.31 330.318 459.31C334.01 459.31 336.824 458.102 338.761 455.687C339.832 454.388 340.72 452.439 341.427 449.842H351.852C350.94 455.333 348.616 459.799 344.879 463.24ZM377.862 438.733C373.943 438.733 371.311 440.009 369.967 442.562C369.215 443.997 368.839 446.207 368.839 449.192V467H359.029V429.744H368.326V436.238C369.83 433.755 371.14 432.057 372.257 431.146C374.08 429.619 376.45 428.855 379.366 428.855C379.549 428.855 379.697 428.867 379.811 428.89C379.947 428.89 380.232 428.901 380.665 428.924V438.904C380.05 438.836 379.503 438.79 379.024 438.768C378.546 438.745 378.159 438.733 377.862 438.733ZM418.297 456.062C418.046 458.273 416.896 460.517 414.845 462.796C411.655 466.419 407.188 468.23 401.446 468.23C396.707 468.23 392.525 466.704 388.902 463.65C385.279 460.597 383.468 455.63 383.468 448.748C383.468 442.299 385.097 437.355 388.355 433.914C391.637 430.473 395.886 428.753 401.104 428.753C404.203 428.753 406.995 429.334 409.479 430.496C411.962 431.658 414.013 433.493 415.631 435.999C417.089 438.209 418.035 440.773 418.468 443.689C418.718 445.398 418.821 447.859 418.775 451.072H393.277C393.414 454.809 394.588 457.43 396.798 458.934C398.142 459.868 399.76 460.335 401.651 460.335C403.657 460.335 405.286 459.765 406.539 458.626C407.223 458.011 407.826 457.156 408.351 456.062H418.297ZM408.658 444.646C408.499 442.072 407.713 440.123 406.3 438.802C404.91 437.457 403.178 436.785 401.104 436.785C398.849 436.785 397.094 437.492 395.841 438.904C394.61 440.317 393.836 442.231 393.517 444.646H408.658ZM426.773 433.777C429.348 430.496 433.769 428.855 440.035 428.855C444.114 428.855 447.737 429.664 450.904 431.282C454.072 432.9 455.655 435.953 455.655 440.442V457.532C455.655 458.717 455.678 460.153 455.724 461.839C455.792 463.115 455.986 463.981 456.305 464.437C456.624 464.892 457.102 465.268 457.74 465.564V467H447.145C446.848 466.248 446.643 465.542 446.529 464.881C446.415 464.22 446.324 463.468 446.256 462.625C444.911 464.083 443.362 465.325 441.607 466.351C439.511 467.558 437.141 468.162 434.498 468.162C431.126 468.162 428.334 467.205 426.124 465.291C423.937 463.354 422.843 460.62 422.843 457.088C422.843 452.508 424.609 449.192 428.141 447.142C430.077 446.025 432.926 445.228 436.686 444.749L440.001 444.339C441.801 444.111 443.089 443.826 443.863 443.484C445.253 442.892 445.948 441.969 445.948 440.716C445.948 439.189 445.413 438.141 444.342 437.571C443.294 436.979 441.744 436.683 439.693 436.683C437.392 436.683 435.763 437.252 434.806 438.392C434.122 439.235 433.666 440.374 433.438 441.81H424.039C424.244 438.551 425.156 435.874 426.773 433.777ZM434.02 459.959C434.931 460.711 436.048 461.087 437.369 461.087C439.465 461.087 441.391 460.472 443.146 459.241C444.923 458.011 445.846 455.766 445.914 452.508V448.885C445.299 449.272 444.672 449.591 444.034 449.842C443.419 450.07 442.564 450.286 441.471 450.491L439.283 450.901C437.232 451.266 435.763 451.71 434.874 452.234C433.37 453.123 432.618 454.502 432.618 456.37C432.618 458.034 433.085 459.23 434.02 459.959ZM481.393 460.062V467.342L476.778 467.513C472.175 467.672 469.031 466.875 467.345 465.12C466.251 464.004 465.704 462.283 465.704 459.959V437.024H460.509V430.086H465.704V419.695H475.343V430.086H481.393V437.024H475.343V456.712C475.343 458.239 475.536 459.196 475.924 459.583C476.311 459.948 477.496 460.13 479.479 460.13C479.775 460.13 480.082 460.13 480.401 460.13C480.743 460.107 481.074 460.084 481.393 460.062ZM519.537 456.062C519.286 458.273 518.136 460.517 516.085 462.796C512.895 466.419 508.429 468.23 502.687 468.23C497.947 468.23 493.766 466.704 490.143 463.65C486.52 460.597 484.708 455.63 484.708 448.748C484.708 442.299 486.337 437.355 489.596 433.914C492.877 430.473 497.127 428.753 502.345 428.753C505.444 428.753 508.235 429.334 510.719 430.496C513.202 431.658 515.253 433.493 516.871 435.999C518.329 438.209 519.275 440.773 519.708 443.689C519.959 445.398 520.061 447.859 520.016 451.072H494.518C494.654 454.809 495.828 457.43 498.038 458.934C499.382 459.868 501 460.335 502.892 460.335C504.897 460.335 506.526 459.765 507.779 458.626C508.463 458.011 509.067 457.156 509.591 456.062H519.537ZM509.898 444.646C509.739 442.072 508.953 440.123 507.54 438.802C506.15 437.457 504.418 436.785 502.345 436.785C500.089 436.785 498.334 437.492 497.081 438.904C495.851 440.317 495.076 442.231 494.757 444.646H509.898ZM582.599 425.54H557.34V437.127H579.454V445.877H557.34V467H546.881V416.688H582.599V425.54ZM619.957 434.461C623.102 438.403 624.674 443.063 624.674 448.44C624.674 453.909 623.102 458.592 619.957 462.488C616.812 466.362 612.039 468.299 605.636 468.299C599.233 468.299 594.459 466.362 591.314 462.488C588.17 458.592 586.598 453.909 586.598 448.44C586.598 443.063 588.17 438.403 591.314 434.461C594.459 430.519 599.233 428.548 605.636 428.548C612.039 428.548 616.812 430.519 619.957 434.461ZM605.602 436.785C602.753 436.785 600.554 437.799 599.005 439.827C597.478 441.832 596.715 444.703 596.715 448.44C596.715 452.177 597.478 455.06 599.005 457.088C600.554 459.116 602.753 460.13 605.602 460.13C608.45 460.13 610.637 459.116 612.164 457.088C613.691 455.06 614.454 452.177 614.454 448.44C614.454 444.703 613.691 441.832 612.164 439.827C610.637 437.799 608.45 436.785 605.602 436.785ZM650.411 438.733C646.492 438.733 643.86 440.009 642.516 442.562C641.764 443.997 641.388 446.207 641.388 449.192V467H631.578V429.744H640.875V436.238C642.379 433.755 643.689 432.057 644.806 431.146C646.629 429.619 648.998 428.855 651.915 428.855C652.097 428.855 652.245 428.867 652.359 428.89C652.496 428.89 652.781 428.901 653.214 428.924V438.904C652.599 438.836 652.052 438.79 651.573 438.768C651.095 438.745 650.707 438.733 650.411 438.733ZM679.874 439.998C679.054 438.198 677.447 437.298 675.055 437.298C672.275 437.298 670.406 438.198 669.449 439.998C668.925 441.023 668.663 442.55 668.663 444.578V467H658.785V429.812H668.253V435.247C669.461 433.31 670.6 431.932 671.671 431.111C673.562 429.653 676.012 428.924 679.02 428.924C681.868 428.924 684.169 429.55 685.924 430.804C687.337 431.966 688.408 433.458 689.137 435.281C690.413 433.094 691.996 431.487 693.888 430.462C695.893 429.437 698.126 428.924 700.587 428.924C702.228 428.924 703.845 429.243 705.44 429.881C707.035 430.519 708.482 431.635 709.781 433.23C710.829 434.529 711.536 436.124 711.9 438.016C712.128 439.269 712.242 441.103 712.242 443.519L712.174 467H702.193V443.279C702.193 441.867 701.965 440.704 701.51 439.793C700.644 438.061 699.049 437.195 696.725 437.195C694.036 437.195 692.179 438.312 691.153 440.545C690.629 441.73 690.367 443.154 690.367 444.817V467H680.558V444.817C680.558 442.607 680.33 441.001 679.874 439.998ZM746.9 431.453C749.817 433.322 751.492 436.535 751.925 441.092H742.184C742.047 439.839 741.694 438.847 741.124 438.118C740.053 436.797 738.23 436.136 735.655 436.136C733.536 436.136 732.021 436.466 731.109 437.127C730.221 437.788 729.776 438.562 729.776 439.451C729.776 440.568 730.255 441.377 731.212 441.878C732.169 442.402 735.553 443.302 741.363 444.578C745.237 445.49 748.142 446.868 750.079 448.714C751.993 450.582 752.95 452.918 752.95 455.721C752.95 459.412 751.572 462.431 748.814 464.778C746.08 467.103 741.842 468.265 736.1 468.265C730.243 468.265 725.914 467.034 723.111 464.573C720.331 462.09 718.941 458.934 718.941 455.105H728.819C729.024 456.837 729.469 458.068 730.152 458.797C731.36 460.096 733.593 460.745 736.852 460.745C738.766 460.745 740.281 460.46 741.397 459.891C742.537 459.321 743.106 458.466 743.106 457.327C743.106 456.233 742.651 455.402 741.739 454.832C740.828 454.262 737.444 453.283 731.588 451.893C727.372 450.844 724.399 449.534 722.667 447.962C720.935 446.412 720.069 444.179 720.069 441.263C720.069 437.822 721.414 434.871 724.103 432.41C726.814 429.926 730.619 428.685 735.519 428.685C740.167 428.685 743.961 429.607 746.9 431.453Z" fill="#E85859"/>
<defs>
<filter id="filter0_d_5189_11915" x="204" y="2.479" width="305.81" height="320" filterUnits="userSpaceOnUse" color-interpolation-filters="sRGB">
<feFlood flood-opacity="0" result="BackgroundImageFix"/>
<feColorMatrix in="SourceAlpha" type="matrix" values="0 0 0 0 0 0 0 0 0 0 0 0 0 0 0 0 0 0 127 0" result="hardAlpha"/>
<feOffset dx="20" dy="20"/>
<feGaussianBlur stdDeviation="50"/>
<feComposite in2="hardAlpha" operator="out"/>
<feColorMatrix type="matrix" values="0 0 0 0 0 0 0 0 0 0 0 0 0 0 0 0 0 0 0.25 0"/>
<feBlend mode="normal" in2="BackgroundImageFix" result="effect1_dropShadow_5189_11915"/>
<feBlend mode="normal" in="SourceGraphic" in2="effect1_dropShadow_5189_11915" result="shape"/>
</filter>
<filter id="filter1_d_5189_11915" x="365" y="3.34326" width="305.808" height="320" filterUnits="userSpaceOnUse" color-interpolation-filters="sRGB">
<feFlood flood-opacity="0" result="BackgroundImageFix"/>
<feColorMatrix in="SourceAlpha" type="matrix" values="0 0 0 0 0 0 0 0 0 0 0 0 0 0 0 0 0 0 127 0" result="hardAlpha"/>
<feOffset dx="20" dy="20"/>
<feGaussianBlur stdDeviation="50"/>
<feComposite in2="hardAlpha" operator="out"/>
<feColorMatrix type="matrix" values="0 0 0 0 0 0 0 0 0 0 0 0 0 0 0 0 0 0 0.25 0"/>
<feBlend mode="normal" in2="BackgroundImageFix" result="effect1_dropShadow_5189_11915"/>
<feBlend mode="normal" in="SourceGraphic" in2="effect1_dropShadow_5189_11915" result="shape"/>
</filter>
<linearGradient id="paint0_linear_5189_11915" x1="800" y1="1.57938e-05" x2="-2.41944" y2="596.747" gradientUnits="userSpaceOnUse">
<stop stop-color="#FFF4F4"/>
<stop offset="1" stop-color="#FFBFBF"/>
</linearGradient>
</defs>
</svg>
