<svg width="800" height="600" viewBox="0 0 800 600" fill="none" xmlns="http://www.w3.org/2000/svg">
<g clip-path="url(#clip0_5188_12777)">
<rect width="800" height="600" fill="url(#paint0_linear_5188_12777)"/>
<circle cx="80" cy="299" r="173" fill="white"/>
<path d="M294.109 281H282.898V223.422H300.398L310.867 268.695L321.258 223.422H338.562V281H327.352V242.055C327.352 240.935 327.365 239.372 327.391 237.367C327.417 235.336 327.43 233.773 327.43 232.68L316.531 281H304.852L294.031 232.68C294.031 233.773 294.044 235.336 294.07 237.367C294.096 239.372 294.109 240.935 294.109 242.055V281ZM350.438 243.031C353.38 239.281 358.432 237.406 365.594 237.406C370.255 237.406 374.396 238.331 378.016 240.18C381.635 242.029 383.445 245.518 383.445 250.648V270.18C383.445 271.534 383.471 273.174 383.523 275.102C383.602 276.56 383.823 277.549 384.188 278.07C384.552 278.591 385.099 279.021 385.828 279.359V281H373.719C373.38 280.141 373.146 279.333 373.016 278.578C372.885 277.823 372.781 276.964 372.703 276C371.167 277.667 369.396 279.086 367.391 280.258C364.995 281.638 362.286 282.328 359.266 282.328C355.411 282.328 352.221 281.234 349.695 279.047C347.195 276.833 345.945 273.708 345.945 269.672C345.945 264.438 347.964 260.648 352 258.305C354.214 257.029 357.469 256.117 361.766 255.57L365.555 255.102C367.612 254.841 369.083 254.516 369.969 254.125C371.557 253.448 372.352 252.393 372.352 250.961C372.352 249.216 371.74 248.018 370.516 247.367C369.318 246.69 367.547 246.352 365.203 246.352C362.573 246.352 360.711 247.003 359.617 248.305C358.836 249.268 358.315 250.57 358.055 252.211H347.312C347.547 248.487 348.589 245.427 350.438 243.031ZM358.719 272.953C359.76 273.812 361.036 274.242 362.547 274.242C364.943 274.242 367.143 273.539 369.148 272.133C371.18 270.727 372.234 268.161 372.312 264.438V260.297C371.609 260.74 370.893 261.104 370.164 261.391C369.461 261.651 368.484 261.898 367.234 262.133L364.734 262.602C362.391 263.018 360.711 263.526 359.695 264.125C357.977 265.141 357.117 266.716 357.117 268.852C357.117 270.753 357.651 272.12 358.719 272.953ZM430.203 253.695H418.797C418.589 252.107 418.055 250.674 417.195 249.398C415.945 247.68 414.005 246.82 411.375 246.82C407.625 246.82 405.06 248.682 403.68 252.406C402.951 254.385 402.586 257.016 402.586 260.297C402.586 263.422 402.951 265.935 403.68 267.836C405.008 271.378 407.508 273.148 411.18 273.148C413.784 273.148 415.633 272.445 416.727 271.039C417.82 269.633 418.484 267.81 418.719 265.57H430.086C429.826 268.956 428.602 272.159 426.414 275.18C422.924 280.049 417.755 282.484 410.906 282.484C404.057 282.484 399.018 280.453 395.789 276.391C392.56 272.328 390.945 267.055 390.945 260.57C390.945 253.253 392.729 247.562 396.297 243.5C399.865 239.438 404.786 237.406 411.062 237.406C416.401 237.406 420.763 238.604 424.148 241C427.56 243.396 429.578 247.628 430.203 253.695ZM486.531 282.602C478.302 282.602 472.013 280.362 467.664 275.883C461.831 270.388 458.914 262.471 458.914 252.133C458.914 241.586 461.831 233.669 467.664 228.383C472.013 223.904 478.302 221.664 486.531 221.664C494.76 221.664 501.049 223.904 505.398 228.383C511.206 233.669 514.109 241.586 514.109 252.133C514.109 262.471 511.206 270.388 505.398 275.883C501.049 280.362 494.76 282.602 486.531 282.602ZM497.898 267.133C500.685 263.617 502.078 258.617 502.078 252.133C502.078 245.674 500.672 240.688 497.859 237.172C495.073 233.63 491.297 231.859 486.531 231.859C481.766 231.859 477.964 233.617 475.125 237.133C472.286 240.648 470.867 245.648 470.867 252.133C470.867 258.617 472.286 263.617 475.125 267.133C477.964 270.648 481.766 272.406 486.531 272.406C491.297 272.406 495.086 270.648 497.898 267.133ZM544.227 272.68C547.065 272.68 549.37 272.367 551.141 271.742C554.5 270.544 556.18 268.318 556.18 265.062C556.18 263.161 555.346 261.69 553.68 260.648C552.013 259.633 549.396 258.734 545.828 257.953L539.734 256.586C533.745 255.232 529.604 253.76 527.312 252.172C523.432 249.516 521.492 245.362 521.492 239.711C521.492 234.555 523.367 230.271 527.117 226.859C530.867 223.448 536.375 221.742 543.641 221.742C549.708 221.742 554.878 223.357 559.148 226.586C563.445 229.789 565.698 234.451 565.906 240.57H554.344C554.135 237.107 552.625 234.646 549.812 233.188C547.938 232.224 545.607 231.742 542.82 231.742C539.721 231.742 537.247 232.367 535.398 233.617C533.549 234.867 532.625 236.612 532.625 238.852C532.625 240.909 533.536 242.445 535.359 243.461C536.531 244.138 539.031 244.932 542.859 245.844L552.781 248.227C557.13 249.268 560.411 250.661 562.625 252.406C566.062 255.115 567.781 259.034 567.781 264.164C567.781 269.424 565.763 273.799 561.727 277.289C557.716 280.753 552.039 282.484 544.695 282.484C537.195 282.484 531.297 280.779 527 277.367C522.703 273.93 520.555 269.216 520.555 263.227H532.039C532.404 265.857 533.12 267.823 534.188 269.125C536.141 271.495 539.487 272.68 544.227 272.68ZM282.156 315.422H294.109V373H282.156V315.422ZM324.5 338.664C320.724 338.664 318.133 340.266 316.727 343.469C315.997 345.161 315.633 347.323 315.633 349.953V373H304.539V330.5H315.281V336.711C316.714 334.523 318.068 332.948 319.344 331.984C321.635 330.266 324.539 329.406 328.055 329.406C332.456 329.406 336.049 330.565 338.836 332.883C341.648 335.174 343.055 338.99 343.055 344.328V373H331.648V347.102C331.648 344.862 331.349 343.143 330.75 341.945C329.656 339.758 327.573 338.664 324.5 338.664ZM372.859 365.07V373.391L367.586 373.586C362.326 373.768 358.732 372.857 356.805 370.852C355.555 369.576 354.93 367.609 354.93 364.953V338.742H348.992V330.812H354.93V318.938H365.945V330.812H372.859V338.742H365.945V361.242C365.945 362.987 366.167 364.081 366.609 364.523C367.052 364.94 368.406 365.148 370.672 365.148C371.01 365.148 371.362 365.148 371.727 365.148C372.117 365.122 372.495 365.096 372.859 365.07ZM401.414 340.695C396.935 340.695 393.927 342.154 392.391 345.07C391.531 346.711 391.102 349.237 391.102 352.648V373H379.891V330.422H390.516V337.844C392.234 335.005 393.732 333.065 395.008 332.023C397.091 330.279 399.799 329.406 403.133 329.406C403.341 329.406 403.51 329.419 403.641 329.445C403.797 329.445 404.122 329.458 404.617 329.484V340.891C403.914 340.812 403.289 340.76 402.742 340.734C402.195 340.708 401.753 340.695 401.414 340.695ZM446.688 335.812C450.281 340.318 452.078 345.643 452.078 351.789C452.078 358.039 450.281 363.391 446.688 367.844C443.094 372.271 437.638 374.484 430.32 374.484C423.003 374.484 417.547 372.271 413.953 367.844C410.359 363.391 408.562 358.039 408.562 351.789C408.562 345.643 410.359 340.318 413.953 335.812C417.547 331.307 423.003 329.055 430.32 329.055C437.638 329.055 443.094 331.307 446.688 335.812ZM430.281 338.469C427.026 338.469 424.513 339.628 422.742 341.945C420.997 344.237 420.125 347.518 420.125 351.789C420.125 356.06 420.997 359.354 422.742 361.672C424.513 363.99 427.026 365.148 430.281 365.148C433.536 365.148 436.036 363.99 437.781 361.672C439.526 359.354 440.398 356.06 440.398 351.789C440.398 347.518 439.526 344.237 437.781 341.945C436.036 339.628 433.536 338.469 430.281 338.469ZM498.836 315.5V373H488.016V367.102C486.427 369.628 484.617 371.464 482.586 372.609C480.555 373.755 478.029 374.328 475.008 374.328C470.034 374.328 465.841 372.323 462.43 368.312C459.044 364.276 457.352 359.107 457.352 352.805C457.352 345.539 459.018 339.823 462.352 335.656C465.711 331.49 470.19 329.406 475.789 329.406C478.367 329.406 480.659 329.979 482.664 331.125C484.669 332.245 486.297 333.807 487.547 335.812V315.5H498.836ZM468.836 351.984C468.836 355.917 469.617 359.055 471.18 361.398C472.716 363.768 475.06 364.953 478.211 364.953C481.362 364.953 483.758 363.781 485.398 361.438C487.039 359.094 487.859 356.06 487.859 352.336C487.859 347.128 486.544 343.404 483.914 341.164C482.299 339.81 480.424 339.133 478.289 339.133C475.034 339.133 472.638 340.37 471.102 342.844C469.591 345.292 468.836 348.339 468.836 351.984ZM536.297 366.984C536.193 367.115 535.932 367.505 535.516 368.156C535.099 368.807 534.604 369.38 534.031 369.875C532.286 371.438 530.594 372.505 528.953 373.078C527.339 373.651 525.438 373.938 523.25 373.938C516.948 373.938 512.703 371.672 510.516 367.141C509.292 364.641 508.68 360.956 508.68 356.086V330.422H520.086V356.086C520.086 358.508 520.372 360.331 520.945 361.555C521.961 363.716 523.953 364.797 526.922 364.797C530.724 364.797 533.328 363.26 534.734 360.188C535.464 358.521 535.828 356.32 535.828 353.586V330.422H547.117V373H536.297V366.984ZM594.734 345.695H583.328C583.12 344.107 582.586 342.674 581.727 341.398C580.477 339.68 578.536 338.82 575.906 338.82C572.156 338.82 569.591 340.682 568.211 344.406C567.482 346.385 567.117 349.016 567.117 352.297C567.117 355.422 567.482 357.935 568.211 359.836C569.539 363.378 572.039 365.148 575.711 365.148C578.315 365.148 580.164 364.445 581.258 363.039C582.352 361.633 583.016 359.81 583.25 357.57H594.617C594.357 360.956 593.133 364.159 590.945 367.18C587.456 372.049 582.286 374.484 575.438 374.484C568.589 374.484 563.549 372.453 560.32 368.391C557.091 364.328 555.477 359.055 555.477 352.57C555.477 345.253 557.26 339.562 560.828 335.5C564.396 331.438 569.318 329.406 575.594 329.406C580.932 329.406 585.294 330.604 588.68 333C592.091 335.396 594.109 339.628 594.734 345.695ZM621.922 365.07V373.391L616.648 373.586C611.388 373.768 607.794 372.857 605.867 370.852C604.617 369.576 603.992 367.609 603.992 364.953V338.742H598.055V330.812H603.992V318.938H615.008V330.812H621.922V338.742H615.008V361.242C615.008 362.987 615.229 364.081 615.672 364.523C616.115 364.94 617.469 365.148 619.734 365.148C620.073 365.148 620.424 365.148 620.789 365.148C621.18 365.122 621.557 365.096 621.922 365.07ZM640.516 330.422V373H629.227V330.422H640.516ZM640.516 315.07V325.344H629.227V315.07H640.516ZM686.844 335.812C690.438 340.318 692.234 345.643 692.234 351.789C692.234 358.039 690.438 363.391 686.844 367.844C683.25 372.271 677.794 374.484 670.477 374.484C663.159 374.484 657.703 372.271 654.109 367.844C650.516 363.391 648.719 358.039 648.719 351.789C648.719 345.643 650.516 340.318 654.109 335.812C657.703 331.307 663.159 329.055 670.477 329.055C677.794 329.055 683.25 331.307 686.844 335.812ZM670.438 338.469C667.182 338.469 664.669 339.628 662.898 341.945C661.154 344.237 660.281 347.518 660.281 351.789C660.281 356.06 661.154 359.354 662.898 361.672C664.669 363.99 667.182 365.148 670.438 365.148C673.693 365.148 676.193 363.99 677.938 361.672C679.682 359.354 680.555 356.06 680.555 351.789C680.555 347.518 679.682 344.237 677.938 341.945C676.193 339.628 673.693 338.469 670.438 338.469ZM720.281 338.664C716.505 338.664 713.914 340.266 712.508 343.469C711.779 345.161 711.414 347.323 711.414 349.953V373H700.32V330.5H711.062V336.711C712.495 334.523 713.849 332.948 715.125 331.984C717.417 330.266 720.32 329.406 723.836 329.406C728.237 329.406 731.831 330.565 734.617 332.883C737.43 335.174 738.836 338.99 738.836 344.328V373H727.43V347.102C727.43 344.862 727.13 343.143 726.531 341.945C725.438 339.758 723.354 338.664 720.281 338.664Z" fill="#4F4F4F"/>
<circle cx="132.5" cy="111.5" r="19.5" fill="white"/>
<circle cx="172" cy="76" r="10" fill="white"/>
<circle cx="212.5" cy="60.5" r="7.5" fill="white"/>
<circle cx="246.5" cy="56.5" r="5.5" fill="white"/>
<circle cx="288.5" cy="76.5" r="3.5" fill="white"/>
<circle cx="270.5" cy="62.5" r="4.5" fill="white"/>
<path fill-rule="evenodd" clip-rule="evenodd" d="M93.9579 294.687C82.3025 295.141 69.7403 292.947 59.1459 287.649L61.3403 284.168C71.6324 289.011 83.4384 290.677 93.9579 290.222C93.9579 290.6 94.41 283.108 95.0912 279.021H79.2754C80.7128 262.523 85.7835 247.842 93.3516 235.355H46.0532V307.401H95.7724C94.6374 303.086 93.9579 294.536 93.9579 294.687V294.687Z" fill="#D0E9FB"/>
<path fill-rule="evenodd" clip-rule="evenodd" d="M98.7246 289.919C107.352 289.086 114.919 286.816 119.536 283.865L122.261 287.345C115.903 291.055 107.654 293.475 98.7246 294.384C98.952 298.849 99.6332 303.086 100.768 307.401H134.822V235.355H98.5731C90.8542 247.161 86.4647 260.329 84.8 274.254H101.071C99.7081 279.551 98.8762 284.773 98.7246 289.919V289.919ZM67.5452 246.253H72.162V256.924H67.5452V246.253Z" fill="#00ACEC"/>
<path fill-rule="evenodd" clip-rule="evenodd" d="M105.989 246.253H110.606V256.924H105.989V246.253Z" fill="black"/>
<path fill-rule="evenodd" clip-rule="evenodd" d="M98.7246 289.919C107.352 289.086 114.919 286.816 119.536 283.865L122.261 287.346C115.903 291.055 107.654 293.475 98.7246 294.384C99.1026 302.405 101.071 310.351 105.005 317.995L101.071 320.113C93.8821 308.762 92.5955 293.475 95.0921 279.021H79.2754C81.2432 256.545 89.8698 237.474 102.433 222.642L105.837 225.593C93.5789 239.821 86.8436 256.394 84.7999 274.254H101.071C99.708 279.551 98.8761 284.773 98.7246 289.919V289.919Z" fill="black"/>
<path fill-rule="evenodd" clip-rule="evenodd" d="M93.958 290.222V294.687C82.3026 295.141 69.7404 292.947 59.146 287.649L61.3403 284.168C71.6316 289.011 83.4376 290.676 93.958 290.222Z" fill="#00ACEC"/>
<path fill-rule="evenodd" clip-rule="evenodd" d="M19.5656 331.617C17.447 331.768 16.3878 331.844 15.0254 331.844C14.1926 331.844 13.3598 331.844 12.3763 331.768H10.8632C10.1062 331.768 9.72816 332.072 9.72816 332.828C9.72816 333.509 10.1062 333.887 11.0148 333.963L12.6037 334.114C15.1769 334.342 15.4034 334.568 15.4034 336.763C15.4034 337.066 15.3285 337.823 15.3285 338.655L13.8903 364.158C13.5872 369.303 13.5122 369.757 13.0575 370.363C12.8302 370.741 12.1498 371.12 11.0897 371.271L10.1062 371.423C8.66803 371.726 8.44067 371.952 8.44067 372.785C8.44067 373.391 8.81874 373.77 9.42502 373.77H9.80308L10.7116 373.694C11.8467 373.618 13.5872 373.542 14.8738 373.542C16.1604 373.542 18.8086 373.618 19.5656 373.694L20.6248 373.77L21.0029 373.845C21.6083 373.921 22.1379 373.392 22.1379 372.71C22.1379 371.953 21.7599 371.651 20.8513 371.5L19.6405 371.348C16.8407 371.045 16.5376 370.591 16.5376 367.563C16.5376 366.58 16.5376 365.218 16.6134 364.31L17.4453 339.489L28.267 372.181C28.5702 373.089 28.7209 373.24 29.0998 373.24C29.5537 373.24 29.6295 373.088 30.0084 372.105L41.1324 339.563L41.284 364.689V367.111C41.284 370.364 40.9808 370.969 38.9381 371.272L37.9537 371.424C36.8945 371.575 36.5164 371.878 36.5164 372.71C36.5164 373.392 36.8945 373.695 37.6515 373.77H37.9546L38.7874 373.618C39.7717 373.542 42.6464 373.391 44.0088 373.391C45.2196 373.391 45.9766 373.391 46.9601 373.542C47.9436 373.618 48.7006 373.618 48.9279 373.618H49.8365C50.5926 373.618 50.9715 373.315 50.9715 372.559C50.9715 371.878 50.5935 371.574 49.3826 371.424L48.3234 371.272C46.7345 371.121 46.2048 370.591 45.9775 369.532C45.8259 368.473 45.8259 367.187 45.7501 362.646L45.5985 340.699L45.5228 337.597C45.5228 334.569 45.6743 334.342 48.0951 334.039L49.5333 333.888C50.5926 333.736 50.8957 333.434 50.8957 332.677C50.8957 331.996 50.6684 331.768 49.7607 331.693H49.5333L48.6248 331.768C47.4897 331.768 46.5812 331.844 45.5219 331.844C44.3868 331.844 43.4025 331.768 41.4347 331.693L30.3107 364.007L19.5656 331.617V331.617ZM102.282 341.455V337.142H101.449L100.39 340.774H100.314L99.1793 337.142H98.3466V341.455H98.8762V338.959V337.9L100.087 341.456H100.541L101.752 337.824V341.455H102.282V341.455ZM61.4918 370.061C62.7027 369.532 63.9893 368.549 64.8979 367.49C65.5033 366.581 65.7298 365.976 65.7298 364.841L65.8813 358.03C63.7628 359.089 62.5511 359.77 61.4918 360.526C61.1138 360.754 60.8106 361.056 60.5084 361.283C58.2374 363.175 57.1024 365.295 57.1024 367.262C57.1024 369.229 58.1616 370.515 59.6756 370.515C60.2052 370.515 60.8106 370.364 61.4918 370.061V370.061ZM61.4918 357.954C62.7785 357.197 64.2916 356.44 65.8813 355.759V350.309C65.8813 346.602 65.0486 345.013 63.0058 345.013C62.4762 345.013 61.9466 345.088 61.4927 345.24C59.4491 345.997 57.936 348.116 57.4055 351.218L57.1781 352.353C56.875 353.715 56.5727 354.018 55.5135 354.018H54.4542C53.6214 354.018 53.1676 353.564 53.1676 352.807C53.1676 351.521 54.4542 348.419 55.8924 346.678C57.4055 344.862 59.3733 343.574 61.4927 342.969C62.3246 342.742 63.2332 342.591 64.1417 342.591C66.4118 342.591 67.5469 342.894 68.5312 343.726C69.9686 344.937 70.3475 346.073 70.3475 349.779V350.233L70.1959 364.007C70.1959 368.473 70.1959 368.473 70.3475 369.077C70.4233 369.682 70.8771 370.288 71.4825 370.364C72.6176 370.515 73.0723 370.06 73.5262 369.229C73.9042 368.246 75.1159 368.246 74.9643 369.304C74.8886 370.439 74.5863 371.348 73.6019 372.483C72.3911 373.845 70.7264 374.223 69.0617 374.223C66.7908 374.223 65.7315 372.785 65.7315 369.757C64.5964 371.195 63.0825 372.406 61.4936 373.239C60.0562 373.92 58.4665 374.374 57.0283 374.374C54.077 374.374 52.1092 372.255 52.1092 369C52.1074 365.219 55.4368 361.282 61.4918 357.954V357.954ZM94.4101 337.672H95.8483V341.455H96.3779V337.672H97.8161V337.142H94.4101V337.672ZM95.6209 368.85C94.2585 370.742 92.2924 372.331 89.1129 372.256C82.908 372.028 80.4105 365.294 80.4105 357.802C80.4105 350.461 83.665 345.088 88.0536 344.861C89.5667 344.785 90.7026 345.315 91.6861 346.299C92.6705 347.208 93.4266 348.419 93.8055 349.401C94.5608 351.596 96.6802 353.186 96.377 346.602C96.2255 344.181 93.275 342.439 89.9448 342.515C81.5447 342.743 75.717 349.326 75.717 359.618C75.717 368.625 80.1823 374.602 86.841 374.602C89.4134 374.602 92.5172 374.451 94.6348 372.786C96.3004 371.575 96.7542 370.97 97.0565 369.682C97.438 368.019 96.0756 368.246 95.6209 368.85Z" fill="black"/>
<path fill-rule="evenodd" clip-rule="evenodd" d="M126.271 330.027C115.524 330.254 107.806 339.562 107.806 352.58C107.806 366.052 115.297 375.359 125.968 375.359H126.272C131.721 375.284 135.958 373.088 139.592 368.397C143.072 364.007 144.586 359.163 144.586 352.504C144.586 346.375 143.299 341.607 140.728 337.672C137.473 332.752 132.477 330.027 126.575 330.027H126.271V330.027ZM126.271 373.088C122.337 373.088 119.687 371.574 117.114 367.79C114.389 363.781 113.18 359.088 113.18 352.656C113.18 340.774 118.476 332.525 126.271 332.298H126.574C130.131 332.298 133.006 333.888 135.352 337.142C138.077 340.774 139.363 345.845 139.363 352.504C139.363 358.635 138.304 363.326 135.882 367.111C133.308 371.272 130.434 373.088 126.271 373.088V373.088ZM167.288 332.601C164.942 331.087 162.749 330.482 159.721 330.482C152.909 330.482 147.839 335.553 147.839 342.591C147.839 347.435 150.034 350.386 155.558 353.186L159.116 354.852C163.429 357.047 165.245 359.467 165.245 363.403C165.245 368.777 161.99 372.56 157.526 372.56C155.179 372.56 153.136 371.652 151.851 369.911C150.716 368.475 149.807 366.204 149.429 364.312L149.277 362.874C149.05 361.587 148.824 361.208 148.067 361.208C147.385 361.208 147.007 361.814 147.007 363.024L147.235 372.408C150.187 374.148 153.137 374.981 156.694 374.981C161.16 374.981 164.489 373.467 166.76 370.364C168.576 367.943 169.56 364.917 169.56 361.662C169.56 356.063 167.365 352.657 162.219 350.008L159.874 348.797C155.635 346.679 154.726 346.074 153.667 344.863C152.609 343.652 152.079 342.062 152.079 340.094C152.079 335.857 154.802 332.829 158.435 332.829C161.991 332.829 164.716 335.478 165.322 339.414L165.473 340.472C165.549 341.305 165.851 341.683 166.457 341.683C167.214 341.683 167.366 341.607 167.517 340.321V340.169L167.288 332.601V332.601Z" fill="#00ACEC"/>
<path d="M741.435 592.713C741.435 593.599 742.138 594.276 742.998 594.276C743.884 594.276 744.587 593.599 744.587 592.713V576.563C744.587 575.703 743.884 575 742.998 575C742.112 575 741.435 575.703 741.435 576.563V592.713Z" fill="#030060"/>
<path d="M748.654 576.849C748.654 577.787 749.436 578.412 750.452 578.412C751.467 578.412 752.249 577.787 752.249 576.849V576.693C752.249 575.755 751.467 575.156 750.452 575.156C749.436 575.156 748.654 575.755 748.654 576.693V576.849ZM748.889 592.713C748.889 593.599 749.592 594.276 750.452 594.276C751.337 594.276 752.041 593.599 752.041 592.713V581.825C752.041 580.939 751.337 580.236 750.452 580.236C749.566 580.236 748.889 580.939 748.889 581.825V592.713Z" fill="#030060"/>
<path d="M756.16 592.713C756.16 593.573 756.863 594.276 757.723 594.276C758.608 594.276 759.312 593.573 759.312 592.713V592.01C760.276 593.287 761.708 594.433 764.001 594.433C767.257 594.433 770.383 591.854 770.383 587.295V587.243C770.383 582.658 767.231 580.106 764.001 580.106C761.76 580.106 760.328 581.252 759.312 582.685V576.563C759.312 575.677 758.608 575 757.723 575C756.837 575 756.16 575.677 756.16 576.563V592.713ZM763.245 591.698C761.109 591.698 759.234 589.926 759.234 587.295V587.243C759.234 584.612 761.109 582.841 763.245 582.841C765.381 582.841 767.179 584.586 767.179 587.243V587.295C767.179 590.004 765.407 591.698 763.245 591.698Z" fill="#030060"/>
<path d="M773.819 592.713C773.819 593.599 774.522 594.276 775.382 594.276C776.267 594.276 776.971 593.599 776.971 592.713V576.563C776.971 575.703 776.267 575 775.382 575C774.496 575 773.819 575.703 773.819 576.563V592.713Z" fill="#030060"/>
<path d="M787.628 594.459C791.874 594.459 795 591.203 795 587.295V587.243C795 583.31 791.9 580.106 787.68 580.106C783.46 580.106 780.334 583.362 780.334 587.295V587.347C780.334 591.255 783.434 594.459 787.628 594.459ZM787.68 591.698C785.232 591.698 783.486 589.692 783.486 587.295V587.243C783.486 584.847 785.101 582.867 787.628 582.867C790.103 582.867 791.848 584.873 791.848 587.295V587.347C791.848 589.718 790.233 591.698 787.68 591.698Z" fill="#030060"/>
<path d="M736.96 590.09C735.74 590.65 734.453 591.046 733.208 591.294C728.074 592.314 725.36 589.099 729.634 586.781C730.099 586.529 730.632 586.291 731.228 586.075L732.011 585.826C732.241 585.763 732.463 585.661 732.534 585.515C732.905 584.723 729.731 584.467 727.622 585.589C728.458 585.431 729.186 585.408 729.668 585.609C724.878 586.845 723.788 590.757 726.335 592.642C727.649 593.615 729.127 593.873 731.832 593.682C733.637 593.555 735.48 592.837 736.96 591.969V590.09Z" fill="url(#paint1_linear_5188_12777)"/>
<path d="M734.542 592.784C734.542 593.607 735.171 594.165 736.03 594.165C736.89 594.165 737.478 593.644 737.478 592.784V586.011C737.478 584.214 737.009 582.755 735.993 581.765C735.029 580.776 733.492 580.228 731.434 580.228C729.637 580.228 728.308 580.541 727.006 581.036C726.537 581.218 726.146 581.713 726.146 582.286C726.146 583.016 726.745 583.589 727.475 583.589C727.631 583.589 727.787 583.563 727.97 583.511C728.829 583.172 729.819 582.964 731.018 582.964C733.232 582.964 734.43 584.006 734.43 585.959V585.968L734.542 592.784Z" fill="url(#paint2_linear_5188_12777)"/>
<path d="M733.611 578.379C733.611 578.591 733.273 578.721 732.805 578.721C732.077 578.721 731.583 578.64 730.984 578.282L729.216 577.24C728.956 577.093 728.774 576.93 728.774 576.751C728.774 576.442 729.814 576.116 730.646 576.116C731.192 576.116 731.609 576.295 731.895 576.589L733.377 578.021C733.481 578.119 733.611 578.265 733.611 578.379Z" fill="url(#paint3_linear_5188_12777)"/>
</g>
<defs>
<linearGradient id="paint0_linear_5188_12777" x1="800" y1="3.19758e-05" x2="-2.41943" y2="596.747" gradientUnits="userSpaceOnUse">
<stop stop-color="#EDEDED"/>
<stop offset="1" stop-color="#B4B4B4"/>
</linearGradient>
<linearGradient id="paint1_linear_5188_12777" x1="725" y1="576.116" x2="725" y2="594.165" gradientUnits="userSpaceOnUse">
<stop stop-color="#008EE3"/>
<stop offset="1" stop-color="#0055C2"/>
</linearGradient>
<linearGradient id="paint2_linear_5188_12777" x1="725" y1="576.116" x2="725" y2="594.165" gradientUnits="userSpaceOnUse">
<stop stop-color="#008EE3"/>
<stop offset="1" stop-color="#0055C2"/>
</linearGradient>
<linearGradient id="paint3_linear_5188_12777" x1="725" y1="576.116" x2="725" y2="594.165" gradientUnits="userSpaceOnUse">
<stop stop-color="#008EE3"/>
<stop offset="1" stop-color="#0055C2"/>
</linearGradient>
<clipPath id="clip0_5188_12777">
<rect width="800" height="600" fill="white"/>
</clipPath>
</defs>
</svg>
