<svg width="800" height="600" viewBox="0 0 800 600" fill="none" xmlns="http://www.w3.org/2000/svg">
<g clip-path="url(#clip0_5188_12874)">
<rect width="800" height="600" fill="url(#paint0_linear_5188_12874)"/>
<circle cx="80" cy="299" r="173" fill="white"/>
<path d="M301.898 235H277.094V177.422H301.898C305.466 177.474 308.435 177.891 310.805 178.672C314.841 180 318.109 182.435 320.609 185.977C322.615 188.841 323.982 191.94 324.711 195.273C325.44 198.607 325.805 201.784 325.805 204.805C325.805 212.461 324.268 218.945 321.195 224.258C317.029 231.419 310.596 235 301.898 235ZM310.844 192.109C308.995 188.984 305.336 187.422 299.867 187.422H288.773V225H299.867C305.544 225 309.503 222.201 311.742 216.602C312.966 213.529 313.578 209.87 313.578 205.625C313.578 199.766 312.667 195.26 310.844 192.109ZM369.516 197.812C373.109 202.318 374.906 207.643 374.906 213.789C374.906 220.039 373.109 225.391 369.516 229.844C365.922 234.271 360.466 236.484 353.148 236.484C345.831 236.484 340.375 234.271 336.781 229.844C333.188 225.391 331.391 220.039 331.391 213.789C331.391 207.643 333.188 202.318 336.781 197.812C340.375 193.307 345.831 191.055 353.148 191.055C360.466 191.055 365.922 193.307 369.516 197.812ZM353.109 200.469C349.854 200.469 347.341 201.628 345.57 203.945C343.826 206.237 342.953 209.518 342.953 213.789C342.953 218.06 343.826 221.354 345.57 223.672C347.341 225.99 349.854 227.148 353.109 227.148C356.365 227.148 358.865 225.99 360.609 223.672C362.354 221.354 363.227 218.06 363.227 213.789C363.227 209.518 362.354 206.237 360.609 203.945C358.865 201.628 356.365 200.469 353.109 200.469ZM419.75 207.695H408.344C408.135 206.107 407.602 204.674 406.742 203.398C405.492 201.68 403.552 200.82 400.922 200.82C397.172 200.82 394.607 202.682 393.227 206.406C392.497 208.385 392.133 211.016 392.133 214.297C392.133 217.422 392.497 219.935 393.227 221.836C394.555 225.378 397.055 227.148 400.727 227.148C403.331 227.148 405.18 226.445 406.273 225.039C407.367 223.633 408.031 221.81 408.266 219.57H419.633C419.372 222.956 418.148 226.159 415.961 229.18C412.471 234.049 407.302 236.484 400.453 236.484C393.604 236.484 388.565 234.453 385.336 230.391C382.107 226.328 380.492 221.055 380.492 214.57C380.492 207.253 382.276 201.562 385.844 197.5C389.411 193.438 394.333 191.406 400.609 191.406C405.948 191.406 410.31 192.604 413.695 195C417.107 197.396 419.125 201.628 419.75 207.695ZM466.508 235H453.07L442.875 216.797L438.266 221.602V235H427.328V177.617H438.266V208.633L452.133 192.617H465.922L451.039 208.906L466.508 235ZM508.422 222.5C508.135 225.026 506.82 227.591 504.477 230.195C500.831 234.336 495.727 236.406 489.164 236.406C483.747 236.406 478.969 234.661 474.828 231.172C470.688 227.682 468.617 222.005 468.617 214.141C468.617 206.771 470.479 201.12 474.203 197.188C477.953 193.255 482.81 191.289 488.773 191.289C492.315 191.289 495.505 191.953 498.344 193.281C501.182 194.609 503.526 196.706 505.375 199.57C507.042 202.096 508.122 205.026 508.617 208.359C508.904 210.312 509.021 213.125 508.969 216.797H479.828C479.984 221.068 481.326 224.062 483.852 225.781C485.388 226.849 487.237 227.383 489.398 227.383C491.69 227.383 493.552 226.732 494.984 225.43C495.766 224.727 496.456 223.75 497.055 222.5H508.422ZM497.406 209.453C497.224 206.51 496.326 204.284 494.711 202.773C493.122 201.237 491.143 200.469 488.773 200.469C486.195 200.469 484.19 201.276 482.758 202.891C481.352 204.505 480.466 206.693 480.102 209.453H497.406ZM537.914 202.695C533.435 202.695 530.427 204.154 528.891 207.07C528.031 208.711 527.602 211.237 527.602 214.648V235H516.391V192.422H527.016V199.844C528.734 197.005 530.232 195.065 531.508 194.023C533.591 192.279 536.299 191.406 539.633 191.406C539.841 191.406 540.01 191.419 540.141 191.445C540.297 191.445 540.622 191.458 541.117 191.484V202.891C540.414 202.812 539.789 202.76 539.242 202.734C538.695 202.708 538.253 202.695 537.914 202.695ZM309.32 315.164H288.109L284.125 327H271.547L292.094 269.422H305.688L326.078 327H313.031L309.32 315.164ZM305.961 305.242L298.773 282.586L291.352 305.242H305.961ZM371.273 269.5V327H360.453V321.102C358.865 323.628 357.055 325.464 355.023 326.609C352.992 327.755 350.466 328.328 347.445 328.328C342.471 328.328 338.279 326.323 334.867 322.312C331.482 318.276 329.789 313.107 329.789 306.805C329.789 299.539 331.456 293.823 334.789 289.656C338.148 285.49 342.628 283.406 348.227 283.406C350.805 283.406 353.096 283.979 355.102 285.125C357.107 286.245 358.734 287.807 359.984 289.812V269.5H371.273ZM341.273 305.984C341.273 309.917 342.055 313.055 343.617 315.398C345.154 317.768 347.497 318.953 350.648 318.953C353.799 318.953 356.195 317.781 357.836 315.438C359.477 313.094 360.297 310.06 360.297 306.336C360.297 301.128 358.982 297.404 356.352 295.164C354.737 293.81 352.862 293.133 350.727 293.133C347.471 293.133 345.076 294.37 343.539 296.844C342.029 299.292 341.273 302.339 341.273 305.984ZM377.25 284.422H389.75L398.617 315.828L407.68 284.422H419.633L404.281 327H392.523L377.25 284.422ZM427.562 289.031C430.505 285.281 435.557 283.406 442.719 283.406C447.38 283.406 451.521 284.331 455.141 286.18C458.76 288.029 460.57 291.518 460.57 296.648V316.18C460.57 317.534 460.596 319.174 460.648 321.102C460.727 322.56 460.948 323.549 461.312 324.07C461.677 324.591 462.224 325.021 462.953 325.359V327H450.844C450.505 326.141 450.271 325.333 450.141 324.578C450.01 323.823 449.906 322.964 449.828 322C448.292 323.667 446.521 325.086 444.516 326.258C442.12 327.638 439.411 328.328 436.391 328.328C432.536 328.328 429.346 327.234 426.82 325.047C424.32 322.833 423.07 319.708 423.07 315.672C423.07 310.438 425.089 306.648 429.125 304.305C431.339 303.029 434.594 302.117 438.891 301.57L442.68 301.102C444.737 300.841 446.208 300.516 447.094 300.125C448.682 299.448 449.477 298.393 449.477 296.961C449.477 295.216 448.865 294.018 447.641 293.367C446.443 292.69 444.672 292.352 442.328 292.352C439.698 292.352 437.836 293.003 436.742 294.305C435.961 295.268 435.44 296.57 435.18 298.211H424.438C424.672 294.487 425.714 291.427 427.562 289.031ZM435.844 318.953C436.885 319.812 438.161 320.242 439.672 320.242C442.068 320.242 444.268 319.539 446.273 318.133C448.305 316.727 449.359 314.161 449.438 310.438V306.297C448.734 306.74 448.018 307.104 447.289 307.391C446.586 307.651 445.609 307.898 444.359 308.133L441.859 308.602C439.516 309.018 437.836 309.526 436.82 310.125C435.102 311.141 434.242 312.716 434.242 314.852C434.242 316.753 434.776 318.12 435.844 318.953ZM490.531 292.664C486.755 292.664 484.164 294.266 482.758 297.469C482.029 299.161 481.664 301.323 481.664 303.953V327H470.57V284.5H481.312V290.711C482.745 288.523 484.099 286.948 485.375 285.984C487.667 284.266 490.57 283.406 494.086 283.406C498.487 283.406 502.081 284.565 504.867 286.883C507.68 289.174 509.086 292.99 509.086 298.328V327H497.68V301.102C497.68 298.862 497.38 297.143 496.781 295.945C495.688 293.758 493.604 292.664 490.531 292.664ZM556.234 299.695H544.828C544.62 298.107 544.086 296.674 543.227 295.398C541.977 293.68 540.036 292.82 537.406 292.82C533.656 292.82 531.091 294.682 529.711 298.406C528.982 300.385 528.617 303.016 528.617 306.297C528.617 309.422 528.982 311.935 529.711 313.836C531.039 317.378 533.539 319.148 537.211 319.148C539.815 319.148 541.664 318.445 542.758 317.039C543.852 315.633 544.516 313.81 544.75 311.57H556.117C555.857 314.956 554.633 318.159 552.445 321.18C548.956 326.049 543.786 328.484 536.938 328.484C530.089 328.484 525.049 326.453 521.82 322.391C518.591 318.328 516.977 313.055 516.977 306.57C516.977 299.253 518.76 293.562 522.328 289.5C525.896 285.438 530.818 283.406 537.094 283.406C542.432 283.406 546.794 284.604 550.18 287C553.591 289.396 555.609 293.628 556.234 299.695ZM600.375 314.5C600.089 317.026 598.773 319.591 596.43 322.195C592.784 326.336 587.68 328.406 581.117 328.406C575.701 328.406 570.922 326.661 566.781 323.172C562.641 319.682 560.57 314.005 560.57 306.141C560.57 298.771 562.432 293.12 566.156 289.188C569.906 285.255 574.763 283.289 580.727 283.289C584.268 283.289 587.458 283.953 590.297 285.281C593.135 286.609 595.479 288.706 597.328 291.57C598.995 294.096 600.076 297.026 600.57 300.359C600.857 302.312 600.974 305.125 600.922 308.797H571.781C571.938 313.068 573.279 316.062 575.805 317.781C577.341 318.849 579.19 319.383 581.352 319.383C583.643 319.383 585.505 318.732 586.938 317.43C587.719 316.727 588.409 315.75 589.008 314.5H600.375ZM589.359 301.453C589.177 298.51 588.279 296.284 586.664 294.773C585.076 293.237 583.096 292.469 580.727 292.469C578.148 292.469 576.143 293.276 574.711 294.891C573.305 296.505 572.419 298.693 572.055 301.453H589.359ZM647.211 269.5V327H636.391V321.102C634.802 323.628 632.992 325.464 630.961 326.609C628.93 327.755 626.404 328.328 623.383 328.328C618.409 328.328 614.216 326.323 610.805 322.312C607.419 318.276 605.727 313.107 605.727 306.805C605.727 299.539 607.393 293.823 610.727 289.656C614.086 285.49 618.565 283.406 624.164 283.406C626.742 283.406 629.034 283.979 631.039 285.125C633.044 286.245 634.672 287.807 635.922 289.812V269.5H647.211ZM617.211 305.984C617.211 309.917 617.992 313.055 619.555 315.398C621.091 317.768 623.435 318.953 626.586 318.953C629.737 318.953 632.133 317.781 633.773 315.438C635.414 313.094 636.234 310.06 636.234 306.336C636.234 301.128 634.919 297.404 632.289 295.164C630.674 293.81 628.799 293.133 626.664 293.133C623.409 293.133 621.013 294.37 619.477 296.844C617.966 299.292 617.211 302.339 617.211 305.984ZM697.367 328.406C691.534 328.406 686.977 326.688 683.695 323.25C680.414 319.812 678.773 315.997 678.773 311.805C678.773 308.341 679.633 305.372 681.352 302.898C683.07 300.424 685.883 297.977 689.789 295.555L691 294.812C689.333 292.938 688.044 291.023 687.133 289.07C686.221 287.117 685.766 285.086 685.766 282.977C685.766 278.784 687.172 275.516 689.984 273.172C692.797 270.802 696.443 269.617 700.922 269.617C705.01 269.617 708.383 270.828 711.039 273.25C713.721 275.646 715.062 278.719 715.062 282.469C715.062 285.854 714.255 288.602 712.641 290.711C711.052 292.82 708.708 294.773 705.609 296.57L713.773 306.648C714.711 305.294 715.427 303.823 715.922 302.234C716.443 300.646 716.716 298.966 716.742 297.195H726.625C726.469 300.685 725.635 304.214 724.125 307.781C723.292 309.786 721.938 312 720.062 314.422L730.531 327H717.016L713.031 322.117C711.104 323.914 709.307 325.242 707.641 326.102C704.672 327.638 701.247 328.406 697.367 328.406ZM696.742 301.922C693.956 303.771 692.107 305.398 691.195 306.805C690.31 308.211 689.867 309.76 689.867 311.453C689.867 313.354 690.635 315.099 692.172 316.688C693.734 318.276 695.727 319.07 698.148 319.07C699.971 319.07 701.69 318.654 703.305 317.82C704.945 316.961 706.273 316.01 707.289 314.969L696.742 301.922ZM696 282.586C696 283.628 696.365 284.721 697.094 285.867C697.562 286.622 698.578 287.964 700.141 289.891C701.703 288.797 702.823 287.872 703.5 287.117C704.802 285.711 705.453 284.188 705.453 282.547C705.453 281.349 705.062 280.281 704.281 279.344C703.5 278.406 702.315 277.938 700.727 277.938C699.737 277.938 698.812 278.211 697.953 278.758C696.651 279.565 696 280.841 696 282.586ZM328.109 419H312.641L294.867 393.844L289.125 399.742V419H277.289V361.422H289.125V385.133L311.352 361.422H326.898L303.305 385.133L328.109 419ZM361.312 412.984C361.208 413.115 360.948 413.505 360.531 414.156C360.115 414.807 359.62 415.38 359.047 415.875C357.302 417.438 355.609 418.505 353.969 419.078C352.354 419.651 350.453 419.938 348.266 419.938C341.964 419.938 337.719 417.672 335.531 413.141C334.307 410.641 333.695 406.956 333.695 402.086V376.422H345.102V402.086C345.102 404.508 345.388 406.331 345.961 407.555C346.977 409.716 348.969 410.797 351.938 410.797C355.74 410.797 358.344 409.26 359.75 406.188C360.479 404.521 360.844 402.32 360.844 399.586V376.422H372.133V419H361.312V412.984ZM406.039 420.133C402.523 420.133 399.698 419.43 397.562 418.023C396.286 417.19 394.906 415.732 393.422 413.648V419H382.523V361.5H393.617V381.969C395.023 379.99 396.573 378.479 398.266 377.438C400.271 376.135 402.823 375.484 405.922 375.484C411.521 375.484 415.896 377.503 419.047 381.539C422.224 385.576 423.812 390.784 423.812 397.164C423.812 403.779 422.25 409.26 419.125 413.609C416 417.958 411.638 420.133 406.039 420.133ZM412.133 398.336C412.133 395.315 411.742 392.815 410.961 390.836C409.477 387.086 406.742 385.211 402.758 385.211C398.721 385.211 395.948 387.047 394.438 390.719C393.656 392.672 393.266 395.198 393.266 398.297C393.266 401.943 394.073 404.964 395.688 407.359C397.302 409.755 399.763 410.953 403.07 410.953C405.935 410.953 408.161 409.794 409.75 407.477C411.339 405.159 412.133 402.112 412.133 398.336ZM468.266 406.5C467.979 409.026 466.664 411.591 464.32 414.195C460.674 418.336 455.57 420.406 449.008 420.406C443.591 420.406 438.812 418.661 434.672 415.172C430.531 411.682 428.461 406.005 428.461 398.141C428.461 390.771 430.323 385.12 434.047 381.188C437.797 377.255 442.654 375.289 448.617 375.289C452.159 375.289 455.349 375.953 458.188 377.281C461.026 378.609 463.37 380.706 465.219 383.57C466.885 386.096 467.966 389.026 468.461 392.359C468.747 394.312 468.865 397.125 468.812 400.797H439.672C439.828 405.068 441.169 408.062 443.695 409.781C445.232 410.849 447.081 411.383 449.242 411.383C451.534 411.383 453.396 410.732 454.828 409.43C455.609 408.727 456.299 407.75 456.898 406.5H468.266ZM457.25 393.453C457.068 390.51 456.169 388.284 454.555 386.773C452.966 385.237 450.987 384.469 448.617 384.469C446.039 384.469 444.034 385.276 442.602 386.891C441.195 388.505 440.31 390.693 439.945 393.453H457.25ZM497.758 386.695C493.279 386.695 490.271 388.154 488.734 391.07C487.875 392.711 487.445 395.237 487.445 398.648V419H476.234V376.422H486.859V383.844C488.578 381.005 490.076 379.065 491.352 378.023C493.435 376.279 496.143 375.406 499.477 375.406C499.685 375.406 499.854 375.419 499.984 375.445C500.141 375.445 500.466 375.458 500.961 375.484V386.891C500.258 386.812 499.633 386.76 499.086 386.734C498.539 386.708 498.096 386.695 497.758 386.695ZM527.562 384.664C523.786 384.664 521.195 386.266 519.789 389.469C519.06 391.161 518.695 393.323 518.695 395.953V419H507.602V376.5H518.344V382.711C519.776 380.523 521.13 378.948 522.406 377.984C524.698 376.266 527.602 375.406 531.117 375.406C535.518 375.406 539.112 376.565 541.898 378.883C544.711 381.174 546.117 384.99 546.117 390.328V419H534.711V393.102C534.711 390.862 534.411 389.143 533.812 387.945C532.719 385.758 530.635 384.664 527.562 384.664ZM592.875 406.5C592.589 409.026 591.273 411.591 588.93 414.195C585.284 418.336 580.18 420.406 573.617 420.406C568.201 420.406 563.422 418.661 559.281 415.172C555.141 411.682 553.07 406.005 553.07 398.141C553.07 390.771 554.932 385.12 558.656 381.188C562.406 377.255 567.263 375.289 573.227 375.289C576.768 375.289 579.958 375.953 582.797 377.281C585.635 378.609 587.979 380.706 589.828 383.57C591.495 386.096 592.576 389.026 593.07 392.359C593.357 394.312 593.474 397.125 593.422 400.797H564.281C564.438 405.068 565.779 408.062 568.305 409.781C569.841 410.849 571.69 411.383 573.852 411.383C576.143 411.383 578.005 410.732 579.438 409.43C580.219 408.727 580.909 407.75 581.508 406.5H592.875ZM581.859 393.453C581.677 390.51 580.779 388.284 579.164 386.773C577.576 385.237 575.596 384.469 573.227 384.469C570.648 384.469 568.643 385.276 567.211 386.891C565.805 388.505 564.919 390.693 564.555 393.453H581.859ZM620.453 411.07V419.391L615.18 419.586C609.919 419.768 606.326 418.857 604.398 416.852C603.148 415.576 602.523 413.609 602.523 410.953V384.742H596.586V376.812H602.523V364.938H613.539V376.812H620.453V384.742H613.539V407.242C613.539 408.987 613.76 410.081 614.203 410.523C614.646 410.94 616 411.148 618.266 411.148C618.604 411.148 618.956 411.148 619.32 411.148C619.711 411.122 620.089 411.096 620.453 411.07ZM664.047 406.5C663.76 409.026 662.445 411.591 660.102 414.195C656.456 418.336 651.352 420.406 644.789 420.406C639.372 420.406 634.594 418.661 630.453 415.172C626.312 411.682 624.242 406.005 624.242 398.141C624.242 390.771 626.104 385.12 629.828 381.188C633.578 377.255 638.435 375.289 644.398 375.289C647.94 375.289 651.13 375.953 653.969 377.281C656.807 378.609 659.151 380.706 661 383.57C662.667 386.096 663.747 389.026 664.242 392.359C664.529 394.312 664.646 397.125 664.594 400.797H635.453C635.609 405.068 636.951 408.062 639.477 409.781C641.013 410.849 642.862 411.383 645.023 411.383C647.315 411.383 649.177 410.732 650.609 409.43C651.391 408.727 652.081 407.75 652.68 406.5H664.047ZM653.031 393.453C652.849 390.51 651.951 388.284 650.336 386.773C648.747 385.237 646.768 384.469 644.398 384.469C641.82 384.469 639.815 385.276 638.383 386.891C636.977 388.505 636.091 390.693 635.727 393.453H653.031ZM701.469 378.375C704.802 380.51 706.716 384.182 707.211 389.391H696.078C695.922 387.958 695.518 386.826 694.867 385.992C693.643 384.482 691.56 383.727 688.617 383.727C686.195 383.727 684.464 384.104 683.422 384.859C682.406 385.615 681.898 386.5 681.898 387.516C681.898 388.792 682.445 389.716 683.539 390.289C684.633 390.888 688.5 391.917 695.141 393.375C699.568 394.417 702.888 395.992 705.102 398.102C707.289 400.237 708.383 402.906 708.383 406.109C708.383 410.328 706.807 413.779 703.656 416.461C700.531 419.117 695.688 420.445 689.125 420.445C682.432 420.445 677.484 419.039 674.281 416.227C671.104 413.388 669.516 409.781 669.516 405.406H680.805C681.039 407.385 681.547 408.792 682.328 409.625C683.708 411.109 686.26 411.852 689.984 411.852C692.172 411.852 693.904 411.526 695.18 410.875C696.482 410.224 697.133 409.247 697.133 407.945C697.133 406.695 696.612 405.745 695.57 405.094C694.529 404.443 690.661 403.323 683.969 401.734C679.151 400.536 675.753 399.039 673.773 397.242C671.794 395.471 670.805 392.919 670.805 389.586C670.805 385.654 672.341 382.281 675.414 379.469C678.513 376.63 682.862 375.211 688.461 375.211C693.773 375.211 698.109 376.266 701.469 378.375Z" fill="#E5F3FF"/>
<circle cx="132.5" cy="111.5" r="19.5" fill="white"/>
<circle cx="172" cy="76" r="10" fill="white"/>
<circle cx="212.5" cy="60.5" r="7.5" fill="white"/>
<circle cx="246.5" cy="56.5" r="5.5" fill="white"/>
<circle cx="288.5" cy="76.5" r="3.5" fill="white"/>
<circle cx="270.5" cy="62.5" r="4.5" fill="white"/>
<path d="M141.221 370.199C141.221 369.805 141.352 369.411 141.221 369.018C140.96 368.624 140.829 368.361 140.567 368.099C139.913 367.312 139.259 366.655 138.473 365.868L130.753 357.994L136.772 351.825L140.044 348.282C140.567 347.757 141.221 346.707 141.221 345.92V345.395C141.221 344.214 140.698 343.558 139.52 343.295L139.782 343.426H138.866C138.081 343.426 135.856 345.526 135.333 346.182C133.37 348.151 132.062 349.988 129.445 351.957V336.339C129.445 334.896 128.66 334.24 127.22 334.24H126.828C125.389 334.24 124.211 334.896 124.211 336.339V370.33C124.211 371.774 125.389 372.299 126.828 372.299H127.22C128.66 372.299 129.445 371.642 129.445 370.33V364.293L133.37 368.099C134.548 369.28 135.726 370.068 136.772 371.117C137.296 371.642 138.343 372.299 139.128 372.299H139.52C140.829 372.299 141.221 371.642 141.483 370.592L141.221 370.724V370.199V370.199ZM192.383 343.426H191.86C188.981 343.426 186.364 344.214 184.009 345.92C180.083 348.807 177.859 352.613 177.859 357.6V370.461C177.859 371.905 178.382 372.299 179.822 372.299H180.214C181.653 372.299 183.093 371.774 183.093 370.461V358.387C183.093 355.763 183.616 353.269 185.579 351.301C187.149 349.726 189.112 348.413 191.336 348.413C193.037 348.413 195 348.02 195 345.92C195 344.345 193.822 343.426 192.383 343.426V343.426ZM172.232 349.988C170.793 347.626 168.83 345.789 166.344 344.607C161.764 342.376 156.923 342.114 152.474 344.739L151.82 345.132C149.988 346.182 148.418 347.495 147.24 349.201C143.838 354.188 143.446 359.831 146.455 365.08L146.717 365.605C148.025 367.836 149.726 369.674 151.951 370.855C156.661 373.48 161.764 373.742 166.475 371.117L166.868 370.855C168.176 370.068 168.438 368.755 167.784 367.443C167.522 366.918 166.998 366.524 166.475 366.262H166.213C165.297 366.13 162.811 367.18 161.895 367.574C160.063 367.836 157.97 367.968 156.138 367.312L166.082 358.65C167.522 357.337 169.092 355.894 170.662 354.713C171.971 353.663 173.279 352.219 172.232 350.382V349.988ZM163.204 354.713L152.082 364.293C151.689 363.899 151.427 363.374 151.166 362.981C150.381 361.668 149.857 360.093 149.857 358.519C149.726 354.581 151.166 351.301 154.699 349.332C157.316 347.757 160.194 347.495 163.073 348.545C164.512 349.069 166.213 349.988 167.129 351.301C165.821 352.482 164.381 353.532 163.204 354.713V354.713ZM57.4782 334.24H57.0856C55.6463 334.24 54.8612 334.765 54.8612 336.208V346.838C52.2443 344.476 49.1039 343.557 45.4401 343.557H44.3933C41.9072 343.557 39.5519 343.951 37.3275 345.264C32.617 348.02 30 352.088 30 357.6V358.65C30 361.143 30.6542 363.243 31.9627 365.474C34.7105 370.199 39.0285 372.561 44.3933 372.561H45.4401C47.9263 372.561 50.5432 372.167 52.6368 370.986C57.3473 368.23 60.0952 364.162 60.0952 358.781V336.471C60.0952 334.765 58.9175 334.24 57.4782 334.24ZM53.4219 362.849C51.4592 366.13 48.5805 367.968 44.7859 367.968C43.2157 367.968 41.6455 367.574 40.337 366.787C36.935 364.949 34.9722 361.931 34.9722 357.994C34.9722 356.55 35.2339 355.238 35.8882 353.925C37.7201 350.119 40.7296 348.02 44.9167 348.02C47.0103 348.02 48.8422 348.676 50.4124 349.857C53.1602 351.825 54.7304 354.45 54.7304 357.862C54.8612 359.7 54.3378 361.275 53.4219 362.849ZM77.8906 343.426H77.1055C74.6194 343.426 72.1332 343.82 70.0397 345.132C65.3291 347.888 62.7121 351.957 62.7121 357.469V358.519C62.7121 361.012 63.3664 363.112 64.6749 365.343C67.4227 370.068 71.7407 372.43 77.2363 372.43H78.2831C80.7692 372.43 83.2554 372.036 85.4798 370.855C90.1903 368.099 92.9381 364.031 92.9381 358.65V357.6C92.9381 355.238 92.1531 353.269 91.1063 351.301C88.2276 346.051 83.6479 343.426 77.8906 343.426V343.426ZM86.2649 362.849C84.3021 365.999 81.5543 367.968 77.7597 367.968C76.0587 367.968 74.3577 367.574 72.7875 366.655C69.5163 364.687 67.6844 361.931 67.6844 358.125C67.6844 356.681 67.9461 355.369 68.6003 354.057C70.4322 350.251 73.4417 348.151 77.6289 348.151C79.5916 348.151 81.2926 348.676 82.8628 349.726C85.7415 351.694 87.4425 354.45 87.4425 357.994C87.5734 359.568 87.1808 361.275 86.2649 362.849V362.849ZM118.323 345.264L118.192 345.395C115.967 343.951 113.481 343.426 110.864 343.426H109.818C107.331 343.426 104.845 343.82 102.752 345.132C98.0412 347.888 95.4243 351.957 95.4243 357.337V358.387C95.4243 359.7 95.686 360.881 95.9477 362.193C98.0412 369.411 103.668 373.48 111.257 372.955C113.351 372.823 118.977 372.167 118.977 369.018V368.493C118.977 367.312 118.061 366.262 117.014 365.999L116.883 365.737H115.967L115.706 366.13C114.528 366.655 112.565 367.705 111.257 367.705C109.687 367.705 107.986 367.705 106.546 366.918C102.752 365.08 100.527 362.062 100.527 357.862C100.527 356.419 100.789 355.106 101.443 353.794C103.275 350.119 106.285 347.757 110.472 347.888C111.257 347.888 112.696 348.282 113.481 348.676C114.136 348.938 115.837 349.988 116.622 349.988H116.883L117.014 349.726C118.192 349.463 119.108 348.545 119.108 347.363V346.838C119.108 346.313 118.846 345.92 118.584 345.526L118.323 345.264V345.264ZM36.2807 304.317L36.4116 304.58C46.7486 322.166 64.8057 329.515 84.5638 329.515C122.772 329.515 154.306 312.323 168.699 276.233C178.382 276.758 188.327 273.87 193.037 264.552L194.215 262.19L191.86 260.878C186.233 257.597 178.775 257.203 172.494 259.04C171.709 252.216 167.26 246.31 162.026 242.111L159.933 240.405L158.232 242.505C154.699 246.573 153.652 253.397 154.175 258.647C154.568 262.453 155.745 266.39 158.101 269.539C156.269 270.589 154.306 272.033 152.474 272.689C148.81 274.002 144.754 275.314 140.829 275.314H132.062V256.809H115.052V224H95.4243V239.749H62.7121V256.809H45.7018V275.183H31.0468L30.7851 277.151C30.1308 285.55 31.1776 293.687 34.7105 301.43L36.2807 304.317V304.317ZM115.052 260.747H129.445V275.183H115.052V260.747ZM98.0412 226.625H112.435V241.061H98.0412V226.625ZM98.0412 243.686H112.435V258.122H98.0412V243.686ZM98.0412 260.747H112.435V275.183H98.0412V260.747ZM81.0309 243.686H95.4243V258.122H81.0309V243.686ZM81.0309 260.747H95.4243V275.183H81.0309V260.747ZM82.4703 301.693C82.4703 303.924 80.6384 305.761 78.414 305.761C76.1895 305.761 74.3577 303.924 74.3577 301.693C74.3577 299.462 76.1895 297.624 78.414 297.624C80.6384 297.756 82.4703 299.462 82.4703 301.693ZM65.3291 243.686H78.414V258.122H65.3291V243.686ZM65.3291 260.747H78.414V275.183H65.3291V260.747ZM48.3188 260.747H62.7121V275.183H48.3188V260.747ZM51.4592 310.617C53.5527 310.617 55.6463 310.617 57.609 310.486C62.7121 310.223 67.161 309.567 70.8247 308.517C73.8343 315.473 79.3299 321.903 89.1435 326.628L84.5638 326.759C63.8898 326.628 52.7676 319.672 43.6082 310.486C46.3561 310.617 48.973 310.617 51.4592 310.617V310.617ZM78.414 304.58C79.9841 304.58 81.2926 303.268 81.2926 301.693C81.2926 301.299 81.1618 300.905 81.0309 300.643C80.7692 301.037 80.5075 301.299 79.9841 301.299C79.3299 301.299 78.8065 300.774 78.8065 300.118C78.8065 299.724 79.0682 299.33 79.3299 299.068C79.1991 298.937 78.8065 298.805 78.414 298.805C76.8438 298.805 75.5353 300.118 75.5353 301.693C75.6661 303.268 76.8438 304.58 78.414 304.58Z" fill="#019BC6"/>
<path d="M741.435 592.713C741.435 593.599 742.138 594.276 742.998 594.276C743.884 594.276 744.587 593.599 744.587 592.713V576.563C744.587 575.703 743.884 575 742.998 575C742.112 575 741.435 575.703 741.435 576.563V592.713Z" fill="white"/>
<path d="M748.654 576.849C748.654 577.787 749.436 578.412 750.452 578.412C751.467 578.412 752.249 577.787 752.249 576.849V576.693C752.249 575.755 751.467 575.156 750.452 575.156C749.436 575.156 748.654 575.755 748.654 576.693V576.849ZM748.889 592.713C748.889 593.599 749.592 594.276 750.452 594.276C751.337 594.276 752.041 593.599 752.041 592.713V581.825C752.041 580.939 751.337 580.236 750.452 580.236C749.566 580.236 748.889 580.939 748.889 581.825V592.713Z" fill="white"/>
<path d="M756.16 592.713C756.16 593.573 756.863 594.276 757.723 594.276C758.608 594.276 759.312 593.573 759.312 592.713V592.01C760.276 593.287 761.708 594.433 764.001 594.433C767.257 594.433 770.383 591.854 770.383 587.295V587.243C770.383 582.658 767.231 580.106 764.001 580.106C761.76 580.106 760.328 581.252 759.312 582.685V576.563C759.312 575.677 758.608 575 757.723 575C756.837 575 756.16 575.677 756.16 576.563V592.713ZM763.245 591.698C761.109 591.698 759.234 589.926 759.234 587.295V587.243C759.234 584.612 761.109 582.841 763.245 582.841C765.381 582.841 767.179 584.586 767.179 587.243V587.295C767.179 590.004 765.407 591.698 763.245 591.698Z" fill="white"/>
<path d="M773.819 592.713C773.819 593.599 774.522 594.276 775.382 594.276C776.267 594.276 776.971 593.599 776.971 592.713V576.563C776.971 575.703 776.267 575 775.382 575C774.496 575 773.819 575.703 773.819 576.563V592.713Z" fill="white"/>
<path d="M787.628 594.459C791.874 594.459 795 591.203 795 587.295V587.243C795 583.31 791.9 580.106 787.68 580.106C783.46 580.106 780.334 583.362 780.334 587.295V587.347C780.334 591.255 783.434 594.459 787.628 594.459ZM787.68 591.698C785.232 591.698 783.486 589.692 783.486 587.295V587.243C783.486 584.847 785.101 582.867 787.628 582.867C790.103 582.867 791.848 584.873 791.848 587.295V587.347C791.848 589.718 790.233 591.698 787.68 591.698Z" fill="white"/>
<path d="M736.96 590.09C735.74 590.65 734.453 591.046 733.208 591.294C728.074 592.314 725.36 589.099 729.634 586.781C730.099 586.529 730.632 586.291 731.228 586.075L732.011 585.826C732.241 585.763 732.463 585.661 732.534 585.515C732.905 584.723 729.731 584.467 727.622 585.589C728.458 585.431 729.186 585.408 729.668 585.609C724.878 586.845 723.788 590.757 726.335 592.642C727.649 593.615 729.127 593.873 731.832 593.682C733.637 593.555 735.48 592.837 736.96 591.969V590.09Z" fill="white"/>
<path d="M734.542 592.784C734.542 593.607 735.171 594.165 736.03 594.165C736.89 594.165 737.478 593.644 737.478 592.784V586.011C737.478 584.214 737.009 582.755 735.993 581.765C735.029 580.776 733.492 580.228 731.434 580.228C729.637 580.228 728.308 580.541 727.006 581.036C726.537 581.218 726.146 581.713 726.146 582.286C726.146 583.016 726.745 583.589 727.475 583.589C727.631 583.589 727.787 583.563 727.97 583.511C728.829 583.172 729.819 582.964 731.018 582.964C733.232 582.964 734.43 584.006 734.43 585.959V585.968L734.542 592.784Z" fill="white"/>
<path d="M733.611 578.379C733.611 578.591 733.273 578.721 732.805 578.721C732.077 578.721 731.583 578.64 730.984 578.282L729.216 577.24C728.956 577.093 728.774 576.93 728.774 576.751C728.774 576.442 729.814 576.116 730.646 576.116C731.192 576.116 731.609 576.295 731.895 576.589L733.377 578.021C733.481 578.119 733.611 578.265 733.611 578.379Z" fill="white"/>
</g>
<defs>
<linearGradient id="paint0_linear_5188_12874" x1="800" y1="2.20924e-05" x2="1.22569" y2="601.627" gradientUnits="userSpaceOnUse">
<stop stop-color="#00B2EA"/>
<stop offset="1" stop-color="#52747E"/>
</linearGradient>
<clipPath id="clip0_5188_12874">
<rect width="800" height="600" fill="white"/>
</clipPath>
</defs>
</svg>
