<svg width="800" height="600" viewBox="0 0 800 600" fill="none" xmlns="http://www.w3.org/2000/svg">
<g clip-path="url(#clip0_5189_12405)">
<rect width="800" height="600" fill="url(#paint0_linear_5189_12405)"/>
<path d="M331.668 110.566C331.668 126.842 333.003 139.31 335.672 147.969C338.341 156.562 343.81 160.859 352.078 160.859C360.346 160.859 365.75 156.562 368.289 147.969C370.893 139.31 372.195 126.842 372.195 110.566C372.195 93.5091 370.893 80.8789 368.289 72.6758C365.75 64.4727 360.346 60.3711 352.078 60.3711C343.81 60.3711 338.341 64.4727 335.672 72.6758C333.003 80.8789 331.668 93.5091 331.668 110.566ZM352.078 37.4219C370.112 37.4219 382.742 43.7695 389.969 56.4648C397.26 69.1602 400.906 87.194 400.906 110.566C400.906 133.939 397.26 151.94 389.969 164.57C382.742 177.201 370.112 183.516 352.078 183.516C334.044 183.516 321.382 177.201 314.09 164.57C306.863 151.94 303.25 133.939 303.25 110.566C303.25 87.194 306.863 69.1602 314.09 56.4648C321.382 43.7695 334.044 37.4219 352.078 37.4219ZM440.945 136.543C440.945 142.207 441.857 146.895 443.68 150.605C447.065 157.441 453.217 160.859 462.137 160.859C467.605 160.859 472.358 159.004 476.395 155.293C480.496 151.517 482.547 146.113 482.547 139.082C482.547 129.772 478.771 123.555 471.219 120.43C466.922 118.672 460.151 117.793 450.906 117.793V97.8711C459.956 97.7409 466.271 96.862 469.852 95.2344C476.036 92.5 479.129 86.9661 479.129 78.6328C479.129 73.2292 477.534 68.8346 474.344 65.4492C471.219 62.0638 466.792 60.3711 461.062 60.3711C454.487 60.3711 449.637 62.4544 446.512 66.6211C443.452 70.7878 441.987 76.3542 442.117 83.3203H416.141C416.401 76.2891 417.605 69.6159 419.754 63.3008C422.033 57.7669 425.613 52.6562 430.496 47.9688C434.142 44.6484 438.471 42.1094 443.484 40.3516C448.497 38.5938 454.65 37.7148 461.941 37.7148C475.483 37.7148 486.388 41.2305 494.656 48.2617C502.99 55.2279 507.156 64.6029 507.156 76.3867C507.156 84.7201 504.682 91.7513 499.734 97.4805C496.609 101.061 493.354 103.503 489.969 104.805C492.508 104.805 496.154 106.986 500.906 111.348C508.003 117.923 511.551 126.908 511.551 138.301C511.551 150.28 507.384 160.827 499.051 169.941C490.783 178.991 478.51 183.516 462.234 183.516C442.182 183.516 428.25 176.973 420.438 163.887C416.336 156.921 414.057 147.806 413.602 136.543H440.945Z" fill="white" fill-opacity="0.5"/>
<path d="M341.805 294.391C340.893 290.458 338.667 287.711 335.125 286.148C333.146 285.289 330.945 284.859 328.523 284.859C323.888 284.859 320.073 286.617 317.078 290.133C314.109 293.622 312.625 298.883 312.625 305.914C312.625 312.997 314.24 318.01 317.469 320.953C320.698 323.896 324.37 325.367 328.484 325.367C332.521 325.367 335.828 324.208 338.406 321.891C340.984 319.547 342.573 316.487 343.172 312.711H329.852V303.102H353.836V334H345.867L344.656 326.812C342.339 329.547 340.255 331.474 338.406 332.594C335.229 334.547 331.323 335.523 326.688 335.523C319.057 335.523 312.807 332.88 307.938 327.594C302.859 322.281 300.32 315.016 300.32 305.797C300.32 296.474 302.885 289 308.016 283.375C313.146 277.75 319.93 274.938 328.367 274.938C335.685 274.938 341.557 276.799 345.984 280.523C350.438 284.221 352.99 288.844 353.641 294.391H341.805ZM375.906 286.344H364.617V276.07H375.906V286.344ZM364.617 291.422H375.906V334H364.617V291.422ZM382.352 299.742V291.812H388.289V279.938H399.305V291.812H406.219V299.742H399.305V322.242C399.305 323.987 399.526 325.081 399.969 325.523C400.411 325.94 401.766 326.148 404.031 326.148C404.37 326.148 404.721 326.148 405.086 326.148C405.477 326.122 405.854 326.096 406.219 326.07V334.391L400.945 334.586C395.685 334.768 392.091 333.857 390.164 331.852C388.914 330.576 388.289 328.609 388.289 325.953V299.742H382.352ZM434.773 318.805C434.773 315.341 435.633 312.372 437.352 309.898C439.07 307.424 441.883 304.977 445.789 302.555L447 301.812C445.333 299.938 444.044 298.023 443.133 296.07C442.221 294.117 441.766 292.086 441.766 289.977C441.766 285.784 443.172 282.516 445.984 280.172C448.797 277.802 452.443 276.617 456.922 276.617C461.01 276.617 464.383 277.828 467.039 280.25C469.721 282.646 471.062 285.719 471.062 289.469C471.062 292.854 470.255 295.602 468.641 297.711C467.052 299.82 464.708 301.773 461.609 303.57L469.773 313.648C470.711 312.294 471.427 310.823 471.922 309.234C472.443 307.646 472.716 305.966 472.742 304.195H482.625C482.469 307.685 481.635 311.214 480.125 314.781C479.292 316.786 477.938 319 476.062 321.422L486.531 334H473.016L469.031 329.117C467.104 330.914 465.307 332.242 463.641 333.102C460.672 334.638 457.247 335.406 453.367 335.406C447.534 335.406 442.977 333.688 439.695 330.25C436.414 326.812 434.773 322.997 434.773 318.805ZM452 289.586C452 290.628 452.365 291.721 453.094 292.867C453.562 293.622 454.578 294.964 456.141 296.891C457.703 295.797 458.823 294.872 459.5 294.117C460.802 292.711 461.453 291.188 461.453 289.547C461.453 288.349 461.062 287.281 460.281 286.344C459.5 285.406 458.315 284.938 456.727 284.938C455.737 284.938 454.812 285.211 453.953 285.758C452.651 286.565 452 287.841 452 289.586ZM445.867 318.453C445.867 320.354 446.635 322.099 448.172 323.688C449.734 325.276 451.727 326.07 454.148 326.07C455.971 326.07 457.69 325.654 459.305 324.82C460.945 323.961 462.273 323.01 463.289 321.969L452.742 308.922C449.956 310.771 448.107 312.398 447.195 313.805C446.31 315.211 445.867 316.76 445.867 318.453ZM555.32 294.391C554.409 290.458 552.182 287.711 548.641 286.148C546.661 285.289 544.461 284.859 542.039 284.859C537.404 284.859 533.589 286.617 530.594 290.133C527.625 293.622 526.141 298.883 526.141 305.914C526.141 312.997 527.755 318.01 530.984 320.953C534.214 323.896 537.885 325.367 542 325.367C546.036 325.367 549.344 324.208 551.922 321.891C554.5 319.547 556.089 316.487 556.688 312.711H543.367V303.102H567.352V334H559.383L558.172 326.812C555.854 329.547 553.771 331.474 551.922 332.594C548.745 334.547 544.839 335.523 540.203 335.523C532.573 335.523 526.323 332.88 521.453 327.594C516.375 322.281 513.836 315.016 513.836 305.797C513.836 296.474 516.401 289 521.531 283.375C526.661 277.75 533.445 274.938 541.883 274.938C549.201 274.938 555.073 276.799 559.5 280.523C563.953 284.221 566.505 288.844 567.156 294.391H555.32ZM589.422 286.344H578.133V276.07H589.422V286.344ZM578.133 291.422H589.422V334H578.133V291.422ZM595.867 299.742V291.812H601.805V279.938H612.82V291.812H619.734V299.742H612.82V322.242C612.82 323.987 613.042 325.081 613.484 325.523C613.927 325.94 615.281 326.148 617.547 326.148C617.885 326.148 618.237 326.148 618.602 326.148C618.992 326.122 619.37 326.096 619.734 326.07V334.391L614.461 334.586C609.201 334.768 605.607 333.857 603.68 331.852C602.43 330.576 601.805 328.609 601.805 325.953V299.742H595.867ZM627.703 334V276.422H639.617V298.375H662.117V276.422H674.07V334H662.117V308.297H639.617V334H627.703ZM695.789 291.422V317.086C695.789 319.508 696.076 321.331 696.648 322.555C697.664 324.716 699.656 325.797 702.625 325.797C706.427 325.797 709.031 324.26 710.438 321.188C711.167 319.521 711.531 317.32 711.531 314.586V291.422H722.82V334H712V327.984C711.896 328.115 711.635 328.505 711.219 329.156C710.802 329.807 710.307 330.38 709.734 330.875C707.99 332.438 706.297 333.505 704.656 334.078C703.042 334.651 701.141 334.938 698.953 334.938C692.651 334.938 688.406 332.672 686.219 328.141C684.995 325.641 684.383 321.956 684.383 317.086V291.422H695.789ZM756.609 290.484C762.208 290.484 766.583 292.503 769.734 296.539C772.911 300.576 774.5 305.784 774.5 312.164C774.5 318.779 772.938 324.26 769.812 328.609C766.688 332.958 762.326 335.133 756.727 335.133C753.211 335.133 750.385 334.43 748.25 333.023C746.974 332.19 745.594 330.732 744.109 328.648V334H733.211V276.5H744.305V296.969C745.711 294.99 747.26 293.479 748.953 292.438C750.958 291.135 753.51 290.484 756.609 290.484ZM753.758 325.953C756.622 325.953 758.849 324.794 760.438 322.477C762.026 320.159 762.82 317.112 762.82 313.336C762.82 310.315 762.43 307.815 761.648 305.836C760.164 302.086 757.43 300.211 753.445 300.211C749.409 300.211 746.635 302.047 745.125 305.719C744.344 307.672 743.953 310.198 743.953 313.297C743.953 316.943 744.76 319.964 746.375 322.359C747.99 324.755 750.451 325.953 753.758 325.953ZM314.109 426H302.156V368.422H314.109V426ZM348.055 382.406C352.456 382.406 356.049 383.565 358.836 385.883C361.648 388.174 363.055 391.99 363.055 397.328V426H351.648V400.102C351.648 397.862 351.349 396.143 350.75 394.945C349.656 392.758 347.573 391.664 344.5 391.664C340.724 391.664 338.133 393.266 336.727 396.469C335.997 398.161 335.633 400.323 335.633 402.953V426H324.539V383.5H335.281V389.711C336.714 387.523 338.068 385.948 339.344 384.984C341.635 383.266 344.539 382.406 348.055 382.406ZM384.812 378.344H373.523V368.07H384.812V378.344ZM373.523 383.422H384.812V426H373.523V383.422ZM391.258 391.742V383.812H397.195V371.938H408.211V383.812H415.125V391.742H408.211V414.242C408.211 415.987 408.432 417.081 408.875 417.523C409.318 417.94 410.672 418.148 412.938 418.148C413.276 418.148 413.628 418.148 413.992 418.148C414.383 418.122 414.76 418.096 415.125 418.07V426.391L409.852 426.586C404.591 426.768 400.997 425.857 399.07 423.852C397.82 422.576 397.195 420.609 397.195 417.953V391.742H391.258ZM433.719 378.344H422.43V368.07H433.719V378.344ZM422.43 383.422H433.719V426H422.43V383.422ZM468.016 405.297C467.312 405.74 466.596 406.104 465.867 406.391C465.164 406.651 464.188 406.898 462.938 407.133L460.438 407.602C458.094 408.018 456.414 408.526 455.398 409.125C453.68 410.141 452.82 411.716 452.82 413.852C452.82 415.753 453.341 417.133 454.383 417.992C455.451 418.826 456.74 419.242 458.25 419.242C460.646 419.242 462.846 418.539 464.852 417.133C466.883 415.727 467.938 413.161 468.016 409.438V405.297ZM461.258 400.102C463.315 399.841 464.786 399.516 465.672 399.125C467.26 398.448 468.055 397.393 468.055 395.961C468.055 394.216 467.443 393.018 466.219 392.367C465.021 391.69 463.25 391.352 460.906 391.352C458.276 391.352 456.414 392.003 455.32 393.305C454.539 394.268 454.018 395.57 453.758 397.211H443.016C443.25 393.487 444.292 390.427 446.141 388.031C449.083 384.281 454.135 382.406 461.297 382.406C465.958 382.406 470.099 383.331 473.719 385.18C477.339 387.029 479.148 390.518 479.148 395.648V415.18C479.148 416.534 479.174 418.174 479.227 420.102C479.305 421.56 479.526 422.549 479.891 423.07C480.255 423.591 480.802 424.021 481.531 424.359V426H469.422C469.083 425.141 468.849 424.333 468.719 423.578C468.589 422.823 468.484 421.964 468.406 421C466.87 422.667 465.099 424.086 463.094 425.258C460.698 426.638 457.99 427.328 454.969 427.328C451.115 427.328 447.924 426.234 445.398 424.047C442.898 421.833 441.648 418.708 441.648 414.672C441.648 409.438 443.667 405.648 447.703 403.305C449.917 402.029 453.172 401.117 457.469 400.57L461.258 400.102ZM500.438 426H489.305V368.422H500.438V426ZM311.805 500.227C312.169 502.857 312.885 504.823 313.953 506.125C315.906 508.495 319.253 509.68 323.992 509.68C326.831 509.68 329.135 509.367 330.906 508.742C334.266 507.544 335.945 505.318 335.945 502.062C335.945 500.161 335.112 498.69 333.445 497.648C331.779 496.633 329.161 495.734 325.594 494.953L319.5 493.586C313.51 492.232 309.37 490.76 307.078 489.172C303.198 486.516 301.258 482.362 301.258 476.711C301.258 471.555 303.133 467.271 306.883 463.859C310.633 460.448 316.141 458.742 323.406 458.742C329.474 458.742 334.643 460.357 338.914 463.586C343.211 466.789 345.464 471.451 345.672 477.57H334.109C333.901 474.107 332.391 471.646 329.578 470.188C327.703 469.224 325.372 468.742 322.586 468.742C319.487 468.742 317.013 469.367 315.164 470.617C313.315 471.867 312.391 473.612 312.391 475.852C312.391 477.909 313.302 479.445 315.125 480.461C316.297 481.138 318.797 481.932 322.625 482.844L332.547 485.227C336.896 486.268 340.177 487.661 342.391 489.406C345.828 492.115 347.547 496.034 347.547 501.164C347.547 506.424 345.529 510.799 341.492 514.289C337.482 517.753 331.805 519.484 324.461 519.484C316.961 519.484 311.062 517.779 306.766 514.367C302.469 510.93 300.32 506.216 300.32 500.227H311.805ZM372.352 483.469C369.773 483.469 367.768 484.276 366.336 485.891C364.93 487.505 364.044 489.693 363.68 492.453H380.984C380.802 489.51 379.904 487.284 378.289 485.773C376.701 484.237 374.721 483.469 372.352 483.469ZM372.352 474.289C375.893 474.289 379.083 474.953 381.922 476.281C384.76 477.609 387.104 479.706 388.953 482.57C390.62 485.096 391.701 488.026 392.195 491.359C392.482 493.312 392.599 496.125 392.547 499.797H363.406C363.562 504.068 364.904 507.062 367.43 508.781C368.966 509.849 370.815 510.383 372.977 510.383C375.268 510.383 377.13 509.732 378.562 508.43C379.344 507.727 380.034 506.75 380.633 505.5H392C391.714 508.026 390.398 510.591 388.055 513.195C384.409 517.336 379.305 519.406 372.742 519.406C367.326 519.406 362.547 517.661 358.406 514.172C354.266 510.682 352.195 505.005 352.195 497.141C352.195 489.771 354.057 484.12 357.781 480.188C361.531 476.255 366.388 474.289 372.352 474.289ZM395.711 483.742V475.812H401.648V463.938H412.664V475.812H419.578V483.742H412.664V506.242C412.664 507.987 412.885 509.081 413.328 509.523C413.771 509.94 415.125 510.148 417.391 510.148C417.729 510.148 418.081 510.148 418.445 510.148C418.836 510.122 419.214 510.096 419.578 510.07V518.391L414.305 518.586C409.044 518.768 405.451 517.857 403.523 515.852C402.273 514.576 401.648 512.609 401.648 509.953V483.742H395.711ZM422.352 483.742V475.812H428.289V463.938H439.305V475.812H446.219V483.742H439.305V506.242C439.305 507.987 439.526 509.081 439.969 509.523C440.411 509.94 441.766 510.148 444.031 510.148C444.37 510.148 444.721 510.148 445.086 510.148C445.477 510.122 445.854 510.096 446.219 510.07V518.391L440.945 518.586C435.685 518.768 432.091 517.857 430.164 515.852C428.914 514.576 428.289 512.609 428.289 509.953V483.742H422.352ZM464.812 470.344H453.523V460.07H464.812V470.344ZM453.523 475.422H464.812V518H453.523V475.422ZM499.227 474.406C503.628 474.406 507.221 475.565 510.008 477.883C512.82 480.174 514.227 483.99 514.227 489.328V518H502.82V492.102C502.82 489.862 502.521 488.143 501.922 486.945C500.828 484.758 498.745 483.664 495.672 483.664C491.896 483.664 489.305 485.266 487.898 488.469C487.169 490.161 486.805 492.323 486.805 494.953V518H475.711V475.5H486.453V481.711C487.885 479.523 489.24 477.948 490.516 476.984C492.807 475.266 495.711 474.406 499.227 474.406ZM542.82 508.859C545.424 508.859 547.625 507.883 549.422 505.93C551.219 503.951 552.117 500.812 552.117 496.516C552.117 492.479 551.258 489.406 549.539 487.297C547.846 485.188 545.568 484.133 542.703 484.133C538.797 484.133 536.102 485.969 534.617 489.641C533.836 491.594 533.445 494.003 533.445 496.867C533.445 499.341 533.862 501.542 534.695 503.469C536.206 507.062 538.914 508.859 542.82 508.859ZM540.047 474.406C542.182 474.406 544.044 474.732 545.633 475.383C548.341 476.503 550.529 478.56 552.195 481.555V475.422H563.016V515.812C563.016 521.307 562.091 525.448 560.242 528.234C557.065 533.026 550.971 535.422 541.961 535.422C536.518 535.422 532.078 534.354 528.641 532.219C525.203 530.083 523.302 526.893 522.938 522.648H535.047C535.359 523.951 535.867 524.888 536.57 525.461C537.768 526.477 539.786 526.984 542.625 526.984C546.635 526.984 549.318 525.643 550.672 522.961C551.557 521.242 552 518.352 552 514.289V511.555C550.932 513.378 549.786 514.745 548.562 515.656C546.349 517.349 543.471 518.195 539.93 518.195C534.461 518.195 530.086 516.281 526.805 512.453C523.549 508.599 521.922 503.391 521.922 496.828C521.922 490.5 523.497 485.188 526.648 480.891C529.799 476.568 534.266 474.406 540.047 474.406ZM582.117 504.406C582.352 506.385 582.859 507.792 583.641 508.625C585.021 510.109 587.573 510.852 591.297 510.852C593.484 510.852 595.216 510.526 596.492 509.875C597.794 509.224 598.445 508.247 598.445 506.945C598.445 505.695 597.924 504.745 596.883 504.094C595.841 503.443 591.974 502.323 585.281 500.734C580.464 499.536 577.065 498.039 575.086 496.242C573.107 494.471 572.117 491.919 572.117 488.586C572.117 484.654 573.654 481.281 576.727 478.469C579.826 475.63 584.174 474.211 589.773 474.211C595.086 474.211 599.409 475.279 602.742 477.414C606.102 479.523 608.029 483.182 608.523 488.391H597.391C597.234 486.958 596.831 485.826 596.18 484.992C594.956 483.482 592.872 482.727 589.93 482.727C587.508 482.727 585.776 483.104 584.734 483.859C583.719 484.615 583.211 485.5 583.211 486.516C583.211 487.792 583.758 488.716 584.852 489.289C585.945 489.888 589.812 490.917 596.453 492.375C600.88 493.417 604.201 494.992 606.414 497.102C608.602 499.237 609.695 501.906 609.695 505.109C609.695 509.328 608.12 512.779 604.969 515.461C601.844 518.117 597 519.445 590.438 519.445C583.745 519.445 578.797 518.039 575.594 515.227C572.417 512.388 570.828 508.781 570.828 504.406H582.117Z" fill="white" fill-opacity="0.8"/>
<circle cx="73" cy="300" r="173" fill="white"/>
<circle cx="132.5" cy="111.5" r="19.5" fill="white"/>
<circle cx="172" cy="76" r="10" fill="white"/>
<circle cx="212.5" cy="60.5" r="7.5" fill="white"/>
<circle cx="246.5" cy="56.5" r="5.5" fill="white"/>
<circle cx="270.5" cy="62.5" r="4.5" fill="white"/>
<circle cx="288.5" cy="76.5" r="3.5" fill="white"/>
<path d="M42.1621 368.176C41.752 366.406 40.75 365.17 39.1562 364.467C38.2656 364.08 37.2754 363.887 36.1855 363.887C34.0996 363.887 32.3828 364.678 31.0352 366.26C29.6992 367.83 29.0312 370.197 29.0312 373.361C29.0312 376.549 29.7578 378.805 31.2109 380.129C32.6641 381.453 34.3164 382.115 36.168 382.115C37.9844 382.115 39.4727 381.594 40.6328 380.551C41.793 379.496 42.5078 378.119 42.7773 376.42H36.7832V372.096H47.5762V386H43.9902L43.4453 382.766C42.4023 383.996 41.4648 384.863 40.6328 385.367C39.2031 386.246 37.4453 386.686 35.3594 386.686C31.9258 386.686 29.1133 385.496 26.9219 383.117C24.6367 380.727 23.4941 377.457 23.4941 373.309C23.4941 369.113 24.6484 365.75 26.957 363.219C29.2656 360.688 32.3184 359.422 36.1152 359.422C39.4082 359.422 42.0508 360.26 44.043 361.936C46.0469 363.6 47.1953 365.68 47.4883 368.176H42.1621ZM57.5078 364.555H52.4277V359.932H57.5078V364.555ZM52.4277 366.84H57.5078V386H52.4277V366.84ZM60.4082 370.584V367.016H63.0801V361.672H68.0371V367.016H71.1484V370.584H68.0371V380.709C68.0371 381.494 68.1367 381.986 68.3359 382.186C68.5352 382.373 69.1445 382.467 70.1641 382.467C70.3164 382.467 70.4746 382.467 70.6387 382.467C70.8145 382.455 70.9844 382.443 71.1484 382.432V386.176L68.7754 386.264C66.4082 386.346 64.791 385.936 63.9238 385.033C63.3613 384.459 63.0801 383.574 63.0801 382.379V370.584H60.4082ZM74.7344 386V360.09H80.0957V369.969H90.2207V360.09H95.5996V386H90.2207V374.434H80.0957V386H74.7344ZM105.373 366.84V378.389C105.373 379.479 105.502 380.299 105.76 380.85C106.217 381.822 107.113 382.309 108.449 382.309C110.16 382.309 111.332 381.617 111.965 380.234C112.293 379.484 112.457 378.494 112.457 377.264V366.84H117.537V386H112.668V383.293C112.621 383.352 112.504 383.527 112.316 383.82C112.129 384.113 111.906 384.371 111.648 384.594C110.863 385.297 110.102 385.777 109.363 386.035C108.637 386.293 107.781 386.422 106.797 386.422C103.961 386.422 102.051 385.402 101.066 383.363C100.516 382.238 100.24 380.58 100.24 378.389V366.84H105.373ZM132.742 366.418C135.262 366.418 137.23 367.326 138.648 369.143C140.078 370.959 140.793 373.303 140.793 376.174C140.793 379.15 140.09 381.617 138.684 383.574C137.277 385.531 135.314 386.51 132.795 386.51C131.213 386.51 129.941 386.193 128.98 385.561C128.406 385.186 127.785 384.529 127.117 383.592V386H122.213V360.125H127.205V369.336C127.838 368.445 128.535 367.766 129.297 367.297C130.199 366.711 131.348 366.418 132.742 366.418ZM131.459 382.379C132.748 382.379 133.75 381.857 134.465 380.814C135.18 379.771 135.537 378.4 135.537 376.701C135.537 375.342 135.361 374.217 135.01 373.326C134.342 371.639 133.111 370.795 131.318 370.795C129.502 370.795 128.254 371.621 127.574 373.273C127.223 374.152 127.047 375.289 127.047 376.684C127.047 378.324 127.41 379.684 128.137 380.762C128.863 381.84 129.971 382.379 131.459 382.379Z" fill="#363636"/>
<path fill-rule="evenodd" clip-rule="evenodd" d="M97.5328 219.551C97.5328 221.853 98.843 223.186 101.107 223.186C103.41 223.186 104.72 221.853 104.719 219.551C104.719 217.252 103.41 216 101.107 216C98.843 216 97.5328 217.253 97.5328 219.551ZM90.4686 230.52C91.1828 231.449 91.9384 232.741 91.9384 234.598C91.9384 239.078 88.4841 241.702 83.4826 241.702C82.2107 241.702 81.0592 241.542 80.3451 241.34L79.0349 243.479L82.9248 243.72L83.1521 243.735C89.8828 244.171 93.8423 244.427 93.8423 249.734C93.8423 254.378 89.8334 257 82.9248 257C75.7385 257 73 255.143 73 251.955C73 250.138 73.7948 249.171 75.184 247.837C73.873 247.274 73.4373 246.265 73.4373 245.175C73.4373 244.286 73.8737 243.479 74.5887 242.712C75.3037 241.946 76.0976 241.177 77.0496 240.29C75.1042 239.321 73.636 237.222 73.636 234.234C73.636 229.592 76.653 226.405 82.7269 226.405C84.4345 226.405 85.4679 226.564 86.3799 226.809H94.1224V230.239L90.4686 230.52ZM79.2742 234.114C79.2742 231.489 80.9004 230.399 83.0844 230.399C85.3474 230.399 86.6983 231.651 86.6983 234.032C86.6983 236.132 85.1886 237.464 82.9671 237.464C80.3459 237.464 79.2742 236.091 79.2742 234.114ZM77.6863 251.069C77.6863 250.26 78.2018 249.575 78.7189 248.93L84.5135 249.332L84.5862 249.337C86.4581 249.456 87.9295 249.55 87.9295 250.827C87.9295 253.004 84.7928 253.168 82.4908 253.168C79.7099 253.168 77.6863 252.683 77.6863 251.069ZM95.984 247.445V244.257L98.01 243.975C98.5653 243.894 98.6443 243.773 98.6443 243.166V231.299C98.6443 230.856 98.5262 230.572 98.1281 230.451L95.984 229.684L96.4205 226.416H104.64V243.167C104.64 243.814 104.678 243.894 105.275 243.976L107.3 244.258V247.446H95.984V247.445ZM116.527 247.494C118.792 247.494 121.292 246.725 123 245.879L121.928 242.327C120.976 242.69 119.826 242.972 118.713 242.972C116.569 242.972 116.013 242.044 116.013 239.663V230.016H121.928V225.979H116.331C116.013 225.979 116.013 225.857 116.013 225.575V219.842H112.241C111.804 224.242 110.416 226.018 106.921 226.422V230.015H109.699C110.017 230.015 110.017 230.177 110.017 230.418V240.994C110.017 245.558 111.803 247.494 116.527 247.494Z" fill="#31251C"/>
<path d="M63.2074 235.129L44.8697 216.792C43.8146 215.736 42.1016 215.736 41.0456 216.792L37.2377 220.6L42.067 225.43C43.1906 225.051 44.4772 225.305 45.3719 226.201C46.2715 227.101 46.5238 228.399 46.1353 229.526L50.7904 234.181C51.9157 233.793 53.216 234.044 54.1155 234.944C55.373 236.201 55.373 238.238 54.1155 239.496C52.8572 240.753 50.8211 240.753 49.5636 239.496C48.618 238.549 48.3843 237.16 48.8631 235.996L44.5215 231.654L44.5207 243.08C44.8278 243.231 45.1164 243.433 45.3719 243.687C46.6294 244.944 46.6294 246.98 45.3719 248.239C44.1144 249.496 42.0766 249.496 40.8207 248.239C39.5632 246.98 39.5632 244.944 40.8207 243.687C41.1319 243.377 41.4906 243.142 41.8743 242.985V231.454C41.4906 231.298 41.1319 231.064 40.8207 230.752C39.8679 229.8 39.639 228.403 40.1275 227.233L35.3668 222.471L22.7926 235.044C21.7358 236.101 21.7358 237.814 22.7926 238.871L41.1303 257.208C42.1863 258.264 43.8984 258.264 44.956 257.208L63.2074 238.955C64.2642 237.899 64.2642 236.185 63.2074 235.129V235.129Z" fill="#F34F29"/>
<path d="M84.4999 291C70.5231 291.001 58.6095 301.212 56.3706 315.111C54.1317 329.009 62.2284 342.492 75.4877 346.945C76.9125 347.196 77.4469 346.335 77.4469 345.581C77.4469 344.9 77.4112 342.639 77.4112 340.235C70.2512 341.562 68.3989 338.476 67.829 336.861C67.1965 335.291 66.194 333.899 64.908 332.806C63.9106 332.268 62.4857 330.94 64.8723 330.904C66.7218 331.107 68.3572 332.205 69.2538 333.847C70.041 335.272 71.3586 336.322 72.9158 336.766C74.473 337.211 76.1417 337.012 77.5536 336.215C77.677 334.756 78.3226 333.391 79.3704 332.376C73.0297 331.658 66.4041 329.182 66.4041 318.201C66.3641 315.348 67.4092 312.587 69.3251 310.486C68.4539 308.006 68.5558 305.285 69.61 302.878C69.61 302.878 71.9966 302.124 77.4468 305.821C82.1098 304.529 87.0325 304.529 91.6954 305.821C97.1455 302.089 99.5322 302.878 99.5322 302.878C100.587 305.285 100.689 308.006 99.8172 310.486C101.739 312.584 102.785 315.347 102.738 318.201C102.738 329.218 96.0768 331.658 89.7362 332.376C91.1124 333.781 91.8143 335.719 91.6598 337.687C91.6598 341.527 91.6242 344.613 91.6242 345.582C91.6242 346.335 92.1585 347.232 93.5833 346.945C106.818 342.456 114.878 328.971 112.623 315.087C110.369 301.203 98.4648 291.007 84.4999 291Z" fill="black"/>
<path d="M741.435 592.713C741.435 593.599 742.138 594.276 742.998 594.276C743.883 594.276 744.587 593.599 744.587 592.713V576.563C744.587 575.703 743.883 575 742.998 575C742.112 575 741.435 575.703 741.435 576.563V592.713Z" fill="white"/>
<path d="M748.654 576.849C748.654 577.787 749.435 578.412 750.451 578.412C751.467 578.412 752.248 577.787 752.248 576.849V576.693C752.248 575.755 751.467 575.156 750.451 575.156C749.435 575.156 748.654 575.755 748.654 576.693V576.849ZM748.888 592.713C748.888 593.599 749.591 594.276 750.451 594.276C751.337 594.276 752.04 593.599 752.04 592.713V581.825C752.04 580.939 751.337 580.236 750.451 580.236C749.565 580.236 748.888 580.939 748.888 581.825V592.713Z" fill="white"/>
<path d="M756.159 592.713C756.159 593.573 756.863 594.276 757.722 594.276C758.608 594.276 759.311 593.573 759.311 592.713V592.01C760.275 593.287 761.708 594.433 764 594.433C767.256 594.433 770.382 591.854 770.382 587.295V587.243C770.382 582.658 767.23 580.106 764 580.106C761.76 580.106 760.327 581.252 759.311 582.685V576.563C759.311 575.677 758.608 575 757.722 575C756.837 575 756.159 575.677 756.159 576.563V592.713ZM763.245 591.698C761.109 591.698 759.233 589.926 759.233 587.295V587.243C759.233 584.612 761.109 582.841 763.245 582.841C765.381 582.841 767.178 584.586 767.178 587.243V587.295C767.178 590.004 765.407 591.698 763.245 591.698Z" fill="white"/>
<path d="M773.818 592.713C773.818 593.599 774.521 594.276 775.381 594.276C776.267 594.276 776.97 593.599 776.97 592.713V576.563C776.97 575.703 776.267 575 775.381 575C774.495 575 773.818 575.703 773.818 576.563V592.713Z" fill="white"/>
<path d="M787.628 594.459C791.874 594.459 795 591.203 795 587.295V587.243C795 583.31 791.9 580.106 787.68 580.106C783.46 580.106 780.334 583.362 780.334 587.295V587.347C780.334 591.255 783.434 594.459 787.628 594.459ZM787.68 591.698C785.231 591.698 783.486 589.692 783.486 587.295V587.243C783.486 584.847 785.101 582.867 787.628 582.867C790.102 582.867 791.848 584.873 791.848 587.295V587.347C791.848 589.718 790.233 591.698 787.68 591.698Z" fill="white"/>
<path d="M736.96 590.09C735.74 590.65 734.453 591.047 733.208 591.294C728.074 592.315 725.36 589.099 729.634 586.781C730.099 586.529 730.632 586.291 731.228 586.075L732.011 585.826C732.241 585.763 732.463 585.662 732.534 585.515C732.905 584.723 729.731 584.467 727.622 585.589C728.458 585.431 729.186 585.408 729.668 585.609C724.878 586.845 723.788 590.757 726.335 592.642C727.649 593.615 729.127 593.873 731.832 593.682C733.637 593.555 735.48 592.837 736.96 591.969V590.09Z" fill="white"/>
<path d="M734.542 592.784C734.542 593.607 735.171 594.165 736.03 594.165C736.89 594.165 737.478 593.644 737.478 592.784V586.011C737.478 584.214 737.009 582.755 735.993 581.765C735.029 580.776 733.492 580.229 731.434 580.229C729.637 580.229 728.308 580.541 727.006 581.036C726.537 581.218 726.146 581.713 726.146 582.286C726.146 583.016 726.745 583.589 727.475 583.589C727.631 583.589 727.787 583.563 727.97 583.511C728.829 583.172 729.819 582.964 731.018 582.964C733.232 582.964 734.43 584.006 734.43 585.959V585.968L734.542 592.784Z" fill="white"/>
<path d="M733.611 578.379C733.611 578.591 733.273 578.721 732.805 578.721C732.077 578.721 731.583 578.64 730.984 578.282L729.216 577.24C728.956 577.093 728.774 576.93 728.774 576.751C728.774 576.442 729.814 576.116 730.646 576.116C731.192 576.116 731.609 576.296 731.895 576.589L733.377 578.021C733.481 578.119 733.611 578.266 733.611 578.379Z" fill="white"/>
</g>
<defs>
<linearGradient id="paint0_linear_5189_12405" x1="800" y1="-1.86968e-05" x2="1.22566" y2="601.627" gradientUnits="userSpaceOnUse">
<stop stop-color="#0087B1"/>
<stop offset="1" stop-color="#001B23"/>
</linearGradient>
<clipPath id="clip0_5189_12405">
<rect width="800" height="600" fill="white"/>
</clipPath>
</defs>
</svg>
