<?xml version="1.0" encoding="UTF-8"?>
<svg width="800px" height="600px" viewBox="0 0 800 600" version="1.1" xmlns="http://www.w3.org/2000/svg" xmlns:xlink="http://www.w3.org/1999/xlink">
    <title>2041-10-16-13-10_BranchOperationBasicLifeCycle</title>
    <defs>
        <path d="M8.68744595,14.5405413 C10.6544909,13.5649687 12,11.5915112 12,9.31636202 C12,6.07252388 9.26504479,3.44227578 5.89152197,3.44227578 C4.52034181,3.44227578 3.25480793,3.87689217 2.23537065,4.61058921 L2.23537065,1.05770107 C2.23537065,0.476155373 1.74046224,0 1.11695169,0 C0.493934821,0 0.0167986821,0.476630104 0.0167986821,1.05770107 L0.0167986821,1.80184219 L0,9.32158406 C-0.0041824725,11.2003327 0.951817666,12.865215 2.41753644,13.8939574 C2.4777647,13.9362085 2.55848043,13.9312238 2.6127846,13.8823265 C2.66758244,13.8334292 2.6779496,13.7558106 2.63746831,13.6950451 C0.724974359,10.8146136 1.16014819,5.53963813 5.89176881,5.53963813 C8.05899866,5.53963813 9.80709909,7.22944376 9.81623206,9.31351363 C9.82240299,10.8599505 9.11620201,12.0365717 8.19549958,12.7781018 C6.36026565,14.2561773 3.64974731,12.6382934 4.49738595,10.4697214 C4.5894562,10.2335427 4.71879884,9.9959397 4.88664808,9.76189723 L5.12361171,9.47705853 C5.19766284,9.39967734 5.25048599,9.29903433 5.2146946,9.19411874 C5.01401603,8.62800181 3.46832203,8.97526767 3.04005964,10.0315445 C3.34292878,9.79631524 3.65986763,9.66433998 3.96940137,9.71489885 C2.38890334,11.275815 3.44141679,13.9563846 5.46005069,14.7513219 C6.40494316,15.1232738 7.55964718,15.0976383 8.68744595,14.5405413" id="path-1"></path>
        <linearGradient x1="28.568518%" y1="104.445731%" x2="78.3472072%" y2="20.6880271%" id="linearGradient-3">
            <stop stop-color="#000F98" offset="0%"></stop>
            <stop stop-color="#00A5FD" offset="100%"></stop>
        </linearGradient>
        <path d="M626.293176,342.293176 L698.293176,342.293176 C700.502315,342.293176 702.293176,344.084037 702.293176,346.293176 L702.293176,531.43309 C702.293176,533.642229 700.502315,535.43309 698.293176,535.43309 L660.722729,535.43309 L660.722729,535.43309 L652.004021,567.706824 L640.959842,535.43309 L626.293176,535.43309 C624.084037,535.43309 622.293176,533.642229 622.293176,531.43309 L622.293176,346.293176 C622.293176,344.084037 624.084037,342.293176 626.293176,342.293176 Z" id="path-4"></path>
        <filter x="-4.1%" y="-1.4%" width="105.6%" height="102.3%" filterUnits="objectBoundingBox" id="filter-5">
            <feMorphology radius="0.25" operator="dilate" in="SourceAlpha" result="shadowSpreadOuter1"></feMorphology>
            <feOffset dx="-1" dy="-1" in="shadowSpreadOuter1" result="shadowOffsetOuter1"></feOffset>
            <feGaussianBlur stdDeviation="0.5" in="shadowOffsetOuter1" result="shadowBlurOuter1"></feGaussianBlur>
            <feComposite in="shadowBlurOuter1" in2="SourceAlpha" operator="out" result="shadowBlurOuter1"></feComposite>
            <feColorMatrix values="0 0 0 0 0   0 0 0 0 0   0 0 0 0 0  0 0 0 0.5 0" type="matrix" in="shadowBlurOuter1"></feColorMatrix>
        </filter>
        <filter x="-2.8%" y="-1.0%" width="103.1%" height="101.4%" filterUnits="objectBoundingBox" id="filter-6">
            <feOffset dx="0" dy="0" in="SourceAlpha" result="shadowOffsetInner1"></feOffset>
            <feComposite in="shadowOffsetInner1" in2="SourceAlpha" operator="arithmetic" k2="-1" k3="1" result="shadowInnerInner1"></feComposite>
            <feColorMatrix values="0 0 0 0 0   0 0 0 0 0   0 0 0 0 0  0 0 0 0.5 0" type="matrix" in="shadowInnerInner1"></feColorMatrix>
        </filter>
        <path d="M560.5,144.5 L696.5,144.5 C698.709139,144.5 700.5,146.290861 700.5,148.5 L700.5,333.639914 C700.5,335.849053 698.709139,337.639914 696.5,337.639914 L651.898475,337.639914 L651.898475,337.639914 L633.5,437.5 L635.5,337.639914 L560.5,337.639914 C558.290861,337.639914 556.5,335.849053 556.5,333.639914 L556.5,148.5 C556.5,146.290861 558.290861,144.5 560.5,144.5 Z" id="path-7"></path>
        <filter x="-0.9%" y="-1.1%" width="103.1%" height="102.5%" filterUnits="objectBoundingBox" id="filter-8">
            <feMorphology radius="0.25" operator="dilate" in="SourceAlpha" result="shadowSpreadOuter1"></feMorphology>
            <feOffset dx="1" dy="-1" in="shadowSpreadOuter1" result="shadowOffsetOuter1"></feOffset>
            <feGaussianBlur stdDeviation="0.5" in="shadowOffsetOuter1" result="shadowBlurOuter1"></feGaussianBlur>
            <feComposite in="shadowBlurOuter1" in2="SourceAlpha" operator="out" result="shadowBlurOuter1"></feComposite>
            <feColorMatrix values="0 0 0 0 0   0 0 0 0 0   0 0 0 0 0  0 0 0 0.5 0" type="matrix" in="shadowBlurOuter1"></feColorMatrix>
        </filter>
        <filter x="-0.2%" y="-0.8%" width="101.7%" height="101.8%" filterUnits="objectBoundingBox" id="filter-9">
            <feOffset dx="0" dy="0" in="SourceAlpha" result="shadowOffsetInner1"></feOffset>
            <feComposite in="shadowOffsetInner1" in2="SourceAlpha" operator="arithmetic" k2="-1" k3="1" result="shadowInnerInner1"></feComposite>
            <feColorMatrix values="0 0 0 0 0   0 0 0 0 0   0 0 0 0 0  0 0 0 0.5 0" type="matrix" in="shadowInnerInner1"></feColorMatrix>
        </filter>
        <path d="M682,301.169811 L682,308.471698 C682,309.023983 682.447715,309.471698 683,309.471698 L688.366667,309.471698 C688.918951,309.471698 689.366667,309.919413 689.366667,310.471698 L689.366667,311.235849 C689.366667,311.534086 689.608435,311.775855 689.906672,311.775855 C690.086061,311.775855 690.25374,311.686771 690.354153,311.538118 L694.628935,305.209704 C694.853847,304.876744 694.857629,304.441504 694.638538,304.104685 L690.503496,297.747699 C690.317262,297.461393 689.934192,297.380268 689.647886,297.566502 C689.47248,297.680599 689.366667,297.875656 689.366667,298.084906 L689.366667,299.169811 C689.366667,299.722096 688.918951,300.169811 688.366667,300.169811 L683,300.169811 C682.447715,300.169811 682,300.617527 682,301.169811 Z" id="path-10"></path>
        <filter x="-7.7%" y="2.7%" width="129.2%" height="107.7%" filterUnits="objectBoundingBox" id="filter-11">
            <feOffset dx="1" dy="1" in="SourceAlpha" result="shadowOffsetOuter1"></feOffset>
            <feGaussianBlur stdDeviation="0.5" in="shadowOffsetOuter1" result="shadowBlurOuter1"></feGaussianBlur>
            <feColorMatrix values="0 0 0 0 0   0 0 0 0 0   0 0 0 0 0  0 0 0 0.5 0" type="matrix" in="shadowBlurOuter1"></feColorMatrix>
        </filter>
        <path d="M672,327.169811 L672,334.471698 C672,335.023983 672.447715,335.471698 673,335.471698 L678.366667,335.471698 C678.918951,335.471698 679.366667,335.919413 679.366667,336.471698 L679.366667,337.235849 C679.366667,337.534086 679.608435,337.775855 679.906672,337.775855 C680.086061,337.775855 680.25374,337.686771 680.354153,337.538118 L684.628935,331.209704 C684.853847,330.876744 684.857629,330.441504 684.638538,330.104685 L680.503496,323.747699 C680.317262,323.461393 679.934192,323.380268 679.647886,323.566502 C679.47248,323.680599 679.366667,323.875656 679.366667,324.084906 L679.366667,325.169811 C679.366667,325.722096 678.918951,326.169811 678.366667,326.169811 L673,326.169811 C672.447715,326.169811 672,326.617527 672,327.169811 Z" id="path-12"></path>
        <filter x="-7.7%" y="2.7%" width="129.2%" height="107.7%" filterUnits="objectBoundingBox" id="filter-13">
            <feOffset dx="1" dy="1" in="SourceAlpha" result="shadowOffsetOuter1"></feOffset>
            <feGaussianBlur stdDeviation="0.5" in="shadowOffsetOuter1" result="shadowBlurOuter1"></feGaussianBlur>
            <feColorMatrix values="0 0 0 0 0   0 0 0 0 0   0 0 0 0 0  0 0 0 0.5 0" type="matrix" in="shadowBlurOuter1"></feColorMatrix>
        </filter>
    </defs>
    <g id="2041-10-16-13-10_BranchOperationBasicLifeCycle" stroke="none" stroke-width="1" fill="none" fill-rule="evenodd">
        <rect fill="#FFFFFF" x="0" y="0" width="800" height="600"></rect>
        <path d="M304.5,131 C406.948821,131 490,215.170467 490,319 C490,422.829533 406.948821,507 304.5,507 C202.051179,507 119,422.829533 119,319 C119,215.170467 202.051179,131 304.5,131 Z M304.179521,145 C209.087397,145 132,223.126311 132,319.5 C132,415.873689 209.087397,494 304.179521,494 C399.271645,494 476.359043,415.873689 476.359043,319.5 C476.359043,223.126311 399.271645,145 304.179521,145 Z" id="Combined-Shape" fill="#7BB2FF"></path>
        <path d="M212,138.5 C213.794925,138.5 215.419925,139.227537 216.596194,140.403806 C217.772463,141.580075 218.5,143.205075 218.5,145 L218.5,145 L218.5,254.5 L51.5,254.5 L51.5,145 C51.5,143.205075 52.2275373,141.580075 53.4038059,140.403806 C54.5800746,139.227537 56.2050746,138.5 58,138.5 L58,138.5 Z" id="Rectangle-Copy-2" stroke="#006AE1" stroke-width="3" fill="#FFFFFF" transform="translate(135.000000, 196.500000) rotate(-180.000000) translate(-135.000000, -196.500000) "></path>
        <path d="M212,423.5 C213.794925,423.5 215.419925,424.227537 216.596194,425.403806 C217.772463,426.580075 218.5,428.205075 218.5,430 L218.5,430 L218.5,539.5 L51.5,539.5 L51.5,430 C51.5,428.205075 52.2275373,426.580075 53.4038059,425.403806 C54.5800746,424.227537 56.2050746,423.5 58,423.5 L58,423.5 Z" id="Rectangle-Copy-6" stroke="#006AE1" stroke-width="3" fill="#FFFFFF" transform="translate(135.000000, 481.500000) rotate(-180.000000) translate(-135.000000, -481.500000) "></path>
        <path d="M557,138.5 C558.794925,138.5 560.419925,139.227537 561.596194,140.403806 C562.772463,141.580075 563.5,143.205075 563.5,145 L563.5,145 L563.5,254.5 L396.5,254.5 L396.5,145 C396.5,143.205075 397.227537,141.580075 398.403806,140.403806 C399.580075,139.227537 401.205075,138.5 403,138.5 L403,138.5 Z" id="Rectangle-Copy-4" stroke="#006AE1" stroke-width="3" fill="#FFFFFF" transform="translate(480.000000, 196.500000) rotate(-180.000000) translate(-480.000000, -196.500000) "></path>
        <path d="M557,423.5 C558.794925,423.5 560.419925,424.227537 561.596194,425.403806 C562.772463,426.580075 563.5,428.205075 563.5,430 L563.5,430 L563.5,539.5 L396.5,539.5 L396.5,430 C396.5,428.205075 397.227537,426.580075 398.403806,425.403806 C399.580075,424.227537 401.205075,423.5 403,423.5 L403,423.5 Z" id="Rectangle-Copy-8" stroke="#006AE1" stroke-width="3" fill="#FFFFFF" transform="translate(480.000000, 481.500000) rotate(-180.000000) translate(-480.000000, -481.500000) "></path>
        <g id="bloovee-winner-logo" transform="translate(725.000000, 580.000000)">
            <path d="M13,13.7751507 C13,14.396312 13.4732558,14.8717809 14.0514961,14.8717809 C14.6474304,14.8717809 15.1204503,14.3968042 15.1204503,13.7751507 L15.1204503,2.09687626 C15.1204503,1.49368045 14.6474304,1 14.0514961,1 C13.4557977,1 13,1.49392656 13,2.09687626 L13,13.7751507 Z M21.7920364,15 C24.6483217,15 26.751078,12.7149437 26.751078,9.97312215 L26.751078,9.93645297 C26.751078,7.17641992 24.6657798,4.92778666 21.8269526,4.92778666 C18.9881254,4.92778666 16.885369,7.212843 16.885369,9.97312215 L16.885369,10.0095452 C16.885369,12.7516128 18.9706673,15 21.7920364,15 Z M21.8269526,13.0621935 C20.179994,13.0621935 19.0055834,11.6547366 19.0055834,9.97312215 L19.0055834,9.93645297 C19.0055834,8.25459244 20.0919958,6.86534709 21.7920364,6.86534709 C23.456689,6.86534709 24.6306277,8.27305008 24.6306277,9.97312215 L24.6306277,10.0095452 C24.6306277,11.6731942 23.5444513,13.0621935 21.8269526,13.0621935 Z M32.8092717,15 C35.665557,15 37.7683133,12.7149437 37.7683133,9.97312215 L37.7683133,9.93645297 C37.7683133,7.17641992 35.6830151,4.92778666 32.8441878,4.92778666 C30.0053606,4.92778666 27.9026043,7.212843 27.9026043,9.97312215 L27.9026043,10.0095452 C27.9026043,12.7516128 29.9879025,15 32.8092717,15 Z M32.8441878,13.0621935 C31.1969933,13.0621935 30.0228187,11.6547366 30.0228187,9.97312215 L30.0228187,9.93645297 C30.0228187,8.25459244 31.109231,6.86534709 32.8092717,6.86534709 C34.4739243,6.86534709 35.647863,8.27305008 35.647863,9.97312215 L35.647863,10.0095452 C35.647863,11.6731942 34.5614506,13.0621935 32.8441878,13.0621935 Z M44.1416963,13.9944275 L47.2261164,6.6096472 C47.2784906,6.49988574 47.3487948,6.28060893 47.3487948,6.07954366 C47.3487948,5.47610175 46.8929971,5.01933658 46.3147568,5.01933658 C45.7539746,5.01933658 45.4737015,5.40300947 45.3158709,5.78692847 L42.8976893,12.2215093 L40.5144239,5.82335156 C40.3393711,5.36634029 40.041404,5.01933658 39.4629278,5.01933658 C38.8846875,5.01933658 38.4116676,5.53098247 38.4116676,6.07954366 C38.4116676,6.28060893 38.4817358,6.46346265 38.534346,6.62785874 L41.6182943,13.9944275 C41.8638872,14.5796579 42.2491448,14.9633308 42.8273851,14.9633308 L42.9326055,14.9633308 C43.5108458,14.9633308 43.8965752,14.5612003 44.1416963,13.9944275 Z M50.0949054,9.27837643 C50.2876522,7.77961573 51.1987758,6.73762019 52.4956289,6.73762019 C53.8974665,6.73762019 54.7036056,7.8524619 54.8437422,9.27837643 L50.0949054,9.27837643 Z M56.070527,13.72027 C56.2281217,13.5558739 56.3508002,13.3181395 56.3508002,13.0439819 C56.3508002,12.5320899 55.9830006,12.1481709 55.5095089,12.1481709 C55.2641519,12.1481709 55.1242513,12.2215093 54.9664207,12.3492362 C54.3704864,12.8611282 53.6695676,13.1901665 52.7759021,13.1901665 C51.4089807,13.1901665 50.3402624,12.3128131 50.1123635,10.7409601 L55.9126964,10.7409601 C56.4560206,10.7409601 56.9115824,10.3021604 56.9115824,9.68050697 C56.9115824,7.45057746 55.4568987,4.92778666 52.513087,4.92778666 C49.8672425,4.92778666 47.9919132,7.19438536 47.9919132,9.95466451 L47.9919132,9.9913337 C47.9919132,12.9708897 50.0597533,15 52.7409859,15 C54.1779755,15 55.2292357,14.5063195 56.070527,13.72027 Z M60.1833231,9.27837643 C60.3763058,7.77961573 61.2871935,6.73762019 62.5842825,6.73762019 C63.9858841,6.73762019 64.7920233,7.8524619 64.9321598,9.27837643 L60.1833231,9.27837643 Z M66.1589447,13.72027 C66.3167752,13.5558739 66.4394537,13.3181395 66.4394537,13.0439819 C66.4394537,12.5320899 66.0714183,12.1481709 65.5981624,12.1481709 C65.3528055,12.1481709 65.2126689,12.2215093 65.0548383,12.3492362 C64.4591399,12.8611282 63.7582212,13.1901665 62.8643197,13.1901665 C61.4976342,13.1901665 60.4289159,12.3128131 60.2007812,10.7409601 L66.0011141,10.7409601 C66.5444382,10.7409601 67,10.3021604 67,9.68050697 C67,7.45057746 65.5455522,4.92778666 62.6015046,4.92778666 C59.9556601,4.92778666 58.0805667,7.19438536 58.0805667,9.95466451 L58.0805667,9.9913337 C58.0805667,12.9708897 60.1484069,15 62.8294035,15 C64.2663932,15 65.3178893,14.5063195 66.1589447,13.72027 L66.1589447,13.72027 Z" id="Fill-1" fill="#030060"></path>
            <g id="Group-4">
                <mask id="mask-2" fill="white">
                    <use xlink:href="#path-1"></use>
                </mask>
                <g id="Clip-3"></g>
                <path d="M8.68744595,14.5405413 C10.6544909,13.5649687 12,11.5915112 12,9.31636202 C12,6.07252388 9.26504479,3.44227578 5.89152197,3.44227578 C4.52034181,3.44227578 3.25480793,3.87689217 2.23537065,4.61058921 L2.23537065,1.05770107 C2.23537065,0.476155373 1.74046224,0 1.11695169,0 C0.493934821,0 0.0167986821,0.476630104 0.0167986821,1.05770107 L0.0167986821,1.80184219 L0,9.32158406 C-0.0041824725,11.2003327 0.951817666,12.865215 2.41753644,13.8939574 C2.4777647,13.9362085 2.55848043,13.9312238 2.6127846,13.8823265 C2.66758244,13.8334292 2.6779496,13.7558106 2.63746831,13.6950451 C0.724974359,10.8146136 1.16014819,5.53963813 5.89176881,5.53963813 C8.05899866,5.53963813 9.80709909,7.22944376 9.81623206,9.31351363 C9.82240299,10.8599505 9.11620201,12.0365717 8.19549958,12.7781018 C6.36026565,14.2561773 3.64974731,12.6382934 4.49738595,10.4697214 C4.5894562,10.2335427 4.71879884,9.9959397 4.88664808,9.76189723 L5.12361171,9.47705853 C5.19766284,9.39967734 5.25048599,9.29903433 5.2146946,9.19411874 C5.01401603,8.62800181 3.46832203,8.97526767 3.04005964,10.0315445 C3.34292878,9.79631524 3.65986763,9.66433998 3.96940137,9.71489885 C2.38890334,11.275815 3.44141679,13.9563846 5.46005069,14.7513219 C6.40494316,15.1232738 7.55964718,15.0976383 8.68744595,14.5405413" id="Fill-2" fill="url(#linearGradient-3)" mask="url(#mask-2)"></path>
            </g>
        </g>
        <text id="Branch-Operation-Bas" fill-rule="nonzero" font-family="Helvetica" font-size="18" font-weight="normal" fill="#0055C2">
            <tspan x="10" y="23">Branch Operation Basic Life Cycle</tspan>
        </text>
        <g id="git" transform="translate(661.000000, 9.000000)">
            <path d="M46.8658496,11.2380575 C45.1623498,11.2380575 43.8939053,12.0891281 43.8939053,14.1376499 C43.8939053,15.6808485 44.7297841,16.7522856 46.7743573,16.7522856 C48.5071097,16.7522856 49.6846843,15.7131436 49.6846843,14.073693 C49.6846843,12.2157755 48.6309666,11.2380575 46.8658496,11.2380575 L46.8658496,11.2380575 Z M43.4607172,25.7011913 C43.0574041,26.2046147 42.6553359,26.7397 42.6553359,27.3710373 C42.6553359,28.6305458 44.2337339,29.0092215 46.4027864,29.0092215 C48.1984009,29.0092215 50.6450424,28.8813076 50.6450424,27.1823327 C50.6450424,26.1723196 49.4674678,26.1102624 47.9805621,26.0152768 L43.4607172,25.7011913 Z M52.6255087,11.3330431 C53.1825537,12.0580995 53.7719634,13.0662128 53.7719634,14.5156924 C53.7719634,18.0124273 51.0776081,20.0603158 47.1764255,20.0603158 C46.1843252,20.0603158 45.2862067,19.9349349 44.7291617,19.7772589 L43.7071863,21.4471049 L46.7413702,21.6351763 C52.0989611,21.9828234 55.257002,22.1404995 55.257002,26.3293624 C55.257002,29.9533779 52.1300809,32 46.7413702,32 C41.1360655,32 39,30.5505204 39,28.0625322 C39,26.6440812 39.6199071,25.8898959 40.7034998,24.848221 C39.680902,24.4087545 39.3410734,23.6216409 39.3410734,22.7705703 C39.3410734,22.0771758 39.6815244,21.4471049 40.2391918,20.8480627 C40.7968593,20.2502869 41.416144,19.6506115 42.1586633,18.9578502 C40.6412601,18.2017651 39.4960502,16.563581 39.4960502,14.231369 C39.4960502,10.6086199 41.8493321,8.12063165 46.5870158,8.12063165 C47.9189448,8.12063165 48.7249485,8.24537935 49.436348,8.43598369 L55.4754632,8.43598369 L55.4754632,11.1133099 L52.6255087,11.3330431 L52.6255087,11.3330431 Z M60.9233016,5.60858036 C59.1575621,5.60858036 58.1355867,4.56817192 58.1355867,2.77167847 C58.1355867,0.977717972 59.1575621,0 60.9233016,0 C62.7195385,0 63.7408917,0.977084735 63.7408917,2.77167847 C63.7415139,4.56817192 62.7195385,5.60858036 60.9233016,5.60858036 Z M56.9275147,24.5423675 L56.9275147,22.0543792 L58.50778,21.8340127 C58.9409681,21.770689 59.0025853,21.6763367 59.0025853,21.2026754 L59.0025853,11.9403174 C59.0025853,11.59457 58.9104706,11.372937 58.5998947,11.279218 L56.9275147,10.6801757 L57.2679657,8.12949697 L63.6792742,8.12949697 L63.6792742,21.2033087 C63.6792742,21.7086318 63.7091492,21.770689 64.174702,21.834646 L65.7543448,22.0550125 L65.7543448,24.5430008 L56.9275147,24.5430008 L56.9275147,24.5423675 Z M78,23.32022 C76.6674487,23.9806863 74.7174798,24.5803617 72.9511179,24.5803617 C69.2665294,24.5803617 67.8736056,23.0694582 67.8736056,19.5074999 L67.8736056,11.2532552 C67.8736056,11.0651838 67.8736056,10.9385364 67.6252693,10.9385364 L65.458084,10.9385364 L65.458084,8.13456287 C68.1841815,7.81857759 69.2671518,6.43242174 69.6076028,2.99837733 L72.5502944,2.99837733 L72.5502944,7.47346341 C72.5502944,7.69319666 72.5502944,7.78881545 72.7980083,7.78881545 L77.1641212,7.78881545 L77.1641212,10.9391697 L72.5502944,10.9391697 L72.5502944,18.4683579 C72.5502944,20.3269086 72.9841049,21.0513318 74.6558625,21.0513318 C75.5241059,21.0513318 76.4209796,20.8315985 77.1641212,20.5479083 L78,23.32022 L78,23.32022 Z" id="Shape" fill="#31251C" fill-rule="nonzero"></path>
            <path d="M32.3772539,15.0299695 L17.9690664,0.622277028 C17.140005,-0.207425676 15.7941261,-0.207425676 14.9644314,0.622277028 L11.9724635,3.61427365 L15.7668919,7.40937182 C16.6497884,7.11169223 17.6606226,7.31120089 18.3636464,8.01486479 C19.0704703,8.72232885 19.2687104,9.74203981 18.9634334,10.6274783 L22.6210571,14.2851371 C23.5052204,13.9804906 24.5268216,14.1774658 25.2336455,14.8849299 C26.221679,15.8723394 26.221679,17.4728423 25.2336455,18.4608852 C24.2449787,19.4489281 22.6451246,19.4489281 21.6570912,18.4608852 C20.914166,17.7173195 20.7304932,16.6260388 21.1067059,15.7108324 L17.6954571,12.2995509 L17.6948238,21.2768075 C17.9361319,21.3958793 18.1628729,21.5542195 18.3636464,21.7543616 C19.3516798,22.7417711 19.3516798,24.3416406 18.3636464,25.3309502 C17.375613,26.3183598 15.7744921,26.3183598 14.7877254,25.3309502 C13.799692,24.3416406 13.799692,22.7417711 14.7877254,21.7543616 C15.0322003,21.5105176 15.3140432,21.3262096 15.6155201,21.2027043 L15.6155201,12.1424774 C15.3140432,12.0196054 15.0322003,11.8359308 14.7877254,11.5908201 C14.0391001,10.842821 13.8592273,9.74520661 14.2430403,8.82620003 L10.5024471,5.08430417 L0.622746073,14.9634666 C-0.207582024,15.7938027 -0.207582024,17.1396945 0.622746073,17.9700305 L15.0309336,32.377723 C15.8606284,33.2074257 17.2058739,33.2074257 18.0368353,32.377723 L32.3772539,18.0359 C33.207582,17.2061973 33.207582,15.8596722 32.3772539,15.0299695 L32.3772539,15.0299695 Z" id="Path" fill="#F34F29" fill-rule="nonzero"></path>
            <polygon id="Path" points="1.12409637e-15 0 79 0 79 33 0 33"></polygon>
        </g>
        <g id="github-copy" transform="translate(748.000000, 3.000000)" fill="#000000" fill-rule="nonzero">
            <path d="M22.9998956,0 C11.7204239,0.000469179946 2.10590223,8.20619911 0.299077857,19.3745239 C-1.50774651,30.5428487 5.02642435,41.3773525 15.7268887,44.9558377 C16.8767785,45.1577383 17.3079872,44.4656891 17.3079872,43.8600567 C17.3079872,43.3121892 17.279217,41.4954764 17.279217,39.5634644 C11.5009978,40.6303861 10.0061411,38.1505528 9.54618516,36.8529173 C9.03580825,35.5908656 8.22674528,34.472458 7.1889111,33.5943411 C6.38398825,33.161796 5.23409847,32.0948512 7.16014086,32.066061 C8.65271236,32.2285228 9.97246422,33.1110528 10.6960749,34.4305721 C11.3313462,35.5753322 12.3946869,36.4194146 13.6513665,36.7764896 C14.9080461,37.1335647 16.2547288,36.9742705 17.3941369,36.3337708 C17.4936968,35.160991 18.0147545,34.0644705 18.8602924,33.2483742 C13.7432829,32.6716473 8.39629538,30.6818473 8.39629538,21.8580182 C8.36397821,19.5652878 9.20739391,17.3470389 10.7535694,15.6582042 C10.0504849,13.6655423 10.1327507,11.4787423 10.9835474,9.54489918 C10.9835474,9.54489918 12.9095438,8.93931288 17.3079412,11.9094794 C21.0710431,10.8713094 25.0437372,10.8713094 28.806839,11.9094794 C33.2051215,8.9104996 35.1312329,9.54489918 35.1312329,9.54489918 C35.982145,11.4787155 36.0644125,13.6655602 35.3612108,15.6582042 C36.9120423,17.3441484 37.7561944,19.564334 37.7184849,21.8580182 C37.7184849,30.7107067 32.3427041,32.6716473 27.2257406,33.2483742 C28.336287,34.3774629 28.9028084,35.9349635 28.7780918,37.5161532 C28.7780918,40.6016882 28.7493216,43.0815215 28.7493216,43.8601489 C28.7493216,44.4657352 29.1805302,45.1866208 30.33042,44.95593 C41.0111617,41.3485442 47.5153422,30.5121007 45.6961446,19.3555019 C43.876947,8.19890308 34.2698179,0.00588375885 22.9998956,0 Z" id="Path"></path>
        </g>
        <text id="$-git-branch-[branch" font-family="Helvetica" font-size="18" font-weight="normal" fill="#0055C2">
            <tspan x="62" y="192">$ git branch </tspan>
            <tspan x="62" y="214">[branch name]</tspan>
        </text>
        <text id="$-git-branch--d-[bra" font-family="Helvetica" font-size="18" font-weight="normal" fill="#0055C2">
            <tspan x="62" y="477">$ git branch -d </tspan>
            <tspan x="62" y="499">[branch name]</tspan>
        </text>
        <text id="$-git-checkpout-$-gi" font-family="Helvetica" font-size="18" font-weight="normal" fill="#0055C2">
            <tspan x="407" y="192">$ git checkpout</tspan>
            <tspan x="407" y="214">$ git switch</tspan>
        </text>
        <text id="$-git-branch" font-family="Helvetica" font-size="18" font-weight="normal" fill="#0055C2">
            <tspan x="256" y="337">$ git branch</tspan>
        </text>
        <text id="Merge-$-git-merge" font-family="Helvetica-Bold, Helvetica" font-size="18" font-weight="bold" fill="#0055C2">
            <tspan x="407" y="448">Merge</tspan>
            <tspan x="407" y="470" font-family="Helvetica" font-weight="normal">$ git merge</tspan>
        </text>
        <text id="Rebase-$-git-rebase" font-family="Helvetica-Bold, Helvetica" font-size="18" font-weight="bold" fill="#0055C2">
            <tspan x="407" y="500">Rebase</tspan>
            <tspan x="471.037109" y="500" font-family="Helvetica" font-weight="normal"></tspan>
            <tspan x="407" y="522" font-family="Helvetica" font-weight="normal">$ git rebase</tspan>
        </text>
        <text id="Check-Branch-Status" font-family="Helvetica-Bold, Helvetica" font-size="21" font-weight="bold" fill="#0055C2">
            <tspan x="220" y="313">Check Branch Status</tspan>
        </text>
        <path d="M212,82.5 C213.794925,82.5 215.419925,83.2275373 216.596194,84.4038059 C217.772463,85.5800746 218.5,87.2050746 218.5,89 L218.5,89 L218.5,139.5 L51.5,139.5 L51.5,89 C51.5,87.2050746 52.2275373,85.5800746 53.4038059,84.4038059 C54.5800746,83.2275373 56.2050746,82.5 58,82.5 L58,82.5 Z" id="Rectangle-Copy" stroke="#006AE1" stroke-width="3" fill="#006AE1"></path>
        <path d="M212,367.5 C213.794925,367.5 215.419925,368.227537 216.596194,369.403806 C217.772463,370.580075 218.5,372.205075 218.5,374 L218.5,374 L218.5,424.5 L51.5,424.5 L51.5,374 C51.5,372.205075 52.2275373,370.580075 53.4038059,369.403806 C54.5800746,368.227537 56.2050746,367.5 58,367.5 L58,367.5 Z" id="Rectangle-Copy-5" stroke="#006AE1" stroke-width="3" fill="#006AE1"></path>
        <path d="M557,82.5 C558.794925,82.5 560.419925,83.2275373 561.596194,84.4038059 C562.772463,85.5800746 563.5,87.2050746 563.5,89 L563.5,89 L563.5,139.5 L396.5,139.5 L396.5,89 C396.5,87.2050746 397.227537,85.5800746 398.403806,84.4038059 C399.580075,83.2275373 401.205075,82.5 403,82.5 L403,82.5 Z" id="Rectangle-Copy-3" stroke="#006AE1" stroke-width="3" fill="#006AE1"></path>
        <path d="M557,367.5 C558.794925,367.5 560.419925,368.227537 561.596194,369.403806 C562.772463,370.580075 563.5,372.205075 563.5,374 L563.5,374 L563.5,424.5 L396.5,424.5 L396.5,374 C396.5,372.205075 397.227537,370.580075 398.403806,369.403806 C399.580075,368.227537 401.205075,367.5 403,367.5 L403,367.5 Z" id="Rectangle-Copy-7" stroke="#006AE1" stroke-width="3" fill="#006AE1"></path>
        <text id="Create-new-Branch" font-family="Helvetica-Bold, Helvetica" font-size="21" font-weight="bold" fill="#FFFFFF">
            <tspan x="68" y="106">Create new </tspan>
            <tspan x="68" y="131">Branch</tspan>
        </text>
        <text id="Delete-unused-Branch" font-family="Helvetica-Bold, Helvetica" font-size="21" font-weight="bold" fill="#FFFFFF">
            <tspan x="57" y="391">Delete unused </tspan>
            <tspan x="57" y="416">Branch</tspan>
        </text>
        <text id="Switch-Branches" font-family="Helvetica-Bold, Helvetica" font-size="21" font-weight="bold" fill="#FFFFFF">
            <tspan x="413" y="106">Switch </tspan>
            <tspan x="413" y="131">Branches</tspan>
        </text>
        <text id="Integrate-Branches" font-family="Helvetica-Bold, Helvetica" font-size="21" font-weight="bold" fill="#FFFFFF">
            <tspan x="413" y="391">Integrate </tspan>
            <tspan x="413" y="416">Branches</tspan>
        </text>
        <polygon id="Triangle" fill="#7BB2FF" transform="translate(476.446295, 362.019641) rotate(-165.000000) translate(-476.446295, -362.019641) " points="476.446295 351.019641 492.553437 373.019641 460.339152 373.019641"></polygon>
        <polygon id="Triangle-Copy" fill="#7BB2FF" transform="translate(216.446295, 476.019641) rotate(-60.000000) translate(-216.446295, -476.019641) " points="216.446295 465.019641 232.553437 487.019641 200.339152 487.019641"></polygon>
        <polygon id="Triangle-Copy-3" fill="#7BB2FF" transform="translate(391.446295, 163.019641) rotate(-240.000000) translate(-391.446295, -163.019641) " points="391.446295 152.019641 407.553437 174.019641 375.339152 174.019641"></polygon>
        <polygon id="Triangle-Copy-2" fill="#7BB2FF" transform="translate(136.446295, 257.019641) rotate(-345.000000) translate(-136.446295, -257.019641) " points="136.446295 246.019641 152.553437 268.019641 120.339152 268.019641"></polygon>
        <g id="magnifying-glass" transform="translate(182.000000, 290.000000)" fill="#006AE1" fill-rule="nonzero">
            <path d="M12.5,25 C5.60795455,25 0,19.3920455 0,12.5 C0,5.60795455 5.60795455,0 12.5,0 C19.3920455,0 25,5.60795455 25,12.5 C25,19.3920455 19.3920455,25 12.5,25 Z M12.5,2.27272727 C6.86136364,2.27272727 2.27272727,6.86136364 2.27272727,12.5 C2.27272727,18.1386364 6.86136364,22.7272727 12.5,22.7272727 C18.1386364,22.7272727 22.7272727,18.1386364 22.7272727,12.5 C22.7272727,6.86136364 18.1386364,2.27272727 12.5,2.27272727 Z" id="Shape"></path>
            <path d="M6.125,14 C5.504,14 5,13.496 5,12.875 C5,8.5325 8.5325,5 12.875,5 C13.496,5 14,5.504 14,6.125 C14,6.746 13.496,7.25 12.875,7.25 C9.773375,7.25 7.25,9.773375 7.25,12.875 C7.25,13.496 6.746,14 6.125,14 Z" id="Path"></path>
            <path d="M23.7845063,25 C23.4734177,25 23.1623291,24.8809054 22.9253671,24.6439313 L19.3563544,21.074738 C18.8812152,20.5995747 18.8812152,19.8315358 19.3563544,19.3563725 C19.8314937,18.8812092 20.5994937,18.8812092 21.0746329,19.3563725 L24.6436456,22.9255659 C25.1187848,23.4007292 25.1187848,24.168768 24.6436456,24.6439313 C24.4066835,24.8809054 24.0955949,25 23.7845063,25 Z" id="Path"></path>
            <path d="M31.0695071,33 C30.4890768,33 29.9086465,32.7789377 29.4665218,32.336813 L22.3324437,25.2027349 C21.8891854,24.7594766 21.8891854,24.043008 22.3324437,23.5997497 L24.5997497,21.3324437 C25.043008,20.8891854 25.7594766,20.8891854 26.2027349,21.3324437 L33.336813,28.4665218 C34.2210623,29.3507711 34.2210623,30.7882431 33.336813,31.6724924 L32.6724924,32.336813 C32.2303677,32.7789377 31.6499374,33 31.0695071,33 Z M24.7369217,24.4012423 L31.0695071,30.7338277 L31.7349614,30.0683734 L25.4012423,23.7369217 L24.7369217,24.4012423 Z" id="Shape"></path>
        </g>
        <g id="Rectangle-Copy-48" transform="translate(662.293176, 455.000000) scale(-1, 1) rotate(270.000000) translate(-662.293176, -455.000000) ">
            <use fill="black" fill-opacity="1" filter="url(#filter-5)" xlink:href="#path-4"></use>
            <use fill="#FFFFFF" fill-rule="evenodd" xlink:href="#path-4"></use>
            <use fill="black" fill-opacity="1" filter="url(#filter-6)" xlink:href="#path-4"></use>
            <use stroke="#0055C2" stroke-width="0.5" xlink:href="#path-4"></use>
        </g>
        <text id="Manage-Conflict-$-gi" font-family="Helvetica-Bold, Helvetica" font-size="18" font-weight="bold" fill="#0055C2">
            <tspan x="599" y="448">Manage Conflict</tspan>
            <tspan x="738.007812" y="448" font-family="Helvetica" font-weight="normal"> </tspan>
            <tspan x="599" y="470" font-family="Helvetica" font-weight="normal">$ git stash</tspan>
        </text>
        <circle id="Oval" stroke="#006AE1" fill="#FFFFFF" cx="482" cy="298" r="7.5"></circle>
        <g id="Rectangle-Copy-49" transform="translate(628.500000, 291.000000) scale(-1, -1) rotate(270.000000) translate(-628.500000, -291.000000) ">
            <use fill="black" fill-opacity="1" filter="url(#filter-8)" xlink:href="#path-7"></use>
            <use fill="#FFFFFF" fill-rule="evenodd" xlink:href="#path-7"></use>
            <use fill="black" fill-opacity="1" filter="url(#filter-9)" xlink:href="#path-7"></use>
            <use stroke="#0055C2" stroke-width="0.5" xlink:href="#path-7"></use>
        </g>
        <circle id="Oval" stroke="#1576ED" stroke-width="2" fill="#7BB2FF" cx="619.5" cy="305.5" r="6.5"></circle>
        <circle id="Oval-Copy" stroke="#1576ED" stroke-width="2" fill="#7BB2FF" cx="649.5" cy="330.5" r="6.5"></circle>
        <circle id="Oval-Copy-2" stroke="#1576ED" stroke-width="2" fill="#FFFFFF" cx="701.5" cy="330.5" r="6.5"></circle>
        <circle id="Oval-Copy-4" stroke="#1576ED" stroke-width="2" fill="#FFFFFF" cx="716.5" cy="305.5" r="6.5"></circle>
        <circle id="Oval-Copy-3" stroke="#1576ED" stroke-width="2" fill="#7BB2FF" cx="664.5" cy="305.5" r="6.5"></circle>
        <line x1="620" y1="312.527778" x2="620" y2="330.472222" id="Line-6" stroke="#1576ED" stroke-width="2" stroke-linecap="square"></line>
        <line x1="619.521739" y1="330" x2="642.478261" y2="330" id="Line" stroke="#1576ED" stroke-width="2" stroke-linecap="round"></line>
        <line x1="656.521739" y1="330" x2="694" y2="330" id="Line-Copy-4" stroke="#1576ED" stroke-linecap="round" stroke-dasharray="3"></line>
        <line x1="671.521739" y1="305" x2="709" y2="305" id="Line-Copy-5" stroke="#1576ED" stroke-linecap="round" stroke-dasharray="3"></line>
        <line x1="627.525346" y1="306" x2="657" y2="306" id="Line-Copy" stroke="#1576ED" stroke-width="2" stroke-linecap="round"></line>
        <text id="Edit-and-Commit-on-B" font-family="Helvetica-Bold, Helvetica" font-size="18" font-weight="bold" fill="#0055C2">
            <tspan x="599" y="249">Edit and Commit </tspan>
            <tspan x="599" y="271">on Branches</tspan>
        </text>
        <g id="Path-2-Copy">
            <use fill="black" fill-opacity="1" filter="url(#filter-11)" xlink:href="#path-10"></use>
            <use fill="#7BB2FF" fill-rule="evenodd" xlink:href="#path-10"></use>
        </g>
        <g id="Path-2-Copy-2">
            <use fill="black" fill-opacity="1" filter="url(#filter-13)" xlink:href="#path-12"></use>
            <use fill="#7BB2FF" fill-rule="evenodd" xlink:href="#path-12"></use>
        </g>
        <g id="Group" transform="translate(36.000000, 73.000000)">
            <circle id="Oval" stroke="#FFFFFF" fill="#006AE1" cx="13.5" cy="13.5" r="12"></circle>
            <text id="1" font-family="Helvetica-Bold, Helvetica" font-size="21" font-weight="bold" fill="#FFFFFF">
                <tspan x="8.16040039" y="20">1</tspan>
            </text>
        </g>
        <g id="Group-Copy" transform="translate(216.000000, 271.000000)">
            <circle id="Oval" stroke="#FFFFFF" fill="#006AE1" cx="13.5" cy="13.5" r="12"></circle>
            <text id="2" font-family="Helvetica-Bold, Helvetica" font-size="21" font-weight="bold" fill="#FFFFFF">
                <tspan x="8.16040039" y="20">2</tspan>
            </text>
        </g>
        <g id="Group-Copy-2" transform="translate(382.000000, 73.000000)">
            <circle id="Oval" stroke="#FFFFFF" fill="#006AE1" cx="13.5" cy="13.5" r="12"></circle>
            <text id="3" font-family="Helvetica-Bold, Helvetica" font-size="21" font-weight="bold" fill="#FFFFFF">
                <tspan x="8.16040039" y="20">3</tspan>
            </text>
        </g>
        <g id="Group-Copy-3" transform="translate(573.000000, 205.000000)">
            <circle id="Oval" stroke="#FFFFFF" fill="#006AE1" cx="13.5" cy="13.5" r="12"></circle>
            <text id="4" font-family="Helvetica-Bold, Helvetica" font-size="21" font-weight="bold" fill="#FFFFFF">
                <tspan x="8.16040039" y="20">4</tspan>
            </text>
        </g>
        <g id="Group-Copy-4" transform="translate(382.000000, 352.000000)">
            <circle id="Oval" stroke="#FFFFFF" fill="#006AE1" cx="13.5" cy="13.5" r="12"></circle>
            <text id="5" font-family="Helvetica-Bold, Helvetica" font-size="21" font-weight="bold" fill="#FFFFFF">
                <tspan x="8.16040039" y="20">5</tspan>
            </text>
        </g>
        <g id="Group-Copy-5" transform="translate(573.000000, 403.000000)">
            <circle id="Oval" stroke="#FFFFFF" fill="#006AE1" cx="13.5" cy="13.5" r="12"></circle>
            <text id="6" font-family="Helvetica-Bold, Helvetica" font-size="21" font-weight="bold" fill="#FFFFFF">
                <tspan x="8.16040039" y="20">6</tspan>
            </text>
        </g>
        <g id="Group-Copy-6" transform="translate(36.000000, 353.000000)">
            <circle id="Oval" stroke="#FFFFFF" fill="#006AE1" cx="13.5" cy="13.5" r="12"></circle>
            <text id="7" font-family="Helvetica-Bold, Helvetica" font-size="21" font-weight="bold" fill="#FFFFFF">
                <tspan x="8.16040039" y="20">7</tspan>
            </text>
        </g>
    </g>
</svg>