<?xml version="1.0" encoding="UTF-8"?>
<svg width="800px" height="600px" viewBox="0 0 800 600" version="1.1" xmlns="http://www.w3.org/2000/svg" xmlns:xlink="http://www.w3.org/1999/xlink">
    <title>2041-10-14-22-10_Case3.CreateAReplicaOfARemoteRepositryAndBringItToLocal</title>
    <defs>
        <rect id="path-1" x="426" y="195" width="304" height="228"></rect>
        <filter x="-1.6%" y="-2.2%" width="104.6%" height="106.1%" filterUnits="objectBoundingBox" id="filter-2">
            <feOffset dx="2" dy="2" in="SourceAlpha" result="shadowOffsetOuter1"></feOffset>
            <feGaussianBlur stdDeviation="2" in="shadowOffsetOuter1" result="shadowBlurOuter1"></feGaussianBlur>
            <feColorMatrix values="0 0 0 0 0   0 0 0 0 0   0 0 0 0 0  0 0 0 0.5 0" type="matrix" in="shadowBlurOuter1"></feColorMatrix>
        </filter>
        <path d="M8.68744595,14.5405413 C10.6544909,13.5649687 12,11.5915112 12,9.31636202 C12,6.07252388 9.26504479,3.44227578 5.89152197,3.44227578 C4.52034181,3.44227578 3.25480793,3.87689217 2.23537065,4.61058921 L2.23537065,1.05770107 C2.23537065,0.476155373 1.74046224,0 1.11695169,0 C0.493934821,0 0.0167986821,0.476630104 0.0167986821,1.05770107 L0.0167986821,1.80184219 L0,9.32158406 C-0.0041824725,11.2003327 0.951817666,12.865215 2.41753644,13.8939574 C2.4777647,13.9362085 2.55848043,13.9312238 2.6127846,13.8823265 C2.66758244,13.8334292 2.6779496,13.7558106 2.63746831,13.6950451 C0.724974359,10.8146136 1.16014819,5.53963813 5.89176881,5.53963813 C8.05899866,5.53963813 9.80709909,7.22944376 9.81623206,9.31351363 C9.82240299,10.8599505 9.11620201,12.0365717 8.19549958,12.7781018 C6.36026565,14.2561773 3.64974731,12.6382934 4.49738595,10.4697214 C4.5894562,10.2335427 4.71879884,9.9959397 4.88664808,9.76189723 L5.12361171,9.47705853 C5.19766284,9.39967734 5.25048599,9.29903433 5.2146946,9.19411874 C5.01401603,8.62800181 3.46832203,8.97526767 3.04005964,10.0315445 C3.34292878,9.79631524 3.65986763,9.66433998 3.96940137,9.71489885 C2.38890334,11.275815 3.44141679,13.9563846 5.46005069,14.7513219 C6.40494316,15.1232738 7.55964718,15.0976383 8.68744595,14.5405413" id="path-3"></path>
        <linearGradient x1="28.568518%" y1="104.445731%" x2="78.3472072%" y2="20.6880271%" id="linearGradient-5">
            <stop stop-color="#000F98" offset="0%"></stop>
            <stop stop-color="#00A5FD" offset="100%"></stop>
        </linearGradient>
        <linearGradient x1="74.5%" y1="0%" x2="25.5%" y2="100%" id="linearGradient-6">
            <stop stop-color="#00C6FF" offset="0.0491695804%"></stop>
            <stop stop-color="#079DC2" offset="100%"></stop>
        </linearGradient>
        <linearGradient x1="74.5%" y1="0%" x2="25.5%" y2="100%" id="linearGradient-7">
            <stop stop-color="#EAEAEA" offset="0.0491695804%"></stop>
            <stop stop-color="#8E8E8E" offset="100%"></stop>
        </linearGradient>
        <linearGradient x1="74.5%" y1="0%" x2="25.5%" y2="100%" id="linearGradient-8">
            <stop stop-color="#00A5FF" offset="0.0491695804%"></stop>
            <stop stop-color="#0755C2" offset="100%"></stop>
        </linearGradient>
    </defs>
    <g id="2041-10-14-22-10_Case3.CreateAReplicaOfARemoteRepositryAndBringItToLocal" stroke="none" stroke-width="1" fill="none" fill-rule="evenodd">
        <rect fill="#FFFFFF" x="0" y="0" width="800" height="600"></rect>
        <g id="Rectangle">
            <use fill="black" fill-opacity="1" filter="url(#filter-2)" xlink:href="#path-1"></use>
            <use fill="#C5DDFF" fill-rule="evenodd" xlink:href="#path-1"></use>
        </g>
        <text id="Case-3.-Create-A-Rep" fill-rule="nonzero" font-family="Helvetica" font-size="18" font-weight="normal" fill="#0055C2">
            <tspan x="10" y="23">Case 3. Create A Replica Of A Remote Repositry And Bring It To Local</tspan>
        </text>
        <g id="bloovee-winner-logo" transform="translate(725.000000, 580.000000)">
            <path d="M13,13.7751507 C13,14.396312 13.4732558,14.8717809 14.0514961,14.8717809 C14.6474304,14.8717809 15.1204503,14.3968042 15.1204503,13.7751507 L15.1204503,2.09687626 C15.1204503,1.49368045 14.6474304,1 14.0514961,1 C13.4557977,1 13,1.49392656 13,2.09687626 L13,13.7751507 Z M21.7920364,15 C24.6483217,15 26.751078,12.7149437 26.751078,9.97312215 L26.751078,9.93645297 C26.751078,7.17641992 24.6657798,4.92778666 21.8269526,4.92778666 C18.9881254,4.92778666 16.885369,7.212843 16.885369,9.97312215 L16.885369,10.0095452 C16.885369,12.7516128 18.9706673,15 21.7920364,15 Z M21.8269526,13.0621935 C20.179994,13.0621935 19.0055834,11.6547366 19.0055834,9.97312215 L19.0055834,9.93645297 C19.0055834,8.25459244 20.0919958,6.86534709 21.7920364,6.86534709 C23.456689,6.86534709 24.6306277,8.27305008 24.6306277,9.97312215 L24.6306277,10.0095452 C24.6306277,11.6731942 23.5444513,13.0621935 21.8269526,13.0621935 Z M32.8092717,15 C35.665557,15 37.7683133,12.7149437 37.7683133,9.97312215 L37.7683133,9.93645297 C37.7683133,7.17641992 35.6830151,4.92778666 32.8441878,4.92778666 C30.0053606,4.92778666 27.9026043,7.212843 27.9026043,9.97312215 L27.9026043,10.0095452 C27.9026043,12.7516128 29.9879025,15 32.8092717,15 Z M32.8441878,13.0621935 C31.1969933,13.0621935 30.0228187,11.6547366 30.0228187,9.97312215 L30.0228187,9.93645297 C30.0228187,8.25459244 31.109231,6.86534709 32.8092717,6.86534709 C34.4739243,6.86534709 35.647863,8.27305008 35.647863,9.97312215 L35.647863,10.0095452 C35.647863,11.6731942 34.5614506,13.0621935 32.8441878,13.0621935 Z M44.1416963,13.9944275 L47.2261164,6.6096472 C47.2784906,6.49988574 47.3487948,6.28060893 47.3487948,6.07954366 C47.3487948,5.47610175 46.8929971,5.01933658 46.3147568,5.01933658 C45.7539746,5.01933658 45.4737015,5.40300947 45.3158709,5.78692847 L42.8976893,12.2215093 L40.5144239,5.82335156 C40.3393711,5.36634029 40.041404,5.01933658 39.4629278,5.01933658 C38.8846875,5.01933658 38.4116676,5.53098247 38.4116676,6.07954366 C38.4116676,6.28060893 38.4817358,6.46346265 38.534346,6.62785874 L41.6182943,13.9944275 C41.8638872,14.5796579 42.2491448,14.9633308 42.8273851,14.9633308 L42.9326055,14.9633308 C43.5108458,14.9633308 43.8965752,14.5612003 44.1416963,13.9944275 Z M50.0949054,9.27837643 C50.2876522,7.77961573 51.1987758,6.73762019 52.4956289,6.73762019 C53.8974665,6.73762019 54.7036056,7.8524619 54.8437422,9.27837643 L50.0949054,9.27837643 Z M56.070527,13.72027 C56.2281217,13.5558739 56.3508002,13.3181395 56.3508002,13.0439819 C56.3508002,12.5320899 55.9830006,12.1481709 55.5095089,12.1481709 C55.2641519,12.1481709 55.1242513,12.2215093 54.9664207,12.3492362 C54.3704864,12.8611282 53.6695676,13.1901665 52.7759021,13.1901665 C51.4089807,13.1901665 50.3402624,12.3128131 50.1123635,10.7409601 L55.9126964,10.7409601 C56.4560206,10.7409601 56.9115824,10.3021604 56.9115824,9.68050697 C56.9115824,7.45057746 55.4568987,4.92778666 52.513087,4.92778666 C49.8672425,4.92778666 47.9919132,7.19438536 47.9919132,9.95466451 L47.9919132,9.9913337 C47.9919132,12.9708897 50.0597533,15 52.7409859,15 C54.1779755,15 55.2292357,14.5063195 56.070527,13.72027 Z M60.1833231,9.27837643 C60.3763058,7.77961573 61.2871935,6.73762019 62.5842825,6.73762019 C63.9858841,6.73762019 64.7920233,7.8524619 64.9321598,9.27837643 L60.1833231,9.27837643 Z M66.1589447,13.72027 C66.3167752,13.5558739 66.4394537,13.3181395 66.4394537,13.0439819 C66.4394537,12.5320899 66.0714183,12.1481709 65.5981624,12.1481709 C65.3528055,12.1481709 65.2126689,12.2215093 65.0548383,12.3492362 C64.4591399,12.8611282 63.7582212,13.1901665 62.8643197,13.1901665 C61.4976342,13.1901665 60.4289159,12.3128131 60.2007812,10.7409601 L66.0011141,10.7409601 C66.5444382,10.7409601 67,10.3021604 67,9.68050697 C67,7.45057746 65.5455522,4.92778666 62.6015046,4.92778666 C59.9556601,4.92778666 58.0805667,7.19438536 58.0805667,9.95466451 L58.0805667,9.9913337 C58.0805667,12.9708897 60.1484069,15 62.8294035,15 C64.2663932,15 65.3178893,14.5063195 66.1589447,13.72027 L66.1589447,13.72027 Z" id="Fill-1" fill="#030060"></path>
            <g id="Group-4">
                <mask id="mask-4" fill="white">
                    <use xlink:href="#path-3"></use>
                </mask>
                <g id="Clip-3"></g>
                <path d="M8.68744595,14.5405413 C10.6544909,13.5649687 12,11.5915112 12,9.31636202 C12,6.07252388 9.26504479,3.44227578 5.89152197,3.44227578 C4.52034181,3.44227578 3.25480793,3.87689217 2.23537065,4.61058921 L2.23537065,1.05770107 C2.23537065,0.476155373 1.74046224,0 1.11695169,0 C0.493934821,0 0.0167986821,0.476630104 0.0167986821,1.05770107 L0.0167986821,1.80184219 L0,9.32158406 C-0.0041824725,11.2003327 0.951817666,12.865215 2.41753644,13.8939574 C2.4777647,13.9362085 2.55848043,13.9312238 2.6127846,13.8823265 C2.66758244,13.8334292 2.6779496,13.7558106 2.63746831,13.6950451 C0.724974359,10.8146136 1.16014819,5.53963813 5.89176881,5.53963813 C8.05899866,5.53963813 9.80709909,7.22944376 9.81623206,9.31351363 C9.82240299,10.8599505 9.11620201,12.0365717 8.19549958,12.7781018 C6.36026565,14.2561773 3.64974731,12.6382934 4.49738595,10.4697214 C4.5894562,10.2335427 4.71879884,9.9959397 4.88664808,9.76189723 L5.12361171,9.47705853 C5.19766284,9.39967734 5.25048599,9.29903433 5.2146946,9.19411874 C5.01401603,8.62800181 3.46832203,8.97526767 3.04005964,10.0315445 C3.34292878,9.79631524 3.65986763,9.66433998 3.96940137,9.71489885 C2.38890334,11.275815 3.44141679,13.9563846 5.46005069,14.7513219 C6.40494316,15.1232738 7.55964718,15.0976383 8.68744595,14.5405413" id="Fill-2" fill="url(#linearGradient-5)" mask="url(#mask-4)"></path>
            </g>
        </g>
        <g id="laptop" transform="translate(89.000000, 365.000000)" fill-rule="nonzero">
            <path d="M55.2068741,0 L7.58557871,0 C5.39275346,0 3.62264151,1.78913129 3.62264151,4.00551781 L3.62264151,30.0814387 C3.62264151,31.0294113 3.95288628,31.8839217 4.49448769,32.5782115 C5.20781639,33.4994806 6.3306486,34.0869565 7.58557871,34.0869565 L55.3257622,34.0869565 C56.5146434,34.0469013 57.5846364,33.4727771 58.2979651,32.5915632 C58.8395666,31.8972735 59.1698113,31.0294113 59.1698113,30.0814387 L59.1698113,4.00551781 C59.1698113,1.78913129 57.3864896,0 55.2068741,0 Z M7.58557871,31.4166113 C6.85904023,31.4166113 6.26459965,30.8157836 6.26459965,30.0814387 L6.26459965,4.00551781 C6.26459965,3.25782115 6.85904023,2.6703452 7.58557871,2.6703452 L55.2068741,2.6703452 C55.9334126,2.6703452 56.5278532,3.25782115 56.5278532,4.00551781 L56.5278532,30.0814387 C56.5278532,30.8157836 55.9334126,31.4166113 55.2068741,31.4166113 L7.58557871,31.4166113 Z" id="Shape" fill="#0055C2"></path>
            <path d="M56.754717,3.79183748 L56.754717,30.295119 C56.754717,31.0414992 56.1549104,31.6521739 55.4218134,31.6521739 L7.37063943,31.6521739 C6.63754246,31.6521739 6.03773585,31.0414992 6.03773585,30.295119 L6.03773585,3.79183748 C6.03773585,3.03188675 6.63754246,2.43478261 7.37063943,2.43478261 L55.4218134,2.43478261 C56.1549104,2.43478261 56.754717,3.03188675 56.754717,3.79183748 Z" id="Path" fill="#FFFFFF"></path>
            <path d="M63.9011327,50.6479603 L60.5276796,35.1455003 C60.3276725,34.2227349 59.8343216,33.4186107 59.1542975,32.8122219 C58.3542691,32.0871919 57.3008983,31.6521739 56.1541909,31.6521739 L7.83247525,31.6521739 C6.69910168,31.6521739 5.63239714,32.0871919 4.84570254,32.7990396 C4.15234459,33.4054283 3.65899374,34.2095525 3.45898663,35.1455003 L0.098867332,50.6479603 C-0.18114261,51.9530143 0.138868752,53.3107978 0.992232385,54.3522045 C1.84559602,55.3936113 3.11230766,56 4.47235595,56 L59.5276441,56 C60.8876923,56 62.154404,55.3936113 63.0077676,54.3522045 C63.8611312,53.3107978 64.1811426,51.9530143 63.9011327,50.6479603 Z M60.9276938,52.6912267 C60.5810148,53.1130623 60.0743301,53.3635272 59.5276441,53.3635272 L4.47235595,53.3635272 C3.92566987,53.3635272 3.40565141,53.1130623 3.05897243,52.6912267 C2.72562726,52.269391 2.5922892,51.7289141 2.69895965,51.2016195 L6.07241276,35.6991596 C6.24575225,34.8818531 6.99244543,34.2886467 7.83247525,34.2886467 L56.1541909,34.2886467 C57.0075546,34.2886467 57.7542478,34.8818531 57.9275872,35.6991596 L61.2877065,51.2016195 C61.4077108,51.7289141 61.2743727,52.269391 60.9276938,52.6912267 Z" id="Shape" fill="#0055C2"></path>
            <path d="M61.5413563,51.3575915 L58.1524928,35.5272986 C57.9690158,34.6858137 57.2243708,34.0861475 56.3639259,34.0869565 L7.62884119,34.0869565 C6.78162531,34.0869565 6.02854453,34.6927083 5.85372221,35.5272986 L2.45141083,51.3575915 C2.34382786,51.8960368 2.47830657,52.4479433 2.81450335,52.8786996 C3.164148,53.3094559 3.68861497,53.5652174 4.23997768,53.5652174 L59.7662373,53.5652174 C60.3176,53.5652174 60.8286191,53.3094559 61.1782637,52.8786996 C61.5279084,52.4479433 61.6623871,51.8960368 61.5413563,51.3575915 L61.5413563,51.3575915 Z M9.79915208,37.7391304 L54.2008479,37.7391304 C54.9547882,37.7391304 55.5471698,38.2869565 55.5471698,38.9565217 C55.5471698,39.626087 54.9547882,40.173913 54.2008479,40.173913 L9.79915208,40.173913 C9.05867504,40.173913 8.45283019,39.626087 8.45283019,38.9565217 C8.45283019,38.2869565 9.05867504,37.7391304 9.79915208,37.7391304 Z M34.8742951,48.6956522 L6.18230868,48.6956522 C5.43864268,48.6956522 4.83018868,48.16 4.83018868,47.4782609 C4.83018868,46.8086957 5.43864268,46.2608696 6.18230868,46.2608696 L34.8742951,46.2608696 C35.6179611,46.2608696 36.2264151,46.8086957 36.2264151,47.4782609 C36.2264151,48.16 35.6179611,48.6956522 34.8742951,48.6956522 L34.8742951,48.6956522 Z M55.3801011,48.6956522 L42.4312196,48.6956522 C41.6751809,48.6956522 41.0566038,48.16 41.0566038,47.4782609 C41.0566038,46.8086957 41.6751809,46.2608696 42.4312196,46.2608696 L55.3801011,46.2608696 C56.1361398,46.2608696 56.754717,46.8086957 56.754717,47.4782609 C56.754717,48.16 56.1361398,48.6956522 55.3801011,48.6956522 Z" id="Shape" fill="#D0E8F9"></path>
            <path d="M55.5471698,38.9565217 C55.5471698,39.626087 54.9547882,40.173913 54.2008479,40.173913 L9.79915208,40.173913 C9.05867504,40.173913 8.45283019,39.626087 8.45283019,38.9565217 C8.45283019,38.2869565 9.05867504,37.7391304 9.79915208,37.7391304 L54.2008479,37.7391304 C54.9547882,37.7391304 55.5471698,38.2869565 55.5471698,38.9565217 Z M36.2264151,47.4782609 C36.2264151,48.16 35.6179611,48.6956522 34.8742951,48.6956522 L6.18230868,48.6956522 C5.43864268,48.6956522 4.83018868,48.16 4.83018868,47.4782609 C4.83018868,46.8086957 5.43864268,46.2608696 6.18230868,46.2608696 L34.8742951,46.2608696 C35.6179611,46.2608696 36.2264151,46.8086957 36.2264151,47.4782609 Z M56.754717,47.4782609 C56.754717,48.16 56.1361398,48.6956522 55.3801011,48.6956522 L42.4312196,48.6956522 C41.6751809,48.6956522 41.0566038,48.16 41.0566038,47.4782609 C41.0566038,46.8086957 41.6751809,46.2608696 42.4312196,46.2608696 L55.3801011,46.2608696 C56.1361398,46.2608696 56.754717,46.8086957 56.754717,47.4782609 Z" id="Shape" fill="#0055C2"></path>
            <path d="M15.6981132,31.6521739 L24.9980231,31.6521739 L37.4339623,2.43478261 L28.1340523,2.43478261 L15.6981132,31.6521739 Z M30.9066268,31.6521739 L43.4716981,2.43478261 L40.3384671,2.43478261 L27.7735849,31.6521739 L30.9066268,31.6521739 Z" id="Shape" fill="#C5DDFF"></path>
        </g>
        <text id="Local-Computer" fill-rule="nonzero" font-family="Helvetica" font-size="18" font-weight="normal" fill="#0055C2">
            <tspan x="99.984375" y="444">Local </tspan>
            <tspan x="81.984375" y="466">Computer</tspan>
        </text>
        <text id="GitHub" fill-rule="nonzero" font-family="Helvetica" font-size="18" font-weight="normal" fill="#0055C2">
            <tspan x="93.4892578" y="248">GitHub</tspan>
        </text>
        <g id="Group-2" transform="translate(85.000000, 152.000000)" fill-rule="nonzero">
            <g id="Group-2-Copy" transform="translate(0.000000, 30.172414)">
                <path d="M56.4,26.3755745 C56.4,32.794497 51.5108487,38.0172414 45.4995259,38.0172414 L12.5593436,38.0172414 C9.67893102,38.0325219 6.91033983,36.8058165 4.86042249,34.6057187 C2.80878485,32.449436 1.65289441,29.4780203 1.65882353,26.3755745 C1.65882353,21.4964855 4.48925939,17.1719725 8.74895284,15.4775657 C10.8374816,6.50923493 18.1891699,0.170797899 26.6968009,0.00339160819 C35.204432,-0.164014683 42.7622579,5.88104497 45.1478977,14.7613367 C45.3649521,14.7459973 45.4897584,14.7459973 45.4995259,14.7459973 C45.6623167,14.7459973 45.8251075,14.7459973 45.9857278,14.7577968 C48.6924063,14.8724879 51.2627063,16.0793973 53.1951911,18.1430705 C55.2439427,20.302773 56.4,23.2729977 56.4,26.3755745 Z" id="Path" fill="#C5DDFF"></path>
                <path d="M8.29411765,14.4827586 C8.20637131,14.8590663 8.12280338,15.2353739 8.04759224,15.621852 C7.571255,15.835432 7.10327456,16.0540972 6.63529412,16.2931034 C7.17012891,15.6659241 7.72307008,15.0624758 8.29411765,14.4827586 Z" id="Path" fill="#607D8B"></path>
                <path d="M34.8352941,18.0604866 C35.6220765,17.2379467 36.5648659,16.5339084 37.6244263,15.977672 C38.6995229,15.4137838 39.8733869,15.0004426 41.1014841,14.7533296 C43.5992282,14.2628672 46.2133628,14.4422003 48.5873547,15.2668702 C50.9607323,16.0794229 52.9976341,17.4760605 54.4392405,19.2793188 C55.1467927,20.1711814 55.6811163,21.1547067 56.0215987,22.1919532 C56.3534437,23.2173124 56.468393,24.2849963 56.3610442,25.3448276 C56.1579393,23.2840819 55.2615171,21.3173927 53.7797095,19.6815555 C52.3269353,18.0785622 50.4001188,16.8350683 48.1975732,16.0790576 C46.0001361,15.3184999 43.598862,15.0926815 41.2602362,15.4266628 C38.8763395,15.7851995 36.6537302,16.6963301 34.8352941,18.0604866 L34.8352941,18.0604866 Z" id="Path" fill="#7BB2FF"></path>
                <path d="M6.63529412,18.1157604 C6.74950573,18.0533769 6.8647192,17.9934398 6.98193639,17.934726 C6.86572106,17.9922166 6.74950573,18.0533769 6.63529412,18.1157604 Z M7.91165901,15.6660948 C7.98780009,15.4380917 8.0686165,15.2100886 8.15410823,14.9820855 C8.0686165,15.2062885 7.98780009,15.4342917 7.91165901,15.6660948 Z M13.2705882,7.24137931 C13.118974,7.38122123 12.9693634,7.52372318 12.8217566,7.66888517 C12.9680276,7.52638322 13.1213117,7.38160123 13.2705882,7.24137931 Z" id="Shape" fill="#55717C"></path>
                <path d="M51.4235294,36.4952284 C49.3818729,38.6417656 46.6827382,39.8340229 43.8796192,39.8275862 L10.9101791,39.8275862 C8.89998387,39.8353378 6.92664134,39.2246768 5.20635301,38.0624335 C5.11583333,38.0009269 5.02676197,37.9386109 4.93913892,37.8754857 C4.85115379,37.8123605 4.76316866,37.7468074 4.67626977,37.6800403 C4.58937087,37.6132732 4.5089894,37.5489341 4.42752168,37.482167 L4.41883179,37.4748833 C4.33301914,37.4056884 4.24937895,37.3340655 4.16573877,37.2612287 C4.08209858,37.1883919 4.00823452,37.1216248 3.93002552,37.050002 L3.89417973,37.0172254 C3.83878168,36.9650257 3.78555611,36.91404 3.73015807,36.8594124 L3.63456928,36.7671524 C3.5900336,36.7234504 3.54767039,36.6809622 3.50422094,36.6348322 C3.40320098,36.5328607 3.30326725,36.4260334 3.20441976,36.3179922 C1.15095983,34.0995809 -0.00595727486,31.0425503 0,27.8507143 C0,27.7572404 0,27.6637665 0,27.5715066 C0,27.5095953 0,27.4501119 0,27.3821309 C0,27.2255318 0.0130579045,27.0725745 0.0250065024,26.9171893 C0.0250065024,26.8407107 0.035868864,26.7630181 0.0434725172,26.6865395 C0.0510761703,26.6100608 0.0543348788,26.5651448 0.061938532,26.4959499 C0.0695421852,26.4267549 0.0771458383,26.3478484 0.0869219638,26.2737976 C0.112991632,26.05205 0.145216638,25.831921 0.183596983,25.6134107 C0.192286872,25.559997 0.202062997,25.5090112 0.211839123,25.4555976 C0.230305138,25.3572679 0.249857389,25.2601522 0.268323404,25.1630364 C0.28353071,25.0962694 0.29765178,25.0295023 0.312859086,24.9639492 C0.328066393,24.8983961 0.345446171,24.8219174 0.36282595,24.7515085 C0.374774548,24.7005228 0.386723146,24.6519649 0.39975798,24.603407 C0.412792814,24.5548492 0.423655175,24.5111471 0.436690009,24.4638032 C0.449724843,24.4164593 0.46493215,24.3594038 0.480139456,24.3059901 C0.495346762,24.2525765 0.50729536,24.2100883 0.522502666,24.1627444 C0.588400994,23.9385689 0.660816738,23.717226 0.7397499,23.4987156 C0.763647095,23.4307346 0.788630527,23.3627536 0.813613959,23.2959865 C0.838597391,23.2292194 0.863580823,23.1612384 0.890736727,23.0944714 C0.917892631,23.0277043 0.942876063,22.9609372 0.971118203,22.8953841 C0.999360343,22.829831 1.02543001,22.7630639 1.05475839,22.6987248 C1.08408676,22.6343856 1.11124267,22.5676185 1.14165728,22.5032793 C1.17207189,22.4389402 1.20031403,22.3733871 1.23181488,22.3102618 C1.26331573,22.2471366 1.29264411,22.1815835 1.32523119,22.1184583 C1.38823289,21.9970636 1.45340706,21.8647434 1.5207537,21.7397069 C1.58810035,21.6146704 1.65110204,21.5054152 1.71736245,21.3900903 C1.93562193,21.0181148 2.17205563,20.6598621 2.42558843,20.3169614 C2.46143422,20.2671896 2.49728002,20.2198457 2.53421205,20.1712878 C2.6710778,19.9972888 2.81192643,19.8277409 2.95675791,19.6626442 C2.99260371,19.6201561 3.02736327,19.5800958 3.06538153,19.5412495 C3.19428156,19.3939573 3.32716445,19.2507116 3.4640302,19.1115124 L3.56722264,19.007113 C3.73160638,18.8452535 3.90069714,18.6862264 4.07449493,18.530032 L4.18311855,18.4365581 C4.27436238,18.3588655 4.36777869,18.2811729 4.461195,18.2059082 C4.50464445,18.1707038 4.5480939,18.1367133 4.59154334,18.1039367 C4.68821836,18.0274581 4.78706585,17.9534073 4.88591335,17.8805705 C4.93588021,17.8429382 4.98801955,17.8077337 5.04015888,17.7713153 L5.1759384,17.6778414 L5.28456202,17.6074325 C5.33996006,17.5698002 5.39318564,17.5333818 5.45292862,17.4981773 L5.47248088,17.4860379 C5.52570645,17.4508334 5.58110449,17.4180568 5.6354163,17.3852803 C5.68972811,17.3525037 5.75381604,17.3136574 5.81355903,17.2796669 L5.99387424,17.1764815 L6.17636191,17.0781518 L6.3621083,16.98225 C6.48593922,16.9203387 6.61085638,16.8608553 6.73794601,16.8025859 C6.86503564,16.7443165 6.98234915,16.6933307 7.10509383,16.6423449 C7.12573232,16.5512989 7.14745704,16.4614669 7.16918177,16.3704209 C7.20176885,16.2368868 7.23435594,16.1021387 7.26911549,15.9710324 C7.30387505,15.8399262 7.33863461,15.7051781 7.37773911,15.5728579 C7.41684361,15.4405378 7.45160317,15.3094315 7.48636273,15.1783253 C7.52112228,15.047219 7.56457173,14.9185407 7.60584871,14.7910763 C7.60631971,14.7886769 7.60631971,14.786192 7.60584871,14.7837926 C7.64603944,14.662398 7.68514395,14.5410033 7.72750716,14.4196086 C7.72750716,14.411111 7.72750716,14.4013994 7.73619705,14.3916879 C7.82019931,14.1488985 7.90782236,13.9061092 7.9990662,13.6633199 L8.02187716,13.6038365 C8.0620679,13.4994371 8.10225863,13.3950377 8.14462184,13.2918522 L8.17395022,13.2190154 C8.21305472,13.1231136 8.25215922,13.0272118 8.29234996,12.93131 L8.33145446,12.840264 C8.37599015,12.7370786 8.41943959,12.6351071 8.46506151,12.5331355 L8.48787247,12.4809358 C8.53892557,12.3668249 8.59106491,12.2527139 8.64320424,12.1398168 C8.69534358,12.0269198 8.75182786,11.9128088 8.8039672,11.7999118 L8.84850288,11.7100797 C8.88760738,11.6323871 8.92453941,11.5546946 8.96581639,11.4782159 C8.99297229,11.4223744 9.02012819,11.3665328 9.05054281,11.3119052 C9.08095742,11.2572776 9.12332063,11.1698735 9.15916642,11.0994646 C9.17545997,11.0691159 9.19175351,11.0387672 9.20804705,11.0084186 C9.25910015,10.9100889 9.31667067,10.8129732 9.36772377,10.7158574 C9.41877687,10.6187417 9.47634738,10.521626 9.53283166,10.4245102 C9.57628111,10.3504595 9.61864432,10.2751948 9.66318,10.202358 L9.73595783,10.0809633 C9.77506233,10.0166242 9.81416683,9.95228498 9.85435757,9.88915975 C9.89454831,9.82603453 9.93148034,9.76776509 9.97167108,9.70221197 C10.0118618,9.63665885 10.0248966,9.6172357 10.0531388,9.57353363 C10.0976745,9.50312472 10.1432964,9.43028792 10.1910908,9.36109296 L10.2486613,9.2736888 C10.3018869,9.19235438 10.3572849,9.11101995 10.4115967,9.03089947 C10.5180479,8.8763236 10.6266715,8.72255703 10.7374676,8.56959975 C10.7863482,8.50161874 10.8363151,8.43363773 10.8862819,8.36565671 C10.9978022,8.21593663 11.111857,8.06702584 11.2284463,7.91892435 C11.2762407,7.85701307 11.3251213,7.79752968 11.3750882,7.73440446 L11.4196239,7.67977686 C11.489143,7.59358665 11.5597484,7.50739643 11.6303537,7.42242017 L11.6542509,7.3944994 C11.7324599,7.3010255 11.8117551,7.20876556 11.8932229,7.11650561 C12.2658019,6.6891964 12.6535882,6.27766848 13.062013,5.88556372 C13.2220518,5.73098784 13.384263,5.57924451 13.5486468,5.43033372 C13.650753,5.33807378 13.7539454,5.24824173 13.8571378,5.15840968 C13.8694793,5.14611696 13.8825434,5.1347614 13.8962423,5.12441917 C14.004866,5.03094528 14.1134896,4.93989928 14.2221132,4.85006723 C14.3307368,4.76023518 14.4469641,4.66797523 14.5610189,4.57814318 L14.5675363,4.57814318 C14.6837636,4.48709718 14.8010771,4.39847908 14.9173043,4.30986097 C15.0335316,4.22124287 15.1541038,4.1362666 15.2725036,4.05129034 C15.5107514,3.8821471 15.75262,3.72028755 15.9981093,3.56571168 C16.120854,3.48801909 16.2435987,3.41032651 16.3674296,3.33506181 C16.4912605,3.25979712 16.6150915,3.18574638 16.7410949,3.11412352 C16.806269,3.07527723 16.8736157,3.03885883 16.9398761,3.00244043 C17.7556798,2.53764688 18.6004305,2.13924717 19.4675476,1.81034483 C19.1329869,2.07862704 10.4843745,6.57265752 10.8341426,15.9613209 C7.58911461,17.275121 4.95467467,19.9948072 3.52594567,23.5059993 C2.96562987,27.3191834 4.11009344,31.1975019 6.59021789,33.8900989 C8.64135536,36.1531054 11.4115622,37.4151273 14.2938048,37.3996186 L47.2643311,37.3996186 C48.6900441,37.4018897 50.1025864,37.0947417 51.4235294,36.4952284 Z" id="Path" fill="#7BB2FF"></path>
            </g>
            <g id="github-copy-9" transform="translate(38.400000, 0.000000)" fill="#000000">
                <path d="M19.7999102,0 C10.0897562,0.000415251216 1.81290713,7.26295783 0.257467025,17.1475671 C-1.29797308,27.0321764 4.32709574,36.621335 13.5387999,39.7885001 C14.528705,39.9671937 14.8999194,39.3546903 14.8999194,38.8186708 C14.8999194,38.3337766 14.875152,36.7258814 14.875152,35.0159398 C9.90085897,35.9602268 8.61398232,33.7654317 8.21802027,32.6169498 C7.77865232,31.4999615 7.08215464,30.5101065 6.18871478,29.7329226 C5.49578119,29.3500953 4.50587607,28.4057879 6.16394735,28.3803069 C7.44885673,28.5240949 8.58499094,29.3051846 9.20792539,30.473035 C9.75481111,31.4862135 10.6702087,32.2332749 11.7520459,32.5493069 C12.8338832,32.8653389 13.9932013,32.7243543 14.9740831,32.1574753 C15.0597912,31.1194978 15.5083539,30.1490141 16.2362517,29.426722 C11.831174,28.9162856 7.22811515,27.1551982 7.22811515,19.3456023 C7.20029429,17.3164041 7.92636519,15.3531264 9.25742064,13.8584106 C8.65215661,12.0947903 8.72297671,10.1593466 9.45540167,8.44778433 C9.45540167,8.44778433 11.1134333,7.91180565 14.8998798,10.5405737 C18.1394197,9.62173364 21.5593911,9.62173364 24.798931,10.5405737 C28.5852785,7.88630425 30.2434092,8.44778433 30.2434092,8.44778433 C30.9759335,10.159323 31.0467551,12.0948062 30.4413902,13.8584106 C31.7764538,15.3505681 32.5031587,17.31556 32.4706957,19.3456023 C32.4706957,27.1807404 27.8428496,28.9162856 23.4378115,29.426722 C24.3938471,30.4260304 24.8815481,31.8045079 24.7741834,33.2039517 C24.7741834,35.9348274 24.7494159,38.1296225 24.7494159,38.8187525 C24.7494159,39.3547312 25.1206304,39.9927563 26.1105355,39.7885817 C35.3052609,36.5958379 40.904512,27.0049626 39.3384201,17.1307315 C37.7723283,7.25650042 29.5018432,0.00520746473 19.7999102,0 Z" id="Path"></path>
            </g>
        </g>
        <text id="Create-a-replica-of" font-family="Helvetica-Bold, Helvetica" font-size="21" font-weight="bold" fill="#0055C2">
            <tspan x="477" y="243">Create a replica of a </tspan>
            <tspan x="477" y="268">Remote Repository</tspan>
            <tspan x="477" y="293" font-family="Helvetica" font-weight="normal"></tspan>
            <tspan x="477" y="318">Create a copy of the </tspan>
            <tspan x="477" y="343">Forked Remote </tspan>
            <tspan x="477" y="368">Repository</tspan>
            <tspan x="586.686035" y="368" font-family="Helvetica" font-weight="normal"> in the Local </tspan>
            <tspan x="477" y="393" font-family="Helvetica" font-weight="normal">Repository</tspan>
        </text>
        <g id="Group-2-Copy-4" transform="translate(440.000000, 233.000000)">
            <circle id="Oval" fill="#006AFF" cx="14" cy="15" r="14"></circle>
            <text id="1" font-family="Helvetica-Bold, Helvetica" font-size="24" font-weight="bold" fill="#FFFFFF">
                <tspan x="7.82617188" y="23">1</tspan>
            </text>
        </g>
        <g id="Group-2-Copy-5" transform="translate(440.000000, 307.000000)">
            <circle id="Oval" fill="#006AFF" cx="14" cy="15" r="14"></circle>
            <text id="2" font-family="Helvetica-Bold, Helvetica" font-size="24" font-weight="bold" fill="#FFFFFF">
                <tspan x="7.82617188" y="23">2</tspan>
            </text>
        </g>
        <text id="$-git-clone-copy-3" fill-rule="nonzero" font-family="Helvetica-Bold, Helvetica" font-size="18" font-weight="bold" fill="#0055C2">
            <tspan x="269" y="343">$ git clone</tspan>
        </text>
        <text id="Fork-Copy" fill-rule="nonzero" font-family="Helvetica-Bold, Helvetica" font-size="18" font-weight="bold" fill="#0055C2">
            <tspan x="292" y="227">Fork</tspan>
        </text>
        <rect id="Rectangle-Copy-22" fill="#A1E0E9" x="201" y="248" width="158" height="65" rx="32.5"></rect>
        <rect id="Rectangle-Copy-23" fill="#C8C8C8" x="201" y="133" width="158" height="65" rx="32.5"></rect>
        <rect id="Rectangle-Copy-24" fill="#C5DDFF" x="201" y="385" width="158" height="65" rx="32.5"></rect>
        <g id="Group-Copy-10" transform="translate(226.000000, 225.000000)" fill-rule="nonzero">
            <path d="M27.8509133,4.77831559 C26.8036498,1.63407551 20.3694356,0 14.0069517,0 C7.6444678,0 1.28198391,1.61858664 0.177336204,4.73184898 C0.0649110129,4.91566728 0.00504259234,5.13112554 0.00518331429,5.35140368 L0.00518331429,33.9515973 C-0.00172777143,34.0133281 -0.00172777143,34.0757329 0.00518331429,34.1374637 C0.00171062555,34.1916099 0.00171062555,34.2459506 0.00518331429,34.3000968 C0.00518331429,38.0406583 7.04910573,40 14.0069517,40 C20.9647977,40 27.994374,38.0406583 27.994374,34.3000968 C27.9978438,34.2485352 27.9978438,34.1967697 27.994374,34.1452081 C28.0018753,34.0809253 28.0018753,34.0158802 27.994374,33.9515973 L27.994374,5.35140368 C27.9980362,5.1495277 27.9482676,4.95071496 27.8509133,4.77831559 Z" id="Path" fill="url(#linearGradient-6)"></path>
            <path d="M13.9986902,0 C23.0654422,0 27.9932092,2.79592261 27.9932092,4.23271618 C28.0022636,4.27742777 28.0022636,4.32391749 27.9932092,4.36862908 C27.6963557,5.84425491 22.7601072,8.48484848 13.9986902,8.48484848 C5.23727319,8.48484848 0.301024684,5.81513071 0.00417125195,4.36862908 C-0.00139041732,4.33331746 -0.00139041732,4.29715199 0.00417125195,4.26184037 C0.00417125195,2.79592261 4.93193823,0 13.9986902,0 Z" id="Path" fill="#199ABD"></path>
        </g>
        <g id="Group-Copy-11" transform="translate(226.000000, 107.000000)" fill-rule="nonzero">
            <path d="M27.8509133,4.77831559 C26.8036498,1.63407551 20.3694356,0 14.0069517,0 C7.6444678,0 1.28198391,1.61858664 0.177336204,4.73184898 C0.0649110129,4.91566728 0.00504259234,5.13112554 0.00518331429,5.35140368 L0.00518331429,33.9515973 C-0.00172777143,34.0133281 -0.00172777143,34.0757329 0.00518331429,34.1374637 C0.00171062555,34.1916099 0.00171062555,34.2459506 0.00518331429,34.3000968 C0.00518331429,38.0406583 7.04910573,40 14.0069517,40 C20.9647977,40 27.994374,38.0406583 27.994374,34.3000968 C27.9978438,34.2485352 27.9978438,34.1967697 27.994374,34.1452081 C28.0018753,34.0809253 28.0018753,34.0158802 27.994374,33.9515973 L27.994374,5.35140368 C27.9980362,5.1495277 27.9482676,4.95071496 27.8509133,4.77831559 Z" id="Path" fill="url(#linearGradient-7)"></path>
            <path d="M13.9986902,0 C23.0654422,0 27.9932092,2.79592261 27.9932092,4.23271618 C28.0022636,4.27742777 28.0022636,4.32391749 27.9932092,4.36862908 C27.6963557,5.84425491 22.7601072,8.48484848 13.9986902,8.48484848 C5.23727319,8.48484848 0.301024684,5.81513071 0.00417125195,4.36862908 C-0.00139041732,4.33331746 -0.00139041732,4.29715199 0.00417125195,4.26184037 C0.00417125195,2.79592261 4.93193823,0 13.9986902,0 Z" id="Path" fill="#999999"></path>
        </g>
        <g id="Group-Copy-2" transform="translate(226.000000, 365.000000)" fill-rule="nonzero">
            <path d="M27.8509133,4.77831559 C26.8036498,1.63407551 20.3694356,0 14.0069517,0 C7.6444678,0 1.28198391,1.61858664 0.177336204,4.73184898 C0.0649110129,4.91566728 0.00504259234,5.13112554 0.00518331429,5.35140368 L0.00518331429,33.9515973 C-0.00172777143,34.0133281 -0.00172777143,34.0757329 0.00518331429,34.1374637 C0.00171062555,34.1916099 0.00171062555,34.2459506 0.00518331429,34.3000968 C0.00518331429,38.0406583 7.04910573,40 14.0069517,40 C20.9647977,40 27.994374,38.0406583 27.994374,34.3000968 C27.9978438,34.2485352 27.9978438,34.1967697 27.994374,34.1452081 C28.0018753,34.0809253 28.0018753,34.0158802 27.994374,33.9515973 L27.994374,5.35140368 C27.9980362,5.1495277 27.9482676,4.95071496 27.8509133,4.77831559 Z" id="Path" fill="url(#linearGradient-8)"></path>
            <path d="M13.9986902,0 C23.0654422,0 27.9932092,2.79592261 27.9932092,4.23271618 C28.0022636,4.27742777 28.0022636,4.32391749 27.9932092,4.36862908 C27.6963557,5.84425491 22.7601072,8.48484848 13.9986902,8.48484848 C5.23727319,8.48484848 0.301024684,5.81513071 0.00417125195,4.36862908 C-0.00139041732,4.33331746 -0.00139041732,4.29715199 0.00417125195,4.26184037 C0.00417125195,2.79592261 4.93193823,0 13.9986902,0 Z" id="Path" fill="#0055C2"></path>
        </g>
        <text id="C’s-Local-Repository" font-family="Helvetica" font-size="16" font-weight="normal" fill="#0055C2">
            <tspan x="247.738281" y="417">C’s Local </tspan>
            <tspan x="242.261719" y="436">Repository</tspan>
        </text>
        <text id="C’s-Remote-Repositor" font-family="Helvetica" font-size="16" font-weight="normal" fill="#199ABD">
            <tspan x="238.851562" y="279">C’s Remote </tspan>
            <tspan x="242.261719" y="298">Repository</tspan>
        </text>
        <text id="A’s-Remote-Repositor" font-family="Helvetica" font-size="16" font-weight="normal" fill="#363636">
            <tspan x="238.097656" y="167"> A’s Remote </tspan>
            <tspan x="242.261719" y="186">Repository</tspan>
        </text>
        <path id="Line-21-Copy-4" d="M264.5,197.941919 L269,206.941919 L265,206.941 L265,247.931818 L264,247.931818 L264,206.941 L260,206.941919 L264.5,197.941919 Z" transform="translate(264.500000, 223.000000) scale(1, -1) translate(-264.500000, -223.000000) " fill="#0055C2" fill-rule="nonzero"></path>
        <path id="Line-21-Copy-5" d="M240.5,311 L245,320 L241,320 L241,364.931818 L240,364.931818 L240,320 L236,320 L240.5,311 Z" transform="translate(240.500000, 338.000000) scale(1, -1) translate(-240.500000, -338.000000) " fill="#0055C2" fill-rule="nonzero"></path>
        <g id="Group-2-Copy-13" transform="translate(243.000000, 324.000000)">
            <ellipse id="Oval" fill="#006AFF" cx="11" cy="14.0625" rx="11" ry="10.6875"></ellipse>
            <text id="2" font-family="Helvetica-Bold, Helvetica" font-size="18" font-weight="bold" fill="#FFFFFF">
                <tspan x="5.99462891" y="18">2</tspan>
            </text>
        </g>
        <g id="Group-2-Copy-14" transform="translate(269.000000, 208.000000)">
            <ellipse id="Oval" fill="#006AFF" cx="11" cy="13.0625" rx="11" ry="10.6875"></ellipse>
            <text id="1" font-family="Helvetica-Bold, Helvetica" font-size="18" font-weight="bold" fill="#FFFFFF">
                <tspan x="5.99462891" y="18">1</tspan>
            </text>
        </g>
        <text id="Developer-C-Copy" fill-rule="nonzero" font-family="Helvetica-Bold, Helvetica" font-size="18" font-weight="bold" fill="#0055C2">
            <tspan x="226" y="539">Developer C</tspan>
        </text>
        <g id="programmer-copy" transform="translate(261.000000, 466.000000)" fill-rule="nonzero">
            <path d="M26,27.2353866 C21.331048,30.9257494 16.668952,30.9173239 12,27.2353866 C13.1243879,26.5697732 14.2693438,25.5924168 15.4554358,24 C17.8893242,26.3170086 20.2615083,26.3844125 22.5377081,24 C23.7306562,25.5839913 24.8756121,26.5697732 26,27.2353866 Z" id="Path" fill="#E9E9E9"></path>
            <path d="M38.9455925,48 L0.0544075426,47.992674 C-0.164166946,43.0695971 0.26544498,38.4249084 1.53166961,34.1025641 C2.0894114,32.1978022 3.54406231,30.6593407 5.45847335,29.970696 C7.57638478,29.2161172 9.65661095,29.018315 11.8046706,28 C16.9374025,31.2014652 22.0625975,31.2087912 27.1953294,28 C29.3509261,29.018315 31.4236152,29.2161172 33.5415266,29.970696 C35.4559377,30.6520147 36.9105886,32.1978022 37.4683304,34.1025641 C38.734555,38.4249084 39.1641669,43.0769231 38.9455925,48 Z" id="Path" fill="#7CA3C2"></path>
            <path d="M21.8296225,24 L22,25.734975 C19.428848,27.4457692 16.7415295,27.3974075 14,25.734975 L14.1626331,24 L21.8296225,24 Z" id="Path" fill="#EAB353"></path>
            <path d="M26.2672633,12.255479 C26.2672633,12.2163431 26.2672633,12.1693801 26.2672633,12.1302442 C26.2672633,5.22667502 22.7914496,1 18.503108,1 C14.2147663,1 10.7389526,5.22667502 10.7389526,12.122417 C10.7389526,12.1615529 10.7389526,12.208516 10.7389526,12.2476518 C8.06061998,11.1361929 8.60230524,17.1552912 11.4988167,17.7971196 C12.7552255,22.3994991 15.4185114,26 18.503108,26 C21.5877045,26 24.2509904,22.3994991 25.4998758,17.8049468 C28.3963873,17.1631183 28.9380725,11.14402 26.2672633,12.255479 Z" id="Path" fill="#FFCC66"></path>
            <path d="M12.1566535,14 C12.3298688,11.8907737 11.8328161,9.98901219 12.5783952,8.3154621 C15.9899842,10.5629984 19.2810756,9.98209669 23.7319566,7.19515172 C24.1536983,9.38044852 24.8917462,12.3471964 26.3904355,13.6611407 C29.4028761,8.18406768 28.0096223,2.00852955 23.68677,2.12609299 C20.2676499,-1.46996505 15.0636587,-0.266668707 11.38095,3.95178399 C10.4696868,4.98910842 9.95757185,6.29613721 10.0027585,7.62391248 C10.0780695,9.86453326 10.7935241,12.3057034 11.5466343,13.7925351 L12.1566535,14 Z" id="Path" fill="#5E5E61"></path>
        </g>
        <text id="Developer-A-Copy" fill-rule="nonzero" font-family="Helvetica-Bold, Helvetica" font-size="12" font-weight="bold" fill="#999999">
            <tspan x="284" y="126">Developer A</tspan>
        </text>
        <g id="web-designer-copy" transform="translate(263.000000, 110.000000)" fill-rule="nonzero">
            <path d="M16.6313364,14.1164021 L11.5714286,12 L11.5714286,12 L11.40553,12.7619048 L10.9907834,14.5396825 C10.9493088,14.7089947 10.7419355,14.7513228 10.6589862,14.6243386 L9,12.8888889 L9,12.8888889 L7.38248848,14.6666667 C7.25806452,14.7936508 7.0921659,14.7513228 7.05069124,14.5820106 L6.6359447,12.8042328 L6.42857143,12 L6.42857143,12 L1.36866359,14.1164021 C0.539170507,14.4550265 0,15.3015873 0,16.1904762 L0,19.1957672 C0,19.6613757 0.373271889,20 0.788018433,20 L17.2119816,20 C17.6682028,20 18,19.6190476 18,19.1957672 L18,16.1904762 C18,15.3015873 17.4608295,14.4550265 16.6313364,14.1164021 Z" id="Path" fill="#444445"></path>
            <path d="M12,10 L12,11.125 L9.5,13 L7,11.125 L7,10 C7.08064516,10.0833333 7.16129032,10.125 7.2016129,10.1666667 L8.49193548,11.0833333 C8.61290323,11.1666667 8.77419355,11.25 8.93548387,11.25 L10.0241935,11.25 C10.1854839,11.25 10.3467742,11.2083333 10.4677419,11.0833333 L11.7580645,10.1666667 C11.8387097,10.125 11.9193548,10.0416667 12,10 Z" id="Path" fill="#F7BA49"></path>
            <path d="M12.637931,2.79646018 L10.1436782,2 L7.44827586,2.15929204 L6.44252874,3.19469027 L6,4.2699115 L6,7.65486726 C6,8.57079646 6.44252874,9.44690265 7.20689655,9.96460177 L8.45402299,10.840708 C8.57471264,10.920354 8.73563218,11 8.93678161,11 L10.0229885,11 C10.183908,11 10.3448276,10.960177 10.4655172,10.840708 L11.7528736,9.96460177 C12.5172414,9.44690265 13,8.57079646 13,7.65486726 L13,4.03097345 L12.637931,2.79646018 Z" id="Path" fill="#FFCB66"></path>
            <path d="M12,11 L12,12.0817592 L11.8387097,12.9381519 L11.4354839,14.8312305 C11.3951613,15.0115237 11.1935484,15.056597 11.1129032,14.9213771 L9.5,13.0282985 L12,11 Z M9.5,13.0282985 L7.92741935,14.9213771 C7.80645161,15.056597 7.64516129,15.0115237 7.60483871,14.8312305 L7.2016129,12.9381519 L7,12.0817592 L7,11 L9.5,13.0282985 Z" id="Shape" fill="#E5E5E4"></path>
            <path d="M12.4124295,1.72891566 C12.4124295,1.72891566 11.5400645,-0.295180723 9.33838123,0.210843373 C9.33838123,0.210843373 7.55210993,0.210843373 6.92899204,0 C6.92899204,0 6.92899204,0.421686747 7.26132158,0.801204819 C7.26132158,0.801204819 3.31490826,1.68674699 5.84892102,7 C5.84892102,7 5.26734432,2.10843373 8.63218095,2.8253012 C8.63218095,2.8253012 9.29684004,3.96385542 11.0831113,3.12048193 C11.0831113,3.12048193 12.8693826,2.53012048 12.8693826,4.21686747 L12.952465,7 C12.9940062,7 15.6111014,3.07831325 12.4124295,1.72891566 Z" id="Path" fill="#EA715F"></path>
        </g>
        <rect id="Rectangle" fill-opacity="0.7" fill="#FFFFFF" x="458" y="68" width="49" height="59"></rect>
    </g>
</svg>