<?xml version="1.0" encoding="UTF-8"?>
<svg width="800px" height="600px" viewBox="0 0 800 600" version="1.1" xmlns="http://www.w3.org/2000/svg" xmlns:xlink="http://www.w3.org/1999/xlink">
    <title>2041-10-14-17-10_Case1.CreateOwnRepositoryAndShareItWithOthers</title>
    <defs>
        <rect id="path-1" x="432" y="111" width="327" height="428"></rect>
        <filter x="-1.5%" y="-1.2%" width="104.3%" height="103.3%" filterUnits="objectBoundingBox" id="filter-2">
            <feOffset dx="2" dy="2" in="SourceAlpha" result="shadowOffsetOuter1"></feOffset>
            <feGaussianBlur stdDeviation="2" in="shadowOffsetOuter1" result="shadowBlurOuter1"></feGaussianBlur>
            <feColorMatrix values="0 0 0 0 0   0 0 0 0 0   0 0 0 0 0  0 0 0 0.5 0" type="matrix" in="shadowBlurOuter1"></feColorMatrix>
        </filter>
        <path d="M8.68744595,14.5405413 C10.6544909,13.5649687 12,11.5915112 12,9.31636202 C12,6.07252388 9.26504479,3.44227578 5.89152197,3.44227578 C4.52034181,3.44227578 3.25480793,3.87689217 2.23537065,4.61058921 L2.23537065,1.05770107 C2.23537065,0.476155373 1.74046224,0 1.11695169,0 C0.493934821,0 0.0167986821,0.476630104 0.0167986821,1.05770107 L0.0167986821,1.80184219 L0,9.32158406 C-0.0041824725,11.2003327 0.951817666,12.865215 2.41753644,13.8939574 C2.4777647,13.9362085 2.55848043,13.9312238 2.6127846,13.8823265 C2.66758244,13.8334292 2.6779496,13.7558106 2.63746831,13.6950451 C0.724974359,10.8146136 1.16014819,5.53963813 5.89176881,5.53963813 C8.05899866,5.53963813 9.80709909,7.22944376 9.81623206,9.31351363 C9.82240299,10.8599505 9.11620201,12.0365717 8.19549958,12.7781018 C6.36026565,14.2561773 3.64974731,12.6382934 4.49738595,10.4697214 C4.5894562,10.2335427 4.71879884,9.9959397 4.88664808,9.76189723 L5.12361171,9.47705853 C5.19766284,9.39967734 5.25048599,9.29903433 5.2146946,9.19411874 C5.01401603,8.62800181 3.46832203,8.97526767 3.04005964,10.0315445 C3.34292878,9.79631524 3.65986763,9.66433998 3.96940137,9.71489885 C2.38890334,11.275815 3.44141679,13.9563846 5.46005069,14.7513219 C6.40494316,15.1232738 7.55964718,15.0976383 8.68744595,14.5405413" id="path-3"></path>
        <linearGradient x1="28.568518%" y1="104.445731%" x2="78.3472072%" y2="20.6880271%" id="linearGradient-5">
            <stop stop-color="#000F98" offset="0%"></stop>
            <stop stop-color="#00A5FD" offset="100%"></stop>
        </linearGradient>
        <linearGradient x1="77.239229%" y1="0%" x2="22.760771%" y2="100%" id="linearGradient-6">
            <stop stop-color="#00C6FF" offset="0.0491695804%"></stop>
            <stop stop-color="#079DC2" offset="100%"></stop>
        </linearGradient>
        <linearGradient x1="77.239229%" y1="0%" x2="22.760771%" y2="100%" id="linearGradient-7">
            <stop stop-color="#EAEAEA" offset="0.0491695804%"></stop>
            <stop stop-color="#8E8E8E" offset="100%"></stop>
        </linearGradient>
        <linearGradient x1="77.239229%" y1="0%" x2="22.760771%" y2="100%" id="linearGradient-8">
            <stop stop-color="#00A5FF" offset="0.0491695804%"></stop>
            <stop stop-color="#0755C2" offset="100%"></stop>
        </linearGradient>
        <linearGradient x1="32.1347447%" y1="14.4184139%" x2="56.5507815%" y2="75.461337%" id="linearGradient-9">
            <stop stop-color="#000000" offset="0%"></stop>
            <stop stop-color="#191919" offset="100%"></stop>
        </linearGradient>
        <linearGradient x1="41.256555%" y1="27.4242437%" x2="66.2542373%" y2="91.8289958%" id="linearGradient-10">
            <stop stop-color="#000000" offset="0%"></stop>
            <stop stop-color="#191919" offset="100%"></stop>
        </linearGradient>
        <linearGradient x1="37.7767324%" y1="54.6472168%" x2="54.5561385%" y2="48.5166165%" id="linearGradient-11">
            <stop stop-color="#FFB268" offset="26.3%"></stop>
            <stop stop-color="#FFBD82" offset="89%"></stop>
        </linearGradient>
        <linearGradient x1="62.3385512%" y1="55.2275559%" x2="45.33121%" y2="48.4943619%" id="linearGradient-12">
            <stop stop-color="#FFB268" offset="26.3%"></stop>
            <stop stop-color="#FFBD82" offset="89%"></stop>
        </linearGradient>
        <linearGradient x1="50%" y1="34.4268793%" x2="50%" y2="102.16082%" id="linearGradient-13">
            <stop stop-color="#F9B701" offset="21.5%"></stop>
            <stop stop-color="#F9DD01" offset="85.2%"></stop>
        </linearGradient>
        <linearGradient x1="-0.126903553%" y1="49.9990888%" x2="100.126904%" y2="49.9990888%" id="linearGradient-14">
            <stop stop-color="#F9B701" offset="6.4%"></stop>
            <stop stop-color="#F9DD01" offset="85.2%"></stop>
        </linearGradient>
        <linearGradient x1="94.6898239%" y1="49.9981326%" x2="18.68591%" y2="49.9981326%" id="linearGradient-15">
            <stop stop-color="#FFB268" offset="26.3%"></stop>
            <stop stop-color="#FFBD82" offset="89%"></stop>
        </linearGradient>
        <linearGradient x1="42.9653078%" y1="23.0349219%" x2="67.7077887%" y2="98.8866064%" id="linearGradient-16">
            <stop stop-color="#FFB268" offset="26.3%"></stop>
            <stop stop-color="#FFBD82" offset="89%"></stop>
        </linearGradient>
        <linearGradient x1="50%" y1="120.60429%" x2="50%" y2="27.1566046%" id="linearGradient-17">
            <stop stop-color="#BB0020" offset="12.3%"></stop>
            <stop stop-color="#640520" offset="85.2%"></stop>
        </linearGradient>
        <linearGradient x1="64.4410833%" y1="13.9130435%" x2="40.5627198%" y2="71.0543478%" id="linearGradient-18">
            <stop stop-color="#F9B701" offset="6.4%"></stop>
            <stop stop-color="#F9B901" offset="29.1%"></stop>
            <stop stop-color="#F9DD01" offset="85.2%"></stop>
        </linearGradient>
        <linearGradient x1="64.7746701%" y1="13.826087%" x2="40.8855458%" y2="70.9565217%" id="linearGradient-19">
            <stop stop-color="#F9B701" offset="6.4%"></stop>
            <stop stop-color="#F9B901" offset="29.1%"></stop>
            <stop stop-color="#F9DD01" offset="85.2%"></stop>
        </linearGradient>
        <linearGradient x1="18.8518519%" y1="791.490613%" x2="67.6944444%" y2="-375.677452%" id="linearGradient-20">
            <stop stop-color="#7212DE" offset="12.3%"></stop>
            <stop stop-color="#450078" offset="85.2%"></stop>
        </linearGradient>
        <linearGradient x1="31.1388889%" y1="497.808781%" x2="79.9814815%" y2="-669.350176%" id="linearGradient-21">
            <stop stop-color="#7212DE" offset="12.3%"></stop>
            <stop stop-color="#450078" offset="85.2%"></stop>
        </linearGradient>
        <linearGradient x1="43.4351852%" y1="204.136058%" x2="92.2777778%" y2="-963.0229%" id="linearGradient-22">
            <stop stop-color="#7212DE" offset="12.3%"></stop>
            <stop stop-color="#450078" offset="85.2%"></stop>
        </linearGradient>
        <linearGradient x1="36.55911%" y1="40.4899497%" x2="64.1818664%" y2="65.9434673%" id="linearGradient-23">
            <stop stop-color="#F9B701" offset="6.4%"></stop>
            <stop stop-color="#F9B901" offset="29.1%"></stop>
            <stop stop-color="#F9DD01" offset="100%"></stop>
        </linearGradient>
        <linearGradient x1="56.8072846%" y1="36.2347716%" x2="36.2375903%" y2="74.3540609%" id="linearGradient-24">
            <stop stop-color="#F9B701" offset="6.4%"></stop>
            <stop stop-color="#F9B901" offset="29.1%"></stop>
            <stop stop-color="#F9DD01" offset="95.3%"></stop>
        </linearGradient>
    </defs>
    <g id="2041-10-14-17-10_Case1.CreateOwnRepositoryAndShareItWithOthers" stroke="none" stroke-width="1" fill="none" fill-rule="evenodd">
        <rect fill="#FFFFFF" x="0" y="0" width="800" height="600"></rect>
        <g id="Rectangle">
            <use fill="black" fill-opacity="1" filter="url(#filter-2)" xlink:href="#path-1"></use>
            <use fill="#C5DDFF" fill-rule="evenodd" xlink:href="#path-1"></use>
        </g>
        <text id="Case-1.-Create-Own-R" fill-rule="nonzero" font-family="Helvetica" font-size="18" font-weight="normal" fill="#0055C2">
            <tspan x="10" y="23">Case 1. Create Own Repository And Share It With Others</tspan>
        </text>
        <g id="bloovee-winner-logo" transform="translate(725.000000, 580.000000)">
            <path d="M13,13.7751507 C13,14.396312 13.4732558,14.8717809 14.0514961,14.8717809 C14.6474304,14.8717809 15.1204503,14.3968042 15.1204503,13.7751507 L15.1204503,2.09687626 C15.1204503,1.49368045 14.6474304,1 14.0514961,1 C13.4557977,1 13,1.49392656 13,2.09687626 L13,13.7751507 Z M21.7920364,15 C24.6483217,15 26.751078,12.7149437 26.751078,9.97312215 L26.751078,9.93645297 C26.751078,7.17641992 24.6657798,4.92778666 21.8269526,4.92778666 C18.9881254,4.92778666 16.885369,7.212843 16.885369,9.97312215 L16.885369,10.0095452 C16.885369,12.7516128 18.9706673,15 21.7920364,15 Z M21.8269526,13.0621935 C20.179994,13.0621935 19.0055834,11.6547366 19.0055834,9.97312215 L19.0055834,9.93645297 C19.0055834,8.25459244 20.0919958,6.86534709 21.7920364,6.86534709 C23.456689,6.86534709 24.6306277,8.27305008 24.6306277,9.97312215 L24.6306277,10.0095452 C24.6306277,11.6731942 23.5444513,13.0621935 21.8269526,13.0621935 Z M32.8092717,15 C35.665557,15 37.7683133,12.7149437 37.7683133,9.97312215 L37.7683133,9.93645297 C37.7683133,7.17641992 35.6830151,4.92778666 32.8441878,4.92778666 C30.0053606,4.92778666 27.9026043,7.212843 27.9026043,9.97312215 L27.9026043,10.0095452 C27.9026043,12.7516128 29.9879025,15 32.8092717,15 Z M32.8441878,13.0621935 C31.1969933,13.0621935 30.0228187,11.6547366 30.0228187,9.97312215 L30.0228187,9.93645297 C30.0228187,8.25459244 31.109231,6.86534709 32.8092717,6.86534709 C34.4739243,6.86534709 35.647863,8.27305008 35.647863,9.97312215 L35.647863,10.0095452 C35.647863,11.6731942 34.5614506,13.0621935 32.8441878,13.0621935 Z M44.1416963,13.9944275 L47.2261164,6.6096472 C47.2784906,6.49988574 47.3487948,6.28060893 47.3487948,6.07954366 C47.3487948,5.47610175 46.8929971,5.01933658 46.3147568,5.01933658 C45.7539746,5.01933658 45.4737015,5.40300947 45.3158709,5.78692847 L42.8976893,12.2215093 L40.5144239,5.82335156 C40.3393711,5.36634029 40.041404,5.01933658 39.4629278,5.01933658 C38.8846875,5.01933658 38.4116676,5.53098247 38.4116676,6.07954366 C38.4116676,6.28060893 38.4817358,6.46346265 38.534346,6.62785874 L41.6182943,13.9944275 C41.8638872,14.5796579 42.2491448,14.9633308 42.8273851,14.9633308 L42.9326055,14.9633308 C43.5108458,14.9633308 43.8965752,14.5612003 44.1416963,13.9944275 Z M50.0949054,9.27837643 C50.2876522,7.77961573 51.1987758,6.73762019 52.4956289,6.73762019 C53.8974665,6.73762019 54.7036056,7.8524619 54.8437422,9.27837643 L50.0949054,9.27837643 Z M56.070527,13.72027 C56.2281217,13.5558739 56.3508002,13.3181395 56.3508002,13.0439819 C56.3508002,12.5320899 55.9830006,12.1481709 55.5095089,12.1481709 C55.2641519,12.1481709 55.1242513,12.2215093 54.9664207,12.3492362 C54.3704864,12.8611282 53.6695676,13.1901665 52.7759021,13.1901665 C51.4089807,13.1901665 50.3402624,12.3128131 50.1123635,10.7409601 L55.9126964,10.7409601 C56.4560206,10.7409601 56.9115824,10.3021604 56.9115824,9.68050697 C56.9115824,7.45057746 55.4568987,4.92778666 52.513087,4.92778666 C49.8672425,4.92778666 47.9919132,7.19438536 47.9919132,9.95466451 L47.9919132,9.9913337 C47.9919132,12.9708897 50.0597533,15 52.7409859,15 C54.1779755,15 55.2292357,14.5063195 56.070527,13.72027 Z M60.1833231,9.27837643 C60.3763058,7.77961573 61.2871935,6.73762019 62.5842825,6.73762019 C63.9858841,6.73762019 64.7920233,7.8524619 64.9321598,9.27837643 L60.1833231,9.27837643 Z M66.1589447,13.72027 C66.3167752,13.5558739 66.4394537,13.3181395 66.4394537,13.0439819 C66.4394537,12.5320899 66.0714183,12.1481709 65.5981624,12.1481709 C65.3528055,12.1481709 65.2126689,12.2215093 65.0548383,12.3492362 C64.4591399,12.8611282 63.7582212,13.1901665 62.8643197,13.1901665 C61.4976342,13.1901665 60.4289159,12.3128131 60.2007812,10.7409601 L66.0011141,10.7409601 C66.5444382,10.7409601 67,10.3021604 67,9.68050697 C67,7.45057746 65.5455522,4.92778666 62.6015046,4.92778666 C59.9556601,4.92778666 58.0805667,7.19438536 58.0805667,9.95466451 L58.0805667,9.9913337 C58.0805667,12.9708897 60.1484069,15 62.8294035,15 C64.2663932,15 65.3178893,14.5063195 66.1589447,13.72027 L66.1589447,13.72027 Z" id="Fill-1" fill="#030060"></path>
            <g id="Group-4">
                <mask id="mask-4" fill="white">
                    <use xlink:href="#path-3"></use>
                </mask>
                <g id="Clip-3"></g>
                <path d="M8.68744595,14.5405413 C10.6544909,13.5649687 12,11.5915112 12,9.31636202 C12,6.07252388 9.26504479,3.44227578 5.89152197,3.44227578 C4.52034181,3.44227578 3.25480793,3.87689217 2.23537065,4.61058921 L2.23537065,1.05770107 C2.23537065,0.476155373 1.74046224,0 1.11695169,0 C0.493934821,0 0.0167986821,0.476630104 0.0167986821,1.05770107 L0.0167986821,1.80184219 L0,9.32158406 C-0.0041824725,11.2003327 0.951817666,12.865215 2.41753644,13.8939574 C2.4777647,13.9362085 2.55848043,13.9312238 2.6127846,13.8823265 C2.66758244,13.8334292 2.6779496,13.7558106 2.63746831,13.6950451 C0.724974359,10.8146136 1.16014819,5.53963813 5.89176881,5.53963813 C8.05899866,5.53963813 9.80709909,7.22944376 9.81623206,9.31351363 C9.82240299,10.8599505 9.11620201,12.0365717 8.19549958,12.7781018 C6.36026565,14.2561773 3.64974731,12.6382934 4.49738595,10.4697214 C4.5894562,10.2335427 4.71879884,9.9959397 4.88664808,9.76189723 L5.12361171,9.47705853 C5.19766284,9.39967734 5.25048599,9.29903433 5.2146946,9.19411874 C5.01401603,8.62800181 3.46832203,8.97526767 3.04005964,10.0315445 C3.34292878,9.79631524 3.65986763,9.66433998 3.96940137,9.71489885 C2.38890334,11.275815 3.44141679,13.9563846 5.46005069,14.7513219 C6.40494316,15.1232738 7.55964718,15.0976383 8.68744595,14.5405413" id="Fill-2" fill="url(#linearGradient-5)" mask="url(#mask-4)"></path>
            </g>
        </g>
        <g id="laptop" transform="translate(32.000000, 296.000000)" fill-rule="nonzero">
            <path d="M55.2068741,0 L7.58557871,0 C5.39275346,0 3.62264151,1.78913129 3.62264151,4.00551781 L3.62264151,30.0814387 C3.62264151,31.0294113 3.95288628,31.8839217 4.49448769,32.5782115 C5.20781639,33.4994806 6.3306486,34.0869565 7.58557871,34.0869565 L55.3257622,34.0869565 C56.5146434,34.0469013 57.5846364,33.4727771 58.2979651,32.5915632 C58.8395666,31.8972735 59.1698113,31.0294113 59.1698113,30.0814387 L59.1698113,4.00551781 C59.1698113,1.78913129 57.3864896,0 55.2068741,0 Z M7.58557871,31.4166113 C6.85904023,31.4166113 6.26459965,30.8157836 6.26459965,30.0814387 L6.26459965,4.00551781 C6.26459965,3.25782115 6.85904023,2.6703452 7.58557871,2.6703452 L55.2068741,2.6703452 C55.9334126,2.6703452 56.5278532,3.25782115 56.5278532,4.00551781 L56.5278532,30.0814387 C56.5278532,30.8157836 55.9334126,31.4166113 55.2068741,31.4166113 L7.58557871,31.4166113 Z" id="Shape" fill="#0055C2"></path>
            <path d="M56.754717,3.79183748 L56.754717,30.295119 C56.754717,31.0414992 56.1549104,31.6521739 55.4218134,31.6521739 L7.37063943,31.6521739 C6.63754246,31.6521739 6.03773585,31.0414992 6.03773585,30.295119 L6.03773585,3.79183748 C6.03773585,3.03188675 6.63754246,2.43478261 7.37063943,2.43478261 L55.4218134,2.43478261 C56.1549104,2.43478261 56.754717,3.03188675 56.754717,3.79183748 Z" id="Path" fill="#FFFFFF"></path>
            <path d="M63.9011327,50.6479603 L60.5276796,35.1455003 C60.3276725,34.2227349 59.8343216,33.4186107 59.1542975,32.8122219 C58.3542691,32.0871919 57.3008983,31.6521739 56.1541909,31.6521739 L7.83247525,31.6521739 C6.69910168,31.6521739 5.63239714,32.0871919 4.84570254,32.7990396 C4.15234459,33.4054283 3.65899374,34.2095525 3.45898663,35.1455003 L0.098867332,50.6479603 C-0.18114261,51.9530143 0.138868752,53.3107978 0.992232385,54.3522045 C1.84559602,55.3936113 3.11230766,56 4.47235595,56 L59.5276441,56 C60.8876923,56 62.154404,55.3936113 63.0077676,54.3522045 C63.8611312,53.3107978 64.1811426,51.9530143 63.9011327,50.6479603 Z M60.9276938,52.6912267 C60.5810148,53.1130623 60.0743301,53.3635272 59.5276441,53.3635272 L4.47235595,53.3635272 C3.92566987,53.3635272 3.40565141,53.1130623 3.05897243,52.6912267 C2.72562726,52.269391 2.5922892,51.7289141 2.69895965,51.2016195 L6.07241276,35.6991596 C6.24575225,34.8818531 6.99244543,34.2886467 7.83247525,34.2886467 L56.1541909,34.2886467 C57.0075546,34.2886467 57.7542478,34.8818531 57.9275872,35.6991596 L61.2877065,51.2016195 C61.4077108,51.7289141 61.2743727,52.269391 60.9276938,52.6912267 Z" id="Shape" fill="#0055C2"></path>
            <path d="M61.5413563,51.3575915 L58.1524928,35.5272986 C57.9690158,34.6858137 57.2243708,34.0861475 56.3639259,34.0869565 L7.62884119,34.0869565 C6.78162531,34.0869565 6.02854453,34.6927083 5.85372221,35.5272986 L2.45141083,51.3575915 C2.34382786,51.8960368 2.47830657,52.4479433 2.81450335,52.8786996 C3.164148,53.3094559 3.68861497,53.5652174 4.23997768,53.5652174 L59.7662373,53.5652174 C60.3176,53.5652174 60.8286191,53.3094559 61.1782637,52.8786996 C61.5279084,52.4479433 61.6623871,51.8960368 61.5413563,51.3575915 L61.5413563,51.3575915 Z M9.79915208,37.7391304 L54.2008479,37.7391304 C54.9547882,37.7391304 55.5471698,38.2869565 55.5471698,38.9565217 C55.5471698,39.626087 54.9547882,40.173913 54.2008479,40.173913 L9.79915208,40.173913 C9.05867504,40.173913 8.45283019,39.626087 8.45283019,38.9565217 C8.45283019,38.2869565 9.05867504,37.7391304 9.79915208,37.7391304 Z M34.8742951,48.6956522 L6.18230868,48.6956522 C5.43864268,48.6956522 4.83018868,48.16 4.83018868,47.4782609 C4.83018868,46.8086957 5.43864268,46.2608696 6.18230868,46.2608696 L34.8742951,46.2608696 C35.6179611,46.2608696 36.2264151,46.8086957 36.2264151,47.4782609 C36.2264151,48.16 35.6179611,48.6956522 34.8742951,48.6956522 L34.8742951,48.6956522 Z M55.3801011,48.6956522 L42.4312196,48.6956522 C41.6751809,48.6956522 41.0566038,48.16 41.0566038,47.4782609 C41.0566038,46.8086957 41.6751809,46.2608696 42.4312196,46.2608696 L55.3801011,46.2608696 C56.1361398,46.2608696 56.754717,46.8086957 56.754717,47.4782609 C56.754717,48.16 56.1361398,48.6956522 55.3801011,48.6956522 Z" id="Shape" fill="#D0E8F9"></path>
            <path d="M55.5471698,38.9565217 C55.5471698,39.626087 54.9547882,40.173913 54.2008479,40.173913 L9.79915208,40.173913 C9.05867504,40.173913 8.45283019,39.626087 8.45283019,38.9565217 C8.45283019,38.2869565 9.05867504,37.7391304 9.79915208,37.7391304 L54.2008479,37.7391304 C54.9547882,37.7391304 55.5471698,38.2869565 55.5471698,38.9565217 Z M36.2264151,47.4782609 C36.2264151,48.16 35.6179611,48.6956522 34.8742951,48.6956522 L6.18230868,48.6956522 C5.43864268,48.6956522 4.83018868,48.16 4.83018868,47.4782609 C4.83018868,46.8086957 5.43864268,46.2608696 6.18230868,46.2608696 L34.8742951,46.2608696 C35.6179611,46.2608696 36.2264151,46.8086957 36.2264151,47.4782609 Z M56.754717,47.4782609 C56.754717,48.16 56.1361398,48.6956522 55.3801011,48.6956522 L42.4312196,48.6956522 C41.6751809,48.6956522 41.0566038,48.16 41.0566038,47.4782609 C41.0566038,46.8086957 41.6751809,46.2608696 42.4312196,46.2608696 L55.3801011,46.2608696 C56.1361398,46.2608696 56.754717,46.8086957 56.754717,47.4782609 Z" id="Shape" fill="#0055C2"></path>
            <path d="M15.6981132,31.6521739 L24.9980231,31.6521739 L37.4339623,2.43478261 L28.1340523,2.43478261 L15.6981132,31.6521739 Z M30.9066268,31.6521739 L43.4716981,2.43478261 L40.3384671,2.43478261 L27.7735849,31.6521739 L30.9066268,31.6521739 Z" id="Shape" fill="#C5DDFF"></path>
        </g>
        <text id="Local-Computer" fill-rule="nonzero" font-family="Helvetica" font-size="18" font-weight="normal" fill="#0055C2">
            <tspan x="42.984375" y="375">Local </tspan>
            <tspan x="24.984375" y="397">Computer</tspan>
        </text>
        <text id="GitHub" fill-rule="nonzero" font-family="Helvetica" font-size="18" font-weight="normal" fill="#0055C2">
            <tspan x="36.4892578" y="212">GitHub</tspan>
        </text>
        <g id="Group-2" transform="translate(28.000000, 116.000000)" fill-rule="nonzero">
            <g id="Group-2-Copy" transform="translate(0.000000, 30.172414)">
                <path d="M56.4,26.3755745 C56.4,32.794497 51.5108487,38.0172414 45.4995259,38.0172414 L12.5593436,38.0172414 C9.67893102,38.0325219 6.91033983,36.8058165 4.86042249,34.6057187 C2.80878485,32.449436 1.65289441,29.4780203 1.65882353,26.3755745 C1.65882353,21.4964855 4.48925939,17.1719725 8.74895284,15.4775657 C10.8374816,6.50923493 18.1891699,0.170797899 26.6968009,0.00339160819 C35.204432,-0.164014683 42.7622579,5.88104497 45.1478977,14.7613367 C45.3649521,14.7459973 45.4897584,14.7459973 45.4995259,14.7459973 C45.6623167,14.7459973 45.8251075,14.7459973 45.9857278,14.7577968 C48.6924063,14.8724879 51.2627063,16.0793973 53.1951911,18.1430705 C55.2439427,20.302773 56.4,23.2729977 56.4,26.3755745 Z" id="Path" fill="#C5DDFF"></path>
                <path d="M8.29411765,14.4827586 C8.20637131,14.8590663 8.12280338,15.2353739 8.04759224,15.621852 C7.571255,15.835432 7.10327456,16.0540972 6.63529412,16.2931034 C7.17012891,15.6659241 7.72307008,15.0624758 8.29411765,14.4827586 Z" id="Path" fill="#607D8B"></path>
                <path d="M34.8352941,18.0604866 C35.6220765,17.2379467 36.5648659,16.5339084 37.6244263,15.977672 C38.6995229,15.4137838 39.8733869,15.0004426 41.1014841,14.7533296 C43.5992282,14.2628672 46.2133628,14.4422003 48.5873547,15.2668702 C50.9607323,16.0794229 52.9976341,17.4760605 54.4392405,19.2793188 C55.1467927,20.1711814 55.6811163,21.1547067 56.0215987,22.1919532 C56.3534437,23.2173124 56.468393,24.2849963 56.3610442,25.3448276 C56.1579393,23.2840819 55.2615171,21.3173927 53.7797095,19.6815555 C52.3269353,18.0785622 50.4001188,16.8350683 48.1975732,16.0790576 C46.0001361,15.3184999 43.598862,15.0926815 41.2602362,15.4266628 C38.8763395,15.7851995 36.6537302,16.6963301 34.8352941,18.0604866 L34.8352941,18.0604866 Z" id="Path" fill="#7BB2FF"></path>
                <path d="M6.63529412,18.1157604 C6.74950573,18.0533769 6.8647192,17.9934398 6.98193639,17.934726 C6.86572106,17.9922166 6.74950573,18.0533769 6.63529412,18.1157604 Z M7.91165901,15.6660948 C7.98780009,15.4380917 8.0686165,15.2100886 8.15410823,14.9820855 C8.0686165,15.2062885 7.98780009,15.4342917 7.91165901,15.6660948 Z M13.2705882,7.24137931 C13.118974,7.38122123 12.9693634,7.52372318 12.8217566,7.66888517 C12.9680276,7.52638322 13.1213117,7.38160123 13.2705882,7.24137931 Z" id="Shape" fill="#55717C"></path>
                <path d="M51.4235294,36.4952284 C49.3818729,38.6417656 46.6827382,39.8340229 43.8796192,39.8275862 L10.9101791,39.8275862 C8.89998387,39.8353378 6.92664134,39.2246768 5.20635301,38.0624335 C5.11583333,38.0009269 5.02676197,37.9386109 4.93913892,37.8754857 C4.85115379,37.8123605 4.76316866,37.7468074 4.67626977,37.6800403 C4.58937087,37.6132732 4.5089894,37.5489341 4.42752168,37.482167 L4.41883179,37.4748833 C4.33301914,37.4056884 4.24937895,37.3340655 4.16573877,37.2612287 C4.08209858,37.1883919 4.00823452,37.1216248 3.93002552,37.050002 L3.89417973,37.0172254 C3.83878168,36.9650257 3.78555611,36.91404 3.73015807,36.8594124 L3.63456928,36.7671524 C3.5900336,36.7234504 3.54767039,36.6809622 3.50422094,36.6348322 C3.40320098,36.5328607 3.30326725,36.4260334 3.20441976,36.3179922 C1.15095983,34.0995809 -0.00595727486,31.0425503 0,27.8507143 C0,27.7572404 0,27.6637665 0,27.5715066 C0,27.5095953 0,27.4501119 0,27.3821309 C0,27.2255318 0.0130579045,27.0725745 0.0250065024,26.9171893 C0.0250065024,26.8407107 0.035868864,26.7630181 0.0434725172,26.6865395 C0.0510761703,26.6100608 0.0543348788,26.5651448 0.061938532,26.4959499 C0.0695421852,26.4267549 0.0771458383,26.3478484 0.0869219638,26.2737976 C0.112991632,26.05205 0.145216638,25.831921 0.183596983,25.6134107 C0.192286872,25.559997 0.202062997,25.5090112 0.211839123,25.4555976 C0.230305138,25.3572679 0.249857389,25.2601522 0.268323404,25.1630364 C0.28353071,25.0962694 0.29765178,25.0295023 0.312859086,24.9639492 C0.328066393,24.8983961 0.345446171,24.8219174 0.36282595,24.7515085 C0.374774548,24.7005228 0.386723146,24.6519649 0.39975798,24.603407 C0.412792814,24.5548492 0.423655175,24.5111471 0.436690009,24.4638032 C0.449724843,24.4164593 0.46493215,24.3594038 0.480139456,24.3059901 C0.495346762,24.2525765 0.50729536,24.2100883 0.522502666,24.1627444 C0.588400994,23.9385689 0.660816738,23.717226 0.7397499,23.4987156 C0.763647095,23.4307346 0.788630527,23.3627536 0.813613959,23.2959865 C0.838597391,23.2292194 0.863580823,23.1612384 0.890736727,23.0944714 C0.917892631,23.0277043 0.942876063,22.9609372 0.971118203,22.8953841 C0.999360343,22.829831 1.02543001,22.7630639 1.05475839,22.6987248 C1.08408676,22.6343856 1.11124267,22.5676185 1.14165728,22.5032793 C1.17207189,22.4389402 1.20031403,22.3733871 1.23181488,22.3102618 C1.26331573,22.2471366 1.29264411,22.1815835 1.32523119,22.1184583 C1.38823289,21.9970636 1.45340706,21.8647434 1.5207537,21.7397069 C1.58810035,21.6146704 1.65110204,21.5054152 1.71736245,21.3900903 C1.93562193,21.0181148 2.17205563,20.6598621 2.42558843,20.3169614 C2.46143422,20.2671896 2.49728002,20.2198457 2.53421205,20.1712878 C2.6710778,19.9972888 2.81192643,19.8277409 2.95675791,19.6626442 C2.99260371,19.6201561 3.02736327,19.5800958 3.06538153,19.5412495 C3.19428156,19.3939573 3.32716445,19.2507116 3.4640302,19.1115124 L3.56722264,19.007113 C3.73160638,18.8452535 3.90069714,18.6862264 4.07449493,18.530032 L4.18311855,18.4365581 C4.27436238,18.3588655 4.36777869,18.2811729 4.461195,18.2059082 C4.50464445,18.1707038 4.5480939,18.1367133 4.59154334,18.1039367 C4.68821836,18.0274581 4.78706585,17.9534073 4.88591335,17.8805705 C4.93588021,17.8429382 4.98801955,17.8077337 5.04015888,17.7713153 L5.1759384,17.6778414 L5.28456202,17.6074325 C5.33996006,17.5698002 5.39318564,17.5333818 5.45292862,17.4981773 L5.47248088,17.4860379 C5.52570645,17.4508334 5.58110449,17.4180568 5.6354163,17.3852803 C5.68972811,17.3525037 5.75381604,17.3136574 5.81355903,17.2796669 L5.99387424,17.1764815 L6.17636191,17.0781518 L6.3621083,16.98225 C6.48593922,16.9203387 6.61085638,16.8608553 6.73794601,16.8025859 C6.86503564,16.7443165 6.98234915,16.6933307 7.10509383,16.6423449 C7.12573232,16.5512989 7.14745704,16.4614669 7.16918177,16.3704209 C7.20176885,16.2368868 7.23435594,16.1021387 7.26911549,15.9710324 C7.30387505,15.8399262 7.33863461,15.7051781 7.37773911,15.5728579 C7.41684361,15.4405378 7.45160317,15.3094315 7.48636273,15.1783253 C7.52112228,15.047219 7.56457173,14.9185407 7.60584871,14.7910763 C7.60631971,14.7886769 7.60631971,14.786192 7.60584871,14.7837926 C7.64603944,14.662398 7.68514395,14.5410033 7.72750716,14.4196086 C7.72750716,14.411111 7.72750716,14.4013994 7.73619705,14.3916879 C7.82019931,14.1488985 7.90782236,13.9061092 7.9990662,13.6633199 L8.02187716,13.6038365 C8.0620679,13.4994371 8.10225863,13.3950377 8.14462184,13.2918522 L8.17395022,13.2190154 C8.21305472,13.1231136 8.25215922,13.0272118 8.29234996,12.93131 L8.33145446,12.840264 C8.37599015,12.7370786 8.41943959,12.6351071 8.46506151,12.5331355 L8.48787247,12.4809358 C8.53892557,12.3668249 8.59106491,12.2527139 8.64320424,12.1398168 C8.69534358,12.0269198 8.75182786,11.9128088 8.8039672,11.7999118 L8.84850288,11.7100797 C8.88760738,11.6323871 8.92453941,11.5546946 8.96581639,11.4782159 C8.99297229,11.4223744 9.02012819,11.3665328 9.05054281,11.3119052 C9.08095742,11.2572776 9.12332063,11.1698735 9.15916642,11.0994646 C9.17545997,11.0691159 9.19175351,11.0387672 9.20804705,11.0084186 C9.25910015,10.9100889 9.31667067,10.8129732 9.36772377,10.7158574 C9.41877687,10.6187417 9.47634738,10.521626 9.53283166,10.4245102 C9.57628111,10.3504595 9.61864432,10.2751948 9.66318,10.202358 L9.73595783,10.0809633 C9.77506233,10.0166242 9.81416683,9.95228498 9.85435757,9.88915975 C9.89454831,9.82603453 9.93148034,9.76776509 9.97167108,9.70221197 C10.0118618,9.63665885 10.0248966,9.6172357 10.0531388,9.57353363 C10.0976745,9.50312472 10.1432964,9.43028792 10.1910908,9.36109296 L10.2486613,9.2736888 C10.3018869,9.19235438 10.3572849,9.11101995 10.4115967,9.03089947 C10.5180479,8.8763236 10.6266715,8.72255703 10.7374676,8.56959975 C10.7863482,8.50161874 10.8363151,8.43363773 10.8862819,8.36565671 C10.9978022,8.21593663 11.111857,8.06702584 11.2284463,7.91892435 C11.2762407,7.85701307 11.3251213,7.79752968 11.3750882,7.73440446 L11.4196239,7.67977686 C11.489143,7.59358665 11.5597484,7.50739643 11.6303537,7.42242017 L11.6542509,7.3944994 C11.7324599,7.3010255 11.8117551,7.20876556 11.8932229,7.11650561 C12.2658019,6.6891964 12.6535882,6.27766848 13.062013,5.88556372 C13.2220518,5.73098784 13.384263,5.57924451 13.5486468,5.43033372 C13.650753,5.33807378 13.7539454,5.24824173 13.8571378,5.15840968 C13.8694793,5.14611696 13.8825434,5.1347614 13.8962423,5.12441917 C14.004866,5.03094528 14.1134896,4.93989928 14.2221132,4.85006723 C14.3307368,4.76023518 14.4469641,4.66797523 14.5610189,4.57814318 L14.5675363,4.57814318 C14.6837636,4.48709718 14.8010771,4.39847908 14.9173043,4.30986097 C15.0335316,4.22124287 15.1541038,4.1362666 15.2725036,4.05129034 C15.5107514,3.8821471 15.75262,3.72028755 15.9981093,3.56571168 C16.120854,3.48801909 16.2435987,3.41032651 16.3674296,3.33506181 C16.4912605,3.25979712 16.6150915,3.18574638 16.7410949,3.11412352 C16.806269,3.07527723 16.8736157,3.03885883 16.9398761,3.00244043 C17.7556798,2.53764688 18.6004305,2.13924717 19.4675476,1.81034483 C19.1329869,2.07862704 10.4843745,6.57265752 10.8341426,15.9613209 C7.58911461,17.275121 4.95467467,19.9948072 3.52594567,23.5059993 C2.96562987,27.3191834 4.11009344,31.1975019 6.59021789,33.8900989 C8.64135536,36.1531054 11.4115622,37.4151273 14.2938048,37.3996186 L47.2643311,37.3996186 C48.6900441,37.4018897 50.1025864,37.0947417 51.4235294,36.4952284 Z" id="Path" fill="#7BB2FF"></path>
            </g>
            <g id="github-copy-9" transform="translate(38.400000, 0.000000)" fill="#000000">
                <path d="M19.7999102,0 C10.0897562,0.000415251216 1.81290713,7.26295783 0.257467025,17.1475671 C-1.29797308,27.0321764 4.32709574,36.621335 13.5387999,39.7885001 C14.528705,39.9671937 14.8999194,39.3546903 14.8999194,38.8186708 C14.8999194,38.3337766 14.875152,36.7258814 14.875152,35.0159398 C9.90085897,35.9602268 8.61398232,33.7654317 8.21802027,32.6169498 C7.77865232,31.4999615 7.08215464,30.5101065 6.18871478,29.7329226 C5.49578119,29.3500953 4.50587607,28.4057879 6.16394735,28.3803069 C7.44885673,28.5240949 8.58499094,29.3051846 9.20792539,30.473035 C9.75481111,31.4862135 10.6702087,32.2332749 11.7520459,32.5493069 C12.8338832,32.8653389 13.9932013,32.7243543 14.9740831,32.1574753 C15.0597912,31.1194978 15.5083539,30.1490141 16.2362517,29.426722 C11.831174,28.9162856 7.22811515,27.1551982 7.22811515,19.3456023 C7.20029429,17.3164041 7.92636519,15.3531264 9.25742064,13.8584106 C8.65215661,12.0947903 8.72297671,10.1593466 9.45540167,8.44778433 C9.45540167,8.44778433 11.1134333,7.91180565 14.8998798,10.5405737 C18.1394197,9.62173364 21.5593911,9.62173364 24.798931,10.5405737 C28.5852785,7.88630425 30.2434092,8.44778433 30.2434092,8.44778433 C30.9759335,10.159323 31.0467551,12.0948062 30.4413902,13.8584106 C31.7764538,15.3505681 32.5031587,17.31556 32.4706957,19.3456023 C32.4706957,27.1807404 27.8428496,28.9162856 23.4378115,29.426722 C24.3938471,30.4260304 24.8815481,31.8045079 24.7741834,33.2039517 C24.7741834,35.9348274 24.7494159,38.1296225 24.7494159,38.8187525 C24.7494159,39.3547312 25.1206304,39.9927563 26.1105355,39.7885817 C35.3052609,36.5958379 40.904512,27.0049626 39.3384201,17.1307315 C37.7723283,7.25650042 29.5018432,0.00520746473 19.7999102,0 Z" id="Path"></path>
            </g>
        </g>
        <text id="$-git-push" fill-rule="nonzero" font-family="Helvetica-Bold, Helvetica" font-size="18" font-weight="bold" fill="#0055C2">
            <tspan x="168" y="275">$ git push</tspan>
        </text>
        <text id="$-git-remote-add" fill-rule="nonzero" font-family="Helvetica-Bold, Helvetica" font-size="18" font-weight="bold" fill="#0055C2">
            <tspan x="168" y="244">$ git remote add</tspan>
        </text>
        <text id="Give-access" fill-rule="nonzero" font-family="Helvetica-Bold, Helvetica" font-size="18" font-weight="bold" fill="#0055C2">
            <tspan x="195" y="130">Give access</tspan>
        </text>
        <text id="$-git-clone" fill-rule="nonzero" font-family="Helvetica-Bold, Helvetica" font-size="18" font-weight="bold" fill="#4F4F4F">
            <tspan x="328" y="279">$ git clone</tspan>
        </text>
        <rect id="Rectangle-Copy-20" fill="#A1E0E9" x="115" y="142" width="154" height="65" rx="32.5"></rect>
        <rect id="Rectangle-Copy-16" fill="#C5DDFF" x="115" y="316" width="122" height="65" rx="32.5"></rect>
        <rect id="Rectangle-Copy-17" fill="#C8C8C8" x="247" y="316" width="122" height="65" rx="32.5"></rect>
        <g id="Group-Copy-5" transform="translate(126.000000, 126.000000)" fill-rule="nonzero">
            <path d="M30.8349397,5.01723136 C29.6754695,1.71577928 22.5518751,0 15.5076965,0 C8.46351793,0 1.41933933,1.69951597 0.196336512,4.96844143 C0.0718657643,5.16145065 0.00558287009,5.38768182 0.0057386694,5.61897386 L0.0057386694,35.6491772 C-0.0019128898,35.7139945 -0.0019128898,35.7795195 0.0057386694,35.8443369 C0.00189390686,35.9011904 0.00189390686,35.9582481 0.0057386694,36.0151016 C0.0057386694,39.9426912 7.80436706,42 15.5076965,42 C23.211026,42 30.9937712,39.9426912 30.9937712,36.0151016 C30.9976128,35.960962 30.9976128,35.9066082 30.9937712,35.8524685 C31.0020763,35.7849715 31.0020763,35.7166742 30.9937712,35.6491772 L30.9937712,5.61897386 C30.9978258,5.40700409 30.9427248,5.19825071 30.8349397,5.01723136 Z" id="Path" fill="url(#linearGradient-6)"></path>
            <path d="M15.4985499,0 C25.5367396,0 30.9924816,2.93571874 30.9924816,4.44435199 C31.0025061,4.49129916 31.0025061,4.54011337 30.9924816,4.58706054 C30.6638224,6.13646765 25.1986901,8.90909091 15.4985499,8.90909091 C5.7984096,8.90909091 0.333277329,6.10588725 0.0046181718,4.58706054 C-0.0015393906,4.54998334 -0.0015393906,4.51200959 0.0046181718,4.47493239 C0.0046181718,2.93571874 5.46036018,0 15.4985499,0 Z" id="Path" fill="#199ABD"></path>
        </g>
        <g id="Group-Copy-7" transform="translate(299.000000, 296.000000)" fill-rule="nonzero">
            <path d="M30.8349397,5.01723136 C29.6754695,1.71577928 22.5518751,0 15.5076965,0 C8.46351793,0 1.41933933,1.69951597 0.196336512,4.96844143 C0.0718657643,5.16145065 0.00558287009,5.38768182 0.0057386694,5.61897386 L0.0057386694,35.6491772 C-0.0019128898,35.7139945 -0.0019128898,35.7795195 0.0057386694,35.8443369 C0.00189390686,35.9011904 0.00189390686,35.9582481 0.0057386694,36.0151016 C0.0057386694,39.9426912 7.80436706,42 15.5076965,42 C23.211026,42 30.9937712,39.9426912 30.9937712,36.0151016 C30.9976128,35.960962 30.9976128,35.9066082 30.9937712,35.8524685 C31.0020763,35.7849715 31.0020763,35.7166742 30.9937712,35.6491772 L30.9937712,5.61897386 C30.9978258,5.40700409 30.9427248,5.19825071 30.8349397,5.01723136 Z" id="Path" fill="url(#linearGradient-7)"></path>
            <path d="M15.4985499,0 C25.5367396,0 30.9924816,2.93571874 30.9924816,4.44435199 C31.0025061,4.49129916 31.0025061,4.54011337 30.9924816,4.58706054 C30.6638224,6.13646765 25.1986901,8.90909091 15.4985499,8.90909091 C5.7984096,8.90909091 0.333277329,6.10588725 0.0046181718,4.58706054 C-0.0015393906,4.54998334 -0.0015393906,4.51200959 0.0046181718,4.47493239 C0.0046181718,2.93571874 5.46036018,0 15.4985499,0 Z" id="Path" fill="#999999"></path>
        </g>
        <g id="Group-Copy" transform="translate(126.000000, 296.000000)" fill-rule="nonzero">
            <path d="M30.8349397,5.01723136 C29.6754695,1.71577928 22.5518751,0 15.5076965,0 C8.46351793,0 1.41933933,1.69951597 0.196336512,4.96844143 C0.0718657643,5.16145065 0.00558287009,5.38768182 0.0057386694,5.61897386 L0.0057386694,35.6491772 C-0.0019128898,35.7139945 -0.0019128898,35.7795195 0.0057386694,35.8443369 C0.00189390686,35.9011904 0.00189390686,35.9582481 0.0057386694,36.0151016 C0.0057386694,39.9426912 7.80436706,42 15.5076965,42 C23.211026,42 30.9937712,39.9426912 30.9937712,36.0151016 C30.9976128,35.960962 30.9976128,35.9066082 30.9937712,35.8524685 C31.0020763,35.7849715 31.0020763,35.7166742 30.9937712,35.6491772 L30.9937712,5.61897386 C30.9978258,5.40700409 30.9427248,5.19825071 30.8349397,5.01723136 Z" id="Path" fill="url(#linearGradient-8)"></path>
            <path d="M15.4985499,0 C25.5367396,0 30.9924816,2.93571874 30.9924816,4.44435199 C31.0025061,4.49129916 31.0025061,4.54011337 30.9924816,4.58706054 C30.6638224,6.13646765 25.1986901,8.90909091 15.4985499,8.90909091 C5.7984096,8.90909091 0.333277329,6.10588725 0.0046181718,4.58706054 C-0.0015393906,4.54998334 -0.0015393906,4.51200959 0.0046181718,4.47493239 C0.0046181718,2.93571874 5.46036018,0 15.4985499,0 Z" id="Path" fill="#0055C2"></path>
        </g>
        <text id="A’s-Local-Repository" font-family="Helvetica" font-size="16" font-weight="normal" fill="#0055C2">
            <tspan x="139.769531" y="355">A’s Local </tspan>
            <tspan x="133.261719" y="374">Repository</tspan>
        </text>
        <text id="B’s-Local-Repository" font-family="Helvetica" font-size="16" font-weight="normal" fill="#363636">
            <tspan x="270.179688" y="355">B’s Local </tspan>
            <tspan x="264.261719" y="374">Repository</tspan>
        </text>
        <text id="A’s-Remote-Repositor" font-family="Helvetica" font-size="16" font-weight="normal" fill="#199ABD">
            <tspan x="151.882812" y="182">A’s Remote </tspan>
            <tspan x="154.261719" y="201">Repository</tspan>
        </text>
        <path id="Line-21" d="M140.5,209.185185 L145,218.185185 L141,218.185 L141,297.814815 L140,297.814815 L140,218.185 L136,218.185185 L140.5,209.185185 Z" fill="#0055C2" fill-rule="nonzero"></path>
        <path id="Path-12" d="M323.5,149.5 L323.5,285.5 L327.5,285.5 L323,294.5 L318.5,285.5 L322.5,285.5 L322.5,150.5 L157,150.5 L157,149.5 L323.5,149.5 Z" fill="#0055C2" fill-rule="nonzero"></path>
        <text id="Create-a-Remote-Repo" font-family="Helvetica-Bold, Helvetica" font-size="21" font-weight="bold" fill="#0055C2">
            <tspan x="485" y="153">Create a Remote </tspan>
            <tspan x="485" y="178">Repository</tspan>
            <tspan x="594.686035" y="178" font-family="Helvetica" font-weight="normal"></tspan>
            <tspan x="485" y="203" font-family="Helvetica" font-weight="normal"></tspan>
            <tspan x="485" y="228">Register the Remote </tspan>
            <tspan x="485" y="253">Repository URL in the </tspan>
            <tspan x="485" y="278">Local Repository </tspan>
            <tspan x="661.203125" y="278" font-family="Helvetica" font-weight="normal"></tspan>
            <tspan x="485" y="303" font-family="Helvetica" font-weight="normal">($ git remote add  [remote </tspan>
            <tspan x="485" y="328" font-family="Helvetica" font-weight="normal">repository URL])</tspan>
            <tspan x="485" y="353" font-family="Helvetica" font-weight="normal"></tspan>
            <tspan x="485" y="378">Push the Local </tspan>
            <tspan x="485" y="403">Repository to the Remote </tspan>
            <tspan x="485" y="428">Repository</tspan>
            <tspan x="594.686035" y="428" font-family="Helvetica" font-weight="normal"></tspan>
            <tspan x="485" y="453" font-family="Helvetica" font-weight="normal"></tspan>
            <tspan x="485" y="478">Give access to other </tspan>
            <tspan x="485" y="503">team members </tspan>
        </text>
        <g id="Group-2-Copy-4" transform="translate(446.000000, 133.000000)">
            <circle id="Oval" fill="#006AE1" cx="14" cy="15" r="14"></circle>
            <text id="1" font-family="Helvetica-Bold, Helvetica" font-size="24" font-weight="bold" fill="#FFFFFF">
                <tspan x="7.82617188" y="23">1</tspan>
            </text>
        </g>
        <g id="Group-2-Copy-6" transform="translate(446.000000, 357.000000)">
            <circle id="Oval" fill="#006AE1" cx="14" cy="15" r="14"></circle>
            <text id="3" font-family="Helvetica-Bold, Helvetica" font-size="24" font-weight="bold" fill="#FFFFFF">
                <tspan x="7.82617188" y="23">3</tspan>
            </text>
        </g>
        <g id="Group-2-Copy-7" transform="translate(446.000000, 458.000000)">
            <circle id="Oval" fill="#006AE1" cx="14" cy="15" r="14"></circle>
            <text id="4" font-family="Helvetica-Bold, Helvetica" font-size="24" font-weight="bold" fill="#FFFFFF">
                <tspan x="7.82617188" y="23">4</tspan>
            </text>
        </g>
        <g id="Group-2-Copy-5" transform="translate(446.000000, 208.000000)">
            <circle id="Oval" fill="#006AE1" cx="14" cy="15" r="14"></circle>
            <text id="2" font-family="Helvetica-Bold, Helvetica" font-size="24" font-weight="bold" fill="#FFFFFF">
                <tspan x="7.82617188" y="23">2</tspan>
            </text>
        </g>
        <g id="Group-2-Copy-10" transform="translate(172.000000, 111.000000)">
            <circle id="Oval" fill="#006AE1" cx="9.5" cy="12.5" r="9.5"></circle>
            <text id="4" font-family="Helvetica-Bold, Helvetica" font-size="18" font-weight="bold" fill="#FFFFFF">
                <tspan x="4.49462891" y="18">4</tspan>
            </text>
        </g>
        <g id="Group-2-Copy-11" transform="translate(145.000000, 258.000000)">
            <circle id="Oval" fill="#006AE1" cx="9.5" cy="12.5" r="9.5"></circle>
            <text id="3" font-family="Helvetica-Bold, Helvetica" font-size="18" font-weight="bold" fill="#FFFFFF">
                <tspan x="4.49462891" y="18">3</tspan>
            </text>
        </g>
        <g id="Group-2-Copy-12" transform="translate(145.000000, 226.000000)">
            <circle id="Oval" fill="#006AE1" cx="9.5" cy="12.5" r="9.5"></circle>
            <text id="2" font-family="Helvetica-Bold, Helvetica" font-size="18" font-weight="bold" fill="#FFFFFF">
                <tspan x="4.49462891" y="18">2</tspan>
            </text>
        </g>
        <g id="Group-2-Copy-13" transform="translate(126.000000, 171.000000)">
            <circle id="Oval" fill="#006AE1" cx="9.5" cy="12.5" r="9.5"></circle>
            <text id="1" font-family="Helvetica-Bold, Helvetica" font-size="18" font-weight="bold" fill="#FFFFFF">
                <tspan x="4.49462891" y="18">1</tspan>
            </text>
        </g>
        <text id="Developer-A-Copy" fill-rule="nonzero" font-family="Helvetica-Bold, Helvetica" font-size="18" font-weight="bold" fill="#0055C2">
            <tspan x="126" y="481">Developer A</tspan>
        </text>
        <g id="web-designer-copy" transform="translate(156.000000, 408.000000)" fill-rule="nonzero">
            <path d="M40.1,34 L27.9,29 L27.9,29 L27.5,30.8 L26.5,35 C26.4,35.4 25.9,35.5 25.7,35.2 L21.7,31.1 L21.7,31.1 L17.8,35.3 C17.5,35.6 17.1,35.5 17,35.1 L16,30.9 L15.5,29 L15.5,29 L3.3,34 C1.3,34.8 0,36.8 0,38.9 L0,46 C0,47.1 0.9,47.9 1.9,47.9 L41.5,47.9 C42.6,47.9 43.4,47 43.4,46 L43.4,38.9 C43.4,36.8 42.1,34.8 40.1,34 Z" id="Path" fill="#444445"></path>
            <path d="M27.9,23.9 L27.9,26.6 L21.7,31.1 L15.5,26.6 L15.5,23.9 C15.7,24.1 15.9,24.2 16,24.3 L19.2,26.5 C19.5,26.7 19.9,26.9 20.3,26.9 L23,26.9 C23.4,26.9 23.8,26.8 24.1,26.5 L27.3,24.3 C27.5,24.2 27.7,24 27.9,23.9 Z" id="Path" fill="#F7BA49"></path>
            <path d="M29.5,6.3 L23.3,4.3 L16.6,4.7 L14.1,7.3 L13,10 L13,18.5 C13,20.8 14.1,23 16,24.3 L19.1,26.5 C19.4,26.7 19.8,26.9 20.3,26.9 L23,26.9 C23.4,26.9 23.8,26.8 24.1,26.5 L27.3,24.3 C29.2,23 30.4,20.8 30.4,18.5 L30.4,9.4 L29.5,6.3 Z" id="Path" fill="#FFCB66"></path>
            <path d="M27.9,26.6 L27.9,29 L27.5,30.9 L26.5,35.1 C26.4,35.5 25.9,35.6 25.7,35.3 L21.7,31.1 L27.9,26.6 Z M21.7,31.1 L17.8,35.3 C17.5,35.6 17.1,35.5 17,35.1 L16,30.9 L15.5,29 L15.5,26.6 L21.7,31.1 Z" id="Shape" fill="#E5E5E4"></path>
            <path d="M28.9,4.1 C28.9,4.1 26.8,-0.7 21.5,0.5 C21.5,0.5 17.2,0.5 15.7,0 C15.7,0 15.7,1 16.5,1.9 C16.5,1.9 7,4 13.1,16.6 C13.1,16.6 11.7,5 19.8,6.7 C19.8,6.7 21.4,9.4 25.7,7.4 C25.7,7.4 30,6 30,10 L30.2,16.6 C30.3,16.6 36.6,7.3 28.9,4.1 Z" id="Path" fill="#EA715F"></path>
        </g>
        <text id="Developer-B-Copy" fill-rule="nonzero" font-family="Helvetica-Bold, Helvetica" font-size="18" font-weight="bold" fill="#999999">
            <tspan x="262.818991" y="481">Developer B</tspan>
        </text>
        <g id="avatar-copy" transform="translate(293.000000, 408.000000)" fill-rule="nonzero">
            <path d="M18.0092747,2.6318291 C18.0092747,0.942283281 19.595251,-0.315693769 21.2554251,0.0699634288 C27.0984957,1.44731056 28.6937467,6.72714125 28.5360766,12.6130047 C28.4340547,16.4053004 28.7122962,19.7752098 28.9812629,22.0248768 C29.1667572,23.5766879 27.9517695,24.9448527 26.3657932,24.954035 L20.671118,25 C19.1964383,25.0091289 18,23.8337927 18,22.3738047 L18,2.6318291 L18.0092747,2.6318291 Z" id="XMLID_283_" fill="url(#linearGradient-9)"></path>
            <g id="XMLID_161_">
                <g id="XMLID_167_">
                    <path d="M18,2.91103884 C18,1.22135068 16.4375635,-0.0367323513 14.8020305,0.348957337 C9.04568528,1.72642051 7.47411168,7.006696 7.62944162,12.8930553 C7.72994924,16.6856706 7.45583756,20.0558638 7.19086294,22.3057203 C7.00812183,23.8576621 8.20507614,25.2259422 9.76751269,25.2351253 L15.377665,25.2810942 C16.8304569,25.2902238 18.0091371,24.1147886 18.0091371,22.6546776 L18.0091371,2.91103884 L18,2.91103884 Z" id="XMLID_284_" fill="url(#linearGradient-10)"></path>
                    <path d="M10.9553299,15.1796442 C10.9553299,15.1796442 10.5715736,14.114406 9.84974619,14.0225751 C9.23756345,13.9399273 8.47918782,14.7204898 8.61624365,15.785728 C8.75329949,16.8509661 9.05482234,18.6416683 9.05482234,18.6416683 C9.05482234,18.6416683 9.34720812,19.8997513 10.3979695,19.550794 C11.4304569,19.2018366 10.9553299,15.1796442 10.9553299,15.1796442 Z" id="XMLID_791_" fill="url(#linearGradient-11)"></path>
                    <path d="M25.1269036,15.1520949 C25.1269036,15.1520949 25.528934,14.0960398 26.2507614,14.013392 C26.8720812,13.9399273 27.6121827,14.7296729 27.4568528,15.794911 C27.3015228,16.8601492 26.9817259,18.6416683 26.9817259,18.6416683 C26.9817259,18.6416683 26.671066,19.8997513 25.6203046,19.5232447 C24.5786802,19.1651043 25.1269036,15.1520949 25.1269036,15.1520949 L25.1269036,15.1520949 Z" id="XMLID_759_" fill="url(#linearGradient-12)"></path>
                    <g id="XMLID_272_" transform="translate(0.000000, 4.233403)">
                        <g id="XMLID_276_">
                            <path d="M30.8192893,28.7063325 C27.0182741,27.9992347 24.3411168,26.6125885 22.1299492,23.6097188 L13.8609137,23.6097188 C11.6497462,26.6125885 8.98172589,27.9992347 5.1715736,28.7063325 C0.603045685,29.5603597 0,35.0518462 0,36.5854218 L0,43.7665965 L36,43.7665965 L36,36.5854218 C36,35.0518462 35.3969543,29.5603597 30.8192893,28.7063325 L30.8192893,28.7063325 Z" id="XMLID_282_" stroke="url(#linearGradient-14)" fill="url(#linearGradient-13)"></path>
                            <path d="M18.0730964,19.1100057 L13.4040609,19.1100057 L13.4040609,28.026784 C13.4040609,28.9267266 14.884264,28.9450928 18.0730964,28.9450928 C21.2619289,28.9450928 22.742132,28.9359097 22.742132,28.026784 L22.742132,19.1100057 L18.0730964,19.1100057 L18.0730964,19.1100057 Z" id="XMLID_281_" fill="url(#linearGradient-15)"></path>
                            <path d="M25.9035533,10.9095083 C25.8761421,4.85785345 24.7888325,0 18,0 C11.2111675,0 10.1238579,4.85785345 10.0964467,10.9095083 C10.0142132,10.5330017 10.315736,13.6368854 10.3431472,13.5358714 C11.4121827,18.6600344 15.7248731,22.3516357 18,22.3516357 C20.2751269,22.3516357 24.5878173,18.6692175 25.6568528,13.5450545 C25.684264,13.4807729 25.9857868,10.5330017 25.9035533,10.9095083 Z" id="XMLID_280_" fill="url(#linearGradient-16)"></path>
                        </g>
                        <path d="M18.6304569,17.0713602 C18.2832487,17.0713602 18.2467005,17.2917544 18,17.2917544 C17.7532995,17.2917544 17.7167513,17.0621772 17.3695431,17.0713602 C16.857868,17.0713602 15.4507614,17.7692749 15.4507614,17.7692749 C15.4507614,17.7692749 15.5969543,17.8427396 15.9258883,17.9713029 C16.7025381,18.2743447 16.7847716,18.7794146 18,18.7794146 C19.2152284,18.7794146 19.2974619,18.2743447 20.0741117,17.9713029 C20.4030457,17.8427396 20.5492386,17.7692749 20.5492386,17.7692749 C20.5492386,17.7692749 19.142132,17.0713602 18.6304569,17.0713602 L18.6304569,17.0713602 Z" id="XMLID_275_" fill="url(#linearGradient-17)"></path>
                        <ellipse id="XMLID_274_" fill="url(#linearGradient-18)" cx="25.9857868" cy="14.6837574" rx="1" ry="1"></ellipse>
                        <ellipse id="XMLID_273_" fill="url(#linearGradient-19)" cx="10.1055838" cy="14.8031376" rx="1" ry="1"></ellipse>
                    </g>
                    <g id="XMLID_172_" transform="translate(16.081218, 37.669026)">
                        <ellipse id="XMLID_260_" fill="url(#linearGradient-20)" cx="0.5" cy="0.495886742" rx="1" ry="1"></ellipse>
                        <ellipse id="XMLID_220_" fill="url(#linearGradient-21)" cx="0.5" cy="3.46202411" rx="1" ry="1"></ellipse>
                        <ellipse id="XMLID_210_" fill="url(#linearGradient-22)" cx="0.5" cy="6.42816147" rx="1" ry="1"></ellipse>
                    </g>
                    <path d="M26.2324873,5.48230342 C25.3918782,1.94681462 22.4406091,0 18,0 C13.5593909,0 10.6081218,1.94681462 9.76751269,5.48230342 C8.54314721,10.5972833 10.2426396,16.1806007 10.4071066,16.6397551 C10.4071066,16.6397551 9.94111675,14.1878707 10.8822335,12.0849436 C10.6903553,13.4073082 10.7360406,14.3990817 10.7360406,14.3990817 C10.7360406,14.3990817 14.8477157,13.2971112 18,11.295198 C19.3705584,10.4228047 20.5492386,9.38511575 21.1431472,8.19131433 C21.3350254,7.79644155 21.8284264,7.65869524 22.1939086,7.89745552 C23.1898477,8.54027167 24.057868,9.50449589 24.8345178,10.9095083 C26.1411168,13.278745 25.4101523,16.8142338 25.4101523,16.8142338 C25.5654822,16.3550794 27.4568528,10.5972833 26.2324873,5.48230342 L26.2324873,5.48230342 Z" id="XMLID_171_" fill="#000000"></path>
                </g>
                <g id="XMLID_163_" transform="translate(11.530964, 28.908360)">
                    <polygon id="XMLID_166_" fill="url(#linearGradient-23)" points="11.1380711 0 6.40507614 4.31605127 7.65685279 7.3097379 12.9015228 1.64377272"></polygon>
                    <polygon id="XMLID_165_" fill="url(#linearGradient-24)" points="0 1.68968816 5.19898477 7.27300555 6.32284264 4.21503731 1.78172589 0.0367323513"></polygon>
                </g>
            </g>
        </g>
        <rect id="Rectangle" fill-opacity="0.7" fill="#FFFFFF" x="286" y="404" width="49" height="59"></rect>
        <g id="git" transform="translate(661.000000, 9.000000)">
            <path d="M46.8658496,11.2380575 C45.1623498,11.2380575 43.8939053,12.0891281 43.8939053,14.1376499 C43.8939053,15.6808485 44.7297841,16.7522856 46.7743573,16.7522856 C48.5071097,16.7522856 49.6846843,15.7131436 49.6846843,14.073693 C49.6846843,12.2157755 48.6309666,11.2380575 46.8658496,11.2380575 L46.8658496,11.2380575 Z M43.4607172,25.7011913 C43.0574041,26.2046147 42.6553359,26.7397 42.6553359,27.3710373 C42.6553359,28.6305458 44.2337339,29.0092215 46.4027864,29.0092215 C48.1984009,29.0092215 50.6450424,28.8813076 50.6450424,27.1823327 C50.6450424,26.1723196 49.4674678,26.1102624 47.9805621,26.0152768 L43.4607172,25.7011913 Z M52.6255087,11.3330431 C53.1825537,12.0580995 53.7719634,13.0662128 53.7719634,14.5156924 C53.7719634,18.0124273 51.0776081,20.0603158 47.1764255,20.0603158 C46.1843252,20.0603158 45.2862067,19.9349349 44.7291617,19.7772589 L43.7071863,21.4471049 L46.7413702,21.6351763 C52.0989611,21.9828234 55.257002,22.1404995 55.257002,26.3293624 C55.257002,29.9533779 52.1300809,32 46.7413702,32 C41.1360655,32 39,30.5505204 39,28.0625322 C39,26.6440812 39.6199071,25.8898959 40.7034998,24.848221 C39.680902,24.4087545 39.3410734,23.6216409 39.3410734,22.7705703 C39.3410734,22.0771758 39.6815244,21.4471049 40.2391918,20.8480627 C40.7968593,20.2502869 41.416144,19.6506115 42.1586633,18.9578502 C40.6412601,18.2017651 39.4960502,16.563581 39.4960502,14.231369 C39.4960502,10.6086199 41.8493321,8.12063165 46.5870158,8.12063165 C47.9189448,8.12063165 48.7249485,8.24537935 49.436348,8.43598369 L55.4754632,8.43598369 L55.4754632,11.1133099 L52.6255087,11.3330431 L52.6255087,11.3330431 Z M60.9233016,5.60858036 C59.1575621,5.60858036 58.1355867,4.56817192 58.1355867,2.77167847 C58.1355867,0.977717972 59.1575621,0 60.9233016,0 C62.7195385,0 63.7408917,0.977084735 63.7408917,2.77167847 C63.7415139,4.56817192 62.7195385,5.60858036 60.9233016,5.60858036 Z M56.9275147,24.5423675 L56.9275147,22.0543792 L58.50778,21.8340127 C58.9409681,21.770689 59.0025853,21.6763367 59.0025853,21.2026754 L59.0025853,11.9403174 C59.0025853,11.59457 58.9104706,11.372937 58.5998947,11.279218 L56.9275147,10.6801757 L57.2679657,8.12949697 L63.6792742,8.12949697 L63.6792742,21.2033087 C63.6792742,21.7086318 63.7091492,21.770689 64.174702,21.834646 L65.7543448,22.0550125 L65.7543448,24.5430008 L56.9275147,24.5430008 L56.9275147,24.5423675 Z M78,23.32022 C76.6674487,23.9806863 74.7174798,24.5803617 72.9511179,24.5803617 C69.2665294,24.5803617 67.8736056,23.0694582 67.8736056,19.5074999 L67.8736056,11.2532552 C67.8736056,11.0651838 67.8736056,10.9385364 67.6252693,10.9385364 L65.458084,10.9385364 L65.458084,8.13456287 C68.1841815,7.81857759 69.2671518,6.43242174 69.6076028,2.99837733 L72.5502944,2.99837733 L72.5502944,7.47346341 C72.5502944,7.69319666 72.5502944,7.78881545 72.7980083,7.78881545 L77.1641212,7.78881545 L77.1641212,10.9391697 L72.5502944,10.9391697 L72.5502944,18.4683579 C72.5502944,20.3269086 72.9841049,21.0513318 74.6558625,21.0513318 C75.5241059,21.0513318 76.4209796,20.8315985 77.1641212,20.5479083 L78,23.32022 L78,23.32022 Z" id="Shape" fill="#31251C" fill-rule="nonzero"></path>
            <path d="M32.3772539,15.0299695 L17.9690664,0.622277028 C17.140005,-0.207425676 15.7941261,-0.207425676 14.9644314,0.622277028 L11.9724635,3.61427365 L15.7668919,7.40937182 C16.6497884,7.11169223 17.6606226,7.31120089 18.3636464,8.01486479 C19.0704703,8.72232885 19.2687104,9.74203981 18.9634334,10.6274783 L22.6210571,14.2851371 C23.5052204,13.9804906 24.5268216,14.1774658 25.2336455,14.8849299 C26.221679,15.8723394 26.221679,17.4728423 25.2336455,18.4608852 C24.2449787,19.4489281 22.6451246,19.4489281 21.6570912,18.4608852 C20.914166,17.7173195 20.7304932,16.6260388 21.1067059,15.7108324 L17.6954571,12.2995509 L17.6948238,21.2768075 C17.9361319,21.3958793 18.1628729,21.5542195 18.3636464,21.7543616 C19.3516798,22.7417711 19.3516798,24.3416406 18.3636464,25.3309502 C17.375613,26.3183598 15.7744921,26.3183598 14.7877254,25.3309502 C13.799692,24.3416406 13.799692,22.7417711 14.7877254,21.7543616 C15.0322003,21.5105176 15.3140432,21.3262096 15.6155201,21.2027043 L15.6155201,12.1424774 C15.3140432,12.0196054 15.0322003,11.8359308 14.7877254,11.5908201 C14.0391001,10.842821 13.8592273,9.74520661 14.2430403,8.82620003 L10.5024471,5.08430417 L0.622746073,14.9634666 C-0.207582024,15.7938027 -0.207582024,17.1396945 0.622746073,17.9700305 L15.0309336,32.377723 C15.8606284,33.2074257 17.2058739,33.2074257 18.0368353,32.377723 L32.3772539,18.0359 C33.207582,17.2061973 33.207582,15.8596722 32.3772539,15.0299695 L32.3772539,15.0299695 Z" id="Path" fill="#F34F29" fill-rule="nonzero"></path>
            <polygon id="Path" points="1.12409637e-15 0 79 0 79 33 0 33"></polygon>
        </g>
        <g id="github-copy" transform="translate(748.000000, 3.000000)" fill="#000000" fill-rule="nonzero">
            <path d="M22.9998956,0 C11.7204239,0.000469179946 2.10590223,8.20619911 0.299077857,19.3745239 C-1.50774651,30.5428487 5.02642435,41.3773525 15.7268887,44.9558377 C16.8767785,45.1577383 17.3079872,44.4656891 17.3079872,43.8600567 C17.3079872,43.3121892 17.279217,41.4954764 17.279217,39.5634644 C11.5009978,40.6303861 10.0061411,38.1505528 9.54618516,36.8529173 C9.03580825,35.5908656 8.22674528,34.472458 7.1889111,33.5943411 C6.38398825,33.161796 5.23409847,32.0948512 7.16014086,32.066061 C8.65271236,32.2285228 9.97246422,33.1110528 10.6960749,34.4305721 C11.3313462,35.5753322 12.3946869,36.4194146 13.6513665,36.7764896 C14.9080461,37.1335647 16.2547288,36.9742705 17.3941369,36.3337708 C17.4936968,35.160991 18.0147545,34.0644705 18.8602924,33.2483742 C13.7432829,32.6716473 8.39629538,30.6818473 8.39629538,21.8580182 C8.36397821,19.5652878 9.20739391,17.3470389 10.7535694,15.6582042 C10.0504849,13.6655423 10.1327507,11.4787423 10.9835474,9.54489918 C10.9835474,9.54489918 12.9095438,8.93931288 17.3079412,11.9094794 C21.0710431,10.8713094 25.0437372,10.8713094 28.806839,11.9094794 C33.2051215,8.9104996 35.1312329,9.54489918 35.1312329,9.54489918 C35.982145,11.4787155 36.0644125,13.6655602 35.3612108,15.6582042 C36.9120423,17.3441484 37.7561944,19.564334 37.7184849,21.8580182 C37.7184849,30.7107067 32.3427041,32.6716473 27.2257406,33.2483742 C28.336287,34.3774629 28.9028084,35.9349635 28.7780918,37.5161532 C28.7780918,40.6016882 28.7493216,43.0815215 28.7493216,43.8601489 C28.7493216,44.4657352 29.1805302,45.1866208 30.33042,44.95593 C41.0111617,41.3485442 47.5153422,30.5121007 45.6961446,19.3555019 C43.876947,8.19890308 34.2698179,0.00588375885 22.9998956,0 Z" id="Path"></path>
        </g>
        <g id="trial-copy" transform="translate(4.000000, 570.000000)" fill="#006AE1" fill-rule="nonzero">
            <path d="M24.7390408,0.0712262435 C23.8197062,-0.175854327 23.1591603,0.239201967 22.6859188,1.01735927 C22.6046689,1.15134921 22.52713,1.31717641 22.4478332,1.49316028 C22.1428011,1.2575123 21.7678493,1.130415 21.3824051,1.13201247 C21.3529129,1.13201247 21.3224442,1.13259843 21.2931474,1.134161 L15.1740157,1.4288998 C14.9503832,1.43964243 14.7687429,1.47870655 14.6234306,1.53906062 C14.2647714,1.59678794 13.9347315,1.76994119 13.6833929,2.03224516 L0.468959043,15.8746167 C-0.17420408,16.5457384 -0.153305673,17.6121889 0.516224599,18.2565516 L7.02930103,24.5302495 C7.34177077,24.8320424 7.7593469,25.0004949 8.19375245,25 C8.63515806,25 9.07597773,24.8259649 9.40566475,24.4831773 L22.6199033,10.6400244 C23.0124808,10.2306324 23.3675584,9.67455464 23.2691211,9.15636906 C23.2718554,9.11457045 23.2687304,9.07296716 23.2691211,9.02804342 L23.1146291,2.88735879 C23.1183122,2.59624806 23.0497989,2.30876172 22.9152153,2.0506053 C23.3099413,1.28006549 23.6851361,0.550347698 24.542752,0.780630696 C25.0023217,0.904854604 25.1966573,0.194082907 24.7390408,0.0712262435 Z M8.52812889,13.4245632 L9.32781975,14.170287 L8.29716074,16.7269943 L10.7727157,15.5176743 L11.5754357,16.2662228 L7.51909394,18.1808206 L6.90418013,17.6074042 L8.52812889,13.4245632 Z M10.8555796,8.86713434 L14.7160332,15.2007265 L13.8468014,16.1328635 L9.99486962,9.79013275 L10.8555796,8.86713434 Z M17.1802579,6.51873344 L17.7982008,7.09497455 L16.1742521,11.2778156 L15.3745612,10.5320918 L16.4052202,7.97538454 L13.9296652,9.1847045 L13.1269453,8.43615601 L17.1802579,6.51873344 Z M21.1763507,2.2398705 C21.4058425,2.2398705 21.6355297,2.32542139 21.8136544,2.49691289 C21.8259591,2.50882745 21.8343575,2.52289053 21.8460763,2.53539105 C21.6548656,2.73520403 21.419905,2.85845134 21.1132648,2.82387959 C20.6425624,2.7709477 20.6474452,3.50808768 21.1132648,3.56062893 C21.5214674,3.60652927 21.8320138,3.4873837 22.0857244,3.27643744 C22.062433,3.47297911 21.9760108,3.65665988 21.8394357,3.79989667 C21.6663502,3.98098016 21.4266486,4.08326003 21.1761554,4.0829171 C20.9384391,4.08306483 20.7099506,3.99090921 20.5388516,3.82587432 C20.1727885,3.47281343 20.1612599,2.89015669 20.5130704,2.52289053 C20.686209,2.34188379 20.9258761,2.23961864 21.1763507,2.2398705 Z" id="Shape"></path>
        </g>
    </g>
</svg>