<?xml version="1.0" encoding="UTF-8"?>
<svg width="800px" height="600px" viewBox="0 0 800 600" version="1.1" xmlns="http://www.w3.org/2000/svg" xmlns:xlink="http://www.w3.org/1999/xlink">
    <title>2041-10-18-11-10_GitKeyCommandsandGitHubKeyFeatures</title>
    <defs>
        <path d="M1.30671832,14.2592593 L14.1385563,14.2592593 C14.8479905,14.2592593 15.5395827,14.1398555 16.1997388,13.8829053 C16.8301582,13.636925 17.394307,13.2782918 17.8832644,12.8129123 C18.3875149,12.3327657 18.7664463,11.7619059 19.0323779,11.1201632 C19.3208245,10.4231489 19.4444444,9.68816165 19.4444444,8.93671945 L19.4444444,5.31114793 C19.4444444,4.56139341 19.3212493,3.82303078 19.0323779,3.12812605 C18.7651718,2.48511768 18.3875149,1.91341404 17.8828396,1.43115775 C17.3955815,0.965356409 16.8318574,0.610520421 16.2005884,0.370025162 C15.5391579,0.118138022 14.8458665,0 14.1385563,0 L7.92102401,0 C7.74685154,0 7.57310389,0.0337537206 7.41422461,0.0957761821 C7.25959344,0.161174016 7.11643217,0.251043297 6.99748512,0.369181319 C6.87726364,0.488163184 6.78210599,0.62697536 6.71413625,0.78097671 C6.64531688,0.938353432 6.61430569,1.10712204 6.61430569,1.27842217 L6.61430569,6.30477308 C6.61430569,7.01950812 7.20309359,7.60429133 7.92272326,7.60429133 C8.64235292,7.60429133 9.23114082,7.01993004 9.23114082,6.30477308 L9.23114082,2.61000644 L14.1385563,2.61000644 C14.8114568,2.61000644 15.473737,2.76400779 15.9877582,3.21461996 C16.596937,3.74792875 16.8055191,4.50274633 16.8055191,5.28878609 L16.8055191,8.95950321 C16.8055191,9.74554297 16.5939633,10.4931879 15.9886078,11.0290282 C15.4703385,11.4880788 14.8237763,11.6606447 14.1385563,11.6606447 L9.58288425,11.6606447 L2.98387175,5.106516 L2.44903483,5.63771518 L7.57182945,10.7256666 L1.29779729,7.12794194 L0.919715595,7.77854491 L7.19374775,11.3762696 L0.195837824,9.51390807 L0,10.2396131 L5.33944818,11.6606447 L0,11.6606447 L0,12.9808371 C0,13.1529811 0.0322856283,13.3209058 0.0989809393,13.4761729 C0.169499548,13.6305962 0.264232379,13.7706742 0.384029052,13.8913437 C0.501701671,14.0099036 0.645712566,14.0985072 0.796095624,14.1617954 C0.958798198,14.2259275 1.13127142,14.2592593 1.30671832,14.2592593" id="path-1"></path>
        <linearGradient x1="83.3129424%" y1="75.4694967%" x2="34.0164293%" y2="27.932589%" id="linearGradient-3">
            <stop stop-color="#2190EB" offset="0%"></stop>
            <stop stop-color="#16D2DF" offset="100%"></stop>
        </linearGradient>
    </defs>
    <g id="2041-10-18-11-10_GitKeyCommandsandGitHubKeyFeatures" stroke="none" stroke-width="1" fill="none" fill-rule="evenodd">
        <rect fill="#FFFFFF" x="0" y="0" width="800" height="600"></rect>
        <rect id="Rectangle-Copy-5" fill-opacity="0.5" fill="#C5DDFF" x="28" y="65" width="367" height="36.4189189"></rect>
        <path d="M409,322 L766,322 C768.761424,322 771,324.238576 771,327 L771,481 L771,481 L404,481 L404,327 C404,324.238576 406.238576,322 409,322 Z" id="Rectangle-Copy-9" fill-opacity="0.5" fill="#C5DDFF"></path>
        <path d="M33,121 L390,121 C392.761424,121 395,123.238576 395,126 L395,194 L395,194 L28,194 L28,126 C28,123.238576 30.2385763,121 33,121 Z" id="Rectangle-Copy-7" fill-opacity="0.5" fill="#C5DDFF"></path>
        <rect id="Rectangle-Copy-8" fill-opacity="0.5" fill="#C5DDFF" x="28" y="252" width="367" height="313" rx="5"></rect>
        <rect id="Rectangle-Copy-11" fill-opacity="0.5" fill="#C5DDFF" x="404" y="65" width="367" height="232" rx="5"></rect>
        <path d="M404,481 L771,481 L771,560 C771,562.761424 768.761424,565 766,565 L409,565 C406.238576,565 404,562.761424 404,560 L404,481 L404,481 Z" id="Rectangle-Copy-10" fill-opacity="0.5" fill="#A1E0E9"></path>
        <text id="Git-Key-Commands-and" fill-rule="nonzero" font-family="Helvetica" font-size="18" font-weight="normal" fill="#0055C2">
            <tspan x="10" y="23">Git Key Commands and GitHub Key Features</tspan>
        </text>
        <g id="git" transform="translate(661.000000, 9.000000)">
            <path d="M46.8658496,11.2380575 C45.1623498,11.2380575 43.8939053,12.0891281 43.8939053,14.1376499 C43.8939053,15.6808485 44.7297841,16.7522856 46.7743573,16.7522856 C48.5071097,16.7522856 49.6846843,15.7131436 49.6846843,14.073693 C49.6846843,12.2157755 48.6309666,11.2380575 46.8658496,11.2380575 L46.8658496,11.2380575 Z M43.4607172,25.7011913 C43.0574041,26.2046147 42.6553359,26.7397 42.6553359,27.3710373 C42.6553359,28.6305458 44.2337339,29.0092215 46.4027864,29.0092215 C48.1984009,29.0092215 50.6450424,28.8813076 50.6450424,27.1823327 C50.6450424,26.1723196 49.4674678,26.1102624 47.9805621,26.0152768 L43.4607172,25.7011913 Z M52.6255087,11.3330431 C53.1825537,12.0580995 53.7719634,13.0662128 53.7719634,14.5156924 C53.7719634,18.0124273 51.0776081,20.0603158 47.1764255,20.0603158 C46.1843252,20.0603158 45.2862067,19.9349349 44.7291617,19.7772589 L43.7071863,21.4471049 L46.7413702,21.6351763 C52.0989611,21.9828234 55.257002,22.1404995 55.257002,26.3293624 C55.257002,29.9533779 52.1300809,32 46.7413702,32 C41.1360655,32 39,30.5505204 39,28.0625322 C39,26.6440812 39.6199071,25.8898959 40.7034998,24.848221 C39.680902,24.4087545 39.3410734,23.6216409 39.3410734,22.7705703 C39.3410734,22.0771758 39.6815244,21.4471049 40.2391918,20.8480627 C40.7968593,20.2502869 41.416144,19.6506115 42.1586633,18.9578502 C40.6412601,18.2017651 39.4960502,16.563581 39.4960502,14.231369 C39.4960502,10.6086199 41.8493321,8.12063165 46.5870158,8.12063165 C47.9189448,8.12063165 48.7249485,8.24537935 49.436348,8.43598369 L55.4754632,8.43598369 L55.4754632,11.1133099 L52.6255087,11.3330431 L52.6255087,11.3330431 Z M60.9233016,5.60858036 C59.1575621,5.60858036 58.1355867,4.56817192 58.1355867,2.77167847 C58.1355867,0.977717972 59.1575621,0 60.9233016,0 C62.7195385,0 63.7408917,0.977084735 63.7408917,2.77167847 C63.7415139,4.56817192 62.7195385,5.60858036 60.9233016,5.60858036 Z M56.9275147,24.5423675 L56.9275147,22.0543792 L58.50778,21.8340127 C58.9409681,21.770689 59.0025853,21.6763367 59.0025853,21.2026754 L59.0025853,11.9403174 C59.0025853,11.59457 58.9104706,11.372937 58.5998947,11.279218 L56.9275147,10.6801757 L57.2679657,8.12949697 L63.6792742,8.12949697 L63.6792742,21.2033087 C63.6792742,21.7086318 63.7091492,21.770689 64.174702,21.834646 L65.7543448,22.0550125 L65.7543448,24.5430008 L56.9275147,24.5430008 L56.9275147,24.5423675 Z M78,23.32022 C76.6674487,23.9806863 74.7174798,24.5803617 72.9511179,24.5803617 C69.2665294,24.5803617 67.8736056,23.0694582 67.8736056,19.5074999 L67.8736056,11.2532552 C67.8736056,11.0651838 67.8736056,10.9385364 67.6252693,10.9385364 L65.458084,10.9385364 L65.458084,8.13456287 C68.1841815,7.81857759 69.2671518,6.43242174 69.6076028,2.99837733 L72.5502944,2.99837733 L72.5502944,7.47346341 C72.5502944,7.69319666 72.5502944,7.78881545 72.7980083,7.78881545 L77.1641212,7.78881545 L77.1641212,10.9391697 L72.5502944,10.9391697 L72.5502944,18.4683579 C72.5502944,20.3269086 72.9841049,21.0513318 74.6558625,21.0513318 C75.5241059,21.0513318 76.4209796,20.8315985 77.1641212,20.5479083 L78,23.32022 L78,23.32022 Z" id="Shape" fill="#31251C" fill-rule="nonzero"></path>
            <path d="M32.3772539,15.0299695 L17.9690664,0.622277028 C17.140005,-0.207425676 15.7941261,-0.207425676 14.9644314,0.622277028 L11.9724635,3.61427365 L15.7668919,7.40937182 C16.6497884,7.11169223 17.6606226,7.31120089 18.3636464,8.01486479 C19.0704703,8.72232885 19.2687104,9.74203981 18.9634334,10.6274783 L22.6210571,14.2851371 C23.5052204,13.9804906 24.5268216,14.1774658 25.2336455,14.8849299 C26.221679,15.8723394 26.221679,17.4728423 25.2336455,18.4608852 C24.2449787,19.4489281 22.6451246,19.4489281 21.6570912,18.4608852 C20.914166,17.7173195 20.7304932,16.6260388 21.1067059,15.7108324 L17.6954571,12.2995509 L17.6948238,21.2768075 C17.9361319,21.3958793 18.1628729,21.5542195 18.3636464,21.7543616 C19.3516798,22.7417711 19.3516798,24.3416406 18.3636464,25.3309502 C17.375613,26.3183598 15.7744921,26.3183598 14.7877254,25.3309502 C13.799692,24.3416406 13.799692,22.7417711 14.7877254,21.7543616 C15.0322003,21.5105176 15.3140432,21.3262096 15.6155201,21.2027043 L15.6155201,12.1424774 C15.3140432,12.0196054 15.0322003,11.8359308 14.7877254,11.5908201 C14.0391001,10.842821 13.8592273,9.74520661 14.2430403,8.82620003 L10.5024471,5.08430417 L0.622746073,14.9634666 C-0.207582024,15.7938027 -0.207582024,17.1396945 0.622746073,17.9700305 L15.0309336,32.377723 C15.8606284,33.2074257 17.2058739,33.2074257 18.0368353,32.377723 L32.3772539,18.0359 C33.207582,17.2061973 33.207582,15.8596722 32.3772539,15.0299695 L32.3772539,15.0299695 Z" id="Path" fill="#F34F29" fill-rule="nonzero"></path>
            <polygon id="Path" points="1.12409637e-15 0 79 0 79 33 0 33"></polygon>
        </g>
        <g id="github-copy" transform="translate(748.000000, 3.000000)" fill="#000000" fill-rule="nonzero">
            <path d="M22.9998956,0 C11.7204239,0.000469179946 2.10590223,8.20619911 0.299077857,19.3745239 C-1.50774651,30.5428487 5.02642435,41.3773525 15.7268887,44.9558377 C16.8767785,45.1577383 17.3079872,44.4656891 17.3079872,43.8600567 C17.3079872,43.3121892 17.279217,41.4954764 17.279217,39.5634644 C11.5009978,40.6303861 10.0061411,38.1505528 9.54618516,36.8529173 C9.03580825,35.5908656 8.22674528,34.472458 7.1889111,33.5943411 C6.38398825,33.161796 5.23409847,32.0948512 7.16014086,32.066061 C8.65271236,32.2285228 9.97246422,33.1110528 10.6960749,34.4305721 C11.3313462,35.5753322 12.3946869,36.4194146 13.6513665,36.7764896 C14.9080461,37.1335647 16.2547288,36.9742705 17.3941369,36.3337708 C17.4936968,35.160991 18.0147545,34.0644705 18.8602924,33.2483742 C13.7432829,32.6716473 8.39629538,30.6818473 8.39629538,21.8580182 C8.36397821,19.5652878 9.20739391,17.3470389 10.7535694,15.6582042 C10.0504849,13.6655423 10.1327507,11.4787423 10.9835474,9.54489918 C10.9835474,9.54489918 12.9095438,8.93931288 17.3079412,11.9094794 C21.0710431,10.8713094 25.0437372,10.8713094 28.806839,11.9094794 C33.2051215,8.9104996 35.1312329,9.54489918 35.1312329,9.54489918 C35.982145,11.4787155 36.0644125,13.6655602 35.3612108,15.6582042 C36.9120423,17.3441484 37.7561944,19.564334 37.7184849,21.8580182 C37.7184849,30.7107067 32.3427041,32.6716473 27.2257406,33.2483742 C28.336287,34.3774629 28.9028084,35.9349635 28.7780918,37.5161532 C28.7780918,40.6016882 28.7493216,43.0815215 28.7493216,43.8601489 C28.7493216,44.4657352 29.1805302,45.1866208 30.33042,44.95593 C41.0111617,41.3485442 47.5153422,30.5121007 45.6961446,19.3555019 C43.876947,8.19890308 34.2698179,0.00588375885 22.9998956,0 Z" id="Path"></path>
        </g>
        <text id="Initial-Settings" font-family="Helvetica-Bold, Helvetica" font-size="16" font-weight="bold" fill="#0055C2">
            <tspan x="38" y="57">Initial Settings</tspan>
        </text>
        <text id="Work-with-Branches" font-family="Helvetica-Bold, Helvetica" font-size="16" font-weight="bold" fill="#0055C2">
            <tspan x="414" y="57">Work with Branches</tspan>
        </text>
        <text id="Launch-Project" font-family="Helvetica-Bold, Helvetica" font-size="16" font-weight="bold" fill="#0055C2">
            <tspan x="38" y="117">Launch Project</tspan>
        </text>
        <text id="Remote-Collaboration" font-family="Helvetica-Bold, Helvetica" font-size="16" font-weight="bold" fill="#0055C2">
            <tspan x="414" y="316">Remote Collaboration</tspan>
        </text>
        <text id="Edit-&amp;-Commit" font-family="Helvetica-Bold, Helvetica" font-size="16" font-weight="bold" fill="#0055C2">
            <tspan x="38" y="249">Edit &amp; Commit</tspan>
        </text>
        <text id="$-git-config" font-family="Helvetica" font-size="16" font-weight="normal" fill="#0055C2">
            <tspan x="38" y="80">$ git config</tspan>
        </text>
        <text id="Pull-Request" font-family="Helvetica-Bold, Helvetica" font-size="16" font-weight="bold" fill="#199ABD">
            <tspan x="411" y="500">Pull Request</tspan>
        </text>
        <text id="Merge" font-family="Helvetica-Bold, Helvetica" font-size="16" font-weight="bold" fill="#199ABD">
            <tspan x="411" y="542">Merge</tspan>
        </text>
        <text id="$-git-add-[file-path" font-family="Helvetica" font-size="16" font-weight="normal" fill="#0055C2">
            <tspan x="38" y="270">$ git add [file path]</tspan>
        </text>
        <text id="$-git-commit" font-family="Helvetica" font-size="16" font-weight="normal" fill="#0055C2">
            <tspan x="38" y="345">$ git commit</tspan>
        </text>
        <text id="$-git-status" font-family="Helvetica" font-size="16" font-weight="normal" fill="#0055C2">
            <tspan x="38" y="311">$ git status</tspan>
        </text>
        <text id="$-git-log" font-family="Helvetica" font-size="16" font-weight="normal" fill="#0055C2">
            <tspan x="38" y="385">$ git log</tspan>
        </text>
        <text id="$-git-diff" font-family="Helvetica" font-size="16" font-weight="normal" fill="#0055C2">
            <tspan x="38" y="422">$ git diff</tspan>
        </text>
        <text id="$-git-rm-[file-path]" font-family="Helvetica" font-size="16" font-weight="normal" fill="#0055C2">
            <tspan x="38" y="499">$ git rm [file path]</tspan>
        </text>
        <text id="$-git-reset-[commit]" font-family="Helvetica" font-size="16" font-weight="normal" fill="#0055C2">
            <tspan x="38" y="537">$ git reset [commit]</tspan>
        </text>
        <text id="$-git-restore-[file" font-family="Helvetica" font-size="16" font-weight="normal" fill="#0055C2">
            <tspan x="38" y="459">$ git restore [file </tspan>
            <tspan x="38" y="478">path]</tspan>
        </text>
        <text id="$-git-init" font-family="Helvetica" font-size="16" font-weight="normal" fill="#0055C2">
            <tspan x="38" y="136">$ git init</tspan>
        </text>
        <text id="$-git-clone-[URL]" font-family="Helvetica" font-size="16" font-weight="normal" fill="#0055C2">
            <tspan x="38" y="173">$ git clone [URL]</tspan>
        </text>
        <text id="create-new-local-rep" font-family="Helvetica" font-size="14" font-weight="normal" fill="#0055C2">
            <tspan x="188" y="135">create new local repository under </tspan>
            <tspan x="188" y="152">current directory </tspan>
        </text>
        <text id="register-username,-e" font-family="Helvetica" font-size="14" font-weight="normal" fill="#0055C2">
            <tspan x="188" y="79">register username, email, text </tspan>
            <tspan x="188" y="96">editor, etc.</tspan>
        </text>
        <text id="list-up-branches-in" font-family="Helvetica" font-size="14" font-weight="normal" fill="#0055C2">
            <tspan x="561" y="121">list up branches in local </tspan>
            <tspan x="561" y="138">repository</tspan>
        </text>
        <text id="create-new-branch" font-family="Helvetica" font-size="14" font-weight="normal" fill="#0055C2">
            <tspan x="561" y="79">create new branch</tspan>
        </text>
        <text id="switch-branches" font-family="Helvetica" font-size="14" font-weight="normal" fill="#0055C2">
            <tspan x="561" y="159">switch branches</tspan>
        </text>
        <text id="merge-branches" font-family="Helvetica" font-size="14" font-weight="normal" fill="#0055C2">
            <tspan x="561" y="197">merge branches</tspan>
        </text>
        <text id="move-diverged-point" font-family="Helvetica" font-size="14" font-weight="normal" fill="#0055C2">
            <tspan x="561" y="235">move diverged point to HEAD of </tspan>
            <tspan x="561" y="252">base branch</tspan>
        </text>
        <text id="temporaliry-store-wo" font-family="Helvetica" font-size="14" font-weight="normal" fill="#0055C2">
            <tspan x="561" y="271">temporaliry store working tree </tspan>
            <tspan x="561" y="288">and INDEX</tspan>
        </text>
        <text id="create-link-between" font-family="Helvetica" font-size="14" font-weight="normal" fill="#0055C2">
            <tspan x="561" y="336">create link between remote </tspan>
            <tspan x="561" y="353">repository and local repository</tspan>
        </text>
        <text id="upload-commit-histor" font-family="Helvetica" font-size="14" font-weight="normal" fill="#0055C2">
            <tspan x="561" y="379">upload commit histories to </tspan>
            <tspan x="561" y="396">remote repository from local</tspan>
        </text>
        <text id="get-remote-branch-da" font-family="Helvetica" font-size="14" font-weight="normal" fill="#0055C2">
            <tspan x="561" y="418">get remote branch data and </tspan>
            <tspan x="561" y="435">merge with local branch</tspan>
        </text>
        <text id="get-remote-branch-da" font-family="Helvetica" font-size="14" font-weight="normal" fill="#0055C2">
            <tspan x="561" y="457">get remote branch data</tspan>
        </text>
        <text id="create-request-to-re" font-family="Helvetica" font-size="14" font-weight="normal" fill="#199ABD">
            <tspan x="558" y="497">create request to review and </tspan>
            <tspan x="558" y="514">merge</tspan>
        </text>
        <text id="merge-branches-on-Gi" font-family="Helvetica" font-size="14" font-weight="normal" fill="#199ABD">
            <tspan x="558" y="539">merge branches on GitHub</tspan>
        </text>
        <text id="bring-remote-branch" font-family="Helvetica" font-size="14" font-weight="normal" fill="#0055C2">
            <tspan x="188" y="171">bring remote branch to local </tspan>
            <tspan x="188" y="188">computer</tspan>
        </text>
        <text id="add-working-files-to" font-family="Helvetica" font-size="14" font-weight="normal" fill="#0055C2">
            <tspan x="188" y="269">add working files to staging area</tspan>
        </text>
        <text id="record-files-in-stag" font-family="Helvetica" font-size="14" font-weight="normal" fill="#0055C2">
            <tspan x="188" y="343">record files in staging area to the </tspan>
            <tspan x="188" y="360">local respository</tspan>
        </text>
        <text id="show-status-of-worki" font-family="Helvetica" font-size="14" font-weight="normal" fill="#0055C2">
            <tspan x="188" y="306">show status of working tree and </tspan>
            <tspan x="188" y="323">staging area </tspan>
        </text>
        <text id="show-commit-historie" font-family="Helvetica" font-size="14" font-weight="normal" fill="#0055C2">
            <tspan x="188" y="383">show commit histories of current </tspan>
            <tspan x="188" y="400">branch</tspan>
        </text>
        <text id="show-differences-of" font-family="Helvetica" font-size="14" font-weight="normal" fill="#0055C2">
            <tspan x="188" y="421">show differences of working tree, </tspan>
            <tspan x="188" y="438">INDEX and commits</tspan>
        </text>
        <text id="remove-file-from-wor" font-family="Helvetica" font-size="14" font-weight="normal" fill="#0055C2">
            <tspan x="188" y="498">remove file from working tree and </tspan>
            <tspan x="188" y="515">stage status</tspan>
        </text>
        <text id="update-working-tree" font-family="Helvetica" font-size="14" font-weight="normal" fill="#0055C2">
            <tspan x="188" y="458">update working tree with latest </tspan>
            <tspan x="188" y="475">commit</tspan>
        </text>
        <text id="reverse-commit-histo" font-family="Helvetica" font-size="14" font-weight="normal" fill="#0055C2">
            <tspan x="188" y="536">reverse commit histories</tspan>
        </text>
        <text id="$-git-branch-[branch" font-family="Helvetica" font-size="16" font-weight="normal" fill="#0055C2">
            <tspan x="411" y="80">$ git branch </tspan>
            <tspan x="411" y="99">[branch name]</tspan>
        </text>
        <text id="$-git-branch" font-family="Helvetica" font-size="16" font-weight="normal" fill="#0055C2">
            <tspan x="411" y="122">$ git branch</tspan>
        </text>
        <text id="$-git-checkout-/-$-g" font-family="Helvetica" font-size="16" font-weight="normal" fill="#0055C2">
            <tspan x="411" y="160">$ git checkout</tspan>
            <tspan x="411" y="179">/ $ git switch</tspan>
        </text>
        <text id="$-git-merge-[branch]" font-family="Helvetica" font-size="16" font-weight="normal" fill="#0055C2">
            <tspan x="411" y="198">$ git merge [branch]</tspan>
        </text>
        <text id="$-git-rebase-[branch" font-family="Helvetica" font-size="16" font-weight="normal" fill="#0055C2">
            <tspan x="411" y="236">$ git rebase [branch]</tspan>
        </text>
        <text id="$-git-stash" font-family="Helvetica" font-size="16" font-weight="normal" fill="#0055C2">
            <tspan x="411" y="272">$ git stash</tspan>
        </text>
        <text id="$-git-remote-add-ori" font-family="Helvetica" font-size="16" font-weight="normal" fill="#0055C2">
            <tspan x="411" y="337">$ git remote add </tspan>
            <tspan x="411" y="356">origin [URL]</tspan>
        </text>
        <text id="$-git-push-origin-[b" font-family="Helvetica" font-size="16" font-weight="normal" fill="#0055C2">
            <tspan x="411" y="380">$ git push origin </tspan>
            <tspan x="411" y="399">[branch name]</tspan>
        </text>
        <text id="$-git-fetch-origin" font-family="Helvetica" font-size="16" font-weight="normal" fill="#0055C2">
            <tspan x="411" y="458">$ git fetch origin</tspan>
        </text>
        <text id="$-git-pull-origin-[b" font-family="Helvetica" font-size="16" font-weight="normal" fill="#0055C2">
            <tspan x="411" y="419">$ git pull origin </tspan>
            <tspan x="411" y="438">[branch name]</tspan>
        </text>
        <line x1="34.5" y1="157.5" x2="392.5" y2="157.5" id="Line-32" stroke="#0055C2" stroke-width="0.5" stroke-linecap="square" stroke-dasharray="2"></line>
        <line x1="34.5" y1="193.5" x2="392.5" y2="193.5" id="Line-32-Copy-18" stroke="#0055C2" stroke-width="0.5" stroke-linecap="square" stroke-dasharray="2"></line>
        <line x1="410.5" y1="145.5" x2="768.5" y2="145.5" id="Line-32-Copy-8" stroke="#0055C2" stroke-width="0.5" stroke-linecap="square" stroke-dasharray="2"></line>
        <line x1="410.5" y1="108.5" x2="768.5" y2="108.5" id="Line-32-Copy-17" stroke="#0055C2" stroke-width="0.5" stroke-linecap="square" stroke-dasharray="2"></line>
        <line x1="410.5" y1="182.5" x2="768.5" y2="182.5" id="Line-32-Copy-9" stroke="#0055C2" stroke-width="0.5" stroke-linecap="square" stroke-dasharray="2"></line>
        <line x1="410.5" y1="220.5" x2="768.5" y2="220.5" id="Line-32-Copy-10" stroke="#0055C2" stroke-width="0.5" stroke-linecap="square" stroke-dasharray="2"></line>
        <line x1="410.5" y1="259.5" x2="768.5" y2="259.5" id="Line-32-Copy-11" stroke="#0055C2" stroke-width="0.5" stroke-linecap="square" stroke-dasharray="2"></line>
        <line x1="410.5" y1="363.5" x2="768.5" y2="363.5" id="Line-32-Copy-12" stroke="#0055C2" stroke-width="0.5" stroke-linecap="square" stroke-dasharray="2"></line>
        <line x1="410.5" y1="403.5" x2="768.5" y2="403.5" id="Line-32-Copy-13" stroke="#0055C2" stroke-width="0.5" stroke-linecap="square" stroke-dasharray="2"></line>
        <line x1="410.5" y1="440.5" x2="768.5" y2="440.5" id="Line-32-Copy-14" stroke="#0055C2" stroke-width="0.5" stroke-linecap="square" stroke-dasharray="2"></line>
        <line x1="410.5" y1="527.5" x2="768.5" y2="527.5" id="Line-32-Copy-16" stroke="#199ABD" stroke-width="0.5" stroke-linecap="square" stroke-dasharray="2"></line>
        <line x1="413.5" y1="480.5" x2="771.5" y2="480.5" id="Line-32-Copy-15" stroke="#0055C2" stroke-width="0.5" stroke-linecap="square" stroke-dasharray="2"></line>
        <line x1="34.5" y1="293.5" x2="392.5" y2="293.5" id="Line-32-Copy" stroke="#0055C2" stroke-width="0.5" stroke-linecap="square" stroke-dasharray="2"></line>
        <line x1="34.5" y1="329.5" x2="392.5" y2="329.5" id="Line-32-Copy-2" stroke="#0055C2" stroke-width="0.5" stroke-linecap="square" stroke-dasharray="2"></line>
        <line x1="34.5" y1="367.5" x2="392.5" y2="367.5" id="Line-32-Copy-3" stroke="#0055C2" stroke-width="0.5" stroke-linecap="square" stroke-dasharray="2"></line>
        <line x1="34.5" y1="444.5" x2="392.5" y2="444.5" id="Line-32-Copy-5" stroke="#0055C2" stroke-width="0.5" stroke-linecap="square" stroke-dasharray="2"></line>
        <line x1="34.5" y1="406.5" x2="392.5" y2="406.5" id="Line-32-Copy-4" stroke="#0055C2" stroke-width="0.5" stroke-linecap="square" stroke-dasharray="2"></line>
        <line x1="34.5" y1="483.5" x2="392.5" y2="483.5" id="Line-32-Copy-6" stroke="#0055C2" stroke-width="0.5" stroke-linecap="square" stroke-dasharray="2"></line>
        <line x1="34.5" y1="521.5" x2="392.5" y2="521.5" id="Line-32-Copy-7" stroke="#0055C2" stroke-width="0.5" stroke-linecap="square" stroke-dasharray="2"></line>
        <path d="M28,192.581081 L395,192.581081 L395,224 C395,226.761424 392.761424,229 390,229 L33,229 C30.2385763,229 28,226.761424 28,224 L28,192.581081 L28,192.581081 Z" id="Rectangle-Copy-6" fill-opacity="0.5" fill="#A1E0E9"></path>
        <text id="Fork" font-family="Helvetica-Bold, Helvetica" font-size="16" font-weight="bold" fill="#199ABD">
            <tspan x="38" y="209">Fork</tspan>
        </text>
        <text id="create-replica-of-ex" font-family="Helvetica" font-size="14" font-weight="normal" fill="#199ABD">
            <tspan x="188" y="208">create replica of existing </tspan>
            <tspan x="188" y="225">repository on GitHub</tspan>
        </text>
        <g id="default_logo-copy" transform="translate(725.000000, 580.000000)">
            <path d="M64.7910052,14.2592593 C65.7036527,14.2592593 66.5565235,14.0318234 67.3542482,13.5862347 L67.4973756,13.5069064 L67.5819891,13.6474188 C67.6952282,13.8351905 67.8425652,13.9913153 68.0328404,14.1006027 C68.2294301,14.2128438 68.446226,14.2592593 68.6714411,14.2592593 C68.8516132,14.2592593 69.0225242,14.2267684 69.1909093,14.1546134 C69.353401,14.0883659 69.4965284,13.9921592 69.6202915,13.8676813 C69.8796046,13.6081766 70,13.2942391 70,12.9275568 L70,8.96198643 C69.9856873,8.27166156 69.8467695,7.60327857 69.5701969,6.97118404 C69.2982549,6.3504824 68.9210721,5.799404 68.4428583,5.32174645 C67.9621186,4.84197911 67.4072895,4.46896738 66.7808968,4.20735283 C66.1452428,3.9423626 65.4797004,3.81324315 64.7910052,3.81324315 C64.0964164,3.81324315 63.4262435,3.9423626 62.7872218,4.21452613 C62.1574613,4.48247007 61.6009483,4.85885747 61.116841,5.34411027 C60.6297869,5.83189484 60.2509203,6.39310026 59.982767,7.02941438 C59.7112459,7.6729018 59.5782216,8.34761418 59.5782216,9.0455343 C59.5782216,9.74387639 59.709983,10.4156351 59.982346,11.0578566 C60.2504994,11.6891072 60.6310498,12.2448272 61.1164201,12.7279702 C61.6022112,13.2111132 62.1570403,13.5891884 62.7872218,13.8579763 C63.4262435,14.1297179 64.0959954,14.2592593 64.7910052,14.2592593 Z M22.7098704,8.7771684 L26.9889583,8.7771684 C27.1636579,8.7771684 27.3366736,8.74341169 27.5016911,8.67294454 C27.6599731,8.60880678 27.8052053,8.5180856 27.9264426,8.39698338 C28.0459961,8.27714703 28.1369241,8.13410294 28.2030152,7.97882204 C28.2712112,7.81763372 28.3057302,7.65138189 28.3057302,7.47626892 C28.3057302,7.30031203 28.2699483,7.13068453 28.2025943,6.96823033 C28.1352402,6.807042 28.0430493,6.66020028 27.9268636,6.53614435 C27.8039424,6.41293233 27.6561845,6.32010136 27.4970605,6.25090009 C27.3370946,6.18169882 27.1632369,6.14456643 26.9889583,6.14456643 L22.7098704,6.14456643 C22.3432118,6.14456643 22.0316992,6.26271494 21.772807,6.5243295 C21.6494649,6.64880739 21.5585369,6.79902478 21.4920248,6.96612053 C21.4229869,7.12730886 21.3888889,7.30073399 21.3888889,7.47626892 C21.3888889,7.65095993 21.421724,7.8167898 21.4928667,7.98050988 C21.558116,8.13747861 21.6515697,8.27672507 21.7719651,8.39656142 C22.0333831,8.65648814 22.3419489,8.7771684 22.7098704,8.7771684 Z M33.3286594,14.2592593 C33.5050429,14.2592593 33.6772167,14.2276123 33.8418132,14.1617867 C33.9925179,14.1018686 34.1322776,14.0187426 34.2467795,13.9027039 C34.3621233,13.7849774 34.4501046,13.6482627 34.5111442,13.4950916 C34.5747096,13.3339033 34.604177,13.1655416 34.604177,12.9921165 C34.604177,12.8195353 34.5759725,12.6537054 34.5103023,12.4908292 C34.4513675,12.3372362 34.3629653,12.2022093 34.2442537,12.082373 C34.1322776,11.9638025 33.9967276,11.8743472 33.8426551,11.8131631 C33.6780586,11.7443838 33.5067267,11.7131589 33.3286594,11.7131589 C32.7936156,11.7131589 32.3431853,11.5123064 32.3006681,10.9131247 L32.3006681,1.30089948 C32.3006681,1.12831827 32.2657281,0.962488396 32.1966902,0.808473374 C32.1204959,0.648972886 32.0215697,0.506772715 31.9007533,0.382294821 C31.7736225,0.261192599 31.6254436,0.170049462 31.4587423,0.102957987 C31.2979344,0.0337567171 31.1244977,0 30.9497981,0 C30.6033457,0 30.3175119,0.124899853 30.0767211,0.379341108 C29.8233014,0.636736076 29.7079576,0.940124571 29.7079576,1.30089948 L29.7079576,10.8489869 C29.7079576,11.3236907 29.7955179,11.783626 29.9904237,12.2165559 C30.1785941,12.6342953 30.4391701,12.9988678 30.7780453,13.3077418 C31.1173414,13.6170377 31.5105207,13.8478493 31.9394819,14.0098815 C32.3848606,14.1782431 32.8525504,14.2592593 33.3286594,14.2592593 Z M37.4368363,2.79927576 C37.6250067,2.79927576 37.8068627,2.76594101 37.9798785,2.69209819 C38.1495265,2.61994321 38.3002312,2.51698522 38.4303088,2.38575598 C38.7014089,2.11148265 38.8441153,1.79079384 38.8441153,1.40343551 C38.8441153,1.01101368 38.7073023,0.684417439 38.4307297,0.4071904 C38.3010731,0.277227039 38.1499475,0.17511297 37.984509,0.105489741 C37.8089675,0.0362884709 37.6254277,0.000421958964 37.4368363,0.000421958964 C37.0520762,0.000421958964 36.725409,0.134604909 36.453888,0.4071904 C36.1768944,0.684839398 36.0295574,1.00932584 36.0295574,1.40343551 C36.0295574,1.5865657 36.0712327,1.76463239 36.1419545,1.92961834 C36.2194116,2.10135564 36.3212847,2.25199499 36.453888,2.38491206 C36.726251,2.65791951 37.0508133,2.79927576 37.4368363,2.79927576 Z M37.4368363,14.2592593 C37.6090101,14.2592593 37.7748695,14.2276123 37.9348354,14.1558793 C38.0889078,14.0904757 38.2261417,13.9972227 38.3440114,13.8790742 C38.4631439,13.7592379 38.5553347,13.6178816 38.6218469,13.4583811 C38.6900429,13.305632 38.7237199,13.140646 38.7237199,12.9731283 L38.7237199,5.32723192 C38.7237199,5.15422874 38.6955154,4.98544516 38.6294242,4.82214704 C38.5709104,4.66897593 38.4825081,4.53352711 38.3667434,4.41748839 C38.2476109,4.298074 38.1065883,4.20608695 37.9483062,4.13983939 C37.791708,4.07148204 37.6296373,4.03730336 37.4591474,4.03730336 C37.2802381,4.03730336 37.1101691,4.07274792 36.9447307,4.14110527 C36.7881325,4.20566499 36.6416374,4.29680813 36.5182953,4.42086406 C36.3924274,4.53985649 36.2960269,4.6816347 36.2248842,4.83860344 C36.1554253,4.99304042 36.1196434,5.15844833 36.1196434,5.32723192 L36.1196434,12.9731283 C36.1196434,13.1398021 36.1562672,13.305632 36.2248842,13.4575372 C36.2956059,13.6149279 36.3924274,13.7567061 36.521663,13.8790742 C36.6403745,13.9980667 36.7818181,14.0900537 36.9354695,14.1563013 C37.0945935,14.2250806 37.2633996,14.2592593 37.4368363,14.2592593 Z M45.6902348,14.2592593 C46.3856655,14.2592593 47.0541546,14.1250763 47.6944392,13.8537567 C48.3237787,13.5870786 48.8815545,13.2119571 49.363978,12.7283921 C49.8480853,12.2431393 50.2248471,11.6865755 50.4913166,11.0544809 C50.7611538,10.4135253 50.8916523,9.74092268 50.8916523,9.0455343 C50.8916523,8.34761418 50.759049,7.6729018 50.487528,7.02941438 C50.2202165,6.39605397 49.8468224,5.83147288 49.363978,5.34326636 C48.8832384,4.85801355 48.3233577,4.48457987 47.6944392,4.21832376 C47.0541546,3.94700415 46.3852446,3.81324315 45.6902348,3.81324315 C45.2381207,3.81324315 44.7944258,3.92168661 44.3751467,4.08751648 C44.0160654,4.23013861 43.6148877,4.43394479 43.362731,4.73691133 L43.0630054,5.09642036 L43.0630054,1.3582859 C43.0630054,1.17262396 43.033117,0.988227893 42.9682887,0.813958841 C42.9080911,0.653614435 42.8205308,0.505506838 42.7064498,0.383982657 C42.5856335,0.263724352 42.4429271,0.173003175 42.2867498,0.107599536 C42.1229953,0.0392421836 41.9533472,0.00421958964 41.7761218,0.00421958964 C41.6014222,0.00421958964 41.4317742,0.0379763067 41.2680196,0.108021495 C41.1110005,0.172581216 40.9695569,0.263724352 40.8529502,0.381028944 C40.7329758,0.508038592 40.6407849,0.658255983 40.5738518,0.819866266 C40.50313,0.990759647 40.469874,1.17346788 40.469874,1.3582859 L40.469874,9.0455343 C40.469874,9.74387639 40.6016354,10.4156351 40.8744193,11.0578566 C41.1421517,11.6895292 41.5239651,12.2439832 42.0084933,12.7279702 C42.4938636,13.212801 43.0554281,13.5896104 43.6864514,13.8575543 C44.3246312,14.128452 44.9969089,14.2592593 45.6902348,14.2592593 Z M45.6902348,11.6490211 C45.3416775,11.6490211 45.0053282,11.5819296 44.6837125,11.4473247 C44.3705161,11.3160955 44.0901549,11.1308555 43.850206,10.8903389 C43.6081523,10.6472905 43.4161933,10.3675317 43.2802222,10.0527504 C43.1417255,9.73206154 43.0743714,9.39449437 43.0743714,9.0455343 C43.0743714,8.69657424 43.1417255,8.35900707 43.2802222,8.03831826 C43.4157723,7.72438079 43.6102572,7.44630983 43.8510479,7.1998858 C44.0918387,6.96316682 44.372621,6.77834879 44.6837125,6.64754151 C45.0053282,6.5129366 45.3416775,6.44584513 45.6902348,6.44584513 C46.0387921,6.44584513 46.3789301,6.5129366 46.7005458,6.64754151 C47.0112164,6.77792683 47.2924196,6.9623229 47.5306846,7.20115167 C47.7727383,7.44420004 47.9646973,7.72311491 48.0977216,8.04042805 C48.2320088,8.36069491 48.2989419,8.69784012 48.2989419,9.0455343 C48.2989419,9.39365045 48.2320088,9.7303737 48.0977216,10.0506406 C47.9642764,10.3683757 47.7731592,10.6464466 47.5306846,10.8903389 C47.2915777,11.1295896 47.0124793,11.3165174 46.7005458,11.4473247 C46.3789301,11.5819296 46.0387921,11.6490211 45.6902348,11.6490211 Z M53.6784267,14.2592593 C54.0303517,14.2592593 54.3258676,14.138157 54.5750776,13.8900452 C54.6921053,13.7740065 54.7821914,13.6415113 54.8461778,13.4938257 C54.9126899,13.3296837 54.9434202,13.1575244 54.9434202,12.9807236 L54.9434202,9.38521127 C54.9509975,9.00671408 55.0297176,8.64340741 55.1787384,8.29571323 C55.3260755,7.95266059 55.535715,7.64547446 55.7971329,7.37964032 C56.0543413,7.1176038 56.3532249,6.90704628 56.6887323,6.75851672 C57.0318171,6.60703345 57.3913194,6.52897104 57.769765,6.52137578 L57.837961,6.52137578 C58.0168703,6.52137578 58.1957795,6.48972886 58.3624808,6.42390326 C58.5249725,6.3597655 58.6739933,6.26988824 58.7977564,6.15258365 C59.0549648,5.89476672 59.188831,5.58884647 59.188831,5.22385197 C59.188831,4.86603077 59.0907466,4.54365412 58.8356431,4.28794699 C58.5683317,4.01958109 58.2063036,3.93392342 57.837961,3.93392342 L57.7508217,3.93392342 C57.0406573,3.94827002 56.3549088,4.09215803 55.7028372,4.37276074 C55.0633946,4.64787798 54.4934108,5.03059476 53.9970956,5.51880129 C53.4940449,6.01333719 53.1012866,6.58846726 52.8133479,7.23237664 C52.5237255,7.88050561 52.3721788,8.56365717 52.3502888,9.26832864 L52.3502888,12.9807236 C52.3502888,13.1533048 52.3827029,13.3182908 52.4551085,13.4752595 C52.5270932,13.6313843 52.6293872,13.7689429 52.7514664,13.8896232 C52.8722827,14.0090376 53.0133053,14.0984929 53.1677987,14.1613648 C53.3328162,14.2255025 53.5012013,14.2592593 53.6784267,14.2592593 Z M64.7910052,11.6490211 C64.4458156,11.6490211 64.1103082,11.5806638 63.7920602,11.4473247 C63.4788638,11.3160955 63.1985025,11.1308555 62.9585537,10.8903389 C62.7160791,10.6472905 62.5266457,10.3675317 62.3885699,10.0535943 C62.2483893,9.73374937 62.1822981,9.39491633 62.1822981,9.0455343 C62.1822981,8.69615228 62.2479683,8.35774119 62.3885699,8.03747434 C62.5262248,7.72353687 62.7165,7.44377808 62.9585537,7.20115167 C63.1976606,6.96147898 63.4801267,6.77834879 63.7920602,6.64754151 C64.1103082,6.51420248 64.4458156,6.44584513 64.7910052,6.44584513 C65.1408253,6.44584513 65.4797004,6.51420248 65.8034209,6.64711955 C66.1183012,6.77666096 66.4011882,6.95979115 66.6424,7.20115167 C66.8836117,7.44377808 67.073045,7.72438079 67.2056483,8.04000609 C67.3403564,8.36069491 67.4072895,8.69784012 67.4072895,9.0455343 C67.4072895,9.39365045 67.3399355,9.7303737 67.2056483,10.0510625 C67.072624,10.3675317 66.8840327,10.6477125 66.6424,10.8903389 C66.4007673,11.1321214 66.119564,11.3177833 65.8034209,11.4473247 C65.4797004,11.5806638 65.1408253,11.6490211 64.7910052,11.6490211 L64.7910052,11.6490211 Z" id="Fill-12" fill="#033E8A" fill-rule="nonzero"></path>
            <g id="Fill-13-Clipped">
                <mask id="mask-2" fill="white">
                    <use xlink:href="#path-1"></use>
                </mask>
                <g id="path-1"></g>
                <path d="M1.30671832,14.2592593 L14.1385563,14.2592593 C14.8479905,14.2592593 15.5395827,14.1398555 16.1997388,13.8829053 C16.8301582,13.636925 17.394307,13.2782918 17.8832644,12.8129123 C18.3875149,12.3327657 18.7664463,11.7619059 19.0323779,11.1201632 C19.3208245,10.4231489 19.4444444,9.68816165 19.4444444,8.93671945 L19.4444444,5.31114793 C19.4444444,4.56139341 19.3212493,3.82303078 19.0323779,3.12812605 C18.7651718,2.48511768 18.3875149,1.91341404 17.8828396,1.43115775 C17.3955815,0.965356409 16.8318574,0.610520421 16.2005884,0.370025162 C15.5391579,0.118138022 14.8458665,0 14.1385563,0 L7.92102401,0 C7.74685154,0 7.57310389,0.0337537206 7.41422461,0.0957761821 C7.25959344,0.161174016 7.11643217,0.251043297 6.99748512,0.369181319 C6.87726364,0.488163184 6.78210599,0.62697536 6.71413625,0.78097671 C6.64531688,0.938353432 6.61430569,1.10712204 6.61430569,1.27842217 L6.61430569,6.30477308 C6.61430569,7.01950812 7.20309359,7.60429133 7.92272326,7.60429133 C8.64235292,7.60429133 9.23114082,7.01993004 9.23114082,6.30477308 L9.23114082,2.61000644 L14.1385563,2.61000644 C14.8114568,2.61000644 15.473737,2.76400779 15.9877582,3.21461996 C16.596937,3.74792875 16.8055191,4.50274633 16.8055191,5.28878609 L16.8055191,8.95950321 C16.8055191,9.74554297 16.5939633,10.4931879 15.9886078,11.0290282 C15.4703385,11.4880788 14.8237763,11.6606447 14.1385563,11.6606447 L9.58288425,11.6606447 L2.98387175,5.106516 L2.44903483,5.63771518 L7.57182945,10.7256666 L1.29779729,7.12794194 L0.919715595,7.77854491 L7.19374775,11.3762696 L0.195837824,9.51390807 L0,10.2396131 L5.33944818,11.6606447 L0,11.6606447 L0,12.9808371 C0,13.1529811 0.0322856283,13.3209058 0.0989809393,13.4761729 C0.169499548,13.6305962 0.264232379,13.7706742 0.384029052,13.8913437 C0.501701671,14.0099036 0.645712566,14.0985072 0.796095624,14.1617954 C0.958798198,14.2259275 1.13127142,14.2592593 1.30671832,14.2592593" id="Fill-13" fill="url(#linearGradient-3)" fill-rule="nonzero" mask="url(#mask-2)"></path>
            </g>
        </g>
    </g>
</svg>