<?xml version="1.0" encoding="UTF-8"?>
<svg width="800px" height="600px" viewBox="0 0 800 600" version="1.1" xmlns="http://www.w3.org/2000/svg" xmlns:xlink="http://www.w3.org/1999/xlink">
    <title>2041-10-13-16-10_GeneratingPAT(PersonalAccessToken)</title>
    <defs>
        <path d="M8.68744595,14.5405413 C10.6544909,13.5649687 12,11.5915112 12,9.31636202 C12,6.07252388 9.26504479,3.44227578 5.89152197,3.44227578 C4.52034181,3.44227578 3.25480793,3.87689217 2.23537065,4.61058921 L2.23537065,1.05770107 C2.23537065,0.476155373 1.74046224,0 1.11695169,0 C0.493934821,0 0.0167986821,0.476630104 0.0167986821,1.05770107 L0.0167986821,1.80184219 L0,9.32158406 C-0.0041824725,11.2003327 0.951817666,12.865215 2.41753644,13.8939574 C2.4777647,13.9362085 2.55848043,13.9312238 2.6127846,13.8823265 C2.66758244,13.8334292 2.6779496,13.7558106 2.63746831,13.6950451 C0.724974359,10.8146136 1.16014819,5.53963813 5.89176881,5.53963813 C8.05899866,5.53963813 9.80709909,7.22944376 9.81623206,9.31351363 C9.82240299,10.8599505 9.11620201,12.0365717 8.19549958,12.7781018 C6.36026565,14.2561773 3.64974731,12.6382934 4.49738595,10.4697214 C4.5894562,10.2335427 4.71879884,9.9959397 4.88664808,9.76189723 L5.12361171,9.47705853 C5.19766284,9.39967734 5.25048599,9.29903433 5.2146946,9.19411874 C5.01401603,8.62800181 3.46832203,8.97526767 3.04005964,10.0315445 C3.34292878,9.79631524 3.65986763,9.66433998 3.96940137,9.71489885 C2.38890334,11.275815 3.44141679,13.9563846 5.46005069,14.7513219 C6.40494316,15.1232738 7.55964718,15.0976383 8.68744595,14.5405413" id="path-1"></path>
        <linearGradient x1="28.568518%" y1="104.445731%" x2="78.3472072%" y2="20.6880271%" id="linearGradient-3">
            <stop stop-color="#000F98" offset="0%"></stop>
            <stop stop-color="#00A5FD" offset="100%"></stop>
        </linearGradient>
        <circle id="path-4" cx="63.5" cy="63.5" r="63.5"></circle>
        <filter x="-4.7%" y="-4.7%" width="118.9%" height="118.9%" filterUnits="objectBoundingBox" id="filter-5">
            <feOffset dx="6" dy="6" in="SourceAlpha" result="shadowOffsetOuter1"></feOffset>
            <feGaussianBlur stdDeviation="3" in="shadowOffsetOuter1" result="shadowBlurOuter1"></feGaussianBlur>
            <feComposite in="shadowBlurOuter1" in2="SourceAlpha" operator="out" result="shadowBlurOuter1"></feComposite>
            <feColorMatrix values="0 0 0 0 0   0 0 0 0 0   0 0 0 0 0  0 0 0 0.5 0" type="matrix" in="shadowBlurOuter1"></feColorMatrix>
        </filter>
    </defs>
    <g id="2041-10-13-16-10_GeneratingPAT(PersonalAccessToken)" stroke="none" stroke-width="1" fill="none" fill-rule="evenodd">
        <rect fill="#FFFFFF" x="0" y="0" width="800" height="600"></rect>
        <circle id="Oval" fill-opacity="0.3" fill="#C5DDFF" cx="161" cy="287" r="132"></circle>
        <circle id="Oval-Copy-2" fill-opacity="0.3" fill="#C5DDFF" cx="617" cy="287" r="132"></circle>
        <g id="bloovee-winner-logo" transform="translate(725.000000, 580.000000)">
            <path d="M13,13.7751507 C13,14.396312 13.4732558,14.8717809 14.0514961,14.8717809 C14.6474304,14.8717809 15.1204503,14.3968042 15.1204503,13.7751507 L15.1204503,2.09687626 C15.1204503,1.49368045 14.6474304,1 14.0514961,1 C13.4557977,1 13,1.49392656 13,2.09687626 L13,13.7751507 Z M21.7920364,15 C24.6483217,15 26.751078,12.7149437 26.751078,9.97312215 L26.751078,9.93645297 C26.751078,7.17641992 24.6657798,4.92778666 21.8269526,4.92778666 C18.9881254,4.92778666 16.885369,7.212843 16.885369,9.97312215 L16.885369,10.0095452 C16.885369,12.7516128 18.9706673,15 21.7920364,15 Z M21.8269526,13.0621935 C20.179994,13.0621935 19.0055834,11.6547366 19.0055834,9.97312215 L19.0055834,9.93645297 C19.0055834,8.25459244 20.0919958,6.86534709 21.7920364,6.86534709 C23.456689,6.86534709 24.6306277,8.27305008 24.6306277,9.97312215 L24.6306277,10.0095452 C24.6306277,11.6731942 23.5444513,13.0621935 21.8269526,13.0621935 Z M32.8092717,15 C35.665557,15 37.7683133,12.7149437 37.7683133,9.97312215 L37.7683133,9.93645297 C37.7683133,7.17641992 35.6830151,4.92778666 32.8441878,4.92778666 C30.0053606,4.92778666 27.9026043,7.212843 27.9026043,9.97312215 L27.9026043,10.0095452 C27.9026043,12.7516128 29.9879025,15 32.8092717,15 Z M32.8441878,13.0621935 C31.1969933,13.0621935 30.0228187,11.6547366 30.0228187,9.97312215 L30.0228187,9.93645297 C30.0228187,8.25459244 31.109231,6.86534709 32.8092717,6.86534709 C34.4739243,6.86534709 35.647863,8.27305008 35.647863,9.97312215 L35.647863,10.0095452 C35.647863,11.6731942 34.5614506,13.0621935 32.8441878,13.0621935 Z M44.1416963,13.9944275 L47.2261164,6.6096472 C47.2784906,6.49988574 47.3487948,6.28060893 47.3487948,6.07954366 C47.3487948,5.47610175 46.8929971,5.01933658 46.3147568,5.01933658 C45.7539746,5.01933658 45.4737015,5.40300947 45.3158709,5.78692847 L42.8976893,12.2215093 L40.5144239,5.82335156 C40.3393711,5.36634029 40.041404,5.01933658 39.4629278,5.01933658 C38.8846875,5.01933658 38.4116676,5.53098247 38.4116676,6.07954366 C38.4116676,6.28060893 38.4817358,6.46346265 38.534346,6.62785874 L41.6182943,13.9944275 C41.8638872,14.5796579 42.2491448,14.9633308 42.8273851,14.9633308 L42.9326055,14.9633308 C43.5108458,14.9633308 43.8965752,14.5612003 44.1416963,13.9944275 Z M50.0949054,9.27837643 C50.2876522,7.77961573 51.1987758,6.73762019 52.4956289,6.73762019 C53.8974665,6.73762019 54.7036056,7.8524619 54.8437422,9.27837643 L50.0949054,9.27837643 Z M56.070527,13.72027 C56.2281217,13.5558739 56.3508002,13.3181395 56.3508002,13.0439819 C56.3508002,12.5320899 55.9830006,12.1481709 55.5095089,12.1481709 C55.2641519,12.1481709 55.1242513,12.2215093 54.9664207,12.3492362 C54.3704864,12.8611282 53.6695676,13.1901665 52.7759021,13.1901665 C51.4089807,13.1901665 50.3402624,12.3128131 50.1123635,10.7409601 L55.9126964,10.7409601 C56.4560206,10.7409601 56.9115824,10.3021604 56.9115824,9.68050697 C56.9115824,7.45057746 55.4568987,4.92778666 52.513087,4.92778666 C49.8672425,4.92778666 47.9919132,7.19438536 47.9919132,9.95466451 L47.9919132,9.9913337 C47.9919132,12.9708897 50.0597533,15 52.7409859,15 C54.1779755,15 55.2292357,14.5063195 56.070527,13.72027 Z M60.1833231,9.27837643 C60.3763058,7.77961573 61.2871935,6.73762019 62.5842825,6.73762019 C63.9858841,6.73762019 64.7920233,7.8524619 64.9321598,9.27837643 L60.1833231,9.27837643 Z M66.1589447,13.72027 C66.3167752,13.5558739 66.4394537,13.3181395 66.4394537,13.0439819 C66.4394537,12.5320899 66.0714183,12.1481709 65.5981624,12.1481709 C65.3528055,12.1481709 65.2126689,12.2215093 65.0548383,12.3492362 C64.4591399,12.8611282 63.7582212,13.1901665 62.8643197,13.1901665 C61.4976342,13.1901665 60.4289159,12.3128131 60.2007812,10.7409601 L66.0011141,10.7409601 C66.5444382,10.7409601 67,10.3021604 67,9.68050697 C67,7.45057746 65.5455522,4.92778666 62.6015046,4.92778666 C59.9556601,4.92778666 58.0805667,7.19438536 58.0805667,9.95466451 L58.0805667,9.9913337 C58.0805667,12.9708897 60.1484069,15 62.8294035,15 C64.2663932,15 65.3178893,14.5063195 66.1589447,13.72027 L66.1589447,13.72027 Z" id="Fill-1" fill="#030060"></path>
            <g id="Group-4">
                <mask id="mask-2" fill="white">
                    <use xlink:href="#path-1"></use>
                </mask>
                <g id="Clip-3"></g>
                <path d="M8.68744595,14.5405413 C10.6544909,13.5649687 12,11.5915112 12,9.31636202 C12,6.07252388 9.26504479,3.44227578 5.89152197,3.44227578 C4.52034181,3.44227578 3.25480793,3.87689217 2.23537065,4.61058921 L2.23537065,1.05770107 C2.23537065,0.476155373 1.74046224,0 1.11695169,0 C0.493934821,0 0.0167986821,0.476630104 0.0167986821,1.05770107 L0.0167986821,1.80184219 L0,9.32158406 C-0.0041824725,11.2003327 0.951817666,12.865215 2.41753644,13.8939574 C2.4777647,13.9362085 2.55848043,13.9312238 2.6127846,13.8823265 C2.66758244,13.8334292 2.6779496,13.7558106 2.63746831,13.6950451 C0.724974359,10.8146136 1.16014819,5.53963813 5.89176881,5.53963813 C8.05899866,5.53963813 9.80709909,7.22944376 9.81623206,9.31351363 C9.82240299,10.8599505 9.11620201,12.0365717 8.19549958,12.7781018 C6.36026565,14.2561773 3.64974731,12.6382934 4.49738595,10.4697214 C4.5894562,10.2335427 4.71879884,9.9959397 4.88664808,9.76189723 L5.12361171,9.47705853 C5.19766284,9.39967734 5.25048599,9.29903433 5.2146946,9.19411874 C5.01401603,8.62800181 3.46832203,8.97526767 3.04005964,10.0315445 C3.34292878,9.79631524 3.65986763,9.66433998 3.96940137,9.71489885 C2.38890334,11.275815 3.44141679,13.9563846 5.46005069,14.7513219 C6.40494316,15.1232738 7.55964718,15.0976383 8.68744595,14.5405413" id="Fill-2" fill="url(#linearGradient-3)" mask="url(#mask-2)"></path>
            </g>
        </g>
        <g id="github-copy" transform="translate(748.000000, 3.000000)" fill="#000000" fill-rule="nonzero">
            <path d="M22.9998956,0 C11.7204239,0.000469179946 2.10590223,8.20619911 0.299077857,19.3745239 C-1.50774651,30.5428487 5.02642435,41.3773525 15.7268887,44.9558377 C16.8767785,45.1577383 17.3079872,44.4656891 17.3079872,43.8600567 C17.3079872,43.3121892 17.279217,41.4954764 17.279217,39.5634644 C11.5009978,40.6303861 10.0061411,38.1505528 9.54618516,36.8529173 C9.03580825,35.5908656 8.22674528,34.472458 7.1889111,33.5943411 C6.38398825,33.161796 5.23409847,32.0948512 7.16014086,32.066061 C8.65271236,32.2285228 9.97246422,33.1110528 10.6960749,34.4305721 C11.3313462,35.5753322 12.3946869,36.4194146 13.6513665,36.7764896 C14.9080461,37.1335647 16.2547288,36.9742705 17.3941369,36.3337708 C17.4936968,35.160991 18.0147545,34.0644705 18.8602924,33.2483742 C13.7432829,32.6716473 8.39629538,30.6818473 8.39629538,21.8580182 C8.36397821,19.5652878 9.20739391,17.3470389 10.7535694,15.6582042 C10.0504849,13.6655423 10.1327507,11.4787423 10.9835474,9.54489918 C10.9835474,9.54489918 12.9095438,8.93931288 17.3079412,11.9094794 C21.0710431,10.8713094 25.0437372,10.8713094 28.806839,11.9094794 C33.2051215,8.9104996 35.1312329,9.54489918 35.1312329,9.54489918 C35.982145,11.4787155 36.0644125,13.6655602 35.3612108,15.6582042 C36.9120423,17.3441484 37.7561944,19.564334 37.7184849,21.8580182 C37.7184849,30.7107067 32.3427041,32.6716473 27.2257406,33.2483742 C28.336287,34.3774629 28.9028084,35.9349635 28.7780918,37.5161532 C28.7780918,40.6016882 28.7493216,43.0815215 28.7493216,43.8601489 C28.7493216,44.4657352 29.1805302,45.1866208 30.33042,44.95593 C41.0111617,41.3485442 47.5153422,30.5121007 45.6961446,19.3555019 C43.876947,8.19890308 34.2698179,0.00588375885 22.9998956,0 Z" id="Path"></path>
        </g>
        <text id="Generating-PAT-(Pers" fill-rule="nonzero" font-family="Helvetica" font-size="18" font-weight="normal" fill="#0055C2">
            <tspan x="10" y="23">Generating PAT (Personal Access Token)</tspan>
        </text>
        <text id="GitHub" fill-rule="nonzero" font-family="Helvetica-Bold, Helvetica" font-size="30" font-weight="bold" fill="#000000">
            <tspan x="111.012207" y="399">GitHub</tspan>
        </text>
        <g id="Group-2" transform="translate(75.000000, 210.000000)" fill-rule="nonzero">
            <g id="Group-2-Copy" transform="translate(0.000000, 66.000000)">
                <path d="M125,58.2774599 C125,72.460222 114.164115,84 100.841148,84 L27.8354246,84 C21.4515315,84.0337627 15.3154695,81.3233279 10.772213,76.4621594 C6.22514372,71.6978014 3.66332982,65.1323877 3.67647059,58.2774599 C3.67647059,47.4969965 9.94959971,37.941882 19.3904097,34.19805 C24.0192411,14.3823096 40.3128765,0.377382025 59.1684418,0.00749383904 C78.024007,-0.362394347 94.7745078,12.9943089 100.06183,32.6155249 C100.54289,32.5816322 100.8195,32.5816322 100.841148,32.5816322 C101.201943,32.5816322 101.562738,32.5816322 101.918723,32.6077035 C107.917567,32.8611161 113.614154,35.5278111 117.897144,40.0875462 C122.437816,44.8594603 125,51.4222426 125,58.2774599 Z" id="Path" fill="#C5DDFF"></path>
                <path d="M18.3823529,32 C18.1878797,32.8314607 18.0026671,33.6629213 17.8359757,34.5168539 C16.7802637,34.988764 15.743073,35.4719101 14.7058824,36 C15.8912431,34.6142322 17.1167333,33.2808989 18.3823529,32 Z" id="Path" fill="#607D8B"></path>
                <path d="M77.2058824,39.9050751 C78.9496376,38.0876536 81.0391533,36.5320644 83.3874696,35.3030466 C85.7702192,34.0571224 88.3718681,33.1438351 91.0937148,32.5978331 C96.6294951,31.5141447 102.423233,31.9103854 107.68474,33.7325131 C112.944885,35.5278678 117.459295,38.6137718 120.654345,42.598114 C122.222502,44.5687056 123.406729,46.741828 124.161345,49.033649 C124.896817,51.2992045 125.15158,53.6582774 124.913662,56 C124.463518,51.4467333 122.476767,47.1012868 119.192619,43.4868655 C115.972818,39.9450136 111.702391,37.1974842 106.820863,35.5270607 C101.950656,33.8465903 96.6286835,33.347639 91.4455589,34.0855788 C86.1621,34.8777742 81.2361043,36.8909389 77.2058824,39.9050751 L77.2058824,39.9050751 Z" id="Path" fill="#7BB2FF"></path>
                <path d="M14.7058824,40.027204 C14.9590109,39.8893662 15.2143599,39.7569338 15.4741498,39.627204 C15.2165804,39.7542311 14.9590109,39.8893662 14.7058824,40.027204 Z M17.5347053,34.6146096 C17.7034576,34.1108312 17.882572,33.6070529 18.0720484,33.1032746 C17.882572,33.5986566 17.7034576,34.1024349 17.5347053,34.6146096 Z M29.4117647,16 C29.0757402,16.308984 28.7441566,16.6238455 28.4170138,16.9445844 C28.741196,16.6297229 29.0809212,16.3098237 29.4117647,16 Z" id="Shape" fill="#55717C"></path>
                <path d="M113.970588,80.637076 C109.44564,85.3799011 103.463516,88.014222 97.2509292,88 L24.1803615,88 C19.7251416,88.0171274 15.3515987,86.6678573 11.538903,84.0998531 C11.3382831,83.9639527 11.1408732,83.8262642 10.9466731,83.6867875 C10.7516706,83.5473108 10.5566681,83.4024696 10.3640731,83.2549462 C10.171478,83.1074228 9.99332756,82.9652638 9.81276969,82.8177404 L9.79351018,82.801647 C9.60332256,82.6487591 9.41794981,82.4905067 9.23257706,82.329572 C9.04720431,82.1686374 8.8834985,82.021114 8.71016294,81.8628616 L8.63071748,81.790441 C8.50793812,81.6751045 8.38997365,81.5624502 8.26719429,81.4417492 L8.05533972,81.2378987 C7.95663475,81.1413379 7.86274466,81.0474594 7.76644712,80.9455341 C7.54255536,80.7202256 7.32107104,80.4841881 7.10199415,80.2454684 C2.55088616,75.3438358 -0.0132031801,68.589254 0,61.5368164 C0,61.3302836 0,61.1237508 0,60.9199003 C0,60.7831058 0,60.6516759 0,60.5014702 C0,60.1554607 0.0289403912,59.817498 0.0554222127,59.4741708 C0.0554222127,59.3051894 0.0794965958,59.1335258 0.096348664,58.9645444 C0.113200732,58.795563 0.120423047,58.69632 0.137275115,58.5434321 C0.154127183,58.3905442 0.170979252,58.2161983 0.192646196,58.0525814 C0.250424716,57.5626248 0.321845386,57.0762446 0.406908206,56.5934407 C0.426167713,56.4754219 0.447834657,56.3627677 0.469501602,56.244749 C0.510428054,56.0274872 0.553761943,55.8129077 0.594688394,55.5983281 C0.628392531,55.4508047 0.659689229,55.3032813 0.693393365,55.1584401 C0.727097502,55.013599 0.765616515,54.8446176 0.804135528,54.6890474 C0.830617349,54.5763932 0.85709917,54.4691034 0.88598843,54.3618137 C0.91487769,54.2545239 0.938952073,54.1579631 0.967841333,54.0533556 C0.996730592,53.9487481 1.03043473,53.8226826 1.06413887,53.7046639 C1.097843,53.5866451 1.12432482,53.4927666 1.15802896,53.3881591 C1.30408022,52.892838 1.4645761,52.4037755 1.63951662,51.9209716 C1.69248026,51.7707659 1.74785135,51.6205603 1.80322243,51.4730368 C1.85859351,51.3255134 1.91396459,51.1753078 1.97415055,51.0277843 C2.0343365,50.8802609 2.08970759,50.7327375 2.15230098,50.5878963 C2.21489438,50.4430551 2.2726729,50.2955317 2.33767373,50.1533728 C2.40267457,50.0112139 2.46286052,49.8636904 2.5302688,49.7215315 C2.59767707,49.5793726 2.66027047,49.4345314 2.73008618,49.2950547 C2.79990189,49.155578 2.86490272,49.0107368 2.93712587,48.8712602 C3.07675729,48.6030358 3.22120359,48.3106712 3.37046477,48.0344 C3.51972594,47.7581289 3.65935736,47.5167269 3.8062111,47.2619137 C4.28994221,46.440025 4.81395309,45.6484573 5.37586088,44.89081 C5.45530635,44.780838 5.53475181,44.6762305 5.61660471,44.5689408 C5.91994194,44.1844858 6.23210644,43.8098657 6.55309822,43.4450805 C6.63254368,43.351202 6.70958171,43.2626879 6.79384205,43.1768561 C7.07952473,42.8514105 7.37403468,42.5349057 7.67737191,42.2273417 L7.90607855,41.9966687 C8.27040421,41.6390362 8.64516211,41.2876622 9.03035224,40.9425468 L9.27109607,40.7360141 C9.47332089,40.5643504 9.68036058,40.3926868 9.88740028,40.2263877 C9.98369781,40.1486026 10.0799953,40.0734998 10.1762929,40.0010792 C10.3905549,39.8320978 10.6096318,39.6684809 10.8287087,39.5075463 C10.9394508,39.4243967 11.0550079,39.3466117 11.1705649,39.2661443 L11.4714947,39.0596115 L11.7122385,38.9040414 C11.8350179,38.8208918 11.9529823,38.7404245 12.0853915,38.6626394 L12.1287253,38.635817 C12.2466898,38.5580319 12.3694692,38.4856113 12.4898411,38.4131907 C12.610213,38.3407701 12.7522519,38.2549383 12.884661,38.1798355 L13.2842957,37.9518448 L13.6887454,37.734583 L14.1004173,37.5226857 C14.3748653,37.3858913 14.6517207,37.2544613 14.933391,37.1257136 C15.2150613,36.9969659 15.4750646,36.8843116 15.7471051,36.7716574 C15.7928465,36.5704891 15.8409952,36.372003 15.889144,36.1708347 C15.9613671,35.8757879 16.0335903,35.5780588 16.1106283,35.2883765 C16.1876663,34.9986941 16.2647044,34.700965 16.3513721,34.4086004 C16.4380399,34.1162358 16.5150779,33.8265535 16.592116,33.5368711 C16.669154,33.2471888 16.7654515,32.9628709 16.8569342,32.6812353 C16.8579781,32.6759338 16.8579781,32.6704433 16.8569342,32.6651418 C16.9460094,32.3969174 17.0326772,32.128693 17.1265673,31.8604686 C17.1265673,31.8416929 17.1265673,31.8202349 17.1458268,31.798777 C17.332002,31.2623282 17.526202,30.7258794 17.7284269,30.1894306 L17.7789831,30.0580006 C17.8680583,29.8273276 17.9571335,29.5966547 18.0510236,29.3686639 L18.1160244,29.2077293 C18.2026922,28.995832 18.28936,28.7839347 18.3784352,28.5720374 L18.465103,28.3708691 C18.563808,28.1428784 18.6601055,27.9175699 18.7612179,27.6922614 L18.8117741,27.5769249 C18.9249237,27.324794 19.0404807,27.072663 19.1560378,26.8232143 C19.2715948,26.5737656 19.3967816,26.3216347 19.5123386,26.072186 L19.6110436,25.8737 C19.6977114,25.7020363 19.7795643,25.5303727 19.871047,25.3613913 C19.9312329,25.2380081 19.9914189,25.1146249 20.0588271,24.9939239 C20.1262354,24.8732229 20.2201255,24.6801014 20.299571,24.5245312 C20.3356825,24.4574751 20.3717941,24.390419 20.4079057,24.3233629 C20.5210553,24.1061011 20.6486495,23.8915216 20.7617991,23.6769421 C20.8749487,23.4623626 21.002543,23.2477831 21.1277298,23.0332035 C21.2240273,22.8695867 21.3179174,22.7032875 21.4166224,22.5423529 L21.5779207,22.2741285 C21.6645885,22.1319696 21.7512563,21.9898106 21.8403315,21.8503339 C21.9294067,21.7108572 22.0112596,21.5821095 22.1003348,21.4372684 C22.18941,21.2924272 22.2182993,21.2495113 22.2808927,21.1529505 C22.3795977,20.9973803 22.4807101,20.8364457 22.5866374,20.6835578 L22.7142316,20.4904362 C22.8321961,20.3107259 22.9549754,20.1310155 23.0753473,19.9539874 C23.3112763,19.6124483 23.5520201,19.2726974 23.7975788,18.9347347 C23.9059136,18.784529 24.0166557,18.6343234 24.1273979,18.4841177 C24.3745616,18.1533076 24.6273426,17.8242857 24.885741,17.4970519 C24.9916682,17.3602574 25.100003,17.2288275 25.2107451,17.0893508 L25.3094501,16.9686498 C25.4635262,16.7782105 25.6200096,16.5877712 25.7764931,16.4000141 L25.8294568,16.3383225 C26.0027923,16.1317897 26.1785353,15.9279391 26.3590932,15.7240886 C27.1848445,14.7799387 28.0443,13.870658 28.9494968,13.0042932 C29.3041927,12.6627541 29.6637035,12.3274736 30.0280292,11.9984517 C30.2543284,11.7946011 30.483035,11.5961151 30.7117417,11.397629 C30.7390943,11.3704679 30.7680483,11.3453776 30.7984095,11.3225262 C31.0391533,11.1159934 31.2798971,10.9148251 31.5206409,10.716339 C31.7613848,10.517853 32.0189807,10.3140024 32.2717617,10.1155164 L32.2862063,10.1155164 C32.5438022,9.91434806 32.8038056,9.71854424 33.0614015,9.52274043 C33.3189974,9.32693662 33.586223,9.13917954 33.8486338,8.95142245 C34.3766653,8.57769645 34.9127215,8.22006392 35.4568026,7.87852485 C35.7288431,7.70686123 36.0008836,7.53519761 36.2753316,7.36889848 C36.5497796,7.20259936 36.8242275,7.03898247 37.1034904,6.88073007 C37.2479367,6.79489827 37.3971979,6.71443094 37.5440516,6.63396362 C39.3521272,5.6069912 41.2243584,4.72671756 43.1461605,4 C42.4046695,4.59277593 23.2366457,14.5224433 24.0118409,35.2669185 C16.8198462,38.1697912 10.9811052,44.1790025 7.81459589,51.9370651 C6.57276123,60.3623862 9.10924965,68.9316233 14.6059794,74.8809804 C19.1519401,79.8811472 25.2915829,82.6696147 31.6795319,82.6353478 L104.752507,82.6353478 C107.912332,82.6403659 111.042966,81.961715 113.970588,80.637076 Z" id="Path" fill="#7BB2FF"></path>
            </g>
            <g id="github-copy-9" transform="translate(85.000000, 0.000000)" fill="#000000">
                <path d="M43.9998003,0 C22.4216805,0.00091750745 4.02868252,16.0476783 0.572148944,37.8879579 C-2.88438463,59.7282375 9.61576832,80.9157115 30.0862219,87.9136382 C32.2860111,88.308466 33.110932,86.9551253 33.110932,85.7707775 C33.110932,84.6993922 33.0558933,81.1467094 33.0558933,77.3685526 C22.0019088,79.4549772 19.1421829,74.6055254 18.2622673,72.0679271 C17.285894,69.599915 15.7381214,67.4128068 13.7526995,65.6956005 C12.2128471,64.8497344 10.0130579,62.7632646 13.6976608,62.7069638 C16.5530149,63.0246668 19.0777576,64.7505032 20.4620564,67.3308965 C21.677358,69.5695385 23.711575,71.2201885 26.1156577,71.9184686 C28.5197404,72.6167488 31.0960029,72.30524 33.2757402,71.0527073 C33.4662026,68.7592713 34.4630086,66.6149645 36.0805594,65.0190429 C26.2914977,63.8912214 16.0624781,60.0000569 16.0624781,42.7445689 C16.000654,38.2610072 17.6141449,33.9230983 20.5720459,30.6204882 C19.2270147,26.7237272 19.3843927,22.4473182 21.0120037,18.6655806 C21.0120037,18.6655806 24.6965185,17.481323 33.110844,23.2896486 C40.3098215,21.2594496 47.9097581,21.2594496 55.1087356,23.2896486 C63.5228411,17.424977 67.2075759,18.6655806 67.2075759,18.6655806 C68.8354078,22.447266 68.9927891,26.7237622 67.6475337,30.6204882 C70.6143418,33.9174457 72.2292415,38.2591421 72.1571015,42.7445689 C72.1571015,60.0564931 61.8729992,63.8912214 52.0840255,65.0190429 C54.2085491,67.2270386 55.2923291,70.2728174 55.0537408,73.3649218 C55.0537408,79.3988568 54.9987021,84.2483087 54.9987021,85.7709579 C54.9987021,86.9552156 55.823623,88.3649473 58.0234122,87.9138187 C78.4561354,80.8593752 90.8989155,59.6681079 87.4187114,37.8507592 C83.9385074,16.0334105 65.5596516,0.0115060173 43.9998003,0 Z" id="Path"></path>
            </g>
        </g>
        <g id="Group-3" transform="translate(553.000000, 220.000000)">
            <g id="Group">
                <g id="Oval">
                    <use fill="black" fill-opacity="1" filter="url(#filter-5)" xlink:href="#path-4"></use>
                    <circle stroke="#0055C2" stroke-width="5" stroke-linejoin="square" fill="#FFFFFF" fill-rule="evenodd" cx="63.5" cy="63.5" r="61"></circle>
                </g>
                <circle id="Oval-Copy" stroke="#0055C2" stroke-width="5" fill="#FFFFFF" cx="63.5" cy="63.5" r="47"></circle>
            </g>
            <text id="PAT" font-family="Helvetica-Bold, Helvetica" font-size="36" font-weight="bold" fill="#0055C2">
                <tspan x="30.1542969" y="77">PAT</tspan>
            </text>
        </g>
        <g id="Group-5-Copy-3" transform="translate(399.500000, 287.500000) rotate(-180.000000) translate(-399.500000, -287.500000) translate(255.000000, 248.000000)" fill="#C5DDFF">
            <rect id="Rectangle" transform="translate(139.000000, 38.500000) rotate(-540.000000) translate(-139.000000, -38.500000) " x="0" y="17" width="278" height="43"></rect>
            <path d="M279.451725,29.7287216 L314.76299,47.6078428 C315.255714,47.8573237 315.452903,48.4590004 315.203422,48.9517251 C315.033142,49.2880268 314.688218,49.5 314.311264,49.5 L243.688736,49.5 C243.136451,49.5 242.688736,49.0522847 242.688736,48.5 C242.688736,48.1230466 242.900709,47.7781222 243.23701,47.6078428 L278.548275,29.7287216 C278.832261,29.5849311 279.167739,29.5849311 279.451725,29.7287216 Z" id="Triangle-Copy" transform="translate(279.000000, 39.500000) scale(-1, 1) rotate(-450.000000) translate(-279.000000, -39.500000) "></path>
        </g>
        <g id="Group-5" transform="translate(321.000000, 220.000000)">
            <rect id="Rectangle-Copy-2" stroke="#0055C2" fill="#0055C2" x="0.5" y="0.5" width="164" height="133" rx="6"></rect>
            <path d="M49.085,42.252 C48.959,41.391 48.917,40.761 48.917,39.543 L48.917,34.797 L57.359,34.797 L57.359,39.543 C57.359,40.782 57.317,41.433 57.191,42.252 L60.32,42.252 C60.194,41.37 60.152,40.761 60.152,39.543 L60.152,28.224 C60.152,27.027 60.194,26.397 60.32,25.536 L57.191,25.536 C57.317,26.292 57.359,27.048 57.359,28.245 L57.359,32.277 L48.917,32.277 L48.917,28.224 C48.917,27.111 48.959,26.418 49.085,25.536 L45.956,25.536 C46.082,26.355 46.124,27.006 46.124,28.245 L46.124,39.543 C46.124,40.782 46.082,41.454 45.956,42.252 L49.085,42.252 Z M70.841,42.252 C70.715,41.391 70.673,40.656 70.673,39.522 L70.673,28.056 L73.298,28.056 C74.81,28.056 75.608,28.098 76.385,28.203 L76.385,25.389 C75.6402,25.487 74.9136933,25.53012 73.590824,25.5354338 L64.982,25.536 C63.785,25.536 62.882,25.494 62.126,25.389 L62.126,28.203 C62.861,28.098 63.764,28.056 65.003,28.056 L67.838,28.056 L67.838,39.522 C67.838,40.656 67.796,41.37 67.67,42.252 L70.841,42.252 Z M85.73,42.252 C85.604,41.391 85.562,40.656 85.562,39.522 L85.562,28.056 L88.187,28.056 C89.699,28.056 90.497,28.098 91.274,28.203 L91.274,25.389 C90.5292,25.487 89.8026933,25.53012 88.479824,25.5354338 L79.871,25.536 C78.674,25.536 77.771,25.494 77.015,25.389 L77.015,28.203 C77.75,28.098 78.653,28.056 79.892,28.056 L82.727,28.056 L82.727,39.522 C82.727,40.656 82.685,41.37 82.559,42.252 L85.73,42.252 Z M96.188,42.252 C96.062,41.454 96.02,40.656 96.02,39.522 L96.02,36.015 L100.031,36.015 C102.047,36.015 103.475,35.532 104.504,34.503 C105.428,33.537 105.911,32.235 105.911,30.639 C105.911,29.127 105.47,27.867 104.609,27.027 C103.601,26.019 102.173,25.536 100.136,25.536 L95.747,25.536 C94.634,25.536 93.983,25.515 93.08,25.473 C93.206,26.418 93.248,27.174 93.248,28.182 L93.248,39.543 C93.248,40.677 93.206,41.412 93.08,42.252 L96.188,42.252 Z M100.031,33.6 L96.02,33.6 L96.02,27.951 L100.031,27.951 C101.144,27.951 101.837,28.182 102.32,28.707 C102.782,29.19 103.013,29.883 103.013,30.723 C103.013,32.571 101.963,33.6 100.031,33.6 Z M114.122,42.588 C116.369,42.588 118.028,42.063 119.141,40.992 C120.002,40.131 120.464,38.913 120.464,37.422 C120.464,35.847 119.918,34.692 118.721,33.81 C117.965,33.285 116.957,32.886 115.298,32.529 C113.38325,32.09775 112.927973,31.9924018 112.570366,31.8637749 L112.478397,31.8294624 C112.432625,31.8118125 112.3865,31.79325 112.337,31.773 C111.371,31.353 110.909,30.744 110.909,29.862 C110.909,28.497 112.148,27.573 113.975,27.573 C115.13,27.573 116.054,27.93 116.6,28.581 C116.957,29.001 117.104,29.358 117.23,30.072 L120.233,29.715 C119.981,28.602 119.729,27.972 119.204,27.279 C118.175,25.893 116.369,25.158 113.975,25.158 C110.363,25.158 108.011,27.048 108.011,29.967 C108.011,31.374 108.557,32.529 109.628,33.369 C110.384,33.957 111.224,34.293 112.799,34.65 C115.697,35.322 115.823,35.343 116.453,35.679 C117.104,36.036 117.503,36.75 117.503,37.611 C117.503,39.186 116.243,40.131 114.143,40.131 C112.778,40.131 111.686,39.69 111.077,38.892 C110.699,38.409 110.573,37.989 110.489,37.044 L107.465,37.359 C107.591,38.22 107.675,38.619 107.864,39.102 C108.263,40.131 108.872,40.929 109.712,41.496 C110.72,42.168 112.4,42.588 114.122,42.588 Z" id="HTTPS-Copy" fill="#FFFFFF" fill-rule="nonzero"></path>
            <g id="https-copy" transform="translate(62.000000, 66.000000)" fill="#FFFFFF" fill-rule="nonzero">
                <path d="M29.5684234,20.6851412 C29.5677701,21.2844834 29.0876017,21.7701948 28.4950524,21.7709028 L28.3087621,21.7709028 L28.3087621,19.5410532 L28.4950524,19.5410532 C29.0443548,19.5410532 29.5684234,19.9645833 29.5684234,20.6851412 Z M1.35483871,10.962963 L40.6451613,10.962963 C41.393418,10.962963 42,11.5764987 42,12.3333333 L42,32.8888889 C42,35.1593929 40.1802541,37 37.9354839,37 L4.06451613,37 C1.81974586,37 0,35.1593929 0,32.8888889 L0,12.3333333 C0,11.5764987 0.606581952,10.962963 1.35483871,10.962963 Z M8.38306452,18.1706829 C8.38306452,17.4138482 7.77648256,16.8003125 7.02822581,16.8003125 C6.27996905,16.8003125 5.6733871,17.4138482 5.6733871,18.1706829 L5.6733871,20.6412037 L4.48790323,20.6412037 L4.48790323,18.1706829 C4.48790323,17.4138482 3.88132127,16.8003125 3.13306452,16.8003125 C2.38480776,16.8003125 1.77822581,17.4138482 1.77822581,18.1706829 L1.77822581,25.8524653 C1.77822581,26.6092999 2.38480776,27.2228356 3.13306452,27.2228356 C3.88132127,27.2228356 4.48790323,26.6092999 4.48790323,25.8524653 L4.48790323,23.3819444 L5.6733871,23.3819444 L5.6733871,25.8524653 C5.6733871,26.6092999 6.27996905,27.2228356 7.02822581,27.2228356 C7.77648256,27.2228356 8.38306452,26.6092999 8.38306452,25.8524653 L8.38306452,18.1706829 Z M16.4274194,18.1574074 C16.4274194,17.4005728 15.8208374,16.787037 15.0725806,16.787037 L11.0080645,16.787037 C10.2598078,16.787037 9.65322581,17.4005728 9.65322581,18.1574074 C9.65322581,18.9142421 10.2598078,19.5277778 11.0080645,19.5277778 L11.6854839,19.5277778 L11.6854839,25.8657407 C11.6854839,26.6225754 12.2920658,27.2361111 13.0403226,27.2361111 C13.7885793,27.2361111 14.3951613,26.6225754 14.3951613,25.8657407 L14.3951613,19.5277778 L15.0725806,19.5277778 C15.8208374,19.5277778 16.4274194,18.9142421 16.4274194,18.1574074 Z M24.3870968,18.1574074 C24.3870968,17.4005728 23.7805148,16.787037 23.0322581,16.787037 L18.9677419,16.787037 C18.2194852,16.787037 17.6129032,17.4005728 17.6129032,18.1574074 C17.6129032,18.9142421 18.2194852,19.5277778 18.9677419,19.5277778 L19.6451613,19.5277778 L19.6451613,25.8657407 C19.6451613,26.6225754 20.2517432,27.2361111 21,27.2361111 C21.7482568,27.2361111 22.3548387,26.6225754 22.3548387,25.8657407 L22.3548387,19.5277778 L23.0322581,19.5277778 C23.7805148,19.5277778 24.3870968,18.9142421 24.3870968,18.1574074 Z M28.4950524,16.8003125 L26.9539234,16.8003125 C26.2056666,16.8003125 25.5990847,17.4138482 25.5990847,18.1706829 L25.5990847,25.8524653 C25.5990847,26.6092999 26.2056666,27.2228356 26.9539234,27.2228356 C27.7021801,27.2228356 28.3087621,26.6092999 28.3087621,25.8524653 L28.3087621,24.5116435 C30.7969234,24.5116435 32.2782702,22.6380903 32.2782702,20.6851412 C32.2781008,18.4212037 30.5076653,16.8003125 28.4950524,16.8003125 Z M36.3266129,20.0809792 C36.3271256,19.7831906 36.5656672,19.5419144 36.8600806,19.5413958 L38.8669355,19.5413958 C39.6151922,19.5413958 40.2217742,18.9278601 40.2217742,18.1710255 C40.2217742,17.4141908 39.6151922,16.8006551 38.8669355,16.8006551 L36.8600806,16.8006551 C35.9966629,16.8015085 35.1691504,17.1502234 34.5605394,17.7696849 C33.9519284,18.3891465 33.6123633,19.2283164 33.6168899,20.1016204 C33.6168899,21.7912014 34.9125,23.3819444 36.978629,23.3819444 C37.2744045,23.3884106 37.5108422,23.6327837 37.5108422,23.9320197 C37.5108422,24.2312557 37.2744045,24.4756287 36.978629,24.4820949 L34.9717742,24.4820949 C34.2235174,24.4820949 33.6168899,25.0956306 33.6168899,25.8524653 C33.6168899,26.6092999 34.2235174,27.2228356 34.9717742,27.2228356 L36.978629,27.2228356 C38.7688595,27.2206177 40.2195813,25.753265 40.2217742,23.9425116 C40.2217742,22.2 38.9033468,20.6412037 36.8600806,20.6412037 C36.7150785,20.6410214 36.5763724,20.5812576 36.4757824,20.4756223 C36.3751924,20.3699871 36.3213521,20.2275471 36.3266129,20.0809792 L36.3266129,20.0809792 Z M40.6451613,8.22222222 L1.35483871,8.22222222 C0.606581952,8.22222222 0,7.60868651 0,6.85185185 L0,4.11111111 C0,1.84060714 1.81974586,0 4.06451613,0 L37.9354839,0 C40.1802541,0 42,1.84060714 42,4.11111111 L42,6.85185185 C42,7.60868651 41.393418,8.22222222 40.6451613,8.22222222 Z M13.2833468,5.96881944 C13.8052233,6.0745432 14.3399563,5.86140766 14.6502302,5.42400271 C14.9605042,4.98659777 14.9888346,4.40596153 14.7226485,3.9397813 C14.4564624,3.47360106 13.9450761,3.20824614 13.4154435,3.26148148 C11.8949758,3.40948148 11.7425565,5.63222222 13.2833468,5.96881944 Z M9.35092742,5.98851852 C9.89629629,6.04301481 10.420414,5.75983054 10.6788532,5.27103147 C10.9372923,4.7822324 10.8791494,4.18409487 10.5315399,3.7555662 C10.1839304,3.32703753 9.61532132,3.15252289 9.09088903,3.3134089 C8.56645675,3.47429492 8.18949612,3.93889266 8.13580645,4.49053241 C8.0627599,5.24346748 8.60659732,5.91390353 9.35092742,5.98851852 L9.35092742,5.98851852 Z M5.93758065,5.89002315 C7.53400403,5.2171713 6.64040323,2.82381944 5.02560484,3.31458333 C4.54729162,3.46119365 4.18772558,3.86239666 4.09027886,4.35821803 C3.99283213,4.8540394 4.17335384,5.36383672 4.5598634,5.68433514 C4.94637295,6.00483356 5.47600683,6.08390591 5.93758065,5.89002315 L5.93758065,5.89002315 Z" id="Shape"></path>
            </g>
        </g>
        <g id="laptop-copy-2" transform="translate(634.000000, 347.000000)" fill-rule="nonzero">
            <path d="M99.8656361,0 L14.1343639,0 C10.1866825,0 7,3.20172346 7,7.1680376 L7,53.8319624 C7,55.528398 7.59453032,57.0575793 8.56956005,58.3000392 C9.85374554,59.9486878 11.8751486,61 14.1343639,61 L100.079667,61 C102.219976,60.9283196 104.146254,59.9009009 105.43044,58.3239326 C106.40547,57.0814728 107,55.528398 107,53.8319624 L107,7.1680376 C107,3.20172346 103.789536,0 99.8656361,0 Z M14.1343639,56.2213083 C12.8263971,56.2213083 11.7562426,55.1461026 11.7562426,53.8319624 L11.7562426,7.1680376 C11.7562426,5.83000392 12.8263971,4.77869174 14.1343639,4.77869174 L99.8656361,4.77869174 C101.173603,4.77869174 102.243757,5.83000392 102.243757,7.1680376 L102.243757,53.8319624 C102.243757,55.1461026 101.173603,56.2213083 99.8656361,56.2213083 L14.1343639,56.2213083 Z" id="Shape" fill="#0055C2"></path>
            <path d="M102,6.41523456 L102,53.5847654 C102,54.9131444 100.923784,56 99.60841,56 L13.39159,56 C12.0762155,56 11,54.9131444 11,53.5847654 L11,6.41523456 C11,5.0627032 12.0762155,4 13.39159,4 L99.60841,4 C100.923784,4 102,5.0627032 102,6.41523456 Z" id="Path" fill="#FFFFFF"></path>
            <path d="M114.822348,90.5479155 L108.760674,63.169464 C108.401286,61.5397943 107.514797,60.1196535 106.292878,59.0487277 C104.855327,57.7682729 102.962552,57 100.902062,57 L14.073979,57 C12.0374483,57 10.1207136,57.7682729 8.70712175,59.0254467 C7.46124418,60.0963725 6.57475437,61.5165133 6.21536661,63.169464 L0.177652237,90.5479155 C-0.325490627,92.8527342 0.249529789,95.2506768 1.78291757,97.0898755 C3.31630534,98.9290742 5.59242783,100 8.0362646,100 L106.963735,100 C109.407572,100 111.683695,98.9290742 113.217082,97.0898755 C114.75047,95.2506768 115.325491,92.8527342 114.822348,90.5479155 Z M109.47945,94.15647 C108.856511,94.9014618 107.946062,95.3438008 106.963735,95.3438008 L8.0362646,95.3438008 C7.05393805,95.3438008 6.11952987,94.9014618 5.49659109,94.15647 C4.89761149,93.4114781 4.65801965,92.4569572 4.84969312,91.5257174 L10.9113667,64.1472658 C11.2228361,62.7038441 12.5645504,61.6561992 14.073979,61.6561992 L100.902062,61.6561992 C102.43545,61.6561992 103.777164,62.7038441 104.088633,64.1472658 L110.126348,91.5257174 C110.34198,92.4569572 110.102389,93.4114781 109.47945,94.15647 Z" id="Shape" fill="#0055C2"></path>
            <path d="M110.921247,92.0331724 L104.79298,63.5881161 C104.461189,62.0760729 103.114607,60.9985478 101.558617,61.0000015 L13.4283031,61.0000015 C11.8962363,61.0000015 10.5343992,62.0884617 10.2182585,63.5881161 L4.06567309,92.0331724 C3.87112494,93.0006913 4.11431013,93.9923982 4.72227312,94.7664134 C5.35455462,95.5404285 6.30297688,96.0000015 7.30003617,96.0000015 L107.711203,96.0000015 C108.708262,96.0000015 109.632366,95.5404285 110.264647,94.7664134 C110.896929,93.9923982 111.140114,93.0006913 110.921247,92.0331724 L110.921247,92.0331724 Z M17.3529947,67.5625012 L97.6470053,67.5625012 C99.0103966,67.5625012 100.081633,68.5468762 100.081633,69.7500011 C100.081633,70.9531261 99.0103966,71.937501 97.6470053,71.937501 L17.3529947,71.937501 C16.0139497,71.937501 14.9183673,70.9531261 14.9183673,69.7500011 C14.9183673,68.5468762 16.0139497,67.5625012 17.3529947,67.5625012 Z M62.6977447,87.2500004 L10.8124594,87.2500004 C9.46764752,87.2500004 8.36734694,86.2875004 8.36734694,85.0625005 C8.36734694,83.8593755 9.46764752,82.8750006 10.8124594,82.8750006 L62.6977447,82.8750006 C64.0425566,82.8750006 65.1428571,83.8593755 65.1428571,85.0625005 C65.1428571,86.2875004 64.0425566,87.2500004 62.6977447,87.2500004 L62.6977447,87.2500004 Z M99.7795132,87.2500004 L76.3633439,87.2500004 C74.9961578,87.2500004 73.877551,86.2875004 73.877551,85.0625005 C73.877551,83.8593755 74.9961578,82.8750006 76.3633439,82.8750006 L99.7795132,82.8750006 C101.146699,82.8750006 102.265306,83.8593755 102.265306,85.0625005 C102.265306,86.2875004 101.146699,87.2500004 99.7795132,87.2500004 Z" id="Shape" fill="#D0E8F9"></path>
            <path d="M99.8372093,69.2222222 C99.8372093,70.4444444 98.7762176,71.4444444 97.4258646,71.4444444 L17.8997168,71.4444444 C16.5734772,71.4444444 15.4883721,70.4444444 15.4883721,69.2222222 C15.4883721,68 16.5734772,67 17.8997168,67 L97.4258646,67 C98.7762176,67 99.8372093,68 99.8372093,69.2222222 Z M65.2325581,84.7777778 C65.2325581,86.0222222 64.1427799,87 62.8108287,87 L11.4217295,87 C10.0897783,87 9,86.0222222 9,84.7777778 C9,83.5555556 10.0897783,82.5555556 11.4217295,82.5555556 L62.8108287,82.5555556 C64.1427799,82.5555556 65.2325581,83.5555556 65.2325581,84.7777778 Z M102,84.7777778 C102,86.0222222 100.892091,87 99.5379791,87 L76.3457419,87 C74.9916304,87 73.8837209,86.0222222 73.8837209,84.7777778 C73.8837209,83.5555556 74.9916304,82.5555556 76.3457419,82.5555556 L99.5379791,82.5555556 C100.892091,82.5555556 102,83.5555556 102,84.7777778 Z" id="Shape" fill="#0055C2"></path>
            <path d="M28,56 L44.742365,56 L67.1304348,4 L50.3880698,4 L28,56 Z M55.3794572,56 L78,4 L72.3593328,4 L49.7391304,56 L55.3794572,56 Z" id="Shape" fill="#C5DDFF"></path>
        </g>
    </g>
</svg>