<svg width="800" height="600" viewBox="0 0 800 600" fill="none" xmlns="http://www.w3.org/2000/svg">
<g clip-path="url(#clip0_5189_12353)">
<rect width="800" height="600" fill="url(#paint0_linear_5189_12353)"/>
<path d="M341.805 287.391C340.893 283.458 338.667 280.711 335.125 279.148C333.146 278.289 330.945 277.859 328.523 277.859C323.888 277.859 320.073 279.617 317.078 283.133C314.109 286.622 312.625 291.883 312.625 298.914C312.625 305.997 314.24 311.01 317.469 313.953C320.698 316.896 324.37 318.367 328.484 318.367C332.521 318.367 335.828 317.208 338.406 314.891C340.984 312.547 342.573 309.487 343.172 305.711H329.852V296.102H353.836V327H345.867L344.656 319.812C342.339 322.547 340.255 324.474 338.406 325.594C335.229 327.547 331.323 328.523 326.688 328.523C319.057 328.523 312.807 325.88 307.938 320.594C302.859 315.281 300.32 308.016 300.32 298.797C300.32 289.474 302.885 282 308.016 276.375C313.146 270.75 319.93 267.938 328.367 267.938C335.685 267.938 341.557 269.799 345.984 273.523C350.438 277.221 352.99 281.844 353.641 287.391H341.805ZM375.906 279.344H364.617V269.07H375.906V279.344ZM364.617 284.422H375.906V327H364.617V284.422ZM382.352 292.742V284.812H388.289V272.938H399.305V284.812H406.219V292.742H399.305V315.242C399.305 316.987 399.526 318.081 399.969 318.523C400.411 318.94 401.766 319.148 404.031 319.148C404.37 319.148 404.721 319.148 405.086 319.148C405.477 319.122 405.854 319.096 406.219 319.07V327.391L400.945 327.586C395.685 327.768 392.091 326.857 390.164 324.852C388.914 323.576 388.289 321.609 388.289 318.953V292.742H382.352ZM434.773 311.805C434.773 308.341 435.633 305.372 437.352 302.898C439.07 300.424 441.883 297.977 445.789 295.555L447 294.812C445.333 292.938 444.044 291.023 443.133 289.07C442.221 287.117 441.766 285.086 441.766 282.977C441.766 278.784 443.172 275.516 445.984 273.172C448.797 270.802 452.443 269.617 456.922 269.617C461.01 269.617 464.383 270.828 467.039 273.25C469.721 275.646 471.062 278.719 471.062 282.469C471.062 285.854 470.255 288.602 468.641 290.711C467.052 292.82 464.708 294.773 461.609 296.57L469.773 306.648C470.711 305.294 471.427 303.823 471.922 302.234C472.443 300.646 472.716 298.966 472.742 297.195H482.625C482.469 300.685 481.635 304.214 480.125 307.781C479.292 309.786 477.938 312 476.062 314.422L486.531 327H473.016L469.031 322.117C467.104 323.914 465.307 325.242 463.641 326.102C460.672 327.638 457.247 328.406 453.367 328.406C447.534 328.406 442.977 326.688 439.695 323.25C436.414 319.812 434.773 315.997 434.773 311.805ZM452 282.586C452 283.628 452.365 284.721 453.094 285.867C453.562 286.622 454.578 287.964 456.141 289.891C457.703 288.797 458.823 287.872 459.5 287.117C460.802 285.711 461.453 284.188 461.453 282.547C461.453 281.349 461.062 280.281 460.281 279.344C459.5 278.406 458.315 277.938 456.727 277.938C455.737 277.938 454.812 278.211 453.953 278.758C452.651 279.565 452 280.841 452 282.586ZM445.867 311.453C445.867 313.354 446.635 315.099 448.172 316.688C449.734 318.276 451.727 319.07 454.148 319.07C455.971 319.07 457.69 318.654 459.305 317.82C460.945 316.961 462.273 316.01 463.289 314.969L452.742 301.922C449.956 303.771 448.107 305.398 447.195 306.805C446.31 308.211 445.867 309.76 445.867 311.453ZM555.32 287.391C554.409 283.458 552.182 280.711 548.641 279.148C546.661 278.289 544.461 277.859 542.039 277.859C537.404 277.859 533.589 279.617 530.594 283.133C527.625 286.622 526.141 291.883 526.141 298.914C526.141 305.997 527.755 311.01 530.984 313.953C534.214 316.896 537.885 318.367 542 318.367C546.036 318.367 549.344 317.208 551.922 314.891C554.5 312.547 556.089 309.487 556.688 305.711H543.367V296.102H567.352V327H559.383L558.172 319.812C555.854 322.547 553.771 324.474 551.922 325.594C548.745 327.547 544.839 328.523 540.203 328.523C532.573 328.523 526.323 325.88 521.453 320.594C516.375 315.281 513.836 308.016 513.836 298.797C513.836 289.474 516.401 282 521.531 276.375C526.661 270.75 533.445 267.938 541.883 267.938C549.201 267.938 555.073 269.799 559.5 273.523C563.953 277.221 566.505 281.844 567.156 287.391H555.32ZM589.422 279.344H578.133V269.07H589.422V279.344ZM578.133 284.422H589.422V327H578.133V284.422ZM595.867 292.742V284.812H601.805V272.938H612.82V284.812H619.734V292.742H612.82V315.242C612.82 316.987 613.042 318.081 613.484 318.523C613.927 318.94 615.281 319.148 617.547 319.148C617.885 319.148 618.237 319.148 618.602 319.148C618.992 319.122 619.37 319.096 619.734 319.07V327.391L614.461 327.586C609.201 327.768 605.607 326.857 603.68 324.852C602.43 323.576 601.805 321.609 601.805 318.953V292.742H595.867ZM627.703 327V269.422H639.617V291.375H662.117V269.422H674.07V327H662.117V301.297H639.617V327H627.703ZM695.789 284.422V310.086C695.789 312.508 696.076 314.331 696.648 315.555C697.664 317.716 699.656 318.797 702.625 318.797C706.427 318.797 709.031 317.26 710.438 314.188C711.167 312.521 711.531 310.32 711.531 307.586V284.422H722.82V327H712V320.984C711.896 321.115 711.635 321.505 711.219 322.156C710.802 322.807 710.307 323.38 709.734 323.875C707.99 325.438 706.297 326.505 704.656 327.078C703.042 327.651 701.141 327.938 698.953 327.938C692.651 327.938 688.406 325.672 686.219 321.141C684.995 318.641 684.383 314.956 684.383 310.086V284.422H695.789ZM756.609 283.484C762.208 283.484 766.583 285.503 769.734 289.539C772.911 293.576 774.5 298.784 774.5 305.164C774.5 311.779 772.938 317.26 769.812 321.609C766.688 325.958 762.326 328.133 756.727 328.133C753.211 328.133 750.385 327.43 748.25 326.023C746.974 325.19 745.594 323.732 744.109 321.648V327H733.211V269.5H744.305V289.969C745.711 287.99 747.26 286.479 748.953 285.438C750.958 284.135 753.51 283.484 756.609 283.484ZM753.758 318.953C756.622 318.953 758.849 317.794 760.438 315.477C762.026 313.159 762.82 310.112 762.82 306.336C762.82 303.315 762.43 300.815 761.648 298.836C760.164 295.086 757.43 293.211 753.445 293.211C749.409 293.211 746.635 295.047 745.125 298.719C744.344 300.672 743.953 303.198 743.953 306.297C743.953 309.943 744.76 312.964 746.375 315.359C747.99 317.755 750.451 318.953 753.758 318.953ZM303.289 361.422H315.125V385.133L337.352 361.422H352.898L329.305 385.133L354.109 419H338.641L320.867 393.844L315.125 399.742V419H303.289V361.422ZM376.805 384.469C374.227 384.469 372.221 385.276 370.789 386.891C369.383 388.505 368.497 390.693 368.133 393.453H385.438C385.255 390.51 384.357 388.284 382.742 386.773C381.154 385.237 379.174 384.469 376.805 384.469ZM376.805 375.289C380.346 375.289 383.536 375.953 386.375 377.281C389.214 378.609 391.557 380.706 393.406 383.57C395.073 386.096 396.154 389.026 396.648 392.359C396.935 394.312 397.052 397.125 397 400.797H367.859C368.016 405.068 369.357 408.062 371.883 409.781C373.419 410.849 375.268 411.383 377.43 411.383C379.721 411.383 381.583 410.732 383.016 409.43C383.797 408.727 384.487 407.75 385.086 406.5H396.453C396.167 409.026 394.852 411.591 392.508 414.195C388.862 418.336 383.758 420.406 377.195 420.406C371.779 420.406 367 418.661 362.859 415.172C358.719 411.682 356.648 406.005 356.648 398.141C356.648 390.771 358.51 385.12 362.234 381.188C365.984 377.255 370.841 375.289 376.805 375.289ZM406.258 427.164L407.664 427.242C408.758 427.294 409.799 427.255 410.789 427.125C411.779 426.995 412.612 426.695 413.289 426.227C413.94 425.784 414.539 424.859 415.086 423.453C415.659 422.047 415.893 421.188 415.789 420.875L400.164 376.422H412.547L421.844 407.828L430.633 376.422H442.469L427.859 418.297C425.047 426.37 422.82 431.37 421.18 433.297C419.539 435.25 416.258 436.227 411.336 436.227C410.346 436.227 409.552 436.214 408.953 436.188C408.354 436.188 407.456 436.148 406.258 436.07V427.164ZM300.594 482.68C300.594 472.628 303.289 464.88 308.68 459.438C313.367 454.698 319.331 452.328 326.57 452.328C336.258 452.328 343.341 455.505 347.82 461.859C350.294 465.427 351.622 469.008 351.805 472.602H339.773C338.992 469.841 337.99 467.758 336.766 466.352C334.578 463.852 331.336 462.602 327.039 462.602C322.664 462.602 319.214 464.372 316.688 467.914C314.161 471.43 312.898 476.417 312.898 482.875C312.898 489.333 314.227 494.177 316.883 497.406C319.565 500.609 322.964 502.211 327.078 502.211C331.297 502.211 334.513 500.831 336.727 498.07C337.951 496.586 338.966 494.359 339.773 491.391H351.688C350.646 497.667 347.977 502.771 343.68 506.703C339.409 510.635 333.927 512.602 327.234 512.602C318.953 512.602 312.443 509.945 307.703 504.633C302.964 499.294 300.594 491.977 300.594 482.68ZM379.109 503.148C382.365 503.148 384.865 501.99 386.609 499.672C388.354 497.354 389.227 494.06 389.227 489.789C389.227 485.518 388.354 482.237 386.609 479.945C384.865 477.628 382.365 476.469 379.109 476.469C375.854 476.469 373.341 477.628 371.57 479.945C369.826 482.237 368.953 485.518 368.953 489.789C368.953 494.06 369.826 497.354 371.57 499.672C373.341 501.99 375.854 503.148 379.109 503.148ZM400.906 489.789C400.906 496.039 399.109 501.391 395.516 505.844C391.922 510.271 386.466 512.484 379.148 512.484C371.831 512.484 366.375 510.271 362.781 505.844C359.188 501.391 357.391 496.039 357.391 489.789C357.391 483.643 359.188 478.318 362.781 473.812C366.375 469.307 371.831 467.055 379.148 467.055C386.466 467.055 391.922 469.307 395.516 473.812C399.109 478.318 400.906 483.643 400.906 489.789ZM432.508 467.406C436.909 467.406 440.503 468.565 443.289 470.883C446.102 473.174 447.508 476.99 447.508 482.328V511H436.102V485.102C436.102 482.862 435.802 481.143 435.203 479.945C434.109 477.758 432.026 476.664 428.953 476.664C425.177 476.664 422.586 478.266 421.18 481.469C420.451 483.161 420.086 485.323 420.086 487.953V511H408.992V468.5H419.734V474.711C421.167 472.523 422.521 470.948 423.797 469.984C426.089 468.266 428.992 467.406 432.508 467.406ZM483.25 483.695C483.042 482.107 482.508 480.674 481.648 479.398C480.398 477.68 478.458 476.82 475.828 476.82C472.078 476.82 469.513 478.682 468.133 482.406C467.404 484.385 467.039 487.016 467.039 490.297C467.039 493.422 467.404 495.935 468.133 497.836C469.461 501.378 471.961 503.148 475.633 503.148C478.237 503.148 480.086 502.445 481.18 501.039C482.273 499.633 482.938 497.81 483.172 495.57H494.539C494.279 498.956 493.055 502.159 490.867 505.18C487.378 510.049 482.208 512.484 475.359 512.484C468.51 512.484 463.471 510.453 460.242 506.391C457.013 502.328 455.398 497.055 455.398 490.57C455.398 483.253 457.182 477.562 460.75 473.5C464.318 469.438 469.24 467.406 475.516 467.406C480.854 467.406 485.216 468.604 488.602 471C492.013 473.396 494.031 477.628 494.656 483.695H483.25ZM519.148 476.469C516.57 476.469 514.565 477.276 513.133 478.891C511.727 480.505 510.841 482.693 510.477 485.453H527.781C527.599 482.51 526.701 480.284 525.086 478.773C523.497 477.237 521.518 476.469 519.148 476.469ZM519.148 467.289C522.69 467.289 525.88 467.953 528.719 469.281C531.557 470.609 533.901 472.706 535.75 475.57C537.417 478.096 538.497 481.026 538.992 484.359C539.279 486.312 539.396 489.125 539.344 492.797H510.203C510.359 497.068 511.701 500.062 514.227 501.781C515.763 502.849 517.612 503.383 519.773 503.383C522.065 503.383 523.927 502.732 525.359 501.43C526.141 500.727 526.831 499.75 527.43 498.5H538.797C538.51 501.026 537.195 503.591 534.852 506.195C531.206 510.336 526.102 512.406 519.539 512.406C514.122 512.406 509.344 510.661 505.203 507.172C501.062 503.682 498.992 498.005 498.992 490.141C498.992 482.771 500.854 477.12 504.578 473.188C508.328 469.255 513.185 467.289 519.148 467.289ZM576.219 489.711C576.219 486.43 575.464 483.526 573.953 481C572.469 478.474 570.047 477.211 566.688 477.211C562.651 477.211 559.878 479.125 558.367 482.953C557.586 484.984 557.195 487.562 557.195 490.688C557.195 495.635 558.51 499.112 561.141 501.117C562.703 502.289 564.552 502.875 566.688 502.875C569.786 502.875 572.143 501.677 573.758 499.281C575.398 496.885 576.219 493.695 576.219 489.711ZM569.891 467.484C574.865 467.484 579.07 469.32 582.508 472.992C585.971 476.664 587.703 482.055 587.703 489.164C587.703 496.664 586.01 502.38 582.625 506.312C579.266 510.245 574.93 512.211 569.617 512.211C566.232 512.211 563.419 511.365 561.18 509.672C559.956 508.734 558.758 507.367 557.586 505.57V527.758H546.57V468.422H557.234V474.711C558.432 472.862 559.708 471.404 561.062 470.336C563.536 468.435 566.479 467.484 569.891 467.484ZM591.414 476.742V468.812H597.352V456.938H608.367V468.812H615.281V476.742H608.367V499.242C608.367 500.987 608.589 502.081 609.031 502.523C609.474 502.94 610.828 503.148 613.094 503.148C613.432 503.148 613.784 503.148 614.148 503.148C614.539 503.122 614.917 503.096 615.281 503.07V511.391L610.008 511.586C604.747 511.768 601.154 510.857 599.227 508.852C597.977 507.576 597.352 505.609 597.352 502.953V476.742H591.414ZM631.102 497.406C631.336 499.385 631.844 500.792 632.625 501.625C634.005 503.109 636.557 503.852 640.281 503.852C642.469 503.852 644.201 503.526 645.477 502.875C646.779 502.224 647.43 501.247 647.43 499.945C647.43 498.695 646.909 497.745 645.867 497.094C644.826 496.443 640.958 495.323 634.266 493.734C629.448 492.536 626.049 491.039 624.07 489.242C622.091 487.471 621.102 484.919 621.102 481.586C621.102 477.654 622.638 474.281 625.711 471.469C628.81 468.63 633.159 467.211 638.758 467.211C644.07 467.211 648.393 468.279 651.727 470.414C655.086 472.523 657.013 476.182 657.508 481.391H646.375C646.219 479.958 645.815 478.826 645.164 477.992C643.94 476.482 641.857 475.727 638.914 475.727C636.492 475.727 634.76 476.104 633.719 476.859C632.703 477.615 632.195 478.5 632.195 479.516C632.195 480.792 632.742 481.716 633.836 482.289C634.93 482.888 638.797 483.917 645.438 485.375C649.865 486.417 653.185 487.992 655.398 490.102C657.586 492.237 658.68 494.906 658.68 498.109C658.68 502.328 657.104 505.779 653.953 508.461C650.828 511.117 645.984 512.445 639.422 512.445C632.729 512.445 627.781 511.039 624.578 508.227C621.401 505.388 619.812 501.781 619.812 497.406H631.102Z" fill="white" fill-opacity="0.8"/>
<path d="M331.668 110.566C331.668 126.842 333.003 139.31 335.672 147.969C338.341 156.562 343.81 160.859 352.078 160.859C360.346 160.859 365.75 156.562 368.289 147.969C370.893 139.31 372.195 126.842 372.195 110.566C372.195 93.5091 370.893 80.8789 368.289 72.6758C365.75 64.4727 360.346 60.3711 352.078 60.3711C343.81 60.3711 338.341 64.4727 335.672 72.6758C333.003 80.8789 331.668 93.5091 331.668 110.566ZM352.078 37.4219C370.112 37.4219 382.742 43.7695 389.969 56.4648C397.26 69.1602 400.906 87.194 400.906 110.566C400.906 133.939 397.26 151.94 389.969 164.57C382.742 177.201 370.112 183.516 352.078 183.516C334.044 183.516 321.382 177.201 314.09 164.57C306.863 151.94 303.25 133.939 303.25 110.566C303.25 87.194 306.863 69.1602 314.09 56.4648C321.382 43.7695 334.044 37.4219 352.078 37.4219ZM422.195 82.3438V63.3984C430.984 63.0078 437.137 62.4219 440.652 61.6406C446.251 60.4036 450.809 57.9297 454.324 54.2188C456.733 51.6797 458.556 48.2943 459.793 44.0625C460.509 41.5234 460.867 39.6354 460.867 38.3984H484.012V180H455.496V82.3438H422.195Z" fill="white" fill-opacity="0.5"/>
<circle cx="73" cy="300" r="173" fill="white"/>
<circle cx="132.5" cy="111.5" r="19.5" fill="white"/>
<circle cx="172" cy="76" r="10" fill="white"/>
<circle cx="212.5" cy="60.5" r="7.5" fill="white"/>
<circle cx="246.5" cy="56.5" r="5.5" fill="white"/>
<circle cx="270.5" cy="62.5" r="4.5" fill="white"/>
<circle cx="288.5" cy="76.5" r="3.5" fill="white"/>
<path d="M42.1621 368.176C41.752 366.406 40.75 365.17 39.1562 364.467C38.2656 364.08 37.2754 363.887 36.1855 363.887C34.0996 363.887 32.3828 364.678 31.0352 366.26C29.6992 367.83 29.0312 370.197 29.0312 373.361C29.0312 376.549 29.7578 378.805 31.2109 380.129C32.6641 381.453 34.3164 382.115 36.168 382.115C37.9844 382.115 39.4727 381.594 40.6328 380.551C41.793 379.496 42.5078 378.119 42.7773 376.42H36.7832V372.096H47.5762V386H43.9902L43.4453 382.766C42.4023 383.996 41.4648 384.863 40.6328 385.367C39.2031 386.246 37.4453 386.686 35.3594 386.686C31.9258 386.686 29.1133 385.496 26.9219 383.117C24.6367 380.727 23.4941 377.457 23.4941 373.309C23.4941 369.113 24.6484 365.75 26.957 363.219C29.2656 360.688 32.3184 359.422 36.1152 359.422C39.4082 359.422 42.0508 360.26 44.043 361.936C46.0469 363.6 47.1953 365.68 47.4883 368.176H42.1621ZM57.5078 364.555H52.4277V359.932H57.5078V364.555ZM52.4277 366.84H57.5078V386H52.4277V366.84ZM60.4082 370.584V367.016H63.0801V361.672H68.0371V367.016H71.1484V370.584H68.0371V380.709C68.0371 381.494 68.1367 381.986 68.3359 382.186C68.5352 382.373 69.1445 382.467 70.1641 382.467C70.3164 382.467 70.4746 382.467 70.6387 382.467C70.8145 382.455 70.9844 382.443 71.1484 382.432V386.176L68.7754 386.264C66.4082 386.346 64.791 385.936 63.9238 385.033C63.3613 384.459 63.0801 383.574 63.0801 382.379V370.584H60.4082ZM74.7344 386V360.09H80.0957V369.969H90.2207V360.09H95.5996V386H90.2207V374.434H80.0957V386H74.7344ZM105.373 366.84V378.389C105.373 379.479 105.502 380.299 105.76 380.85C106.217 381.822 107.113 382.309 108.449 382.309C110.16 382.309 111.332 381.617 111.965 380.234C112.293 379.484 112.457 378.494 112.457 377.264V366.84H117.537V386H112.668V383.293C112.621 383.352 112.504 383.527 112.316 383.82C112.129 384.113 111.906 384.371 111.648 384.594C110.863 385.297 110.102 385.777 109.363 386.035C108.637 386.293 107.781 386.422 106.797 386.422C103.961 386.422 102.051 385.402 101.066 383.363C100.516 382.238 100.24 380.58 100.24 378.389V366.84H105.373ZM132.742 366.418C135.262 366.418 137.23 367.326 138.648 369.143C140.078 370.959 140.793 373.303 140.793 376.174C140.793 379.15 140.09 381.617 138.684 383.574C137.277 385.531 135.314 386.51 132.795 386.51C131.213 386.51 129.941 386.193 128.98 385.561C128.406 385.186 127.785 384.529 127.117 383.592V386H122.213V360.125H127.205V369.336C127.838 368.445 128.535 367.766 129.297 367.297C130.199 366.711 131.348 366.418 132.742 366.418ZM131.459 382.379C132.748 382.379 133.75 381.857 134.465 380.814C135.18 379.771 135.537 378.4 135.537 376.701C135.537 375.342 135.361 374.217 135.01 373.326C134.342 371.639 133.111 370.795 131.318 370.795C129.502 370.795 128.254 371.621 127.574 373.273C127.223 374.152 127.047 375.289 127.047 376.684C127.047 378.324 127.41 379.684 128.137 380.762C128.863 381.84 129.971 382.379 131.459 382.379Z" fill="#363636"/>
<path fill-rule="evenodd" clip-rule="evenodd" d="M97.5328 219.551C97.5328 221.853 98.843 223.186 101.107 223.186C103.41 223.186 104.72 221.853 104.719 219.551C104.719 217.252 103.41 216 101.107 216C98.843 216 97.5328 217.253 97.5328 219.551ZM90.4686 230.52C91.1828 231.449 91.9384 232.741 91.9384 234.598C91.9384 239.078 88.4841 241.702 83.4826 241.702C82.2107 241.702 81.0592 241.542 80.3451 241.34L79.0349 243.479L82.9248 243.72L83.1521 243.735C89.8828 244.171 93.8423 244.427 93.8423 249.734C93.8423 254.378 89.8334 257 82.9248 257C75.7385 257 73 255.143 73 251.955C73 250.138 73.7948 249.171 75.184 247.837C73.873 247.274 73.4373 246.265 73.4373 245.175C73.4373 244.286 73.8737 243.479 74.5887 242.712C75.3037 241.946 76.0976 241.177 77.0496 240.29C75.1042 239.321 73.636 237.222 73.636 234.234C73.636 229.592 76.653 226.405 82.7269 226.405C84.4345 226.405 85.4679 226.564 86.3799 226.809H94.1224V230.239L90.4686 230.52ZM79.2742 234.114C79.2742 231.489 80.9004 230.399 83.0844 230.399C85.3474 230.399 86.6983 231.651 86.6983 234.032C86.6983 236.132 85.1886 237.464 82.9671 237.464C80.3459 237.464 79.2742 236.091 79.2742 234.114ZM77.6863 251.069C77.6863 250.26 78.2018 249.575 78.7189 248.93L84.5135 249.332L84.5862 249.337C86.4581 249.456 87.9295 249.55 87.9295 250.827C87.9295 253.004 84.7928 253.168 82.4908 253.168C79.7099 253.168 77.6863 252.683 77.6863 251.069ZM95.984 247.445V244.257L98.01 243.975C98.5653 243.894 98.6443 243.773 98.6443 243.166V231.299C98.6443 230.856 98.5262 230.572 98.1281 230.451L95.984 229.684L96.4205 226.416H104.64V243.167C104.64 243.814 104.678 243.894 105.275 243.976L107.3 244.258V247.446H95.984V247.445ZM116.527 247.494C118.792 247.494 121.292 246.725 123 245.879L121.928 242.327C120.976 242.69 119.826 242.972 118.713 242.972C116.569 242.972 116.013 242.044 116.013 239.663V230.016H121.928V225.979H116.331C116.013 225.979 116.013 225.857 116.013 225.575V219.842H112.241C111.804 224.242 110.416 226.018 106.921 226.422V230.015H109.699C110.017 230.015 110.017 230.177 110.017 230.418V240.994C110.017 245.558 111.803 247.494 116.527 247.494Z" fill="#31251C"/>
<path d="M63.2074 235.129L44.8697 216.792C43.8146 215.736 42.1016 215.736 41.0456 216.792L37.2377 220.6L42.067 225.43C43.1906 225.051 44.4772 225.305 45.3719 226.201C46.2715 227.101 46.5238 228.399 46.1353 229.526L50.7904 234.181C51.9157 233.793 53.216 234.044 54.1155 234.944C55.373 236.201 55.373 238.238 54.1155 239.496C52.8572 240.753 50.8211 240.753 49.5636 239.496C48.618 238.549 48.3843 237.16 48.8631 235.996L44.5215 231.654L44.5207 243.08C44.8278 243.231 45.1164 243.433 45.3719 243.687C46.6294 244.944 46.6294 246.98 45.3719 248.239C44.1144 249.496 42.0766 249.496 40.8207 248.239C39.5632 246.98 39.5632 244.944 40.8207 243.687C41.1319 243.377 41.4906 243.142 41.8743 242.985V231.454C41.4906 231.298 41.1319 231.064 40.8207 230.752C39.8679 229.8 39.639 228.403 40.1275 227.233L35.3668 222.471L22.7926 235.044C21.7358 236.101 21.7358 237.814 22.7926 238.871L41.1303 257.208C42.1863 258.264 43.8984 258.264 44.956 257.208L63.2074 238.955C64.2642 237.899 64.2642 236.185 63.2074 235.129V235.129Z" fill="#F34F29"/>
<path d="M84.4999 291C70.5231 291.001 58.6095 301.212 56.3706 315.111C54.1317 329.009 62.2284 342.492 75.4877 346.945C76.9125 347.196 77.4469 346.335 77.4469 345.581C77.4469 344.9 77.4112 342.639 77.4112 340.235C70.2512 341.562 68.3989 338.476 67.829 336.861C67.1965 335.291 66.194 333.899 64.908 332.806C63.9106 332.268 62.4857 330.94 64.8723 330.904C66.7218 331.107 68.3572 332.205 69.2538 333.847C70.041 335.272 71.3586 336.322 72.9158 336.766C74.473 337.211 76.1417 337.012 77.5536 336.215C77.677 334.756 78.3226 333.391 79.3704 332.376C73.0297 331.658 66.4041 329.182 66.4041 318.201C66.3641 315.348 67.4092 312.587 69.3251 310.486C68.4539 308.006 68.5558 305.285 69.61 302.878C69.61 302.878 71.9966 302.124 77.4468 305.821C82.1098 304.529 87.0325 304.529 91.6954 305.821C97.1455 302.089 99.5322 302.878 99.5322 302.878C100.587 305.285 100.689 308.006 99.8172 310.486C101.739 312.584 102.785 315.347 102.738 318.201C102.738 329.218 96.0768 331.658 89.7362 332.376C91.1124 333.781 91.8143 335.719 91.6598 337.687C91.6598 341.527 91.6242 344.613 91.6242 345.582C91.6242 346.335 92.1585 347.232 93.5833 346.945C106.818 342.456 114.878 328.971 112.623 315.087C110.369 301.203 98.4648 291.007 84.4999 291Z" fill="black"/>
<path d="M741.435 592.713C741.435 593.599 742.138 594.276 742.998 594.276C743.883 594.276 744.587 593.599 744.587 592.713V576.563C744.587 575.703 743.883 575 742.998 575C742.112 575 741.435 575.703 741.435 576.563V592.713Z" fill="white"/>
<path d="M748.654 576.849C748.654 577.787 749.435 578.412 750.451 578.412C751.467 578.412 752.248 577.787 752.248 576.849V576.693C752.248 575.755 751.467 575.156 750.451 575.156C749.435 575.156 748.654 575.755 748.654 576.693V576.849ZM748.888 592.713C748.888 593.599 749.591 594.276 750.451 594.276C751.337 594.276 752.04 593.599 752.04 592.713V581.825C752.04 580.939 751.337 580.236 750.451 580.236C749.565 580.236 748.888 580.939 748.888 581.825V592.713Z" fill="white"/>
<path d="M756.159 592.713C756.159 593.573 756.863 594.276 757.722 594.276C758.608 594.276 759.311 593.573 759.311 592.713V592.01C760.275 593.287 761.708 594.433 764 594.433C767.256 594.433 770.382 591.854 770.382 587.295V587.243C770.382 582.658 767.23 580.106 764 580.106C761.76 580.106 760.327 581.252 759.311 582.685V576.563C759.311 575.677 758.608 575 757.722 575C756.837 575 756.159 575.677 756.159 576.563V592.713ZM763.245 591.698C761.109 591.698 759.233 589.926 759.233 587.295V587.243C759.233 584.612 761.109 582.841 763.245 582.841C765.381 582.841 767.178 584.586 767.178 587.243V587.295C767.178 590.004 765.407 591.698 763.245 591.698Z" fill="white"/>
<path d="M773.818 592.713C773.818 593.599 774.521 594.276 775.381 594.276C776.267 594.276 776.97 593.599 776.97 592.713V576.563C776.97 575.703 776.267 575 775.381 575C774.495 575 773.818 575.703 773.818 576.563V592.713Z" fill="white"/>
<path d="M787.628 594.459C791.874 594.459 795 591.203 795 587.295V587.243C795 583.31 791.9 580.106 787.68 580.106C783.46 580.106 780.334 583.362 780.334 587.295V587.347C780.334 591.255 783.434 594.459 787.628 594.459ZM787.68 591.698C785.231 591.698 783.486 589.692 783.486 587.295V587.243C783.486 584.847 785.101 582.867 787.628 582.867C790.102 582.867 791.848 584.873 791.848 587.295V587.347C791.848 589.718 790.233 591.698 787.68 591.698Z" fill="white"/>
<path d="M736.96 590.09C735.74 590.65 734.453 591.047 733.208 591.294C728.074 592.315 725.36 589.099 729.634 586.781C730.099 586.529 730.632 586.291 731.228 586.075L732.011 585.826C732.241 585.763 732.463 585.662 732.534 585.515C732.905 584.723 729.731 584.467 727.622 585.589C728.458 585.431 729.186 585.408 729.668 585.609C724.878 586.845 723.788 590.757 726.335 592.642C727.649 593.615 729.127 593.873 731.832 593.682C733.637 593.555 735.48 592.837 736.96 591.969V590.09Z" fill="white"/>
<path d="M734.542 592.784C734.542 593.607 735.171 594.165 736.03 594.165C736.89 594.165 737.478 593.644 737.478 592.784V586.011C737.478 584.214 737.009 582.755 735.993 581.765C735.029 580.776 733.492 580.229 731.434 580.229C729.637 580.229 728.308 580.541 727.006 581.036C726.537 581.218 726.146 581.713 726.146 582.286C726.146 583.016 726.745 583.589 727.475 583.589C727.631 583.589 727.787 583.563 727.97 583.511C728.829 583.172 729.819 582.964 731.018 582.964C733.232 582.964 734.43 584.006 734.43 585.959V585.968L734.542 592.784Z" fill="white"/>
<path d="M733.611 578.379C733.611 578.591 733.273 578.721 732.805 578.721C732.077 578.721 731.583 578.64 730.984 578.282L729.216 577.24C728.956 577.093 728.774 576.93 728.774 576.751C728.774 576.442 729.814 576.116 730.646 576.116C731.192 576.116 731.609 576.296 731.895 576.589L733.377 578.021C733.481 578.119 733.611 578.266 733.611 578.379Z" fill="white"/>
</g>
<defs>
<linearGradient id="paint0_linear_5189_12353" x1="800" y1="-1.86968e-05" x2="1.22566" y2="601.627" gradientUnits="userSpaceOnUse">
<stop stop-color="#0087B1"/>
<stop offset="1" stop-color="#001B23"/>
</linearGradient>
<clipPath id="clip0_5189_12353">
<rect width="800" height="600" fill="white"/>
</clipPath>
</defs>
</svg>
