<?xml version="1.0" encoding="UTF-8"?>
<svg width="800px" height="600px" viewBox="0 0 800 600" version="1.1" xmlns="http://www.w3.org/2000/svg" xmlns:xlink="http://www.w3.org/1999/xlink">
    <title>2041-10-11-16-10_WhatYouCanDoBeyondCodingCollaborationOnGitHub</title>
    <defs>
        <path d="M8.68744595,14.5405413 C10.6544909,13.5649687 12,11.5915112 12,9.31636202 C12,6.07252388 9.26504479,3.44227578 5.89152197,3.44227578 C4.52034181,3.44227578 3.25480793,3.87689217 2.23537065,4.61058921 L2.23537065,1.05770107 C2.23537065,0.476155373 1.74046224,0 1.11695169,0 C0.493934821,0 0.0167986821,0.476630104 0.0167986821,1.05770107 L0.0167986821,1.80184219 L0,9.32158406 C-0.0041824725,11.2003327 0.951817666,12.865215 2.41753644,13.8939574 C2.4777647,13.9362085 2.55848043,13.9312238 2.6127846,13.8823265 C2.66758244,13.8334292 2.6779496,13.7558106 2.63746831,13.6950451 C0.724974359,10.8146136 1.16014819,5.53963813 5.89176881,5.53963813 C8.05899866,5.53963813 9.80709909,7.22944376 9.81623206,9.31351363 C9.82240299,10.8599505 9.11620201,12.0365717 8.19549958,12.7781018 C6.36026565,14.2561773 3.64974731,12.6382934 4.49738595,10.4697214 C4.5894562,10.2335427 4.71879884,9.9959397 4.88664808,9.76189723 L5.12361171,9.47705853 C5.19766284,9.39967734 5.25048599,9.29903433 5.2146946,9.19411874 C5.01401603,8.62800181 3.46832203,8.97526767 3.04005964,10.0315445 C3.34292878,9.79631524 3.65986763,9.66433998 3.96940137,9.71489885 C2.38890334,11.275815 3.44141679,13.9563846 5.46005069,14.7513219 C6.40494316,15.1232738 7.55964718,15.0976383 8.68744595,14.5405413" id="path-1"></path>
        <linearGradient x1="28.568518%" y1="104.445731%" x2="78.3472072%" y2="20.6880271%" id="linearGradient-3">
            <stop stop-color="#000F98" offset="0%"></stop>
            <stop stop-color="#00A5FD" offset="100%"></stop>
        </linearGradient>
    </defs>
    <g id="2041-10-11-16-10_WhatYouCanDoBeyondCodingCollaborationOnGitHub" stroke="none" stroke-width="1" fill="none" fill-rule="evenodd">
        <rect fill="#FFFFFF" x="0" y="0" width="800" height="600"></rect>
        <g id="bloovee-winner-logo" transform="translate(725.000000, 580.000000)">
            <path d="M13,13.7751507 C13,14.396312 13.4732558,14.8717809 14.0514961,14.8717809 C14.6474304,14.8717809 15.1204503,14.3968042 15.1204503,13.7751507 L15.1204503,2.09687626 C15.1204503,1.49368045 14.6474304,1 14.0514961,1 C13.4557977,1 13,1.49392656 13,2.09687626 L13,13.7751507 Z M21.7920364,15 C24.6483217,15 26.751078,12.7149437 26.751078,9.97312215 L26.751078,9.93645297 C26.751078,7.17641992 24.6657798,4.92778666 21.8269526,4.92778666 C18.9881254,4.92778666 16.885369,7.212843 16.885369,9.97312215 L16.885369,10.0095452 C16.885369,12.7516128 18.9706673,15 21.7920364,15 Z M21.8269526,13.0621935 C20.179994,13.0621935 19.0055834,11.6547366 19.0055834,9.97312215 L19.0055834,9.93645297 C19.0055834,8.25459244 20.0919958,6.86534709 21.7920364,6.86534709 C23.456689,6.86534709 24.6306277,8.27305008 24.6306277,9.97312215 L24.6306277,10.0095452 C24.6306277,11.6731942 23.5444513,13.0621935 21.8269526,13.0621935 Z M32.8092717,15 C35.665557,15 37.7683133,12.7149437 37.7683133,9.97312215 L37.7683133,9.93645297 C37.7683133,7.17641992 35.6830151,4.92778666 32.8441878,4.92778666 C30.0053606,4.92778666 27.9026043,7.212843 27.9026043,9.97312215 L27.9026043,10.0095452 C27.9026043,12.7516128 29.9879025,15 32.8092717,15 Z M32.8441878,13.0621935 C31.1969933,13.0621935 30.0228187,11.6547366 30.0228187,9.97312215 L30.0228187,9.93645297 C30.0228187,8.25459244 31.109231,6.86534709 32.8092717,6.86534709 C34.4739243,6.86534709 35.647863,8.27305008 35.647863,9.97312215 L35.647863,10.0095452 C35.647863,11.6731942 34.5614506,13.0621935 32.8441878,13.0621935 Z M44.1416963,13.9944275 L47.2261164,6.6096472 C47.2784906,6.49988574 47.3487948,6.28060893 47.3487948,6.07954366 C47.3487948,5.47610175 46.8929971,5.01933658 46.3147568,5.01933658 C45.7539746,5.01933658 45.4737015,5.40300947 45.3158709,5.78692847 L42.8976893,12.2215093 L40.5144239,5.82335156 C40.3393711,5.36634029 40.041404,5.01933658 39.4629278,5.01933658 C38.8846875,5.01933658 38.4116676,5.53098247 38.4116676,6.07954366 C38.4116676,6.28060893 38.4817358,6.46346265 38.534346,6.62785874 L41.6182943,13.9944275 C41.8638872,14.5796579 42.2491448,14.9633308 42.8273851,14.9633308 L42.9326055,14.9633308 C43.5108458,14.9633308 43.8965752,14.5612003 44.1416963,13.9944275 Z M50.0949054,9.27837643 C50.2876522,7.77961573 51.1987758,6.73762019 52.4956289,6.73762019 C53.8974665,6.73762019 54.7036056,7.8524619 54.8437422,9.27837643 L50.0949054,9.27837643 Z M56.070527,13.72027 C56.2281217,13.5558739 56.3508002,13.3181395 56.3508002,13.0439819 C56.3508002,12.5320899 55.9830006,12.1481709 55.5095089,12.1481709 C55.2641519,12.1481709 55.1242513,12.2215093 54.9664207,12.3492362 C54.3704864,12.8611282 53.6695676,13.1901665 52.7759021,13.1901665 C51.4089807,13.1901665 50.3402624,12.3128131 50.1123635,10.7409601 L55.9126964,10.7409601 C56.4560206,10.7409601 56.9115824,10.3021604 56.9115824,9.68050697 C56.9115824,7.45057746 55.4568987,4.92778666 52.513087,4.92778666 C49.8672425,4.92778666 47.9919132,7.19438536 47.9919132,9.95466451 L47.9919132,9.9913337 C47.9919132,12.9708897 50.0597533,15 52.7409859,15 C54.1779755,15 55.2292357,14.5063195 56.070527,13.72027 Z M60.1833231,9.27837643 C60.3763058,7.77961573 61.2871935,6.73762019 62.5842825,6.73762019 C63.9858841,6.73762019 64.7920233,7.8524619 64.9321598,9.27837643 L60.1833231,9.27837643 Z M66.1589447,13.72027 C66.3167752,13.5558739 66.4394537,13.3181395 66.4394537,13.0439819 C66.4394537,12.5320899 66.0714183,12.1481709 65.5981624,12.1481709 C65.3528055,12.1481709 65.2126689,12.2215093 65.0548383,12.3492362 C64.4591399,12.8611282 63.7582212,13.1901665 62.8643197,13.1901665 C61.4976342,13.1901665 60.4289159,12.3128131 60.2007812,10.7409601 L66.0011141,10.7409601 C66.5444382,10.7409601 67,10.3021604 67,9.68050697 C67,7.45057746 65.5455522,4.92778666 62.6015046,4.92778666 C59.9556601,4.92778666 58.0805667,7.19438536 58.0805667,9.95466451 L58.0805667,9.9913337 C58.0805667,12.9708897 60.1484069,15 62.8294035,15 C64.2663932,15 65.3178893,14.5063195 66.1589447,13.72027 L66.1589447,13.72027 Z" id="Fill-1" fill="#030060"></path>
            <g id="Group-4">
                <mask id="mask-2" fill="white">
                    <use xlink:href="#path-1"></use>
                </mask>
                <g id="Clip-3"></g>
                <path d="M8.68744595,14.5405413 C10.6544909,13.5649687 12,11.5915112 12,9.31636202 C12,6.07252388 9.26504479,3.44227578 5.89152197,3.44227578 C4.52034181,3.44227578 3.25480793,3.87689217 2.23537065,4.61058921 L2.23537065,1.05770107 C2.23537065,0.476155373 1.74046224,0 1.11695169,0 C0.493934821,0 0.0167986821,0.476630104 0.0167986821,1.05770107 L0.0167986821,1.80184219 L0,9.32158406 C-0.0041824725,11.2003327 0.951817666,12.865215 2.41753644,13.8939574 C2.4777647,13.9362085 2.55848043,13.9312238 2.6127846,13.8823265 C2.66758244,13.8334292 2.6779496,13.7558106 2.63746831,13.6950451 C0.724974359,10.8146136 1.16014819,5.53963813 5.89176881,5.53963813 C8.05899866,5.53963813 9.80709909,7.22944376 9.81623206,9.31351363 C9.82240299,10.8599505 9.11620201,12.0365717 8.19549958,12.7781018 C6.36026565,14.2561773 3.64974731,12.6382934 4.49738595,10.4697214 C4.5894562,10.2335427 4.71879884,9.9959397 4.88664808,9.76189723 L5.12361171,9.47705853 C5.19766284,9.39967734 5.25048599,9.29903433 5.2146946,9.19411874 C5.01401603,8.62800181 3.46832203,8.97526767 3.04005964,10.0315445 C3.34292878,9.79631524 3.65986763,9.66433998 3.96940137,9.71489885 C2.38890334,11.275815 3.44141679,13.9563846 5.46005069,14.7513219 C6.40494316,15.1232738 7.55964718,15.0976383 8.68744595,14.5405413" id="Fill-2" fill="url(#linearGradient-3)" mask="url(#mask-2)"></path>
            </g>
        </g>
        <text id="What-You-Can-Do-Beyo" fill-rule="nonzero" font-family="Helvetica" font-size="18" font-weight="normal" fill="#0055C2">
            <tspan x="10" y="23">What You Can Do Beyond Coding Collaboration On GitHub</tspan>
        </text>
        <g id="github-copy" transform="translate(748.000000, 3.000000)" fill="#000000" fill-rule="nonzero">
            <path d="M22.9998956,0 C11.7204239,0.000469179946 2.10590223,8.20619911 0.299077857,19.3745239 C-1.50774651,30.5428487 5.02642435,41.3773525 15.7268887,44.9558377 C16.8767785,45.1577383 17.3079872,44.4656891 17.3079872,43.8600567 C17.3079872,43.3121892 17.279217,41.4954764 17.279217,39.5634644 C11.5009978,40.6303861 10.0061411,38.1505528 9.54618516,36.8529173 C9.03580825,35.5908656 8.22674528,34.472458 7.1889111,33.5943411 C6.38398825,33.161796 5.23409847,32.0948512 7.16014086,32.066061 C8.65271236,32.2285228 9.97246422,33.1110528 10.6960749,34.4305721 C11.3313462,35.5753322 12.3946869,36.4194146 13.6513665,36.7764896 C14.9080461,37.1335647 16.2547288,36.9742705 17.3941369,36.3337708 C17.4936968,35.160991 18.0147545,34.0644705 18.8602924,33.2483742 C13.7432829,32.6716473 8.39629538,30.6818473 8.39629538,21.8580182 C8.36397821,19.5652878 9.20739391,17.3470389 10.7535694,15.6582042 C10.0504849,13.6655423 10.1327507,11.4787423 10.9835474,9.54489918 C10.9835474,9.54489918 12.9095438,8.93931288 17.3079412,11.9094794 C21.0710431,10.8713094 25.0437372,10.8713094 28.806839,11.9094794 C33.2051215,8.9104996 35.1312329,9.54489918 35.1312329,9.54489918 C35.982145,11.4787155 36.0644125,13.6655602 35.3612108,15.6582042 C36.9120423,17.3441484 37.7561944,19.564334 37.7184849,21.8580182 C37.7184849,30.7107067 32.3427041,32.6716473 27.2257406,33.2483742 C28.336287,34.3774629 28.9028084,35.9349635 28.7780918,37.5161532 C28.7780918,40.6016882 28.7493216,43.0815215 28.7493216,43.8601489 C28.7493216,44.4657352 29.1805302,45.1866208 30.33042,44.95593 C41.0111617,41.3485442 47.5153422,30.5121007 45.6961446,19.3555019 C43.876947,8.19890308 34.2698179,0.00588375885 22.9998956,0 Z" id="Path"></path>
        </g>
        <g id="Group-5" transform="translate(78.000000, 403.000000)">
            <g id="github-copy-3" transform="translate(66.000000, 15.000000)" fill="#000000" fill-rule="nonzero">
                <path d="M22.9998956,0 C11.7204239,0.000469179946 2.10590223,8.20619911 0.299077857,19.3745239 C-1.50774651,30.5428487 5.02642435,41.3773525 15.7268887,44.9558377 C16.8767785,45.1577383 17.3079872,44.4656891 17.3079872,43.8600567 C17.3079872,43.3121892 17.279217,41.4954764 17.279217,39.5634644 C11.5009978,40.6303861 10.0061411,38.1505528 9.54618516,36.8529173 C9.03580825,35.5908656 8.22674528,34.472458 7.1889111,33.5943411 C6.38398825,33.161796 5.23409847,32.0948512 7.16014086,32.066061 C8.65271236,32.2285228 9.97246422,33.1110528 10.6960749,34.4305721 C11.3313462,35.5753322 12.3946869,36.4194146 13.6513665,36.7764896 C14.9080461,37.1335647 16.2547288,36.9742705 17.3941369,36.3337708 C17.4936968,35.160991 18.0147545,34.0644705 18.8602924,33.2483742 C13.7432829,32.6716473 8.39629538,30.6818473 8.39629538,21.8580182 C8.36397821,19.5652878 9.20739391,17.3470389 10.7535694,15.6582042 C10.0504849,13.6655423 10.1327507,11.4787423 10.9835474,9.54489918 C10.9835474,9.54489918 12.9095438,8.93931288 17.3079412,11.9094794 C21.0710431,10.8713094 25.0437372,10.8713094 28.806839,11.9094794 C33.2051215,8.9104996 35.1312329,9.54489918 35.1312329,9.54489918 C35.982145,11.4787155 36.0644125,13.6655602 35.3612108,15.6582042 C36.9120423,17.3441484 37.7561944,19.564334 37.7184849,21.8580182 C37.7184849,30.7107067 32.3427041,32.6716473 27.2257406,33.2483742 C28.336287,34.3774629 28.9028084,35.9349635 28.7780918,37.5161532 C28.7780918,40.6016882 28.7493216,43.0815215 28.7493216,43.8601489 C28.7493216,44.4657352 29.1805302,45.1866208 30.33042,44.95593 C41.0111617,41.3485442 47.5153422,30.5121007 45.6961446,19.3555019 C43.876947,8.19890308 34.2698179,0.00588375885 22.9998956,0 Z" id="Path"></path>
            </g>
            <g id="desktop">
                <polygon id="Path" points="0 0 61 0 61 61 0 61"></polygon>
                <path d="M53.9090909,5 L8.09090909,5 C5.27818182,5 3,7.28225 3,10.1 L3,40.7 C3,43.51775 5.27818182,45.8 8.09090909,45.8 L25.9090909,45.8 L25.9090909,50.9 L20.8181818,50.9 L20.8181818,56 L41.1818182,56 L41.1818182,50.9 L36.0909091,50.9 L36.0909091,45.8 L53.9090909,45.8 C56.7218182,45.8 59,43.51775 59,40.7 L59,10.1 C59,7.28225 56.7218182,5 53.9090909,5 Z M53.9090909,40.7 L8.09090909,40.7 L8.09090909,10.1 L53.9090909,10.1 L53.9090909,40.7 Z" id="Shape" fill="#000000" fill-rule="nonzero"></path>
            </g>
        </g>
        <text id="GitHub-Desktop" font-family="Helvetica-Bold, Helvetica" font-size="21" font-weight="bold" fill="#000000">
            <tspan x="54.1655273" y="494">GitHub Desktop</tspan>
        </text>
        <g id="Group-3" transform="translate(323.000000, 410.000000)" fill="#000000" fill-rule="nonzero">
            <g id="github-copy-4" transform="translate(59.000000, 8.000000)">
                <path d="M22.9998956,0 C11.7204239,0.000469179946 2.10590223,8.20619911 0.299077857,19.3745239 C-1.50774651,30.5428487 5.02642435,41.3773525 15.7268887,44.9558377 C16.8767785,45.1577383 17.3079872,44.4656891 17.3079872,43.8600567 C17.3079872,43.3121892 17.279217,41.4954764 17.279217,39.5634644 C11.5009978,40.6303861 10.0061411,38.1505528 9.54618516,36.8529173 C9.03580825,35.5908656 8.22674528,34.472458 7.1889111,33.5943411 C6.38398825,33.161796 5.23409847,32.0948512 7.16014086,32.066061 C8.65271236,32.2285228 9.97246422,33.1110528 10.6960749,34.4305721 C11.3313462,35.5753322 12.3946869,36.4194146 13.6513665,36.7764896 C14.9080461,37.1335647 16.2547288,36.9742705 17.3941369,36.3337708 C17.4936968,35.160991 18.0147545,34.0644705 18.8602924,33.2483742 C13.7432829,32.6716473 8.39629538,30.6818473 8.39629538,21.8580182 C8.36397821,19.5652878 9.20739391,17.3470389 10.7535694,15.6582042 C10.0504849,13.6655423 10.1327507,11.4787423 10.9835474,9.54489918 C10.9835474,9.54489918 12.9095438,8.93931288 17.3079412,11.9094794 C21.0710431,10.8713094 25.0437372,10.8713094 28.806839,11.9094794 C33.2051215,8.9104996 35.1312329,9.54489918 35.1312329,9.54489918 C35.982145,11.4787155 36.0644125,13.6655602 35.3612108,15.6582042 C36.9120423,17.3441484 37.7561944,19.564334 37.7184849,21.8580182 C37.7184849,30.7107067 32.3427041,32.6716473 27.2257406,33.2483742 C28.336287,34.3774629 28.9028084,35.9349635 28.7780918,37.5161532 C28.7780918,40.6016882 28.7493216,43.0815215 28.7493216,43.8601489 C28.7493216,44.4657352 29.1805302,45.1866208 30.33042,44.95593 C41.0111617,41.3485442 47.5153422,30.5121007 45.6961446,19.3555019 C43.876947,8.19890308 34.2698179,0.00588375885 22.9998956,0 Z" id="Path"></path>
            </g>
            <g id="command-line-(1)">
                <path d="M1.47222222,47 L51.5277778,47 C52.3410333,47 53,46.3425875 53,45.53125 L53,4.40625 C53,1.97635 51.0189778,0 48.5833333,0 L4.41666667,0 C1.98102222,0 0,1.97635 0,4.40625 L0,45.53125 C0,46.3425875 0.658966667,47 1.47222222,47 Z M2.94444444,44.0625 L2.94444444,11.75 L50.0555556,11.75 L50.0555556,44.0625 L2.94444444,44.0625 Z M4.41666667,2.9375 L48.5833333,2.9375 C49.3954111,2.9375 50.0555556,3.5960875 50.0555556,4.40625 L50.0555556,8.8125 L2.94444444,8.8125 L2.94444444,4.40625 C2.94444444,3.5960875 3.60458889,2.9375 4.41666667,2.9375 Z" id="Shape"></path>
                <path d="M12.7244766,18.9396994 L8.43873171,14.4396544 C7.880442,13.8534485 6.97643555,13.8534485 6.41871728,14.4396544 C5.86099901,15.0258603 5.86042757,15.9750698 6.41871728,16.5606756 L9.69416924,19.99991 L6.41871728,23.4391444 C5.86042757,24.0253503 5.86042757,24.9745597 6.41871728,25.5601656 C6.69757641,25.8541685 7.06272188,26.00057 7.42843877,26.00057 C7.79415567,26.00057 8.15930114,25.8541685 8.43873171,25.5613656 L12.7244766,21.0613206 C13.2821949,20.4751148 13.2821949,19.5259053 12.7244766,18.9396994 Z M24.5714184,25.99997 L15.9999286,25.99997 C15.2107801,25.99997 14.5713469,26.6713767 14.5713469,27.499985 C14.5713469,28.3285933 15.2107801,29 15.9999286,29 L24.5714184,29 C25.3605669,29 26,28.3285933 26,27.499985 C26,26.6713767 25.3605669,25.99997 24.5714184,25.99997 Z" id="Shape"></path>
            </g>
        </g>
        <text id="GitHub-CLI" font-family="Helvetica-Bold, Helvetica" font-size="21" font-weight="bold" fill="#000000">
            <tspan x="320.67749" y="494">GitHub CLI</tspan>
        </text>
        <g id="task-management-(1)" transform="translate(129.000000, 124.000000)" fill="#0055C2" fill-rule="nonzero">
            <path d="M74.925,7.8 L68.596875,7.8 L68.596875,1.00645161 C68.596875,0.503225806 68.2171875,0 67.584375,0 L61.7625,0 C61.25625,0 60.75,0.377419355 60.75,1.00645161 L60.75,7.8 L52.2703125,7.8 L52.2703125,1.00645161 C52.2703125,0.503225806 51.890625,0 51.2578125,0 L45.4359375,0 C44.9296875,0 44.4234375,0.377419355 44.4234375,1.00645161 L44.4234375,7.8 L35.94375,7.8 L35.94375,1.00645161 C35.94375,0.503225806 35.5640625,0 34.93125,0 L29.109375,0 C28.603125,0 28.096875,0.377419355 28.096875,1.00645161 L28.096875,7.8 L19.6171875,7.8 L19.6171875,1.00645161 C19.6171875,0.503225806 19.2375,0 18.6046875,0 L12.7828125,0 C12.2765625,0 11.7703125,0.377419355 11.7703125,1.00645161 L11.7703125,7.8 L5.4421875,7.8 C2.6578125,7.8 0,10.4419355 0,13.8387097 L0,71.9612903 C0,75.2322581 2.6578125,78 6.075,78 L74.925,78 C78.215625,78 81,75.3580645 81,71.9612903 L81,13.8387097 C81,10.4419355 78.3421875,7.8 74.925,7.8 Z M66.6984375,1.88709677 L66.6984375,14.7193548 L62.775,14.7193548 L62.775,1.88709677 L66.6984375,1.88709677 Z M50.4984375,1.88709677 L50.4984375,14.7193548 L46.575,14.7193548 L46.575,1.88709677 L50.4984375,1.88709677 Z M34.2984375,1.88709677 L34.2984375,14.7193548 L30.375,14.7193548 L30.375,1.88709677 L34.2984375,1.88709677 L34.2984375,1.88709677 Z M18.0984375,1.88709677 L18.0984375,14.7193548 L14.175,14.7193548 L14.175,1.88709677 L18.0984375,1.88709677 Z M1.8984375,13.8387097 C1.8984375,11.5741935 3.796875,9.68709677 6.075,9.68709677 L12.403125,9.68709677 L12.403125,15.8516129 C12.403125,16.3548387 12.7828125,16.8580645 13.415625,16.8580645 L19.2375,16.8580645 C19.74375,16.8580645 20.25,16.4806452 20.25,15.8516129 L20.25,9.68709677 L28.7296875,9.68709677 L28.7296875,15.8516129 C28.7296875,16.3548387 29.109375,16.8580645 29.7421875,16.8580645 L35.5640625,16.8580645 C36.0703125,16.8580645 36.5765625,16.4806452 36.5765625,15.8516129 L36.5765625,9.68709677 L45.05625,9.68709677 L45.05625,15.8516129 C45.05625,16.3548387 45.4359375,16.8580645 46.06875,16.8580645 L51.890625,16.8580645 C52.396875,16.8580645 52.903125,16.4806452 52.903125,15.8516129 L52.903125,9.68709677 L61.3828125,9.68709677 L61.3828125,15.8516129 C61.3828125,16.3548387 61.7625,16.8580645 62.3953125,16.8580645 L68.2171875,16.8580645 C68.7234375,16.8580645 69.2296875,16.4806452 69.2296875,15.8516129 L69.2296875,9.68709677 L75.5578125,9.68709677 C77.8359375,9.68709677 79.734375,11.5741935 79.734375,13.8387097 L79.734375,19.6258065 L2.53125,19.6258065 L2.53125,13.8387097 L1.8984375,13.8387097 Z M74.925,76.1129032 L6.075,76.1129032 C3.796875,76.1129032 1.8984375,74.2258065 1.8984375,71.9612903 L1.8984375,21.5129032 L79.1015625,21.5129032 L79.1015625,71.9612903 C79.1015625,74.2258065 77.203125,76.1129032 74.925,76.1129032 Z" id="Shape"></path>
            <path d="M17.9803922,25 L7.01960784,25 C6.50980392,25 6,25.40625 6,26.0833333 L6,36.9166667 C6,37.4583333 6.38235294,38 7.01960784,38 L17.9803922,38 C18.4901961,38 19,37.59375 19,36.9166667 L19,26.0833333 C18.872549,25.5416667 18.4901961,25 17.9803922,25 Z M16.9607843,35.8333333 L8.03921569,35.8333333 L8.03921569,27.03125 L16.9607843,27.03125 L16.9607843,35.8333333 Z" id="Shape"></path>
            <path d="M12.1624088,33.1803659 C12.2883212,33.3104886 12.540146,33.4406113 12.7919708,33.4406113 C13.0437956,33.4406113 13.2956204,33.3104886 13.4215328,33.0502432 L16.3175182,29.6670526 C16.6952555,29.2766845 16.5693431,28.6260709 16.1916058,28.2357028 C15.8138686,27.8453346 15.1843066,27.9754573 14.8065693,28.3658255 L12.6660584,30.9682797 L11.6587591,30.0574207 C11.2810219,29.6670526 10.6514599,29.6670526 10.2737226,30.0574207 C9.8959854,30.4477889 9.8959854,31.0984025 10.2737226,31.4887706 L12.1624088,33.1803659 Z M74.9927007,29.6670526 L25.5091241,29.6670526 C25.0054745,29.6670526 24.5018248,30.0574207 24.5018248,30.7080343 C24.5018248,31.2285252 24.879562,31.749016 25.5091241,31.749016 L74.9927007,31.749016 C75.4963504,31.749016 76,31.3586479 76,30.7080343 C75.8740876,30.1875435 75.4963504,29.6670526 74.9927007,29.6670526 L74.9927007,29.6670526 Z M18.8357664,41.5082195 L8.00729927,41.5082195 C7.50364964,41.5082195 7,41.8985877 7,42.5492012 L7,52.9590183 C7,53.4795091 7.37773723,54 8.00729927,54 L18.8357664,54 C19.3394161,54 19.8430657,53.6096319 19.8430657,52.9590183 L19.8430657,42.5492012 C19.7171533,41.8985877 19.3394161,41.5082195 18.8357664,41.5082195 Z M17.8284672,51.9180366 L9.01459854,51.9180366 L9.01459854,43.4600602 L17.8284672,43.4600602 L17.8284672,51.9180366 Z" id="Shape"></path>
            <path d="M12.1624088,50.1803659 C12.2883212,50.3104886 12.540146,50.4406113 12.7919708,50.4406113 C13.0437956,50.4406113 13.2956204,50.3104886 13.4215328,50.0502432 L16.3175182,46.6670526 C16.6952555,46.2766845 16.5693431,45.6260709 16.1916058,45.2357028 C15.8138686,44.8453346 15.1843066,44.9754573 14.8065693,45.3658255 L12.6660584,47.9682797 L11.6587591,47.0574207 C11.2810219,46.6670526 10.6514599,46.6670526 10.2737226,47.0574207 C9.8959854,47.4477889 9.8959854,48.0984025 10.2737226,48.4887706 L12.1624088,50.1803659 Z M74.9927007,46.7971753 L25.5091241,46.7971753 C25.0054745,46.7971753 24.5018248,47.1875435 24.5018248,47.838157 C24.5018248,48.3586479 24.879562,48.8791387 25.5091241,48.8791387 L74.9927007,48.8791387 C75.4963504,48.8791387 76,48.4887706 76,47.838157 C75.8740876,47.1875435 75.4963504,46.7971753 74.9927007,46.7971753 L74.9927007,46.7971753 Z M18.8357664,58.6383422 L8.00729927,58.6383422 C7.50364964,58.6383422 7,59.0287104 7,59.6793239 L7,70.089141 C7.12591241,70.4795091 7.50364964,71 8.00729927,71 L18.8357664,71 C19.3394161,71 19.8430657,70.6096319 19.8430657,69.9590183 L19.8430657,59.5492012 C19.7171533,59.0287104 19.3394161,58.6383422 18.8357664,58.6383422 Z M17.8284672,69.0481593 L9.01459854,69.0481593 L9.01459854,60.5901829 L17.8284672,60.5901829 L17.8284672,69.0481593 Z" id="Shape"></path>
            <path d="M11.1387697,66.7129969 C11.2627563,66.8564984 11.5107296,67 11.7587029,67 C12.0066762,67 12.2546495,66.8564984 12.3786361,66.5694953 L15.230329,62.8384544 C15.602289,62.4079497 15.4783023,61.6904418 15.1063424,61.2599371 C14.7343825,60.8294324 14.1144492,60.9729339 13.7424893,61.4034386 L11.6347163,64.2734701 L10.6428231,63.2689591 C10.2708631,62.8384544 9.6509299,62.8384544 9.27896996,63.2689591 C8.90701001,63.6994638 8.90701001,64.4169717 9.27896996,64.8474764 L11.1387697,66.7129969 Z M73.0081068,63.1254575 L24.2813543,63.1254575 C23.7854077,63.1254575 23.2894611,63.5559622 23.2894611,64.2734701 C23.2894611,64.8474764 23.6614211,65.4214827 24.2813543,65.4214827 L73.0081068,65.4214827 C73.5040534,65.4214827 74,64.990978 74,64.2734701 C73.8760134,63.5559622 73.5040534,63.1254575 73.0081068,63.1254575 L73.0081068,63.1254575 Z" id="Shape"></path>
        </g>
        <g id="Group-2" transform="translate(430.827221, 124.000000)" fill="#0055C2" fill-rule="nonzero">
            <g id="Group" transform="translate(16.172779, 12.000000)">
                <path d="M32.0208333,53 L20.9791667,53 C20.3693523,53 19.875,52.5056477 19.875,51.8958333 L19.875,47.1821458 C18.8511963,46.7834656 17.8710696,46.2806374 16.9500625,45.6815833 L16.7369583,45.5535 L12.9264792,49.3639792 C12.4953022,49.7950259 11.7963644,49.7950259 11.3651875,49.3639792 L3.63602083,41.6348125 C3.20497411,41.2036356 3.20497411,40.5046978 3.63602083,40.0735208 L7.4465,36.2630417 L7.31841667,36.0499375 C6.71936264,35.1289304 6.21653435,34.1488037 5.81785417,33.125 L1.10416667,33.125 C0.494352255,33.125 0,32.6306477 0,32.0208333 L0,20.9791667 C0,20.3693523 0.494352255,19.875 1.10416667,19.875 L5.81785417,19.875 C6.21653435,18.8511963 6.71936264,17.8710696 7.31841667,16.9500625 L7.4465,16.7369583 L3.63602083,12.9264792 C3.20497411,12.4953022 3.20497411,11.7963644 3.63602083,11.3651875 L11.3651875,3.63602083 C11.7963644,3.20497411 12.4953022,3.20497411 12.9264792,3.63602083 L16.7369583,7.4465 L16.9500625,7.31841667 C17.8710696,6.71936264 18.8511963,6.21653435 19.875,5.81785417 L19.875,1.10416667 C19.875,0.494352255 20.3693523,0 20.9791667,0 L32.0208333,0 C32.6306477,0 33.125,0.494352255 33.125,1.10416667 L33.125,5.81785417 C34.1488037,6.21653435 35.1289304,6.71936264 36.0499375,7.31841667 L36.2630417,7.4465 L40.0735208,3.63602083 C40.5046978,3.20497411 41.2036356,3.20497411 41.6348125,3.63602083 L49.3639792,11.3651875 C49.7950259,11.7963644 49.7950259,12.4953022 49.3639792,12.9264792 L45.5535,16.7369583 L45.6815833,16.9500625 C46.2806374,17.8710696 46.7834656,18.8511963 47.1821458,19.875 L51.8958333,19.875 C52.5056477,19.875 53,20.3693523 53,20.9791667 L53,32.0208333 C53,32.6306477 52.5056477,33.125 51.8958333,33.125 L47.1821458,33.125 C46.7834656,34.1488037 46.2806374,35.1289304 45.6815833,36.0499375 L45.5535,36.2630417 L49.3639792,40.0735208 C49.7950259,40.5046978 49.7950259,41.2036356 49.3639792,41.6348125 L41.6348125,49.3639792 C41.2036356,49.7950259 40.5046978,49.7950259 40.0735208,49.3639792 L36.2630417,45.5535 L36.0499375,45.6815833 C35.1289304,46.2806374 34.1488037,46.7834656 33.125,47.1821458 L33.125,51.8958333 C33.125,52.5056477 32.6306477,53 32.0208333,53 Z M22.0833333,50.7916667 L30.9166667,50.7916667 L30.9166667,46.375 C30.916565,45.8769412 31.2499125,45.4404686 31.7304375,45.3094792 C32.8582214,44.9628508 33.9286563,44.4516316 34.907125,43.7923542 C35.2207083,43.6013333 35.5442292,43.407 35.8865208,43.2093542 C36.3192902,42.9604182 36.8652577,43.0328517 37.2181458,43.3860208 L40.8541667,47.0220417 L47.0220417,40.8541667 L43.3860208,37.2181458 C43.0328517,36.8652577 42.9604182,36.3192902 43.2093542,35.8865208 C43.407,35.5442292 43.6013333,35.2240208 43.7923542,34.907125 C44.4516316,33.9286563 44.9628508,32.8582214 45.3094792,31.7304375 C45.4404686,31.2499125 45.8769412,30.916565 46.375,30.9166667 L50.7916667,30.9166667 L50.7916667,22.0833333 L46.375,22.0833333 C45.8769412,22.083435 45.4404686,21.7500875 45.3094792,21.2695625 C44.9628508,20.1417786 44.4516316,19.0713437 43.7923542,18.092875 C43.6013333,17.7792917 43.407,17.4557708 43.2093542,17.1134792 C42.9604182,16.6807098 43.0328517,16.1347423 43.3860208,15.7818542 L47.0220417,12.1458333 L40.8541667,5.97795833 L37.2181458,9.61397917 C36.8652577,9.96714825 36.3192902,10.0395818 35.8865208,9.79064583 C35.5442292,9.593 35.2240208,9.39866667 34.907125,9.20764583 C33.9286563,8.5483684 32.8582214,8.03714923 31.7304375,7.69052083 C31.2499125,7.55953138 30.916565,7.12305878 30.9166667,6.625 L30.9166667,2.20833333 L22.0833333,2.20833333 L22.0833333,6.625 C22.083435,7.12305878 21.7500875,7.55953138 21.2695625,7.69052083 C20.1417786,8.03714923 19.0713437,8.5483684 18.092875,9.20764583 C17.7792917,9.39866667 17.4557708,9.593 17.1134792,9.79064583 C16.6807098,10.0395818 16.1347423,9.96714825 15.7818542,9.61397917 L12.1458333,5.97795833 L5.97795833,12.1458333 L9.61397917,15.7818542 C9.96714825,16.1347423 10.0395818,16.6807098 9.79064583,17.1134792 C9.593,17.4557708 9.39866667,17.7759792 9.20764583,18.092875 C8.5483684,19.0713437 8.03714923,20.1417786 7.69052083,21.2695625 C7.55953138,21.7500875 7.12305878,22.083435 6.625,22.0833333 L2.20833333,22.0833333 L2.20833333,30.9166667 L6.625,30.9166667 C7.12305878,30.916565 7.55953138,31.2499125 7.69052083,31.7304375 C8.03714923,32.8582214 8.5483684,33.9286563 9.20764583,34.907125 C9.39866667,35.2207083 9.593,35.5442292 9.79064583,35.8865208 C10.0395818,36.3192902 9.96714825,36.8652577 9.61397917,37.2181458 L5.97795833,40.8541667 L12.1458333,47.0220417 L15.7818542,43.3860208 C16.1347423,43.0328517 16.6807098,42.9604182 17.1134792,43.2093542 C17.4557708,43.407 17.7759792,43.6013333 18.092875,43.7923542 C19.0713437,44.4516316 20.1417786,44.9628508 21.2695625,45.3094792 C21.7500875,45.4404686 22.083435,45.8769412 22.0833333,46.375 L22.0833333,50.7916667 Z" id="Shape"></path>
                <path d="M26.7944444,40.6333333 C18.8262028,40.6333333 12.3666667,34.1737972 12.3666667,26.2055556 C12.3666667,18.2373139 18.8262028,11.7777778 26.7944444,11.7777778 C34.7626861,11.7777778 41.2222222,18.2373139 41.2222222,26.2055556 C41.2130484,34.1699942 34.758883,40.6241595 26.7944444,40.6333333 L26.7944444,40.6333333 Z M26.7944444,13.9974359 C20.0520861,13.9974359 14.5863248,19.4631972 14.5863248,26.2055556 C14.5863248,32.9479139 20.0520861,38.4136752 26.7944444,38.4136752 C33.5368028,38.4136752 39.0025641,32.9479139 39.0025641,26.2055556 C38.9946138,19.4664931 33.5335069,14.0053862 26.7944444,13.9974359 Z" id="Shape"></path>
            </g>
            <path d="M77.8863027,32.9995055 C77.2612703,32.9993382 76.7269371,32.5553284 76.6200566,31.9473049 C73.6099227,14.9431535 58.6563234,2.53569386 41.1728773,2.53569386 C23.6894312,2.53569386 8.73583192,14.9431535 5.72569801,31.9473049 C5.60429175,32.638123 4.93866704,33.1009695 4.23898361,32.9811015 C3.53930018,32.8612335 3.0705139,32.2040426 3.19192016,31.5132246 C6.41760129,13.2939373 22.4399687,0 41.1728773,0 C59.9057858,0 75.9281533,13.2939373 79.1538344,31.5132246 C79.2187381,31.8824487 79.1150674,32.261119 78.8705991,32.5477773 C78.6261307,32.8344357 78.2658555,33 77.8863027,32.9995055 Z" id="Path"></path>
            <path d="M79.2734974,34.7861884 C78.9694217,34.7857346 78.6749551,34.6788027 78.4404945,34.4836936 L70.643275,27.9361873 C70.2862439,27.6363021 70.115103,27.1672623 70.1943195,26.7057508 C70.2735359,26.2442392 70.5910749,25.8603705 71.0273225,25.6987443 C71.46357,25.537118 71.9522498,25.6222891 72.3092809,25.9221744 L78.5717477,31.1837504 L80.6224164,23.951375 C80.8190701,23.2556397 81.5382025,22.8522766 82.2286436,23.0504382 C82.9190847,23.2485998 83.3193784,23.9732464 83.1227247,24.6689817 L80.5236516,33.8354905 C80.4033325,34.2618174 80.0771635,34.5978788 79.6568607,34.7285703 C79.5325281,34.7664356 79.403384,34.7858454 79.2734974,34.7861884 L79.2734974,34.7861884 Z M41.5869368,77.9998652 C22.6316268,78.0496453 6.40687019,64.3101482 3.19212873,45.4861231 C3.06939959,44.7733922 3.54329389,44.0953551 4.25060126,43.9716849 C4.95790864,43.8480147 5.63078618,44.3255427 5.75351531,45.0382737 C8.79644847,62.5817997 23.9129863,75.3828262 41.5869368,75.3828262 C59.2608873,75.3828262 74.3774251,62.5817997 77.4203583,45.0382737 C77.5430874,44.3255428 78.2159649,43.8480147 78.9232723,43.9716849 C79.6305797,44.0953551 80.104474,44.7733922 79.9817449,45.4861231 C76.7670034,64.3101482 60.5422467,78.0496453 41.5869368,77.9998652 L41.5869368,77.9998652 Z" id="Shape"></path>
            <path d="M1.47469883,54 C1.35383707,53.9996676 1.23357267,53.9840448 1.11714408,53.9535522 C0.78536254,53.8648018 0.504694665,53.6557429 0.336923065,53.3723951 C0.169151466,53.0890473 0.128028736,52.7546372 0.222607105,52.4427775 L2.8230053,43.8866099 C2.94363808,43.4895879 3.26933143,43.1766561 3.68892269,43.0546215 C4.10851394,42.9325869 4.56528082,43.0179467 4.90332385,43.2815666 L12.7045184,49.3931149 C13.256722,49.8258303 13.3312332,50.597448 12.8709439,51.1165714 C12.4106545,51.6356949 11.5898668,51.7057425 11.0376632,51.2730271 L4.77720454,46.361787 L2.72549037,53.1126031 C2.56629497,53.6378995 2.05570397,54.0001476 1.47469883,54 Z" id="Path"></path>
        </g>
        <text id="Project-Management-T" font-family="Helvetica-Bold, Helvetica" font-size="21" font-weight="bold" fill="#0055C2">
            <tspan x="31" y="105">Project Management Tool</tspan>
        </text>
        <text id="GitHub-Key-Tools" font-family="Helvetica-Bold, Helvetica" font-size="21" font-weight="bold" fill="#0055C2">
            <tspan x="23" y="69">GitHub Key Tools</tspan>
        </text>
        <text id="GitHub-Issues:-—-lis" font-family="Helvetica-Bold, Helvetica" font-size="21" font-weight="bold" fill="#0055C2">
            <tspan x="31" y="242">GitHub Issues: </tspan>
            <tspan x="31" y="267" font-family="Helvetica" font-weight="normal">— list up tasks with quick </tspan>
            <tspan x="31" y="292" font-family="Helvetica" font-weight="normal">image uploader </tspan>
            <tspan x="31" y="317" font-family="Helvetica" font-weight="normal">— enable to asign team </tspan>
            <tspan x="31" y="342" font-family="Helvetica" font-weight="normal">members for each task</tspan>
        </text>
        <text id="GitHub-Actions:-—-au" font-family="Helvetica-Bold, Helvetica" font-size="21" font-weight="bold" fill="#0055C2">
            <tspan x="336" y="242">GitHub Actions: </tspan>
            <tspan x="336" y="267" font-family="Helvetica" font-weight="normal">— automate workflow (e.g., </tspan>
            <tspan x="336" y="292" font-family="Helvetica" font-weight="normal">build, test and publish)</tspan>
            <tspan x="336" y="317" font-family="Helvetica" font-weight="normal">— seamlessly integrated </tspan>
            <tspan x="336" y="342" font-family="Helvetica" font-weight="normal">with repositories</tspan>
        </text>
        <text id="GitHub-Client-Apps" font-family="Helvetica-Bold, Helvetica" font-size="21" font-weight="bold" fill="#363636">
            <tspan x="23" y="395">GitHub Client Apps</tspan>
        </text>
        <text id="To-control-GitHub-on" font-family="Helvetica" font-size="21" font-weight="normal" fill="#363636">
            <tspan x="55" y="519">To control GitHub on a </tspan>
            <tspan x="55" y="544">local GUI application</tspan>
        </text>
        <text id="To-control-GitHub-fr" font-family="Helvetica" font-size="21" font-weight="normal" fill="#363636">
            <tspan x="319.147186" y="519">To control GitHub from </tspan>
            <tspan x="319.147186" y="544">local computer's </tspan>
            <tspan x="319.147186" y="569">command line.</tspan>
        </text>
        <text id="CI/CD-and-DevOps-Too" font-family="Helvetica-Bold, Helvetica" font-size="21" font-weight="bold" fill="#0055C2">
            <tspan x="336" y="105">CI/CD and DevOps Tool</tspan>
        </text>
        <text id="Security-Alerts" font-family="Helvetica-Bold, Helvetica" font-size="18" font-weight="bold" fill="#0055C2">
            <tspan x="637.302246" y="137">Security Alerts</tspan>
        </text>
        <text id="APIs" font-family="Helvetica-Bold, Helvetica" font-size="18" font-weight="bold" fill="#0055C2">
            <tspan x="680.491699" y="254">APIs</tspan>
        </text>
        <text id="Other-Tools" font-family="Helvetica-Bold, Helvetica" font-size="18" font-weight="bold" fill="#0055C2">
            <tspan x="650.661621" y="103">Other Tools</tspan>
        </text>
        <text id="Dependabot" font-family="Helvetica-Bold, Helvetica" font-size="16" font-weight="bold" fill="#0055C2">
            <tspan x="651.277344" y="221">Dependabot</tspan>
        </text>
        <text id="REST-API" font-family="Helvetica-Bold, Helvetica" font-size="16" font-weight="bold" fill="#0055C2">
            <tspan x="660.898438" y="350">REST API</tspan>
        </text>
        <g id="dependabot" transform="translate(679.000000, 156.000000)" fill="#0055C2" fill-rule="nonzero">
            <path d="M28.2122959,22.1761409 C28.1066282,22.0680544 27.962536,22 27.8011527,22 C27.6397695,22 27.4956772,22.0660528 27.3900096,22.1761409 L25.3976945,24.2497998 L24.6099904,23.4271417 C24.5043228,23.3190552 24.3602305,23.2510008 24.1988473,23.2510008 C24.037464,23.2510008 23.8933718,23.3170536 23.7877041,23.4271417 L23.1690682,24.0716573 C23.0653218,24.1817454 23,24.3318655 23,24.5 C23,24.6681345 23.0634006,24.8182546 23.1690682,24.9283427 L24.9884726,26.8238591 C25.0941402,26.9319456 25.2382325,27 25.3996158,27 C25.560999,27 25.7050913,26.9339472 25.8107589,26.8238591 L28.8309318,23.6773419 C28.9346782,23.5672538 29,23.4171337 29,23.2489992 C29,23.0808647 28.9365994,22.9307446 28.8309318,22.8206565 L28.2122959,22.1761409 Z" id="Path"></path>
            <path d="M22.9618667,44.41125 L40.3834667,32.94 C41.3914667,32.27625 42,31.145625 42,29.9325 L42,15.0675 C42,13.854375 41.3933333,12.72375 40.3834667,12.06 L22.9693333,0.594375 C22.4056,0.219375 21.728,0 21,0 C20.2701333,0 19.5906667,0.219375 19.0381333,0.58875 L1.61653333,12.06 C0.608533333,12.72375 0,13.854375 0,15.0675 L0,29.9325 L0,29.934375 C0,31.186875 0.636533333,32.289375 1.61653333,32.94 L19.0306667,44.4075 C19.5962667,44.780625 20.272,45 21,45 C21.7298667,45 22.4093333,44.780625 22.9618667,44.41125 Z M9.8,30.9375 L9.8,28.125 L8.86666667,28.125 C8.60906667,28.125 8.4,27.915 8.4,27.65625 L8.4,22.96875 C8.4,22.71 8.60906667,22.5 8.86666667,22.5 L9.8,22.5 L9.8,16.875 C9.8,16.09875 10.4272,15.46875 11.2,15.46875 L22.4,15.46875 L22.4,14.0625 L20.0666667,14.0625 C19.8090667,14.0625 19.6,13.8525 19.6,13.59375 L19.6,10.3125 C19.6,10.05375 19.8090667,9.84375 20.0666667,9.84375 L23.3333333,9.84375 C23.5909333,9.84375 23.8,10.05375 23.8,10.3125 L23.8,15.46875 L30.8,15.46875 C31.5728,15.46875 32.2,16.09875 32.2,16.875 L32.2,22.5 L33.1333333,22.5 C33.3909333,22.5 33.6,22.71 33.6,22.96875 L33.6,27.65625 C33.6,27.915 33.3909333,28.125 33.1333333,28.125 L32.2,28.125 L32.2,30.9375 C32.2,31.71375 31.5728,32.34375 30.8,32.34375 L11.2,32.34375 C10.4272,32.34375 9.8,31.715625 9.8,30.9375 Z" id="Shape"></path>
            <path d="M18.21088,22.1760704 C18.10528,22.0680272 17.95936,22 17.8,22 C17.64064,22 17.49664,22.0680272 17.39104,22.1760704 L15.40192,24.2509004 L14.61088,23.4285714 C14.50528,23.3205282 14.35936,23.252501 14.2,23.252501 C14.04064,23.252501 13.89664,23.3205282 13.79104,23.4285714 L13.17088,24.0728291 C13.06528,24.1828731 13,24.3329332 13,24.5010004 C13,24.6690676 13.06528,24.8191277 13.17088,24.9291717 L14.99104,26.8239296 C15.09664,26.9319728 15.24064,27 15.40192,27 C15.5632,27 15.7072,26.9339736 15.8128,26.8239296 L15.8128,26.8219288 L18.83104,23.6766707 C18.93472,23.5666267 19,23.4165666 19,23.2484994 C19,23.0804322 18.93664,22.9303721 18.83104,22.8203281 L18.21088,22.1760704 Z" id="Path"></path>
        </g>
        <rect id="Rectangle" stroke="#0055C2" x="23.5" y="76.5" width="292" height="288" rx="4"></rect>
        <rect id="Rectangle-Copy" stroke="#0055C2" x="326.5" y="76.5" width="292" height="288" rx="4"></rect>
        <rect id="Rectangle-Copy-2" stroke="#0055C2" x="629.5" y="76.5" width="141" height="288" rx="4"></rect>
        <g id="Group-6" transform="translate(673.000000, 263.000000)">
            <g id="Group-5" fill-rule="nonzero">
                <g id="Group-3">
                    <ellipse id="Oval" fill="#E8EEFF" cx="26.9943759" cy="64.5999267" rx="19.1220473" ry="3.40007333"></ellipse>
                    <path d="M34.0357886,54.3997092 C33.7296422,54.4004451 33.4464759,54.2361734 33.2934032,53.9690307 L30.1101447,48.404244 C28.0444742,48.715818 25.9442776,48.715818 23.878607,48.404244 L20.6953485,53.9690307 C20.4799879,54.3430309 20.0228133,54.4981946 19.6267635,54.3317052 L13.1590122,51.6343137 C12.7635067,51.467477 12.5518431,51.031245 12.6640887,50.6142917 L14.3175833,44.4034911 C12.6395618,43.1528231 11.1537997,41.6596109 9.90826421,39.9720622 L3.75546429,41.6380981 C3.34164965,41.751195 2.90870141,41.537926 2.74312061,41.1394207 L0.0660339922,34.6226135 C-0.0992021381,34.2235598 0.0547935255,33.7629176 0.425978412,33.5459236 L5.9488756,30.3385211 C5.63964708,28.257183 5.63964708,26.1410571 5.9488756,24.059719 L0.425978412,20.8523165 C0.0547935255,20.6353224 -0.0992021381,20.1746803 0.0660339922,19.7756266 L2.74312061,13.2588194 C2.90870141,12.8603141 3.34164965,12.6470451 3.75546429,12.7601419 L9.91951247,14.4261779 C11.1607659,12.7354291 12.6427378,11.2383979 14.3175833,9.98341539 L12.6640887,3.78394835 C12.5518431,3.36699505 12.7635067,2.93076302 13.1590122,2.76392635 L19.6267635,0.06653484 C20.0228133,-0.0999545562 20.4799879,0.0552091177 20.6953485,0.429209329 L23.878607,5.99399601 C25.9442776,5.68242209 28.0444742,5.68242209 30.1101447,5.99399601 L33.2934032,0.429209329 C33.5087638,0.0552091177 33.9659384,-0.0999545562 34.3619882,0.06653484 L40.8297395,2.76392635 C41.225245,2.93076302 41.4369086,3.36699505 41.3246631,3.78394835 L39.6711684,9.99474897 C41.3491899,11.245417 42.834952,12.7386291 44.0804875,14.4261779 L50.2332874,12.7601419 C50.6471021,12.6470451 51.0800503,12.8603141 51.2456311,13.2588194 L53.9227177,19.7756266 C54.0879539,20.1746803 53.9339582,20.6353224 53.5627733,20.8523165 L48.0398761,24.059719 C48.3491047,26.1410571 48.3491047,28.257183 48.0398761,30.3385211 L53.5740216,33.5459236 C53.9452065,33.7629176 54.0992021,34.2235598 53.933966,34.6226135 L51.2456311,41.1394207 C51.0800503,41.537926 50.6471021,41.751195 50.2332874,41.6380981 L44.0692393,39.9720622 C42.8279858,41.662811 41.3460139,43.1598421 39.6711684,44.4148247 L41.3246631,50.6142917 C41.4369086,51.031245 41.225245,51.467477 40.8297395,51.6343137 L34.3619882,54.3317052 C34.2588213,54.3759918 34.1479267,54.3991096 34.0357886,54.3997092 Z M14.5088038,50.3309523 L19.5930187,52.4616649 L22.6975394,47.0215475 C22.8743041,46.7047221 23.2314325,46.5361908 23.5861521,46.6022052 C25.8445331,47.0045753 28.1554669,47.0045753 30.4138479,46.6022052 C30.7685675,46.5361908 31.1256959,46.7047221 31.3024606,47.0215475 L34.395733,52.4503313 L39.4799479,50.3196187 L37.8714463,44.2788217 C37.7749186,43.9281948 37.9105893,43.5545488 38.2088942,43.3494683 C40.0783811,42.0369062 41.7073515,40.4070852 43.0231508,38.5326978 C43.2297284,38.2363586 43.5999597,38.1044301 43.9455084,38.204024 L49.9520809,39.8247257 L52.0667543,34.7019485 L46.667588,31.573881 C46.35575,31.3933524 46.1893985,31.0354756 46.2514023,30.6785284 C46.6505815,28.406811 46.6505815,26.0820977 46.2514023,23.8103803 C46.1858849,23.4529702 46.3531476,23.093133 46.667588,22.9150276 L52.0555061,19.7869602 L49.9408326,14.6528494 L43.9455084,16.2848846 C43.5973819,16.3858606 43.2244135,16.2483738 43.0231508,15.9448773 C41.7245377,14.0449959 40.1067545,12.3880943 38.242639,11.0487717 C37.9485305,10.8406273 37.8175951,10.4675879 37.9164393,10.1194183 L39.4799479,4.06728779 L34.395733,1.93657517 L31.2912124,7.3766925 C31.1120427,7.69089576 30.7568598,7.85850895 30.4025996,7.79603488 C28.1442187,7.39366474 25.8332848,7.39366474 23.5749039,7.79603488 C23.2229639,7.86414241 22.8678385,7.69440777 22.6975394,7.3766925 L19.5930187,1.93657517 L14.5088038,4.06728779 L16.1173054,10.1080847 C16.2138331,10.4587117 16.0781624,10.8323577 15.7798576,11.0374381 C13.9094187,12.3533874 12.2803908,13.987101 10.9656009,15.8655423 C10.7612369,16.1648055 10.3888951,16.2974861 10.0432434,16.194216 L4.03667087,14.6188487 L1.9219974,19.7416259 L7.3211637,22.8696933 C7.63300175,23.050222 7.79935322,23.4080988 7.73734943,23.765046 C7.33817021,26.0367634 7.33817021,28.3614767 7.73734943,30.6331941 C7.80286685,30.9906042 7.63560416,31.3504413 7.3211637,31.5285467 L1.9219974,34.6566142 L4.03667087,39.7793913 L10.0319951,38.1586897 C10.3801216,38.0577138 10.75309,38.1952006 10.9543527,38.4986971 C12.2603961,40.3833227 13.8818117,42.0247062 15.7461128,43.3494683 C16.0388929,43.5588403 16.1731194,43.9285087 16.0835607,44.2788217 L14.5088038,50.3309523 Z" id="Shape" fill="#0055C2"></path>
                    <path d="M18.3782063,38.5326978 C14.1674607,32.8386833 14.7402342,24.8941616 19.7235012,19.873098 C24.7067682,14.8520344 32.5914868,14.2749166 38.242639,18.5175995 C34.9175283,14.0211919 29.2914791,11.897252 23.8526392,13.0851025 C18.4137992,14.272953 14.1655119,18.5534623 12.9866031,24.0335542 C11.8076942,29.5136461 13.915646,35.1823672 18.3782063,38.5326978 Z" id="Path" fill="#C2D1FF"></path>
                </g>
                <path d="M27,42 C18.7157288,42 12,35.2842712 12,27 C12,18.7157288 18.7157288,12 27,12 C35.2842712,12 42,18.7157288 42,27 C41.9876614,35.2791551 35.2791551,41.9876614 27,42 L27,42 Z M27,13.7027633 C19.6561389,13.7027633 13.7027633,19.6561389 13.7027633,27 C13.7027633,34.3438611 19.6561389,40.2972367 27,40.2972367 C34.3438611,40.2972367 40.2972367,34.3438611 40.2972367,27 C40.2910598,19.658699 34.341301,13.7089402 27,13.7027633 Z" id="Shape" fill="#0055C2"></path>
            </g>
            <text id="API" font-family="Helvetica-Bold, Helvetica" font-size="14" font-weight="bold" fill="#0055C2">
                <tspan x="16" y="31">API</tspan>
            </text>
        </g>
        <g id="Group-6" transform="translate(612.000000, 403.000000)" fill="#000000" fill-rule="nonzero">
            <g id="github-copy-2" transform="translate(40.000000, 15.000000)">
                <path d="M22.9998956,0 C11.7204239,0.000469179946 2.10590223,8.20619911 0.299077857,19.3745239 C-1.50774651,30.5428487 5.02642435,41.3773525 15.7268887,44.9558377 C16.8767785,45.1577383 17.3079872,44.4656891 17.3079872,43.8600567 C17.3079872,43.3121892 17.279217,41.4954764 17.279217,39.5634644 C11.5009978,40.6303861 10.0061411,38.1505528 9.54618516,36.8529173 C9.03580825,35.5908656 8.22674528,34.472458 7.1889111,33.5943411 C6.38398825,33.161796 5.23409847,32.0948512 7.16014086,32.066061 C8.65271236,32.2285228 9.97246422,33.1110528 10.6960749,34.4305721 C11.3313462,35.5753322 12.3946869,36.4194146 13.6513665,36.7764896 C14.9080461,37.1335647 16.2547288,36.9742705 17.3941369,36.3337708 C17.4936968,35.160991 18.0147545,34.0644705 18.8602924,33.2483742 C13.7432829,32.6716473 8.39629538,30.6818473 8.39629538,21.8580182 C8.36397821,19.5652878 9.20739391,17.3470389 10.7535694,15.6582042 C10.0504849,13.6655423 10.1327507,11.4787423 10.9835474,9.54489918 C10.9835474,9.54489918 12.9095438,8.93931288 17.3079412,11.9094794 C21.0710431,10.8713094 25.0437372,10.8713094 28.806839,11.9094794 C33.2051215,8.9104996 35.1312329,9.54489918 35.1312329,9.54489918 C35.982145,11.4787155 36.0644125,13.6655602 35.3612108,15.6582042 C36.9120423,17.3441484 37.7561944,19.564334 37.7184849,21.8580182 C37.7184849,30.7107067 32.3427041,32.6716473 27.2257406,33.2483742 C28.336287,34.3774629 28.9028084,35.9349635 28.7780918,37.5161532 C28.7780918,40.6016882 28.7493216,43.0815215 28.7493216,43.8601489 C28.7493216,44.4657352 29.1805302,45.1866208 30.33042,44.95593 C41.0111617,41.3485442 47.5153422,30.5121007 45.6961446,19.3555019 C43.876947,8.19890308 34.2698179,0.00588375885 22.9998956,0 Z" id="Path"></path>
            </g>
            <g id="mobile" transform="translate(0.000000, -0.000000)">
                <path d="M30.2222222,60 C32.3086313,60 34,58.3210678 34,56.25 L34,3.75 C34,1.67893219 32.3086313,0 30.2222222,0 L3.77777778,0 C1.69136872,0 0,1.67893219 0,3.75 L0,56.25 C0,58.3210678 1.69136872,60 3.77777778,60 L30.2222222,60 Z M15.1111111,54.1425 C15.0880386,53.3749116 15.4873992,52.6556227 16.1534934,52.2650643 C16.8195875,51.8745059 17.646968,51.8745059 18.3130622,52.2650643 C18.9791563,52.6556227 19.378517,53.3749116 19.3554444,54.1425 C19.3212091,55.2814585 18.3811837,56.1871455 17.2332778,56.1871455 C16.0853719,56.1871455 15.1453465,55.2814585 15.1111111,54.1425 Z M24.5555556,3.75 C25.5987601,3.75 26.4444444,4.58946609 26.4444444,5.625 C26.4444444,6.66053391 25.5987601,7.5 24.5555556,7.5 L20.7777778,7.5 C19.7345733,7.5 18.8888889,6.66053391 18.8888889,5.625 C18.8888889,4.58946609 19.7345733,3.75 20.7777778,3.75 L24.5555556,3.75 Z M15.1111111,5.625 C15.1111111,6.66053391 14.2654267,7.5 13.2222222,7.5 C12.1790177,7.5 11.3333333,6.66053391 11.3333333,5.625 C11.3333333,4.58946609 12.1790177,3.75 13.2222222,3.75 C14.2654267,3.75 15.1111111,4.58946609 15.1111111,5.625 L15.1111111,5.625 Z M3.77777778,11.25 L30.2222222,11.25 L30.2222222,48.75 L3.77777778,48.75 L3.77777778,11.25 Z" id="Shape"></path>
            </g>
        </g>
        <text id="GitHub-Mobile-App" font-family="Helvetica-Bold, Helvetica" font-size="21" font-weight="bold" fill="#000000">
            <tspan x="556" y="494">GitHub Mobile App</tspan>
        </text>
        <text id="To-easily-check-stat" font-family="Helvetica" font-size="21" font-weight="normal" fill="#363636">
            <tspan x="556" y="519">To easily check </tspan>
            <tspan x="556" y="544">status of issues and </tspan>
            <tspan x="556" y="569">repositories </tspan>
        </text>
    </g>
</svg>