<?xml version="1.0" encoding="UTF-8"?>
<svg width="800px" height="600px" viewBox="0 0 800 600" version="1.1" xmlns="http://www.w3.org/2000/svg" xmlns:xlink="http://www.w3.org/1999/xlink">
    <title>2041-10-15-13-10_EditandCommitOverview(2)</title>
    <defs>
        <path d="M8.68744595,14.5405413 C10.6544909,13.5649687 12,11.5915112 12,9.31636202 C12,6.07252388 9.26504479,3.44227578 5.89152197,3.44227578 C4.52034181,3.44227578 3.25480793,3.87689217 2.23537065,4.61058921 L2.23537065,1.05770107 C2.23537065,0.476155373 1.74046224,0 1.11695169,0 C0.493934821,0 0.0167986821,0.476630104 0.0167986821,1.05770107 L0.0167986821,1.80184219 L0,9.32158406 C-0.0041824725,11.2003327 0.951817666,12.865215 2.41753644,13.8939574 C2.4777647,13.9362085 2.55848043,13.9312238 2.6127846,13.8823265 C2.66758244,13.8334292 2.6779496,13.7558106 2.63746831,13.6950451 C0.724974359,10.8146136 1.16014819,5.53963813 5.89176881,5.53963813 C8.05899866,5.53963813 9.80709909,7.22944376 9.81623206,9.31351363 C9.82240299,10.8599505 9.11620201,12.0365717 8.19549958,12.7781018 C6.36026565,14.2561773 3.64974731,12.6382934 4.49738595,10.4697214 C4.5894562,10.2335427 4.71879884,9.9959397 4.88664808,9.76189723 L5.12361171,9.47705853 C5.19766284,9.39967734 5.25048599,9.29903433 5.2146946,9.19411874 C5.01401603,8.62800181 3.46832203,8.97526767 3.04005964,10.0315445 C3.34292878,9.79631524 3.65986763,9.66433998 3.96940137,9.71489885 C2.38890334,11.275815 3.44141679,13.9563846 5.46005069,14.7513219 C6.40494316,15.1232738 7.55964718,15.0976383 8.68744595,14.5405413" id="path-1"></path>
        <linearGradient x1="28.568518%" y1="104.445731%" x2="78.3472072%" y2="20.6880271%" id="linearGradient-3">
            <stop stop-color="#000F98" offset="0%"></stop>
            <stop stop-color="#00A5FD" offset="100%"></stop>
        </linearGradient>
        <circle id="path-4" cx="248" cy="30" r="20"></circle>
        <mask id="mask-5" maskContentUnits="userSpaceOnUse" maskUnits="objectBoundingBox" x="0" y="0" width="40" height="40" fill="white">
            <use xlink:href="#path-4"></use>
        </mask>
        <circle id="path-6" cx="57" cy="277" r="20"></circle>
        <mask id="mask-7" maskContentUnits="userSpaceOnUse" maskUnits="objectBoundingBox" x="0" y="0" width="40" height="40" fill="white">
            <use xlink:href="#path-6"></use>
        </mask>
    </defs>
    <g id="2041-10-15-13-10_EditandCommitOverview(2)" stroke="none" stroke-width="1" fill="none" fill-rule="evenodd">
        <rect fill="#FFFFFF" x="0" y="0" width="800" height="600"></rect>
        <g id="bloovee-winner-logo" transform="translate(725.000000, 580.000000)">
            <path d="M13,13.7751507 C13,14.396312 13.4732558,14.8717809 14.0514961,14.8717809 C14.6474304,14.8717809 15.1204503,14.3968042 15.1204503,13.7751507 L15.1204503,2.09687626 C15.1204503,1.49368045 14.6474304,1 14.0514961,1 C13.4557977,1 13,1.49392656 13,2.09687626 L13,13.7751507 Z M21.7920364,15 C24.6483217,15 26.751078,12.7149437 26.751078,9.97312215 L26.751078,9.93645297 C26.751078,7.17641992 24.6657798,4.92778666 21.8269526,4.92778666 C18.9881254,4.92778666 16.885369,7.212843 16.885369,9.97312215 L16.885369,10.0095452 C16.885369,12.7516128 18.9706673,15 21.7920364,15 Z M21.8269526,13.0621935 C20.179994,13.0621935 19.0055834,11.6547366 19.0055834,9.97312215 L19.0055834,9.93645297 C19.0055834,8.25459244 20.0919958,6.86534709 21.7920364,6.86534709 C23.456689,6.86534709 24.6306277,8.27305008 24.6306277,9.97312215 L24.6306277,10.0095452 C24.6306277,11.6731942 23.5444513,13.0621935 21.8269526,13.0621935 Z M32.8092717,15 C35.665557,15 37.7683133,12.7149437 37.7683133,9.97312215 L37.7683133,9.93645297 C37.7683133,7.17641992 35.6830151,4.92778666 32.8441878,4.92778666 C30.0053606,4.92778666 27.9026043,7.212843 27.9026043,9.97312215 L27.9026043,10.0095452 C27.9026043,12.7516128 29.9879025,15 32.8092717,15 Z M32.8441878,13.0621935 C31.1969933,13.0621935 30.0228187,11.6547366 30.0228187,9.97312215 L30.0228187,9.93645297 C30.0228187,8.25459244 31.109231,6.86534709 32.8092717,6.86534709 C34.4739243,6.86534709 35.647863,8.27305008 35.647863,9.97312215 L35.647863,10.0095452 C35.647863,11.6731942 34.5614506,13.0621935 32.8441878,13.0621935 Z M44.1416963,13.9944275 L47.2261164,6.6096472 C47.2784906,6.49988574 47.3487948,6.28060893 47.3487948,6.07954366 C47.3487948,5.47610175 46.8929971,5.01933658 46.3147568,5.01933658 C45.7539746,5.01933658 45.4737015,5.40300947 45.3158709,5.78692847 L42.8976893,12.2215093 L40.5144239,5.82335156 C40.3393711,5.36634029 40.041404,5.01933658 39.4629278,5.01933658 C38.8846875,5.01933658 38.4116676,5.53098247 38.4116676,6.07954366 C38.4116676,6.28060893 38.4817358,6.46346265 38.534346,6.62785874 L41.6182943,13.9944275 C41.8638872,14.5796579 42.2491448,14.9633308 42.8273851,14.9633308 L42.9326055,14.9633308 C43.5108458,14.9633308 43.8965752,14.5612003 44.1416963,13.9944275 Z M50.0949054,9.27837643 C50.2876522,7.77961573 51.1987758,6.73762019 52.4956289,6.73762019 C53.8974665,6.73762019 54.7036056,7.8524619 54.8437422,9.27837643 L50.0949054,9.27837643 Z M56.070527,13.72027 C56.2281217,13.5558739 56.3508002,13.3181395 56.3508002,13.0439819 C56.3508002,12.5320899 55.9830006,12.1481709 55.5095089,12.1481709 C55.2641519,12.1481709 55.1242513,12.2215093 54.9664207,12.3492362 C54.3704864,12.8611282 53.6695676,13.1901665 52.7759021,13.1901665 C51.4089807,13.1901665 50.3402624,12.3128131 50.1123635,10.7409601 L55.9126964,10.7409601 C56.4560206,10.7409601 56.9115824,10.3021604 56.9115824,9.68050697 C56.9115824,7.45057746 55.4568987,4.92778666 52.513087,4.92778666 C49.8672425,4.92778666 47.9919132,7.19438536 47.9919132,9.95466451 L47.9919132,9.9913337 C47.9919132,12.9708897 50.0597533,15 52.7409859,15 C54.1779755,15 55.2292357,14.5063195 56.070527,13.72027 Z M60.1833231,9.27837643 C60.3763058,7.77961573 61.2871935,6.73762019 62.5842825,6.73762019 C63.9858841,6.73762019 64.7920233,7.8524619 64.9321598,9.27837643 L60.1833231,9.27837643 Z M66.1589447,13.72027 C66.3167752,13.5558739 66.4394537,13.3181395 66.4394537,13.0439819 C66.4394537,12.5320899 66.0714183,12.1481709 65.5981624,12.1481709 C65.3528055,12.1481709 65.2126689,12.2215093 65.0548383,12.3492362 C64.4591399,12.8611282 63.7582212,13.1901665 62.8643197,13.1901665 C61.4976342,13.1901665 60.4289159,12.3128131 60.2007812,10.7409601 L66.0011141,10.7409601 C66.5444382,10.7409601 67,10.3021604 67,9.68050697 C67,7.45057746 65.5455522,4.92778666 62.6015046,4.92778666 C59.9556601,4.92778666 58.0805667,7.19438536 58.0805667,9.95466451 L58.0805667,9.9913337 C58.0805667,12.9708897 60.1484069,15 62.8294035,15 C64.2663932,15 65.3178893,14.5063195 66.1589447,13.72027 L66.1589447,13.72027 Z" id="Fill-1" fill="#030060"></path>
            <g id="Group-4">
                <mask id="mask-2" fill="white">
                    <use xlink:href="#path-1"></use>
                </mask>
                <g id="Clip-3"></g>
                <path d="M8.68744595,14.5405413 C10.6544909,13.5649687 12,11.5915112 12,9.31636202 C12,6.07252388 9.26504479,3.44227578 5.89152197,3.44227578 C4.52034181,3.44227578 3.25480793,3.87689217 2.23537065,4.61058921 L2.23537065,1.05770107 C2.23537065,0.476155373 1.74046224,0 1.11695169,0 C0.493934821,0 0.0167986821,0.476630104 0.0167986821,1.05770107 L0.0167986821,1.80184219 L0,9.32158406 C-0.0041824725,11.2003327 0.951817666,12.865215 2.41753644,13.8939574 C2.4777647,13.9362085 2.55848043,13.9312238 2.6127846,13.8823265 C2.66758244,13.8334292 2.6779496,13.7558106 2.63746831,13.6950451 C0.724974359,10.8146136 1.16014819,5.53963813 5.89176881,5.53963813 C8.05899866,5.53963813 9.80709909,7.22944376 9.81623206,9.31351363 C9.82240299,10.8599505 9.11620201,12.0365717 8.19549958,12.7781018 C6.36026565,14.2561773 3.64974731,12.6382934 4.49738595,10.4697214 C4.5894562,10.2335427 4.71879884,9.9959397 4.88664808,9.76189723 L5.12361171,9.47705853 C5.19766284,9.39967734 5.25048599,9.29903433 5.2146946,9.19411874 C5.01401603,8.62800181 3.46832203,8.97526767 3.04005964,10.0315445 C3.34292878,9.79631524 3.65986763,9.66433998 3.96940137,9.71489885 C2.38890334,11.275815 3.44141679,13.9563846 5.46005069,14.7513219 C6.40494316,15.1232738 7.55964718,15.0976383 8.68744595,14.5405413" id="Fill-2" fill="url(#linearGradient-3)" mask="url(#mask-2)"></path>
            </g>
        </g>
        <text id="Edit-and-Commit-Over" fill-rule="nonzero" font-family="Helvetica" font-size="18" font-weight="normal" fill="#0055C2">
            <tspan x="10" y="23">Edit and Commit Overveiw (2)</tspan>
        </text>
        <g id="git" transform="translate(704.000000, 9.000000)">
            <path d="M46.8658496,11.2380575 C45.1623498,11.2380575 43.8939053,12.0891281 43.8939053,14.1376499 C43.8939053,15.6808485 44.7297841,16.7522856 46.7743573,16.7522856 C48.5071097,16.7522856 49.6846843,15.7131436 49.6846843,14.073693 C49.6846843,12.2157755 48.6309666,11.2380575 46.8658496,11.2380575 L46.8658496,11.2380575 Z M43.4607172,25.7011913 C43.0574041,26.2046147 42.6553359,26.7397 42.6553359,27.3710373 C42.6553359,28.6305458 44.2337339,29.0092215 46.4027864,29.0092215 C48.1984009,29.0092215 50.6450424,28.8813076 50.6450424,27.1823327 C50.6450424,26.1723196 49.4674678,26.1102624 47.9805621,26.0152768 L43.4607172,25.7011913 Z M52.6255087,11.3330431 C53.1825537,12.0580995 53.7719634,13.0662128 53.7719634,14.5156924 C53.7719634,18.0124273 51.0776081,20.0603158 47.1764255,20.0603158 C46.1843252,20.0603158 45.2862067,19.9349349 44.7291617,19.7772589 L43.7071863,21.4471049 L46.7413702,21.6351763 C52.0989611,21.9828234 55.257002,22.1404995 55.257002,26.3293624 C55.257002,29.9533779 52.1300809,32 46.7413702,32 C41.1360655,32 39,30.5505204 39,28.0625322 C39,26.6440812 39.6199071,25.8898959 40.7034998,24.848221 C39.680902,24.4087545 39.3410734,23.6216409 39.3410734,22.7705703 C39.3410734,22.0771758 39.6815244,21.4471049 40.2391918,20.8480627 C40.7968593,20.2502869 41.416144,19.6506115 42.1586633,18.9578502 C40.6412601,18.2017651 39.4960502,16.563581 39.4960502,14.231369 C39.4960502,10.6086199 41.8493321,8.12063165 46.5870158,8.12063165 C47.9189448,8.12063165 48.7249485,8.24537935 49.436348,8.43598369 L55.4754632,8.43598369 L55.4754632,11.1133099 L52.6255087,11.3330431 L52.6255087,11.3330431 Z M60.9233016,5.60858036 C59.1575621,5.60858036 58.1355867,4.56817192 58.1355867,2.77167847 C58.1355867,0.977717972 59.1575621,0 60.9233016,0 C62.7195385,0 63.7408917,0.977084735 63.7408917,2.77167847 C63.7415139,4.56817192 62.7195385,5.60858036 60.9233016,5.60858036 Z M56.9275147,24.5423675 L56.9275147,22.0543792 L58.50778,21.8340127 C58.9409681,21.770689 59.0025853,21.6763367 59.0025853,21.2026754 L59.0025853,11.9403174 C59.0025853,11.59457 58.9104706,11.372937 58.5998947,11.279218 L56.9275147,10.6801757 L57.2679657,8.12949697 L63.6792742,8.12949697 L63.6792742,21.2033087 C63.6792742,21.7086318 63.7091492,21.770689 64.174702,21.834646 L65.7543448,22.0550125 L65.7543448,24.5430008 L56.9275147,24.5430008 L56.9275147,24.5423675 Z M78,23.32022 C76.6674487,23.9806863 74.7174798,24.5803617 72.9511179,24.5803617 C69.2665294,24.5803617 67.8736056,23.0694582 67.8736056,19.5074999 L67.8736056,11.2532552 C67.8736056,11.0651838 67.8736056,10.9385364 67.6252693,10.9385364 L65.458084,10.9385364 L65.458084,8.13456287 C68.1841815,7.81857759 69.2671518,6.43242174 69.6076028,2.99837733 L72.5502944,2.99837733 L72.5502944,7.47346341 C72.5502944,7.69319666 72.5502944,7.78881545 72.7980083,7.78881545 L77.1641212,7.78881545 L77.1641212,10.9391697 L72.5502944,10.9391697 L72.5502944,18.4683579 C72.5502944,20.3269086 72.9841049,21.0513318 74.6558625,21.0513318 C75.5241059,21.0513318 76.4209796,20.8315985 77.1641212,20.5479083 L78,23.32022 L78,23.32022 Z" id="Shape" fill="#31251C" fill-rule="nonzero"></path>
            <path d="M32.3772539,15.0299695 L17.9690664,0.622277028 C17.140005,-0.207425676 15.7941261,-0.207425676 14.9644314,0.622277028 L11.9724635,3.61427365 L15.7668919,7.40937182 C16.6497884,7.11169223 17.6606226,7.31120089 18.3636464,8.01486479 C19.0704703,8.72232885 19.2687104,9.74203981 18.9634334,10.6274783 L22.6210571,14.2851371 C23.5052204,13.9804906 24.5268216,14.1774658 25.2336455,14.8849299 C26.221679,15.8723394 26.221679,17.4728423 25.2336455,18.4608852 C24.2449787,19.4489281 22.6451246,19.4489281 21.6570912,18.4608852 C20.914166,17.7173195 20.7304932,16.6260388 21.1067059,15.7108324 L17.6954571,12.2995509 L17.6948238,21.2768075 C17.9361319,21.3958793 18.1628729,21.5542195 18.3636464,21.7543616 C19.3516798,22.7417711 19.3516798,24.3416406 18.3636464,25.3309502 C17.375613,26.3183598 15.7744921,26.3183598 14.7877254,25.3309502 C13.799692,24.3416406 13.799692,22.7417711 14.7877254,21.7543616 C15.0322003,21.5105176 15.3140432,21.3262096 15.6155201,21.2027043 L15.6155201,12.1424774 C15.3140432,12.0196054 15.0322003,11.8359308 14.7877254,11.5908201 C14.0391001,10.842821 13.8592273,9.74520661 14.2430403,8.82620003 L10.5024471,5.08430417 L0.622746073,14.9634666 C-0.207582024,15.7938027 -0.207582024,17.1396945 0.622746073,17.9700305 L15.0309336,32.377723 C15.8606284,33.2074257 17.2058739,33.2074257 18.0368353,32.377723 L32.3772539,18.0359 C33.207582,17.2061973 33.207582,15.8596722 32.3772539,15.0299695 L32.3772539,15.0299695 Z" id="Path" fill="#F34F29" fill-rule="nonzero"></path>
            <polygon id="Path" points="1.12409637e-15 0 79 0 79 33 0 33"></polygon>
        </g>
        <text id="Edit-working-tree" fill-rule="nonzero" font-family="Helvetica" font-size="18" font-weight="normal" fill="#4F4F4F">
            <tspan x="510.94043" y="115">Edit working tree</tspan>
        </text>
        <text id="Edit-working-tree-Copy" fill-rule="nonzero" font-family="Helvetica" font-size="18" font-weight="normal" fill="#4F4F4F">
            <tspan x="647.94043" y="335">Edit working tree</tspan>
        </text>
        <text id="$-git-add" fill-rule="nonzero" font-family="Helvetica-Bold, Helvetica" font-size="18" font-weight="bold" fill="#FF6464">
            <tspan x="617" y="213">$ git add</tspan>
        </text>
        <text id="$-git-reset" fill-rule="nonzero" font-family="Helvetica-Bold, Helvetica" font-size="18" font-weight="bold" fill="#FF6464">
            <tspan x="427" y="231">$ git reset</tspan>
        </text>
        <text id="$-git-commit" fill-rule="nonzero" font-family="Helvetica-Bold, Helvetica" font-size="18" font-weight="bold" fill="#FF6464">
            <tspan x="617" y="296">$ git commit</tspan>
        </text>
        <text id="$-git-restore" fill-rule="nonzero" font-family="Helvetica-Bold, Helvetica" font-size="18" font-weight="bold" fill="#FF6464">
            <tspan x="658" y="467">$ git restore</tspan>
        </text>
        <text id="$-git-reset" fill-rule="nonzero" font-family="Helvetica-Bold, Helvetica" font-size="18" font-weight="bold" fill="#FF6464">
            <tspan x="540" y="533">$ git reset</tspan>
        </text>
        <text id="Status-A-Copy" font-family="Helvetica" font-size="21" font-weight="normal" fill="#0055C2">
            <tspan x="294.886475" y="75">Status A</tspan>
        </text>
        <text id="Time-1" font-family="Helvetica" font-size="21" font-weight="normal" fill="#0055C2">
            <tspan x="199.294922" y="130">Time 1</tspan>
        </text>
        <text id="Time-3" font-family="Helvetica" font-size="21" font-weight="normal" fill="#0055C2">
            <tspan x="199.294922" y="268">Time 3</tspan>
        </text>
        <text id="Time-6" font-family="Helvetica" font-size="21" font-weight="normal" fill="#0055C2">
            <tspan x="199.294922" y="474">Time 6</tspan>
        </text>
        <text id="Time-2" font-family="Helvetica" font-size="21" font-weight="normal" fill="#0055C2">
            <tspan x="199.294922" y="199">Time 2</tspan>
        </text>
        <text id="Time-5" font-family="Helvetica" font-size="21" font-weight="normal" fill="#0055C2">
            <tspan x="199.294922" y="405">Time 5</tspan>
        </text>
        <text id="Time-4" font-family="Helvetica" font-size="21" font-weight="normal" fill="#0055C2">
            <tspan x="199.294922" y="337">Time 4</tspan>
        </text>
        <text id="Time-7" font-family="Helvetica" font-size="21" font-weight="normal" fill="#0055C2">
            <tspan x="199.294922" y="543">Time 7</tspan>
        </text>
        <text id="Working-Tree" font-family="Helvetica" font-size="21" font-weight="normal" fill="#0055C2">
            <tspan x="86.1760254" y="182">Working </tspan>
            <tspan x="103.294922" y="207">Tree</tspan>
        </text>
        <text id="Staging-Area" font-family="Helvetica" font-size="21" font-weight="normal" fill="#0055C2">
            <tspan x="88.8881836" y="272">Staging </tspan>
            <tspan x="102.320801" y="297">Area</tspan>
        </text>
        <text id="Commit-(recorded-in" font-family="Helvetica" font-size="21" font-weight="normal" fill="#0055C2">
            <tspan x="88.3344727" y="374">Commit </tspan>
            <tspan x="79.5622559" y="399">(recorded </tspan>
            <tspan x="91.8156738" y="424">in local </tspan>
            <tspan x="74.9018555" y="449">repository)</tspan>
        </text>
        <g id="Group-3" transform="translate(314.000000, 169.000000)">
            <circle id="Oval" stroke="#0055C2" stroke-width="6" fill="#7BB2FF" cx="20" cy="20" r="17"></circle>
            <circle id="Oval-Copy-2" stroke="#0055C2" stroke-width="6" fill="#7BB2FF" cx="134" cy="20" r="17"></circle>
            <path id="Line-13-Copy" d="M106.162162,15 L115.162162,19.5 L106.162162,24 L106.162,20 L39.8378378,20 L39.8378378,19 L106.162,19 L106.162162,15 Z" fill="#0055C2" fill-rule="nonzero"></path>
            <path id="Line-13-Copy-2" d="M226,15 L235,19.5 L226,24 L226,20 L153.837838,20 L153.837838,19 L226,19 L226,15 Z" fill="#0055C2" fill-rule="nonzero"></path>
            <g id="documents-copy-8" transform="translate(234.000000, 0.000000)" fill-rule="nonzero">
                <path d="M31.6530612,10.1694915 L31.6530612,39.3220339 L6.73469388,39.3220339 L6.73469388,35.9903148 C6.74284561,35.9804029 27.9369823,10.1826518 27.9477278,10.1694915 L31.6530612,10.1694915 Z" id="Path" fill="#A4C2F7"></path>
                <path d="M28.2857143,35.9322034 C27.4417317,35.9322034 1.1920083,35.9322034 0.673469388,35.9322034 C0.673469388,33.7893801 0.673469388,2.78656659 0.673469388,1.3559322 L20.6685433,1.3559322 L22.7315588,5.93868765 L28.2857143,7.94188862 C28.2857143,9.17436804 28.2857143,34.5321114 28.2857143,35.9322034 Z" id="Path" fill="#FFFFFF"></path>
                <polygon id="Path" fill="#A4C2F7" points="28.9591837 7.45762712 21.5510204 7.45762712 21.5510204 0.677966102"></polygon>
                <path d="M28.676761,36.6101695 L0.955892034,36.6101695 C0.427952864,36.6101695 0,36.2375778 0,35.7781202 L0,0.832049307 C0,0.372508475 0.427952864,0 0.955892034,0 L21.0296248,0 C21.2831273,0 21.5262107,0.0876979969 21.705536,0.243707242 L29.3526723,6.90010169 C29.531902,7.05611094 29.6326531,7.26778428 29.6326531,7.48844376 L29.6326531,35.7781202 C29.6326531,36.2375778 29.2046046,36.6101695 28.676761,36.6101695 Z M1.91178407,34.9460709 L27.720869,34.9460709 L27.720869,7.83307858 L20.6335987,1.66409861 L1.91178407,1.66409861 L1.91178407,34.9460709 Z" id="Shape" fill="#418CFE"></path>
                <path d="M28.3393122,8.33333333 L20.8822117,8.33333333 C20.3674853,8.33333333 19.9500741,7.96025 19.9500741,7.5 L19.9500741,0.833333333 C19.9500741,0.373083333 20.3674853,0 20.8822117,0 C21.3969381,0 21.8143493,0.373083333 21.8143493,0.833333333 L21.8143493,6.66666667 L28.3393122,6.66666667 C28.8540386,6.66666667 29.2714498,7.03975 29.2714498,7.5 C29.2714498,7.96025 28.8540386,8.33333333 28.3393122,8.33333333 Z M32.0678624,40 L6.99336205,40 C6.47854248,40 6.06122449,39.6268333 6.06122449,39.1666667 L6.06122449,35.8333333 C6.06122449,35.3731667 6.47854248,35 6.99336205,35 C7.50818163,35 7.92549961,35.3731667 7.92549961,35.8333333 L7.92549961,38.3333333 L31.1357249,38.3333333 L31.1357249,10.8333333 L28.3393122,10.8333333 C27.8245858,10.8333333 27.4071746,10.46025 27.4071746,10 C27.4071746,9.53975 27.8245858,9.16666667 28.3393122,9.16666667 L32.0678624,9.16666667 C32.5825888,9.16666667 33,9.53975 33,10 L33,39.1666667 C33,39.6268333 32.5825888,40 32.0678624,40 Z" id="Shape" fill="#418CFE"></path>
                <path d="M24.6255546,31.1864407 L4.3336291,31.1864407 C3.79995146,31.1864407 3.36734694,30.8000493 3.36734694,30.3235747 C3.36734694,29.8471002 3.79995146,29.4607088 4.3336291,29.4607088 L24.6255546,29.4607088 C25.1591356,29.4607088 25.5918367,29.8471002 25.5918367,30.3235747 C25.5918367,30.8000493 25.1591356,31.1864407 24.6255546,31.1864407 Z M24.6255546,27.7349769 L4.3336291,27.7349769 C3.79995146,27.7349769 3.36734694,27.3485855 3.36734694,26.8721109 C3.36734694,26.3956364 3.79995146,26.009245 4.3336291,26.009245 L24.6255546,26.009245 C25.1591356,26.009245 25.5918367,26.3956364 25.5918367,26.8721109 C25.5918367,27.3485855 25.1591356,27.7349769 24.6255546,27.7349769 Z M24.6255546,24.2835131 L4.3336291,24.2835131 C3.79995146,24.2835131 3.36734694,23.8971217 3.36734694,23.4206471 C3.36734694,22.9441726 3.79995146,22.5577812 4.3336291,22.5577812 L24.6255546,22.5577812 C25.1591356,22.5577812 25.5918367,22.9441726 25.5918367,23.4206471 C25.5918367,23.8971217 25.1591356,24.2835131 24.6255546,24.2835131 Z M24.6255546,20.8320493 L4.3336291,20.8320493 C3.79995146,20.8320493 3.36734694,20.4457442 3.36734694,19.9691834 C3.36734694,19.4926225 3.79995146,19.1063174 4.3336291,19.1063174 L24.6255546,19.1063174 C25.1591356,19.1063174 25.5918367,19.4926225 25.5918367,19.9691834 C25.5918367,20.4457442 25.1591356,20.8320493 24.6255546,20.8320493 Z M24.6255546,17.3805855 L4.3336291,17.3805855 C3.79995146,17.3805855 3.36734694,16.9942804 3.36734694,16.5177196 C3.36734694,16.0411587 3.79995146,15.6548536 4.3336291,15.6548536 L24.6255546,15.6548536 C25.1591356,15.6548536 25.5918367,16.0411587 25.5918367,16.5177196 C25.5918367,16.9942804 25.1591356,17.3805855 24.6255546,17.3805855 Z M13.0301686,13.9291217 L4.3336291,13.9291217 C3.79995146,13.9291217 3.36734694,13.5428166 3.36734694,13.0662558 C3.36734694,12.5896949 3.79995146,12.2033898 4.3336291,12.2033898 L13.0301686,12.2033898 C13.5638462,12.2033898 13.9964508,12.5896949 13.9964508,13.0662558 C13.9964508,13.5428166 13.5638462,13.9291217 13.0301686,13.9291217 Z" id="Shape" fill="#418CFE"></path>
            </g>
        </g>
        <g id="Group-5" transform="translate(314.000000, 233.000000)">
            <circle id="Oval" stroke="#0055C2" stroke-width="6" fill="#7BB2FF" cx="20" cy="30" r="17"></circle>
            <circle id="Oval-Copy-2" stroke="#0055C2" stroke-width="6" fill="#7BB2FF" cx="134" cy="30" r="17"></circle>
            <use id="Oval-Copy-3" stroke="#0055C2" mask="url(#mask-5)" stroke-width="12" fill="#C5DDFF" stroke-dasharray="6,6" xlink:href="#path-4"></use>
            <path id="Line-13-Copy" d="M106.162162,25 L115.162162,29.5 L106.162162,34 L106.162,30 L39.8378378,30 L39.8378378,29 L106.162,29 L106.162162,25 Z" fill="#0055C2" fill-rule="nonzero"></path>
            <path id="Line-13-Copy-2" d="M220.162162,25 L229.162162,29.5 L220.162162,34 L220.162,30 L153.837838,30 L153.837838,29 L220.162,29 L220.162162,25 Z" fill="#0055C2" fill-rule="nonzero"></path>
            <g id="Group-2-Copy" transform="translate(243.000000, 0.000000)" fill-rule="nonzero">
                <path d="M29,10 L29,37 L6,37 L6,33.9142857 C6.00752416,33.9051057 25.5700074,10.0121886 25.5799257,10 L29,10 Z" id="Path" fill="#A4C2F7"></path>
                <path d="M26,33 C25.2052966,33 0.488262069,33 0,33 C0,31.0788119 0,3.2826619 0,2 L18.8275862,2 L20.7701448,6.10875476 L26,7.9047619 C26,9.00976429 26,31.7447214 26,33 Z" id="Path" fill="#FFFFFF"></path>
                <polygon id="Path" fill="#A4C2F7" points="27 7 20 7 20 1"></polygon>
                <path d="M26.1290323,34 L0.870967742,34 C0.389932258,34 0,33.6539727 0,33.2272727 L0,0.772727273 C0,0.34595 0.389932258,0 0.870967742,0 L19.1612903,0 C19.392271,0 19.6137581,0.0814454545 19.7771516,0.226331818 L26.7448935,6.40815 C26.9082,6.55303636 27,6.74961818 27,6.95454545 L27,33.2272727 C27,33.6539727 26.6099806,34 26.1290323,34 Z M1.74193548,32.4545455 L25.2580645,32.4545455 L25.2580645,7.27460909 L18.8004484,1.54545455 L1.74193548,1.54545455 L1.74193548,32.4545455 Z" id="Shape" fill="#418CFE"></path>
                <path d="M27.5017301,7.70833333 L20.3044983,7.70833333 C19.8077093,7.70833333 19.4048443,7.36323125 19.4048443,6.9375 L19.4048443,0.770833333 C19.4048443,0.345102083 19.8077093,4.61852778e-14 20.3044983,4.61852778e-14 C20.8012872,4.61852778e-14 21.2041522,0.345102083 21.2041522,0.770833333 L21.2041522,6.16666667 L27.5017301,6.16666667 C27.998519,6.16666667 28.4013841,6.51176875 28.4013841,6.9375 C28.4013841,7.36323125 27.998519,7.70833333 27.5017301,7.70833333 Z M31.100346,37 L6.89965398,37 C6.40277509,37 6,36.6548208 6,36.2291667 L6,33.1458333 C6,32.7201792 6.40277509,32.375 6.89965398,32.375 C7.39653287,32.375 7.79930796,32.7201792 7.79930796,33.1458333 L7.79930796,35.4583333 L30.200692,35.4583333 L30.200692,10.0208333 L27.5017301,10.0208333 C27.0049412,10.0208333 26.6020761,9.67573125 26.6020761,9.25 C26.6020761,8.82426875 27.0049412,8.47916667 27.5017301,8.47916667 L31.100346,8.47916667 C31.5971349,8.47916667 32,8.82426875 32,9.25 L32,36.2291667 C32,36.6548208 31.5971349,37 31.100346,37 Z" id="Shape" fill="#418CFE"></path>
                <path d="M22.1304348,28 L3.86956522,28 C3.38930435,28 3,27.6539727 3,27.2272727 C3,26.8005727 3.38930435,26.4545455 3.86956522,26.4545455 L22.1304348,26.4545455 C22.6106087,26.4545455 23,26.8005727 23,27.2272727 C23,27.6539727 22.6106087,28 22.1304348,28 Z M22.1304348,24.9090909 L3.86956522,24.9090909 C3.38930435,24.9090909 3,24.5630636 3,24.1363636 C3,23.7096636 3.38930435,23.3636364 3.86956522,23.3636364 L22.1304348,23.3636364 C22.6106087,23.3636364 23,23.7096636 23,24.1363636 C23,24.5630636 22.6106087,24.9090909 22.1304348,24.9090909 Z M22.1304348,21.8181818 L3.86956522,21.8181818 C3.38930435,21.8181818 3,21.4721545 3,21.0454545 C3,20.6187545 3.38930435,20.2727273 3.86956522,20.2727273 L22.1304348,20.2727273 C22.6106087,20.2727273 23,20.6187545 23,21.0454545 C23,21.4721545 22.6106087,21.8181818 22.1304348,21.8181818 Z M22.1304348,18.7272727 L3.86956522,18.7272727 C3.38930435,18.7272727 3,18.3813227 3,17.9545455 C3,17.5277682 3.38930435,17.1818182 3.86956522,17.1818182 L22.1304348,17.1818182 C22.6106087,17.1818182 23,17.5277682 23,17.9545455 C23,18.3813227 22.6106087,18.7272727 22.1304348,18.7272727 Z M22.1304348,15.6363636 L3.86956522,15.6363636 C3.38930435,15.6363636 3,15.2904136 3,14.8636364 C3,14.4368591 3.38930435,14.0909091 3.86956522,14.0909091 L22.1304348,14.0909091 C22.6106087,14.0909091 23,14.4368591 23,14.8636364 C23,15.2904136 22.6106087,15.6363636 22.1304348,15.6363636 Z M11.6956522,12.5454545 L3.86956522,12.5454545 C3.38930435,12.5454545 3,12.1995045 3,11.7727273 C3,11.34595 3.38930435,11 3.86956522,11 L11.6956522,11 C12.175913,11 12.5652174,11.34595 12.5652174,11.7727273 C12.5652174,12.1995045 12.175913,12.5454545 11.6956522,12.5454545 Z" id="Shape" fill="#418CFE"></path>
            </g>
        </g>
        <use id="StagingArea" stroke="#0055C2" mask="url(#mask-7)" stroke-width="12" fill="#C5DDFF" stroke-dasharray="6,6" xlink:href="#path-6"></use>
        <g id="Group-6" transform="translate(314.000000, 307.000000)">
            <circle id="Oval-Copy" stroke="#0055C2" stroke-width="6" fill="#7BB2FF" cx="20" cy="25" r="17"></circle>
            <circle id="Oval-Copy-4" stroke="#0055C2" stroke-width="6" fill="#7BB2FF" cx="134" cy="25" r="17"></circle>
            <circle id="Oval-Copy-5" stroke="#0055C2" stroke-width="6" fill="#7BB2FF" cx="251" cy="25" r="17"></circle>
            <path id="Line-13-Copy-3" d="M106.162162,20 L115.162162,24.5 L106.162162,29 L106.162,25 L39.8378378,25 L39.8378378,24 L106.162,24 L106.162162,20 Z" fill="#0055C2" fill-rule="nonzero"></path>
            <path id="Line-13-Copy-4" d="M220.162162,20 L229.162162,24.5 L220.162162,29 L220.162,25 L153.837838,25 L153.837838,24 L220.162,24 L220.162162,20 Z" fill="#0055C2" fill-rule="nonzero"></path>
            <g id="Group-2" transform="translate(243.000000, 0.000000)" fill-rule="nonzero">
                <path d="M29,10 L29,37 L6,37 L6,33.9142857 C6.00752416,33.9051057 25.5700074,10.0121886 25.5799257,10 L29,10 Z" id="Path" fill="#A4C2F7"></path>
                <path d="M26,33 C25.2052966,33 0.488262069,33 0,33 C0,31.0788119 0,3.2826619 0,2 L18.8275862,2 L20.7701448,6.10875476 L26,7.9047619 C26,9.00976429 26,31.7447214 26,33 Z" id="Path" fill="#FFFFFF"></path>
                <polygon id="Path" fill="#A4C2F7" points="27 7 20 7 20 1"></polygon>
                <path d="M26.1290323,34 L0.870967742,34 C0.389932258,34 0,33.6539727 0,33.2272727 L0,0.772727273 C0,0.34595 0.389932258,0 0.870967742,0 L19.1612903,0 C19.392271,0 19.6137581,0.0814454545 19.7771516,0.226331818 L26.7448935,6.40815 C26.9082,6.55303636 27,6.74961818 27,6.95454545 L27,33.2272727 C27,33.6539727 26.6099806,34 26.1290323,34 Z M1.74193548,32.4545455 L25.2580645,32.4545455 L25.2580645,7.27460909 L18.8004484,1.54545455 L1.74193548,1.54545455 L1.74193548,32.4545455 Z" id="Shape" fill="#418CFE"></path>
                <path d="M27.5017301,7.70833333 L20.3044983,7.70833333 C19.8077093,7.70833333 19.4048443,7.36323125 19.4048443,6.9375 L19.4048443,0.770833333 C19.4048443,0.345102083 19.8077093,4.61852778e-14 20.3044983,4.61852778e-14 C20.8012872,4.61852778e-14 21.2041522,0.345102083 21.2041522,0.770833333 L21.2041522,6.16666667 L27.5017301,6.16666667 C27.998519,6.16666667 28.4013841,6.51176875 28.4013841,6.9375 C28.4013841,7.36323125 27.998519,7.70833333 27.5017301,7.70833333 Z M31.100346,37 L6.89965398,37 C6.40277509,37 6,36.6548208 6,36.2291667 L6,33.1458333 C6,32.7201792 6.40277509,32.375 6.89965398,32.375 C7.39653287,32.375 7.79930796,32.7201792 7.79930796,33.1458333 L7.79930796,35.4583333 L30.200692,35.4583333 L30.200692,10.0208333 L27.5017301,10.0208333 C27.0049412,10.0208333 26.6020761,9.67573125 26.6020761,9.25 C26.6020761,8.82426875 27.0049412,8.47916667 27.5017301,8.47916667 L31.100346,8.47916667 C31.5971349,8.47916667 32,8.82426875 32,9.25 L32,36.2291667 C32,36.6548208 31.5971349,37 31.100346,37 Z" id="Shape" fill="#418CFE"></path>
                <path d="M22.1304348,28 L3.86956522,28 C3.38930435,28 3,27.6539727 3,27.2272727 C3,26.8005727 3.38930435,26.4545455 3.86956522,26.4545455 L22.1304348,26.4545455 C22.6106087,26.4545455 23,26.8005727 23,27.2272727 C23,27.6539727 22.6106087,28 22.1304348,28 Z M22.1304348,24.9090909 L3.86956522,24.9090909 C3.38930435,24.9090909 3,24.5630636 3,24.1363636 C3,23.7096636 3.38930435,23.3636364 3.86956522,23.3636364 L22.1304348,23.3636364 C22.6106087,23.3636364 23,23.7096636 23,24.1363636 C23,24.5630636 22.6106087,24.9090909 22.1304348,24.9090909 Z M22.1304348,21.8181818 L3.86956522,21.8181818 C3.38930435,21.8181818 3,21.4721545 3,21.0454545 C3,20.6187545 3.38930435,20.2727273 3.86956522,20.2727273 L22.1304348,20.2727273 C22.6106087,20.2727273 23,20.6187545 23,21.0454545 C23,21.4721545 22.6106087,21.8181818 22.1304348,21.8181818 Z M22.1304348,18.7272727 L3.86956522,18.7272727 C3.38930435,18.7272727 3,18.3813227 3,17.9545455 C3,17.5277682 3.38930435,17.1818182 3.86956522,17.1818182 L22.1304348,17.1818182 C22.6106087,17.1818182 23,17.5277682 23,17.9545455 C23,18.3813227 22.6106087,18.7272727 22.1304348,18.7272727 Z M22.1304348,15.6363636 L3.86956522,15.6363636 C3.38930435,15.6363636 3,15.2904136 3,14.8636364 C3,14.4368591 3.38930435,14.0909091 3.86956522,14.0909091 L22.1304348,14.0909091 C22.6106087,14.0909091 23,14.4368591 23,14.8636364 C23,15.2904136 22.6106087,15.6363636 22.1304348,15.6363636 Z M11.6956522,12.5454545 L3.86956522,12.5454545 C3.38930435,12.5454545 3,12.1995045 3,11.7727273 C3,11.34595 3.38930435,11 3.86956522,11 L11.6956522,11 C12.175913,11 12.5652174,11.34595 12.5652174,11.7727273 C12.5652174,12.1995045 12.175913,12.5454545 11.6956522,12.5454545 Z" id="Shape" fill="#418CFE"></path>
            </g>
        </g>
        <g id="Group" transform="translate(314.000000, 100.000000)">
            <circle id="Oval-Copy-11" stroke="#0055C2" stroke-width="6" fill="#7BB2FF" cx="20" cy="25" r="17"></circle>
            <circle id="Oval-Copy-12" stroke="#0055C2" stroke-width="6" fill="#7BB2FF" cx="134" cy="25" r="17"></circle>
            <path id="Line-13-Copy-9" d="M106.162162,20 L115.162162,24.5 L106.162162,29 L106.162,25 L39.8378378,25 L39.8378378,24 L106.162,24 L106.162162,20 Z" fill="#0055C2" fill-rule="nonzero"></path>
            <g id="Group-2-Copy-2" transform="translate(129.000000, 0.000000)" fill-rule="nonzero">
                <path d="M29,10 L29,37 L6,37 L6,33.9142857 C6.00752416,33.9051057 25.5700074,10.0121886 25.5799257,10 L29,10 Z" id="Path" fill="#A4C2F7"></path>
                <path d="M26,33 C25.2052966,33 0.488262069,33 0,33 C0,31.0788119 0,3.2826619 0,2 L18.8275862,2 L20.7701448,6.10875476 L26,7.9047619 C26,9.00976429 26,31.7447214 26,33 Z" id="Path" fill="#FFFFFF"></path>
                <polygon id="Path" fill="#A4C2F7" points="27 7 20 7 20 1"></polygon>
                <path d="M26.1290323,34 L0.870967742,34 C0.389932258,34 0,33.6539727 0,33.2272727 L0,0.772727273 C0,0.34595 0.389932258,0 0.870967742,0 L19.1612903,0 C19.392271,0 19.6137581,0.0814454545 19.7771516,0.226331818 L26.7448935,6.40815 C26.9082,6.55303636 27,6.74961818 27,6.95454545 L27,33.2272727 C27,33.6539727 26.6099806,34 26.1290323,34 Z M1.74193548,32.4545455 L25.2580645,32.4545455 L25.2580645,7.27460909 L18.8004484,1.54545455 L1.74193548,1.54545455 L1.74193548,32.4545455 Z" id="Shape" fill="#418CFE"></path>
                <path d="M27.5017301,7.70833333 L20.3044983,7.70833333 C19.8077093,7.70833333 19.4048443,7.36323125 19.4048443,6.9375 L19.4048443,0.770833333 C19.4048443,0.345102083 19.8077093,4.61852778e-14 20.3044983,4.61852778e-14 C20.8012872,4.61852778e-14 21.2041522,0.345102083 21.2041522,0.770833333 L21.2041522,6.16666667 L27.5017301,6.16666667 C27.998519,6.16666667 28.4013841,6.51176875 28.4013841,6.9375 C28.4013841,7.36323125 27.998519,7.70833333 27.5017301,7.70833333 Z M31.100346,37 L6.89965398,37 C6.40277509,37 6,36.6548208 6,36.2291667 L6,33.1458333 C6,32.7201792 6.40277509,32.375 6.89965398,32.375 C7.39653287,32.375 7.79930796,32.7201792 7.79930796,33.1458333 L7.79930796,35.4583333 L30.200692,35.4583333 L30.200692,10.0208333 L27.5017301,10.0208333 C27.0049412,10.0208333 26.6020761,9.67573125 26.6020761,9.25 C26.6020761,8.82426875 27.0049412,8.47916667 27.5017301,8.47916667 L31.100346,8.47916667 C31.5971349,8.47916667 32,8.82426875 32,9.25 L32,36.2291667 C32,36.6548208 31.5971349,37 31.100346,37 Z" id="Shape" fill="#418CFE"></path>
                <path d="M22.1304348,28 L3.86956522,28 C3.38930435,28 3,27.6539727 3,27.2272727 C3,26.8005727 3.38930435,26.4545455 3.86956522,26.4545455 L22.1304348,26.4545455 C22.6106087,26.4545455 23,26.8005727 23,27.2272727 C23,27.6539727 22.6106087,28 22.1304348,28 Z M22.1304348,24.9090909 L3.86956522,24.9090909 C3.38930435,24.9090909 3,24.5630636 3,24.1363636 C3,23.7096636 3.38930435,23.3636364 3.86956522,23.3636364 L22.1304348,23.3636364 C22.6106087,23.3636364 23,23.7096636 23,24.1363636 C23,24.5630636 22.6106087,24.9090909 22.1304348,24.9090909 Z M22.1304348,21.8181818 L3.86956522,21.8181818 C3.38930435,21.8181818 3,21.4721545 3,21.0454545 C3,20.6187545 3.38930435,20.2727273 3.86956522,20.2727273 L22.1304348,20.2727273 C22.6106087,20.2727273 23,20.6187545 23,21.0454545 C23,21.4721545 22.6106087,21.8181818 22.1304348,21.8181818 Z M22.1304348,18.7272727 L3.86956522,18.7272727 C3.38930435,18.7272727 3,18.3813227 3,17.9545455 C3,17.5277682 3.38930435,17.1818182 3.86956522,17.1818182 L22.1304348,17.1818182 C22.6106087,17.1818182 23,17.5277682 23,17.9545455 C23,18.3813227 22.6106087,18.7272727 22.1304348,18.7272727 Z M22.1304348,15.6363636 L3.86956522,15.6363636 C3.38930435,15.6363636 3,15.2904136 3,14.8636364 C3,14.4368591 3.38930435,14.0909091 3.86956522,14.0909091 L22.1304348,14.0909091 C22.6106087,14.0909091 23,14.4368591 23,14.8636364 C23,15.2904136 22.6106087,15.6363636 22.1304348,15.6363636 Z M11.6956522,12.5454545 L3.86956522,12.5454545 C3.38930435,12.5454545 3,12.1995045 3,11.7727273 C3,11.34595 3.38930435,11 3.86956522,11 L11.6956522,11 C12.175913,11 12.5652174,11.34595 12.5652174,11.7727273 C12.5652174,12.1995045 12.175913,12.5454545 11.6956522,12.5454545 Z" id="Shape" fill="#418CFE"></path>
            </g>
        </g>
        <g id="Group-9" transform="translate(314.000000, 513.000000)">
            <circle id="Oval-Copy-13" stroke="#0055C2" stroke-width="6" fill="#7BB2FF" cx="20" cy="25" r="17"></circle>
            <circle id="Oval-Copy-14" stroke="#0055C2" stroke-width="6" fill="#7BB2FF" cx="134" cy="25" r="17"></circle>
            <path id="Line-13-Copy-10" d="M106.162162,20 L115.162162,24.5 L106.162162,29 L106.162,25 L39.8378378,25 L39.8378378,24 L106.162,24 L106.162162,20 Z" fill="#0055C2" fill-rule="nonzero"></path>
            <g id="Group-2-Copy-3" transform="translate(129.000000, 0.000000)" fill-rule="nonzero">
                <path d="M29,10 L29,37 L6,37 L6,33.9142857 C6.00752416,33.9051057 25.5700074,10.0121886 25.5799257,10 L29,10 Z" id="Path" fill="#A4C2F7"></path>
                <path d="M26,33 C25.2052966,33 0.488262069,33 0,33 C0,31.0788119 0,3.2826619 0,2 L18.8275862,2 L20.7701448,6.10875476 L26,7.9047619 C26,9.00976429 26,31.7447214 26,33 Z" id="Path" fill="#FFFFFF"></path>
                <polygon id="Path" fill="#A4C2F7" points="27 7 20 7 20 1"></polygon>
                <path d="M26.1290323,34 L0.870967742,34 C0.389932258,34 0,33.6539727 0,33.2272727 L0,0.772727273 C0,0.34595 0.389932258,0 0.870967742,0 L19.1612903,0 C19.392271,0 19.6137581,0.0814454545 19.7771516,0.226331818 L26.7448935,6.40815 C26.9082,6.55303636 27,6.74961818 27,6.95454545 L27,33.2272727 C27,33.6539727 26.6099806,34 26.1290323,34 Z M1.74193548,32.4545455 L25.2580645,32.4545455 L25.2580645,7.27460909 L18.8004484,1.54545455 L1.74193548,1.54545455 L1.74193548,32.4545455 Z" id="Shape" fill="#418CFE"></path>
                <path d="M27.5017301,7.70833333 L20.3044983,7.70833333 C19.8077093,7.70833333 19.4048443,7.36323125 19.4048443,6.9375 L19.4048443,0.770833333 C19.4048443,0.345102083 19.8077093,4.61852778e-14 20.3044983,4.61852778e-14 C20.8012872,4.61852778e-14 21.2041522,0.345102083 21.2041522,0.770833333 L21.2041522,6.16666667 L27.5017301,6.16666667 C27.998519,6.16666667 28.4013841,6.51176875 28.4013841,6.9375 C28.4013841,7.36323125 27.998519,7.70833333 27.5017301,7.70833333 Z M31.100346,37 L6.89965398,37 C6.40277509,37 6,36.6548208 6,36.2291667 L6,33.1458333 C6,32.7201792 6.40277509,32.375 6.89965398,32.375 C7.39653287,32.375 7.79930796,32.7201792 7.79930796,33.1458333 L7.79930796,35.4583333 L30.200692,35.4583333 L30.200692,10.0208333 L27.5017301,10.0208333 C27.0049412,10.0208333 26.6020761,9.67573125 26.6020761,9.25 C26.6020761,8.82426875 27.0049412,8.47916667 27.5017301,8.47916667 L31.100346,8.47916667 C31.5971349,8.47916667 32,8.82426875 32,9.25 L32,36.2291667 C32,36.6548208 31.5971349,37 31.100346,37 Z" id="Shape" fill="#418CFE"></path>
                <path d="M22.1304348,28 L3.86956522,28 C3.38930435,28 3,27.6539727 3,27.2272727 C3,26.8005727 3.38930435,26.4545455 3.86956522,26.4545455 L22.1304348,26.4545455 C22.6106087,26.4545455 23,26.8005727 23,27.2272727 C23,27.6539727 22.6106087,28 22.1304348,28 Z M22.1304348,24.9090909 L3.86956522,24.9090909 C3.38930435,24.9090909 3,24.5630636 3,24.1363636 C3,23.7096636 3.38930435,23.3636364 3.86956522,23.3636364 L22.1304348,23.3636364 C22.6106087,23.3636364 23,23.7096636 23,24.1363636 C23,24.5630636 22.6106087,24.9090909 22.1304348,24.9090909 Z M22.1304348,21.8181818 L3.86956522,21.8181818 C3.38930435,21.8181818 3,21.4721545 3,21.0454545 C3,20.6187545 3.38930435,20.2727273 3.86956522,20.2727273 L22.1304348,20.2727273 C22.6106087,20.2727273 23,20.6187545 23,21.0454545 C23,21.4721545 22.6106087,21.8181818 22.1304348,21.8181818 Z M22.1304348,18.7272727 L3.86956522,18.7272727 C3.38930435,18.7272727 3,18.3813227 3,17.9545455 C3,17.5277682 3.38930435,17.1818182 3.86956522,17.1818182 L22.1304348,17.1818182 C22.6106087,17.1818182 23,17.5277682 23,17.9545455 C23,18.3813227 22.6106087,18.7272727 22.1304348,18.7272727 Z M22.1304348,15.6363636 L3.86956522,15.6363636 C3.38930435,15.6363636 3,15.2904136 3,14.8636364 C3,14.4368591 3.38930435,14.0909091 3.86956522,14.0909091 L22.1304348,14.0909091 C22.6106087,14.0909091 23,14.4368591 23,14.8636364 C23,15.2904136 22.6106087,15.6363636 22.1304348,15.6363636 Z M11.6956522,12.5454545 L3.86956522,12.5454545 C3.38930435,12.5454545 3,12.1995045 3,11.7727273 C3,11.34595 3.38930435,11 3.86956522,11 L11.6956522,11 C12.175913,11 12.5652174,11.34595 12.5652174,11.7727273 C12.5652174,12.1995045 12.175913,12.5454545 11.6956522,12.5454545 Z" id="Shape" fill="#418CFE"></path>
            </g>
        </g>
        <g id="Group-7" transform="translate(314.000000, 375.000000)">
            <circle id="Oval-Copy-6" stroke="#0055C2" stroke-width="6" fill="#7BB2FF" cx="20" cy="20" r="17"></circle>
            <circle id="Oval-Copy-7" stroke="#0055C2" stroke-width="6" fill="#7BB2FF" cx="134" cy="20" r="17"></circle>
            <circle id="Oval-Copy-8" stroke="#0055C2" stroke-width="6" fill="#7BB2FF" cx="251" cy="20" r="17"></circle>
            <path id="Line-13-Copy-5" d="M106.162162,15 L115.162162,19.5 L106.162162,24 L106.162,20 L39.8378378,20 L39.8378378,19 L106.162,19 L106.162162,15 Z" fill="#0055C2" fill-rule="nonzero"></path>
            <path id="Line-13-Copy-6" d="M220.162162,15 L229.162162,19.5 L220.162162,24 L220.162,20 L153.837838,20 L153.837838,19 L220.162,19 L220.162162,15 Z" fill="#0055C2" fill-rule="nonzero"></path>
            <path id="Line-13-Copy-7" d="M337.162162,15 L346.162162,19.5 L337.162162,24 L337.162,20 L270.837838,20 L270.837838,19 L337.162,19 L337.162162,15 Z" fill="#0055C2" fill-rule="nonzero"></path>
            <g id="documents-copy-11" transform="translate(346.000000, 2.000000)" fill-rule="nonzero">
                <path d="M29,10 L29,37 L6,37 L6,33.9142857 C6.00752416,33.9051057 25.5700074,10.0121886 25.5799257,10 L29,10 Z" id="Path" fill="#A4C2F7"></path>
                <path d="M26,33 C25.2052966,33 0.488262069,33 0,33 C0,31.0788119 0,3.2826619 0,2 L18.8275862,2 L20.7701448,6.10875476 L26,7.9047619 C26,9.00976429 26,31.7447214 26,33 Z" id="Path" fill="#FFFFFF"></path>
                <polygon id="Path" fill="#A4C2F7" points="27 7 20 7 20 1"></polygon>
                <path d="M26.1290323,34 L0.870967742,34 C0.389932258,34 0,33.6539727 0,33.2272727 L0,0.772727273 C0,0.34595 0.389932258,0 0.870967742,0 L19.1612903,0 C19.392271,0 19.6137581,0.0814454545 19.7771516,0.226331818 L26.7448935,6.40815 C26.9082,6.55303636 27,6.74961818 27,6.95454545 L27,33.2272727 C27,33.6539727 26.6099806,34 26.1290323,34 Z M1.74193548,32.4545455 L25.2580645,32.4545455 L25.2580645,7.27460909 L18.8004484,1.54545455 L1.74193548,1.54545455 L1.74193548,32.4545455 Z" id="Shape" fill="#418CFE"></path>
                <path d="M27.5017301,7.70833333 L20.3044983,7.70833333 C19.8077093,7.70833333 19.4048443,7.36323125 19.4048443,6.9375 L19.4048443,0.770833333 C19.4048443,0.345102083 19.8077093,0 20.3044983,0 C20.8012872,0 21.2041522,0.345102083 21.2041522,0.770833333 L21.2041522,6.16666667 L27.5017301,6.16666667 C27.998519,6.16666667 28.4013841,6.51176875 28.4013841,6.9375 C28.4013841,7.36323125 27.998519,7.70833333 27.5017301,7.70833333 Z M31.100346,37 L6.89965398,37 C6.40277509,37 6,36.6548208 6,36.2291667 L6,33.1458333 C6,32.7201792 6.40277509,32.375 6.89965398,32.375 C7.39653287,32.375 7.79930796,32.7201792 7.79930796,33.1458333 L7.79930796,35.4583333 L30.200692,35.4583333 L30.200692,10.0208333 L27.5017301,10.0208333 C27.0049412,10.0208333 26.6020761,9.67573125 26.6020761,9.25 C26.6020761,8.82426875 27.0049412,8.47916667 27.5017301,8.47916667 L31.100346,8.47916667 C31.5971349,8.47916667 32,8.82426875 32,9.25 L32,36.2291667 C32,36.6548208 31.5971349,37 31.100346,37 Z" id="Shape" fill="#418CFE"></path>
                <path d="M22.1304348,28 L3.86956522,28 C3.38930435,28 3,27.6539727 3,27.2272727 C3,26.8005727 3.38930435,26.4545455 3.86956522,26.4545455 L22.1304348,26.4545455 C22.6106087,26.4545455 23,26.8005727 23,27.2272727 C23,27.6539727 22.6106087,28 22.1304348,28 Z M22.1304348,24.9090909 L3.86956522,24.9090909 C3.38930435,24.9090909 3,24.5630636 3,24.1363636 C3,23.7096636 3.38930435,23.3636364 3.86956522,23.3636364 L22.1304348,23.3636364 C22.6106087,23.3636364 23,23.7096636 23,24.1363636 C23,24.5630636 22.6106087,24.9090909 22.1304348,24.9090909 Z M22.1304348,21.8181818 L3.86956522,21.8181818 C3.38930435,21.8181818 3,21.4721545 3,21.0454545 C3,20.6187545 3.38930435,20.2727273 3.86956522,20.2727273 L22.1304348,20.2727273 C22.6106087,20.2727273 23,20.6187545 23,21.0454545 C23,21.4721545 22.6106087,21.8181818 22.1304348,21.8181818 Z M22.1304348,18.7272727 L3.86956522,18.7272727 C3.38930435,18.7272727 3,18.3813227 3,17.9545455 C3,17.5277682 3.38930435,17.1818182 3.86956522,17.1818182 L22.1304348,17.1818182 C22.6106087,17.1818182 23,17.5277682 23,17.9545455 C23,18.3813227 22.6106087,18.7272727 22.1304348,18.7272727 Z M22.1304348,15.6363636 L3.86956522,15.6363636 C3.38930435,15.6363636 3,15.2904136 3,14.8636364 C3,14.4368591 3.38930435,14.0909091 3.86956522,14.0909091 L22.1304348,14.0909091 C22.6106087,14.0909091 23,14.4368591 23,14.8636364 C23,15.2904136 22.6106087,15.6363636 22.1304348,15.6363636 Z M11.6956522,12.5454545 L3.86956522,12.5454545 C3.38930435,12.5454545 3,12.1995045 3,11.7727273 C3,11.34595 3.38930435,11 3.86956522,11 L11.6956522,11 C12.175913,11 12.5652174,11.34595 12.5652174,11.7727273 C12.5652174,12.1995045 12.175913,12.5454545 11.6956522,12.5454545 Z" id="Shape" fill="#418CFE"></path>
            </g>
        </g>
        <circle id="Commit" stroke="#0055C2" stroke-width="6" fill="#7BB2FF" cx="57" cy="370" r="17"></circle>
        <g id="WorkingTree" transform="translate(41.000000, 170.000000)" fill-rule="nonzero">
            <path d="M29,10 L29,37 L6,37 L6,33.9142857 C6.00752416,33.9051057 25.5700074,10.0121886 25.5799257,10 L29,10 Z" id="Path" fill="#A4C2F7"></path>
            <path d="M26,33 C25.2052966,33 0.488262069,33 0,33 C0,31.0788119 0,3.2826619 0,2 L18.8275862,2 L20.7701448,6.10875476 L26,7.9047619 C26,9.00976429 26,31.7447214 26,33 Z" id="Path" fill="#FFFFFF"></path>
            <polygon id="Path" fill="#A4C2F7" points="27 7 20 7 20 1"></polygon>
            <path d="M26.1290323,34 L0.870967742,34 C0.389932258,34 0,33.6539727 0,33.2272727 L0,0.772727273 C0,0.34595 0.389932258,0 0.870967742,0 L19.1612903,0 C19.392271,0 19.6137581,0.0814454545 19.7771516,0.226331818 L26.7448935,6.40815 C26.9082,6.55303636 27,6.74961818 27,6.95454545 L27,33.2272727 C27,33.6539727 26.6099806,34 26.1290323,34 Z M1.74193548,32.4545455 L25.2580645,32.4545455 L25.2580645,7.27460909 L18.8004484,1.54545455 L1.74193548,1.54545455 L1.74193548,32.4545455 Z" id="Shape" fill="#418CFE"></path>
            <path d="M27.5017301,7.70833333 L20.3044983,7.70833333 C19.8077093,7.70833333 19.4048443,7.36323125 19.4048443,6.9375 L19.4048443,0.770833333 C19.4048443,0.345102083 19.8077093,0 20.3044983,0 C20.8012872,0 21.2041522,0.345102083 21.2041522,0.770833333 L21.2041522,6.16666667 L27.5017301,6.16666667 C27.998519,6.16666667 28.4013841,6.51176875 28.4013841,6.9375 C28.4013841,7.36323125 27.998519,7.70833333 27.5017301,7.70833333 Z M31.100346,37 L6.89965398,37 C6.40277509,37 6,36.6548208 6,36.2291667 L6,33.1458333 C6,32.7201792 6.40277509,32.375 6.89965398,32.375 C7.39653287,32.375 7.79930796,32.7201792 7.79930796,33.1458333 L7.79930796,35.4583333 L30.200692,35.4583333 L30.200692,10.0208333 L27.5017301,10.0208333 C27.0049412,10.0208333 26.6020761,9.67573125 26.6020761,9.25 C26.6020761,8.82426875 27.0049412,8.47916667 27.5017301,8.47916667 L31.100346,8.47916667 C31.5971349,8.47916667 32,8.82426875 32,9.25 L32,36.2291667 C32,36.6548208 31.5971349,37 31.100346,37 Z" id="Shape" fill="#418CFE"></path>
            <path d="M22.1304348,28 L3.86956522,28 C3.38930435,28 3,27.6539727 3,27.2272727 C3,26.8005727 3.38930435,26.4545455 3.86956522,26.4545455 L22.1304348,26.4545455 C22.6106087,26.4545455 23,26.8005727 23,27.2272727 C23,27.6539727 22.6106087,28 22.1304348,28 Z M22.1304348,24.9090909 L3.86956522,24.9090909 C3.38930435,24.9090909 3,24.5630636 3,24.1363636 C3,23.7096636 3.38930435,23.3636364 3.86956522,23.3636364 L22.1304348,23.3636364 C22.6106087,23.3636364 23,23.7096636 23,24.1363636 C23,24.5630636 22.6106087,24.9090909 22.1304348,24.9090909 Z M22.1304348,21.8181818 L3.86956522,21.8181818 C3.38930435,21.8181818 3,21.4721545 3,21.0454545 C3,20.6187545 3.38930435,20.2727273 3.86956522,20.2727273 L22.1304348,20.2727273 C22.6106087,20.2727273 23,20.6187545 23,21.0454545 C23,21.4721545 22.6106087,21.8181818 22.1304348,21.8181818 Z M22.1304348,18.7272727 L3.86956522,18.7272727 C3.38930435,18.7272727 3,18.3813227 3,17.9545455 C3,17.5277682 3.38930435,17.1818182 3.86956522,17.1818182 L22.1304348,17.1818182 C22.6106087,17.1818182 23,17.5277682 23,17.9545455 C23,18.3813227 22.6106087,18.7272727 22.1304348,18.7272727 Z M22.1304348,15.6363636 L3.86956522,15.6363636 C3.38930435,15.6363636 3,15.2904136 3,14.8636364 C3,14.4368591 3.38930435,14.0909091 3.86956522,14.0909091 L22.1304348,14.0909091 C22.6106087,14.0909091 23,14.4368591 23,14.8636364 C23,15.2904136 22.6106087,15.6363636 22.1304348,15.6363636 Z M11.6956522,12.5454545 L3.86956522,12.5454545 C3.38930435,12.5454545 3,12.1995045 3,11.7727273 C3,11.34595 3.38930435,11 3.86956522,11 L11.6956522,11 C12.175913,11 12.5652174,11.34595 12.5652174,11.7727273 C12.5652174,12.1995045 12.175913,12.5454545 11.6956522,12.5454545 Z" id="Shape" fill="#418CFE"></path>
        </g>
        <g id="Group-8" transform="translate(314.000000, 439.000000)">
            <circle id="Oval-Copy-6" stroke="#0055C2" stroke-width="6" fill="#7BB2FF" cx="20" cy="30" r="17"></circle>
            <circle id="Oval-Copy-7" stroke="#0055C2" stroke-width="6" fill="#7BB2FF" cx="134" cy="30" r="17"></circle>
            <circle id="Oval-Copy-8" stroke="#0055C2" stroke-width="6" fill="#7BB2FF" cx="251" cy="30" r="17"></circle>
            <path id="Line-13-Copy-5" d="M106.162162,25 L115.162162,29.5 L106.162162,34 L106.162,30 L39.8378378,30 L39.8378378,29 L106.162,29 L106.162162,25 Z" fill="#0055C2" fill-rule="nonzero"></path>
            <path id="Line-13-Copy-6" d="M220.162162,25 L229.162162,29.5 L220.162162,34 L220.162,30 L153.837838,30 L153.837838,29 L220.162,29 L220.162162,25 Z" fill="#0055C2" fill-rule="nonzero"></path>
            <g id="documents-copy-11" transform="translate(242.000000, 0.000000)" fill-rule="nonzero">
                <path d="M29,10 L29,37 L6,37 L6,33.9142857 C6.00752416,33.9051057 25.5700074,10.0121886 25.5799257,10 L29,10 Z" id="Path" fill="#A4C2F7"></path>
                <path d="M26,33 C25.2052966,33 0.488262069,33 0,33 C0,31.0788119 0,3.2826619 0,2 L18.8275862,2 L20.7701448,6.10875476 L26,7.9047619 C26,9.00976429 26,31.7447214 26,33 Z" id="Path" fill="#FFFFFF"></path>
                <polygon id="Path" fill="#A4C2F7" points="27 7 20 7 20 1"></polygon>
                <path d="M26.1290323,34 L0.870967742,34 C0.389932258,34 0,33.6539727 0,33.2272727 L0,0.772727273 C0,0.34595 0.389932258,0 0.870967742,0 L19.1612903,0 C19.392271,0 19.6137581,0.0814454545 19.7771516,0.226331818 L26.7448935,6.40815 C26.9082,6.55303636 27,6.74961818 27,6.95454545 L27,33.2272727 C27,33.6539727 26.6099806,34 26.1290323,34 Z M1.74193548,32.4545455 L25.2580645,32.4545455 L25.2580645,7.27460909 L18.8004484,1.54545455 L1.74193548,1.54545455 L1.74193548,32.4545455 Z" id="Shape" fill="#418CFE"></path>
                <path d="M27.5017301,7.70833333 L20.3044983,7.70833333 C19.8077093,7.70833333 19.4048443,7.36323125 19.4048443,6.9375 L19.4048443,0.770833333 C19.4048443,0.345102083 19.8077093,0 20.3044983,0 C20.8012872,0 21.2041522,0.345102083 21.2041522,0.770833333 L21.2041522,6.16666667 L27.5017301,6.16666667 C27.998519,6.16666667 28.4013841,6.51176875 28.4013841,6.9375 C28.4013841,7.36323125 27.998519,7.70833333 27.5017301,7.70833333 Z M31.100346,37 L6.89965398,37 C6.40277509,37 6,36.6548208 6,36.2291667 L6,33.1458333 C6,32.7201792 6.40277509,32.375 6.89965398,32.375 C7.39653287,32.375 7.79930796,32.7201792 7.79930796,33.1458333 L7.79930796,35.4583333 L30.200692,35.4583333 L30.200692,10.0208333 L27.5017301,10.0208333 C27.0049412,10.0208333 26.6020761,9.67573125 26.6020761,9.25 C26.6020761,8.82426875 27.0049412,8.47916667 27.5017301,8.47916667 L31.100346,8.47916667 C31.5971349,8.47916667 32,8.82426875 32,9.25 L32,36.2291667 C32,36.6548208 31.5971349,37 31.100346,37 Z" id="Shape" fill="#418CFE"></path>
                <path d="M22.1304348,28 L3.86956522,28 C3.38930435,28 3,27.6539727 3,27.2272727 C3,26.8005727 3.38930435,26.4545455 3.86956522,26.4545455 L22.1304348,26.4545455 C22.6106087,26.4545455 23,26.8005727 23,27.2272727 C23,27.6539727 22.6106087,28 22.1304348,28 Z M22.1304348,24.9090909 L3.86956522,24.9090909 C3.38930435,24.9090909 3,24.5630636 3,24.1363636 C3,23.7096636 3.38930435,23.3636364 3.86956522,23.3636364 L22.1304348,23.3636364 C22.6106087,23.3636364 23,23.7096636 23,24.1363636 C23,24.5630636 22.6106087,24.9090909 22.1304348,24.9090909 Z M22.1304348,21.8181818 L3.86956522,21.8181818 C3.38930435,21.8181818 3,21.4721545 3,21.0454545 C3,20.6187545 3.38930435,20.2727273 3.86956522,20.2727273 L22.1304348,20.2727273 C22.6106087,20.2727273 23,20.6187545 23,21.0454545 C23,21.4721545 22.6106087,21.8181818 22.1304348,21.8181818 Z M22.1304348,18.7272727 L3.86956522,18.7272727 C3.38930435,18.7272727 3,18.3813227 3,17.9545455 C3,17.5277682 3.38930435,17.1818182 3.86956522,17.1818182 L22.1304348,17.1818182 C22.6106087,17.1818182 23,17.5277682 23,17.9545455 C23,18.3813227 22.6106087,18.7272727 22.1304348,18.7272727 Z M22.1304348,15.6363636 L3.86956522,15.6363636 C3.38930435,15.6363636 3,15.2904136 3,14.8636364 C3,14.4368591 3.38930435,14.0909091 3.86956522,14.0909091 L22.1304348,14.0909091 C22.6106087,14.0909091 23,14.4368591 23,14.8636364 C23,15.2904136 22.6106087,15.6363636 22.1304348,15.6363636 Z M11.6956522,12.5454545 L3.86956522,12.5454545 C3.38930435,12.5454545 3,12.1995045 3,11.7727273 C3,11.34595 3.38930435,11 3.86956522,11 L11.6956522,11 C12.175913,11 12.5652174,11.34595 12.5652174,11.7727273 C12.5652174,12.1995045 12.175913,12.5454545 11.6956522,12.5454545 Z" id="Shape" fill="#418CFE"></path>
            </g>
        </g>
        <text id="Status-B-Copy" font-family="Helvetica" font-size="21" font-weight="normal" fill="#0055C2">
            <tspan x="404.312256" y="75">Status B</tspan>
        </text>
        <text id="Status-C-Copy" font-family="Helvetica" font-size="21" font-weight="normal" fill="#0055C2">
            <tspan x="517.23291" y="75">Status C</tspan>
        </text>
        <text id="Status-D" font-family="Helvetica" font-size="21" font-weight="normal" fill="#0055C2">
            <tspan x="631.23291" y="75">Status D</tspan>
        </text>
        <path id="Path-6" d="M541.634973,132.227466 C547.197508,136.799511 551.301766,141.488452 553.939908,146.301088 L560.001653,144.839841 L556.479592,160.090909 L546.391974,148.122619 L551.920939,146.78835 C549.406278,142.38037 545.556662,138.039723 540.365027,133.772534 C530.154686,125.380293 512.72432,121.305601 488.07653,121.623983 L487.252264,121.636223 L487.21873,119.636504 C512.732475,119.208657 530.870327,123.379621 541.634973,132.227466 Z" fill="#4F4F4F" fill-rule="nonzero"></path>
        <path id="Path-6-Copy-3" d="M653.634973,348.227466 C659.197508,352.799511 663.301766,357.488452 665.939908,362.301088 L672.001653,360.839841 L668.479592,376.090909 L658.391974,364.122619 L663.920939,362.78835 C661.406278,358.38037 657.556662,354.039723 652.365027,349.772534 C642.154686,341.380293 624.72432,337.305601 600.07653,337.623983 L599.252264,337.636223 L599.21873,335.636504 C624.732475,335.208657 642.870327,339.379621 653.634973,348.227466 Z" fill="#4F4F4F" fill-rule="nonzero"></path>
        <path id="Path-6-Copy-4" d="M667.413139,427.946159 L669.161714,428.916977 C656.775368,451.226452 644.094281,464.84881 631.049499,469.747345 C624.308264,472.278793 618.195016,473.488706 612.70779,473.366895 L610.943523,479.347169 L599.496741,468.671441 L614.905393,465.919452 L613.295853,471.374808 C618.37075,471.401127 624.054858,470.237587 630.346404,467.875005 C642.856947,463.177086 655.235511,449.879706 667.413139,427.946159 Z" fill="#FF6464" fill-rule="nonzero"></path>
        <path id="Path-6-Copy-7" d="M552.413139,492.946159 L554.161714,493.916977 C541.775368,516.226452 529.094281,529.84881 516.049499,534.747345 C509.308264,537.278793 503.195016,538.488706 497.70779,538.366895 L495.943523,544.347169 L484.496741,533.671441 L499.905393,530.919452 L498.295853,536.374808 C503.37075,536.401127 509.054858,535.237587 515.346404,532.875005 C527.856947,528.177086 540.235511,514.879706 552.413139,492.946159 Z" fill="#FF6464" fill-rule="nonzero"></path>
        <path id="Path-6-Copy-2" d="M607.595156,277.623284 C608.410014,279.626983 608.96877,281.978901 609.336864,284.697862 C609.409136,285.231711 609.471067,285.734011 609.525393,286.235333 L609.577284,286.737461 C609.742481,288.417682 609.833305,290.200256 609.951098,293.217407 C610.204858,299.717277 609.523275,304.300394 607.398428,311.344441 C606.860046,313.129223 605.987155,314.996023 604.782466,316.947342 L609.440069,320.959766 L595,327 L598.831854,311.823805 L603.247184,315.623807 C604.278074,313.914318 605.022792,312.294621 605.483648,310.766845 C607.547894,303.923694 608.197122,299.558144 607.95262,293.29543 C607.790245,289.136314 607.680694,287.372365 607.354943,284.966175 C607.00761,282.400565 606.485973,280.204886 605.742499,278.376716 C602.697778,270.889887 599.698012,267.909658 596.843739,268.877604 L596.693649,268.932191 L595.969718,267.067809 C600.290927,265.389903 604.130766,269.104506 607.595156,277.623284 Z" fill="#FF6464" fill-rule="nonzero"></path>
        <path id="Path-6-Copy-5" d="M586.036843,185.381264 C595.740406,185.739017 602.774523,190.152602 607.005164,198.550074 C608.020908,200.566242 608.717441,202.932892 609.175919,205.666617 C609.595356,208.167559 609.734539,209.976611 609.939194,214.20811 C610.254889,220.735494 609.406161,225.342324 606.76664,232.405692 C605.963199,234.555701 604.566198,236.817316 602.580736,239.198456 L606.712178,243.718949 L591.656528,248 L597.265077,233.386849 L601.218084,237.708049 C602.974725,235.568506 604.19822,233.565302 604.893177,231.705594 C607.443185,224.881764 608.243093,220.539926 607.941529,214.304727 C607.740737,210.153098 607.605395,208.393962 607.203466,205.99742 C606.775659,203.446574 606.133781,201.265627 605.219032,199.449926 C601.387113,191.843883 595.164995,187.850106 586.425458,187.400308 L585.963157,187.379907 L586.036843,185.381264 Z" fill="#FF6464" fill-rule="nonzero"></path>
        <path id="Path-6-Copy-6" d="M519.655948,191.811262 C529.359511,192.169014 536.393628,196.582599 540.624269,204.980071 C541.640013,206.99624 542.336546,209.362889 542.795024,212.096614 C543.214461,214.597556 543.353645,216.406608 543.558299,220.638108 C543.873994,227.165492 543.025266,231.772321 540.385745,238.835689 C539.582305,240.985698 538.185303,243.247313 536.199841,245.628453 L540.331283,250.148946 L525.275633,254.429997 L530.884182,239.816846 L534.837189,244.138046 C536.59383,241.998503 537.817325,239.995299 538.512282,238.135591 C541.06229,231.311761 541.862198,226.969923 541.560634,220.734724 C541.359843,216.583095 541.2245,214.823959 540.822571,212.427417 C540.394765,209.876571 539.752886,207.695624 538.838137,205.879923 C535.006218,198.27388 528.7841,194.280103 520.044563,193.830305 L519.582262,193.809904 L519.655948,191.811262 Z" transform="translate(531.119105, 223.620290) rotate(-180.000000) translate(-531.119105, -223.620290) " fill="#FF6464" fill-rule="nonzero"></path>
        <line x1="271.5" y1="55.5396146" x2="271.5" y2="558.460385" id="Line-12" stroke="#979797" stroke-linecap="square" stroke-dasharray="5"></line>
        <line x1="384.5" y1="55.5396146" x2="384.5" y2="558.460385" id="Line-12-Copy" stroke="#979797" stroke-linecap="square" stroke-dasharray="5"></line>
        <line x1="498.5" y1="55.5396146" x2="498.5" y2="558.460385" id="Line-12-Copy-2" stroke="#979797" stroke-linecap="square" stroke-dasharray="5"></line>
        <line x1="611.5" y1="55.5396146" x2="611.5" y2="558.460385" id="Line-12-Copy-3" stroke="#979797" stroke-linecap="square" stroke-dasharray="5"></line>
        <line x1="724.5" y1="55.5396146" x2="724.5" y2="558.460385" id="Line-12-Copy-4" stroke="#979797" stroke-linecap="square" stroke-dasharray="5"></line>
        <rect id="Rectangle" stroke="#0055C2" x="24.5" y="128.5" width="160" height="365"></rect>
        <g id="Group-5-Copy-11" transform="translate(271.000000, 328.250000) rotate(-270.000000) translate(-271.000000, -328.250000) translate(62.250000, 321.250000)" fill="#7BB2FF">
            <rect id="Rectangle" transform="translate(200.062426, 6.500000) rotate(-540.000000) translate(-200.062426, -6.500000) " x="0" y="3.5" width="400.124851" height="6"></rect>
            <path d="M409.495332,0.441443615 L415.029677,14.5710854 C415.231098,15.0853304 414.977504,15.6654925 414.463259,15.8669137 C414.347054,15.9124294 414.223355,15.9357907 414.098554,15.9357907 L403.029865,15.9357907 C402.47758,15.9357907 402.029865,15.4880755 402.029865,14.9357907 C402.029865,14.8109894 402.053226,14.6872908 402.098742,14.5710854 L407.633086,0.441443615 C407.834507,-0.0728014135 408.41467,-0.32639524 408.928915,-0.12497405 C409.188396,-0.0233394394 409.393698,0.181962011 409.495332,0.441443615 Z" id="Triangle-Copy" transform="translate(408.564209, 7.000000) scale(-1, 1) rotate(-450.000000) translate(-408.564209, -7.000000) "></path>
        </g>
        <g id="Group-2-Copy-11" transform="translate(417.000000, 86.000000)">
            <circle id="Oval" fill="#006AE1" cx="10" cy="12" r="10"></circle>
            <text id="1" font-family="Helvetica-Bold, Helvetica" font-size="18" font-weight="bold" fill="#FFFFFF">
                <tspan x="5.49462891" y="18">1</tspan>
            </text>
        </g>
        <g id="Group-2-Copy-12" transform="translate(491.000000, 95.000000)">
            <circle id="Oval" fill="#006AE1" cx="10" cy="12" r="10"></circle>
            <text id="2" font-family="Helvetica-Bold, Helvetica" font-size="18" font-weight="bold" fill="#FFFFFF">
                <tspan x="5.49462891" y="18">2</tspan>
            </text>
        </g>
        <g id="Group-2-Copy-13" transform="translate(645.000000, 175.000000)">
            <circle id="Oval" fill="#006AE1" cx="10" cy="12" r="10"></circle>
            <text id="3" font-family="Helvetica-Bold, Helvetica" font-size="18" font-weight="bold" fill="#FFFFFF">
                <tspan x="5.49462891" y="18">3</tspan>
            </text>
        </g>
        <g id="Group-2-Copy-15" transform="translate(665.000000, 262.000000)">
            <circle id="Oval" fill="#006AE1" cx="10" cy="12" r="10"></circle>
            <text id="5" font-family="Helvetica-Bold, Helvetica" font-size="18" font-weight="bold" fill="#FFFFFF">
                <tspan x="5.49462891" y="18">5</tspan>
            </text>
        </g>
        <g id="Group-2-Copy-16" transform="translate(626.000000, 316.000000)">
            <circle id="Oval" fill="#006AE1" cx="10" cy="12" r="10"></circle>
            <text id="6" font-family="Helvetica-Bold, Helvetica" font-size="18" font-weight="bold" fill="#FFFFFF">
                <tspan x="5.49462891" y="18">6</tspan>
            </text>
        </g>
        <g id="Group-2-Copy-17" transform="translate(690.000000, 429.000000)">
            <circle id="Oval" fill="#006AE1" cx="10" cy="12" r="10"></circle>
            <text id="7" font-family="Helvetica-Bold, Helvetica" font-size="18" font-weight="bold" fill="#FFFFFF">
                <tspan x="5.49462891" y="18">7</tspan>
            </text>
        </g>
        <g id="Group-2-Copy-18" transform="translate(570.000000, 498.000000)">
            <circle id="Oval" fill="#006AE1" cx="10" cy="12" r="10"></circle>
            <text id="8" font-family="Helvetica-Bold, Helvetica" font-size="18" font-weight="bold" fill="#FFFFFF">
                <tspan x="5.49462891" y="18">8</tspan>
            </text>
        </g>
        <g id="Group-2-Copy-14" transform="translate(471.000000, 197.000000)">
            <circle id="Oval" fill="#006AE1" cx="10" cy="12" r="10"></circle>
            <text id="4" font-family="Helvetica-Bold, Helvetica" font-size="18" font-weight="bold" fill="#FFFFFF">
                <tspan x="5.49462891" y="18">4</tspan>
            </text>
        </g>
    </g>
</svg>