<svg width="800" height="600" viewBox="0 0 800 600" fill="none" xmlns="http://www.w3.org/2000/svg">
<g clip-path="url(#clip0_5189_12509)">
<rect width="800" height="600" fill="url(#paint0_linear_5189_12509)"/>
<path d="M331.668 110.566C331.668 126.842 333.003 139.31 335.672 147.969C338.341 156.562 343.81 160.859 352.078 160.859C360.346 160.859 365.75 156.562 368.289 147.969C370.893 139.31 372.195 126.842 372.195 110.566C372.195 93.5091 370.893 80.8789 368.289 72.6758C365.75 64.4727 360.346 60.3711 352.078 60.3711C343.81 60.3711 338.341 64.4727 335.672 72.6758C333.003 80.8789 331.668 93.5091 331.668 110.566ZM352.078 37.4219C370.112 37.4219 382.742 43.7695 389.969 56.4648C397.26 69.1602 400.906 87.194 400.906 110.566C400.906 133.939 397.26 151.94 389.969 164.57C382.742 177.201 370.112 183.516 352.078 183.516C334.044 183.516 321.382 177.201 314.09 164.57C306.863 151.94 303.25 133.939 303.25 110.566C303.25 87.194 306.863 69.1602 314.09 56.4648C321.382 43.7695 334.044 37.4219 352.078 37.4219ZM513.797 62.0312C509.63 66.1328 503.836 73.457 496.414 84.0039C488.992 94.4857 482.775 105.326 477.762 116.523C473.79 125.312 470.21 136.055 467.02 148.75C463.829 161.445 462.234 171.862 462.234 180H433.328C434.174 154.609 442.508 128.21 458.328 100.801C468.549 83.8086 477.111 71.9596 484.012 65.2539H413.406L413.797 40.2539H513.797V62.0312Z" fill="white" fill-opacity="0.5"/>
<circle cx="73" cy="300" r="173" fill="white"/>
<circle cx="132.5" cy="111.5" r="19.5" fill="white"/>
<circle cx="172" cy="76" r="10" fill="white"/>
<circle cx="212.5" cy="60.5" r="7.5" fill="white"/>
<circle cx="246.5" cy="56.5" r="5.5" fill="white"/>
<circle cx="270.5" cy="62.5" r="4.5" fill="white"/>
<circle cx="288.5" cy="76.5" r="3.5" fill="white"/>
<path d="M42.1621 368.176C41.752 366.406 40.75 365.17 39.1562 364.467C38.2656 364.08 37.2754 363.887 36.1855 363.887C34.0996 363.887 32.3828 364.678 31.0352 366.26C29.6992 367.83 29.0312 370.197 29.0312 373.361C29.0312 376.549 29.7578 378.805 31.2109 380.129C32.6641 381.453 34.3164 382.115 36.168 382.115C37.9844 382.115 39.4727 381.594 40.6328 380.551C41.793 379.496 42.5078 378.119 42.7773 376.42H36.7832V372.096H47.5762V386H43.9902L43.4453 382.766C42.4023 383.996 41.4648 384.863 40.6328 385.367C39.2031 386.246 37.4453 386.686 35.3594 386.686C31.9258 386.686 29.1133 385.496 26.9219 383.117C24.6367 380.727 23.4941 377.457 23.4941 373.309C23.4941 369.113 24.6484 365.75 26.957 363.219C29.2656 360.688 32.3184 359.422 36.1152 359.422C39.4082 359.422 42.0508 360.26 44.043 361.936C46.0469 363.6 47.1953 365.68 47.4883 368.176H42.1621ZM57.5078 364.555H52.4277V359.932H57.5078V364.555ZM52.4277 366.84H57.5078V386H52.4277V366.84ZM60.4082 370.584V367.016H63.0801V361.672H68.0371V367.016H71.1484V370.584H68.0371V380.709C68.0371 381.494 68.1367 381.986 68.3359 382.186C68.5352 382.373 69.1445 382.467 70.1641 382.467C70.3164 382.467 70.4746 382.467 70.6387 382.467C70.8145 382.455 70.9844 382.443 71.1484 382.432V386.176L68.7754 386.264C66.4082 386.346 64.791 385.936 63.9238 385.033C63.3613 384.459 63.0801 383.574 63.0801 382.379V370.584H60.4082ZM74.7344 386V360.09H80.0957V369.969H90.2207V360.09H95.5996V386H90.2207V374.434H80.0957V386H74.7344ZM105.373 366.84V378.389C105.373 379.479 105.502 380.299 105.76 380.85C106.217 381.822 107.113 382.309 108.449 382.309C110.16 382.309 111.332 381.617 111.965 380.234C112.293 379.484 112.457 378.494 112.457 377.264V366.84H117.537V386H112.668V383.293C112.621 383.352 112.504 383.527 112.316 383.82C112.129 384.113 111.906 384.371 111.648 384.594C110.863 385.297 110.102 385.777 109.363 386.035C108.637 386.293 107.781 386.422 106.797 386.422C103.961 386.422 102.051 385.402 101.066 383.363C100.516 382.238 100.24 380.58 100.24 378.389V366.84H105.373ZM132.742 366.418C135.262 366.418 137.23 367.326 138.648 369.143C140.078 370.959 140.793 373.303 140.793 376.174C140.793 379.15 140.09 381.617 138.684 383.574C137.277 385.531 135.314 386.51 132.795 386.51C131.213 386.51 129.941 386.193 128.98 385.561C128.406 385.186 127.785 384.529 127.117 383.592V386H122.213V360.125H127.205V369.336C127.838 368.445 128.535 367.766 129.297 367.297C130.199 366.711 131.348 366.418 132.742 366.418ZM131.459 382.379C132.748 382.379 133.75 381.857 134.465 380.814C135.18 379.771 135.537 378.4 135.537 376.701C135.537 375.342 135.361 374.217 135.01 373.326C134.342 371.639 133.111 370.795 131.318 370.795C129.502 370.795 128.254 371.621 127.574 373.273C127.223 374.152 127.047 375.289 127.047 376.684C127.047 378.324 127.41 379.684 128.137 380.762C128.863 381.84 129.971 382.379 131.459 382.379Z" fill="#363636"/>
<path fill-rule="evenodd" clip-rule="evenodd" d="M97.5328 219.551C97.5328 221.853 98.843 223.186 101.107 223.186C103.41 223.186 104.72 221.853 104.719 219.551C104.719 217.252 103.41 216 101.107 216C98.843 216 97.5328 217.253 97.5328 219.551ZM90.4686 230.52C91.1828 231.449 91.9384 232.741 91.9384 234.598C91.9384 239.078 88.4841 241.702 83.4826 241.702C82.2107 241.702 81.0592 241.542 80.3451 241.34L79.0349 243.479L82.9248 243.72L83.1521 243.735C89.8828 244.171 93.8423 244.427 93.8423 249.734C93.8423 254.378 89.8334 257 82.9248 257C75.7385 257 73 255.143 73 251.955C73 250.138 73.7948 249.171 75.184 247.837C73.873 247.274 73.4373 246.265 73.4373 245.175C73.4373 244.286 73.8737 243.479 74.5887 242.712C75.3037 241.946 76.0976 241.177 77.0496 240.29C75.1042 239.321 73.636 237.222 73.636 234.234C73.636 229.592 76.653 226.405 82.7269 226.405C84.4345 226.405 85.4679 226.564 86.3799 226.809H94.1224V230.239L90.4686 230.52ZM79.2742 234.114C79.2742 231.489 80.9004 230.399 83.0844 230.399C85.3474 230.399 86.6983 231.651 86.6983 234.032C86.6983 236.132 85.1886 237.464 82.9671 237.464C80.3459 237.464 79.2742 236.091 79.2742 234.114ZM77.6863 251.069C77.6863 250.26 78.2018 249.575 78.7189 248.93L84.5135 249.332L84.5862 249.337C86.4581 249.456 87.9295 249.55 87.9295 250.827C87.9295 253.004 84.7928 253.168 82.4908 253.168C79.7099 253.168 77.6863 252.683 77.6863 251.069ZM95.984 247.445V244.257L98.01 243.975C98.5653 243.894 98.6443 243.773 98.6443 243.166V231.299C98.6443 230.856 98.5262 230.572 98.1281 230.451L95.984 229.684L96.4205 226.416H104.64V243.167C104.64 243.814 104.678 243.894 105.275 243.976L107.3 244.258V247.446H95.984V247.445ZM116.527 247.494C118.792 247.494 121.292 246.725 123 245.879L121.928 242.327C120.976 242.69 119.826 242.972 118.713 242.972C116.569 242.972 116.013 242.044 116.013 239.663V230.016H121.928V225.979H116.331C116.013 225.979 116.013 225.857 116.013 225.575V219.842H112.241C111.804 224.242 110.416 226.018 106.921 226.422V230.015H109.699C110.017 230.015 110.017 230.177 110.017 230.418V240.994C110.017 245.558 111.803 247.494 116.527 247.494Z" fill="#31251C"/>
<path d="M63.2074 235.129L44.8697 216.792C43.8146 215.736 42.1016 215.736 41.0456 216.792L37.2377 220.6L42.067 225.43C43.1906 225.051 44.4772 225.305 45.3719 226.201C46.2715 227.101 46.5238 228.399 46.1353 229.526L50.7904 234.181C51.9157 233.793 53.216 234.044 54.1155 234.944C55.373 236.201 55.373 238.238 54.1155 239.496C52.8572 240.753 50.8211 240.753 49.5636 239.496C48.618 238.549 48.3843 237.16 48.8631 235.996L44.5215 231.654L44.5207 243.08C44.8278 243.231 45.1164 243.433 45.3719 243.687C46.6294 244.944 46.6294 246.98 45.3719 248.239C44.1144 249.496 42.0766 249.496 40.8207 248.239C39.5632 246.98 39.5632 244.944 40.8207 243.687C41.1319 243.377 41.4906 243.142 41.8743 242.985V231.454C41.4906 231.298 41.1319 231.064 40.8207 230.752C39.8679 229.8 39.639 228.403 40.1275 227.233L35.3668 222.471L22.7926 235.044C21.7358 236.101 21.7358 237.814 22.7926 238.871L41.1303 257.208C42.1863 258.264 43.8984 258.264 44.956 257.208L63.2074 238.955C64.2642 237.899 64.2642 236.185 63.2074 235.129V235.129Z" fill="#F34F29"/>
<path d="M84.4999 291C70.5231 291.001 58.6095 301.212 56.3706 315.111C54.1317 329.009 62.2284 342.492 75.4877 346.945C76.9125 347.196 77.4469 346.335 77.4469 345.581C77.4469 344.9 77.4112 342.639 77.4112 340.235C70.2512 341.562 68.3989 338.476 67.829 336.861C67.1965 335.291 66.194 333.899 64.908 332.806C63.9106 332.268 62.4857 330.94 64.8723 330.904C66.7218 331.107 68.3572 332.205 69.2538 333.847C70.041 335.272 71.3586 336.322 72.9158 336.766C74.473 337.211 76.1417 337.012 77.5536 336.215C77.677 334.756 78.3226 333.391 79.3704 332.376C73.0297 331.658 66.4041 329.182 66.4041 318.201C66.3641 315.348 67.4092 312.587 69.3251 310.486C68.4539 308.006 68.5558 305.285 69.61 302.878C69.61 302.878 71.9966 302.124 77.4468 305.821C82.1098 304.529 87.0325 304.529 91.6954 305.821C97.1455 302.089 99.5322 302.878 99.5322 302.878C100.587 305.285 100.689 308.006 99.8172 310.486C101.739 312.584 102.785 315.347 102.738 318.201C102.738 329.218 96.0768 331.658 89.7362 332.376C91.1124 333.781 91.8143 335.719 91.6598 337.687C91.6598 341.527 91.6242 344.613 91.6242 345.582C91.6242 346.335 92.1585 347.232 93.5833 346.945C106.818 342.456 114.878 328.971 112.623 315.087C110.369 301.203 98.4648 291.007 84.4999 291Z" fill="black"/>
<path d="M313.992 336.396V350.897H326.773C329.312 350.897 331.216 350.604 332.486 350.019C334.732 348.993 335.855 346.967 335.855 343.939C335.855 340.668 334.769 338.471 332.596 337.348C331.375 336.713 329.544 336.396 327.103 336.396H313.992ZM329.446 327.021C333.23 327.094 336.136 327.558 338.162 328.412C340.213 329.267 341.946 330.524 343.362 332.184C344.534 333.551 345.462 335.065 346.146 336.725C346.829 338.385 347.171 340.277 347.171 342.401C347.171 344.965 346.524 347.492 345.23 349.982C343.936 352.448 341.8 354.193 338.821 355.219C341.312 356.22 343.069 357.648 344.095 359.503C345.145 361.334 345.669 364.142 345.669 367.926V371.552C345.669 374.018 345.767 375.69 345.962 376.569C346.255 377.96 346.939 378.986 348.013 379.645V381H335.599C335.257 379.804 335.013 378.839 334.866 378.107C334.573 376.593 334.415 375.043 334.39 373.456L334.317 368.439C334.268 364.997 333.633 362.702 332.413 361.554C331.216 360.407 328.958 359.833 325.638 359.833H313.992V381H302.969V327.021H329.446ZM371.817 348.627C369.4 348.627 367.52 349.384 366.177 350.897C364.859 352.411 364.029 354.462 363.687 357.05H379.91C379.739 354.291 378.897 352.204 377.383 350.788C375.894 349.347 374.039 348.627 371.817 348.627ZM371.817 340.021C375.137 340.021 378.128 340.644 380.789 341.889C383.45 343.134 385.647 345.099 387.381 347.785C388.943 350.153 389.957 352.899 390.42 356.024C390.689 357.855 390.799 360.492 390.75 363.935H363.431C363.577 367.938 364.834 370.746 367.203 372.357C368.643 373.358 370.376 373.859 372.403 373.859C374.551 373.859 376.297 373.249 377.64 372.028C378.372 371.369 379.019 370.453 379.581 369.281H390.237C389.969 371.649 388.736 374.054 386.539 376.496C383.121 380.377 378.335 382.318 372.183 382.318C367.105 382.318 362.625 380.683 358.743 377.411C354.861 374.14 352.92 368.817 352.92 361.444C352.92 354.535 354.666 349.237 358.157 345.551C361.673 341.864 366.226 340.021 371.817 340.021ZM442.422 340.204C444.18 340.204 445.914 340.546 447.623 341.229C449.332 341.913 450.882 343.109 452.273 344.818C453.396 346.21 454.153 347.919 454.544 349.945C454.788 351.288 454.91 353.253 454.91 355.841L454.837 381H444.144V355.585C444.144 354.071 443.899 352.826 443.411 351.85C442.483 349.994 440.774 349.066 438.284 349.066C435.403 349.066 433.414 350.263 432.315 352.655C431.753 353.925 431.473 355.451 431.473 357.233V381H420.962V357.233C420.962 354.865 420.718 353.144 420.23 352.069C419.351 350.141 417.63 349.176 415.066 349.176C412.088 349.176 410.086 350.141 409.061 352.069C408.499 353.168 408.218 354.804 408.218 356.977V381H397.635V341.156H407.779V346.979C409.073 344.904 410.293 343.427 411.441 342.548C413.467 340.985 416.092 340.204 419.314 340.204C422.366 340.204 424.832 340.875 426.712 342.218C428.226 343.463 429.373 345.062 430.154 347.016C431.521 344.672 433.218 342.951 435.245 341.852C437.393 340.753 439.786 340.204 442.422 340.204ZM482.449 373.639C485.501 373.639 487.845 372.553 489.48 370.38C491.116 368.207 491.934 365.119 491.934 361.115C491.934 357.111 491.116 354.035 489.48 351.886C487.845 349.713 485.501 348.627 482.449 348.627C479.397 348.627 477.042 349.713 475.381 351.886C473.746 354.035 472.928 357.111 472.928 361.115C472.928 365.119 473.746 368.207 475.381 370.38C477.042 372.553 479.397 373.639 482.449 373.639ZM502.884 361.115C502.884 366.974 501.199 371.991 497.83 376.166C494.461 380.316 489.346 382.392 482.486 382.392C475.625 382.392 470.511 380.316 467.142 376.166C463.772 371.991 462.088 366.974 462.088 361.115C462.088 355.353 463.772 350.36 467.142 346.137C470.511 341.913 475.625 339.801 482.486 339.801C489.346 339.801 494.461 341.913 497.83 346.137C501.199 350.36 502.884 355.353 502.884 361.115ZM506.29 348.883V341.449H511.856V330.316H522.183V341.449H528.665V348.883H522.183V369.977C522.183 371.613 522.391 372.638 522.806 373.053C523.221 373.444 524.49 373.639 526.614 373.639C526.932 373.639 527.261 373.639 527.603 373.639C527.969 373.615 528.323 373.59 528.665 373.566V381.366L523.721 381.549C518.79 381.72 515.42 380.866 513.614 378.986C512.442 377.79 511.856 375.946 511.856 373.456V348.883H506.29ZM551.114 348.627C548.697 348.627 546.817 349.384 545.474 350.897C544.156 352.411 543.326 354.462 542.984 357.05H559.207C559.036 354.291 558.194 352.204 556.68 350.788C555.191 349.347 553.335 348.627 551.114 348.627ZM551.114 340.021C554.434 340.021 557.425 340.644 560.086 341.889C562.747 343.134 564.944 345.099 566.678 347.785C568.24 350.153 569.253 352.899 569.717 356.024C569.986 357.855 570.096 360.492 570.047 363.935H542.728C542.874 367.938 544.131 370.746 546.5 372.357C547.94 373.358 549.673 373.859 551.7 373.859C553.848 373.859 555.594 373.249 556.937 372.028C557.669 371.369 558.316 370.453 558.877 369.281H569.534C569.266 371.649 568.033 374.054 565.835 376.496C562.417 380.377 557.632 382.318 551.48 382.318C546.402 382.318 541.922 380.683 538.04 377.411C534.158 374.14 532.217 368.817 532.217 361.444C532.217 354.535 533.963 349.237 537.454 345.551C540.97 341.864 545.523 340.021 551.114 340.021ZM300.369 440.45C300.369 431.026 302.896 423.763 307.95 418.66C312.344 414.217 317.935 411.995 324.722 411.995C333.804 411.995 340.445 414.974 344.644 420.931C346.963 424.275 348.208 427.632 348.379 431.001H337.1C336.368 428.414 335.428 426.46 334.28 425.142C332.229 422.798 329.19 421.626 325.162 421.626C321.06 421.626 317.825 423.287 315.457 426.607C313.089 429.903 311.905 434.578 311.905 440.633C311.905 446.688 313.15 451.229 315.64 454.256C318.155 457.259 321.341 458.76 325.198 458.76C329.153 458.76 332.168 457.466 334.244 454.878C335.391 453.487 336.343 451.399 337.1 448.616H348.27C347.293 454.5 344.791 459.285 340.762 462.972C336.758 466.658 331.619 468.501 325.345 468.501C317.581 468.501 311.478 466.011 307.034 461.031C302.591 456.026 300.369 449.166 300.369 440.45ZM373.978 459.639C377.029 459.639 379.373 458.553 381.009 456.38C382.645 454.207 383.462 451.119 383.462 447.115C383.462 443.111 382.645 440.035 381.009 437.886C379.373 435.713 377.029 434.627 373.978 434.627C370.926 434.627 368.57 435.713 366.91 437.886C365.274 440.035 364.456 443.111 364.456 447.115C364.456 451.119 365.274 454.207 366.91 456.38C368.57 458.553 370.926 459.639 373.978 459.639ZM394.412 447.115C394.412 452.974 392.728 457.991 389.358 462.166C385.989 466.316 380.875 468.392 374.014 468.392C367.154 468.392 362.039 466.316 358.67 462.166C355.301 457.991 353.616 452.974 353.616 447.115C353.616 441.353 355.301 436.36 358.67 432.137C362.039 427.913 367.154 425.801 374.014 425.801C380.875 425.801 385.989 427.913 389.358 432.137C392.728 436.36 394.412 441.353 394.412 447.115ZM412.576 467H402.139V413.021H412.576V467ZM433.45 467H423.013V413.021H433.45V467ZM465.677 447.591C465.018 448.006 464.346 448.348 463.663 448.616C463.003 448.86 462.088 449.092 460.916 449.312L458.572 449.751C456.375 450.142 454.8 450.618 453.848 451.18C452.237 452.132 451.431 453.609 451.431 455.611C451.431 457.393 451.919 458.687 452.896 459.493C453.897 460.274 455.105 460.665 456.521 460.665C458.768 460.665 460.831 460.005 462.71 458.687C464.615 457.369 465.604 454.964 465.677 451.473V447.591ZM459.341 442.72C461.27 442.476 462.649 442.171 463.479 441.805C464.969 441.17 465.713 440.181 465.713 438.838C465.713 437.203 465.14 436.08 463.992 435.469C462.869 434.834 461.209 434.517 459.012 434.517C456.546 434.517 454.8 435.127 453.775 436.348C453.042 437.251 452.554 438.472 452.31 440.01H442.239C442.459 436.519 443.436 433.65 445.169 431.404C447.928 427.889 452.664 426.131 459.378 426.131C463.748 426.131 467.63 426.998 471.023 428.731C474.417 430.464 476.114 433.736 476.114 438.545V456.856C476.114 458.125 476.138 459.664 476.187 461.47C476.26 462.837 476.468 463.765 476.81 464.253C477.151 464.742 477.664 465.145 478.348 465.462V467H466.995C466.678 466.194 466.458 465.438 466.336 464.729C466.214 464.021 466.116 463.216 466.043 462.312C464.603 463.875 462.942 465.206 461.062 466.304C458.816 467.598 456.277 468.245 453.445 468.245C449.832 468.245 446.841 467.22 444.473 465.169C442.129 463.094 440.958 460.164 440.958 456.38C440.958 451.473 442.85 447.92 446.634 445.723C448.709 444.527 451.761 443.672 455.789 443.16L459.341 442.72ZM506.985 426.204C512.234 426.204 516.336 428.096 519.29 431.88C522.269 435.665 523.758 440.547 523.758 446.529C523.758 452.73 522.293 457.869 519.363 461.946C516.434 466.023 512.344 468.062 507.095 468.062C503.799 468.062 501.15 467.403 499.148 466.084C497.952 465.303 496.658 463.936 495.267 461.983V467H485.049V413.094H495.45V432.283C496.768 430.428 498.221 429.012 499.808 428.035C501.688 426.814 504.08 426.204 506.985 426.204ZM504.312 459.456C506.998 459.456 509.085 458.37 510.574 456.197C512.063 454.024 512.808 451.167 512.808 447.627C512.808 444.795 512.442 442.452 511.709 440.596C510.318 437.081 507.754 435.323 504.019 435.323C500.235 435.323 497.635 437.044 496.219 440.486C495.486 442.317 495.12 444.686 495.12 447.591C495.12 451.009 495.877 453.841 497.391 456.087C498.904 458.333 501.211 459.456 504.312 459.456ZM549.173 459.639C552.225 459.639 554.568 458.553 556.204 456.38C557.84 454.207 558.658 451.119 558.658 447.115C558.658 443.111 557.84 440.035 556.204 437.886C554.568 435.713 552.225 434.627 549.173 434.627C546.121 434.627 543.765 435.713 542.105 437.886C540.469 440.035 539.651 443.111 539.651 447.115C539.651 451.119 540.469 454.207 542.105 456.38C543.765 458.553 546.121 459.639 549.173 459.639ZM569.607 447.115C569.607 452.974 567.923 457.991 564.554 462.166C561.185 466.316 556.07 468.392 549.209 468.392C542.349 468.392 537.234 466.316 533.865 462.166C530.496 457.991 528.812 452.974 528.812 447.115C528.812 441.353 530.496 436.36 533.865 432.137C537.234 427.913 542.349 425.801 549.209 425.801C556.07 425.801 561.185 427.913 564.554 432.137C567.923 436.36 569.607 441.353 569.607 447.115ZM598.794 426.131C598.99 426.131 599.148 426.143 599.271 426.167C599.417 426.167 599.722 426.18 600.186 426.204V436.897C599.527 436.824 598.941 436.775 598.428 436.751C597.916 436.727 597.5 436.714 597.183 436.714C592.984 436.714 590.164 438.082 588.724 440.816C587.918 442.354 587.515 444.722 587.515 447.92V467H577.005V427.083H586.966V434.041C588.577 431.38 589.981 429.561 591.177 428.584C593.13 426.949 595.669 426.131 598.794 426.131ZM628.348 447.591C627.688 448.006 627.017 448.348 626.333 448.616C625.674 448.86 624.759 449.092 623.587 449.312L621.243 449.751C619.046 450.142 617.471 450.618 616.519 451.18C614.908 452.132 614.102 453.609 614.102 455.611C614.102 457.393 614.59 458.687 615.567 459.493C616.568 460.274 617.776 460.665 619.192 460.665C621.438 460.665 623.501 460.005 625.381 458.687C627.286 457.369 628.274 454.964 628.348 451.473V447.591ZM622.012 442.72C623.941 442.476 625.32 442.171 626.15 441.805C627.64 441.17 628.384 440.181 628.384 438.838C628.384 437.203 627.811 436.08 626.663 435.469C625.54 434.834 623.88 434.517 621.683 434.517C619.217 434.517 617.471 435.127 616.446 436.348C615.713 437.251 615.225 438.472 614.981 440.01H604.91C605.13 436.519 606.106 433.65 607.84 431.404C610.599 427.889 615.335 426.131 622.049 426.131C626.419 426.131 630.301 426.998 633.694 428.731C637.088 430.464 638.785 433.736 638.785 438.545V456.856C638.785 458.125 638.809 459.664 638.858 461.47C638.931 462.837 639.139 463.765 639.48 464.253C639.822 464.742 640.335 465.145 641.019 465.462V467H629.666C629.349 466.194 629.129 465.438 629.007 464.729C628.885 464.021 628.787 463.216 628.714 462.312C627.273 463.875 625.613 465.206 623.733 466.304C621.487 467.598 618.948 468.245 616.116 468.245C612.503 468.245 609.512 467.22 607.144 465.169C604.8 463.094 603.628 460.164 603.628 456.38C603.628 451.473 605.521 447.92 609.305 445.723C611.38 444.527 614.432 443.672 618.46 443.16L622.012 442.72ZM643.985 434.883V427.449H649.551V416.316H659.878V427.449H666.36V434.883H659.878V455.977C659.878 457.613 660.086 458.638 660.501 459.053C660.916 459.444 662.186 459.639 664.31 459.639C664.627 459.639 664.957 459.639 665.298 459.639C665.665 459.615 666.019 459.59 666.36 459.566V467.366L661.417 467.549C656.485 467.72 653.116 466.866 651.309 464.986C650.137 463.79 649.551 461.946 649.551 459.456V434.883H643.985ZM683.792 422.322H673.208V412.691H683.792V422.322ZM673.208 427.083H683.792V467H673.208V427.083ZM711.844 459.639C714.896 459.639 717.239 458.553 718.875 456.38C720.511 454.207 721.329 451.119 721.329 447.115C721.329 443.111 720.511 440.035 718.875 437.886C717.239 435.713 714.896 434.627 711.844 434.627C708.792 434.627 706.436 435.713 704.776 437.886C703.14 440.035 702.322 443.111 702.322 447.115C702.322 451.119 703.14 454.207 704.776 456.38C706.436 458.553 708.792 459.639 711.844 459.639ZM732.278 447.115C732.278 452.974 730.594 457.991 727.225 462.166C723.855 466.316 718.741 468.392 711.88 468.392C705.02 468.392 699.905 466.316 696.536 462.166C693.167 457.991 691.482 452.974 691.482 447.115C691.482 441.353 693.167 436.36 696.536 432.137C699.905 427.913 705.02 425.801 711.88 425.801C718.741 425.801 723.855 427.913 727.225 432.137C730.594 436.36 732.278 441.353 732.278 447.115ZM761.905 426.131C766.031 426.131 769.4 427.217 772.012 429.39C774.649 431.539 775.967 435.115 775.967 440.12V467H765.274V442.72C765.274 440.621 764.993 439.009 764.432 437.886C763.406 435.835 761.453 434.81 758.572 434.81C755.032 434.81 752.603 436.312 751.285 439.314C750.601 440.901 750.259 442.928 750.259 445.394V467H739.859V427.156H749.93V432.979C751.272 430.928 752.542 429.451 753.738 428.548C755.887 426.937 758.609 426.131 761.905 426.131Z" fill="white" fill-opacity="0.8"/>
<path d="M741.435 592.713C741.435 593.599 742.138 594.276 742.998 594.276C743.883 594.276 744.587 593.599 744.587 592.713V576.563C744.587 575.703 743.883 575 742.998 575C742.112 575 741.435 575.703 741.435 576.563V592.713Z" fill="white"/>
<path d="M748.654 576.849C748.654 577.787 749.435 578.412 750.451 578.412C751.467 578.412 752.248 577.787 752.248 576.849V576.693C752.248 575.755 751.467 575.156 750.451 575.156C749.435 575.156 748.654 575.755 748.654 576.693V576.849ZM748.888 592.713C748.888 593.599 749.591 594.276 750.451 594.276C751.337 594.276 752.04 593.599 752.04 592.713V581.825C752.04 580.939 751.337 580.236 750.451 580.236C749.565 580.236 748.888 580.939 748.888 581.825V592.713Z" fill="white"/>
<path d="M756.159 592.713C756.159 593.573 756.863 594.276 757.722 594.276C758.608 594.276 759.311 593.573 759.311 592.713V592.01C760.275 593.287 761.708 594.433 764 594.433C767.256 594.433 770.382 591.854 770.382 587.295V587.243C770.382 582.658 767.23 580.106 764 580.106C761.76 580.106 760.327 581.252 759.311 582.685V576.563C759.311 575.677 758.608 575 757.722 575C756.837 575 756.159 575.677 756.159 576.563V592.713ZM763.245 591.698C761.109 591.698 759.233 589.926 759.233 587.295V587.243C759.233 584.612 761.109 582.841 763.245 582.841C765.381 582.841 767.178 584.586 767.178 587.243V587.295C767.178 590.004 765.407 591.698 763.245 591.698Z" fill="white"/>
<path d="M773.818 592.713C773.818 593.599 774.521 594.276 775.381 594.276C776.267 594.276 776.97 593.599 776.97 592.713V576.563C776.97 575.703 776.267 575 775.381 575C774.495 575 773.818 575.703 773.818 576.563V592.713Z" fill="white"/>
<path d="M787.628 594.459C791.874 594.459 795 591.203 795 587.295V587.243C795 583.31 791.9 580.106 787.68 580.106C783.46 580.106 780.334 583.362 780.334 587.295V587.347C780.334 591.255 783.434 594.459 787.628 594.459ZM787.68 591.698C785.231 591.698 783.486 589.692 783.486 587.295V587.243C783.486 584.847 785.101 582.867 787.628 582.867C790.102 582.867 791.848 584.873 791.848 587.295V587.347C791.848 589.718 790.233 591.698 787.68 591.698Z" fill="white"/>
<path d="M736.96 590.09C735.74 590.65 734.453 591.046 733.208 591.294C728.074 592.314 725.36 589.099 729.634 586.781C730.099 586.529 730.632 586.291 731.228 586.075L732.011 585.826C732.241 585.763 732.463 585.661 732.534 585.515C732.905 584.722 729.731 584.467 727.622 585.589C728.458 585.431 729.186 585.408 729.668 585.608C724.878 586.845 723.788 590.757 726.335 592.642C727.649 593.615 729.127 593.873 731.832 593.682C733.637 593.555 735.48 592.837 736.96 591.969V590.09Z" fill="white"/>
<path d="M734.542 592.784C734.542 593.606 735.171 594.165 736.03 594.165C736.89 594.165 737.478 593.644 737.478 592.784V586.011C737.478 584.214 737.009 582.755 735.993 581.765C735.029 580.775 733.492 580.228 731.434 580.228C729.637 580.228 728.308 580.541 727.006 581.036C726.537 581.218 726.146 581.713 726.146 582.286C726.146 583.016 726.745 583.589 727.475 583.589C727.631 583.589 727.787 583.563 727.97 583.51C728.829 583.172 729.819 582.963 731.018 582.963C733.232 582.963 734.43 584.005 734.43 585.959V585.968L734.542 592.784Z" fill="white"/>
<path d="M733.611 578.379C733.611 578.591 733.273 578.721 732.805 578.721C732.077 578.721 731.583 578.64 730.984 578.282L729.216 577.24C728.956 577.093 728.774 576.93 728.774 576.751C728.774 576.442 729.814 576.116 730.646 576.116C731.192 576.116 731.609 576.295 731.895 576.588L733.377 578.021C733.481 578.119 733.611 578.265 733.611 578.379Z" fill="white"/>
</g>
<defs>
<linearGradient id="paint0_linear_5189_12509" x1="800" y1="-1.86968e-05" x2="1.22566" y2="601.627" gradientUnits="userSpaceOnUse">
<stop stop-color="#0087B1"/>
<stop offset="1" stop-color="#001B23"/>
</linearGradient>
<clipPath id="clip0_5189_12509">
<rect width="800" height="600" fill="white"/>
</clipPath>
</defs>
</svg>
