<?xml version="1.0" encoding="UTF-8"?>
<svg width="800px" height="600px" viewBox="0 0 800 600" version="1.1" xmlns="http://www.w3.org/2000/svg" xmlns:xlink="http://www.w3.org/1999/xlink">
    <title>2041-10-14-21-10_GitClone</title>
    <defs>
        <path d="M8.68744595,14.5405413 C10.6544909,13.5649687 12,11.5915112 12,9.31636202 C12,6.07252388 9.26504479,3.44227578 5.89152197,3.44227578 C4.52034181,3.44227578 3.25480793,3.87689217 2.23537065,4.61058921 L2.23537065,1.05770107 C2.23537065,0.476155373 1.74046224,0 1.11695169,0 C0.493934821,0 0.0167986821,0.476630104 0.0167986821,1.05770107 L0.0167986821,1.80184219 L0,9.32158406 C-0.0041824725,11.2003327 0.951817666,12.865215 2.41753644,13.8939574 C2.4777647,13.9362085 2.55848043,13.9312238 2.6127846,13.8823265 C2.66758244,13.8334292 2.6779496,13.7558106 2.63746831,13.6950451 C0.724974359,10.8146136 1.16014819,5.53963813 5.89176881,5.53963813 C8.05899866,5.53963813 9.80709909,7.22944376 9.81623206,9.31351363 C9.82240299,10.8599505 9.11620201,12.0365717 8.19549958,12.7781018 C6.36026565,14.2561773 3.64974731,12.6382934 4.49738595,10.4697214 C4.5894562,10.2335427 4.71879884,9.9959397 4.88664808,9.76189723 L5.12361171,9.47705853 C5.19766284,9.39967734 5.25048599,9.29903433 5.2146946,9.19411874 C5.01401603,8.62800181 3.46832203,8.97526767 3.04005964,10.0315445 C3.34292878,9.79631524 3.65986763,9.66433998 3.96940137,9.71489885 C2.38890334,11.275815 3.44141679,13.9563846 5.46005069,14.7513219 C6.40494316,15.1232738 7.55964718,15.0976383 8.68744595,14.5405413" id="path-1"></path>
        <linearGradient x1="28.568518%" y1="104.445731%" x2="78.3472072%" y2="20.6880271%" id="linearGradient-3">
            <stop stop-color="#000F98" offset="0%"></stop>
            <stop stop-color="#00A5FD" offset="100%"></stop>
        </linearGradient>
        <rect id="path-4" x="20" y="62" width="766" height="140"></rect>
        <filter x="-0.5%" y="-2.9%" width="102.1%" height="111.4%" filterUnits="objectBoundingBox" id="filter-5">
            <feOffset dx="4" dy="4" in="SourceAlpha" result="shadowOffsetOuter1"></feOffset>
            <feGaussianBlur stdDeviation="2" in="shadowOffsetOuter1" result="shadowBlurOuter1"></feGaussianBlur>
            <feComposite in="shadowBlurOuter1" in2="SourceAlpha" operator="out" result="shadowBlurOuter1"></feComposite>
            <feColorMatrix values="0 0 0 0 0   0 0 0 0 0   0 0 0 0 0  0 0 0 0.5 0" type="matrix" in="shadowBlurOuter1"></feColorMatrix>
        </filter>
        <linearGradient x1="79.0703125%" y1="0%" x2="20.9296875%" y2="100%" id="linearGradient-6">
            <stop stop-color="#00C6FF" offset="0.0491695804%"></stop>
            <stop stop-color="#079DC2" offset="100%"></stop>
        </linearGradient>
        <linearGradient x1="78.3002722%" y1="0%" x2="21.6997278%" y2="100%" id="linearGradient-7">
            <stop stop-color="#00A5FF" offset="0.0491695804%"></stop>
            <stop stop-color="#0755C2" offset="100%"></stop>
        </linearGradient>
        <path d="M176.000559,278 L176.000093,303 C175.999949,305.761424 178.238483,308.000042 180.999907,308.000093 C180.999938,308.000093 180.999969,308.000093 181,308 L209,308 C211.761424,308 214,305.761424 214,303 L214,285.575476 C214,282.814052 211.761424,280.575476 209,280.575476 L197.40989,280.575476 C195.771146,280.575476 194.23642,279.772447 193.302121,278.426131 L191.028141,275.149345 C190.093842,273.803029 188.559115,273 186.920372,273 L181.000652,273 C178.239265,273.000093 176.000704,275.238613 176.000559,278 Z" id="path-8"></path>
        <filter x="-14.5%" y="-15.7%" width="139.5%" height="142.9%" filterUnits="objectBoundingBox" id="filter-9">
            <feMorphology radius="0.5" operator="dilate" in="SourceAlpha" result="shadowSpreadOuter1"></feMorphology>
            <feOffset dx="2" dy="2" in="shadowSpreadOuter1" result="shadowOffsetOuter1"></feOffset>
            <feGaussianBlur stdDeviation="2" in="shadowOffsetOuter1" result="shadowBlurOuter1"></feGaussianBlur>
            <feComposite in="shadowBlurOuter1" in2="SourceAlpha" operator="out" result="shadowBlurOuter1"></feComposite>
            <feColorMatrix values="0 0 0 0 0   0 0 0 0 0   0 0 0 0 0  0 0 0 0.5 0" type="matrix" in="shadowBlurOuter1"></feColorMatrix>
        </filter>
        <path d="M516.554789,369.478712 L516.554412,389.478712 C516.554266,392.240135 518.7928,394.478754 521.554223,394.478806 C521.554255,394.478806 521.554286,394.478806 521.554318,394.478712 L544.526414,394.478712 C547.287838,394.478712 549.526414,392.240135 549.526414,389.478712 L549.526414,375.971977 C549.526414,373.210553 547.287838,370.971977 544.526414,370.971977 L535.459305,370.971977 C533.8307,370.971977 532.304144,370.178794 531.367963,368.846158 L529.793212,366.60453 C528.85703,365.271894 527.330474,364.478712 525.70187,364.478712 L521.554883,364.478712 C518.793497,364.478806 516.554936,366.717325 516.554789,369.478712 Z" id="path-10"></path>
        <filter x="-15.2%" y="-16.7%" width="142.5%" height="146.7%" filterUnits="objectBoundingBox" id="filter-11">
            <feOffset dx="2" dy="2" in="SourceAlpha" result="shadowOffsetOuter1"></feOffset>
            <feGaussianBlur stdDeviation="2" in="shadowOffsetOuter1" result="shadowBlurOuter1"></feGaussianBlur>
            <feColorMatrix values="0 0 0 0 0   0 0 0 0 0   0 0 0 0 0  0 0 0 0.5 0" type="matrix" in="shadowBlurOuter1"></feColorMatrix>
        </filter>
        <path d="M52.5547891,424.478712 L52.5544119,444.478712 C52.5542655,447.240135 54.7927996,449.478754 57.5542233,449.478806 C57.5542548,449.478806 57.5542862,449.478806 57.5543176,449.478712 L80.526414,449.478712 C83.2878378,449.478712 85.526414,447.240135 85.526414,444.478712 L85.526414,430.971977 C85.526414,428.210553 83.2878378,425.971977 80.526414,425.971977 L71.4593051,425.971977 C69.8307003,425.971977 68.3041442,425.178794 67.367963,423.846158 L65.7932117,421.60453 C64.8570305,420.271894 63.3304744,419.478712 61.7018696,419.478712 L57.5548834,419.478712 C54.7934965,419.478806 52.5549355,421.717325 52.5547891,424.478712 Z" id="path-12"></path>
        <filter x="-15.2%" y="-16.7%" width="142.5%" height="146.7%" filterUnits="objectBoundingBox" id="filter-13">
            <feOffset dx="2" dy="2" in="SourceAlpha" result="shadowOffsetOuter1"></feOffset>
            <feGaussianBlur stdDeviation="2" in="shadowOffsetOuter1" result="shadowBlurOuter1"></feGaussianBlur>
            <feColorMatrix values="0 0 0 0 0   0 0 0 0 0   0 0 0 0 0  0 0 0 0.5 0" type="matrix" in="shadowBlurOuter1"></feColorMatrix>
        </filter>
        <path d="M476.000471,268 L476.000094,287.969697 C475.999948,290.731121 478.238482,292.969739 480.999906,292.969791 C480.999937,292.969791 480.999969,292.969791 481,292.969697 L503.938791,292.969697 C506.700215,292.969697 508.938791,290.731121 508.938791,287.969697 L508.938791,274.486706 C508.938791,271.725282 506.700215,269.486706 503.938791,269.486706 L494.888516,269.486706 C493.259911,269.486706 491.733355,268.693524 490.797174,267.360888 L489.22703,265.125818 C488.290849,263.793182 486.764293,263 485.135688,263 L481.000565,263 C478.239178,263.000094 476.000617,265.238613 476.000471,268 Z" id="path-14"></path>
        <filter x="-15.2%" y="-16.7%" width="142.5%" height="146.7%" filterUnits="objectBoundingBox" id="filter-15">
            <feOffset dx="2" dy="2" in="SourceAlpha" result="shadowOffsetOuter1"></feOffset>
            <feGaussianBlur stdDeviation="2" in="shadowOffsetOuter1" result="shadowBlurOuter1"></feGaussianBlur>
            <feColorMatrix values="0 0 0 0 0   0 0 0 0 0   0 0 0 0 0  0 0 0 0.5 0" type="matrix" in="shadowBlurOuter1"></feColorMatrix>
        </filter>
        <path d="M20.0004709,389 L20.0000943,408.969697 C19.9999479,411.731121 22.2384819,413.969739 24.9999057,413.969791 C24.9999371,413.969791 24.9999686,413.969791 25,413.969697 L47.9387912,413.969697 C50.700215,413.969697 52.9387912,411.731121 52.9387912,408.969697 L52.9387912,395.486706 C52.9387912,392.725282 50.700215,390.486706 47.9387912,390.486706 L38.8885158,390.486706 C37.2599109,390.486706 35.7333549,389.693524 34.7971736,388.360888 L33.2270299,386.125818 C32.2908487,384.793182 30.7642927,384 29.1356878,384 L25.0005652,384 C22.2391783,384.000094 20.0006173,386.238613 20.0004709,389 Z" id="path-16"></path>
        <filter x="-15.2%" y="-16.7%" width="142.5%" height="146.7%" filterUnits="objectBoundingBox" id="filter-17">
            <feOffset dx="2" dy="2" in="SourceAlpha" result="shadowOffsetOuter1"></feOffset>
            <feGaussianBlur stdDeviation="2" in="shadowOffsetOuter1" result="shadowBlurOuter1"></feGaussianBlur>
            <feColorMatrix values="0 0 0 0 0   0 0 0 0 0   0 0 0 0 0  0 0 0 0.5 0" type="matrix" in="shadowBlurOuter1"></feColorMatrix>
        </filter>
        <linearGradient x1="1.18752487e-05%" y1="49.9999884%" x2="100.000032%" y2="49.9999884%" id="linearGradient-18">
            <stop stop-color="#FCD635" offset="0%"></stop>
            <stop stop-color="#F7A928" offset="100%"></stop>
        </linearGradient>
        <path d="M576.000471,426 L576.000094,445.969697 C575.999948,448.731121 578.238482,450.969739 580.999906,450.969791 C580.999937,450.969791 580.999969,450.969791 581,450.969697 L603.938791,450.969697 C606.700215,450.969697 608.938791,448.731121 608.938791,445.969697 L608.938791,432.486706 C608.938791,429.725282 606.700215,427.486706 603.938791,427.486706 L594.888516,427.486706 C593.259911,427.486706 591.733355,426.693524 590.797174,425.360888 L589.22703,423.125818 C588.290849,421.793182 586.764293,421 585.135688,421 L581.000565,421 C578.239178,421.000094 576.000617,423.238613 576.000471,426 Z" id="path-19"></path>
        <filter x="-15.2%" y="-16.7%" width="142.5%" height="146.7%" filterUnits="objectBoundingBox" id="filter-20">
            <feOffset dx="2" dy="2" in="SourceAlpha" result="shadowOffsetOuter1"></feOffset>
            <feGaussianBlur stdDeviation="2" in="shadowOffsetOuter1" result="shadowBlurOuter1"></feGaussianBlur>
            <feColorMatrix values="0 0 0 0 0   0 0 0 0 0   0 0 0 0 0  0 0 0 0.5 0" type="matrix" in="shadowBlurOuter1"></feColorMatrix>
        </filter>
        <path d="M576.000471,515 L576.000094,534.969697 C575.999948,537.731121 578.238482,539.969739 580.999906,539.969791 C580.999937,539.969791 580.999969,539.969791 581,539.969697 L603.938791,539.969697 C606.700215,539.969697 608.938791,537.731121 608.938791,534.969697 L608.938791,521.486706 C608.938791,518.725282 606.700215,516.486706 603.938791,516.486706 L594.888516,516.486706 C593.259911,516.486706 591.733355,515.693524 590.797174,514.360888 L589.22703,512.125818 C588.290849,510.793182 586.764293,510 585.135688,510 L581.000565,510 C578.239178,510.000094 576.000617,512.238613 576.000471,515 Z" id="path-21"></path>
        <filter x="-15.2%" y="-16.7%" width="142.5%" height="146.7%" filterUnits="objectBoundingBox" id="filter-22">
            <feOffset dx="2" dy="2" in="SourceAlpha" result="shadowOffsetOuter1"></feOffset>
            <feGaussianBlur stdDeviation="2" in="shadowOffsetOuter1" result="shadowBlurOuter1"></feGaussianBlur>
            <feColorMatrix values="0 0 0 0 0   0 0 0 0 0   0 0 0 0 0  0 0 0 0.5 0" type="matrix" in="shadowBlurOuter1"></feColorMatrix>
        </filter>
    </defs>
    <g id="2041-10-14-21-10_GitClone" stroke="none" stroke-width="1" fill="none" fill-rule="evenodd">
        <rect fill="#FFFFFF" x="0" y="0" width="800" height="600"></rect>
        <rect id="Rectangle-Copy-4" stroke="#006AE1" x="33.5" y="399.5" width="357" height="166"></rect>
        <rect id="Rectangle-Copy-5" stroke="#006AE1" x="46.5" y="437.5" width="329" height="117"></rect>
        <g id="bloovee-winner-logo" transform="translate(725.000000, 580.000000)">
            <path d="M13,13.7751507 C13,14.396312 13.4732558,14.8717809 14.0514961,14.8717809 C14.6474304,14.8717809 15.1204503,14.3968042 15.1204503,13.7751507 L15.1204503,2.09687626 C15.1204503,1.49368045 14.6474304,1 14.0514961,1 C13.4557977,1 13,1.49392656 13,2.09687626 L13,13.7751507 Z M21.7920364,15 C24.6483217,15 26.751078,12.7149437 26.751078,9.97312215 L26.751078,9.93645297 C26.751078,7.17641992 24.6657798,4.92778666 21.8269526,4.92778666 C18.9881254,4.92778666 16.885369,7.212843 16.885369,9.97312215 L16.885369,10.0095452 C16.885369,12.7516128 18.9706673,15 21.7920364,15 Z M21.8269526,13.0621935 C20.179994,13.0621935 19.0055834,11.6547366 19.0055834,9.97312215 L19.0055834,9.93645297 C19.0055834,8.25459244 20.0919958,6.86534709 21.7920364,6.86534709 C23.456689,6.86534709 24.6306277,8.27305008 24.6306277,9.97312215 L24.6306277,10.0095452 C24.6306277,11.6731942 23.5444513,13.0621935 21.8269526,13.0621935 Z M32.8092717,15 C35.665557,15 37.7683133,12.7149437 37.7683133,9.97312215 L37.7683133,9.93645297 C37.7683133,7.17641992 35.6830151,4.92778666 32.8441878,4.92778666 C30.0053606,4.92778666 27.9026043,7.212843 27.9026043,9.97312215 L27.9026043,10.0095452 C27.9026043,12.7516128 29.9879025,15 32.8092717,15 Z M32.8441878,13.0621935 C31.1969933,13.0621935 30.0228187,11.6547366 30.0228187,9.97312215 L30.0228187,9.93645297 C30.0228187,8.25459244 31.109231,6.86534709 32.8092717,6.86534709 C34.4739243,6.86534709 35.647863,8.27305008 35.647863,9.97312215 L35.647863,10.0095452 C35.647863,11.6731942 34.5614506,13.0621935 32.8441878,13.0621935 Z M44.1416963,13.9944275 L47.2261164,6.6096472 C47.2784906,6.49988574 47.3487948,6.28060893 47.3487948,6.07954366 C47.3487948,5.47610175 46.8929971,5.01933658 46.3147568,5.01933658 C45.7539746,5.01933658 45.4737015,5.40300947 45.3158709,5.78692847 L42.8976893,12.2215093 L40.5144239,5.82335156 C40.3393711,5.36634029 40.041404,5.01933658 39.4629278,5.01933658 C38.8846875,5.01933658 38.4116676,5.53098247 38.4116676,6.07954366 C38.4116676,6.28060893 38.4817358,6.46346265 38.534346,6.62785874 L41.6182943,13.9944275 C41.8638872,14.5796579 42.2491448,14.9633308 42.8273851,14.9633308 L42.9326055,14.9633308 C43.5108458,14.9633308 43.8965752,14.5612003 44.1416963,13.9944275 Z M50.0949054,9.27837643 C50.2876522,7.77961573 51.1987758,6.73762019 52.4956289,6.73762019 C53.8974665,6.73762019 54.7036056,7.8524619 54.8437422,9.27837643 L50.0949054,9.27837643 Z M56.070527,13.72027 C56.2281217,13.5558739 56.3508002,13.3181395 56.3508002,13.0439819 C56.3508002,12.5320899 55.9830006,12.1481709 55.5095089,12.1481709 C55.2641519,12.1481709 55.1242513,12.2215093 54.9664207,12.3492362 C54.3704864,12.8611282 53.6695676,13.1901665 52.7759021,13.1901665 C51.4089807,13.1901665 50.3402624,12.3128131 50.1123635,10.7409601 L55.9126964,10.7409601 C56.4560206,10.7409601 56.9115824,10.3021604 56.9115824,9.68050697 C56.9115824,7.45057746 55.4568987,4.92778666 52.513087,4.92778666 C49.8672425,4.92778666 47.9919132,7.19438536 47.9919132,9.95466451 L47.9919132,9.9913337 C47.9919132,12.9708897 50.0597533,15 52.7409859,15 C54.1779755,15 55.2292357,14.5063195 56.070527,13.72027 Z M60.1833231,9.27837643 C60.3763058,7.77961573 61.2871935,6.73762019 62.5842825,6.73762019 C63.9858841,6.73762019 64.7920233,7.8524619 64.9321598,9.27837643 L60.1833231,9.27837643 Z M66.1589447,13.72027 C66.3167752,13.5558739 66.4394537,13.3181395 66.4394537,13.0439819 C66.4394537,12.5320899 66.0714183,12.1481709 65.5981624,12.1481709 C65.3528055,12.1481709 65.2126689,12.2215093 65.0548383,12.3492362 C64.4591399,12.8611282 63.7582212,13.1901665 62.8643197,13.1901665 C61.4976342,13.1901665 60.4289159,12.3128131 60.2007812,10.7409601 L66.0011141,10.7409601 C66.5444382,10.7409601 67,10.3021604 67,9.68050697 C67,7.45057746 65.5455522,4.92778666 62.6015046,4.92778666 C59.9556601,4.92778666 58.0805667,7.19438536 58.0805667,9.95466451 L58.0805667,9.9913337 C58.0805667,12.9708897 60.1484069,15 62.8294035,15 C64.2663932,15 65.3178893,14.5063195 66.1589447,13.72027 L66.1589447,13.72027 Z" id="Fill-1" fill="#030060"></path>
            <g id="Group-4">
                <mask id="mask-2" fill="white">
                    <use xlink:href="#path-1"></use>
                </mask>
                <g id="Clip-3"></g>
                <path d="M8.68744595,14.5405413 C10.6544909,13.5649687 12,11.5915112 12,9.31636202 C12,6.07252388 9.26504479,3.44227578 5.89152197,3.44227578 C4.52034181,3.44227578 3.25480793,3.87689217 2.23537065,4.61058921 L2.23537065,1.05770107 C2.23537065,0.476155373 1.74046224,0 1.11695169,0 C0.493934821,0 0.0167986821,0.476630104 0.0167986821,1.05770107 L0.0167986821,1.80184219 L0,9.32158406 C-0.0041824725,11.2003327 0.951817666,12.865215 2.41753644,13.8939574 C2.4777647,13.9362085 2.55848043,13.9312238 2.6127846,13.8823265 C2.66758244,13.8334292 2.6779496,13.7558106 2.63746831,13.6950451 C0.724974359,10.8146136 1.16014819,5.53963813 5.89176881,5.53963813 C8.05899866,5.53963813 9.80709909,7.22944376 9.81623206,9.31351363 C9.82240299,10.8599505 9.11620201,12.0365717 8.19549958,12.7781018 C6.36026565,14.2561773 3.64974731,12.6382934 4.49738595,10.4697214 C4.5894562,10.2335427 4.71879884,9.9959397 4.88664808,9.76189723 L5.12361171,9.47705853 C5.19766284,9.39967734 5.25048599,9.29903433 5.2146946,9.19411874 C5.01401603,8.62800181 3.46832203,8.97526767 3.04005964,10.0315445 C3.34292878,9.79631524 3.65986763,9.66433998 3.96940137,9.71489885 C2.38890334,11.275815 3.44141679,13.9563846 5.46005069,14.7513219 C6.40494316,15.1232738 7.55964718,15.0976383 8.68744595,14.5405413" id="Fill-2" fill="url(#linearGradient-3)" mask="url(#mask-2)"></path>
            </g>
        </g>
        <g id="Rectangle-Copy-4">
            <use fill="black" fill-opacity="1" filter="url(#filter-5)" xlink:href="#path-4"></use>
            <rect stroke="#006AE1" stroke-width="4" stroke-linejoin="square" fill="#FFFFFF" fill-rule="evenodd" x="22" y="64" width="762" height="136"></rect>
        </g>
        <text id="Git-Clone" fill-rule="nonzero" font-family="Helvetica" font-size="18" font-weight="normal" fill="#0055C2">
            <tspan x="10" y="23">Git Clone</tspan>
        </text>
        <g id="git" transform="translate(661.000000, 9.000000)">
            <path d="M46.8658496,11.2380575 C45.1623498,11.2380575 43.8939053,12.0891281 43.8939053,14.1376499 C43.8939053,15.6808485 44.7297841,16.7522856 46.7743573,16.7522856 C48.5071097,16.7522856 49.6846843,15.7131436 49.6846843,14.073693 C49.6846843,12.2157755 48.6309666,11.2380575 46.8658496,11.2380575 L46.8658496,11.2380575 Z M43.4607172,25.7011913 C43.0574041,26.2046147 42.6553359,26.7397 42.6553359,27.3710373 C42.6553359,28.6305458 44.2337339,29.0092215 46.4027864,29.0092215 C48.1984009,29.0092215 50.6450424,28.8813076 50.6450424,27.1823327 C50.6450424,26.1723196 49.4674678,26.1102624 47.9805621,26.0152768 L43.4607172,25.7011913 Z M52.6255087,11.3330431 C53.1825537,12.0580995 53.7719634,13.0662128 53.7719634,14.5156924 C53.7719634,18.0124273 51.0776081,20.0603158 47.1764255,20.0603158 C46.1843252,20.0603158 45.2862067,19.9349349 44.7291617,19.7772589 L43.7071863,21.4471049 L46.7413702,21.6351763 C52.0989611,21.9828234 55.257002,22.1404995 55.257002,26.3293624 C55.257002,29.9533779 52.1300809,32 46.7413702,32 C41.1360655,32 39,30.5505204 39,28.0625322 C39,26.6440812 39.6199071,25.8898959 40.7034998,24.848221 C39.680902,24.4087545 39.3410734,23.6216409 39.3410734,22.7705703 C39.3410734,22.0771758 39.6815244,21.4471049 40.2391918,20.8480627 C40.7968593,20.2502869 41.416144,19.6506115 42.1586633,18.9578502 C40.6412601,18.2017651 39.4960502,16.563581 39.4960502,14.231369 C39.4960502,10.6086199 41.8493321,8.12063165 46.5870158,8.12063165 C47.9189448,8.12063165 48.7249485,8.24537935 49.436348,8.43598369 L55.4754632,8.43598369 L55.4754632,11.1133099 L52.6255087,11.3330431 L52.6255087,11.3330431 Z M60.9233016,5.60858036 C59.1575621,5.60858036 58.1355867,4.56817192 58.1355867,2.77167847 C58.1355867,0.977717972 59.1575621,0 60.9233016,0 C62.7195385,0 63.7408917,0.977084735 63.7408917,2.77167847 C63.7415139,4.56817192 62.7195385,5.60858036 60.9233016,5.60858036 Z M56.9275147,24.5423675 L56.9275147,22.0543792 L58.50778,21.8340127 C58.9409681,21.770689 59.0025853,21.6763367 59.0025853,21.2026754 L59.0025853,11.9403174 C59.0025853,11.59457 58.9104706,11.372937 58.5998947,11.279218 L56.9275147,10.6801757 L57.2679657,8.12949697 L63.6792742,8.12949697 L63.6792742,21.2033087 C63.6792742,21.7086318 63.7091492,21.770689 64.174702,21.834646 L65.7543448,22.0550125 L65.7543448,24.5430008 L56.9275147,24.5430008 L56.9275147,24.5423675 Z M78,23.32022 C76.6674487,23.9806863 74.7174798,24.5803617 72.9511179,24.5803617 C69.2665294,24.5803617 67.8736056,23.0694582 67.8736056,19.5074999 L67.8736056,11.2532552 C67.8736056,11.0651838 67.8736056,10.9385364 67.6252693,10.9385364 L65.458084,10.9385364 L65.458084,8.13456287 C68.1841815,7.81857759 69.2671518,6.43242174 69.6076028,2.99837733 L72.5502944,2.99837733 L72.5502944,7.47346341 C72.5502944,7.69319666 72.5502944,7.78881545 72.7980083,7.78881545 L77.1641212,7.78881545 L77.1641212,10.9391697 L72.5502944,10.9391697 L72.5502944,18.4683579 C72.5502944,20.3269086 72.9841049,21.0513318 74.6558625,21.0513318 C75.5241059,21.0513318 76.4209796,20.8315985 77.1641212,20.5479083 L78,23.32022 L78,23.32022 Z" id="Shape" fill="#31251C" fill-rule="nonzero"></path>
            <path d="M32.3772539,15.0299695 L17.9690664,0.622277028 C17.140005,-0.207425676 15.7941261,-0.207425676 14.9644314,0.622277028 L11.9724635,3.61427365 L15.7668919,7.40937182 C16.6497884,7.11169223 17.6606226,7.31120089 18.3636464,8.01486479 C19.0704703,8.72232885 19.2687104,9.74203981 18.9634334,10.6274783 L22.6210571,14.2851371 C23.5052204,13.9804906 24.5268216,14.1774658 25.2336455,14.8849299 C26.221679,15.8723394 26.221679,17.4728423 25.2336455,18.4608852 C24.2449787,19.4489281 22.6451246,19.4489281 21.6570912,18.4608852 C20.914166,17.7173195 20.7304932,16.6260388 21.1067059,15.7108324 L17.6954571,12.2995509 L17.6948238,21.2768075 C17.9361319,21.3958793 18.1628729,21.5542195 18.3636464,21.7543616 C19.3516798,22.7417711 19.3516798,24.3416406 18.3636464,25.3309502 C17.375613,26.3183598 15.7744921,26.3183598 14.7877254,25.3309502 C13.799692,24.3416406 13.799692,22.7417711 14.7877254,21.7543616 C15.0322003,21.5105176 15.3140432,21.3262096 15.6155201,21.2027043 L15.6155201,12.1424774 C15.3140432,12.0196054 15.0322003,11.8359308 14.7877254,11.5908201 C14.0391001,10.842821 13.8592273,9.74520661 14.2430403,8.82620003 L10.5024471,5.08430417 L0.622746073,14.9634666 C-0.207582024,15.7938027 -0.207582024,17.1396945 0.622746073,17.9700305 L15.0309336,32.377723 C15.8606284,33.2074257 17.2058739,33.2074257 18.0368353,32.377723 L32.3772539,18.0359 C33.207582,17.2061973 33.207582,15.8596722 32.3772539,15.0299695 L32.3772539,15.0299695 Z" id="Path" fill="#F34F29" fill-rule="nonzero"></path>
            <polygon id="Path" points="1.12409637e-15 0 79 0 79 33 0 33"></polygon>
        </g>
        <g id="github-copy" transform="translate(748.000000, 3.000000)" fill="#000000" fill-rule="nonzero">
            <path d="M22.9998956,0 C11.7204239,0.000469179946 2.10590223,8.20619911 0.299077857,19.3745239 C-1.50774651,30.5428487 5.02642435,41.3773525 15.7268887,44.9558377 C16.8767785,45.1577383 17.3079872,44.4656891 17.3079872,43.8600567 C17.3079872,43.3121892 17.279217,41.4954764 17.279217,39.5634644 C11.5009978,40.6303861 10.0061411,38.1505528 9.54618516,36.8529173 C9.03580825,35.5908656 8.22674528,34.472458 7.1889111,33.5943411 C6.38398825,33.161796 5.23409847,32.0948512 7.16014086,32.066061 C8.65271236,32.2285228 9.97246422,33.1110528 10.6960749,34.4305721 C11.3313462,35.5753322 12.3946869,36.4194146 13.6513665,36.7764896 C14.9080461,37.1335647 16.2547288,36.9742705 17.3941369,36.3337708 C17.4936968,35.160991 18.0147545,34.0644705 18.8602924,33.2483742 C13.7432829,32.6716473 8.39629538,30.6818473 8.39629538,21.8580182 C8.36397821,19.5652878 9.20739391,17.3470389 10.7535694,15.6582042 C10.0504849,13.6655423 10.1327507,11.4787423 10.9835474,9.54489918 C10.9835474,9.54489918 12.9095438,8.93931288 17.3079412,11.9094794 C21.0710431,10.8713094 25.0437372,10.8713094 28.806839,11.9094794 C33.2051215,8.9104996 35.1312329,9.54489918 35.1312329,9.54489918 C35.982145,11.4787155 36.0644125,13.6655602 35.3612108,15.6582042 C36.9120423,17.3441484 37.7561944,19.564334 37.7184849,21.8580182 C37.7184849,30.7107067 32.3427041,32.6716473 27.2257406,33.2483742 C28.336287,34.3774629 28.9028084,35.9349635 28.7780918,37.5161532 C28.7780918,40.6016882 28.7493216,43.0815215 28.7493216,43.8601489 C28.7493216,44.4657352 29.1805302,45.1866208 30.33042,44.95593 C41.0111617,41.3485442 47.5153422,30.5121007 45.6961446,19.3555019 C43.876947,8.19890308 34.2698179,0.00588375885 22.9998956,0 Z" id="Path"></path>
        </g>
        <text id="$-git-clone-[remote" font-family="Helvetica-Bold, Helvetica" font-size="36" font-weight="bold" fill="#0055C2">
            <tspan x="96.4570312" y="149">$ git clone [remote repository URL]</tspan>
        </text>
        <text id="$-git-clone" font-family="Helvetica-Bold, Helvetica" font-size="21" font-weight="bold" fill="#0055C2">
            <tspan x="200" y="368">$ git clone</tspan>
        </text>
        <g id="Group-Copy-3" transform="translate(166.000000, 248.000000)" fill-rule="nonzero">
            <path d="M60.6752039,9.55663117 C58.3936657,3.26815102 44.3762704,0 30.5151448,0 C16.6540191,0 2.79289353,3.23717328 0.386339588,9.46369797 C0.141413278,9.83133457 0.0109856476,10.2622511 0.0112922204,10.7028074 L0.0112922204,67.9031946 C-0.00376407347,68.0266562 -0.00376407347,68.1514658 0.0112922204,68.2749274 C0.00372671995,68.3832198 0.00372671995,68.4919012 0.0112922204,68.6001936 C0.0112922204,76.0813166 15.3569803,80 30.5151448,80 C45.6733092,80 60.9877434,76.0813166 60.9877434,68.6001936 C60.9953026,68.4970704 60.9953026,68.3935395 60.9877434,68.2904163 C61.0040855,68.1618505 61.0040855,68.0317603 60.9877434,67.9031946 L60.9877434,10.7028074 C60.9957218,10.2990554 60.8872972,9.90142993 60.6752039,9.55663117 Z" id="Path" fill="url(#linearGradient-6)"></path>
            <path d="M30.4971465,0 C50.2497133,0 60.9852057,5.64890487 60.9852057,8.55181432 C61.0049314,8.64214998 61.0049314,8.7360782 60.9852057,8.82641386 C60.3384893,11.8077803 49.5845193,17.1428571 30.4971465,17.1428571 C11.4097737,17.1428571 0.655803777,11.7489376 0.00908737032,8.82641386 C-0.00302912344,8.75506998 -0.00302912344,8.68200096 0.00908737032,8.61065708 C0.00908737032,5.64890487 10.7445797,0 30.4971465,0 Z" id="Path" fill="#A1E0E9"></path>
        </g>
        <g id="Group-Copy" transform="translate(262.000000, 413.000000)" fill-rule="nonzero">
            <path d="M59.8662012,9.55663117 C57.6150835,3.26815102 43.7845868,0 30.1082762,0 C16.4319656,0 2.75565495,3.23717328 0.381188393,9.46369797 C0.139527768,9.83133457 0.0108391723,10.2622511 0.0111416575,10.7028074 L0.0111416575,67.9031946 C-0.00371388583,68.0266562 -0.00371388583,68.1514658 0.0111416575,68.2749274 C0.00367703035,68.3832198 0.00367703035,68.4919012 0.0111416575,68.6001936 C0.0111416575,76.0813166 15.1522206,80 30.1082762,80 C45.0643317,80 60.1745734,76.0813166 60.1745734,68.6001936 C60.1820319,68.4970704 60.1820319,68.3935395 60.1745734,68.2904163 C60.1906977,68.1618505 60.1906977,68.0317603 60.1745734,67.9031946 L60.1745734,10.7028074 C60.1824455,10.2990554 60.0754666,9.90142993 59.8662012,9.55663117 Z" id="Path" fill="url(#linearGradient-7)"></path>
            <path d="M30.4971465,0.816326531 C50.2497133,0.816326531 60.9852057,6.4652314 60.9852057,9.36814085 C61.0049314,9.45847651 61.0049314,9.55240473 60.9852057,9.64274039 C60.3384893,12.6241069 49.5845193,17.9591837 30.4971465,17.9591837 C11.4097737,17.9591837 0.655803777,12.5652641 0.00908737032,9.64274039 C-0.00302912344,9.57139651 -0.00302912344,9.49832749 0.00908737032,9.42698361 C0.00908737032,6.4652314 10.7445797,0.816326531 30.4971465,0.816326531 Z" id="Path" fill="#7BB2FF"></path>
        </g>
        <g id="Path-Copy-6">
            <use fill="black" fill-opacity="1" filter="url(#filter-9)" xlink:href="#path-8"></use>
            <use stroke="#FFFFFF" stroke-width="1" fill="#199ABD" fill-rule="evenodd" xlink:href="#path-8"></use>
        </g>
        <path id="Line-2-Copy-3" d="M196,329.906863 L196,384 L200,384 L195.5,393 L191,384 L195,384 L195,329.906863 L196,329.906863 Z" fill="#0055C2" fill-rule="nonzero"></path>
        <text id="Remote-Repository" font-family="Helvetica" font-size="21" font-weight="normal" fill="#199ABD">
            <tspan x="61.2346191" y="278">Remote </tspan>
            <tspan x="47.8122559" y="303">Repository</tspan>
        </text>
        <text id="Local-Repository-（Co" font-family="Helvetica-Bold, Helvetica" font-size="18" font-weight="bold" fill="#0055C2">
            <tspan x="219.484863" y="515">Local Repository</tspan>
            <tspan x="365.515137" y="515" font-family="Helvetica" font-weight="normal"></tspan>
            <tspan x="227.167969" y="537" font-family="HiraginoSans-W3, Hiragino Sans" font-size="16" font-weight="300">（</tspan>
            <tspan x="243.167969" y="537" font-family="Helvetica" font-size="16" font-weight="normal">Commit History)</tspan>
        </text>
        <text id="Working-Tree-(Workin" font-family="Helvetica-Bold, Helvetica" font-size="18" font-weight="bold" fill="#0055C2">
            <tspan x="67.1435547" y="508">Working Tree</tspan>
            <tspan x="180.856445" y="508" font-family="Helvetica" font-weight="normal"></tspan>
            <tspan x="92.1367188" y="530" font-family="Helvetica" font-size="16" font-weight="normal">(Working </tspan>
            <tspan x="56.4335938" y="549" font-family="Helvetica" font-size="16" font-weight="normal">Directories &amp; Files)</tspan>
        </text>
        <g id="documents-copy-25" transform="translate(194.000000, 288.000000)" fill-rule="nonzero">
            <path d="M26.2058824,7.2972973 L26.2058824,29.1891892 L6.35294118,29.1891892 L6.35294118,26.6872587 C6.35943582,26.6798154 23.245211,7.30717992 23.2537721,7.2972973 L26.2058824,7.2972973 Z" id="Path" fill="#A4C2F7"></path>
            <path d="M23.8235294,27.5675676 C23.0953509,27.5675676 0.447389452,27.5675676 0,27.5675676 C0,25.8591004 0,1.14064093 0,0 L17.2515213,0 L19.0314675,3.65381853 L23.8235294,5.25096525 C23.8235294,6.23361776 23.8235294,26.451278 23.8235294,27.5675676 Z" id="Path" fill="#FFFFFF"></path>
            <polygon id="Path" fill="#A4C2F7" points="23.8235294 6.48648649 17.4705882 6.48648649 17.4705882 0.810810811"></polygon>
            <path d="M23.0550285,27.5675676 L0.768500949,27.5675676 C0.344057875,27.5675676 0,27.2870049 0,26.9410319 L0,0.626535627 C0,0.2805 0.344057875,0 0.768500949,0 L16.9070209,0 C17.1108273,0 17.3062571,0.066036855 17.4504279,0.183512285 L23.5984355,5.1957973 C23.7425294,5.31327273 23.8235294,5.47266339 23.8235294,5.63882064 L23.8235294,26.9410319 C23.8235294,27.2870049 23.4793947,27.5675676 23.0550285,27.5675676 Z M1.5370019,26.3144963 L22.2865275,26.3144963 L22.2865275,5.8983317 L16.5886309,1.25307125 L1.5370019,1.25307125 L1.5370019,26.3144963 Z" id="Shape" fill="#418CFE"></path>
            <path d="M23.1530633,6.25 L16.9979646,6.25 C16.5731089,6.25 16.2285772,5.9701875 16.2285772,5.625 L16.2285772,0.625 C16.2285772,0.2798125 16.5731089,0 16.9979646,0 C17.4228203,0 17.7673519,0.2798125 17.7673519,0.625 L17.7673519,5 L23.1530633,5 C23.577919,5 23.9224506,5.2798125 23.9224506,5.625 C23.9224506,5.9701875 23.577919,6.25 23.1530633,6.25 Z M26.2306127,30 L5.53409322,30 C5.10916059,30 4.76470588,29.720125 4.76470588,29.375 L4.76470588,26.875 C4.76470588,26.529875 5.10916059,26.25 5.53409322,26.25 C5.95902585,26.25 6.30348056,26.529875 6.30348056,26.875 L6.30348056,28.75 L25.4612253,28.75 L25.4612253,8.125 L23.1530633,8.125 C22.7282076,8.125 22.383676,7.8451875 22.383676,7.5 C22.383676,7.1548125 22.7282076,6.875 23.1530633,6.875 L26.2306127,6.875 C26.6554683,6.875 27,7.1548125 27,7.5 L27,29.375 C27,29.720125 26.6554683,30 26.2306127,30 Z" id="Shape" fill="#418CFE"></path>
            <path d="M19.0933504,23.5135135 L3.14194373,23.5135135 C2.72242174,23.5135135 2.38235294,23.2329509 2.38235294,22.8869779 C2.38235294,22.5410049 2.72242174,22.2604423 3.14194373,22.2604423 L19.0933504,22.2604423 C19.5127964,22.2604423 19.8529412,22.5410049 19.8529412,22.8869779 C19.8529412,23.2329509 19.5127964,23.5135135 19.0933504,23.5135135 Z M19.0933504,21.007371 L3.14194373,21.007371 C2.72242174,21.007371 2.38235294,20.7268084 2.38235294,20.3808354 C2.38235294,20.0348624 2.72242174,19.7542998 3.14194373,19.7542998 L19.0933504,19.7542998 C19.5127964,19.7542998 19.8529412,20.0348624 19.8529412,20.3808354 C19.8529412,20.7268084 19.5127964,21.007371 19.0933504,21.007371 Z M19.0933504,18.5012285 L3.14194373,18.5012285 C2.72242174,18.5012285 2.38235294,18.2206658 2.38235294,17.8746929 C2.38235294,17.5287199 2.72242174,17.2481572 3.14194373,17.2481572 L19.0933504,17.2481572 C19.5127964,17.2481572 19.8529412,17.5287199 19.8529412,17.8746929 C19.8529412,18.2206658 19.5127964,18.5012285 19.0933504,18.5012285 Z M19.0933504,15.995086 L3.14194373,15.995086 C2.72242174,15.995086 2.38235294,15.714586 2.38235294,15.3685504 C2.38235294,15.0225147 2.72242174,14.7420147 3.14194373,14.7420147 L19.0933504,14.7420147 C19.5127964,14.7420147 19.8529412,15.0225147 19.8529412,15.3685504 C19.8529412,15.714586 19.5127964,15.995086 19.0933504,15.995086 Z M19.0933504,13.4889435 L3.14194373,13.4889435 C2.72242174,13.4889435 2.38235294,13.2084435 2.38235294,12.8624079 C2.38235294,12.5163722 2.72242174,12.2358722 3.14194373,12.2358722 L19.0933504,12.2358722 C19.5127964,12.2358722 19.8529412,12.5163722 19.8529412,12.8624079 C19.8529412,13.2084435 19.5127964,13.4889435 19.0933504,13.4889435 Z M9.97826087,10.982801 L3.14194373,10.982801 C2.72242174,10.982801 2.38235294,10.702301 2.38235294,10.3562654 C2.38235294,10.0102297 2.72242174,9.72972973 3.14194373,9.72972973 L9.97826087,9.72972973 C10.3977829,9.72972973 10.7378517,10.0102297 10.7378517,10.3562654 C10.7378517,10.702301 10.3977829,10.982801 9.97826087,10.982801 Z" id="Shape" fill="#418CFE"></path>
        </g>
        <g id="documents-copy-27" transform="translate(279.000000, 446.000000)" fill-rule="nonzero">
            <path d="M26.2058824,7.2972973 L26.2058824,29.1891892 L6.35294118,29.1891892 L6.35294118,26.6872587 C6.35943582,26.6798154 23.245211,7.30717992 23.2537721,7.2972973 L26.2058824,7.2972973 Z" id="Path" fill="#A4C2F7"></path>
            <path d="M23.8235294,27.5675676 C23.0953509,27.5675676 0.447389452,27.5675676 0,27.5675676 C0,25.8591004 0,1.14064093 0,0 L17.2515213,0 L19.0314675,3.65381853 L23.8235294,5.25096525 C23.8235294,6.23361776 23.8235294,26.451278 23.8235294,27.5675676 Z" id="Path" fill="#FFFFFF"></path>
            <polygon id="Path" fill="#A4C2F7" points="23.8235294 6.48648649 17.4705882 6.48648649 17.4705882 0.810810811"></polygon>
            <path d="M23.0550285,27.5675676 L0.768500949,27.5675676 C0.344057875,27.5675676 0,27.2870049 0,26.9410319 L0,0.626535627 C0,0.2805 0.344057875,0 0.768500949,0 L16.9070209,0 C17.1108273,0 17.3062571,0.066036855 17.4504279,0.183512285 L23.5984355,5.1957973 C23.7425294,5.31327273 23.8235294,5.47266339 23.8235294,5.63882064 L23.8235294,26.9410319 C23.8235294,27.2870049 23.4793947,27.5675676 23.0550285,27.5675676 Z M1.5370019,26.3144963 L22.2865275,26.3144963 L22.2865275,5.8983317 L16.5886309,1.25307125 L1.5370019,1.25307125 L1.5370019,26.3144963 Z" id="Shape" fill="#418CFE"></path>
            <path d="M23.1530633,6.25 L16.9979646,6.25 C16.5731089,6.25 16.2285772,5.9701875 16.2285772,5.625 L16.2285772,0.625 C16.2285772,0.2798125 16.5731089,0 16.9979646,0 C17.4228203,0 17.7673519,0.2798125 17.7673519,0.625 L17.7673519,5 L23.1530633,5 C23.577919,5 23.9224506,5.2798125 23.9224506,5.625 C23.9224506,5.9701875 23.577919,6.25 23.1530633,6.25 Z M26.2306127,30 L5.53409322,30 C5.10916059,30 4.76470588,29.720125 4.76470588,29.375 L4.76470588,26.875 C4.76470588,26.529875 5.10916059,26.25 5.53409322,26.25 C5.95902585,26.25 6.30348056,26.529875 6.30348056,26.875 L6.30348056,28.75 L25.4612253,28.75 L25.4612253,8.125 L23.1530633,8.125 C22.7282076,8.125 22.383676,7.8451875 22.383676,7.5 C22.383676,7.1548125 22.7282076,6.875 23.1530633,6.875 L26.2306127,6.875 C26.6554683,6.875 27,7.1548125 27,7.5 L27,29.375 C27,29.720125 26.6554683,30 26.2306127,30 Z" id="Shape" fill="#418CFE"></path>
            <path d="M19.0933504,23.5135135 L3.14194373,23.5135135 C2.72242174,23.5135135 2.38235294,23.2329509 2.38235294,22.8869779 C2.38235294,22.5410049 2.72242174,22.2604423 3.14194373,22.2604423 L19.0933504,22.2604423 C19.5127964,22.2604423 19.8529412,22.5410049 19.8529412,22.8869779 C19.8529412,23.2329509 19.5127964,23.5135135 19.0933504,23.5135135 Z M19.0933504,21.007371 L3.14194373,21.007371 C2.72242174,21.007371 2.38235294,20.7268084 2.38235294,20.3808354 C2.38235294,20.0348624 2.72242174,19.7542998 3.14194373,19.7542998 L19.0933504,19.7542998 C19.5127964,19.7542998 19.8529412,20.0348624 19.8529412,20.3808354 C19.8529412,20.7268084 19.5127964,21.007371 19.0933504,21.007371 Z M19.0933504,18.5012285 L3.14194373,18.5012285 C2.72242174,18.5012285 2.38235294,18.2206658 2.38235294,17.8746929 C2.38235294,17.5287199 2.72242174,17.2481572 3.14194373,17.2481572 L19.0933504,17.2481572 C19.5127964,17.2481572 19.8529412,17.5287199 19.8529412,17.8746929 C19.8529412,18.2206658 19.5127964,18.5012285 19.0933504,18.5012285 Z M19.0933504,15.995086 L3.14194373,15.995086 C2.72242174,15.995086 2.38235294,15.714586 2.38235294,15.3685504 C2.38235294,15.0225147 2.72242174,14.7420147 3.14194373,14.7420147 L19.0933504,14.7420147 C19.5127964,14.7420147 19.8529412,15.0225147 19.8529412,15.3685504 C19.8529412,15.714586 19.5127964,15.995086 19.0933504,15.995086 Z M19.0933504,13.4889435 L3.14194373,13.4889435 C2.72242174,13.4889435 2.38235294,13.2084435 2.38235294,12.8624079 C2.38235294,12.5163722 2.72242174,12.2358722 3.14194373,12.2358722 L19.0933504,12.2358722 C19.5127964,12.2358722 19.8529412,12.5163722 19.8529412,12.8624079 C19.8529412,13.2084435 19.5127964,13.4889435 19.0933504,13.4889435 Z M9.97826087,10.982801 L3.14194373,10.982801 C2.72242174,10.982801 2.38235294,10.702301 2.38235294,10.3562654 C2.38235294,10.0102297 2.72242174,9.72972973 3.14194373,9.72972973 L9.97826087,9.72972973 C10.3977829,9.72972973 10.7378517,10.0102297 10.7378517,10.3562654 C10.7378517,10.702301 10.3977829,10.982801 9.97826087,10.982801 Z" id="Shape" fill="#418CFE"></path>
        </g>
        <g id="documents-copy-28" transform="translate(110.000000, 454.000000)" fill-rule="nonzero">
            <path d="M26.2058824,7.2972973 L26.2058824,29.1891892 L6.35294118,29.1891892 L6.35294118,26.6872587 C6.35943582,26.6798154 23.245211,7.30717992 23.2537721,7.2972973 L26.2058824,7.2972973 Z" id="Path" fill="#A4C2F7"></path>
            <path d="M23.8235294,27.5675676 C23.0953509,27.5675676 0.447389452,27.5675676 0,27.5675676 C0,25.8591004 0,1.14064093 0,0 L17.2515213,0 L19.0314675,3.65381853 L23.8235294,5.25096525 C23.8235294,6.23361776 23.8235294,26.451278 23.8235294,27.5675676 Z" id="Path" fill="#FFFFFF"></path>
            <polygon id="Path" fill="#A4C2F7" points="23.8235294 6.48648649 17.4705882 6.48648649 17.4705882 0.810810811"></polygon>
            <path d="M23.0550285,27.5675676 L0.768500949,27.5675676 C0.344057875,27.5675676 0,27.2870049 0,26.9410319 L0,0.626535627 C0,0.2805 0.344057875,0 0.768500949,0 L16.9070209,0 C17.1108273,0 17.3062571,0.066036855 17.4504279,0.183512285 L23.5984355,5.1957973 C23.7425294,5.31327273 23.8235294,5.47266339 23.8235294,5.63882064 L23.8235294,26.9410319 C23.8235294,27.2870049 23.4793947,27.5675676 23.0550285,27.5675676 Z M1.5370019,26.3144963 L22.2865275,26.3144963 L22.2865275,5.8983317 L16.5886309,1.25307125 L1.5370019,1.25307125 L1.5370019,26.3144963 Z" id="Shape" fill="#418CFE"></path>
            <path d="M23.1530633,6.25 L16.9979646,6.25 C16.5731089,6.25 16.2285772,5.9701875 16.2285772,5.625 L16.2285772,0.625 C16.2285772,0.2798125 16.5731089,0 16.9979646,0 C17.4228203,0 17.7673519,0.2798125 17.7673519,0.625 L17.7673519,5 L23.1530633,5 C23.577919,5 23.9224506,5.2798125 23.9224506,5.625 C23.9224506,5.9701875 23.577919,6.25 23.1530633,6.25 Z M26.2306127,30 L5.53409322,30 C5.10916059,30 4.76470588,29.720125 4.76470588,29.375 L4.76470588,26.875 C4.76470588,26.529875 5.10916059,26.25 5.53409322,26.25 C5.95902585,26.25 6.30348056,26.529875 6.30348056,26.875 L6.30348056,28.75 L25.4612253,28.75 L25.4612253,8.125 L23.1530633,8.125 C22.7282076,8.125 22.383676,7.8451875 22.383676,7.5 C22.383676,7.1548125 22.7282076,6.875 23.1530633,6.875 L26.2306127,6.875 C26.6554683,6.875 27,7.1548125 27,7.5 L27,29.375 C27,29.720125 26.6554683,30 26.2306127,30 Z" id="Shape" fill="#418CFE"></path>
            <path d="M19.0933504,23.5135135 L3.14194373,23.5135135 C2.72242174,23.5135135 2.38235294,23.2329509 2.38235294,22.8869779 C2.38235294,22.5410049 2.72242174,22.2604423 3.14194373,22.2604423 L19.0933504,22.2604423 C19.5127964,22.2604423 19.8529412,22.5410049 19.8529412,22.8869779 C19.8529412,23.2329509 19.5127964,23.5135135 19.0933504,23.5135135 Z M19.0933504,21.007371 L3.14194373,21.007371 C2.72242174,21.007371 2.38235294,20.7268084 2.38235294,20.3808354 C2.38235294,20.0348624 2.72242174,19.7542998 3.14194373,19.7542998 L19.0933504,19.7542998 C19.5127964,19.7542998 19.8529412,20.0348624 19.8529412,20.3808354 C19.8529412,20.7268084 19.5127964,21.007371 19.0933504,21.007371 Z M19.0933504,18.5012285 L3.14194373,18.5012285 C2.72242174,18.5012285 2.38235294,18.2206658 2.38235294,17.8746929 C2.38235294,17.5287199 2.72242174,17.2481572 3.14194373,17.2481572 L19.0933504,17.2481572 C19.5127964,17.2481572 19.8529412,17.5287199 19.8529412,17.8746929 C19.8529412,18.2206658 19.5127964,18.5012285 19.0933504,18.5012285 Z M19.0933504,15.995086 L3.14194373,15.995086 C2.72242174,15.995086 2.38235294,15.714586 2.38235294,15.3685504 C2.38235294,15.0225147 2.72242174,14.7420147 3.14194373,14.7420147 L19.0933504,14.7420147 C19.5127964,14.7420147 19.8529412,15.0225147 19.8529412,15.3685504 C19.8529412,15.714586 19.5127964,15.995086 19.0933504,15.995086 Z M19.0933504,13.4889435 L3.14194373,13.4889435 C2.72242174,13.4889435 2.38235294,13.2084435 2.38235294,12.8624079 C2.38235294,12.5163722 2.72242174,12.2358722 3.14194373,12.2358722 L19.0933504,12.2358722 C19.5127964,12.2358722 19.8529412,12.5163722 19.8529412,12.8624079 C19.8529412,13.2084435 19.5127964,13.4889435 19.0933504,13.4889435 Z M9.97826087,10.982801 L3.14194373,10.982801 C2.72242174,10.982801 2.38235294,10.702301 2.38235294,10.3562654 C2.38235294,10.0102297 2.72242174,9.72972973 3.14194373,9.72972973 L9.97826087,9.72972973 C10.3977829,9.72972973 10.7378517,10.0102297 10.7378517,10.3562654 C10.7378517,10.702301 10.3977829,10.982801 9.97826087,10.982801 Z" id="Shape" fill="#418CFE"></path>
        </g>
        <g id="Path-Copy-9">
            <use fill="black" fill-opacity="1" filter="url(#filter-11)" xlink:href="#path-10"></use>
            <use fill="#199ABD" fill-rule="evenodd" xlink:href="#path-10"></use>
        </g>
        <g id="Path-Copy-10">
            <use fill="black" fill-opacity="1" filter="url(#filter-13)" xlink:href="#path-12"></use>
            <use fill="#199ABD" fill-rule="evenodd" xlink:href="#path-12"></use>
        </g>
        <g id="documents-copy-30" transform="translate(581.000000, 469.000000)" fill-rule="nonzero">
            <path d="M22,25 C21.3275586,25 0.413144828,25 0,25 C0,23.4506548 0,1.03440476 0,0 L15.9310345,0 L17.5747379,3.3135119 L22,4.76190476 C22,5.65303571 22,23.9876786 22,25 Z" id="Path" fill="#FFFFFF"></path>
            <polygon id="Path" fill="#A4C2F7" points="22 6 16 6 16 1"></polygon>
            <path d="M21.2903226,25 L0.709677419,25 C0.317722581,25 0,24.7455682 0,24.4318182 L0,0.568181818 C0,0.254375 0.317722581,0 0.709677419,0 L15.6129032,0 C15.8011097,0 15.9815806,0.0598863636 16.1147161,0.166420455 L21.7921355,4.711875 C21.9252,4.81840909 22,4.96295455 22,5.11363636 L22,24.4318182 C22,24.7455682 21.6822065,25 21.2903226,25 Z M1.41935484,23.8636364 L20.5806452,23.8636364 L20.5806452,5.34897727 L15.3188839,1.13636364 L1.41935484,1.13636364 L1.41935484,23.8636364 Z" id="Shape" fill="#418CFE"></path>
            <path d="M17.3043478,21 L2.69565217,21 C2.31144348,21 2,20.7557455 2,20.4545455 C2,20.1533455 2.31144348,19.9090909 2.69565217,19.9090909 L17.3043478,19.9090909 C17.688487,19.9090909 18,20.1533455 18,20.4545455 C18,20.7557455 17.688487,21 17.3043478,21 Z M17.3043478,18.8181818 L2.69565217,18.8181818 C2.31144348,18.8181818 2,18.5739273 2,18.2727273 C2,17.9715273 2.31144348,17.7272727 2.69565217,17.7272727 L17.3043478,17.7272727 C17.688487,17.7272727 18,17.9715273 18,18.2727273 C18,18.5739273 17.688487,18.8181818 17.3043478,18.8181818 Z M17.3043478,16.6363636 L2.69565217,16.6363636 C2.31144348,16.6363636 2,16.3921091 2,16.0909091 C2,15.7897091 2.31144348,15.5454545 2.69565217,15.5454545 L17.3043478,15.5454545 C17.688487,15.5454545 18,15.7897091 18,16.0909091 C18,16.3921091 17.688487,16.6363636 17.3043478,16.6363636 Z M17.3043478,14.4545455 L2.69565217,14.4545455 C2.31144348,14.4545455 2,14.2103455 2,13.9090909 C2,13.6078364 2.31144348,13.3636364 2.69565217,13.3636364 L17.3043478,13.3636364 C17.688487,13.3636364 18,13.6078364 18,13.9090909 C18,14.2103455 17.688487,14.4545455 17.3043478,14.4545455 Z M17.3043478,12.2727273 L2.69565217,12.2727273 C2.31144348,12.2727273 2,12.0285273 2,11.7272727 C2,11.4260182 2.31144348,11.1818182 2.69565217,11.1818182 L17.3043478,11.1818182 C17.688487,11.1818182 18,11.4260182 18,11.7272727 C18,12.0285273 17.688487,12.2727273 17.3043478,12.2727273 Z M8.95652174,10.0909091 L2.69565217,10.0909091 C2.31144348,10.0909091 2,9.84670909 2,9.54545455 C2,9.2442 2.31144348,9 2.69565217,9 L8.95652174,9 C9.34073043,9 9.65217391,9.2442 9.65217391,9.54545455 C9.65217391,9.84670909 9.34073043,10.0909091 8.95652174,10.0909091 Z" id="Shape" fill="#418CFE"></path>
        </g>
        <text id="Parent-Directory-(Di" font-family="Helvetica" font-size="18" font-weight="normal" fill="#0055C2">
            <tspan x="515.445682" y="286.521288">Parent Directory</tspan>
            <tspan x="515.445682" y="308.521288">(Directory in which you </tspan>
            <tspan x="515.445682" y="330.521288">run $git clone command)</tspan>
        </text>
        <g id="Path-Copy-5">
            <use fill="black" fill-opacity="1" filter="url(#filter-15)" xlink:href="#path-14"></use>
            <use fill="#7BB2FF" fill-rule="evenodd" xlink:href="#path-14"></use>
        </g>
        <g id="Path-Copy-7">
            <use fill="black" fill-opacity="1" filter="url(#filter-17)" xlink:href="#path-16"></use>
            <use fill="#7BB2FF" fill-rule="evenodd" xlink:href="#path-16"></use>
        </g>
        <polyline id="Path-3-Copy" stroke="#0055C2" points="492.469396 293.021288 492.469396 378.021288 516.424242 378.021288"></polyline>
        <polyline id="Path-3-Copy-3" stroke="#0055C2" points="532.469396 394.021288 532.469396 531.021288 571.469396 531.021288"></polyline>
        <polyline id="Path-3-Copy-4" stroke="#0055C2" points="532.469396 394.021288 532.469396 437.021288 571.469396 437.021288"></polyline>
        <polyline id="Path-3-Copy-5" stroke="#0055C2" points="532.469396 440.021288 532.469396 483.021288 571.469396 483.021288"></polyline>
        <text id="Directory-from-Remot" font-family="Helvetica" font-size="18" font-weight="normal" fill="#199ABD">
            <tspan x="579" y="375">Directory from </tspan>
            <tspan x="579" y="397">Remote Repository</tspan>
        </text>
        <g id="star" transform="translate(552.000000, 360.000000)" fill="url(#linearGradient-18)" fill-rule="nonzero">
            <path d="M12.0477348,14.2321921 C11.5145894,14.6119273 8.09367648,12.2047136 7.43851045,12.1994411 C6.78334441,12.1941731 3.32392758,14.5460254 2.79699363,14.1577566 C2.27005968,13.7694923 3.50886355,9.78139044 3.31143599,9.15843081 C3.11400385,8.53547119 -0.198134752,5.98148451 0.00935103559,5.36178144 C0.216836824,4.74208293 4.40336871,4.68451399 4.93651415,4.3047779 C5.46965959,3.92504044 6.88206505,-0.00526630567 7.53723109,0 C8.19239713,0.00527735803 9.54101358,3.95779982 10.0679475,4.3460668 C10.5948815,4.73433379 14.779936,4.85926414 14.9773635,5.4822192 C15.1747957,6.10517883 11.8217518,8.60553727 11.614266,9.22524034 C11.4067802,9.84493885 12.5808803,13.8524524 12.0477348,14.2321921 L12.0477348,14.2321921 Z" id="Path"></path>
        </g>
        <g id="star-copy-2" transform="translate(87.000000, 416.000000)" fill="url(#linearGradient-18)" fill-rule="nonzero">
            <path d="M12.0477348,14.2321921 C11.5145894,14.6119273 8.09367648,12.2047136 7.43851045,12.1994411 C6.78334441,12.1941731 3.32392758,14.5460254 2.79699363,14.1577566 C2.27005968,13.7694923 3.50886355,9.78139044 3.31143599,9.15843081 C3.11400385,8.53547119 -0.198134752,5.98148451 0.00935103559,5.36178144 C0.216836824,4.74208293 4.40336871,4.68451399 4.93651415,4.3047779 C5.46965959,3.92504044 6.88206505,-0.00526630567 7.53723109,0 C8.19239713,0.00527735803 9.54101358,3.95779982 10.0679475,4.3460668 C10.5948815,4.73433379 14.779936,4.85926414 14.9773635,5.4822192 C15.1747957,6.10517883 11.8217518,8.60553727 11.614266,9.22524034 C11.4067802,9.84493885 12.5808803,13.8524524 12.0477348,14.2321921 L12.0477348,14.2321921 Z" id="Path"></path>
        </g>
        <g id="star-copy" transform="translate(535.000000, 353.000000)" fill="url(#linearGradient-18)" fill-rule="nonzero">
            <path d="M12.0477348,14.2321921 C11.5145894,14.6119273 8.09367648,12.2047136 7.43851045,12.1994411 C6.78334441,12.1941731 3.32392758,14.5460254 2.79699363,14.1577566 C2.27005968,13.7694923 3.50886355,9.78139044 3.31143599,9.15843081 C3.11400385,8.53547119 -0.198134752,5.98148451 0.00935103559,5.36178144 C0.216836824,4.74208293 4.40336871,4.68451399 4.93651415,4.3047779 C5.46965959,3.92504044 6.88206505,-0.00526630567 7.53723109,0 C8.19239713,0.00527735803 9.54101358,3.95779982 10.0679475,4.3460668 C10.5948815,4.73433379 14.779936,4.85926414 14.9773635,5.4822192 C15.1747957,6.10517883 11.8217518,8.60553727 11.614266,9.22524034 C11.4067802,9.84493885 12.5808803,13.8524524 12.0477348,14.2321921 L12.0477348,14.2321921 Z" id="Path"></path>
        </g>
        <g id="star-copy-3" transform="translate(70.000000, 409.000000)" fill="url(#linearGradient-18)" fill-rule="nonzero">
            <path d="M12.0477348,14.2321921 C11.5145894,14.6119273 8.09367648,12.2047136 7.43851045,12.1994411 C6.78334441,12.1941731 3.32392758,14.5460254 2.79699363,14.1577566 C2.27005968,13.7694923 3.50886355,9.78139044 3.31143599,9.15843081 C3.11400385,8.53547119 -0.198134752,5.98148451 0.00935103559,5.36178144 C0.216836824,4.74208293 4.40336871,4.68451399 4.93651415,4.3047779 C5.46965959,3.92504044 6.88206505,-0.00526630567 7.53723109,0 C8.19239713,0.00527735803 9.54101358,3.95779982 10.0679475,4.3460668 C10.5948815,4.73433379 14.779936,4.85926414 14.9773635,5.4822192 C15.1747957,6.10517883 11.8217518,8.60553727 11.614266,9.22524034 C11.4067802,9.84493885 12.5808803,13.8524524 12.0477348,14.2321921 L12.0477348,14.2321921 Z" id="Path"></path>
        </g>
        <text id="Illustration" font-family="Helvetica-Bold, Helvetica" font-size="24" font-weight="bold" fill="#0055C2">
            <tspan x="143.164062" y="240">Illustration</tspan>
        </text>
        <text id="Directory-View" font-family="Helvetica-Bold, Helvetica" font-size="24" font-weight="bold" fill="#0055C2">
            <tspan x="500.84375" y="240">Directory View</tspan>
        </text>
        <text id=".git-copy" font-family="Helvetica" font-size="18" font-weight="normal" fill="#0055C2">
            <tspan x="616" y="446">.git</tspan>
        </text>
        <text id=".gitignore" font-family="Helvetica" font-size="18" font-weight="normal" fill="#0055C2">
            <tspan x="616" y="485">.gitignore</tspan>
        </text>
        <text id="Working-Directories" font-family="Helvetica" font-size="18" font-weight="normal" fill="#0055C2">
            <tspan x="616" y="527">Working </tspan>
            <tspan x="616" y="549">Directories &amp; files</tspan>
        </text>
        <g id="Path-Copy-8">
            <use fill="black" fill-opacity="1" filter="url(#filter-20)" xlink:href="#path-19"></use>
            <use fill="#7BB2FF" fill-rule="evenodd" xlink:href="#path-19"></use>
        </g>
        <g id="Path-Copy-11">
            <use fill="black" fill-opacity="1" filter="url(#filter-22)" xlink:href="#path-21"></use>
            <use fill="#7BB2FF" fill-rule="evenodd" xlink:href="#path-21"></use>
        </g>
        <g id="documents-copy-29" transform="translate(586.000000, 523.000000)" fill-rule="nonzero">
            <path d="M24,6 L24,26 L6,26 L6,23.7142857 C6.00588848,23.7074857 21.315658,6.00902857 21.3234201,6 L24,6 Z" id="Path" fill="#A4C2F7"></path>
            <path d="M22,25 C21.3275586,25 0.413144828,25 0,25 C0,23.4506548 0,1.03440476 0,0 L15.9310345,0 L17.5747379,3.3135119 L22,4.76190476 C22,5.65303571 22,23.9876786 22,25 Z" id="Path" fill="#FFFFFF"></path>
            <polygon id="Path" fill="#A4C2F7" points="22 6 16 6 16 1"></polygon>
            <path d="M21.2903226,25 L0.709677419,25 C0.317722581,25 0,24.7455682 0,24.4318182 L0,0.568181818 C0,0.254375 0.317722581,0 0.709677419,0 L15.6129032,0 C15.8011097,0 15.9815806,0.0598863636 16.1147161,0.166420455 L21.7921355,4.711875 C21.9252,4.81840909 22,4.96295455 22,5.11363636 L22,24.4318182 C22,24.7455682 21.6822065,25 21.2903226,25 Z M1.41935484,23.8636364 L20.5806452,23.8636364 L20.5806452,5.34897727 L15.3188839,1.13636364 L1.41935484,1.13636364 L1.41935484,23.8636364 Z" id="Shape" fill="#418CFE"></path>
            <path d="M21.5397924,5.625 L16.0034602,5.625 C15.6213149,5.625 15.3114187,5.37316875 15.3114187,5.0625 L15.3114187,0.5625 C15.3114187,0.25183125 15.6213149,0 16.0034602,0 C16.3856055,0 16.6955017,0.25183125 16.6955017,0.5625 L16.6955017,4.5 L21.5397924,4.5 C21.9219377,4.5 22.2318339,4.75183125 22.2318339,5.0625 C22.2318339,5.37316875 21.9219377,5.625 21.5397924,5.625 Z M24.3079585,27 L5.69204152,27 C5.30982699,27 5,26.7481125 5,26.4375 L5,24.1875 C5,23.8768875 5.30982699,23.625 5.69204152,23.625 C6.07425606,23.625 6.38408304,23.8768875 6.38408304,24.1875 L6.38408304,25.875 L23.615917,25.875 L23.615917,7.3125 L21.5397924,7.3125 C21.1576471,7.3125 20.8477509,7.06066875 20.8477509,6.75 C20.8477509,6.43933125 21.1576471,6.1875 21.5397924,6.1875 L24.3079585,6.1875 C24.6901038,6.1875 25,6.43933125 25,6.75 L25,26.4375 C25,26.7481125 24.6901038,27 24.3079585,27 Z" id="Shape" fill="#418CFE"></path>
            <path d="M17.3043478,21 L2.69565217,21 C2.31144348,21 2,20.7557455 2,20.4545455 C2,20.1533455 2.31144348,19.9090909 2.69565217,19.9090909 L17.3043478,19.9090909 C17.688487,19.9090909 18,20.1533455 18,20.4545455 C18,20.7557455 17.688487,21 17.3043478,21 Z M17.3043478,18.8181818 L2.69565217,18.8181818 C2.31144348,18.8181818 2,18.5739273 2,18.2727273 C2,17.9715273 2.31144348,17.7272727 2.69565217,17.7272727 L17.3043478,17.7272727 C17.688487,17.7272727 18,17.9715273 18,18.2727273 C18,18.5739273 17.688487,18.8181818 17.3043478,18.8181818 Z M17.3043478,16.6363636 L2.69565217,16.6363636 C2.31144348,16.6363636 2,16.3921091 2,16.0909091 C2,15.7897091 2.31144348,15.5454545 2.69565217,15.5454545 L17.3043478,15.5454545 C17.688487,15.5454545 18,15.7897091 18,16.0909091 C18,16.3921091 17.688487,16.6363636 17.3043478,16.6363636 Z M17.3043478,14.4545455 L2.69565217,14.4545455 C2.31144348,14.4545455 2,14.2103455 2,13.9090909 C2,13.6078364 2.31144348,13.3636364 2.69565217,13.3636364 L17.3043478,13.3636364 C17.688487,13.3636364 18,13.6078364 18,13.9090909 C18,14.2103455 17.688487,14.4545455 17.3043478,14.4545455 Z M17.3043478,12.2727273 L2.69565217,12.2727273 C2.31144348,12.2727273 2,12.0285273 2,11.7272727 C2,11.4260182 2.31144348,11.1818182 2.69565217,11.1818182 L17.3043478,11.1818182 C17.688487,11.1818182 18,11.4260182 18,11.7272727 C18,12.0285273 17.688487,12.2727273 17.3043478,12.2727273 Z M8.95652174,10.0909091 L2.69565217,10.0909091 C2.31144348,10.0909091 2,9.84670909 2,9.54545455 C2,9.2442 2.31144348,9 2.69565217,9 L8.95652174,9 C9.34073043,9 9.65217391,9.2442 9.65217391,9.54545455 C9.65217391,9.84670909 9.34073043,10.0909091 8.95652174,10.0909091 Z" id="Shape" fill="#418CFE"></path>
        </g>
    </g>
</svg>