<?xml version="1.0" encoding="UTF-8"?>
<svg width="800px" height="600px" viewBox="0 0 800 600" version="1.1" xmlns="http://www.w3.org/2000/svg" xmlns:xlink="http://www.w3.org/1999/xlink">
    <title>2041-10-18-12-10_GitKeyCommandsandGitHubKeyFeatures</title>
    <defs>
        <path d="M8.68744595,14.5405413 C10.6544909,13.5649687 12,11.5915112 12,9.31636202 C12,6.07252388 9.26504479,3.44227578 5.89152197,3.44227578 C4.52034181,3.44227578 3.25480793,3.87689217 2.23537065,4.61058921 L2.23537065,1.05770107 C2.23537065,0.476155373 1.74046224,0 1.11695169,0 C0.493934821,0 0.0167986821,0.476630104 0.0167986821,1.05770107 L0.0167986821,1.80184219 L0,9.32158406 C-0.0041824725,11.2003327 0.951817666,12.865215 2.41753644,13.8939574 C2.4777647,13.9362085 2.55848043,13.9312238 2.6127846,13.8823265 C2.66758244,13.8334292 2.6779496,13.7558106 2.63746831,13.6950451 C0.724974359,10.8146136 1.16014819,5.53963813 5.89176881,5.53963813 C8.05899866,5.53963813 9.80709909,7.22944376 9.81623206,9.31351363 C9.82240299,10.8599505 9.11620201,12.0365717 8.19549958,12.7781018 C6.36026565,14.2561773 3.64974731,12.6382934 4.49738595,10.4697214 C4.5894562,10.2335427 4.71879884,9.9959397 4.88664808,9.76189723 L5.12361171,9.47705853 C5.19766284,9.39967734 5.25048599,9.29903433 5.2146946,9.19411874 C5.01401603,8.62800181 3.46832203,8.97526767 3.04005964,10.0315445 C3.34292878,9.79631524 3.65986763,9.66433998 3.96940137,9.71489885 C2.38890334,11.275815 3.44141679,13.9563846 5.46005069,14.7513219 C6.40494316,15.1232738 7.55964718,15.0976383 8.68744595,14.5405413" id="path-1"></path>
        <linearGradient x1="28.568518%" y1="104.445731%" x2="78.3472072%" y2="20.6880271%" id="linearGradient-3">
            <stop stop-color="#000F98" offset="0%"></stop>
            <stop stop-color="#00A5FD" offset="100%"></stop>
        </linearGradient>
    </defs>
    <g id="2041-10-18-12-10_GitKeyCommandsandGitHubKeyFeatures" stroke="none" stroke-width="1" fill="none" fill-rule="evenodd">
        <rect fill="#FFFFFF" x="0" y="0" width="800" height="600"></rect>
        <rect id="Rectangle-Copy-5" fill-opacity="0.5" fill="#C5DDFF" x="28" y="65" width="367" height="36.4189189"></rect>
        <path d="M409,322 L766,322 C768.761424,322 771,324.238576 771,327 L771,481 L771,481 L404,481 L404,327 C404,324.238576 406.238576,322 409,322 Z" id="Rectangle-Copy-9" fill-opacity="0.5" fill="#C5DDFF"></path>
        <path d="M33,121 L390,121 C392.761424,121 395,123.238576 395,126 L395,194 L395,194 L28,194 L28,126 C28,123.238576 30.2385763,121 33,121 Z" id="Rectangle-Copy-7" fill-opacity="0.5" fill="#C5DDFF"></path>
        <rect id="Rectangle-Copy-8" fill-opacity="0.5" fill="#C5DDFF" x="28" y="252" width="367" height="313" rx="5"></rect>
        <rect id="Rectangle-Copy-11" fill-opacity="0.5" fill="#C5DDFF" x="404" y="65" width="367" height="232" rx="5"></rect>
        <path d="M404,481 L771,481 L771,560 C771,562.761424 768.761424,565 766,565 L409,565 C406.238576,565 404,562.761424 404,560 L404,481 L404,481 Z" id="Rectangle-Copy-10" fill-opacity="0.5" fill="#A1E0E9"></path>
        <g id="bloovee-winner-logo" transform="translate(725.000000, 580.000000)">
            <path d="M13,13.7751507 C13,14.396312 13.4732558,14.8717809 14.0514961,14.8717809 C14.6474304,14.8717809 15.1204503,14.3968042 15.1204503,13.7751507 L15.1204503,2.09687626 C15.1204503,1.49368045 14.6474304,1 14.0514961,1 C13.4557977,1 13,1.49392656 13,2.09687626 L13,13.7751507 Z M21.7920364,15 C24.6483217,15 26.751078,12.7149437 26.751078,9.97312215 L26.751078,9.93645297 C26.751078,7.17641992 24.6657798,4.92778666 21.8269526,4.92778666 C18.9881254,4.92778666 16.885369,7.212843 16.885369,9.97312215 L16.885369,10.0095452 C16.885369,12.7516128 18.9706673,15 21.7920364,15 Z M21.8269526,13.0621935 C20.179994,13.0621935 19.0055834,11.6547366 19.0055834,9.97312215 L19.0055834,9.93645297 C19.0055834,8.25459244 20.0919958,6.86534709 21.7920364,6.86534709 C23.456689,6.86534709 24.6306277,8.27305008 24.6306277,9.97312215 L24.6306277,10.0095452 C24.6306277,11.6731942 23.5444513,13.0621935 21.8269526,13.0621935 Z M32.8092717,15 C35.665557,15 37.7683133,12.7149437 37.7683133,9.97312215 L37.7683133,9.93645297 C37.7683133,7.17641992 35.6830151,4.92778666 32.8441878,4.92778666 C30.0053606,4.92778666 27.9026043,7.212843 27.9026043,9.97312215 L27.9026043,10.0095452 C27.9026043,12.7516128 29.9879025,15 32.8092717,15 Z M32.8441878,13.0621935 C31.1969933,13.0621935 30.0228187,11.6547366 30.0228187,9.97312215 L30.0228187,9.93645297 C30.0228187,8.25459244 31.109231,6.86534709 32.8092717,6.86534709 C34.4739243,6.86534709 35.647863,8.27305008 35.647863,9.97312215 L35.647863,10.0095452 C35.647863,11.6731942 34.5614506,13.0621935 32.8441878,13.0621935 Z M44.1416963,13.9944275 L47.2261164,6.6096472 C47.2784906,6.49988574 47.3487948,6.28060893 47.3487948,6.07954366 C47.3487948,5.47610175 46.8929971,5.01933658 46.3147568,5.01933658 C45.7539746,5.01933658 45.4737015,5.40300947 45.3158709,5.78692847 L42.8976893,12.2215093 L40.5144239,5.82335156 C40.3393711,5.36634029 40.041404,5.01933658 39.4629278,5.01933658 C38.8846875,5.01933658 38.4116676,5.53098247 38.4116676,6.07954366 C38.4116676,6.28060893 38.4817358,6.46346265 38.534346,6.62785874 L41.6182943,13.9944275 C41.8638872,14.5796579 42.2491448,14.9633308 42.8273851,14.9633308 L42.9326055,14.9633308 C43.5108458,14.9633308 43.8965752,14.5612003 44.1416963,13.9944275 Z M50.0949054,9.27837643 C50.2876522,7.77961573 51.1987758,6.73762019 52.4956289,6.73762019 C53.8974665,6.73762019 54.7036056,7.8524619 54.8437422,9.27837643 L50.0949054,9.27837643 Z M56.070527,13.72027 C56.2281217,13.5558739 56.3508002,13.3181395 56.3508002,13.0439819 C56.3508002,12.5320899 55.9830006,12.1481709 55.5095089,12.1481709 C55.2641519,12.1481709 55.1242513,12.2215093 54.9664207,12.3492362 C54.3704864,12.8611282 53.6695676,13.1901665 52.7759021,13.1901665 C51.4089807,13.1901665 50.3402624,12.3128131 50.1123635,10.7409601 L55.9126964,10.7409601 C56.4560206,10.7409601 56.9115824,10.3021604 56.9115824,9.68050697 C56.9115824,7.45057746 55.4568987,4.92778666 52.513087,4.92778666 C49.8672425,4.92778666 47.9919132,7.19438536 47.9919132,9.95466451 L47.9919132,9.9913337 C47.9919132,12.9708897 50.0597533,15 52.7409859,15 C54.1779755,15 55.2292357,14.5063195 56.070527,13.72027 Z M60.1833231,9.27837643 C60.3763058,7.77961573 61.2871935,6.73762019 62.5842825,6.73762019 C63.9858841,6.73762019 64.7920233,7.8524619 64.9321598,9.27837643 L60.1833231,9.27837643 Z M66.1589447,13.72027 C66.3167752,13.5558739 66.4394537,13.3181395 66.4394537,13.0439819 C66.4394537,12.5320899 66.0714183,12.1481709 65.5981624,12.1481709 C65.3528055,12.1481709 65.2126689,12.2215093 65.0548383,12.3492362 C64.4591399,12.8611282 63.7582212,13.1901665 62.8643197,13.1901665 C61.4976342,13.1901665 60.4289159,12.3128131 60.2007812,10.7409601 L66.0011141,10.7409601 C66.5444382,10.7409601 67,10.3021604 67,9.68050697 C67,7.45057746 65.5455522,4.92778666 62.6015046,4.92778666 C59.9556601,4.92778666 58.0805667,7.19438536 58.0805667,9.95466451 L58.0805667,9.9913337 C58.0805667,12.9708897 60.1484069,15 62.8294035,15 C64.2663932,15 65.3178893,14.5063195 66.1589447,13.72027 L66.1589447,13.72027 Z" id="Fill-1" fill="#030060"></path>
            <g id="Group-4">
                <mask id="mask-2" fill="white">
                    <use xlink:href="#path-1"></use>
                </mask>
                <g id="Clip-3"></g>
                <path d="M8.68744595,14.5405413 C10.6544909,13.5649687 12,11.5915112 12,9.31636202 C12,6.07252388 9.26504479,3.44227578 5.89152197,3.44227578 C4.52034181,3.44227578 3.25480793,3.87689217 2.23537065,4.61058921 L2.23537065,1.05770107 C2.23537065,0.476155373 1.74046224,0 1.11695169,0 C0.493934821,0 0.0167986821,0.476630104 0.0167986821,1.05770107 L0.0167986821,1.80184219 L0,9.32158406 C-0.0041824725,11.2003327 0.951817666,12.865215 2.41753644,13.8939574 C2.4777647,13.9362085 2.55848043,13.9312238 2.6127846,13.8823265 C2.66758244,13.8334292 2.6779496,13.7558106 2.63746831,13.6950451 C0.724974359,10.8146136 1.16014819,5.53963813 5.89176881,5.53963813 C8.05899866,5.53963813 9.80709909,7.22944376 9.81623206,9.31351363 C9.82240299,10.8599505 9.11620201,12.0365717 8.19549958,12.7781018 C6.36026565,14.2561773 3.64974731,12.6382934 4.49738595,10.4697214 C4.5894562,10.2335427 4.71879884,9.9959397 4.88664808,9.76189723 L5.12361171,9.47705853 C5.19766284,9.39967734 5.25048599,9.29903433 5.2146946,9.19411874 C5.01401603,8.62800181 3.46832203,8.97526767 3.04005964,10.0315445 C3.34292878,9.79631524 3.65986763,9.66433998 3.96940137,9.71489885 C2.38890334,11.275815 3.44141679,13.9563846 5.46005069,14.7513219 C6.40494316,15.1232738 7.55964718,15.0976383 8.68744595,14.5405413" id="Fill-2" fill="url(#linearGradient-3)" mask="url(#mask-2)"></path>
            </g>
        </g>
        <text id="Git-Key-Commands-and" fill-rule="nonzero" font-family="Helvetica" font-size="18" font-weight="normal" fill="#0055C2">
            <tspan x="10" y="23">Git Key Commands and GitHub Key Features</tspan>
        </text>
        <g id="git" transform="translate(661.000000, 9.000000)">
            <path d="M46.8658496,11.2380575 C45.1623498,11.2380575 43.8939053,12.0891281 43.8939053,14.1376499 C43.8939053,15.6808485 44.7297841,16.7522856 46.7743573,16.7522856 C48.5071097,16.7522856 49.6846843,15.7131436 49.6846843,14.073693 C49.6846843,12.2157755 48.6309666,11.2380575 46.8658496,11.2380575 L46.8658496,11.2380575 Z M43.4607172,25.7011913 C43.0574041,26.2046147 42.6553359,26.7397 42.6553359,27.3710373 C42.6553359,28.6305458 44.2337339,29.0092215 46.4027864,29.0092215 C48.1984009,29.0092215 50.6450424,28.8813076 50.6450424,27.1823327 C50.6450424,26.1723196 49.4674678,26.1102624 47.9805621,26.0152768 L43.4607172,25.7011913 Z M52.6255087,11.3330431 C53.1825537,12.0580995 53.7719634,13.0662128 53.7719634,14.5156924 C53.7719634,18.0124273 51.0776081,20.0603158 47.1764255,20.0603158 C46.1843252,20.0603158 45.2862067,19.9349349 44.7291617,19.7772589 L43.7071863,21.4471049 L46.7413702,21.6351763 C52.0989611,21.9828234 55.257002,22.1404995 55.257002,26.3293624 C55.257002,29.9533779 52.1300809,32 46.7413702,32 C41.1360655,32 39,30.5505204 39,28.0625322 C39,26.6440812 39.6199071,25.8898959 40.7034998,24.848221 C39.680902,24.4087545 39.3410734,23.6216409 39.3410734,22.7705703 C39.3410734,22.0771758 39.6815244,21.4471049 40.2391918,20.8480627 C40.7968593,20.2502869 41.416144,19.6506115 42.1586633,18.9578502 C40.6412601,18.2017651 39.4960502,16.563581 39.4960502,14.231369 C39.4960502,10.6086199 41.8493321,8.12063165 46.5870158,8.12063165 C47.9189448,8.12063165 48.7249485,8.24537935 49.436348,8.43598369 L55.4754632,8.43598369 L55.4754632,11.1133099 L52.6255087,11.3330431 L52.6255087,11.3330431 Z M60.9233016,5.60858036 C59.1575621,5.60858036 58.1355867,4.56817192 58.1355867,2.77167847 C58.1355867,0.977717972 59.1575621,0 60.9233016,0 C62.7195385,0 63.7408917,0.977084735 63.7408917,2.77167847 C63.7415139,4.56817192 62.7195385,5.60858036 60.9233016,5.60858036 Z M56.9275147,24.5423675 L56.9275147,22.0543792 L58.50778,21.8340127 C58.9409681,21.770689 59.0025853,21.6763367 59.0025853,21.2026754 L59.0025853,11.9403174 C59.0025853,11.59457 58.9104706,11.372937 58.5998947,11.279218 L56.9275147,10.6801757 L57.2679657,8.12949697 L63.6792742,8.12949697 L63.6792742,21.2033087 C63.6792742,21.7086318 63.7091492,21.770689 64.174702,21.834646 L65.7543448,22.0550125 L65.7543448,24.5430008 L56.9275147,24.5430008 L56.9275147,24.5423675 Z M78,23.32022 C76.6674487,23.9806863 74.7174798,24.5803617 72.9511179,24.5803617 C69.2665294,24.5803617 67.8736056,23.0694582 67.8736056,19.5074999 L67.8736056,11.2532552 C67.8736056,11.0651838 67.8736056,10.9385364 67.6252693,10.9385364 L65.458084,10.9385364 L65.458084,8.13456287 C68.1841815,7.81857759 69.2671518,6.43242174 69.6076028,2.99837733 L72.5502944,2.99837733 L72.5502944,7.47346341 C72.5502944,7.69319666 72.5502944,7.78881545 72.7980083,7.78881545 L77.1641212,7.78881545 L77.1641212,10.9391697 L72.5502944,10.9391697 L72.5502944,18.4683579 C72.5502944,20.3269086 72.9841049,21.0513318 74.6558625,21.0513318 C75.5241059,21.0513318 76.4209796,20.8315985 77.1641212,20.5479083 L78,23.32022 L78,23.32022 Z" id="Shape" fill="#31251C" fill-rule="nonzero"></path>
            <path d="M32.3772539,15.0299695 L17.9690664,0.622277028 C17.140005,-0.207425676 15.7941261,-0.207425676 14.9644314,0.622277028 L11.9724635,3.61427365 L15.7668919,7.40937182 C16.6497884,7.11169223 17.6606226,7.31120089 18.3636464,8.01486479 C19.0704703,8.72232885 19.2687104,9.74203981 18.9634334,10.6274783 L22.6210571,14.2851371 C23.5052204,13.9804906 24.5268216,14.1774658 25.2336455,14.8849299 C26.221679,15.8723394 26.221679,17.4728423 25.2336455,18.4608852 C24.2449787,19.4489281 22.6451246,19.4489281 21.6570912,18.4608852 C20.914166,17.7173195 20.7304932,16.6260388 21.1067059,15.7108324 L17.6954571,12.2995509 L17.6948238,21.2768075 C17.9361319,21.3958793 18.1628729,21.5542195 18.3636464,21.7543616 C19.3516798,22.7417711 19.3516798,24.3416406 18.3636464,25.3309502 C17.375613,26.3183598 15.7744921,26.3183598 14.7877254,25.3309502 C13.799692,24.3416406 13.799692,22.7417711 14.7877254,21.7543616 C15.0322003,21.5105176 15.3140432,21.3262096 15.6155201,21.2027043 L15.6155201,12.1424774 C15.3140432,12.0196054 15.0322003,11.8359308 14.7877254,11.5908201 C14.0391001,10.842821 13.8592273,9.74520661 14.2430403,8.82620003 L10.5024471,5.08430417 L0.622746073,14.9634666 C-0.207582024,15.7938027 -0.207582024,17.1396945 0.622746073,17.9700305 L15.0309336,32.377723 C15.8606284,33.2074257 17.2058739,33.2074257 18.0368353,32.377723 L32.3772539,18.0359 C33.207582,17.2061973 33.207582,15.8596722 32.3772539,15.0299695 L32.3772539,15.0299695 Z" id="Path" fill="#F34F29" fill-rule="nonzero"></path>
            <polygon id="Path" points="1.12409637e-15 0 79 0 79 33 0 33"></polygon>
        </g>
        <g id="github-copy" transform="translate(748.000000, 3.000000)" fill="#000000" fill-rule="nonzero">
            <path d="M22.9998956,0 C11.7204239,0.000469179946 2.10590223,8.20619911 0.299077857,19.3745239 C-1.50774651,30.5428487 5.02642435,41.3773525 15.7268887,44.9558377 C16.8767785,45.1577383 17.3079872,44.4656891 17.3079872,43.8600567 C17.3079872,43.3121892 17.279217,41.4954764 17.279217,39.5634644 C11.5009978,40.6303861 10.0061411,38.1505528 9.54618516,36.8529173 C9.03580825,35.5908656 8.22674528,34.472458 7.1889111,33.5943411 C6.38398825,33.161796 5.23409847,32.0948512 7.16014086,32.066061 C8.65271236,32.2285228 9.97246422,33.1110528 10.6960749,34.4305721 C11.3313462,35.5753322 12.3946869,36.4194146 13.6513665,36.7764896 C14.9080461,37.1335647 16.2547288,36.9742705 17.3941369,36.3337708 C17.4936968,35.160991 18.0147545,34.0644705 18.8602924,33.2483742 C13.7432829,32.6716473 8.39629538,30.6818473 8.39629538,21.8580182 C8.36397821,19.5652878 9.20739391,17.3470389 10.7535694,15.6582042 C10.0504849,13.6655423 10.1327507,11.4787423 10.9835474,9.54489918 C10.9835474,9.54489918 12.9095438,8.93931288 17.3079412,11.9094794 C21.0710431,10.8713094 25.0437372,10.8713094 28.806839,11.9094794 C33.2051215,8.9104996 35.1312329,9.54489918 35.1312329,9.54489918 C35.982145,11.4787155 36.0644125,13.6655602 35.3612108,15.6582042 C36.9120423,17.3441484 37.7561944,19.564334 37.7184849,21.8580182 C37.7184849,30.7107067 32.3427041,32.6716473 27.2257406,33.2483742 C28.336287,34.3774629 28.9028084,35.9349635 28.7780918,37.5161532 C28.7780918,40.6016882 28.7493216,43.0815215 28.7493216,43.8601489 C28.7493216,44.4657352 29.1805302,45.1866208 30.33042,44.95593 C41.0111617,41.3485442 47.5153422,30.5121007 45.6961446,19.3555019 C43.876947,8.19890308 34.2698179,0.00588375885 22.9998956,0 Z" id="Path"></path>
        </g>
        <text id="Initial-Settings" font-family="Helvetica-Bold, Helvetica" font-size="16" font-weight="bold" fill="#0055C2">
            <tspan x="38" y="57">Initial Settings</tspan>
        </text>
        <text id="Work-with-Branches" font-family="Helvetica-Bold, Helvetica" font-size="16" font-weight="bold" fill="#0055C2">
            <tspan x="414" y="57">Work with Branches</tspan>
        </text>
        <text id="Launch-Project" font-family="Helvetica-Bold, Helvetica" font-size="16" font-weight="bold" fill="#0055C2">
            <tspan x="38" y="117">Launch Project</tspan>
        </text>
        <text id="Remote-Collaboration" font-family="Helvetica-Bold, Helvetica" font-size="16" font-weight="bold" fill="#0055C2">
            <tspan x="414" y="316">Remote Collaboration</tspan>
        </text>
        <text id="Edit-&amp;-Commit" font-family="Helvetica-Bold, Helvetica" font-size="16" font-weight="bold" fill="#0055C2">
            <tspan x="38" y="249">Edit &amp; Commit</tspan>
        </text>
        <text id="$-git-config" font-family="Helvetica" font-size="16" font-weight="normal" fill="#0055C2">
            <tspan x="38" y="80">$ git config</tspan>
        </text>
        <text id="Pull-Request" font-family="Helvetica-Bold, Helvetica" font-size="16" font-weight="bold" fill="#199ABD">
            <tspan x="411" y="500">Pull Request</tspan>
        </text>
        <text id="Merge" font-family="Helvetica-Bold, Helvetica" font-size="16" font-weight="bold" fill="#199ABD">
            <tspan x="411" y="542">Merge</tspan>
        </text>
        <text id="$-git-add-[file-path" font-family="Helvetica" font-size="16" font-weight="normal" fill="#0055C2">
            <tspan x="38" y="270">$ git add [file path]</tspan>
        </text>
        <text id="$-git-commit" font-family="Helvetica" font-size="16" font-weight="normal" fill="#0055C2">
            <tspan x="38" y="345">$ git commit</tspan>
        </text>
        <text id="$-git-status" font-family="Helvetica" font-size="16" font-weight="normal" fill="#0055C2">
            <tspan x="38" y="311">$ git status</tspan>
        </text>
        <text id="$-git-log" font-family="Helvetica" font-size="16" font-weight="normal" fill="#0055C2">
            <tspan x="38" y="385">$ git log</tspan>
        </text>
        <text id="$-git-diff" font-family="Helvetica" font-size="16" font-weight="normal" fill="#0055C2">
            <tspan x="38" y="422">$ git diff</tspan>
        </text>
        <text id="$-git-rm-[file-path]" font-family="Helvetica" font-size="16" font-weight="normal" fill="#0055C2">
            <tspan x="38" y="499">$ git rm [file path]</tspan>
        </text>
        <text id="$-git-reset-[commit]" font-family="Helvetica" font-size="16" font-weight="normal" fill="#0055C2">
            <tspan x="38" y="537">$ git reset [commit]</tspan>
        </text>
        <text id="$-git-restore-[file" font-family="Helvetica" font-size="16" font-weight="normal" fill="#0055C2">
            <tspan x="38" y="459">$ git restore [file </tspan>
            <tspan x="38" y="478">path]</tspan>
        </text>
        <text id="$-git-init" font-family="Helvetica" font-size="16" font-weight="normal" fill="#0055C2">
            <tspan x="38" y="136">$ git init</tspan>
        </text>
        <text id="$-git-clone-[URL]" font-family="Helvetica" font-size="16" font-weight="normal" fill="#0055C2">
            <tspan x="38" y="173">$ git clone [URL]</tspan>
        </text>
        <text id="create-new-local-rep" font-family="Helvetica" font-size="14" font-weight="normal" fill="#0055C2">
            <tspan x="188" y="135">create new local repository under </tspan>
            <tspan x="188" y="152">the current directory </tspan>
        </text>
        <text id="register-username,-e" font-family="Helvetica" font-size="14" font-weight="normal" fill="#0055C2">
            <tspan x="188" y="79">register username, email, text </tspan>
            <tspan x="188" y="96">editor, etc.</tspan>
        </text>
        <text id="list-up-branches-in" font-family="Helvetica" font-size="14" font-weight="normal" fill="#0055C2">
            <tspan x="561" y="121">list up branches in the local </tspan>
            <tspan x="561" y="138">repository</tspan>
        </text>
        <text id="create-a-new-branch" font-family="Helvetica" font-size="14" font-weight="normal" fill="#0055C2">
            <tspan x="561" y="79">create a new branch</tspan>
        </text>
        <text id="switch-branches" font-family="Helvetica" font-size="14" font-weight="normal" fill="#0055C2">
            <tspan x="561" y="159">switch branches</tspan>
        </text>
        <text id="merge-branches" font-family="Helvetica" font-size="14" font-weight="normal" fill="#0055C2">
            <tspan x="561" y="197">merge branches</tspan>
        </text>
        <text id="move-diverged-point" font-family="Helvetica" font-size="14" font-weight="normal" fill="#0055C2">
            <tspan x="561" y="235">move diverged point to HEAD of </tspan>
            <tspan x="561" y="252">base branch</tspan>
        </text>
        <text id="temporaliry-store-wo" font-family="Helvetica" font-size="14" font-weight="normal" fill="#0055C2">
            <tspan x="561" y="271">temporaliry store working tree </tspan>
            <tspan x="561" y="288">and INDEX</tspan>
        </text>
        <text id="create-link-between" font-family="Helvetica" font-size="14" font-weight="normal" fill="#0055C2">
            <tspan x="561" y="336">create link between remote </tspan>
            <tspan x="561" y="353">repository and local repository</tspan>
        </text>
        <text id="upload-commit-histor" font-family="Helvetica" font-size="14" font-weight="normal" fill="#0055C2">
            <tspan x="561" y="379">upload commit histories to </tspan>
            <tspan x="561" y="396">remote repository from local</tspan>
        </text>
        <text id="get-remote-branch-da" font-family="Helvetica" font-size="14" font-weight="normal" fill="#0055C2">
            <tspan x="561" y="418">get remote branch data and </tspan>
            <tspan x="561" y="435">merge with local branch</tspan>
        </text>
        <text id="get-remote-branch-da" font-family="Helvetica" font-size="14" font-weight="normal" fill="#0055C2">
            <tspan x="561" y="457">get remote branch data</tspan>
        </text>
        <text id="create-a-request-to" font-family="Helvetica" font-size="14" font-weight="normal" fill="#199ABD">
            <tspan x="558" y="497">create a request to review and </tspan>
            <tspan x="558" y="514">merge</tspan>
        </text>
        <text id="merge-branches-on-Gi" font-family="Helvetica" font-size="14" font-weight="normal" fill="#199ABD">
            <tspan x="558" y="539">merge branches on GitHub</tspan>
        </text>
        <text id="bring-remote-branch" font-family="Helvetica" font-size="14" font-weight="normal" fill="#0055C2">
            <tspan x="188" y="171">bring remote branch to local </tspan>
            <tspan x="188" y="188">computer</tspan>
        </text>
        <text id="add-working-files-to" font-family="Helvetica" font-size="14" font-weight="normal" fill="#0055C2">
            <tspan x="188" y="269">add working files to staging area</tspan>
        </text>
        <text id="record-files-in-stag" font-family="Helvetica" font-size="14" font-weight="normal" fill="#0055C2">
            <tspan x="188" y="343">record files in staging area to the </tspan>
            <tspan x="188" y="360">local respository</tspan>
        </text>
        <text id="show-status-of-worki" font-family="Helvetica" font-size="14" font-weight="normal" fill="#0055C2">
            <tspan x="188" y="306">show status of working tree and </tspan>
            <tspan x="188" y="323">staging area </tspan>
        </text>
        <text id="show-commit-historie" font-family="Helvetica" font-size="14" font-weight="normal" fill="#0055C2">
            <tspan x="188" y="383">show commit histories of the </tspan>
            <tspan x="188" y="400">current branch</tspan>
        </text>
        <text id="show-differences-of" font-family="Helvetica" font-size="14" font-weight="normal" fill="#0055C2">
            <tspan x="188" y="421">show differences of working tree, </tspan>
            <tspan x="188" y="438">INDEX and commits</tspan>
        </text>
        <text id="remove-the-file-from" font-family="Helvetica" font-size="14" font-weight="normal" fill="#0055C2">
            <tspan x="188" y="498">remove the file from the working </tspan>
            <tspan x="188" y="515">tree and stage the status</tspan>
        </text>
        <text id="update-working-tree" font-family="Helvetica" font-size="14" font-weight="normal" fill="#0055C2">
            <tspan x="188" y="458">update working tree with the </tspan>
            <tspan x="188" y="475">latest commit</tspan>
        </text>
        <text id="reverse-commit-histo" font-family="Helvetica" font-size="14" font-weight="normal" fill="#0055C2">
            <tspan x="188" y="536">reverse commit histories</tspan>
        </text>
        <text id="$-git-branch-[branch" font-family="Helvetica" font-size="16" font-weight="normal" fill="#0055C2">
            <tspan x="411" y="80">$ git branch </tspan>
            <tspan x="411" y="99">[branch name]</tspan>
        </text>
        <text id="$-git-branch" font-family="Helvetica" font-size="16" font-weight="normal" fill="#0055C2">
            <tspan x="411" y="122">$ git branch</tspan>
        </text>
        <text id="$-git-checkout-/-$-g" font-family="Helvetica" font-size="16" font-weight="normal" fill="#0055C2">
            <tspan x="411" y="160">$ git checkout</tspan>
            <tspan x="411" y="179">/ $ git switch</tspan>
        </text>
        <text id="$-git-merge-[branch]" font-family="Helvetica" font-size="16" font-weight="normal" fill="#0055C2">
            <tspan x="411" y="198">$ git merge [branch]</tspan>
        </text>
        <text id="$-git-rebase-[branch" font-family="Helvetica" font-size="16" font-weight="normal" fill="#0055C2">
            <tspan x="411" y="236">$ git rebase [branch]</tspan>
        </text>
        <text id="$-git-stash" font-family="Helvetica" font-size="16" font-weight="normal" fill="#0055C2">
            <tspan x="411" y="272">$ git stash</tspan>
        </text>
        <text id="$-git-remote-add-ori" font-family="Helvetica" font-size="16" font-weight="normal" fill="#0055C2">
            <tspan x="411" y="337">$ git remote add </tspan>
            <tspan x="411" y="356">origin [URL]</tspan>
        </text>
        <text id="$-git-push-origin-[b" font-family="Helvetica" font-size="16" font-weight="normal" fill="#0055C2">
            <tspan x="411" y="380">$ git push origin </tspan>
            <tspan x="411" y="399">[branch name]</tspan>
        </text>
        <text id="$-git-fetch-origin" font-family="Helvetica" font-size="16" font-weight="normal" fill="#0055C2">
            <tspan x="411" y="458">$ git fetch origin</tspan>
        </text>
        <text id="$-git-pull-origin-[b" font-family="Helvetica" font-size="16" font-weight="normal" fill="#0055C2">
            <tspan x="411" y="419">$ git pull origin </tspan>
            <tspan x="411" y="438">[branch name]</tspan>
        </text>
        <line x1="34.5" y1="157.5" x2="392.5" y2="157.5" id="Line-32" stroke="#0055C2" stroke-width="0.5" stroke-linecap="square" stroke-dasharray="2"></line>
        <line x1="34.5" y1="193.5" x2="392.5" y2="193.5" id="Line-32-Copy-18" stroke="#0055C2" stroke-width="0.5" stroke-linecap="square" stroke-dasharray="2"></line>
        <line x1="410.5" y1="145.5" x2="768.5" y2="145.5" id="Line-32-Copy-8" stroke="#0055C2" stroke-width="0.5" stroke-linecap="square" stroke-dasharray="2"></line>
        <line x1="410.5" y1="108.5" x2="768.5" y2="108.5" id="Line-32-Copy-17" stroke="#0055C2" stroke-width="0.5" stroke-linecap="square" stroke-dasharray="2"></line>
        <line x1="410.5" y1="182.5" x2="768.5" y2="182.5" id="Line-32-Copy-9" stroke="#0055C2" stroke-width="0.5" stroke-linecap="square" stroke-dasharray="2"></line>
        <line x1="410.5" y1="220.5" x2="768.5" y2="220.5" id="Line-32-Copy-10" stroke="#0055C2" stroke-width="0.5" stroke-linecap="square" stroke-dasharray="2"></line>
        <line x1="410.5" y1="259.5" x2="768.5" y2="259.5" id="Line-32-Copy-11" stroke="#0055C2" stroke-width="0.5" stroke-linecap="square" stroke-dasharray="2"></line>
        <line x1="410.5" y1="363.5" x2="768.5" y2="363.5" id="Line-32-Copy-12" stroke="#0055C2" stroke-width="0.5" stroke-linecap="square" stroke-dasharray="2"></line>
        <line x1="410.5" y1="403.5" x2="768.5" y2="403.5" id="Line-32-Copy-13" stroke="#0055C2" stroke-width="0.5" stroke-linecap="square" stroke-dasharray="2"></line>
        <line x1="410.5" y1="440.5" x2="768.5" y2="440.5" id="Line-32-Copy-14" stroke="#0055C2" stroke-width="0.5" stroke-linecap="square" stroke-dasharray="2"></line>
        <line x1="410.5" y1="527.5" x2="768.5" y2="527.5" id="Line-32-Copy-16" stroke="#199ABD" stroke-width="0.5" stroke-linecap="square" stroke-dasharray="2"></line>
        <line x1="413.5" y1="480.5" x2="771.5" y2="480.5" id="Line-32-Copy-15" stroke="#0055C2" stroke-width="0.5" stroke-linecap="square" stroke-dasharray="2"></line>
        <line x1="34.5" y1="293.5" x2="392.5" y2="293.5" id="Line-32-Copy" stroke="#0055C2" stroke-width="0.5" stroke-linecap="square" stroke-dasharray="2"></line>
        <line x1="34.5" y1="329.5" x2="392.5" y2="329.5" id="Line-32-Copy-2" stroke="#0055C2" stroke-width="0.5" stroke-linecap="square" stroke-dasharray="2"></line>
        <line x1="34.5" y1="367.5" x2="392.5" y2="367.5" id="Line-32-Copy-3" stroke="#0055C2" stroke-width="0.5" stroke-linecap="square" stroke-dasharray="2"></line>
        <line x1="34.5" y1="444.5" x2="392.5" y2="444.5" id="Line-32-Copy-5" stroke="#0055C2" stroke-width="0.5" stroke-linecap="square" stroke-dasharray="2"></line>
        <line x1="34.5" y1="406.5" x2="392.5" y2="406.5" id="Line-32-Copy-4" stroke="#0055C2" stroke-width="0.5" stroke-linecap="square" stroke-dasharray="2"></line>
        <line x1="34.5" y1="483.5" x2="392.5" y2="483.5" id="Line-32-Copy-6" stroke="#0055C2" stroke-width="0.5" stroke-linecap="square" stroke-dasharray="2"></line>
        <line x1="34.5" y1="521.5" x2="392.5" y2="521.5" id="Line-32-Copy-7" stroke="#0055C2" stroke-width="0.5" stroke-linecap="square" stroke-dasharray="2"></line>
        <path d="M28,192.581081 L395,192.581081 L395,224 C395,226.761424 392.761424,229 390,229 L33,229 C30.2385763,229 28,226.761424 28,224 L28,192.581081 L28,192.581081 Z" id="Rectangle-Copy-6" fill-opacity="0.5" fill="#A1E0E9"></path>
        <text id="Fork" font-family="Helvetica-Bold, Helvetica" font-size="16" font-weight="bold" fill="#199ABD">
            <tspan x="38" y="209">Fork</tspan>
        </text>
        <text id="create-a-replica-of" font-family="Helvetica" font-size="14" font-weight="normal" fill="#199ABD">
            <tspan x="188" y="208">create a replica of an existing </tspan>
            <tspan x="188" y="225">repository on GitHub</tspan>
        </text>
    </g>
</svg>