<svg width="800" height="600" viewBox="0 0 800 600" fill="none" xmlns="http://www.w3.org/2000/svg">
<g clip-path="url(#clip0_5189_12379)">
<rect width="800" height="600" fill="url(#paint0_linear_5189_12379)"/>
<path d="M352.078 183.516C334.044 183.516 321.382 177.201 314.09 164.57C306.863 151.94 303.25 133.939 303.25 110.566C303.25 87.194 306.863 69.1602 314.09 56.4648C321.382 43.7695 334.044 37.4219 352.078 37.4219C370.112 37.4219 382.775 43.7695 390.066 56.4648C397.293 69.1602 400.906 87.194 400.906 110.566C400.906 133.939 397.26 151.94 389.969 164.57C382.742 177.201 370.112 183.516 352.078 183.516ZM368.387 147.871C370.926 139.277 372.195 126.842 372.195 110.566C372.195 93.5091 370.893 80.8789 368.289 72.6758C365.75 64.4727 360.346 60.3711 352.078 60.3711C343.81 60.3711 338.341 64.4727 335.672 72.6758C333.003 80.8789 331.668 93.5091 331.668 110.566C331.668 126.842 333.003 139.31 335.672 147.969C338.341 156.562 343.81 160.859 352.078 160.859C360.346 160.859 365.783 156.53 368.387 147.871ZM477.859 67.207C474.539 63.2357 469.786 61.25 463.602 61.25C455.138 61.25 449.376 64.4076 446.316 70.7227C444.559 74.3685 443.517 80.1628 443.191 88.1055H416.141C416.596 76.0612 418.777 66.3281 422.684 58.9062C430.105 44.7786 443.289 37.7148 462.234 37.7148C477.208 37.7148 489.122 41.8815 497.977 50.2148C506.831 58.4831 511.258 69.4531 511.258 83.125C511.258 93.6068 508.133 102.917 501.883 111.055C497.781 116.458 491.043 122.48 481.668 129.121L470.535 137.031C463.569 141.979 458.784 145.56 456.18 147.773C453.641 149.987 451.492 152.559 449.734 155.488H511.551V180H414.578C414.839 169.844 417.02 160.566 421.121 152.168C425.092 142.728 434.467 132.734 449.246 122.188C462.072 113.008 470.372 106.432 474.148 102.461C479.943 96.276 482.84 89.5052 482.84 82.1484C482.84 76.1589 481.18 71.1784 477.859 67.207Z" fill="white" fill-opacity="0.5"/>
<path d="M338.406 379.594C335.229 381.547 331.323 382.523 326.688 382.523C319.057 382.523 312.807 379.88 307.938 374.594C302.859 369.281 300.32 362.016 300.32 352.797C300.32 343.474 302.885 336 308.016 330.375C313.146 324.75 319.93 321.938 328.367 321.938C335.685 321.938 341.557 323.799 345.984 327.523C350.438 331.221 352.99 335.844 353.641 341.391H341.805C340.893 337.458 338.667 334.711 335.125 333.148C333.146 332.289 330.945 331.859 328.523 331.859C323.888 331.859 320.073 333.617 317.078 337.133C314.109 340.622 312.625 345.883 312.625 352.914C312.625 359.997 314.24 365.01 317.469 367.953C320.698 370.896 324.37 372.367 328.484 372.367C332.521 372.367 335.828 371.208 338.406 368.891C340.984 366.547 342.573 363.487 343.172 359.711H329.852V350.102H353.836V381H345.867L344.656 373.812C342.339 376.547 340.255 378.474 338.406 379.594ZM375.906 338.422V381H364.617V338.422H375.906ZM375.906 323.07V333.344H364.617V323.07H375.906ZM406.219 373.07V381.391L400.945 381.586C395.685 381.768 392.091 380.857 390.164 378.852C388.914 377.576 388.289 375.609 388.289 372.953V346.742H382.352V338.812H388.289V326.938H399.305V338.812H406.219V346.742H399.305V369.242C399.305 370.987 399.526 372.081 399.969 372.523C400.411 372.94 401.766 373.148 404.031 373.148C404.37 373.148 404.721 373.148 405.086 373.148C405.477 373.122 405.854 373.096 406.219 373.07ZM453.367 382.406C447.534 382.406 442.977 380.688 439.695 377.25C436.414 373.812 434.773 369.997 434.773 365.805C434.773 362.341 435.633 359.372 437.352 356.898C439.07 354.424 441.883 351.977 445.789 349.555L447 348.812C445.333 346.938 444.044 345.023 443.133 343.07C442.221 341.117 441.766 339.086 441.766 336.977C441.766 332.784 443.172 329.516 445.984 327.172C448.797 324.802 452.443 323.617 456.922 323.617C461.01 323.617 464.383 324.828 467.039 327.25C469.721 329.646 471.062 332.719 471.062 336.469C471.062 339.854 470.255 342.602 468.641 344.711C467.052 346.82 464.708 348.773 461.609 350.57L469.773 360.648C470.711 359.294 471.427 357.823 471.922 356.234C472.443 354.646 472.716 352.966 472.742 351.195H482.625C482.469 354.685 481.635 358.214 480.125 361.781C479.292 363.786 477.938 366 476.062 368.422L486.531 381H473.016L469.031 376.117C467.104 377.914 465.307 379.242 463.641 380.102C460.672 381.638 457.247 382.406 453.367 382.406ZM452.742 355.922C449.956 357.771 448.107 359.398 447.195 360.805C446.31 362.211 445.867 363.76 445.867 365.453C445.867 367.354 446.635 369.099 448.172 370.688C449.734 372.276 451.727 373.07 454.148 373.07C455.971 373.07 457.69 372.654 459.305 371.82C460.945 370.961 462.273 370.01 463.289 368.969L452.742 355.922ZM452 336.586C452 337.628 452.365 338.721 453.094 339.867C453.562 340.622 454.578 341.964 456.141 343.891C457.703 342.797 458.823 341.872 459.5 341.117C460.802 339.711 461.453 338.188 461.453 336.547C461.453 335.349 461.062 334.281 460.281 333.344C459.5 332.406 458.315 331.938 456.727 331.938C455.737 331.938 454.812 332.211 453.953 332.758C452.651 333.565 452 334.841 452 336.586ZM551.922 379.594C548.745 381.547 544.839 382.523 540.203 382.523C532.573 382.523 526.323 379.88 521.453 374.594C516.375 369.281 513.836 362.016 513.836 352.797C513.836 343.474 516.401 336 521.531 330.375C526.661 324.75 533.445 321.938 541.883 321.938C549.201 321.938 555.073 323.799 559.5 327.523C563.953 331.221 566.505 335.844 567.156 341.391H555.32C554.409 337.458 552.182 334.711 548.641 333.148C546.661 332.289 544.461 331.859 542.039 331.859C537.404 331.859 533.589 333.617 530.594 337.133C527.625 340.622 526.141 345.883 526.141 352.914C526.141 359.997 527.755 365.01 530.984 367.953C534.214 370.896 537.885 372.367 542 372.367C546.036 372.367 549.344 371.208 551.922 368.891C554.5 366.547 556.089 363.487 556.688 359.711H543.367V350.102H567.352V381H559.383L558.172 373.812C555.854 376.547 553.771 378.474 551.922 379.594ZM589.422 338.422V381H578.133V338.422H589.422ZM589.422 323.07V333.344H578.133V323.07H589.422ZM619.734 373.07V381.391L614.461 381.586C609.201 381.768 605.607 380.857 603.68 378.852C602.43 377.576 601.805 375.609 601.805 372.953V346.742H595.867V338.812H601.805V326.938H612.82V338.812H619.734V346.742H612.82V369.242C612.82 370.987 613.042 372.081 613.484 372.523C613.927 372.94 615.281 373.148 617.547 373.148C617.885 373.148 618.237 373.148 618.602 373.148C618.992 373.122 619.37 373.096 619.734 373.07ZM662.117 381V355.297H639.617V381H627.703V323.422H639.617V345.375H662.117V323.422H674.07V381H662.117ZM712 374.984C711.896 375.115 711.635 375.505 711.219 376.156C710.802 376.807 710.307 377.38 709.734 377.875C707.99 379.438 706.297 380.505 704.656 381.078C703.042 381.651 701.141 381.938 698.953 381.938C692.651 381.938 688.406 379.672 686.219 375.141C684.995 372.641 684.383 368.956 684.383 364.086V338.422H695.789V364.086C695.789 366.508 696.076 368.331 696.648 369.555C697.664 371.716 699.656 372.797 702.625 372.797C706.427 372.797 709.031 371.26 710.438 368.188C711.167 366.521 711.531 364.32 711.531 361.586V338.422H722.82V381H712V374.984ZM756.727 382.133C753.211 382.133 750.385 381.43 748.25 380.023C746.974 379.19 745.594 377.732 744.109 375.648V381H733.211V323.5H744.305V343.969C745.711 341.99 747.26 340.479 748.953 339.438C750.958 338.135 753.51 337.484 756.609 337.484C762.208 337.484 766.583 339.503 769.734 343.539C772.911 347.576 774.5 352.784 774.5 359.164C774.5 365.779 772.938 371.26 769.812 375.609C766.688 379.958 762.326 382.133 756.727 382.133ZM762.82 360.336C762.82 357.315 762.43 354.815 761.648 352.836C760.164 349.086 757.43 347.211 753.445 347.211C749.409 347.211 746.635 349.047 745.125 352.719C744.344 354.672 743.953 357.198 743.953 360.297C743.953 363.943 744.76 366.964 746.375 369.359C747.99 371.755 750.451 372.953 753.758 372.953C756.622 372.953 758.849 371.794 760.438 369.477C762.026 367.159 762.82 364.112 762.82 360.336ZM303.094 415.422H315.125V462.648H343.641V473H303.094V415.422ZM362.547 430.422V473H351.258V430.422H362.547ZM362.547 415.07V425.344H351.258V415.07H362.547ZM393.328 415.07V424.133C392.703 424.055 391.648 424.003 390.164 423.977C388.706 423.924 387.69 424.25 387.117 424.953C386.57 425.63 386.297 426.385 386.297 427.219V430.812H393.602V438.664H386.297V473H375.203V438.664H368.992V430.812H375.086V428.078C375.086 423.521 375.854 420.383 377.391 418.664C379.005 416.112 382.898 414.836 389.07 414.836C389.773 414.836 390.411 414.862 390.984 414.914C391.557 414.94 392.339 414.992 393.328 415.07ZM436.453 460.5C436.167 463.026 434.852 465.591 432.508 468.195C428.862 472.336 423.758 474.406 417.195 474.406C411.779 474.406 407 472.661 402.859 469.172C398.719 465.682 396.648 460.005 396.648 452.141C396.648 444.771 398.51 439.12 402.234 435.188C405.984 431.255 410.841 429.289 416.805 429.289C420.346 429.289 423.536 429.953 426.375 431.281C429.214 432.609 431.557 434.706 433.406 437.57C435.073 440.096 436.154 443.026 436.648 446.359C436.935 448.312 437.052 451.125 437 454.797H407.859C408.016 459.068 409.357 462.062 411.883 463.781C413.419 464.849 415.268 465.383 417.43 465.383C419.721 465.383 421.583 464.732 423.016 463.43C423.797 462.727 424.487 461.75 425.086 460.5H436.453ZM425.438 447.453C425.255 444.51 424.357 442.284 422.742 440.773C421.154 439.237 419.174 438.469 416.805 438.469C414.227 438.469 412.221 439.276 410.789 440.891C409.383 442.505 408.497 444.693 408.133 447.453H425.438ZM508.328 468.703C504.031 472.635 498.536 474.602 491.844 474.602C483.562 474.602 477.052 471.945 472.312 466.633C467.573 461.294 465.203 453.977 465.203 444.68C465.203 434.628 467.898 426.88 473.289 421.438C477.977 416.698 483.94 414.328 491.18 414.328C500.867 414.328 507.951 417.505 512.43 423.859C514.904 427.427 516.232 431.008 516.414 434.602H504.383C503.602 431.841 502.599 429.758 501.375 428.352C499.188 425.852 495.945 424.602 491.648 424.602C487.273 424.602 483.823 426.372 481.297 429.914C478.771 433.43 477.508 438.417 477.508 444.875C477.508 451.333 478.836 456.177 481.492 459.406C484.174 462.609 487.573 464.211 491.688 464.211C495.906 464.211 499.122 462.831 501.336 460.07C502.56 458.586 503.576 456.359 504.383 453.391H516.297C515.255 459.667 512.599 464.771 508.328 468.703ZM541.922 461.828L550.711 430.422H562.547L547.938 472.297C545.125 480.37 542.898 485.37 541.258 487.297C539.617 489.25 536.336 490.227 531.414 490.227C530.424 490.227 529.63 490.214 529.031 490.188C528.432 490.188 527.534 490.148 526.336 490.07V481.164L527.742 481.242C528.836 481.294 529.878 481.255 530.867 481.125C531.857 480.995 532.69 480.695 533.367 480.227C534.018 479.784 534.617 478.859 535.164 477.453C535.737 476.047 535.971 475.188 535.867 474.875L520.242 430.422H532.625L541.922 461.828ZM605.984 445.695H594.578C594.37 444.107 593.836 442.674 592.977 441.398C591.727 439.68 589.786 438.82 587.156 438.82C583.406 438.82 580.841 440.682 579.461 444.406C578.732 446.385 578.367 449.016 578.367 452.297C578.367 455.422 578.732 457.935 579.461 459.836C580.789 463.378 583.289 465.148 586.961 465.148C589.565 465.148 591.414 464.445 592.508 463.039C593.602 461.633 594.266 459.81 594.5 457.57H605.867C605.607 460.956 604.383 464.159 602.195 467.18C598.706 472.049 593.536 474.484 586.688 474.484C579.839 474.484 574.799 472.453 571.57 468.391C568.341 464.328 566.727 459.055 566.727 452.57C566.727 445.253 568.51 439.562 572.078 435.5C575.646 431.438 580.568 429.406 586.844 429.406C592.182 429.406 596.544 430.604 599.93 433C603.341 435.396 605.359 439.628 605.984 445.695ZM613.914 415.422H625.047V473H613.914V415.422ZM672.391 460.5C672.104 463.026 670.789 465.591 668.445 468.195C664.799 472.336 659.695 474.406 653.133 474.406C647.716 474.406 642.938 472.661 638.797 469.172C634.656 465.682 632.586 460.005 632.586 452.141C632.586 444.771 634.448 439.12 638.172 435.188C641.922 431.255 646.779 429.289 652.742 429.289C656.284 429.289 659.474 429.953 662.312 431.281C665.151 432.609 667.495 434.706 669.344 437.57C671.01 440.096 672.091 443.026 672.586 446.359C672.872 448.312 672.99 451.125 672.938 454.797H643.797C643.953 459.068 645.294 462.062 647.82 463.781C649.357 464.849 651.206 465.383 653.367 465.383C655.659 465.383 657.521 464.732 658.953 463.43C659.734 462.727 660.424 461.75 661.023 460.5H672.391ZM661.375 447.453C661.193 444.51 660.294 442.284 658.68 440.773C657.091 439.237 655.112 438.469 652.742 438.469C650.164 438.469 648.159 439.276 646.727 440.891C645.32 442.505 644.435 444.693 644.07 447.453H661.375Z" fill="white" fill-opacity="0.8"/>
<circle cx="73" cy="300" r="173" fill="white"/>
<circle cx="132.5" cy="111.5" r="19.5" fill="white"/>
<circle cx="172" cy="76" r="10" fill="white"/>
<circle cx="212.5" cy="60.5" r="7.5" fill="white"/>
<circle cx="246.5" cy="56.5" r="5.5" fill="white"/>
<circle cx="270.5" cy="62.5" r="4.5" fill="white"/>
<circle cx="288.5" cy="76.5" r="3.5" fill="white"/>
<path d="M40.6328 385.367C39.2031 386.246 37.4453 386.686 35.3594 386.686C31.9258 386.686 29.1133 385.496 26.9219 383.117C24.6367 380.727 23.4941 377.457 23.4941 373.309C23.4941 369.113 24.6484 365.75 26.957 363.219C29.2656 360.688 32.3184 359.422 36.1152 359.422C39.4082 359.422 42.0508 360.26 44.043 361.936C46.0469 363.6 47.1953 365.68 47.4883 368.176H42.1621C41.752 366.406 40.75 365.17 39.1562 364.467C38.2656 364.08 37.2754 363.887 36.1855 363.887C34.0996 363.887 32.3828 364.678 31.0352 366.26C29.6992 367.83 29.0312 370.197 29.0312 373.361C29.0312 376.549 29.7578 378.805 31.2109 380.129C32.6641 381.453 34.3164 382.115 36.168 382.115C37.9844 382.115 39.4727 381.594 40.6328 380.551C41.793 379.496 42.5078 378.119 42.7773 376.42H36.7832V372.096H47.5762V386H43.9902L43.4453 382.766C42.4023 383.996 41.4648 384.863 40.6328 385.367ZM57.5078 366.84V386H52.4277V366.84H57.5078ZM57.5078 359.932V364.555H52.4277V359.932H57.5078ZM71.1484 382.432V386.176L68.7754 386.264C66.4082 386.346 64.791 385.936 63.9238 385.033C63.3613 384.459 63.0801 383.574 63.0801 382.379V370.584H60.4082V367.016H63.0801V361.672H68.0371V367.016H71.1484V370.584H68.0371V380.709C68.0371 381.494 68.1367 381.986 68.3359 382.186C68.5352 382.373 69.1445 382.467 70.1641 382.467C70.3164 382.467 70.4746 382.467 70.6387 382.467C70.8145 382.455 70.9844 382.443 71.1484 382.432ZM90.2207 386V374.434H80.0957V386H74.7344V360.09H80.0957V369.969H90.2207V360.09H95.5996V386H90.2207ZM112.668 383.293C112.621 383.352 112.504 383.527 112.316 383.82C112.129 384.113 111.906 384.371 111.648 384.594C110.863 385.297 110.102 385.777 109.363 386.035C108.637 386.293 107.781 386.422 106.797 386.422C103.961 386.422 102.051 385.402 101.066 383.363C100.516 382.238 100.24 380.58 100.24 378.389V366.84H105.373V378.389C105.373 379.479 105.502 380.299 105.76 380.85C106.217 381.822 107.113 382.309 108.449 382.309C110.16 382.309 111.332 381.617 111.965 380.234C112.293 379.484 112.457 378.494 112.457 377.264V366.84H117.537V386H112.668V383.293ZM132.795 386.51C131.213 386.51 129.941 386.193 128.98 385.561C128.406 385.186 127.785 384.529 127.117 383.592V386H122.213V360.125H127.205V369.336C127.838 368.445 128.535 367.766 129.297 367.297C130.199 366.711 131.348 366.418 132.742 366.418C135.262 366.418 137.23 367.326 138.648 369.143C140.078 370.959 140.793 373.303 140.793 376.174C140.793 379.15 140.09 381.617 138.684 383.574C137.277 385.531 135.314 386.51 132.795 386.51ZM135.537 376.701C135.537 375.342 135.361 374.217 135.01 373.326C134.342 371.639 133.111 370.795 131.318 370.795C129.502 370.795 128.254 371.621 127.574 373.273C127.223 374.152 127.047 375.289 127.047 376.684C127.047 378.324 127.41 379.684 128.137 380.762C128.863 381.84 129.971 382.379 131.459 382.379C132.748 382.379 133.75 381.857 134.465 380.814C135.18 379.771 135.537 378.4 135.537 376.701Z" fill="#363636"/>
<path fill-rule="evenodd" clip-rule="evenodd" d="M97.5328 219.551C97.5328 221.853 98.843 223.186 101.107 223.186C103.41 223.186 104.72 221.853 104.719 219.551C104.719 217.252 103.41 216 101.107 216C98.843 216 97.5328 217.253 97.5328 219.551ZM90.4686 230.52C91.1828 231.449 91.9384 232.741 91.9384 234.598C91.9384 239.078 88.4841 241.702 83.4826 241.702C82.2107 241.702 81.0592 241.542 80.3451 241.34L79.0349 243.479L82.9248 243.72L83.1521 243.735C89.8828 244.171 93.8423 244.427 93.8423 249.734C93.8423 254.378 89.8334 257 82.9248 257C75.7385 257 73 255.143 73 251.955C73 250.138 73.7948 249.171 75.184 247.837C73.873 247.274 73.4373 246.265 73.4373 245.175C73.4373 244.286 73.8737 243.479 74.5887 242.712C75.3037 241.946 76.0976 241.177 77.0496 240.29C75.1042 239.321 73.636 237.222 73.636 234.234C73.636 229.592 76.653 226.405 82.7269 226.405C84.4345 226.405 85.4679 226.564 86.3799 226.809H94.1224V230.239L90.4686 230.52ZM79.2742 234.114C79.2742 231.489 80.9004 230.399 83.0844 230.399C85.3474 230.399 86.6983 231.651 86.6983 234.032C86.6983 236.132 85.1886 237.464 82.9671 237.464C80.3459 237.464 79.2742 236.091 79.2742 234.114ZM77.6863 251.069C77.6863 250.26 78.2018 249.575 78.7189 248.93L84.5135 249.332L84.5862 249.337C86.4581 249.456 87.9295 249.55 87.9295 250.827C87.9295 253.004 84.7928 253.168 82.4908 253.168C79.7099 253.168 77.6863 252.683 77.6863 251.069ZM95.984 247.445V244.257L98.01 243.975C98.5653 243.894 98.6443 243.773 98.6443 243.166V231.299C98.6443 230.856 98.5262 230.572 98.1281 230.451L95.984 229.684L96.4205 226.416H104.64V243.167C104.64 243.814 104.678 243.894 105.275 243.976L107.3 244.258V247.446H95.984V247.445ZM116.527 247.494C118.792 247.494 121.292 246.725 123 245.879L121.928 242.327C120.976 242.69 119.826 242.972 118.713 242.972C116.569 242.972 116.013 242.044 116.013 239.663V230.016H121.928V225.979H116.331C116.013 225.979 116.013 225.857 116.013 225.575V219.842H112.241C111.804 224.242 110.416 226.018 106.921 226.422V230.015H109.699C110.017 230.015 110.017 230.177 110.017 230.418V240.994C110.017 245.558 111.803 247.494 116.527 247.494Z" fill="#31251C"/>
<path d="M63.2074 235.129L44.8697 216.792C43.8146 215.736 42.1016 215.736 41.0456 216.792L37.2377 220.6L42.067 225.43C43.1906 225.051 44.4772 225.305 45.3719 226.201C46.2715 227.101 46.5238 228.399 46.1353 229.526L50.7904 234.181C51.9157 233.793 53.216 234.044 54.1155 234.944C55.373 236.201 55.373 238.238 54.1155 239.496C52.8572 240.753 50.8211 240.753 49.5636 239.496C48.618 238.549 48.3843 237.16 48.8631 235.996L44.5215 231.654L44.5207 243.08C44.8278 243.231 45.1164 243.433 45.3719 243.687C46.6294 244.944 46.6294 246.98 45.3719 248.239C44.1144 249.496 42.0766 249.496 40.8207 248.239C39.5632 246.98 39.5632 244.944 40.8207 243.687C41.1319 243.377 41.4906 243.142 41.8743 242.985V231.454C41.4906 231.298 41.1319 231.064 40.8207 230.752C39.8679 229.8 39.639 228.403 40.1275 227.233L35.3668 222.471L22.7926 235.044C21.7358 236.101 21.7358 237.814 22.7926 238.871L41.1303 257.208C42.1863 258.264 43.8984 258.264 44.956 257.208L63.2074 238.955C64.2642 237.899 64.2642 236.185 63.2074 235.129V235.129Z" fill="#F34F29"/>
<path d="M84.4999 291C70.5231 291.001 58.6095 301.212 56.3706 315.111C54.1317 329.009 62.2284 342.492 75.4877 346.945C76.9125 347.196 77.4469 346.335 77.4469 345.581C77.4469 344.9 77.4112 342.639 77.4112 340.235C70.2512 341.562 68.3989 338.476 67.829 336.861C67.1965 335.291 66.194 333.899 64.908 332.806C63.9106 332.268 62.4857 330.94 64.8723 330.904C66.7218 331.107 68.3572 332.205 69.2538 333.847C70.041 335.272 71.3586 336.322 72.9158 336.766C74.473 337.211 76.1417 337.012 77.5536 336.215C77.677 334.756 78.3226 333.391 79.3704 332.376C73.0297 331.658 66.4041 329.182 66.4041 318.201C66.3641 315.348 67.4092 312.587 69.3251 310.486C68.4539 308.006 68.5558 305.285 69.61 302.878C69.61 302.878 71.9966 302.124 77.4468 305.821C82.1098 304.529 87.0325 304.529 91.6954 305.821C97.1455 302.089 99.5322 302.878 99.5322 302.878C100.587 305.285 100.689 308.006 99.8172 310.486C101.739 312.584 102.785 315.347 102.738 318.201C102.738 329.218 96.0768 331.658 89.7362 332.376C91.1124 333.781 91.8143 335.719 91.6598 337.687C91.6598 341.527 91.6242 344.613 91.6242 345.582C91.6242 346.335 92.1585 347.232 93.5833 346.945C106.818 342.456 114.878 328.971 112.623 315.087C110.369 301.203 98.4648 291.007 84.4999 291Z" fill="black"/>
<path d="M741.435 592.713C741.435 593.599 742.138 594.276 742.998 594.276C743.883 594.276 744.587 593.599 744.587 592.713V576.563C744.587 575.703 743.883 575 742.998 575C742.112 575 741.435 575.703 741.435 576.563V592.713Z" fill="white"/>
<path d="M748.654 576.849C748.654 577.787 749.435 578.412 750.451 578.412C751.467 578.412 752.248 577.787 752.248 576.849V576.693C752.248 575.755 751.467 575.156 750.451 575.156C749.435 575.156 748.654 575.755 748.654 576.693V576.849ZM748.888 592.713C748.888 593.599 749.591 594.276 750.451 594.276C751.337 594.276 752.04 593.599 752.04 592.713V581.825C752.04 580.939 751.337 580.236 750.451 580.236C749.565 580.236 748.888 580.939 748.888 581.825V592.713Z" fill="white"/>
<path d="M756.159 592.713C756.159 593.573 756.863 594.276 757.722 594.276C758.608 594.276 759.311 593.573 759.311 592.713V592.01C760.275 593.287 761.708 594.433 764 594.433C767.256 594.433 770.382 591.854 770.382 587.295V587.243C770.382 582.658 767.23 580.106 764 580.106C761.76 580.106 760.327 581.252 759.311 582.685V576.563C759.311 575.677 758.608 575 757.722 575C756.837 575 756.159 575.677 756.159 576.563V592.713ZM763.245 591.698C761.109 591.698 759.233 589.926 759.233 587.295V587.243C759.233 584.612 761.109 582.841 763.245 582.841C765.381 582.841 767.178 584.586 767.178 587.243V587.295C767.178 590.004 765.407 591.698 763.245 591.698Z" fill="white"/>
<path d="M773.818 592.713C773.818 593.599 774.521 594.276 775.381 594.276C776.267 594.276 776.97 593.599 776.97 592.713V576.563C776.97 575.703 776.267 575 775.381 575C774.495 575 773.818 575.703 773.818 576.563V592.713Z" fill="white"/>
<path d="M787.628 594.459C791.874 594.459 795 591.203 795 587.295V587.243C795 583.31 791.9 580.106 787.68 580.106C783.46 580.106 780.334 583.362 780.334 587.295V587.347C780.334 591.255 783.434 594.459 787.628 594.459ZM787.68 591.698C785.231 591.698 783.486 589.692 783.486 587.295V587.243C783.486 584.847 785.101 582.867 787.628 582.867C790.102 582.867 791.848 584.873 791.848 587.295V587.347C791.848 589.718 790.233 591.698 787.68 591.698Z" fill="white"/>
<path d="M736.96 590.09C735.74 590.65 734.453 591.047 733.208 591.294C728.074 592.315 725.36 589.099 729.634 586.781C730.099 586.529 730.632 586.291 731.228 586.075L732.011 585.826C732.241 585.763 732.463 585.662 732.534 585.515C732.905 584.723 729.731 584.467 727.622 585.589C728.458 585.431 729.186 585.408 729.668 585.609C724.878 586.845 723.788 590.757 726.335 592.642C727.649 593.615 729.127 593.873 731.832 593.682C733.637 593.555 735.48 592.837 736.96 591.969V590.09Z" fill="white"/>
<path d="M734.542 592.784C734.542 593.607 735.171 594.165 736.03 594.165C736.89 594.165 737.478 593.644 737.478 592.784V586.011C737.478 584.214 737.009 582.755 735.993 581.765C735.029 580.776 733.492 580.229 731.434 580.229C729.637 580.229 728.308 580.541 727.006 581.036C726.537 581.218 726.146 581.713 726.146 582.286C726.146 583.016 726.745 583.589 727.475 583.589C727.631 583.589 727.787 583.563 727.97 583.511C728.829 583.172 729.819 582.964 731.018 582.964C733.232 582.964 734.43 584.006 734.43 585.959V585.968L734.542 592.784Z" fill="white"/>
<path d="M733.611 578.379C733.611 578.591 733.273 578.721 732.805 578.721C732.077 578.721 731.583 578.64 730.984 578.282L729.216 577.24C728.956 577.093 728.774 576.93 728.774 576.751C728.774 576.442 729.814 576.116 730.646 576.116C731.192 576.116 731.609 576.296 731.895 576.589L733.377 578.021C733.481 578.119 733.611 578.266 733.611 578.379Z" fill="white"/>
</g>
<defs>
<linearGradient id="paint0_linear_5189_12379" x1="800" y1="-1.86968e-05" x2="1.22566" y2="601.627" gradientUnits="userSpaceOnUse">
<stop stop-color="#0087B1"/>
<stop offset="1" stop-color="#001B23"/>
</linearGradient>
<clipPath id="clip0_5189_12379">
<rect width="800" height="600" fill="white"/>
</clipPath>
</defs>
</svg>
