<?xml version="1.0" encoding="UTF-8"?>
<svg width="800px" height="600px" viewBox="0 0 800 600" version="1.1" xmlns="http://www.w3.org/2000/svg" xmlns:xlink="http://www.w3.org/1999/xlink">
    <title>2041-10-14-14-10_.gitignoreFile</title>
    <defs>
        <linearGradient x1="100%" y1="48.4225687%" x2="0%" y2="48.4225687%" id="linearGradient-1">
            <stop stop-color="#FFFFFF" offset="0%"></stop>
            <stop stop-color="#C1F7FF" offset="100%"></stop>
        </linearGradient>
        <rect id="path-2" x="200" y="42" width="575" height="247"></rect>
        <filter x="-1.2%" y="-2.0%" width="102.4%" height="105.7%" filterUnits="objectBoundingBox" id="filter-3">
            <feOffset dx="0" dy="2" in="SourceAlpha" result="shadowOffsetOuter1"></feOffset>
            <feGaussianBlur stdDeviation="2" in="shadowOffsetOuter1" result="shadowBlurOuter1"></feGaussianBlur>
            <feComposite in="shadowBlurOuter1" in2="SourceAlpha" operator="out" result="shadowBlurOuter1"></feComposite>
            <feColorMatrix values="0 0 0 0 0   0 0 0 0 0   0 0 0 0 0  0 0 0 0.5 0" type="matrix" in="shadowBlurOuter1"></feColorMatrix>
        </filter>
        <rect id="path-4" x="200" y="307" width="575" height="268"></rect>
        <filter x="-1.2%" y="-1.9%" width="102.4%" height="105.2%" filterUnits="objectBoundingBox" id="filter-5">
            <feOffset dx="0" dy="2" in="SourceAlpha" result="shadowOffsetOuter1"></feOffset>
            <feGaussianBlur stdDeviation="2" in="shadowOffsetOuter1" result="shadowBlurOuter1"></feGaussianBlur>
            <feComposite in="shadowBlurOuter1" in2="SourceAlpha" operator="out" result="shadowBlurOuter1"></feComposite>
            <feColorMatrix values="0 0 0 0 0   0 0 0 0 0   0 0 0 0 0  0 0 0 0.5 0" type="matrix" in="shadowBlurOuter1"></feColorMatrix>
        </filter>
        <path d="M8.68744595,14.5405413 C10.6544909,13.5649687 12,11.5915112 12,9.31636202 C12,6.07252388 9.26504479,3.44227578 5.89152197,3.44227578 C4.52034181,3.44227578 3.25480793,3.87689217 2.23537065,4.61058921 L2.23537065,1.05770107 C2.23537065,0.476155373 1.74046224,0 1.11695169,0 C0.493934821,0 0.0167986821,0.476630104 0.0167986821,1.05770107 L0.0167986821,1.80184219 L0,9.32158406 C-0.0041824725,11.2003327 0.951817666,12.865215 2.41753644,13.8939574 C2.4777647,13.9362085 2.55848043,13.9312238 2.6127846,13.8823265 C2.66758244,13.8334292 2.6779496,13.7558106 2.63746831,13.6950451 C0.724974359,10.8146136 1.16014819,5.53963813 5.89176881,5.53963813 C8.05899866,5.53963813 9.80709909,7.22944376 9.81623206,9.31351363 C9.82240299,10.8599505 9.11620201,12.0365717 8.19549958,12.7781018 C6.36026565,14.2561773 3.64974731,12.6382934 4.49738595,10.4697214 C4.5894562,10.2335427 4.71879884,9.9959397 4.88664808,9.76189723 L5.12361171,9.47705853 C5.19766284,9.39967734 5.25048599,9.29903433 5.2146946,9.19411874 C5.01401603,8.62800181 3.46832203,8.97526767 3.04005964,10.0315445 C3.34292878,9.79631524 3.65986763,9.66433998 3.96940137,9.71489885 C2.38890334,11.275815 3.44141679,13.9563846 5.46005069,14.7513219 C6.40494316,15.1232738 7.55964718,15.0976383 8.68744595,14.5405413" id="path-6"></path>
        <linearGradient x1="28.568518%" y1="104.445731%" x2="78.3472072%" y2="20.6880271%" id="linearGradient-8">
            <stop stop-color="#000F98" offset="0%"></stop>
            <stop stop-color="#00A5FD" offset="100%"></stop>
        </linearGradient>
        <path d="M391.554789,148.478712 L391.554412,168.448408 C391.554266,171.209832 393.7928,173.448451 396.554223,173.448503 C396.554255,173.448503 396.554286,173.448503 396.554318,173.448408 L419.493109,173.448408 C422.254533,173.448408 424.493109,171.209832 424.493109,168.448408 L424.493109,154.965418 C424.493109,152.203994 422.254533,149.965418 419.493109,149.965418 L410.442833,149.965418 C408.814229,149.965418 407.287672,149.172235 406.351491,147.839599 L404.781348,145.60453 C403.845166,144.271894 402.31861,143.478712 400.690005,143.478712 L396.554883,143.478712 C393.793496,143.478806 391.554935,145.717325 391.554789,148.478712 Z" id="path-9"></path>
        <filter x="-15.2%" y="-16.7%" width="142.5%" height="146.7%" filterUnits="objectBoundingBox" id="filter-10">
            <feOffset dx="2" dy="2" in="SourceAlpha" result="shadowOffsetOuter1"></feOffset>
            <feGaussianBlur stdDeviation="2" in="shadowOffsetOuter1" result="shadowBlurOuter1"></feGaussianBlur>
            <feColorMatrix values="0 0 0 0 0   0 0 0 0 0   0 0 0 0 0  0 0 0 0.5 0" type="matrix" in="shadowBlurOuter1"></feColorMatrix>
        </filter>
        <path d="M431.979031,187.509015 L431.978654,207.478712 C431.978508,210.240135 434.217042,212.478754 436.978466,212.478806 C436.978497,212.478806 436.978529,212.478806 436.97856,212.478712 L459.917351,212.478712 C462.678775,212.478712 464.917351,210.240135 464.917351,207.478712 L464.917351,193.995721 C464.917351,191.234297 462.678775,188.995721 459.917351,188.995721 L450.867076,188.995721 C449.238471,188.995721 447.711915,188.202538 446.775734,186.869902 L445.20559,184.634833 C444.269409,183.302197 442.742853,182.509015 441.114248,182.509015 L436.979125,182.509015 C434.217738,182.509109 431.979177,184.747628 431.979031,187.509015 Z" id="path-11"></path>
        <filter x="-15.2%" y="-16.7%" width="142.5%" height="146.7%" filterUnits="objectBoundingBox" id="filter-12">
            <feOffset dx="2" dy="2" in="SourceAlpha" result="shadowOffsetOuter1"></feOffset>
            <feGaussianBlur stdDeviation="2" in="shadowOffsetOuter1" result="shadowBlurOuter1"></feGaussianBlur>
            <feColorMatrix values="0 0 0 0 0   0 0 0 0 0   0 0 0 0 0  0 0 0 0.5 0" type="matrix" in="shadowBlurOuter1"></feColorMatrix>
        </filter>
        <path d="M13.75,0 C13.7941911,0 13.8378467,0.00229316871 13.8808541,0.00676700035 L13.75,0 C13.8162355,0 13.881929,0.00525694116 13.9465226,0.0155397695 C13.9701591,0.0191086024 13.992749,0.0233404213 14.0151161,0.0281708262 C14.0322448,0.0321398038 14.0500238,0.0363983451 14.0676885,0.0410407894 C14.0946367,0.0478045058 14.1205565,0.0555325238 14.1461088,0.0640632613 C14.160755,0.0693053936 14.1758776,0.0746759142 14.1908891,0.0803344975 C14.2187365,0.0904816017 14.2457589,0.101793784 14.2722804,0.114007418 C14.2843465,0.119888443 14.2963476,0.125640889 14.3082569,0.131585085 C14.337487,0.145899179 14.3659242,0.161546133 14.3936604,0.1782393 C14.4041654,0.184752089 14.415414,0.191741556 14.4265562,0.198913179 C14.4582781,0.219233101 14.4881961,0.24048749 14.5171,0.262983615 C14.5214712,0.266446375 14.5260487,0.270054306 14.530603,0.273695915 C14.5355396,0.277595341 14.5403427,0.281499913 14.5451161,0.285439232 L14.6338835,0.366116524 L14.6338835,0.366116524 L22.1338835,7.86611652 C22.1964743,7.92870737 22.2524583,7.99790512 22.3006994,8.07257393 C22.307848,8.08394838 22.3144473,8.0945475 22.3208831,8.10523728 C22.3376983,8.1327042 22.3537499,8.16181144 22.3686469,8.19159666 C22.3743591,8.2036524 22.3801116,8.21565349 22.3856703,8.22774155 C22.3982062,8.25424114 22.4095184,8.28126351 22.4198899,8.30874741 C22.4253241,8.3241224 22.4306946,8.339245 22.4357736,8.35447029 C22.4444675,8.37944354 22.4521955,8.40536325 22.4590909,8.43162036 C22.4636017,8.4499762 22.4678602,8.4677552 22.4717297,8.48563619 C22.4766596,8.50725102 22.4808914,8.52984086 22.484507,8.55263585 C22.4947431,8.61807104 22.5,8.68376452 22.5,8.75 L22.5,23.75 C22.5,25.8210678 20.8210678,27.5 18.75,27.5 L3.75,27.5 C1.67893219,27.5 0,25.8210678 0,23.75 L0,3.75 C0,1.67893219 1.67893219,0 3.75,0 Z M12.5,2.5 L3.75,2.5 C3.05964406,2.5 2.5,3.05964406 2.5,3.75 L2.5,23.75 C2.5,24.4403559 3.05964406,25 3.75,25 L18.75,25 C19.4403559,25 20,24.4403559 20,23.75 L20,10 L13.75,10 C13.1027913,10 12.5704661,9.50812534 12.5064536,8.87780524 L12.5,8.75 L12.5,2.5 Z M16.25,18.75 C16.9403559,18.75 17.5,19.3096441 17.5,20 C17.5,20.6903559 16.9403559,21.25 16.25,21.25 L16.25,21.25 L6.25,21.25 C5.55964406,21.25 5,20.6903559 5,20 C5,19.3096441 5.55964406,18.75 6.25,18.75 L6.25,18.75 Z M16.25,13.75 C16.9403559,13.75 17.5,14.3096441 17.5,15 C17.5,15.6903559 16.9403559,16.25 16.25,16.25 L16.25,16.25 L6.25,16.25 C5.55964406,16.25 5,15.6903559 5,15 C5,14.3096441 5.55964406,13.75 6.25,13.75 L6.25,13.75 Z M8.75,8.75 C9.44035594,8.75 10,9.30964406 10,10 C10,10.6903559 9.44035594,11.25 8.75,11.25 L8.75,11.25 L6.25,11.25 C5.55964406,11.25 5,10.6903559 5,10 C5,9.30964406 5.55964406,8.75 6.25,8.75 L6.25,8.75 Z M15,4.268 L15,7.5 L18.233,7.5 L15,4.268 Z" id="path-13"></path>
        <linearGradient x1="1.18752487e-05%" y1="49.9999884%" x2="100.000032%" y2="49.9999884%" id="linearGradient-15">
            <stop stop-color="#FCD635" offset="0%"></stop>
            <stop stop-color="#F7A928" offset="100%"></stop>
        </linearGradient>
        <filter x="-19.4%" y="-16.2%" width="138.7%" height="132.4%" filterUnits="objectBoundingBox" id="filter-16">
            <feOffset dx="2" dy="2" in="SourceAlpha" result="shadowOffsetOuter1"></feOffset>
            <feGaussianBlur stdDeviation="2" in="shadowOffsetOuter1" result="shadowBlurOuter1"></feGaussianBlur>
            <feColorMatrix values="0 0 0 0 0   0 0 0 0 0   0 0 0 0 0  0 0 0 0.5 0" type="matrix" in="shadowBlurOuter1" result="shadowMatrixOuter1"></feColorMatrix>
            <feMerge>
                <feMergeNode in="shadowMatrixOuter1"></feMergeNode>
                <feMergeNode in="SourceGraphic"></feMergeNode>
            </feMerge>
        </filter>
    </defs>
    <g id="2041-10-14-14-10_.gitignoreFile" stroke="none" stroke-width="1" fill="none" fill-rule="evenodd">
        <rect fill="#FFFFFF" x="0" y="0" width="800" height="600"></rect>
        <ellipse id="Oval" fill="url(#linearGradient-1)" cx="303" cy="315" rx="279" ry="264"></ellipse>
        <g id="Rectangle">
            <use fill="black" fill-opacity="1" filter="url(#filter-3)" xlink:href="#path-2"></use>
            <use fill-opacity="0.3" fill="#FFFFFF" fill-rule="evenodd" xlink:href="#path-2"></use>
        </g>
        <g id="Rectangle-Copy">
            <use fill="black" fill-opacity="1" filter="url(#filter-5)" xlink:href="#path-4"></use>
            <use fill-opacity="0.3" fill="#FFFFFF" fill-rule="evenodd" xlink:href="#path-4"></use>
        </g>
        <ellipse id="Oval-Copy" fill-opacity="0.5" fill="#FFC0C0" cx="516" cy="242.5" rx="96" ry="25.5"></ellipse>
        <text id=".gitignore-File" fill-rule="nonzero" font-family="Helvetica" font-size="18" font-weight="normal" fill="#0055C2">
            <tspan x="10" y="23">.gitignore File</tspan>
        </text>
        <g id="bloovee-winner-logo" transform="translate(725.000000, 580.000000)">
            <path d="M13,13.7751507 C13,14.396312 13.4732558,14.8717809 14.0514961,14.8717809 C14.6474304,14.8717809 15.1204503,14.3968042 15.1204503,13.7751507 L15.1204503,2.09687626 C15.1204503,1.49368045 14.6474304,1 14.0514961,1 C13.4557977,1 13,1.49392656 13,2.09687626 L13,13.7751507 Z M21.7920364,15 C24.6483217,15 26.751078,12.7149437 26.751078,9.97312215 L26.751078,9.93645297 C26.751078,7.17641992 24.6657798,4.92778666 21.8269526,4.92778666 C18.9881254,4.92778666 16.885369,7.212843 16.885369,9.97312215 L16.885369,10.0095452 C16.885369,12.7516128 18.9706673,15 21.7920364,15 Z M21.8269526,13.0621935 C20.179994,13.0621935 19.0055834,11.6547366 19.0055834,9.97312215 L19.0055834,9.93645297 C19.0055834,8.25459244 20.0919958,6.86534709 21.7920364,6.86534709 C23.456689,6.86534709 24.6306277,8.27305008 24.6306277,9.97312215 L24.6306277,10.0095452 C24.6306277,11.6731942 23.5444513,13.0621935 21.8269526,13.0621935 Z M32.8092717,15 C35.665557,15 37.7683133,12.7149437 37.7683133,9.97312215 L37.7683133,9.93645297 C37.7683133,7.17641992 35.6830151,4.92778666 32.8441878,4.92778666 C30.0053606,4.92778666 27.9026043,7.212843 27.9026043,9.97312215 L27.9026043,10.0095452 C27.9026043,12.7516128 29.9879025,15 32.8092717,15 Z M32.8441878,13.0621935 C31.1969933,13.0621935 30.0228187,11.6547366 30.0228187,9.97312215 L30.0228187,9.93645297 C30.0228187,8.25459244 31.109231,6.86534709 32.8092717,6.86534709 C34.4739243,6.86534709 35.647863,8.27305008 35.647863,9.97312215 L35.647863,10.0095452 C35.647863,11.6731942 34.5614506,13.0621935 32.8441878,13.0621935 Z M44.1416963,13.9944275 L47.2261164,6.6096472 C47.2784906,6.49988574 47.3487948,6.28060893 47.3487948,6.07954366 C47.3487948,5.47610175 46.8929971,5.01933658 46.3147568,5.01933658 C45.7539746,5.01933658 45.4737015,5.40300947 45.3158709,5.78692847 L42.8976893,12.2215093 L40.5144239,5.82335156 C40.3393711,5.36634029 40.041404,5.01933658 39.4629278,5.01933658 C38.8846875,5.01933658 38.4116676,5.53098247 38.4116676,6.07954366 C38.4116676,6.28060893 38.4817358,6.46346265 38.534346,6.62785874 L41.6182943,13.9944275 C41.8638872,14.5796579 42.2491448,14.9633308 42.8273851,14.9633308 L42.9326055,14.9633308 C43.5108458,14.9633308 43.8965752,14.5612003 44.1416963,13.9944275 Z M50.0949054,9.27837643 C50.2876522,7.77961573 51.1987758,6.73762019 52.4956289,6.73762019 C53.8974665,6.73762019 54.7036056,7.8524619 54.8437422,9.27837643 L50.0949054,9.27837643 Z M56.070527,13.72027 C56.2281217,13.5558739 56.3508002,13.3181395 56.3508002,13.0439819 C56.3508002,12.5320899 55.9830006,12.1481709 55.5095089,12.1481709 C55.2641519,12.1481709 55.1242513,12.2215093 54.9664207,12.3492362 C54.3704864,12.8611282 53.6695676,13.1901665 52.7759021,13.1901665 C51.4089807,13.1901665 50.3402624,12.3128131 50.1123635,10.7409601 L55.9126964,10.7409601 C56.4560206,10.7409601 56.9115824,10.3021604 56.9115824,9.68050697 C56.9115824,7.45057746 55.4568987,4.92778666 52.513087,4.92778666 C49.8672425,4.92778666 47.9919132,7.19438536 47.9919132,9.95466451 L47.9919132,9.9913337 C47.9919132,12.9708897 50.0597533,15 52.7409859,15 C54.1779755,15 55.2292357,14.5063195 56.070527,13.72027 Z M60.1833231,9.27837643 C60.3763058,7.77961573 61.2871935,6.73762019 62.5842825,6.73762019 C63.9858841,6.73762019 64.7920233,7.8524619 64.9321598,9.27837643 L60.1833231,9.27837643 Z M66.1589447,13.72027 C66.3167752,13.5558739 66.4394537,13.3181395 66.4394537,13.0439819 C66.4394537,12.5320899 66.0714183,12.1481709 65.5981624,12.1481709 C65.3528055,12.1481709 65.2126689,12.2215093 65.0548383,12.3492362 C64.4591399,12.8611282 63.7582212,13.1901665 62.8643197,13.1901665 C61.4976342,13.1901665 60.4289159,12.3128131 60.2007812,10.7409601 L66.0011141,10.7409601 C66.5444382,10.7409601 67,10.3021604 67,9.68050697 C67,7.45057746 65.5455522,4.92778666 62.6015046,4.92778666 C59.9556601,4.92778666 58.0805667,7.19438536 58.0805667,9.95466451 L58.0805667,9.9913337 C58.0805667,12.9708897 60.1484069,15 62.8294035,15 C64.2663932,15 65.3178893,14.5063195 66.1589447,13.72027 L66.1589447,13.72027 Z" id="Fill-1" fill="#030060"></path>
            <g id="Group-4">
                <mask id="mask-7" fill="white">
                    <use xlink:href="#path-6"></use>
                </mask>
                <g id="Clip-3"></g>
                <path d="M8.68744595,14.5405413 C10.6544909,13.5649687 12,11.5915112 12,9.31636202 C12,6.07252388 9.26504479,3.44227578 5.89152197,3.44227578 C4.52034181,3.44227578 3.25480793,3.87689217 2.23537065,4.61058921 L2.23537065,1.05770107 C2.23537065,0.476155373 1.74046224,0 1.11695169,0 C0.493934821,0 0.0167986821,0.476630104 0.0167986821,1.05770107 L0.0167986821,1.80184219 L0,9.32158406 C-0.0041824725,11.2003327 0.951817666,12.865215 2.41753644,13.8939574 C2.4777647,13.9362085 2.55848043,13.9312238 2.6127846,13.8823265 C2.66758244,13.8334292 2.6779496,13.7558106 2.63746831,13.6950451 C0.724974359,10.8146136 1.16014819,5.53963813 5.89176881,5.53963813 C8.05899866,5.53963813 9.80709909,7.22944376 9.81623206,9.31351363 C9.82240299,10.8599505 9.11620201,12.0365717 8.19549958,12.7781018 C6.36026565,14.2561773 3.64974731,12.6382934 4.49738595,10.4697214 C4.5894562,10.2335427 4.71879884,9.9959397 4.88664808,9.76189723 L5.12361171,9.47705853 C5.19766284,9.39967734 5.25048599,9.29903433 5.2146946,9.19411874 C5.01401603,8.62800181 3.46832203,8.97526767 3.04005964,10.0315445 C3.34292878,9.79631524 3.65986763,9.66433998 3.96940137,9.71489885 C2.38890334,11.275815 3.44141679,13.9563846 5.46005069,14.7513219 C6.40494316,15.1232738 7.55964718,15.0976383 8.68744595,14.5405413" id="Fill-2" fill="url(#linearGradient-8)" mask="url(#mask-7)"></path>
            </g>
        </g>
        <text id="Working-Directory-Copy" font-family="Helvetica" font-size="21" font-weight="normal" fill="#0055C2">
            <tspan x="431" y="167">Working Directory</tspan>
        </text>
        <text id="…-copy" font-family="Helvetica" font-size="21" font-weight="normal" fill="#0055C2">
            <tspan x="432" y="280">…</tspan>
        </text>
        <text id=".git-copy" font-family="Helvetica" font-size="21" font-weight="normal" fill="#0055C2">
            <tspan x="472" y="208">.git</tspan>
        </text>
        <text id=".gitignore" font-family="Helvetica-Bold, Helvetica" font-size="21" font-weight="bold" fill="#0055C2">
            <tspan x="472" y="247">.gitignore</tspan>
        </text>
        <g id="Path-Copy-7">
            <use fill="black" fill-opacity="1" filter="url(#filter-10)" xlink:href="#path-9"></use>
            <use fill="#7BB2FF" fill-rule="evenodd" xlink:href="#path-9"></use>
        </g>
        <g id="Path-Copy-8">
            <use fill="black" fill-opacity="1" filter="url(#filter-12)" xlink:href="#path-11"></use>
            <use fill="#7BB2FF" fill-rule="evenodd" xlink:href="#path-11"></use>
        </g>
        <g id="file-text-copy-2" transform="translate(431.750000, 228.250000)">
            <mask id="mask-14" fill="white">
                <use xlink:href="#path-13"></use>
            </mask>
            <use id="Combined-Shape" fill="#0055C2" fill-rule="nonzero" xlink:href="#path-13"></use>
            <g id="Group" mask="url(#mask-14)">
                <g transform="translate(-3.750000, -1.250000)" id="🎨Color">
                    <rect id="Rectangle" fill="#0055C2" x="0" y="0" width="30" height="30"></rect>
                </g>
            </g>
        </g>
        <polyline id="Path-3-Copy-4" stroke="#0055C2" points="408.023713 173.448408 408.023713 202.5 431.97856 202.5"></polyline>
        <polyline id="Path-3-Copy-5" stroke="#0055C2" points="408.023713 173.5 408.023713 241.5 431.97856 241.5"></polyline>
        <polyline id="Path-3-Copy-6" stroke="#0055C2" points="408.023713 212.5 408.023713 280.5 431.97856 280.5"></polyline>
        <g id="star-copy-5" transform="translate(577.000000, 231.000000)" fill="url(#linearGradient-15)" fill-rule="nonzero">
            <path d="M12.0477348,14.2321921 C11.5145894,14.6119273 8.09367648,12.2047136 7.43851045,12.1994411 C6.78334441,12.1941731 3.32392758,14.5460254 2.79699363,14.1577566 C2.27005968,13.7694923 3.50886355,9.78139044 3.31143599,9.15843081 C3.11400385,8.53547119 -0.198134752,5.98148451 0.00935103559,5.36178144 C0.216836824,4.74208293 4.40336871,4.68451399 4.93651415,4.3047779 C5.46965959,3.92504044 6.88206505,-0.00526630567 7.53723109,0 C8.19239713,0.00527735803 9.54101358,3.95779982 10.0679475,4.3460668 C10.5948815,4.73433379 14.779936,4.85926414 14.9773635,5.4822192 C15.1747957,6.10517883 11.8217518,8.60553727 11.614266,9.22524034 C11.4067802,9.84493885 12.5808803,13.8524524 12.0477348,14.2321921 L12.0477348,14.2321921 Z" id="Path"></path>
        </g>
        <g id="star-copy-6" transform="translate(559.000000, 217.000000)" fill="url(#linearGradient-15)" fill-rule="nonzero">
            <path d="M12.0477348,14.2321921 C11.5145894,14.6119273 8.09367648,12.2047136 7.43851045,12.1994411 C6.78334441,12.1941731 3.32392758,14.5460254 2.79699363,14.1577566 C2.27005968,13.7694923 3.50886355,9.78139044 3.31143599,9.15843081 C3.11400385,8.53547119 -0.198134752,5.98148451 0.00935103559,5.36178144 C0.216836824,4.74208293 4.40336871,4.68451399 4.93651415,4.3047779 C5.46965959,3.92504044 6.88206505,-0.00526630567 7.53723109,0 C8.19239713,0.00527735803 9.54101358,3.95779982 10.0679475,4.3460668 C10.5948815,4.73433379 14.779936,4.85926414 14.9773635,5.4822192 C15.1747957,6.10517883 11.8217518,8.60553727 11.614266,9.22524034 C11.4067802,9.84493885 12.5808803,13.8524524 12.0477348,14.2321921 L12.0477348,14.2321921 Z" id="Path"></path>
        </g>
        <text id="Create-.gitignore-fi" font-family="Helvetica-Bold, Helvetica" font-size="24" font-weight="bold" fill="#0055C2">
            <tspan x="254" y="83">Create .gitignore file right under working </tspan>
            <tspan x="254" y="112">directory (project directory) </tspan>
        </text>
        <text id="Edit-.gitignore-file" font-family="Helvetica-Bold, Helvetica" font-size="24" font-weight="bold" fill="#0055C2">
            <tspan x="259.18595" y="338">Edit .gitignore file and list up file or </tspan>
            <tspan x="259.18595" y="367">directory names </tspan>
        </text>
        <g id="documents-copy-6" filter="url(#filter-16)" transform="translate(85.000000, 238.000000)" fill-rule="nonzero">
            <path d="M59,73 C57.2272,73 2.0892,73 1,73 C1,68.5998595 1,4.93770952 1,2 L43,2 L47.3334,11.4103738 L59,15.5238095 C59,18.0546214 59,70.1250071 59,73 Z" id="Path" fill="#FFFFFF"></path>
            <polygon id="Path" fill="#A4C2F7" points="60 16 44 16 44 2"></polygon>
            <path d="M60,74 L2,74 C0.8954,74 0,73.2468818 0,72.3181818 L0,1.68181818 C0,0.75295 0.8954,0 2,0 L44,0 C44.5304,0 45.039,0.177263636 45.4142,0.492604545 L61.4142,13.94715 C61.7892,14.2624909 62,14.6903455 62,15.1363636 L62,72.3181818 C62,73.2468818 61.1044,74 60,74 Z M4,70.6363636 L58,70.6363636 L58,15.8329727 L43.1714,3.36363636 L4,3.36363636 L4,70.6363636 Z" id="Shape" fill="#418CFE"></path>
            <path d="M50.9565217,63 L8.04347826,63 C6.91486522,63 6,62.2265273 6,61.2727273 C6,60.3189273 6.91486522,59.5454545 8.04347826,59.5454545 L50.9565217,59.5454545 C52.0849304,59.5454545 53,60.3189273 53,61.2727273 C53,62.2265273 52.0849304,63 50.9565217,63 Z M50.9565217,56.0909091 L8.04347826,56.0909091 C6.91486522,56.0909091 6,55.3174364 6,54.3636364 C6,53.4098364 6.91486522,52.6363636 8.04347826,52.6363636 L50.9565217,52.6363636 C52.0849304,52.6363636 53,53.4098364 53,54.3636364 C53,55.3174364 52.0849304,56.0909091 50.9565217,56.0909091 Z M50.9565217,49.1818182 L8.04347826,49.1818182 C6.91486522,49.1818182 6,48.4083455 6,47.4545455 C6,46.5007455 6.91486522,45.7272727 8.04347826,45.7272727 L50.9565217,45.7272727 C52.0849304,45.7272727 53,46.5007455 53,47.4545455 C53,48.4083455 52.0849304,49.1818182 50.9565217,49.1818182 Z M50.9565217,42.2727273 L8.04347826,42.2727273 C6.91486522,42.2727273 6,41.4994273 6,40.5454545 C6,39.5914818 6.91486522,38.8181818 8.04347826,38.8181818 L50.9565217,38.8181818 C52.0849304,38.8181818 53,39.5914818 53,40.5454545 C53,41.4994273 52.0849304,42.2727273 50.9565217,42.2727273 Z M50.9565217,35.3636364 L8.04347826,35.3636364 C6.91486522,35.3636364 6,34.5903364 6,33.6363636 C6,32.6823909 6.91486522,31.9090909 8.04347826,31.9090909 L50.9565217,31.9090909 C52.0849304,31.9090909 53,32.6823909 53,33.6363636 C53,34.5903364 52.0849304,35.3636364 50.9565217,35.3636364 Z M26.4347826,28.4545455 L8.04347826,28.4545455 C6.91486522,28.4545455 6,27.6812455 6,26.7272727 C6,25.7733 6.91486522,25 8.04347826,25 L26.4347826,25 C27.5633957,25 28.4782609,25.7733 28.4782609,26.7272727 C28.4782609,27.6812455 27.5633957,28.4545455 26.4347826,28.4545455 Z" id="Shape" fill="#418CFE"></path>
        </g>
        <text id=".gitignore" font-family="Helvetica-Bold, Helvetica" font-size="32" font-weight="bold" fill="#0055C2">
            <tspan x="42.6171875" y="347">.gitignore</tspan>
        </text>
        <g id="Group-2" transform="translate(211.000000, 64.000000)">
            <ellipse id="Oval" fill="#006AE1" cx="13" cy="15.5217391" rx="13" ry="13.4782609"></ellipse>
            <text id="1" font-family="Helvetica-Bold, Helvetica" font-size="24" font-weight="bold" fill="#FFFFFF">
                <tspan x="6.97617187" y="23">1</tspan>
            </text>
        </g>
        <g id="Group-2-Copy" transform="translate(211.000000, 318.000000)">
            <ellipse id="Oval" fill="#006AE1" cx="13" cy="15.5217391" rx="13" ry="13.4782609"></ellipse>
            <text id="2" font-family="Helvetica-Bold, Helvetica" font-size="24" font-weight="bold" fill="#FFFFFF">
                <tspan x="6.97617187" y="23">2</tspan>
            </text>
        </g>
        <text id="—-Environment-files:" font-family="Helvetica" font-size="21" font-weight="normal" fill="#0055C2">
            <tspan x="224" y="409">— </tspan>
            <tspan x="250.834473" y="409" font-family="Helvetica-Bold, Helvetica" font-weight="bold">Environment files</tspan>
            <tspan x="427.037598" y="409">: e.g., .env</tspan>
            <tspan x="224" y="434">—</tspan>
            <tspan x="245" y="434" font-family="Helvetica-Bold, Helvetica" font-weight="bold"> OS related files</tspan>
            <tspan x="403.730469" y="434">: e.g., .DS_Store (for Mac), Thumbs.db</tspan>
            <tspan x="224" y="459">— </tspan>
            <tspan x="250.834473" y="459" font-family="Helvetica-Bold, Helvetica" font-weight="bold">Temporary files</tspan>
            <tspan x="405.678711" y="459">: e.g., log file, package file</tspan>
            <tspan x="224" y="484"></tspan>
            <tspan x="224" y="509">Note:</tspan>
            <tspan x="224" y="534">use * to exclude specific extension: e.g., </tspan>
            <tspan x="603.384277" y="534" font-family="Helvetica-Bold, Helvetica" font-weight="bold">*.exe</tspan>
            <tspan x="224" y="559">use / to exclude all files under a directory: e.g., </tspan>
            <tspan x="662.897949" y="559" font-family="Helvetica-Bold, Helvetica" font-weight="bold">bin/ </tspan>
        </text>
    </g>
</svg>