<?xml version="1.0" encoding="UTF-8"?>
<svg width="800px" height="600px" viewBox="0 0 800 600" version="1.1" xmlns="http://www.w3.org/2000/svg" xmlns:xlink="http://www.w3.org/1999/xlink">
    <title>2041-10-12-12-10_TargetStateOfAGitProjectLaunch</title>
    <defs>
        <linearGradient x1="50%" y1="66.30652%" x2="50%" y2="-42.5741798%" id="linearGradient-1">
            <stop stop-color="#FFFFFF" offset="0%"></stop>
            <stop stop-color="#0755C2" offset="100%"></stop>
        </linearGradient>
        <path d="M8.68744595,14.5405413 C10.6544909,13.5649687 12,11.5915112 12,9.31636202 C12,6.07252388 9.26504479,3.44227578 5.89152197,3.44227578 C4.52034181,3.44227578 3.25480793,3.87689217 2.23537065,4.61058921 L2.23537065,1.05770107 C2.23537065,0.476155373 1.74046224,0 1.11695169,0 C0.493934821,0 0.0167986821,0.476630104 0.0167986821,1.05770107 L0.0167986821,1.80184219 L0,9.32158406 C-0.0041824725,11.2003327 0.951817666,12.865215 2.41753644,13.8939574 C2.4777647,13.9362085 2.55848043,13.9312238 2.6127846,13.8823265 C2.66758244,13.8334292 2.6779496,13.7558106 2.63746831,13.6950451 C0.724974359,10.8146136 1.16014819,5.53963813 5.89176881,5.53963813 C8.05899866,5.53963813 9.80709909,7.22944376 9.81623206,9.31351363 C9.82240299,10.8599505 9.11620201,12.0365717 8.19549958,12.7781018 C6.36026565,14.2561773 3.64974731,12.6382934 4.49738595,10.4697214 C4.5894562,10.2335427 4.71879884,9.9959397 4.88664808,9.76189723 L5.12361171,9.47705853 C5.19766284,9.39967734 5.25048599,9.29903433 5.2146946,9.19411874 C5.01401603,8.62800181 3.46832203,8.97526767 3.04005964,10.0315445 C3.34292878,9.79631524 3.65986763,9.66433998 3.96940137,9.71489885 C2.38890334,11.275815 3.44141679,13.9563846 5.46005069,14.7513219 C6.40494316,15.1232738 7.55964718,15.0976383 8.68744595,14.5405413" id="path-2"></path>
        <linearGradient x1="28.568518%" y1="104.445731%" x2="78.3472072%" y2="20.6880271%" id="linearGradient-4">
            <stop stop-color="#000F98" offset="0%"></stop>
            <stop stop-color="#00A5FD" offset="100%"></stop>
        </linearGradient>
        <linearGradient x1="74.9688889%" y1="0%" x2="25.0311111%" y2="100%" id="linearGradient-5">
            <stop stop-color="#00C6FF" offset="0.0491695804%"></stop>
            <stop stop-color="#079DC2" offset="100%"></stop>
        </linearGradient>
        <linearGradient x1="74.9688889%" y1="0%" x2="25.0311111%" y2="100%" id="linearGradient-6">
            <stop stop-color="#00A5FF" offset="0.0491695804%"></stop>
            <stop stop-color="#0755C2" offset="100%"></stop>
        </linearGradient>
        <path d="M318.503119,48.1789811 L439.503119,48.1789811 C441.712258,48.1789811 443.503119,49.9698421 443.503119,52.1789811 L443.503119,281.963969 C443.503119,284.173108 441.712258,285.963969 439.503119,285.963969 L360.369786,285.963969 L360.369786,285.963969 L376.415188,329.996881 L344.603119,285.963969 L318.503119,285.963969 C316.29398,285.963969 314.503119,284.173108 314.503119,281.963969 L314.503119,52.1789811 C314.503119,49.9698421 316.29398,48.1789811 318.503119,48.1789811 Z" id="path-7"></path>
        <filter x="-4.3%" y="-5.5%" width="116.3%" height="108.4%" filterUnits="objectBoundingBox" id="filter-8">
            <feMorphology radius="0.5" operator="dilate" in="SourceAlpha" result="shadowSpreadOuter1"></feMorphology>
            <feOffset dx="5" dy="-5" in="shadowSpreadOuter1" result="shadowOffsetOuter1"></feOffset>
            <feGaussianBlur stdDeviation="2.5" in="shadowOffsetOuter1" result="shadowBlurOuter1"></feGaussianBlur>
            <feComposite in="shadowBlurOuter1" in2="SourceAlpha" operator="out" result="shadowBlurOuter1"></feComposite>
            <feColorMatrix values="0 0 0 0 0   0 0 0 0 0   0 0 0 0 0  0 0 0 0.5 0" type="matrix" in="shadowBlurOuter1"></feColorMatrix>
        </filter>
        <path d="M318.503119,295.178981 L439.503119,295.178981 C441.712258,295.178981 443.503119,296.969842 443.503119,299.178981 L443.503119,528.963969 C443.503119,531.173108 441.712258,532.963969 439.503119,532.963969 L360.369786,532.963969 L360.369786,532.963969 L335.857026,576.996881 L344.603119,532.963969 L318.503119,532.963969 C316.29398,532.963969 314.503119,531.173108 314.503119,528.963969 L314.503119,299.178981 C314.503119,296.969842 316.29398,295.178981 318.503119,295.178981 Z" id="path-9"></path>
        <filter x="-4.3%" y="-5.5%" width="116.3%" height="108.3%" filterUnits="objectBoundingBox" id="filter-10">
            <feMorphology radius="0.5" operator="dilate" in="SourceAlpha" result="shadowSpreadOuter1"></feMorphology>
            <feOffset dx="5" dy="-5" in="shadowSpreadOuter1" result="shadowOffsetOuter1"></feOffset>
            <feGaussianBlur stdDeviation="2.5" in="shadowOffsetOuter1" result="shadowBlurOuter1"></feGaussianBlur>
            <feComposite in="shadowBlurOuter1" in2="SourceAlpha" operator="out" result="shadowBlurOuter1"></feComposite>
            <feColorMatrix values="0 0 0 0 0   0 0 0 0 0   0 0 0 0 0  0 0 0 0.5 0" type="matrix" in="shadowBlurOuter1"></feColorMatrix>
        </filter>
        <path d="M13.75,0 C13.7941911,0 13.8378467,0.00229316871 13.8808541,0.00676700035 L13.75,0 C13.8162355,0 13.881929,0.00525694116 13.9465226,0.0155397695 C13.9701591,0.0191086024 13.992749,0.0233404213 14.0151161,0.0281708262 C14.0322448,0.0321398038 14.0500238,0.0363983451 14.0676885,0.0410407894 C14.0946367,0.0478045058 14.1205565,0.0555325238 14.1461088,0.0640632613 C14.160755,0.0693053936 14.1758776,0.0746759142 14.1908891,0.0803344975 C14.2187365,0.0904816017 14.2457589,0.101793784 14.2722804,0.114007418 C14.2843465,0.119888443 14.2963476,0.125640889 14.3082569,0.131585085 C14.337487,0.145899179 14.3659242,0.161546133 14.3936604,0.1782393 C14.4041654,0.184752089 14.415414,0.191741556 14.4265562,0.198913179 C14.4582781,0.219233101 14.4881961,0.24048749 14.5171,0.262983615 C14.5214712,0.266446375 14.5260487,0.270054306 14.530603,0.273695915 C14.5355396,0.277595341 14.5403427,0.281499913 14.5451161,0.285439232 L14.6338835,0.366116524 L14.6338835,0.366116524 L22.1338835,7.86611652 C22.1964743,7.92870737 22.2524583,7.99790512 22.3006994,8.07257393 C22.307848,8.08394838 22.3144473,8.0945475 22.3208831,8.10523728 C22.3376983,8.1327042 22.3537499,8.16181144 22.3686469,8.19159666 C22.3743591,8.2036524 22.3801116,8.21565349 22.3856703,8.22774155 C22.3982062,8.25424114 22.4095184,8.28126351 22.4198899,8.30874741 C22.4253241,8.3241224 22.4306946,8.339245 22.4357736,8.35447029 C22.4444675,8.37944354 22.4521955,8.40536325 22.4590909,8.43162036 C22.4636017,8.4499762 22.4678602,8.4677552 22.4717297,8.48563619 C22.4766596,8.50725102 22.4808914,8.52984086 22.484507,8.55263585 C22.4947431,8.61807104 22.5,8.68376452 22.5,8.75 L22.5,23.75 C22.5,25.8210678 20.8210678,27.5 18.75,27.5 L3.75,27.5 C1.67893219,27.5 0,25.8210678 0,23.75 L0,3.75 C0,1.67893219 1.67893219,0 3.75,0 Z M12.5,2.5 L3.75,2.5 C3.05964406,2.5 2.5,3.05964406 2.5,3.75 L2.5,23.75 C2.5,24.4403559 3.05964406,25 3.75,25 L18.75,25 C19.4403559,25 20,24.4403559 20,23.75 L20,10 L13.75,10 C13.1027913,10 12.5704661,9.50812534 12.5064536,8.87780524 L12.5,8.75 L12.5,2.5 Z M16.25,18.75 C16.9403559,18.75 17.5,19.3096441 17.5,20 C17.5,20.6903559 16.9403559,21.25 16.25,21.25 L16.25,21.25 L6.25,21.25 C5.55964406,21.25 5,20.6903559 5,20 C5,19.3096441 5.55964406,18.75 6.25,18.75 L6.25,18.75 Z M16.25,13.75 C16.9403559,13.75 17.5,14.3096441 17.5,15 C17.5,15.6903559 16.9403559,16.25 16.25,16.25 L16.25,16.25 L6.25,16.25 C5.55964406,16.25 5,15.6903559 5,15 C5,14.3096441 5.55964406,13.75 6.25,13.75 L6.25,13.75 Z M8.75,8.75 C9.44035594,8.75 10,9.30964406 10,10 C10,10.6903559 9.44035594,11.25 8.75,11.25 L8.75,11.25 L6.25,11.25 C5.55964406,11.25 5,10.6903559 5,10 C5,9.30964406 5.55964406,8.75 6.25,8.75 L6.25,8.75 Z M15,4.268 L15,7.5 L18.233,7.5 L15,4.268 Z" id="path-11"></path>
        <path d="M13.75,0 C13.7941911,0 13.8378467,0.00229316871 13.8808541,0.00676700035 L13.75,0 C13.8162355,0 13.881929,0.00525694116 13.9465226,0.0155397695 C13.9701591,0.0191086024 13.992749,0.0233404213 14.0151161,0.0281708262 C14.0322448,0.0321398038 14.0500238,0.0363983451 14.0676885,0.0410407894 C14.0946367,0.0478045058 14.1205565,0.0555325238 14.1461088,0.0640632613 C14.160755,0.0693053936 14.1758776,0.0746759142 14.1908891,0.0803344975 C14.2187365,0.0904816017 14.2457589,0.101793784 14.2722804,0.114007418 C14.2843465,0.119888443 14.2963476,0.125640889 14.3082569,0.131585085 C14.337487,0.145899179 14.3659242,0.161546133 14.3936604,0.1782393 C14.4041654,0.184752089 14.415414,0.191741556 14.4265562,0.198913179 C14.4582781,0.219233101 14.4881961,0.24048749 14.5171,0.262983615 C14.5214712,0.266446375 14.5260487,0.270054306 14.530603,0.273695915 C14.5355396,0.277595341 14.5403427,0.281499913 14.5451161,0.285439232 L14.6338835,0.366116524 L14.6338835,0.366116524 L22.1338835,7.86611652 C22.1964743,7.92870737 22.2524583,7.99790512 22.3006994,8.07257393 C22.307848,8.08394838 22.3144473,8.0945475 22.3208831,8.10523728 C22.3376983,8.1327042 22.3537499,8.16181144 22.3686469,8.19159666 C22.3743591,8.2036524 22.3801116,8.21565349 22.3856703,8.22774155 C22.3982062,8.25424114 22.4095184,8.28126351 22.4198899,8.30874741 C22.4253241,8.3241224 22.4306946,8.339245 22.4357736,8.35447029 C22.4444675,8.37944354 22.4521955,8.40536325 22.4590909,8.43162036 C22.4636017,8.4499762 22.4678602,8.4677552 22.4717297,8.48563619 C22.4766596,8.50725102 22.4808914,8.52984086 22.484507,8.55263585 C22.4947431,8.61807104 22.5,8.68376452 22.5,8.75 L22.5,23.75 C22.5,25.8210678 20.8210678,27.5 18.75,27.5 L3.75,27.5 C1.67893219,27.5 0,25.8210678 0,23.75 L0,3.75 C0,1.67893219 1.67893219,0 3.75,0 Z M12.5,2.5 L3.75,2.5 C3.05964406,2.5 2.5,3.05964406 2.5,3.75 L2.5,23.75 C2.5,24.4403559 3.05964406,25 3.75,25 L18.75,25 C19.4403559,25 20,24.4403559 20,23.75 L20,10 L13.75,10 C13.1027913,10 12.5704661,9.50812534 12.5064536,8.87780524 L12.5,8.75 L12.5,2.5 Z M16.25,18.75 C16.9403559,18.75 17.5,19.3096441 17.5,20 C17.5,20.6903559 16.9403559,21.25 16.25,21.25 L16.25,21.25 L6.25,21.25 C5.55964406,21.25 5,20.6903559 5,20 C5,19.3096441 5.55964406,18.75 6.25,18.75 L6.25,18.75 Z M16.25,13.75 C16.9403559,13.75 17.5,14.3096441 17.5,15 C17.5,15.6903559 16.9403559,16.25 16.25,16.25 L16.25,16.25 L6.25,16.25 C5.55964406,16.25 5,15.6903559 5,15 C5,14.3096441 5.55964406,13.75 6.25,13.75 L6.25,13.75 Z M8.75,8.75 C9.44035594,8.75 10,9.30964406 10,10 C10,10.6903559 9.44035594,11.25 8.75,11.25 L8.75,11.25 L6.25,11.25 C5.55964406,11.25 5,10.6903559 5,10 C5,9.30964406 5.55964406,8.75 6.25,8.75 L6.25,8.75 Z M15,4.268 L15,7.5 L18.233,7.5 L15,4.268 Z" id="path-13"></path>
        <path d="M0.000470945295,5 L9.43033658e-05,24.969697 C-5.20814222e-05,27.7311207 2.23848195,29.9697392 4.9999057,29.9697913 C4.99993713,29.9697913 4.99996857,29.9697913 5,29.969697 L27.9387912,29.969697 C30.700215,29.969697 32.9387912,27.7311207 32.9387912,24.969697 L32.9387912,11.4867062 C32.9387912,8.7252825 30.700215,6.48670625 27.9387912,6.48670625 L18.8885158,6.48670625 C17.2599109,6.48670625 15.7333549,5.69352376 14.7971736,4.3608878 L13.2270299,2.12581844 C12.2908487,0.79318249 10.7642927,-5.62824038e-15 9.1356878,0 L5.00056525,0 C2.23917833,9.43042556e-05 0.000617331167,2.23861308 0.000470945295,5 Z" id="path-15"></path>
        <filter x="-15.2%" y="-16.7%" width="142.5%" height="146.7%" filterUnits="objectBoundingBox" id="filter-16">
            <feOffset dx="2" dy="2" in="SourceAlpha" result="shadowOffsetOuter1"></feOffset>
            <feGaussianBlur stdDeviation="2" in="shadowOffsetOuter1" result="shadowBlurOuter1"></feGaussianBlur>
            <feColorMatrix values="0 0 0 0 0   0 0 0 0 0   0 0 0 0 0  0 0 0 0.5 0" type="matrix" in="shadowBlurOuter1"></feColorMatrix>
        </filter>
        <path d="M13.75,0 C13.7941911,0 13.8378467,0.00229316871 13.8808541,0.00676700035 L13.75,0 C13.8162355,0 13.881929,0.00525694116 13.9465226,0.0155397695 C13.9701591,0.0191086024 13.992749,0.0233404213 14.0151161,0.0281708262 C14.0322448,0.0321398038 14.0500238,0.0363983451 14.0676885,0.0410407894 C14.0946367,0.0478045058 14.1205565,0.0555325238 14.1461088,0.0640632613 C14.160755,0.0693053936 14.1758776,0.0746759142 14.1908891,0.0803344975 C14.2187365,0.0904816017 14.2457589,0.101793784 14.2722804,0.114007418 C14.2843465,0.119888443 14.2963476,0.125640889 14.3082569,0.131585085 C14.337487,0.145899179 14.3659242,0.161546133 14.3936604,0.1782393 C14.4041654,0.184752089 14.415414,0.191741556 14.4265562,0.198913179 C14.4582781,0.219233101 14.4881961,0.24048749 14.5171,0.262983615 C14.5214712,0.266446375 14.5260487,0.270054306 14.530603,0.273695915 C14.5355396,0.277595341 14.5403427,0.281499913 14.5451161,0.285439232 L14.6338835,0.366116524 L14.6338835,0.366116524 L22.1338835,7.86611652 C22.1964743,7.92870737 22.2524583,7.99790512 22.3006994,8.07257393 C22.307848,8.08394838 22.3144473,8.0945475 22.3208831,8.10523728 C22.3376983,8.1327042 22.3537499,8.16181144 22.3686469,8.19159666 C22.3743591,8.2036524 22.3801116,8.21565349 22.3856703,8.22774155 C22.3982062,8.25424114 22.4095184,8.28126351 22.4198899,8.30874741 C22.4253241,8.3241224 22.4306946,8.339245 22.4357736,8.35447029 C22.4444675,8.37944354 22.4521955,8.40536325 22.4590909,8.43162036 C22.4636017,8.4499762 22.4678602,8.4677552 22.4717297,8.48563619 C22.4766596,8.50725102 22.4808914,8.52984086 22.484507,8.55263585 C22.4947431,8.61807104 22.5,8.68376452 22.5,8.75 L22.5,23.75 C22.5,25.8210678 20.8210678,27.5 18.75,27.5 L3.75,27.5 C1.67893219,27.5 0,25.8210678 0,23.75 L0,3.75 C0,1.67893219 1.67893219,0 3.75,0 Z M12.5,2.5 L3.75,2.5 C3.05964406,2.5 2.5,3.05964406 2.5,3.75 L2.5,23.75 C2.5,24.4403559 3.05964406,25 3.75,25 L18.75,25 C19.4403559,25 20,24.4403559 20,23.75 L20,10 L13.75,10 C13.1027913,10 12.5704661,9.50812534 12.5064536,8.87780524 L12.5,8.75 L12.5,2.5 Z M16.25,18.75 C16.9403559,18.75 17.5,19.3096441 17.5,20 C17.5,20.6903559 16.9403559,21.25 16.25,21.25 L16.25,21.25 L6.25,21.25 C5.55964406,21.25 5,20.6903559 5,20 C5,19.3096441 5.55964406,18.75 6.25,18.75 L6.25,18.75 Z M16.25,13.75 C16.9403559,13.75 17.5,14.3096441 17.5,15 C17.5,15.6903559 16.9403559,16.25 16.25,16.25 L16.25,16.25 L6.25,16.25 C5.55964406,16.25 5,15.6903559 5,15 C5,14.3096441 5.55964406,13.75 6.25,13.75 L6.25,13.75 Z M8.75,8.75 C9.44035594,8.75 10,9.30964406 10,10 C10,10.6903559 9.44035594,11.25 8.75,11.25 L8.75,11.25 L6.25,11.25 C5.55964406,11.25 5,10.6903559 5,10 C5,9.30964406 5.55964406,8.75 6.25,8.75 L6.25,8.75 Z M15,4.268 L15,7.5 L18.233,7.5 L15,4.268 Z" id="path-17"></path>
        <path d="M13.75,0 C13.7941911,0 13.8378467,0.00229316871 13.8808541,0.00676700035 L13.75,0 C13.8162355,0 13.881929,0.00525694116 13.9465226,0.0155397695 C13.9701591,0.0191086024 13.992749,0.0233404213 14.0151161,0.0281708262 C14.0322448,0.0321398038 14.0500238,0.0363983451 14.0676885,0.0410407894 C14.0946367,0.0478045058 14.1205565,0.0555325238 14.1461088,0.0640632613 C14.160755,0.0693053936 14.1758776,0.0746759142 14.1908891,0.0803344975 C14.2187365,0.0904816017 14.2457589,0.101793784 14.2722804,0.114007418 C14.2843465,0.119888443 14.2963476,0.125640889 14.3082569,0.131585085 C14.337487,0.145899179 14.3659242,0.161546133 14.3936604,0.1782393 C14.4041654,0.184752089 14.415414,0.191741556 14.4265562,0.198913179 C14.4582781,0.219233101 14.4881961,0.24048749 14.5171,0.262983615 C14.5214712,0.266446375 14.5260487,0.270054306 14.530603,0.273695915 C14.5355396,0.277595341 14.5403427,0.281499913 14.5451161,0.285439232 L14.6338835,0.366116524 L14.6338835,0.366116524 L22.1338835,7.86611652 C22.1964743,7.92870737 22.2524583,7.99790512 22.3006994,8.07257393 C22.307848,8.08394838 22.3144473,8.0945475 22.3208831,8.10523728 C22.3376983,8.1327042 22.3537499,8.16181144 22.3686469,8.19159666 C22.3743591,8.2036524 22.3801116,8.21565349 22.3856703,8.22774155 C22.3982062,8.25424114 22.4095184,8.28126351 22.4198899,8.30874741 C22.4253241,8.3241224 22.4306946,8.339245 22.4357736,8.35447029 C22.4444675,8.37944354 22.4521955,8.40536325 22.4590909,8.43162036 C22.4636017,8.4499762 22.4678602,8.4677552 22.4717297,8.48563619 C22.4766596,8.50725102 22.4808914,8.52984086 22.484507,8.55263585 C22.4947431,8.61807104 22.5,8.68376452 22.5,8.75 L22.5,23.75 C22.5,25.8210678 20.8210678,27.5 18.75,27.5 L3.75,27.5 C1.67893219,27.5 0,25.8210678 0,23.75 L0,3.75 C0,1.67893219 1.67893219,0 3.75,0 Z M12.5,2.5 L3.75,2.5 C3.05964406,2.5 2.5,3.05964406 2.5,3.75 L2.5,23.75 C2.5,24.4403559 3.05964406,25 3.75,25 L18.75,25 C19.4403559,25 20,24.4403559 20,23.75 L20,10 L13.75,10 C13.1027913,10 12.5704661,9.50812534 12.5064536,8.87780524 L12.5,8.75 L12.5,2.5 Z M16.25,18.75 C16.9403559,18.75 17.5,19.3096441 17.5,20 C17.5,20.6903559 16.9403559,21.25 16.25,21.25 L16.25,21.25 L6.25,21.25 C5.55964406,21.25 5,20.6903559 5,20 C5,19.3096441 5.55964406,18.75 6.25,18.75 L6.25,18.75 Z M16.25,13.75 C16.9403559,13.75 17.5,14.3096441 17.5,15 C17.5,15.6903559 16.9403559,16.25 16.25,16.25 L16.25,16.25 L6.25,16.25 C5.55964406,16.25 5,15.6903559 5,15 C5,14.3096441 5.55964406,13.75 6.25,13.75 L6.25,13.75 Z M8.75,8.75 C9.44035594,8.75 10,9.30964406 10,10 C10,10.6903559 9.44035594,11.25 8.75,11.25 L8.75,11.25 L6.25,11.25 C5.55964406,11.25 5,10.6903559 5,10 C5,9.30964406 5.55964406,8.75 6.25,8.75 L6.25,8.75 Z M15,4.268 L15,7.5 L18.233,7.5 L15,4.268 Z" id="path-19"></path>
        <path d="M0.000470945295,5 L9.43033658e-05,24.969697 C-5.20814222e-05,27.7311207 2.23848195,29.9697392 4.9999057,29.9697913 C4.99993713,29.9697913 4.99996857,29.9697913 5,29.969697 L27.9387912,29.969697 C30.700215,29.969697 32.9387912,27.7311207 32.9387912,24.969697 L32.9387912,11.4867062 C32.9387912,8.7252825 30.700215,6.48670625 27.9387912,6.48670625 L18.8885158,6.48670625 C17.2599109,6.48670625 15.7333549,5.69352376 14.7971736,4.3608878 L13.2270299,2.12581844 C12.2908487,0.79318249 10.7642927,-5.62824038e-15 9.1356878,0 L5.00056525,0 C2.23917833,9.43042556e-05 0.000617331167,2.23861308 0.000470945295,5 Z" id="path-21"></path>
        <filter x="-15.2%" y="-16.7%" width="142.5%" height="146.7%" filterUnits="objectBoundingBox" id="filter-22">
            <feOffset dx="2" dy="2" in="SourceAlpha" result="shadowOffsetOuter1"></feOffset>
            <feGaussianBlur stdDeviation="2" in="shadowOffsetOuter1" result="shadowBlurOuter1"></feGaussianBlur>
            <feColorMatrix values="0 0 0 0 0   0 0 0 0 0   0 0 0 0 0  0 0 0 0.5 0" type="matrix" in="shadowBlurOuter1"></feColorMatrix>
        </filter>
    </defs>
    <g id="2041-10-12-12-10_TargetStateOfAGitProjectLaunch" stroke="none" stroke-width="1" fill="none" fill-rule="evenodd">
        <rect fill="#FFFFFF" x="0" y="0" width="800" height="600"></rect>
        <polygon id="Triangle" fill="url(#linearGradient-1)" transform="translate(545.000000, 315.500000) rotate(-270.000000) translate(-545.000000, -315.500000) " points="545 285 764 346 326 346"></polygon>
        <rect id="Rectangle" stroke="#0055C2" stroke-width="3" fill="#FFFFFF" x="648.5" y="245.5" width="48" height="48" rx="8"></rect>
        <text id="Target-State-Of-A-Gi" fill-rule="nonzero" font-family="Helvetica" font-size="18" font-weight="normal" fill="#0055C2">
            <tspan x="10" y="23">Target State Of A Git Project Launch</tspan>
        </text>
        <g id="git" transform="translate(661.000000, 9.000000)">
            <path d="M46.8658496,11.2380575 C45.1623498,11.2380575 43.8939053,12.0891281 43.8939053,14.1376499 C43.8939053,15.6808485 44.7297841,16.7522856 46.7743573,16.7522856 C48.5071097,16.7522856 49.6846843,15.7131436 49.6846843,14.073693 C49.6846843,12.2157755 48.6309666,11.2380575 46.8658496,11.2380575 L46.8658496,11.2380575 Z M43.4607172,25.7011913 C43.0574041,26.2046147 42.6553359,26.7397 42.6553359,27.3710373 C42.6553359,28.6305458 44.2337339,29.0092215 46.4027864,29.0092215 C48.1984009,29.0092215 50.6450424,28.8813076 50.6450424,27.1823327 C50.6450424,26.1723196 49.4674678,26.1102624 47.9805621,26.0152768 L43.4607172,25.7011913 Z M52.6255087,11.3330431 C53.1825537,12.0580995 53.7719634,13.0662128 53.7719634,14.5156924 C53.7719634,18.0124273 51.0776081,20.0603158 47.1764255,20.0603158 C46.1843252,20.0603158 45.2862067,19.9349349 44.7291617,19.7772589 L43.7071863,21.4471049 L46.7413702,21.6351763 C52.0989611,21.9828234 55.257002,22.1404995 55.257002,26.3293624 C55.257002,29.9533779 52.1300809,32 46.7413702,32 C41.1360655,32 39,30.5505204 39,28.0625322 C39,26.6440812 39.6199071,25.8898959 40.7034998,24.848221 C39.680902,24.4087545 39.3410734,23.6216409 39.3410734,22.7705703 C39.3410734,22.0771758 39.6815244,21.4471049 40.2391918,20.8480627 C40.7968593,20.2502869 41.416144,19.6506115 42.1586633,18.9578502 C40.6412601,18.2017651 39.4960502,16.563581 39.4960502,14.231369 C39.4960502,10.6086199 41.8493321,8.12063165 46.5870158,8.12063165 C47.9189448,8.12063165 48.7249485,8.24537935 49.436348,8.43598369 L55.4754632,8.43598369 L55.4754632,11.1133099 L52.6255087,11.3330431 L52.6255087,11.3330431 Z M60.9233016,5.60858036 C59.1575621,5.60858036 58.1355867,4.56817192 58.1355867,2.77167847 C58.1355867,0.977717972 59.1575621,0 60.9233016,0 C62.7195385,0 63.7408917,0.977084735 63.7408917,2.77167847 C63.7415139,4.56817192 62.7195385,5.60858036 60.9233016,5.60858036 Z M56.9275147,24.5423675 L56.9275147,22.0543792 L58.50778,21.8340127 C58.9409681,21.770689 59.0025853,21.6763367 59.0025853,21.2026754 L59.0025853,11.9403174 C59.0025853,11.59457 58.9104706,11.372937 58.5998947,11.279218 L56.9275147,10.6801757 L57.2679657,8.12949697 L63.6792742,8.12949697 L63.6792742,21.2033087 C63.6792742,21.7086318 63.7091492,21.770689 64.174702,21.834646 L65.7543448,22.0550125 L65.7543448,24.5430008 L56.9275147,24.5430008 L56.9275147,24.5423675 Z M78,23.32022 C76.6674487,23.9806863 74.7174798,24.5803617 72.9511179,24.5803617 C69.2665294,24.5803617 67.8736056,23.0694582 67.8736056,19.5074999 L67.8736056,11.2532552 C67.8736056,11.0651838 67.8736056,10.9385364 67.6252693,10.9385364 L65.458084,10.9385364 L65.458084,8.13456287 C68.1841815,7.81857759 69.2671518,6.43242174 69.6076028,2.99837733 L72.5502944,2.99837733 L72.5502944,7.47346341 C72.5502944,7.69319666 72.5502944,7.78881545 72.7980083,7.78881545 L77.1641212,7.78881545 L77.1641212,10.9391697 L72.5502944,10.9391697 L72.5502944,18.4683579 C72.5502944,20.3269086 72.9841049,21.0513318 74.6558625,21.0513318 C75.5241059,21.0513318 76.4209796,20.8315985 77.1641212,20.5479083 L78,23.32022 L78,23.32022 Z" id="Shape" fill="#31251C" fill-rule="nonzero"></path>
            <path d="M32.3772539,15.0299695 L17.9690664,0.622277028 C17.140005,-0.207425676 15.7941261,-0.207425676 14.9644314,0.622277028 L11.9724635,3.61427365 L15.7668919,7.40937182 C16.6497884,7.11169223 17.6606226,7.31120089 18.3636464,8.01486479 C19.0704703,8.72232885 19.2687104,9.74203981 18.9634334,10.6274783 L22.6210571,14.2851371 C23.5052204,13.9804906 24.5268216,14.1774658 25.2336455,14.8849299 C26.221679,15.8723394 26.221679,17.4728423 25.2336455,18.4608852 C24.2449787,19.4489281 22.6451246,19.4489281 21.6570912,18.4608852 C20.914166,17.7173195 20.7304932,16.6260388 21.1067059,15.7108324 L17.6954571,12.2995509 L17.6948238,21.2768075 C17.9361319,21.3958793 18.1628729,21.5542195 18.3636464,21.7543616 C19.3516798,22.7417711 19.3516798,24.3416406 18.3636464,25.3309502 C17.375613,26.3183598 15.7744921,26.3183598 14.7877254,25.3309502 C13.799692,24.3416406 13.799692,22.7417711 14.7877254,21.7543616 C15.0322003,21.5105176 15.3140432,21.3262096 15.6155201,21.2027043 L15.6155201,12.1424774 C15.3140432,12.0196054 15.0322003,11.8359308 14.7877254,11.5908201 C14.0391001,10.842821 13.8592273,9.74520661 14.2430403,8.82620003 L10.5024471,5.08430417 L0.622746073,14.9634666 C-0.207582024,15.7938027 -0.207582024,17.1396945 0.622746073,17.9700305 L15.0309336,32.377723 C15.8606284,33.2074257 17.2058739,33.2074257 18.0368353,32.377723 L32.3772539,18.0359 C33.207582,17.2061973 33.207582,15.8596722 32.3772539,15.0299695 L32.3772539,15.0299695 Z" id="Path" fill="#F34F29" fill-rule="nonzero"></path>
            <polygon id="Path" points="1.12409637e-15 0 79 0 79 33 0 33"></polygon>
        </g>
        <g id="github-copy" transform="translate(748.000000, 3.000000)" fill="#000000" fill-rule="nonzero">
            <path d="M22.9998956,0 C11.7204239,0.000469179946 2.10590223,8.20619911 0.299077857,19.3745239 C-1.50774651,30.5428487 5.02642435,41.3773525 15.7268887,44.9558377 C16.8767785,45.1577383 17.3079872,44.4656891 17.3079872,43.8600567 C17.3079872,43.3121892 17.279217,41.4954764 17.279217,39.5634644 C11.5009978,40.6303861 10.0061411,38.1505528 9.54618516,36.8529173 C9.03580825,35.5908656 8.22674528,34.472458 7.1889111,33.5943411 C6.38398825,33.161796 5.23409847,32.0948512 7.16014086,32.066061 C8.65271236,32.2285228 9.97246422,33.1110528 10.6960749,34.4305721 C11.3313462,35.5753322 12.3946869,36.4194146 13.6513665,36.7764896 C14.9080461,37.1335647 16.2547288,36.9742705 17.3941369,36.3337708 C17.4936968,35.160991 18.0147545,34.0644705 18.8602924,33.2483742 C13.7432829,32.6716473 8.39629538,30.6818473 8.39629538,21.8580182 C8.36397821,19.5652878 9.20739391,17.3470389 10.7535694,15.6582042 C10.0504849,13.6655423 10.1327507,11.4787423 10.9835474,9.54489918 C10.9835474,9.54489918 12.9095438,8.93931288 17.3079412,11.9094794 C21.0710431,10.8713094 25.0437372,10.8713094 28.806839,11.9094794 C33.2051215,8.9104996 35.1312329,9.54489918 35.1312329,9.54489918 C35.982145,11.4787155 36.0644125,13.6655602 35.3612108,15.6582042 C36.9120423,17.3441484 37.7561944,19.564334 37.7184849,21.8580182 C37.7184849,30.7107067 32.3427041,32.6716473 27.2257406,33.2483742 C28.336287,34.3774629 28.9028084,35.9349635 28.7780918,37.5161532 C28.7780918,40.6016882 28.7493216,43.0815215 28.7493216,43.8601489 C28.7493216,44.4657352 29.1805302,45.1866208 30.33042,44.95593 C41.0111617,41.3485442 47.5153422,30.5121007 45.6961446,19.3555019 C43.876947,8.19890308 34.2698179,0.00588375885 22.9998956,0 Z" id="Path"></path>
        </g>
        <g id="bloovee-winner-logo" transform="translate(725.000000, 580.000000)">
            <path d="M13,13.7751507 C13,14.396312 13.4732558,14.8717809 14.0514961,14.8717809 C14.6474304,14.8717809 15.1204503,14.3968042 15.1204503,13.7751507 L15.1204503,2.09687626 C15.1204503,1.49368045 14.6474304,1 14.0514961,1 C13.4557977,1 13,1.49392656 13,2.09687626 L13,13.7751507 Z M21.7920364,15 C24.6483217,15 26.751078,12.7149437 26.751078,9.97312215 L26.751078,9.93645297 C26.751078,7.17641992 24.6657798,4.92778666 21.8269526,4.92778666 C18.9881254,4.92778666 16.885369,7.212843 16.885369,9.97312215 L16.885369,10.0095452 C16.885369,12.7516128 18.9706673,15 21.7920364,15 Z M21.8269526,13.0621935 C20.179994,13.0621935 19.0055834,11.6547366 19.0055834,9.97312215 L19.0055834,9.93645297 C19.0055834,8.25459244 20.0919958,6.86534709 21.7920364,6.86534709 C23.456689,6.86534709 24.6306277,8.27305008 24.6306277,9.97312215 L24.6306277,10.0095452 C24.6306277,11.6731942 23.5444513,13.0621935 21.8269526,13.0621935 Z M32.8092717,15 C35.665557,15 37.7683133,12.7149437 37.7683133,9.97312215 L37.7683133,9.93645297 C37.7683133,7.17641992 35.6830151,4.92778666 32.8441878,4.92778666 C30.0053606,4.92778666 27.9026043,7.212843 27.9026043,9.97312215 L27.9026043,10.0095452 C27.9026043,12.7516128 29.9879025,15 32.8092717,15 Z M32.8441878,13.0621935 C31.1969933,13.0621935 30.0228187,11.6547366 30.0228187,9.97312215 L30.0228187,9.93645297 C30.0228187,8.25459244 31.109231,6.86534709 32.8092717,6.86534709 C34.4739243,6.86534709 35.647863,8.27305008 35.647863,9.97312215 L35.647863,10.0095452 C35.647863,11.6731942 34.5614506,13.0621935 32.8441878,13.0621935 Z M44.1416963,13.9944275 L47.2261164,6.6096472 C47.2784906,6.49988574 47.3487948,6.28060893 47.3487948,6.07954366 C47.3487948,5.47610175 46.8929971,5.01933658 46.3147568,5.01933658 C45.7539746,5.01933658 45.4737015,5.40300947 45.3158709,5.78692847 L42.8976893,12.2215093 L40.5144239,5.82335156 C40.3393711,5.36634029 40.041404,5.01933658 39.4629278,5.01933658 C38.8846875,5.01933658 38.4116676,5.53098247 38.4116676,6.07954366 C38.4116676,6.28060893 38.4817358,6.46346265 38.534346,6.62785874 L41.6182943,13.9944275 C41.8638872,14.5796579 42.2491448,14.9633308 42.8273851,14.9633308 L42.9326055,14.9633308 C43.5108458,14.9633308 43.8965752,14.5612003 44.1416963,13.9944275 Z M50.0949054,9.27837643 C50.2876522,7.77961573 51.1987758,6.73762019 52.4956289,6.73762019 C53.8974665,6.73762019 54.7036056,7.8524619 54.8437422,9.27837643 L50.0949054,9.27837643 Z M56.070527,13.72027 C56.2281217,13.5558739 56.3508002,13.3181395 56.3508002,13.0439819 C56.3508002,12.5320899 55.9830006,12.1481709 55.5095089,12.1481709 C55.2641519,12.1481709 55.1242513,12.2215093 54.9664207,12.3492362 C54.3704864,12.8611282 53.6695676,13.1901665 52.7759021,13.1901665 C51.4089807,13.1901665 50.3402624,12.3128131 50.1123635,10.7409601 L55.9126964,10.7409601 C56.4560206,10.7409601 56.9115824,10.3021604 56.9115824,9.68050697 C56.9115824,7.45057746 55.4568987,4.92778666 52.513087,4.92778666 C49.8672425,4.92778666 47.9919132,7.19438536 47.9919132,9.95466451 L47.9919132,9.9913337 C47.9919132,12.9708897 50.0597533,15 52.7409859,15 C54.1779755,15 55.2292357,14.5063195 56.070527,13.72027 Z M60.1833231,9.27837643 C60.3763058,7.77961573 61.2871935,6.73762019 62.5842825,6.73762019 C63.9858841,6.73762019 64.7920233,7.8524619 64.9321598,9.27837643 L60.1833231,9.27837643 Z M66.1589447,13.72027 C66.3167752,13.5558739 66.4394537,13.3181395 66.4394537,13.0439819 C66.4394537,12.5320899 66.0714183,12.1481709 65.5981624,12.1481709 C65.3528055,12.1481709 65.2126689,12.2215093 65.0548383,12.3492362 C64.4591399,12.8611282 63.7582212,13.1901665 62.8643197,13.1901665 C61.4976342,13.1901665 60.4289159,12.3128131 60.2007812,10.7409601 L66.0011141,10.7409601 C66.5444382,10.7409601 67,10.3021604 67,9.68050697 C67,7.45057746 65.5455522,4.92778666 62.6015046,4.92778666 C59.9556601,4.92778666 58.0805667,7.19438536 58.0805667,9.95466451 L58.0805667,9.9913337 C58.0805667,12.9708897 60.1484069,15 62.8294035,15 C64.2663932,15 65.3178893,14.5063195 66.1589447,13.72027 L66.1589447,13.72027 Z" id="Fill-1" fill="#030060"></path>
            <g id="Group-4">
                <mask id="mask-3" fill="white">
                    <use xlink:href="#path-2"></use>
                </mask>
                <g id="Clip-3"></g>
                <path d="M8.68744595,14.5405413 C10.6544909,13.5649687 12,11.5915112 12,9.31636202 C12,6.07252388 9.26504479,3.44227578 5.89152197,3.44227578 C4.52034181,3.44227578 3.25480793,3.87689217 2.23537065,4.61058921 L2.23537065,1.05770107 C2.23537065,0.476155373 1.74046224,0 1.11695169,0 C0.493934821,0 0.0167986821,0.476630104 0.0167986821,1.05770107 L0.0167986821,1.80184219 L0,9.32158406 C-0.0041824725,11.2003327 0.951817666,12.865215 2.41753644,13.8939574 C2.4777647,13.9362085 2.55848043,13.9312238 2.6127846,13.8823265 C2.66758244,13.8334292 2.6779496,13.7558106 2.63746831,13.6950451 C0.724974359,10.8146136 1.16014819,5.53963813 5.89176881,5.53963813 C8.05899866,5.53963813 9.80709909,7.22944376 9.81623206,9.31351363 C9.82240299,10.8599505 9.11620201,12.0365717 8.19549958,12.7781018 C6.36026565,14.2561773 3.64974731,12.6382934 4.49738595,10.4697214 C4.5894562,10.2335427 4.71879884,9.9959397 4.88664808,9.76189723 L5.12361171,9.47705853 C5.19766284,9.39967734 5.25048599,9.29903433 5.2146946,9.19411874 C5.01401603,8.62800181 3.46832203,8.97526767 3.04005964,10.0315445 C3.34292878,9.79631524 3.65986763,9.66433998 3.96940137,9.71489885 C2.38890334,11.275815 3.44141679,13.9563846 5.46005069,14.7513219 C6.40494316,15.1232738 7.55964718,15.0976383 8.68744595,14.5405413" id="Fill-2" fill="url(#linearGradient-4)" mask="url(#mask-3)"></path>
            </g>
        </g>
        <text id="Ready-to-start-a-new" font-family="Helvetica-Bold, Helvetica" font-size="21" font-weight="bold" fill="#0055C2">
            <tspan x="599.224365" y="310">Ready to start a </tspan>
            <tspan x="595.743164" y="335">new project with </tspan>
            <tspan x="615.010254" y="360">Git &amp; GitHub</tspan>
        </text>
        <text id="Linked" font-family="Helvetica-Bold, Helvetica" font-size="21" font-weight="bold" fill="#0055C2">
            <tspan x="227" y="308">Linked</tspan>
        </text>
        <text id="The-same-directory-a" font-family="Helvetica" font-size="21" font-weight="normal" fill="#0055C2">
            <tspan x="403" y="296">The same </tspan>
            <tspan x="403" y="321">directory and </tspan>
            <tspan x="403" y="346">file structure</tspan>
        </text>
        <text id="Remote-Repository" font-family="Helvetica-Bold, Helvetica" font-size="21" font-weight="bold" fill="#199ABD">
            <tspan x="72.7312012" y="125">Remote Repository</tspan>
        </text>
        <text id="Local-Repository" font-family="Helvetica-Bold, Helvetica" font-size="21" font-weight="bold" fill="#0055C2">
            <tspan x="83.8156738" y="486">Local Repository</tspan>
        </text>
        <rect id="Rectangle-Copy-13" fill="#A1E0E9" x="58" y="150" width="222" height="115" rx="34"></rect>
        <rect id="Rectangle-Copy-14" fill="#C5DDFF" x="58" y="342" width="222" height="115" rx="34"></rect>
        <g id="Group-Copy-3" transform="translate(190.000000, 173.000000)" fill-rule="nonzero">
            <path d="M52.7178001,8.95934172 C50.7354801,3.06389158 38.5564316,0 26.5131586,0 C14.4698855,0 2.42661241,3.03484995 0.335672101,8.87221684 C0.122867274,9.21687616 0.00954490693,9.62086038 0.00981127348,10.0338819 L0.00981127348,63.6592449 C-0.00327042449,63.7749902 -0.00327042449,63.8919992 0.00981127348,64.0077444 C0.00323796979,64.1092686 0.00323796979,64.2111574 0.00981127348,64.3126815 C0.00981127348,71.3262343 13.3429501,75 26.5131586,75 C39.683367,75 52.9893508,71.3262343 52.9893508,64.3126815 C52.9959186,64.2160035 52.9959186,64.1189433 52.9893508,64.0222652 C53.0035497,63.9017349 53.0035497,63.7797753 52.9893508,63.6592449 L52.9893508,10.0338819 C52.9962829,9.65536444 52.9020779,9.28259056 52.7178001,8.95934172 Z" id="Path" fill="url(#linearGradient-5)"></path>
            <path d="M26.4975207,0 C43.659587,0 52.9871459,5.2423549 52.9871459,7.93634283 C53.0042847,8.02017707 53.0042847,8.1073453 52.9871459,8.19117953 C52.4252448,10.9579779 43.0816315,15.9090909 26.4975207,15.9090909 C9.91340996,15.9090909 0.569796724,10.9033701 0.00789558405,8.19117953 C-0.00263186135,8.12497025 -0.00263186135,8.05715998 0.00789558405,7.9909507 C0.00789558405,5.2423549 9.33545451,0 26.4975207,0 Z" id="Path" fill="#199ABD"></path>
        </g>
        <g id="Group" transform="translate(190.000000, 361.000000)" fill-rule="nonzero">
            <path d="M52.7178001,8.95934172 C50.7354801,3.06389158 38.5564316,0 26.5131586,0 C14.4698855,0 2.42661241,3.03484995 0.335672101,8.87221684 C0.122867274,9.21687616 0.00954490693,9.62086038 0.00981127348,10.0338819 L0.00981127348,63.6592449 C-0.00327042449,63.7749902 -0.00327042449,63.8919992 0.00981127348,64.0077444 C0.00323796979,64.1092686 0.00323796979,64.2111574 0.00981127348,64.3126815 C0.00981127348,71.3262343 13.3429501,75 26.5131586,75 C39.683367,75 52.9893508,71.3262343 52.9893508,64.3126815 C52.9959186,64.2160035 52.9959186,64.1189433 52.9893508,64.0222652 C53.0035497,63.9017349 53.0035497,63.7797753 52.9893508,63.6592449 L52.9893508,10.0338819 C52.9962829,9.65536444 52.9020779,9.28259056 52.7178001,8.95934172 Z" id="Path" fill="url(#linearGradient-6)"></path>
            <path d="M26.4975207,0 C43.659587,0 52.9871459,5.2423549 52.9871459,7.93634283 C53.0042847,8.02017707 53.0042847,8.1073453 52.9871459,8.19117953 C52.4252448,10.9579779 43.0816315,15.9090909 26.4975207,15.9090909 C9.91340996,15.9090909 0.569796724,10.9033701 0.00789558405,8.19117953 C-0.00263186135,8.12497025 -0.00263186135,8.05715998 0.00789558405,7.9909507 C0.00789558405,5.2423549 9.33545451,0 26.4975207,0 Z" id="Path" fill="#0055C2"></path>
        </g>
        <g id="laptop-(2)-copy-5" transform="translate(82.000000, 388.000000)" fill-rule="nonzero">
            <g id="laptop-(2)-copy-2">
                <path d="M48.0828478,0 L4.9171522,0 C2.92949465,0 1.325,1.79956354 1.325,4.02887359 L1.325,30.2568407 C1.325,31.2103408 1.62434602,32.0698338 2.11527348,32.7681719 C2.76186088,33.6948128 3.77963734,34.2857143 4.9171522,34.2857143 L48.1906124,34.2857143 C49.268258,34.2454255 50.2381391,33.6679537 50.8847265,32.7816015 C51.375654,32.0832634 51.675,31.2103408 51.675,30.2568407 L51.675,4.02887359 C51.675,1.79956354 50.0585315,0 48.0828478,0 Z M4.9171522,31.5997986 C4.25859096,31.5997986 3.71976813,30.9954675 3.71976813,30.2568407 L3.71976813,4.02887359 C3.71976813,3.27681719 4.25859096,2.68591573 4.9171522,2.68591573 L48.0828478,2.68591573 C48.741409,2.68591573 49.2802319,3.27681719 49.2802319,4.02887359 L49.2802319,30.2568407 C49.2802319,30.9954675 48.741409,31.5997986 48.0828478,31.5997986 L4.9171522,31.5997986 Z" id="Shape" fill="#1576ED"></path>
                <path d="M52.9181255,54.3475907 L50.1244846,37.9750947 C49.9588538,37.0005414 49.5502976,36.1512878 48.9871526,35.510867 C48.3246291,34.7451466 47.4523064,34.2857143 46.5026894,34.2857143 L6.48626857,34.2857143 C5.54769358,34.2857143 4.66432888,34.7451466 4.01284741,35.4969449 C3.43866036,36.1373656 3.03010419,36.9866192 2.86447331,37.9750947 L0.0818745093,54.3475907 C-0.150008724,55.7258875 0.115000685,57.1598732 0.821692444,58.2597262 C1.5283842,59.3595792 2.57737978,60 3.70366977,60 L49.2963302,60 C50.4226202,60 51.4716158,59.3595792 52.1783076,58.2597262 C52.8849993,57.1598732 53.1500087,55.7258875 52.9181255,54.3475907 Z M50.4557464,56.5055302 C50.1686529,56.9510403 49.7490546,57.2155619 49.2963302,57.2155619 L3.70366977,57.2155619 C3.25094536,57.2155619 2.82030507,56.9510403 2.53321155,56.5055302 C2.25716008,56.0600201 2.14673949,55.4892103 2.23507596,54.9323227 L5.02871682,38.5598267 C5.17226358,37.6966509 5.79061887,37.0701524 6.48626857,37.0701524 L46.5026894,37.0701524 C47.2093811,37.0701524 47.8277364,37.6966509 47.9712832,38.5598267 L50.753882,54.9323227 C50.8532605,55.4892103 50.7428399,56.0600201 50.4557464,56.5055302 Z" id="Shape" fill="#1576ED"></path>
                <path d="M48.8310828,39.2354647 C48.6790635,38.3467538 48.0620897,37.7134331 47.3491702,37.7142866 L6.96983698,37.7142866 C6.26787838,37.7142866 5.64391517,38.3540354 5.49906657,39.2354647 L2.68008994,55.9541889 C2.59095234,56.522853 2.70237434,57.1057337 2.98092934,57.560665 C3.27062655,58.0155963 3.70517235,58.2857126 4.16200255,58.2857126 L50.1681468,58.2857126 C50.624977,58.2857126 51.0483806,58.0155963 51.3380778,57.560665 C51.6277751,57.1057337 51.7391971,56.522853 51.6389173,55.9541889 L48.8310828,39.2354647 Z M8.7860156,41.5527709 L45.5329916,41.5527709 C46.1569548,41.5527709 46.6472116,42.192518 46.6472116,42.9744311 C46.6472116,43.7563442 46.1569548,44.3960913 45.5329916,44.3960913 L8.7860156,44.3960913 C8.1731946,44.3960913 7.67179559,43.7563442 7.67179559,42.9744311 C7.67179559,42.192518 8.1731946,41.5527709 8.7860156,41.5527709 Z M29.7890628,52.7554534 L6.14531418,52.7554534 C5.53249317,52.7554534 5.03109416,52.1299229 5.03109416,51.3337932 C5.03109416,50.5518801 5.53249317,49.912133 6.14531418,49.912133 L29.7890628,49.912133 C30.4018838,49.912133 30.9032828,50.5518801 30.9032828,51.3337932 C30.9032828,52.1299229 30.4018838,52.7554534 29.7890628,52.7554534 L29.7890628,52.7554534 Z M46.8477712,52.7554534 L36.3518187,52.7554534 C35.7389977,52.7554534 35.2375987,52.1299229 35.2375987,51.3337932 C35.2375987,50.5518801 35.7389977,49.912133 36.3518187,49.912133 L46.8477712,49.912133 C47.4605922,49.912133 47.9619912,50.5518801 47.9619912,51.3337932 C47.9619912,52.1299229 47.4605922,52.7554534 46.8477712,52.7554534 Z" id="Shape" fill="#D0E8F9"></path>
                <path d="M46.4014794,40.9514141 C46.4014794,41.7889775 45.9172852,42.4742567 45.3010382,42.4742567 L9.00848689,42.4742567 C8.40324423,42.4742567 7.90804568,41.7889775 7.90804568,40.9514141 C7.90804568,40.1138506 8.40324423,39.4285714 9.00848689,39.4285714 L45.3010382,39.4285714 C45.9172852,39.4285714 46.4014794,40.1138506 46.4014794,40.9514141 Z M30.852245,49.9057288 C30.852245,50.7585207 30.3570465,51.4285714 29.7518038,51.4285714 L6.40044121,51.4285714 C5.79519855,51.4285714 5.3,50.7585207 5.3,49.9057288 C5.3,49.0681653 5.79519855,48.3828861 6.40044121,48.3828861 L29.7518038,48.3828861 C30.3570465,48.3828861 30.852245,49.0681653 30.852245,49.9057288 Z M47.7,49.9057288 C47.7,50.7585207 47.2048015,51.4285714 46.5995588,51.4285714 L36.2334025,51.4285714 C35.6281599,51.4285714 35.1329613,50.7585207 35.1329613,49.9057288 C35.1329613,49.0681653 35.6281599,48.3828861 36.2334025,48.3828861 L46.5995588,48.3828861 C47.2048015,48.3828861 47.7,49.0681653 47.7,49.9057288 Z" id="Shape" fill="#1576ED"></path>
            </g>
        </g>
        <g id="Rectangle-Copy-48" transform="translate(379.003119, 189.087931) rotate(-270.000000) translate(-379.003119, -189.087931) ">
            <use fill="black" fill-opacity="1" filter="url(#filter-8)" xlink:href="#path-7"></use>
            <use stroke="#0055C2" stroke-width="1" fill="#FFFFFF" fill-rule="evenodd" xlink:href="#path-7"></use>
        </g>
        <g id="Rectangle-Copy-49" transform="translate(379.003119, 436.087931) rotate(-270.000000) translate(-379.003119, -436.087931) ">
            <use fill="black" fill-opacity="1" filter="url(#filter-10)" xlink:href="#path-9"></use>
            <use stroke="#0055C2" stroke-width="1" fill="#FFFFFF" fill-rule="evenodd" xlink:href="#path-9"></use>
        </g>
        <g id="Group-2-Copy" transform="translate(71.000000, 190.000000)" fill-rule="nonzero">
            <path d="M73,33.774437 C73,41.9939923 66.6718431,48.6818182 58.8912303,48.6818182 L16.255888,48.6818182 C12.5276944,48.7013852 8.94423417,47.130565 6.29097237,44.3132969 C3.63548393,41.5521349 2.13938461,37.7471792 2.14705882,33.774437 C2.14705882,27.5266684 5.81056623,21.9890452 11.3239992,19.8193244 C14.0272368,8.33520213 23.5427199,0.218710037 34.55437,0.00434302035 C45.5660201,-0.210023996 55.3483126,7.53079265 58.4361087,18.9021792 C58.7170479,18.8825369 58.878588,18.8825369 58.8912303,18.8825369 C59.1019347,18.8825369 59.3126392,18.8825369 59.5205342,18.8976463 C63.0238592,19.0445105 66.350666,20.5899815 68.8519318,23.2325552 C71.5036847,25.9980963 73,29.801527 73,33.774437 Z" id="Path" fill="#C5DDFF"></path>
            <path d="M10.7352941,18.5454545 C10.6217217,19.0273238 10.5135576,19.5091931 10.4162098,20.0040858 C9.79967403,20.2775792 9.19395466,20.5575843 8.58823529,20.8636364 C9.280486,20.0605209 9.99617227,19.2877937 10.7352941,18.5454545 Z" id="Path" fill="#607D8B"></path>
            <path d="M45.0882353,23.1268049 C46.1065883,22.0735265 47.3268655,21.1719918 48.6982822,20.4597202 C50.089808,19.7376505 51.609171,19.208359 53.1987294,18.891926 C56.4316251,18.2638793 59.8151682,18.4935188 62.8878882,19.5495246 C65.9598131,20.5900143 68.5962285,22.3784359 70.4621375,24.6875433 C71.377941,25.8295907 72.06953,27.089014 72.5102253,28.4172284 C72.939741,29.7302208 73.0885228,31.0974108 72.9495785,32.4545455 C72.6866945,29.8157204 71.5264317,27.2973366 69.6084892,25.2026152 C67.7281255,23.1499511 65.2341963,21.5576329 62.3833838,20.5895465 C59.5391833,19.6156376 56.4311512,19.3264726 53.4042064,19.7541422 C50.3186664,20.2132555 47.4418849,21.3799759 45.0882353,23.1268049 L45.0882353,23.1268049 Z" id="Path" fill="#7BB2FF"></path>
            <path d="M8.58823529,23.1975842 C8.73606239,23.1177009 8.8851862,23.0409502 9.03690348,22.965766 C8.88648293,23.0393839 8.73606239,23.1177009 8.58823529,23.1975842 Z M10.2402679,20.0607396 C10.3388193,19.7687772 10.4434221,19.4768147 10.5540763,19.1848523 C10.4434221,19.4719487 10.3388193,19.7639112 10.2402679,20.0607396 Z M17.1764706,9.27272727 C16.9802323,9.45179757 16.7865874,9.6342741 16.5955361,9.82015686 C16.7848585,9.63768033 16.983258,9.45228418 17.1764706,9.27272727 Z" id="Shape" fill="#55717C"></path>
            <path d="M66.5588235,46.7328509 C63.9162539,49.4815336 60.4226931,51.0082423 56.7945426,51 L14.1213311,51 C11.5194827,51.0099261 8.96533365,50.2279628 6.73871933,48.7396876 C6.62155733,48.6609271 6.50626992,48.5811304 6.39285711,48.5002973 C6.27897565,48.4194642 6.16509419,48.3355222 6.05261867,48.2500256 C5.94014315,48.1645291 5.8361033,48.0821415 5.7306575,47.996645 L5.71940995,47.9873181 C5.60834037,47.8987126 5.50008269,47.8069982 5.391825,47.7137292 C5.28356731,47.6204603 5.18796312,47.5349638 5.08673516,47.4432493 L5.04033901,47.4012783 C4.96863586,47.3344355 4.89974461,47.2691473 4.82804147,47.1991956 L4.7043184,47.0810549 C4.64667469,47.0250936 4.59184288,46.9706867 4.53560512,46.9116164 C4.40485233,46.7810398 4.27550549,46.6442454 4.14756458,46.5058965 C1.48971751,43.6651776 -0.00771065718,39.7505904 0,35.6633822 C0,35.5436871 0,35.423992 0,35.3058513 C0,35.2265727 0,35.1504031 0,35.0633521 C0,34.8628238 0.0169011885,34.6669591 0.0323665722,34.4679853 C0.0323665722,34.3700529 0.0464260119,34.2705661 0.0562676198,34.1726337 C0.0661092276,34.0747013 0.0703270595,34.0171854 0.0801686673,33.92858 C0.0900102751,33.8399745 0.0998518829,33.7389331 0.112505379,33.6441097 C0.146248034,33.3601576 0.187957705,33.0782781 0.237634392,32.7984713 C0.248881944,32.7300741 0.26153544,32.6647858 0.274188936,32.5963886 C0.298089983,32.4704755 0.323396975,32.3461169 0.347298022,32.2217584 C0.366981238,32.1362618 0.38525851,32.0507653 0.404941725,31.9668233 C0.424624941,31.8828812 0.447120045,31.7849488 0.469615148,31.6947888 C0.485080532,31.6295006 0.500545916,31.5673213 0.517417243,31.505142 C0.534288571,31.4429627 0.548348011,31.3870013 0.565219338,31.3263765 C0.582090666,31.2657517 0.601773882,31.1926911 0.621457097,31.1242938 C0.641140313,31.0558966 0.656605697,31.0014897 0.676288912,30.9408649 C0.761582847,30.6538038 0.855312445,30.3703699 0.957477707,30.0905631 C0.988408474,30.0035121 1.02074519,29.9164611 1.0530819,29.8309645 C1.08541861,29.745468 1.11775532,29.658417 1.15290392,29.5729205 C1.18805252,29.4874239 1.22038923,29.4019274 1.25694377,29.3179854 C1.29349832,29.2340433 1.32724097,29.1485468 1.36520146,29.0661592 C1.40316195,28.9837717 1.43831055,28.8982751 1.47767698,28.8158876 C1.51704341,28.7335 1.55359795,28.649558 1.59437033,28.5687249 C1.6351427,28.4878918 1.67310319,28.4039498 1.71528151,28.3231167 C1.79682626,28.1676684 1.8811829,27.9982299 1.96835142,27.8381182 C2.05551995,27.6780065 2.1370647,27.5381031 2.22282728,27.3904273 C2.50532625,26.9141054 2.8113486,26.4553559 3.13950275,26.0162649 C3.18589891,25.9525311 3.23229506,25.8919063 3.28009715,25.829727 C3.45724609,25.6069179 3.63955016,25.3898085 3.82700936,25.1783989 C3.87340551,25.123992 3.91839572,25.0726941 3.96760376,25.0229507 C4.13444244,24.8343402 4.30643625,24.6509113 4.48358519,24.472664 L4.61714987,24.3389785 C4.82991606,24.1317142 5.04877467,23.928077 5.27372571,23.7280669 L5.4143201,23.6083718 C5.5324194,23.5088849 5.65333058,23.409398 5.77424176,23.3130201 C5.83047952,23.2679401 5.88671728,23.2244146 5.94295504,23.1824436 C6.06808405,23.0845112 6.19602495,22.9896878 6.32396586,22.8964189 C6.38863928,22.8482299 6.45612459,22.8031499 6.5236099,22.7565155 L6.6993529,22.6368203 L6.83994729,22.5466603 C6.91165044,22.4984714 6.98054169,22.4518369 7.05786861,22.4067569 L7.0831756,22.3912121 C7.15206686,22.3461321 7.22377,22.3041611 7.2940672,22.2621901 C7.3643644,22.2202191 7.44731509,22.1704756 7.52464201,22.1269501 L7.75802871,21.9948191 L7.9942273,21.8689061 L8.23464372,21.746102 C8.39492133,21.6668234 8.55660489,21.5906537 8.72110033,21.5160386 C8.88559578,21.4414234 9.03743773,21.3761352 9.19630939,21.3108469 C9.22302233,21.1942607 9.25114121,21.079229 9.27926009,20.9626429 C9.32143841,20.7916498 9.36361673,20.6191023 9.40860693,20.4512182 C9.45359714,20.2833341 9.49858735,20.1107865 9.54920133,19.941348 C9.59981531,19.7719094 9.64480552,19.6040253 9.68979573,19.4361412 C9.73478594,19.2682571 9.7910237,19.103482 9.84444957,18.9402613 C9.84505919,18.9371889 9.84505919,18.9340069 9.84444957,18.9309345 C9.89646949,18.7754862 9.94708348,18.620038 10.0019153,18.4645898 C10.0019153,18.4537084 10.0019153,18.4412725 10.0131628,18.4288367 C10.1218892,18.1179402 10.235302,17.8070437 10.3534013,17.4961473 L10.3829261,17.4199776 C10.434946,17.2862922 10.486966,17.1526067 10.5417978,17.0204757 L10.5797583,16.9272067 C10.6303722,16.8044026 10.6809862,16.6815985 10.7330062,16.5587944 L10.7836201,16.4422082 C10.8412638,16.3100773 10.8975016,16.1795007 10.9565512,16.0489242 L10.9860761,15.9820815 C11.0521554,15.8359601 11.1196408,15.6898388 11.1871261,15.5452719 C11.2546114,15.4007051 11.3277205,15.2545837 11.3952058,15.1100169 L11.4528495,14.9949852 C11.5034635,14.8954983 11.5512656,14.7960115 11.6046914,14.6980791 C11.63984,14.6265729 11.6749886,14.5550667 11.7143551,14.485115 C11.7537215,14.4151633 11.8085533,14.3032406 11.8549494,14.2130806 C11.8760386,14.1742185 11.8971278,14.1353565 11.9182169,14.0964944 C11.9842963,13.9705813 12.0588113,13.8462228 12.1248907,13.7218642 C12.1909701,13.5975056 12.2654851,13.473147 12.3385942,13.3487884 C12.3948319,13.253965 12.4496637,13.1575871 12.5073075,13.0643182 L12.6015057,12.9088699 C12.6521197,12.8264824 12.7027337,12.7440948 12.7547536,12.6632617 C12.8067735,12.5824286 12.8545756,12.5078135 12.9065955,12.4238714 C12.9586155,12.3399294 12.9754868,12.3150577 13.0120413,12.2590963 C13.069685,12.1689363 13.1287347,12.0756674 13.1905962,11.9870619 L13.2651113,11.8751392 C13.3340025,11.7709889 13.4057057,11.6668385 13.4760029,11.5642427 C13.6137854,11.3663053 13.7543798,11.1694042 13.897786,10.9735394 C13.9610535,10.8864884 14.0257269,10.7994374 14.0904004,10.7123864 C14.2347439,10.5206669 14.3823681,10.3299837 14.5332727,10.1403369 C14.5951343,10.0610583 14.6584017,9.98488866 14.7230752,9.90405558 L14.7807189,9.83410387 C14.8706993,9.72373563 14.9620856,9.61336738 15.053472,9.50455362 L15.0844028,9.46880053 C15.1856307,9.34910539 15.2882646,9.23096473 15.3937104,9.11282407 C15.8759492,8.56564629 16.3778712,8.03867678 16.9065061,7.53657899 C17.1136486,7.33864158 17.3236029,7.14433129 17.536369,6.95364812 C17.6685278,6.83550746 17.8020925,6.72047577 17.9356571,6.60544408 C17.9516311,6.58970301 17.9685402,6.575162 17.9862711,6.56191857 C18.1268655,6.44222343 18.2674599,6.32563726 18.4080543,6.21060557 C18.5486487,6.09557387 18.6990847,5.97743322 18.8467088,5.86240153 L18.8551445,5.86240153 C19.0055805,5.74581535 19.1574224,5.63233814 19.3078585,5.51886093 C19.4582945,5.40538372 19.6143542,5.29656996 19.7676021,5.1877562 C20.0759725,4.97116499 20.3890294,4.76390068 20.7067727,4.56596326 C20.8656444,4.4664764 21.024516,4.36698953 21.1847937,4.27061162 C21.3450713,4.17423372 21.5053489,4.0794103 21.6684384,3.98769584 C21.752795,3.9379524 21.8399636,3.89131793 21.9257261,3.84468346 C22.9816423,3.24950627 24.0750253,2.73934768 25.1973578,2.31818182 C24.764327,2.66172241 13.5702011,8.41641599 14.0229151,20.4387823 C9.82279019,22.121129 6.41296545,25.6037401 4.563724,30.09989 C3.83849256,34.9827465 5.31980179,39.949009 8.52989195,43.3969318 C11.184733,46.2947557 14.7702844,47.9107994 18.5008466,47.8909402 L61.1754641,47.8909402 C63.0208017,47.8938484 64.8490923,47.5005394 66.5588235,46.7328509 Z" id="Path" fill="#7BB2FF"></path>
        </g>
        <g id="github-copy-9" transform="translate(107.000000, 167.000000)" fill="#000000" fill-rule="nonzero">
            <path d="M23.4998934,0 C11.9752157,0.000531737272 2.15168271,9.30035899 0.30557955,21.9577938 C-1.54052361,34.6152285 5.13569444,46.8943328 16.0687776,50.9499494 C17.243665,51.1787701 17.6842478,50.3944476 17.6842478,49.7080642 C17.6842478,49.0871477 17.6548521,47.0282066 17.6548521,44.838593 C11.7510195,46.0477709 10.2236659,43.2372931 9.75371092,41.7666396 C9.23223886,40.3363144 8.40558757,39.0687857 7.34519178,38.0735866 C6.52277061,37.5833688 5.34788322,36.3741647 7.3157961,36.3415358 C8.8408148,36.5256591 10.1892569,37.5258598 10.9285983,39.021315 C11.5776799,40.3187098 12.6641366,41.2753365 13.9481353,41.6800216 C15.2321341,42.0847067 16.6080925,41.9041732 17.7722704,41.1782736 C17.8739946,39.8491232 18.4063796,38.6063999 19.2702988,37.6814908 C14.0420499,37.027867 8.57882354,34.7727603 8.57882354,24.7724206 C8.54580383,22.1739928 9.40755464,19.6599774 10.9873427,17.7459647 C10.2689738,15.4876146 10.3530279,13.0092412 11.2223202,10.8175524 C11.2223202,10.8175524 13.190186,10.1312213 17.6842008,13.49741 C21.5291092,12.3208174 25.5881663,12.3208174 29.4330747,13.49741 C33.9269719,10.0985662 35.8949553,10.8175524 35.8949553,10.8175524 C36.7643655,13.009211 36.8484214,15.4876349 36.1299328,17.7459647 C37.714478,19.6567015 38.5769812,22.1729119 38.5384519,24.7724206 C38.5384519,34.8054676 33.0458064,37.027867 27.8176045,37.6814908 C28.9522933,38.9611247 29.5311303,40.7262919 29.4037025,42.5183069 C29.4037025,46.0152466 29.3743068,48.8257244 29.3743068,49.7081688 C29.3743068,50.3944999 29.8148896,51.2115035 30.989777,50.950054 C41.9027087,46.8616834 48.5482844,34.5803807 46.6895391,21.9362354 C44.8307937,9.29209015 35.0148139,0.00666826003 23.4998934,0 Z" id="Path"></path>
        </g>
        <path id="Line-18" d="M217,266.632353 L221.5,275.632353 L217.5,275.632 L217.5,333.367 L221.5,333.367647 L217,342.367647 L212.5,333.367647 L216.5,333.367 L216.5,275.632 L212.5,275.632353 L217,266.632353 Z" fill="#0055C2" fill-rule="nonzero"></path>
        <path id="Line-18-Copy" d="M384.5,258 L389,267 L385,267 L385,357 L389,357 L384.5,366 L380,357 L384,357 L384,267 L380,267 L384.5,258 Z" fill="#0055C2" fill-rule="nonzero"></path>
        <g id="git-copy-8" transform="translate(101.000000, 346.000000)">
            <path d="M46.6144423,12.5111188 C44.842472,12.5111188 43.5230436,13.4585997 43.5230436,15.7391806 C43.5230436,17.4571947 44.3925197,18.6500054 46.5192725,18.6500054 C48.3216713,18.6500054 49.5465773,17.4931482 49.5465773,15.6679785 C49.5465773,13.5995938 48.4505065,12.5111188 46.6144423,12.5111188 L46.6144423,12.5111188 Z M43.0724439,28.6126544 C42.65292,29.1731062 42.234691,29.7688066 42.234691,30.4716626 C42.234691,31.8738498 43.8765312,32.2954224 46.1327667,32.2954224 C48.0005542,32.2954224 50.5455361,32.1530183 50.5455361,30.2615813 C50.5455361,29.1371527 49.3206301,29.0680656 47.7739596,28.9623199 L43.0724439,28.6126544 Z M52.6056054,12.6168644 C53.1850403,13.4240561 53.7981407,14.5463698 53.7981407,16.1600482 C53.7981407,20.0528976 50.9954884,22.3327735 46.9375015,22.3327735 C45.9055247,22.3327735 44.9713072,22.1931892 44.3918723,22.0176515 L43.3288196,23.8766598 L46.4849596,24.0860361 C52.0578937,24.4730652 55.342869,24.6486029 55.342869,29.3119855 C55.342869,33.346534 52.0902643,35.625 46.4849596,35.625 C40.654355,35.625 38.4324324,34.0113216 38.4324324,31.2414909 C38.4324324,29.662356 39.0772561,28.8227357 40.2044028,27.6630585 C39.1407026,27.1738087 38.7872149,26.2975299 38.7872149,25.350049 C38.7872149,24.5781058 39.14135,23.8766598 39.7214324,23.2097573 C40.3015148,22.5442648 40.945691,21.8766573 41.7180552,21.1054191 C40.1396614,20.2636839 38.9484209,18.4399241 38.9484209,15.8435162 C38.9484209,11.8103777 41.3962907,9.04054696 46.3244011,9.04054696 C47.7098657,9.04054696 48.5482659,9.17942623 49.2882594,9.39162247 L55.5701111,9.39162247 L55.5701111,12.3722395 L52.6056054,12.6168644 L52.6056054,12.6168644 Z M61.2369201,6.24392736 C59.4002084,6.24392736 58.3371557,5.08566015 58.3371557,3.08565768 C58.3371557,1.08847509 59.4002084,0 61.2369201,0 C63.105355,0 64.1677606,1.08777012 64.1677606,3.08565768 C64.1684077,5.08566015 63.105355,6.24392736 61.2369201,6.24392736 Z M57.0805264,27.3225576 L57.0805264,24.5527269 L58.7243089,24.307397 C59.1749086,24.2368999 59.2390025,24.1318592 59.2390025,23.604541 L59.2390025,13.2929315 C59.2390025,12.9080174 59.1431853,12.6612776 58.8201261,12.5569419 L57.0805264,11.8900394 L57.4346615,9.05041655 L64.1036664,9.05041655 L64.1036664,23.605246 C64.1036664,24.1678128 64.1347422,24.2368999 64.6190074,24.308102 L66.2621425,24.5534318 L66.2621425,27.3232626 L57.0805264,27.3232626 L57.0805264,27.3225576 Z M79,25.9619637 C77.613888,26.6972484 75.585542,27.3648558 73.748183,27.3648558 C69.915496,27.3648558 68.4665849,25.6827952 68.4665849,21.7173339 L68.4665849,12.5280381 C68.4665849,12.3186617 68.4665849,12.1776675 68.208267,12.1776675 L65.9539737,12.1776675 L65.9539737,9.05605632 C68.7896441,8.70427583 69.9161434,7.16109451 70.2702785,3.33803726 L73.3312488,3.33803726 L73.3312488,8.32006669 C73.3312488,8.56469159 73.3312488,8.6711422 73.5889193,8.6711422 L78.1305239,8.6711422 L78.1305239,12.1783725 L73.3312488,12.1783725 L73.3312488,20.5604766 C73.3312488,22.6295662 73.7824959,23.436053 75.5214481,23.436053 C76.4245897,23.436053 77.3575123,23.191428 78.1305239,22.8756011 L79,25.9619637 L79,25.9619637 Z" id="Shape" fill="#31251C" fill-rule="nonzero"></path>
            <path d="M33.5174848,17.3072376 L18.6018836,0.716561426 C17.7436251,-0.238853809 16.3503484,-0.238853809 15.4914343,0.716561426 L12.3940981,4.16189087 L16.322155,8.53200392 C17.2361446,8.18922135 18.2825774,8.4189586 19.0103596,9.22923824 C19.7420757,10.0438938 19.9472972,11.2181064 19.6312693,12.2377022 L23.4177037,16.4495518 C24.3330046,16.0987467 25.3905836,16.3255667 26.1222997,17.1402223 C27.1451288,18.2772393 27.1451288,20.1202426 26.1222997,21.257989 C25.098815,22.3957354 23.4426188,22.3957354 22.4197897,21.257989 C21.650701,20.4017619 21.4605597,19.1451356 21.8500215,18.0912615 L18.3186387,14.1631192 L18.317983,24.5005662 C18.5677893,24.6376792 18.8025155,24.8200104 19.0103596,25.0504769 C20.0331886,26.187494 20.0331886,28.029768 19.0103596,29.168973 C17.9875305,30.3059901 16.330023,30.3059901 15.3085052,29.168973 C14.2856762,28.029768 14.2856762,26.187494 15.3085052,25.0504769 C15.5615899,24.769687 15.8533584,24.5574535 16.1654524,24.4152352 L16.1654524,13.9822467 C15.8533584,13.8407577 15.5615899,13.6292536 15.3085052,13.347005 C14.5335155,12.4856726 14.3473082,11.2217531 14.7446379,10.1635031 L10.8723121,5.85465328 L0.644677343,17.2306585 C-0.214892448,18.1868031 -0.214892448,19.7366179 0.644677343,20.6927624 L15.5602785,37.2834386 C16.4191927,38.2388538 17.8118138,38.2388538 18.6720392,37.2834386 L33.5174848,20.7686122 C34.3770546,19.8131969 34.3770546,18.2626528 33.5174848,17.3072376 L33.5174848,17.3072376 Z" id="Path" fill="#F34F29" fill-rule="nonzero"></path>
            <polygon id="Path" points="1.12409637e-15 0 79 0 79 38 0 38"></polygon>
        </g>
        <g id="Group-2" transform="translate(367.554318, 128.478712)">
            <text id="-copy" font-family="Helvetica" font-size="21" font-weight="normal" fill="#0055C2">
                <tspan x="40.4456824" y="113.576127"></tspan>
            </text>
            <g id="file-text-copy-2" transform="translate(40.195682, 36.771288)">
                <mask id="mask-12" fill="white">
                    <use xlink:href="#path-11"></use>
                </mask>
                <use id="Combined-Shape" fill="#0055C2" fill-rule="nonzero" xlink:href="#path-11"></use>
                <g id="Group" mask="url(#mask-12)">
                    <g transform="translate(-3.750000, -1.250000)" id="Color">
                        <rect id="Rectangle" fill="#0055C2" x="0" y="0" width="30" height="30"></rect>
                    </g>
                </g>
            </g>
            <g id="file-text-copy-3" transform="translate(40.195682, 70.771288)">
                <mask id="mask-14" fill="white">
                    <use xlink:href="#path-13"></use>
                </mask>
                <use id="Combined-Shape" fill="#0055C2" fill-rule="nonzero" xlink:href="#path-13"></use>
                <g id="Group" mask="url(#mask-14)">
                    <g transform="translate(-3.750000, -1.250000)" id="Color">
                        <rect id="Rectangle" fill="#0055C2" x="0" y="0" width="30" height="30"></rect>
                    </g>
                </g>
            </g>
            <polyline id="Path-3-Copy-5" stroke="#0055C2" points="16.4693956 21.0212885 16.4693956 50.0212885 40.4242424 50.0212885"></polyline>
            <polyline id="Path-3-Copy-6" stroke="#0055C2" points="16.4693956 16.0212885 16.4693956 84.0212885 40.4242424 84.0212885"></polyline>
            <polyline id="Path-3-Copy-7" stroke="#0055C2" points="16.4693956 46.0212885 16.4693956 112.021288 40.4242424 112.021288"></polyline>
            <g id="Path-Copy-7">
                <use fill="black" fill-opacity="1" filter="url(#filter-16)" xlink:href="#path-15"></use>
                <use fill="#7BB2FF" fill-rule="evenodd" xlink:href="#path-15"></use>
            </g>
        </g>
        <g id="Group-2-Copy-2" transform="translate(367.554318, 375.478712)">
            <text id="-copy" font-family="Helvetica" font-size="21" font-weight="normal" fill="#0055C2">
                <tspan x="40.4456824" y="113.576127"></tspan>
            </text>
            <g id="file-text-copy-2" transform="translate(40.195682, 36.771288)">
                <mask id="mask-18" fill="white">
                    <use xlink:href="#path-17"></use>
                </mask>
                <use id="Combined-Shape" fill="#0055C2" fill-rule="nonzero" xlink:href="#path-17"></use>
                <g id="Group" mask="url(#mask-18)">
                    <g transform="translate(-3.750000, -1.250000)" id="Color">
                        <rect id="Rectangle" fill="#0055C2" x="0" y="0" width="30" height="30"></rect>
                    </g>
                </g>
            </g>
            <g id="file-text-copy-3" transform="translate(40.195682, 70.771288)">
                <mask id="mask-20" fill="white">
                    <use xlink:href="#path-19"></use>
                </mask>
                <use id="Combined-Shape" fill="#0055C2" fill-rule="nonzero" xlink:href="#path-19"></use>
                <g id="Group" mask="url(#mask-20)">
                    <g transform="translate(-3.750000, -1.250000)" id="Color">
                        <rect id="Rectangle" fill="#0055C2" x="0" y="0" width="30" height="30"></rect>
                    </g>
                </g>
            </g>
            <polyline id="Path-3-Copy-5" stroke="#0055C2" points="16.4693956 21.0212885 16.4693956 50.0212885 40.4242424 50.0212885"></polyline>
            <polyline id="Path-3-Copy-6" stroke="#0055C2" points="16.4693956 16.0212885 16.4693956 84.0212885 40.4242424 84.0212885"></polyline>
            <polyline id="Path-3-Copy-7" stroke="#0055C2" points="16.4693956 46.0212885 16.4693956 112.021288 40.4242424 112.021288"></polyline>
            <g id="Path-Copy-7">
                <use fill="black" fill-opacity="1" filter="url(#filter-22)" xlink:href="#path-21"></use>
                <use fill="#7BB2FF" fill-rule="evenodd" xlink:href="#path-21"></use>
            </g>
        </g>
        <g id="check" transform="translate(652.000000, 245.000000)" fill-rule="nonzero">
            <polygon id="Path" stroke="#979797" fill="#80D8FF" points="55.0027345 9.00268935 21.0027345 41.0026893 1.00273446 22.0026893 7.00273446 14.0026893 21.0027345 28.0026893 49.0027345 1.00268935"></polygon>
            <path d="M21.0027345,42.0027107 C20.7466468,42.0043617 20.499677,41.9077213 20.3127345,41.7326893 L0.312734465,22.7326893 C-0.0576579302,22.3822398 -0.105049821,21.8092287 0.202734465,21.4026893 L6.20273446,13.4026893 C6.37620139,13.1693968 6.64260487,13.0231415 6.93255321,13.0020194 C7.22250156,12.9808974 7.50728871,13.0869997 7.71273446,13.2926893 L21.0027345,26.6026893 L48.3127345,0.28268935 C48.517631,0.0836665871 48.7978575,-0.0182339743 49.0827345,0.00268934992 C49.369051,0.0264052561 49.6313367,0.172119533 49.8027345,0.40268935 L55.8027345,8.40268935 C56.1105188,8.80922873 56.0631269,9.38223977 55.6927345,9.73268935 L21.6927345,41.7326893 C21.5057919,41.9077213 21.2588221,42.0043617 21.0027345,42.0027107 Z M2.33273446,21.8926893 L21.0027345,39.6226893 L53.6627345,8.88268935 L48.8827345,2.50268935 L21.6927345,28.7226893 C21.303891,29.1038322 20.681578,29.1038322 20.2927345,28.7226893 L7.11273446,15.5226893 L2.33273446,21.8926893 Z" id="Shape" fill="#0091EA"></path>
        </g>
    </g>
</svg>