<svg width="800" height="600" viewBox="0 0 800 600" fill="none" xmlns="http://www.w3.org/2000/svg">
<g clip-path="url(#clip0_5189_12535)">
<rect width="800" height="600" fill="url(#paint0_linear_5189_12535)"/>
<path d="M331.668 110.566C331.668 126.842 333.003 139.31 335.672 147.969C338.341 156.562 343.81 160.859 352.078 160.859C360.346 160.859 365.75 156.562 368.289 147.969C370.893 139.31 372.195 126.842 372.195 110.566C372.195 93.5091 370.893 80.8789 368.289 72.6758C365.75 64.4727 360.346 60.3711 352.078 60.3711C343.81 60.3711 338.341 64.4727 335.672 72.6758C333.003 80.8789 331.668 93.5091 331.668 110.566ZM352.078 37.4219C370.112 37.4219 382.742 43.7695 389.969 56.4648C397.26 69.1602 400.906 87.194 400.906 110.566C400.906 133.939 397.26 151.94 389.969 164.57C382.742 177.201 370.112 183.516 352.078 183.516C334.044 183.516 321.382 177.201 314.09 164.57C306.863 151.94 303.25 133.939 303.25 110.566C303.25 87.194 306.863 69.1602 314.09 56.4648C321.382 43.7695 334.044 37.4219 352.078 37.4219ZM442.508 138.887C442.508 145.853 444.298 151.257 447.879 155.098C451.525 158.939 456.538 160.859 462.918 160.859C469.298 160.859 474.279 158.939 477.859 155.098C481.505 151.257 483.328 145.853 483.328 138.887C483.328 131.66 481.473 126.191 477.762 122.48C474.116 118.704 469.168 116.816 462.918 116.816C456.668 116.816 451.688 118.704 447.977 122.48C444.331 126.191 442.508 131.66 442.508 138.887ZM413.602 140.742C413.602 132.799 415.392 125.605 418.973 119.16C422.618 112.715 427.924 107.865 434.891 104.609C428.055 100.052 423.595 95.1367 421.512 89.8633C419.493 84.5247 418.484 79.5443 418.484 74.9219C418.484 64.6354 422.358 55.8789 430.105 48.6523C437.853 41.3607 448.79 37.7148 462.918 37.7148C477.046 37.7148 487.983 41.3607 495.73 48.6523C503.478 55.8789 507.352 64.6354 507.352 74.9219C507.352 79.5443 506.31 84.5247 504.227 89.8633C502.208 95.1367 497.781 99.7266 490.945 103.633C497.911 107.539 503.152 112.715 506.668 119.16C510.184 125.605 511.941 132.799 511.941 140.742C511.941 152.656 507.514 162.812 498.66 171.211C489.871 179.544 477.566 183.711 461.746 183.711C445.926 183.711 433.947 179.544 425.809 171.211C417.671 162.812 413.602 152.656 413.602 140.742ZM445.047 78.0469C445.047 83.1901 446.609 87.3893 449.734 90.6445C452.924 93.8997 457.319 95.5273 462.918 95.5273C468.582 95.5273 472.944 93.8997 476.004 90.6445C479.129 87.3893 480.691 83.1901 480.691 78.0469C480.691 72.4479 479.129 68.0859 476.004 64.9609C472.944 61.7708 468.582 60.1758 462.918 60.1758C457.319 60.1758 452.924 61.7708 449.734 64.9609C446.609 68.0859 445.047 72.4479 445.047 78.0469Z" fill="white" fill-opacity="0.5"/>
<circle cx="73" cy="300" r="173" fill="white"/>
<circle cx="132.5" cy="111.5" r="19.5" fill="white"/>
<circle cx="172" cy="76" r="10" fill="white"/>
<circle cx="212.5" cy="60.5" r="7.5" fill="white"/>
<circle cx="246.5" cy="56.5" r="5.5" fill="white"/>
<circle cx="270.5" cy="62.5" r="4.5" fill="white"/>
<circle cx="288.5" cy="76.5" r="3.5" fill="white"/>
<path d="M42.1621 368.176C41.752 366.406 40.75 365.17 39.1562 364.467C38.2656 364.08 37.2754 363.887 36.1855 363.887C34.0996 363.887 32.3828 364.678 31.0352 366.26C29.6992 367.83 29.0312 370.197 29.0312 373.361C29.0312 376.549 29.7578 378.805 31.2109 380.129C32.6641 381.453 34.3164 382.115 36.168 382.115C37.9844 382.115 39.4727 381.594 40.6328 380.551C41.793 379.496 42.5078 378.119 42.7773 376.42H36.7832V372.096H47.5762V386H43.9902L43.4453 382.766C42.4023 383.996 41.4648 384.863 40.6328 385.367C39.2031 386.246 37.4453 386.686 35.3594 386.686C31.9258 386.686 29.1133 385.496 26.9219 383.117C24.6367 380.727 23.4941 377.457 23.4941 373.309C23.4941 369.113 24.6484 365.75 26.957 363.219C29.2656 360.688 32.3184 359.422 36.1152 359.422C39.4082 359.422 42.0508 360.26 44.043 361.936C46.0469 363.6 47.1953 365.68 47.4883 368.176H42.1621ZM57.5078 364.555H52.4277V359.932H57.5078V364.555ZM52.4277 366.84H57.5078V386H52.4277V366.84ZM60.4082 370.584V367.016H63.0801V361.672H68.0371V367.016H71.1484V370.584H68.0371V380.709C68.0371 381.494 68.1367 381.986 68.3359 382.186C68.5352 382.373 69.1445 382.467 70.1641 382.467C70.3164 382.467 70.4746 382.467 70.6387 382.467C70.8145 382.455 70.9844 382.443 71.1484 382.432V386.176L68.7754 386.264C66.4082 386.346 64.791 385.936 63.9238 385.033C63.3613 384.459 63.0801 383.574 63.0801 382.379V370.584H60.4082ZM74.7344 386V360.09H80.0957V369.969H90.2207V360.09H95.5996V386H90.2207V374.434H80.0957V386H74.7344ZM105.373 366.84V378.389C105.373 379.479 105.502 380.299 105.76 380.85C106.217 381.822 107.113 382.309 108.449 382.309C110.16 382.309 111.332 381.617 111.965 380.234C112.293 379.484 112.457 378.494 112.457 377.264V366.84H117.537V386H112.668V383.293C112.621 383.352 112.504 383.527 112.316 383.82C112.129 384.113 111.906 384.371 111.648 384.594C110.863 385.297 110.102 385.777 109.363 386.035C108.637 386.293 107.781 386.422 106.797 386.422C103.961 386.422 102.051 385.402 101.066 383.363C100.516 382.238 100.24 380.58 100.24 378.389V366.84H105.373ZM132.742 366.418C135.262 366.418 137.23 367.326 138.648 369.143C140.078 370.959 140.793 373.303 140.793 376.174C140.793 379.15 140.09 381.617 138.684 383.574C137.277 385.531 135.314 386.51 132.795 386.51C131.213 386.51 129.941 386.193 128.98 385.561C128.406 385.186 127.785 384.529 127.117 383.592V386H122.213V360.125H127.205V369.336C127.838 368.445 128.535 367.766 129.297 367.297C130.199 366.711 131.348 366.418 132.742 366.418ZM131.459 382.379C132.748 382.379 133.75 381.857 134.465 380.814C135.18 379.771 135.537 378.4 135.537 376.701C135.537 375.342 135.361 374.217 135.01 373.326C134.342 371.639 133.111 370.795 131.318 370.795C129.502 370.795 128.254 371.621 127.574 373.273C127.223 374.152 127.047 375.289 127.047 376.684C127.047 378.324 127.41 379.684 128.137 380.762C128.863 381.84 129.971 382.379 131.459 382.379Z" fill="#363636"/>
<path fill-rule="evenodd" clip-rule="evenodd" d="M97.5328 219.551C97.5328 221.853 98.843 223.186 101.107 223.186C103.41 223.186 104.72 221.853 104.719 219.551C104.719 217.252 103.41 216 101.107 216C98.843 216 97.5328 217.253 97.5328 219.551ZM90.4686 230.52C91.1828 231.449 91.9384 232.741 91.9384 234.598C91.9384 239.078 88.4841 241.702 83.4826 241.702C82.2107 241.702 81.0592 241.542 80.3451 241.34L79.0349 243.479L82.9248 243.72L83.1521 243.735C89.8828 244.171 93.8423 244.427 93.8423 249.734C93.8423 254.378 89.8334 257 82.9248 257C75.7385 257 73 255.143 73 251.955C73 250.138 73.7948 249.171 75.184 247.837C73.873 247.274 73.4373 246.265 73.4373 245.175C73.4373 244.286 73.8737 243.479 74.5887 242.712C75.3037 241.946 76.0976 241.177 77.0496 240.29C75.1042 239.321 73.636 237.222 73.636 234.234C73.636 229.592 76.653 226.405 82.7269 226.405C84.4345 226.405 85.4679 226.564 86.3799 226.809H94.1224V230.239L90.4686 230.52ZM79.2742 234.114C79.2742 231.489 80.9004 230.399 83.0844 230.399C85.3474 230.399 86.6983 231.651 86.6983 234.032C86.6983 236.132 85.1886 237.464 82.9671 237.464C80.3459 237.464 79.2742 236.091 79.2742 234.114ZM77.6863 251.069C77.6863 250.26 78.2018 249.575 78.7189 248.93L84.5135 249.332L84.5862 249.337C86.4581 249.456 87.9295 249.55 87.9295 250.827C87.9295 253.004 84.7928 253.168 82.4908 253.168C79.7099 253.168 77.6863 252.683 77.6863 251.069ZM95.984 247.445V244.257L98.01 243.975C98.5653 243.894 98.6443 243.773 98.6443 243.166V231.299C98.6443 230.856 98.5262 230.572 98.1281 230.451L95.984 229.684L96.4205 226.416H104.64V243.167C104.64 243.814 104.678 243.894 105.275 243.976L107.3 244.258V247.446H95.984V247.445ZM116.527 247.494C118.792 247.494 121.292 246.725 123 245.879L121.928 242.327C120.976 242.69 119.826 242.972 118.713 242.972C116.569 242.972 116.013 242.044 116.013 239.663V230.016H121.928V225.979H116.331C116.013 225.979 116.013 225.857 116.013 225.575V219.842H112.241C111.804 224.242 110.416 226.018 106.921 226.422V230.015H109.699C110.017 230.015 110.017 230.177 110.017 230.418V240.994C110.017 245.558 111.803 247.494 116.527 247.494Z" fill="#31251C"/>
<path d="M63.2074 235.129L44.8697 216.792C43.8146 215.736 42.1016 215.736 41.0456 216.792L37.2377 220.6L42.067 225.43C43.1906 225.051 44.4772 225.305 45.3719 226.201C46.2715 227.101 46.5238 228.399 46.1353 229.526L50.7904 234.181C51.9157 233.793 53.216 234.044 54.1155 234.944C55.373 236.201 55.373 238.238 54.1155 239.496C52.8572 240.753 50.8211 240.753 49.5636 239.496C48.618 238.549 48.3843 237.16 48.8631 235.996L44.5215 231.654L44.5207 243.08C44.8278 243.231 45.1164 243.433 45.3719 243.687C46.6294 244.944 46.6294 246.98 45.3719 248.239C44.1144 249.496 42.0766 249.496 40.8207 248.239C39.5632 246.98 39.5632 244.944 40.8207 243.687C41.1319 243.377 41.4906 243.142 41.8743 242.985V231.454C41.4906 231.298 41.1319 231.064 40.8207 230.752C39.8679 229.8 39.639 228.403 40.1275 227.233L35.3668 222.471L22.7926 235.044C21.7358 236.101 21.7358 237.814 22.7926 238.871L41.1303 257.208C42.1863 258.264 43.8984 258.264 44.956 257.208L63.2074 238.955C64.2642 237.899 64.2642 236.185 63.2074 235.129V235.129Z" fill="#F34F29"/>
<path d="M84.4999 291C70.5231 291.001 58.6095 301.212 56.3706 315.111C54.1317 329.009 62.2284 342.492 75.4877 346.945C76.9125 347.196 77.4469 346.335 77.4469 345.581C77.4469 344.9 77.4112 342.639 77.4112 340.235C70.2512 341.562 68.3989 338.476 67.829 336.861C67.1965 335.291 66.194 333.899 64.908 332.806C63.9106 332.268 62.4857 330.94 64.8723 330.904C66.7218 331.107 68.3572 332.205 69.2538 333.847C70.041 335.272 71.3586 336.322 72.9158 336.766C74.473 337.211 76.1417 337.012 77.5536 336.215C77.677 334.756 78.3226 333.391 79.3704 332.376C73.0297 331.658 66.4041 329.182 66.4041 318.201C66.3641 315.348 67.4092 312.587 69.3251 310.486C68.4539 308.006 68.5558 305.285 69.61 302.878C69.61 302.878 71.9966 302.124 77.4468 305.821C82.1098 304.529 87.0325 304.529 91.6954 305.821C97.1455 302.089 99.5322 302.878 99.5322 302.878C100.587 305.285 100.689 308.006 99.8172 310.486C101.739 312.584 102.785 315.347 102.738 318.201C102.738 329.218 96.0768 331.658 89.7362 332.376C91.1124 333.781 91.8143 335.719 91.6598 337.687C91.6598 341.527 91.6242 344.613 91.6242 345.582C91.6242 346.335 92.1585 347.232 93.5833 346.945C106.818 342.456 114.878 328.971 112.623 315.087C110.369 301.203 98.4648 291.007 84.4999 291Z" fill="black"/>
<path d="M297.879 364.337C298.221 366.803 298.893 368.646 299.894 369.867C301.725 372.089 304.862 373.2 309.305 373.2C311.966 373.2 314.127 372.907 315.787 372.321C318.937 371.198 320.511 369.11 320.511 366.059C320.511 364.276 319.73 362.897 318.167 361.92C316.605 360.968 314.151 360.126 310.807 359.394L305.094 358.112C299.479 356.842 295.597 355.463 293.448 353.974C289.811 351.483 287.992 347.589 287.992 342.292C287.992 337.458 289.75 333.441 293.265 330.243C296.781 327.045 301.944 325.446 308.756 325.446C314.444 325.446 319.291 326.959 323.294 329.987C327.323 332.99 329.435 337.36 329.63 343.097H318.79C318.595 339.85 317.179 337.543 314.542 336.176C312.784 335.272 310.599 334.821 307.987 334.821C305.082 334.821 302.762 335.407 301.029 336.579C299.295 337.75 298.429 339.386 298.429 341.486C298.429 343.415 299.283 344.855 300.992 345.807C302.091 346.442 304.435 347.187 308.023 348.041L317.325 350.275C321.402 351.251 324.479 352.558 326.554 354.193C329.776 356.732 331.388 360.407 331.388 365.216C331.388 370.148 329.496 374.25 325.711 377.521C321.952 380.768 316.629 382.392 309.745 382.392C302.713 382.392 297.184 380.792 293.155 377.594C289.127 374.372 287.113 369.953 287.113 364.337H297.879ZM349.295 341.083V365.143C349.295 367.414 349.564 369.123 350.101 370.27C351.053 372.296 352.921 373.31 355.704 373.31C359.269 373.31 361.71 371.869 363.028 368.988C363.712 367.426 364.054 365.363 364.054 362.799V341.083H374.637V381H364.493V375.36C364.396 375.482 364.151 375.849 363.761 376.459C363.37 377.069 362.906 377.606 362.369 378.07C360.733 379.535 359.146 380.536 357.608 381.073C356.095 381.61 354.312 381.879 352.262 381.879C346.354 381.879 342.374 379.755 340.323 375.507C339.176 373.163 338.602 369.708 338.602 365.143V341.083H349.295ZM412.247 361.042C412.247 357.965 411.539 355.243 410.123 352.875C408.731 350.507 406.461 349.323 403.312 349.323C399.527 349.323 396.927 351.117 395.511 354.706C394.779 356.61 394.413 359.027 394.413 361.957C394.413 366.596 395.646 369.855 398.111 371.735C399.576 372.833 401.31 373.383 403.312 373.383C406.217 373.383 408.426 372.26 409.94 370.014C411.478 367.768 412.247 364.777 412.247 361.042ZM406.314 340.204C410.978 340.204 414.92 341.925 418.143 345.368C421.39 348.81 423.014 353.864 423.014 360.529C423.014 367.56 421.427 372.919 418.253 376.605C415.104 380.292 411.039 382.135 406.058 382.135C402.884 382.135 400.248 381.342 398.148 379.755C397 378.876 395.877 377.594 394.779 375.91V396.71H384.452V341.083H394.449V346.979C395.572 345.246 396.769 343.878 398.038 342.877C400.357 341.095 403.116 340.204 406.314 340.204ZM458.097 361.042C458.097 357.965 457.389 355.243 455.973 352.875C454.581 350.507 452.311 349.323 449.161 349.323C445.377 349.323 442.777 351.117 441.361 354.706C440.628 356.61 440.262 359.027 440.262 361.957C440.262 366.596 441.495 369.855 443.961 371.735C445.426 372.833 447.159 373.383 449.161 373.383C452.066 373.383 454.276 372.26 455.79 370.014C457.328 367.768 458.097 364.777 458.097 361.042ZM452.164 340.204C456.827 340.204 460.77 341.925 463.993 345.368C467.24 348.81 468.863 353.864 468.863 360.529C468.863 367.56 467.276 372.919 464.103 376.605C460.953 380.292 456.888 382.135 451.908 382.135C448.734 382.135 446.097 381.342 443.998 379.755C442.85 378.876 441.727 377.594 440.628 375.91V396.71H430.301V341.083H440.299V346.979C441.422 345.246 442.618 343.878 443.888 342.877C446.207 341.095 448.966 340.204 452.164 340.204ZM487.101 381H476.664V327.021H487.101V381ZM513.065 348.627C510.648 348.627 508.768 349.384 507.425 350.897C506.107 352.411 505.277 354.462 504.935 357.05H521.158C520.987 354.291 520.145 352.204 518.631 350.788C517.142 349.347 515.287 348.627 513.065 348.627ZM513.065 340.021C516.385 340.021 519.376 340.644 522.037 341.889C524.698 343.134 526.896 345.099 528.629 347.785C530.191 350.153 531.205 352.899 531.668 356.024C531.937 357.855 532.047 360.492 531.998 363.935H504.679C504.825 367.938 506.083 370.746 508.451 372.357C509.891 373.358 511.625 373.859 513.651 373.859C515.799 373.859 517.545 373.249 518.888 372.028C519.62 371.369 520.267 370.453 520.829 369.281H531.485C531.217 371.649 529.984 374.054 527.787 376.496C524.369 380.377 519.583 382.318 513.431 382.318C508.353 382.318 503.873 380.683 499.991 377.411C496.109 374.14 494.168 368.817 494.168 361.444C494.168 354.535 495.914 349.237 499.405 345.551C502.921 341.864 507.474 340.021 513.065 340.021ZM583.67 340.204C585.428 340.204 587.162 340.546 588.871 341.229C590.58 341.913 592.13 343.109 593.521 344.818C594.645 346.21 595.401 347.919 595.792 349.945C596.036 351.288 596.158 353.253 596.158 355.841L596.085 381H585.392V355.585C585.392 354.071 585.147 352.826 584.659 351.85C583.731 349.994 582.022 349.066 579.532 349.066C576.651 349.066 574.662 350.263 573.563 352.655C573.001 353.925 572.721 355.451 572.721 357.233V381H562.21V357.233C562.21 354.865 561.966 353.144 561.478 352.069C560.599 350.141 558.878 349.176 556.314 349.176C553.336 349.176 551.334 350.141 550.309 352.069C549.747 353.168 549.466 354.804 549.466 356.977V381H538.883V341.156H549.027V346.979C550.321 344.904 551.542 343.427 552.689 342.548C554.715 340.985 557.34 340.204 560.562 340.204C563.614 340.204 566.08 340.875 567.96 342.218C569.474 343.463 570.621 345.062 571.402 347.016C572.77 344.672 574.466 342.951 576.493 341.852C578.641 340.753 581.034 340.204 583.67 340.204ZM621.537 348.627C619.12 348.627 617.24 349.384 615.897 350.897C614.579 352.411 613.749 354.462 613.407 357.05H629.63C629.459 354.291 628.617 352.204 627.103 350.788C625.614 349.347 623.758 348.627 621.537 348.627ZM621.537 340.021C624.857 340.021 627.848 340.644 630.509 341.889C633.17 343.134 635.367 345.099 637.101 347.785C638.663 350.153 639.676 352.899 640.14 356.024C640.409 357.855 640.519 360.492 640.47 363.935H613.15C613.297 367.938 614.554 370.746 616.922 372.357C618.363 373.358 620.096 373.859 622.123 373.859C624.271 373.859 626.017 373.249 627.359 372.028C628.092 371.369 628.739 370.453 629.3 369.281H639.957C639.688 371.649 638.456 374.054 636.258 376.496C632.84 380.377 628.055 382.318 621.903 382.318C616.825 382.318 612.345 380.683 608.463 377.411C604.581 374.14 602.64 368.817 602.64 361.444C602.64 354.535 604.386 349.237 607.877 345.551C611.393 341.864 615.946 340.021 621.537 340.021ZM669.657 340.131C673.783 340.131 677.152 341.217 679.764 343.39C682.401 345.539 683.719 349.115 683.719 354.12V381H673.026V356.72C673.026 354.621 672.745 353.009 672.184 351.886C671.158 349.835 669.205 348.81 666.324 348.81C662.784 348.81 660.355 350.312 659.037 353.314C658.353 354.901 658.011 356.928 658.011 359.394V381H647.611V341.156H657.682V346.979C659.024 344.928 660.294 343.451 661.49 342.548C663.639 340.937 666.361 340.131 669.657 340.131ZM689.286 348.883V341.449H694.852V330.316H705.179V341.449H711.661V348.883H705.179V369.977C705.179 371.613 705.387 372.638 705.802 373.053C706.217 373.444 707.486 373.639 709.61 373.639C709.928 373.639 710.257 373.639 710.599 373.639C710.965 373.615 711.319 373.59 711.661 373.566V381.366L706.717 381.549C701.786 381.72 698.417 380.866 696.61 378.986C695.438 377.79 694.852 375.946 694.852 373.456V348.883H689.286ZM740.372 361.591C739.713 362.006 739.042 362.348 738.358 362.616C737.699 362.86 736.783 363.092 735.611 363.312L733.268 363.751C731.07 364.142 729.496 364.618 728.543 365.18C726.932 366.132 726.126 367.609 726.126 369.611C726.126 371.393 726.615 372.687 727.591 373.493C728.592 374.274 729.801 374.665 731.217 374.665C733.463 374.665 735.526 374.005 737.406 372.687C739.31 371.369 740.299 368.964 740.372 365.473V361.591ZM734.037 356.72C735.965 356.476 737.345 356.171 738.175 355.805C739.664 355.17 740.409 354.181 740.409 352.838C740.409 351.203 739.835 350.08 738.688 349.469C737.564 348.834 735.904 348.517 733.707 348.517C731.241 348.517 729.496 349.127 728.47 350.348C727.738 351.251 727.25 352.472 727.005 354.01H716.935C717.154 350.519 718.131 347.65 719.864 345.404C722.623 341.889 727.359 340.131 734.073 340.131C738.443 340.131 742.325 340.998 745.719 342.731C749.112 344.464 750.809 347.736 750.809 352.545V370.856C750.809 372.125 750.833 373.664 750.882 375.47C750.956 376.837 751.163 377.765 751.505 378.253C751.847 378.742 752.359 379.145 753.043 379.462V381H741.69C741.373 380.194 741.153 379.438 741.031 378.729C740.909 378.021 740.812 377.216 740.738 376.312C739.298 377.875 737.638 379.206 735.758 380.304C733.512 381.598 730.973 382.245 728.141 382.245C724.527 382.245 721.537 381.22 719.168 379.169C716.825 377.094 715.653 374.164 715.653 370.38C715.653 365.473 717.545 361.92 721.329 359.723C723.404 358.527 726.456 357.672 730.484 357.16L734.037 356.72ZM770.768 381H760.331V327.021H770.768V381ZM328.934 413.021V422.579H312.784V467H301.432V422.579H285.208V413.021H328.934ZM347.062 459.639C350.113 459.639 352.457 458.553 354.093 456.38C355.729 454.207 356.546 451.119 356.546 447.115C356.546 443.111 355.729 440.035 354.093 437.886C352.457 435.713 350.113 434.627 347.062 434.627C344.01 434.627 341.654 435.713 339.994 437.886C338.358 440.035 337.54 443.111 337.54 447.115C337.54 451.119 338.358 454.207 339.994 456.38C341.654 458.553 344.01 459.639 347.062 459.639ZM367.496 447.115C367.496 452.974 365.812 457.991 362.442 462.166C359.073 466.316 353.958 468.392 347.098 468.392C340.238 468.392 335.123 466.316 331.754 462.166C328.385 457.991 326.7 452.974 326.7 447.115C326.7 441.353 328.385 436.36 331.754 432.137C335.123 427.913 340.238 425.801 347.098 425.801C353.958 425.801 359.073 427.913 362.442 432.137C365.812 436.36 367.496 441.353 367.496 447.115ZM402.506 447.042C402.506 443.965 401.798 441.243 400.382 438.875C398.99 436.507 396.72 435.323 393.57 435.323C389.786 435.323 387.186 437.117 385.77 440.706C385.038 442.61 384.671 445.027 384.671 447.957C384.671 452.596 385.904 455.855 388.37 457.735C389.835 458.833 391.568 459.383 393.57 459.383C396.476 459.383 398.685 458.26 400.199 456.014C401.737 453.768 402.506 450.777 402.506 447.042ZM396.573 426.204C401.236 426.204 405.179 427.925 408.402 431.368C411.649 434.81 413.272 439.864 413.272 446.529C413.272 453.56 411.686 458.919 408.512 462.605C405.362 466.292 401.297 468.135 396.317 468.135C393.143 468.135 390.506 467.342 388.407 465.755C387.259 464.876 386.136 463.594 385.038 461.91V482.71H374.71V427.083H384.708V432.979C385.831 431.246 387.027 429.878 388.297 428.877C390.616 427.095 393.375 426.204 396.573 426.204ZM431.583 422.322H421V412.691H431.583V422.322ZM421 427.083H431.583V467H421V427.083ZM465.567 441.402C465.372 439.913 464.872 438.57 464.066 437.374C462.894 435.762 461.075 434.957 458.609 434.957C455.094 434.957 452.689 436.702 451.395 440.193C450.711 442.049 450.37 444.515 450.37 447.591C450.37 450.521 450.711 452.876 451.395 454.659C452.64 457.979 454.984 459.639 458.426 459.639C460.868 459.639 462.601 458.98 463.626 457.662C464.652 456.343 465.274 454.634 465.494 452.535H476.151C475.907 455.708 474.759 458.711 472.708 461.543C469.437 466.109 464.591 468.392 458.17 468.392C451.749 468.392 447.025 466.487 443.998 462.679C440.97 458.87 439.457 453.926 439.457 447.847C439.457 440.987 441.129 435.652 444.474 431.844C447.818 428.035 452.433 426.131 458.316 426.131C463.321 426.131 467.411 427.254 470.584 429.5C473.783 431.746 475.675 435.713 476.261 441.402H465.567ZM491.605 454.256C491.825 456.111 492.301 457.43 493.033 458.211C494.327 459.603 496.72 460.298 500.211 460.298C502.262 460.298 503.885 459.993 505.082 459.383C506.302 458.772 506.913 457.857 506.913 456.636C506.913 455.464 506.424 454.573 505.448 453.963C504.471 453.353 500.846 452.303 494.571 450.813C490.055 449.69 486.869 448.287 485.013 446.602C483.158 444.942 482.23 442.549 482.23 439.424C482.23 435.738 483.67 432.576 486.551 429.939C489.457 427.278 493.534 425.948 498.783 425.948C503.763 425.948 507.816 426.949 510.941 428.951C514.09 430.928 515.897 434.358 516.361 439.241H505.924C505.777 437.898 505.399 436.836 504.789 436.055C503.641 434.639 501.688 433.931 498.929 433.931C496.659 433.931 495.035 434.285 494.059 434.993C493.106 435.701 492.63 436.531 492.63 437.483C492.63 438.68 493.143 439.546 494.168 440.083C495.194 440.645 498.819 441.609 505.045 442.977C509.195 443.953 512.308 445.43 514.383 447.408C516.434 449.41 517.459 451.912 517.459 454.915C517.459 458.87 515.982 462.105 513.028 464.62C510.099 467.11 505.558 468.355 499.405 468.355C493.131 468.355 488.492 467.037 485.489 464.4C482.511 461.739 481.021 458.357 481.021 454.256H491.605Z" fill="white" fill-opacity="0.8"/>
<path d="M741.435 592.713C741.435 593.599 742.138 594.276 742.998 594.276C743.883 594.276 744.587 593.599 744.587 592.713V576.563C744.587 575.703 743.883 575 742.998 575C742.112 575 741.435 575.703 741.435 576.563V592.713Z" fill="white"/>
<path d="M748.654 576.849C748.654 577.787 749.435 578.412 750.451 578.412C751.467 578.412 752.248 577.787 752.248 576.849V576.693C752.248 575.755 751.467 575.156 750.451 575.156C749.435 575.156 748.654 575.755 748.654 576.693V576.849ZM748.888 592.713C748.888 593.599 749.591 594.276 750.451 594.276C751.337 594.276 752.04 593.599 752.04 592.713V581.825C752.04 580.939 751.337 580.236 750.451 580.236C749.565 580.236 748.888 580.939 748.888 581.825V592.713Z" fill="white"/>
<path d="M756.159 592.713C756.159 593.573 756.863 594.276 757.722 594.276C758.608 594.276 759.311 593.573 759.311 592.713V592.01C760.275 593.287 761.708 594.433 764 594.433C767.256 594.433 770.382 591.854 770.382 587.295V587.243C770.382 582.658 767.23 580.106 764 580.106C761.76 580.106 760.327 581.252 759.311 582.685V576.563C759.311 575.677 758.608 575 757.722 575C756.837 575 756.159 575.677 756.159 576.563V592.713ZM763.245 591.698C761.109 591.698 759.233 589.926 759.233 587.295V587.243C759.233 584.612 761.109 582.841 763.245 582.841C765.381 582.841 767.178 584.586 767.178 587.243V587.295C767.178 590.004 765.407 591.698 763.245 591.698Z" fill="white"/>
<path d="M773.818 592.713C773.818 593.599 774.521 594.276 775.381 594.276C776.267 594.276 776.97 593.599 776.97 592.713V576.563C776.97 575.703 776.267 575 775.381 575C774.495 575 773.818 575.703 773.818 576.563V592.713Z" fill="white"/>
<path d="M787.628 594.459C791.874 594.459 795 591.203 795 587.295V587.243C795 583.31 791.9 580.106 787.68 580.106C783.46 580.106 780.334 583.362 780.334 587.295V587.347C780.334 591.255 783.434 594.459 787.628 594.459ZM787.68 591.698C785.231 591.698 783.486 589.692 783.486 587.295V587.243C783.486 584.847 785.101 582.867 787.628 582.867C790.102 582.867 791.848 584.873 791.848 587.295V587.347C791.848 589.718 790.233 591.698 787.68 591.698Z" fill="white"/>
<path d="M736.96 590.09C735.74 590.65 734.453 591.046 733.208 591.294C728.074 592.314 725.36 589.099 729.634 586.781C730.099 586.529 730.632 586.291 731.228 586.075L732.011 585.826C732.241 585.763 732.463 585.661 732.534 585.515C732.905 584.722 729.731 584.467 727.622 585.589C728.458 585.431 729.186 585.408 729.668 585.608C724.878 586.845 723.788 590.757 726.335 592.642C727.649 593.615 729.127 593.873 731.832 593.682C733.637 593.555 735.48 592.837 736.96 591.969V590.09Z" fill="white"/>
<path d="M734.542 592.784C734.542 593.606 735.171 594.165 736.03 594.165C736.89 594.165 737.478 593.644 737.478 592.784V586.011C737.478 584.214 737.009 582.755 735.993 581.765C735.029 580.775 733.492 580.228 731.434 580.228C729.637 580.228 728.308 580.541 727.006 581.036C726.537 581.218 726.146 581.713 726.146 582.286C726.146 583.016 726.745 583.589 727.475 583.589C727.631 583.589 727.787 583.563 727.97 583.51C728.829 583.172 729.819 582.963 731.018 582.963C733.232 582.963 734.43 584.005 734.43 585.959V585.968L734.542 592.784Z" fill="white"/>
<path d="M733.611 578.379C733.611 578.591 733.273 578.721 732.805 578.721C732.077 578.721 731.583 578.64 730.984 578.282L729.216 577.24C728.956 577.093 728.774 576.93 728.774 576.751C728.774 576.442 729.814 576.116 730.646 576.116C731.192 576.116 731.609 576.295 731.895 576.588L733.377 578.021C733.481 578.119 733.611 578.265 733.611 578.379Z" fill="white"/>
</g>
<defs>
<linearGradient id="paint0_linear_5189_12535" x1="800" y1="-1.86968e-05" x2="1.22566" y2="601.627" gradientUnits="userSpaceOnUse">
<stop stop-color="#0087B1"/>
<stop offset="1" stop-color="#001B23"/>
</linearGradient>
<clipPath id="clip0_5189_12535">
<rect width="800" height="600" fill="white"/>
</clipPath>
</defs>
</svg>
