<?xml version="1.0" encoding="UTF-8"?>
<svg width="800px" height="600px" viewBox="0 0 800 600" version="1.1" xmlns="http://www.w3.org/2000/svg" xmlns:xlink="http://www.w3.org/1999/xlink">
    <title>2041-10-13-17-10_GitHubSSHSetup</title>
    <defs>
        <path d="M8.68744595,14.5405413 C10.6544909,13.5649687 12,11.5915112 12,9.31636202 C12,6.07252388 9.26504479,3.44227578 5.89152197,3.44227578 C4.52034181,3.44227578 3.25480793,3.87689217 2.23537065,4.61058921 L2.23537065,1.05770107 C2.23537065,0.476155373 1.74046224,0 1.11695169,0 C0.493934821,0 0.0167986821,0.476630104 0.0167986821,1.05770107 L0.0167986821,1.80184219 L0,9.32158406 C-0.0041824725,11.2003327 0.951817666,12.865215 2.41753644,13.8939574 C2.4777647,13.9362085 2.55848043,13.9312238 2.6127846,13.8823265 C2.66758244,13.8334292 2.6779496,13.7558106 2.63746831,13.6950451 C0.724974359,10.8146136 1.16014819,5.53963813 5.89176881,5.53963813 C8.05899866,5.53963813 9.80709909,7.22944376 9.81623206,9.31351363 C9.82240299,10.8599505 9.11620201,12.0365717 8.19549958,12.7781018 C6.36026565,14.2561773 3.64974731,12.6382934 4.49738595,10.4697214 C4.5894562,10.2335427 4.71879884,9.9959397 4.88664808,9.76189723 L5.12361171,9.47705853 C5.19766284,9.39967734 5.25048599,9.29903433 5.2146946,9.19411874 C5.01401603,8.62800181 3.46832203,8.97526767 3.04005964,10.0315445 C3.34292878,9.79631524 3.65986763,9.66433998 3.96940137,9.71489885 C2.38890334,11.275815 3.44141679,13.9563846 5.46005069,14.7513219 C6.40494316,15.1232738 7.55964718,15.0976383 8.68744595,14.5405413" id="path-1"></path>
        <linearGradient x1="28.568518%" y1="104.445731%" x2="78.3472072%" y2="20.6880271%" id="linearGradient-3">
            <stop stop-color="#000F98" offset="0%"></stop>
            <stop stop-color="#00A5FD" offset="100%"></stop>
        </linearGradient>
    </defs>
    <g id="2041-10-13-17-10_GitHubSSHSetup" stroke="none" stroke-width="1" fill="none" fill-rule="evenodd">
        <rect fill="#FFFFFF" x="0" y="0" width="800" height="600"></rect>
        <g id="bloovee-winner-logo" transform="translate(725.000000, 580.000000)">
            <path d="M13,13.7751507 C13,14.396312 13.4732558,14.8717809 14.0514961,14.8717809 C14.6474304,14.8717809 15.1204503,14.3968042 15.1204503,13.7751507 L15.1204503,2.09687626 C15.1204503,1.49368045 14.6474304,1 14.0514961,1 C13.4557977,1 13,1.49392656 13,2.09687626 L13,13.7751507 Z M21.7920364,15 C24.6483217,15 26.751078,12.7149437 26.751078,9.97312215 L26.751078,9.93645297 C26.751078,7.17641992 24.6657798,4.92778666 21.8269526,4.92778666 C18.9881254,4.92778666 16.885369,7.212843 16.885369,9.97312215 L16.885369,10.0095452 C16.885369,12.7516128 18.9706673,15 21.7920364,15 Z M21.8269526,13.0621935 C20.179994,13.0621935 19.0055834,11.6547366 19.0055834,9.97312215 L19.0055834,9.93645297 C19.0055834,8.25459244 20.0919958,6.86534709 21.7920364,6.86534709 C23.456689,6.86534709 24.6306277,8.27305008 24.6306277,9.97312215 L24.6306277,10.0095452 C24.6306277,11.6731942 23.5444513,13.0621935 21.8269526,13.0621935 Z M32.8092717,15 C35.665557,15 37.7683133,12.7149437 37.7683133,9.97312215 L37.7683133,9.93645297 C37.7683133,7.17641992 35.6830151,4.92778666 32.8441878,4.92778666 C30.0053606,4.92778666 27.9026043,7.212843 27.9026043,9.97312215 L27.9026043,10.0095452 C27.9026043,12.7516128 29.9879025,15 32.8092717,15 Z M32.8441878,13.0621935 C31.1969933,13.0621935 30.0228187,11.6547366 30.0228187,9.97312215 L30.0228187,9.93645297 C30.0228187,8.25459244 31.109231,6.86534709 32.8092717,6.86534709 C34.4739243,6.86534709 35.647863,8.27305008 35.647863,9.97312215 L35.647863,10.0095452 C35.647863,11.6731942 34.5614506,13.0621935 32.8441878,13.0621935 Z M44.1416963,13.9944275 L47.2261164,6.6096472 C47.2784906,6.49988574 47.3487948,6.28060893 47.3487948,6.07954366 C47.3487948,5.47610175 46.8929971,5.01933658 46.3147568,5.01933658 C45.7539746,5.01933658 45.4737015,5.40300947 45.3158709,5.78692847 L42.8976893,12.2215093 L40.5144239,5.82335156 C40.3393711,5.36634029 40.041404,5.01933658 39.4629278,5.01933658 C38.8846875,5.01933658 38.4116676,5.53098247 38.4116676,6.07954366 C38.4116676,6.28060893 38.4817358,6.46346265 38.534346,6.62785874 L41.6182943,13.9944275 C41.8638872,14.5796579 42.2491448,14.9633308 42.8273851,14.9633308 L42.9326055,14.9633308 C43.5108458,14.9633308 43.8965752,14.5612003 44.1416963,13.9944275 Z M50.0949054,9.27837643 C50.2876522,7.77961573 51.1987758,6.73762019 52.4956289,6.73762019 C53.8974665,6.73762019 54.7036056,7.8524619 54.8437422,9.27837643 L50.0949054,9.27837643 Z M56.070527,13.72027 C56.2281217,13.5558739 56.3508002,13.3181395 56.3508002,13.0439819 C56.3508002,12.5320899 55.9830006,12.1481709 55.5095089,12.1481709 C55.2641519,12.1481709 55.1242513,12.2215093 54.9664207,12.3492362 C54.3704864,12.8611282 53.6695676,13.1901665 52.7759021,13.1901665 C51.4089807,13.1901665 50.3402624,12.3128131 50.1123635,10.7409601 L55.9126964,10.7409601 C56.4560206,10.7409601 56.9115824,10.3021604 56.9115824,9.68050697 C56.9115824,7.45057746 55.4568987,4.92778666 52.513087,4.92778666 C49.8672425,4.92778666 47.9919132,7.19438536 47.9919132,9.95466451 L47.9919132,9.9913337 C47.9919132,12.9708897 50.0597533,15 52.7409859,15 C54.1779755,15 55.2292357,14.5063195 56.070527,13.72027 Z M60.1833231,9.27837643 C60.3763058,7.77961573 61.2871935,6.73762019 62.5842825,6.73762019 C63.9858841,6.73762019 64.7920233,7.8524619 64.9321598,9.27837643 L60.1833231,9.27837643 Z M66.1589447,13.72027 C66.3167752,13.5558739 66.4394537,13.3181395 66.4394537,13.0439819 C66.4394537,12.5320899 66.0714183,12.1481709 65.5981624,12.1481709 C65.3528055,12.1481709 65.2126689,12.2215093 65.0548383,12.3492362 C64.4591399,12.8611282 63.7582212,13.1901665 62.8643197,13.1901665 C61.4976342,13.1901665 60.4289159,12.3128131 60.2007812,10.7409601 L66.0011141,10.7409601 C66.5444382,10.7409601 67,10.3021604 67,9.68050697 C67,7.45057746 65.5455522,4.92778666 62.6015046,4.92778666 C59.9556601,4.92778666 58.0805667,7.19438536 58.0805667,9.95466451 L58.0805667,9.9913337 C58.0805667,12.9708897 60.1484069,15 62.8294035,15 C64.2663932,15 65.3178893,14.5063195 66.1589447,13.72027 L66.1589447,13.72027 Z" id="Fill-1" fill="#030060"></path>
            <g id="Group-4">
                <mask id="mask-2" fill="white">
                    <use xlink:href="#path-1"></use>
                </mask>
                <g id="Clip-3"></g>
                <path d="M8.68744595,14.5405413 C10.6544909,13.5649687 12,11.5915112 12,9.31636202 C12,6.07252388 9.26504479,3.44227578 5.89152197,3.44227578 C4.52034181,3.44227578 3.25480793,3.87689217 2.23537065,4.61058921 L2.23537065,1.05770107 C2.23537065,0.476155373 1.74046224,0 1.11695169,0 C0.493934821,0 0.0167986821,0.476630104 0.0167986821,1.05770107 L0.0167986821,1.80184219 L0,9.32158406 C-0.0041824725,11.2003327 0.951817666,12.865215 2.41753644,13.8939574 C2.4777647,13.9362085 2.55848043,13.9312238 2.6127846,13.8823265 C2.66758244,13.8334292 2.6779496,13.7558106 2.63746831,13.6950451 C0.724974359,10.8146136 1.16014819,5.53963813 5.89176881,5.53963813 C8.05899866,5.53963813 9.80709909,7.22944376 9.81623206,9.31351363 C9.82240299,10.8599505 9.11620201,12.0365717 8.19549958,12.7781018 C6.36026565,14.2561773 3.64974731,12.6382934 4.49738595,10.4697214 C4.5894562,10.2335427 4.71879884,9.9959397 4.88664808,9.76189723 L5.12361171,9.47705853 C5.19766284,9.39967734 5.25048599,9.29903433 5.2146946,9.19411874 C5.01401603,8.62800181 3.46832203,8.97526767 3.04005964,10.0315445 C3.34292878,9.79631524 3.65986763,9.66433998 3.96940137,9.71489885 C2.38890334,11.275815 3.44141679,13.9563846 5.46005069,14.7513219 C6.40494316,15.1232738 7.55964718,15.0976383 8.68744595,14.5405413" id="Fill-2" fill="url(#linearGradient-3)" mask="url(#mask-2)"></path>
            </g>
        </g>
        <g id="github-copy" transform="translate(748.000000, 3.000000)" fill="#000000" fill-rule="nonzero">
            <path d="M22.9998956,0 C11.7204239,0.000469179946 2.10590223,8.20619911 0.299077857,19.3745239 C-1.50774651,30.5428487 5.02642435,41.3773525 15.7268887,44.9558377 C16.8767785,45.1577383 17.3079872,44.4656891 17.3079872,43.8600567 C17.3079872,43.3121892 17.279217,41.4954764 17.279217,39.5634644 C11.5009978,40.6303861 10.0061411,38.1505528 9.54618516,36.8529173 C9.03580825,35.5908656 8.22674528,34.472458 7.1889111,33.5943411 C6.38398825,33.161796 5.23409847,32.0948512 7.16014086,32.066061 C8.65271236,32.2285228 9.97246422,33.1110528 10.6960749,34.4305721 C11.3313462,35.5753322 12.3946869,36.4194146 13.6513665,36.7764896 C14.9080461,37.1335647 16.2547288,36.9742705 17.3941369,36.3337708 C17.4936968,35.160991 18.0147545,34.0644705 18.8602924,33.2483742 C13.7432829,32.6716473 8.39629538,30.6818473 8.39629538,21.8580182 C8.36397821,19.5652878 9.20739391,17.3470389 10.7535694,15.6582042 C10.0504849,13.6655423 10.1327507,11.4787423 10.9835474,9.54489918 C10.9835474,9.54489918 12.9095438,8.93931288 17.3079412,11.9094794 C21.0710431,10.8713094 25.0437372,10.8713094 28.806839,11.9094794 C33.2051215,8.9104996 35.1312329,9.54489918 35.1312329,9.54489918 C35.982145,11.4787155 36.0644125,13.6655602 35.3612108,15.6582042 C36.9120423,17.3441484 37.7561944,19.564334 37.7184849,21.8580182 C37.7184849,30.7107067 32.3427041,32.6716473 27.2257406,33.2483742 C28.336287,34.3774629 28.9028084,35.9349635 28.7780918,37.5161532 C28.7780918,40.6016882 28.7493216,43.0815215 28.7493216,43.8601489 C28.7493216,44.4657352 29.1805302,45.1866208 30.33042,44.95593 C41.0111617,41.3485442 47.5153422,30.5121007 45.6961446,19.3555019 C43.876947,8.19890308 34.2698179,0.00588375885 22.9998956,0 Z" id="Path"></path>
        </g>
        <text id="GitHub-SSH-Setup" fill-rule="nonzero" font-family="Helvetica" font-size="18" font-weight="normal" fill="#0055C2">
            <tspan x="10" y="23">GitHub SSH Setup</tspan>
        </text>
        <rect id="Rectangle" stroke="#0055C2" x="100.5" y="300.5" width="624" height="262"></rect>
        <text id="Generate-an-SSH-key" font-family="Helvetica" font-size="24" font-weight="normal" fill="#0055C2">
            <tspan x="187" y="390">Generate an SSH key pair</tspan>
        </text>
        <text id="Upload-the-public-ke" font-family="Helvetica" font-size="24" font-weight="normal" fill="#0055C2">
            <tspan x="187" y="473">Upload the public key to GitHub</tspan>
        </text>
        <text id="Test-a-connection-wi" font-family="Helvetica" font-size="24" font-weight="normal" fill="#0055C2">
            <tspan x="187" y="516">Test a connection with GitHub</tspan>
        </text>
        <text id="Copy-the-public-key" font-family="Helvetica" font-size="24" font-weight="normal" fill="#0055C2">
            <tspan x="187" y="430">Copy the public key</tspan>
        </text>
        <text id="Key-Steps-for-GitHub" font-family="Helvetica-Bold, Helvetica" font-size="28" font-weight="bold" fill="#0055C2">
            <tspan x="148" y="343">Key Steps for GitHub SSH settings</tspan>
        </text>
        <circle id="Oval" fill-opacity="0.3" fill="#C5DDFF" cx="215.5" cy="159.5" r="106.5"></circle>
        <circle id="Oval-Copy-2" fill-opacity="0.3" fill="#C5DDFF" cx="584.5" cy="159.5" r="106.5"></circle>
        <text id="Public-Key" fill-rule="nonzero" font-family="Helvetica-Bold, Helvetica" font-size="24" font-weight="bold" fill="#0055C2">
            <tspan x="154.146484" y="167">Public Key</tspan>
        </text>
        <text id="Secret-Key" fill-rule="nonzero" font-family="Helvetica-Bold, Helvetica" font-size="24" font-weight="bold" fill="#0055C2">
            <tspan x="522.960938" y="168">Secret Key</tspan>
        </text>
        <g id="Group-5-Copy-3" transform="translate(397.250000, 160.500000) rotate(-180.000000) translate(-397.250000, -160.500000) translate(290.500000, 128.500000)" fill="#C5DDFF">
            <rect id="Rectangle" transform="translate(102.500000, 32.000000) rotate(-540.000000) translate(-102.500000, -32.000000) " x="0" y="14.5" width="205" height="35"></rect>
            <path d="M206.424434,24.6989534 L233.935021,37.5945411 C234.435092,37.8289494 234.650454,38.4243627 234.416046,38.9244339 C234.251405,39.2756673 233.898494,39.5 233.510587,39.5 L178.489413,39.5 C177.937128,39.5 177.489413,39.0522847 177.489413,38.5 C177.489413,38.1120935 177.713746,37.7591817 178.064979,37.5945411 L205.575566,24.6989534 C205.844483,24.5728986 206.155517,24.5728986 206.424434,24.6989534 Z" id="Triangle-Copy" transform="translate(206.000000, 32.000000) scale(-1, 1) rotate(-450.000000) translate(-206.000000, -32.000000) "></path>
        </g>
        <g id="laptop-copy-2" transform="translate(628.000000, 188.000000)" fill-rule="nonzero">
            <path d="M80.7609058,0 L11.4303986,0 C8.23792586,0 5.66086957,2.593396 5.66086957,5.80611046 L5.66086957,43.6038895 C5.66086957,44.9780024 6.14166365,46.2166392 6.93016595,47.2230317 C7.96868118,48.5584371 9.60338107,49.41 11.4303986,49.41 L80.9339916,49.41 C82.6648503,49.3519389 84.2226232,48.5197297 85.2611384,47.2423854 C86.0496407,46.2359929 86.5304348,44.9780024 86.5304348,43.6038895 L86.5304348,5.80611046 C86.5304348,2.593396 83.9341467,0 80.7609058,0 Z M11.4303986,45.5392597 C10.3726516,45.5392597 9.50722225,44.6683431 9.50722225,43.6038895 L9.50722225,5.80611046 C9.50722225,4.72230317 10.3726516,3.87074031 11.4303986,3.87074031 L80.7609058,3.87074031 C81.8186527,3.87074031 82.6840821,4.72230317 82.6840821,5.80611046 L82.6840821,43.6038895 C82.6840821,44.6683431 81.8186527,45.5392597 80.7609058,45.5392597 L11.4303986,45.5392597 Z" id="Shape" fill="#0055C2"></path>
            <path d="M82.4869565,5.19633999 L82.4869565,43.40366 C82.4869565,44.479647 81.6166257,45.36 80.5528881,45.36 L10.8297206,45.36 C9.76598297,45.36 8.89565217,44.479647 8.89565217,43.40366 L8.89565217,5.19633999 C8.89565217,4.1007896 9.76598297,3.24 10.8297206,3.24 L80.5528881,3.24 C81.6166257,3.24 82.4869565,4.1007896 82.4869565,5.19633999 Z" id="Path" fill="#FFFFFF"></path>
            <path d="M92.8563334,73.3438116 L87.9542844,51.1672658 C87.663649,49.8472334 86.9467486,48.6969193 85.9585885,47.8294694 C84.7960472,46.792301 83.2653679,46.17 81.5990587,46.17 L11.3815656,46.17 C9.73463212,46.17 8.18457709,46.792301 7.0414115,47.8106118 C6.03387573,48.6780617 5.31697527,49.8283757 5.02633995,51.1672658 L0.143666592,73.3438116 C-0.263222855,75.2107147 0.201793656,77.1530482 1.44183768,78.6427991 C2.68188171,80.1325501 4.52257207,81 6.49889224,81 L86.5011078,81 C88.4774279,81 90.3181183,80.1325501 91.5581623,78.6427991 C92.7982063,77.1530482 93.2632229,75.2107147 92.8563334,73.3438116 Z M88.535555,76.2667407 C88.0317871,76.8701841 87.295511,77.2284786 86.5011078,77.2284786 L6.49889224,77.2284786 C5.70448903,77.2284786 4.9488372,76.8701841 4.44506932,76.2667407 C3.96067712,75.6632972 3.76692024,74.8901354 3.92192574,74.1358311 L8.82397479,51.9592853 C9.07585873,50.7901137 10.1608973,49.9415214 11.3815656,49.9415214 L81.5990587,49.9415214 C82.8391027,49.9415214 83.9241413,50.7901137 84.1760252,51.9592853 L89.0586986,74.1358311 C89.2330798,74.8901354 89.0393229,75.6632972 88.535555,76.2667407 Z" id="Shape" fill="#0055C2"></path>
            <path d="M89.7015304,74.5468697 L84.7456276,51.506374 C84.4773094,50.2816191 83.3883341,49.4088238 82.1300122,49.4100012 L10.8594103,49.4100012 C9.6204346,49.4100012 8.51912287,50.291654 8.26346122,51.506374 L3.28789216,74.5468697 C3.13056191,75.33056 3.32722472,76.1338426 3.81888174,76.7607948 C4.33020504,77.3877471 5.09719,77.76 5.90350751,77.76 L87.1055813,77.76 C87.9118988,77.76 88.6592175,77.3877471 89.1705408,76.7607948 C89.6818641,76.1338426 89.8785269,75.33056 89.7015304,74.5468697 L89.7015304,74.5468697 Z M14.0332914,54.725626 L78.9667086,54.725626 C80.0692773,54.725626 80.9355812,55.5229697 80.9355812,56.4975009 C80.9355812,57.4720321 80.0692773,58.2693758 78.9667086,58.2693758 L14.0332914,58.2693758 C12.9504115,58.2693758 12.0644188,57.4720321 12.0644188,56.4975009 C12.0644188,55.5229697 12.9504115,54.725626 14.0332914,54.725626 Z M50.7033936,70.6725003 L8.74398887,70.6725003 C7.65644539,70.6725003 6.76663709,69.8928753 6.76663709,68.9006254 C6.76663709,67.9260942 7.65644539,67.1287504 8.74398887,67.1287504 L50.7033936,67.1287504 C51.790937,67.1287504 52.6807453,67.9260942 52.6807453,68.9006254 C52.6807453,69.8928753 51.790937,70.6725003 50.7033936,70.6725003 L50.7033936,70.6725003 Z M80.6912585,70.6725003 L61.7547042,70.6725003 C60.6490668,70.6725003 59.7444543,69.8928753 59.7444543,68.9006254 C59.7444543,67.9260942 60.6490668,67.1287504 61.7547042,67.1287504 L80.6912585,67.1287504 C81.796896,67.1287504 82.7015084,67.9260942 82.7015084,68.9006254 C82.7015084,69.8928753 81.796896,70.6725003 80.6912585,70.6725003 Z" id="Shape" fill="#D0E8F9"></path>
            <path d="M80.7379171,56.07 C80.7379171,57.06 79.8798977,57.87 78.7878731,57.87 L14.4754231,57.87 C13.402899,57.87 12.5253792,57.06 12.5253792,56.07 C12.5253792,55.08 13.402899,54.27 14.4754231,54.27 L78.7878731,54.27 C79.8798977,54.27 80.7379171,55.08 80.7379171,56.07 Z M52.7532861,68.67 C52.7532861,69.678 51.8719872,70.47 50.7948441,70.47 L9.23670296,70.47 C8.15955981,70.47 7.27826087,69.678 7.27826087,68.67 C7.27826087,67.68 8.15955981,66.87 9.23670296,66.87 L50.7948441,66.87 C51.8719872,66.87 52.7532861,67.68 52.7532861,68.67 Z M82.4869565,68.67 C82.4869565,69.678 81.590995,70.47 80.4959309,70.47 L61.7404695,70.47 C60.6454054,70.47 59.7494439,69.678 59.7494439,68.67 C59.7494439,67.68 60.6454054,66.87 61.7404695,66.87 L80.4959309,66.87 C81.590995,66.87 82.4869565,67.68 82.4869565,68.67 Z" id="Shape" fill="#0055C2"></path>
            <path d="M22.6434783,45.36 L36.1829561,45.36 L54.2880907,3.24 L40.7486129,3.24 L22.6434783,45.36 Z M44.7851263,45.36 L63.0782609,3.24 L58.5166778,3.24 L40.2238185,45.36 L44.7851263,45.36 Z" id="Shape" fill="#C5DDFF"></path>
        </g>
        <rect id="Rectangle-Copy" stroke="#0055C2" fill="#0055C2" x="329.5" y="107.5" width="135" height="109" rx="6"></rect>
        <g id="Group-6" transform="translate(166.000000, 95.000000)" fill-rule="nonzero">
            <g id="Group-5" transform="translate(0.000000, -0.214664)">
                <path d="M95.6178837,15.0678904 L31.5668803,15.0678904 C29.9736649,6.44670002 23.5987233,0 15.9737524,0 C7.15490994,0 0,8.62948999 0,19.2757783 C0,29.9199917 7.15490994,38.5515566 15.9737524,38.5515566 C23.5987233,38.5515566 29.971585,32.1027817 31.5648004,23.4836662 L95.6158038,23.4836662 C97.9453789,23.4842391 99.8349128,21.600768 99.8349128,19.2768158 C99.8349128,16.9528635 97.9474588,15.0684634 95.6178837,15.0678904 L95.6178837,15.0678904 Z M23.9190303,25.5066892 C23.9213328,29.2130828 21.3485315,32.4261856 17.7244891,33.2428864 C14.1004466,34.0595872 10.3929369,32.2617921 8.79790682,28.9143297 C7.20287674,25.5668672 8.14626736,21.5636528 11.0693113,19.2757783 C8.40483639,17.1888581 7.35980436,13.6461445 8.46651475,10.4521612 C9.57322514,7.25817787 12.5882428,5.11548241 15.9758323,5.11548241 C19.3634219,5.11548241 22.3784396,7.25817787 23.4851499,10.4521612 C24.5918603,13.6461445 23.5468283,17.1888581 20.8823534,19.2757783 C22.8015951,20.7760869 23.9215773,23.0742732 23.9190303,25.5066892 Z" id="Shape" fill="#0055C2"></path>
                <polygon id="Path" fill="#0055C2" points="70.2325128 21.6370093 73.7621297 21.6370093 73.7621297 32.1256056 70.2325128 32.1256056"></polygon>
                <ellipse id="Oval" fill="#0055C2" cx="71.9983612" cy="32.1276804" rx="4.3241447" ry="4.31370755"></ellipse>
                <ellipse id="Oval" fill="#FFFFFF" cx="71.9983612" cy="32.1276804" rx="2.19639096" ry="2.19108955"></ellipse>
                <g id="Group" transform="translate(77.861796, 21.637009)">
                    <polygon id="Path" fill="#0055C2" points="2.55829629 0 6.0879132 0 6.0879132 19.8069515 2.55829629 19.8069515"></polygon>
                    <ellipse id="Oval" fill="#0055C2" cx="4.3241447" cy="19.8069515" rx="4.3241447" ry="4.31370755"></ellipse>
                    <ellipse id="Oval" fill="#FFFFFF" cx="4.3241447" cy="19.8069515" rx="2.19639096" ry="2.19108955"></ellipse>
                </g>
                <g id="Group" transform="translate(88.049376, 21.637009)">
                    <polygon id="Path" fill="#0055C2" points="2.55829629 0 6.0879132 0 6.0879132 10.4885963 2.55829629 10.4885963"></polygon>
                    <ellipse id="Oval" fill="#0055C2" cx="4.3241447" cy="10.4906712" rx="4.3241447" ry="4.31370755"></ellipse>
                    <ellipse id="Oval" fill="#FFFFFF" cx="4.3241447" cy="10.4906712" rx="2.19639096" ry="2.19108955"></ellipse>
                </g>
            </g>
        </g>
        <g id="Group-6-Copy" transform="translate(585.000000, 117.878834) rotate(-180.000000) translate(-585.000000, -117.878834) translate(535.000000, 95.000000)" fill-rule="nonzero">
            <g id="Group-5" transform="translate(0.496410, 0.214664)">
                <path d="M95.6178837,15.0678904 L31.5668803,15.0678904 C29.9736649,6.44670002 23.5987233,0 15.9737524,0 C7.15490994,0 0,8.62948999 0,19.2757783 C0,29.9199917 7.15490994,38.5515566 15.9737524,38.5515566 C23.5987233,38.5515566 29.971585,32.1027817 31.5648004,23.4836662 L95.6158038,23.4836662 C97.9453789,23.4842391 99.8349128,21.600768 99.8349128,19.2768158 C99.8349128,16.9528635 97.9474588,15.0684634 95.6178837,15.0678904 L95.6178837,15.0678904 Z M23.9190303,25.5066892 C23.9213328,29.2130828 21.3485315,32.4261856 17.7244891,33.2428864 C14.1004466,34.0595872 10.3929369,32.2617921 8.79790682,28.9143297 C7.20287674,25.5668672 8.14626736,21.5636528 11.0693113,19.2757783 C8.40483639,17.1888581 7.35980436,13.6461445 8.46651475,10.4521612 C9.57322514,7.25817787 12.5882428,5.11548241 15.9758323,5.11548241 C19.3634219,5.11548241 22.3784396,7.25817787 23.4851499,10.4521612 C24.5918603,13.6461445 23.5468283,17.1888581 20.8823534,19.2757783 C22.8015951,20.7760869 23.9215773,23.0742732 23.9190303,25.5066892 Z" id="Shape" fill="#0055C2"></path>
                <polygon id="Path" fill="#0055C2" points="70.2325128 21.6370093 73.7621297 21.6370093 73.7621297 32.1256056 70.2325128 32.1256056"></polygon>
                <ellipse id="Oval" fill="#0055C2" cx="71.9983612" cy="32.1276804" rx="4.3241447" ry="4.31370755"></ellipse>
                <ellipse id="Oval" fill="#FFFFFF" cx="71.9983612" cy="32.1276804" rx="2.19639096" ry="2.19108955"></ellipse>
                <g id="Group" transform="translate(77.861796, 21.637009)">
                    <polygon id="Path" fill="#0055C2" points="2.55829629 0 6.0879132 0 6.0879132 19.8069515 2.55829629 19.8069515"></polygon>
                    <ellipse id="Oval" fill="#0055C2" cx="4.3241447" cy="19.8069515" rx="4.3241447" ry="4.31370755"></ellipse>
                    <ellipse id="Oval" fill="#FFFFFF" cx="4.3241447" cy="19.8069515" rx="2.19639096" ry="2.19108955"></ellipse>
                </g>
                <g id="Group" transform="translate(88.049376, 21.637009)">
                    <polygon id="Path" fill="#0055C2" points="2.55829629 0 6.0879132 0 6.0879132 10.4885963 2.55829629 10.4885963"></polygon>
                    <ellipse id="Oval" fill="#0055C2" cx="4.3241447" cy="10.4906712" rx="4.3241447" ry="4.31370755"></ellipse>
                    <ellipse id="Oval" fill="#FFFFFF" cx="4.3241447" cy="10.4906712" rx="2.19639096" ry="2.19108955"></ellipse>
                </g>
            </g>
        </g>
        <path d="M375.218094,174 C378.329564,174 380.626817,173.277108 382.168013,171.80241 C383.360258,170.616867 384,168.939759 384,166.886747 C384,164.718072 383.243942,163.127711 381.58643,161.913253 C380.53958,161.190361 379.14378,160.640964 376.846527,160.149398 C374.19513,159.555594 373.564699,159.410536 373.069512,159.233425 L372.942161,159.186179 C372.878779,159.161876 372.814909,159.136317 372.746365,159.108434 C371.408724,158.53012 370.768982,157.691566 370.768982,156.477108 C370.768982,154.59759 372.484653,153.325301 375.01454,153.325301 C376.613893,153.325301 377.893376,153.816867 378.649435,154.713253 C379.14378,155.291566 379.347334,155.783133 379.521809,156.766265 L383.680129,156.274699 C383.331179,154.742169 382.982229,153.874699 382.25525,152.920482 C380.830372,151.012048 378.329564,150 375.01454,150 C370.012924,150 366.756058,152.60241 366.756058,156.621687 C366.756058,158.559036 367.512116,160.149398 368.995153,161.306024 C370.042003,162.115663 371.20517,162.578313 373.386107,163.06988 C377.399031,163.995181 377.573506,164.024096 378.44588,164.486747 C379.347334,164.978313 379.899838,165.961446 379.899838,167.146988 C379.899838,169.315663 378.155089,170.616867 375.247173,170.616867 C373.357027,170.616867 371.844911,170.009639 371.001616,168.910843 C370.478191,168.245783 370.303716,167.66747 370.187399,166.366265 L366,166.8 C366.174475,167.985542 366.290792,168.53494 366.552504,169.2 C367.105008,170.616867 367.948304,171.715663 369.11147,172.496386 C370.50727,173.421687 372.833603,174 375.218094,174 Z M396.218094,174 C399.329564,174 401.626817,173.277108 403.168013,171.80241 C404.360258,170.616867 405,168.939759 405,166.886747 C405,164.718072 404.243942,163.127711 402.58643,161.913253 C401.53958,161.190361 400.14378,160.640964 397.846527,160.149398 C395.19513,159.555594 394.564699,159.410536 394.069512,159.233425 L393.942161,159.186179 C393.878779,159.161876 393.814909,159.136317 393.746365,159.108434 C392.408724,158.53012 391.768982,157.691566 391.768982,156.477108 C391.768982,154.59759 393.484653,153.325301 396.01454,153.325301 C397.613893,153.325301 398.893376,153.816867 399.649435,154.713253 C400.14378,155.291566 400.347334,155.783133 400.521809,156.766265 L404.680129,156.274699 C404.331179,154.742169 403.982229,153.874699 403.25525,152.920482 C401.830372,151.012048 399.329564,150 396.01454,150 C391.012924,150 387.756058,152.60241 387.756058,156.621687 C387.756058,158.559036 388.512116,160.149398 389.995153,161.306024 C391.042003,162.115663 392.20517,162.578313 394.386107,163.06988 C398.399031,163.995181 398.573506,164.024096 399.44588,164.486747 C400.347334,164.978313 400.899838,165.961446 400.899838,167.146988 C400.899838,169.315663 399.155089,170.616867 396.247173,170.616867 C394.357027,170.616867 392.844911,170.009639 392.001616,168.910843 C391.478191,168.245783 391.303716,167.66747 391.187399,166.366265 L387,166.8 C387.174475,167.985542 387.290792,168.53494 387.552504,169.2 C388.105008,170.616867 388.948304,171.715663 390.11147,172.496386 C391.50727,173.421687 393.833603,174 396.218094,174 Z M413.356725,174 C413.181287,172.815327 413.122807,171.948492 413.122807,170.272613 L413.122807,163.742462 L424.877193,163.742462 L424.877193,170.272613 C424.877193,171.977387 424.818713,172.873116 424.643275,174 L429,174 C428.824561,172.786432 428.766082,171.948492 428.766082,170.272613 L428.766082,154.698492 C428.766082,153.051508 428.824561,152.184673 429,151 L424.643275,151 C424.818713,152.040201 424.877193,153.080402 424.877193,154.727387 L424.877193,160.275126 L413.122807,160.275126 L413.122807,154.698492 C413.122807,153.167085 413.181287,152.213568 413.356725,151 L409,151 C409.175439,152.126884 409.233918,153.022613 409.233918,154.727387 L409.233918,170.272613 C409.233918,171.977387 409.175439,172.90201 409,174 L413.356725,174 Z" id="SSH" fill="#FFFFFF" fill-rule="nonzero"></path>
        <g id="Group-2" transform="translate(148.000000, 368.000000)">
            <ellipse id="Oval" fill="#006AE1" cx="13" cy="15.5217391" rx="13" ry="13.4782609"></ellipse>
            <text id="1" font-family="Helvetica-Bold, Helvetica" font-size="24" font-weight="bold" fill="#FFFFFF">
                <tspan x="6.97617187" y="23">1</tspan>
            </text>
        </g>
        <g id="Group-2-Copy-3" transform="translate(148.000000, 453.000000)">
            <ellipse id="Oval" fill="#006AE1" cx="13" cy="15.5217391" rx="13" ry="13.4782609"></ellipse>
            <text id="3" font-family="Helvetica-Bold, Helvetica" font-size="24" font-weight="bold" fill="#FFFFFF">
                <tspan x="6.97617187" y="23">3</tspan>
            </text>
        </g>
        <g id="Group-2-Copy-4" transform="translate(148.000000, 496.000000)">
            <ellipse id="Oval" fill="#006AE1" cx="13" cy="15.5217391" rx="13" ry="13.4782609"></ellipse>
            <text id="4" font-family="Helvetica-Bold, Helvetica" font-size="24" font-weight="bold" fill="#FFFFFF">
                <tspan x="6.97617187" y="23">4</tspan>
            </text>
        </g>
        <g id="Group-2-Copy-2" transform="translate(148.000000, 411.000000)">
            <ellipse id="Oval" fill="#006AE1" cx="13" cy="15.5217391" rx="13" ry="13.4782609"></ellipse>
            <text id="2" font-family="Helvetica-Bold, Helvetica" font-size="24" font-weight="bold" fill="#FFFFFF">
                <tspan x="6.97617187" y="23">2</tspan>
            </text>
        </g>
        <g id="Group-3" transform="translate(83.000000, 180.000000)" fill="#000000" fill-rule="nonzero">
            <text id="GitHub" font-family="Helvetica-Bold, Helvetica" font-size="30" font-weight="bold">
                <tspan x="2.01220703" y="91">GitHub</tspan>
            </text>
            <g id="github-copy-9" transform="translate(26.000000, 0.000000)">
                <path d="M26.4998798,0 C13.5039667,0.000552589714 2.42636561,9.66507895 0.344589705,22.8188837 C-1.7371862,35.9726885 5.79131501,48.7333263 18.1201109,52.9479867 C19.444984,53.1857806 19.9418113,52.3707005 19.9418113,51.6574001 C19.9418113,51.0121339 19.908663,48.87245 19.908663,46.5969692 C13.2511496,47.8535658 11.5288147,44.9328732 10.9988655,43.404547 C10.4108225,41.9181306 9.4786413,40.600895 8.28287584,39.5666685 C7.35546473,39.0572264 6.03059171,37.8006026 8.24972751,37.7666941 C9.96942946,37.9580379 11.4900131,38.9974621 12.3237385,40.5515626 C13.0556815,41.8998357 14.2808349,42.8939771 15.7287484,43.3145322 C17.1766618,43.7350873 18.7282745,43.5474741 20.0410708,42.7931078 C20.1557811,41.4118339 20.7561302,40.1203763 21.7303369,39.1591963 C15.834652,38.4799402 9.6739925,36.1363979 9.6739925,25.7438881 C9.63675751,23.0435611 10.6085191,20.4309569 12.3899822,18.4418849 C11.5799066,16.0949721 11.6746911,13.5194076 12.6549568,11.2417701 C12.6549568,11.2417701 14.8740396,10.5285241 19.9417583,14.0267202 C24.2775061,12.8039867 28.8547407,12.8039867 33.1904885,14.0267202 C38.2580747,10.4945884 40.47729,11.2417701 40.47729,11.2417701 C41.4576888,13.5193761 41.5524752,16.0949932 40.7422646,18.4418849 C42.5290922,20.4275525 43.5017022,23.0424379 43.4582543,25.7438881 C43.4582543,36.1703879 37.26442,38.4799402 31.3687881,39.1591963 C32.6483307,40.4890119 33.3010618,42.3234014 33.1573666,44.1856915 C33.1573666,47.8197661 33.1242183,50.7404586 33.1242183,51.6575087 C33.1242183,52.3707548 33.6210457,53.2197978 34.9459187,52.9480953 C47.2519906,48.6993964 54.7459378,35.9364741 52.6499057,22.79648 C50.5538737,9.65648585 39.4847902,0.00692976042 26.4998798,0 Z" id="Path"></path>
            </g>
        </g>
    </g>
</svg>