<?xml version="1.0" encoding="UTF-8"?>
<svg width="800px" height="600px" viewBox="0 0 800 600" version="1.1" xmlns="http://www.w3.org/2000/svg" xmlns:xlink="http://www.w3.org/1999/xlink">
    <title>2041-10-14-15-10_SetUpRemoteRepositoryAndLinkWithLocalRepository</title>
    <defs>
        <linearGradient x1="75.0868056%" y1="0%" x2="24.9131944%" y2="100%" id="linearGradient-1">
            <stop stop-color="#00C6FF" offset="0.0491695804%"></stop>
            <stop stop-color="#079DC2" offset="100%"></stop>
        </linearGradient>
        <linearGradient x1="75.0868056%" y1="0%" x2="24.9131944%" y2="100%" id="linearGradient-2">
            <stop stop-color="#00A5FF" offset="0.0491695804%"></stop>
            <stop stop-color="#0755C2" offset="100%"></stop>
        </linearGradient>
        <path d="M8.68744595,14.5405413 C10.6544909,13.5649687 12,11.5915112 12,9.31636202 C12,6.07252388 9.26504479,3.44227578 5.89152197,3.44227578 C4.52034181,3.44227578 3.25480793,3.87689217 2.23537065,4.61058921 L2.23537065,1.05770107 C2.23537065,0.476155373 1.74046224,0 1.11695169,0 C0.493934821,0 0.0167986821,0.476630104 0.0167986821,1.05770107 L0.0167986821,1.80184219 L0,9.32158406 C-0.0041824725,11.2003327 0.951817666,12.865215 2.41753644,13.8939574 C2.4777647,13.9362085 2.55848043,13.9312238 2.6127846,13.8823265 C2.66758244,13.8334292 2.6779496,13.7558106 2.63746831,13.6950451 C0.724974359,10.8146136 1.16014819,5.53963813 5.89176881,5.53963813 C8.05899866,5.53963813 9.80709909,7.22944376 9.81623206,9.31351363 C9.82240299,10.8599505 9.11620201,12.0365717 8.19549958,12.7781018 C6.36026565,14.2561773 3.64974731,12.6382934 4.49738595,10.4697214 C4.5894562,10.2335427 4.71879884,9.9959397 4.88664808,9.76189723 L5.12361171,9.47705853 C5.19766284,9.39967734 5.25048599,9.29903433 5.2146946,9.19411874 C5.01401603,8.62800181 3.46832203,8.97526767 3.04005964,10.0315445 C3.34292878,9.79631524 3.65986763,9.66433998 3.96940137,9.71489885 C2.38890334,11.275815 3.44141679,13.9563846 5.46005069,14.7513219 C6.40494316,15.1232738 7.55964718,15.0976383 8.68744595,14.5405413" id="path-3"></path>
        <linearGradient x1="28.568518%" y1="104.445731%" x2="78.3472072%" y2="20.6880271%" id="linearGradient-5">
            <stop stop-color="#000F98" offset="0%"></stop>
            <stop stop-color="#00A5FD" offset="100%"></stop>
        </linearGradient>
        <linearGradient x1="32.1347447%" y1="14.4184139%" x2="56.5507815%" y2="75.461337%" id="linearGradient-6">
            <stop stop-color="#000000" offset="0%"></stop>
            <stop stop-color="#191919" offset="100%"></stop>
        </linearGradient>
        <linearGradient x1="41.256555%" y1="27.4242437%" x2="66.2542373%" y2="91.8289958%" id="linearGradient-7">
            <stop stop-color="#000000" offset="0%"></stop>
            <stop stop-color="#191919" offset="100%"></stop>
        </linearGradient>
        <linearGradient x1="37.7767324%" y1="54.6472168%" x2="54.5561385%" y2="48.5166165%" id="linearGradient-8">
            <stop stop-color="#FFB268" offset="26.3%"></stop>
            <stop stop-color="#FFBD82" offset="89%"></stop>
        </linearGradient>
        <linearGradient x1="62.3385512%" y1="55.2275559%" x2="45.33121%" y2="48.4943619%" id="linearGradient-9">
            <stop stop-color="#FFB268" offset="26.3%"></stop>
            <stop stop-color="#FFBD82" offset="89%"></stop>
        </linearGradient>
        <linearGradient x1="50%" y1="34.4268793%" x2="50%" y2="102.16082%" id="linearGradient-10">
            <stop stop-color="#F9B701" offset="21.5%"></stop>
            <stop stop-color="#F9DD01" offset="85.2%"></stop>
        </linearGradient>
        <linearGradient x1="-0.126903553%" y1="49.9990888%" x2="100.126904%" y2="49.9990888%" id="linearGradient-11">
            <stop stop-color="#F9B701" offset="6.4%"></stop>
            <stop stop-color="#F9DD01" offset="85.2%"></stop>
        </linearGradient>
        <linearGradient x1="94.6898239%" y1="49.9981326%" x2="18.68591%" y2="49.9981326%" id="linearGradient-12">
            <stop stop-color="#FFB268" offset="26.3%"></stop>
            <stop stop-color="#FFBD82" offset="89%"></stop>
        </linearGradient>
        <linearGradient x1="42.9653078%" y1="23.0349219%" x2="67.7077887%" y2="98.8866064%" id="linearGradient-13">
            <stop stop-color="#FFB268" offset="26.3%"></stop>
            <stop stop-color="#FFBD82" offset="89%"></stop>
        </linearGradient>
        <linearGradient x1="50%" y1="120.60429%" x2="50%" y2="27.1566046%" id="linearGradient-14">
            <stop stop-color="#BB0020" offset="12.3%"></stop>
            <stop stop-color="#640520" offset="85.2%"></stop>
        </linearGradient>
        <linearGradient x1="64.4410833%" y1="13.9130435%" x2="40.5627198%" y2="71.0543478%" id="linearGradient-15">
            <stop stop-color="#F9B701" offset="6.4%"></stop>
            <stop stop-color="#F9B901" offset="29.1%"></stop>
            <stop stop-color="#F9DD01" offset="85.2%"></stop>
        </linearGradient>
        <linearGradient x1="64.7746701%" y1="13.826087%" x2="40.8855458%" y2="70.9565217%" id="linearGradient-16">
            <stop stop-color="#F9B701" offset="6.4%"></stop>
            <stop stop-color="#F9B901" offset="29.1%"></stop>
            <stop stop-color="#F9DD01" offset="85.2%"></stop>
        </linearGradient>
        <linearGradient x1="18.8518519%" y1="791.490613%" x2="67.6944444%" y2="-375.677452%" id="linearGradient-17">
            <stop stop-color="#7212DE" offset="12.3%"></stop>
            <stop stop-color="#450078" offset="85.2%"></stop>
        </linearGradient>
        <linearGradient x1="31.1388889%" y1="497.808781%" x2="79.9814815%" y2="-669.350176%" id="linearGradient-18">
            <stop stop-color="#7212DE" offset="12.3%"></stop>
            <stop stop-color="#450078" offset="85.2%"></stop>
        </linearGradient>
        <linearGradient x1="43.4351852%" y1="204.136058%" x2="92.2777778%" y2="-963.0229%" id="linearGradient-19">
            <stop stop-color="#7212DE" offset="12.3%"></stop>
            <stop stop-color="#450078" offset="85.2%"></stop>
        </linearGradient>
        <linearGradient x1="15.2494472%" y1="21.5232725%" x2="104.890049%" y2="118.727393%" id="linearGradient-20">
            <stop stop-color="#000000" offset="0%"></stop>
            <stop stop-color="#191919" offset="100%"></stop>
        </linearGradient>
        <linearGradient x1="36.55911%" y1="40.4899497%" x2="64.1818664%" y2="65.9434673%" id="linearGradient-21">
            <stop stop-color="#F9B701" offset="6.4%"></stop>
            <stop stop-color="#F9B901" offset="29.1%"></stop>
            <stop stop-color="#F9DD01" offset="100%"></stop>
        </linearGradient>
        <linearGradient x1="56.8072846%" y1="36.2347716%" x2="36.2375903%" y2="74.3540609%" id="linearGradient-22">
            <stop stop-color="#F9B701" offset="6.4%"></stop>
            <stop stop-color="#F9B901" offset="29.1%"></stop>
            <stop stop-color="#F9DD01" offset="95.3%"></stop>
        </linearGradient>
    </defs>
    <g id="2041-10-14-15-10_SetUpRemoteRepositoryAndLinkWithLocalRepository" stroke="none" stroke-width="1" fill="none" fill-rule="evenodd">
        <rect fill="#FFFFFF" x="0" y="0" width="800" height="600"></rect>
        <text id="Set-Up-Remote-Reposi" fill-rule="nonzero" font-family="Helvetica" font-size="18" font-weight="normal" fill="#0055C2">
            <tspan x="10" y="23">Set Up Remote Repository And Link With Local Repository</tspan>
        </text>
        <text id="Developer-B" fill-rule="nonzero" font-family="Helvetica-Bold, Helvetica" font-size="18" font-weight="bold" fill="#0055C2">
            <tspan x="388.818991" y="537">Developer B</tspan>
        </text>
        <text id="Remote-Add-&amp;-Push" fill-rule="nonzero" font-family="Helvetica-Bold, Helvetica" font-size="18" font-weight="bold" fill="#0055C2">
            <tspan x="206.827148" y="301">Remote Add</tspan>
            <tspan x="253.000488" y="323">&amp;</tspan>
            <tspan x="237.496582" y="345">Push</tspan>
        </text>
        <text id="Fork" fill-rule="nonzero" font-family="Helvetica-Bold, Helvetica" font-size="18" font-weight="bold" fill="#199ABD">
            <tspan x="578" y="170">Fork</tspan>
        </text>
        <text id="Allow-Access" fill-rule="nonzero" font-family="Helvetica-Bold, Helvetica" font-size="18" font-weight="bold" fill="#199ABD">
            <tspan x="297" y="219">Allow Access</tspan>
        </text>
        <text id="Clone" fill-rule="nonzero" font-family="Helvetica-Bold, Helvetica" font-size="18" font-weight="bold" fill="#0055C2">
            <tspan x="442" y="320">Clone</tspan>
        </text>
        <rect id="Rectangle-Copy-21" fill="#A1E0E9" x="124" y="184" width="160" height="80" rx="40"></rect>
        <rect id="Rectangle-Copy-18" fill="#C5DDFF" x="124" y="381" width="160" height="80" rx="40"></rect>
        <rect id="Rectangle-Copy-19" fill="#C5DDFF" x="356" y="381" width="160" height="80" rx="40"></rect>
        <g id="Group-Copy-9" transform="translate(187.000000, 165.000000)" fill-rule="nonzero">
            <path d="M33.8189661,5.7339787 C32.5472891,1.96089061 24.7343146,0 17.0084413,0 C9.28256805,0 1.55669475,1.94230397 0.215336819,5.67821878 C0.0788205157,5.89880074 0.00612314784,6.15735065 0.0062940245,6.42168441 L0.0062940245,40.7419167 C-0.00209800817,40.8159937 -0.00209800817,40.8908795 0.0062940245,40.9649564 C0.00207718817,41.0299319 0.00207718817,41.0951407 0.0062940245,41.1601162 C0.0062940245,45.6487899 8.55962838,48 17.0084413,48 C25.4572543,48 33.9931684,45.6487899 33.9931684,41.1601162 C33.9973818,41.0982422 33.9973818,41.0361237 33.9931684,40.9742498 C34.0022772,40.8971103 34.0022772,40.8190562 33.9931684,40.7419167 L33.9931684,6.42168441 C33.9976154,6.17943324 33.9371821,5.94085796 33.8189661,5.7339787 Z" id="Path" fill="url(#linearGradient-1)"></path>
            <path d="M16.9984095,0 C28.0080369,0 33.991754,3.35510714 33.991754,5.07925941 C34.0027487,5.13291332 34.0027487,5.18870099 33.991754,5.2423549 C33.6312891,7.01310589 27.6372731,10.1818182 16.9984095,10.1818182 C6.35954601,10.1818182 0.365529974,6.97815685 0.00506509165,5.2423549 C-0.00168836388,5.19998096 -0.00168836388,5.15658239 0.00506509165,5.11420845 C0.00506509165,3.35510714 5.98878214,0 16.9984095,0 Z" id="Path" fill="#199ABD"></path>
        </g>
        <g id="Group-Copy-6" transform="translate(419.000000, 359.000000)" fill-rule="nonzero">
            <path d="M33.8189661,5.7339787 C32.5472891,1.96089061 24.7343146,0 17.0084413,0 C9.28256805,0 1.55669475,1.94230397 0.215336819,5.67821878 C0.0788205157,5.89880074 0.00612314784,6.15735065 0.0062940245,6.42168441 L0.0062940245,40.7419167 C-0.00209800817,40.8159937 -0.00209800817,40.8908795 0.0062940245,40.9649564 C0.00207718817,41.0299319 0.00207718817,41.0951407 0.0062940245,41.1601162 C0.0062940245,45.6487899 8.55962838,48 17.0084413,48 C25.4572543,48 33.9931684,45.6487899 33.9931684,41.1601162 C33.9973818,41.0982422 33.9973818,41.0361237 33.9931684,40.9742498 C34.0022772,40.8971103 34.0022772,40.8190562 33.9931684,40.7419167 L33.9931684,6.42168441 C33.9976154,6.17943324 33.9371821,5.94085796 33.8189661,5.7339787 Z" id="Path" fill="url(#linearGradient-2)"></path>
            <path d="M16.9984095,0 C28.0080369,0 33.991754,3.35510714 33.991754,5.07925941 C34.0027487,5.13291332 34.0027487,5.18870099 33.991754,5.2423549 C33.6312891,7.01310589 27.6372731,10.1818182 16.9984095,10.1818182 C6.35954601,10.1818182 0.365529974,6.97815685 0.00506509165,5.2423549 C-0.00168836388,5.19998096 -0.00168836388,5.15658239 0.00506509165,5.11420845 C0.00506509165,3.35510714 5.98878214,0 16.9984095,0 Z" id="Path" fill="#0055C2"></path>
        </g>
        <g id="Group-Copy-8" transform="translate(187.000000, 359.000000)" fill-rule="nonzero">
            <path d="M33.8189661,5.7339787 C32.5472891,1.96089061 24.7343146,0 17.0084413,0 C9.28256805,0 1.55669475,1.94230397 0.215336819,5.67821878 C0.0788205157,5.89880074 0.00612314784,6.15735065 0.0062940245,6.42168441 L0.0062940245,40.7419167 C-0.00209800817,40.8159937 -0.00209800817,40.8908795 0.0062940245,40.9649564 C0.00207718817,41.0299319 0.00207718817,41.0951407 0.0062940245,41.1601162 C0.0062940245,45.6487899 8.55962838,48 17.0084413,48 C25.4572543,48 33.9931684,45.6487899 33.9931684,41.1601162 C33.9973818,41.0982422 33.9973818,41.0361237 33.9931684,40.9742498 C34.0022772,40.8971103 34.0022772,40.8190562 33.9931684,40.7419167 L33.9931684,6.42168441 C33.9976154,6.17943324 33.9371821,5.94085796 33.8189661,5.7339787 Z" id="Path" fill="url(#linearGradient-2)"></path>
            <path d="M16.9984095,0 C28.0080369,0 33.991754,3.35510714 33.991754,5.07925941 C34.0027487,5.13291332 34.0027487,5.18870099 33.991754,5.2423549 C33.6312891,7.01310589 27.6372731,10.1818182 16.9984095,10.1818182 C6.35954601,10.1818182 0.365529974,6.97815685 0.00506509165,5.2423549 C-0.00168836388,5.19998096 -0.00168836388,5.15658239 0.00506509165,5.11420845 C0.00506509165,3.35510714 5.98878214,0 16.9984095,0 Z" id="Path" fill="#0055C2"></path>
        </g>
        <text id="Developer-A’s-Local" font-family="Helvetica" font-size="16" font-weight="normal" fill="#0055C2">
            <tspan x="155.367188" y="427">Developer A’s </tspan>
            <tspan x="144.414062" y="446">Local Repository</tspan>
        </text>
        <text id="Developer-A’s-Remote" font-family="Helvetica" font-size="16" font-weight="normal" fill="#0055C2">
            <tspan x="155.367188" y="232">Developer A’s </tspan>
            <tspan x="135.527344" y="251">Remote Repository</tspan>
        </text>
        <text id="Developer-B’s-Local" font-family="Helvetica" font-size="16" font-weight="normal" fill="#0055C2">
            <tspan x="383.339844" y="427">Developer B’s </tspan>
            <tspan x="373.414062" y="446">Local Repository</tspan>
        </text>
        <path id="Line-21-Copy" d="M204.5,260.407407 L209,269.407407 L205,269.407 L205,360.592593 L204,360.592593 L204,269.407 L200,269.407407 L204.5,260.407407 Z" fill="#0055C2" fill-rule="nonzero"></path>
        <path id="Line-21-Copy-2" d="M640,173 L649,177.5 L640,182 L640,178 L636,178 L636,177 L640,177 L640,173 Z M217,177 L217,178 L212,178 L212,177 L217,177 Z M225,177 L225,178 L220,178 L220,177 L225,177 Z M233,177 L233,178 L228,178 L228,177 L233,177 Z M241,177 L241,178 L236,178 L236,177 L241,177 Z M249,177 L249,178 L244,178 L244,177 L249,177 Z M257,177 L257,178 L252,178 L252,177 L257,177 Z M265,177 L265,178 L260,178 L260,177 L265,177 Z M273,177 L273,178 L268,178 L268,177 L273,177 Z M281,177 L281,178 L276,178 L276,177 L281,177 Z M289,177 L289,178 L284,178 L284,177 L289,177 Z M297,177 L297,178 L292,178 L292,177 L297,177 Z M305,177 L305,178 L300,178 L300,177 L305,177 Z M313,177 L313,178 L308,178 L308,177 L313,177 Z M321,177 L321,178 L316,178 L316,177 L321,177 Z M329,177 L329,178 L324,178 L324,177 L329,177 Z M337,177 L337,178 L332,178 L332,177 L337,177 Z M345,177 L345,178 L340,178 L340,177 L345,177 Z M353,177 L353,178 L348,178 L348,177 L353,177 Z M361,177 L361,178 L356,178 L356,177 L361,177 Z M369,177 L369,178 L364,178 L364,177 L369,177 Z M377,177 L377,178 L372,178 L372,177 L377,177 Z M385,177 L385,178 L380,178 L380,177 L385,177 Z M393,177 L393,178 L388,178 L388,177 L393,177 Z M401,177 L401,178 L396,178 L396,177 L401,177 Z M409,177 L409,178 L404,178 L404,177 L409,177 Z M417,177 L417,178 L412,178 L412,177 L417,177 Z M425,177 L425,178 L420,178 L420,177 L425,177 Z M433,177 L433,178 L428,178 L428,177 L433,177 Z M441,177 L441,178 L436,178 L436,177 L441,177 Z M449,177 L449,178 L444,178 L444,177 L449,177 Z M457,177 L457,178 L452,178 L452,177 L457,177 Z M465,177 L465,178 L460,178 L460,177 L465,177 Z M473,177 L473,178 L468,178 L468,177 L473,177 Z M481,177 L481,178 L476,178 L476,177 L481,177 Z M489,177 L489,178 L484,178 L484,177 L489,177 Z M497,177 L497,178 L492,178 L492,177 L497,177 Z M505,177 L505,178 L500,178 L500,177 L505,177 Z M513,177 L513,178 L508,178 L508,177 L513,177 Z M521,177 L521,178 L516,178 L516,177 L521,177 Z M529,177 L529,178 L524,178 L524,177 L529,177 Z M537,177 L537,178 L532,178 L532,177 L537,177 Z M545,177 L545,178 L540,178 L540,177 L545,177 Z M553,177 L553,178 L548,178 L548,177 L553,177 Z M561,177 L561,178 L556,178 L556,177 L561,177 Z M569,177 L569,178 L564,178 L564,177 L569,177 Z M577,177 L577,178 L572,178 L572,177 L577,177 Z M585,177 L585,178 L580,178 L580,177 L585,177 Z M593,177 L593,178 L588,178 L588,177 L593,177 Z M601,177 L601,178 L596,178 L596,177 L601,177 Z M609,177 L609,178 L604,178 L604,177 L609,177 Z M617,177 L617,178 L612,178 L612,177 L617,177 Z M625,177 L625,178 L620,178 L620,177 L625,177 Z M633,177 L633,178 L628,178 L628,177 L633,177 Z" fill="#199ABD" fill-rule="nonzero"></path>
        <path id="Path-12-Copy" d="M436.5,199.5 L436.5,350.5 L440.5,350.5 L436,359.5 L431.5,350.5 L435.5,350.5 L435.5,200.5 L221,200.5 L221,199.5 L436.5,199.5 Z" fill="#199ABD" fill-rule="nonzero"></path>
        <g id="bloovee-winner-logo" transform="translate(725.000000, 580.000000)">
            <path d="M13,13.7751507 C13,14.396312 13.4732558,14.8717809 14.0514961,14.8717809 C14.6474304,14.8717809 15.1204503,14.3968042 15.1204503,13.7751507 L15.1204503,2.09687626 C15.1204503,1.49368045 14.6474304,1 14.0514961,1 C13.4557977,1 13,1.49392656 13,2.09687626 L13,13.7751507 Z M21.7920364,15 C24.6483217,15 26.751078,12.7149437 26.751078,9.97312215 L26.751078,9.93645297 C26.751078,7.17641992 24.6657798,4.92778666 21.8269526,4.92778666 C18.9881254,4.92778666 16.885369,7.212843 16.885369,9.97312215 L16.885369,10.0095452 C16.885369,12.7516128 18.9706673,15 21.7920364,15 Z M21.8269526,13.0621935 C20.179994,13.0621935 19.0055834,11.6547366 19.0055834,9.97312215 L19.0055834,9.93645297 C19.0055834,8.25459244 20.0919958,6.86534709 21.7920364,6.86534709 C23.456689,6.86534709 24.6306277,8.27305008 24.6306277,9.97312215 L24.6306277,10.0095452 C24.6306277,11.6731942 23.5444513,13.0621935 21.8269526,13.0621935 Z M32.8092717,15 C35.665557,15 37.7683133,12.7149437 37.7683133,9.97312215 L37.7683133,9.93645297 C37.7683133,7.17641992 35.6830151,4.92778666 32.8441878,4.92778666 C30.0053606,4.92778666 27.9026043,7.212843 27.9026043,9.97312215 L27.9026043,10.0095452 C27.9026043,12.7516128 29.9879025,15 32.8092717,15 Z M32.8441878,13.0621935 C31.1969933,13.0621935 30.0228187,11.6547366 30.0228187,9.97312215 L30.0228187,9.93645297 C30.0228187,8.25459244 31.109231,6.86534709 32.8092717,6.86534709 C34.4739243,6.86534709 35.647863,8.27305008 35.647863,9.97312215 L35.647863,10.0095452 C35.647863,11.6731942 34.5614506,13.0621935 32.8441878,13.0621935 Z M44.1416963,13.9944275 L47.2261164,6.6096472 C47.2784906,6.49988574 47.3487948,6.28060893 47.3487948,6.07954366 C47.3487948,5.47610175 46.8929971,5.01933658 46.3147568,5.01933658 C45.7539746,5.01933658 45.4737015,5.40300947 45.3158709,5.78692847 L42.8976893,12.2215093 L40.5144239,5.82335156 C40.3393711,5.36634029 40.041404,5.01933658 39.4629278,5.01933658 C38.8846875,5.01933658 38.4116676,5.53098247 38.4116676,6.07954366 C38.4116676,6.28060893 38.4817358,6.46346265 38.534346,6.62785874 L41.6182943,13.9944275 C41.8638872,14.5796579 42.2491448,14.9633308 42.8273851,14.9633308 L42.9326055,14.9633308 C43.5108458,14.9633308 43.8965752,14.5612003 44.1416963,13.9944275 Z M50.0949054,9.27837643 C50.2876522,7.77961573 51.1987758,6.73762019 52.4956289,6.73762019 C53.8974665,6.73762019 54.7036056,7.8524619 54.8437422,9.27837643 L50.0949054,9.27837643 Z M56.070527,13.72027 C56.2281217,13.5558739 56.3508002,13.3181395 56.3508002,13.0439819 C56.3508002,12.5320899 55.9830006,12.1481709 55.5095089,12.1481709 C55.2641519,12.1481709 55.1242513,12.2215093 54.9664207,12.3492362 C54.3704864,12.8611282 53.6695676,13.1901665 52.7759021,13.1901665 C51.4089807,13.1901665 50.3402624,12.3128131 50.1123635,10.7409601 L55.9126964,10.7409601 C56.4560206,10.7409601 56.9115824,10.3021604 56.9115824,9.68050697 C56.9115824,7.45057746 55.4568987,4.92778666 52.513087,4.92778666 C49.8672425,4.92778666 47.9919132,7.19438536 47.9919132,9.95466451 L47.9919132,9.9913337 C47.9919132,12.9708897 50.0597533,15 52.7409859,15 C54.1779755,15 55.2292357,14.5063195 56.070527,13.72027 Z M60.1833231,9.27837643 C60.3763058,7.77961573 61.2871935,6.73762019 62.5842825,6.73762019 C63.9858841,6.73762019 64.7920233,7.8524619 64.9321598,9.27837643 L60.1833231,9.27837643 Z M66.1589447,13.72027 C66.3167752,13.5558739 66.4394537,13.3181395 66.4394537,13.0439819 C66.4394537,12.5320899 66.0714183,12.1481709 65.5981624,12.1481709 C65.3528055,12.1481709 65.2126689,12.2215093 65.0548383,12.3492362 C64.4591399,12.8611282 63.7582212,13.1901665 62.8643197,13.1901665 C61.4976342,13.1901665 60.4289159,12.3128131 60.2007812,10.7409601 L66.0011141,10.7409601 C66.5444382,10.7409601 67,10.3021604 67,9.68050697 C67,7.45057746 65.5455522,4.92778666 62.6015046,4.92778666 C59.9556601,4.92778666 58.0805667,7.19438536 58.0805667,9.95466451 L58.0805667,9.9913337 C58.0805667,12.9708897 60.1484069,15 62.8294035,15 C64.2663932,15 65.3178893,14.5063195 66.1589447,13.72027 L66.1589447,13.72027 Z" id="Fill-1" fill="#030060"></path>
            <g id="Group-4">
                <mask id="mask-4" fill="white">
                    <use xlink:href="#path-3"></use>
                </mask>
                <g id="Clip-3"></g>
                <path d="M8.68744595,14.5405413 C10.6544909,13.5649687 12,11.5915112 12,9.31636202 C12,6.07252388 9.26504479,3.44227578 5.89152197,3.44227578 C4.52034181,3.44227578 3.25480793,3.87689217 2.23537065,4.61058921 L2.23537065,1.05770107 C2.23537065,0.476155373 1.74046224,0 1.11695169,0 C0.493934821,0 0.0167986821,0.476630104 0.0167986821,1.05770107 L0.0167986821,1.80184219 L0,9.32158406 C-0.0041824725,11.2003327 0.951817666,12.865215 2.41753644,13.8939574 C2.4777647,13.9362085 2.55848043,13.9312238 2.6127846,13.8823265 C2.66758244,13.8334292 2.6779496,13.7558106 2.63746831,13.6950451 C0.724974359,10.8146136 1.16014819,5.53963813 5.89176881,5.53963813 C8.05899866,5.53963813 9.80709909,7.22944376 9.81623206,9.31351363 C9.82240299,10.8599505 9.11620201,12.0365717 8.19549958,12.7781018 C6.36026565,14.2561773 3.64974731,12.6382934 4.49738595,10.4697214 C4.5894562,10.2335427 4.71879884,9.9959397 4.88664808,9.76189723 L5.12361171,9.47705853 C5.19766284,9.39967734 5.25048599,9.29903433 5.2146946,9.19411874 C5.01401603,8.62800181 3.46832203,8.97526767 3.04005964,10.0315445 C3.34292878,9.79631524 3.65986763,9.66433998 3.96940137,9.71489885 C2.38890334,11.275815 3.44141679,13.9563846 5.46005069,14.7513219 C6.40494316,15.1232738 7.55964718,15.0976383 8.68744595,14.5405413" id="Fill-2" fill="url(#linearGradient-5)" mask="url(#mask-4)"></path>
            </g>
        </g>
        <g id="laptop" transform="translate(38.000000, 382.000000)" fill-rule="nonzero">
            <path d="M45.7181926,0 L6.28180737,0 C4.46587396,0 3,1.46964356 3,3.29024677 L3,24.7097532 C3,25.488445 3.27348395,26.1903643 3.72199762,26.7606737 C4.31272295,27.5174305 5.24256837,28 6.28180737,28 L45.8166468,28 C46.8011891,27.9670975 47.6872771,27.4954955 48.2780024,26.7716412 C48.7265161,26.2013318 49,25.488445 49,24.7097532 L49,3.29024677 C49,1.46964356 47.5231867,0 45.7181926,0 Z M6.28180737,25.8065022 C5.68014269,25.8065022 5.18787158,25.3129651 5.18787158,24.7097532 L5.18787158,3.29024677 C5.18787158,2.67606737 5.68014269,2.19349785 6.28180737,2.19349785 L45.7181926,2.19349785 C46.3198573,2.19349785 46.8121284,2.67606737 46.8121284,3.29024677 L46.8121284,24.7097532 C46.8121284,25.3129651 46.3198573,25.8065022 45.7181926,25.8065022 L6.28180737,25.8065022 Z" id="Shape" fill="#0055C2"></path>
            <path d="M47,3.11472364 L47,24.8852764 C47,25.4983744 46.5032852,26 45.8961892,26 L6.10381078,26 C5.49671485,26 5,25.4983744 5,24.8852764 L5,3.11472364 C5,2.4904784 5.49671485,2 6.10381078,2 L45.8961892,2 C46.5032852,2 47,2.4904784 47,3.11472364 Z" id="Path" fill="#FFFFFF"></path>
            <path d="M52.9181255,41.6036816 L50.1244846,28.8695181 C49.9588538,28.1115322 49.5502976,27.4510016 48.9871526,26.9528966 C48.3246291,26.3573362 47.4523064,26 46.5026894,26 L6.48626857,26 C5.54769358,26 4.66432888,26.3573362 4.01284741,26.9420682 C3.43866036,27.4401733 3.03010419,28.1007038 2.86447331,28.8695181 L0.0818745093,41.6036816 C-0.150008724,42.6756903 0.115000685,43.7910125 0.821692444,44.6464537 C1.5283842,45.501895 2.57737978,46 3.70366977,46 L49.2963302,46 C50.4226202,46 51.4716158,45.501895 52.1783076,44.6464537 C52.8849993,43.7910125 53.1500087,42.6756903 52.9181255,41.6036816 Z M50.4557464,43.282079 C50.1686529,43.6285869 49.7490546,43.8343259 49.2963302,43.8343259 L3.70366977,43.8343259 C3.25094536,43.8343259 2.82030507,43.6285869 2.53321155,43.282079 C2.25716008,42.9355712 2.14673949,42.491608 2.23507596,42.0584732 L5.02871682,29.3243097 C5.17226358,28.6529507 5.79061887,28.1656741 6.48626857,28.1656741 L46.5026894,28.1656741 C47.2093811,28.1656741 47.8277364,28.6529507 47.9712832,29.3243097 L50.753882,42.0584732 C50.8532605,42.491608 50.7428399,42.9355712 50.4557464,43.282079 Z" id="Shape" fill="#0055C2"></path>
            <path d="M50.9639357,42.186593 L48.1575331,29.1831381 C48.0055912,28.4919184 47.3889321,27.9993355 46.6763761,28 L6.31763411,28 C5.61603346,28 4.99238844,28.4975819 4.8476137,29.1831381 L2.03007459,42.186593 C1.94098245,42.6288874 2.05234763,43.0822392 2.33076059,43.4360747 C2.62031006,43.7899102 3.05463427,44 3.51123152,44 L49.4939152,44 C49.9505125,44 50.3737002,43.7899102 50.6632497,43.4360747 C50.9527991,43.0822392 51.0641643,42.6288874 50.9639357,42.186593 L50.9639357,42.186593 Z M8.11492281,31 L44.8850772,31 C45.509434,31 46,31.45 46,32 C46,32.55 45.509434,33 44.8850772,33 L8.11492281,33 C7.50171527,33 7,32.55 7,32 C7,31.45 7.50171527,31 8.11492281,31 Z M28.8802756,40 L5.11972438,40 C4.50387597,40 4,39.56 4,39 C4,38.45 4.50387597,38 5.11972438,38 L28.8802756,38 C29.496124,38 30,38.45 30,39 C30,39.56 29.496124,40 28.8802756,40 L28.8802756,40 Z M45.8616462,40 L35.1383538,40 C34.5122592,40 34,39.56 34,39 C34,38.45 34.5122592,38 35.1383538,38 L45.8616462,38 C46.4877408,38 47,38.45 47,39 C47,39.56 46.4877408,40 45.8616462,40 Z" id="Shape" fill="#D0E8F9"></path>
            <path d="M46,32 C46,32.55 45.509434,33 44.8850772,33 L8.11492281,33 C7.50171527,33 7,32.55 7,32 C7,31.45 7.50171527,31 8.11492281,31 L44.8850772,31 C45.509434,31 46,31.45 46,32 Z M30,39 C30,39.56 29.496124,40 28.8802756,40 L5.11972438,40 C4.50387597,40 4,39.56 4,39 C4,38.45 4.50387597,38 5.11972438,38 L28.8802756,38 C29.496124,38 30,38.45 30,39 Z M47,39 C47,39.56 46.4877408,40 45.8616462,40 L35.1383538,40 C34.5122592,40 34,39.56 34,39 C34,38.45 34.5122592,38 35.1383538,38 L45.8616462,38 C46.4877408,38 47,38.45 47,39 Z" id="Shape" fill="#0055C2"></path>
            <path d="M13,26 L20.7014879,26 L31,2 L23.2985121,2 L13,26 Z M25.5945503,26 L36,2 L33.4052931,2 L23,26 L25.5945503,26 Z" id="Shape" fill="#C5DDFF"></path>
        </g>
        <text id="Local-Computer" fill-rule="nonzero" font-family="Helvetica" font-size="18" font-weight="normal" fill="#0055C2">
            <tspan x="42.984375" y="446">Local </tspan>
            <tspan x="24.984375" y="468">Computer</tspan>
        </text>
        <text id="GitHub" fill-rule="nonzero" font-family="Helvetica" font-size="18" font-weight="normal" fill="#0055C2">
            <tspan x="36.4892578" y="275">GitHub</tspan>
        </text>
        <g id="Group-2" transform="translate(34.000000, 195.000000)" fill-rule="nonzero">
            <g id="Group-2-Copy" transform="translate(0.000000, 25.000000)">
                <path d="M47,21.8540475 C47,27.1725832 42.9257072,31.5 37.9162716,31.5 L10.4661197,31.5 C8.06577585,31.512661 5.75861652,30.496248 4.05035207,28.6733098 C2.34065404,26.8866755 1.37741201,24.4246454 1.38235294,21.8540475 C1.38235294,17.8113737 3.74104949,14.2282057 7.29079403,12.8242687 C9.03123465,5.39336609 15.1576416,0.141518259 22.2473341,0.00281018964 C29.3370266,-0.13589788 35.6352149,4.87286583 37.6232481,12.2308218 C37.8041268,12.2181121 37.908132,12.2181121 37.9162716,12.2181121 C38.0519306,12.2181121 38.1875896,12.2181121 38.3214399,12.2278888 C40.5770052,12.3229185 42.7189219,13.3229292 44.329326,15.0328298 C46.0366189,16.8222976 47,19.283341 47,21.8540475 Z" id="Path" fill="#C5DDFF"></path>
                <path d="M6.91176471,12 C6.83864276,12.3117978 6.76900282,12.6235955 6.70632686,12.9438202 C6.30937917,13.1207865 5.91939547,13.3019663 5.52941176,13.5 C5.97510742,12.9803371 6.43589174,12.4803371 6.91176471,12 Z" id="Path" fill="#607D8B"></path>
                <path d="M29.0294118,14.9644032 C29.6850637,14.2828701 30.4707216,13.6995241 31.3536886,13.2386425 C32.2496024,12.7714209 33.2278224,12.4289381 34.2512368,12.2241874 C36.3326902,11.8178043 38.5111357,11.9663945 40.4894623,12.6496924 C42.4672769,13.3229504 44.1646951,14.4801644 45.3660338,15.9742927 C45.9556606,16.7132646 46.4009303,17.5281855 46.6846656,18.3876184 C46.9612031,19.2372017 47.0569941,20.121854 46.9675368,21 C46.7982827,19.292525 46.0512642,17.6629825 44.8164246,16.3075746 C43.6057794,14.9793801 42.000099,13.9490566 40.1646443,13.3226478 C38.3334468,12.6924714 36.332385,12.5053646 34.3835302,12.782092 C32.3969496,13.0791653 30.5447752,13.8341021 29.0294118,14.9644032 L29.0294118,14.9644032 Z" id="Path" fill="#7BB2FF"></path>
                <path d="M5.52941176,15.0102015 C5.62458811,14.9585123 5.72059934,14.9088502 5.81828032,14.8602015 C5.72143422,14.9078366 5.62458811,14.9585123 5.52941176,15.0102015 Z M6.59304918,12.9804786 C6.65650008,12.7915617 6.72384708,12.6026448 6.79509019,12.413728 C6.72384708,12.5994962 6.65650008,12.7884131 6.59304918,12.9804786 Z M11.0588235,6 C10.9324783,6.11586902 10.8078029,6.23394207 10.6847972,6.35421914 C10.8066897,6.2361461 10.9344264,6.11618388 11.0588235,6 Z" id="Shape" fill="#55717C"></path>
                <path d="M42.8529412,30.2389035 C41.1515607,32.0174629 38.9022818,33.0053332 36.5663494,33 L9.09181594,33 C7.41665322,33.0064228 5.77220112,32.5004465 4.33862751,31.5374449 C4.26319445,31.4864823 4.18896831,31.4348491 4.1159491,31.3825453 C4.04262816,31.3302415 3.96930722,31.2759261 3.89689147,31.2206048 C3.82447573,31.1652835 3.75749116,31.1119739 3.6896014,31.0566527 L3.68235983,31.0506176 C3.61084928,30.9932846 3.54114913,30.93394 3.47144897,30.8735895 C3.40174882,30.813239 3.34019544,30.7579177 3.27502127,30.6985731 L3.24514977,30.6714154 C3.19898473,30.6281642 3.15463009,30.5859188 3.10846505,30.540656 L3.02880774,30.464212 C2.99169467,30.4280017 2.95639199,30.3927973 2.92018412,30.3545753 C2.83600082,30.2700846 2.75272271,30.1815705 2.6703498,30.0920507 C0.959133195,28.2539384 -0.00496439572,25.7209702 0,23.0763061 C0,22.9988564 0,22.9214066 0,22.8449626 C0,22.7936647 0,22.7443785 0,22.6880513 C0,22.5582978 0.0108815871,22.4315617 0.020838752,22.302814 C0.020838752,22.239446 0.02989072,22.1750722 0.0362270977,22.1117041 C0.0425634753,22.0483361 0.0452790657,22.01112 0.0516154433,21.953787 C0.057951821,21.8964541 0.0642881986,21.8310744 0.0724349699,21.769718 C0.0941596932,21.5859843 0.121013865,21.4035917 0.152997486,21.2225403 C0.16023906,21.1782832 0.168385831,21.1360379 0.176532602,21.0917809 C0.191920948,21.0103077 0.208214491,20.9298404 0.223602836,20.8493731 C0.236275592,20.7940518 0.24804315,20.7387305 0.260715905,20.684415 C0.273388661,20.6300996 0.287871809,20.5667316 0.302354958,20.5083928 C0.312312123,20.4661474 0.322269288,20.4259138 0.33313165,20.3856801 C0.343994011,20.3454465 0.353045979,20.3092362 0.363908341,20.2700083 C0.374770703,20.2307805 0.387443458,20.183506 0.400116213,20.139249 C0.412788969,20.0949919 0.422746133,20.0597875 0.435418889,20.0205597 C0.490334162,19.8348143 0.550680615,19.6514158 0.61645825,19.4703643 C0.636372579,19.4140372 0.657192106,19.3577101 0.678011632,19.3023888 C0.698831159,19.2470675 0.719650686,19.1907404 0.742280606,19.1354191 C0.764910526,19.0800978 0.785730052,19.0247766 0.809265169,18.9704611 C0.832800286,18.9161457 0.854525009,18.8608244 0.878965323,18.8075148 C0.903405637,18.7542052 0.926035557,18.6988839 0.951381068,18.6455743 C0.976726578,18.5922647 1.0002617,18.5379493 1.0265124,18.4856455 C1.05276311,18.4333418 1.07720342,18.3790263 1.10435933,18.3267226 C1.15686074,18.2261384 1.21117255,18.1165017 1.26729475,18.0129 C1.32341695,17.9092983 1.37591837,17.8187726 1.43113537,17.7232177 C1.61301827,17.4150094 1.81004636,17.1181715 2.02132369,16.8340538 C2.05119519,16.7928143 2.08106668,16.7535864 2.11184337,16.7133528 C2.22589817,16.5691822 2.34327202,16.4286996 2.46396493,16.2919052 C2.49383642,16.2567007 2.52280272,16.223508 2.55448461,16.191321 C2.6619013,16.0692789 2.77263704,15.9505896 2.88669184,15.8352531 L2.97268553,15.7487508 C3.10967198,15.6146386 3.25058095,15.4828733 3.39541244,15.3534551 L3.48593212,15.2760053 C3.56196865,15.2116314 3.63981558,15.1472576 3.7176625,15.0848954 C3.75387038,15.055726 3.79007825,15.0275624 3.82628612,15.0004047 C3.90684864,14.9370367 3.98922155,14.8756803 4.07159445,14.8153299 C4.11323351,14.7841488 4.15668295,14.7549794 4.2001324,14.7248041 L4.313282,14.6473543 L4.40380168,14.5890155 C4.44996672,14.5578344 4.49432136,14.5276592 4.54410719,14.4984898 L4.56040073,14.4884314 C4.60475537,14.459262 4.65092041,14.4321042 4.69618025,14.4049465 C4.74144009,14.3777888 4.7948467,14.3456019 4.84463253,14.3174383 L4.9948952,14.2319418 L5.14696826,14.1504686 L5.30175691,14.0710071 C5.40494935,14.0197092 5.50904698,13.970423 5.61495501,13.9221426 C5.72086303,13.8738622 5.81862429,13.8316169 5.92091153,13.7893715 C5.93811027,13.7139334 5.9562142,13.6395011 5.97431814,13.564063 C6.00147404,13.4534205 6.02862995,13.3417721 6.05759625,13.2331412 C6.08656254,13.1245103 6.11552884,13.0128619 6.14811593,12.9032252 C6.18070301,12.7935884 6.20966931,12.6849575 6.23863561,12.5763267 C6.2676019,12.4676958 6.30380978,12.3610766 6.33820725,12.2554632 C6.33859976,12.2534752 6.33859976,12.2514162 6.33820725,12.2494282 C6.37169954,12.148844 6.40428662,12.0482599 6.4395893,11.9476757 C6.4395893,11.9406348 6.4395893,11.9325881 6.44683087,11.9245414 C6.51683276,11.7233731 6.58985197,11.5222048 6.6658885,11.3210365 L6.68489763,11.2717502 C6.71838991,11.1852479 6.75188219,11.0987455 6.78718487,11.013249 L6.81162518,10.9528985 C6.84421227,10.873437 6.87679935,10.7939755 6.91029164,10.714514 L6.94287872,10.6390759 C6.97999179,10.5535794 7.01619966,10.4690887 7.05421793,10.384598 L7.07322706,10.3413468 C7.11577131,10.2467977 7.15922076,10.1522486 7.2026702,10.0587054 C7.24611965,9.96516212 7.29318988,9.87061301 7.33663933,9.77706975 L7.3737524,9.70263748 C7.40633948,9.63826363 7.43711618,9.57388977 7.47151365,9.51052176 C7.49414358,9.46425305 7.5167735,9.41798434 7.54211901,9.37272147 C7.56746452,9.3274586 7.60276719,9.25503801 7.63263869,9.19669921 C7.64621664,9.17155317 7.65979459,9.14640713 7.67337254,9.12126109 C7.71591679,9.03978793 7.76389222,8.95932061 7.80643647,8.87885329 C7.84898072,8.79838597 7.89695615,8.71791865 7.94402639,8.63745133 C7.98023426,8.576095 8.01553693,8.51373282 8.05265,8.45338233 L8.11329819,8.35279818 C8.14588527,8.29948858 8.17847236,8.24617898 8.21196464,8.19387522 C8.24545692,8.14157147 8.27623361,8.09329107 8.3097259,8.03897563 C8.34321818,7.98466019 8.35408054,7.96856673 8.37761566,7.93235643 C8.41472873,7.87401762 8.45274699,7.81366713 8.49257565,7.75633417 L8.54055108,7.68391358 C8.58490573,7.6165222 8.63107076,7.54913082 8.6763306,7.48274528 C8.76503989,7.35466813 8.85555957,7.22726154 8.94788964,7.10052551 C8.9886235,7.04419838 9.03026255,6.98787126 9.07190161,6.93154413 C9.16483514,6.80749035 9.25988081,6.68410712 9.3570386,6.56139446 C9.39686726,6.51009654 9.43760112,6.46081031 9.47924017,6.40850655 L9.51635324,6.36324368 C9.57428583,6.29182894 9.63312363,6.22041419 9.69196142,6.15000528 L9.71187575,6.12687093 C9.77704992,6.04942113 9.84312928,5.97297718 9.91101904,5.89653322 C10.2215015,5.54247701 10.5446568,5.20149674 10.8850108,4.87660994 C11.0183765,4.74853278 11.1535525,4.6228026 11.290539,4.49941937 C11.3756275,4.42297542 11.4616212,4.34854315 11.5476149,4.27411087 C11.5578995,4.26392548 11.5687862,4.25451659 11.580202,4.24594731 C11.6707216,4.16849752 11.7612413,4.0930594 11.851761,4.01862713 C11.9422807,3.94419486 12.0391367,3.86775091 12.1341824,3.79331863 L12.1396136,3.79331863 C12.2364696,3.71788052 12.3342309,3.64445409 12.431087,3.57102766 C12.527943,3.49760123 12.6284199,3.42719233 12.7270863,3.35678342 C12.9256261,3.21663617 13.1271833,3.08252397 13.3317578,2.95444682 C13.434045,2.89007296 13.5363322,2.82569911 13.6395247,2.76333693 C13.7427171,2.70097476 13.8459096,2.63961843 13.9509124,2.58027378 C14.0052242,2.54808685 14.0613464,2.5179116 14.1165634,2.48773636 C14.7963998,2.1026217 15.5003587,1.77251909 16.2229564,1.5 C15.9441558,1.72229097 8.73697879,5.44591623 9.02845216,13.2250944 C6.32426218,14.3136717 4.12889556,16.567126 2.93828805,19.4763994 C2.47135822,22.6358948 3.42507787,25.8493587 5.49184824,28.0803676 C7.20112947,29.9554302 9.50963516,31.0011055 11.911504,30.9882554 L39.3869426,30.9882554 C40.5750367,30.9901372 41.7521553,30.7356431 42.8529412,30.2389035 Z" id="Path" fill="#7BB2FF"></path>
            </g>
            <g id="github-copy-9" transform="translate(32.000000, 0.000000)" fill="#000000">
                <path d="M16.4999251,0 C8.40813018,0.000344065294 1.51075595,6.01787935 0.214555854,14.2079842 C-1.08164424,22.398089 3.60591312,30.3433918 11.2823332,32.9676143 C12.1072542,33.1156747 12.4165995,32.608172 12.4165995,32.1640415 C12.4165995,31.7622721 12.39596,30.430016 12.39596,29.0132072 C8.25071581,29.7956165 7.1783186,27.977072 6.84835022,27.0254727 C6.48221027,26.0999681 5.90179553,25.2798025 5.15726231,24.6358502 C4.57981766,24.3186504 3.75489673,23.5362242 5.13662279,23.5151114 C6.20738061,23.63425 7.15415912,24.2814387 7.67327116,25.2490862 C8.12900926,26.0885769 8.89184061,26.7075707 9.79337162,26.9694257 C10.6949026,27.2312808 11.6610011,27.114465 12.4784026,26.6447652 C12.549826,25.7847268 12.9236282,24.9806117 13.5302098,24.3821411 C9.85931163,23.959208 6.02342929,22.5000213 6.02342929,16.0292134 C6.00024524,14.3478777 6.60530432,12.7211619 7.7145172,11.4826831 C7.21013051,10.0213977 7.26914726,8.41774433 7.87950139,6.99959273 C7.87950139,6.99959273 9.26119445,6.55549611 12.4165665,8.73361824 C15.1161831,7.97229358 17.9661593,7.97229358 20.6657758,8.73361824 C23.8210654,6.53436638 25.202841,6.99959273 25.202841,6.99959273 C25.8132779,8.41772473 25.8722959,10.0214108 25.3678251,11.4826831 C26.4803782,12.7190421 27.0859655,14.3471783 27.0589131,16.0292134 C27.0589131,22.5211849 23.2023747,23.959208 19.5315096,24.3821411 C20.3282059,25.2101395 20.7346234,26.3523065 20.6451528,27.5118457 C20.6451528,29.7745713 20.6245133,31.5931158 20.6245133,32.1641092 C20.6245133,32.6082058 20.9338586,33.1368552 21.7587796,32.967682 C29.4210508,30.3222657 34.0870933,22.3755405 32.7820168,14.1940347 C31.4769403,6.01252892 24.5848693,0.00431475649 16.4999251,0 Z" id="Path"></path>
            </g>
        </g>
        <g id="avatar" transform="translate(419.000000, 464.000000)" fill-rule="nonzero">
            <path d="M18.0092747,2.6318291 C18.0092747,0.942283281 19.595251,-0.315693769 21.2554251,0.0699634288 C27.0984957,1.44731056 28.6937467,6.72714125 28.5360766,12.6130047 C28.4340547,16.4053004 28.7122962,19.7752098 28.9812629,22.0248768 C29.1667572,23.5766879 27.9517695,24.9448527 26.3657932,24.954035 L20.671118,25 C19.1964383,25.0091289 18,23.8337927 18,22.3738047 L18,2.6318291 L18.0092747,2.6318291 Z" id="XMLID_283_" fill="url(#linearGradient-6)"></path>
            <g id="XMLID_161_">
                <g id="XMLID_167_">
                    <path d="M18,2.91103884 C18,1.22135068 16.4375635,-0.0367323513 14.8020305,0.348957337 C9.04568528,1.72642051 7.47411168,7.006696 7.62944162,12.8930553 C7.72994924,16.6856706 7.45583756,20.0558638 7.19086294,22.3057203 C7.00812183,23.8576621 8.20507614,25.2259422 9.76751269,25.2351253 L15.377665,25.2810942 C16.8304569,25.2902238 18.0091371,24.1147886 18.0091371,22.6546776 L18.0091371,2.91103884 L18,2.91103884 Z" id="XMLID_284_" fill="url(#linearGradient-7)"></path>
                    <path d="M10.9553299,15.1796442 C10.9553299,15.1796442 10.5715736,14.114406 9.84974619,14.0225751 C9.23756345,13.9399273 8.47918782,14.7204898 8.61624365,15.785728 C8.75329949,16.8509661 9.05482234,18.6416683 9.05482234,18.6416683 C9.05482234,18.6416683 9.34720812,19.8997513 10.3979695,19.550794 C11.4304569,19.2018366 10.9553299,15.1796442 10.9553299,15.1796442 Z" id="XMLID_791_" fill="url(#linearGradient-8)"></path>
                    <path d="M25.1269036,15.1520949 C25.1269036,15.1520949 25.528934,14.0960398 26.2507614,14.013392 C26.8720812,13.9399273 27.6121827,14.7296729 27.4568528,15.794911 C27.3015228,16.8601492 26.9817259,18.6416683 26.9817259,18.6416683 C26.9817259,18.6416683 26.671066,19.8997513 25.6203046,19.5232447 C24.5786802,19.1651043 25.1269036,15.1520949 25.1269036,15.1520949 L25.1269036,15.1520949 Z" id="XMLID_759_" fill="url(#linearGradient-9)"></path>
                    <g id="XMLID_272_" transform="translate(0.000000, 4.233403)">
                        <g id="XMLID_276_">
                            <path d="M30.8192893,28.7063325 C27.0182741,27.9992347 24.3411168,26.6125885 22.1299492,23.6097188 L13.8609137,23.6097188 C11.6497462,26.6125885 8.98172589,27.9992347 5.1715736,28.7063325 C0.603045685,29.5603597 0,35.0518462 0,36.5854218 L0,43.7665965 L36,43.7665965 L36,36.5854218 C36,35.0518462 35.3969543,29.5603597 30.8192893,28.7063325 L30.8192893,28.7063325 Z" id="XMLID_282_" stroke="url(#linearGradient-11)" fill="url(#linearGradient-10)"></path>
                            <path d="M18.0730964,19.1100057 L13.4040609,19.1100057 L13.4040609,28.026784 C13.4040609,28.9267266 14.884264,28.9450928 18.0730964,28.9450928 C21.2619289,28.9450928 22.742132,28.9359097 22.742132,28.026784 L22.742132,19.1100057 L18.0730964,19.1100057 L18.0730964,19.1100057 Z" id="XMLID_281_" fill="url(#linearGradient-12)"></path>
                            <path d="M25.9035533,10.9095083 C25.8761421,4.85785345 24.7888325,0 18,0 C11.2111675,0 10.1238579,4.85785345 10.0964467,10.9095083 C10.0142132,10.5330017 10.315736,13.6368854 10.3431472,13.5358714 C11.4121827,18.6600344 15.7248731,22.3516357 18,22.3516357 C20.2751269,22.3516357 24.5878173,18.6692175 25.6568528,13.5450545 C25.684264,13.4807729 25.9857868,10.5330017 25.9035533,10.9095083 Z" id="XMLID_280_" fill="url(#linearGradient-13)"></path>
                        </g>
                        <path d="M18.6304569,17.0713602 C18.2832487,17.0713602 18.2467005,17.2917544 18,17.2917544 C17.7532995,17.2917544 17.7167513,17.0621772 17.3695431,17.0713602 C16.857868,17.0713602 15.4507614,17.7692749 15.4507614,17.7692749 C15.4507614,17.7692749 15.5969543,17.8427396 15.9258883,17.9713029 C16.7025381,18.2743447 16.7847716,18.7794146 18,18.7794146 C19.2152284,18.7794146 19.2974619,18.2743447 20.0741117,17.9713029 C20.4030457,17.8427396 20.5492386,17.7692749 20.5492386,17.7692749 C20.5492386,17.7692749 19.142132,17.0713602 18.6304569,17.0713602 L18.6304569,17.0713602 Z" id="XMLID_275_" fill="url(#linearGradient-14)"></path>
                        <ellipse id="XMLID_274_" fill="url(#linearGradient-15)" cx="25.9857868" cy="14.6837574" rx="1" ry="1"></ellipse>
                        <ellipse id="XMLID_273_" fill="url(#linearGradient-16)" cx="10.1055838" cy="14.8031376" rx="1" ry="1"></ellipse>
                    </g>
                    <g id="XMLID_172_" transform="translate(16.081218, 37.669026)">
                        <ellipse id="XMLID_260_" fill="url(#linearGradient-17)" cx="0.5" cy="0.495886742" rx="1" ry="1"></ellipse>
                        <ellipse id="XMLID_220_" fill="url(#linearGradient-18)" cx="0.5" cy="3.46202411" rx="1" ry="1"></ellipse>
                        <ellipse id="XMLID_210_" fill="url(#linearGradient-19)" cx="0.5" cy="6.42816147" rx="1" ry="1"></ellipse>
                    </g>
                    <path d="M26.2324873,5.48230342 C25.3918782,1.94681462 22.4406091,0 18,0 C13.5593909,0 10.6081218,1.94681462 9.76751269,5.48230342 C8.54314721,10.5972833 10.2426396,16.1806007 10.4071066,16.6397551 C10.4071066,16.6397551 9.94111675,14.1878707 10.8822335,12.0849436 C10.6903553,13.4073082 10.7360406,14.3990817 10.7360406,14.3990817 C10.7360406,14.3990817 14.8477157,13.2971112 18,11.295198 C19.3705584,10.4228047 20.5492386,9.38511575 21.1431472,8.19131433 C21.3350254,7.79644155 21.8284264,7.65869524 22.1939086,7.89745552 C23.1898477,8.54027167 24.057868,9.50449589 24.8345178,10.9095083 C26.1411168,13.278745 25.4101523,16.8142338 25.4101523,16.8142338 C25.5654822,16.3550794 27.4568528,10.5972833 26.2324873,5.48230342 L26.2324873,5.48230342 Z" id="XMLID_171_" fill="url(#linearGradient-20)"></path>
                </g>
                <g id="XMLID_163_" transform="translate(11.530964, 28.908360)">
                    <polygon id="XMLID_166_" fill="url(#linearGradient-21)" points="11.1380711 0 6.40507614 4.31605127 7.65685279 7.3097379 12.9015228 1.64377272"></polygon>
                    <polygon id="XMLID_165_" fill="url(#linearGradient-22)" points="0 1.68968816 5.19898477 7.27300555 6.32284264 4.21503731 1.78172589 0.0367323513"></polygon>
                </g>
            </g>
        </g>
        <text id="Developer-A" fill-rule="nonzero" font-family="Helvetica-Bold, Helvetica" font-size="18" font-weight="bold" fill="#0055C2">
            <tspan x="152" y="537">Developer A</tspan>
        </text>
        <g id="web-designer" transform="translate(182.000000, 464.000000)" fill-rule="nonzero">
            <path d="M40.1,34 L27.9,29 L27.9,29 L27.5,30.8 L26.5,35 C26.4,35.4 25.9,35.5 25.7,35.2 L21.7,31.1 L21.7,31.1 L17.8,35.3 C17.5,35.6 17.1,35.5 17,35.1 L16,30.9 L15.5,29 L15.5,29 L3.3,34 C1.3,34.8 0,36.8 0,38.9 L0,46 C0,47.1 0.9,47.9 1.9,47.9 L41.5,47.9 C42.6,47.9 43.4,47 43.4,46 L43.4,38.9 C43.4,36.8 42.1,34.8 40.1,34 Z" id="Path" fill="#444445"></path>
            <path d="M27.9,23.9 L27.9,26.6 L21.7,31.1 L15.5,26.6 L15.5,23.9 C15.7,24.1 15.9,24.2 16,24.3 L19.2,26.5 C19.5,26.7 19.9,26.9 20.3,26.9 L23,26.9 C23.4,26.9 23.8,26.8 24.1,26.5 L27.3,24.3 C27.5,24.2 27.7,24 27.9,23.9 Z" id="Path" fill="#F7BA49"></path>
            <path d="M29.5,6.3 L23.3,4.3 L16.6,4.7 L14.1,7.3 L13,10 L13,18.5 C13,20.8 14.1,23 16,24.3 L19.1,26.5 C19.4,26.7 19.8,26.9 20.3,26.9 L23,26.9 C23.4,26.9 23.8,26.8 24.1,26.5 L27.3,24.3 C29.2,23 30.4,20.8 30.4,18.5 L30.4,9.4 L29.5,6.3 Z" id="Path" fill="#FFCB66"></path>
            <path d="M27.9,26.6 L27.9,29 L27.5,30.9 L26.5,35.1 C26.4,35.5 25.9,35.6 25.7,35.3 L21.7,31.1 L27.9,26.6 Z M21.7,31.1 L17.8,35.3 C17.5,35.6 17.1,35.5 17,35.1 L16,30.9 L15.5,29 L15.5,26.6 L21.7,31.1 Z" id="Shape" fill="#E5E5E4"></path>
            <path d="M28.9,4.1 C28.9,4.1 26.8,-0.7 21.5,0.5 C21.5,0.5 17.2,0.5 15.7,0 C15.7,0 15.7,1 16.5,1.9 C16.5,1.9 7,4 13.1,16.6 C13.1,16.6 11.7,5 19.8,6.7 C19.8,6.7 21.4,9.4 25.7,7.4 C25.7,7.4 30,6 30,10 L30.2,16.6 C30.3,16.6 36.6,7.3 28.9,4.1 Z" id="Path" fill="#EA715F"></path>
        </g>
        <text id="Case-1.-Create-Your" fill-rule="nonzero" font-family="Helvetica-Bold, Helvetica" font-size="18" font-weight="bold" fill="#0055C2">
            <tspan x="115" y="87">Case 1. </tspan>
            <tspan x="183.044922" y="87" font-family="Helvetica" font-weight="normal">Create Your </tspan>
            <tspan x="115" y="109" font-family="Helvetica" font-weight="normal">Own Repository And </tspan>
            <tspan x="115" y="131" font-family="Helvetica" font-weight="normal">Share It With Others</tspan>
        </text>
        <text id="Case-2.-Get-Access-T" fill-rule="nonzero" font-family="Helvetica-Bold, Helvetica" font-size="18" font-weight="bold" fill="#0055C2">
            <tspan x="339" y="87">Case 2. </tspan>
            <tspan x="407.044922" y="87" font-family="Helvetica" font-weight="normal">Get Access To </tspan>
            <tspan x="339" y="109" font-family="Helvetica" font-weight="normal">Others’ Remote </tspan>
            <tspan x="339" y="131" font-family="Helvetica" font-weight="normal">Repository </tspan>
        </text>
        <line x1="97.5" y1="142.5" x2="309.5" y2="142.5" id="Line-35-Copy" stroke="#0055C2" stroke-linecap="square"></line>
        <line x1="331.5" y1="142.5" x2="543.5" y2="142.5" id="Line-35-Copy-2" stroke="#0055C2" stroke-linecap="square"></line>
        <text id="Case-3.-Create-Repli" fill-rule="nonzero" font-family="Helvetica-Bold, Helvetica" font-size="18" font-weight="bold" fill="#006AE1">
            <tspan x="563" y="87">Case 3.</tspan>
            <tspan x="626.043945" y="87" font-family="Helvetica" font-weight="normal"> Create Replica Of </tspan>
            <tspan x="563" y="109" font-family="Helvetica" font-weight="normal">Remote Repository And </tspan>
            <tspan x="563" y="131" font-family="Helvetica" font-weight="normal">Bring It To Local Computer</tspan>
        </text>
        <text id="Clone-Copy" fill-rule="nonzero" font-family="Helvetica-Bold, Helvetica" font-size="18" font-weight="bold" fill="#0055C2">
            <tspan x="667" y="320">Clone</tspan>
        </text>
        <rect id="Rectangle-Copy-22" fill="#A1E0E9" x="585" y="184" width="160" height="80" rx="40"></rect>
        <rect id="Rectangle-Copy-20" fill="#C5DDFF" x="591" y="381" width="160" height="80" rx="40"></rect>
        <g id="Group-Copy-10" transform="translate(648.000000, 165.000000)" fill-rule="nonzero">
            <path d="M33.8189661,5.7339787 C32.5472891,1.96089061 24.7343146,0 17.0084413,0 C9.28256805,0 1.55669475,1.94230397 0.215336819,5.67821878 C0.0788205157,5.89880074 0.00612314784,6.15735065 0.0062940245,6.42168441 L0.0062940245,40.7419167 C-0.00209800817,40.8159937 -0.00209800817,40.8908795 0.0062940245,40.9649564 C0.00207718817,41.0299319 0.00207718817,41.0951407 0.0062940245,41.1601162 C0.0062940245,45.6487899 8.55962838,48 17.0084413,48 C25.4572543,48 33.9931684,45.6487899 33.9931684,41.1601162 C33.9973818,41.0982422 33.9973818,41.0361237 33.9931684,40.9742498 C34.0022772,40.8971103 34.0022772,40.8190562 33.9931684,40.7419167 L33.9931684,6.42168441 C33.9976154,6.17943324 33.9371821,5.94085796 33.8189661,5.7339787 Z" id="Path" fill="url(#linearGradient-1)"></path>
            <path d="M16.9984095,0 C28.0080369,0 33.991754,3.35510714 33.991754,5.07925941 C34.0027487,5.13291332 34.0027487,5.18870099 33.991754,5.2423549 C33.6312891,7.01310589 27.6372731,10.1818182 16.9984095,10.1818182 C6.35954601,10.1818182 0.365529974,6.97815685 0.00506509165,5.2423549 C-0.00168836388,5.19998096 -0.00168836388,5.15658239 0.00506509165,5.11420845 C0.00506509165,3.35510714 5.98878214,0 16.9984095,0 Z" id="Path" fill="#199ABD"></path>
        </g>
        <g id="Group-Copy-7" transform="translate(648.000000, 359.000000)" fill-rule="nonzero">
            <path d="M33.8189661,5.7339787 C32.5472891,1.96089061 24.7343146,0 17.0084413,0 C9.28256805,0 1.55669475,1.94230397 0.215336819,5.67821878 C0.0788205157,5.89880074 0.00612314784,6.15735065 0.0062940245,6.42168441 L0.0062940245,40.7419167 C-0.00209800817,40.8159937 -0.00209800817,40.8908795 0.0062940245,40.9649564 C0.00207718817,41.0299319 0.00207718817,41.0951407 0.0062940245,41.1601162 C0.0062940245,45.6487899 8.55962838,48 17.0084413,48 C25.4572543,48 33.9931684,45.6487899 33.9931684,41.1601162 C33.9973818,41.0982422 33.9973818,41.0361237 33.9931684,40.9742498 C34.0022772,40.8971103 34.0022772,40.8190562 33.9931684,40.7419167 L33.9931684,6.42168441 C33.9976154,6.17943324 33.9371821,5.94085796 33.8189661,5.7339787 Z" id="Path" fill="url(#linearGradient-2)"></path>
            <path d="M16.9984095,0 C28.0080369,0 33.991754,3.35510714 33.991754,5.07925941 C34.0027487,5.13291332 34.0027487,5.18870099 33.991754,5.2423549 C33.6312891,7.01310589 27.6372731,10.1818182 16.9984095,10.1818182 C6.35954601,10.1818182 0.365529974,6.97815685 0.00506509165,5.2423549 C-0.00168836388,5.19998096 -0.00168836388,5.15658239 0.00506509165,5.11420845 C0.00506509165,3.35510714 5.98878214,0 16.9984095,0 Z" id="Path" fill="#0055C2"></path>
        </g>
        <text id="Developer-C’s-Local" font-family="Helvetica" font-size="16" font-weight="normal" fill="#0055C2">
            <tspan x="614.898438" y="427">Developer C’s </tspan>
            <tspan x="605.414062" y="446">Local Repository</tspan>
        </text>
        <text id="Developer-C’s-Remote" font-family="Helvetica" font-size="16" font-weight="normal" fill="#0055C2">
            <tspan x="614.898438" y="232">Developer C’s </tspan>
            <tspan x="596.527344" y="251">Remote Repository</tspan>
        </text>
        <path id="Line-21-Copy-3" d="M666,264 L666,351 L670,351 L665.5,360 L661,351 L665,351 L665,264 L666,264 Z" fill="#0055C2" fill-rule="nonzero"></path>
        <text id="Developer-C" fill-rule="nonzero" font-family="Helvetica-Bold, Helvetica" font-size="18" font-weight="bold" fill="#0055C2">
            <tspan x="611" y="537">Developer C</tspan>
        </text>
        <g id="programmer" transform="translate(648.000000, 464.000000)" fill-rule="nonzero">
            <path d="M26,27.2353866 C21.331048,30.9257494 16.668952,30.9173239 12,27.2353866 C13.1243879,26.5697732 14.2693438,25.5924168 15.4554358,24 C17.8893242,26.3170086 20.2615083,26.3844125 22.5377081,24 C23.7306562,25.5839913 24.8756121,26.5697732 26,27.2353866 Z" id="Path" fill="#E9E9E9"></path>
            <path d="M38.9455925,48 L0.0544075426,47.992674 C-0.164166946,43.0695971 0.26544498,38.4249084 1.53166961,34.1025641 C2.0894114,32.1978022 3.54406231,30.6593407 5.45847335,29.970696 C7.57638478,29.2161172 9.65661095,29.018315 11.8046706,28 C16.9374025,31.2014652 22.0625975,31.2087912 27.1953294,28 C29.3509261,29.018315 31.4236152,29.2161172 33.5415266,29.970696 C35.4559377,30.6520147 36.9105886,32.1978022 37.4683304,34.1025641 C38.734555,38.4249084 39.1641669,43.0769231 38.9455925,48 Z" id="Path" fill="#7CA3C2"></path>
            <path d="M21.8296225,24 L22,25.734975 C19.428848,27.4457692 16.7415295,27.3974075 14,25.734975 L14.1626331,24 L21.8296225,24 Z" id="Path" fill="#EAB353"></path>
            <path d="M26.2672633,12.255479 C26.2672633,12.2163431 26.2672633,12.1693801 26.2672633,12.1302442 C26.2672633,5.22667502 22.7914496,1 18.503108,1 C14.2147663,1 10.7389526,5.22667502 10.7389526,12.122417 C10.7389526,12.1615529 10.7389526,12.208516 10.7389526,12.2476518 C8.06061998,11.1361929 8.60230524,17.1552912 11.4988167,17.7971196 C12.7552255,22.3994991 15.4185114,26 18.503108,26 C21.5877045,26 24.2509904,22.3994991 25.4998758,17.8049468 C28.3963873,17.1631183 28.9380725,11.14402 26.2672633,12.255479 Z" id="Path" fill="#FFCC66"></path>
            <path d="M12.1566535,14 C12.3298688,11.8907737 11.8328161,9.98901219 12.5783952,8.3154621 C15.9899842,10.5629984 19.2810756,9.98209669 23.7319566,7.19515172 C24.1536983,9.38044852 24.8917462,12.3471964 26.3904355,13.6611407 C29.4028761,8.18406768 28.0096223,2.00852955 23.68677,2.12609299 C20.2676499,-1.46996505 15.0636587,-0.266668707 11.38095,3.95178399 C10.4696868,4.98910842 9.95757185,6.29613721 10.0027585,7.62391248 C10.0780695,9.86453326 10.7935241,12.3057034 11.5466343,13.7925351 L12.1566535,14 Z" id="Path" fill="#5E5E61"></path>
        </g>
        <line x1="562.5" y1="142.5" x2="774.5" y2="142.5" id="Line-35" stroke="#0055C2" stroke-linecap="square"></line>
    </g>
</svg>