<svg width="800" height="600" viewBox="0 0 800 600" fill="none" xmlns="http://www.w3.org/2000/svg">
<g clip-path="url(#clip0_5188_12884)">
<rect width="800" height="600" fill="url(#paint0_linear_5188_12884)"/>
<path d="M329.383 265H303.289V207.422H331.258C338.315 207.526 343.315 209.57 346.258 213.555C348.029 216.003 348.914 218.932 348.914 222.344C348.914 225.859 348.029 228.685 346.258 230.82C345.268 232.018 343.81 233.112 341.883 234.102C344.826 235.169 347.039 236.862 348.523 239.18C350.034 241.497 350.789 244.31 350.789 247.617C350.789 251.029 349.93 254.089 348.211 256.797C347.117 258.594 345.75 260.104 344.109 261.328C342.26 262.734 340.073 263.698 337.547 264.219C335.047 264.74 332.326 265 329.383 265ZM329.109 239.648H314.773V255H328.914C331.44 255 333.406 254.661 334.812 253.984C337.365 252.734 338.641 250.339 338.641 246.797C338.641 243.802 337.404 241.745 334.93 240.625C333.549 240 331.609 239.674 329.109 239.648ZM335.086 228.672C336.648 227.734 337.43 226.055 337.43 223.633C337.43 220.951 336.388 219.18 334.305 218.32C332.508 217.721 330.216 217.422 327.43 217.422H314.773V230.117H328.914C331.44 230.117 333.497 229.635 335.086 228.672ZM371.453 222.422V265H360.164V222.422H371.453ZM371.453 207.07V217.344H360.164V207.07H371.453ZM401.766 257.07V265.391L396.492 265.586C391.232 265.768 387.638 264.857 385.711 262.852C384.461 261.576 383.836 259.609 383.836 256.953V230.742H377.898V222.812H383.836V210.938H394.852V222.812H401.766V230.742H394.852V253.242C394.852 254.987 395.073 256.081 395.516 256.523C395.958 256.94 397.312 257.148 399.578 257.148C399.917 257.148 400.268 257.148 400.633 257.148C401.023 257.122 401.401 257.096 401.766 257.07ZM432.039 266.133C428.523 266.133 425.698 265.43 423.562 264.023C422.286 263.19 420.906 261.732 419.422 259.648V265H408.523V207.5H419.617V227.969C421.023 225.99 422.573 224.479 424.266 223.438C426.271 222.135 428.823 221.484 431.922 221.484C437.521 221.484 441.896 223.503 445.047 227.539C448.224 231.576 449.812 236.784 449.812 243.164C449.812 249.779 448.25 255.26 445.125 259.609C442 263.958 437.638 266.133 432.039 266.133ZM438.133 244.336C438.133 241.315 437.742 238.815 436.961 236.836C435.477 233.086 432.742 231.211 428.758 231.211C424.721 231.211 421.948 233.047 420.438 236.719C419.656 238.672 419.266 241.198 419.266 244.297C419.266 247.943 420.073 250.964 421.688 253.359C423.302 255.755 425.763 256.953 429.07 256.953C431.935 256.953 434.161 255.794 435.75 253.477C437.339 251.159 438.133 248.112 438.133 244.336ZM485.125 258.984C485.021 259.115 484.76 259.505 484.344 260.156C483.927 260.807 483.432 261.38 482.859 261.875C481.115 263.438 479.422 264.505 477.781 265.078C476.167 265.651 474.266 265.938 472.078 265.938C465.776 265.938 461.531 263.672 459.344 259.141C458.12 256.641 457.508 252.956 457.508 248.086V222.422H468.914V248.086C468.914 250.508 469.201 252.331 469.773 253.555C470.789 255.716 472.781 256.797 475.75 256.797C479.552 256.797 482.156 255.26 483.562 252.188C484.292 250.521 484.656 248.32 484.656 245.586V222.422H495.945V265H485.125V258.984ZM543.562 237.695H532.156C531.948 236.107 531.414 234.674 530.555 233.398C529.305 231.68 527.365 230.82 524.734 230.82C520.984 230.82 518.419 232.682 517.039 236.406C516.31 238.385 515.945 241.016 515.945 244.297C515.945 247.422 516.31 249.935 517.039 251.836C518.367 255.378 520.867 257.148 524.539 257.148C527.143 257.148 528.992 256.445 530.086 255.039C531.18 253.633 531.844 251.81 532.078 249.57H543.445C543.185 252.956 541.961 256.159 539.773 259.18C536.284 264.049 531.115 266.484 524.266 266.484C517.417 266.484 512.378 264.453 509.148 260.391C505.919 256.328 504.305 251.055 504.305 244.57C504.305 237.253 506.089 231.562 509.656 227.5C513.224 223.438 518.146 221.406 524.422 221.406C529.76 221.406 534.122 222.604 537.508 225C540.919 227.396 542.938 231.628 543.562 237.695ZM590.32 265H576.883L566.688 246.797L562.078 251.602V265H551.141V207.617H562.078V238.633L575.945 222.617H589.734L574.852 238.906L590.32 265ZM632.234 252.5C631.948 255.026 630.633 257.591 628.289 260.195C624.643 264.336 619.539 266.406 612.977 266.406C607.56 266.406 602.781 264.661 598.641 261.172C594.5 257.682 592.43 252.005 592.43 244.141C592.43 236.771 594.292 231.12 598.016 227.188C601.766 223.255 606.622 221.289 612.586 221.289C616.128 221.289 619.318 221.953 622.156 223.281C624.995 224.609 627.339 226.706 629.188 229.57C630.854 232.096 631.935 235.026 632.43 238.359C632.716 240.312 632.833 243.125 632.781 246.797H603.641C603.797 251.068 605.138 254.062 607.664 255.781C609.201 256.849 611.049 257.383 613.211 257.383C615.503 257.383 617.365 256.732 618.797 255.43C619.578 254.727 620.268 253.75 620.867 252.5H632.234ZM621.219 239.453C621.036 236.51 620.138 234.284 618.523 232.773C616.935 231.237 614.956 230.469 612.586 230.469C610.008 230.469 608.003 231.276 606.57 232.891C605.164 234.505 604.279 236.693 603.914 239.453H621.219ZM659.812 257.07V265.391L654.539 265.586C649.279 265.768 645.685 264.857 643.758 262.852C642.508 261.576 641.883 259.609 641.883 256.953V230.742H635.945V222.812H641.883V210.938H652.898V222.812H659.812V230.742H652.898V253.242C652.898 254.987 653.12 256.081 653.562 256.523C654.005 256.94 655.359 257.148 657.625 257.148C657.964 257.148 658.315 257.148 658.68 257.148C659.07 257.122 659.448 257.096 659.812 257.07ZM302.156 299.422H314.109V357H302.156V299.422ZM344.5 322.664C340.724 322.664 338.133 324.266 336.727 327.469C335.997 329.161 335.633 331.323 335.633 333.953V357H324.539V314.5H335.281V320.711C336.714 318.523 338.068 316.948 339.344 315.984C341.635 314.266 344.539 313.406 348.055 313.406C352.456 313.406 356.049 314.565 358.836 316.883C361.648 319.174 363.055 322.99 363.055 328.328V357H351.648V331.102C351.648 328.862 351.349 327.143 350.75 325.945C349.656 323.758 347.573 322.664 344.5 322.664ZM392.859 349.07V357.391L387.586 357.586C382.326 357.768 378.732 356.857 376.805 354.852C375.555 353.576 374.93 351.609 374.93 348.953V322.742H368.992V314.812H374.93V302.938H385.945V314.812H392.859V322.742H385.945V345.242C385.945 346.987 386.167 348.081 386.609 348.523C387.052 348.94 388.406 349.148 390.672 349.148C391.01 349.148 391.362 349.148 391.727 349.148C392.117 349.122 392.495 349.096 392.859 349.07ZM421.414 324.695C416.935 324.695 413.927 326.154 412.391 329.07C411.531 330.711 411.102 333.237 411.102 336.648V357H399.891V314.422H410.516V321.844C412.234 319.005 413.732 317.065 415.008 316.023C417.091 314.279 419.799 313.406 423.133 313.406C423.341 313.406 423.51 313.419 423.641 313.445C423.797 313.445 424.122 313.458 424.617 313.484V324.891C423.914 324.812 423.289 324.76 422.742 324.734C422.195 324.708 421.753 324.695 421.414 324.695ZM466.688 319.812C470.281 324.318 472.078 329.643 472.078 335.789C472.078 342.039 470.281 347.391 466.688 351.844C463.094 356.271 457.638 358.484 450.32 358.484C443.003 358.484 437.547 356.271 433.953 351.844C430.359 347.391 428.562 342.039 428.562 335.789C428.562 329.643 430.359 324.318 433.953 319.812C437.547 315.307 443.003 313.055 450.32 313.055C457.638 313.055 463.094 315.307 466.688 319.812ZM450.281 322.469C447.026 322.469 444.513 323.628 442.742 325.945C440.997 328.237 440.125 331.518 440.125 335.789C440.125 340.06 440.997 343.354 442.742 345.672C444.513 347.99 447.026 349.148 450.281 349.148C453.536 349.148 456.036 347.99 457.781 345.672C459.526 343.354 460.398 340.06 460.398 335.789C460.398 331.518 459.526 328.237 457.781 325.945C456.036 323.628 453.536 322.469 450.281 322.469ZM518.836 299.5V357H508.016V351.102C506.427 353.628 504.617 355.464 502.586 356.609C500.555 357.755 498.029 358.328 495.008 358.328C490.034 358.328 485.841 356.323 482.43 352.312C479.044 348.276 477.352 343.107 477.352 336.805C477.352 329.539 479.018 323.823 482.352 319.656C485.711 315.49 490.19 313.406 495.789 313.406C498.367 313.406 500.659 313.979 502.664 315.125C504.669 316.245 506.297 317.807 507.547 319.812V299.5H518.836ZM488.836 335.984C488.836 339.917 489.617 343.055 491.18 345.398C492.716 347.768 495.06 348.953 498.211 348.953C501.362 348.953 503.758 347.781 505.398 345.438C507.039 343.094 507.859 340.06 507.859 336.336C507.859 331.128 506.544 327.404 503.914 325.164C502.299 323.81 500.424 323.133 498.289 323.133C495.034 323.133 492.638 324.37 491.102 326.844C489.591 329.292 488.836 332.339 488.836 335.984ZM556.297 350.984C556.193 351.115 555.932 351.505 555.516 352.156C555.099 352.807 554.604 353.38 554.031 353.875C552.286 355.438 550.594 356.505 548.953 357.078C547.339 357.651 545.438 357.938 543.25 357.938C536.948 357.938 532.703 355.672 530.516 351.141C529.292 348.641 528.68 344.956 528.68 340.086V314.422H540.086V340.086C540.086 342.508 540.372 344.331 540.945 345.555C541.961 347.716 543.953 348.797 546.922 348.797C550.724 348.797 553.328 347.26 554.734 344.188C555.464 342.521 555.828 340.32 555.828 337.586V314.422H567.117V357H556.297V350.984ZM614.734 329.695H603.328C603.12 328.107 602.586 326.674 601.727 325.398C600.477 323.68 598.536 322.82 595.906 322.82C592.156 322.82 589.591 324.682 588.211 328.406C587.482 330.385 587.117 333.016 587.117 336.297C587.117 339.422 587.482 341.935 588.211 343.836C589.539 347.378 592.039 349.148 595.711 349.148C598.315 349.148 600.164 348.445 601.258 347.039C602.352 345.633 603.016 343.81 603.25 341.57H614.617C614.357 344.956 613.133 348.159 610.945 351.18C607.456 356.049 602.286 358.484 595.438 358.484C588.589 358.484 583.549 356.453 580.32 352.391C577.091 348.328 575.477 343.055 575.477 336.57C575.477 329.253 577.26 323.562 580.828 319.5C584.396 315.438 589.318 313.406 595.594 313.406C600.932 313.406 605.294 314.604 608.68 317C612.091 319.396 614.109 323.628 614.734 329.695ZM641.922 349.07V357.391L636.648 357.586C631.388 357.768 627.794 356.857 625.867 354.852C624.617 353.576 623.992 351.609 623.992 348.953V322.742H618.055V314.812H623.992V302.938H635.008V314.812H641.922V322.742H635.008V345.242C635.008 346.987 635.229 348.081 635.672 348.523C636.115 348.94 637.469 349.148 639.734 349.148C640.073 349.148 640.424 349.148 640.789 349.148C641.18 349.122 641.557 349.096 641.922 349.07ZM660.516 314.422V357H649.227V314.422H660.516ZM660.516 299.07V309.344H649.227V299.07H660.516ZM706.844 319.812C710.438 324.318 712.234 329.643 712.234 335.789C712.234 342.039 710.438 347.391 706.844 351.844C703.25 356.271 697.794 358.484 690.477 358.484C683.159 358.484 677.703 356.271 674.109 351.844C670.516 347.391 668.719 342.039 668.719 335.789C668.719 329.643 670.516 324.318 674.109 319.812C677.703 315.307 683.159 313.055 690.477 313.055C697.794 313.055 703.25 315.307 706.844 319.812ZM690.438 322.469C687.182 322.469 684.669 323.628 682.898 325.945C681.154 328.237 680.281 331.518 680.281 335.789C680.281 340.06 681.154 343.354 682.898 345.672C684.669 347.99 687.182 349.148 690.438 349.148C693.693 349.148 696.193 347.99 697.938 345.672C699.682 343.354 700.555 340.06 700.555 335.789C700.555 331.518 699.682 328.237 697.938 325.945C696.193 323.628 693.693 322.469 690.438 322.469ZM740.281 322.664C736.505 322.664 733.914 324.266 732.508 327.469C731.779 329.161 731.414 331.323 731.414 333.953V357H720.32V314.5H731.062V320.711C732.495 318.523 733.849 316.948 735.125 315.984C737.417 314.266 740.32 313.406 743.836 313.406C748.237 313.406 751.831 314.565 754.617 316.883C757.43 319.174 758.836 322.99 758.836 328.328V357H747.43V331.102C747.43 328.862 747.13 327.143 746.531 325.945C745.438 323.758 743.354 322.664 740.281 322.664Z" fill="white" fill-opacity="0.8"/>
<circle cx="73" cy="300" r="173" fill="white"/>
<circle cx="132.5" cy="111.5" r="19.5" fill="white"/>
<circle cx="172" cy="76" r="10" fill="white"/>
<circle cx="212.5" cy="60.5" r="7.5" fill="white"/>
<circle cx="246.5" cy="56.5" r="5.5" fill="white"/>
<circle cx="270.5" cy="62.5" r="4.5" fill="white"/>
<circle cx="288.5" cy="76.5" r="3.5" fill="white"/>
<g clip-path="url(#clip1_5188_12884)">
<path d="M66.6247 347.667H134.476C136.123 347.688 137.54 346.475 137.813 344.82L151.957 256.303C152.251 254.452 151.016 252.715 149.205 252.416L148.62 252.372L51.3713 252.333C49.5383 252.312 48.0173 253.798 48 255.692L48.039 256.285L62.1873 343.801C62.5383 346.007 64.419 347.645 66.6247 347.667ZM116.185 284.357L110.937 315.578H89.2707L83.4207 284.357H116.185Z" fill="#2680F8"/>
<path d="M100 284.357H83.4209L89.2709 315.583H100V284.357Z" fill="#DEDEDE"/>
<path d="M51.3323 252.333C49.5167 252.333 48.0173 253.811 48 255.692L48.039 256.285L62.1873 343.801C62.5383 346.007 64.419 347.645 66.6247 347.667H100V315.583H89.2707L83.4207 284.357H100V252.355L51.3713 252.333C51.3583 252.333 51.3453 252.333 51.3323 252.333Z" fill="#216FD8"/>
</g>
<path d="M741.435 592.713C741.435 593.599 742.138 594.276 742.998 594.276C743.883 594.276 744.587 593.599 744.587 592.713V576.563C744.587 575.703 743.883 575 742.998 575C742.112 575 741.435 575.703 741.435 576.563V592.713Z" fill="white"/>
<path d="M748.654 576.849C748.654 577.787 749.435 578.412 750.451 578.412C751.467 578.412 752.248 577.787 752.248 576.849V576.693C752.248 575.755 751.467 575.156 750.451 575.156C749.435 575.156 748.654 575.755 748.654 576.693V576.849ZM748.888 592.713C748.888 593.599 749.591 594.276 750.451 594.276C751.337 594.276 752.04 593.599 752.04 592.713V581.825C752.04 580.939 751.337 580.236 750.451 580.236C749.565 580.236 748.888 580.939 748.888 581.825V592.713Z" fill="white"/>
<path d="M756.159 592.713C756.159 593.573 756.863 594.276 757.722 594.276C758.608 594.276 759.311 593.573 759.311 592.713V592.01C760.275 593.287 761.708 594.433 764 594.433C767.256 594.433 770.382 591.854 770.382 587.295V587.243C770.382 582.658 767.23 580.106 764 580.106C761.76 580.106 760.327 581.252 759.311 582.685V576.563C759.311 575.677 758.608 575 757.722 575C756.837 575 756.159 575.677 756.159 576.563V592.713ZM763.245 591.698C761.109 591.698 759.233 589.926 759.233 587.295V587.243C759.233 584.612 761.109 582.841 763.245 582.841C765.381 582.841 767.178 584.586 767.178 587.243V587.295C767.178 590.004 765.407 591.698 763.245 591.698Z" fill="white"/>
<path d="M773.818 592.713C773.818 593.599 774.521 594.276 775.381 594.276C776.267 594.276 776.97 593.599 776.97 592.713V576.563C776.97 575.703 776.267 575 775.381 575C774.495 575 773.818 575.703 773.818 576.563V592.713Z" fill="white"/>
<path d="M787.628 594.459C791.874 594.459 795 591.203 795 587.295V587.243C795 583.31 791.9 580.106 787.68 580.106C783.46 580.106 780.334 583.362 780.334 587.295V587.347C780.334 591.255 783.434 594.459 787.628 594.459ZM787.68 591.698C785.231 591.698 783.486 589.692 783.486 587.295V587.243C783.486 584.847 785.101 582.867 787.628 582.867C790.102 582.867 791.848 584.873 791.848 587.295V587.347C791.848 589.718 790.233 591.698 787.68 591.698Z" fill="white"/>
<path d="M736.96 590.09C735.74 590.65 734.453 591.046 733.208 591.294C728.074 592.314 725.36 589.099 729.634 586.781C730.099 586.529 730.632 586.291 731.228 586.075L732.011 585.826C732.241 585.763 732.463 585.661 732.534 585.515C732.905 584.723 729.731 584.467 727.622 585.589C728.458 585.431 729.186 585.408 729.668 585.609C724.878 586.845 723.788 590.757 726.335 592.642C727.649 593.615 729.127 593.873 731.832 593.682C733.637 593.555 735.48 592.837 736.96 591.969V590.09Z" fill="white"/>
<path d="M734.542 592.784C734.542 593.607 735.171 594.165 736.03 594.165C736.89 594.165 737.478 593.644 737.478 592.784V586.011C737.478 584.214 737.009 582.755 735.993 581.765C735.029 580.776 733.492 580.228 731.434 580.228C729.637 580.228 728.308 580.541 727.006 581.036C726.537 581.218 726.146 581.713 726.146 582.286C726.146 583.016 726.745 583.589 727.475 583.589C727.631 583.589 727.787 583.563 727.97 583.511C728.829 583.172 729.819 582.964 731.018 582.964C733.232 582.964 734.43 584.006 734.43 585.959V585.968L734.542 592.784Z" fill="white"/>
<path d="M733.611 578.379C733.611 578.591 733.273 578.721 732.805 578.721C732.077 578.721 731.583 578.64 730.984 578.282L729.216 577.24C728.956 577.093 728.774 576.93 728.774 576.751C728.774 576.442 729.814 576.116 730.646 576.116C731.192 576.116 731.609 576.295 731.895 576.589L733.377 578.021C733.481 578.119 733.611 578.265 733.611 578.379Z" fill="white"/>
</g>
<defs>
<linearGradient id="paint0_linear_5188_12884" x1="800" y1="0" x2="-2.41943" y2="596.747" gradientUnits="userSpaceOnUse">
<stop stop-color="#41B8FF"/>
<stop offset="1" stop-color="#0055C2"/>
</linearGradient>
<clipPath id="clip0_5188_12884">
<rect width="800" height="600" fill="white"/>
</clipPath>
<clipPath id="clip1_5188_12884">
<rect width="104" height="104" fill="white" transform="translate(48 248)"/>
</clipPath>
</defs>
</svg>
