<?xml version="1.0" encoding="UTF-8"?>
<svg width="800px" height="600px" viewBox="0 0 800 600" version="1.1" xmlns="http://www.w3.org/2000/svg" xmlns:xlink="http://www.w3.org/1999/xlink">
    <title>2041-10-14-14-10_MakingTheFirstCommit</title>
    <defs>
        <path d="M8.68744595,14.5405413 C10.6544909,13.5649687 12,11.5915112 12,9.31636202 C12,6.07252388 9.26504479,3.44227578 5.89152197,3.44227578 C4.52034181,3.44227578 3.25480793,3.87689217 2.23537065,4.61058921 L2.23537065,1.05770107 C2.23537065,0.476155373 1.74046224,0 1.11695169,0 C0.493934821,0 0.0167986821,0.476630104 0.0167986821,1.05770107 L0.0167986821,1.80184219 L0,9.32158406 C-0.0041824725,11.2003327 0.951817666,12.865215 2.41753644,13.8939574 C2.4777647,13.9362085 2.55848043,13.9312238 2.6127846,13.8823265 C2.66758244,13.8334292 2.6779496,13.7558106 2.63746831,13.6950451 C0.724974359,10.8146136 1.16014819,5.53963813 5.89176881,5.53963813 C8.05899866,5.53963813 9.80709909,7.22944376 9.81623206,9.31351363 C9.82240299,10.8599505 9.11620201,12.0365717 8.19549958,12.7781018 C6.36026565,14.2561773 3.64974731,12.6382934 4.49738595,10.4697214 C4.5894562,10.2335427 4.71879884,9.9959397 4.88664808,9.76189723 L5.12361171,9.47705853 C5.19766284,9.39967734 5.25048599,9.29903433 5.2146946,9.19411874 C5.01401603,8.62800181 3.46832203,8.97526767 3.04005964,10.0315445 C3.34292878,9.79631524 3.65986763,9.66433998 3.96940137,9.71489885 C2.38890334,11.275815 3.44141679,13.9563846 5.46005069,14.7513219 C6.40494316,15.1232738 7.55964718,15.0976383 8.68744595,14.5405413" id="path-1"></path>
        <linearGradient x1="28.568518%" y1="104.445731%" x2="78.3472072%" y2="20.6880271%" id="linearGradient-3">
            <stop stop-color="#000F98" offset="0%"></stop>
            <stop stop-color="#00A5FD" offset="100%"></stop>
        </linearGradient>
        <path d="M75.0006954,61 L75.000094,93 C74.9999481,95.7614237 77.2384823,98.0000421 79.999906,98.000094 C79.9999374,98.000094 79.9999687,98.000094 80,98 L116,98 C118.761424,98 121,95.7614237 121,93 L121,70.0905711 C121,67.3291474 118.761424,65.0905711 116,65.0905711 L100.353425,65.0905711 C98.7219198,65.0905711 97.1930243,64.2945785 96.2573692,62.9580317 L92.8792632,58.1325394 C91.9436081,56.7959926 90.4147126,56 88.7832078,56 L80.0007894,56 C77.2394023,56.000094 75.0008413,58.238613 75.0006954,61 Z" id="path-4"></path>
        <filter x="-28.3%" y="-26.2%" width="156.5%" height="161.9%" filterUnits="objectBoundingBox" id="filter-5">
            <feOffset dx="0" dy="2" in="SourceAlpha" result="shadowOffsetOuter1"></feOffset>
            <feGaussianBlur stdDeviation="4" in="shadowOffsetOuter1" result="shadowBlurOuter1"></feGaussianBlur>
            <feColorMatrix values="0 0 0 0 0   0 0 0 0 0   0 0 0 0 0  0 0 0 0.5 0" type="matrix" in="shadowBlurOuter1"></feColorMatrix>
        </filter>
        <linearGradient x1="79.4463603%" y1="0%" x2="20.5536397%" y2="100%" id="linearGradient-6">
            <stop stop-color="#00A5FF" offset="0.0491695804%"></stop>
            <stop stop-color="#0755C2" offset="100%"></stop>
        </linearGradient>
    </defs>
    <g id="2041-10-14-14-10_MakingTheFirstCommit" stroke="none" stroke-width="1" fill="none" fill-rule="evenodd">
        <rect fill="#FFFFFF" x="0" y="0" width="800" height="600"></rect>
        <text id="Making-The-First-Com" fill-rule="nonzero" font-family="Helvetica" font-size="18" font-weight="normal" fill="#0055C2">
            <tspan x="10" y="23">Making The First Commit</tspan>
        </text>
        <g id="bloovee-winner-logo" transform="translate(725.000000, 580.000000)">
            <path d="M13,13.7751507 C13,14.396312 13.4732558,14.8717809 14.0514961,14.8717809 C14.6474304,14.8717809 15.1204503,14.3968042 15.1204503,13.7751507 L15.1204503,2.09687626 C15.1204503,1.49368045 14.6474304,1 14.0514961,1 C13.4557977,1 13,1.49392656 13,2.09687626 L13,13.7751507 Z M21.7920364,15 C24.6483217,15 26.751078,12.7149437 26.751078,9.97312215 L26.751078,9.93645297 C26.751078,7.17641992 24.6657798,4.92778666 21.8269526,4.92778666 C18.9881254,4.92778666 16.885369,7.212843 16.885369,9.97312215 L16.885369,10.0095452 C16.885369,12.7516128 18.9706673,15 21.7920364,15 Z M21.8269526,13.0621935 C20.179994,13.0621935 19.0055834,11.6547366 19.0055834,9.97312215 L19.0055834,9.93645297 C19.0055834,8.25459244 20.0919958,6.86534709 21.7920364,6.86534709 C23.456689,6.86534709 24.6306277,8.27305008 24.6306277,9.97312215 L24.6306277,10.0095452 C24.6306277,11.6731942 23.5444513,13.0621935 21.8269526,13.0621935 Z M32.8092717,15 C35.665557,15 37.7683133,12.7149437 37.7683133,9.97312215 L37.7683133,9.93645297 C37.7683133,7.17641992 35.6830151,4.92778666 32.8441878,4.92778666 C30.0053606,4.92778666 27.9026043,7.212843 27.9026043,9.97312215 L27.9026043,10.0095452 C27.9026043,12.7516128 29.9879025,15 32.8092717,15 Z M32.8441878,13.0621935 C31.1969933,13.0621935 30.0228187,11.6547366 30.0228187,9.97312215 L30.0228187,9.93645297 C30.0228187,8.25459244 31.109231,6.86534709 32.8092717,6.86534709 C34.4739243,6.86534709 35.647863,8.27305008 35.647863,9.97312215 L35.647863,10.0095452 C35.647863,11.6731942 34.5614506,13.0621935 32.8441878,13.0621935 Z M44.1416963,13.9944275 L47.2261164,6.6096472 C47.2784906,6.49988574 47.3487948,6.28060893 47.3487948,6.07954366 C47.3487948,5.47610175 46.8929971,5.01933658 46.3147568,5.01933658 C45.7539746,5.01933658 45.4737015,5.40300947 45.3158709,5.78692847 L42.8976893,12.2215093 L40.5144239,5.82335156 C40.3393711,5.36634029 40.041404,5.01933658 39.4629278,5.01933658 C38.8846875,5.01933658 38.4116676,5.53098247 38.4116676,6.07954366 C38.4116676,6.28060893 38.4817358,6.46346265 38.534346,6.62785874 L41.6182943,13.9944275 C41.8638872,14.5796579 42.2491448,14.9633308 42.8273851,14.9633308 L42.9326055,14.9633308 C43.5108458,14.9633308 43.8965752,14.5612003 44.1416963,13.9944275 Z M50.0949054,9.27837643 C50.2876522,7.77961573 51.1987758,6.73762019 52.4956289,6.73762019 C53.8974665,6.73762019 54.7036056,7.8524619 54.8437422,9.27837643 L50.0949054,9.27837643 Z M56.070527,13.72027 C56.2281217,13.5558739 56.3508002,13.3181395 56.3508002,13.0439819 C56.3508002,12.5320899 55.9830006,12.1481709 55.5095089,12.1481709 C55.2641519,12.1481709 55.1242513,12.2215093 54.9664207,12.3492362 C54.3704864,12.8611282 53.6695676,13.1901665 52.7759021,13.1901665 C51.4089807,13.1901665 50.3402624,12.3128131 50.1123635,10.7409601 L55.9126964,10.7409601 C56.4560206,10.7409601 56.9115824,10.3021604 56.9115824,9.68050697 C56.9115824,7.45057746 55.4568987,4.92778666 52.513087,4.92778666 C49.8672425,4.92778666 47.9919132,7.19438536 47.9919132,9.95466451 L47.9919132,9.9913337 C47.9919132,12.9708897 50.0597533,15 52.7409859,15 C54.1779755,15 55.2292357,14.5063195 56.070527,13.72027 Z M60.1833231,9.27837643 C60.3763058,7.77961573 61.2871935,6.73762019 62.5842825,6.73762019 C63.9858841,6.73762019 64.7920233,7.8524619 64.9321598,9.27837643 L60.1833231,9.27837643 Z M66.1589447,13.72027 C66.3167752,13.5558739 66.4394537,13.3181395 66.4394537,13.0439819 C66.4394537,12.5320899 66.0714183,12.1481709 65.5981624,12.1481709 C65.3528055,12.1481709 65.2126689,12.2215093 65.0548383,12.3492362 C64.4591399,12.8611282 63.7582212,13.1901665 62.8643197,13.1901665 C61.4976342,13.1901665 60.4289159,12.3128131 60.2007812,10.7409601 L66.0011141,10.7409601 C66.5444382,10.7409601 67,10.3021604 67,9.68050697 C67,7.45057746 65.5455522,4.92778666 62.6015046,4.92778666 C59.9556601,4.92778666 58.0805667,7.19438536 58.0805667,9.95466451 L58.0805667,9.9913337 C58.0805667,12.9708897 60.1484069,15 62.8294035,15 C64.2663932,15 65.3178893,14.5063195 66.1589447,13.72027 L66.1589447,13.72027 Z" id="Fill-1" fill="#030060"></path>
            <g id="Group-4">
                <mask id="mask-2" fill="white">
                    <use xlink:href="#path-1"></use>
                </mask>
                <g id="Clip-3"></g>
                <path d="M8.68744595,14.5405413 C10.6544909,13.5649687 12,11.5915112 12,9.31636202 C12,6.07252388 9.26504479,3.44227578 5.89152197,3.44227578 C4.52034181,3.44227578 3.25480793,3.87689217 2.23537065,4.61058921 L2.23537065,1.05770107 C2.23537065,0.476155373 1.74046224,0 1.11695169,0 C0.493934821,0 0.0167986821,0.476630104 0.0167986821,1.05770107 L0.0167986821,1.80184219 L0,9.32158406 C-0.0041824725,11.2003327 0.951817666,12.865215 2.41753644,13.8939574 C2.4777647,13.9362085 2.55848043,13.9312238 2.6127846,13.8823265 C2.66758244,13.8334292 2.6779496,13.7558106 2.63746831,13.6950451 C0.724974359,10.8146136 1.16014819,5.53963813 5.89176881,5.53963813 C8.05899866,5.53963813 9.80709909,7.22944376 9.81623206,9.31351363 C9.82240299,10.8599505 9.11620201,12.0365717 8.19549958,12.7781018 C6.36026565,14.2561773 3.64974731,12.6382934 4.49738595,10.4697214 C4.5894562,10.2335427 4.71879884,9.9959397 4.88664808,9.76189723 L5.12361171,9.47705853 C5.19766284,9.39967734 5.25048599,9.29903433 5.2146946,9.19411874 C5.01401603,8.62800181 3.46832203,8.97526767 3.04005964,10.0315445 C3.34292878,9.79631524 3.65986763,9.66433998 3.96940137,9.71489885 C2.38890334,11.275815 3.44141679,13.9563846 5.46005069,14.7513219 C6.40494316,15.1232738 7.55964718,15.0976383 8.68744595,14.5405413" id="Fill-2" fill="url(#linearGradient-3)" mask="url(#mask-2)"></path>
            </g>
        </g>
        <rect id="Rectangle-Copy-3" stroke="#006AE1" x="65.5" y="77.5" width="647" height="373" rx="8"></rect>
        <rect id="Rectangle" fill="#C5DDFF" opacity="0.5" x="70" y="110" width="195" height="325"></rect>
        <rect id="Rectangle-Copy" fill="#C5DDFF" opacity="0.5" x="290" y="110" width="195" height="325"></rect>
        <rect id="Rectangle-Copy-2" fill="#C5DDFF" opacity="0.5" x="510" y="110" width="195" height="325"></rect>
        <g id="documents-copy-4" transform="translate(568.000000, 228.000000)" fill-rule="nonzero">
            <path d="M88.6363636,27.8709677 L88.6363636,106.83871 L18.9090909,106.83871 L18.9090909,97.8138249 C18.9319013,97.7869759 78.2379277,27.906616 78.2679959,27.8709677 L88.6363636,27.8709677 Z" id="Path" fill="#A4C2F7"></path>
            <path d="M78,96.3870968 C75.6520125,96.3870968 2.62441066,96.3870968 1.18181818,96.3870968 C1.18181818,90.5575604 1.18181818,6.21461198 1.18181818,2.32258065 L56.8087774,2.32258065 L62.5481552,14.7899364 L78,20.2396313 C78,23.5925834 78,92.5781558 78,96.3870968 Z" id="Path" fill="#FFFFFF"></path>
            <polygon id="Path" fill="#A4C2F7" points="79.1818182 20.9032258 57.9090909 20.9032258 57.9090909 2.32258065"></polygon>
            <path d="M78.914956,97.5483871 L2.63049853,97.5483871 C1.17767419,97.5483871 0,96.5556106 0,95.3313783 L0,2.2170088 C0,0.992554839 1.17767419,0 2.63049853,0 L57.8709677,0 C58.568576,0 59.2375117,0.233672727 59.7309933,0.649361877 L80.7749815,18.3854323 C81.2682,18.8011214 81.5454545,19.3651284 81.5454545,19.9530792 L81.5454545,95.3313783 C81.5454545,96.5556106 80.3675173,97.5483871 78.914956,97.5483871 Z M5.26099707,93.1143695 L76.2844575,93.1143695 L76.2844575,20.8713642 L56.7811522,4.4340176 L5.26099707,4.4340176 L5.26099707,93.1143695 Z" id="Shape" fill="#418CFE"></path>
            <path d="M78.1185908,22.5 L57.508336,22.5 C56.0857131,22.5 54.9320541,21.492675 54.9320541,20.25 L54.9320541,2.25 C54.9320541,1.007325 56.0857131,0 57.508336,0 C58.9309588,0 60.0846178,1.007325 60.0846178,2.25 L60.0846178,18 L78.1185908,18 C79.5412136,18 80.6948726,19.007325 80.6948726,20.25 C80.6948726,21.492675 79.5412136,22.5 78.1185908,22.5 Z M88.4237182,108 L19.1217364,108 C17.6988559,108 16.5454545,106.99245 16.5454545,105.75 L16.5454545,96.75 C16.5454545,95.50755 17.6988559,94.5 19.1217364,94.5 C20.5446169,94.5 21.6980182,95.50755 21.6980182,96.75 L21.6980182,103.5 L85.8474363,103.5 L85.8474363,29.25 L78.1185908,29.25 C76.6959679,29.25 75.5423089,28.242675 75.5423089,27 C75.5423089,25.757325 76.6959679,24.75 78.1185908,24.75 L88.4237182,24.75 C89.846341,24.75 91,25.757325 91,27 L91,105.75 C91,106.99245 89.846341,108 88.4237182,108 Z" id="Shape" fill="#418CFE"></path>
            <path d="M67.055336,83.6129032 L10.944664,83.6129032 C9.46895336,83.6129032 8.27272727,82.5964891 8.27272727,81.3431085 C8.27272727,80.0897279 9.46895336,79.0733138 10.944664,79.0733138 L67.055336,79.0733138 C68.5307794,79.0733138 69.7272727,80.0897279 69.7272727,81.3431085 C69.7272727,82.5964891 68.5307794,83.6129032 67.055336,83.6129032 Z M67.055336,74.5337243 L10.944664,74.5337243 C9.46895336,74.5337243 8.27272727,73.5173103 8.27272727,72.2639296 C8.27272727,71.010549 9.46895336,69.9941349 10.944664,69.9941349 L67.055336,69.9941349 C68.5307794,69.9941349 69.7272727,71.010549 69.7272727,72.2639296 C69.7272727,73.5173103 68.5307794,74.5337243 67.055336,74.5337243 Z M67.055336,65.4545455 L10.944664,65.4545455 C9.46895336,65.4545455 8.27272727,64.4381314 8.27272727,63.1847507 C8.27272727,61.9313701 9.46895336,60.914956 10.944664,60.914956 L67.055336,60.914956 C68.5307794,60.914956 69.7272727,61.9313701 69.7272727,63.1847507 C69.7272727,64.4381314 68.5307794,65.4545455 67.055336,65.4545455 Z M67.055336,56.3753666 L10.944664,56.3753666 C9.46895336,56.3753666 8.27272727,55.3591795 8.27272727,54.1055718 C8.27272727,52.8519642 9.46895336,51.8357771 10.944664,51.8357771 L67.055336,51.8357771 C68.5307794,51.8357771 69.7272727,52.8519642 69.7272727,54.1055718 C69.7272727,55.3591795 68.5307794,56.3753666 67.055336,56.3753666 Z M67.055336,47.2961877 L10.944664,47.2961877 C9.46895336,47.2961877 8.27272727,46.2800006 8.27272727,45.026393 C8.27272727,43.7727853 9.46895336,42.7565982 10.944664,42.7565982 L67.055336,42.7565982 C68.5307794,42.7565982 69.7272727,43.7727853 69.7272727,45.026393 C69.7272727,46.2800006 68.5307794,47.2961877 67.055336,47.2961877 Z M34.9920949,38.2170088 L10.944664,38.2170088 C9.46895336,38.2170088 8.27272727,37.2008217 8.27272727,35.9472141 C8.27272727,34.6936065 9.46895336,33.6774194 10.944664,33.6774194 L34.9920949,33.6774194 C36.4678055,33.6774194 37.6640316,34.6936065 37.6640316,35.9472141 C37.6640316,37.2008217 36.4678055,38.2170088 34.9920949,38.2170088 Z" id="Shape" fill="#418CFE"></path>
        </g>
        <g id="documents-copy-6" transform="translate(124.000000, 228.000000)" fill-rule="nonzero">
            <path d="M88.6363636,27.8709677 L88.6363636,106.83871 L18.9090909,106.83871 L18.9090909,97.8138249 C18.9319013,97.7869759 78.2379277,27.906616 78.2679959,27.8709677 L88.6363636,27.8709677 Z" id="Path" fill="#A4C2F7"></path>
            <path d="M78,96.3870968 C75.6520125,96.3870968 2.62441066,96.3870968 1.18181818,96.3870968 C1.18181818,90.5575604 1.18181818,6.21461198 1.18181818,2.32258065 L56.8087774,2.32258065 L62.5481552,14.7899364 L78,20.2396313 C78,23.5925834 78,92.5781558 78,96.3870968 Z" id="Path" fill="#FFFFFF"></path>
            <polygon id="Path" fill="#A4C2F7" points="79.1818182 20.9032258 57.9090909 20.9032258 57.9090909 2.32258065"></polygon>
            <path d="M78.914956,97.5483871 L2.63049853,97.5483871 C1.17767419,97.5483871 0,96.5556106 0,95.3313783 L0,2.2170088 C0,0.992554839 1.17767419,0 2.63049853,0 L57.8709677,0 C58.568576,0 59.2375117,0.233672727 59.7309933,0.649361877 L80.7749815,18.3854323 C81.2682,18.8011214 81.5454545,19.3651284 81.5454545,19.9530792 L81.5454545,95.3313783 C81.5454545,96.5556106 80.3675173,97.5483871 78.914956,97.5483871 Z M5.26099707,93.1143695 L76.2844575,93.1143695 L76.2844575,20.8713642 L56.7811522,4.4340176 L5.26099707,4.4340176 L5.26099707,93.1143695 Z" id="Shape" fill="#418CFE"></path>
            <path d="M78.1185908,22.5 L57.508336,22.5 C56.0857131,22.5 54.9320541,21.492675 54.9320541,20.25 L54.9320541,2.25 C54.9320541,1.007325 56.0857131,0 57.508336,0 C58.9309588,0 60.0846178,1.007325 60.0846178,2.25 L60.0846178,18 L78.1185908,18 C79.5412136,18 80.6948726,19.007325 80.6948726,20.25 C80.6948726,21.492675 79.5412136,22.5 78.1185908,22.5 Z M88.4237182,108 L19.1217364,108 C17.6988559,108 16.5454545,106.99245 16.5454545,105.75 L16.5454545,96.75 C16.5454545,95.50755 17.6988559,94.5 19.1217364,94.5 C20.5446169,94.5 21.6980182,95.50755 21.6980182,96.75 L21.6980182,103.5 L85.8474363,103.5 L85.8474363,29.25 L78.1185908,29.25 C76.6959679,29.25 75.5423089,28.242675 75.5423089,27 C75.5423089,25.757325 76.6959679,24.75 78.1185908,24.75 L88.4237182,24.75 C89.846341,24.75 91,25.757325 91,27 L91,105.75 C91,106.99245 89.846341,108 88.4237182,108 Z" id="Shape" fill="#418CFE"></path>
            <path d="M67.055336,83.6129032 L10.944664,83.6129032 C9.46895336,83.6129032 8.27272727,82.5964891 8.27272727,81.3431085 C8.27272727,80.0897279 9.46895336,79.0733138 10.944664,79.0733138 L67.055336,79.0733138 C68.5307794,79.0733138 69.7272727,80.0897279 69.7272727,81.3431085 C69.7272727,82.5964891 68.5307794,83.6129032 67.055336,83.6129032 Z M67.055336,74.5337243 L10.944664,74.5337243 C9.46895336,74.5337243 8.27272727,73.5173103 8.27272727,72.2639296 C8.27272727,71.010549 9.46895336,69.9941349 10.944664,69.9941349 L67.055336,69.9941349 C68.5307794,69.9941349 69.7272727,71.010549 69.7272727,72.2639296 C69.7272727,73.5173103 68.5307794,74.5337243 67.055336,74.5337243 Z M67.055336,65.4545455 L10.944664,65.4545455 C9.46895336,65.4545455 8.27272727,64.4381314 8.27272727,63.1847507 C8.27272727,61.9313701 9.46895336,60.914956 10.944664,60.914956 L67.055336,60.914956 C68.5307794,60.914956 69.7272727,61.9313701 69.7272727,63.1847507 C69.7272727,64.4381314 68.5307794,65.4545455 67.055336,65.4545455 Z M67.055336,56.3753666 L10.944664,56.3753666 C9.46895336,56.3753666 8.27272727,55.3591795 8.27272727,54.1055718 C8.27272727,52.8519642 9.46895336,51.8357771 10.944664,51.8357771 L67.055336,51.8357771 C68.5307794,51.8357771 69.7272727,52.8519642 69.7272727,54.1055718 C69.7272727,55.3591795 68.5307794,56.3753666 67.055336,56.3753666 Z M67.055336,47.2961877 L10.944664,47.2961877 C9.46895336,47.2961877 8.27272727,46.2800006 8.27272727,45.026393 C8.27272727,43.7727853 9.46895336,42.7565982 10.944664,42.7565982 L67.055336,42.7565982 C68.5307794,42.7565982 69.7272727,43.7727853 69.7272727,45.026393 C69.7272727,46.2800006 68.5307794,47.2961877 67.055336,47.2961877 Z M34.9920949,38.2170088 L10.944664,38.2170088 C9.46895336,38.2170088 8.27272727,37.2008217 8.27272727,35.9472141 C8.27272727,34.6936065 9.46895336,33.6774194 10.944664,33.6774194 L34.9920949,33.6774194 C36.4678055,33.6774194 37.6640316,34.6936065 37.6640316,35.9472141 C37.6640316,37.2008217 36.4678055,38.2170088 34.9920949,38.2170088 Z" id="Shape" fill="#418CFE"></path>
        </g>
        <g id="documents-copy-7" transform="translate(342.000000, 228.000000)" fill-rule="nonzero">
            <path d="M88.6363636,27.8709677 L88.6363636,106.83871 L18.9090909,106.83871 L18.9090909,97.8138249 C18.9319013,97.7869759 78.2379277,27.906616 78.2679959,27.8709677 L88.6363636,27.8709677 Z" id="Path" fill="#A4C2F7"></path>
            <path d="M78,96.3870968 C75.6520125,96.3870968 2.62441066,96.3870968 1.18181818,96.3870968 C1.18181818,90.5575604 1.18181818,6.21461198 1.18181818,2.32258065 L56.8087774,2.32258065 L62.5481552,14.7899364 L78,20.2396313 C78,23.5925834 78,92.5781558 78,96.3870968 Z" id="Path" fill="#FFFFFF"></path>
            <polygon id="Path" fill="#A4C2F7" points="79.1818182 20.9032258 57.9090909 20.9032258 57.9090909 2.32258065"></polygon>
            <path d="M78.914956,97.5483871 L2.63049853,97.5483871 C1.17767419,97.5483871 0,96.5556106 0,95.3313783 L0,2.2170088 C0,0.992554839 1.17767419,0 2.63049853,0 L57.8709677,0 C58.568576,0 59.2375117,0.233672727 59.7309933,0.649361877 L80.7749815,18.3854323 C81.2682,18.8011214 81.5454545,19.3651284 81.5454545,19.9530792 L81.5454545,95.3313783 C81.5454545,96.5556106 80.3675173,97.5483871 78.914956,97.5483871 Z M5.26099707,93.1143695 L76.2844575,93.1143695 L76.2844575,20.8713642 L56.7811522,4.4340176 L5.26099707,4.4340176 L5.26099707,93.1143695 Z" id="Shape" fill="#418CFE"></path>
            <path d="M78.1185908,22.5 L57.508336,22.5 C56.0857131,22.5 54.9320541,21.492675 54.9320541,20.25 L54.9320541,2.25 C54.9320541,1.007325 56.0857131,0 57.508336,0 C58.9309588,0 60.0846178,1.007325 60.0846178,2.25 L60.0846178,18 L78.1185908,18 C79.5412136,18 80.6948726,19.007325 80.6948726,20.25 C80.6948726,21.492675 79.5412136,22.5 78.1185908,22.5 Z M88.4237182,108 L19.1217364,108 C17.6988559,108 16.5454545,106.99245 16.5454545,105.75 L16.5454545,96.75 C16.5454545,95.50755 17.6988559,94.5 19.1217364,94.5 C20.5446169,94.5 21.6980182,95.50755 21.6980182,96.75 L21.6980182,103.5 L85.8474363,103.5 L85.8474363,29.25 L78.1185908,29.25 C76.6959679,29.25 75.5423089,28.242675 75.5423089,27 C75.5423089,25.757325 76.6959679,24.75 78.1185908,24.75 L88.4237182,24.75 C89.846341,24.75 91,25.757325 91,27 L91,105.75 C91,106.99245 89.846341,108 88.4237182,108 Z" id="Shape" fill="#418CFE"></path>
            <path d="M67.055336,83.6129032 L10.944664,83.6129032 C9.46895336,83.6129032 8.27272727,82.5964891 8.27272727,81.3431085 C8.27272727,80.0897279 9.46895336,79.0733138 10.944664,79.0733138 L67.055336,79.0733138 C68.5307794,79.0733138 69.7272727,80.0897279 69.7272727,81.3431085 C69.7272727,82.5964891 68.5307794,83.6129032 67.055336,83.6129032 Z M67.055336,74.5337243 L10.944664,74.5337243 C9.46895336,74.5337243 8.27272727,73.5173103 8.27272727,72.2639296 C8.27272727,71.010549 9.46895336,69.9941349 10.944664,69.9941349 L67.055336,69.9941349 C68.5307794,69.9941349 69.7272727,71.010549 69.7272727,72.2639296 C69.7272727,73.5173103 68.5307794,74.5337243 67.055336,74.5337243 Z M67.055336,65.4545455 L10.944664,65.4545455 C9.46895336,65.4545455 8.27272727,64.4381314 8.27272727,63.1847507 C8.27272727,61.9313701 9.46895336,60.914956 10.944664,60.914956 L67.055336,60.914956 C68.5307794,60.914956 69.7272727,61.9313701 69.7272727,63.1847507 C69.7272727,64.4381314 68.5307794,65.4545455 67.055336,65.4545455 Z M67.055336,56.3753666 L10.944664,56.3753666 C9.46895336,56.3753666 8.27272727,55.3591795 8.27272727,54.1055718 C8.27272727,52.8519642 9.46895336,51.8357771 10.944664,51.8357771 L67.055336,51.8357771 C68.5307794,51.8357771 69.7272727,52.8519642 69.7272727,54.1055718 C69.7272727,55.3591795 68.5307794,56.3753666 67.055336,56.3753666 Z M67.055336,47.2961877 L10.944664,47.2961877 C9.46895336,47.2961877 8.27272727,46.2800006 8.27272727,45.026393 C8.27272727,43.7727853 9.46895336,42.7565982 10.944664,42.7565982 L67.055336,42.7565982 C68.5307794,42.7565982 69.7272727,43.7727853 69.7272727,45.026393 C69.7272727,46.2800006 68.5307794,47.2961877 67.055336,47.2961877 Z M34.9920949,38.2170088 L10.944664,38.2170088 C9.46895336,38.2170088 8.27272727,37.2008217 8.27272727,35.9472141 C8.27272727,34.6936065 9.46895336,33.6774194 10.944664,33.6774194 L34.9920949,33.6774194 C36.4678055,33.6774194 37.6640316,34.6936065 37.6640316,35.9472141 C37.6640316,37.2008217 36.4678055,38.2170088 34.9920949,38.2170088 Z" id="Shape" fill="#418CFE"></path>
        </g>
        <text id="Working-Tree" font-family="Helvetica" font-size="21" font-weight="normal" fill="#0055C2">
            <tspan x="104.738281" y="139">Working Tree</tspan>
        </text>
        <text id="Preparation-for-comm" font-family="Helvetica" font-size="21" font-weight="normal" fill="#0055C2">
            <tspan x="331" y="393">Preparation </tspan>
            <tspan x="331" y="418">for commit</tspan>
        </text>
        <text id="Store-Committed-file" font-family="Helvetica" font-size="21" font-weight="normal" fill="#0055C2">
            <tspan x="529" y="393">Store </tspan>
            <tspan x="529" y="418">Committed files</tspan>
        </text>
        <text id="Staging-Area-(Index)" font-family="Helvetica" font-size="21" font-weight="normal" fill="#0055C2">
            <tspan x="326.865967" y="142">Staging Area</tspan>
            <tspan x="354.320801" y="167">(Index)</tspan>
        </text>
        <text id="git-add" font-family="Helvetica-Bold, Helvetica" font-size="24" font-weight="bold" fill="#0055C2">
            <tspan x="230" y="244">git add</tspan>
        </text>
        <text id="git-status" font-family="Helvetica-Bold, Helvetica" font-size="24" font-weight="bold" fill="#0055C2">
            <tspan x="225" y="495">git status</tspan>
        </text>
        <text id="git-log" font-family="Helvetica-Bold, Helvetica" font-size="24" font-weight="bold" fill="#0055C2">
            <tspan x="561" y="495">git log</tspan>
        </text>
        <text id="Returns-us-the-statu" font-family="Helvetica" font-size="24" font-weight="normal" fill="#0055C2">
            <tspan x="102.634766" y="528">Returns us the status of Working </tspan>
            <tspan x="156.851562" y="557">Tree and Staging Area </tspan>
        </text>
        <text id="Returns-us-commit-hi" font-family="Helvetica" font-size="24" font-weight="normal" fill="#0055C2">
            <tspan x="551.974609" y="528">Returns us </tspan>
            <tspan x="523.316406" y="557">commit histories</tspan>
        </text>
        <text id="git-commit" font-family="Helvetica-Bold, Helvetica" font-size="24" font-weight="bold" fill="#0055C2">
            <tspan x="438" y="244">git commit</tspan>
        </text>
        <text id="Local-Repository" font-family="Helvetica" font-size="21" font-weight="normal" fill="#0055C2">
            <tspan x="607.398438" y="142">Local </tspan>
            <tspan x="582.312256" y="167">Repository</tspan>
        </text>
        <g id="Group-5" transform="translate(225.000000, 250.000000)" fill="#7BB2FF">
            <rect id="Rectangle" transform="translate(45.317708, 15.910714) rotate(-540.000000) translate(-45.317708, -15.910714) " x="0" y="7.07142857" width="90.6354167" height="17.6785714"></rect>
            <path d="M100.895437,4.87568064 L115.572528,27.9105583 C115.869302,28.3763299 115.732303,28.9944959 115.266532,29.2912707 C115.105975,29.3935723 114.919552,29.4479167 114.729174,29.4479167 L85.3749931,29.4479167 C84.8227084,29.4479167 84.3749931,29.0002014 84.3749931,28.4479167 C84.3749931,28.257538 84.4293375,28.071115 84.5316391,27.9105583 L99.2087293,4.87568064 C99.5055041,4.40990907 100.12367,4.27291012 100.589442,4.56968493 C100.712552,4.64812677 100.816996,4.75257054 100.895437,4.87568064 Z" id="Triangle-Copy" transform="translate(100.052083, 16.500000) scale(-1, 1) rotate(-450.000000) translate(-100.052083, -16.500000) "></path>
        </g>
        <g id="Group-5-Copy" transform="translate(437.000000, 250.000000)" fill="#7BB2FF">
            <rect id="Rectangle" transform="translate(45.317708, 15.910714) rotate(-540.000000) translate(-45.317708, -15.910714) " x="0" y="7.07142857" width="90.6354167" height="17.6785714"></rect>
            <path d="M100.895437,4.87568064 L115.572528,27.9105583 C115.869302,28.3763299 115.732303,28.9944959 115.266532,29.2912707 C115.105975,29.3935723 114.919552,29.4479167 114.729174,29.4479167 L85.3749931,29.4479167 C84.8227084,29.4479167 84.3749931,29.0002014 84.3749931,28.4479167 C84.3749931,28.257538 84.4293375,28.071115 84.5316391,27.9105583 L99.2087293,4.87568064 C99.5055041,4.40990907 100.12367,4.27291012 100.589442,4.56968493 C100.712552,4.64812677 100.816996,4.75257054 100.895437,4.87568064 Z" id="Triangle-Copy" transform="translate(100.052083, 16.500000) scale(-1, 1) rotate(-450.000000) translate(-100.052083, -16.500000) "></path>
        </g>
        <text id="Edit-files" font-family="Helvetica" font-size="21" font-weight="normal" fill="#0055C2">
            <tspan x="122" y="413">Edit files</tspan>
        </text>
        <path id="Line-2" d="M168.5,347.080645 L173,356.080645 L169,356.08 L169,382.919355 L168,382.919355 L168,356.08 L164,356.080645 L168.5,347.080645 Z" fill="#0055C2" fill-rule="nonzero"></path>
        <text id="Local-Directory" font-family="Helvetica" font-size="21" font-weight="normal" fill="#0055C2">
            <tspan x="140" y="97">Local Directory</tspan>
        </text>
        <g id="Path-Copy-5">
            <use fill="black" fill-opacity="1" filter="url(#filter-5)" xlink:href="#path-4"></use>
            <use fill="#418CFE" fill-rule="evenodd" xlink:href="#path-4"></use>
        </g>
        <g id="Group-Copy" transform="translate(516.000000, 117.000000)" fill-rule="nonzero">
            <path d="M36.8038659,5.7339787 C35.4261174,1.96089061 26.9614571,0 18.5911632,0 C10.2208692,0 1.85057525,1.94230397 0.397333686,5.67821878 C0.249430459,5.89880074 0.170669351,6.15735065 0.170854481,6.42168441 L0.170854481,40.7419167 C0.161762463,40.8159937 0.161762463,40.8908795 0.170854481,40.9649564 C0.166285915,41.0299319 0.166285915,41.0951407 0.170854481,41.1601162 C0.170854481,45.6487899 9.43762863,48 18.5911632,48 C27.7446977,48 36.9925986,45.6487899 36.9925986,41.1601162 C36.9971634,41.0982422 36.9971634,41.0361237 36.9925986,40.9742498 C37.0024671,40.8971103 37.0024671,40.8190562 36.9925986,40.7419167 L36.9925986,6.42168441 C36.9974165,6.17943324 36.9319424,5.94085796 36.8038659,5.7339787 Z" id="Path" fill="url(#linearGradient-6)"></path>
            <path d="M18.431761,0.222035324 C30.3697498,0.222035324 36.8580299,3.69404515 36.8580299,5.47827242 C36.8699517,5.5337958 36.8699517,5.59152729 36.8580299,5.64705067 C36.4671696,7.4795003 29.9677221,10.7586207 18.431761,10.7586207 C6.8958,10.7586207 0.396352442,7.44333353 0.00549219377,5.64705067 C-0.00183073126,5.60320029 -0.00183073126,5.55828957 0.00549219377,5.51443919 C0.00549219377,3.69404515 6.49377232,0.222035324 18.431761,0.222035324 Z" id="Path" fill="#7BB2FF"></path>
        </g>
        <g id="Group" transform="translate(565.000000, 340.111304)">
            <rect id="Rectangle-Copy-2" fill="#DE4040" x="0" y="1.05565217" width="104" height="20.8330435" rx="2"></rect>
            <text id="Committed" font-family="Helvetica" font-size="16" font-weight="normal" fill="#FFFFFF">
                <tspan x="12.3518519" y="15">Committed</tspan>
            </text>
        </g>
        <path id="Line-28" d="M485,467 L494,471.5 L485,476 L485,472 L74,472 L74,476 L65,471.5 L74,467 L74,471 L485,471 L485,467 Z" fill="#0055C2" fill-rule="nonzero"></path>
        <path id="Line-28-Copy" d="M701,467 L710,471.5 L701,476 L701,472 L519,472 L519,476 L510,471.5 L519,467 L519,471 L701,471 L701,467 Z" fill="#0055C2" fill-rule="nonzero"></path>
        <g id="git" transform="translate(704.000000, 9.000000)">
            <path d="M46.8658496,11.2380575 C45.1623498,11.2380575 43.8939053,12.0891281 43.8939053,14.1376499 C43.8939053,15.6808485 44.7297841,16.7522856 46.7743573,16.7522856 C48.5071097,16.7522856 49.6846843,15.7131436 49.6846843,14.073693 C49.6846843,12.2157755 48.6309666,11.2380575 46.8658496,11.2380575 L46.8658496,11.2380575 Z M43.4607172,25.7011913 C43.0574041,26.2046147 42.6553359,26.7397 42.6553359,27.3710373 C42.6553359,28.6305458 44.2337339,29.0092215 46.4027864,29.0092215 C48.1984009,29.0092215 50.6450424,28.8813076 50.6450424,27.1823327 C50.6450424,26.1723196 49.4674678,26.1102624 47.9805621,26.0152768 L43.4607172,25.7011913 Z M52.6255087,11.3330431 C53.1825537,12.0580995 53.7719634,13.0662128 53.7719634,14.5156924 C53.7719634,18.0124273 51.0776081,20.0603158 47.1764255,20.0603158 C46.1843252,20.0603158 45.2862067,19.9349349 44.7291617,19.7772589 L43.7071863,21.4471049 L46.7413702,21.6351763 C52.0989611,21.9828234 55.257002,22.1404995 55.257002,26.3293624 C55.257002,29.9533779 52.1300809,32 46.7413702,32 C41.1360655,32 39,30.5505204 39,28.0625322 C39,26.6440812 39.6199071,25.8898959 40.7034998,24.848221 C39.680902,24.4087545 39.3410734,23.6216409 39.3410734,22.7705703 C39.3410734,22.0771758 39.6815244,21.4471049 40.2391918,20.8480627 C40.7968593,20.2502869 41.416144,19.6506115 42.1586633,18.9578502 C40.6412601,18.2017651 39.4960502,16.563581 39.4960502,14.231369 C39.4960502,10.6086199 41.8493321,8.12063165 46.5870158,8.12063165 C47.9189448,8.12063165 48.7249485,8.24537935 49.436348,8.43598369 L55.4754632,8.43598369 L55.4754632,11.1133099 L52.6255087,11.3330431 L52.6255087,11.3330431 Z M60.9233016,5.60858036 C59.1575621,5.60858036 58.1355867,4.56817192 58.1355867,2.77167847 C58.1355867,0.977717972 59.1575621,0 60.9233016,0 C62.7195385,0 63.7408917,0.977084735 63.7408917,2.77167847 C63.7415139,4.56817192 62.7195385,5.60858036 60.9233016,5.60858036 Z M56.9275147,24.5423675 L56.9275147,22.0543792 L58.50778,21.8340127 C58.9409681,21.770689 59.0025853,21.6763367 59.0025853,21.2026754 L59.0025853,11.9403174 C59.0025853,11.59457 58.9104706,11.372937 58.5998947,11.279218 L56.9275147,10.6801757 L57.2679657,8.12949697 L63.6792742,8.12949697 L63.6792742,21.2033087 C63.6792742,21.7086318 63.7091492,21.770689 64.174702,21.834646 L65.7543448,22.0550125 L65.7543448,24.5430008 L56.9275147,24.5430008 L56.9275147,24.5423675 Z M78,23.32022 C76.6674487,23.9806863 74.7174798,24.5803617 72.9511179,24.5803617 C69.2665294,24.5803617 67.8736056,23.0694582 67.8736056,19.5074999 L67.8736056,11.2532552 C67.8736056,11.0651838 67.8736056,10.9385364 67.6252693,10.9385364 L65.458084,10.9385364 L65.458084,8.13456287 C68.1841815,7.81857759 69.2671518,6.43242174 69.6076028,2.99837733 L72.5502944,2.99837733 L72.5502944,7.47346341 C72.5502944,7.69319666 72.5502944,7.78881545 72.7980083,7.78881545 L77.1641212,7.78881545 L77.1641212,10.9391697 L72.5502944,10.9391697 L72.5502944,18.4683579 C72.5502944,20.3269086 72.9841049,21.0513318 74.6558625,21.0513318 C75.5241059,21.0513318 76.4209796,20.8315985 77.1641212,20.5479083 L78,23.32022 L78,23.32022 Z" id="Shape" fill="#31251C" fill-rule="nonzero"></path>
            <path d="M32.3772539,15.0299695 L17.9690664,0.622277028 C17.140005,-0.207425676 15.7941261,-0.207425676 14.9644314,0.622277028 L11.9724635,3.61427365 L15.7668919,7.40937182 C16.6497884,7.11169223 17.6606226,7.31120089 18.3636464,8.01486479 C19.0704703,8.72232885 19.2687104,9.74203981 18.9634334,10.6274783 L22.6210571,14.2851371 C23.5052204,13.9804906 24.5268216,14.1774658 25.2336455,14.8849299 C26.221679,15.8723394 26.221679,17.4728423 25.2336455,18.4608852 C24.2449787,19.4489281 22.6451246,19.4489281 21.6570912,18.4608852 C20.914166,17.7173195 20.7304932,16.6260388 21.1067059,15.7108324 L17.6954571,12.2995509 L17.6948238,21.2768075 C17.9361319,21.3958793 18.1628729,21.5542195 18.3636464,21.7543616 C19.3516798,22.7417711 19.3516798,24.3416406 18.3636464,25.3309502 C17.375613,26.3183598 15.7744921,26.3183598 14.7877254,25.3309502 C13.799692,24.3416406 13.799692,22.7417711 14.7877254,21.7543616 C15.0322003,21.5105176 15.3140432,21.3262096 15.6155201,21.2027043 L15.6155201,12.1424774 C15.3140432,12.0196054 15.0322003,11.8359308 14.7877254,11.5908201 C14.0391001,10.842821 13.8592273,9.74520661 14.2430403,8.82620003 L10.5024471,5.08430417 L0.622746073,14.9634666 C-0.207582024,15.7938027 -0.207582024,17.1396945 0.622746073,17.9700305 L15.0309336,32.377723 C15.8606284,33.2074257 17.2058739,33.2074257 18.0368353,32.377723 L32.3772539,18.0359 C33.207582,17.2061973 33.207582,15.8596722 32.3772539,15.0299695 L32.3772539,15.0299695 Z" id="Path" fill="#F34F29" fill-rule="nonzero"></path>
            <polygon id="Path" points="1.12409637e-15 0 79 0 79 33 0 33"></polygon>
        </g>
        <g id="trial-copy" transform="translate(4.000000, 570.000000)" fill="#006AE1" fill-rule="nonzero">
            <path d="M24.7390408,0.0712262435 C23.8197062,-0.175854327 23.1591603,0.239201967 22.6859188,1.01735927 C22.6046689,1.15134921 22.52713,1.31717641 22.4478332,1.49316028 C22.1428011,1.2575123 21.7678493,1.130415 21.3824051,1.13201247 C21.3529129,1.13201247 21.3224442,1.13259843 21.2931474,1.134161 L15.1740157,1.4288998 C14.9503832,1.43964243 14.7687429,1.47870655 14.6234306,1.53906062 C14.2647714,1.59678794 13.9347315,1.76994119 13.6833929,2.03224516 L0.468959043,15.8746167 C-0.17420408,16.5457384 -0.153305673,17.6121889 0.516224599,18.2565516 L7.02930103,24.5302495 C7.34177077,24.8320424 7.7593469,25.0004949 8.19375245,25 C8.63515806,25 9.07597773,24.8259649 9.40566475,24.4831773 L22.6199033,10.6400244 C23.0124808,10.2306324 23.3675584,9.67455464 23.2691211,9.15636906 C23.2718554,9.11457045 23.2687304,9.07296716 23.2691211,9.02804342 L23.1146291,2.88735879 C23.1183122,2.59624806 23.0497989,2.30876172 22.9152153,2.0506053 C23.3099413,1.28006549 23.6851361,0.550347698 24.542752,0.780630696 C25.0023217,0.904854604 25.1966573,0.194082907 24.7390408,0.0712262435 Z M8.52812889,13.4245632 L9.32781975,14.170287 L8.29716074,16.7269943 L10.7727157,15.5176743 L11.5754357,16.2662228 L7.51909394,18.1808206 L6.90418013,17.6074042 L8.52812889,13.4245632 Z M10.8555796,8.86713434 L14.7160332,15.2007265 L13.8468014,16.1328635 L9.99486962,9.79013275 L10.8555796,8.86713434 Z M17.1802579,6.51873344 L17.7982008,7.09497455 L16.1742521,11.2778156 L15.3745612,10.5320918 L16.4052202,7.97538454 L13.9296652,9.1847045 L13.1269453,8.43615601 L17.1802579,6.51873344 Z M21.1763507,2.2398705 C21.4058425,2.2398705 21.6355297,2.32542139 21.8136544,2.49691289 C21.8259591,2.50882745 21.8343575,2.52289053 21.8460763,2.53539105 C21.6548656,2.73520403 21.419905,2.85845134 21.1132648,2.82387959 C20.6425624,2.7709477 20.6474452,3.50808768 21.1132648,3.56062893 C21.5214674,3.60652927 21.8320138,3.4873837 22.0857244,3.27643744 C22.062433,3.47297911 21.9760108,3.65665988 21.8394357,3.79989667 C21.6663502,3.98098016 21.4266486,4.08326003 21.1761554,4.0829171 C20.9384391,4.08306483 20.7099506,3.99090921 20.5388516,3.82587432 C20.1727885,3.47281343 20.1612599,2.89015669 20.5130704,2.52289053 C20.686209,2.34188379 20.9258761,2.23961864 21.1763507,2.2398705 Z" id="Shape"></path>
        </g>
    </g>
</svg>