<svg width="800" height="600" viewBox="0 0 800 600" fill="none" xmlns="http://www.w3.org/2000/svg">
<g clip-path="url(#clip0_5189_12431)">
<rect width="800" height="600" fill="url(#paint0_linear_5189_12431)"/>
<path d="M331.668 110.566C331.668 126.842 333.003 139.31 335.672 147.969C338.341 156.562 343.81 160.859 352.078 160.859C360.346 160.859 365.75 156.562 368.289 147.969C370.893 139.31 372.195 126.842 372.195 110.566C372.195 93.5091 370.893 80.8789 368.289 72.6758C365.75 64.4727 360.346 60.3711 352.078 60.3711C343.81 60.3711 338.341 64.4727 335.672 72.6758C333.003 80.8789 331.668 93.5091 331.668 110.566ZM352.078 37.4219C370.112 37.4219 382.742 43.7695 389.969 56.4648C397.26 69.1602 400.906 87.194 400.906 110.566C400.906 133.939 397.26 151.94 389.969 164.57C382.742 177.201 370.112 183.516 352.078 183.516C334.044 183.516 321.382 177.201 314.09 164.57C306.863 151.94 303.25 133.939 303.25 110.566C303.25 87.194 306.863 69.1602 314.09 56.4648C321.382 43.7695 334.044 37.4219 352.078 37.4219ZM512.918 149.531H496.902V180H469.656V149.531H413.602V125.215L465.652 39.2773H496.902V127.754H512.918V149.531ZM469.656 127.754V66.6211L434.207 127.754H469.656Z" fill="white" fill-opacity="0.5"/>
<path d="M303.094 323.422H315.125V370.648H343.641V381H303.094V323.422ZM374.578 360.297C373.875 360.74 373.159 361.104 372.43 361.391C371.727 361.651 370.75 361.898 369.5 362.133L367 362.602C364.656 363.018 362.977 363.526 361.961 364.125C360.242 365.141 359.383 366.716 359.383 368.852C359.383 370.753 359.904 372.133 360.945 372.992C362.013 373.826 363.302 374.242 364.812 374.242C367.208 374.242 369.409 373.539 371.414 372.133C373.445 370.727 374.5 368.161 374.578 364.438V360.297ZM367.82 355.102C369.878 354.841 371.349 354.516 372.234 354.125C373.823 353.448 374.617 352.393 374.617 350.961C374.617 349.216 374.005 348.018 372.781 347.367C371.583 346.69 369.812 346.352 367.469 346.352C364.839 346.352 362.977 347.003 361.883 348.305C361.102 349.268 360.581 350.57 360.32 352.211H349.578C349.812 348.487 350.854 345.427 352.703 343.031C355.646 339.281 360.698 337.406 367.859 337.406C372.521 337.406 376.661 338.331 380.281 340.18C383.901 342.029 385.711 345.518 385.711 350.648V370.18C385.711 371.534 385.737 373.174 385.789 375.102C385.867 376.56 386.089 377.549 386.453 378.07C386.818 378.591 387.365 379.021 388.094 379.359V381H375.984C375.646 380.141 375.411 379.333 375.281 378.578C375.151 377.823 375.047 376.964 374.969 376C373.432 377.667 371.661 379.086 369.656 380.258C367.26 381.638 364.552 382.328 361.531 382.328C357.677 382.328 354.487 381.234 351.961 379.047C349.461 376.833 348.211 373.708 348.211 369.672C348.211 364.438 350.229 360.648 354.266 358.305C356.479 357.029 359.734 356.117 364.031 355.57L367.82 355.102ZM406.727 338.422V364.086C406.727 366.508 407.013 368.331 407.586 369.555C408.602 371.716 410.594 372.797 413.562 372.797C417.365 372.797 419.969 371.26 421.375 368.188C422.104 366.521 422.469 364.32 422.469 361.586V338.422H433.758V381H422.938V374.984C422.833 375.115 422.573 375.505 422.156 376.156C421.74 376.807 421.245 377.38 420.672 377.875C418.927 379.438 417.234 380.505 415.594 381.078C413.979 381.651 412.078 381.938 409.891 381.938C403.589 381.938 399.344 379.672 397.156 375.141C395.932 372.641 395.32 368.956 395.32 364.086V338.422H406.727ZM468.133 337.406C472.534 337.406 476.128 338.565 478.914 340.883C481.727 343.174 483.133 346.99 483.133 352.328V381H471.727V355.102C471.727 352.862 471.427 351.143 470.828 349.945C469.734 347.758 467.651 346.664 464.578 346.664C460.802 346.664 458.211 348.266 456.805 351.469C456.076 353.161 455.711 355.323 455.711 357.953V381H444.617V338.5H455.359V344.711C456.792 342.523 458.146 340.948 459.422 339.984C461.714 338.266 464.617 337.406 468.133 337.406ZM518.875 353.695C518.667 352.107 518.133 350.674 517.273 349.398C516.023 347.68 514.083 346.82 511.453 346.82C507.703 346.82 505.138 348.682 503.758 352.406C503.029 354.385 502.664 357.016 502.664 360.297C502.664 363.422 503.029 365.935 503.758 367.836C505.086 371.378 507.586 373.148 511.258 373.148C513.862 373.148 515.711 372.445 516.805 371.039C517.898 369.633 518.562 367.81 518.797 365.57H530.164C529.904 368.956 528.68 372.159 526.492 375.18C523.003 380.049 517.833 382.484 510.984 382.484C504.135 382.484 499.096 380.453 495.867 376.391C492.638 372.328 491.023 367.055 491.023 360.57C491.023 353.253 492.807 347.562 496.375 343.5C499.943 339.438 504.865 337.406 511.141 337.406C516.479 337.406 520.841 338.604 524.227 341C527.638 343.396 529.656 347.628 530.281 353.695H518.875ZM561.453 337.328C564.083 337.328 566.466 337.784 568.602 338.695C570.763 339.607 572.534 341 573.914 342.875C575.086 344.464 575.802 346.104 576.062 347.797C576.323 349.464 576.453 352.198 576.453 356V381H565.086V355.102C565.086 352.81 564.695 350.961 563.914 349.555C562.898 347.576 560.971 346.586 558.133 346.586C555.19 346.586 552.951 347.576 551.414 349.555C549.904 351.508 549.148 354.307 549.148 357.953V381H538.055V323.617H549.148V343.969C550.763 341.495 552.625 339.776 554.734 338.812C556.87 337.823 559.109 337.328 561.453 337.328ZM341.805 433.391C340.893 429.458 338.667 426.711 335.125 425.148C333.146 424.289 330.945 423.859 328.523 423.859C323.888 423.859 320.073 425.617 317.078 429.133C314.109 432.622 312.625 437.883 312.625 444.914C312.625 451.997 314.24 457.01 317.469 459.953C320.698 462.896 324.37 464.367 328.484 464.367C332.521 464.367 335.828 463.208 338.406 460.891C340.984 458.547 342.573 455.487 343.172 451.711H329.852V442.102H353.836V473H345.867L344.656 465.812C342.339 468.547 340.255 470.474 338.406 471.594C335.229 473.547 331.323 474.523 326.688 474.523C319.057 474.523 312.807 471.88 307.938 466.594C302.859 461.281 300.32 454.016 300.32 444.797C300.32 435.474 302.885 428 308.016 422.375C313.146 416.75 319.93 413.938 328.367 413.938C335.685 413.938 341.557 415.799 345.984 419.523C350.438 423.221 352.99 427.844 353.641 433.391H341.805ZM375.906 425.344H364.617V415.07H375.906V425.344ZM364.617 430.422H375.906V473H364.617V430.422ZM382.352 438.742V430.812H388.289V418.938H399.305V430.812H406.219V438.742H399.305V461.242C399.305 462.987 399.526 464.081 399.969 464.523C400.411 464.94 401.766 465.148 404.031 465.148C404.37 465.148 404.721 465.148 405.086 465.148C405.477 465.122 405.854 465.096 406.219 465.07V473.391L400.945 473.586C395.685 473.768 392.091 472.857 390.164 470.852C388.914 469.576 388.289 467.609 388.289 464.953V438.742H382.352ZM468.953 433.742C468.953 430.747 468.159 428.612 466.57 427.336C465.008 426.06 462.807 425.422 459.969 425.422H448.758V442.375H459.969C462.807 442.375 465.008 441.685 466.57 440.305C468.159 438.924 468.953 436.737 468.953 433.742ZM480.867 433.664C480.867 440.461 479.148 445.266 475.711 448.078C472.273 450.891 467.365 452.297 460.984 452.297H448.758V473H436.805V415.422H461.883C467.664 415.422 472.273 416.906 475.711 419.875C479.148 422.844 480.867 427.44 480.867 433.664ZM512.117 429.406C512.326 429.406 512.495 429.419 512.625 429.445C512.781 429.445 513.107 429.458 513.602 429.484V440.891C512.898 440.812 512.273 440.76 511.727 440.734C511.18 440.708 510.737 440.695 510.398 440.695C505.919 440.695 502.911 442.154 501.375 445.07C500.516 446.711 500.086 449.237 500.086 452.648V473H488.875V430.422H499.5V437.844C501.219 435.005 502.716 433.065 503.992 432.023C506.076 430.279 508.784 429.406 512.117 429.406ZM539.266 465.148C542.521 465.148 545.021 463.99 546.766 461.672C548.51 459.354 549.383 456.06 549.383 451.789C549.383 447.518 548.51 444.237 546.766 441.945C545.021 439.628 542.521 438.469 539.266 438.469C536.01 438.469 533.497 439.628 531.727 441.945C529.982 444.237 529.109 447.518 529.109 451.789C529.109 456.06 529.982 459.354 531.727 461.672C533.497 463.99 536.01 465.148 539.266 465.148ZM561.062 451.789C561.062 458.039 559.266 463.391 555.672 467.844C552.078 472.271 546.622 474.484 539.305 474.484C531.987 474.484 526.531 472.271 522.938 467.844C519.344 463.391 517.547 458.039 517.547 451.789C517.547 445.643 519.344 440.318 522.938 435.812C526.531 431.307 531.987 429.055 539.305 429.055C546.622 429.055 552.078 431.307 555.672 435.812C559.266 440.318 561.062 445.643 561.062 451.789ZM580.711 425.344H569.578V415.07H580.711V425.344ZM564.227 481.164C564.852 481.216 565.294 481.242 565.555 481.242C565.815 481.268 566.049 481.281 566.258 481.281C567.352 481.281 568.172 481.008 568.719 480.461C569.292 479.94 569.578 478.911 569.578 477.375V430.617H580.711V477.57C580.711 481.867 579.865 485.044 578.172 487.102C576.479 489.159 573.159 490.188 568.211 490.188C567.872 490.188 567.365 490.174 566.688 490.148C566.036 490.122 565.216 490.096 564.227 490.07V481.164ZM608.133 438.469C605.555 438.469 603.549 439.276 602.117 440.891C600.711 442.505 599.826 444.693 599.461 447.453H616.766C616.583 444.51 615.685 442.284 614.07 440.773C612.482 439.237 610.503 438.469 608.133 438.469ZM608.133 429.289C611.674 429.289 614.865 429.953 617.703 431.281C620.542 432.609 622.885 434.706 624.734 437.57C626.401 440.096 627.482 443.026 627.977 446.359C628.263 448.312 628.38 451.125 628.328 454.797H599.188C599.344 459.068 600.685 462.062 603.211 463.781C604.747 464.849 606.596 465.383 608.758 465.383C611.049 465.383 612.911 464.732 614.344 463.43C615.125 462.727 615.815 461.75 616.414 460.5H627.781C627.495 463.026 626.18 465.591 623.836 468.195C620.19 472.336 615.086 474.406 608.523 474.406C603.107 474.406 598.328 472.661 594.188 469.172C590.047 465.682 587.977 460.005 587.977 452.141C587.977 444.771 589.839 439.12 593.562 435.188C597.312 431.255 602.169 429.289 608.133 429.289ZM661.297 445.695C661.089 444.107 660.555 442.674 659.695 441.398C658.445 439.68 656.505 438.82 653.875 438.82C650.125 438.82 647.56 440.682 646.18 444.406C645.451 446.385 645.086 449.016 645.086 452.297C645.086 455.422 645.451 457.935 646.18 459.836C647.508 463.378 650.008 465.148 653.68 465.148C656.284 465.148 658.133 464.445 659.227 463.039C660.32 461.633 660.984 459.81 661.219 457.57H672.586C672.326 460.956 671.102 464.159 668.914 467.18C665.424 472.049 660.255 474.484 653.406 474.484C646.557 474.484 641.518 472.453 638.289 468.391C635.06 464.328 633.445 459.055 633.445 452.57C633.445 445.253 635.229 439.562 638.797 435.5C642.365 431.438 647.286 429.406 653.562 429.406C658.901 429.406 663.263 430.604 666.648 433C670.06 435.396 672.078 439.628 672.703 445.695H661.297ZM676.023 438.742V430.812H681.961V418.938H692.977V430.812H699.891V438.742H692.977V461.242C692.977 462.987 693.198 464.081 693.641 464.523C694.083 464.94 695.438 465.148 697.703 465.148C698.042 465.148 698.393 465.148 698.758 465.148C699.148 465.122 699.526 465.096 699.891 465.07V473.391L694.617 473.586C689.357 473.768 685.763 472.857 683.836 470.852C682.586 469.576 681.961 467.609 681.961 464.953V438.742H676.023Z" fill="white" fill-opacity="0.8"/>
<circle cx="73" cy="300" r="173" fill="white"/>
<circle cx="132.5" cy="111.5" r="19.5" fill="white"/>
<circle cx="172" cy="76" r="10" fill="white"/>
<circle cx="212.5" cy="60.5" r="7.5" fill="white"/>
<circle cx="246.5" cy="56.5" r="5.5" fill="white"/>
<circle cx="270.5" cy="62.5" r="4.5" fill="white"/>
<circle cx="288.5" cy="76.5" r="3.5" fill="white"/>
<path d="M42.1621 368.176C41.752 366.406 40.75 365.17 39.1562 364.467C38.2656 364.08 37.2754 363.887 36.1855 363.887C34.0996 363.887 32.3828 364.678 31.0352 366.26C29.6992 367.83 29.0312 370.197 29.0312 373.361C29.0312 376.549 29.7578 378.805 31.2109 380.129C32.6641 381.453 34.3164 382.115 36.168 382.115C37.9844 382.115 39.4727 381.594 40.6328 380.551C41.793 379.496 42.5078 378.119 42.7773 376.42H36.7832V372.096H47.5762V386H43.9902L43.4453 382.766C42.4023 383.996 41.4648 384.863 40.6328 385.367C39.2031 386.246 37.4453 386.686 35.3594 386.686C31.9258 386.686 29.1133 385.496 26.9219 383.117C24.6367 380.727 23.4941 377.457 23.4941 373.309C23.4941 369.113 24.6484 365.75 26.957 363.219C29.2656 360.688 32.3184 359.422 36.1152 359.422C39.4082 359.422 42.0508 360.26 44.043 361.936C46.0469 363.6 47.1953 365.68 47.4883 368.176H42.1621ZM57.5078 364.555H52.4277V359.932H57.5078V364.555ZM52.4277 366.84H57.5078V386H52.4277V366.84ZM60.4082 370.584V367.016H63.0801V361.672H68.0371V367.016H71.1484V370.584H68.0371V380.709C68.0371 381.494 68.1367 381.986 68.3359 382.186C68.5352 382.373 69.1445 382.467 70.1641 382.467C70.3164 382.467 70.4746 382.467 70.6387 382.467C70.8145 382.455 70.9844 382.443 71.1484 382.432V386.176L68.7754 386.264C66.4082 386.346 64.791 385.936 63.9238 385.033C63.3613 384.459 63.0801 383.574 63.0801 382.379V370.584H60.4082ZM74.7344 386V360.09H80.0957V369.969H90.2207V360.09H95.5996V386H90.2207V374.434H80.0957V386H74.7344ZM105.373 366.84V378.389C105.373 379.479 105.502 380.299 105.76 380.85C106.217 381.822 107.113 382.309 108.449 382.309C110.16 382.309 111.332 381.617 111.965 380.234C112.293 379.484 112.457 378.494 112.457 377.264V366.84H117.537V386H112.668V383.293C112.621 383.352 112.504 383.527 112.316 383.82C112.129 384.113 111.906 384.371 111.648 384.594C110.863 385.297 110.102 385.777 109.363 386.035C108.637 386.293 107.781 386.422 106.797 386.422C103.961 386.422 102.051 385.402 101.066 383.363C100.516 382.238 100.24 380.58 100.24 378.389V366.84H105.373ZM132.742 366.418C135.262 366.418 137.23 367.326 138.648 369.143C140.078 370.959 140.793 373.303 140.793 376.174C140.793 379.15 140.09 381.617 138.684 383.574C137.277 385.531 135.314 386.51 132.795 386.51C131.213 386.51 129.941 386.193 128.98 385.561C128.406 385.186 127.785 384.529 127.117 383.592V386H122.213V360.125H127.205V369.336C127.838 368.445 128.535 367.766 129.297 367.297C130.199 366.711 131.348 366.418 132.742 366.418ZM131.459 382.379C132.748 382.379 133.75 381.857 134.465 380.814C135.18 379.771 135.537 378.4 135.537 376.701C135.537 375.342 135.361 374.217 135.01 373.326C134.342 371.639 133.111 370.795 131.318 370.795C129.502 370.795 128.254 371.621 127.574 373.273C127.223 374.152 127.047 375.289 127.047 376.684C127.047 378.324 127.41 379.684 128.137 380.762C128.863 381.84 129.971 382.379 131.459 382.379Z" fill="#363636"/>
<path fill-rule="evenodd" clip-rule="evenodd" d="M97.5328 219.551C97.5328 221.853 98.843 223.186 101.107 223.186C103.41 223.186 104.72 221.853 104.719 219.551C104.719 217.252 103.41 216 101.107 216C98.843 216 97.5328 217.253 97.5328 219.551ZM90.4686 230.52C91.1828 231.449 91.9384 232.741 91.9384 234.598C91.9384 239.078 88.4841 241.702 83.4826 241.702C82.2107 241.702 81.0592 241.542 80.3451 241.34L79.0349 243.479L82.9248 243.72L83.1521 243.735C89.8828 244.171 93.8423 244.427 93.8423 249.734C93.8423 254.378 89.8334 257 82.9248 257C75.7385 257 73 255.143 73 251.955C73 250.138 73.7948 249.171 75.184 247.837C73.873 247.274 73.4373 246.265 73.4373 245.175C73.4373 244.286 73.8737 243.479 74.5887 242.712C75.3037 241.946 76.0976 241.177 77.0496 240.29C75.1042 239.321 73.636 237.222 73.636 234.234C73.636 229.592 76.653 226.405 82.7269 226.405C84.4345 226.405 85.4679 226.564 86.3799 226.809H94.1224V230.239L90.4686 230.52ZM79.2742 234.114C79.2742 231.489 80.9004 230.399 83.0844 230.399C85.3474 230.399 86.6983 231.651 86.6983 234.032C86.6983 236.132 85.1886 237.464 82.9671 237.464C80.3459 237.464 79.2742 236.091 79.2742 234.114ZM77.6863 251.069C77.6863 250.26 78.2018 249.575 78.7189 248.93L84.5135 249.332L84.5862 249.337C86.4581 249.456 87.9295 249.55 87.9295 250.827C87.9295 253.004 84.7928 253.168 82.4908 253.168C79.7099 253.168 77.6863 252.683 77.6863 251.069ZM95.984 247.445V244.257L98.01 243.975C98.5653 243.894 98.6443 243.773 98.6443 243.166V231.299C98.6443 230.856 98.5262 230.572 98.1281 230.451L95.984 229.684L96.4205 226.416H104.64V243.167C104.64 243.814 104.678 243.894 105.275 243.976L107.3 244.258V247.446H95.984V247.445ZM116.527 247.494C118.792 247.494 121.292 246.725 123 245.879L121.928 242.327C120.976 242.69 119.826 242.972 118.713 242.972C116.569 242.972 116.013 242.044 116.013 239.663V230.016H121.928V225.979H116.331C116.013 225.979 116.013 225.857 116.013 225.575V219.842H112.241C111.804 224.242 110.416 226.018 106.921 226.422V230.015H109.699C110.017 230.015 110.017 230.177 110.017 230.418V240.994C110.017 245.558 111.803 247.494 116.527 247.494Z" fill="#31251C"/>
<path d="M63.2074 235.129L44.8697 216.792C43.8146 215.736 42.1016 215.736 41.0456 216.792L37.2377 220.6L42.067 225.43C43.1906 225.051 44.4772 225.305 45.3719 226.201C46.2715 227.101 46.5238 228.399 46.1353 229.526L50.7904 234.181C51.9157 233.793 53.216 234.044 54.1155 234.944C55.373 236.201 55.373 238.238 54.1155 239.496C52.8572 240.753 50.8211 240.753 49.5636 239.496C48.618 238.549 48.3843 237.16 48.8631 235.996L44.5215 231.654L44.5207 243.08C44.8278 243.231 45.1164 243.433 45.3719 243.687C46.6294 244.944 46.6294 246.98 45.3719 248.239C44.1144 249.496 42.0766 249.496 40.8207 248.239C39.5632 246.98 39.5632 244.944 40.8207 243.687C41.1319 243.377 41.4906 243.142 41.8743 242.985V231.454C41.4906 231.298 41.1319 231.064 40.8207 230.752C39.8679 229.8 39.639 228.403 40.1275 227.233L35.3668 222.471L22.7926 235.044C21.7358 236.101 21.7358 237.814 22.7926 238.871L41.1303 257.208C42.1863 258.264 43.8984 258.264 44.956 257.208L63.2074 238.955C64.2642 237.899 64.2642 236.185 63.2074 235.129V235.129Z" fill="#F34F29"/>
<path d="M84.4999 291C70.5231 291.001 58.6095 301.212 56.3706 315.111C54.1317 329.009 62.2284 342.492 75.4877 346.945C76.9125 347.196 77.4469 346.335 77.4469 345.581C77.4469 344.9 77.4112 342.639 77.4112 340.235C70.2512 341.562 68.3989 338.476 67.829 336.861C67.1965 335.291 66.194 333.899 64.908 332.806C63.9106 332.268 62.4857 330.94 64.8723 330.904C66.7218 331.107 68.3572 332.205 69.2538 333.847C70.041 335.272 71.3586 336.322 72.9158 336.766C74.473 337.211 76.1417 337.012 77.5536 336.215C77.677 334.756 78.3226 333.391 79.3704 332.376C73.0297 331.658 66.4041 329.182 66.4041 318.201C66.3641 315.348 67.4092 312.587 69.3251 310.486C68.4539 308.006 68.5558 305.285 69.61 302.878C69.61 302.878 71.9966 302.124 77.4468 305.821C82.1098 304.529 87.0325 304.529 91.6954 305.821C97.1455 302.089 99.5322 302.878 99.5322 302.878C100.587 305.285 100.689 308.006 99.8172 310.486C101.739 312.584 102.785 315.347 102.738 318.201C102.738 329.218 96.0768 331.658 89.7362 332.376C91.1124 333.781 91.8143 335.719 91.6598 337.687C91.6598 341.527 91.6242 344.613 91.6242 345.582C91.6242 346.335 92.1585 347.232 93.5833 346.945C106.818 342.456 114.878 328.971 112.623 315.087C110.369 301.203 98.4648 291.007 84.4999 291Z" fill="black"/>
<path d="M741.435 592.713C741.435 593.599 742.138 594.276 742.998 594.276C743.883 594.276 744.587 593.599 744.587 592.713V576.563C744.587 575.703 743.883 575 742.998 575C742.112 575 741.435 575.703 741.435 576.563V592.713Z" fill="white"/>
<path d="M748.654 576.849C748.654 577.787 749.435 578.412 750.451 578.412C751.467 578.412 752.248 577.787 752.248 576.849V576.693C752.248 575.755 751.467 575.156 750.451 575.156C749.435 575.156 748.654 575.755 748.654 576.693V576.849ZM748.888 592.713C748.888 593.599 749.591 594.276 750.451 594.276C751.337 594.276 752.04 593.599 752.04 592.713V581.825C752.04 580.939 751.337 580.236 750.451 580.236C749.565 580.236 748.888 580.939 748.888 581.825V592.713Z" fill="white"/>
<path d="M756.159 592.713C756.159 593.573 756.863 594.276 757.722 594.276C758.608 594.276 759.311 593.573 759.311 592.713V592.01C760.275 593.287 761.708 594.433 764 594.433C767.256 594.433 770.382 591.854 770.382 587.295V587.243C770.382 582.658 767.23 580.106 764 580.106C761.76 580.106 760.327 581.252 759.311 582.685V576.563C759.311 575.677 758.608 575 757.722 575C756.837 575 756.159 575.677 756.159 576.563V592.713ZM763.245 591.698C761.109 591.698 759.233 589.926 759.233 587.295V587.243C759.233 584.612 761.109 582.841 763.245 582.841C765.381 582.841 767.178 584.586 767.178 587.243V587.295C767.178 590.004 765.407 591.698 763.245 591.698Z" fill="white"/>
<path d="M773.818 592.713C773.818 593.599 774.521 594.276 775.381 594.276C776.267 594.276 776.97 593.599 776.97 592.713V576.563C776.97 575.703 776.267 575 775.381 575C774.495 575 773.818 575.703 773.818 576.563V592.713Z" fill="white"/>
<path d="M787.628 594.459C791.874 594.459 795 591.203 795 587.295V587.243C795 583.31 791.9 580.106 787.68 580.106C783.46 580.106 780.334 583.362 780.334 587.295V587.347C780.334 591.255 783.434 594.459 787.628 594.459ZM787.68 591.698C785.231 591.698 783.486 589.692 783.486 587.295V587.243C783.486 584.847 785.101 582.867 787.628 582.867C790.102 582.867 791.848 584.873 791.848 587.295V587.347C791.848 589.718 790.233 591.698 787.68 591.698Z" fill="white"/>
<path d="M736.96 590.09C735.74 590.65 734.453 591.047 733.208 591.294C728.074 592.315 725.36 589.099 729.634 586.781C730.099 586.529 730.632 586.291 731.228 586.075L732.011 585.826C732.241 585.763 732.463 585.662 732.534 585.515C732.905 584.723 729.731 584.467 727.622 585.589C728.458 585.431 729.186 585.408 729.668 585.609C724.878 586.845 723.788 590.757 726.335 592.642C727.649 593.615 729.127 593.873 731.832 593.682C733.637 593.555 735.48 592.837 736.96 591.969V590.09Z" fill="white"/>
<path d="M734.542 592.784C734.542 593.607 735.171 594.165 736.03 594.165C736.89 594.165 737.478 593.644 737.478 592.784V586.011C737.478 584.214 737.009 582.755 735.993 581.765C735.029 580.776 733.492 580.229 731.434 580.229C729.637 580.229 728.308 580.541 727.006 581.036C726.537 581.218 726.146 581.713 726.146 582.286C726.146 583.016 726.745 583.589 727.475 583.589C727.631 583.589 727.787 583.563 727.97 583.511C728.829 583.172 729.819 582.964 731.018 582.964C733.232 582.964 734.43 584.006 734.43 585.959V585.968L734.542 592.784Z" fill="white"/>
<path d="M733.611 578.379C733.611 578.591 733.273 578.721 732.805 578.721C732.077 578.721 731.583 578.64 730.984 578.282L729.216 577.24C728.956 577.093 728.774 576.93 728.774 576.751C728.774 576.442 729.814 576.116 730.646 576.116C731.192 576.116 731.609 576.296 731.895 576.589L733.377 578.021C733.481 578.119 733.611 578.266 733.611 578.379Z" fill="white"/>
</g>
<defs>
<linearGradient id="paint0_linear_5189_12431" x1="800" y1="-1.86968e-05" x2="1.22566" y2="601.627" gradientUnits="userSpaceOnUse">
<stop stop-color="#0087B1"/>
<stop offset="1" stop-color="#001B23"/>
</linearGradient>
<clipPath id="clip0_5189_12431">
<rect width="800" height="600" fill="white"/>
</clipPath>
</defs>
</svg>
