<?xml version="1.0" encoding="UTF-8"?>
<svg width="800px" height="600px" viewBox="0 0 800 600" version="1.1" xmlns="http://www.w3.org/2000/svg" xmlns:xlink="http://www.w3.org/1999/xlink">
    <title>2041-10-15-12-10_EditAndCommitCodesOverveiw(1)</title>
    <defs>
        <linearGradient x1="77.8761746%" y1="0%" x2="22.1238254%" y2="100%" id="linearGradient-1">
            <stop stop-color="#00A5FF" offset="0.0491695804%"></stop>
            <stop stop-color="#0755C2" offset="100%"></stop>
        </linearGradient>
        <circle id="path-2" cx="234.5" cy="315.5" r="28.5"></circle>
        <mask id="mask-3" maskContentUnits="userSpaceOnUse" maskUnits="objectBoundingBox" x="0" y="0" width="57" height="57" fill="white">
            <use xlink:href="#path-2"></use>
        </mask>
        <circle id="path-4" cx="397.5" cy="315.5" r="28.5"></circle>
        <mask id="mask-5" maskContentUnits="userSpaceOnUse" maskUnits="objectBoundingBox" x="0" y="0" width="57" height="57" fill="white">
            <use xlink:href="#path-4"></use>
        </mask>
        <circle id="path-6" cx="560.5" cy="315.5" r="28.5"></circle>
        <mask id="mask-7" maskContentUnits="userSpaceOnUse" maskUnits="objectBoundingBox" x="0" y="0" width="57" height="57" fill="white">
            <use xlink:href="#path-6"></use>
        </mask>
        <circle id="path-8" cx="687.5" cy="315.5" r="28.5"></circle>
        <mask id="mask-9" maskContentUnits="userSpaceOnUse" maskUnits="objectBoundingBox" x="0" y="0" width="57" height="57" fill="white">
            <use xlink:href="#path-8"></use>
        </mask>
        <path d="M8.68744595,14.5405413 C10.6544909,13.5649687 12,11.5915112 12,9.31636202 C12,6.07252388 9.26504479,3.44227578 5.89152197,3.44227578 C4.52034181,3.44227578 3.25480793,3.87689217 2.23537065,4.61058921 L2.23537065,1.05770107 C2.23537065,0.476155373 1.74046224,0 1.11695169,0 C0.493934821,0 0.0167986821,0.476630104 0.0167986821,1.05770107 L0.0167986821,1.80184219 L0,9.32158406 C-0.0041824725,11.2003327 0.951817666,12.865215 2.41753644,13.8939574 C2.4777647,13.9362085 2.55848043,13.9312238 2.6127846,13.8823265 C2.66758244,13.8334292 2.6779496,13.7558106 2.63746831,13.6950451 C0.724974359,10.8146136 1.16014819,5.53963813 5.89176881,5.53963813 C8.05899866,5.53963813 9.80709909,7.22944376 9.81623206,9.31351363 C9.82240299,10.8599505 9.11620201,12.0365717 8.19549958,12.7781018 C6.36026565,14.2561773 3.64974731,12.6382934 4.49738595,10.4697214 C4.5894562,10.2335427 4.71879884,9.9959397 4.88664808,9.76189723 L5.12361171,9.47705853 C5.19766284,9.39967734 5.25048599,9.29903433 5.2146946,9.19411874 C5.01401603,8.62800181 3.46832203,8.97526767 3.04005964,10.0315445 C3.34292878,9.79631524 3.65986763,9.66433998 3.96940137,9.71489885 C2.38890334,11.275815 3.44141679,13.9563846 5.46005069,14.7513219 C6.40494316,15.1232738 7.55964718,15.0976383 8.68744595,14.5405413" id="path-10"></path>
        <linearGradient x1="28.568518%" y1="104.445731%" x2="78.3472072%" y2="20.6880271%" id="linearGradient-12">
            <stop stop-color="#000F98" offset="0%"></stop>
            <stop stop-color="#00A5FD" offset="100%"></stop>
        </linearGradient>
    </defs>
    <g id="2041-10-15-12-10_EditAndCommitCodesOverveiw(1)" stroke="none" stroke-width="1" fill="none" fill-rule="evenodd">
        <rect fill="#FFFFFF" x="0" y="0" width="800" height="600"></rect>
        <line x1="317.5" y1="56.5" x2="317.5" y2="549.5" id="Line-14-Copy" stroke="#0055C2" stroke-linecap="square"></line>
        <line x1="478.5" y1="56.5" x2="478.5" y2="549.5" id="Line-14-Copy-2" stroke="#0055C2" stroke-linecap="square"></line>
        <rect id="Rectangle" fill="#E1EDFF" x="48" y="88" width="714" height="132"></rect>
        <rect id="Rectangle-Copy-3" fill="#D3E6FF" x="48" y="243" width="714" height="132"></rect>
        <rect id="Rectangle-Copy-4" fill="#C5DDFF" x="48" y="399" width="714" height="132"></rect>
        <text id="Working-Tree" font-family="Helvetica-Bold, Helvetica" font-size="21" font-weight="bold" fill="#0055C2">
            <tspan x="64.6896973" y="149">Working </tspan>
            <tspan x="84.8950195" y="174">Tree</tspan>
        </text>
        <text id="Edit" font-family="Helvetica" font-size="21" font-weight="normal" fill="#0055C2">
            <tspan x="305" y="150">Edit</tspan>
        </text>
        <text id="Edit-Copy" font-family="Helvetica" font-size="21" font-weight="normal" fill="#0055C2">
            <tspan x="468" y="150">Edit</tspan>
        </text>
        <text id="Staging-Area-(INDEX)" font-family="Helvetica-Bold, Helvetica" font-size="21" font-weight="bold" fill="#0055C2">
            <tspan x="68.001709" y="292">Staging </tspan>
            <tspan x="83.1518555" y="317">Area</tspan>
            <tspan x="67.4172363" y="342">(INDEX)</tspan>
        </text>
        <text id="Local-Repository" font-family="Helvetica-Bold, Helvetica" font-size="21" font-weight="bold" fill="#0055C2">
            <tspan x="79.0759277" y="440">Local </tspan>
            <tspan x="51.6569824" y="465">Repository</tspan>
        </text>
        <g id="Group-Copy" transform="translate(91.000000, 473.000000)" fill-rule="nonzero">
            <path d="M29.8409724,4.77831559 C28.723879,1.63407551 21.8606409,0 15.0739161,0 C8.28719126,0 1.50046642,1.61858664 0.322162448,4.73184898 C0.202240913,4.91566728 0.138380555,5.13112554 0.13853066,5.35140368 L0.13853066,33.9515973 C0.131158753,34.0133281 0.131158753,34.0757329 0.13853066,34.1374637 C0.134826418,34.1916099 0.134826418,34.2459506 0.13853066,34.3000968 C0.13853066,38.0406583 7.65213132,40 15.0739161,40 C22.4957009,40 29.9939989,38.0406583 29.9939989,34.3000968 C29.9977,34.2485352 29.9977,34.1967697 29.9939989,34.1452081 C30.0020004,34.0809253 30.0020004,34.0158802 29.9939989,33.9515973 L29.9939989,5.35140368 C29.9979053,5.1495277 29.9448181,4.95071496 29.8409724,4.77831559 Z" id="Path" fill="url(#linearGradient-1)"></path>
            <path d="M14.9446711,0.185029437 C24.6241214,0.185029437 29.8848891,3.07837096 29.8848891,4.56522701 C29.8945554,4.6114965 29.8945554,4.65960607 29.8848891,4.70587556 C29.5679754,6.23291692 24.298153,8.96551724 14.9446711,8.96551724 C5.59118919,8.96551724 0.321366845,6.20277794 0.00445313009,4.70587556 C-0.0014843767,4.66933357 -0.0014843767,4.63190798 0.00445313009,4.59536599 C0.00445313009,3.07837096 5.2652208,0.185029437 14.9446711,0.185029437 Z" id="Path" fill="#7BB2FF"></path>
        </g>
        <g id="Group-2" transform="translate(278.000000, 126.000000)" fill-rule="nonzero">
            <g id="edit-(3)-copy">
                <path d="M15.8577435,5.74617584 L1.54464267,20.0598298 C1.41801007,20.1864672 1.33298533,20.3474777 1.29680459,20.521152 L0.0178154234,26.9181541 C-0.0418827981,27.2148476 0.0503780897,27.5223958 0.265653495,27.7358704 C0.437512011,27.9077355 0.669068749,28 0.906052599,28 L1.08333823,27.9819089 L7.47828408,26.7028703 C7.65556971,26.6684973 7.81476497,26.5816602 7.94139756,26.4550227 L22.2544984,12.1413688 L15.8577435,5.74617584 Z M26.6757849,1.32290943 C24.9119738,-0.440969811 22.0428411,-0.440969811 20.280839,1.32290943 L17.7771318,3.8267134 L24.1720777,10.2219063 L26.6757849,7.71810238 C27.5296504,6.86601302 28,5.72989388 28,4.52141046 C28,3.31292704 27.5296504,2.1768079 26.6757849,1.32290943 Z" id="Shape" fill="#42A5F5"></path>
                <path d="M18.970452,9.05108958 L0,27.7373454 C0.173504664,27.9082508 0.407279369,28 0.646533168,28 L0.825516926,27.98201 L7.28171678,26.710114 C7.46070054,26.675933 7.62142065,26.5895808 7.74926619,26.4636505 L22.1994651,12.2299299 L18.970452,9.05108958 Z M26.6631009,1.47368421 L20.9082252,7.1423462 L24.1372383,10.3229855 L26.6649273,7.83316378 C27.5251451,6.98583284 28,5.85605825 28,4.6543235 C28,3.45258875 27.5251451,2.32281416 26.6631009,1.47368421 L26.6631009,1.47368421 Z" id="Shape" fill="#1576ED"></path>
            </g>
        </g>
        <g id="Group-2-Copy" transform="translate(441.000000, 126.000000)" fill-rule="nonzero">
            <g id="edit-(3)-copy">
                <path d="M15.8577435,5.74617584 L1.54464267,20.0598298 C1.41801007,20.1864672 1.33298533,20.3474777 1.29680459,20.521152 L0.0178154234,26.9181541 C-0.0418827981,27.2148476 0.0503780897,27.5223958 0.265653495,27.7358704 C0.437512011,27.9077355 0.669068749,28 0.906052599,28 L1.08333823,27.9819089 L7.47828408,26.7028703 C7.65556971,26.6684973 7.81476497,26.5816602 7.94139756,26.4550227 L22.2544984,12.1413688 L15.8577435,5.74617584 Z M26.6757849,1.32290943 C24.9119738,-0.440969811 22.0428411,-0.440969811 20.280839,1.32290943 L17.7771318,3.8267134 L24.1720777,10.2219063 L26.6757849,7.71810238 C27.5296504,6.86601302 28,5.72989388 28,4.52141046 C28,3.31292704 27.5296504,2.1768079 26.6757849,1.32290943 Z" id="Shape" fill="#42A5F5"></path>
                <path d="M18.970452,9.05108958 L0,27.7373454 C0.173504664,27.9082508 0.407279369,28 0.646533168,28 L0.825516926,27.98201 L7.28171678,26.710114 C7.46070054,26.675933 7.62142065,26.5895808 7.74926619,26.4636505 L22.1994651,12.2299299 L18.970452,9.05108958 Z M26.6631009,1.47368421 L20.9082252,7.1423462 L24.1372383,10.3229855 L26.6649273,7.83316378 C27.5251451,6.98583284 28,5.85605825 28,4.6543235 C28,3.45258875 27.5251451,2.32281416 26.6631009,1.47368421 L26.6631009,1.47368421 Z" id="Shape" fill="#1576ED"></path>
            </g>
        </g>
        <circle id="Oval" stroke="#0055C2" stroke-width="6" fill="#7BB2FF" cx="234.5" cy="468.5" r="25.5"></circle>
        <circle id="Oval-Copy-2" stroke="#0055C2" stroke-width="6" fill="#7BB2FF" cx="397.5" cy="468.5" r="25.5"></circle>
        <circle id="Oval-Copy-5" stroke="#0055C2" stroke-width="6" fill="#7BB2FF" cx="688.5" cy="468.5" r="25.5"></circle>
        <use id="Oval-Copy" stroke="#0055C2" mask="url(#mask-3)" stroke-width="12" fill="#C5DDFF" stroke-dasharray="6,6" xlink:href="#path-2"></use>
        <use id="Oval-Copy-3" stroke="#0055C2" mask="url(#mask-5)" stroke-width="12" fill="#C5DDFF" stroke-dasharray="6,6" xlink:href="#path-4"></use>
        <use id="Oval-Copy-6" stroke="#0055C2" mask="url(#mask-7)" stroke-width="12" fill="#C5DDFF" stroke-dasharray="6,6" xlink:href="#path-6"></use>
        <use id="Oval-Copy-4" stroke="#0055C2" mask="url(#mask-9)" stroke-width="12" fill="#C5DDFF" stroke-dasharray="6,6" xlink:href="#path-8"></use>
        <g id="documents-copy-8" transform="translate(211.000000, 130.000000)" fill-rule="nonzero">
            <path d="M45.0816327,14.4915254 L45.0816327,56.0338983 L9.59183673,56.0338983 L9.59183673,51.2861985 C9.60344678,51.2720741 39.7890354,14.5102788 39.8043396,14.4915254 L45.0816327,14.4915254 Z" id="Path" fill="#A4C2F7"></path>
            <path d="M40.2857143,51.2033898 C39.0836785,51.2033898 1.6977088,51.2033898 0.959183673,51.2033898 C0.959183673,48.1498667 0.959183673,3.97085738 0.959183673,1.93220339 L29.4370162,1.93220339 L32.3752505,8.4626299 L40.2857143,11.3171913 C40.2857143,13.0734745 40.2857143,49.2082587 40.2857143,51.2033898 Z" id="Path" fill="#FFFFFF"></path>
            <polygon id="Path" fill="#A4C2F7" points="41.244898 10.6271186 30.6938776 10.6271186 30.6938776 0.966101695"></polygon>
            <path d="M40.8426596,52.1694915 L1.36142199,52.1694915 C0.609508624,52.1694915 0,51.6385484 0,50.9838213 L0,1.18567026 C0,0.530824576 0.609508624,0 1.36142199,0 L29.9512837,0 C30.3123329,0 30.6585425,0.124969646 30.9139452,0.34728282 L41.8053211,9.83264492 C42.0605878,10.0549581 42.2040816,10.3565926 42.2040816,10.6710324 L42.2040816,50.9838213 C42.2040816,51.6385484 41.5944369,52.1694915 40.8426596,52.1694915 Z M2.72284398,49.798151 L39.4812377,49.798151 L39.4812377,11.162137 L29.3872466,2.37134052 L2.72284398,2.37134052 L2.72284398,49.798151 Z" id="Shape" fill="#418CFE"></path>
            <path d="M40.3620507,11.875 L29.7413318,11.875 C29.0082367,11.875 28.413742,11.3433562 28.413742,10.6875 L28.413742,1.1875 C28.413742,0.53164375 29.0082367,0 29.7413318,0 C30.4744269,0 31.0689217,0.53164375 31.0689217,1.1875 L31.0689217,9.5 L40.3620507,9.5 C41.0951458,9.5 41.6896406,10.0316438 41.6896406,10.6875 C41.6896406,11.3433562 41.0951458,11.875 40.3620507,11.875 Z M45.6724101,57 L9.96024292,57 C9.22701504,57 8.63265306,56.4682375 8.63265306,55.8125 L8.63265306,51.0625 C8.63265306,50.4067625 9.22701504,49.875 9.96024292,49.875 C10.6934708,49.875 11.2878328,50.4067625 11.2878328,51.0625 L11.2878328,54.625 L44.3448203,54.625 L44.3448203,15.4375 L40.3620507,15.4375 C39.6289556,15.4375 39.0344608,14.9058563 39.0344608,14.25 C39.0344608,13.5941438 39.6289556,13.0625 40.3620507,13.0625 L45.6724101,13.0625 C46.4055053,13.0625 47,13.5941438 47,14.25 L47,55.8125 C47,56.4682375 46.4055053,57 45.6724101,57 Z" id="Shape" fill="#418CFE"></path>
            <path d="M35.0727595,44.440678 L6.17213842,44.440678 C5.41205209,44.440678 4.79591837,43.8900703 4.79591837,43.211094 C4.79591837,42.5321177 5.41205209,41.98151 6.17213842,41.98151 L35.0727595,41.98151 C35.8327083,41.98151 36.4489796,42.5321177 36.4489796,43.211094 C36.4489796,43.8900703 35.8327083,44.440678 35.0727595,44.440678 Z M35.0727595,39.5223421 L6.17213842,39.5223421 C5.41205209,39.5223421 4.79591837,38.9717344 4.79591837,38.2927581 C4.79591837,37.6137818 5.41205209,37.0631741 6.17213842,37.0631741 L35.0727595,37.0631741 C35.8327083,37.0631741 36.4489796,37.6137818 36.4489796,38.2927581 C36.4489796,38.9717344 35.8327083,39.5223421 35.0727595,39.5223421 Z M35.0727595,34.6040062 L6.17213842,34.6040062 C5.41205209,34.6040062 4.79591837,34.0533985 4.79591837,33.3744222 C4.79591837,32.6954459 5.41205209,32.1448382 6.17213842,32.1448382 L35.0727595,32.1448382 C35.8327083,32.1448382 36.4489796,32.6954459 36.4489796,33.3744222 C36.4489796,34.0533985 35.8327083,34.6040062 35.0727595,34.6040062 Z M35.0727595,29.6856703 L6.17213842,29.6856703 C5.41205209,29.6856703 4.79591837,29.1351855 4.79591837,28.4560863 C4.79591837,27.7769871 5.41205209,27.2265023 6.17213842,27.2265023 L35.0727595,27.2265023 C35.8327083,27.2265023 36.4489796,27.7769871 36.4489796,28.4560863 C36.4489796,29.1351855 35.8327083,29.6856703 35.0727595,29.6856703 Z M35.0727595,24.7673344 L6.17213842,24.7673344 C5.41205209,24.7673344 4.79591837,24.2168496 4.79591837,23.5377504 C4.79591837,22.8586512 5.41205209,22.3081664 6.17213842,22.3081664 L35.0727595,22.3081664 C35.8327083,22.3081664 36.4489796,22.8586512 36.4489796,23.5377504 C36.4489796,24.2168496 35.8327083,24.7673344 35.0727595,24.7673344 Z M18.5581189,19.8489985 L6.17213842,19.8489985 C5.41205209,19.8489985 4.79591837,19.2985137 4.79591837,18.6194145 C4.79591837,17.9403153 5.41205209,17.3898305 6.17213842,17.3898305 L18.5581189,17.3898305 C19.3182052,17.3898305 19.934339,17.9403153 19.934339,18.6194145 C19.934339,19.2985137 19.3182052,19.8489985 18.5581189,19.8489985 Z" id="Shape" fill="#418CFE"></path>
        </g>
        <g id="documents-copy-12" transform="translate(225.000000, 301.000000)" fill-rule="nonzero">
            <path d="M22,6.75 L22,26.0357143 L4.7826087,26.0357143 L4.7826087,23.8316327 C4.78824115,23.8250755 19.4323685,6.75870612 19.4397931,6.75 L22,6.75 Z" id="Path" fill="#A4C2F7"></path>
            <path d="M19.1304348,24.1071429 C18.5749397,24.1071429 1.29781529,24.1071429 0.956521739,24.1071429 C0.956521739,22.6728918 0.956521739,1.92184898 0.956521739,0.964285714 L14.1169415,0.964285714 L15.4747835,4.03165102 L19.1304348,5.37244898 C19.1304348,6.19738163 19.1304348,23.1700224 19.1304348,24.1071429 Z" id="Path" fill="#FFFFFF"></path>
            <polygon id="Path" fill="#A4C2F7" points="19.1304348 4.82142857 14.3478261 4.82142857 14.3478261 -2.84217094e-14"></polygon>
            <path d="M19.4389902,25.0714286 L0.647966339,25.0714286 C0.29009453,25.0714286 0,24.8162698 0,24.5016234 L0,0.569805195 C0,0.255101786 0.29009453,-2.84217094e-14 0.647966339,-2.84217094e-14 L14.2552595,-2.84217094e-14 C14.4271001,-2.84217094e-14 14.591878,0.0600574675 14.7134365,0.166895942 L19.8971672,4.7253375 C20.0186609,4.83217597 20.0869565,4.97713442 20.0869565,5.12824675 L20.0869565,24.5016234 C20.0869565,24.8162698 19.7967972,25.0714286 19.4389902,25.0714286 Z M1.29593268,23.9318182 L18.7910238,23.9318182 L18.7910238,5.36426006 L13.986807,1.13961039 L1.29593268,1.13961039 L1.29593268,23.9318182 Z" id="Shape" fill="#418CFE"></path>
            <path d="M18.8557244,5.625 L13.8248834,5.625 C13.4776296,5.625 13.1960283,5.37316875 13.1960283,5.0625 L13.1960283,0.5625 C13.1960283,0.25183125 13.4776296,-2.84217094e-14 13.8248834,-2.84217094e-14 C14.1721372,-2.84217094e-14 14.4537385,0.25183125 14.4537385,0.5625 L14.4537385,4.5 L18.8557244,4.5 C19.2029782,4.5 19.4845795,4.75183125 19.4845795,5.0625 C19.4845795,5.37316875 19.2029782,5.625 18.8557244,5.625 Z M21.3711449,27 L4.45494208,27 C4.10762539,27 3.82608696,26.7481125 3.82608696,26.4375 L3.82608696,24.1875 C3.82608696,23.8768875 4.10762539,23.625 4.45494208,23.625 C4.80225876,23.625 5.0837972,23.8768875 5.0837972,24.1875 L5.0837972,25.875 L20.7422898,25.875 L20.7422898,7.3125 L18.8557244,7.3125 C18.5084706,7.3125 18.2268693,7.06066875 18.2268693,6.75 C18.2268693,6.43933125 18.5084706,6.1875 18.8557244,6.1875 L21.3711449,6.1875 C21.7183987,6.1875 22,6.43933125 22,6.75 L22,26.4375 C22,26.7481125 21.7183987,27 21.3711449,27 Z" id="Shape" fill="#418CFE"></path>
            <path d="M16.5519849,21.2142857 L2.57844991,21.2142857 C2.21094594,21.2142857 1.91304348,20.9591269 1.91304348,20.6444805 C1.91304348,20.3298341 2.21094594,20.0746753 2.57844991,20.0746753 L16.5519849,20.0746753 C16.9194223,20.0746753 17.2173913,20.3298341 17.2173913,20.6444805 C17.2173913,20.9591269 16.9194223,21.2142857 16.5519849,21.2142857 Z M16.5519849,18.9350649 L2.57844991,18.9350649 C2.21094594,18.9350649 1.91304348,18.6799062 1.91304348,18.3652597 C1.91304348,18.0506133 2.21094594,17.7954545 2.57844991,17.7954545 L16.5519849,17.7954545 C16.9194223,17.7954545 17.2173913,18.0506133 17.2173913,18.3652597 C17.2173913,18.6799062 16.9194223,18.9350649 16.5519849,18.9350649 Z M16.5519849,16.6558442 L2.57844991,16.6558442 C2.21094594,16.6558442 1.91304348,16.4006854 1.91304348,16.086039 C1.91304348,15.7713925 2.21094594,15.5162338 2.57844991,15.5162338 L16.5519849,15.5162338 C16.9194223,15.5162338 17.2173913,15.7713925 17.2173913,16.086039 C17.2173913,16.4006854 16.9194223,16.6558442 16.5519849,16.6558442 Z M16.5519849,14.3766234 L2.57844991,14.3766234 C2.21094594,14.3766234 1.91304348,14.1215216 1.91304348,13.8068182 C1.91304348,13.4921148 2.21094594,13.237013 2.57844991,13.237013 L16.5519849,13.237013 C16.9194223,13.237013 17.2173913,13.4921148 17.2173913,13.8068182 C17.2173913,14.1215216 16.9194223,14.3766234 16.5519849,14.3766234 Z M16.5519849,12.0974026 L2.57844991,12.0974026 C2.21094594,12.0974026 1.91304348,11.8423008 1.91304348,11.5275974 C1.91304348,11.212894 2.21094594,10.9577922 2.57844991,10.9577922 L16.5519849,10.9577922 C16.9194223,10.9577922 17.2173913,11.212894 17.2173913,11.5275974 C17.2173913,11.8423008 16.9194223,12.0974026 16.5519849,12.0974026 Z M8.56710775,9.81818182 L2.57844991,9.81818182 C2.21094594,9.81818182 1.91304348,9.56308003 1.91304348,9.24837662 C1.91304348,8.93367321 2.21094594,8.67857143 2.57844991,8.67857143 L8.56710775,8.67857143 C8.93461172,8.67857143 9.23251418,8.93367321 9.23251418,9.24837662 C9.23251418,9.56308003 8.93461172,9.81818182 8.56710775,9.81818182 Z" id="Shape" fill="#418CFE"></path>
        </g>
        <g id="documents-copy-14" transform="translate(225.000000, 455.000000)" fill-rule="nonzero">
            <path d="M22,6.75 L22,26.0357143 L4.7826087,26.0357143 L4.7826087,23.8316327 C4.78824115,23.8250755 19.4323685,6.75870612 19.4397931,6.75 L22,6.75 Z" id="Path" fill="#A4C2F7"></path>
            <path d="M19.1304348,24.1071429 C18.5749397,24.1071429 1.29781529,24.1071429 0.956521739,24.1071429 C0.956521739,22.6728918 0.956521739,1.92184898 0.956521739,0.964285714 L14.1169415,0.964285714 L15.4747835,4.03165102 L19.1304348,5.37244898 C19.1304348,6.19738163 19.1304348,23.1700224 19.1304348,24.1071429 Z" id="Path" fill="#FFFFFF"></path>
            <polygon id="Path" fill="#A4C2F7" points="19.1304348 4.82142857 14.3478261 4.82142857 14.3478261 0"></polygon>
            <path d="M19.4389902,25.0714286 L0.647966339,25.0714286 C0.29009453,25.0714286 0,24.8162698 0,24.5016234 L0,0.569805195 C0,0.255101786 0.29009453,0 0.647966339,0 L14.2552595,0 C14.4271001,0 14.591878,0.0600574675 14.7134365,0.166895942 L19.8971672,4.7253375 C20.0186609,4.83217597 20.0869565,4.97713442 20.0869565,5.12824675 L20.0869565,24.5016234 C20.0869565,24.8162698 19.7967972,25.0714286 19.4389902,25.0714286 Z M1.29593268,23.9318182 L18.7910238,23.9318182 L18.7910238,5.36426006 L13.986807,1.13961039 L1.29593268,1.13961039 L1.29593268,23.9318182 Z" id="Shape" fill="#418CFE"></path>
            <path d="M18.8557244,5.625 L13.8248834,5.625 C13.4776296,5.625 13.1960283,5.37316875 13.1960283,5.0625 L13.1960283,0.5625 C13.1960283,0.25183125 13.4776296,0 13.8248834,0 C14.1721372,0 14.4537385,0.25183125 14.4537385,0.5625 L14.4537385,4.5 L18.8557244,4.5 C19.2029782,4.5 19.4845795,4.75183125 19.4845795,5.0625 C19.4845795,5.37316875 19.2029782,5.625 18.8557244,5.625 Z M21.3711449,27 L4.45494208,27 C4.10762539,27 3.82608696,26.7481125 3.82608696,26.4375 L3.82608696,24.1875 C3.82608696,23.8768875 4.10762539,23.625 4.45494208,23.625 C4.80225876,23.625 5.0837972,23.8768875 5.0837972,24.1875 L5.0837972,25.875 L20.7422898,25.875 L20.7422898,7.3125 L18.8557244,7.3125 C18.5084706,7.3125 18.2268693,7.06066875 18.2268693,6.75 C18.2268693,6.43933125 18.5084706,6.1875 18.8557244,6.1875 L21.3711449,6.1875 C21.7183987,6.1875 22,6.43933125 22,6.75 L22,26.4375 C22,26.7481125 21.7183987,27 21.3711449,27 Z" id="Shape" fill="#418CFE"></path>
            <path d="M16.5519849,21.2142857 L2.57844991,21.2142857 C2.21094594,21.2142857 1.91304348,20.9591269 1.91304348,20.6444805 C1.91304348,20.3298341 2.21094594,20.0746753 2.57844991,20.0746753 L16.5519849,20.0746753 C16.9194223,20.0746753 17.2173913,20.3298341 17.2173913,20.6444805 C17.2173913,20.9591269 16.9194223,21.2142857 16.5519849,21.2142857 Z M16.5519849,18.9350649 L2.57844991,18.9350649 C2.21094594,18.9350649 1.91304348,18.6799062 1.91304348,18.3652597 C1.91304348,18.0506133 2.21094594,17.7954545 2.57844991,17.7954545 L16.5519849,17.7954545 C16.9194223,17.7954545 17.2173913,18.0506133 17.2173913,18.3652597 C17.2173913,18.6799062 16.9194223,18.9350649 16.5519849,18.9350649 Z M16.5519849,16.6558442 L2.57844991,16.6558442 C2.21094594,16.6558442 1.91304348,16.4006854 1.91304348,16.086039 C1.91304348,15.7713925 2.21094594,15.5162338 2.57844991,15.5162338 L16.5519849,15.5162338 C16.9194223,15.5162338 17.2173913,15.7713925 17.2173913,16.086039 C17.2173913,16.4006854 16.9194223,16.6558442 16.5519849,16.6558442 Z M16.5519849,14.3766234 L2.57844991,14.3766234 C2.21094594,14.3766234 1.91304348,14.1215216 1.91304348,13.8068182 C1.91304348,13.4921148 2.21094594,13.237013 2.57844991,13.237013 L16.5519849,13.237013 C16.9194223,13.237013 17.2173913,13.4921148 17.2173913,13.8068182 C17.2173913,14.1215216 16.9194223,14.3766234 16.5519849,14.3766234 Z M16.5519849,12.0974026 L2.57844991,12.0974026 C2.21094594,12.0974026 1.91304348,11.8423008 1.91304348,11.5275974 C1.91304348,11.212894 2.21094594,10.9577922 2.57844991,10.9577922 L16.5519849,10.9577922 C16.9194223,10.9577922 17.2173913,11.212894 17.2173913,11.5275974 C17.2173913,11.8423008 16.9194223,12.0974026 16.5519849,12.0974026 Z M8.56710775,9.81818182 L2.57844991,9.81818182 C2.21094594,9.81818182 1.91304348,9.56308003 1.91304348,9.24837662 C1.91304348,8.93367321 2.21094594,8.67857143 2.57844991,8.67857143 L8.56710775,8.67857143 C8.93461172,8.67857143 9.23251418,8.93367321 9.23251418,9.24837662 C9.23251418,9.56308003 8.93461172,9.81818182 8.56710775,9.81818182 Z" id="Shape" fill="#418CFE"></path>
        </g>
        <g id="documents-copy-13" transform="translate(388.000000, 301.000000)" fill-rule="nonzero">
            <path d="M22,6.75 L22,26.0357143 L4.7826087,26.0357143 L4.7826087,23.8316327 C4.78824115,23.8250755 19.4323685,6.75870612 19.4397931,6.75 L22,6.75 Z" id="Path" fill="#A4C2F7"></path>
            <path d="M19.1304348,24.1071429 C18.5749397,24.1071429 1.29781529,24.1071429 0.956521739,24.1071429 C0.956521739,22.6728918 0.956521739,1.92184898 0.956521739,0.964285714 L14.1169415,0.964285714 L15.4747835,4.03165102 L19.1304348,5.37244898 C19.1304348,6.19738163 19.1304348,23.1700224 19.1304348,24.1071429 Z" id="Path" fill="#FFFFFF"></path>
            <polygon id="Path" fill="#A4C2F7" points="19.1304348 4.82142857 14.3478261 4.82142857 14.3478261 -2.84217094e-14"></polygon>
            <path d="M19.4389902,25.0714286 L0.647966339,25.0714286 C0.29009453,25.0714286 0,24.8162698 0,24.5016234 L0,0.569805195 C0,0.255101786 0.29009453,-2.84217094e-14 0.647966339,-2.84217094e-14 L14.2552595,-2.84217094e-14 C14.4271001,-2.84217094e-14 14.591878,0.0600574675 14.7134365,0.166895942 L19.8971672,4.7253375 C20.0186609,4.83217597 20.0869565,4.97713442 20.0869565,5.12824675 L20.0869565,24.5016234 C20.0869565,24.8162698 19.7967972,25.0714286 19.4389902,25.0714286 Z M1.29593268,23.9318182 L18.7910238,23.9318182 L18.7910238,5.36426006 L13.986807,1.13961039 L1.29593268,1.13961039 L1.29593268,23.9318182 Z" id="Shape" fill="#418CFE"></path>
            <path d="M18.8557244,5.625 L13.8248834,5.625 C13.4776296,5.625 13.1960283,5.37316875 13.1960283,5.0625 L13.1960283,0.5625 C13.1960283,0.25183125 13.4776296,-2.84217094e-14 13.8248834,-2.84217094e-14 C14.1721372,-2.84217094e-14 14.4537385,0.25183125 14.4537385,0.5625 L14.4537385,4.5 L18.8557244,4.5 C19.2029782,4.5 19.4845795,4.75183125 19.4845795,5.0625 C19.4845795,5.37316875 19.2029782,5.625 18.8557244,5.625 Z M21.3711449,27 L4.45494208,27 C4.10762539,27 3.82608696,26.7481125 3.82608696,26.4375 L3.82608696,24.1875 C3.82608696,23.8768875 4.10762539,23.625 4.45494208,23.625 C4.80225876,23.625 5.0837972,23.8768875 5.0837972,24.1875 L5.0837972,25.875 L20.7422898,25.875 L20.7422898,7.3125 L18.8557244,7.3125 C18.5084706,7.3125 18.2268693,7.06066875 18.2268693,6.75 C18.2268693,6.43933125 18.5084706,6.1875 18.8557244,6.1875 L21.3711449,6.1875 C21.7183987,6.1875 22,6.43933125 22,6.75 L22,26.4375 C22,26.7481125 21.7183987,27 21.3711449,27 Z" id="Shape" fill="#418CFE"></path>
            <path d="M16.5519849,21.2142857 L2.57844991,21.2142857 C2.21094594,21.2142857 1.91304348,20.9591269 1.91304348,20.6444805 C1.91304348,20.3298341 2.21094594,20.0746753 2.57844991,20.0746753 L16.5519849,20.0746753 C16.9194223,20.0746753 17.2173913,20.3298341 17.2173913,20.6444805 C17.2173913,20.9591269 16.9194223,21.2142857 16.5519849,21.2142857 Z M16.5519849,18.9350649 L2.57844991,18.9350649 C2.21094594,18.9350649 1.91304348,18.6799062 1.91304348,18.3652597 C1.91304348,18.0506133 2.21094594,17.7954545 2.57844991,17.7954545 L16.5519849,17.7954545 C16.9194223,17.7954545 17.2173913,18.0506133 17.2173913,18.3652597 C17.2173913,18.6799062 16.9194223,18.9350649 16.5519849,18.9350649 Z M16.5519849,16.6558442 L2.57844991,16.6558442 C2.21094594,16.6558442 1.91304348,16.4006854 1.91304348,16.086039 C1.91304348,15.7713925 2.21094594,15.5162338 2.57844991,15.5162338 L16.5519849,15.5162338 C16.9194223,15.5162338 17.2173913,15.7713925 17.2173913,16.086039 C17.2173913,16.4006854 16.9194223,16.6558442 16.5519849,16.6558442 Z M16.5519849,14.3766234 L2.57844991,14.3766234 C2.21094594,14.3766234 1.91304348,14.1215216 1.91304348,13.8068182 C1.91304348,13.4921148 2.21094594,13.237013 2.57844991,13.237013 L16.5519849,13.237013 C16.9194223,13.237013 17.2173913,13.4921148 17.2173913,13.8068182 C17.2173913,14.1215216 16.9194223,14.3766234 16.5519849,14.3766234 Z M16.5519849,12.0974026 L2.57844991,12.0974026 C2.21094594,12.0974026 1.91304348,11.8423008 1.91304348,11.5275974 C1.91304348,11.212894 2.21094594,10.9577922 2.57844991,10.9577922 L16.5519849,10.9577922 C16.9194223,10.9577922 17.2173913,11.212894 17.2173913,11.5275974 C17.2173913,11.8423008 16.9194223,12.0974026 16.5519849,12.0974026 Z M8.56710775,9.81818182 L2.57844991,9.81818182 C2.21094594,9.81818182 1.91304348,9.56308003 1.91304348,9.24837662 C1.91304348,8.93367321 2.21094594,8.67857143 2.57844991,8.67857143 L8.56710775,8.67857143 C8.93461172,8.67857143 9.23251418,8.93367321 9.23251418,9.24837662 C9.23251418,9.56308003 8.93461172,9.81818182 8.56710775,9.81818182 Z" id="Shape" fill="#418CFE"></path>
        </g>
        <g id="documents-copy-18" transform="translate(551.000000, 301.000000)" fill-rule="nonzero">
            <path d="M22,6.75 L22,26.0357143 L4.7826087,26.0357143 L4.7826087,23.8316327 C4.78824115,23.8250755 19.4323685,6.75870612 19.4397931,6.75 L22,6.75 Z" id="Path" fill="#A4C2F7"></path>
            <path d="M19.1304348,24.1071429 C18.5749397,24.1071429 1.29781529,24.1071429 0.956521739,24.1071429 C0.956521739,22.6728918 0.956521739,1.92184898 0.956521739,0.964285714 L14.1169415,0.964285714 L15.4747835,4.03165102 L19.1304348,5.37244898 C19.1304348,6.19738163 19.1304348,23.1700224 19.1304348,24.1071429 Z" id="Path" fill="#FFFFFF"></path>
            <polygon id="Path" fill="#A4C2F7" points="19.1304348 4.82142857 14.3478261 4.82142857 14.3478261 -2.84217094e-14"></polygon>
            <path d="M19.4389902,25.0714286 L0.647966339,25.0714286 C0.29009453,25.0714286 0,24.8162698 0,24.5016234 L0,0.569805195 C0,0.255101786 0.29009453,-2.84217094e-14 0.647966339,-2.84217094e-14 L14.2552595,-2.84217094e-14 C14.4271001,-2.84217094e-14 14.591878,0.0600574675 14.7134365,0.166895942 L19.8971672,4.7253375 C20.0186609,4.83217597 20.0869565,4.97713442 20.0869565,5.12824675 L20.0869565,24.5016234 C20.0869565,24.8162698 19.7967972,25.0714286 19.4389902,25.0714286 Z M1.29593268,23.9318182 L18.7910238,23.9318182 L18.7910238,5.36426006 L13.986807,1.13961039 L1.29593268,1.13961039 L1.29593268,23.9318182 Z" id="Shape" fill="#418CFE"></path>
            <path d="M18.8557244,5.625 L13.8248834,5.625 C13.4776296,5.625 13.1960283,5.37316875 13.1960283,5.0625 L13.1960283,0.5625 C13.1960283,0.25183125 13.4776296,-2.84217094e-14 13.8248834,-2.84217094e-14 C14.1721372,-2.84217094e-14 14.4537385,0.25183125 14.4537385,0.5625 L14.4537385,4.5 L18.8557244,4.5 C19.2029782,4.5 19.4845795,4.75183125 19.4845795,5.0625 C19.4845795,5.37316875 19.2029782,5.625 18.8557244,5.625 Z M21.3711449,27 L4.45494208,27 C4.10762539,27 3.82608696,26.7481125 3.82608696,26.4375 L3.82608696,24.1875 C3.82608696,23.8768875 4.10762539,23.625 4.45494208,23.625 C4.80225876,23.625 5.0837972,23.8768875 5.0837972,24.1875 L5.0837972,25.875 L20.7422898,25.875 L20.7422898,7.3125 L18.8557244,7.3125 C18.5084706,7.3125 18.2268693,7.06066875 18.2268693,6.75 C18.2268693,6.43933125 18.5084706,6.1875 18.8557244,6.1875 L21.3711449,6.1875 C21.7183987,6.1875 22,6.43933125 22,6.75 L22,26.4375 C22,26.7481125 21.7183987,27 21.3711449,27 Z" id="Shape" fill="#418CFE"></path>
            <path d="M16.5519849,21.2142857 L2.57844991,21.2142857 C2.21094594,21.2142857 1.91304348,20.9591269 1.91304348,20.6444805 C1.91304348,20.3298341 2.21094594,20.0746753 2.57844991,20.0746753 L16.5519849,20.0746753 C16.9194223,20.0746753 17.2173913,20.3298341 17.2173913,20.6444805 C17.2173913,20.9591269 16.9194223,21.2142857 16.5519849,21.2142857 Z M16.5519849,18.9350649 L2.57844991,18.9350649 C2.21094594,18.9350649 1.91304348,18.6799062 1.91304348,18.3652597 C1.91304348,18.0506133 2.21094594,17.7954545 2.57844991,17.7954545 L16.5519849,17.7954545 C16.9194223,17.7954545 17.2173913,18.0506133 17.2173913,18.3652597 C17.2173913,18.6799062 16.9194223,18.9350649 16.5519849,18.9350649 Z M16.5519849,16.6558442 L2.57844991,16.6558442 C2.21094594,16.6558442 1.91304348,16.4006854 1.91304348,16.086039 C1.91304348,15.7713925 2.21094594,15.5162338 2.57844991,15.5162338 L16.5519849,15.5162338 C16.9194223,15.5162338 17.2173913,15.7713925 17.2173913,16.086039 C17.2173913,16.4006854 16.9194223,16.6558442 16.5519849,16.6558442 Z M16.5519849,14.3766234 L2.57844991,14.3766234 C2.21094594,14.3766234 1.91304348,14.1215216 1.91304348,13.8068182 C1.91304348,13.4921148 2.21094594,13.237013 2.57844991,13.237013 L16.5519849,13.237013 C16.9194223,13.237013 17.2173913,13.4921148 17.2173913,13.8068182 C17.2173913,14.1215216 16.9194223,14.3766234 16.5519849,14.3766234 Z M16.5519849,12.0974026 L2.57844991,12.0974026 C2.21094594,12.0974026 1.91304348,11.8423008 1.91304348,11.5275974 C1.91304348,11.212894 2.21094594,10.9577922 2.57844991,10.9577922 L16.5519849,10.9577922 C16.9194223,10.9577922 17.2173913,11.212894 17.2173913,11.5275974 C17.2173913,11.8423008 16.9194223,12.0974026 16.5519849,12.0974026 Z M8.56710775,9.81818182 L2.57844991,9.81818182 C2.21094594,9.81818182 1.91304348,9.56308003 1.91304348,9.24837662 C1.91304348,8.93367321 2.21094594,8.67857143 2.57844991,8.67857143 L8.56710775,8.67857143 C8.93461172,8.67857143 9.23251418,8.93367321 9.23251418,9.24837662 C9.23251418,9.56308003 8.93461172,9.81818182 8.56710775,9.81818182 Z" id="Shape" fill="#418CFE"></path>
        </g>
        <g id="documents-copy-16" transform="translate(678.000000, 301.000000)" fill-rule="nonzero">
            <path d="M22,6.75 L22,26.0357143 L4.7826087,26.0357143 L4.7826087,23.8316327 C4.78824115,23.8250755 19.4323685,6.75870612 19.4397931,6.75 L22,6.75 Z" id="Path" fill="#A4C2F7"></path>
            <path d="M19.1304348,24.1071429 C18.5749397,24.1071429 1.29781529,24.1071429 0.956521739,24.1071429 C0.956521739,22.6728918 0.956521739,1.92184898 0.956521739,0.964285714 L14.1169415,0.964285714 L15.4747835,4.03165102 L19.1304348,5.37244898 C19.1304348,6.19738163 19.1304348,23.1700224 19.1304348,24.1071429 Z" id="Path" fill="#FFFFFF"></path>
            <polygon id="Path" fill="#A4C2F7" points="19.1304348 4.82142857 14.3478261 4.82142857 14.3478261 -2.84217094e-14"></polygon>
            <path d="M19.4389902,25.0714286 L0.647966339,25.0714286 C0.29009453,25.0714286 0,24.8162698 0,24.5016234 L0,0.569805195 C0,0.255101786 0.29009453,-2.84217094e-14 0.647966339,-2.84217094e-14 L14.2552595,-2.84217094e-14 C14.4271001,-2.84217094e-14 14.591878,0.0600574675 14.7134365,0.166895942 L19.8971672,4.7253375 C20.0186609,4.83217597 20.0869565,4.97713442 20.0869565,5.12824675 L20.0869565,24.5016234 C20.0869565,24.8162698 19.7967972,25.0714286 19.4389902,25.0714286 Z M1.29593268,23.9318182 L18.7910238,23.9318182 L18.7910238,5.36426006 L13.986807,1.13961039 L1.29593268,1.13961039 L1.29593268,23.9318182 Z" id="Shape" fill="#418CFE"></path>
            <path d="M18.8557244,5.625 L13.8248834,5.625 C13.4776296,5.625 13.1960283,5.37316875 13.1960283,5.0625 L13.1960283,0.5625 C13.1960283,0.25183125 13.4776296,-2.84217094e-14 13.8248834,-2.84217094e-14 C14.1721372,-2.84217094e-14 14.4537385,0.25183125 14.4537385,0.5625 L14.4537385,4.5 L18.8557244,4.5 C19.2029782,4.5 19.4845795,4.75183125 19.4845795,5.0625 C19.4845795,5.37316875 19.2029782,5.625 18.8557244,5.625 Z M21.3711449,27 L4.45494208,27 C4.10762539,27 3.82608696,26.7481125 3.82608696,26.4375 L3.82608696,24.1875 C3.82608696,23.8768875 4.10762539,23.625 4.45494208,23.625 C4.80225876,23.625 5.0837972,23.8768875 5.0837972,24.1875 L5.0837972,25.875 L20.7422898,25.875 L20.7422898,7.3125 L18.8557244,7.3125 C18.5084706,7.3125 18.2268693,7.06066875 18.2268693,6.75 C18.2268693,6.43933125 18.5084706,6.1875 18.8557244,6.1875 L21.3711449,6.1875 C21.7183987,6.1875 22,6.43933125 22,6.75 L22,26.4375 C22,26.7481125 21.7183987,27 21.3711449,27 Z" id="Shape" fill="#418CFE"></path>
            <path d="M16.5519849,21.2142857 L2.57844991,21.2142857 C2.21094594,21.2142857 1.91304348,20.9591269 1.91304348,20.6444805 C1.91304348,20.3298341 2.21094594,20.0746753 2.57844991,20.0746753 L16.5519849,20.0746753 C16.9194223,20.0746753 17.2173913,20.3298341 17.2173913,20.6444805 C17.2173913,20.9591269 16.9194223,21.2142857 16.5519849,21.2142857 Z M16.5519849,18.9350649 L2.57844991,18.9350649 C2.21094594,18.9350649 1.91304348,18.6799062 1.91304348,18.3652597 C1.91304348,18.0506133 2.21094594,17.7954545 2.57844991,17.7954545 L16.5519849,17.7954545 C16.9194223,17.7954545 17.2173913,18.0506133 17.2173913,18.3652597 C17.2173913,18.6799062 16.9194223,18.9350649 16.5519849,18.9350649 Z M16.5519849,16.6558442 L2.57844991,16.6558442 C2.21094594,16.6558442 1.91304348,16.4006854 1.91304348,16.086039 C1.91304348,15.7713925 2.21094594,15.5162338 2.57844991,15.5162338 L16.5519849,15.5162338 C16.9194223,15.5162338 17.2173913,15.7713925 17.2173913,16.086039 C17.2173913,16.4006854 16.9194223,16.6558442 16.5519849,16.6558442 Z M16.5519849,14.3766234 L2.57844991,14.3766234 C2.21094594,14.3766234 1.91304348,14.1215216 1.91304348,13.8068182 C1.91304348,13.4921148 2.21094594,13.237013 2.57844991,13.237013 L16.5519849,13.237013 C16.9194223,13.237013 17.2173913,13.4921148 17.2173913,13.8068182 C17.2173913,14.1215216 16.9194223,14.3766234 16.5519849,14.3766234 Z M16.5519849,12.0974026 L2.57844991,12.0974026 C2.21094594,12.0974026 1.91304348,11.8423008 1.91304348,11.5275974 C1.91304348,11.212894 2.21094594,10.9577922 2.57844991,10.9577922 L16.5519849,10.9577922 C16.9194223,10.9577922 17.2173913,11.212894 17.2173913,11.5275974 C17.2173913,11.8423008 16.9194223,12.0974026 16.5519849,12.0974026 Z M8.56710775,9.81818182 L2.57844991,9.81818182 C2.21094594,9.81818182 1.91304348,9.56308003 1.91304348,9.24837662 C1.91304348,8.93367321 2.21094594,8.67857143 2.57844991,8.67857143 L8.56710775,8.67857143 C8.93461172,8.67857143 9.23251418,8.93367321 9.23251418,9.24837662 C9.23251418,9.56308003 8.93461172,9.81818182 8.56710775,9.81818182 Z" id="Shape" fill="#418CFE"></path>
        </g>
        <g id="documents-copy-15" transform="translate(388.000000, 455.000000)" fill-rule="nonzero">
            <path d="M22,6.75 L22,26.0357143 L4.7826087,26.0357143 L4.7826087,23.8316327 C4.78824115,23.8250755 19.4323685,6.75870612 19.4397931,6.75 L22,6.75 Z" id="Path" fill="#A4C2F7"></path>
            <path d="M19.1304348,24.1071429 C18.5749397,24.1071429 1.29781529,24.1071429 0.956521739,24.1071429 C0.956521739,22.6728918 0.956521739,1.92184898 0.956521739,0.964285714 L14.1169415,0.964285714 L15.4747835,4.03165102 L19.1304348,5.37244898 C19.1304348,6.19738163 19.1304348,23.1700224 19.1304348,24.1071429 Z" id="Path" fill="#FFFFFF"></path>
            <polygon id="Path" fill="#A4C2F7" points="19.1304348 4.82142857 14.3478261 4.82142857 14.3478261 0"></polygon>
            <path d="M19.4389902,25.0714286 L0.647966339,25.0714286 C0.29009453,25.0714286 0,24.8162698 0,24.5016234 L0,0.569805195 C0,0.255101786 0.29009453,0 0.647966339,0 L14.2552595,0 C14.4271001,0 14.591878,0.0600574675 14.7134365,0.166895942 L19.8971672,4.7253375 C20.0186609,4.83217597 20.0869565,4.97713442 20.0869565,5.12824675 L20.0869565,24.5016234 C20.0869565,24.8162698 19.7967972,25.0714286 19.4389902,25.0714286 Z M1.29593268,23.9318182 L18.7910238,23.9318182 L18.7910238,5.36426006 L13.986807,1.13961039 L1.29593268,1.13961039 L1.29593268,23.9318182 Z" id="Shape" fill="#418CFE"></path>
            <path d="M18.8557244,5.625 L13.8248834,5.625 C13.4776296,5.625 13.1960283,5.37316875 13.1960283,5.0625 L13.1960283,0.5625 C13.1960283,0.25183125 13.4776296,0 13.8248834,0 C14.1721372,0 14.4537385,0.25183125 14.4537385,0.5625 L14.4537385,4.5 L18.8557244,4.5 C19.2029782,4.5 19.4845795,4.75183125 19.4845795,5.0625 C19.4845795,5.37316875 19.2029782,5.625 18.8557244,5.625 Z M21.3711449,27 L4.45494208,27 C4.10762539,27 3.82608696,26.7481125 3.82608696,26.4375 L3.82608696,24.1875 C3.82608696,23.8768875 4.10762539,23.625 4.45494208,23.625 C4.80225876,23.625 5.0837972,23.8768875 5.0837972,24.1875 L5.0837972,25.875 L20.7422898,25.875 L20.7422898,7.3125 L18.8557244,7.3125 C18.5084706,7.3125 18.2268693,7.06066875 18.2268693,6.75 C18.2268693,6.43933125 18.5084706,6.1875 18.8557244,6.1875 L21.3711449,6.1875 C21.7183987,6.1875 22,6.43933125 22,6.75 L22,26.4375 C22,26.7481125 21.7183987,27 21.3711449,27 Z" id="Shape" fill="#418CFE"></path>
            <path d="M16.5519849,21.2142857 L2.57844991,21.2142857 C2.21094594,21.2142857 1.91304348,20.9591269 1.91304348,20.6444805 C1.91304348,20.3298341 2.21094594,20.0746753 2.57844991,20.0746753 L16.5519849,20.0746753 C16.9194223,20.0746753 17.2173913,20.3298341 17.2173913,20.6444805 C17.2173913,20.9591269 16.9194223,21.2142857 16.5519849,21.2142857 Z M16.5519849,18.9350649 L2.57844991,18.9350649 C2.21094594,18.9350649 1.91304348,18.6799062 1.91304348,18.3652597 C1.91304348,18.0506133 2.21094594,17.7954545 2.57844991,17.7954545 L16.5519849,17.7954545 C16.9194223,17.7954545 17.2173913,18.0506133 17.2173913,18.3652597 C17.2173913,18.6799062 16.9194223,18.9350649 16.5519849,18.9350649 Z M16.5519849,16.6558442 L2.57844991,16.6558442 C2.21094594,16.6558442 1.91304348,16.4006854 1.91304348,16.086039 C1.91304348,15.7713925 2.21094594,15.5162338 2.57844991,15.5162338 L16.5519849,15.5162338 C16.9194223,15.5162338 17.2173913,15.7713925 17.2173913,16.086039 C17.2173913,16.4006854 16.9194223,16.6558442 16.5519849,16.6558442 Z M16.5519849,14.3766234 L2.57844991,14.3766234 C2.21094594,14.3766234 1.91304348,14.1215216 1.91304348,13.8068182 C1.91304348,13.4921148 2.21094594,13.237013 2.57844991,13.237013 L16.5519849,13.237013 C16.9194223,13.237013 17.2173913,13.4921148 17.2173913,13.8068182 C17.2173913,14.1215216 16.9194223,14.3766234 16.5519849,14.3766234 Z M16.5519849,12.0974026 L2.57844991,12.0974026 C2.21094594,12.0974026 1.91304348,11.8423008 1.91304348,11.5275974 C1.91304348,11.212894 2.21094594,10.9577922 2.57844991,10.9577922 L16.5519849,10.9577922 C16.9194223,10.9577922 17.2173913,11.212894 17.2173913,11.5275974 C17.2173913,11.8423008 16.9194223,12.0974026 16.5519849,12.0974026 Z M8.56710775,9.81818182 L2.57844991,9.81818182 C2.21094594,9.81818182 1.91304348,9.56308003 1.91304348,9.24837662 C1.91304348,8.93367321 2.21094594,8.67857143 2.57844991,8.67857143 L8.56710775,8.67857143 C8.93461172,8.67857143 9.23251418,8.93367321 9.23251418,9.24837662 C9.23251418,9.56308003 8.93461172,9.81818182 8.56710775,9.81818182 Z" id="Shape" fill="#418CFE"></path>
        </g>
        <g id="documents-copy-17" transform="translate(679.000000, 455.000000)" fill-rule="nonzero">
            <path d="M22,6.75 L22,26.0357143 L4.7826087,26.0357143 L4.7826087,23.8316327 C4.78824115,23.8250755 19.4323685,6.75870612 19.4397931,6.75 L22,6.75 Z" id="Path" fill="#A4C2F7"></path>
            <path d="M19.1304348,24.1071429 C18.5749397,24.1071429 1.29781529,24.1071429 0.956521739,24.1071429 C0.956521739,22.6728918 0.956521739,1.92184898 0.956521739,0.964285714 L14.1169415,0.964285714 L15.4747835,4.03165102 L19.1304348,5.37244898 C19.1304348,6.19738163 19.1304348,23.1700224 19.1304348,24.1071429 Z" id="Path" fill="#FFFFFF"></path>
            <polygon id="Path" fill="#A4C2F7" points="19.1304348 4.82142857 14.3478261 4.82142857 14.3478261 0"></polygon>
            <path d="M19.4389902,25.0714286 L0.647966339,25.0714286 C0.29009453,25.0714286 0,24.8162698 0,24.5016234 L0,0.569805195 C0,0.255101786 0.29009453,0 0.647966339,0 L14.2552595,0 C14.4271001,0 14.591878,0.0600574675 14.7134365,0.166895942 L19.8971672,4.7253375 C20.0186609,4.83217597 20.0869565,4.97713442 20.0869565,5.12824675 L20.0869565,24.5016234 C20.0869565,24.8162698 19.7967972,25.0714286 19.4389902,25.0714286 Z M1.29593268,23.9318182 L18.7910238,23.9318182 L18.7910238,5.36426006 L13.986807,1.13961039 L1.29593268,1.13961039 L1.29593268,23.9318182 Z" id="Shape" fill="#418CFE"></path>
            <path d="M18.8557244,5.625 L13.8248834,5.625 C13.4776296,5.625 13.1960283,5.37316875 13.1960283,5.0625 L13.1960283,0.5625 C13.1960283,0.25183125 13.4776296,0 13.8248834,0 C14.1721372,0 14.4537385,0.25183125 14.4537385,0.5625 L14.4537385,4.5 L18.8557244,4.5 C19.2029782,4.5 19.4845795,4.75183125 19.4845795,5.0625 C19.4845795,5.37316875 19.2029782,5.625 18.8557244,5.625 Z M21.3711449,27 L4.45494208,27 C4.10762539,27 3.82608696,26.7481125 3.82608696,26.4375 L3.82608696,24.1875 C3.82608696,23.8768875 4.10762539,23.625 4.45494208,23.625 C4.80225876,23.625 5.0837972,23.8768875 5.0837972,24.1875 L5.0837972,25.875 L20.7422898,25.875 L20.7422898,7.3125 L18.8557244,7.3125 C18.5084706,7.3125 18.2268693,7.06066875 18.2268693,6.75 C18.2268693,6.43933125 18.5084706,6.1875 18.8557244,6.1875 L21.3711449,6.1875 C21.7183987,6.1875 22,6.43933125 22,6.75 L22,26.4375 C22,26.7481125 21.7183987,27 21.3711449,27 Z" id="Shape" fill="#418CFE"></path>
            <path d="M16.5519849,21.2142857 L2.57844991,21.2142857 C2.21094594,21.2142857 1.91304348,20.9591269 1.91304348,20.6444805 C1.91304348,20.3298341 2.21094594,20.0746753 2.57844991,20.0746753 L16.5519849,20.0746753 C16.9194223,20.0746753 17.2173913,20.3298341 17.2173913,20.6444805 C17.2173913,20.9591269 16.9194223,21.2142857 16.5519849,21.2142857 Z M16.5519849,18.9350649 L2.57844991,18.9350649 C2.21094594,18.9350649 1.91304348,18.6799062 1.91304348,18.3652597 C1.91304348,18.0506133 2.21094594,17.7954545 2.57844991,17.7954545 L16.5519849,17.7954545 C16.9194223,17.7954545 17.2173913,18.0506133 17.2173913,18.3652597 C17.2173913,18.6799062 16.9194223,18.9350649 16.5519849,18.9350649 Z M16.5519849,16.6558442 L2.57844991,16.6558442 C2.21094594,16.6558442 1.91304348,16.4006854 1.91304348,16.086039 C1.91304348,15.7713925 2.21094594,15.5162338 2.57844991,15.5162338 L16.5519849,15.5162338 C16.9194223,15.5162338 17.2173913,15.7713925 17.2173913,16.086039 C17.2173913,16.4006854 16.9194223,16.6558442 16.5519849,16.6558442 Z M16.5519849,14.3766234 L2.57844991,14.3766234 C2.21094594,14.3766234 1.91304348,14.1215216 1.91304348,13.8068182 C1.91304348,13.4921148 2.21094594,13.237013 2.57844991,13.237013 L16.5519849,13.237013 C16.9194223,13.237013 17.2173913,13.4921148 17.2173913,13.8068182 C17.2173913,14.1215216 16.9194223,14.3766234 16.5519849,14.3766234 Z M16.5519849,12.0974026 L2.57844991,12.0974026 C2.21094594,12.0974026 1.91304348,11.8423008 1.91304348,11.5275974 C1.91304348,11.212894 2.21094594,10.9577922 2.57844991,10.9577922 L16.5519849,10.9577922 C16.9194223,10.9577922 17.2173913,11.212894 17.2173913,11.5275974 C17.2173913,11.8423008 16.9194223,12.0974026 16.5519849,12.0974026 Z M8.56710775,9.81818182 L2.57844991,9.81818182 C2.21094594,9.81818182 1.91304348,9.56308003 1.91304348,9.24837662 C1.91304348,8.93367321 2.21094594,8.67857143 2.57844991,8.67857143 L8.56710775,8.67857143 C8.93461172,8.67857143 9.23251418,8.93367321 9.23251418,9.24837662 C9.23251418,9.56308003 8.93461172,9.81818182 8.56710775,9.81818182 Z" id="Shape" fill="#418CFE"></path>
        </g>
        <g id="documents-copy-9" transform="translate(374.000000, 130.000000)" fill-rule="nonzero">
            <path d="M45.0816327,14.4915254 L45.0816327,56.0338983 L9.59183673,56.0338983 L9.59183673,51.2861985 C9.60344678,51.2720741 39.7890354,14.5102788 39.8043396,14.4915254 L45.0816327,14.4915254 Z" id="Path" fill="#A4C2F7"></path>
            <path d="M40.2857143,51.2033898 C39.0836785,51.2033898 1.6977088,51.2033898 0.959183673,51.2033898 C0.959183673,48.1498667 0.959183673,3.97085738 0.959183673,1.93220339 L29.4370162,1.93220339 L32.3752505,8.4626299 L40.2857143,11.3171913 C40.2857143,13.0734745 40.2857143,49.2082587 40.2857143,51.2033898 Z" id="Path" fill="#FFFFFF"></path>
            <polygon id="Path" fill="#A4C2F7" points="41.244898 10.6271186 30.6938776 10.6271186 30.6938776 0.966101695"></polygon>
            <path d="M40.8426596,52.1694915 L1.36142199,52.1694915 C0.609508624,52.1694915 0,51.6385484 0,50.9838213 L0,1.18567026 C0,0.530824576 0.609508624,0 1.36142199,0 L29.9512837,0 C30.3123329,0 30.6585425,0.124969646 30.9139452,0.34728282 L41.8053211,9.83264492 C42.0605878,10.0549581 42.2040816,10.3565926 42.2040816,10.6710324 L42.2040816,50.9838213 C42.2040816,51.6385484 41.5944369,52.1694915 40.8426596,52.1694915 Z M2.72284398,49.798151 L39.4812377,49.798151 L39.4812377,11.162137 L29.3872466,2.37134052 L2.72284398,2.37134052 L2.72284398,49.798151 Z" id="Shape" fill="#418CFE"></path>
            <path d="M40.3620507,11.875 L29.7413318,11.875 C29.0082367,11.875 28.413742,11.3433562 28.413742,10.6875 L28.413742,1.1875 C28.413742,0.53164375 29.0082367,0 29.7413318,0 C30.4744269,0 31.0689217,0.53164375 31.0689217,1.1875 L31.0689217,9.5 L40.3620507,9.5 C41.0951458,9.5 41.6896406,10.0316438 41.6896406,10.6875 C41.6896406,11.3433562 41.0951458,11.875 40.3620507,11.875 Z M45.6724101,57 L9.96024292,57 C9.22701504,57 8.63265306,56.4682375 8.63265306,55.8125 L8.63265306,51.0625 C8.63265306,50.4067625 9.22701504,49.875 9.96024292,49.875 C10.6934708,49.875 11.2878328,50.4067625 11.2878328,51.0625 L11.2878328,54.625 L44.3448203,54.625 L44.3448203,15.4375 L40.3620507,15.4375 C39.6289556,15.4375 39.0344608,14.9058563 39.0344608,14.25 C39.0344608,13.5941438 39.6289556,13.0625 40.3620507,13.0625 L45.6724101,13.0625 C46.4055053,13.0625 47,13.5941438 47,14.25 L47,55.8125 C47,56.4682375 46.4055053,57 45.6724101,57 Z" id="Shape" fill="#418CFE"></path>
            <path d="M35.0727595,44.440678 L6.17213842,44.440678 C5.41205209,44.440678 4.79591837,43.8900703 4.79591837,43.211094 C4.79591837,42.5321177 5.41205209,41.98151 6.17213842,41.98151 L35.0727595,41.98151 C35.8327083,41.98151 36.4489796,42.5321177 36.4489796,43.211094 C36.4489796,43.8900703 35.8327083,44.440678 35.0727595,44.440678 Z M35.0727595,39.5223421 L6.17213842,39.5223421 C5.41205209,39.5223421 4.79591837,38.9717344 4.79591837,38.2927581 C4.79591837,37.6137818 5.41205209,37.0631741 6.17213842,37.0631741 L35.0727595,37.0631741 C35.8327083,37.0631741 36.4489796,37.6137818 36.4489796,38.2927581 C36.4489796,38.9717344 35.8327083,39.5223421 35.0727595,39.5223421 Z M35.0727595,34.6040062 L6.17213842,34.6040062 C5.41205209,34.6040062 4.79591837,34.0533985 4.79591837,33.3744222 C4.79591837,32.6954459 5.41205209,32.1448382 6.17213842,32.1448382 L35.0727595,32.1448382 C35.8327083,32.1448382 36.4489796,32.6954459 36.4489796,33.3744222 C36.4489796,34.0533985 35.8327083,34.6040062 35.0727595,34.6040062 Z M35.0727595,29.6856703 L6.17213842,29.6856703 C5.41205209,29.6856703 4.79591837,29.1351855 4.79591837,28.4560863 C4.79591837,27.7769871 5.41205209,27.2265023 6.17213842,27.2265023 L35.0727595,27.2265023 C35.8327083,27.2265023 36.4489796,27.7769871 36.4489796,28.4560863 C36.4489796,29.1351855 35.8327083,29.6856703 35.0727595,29.6856703 Z M35.0727595,24.7673344 L6.17213842,24.7673344 C5.41205209,24.7673344 4.79591837,24.2168496 4.79591837,23.5377504 C4.79591837,22.8586512 5.41205209,22.3081664 6.17213842,22.3081664 L35.0727595,22.3081664 C35.8327083,22.3081664 36.4489796,22.8586512 36.4489796,23.5377504 C36.4489796,24.2168496 35.8327083,24.7673344 35.0727595,24.7673344 Z M18.5581189,19.8489985 L6.17213842,19.8489985 C5.41205209,19.8489985 4.79591837,19.2985137 4.79591837,18.6194145 C4.79591837,17.9403153 5.41205209,17.3898305 6.17213842,17.3898305 L18.5581189,17.3898305 C19.3182052,17.3898305 19.934339,17.9403153 19.934339,18.6194145 C19.934339,19.2985137 19.3182052,19.8489985 18.5581189,19.8489985 Z" id="Shape" fill="#418CFE"></path>
        </g>
        <g id="documents-copy-10" transform="translate(537.000000, 130.000000)" fill-rule="nonzero">
            <path d="M45.0816327,14.4915254 L45.0816327,56.0338983 L9.59183673,56.0338983 L9.59183673,51.2861985 C9.60344678,51.2720741 39.7890354,14.5102788 39.8043396,14.4915254 L45.0816327,14.4915254 Z" id="Path" fill="#A4C2F7"></path>
            <path d="M40.2857143,51.2033898 C39.0836785,51.2033898 1.6977088,51.2033898 0.959183673,51.2033898 C0.959183673,48.1498667 0.959183673,3.97085738 0.959183673,1.93220339 L29.4370162,1.93220339 L32.3752505,8.4626299 L40.2857143,11.3171913 C40.2857143,13.0734745 40.2857143,49.2082587 40.2857143,51.2033898 Z" id="Path" fill="#FFFFFF"></path>
            <polygon id="Path" fill="#A4C2F7" points="41.244898 10.6271186 30.6938776 10.6271186 30.6938776 0.966101695"></polygon>
            <path d="M40.8426596,52.1694915 L1.36142199,52.1694915 C0.609508624,52.1694915 0,51.6385484 0,50.9838213 L0,1.18567026 C0,0.530824576 0.609508624,0 1.36142199,0 L29.9512837,0 C30.3123329,0 30.6585425,0.124969646 30.9139452,0.34728282 L41.8053211,9.83264492 C42.0605878,10.0549581 42.2040816,10.3565926 42.2040816,10.6710324 L42.2040816,50.9838213 C42.2040816,51.6385484 41.5944369,52.1694915 40.8426596,52.1694915 Z M2.72284398,49.798151 L39.4812377,49.798151 L39.4812377,11.162137 L29.3872466,2.37134052 L2.72284398,2.37134052 L2.72284398,49.798151 Z" id="Shape" fill="#418CFE"></path>
            <path d="M40.3620507,11.875 L29.7413318,11.875 C29.0082367,11.875 28.413742,11.3433562 28.413742,10.6875 L28.413742,1.1875 C28.413742,0.53164375 29.0082367,0 29.7413318,0 C30.4744269,0 31.0689217,0.53164375 31.0689217,1.1875 L31.0689217,9.5 L40.3620507,9.5 C41.0951458,9.5 41.6896406,10.0316438 41.6896406,10.6875 C41.6896406,11.3433562 41.0951458,11.875 40.3620507,11.875 Z M45.6724101,57 L9.96024292,57 C9.22701504,57 8.63265306,56.4682375 8.63265306,55.8125 L8.63265306,51.0625 C8.63265306,50.4067625 9.22701504,49.875 9.96024292,49.875 C10.6934708,49.875 11.2878328,50.4067625 11.2878328,51.0625 L11.2878328,54.625 L44.3448203,54.625 L44.3448203,15.4375 L40.3620507,15.4375 C39.6289556,15.4375 39.0344608,14.9058563 39.0344608,14.25 C39.0344608,13.5941438 39.6289556,13.0625 40.3620507,13.0625 L45.6724101,13.0625 C46.4055053,13.0625 47,13.5941438 47,14.25 L47,55.8125 C47,56.4682375 46.4055053,57 45.6724101,57 Z" id="Shape" fill="#418CFE"></path>
            <path d="M35.0727595,44.440678 L6.17213842,44.440678 C5.41205209,44.440678 4.79591837,43.8900703 4.79591837,43.211094 C4.79591837,42.5321177 5.41205209,41.98151 6.17213842,41.98151 L35.0727595,41.98151 C35.8327083,41.98151 36.4489796,42.5321177 36.4489796,43.211094 C36.4489796,43.8900703 35.8327083,44.440678 35.0727595,44.440678 Z M35.0727595,39.5223421 L6.17213842,39.5223421 C5.41205209,39.5223421 4.79591837,38.9717344 4.79591837,38.2927581 C4.79591837,37.6137818 5.41205209,37.0631741 6.17213842,37.0631741 L35.0727595,37.0631741 C35.8327083,37.0631741 36.4489796,37.6137818 36.4489796,38.2927581 C36.4489796,38.9717344 35.8327083,39.5223421 35.0727595,39.5223421 Z M35.0727595,34.6040062 L6.17213842,34.6040062 C5.41205209,34.6040062 4.79591837,34.0533985 4.79591837,33.3744222 C4.79591837,32.6954459 5.41205209,32.1448382 6.17213842,32.1448382 L35.0727595,32.1448382 C35.8327083,32.1448382 36.4489796,32.6954459 36.4489796,33.3744222 C36.4489796,34.0533985 35.8327083,34.6040062 35.0727595,34.6040062 Z M35.0727595,29.6856703 L6.17213842,29.6856703 C5.41205209,29.6856703 4.79591837,29.1351855 4.79591837,28.4560863 C4.79591837,27.7769871 5.41205209,27.2265023 6.17213842,27.2265023 L35.0727595,27.2265023 C35.8327083,27.2265023 36.4489796,27.7769871 36.4489796,28.4560863 C36.4489796,29.1351855 35.8327083,29.6856703 35.0727595,29.6856703 Z M35.0727595,24.7673344 L6.17213842,24.7673344 C5.41205209,24.7673344 4.79591837,24.2168496 4.79591837,23.5377504 C4.79591837,22.8586512 5.41205209,22.3081664 6.17213842,22.3081664 L35.0727595,22.3081664 C35.8327083,22.3081664 36.4489796,22.8586512 36.4489796,23.5377504 C36.4489796,24.2168496 35.8327083,24.7673344 35.0727595,24.7673344 Z M18.5581189,19.8489985 L6.17213842,19.8489985 C5.41205209,19.8489985 4.79591837,19.2985137 4.79591837,18.6194145 C4.79591837,17.9403153 5.41205209,17.3898305 6.17213842,17.3898305 L18.5581189,17.3898305 C19.3182052,17.3898305 19.934339,17.9403153 19.934339,18.6194145 C19.934339,19.2985137 19.3182052,19.8489985 18.5581189,19.8489985 Z" id="Shape" fill="#418CFE"></path>
        </g>
        <g id="documents-copy-11" transform="translate(664.000000, 130.000000)" fill-rule="nonzero">
            <path d="M45.0816327,14.4915254 L45.0816327,56.0338983 L9.59183673,56.0338983 L9.59183673,51.2861985 C9.60344678,51.2720741 39.7890354,14.5102788 39.8043396,14.4915254 L45.0816327,14.4915254 Z" id="Path" fill="#A4C2F7"></path>
            <path d="M40.2857143,51.2033898 C39.0836785,51.2033898 1.6977088,51.2033898 0.959183673,51.2033898 C0.959183673,48.1498667 0.959183673,3.97085738 0.959183673,1.93220339 L29.4370162,1.93220339 L32.3752505,8.4626299 L40.2857143,11.3171913 C40.2857143,13.0734745 40.2857143,49.2082587 40.2857143,51.2033898 Z" id="Path" fill="#FFFFFF"></path>
            <polygon id="Path" fill="#A4C2F7" points="41.244898 10.6271186 30.6938776 10.6271186 30.6938776 0.966101695"></polygon>
            <path d="M40.8426596,52.1694915 L1.36142199,52.1694915 C0.609508624,52.1694915 0,51.6385484 0,50.9838213 L0,1.18567026 C0,0.530824576 0.609508624,0 1.36142199,0 L29.9512837,0 C30.3123329,0 30.6585425,0.124969646 30.9139452,0.34728282 L41.8053211,9.83264492 C42.0605878,10.0549581 42.2040816,10.3565926 42.2040816,10.6710324 L42.2040816,50.9838213 C42.2040816,51.6385484 41.5944369,52.1694915 40.8426596,52.1694915 Z M2.72284398,49.798151 L39.4812377,49.798151 L39.4812377,11.162137 L29.3872466,2.37134052 L2.72284398,2.37134052 L2.72284398,49.798151 Z" id="Shape" fill="#418CFE"></path>
            <path d="M40.3620507,11.875 L29.7413318,11.875 C29.0082367,11.875 28.413742,11.3433562 28.413742,10.6875 L28.413742,1.1875 C28.413742,0.53164375 29.0082367,0 29.7413318,0 C30.4744269,0 31.0689217,0.53164375 31.0689217,1.1875 L31.0689217,9.5 L40.3620507,9.5 C41.0951458,9.5 41.6896406,10.0316438 41.6896406,10.6875 C41.6896406,11.3433562 41.0951458,11.875 40.3620507,11.875 Z M45.6724101,57 L9.96024292,57 C9.22701504,57 8.63265306,56.4682375 8.63265306,55.8125 L8.63265306,51.0625 C8.63265306,50.4067625 9.22701504,49.875 9.96024292,49.875 C10.6934708,49.875 11.2878328,50.4067625 11.2878328,51.0625 L11.2878328,54.625 L44.3448203,54.625 L44.3448203,15.4375 L40.3620507,15.4375 C39.6289556,15.4375 39.0344608,14.9058563 39.0344608,14.25 C39.0344608,13.5941438 39.6289556,13.0625 40.3620507,13.0625 L45.6724101,13.0625 C46.4055053,13.0625 47,13.5941438 47,14.25 L47,55.8125 C47,56.4682375 46.4055053,57 45.6724101,57 Z" id="Shape" fill="#418CFE"></path>
            <path d="M35.0727595,44.440678 L6.17213842,44.440678 C5.41205209,44.440678 4.79591837,43.8900703 4.79591837,43.211094 C4.79591837,42.5321177 5.41205209,41.98151 6.17213842,41.98151 L35.0727595,41.98151 C35.8327083,41.98151 36.4489796,42.5321177 36.4489796,43.211094 C36.4489796,43.8900703 35.8327083,44.440678 35.0727595,44.440678 Z M35.0727595,39.5223421 L6.17213842,39.5223421 C5.41205209,39.5223421 4.79591837,38.9717344 4.79591837,38.2927581 C4.79591837,37.6137818 5.41205209,37.0631741 6.17213842,37.0631741 L35.0727595,37.0631741 C35.8327083,37.0631741 36.4489796,37.6137818 36.4489796,38.2927581 C36.4489796,38.9717344 35.8327083,39.5223421 35.0727595,39.5223421 Z M35.0727595,34.6040062 L6.17213842,34.6040062 C5.41205209,34.6040062 4.79591837,34.0533985 4.79591837,33.3744222 C4.79591837,32.6954459 5.41205209,32.1448382 6.17213842,32.1448382 L35.0727595,32.1448382 C35.8327083,32.1448382 36.4489796,32.6954459 36.4489796,33.3744222 C36.4489796,34.0533985 35.8327083,34.6040062 35.0727595,34.6040062 Z M35.0727595,29.6856703 L6.17213842,29.6856703 C5.41205209,29.6856703 4.79591837,29.1351855 4.79591837,28.4560863 C4.79591837,27.7769871 5.41205209,27.2265023 6.17213842,27.2265023 L35.0727595,27.2265023 C35.8327083,27.2265023 36.4489796,27.7769871 36.4489796,28.4560863 C36.4489796,29.1351855 35.8327083,29.6856703 35.0727595,29.6856703 Z M35.0727595,24.7673344 L6.17213842,24.7673344 C5.41205209,24.7673344 4.79591837,24.2168496 4.79591837,23.5377504 C4.79591837,22.8586512 5.41205209,22.3081664 6.17213842,22.3081664 L35.0727595,22.3081664 C35.8327083,22.3081664 36.4489796,22.8586512 36.4489796,23.5377504 C36.4489796,24.2168496 35.8327083,24.7673344 35.0727595,24.7673344 Z M18.5581189,19.8489985 L6.17213842,19.8489985 C5.41205209,19.8489985 4.79591837,19.2985137 4.79591837,18.6194145 C4.79591837,17.9403153 5.41205209,17.3898305 6.17213842,17.3898305 L18.5581189,17.3898305 C19.3182052,17.3898305 19.934339,17.9403153 19.934339,18.6194145 C19.934339,19.2985137 19.3182052,19.8489985 18.5581189,19.8489985 Z" id="Shape" fill="#418CFE"></path>
        </g>
        <g id="Group-5-Copy-4" transform="translate(235.482759, 240.265873) rotate(-270.000000) translate(-235.482759, -240.265873) translate(198.733341, 226.265873)" fill="#7BB2FF">
            <rect id="Rectangle" transform="translate(29.979788, 12.551724) rotate(-540.000000) translate(-29.979788, -12.551724) " x="0" y="4.82758621" width="59.9595767" height="15.4482759"></rect>
            <path d="M66.0399266,6.67381267 L77.8749249,20.5719295 C78.2329905,20.9924143 78.1823897,21.6235541 77.7619049,21.9816197 C77.5810069,22.1356641 77.3511698,22.2202646 77.1135698,22.2202646 L53.4435731,22.2202646 C52.8912883,22.2202646 52.4435731,21.7725493 52.4435731,21.2202646 C52.4435731,20.9826645 52.5281735,20.7528275 52.6822179,20.5719295 L64.5172163,6.67381267 C64.8752819,6.25332785 65.5064217,6.20272705 65.9269065,6.56079262 C65.9675351,6.59539005 66.0053291,6.63318409 66.0399266,6.67381267 Z" id="Triangle-Copy" transform="translate(65.278571, 14.000000) scale(-1, 1) rotate(-450.000000) translate(-65.278571, -14.000000) "></path>
        </g>
        <g id="Group-5-Copy-6" transform="translate(398.482759, 240.265873) rotate(-270.000000) translate(-398.482759, -240.265873) translate(361.733341, 226.265873)" fill="#7BB2FF">
            <rect id="Rectangle" transform="translate(29.979788, 12.551724) rotate(-540.000000) translate(-29.979788, -12.551724) " x="-2.84217094e-14" y="4.82758621" width="59.9595767" height="15.4482759"></rect>
            <path d="M66.0399266,6.67381267 L77.8749249,20.5719295 C78.2329905,20.9924143 78.1823897,21.6235541 77.7619049,21.9816197 C77.5810069,22.1356641 77.3511698,22.2202646 77.1135698,22.2202646 L53.4435731,22.2202646 C52.8912883,22.2202646 52.4435731,21.7725493 52.4435731,21.2202646 C52.4435731,20.9826645 52.5281735,20.7528275 52.6822179,20.5719295 L64.5172163,6.67381267 C64.8752819,6.25332785 65.5064217,6.20272705 65.9269065,6.56079262 C65.9675351,6.59539005 66.0053291,6.63318409 66.0399266,6.67381267 Z" id="Triangle-Copy" transform="translate(65.278571, 14.000000) scale(-1, 1) rotate(-450.000000) translate(-65.278571, -14.000000) "></path>
        </g>
        <g id="Group-5-Copy-9" transform="translate(546.500000, 237.750000) rotate(-270.000000) translate(-546.500000, -237.750000) translate(512.250000, 229.250000)" fill="#7BB2FF">
            <rect id="Rectangle" transform="translate(30.000000, 8.000000) rotate(-540.000000) translate(-30.000000, -8.000000) " x="0" y="4.5" width="60" height="7"></rect>
            <path d="M64.7270132,4.76977863 L70.9070778,11.3133765 C71.2862895,11.7148947 71.2682064,12.3478014 70.8666882,12.7270132 C70.6810581,12.9023304 70.435397,13 70.1800646,13 L57.8199354,13 C57.2676506,13 56.8199354,12.5522847 56.8199354,12 C56.8199354,11.7446676 56.917605,11.4990065 57.0929222,11.3133765 L63.2729868,4.76977863 C63.6521986,4.36826036 64.2851053,4.35017731 64.6866235,4.72938901 C64.7004686,4.74246489 64.7139373,4.75593359 64.7270132,4.76977863 Z" id="Triangle-Copy" transform="translate(64.000000, 8.500000) scale(-1, 1) rotate(-450.000000) translate(-64.000000, -8.500000) "></path>
        </g>
        <g id="Group-5-Copy-10" transform="translate(566.143078, 237.750000) rotate(-90.000000) translate(-566.143078, -237.750000) translate(531.893078, 229.250000)" fill="#FF9696">
            <rect id="Rectangle" transform="translate(30.000000, 8.000000) rotate(-540.000000) translate(-30.000000, -8.000000) " x="0" y="4.5" width="60" height="7"></rect>
            <path d="M64.7270132,4.76977863 L70.9070778,11.3133765 C71.2862895,11.7148947 71.2682064,12.3478014 70.8666882,12.7270132 C70.6810581,12.9023304 70.435397,13 70.1800646,13 L57.8199354,13 C57.2676506,13 56.8199354,12.5522847 56.8199354,12 C56.8199354,11.7446676 56.917605,11.4990065 57.0929222,11.3133765 L63.2729868,4.76977863 C63.6521986,4.36826036 64.2851053,4.35017731 64.6866235,4.72938901 C64.7004686,4.74246489 64.7139373,4.75593359 64.7270132,4.76977863 Z" id="Triangle-Copy" transform="translate(64.000000, 8.500000) scale(-1, 1) rotate(-450.000000) translate(-64.000000, -8.500000) "></path>
        </g>
        <g id="Group-5-Copy-5" transform="translate(235.482759, 394.250582) rotate(-270.000000) translate(-235.482759, -394.250582) translate(198.249796, 380.250582)" fill="#7BB2FF">
            <rect id="Rectangle" transform="translate(29.979788, 12.551724) rotate(-540.000000) translate(-29.979788, -12.551724) " x="-2.84217094e-14" y="4.82758621" width="59.9595767" height="15.4482759"></rect>
            <path d="M67.0070165,6.67381267 L78.8420149,20.5719295 C79.2000805,20.9924143 79.1494797,21.6235541 78.7289948,21.9816197 C78.5480968,22.1356641 78.3182598,22.2202646 78.0806598,22.2202646 L54.410663,22.2202646 C53.8583782,22.2202646 53.410663,21.7725493 53.410663,21.2202646 C53.410663,20.9826645 53.4952634,20.7528275 53.6493079,20.5719295 L65.4843063,6.67381267 C65.8423718,6.25332785 66.4735116,6.20272705 66.8939965,6.56079262 C66.934625,6.59539005 66.9724191,6.63318409 67.0070165,6.67381267 Z" id="Triangle-Copy" transform="translate(66.245661, 14.000000) scale(-1, 1) rotate(-450.000000) translate(-66.245661, -14.000000) "></path>
        </g>
        <g id="Group-5-Copy-7" transform="translate(398.482759, 394.250582) rotate(-270.000000) translate(-398.482759, -394.250582) translate(361.249796, 380.250582)" fill="#7BB2FF">
            <rect id="Rectangle" transform="translate(29.979788, 12.551724) rotate(-540.000000) translate(-29.979788, -12.551724) " x="0" y="4.82758621" width="59.9595767" height="15.4482759"></rect>
            <path d="M67.0070165,6.67381267 L78.8420149,20.5719295 C79.2000805,20.9924143 79.1494797,21.6235541 78.7289948,21.9816197 C78.5480968,22.1356641 78.3182598,22.2202646 78.0806598,22.2202646 L54.410663,22.2202646 C53.8583782,22.2202646 53.410663,21.7725493 53.410663,21.2202646 C53.410663,20.9826645 53.4952634,20.7528275 53.6493079,20.5719295 L65.4843063,6.67381267 C65.8423718,6.25332785 66.4735116,6.20272705 66.8939965,6.56079262 C66.934625,6.59539005 66.9724191,6.63318409 67.0070165,6.67381267 Z" id="Triangle-Copy" transform="translate(66.245661, 14.000000) scale(-1, 1) rotate(-450.000000) translate(-66.245661, -14.000000) "></path>
        </g>
        <g id="Group-5-Copy-8" transform="translate(688.482759, 394.250582) rotate(-270.000000) translate(-688.482759, -394.250582) translate(651.249796, 380.250582)" fill="#7BB2FF">
            <rect id="Rectangle" transform="translate(29.979788, 12.551724) rotate(-540.000000) translate(-29.979788, -12.551724) " x="0" y="4.82758621" width="59.9595767" height="15.4482759"></rect>
            <path d="M67.0070165,6.67381267 L78.8420149,20.5719295 C79.2000805,20.9924143 79.1494797,21.6235541 78.7289948,21.9816197 C78.5480968,22.1356641 78.3182598,22.2202646 78.0806598,22.2202646 L54.410663,22.2202646 C53.8583782,22.2202646 53.410663,21.7725493 53.410663,21.2202646 C53.410663,20.9826645 53.4952634,20.7528275 53.6493079,20.5719295 L65.4843063,6.67381267 C65.8423718,6.25332785 66.4735116,6.20272705 66.8939965,6.56079262 C66.934625,6.59539005 66.9724191,6.63318409 67.0070165,6.67381267 Z" id="Triangle-Copy" transform="translate(66.245661, 14.000000) scale(-1, 1) rotate(-450.000000) translate(-66.245661, -14.000000) "></path>
        </g>
        <text id="git-add" font-family="Helvetica-Bold, Helvetica" font-size="21" font-weight="bold" fill="#0055C2">
            <tspan x="201.587891" y="234">git add</tspan>
        </text>
        <text id="git-commit-copy-2" font-family="Helvetica-Bold, Helvetica" font-size="21" font-weight="bold" fill="#0055C2">
            <tspan x="182.915527" y="395">git commit</tspan>
        </text>
        <text id="git-commit-copy-3" font-family="Helvetica-Bold, Helvetica" font-size="21" font-weight="bold" fill="#0055C2">
            <tspan x="634.915527" y="395">git commit</tspan>
        </text>
        <text id="Commit-A" font-family="Helvetica-Bold, Helvetica" font-size="21" font-weight="bold" fill="#0055C2">
            <tspan x="185.801758" y="519">Commit A</tspan>
        </text>
        <text id="Status-A" font-family="Helvetica" font-size="21" font-weight="normal" fill="#0055C2">
            <tspan x="195.886475" y="76">Status A</tspan>
        </text>
        <text id="Commit-B" font-family="Helvetica-Bold, Helvetica" font-size="21" font-weight="bold" fill="#0055C2">
            <tspan x="348.417236" y="519">Commit B</tspan>
        </text>
        <text id="Status-B" font-family="Helvetica" font-size="21" font-weight="normal" fill="#0055C2">
            <tspan x="358.312256" y="76">Status B</tspan>
        </text>
        <text id="Status-C" font-family="Helvetica" font-size="21" font-weight="normal" fill="#0055C2">
            <tspan x="507.73291" y="76">Status C</tspan>
        </text>
        <text id="Deleting-files" font-family="Helvetica" font-size="21" font-weight="normal" fill="#0055C2">
            <tspan x="629.386475" y="76">Deleting files</tspan>
        </text>
        <path id="Line-13" d="M350.017857,156 L359.017857,160.5 L350.017857,165 L350.017,161 L277.982143,161 L277.982143,160 L350.017,160 L350.017857,156 Z" fill="#0055C2" fill-rule="nonzero"></path>
        <path id="Line-13-Copy-2" d="M513.017857,156 L522.017857,160.5 L513.017857,165 L513.017,161 L440.982143,161 L440.982143,160 L513.017,160 L513.017857,156 Z" fill="#0055C2" fill-rule="nonzero"></path>
        <g id="Group" transform="translate(439.000000, 167.000000)" fill="#FF9696">
            <rect id="Rectangle" transform="translate(46.035088, 13.500000) scale(-1, 1) rotate(-540.000000) translate(-46.035088, -13.500000) " x="10.0701754" y="6.26785714" width="71.9298246" height="14.4642857"></rect>
            <path d="M7.92218679,7.08407739 L19.1124144,19.0086864 C19.4903407,19.4114149 19.4702345,20.0442605 19.0675061,20.4221868 C18.882122,20.596154 18.6374381,20.6929825 18.3832101,20.6929825 L-3.99724518,20.6929825 C-4.54952993,20.6929825 -4.99724518,20.2452672 -4.99724518,19.6929825 C-4.99724518,19.4387545 -4.9004167,19.1940706 -4.72644951,19.0086864 L6.46377812,7.08407739 C6.84170438,6.68134896 7.47455004,6.66124282 7.87727847,7.03916908 C7.89271961,7.05365927 7.9076966,7.06863626 7.92218679,7.08407739 Z" id="Triangle-Copy" transform="translate(7.192982, 13.500000) rotate(-450.000000) translate(-7.192982, -13.500000) "></path>
        </g>
        <g id="Group-Copy-2" transform="translate(275.000000, 533.000000)" fill="#FF9696">
            <rect id="Rectangle" transform="translate(46.000000, 9.000000) scale(-1, 1) rotate(-540.000000) translate(-46.000000, -9.000000) " x="10" y="4" width="72" height="10"></rect>
            <path d="M7.33696961,3.28007117 L13.988337,13.4527506 C14.2905744,13.9149962 14.1608623,14.5347321 13.6986167,14.8369696 C13.5359227,14.9433465 13.345752,15 13.1513673,15 L-0.151367341,15 C-0.703652091,15 -1.15136734,14.5522847 -1.15136734,14 C-1.15136734,13.8056154 -1.09471382,13.6154447 -0.988336955,13.4527506 L5.66303039,3.28007117 C5.96526786,2.81782562 6.58500381,2.68811345 7.04724936,2.99035092 C7.16278406,3.06589284 7.2614277,3.16453647 7.33696961,3.28007117 Z" id="Triangle-Copy" transform="translate(6.500000, 8.500000) rotate(-450.000000) translate(-6.500000, -8.500000) "></path>
        </g>
        <g id="Group-Copy-3" transform="translate(439.000000, 533.000000)" fill="#FF9696">
            <rect id="Rectangle" transform="translate(46.000000, 9.000000) scale(-1, 1) rotate(-540.000000) translate(-46.000000, -9.000000) " x="10" y="4" width="72" height="10"></rect>
            <path d="M7.33696961,3.28007117 L13.988337,13.4527506 C14.2905744,13.9149962 14.1608623,14.5347321 13.6986167,14.8369696 C13.5359227,14.9433465 13.345752,15 13.1513673,15 L-0.151367341,15 C-0.703652091,15 -1.15136734,14.5522847 -1.15136734,14 C-1.15136734,13.8056154 -1.09471382,13.6154447 -0.988336955,13.4527506 L5.66303039,3.28007117 C5.96526786,2.81782562 6.58500381,2.68811345 7.04724936,2.99035092 C7.16278406,3.06589284 7.2614277,3.16453647 7.33696961,3.28007117 Z" id="Triangle-Copy" transform="translate(6.500000, 8.500000) rotate(-450.000000) translate(-6.500000, -8.500000) "></path>
        </g>
        <text id="git-restore-copy" font-family="Helvetica-Bold, Helvetica" font-size="21" font-weight="bold" fill="#0055C2">
            <tspan x="428.653564" y="212">git restore</tspan>
        </text>
        <text id="git-reset" font-family="Helvetica" font-size="16" font-weight="normal" fill="#0055C2">
            <tspan x="286.542969" y="566">git reset</tspan>
        </text>
        <text id="git-reset-copy" font-family="Helvetica" font-size="16" font-weight="normal" fill="#0055C2">
            <tspan x="450.542969" y="566">git reset</tspan>
        </text>
        <text id="git-reset-copy-2" font-family="Helvetica-Bold, Helvetica" font-size="21" font-weight="bold" fill="#0055C2">
            <tspan x="582.672363" y="229">git </tspan>
            <tspan x="570.398438" y="254">reset</tspan>
        </text>
        <g id="delete-copy-3" transform="translate(680.000000, 161.000000)" fill-rule="nonzero">
            <path d="M16.1575586,0 C7.23605028,0 0,7.23602497 0,16.1575519 C0,25.0790788 7.23605028,32.3151038 16.1575586,32.3151038 C25.0790535,32.3151038 32.3151038,25.0790788 32.3151038,16.1575519 C32.3151038,7.23602497 25.0790535,0 16.1575586,0 Z" id="Path" fill="#EE4C45"></path>
            <path d="M13.709438,7.83396455 L13.709438,9.22122911 L9.79245569,9.22122911 L9.79245569,10.6084937 L21.5434025,10.6084937 L21.5434025,9.22122911 L17.6264202,9.22122911 L17.6264202,7.83396455 L13.709438,7.83396455 Z M11.0981164,11.9957582 L11.0981164,24.4811392 L20.2377418,24.4811392 L20.2377418,11.9957582 L11.0981164,11.9957582 Z M12.4037772,13.3830228 L13.709438,13.3830228 L13.709438,23.0938747 L12.4037772,23.0938747 L12.4037772,13.3830228 Z M15.0150987,13.3830228 L16.3207595,13.3830228 L16.3207595,23.0938747 L15.0150987,23.0938747 L15.0150987,13.3830228 Z M17.6264202,13.3830228 L18.932081,13.3830228 L18.932081,23.0938747 L17.6264202,23.0938747 L17.6264202,13.3830228 Z" id="Shape" fill="#FFFFFF"></path>
        </g>
        <g id="delete-copy-5" transform="translate(680.000000, 464.000000)" fill-rule="nonzero">
            <path d="M16.1575586,0 C7.23605028,0 0,7.23602497 0,16.1575519 C0,25.0790788 7.23605028,32.3151038 16.1575586,32.3151038 C25.0790535,32.3151038 32.3151038,25.0790788 32.3151038,16.1575519 C32.3151038,7.23602497 25.0790535,0 16.1575586,0 Z" id="Path" fill="#EE4C45"></path>
            <path d="M13.709438,7.83396455 L13.709438,9.22122911 L9.79245569,9.22122911 L9.79245569,10.6084937 L21.5434025,10.6084937 L21.5434025,9.22122911 L17.6264202,9.22122911 L17.6264202,7.83396455 L13.709438,7.83396455 Z M11.0981164,11.9957582 L11.0981164,24.4811392 L20.2377418,24.4811392 L20.2377418,11.9957582 L11.0981164,11.9957582 Z M12.4037772,13.3830228 L13.709438,13.3830228 L13.709438,23.0938747 L12.4037772,23.0938747 L12.4037772,13.3830228 Z M15.0150987,13.3830228 L16.3207595,13.3830228 L16.3207595,23.0938747 L15.0150987,23.0938747 L15.0150987,13.3830228 Z M17.6264202,13.3830228 L18.932081,13.3830228 L18.932081,23.0938747 L17.6264202,23.0938747 L17.6264202,13.3830228 Z" id="Shape" fill="#FFFFFF"></path>
        </g>
        <g id="delete-copy-4" transform="translate(679.000000, 310.684896)" fill-rule="nonzero">
            <path d="M16.1575586,0 C7.23605028,0 0,7.23602497 0,16.1575519 C0,25.0790788 7.23605028,32.3151038 16.1575586,32.3151038 C25.0790535,32.3151038 32.3151038,25.0790788 32.3151038,16.1575519 C32.3151038,7.23602497 25.0790535,0 16.1575586,0 Z" id="Path" fill="#EE4C45"></path>
            <path d="M13.709438,7.83396455 L13.709438,9.22122911 L9.79245569,9.22122911 L9.79245569,10.6084937 L21.5434025,10.6084937 L21.5434025,9.22122911 L17.6264202,9.22122911 L17.6264202,7.83396455 L13.709438,7.83396455 Z M11.0981164,11.9957582 L11.0981164,24.4811392 L20.2377418,24.4811392 L20.2377418,11.9957582 L11.0981164,11.9957582 Z M12.4037772,13.3830228 L13.709438,13.3830228 L13.709438,23.0938747 L12.4037772,23.0938747 L12.4037772,13.3830228 Z M15.0150987,13.3830228 L16.3207595,13.3830228 L16.3207595,23.0938747 L15.0150987,23.0938747 L15.0150987,13.3830228 Z M17.6264202,13.3830228 L18.932081,13.3830228 L18.932081,23.0938747 L17.6264202,23.0938747 L17.6264202,13.3830228 Z" id="Shape" fill="#FFFFFF"></path>
        </g>
        <line x1="624.5" y1="55.4822097" x2="624.5" y2="569.51779" id="Line-14" stroke="#0055C2" stroke-linecap="square"></line>
        <path id="Line-12-Copy" d="M687.5,203.980769 L692,212.980769 L688,212.98 L688,270.019 L692,270.019231 L687.5,279.019231 L683,270.019231 L687,270.019 L687,212.98 L683,212.980769 L687.5,203.980769 Z" fill="#0055C2" fill-rule="nonzero"></path>
        <g id="Group-3-Copy" transform="translate(214.000000, 470.000000)">
            <rect id="Rectangle" fill="#DE4040" x="0" y="1" width="42" height="12" rx="2"></rect>
            <text id="comitted" font-family="Helvetica" font-size="10" font-weight="normal" fill="#FFFFFF">
                <tspan x="2.86363636" y="10">comitted</tspan>
            </text>
        </g>
        <g id="Group-3-Copy-2" transform="translate(378.000000, 470.000000)">
            <rect id="Rectangle" fill="#DE4040" x="0" y="1" width="42" height="12" rx="2"></rect>
            <text id="comitted" font-family="Helvetica" font-size="10" font-weight="normal" fill="#FFFFFF">
                <tspan x="2.86363636" y="10">comitted</tspan>
            </text>
        </g>
        <text id="git-rm" font-family="Helvetica-Bold, Helvetica" font-size="21" font-weight="bold" fill="#0055C2">
            <tspan x="694.832764" y="236">git rm</tspan>
        </text>
        <g id="bloovee-winner-logo" transform="translate(725.000000, 580.000000)">
            <path d="M13,13.7751507 C13,14.396312 13.4732558,14.8717809 14.0514961,14.8717809 C14.6474304,14.8717809 15.1204503,14.3968042 15.1204503,13.7751507 L15.1204503,2.09687626 C15.1204503,1.49368045 14.6474304,1 14.0514961,1 C13.4557977,1 13,1.49392656 13,2.09687626 L13,13.7751507 Z M21.7920364,15 C24.6483217,15 26.751078,12.7149437 26.751078,9.97312215 L26.751078,9.93645297 C26.751078,7.17641992 24.6657798,4.92778666 21.8269526,4.92778666 C18.9881254,4.92778666 16.885369,7.212843 16.885369,9.97312215 L16.885369,10.0095452 C16.885369,12.7516128 18.9706673,15 21.7920364,15 Z M21.8269526,13.0621935 C20.179994,13.0621935 19.0055834,11.6547366 19.0055834,9.97312215 L19.0055834,9.93645297 C19.0055834,8.25459244 20.0919958,6.86534709 21.7920364,6.86534709 C23.456689,6.86534709 24.6306277,8.27305008 24.6306277,9.97312215 L24.6306277,10.0095452 C24.6306277,11.6731942 23.5444513,13.0621935 21.8269526,13.0621935 Z M32.8092717,15 C35.665557,15 37.7683133,12.7149437 37.7683133,9.97312215 L37.7683133,9.93645297 C37.7683133,7.17641992 35.6830151,4.92778666 32.8441878,4.92778666 C30.0053606,4.92778666 27.9026043,7.212843 27.9026043,9.97312215 L27.9026043,10.0095452 C27.9026043,12.7516128 29.9879025,15 32.8092717,15 Z M32.8441878,13.0621935 C31.1969933,13.0621935 30.0228187,11.6547366 30.0228187,9.97312215 L30.0228187,9.93645297 C30.0228187,8.25459244 31.109231,6.86534709 32.8092717,6.86534709 C34.4739243,6.86534709 35.647863,8.27305008 35.647863,9.97312215 L35.647863,10.0095452 C35.647863,11.6731942 34.5614506,13.0621935 32.8441878,13.0621935 Z M44.1416963,13.9944275 L47.2261164,6.6096472 C47.2784906,6.49988574 47.3487948,6.28060893 47.3487948,6.07954366 C47.3487948,5.47610175 46.8929971,5.01933658 46.3147568,5.01933658 C45.7539746,5.01933658 45.4737015,5.40300947 45.3158709,5.78692847 L42.8976893,12.2215093 L40.5144239,5.82335156 C40.3393711,5.36634029 40.041404,5.01933658 39.4629278,5.01933658 C38.8846875,5.01933658 38.4116676,5.53098247 38.4116676,6.07954366 C38.4116676,6.28060893 38.4817358,6.46346265 38.534346,6.62785874 L41.6182943,13.9944275 C41.8638872,14.5796579 42.2491448,14.9633308 42.8273851,14.9633308 L42.9326055,14.9633308 C43.5108458,14.9633308 43.8965752,14.5612003 44.1416963,13.9944275 Z M50.0949054,9.27837643 C50.2876522,7.77961573 51.1987758,6.73762019 52.4956289,6.73762019 C53.8974665,6.73762019 54.7036056,7.8524619 54.8437422,9.27837643 L50.0949054,9.27837643 Z M56.070527,13.72027 C56.2281217,13.5558739 56.3508002,13.3181395 56.3508002,13.0439819 C56.3508002,12.5320899 55.9830006,12.1481709 55.5095089,12.1481709 C55.2641519,12.1481709 55.1242513,12.2215093 54.9664207,12.3492362 C54.3704864,12.8611282 53.6695676,13.1901665 52.7759021,13.1901665 C51.4089807,13.1901665 50.3402624,12.3128131 50.1123635,10.7409601 L55.9126964,10.7409601 C56.4560206,10.7409601 56.9115824,10.3021604 56.9115824,9.68050697 C56.9115824,7.45057746 55.4568987,4.92778666 52.513087,4.92778666 C49.8672425,4.92778666 47.9919132,7.19438536 47.9919132,9.95466451 L47.9919132,9.9913337 C47.9919132,12.9708897 50.0597533,15 52.7409859,15 C54.1779755,15 55.2292357,14.5063195 56.070527,13.72027 Z M60.1833231,9.27837643 C60.3763058,7.77961573 61.2871935,6.73762019 62.5842825,6.73762019 C63.9858841,6.73762019 64.7920233,7.8524619 64.9321598,9.27837643 L60.1833231,9.27837643 Z M66.1589447,13.72027 C66.3167752,13.5558739 66.4394537,13.3181395 66.4394537,13.0439819 C66.4394537,12.5320899 66.0714183,12.1481709 65.5981624,12.1481709 C65.3528055,12.1481709 65.2126689,12.2215093 65.0548383,12.3492362 C64.4591399,12.8611282 63.7582212,13.1901665 62.8643197,13.1901665 C61.4976342,13.1901665 60.4289159,12.3128131 60.2007812,10.7409601 L66.0011141,10.7409601 C66.5444382,10.7409601 67,10.3021604 67,9.68050697 C67,7.45057746 65.5455522,4.92778666 62.6015046,4.92778666 C59.9556601,4.92778666 58.0805667,7.19438536 58.0805667,9.95466451 L58.0805667,9.9913337 C58.0805667,12.9708897 60.1484069,15 62.8294035,15 C64.2663932,15 65.3178893,14.5063195 66.1589447,13.72027 L66.1589447,13.72027 Z" id="Fill-1" fill="#030060"></path>
            <g id="Group-4">
                <mask id="mask-11" fill="white">
                    <use xlink:href="#path-10"></use>
                </mask>
                <g id="Clip-3"></g>
                <path d="M8.68744595,14.5405413 C10.6544909,13.5649687 12,11.5915112 12,9.31636202 C12,6.07252388 9.26504479,3.44227578 5.89152197,3.44227578 C4.52034181,3.44227578 3.25480793,3.87689217 2.23537065,4.61058921 L2.23537065,1.05770107 C2.23537065,0.476155373 1.74046224,0 1.11695169,0 C0.493934821,0 0.0167986821,0.476630104 0.0167986821,1.05770107 L0.0167986821,1.80184219 L0,9.32158406 C-0.0041824725,11.2003327 0.951817666,12.865215 2.41753644,13.8939574 C2.4777647,13.9362085 2.55848043,13.9312238 2.6127846,13.8823265 C2.66758244,13.8334292 2.6779496,13.7558106 2.63746831,13.6950451 C0.724974359,10.8146136 1.16014819,5.53963813 5.89176881,5.53963813 C8.05899866,5.53963813 9.80709909,7.22944376 9.81623206,9.31351363 C9.82240299,10.8599505 9.11620201,12.0365717 8.19549958,12.7781018 C6.36026565,14.2561773 3.64974731,12.6382934 4.49738595,10.4697214 C4.5894562,10.2335427 4.71879884,9.9959397 4.88664808,9.76189723 L5.12361171,9.47705853 C5.19766284,9.39967734 5.25048599,9.29903433 5.2146946,9.19411874 C5.01401603,8.62800181 3.46832203,8.97526767 3.04005964,10.0315445 C3.34292878,9.79631524 3.65986763,9.66433998 3.96940137,9.71489885 C2.38890334,11.275815 3.44141679,13.9563846 5.46005069,14.7513219 C6.40494316,15.1232738 7.55964718,15.0976383 8.68744595,14.5405413" id="Fill-2" fill="url(#linearGradient-12)" mask="url(#mask-11)"></path>
            </g>
        </g>
        <text id="Edit-and-Commit-Code" fill-rule="nonzero" font-family="Helvetica" font-size="18" font-weight="normal" fill="#0055C2">
            <tspan x="10" y="23">Edit and Commit Codes Overveiw (1)</tspan>
        </text>
        <g id="git" transform="translate(704.000000, 9.000000)">
            <path d="M46.8658496,11.2380575 C45.1623498,11.2380575 43.8939053,12.0891281 43.8939053,14.1376499 C43.8939053,15.6808485 44.7297841,16.7522856 46.7743573,16.7522856 C48.5071097,16.7522856 49.6846843,15.7131436 49.6846843,14.073693 C49.6846843,12.2157755 48.6309666,11.2380575 46.8658496,11.2380575 L46.8658496,11.2380575 Z M43.4607172,25.7011913 C43.0574041,26.2046147 42.6553359,26.7397 42.6553359,27.3710373 C42.6553359,28.6305458 44.2337339,29.0092215 46.4027864,29.0092215 C48.1984009,29.0092215 50.6450424,28.8813076 50.6450424,27.1823327 C50.6450424,26.1723196 49.4674678,26.1102624 47.9805621,26.0152768 L43.4607172,25.7011913 Z M52.6255087,11.3330431 C53.1825537,12.0580995 53.7719634,13.0662128 53.7719634,14.5156924 C53.7719634,18.0124273 51.0776081,20.0603158 47.1764255,20.0603158 C46.1843252,20.0603158 45.2862067,19.9349349 44.7291617,19.7772589 L43.7071863,21.4471049 L46.7413702,21.6351763 C52.0989611,21.9828234 55.257002,22.1404995 55.257002,26.3293624 C55.257002,29.9533779 52.1300809,32 46.7413702,32 C41.1360655,32 39,30.5505204 39,28.0625322 C39,26.6440812 39.6199071,25.8898959 40.7034998,24.848221 C39.680902,24.4087545 39.3410734,23.6216409 39.3410734,22.7705703 C39.3410734,22.0771758 39.6815244,21.4471049 40.2391918,20.8480627 C40.7968593,20.2502869 41.416144,19.6506115 42.1586633,18.9578502 C40.6412601,18.2017651 39.4960502,16.563581 39.4960502,14.231369 C39.4960502,10.6086199 41.8493321,8.12063165 46.5870158,8.12063165 C47.9189448,8.12063165 48.7249485,8.24537935 49.436348,8.43598369 L55.4754632,8.43598369 L55.4754632,11.1133099 L52.6255087,11.3330431 L52.6255087,11.3330431 Z M60.9233016,5.60858036 C59.1575621,5.60858036 58.1355867,4.56817192 58.1355867,2.77167847 C58.1355867,0.977717972 59.1575621,0 60.9233016,0 C62.7195385,0 63.7408917,0.977084735 63.7408917,2.77167847 C63.7415139,4.56817192 62.7195385,5.60858036 60.9233016,5.60858036 Z M56.9275147,24.5423675 L56.9275147,22.0543792 L58.50778,21.8340127 C58.9409681,21.770689 59.0025853,21.6763367 59.0025853,21.2026754 L59.0025853,11.9403174 C59.0025853,11.59457 58.9104706,11.372937 58.5998947,11.279218 L56.9275147,10.6801757 L57.2679657,8.12949697 L63.6792742,8.12949697 L63.6792742,21.2033087 C63.6792742,21.7086318 63.7091492,21.770689 64.174702,21.834646 L65.7543448,22.0550125 L65.7543448,24.5430008 L56.9275147,24.5430008 L56.9275147,24.5423675 Z M78,23.32022 C76.6674487,23.9806863 74.7174798,24.5803617 72.9511179,24.5803617 C69.2665294,24.5803617 67.8736056,23.0694582 67.8736056,19.5074999 L67.8736056,11.2532552 C67.8736056,11.0651838 67.8736056,10.9385364 67.6252693,10.9385364 L65.458084,10.9385364 L65.458084,8.13456287 C68.1841815,7.81857759 69.2671518,6.43242174 69.6076028,2.99837733 L72.5502944,2.99837733 L72.5502944,7.47346341 C72.5502944,7.69319666 72.5502944,7.78881545 72.7980083,7.78881545 L77.1641212,7.78881545 L77.1641212,10.9391697 L72.5502944,10.9391697 L72.5502944,18.4683579 C72.5502944,20.3269086 72.9841049,21.0513318 74.6558625,21.0513318 C75.5241059,21.0513318 76.4209796,20.8315985 77.1641212,20.5479083 L78,23.32022 L78,23.32022 Z" id="Shape" fill="#31251C" fill-rule="nonzero"></path>
            <path d="M32.3772539,15.0299695 L17.9690664,0.622277028 C17.140005,-0.207425676 15.7941261,-0.207425676 14.9644314,0.622277028 L11.9724635,3.61427365 L15.7668919,7.40937182 C16.6497884,7.11169223 17.6606226,7.31120089 18.3636464,8.01486479 C19.0704703,8.72232885 19.2687104,9.74203981 18.9634334,10.6274783 L22.6210571,14.2851371 C23.5052204,13.9804906 24.5268216,14.1774658 25.2336455,14.8849299 C26.221679,15.8723394 26.221679,17.4728423 25.2336455,18.4608852 C24.2449787,19.4489281 22.6451246,19.4489281 21.6570912,18.4608852 C20.914166,17.7173195 20.7304932,16.6260388 21.1067059,15.7108324 L17.6954571,12.2995509 L17.6948238,21.2768075 C17.9361319,21.3958793 18.1628729,21.5542195 18.3636464,21.7543616 C19.3516798,22.7417711 19.3516798,24.3416406 18.3636464,25.3309502 C17.375613,26.3183598 15.7744921,26.3183598 14.7877254,25.3309502 C13.799692,24.3416406 13.799692,22.7417711 14.7877254,21.7543616 C15.0322003,21.5105176 15.3140432,21.3262096 15.6155201,21.2027043 L15.6155201,12.1424774 C15.3140432,12.0196054 15.0322003,11.8359308 14.7877254,11.5908201 C14.0391001,10.842821 13.8592273,9.74520661 14.2430403,8.82620003 L10.5024471,5.08430417 L0.622746073,14.9634666 C-0.207582024,15.7938027 -0.207582024,17.1396945 0.622746073,17.9700305 L15.0309336,32.377723 C15.8606284,33.2074257 17.2058739,33.2074257 18.0368353,32.377723 L32.3772539,18.0359 C33.207582,17.2061973 33.207582,15.8596722 32.3772539,15.0299695 L32.3772539,15.0299695 Z" id="Path" fill="#F34F29" fill-rule="nonzero"></path>
            <polygon id="Path" points="1.12409637e-15 0 79 0 79 33 0 33"></polygon>
        </g>
        <g id="Group-6" transform="translate(307.000000, 59.000000)" stroke="#0055C2">
            <circle id="Oval" fill="#C5DDFF" cx="10" cy="10" r="9.5"></circle>
            <g id="Group-5" transform="translate(3.000000, 5.000000)">
                <polyline id="Path-5" points="7 0 13 5.30394061 7 11"></polyline>
                <line x1="12" y1="5.5" x2="0" y2="5.5" id="Line-15" stroke-linecap="square"></line>
            </g>
        </g>
        <g id="Group-6-Copy" transform="translate(469.000000, 59.000000)" stroke="#0055C2">
            <circle id="Oval" fill="#C5DDFF" cx="10" cy="10" r="9.5"></circle>
            <g id="Group-5" transform="translate(3.000000, 5.000000)">
                <polyline id="Path-5" points="7 0 13 5.30394061 7 11"></polyline>
                <line x1="12" y1="5.5" x2="0" y2="5.5" id="Line-15" stroke-linecap="square"></line>
            </g>
        </g>
    </g>
</svg>