<?xml version="1.0" encoding="UTF-8"?>
<svg width="800px" height="600px" viewBox="0 0 800 600" version="1.1" xmlns="http://www.w3.org/2000/svg" xmlns:xlink="http://www.w3.org/1999/xlink">
    <title>2041-10-16-22-10_RebaseBranch—GitRebase</title>
    <defs>
        <rect id="path-1" x="20" y="62" width="766" height="140"></rect>
        <filter x="-0.5%" y="-2.9%" width="102.1%" height="111.4%" filterUnits="objectBoundingBox" id="filter-2">
            <feOffset dx="4" dy="4" in="SourceAlpha" result="shadowOffsetOuter1"></feOffset>
            <feGaussianBlur stdDeviation="2" in="shadowOffsetOuter1" result="shadowBlurOuter1"></feGaussianBlur>
            <feComposite in="shadowBlurOuter1" in2="SourceAlpha" operator="out" result="shadowBlurOuter1"></feComposite>
            <feColorMatrix values="0 0 0 0 0   0 0 0 0 0   0 0 0 0 0  0 0 0 0.5 0" type="matrix" in="shadowBlurOuter1"></feColorMatrix>
        </filter>
        <ellipse id="path-3" cx="163.198113" cy="289.993671" rx="14.009434" ry="13.9936709"></ellipse>
        <mask id="mask-4" maskContentUnits="userSpaceOnUse" maskUnits="objectBoundingBox" x="0" y="0" width="28.0188679" height="27.9873418" fill="white">
            <use xlink:href="#path-3"></use>
        </mask>
        <ellipse id="path-5" cx="219.235849" cy="289.993671" rx="14.009434" ry="13.9936709"></ellipse>
        <mask id="mask-6" maskContentUnits="userSpaceOnUse" maskUnits="objectBoundingBox" x="0" y="0" width="28.0188679" height="27.9873418" fill="white">
            <use xlink:href="#path-5"></use>
        </mask>
        <path d="M8.68744595,14.5405413 C10.6544909,13.5649687 12,11.5915112 12,9.31636202 C12,6.07252388 9.26504479,3.44227578 5.89152197,3.44227578 C4.52034181,3.44227578 3.25480793,3.87689217 2.23537065,4.61058921 L2.23537065,1.05770107 C2.23537065,0.476155373 1.74046224,0 1.11695169,0 C0.493934821,0 0.0167986821,0.476630104 0.0167986821,1.05770107 L0.0167986821,1.80184219 L0,9.32158406 C-0.0041824725,11.2003327 0.951817666,12.865215 2.41753644,13.8939574 C2.4777647,13.9362085 2.55848043,13.9312238 2.6127846,13.8823265 C2.66758244,13.8334292 2.6779496,13.7558106 2.63746831,13.6950451 C0.724974359,10.8146136 1.16014819,5.53963813 5.89176881,5.53963813 C8.05899866,5.53963813 9.80709909,7.22944376 9.81623206,9.31351363 C9.82240299,10.8599505 9.11620201,12.0365717 8.19549958,12.7781018 C6.36026565,14.2561773 3.64974731,12.6382934 4.49738595,10.4697214 C4.5894562,10.2335427 4.71879884,9.9959397 4.88664808,9.76189723 L5.12361171,9.47705853 C5.19766284,9.39967734 5.25048599,9.29903433 5.2146946,9.19411874 C5.01401603,8.62800181 3.46832203,8.97526767 3.04005964,10.0315445 C3.34292878,9.79631524 3.65986763,9.66433998 3.96940137,9.71489885 C2.38890334,11.275815 3.44141679,13.9563846 5.46005069,14.7513219 C6.40494316,15.1232738 7.55964718,15.0976383 8.68744595,14.5405413" id="path-7"></path>
        <linearGradient x1="28.568518%" y1="104.445731%" x2="78.3472072%" y2="20.6880271%" id="linearGradient-9">
            <stop stop-color="#000F98" offset="0%"></stop>
            <stop stop-color="#00A5FD" offset="100%"></stop>
        </linearGradient>
        <path d="M373.356873,354 L423.351351,354 C423.903636,354 424.351351,354.447715 424.351351,355 L424.351351,373.756098 C424.351351,374.308382 424.799067,374.756098 425.351351,374.756098 L446.152079,374.756098 C446.704364,374.756098 447.152079,375.203813 447.152079,375.756098 C447.152079,376.198241 446.861721,376.587903 446.438041,376.714339 L398.861454,390.912297 C398.669932,390.969452 398.465678,390.967904 398.275044,390.907854 L353.202488,376.709896 C352.67572,376.543962 352.383205,375.982417 352.549139,375.455649 C352.680298,375.039274 353.066393,374.756098 353.502937,374.756098 L371.356873,374.756098 C371.909158,374.756098 372.356873,374.308382 372.356873,373.756098 L372.356873,355 C372.356873,354.447715 372.804588,354 373.356873,354 Z" id="path-10"></path>
        <filter x="-0.5%" y="-16.2%" width="96.8%" height="121.5%" filterUnits="objectBoundingBox" id="filter-11">
            <feOffset dx="-2" dy="-2" in="SourceAlpha" result="shadowOffsetOuter1"></feOffset>
            <feGaussianBlur stdDeviation="1" in="shadowOffsetOuter1" result="shadowBlurOuter1"></feGaussianBlur>
            <feColorMatrix values="0 0 0 0 0   0 0 0 0 0   0 0 0 0 0  0 0 0 0.5 0" type="matrix" in="shadowBlurOuter1"></feColorMatrix>
        </filter>
    </defs>
    <g id="2041-10-16-22-10_RebaseBranch—GitRebase" stroke="none" stroke-width="1" fill="none" fill-rule="evenodd">
        <rect fill="#FFFFFF" x="0" y="0" width="800" height="600"></rect>
        <rect id="Rectangle-Copy" fill="#E1EDFF" x="34" y="333" width="240" height="72" rx="22.5"></rect>
        <rect id="Rectangle-Copy-2" fill="#E1EDFF" x="420" y="333" width="361" height="72" rx="22.5"></rect>
        <g id="Rectangle-Copy-4">
            <use fill="black" fill-opacity="1" filter="url(#filter-2)" xlink:href="#path-1"></use>
            <rect stroke="#006AE1" stroke-width="4" stroke-linejoin="square" fill="#FFFFFF" fill-rule="evenodd" x="22" y="64" width="762" height="136"></rect>
        </g>
        <text id="Rebase-Branch-—-Git" fill-rule="nonzero" font-family="Helvetica" font-size="18" font-weight="normal" fill="#0055C2">
            <tspan x="10" y="23">Rebase Branch — Git Rebase</tspan>
        </text>
        <g id="git" transform="translate(704.000000, 9.000000)">
            <path d="M46.8658496,11.2380575 C45.1623498,11.2380575 43.8939053,12.0891281 43.8939053,14.1376499 C43.8939053,15.6808485 44.7297841,16.7522856 46.7743573,16.7522856 C48.5071097,16.7522856 49.6846843,15.7131436 49.6846843,14.073693 C49.6846843,12.2157755 48.6309666,11.2380575 46.8658496,11.2380575 L46.8658496,11.2380575 Z M43.4607172,25.7011913 C43.0574041,26.2046147 42.6553359,26.7397 42.6553359,27.3710373 C42.6553359,28.6305458 44.2337339,29.0092215 46.4027864,29.0092215 C48.1984009,29.0092215 50.6450424,28.8813076 50.6450424,27.1823327 C50.6450424,26.1723196 49.4674678,26.1102624 47.9805621,26.0152768 L43.4607172,25.7011913 Z M52.6255087,11.3330431 C53.1825537,12.0580995 53.7719634,13.0662128 53.7719634,14.5156924 C53.7719634,18.0124273 51.0776081,20.0603158 47.1764255,20.0603158 C46.1843252,20.0603158 45.2862067,19.9349349 44.7291617,19.7772589 L43.7071863,21.4471049 L46.7413702,21.6351763 C52.0989611,21.9828234 55.257002,22.1404995 55.257002,26.3293624 C55.257002,29.9533779 52.1300809,32 46.7413702,32 C41.1360655,32 39,30.5505204 39,28.0625322 C39,26.6440812 39.6199071,25.8898959 40.7034998,24.848221 C39.680902,24.4087545 39.3410734,23.6216409 39.3410734,22.7705703 C39.3410734,22.0771758 39.6815244,21.4471049 40.2391918,20.8480627 C40.7968593,20.2502869 41.416144,19.6506115 42.1586633,18.9578502 C40.6412601,18.2017651 39.4960502,16.563581 39.4960502,14.231369 C39.4960502,10.6086199 41.8493321,8.12063165 46.5870158,8.12063165 C47.9189448,8.12063165 48.7249485,8.24537935 49.436348,8.43598369 L55.4754632,8.43598369 L55.4754632,11.1133099 L52.6255087,11.3330431 L52.6255087,11.3330431 Z M60.9233016,5.60858036 C59.1575621,5.60858036 58.1355867,4.56817192 58.1355867,2.77167847 C58.1355867,0.977717972 59.1575621,0 60.9233016,0 C62.7195385,0 63.7408917,0.977084735 63.7408917,2.77167847 C63.7415139,4.56817192 62.7195385,5.60858036 60.9233016,5.60858036 Z M56.9275147,24.5423675 L56.9275147,22.0543792 L58.50778,21.8340127 C58.9409681,21.770689 59.0025853,21.6763367 59.0025853,21.2026754 L59.0025853,11.9403174 C59.0025853,11.59457 58.9104706,11.372937 58.5998947,11.279218 L56.9275147,10.6801757 L57.2679657,8.12949697 L63.6792742,8.12949697 L63.6792742,21.2033087 C63.6792742,21.7086318 63.7091492,21.770689 64.174702,21.834646 L65.7543448,22.0550125 L65.7543448,24.5430008 L56.9275147,24.5430008 L56.9275147,24.5423675 Z M78,23.32022 C76.6674487,23.9806863 74.7174798,24.5803617 72.9511179,24.5803617 C69.2665294,24.5803617 67.8736056,23.0694582 67.8736056,19.5074999 L67.8736056,11.2532552 C67.8736056,11.0651838 67.8736056,10.9385364 67.6252693,10.9385364 L65.458084,10.9385364 L65.458084,8.13456287 C68.1841815,7.81857759 69.2671518,6.43242174 69.6076028,2.99837733 L72.5502944,2.99837733 L72.5502944,7.47346341 C72.5502944,7.69319666 72.5502944,7.78881545 72.7980083,7.78881545 L77.1641212,7.78881545 L77.1641212,10.9391697 L72.5502944,10.9391697 L72.5502944,18.4683579 C72.5502944,20.3269086 72.9841049,21.0513318 74.6558625,21.0513318 C75.5241059,21.0513318 76.4209796,20.8315985 77.1641212,20.5479083 L78,23.32022 L78,23.32022 Z" id="Shape" fill="#31251C" fill-rule="nonzero"></path>
            <path d="M32.3772539,15.0299695 L17.9690664,0.622277028 C17.140005,-0.207425676 15.7941261,-0.207425676 14.9644314,0.622277028 L11.9724635,3.61427365 L15.7668919,7.40937182 C16.6497884,7.11169223 17.6606226,7.31120089 18.3636464,8.01486479 C19.0704703,8.72232885 19.2687104,9.74203981 18.9634334,10.6274783 L22.6210571,14.2851371 C23.5052204,13.9804906 24.5268216,14.1774658 25.2336455,14.8849299 C26.221679,15.8723394 26.221679,17.4728423 25.2336455,18.4608852 C24.2449787,19.4489281 22.6451246,19.4489281 21.6570912,18.4608852 C20.914166,17.7173195 20.7304932,16.6260388 21.1067059,15.7108324 L17.6954571,12.2995509 L17.6948238,21.2768075 C17.9361319,21.3958793 18.1628729,21.5542195 18.3636464,21.7543616 C19.3516798,22.7417711 19.3516798,24.3416406 18.3636464,25.3309502 C17.375613,26.3183598 15.7744921,26.3183598 14.7877254,25.3309502 C13.799692,24.3416406 13.799692,22.7417711 14.7877254,21.7543616 C15.0322003,21.5105176 15.3140432,21.3262096 15.6155201,21.2027043 L15.6155201,12.1424774 C15.3140432,12.0196054 15.0322003,11.8359308 14.7877254,11.5908201 C14.0391001,10.842821 13.8592273,9.74520661 14.2430403,8.82620003 L10.5024471,5.08430417 L0.622746073,14.9634666 C-0.207582024,15.7938027 -0.207582024,17.1396945 0.622746073,17.9700305 L15.0309336,32.377723 C15.8606284,33.2074257 17.2058739,33.2074257 18.0368353,32.377723 L32.3772539,18.0359 C33.207582,17.2061973 33.207582,15.8596722 32.3772539,15.0299695 L32.3772539,15.0299695 Z" id="Path" fill="#F34F29" fill-rule="nonzero"></path>
            <polygon id="Path" points="1.12409637e-15 0 79 0 79 33 0 33"></polygon>
        </g>
        <text id="$-git-rebase-[branch" font-family="Helvetica-Bold, Helvetica" font-size="36" font-weight="bold" fill="#0055C2">
            <tspan x="173.930664" y="149">$ git rebase [branch name]</tspan>
        </text>
        <text id="$-git-rebase" font-family="Helvetica-Bold, Helvetica" font-size="21" font-weight="bold" fill="#0055C2">
            <tspan x="43" y="235">$ git rebase</tspan>
        </text>
        <text id="$-git-merge" font-family="Helvetica-Bold, Helvetica" font-size="21" font-weight="bold" fill="#0055C2">
            <tspan x="422" y="235">$ git merge</tspan>
        </text>
        <text id="Execute-command-from" font-family="Helvetica" font-size="18" font-weight="normal" fill="#0055C2">
            <tspan x="589" y="501">Execute command </tspan>
            <tspan x="589" y="523">from </tspan>
            <tspan x="630.000977" y="523" font-family="Helvetica-Bold, Helvetica" font-weight="bold">Master Branch</tspan>
        </text>
        <text id="Execute-command-from" font-family="Helvetica" font-size="18" font-weight="normal" fill="#199ABD">
            <tspan x="214" y="501">Execute command </tspan>
            <tspan x="214" y="523">from </tspan>
            <tspan x="255.000977" y="523" font-family="Helvetica-Bold, Helvetica" font-weight="bold">Topic Branch</tspan>
        </text>
        <text id="Topic-Branch" font-family="Helvetica" font-size="21" font-weight="normal" fill="#199ABD">
            <tspan x="128.302002" y="265">Topic Branch</tspan>
        </text>
        <text id="Topic-Branch-Copy" font-family="Helvetica" font-size="21" font-weight="normal" fill="#199ABD">
            <tspan x="638.302002" y="265">Topic Branch</tspan>
        </text>
        <text id="Master-Branch" font-family="Helvetica" font-size="21" font-weight="normal" fill="#0055C2">
            <tspan x="109.724365" y="394">Master Branch</tspan>
        </text>
        <ellipse id="Oval-Copy-11" stroke="#199ABD" stroke-width="4" cx="290.556604" cy="289.993671" rx="12.009434" ry="11.9936709"></ellipse>
        <ellipse id="Oval-Copy-14" stroke="#199ABD" stroke-width="4" cx="346.59434" cy="289.993671" rx="12.009434" ry="11.9936709"></ellipse>
        <line x1="266.358491" y1="290.417722" x2="276.54717" y2="290.417722" id="Line-Copy-10" stroke="#199ABD" stroke-width="3" stroke-linecap="round"></line>
        <line x1="304.566038" y1="290.417722" x2="333.433962" y2="290.417722" id="Line-Copy-11" stroke="#199ABD" stroke-width="3" stroke-linecap="round"></line>
        <use id="Oval-Copy-11" stroke="#199ABD" mask="url(#mask-4)" stroke-width="8" stroke-dasharray="6" xlink:href="#path-3"></use>
        <use id="Oval-Copy-14" stroke="#199ABD" mask="url(#mask-6)" stroke-width="8" stroke-dasharray="6" xlink:href="#path-5"></use>
        <line x1="139" y1="290.417722" x2="149.188679" y2="290.417722" id="Line-Copy-10" stroke="#199ABD" stroke-width="3" stroke-linecap="round" stroke-dasharray="6"></line>
        <line x1="177.207547" y1="290.417722" x2="206.075472" y2="290.417722" id="Line-Copy-11" stroke="#199ABD" stroke-width="3" stroke-linecap="round" stroke-dasharray="6"></line>
        <line x1="250.747409" y1="290.556263" x2="266.5" y2="343.221519" id="Line-6-Copy-2" stroke="#199ABD" stroke-width="3" stroke-linecap="square" transform="translate(258.622642, 316.860759) scale(1, -1) translate(-258.622642, -316.860759) "></line>
        <ellipse id="Oval-Copy-9" stroke="#1576ED" stroke-width="4" cx="123.688679" cy="357.006329" rx="12.009434" ry="11.9936709"></ellipse>
        <ellipse id="Oval-Copy-13" stroke="#006AE1" stroke-width="4" cx="251.04717" cy="357.006329" rx="12.009434" ry="11.9936709"></ellipse>
        <ellipse id="Oval-Copy-10" stroke="#1576ED" stroke-width="4" cx="187.367925" cy="357.006329" rx="12.009434" ry="11.9936709"></ellipse>
        <ellipse id="Oval-Copy-12" stroke="#1576ED" stroke-width="4" cx="60.009434" cy="357.006329" rx="12.009434" ry="11.9936709"></ellipse>
        <line x1="123.388918" y1="290.556263" x2="138.5" y2="343.221519" id="Line-6-Copy-2" stroke="#199ABD" stroke-width="3" stroke-linecap="square" stroke-dasharray="6" transform="translate(131.264151, 316.860759) scale(1, -1) translate(-131.264151, -316.860759) "></line>
        <line x1="74.0188679" y1="356.582278" x2="109.044426" y2="356.600715" id="Line-Copy-6" stroke="#1576ED" stroke-width="3" stroke-linecap="round"></line>
        <line x1="201.377358" y1="356.582278" x2="236.402916" y2="356.600715" id="Line-Copy-7" stroke="#006AE1" stroke-width="3" stroke-linecap="round"></line>
        <line x1="138.54717" y1="356.582278" x2="173.572728" y2="356.600715" id="Line-Copy-8" stroke="#1576ED" stroke-width="3" stroke-linecap="round"></line>
        <ellipse id="Oval" fill="#DE4040" cx="123.688679" cy="343.436709" rx="3.82075472" ry="3.8164557"></ellipse>
        <ellipse id="Oval-Copy" fill="#DE4040" cx="251.04717" cy="343.436709" rx="3.82075472" ry="3.8164557"></ellipse>
        <path id="Line-41" d="M239.150943,335.544304 L248.150943,340.044304 L239.150943,344.544304 L239.15,340.544 L237.981132,340.544304 L237.981132,339.544304 L239.15,339.544 L239.150943,335.544304 Z M133.981132,339.544304 L133.981132,340.544304 L129.981132,340.544304 L129.981132,339.544304 L133.981132,339.544304 Z M139.981132,339.544304 L139.981132,340.544304 L135.981132,340.544304 L135.981132,339.544304 L139.981132,339.544304 Z M145.981132,339.544304 L145.981132,340.544304 L141.981132,340.544304 L141.981132,339.544304 L145.981132,339.544304 Z M151.981132,339.544304 L151.981132,340.544304 L147.981132,340.544304 L147.981132,339.544304 L151.981132,339.544304 Z M157.981132,339.544304 L157.981132,340.544304 L153.981132,340.544304 L153.981132,339.544304 L157.981132,339.544304 Z M163.981132,339.544304 L163.981132,340.544304 L159.981132,340.544304 L159.981132,339.544304 L163.981132,339.544304 Z M169.981132,339.544304 L169.981132,340.544304 L165.981132,340.544304 L165.981132,339.544304 L169.981132,339.544304 Z M175.981132,339.544304 L175.981132,340.544304 L171.981132,340.544304 L171.981132,339.544304 L175.981132,339.544304 Z M181.981132,339.544304 L181.981132,340.544304 L177.981132,340.544304 L177.981132,339.544304 L181.981132,339.544304 Z M187.981132,339.544304 L187.981132,340.544304 L183.981132,340.544304 L183.981132,339.544304 L187.981132,339.544304 Z M193.981132,339.544304 L193.981132,340.544304 L189.981132,340.544304 L189.981132,339.544304 L193.981132,339.544304 Z M199.981132,339.544304 L199.981132,340.544304 L195.981132,340.544304 L195.981132,339.544304 L199.981132,339.544304 Z M205.981132,339.544304 L205.981132,340.544304 L201.981132,340.544304 L201.981132,339.544304 L205.981132,339.544304 Z M211.981132,339.544304 L211.981132,340.544304 L207.981132,340.544304 L207.981132,339.544304 L211.981132,339.544304 Z M217.981132,339.544304 L217.981132,340.544304 L213.981132,340.544304 L213.981132,339.544304 L217.981132,339.544304 Z M223.981132,339.544304 L223.981132,340.544304 L219.981132,340.544304 L219.981132,339.544304 L223.981132,339.544304 Z M229.981132,339.544304 L229.981132,340.544304 L225.981132,340.544304 L225.981132,339.544304 L229.981132,339.544304 Z M235.981132,339.544304 L235.981132,340.544304 L231.981132,340.544304 L231.981132,339.544304 L235.981132,339.544304 Z" fill="#DE4040" fill-rule="nonzero"></path>
        <text id="Master-Branch" font-family="Helvetica" font-size="21" font-weight="normal" fill="#0055C2">
            <tspan x="456.724365" y="394">Master Branch</tspan>
        </text>
        <text id="Merge" font-family="Helvetica" font-size="21" font-weight="normal" fill="#DE4040">
            <tspan x="660.238037" y="327">Merge</tspan>
        </text>
        <ellipse id="Oval-Copy-11" stroke="#199ABD" stroke-width="4" cx="672.009434" cy="289.993671" rx="12.009434" ry="11.9936709"></ellipse>
        <ellipse id="Oval-Copy-14" stroke="#199ABD" stroke-width="4" cx="727.990566" cy="289.993671" rx="12.009434" ry="11.9936709"></ellipse>
        <line x1="631.747409" y1="290.556263" x2="647.5" y2="343.221519" id="Line-6-Copy-2" stroke="#199ABD" stroke-width="3" stroke-linecap="square" transform="translate(639.622642, 316.860759) scale(1, -1) translate(-639.622642, -316.860759) "></line>
        <line x1="647.754717" y1="290.417722" x2="657.943396" y2="290.417722" id="Line-Copy-10" stroke="#199ABD" stroke-width="3" stroke-linecap="round"></line>
        <line x1="685.962264" y1="290.417722" x2="714.830189" y2="290.417722" id="Line-Copy-11" stroke="#199ABD" stroke-width="3" stroke-linecap="round"></line>
        <ellipse id="Oval-Copy-9" stroke="#1576ED" stroke-width="4" cx="504.688679" cy="357.006329" rx="12.009434" ry="11.9936709"></ellipse>
        <ellipse id="Oval-Copy-13" stroke="#006AE1" stroke-width="4" cx="632.04717" cy="357.006329" rx="12.009434" ry="11.9936709"></ellipse>
        <ellipse id="Oval-Copy-15" stroke="#006AE1" stroke-width="4" cx="758.04717" cy="357.006329" rx="12.009434" ry="11.9936709"></ellipse>
        <ellipse id="Oval-Copy-10" stroke="#1576ED" stroke-width="4" cx="568.367925" cy="357.006329" rx="12.009434" ry="11.9936709"></ellipse>
        <ellipse id="Oval-Copy-16" stroke="#1576ED" stroke-width="4" cx="694.367925" cy="357.006329" rx="12.009434" ry="11.9936709"></ellipse>
        <ellipse id="Oval-Copy-12" stroke="#1576ED" stroke-width="4" cx="441.009434" cy="357.006329" rx="12.009434" ry="11.9936709"></ellipse>
        <line x1="455.018868" y1="356.582278" x2="490.044426" y2="356.600715" id="Line-Copy-6" stroke="#1576ED" stroke-width="3" stroke-linecap="round"></line>
        <line x1="582.377358" y1="356.582278" x2="617.402916" y2="356.600715" id="Line-Copy-7" stroke="#006AE1" stroke-width="3" stroke-linecap="round"></line>
        <line x1="708.377358" y1="356.582278" x2="743.402916" y2="356.600715" id="Line-Copy-9" stroke="#006AE1" stroke-width="3" stroke-linecap="round"></line>
        <line x1="519.54717" y1="356.582278" x2="554.572728" y2="356.600715" id="Line-Copy-8" stroke="#1576ED" stroke-width="3" stroke-linecap="round"></line>
        <line x1="645.54717" y1="356.582278" x2="680.572728" y2="356.600715" id="Line-Copy-12" stroke="#1576ED" stroke-width="3" stroke-linecap="round"></line>
        <ellipse id="Oval-Copy" fill="#DE4040" cx="632.04717" cy="343.436709" rx="3.82075472" ry="3.8164557"></ellipse>
        <g id="Group-5" transform="translate(641.000000, 324.000000)" fill="#DE4040">
            <polygon id="Path" points="27 23.8195326 26.9131886 22.8564692 26.4035329 20.2805583 25.6362121 17.7935007 24.6244277 15.4097725 23.3813672 13.1436311 21.9201662 11.0091554 20.253843 9.02033976 18.3953453 7.19116059 16.3575735 5.53563894 14.1534333 4.06786721 11.795905 2.80204035 9.29814795 1.75245144 6.67354233 0.933411401 3.93578333 0.359217761 1.11703325 0.0460187969 0.107153828 0 0 2.11587908 0.971606611 2.16015417 0.895278382 2.15417828 3.61992188 2.4569239 3.50876894 2.43913894 6.13674546 2.99030758 6.02886705 2.96223874 8.54762997 3.74824639 8.44431192 3.71052695 10.8413085 4.71777624 10.7435287 4.67112418 13.0062061 5.88601774 12.9146792 5.83115106 15.0304895 7.2401049 14.9457138 7.17767471 16.9021136 8.76708698 16.8244746 8.69764181 18.6089018 10.4539241 18.5387381 10.3779233 20.1386586 12.2874826 20.0763321 12.2053186 21.479184 14.2545576 21.4251272 14.1666095 22.618367 16.3419353 22.5731066 16.2486356 23.5441862 18.5364597 23.5083333 18.4383659 24.2447001 20.825091 24.2189082 20.7229702 24.708014 23.1950033 24.6929131 23.0898678 24.7749526 24"></polygon>
            <polygon id="Triangle" transform="translate(25.924394, 23.769253) rotate(-192.000000) translate(-25.924394, -23.769253) " points="25.9243944 20.4359201 30.5910611 27.1025868 21.2577278 27.1025868"></polygon>
        </g>
        <g id="Group" transform="translate(46.000000, 427.000000)">
            <ellipse id="Oval" stroke="#006AE1" stroke-width="4" fill="#C5DDFF" cx="74" cy="86" rx="54" ry="14"></ellipse>
            <ellipse id="Oval-Copy" stroke="#199ABD" stroke-width="4" fill="#A1E0E9" cx="148" cy="39" rx="26" ry="6"></ellipse>
            <g id="location" transform="translate(137.000000, 0.000000)" fill-rule="nonzero">
                <path d="M14.5,0 C6.49187113,0 0,6.40142751 0,14.2979885 C0,21.8499261 12.9181818,37.8246787 13.4718182,38.5135818 C13.7220048,38.8210812 14.1002,39 14.5,39 C14.8998,39 15.2779952,38.8210812 15.5281818,38.5135818 C16.0818182,37.8246787 29,21.8499261 29,14.2979885 C29,6.40142751 22.5081289,0 14.5,0 Z M14.5,20.7970742 C10.8599414,20.7970742 7.90909091,17.8873344 7.90909091,14.2979885 C7.90909091,10.7086426 10.8599414,7.79890283 14.5,7.79890283 C18.1400586,7.79890283 21.0909091,10.7086426 21.0909091,14.2979885 C21.0909091,17.8873344 18.1400586,20.7970742 14.5,20.7970742 Z" id="Shape" fill="#FF9797"></path>
                <path d="M14,0 L14,7.79999849 C17.5145393,7.79999849 20.3636364,10.7101471 20.3636364,14.2999972 C20.3636364,17.8898474 17.5145393,20.799996 14,20.799996 L14,39 C14.3851125,39.00133 14.7501072,38.8244814 14.9927273,38.5189926 C15.5272727,37.8299927 28,21.8529958 28,14.2999972 C28,6.40232684 21.7319865,0 14,0 Z" id="Path" fill="#E47979"></path>
            </g>
            <path d="M127,46 L111.689816,58.3510606 L103.116421,56.4475314 C102.577266,56.3278241 102.043152,56.667854 101.923445,57.2070094 C101.866998,57.4612404 101.911956,57.7274627 102.048756,57.94906 L108.870899,69 L108.870899,69 L134.388452,67.2422671 C134.939431,67.2043138 135.355321,66.7268898 135.317367,66.1759107 C135.287397,65.7408189 134.978911,65.3753298 134.555034,65.272709 L124.055514,62.7307719 L124.055514,62.7307719 L131.245377,47.0588921 L127,46 Z" id="Path-21" fill="#FF9696" transform="translate(120.828222, 57.500000) rotate(3.000000) translate(-120.828222, -57.500000) "></path>
            <text id="Master-Branch-Copy" font-family="Helvetica-Bold, Helvetica" font-size="16" font-weight="bold" fill="#0055C2">
                <tspan x="7.92578125" y="124">Master Branch</tspan>
            </text>
            <text id="Topic-Branch-Copy" font-family="Helvetica-Bold, Helvetica" font-size="16" font-weight="bold" fill="#199ABD">
                <tspan x="33.9726562" y="20">Topic Branch</tspan>
            </text>
        </g>
        <g id="Group" transform="translate(427.000000, 427.000000)">
            <ellipse id="Oval-Copy-2" stroke="#006AE1" stroke-width="4" fill="#C5DDFF" cx="74" cy="81" rx="54" ry="14"></ellipse>
            <ellipse id="Oval-Copy-3" stroke="#199ABD" stroke-width="4" fill="#A1E0E9" cx="148" cy="34" rx="26" ry="6"></ellipse>
            <g id="location-copy-2" transform="translate(49.000000, 46.000000)" fill-rule="nonzero">
                <path d="M14.5,0 C6.49187113,0 0,6.40142751 0,14.2979885 C0,21.8499261 12.9181818,37.8246787 13.4718182,38.5135818 C13.7220048,38.8210812 14.1002,39 14.5,39 C14.8998,39 15.2779952,38.8210812 15.5281818,38.5135818 C16.0818182,37.8246787 29,21.8499261 29,14.2979885 C29,6.40142751 22.5081289,0 14.5,0 Z M14.5,20.7970742 C10.8599414,20.7970742 7.90909091,17.8873344 7.90909091,14.2979885 C7.90909091,10.7086426 10.8599414,7.79890283 14.5,7.79890283 C18.1400586,7.79890283 21.0909091,10.7086426 21.0909091,14.2979885 C21.0909091,17.8873344 18.1400586,20.7970742 14.5,20.7970742 Z" id="Shape" fill="#FF9797"></path>
                <path d="M14,0 L14,7.79999849 C17.5145393,7.79999849 20.3636364,10.7101471 20.3636364,14.2999972 C20.3636364,17.8898474 17.5145393,20.799996 14,20.799996 L14,39 C14.3851125,39.00133 14.7501072,38.8244814 14.9927273,38.5189926 C15.5272727,37.8299927 28,21.8529958 28,14.2999972 C28,6.40232684 21.7319865,0 14,0 Z" id="Path" fill="#E47979"></path>
            </g>
            <path d="M127,41 L111.689816,53.3510606 L103.116421,51.4475314 C102.577266,51.3278241 102.043152,51.667854 101.923445,52.2070094 C101.866998,52.4612404 101.911956,52.7274627 102.048756,52.94906 L108.870899,64 L108.870899,64 L134.388452,62.2422671 C134.939431,62.2043138 135.355321,61.7268898 135.317367,61.1759107 C135.287397,60.7408189 134.978911,60.3753298 134.555034,60.272709 L124.055514,57.7307719 L124.055514,57.7307719 L131.245377,42.0588921 L127,41 Z" id="Path-21-Copy" fill="#FF9696" transform="translate(120.828222, 52.500000) rotate(3.000000) translate(-120.828222, -52.500000) "></path>
            <text id="Master-Branch-Copy-2" font-family="Helvetica-Bold, Helvetica" font-size="16" font-weight="bold" fill="#0055C2">
                <tspan x="7.92578125" y="119">Master Branch</tspan>
            </text>
            <text id="Topic-Branch-Copy-2" font-family="Helvetica-Bold, Helvetica" font-size="16" font-weight="bold" fill="#199ABD">
                <tspan x="33.9726562" y="15">Topic Branch</tspan>
            </text>
        </g>
        <rect id="Rectangle" stroke="#006AE1" x="21.5" y="212.5" width="371.530422" height="351" rx="8"></rect>
        <rect id="Rectangle-Copy-3" stroke="#006AE1" x="411.969578" y="212.5" width="371.530422" height="351" rx="8"></rect>
        <g id="bloovee-winner-logo" transform="translate(725.000000, 580.000000)">
            <path d="M13,13.7751507 C13,14.396312 13.4732558,14.8717809 14.0514961,14.8717809 C14.6474304,14.8717809 15.1204503,14.3968042 15.1204503,13.7751507 L15.1204503,2.09687626 C15.1204503,1.49368045 14.6474304,1 14.0514961,1 C13.4557977,1 13,1.49392656 13,2.09687626 L13,13.7751507 Z M21.7920364,15 C24.6483217,15 26.751078,12.7149437 26.751078,9.97312215 L26.751078,9.93645297 C26.751078,7.17641992 24.6657798,4.92778666 21.8269526,4.92778666 C18.9881254,4.92778666 16.885369,7.212843 16.885369,9.97312215 L16.885369,10.0095452 C16.885369,12.7516128 18.9706673,15 21.7920364,15 Z M21.8269526,13.0621935 C20.179994,13.0621935 19.0055834,11.6547366 19.0055834,9.97312215 L19.0055834,9.93645297 C19.0055834,8.25459244 20.0919958,6.86534709 21.7920364,6.86534709 C23.456689,6.86534709 24.6306277,8.27305008 24.6306277,9.97312215 L24.6306277,10.0095452 C24.6306277,11.6731942 23.5444513,13.0621935 21.8269526,13.0621935 Z M32.8092717,15 C35.665557,15 37.7683133,12.7149437 37.7683133,9.97312215 L37.7683133,9.93645297 C37.7683133,7.17641992 35.6830151,4.92778666 32.8441878,4.92778666 C30.0053606,4.92778666 27.9026043,7.212843 27.9026043,9.97312215 L27.9026043,10.0095452 C27.9026043,12.7516128 29.9879025,15 32.8092717,15 Z M32.8441878,13.0621935 C31.1969933,13.0621935 30.0228187,11.6547366 30.0228187,9.97312215 L30.0228187,9.93645297 C30.0228187,8.25459244 31.109231,6.86534709 32.8092717,6.86534709 C34.4739243,6.86534709 35.647863,8.27305008 35.647863,9.97312215 L35.647863,10.0095452 C35.647863,11.6731942 34.5614506,13.0621935 32.8441878,13.0621935 Z M44.1416963,13.9944275 L47.2261164,6.6096472 C47.2784906,6.49988574 47.3487948,6.28060893 47.3487948,6.07954366 C47.3487948,5.47610175 46.8929971,5.01933658 46.3147568,5.01933658 C45.7539746,5.01933658 45.4737015,5.40300947 45.3158709,5.78692847 L42.8976893,12.2215093 L40.5144239,5.82335156 C40.3393711,5.36634029 40.041404,5.01933658 39.4629278,5.01933658 C38.8846875,5.01933658 38.4116676,5.53098247 38.4116676,6.07954366 C38.4116676,6.28060893 38.4817358,6.46346265 38.534346,6.62785874 L41.6182943,13.9944275 C41.8638872,14.5796579 42.2491448,14.9633308 42.8273851,14.9633308 L42.9326055,14.9633308 C43.5108458,14.9633308 43.8965752,14.5612003 44.1416963,13.9944275 Z M50.0949054,9.27837643 C50.2876522,7.77961573 51.1987758,6.73762019 52.4956289,6.73762019 C53.8974665,6.73762019 54.7036056,7.8524619 54.8437422,9.27837643 L50.0949054,9.27837643 Z M56.070527,13.72027 C56.2281217,13.5558739 56.3508002,13.3181395 56.3508002,13.0439819 C56.3508002,12.5320899 55.9830006,12.1481709 55.5095089,12.1481709 C55.2641519,12.1481709 55.1242513,12.2215093 54.9664207,12.3492362 C54.3704864,12.8611282 53.6695676,13.1901665 52.7759021,13.1901665 C51.4089807,13.1901665 50.3402624,12.3128131 50.1123635,10.7409601 L55.9126964,10.7409601 C56.4560206,10.7409601 56.9115824,10.3021604 56.9115824,9.68050697 C56.9115824,7.45057746 55.4568987,4.92778666 52.513087,4.92778666 C49.8672425,4.92778666 47.9919132,7.19438536 47.9919132,9.95466451 L47.9919132,9.9913337 C47.9919132,12.9708897 50.0597533,15 52.7409859,15 C54.1779755,15 55.2292357,14.5063195 56.070527,13.72027 Z M60.1833231,9.27837643 C60.3763058,7.77961573 61.2871935,6.73762019 62.5842825,6.73762019 C63.9858841,6.73762019 64.7920233,7.8524619 64.9321598,9.27837643 L60.1833231,9.27837643 Z M66.1589447,13.72027 C66.3167752,13.5558739 66.4394537,13.3181395 66.4394537,13.0439819 C66.4394537,12.5320899 66.0714183,12.1481709 65.5981624,12.1481709 C65.3528055,12.1481709 65.2126689,12.2215093 65.0548383,12.3492362 C64.4591399,12.8611282 63.7582212,13.1901665 62.8643197,13.1901665 C61.4976342,13.1901665 60.4289159,12.3128131 60.2007812,10.7409601 L66.0011141,10.7409601 C66.5444382,10.7409601 67,10.3021604 67,9.68050697 C67,7.45057746 65.5455522,4.92778666 62.6015046,4.92778666 C59.9556601,4.92778666 58.0805667,7.19438536 58.0805667,9.95466451 L58.0805667,9.9913337 C58.0805667,12.9708897 60.1484069,15 62.8294035,15 C64.2663932,15 65.3178893,14.5063195 66.1589447,13.72027 L66.1589447,13.72027 Z" id="Fill-1" fill="#030060"></path>
            <g id="Group-4">
                <mask id="mask-8" fill="white">
                    <use xlink:href="#path-7"></use>
                </mask>
                <g id="Clip-3"></g>
                <path d="M8.68744595,14.5405413 C10.6544909,13.5649687 12,11.5915112 12,9.31636202 C12,6.07252388 9.26504479,3.44227578 5.89152197,3.44227578 C4.52034181,3.44227578 3.25480793,3.87689217 2.23537065,4.61058921 L2.23537065,1.05770107 C2.23537065,0.476155373 1.74046224,0 1.11695169,0 C0.493934821,0 0.0167986821,0.476630104 0.0167986821,1.05770107 L0.0167986821,1.80184219 L0,9.32158406 C-0.0041824725,11.2003327 0.951817666,12.865215 2.41753644,13.8939574 C2.4777647,13.9362085 2.55848043,13.9312238 2.6127846,13.8823265 C2.66758244,13.8334292 2.6779496,13.7558106 2.63746831,13.6950451 C0.724974359,10.8146136 1.16014819,5.53963813 5.89176881,5.53963813 C8.05899866,5.53963813 9.80709909,7.22944376 9.81623206,9.31351363 C9.82240299,10.8599505 9.11620201,12.0365717 8.19549958,12.7781018 C6.36026565,14.2561773 3.64974731,12.6382934 4.49738595,10.4697214 C4.5894562,10.2335427 4.71879884,9.9959397 4.88664808,9.76189723 L5.12361171,9.47705853 C5.19766284,9.39967734 5.25048599,9.29903433 5.2146946,9.19411874 C5.01401603,8.62800181 3.46832203,8.97526767 3.04005964,10.0315445 C3.34292878,9.79631524 3.65986763,9.66433998 3.96940137,9.71489885 C2.38890334,11.275815 3.44141679,13.9563846 5.46005069,14.7513219 C6.40494316,15.1232738 7.55964718,15.0976383 8.68744595,14.5405413" id="Fill-2" fill="url(#linearGradient-9)" mask="url(#mask-8)"></path>
            </g>
        </g>
        <g id="trial-copy" transform="translate(4.000000, 570.000000)" fill="#006AE1" fill-rule="nonzero">
            <path d="M24.7390408,0.0712262435 C23.8197062,-0.175854327 23.1591603,0.239201967 22.6859188,1.01735927 C22.6046689,1.15134921 22.52713,1.31717641 22.4478332,1.49316028 C22.1428011,1.2575123 21.7678493,1.130415 21.3824051,1.13201247 C21.3529129,1.13201247 21.3224442,1.13259843 21.2931474,1.134161 L15.1740157,1.4288998 C14.9503832,1.43964243 14.7687429,1.47870655 14.6234306,1.53906062 C14.2647714,1.59678794 13.9347315,1.76994119 13.6833929,2.03224516 L0.468959043,15.8746167 C-0.17420408,16.5457384 -0.153305673,17.6121889 0.516224599,18.2565516 L7.02930103,24.5302495 C7.34177077,24.8320424 7.7593469,25.0004949 8.19375245,25 C8.63515806,25 9.07597773,24.8259649 9.40566475,24.4831773 L22.6199033,10.6400244 C23.0124808,10.2306324 23.3675584,9.67455464 23.2691211,9.15636906 C23.2718554,9.11457045 23.2687304,9.07296716 23.2691211,9.02804342 L23.1146291,2.88735879 C23.1183122,2.59624806 23.0497989,2.30876172 22.9152153,2.0506053 C23.3099413,1.28006549 23.6851361,0.550347698 24.542752,0.780630696 C25.0023217,0.904854604 25.1966573,0.194082907 24.7390408,0.0712262435 Z M8.52812889,13.4245632 L9.32781975,14.170287 L8.29716074,16.7269943 L10.7727157,15.5176743 L11.5754357,16.2662228 L7.51909394,18.1808206 L6.90418013,17.6074042 L8.52812889,13.4245632 Z M10.8555796,8.86713434 L14.7160332,15.2007265 L13.8468014,16.1328635 L9.99486962,9.79013275 L10.8555796,8.86713434 Z M17.1802579,6.51873344 L17.7982008,7.09497455 L16.1742521,11.2778156 L15.3745612,10.5320918 L16.4052202,7.97538454 L13.9296652,9.1847045 L13.1269453,8.43615601 L17.1802579,6.51873344 Z M21.1763507,2.2398705 C21.4058425,2.2398705 21.6355297,2.32542139 21.8136544,2.49691289 C21.8259591,2.50882745 21.8343575,2.52289053 21.8460763,2.53539105 C21.6548656,2.73520403 21.419905,2.85845134 21.1132648,2.82387959 C20.6425624,2.7709477 20.6474452,3.50808768 21.1132648,3.56062893 C21.5214674,3.60652927 21.8320138,3.4873837 22.0857244,3.27643744 C22.062433,3.47297911 21.9760108,3.65665988 21.8394357,3.79989667 C21.6663502,3.98098016 21.4266486,4.08326003 21.1761554,4.0829171 C20.9384391,4.08306483 20.7099506,3.99090921 20.5388516,3.82587432 C20.1727885,3.47281343 20.1612599,2.89015669 20.5130704,2.52289053 C20.686209,2.34188379 20.9258761,2.23961864 21.1763507,2.2398705 Z" id="Shape"></path>
        </g>
        <g id="Path-2-Copy-2" transform="translate(400.000000, 372.500000) rotate(-90.000000) translate(-400.000000, -372.500000) ">
            <use fill="black" fill-opacity="1" filter="url(#filter-11)" xlink:href="#path-10"></use>
            <use fill="#FFC0C0" fill-rule="evenodd" xlink:href="#path-10"></use>
        </g>
    </g>
</svg>