<?xml version="1.0" encoding="UTF-8"?>
<svg width="800px" height="600px" viewBox="0 0 800 600" version="1.1" xmlns="http://www.w3.org/2000/svg" xmlns:xlink="http://www.w3.org/1999/xlink">
    <title>2041-10-15-16-10_CheckStatusOfWorkingTreeAndStagingArea--GitStatus</title>
    <defs>
        <path d="M8.68744595,14.5405413 C10.6544909,13.5649687 12,11.5915112 12,9.31636202 C12,6.07252388 9.26504479,3.44227578 5.89152197,3.44227578 C4.52034181,3.44227578 3.25480793,3.87689217 2.23537065,4.61058921 L2.23537065,1.05770107 C2.23537065,0.476155373 1.74046224,0 1.11695169,0 C0.493934821,0 0.0167986821,0.476630104 0.0167986821,1.05770107 L0.0167986821,1.80184219 L0,9.32158406 C-0.0041824725,11.2003327 0.951817666,12.865215 2.41753644,13.8939574 C2.4777647,13.9362085 2.55848043,13.9312238 2.6127846,13.8823265 C2.66758244,13.8334292 2.6779496,13.7558106 2.63746831,13.6950451 C0.724974359,10.8146136 1.16014819,5.53963813 5.89176881,5.53963813 C8.05899866,5.53963813 9.80709909,7.22944376 9.81623206,9.31351363 C9.82240299,10.8599505 9.11620201,12.0365717 8.19549958,12.7781018 C6.36026565,14.2561773 3.64974731,12.6382934 4.49738595,10.4697214 C4.5894562,10.2335427 4.71879884,9.9959397 4.88664808,9.76189723 L5.12361171,9.47705853 C5.19766284,9.39967734 5.25048599,9.29903433 5.2146946,9.19411874 C5.01401603,8.62800181 3.46832203,8.97526767 3.04005964,10.0315445 C3.34292878,9.79631524 3.65986763,9.66433998 3.96940137,9.71489885 C2.38890334,11.275815 3.44141679,13.9563846 5.46005069,14.7513219 C6.40494316,15.1232738 7.55964718,15.0976383 8.68744595,14.5405413" id="path-1"></path>
        <linearGradient x1="28.568518%" y1="104.445731%" x2="78.3472072%" y2="20.6880271%" id="linearGradient-3">
            <stop stop-color="#000F98" offset="0%"></stop>
            <stop stop-color="#00A5FD" offset="100%"></stop>
        </linearGradient>
        <rect id="path-4" x="20" y="62" width="766" height="140"></rect>
        <filter x="-0.5%" y="-2.9%" width="102.1%" height="111.4%" filterUnits="objectBoundingBox" id="filter-5">
            <feOffset dx="4" dy="4" in="SourceAlpha" result="shadowOffsetOuter1"></feOffset>
            <feGaussianBlur stdDeviation="2" in="shadowOffsetOuter1" result="shadowBlurOuter1"></feGaussianBlur>
            <feComposite in="shadowBlurOuter1" in2="SourceAlpha" operator="out" result="shadowBlurOuter1"></feComposite>
            <feColorMatrix values="0 0 0 0 0   0 0 0 0 0   0 0 0 0 0  0 0 0 0.5 0" type="matrix" in="shadowBlurOuter1"></feColorMatrix>
        </filter>
        <rect id="path-6" x="55" y="279" width="123" height="260" rx="5"></rect>
        <filter x="-4.1%" y="-1.9%" width="111.4%" height="105.4%" filterUnits="objectBoundingBox" id="filter-7">
            <feOffset dx="2" dy="2" in="SourceAlpha" result="shadowOffsetOuter1"></feOffset>
            <feGaussianBlur stdDeviation="2" in="shadowOffsetOuter1" result="shadowBlurOuter1"></feGaussianBlur>
            <feColorMatrix values="0 0 0 0 0   0 0 0 0 0   0 0 0 0 0  0 0 0 0.5 0" type="matrix" in="shadowBlurOuter1"></feColorMatrix>
        </filter>
        <circle id="path-8" cx="492" cy="345" r="16"></circle>
        <mask id="mask-9" maskContentUnits="userSpaceOnUse" maskUnits="objectBoundingBox" x="0" y="0" width="32" height="32" fill="white">
            <use xlink:href="#path-8"></use>
        </mask>
        <path d="M90.0004709,343 L90.0000943,362.969697 C89.9999479,365.731121 92.2384819,367.969739 94.9999057,367.969791 C94.9999371,367.969791 94.9999686,367.969791 95,367.969697 L117.938791,367.969697 C120.700215,367.969697 122.938791,365.731121 122.938791,362.969697 L122.938791,349.486706 C122.938791,346.725282 120.700215,344.486706 117.938791,344.486706 L108.888516,344.486706 C107.259911,344.486706 105.733355,343.693524 104.797174,342.360888 L103.22703,340.125818 C102.290849,338.793182 100.764293,338 99.1356878,338 L95.0005652,338 C92.2391783,338.000094 90.0006173,340.238613 90.0004709,343 Z" id="path-10"></path>
        <filter x="-15.2%" y="-16.7%" width="142.5%" height="146.7%" filterUnits="objectBoundingBox" id="filter-11">
            <feOffset dx="2" dy="2" in="SourceAlpha" result="shadowOffsetOuter1"></feOffset>
            <feGaussianBlur stdDeviation="2" in="shadowOffsetOuter1" result="shadowBlurOuter1"></feGaussianBlur>
            <feColorMatrix values="0 0 0 0 0   0 0 0 0 0   0 0 0 0 0  0 0 0 0.5 0" type="matrix" in="shadowBlurOuter1"></feColorMatrix>
        </filter>
        <path d="M13.75,0 C13.7941911,0 13.8378467,0.00229316871 13.8808541,0.00676700035 L13.75,0 C13.8162355,0 13.881929,0.00525694116 13.9465226,0.0155397695 C13.9701591,0.0191086024 13.992749,0.0233404213 14.0151161,0.0281708262 C14.0322448,0.0321398038 14.0500238,0.0363983451 14.0676885,0.0410407894 C14.0946367,0.0478045058 14.1205565,0.0555325238 14.1461088,0.0640632613 C14.160755,0.0693053936 14.1758776,0.0746759142 14.1908891,0.0803344975 C14.2187365,0.0904816017 14.2457589,0.101793784 14.2722804,0.114007418 C14.2843465,0.119888443 14.2963476,0.125640889 14.3082569,0.131585085 C14.337487,0.145899179 14.3659242,0.161546133 14.3936604,0.1782393 C14.4041654,0.184752089 14.415414,0.191741556 14.4265562,0.198913179 C14.4582781,0.219233101 14.4881961,0.24048749 14.5171,0.262983615 C14.5214712,0.266446375 14.5260487,0.270054306 14.530603,0.273695915 C14.5355396,0.277595341 14.5403427,0.281499913 14.5451161,0.285439232 L14.6338835,0.366116524 L14.6338835,0.366116524 L22.1338835,7.86611652 C22.1964743,7.92870737 22.2524583,7.99790512 22.3006994,8.07257393 C22.307848,8.08394838 22.3144473,8.0945475 22.3208831,8.10523728 C22.3376983,8.1327042 22.3537499,8.16181144 22.3686469,8.19159666 C22.3743591,8.2036524 22.3801116,8.21565349 22.3856703,8.22774155 C22.3982062,8.25424114 22.4095184,8.28126351 22.4198899,8.30874741 C22.4253241,8.3241224 22.4306946,8.339245 22.4357736,8.35447029 C22.4444675,8.37944354 22.4521955,8.40536325 22.4590909,8.43162036 C22.4636017,8.4499762 22.4678602,8.4677552 22.4717297,8.48563619 C22.4766596,8.50725102 22.4808914,8.52984086 22.484507,8.55263585 C22.4947431,8.61807104 22.5,8.68376452 22.5,8.75 L22.5,23.75 C22.5,25.8210678 20.8210678,27.5 18.75,27.5 L3.75,27.5 C1.67893219,27.5 0,25.8210678 0,23.75 L0,3.75 C0,1.67893219 1.67893219,0 3.75,0 Z M12.5,2.5 L3.75,2.5 C3.05964406,2.5 2.5,3.05964406 2.5,3.75 L2.5,23.75 C2.5,24.4403559 3.05964406,25 3.75,25 L18.75,25 C19.4403559,25 20,24.4403559 20,23.75 L20,10 L13.75,10 C13.1027913,10 12.5704661,9.50812534 12.5064536,8.87780524 L12.5,8.75 L12.5,2.5 Z M16.25,18.75 C16.9403559,18.75 17.5,19.3096441 17.5,20 C17.5,20.6903559 16.9403559,21.25 16.25,21.25 L16.25,21.25 L6.25,21.25 C5.55964406,21.25 5,20.6903559 5,20 C5,19.3096441 5.55964406,18.75 6.25,18.75 L6.25,18.75 Z M16.25,13.75 C16.9403559,13.75 17.5,14.3096441 17.5,15 C17.5,15.6903559 16.9403559,16.25 16.25,16.25 L16.25,16.25 L6.25,16.25 C5.55964406,16.25 5,15.6903559 5,15 C5,14.3096441 5.55964406,13.75 6.25,13.75 L6.25,13.75 Z M8.75,8.75 C9.44035594,8.75 10,9.30964406 10,10 C10,10.6903559 9.44035594,11.25 8.75,11.25 L8.75,11.25 L6.25,11.25 C5.55964406,11.25 5,10.6903559 5,10 C5,9.30964406 5.55964406,8.75 6.25,8.75 L6.25,8.75 Z M15,4.268 L15,7.5 L18.233,7.5 L15,4.268 Z" id="path-12"></path>
        <path d="M18.3518976,0.143410152 C18.404055,0.143410152 18.4556477,0.145844538 18.5065699,0.150606632 L18.3518976,0.143410152 C18.418635,0.143410152 18.484956,0.14747723 18.5505338,0.155475083 C18.5879148,0.159834597 18.6245422,0.165541386 18.6607517,0.172438263 C18.6748359,0.175439121 18.6888842,0.178323545 18.7028851,0.181389761 C18.7390518,0.188916868 18.7749353,0.198032643 18.8103305,0.208308336 C18.8253283,0.213119228 18.8399851,0.217609886 18.8545732,0.222303523 C18.8906114,0.233411127 18.9263352,0.246287271 18.9614667,0.260342287 C18.9740822,0.265863331 18.9867035,0.271092576 18.9992589,0.276478613 C19.0313818,0.289807734 19.062955,0.304583762 19.0939683,0.320315083 C19.1087007,0.328169879 19.1238898,0.336153663 19.1389575,0.344376733 C19.2262389,0.391802434 19.3080926,0.44673454 19.3843984,0.508346647 C19.3985183,0.519801015 19.4126405,0.531580225 19.4265821,0.543609588 C19.4533611,0.56670586 19.4792481,0.590540289 19.5043592,0.615172829 C19.5095903,0.620304979 19.5147405,0.625423489 19.5198605,0.630579344 L29.4303544,10.6103773 L29.456388,10.637187 C29.4743413,10.6560947 29.4918562,10.6754281 29.5089161,10.6951706 L29.4303544,10.6103773 C29.4731814,10.6535039 29.5134138,10.6987549 29.5509504,10.7458843 C29.6756824,10.902192 29.7729325,11.0818281 29.8352742,11.2772198 C29.8401686,11.2940064 29.8452042,11.3106706 29.8499805,11.3274175 C29.8601978,11.3617584 29.8689558,11.3967822 29.8765917,11.4322272 C29.8793497,11.4465758 29.8822684,11.4609694 29.8849987,11.475409 C29.8922491,11.5124158 29.8979726,11.5497692 29.9024411,11.5875106 C29.9040279,11.6021132 29.9055634,11.6165487 29.9069119,11.6310162 C29.9117257,11.6820912 29.9141404,11.7340155 29.9141404,11.7865078 L29.9141404,11.7865078 L29.9141404,31.7461038 C29.9141404,34.5019489 27.6956008,36.7360027 24.9588935,36.7360027 L5.13790586,36.7360027 C2.40119855,36.7360027 0.182658943,34.5019489 0.182658943,31.7461038 L0.182658943,5.13330914 C0.182658943,2.37746403 2.40119855,0.143410152 5.13790586,0.143410152 Z M16.6996589,3.46941015 L5.13790586,3.47000948 C4.22567009,3.47000948 3.48615689,4.2146941 3.48615689,5.13330914 L3.48615689,31.7461038 C3.48615689,32.6647188 4.22567009,33.4094034 5.13790586,33.4094034 L24.9588935,33.4094034 C25.8711293,33.4094034 26.6106425,32.6647188 26.6106425,31.7461038 L26.6096589,13.4494102 L18.3518976,13.4498075 C17.4876743,13.4498075 16.7784706,12.7814479 16.7062116,11.9300237 L16.7001487,11.7865078 L16.6996589,3.46941015 Z M21.6553956,25.0929051 C22.5676313,25.0929051 23.3071445,25.8375897 23.3071445,26.7562048 C23.3071445,27.6748198 22.5676313,28.4195044 21.6553956,28.4195044 L21.6553956,28.4195044 L8.4414038,28.4195044 C7.52916803,28.4195044 6.78965483,27.6748198 6.78965483,26.7562048 C6.78965483,25.8375897 7.52916803,25.0929051 8.4414038,25.0929051 L8.4414038,25.0929051 Z M21.6553956,18.4397064 C22.5676313,18.4397064 23.3071445,19.1843911 23.3071445,20.1030061 C23.3071445,21.0216211 22.5676313,21.7663058 21.6553956,21.7663058 L21.6553956,21.7663058 L8.4414038,21.7663058 C7.52916803,21.7663058 6.78965483,21.0216211 6.78965483,20.1030061 C6.78965483,19.1843911 7.52916803,18.4397064 8.4414038,18.4397064 L8.4414038,18.4397064 Z M11.7449017,11.7865078 C12.6571375,11.7865078 13.3966507,12.5311924 13.3966507,13.4498075 C13.3966507,14.3684225 12.6571375,15.1131071 11.7449017,15.1131071 L11.7449017,15.1131071 L8.4414038,15.1131071 C7.52916803,15.1131071 6.78965483,14.3684225 6.78965483,13.4498075 C6.78965483,12.5311924 7.52916803,11.7865078 8.4414038,11.7865078 L8.4414038,11.7865078 Z M20.0026589,5.82141015 L20.0036466,10.1232081 L24.2736589,10.1224102 L20.0026589,5.82141015 Z" id="path-14"></path>
        <path d="M13.75,0 C13.7941911,0 13.8378467,0.00229316871 13.8808541,0.00676700035 L13.75,0 C13.8162355,0 13.881929,0.00525694116 13.9465226,0.0155397695 C13.9701591,0.0191086024 13.992749,0.0233404213 14.0151161,0.0281708262 C14.0322448,0.0321398038 14.0500238,0.0363983451 14.0676885,0.0410407894 C14.0946367,0.0478045058 14.1205565,0.0555325238 14.1461088,0.0640632613 C14.160755,0.0693053936 14.1758776,0.0746759142 14.1908891,0.0803344975 C14.2187365,0.0904816017 14.2457589,0.101793784 14.2722804,0.114007418 C14.2843465,0.119888443 14.2963476,0.125640889 14.3082569,0.131585085 C14.337487,0.145899179 14.3659242,0.161546133 14.3936604,0.1782393 C14.4041654,0.184752089 14.415414,0.191741556 14.4265562,0.198913179 C14.4582781,0.219233101 14.4881961,0.24048749 14.5171,0.262983615 C14.5214712,0.266446375 14.5260487,0.270054306 14.530603,0.273695915 C14.5355396,0.277595341 14.5403427,0.281499913 14.5451161,0.285439232 L14.6338835,0.366116524 L14.6338835,0.366116524 L22.1338835,7.86611652 C22.1964743,7.92870737 22.2524583,7.99790512 22.3006994,8.07257393 C22.307848,8.08394838 22.3144473,8.0945475 22.3208831,8.10523728 C22.3376983,8.1327042 22.3537499,8.16181144 22.3686469,8.19159666 C22.3743591,8.2036524 22.3801116,8.21565349 22.3856703,8.22774155 C22.3982062,8.25424114 22.4095184,8.28126351 22.4198899,8.30874741 C22.4253241,8.3241224 22.4306946,8.339245 22.4357736,8.35447029 C22.4444675,8.37944354 22.4521955,8.40536325 22.4590909,8.43162036 C22.4636017,8.4499762 22.4678602,8.4677552 22.4717297,8.48563619 C22.4766596,8.50725102 22.4808914,8.52984086 22.484507,8.55263585 C22.4947431,8.61807104 22.5,8.68376452 22.5,8.75 L22.5,23.75 C22.5,25.8210678 20.8210678,27.5 18.75,27.5 L3.75,27.5 C1.67893219,27.5 0,25.8210678 0,23.75 L0,3.75 C0,1.67893219 1.67893219,0 3.75,0 Z M12.5,2.5 L3.75,2.5 C3.05964406,2.5 2.5,3.05964406 2.5,3.75 L2.5,23.75 C2.5,24.4403559 3.05964406,25 3.75,25 L18.75,25 C19.4403559,25 20,24.4403559 20,23.75 L20,10 L13.75,10 C13.1027913,10 12.5704661,9.50812534 12.5064536,8.87780524 L12.5,8.75 L12.5,2.5 Z M16.25,18.75 C16.9403559,18.75 17.5,19.3096441 17.5,20 C17.5,20.6903559 16.9403559,21.25 16.25,21.25 L16.25,21.25 L6.25,21.25 C5.55964406,21.25 5,20.6903559 5,20 C5,19.3096441 5.55964406,18.75 6.25,18.75 L6.25,18.75 Z M16.25,13.75 C16.9403559,13.75 17.5,14.3096441 17.5,15 C17.5,15.6903559 16.9403559,16.25 16.25,16.25 L16.25,16.25 L6.25,16.25 C5.55964406,16.25 5,15.6903559 5,15 C5,14.3096441 5.55964406,13.75 6.25,13.75 L6.25,13.75 Z M8.75,8.75 C9.44035594,8.75 10,9.30964406 10,10 C10,10.6903559 9.44035594,11.25 8.75,11.25 L8.75,11.25 L6.25,11.25 C5.55964406,11.25 5,10.6903559 5,10 C5,9.30964406 5.55964406,8.75 6.25,8.75 L6.25,8.75 Z M15,4.268 L15,7.5 L18.233,7.5 L15,4.268 Z" id="path-16"></path>
        <path d="M18.0787495,0.370262004 C18.1309068,0.370262004 18.1824996,0.37269639 18.2334217,0.377458484 L18.0787495,0.370262004 C18.1454869,0.370262004 18.2118078,0.374329082 18.2773856,0.382326934 C18.3147667,0.386686449 18.3513941,0.392393238 18.3876035,0.399290115 C18.4016877,0.402290972 18.4157361,0.405175397 18.429737,0.408241613 C18.4659036,0.41576872 18.5017871,0.424884495 18.5371824,0.435160188 C18.5521801,0.43997108 18.566837,0.444461738 18.581425,0.449155375 C18.6174632,0.460262979 18.653187,0.473139123 18.6883185,0.487194139 C18.700934,0.492715183 18.7135553,0.497944428 18.7261108,0.503330465 C18.7582336,0.516659586 18.7898068,0.531435614 18.8208202,0.547166935 C18.8355525,0.555021731 18.8507416,0.563005515 18.8658094,0.571228585 C18.9530908,0.618654286 19.0349444,0.673586392 19.1112502,0.735198498 C19.1253701,0.746652867 19.1394923,0.758432077 19.1534339,0.77046144 C19.180213,0.793557712 19.2060999,0.817392141 19.231211,0.84202468 C19.2364421,0.847156831 19.2415923,0.852275341 19.2467124,0.857431196 L29.1572062,10.8372292 L29.1832398,10.8640389 C29.2011932,10.8829465 29.218708,10.9022799 29.235768,10.9220225 L29.1572062,10.8372292 C29.2000333,10.8803557 29.2402657,10.9256067 29.2778022,10.9727362 C29.4025342,11.1290439 29.4997844,11.3086799 29.562126,11.5040717 C29.5670205,11.5208583 29.5720561,11.5375225 29.5768323,11.5542694 C29.5870497,11.5886103 29.5958076,11.6236341 29.6034435,11.6590791 C29.6062016,11.6734276 29.6091203,11.6878212 29.6118506,11.7022608 C29.619101,11.7392677 29.6248244,11.7766211 29.6292929,11.8143624 C29.6308798,11.828965 29.6324153,11.8434005 29.6337638,11.8578681 C29.6385775,11.908943 29.6409923,11.9608674 29.6409923,12.0133596 L29.6409923,12.0133596 L29.6409923,31.9729556 C29.6409923,34.7288007 27.4224527,36.9628546 24.6857454,36.9628546 L4.86475771,36.9628546 C2.12805041,36.9628546 -0.0904892052,34.7288007 -0.0904892052,31.9729556 L-0.0904892052,5.36016099 C-0.0904892052,2.60431588 2.12805041,0.370262004 4.86475771,0.370262004 Z M16.4265108,3.696262 L4.86475771,3.69686133 C3.95252194,3.69686133 3.21300874,4.44154595 3.21300874,5.36016099 L3.21300874,31.9729556 C3.21300874,32.8915706 3.95252194,33.6362553 4.86475771,33.6362553 L24.6857454,33.6362553 C25.5979811,33.6362553 26.3374943,32.8915706 26.3374943,31.9729556 L26.3365108,13.676262 L18.0787495,13.6766593 C17.2145261,13.6766593 16.5053225,13.0082997 16.4330634,12.1568755 L16.4270005,12.0133596 L16.4265108,3.696262 Z M21.3822474,25.319757 C22.2944832,25.319757 23.0339964,26.0644416 23.0339964,26.9830566 C23.0339964,27.9016717 22.2944832,28.6463563 21.3822474,28.6463563 L21.3822474,28.6463563 L8.16825565,28.6463563 C7.25601988,28.6463563 6.51650668,27.9016717 6.51650668,26.9830566 C6.51650668,26.0644416 7.25601988,25.319757 8.16825565,25.319757 L8.16825565,25.319757 Z M21.3822474,18.6665583 C22.2944832,18.6665583 23.0339964,19.4112429 23.0339964,20.329858 C23.0339964,21.248473 22.2944832,21.9931576 21.3822474,21.9931576 L21.3822474,21.9931576 L8.16825565,21.9931576 C7.25601988,21.9931576 6.51650668,21.248473 6.51650668,20.329858 C6.51650668,19.4112429 7.25601988,18.6665583 8.16825565,18.6665583 L8.16825565,18.6665583 Z M11.4717536,12.0133596 C12.3839894,12.0133596 13.1235026,12.7580443 13.1235026,13.6766593 C13.1235026,14.5952743 12.3839894,15.339959 11.4717536,15.339959 L11.4717536,15.339959 L8.16825565,15.339959 C7.25601988,15.339959 6.51650668,14.5952743 6.51650668,13.6766593 C6.51650668,12.7580443 7.25601988,12.0133596 8.16825565,12.0133596 L8.16825565,12.0133596 Z M19.7295108,6.048262 L19.7304984,10.35006 L24.0005108,10.349262 L19.7295108,6.048262 Z" id="path-18"></path>
        <path d="M13.75,0 C13.7941911,0 13.8378467,0.00229316871 13.8808541,0.00676700035 L13.75,0 C13.8162355,0 13.881929,0.00525694116 13.9465226,0.0155397695 C13.9701591,0.0191086024 13.992749,0.0233404213 14.0151161,0.0281708262 C14.0322448,0.0321398038 14.0500238,0.0363983451 14.0676885,0.0410407894 C14.0946367,0.0478045058 14.1205565,0.0555325238 14.1461088,0.0640632613 C14.160755,0.0693053936 14.1758776,0.0746759142 14.1908891,0.0803344975 C14.2187365,0.0904816017 14.2457589,0.101793784 14.2722804,0.114007418 C14.2843465,0.119888443 14.2963476,0.125640889 14.3082569,0.131585085 C14.337487,0.145899179 14.3659242,0.161546133 14.3936604,0.1782393 C14.4041654,0.184752089 14.415414,0.191741556 14.4265562,0.198913179 C14.4582781,0.219233101 14.4881961,0.24048749 14.5171,0.262983615 C14.5214712,0.266446375 14.5260487,0.270054306 14.530603,0.273695915 C14.5355396,0.277595341 14.5403427,0.281499913 14.5451161,0.285439232 L14.6338835,0.366116524 L14.6338835,0.366116524 L22.1338835,7.86611652 C22.1964743,7.92870737 22.2524583,7.99790512 22.3006994,8.07257393 C22.307848,8.08394838 22.3144473,8.0945475 22.3208831,8.10523728 C22.3376983,8.1327042 22.3537499,8.16181144 22.3686469,8.19159666 C22.3743591,8.2036524 22.3801116,8.21565349 22.3856703,8.22774155 C22.3982062,8.25424114 22.4095184,8.28126351 22.4198899,8.30874741 C22.4253241,8.3241224 22.4306946,8.339245 22.4357736,8.35447029 C22.4444675,8.37944354 22.4521955,8.40536325 22.4590909,8.43162036 C22.4636017,8.4499762 22.4678602,8.4677552 22.4717297,8.48563619 C22.4766596,8.50725102 22.4808914,8.52984086 22.484507,8.55263585 C22.4947431,8.61807104 22.5,8.68376452 22.5,8.75 L22.5,23.75 C22.5,25.8210678 20.8210678,27.5 18.75,27.5 L3.75,27.5 C1.67893219,27.5 0,25.8210678 0,23.75 L0,3.75 C0,1.67893219 1.67893219,0 3.75,0 Z M12.5,2.5 L3.75,2.5 C3.05964406,2.5 2.5,3.05964406 2.5,3.75 L2.5,23.75 C2.5,24.4403559 3.05964406,25 3.75,25 L18.75,25 C19.4403559,25 20,24.4403559 20,23.75 L20,10 L13.75,10 C13.1027913,10 12.5704661,9.50812534 12.5064536,8.87780524 L12.5,8.75 L12.5,2.5 Z M16.25,18.75 C16.9403559,18.75 17.5,19.3096441 17.5,20 C17.5,20.6903559 16.9403559,21.25 16.25,21.25 L16.25,21.25 L6.25,21.25 C5.55964406,21.25 5,20.6903559 5,20 C5,19.3096441 5.55964406,18.75 6.25,18.75 L6.25,18.75 Z M16.25,13.75 C16.9403559,13.75 17.5,14.3096441 17.5,15 C17.5,15.6903559 16.9403559,16.25 16.25,16.25 L16.25,16.25 L6.25,16.25 C5.55964406,16.25 5,15.6903559 5,15 C5,14.3096441 5.55964406,13.75 6.25,13.75 L6.25,13.75 Z M8.75,8.75 C9.44035594,8.75 10,9.30964406 10,10 C10,10.6903559 9.44035594,11.25 8.75,11.25 L8.75,11.25 L6.25,11.25 C5.55964406,11.25 5,10.6903559 5,10 C5,9.30964406 5.55964406,8.75 6.25,8.75 L6.25,8.75 Z M15,4.268 L15,7.5 L18.233,7.5 L15,4.268 Z" id="path-20"></path>
        <path d="M18.4306013,0.296187929 C18.4827587,0.296187929 18.5343514,0.298622316 18.5852736,0.30338441 L18.4306013,0.296187929 C18.4973387,0.296187929 18.5636597,0.300255008 18.6292375,0.30825286 C18.6666185,0.312612375 18.7032459,0.318319164 18.7394554,0.325216041 C18.7535396,0.328216898 18.7675879,0.331101323 18.7815888,0.334167539 C18.8177555,0.341694646 18.853639,0.35081042 18.8890342,0.361086114 C18.904032,0.365897006 18.9186888,0.370387664 18.9332769,0.375081301 C18.9693151,0.386188905 19.0050389,0.399065049 19.0401704,0.413120065 C19.0527859,0.418641109 19.0654072,0.423870354 19.0779626,0.42925639 C19.1100855,0.442585512 19.1416587,0.45736154 19.172672,0.47309286 C19.1874044,0.480947657 19.2025935,0.488931441 19.2176613,0.497154511 C19.3049426,0.544580212 19.3867963,0.599512318 19.4631021,0.661124424 C19.477222,0.672578793 19.4913442,0.684358003 19.5052858,0.696387366 C19.5320648,0.719483638 19.5579518,0.743318067 19.5830629,0.767950606 C19.588294,0.773082757 19.5934442,0.778201267 19.5985642,0.783357122 L29.5090581,10.7631551 L29.5350917,10.7899648 C29.553045,10.8088725 29.5705599,10.8282059 29.5876198,10.8479484 L29.5090581,10.7631551 C29.5518851,10.8062817 29.5921175,10.8515327 29.6296541,10.8986621 C29.7543861,11.0549698 29.8516362,11.2346058 29.9139779,11.4299976 C29.9188723,11.4467842 29.9239079,11.4634484 29.9286842,11.4801953 C29.9389015,11.5145362 29.9476595,11.54956 29.9552954,11.585005 C29.9580534,11.5993535 29.9609721,11.6137471 29.9637024,11.6281867 C29.9709528,11.6651936 29.9766763,11.702547 29.9811448,11.7402884 C29.9827316,11.754891 29.9842671,11.7693265 29.9856156,11.783794 C29.9904294,11.8348689 29.9928441,11.8867933 29.9928441,11.9392856 L29.9928441,11.9392856 L29.9928441,31.8988815 C29.9928441,34.6547266 27.7743045,36.8887805 25.0375972,36.8887805 L5.21660956,36.8887805 C2.47990226,36.8887805 0.261362647,34.6547266 0.261362647,31.8988815 L0.261362647,5.28608692 C0.261362647,2.5302418 2.47990226,0.296187929 5.21660956,0.296187929 Z M16.7783626,3.62218793 L5.21660956,3.62278726 C4.30437379,3.62278726 3.56486059,4.36747188 3.56486059,5.28608692 L3.56486059,31.8988815 C3.56486059,32.8174966 4.30437379,33.5621812 5.21660956,33.5621812 L25.0375972,33.5621812 C25.949833,33.5621812 26.6893462,32.8174966 26.6893462,31.8988815 L26.6883626,13.6021879 L18.4306013,13.6025852 C17.566378,13.6025852 16.8571743,12.9342256 16.7849153,12.0828014 L16.7788524,11.9392856 L16.7783626,3.62218793 Z M21.7340993,25.2456829 C22.646335,25.2456829 23.3858482,25.9903675 23.3858482,26.9089825 C23.3858482,27.8275976 22.646335,28.5722822 21.7340993,28.5722822 L21.7340993,28.5722822 L8.5201075,28.5722822 C7.60787174,28.5722822 6.86835853,27.8275976 6.86835853,26.9089825 C6.86835853,25.9903675 7.60787174,25.2456829 8.5201075,25.2456829 L8.5201075,25.2456829 Z M21.7340993,18.5924842 C22.646335,18.5924842 23.3858482,19.3371689 23.3858482,20.2557839 C23.3858482,21.1743989 22.646335,21.9190836 21.7340993,21.9190836 L21.7340993,21.9190836 L8.5201075,21.9190836 C7.60787174,21.9190836 6.86835853,21.1743989 6.86835853,20.2557839 C6.86835853,19.3371689 7.60787174,18.5924842 8.5201075,18.5924842 L8.5201075,18.5924842 Z M11.8236054,11.9392856 C12.7358412,11.9392856 13.4753544,12.6839702 13.4753544,13.6025852 C13.4753544,14.5212003 12.7358412,15.2658849 11.8236054,15.2658849 L11.8236054,15.2658849 L8.5201075,15.2658849 C7.60787174,15.2658849 6.86835853,14.5212003 6.86835853,13.6025852 C6.86835853,12.6839702 7.60787174,11.9392856 8.5201075,11.9392856 L8.5201075,11.9392856 Z M20.0813626,5.97418793 L20.0823503,10.2759859 L24.3523626,10.2751879 L20.0813626,5.97418793 Z" id="path-22"></path>
    </defs>
    <g id="2041-10-15-16-10_CheckStatusOfWorkingTreeAndStagingArea--GitStatus" stroke="none" stroke-width="1" fill="none" fill-rule="evenodd">
        <rect fill="#FFFFFF" x="0" y="0" width="800" height="600"></rect>
        <rect id="Rectangle" fill-opacity="0.3" fill="#C5DDFF" x="260" y="222" width="498" height="326"></rect>
        <path d="M260,222 L260,548 L182,287 L182.000975,280.905908 C181.342366,280.968163 180.674901,281 180,281 C168.40202,281 159,271.59798 159,260 C159,248.40202 168.40202,239 180,239 C180.674901,239 181.342366,239.031837 182.000975,239.094092 L182,239 L260,222 Z" id="Combined-Shape" fill-opacity="0.3" fill="#C5DDFF"></path>
        <g id="bloovee-winner-logo" transform="translate(725.000000, 580.000000)">
            <path d="M13,13.7751507 C13,14.396312 13.4732558,14.8717809 14.0514961,14.8717809 C14.6474304,14.8717809 15.1204503,14.3968042 15.1204503,13.7751507 L15.1204503,2.09687626 C15.1204503,1.49368045 14.6474304,1 14.0514961,1 C13.4557977,1 13,1.49392656 13,2.09687626 L13,13.7751507 Z M21.7920364,15 C24.6483217,15 26.751078,12.7149437 26.751078,9.97312215 L26.751078,9.93645297 C26.751078,7.17641992 24.6657798,4.92778666 21.8269526,4.92778666 C18.9881254,4.92778666 16.885369,7.212843 16.885369,9.97312215 L16.885369,10.0095452 C16.885369,12.7516128 18.9706673,15 21.7920364,15 Z M21.8269526,13.0621935 C20.179994,13.0621935 19.0055834,11.6547366 19.0055834,9.97312215 L19.0055834,9.93645297 C19.0055834,8.25459244 20.0919958,6.86534709 21.7920364,6.86534709 C23.456689,6.86534709 24.6306277,8.27305008 24.6306277,9.97312215 L24.6306277,10.0095452 C24.6306277,11.6731942 23.5444513,13.0621935 21.8269526,13.0621935 Z M32.8092717,15 C35.665557,15 37.7683133,12.7149437 37.7683133,9.97312215 L37.7683133,9.93645297 C37.7683133,7.17641992 35.6830151,4.92778666 32.8441878,4.92778666 C30.0053606,4.92778666 27.9026043,7.212843 27.9026043,9.97312215 L27.9026043,10.0095452 C27.9026043,12.7516128 29.9879025,15 32.8092717,15 Z M32.8441878,13.0621935 C31.1969933,13.0621935 30.0228187,11.6547366 30.0228187,9.97312215 L30.0228187,9.93645297 C30.0228187,8.25459244 31.109231,6.86534709 32.8092717,6.86534709 C34.4739243,6.86534709 35.647863,8.27305008 35.647863,9.97312215 L35.647863,10.0095452 C35.647863,11.6731942 34.5614506,13.0621935 32.8441878,13.0621935 Z M44.1416963,13.9944275 L47.2261164,6.6096472 C47.2784906,6.49988574 47.3487948,6.28060893 47.3487948,6.07954366 C47.3487948,5.47610175 46.8929971,5.01933658 46.3147568,5.01933658 C45.7539746,5.01933658 45.4737015,5.40300947 45.3158709,5.78692847 L42.8976893,12.2215093 L40.5144239,5.82335156 C40.3393711,5.36634029 40.041404,5.01933658 39.4629278,5.01933658 C38.8846875,5.01933658 38.4116676,5.53098247 38.4116676,6.07954366 C38.4116676,6.28060893 38.4817358,6.46346265 38.534346,6.62785874 L41.6182943,13.9944275 C41.8638872,14.5796579 42.2491448,14.9633308 42.8273851,14.9633308 L42.9326055,14.9633308 C43.5108458,14.9633308 43.8965752,14.5612003 44.1416963,13.9944275 Z M50.0949054,9.27837643 C50.2876522,7.77961573 51.1987758,6.73762019 52.4956289,6.73762019 C53.8974665,6.73762019 54.7036056,7.8524619 54.8437422,9.27837643 L50.0949054,9.27837643 Z M56.070527,13.72027 C56.2281217,13.5558739 56.3508002,13.3181395 56.3508002,13.0439819 C56.3508002,12.5320899 55.9830006,12.1481709 55.5095089,12.1481709 C55.2641519,12.1481709 55.1242513,12.2215093 54.9664207,12.3492362 C54.3704864,12.8611282 53.6695676,13.1901665 52.7759021,13.1901665 C51.4089807,13.1901665 50.3402624,12.3128131 50.1123635,10.7409601 L55.9126964,10.7409601 C56.4560206,10.7409601 56.9115824,10.3021604 56.9115824,9.68050697 C56.9115824,7.45057746 55.4568987,4.92778666 52.513087,4.92778666 C49.8672425,4.92778666 47.9919132,7.19438536 47.9919132,9.95466451 L47.9919132,9.9913337 C47.9919132,12.9708897 50.0597533,15 52.7409859,15 C54.1779755,15 55.2292357,14.5063195 56.070527,13.72027 Z M60.1833231,9.27837643 C60.3763058,7.77961573 61.2871935,6.73762019 62.5842825,6.73762019 C63.9858841,6.73762019 64.7920233,7.8524619 64.9321598,9.27837643 L60.1833231,9.27837643 Z M66.1589447,13.72027 C66.3167752,13.5558739 66.4394537,13.3181395 66.4394537,13.0439819 C66.4394537,12.5320899 66.0714183,12.1481709 65.5981624,12.1481709 C65.3528055,12.1481709 65.2126689,12.2215093 65.0548383,12.3492362 C64.4591399,12.8611282 63.7582212,13.1901665 62.8643197,13.1901665 C61.4976342,13.1901665 60.4289159,12.3128131 60.2007812,10.7409601 L66.0011141,10.7409601 C66.5444382,10.7409601 67,10.3021604 67,9.68050697 C67,7.45057746 65.5455522,4.92778666 62.6015046,4.92778666 C59.9556601,4.92778666 58.0805667,7.19438536 58.0805667,9.95466451 L58.0805667,9.9913337 C58.0805667,12.9708897 60.1484069,15 62.8294035,15 C64.2663932,15 65.3178893,14.5063195 66.1589447,13.72027 L66.1589447,13.72027 Z" id="Fill-1" fill="#030060"></path>
            <g id="Group-4">
                <mask id="mask-2" fill="white">
                    <use xlink:href="#path-1"></use>
                </mask>
                <g id="Clip-3"></g>
                <path d="M8.68744595,14.5405413 C10.6544909,13.5649687 12,11.5915112 12,9.31636202 C12,6.07252388 9.26504479,3.44227578 5.89152197,3.44227578 C4.52034181,3.44227578 3.25480793,3.87689217 2.23537065,4.61058921 L2.23537065,1.05770107 C2.23537065,0.476155373 1.74046224,0 1.11695169,0 C0.493934821,0 0.0167986821,0.476630104 0.0167986821,1.05770107 L0.0167986821,1.80184219 L0,9.32158406 C-0.0041824725,11.2003327 0.951817666,12.865215 2.41753644,13.8939574 C2.4777647,13.9362085 2.55848043,13.9312238 2.6127846,13.8823265 C2.66758244,13.8334292 2.6779496,13.7558106 2.63746831,13.6950451 C0.724974359,10.8146136 1.16014819,5.53963813 5.89176881,5.53963813 C8.05899866,5.53963813 9.80709909,7.22944376 9.81623206,9.31351363 C9.82240299,10.8599505 9.11620201,12.0365717 8.19549958,12.7781018 C6.36026565,14.2561773 3.64974731,12.6382934 4.49738595,10.4697214 C4.5894562,10.2335427 4.71879884,9.9959397 4.88664808,9.76189723 L5.12361171,9.47705853 C5.19766284,9.39967734 5.25048599,9.29903433 5.2146946,9.19411874 C5.01401603,8.62800181 3.46832203,8.97526767 3.04005964,10.0315445 C3.34292878,9.79631524 3.65986763,9.66433998 3.96940137,9.71489885 C2.38890334,11.275815 3.44141679,13.9563846 5.46005069,14.7513219 C6.40494316,15.1232738 7.55964718,15.0976383 8.68744595,14.5405413" id="Fill-2" fill="url(#linearGradient-3)" mask="url(#mask-2)"></path>
            </g>
        </g>
        <g id="Rectangle-Copy-4">
            <use fill="black" fill-opacity="1" filter="url(#filter-5)" xlink:href="#path-4"></use>
            <rect stroke="#006AE1" stroke-width="4" stroke-linejoin="square" fill="#FFFFFF" fill-rule="evenodd" x="22" y="64" width="762" height="136"></rect>
        </g>
        <text id="Check-Status-Of-Work" fill-rule="nonzero" font-family="Helvetica" font-size="18" font-weight="normal" fill="#0055C2">
            <tspan x="10" y="23">Check Status Of Working Tree and Staging Area — Git Status</tspan>
        </text>
        <g id="Rectangle-Copy-3">
            <use fill="black" fill-opacity="1" filter="url(#filter-7)" xlink:href="#path-6"></use>
            <use fill="#FFFFFF" fill-rule="evenodd" xlink:href="#path-6"></use>
        </g>
        <g id="git" transform="translate(704.000000, 9.000000)">
            <path d="M46.8658496,11.2380575 C45.1623498,11.2380575 43.8939053,12.0891281 43.8939053,14.1376499 C43.8939053,15.6808485 44.7297841,16.7522856 46.7743573,16.7522856 C48.5071097,16.7522856 49.6846843,15.7131436 49.6846843,14.073693 C49.6846843,12.2157755 48.6309666,11.2380575 46.8658496,11.2380575 L46.8658496,11.2380575 Z M43.4607172,25.7011913 C43.0574041,26.2046147 42.6553359,26.7397 42.6553359,27.3710373 C42.6553359,28.6305458 44.2337339,29.0092215 46.4027864,29.0092215 C48.1984009,29.0092215 50.6450424,28.8813076 50.6450424,27.1823327 C50.6450424,26.1723196 49.4674678,26.1102624 47.9805621,26.0152768 L43.4607172,25.7011913 Z M52.6255087,11.3330431 C53.1825537,12.0580995 53.7719634,13.0662128 53.7719634,14.5156924 C53.7719634,18.0124273 51.0776081,20.0603158 47.1764255,20.0603158 C46.1843252,20.0603158 45.2862067,19.9349349 44.7291617,19.7772589 L43.7071863,21.4471049 L46.7413702,21.6351763 C52.0989611,21.9828234 55.257002,22.1404995 55.257002,26.3293624 C55.257002,29.9533779 52.1300809,32 46.7413702,32 C41.1360655,32 39,30.5505204 39,28.0625322 C39,26.6440812 39.6199071,25.8898959 40.7034998,24.848221 C39.680902,24.4087545 39.3410734,23.6216409 39.3410734,22.7705703 C39.3410734,22.0771758 39.6815244,21.4471049 40.2391918,20.8480627 C40.7968593,20.2502869 41.416144,19.6506115 42.1586633,18.9578502 C40.6412601,18.2017651 39.4960502,16.563581 39.4960502,14.231369 C39.4960502,10.6086199 41.8493321,8.12063165 46.5870158,8.12063165 C47.9189448,8.12063165 48.7249485,8.24537935 49.436348,8.43598369 L55.4754632,8.43598369 L55.4754632,11.1133099 L52.6255087,11.3330431 L52.6255087,11.3330431 Z M60.9233016,5.60858036 C59.1575621,5.60858036 58.1355867,4.56817192 58.1355867,2.77167847 C58.1355867,0.977717972 59.1575621,0 60.9233016,0 C62.7195385,0 63.7408917,0.977084735 63.7408917,2.77167847 C63.7415139,4.56817192 62.7195385,5.60858036 60.9233016,5.60858036 Z M56.9275147,24.5423675 L56.9275147,22.0543792 L58.50778,21.8340127 C58.9409681,21.770689 59.0025853,21.6763367 59.0025853,21.2026754 L59.0025853,11.9403174 C59.0025853,11.59457 58.9104706,11.372937 58.5998947,11.279218 L56.9275147,10.6801757 L57.2679657,8.12949697 L63.6792742,8.12949697 L63.6792742,21.2033087 C63.6792742,21.7086318 63.7091492,21.770689 64.174702,21.834646 L65.7543448,22.0550125 L65.7543448,24.5430008 L56.9275147,24.5430008 L56.9275147,24.5423675 Z M78,23.32022 C76.6674487,23.9806863 74.7174798,24.5803617 72.9511179,24.5803617 C69.2665294,24.5803617 67.8736056,23.0694582 67.8736056,19.5074999 L67.8736056,11.2532552 C67.8736056,11.0651838 67.8736056,10.9385364 67.6252693,10.9385364 L65.458084,10.9385364 L65.458084,8.13456287 C68.1841815,7.81857759 69.2671518,6.43242174 69.6076028,2.99837733 L72.5502944,2.99837733 L72.5502944,7.47346341 C72.5502944,7.69319666 72.5502944,7.78881545 72.7980083,7.78881545 L77.1641212,7.78881545 L77.1641212,10.9391697 L72.5502944,10.9391697 L72.5502944,18.4683579 C72.5502944,20.3269086 72.9841049,21.0513318 74.6558625,21.0513318 C75.5241059,21.0513318 76.4209796,20.8315985 77.1641212,20.5479083 L78,23.32022 L78,23.32022 Z" id="Shape" fill="#31251C" fill-rule="nonzero"></path>
            <path d="M32.3772539,15.0299695 L17.9690664,0.622277028 C17.140005,-0.207425676 15.7941261,-0.207425676 14.9644314,0.622277028 L11.9724635,3.61427365 L15.7668919,7.40937182 C16.6497884,7.11169223 17.6606226,7.31120089 18.3636464,8.01486479 C19.0704703,8.72232885 19.2687104,9.74203981 18.9634334,10.6274783 L22.6210571,14.2851371 C23.5052204,13.9804906 24.5268216,14.1774658 25.2336455,14.8849299 C26.221679,15.8723394 26.221679,17.4728423 25.2336455,18.4608852 C24.2449787,19.4489281 22.6451246,19.4489281 21.6570912,18.4608852 C20.914166,17.7173195 20.7304932,16.6260388 21.1067059,15.7108324 L17.6954571,12.2995509 L17.6948238,21.2768075 C17.9361319,21.3958793 18.1628729,21.5542195 18.3636464,21.7543616 C19.3516798,22.7417711 19.3516798,24.3416406 18.3636464,25.3309502 C17.375613,26.3183598 15.7744921,26.3183598 14.7877254,25.3309502 C13.799692,24.3416406 13.799692,22.7417711 14.7877254,21.7543616 C15.0322003,21.5105176 15.3140432,21.3262096 15.6155201,21.2027043 L15.6155201,12.1424774 C15.3140432,12.0196054 15.0322003,11.8359308 14.7877254,11.5908201 C14.0391001,10.842821 13.8592273,9.74520661 14.2430403,8.82620003 L10.5024471,5.08430417 L0.622746073,14.9634666 C-0.207582024,15.7938027 -0.207582024,17.1396945 0.622746073,17.9700305 L15.0309336,32.377723 C15.8606284,33.2074257 17.2058739,33.2074257 18.0368353,32.377723 L32.3772539,18.0359 C33.207582,17.2061973 33.207582,15.8596722 32.3772539,15.0299695 L32.3772539,15.0299695 Z" id="Path" fill="#F34F29" fill-rule="nonzero"></path>
            <polygon id="Path" points="1.12409637e-15 0 79 0 79 33 0 33"></polygon>
        </g>
        <text id="$-git-status" font-family="Helvetica-Bold, Helvetica" font-size="36" font-weight="bold" fill="#0055C2">
            <tspan x="307.981445" y="149">$ git status</tspan>
        </text>
        <text id="Working-Tree" font-family="Helvetica" font-size="21" font-weight="normal" fill="#0055C2">
            <tspan x="78.1760254" y="306">Working </tspan>
            <tspan x="95.2949219" y="331">Tree</tspan>
        </text>
        <text id="Untracked-Files" font-family="Helvetica" font-size="21" font-weight="normal" fill="#0055C2">
            <tspan x="299.64502" y="292">Untracked </tspan>
            <tspan x="325.331055" y="317">Files</tspan>
        </text>
        <text id="Git-stage-status" font-family="Helvetica" font-size="21" font-weight="normal" fill="#0055C2">
            <tspan x="290.548584" y="242">Git stage status</tspan>
        </text>
        <text id="INDEX-(Staging-Area)" font-family="Helvetica" font-size="21" font-weight="normal" fill="#0055C2">
            <tspan x="460.4104" y="292">INDEX</tspan>
            <tspan x="441.355469" y="317" font-size="16">(Staging Area)</tspan>
        </text>
        <text id="HEAD-(Latest-Commit)" font-family="Helvetica" font-size="21" font-weight="normal" fill="#0055C2">
            <tspan x="607.327637" y="292">HEAD</tspan>
            <tspan x="579.601562" y="317" font-size="16">(Latest Commit)</tspan>
        </text>
        <use id="Oval-Copy-11" stroke="#0055C2" mask="url(#mask-9)" stroke-width="12" fill="#C5DDFF" stroke-dasharray="6,6" xlink:href="#path-8"></use>
        <circle id="Oval-Copy-12" stroke="#0055C2" stroke-width="6" fill="#7BB2FF" cx="635" cy="345" r="13"></circle>
        <g id="Path-Copy-8">
            <use fill="black" fill-opacity="1" filter="url(#filter-11)" xlink:href="#path-10"></use>
            <use fill="#7BB2FF" fill-rule="evenodd" xlink:href="#path-10"></use>
        </g>
        <g id="file-text-copy-3" transform="translate(126.771440, 439.740985)">
            <mask id="mask-13" fill="white">
                <use xlink:href="#path-12"></use>
            </mask>
            <use id="Combined-Shape" fill="#0055C2" fill-rule="nonzero" xlink:href="#path-12"></use>
            <g id="Group" mask="url(#mask-13)">
                <g transform="translate(-3.750000, -1.250000)" id="🎨Color">
                    <rect id="Rectangle" fill="#0055C2" x="0" y="0" width="30" height="30"></rect>
                </g>
            </g>
        </g>
        <g id="file-text-copy-7" transform="translate(477.840266, 434.874589)">
            <mask id="mask-15" fill="white">
                <use xlink:href="#path-14"></use>
            </mask>
            <use id="Combined-Shape" fill="#0055C2" fill-rule="nonzero" xlink:href="#path-14"></use>
            <g id="Group" mask="url(#mask-15)">
                <g transform="translate(-5.534934, -2.143627)" id="🎨Color">
                    <rect id="Rectangle" fill="#0055C2" x="0" y="0" width="40.0231481" height="40.0231481"></rect>
                </g>
            </g>
        </g>
        <g id="file-text-copy-5" transform="translate(126.771440, 491.740985)">
            <mask id="mask-17" fill="white">
                <use xlink:href="#path-16"></use>
            </mask>
            <use id="Combined-Shape" fill="#0055C2" fill-rule="nonzero" xlink:href="#path-16"></use>
            <g id="Group" mask="url(#mask-17)">
                <g transform="translate(-3.750000, -1.250000)" id="🎨Color">
                    <rect id="Rectangle" fill="#0055C2" x="0" y="0" width="30" height="30"></rect>
                </g>
            </g>
        </g>
        <g id="file-text-copy-8" transform="translate(621.079132, 487.676208)">
            <mask id="mask-19" fill="white">
                <use xlink:href="#path-18"></use>
            </mask>
            <use id="Combined-Shape" fill="#0055C2" fill-rule="nonzero" xlink:href="#path-18"></use>
            <g id="Group" mask="url(#mask-19)">
                <g transform="translate(-4.664563, -1.916775)" id="🎨Color">
                    <rect id="Rectangle" fill="#0055C2" x="0" y="0" width="40.0231481" height="40.0231481"></rect>
                </g>
            </g>
        </g>
        <g id="file-text-copy-4" transform="translate(126.771440, 386.740985)">
            <mask id="mask-21" fill="white">
                <use xlink:href="#path-20"></use>
            </mask>
            <use id="Combined-Shape" fill="#0055C2" fill-rule="nonzero" xlink:href="#path-20"></use>
            <g id="Group" mask="url(#mask-21)">
                <g transform="translate(-3.750000, -1.250000)" id="🎨Color">
                    <rect id="Rectangle" fill="#0055C2" x="0" y="0" width="30" height="30"></rect>
                </g>
            </g>
        </g>
        <g id="file-text-copy-6" transform="translate(335.771440, 381.740985)">
            <mask id="mask-23" fill="white">
                <use xlink:href="#path-22"></use>
            </mask>
            <use id="Combined-Shape" fill="#0055C2" fill-rule="nonzero" xlink:href="#path-22"></use>
            <g id="Group" mask="url(#mask-23)">
                <g transform="translate(-5.456230, -1.990849)" id="🎨Color">
                    <rect id="Rectangle" fill="#0055C2" x="0" y="0" width="40.0231481" height="40.0231481"></rect>
                </g>
            </g>
        </g>
        <polyline id="Path-3-Copy" stroke="#0055C2" points="106.045153 370.939394 106.045153 400.939394 127.045153 400.939394"></polyline>
        <polyline id="Path-3-Copy-2" stroke="#0055C2" points="106.045153 399.939394 106.045153 456.939394 127.045153 456.939394"></polyline>
        <polyline id="Path-3-Copy-3" stroke="#0055C2" points="106.045153 455.939394 106.045153 505.939394 127.045153 505.939394"></polyline>
        <g id="Group" transform="translate(285.000000, 245.500000)" fill="#7BB2FF">
            <rect id="Rectangle" transform="translate(182.500000, 9.500000) rotate(-540.000000) translate(-182.500000, -9.500000) " x="0" y="4.5" width="365" height="10"></rect>
            <path d="M372.884918,2.18134462 L381.228555,18.0342536 C381.485779,18.5229804 381.29811,19.1276936 380.809383,19.3849182 C380.665772,19.4605028 380.505923,19.5 380.343636,19.5 L363.656364,19.5 C363.104079,19.5 362.656364,19.0522847 362.656364,18.5 C362.656364,18.337713 362.695861,18.1778643 362.771445,18.0342536 L371.115082,2.18134462 C371.372306,1.69261778 371.97702,1.50494818 372.465746,1.76217283 C372.644625,1.85631936 372.790772,2.00246622 372.884918,2.18134462 Z" id="Triangle-Copy" transform="translate(372.000000, 10.000000) scale(-1, 1) rotate(-450.000000) translate(-372.000000, -10.000000) "></path>
        </g>
        <rect id="Rectangle" stroke="#0055C2" x="286.5" y="272.5" width="122" height="100" rx="5"></rect>
        <rect id="Rectangle-Copy" stroke="#0055C2" x="431.5" y="272.5" width="122" height="100" rx="5"></rect>
        <rect id="Rectangle-Copy-2" stroke="#0055C2" x="574.5" y="272.5" width="122" height="100" rx="5"></rect>
        <line x1="336.5" y1="344.5" x2="358.5" y2="344.5" id="Line-16" stroke="#0055C2" stroke-width="5" stroke-linecap="round"></line>
        <g id="magnifying-glass" transform="translate(157.000000, 235.000000)" fill-rule="nonzero">
            <path d="M24,48 C10.7672727,48 0,37.2327273 0,24 C0,10.7672727 10.7672727,0 24,0 C37.2327273,0 48,10.7672727 48,24 C48,37.2327273 37.2327273,48 24,48 Z M24,4.36363636 C13.1738182,4.36363636 4.36363636,13.1738182 4.36363636,24 C4.36363636,34.8261818 13.1738182,43.6363636 24,43.6363636 C34.8261818,43.6363636 43.6363636,34.8261818 43.6363636,24 C43.6363636,13.1738182 34.8261818,4.36363636 24,4.36363636 Z" id="Shape" fill="#333333"></path>
            <path d="M11.125,26 C9.952,26 9,25.048 9,23.875 C9,15.6725 15.6725,9 23.875,9 C25.048,9 26,9.952 26,11.125 C26,12.298 25.048,13.25 23.875,13.25 C18.016375,13.25 13.25,18.016375 13.25,23.875 C13.25,25.048 12.298,26 11.125,26 Z" id="Path" fill="#008AD0"></path>
            <path d="M45.7715949,48 C45.2012658,48 44.6309367,47.7816598 44.1965063,47.3472075 L37.6533165,40.8036863 C36.7822278,39.9325535 36.7822278,38.5244823 37.6533165,37.6533495 C38.5244051,36.7822168 39.9324051,36.7822168 40.8034937,37.6533495 L47.3466835,44.1968707 C48.2177722,45.0680034 48.2177722,46.4760747 47.3466835,47.3472075 C46.9122532,47.7816598 46.3419241,48 45.7715949,48 Z" id="Path" fill="#333333"></path>
            <path d="M59.3832219,64 C58.2707305,64 57.1582391,63.5762972 56.3108335,62.7288916 L42.6371838,49.055242 C41.7876054,48.2056635 41.7876054,46.8324319 42.6371838,45.9828535 L46.9828535,41.6371838 C47.8324319,40.7876054 49.2056635,40.7876054 50.055242,41.6371838 L63.7288916,55.3108335 C65.4237028,57.0056446 65.4237028,59.7607992 63.7288916,61.4556104 L62.4556104,62.7288916 C61.6082048,63.5762972 60.4957134,64 59.3832219,64 Z M47.2457665,47.5190477 L59.3832219,59.6565032 L60.658676,58.3810491 L48.5190477,46.2457665 L47.2457665,47.5190477 Z" id="Shape" fill="#333333"></path>
        </g>
        <path id="Line-37" d="M307,396 L316,400.5 L307,405 L307,401 L301,401 L301,400 L307,400 L307,396 Z M167,400 L167,401 L161,401 L161,400 L167,400 Z M177,400 L177,401 L171,401 L171,400 L177,400 Z M187,400 L187,401 L181,401 L181,400 L187,400 Z M197,400 L197,401 L191,401 L191,400 L197,400 Z M207,400 L207,401 L201,401 L201,400 L207,400 Z M217,400 L217,401 L211,401 L211,400 L217,400 Z M227,400 L227,401 L221,401 L221,400 L227,400 Z M237,400 L237,401 L231,401 L231,400 L237,400 Z M247,400 L247,401 L241,401 L241,400 L247,400 Z M257,400 L257,401 L251,401 L251,400 L257,400 Z M267,400 L267,401 L261,401 L261,400 L267,400 Z M277,400 L277,401 L271,401 L271,400 L277,400 Z M287,400 L287,401 L281,401 L281,400 L287,400 Z M297,400 L297,401 L291,401 L291,400 L297,400 Z" fill="#979797" fill-rule="nonzero"></path>
        <path id="Line-37-Copy-2" d="M595,501 L604,505.5 L595,510 L595,506 L591,506 L591,505 L595,505 L595,501 Z M167,505 L167,506 L161,506 L161,505 L167,505 Z M177,505 L177,506 L171,506 L171,505 L177,505 Z M187,505 L187,506 L181,506 L181,505 L187,505 Z M197,505 L197,506 L191,506 L191,505 L197,505 Z M207,505 L207,506 L201,506 L201,505 L207,505 Z M217,505 L217,506 L211,506 L211,505 L217,505 Z M227,505 L227,506 L221,506 L221,505 L227,505 Z M237,505 L237,506 L231,506 L231,505 L237,505 Z M247,505 L247,506 L241,506 L241,505 L247,505 Z M257,505 L257,506 L251,506 L251,505 L257,505 Z M267,505 L267,506 L261,506 L261,505 L267,505 Z M277,505 L277,506 L271,506 L271,505 L277,505 Z M287,505 L287,506 L281,506 L281,505 L287,505 Z M297,505 L297,506 L291,506 L291,505 L297,505 Z M307,505 L307,506 L301,506 L301,505 L307,505 Z M317,505 L317,506 L311,506 L311,505 L317,505 Z M327,505 L327,506 L321,506 L321,505 L327,505 Z M337,505 L337,506 L331,506 L331,505 L337,505 Z M347,505 L347,506 L341,506 L341,505 L347,505 Z M357,505 L357,506 L351,506 L351,505 L357,505 Z M367,505 L367,506 L361,506 L361,505 L367,505 Z M377,505 L377,506 L371,506 L371,505 L377,505 Z M387,505 L387,506 L381,506 L381,505 L387,505 Z M397,505 L397,506 L391,506 L391,505 L397,505 Z M407,505 L407,506 L401,506 L401,505 L407,505 Z M417,505 L417,506 L411,506 L411,505 L417,505 Z M427,505 L427,506 L421,506 L421,505 L427,505 Z M437,505 L437,506 L431,506 L431,505 L437,505 Z M447,505 L447,506 L441,506 L441,505 L447,505 Z M457,505 L457,506 L451,506 L451,505 L457,505 Z M467,505 L467,506 L461,506 L461,505 L467,505 Z M477,505 L477,506 L471,506 L471,505 L477,505 Z M487,505 L487,506 L481,506 L481,505 L487,505 Z M497,505 L497,506 L491,506 L491,505 L497,505 Z M507,505 L507,506 L501,506 L501,505 L507,505 Z M517,505 L517,506 L511,506 L511,505 L517,505 Z M527,505 L527,506 L521,506 L521,505 L527,505 Z M537,505 L537,506 L531,506 L531,505 L537,505 Z M547,505 L547,506 L541,506 L541,505 L547,505 Z M557,505 L557,506 L551,506 L551,505 L557,505 Z M567,505 L567,506 L561,506 L561,505 L567,505 Z M577,505 L577,506 L571,506 L571,505 L577,505 Z M587,505 L587,506 L581,506 L581,505 L587,505 Z" fill="#979797" fill-rule="nonzero"></path>
        <path id="Line-37-Copy" d="M457,452 L466,456.5 L457,461 L457,457 L451,457 L451,456 L457,456 L457,452 Z M167,456 L167,457 L161,457 L161,456 L167,456 Z M177,456 L177,457 L171,457 L171,456 L177,456 Z M187,456 L187,457 L181,457 L181,456 L187,456 Z M197,456 L197,457 L191,457 L191,456 L197,456 Z M207,456 L207,457 L201,457 L201,456 L207,456 Z M217,456 L217,457 L211,457 L211,456 L217,456 Z M227,456 L227,457 L221,457 L221,456 L227,456 Z M237,456 L237,457 L231,457 L231,456 L237,456 Z M247,456 L247,457 L241,457 L241,456 L247,456 Z M257,456 L257,457 L251,457 L251,456 L257,456 Z M267,456 L267,457 L261,457 L261,456 L267,456 Z M277,456 L277,457 L271,457 L271,456 L277,456 Z M287,456 L287,457 L281,457 L281,456 L287,456 Z M297,456 L297,457 L291,457 L291,456 L297,456 Z M307,456 L307,457 L301,457 L301,456 L307,456 Z M317,456 L317,457 L311,457 L311,456 L317,456 Z M327,456 L327,457 L321,457 L321,456 L327,456 Z M337,456 L337,457 L331,457 L331,456 L337,456 Z M347,456 L347,457 L341,457 L341,456 L347,456 Z M357,456 L357,457 L351,457 L351,456 L357,456 Z M367,456 L367,457 L361,457 L361,456 L367,456 Z M377,456 L377,457 L371,457 L371,456 L377,456 Z M387,456 L387,457 L381,457 L381,456 L387,456 Z M397,456 L397,457 L391,457 L391,456 L397,456 Z M407,456 L407,457 L401,457 L401,456 L407,456 Z M417,456 L417,457 L411,457 L411,456 L417,456 Z M427,456 L427,457 L421,457 L421,456 L427,456 Z M437,456 L437,457 L431,457 L431,456 L437,456 Z M447,456 L447,457 L441,457 L441,456 L447,456 Z" fill="#979797" fill-rule="nonzero"></path>
    </g>
</svg>