<?xml version="1.0" encoding="UTF-8"?>
<svg width="800px" height="603px" viewBox="0 0 800 603" version="1.1" xmlns="http://www.w3.org/2000/svg" xmlns:xlink="http://www.w3.org/1999/xlink">
    <title>2041-10-14-12-10_Git&amp;GitHubProjectLaunchOverview(2)</title>
    <defs>
        <rect id="path-1" x="94" y="124" width="172" height="294" rx="3"></rect>
        <mask id="mask-2" maskContentUnits="userSpaceOnUse" maskUnits="objectBoundingBox" x="0" y="0" width="172" height="294" fill="white">
            <use xlink:href="#path-1"></use>
        </mask>
        <path d="M8.68744595,14.5405413 C10.6544909,13.5649687 12,11.5915112 12,9.31636202 C12,6.07252388 9.26504479,3.44227578 5.89152197,3.44227578 C4.52034181,3.44227578 3.25480793,3.87689217 2.23537065,4.61058921 L2.23537065,1.05770107 C2.23537065,0.476155373 1.74046224,0 1.11695169,0 C0.493934821,0 0.0167986821,0.476630104 0.0167986821,1.05770107 L0.0167986821,1.80184219 L0,9.32158406 C-0.0041824725,11.2003327 0.951817666,12.865215 2.41753644,13.8939574 C2.4777647,13.9362085 2.55848043,13.9312238 2.6127846,13.8823265 C2.66758244,13.8334292 2.6779496,13.7558106 2.63746831,13.6950451 C0.724974359,10.8146136 1.16014819,5.53963813 5.89176881,5.53963813 C8.05899866,5.53963813 9.80709909,7.22944376 9.81623206,9.31351363 C9.82240299,10.8599505 9.11620201,12.0365717 8.19549958,12.7781018 C6.36026565,14.2561773 3.64974731,12.6382934 4.49738595,10.4697214 C4.5894562,10.2335427 4.71879884,9.9959397 4.88664808,9.76189723 L5.12361171,9.47705853 C5.19766284,9.39967734 5.25048599,9.29903433 5.2146946,9.19411874 C5.01401603,8.62800181 3.46832203,8.97526767 3.04005964,10.0315445 C3.34292878,9.79631524 3.65986763,9.66433998 3.96940137,9.71489885 C2.38890334,11.275815 3.44141679,13.9563846 5.46005069,14.7513219 C6.40494316,15.1232738 7.55964718,15.0976383 8.68744595,14.5405413" id="path-3"></path>
        <linearGradient x1="28.568518%" y1="104.445731%" x2="78.3472072%" y2="20.6880271%" id="linearGradient-5">
            <stop stop-color="#000F98" offset="0%"></stop>
            <stop stop-color="#00A5FD" offset="100%"></stop>
        </linearGradient>
    </defs>
    <g id="2041-10-14-12-10_Git&amp;GitHubProjectLaunchOverview(2)" stroke="none" stroke-width="1" fill="none" fill-rule="evenodd">
        <rect fill="#FFFFFF" x="0" y="0" width="800" height="603"></rect>
        <text id="Git-&amp;-GitHub-Project" fill-rule="nonzero" font-family="Helvetica" font-size="18" font-weight="normal" fill="#0055C2">
            <tspan x="10" y="23">Git &amp; GitHub Project Launch Overview (2)</tspan>
        </text>
        <g id="git" transform="translate(661.000000, 9.000000)">
            <path d="M46.8658496,11.2380575 C45.1623498,11.2380575 43.8939053,12.0891281 43.8939053,14.1376499 C43.8939053,15.6808485 44.7297841,16.7522856 46.7743573,16.7522856 C48.5071097,16.7522856 49.6846843,15.7131436 49.6846843,14.073693 C49.6846843,12.2157755 48.6309666,11.2380575 46.8658496,11.2380575 L46.8658496,11.2380575 Z M43.4607172,25.7011913 C43.0574041,26.2046147 42.6553359,26.7397 42.6553359,27.3710373 C42.6553359,28.6305458 44.2337339,29.0092215 46.4027864,29.0092215 C48.1984009,29.0092215 50.6450424,28.8813076 50.6450424,27.1823327 C50.6450424,26.1723196 49.4674678,26.1102624 47.9805621,26.0152768 L43.4607172,25.7011913 Z M52.6255087,11.3330431 C53.1825537,12.0580995 53.7719634,13.0662128 53.7719634,14.5156924 C53.7719634,18.0124273 51.0776081,20.0603158 47.1764255,20.0603158 C46.1843252,20.0603158 45.2862067,19.9349349 44.7291617,19.7772589 L43.7071863,21.4471049 L46.7413702,21.6351763 C52.0989611,21.9828234 55.257002,22.1404995 55.257002,26.3293624 C55.257002,29.9533779 52.1300809,32 46.7413702,32 C41.1360655,32 39,30.5505204 39,28.0625322 C39,26.6440812 39.6199071,25.8898959 40.7034998,24.848221 C39.680902,24.4087545 39.3410734,23.6216409 39.3410734,22.7705703 C39.3410734,22.0771758 39.6815244,21.4471049 40.2391918,20.8480627 C40.7968593,20.2502869 41.416144,19.6506115 42.1586633,18.9578502 C40.6412601,18.2017651 39.4960502,16.563581 39.4960502,14.231369 C39.4960502,10.6086199 41.8493321,8.12063165 46.5870158,8.12063165 C47.9189448,8.12063165 48.7249485,8.24537935 49.436348,8.43598369 L55.4754632,8.43598369 L55.4754632,11.1133099 L52.6255087,11.3330431 L52.6255087,11.3330431 Z M60.9233016,5.60858036 C59.1575621,5.60858036 58.1355867,4.56817192 58.1355867,2.77167847 C58.1355867,0.977717972 59.1575621,0 60.9233016,0 C62.7195385,0 63.7408917,0.977084735 63.7408917,2.77167847 C63.7415139,4.56817192 62.7195385,5.60858036 60.9233016,5.60858036 Z M56.9275147,24.5423675 L56.9275147,22.0543792 L58.50778,21.8340127 C58.9409681,21.770689 59.0025853,21.6763367 59.0025853,21.2026754 L59.0025853,11.9403174 C59.0025853,11.59457 58.9104706,11.372937 58.5998947,11.279218 L56.9275147,10.6801757 L57.2679657,8.12949697 L63.6792742,8.12949697 L63.6792742,21.2033087 C63.6792742,21.7086318 63.7091492,21.770689 64.174702,21.834646 L65.7543448,22.0550125 L65.7543448,24.5430008 L56.9275147,24.5430008 L56.9275147,24.5423675 Z M78,23.32022 C76.6674487,23.9806863 74.7174798,24.5803617 72.9511179,24.5803617 C69.2665294,24.5803617 67.8736056,23.0694582 67.8736056,19.5074999 L67.8736056,11.2532552 C67.8736056,11.0651838 67.8736056,10.9385364 67.6252693,10.9385364 L65.458084,10.9385364 L65.458084,8.13456287 C68.1841815,7.81857759 69.2671518,6.43242174 69.6076028,2.99837733 L72.5502944,2.99837733 L72.5502944,7.47346341 C72.5502944,7.69319666 72.5502944,7.78881545 72.7980083,7.78881545 L77.1641212,7.78881545 L77.1641212,10.9391697 L72.5502944,10.9391697 L72.5502944,18.4683579 C72.5502944,20.3269086 72.9841049,21.0513318 74.6558625,21.0513318 C75.5241059,21.0513318 76.4209796,20.8315985 77.1641212,20.5479083 L78,23.32022 L78,23.32022 Z" id="Shape" fill="#31251C" fill-rule="nonzero"></path>
            <path d="M32.3772539,15.0299695 L17.9690664,0.622277028 C17.140005,-0.207425676 15.7941261,-0.207425676 14.9644314,0.622277028 L11.9724635,3.61427365 L15.7668919,7.40937182 C16.6497884,7.11169223 17.6606226,7.31120089 18.3636464,8.01486479 C19.0704703,8.72232885 19.2687104,9.74203981 18.9634334,10.6274783 L22.6210571,14.2851371 C23.5052204,13.9804906 24.5268216,14.1774658 25.2336455,14.8849299 C26.221679,15.8723394 26.221679,17.4728423 25.2336455,18.4608852 C24.2449787,19.4489281 22.6451246,19.4489281 21.6570912,18.4608852 C20.914166,17.7173195 20.7304932,16.6260388 21.1067059,15.7108324 L17.6954571,12.2995509 L17.6948238,21.2768075 C17.9361319,21.3958793 18.1628729,21.5542195 18.3636464,21.7543616 C19.3516798,22.7417711 19.3516798,24.3416406 18.3636464,25.3309502 C17.375613,26.3183598 15.7744921,26.3183598 14.7877254,25.3309502 C13.799692,24.3416406 13.799692,22.7417711 14.7877254,21.7543616 C15.0322003,21.5105176 15.3140432,21.3262096 15.6155201,21.2027043 L15.6155201,12.1424774 C15.3140432,12.0196054 15.0322003,11.8359308 14.7877254,11.5908201 C14.0391001,10.842821 13.8592273,9.74520661 14.2430403,8.82620003 L10.5024471,5.08430417 L0.622746073,14.9634666 C-0.207582024,15.7938027 -0.207582024,17.1396945 0.622746073,17.9700305 L15.0309336,32.377723 C15.8606284,33.2074257 17.2058739,33.2074257 18.0368353,32.377723 L32.3772539,18.0359 C33.207582,17.2061973 33.207582,15.8596722 32.3772539,15.0299695 L32.3772539,15.0299695 Z" id="Path" fill="#F34F29" fill-rule="nonzero"></path>
            <polygon id="Path" points="1.12409637e-15 0 79 0 79 33 0 33"></polygon>
        </g>
        <g id="github-copy" transform="translate(748.000000, 3.000000)" fill="#000000" fill-rule="nonzero">
            <path d="M22.9998956,0 C11.7204239,0.000469179946 2.10590223,8.20619911 0.299077857,19.3745239 C-1.50774651,30.5428487 5.02642435,41.3773525 15.7268887,44.9558377 C16.8767785,45.1577383 17.3079872,44.4656891 17.3079872,43.8600567 C17.3079872,43.3121892 17.279217,41.4954764 17.279217,39.5634644 C11.5009978,40.6303861 10.0061411,38.1505528 9.54618516,36.8529173 C9.03580825,35.5908656 8.22674528,34.472458 7.1889111,33.5943411 C6.38398825,33.161796 5.23409847,32.0948512 7.16014086,32.066061 C8.65271236,32.2285228 9.97246422,33.1110528 10.6960749,34.4305721 C11.3313462,35.5753322 12.3946869,36.4194146 13.6513665,36.7764896 C14.9080461,37.1335647 16.2547288,36.9742705 17.3941369,36.3337708 C17.4936968,35.160991 18.0147545,34.0644705 18.8602924,33.2483742 C13.7432829,32.6716473 8.39629538,30.6818473 8.39629538,21.8580182 C8.36397821,19.5652878 9.20739391,17.3470389 10.7535694,15.6582042 C10.0504849,13.6655423 10.1327507,11.4787423 10.9835474,9.54489918 C10.9835474,9.54489918 12.9095438,8.93931288 17.3079412,11.9094794 C21.0710431,10.8713094 25.0437372,10.8713094 28.806839,11.9094794 C33.2051215,8.9104996 35.1312329,9.54489918 35.1312329,9.54489918 C35.982145,11.4787155 36.0644125,13.6655602 35.3612108,15.6582042 C36.9120423,17.3441484 37.7561944,19.564334 37.7184849,21.8580182 C37.7184849,30.7107067 32.3427041,32.6716473 27.2257406,33.2483742 C28.336287,34.3774629 28.9028084,35.9349635 28.7780918,37.5161532 C28.7780918,40.6016882 28.7493216,43.0815215 28.7493216,43.8601489 C28.7493216,44.4657352 29.1805302,45.1866208 30.33042,44.95593 C41.0111617,41.3485442 47.5153422,30.5121007 45.6961446,19.3555019 C43.876947,8.19890308 34.2698179,0.00588375885 22.9998956,0 Z" id="Path"></path>
        </g>
        <text id=".gitignore-file-sett" font-family="Helvetica" font-size="21" font-weight="normal" fill="#0055C2">
            <tspan x="119" y="335">.gitignore file </tspan>
            <tspan x="119" y="360">setting</tspan>
        </text>
        <text id="Create-Local-Reposit" font-family="Helvetica" font-size="21" font-weight="normal" fill="#0055C2">
            <tspan x="114" y="190">Create Local </tspan>
            <tspan x="114" y="215">Repository</tspan>
        </text>
        <g id="git-copy-4" transform="translate(182.062500, 143.200000)">
            <path d="M33.5346183,7.96029076 C32.3156878,7.96029076 31.4080588,8.56313241 31.4080588,10.0141687 C31.4080588,11.1072677 32.0061676,11.8662023 33.4691515,11.8662023 C34.7090136,11.8662023 35.551621,11.1301434 35.551621,9.96886585 C35.551621,8.65284099 34.7976388,7.96029076 33.5346183,7.96029076 L33.5346183,7.96029076 Z M31.0980933,18.2050105 C30.8095047,18.5616021 30.5218068,18.9406208 30.5218068,19.3878181 C30.5218068,20.2799699 31.6512215,20.5481986 33.2032759,20.5481986 C34.4881186,20.5481986 36.2388004,20.4575929 36.2388004,19.2541523 C36.2388004,18.5387264 35.3961929,18.4947692 34.3322451,18.4274878 L31.0980933,18.2050105 Z M37.6559129,8.0275722 C38.0545036,8.54115381 38.4762527,9.2552341 38.4762527,10.2819488 C38.4762527,12.7588027 36.5483205,14.2093904 33.7568494,14.2093904 C33.046957,14.2093904 32.404313,14.1205789 32.0057223,14.0088917 L31.274453,15.1916993 L33.4455478,15.3249166 C37.2791444,15.5711666 39.5388644,15.6828538 39.5388644,18.649965 C39.5388644,21.216976 37.3014121,22.6666667 33.4455478,22.6666667 C29.4347007,22.6666667 27.90625,21.639952 27.90625,19.8776269 C27.90625,18.8728909 28.3498214,18.3386763 29.1251805,17.6008232 C28.3934659,17.2895344 28.1503033,16.7319956 28.1503033,16.129154 C28.1503033,15.6379995 28.3939113,15.1916993 28.7929474,14.7673777 C29.1919835,14.3439532 29.6351095,13.9191831 30.1664153,13.4284772 C29.0806453,12.892917 28.2611962,11.7325365 28.2611962,10.080553 C28.2611962,7.51443912 29.945075,5.75211409 33.3351003,5.75211409 C34.2881552,5.75211409 34.8648871,5.84047704 35.3739253,5.97548845 L39.6951832,5.97548845 L39.6951832,7.87192781 L37.6559129,8.0275722 L37.6559129,8.0275722 Z M43.593356,3.97274442 C42.3298902,3.97274442 41.598621,3.23578845 41.598621,1.96327225 C41.598621,0.69255023 42.3298902,0 43.593356,0 C44.8786441,0 45.6094682,0.692101687 45.6094682,1.96327225 C45.6099134,3.23578845 44.8786441,3.97274442 43.593356,3.97274442 Z M40.7341912,17.384177 L40.7341912,15.621852 L41.8649419,15.465759 C42.1749074,15.4209047 42.2189974,15.3540718 42.2189974,15.0185618 L42.2189974,8.45772483 C42.2189974,8.21282041 42.1530852,8.0558304 41.9308541,7.98944605 L40.7341912,7.56512447 L40.9777992,5.75839369 L45.5653781,5.75839369 L45.5653781,15.0190103 C45.5653781,15.3769475 45.586755,15.4209047 45.9198789,15.4662076 L47.0501842,15.6223005 L47.0501842,17.3846255 L40.7341912,17.3846255 L40.7341912,17.384177 Z M55.8125,16.5184892 C54.8589997,16.9863194 53.4637095,17.4110896 52.1997983,17.4110896 C49.5633099,17.4110896 48.5666104,16.3408662 48.5666104,13.8178124 L48.5666104,7.97105579 C48.5666104,7.83783855 48.5666104,7.74812997 48.3889147,7.74812997 L46.8381963,7.74812997 L46.8381963,5.76198203 C48.7888414,5.53815913 49.5637553,4.55629873 49.8073632,2.12385061 L51.9129911,2.12385061 L51.9129911,5.29370325 C51.9129911,5.44934763 51.9129911,5.51707761 52.0902415,5.51707761 L55.2143912,5.51707761 L55.2143912,7.74857851 L51.9129911,7.74857851 L51.9129911,13.0817535 C51.9129911,14.3982269 52.223402,14.91136 53.4196196,14.91136 C54.0408867,14.91136 54.68264,14.7557156 55.2143912,14.5547684 L55.8125,16.5184892 L55.8125,16.5184892 Z" id="Shape" fill="#31251C" fill-rule="nonzero"></path>
            <path d="M23.468253,10.9308869 L13.0246561,0.452565111 C12.4237211,-0.150855037 11.4481775,-0.150855037 10.8467835,0.452565111 L8.67809243,2.62856265 L11.428437,5.38863405 C12.0683937,5.1721398 12.8010844,5.31723701 13.3106625,5.82899257 C13.8229951,6.34351189 13.966687,7.08511986 13.7454107,7.7290751 L16.3965942,10.3891906 C17.037469,10.1676295 17.777964,10.3108842 18.2902966,10.8254035 C19.0064605,11.5435196 19.0064605,12.7075216 18.2902966,13.4260983 C17.5736737,14.144675 16.4140392,14.144675 15.6978753,13.4260983 C15.1593752,12.8853233 15.0262422,12.0916646 15.2989354,11.4260599 L12.8263338,8.94512792 L12.8258747,15.4740418 C13.0007839,15.5606395 13.1651344,15.675796 13.3106625,15.8213539 C14.0268264,16.5394699 14.0268264,17.7030113 13.3106625,18.4225093 C12.5944987,19.1406253 11.433946,19.1406253 10.7187003,18.4225093 C10.0025365,17.7030113 10.0025365,16.5394699 10.7187003,15.8213539 C10.8959049,15.6440128 11.1001953,15.5099706 11.3187171,15.4201486 L11.3187171,8.83089265 C11.1001953,8.7415312 10.8959049,8.60794964 10.7187003,8.42968735 C10.1760685,7.88568796 10.0456899,7.08742299 10.323892,6.41905456 L7.61256917,3.69767576 L0.451389808,10.8825212 C-0.150463269,11.4864019 -0.150463269,12.4652323 0.451389808,13.0691131 L10.8949868,23.5474349 C11.4963808,24.150855 12.4714654,24.150855 13.0737776,23.5474349 L23.468253,13.1170182 C24.0701061,12.5135981 24.0701061,11.534307 23.468253,10.9308869 L23.468253,10.9308869 Z" id="Path" fill="#F34F29" fill-rule="nonzero"></path>
            <polygon id="Path" points="7.94159853e-16 0 55.8125 0 55.8125 24 0 24"></polygon>
        </g>
        <rect id="Rectangle-Copy-5" stroke="#0055C2" x="112.5" y="136.5" width="132" height="125" rx="3"></rect>
        <use id="Rectangle-Copy-5" stroke="#0055C2" mask="url(#mask-2)" stroke-width="2" stroke-dasharray="5" xlink:href="#path-1"></use>
        <path d="M215.647277,288.960291 C214.424251,288.960291 213.513573,289.563132 213.513573,291.014169 C213.513573,292.107268 214.113691,292.866202 215.58159,292.866202 C216.825617,292.866202 217.671055,292.130143 217.671055,290.968866 C217.671055,289.652841 216.91454,288.960291 215.647277,288.960291 L215.647277,288.960291 Z M213.202566,299.20501 C212.913008,299.561602 212.624344,299.940621 212.624344,300.387818 C212.624344,301.27997 213.757553,301.548199 215.314821,301.548199 C216.60398,301.548199 218.360543,301.457593 218.360543,300.254152 C218.360543,299.538726 217.515105,299.494769 216.447583,299.427488 L213.202566,299.20501 Z M219.782416,289.027572 C220.182346,289.541154 220.605512,290.255234 220.605512,291.281949 C220.605512,293.758803 218.671103,295.20939 215.870254,295.20939 C215.157977,295.20939 214.513174,295.120579 214.113244,295.008892 L213.379518,296.191699 L215.557907,296.324917 C219.404382,296.571167 221.671694,296.682854 221.671694,299.649965 C221.671694,302.216976 219.426725,303.666667 215.557907,303.666667 C211.533585,303.666667 210,302.639952 210,300.877627 C210,299.872891 210.445062,299.338676 211.223025,298.600823 C210.488853,298.289534 210.244873,297.731996 210.244873,297.129154 C210.244873,296.637999 210.4893,296.191699 210.889676,295.767378 C211.290053,295.343953 211.734667,294.919183 212.267758,294.428477 C211.178341,293.892917 210.356139,292.732537 210.356139,291.080553 C210.356139,288.514439 212.045674,286.752114 215.447088,286.752114 C216.403345,286.752114 216.982014,286.840477 217.492763,286.975488 L221.828538,286.975488 L221.828538,288.871928 L219.782416,289.027572 L219.782416,289.027572 Z M225.739806,284.972744 C224.472096,284.972744 223.73837,284.235788 223.73837,282.963272 C223.73837,281.69255 224.472096,281 225.739806,281 C227.029412,281 227.762692,281.692102 227.762692,282.963272 C227.763138,284.235788 227.029412,284.972744 225.739806,284.972744 Z M222.871036,298.384177 L222.871036,296.621852 L224.005586,296.465759 C224.316592,296.420905 224.360831,296.354072 224.360831,296.018562 L224.360831,289.457725 C224.360831,289.21282 224.294697,289.05583 224.071719,288.989446 L222.871036,288.565124 L223.115463,286.758394 L227.718453,286.758394 L227.718453,296.01901 C227.718453,296.376948 227.739902,296.420905 228.074145,296.466208 L229.208248,296.6223 L229.208248,298.384626 L222.871036,298.384626 L222.871036,298.384177 Z M238,297.518489 C237.043296,297.986319 235.643319,298.41109 234.375162,298.41109 C231.729816,298.41109 230.729768,297.340866 230.729768,294.817812 L230.729768,288.971056 C230.729768,288.837839 230.729768,288.74813 230.551475,288.74813 L228.995547,288.74813 L228.995547,286.761982 C230.952746,286.538159 231.730263,285.556299 231.974689,283.123851 L234.087391,283.123851 L234.087391,286.293703 C234.087391,286.449348 234.087391,286.517078 234.265237,286.517078 L237.399882,286.517078 L237.399882,288.748579 L234.087391,288.748579 L234.087391,294.081754 C234.087391,295.398227 234.398845,295.91136 235.599081,295.91136 C236.222435,295.91136 236.866344,295.755716 237.399882,295.554768 L238,297.518489 L238,297.518489 Z" id="Shape" fill="#31251C" fill-rule="nonzero"></path>
        <path d="M205.547094,291.930887 L195.068412,281.452565 C194.465458,280.849145 193.486637,280.849145 192.883223,281.452565 L190.707246,283.628563 L193.46683,286.388634 C194.108937,286.17214 194.844089,286.317237 195.355379,286.828993 C195.869433,287.343512 196.013608,288.08512 195.791588,288.729075 L198.451678,291.389191 C199.094706,291.16763 199.837688,291.310884 200.351742,291.825404 C201.070312,292.54352 201.070312,293.707522 200.351742,294.426098 C199.632712,295.144675 198.469182,295.144675 197.750612,294.426098 C197.210303,293.885323 197.076722,293.091665 197.350332,292.42606 L194.869423,289.945128 L194.868963,296.474042 C195.04446,296.56064 195.209362,296.675796 195.355379,296.821354 C196.073949,297.53947 196.073949,298.703011 195.355379,299.422509 C194.636809,300.140625 193.472358,300.140625 192.754709,299.422509 C192.03614,298.703011 192.03614,297.53947 192.754709,296.821354 C192.932509,296.644013 193.137486,296.509971 193.356742,296.420149 L193.356742,289.830893 C193.137486,289.741531 192.932509,289.60795 192.754709,289.429687 C192.210255,288.885688 192.079438,288.087423 192.358575,287.419055 L189.638143,284.697676 L182.452906,291.882521 C181.849031,292.486402 181.849031,293.465232 182.452906,294.069113 L192.931588,304.547435 C193.535002,305.150855 194.513363,305.150855 195.117698,304.547435 L205.547094,294.117018 C206.150969,293.513598 206.150969,292.534307 205.547094,291.930887 L205.547094,291.930887 Z" id="Path" fill="#F34F29" fill-rule="nonzero"></path>
        <polygon id="Path" points="182 281 238 281 238 305 182 305"></polygon>
        <text id="Create-Remote-Reposi" font-family="Helvetica" font-size="21" font-weight="normal" fill="#0055C2">
            <tspan x="378" y="182">Create </tspan>
            <tspan x="378" y="207">Remote </tspan>
            <tspan x="378" y="232">Repository</tspan>
        </text>
        <text id="Add-Remote-Repositor" font-family="Helvetica" font-size="21" font-weight="normal" fill="#0055C2">
            <tspan x="607" y="194">Add Remote </tspan>
            <tspan x="607" y="219">Repository </tspan>
        </text>
        <path id="Line-4-Copy-21" d="M589.905063,195.297872 L598.905063,199.797872 L589.905063,204.297872 L589.905,200.297 L505.094937,200.297872 L505.094937,199.297872 L589.905,199.297 L589.905063,195.297872 Z" fill="#0055C2" fill-rule="nonzero"></path>
        <path d="M708.647277,156.960291 C707.424251,156.960291 706.513573,157.563132 706.513573,159.014169 C706.513573,160.107268 707.113691,160.866202 708.58159,160.866202 C709.825617,160.866202 710.671055,160.130143 710.671055,158.968866 C710.671055,157.652841 709.91454,156.960291 708.647277,156.960291 L708.647277,156.960291 Z M706.202566,167.20501 C705.913008,167.561602 705.624344,167.940621 705.624344,168.387818 C705.624344,169.27997 706.757553,169.548199 708.314821,169.548199 C709.60398,169.548199 711.360543,169.457593 711.360543,168.254152 C711.360543,167.538726 710.515105,167.494769 709.447583,167.427488 L706.202566,167.20501 Z M712.782416,157.027572 C713.182346,157.541154 713.605512,158.255234 713.605512,159.281949 C713.605512,161.758803 711.671103,163.20939 708.870254,163.20939 C708.157977,163.20939 707.513174,163.120579 707.113244,163.008892 L706.379518,164.191699 L708.557907,164.324917 C712.404382,164.571167 714.671694,164.682854 714.671694,167.649965 C714.671694,170.216976 712.426725,171.666667 708.557907,171.666667 C704.533585,171.666667 703,170.639952 703,168.877627 C703,167.872891 703.445062,167.338676 704.223025,166.600823 C703.488853,166.289534 703.244873,165.731996 703.244873,165.129154 C703.244873,164.637999 703.4893,164.191699 703.889676,163.767378 C704.290053,163.343953 704.734667,162.919183 705.267758,162.428477 C704.178341,161.892917 703.356139,160.732537 703.356139,159.080553 C703.356139,156.514439 705.045674,154.752114 708.447088,154.752114 C709.403345,154.752114 709.982014,154.840477 710.492763,154.975488 L714.828538,154.975488 L714.828538,156.871928 L712.782416,157.027572 L712.782416,157.027572 Z M718.739806,152.972744 C717.472096,152.972744 716.73837,152.235788 716.73837,150.963272 C716.73837,149.69255 717.472096,149 718.739806,149 C720.029412,149 720.762692,149.692102 720.762692,150.963272 C720.763138,152.235788 720.029412,152.972744 718.739806,152.972744 Z M715.871036,166.384177 L715.871036,164.621852 L717.005586,164.465759 C717.316592,164.420905 717.360831,164.354072 717.360831,164.018562 L717.360831,157.457725 C717.360831,157.21282 717.294697,157.05583 717.071719,156.989446 L715.871036,156.565124 L716.115463,154.758394 L720.718453,154.758394 L720.718453,164.01901 C720.718453,164.376948 720.739902,164.420905 721.074145,164.466208 L722.208248,164.6223 L722.208248,166.384626 L715.871036,166.384626 L715.871036,166.384177 Z M731,165.518489 C730.043296,165.986319 728.643319,166.41109 727.375162,166.41109 C724.729816,166.41109 723.729768,165.340866 723.729768,162.817812 L723.729768,156.971056 C723.729768,156.837839 723.729768,156.74813 723.551475,156.74813 L721.995547,156.74813 L721.995547,154.761982 C723.952746,154.538159 724.730263,153.556299 724.974689,151.123851 L727.087391,151.123851 L727.087391,154.293703 C727.087391,154.449348 727.087391,154.517078 727.265237,154.517078 L730.399882,154.517078 L730.399882,156.748579 L727.087391,156.748579 L727.087391,162.081754 C727.087391,163.398227 727.398845,163.91136 728.599081,163.91136 C729.222435,163.91136 729.866344,163.755716 730.399882,163.554768 L731,165.518489 L731,165.518489 Z" id="Shape" fill="#31251C" fill-rule="nonzero"></path>
        <path d="M698.547094,159.930887 L688.068412,149.452565 C687.465458,148.849145 686.486637,148.849145 685.883223,149.452565 L683.707246,151.628563 L686.46683,154.388634 C687.108937,154.17214 687.844089,154.317237 688.355379,154.828993 C688.869433,155.343512 689.013608,156.08512 688.791588,156.729075 L691.451678,159.389191 C692.094706,159.16763 692.837688,159.310884 693.351742,159.825404 C694.070312,160.54352 694.070312,161.707522 693.351742,162.426098 C692.632712,163.144675 691.469182,163.144675 690.750612,162.426098 C690.210303,161.885323 690.076722,161.091665 690.350332,160.42606 L687.869423,157.945128 L687.868963,164.474042 C688.04446,164.56064 688.209362,164.675796 688.355379,164.821354 C689.073949,165.53947 689.073949,166.703011 688.355379,167.422509 C687.636809,168.140625 686.472358,168.140625 685.754709,167.422509 C685.03614,166.703011 685.03614,165.53947 685.754709,164.821354 C685.932509,164.644013 686.137486,164.509971 686.356742,164.420149 L686.356742,157.830893 C686.137486,157.741531 685.932509,157.60795 685.754709,157.429687 C685.210255,156.885688 685.079438,156.087423 685.358575,155.419055 L682.638143,152.697676 L675.452906,159.882521 C674.849031,160.486402 674.849031,161.465232 675.452906,162.069113 L685.931588,172.547435 C686.535002,173.150855 687.513363,173.150855 688.117698,172.547435 L698.547094,162.117018 C699.150969,161.513598 699.150969,160.534307 698.547094,159.930887 L698.547094,159.930887 Z" id="Path" fill="#F34F29" fill-rule="nonzero"></path>
        <polygon id="Path" points="675 149 731 149 731 173 675 173"></polygon>
        <rect id="Rectangle-Copy-6" stroke="#0055C2" x="373.5" y="136.5" width="132" height="125" rx="3"></rect>
        <rect id="Rectangle-Copy-8" stroke="#0055C2" x="604.5" y="136.5" width="132" height="125" rx="3"></rect>
        <text id="Case-1" font-family="Helvetica-Bold, Helvetica" font-size="21" font-weight="bold" fill="#0055C2">
            <tspan x="288" y="190">Case 1</tspan>
        </text>
        <text id="Get-Remote-Repositor" font-family="Helvetica" font-size="21" font-weight="normal" fill="#0055C2">
            <tspan x="377" y="341">Get Remote </tspan>
            <tspan x="377" y="366">Repository </tspan>
            <tspan x="377" y="391">Access</tspan>
        </text>
        <text id="Clone-Remote-Reposit" font-family="Helvetica" font-size="21" font-weight="normal" fill="#0055C2">
            <tspan x="606" y="321">Clone </tspan>
            <tspan x="606" y="346">Remote </tspan>
            <tspan x="606" y="371">Repository </tspan>
        </text>
        <g id="git-copy-6" transform="translate(676.771930, 284.200000)">
            <path d="M33.6894411,7.96029076 C32.464883,7.96029076 31.5530637,8.56313241 31.5530637,10.0141687 C31.5530637,11.1072677 32.1539339,11.8662023 33.623672,11.8662023 C34.8692583,11.8662023 35.7157559,11.1301434 35.7157559,9.96886585 C35.7157559,8.65284099 34.9582927,7.96029076 33.6894411,7.96029076 L33.6894411,7.96029076 Z M31.2416671,18.2050105 C30.9517462,18.5616021 30.6627201,18.9406208 30.6627201,19.3878181 C30.6627201,20.2799699 31.797349,20.5481986 33.3565689,20.5481986 C34.6473435,20.5481986 36.4061078,20.4575929 36.4061078,19.2541523 C36.4061078,18.5387264 35.5596102,18.4947692 34.4907504,18.4274878 L31.2416671,18.2050105 Z M37.8297629,8.0275722 C38.2301938,8.54115381 38.65389,9.2552341 38.65389,10.2819488 C38.65389,12.7588027 36.717057,14.2093904 33.9126982,14.2093904 C33.1995284,14.2093904 32.5539174,14.1205789 32.1534864,14.0088917 L31.4188411,15.1916993 L33.5999593,15.3249166 C37.451255,15.5711666 39.7214076,15.6828538 39.7214076,18.649965 C39.7214076,21.216976 37.4736254,22.6666667 33.5999593,22.6666667 C29.570595,22.6666667 28.0350877,21.639952 28.0350877,19.8776269 C28.0350877,18.8728909 28.480707,18.3386763 29.2596458,17.6008232 C28.524553,17.2895344 28.2802678,16.7319956 28.2802678,16.129154 C28.2802678,15.6379995 28.5250004,15.1916993 28.9258788,14.7673777 C29.3267572,14.3439532 29.771929,13.9191831 30.3056878,13.4284772 C29.2149049,12.892917 28.3916726,11.7325365 28.3916726,10.080553 C28.3916726,7.51443912 30.0833256,5.75211409 33.4890019,5.75211409 C34.4464569,5.75211409 35.0258514,5.84047704 35.5372398,5.97548845 L39.8784481,5.97548845 L39.8784481,7.87192781 L37.8297629,8.0275722 L37.8297629,8.0275722 Z M43.794618,3.97274442 C42.5253191,3.97274442 41.7906737,3.23578845 41.7906737,1.96327225 C41.7906737,0.69255023 42.5253191,0 43.794618,0 C45.0858401,0 45.8200382,0.692101687 45.8200382,1.96327225 C45.8204854,3.23578845 45.0858401,3.97274442 43.794618,3.97274442 Z M40.922253,17.384177 L40.922253,15.621852 L42.0582242,15.465759 C42.3696208,15.4209047 42.4139142,15.3540718 42.4139142,15.0185618 L42.4139142,8.45772483 C42.4139142,8.21282041 42.3476977,8.0558304 42.1244407,7.98944605 L40.922253,7.56512447 L41.1669857,5.75839369 L45.7757446,5.75839369 L45.7757446,15.0190103 C45.7757446,15.3769475 45.7972202,15.4209047 46.131882,15.4662076 L47.2674058,15.6223005 L47.2674058,17.3846255 L40.922253,17.3846255 L40.922253,17.384177 Z M56.0701754,16.5184892 C55.112273,16.9863194 53.710541,17.4110896 52.4407946,17.4110896 C49.7921341,17.4110896 48.790833,16.3408662 48.790833,13.8178124 L48.790833,7.97105579 C48.790833,7.83783855 48.790833,7.74812997 48.6123168,7.74812997 L47.0544391,7.74812997 L47.0544391,5.76198203 C49.01409,5.53815913 49.7925815,4.55629873 50.0373141,2.12385061 L52.1526633,2.12385061 L52.1526633,5.29370325 C52.1526633,5.44934763 52.1526633,5.51707761 52.330732,5.51707761 L55.4693053,5.51707761 L55.4693053,7.74857851 L52.1526633,7.74857851 L52.1526633,13.0817535 C52.1526633,14.3982269 52.4645073,14.91136 53.6662475,14.91136 C54.2903829,14.91136 54.9350991,14.7557156 55.4693053,14.5547684 L56.0701754,16.5184892 L56.0701754,16.5184892 Z" id="Shape" fill="#31251C" fill-rule="nonzero"></path>
            <path d="M23.5766014,10.9308869 L13.0847884,0.452565111 C12.481079,-0.150855037 11.5010315,-0.150855037 10.8968609,0.452565111 L8.71815749,2.62856265 L11.4811999,5.38863405 C12.1241111,5.1721398 12.8601845,5.31723701 13.3721153,5.82899257 C13.8868132,6.34351189 14.0311684,7.08511986 13.8088706,7.7290751 L16.472294,10.3891906 C17.1161277,10.1676295 17.8600414,10.3108842 18.3747394,10.8254035 C19.0942096,11.5435196 19.0942096,12.7075216 18.3747394,13.4260983 C17.6548079,14.144675 16.4898196,14.144675 15.7703494,13.4260983 C15.2293631,12.8853233 15.0956154,12.0916646 15.3695676,11.4260599 L12.8855505,8.94512792 L12.8850893,15.4740418 C13.060806,15.5606395 13.2259152,15.675796 13.3721153,15.8213539 C14.0915855,16.5394699 14.0915855,17.7030113 13.3721153,18.4225093 C12.652645,19.1406253 11.4867343,19.1406253 10.7681865,18.4225093 C10.0487162,17.7030113 10.0487162,16.5394699 10.7681865,15.8213539 C10.9462092,15.6440128 11.1514427,15.5099706 11.3709734,15.4201486 L11.3709734,8.83089265 C11.1514427,8.7415312 10.9462092,8.60794964 10.7681865,8.42968735 C10.2230494,7.88568796 10.0920689,7.08742299 10.3715554,6.41905456 L7.64771492,3.69767576 L0.453473786,10.8825212 C-0.151157929,11.4864019 -0.151157929,12.4652323 0.453473786,13.0691131 L10.9452868,23.5474349 C11.5494573,24.150855 12.5290437,24.150855 13.1341366,23.5474349 L23.5766014,13.1170182 C24.1812331,12.5135981 24.1812331,11.534307 23.5766014,10.9308869 L23.5766014,10.9308869 Z" id="Path" fill="#F34F29" fill-rule="nonzero"></path>
            <polygon id="Path" points="7.97826335e-16 0 56.0701754 0 56.0701754 24 0 24"></polygon>
        </g>
        <rect id="Rectangle-Copy-9" stroke="#0055C2" x="604.5" y="277.5" width="132.614035" height="125" rx="3"></rect>
        <text id="Fork-Remote-Reposito" font-family="Helvetica" font-size="21" font-weight="normal" fill="#0055C2">
            <tspan x="378" y="476">Fork Remote </tspan>
            <tspan x="378" y="501">Repository</tspan>
        </text>
        <path id="Line-4-Copy-20" d="M361.465742,195.954518 L370.467945,200.45011 L361.470149,204.954517 L361.468,200.954 L268.593268,201 L268.093268,201.000245 L268.092778,200.000245 L268.592778,200 L361.467,199.954 L361.465742,195.954518 Z" fill="#0055C2" fill-rule="nonzero"></path>
        <path id="Line-4-Copy-22" d="M589.353659,334.964539 L598.353659,339.464539 L589.353659,343.964539 L589.353,339.964 L505.646341,339.964539 L505.646341,338.964539 L589.353,338.964 L589.353659,334.964539 Z" fill="#0055C2" fill-rule="nonzero"></path>
        <path d="M485.499916,139 C476.427297,139.000386 468.693878,145.747319 467.240563,154.930164 C465.787247,164.113009 471.042993,173.021379 479.649889,175.963689 C480.5748,176.129696 480.921642,175.560678 480.921642,175.062713 C480.921642,174.612244 480.898501,173.118503 480.898501,171.52996 C476.250803,172.407206 475.048418,170.368232 474.678453,169.301288 C474.267933,168.263601 473.617165,167.344021 472.782385,166.622014 C472.134947,166.266366 471.210036,165.3891 472.759244,165.365428 C473.95979,165.499008 475.02133,166.224643 475.603365,167.309581 C476.114344,168.250829 476.969639,168.944852 477.980447,169.238447 C478.991254,169.532042 480.074456,169.401067 480.990936,168.874434 C481.071017,167.910148 481.490129,167.008565 482.170235,166.337552 C478.05438,165.863354 473.753542,164.227297 473.753542,156.972148 C473.727548,155.087014 474.405947,153.263121 475.64961,151.874523 C475.084086,150.236113 475.150256,148.438077 475.834592,146.848028 C475.834592,146.848028 477.383763,146.350102 480.921605,148.792239 C483.948448,147.938632 487.143876,147.938632 490.170718,148.792239 C493.708467,146.326411 495.257731,146.848028 495.257731,146.848028 C495.94216,148.438055 496.008332,150.236127 495.442713,151.874523 C496.690121,153.260744 497.369113,155.08623 497.338781,156.972148 C497.338781,164.251026 493.014784,165.863354 488.898965,166.337552 C489.792231,167.265914 490.247911,168.546526 490.147596,169.846615 C490.147596,172.38361 490.124454,174.422584 490.124454,175.062789 C490.124454,175.560716 490.471296,176.153444 491.396207,175.963765 C499.987239,172.997692 505.218862,164.087727 503.755595,154.914524 C502.292327,145.74132 494.564854,139.004838 485.499916,139 Z" id="Path" fill="#000000" fill-rule="nonzero"></path>
        <path d="M485.499916,423 C476.427297,423.000386 468.693878,429.747319 467.240563,438.930164 C465.787247,448.113009 471.042993,457.021379 479.649889,459.963689 C480.5748,460.129696 480.921642,459.560678 480.921642,459.062713 C480.921642,458.612244 480.898501,457.118503 480.898501,455.52996 C476.250803,456.407206 475.048418,454.368232 474.678453,453.301288 C474.267933,452.263601 473.617165,451.344021 472.782385,450.622014 C472.134947,450.266366 471.210036,449.3891 472.759244,449.365428 C473.95979,449.499008 475.02133,450.224643 475.603365,451.309581 C476.114344,452.250829 476.969639,452.944852 477.980447,453.238447 C478.991254,453.532042 480.074456,453.401067 480.990936,452.874434 C481.071017,451.910148 481.490129,451.008565 482.170235,450.337552 C478.05438,449.863354 473.753542,448.227297 473.753542,440.972148 C473.727548,439.087014 474.405947,437.263121 475.64961,435.874523 C475.084086,434.236113 475.150256,432.438077 475.834592,430.848028 C475.834592,430.848028 477.383763,430.350102 480.921605,432.792239 C483.948448,431.938632 487.143876,431.938632 490.170718,432.792239 C493.708467,430.326411 495.257731,430.848028 495.257731,430.848028 C495.94216,432.438055 496.008332,434.236127 495.442713,435.874523 C496.690121,437.260744 497.369113,439.08623 497.338781,440.972148 C497.338781,448.251026 493.014784,449.863354 488.898965,450.337552 C489.792231,451.265914 490.247911,452.546526 490.147596,453.846615 C490.147596,456.38361 490.124454,458.422584 490.124454,459.062789 C490.124454,459.560716 490.471296,460.153444 491.396207,459.963765 C499.987239,456.997692 505.218862,448.087727 503.755595,438.914524 C502.292327,429.74132 494.564854,423.004838 485.499916,423 Z" id="Path" fill="#000000" fill-rule="nonzero"></path>
        <rect id="Rectangle-Copy-17" stroke="#0055C2" x="112.5" y="277.5" width="132" height="125" rx="3"></rect>
        <rect id="Rectangle-Copy-12" stroke="#0055C2" x="373.5" y="277.5" width="132" height="125" rx="3"></rect>
        <rect id="Rectangle-Copy-7" stroke="#0055C2" x="373.5" y="418.5" width="132" height="125" rx="3"></rect>
        <path id="Path-7" d="M362.5,336.5 L371.5,341 L362.5,345.5 L362.5,341.5 L282.5,341.5 L282.5,482 L281.5,482 L281.5,340.5 L362.5,340.5 L362.5,336.5 Z" transform="translate(326.500000, 411.500000) scale(1, -1) translate(-326.500000, -411.500000) " fill="#0055C2" fill-rule="nonzero"></path>
        <path id="Path-8" d="M283.5,199 L283.5,340.5 L360.5,340.5 L360.5,336.5 L369.5,341 L360.5,345.5 L360.5,341.5 L282.5,341.5 L282.5,199 L283.5,199 Z" fill="#0055C2" fill-rule="nonzero"></path>
        <polyline id="Path-9" stroke="#0055C2" transform="translate(528.500000, 410.500000) scale(1, -1) translate(-528.500000, -410.500000) " points="507 340 550 340 550 481"></polyline>
        <path d="M484.499921,284 C475.917714,284.000365 468.602317,290.382599 467.227559,299.069074 C465.852802,307.755549 470.824453,316.182385 478.966111,318.965652 C479.841027,319.122685 480.169121,318.584425 480.169121,318.113377 C480.169121,317.687258 480.14723,316.274259 480.14723,314.771583 C475.750759,315.601411 474.613368,313.672652 474.263402,312.66338 C473.875071,311.681784 473.25948,310.811912 472.469824,310.128932 C471.857382,309.792508 470.982466,308.962662 472.447933,308.94027 C473.583585,309.066629 474.587745,309.753041 475.138318,310.779334 C475.621676,311.669703 476.43074,312.326211 477.386909,312.603936 C478.343079,312.881661 479.367728,312.757766 480.234669,312.259599 C480.310421,311.347437 480.706878,310.494588 481.350222,309.859847 C477.456846,309.411281 473.388486,307.863659 473.388486,301.000681 C473.363896,299.217446 474.005626,297.492141 475.182064,296.178603 C474.647108,294.628755 474.709702,292.927911 475.357047,291.42381 C475.357047,291.42381 476.822479,290.952799 480.169086,293.262928 C483.032315,292.455463 486.055017,292.455463 488.918247,293.262928 C492.264766,290.930389 493.730286,291.42381 493.730286,291.42381 C494.377719,292.92789 494.440314,294.628769 493.905269,296.178603 C495.08525,297.489893 495.727539,299.216704 495.698847,301.000681 C495.698847,307.886105 491.608579,309.411281 487.715237,309.859847 C488.560218,310.738027 488.991267,311.949416 488.896374,313.17923 C488.896374,315.579091 488.874484,317.50785 488.874484,318.113449 C488.874484,318.584461 489.202577,319.145149 490.077493,318.965723 C498.204145,316.159979 503.152978,307.731634 501.768806,299.054279 C500.384634,290.376925 493.074861,284.004576 484.499921,284 Z" id="Path" fill="#000000" fill-rule="nonzero"></path>
        <text id="Step-1" font-family="Helvetica-Bold, Helvetica" font-size="21" font-weight="bold" fill="#0055C2">
            <tspan x="118" y="110">Step 1</tspan>
        </text>
        <text id="Case-2" font-family="Helvetica-Bold, Helvetica" font-size="21" font-weight="bold" fill="#0055C2">
            <tspan x="288" y="332">Case 2</tspan>
        </text>
        <text id="Case-3" font-family="Helvetica-Bold, Helvetica" font-size="21" font-weight="bold" fill="#0055C2">
            <tspan x="288" y="471">Case 3</tspan>
        </text>
        <text id="Step-3" font-family="Helvetica-Bold, Helvetica" font-size="21" font-weight="bold" fill="#0055C2">
            <tspan x="614" y="110">Step 3</tspan>
        </text>
        <text id="Step-2" font-family="Helvetica-Bold, Helvetica" font-size="21" font-weight="bold" fill="#0055C2">
            <tspan x="380" y="110">Step 2</tspan>
        </text>
        <text id="Key-Actions-to-Launc" font-family="Helvetica-Bold, Helvetica" font-size="28" font-weight="bold" fill="#0055C2">
            <tspan x="94" y="78">Key Actions to Launch a Git Project</tspan>
        </text>
        <g id="bloovee-winner-logo" transform="translate(725.000000, 580.000000)">
            <path d="M13,13.7751507 C13,14.396312 13.4732558,14.8717809 14.0514961,14.8717809 C14.6474304,14.8717809 15.1204503,14.3968042 15.1204503,13.7751507 L15.1204503,2.09687626 C15.1204503,1.49368045 14.6474304,1 14.0514961,1 C13.4557977,1 13,1.49392656 13,2.09687626 L13,13.7751507 Z M21.7920364,15 C24.6483217,15 26.751078,12.7149437 26.751078,9.97312215 L26.751078,9.93645297 C26.751078,7.17641992 24.6657798,4.92778666 21.8269526,4.92778666 C18.9881254,4.92778666 16.885369,7.212843 16.885369,9.97312215 L16.885369,10.0095452 C16.885369,12.7516128 18.9706673,15 21.7920364,15 Z M21.8269526,13.0621935 C20.179994,13.0621935 19.0055834,11.6547366 19.0055834,9.97312215 L19.0055834,9.93645297 C19.0055834,8.25459244 20.0919958,6.86534709 21.7920364,6.86534709 C23.456689,6.86534709 24.6306277,8.27305008 24.6306277,9.97312215 L24.6306277,10.0095452 C24.6306277,11.6731942 23.5444513,13.0621935 21.8269526,13.0621935 Z M32.8092717,15 C35.665557,15 37.7683133,12.7149437 37.7683133,9.97312215 L37.7683133,9.93645297 C37.7683133,7.17641992 35.6830151,4.92778666 32.8441878,4.92778666 C30.0053606,4.92778666 27.9026043,7.212843 27.9026043,9.97312215 L27.9026043,10.0095452 C27.9026043,12.7516128 29.9879025,15 32.8092717,15 Z M32.8441878,13.0621935 C31.1969933,13.0621935 30.0228187,11.6547366 30.0228187,9.97312215 L30.0228187,9.93645297 C30.0228187,8.25459244 31.109231,6.86534709 32.8092717,6.86534709 C34.4739243,6.86534709 35.647863,8.27305008 35.647863,9.97312215 L35.647863,10.0095452 C35.647863,11.6731942 34.5614506,13.0621935 32.8441878,13.0621935 Z M44.1416963,13.9944275 L47.2261164,6.6096472 C47.2784906,6.49988574 47.3487948,6.28060893 47.3487948,6.07954366 C47.3487948,5.47610175 46.8929971,5.01933658 46.3147568,5.01933658 C45.7539746,5.01933658 45.4737015,5.40300947 45.3158709,5.78692847 L42.8976893,12.2215093 L40.5144239,5.82335156 C40.3393711,5.36634029 40.041404,5.01933658 39.4629278,5.01933658 C38.8846875,5.01933658 38.4116676,5.53098247 38.4116676,6.07954366 C38.4116676,6.28060893 38.4817358,6.46346265 38.534346,6.62785874 L41.6182943,13.9944275 C41.8638872,14.5796579 42.2491448,14.9633308 42.8273851,14.9633308 L42.9326055,14.9633308 C43.5108458,14.9633308 43.8965752,14.5612003 44.1416963,13.9944275 Z M50.0949054,9.27837643 C50.2876522,7.77961573 51.1987758,6.73762019 52.4956289,6.73762019 C53.8974665,6.73762019 54.7036056,7.8524619 54.8437422,9.27837643 L50.0949054,9.27837643 Z M56.070527,13.72027 C56.2281217,13.5558739 56.3508002,13.3181395 56.3508002,13.0439819 C56.3508002,12.5320899 55.9830006,12.1481709 55.5095089,12.1481709 C55.2641519,12.1481709 55.1242513,12.2215093 54.9664207,12.3492362 C54.3704864,12.8611282 53.6695676,13.1901665 52.7759021,13.1901665 C51.4089807,13.1901665 50.3402624,12.3128131 50.1123635,10.7409601 L55.9126964,10.7409601 C56.4560206,10.7409601 56.9115824,10.3021604 56.9115824,9.68050697 C56.9115824,7.45057746 55.4568987,4.92778666 52.513087,4.92778666 C49.8672425,4.92778666 47.9919132,7.19438536 47.9919132,9.95466451 L47.9919132,9.9913337 C47.9919132,12.9708897 50.0597533,15 52.7409859,15 C54.1779755,15 55.2292357,14.5063195 56.070527,13.72027 Z M60.1833231,9.27837643 C60.3763058,7.77961573 61.2871935,6.73762019 62.5842825,6.73762019 C63.9858841,6.73762019 64.7920233,7.8524619 64.9321598,9.27837643 L60.1833231,9.27837643 Z M66.1589447,13.72027 C66.3167752,13.5558739 66.4394537,13.3181395 66.4394537,13.0439819 C66.4394537,12.5320899 66.0714183,12.1481709 65.5981624,12.1481709 C65.3528055,12.1481709 65.2126689,12.2215093 65.0548383,12.3492362 C64.4591399,12.8611282 63.7582212,13.1901665 62.8643197,13.1901665 C61.4976342,13.1901665 60.4289159,12.3128131 60.2007812,10.7409601 L66.0011141,10.7409601 C66.5444382,10.7409601 67,10.3021604 67,9.68050697 C67,7.45057746 65.5455522,4.92778666 62.6015046,4.92778666 C59.9556601,4.92778666 58.0805667,7.19438536 58.0805667,9.95466451 L58.0805667,9.9913337 C58.0805667,12.9708897 60.1484069,15 62.8294035,15 C64.2663932,15 65.3178893,14.5063195 66.1589447,13.72027 L66.1589447,13.72027 Z" id="Fill-1" fill="#030060"></path>
            <g id="Group-4">
                <mask id="mask-4" fill="white">
                    <use xlink:href="#path-3"></use>
                </mask>
                <g id="Clip-3"></g>
                <path d="M8.68744595,14.5405413 C10.6544909,13.5649687 12,11.5915112 12,9.31636202 C12,6.07252388 9.26504479,3.44227578 5.89152197,3.44227578 C4.52034181,3.44227578 3.25480793,3.87689217 2.23537065,4.61058921 L2.23537065,1.05770107 C2.23537065,0.476155373 1.74046224,0 1.11695169,0 C0.493934821,0 0.0167986821,0.476630104 0.0167986821,1.05770107 L0.0167986821,1.80184219 L0,9.32158406 C-0.0041824725,11.2003327 0.951817666,12.865215 2.41753644,13.8939574 C2.4777647,13.9362085 2.55848043,13.9312238 2.6127846,13.8823265 C2.66758244,13.8334292 2.6779496,13.7558106 2.63746831,13.6950451 C0.724974359,10.8146136 1.16014819,5.53963813 5.89176881,5.53963813 C8.05899866,5.53963813 9.80709909,7.22944376 9.81623206,9.31351363 C9.82240299,10.8599505 9.11620201,12.0365717 8.19549958,12.7781018 C6.36026565,14.2561773 3.64974731,12.6382934 4.49738595,10.4697214 C4.5894562,10.2335427 4.71879884,9.9959397 4.88664808,9.76189723 L5.12361171,9.47705853 C5.19766284,9.39967734 5.25048599,9.29903433 5.2146946,9.19411874 C5.01401603,8.62800181 3.46832203,8.97526767 3.04005964,10.0315445 C3.34292878,9.79631524 3.65986763,9.66433998 3.96940137,9.71489885 C2.38890334,11.275815 3.44141679,13.9563846 5.46005069,14.7513219 C6.40494316,15.1232738 7.55964718,15.0976383 8.68744595,14.5405413" id="Fill-2" fill="url(#linearGradient-5)" mask="url(#mask-4)"></path>
            </g>
        </g>
    </g>
</svg>