<?xml version="1.0" encoding="UTF-8"?>
<svg width="800px" height="600px" viewBox="0 0 800 600" version="1.1" xmlns="http://www.w3.org/2000/svg" xmlns:xlink="http://www.w3.org/1999/xlink">
    <title>2041-10-17-15-10_Pullvs.Fetch</title>
    <defs>
        <path d="M8.68744595,14.5405413 C10.6544909,13.5649687 12,11.5915112 12,9.31636202 C12,6.07252388 9.26504479,3.44227578 5.89152197,3.44227578 C4.52034181,3.44227578 3.25480793,3.87689217 2.23537065,4.61058921 L2.23537065,1.05770107 C2.23537065,0.476155373 1.74046224,0 1.11695169,0 C0.493934821,0 0.0167986821,0.476630104 0.0167986821,1.05770107 L0.0167986821,1.80184219 L0,9.32158406 C-0.0041824725,11.2003327 0.951817666,12.865215 2.41753644,13.8939574 C2.4777647,13.9362085 2.55848043,13.9312238 2.6127846,13.8823265 C2.66758244,13.8334292 2.6779496,13.7558106 2.63746831,13.6950451 C0.724974359,10.8146136 1.16014819,5.53963813 5.89176881,5.53963813 C8.05899866,5.53963813 9.80709909,7.22944376 9.81623206,9.31351363 C9.82240299,10.8599505 9.11620201,12.0365717 8.19549958,12.7781018 C6.36026565,14.2561773 3.64974731,12.6382934 4.49738595,10.4697214 C4.5894562,10.2335427 4.71879884,9.9959397 4.88664808,9.76189723 L5.12361171,9.47705853 C5.19766284,9.39967734 5.25048599,9.29903433 5.2146946,9.19411874 C5.01401603,8.62800181 3.46832203,8.97526767 3.04005964,10.0315445 C3.34292878,9.79631524 3.65986763,9.66433998 3.96940137,9.71489885 C2.38890334,11.275815 3.44141679,13.9563846 5.46005069,14.7513219 C6.40494316,15.1232738 7.55964718,15.0976383 8.68744595,14.5405413" id="path-1"></path>
        <linearGradient x1="28.568518%" y1="104.445731%" x2="78.3472072%" y2="20.6880271%" id="linearGradient-3">
            <stop stop-color="#000F98" offset="0%"></stop>
            <stop stop-color="#00A5FD" offset="100%"></stop>
        </linearGradient>
        <linearGradient x1="1.18752487e-05%" y1="49.9999884%" x2="100.000032%" y2="49.9999884%" id="linearGradient-4">
            <stop stop-color="#FCD635" offset="0%"></stop>
            <stop stop-color="#F7A928" offset="100%"></stop>
        </linearGradient>
        <linearGradient x1="78.4549092%" y1="0%" x2="21.5450908%" y2="100%" id="linearGradient-5">
            <stop stop-color="#00C6FF" offset="0.0491695804%"></stop>
            <stop stop-color="#079DC2" offset="100%"></stop>
        </linearGradient>
        <linearGradient x1="78.4549092%" y1="0%" x2="21.5450908%" y2="100%" id="linearGradient-6">
            <stop stop-color="#00A5FF" offset="0.0491695804%"></stop>
            <stop stop-color="#0755C2" offset="100%"></stop>
        </linearGradient>
    </defs>
    <g id="2041-10-17-15-10_Pullvs.Fetch" stroke="none" stroke-width="1" fill="none" fill-rule="evenodd">
        <rect fill="#FFFFFF" x="0" y="0" width="800" height="600"></rect>
        <rect id="Rectangle-Copy-4" stroke="#006AE1" fill="#E1EDFF" x="153.5" y="279.5" width="615" height="270"></rect>
        <rect id="Rectangle-Copy-5" stroke="#199ABD" fill="#E0FBFF" x="153.5" y="91.5" width="615" height="120"></rect>
        <g id="git" transform="translate(704.000000, 9.000000)">
            <path d="M46.8658496,11.2380575 C45.1623498,11.2380575 43.8939053,12.0891281 43.8939053,14.1376499 C43.8939053,15.6808485 44.7297841,16.7522856 46.7743573,16.7522856 C48.5071097,16.7522856 49.6846843,15.7131436 49.6846843,14.073693 C49.6846843,12.2157755 48.6309666,11.2380575 46.8658496,11.2380575 L46.8658496,11.2380575 Z M43.4607172,25.7011913 C43.0574041,26.2046147 42.6553359,26.7397 42.6553359,27.3710373 C42.6553359,28.6305458 44.2337339,29.0092215 46.4027864,29.0092215 C48.1984009,29.0092215 50.6450424,28.8813076 50.6450424,27.1823327 C50.6450424,26.1723196 49.4674678,26.1102624 47.9805621,26.0152768 L43.4607172,25.7011913 Z M52.6255087,11.3330431 C53.1825537,12.0580995 53.7719634,13.0662128 53.7719634,14.5156924 C53.7719634,18.0124273 51.0776081,20.0603158 47.1764255,20.0603158 C46.1843252,20.0603158 45.2862067,19.9349349 44.7291617,19.7772589 L43.7071863,21.4471049 L46.7413702,21.6351763 C52.0989611,21.9828234 55.257002,22.1404995 55.257002,26.3293624 C55.257002,29.9533779 52.1300809,32 46.7413702,32 C41.1360655,32 39,30.5505204 39,28.0625322 C39,26.6440812 39.6199071,25.8898959 40.7034998,24.848221 C39.680902,24.4087545 39.3410734,23.6216409 39.3410734,22.7705703 C39.3410734,22.0771758 39.6815244,21.4471049 40.2391918,20.8480627 C40.7968593,20.2502869 41.416144,19.6506115 42.1586633,18.9578502 C40.6412601,18.2017651 39.4960502,16.563581 39.4960502,14.231369 C39.4960502,10.6086199 41.8493321,8.12063165 46.5870158,8.12063165 C47.9189448,8.12063165 48.7249485,8.24537935 49.436348,8.43598369 L55.4754632,8.43598369 L55.4754632,11.1133099 L52.6255087,11.3330431 L52.6255087,11.3330431 Z M60.9233016,5.60858036 C59.1575621,5.60858036 58.1355867,4.56817192 58.1355867,2.77167847 C58.1355867,0.977717972 59.1575621,0 60.9233016,0 C62.7195385,0 63.7408917,0.977084735 63.7408917,2.77167847 C63.7415139,4.56817192 62.7195385,5.60858036 60.9233016,5.60858036 Z M56.9275147,24.5423675 L56.9275147,22.0543792 L58.50778,21.8340127 C58.9409681,21.770689 59.0025853,21.6763367 59.0025853,21.2026754 L59.0025853,11.9403174 C59.0025853,11.59457 58.9104706,11.372937 58.5998947,11.279218 L56.9275147,10.6801757 L57.2679657,8.12949697 L63.6792742,8.12949697 L63.6792742,21.2033087 C63.6792742,21.7086318 63.7091492,21.770689 64.174702,21.834646 L65.7543448,22.0550125 L65.7543448,24.5430008 L56.9275147,24.5430008 L56.9275147,24.5423675 Z M78,23.32022 C76.6674487,23.9806863 74.7174798,24.5803617 72.9511179,24.5803617 C69.2665294,24.5803617 67.8736056,23.0694582 67.8736056,19.5074999 L67.8736056,11.2532552 C67.8736056,11.0651838 67.8736056,10.9385364 67.6252693,10.9385364 L65.458084,10.9385364 L65.458084,8.13456287 C68.1841815,7.81857759 69.2671518,6.43242174 69.6076028,2.99837733 L72.5502944,2.99837733 L72.5502944,7.47346341 C72.5502944,7.69319666 72.5502944,7.78881545 72.7980083,7.78881545 L77.1641212,7.78881545 L77.1641212,10.9391697 L72.5502944,10.9391697 L72.5502944,18.4683579 C72.5502944,20.3269086 72.9841049,21.0513318 74.6558625,21.0513318 C75.5241059,21.0513318 76.4209796,20.8315985 77.1641212,20.5479083 L78,23.32022 L78,23.32022 Z" id="Shape" fill="#31251C" fill-rule="nonzero"></path>
            <path d="M32.3772539,15.0299695 L17.9690664,0.622277028 C17.140005,-0.207425676 15.7941261,-0.207425676 14.9644314,0.622277028 L11.9724635,3.61427365 L15.7668919,7.40937182 C16.6497884,7.11169223 17.6606226,7.31120089 18.3636464,8.01486479 C19.0704703,8.72232885 19.2687104,9.74203981 18.9634334,10.6274783 L22.6210571,14.2851371 C23.5052204,13.9804906 24.5268216,14.1774658 25.2336455,14.8849299 C26.221679,15.8723394 26.221679,17.4728423 25.2336455,18.4608852 C24.2449787,19.4489281 22.6451246,19.4489281 21.6570912,18.4608852 C20.914166,17.7173195 20.7304932,16.6260388 21.1067059,15.7108324 L17.6954571,12.2995509 L17.6948238,21.2768075 C17.9361319,21.3958793 18.1628729,21.5542195 18.3636464,21.7543616 C19.3516798,22.7417711 19.3516798,24.3416406 18.3636464,25.3309502 C17.375613,26.3183598 15.7744921,26.3183598 14.7877254,25.3309502 C13.799692,24.3416406 13.799692,22.7417711 14.7877254,21.7543616 C15.0322003,21.5105176 15.3140432,21.3262096 15.6155201,21.2027043 L15.6155201,12.1424774 C15.3140432,12.0196054 15.0322003,11.8359308 14.7877254,11.5908201 C14.0391001,10.842821 13.8592273,9.74520661 14.2430403,8.82620003 L10.5024471,5.08430417 L0.622746073,14.9634666 C-0.207582024,15.7938027 -0.207582024,17.1396945 0.622746073,17.9700305 L15.0309336,32.377723 C15.8606284,33.2074257 17.2058739,33.2074257 18.0368353,32.377723 L32.3772539,18.0359 C33.207582,17.2061973 33.207582,15.8596722 32.3772539,15.0299695 L32.3772539,15.0299695 Z" id="Path" fill="#F34F29" fill-rule="nonzero"></path>
            <polygon id="Path" points="1.12409637e-15 0 79 0 79 33 0 33"></polygon>
        </g>
        <g id="bloovee-winner-logo" transform="translate(725.000000, 580.000000)">
            <path d="M13,13.7751507 C13,14.396312 13.4732558,14.8717809 14.0514961,14.8717809 C14.6474304,14.8717809 15.1204503,14.3968042 15.1204503,13.7751507 L15.1204503,2.09687626 C15.1204503,1.49368045 14.6474304,1 14.0514961,1 C13.4557977,1 13,1.49392656 13,2.09687626 L13,13.7751507 Z M21.7920364,15 C24.6483217,15 26.751078,12.7149437 26.751078,9.97312215 L26.751078,9.93645297 C26.751078,7.17641992 24.6657798,4.92778666 21.8269526,4.92778666 C18.9881254,4.92778666 16.885369,7.212843 16.885369,9.97312215 L16.885369,10.0095452 C16.885369,12.7516128 18.9706673,15 21.7920364,15 Z M21.8269526,13.0621935 C20.179994,13.0621935 19.0055834,11.6547366 19.0055834,9.97312215 L19.0055834,9.93645297 C19.0055834,8.25459244 20.0919958,6.86534709 21.7920364,6.86534709 C23.456689,6.86534709 24.6306277,8.27305008 24.6306277,9.97312215 L24.6306277,10.0095452 C24.6306277,11.6731942 23.5444513,13.0621935 21.8269526,13.0621935 Z M32.8092717,15 C35.665557,15 37.7683133,12.7149437 37.7683133,9.97312215 L37.7683133,9.93645297 C37.7683133,7.17641992 35.6830151,4.92778666 32.8441878,4.92778666 C30.0053606,4.92778666 27.9026043,7.212843 27.9026043,9.97312215 L27.9026043,10.0095452 C27.9026043,12.7516128 29.9879025,15 32.8092717,15 Z M32.8441878,13.0621935 C31.1969933,13.0621935 30.0228187,11.6547366 30.0228187,9.97312215 L30.0228187,9.93645297 C30.0228187,8.25459244 31.109231,6.86534709 32.8092717,6.86534709 C34.4739243,6.86534709 35.647863,8.27305008 35.647863,9.97312215 L35.647863,10.0095452 C35.647863,11.6731942 34.5614506,13.0621935 32.8441878,13.0621935 Z M44.1416963,13.9944275 L47.2261164,6.6096472 C47.2784906,6.49988574 47.3487948,6.28060893 47.3487948,6.07954366 C47.3487948,5.47610175 46.8929971,5.01933658 46.3147568,5.01933658 C45.7539746,5.01933658 45.4737015,5.40300947 45.3158709,5.78692847 L42.8976893,12.2215093 L40.5144239,5.82335156 C40.3393711,5.36634029 40.041404,5.01933658 39.4629278,5.01933658 C38.8846875,5.01933658 38.4116676,5.53098247 38.4116676,6.07954366 C38.4116676,6.28060893 38.4817358,6.46346265 38.534346,6.62785874 L41.6182943,13.9944275 C41.8638872,14.5796579 42.2491448,14.9633308 42.8273851,14.9633308 L42.9326055,14.9633308 C43.5108458,14.9633308 43.8965752,14.5612003 44.1416963,13.9944275 Z M50.0949054,9.27837643 C50.2876522,7.77961573 51.1987758,6.73762019 52.4956289,6.73762019 C53.8974665,6.73762019 54.7036056,7.8524619 54.8437422,9.27837643 L50.0949054,9.27837643 Z M56.070527,13.72027 C56.2281217,13.5558739 56.3508002,13.3181395 56.3508002,13.0439819 C56.3508002,12.5320899 55.9830006,12.1481709 55.5095089,12.1481709 C55.2641519,12.1481709 55.1242513,12.2215093 54.9664207,12.3492362 C54.3704864,12.8611282 53.6695676,13.1901665 52.7759021,13.1901665 C51.4089807,13.1901665 50.3402624,12.3128131 50.1123635,10.7409601 L55.9126964,10.7409601 C56.4560206,10.7409601 56.9115824,10.3021604 56.9115824,9.68050697 C56.9115824,7.45057746 55.4568987,4.92778666 52.513087,4.92778666 C49.8672425,4.92778666 47.9919132,7.19438536 47.9919132,9.95466451 L47.9919132,9.9913337 C47.9919132,12.9708897 50.0597533,15 52.7409859,15 C54.1779755,15 55.2292357,14.5063195 56.070527,13.72027 Z M60.1833231,9.27837643 C60.3763058,7.77961573 61.2871935,6.73762019 62.5842825,6.73762019 C63.9858841,6.73762019 64.7920233,7.8524619 64.9321598,9.27837643 L60.1833231,9.27837643 Z M66.1589447,13.72027 C66.3167752,13.5558739 66.4394537,13.3181395 66.4394537,13.0439819 C66.4394537,12.5320899 66.0714183,12.1481709 65.5981624,12.1481709 C65.3528055,12.1481709 65.2126689,12.2215093 65.0548383,12.3492362 C64.4591399,12.8611282 63.7582212,13.1901665 62.8643197,13.1901665 C61.4976342,13.1901665 60.4289159,12.3128131 60.2007812,10.7409601 L66.0011141,10.7409601 C66.5444382,10.7409601 67,10.3021604 67,9.68050697 C67,7.45057746 65.5455522,4.92778666 62.6015046,4.92778666 C59.9556601,4.92778666 58.0805667,7.19438536 58.0805667,9.95466451 L58.0805667,9.9913337 C58.0805667,12.9708897 60.1484069,15 62.8294035,15 C64.2663932,15 65.3178893,14.5063195 66.1589447,13.72027 L66.1589447,13.72027 Z" id="Fill-1" fill="#030060"></path>
            <g id="Group-4">
                <mask id="mask-2" fill="white">
                    <use xlink:href="#path-1"></use>
                </mask>
                <g id="Clip-3"></g>
                <path d="M8.68744595,14.5405413 C10.6544909,13.5649687 12,11.5915112 12,9.31636202 C12,6.07252388 9.26504479,3.44227578 5.89152197,3.44227578 C4.52034181,3.44227578 3.25480793,3.87689217 2.23537065,4.61058921 L2.23537065,1.05770107 C2.23537065,0.476155373 1.74046224,0 1.11695169,0 C0.493934821,0 0.0167986821,0.476630104 0.0167986821,1.05770107 L0.0167986821,1.80184219 L0,9.32158406 C-0.0041824725,11.2003327 0.951817666,12.865215 2.41753644,13.8939574 C2.4777647,13.9362085 2.55848043,13.9312238 2.6127846,13.8823265 C2.66758244,13.8334292 2.6779496,13.7558106 2.63746831,13.6950451 C0.724974359,10.8146136 1.16014819,5.53963813 5.89176881,5.53963813 C8.05899866,5.53963813 9.80709909,7.22944376 9.81623206,9.31351363 C9.82240299,10.8599505 9.11620201,12.0365717 8.19549958,12.7781018 C6.36026565,14.2561773 3.64974731,12.6382934 4.49738595,10.4697214 C4.5894562,10.2335427 4.71879884,9.9959397 4.88664808,9.76189723 L5.12361171,9.47705853 C5.19766284,9.39967734 5.25048599,9.29903433 5.2146946,9.19411874 C5.01401603,8.62800181 3.46832203,8.97526767 3.04005964,10.0315445 C3.34292878,9.79631524 3.65986763,9.66433998 3.96940137,9.71489885 C2.38890334,11.275815 3.44141679,13.9563846 5.46005069,14.7513219 C6.40494316,15.1232738 7.55964718,15.0976383 8.68744595,14.5405413" id="Fill-2" fill="url(#linearGradient-3)" mask="url(#mask-2)"></path>
            </g>
        </g>
        <text id="Fetch" font-family="Helvetica-Bold, Helvetica" font-size="21" font-weight="bold" fill="#0055C2">
            <tspan x="584.116732" y="77">Fetch</tspan>
        </text>
        <text id="Pull" font-family="Helvetica-Bold, Helvetica" font-size="21" font-weight="bold" fill="#0055C2">
            <tspan x="283.431907" y="77">Pull</tspan>
        </text>
        <g id="Group-5" transform="translate(364.000000, 289.000000)">
            <g id="Group-2" transform="translate(11.000000, 29.000000)" stroke="#1576ED" stroke-width="2">
                <ellipse id="Oval" fill="#7BB2FF" cx="5.3" cy="5.4" rx="4.3" ry="4.4"></ellipse>
                <ellipse id="Oval-Copy" fill="#7BB2FF" cx="25.175" cy="21.6" rx="4.3" ry="4.4"></ellipse>
                <ellipse id="Oval-Copy-7" fill="#DE4040" cx="47.7" cy="21.6" rx="4.3" ry="4.4"></ellipse>
                <ellipse id="Oval-Copy-3" fill="#7BB2FF" cx="35.775" cy="5.4" rx="4.3" ry="4.4"></ellipse>
                <line x1="5.9625" y1="9.80625" x2="5.9625" y2="20.925" id="Line-6" stroke-linecap="square"></line>
                <line x1="5.64565217" y1="20.925" x2="20.8543478" y2="20.925" id="Line"></line>
                <line x1="28.1706522" y1="20.925" x2="43.3793478" y2="20.925" id="Line-Copy-3"></line>
                <line x1="10.9480415" y1="6.075" x2="30.475" y2="6.075" id="Line-Copy" stroke-linecap="round"></line>
            </g>
            <g id="Group-Copy-13" fill="#199ABD" fill-opacity="0.2" fill-rule="nonzero">
                <path d="M73.8212072,9.55663117 C71.0453467,3.26815102 53.9909163,0 37.1266132,0 C20.2623101,0 3.39800707,3.23717328 0.470044647,9.46369797 C0.172052144,9.83133457 0.0133658186,10.2622511 0.0137388141,10.7028074 L0.0137388141,67.9031946 C-0.00457960468,68.0266562 -0.00457960468,68.1514658 0.0137388141,68.2749274 C0.00453415808,68.3832198 0.00453415808,68.4919012 0.0137388141,68.6001936 C0.0137388141,76.0813166 18.6842525,80 37.1266132,80 C55.5689739,80 74.2014621,76.0813166 74.2014621,68.6001936 C74.2106591,68.4970704 74.2106591,68.3935395 74.2014621,68.2904163 C74.221345,68.1618505 74.221345,68.0317603 74.2014621,67.9031946 L74.2014621,10.7028074 C74.2111691,10.2990554 74.0792531,9.90142993 73.8212072,9.55663117 Z" id="Path" stroke="#12738D" stroke-dasharray="4"></path>
                <path d="M37.1047154,0 C61.1369104,0 74.1983746,5.27231121 74.1983746,7.98169336 C74.2223742,8.06600665 74.2223742,8.15367298 74.1983746,8.23798627 C73.4115394,11.020595 60.3275942,16 37.1047154,16 C13.8818367,16 0.797891451,10.9656751 0.011056257,8.23798627 C-0.003685419,8.17139865 -0.003685419,8.1032009 0.011056257,8.03661327 C0.011056257,5.27231121 13.0725205,0 37.1047154,0 Z" id="Path" stroke="#199ABD" stroke-dasharray="3"></path>
            </g>
        </g>
        <g id="Group-5-Copy" transform="translate(678.000000, 289.000000)">
            <g id="Group-2" transform="translate(11.000000, 29.000000)" stroke="#1576ED" stroke-width="2">
                <ellipse id="Oval" fill="#7BB2FF" cx="5.3" cy="5.4" rx="4.3" ry="4.4"></ellipse>
                <ellipse id="Oval-Copy" fill="#7BB2FF" cx="25.175" cy="21.6" rx="4.3" ry="4.4"></ellipse>
                <ellipse id="Oval-Copy-7" fill="#DE4040" cx="47.7" cy="21.6" rx="4.3" ry="4.4"></ellipse>
                <ellipse id="Oval-Copy-3" fill="#7BB2FF" cx="35.775" cy="5.4" rx="4.3" ry="4.4"></ellipse>
                <line x1="5.9625" y1="9.80625" x2="5.9625" y2="20.925" id="Line-6" stroke-linecap="square"></line>
                <line x1="5.64565217" y1="20.925" x2="20.8543478" y2="20.925" id="Line"></line>
                <line x1="28.1706522" y1="20.925" x2="43.3793478" y2="20.925" id="Line-Copy-3"></line>
                <line x1="10.9480415" y1="6.075" x2="30.475" y2="6.075" id="Line-Copy" stroke-linecap="round"></line>
            </g>
            <g id="Group-Copy-13" fill="#199ABD" fill-opacity="0.2" fill-rule="nonzero">
                <path d="M73.8212072,9.55663117 C71.0453467,3.26815102 53.9909163,0 37.1266132,0 C20.2623101,0 3.39800707,3.23717328 0.470044647,9.46369797 C0.172052144,9.83133457 0.0133658186,10.2622511 0.0137388141,10.7028074 L0.0137388141,67.9031946 C-0.00457960468,68.0266562 -0.00457960468,68.1514658 0.0137388141,68.2749274 C0.00453415808,68.3832198 0.00453415808,68.4919012 0.0137388141,68.6001936 C0.0137388141,76.0813166 18.6842525,80 37.1266132,80 C55.5689739,80 74.2014621,76.0813166 74.2014621,68.6001936 C74.2106591,68.4970704 74.2106591,68.3935395 74.2014621,68.2904163 C74.221345,68.1618505 74.221345,68.0317603 74.2014621,67.9031946 L74.2014621,10.7028074 C74.2111691,10.2990554 74.0792531,9.90142993 73.8212072,9.55663117 Z" id="Path" stroke="#12738D" stroke-dasharray="4"></path>
                <path d="M37.1047154,0 C61.1369104,0 74.1983746,5.27231121 74.1983746,7.98169336 C74.2223742,8.06600665 74.2223742,8.15367298 74.1983746,8.23798627 C73.4115394,11.020595 60.3275942,16 37.1047154,16 C13.8818367,16 0.797891451,10.9656751 0.011056257,8.23798627 C-0.003685419,8.17139865 -0.003685419,8.1032009 0.011056257,8.03661327 C0.011056257,5.27231121 13.0725205,0 37.1047154,0 Z" id="Path" stroke="#199ABD" stroke-dasharray="3"></path>
            </g>
        </g>
        <g id="Group-2-Copy-5" transform="translate(252.000000, 113.000000)" stroke="#1576ED" stroke-width="2">
            <circle id="Oval" fill="#7BB2FF" cx="7.5" cy="7.5" r="6.5"></circle>
            <circle id="Oval-Copy" fill="#7BB2FF" cx="37.5" cy="32.5" r="6.5"></circle>
            <circle id="Oval-Copy-2" fill="#FF6464" cx="74.5" cy="32.5" r="6.5"></circle>
            <circle id="Oval-Copy-3" fill="#7BB2FF" cx="52.5" cy="7.5" r="6.5"></circle>
            <line x1="8" y1="14.5277778" x2="8" y2="32" id="Line-6" stroke-linecap="square"></line>
            <line x1="8" y1="32" x2="30.4782609" y2="32" id="Line" stroke-linecap="round"></line>
            <line x1="44.5217391" y1="32" x2="67.4782609" y2="32" id="Line-Copy-4" stroke-linecap="round"></line>
            <line x1="15.5253456" y1="8" x2="45" y2="8" id="Line-Copy" stroke-linecap="round"></line>
        </g>
        <g id="Group-2-Copy-7" transform="translate(575.000000, 113.000000)" stroke="#1576ED" stroke-width="2">
            <circle id="Oval" fill="#7BB2FF" cx="7.5" cy="7.5" r="6.5"></circle>
            <circle id="Oval-Copy" fill="#7BB2FF" cx="37.5" cy="32.5" r="6.5"></circle>
            <circle id="Oval-Copy-2" fill="#FF6464" cx="74.5" cy="32.5" r="6.5"></circle>
            <circle id="Oval-Copy-3" fill="#7BB2FF" cx="52.5" cy="7.5" r="6.5"></circle>
            <line x1="8" y1="14.5277778" x2="8" y2="32" id="Line-6" stroke-linecap="square"></line>
            <line x1="8" y1="32" x2="30.4782609" y2="32" id="Line" stroke-linecap="round"></line>
            <line x1="44.5217391" y1="32" x2="67.4782609" y2="32" id="Line-Copy-4" stroke-linecap="round"></line>
            <line x1="15.5253456" y1="8" x2="45" y2="8" id="Line-Copy" stroke-linecap="round"></line>
        </g>
        <g id="Group-2-Copy-8" transform="translate(547.000000, 349.000000)" stroke="#1576ED" stroke-width="2">
            <circle id="Oval" fill="#7BB2FF" cx="7.5" cy="7.5" r="6.5"></circle>
            <circle id="Oval-Copy" fill="#7BB2FF" cx="37.5" cy="32.5" r="6.5"></circle>
            <circle id="Oval-Copy-3" fill="#7BB2FF" cx="52.5" cy="7.5" r="6.5"></circle>
            <line x1="8" y1="14.5277778" x2="8" y2="32" id="Line-6" stroke-linecap="round"></line>
            <line x1="8.521739" y1="32" x2="30.4782609" y2="32" id="Line" stroke-linecap="round"></line>
            <line x1="15.5253456" y1="8" x2="45" y2="8" id="Line-Copy" stroke-linecap="round"></line>
        </g>
        <text id="$-git-pull-origin-br" font-family="Helvetica-Bold, Helvetica" font-size="18" font-weight="bold" fill="#0055C2">
            <tspan x="222" y="251">$ git pull origin branch A</tspan>
        </text>
        <text id="$-git-fetch-origin" font-family="Helvetica-Bold, Helvetica" font-size="18" font-weight="bold" fill="#0055C2">
            <tspan x="559.999512" y="250">$ git fetch origin</tspan>
        </text>
        <text id="New-commit-on-Branch" font-family="Helvetica" font-size="18" font-weight="normal" fill="#199ABD">
            <tspan x="182" y="186">New commit on Branch A</tspan>
        </text>
        <text id="New-commit-on-Branch" font-family="Helvetica" font-size="18" font-weight="normal" fill="#199ABD">
            <tspan x="505" y="186">New commit on Branch A</tspan>
        </text>
        <text id="—-No-change-in-Local" font-family="Helvetica" font-size="18" font-weight="normal" fill="#0055C2">
            <tspan x="471" y="439">— </tspan>
            <tspan x="494.000977" y="439" font-family="Helvetica-Bold, Helvetica" font-weight="bold">No change</tspan>
            <tspan x="586.013672" y="439"> in Local Repository </tspan>
            <tspan x="471" y="461">status</tspan>
        </text>
        <text id="—-Remote-Repository" font-family="Helvetica" font-size="18" font-weight="normal" fill="#0055C2">
            <tspan x="471" y="491">— Remote Repository information </tspan>
            <tspan x="471" y="513">stored in Local Repository is </tspan>
            <tspan x="471" y="535">updated</tspan>
        </text>
        <text id="Remote-Repository-in" font-family="Helvetica" font-size="18" font-weight="normal" fill="#199ABD">
            <tspan x="25" y="449">Remote </tspan>
            <tspan x="25" y="471">Repository </tspan>
            <tspan x="25" y="493">information on </tspan>
            <tspan x="25" y="515">local computer</tspan>
        </text>
        <line x1="461.5" y1="113.5" x2="461.5" y2="534.5" id="Line-10-Copy" stroke="#979797" stroke-linecap="square" stroke-dasharray="4"></line>
        <text id="Pull-vs.-Fetch" fill-rule="nonzero" font-family="Helvetica" font-size="18" font-weight="normal" fill="#0055C2">
            <tspan x="10" y="23">Pull vs. Fetch</tspan>
        </text>
        <path d="M305.91847,135 L305.91847,136.65816 L313.150456,136.65816 L313.150456,140.348641 L305.91847,140.348641 L305.91847,142 L300.304257,138.50172 C300.121974,138.425907 300.10172,138.32779 300.243496,138.24702 L300.304257,138.217622 L305.91847,135 Z" id="Path-Copy" fill="#DE4040" transform="translate(306.650456, 138.500000) rotate(-180.000000) translate(-306.650456, -138.500000) "></path>
        <path d="M628.91847,135 L628.91847,136.65816 L636.150456,136.65816 L636.150456,140.348641 L628.91847,140.348641 L628.91847,142 L623.304257,138.50172 C623.121974,138.425907 623.10172,138.32779 623.243496,138.24702 L623.304257,138.217622 L628.91847,135 Z" id="Path-Copy-2" fill="#DE4040" transform="translate(629.650456, 138.500000) rotate(-180.000000) translate(-629.650456, -138.500000) "></path>
        <g id="Group-Copy-15" transform="translate(67.000000, 397.000000)" fill="#199ABD" fill-opacity="0.2" fill-rule="nonzero">
            <path d="M29.8402642,3.58373669 C28.7181963,1.22555663 21.8243953,0 15.0074482,0 C8.19050122,0 1.37355419,1.21393998 0.190003076,3.54888674 C0.0695475138,3.68675046 0.00540277751,3.84834415 0.00555355103,4.01355276 L0.00555355103,25.463698 C-0.00185118368,25.5099961 -0.00185118368,25.5567997 0.00555355103,25.6030978 C0.00183281309,25.6437074 0.00183281309,25.6844629 0.00555355103,25.7250726 C0.00555355103,28.5304937 7.55261328,30 15.0074482,30 C22.4622832,30 29.9939721,28.5304937 29.9939721,25.7250726 C29.9976898,25.6864014 29.9976898,25.6475773 29.9939721,25.6089061 C30.0020093,25.560694 30.0020093,25.5119101 29.9939721,25.463698 L29.9939721,4.01355276 C29.997896,3.86214578 29.9445724,3.71303622 29.8402642,3.58373669 Z" id="Path" stroke="#12738D" stroke-dasharray="4"></path>
            <path d="M14.9985967,0 C24.7129738,0 29.9927241,1.9771167 29.9927241,2.99313501 C30.0024253,3.02475249 30.0024253,3.05762737 29.9927241,3.08924485 C29.6746669,4.13272311 24.3858292,6 14.9985967,6 C5.61136413,6 0.322526447,4.11212815 0.00446919852,3.08924485 C-0.00148973284,3.06427449 -0.00148973284,3.03870034 0.00446919852,3.01372998 C0.00446919852,1.9771167 5.28421953,0 14.9985967,0 Z" id="Path" stroke="#199ABD" stroke-dasharray="3"></path>
        </g>
        <line x1="314.5" y1="151.5" x2="285.5" y2="170.5" id="Line-46-Copy" stroke="#199ABD" stroke-linecap="square"></line>
        <ellipse id="Oval-Copy-5" fill="#FFF2F2" cx="301.5" cy="378.5" rx="33.5" ry="21.5"></ellipse>
        <g id="Group-2-Copy-6" transform="translate(222.000000, 349.000000)" stroke="#1576ED" stroke-width="2">
            <circle id="Oval" fill="#7BB2FF" cx="7.5" cy="7.5" r="6.5"></circle>
            <circle id="Oval-Copy" fill="#7BB2FF" cx="37.5" cy="32.5" r="6.5"></circle>
            <circle id="Oval-Copy-2" fill="#FF6464" cx="74.5" cy="32.5" r="6.5"></circle>
            <circle id="Oval-Copy-3" fill="#7BB2FF" cx="52.5" cy="7.5" r="6.5"></circle>
            <line x1="8" y1="14.5277778" x2="8" y2="32" id="Line-6" stroke-linecap="square"></line>
            <line x1="8" y1="32" x2="31" y2="32" id="Line" stroke-linecap="round"></line>
            <line x1="44.5217391" y1="32" x2="67.4782609" y2="32" id="Line-Copy-4" stroke-linecap="round" stroke-dasharray="4"></line>
            <line x1="15.5253456" y1="8" x2="45" y2="8" id="Line-Copy" stroke-linecap="round"></line>
        </g>
        <text id="—-Branch-A-is-update" font-family="Helvetica" font-size="18" font-weight="normal" fill="#0055C2">
            <tspan x="166" y="439">— </tspan>
            <tspan x="189.000977" y="439" font-family="Helvetica-Bold, Helvetica" font-weight="bold">Branch A is updated (merged)</tspan>
        </text>
        <text id="—-Remote-Repository" font-family="Helvetica" font-size="18" font-weight="normal" fill="#0055C2">
            <tspan x="166" y="491">— Remote Repository information </tspan>
            <tspan x="166" y="513">stored in Local Repository is also </tspan>
            <tspan x="166" y="535">updated</tspan>
        </text>
        <g id="star-copy-5" transform="translate(314.000000, 368.000000)" fill="url(#linearGradient-4)" fill-rule="nonzero">
            <path d="M9.64735451,11.9658436 C9.22043251,12.2851093 6.48109935,10.2612228 5.95646803,10.2567899 C5.43183671,10.2523608 2.66167111,12.2297017 2.23972303,11.9032612 C1.81777495,11.5768246 2.8097606,8.22379202 2.65166833,7.70003311 C2.4935724,7.1762742 -0.158658555,5.02898692 0.00748794331,4.50796599 C0.173634442,3.98694889 3.52604532,3.93854728 3.95296732,3.61928075 C4.37988932,3.30001307 5.51088833,-0.00442769388 6.03551966,0 C6.56015098,0.00443698625 7.64007025,3.32755581 8.06201833,3.65399477 C8.48396641,3.98043373 11.8351942,4.08547005 11.9932865,4.60922512 C12.1513824,5.13298403 9.46639613,7.23518289 9.30024963,7.75620382 C9.13410313,8.27722092 10.0742765,11.646574 9.64735451,11.9658436 L9.64735451,11.9658436 Z" id="Path"></path>
        </g>
        <g id="star-copy-6" transform="translate(298.000000, 359.000000)" fill="url(#linearGradient-4)" fill-rule="nonzero">
            <path d="M9.64735451,11.9658436 C9.22043251,12.2851093 6.48109935,10.2612228 5.95646803,10.2567899 C5.43183671,10.2523608 2.66167111,12.2297017 2.23972303,11.9032612 C1.81777495,11.5768246 2.8097606,8.22379202 2.65166833,7.70003311 C2.4935724,7.1762742 -0.158658555,5.02898692 0.00748794331,4.50796599 C0.173634442,3.98694889 3.52604532,3.93854728 3.95296732,3.61928075 C4.37988932,3.30001307 5.51088833,-0.00442769388 6.03551966,0 C6.56015098,0.00443698625 7.64007025,3.32755581 8.06201833,3.65399477 C8.48396641,3.98043373 11.8351942,4.08547005 11.9932865,4.60922512 C12.1513824,5.13298403 9.46639613,7.23518289 9.30024963,7.75620382 C9.13410313,8.27722092 10.0742765,11.646574 9.64735451,11.9658436 L9.64735451,11.9658436 Z" id="Path"></path>
        </g>
        <path d="M277.91847,371 L277.91847,372.65816 L285.150456,372.65816 L285.150456,376.348641 L277.91847,376.348641 L277.91847,378 L272.304257,374.50172 C272.121974,374.425907 272.10172,374.32779 272.243496,374.24702 L272.304257,374.217622 L277.91847,371 Z" id="Path" fill="#DE4040" transform="translate(278.650456, 374.500000) rotate(-180.000000) translate(-278.650456, -374.500000) "></path>
        <g id="Group" transform="translate(34.000000, 99.000000)">
            <g id="Group-Copy-5" transform="translate(26.000000, 0.000000)" fill-rule="nonzero">
                <path d="M42.7710454,6.80909971 C41.162748,2.3285576 31.2816332,0 21.5106758,0 C11.7397184,0 1.96876101,2.30648596 0.272337742,6.7428848 C0.0996847698,7.00482588 0.0077439811,7.31185389 0.00796008981,7.62575024 L0.00796008981,48.3810261 C-0.00265336327,48.4689925 -0.00265336327,48.5579194 0.00796008981,48.6458858 C0.0026270321,48.7230441 0.0026270321,48.8004796 0.00796008981,48.8776379 C0.00796008981,54.207938 10.8254124,57 21.5106758,57 C32.1959393,57 42.9913601,54.207938 42.9913601,48.8776379 C42.9966887,48.8041627 42.9966887,48.7303969 42.9913601,48.6569216 C43.00288,48.5653185 43.00288,48.4726292 42.9913601,48.3810261 L42.9913601,7.62575024 C42.9969842,7.33807698 42.9205538,7.05476882 42.7710454,6.80909971 Z" id="Path" fill="url(#linearGradient-5)"></path>
                <path d="M21.4979885,0 C35.4219291,0 42.9895712,3.95423341 42.9895712,5.98627002 C43.0034763,6.04950499 43.0034763,6.11525474 42.9895712,6.1784897 C42.5336892,8.26544622 34.9530218,12 21.4979885,12 C8.04295525,12 0.462287908,8.22425629 0.00640585121,6.1784897 C-0.00213528374,6.12854899 -0.00213528374,6.07740067 0.00640585121,6.02745995 C0.00640585121,3.95423341 7.574048,0 21.4979885,0 Z" id="Path" fill="#A1E0E9"></path>
            </g>
            <text id="Remote-Repository-Copy-2" font-family="Helvetica-Bold, Helvetica" font-size="18" font-weight="bold" fill="#199ABD">
                <tspan x="15.4926758" y="78">Remote </tspan>
                <tspan x="1.49169922" y="100">Repository</tspan>
            </text>
        </g>
        <g id="Group-3" transform="translate(31.000000, 278.000000)">
            <g id="Group-Copy-2" transform="translate(29.000000, 0.000000)" fill-rule="nonzero">
                <path d="M42.7710454,7.2683831 C41.162748,2.78784099 31.2816332,0.459283388 21.5106758,0.459283388 C11.7397184,0.459283388 1.96876101,2.76576935 0.272337742,7.20216819 C0.0996847698,7.46410927 0.0077439811,7.77113728 0.00796008981,8.08503363 L0.00796008981,48.8403095 C-0.00265336327,48.9282759 -0.00265336327,49.0172028 0.00796008981,49.1051692 C0.0026270321,49.1823275 0.0026270321,49.259763 0.00796008981,49.3369213 C0.00796008981,54.6672214 10.8254124,57.4592834 21.5106758,57.4592834 C32.1959393,57.4592834 42.9913601,54.6672214 42.9913601,49.3369213 C42.9966887,49.2634461 42.9966887,49.1896803 42.9913601,49.116205 C43.00288,49.0246019 43.00288,48.9319126 42.9913601,48.8403095 L42.9913601,8.08503363 C42.9969842,7.79736037 42.9205538,7.51405221 42.7710454,7.2683831 Z" id="Path" fill="url(#linearGradient-6)"></path>
                <path d="M21.9979418,0.459283388 C36.2456949,0.459283388 43.9893287,4.4135168 43.9893287,6.44555341 C44.0035571,6.50878838 44.0035571,6.57453812 43.9893287,6.63777309 C43.5228447,8.72472961 35.7658828,12.4592834 21.9979418,12.4592834 C8.23000072,12.4592834 0.47303879,8.68353968 0.00655482449,6.63777309 C-0.0021849415,6.58783237 -0.0021849415,6.53668406 0.00655482449,6.48674334 C0.00655482449,4.4135168 7.75018865,0.459283388 21.9979418,0.459283388 Z" id="Path" fill="#7BB2FF"></path>
            </g>
            <text id="Local-Repository-Copy-2" font-family="Helvetica-Bold, Helvetica" font-size="18" font-weight="bold" fill="#0055C2">
                <tspan x="27.4936523" y="75">Local </tspan>
                <tspan x="3.99169922" y="97">Repository</tspan>
            </text>
        </g>
        <g id="Group-5-Copy-7" transform="translate(517.798742, 246.000000) scale(1, -1) rotate(-90.000000) translate(-517.798742, -246.000000) translate(486.000000, 226.000000)" fill="#FFC159">
            <rect id="Rectangle" transform="translate(26.097484, 21.000000) rotate(-540.000000) translate(-26.097484, -21.000000) " x="0.0974842767" y="10" width="52" height="22"></rect>
            <path d="M56.6709466,13.4014236 L73.4985815,25.1807681 C73.9510308,25.4974826 74.0610656,26.121013 73.7443511,26.5734623 C73.5572224,26.840789 73.251433,27 72.9251192,27 L39.2698494,27 C38.7175646,27 38.2698494,26.5522847 38.2698494,26 C38.2698494,25.6736862 38.4290603,25.3678968 38.696387,25.1807681 L55.5240219,13.4014236 C55.8683421,13.1603995 56.3266265,13.1603995 56.6709466,13.4014236 Z" id="Triangle-Copy" transform="translate(56.097484, 20.000000) scale(-1, 1) rotate(-450.000000) translate(-56.097484, -20.000000) "></path>
        </g>
        <g id="Group-5-Copy-8" transform="translate(196.798742, 246.000000) scale(1, -1) rotate(-90.000000) translate(-196.798742, -246.000000) translate(165.000000, 226.000000)" fill="#FFC159">
            <rect id="Rectangle" transform="translate(25.500000, 20.500000) rotate(-540.000000) translate(-25.500000, -20.500000) " x="-0.5" y="9.5" width="52" height="22"></rect>
            <path d="M57.0734623,13.9014236 L73.9010973,25.6807681 C74.3535466,25.9974826 74.4635813,26.621013 74.1468668,27.0734623 C73.9597382,27.340789 73.6539487,27.5 73.3276349,27.5 L39.6723651,27.5 C39.1200803,27.5 38.6723651,27.0522847 38.6723651,26.5 C38.6723651,26.1736862 38.8315761,25.8678968 39.0989027,25.6807681 L55.9265377,13.9014236 C56.2708578,13.6603995 56.7291422,13.6603995 57.0734623,13.9014236 Z" id="Triangle-Copy" transform="translate(56.500000, 20.500000) scale(-1, 1) rotate(-450.000000) translate(-56.500000, -20.500000) "></path>
        </g>
    </g>
</svg>