<?xml version="1.0" encoding="UTF-8"?>
<svg width="800px" height="600px" viewBox="0 0 800 600" version="1.1" xmlns="http://www.w3.org/2000/svg" xmlns:xlink="http://www.w3.org/1999/xlink">
    <title>2041-10-16-22-10_RebaseBranch—GitRebase</title>
    <defs>
        <rect id="path-1" x="20" y="62" width="766" height="140"></rect>
        <filter x="-0.5%" y="-2.9%" width="102.1%" height="111.4%" filterUnits="objectBoundingBox" id="filter-2">
            <feOffset dx="4" dy="4" in="SourceAlpha" result="shadowOffsetOuter1"></feOffset>
            <feGaussianBlur stdDeviation="2" in="shadowOffsetOuter1" result="shadowBlurOuter1"></feGaussianBlur>
            <feComposite in="shadowBlurOuter1" in2="SourceAlpha" operator="out" result="shadowBlurOuter1"></feComposite>
            <feColorMatrix values="0 0 0 0 0   0 0 0 0 0   0 0 0 0 0  0 0 0 0.5 0" type="matrix" in="shadowBlurOuter1"></feColorMatrix>
        </filter>
        <rect id="path-3" x="13" y="209" width="158" height="38"></rect>
        <filter x="-1.3%" y="-5.3%" width="105.1%" height="121.1%" filterUnits="objectBoundingBox" id="filter-4">
            <feOffset dx="2" dy="2" in="SourceAlpha" result="shadowOffsetOuter1"></feOffset>
            <feGaussianBlur stdDeviation="1" in="shadowOffsetOuter1" result="shadowBlurOuter1"></feGaussianBlur>
            <feColorMatrix values="0 0 0 0 0   0 0 0 0 0   0 0 0 0 0  0 0 0 0.5 0" type="matrix" in="shadowBlurOuter1"></feColorMatrix>
        </filter>
        <rect id="path-5" x="404" y="209" width="158" height="38"></rect>
        <filter x="-1.3%" y="-5.3%" width="105.1%" height="121.1%" filterUnits="objectBoundingBox" id="filter-6">
            <feOffset dx="2" dy="2" in="SourceAlpha" result="shadowOffsetOuter1"></feOffset>
            <feGaussianBlur stdDeviation="1" in="shadowOffsetOuter1" result="shadowBlurOuter1"></feGaussianBlur>
            <feColorMatrix values="0 0 0 0 0   0 0 0 0 0   0 0 0 0 0  0 0 0 0.5 0" type="matrix" in="shadowBlurOuter1"></feColorMatrix>
        </filter>
        <path d="M163.198113,296.987342 C170.93531,296.987342 177.207547,290.722162 177.207547,282.993671 C177.207547,275.26518 170.93531,269 163.198113,269 C155.460916,269 149.188679,275.26518 149.188679,282.993671 C149.188679,290.722162 155.460916,296.987342 163.198113,296.987342 Z" id="path-7"></path>
        <mask id="mask-8" maskContentUnits="userSpaceOnUse" maskUnits="objectBoundingBox" x="0" y="0" width="28.0188679" height="27.9873418" fill="white">
            <use xlink:href="#path-7"></use>
        </mask>
        <path d="M219.235849,296.987342 C226.973046,296.987342 233.245283,290.722162 233.245283,282.993671 C233.245283,275.26518 226.973046,269 219.235849,269 C211.498652,269 205.226415,275.26518 205.226415,282.993671 C205.226415,290.722162 211.498652,296.987342 219.235849,296.987342 Z" id="path-9"></path>
        <mask id="mask-10" maskContentUnits="userSpaceOnUse" maskUnits="objectBoundingBox" x="0" y="0" width="28.0188679" height="27.9873418" fill="white">
            <use xlink:href="#path-9"></use>
        </mask>
        <path d="M373.356873,354 L423.351351,354 C423.903636,354 424.351351,354.447715 424.351351,355 L424.351351,373.756098 C424.351351,374.308382 424.799067,374.756098 425.351351,374.756098 L446.152079,374.756098 C446.704364,374.756098 447.152079,375.203813 447.152079,375.756098 C447.152079,376.198241 446.861721,376.587903 446.438041,376.714339 L398.861454,390.912297 C398.669932,390.969452 398.465678,390.967904 398.275044,390.907854 L353.202488,376.709896 C352.67572,376.543962 352.383205,375.982417 352.549139,375.455649 C352.680298,375.039274 353.066393,374.756098 353.502937,374.756098 L371.356873,374.756098 C371.909158,374.756098 372.356873,374.308382 372.356873,373.756098 L372.356873,355 C372.356873,354.447715 372.804588,354 373.356873,354 Z" id="path-11"></path>
        <filter x="-0.5%" y="-16.2%" width="96.8%" height="121.5%" filterUnits="objectBoundingBox" id="filter-12">
            <feOffset dx="-2" dy="-2" in="SourceAlpha" result="shadowOffsetOuter1"></feOffset>
            <feGaussianBlur stdDeviation="1" in="shadowOffsetOuter1" result="shadowBlurOuter1"></feGaussianBlur>
            <feColorMatrix values="0 0 0 0 0   0 0 0 0 0   0 0 0 0 0  0 0 0 0.5 0" type="matrix" in="shadowBlurOuter1"></feColorMatrix>
        </filter>
        <path d="M1.30671832,14.2592593 L14.1385563,14.2592593 C14.8479905,14.2592593 15.5395827,14.1398555 16.1997388,13.8829053 C16.8301582,13.636925 17.394307,13.2782918 17.8832644,12.8129123 C18.3875149,12.3327657 18.7664463,11.7619059 19.0323779,11.1201632 C19.3208245,10.4231489 19.4444444,9.68816165 19.4444444,8.93671945 L19.4444444,5.31114793 C19.4444444,4.56139341 19.3212493,3.82303078 19.0323779,3.12812605 C18.7651718,2.48511768 18.3875149,1.91341404 17.8828396,1.43115775 C17.3955815,0.965356409 16.8318574,0.610520421 16.2005884,0.370025162 C15.5391579,0.118138022 14.8458665,0 14.1385563,0 L7.92102401,0 C7.74685154,0 7.57310389,0.0337537206 7.41422461,0.0957761821 C7.25959344,0.161174016 7.11643217,0.251043297 6.99748512,0.369181319 C6.87726364,0.488163184 6.78210599,0.62697536 6.71413625,0.78097671 C6.64531688,0.938353432 6.61430569,1.10712204 6.61430569,1.27842217 L6.61430569,6.30477308 C6.61430569,7.01950812 7.20309359,7.60429133 7.92272326,7.60429133 C8.64235292,7.60429133 9.23114082,7.01993004 9.23114082,6.30477308 L9.23114082,2.61000644 L14.1385563,2.61000644 C14.8114568,2.61000644 15.473737,2.76400779 15.9877582,3.21461996 C16.596937,3.74792875 16.8055191,4.50274633 16.8055191,5.28878609 L16.8055191,8.95950321 C16.8055191,9.74554297 16.5939633,10.4931879 15.9886078,11.0290282 C15.4703385,11.4880788 14.8237763,11.6606447 14.1385563,11.6606447 L9.58288425,11.6606447 L2.98387175,5.106516 L2.44903483,5.63771518 L7.57182945,10.7256666 L1.29779729,7.12794194 L0.919715595,7.77854491 L7.19374775,11.3762696 L0.195837824,9.51390807 L0,10.2396131 L5.33944818,11.6606447 L0,11.6606447 L0,12.9808371 C0,13.1529811 0.0322856283,13.3209058 0.0989809393,13.4761729 C0.169499548,13.6305962 0.264232379,13.7706742 0.384029052,13.8913437 C0.501701671,14.0099036 0.645712566,14.0985072 0.796095624,14.1617954 C0.958798198,14.2259275 1.13127142,14.2592593 1.30671832,14.2592593" id="path-13"></path>
        <linearGradient x1="83.3129424%" y1="75.4694967%" x2="34.0164293%" y2="27.932589%" id="linearGradient-15">
            <stop stop-color="#2190EB" offset="0%"></stop>
            <stop stop-color="#16D2DF" offset="100%"></stop>
        </linearGradient>
    </defs>
    <g id="2041-10-16-22-10_RebaseBranch—GitRebase" stroke="none" stroke-width="1" fill="none" fill-rule="evenodd">
        <rect fill="#FFFFFF" x="0" y="0" width="800" height="600"></rect>
        <rect id="Rectangle-Copy" fill="#E1EDFF" x="34" y="326" width="259" height="86" rx="22.5"></rect>
        <rect id="Rectangle-Copy-2" fill="#E1EDFF" x="420" y="326" width="361" height="86" rx="22.5"></rect>
        <path id="Path-20" d="M751.128098,423.466596 L746.430518,438.397528 L737.30432,425.680904 L751.128098,423.466596 Z M741.64038,417.95146 C741.962787,418.515768 742.280432,419.084082 742.59846,419.664429 C742.824017,420.076031 743.042089,420.483658 743.252676,420.887313 L743.562941,421.489818 L741.779937,422.395851 C741.48481,421.815064 741.173014,421.224964 740.844547,420.625569 L740.375631,419.778388 L740.375631,419.778388 L739.903822,418.943612 L741.64038,417.95146 Z M737.327872,411.114776 C737.908617,411.945944 738.472039,412.785445 739.020933,413.63532 L739.565089,414.488728 L737.872549,415.554237 C737.345553,414.717113 736.805489,413.891108 736.249635,413.074214 L735.688415,412.260281 L737.327872,411.114776 Z M630.429074,410.143602 L631.865163,411.535596 C631.258801,412.161166 630.651442,412.797111 630.043089,413.44343 L629.129813,414.420689 L627.663738,413.060313 C628.587572,412.064698 629.509349,411.092461 630.429074,410.143602 Z M732.341904,404.71613 C733.008372,405.482372 733.657521,406.260972 734.290366,407.051838 L734.917814,407.846789 L733.339701,409.075431 C732.734097,408.297571 732.1131,407.531803 731.475727,406.77821 L730.832859,406.028679 L732.341904,404.71613 Z M636.174675,404.495203 L637.53985,405.95681 C636.903772,406.550922 636.266564,407.156694 635.628228,407.774128 L634.669879,408.709025 L633.267271,407.283301 C634.238697,406.327625 635.207829,405.398258 636.174675,404.495203 Z M642.218958,399.167824 L643.494677,400.70813 C642.826555,401.261484 642.157144,401.828002 641.486446,402.407685 L640.479434,403.287083 L639.156291,401.787319 C640.179741,400.884396 641.200628,400.01123 642.218958,399.167824 Z M726.659398,398.891056 C727.410867,399.576437 728.145337,400.276947 728.863365,400.992204 L729.575933,401.712363 L728.144138,403.108774 C727.457247,402.404477 726.754675,401.71449 726.035879,401.03917 L725.311656,400.368754 L726.659398,398.891056 Z M648.612504,394.239709 L649.773315,395.868365 C648.980392,396.433514 648.185583,397.01767 647.388892,397.620838 L646.591574,398.230342 L645.369614,396.64705 C646.453466,395.81055 647.534426,395.008101 648.612504,394.239709 Z M720.350445,393.794308 C721.180768,394.385907 721.99462,394.99445 722.792361,395.619535 L723.584744,396.250118 L722.327614,397.805632 C721.564022,397.188515 720.784964,396.587353 719.990078,396.002525 L719.189903,395.423155 L720.350445,393.794308 Z M655.404376,389.827223 L656.415375,391.552877 C655.577762,392.043604 654.737956,392.556122 653.895962,393.090437 L653.053238,393.632019 L651.962419,391.95568 C653.113012,391.206971 654.260328,390.49748 655.404376,389.827223 Z M713.453752,389.4883 C714.351752,389.975897 715.234072,390.481388 716.100962,391.004414 L716.962717,391.533271 L715.903744,393.229907 C715.072715,392.711212 714.226761,392.209388 713.365617,391.724777 L712.499401,391.245916 L713.453752,389.4883 Z M662.603096,386.108482 L663.418403,387.934756 C662.534043,388.329562 661.647138,388.749374 660.757692,389.194205 L659.867398,389.647376 L658.947646,387.871409 C660.169863,387.238438 661.388344,386.650786 662.603096,386.108482 Z M706.108094,386.047478 C707.058349,386.426602 707.993967,386.823777 708.91513,387.238699 L709.831481,387.659525 L708.983537,389.470876 C708.098321,389.056482 707.198997,388.659169 706.285367,388.279228 L705.36696,387.90509 L706.108094,386.047478 Z M698.405083,383.464614 C699.392751,383.736778 700.36696,384.026561 701.327843,384.333714 L702.28429,384.646648 L701.649383,386.543195 C700.723061,386.23309 699.783619,385.939747 698.830905,385.663409 L697.873762,385.392747 L698.405083,383.464614 Z M670.239855,383.28251 L670.801546,385.202016 C669.872997,385.47373 668.941554,385.773878 668.007212,386.102479 L667.071904,386.440565 L666.375862,384.565591 C667.668136,384.085863 668.956139,383.658154 670.239855,383.28251 Z M690.465307,381.731652 C691.130837,381.830092 691.79494,381.943688 692.457735,382.072462 C692.910844,382.160558 693.359231,382.251613 693.804596,382.345953 L694.470592,382.489968 L694.039614,384.442981 C693.391873,384.300042 692.73926,384.164648 692.076161,384.035724 C691.654022,383.953708 691.231312,383.878133 690.808026,383.808998 L690.172666,383.710126 L690.465307,381.731652 Z M678.24576,381.608278 L678.492622,383.592985 C677.466926,383.720563 676.43767,383.883981 675.404826,384.083264 L674.629519,384.239452 L674.218589,382.282123 C675.565881,381.999266 676.90829,381.774635 678.24576,381.608278 Z M685.643834,381.284633 L686.45929,381.323149 L686.34664,383.319974 C685.308847,383.261427 684.267488,383.240834 683.222515,383.258202 L682.438107,383.278345 L682.368701,381.27955 C683.463941,381.241519 684.555668,381.243211 685.643834,381.284633 Z" transform="translate(687.546778, 410.324885) scale(1, -1) rotate(-22.000000) translate(-687.546778, -410.324885) " fill="#DE4040" fill-rule="nonzero"></path>
        <g id="Rectangle-Copy-4">
            <use fill="black" fill-opacity="1" filter="url(#filter-2)" xlink:href="#path-1"></use>
            <rect stroke="#006AE1" stroke-width="4" stroke-linejoin="square" fill="#FFFFFF" fill-rule="evenodd" x="22" y="64" width="762" height="136"></rect>
        </g>
        <text id="Rebase-Branch-—-Git" fill-rule="nonzero" font-family="Helvetica" font-size="18" font-weight="normal" fill="#0055C2">
            <tspan x="10" y="23">Rebase Branch — Git Rebase</tspan>
        </text>
        <g id="git" transform="translate(704.000000, 9.000000)">
            <path d="M46.8658496,11.2380575 C45.1623498,11.2380575 43.8939053,12.0891281 43.8939053,14.1376499 C43.8939053,15.6808485 44.7297841,16.7522856 46.7743573,16.7522856 C48.5071097,16.7522856 49.6846843,15.7131436 49.6846843,14.073693 C49.6846843,12.2157755 48.6309666,11.2380575 46.8658496,11.2380575 L46.8658496,11.2380575 Z M43.4607172,25.7011913 C43.0574041,26.2046147 42.6553359,26.7397 42.6553359,27.3710373 C42.6553359,28.6305458 44.2337339,29.0092215 46.4027864,29.0092215 C48.1984009,29.0092215 50.6450424,28.8813076 50.6450424,27.1823327 C50.6450424,26.1723196 49.4674678,26.1102624 47.9805621,26.0152768 L43.4607172,25.7011913 Z M52.6255087,11.3330431 C53.1825537,12.0580995 53.7719634,13.0662128 53.7719634,14.5156924 C53.7719634,18.0124273 51.0776081,20.0603158 47.1764255,20.0603158 C46.1843252,20.0603158 45.2862067,19.9349349 44.7291617,19.7772589 L43.7071863,21.4471049 L46.7413702,21.6351763 C52.0989611,21.9828234 55.257002,22.1404995 55.257002,26.3293624 C55.257002,29.9533779 52.1300809,32 46.7413702,32 C41.1360655,32 39,30.5505204 39,28.0625322 C39,26.6440812 39.6199071,25.8898959 40.7034998,24.848221 C39.680902,24.4087545 39.3410734,23.6216409 39.3410734,22.7705703 C39.3410734,22.0771758 39.6815244,21.4471049 40.2391918,20.8480627 C40.7968593,20.2502869 41.416144,19.6506115 42.1586633,18.9578502 C40.6412601,18.2017651 39.4960502,16.563581 39.4960502,14.231369 C39.4960502,10.6086199 41.8493321,8.12063165 46.5870158,8.12063165 C47.9189448,8.12063165 48.7249485,8.24537935 49.436348,8.43598369 L55.4754632,8.43598369 L55.4754632,11.1133099 L52.6255087,11.3330431 L52.6255087,11.3330431 Z M60.9233016,5.60858036 C59.1575621,5.60858036 58.1355867,4.56817192 58.1355867,2.77167847 C58.1355867,0.977717972 59.1575621,0 60.9233016,0 C62.7195385,0 63.7408917,0.977084735 63.7408917,2.77167847 C63.7415139,4.56817192 62.7195385,5.60858036 60.9233016,5.60858036 Z M56.9275147,24.5423675 L56.9275147,22.0543792 L58.50778,21.8340127 C58.9409681,21.770689 59.0025853,21.6763367 59.0025853,21.2026754 L59.0025853,11.9403174 C59.0025853,11.59457 58.9104706,11.372937 58.5998947,11.279218 L56.9275147,10.6801757 L57.2679657,8.12949697 L63.6792742,8.12949697 L63.6792742,21.2033087 C63.6792742,21.7086318 63.7091492,21.770689 64.174702,21.834646 L65.7543448,22.0550125 L65.7543448,24.5430008 L56.9275147,24.5430008 L56.9275147,24.5423675 Z M78,23.32022 C76.6674487,23.9806863 74.7174798,24.5803617 72.9511179,24.5803617 C69.2665294,24.5803617 67.8736056,23.0694582 67.8736056,19.5074999 L67.8736056,11.2532552 C67.8736056,11.0651838 67.8736056,10.9385364 67.6252693,10.9385364 L65.458084,10.9385364 L65.458084,8.13456287 C68.1841815,7.81857759 69.2671518,6.43242174 69.6076028,2.99837733 L72.5502944,2.99837733 L72.5502944,7.47346341 C72.5502944,7.69319666 72.5502944,7.78881545 72.7980083,7.78881545 L77.1641212,7.78881545 L77.1641212,10.9391697 L72.5502944,10.9391697 L72.5502944,18.4683579 C72.5502944,20.3269086 72.9841049,21.0513318 74.6558625,21.0513318 C75.5241059,21.0513318 76.4209796,20.8315985 77.1641212,20.5479083 L78,23.32022 L78,23.32022 Z" id="Shape" fill="#31251C" fill-rule="nonzero"></path>
            <path d="M32.3772539,15.0299695 L17.9690664,0.622277028 C17.140005,-0.207425676 15.7941261,-0.207425676 14.9644314,0.622277028 L11.9724635,3.61427365 L15.7668919,7.40937182 C16.6497884,7.11169223 17.6606226,7.31120089 18.3636464,8.01486479 C19.0704703,8.72232885 19.2687104,9.74203981 18.9634334,10.6274783 L22.6210571,14.2851371 C23.5052204,13.9804906 24.5268216,14.1774658 25.2336455,14.8849299 C26.221679,15.8723394 26.221679,17.4728423 25.2336455,18.4608852 C24.2449787,19.4489281 22.6451246,19.4489281 21.6570912,18.4608852 C20.914166,17.7173195 20.7304932,16.6260388 21.1067059,15.7108324 L17.6954571,12.2995509 L17.6948238,21.2768075 C17.9361319,21.3958793 18.1628729,21.5542195 18.3636464,21.7543616 C19.3516798,22.7417711 19.3516798,24.3416406 18.3636464,25.3309502 C17.375613,26.3183598 15.7744921,26.3183598 14.7877254,25.3309502 C13.799692,24.3416406 13.799692,22.7417711 14.7877254,21.7543616 C15.0322003,21.5105176 15.3140432,21.3262096 15.6155201,21.2027043 L15.6155201,12.1424774 C15.3140432,12.0196054 15.0322003,11.8359308 14.7877254,11.5908201 C14.0391001,10.842821 13.8592273,9.74520661 14.2430403,8.82620003 L10.5024471,5.08430417 L0.622746073,14.9634666 C-0.207582024,15.7938027 -0.207582024,17.1396945 0.622746073,17.9700305 L15.0309336,32.377723 C15.8606284,33.2074257 17.2058739,33.2074257 18.0368353,32.377723 L32.3772539,18.0359 C33.207582,17.2061973 33.207582,15.8596722 32.3772539,15.0299695 L32.3772539,15.0299695 Z" id="Path" fill="#F34F29" fill-rule="nonzero"></path>
            <polygon id="Path" points="1.12409637e-15 0 79 0 79 33 0 33"></polygon>
        </g>
        <text id="$-git-rebase-[base-b" font-family="Helvetica-Bold, Helvetica" font-size="36" font-weight="bold" fill="#0055C2">
            <tspan x="127.902344" y="149">$ git rebase [base branch name]</tspan>
        </text>
        <text id="Execute-command-from" font-family="Helvetica" font-size="18" font-weight="normal" fill="#0055C2">
            <tspan x="589" y="501">Execute command </tspan>
            <tspan x="589" y="523">from </tspan>
            <tspan x="630.000977" y="523" font-family="Helvetica-Bold, Helvetica" font-weight="bold">Master Branch</tspan>
        </text>
        <rect id="Rectangle" stroke="#006AE1" x="21.5" y="212.5" width="371.530422" height="351" rx="8"></rect>
        <rect id="Rectangle-Copy-3" stroke="#006AE1" x="411.969578" y="212.5" width="371.530422" height="351" rx="8"></rect>
        <text id="Execute-command-from" font-family="Helvetica" font-size="18" font-weight="normal" fill="#199ABD">
            <tspan x="214" y="501">Execute command </tspan>
            <tspan x="214" y="523">from </tspan>
            <tspan x="255.000977" y="523" font-family="Helvetica-Bold, Helvetica" font-weight="bold">Topic Branch</tspan>
        </text>
        <text id="Topic-Branch" font-family="Helvetica" font-size="21" font-weight="normal" fill="#199ABD">
            <tspan x="199.302002" y="258">Topic Branch</tspan>
        </text>
        <text id="Topic-Branch" font-family="Helvetica" font-size="21" font-weight="normal" fill="#199ABD">
            <tspan x="638.302002" y="258">Topic Branch</tspan>
        </text>
        <text id="Master-Branch" font-family="Helvetica" font-size="21" font-weight="normal" fill="#0055C2">
            <tspan x="44.7243652" y="404">Master Branch</tspan>
        </text>
        <g id="Rectangle">
            <use fill="black" fill-opacity="1" filter="url(#filter-4)" xlink:href="#path-3"></use>
            <use fill="#0055C2" fill-rule="evenodd" xlink:href="#path-3"></use>
        </g>
        <g id="Rectangle-Copy-5">
            <use fill="black" fill-opacity="1" filter="url(#filter-6)" xlink:href="#path-5"></use>
            <use fill="#0055C2" fill-rule="evenodd" xlink:href="#path-5"></use>
        </g>
        <ellipse id="Oval-Copy-11" stroke="#199ABD" stroke-width="4" cx="290.556604" cy="282.993671" rx="12.009434" ry="11.9936709"></ellipse>
        <ellipse id="Oval-Copy-14" stroke="#199ABD" stroke-width="4" cx="346.59434" cy="282.993671" rx="12.009434" ry="11.9936709"></ellipse>
        <line x1="266.358491" y1="283.417722" x2="276.54717" y2="283.417722" id="Line-Copy-10" stroke="#199ABD" stroke-width="3" stroke-linecap="round"></line>
        <line x1="304.566038" y1="283.417722" x2="333.433962" y2="283.417722" id="Line-Copy-11" stroke="#199ABD" stroke-width="3" stroke-linecap="round"></line>
        <use id="Oval-Copy-11" stroke="#199ABD" mask="url(#mask-8)" stroke-width="8" stroke-dasharray="6" xlink:href="#path-7"></use>
        <use id="Oval-Copy-14" stroke="#199ABD" mask="url(#mask-10)" stroke-width="8" stroke-dasharray="6" xlink:href="#path-9"></use>
        <line x1="139" y1="283.417722" x2="149.188679" y2="283.417722" id="Line-Copy-10" stroke="#199ABD" stroke-width="3" stroke-linecap="round" stroke-dasharray="6"></line>
        <line x1="177.207547" y1="283.417722" x2="206.075472" y2="283.417722" id="Line-Copy-11" stroke="#199ABD" stroke-width="3" stroke-linecap="round" stroke-dasharray="6"></line>
        <line x1="250.747409" y1="283.556263" x2="266.5" y2="336.221519" id="Line-6-Copy-2" stroke="#199ABD" stroke-width="3" stroke-linecap="square" transform="translate(258.622642, 309.860759) scale(1, -1) translate(-258.622642, -309.860759) "></line>
        <ellipse id="Oval-Copy-9" stroke="#1576ED" stroke-width="4" cx="123.688679" cy="350.006329" rx="12.009434" ry="11.9936709"></ellipse>
        <ellipse id="Oval-Copy-13" stroke="#006AE1" stroke-width="4" fill="#FF9696" cx="251.04717" cy="350.006329" rx="12.009434" ry="11.9936709"></ellipse>
        <ellipse id="Oval-Copy-10" stroke="#1576ED" stroke-width="4" cx="187.367925" cy="350.006329" rx="12.009434" ry="11.9936709"></ellipse>
        <ellipse id="Oval-Copy-12" stroke="#1576ED" stroke-width="4" cx="60.009434" cy="350.006329" rx="12.009434" ry="11.9936709"></ellipse>
        <line x1="123.388918" y1="283.556263" x2="138.5" y2="336.221519" id="Line-6-Copy-2" stroke="#199ABD" stroke-width="3" stroke-linecap="square" stroke-dasharray="6" transform="translate(131.264151, 309.860759) scale(1, -1) translate(-131.264151, -309.860759) "></line>
        <line x1="74.0188679" y1="349.582278" x2="109.044426" y2="349.600715" id="Line-Copy-6" stroke="#1576ED" stroke-width="3" stroke-linecap="round"></line>
        <line x1="201.377358" y1="349.582278" x2="236.402916" y2="349.600715" id="Line-Copy-7" stroke="#006AE1" stroke-width="3" stroke-linecap="round"></line>
        <line x1="138.54717" y1="349.582278" x2="173.572728" y2="349.600715" id="Line-Copy-8" stroke="#1576ED" stroke-width="3" stroke-linecap="round"></line>
        <ellipse id="Oval" fill="#DE4040" cx="123.688679" cy="336.436709" rx="3.82075472" ry="3.8164557"></ellipse>
        <ellipse id="Oval-Copy" fill="#DE4040" cx="251.04717" cy="336.436709" rx="3.82075472" ry="3.8164557"></ellipse>
        <path id="Line-41" d="M239.150943,328.544304 L248.150943,333.044304 L239.150943,337.544304 L239.15,333.544 L237.981132,333.544304 L237.981132,332.544304 L239.15,332.544 L239.150943,328.544304 Z M133.981132,332.544304 L133.981132,333.544304 L129.981132,333.544304 L129.981132,332.544304 L133.981132,332.544304 Z M139.981132,332.544304 L139.981132,333.544304 L135.981132,333.544304 L135.981132,332.544304 L139.981132,332.544304 Z M145.981132,332.544304 L145.981132,333.544304 L141.981132,333.544304 L141.981132,332.544304 L145.981132,332.544304 Z M151.981132,332.544304 L151.981132,333.544304 L147.981132,333.544304 L147.981132,332.544304 L151.981132,332.544304 Z M157.981132,332.544304 L157.981132,333.544304 L153.981132,333.544304 L153.981132,332.544304 L157.981132,332.544304 Z M163.981132,332.544304 L163.981132,333.544304 L159.981132,333.544304 L159.981132,332.544304 L163.981132,332.544304 Z M169.981132,332.544304 L169.981132,333.544304 L165.981132,333.544304 L165.981132,332.544304 L169.981132,332.544304 Z M175.981132,332.544304 L175.981132,333.544304 L171.981132,333.544304 L171.981132,332.544304 L175.981132,332.544304 Z M181.981132,332.544304 L181.981132,333.544304 L177.981132,333.544304 L177.981132,332.544304 L181.981132,332.544304 Z M187.981132,332.544304 L187.981132,333.544304 L183.981132,333.544304 L183.981132,332.544304 L187.981132,332.544304 Z M193.981132,332.544304 L193.981132,333.544304 L189.981132,333.544304 L189.981132,332.544304 L193.981132,332.544304 Z M199.981132,332.544304 L199.981132,333.544304 L195.981132,333.544304 L195.981132,332.544304 L199.981132,332.544304 Z M205.981132,332.544304 L205.981132,333.544304 L201.981132,333.544304 L201.981132,332.544304 L205.981132,332.544304 Z M211.981132,332.544304 L211.981132,333.544304 L207.981132,333.544304 L207.981132,332.544304 L211.981132,332.544304 Z M217.981132,332.544304 L217.981132,333.544304 L213.981132,333.544304 L213.981132,332.544304 L217.981132,332.544304 Z M223.981132,332.544304 L223.981132,333.544304 L219.981132,333.544304 L219.981132,332.544304 L223.981132,332.544304 Z M229.981132,332.544304 L229.981132,333.544304 L225.981132,333.544304 L225.981132,332.544304 L229.981132,332.544304 Z M235.981132,332.544304 L235.981132,333.544304 L231.981132,333.544304 L231.981132,332.544304 L235.981132,332.544304 Z" fill="#DE4040" fill-rule="nonzero"></path>
        <text id="Master-Branch" font-family="Helvetica" font-size="21" font-weight="normal" fill="#0055C2">
            <tspan x="439.724365" y="404">Master Branch</tspan>
        </text>
        <text id="Merge" font-family="Helvetica" font-size="18" font-weight="normal" fill="#DE4040">
            <tspan x="673.489746" y="316">Merge</tspan>
        </text>
        <text id="Fast-forward" font-family="Helvetica" font-size="18" font-weight="normal" fill="#DE4040">
            <tspan x="648.489258" y="460">Fast-forward</tspan>
        </text>
        <ellipse id="Oval-Copy-11" stroke="#199ABD" stroke-width="4" cx="672.009434" cy="282.993671" rx="12.009434" ry="11.9936709"></ellipse>
        <ellipse id="Oval-Copy-14" stroke="#199ABD" stroke-width="4" cx="727.990566" cy="282.993671" rx="12.009434" ry="11.9936709"></ellipse>
        <line x1="631.747409" y1="283.556263" x2="647.5" y2="336.221519" id="Line-6-Copy-2" stroke="#199ABD" stroke-width="3" stroke-linecap="square" transform="translate(639.622642, 309.860759) scale(1, -1) translate(-639.622642, -309.860759) "></line>
        <line x1="647.754717" y1="283.417722" x2="657.943396" y2="283.417722" id="Line-Copy-10" stroke="#199ABD" stroke-width="3" stroke-linecap="round"></line>
        <line x1="685.962264" y1="283.417722" x2="714.830189" y2="283.417722" id="Line-Copy-11" stroke="#199ABD" stroke-width="3" stroke-linecap="round"></line>
        <ellipse id="Oval-Copy-9" stroke="#1576ED" stroke-width="4" cx="504.688679" cy="350.006329" rx="12.009434" ry="11.9936709"></ellipse>
        <ellipse id="Oval-Copy-13" stroke="#006AE1" stroke-width="4" cx="632.04717" cy="350.006329" rx="12.009434" ry="11.9936709"></ellipse>
        <ellipse id="Oval-Copy-15" stroke="#006AE1" stroke-width="4" fill="#FF9696" cx="758.04717" cy="350.006329" rx="12.009434" ry="11.9936709"></ellipse>
        <ellipse id="Oval-Copy-10" stroke="#1576ED" stroke-width="4" cx="568.367925" cy="350.006329" rx="12.009434" ry="11.9936709"></ellipse>
        <ellipse id="Oval-Copy-16" stroke="#1576ED" stroke-width="4" cx="694.367925" cy="350.006329" rx="12.009434" ry="11.9936709"></ellipse>
        <text id="$-git-rebase" font-family="Helvetica-Bold, Helvetica" font-size="21" font-weight="bold" fill="#FFFFFF">
            <tspan x="34.1398926" y="236">$ git rebase</tspan>
        </text>
        <text id="$-git-merge" font-family="Helvetica-Bold, Helvetica" font-size="21" font-weight="bold" fill="#FFFFFF">
            <tspan x="427.48291" y="236">$ git merge</tspan>
        </text>
        <ellipse id="Oval-Copy-12" stroke="#1576ED" stroke-width="4" cx="441.009434" cy="350.006329" rx="12.009434" ry="11.9936709"></ellipse>
        <line x1="455.018868" y1="349.582278" x2="490.044426" y2="349.600715" id="Line-Copy-6" stroke="#1576ED" stroke-width="3" stroke-linecap="round"></line>
        <line x1="582.377358" y1="349.582278" x2="617.402916" y2="349.600715" id="Line-Copy-7" stroke="#006AE1" stroke-width="3" stroke-linecap="round"></line>
        <line x1="708.377358" y1="349.582278" x2="743.402916" y2="349.600715" id="Line-Copy-9" stroke="#006AE1" stroke-width="3" stroke-linecap="round"></line>
        <line x1="519.54717" y1="349.582278" x2="554.572728" y2="349.600715" id="Line-Copy-8" stroke="#1576ED" stroke-width="3" stroke-linecap="round"></line>
        <line x1="645.54717" y1="349.582278" x2="680.572728" y2="349.600715" id="Line-Copy-12" stroke="#1576ED" stroke-width="3" stroke-linecap="round"></line>
        <ellipse id="Oval-Copy" fill="#DE4040" cx="632.04717" cy="336.436709" rx="3.82075472" ry="3.8164557"></ellipse>
        <g id="Group-5" transform="translate(646.000000, 306.000000)" fill="#DE4040">
            <polygon id="Path" points="27 23.8195326 26.9131886 22.8564692 26.4035329 20.2805583 25.6362121 17.7935007 24.6244277 15.4097725 23.3813672 13.1436311 21.9201662 11.0091554 20.253843 9.02033976 18.3953453 7.19116059 16.3575735 5.53563894 14.1534333 4.06786721 11.795905 2.80204035 9.29814795 1.75245144 6.67354233 0.933411401 3.93578333 0.359217761 1.11703325 0.0460187969 0.107153828 0 0 2.11587908 0.971606611 2.16015417 0.895278382 2.15417828 3.61992188 2.4569239 3.50876894 2.43913894 6.13674546 2.99030758 6.02886705 2.96223874 8.54762997 3.74824639 8.44431192 3.71052695 10.8413085 4.71777624 10.7435287 4.67112418 13.0062061 5.88601774 12.9146792 5.83115106 15.0304895 7.2401049 14.9457138 7.17767471 16.9021136 8.76708698 16.8244746 8.69764181 18.6089018 10.4539241 18.5387381 10.3779233 20.1386586 12.2874826 20.0763321 12.2053186 21.479184 14.2545576 21.4251272 14.1666095 22.618367 16.3419353 22.5731066 16.2486356 23.5441862 18.5364597 23.5083333 18.4383659 24.2447001 20.825091 24.2189082 20.7229702 24.708014 23.1950033 24.6929131 23.0898678 24.7749526 24"></polygon>
            <polygon id="Triangle" transform="translate(25.924394, 23.769253) rotate(-192.000000) translate(-25.924394, -23.769253) " points="25.9243944 20.4359201 30.5910611 27.1025868 21.2577278 27.1025868"></polygon>
        </g>
        <g id="Group" transform="translate(46.000000, 427.000000)">
            <ellipse id="Oval" stroke="#006AE1" stroke-width="4" fill="#C5DDFF" cx="74" cy="86" rx="54" ry="14"></ellipse>
            <ellipse id="Oval-Copy" stroke="#199ABD" stroke-width="4" fill="#A1E0E9" cx="148" cy="39" rx="26" ry="6"></ellipse>
            <g id="location" transform="translate(137.000000, 0.000000)" fill-rule="nonzero">
                <path d="M14.5,0 C6.49187113,0 0,6.40142751 0,14.2979885 C0,21.8499261 12.9181818,37.8246787 13.4718182,38.5135818 C13.7220048,38.8210812 14.1002,39 14.5,39 C14.8998,39 15.2779952,38.8210812 15.5281818,38.5135818 C16.0818182,37.8246787 29,21.8499261 29,14.2979885 C29,6.40142751 22.5081289,0 14.5,0 Z M14.5,20.7970742 C10.8599414,20.7970742 7.90909091,17.8873344 7.90909091,14.2979885 C7.90909091,10.7086426 10.8599414,7.79890283 14.5,7.79890283 C18.1400586,7.79890283 21.0909091,10.7086426 21.0909091,14.2979885 C21.0909091,17.8873344 18.1400586,20.7970742 14.5,20.7970742 Z" id="Shape" fill="#FF9797"></path>
                <path d="M14,0 L14,7.79999849 C17.5145393,7.79999849 20.3636364,10.7101471 20.3636364,14.2999972 C20.3636364,17.8898474 17.5145393,20.799996 14,20.799996 L14,39 C14.3851125,39.00133 14.7501072,38.8244814 14.9927273,38.5189926 C15.5272727,37.8299927 28,21.8529958 28,14.2999972 C28,6.40232684 21.7319865,0 14,0 Z" id="Path" fill="#E47979"></path>
            </g>
            <path d="M127,46 L111.689816,58.3510606 L103.116421,56.4475314 C102.577266,56.3278241 102.043152,56.667854 101.923445,57.2070094 C101.866998,57.4612404 101.911956,57.7274627 102.048756,57.94906 L108.870899,69 L108.870899,69 L134.388452,67.2422671 C134.939431,67.2043138 135.355321,66.7268898 135.317367,66.1759107 C135.287397,65.7408189 134.978911,65.3753298 134.555034,65.272709 L124.055514,62.7307719 L124.055514,62.7307719 L131.245377,47.0588921 L127,46 Z" id="Path-21" fill="#FF9696" transform="translate(120.828222, 57.500000) rotate(3.000000) translate(-120.828222, -57.500000) "></path>
            <text id="Master-Branch-Copy" font-family="Helvetica-Bold, Helvetica" font-size="16" font-weight="bold" fill="#0055C2">
                <tspan x="7.92578125" y="124">Master Branch</tspan>
            </text>
            <text id="Topic-Branch-Copy" font-family="Helvetica-Bold, Helvetica" font-size="16" font-weight="bold" fill="#199ABD">
                <tspan x="33.9726562" y="20">Topic Branch</tspan>
            </text>
        </g>
        <g id="Group" transform="translate(427.000000, 427.000000)">
            <ellipse id="Oval-Copy-2" stroke="#006AE1" stroke-width="4" fill="#C5DDFF" cx="74" cy="81" rx="54" ry="14"></ellipse>
            <ellipse id="Oval-Copy-3" stroke="#199ABD" stroke-width="4" fill="#A1E0E9" cx="148" cy="34" rx="26" ry="6"></ellipse>
            <g id="location-copy-2" transform="translate(49.000000, 46.000000)" fill-rule="nonzero">
                <path d="M14.5,0 C6.49187113,0 0,6.40142751 0,14.2979885 C0,21.8499261 12.9181818,37.8246787 13.4718182,38.5135818 C13.7220048,38.8210812 14.1002,39 14.5,39 C14.8998,39 15.2779952,38.8210812 15.5281818,38.5135818 C16.0818182,37.8246787 29,21.8499261 29,14.2979885 C29,6.40142751 22.5081289,0 14.5,0 Z M14.5,20.7970742 C10.8599414,20.7970742 7.90909091,17.8873344 7.90909091,14.2979885 C7.90909091,10.7086426 10.8599414,7.79890283 14.5,7.79890283 C18.1400586,7.79890283 21.0909091,10.7086426 21.0909091,14.2979885 C21.0909091,17.8873344 18.1400586,20.7970742 14.5,20.7970742 Z" id="Shape" fill="#FF9797"></path>
                <path d="M14,0 L14,7.79999849 C17.5145393,7.79999849 20.3636364,10.7101471 20.3636364,14.2999972 C20.3636364,17.8898474 17.5145393,20.799996 14,20.799996 L14,39 C14.3851125,39.00133 14.7501072,38.8244814 14.9927273,38.5189926 C15.5272727,37.8299927 28,21.8529958 28,14.2999972 C28,6.40232684 21.7319865,0 14,0 Z" id="Path" fill="#E47979"></path>
            </g>
            <path d="M127,41 L111.689816,53.3510606 L103.116421,51.4475314 C102.577266,51.3278241 102.043152,51.667854 101.923445,52.2070094 C101.866998,52.4612404 101.911956,52.7274627 102.048756,52.94906 L108.870899,64 L108.870899,64 L134.388452,62.2422671 C134.939431,62.2043138 135.355321,61.7268898 135.317367,61.1759107 C135.287397,60.7408189 134.978911,60.3753298 134.555034,60.272709 L124.055514,57.7307719 L124.055514,57.7307719 L131.245377,42.0588921 L127,41 Z" id="Path-21-Copy" fill="#FF9696" transform="translate(120.828222, 52.500000) rotate(3.000000) translate(-120.828222, -52.500000) "></path>
            <text id="Master-Branch-Copy-2" font-family="Helvetica-Bold, Helvetica" font-size="16" font-weight="bold" fill="#0055C2">
                <tspan x="7.92578125" y="119">Master Branch</tspan>
            </text>
            <text id="Topic-Branch-Copy-2" font-family="Helvetica-Bold, Helvetica" font-size="16" font-weight="bold" fill="#199ABD">
                <tspan x="33.9726562" y="15">Topic Branch</tspan>
            </text>
        </g>
        <g id="trial-copy" transform="translate(4.000000, 570.000000)" fill="#006AE1" fill-rule="nonzero">
            <path d="M24.7390408,0.0712262435 C23.8197062,-0.175854327 23.1591603,0.239201967 22.6859188,1.01735927 C22.6046689,1.15134921 22.52713,1.31717641 22.4478332,1.49316028 C22.1428011,1.2575123 21.7678493,1.130415 21.3824051,1.13201247 C21.3529129,1.13201247 21.3224442,1.13259843 21.2931474,1.134161 L15.1740157,1.4288998 C14.9503832,1.43964243 14.7687429,1.47870655 14.6234306,1.53906062 C14.2647714,1.59678794 13.9347315,1.76994119 13.6833929,2.03224516 L0.468959043,15.8746167 C-0.17420408,16.5457384 -0.153305673,17.6121889 0.516224599,18.2565516 L7.02930103,24.5302495 C7.34177077,24.8320424 7.7593469,25.0004949 8.19375245,25 C8.63515806,25 9.07597773,24.8259649 9.40566475,24.4831773 L22.6199033,10.6400244 C23.0124808,10.2306324 23.3675584,9.67455464 23.2691211,9.15636906 C23.2718554,9.11457045 23.2687304,9.07296716 23.2691211,9.02804342 L23.1146291,2.88735879 C23.1183122,2.59624806 23.0497989,2.30876172 22.9152153,2.0506053 C23.3099413,1.28006549 23.6851361,0.550347698 24.542752,0.780630696 C25.0023217,0.904854604 25.1966573,0.194082907 24.7390408,0.0712262435 Z M8.52812889,13.4245632 L9.32781975,14.170287 L8.29716074,16.7269943 L10.7727157,15.5176743 L11.5754357,16.2662228 L7.51909394,18.1808206 L6.90418013,17.6074042 L8.52812889,13.4245632 Z M10.8555796,8.86713434 L14.7160332,15.2007265 L13.8468014,16.1328635 L9.99486962,9.79013275 L10.8555796,8.86713434 Z M17.1802579,6.51873344 L17.7982008,7.09497455 L16.1742521,11.2778156 L15.3745612,10.5320918 L16.4052202,7.97538454 L13.9296652,9.1847045 L13.1269453,8.43615601 L17.1802579,6.51873344 Z M21.1763507,2.2398705 C21.4058425,2.2398705 21.6355297,2.32542139 21.8136544,2.49691289 C21.8259591,2.50882745 21.8343575,2.52289053 21.8460763,2.53539105 C21.6548656,2.73520403 21.419905,2.85845134 21.1132648,2.82387959 C20.6425624,2.7709477 20.6474452,3.50808768 21.1132648,3.56062893 C21.5214674,3.60652927 21.8320138,3.4873837 22.0857244,3.27643744 C22.062433,3.47297911 21.9760108,3.65665988 21.8394357,3.79989667 C21.6663502,3.98098016 21.4266486,4.08326003 21.1761554,4.0829171 C20.9384391,4.08306483 20.7099506,3.99090921 20.5388516,3.82587432 C20.1727885,3.47281343 20.1612599,2.89015669 20.5130704,2.52289053 C20.686209,2.34188379 20.9258761,2.23961864 21.1763507,2.2398705 Z" id="Shape"></path>
        </g>
        <g id="Path-2-Copy-2" transform="translate(400.000000, 372.500000) rotate(-90.000000) translate(-400.000000, -372.500000) ">
            <use fill="black" fill-opacity="1" filter="url(#filter-12)" xlink:href="#path-11"></use>
            <use fill="#FFC0C0" fill-rule="evenodd" xlink:href="#path-11"></use>
        </g>
        <text id="A1-Copy-3" font-family="Helvetica" font-size="18" font-weight="normal" fill="#199ABD">
            <tspan x="155.991699" y="314">A1</tspan>
        </text>
        <text id="A1-Copy-4" font-family="Helvetica" font-size="18" font-weight="normal" fill="#199ABD">
            <tspan x="282.991699" y="314">A1</tspan>
        </text>
        <text id="A1" font-family="Helvetica" font-size="18" font-weight="normal" fill="#0055C2">
            <tspan x="683.991699" y="382">A1</tspan>
        </text>
        <text id="A2-Copy-5" font-family="Helvetica" font-size="18" font-weight="normal" fill="#199ABD">
            <tspan x="207.991699" y="314">A2</tspan>
        </text>
        <text id="A2-Copy-6" font-family="Helvetica" font-size="18" font-weight="normal" fill="#199ABD">
            <tspan x="334.991699" y="314">A2</tspan>
        </text>
        <text id="A2" font-family="Helvetica" font-size="18" font-weight="normal" fill="#0055C2">
            <tspan x="747.983398" y="382">A2</tspan>
        </text>
        <text id="(HEAD)" font-family="Helvetica" font-size="18" font-weight="normal" fill="#0055C2">
            <tspan x="717.001953" y="402">(HEAD)</tspan>
        </text>
        <text id="M2" font-family="Helvetica" font-size="18" font-weight="normal" fill="#006AE1">
            <tspan x="48.4975586" y="381">M2</tspan>
        </text>
        <text id="M2" font-family="Helvetica" font-size="18" font-weight="normal" fill="#006AE1">
            <tspan x="428.497559" y="381">M2</tspan>
        </text>
        <text id="M4" font-family="Helvetica" font-size="18" font-weight="normal" fill="#006AE1">
            <tspan x="174.497559" y="381">M4</tspan>
        </text>
        <text id="M4" font-family="Helvetica" font-size="18" font-weight="normal" fill="#006AE1">
            <tspan x="555.497559" y="381">M4</tspan>
        </text>
        <text id="M3" font-family="Helvetica" font-size="18" font-weight="normal" fill="#006AE1">
            <tspan x="111.497559" y="381">M3</tspan>
        </text>
        <text id="M3" font-family="Helvetica" font-size="18" font-weight="normal" fill="#006AE1">
            <tspan x="491.497559" y="381">M3</tspan>
        </text>
        <text id="M5-(HEAD)" font-family="Helvetica" font-size="18" font-weight="normal" fill="#006AE1">
            <tspan x="238.997559" y="381">M5</tspan>
            <tspan x="220.500977" y="403">(HEAD)</tspan>
        </text>
        <text id="M5" font-family="Helvetica" font-size="18" font-weight="normal" fill="#006AE1">
            <tspan x="618.997559" y="381">M5</tspan>
        </text>
        <g id="default_logo-copy" transform="translate(725.000000, 580.000000)">
            <path d="M64.7910052,14.2592593 C65.7036527,14.2592593 66.5565235,14.0318234 67.3542482,13.5862347 L67.4973756,13.5069064 L67.5819891,13.6474188 C67.6952282,13.8351905 67.8425652,13.9913153 68.0328404,14.1006027 C68.2294301,14.2128438 68.446226,14.2592593 68.6714411,14.2592593 C68.8516132,14.2592593 69.0225242,14.2267684 69.1909093,14.1546134 C69.353401,14.0883659 69.4965284,13.9921592 69.6202915,13.8676813 C69.8796046,13.6081766 70,13.2942391 70,12.9275568 L70,8.96198643 C69.9856873,8.27166156 69.8467695,7.60327857 69.5701969,6.97118404 C69.2982549,6.3504824 68.9210721,5.799404 68.4428583,5.32174645 C67.9621186,4.84197911 67.4072895,4.46896738 66.7808968,4.20735283 C66.1452428,3.9423626 65.4797004,3.81324315 64.7910052,3.81324315 C64.0964164,3.81324315 63.4262435,3.9423626 62.7872218,4.21452613 C62.1574613,4.48247007 61.6009483,4.85885747 61.116841,5.34411027 C60.6297869,5.83189484 60.2509203,6.39310026 59.982767,7.02941438 C59.7112459,7.6729018 59.5782216,8.34761418 59.5782216,9.0455343 C59.5782216,9.74387639 59.709983,10.4156351 59.982346,11.0578566 C60.2504994,11.6891072 60.6310498,12.2448272 61.1164201,12.7279702 C61.6022112,13.2111132 62.1570403,13.5891884 62.7872218,13.8579763 C63.4262435,14.1297179 64.0959954,14.2592593 64.7910052,14.2592593 Z M22.7098704,8.7771684 L26.9889583,8.7771684 C27.1636579,8.7771684 27.3366736,8.74341169 27.5016911,8.67294454 C27.6599731,8.60880678 27.8052053,8.5180856 27.9264426,8.39698338 C28.0459961,8.27714703 28.1369241,8.13410294 28.2030152,7.97882204 C28.2712112,7.81763372 28.3057302,7.65138189 28.3057302,7.47626892 C28.3057302,7.30031203 28.2699483,7.13068453 28.2025943,6.96823033 C28.1352402,6.807042 28.0430493,6.66020028 27.9268636,6.53614435 C27.8039424,6.41293233 27.6561845,6.32010136 27.4970605,6.25090009 C27.3370946,6.18169882 27.1632369,6.14456643 26.9889583,6.14456643 L22.7098704,6.14456643 C22.3432118,6.14456643 22.0316992,6.26271494 21.772807,6.5243295 C21.6494649,6.64880739 21.5585369,6.79902478 21.4920248,6.96612053 C21.4229869,7.12730886 21.3888889,7.30073399 21.3888889,7.47626892 C21.3888889,7.65095993 21.421724,7.8167898 21.4928667,7.98050988 C21.558116,8.13747861 21.6515697,8.27672507 21.7719651,8.39656142 C22.0333831,8.65648814 22.3419489,8.7771684 22.7098704,8.7771684 Z M33.3286594,14.2592593 C33.5050429,14.2592593 33.6772167,14.2276123 33.8418132,14.1617867 C33.9925179,14.1018686 34.1322776,14.0187426 34.2467795,13.9027039 C34.3621233,13.7849774 34.4501046,13.6482627 34.5111442,13.4950916 C34.5747096,13.3339033 34.604177,13.1655416 34.604177,12.9921165 C34.604177,12.8195353 34.5759725,12.6537054 34.5103023,12.4908292 C34.4513675,12.3372362 34.3629653,12.2022093 34.2442537,12.082373 C34.1322776,11.9638025 33.9967276,11.8743472 33.8426551,11.8131631 C33.6780586,11.7443838 33.5067267,11.7131589 33.3286594,11.7131589 C32.7936156,11.7131589 32.3431853,11.5123064 32.3006681,10.9131247 L32.3006681,1.30089948 C32.3006681,1.12831827 32.2657281,0.962488396 32.1966902,0.808473374 C32.1204959,0.648972886 32.0215697,0.506772715 31.9007533,0.382294821 C31.7736225,0.261192599 31.6254436,0.170049462 31.4587423,0.102957987 C31.2979344,0.0337567171 31.1244977,0 30.9497981,0 C30.6033457,0 30.3175119,0.124899853 30.0767211,0.379341108 C29.8233014,0.636736076 29.7079576,0.940124571 29.7079576,1.30089948 L29.7079576,10.8489869 C29.7079576,11.3236907 29.7955179,11.783626 29.9904237,12.2165559 C30.1785941,12.6342953 30.4391701,12.9988678 30.7780453,13.3077418 C31.1173414,13.6170377 31.5105207,13.8478493 31.9394819,14.0098815 C32.3848606,14.1782431 32.8525504,14.2592593 33.3286594,14.2592593 Z M37.4368363,2.79927576 C37.6250067,2.79927576 37.8068627,2.76594101 37.9798785,2.69209819 C38.1495265,2.61994321 38.3002312,2.51698522 38.4303088,2.38575598 C38.7014089,2.11148265 38.8441153,1.79079384 38.8441153,1.40343551 C38.8441153,1.01101368 38.7073023,0.684417439 38.4307297,0.4071904 C38.3010731,0.277227039 38.1499475,0.17511297 37.984509,0.105489741 C37.8089675,0.0362884709 37.6254277,0.000421958964 37.4368363,0.000421958964 C37.0520762,0.000421958964 36.725409,0.134604909 36.453888,0.4071904 C36.1768944,0.684839398 36.0295574,1.00932584 36.0295574,1.40343551 C36.0295574,1.5865657 36.0712327,1.76463239 36.1419545,1.92961834 C36.2194116,2.10135564 36.3212847,2.25199499 36.453888,2.38491206 C36.726251,2.65791951 37.0508133,2.79927576 37.4368363,2.79927576 Z M37.4368363,14.2592593 C37.6090101,14.2592593 37.7748695,14.2276123 37.9348354,14.1558793 C38.0889078,14.0904757 38.2261417,13.9972227 38.3440114,13.8790742 C38.4631439,13.7592379 38.5553347,13.6178816 38.6218469,13.4583811 C38.6900429,13.305632 38.7237199,13.140646 38.7237199,12.9731283 L38.7237199,5.32723192 C38.7237199,5.15422874 38.6955154,4.98544516 38.6294242,4.82214704 C38.5709104,4.66897593 38.4825081,4.53352711 38.3667434,4.41748839 C38.2476109,4.298074 38.1065883,4.20608695 37.9483062,4.13983939 C37.791708,4.07148204 37.6296373,4.03730336 37.4591474,4.03730336 C37.2802381,4.03730336 37.1101691,4.07274792 36.9447307,4.14110527 C36.7881325,4.20566499 36.6416374,4.29680813 36.5182953,4.42086406 C36.3924274,4.53985649 36.2960269,4.6816347 36.2248842,4.83860344 C36.1554253,4.99304042 36.1196434,5.15844833 36.1196434,5.32723192 L36.1196434,12.9731283 C36.1196434,13.1398021 36.1562672,13.305632 36.2248842,13.4575372 C36.2956059,13.6149279 36.3924274,13.7567061 36.521663,13.8790742 C36.6403745,13.9980667 36.7818181,14.0900537 36.9354695,14.1563013 C37.0945935,14.2250806 37.2633996,14.2592593 37.4368363,14.2592593 Z M45.6902348,14.2592593 C46.3856655,14.2592593 47.0541546,14.1250763 47.6944392,13.8537567 C48.3237787,13.5870786 48.8815545,13.2119571 49.363978,12.7283921 C49.8480853,12.2431393 50.2248471,11.6865755 50.4913166,11.0544809 C50.7611538,10.4135253 50.8916523,9.74092268 50.8916523,9.0455343 C50.8916523,8.34761418 50.759049,7.6729018 50.487528,7.02941438 C50.2202165,6.39605397 49.8468224,5.83147288 49.363978,5.34326636 C48.8832384,4.85801355 48.3233577,4.48457987 47.6944392,4.21832376 C47.0541546,3.94700415 46.3852446,3.81324315 45.6902348,3.81324315 C45.2381207,3.81324315 44.7944258,3.92168661 44.3751467,4.08751648 C44.0160654,4.23013861 43.6148877,4.43394479 43.362731,4.73691133 L43.0630054,5.09642036 L43.0630054,1.3582859 C43.0630054,1.17262396 43.033117,0.988227893 42.9682887,0.813958841 C42.9080911,0.653614435 42.8205308,0.505506838 42.7064498,0.383982657 C42.5856335,0.263724352 42.4429271,0.173003175 42.2867498,0.107599536 C42.1229953,0.0392421836 41.9533472,0.00421958964 41.7761218,0.00421958964 C41.6014222,0.00421958964 41.4317742,0.0379763067 41.2680196,0.108021495 C41.1110005,0.172581216 40.9695569,0.263724352 40.8529502,0.381028944 C40.7329758,0.508038592 40.6407849,0.658255983 40.5738518,0.819866266 C40.50313,0.990759647 40.469874,1.17346788 40.469874,1.3582859 L40.469874,9.0455343 C40.469874,9.74387639 40.6016354,10.4156351 40.8744193,11.0578566 C41.1421517,11.6895292 41.5239651,12.2439832 42.0084933,12.7279702 C42.4938636,13.212801 43.0554281,13.5896104 43.6864514,13.8575543 C44.3246312,14.128452 44.9969089,14.2592593 45.6902348,14.2592593 Z M45.6902348,11.6490211 C45.3416775,11.6490211 45.0053282,11.5819296 44.6837125,11.4473247 C44.3705161,11.3160955 44.0901549,11.1308555 43.850206,10.8903389 C43.6081523,10.6472905 43.4161933,10.3675317 43.2802222,10.0527504 C43.1417255,9.73206154 43.0743714,9.39449437 43.0743714,9.0455343 C43.0743714,8.69657424 43.1417255,8.35900707 43.2802222,8.03831826 C43.4157723,7.72438079 43.6102572,7.44630983 43.8510479,7.1998858 C44.0918387,6.96316682 44.372621,6.77834879 44.6837125,6.64754151 C45.0053282,6.5129366 45.3416775,6.44584513 45.6902348,6.44584513 C46.0387921,6.44584513 46.3789301,6.5129366 46.7005458,6.64754151 C47.0112164,6.77792683 47.2924196,6.9623229 47.5306846,7.20115167 C47.7727383,7.44420004 47.9646973,7.72311491 48.0977216,8.04042805 C48.2320088,8.36069491 48.2989419,8.69784012 48.2989419,9.0455343 C48.2989419,9.39365045 48.2320088,9.7303737 48.0977216,10.0506406 C47.9642764,10.3683757 47.7731592,10.6464466 47.5306846,10.8903389 C47.2915777,11.1295896 47.0124793,11.3165174 46.7005458,11.4473247 C46.3789301,11.5819296 46.0387921,11.6490211 45.6902348,11.6490211 Z M53.6784267,14.2592593 C54.0303517,14.2592593 54.3258676,14.138157 54.5750776,13.8900452 C54.6921053,13.7740065 54.7821914,13.6415113 54.8461778,13.4938257 C54.9126899,13.3296837 54.9434202,13.1575244 54.9434202,12.9807236 L54.9434202,9.38521127 C54.9509975,9.00671408 55.0297176,8.64340741 55.1787384,8.29571323 C55.3260755,7.95266059 55.535715,7.64547446 55.7971329,7.37964032 C56.0543413,7.1176038 56.3532249,6.90704628 56.6887323,6.75851672 C57.0318171,6.60703345 57.3913194,6.52897104 57.769765,6.52137578 L57.837961,6.52137578 C58.0168703,6.52137578 58.1957795,6.48972886 58.3624808,6.42390326 C58.5249725,6.3597655 58.6739933,6.26988824 58.7977564,6.15258365 C59.0549648,5.89476672 59.188831,5.58884647 59.188831,5.22385197 C59.188831,4.86603077 59.0907466,4.54365412 58.8356431,4.28794699 C58.5683317,4.01958109 58.2063036,3.93392342 57.837961,3.93392342 L57.7508217,3.93392342 C57.0406573,3.94827002 56.3549088,4.09215803 55.7028372,4.37276074 C55.0633946,4.64787798 54.4934108,5.03059476 53.9970956,5.51880129 C53.4940449,6.01333719 53.1012866,6.58846726 52.8133479,7.23237664 C52.5237255,7.88050561 52.3721788,8.56365717 52.3502888,9.26832864 L52.3502888,12.9807236 C52.3502888,13.1533048 52.3827029,13.3182908 52.4551085,13.4752595 C52.5270932,13.6313843 52.6293872,13.7689429 52.7514664,13.8896232 C52.8722827,14.0090376 53.0133053,14.0984929 53.1677987,14.1613648 C53.3328162,14.2255025 53.5012013,14.2592593 53.6784267,14.2592593 Z M64.7910052,11.6490211 C64.4458156,11.6490211 64.1103082,11.5806638 63.7920602,11.4473247 C63.4788638,11.3160955 63.1985025,11.1308555 62.9585537,10.8903389 C62.7160791,10.6472905 62.5266457,10.3675317 62.3885699,10.0535943 C62.2483893,9.73374937 62.1822981,9.39491633 62.1822981,9.0455343 C62.1822981,8.69615228 62.2479683,8.35774119 62.3885699,8.03747434 C62.5262248,7.72353687 62.7165,7.44377808 62.9585537,7.20115167 C63.1976606,6.96147898 63.4801267,6.77834879 63.7920602,6.64754151 C64.1103082,6.51420248 64.4458156,6.44584513 64.7910052,6.44584513 C65.1408253,6.44584513 65.4797004,6.51420248 65.8034209,6.64711955 C66.1183012,6.77666096 66.4011882,6.95979115 66.6424,7.20115167 C66.8836117,7.44377808 67.073045,7.72438079 67.2056483,8.04000609 C67.3403564,8.36069491 67.4072895,8.69784012 67.4072895,9.0455343 C67.4072895,9.39365045 67.3399355,9.7303737 67.2056483,10.0510625 C67.072624,10.3675317 66.8840327,10.6477125 66.6424,10.8903389 C66.4007673,11.1321214 66.119564,11.3177833 65.8034209,11.4473247 C65.4797004,11.5806638 65.1408253,11.6490211 64.7910052,11.6490211 L64.7910052,11.6490211 Z" id="Fill-12" fill="#033E8A" fill-rule="nonzero"></path>
            <g id="Fill-13-Clipped">
                <mask id="mask-14" fill="white">
                    <use xlink:href="#path-13"></use>
                </mask>
                <g id="path-1"></g>
                <path d="M1.30671832,14.2592593 L14.1385563,14.2592593 C14.8479905,14.2592593 15.5395827,14.1398555 16.1997388,13.8829053 C16.8301582,13.636925 17.394307,13.2782918 17.8832644,12.8129123 C18.3875149,12.3327657 18.7664463,11.7619059 19.0323779,11.1201632 C19.3208245,10.4231489 19.4444444,9.68816165 19.4444444,8.93671945 L19.4444444,5.31114793 C19.4444444,4.56139341 19.3212493,3.82303078 19.0323779,3.12812605 C18.7651718,2.48511768 18.3875149,1.91341404 17.8828396,1.43115775 C17.3955815,0.965356409 16.8318574,0.610520421 16.2005884,0.370025162 C15.5391579,0.118138022 14.8458665,0 14.1385563,0 L7.92102401,0 C7.74685154,0 7.57310389,0.0337537206 7.41422461,0.0957761821 C7.25959344,0.161174016 7.11643217,0.251043297 6.99748512,0.369181319 C6.87726364,0.488163184 6.78210599,0.62697536 6.71413625,0.78097671 C6.64531688,0.938353432 6.61430569,1.10712204 6.61430569,1.27842217 L6.61430569,6.30477308 C6.61430569,7.01950812 7.20309359,7.60429133 7.92272326,7.60429133 C8.64235292,7.60429133 9.23114082,7.01993004 9.23114082,6.30477308 L9.23114082,2.61000644 L14.1385563,2.61000644 C14.8114568,2.61000644 15.473737,2.76400779 15.9877582,3.21461996 C16.596937,3.74792875 16.8055191,4.50274633 16.8055191,5.28878609 L16.8055191,8.95950321 C16.8055191,9.74554297 16.5939633,10.4931879 15.9886078,11.0290282 C15.4703385,11.4880788 14.8237763,11.6606447 14.1385563,11.6606447 L9.58288425,11.6606447 L2.98387175,5.106516 L2.44903483,5.63771518 L7.57182945,10.7256666 L1.29779729,7.12794194 L0.919715595,7.77854491 L7.19374775,11.3762696 L0.195837824,9.51390807 L0,10.2396131 L5.33944818,11.6606447 L0,11.6606447 L0,12.9808371 C0,13.1529811 0.0322856283,13.3209058 0.0989809393,13.4761729 C0.169499548,13.6305962 0.264232379,13.7706742 0.384029052,13.8913437 C0.501701671,14.0099036 0.645712566,14.0985072 0.796095624,14.1617954 C0.958798198,14.2259275 1.13127142,14.2592593 1.30671832,14.2592593" id="Fill-13" fill="url(#linearGradient-15)" fill-rule="nonzero" mask="url(#mask-14)"></path>
            </g>
        </g>
    </g>
</svg>