<?xml version="1.0" encoding="UTF-8"?>
<svg width="800px" height="603px" viewBox="0 0 800 603" version="1.1" xmlns="http://www.w3.org/2000/svg" xmlns:xlink="http://www.w3.org/1999/xlink">
    <title>2041-10-14-12-10_KeyActionsToLaunchGitProjectfromScratch</title>
    <defs>
        <path d="M8.68744595,14.5405413 C10.6544909,13.5649687 12,11.5915112 12,9.31636202 C12,6.07252388 9.26504479,3.44227578 5.89152197,3.44227578 C4.52034181,3.44227578 3.25480793,3.87689217 2.23537065,4.61058921 L2.23537065,1.05770107 C2.23537065,0.476155373 1.74046224,0 1.11695169,0 C0.493934821,0 0.0167986821,0.476630104 0.0167986821,1.05770107 L0.0167986821,1.80184219 L0,9.32158406 C-0.0041824725,11.2003327 0.951817666,12.865215 2.41753644,13.8939574 C2.4777647,13.9362085 2.55848043,13.9312238 2.6127846,13.8823265 C2.66758244,13.8334292 2.6779496,13.7558106 2.63746831,13.6950451 C0.724974359,10.8146136 1.16014819,5.53963813 5.89176881,5.53963813 C8.05899866,5.53963813 9.80709909,7.22944376 9.81623206,9.31351363 C9.82240299,10.8599505 9.11620201,12.0365717 8.19549958,12.7781018 C6.36026565,14.2561773 3.64974731,12.6382934 4.49738595,10.4697214 C4.5894562,10.2335427 4.71879884,9.9959397 4.88664808,9.76189723 L5.12361171,9.47705853 C5.19766284,9.39967734 5.25048599,9.29903433 5.2146946,9.19411874 C5.01401603,8.62800181 3.46832203,8.97526767 3.04005964,10.0315445 C3.34292878,9.79631524 3.65986763,9.66433998 3.96940137,9.71489885 C2.38890334,11.275815 3.44141679,13.9563846 5.46005069,14.7513219 C6.40494316,15.1232738 7.55964718,15.0976383 8.68744595,14.5405413" id="path-1"></path>
        <linearGradient x1="28.568518%" y1="104.445731%" x2="78.3472072%" y2="20.6880271%" id="linearGradient-3">
            <stop stop-color="#000F98" offset="0%"></stop>
            <stop stop-color="#00A5FD" offset="100%"></stop>
        </linearGradient>
        <linearGradient x1="78.2562717%" y1="0%" x2="21.7437283%" y2="100%" id="linearGradient-4">
            <stop stop-color="#00A5FF" offset="0.0491695804%"></stop>
            <stop stop-color="#0755C2" offset="100%"></stop>
        </linearGradient>
        <linearGradient x1="1.18752487e-05%" y1="49.9999884%" x2="100.000032%" y2="49.9999884%" id="linearGradient-5">
            <stop stop-color="#FCD635" offset="0%"></stop>
            <stop stop-color="#F7A928" offset="100%"></stop>
        </linearGradient>
        <linearGradient x1="79.5857988%" y1="0%" x2="20.4142012%" y2="100%" id="linearGradient-6">
            <stop stop-color="#00C6FF" offset="0.0491695804%"></stop>
            <stop stop-color="#079DC2" offset="100%"></stop>
        </linearGradient>
        <linearGradient x1="79.5857988%" y1="0%" x2="20.4142012%" y2="100%" id="linearGradient-7">
            <stop stop-color="#00C6FF" offset="0.0491695804%"></stop>
            <stop stop-color="#079DC2" offset="100%"></stop>
        </linearGradient>
        <linearGradient x1="79.5857988%" y1="0%" x2="20.4142012%" y2="100%" id="linearGradient-8">
            <stop stop-color="#00A5FF" offset="0.0491695804%"></stop>
            <stop stop-color="#0755C2" offset="100%"></stop>
        </linearGradient>
        <path d="M35.0274575,225 L65.8918919,225 C66.4441766,225 66.8918919,225.447715 66.8918919,226 L66.8918919,243.073171 C66.8918919,243.625455 67.3396071,244.073171 67.8918919,244.073171 L80.1825469,244.073171 C80.7348316,244.073171 81.1825469,244.520886 81.1825469,245.073171 C81.1825469,245.471582 80.9460495,245.831982 80.5805543,245.990553 L51.0036082,258.822549 C50.7432834,258.935491 50.4472327,258.932515 50.189231,258.814362 L22.1689663,245.982366 C21.6668316,245.752411 21.4461861,245.158936 21.6761408,244.656801 C21.8389921,244.301195 22.1942142,244.073171 22.5853361,244.073171 L33.0274575,244.073171 C33.5797423,244.073171 34.0274575,243.625455 34.0274575,243.073171 L34.0274575,226 C34.0274575,225.447715 34.4751728,225 35.0274575,225 Z" id="path-9"></path>
        <filter x="2.4%" y="-5.9%" width="100.9%" height="123.3%" filterUnits="objectBoundingBox" id="filter-10">
            <feOffset dx="2" dy="2" in="SourceAlpha" result="shadowOffsetOuter1"></feOffset>
            <feGaussianBlur stdDeviation="1" in="shadowOffsetOuter1" result="shadowBlurOuter1"></feGaussianBlur>
            <feColorMatrix values="0 0 0 0 0   0 0 0 0 0   0 0 0 0 0  0 0 0 0.5 0" type="matrix" in="shadowBlurOuter1"></feColorMatrix>
        </filter>
        <path d="M35.0274575,327 L65.8918919,327 C66.4441766,327 66.8918919,327.447715 66.8918919,328 L66.8918919,345.073171 C66.8918919,345.625455 67.3396071,346.073171 67.8918919,346.073171 L80.1825469,346.073171 C80.7348316,346.073171 81.1825469,346.520886 81.1825469,347.073171 C81.1825469,347.471582 80.9460495,347.831982 80.5805543,347.990553 L51.0036082,360.822549 C50.7432834,360.935491 50.4472327,360.932515 50.189231,360.814362 L22.1689663,347.982366 C21.6668316,347.752411 21.4461861,347.158936 21.6761408,346.656801 C21.8389921,346.301195 22.1942142,346.073171 22.5853361,346.073171 L33.0274575,346.073171 C33.5797423,346.073171 34.0274575,345.625455 34.0274575,345.073171 L34.0274575,328 C34.0274575,327.447715 34.4751728,327 35.0274575,327 Z" id="path-11"></path>
        <filter x="2.4%" y="-5.9%" width="100.9%" height="123.3%" filterUnits="objectBoundingBox" id="filter-12">
            <feOffset dx="2" dy="2" in="SourceAlpha" result="shadowOffsetOuter1"></feOffset>
            <feGaussianBlur stdDeviation="1" in="shadowOffsetOuter1" result="shadowBlurOuter1"></feGaussianBlur>
            <feColorMatrix values="0 0 0 0 0   0 0 0 0 0   0 0 0 0 0  0 0 0 0.5 0" type="matrix" in="shadowBlurOuter1"></feColorMatrix>
        </filter>
        <path d="M35.0274575,429 L65.8918919,429 C66.4441766,429 66.8918919,429.447715 66.8918919,430 L66.8918919,447.073171 C66.8918919,447.625455 67.3396071,448.073171 67.8918919,448.073171 L80.1825469,448.073171 C80.7348316,448.073171 81.1825469,448.520886 81.1825469,449.073171 C81.1825469,449.471582 80.9460495,449.831982 80.5805543,449.990553 L51.0036082,462.822549 C50.7432834,462.935491 50.4472327,462.932515 50.189231,462.814362 L22.1689663,449.982366 C21.6668316,449.752411 21.4461861,449.158936 21.6761408,448.656801 C21.8389921,448.301195 22.1942142,448.073171 22.5853361,448.073171 L33.0274575,448.073171 C33.5797423,448.073171 34.0274575,447.625455 34.0274575,447.073171 L34.0274575,430 C34.0274575,429.447715 34.4751728,429 35.0274575,429 Z" id="path-13"></path>
        <filter x="2.4%" y="-5.9%" width="100.9%" height="123.3%" filterUnits="objectBoundingBox" id="filter-14">
            <feOffset dx="2" dy="2" in="SourceAlpha" result="shadowOffsetOuter1"></feOffset>
            <feGaussianBlur stdDeviation="1" in="shadowOffsetOuter1" result="shadowBlurOuter1"></feGaussianBlur>
            <feColorMatrix values="0 0 0 0 0   0 0 0 0 0   0 0 0 0 0  0 0 0 0.5 0" type="matrix" in="shadowBlurOuter1"></feColorMatrix>
        </filter>
    </defs>
    <g id="2041-10-14-12-10_KeyActionsToLaunchGitProjectfromScratch" stroke="none" stroke-width="1" fill="none" fill-rule="evenodd">
        <rect fill="#FFFFFF" x="0" y="0" width="800" height="603"></rect>
        <text id="Key-Actions-To-Launc" fill-rule="nonzero" font-family="Helvetica" font-size="18" font-weight="normal" fill="#0055C2">
            <tspan x="10" y="23">Key Actions To Launch Git Project from Scratch</tspan>
        </text>
        <g id="git" transform="translate(661.000000, 9.000000)">
            <path d="M46.8658496,11.2380575 C45.1623498,11.2380575 43.8939053,12.0891281 43.8939053,14.1376499 C43.8939053,15.6808485 44.7297841,16.7522856 46.7743573,16.7522856 C48.5071097,16.7522856 49.6846843,15.7131436 49.6846843,14.073693 C49.6846843,12.2157755 48.6309666,11.2380575 46.8658496,11.2380575 L46.8658496,11.2380575 Z M43.4607172,25.7011913 C43.0574041,26.2046147 42.6553359,26.7397 42.6553359,27.3710373 C42.6553359,28.6305458 44.2337339,29.0092215 46.4027864,29.0092215 C48.1984009,29.0092215 50.6450424,28.8813076 50.6450424,27.1823327 C50.6450424,26.1723196 49.4674678,26.1102624 47.9805621,26.0152768 L43.4607172,25.7011913 Z M52.6255087,11.3330431 C53.1825537,12.0580995 53.7719634,13.0662128 53.7719634,14.5156924 C53.7719634,18.0124273 51.0776081,20.0603158 47.1764255,20.0603158 C46.1843252,20.0603158 45.2862067,19.9349349 44.7291617,19.7772589 L43.7071863,21.4471049 L46.7413702,21.6351763 C52.0989611,21.9828234 55.257002,22.1404995 55.257002,26.3293624 C55.257002,29.9533779 52.1300809,32 46.7413702,32 C41.1360655,32 39,30.5505204 39,28.0625322 C39,26.6440812 39.6199071,25.8898959 40.7034998,24.848221 C39.680902,24.4087545 39.3410734,23.6216409 39.3410734,22.7705703 C39.3410734,22.0771758 39.6815244,21.4471049 40.2391918,20.8480627 C40.7968593,20.2502869 41.416144,19.6506115 42.1586633,18.9578502 C40.6412601,18.2017651 39.4960502,16.563581 39.4960502,14.231369 C39.4960502,10.6086199 41.8493321,8.12063165 46.5870158,8.12063165 C47.9189448,8.12063165 48.7249485,8.24537935 49.436348,8.43598369 L55.4754632,8.43598369 L55.4754632,11.1133099 L52.6255087,11.3330431 L52.6255087,11.3330431 Z M60.9233016,5.60858036 C59.1575621,5.60858036 58.1355867,4.56817192 58.1355867,2.77167847 C58.1355867,0.977717972 59.1575621,0 60.9233016,0 C62.7195385,0 63.7408917,0.977084735 63.7408917,2.77167847 C63.7415139,4.56817192 62.7195385,5.60858036 60.9233016,5.60858036 Z M56.9275147,24.5423675 L56.9275147,22.0543792 L58.50778,21.8340127 C58.9409681,21.770689 59.0025853,21.6763367 59.0025853,21.2026754 L59.0025853,11.9403174 C59.0025853,11.59457 58.9104706,11.372937 58.5998947,11.279218 L56.9275147,10.6801757 L57.2679657,8.12949697 L63.6792742,8.12949697 L63.6792742,21.2033087 C63.6792742,21.7086318 63.7091492,21.770689 64.174702,21.834646 L65.7543448,22.0550125 L65.7543448,24.5430008 L56.9275147,24.5430008 L56.9275147,24.5423675 Z M78,23.32022 C76.6674487,23.9806863 74.7174798,24.5803617 72.9511179,24.5803617 C69.2665294,24.5803617 67.8736056,23.0694582 67.8736056,19.5074999 L67.8736056,11.2532552 C67.8736056,11.0651838 67.8736056,10.9385364 67.6252693,10.9385364 L65.458084,10.9385364 L65.458084,8.13456287 C68.1841815,7.81857759 69.2671518,6.43242174 69.6076028,2.99837733 L72.5502944,2.99837733 L72.5502944,7.47346341 C72.5502944,7.69319666 72.5502944,7.78881545 72.7980083,7.78881545 L77.1641212,7.78881545 L77.1641212,10.9391697 L72.5502944,10.9391697 L72.5502944,18.4683579 C72.5502944,20.3269086 72.9841049,21.0513318 74.6558625,21.0513318 C75.5241059,21.0513318 76.4209796,20.8315985 77.1641212,20.5479083 L78,23.32022 L78,23.32022 Z" id="Shape" fill="#31251C" fill-rule="nonzero"></path>
            <path d="M32.3772539,15.0299695 L17.9690664,0.622277028 C17.140005,-0.207425676 15.7941261,-0.207425676 14.9644314,0.622277028 L11.9724635,3.61427365 L15.7668919,7.40937182 C16.6497884,7.11169223 17.6606226,7.31120089 18.3636464,8.01486479 C19.0704703,8.72232885 19.2687104,9.74203981 18.9634334,10.6274783 L22.6210571,14.2851371 C23.5052204,13.9804906 24.5268216,14.1774658 25.2336455,14.8849299 C26.221679,15.8723394 26.221679,17.4728423 25.2336455,18.4608852 C24.2449787,19.4489281 22.6451246,19.4489281 21.6570912,18.4608852 C20.914166,17.7173195 20.7304932,16.6260388 21.1067059,15.7108324 L17.6954571,12.2995509 L17.6948238,21.2768075 C17.9361319,21.3958793 18.1628729,21.5542195 18.3636464,21.7543616 C19.3516798,22.7417711 19.3516798,24.3416406 18.3636464,25.3309502 C17.375613,26.3183598 15.7744921,26.3183598 14.7877254,25.3309502 C13.799692,24.3416406 13.799692,22.7417711 14.7877254,21.7543616 C15.0322003,21.5105176 15.3140432,21.3262096 15.6155201,21.2027043 L15.6155201,12.1424774 C15.3140432,12.0196054 15.0322003,11.8359308 14.7877254,11.5908201 C14.0391001,10.842821 13.8592273,9.74520661 14.2430403,8.82620003 L10.5024471,5.08430417 L0.622746073,14.9634666 C-0.207582024,15.7938027 -0.207582024,17.1396945 0.622746073,17.9700305 L15.0309336,32.377723 C15.8606284,33.2074257 17.2058739,33.2074257 18.0368353,32.377723 L32.3772539,18.0359 C33.207582,17.2061973 33.207582,15.8596722 32.3772539,15.0299695 L32.3772539,15.0299695 Z" id="Path" fill="#F34F29" fill-rule="nonzero"></path>
            <polygon id="Path" points="1.12409637e-15 0 79 0 79 33 0 33"></polygon>
        </g>
        <g id="github-copy" transform="translate(748.000000, 3.000000)" fill="#000000" fill-rule="nonzero">
            <path d="M22.9998956,0 C11.7204239,0.000469179946 2.10590223,8.20619911 0.299077857,19.3745239 C-1.50774651,30.5428487 5.02642435,41.3773525 15.7268887,44.9558377 C16.8767785,45.1577383 17.3079872,44.4656891 17.3079872,43.8600567 C17.3079872,43.3121892 17.279217,41.4954764 17.279217,39.5634644 C11.5009978,40.6303861 10.0061411,38.1505528 9.54618516,36.8529173 C9.03580825,35.5908656 8.22674528,34.472458 7.1889111,33.5943411 C6.38398825,33.161796 5.23409847,32.0948512 7.16014086,32.066061 C8.65271236,32.2285228 9.97246422,33.1110528 10.6960749,34.4305721 C11.3313462,35.5753322 12.3946869,36.4194146 13.6513665,36.7764896 C14.9080461,37.1335647 16.2547288,36.9742705 17.3941369,36.3337708 C17.4936968,35.160991 18.0147545,34.0644705 18.8602924,33.2483742 C13.7432829,32.6716473 8.39629538,30.6818473 8.39629538,21.8580182 C8.36397821,19.5652878 9.20739391,17.3470389 10.7535694,15.6582042 C10.0504849,13.6655423 10.1327507,11.4787423 10.9835474,9.54489918 C10.9835474,9.54489918 12.9095438,8.93931288 17.3079412,11.9094794 C21.0710431,10.8713094 25.0437372,10.8713094 28.806839,11.9094794 C33.2051215,8.9104996 35.1312329,9.54489918 35.1312329,9.54489918 C35.982145,11.4787155 36.0644125,13.6655602 35.3612108,15.6582042 C36.9120423,17.3441484 37.7561944,19.564334 37.7184849,21.8580182 C37.7184849,30.7107067 32.3427041,32.6716473 27.2257406,33.2483742 C28.336287,34.3774629 28.9028084,35.9349635 28.7780918,37.5161532 C28.7780918,40.6016882 28.7493216,43.0815215 28.7493216,43.8601489 C28.7493216,44.4657352 29.1805302,45.1866208 30.33042,44.95593 C41.0111617,41.3485442 47.5153422,30.5121007 45.6961446,19.3555019 C43.876947,8.19890308 34.2698179,0.00588375885 22.9998956,0 Z" id="Path"></path>
        </g>
        <text id="Create-Local-Reposit" font-family="Helvetica-Bold, Helvetica" font-size="18" font-weight="bold" fill="#0055C2">
            <tspan x="183" y="197">Create Local Repository</tspan>
        </text>
        <text id="$-git-init" font-family="Helvetica" font-size="16" font-weight="normal" fill="#0055C2">
            <tspan x="592" y="184">$ git init</tspan>
        </text>
        <text id="$-git-add-$-git-comm" font-family="Helvetica" font-size="16" font-weight="normal" fill="#0055C2">
            <tspan x="592" y="273">$ git add</tspan>
            <tspan x="592" y="292">$ git commit</tspan>
            <tspan x="592" y="311">$ git status</tspan>
            <tspan x="592" y="330">$ git log</tspan>
        </text>
        <text id="(-Operations-on-GitH" font-family="Helvetica" font-size="16" font-weight="normal" fill="#0055C2">
            <tspan x="580" y="392">( Operations on </tspan>
            <tspan x="580" y="411">GitHub website )</tspan>
        </text>
        <text id="$-git-remote-add-$-g" font-family="Helvetica" font-size="16" font-weight="normal" fill="#0055C2">
            <tspan x="592" y="481">$ git remote add</tspan>
            <tspan x="592" y="500">$ git push</tspan>
        </text>
        <text id="Platform" font-family="Helvetica-Bold, Helvetica" font-size="16" font-weight="bold" fill="#0055C2">
            <tspan x="709" y="132">Platform</tspan>
        </text>
        <text id="Key-Commands" font-family="Helvetica-Bold, Helvetica" font-size="16" font-weight="bold" fill="#0055C2">
            <tspan x="574" y="132">Key Commands</tspan>
        </text>
        <text id="Set-Up-Remote-Reposi" font-family="Helvetica-Bold, Helvetica" font-size="18" font-weight="bold" fill="#0055C2">
            <tspan x="183" y="382">Set Up Remote Repository</tspan>
            <tspan x="183" y="404" font-family="Helvetica" font-weight="normal">— Create new repository</tspan>
            <tspan x="183" y="426" font-family="Helvetica" font-weight="normal">— Invite collaborators</tspan>
        </text>
        <text id="Start-sharing-projec" font-family="Helvetica-Bold, Helvetica" font-size="18" font-weight="bold" fill="#0055C2">
            <tspan x="183" y="485">Start sharing project files</tspan>
            <tspan x="183" y="507" font-family="Helvetica" font-weight="normal">— Link between Remote and Local Repositories</tspan>
            <tspan x="183" y="529" font-family="Helvetica" font-weight="normal">— Upload project files</tspan>
        </text>
        <text id="Work-with-the-Local" font-family="Helvetica-Bold, Helvetica" font-size="18" font-weight="bold" fill="#0055C2">
            <tspan x="183" y="279">Work with the Local Repository</tspan>
            <tspan x="183" y="301" font-family="Helvetica" font-weight="normal">— Edit project files and make a commit</tspan>
            <tspan x="183" y="323" font-family="Helvetica" font-weight="normal">— Utilize .gitignore file</tspan>
        </text>
        <g id="git-copy-6" transform="translate(716.000000, 474.000000)">
            <path d="M25.6388344,6.32140737 C24.6342063,6.32140737 23.8861493,6.80013456 23.8861493,7.95242807 C23.8861493,8.8204773 24.3791034,9.42316064 25.5848774,9.42316064 C26.606757,9.42316064 27.301224,8.83864329 27.301224,7.91645229 C27.301224,6.87137373 26.6798008,6.32140737 25.6388344,6.32140737 L25.6388344,6.32140737 Z M23.6306794,14.4569201 C23.3928281,14.7400958 23.1557109,15.0410813 23.1557109,15.3962085 C23.1557109,16.104682 24.086561,16.3176871 25.3657458,16.3176871 C26.424698,16.3176871 27.8675891,16.2457355 27.8675891,15.2900621 C27.8675891,14.7219298 27.173122,14.6870226 26.2962289,14.6335932 L23.6306794,14.4569201 Z M29.0355564,6.37483674 C29.3640702,6.78268097 29.7116707,7.34974473 29.7116707,8.16507698 C29.7116707,10.1319903 28.1226919,11.2839277 25.8219945,11.2839277 C25.2369097,11.2839277 24.7072501,11.2134009 24.3787364,11.1247081 L23.7760329,12.0639965 L25.5654235,12.1697867 C28.7250283,12.3653382 30.5874627,12.4540309 30.5874627,14.8102664 C30.5874627,16.8487751 28.7433811,18 25.5654235,18 C22.2597309,18 21,17.1846677 21,15.7851743 C21,14.9872957 21.3655862,14.5630665 22.0046281,13.9771243 C21.4015576,13.7299244 21.2011458,13.287173 21.2011458,12.8084458 C21.2011458,12.4184114 21.4019246,12.0639965 21.7308054,11.7270353 C22.0596862,11.3907864 22.4249054,11.053469 22.8628014,10.6637907 C21.9679226,10.2384929 21.2925424,9.31701429 21.2925424,8.00514505 C21.2925424,5.96734872 22.6803754,4.56785531 25.474394,4.56785531 C26.2598905,4.56785531 26.7352261,4.63802588 27.1547693,4.74524083 L30.7162988,4.74524083 L30.7162988,6.25123679 L29.0355564,6.37483674 L29.0355564,6.37483674 Z M33.9291266,3.15482645 C32.887793,3.15482645 32.2850896,2.56959671 32.2850896,1.55906914 C32.2850896,0.549966359 32.887793,0 33.9291266,0 C34.9884458,0 35.5907823,0.549610163 35.5907823,1.55906914 C35.5911492,2.56959671 34.9884458,3.15482645 33.9291266,3.15482645 Z M31.5726369,13.8050817 L31.5726369,12.4055883 L32.5045882,12.2816322 C32.7600581,12.2460126 32.7963965,12.1929394 32.7963965,11.9265049 L32.7963965,6.71642854 C32.7963965,6.52194562 32.7420724,6.39727708 32.5589122,6.3445601 L31.5726369,6.00759884 L31.7734157,4.57284205 L35.5544438,4.57284205 L35.5544438,11.9268611 C35.5544438,12.2111054 35.5720624,12.2460126 35.8466191,12.2819884 L36.7782033,12.4059445 L36.7782033,13.8054379 L31.5726369,13.8054379 L31.5726369,13.8050817 Z M44,13.1176238 C43.2141364,13.489136 42.0641547,13.8264535 41.0224542,13.8264535 C38.8494917,13.8264535 38.0280238,12.9765702 38.0280238,10.9729687 L38.0280238,6.32995607 C38.0280238,6.22416591 38.0280238,6.15292674 37.8815691,6.15292674 L36.6034854,6.15292674 L36.6034854,4.57569161 C38.211184,4.3979499 38.8498588,3.61823723 39.0506376,1.68658725 L40.7860711,1.68658725 L40.7860711,4.20382317 C40.7860711,4.32742312 40.7860711,4.38120869 40.9321588,4.38120869 L43.5070458,4.38120869 L43.5070458,6.15328294 L40.7860711,6.15328294 L40.7860711,10.3884513 C40.7860711,11.4338861 41.041908,11.8413741 42.0278163,11.8413741 C42.5398573,11.8413741 43.0687828,11.7177742 43.5070458,11.5581984 L44,13.1176238 L44,13.1176238 Z" id="Shape" fill="#31251C" fill-rule="nonzero"></path>
            <path d="M18.6414492,8.65361879 L10.3458261,0.358280713 C9.86848772,-0.119426904 9.09358776,-0.119426904 8.61588473,0.358280713 L6.89323654,2.08094544 L9.07790743,4.26600196 C9.58624181,4.09461068 10.1682373,4.2094793 10.5730085,4.61461912 C10.9799678,5.02194691 11.094106,5.60905322 10.9183404,6.11885112 L13.024245,8.22477592 C13.5333087,8.04937336 14.1215034,8.16278333 14.5284626,8.57011113 C15.0973303,9.13861966 15.0973303,10.0601213 14.5284626,10.6289945 C13.9592302,11.1978677 13.038102,11.1978677 12.4692343,10.6289945 C12.0414895,10.2008809 11.9357385,9.5725678 12.1523458,9.04563077 L10.1882935,7.0815596 L10.1879288,12.2502831 C10.3268638,12.3188396 10.4574117,12.4100052 10.5730085,12.5252385 C11.1418763,13.093747 11.1418763,14.014884 10.5730085,14.5844865 C10.0041408,15.152995 9.08228334,15.152995 8.51414492,14.5844865 C7.94527719,14.014884 7.94527719,13.093747 8.51414492,12.5252385 C8.65490322,12.3848435 8.81717639,12.2787268 8.99075398,12.2076176 L8.99075398,6.99112335 C8.81717639,6.92037886 8.65490322,6.8146268 8.51414492,6.67350249 C8.08311822,6.24283631 7.97955512,5.61087653 8.20053835,5.08175153 L6.04686345,2.92732664 L0.358550769,8.61532925 C-0.119516923,9.09340153 -0.119516923,9.86830893 0.358550769,10.3463812 L8.6541739,18.6417193 C9.13187694,19.1194269 9.90641224,19.1194269 10.3848446,18.6417193 L18.6414492,10.3843061 C19.1195169,9.90659847 19.1195169,9.13132641 18.6414492,8.65361879 L18.6414492,8.65361879 Z" id="Path" fill="#F34F29" fill-rule="nonzero"></path>
            <polygon id="Path" points="6.26078989e-16 0 44 0 44 19 0 19"></polygon>
        </g>
        <g id="git-copy-7" transform="translate(715.000000, 285.000000)">
            <path d="M26.8405228,6.67259667 C25.7922153,6.67259667 25.011634,7.17791982 25.011634,8.39422963 C25.011634,9.31050382 25.526021,9.94666957 26.7842198,9.94666957 C27.850529,9.94666957 28.5751903,9.32967903 28.5751903,8.35625519 C28.5751903,7.25311671 27.9267487,6.67259667 26.8405228,6.67259667 L26.8405228,6.67259667 Z M24.7450567,15.2600823 C24.4968641,15.55899 24.2494374,15.8766969 24.2494374,16.2515534 C24.2494374,16.9993866 25.2207593,17.2242253 26.5555609,17.2242253 C27.6605544,17.2242253 29.1661799,17.1482764 29.1661799,16.13951 C29.1661799,15.5398148 28.4415186,15.5029683 27.5264997,15.4465706 L24.7450567,15.2600823 Z M30.3849284,6.72899434 C30.7277254,7.15949658 31.090439,7.75806388 31.090439,8.61869237 C31.090439,10.6948787 29.4323742,11.9108125 27.0316465,11.9108125 C26.4211232,11.9108125 25.8684349,11.8363676 25.525638,11.7427475 L24.89673,12.7342185 L26.7639201,12.8458859 C30.0608991,13.0523014 32.0043089,13.1459216 32.0043089,15.6330589 C32.0043089,17.7848181 30.0800498,19 26.7639201,19 C23.3145018,19 22,18.1393715 22,16.6621285 C22,15.8199232 22.3814813,15.3721257 23.0483076,14.7536312 C22.4190166,14.492698 22.2098913,14.0253493 22.2098913,13.5200261 C22.2098913,13.1083231 22.4193996,12.7342185 22.7625796,12.3785372 C23.1057596,12.0236079 23.4868579,11.6675506 23.9437928,11.2562235 C23.0100062,10.8072981 22.3052616,9.83462619 22.3052616,8.44987533 C22.3052616,6.29886809 23.7534352,4.82162504 26.6689328,4.82162504 C27.4885814,4.82162504 27.9845837,4.89569399 28.422368,5.00886532 L32.1387466,5.00886532 L32.1387466,6.59852772 L30.3849284,6.72899434 L30.3849284,6.72899434 Z M35.4912625,3.33009459 C34.4046536,3.33009459 33.7757457,2.71235208 33.7757457,1.64568409 C33.7757457,0.580520046 34.4046536,0 35.4912625,0 C36.5966391,0 37.2251642,0.580144061 37.2251642,1.64568409 C37.225547,2.71235208 36.5966391,3.33009459 35.4912625,3.33009459 Z M33.0323168,14.5720307 L33.0323168,13.0947877 L34.0047877,12.9639451 C34.271365,12.9263466 34.3092833,12.8703249 34.3092833,12.5890885 L34.3092833,7.08956346 C34.3092833,6.88427593 34.2525973,6.75268136 34.0614736,6.69703566 L33.0323168,6.34135434 L33.2418251,4.82688883 L37.1872457,4.82688883 L37.1872457,12.5894645 C37.1872457,12.8895001 37.2056303,12.9263466 37.4921243,12.9643211 L38.4642122,13.0951637 L38.4642122,14.5724067 L33.0323168,14.5724067 L33.0323168,14.5720307 Z M46,13.8463807 C45.1799684,14.2385325 43.9799876,14.5945898 42.8929956,14.5945898 C40.6255566,14.5945898 39.7683727,13.6974908 39.7683727,11.5825781 L39.7683727,6.6816203 C39.7683727,6.5699529 39.7683727,6.49475601 39.6155503,6.49475601 L38.2818978,6.49475601 L38.2818978,4.8298967 C39.9594963,4.64228044 40.6259396,3.81925041 40.8354479,1.78028654 L42.646335,1.78028654 L42.646335,4.4373689 C42.646335,4.56783552 42.646335,4.62460917 42.7987744,4.62460917 L45.4856131,4.62460917 L45.4856131,6.49513199 L42.646335,6.49513199 L42.646335,10.9655875 C42.646335,12.069102 42.9132954,12.4992282 43.9420692,12.4992282 C44.4763729,12.4992282 45.0282951,12.3687616 45.4856131,12.2003206 L46,13.8463807 L46,13.8463807 Z" id="Shape" fill="#31251C" fill-rule="nonzero"></path>
            <path d="M19.6225781,10.1090724 L10.8903433,1.37713759 C10.3878818,0.874287469 9.57219765,0.874287469 9.06935235,1.37713759 L7.25603846,3.19046888 L9.55569204,5.49052838 C10.0907808,5.3101165 10.7034076,5.43103084 11.1294827,5.85749381 C11.5578608,6.28625991 11.6780063,6.90426655 11.4929899,7.44089592 L13.7097316,9.65765887 C14.2455881,9.47302459 14.8647404,9.59240351 15.2931185,10.0211696 C15.8919266,10.6195996 15.8919266,11.5896014 15.2931185,12.1884153 C14.6939265,12.7872291 13.7243179,12.7872291 13.1255098,12.1884153 C12.6752521,11.7377694 12.5639352,11.0763872 12.791943,10.5217166 L10.7245195,8.45427327 L10.7241356,13.8950348 C10.870383,13.9671996 11.0078018,14.0631633 11.1294827,14.1844615 C11.7282908,14.7828916 11.7282908,15.7525095 11.1294827,16.3520911 C10.5306745,16.9505211 9.56029825,16.9505211 8.96225781,16.3520911 C8.36344967,15.7525095 8.36344967,14.7828916 8.96225781,14.1844615 C9.11042444,14.0366774 9.2812383,13.9249755 9.46395156,13.8501238 L9.46395156,8.35907721 C9.2812383,8.28460933 9.11042444,8.17329137 8.96225781,8.02473946 C8.50854549,7.57140664 8.3995317,6.90618582 8.63214563,6.34921214 L6.36511943,4.08139646 L0.377421862,10.0687676 C-0.125807287,10.5720016 -0.125807287,11.3876936 0.377421862,11.8909276 L9.10965674,20.6228624 C9.61250204,21.1257125 10.4278024,21.1257125 10.9314154,20.6228624 L19.6225781,11.9308485 C20.1258073,11.4279984 20.1258073,10.6119225 19.6225781,10.1090724 L19.6225781,10.1090724 Z" id="Path" fill="#F34F29" fill-rule="nonzero"></path>
            <polygon id="Path" points="6.54537124e-16 1 46 1 46 21 0 21"></polygon>
        </g>
        <g id="git-copy-8" transform="translate(715.000000, 183.000000)">
            <path d="M26.8405228,6.67259667 C25.7922153,6.67259667 25.011634,7.17791982 25.011634,8.39422963 C25.011634,9.31050382 25.526021,9.94666957 26.7842198,9.94666957 C27.850529,9.94666957 28.5751903,9.32967903 28.5751903,8.35625519 C28.5751903,7.25311671 27.9267487,6.67259667 26.8405228,6.67259667 L26.8405228,6.67259667 Z M24.7450567,15.2600823 C24.4968641,15.55899 24.2494374,15.8766969 24.2494374,16.2515534 C24.2494374,16.9993866 25.2207593,17.2242253 26.5555609,17.2242253 C27.6605544,17.2242253 29.1661799,17.1482764 29.1661799,16.13951 C29.1661799,15.5398148 28.4415186,15.5029683 27.5264997,15.4465706 L24.7450567,15.2600823 Z M30.3849284,6.72899434 C30.7277254,7.15949658 31.090439,7.75806388 31.090439,8.61869237 C31.090439,10.6948787 29.4323742,11.9108125 27.0316465,11.9108125 C26.4211232,11.9108125 25.8684349,11.8363676 25.525638,11.7427475 L24.89673,12.7342185 L26.7639201,12.8458859 C30.0608991,13.0523014 32.0043089,13.1459216 32.0043089,15.6330589 C32.0043089,17.7848181 30.0800498,19 26.7639201,19 C23.3145018,19 22,18.1393715 22,16.6621285 C22,15.8199232 22.3814813,15.3721257 23.0483076,14.7536312 C22.4190166,14.492698 22.2098913,14.0253493 22.2098913,13.5200261 C22.2098913,13.1083231 22.4193996,12.7342185 22.7625796,12.3785372 C23.1057596,12.0236079 23.4868579,11.6675506 23.9437928,11.2562235 C23.0100062,10.8072981 22.3052616,9.83462619 22.3052616,8.44987533 C22.3052616,6.29886809 23.7534352,4.82162504 26.6689328,4.82162504 C27.4885814,4.82162504 27.9845837,4.89569399 28.422368,5.00886532 L32.1387466,5.00886532 L32.1387466,6.59852772 L30.3849284,6.72899434 L30.3849284,6.72899434 Z M35.4912625,3.33009459 C34.4046536,3.33009459 33.7757457,2.71235208 33.7757457,1.64568409 C33.7757457,0.580520046 34.4046536,0 35.4912625,0 C36.5966391,0 37.2251642,0.580144061 37.2251642,1.64568409 C37.225547,2.71235208 36.5966391,3.33009459 35.4912625,3.33009459 Z M33.0323168,14.5720307 L33.0323168,13.0947877 L34.0047877,12.9639451 C34.271365,12.9263466 34.3092833,12.8703249 34.3092833,12.5890885 L34.3092833,7.08956346 C34.3092833,6.88427593 34.2525973,6.75268136 34.0614736,6.69703566 L33.0323168,6.34135434 L33.2418251,4.82688883 L37.1872457,4.82688883 L37.1872457,12.5894645 C37.1872457,12.8895001 37.2056303,12.9263466 37.4921243,12.9643211 L38.4642122,13.0951637 L38.4642122,14.5724067 L33.0323168,14.5724067 L33.0323168,14.5720307 Z M46,13.8463807 C45.1799684,14.2385325 43.9799876,14.5945898 42.8929956,14.5945898 C40.6255566,14.5945898 39.7683727,13.6974908 39.7683727,11.5825781 L39.7683727,6.6816203 C39.7683727,6.5699529 39.7683727,6.49475601 39.6155503,6.49475601 L38.2818978,6.49475601 L38.2818978,4.8298967 C39.9594963,4.64228044 40.6259396,3.81925041 40.8354479,1.78028654 L42.646335,1.78028654 L42.646335,4.4373689 C42.646335,4.56783552 42.646335,4.62460917 42.7987744,4.62460917 L45.4856131,4.62460917 L45.4856131,6.49513199 L42.646335,6.49513199 L42.646335,10.9655875 C42.646335,12.069102 42.9132954,12.4992282 43.9420692,12.4992282 C44.4763729,12.4992282 45.0282951,12.3687616 45.4856131,12.2003206 L46,13.8463807 L46,13.8463807 Z" id="Shape" fill="#31251C" fill-rule="nonzero"></path>
            <path d="M19.6225781,10.1090724 L10.8903433,1.37713759 C10.3878818,0.874287469 9.57219765,0.874287469 9.06935235,1.37713759 L7.25603846,3.19046888 L9.55569204,5.49052838 C10.0907808,5.3101165 10.7034076,5.43103084 11.1294827,5.85749381 C11.5578608,6.28625991 11.6780063,6.90426655 11.4929899,7.44089592 L13.7097316,9.65765887 C14.2455881,9.47302459 14.8647404,9.59240351 15.2931185,10.0211696 C15.8919266,10.6195996 15.8919266,11.5896014 15.2931185,12.1884153 C14.6939265,12.7872291 13.7243179,12.7872291 13.1255098,12.1884153 C12.6752521,11.7377694 12.5639352,11.0763872 12.791943,10.5217166 L10.7245195,8.45427327 L10.7241356,13.8950348 C10.870383,13.9671996 11.0078018,14.0631633 11.1294827,14.1844615 C11.7282908,14.7828916 11.7282908,15.7525095 11.1294827,16.3520911 C10.5306745,16.9505211 9.56029825,16.9505211 8.96225781,16.3520911 C8.36344967,15.7525095 8.36344967,14.7828916 8.96225781,14.1844615 C9.11042444,14.0366774 9.2812383,13.9249755 9.46395156,13.8501238 L9.46395156,8.35907721 C9.2812383,8.28460933 9.11042444,8.17329137 8.96225781,8.02473946 C8.50854549,7.57140664 8.3995317,6.90618582 8.63214563,6.34921214 L6.36511943,4.08139646 L0.377421862,10.0687676 C-0.125807287,10.5720016 -0.125807287,11.3876936 0.377421862,11.8909276 L9.10965674,20.6228624 C9.61250204,21.1257125 10.4278024,21.1257125 10.9314154,20.6228624 L19.6225781,11.9308485 C20.1258073,11.4279984 20.1258073,10.6119225 19.6225781,10.1090724 L19.6225781,10.1090724 Z" id="Path" fill="#F34F29" fill-rule="nonzero"></path>
            <polygon id="Path" points="6.54537124e-16 1 46 1 46 21 0 21"></polygon>
        </g>
        <rect id="Rectangle-Copy-5" stroke="#0055C2" x="100.5" y="149.5" width="680" height="89" rx="3"></rect>
        <rect id="Rectangle-Copy-7" stroke="#0055C2" x="100.5" y="353.5" width="680" height="89" rx="3"></rect>
        <rect id="Rectangle-Copy-9" stroke="#0055C2" x="100.5" y="251.5" width="680" height="89" rx="3"></rect>
        <rect id="Rectangle-Copy-8" stroke="#0055C2" x="100.5" y="455.5" width="680" height="89" rx="3"></rect>
        <g id="github-copy-7" transform="translate(726.000000, 497.000000)" fill="#000000" fill-rule="nonzero">
            <path d="M12.5850497,-0.191489362 C6.45490198,-0.191228706 1.22961846,4.36751014 0.247648697,10.572135 C-0.73432107,16.7767599 2.81685875,22.7959287 8.63232853,24.783976 C9.25726863,24.896143 9.49162116,24.5116712 9.49162116,24.1752088 C9.49162116,23.870838 9.47598516,22.8615531 9.47598516,21.7882131 C6.33564866,22.3809474 5.52322653,21.0032622 5.27325049,20.2823536 C4.99587174,19.5812138 4.5561636,18.9598762 3.99212329,18.4720335 C3.55466522,18.2317306 2.92972512,17.6389835 3.97648729,17.622989 C4.78766745,17.7132455 5.5049239,18.2035399 5.89819059,18.9366062 C6.24344673,19.5725841 6.82134927,20.0415187 7.50432731,20.2398938 C8.18730535,20.4382688 8.91919812,20.349772 9.53844168,19.9939389 C9.5925503,19.3423945 9.87573383,18.7332165 10.3352653,18.2798296 C7.55428186,17.9594258 4.64831039,16.8539814 4.64831039,11.9518541 C4.63074672,10.6781149 5.08912481,9.44575448 5.9294376,8.50751296 C5.54732646,7.4004786 5.59203613,6.18558967 6.05442562,5.1112324 C6.05442562,5.1112324 7.10116279,4.77479557 9.49159617,6.42488809 C11.5367602,5.84812699 13.6958331,5.84812699 15.7409972,6.42488809 C18.1313681,4.7587882 19.1781677,5.1112324 19.1781677,5.1112324 C19.64062,6.18557483 19.6853305,7.40048855 19.3031557,8.50751296 C20.1459989,9.44414863 20.6047773,10.6775851 20.5842829,11.9518541 C20.5842829,16.8700144 17.662663,17.9594258 14.8817045,18.2798296 C15.4852624,18.9071012 15.7931544,19.7723792 15.7253737,20.650818 C15.7253737,22.3650041 15.7097377,23.7426892 15.7097377,24.17526 C15.7097377,24.5116969 15.9440902,24.9121888 16.5690303,24.7840273 C22.3737812,22.7799241 25.9086619,16.7596777 24.9199676,10.5615672 C23.9312732,4.36345679 18.7100074,-0.188220607 12.5850497,-0.191489362 Z" id="Path"></path>
        </g>
        <g id="github-copy-8" transform="translate(720.000000, 378.000000)" fill="#000000" fill-rule="nonzero">
            <path d="M17.4999206,0 C8.91771383,0.000364917736 1.60231691,6.38259931 0.227559239,15.0690741 C-1.14719843,23.755549 3.82445331,32.1823853 11.966111,34.9656516 C12.8410271,35.1226853 13.1691207,34.5844248 13.1691207,34.1133774 C13.1691207,33.6872582 13.1472303,32.2742594 13.1472303,30.7715834 C8.75075919,31.6014114 7.61336821,29.6726521 7.26340175,28.6633801 C6.87507149,27.6817844 6.25948011,26.8119118 5.46982366,26.128932 C4.85738237,25.792508 3.98246623,24.9626621 5.44793326,24.9402697 C6.58358549,25.0666288 7.58774452,25.753041 8.13831789,26.7793338 C8.62167649,27.6697028 9.43074004,28.3262113 10.3869093,28.6039364 C11.3430786,28.8816614 12.3677284,28.7577659 13.2346694,28.2595995 C13.3104215,27.3474375 13.7068784,26.4945881 14.3502225,25.8598466 C10.4568457,25.4112813 6.38848561,23.863659 6.38848561,17.0006808 C6.36389647,15.217446 7.0056258,13.4921414 8.1820637,12.1786032 C7.64710811,10.6287551 7.70970164,8.92791065 8.35704693,7.42381047 C8.35704693,7.42381047 9.82247897,6.95279891 13.1690857,9.26292843 C16.0323154,8.45546289 19.0550174,8.45546289 21.9182471,9.26292843 C25.2647663,6.93038858 26.7302859,7.42381047 26.7302859,7.42381047 C27.377719,8.92788987 27.4403138,10.6287691 26.9052691,12.1786032 C28.0852496,13.4898932 28.7275392,15.2167042 28.6988472,17.0006808 C28.6988472,23.8861052 24.6085792,25.4112813 20.7152374,25.8598466 C21.5602184,26.7380267 21.9912672,27.949416 21.8963742,29.1792302 C21.8963742,31.5790908 21.8744838,33.50785 21.8744838,34.1134492 C21.8744838,34.5844607 22.2025773,35.1451495 23.0774935,34.9657233 C31.2041447,32.1599788 36.1529778,23.7316338 34.7688057,15.0542792 C33.3846336,6.37692462 26.0748614,0.00457625688 17.4999206,0 Z" id="Path"></path>
        </g>
        <text id="Step-1" font-family="Helvetica-Bold, Helvetica" font-size="21" font-weight="bold" fill="#0055C2">
            <tspan x="21" y="199">Step 1</tspan>
        </text>
        <text id="Step-3" font-family="Helvetica-Bold, Helvetica" font-size="21" font-weight="bold" fill="#0055C2">
            <tspan x="21" y="403">Step 3</tspan>
        </text>
        <text id="Step-2-Copy" font-family="Helvetica-Bold, Helvetica" font-size="21" font-weight="bold" fill="#0055C2">
            <tspan x="21" y="301">Step 2</tspan>
        </text>
        <text id="Step-4" font-family="Helvetica-Bold, Helvetica" font-size="21" font-weight="bold" fill="#0055C2">
            <tspan x="21" y="505">Step 4</tspan>
        </text>
        <g id="bloovee-winner-logo" transform="translate(725.000000, 580.000000)">
            <path d="M13,13.7751507 C13,14.396312 13.4732558,14.8717809 14.0514961,14.8717809 C14.6474304,14.8717809 15.1204503,14.3968042 15.1204503,13.7751507 L15.1204503,2.09687626 C15.1204503,1.49368045 14.6474304,1 14.0514961,1 C13.4557977,1 13,1.49392656 13,2.09687626 L13,13.7751507 Z M21.7920364,15 C24.6483217,15 26.751078,12.7149437 26.751078,9.97312215 L26.751078,9.93645297 C26.751078,7.17641992 24.6657798,4.92778666 21.8269526,4.92778666 C18.9881254,4.92778666 16.885369,7.212843 16.885369,9.97312215 L16.885369,10.0095452 C16.885369,12.7516128 18.9706673,15 21.7920364,15 Z M21.8269526,13.0621935 C20.179994,13.0621935 19.0055834,11.6547366 19.0055834,9.97312215 L19.0055834,9.93645297 C19.0055834,8.25459244 20.0919958,6.86534709 21.7920364,6.86534709 C23.456689,6.86534709 24.6306277,8.27305008 24.6306277,9.97312215 L24.6306277,10.0095452 C24.6306277,11.6731942 23.5444513,13.0621935 21.8269526,13.0621935 Z M32.8092717,15 C35.665557,15 37.7683133,12.7149437 37.7683133,9.97312215 L37.7683133,9.93645297 C37.7683133,7.17641992 35.6830151,4.92778666 32.8441878,4.92778666 C30.0053606,4.92778666 27.9026043,7.212843 27.9026043,9.97312215 L27.9026043,10.0095452 C27.9026043,12.7516128 29.9879025,15 32.8092717,15 Z M32.8441878,13.0621935 C31.1969933,13.0621935 30.0228187,11.6547366 30.0228187,9.97312215 L30.0228187,9.93645297 C30.0228187,8.25459244 31.109231,6.86534709 32.8092717,6.86534709 C34.4739243,6.86534709 35.647863,8.27305008 35.647863,9.97312215 L35.647863,10.0095452 C35.647863,11.6731942 34.5614506,13.0621935 32.8441878,13.0621935 Z M44.1416963,13.9944275 L47.2261164,6.6096472 C47.2784906,6.49988574 47.3487948,6.28060893 47.3487948,6.07954366 C47.3487948,5.47610175 46.8929971,5.01933658 46.3147568,5.01933658 C45.7539746,5.01933658 45.4737015,5.40300947 45.3158709,5.78692847 L42.8976893,12.2215093 L40.5144239,5.82335156 C40.3393711,5.36634029 40.041404,5.01933658 39.4629278,5.01933658 C38.8846875,5.01933658 38.4116676,5.53098247 38.4116676,6.07954366 C38.4116676,6.28060893 38.4817358,6.46346265 38.534346,6.62785874 L41.6182943,13.9944275 C41.8638872,14.5796579 42.2491448,14.9633308 42.8273851,14.9633308 L42.9326055,14.9633308 C43.5108458,14.9633308 43.8965752,14.5612003 44.1416963,13.9944275 Z M50.0949054,9.27837643 C50.2876522,7.77961573 51.1987758,6.73762019 52.4956289,6.73762019 C53.8974665,6.73762019 54.7036056,7.8524619 54.8437422,9.27837643 L50.0949054,9.27837643 Z M56.070527,13.72027 C56.2281217,13.5558739 56.3508002,13.3181395 56.3508002,13.0439819 C56.3508002,12.5320899 55.9830006,12.1481709 55.5095089,12.1481709 C55.2641519,12.1481709 55.1242513,12.2215093 54.9664207,12.3492362 C54.3704864,12.8611282 53.6695676,13.1901665 52.7759021,13.1901665 C51.4089807,13.1901665 50.3402624,12.3128131 50.1123635,10.7409601 L55.9126964,10.7409601 C56.4560206,10.7409601 56.9115824,10.3021604 56.9115824,9.68050697 C56.9115824,7.45057746 55.4568987,4.92778666 52.513087,4.92778666 C49.8672425,4.92778666 47.9919132,7.19438536 47.9919132,9.95466451 L47.9919132,9.9913337 C47.9919132,12.9708897 50.0597533,15 52.7409859,15 C54.1779755,15 55.2292357,14.5063195 56.070527,13.72027 Z M60.1833231,9.27837643 C60.3763058,7.77961573 61.2871935,6.73762019 62.5842825,6.73762019 C63.9858841,6.73762019 64.7920233,7.8524619 64.9321598,9.27837643 L60.1833231,9.27837643 Z M66.1589447,13.72027 C66.3167752,13.5558739 66.4394537,13.3181395 66.4394537,13.0439819 C66.4394537,12.5320899 66.0714183,12.1481709 65.5981624,12.1481709 C65.3528055,12.1481709 65.2126689,12.2215093 65.0548383,12.3492362 C64.4591399,12.8611282 63.7582212,13.1901665 62.8643197,13.1901665 C61.4976342,13.1901665 60.4289159,12.3128131 60.2007812,10.7409601 L66.0011141,10.7409601 C66.5444382,10.7409601 67,10.3021604 67,9.68050697 C67,7.45057746 65.5455522,4.92778666 62.6015046,4.92778666 C59.9556601,4.92778666 58.0805667,7.19438536 58.0805667,9.95466451 L58.0805667,9.9913337 C58.0805667,12.9708897 60.1484069,15 62.8294035,15 C64.2663932,15 65.3178893,14.5063195 66.1589447,13.72027 L66.1589447,13.72027 Z" id="Fill-1" fill="#030060"></path>
            <g id="Group-4">
                <mask id="mask-2" fill="white">
                    <use xlink:href="#path-1"></use>
                </mask>
                <g id="Clip-3"></g>
                <path d="M8.68744595,14.5405413 C10.6544909,13.5649687 12,11.5915112 12,9.31636202 C12,6.07252388 9.26504479,3.44227578 5.89152197,3.44227578 C4.52034181,3.44227578 3.25480793,3.87689217 2.23537065,4.61058921 L2.23537065,1.05770107 C2.23537065,0.476155373 1.74046224,0 1.11695169,0 C0.493934821,0 0.0167986821,0.476630104 0.0167986821,1.05770107 L0.0167986821,1.80184219 L0,9.32158406 C-0.0041824725,11.2003327 0.951817666,12.865215 2.41753644,13.8939574 C2.4777647,13.9362085 2.55848043,13.9312238 2.6127846,13.8823265 C2.66758244,13.8334292 2.6779496,13.7558106 2.63746831,13.6950451 C0.724974359,10.8146136 1.16014819,5.53963813 5.89176881,5.53963813 C8.05899866,5.53963813 9.80709909,7.22944376 9.81623206,9.31351363 C9.82240299,10.8599505 9.11620201,12.0365717 8.19549958,12.7781018 C6.36026565,14.2561773 3.64974731,12.6382934 4.49738595,10.4697214 C4.5894562,10.2335427 4.71879884,9.9959397 4.88664808,9.76189723 L5.12361171,9.47705853 C5.19766284,9.39967734 5.25048599,9.29903433 5.2146946,9.19411874 C5.01401603,8.62800181 3.46832203,8.97526767 3.04005964,10.0315445 C3.34292878,9.79631524 3.65986763,9.66433998 3.96940137,9.71489885 C2.38890334,11.275815 3.44141679,13.9563846 5.46005069,14.7513219 C6.40494316,15.1232738 7.55964718,15.0976383 8.68744595,14.5405413" id="Fill-2" fill="url(#linearGradient-3)" mask="url(#mask-2)"></path>
            </g>
        </g>
        <g id="Group-Copy-2" transform="translate(122.000000, 179.000000)" fill-rule="nonzero">
            <path d="M29.1620764,4.6588577 C28.06551,1.59322362 21.3283863,0 14.6663699,0 C8.00435346,0 1.34233705,1.57812197 0.185684824,4.61355276 C0.0679668885,4.7927756 0.00527998711,5.0028474 0.00542733396,5.21761859 L0.00542733396,33.1028074 C-0.00180911132,33.1629949 -0.00180911132,33.2238396 0.00542733396,33.2840271 C0.00179115825,33.3368197 0.00179115825,33.3898018 0.00542733396,33.4425944 C0.00542733396,37.0896418 7.38096298,39 14.6663699,39 C21.9517768,39 29.312291,37.0896418 29.312291,33.4425944 C29.3159241,33.3923218 29.3159241,33.3418505 29.312291,33.2915779 C29.3201454,33.2289021 29.3201454,33.1654831 29.312291,33.1028074 L29.312291,5.21761859 C29.3161256,5.02078951 29.2640139,4.82694709 29.1620764,4.6588577 Z" id="Path" fill="url(#linearGradient-4)"></path>
            <path d="M14.9985967,0.684210526 C24.7129738,0.684210526 29.9927241,3.38973865 29.9927241,4.78007949 C30.0024253,4.82334552 30.0024253,4.86833219 29.9927241,4.91159822 C29.6746669,6.33951584 24.3858292,8.89473684 14.9985967,8.89473684 C5.61136413,8.89473684 0.322526447,6.31133325 0.00446919852,4.91159822 C-0.00148973284,4.87742825 -0.00148973284,4.84243204 0.00446919852,4.80826207 C0.00446919852,3.38973865 5.28421953,0.684210526 14.9985967,0.684210526 Z" id="Path" fill="#7BB2FF"></path>
        </g>
        <g id="star-copy-5" transform="translate(152.000000, 170.000000)" fill="url(#linearGradient-5)" fill-rule="nonzero">
            <path d="M8.03946209,9.97153632 C7.68369376,10.2375911 5.40091613,8.55101897 4.96372336,8.54732488 C4.52653059,8.54363398 2.21805926,10.1914181 1.86643586,9.91938437 C1.51481246,9.64735382 2.34146716,6.85316002 2.20972361,6.41669426 C2.077977,5.9802285 -0.132215462,4.19082243 0.00623995276,3.75663832 C0.144695368,3.32245741 2.9383711,3.28212274 3.29413943,3.01606729 C3.64990777,2.75001089 4.59240695,-0.0036897449 5.02959971,0 C5.46679248,0.00369748854 6.36672521,2.77296318 6.71834861,3.04499564 C7.06997201,3.31702811 9.86266187,3.40455837 9.99440543,3.84102094 C10.126152,4.27748669 7.88866344,6.02931908 7.75020803,6.46350319 C7.61175261,6.8976841 8.39523042,9.70547832 8.03946209,9.97153632 L8.03946209,9.97153632 Z" id="Path"></path>
        </g>
        <g id="star-copy-6" transform="translate(157.000000, 183.000000)" fill="url(#linearGradient-5)" fill-rule="nonzero">
            <path d="M8.03946209,9.97153632 C7.68369376,10.2375911 5.40091613,8.55101897 4.96372336,8.54732488 C4.52653059,8.54363398 2.21805926,10.1914181 1.86643586,9.91938437 C1.51481246,9.64735382 2.34146716,6.85316002 2.20972361,6.41669426 C2.077977,5.9802285 -0.132215462,4.19082243 0.00623995276,3.75663832 C0.144695368,3.32245741 2.9383711,3.28212274 3.29413943,3.01606729 C3.64990777,2.75001089 4.59240695,-0.0036897449 5.02959971,0 C5.46679248,0.00369748854 6.36672521,2.77296318 6.71834861,3.04499564 C7.06997201,3.31702811 9.86266187,3.40455837 9.99440543,3.84102094 C10.126152,4.27748669 7.88866344,6.02931908 7.75020803,6.46350319 C7.61175261,6.8976841 8.39523042,9.70547832 8.03946209,9.97153632 L8.03946209,9.97153632 Z" id="Path"></path>
        </g>
        <g id="star-copy-7" transform="translate(139.000000, 167.000000)" fill="url(#linearGradient-5)" fill-rule="nonzero">
            <path d="M8.03946209,9.97153632 C7.68369376,10.2375911 5.40091613,8.55101897 4.96372336,8.54732488 C4.52653059,8.54363398 2.21805926,10.1914181 1.86643586,9.91938437 C1.51481246,9.64735382 2.34146716,6.85316002 2.20972361,6.41669426 C2.077977,5.9802285 -0.132215462,4.19082243 0.00623995276,3.75663832 C0.144695368,3.32245741 2.9383711,3.28212274 3.29413943,3.01606729 C3.64990777,2.75001089 4.59240695,-0.0036897449 5.02959971,0 C5.46679248,0.00369748854 6.36672521,2.77296318 6.71834861,3.04499564 C7.06997201,3.31702811 9.86266187,3.40455837 9.99440543,3.84102094 C10.126152,4.27748669 7.88866344,6.02931908 7.75020803,6.46350319 C7.61175261,6.8976841 8.39523042,9.70547832 8.03946209,9.97153632 L8.03946209,9.97153632 Z" id="Path"></path>
        </g>
        <g id="star-copy-5" transform="translate(152.000000, 370.000000)" fill="url(#linearGradient-5)" fill-rule="nonzero">
            <path d="M8.03946209,9.97153632 C7.68369376,10.2375911 5.40091613,8.55101897 4.96372336,8.54732488 C4.52653059,8.54363398 2.21805926,10.1914181 1.86643586,9.91938437 C1.51481246,9.64735382 2.34146716,6.85316002 2.20972361,6.41669426 C2.077977,5.9802285 -0.132215462,4.19082243 0.00623995276,3.75663832 C0.144695368,3.32245741 2.9383711,3.28212274 3.29413943,3.01606729 C3.64990777,2.75001089 4.59240695,-0.0036897449 5.02959971,0 C5.46679248,0.00369748854 6.36672521,2.77296318 6.71834861,3.04499564 C7.06997201,3.31702811 9.86266187,3.40455837 9.99440543,3.84102094 C10.126152,4.27748669 7.88866344,6.02931908 7.75020803,6.46350319 C7.61175261,6.8976841 8.39523042,9.70547832 8.03946209,9.97153632 L8.03946209,9.97153632 Z" id="Path"></path>
        </g>
        <g id="star-copy-6" transform="translate(157.000000, 383.000000)" fill="url(#linearGradient-5)" fill-rule="nonzero">
            <path d="M8.03946209,9.97153632 C7.68369376,10.2375911 5.40091613,8.55101897 4.96372336,8.54732488 C4.52653059,8.54363398 2.21805926,10.1914181 1.86643586,9.91938437 C1.51481246,9.64735382 2.34146716,6.85316002 2.20972361,6.41669426 C2.077977,5.9802285 -0.132215462,4.19082243 0.00623995276,3.75663832 C0.144695368,3.32245741 2.9383711,3.28212274 3.29413943,3.01606729 C3.64990777,2.75001089 4.59240695,-0.0036897449 5.02959971,0 C5.46679248,0.00369748854 6.36672521,2.77296318 6.71834861,3.04499564 C7.06997201,3.31702811 9.86266187,3.40455837 9.99440543,3.84102094 C10.126152,4.27748669 7.88866344,6.02931908 7.75020803,6.46350319 C7.61175261,6.8976841 8.39523042,9.70547832 8.03946209,9.97153632 L8.03946209,9.97153632 Z" id="Path"></path>
        </g>
        <g id="star-copy-7" transform="translate(139.000000, 367.000000)" fill="url(#linearGradient-5)" fill-rule="nonzero">
            <path d="M8.03946209,9.97153632 C7.68369376,10.2375911 5.40091613,8.55101897 4.96372336,8.54732488 C4.52653059,8.54363398 2.21805926,10.1914181 1.86643586,9.91938437 C1.51481246,9.64735382 2.34146716,6.85316002 2.20972361,6.41669426 C2.077977,5.9802285 -0.132215462,4.19082243 0.00623995276,3.75663832 C0.144695368,3.32245741 2.9383711,3.28212274 3.29413943,3.01606729 C3.64990777,2.75001089 4.59240695,-0.0036897449 5.02959971,0 C5.46679248,0.00369748854 6.36672521,2.77296318 6.71834861,3.04499564 C7.06997201,3.31702811 9.86266187,3.40455837 9.99440543,3.84102094 C10.126152,4.27748669 7.88866344,6.02931908 7.75020803,6.46350319 C7.61175261,6.8976841 8.39523042,9.70547832 8.03946209,9.97153632 L8.03946209,9.97153632 Z" id="Path"></path>
        </g>
        <g id="Group-Copy-4" transform="translate(122.000000, 379.000000)" fill-rule="nonzero">
            <path d="M29.8402642,4.6588577 C28.7181963,1.59322362 21.8243953,0 15.0074482,0 C8.19050122,0 1.37355419,1.57812197 0.190003076,4.61355276 C0.0695475138,4.7927756 0.00540277751,5.0028474 0.00555355103,5.21761859 L0.00555355103,33.1028074 C-0.00185118368,33.1629949 -0.00185118368,33.2238396 0.00555355103,33.2840271 C0.00183281309,33.3368197 0.00183281309,33.3898018 0.00555355103,33.4425944 C0.00555355103,37.0896418 7.55261328,39 15.0074482,39 C22.4622832,39 29.9939721,37.0896418 29.9939721,33.4425944 C29.9976898,33.3923218 29.9976898,33.3418505 29.9939721,33.2915779 C30.0020093,33.2289021 30.0020093,33.1654831 29.9939721,33.1028074 L29.9939721,5.21761859 C29.997896,5.02078951 29.9445724,4.82694709 29.8402642,4.6588577 Z" id="Path" fill="url(#linearGradient-6)"></path>
            <path d="M14.9985967,0 C24.7129738,0 29.9927241,2.72602455 29.9927241,4.12689827 C30.0024253,4.17049208 30.0024253,4.21581955 29.9927241,4.25941336 C29.6746669,5.69814853 24.3858292,8.27272727 14.9985967,8.27272727 C5.61136413,8.27272727 0.322526447,5.66975244 0.00446919852,4.25941336 C-0.00148973284,4.22498453 -0.00148973284,4.18972319 0.00446919852,4.15529436 C0.00446919852,2.72602455 5.28421953,0 14.9985967,0 Z" id="Path" fill="#199ABD"></path>
        </g>
        <g id="Group-7" transform="translate(117.000000, 471.000000)">
            <g id="Group-Copy-5" transform="translate(24.000000, 0.000000)" fill-rule="nonzero">
                <path d="M19.8935095,3.10590513 C19.1454642,1.06214908 14.5495968,0 10.0049655,0 C5.46033415,0 0.915702796,1.05208132 0.126668717,3.07570184 C0.0463650092,3.19518374 0.00360185167,3.3352316 0.00370236735,3.47841239 L0.00370236735,22.0685382 C-0.00123412245,22.1086633 -0.00123412245,22.1492264 0.00370236735,22.1893514 C0.00122187539,22.2245464 0.00122187539,22.2598679 0.00370236735,22.2950629 C0.00370236735,24.7264279 5.03507552,26 10.0049655,26 C14.9748555,26 19.9959814,24.7264279 19.9959814,22.2950629 C19.9984599,22.2615479 19.9984599,22.2279003 19.9959814,22.1943853 C20.0013395,22.1526014 20.0013395,22.1103221 19.9959814,22.0685382 L19.9959814,3.47841239 C19.9985973,3.34719301 19.9630483,3.21796473 19.8935095,3.10590513 Z" id="Path" fill="url(#linearGradient-7)"></path>
                <path d="M9.99906443,0 C16.4753158,0 19.9951494,1.8173497 19.9951494,2.75126552 C20.0016169,2.78032805 20.0016169,2.81054637 19.9951494,2.8396089 C19.7831112,3.79876569 16.2572194,5.51515152 9.99906443,5.51515152 C3.74090942,5.51515152 0.215017632,3.77983496 0.00297946568,2.8396089 C-0.000993155226,2.81665635 -0.000993155226,2.79314879 0.00297946568,2.77019624 C0.00297946568,1.8173497 3.52281302,0 9.99906443,0 Z" id="Path" fill="#199ABD"></path>
            </g>
            <polyline id="Path-11-Copy" stroke="#FFAA1D" points="19 39 22.807904 26.6029331 22.807904 32.8014665 26.0445558 23.4898801 26.0445558 31.24494 29 19"></polyline>
            <g id="Group-Copy-2" transform="translate(0.000000, 32.000000)" fill-rule="nonzero">
                <path d="M19.8935095,3.10590513 C19.1454642,1.06214908 14.5495968,0 10.0049655,0 C5.46033415,0 0.915702796,1.05208132 0.126668717,3.07570184 C0.0463650092,3.19518374 0.00360185167,3.3352316 0.00370236735,3.47841239 L0.00370236735,22.0685382 C-0.00123412245,22.1086633 -0.00123412245,22.1492264 0.00370236735,22.1893514 C0.00122187539,22.2245464 0.00122187539,22.2598679 0.00370236735,22.2950629 C0.00370236735,24.7264279 5.03507552,26 10.0049655,26 C14.9748555,26 19.9959814,24.7264279 19.9959814,22.2950629 C19.9984599,22.2615479 19.9984599,22.2279003 19.9959814,22.1943853 C20.0013395,22.1526014 20.0013395,22.1103221 19.9959814,22.0685382 L19.9959814,3.47841239 C19.9985973,3.34719301 19.9630483,3.21796473 19.8935095,3.10590513 Z" id="Path" fill="url(#linearGradient-8)"></path>
                <path d="M9.99906443,0 C16.4753158,0 19.9951494,1.8173497 19.9951494,2.75126552 C20.0016169,2.78032805 20.0016169,2.81054637 19.9951494,2.8396089 C19.7831112,3.79876569 16.2572194,5.51515152 9.99906443,5.51515152 C3.74090942,5.51515152 0.215017632,3.77983496 0.00297946568,2.8396089 C-0.000993155226,2.81665635 -0.000993155226,2.79314879 0.00297946568,2.77019624 C0.00297946568,1.8173497 3.52281302,0 9.99906443,0 Z" id="Path" fill="#0055C2"></path>
            </g>
        </g>
        <text id="Key-Actions-to-Launc" font-family="Helvetica-Bold, Helvetica" font-size="24" font-weight="bold" fill="#0055C2">
            <tspan x="18" y="82">Key Actions to Launch Git Project from Scratch  </tspan>
            <tspan x="18" y="111">— Case 1: Project Initiator View </tspan>
        </text>
        <g id="Path-2">
            <use fill="black" fill-opacity="1" filter="url(#filter-10)" xlink:href="#path-9"></use>
            <use fill="#7BB2FF" fill-rule="evenodd" xlink:href="#path-9"></use>
        </g>
        <g id="Path-2-Copy">
            <use fill="black" fill-opacity="1" filter="url(#filter-12)" xlink:href="#path-11"></use>
            <use fill="#7BB2FF" fill-rule="evenodd" xlink:href="#path-11"></use>
        </g>
        <g id="Path-2-Copy-2">
            <use fill="black" fill-opacity="1" filter="url(#filter-14)" xlink:href="#path-13"></use>
            <use fill="#7BB2FF" fill-rule="evenodd" xlink:href="#path-13"></use>
        </g>
        <g id="documents-copy-8" transform="translate(121.000000, 276.000000)" fill-rule="nonzero">
            <path d="M20,7 L20,26 L4,26 L4,23.8285714 C4.0052342,23.8221114 17.6139182,7.00857714 17.6208178,7 L20,7 Z" id="Path" fill="#A4C2F7"></path>
            <path d="M18,23 C17.4498207,23 0.338027586,23 0,23 C0,21.6365762 0,1.91027619 0,1 L13.0344828,1 L14.379331,3.91589048 L18,5.19047619 C18,5.97467143 18,22.1091571 18,23 Z" id="Path" fill="#FFFFFF"></path>
            <polygon id="Path" fill="#A4C2F7" points="19 5 14 5 14 1"></polygon>
            <path d="M18.3870968,24 L0.612903226,24 C0.274396774,24 0,23.7557455 0,23.4545455 L0,0.545454545 C0,0.2442 0.274396774,0 0.612903226,0 L13.483871,0 C13.6464129,0 13.8022742,0.0574909091 13.9172548,0.159763636 L18.8204806,4.5234 C18.9354,4.62567273 19,4.76443636 19,4.90909091 L19,23.4545455 C19,23.7557455 18.7255419,24 18.3870968,24 Z M1.22580645,22.9090909 L17.7741935,22.9090909 L17.7741935,5.13501818 L13.2299452,1.09090909 L1.22580645,1.09090909 L1.22580645,22.9090909 Z" id="Shape" fill="#418CFE"></path>
            <path d="M18.8858131,5.41666667 L13.9031142,5.41666667 C13.5591834,5.41666667 13.2802768,5.1741625 13.2802768,4.875 L13.2802768,0.541666667 C13.2802768,0.242504167 13.5591834,0 13.9031142,0 C14.247045,0 14.5259516,0.242504167 14.5259516,0.541666667 L14.5259516,4.33333333 L18.8858131,4.33333333 C19.2297439,4.33333333 19.5086505,4.5758375 19.5086505,4.875 C19.5086505,5.1741625 19.2297439,5.41666667 18.8858131,5.41666667 Z M21.3771626,26 L4.62283737,26 C4.27884429,26 4,25.7574417 4,25.4583333 L4,23.2916667 C4,22.9925583 4.27884429,22.75 4.62283737,22.75 C4.96683045,22.75 5.24567474,22.9925583 5.24567474,23.2916667 L5.24567474,24.9166667 L20.7543253,24.9166667 L20.7543253,7.04166667 L18.8858131,7.04166667 C18.5418824,7.04166667 18.2629758,6.7991625 18.2629758,6.5 C18.2629758,6.2008375 18.5418824,5.95833333 18.8858131,5.95833333 L21.3771626,5.95833333 C21.7210934,5.95833333 22,6.2008375 22,6.5 L22,25.4583333 C22,25.7574417 21.7210934,26 21.3771626,26 Z" id="Shape" fill="#418CFE"></path>
            <path d="M15.3913043,20 L2.60869565,20 C2.27251304,20 2,19.7557455 2,19.4545455 C2,19.1533455 2.27251304,18.9090909 2.60869565,18.9090909 L15.3913043,18.9090909 C15.7274261,18.9090909 16,19.1533455 16,19.4545455 C16,19.7557455 15.7274261,20 15.3913043,20 Z M15.3913043,17.8181818 L2.60869565,17.8181818 C2.27251304,17.8181818 2,17.5739273 2,17.2727273 C2,16.9715273 2.27251304,16.7272727 2.60869565,16.7272727 L15.3913043,16.7272727 C15.7274261,16.7272727 16,16.9715273 16,17.2727273 C16,17.5739273 15.7274261,17.8181818 15.3913043,17.8181818 Z M15.3913043,15.6363636 L2.60869565,15.6363636 C2.27251304,15.6363636 2,15.3921091 2,15.0909091 C2,14.7897091 2.27251304,14.5454545 2.60869565,14.5454545 L15.3913043,14.5454545 C15.7274261,14.5454545 16,14.7897091 16,15.0909091 C16,15.3921091 15.7274261,15.6363636 15.3913043,15.6363636 Z M15.3913043,13.4545455 L2.60869565,13.4545455 C2.27251304,13.4545455 2,13.2103455 2,12.9090909 C2,12.6078364 2.27251304,12.3636364 2.60869565,12.3636364 L15.3913043,12.3636364 C15.7274261,12.3636364 16,12.6078364 16,12.9090909 C16,13.2103455 15.7274261,13.4545455 15.3913043,13.4545455 Z M15.3913043,11.2727273 L2.60869565,11.2727273 C2.27251304,11.2727273 2,11.0285273 2,10.7272727 C2,10.4260182 2.27251304,10.1818182 2.60869565,10.1818182 L15.3913043,10.1818182 C15.7274261,10.1818182 16,10.4260182 16,10.7272727 C16,11.0285273 15.7274261,11.2727273 15.3913043,11.2727273 Z M8.08695652,9.09090909 L2.60869565,9.09090909 C2.27251304,9.09090909 2,8.84670909 2,8.54545455 C2,8.2442 2.27251304,8 2.60869565,8 L8.08695652,8 C8.42313913,8 8.69565217,8.2442 8.69565217,8.54545455 C8.69565217,8.84670909 8.42313913,9.09090909 8.08695652,9.09090909 Z" id="Shape" fill="#418CFE"></path>
        </g>
        <g id="Group-3-Copy" transform="translate(111.000000, 300.000000)">
            <rect id="Rectangle" fill="#DE4040" x="0" y="3" width="50" height="16" rx="2"></rect>
            <text id="comit" font-family="Helvetica" font-size="16" font-weight="normal" fill="#FFFFFF">
                <tspan x="5" y="15">comit</tspan>
            </text>
        </g>
        <g id="Group-2-Copy-3" transform="translate(132.000000, 271.000000)" fill-rule="nonzero">
            <g id="edit-(3)-copy">
                <path d="M9.62791572,3.48874962 L0.937818761,12.1791823 C0.860934688,12.2560694 0.809312525,12.3538258 0.787345647,12.4592709 L0.0108165071,16.343165 C-0.0254288417,16.5233003 0.0305866973,16.710026 0.161289622,16.8396356 C0.265632293,16.9439823 0.406220312,17 0.550103363,17 L0.657741066,16.9890161 L4.54038676,16.212457 C4.64802447,16.1915877 4.74467873,16.1388651 4.8215628,16.0619781 L13.5116598,7.37154533 L9.62791572,3.48874962 Z M16.1960123,0.803195012 C15.125127,-0.267731671 13.3831535,-0.267731671 12.3133666,0.803195012 L10.7932586,2.32336171 L14.6759043,6.20615742 L16.1960123,4.68599073 C16.7144306,4.16865076 17,3.47886414 17,2.74514206 C17,2.01141999 16.7144306,1.32163337 16.1960123,0.803195012 Z" id="Shape" fill="#42A5F5"></path>
                <path d="M11.5177744,5.49530439 L0,16.8405311 C0.105342117,16.9442951 0.24727676,17 0.392537995,17 L0.501206705,16.9890775 L4.42104233,16.216855 C4.52971104,16.1961022 4.62729111,16.143674 4.70491162,16.0672164 L13.4782467,7.42531456 L11.5177744,5.49530439 Z M16.1883113,0.894736842 L12.6942796,4.33642448 L14.6547518,6.2675269 L16.1894201,4.75584944 C16.7116953,4.24139851 17,3.55546394 17,2.82583927 C17,2.0962146 16.7116953,1.41028002 16.1883113,0.894736842 L16.1883113,0.894736842 Z" id="Shape" fill="#1576ED"></path>
            </g>
        </g>
        <g id="Group-5" transform="translate(153.877766, 511.500000) scale(-1, 1) rotate(-170.000000) translate(-153.877766, -511.500000) translate(142.000000, 500.000000)" fill="#FFAA1D">
            <polygon id="Path" points="21 19.8496105 20.93248 19.0470577 20.5360812 16.9004652 19.9392761 14.8279173 19.1523327 12.8414771 18.1855078 10.9530259 17.0490182 9.17429617 15.752989 7.5169498 14.3074908 5.99263383 12.7225572 4.61303245 11.0082259 3.38988934 9.17459277 2.33503362 7.23189285 1.4603762 5.19053292 0.777842835 3.06116481 0.299348134 0.868803639 0.0383489974 0.0833418665 0 0 1.76323257 0.755694031 1.80012847 0.69632763 1.79514857 2.81549479 2.04743658 2.72904251 2.03261579 4.77302425 2.49192298 4.68911882 2.46853229 6.64815664 3.12353866 6.56779816 3.09210579 8.43212882 3.9314802 8.35607787 3.89260348 10.1159381 4.90501478 10.0447505 4.85929255 11.6903807 6.03342075 11.6244441 5.98139559 13.1460884 7.30590582 13.0857025 7.24803484 14.4735903 8.71160339 14.4190185 8.64826938 15.6634012 10.2395688 15.614925 10.1710988 16.706032 11.878798 16.6639879 11.8055079 17.5920632 13.6182794 17.5568607 13.5405297 18.3121448 15.4470497 18.2842592 15.365305 18.8569889 17.3542425 18.8369286 17.2691418 19.2173442 19.3291694 19.2055991 19.2415565 19.2694076 20"></polygon>
            <polygon id="Triangle" transform="translate(20.626977, 20.439801) rotate(-192.000000) translate(-20.626977, -20.439801) " points="20.626977 18.4105764 23.3941016 22.4690259 17.8598523 22.4690259"></polygon>
        </g>
        <g id="documents-copy-26" transform="translate(152.000000, 508.000000)" fill-rule="nonzero">
            <path d="M13,4 L13,16 L3,16 L3,14.6285714 C3.00327138,14.6244914 11.5086989,4.00541714 11.5130112,4 L13,4 Z" id="Path" fill="#A4C2F7"></path>
            <path d="M12,15 C11.6332138,15 0.225351724,15 0,15 C0,14.0703929 0,0.620642857 0,0 L8.68965517,0 L9.58622069,1.98810714 L12,2.85714286 C12,3.39182143 12,14.3926071 12,15 Z" id="Path" fill="#FFFFFF"></path>
            <polygon id="Path" fill="#A4C2F7" points="12 3 9 3 9 0"></polygon>
            <path d="M11.6129032,15 L0.387096774,15 C0.173303226,15 0,14.8473409 0,14.6590909 L0,0.340909091 C0,0.152625 0.173303226,0 0.387096774,0 L8.51612903,0 C8.6187871,0 8.71722581,0.0359318182 8.78984516,0.0998522727 L11.8866194,2.827125 C11.9592,2.89104545 12,2.97777273 12,3.06818182 L12,14.6590909 C12,14.8473409 11.8266581,15 11.6129032,15 Z M0.774193548,14.3181818 L11.2258065,14.3181818 L11.2258065,3.20938636 L8.35575484,0.681818182 L0.774193548,0.681818182 L0.774193548,14.3181818 Z" id="Shape" fill="#418CFE"></path>
            <path d="M11.9238754,3.54166667 L8.60207612,3.54166667 C8.37278893,3.54166667 8.18685121,3.38310625 8.18685121,3.1875 L8.18685121,0.354166667 C8.18685121,0.158560417 8.37278893,0 8.60207612,0 C8.83136332,0 9.01730104,0.158560417 9.01730104,0.354166667 L9.01730104,2.83333333 L11.9238754,2.83333333 C12.1531626,2.83333333 12.3391003,2.99189375 12.3391003,3.1875 C12.3391003,3.38310625 12.1531626,3.54166667 11.9238754,3.54166667 Z M13.5847751,17 L2.41522491,17 C2.18589619,17 2,16.8414042 2,16.6458333 L2,15.2291667 C2,15.0335958 2.18589619,14.875 2.41522491,14.875 C2.64455363,14.875 2.83044983,15.0335958 2.83044983,15.2291667 L2.83044983,16.2916667 L13.1695502,16.2916667 L13.1695502,4.60416667 L11.9238754,4.60416667 C11.6945882,4.60416667 11.5086505,4.44560625 11.5086505,4.25 C11.5086505,4.05439375 11.6945882,3.89583333 11.9238754,3.89583333 L13.5847751,3.89583333 C13.8140623,3.89583333 14,4.05439375 14,4.25 L14,16.6458333 C14,16.8414042 13.8140623,17 13.5847751,17 Z" id="Shape" fill="#418CFE"></path>
            <path d="M9.60869565,13 L1.39130435,13 C1.17518696,13 1,12.8371636 1,12.6363636 C1,12.4355636 1.17518696,12.2727273 1.39130435,12.2727273 L9.60869565,12.2727273 C9.82477391,12.2727273 10,12.4355636 10,12.6363636 C10,12.8371636 9.82477391,13 9.60869565,13 Z M9.60869565,11.5454545 L1.39130435,11.5454545 C1.17518696,11.5454545 1,11.3826182 1,11.1818182 C1,10.9810182 1.17518696,10.8181818 1.39130435,10.8181818 L9.60869565,10.8181818 C9.82477391,10.8181818 10,10.9810182 10,11.1818182 C10,11.3826182 9.82477391,11.5454545 9.60869565,11.5454545 Z M9.60869565,10.0909091 L1.39130435,10.0909091 C1.17518696,10.0909091 1,9.92807273 1,9.72727273 C1,9.52647273 1.17518696,9.36363636 1.39130435,9.36363636 L9.60869565,9.36363636 C9.82477391,9.36363636 10,9.52647273 10,9.72727273 C10,9.92807273 9.82477391,10.0909091 9.60869565,10.0909091 Z M9.60869565,8.63636364 L1.39130435,8.63636364 C1.17518696,8.63636364 1,8.47356364 1,8.27272727 C1,8.07189091 1.17518696,7.90909091 1.39130435,7.90909091 L9.60869565,7.90909091 C9.82477391,7.90909091 10,8.07189091 10,8.27272727 C10,8.47356364 9.82477391,8.63636364 9.60869565,8.63636364 Z M9.60869565,7.18181818 L1.39130435,7.18181818 C1.17518696,7.18181818 1,7.01901818 1,6.81818182 C1,6.61734545 1.17518696,6.45454545 1.39130435,6.45454545 L9.60869565,6.45454545 C9.82477391,6.45454545 10,6.61734545 10,6.81818182 C10,7.01901818 9.82477391,7.18181818 9.60869565,7.18181818 Z M4.91304348,5.72727273 L1.39130435,5.72727273 C1.17518696,5.72727273 1,5.56447273 1,5.36363636 C1,5.1628 1.17518696,5 1.39130435,5 L4.91304348,5 C5.12916087,5 5.30434783,5.1628 5.30434783,5.36363636 C5.30434783,5.56447273 5.12916087,5.72727273 4.91304348,5.72727273 Z" id="Shape" fill="#418CFE"></path>
        </g>
    </g>
</svg>