<?xml version="1.0" encoding="UTF-8"?>
<svg width="800px" height="600px" viewBox="0 0 800 600" version="1.1" xmlns="http://www.w3.org/2000/svg" xmlns:xlink="http://www.w3.org/1999/xlink">
    <title>2041-10-14-23-10_ForkVs.Clone</title>
    <defs>
        <path d="M8.68744595,14.5405413 C10.6544909,13.5649687 12,11.5915112 12,9.31636202 C12,6.07252388 9.26504479,3.44227578 5.89152197,3.44227578 C4.52034181,3.44227578 3.25480793,3.87689217 2.23537065,4.61058921 L2.23537065,1.05770107 C2.23537065,0.476155373 1.74046224,0 1.11695169,0 C0.493934821,0 0.0167986821,0.476630104 0.0167986821,1.05770107 L0.0167986821,1.80184219 L0,9.32158406 C-0.0041824725,11.2003327 0.951817666,12.865215 2.41753644,13.8939574 C2.4777647,13.9362085 2.55848043,13.9312238 2.6127846,13.8823265 C2.66758244,13.8334292 2.6779496,13.7558106 2.63746831,13.6950451 C0.724974359,10.8146136 1.16014819,5.53963813 5.89176881,5.53963813 C8.05899866,5.53963813 9.80709909,7.22944376 9.81623206,9.31351363 C9.82240299,10.8599505 9.11620201,12.0365717 8.19549958,12.7781018 C6.36026565,14.2561773 3.64974731,12.6382934 4.49738595,10.4697214 C4.5894562,10.2335427 4.71879884,9.9959397 4.88664808,9.76189723 L5.12361171,9.47705853 C5.19766284,9.39967734 5.25048599,9.29903433 5.2146946,9.19411874 C5.01401603,8.62800181 3.46832203,8.97526767 3.04005964,10.0315445 C3.34292878,9.79631524 3.65986763,9.66433998 3.96940137,9.71489885 C2.38890334,11.275815 3.44141679,13.9563846 5.46005069,14.7513219 C6.40494316,15.1232738 7.55964718,15.0976383 8.68744595,14.5405413" id="path-1"></path>
        <linearGradient x1="28.568518%" y1="104.445731%" x2="78.3472072%" y2="20.6880271%" id="linearGradient-3">
            <stop stop-color="#000F98" offset="0%"></stop>
            <stop stop-color="#00A5FD" offset="100%"></stop>
        </linearGradient>
        <linearGradient x1="78.5089546%" y1="0%" x2="21.4910454%" y2="100%" id="linearGradient-4">
            <stop stop-color="#00C6FF" offset="0.0491695804%"></stop>
            <stop stop-color="#079DC2" offset="100%"></stop>
        </linearGradient>
        <linearGradient x1="78.5089546%" y1="0%" x2="21.4910454%" y2="100%" id="linearGradient-5">
            <stop stop-color="#FFFFFF" offset="0.0218531469%"></stop>
            <stop stop-color="#676767" offset="100%"></stop>
        </linearGradient>
        <path d="M186,247.962264 L186,279.339623 C186,279.891907 186.447715,280.339623 187,280.339623 L222.4,280.339623 C222.952285,280.339623 223.4,280.787338 223.4,281.339623 L223.4,290.506356 C223.4,291.058641 223.847715,291.506356 224.4,291.506356 C224.673067,291.506356 224.934256,291.394689 225.122925,291.197283 L251.351992,263.75349 C251.716401,263.372205 251.722038,262.773451 251.364873,262.385372 L225.135806,233.886049 C224.761804,233.479674 224.129183,233.453432 223.722808,233.827435 C223.517067,234.016786 223.4,234.283628 223.4,234.563241 L223.4,245.962264 C223.4,246.514549 222.952285,246.962264 222.4,246.962264 L187,246.962264 C186.447715,246.962264 186,247.409979 186,247.962264 Z" id="path-6"></path>
        <filter x="-3.0%" y="-0.7%" width="111.6%" height="108.1%" filterUnits="objectBoundingBox" id="filter-7">
            <feOffset dx="2" dy="2" in="SourceAlpha" result="shadowOffsetOuter1"></feOffset>
            <feGaussianBlur stdDeviation="1" in="shadowOffsetOuter1" result="shadowBlurOuter1"></feGaussianBlur>
            <feColorMatrix values="0 0 0 0 0   0 0 0 0 0   0 0 0 0 0  0 0 0 0.5 0" type="matrix" in="shadowBlurOuter1"></feColorMatrix>
        </filter>
        <linearGradient x1="79.0703125%" y1="0%" x2="20.9296875%" y2="100%" id="linearGradient-8">
            <stop stop-color="#00C6FF" offset="0.0491695804%"></stop>
            <stop stop-color="#079DC2" offset="100%"></stop>
        </linearGradient>
        <linearGradient x1="78.3002722%" y1="0%" x2="21.6997278%" y2="100%" id="linearGradient-9">
            <stop stop-color="#00A5FF" offset="0.0491695804%"></stop>
            <stop stop-color="#0755C2" offset="100%"></stop>
        </linearGradient>
        <path d="M582.000559,238 L582.000093,263 C581.999949,265.761424 584.238483,268.000042 586.999907,268.000093 C586.999938,268.000093 586.999969,268.000093 587,268 L615,268 C617.761424,268 620,265.761424 620,263 L620,245.575476 C620,242.814052 617.761424,240.575476 615,240.575476 L603.40989,240.575476 C601.771146,240.575476 600.23642,239.772447 599.302121,238.426131 L597.028141,235.149345 C596.093842,233.803029 594.559115,233 592.920372,233 L587.000652,233 C584.239265,233.000093 582.000704,235.238613 582.000559,238 Z" id="path-10"></path>
        <filter x="-14.5%" y="-15.7%" width="139.5%" height="142.9%" filterUnits="objectBoundingBox" id="filter-11">
            <feMorphology radius="0.5" operator="dilate" in="SourceAlpha" result="shadowSpreadOuter1"></feMorphology>
            <feOffset dx="2" dy="2" in="shadowSpreadOuter1" result="shadowOffsetOuter1"></feOffset>
            <feGaussianBlur stdDeviation="2" in="shadowOffsetOuter1" result="shadowBlurOuter1"></feGaussianBlur>
            <feComposite in="shadowBlurOuter1" in2="SourceAlpha" operator="out" result="shadowBlurOuter1"></feComposite>
            <feColorMatrix values="0 0 0 0 0   0 0 0 0 0   0 0 0 0 0  0 0 0 0.5 0" type="matrix" in="shadowBlurOuter1"></feColorMatrix>
        </filter>
        <path d="M301.000559,251 L301.000093,276 C300.999949,278.761424 303.238483,281.000042 305.999907,281.000093 C305.999938,281.000093 305.999969,281.000093 306,281 L334,281 C336.761424,281 339,278.761424 339,276 L339,258.575476 C339,255.814052 336.761424,253.575476 334,253.575476 L322.40989,253.575476 C320.771146,253.575476 319.23642,252.772447 318.302121,251.426131 L316.028141,248.149345 C315.093842,246.803029 313.559115,246 311.920372,246 L306.000652,246 C303.239265,246.000093 301.000704,248.238613 301.000559,251 Z" id="path-12"></path>
        <filter x="-14.5%" y="-15.7%" width="139.5%" height="142.9%" filterUnits="objectBoundingBox" id="filter-13">
            <feMorphology radius="0.5" operator="dilate" in="SourceAlpha" result="shadowSpreadOuter1"></feMorphology>
            <feOffset dx="2" dy="2" in="shadowSpreadOuter1" result="shadowOffsetOuter1"></feOffset>
            <feGaussianBlur stdDeviation="2" in="shadowOffsetOuter1" result="shadowBlurOuter1"></feGaussianBlur>
            <feComposite in="shadowBlurOuter1" in2="SourceAlpha" operator="out" result="shadowBlurOuter1"></feComposite>
            <feColorMatrix values="0 0 0 0 0   0 0 0 0 0   0 0 0 0 0  0 0 0 0.5 0" type="matrix" in="shadowBlurOuter1"></feColorMatrix>
        </filter>
        <path d="M93.0005589,251 L93.0000932,276 C92.9999486,278.761424 95.2384831,281.000042 97.9999068,281.000093 C97.9999379,281.000093 97.9999689,281.000093 98,281 L126,281 C128.761424,281 131,278.761424 131,276 L131,258.575476 C131,255.814052 128.761424,253.575476 126,253.575476 L114.40989,253.575476 C112.771146,253.575476 111.23642,252.772447 110.302121,251.426131 L108.028141,248.149345 C107.093842,246.803029 105.559115,246 103.920372,246 L98.0006521,246 C95.2392647,246.000093 93.0007036,248.238613 93.0005589,251 Z" id="path-14"></path>
        <filter x="-14.5%" y="-15.7%" width="139.5%" height="142.9%" filterUnits="objectBoundingBox" id="filter-15">
            <feMorphology radius="0.5" operator="dilate" in="SourceAlpha" result="shadowSpreadOuter1"></feMorphology>
            <feOffset dx="2" dy="2" in="shadowSpreadOuter1" result="shadowOffsetOuter1"></feOffset>
            <feGaussianBlur stdDeviation="2" in="shadowOffsetOuter1" result="shadowBlurOuter1"></feGaussianBlur>
            <feComposite in="shadowBlurOuter1" in2="SourceAlpha" operator="out" result="shadowBlurOuter1"></feComposite>
            <feColorMatrix values="0 0 0 0 0   0 0 0 0 0   0 0 0 0 0  0 0 0 0.5 0" type="matrix" in="shadowBlurOuter1"></feColorMatrix>
        </filter>
        <path d="M455.554789,384.478712 L455.554412,404.478712 C455.554266,407.240135 457.7928,409.478754 460.554223,409.478806 C460.554255,409.478806 460.554286,409.478806 460.554318,409.478712 L483.526414,409.478712 C486.287838,409.478712 488.526414,407.240135 488.526414,404.478712 L488.526414,390.971977 C488.526414,388.210553 486.287838,385.971977 483.526414,385.971977 L474.459305,385.971977 C472.8307,385.971977 471.304144,385.178794 470.367963,383.846158 L468.793212,381.60453 C467.85703,380.271894 466.330474,379.478712 464.70187,379.478712 L460.554883,379.478712 C457.793497,379.478806 455.554936,381.717325 455.554789,384.478712 Z" id="path-16"></path>
        <filter x="-15.2%" y="-16.7%" width="142.5%" height="146.7%" filterUnits="objectBoundingBox" id="filter-17">
            <feOffset dx="2" dy="2" in="SourceAlpha" result="shadowOffsetOuter1"></feOffset>
            <feGaussianBlur stdDeviation="2" in="shadowOffsetOuter1" result="shadowBlurOuter1"></feGaussianBlur>
            <feColorMatrix values="0 0 0 0 0   0 0 0 0 0   0 0 0 0 0  0 0 0 0.5 0" type="matrix" in="shadowBlurOuter1"></feColorMatrix>
        </filter>
        <path d="M426.000471,349 L426.000094,368.969697 C425.999948,371.731121 428.238482,373.969739 430.999906,373.969791 C430.999937,373.969791 430.999969,373.969791 431,373.969697 L453.938791,373.969697 C456.700215,373.969697 458.938791,371.731121 458.938791,368.969697 L458.938791,355.486706 C458.938791,352.725282 456.700215,350.486706 453.938791,350.486706 L444.888516,350.486706 C443.259911,350.486706 441.733355,349.693524 440.797174,348.360888 L439.22703,346.125818 C438.290849,344.793182 436.764293,344 435.135688,344 L431.000565,344 C428.239178,344.000094 426.000617,346.238613 426.000471,349 Z" id="path-18"></path>
        <filter x="-15.2%" y="-16.7%" width="142.5%" height="146.7%" filterUnits="objectBoundingBox" id="filter-19">
            <feOffset dx="2" dy="2" in="SourceAlpha" result="shadowOffsetOuter1"></feOffset>
            <feGaussianBlur stdDeviation="2" in="shadowOffsetOuter1" result="shadowBlurOuter1"></feGaussianBlur>
            <feColorMatrix values="0 0 0 0 0   0 0 0 0 0   0 0 0 0 0  0 0 0 0.5 0" type="matrix" in="shadowBlurOuter1"></feColorMatrix>
        </filter>
        <linearGradient x1="1.18752487e-05%" y1="49.9999884%" x2="100.000032%" y2="49.9999884%" id="linearGradient-20">
            <stop stop-color="#FCD635" offset="0%"></stop>
            <stop stop-color="#F7A928" offset="100%"></stop>
        </linearGradient>
    </defs>
    <g id="2041-10-14-23-10_ForkVs.Clone" stroke="none" stroke-width="1" fill="none" fill-rule="evenodd">
        <rect fill="#FFFFFF" x="0" y="0" width="800" height="600"></rect>
        <text id="Fork-Vs.-Clone" fill-rule="nonzero" font-family="Helvetica" font-size="18" font-weight="normal" fill="#0055C2">
            <tspan x="10" y="23">Fork Vs. Clone</tspan>
        </text>
        <text id="Press-Fork-button-in" font-family="Helvetica" font-size="21" font-weight="normal" fill="#0055C2">
            <tspan x="34" y="120">Press Fork button in a repository you </tspan>
            <tspan x="34" y="145">want to create replica</tspan>
        </text>
        <text id="Run-$-git-clone-comm" font-family="Helvetica" font-size="21" font-weight="normal" fill="#0055C2">
            <tspan x="421.098535" y="120">Run $ git clone command on your </tspan>
            <tspan x="421.098535" y="145">local computer</tspan>
        </text>
        <text id="Open-source-software" font-family="Helvetica" font-size="21" font-weight="normal" fill="#0055C2">
            <tspan x="51.8813477" y="349">Open source </tspan>
            <tspan x="62.3967285" y="374">software X </tspan>
            <tspan x="55.9572754" y="399">available on </tspan>
            <tspan x="79.3208008" y="424">GitHub</tspan>
        </text>
        <text id="Replica-of-X" font-family="Helvetica" font-size="21" font-weight="normal" fill="#0055C2">
            <tspan x="261.470947" y="349">Replica of  X</tspan>
        </text>
        <g id="git" transform="translate(661.000000, 9.000000)">
            <path d="M46.8658496,11.2380575 C45.1623498,11.2380575 43.8939053,12.0891281 43.8939053,14.1376499 C43.8939053,15.6808485 44.7297841,16.7522856 46.7743573,16.7522856 C48.5071097,16.7522856 49.6846843,15.7131436 49.6846843,14.073693 C49.6846843,12.2157755 48.6309666,11.2380575 46.8658496,11.2380575 L46.8658496,11.2380575 Z M43.4607172,25.7011913 C43.0574041,26.2046147 42.6553359,26.7397 42.6553359,27.3710373 C42.6553359,28.6305458 44.2337339,29.0092215 46.4027864,29.0092215 C48.1984009,29.0092215 50.6450424,28.8813076 50.6450424,27.1823327 C50.6450424,26.1723196 49.4674678,26.1102624 47.9805621,26.0152768 L43.4607172,25.7011913 Z M52.6255087,11.3330431 C53.1825537,12.0580995 53.7719634,13.0662128 53.7719634,14.5156924 C53.7719634,18.0124273 51.0776081,20.0603158 47.1764255,20.0603158 C46.1843252,20.0603158 45.2862067,19.9349349 44.7291617,19.7772589 L43.7071863,21.4471049 L46.7413702,21.6351763 C52.0989611,21.9828234 55.257002,22.1404995 55.257002,26.3293624 C55.257002,29.9533779 52.1300809,32 46.7413702,32 C41.1360655,32 39,30.5505204 39,28.0625322 C39,26.6440812 39.6199071,25.8898959 40.7034998,24.848221 C39.680902,24.4087545 39.3410734,23.6216409 39.3410734,22.7705703 C39.3410734,22.0771758 39.6815244,21.4471049 40.2391918,20.8480627 C40.7968593,20.2502869 41.416144,19.6506115 42.1586633,18.9578502 C40.6412601,18.2017651 39.4960502,16.563581 39.4960502,14.231369 C39.4960502,10.6086199 41.8493321,8.12063165 46.5870158,8.12063165 C47.9189448,8.12063165 48.7249485,8.24537935 49.436348,8.43598369 L55.4754632,8.43598369 L55.4754632,11.1133099 L52.6255087,11.3330431 L52.6255087,11.3330431 Z M60.9233016,5.60858036 C59.1575621,5.60858036 58.1355867,4.56817192 58.1355867,2.77167847 C58.1355867,0.977717972 59.1575621,0 60.9233016,0 C62.7195385,0 63.7408917,0.977084735 63.7408917,2.77167847 C63.7415139,4.56817192 62.7195385,5.60858036 60.9233016,5.60858036 Z M56.9275147,24.5423675 L56.9275147,22.0543792 L58.50778,21.8340127 C58.9409681,21.770689 59.0025853,21.6763367 59.0025853,21.2026754 L59.0025853,11.9403174 C59.0025853,11.59457 58.9104706,11.372937 58.5998947,11.279218 L56.9275147,10.6801757 L57.2679657,8.12949697 L63.6792742,8.12949697 L63.6792742,21.2033087 C63.6792742,21.7086318 63.7091492,21.770689 64.174702,21.834646 L65.7543448,22.0550125 L65.7543448,24.5430008 L56.9275147,24.5430008 L56.9275147,24.5423675 Z M78,23.32022 C76.6674487,23.9806863 74.7174798,24.5803617 72.9511179,24.5803617 C69.2665294,24.5803617 67.8736056,23.0694582 67.8736056,19.5074999 L67.8736056,11.2532552 C67.8736056,11.0651838 67.8736056,10.9385364 67.6252693,10.9385364 L65.458084,10.9385364 L65.458084,8.13456287 C68.1841815,7.81857759 69.2671518,6.43242174 69.6076028,2.99837733 L72.5502944,2.99837733 L72.5502944,7.47346341 C72.5502944,7.69319666 72.5502944,7.78881545 72.7980083,7.78881545 L77.1641212,7.78881545 L77.1641212,10.9391697 L72.5502944,10.9391697 L72.5502944,18.4683579 C72.5502944,20.3269086 72.9841049,21.0513318 74.6558625,21.0513318 C75.5241059,21.0513318 76.4209796,20.8315985 77.1641212,20.5479083 L78,23.32022 L78,23.32022 Z" id="Shape" fill="#31251C" fill-rule="nonzero"></path>
            <path d="M32.3772539,15.0299695 L17.9690664,0.622277028 C17.140005,-0.207425676 15.7941261,-0.207425676 14.9644314,0.622277028 L11.9724635,3.61427365 L15.7668919,7.40937182 C16.6497884,7.11169223 17.6606226,7.31120089 18.3636464,8.01486479 C19.0704703,8.72232885 19.2687104,9.74203981 18.9634334,10.6274783 L22.6210571,14.2851371 C23.5052204,13.9804906 24.5268216,14.1774658 25.2336455,14.8849299 C26.221679,15.8723394 26.221679,17.4728423 25.2336455,18.4608852 C24.2449787,19.4489281 22.6451246,19.4489281 21.6570912,18.4608852 C20.914166,17.7173195 20.7304932,16.6260388 21.1067059,15.7108324 L17.6954571,12.2995509 L17.6948238,21.2768075 C17.9361319,21.3958793 18.1628729,21.5542195 18.3636464,21.7543616 C19.3516798,22.7417711 19.3516798,24.3416406 18.3636464,25.3309502 C17.375613,26.3183598 15.7744921,26.3183598 14.7877254,25.3309502 C13.799692,24.3416406 13.799692,22.7417711 14.7877254,21.7543616 C15.0322003,21.5105176 15.3140432,21.3262096 15.6155201,21.2027043 L15.6155201,12.1424774 C15.3140432,12.0196054 15.0322003,11.8359308 14.7877254,11.5908201 C14.0391001,10.842821 13.8592273,9.74520661 14.2430403,8.82620003 L10.5024471,5.08430417 L0.622746073,14.9634666 C-0.207582024,15.7938027 -0.207582024,17.1396945 0.622746073,17.9700305 L15.0309336,32.377723 C15.8606284,33.2074257 17.2058739,33.2074257 18.0368353,32.377723 L32.3772539,18.0359 C33.207582,17.2061973 33.207582,15.8596722 32.3772539,15.0299695 L32.3772539,15.0299695 Z" id="Path" fill="#F34F29" fill-rule="nonzero"></path>
            <polygon id="Path" points="1.12409637e-15 0 79 0 79 33 0 33"></polygon>
        </g>
        <g id="github-copy" transform="translate(748.000000, 3.000000)" fill="#000000" fill-rule="nonzero">
            <path d="M22.9998956,0 C11.7204239,0.000469179946 2.10590223,8.20619911 0.299077857,19.3745239 C-1.50774651,30.5428487 5.02642435,41.3773525 15.7268887,44.9558377 C16.8767785,45.1577383 17.3079872,44.4656891 17.3079872,43.8600567 C17.3079872,43.3121892 17.279217,41.4954764 17.279217,39.5634644 C11.5009978,40.6303861 10.0061411,38.1505528 9.54618516,36.8529173 C9.03580825,35.5908656 8.22674528,34.472458 7.1889111,33.5943411 C6.38398825,33.161796 5.23409847,32.0948512 7.16014086,32.066061 C8.65271236,32.2285228 9.97246422,33.1110528 10.6960749,34.4305721 C11.3313462,35.5753322 12.3946869,36.4194146 13.6513665,36.7764896 C14.9080461,37.1335647 16.2547288,36.9742705 17.3941369,36.3337708 C17.4936968,35.160991 18.0147545,34.0644705 18.8602924,33.2483742 C13.7432829,32.6716473 8.39629538,30.6818473 8.39629538,21.8580182 C8.36397821,19.5652878 9.20739391,17.3470389 10.7535694,15.6582042 C10.0504849,13.6655423 10.1327507,11.4787423 10.9835474,9.54489918 C10.9835474,9.54489918 12.9095438,8.93931288 17.3079412,11.9094794 C21.0710431,10.8713094 25.0437372,10.8713094 28.806839,11.9094794 C33.2051215,8.9104996 35.1312329,9.54489918 35.1312329,9.54489918 C35.982145,11.4787155 36.0644125,13.6655602 35.3612108,15.6582042 C36.9120423,17.3441484 37.7561944,19.564334 37.7184849,21.8580182 C37.7184849,30.7107067 32.3427041,32.6716473 27.2257406,33.2483742 C28.336287,34.3774629 28.9028084,35.9349635 28.7780918,37.5161532 C28.7780918,40.6016882 28.7493216,43.0815215 28.7493216,43.8601489 C28.7493216,44.4657352 29.1805302,45.1866208 30.33042,44.95593 C41.0111617,41.3485442 47.5153422,30.5121007 45.6961446,19.3555019 C43.876947,8.19890308 34.2698179,0.00588375885 22.9998956,0 Z" id="Path"></path>
        </g>
        <g id="bloovee-winner-logo" transform="translate(725.000000, 580.000000)">
            <path d="M13,13.7751507 C13,14.396312 13.4732558,14.8717809 14.0514961,14.8717809 C14.6474304,14.8717809 15.1204503,14.3968042 15.1204503,13.7751507 L15.1204503,2.09687626 C15.1204503,1.49368045 14.6474304,1 14.0514961,1 C13.4557977,1 13,1.49392656 13,2.09687626 L13,13.7751507 Z M21.7920364,15 C24.6483217,15 26.751078,12.7149437 26.751078,9.97312215 L26.751078,9.93645297 C26.751078,7.17641992 24.6657798,4.92778666 21.8269526,4.92778666 C18.9881254,4.92778666 16.885369,7.212843 16.885369,9.97312215 L16.885369,10.0095452 C16.885369,12.7516128 18.9706673,15 21.7920364,15 Z M21.8269526,13.0621935 C20.179994,13.0621935 19.0055834,11.6547366 19.0055834,9.97312215 L19.0055834,9.93645297 C19.0055834,8.25459244 20.0919958,6.86534709 21.7920364,6.86534709 C23.456689,6.86534709 24.6306277,8.27305008 24.6306277,9.97312215 L24.6306277,10.0095452 C24.6306277,11.6731942 23.5444513,13.0621935 21.8269526,13.0621935 Z M32.8092717,15 C35.665557,15 37.7683133,12.7149437 37.7683133,9.97312215 L37.7683133,9.93645297 C37.7683133,7.17641992 35.6830151,4.92778666 32.8441878,4.92778666 C30.0053606,4.92778666 27.9026043,7.212843 27.9026043,9.97312215 L27.9026043,10.0095452 C27.9026043,12.7516128 29.9879025,15 32.8092717,15 Z M32.8441878,13.0621935 C31.1969933,13.0621935 30.0228187,11.6547366 30.0228187,9.97312215 L30.0228187,9.93645297 C30.0228187,8.25459244 31.109231,6.86534709 32.8092717,6.86534709 C34.4739243,6.86534709 35.647863,8.27305008 35.647863,9.97312215 L35.647863,10.0095452 C35.647863,11.6731942 34.5614506,13.0621935 32.8441878,13.0621935 Z M44.1416963,13.9944275 L47.2261164,6.6096472 C47.2784906,6.49988574 47.3487948,6.28060893 47.3487948,6.07954366 C47.3487948,5.47610175 46.8929971,5.01933658 46.3147568,5.01933658 C45.7539746,5.01933658 45.4737015,5.40300947 45.3158709,5.78692847 L42.8976893,12.2215093 L40.5144239,5.82335156 C40.3393711,5.36634029 40.041404,5.01933658 39.4629278,5.01933658 C38.8846875,5.01933658 38.4116676,5.53098247 38.4116676,6.07954366 C38.4116676,6.28060893 38.4817358,6.46346265 38.534346,6.62785874 L41.6182943,13.9944275 C41.8638872,14.5796579 42.2491448,14.9633308 42.8273851,14.9633308 L42.9326055,14.9633308 C43.5108458,14.9633308 43.8965752,14.5612003 44.1416963,13.9944275 Z M50.0949054,9.27837643 C50.2876522,7.77961573 51.1987758,6.73762019 52.4956289,6.73762019 C53.8974665,6.73762019 54.7036056,7.8524619 54.8437422,9.27837643 L50.0949054,9.27837643 Z M56.070527,13.72027 C56.2281217,13.5558739 56.3508002,13.3181395 56.3508002,13.0439819 C56.3508002,12.5320899 55.9830006,12.1481709 55.5095089,12.1481709 C55.2641519,12.1481709 55.1242513,12.2215093 54.9664207,12.3492362 C54.3704864,12.8611282 53.6695676,13.1901665 52.7759021,13.1901665 C51.4089807,13.1901665 50.3402624,12.3128131 50.1123635,10.7409601 L55.9126964,10.7409601 C56.4560206,10.7409601 56.9115824,10.3021604 56.9115824,9.68050697 C56.9115824,7.45057746 55.4568987,4.92778666 52.513087,4.92778666 C49.8672425,4.92778666 47.9919132,7.19438536 47.9919132,9.95466451 L47.9919132,9.9913337 C47.9919132,12.9708897 50.0597533,15 52.7409859,15 C54.1779755,15 55.2292357,14.5063195 56.070527,13.72027 Z M60.1833231,9.27837643 C60.3763058,7.77961573 61.2871935,6.73762019 62.5842825,6.73762019 C63.9858841,6.73762019 64.7920233,7.8524619 64.9321598,9.27837643 L60.1833231,9.27837643 Z M66.1589447,13.72027 C66.3167752,13.5558739 66.4394537,13.3181395 66.4394537,13.0439819 C66.4394537,12.5320899 66.0714183,12.1481709 65.5981624,12.1481709 C65.3528055,12.1481709 65.2126689,12.2215093 65.0548383,12.3492362 C64.4591399,12.8611282 63.7582212,13.1901665 62.8643197,13.1901665 C61.4976342,13.1901665 60.4289159,12.3128131 60.2007812,10.7409601 L66.0011141,10.7409601 C66.5444382,10.7409601 67,10.3021604 67,9.68050697 C67,7.45057746 65.5455522,4.92778666 62.6015046,4.92778666 C59.9556601,4.92778666 58.0805667,7.19438536 58.0805667,9.95466451 L58.0805667,9.9913337 C58.0805667,12.9708897 60.1484069,15 62.8294035,15 C64.2663932,15 65.3178893,14.5063195 66.1589447,13.72027 L66.1589447,13.72027 Z" id="Fill-1" fill="#030060"></path>
            <g id="Group-4">
                <mask id="mask-2" fill="white">
                    <use xlink:href="#path-1"></use>
                </mask>
                <g id="Clip-3"></g>
                <path d="M8.68744595,14.5405413 C10.6544909,13.5649687 12,11.5915112 12,9.31636202 C12,6.07252388 9.26504479,3.44227578 5.89152197,3.44227578 C4.52034181,3.44227578 3.25480793,3.87689217 2.23537065,4.61058921 L2.23537065,1.05770107 C2.23537065,0.476155373 1.74046224,0 1.11695169,0 C0.493934821,0 0.0167986821,0.476630104 0.0167986821,1.05770107 L0.0167986821,1.80184219 L0,9.32158406 C-0.0041824725,11.2003327 0.951817666,12.865215 2.41753644,13.8939574 C2.4777647,13.9362085 2.55848043,13.9312238 2.6127846,13.8823265 C2.66758244,13.8334292 2.6779496,13.7558106 2.63746831,13.6950451 C0.724974359,10.8146136 1.16014819,5.53963813 5.89176881,5.53963813 C8.05899866,5.53963813 9.80709909,7.22944376 9.81623206,9.31351363 C9.82240299,10.8599505 9.11620201,12.0365717 8.19549958,12.7781018 C6.36026565,14.2561773 3.64974731,12.6382934 4.49738595,10.4697214 C4.5894562,10.2335427 4.71879884,9.9959397 4.88664808,9.76189723 L5.12361171,9.47705853 C5.19766284,9.39967734 5.25048599,9.29903433 5.2146946,9.19411874 C5.01401603,8.62800181 3.46832203,8.97526767 3.04005964,10.0315445 C3.34292878,9.79631524 3.65986763,9.66433998 3.96940137,9.71489885 C2.38890334,11.275815 3.44141679,13.9563846 5.46005069,14.7513219 C6.40494316,15.1232738 7.55964718,15.0976383 8.68744595,14.5405413" id="Fill-2" fill="url(#linearGradient-3)" mask="url(#mask-2)"></path>
            </g>
        </g>
        <text id="Clone" font-family="Helvetica-Bold, Helvetica" font-size="24" font-weight="bold" fill="#0055C2">
            <tspan x="569" y="77.1003236">Clone</tspan>
        </text>
        <text id="Another-GitHub-user’" font-family="Helvetica" font-size="21" font-weight="normal" fill="#0055C2">
            <tspan x="31.4970703" y="546">Another GitHub user’s </tspan>
            <tspan x="58.546875" y="571">public repository</tspan>
        </text>
        <text id="Your-GitHub-Account" font-family="Helvetica" font-size="21" font-weight="normal" fill="#0055C2">
            <tspan x="263.688232" y="549">Your GitHub </tspan>
            <tspan x="282.560547" y="574">Account</tspan>
        </text>
        <g id="Group-Copy-2" transform="translate(284.000000, 212.000000)" fill-rule="nonzero">
            <path d="M74.4756234,11.7068732 C71.7078558,4.003485 54.7031467,0 37.8880107,0 C21.0728747,0 4.2577387,3.96553727 1.33831261,11.59303 C1.04118889,12.0433848 0.882965203,12.5712576 0.883337111,13.110939 L0.883337111,83.1814134 C0.865072098,83.3326538 0.865072098,83.4855456 0.883337111,83.6367861 C0.874159291,83.7694443 0.874159291,83.902579 0.883337111,84.0352372 C0.883337111,93.1996128 19.4994178,98 37.8880107,98 C56.2766036,98 74.8547696,93.1996128 74.8547696,84.0352372 C74.8639398,83.9089112 74.8639398,83.7820858 74.8547696,83.6557599 C74.8745946,83.4982669 74.8745946,83.3389064 74.8547696,83.1814134 L74.8547696,13.110939 C74.8644484,12.6163429 74.7329169,12.1292517 74.4756234,11.7068732 Z" id="Path" fill="url(#linearGradient-4)"></path>
            <path d="M37.8661768,0 C61.828307,0 74.8516911,6.91990847 74.8516911,10.4759725 C74.8756208,10.5866337 74.8756208,10.7016958 74.8516911,10.812357 C74.0671499,14.4645309 61.0213503,21 37.8661768,21 C14.7110032,21 1.66520359,14.3924485 0.880662375,10.812357 C0.865963677,10.7249607 0.865963677,10.6354512 0.880662375,10.5480549 C0.880662375,6.91990847 13.9040465,0 37.8661768,0 Z" id="Path" fill="#A1E0E9"></path>
        </g>
        <g id="Group-Copy-4" transform="translate(78.000000, 212.000000)" fill-rule="nonzero">
            <path d="M73.7439161,11.7068732 C70.9761485,4.003485 53.9714394,0 37.1563034,0 C20.3411674,0 3.52603138,3.96553727 0.606605288,11.59303 C0.309481569,12.0433848 0.151257886,12.5712576 0.151629794,13.110939 L0.151629794,83.1814134 C0.133364781,83.3326538 0.133364781,83.4855456 0.151629794,83.6367861 C0.142451973,83.7694443 0.142451973,83.902579 0.151629794,84.0352372 C0.151629794,93.1996128 18.7677105,98 37.1563034,98 C55.5448963,98 74.1230623,93.1996128 74.1230623,84.0352372 C74.1322325,83.9089112 74.1322325,83.7820858 74.1230623,83.6557599 C74.1428873,83.4982669 74.1428873,83.3389064 74.1230623,83.1814134 L74.1230623,13.110939 C74.1327411,12.6163429 74.0012096,12.1292517 73.7439161,11.7068732 Z" id="Path" fill="url(#linearGradient-5)"></path>
            <path d="M37.1344694,0 C61.0965997,0 74.1199838,6.91990847 74.1199838,10.4759725 C74.1439134,10.5866337 74.1439134,10.7016958 74.1199838,10.812357 C73.3354426,14.4645309 60.289643,21 37.1344694,21 C13.9792959,21 0.933496272,14.3924485 0.148955057,10.812357 C0.13425636,10.7249607 0.13425636,10.6354512 0.148955057,10.5480549 C0.148955057,6.91990847 13.1723392,0 37.1344694,0 Z" id="Path" fill="#D8D8D8"></path>
        </g>
        <rect id="Rectangle-Copy-5" stroke="#4F4F4F" x="34.5" y="200.5" width="160.842541" height="293"></rect>
        <rect id="Rectangle-Copy-6" stroke="#199ABD" x="240.5" y="200.5" width="160.842541" height="293"></rect>
        <g id="web-designer" transform="translate(93.000000, 470.000000)" fill-rule="nonzero">
            <path d="M40.1,34 L27.9,29 L27.9,29 L27.5,30.8 L26.5,35 C26.4,35.4 25.9,35.5 25.7,35.2 L21.7,31.1 L21.7,31.1 L17.8,35.3 C17.5,35.6 17.1,35.5 17,35.1 L16,30.9 L15.5,29 L15.5,29 L3.3,34 C1.3,34.8 0,36.8 0,38.9 L0,46 C0,47.1 0.9,47.9 1.9,47.9 L41.5,47.9 C42.6,47.9 43.4,47 43.4,46 L43.4,38.9 C43.4,36.8 42.1,34.8 40.1,34 Z" id="Path" fill="#444445"></path>
            <path d="M27.9,23.9 L27.9,26.6 L21.7,31.1 L15.5,26.6 L15.5,23.9 C15.7,24.1 15.9,24.2 16,24.3 L19.2,26.5 C19.5,26.7 19.9,26.9 20.3,26.9 L23,26.9 C23.4,26.9 23.8,26.8 24.1,26.5 L27.3,24.3 C27.5,24.2 27.7,24 27.9,23.9 Z" id="Path" fill="#F7BA49"></path>
            <path d="M29.5,6.3 L23.3,4.3 L16.6,4.7 L14.1,7.3 L13,10 L13,18.5 C13,20.8 14.1,23 16,24.3 L19.1,26.5 C19.4,26.7 19.8,26.9 20.3,26.9 L23,26.9 C23.4,26.9 23.8,26.8 24.1,26.5 L27.3,24.3 C29.2,23 30.4,20.8 30.4,18.5 L30.4,9.4 L29.5,6.3 Z" id="Path" fill="#FFCB66"></path>
            <path d="M27.9,26.6 L27.9,29 L27.5,30.9 L26.5,35.1 C26.4,35.5 25.9,35.6 25.7,35.3 L21.7,31.1 L27.9,26.6 Z M21.7,31.1 L17.8,35.3 C17.5,35.6 17.1,35.5 17,35.1 L16,30.9 L15.5,29 L15.5,26.6 L21.7,31.1 Z" id="Shape" fill="#E5E5E4"></path>
            <path d="M28.9,4.1 C28.9,4.1 26.8,-0.7 21.5,0.5 C21.5,0.5 17.2,0.5 15.7,0 C15.7,0 15.7,1 16.5,1.9 C16.5,1.9 7,4 13.1,16.6 C13.1,16.6 11.7,5 19.8,6.7 C19.8,6.7 21.4,9.4 25.7,7.4 C25.7,7.4 30,6 30,10 L30.2,16.6 C30.3,16.6 36.6,7.3 28.9,4.1 Z" id="Path" fill="#EA715F"></path>
        </g>
        <g id="programmer" transform="translate(301.000000, 470.000000)" fill-rule="nonzero">
            <path d="M26,27.2353866 C21.331048,30.9257494 16.668952,30.9173239 12,27.2353866 C13.1243879,26.5697732 14.2693438,25.5924168 15.4554358,24 C17.8893242,26.3170086 20.2615083,26.3844125 22.5377081,24 C23.7306562,25.5839913 24.8756121,26.5697732 26,27.2353866 Z" id="Path" fill="#E9E9E9"></path>
            <path d="M38.9455925,48 L0.0544075426,47.992674 C-0.164166946,43.0695971 0.26544498,38.4249084 1.53166961,34.1025641 C2.0894114,32.1978022 3.54406231,30.6593407 5.45847335,29.970696 C7.57638478,29.2161172 9.65661095,29.018315 11.8046706,28 C16.9374025,31.2014652 22.0625975,31.2087912 27.1953294,28 C29.3509261,29.018315 31.4236152,29.2161172 33.5415266,29.970696 C35.4559377,30.6520147 36.9105886,32.1978022 37.4683304,34.1025641 C38.734555,38.4249084 39.1641669,43.0769231 38.9455925,48 Z" id="Path" fill="#7CA3C2"></path>
            <path d="M21.8296225,24 L22,25.734975 C19.428848,27.4457692 16.7415295,27.3974075 14,25.734975 L14.1626331,24 L21.8296225,24 Z" id="Path" fill="#EAB353"></path>
            <path d="M26.2672633,12.255479 C26.2672633,12.2163431 26.2672633,12.1693801 26.2672633,12.1302442 C26.2672633,5.22667502 22.7914496,1 18.503108,1 C14.2147663,1 10.7389526,5.22667502 10.7389526,12.122417 C10.7389526,12.1615529 10.7389526,12.208516 10.7389526,12.2476518 C8.06061998,11.1361929 8.60230524,17.1552912 11.4988167,17.7971196 C12.7552255,22.3994991 15.4185114,26 18.503108,26 C21.5877045,26 24.2509904,22.3994991 25.4998758,17.8049468 C28.3963873,17.1631183 28.9380725,11.14402 26.2672633,12.255479 Z" id="Path" fill="#FFCC66"></path>
            <path d="M12.1566535,14 C12.3298688,11.8907737 11.8328161,9.98901219 12.5783952,8.3154621 C15.9899842,10.5629984 19.2810756,9.98209669 23.7319566,7.19515172 C24.1536983,9.38044852 24.8917462,12.3471964 26.3904355,13.6611407 C29.4028761,8.18406768 28.0096223,2.00852955 23.68677,2.12609299 C20.2676499,-1.46996505 15.0636587,-0.266668707 11.38095,3.95178399 C10.4696868,4.98910842 9.95757185,6.29613721 10.0027585,7.62391248 C10.0780695,9.86453326 10.7935241,12.3057034 11.5466343,13.7925351 L12.1566535,14 Z" id="Path" fill="#5E5E61"></path>
        </g>
        <line x1="33.5" y1="90.5" x2="401.5" y2="90.5" id="Line-8" stroke="#0055C2" stroke-linecap="square"></line>
        <line x1="415.5" y1="90.5" x2="771.5" y2="90.5" id="Line-8-Copy" stroke="#0055C2" stroke-linecap="square"></line>
        <g id="Path-2-Copy-6">
            <use fill="black" fill-opacity="1" filter="url(#filter-7)" xlink:href="#path-6"></use>
            <use fill="#A1E0E9" fill-rule="evenodd" xlink:href="#path-6"></use>
        </g>
        <text id="Fork" font-family="Helvetica" font-size="21" font-weight="normal" fill="#0055C2">
            <tspan x="196" y="269">Fork</tspan>
        </text>
        <text id="Fork" font-family="Helvetica-Bold, Helvetica" font-size="24" font-weight="bold" fill="#0055C2">
            <tspan x="188" y="77">Fork</tspan>
        </text>
        <g id="Group-2-Copy-2" transform="translate(25.000000, 164.000000)" fill-rule="nonzero">
            <g id="Group-2-Copy" transform="translate(0.000000, 25.000000)">
                <path d="M47,21.8540475 C47,27.1725832 42.9257072,31.5 37.9162716,31.5 L10.4661197,31.5 C8.06577585,31.512661 5.75861652,30.496248 4.05035207,28.6733098 C2.34065404,26.8866755 1.37741201,24.4246454 1.38235294,21.8540475 C1.38235294,17.8113737 3.74104949,14.2282057 7.29079403,12.8242687 C9.03123465,5.39336609 15.1576416,0.141518259 22.2473341,0.00281018964 C29.3370266,-0.13589788 35.6352149,4.87286583 37.6232481,12.2308218 C37.8041268,12.2181121 37.908132,12.2181121 37.9162716,12.2181121 C38.0519306,12.2181121 38.1875896,12.2181121 38.3214399,12.2278888 C40.5770052,12.3229185 42.7189219,13.3229292 44.329326,15.0328298 C46.0366189,16.8222976 47,19.283341 47,21.8540475 Z" id="Path" fill="#C5DDFF"></path>
                <path d="M6.91176471,12 C6.83864276,12.3117978 6.76900282,12.6235955 6.70632686,12.9438202 C6.30937917,13.1207865 5.91939547,13.3019663 5.52941176,13.5 C5.97510742,12.9803371 6.43589174,12.4803371 6.91176471,12 Z" id="Path" fill="#607D8B"></path>
                <path d="M29.0294118,14.9644032 C29.6850637,14.2828701 30.4707216,13.6995241 31.3536886,13.2386425 C32.2496024,12.7714209 33.2278224,12.4289381 34.2512368,12.2241874 C36.3326902,11.8178043 38.5111357,11.9663945 40.4894623,12.6496924 C42.4672769,13.3229504 44.1646951,14.4801644 45.3660338,15.9742927 C45.9556606,16.7132646 46.4009303,17.5281855 46.6846656,18.3876184 C46.9612031,19.2372017 47.0569941,20.121854 46.9675368,21 C46.7982827,19.292525 46.0512642,17.6629825 44.8164246,16.3075746 C43.6057794,14.9793801 42.000099,13.9490566 40.1646443,13.3226478 C38.3334468,12.6924714 36.332385,12.5053646 34.3835302,12.782092 C32.3969496,13.0791653 30.5447752,13.8341021 29.0294118,14.9644032 L29.0294118,14.9644032 Z" id="Path" fill="#7BB2FF"></path>
                <path d="M5.52941176,15.0102015 C5.62458811,14.9585123 5.72059934,14.9088502 5.81828032,14.8602015 C5.72143422,14.9078366 5.62458811,14.9585123 5.52941176,15.0102015 Z M6.59304918,12.9804786 C6.65650008,12.7915617 6.72384708,12.6026448 6.79509019,12.413728 C6.72384708,12.5994962 6.65650008,12.7884131 6.59304918,12.9804786 Z M11.0588235,6 C10.9324783,6.11586902 10.8078029,6.23394207 10.6847972,6.35421914 C10.8066897,6.2361461 10.9344264,6.11618388 11.0588235,6 Z" id="Shape" fill="#55717C"></path>
                <path d="M42.8529412,30.2389035 C41.1515607,32.0174629 38.9022818,33.0053332 36.5663494,33 L9.09181594,33 C7.41665322,33.0064228 5.77220112,32.5004465 4.33862751,31.5374449 C4.26319445,31.4864823 4.18896831,31.4348491 4.1159491,31.3825453 C4.04262816,31.3302415 3.96930722,31.2759261 3.89689147,31.2206048 C3.82447573,31.1652835 3.75749116,31.1119739 3.6896014,31.0566527 L3.68235983,31.0506176 C3.61084928,30.9932846 3.54114913,30.93394 3.47144897,30.8735895 C3.40174882,30.813239 3.34019544,30.7579177 3.27502127,30.6985731 L3.24514977,30.6714154 C3.19898473,30.6281642 3.15463009,30.5859188 3.10846505,30.540656 L3.02880774,30.464212 C2.99169467,30.4280017 2.95639199,30.3927973 2.92018412,30.3545753 C2.83600082,30.2700846 2.75272271,30.1815705 2.6703498,30.0920507 C0.959133195,28.2539384 -0.00496439572,25.7209702 0,23.0763061 C0,22.9988564 0,22.9214066 0,22.8449626 C0,22.7936647 0,22.7443785 0,22.6880513 C0,22.5582978 0.0108815871,22.4315617 0.020838752,22.302814 C0.020838752,22.239446 0.02989072,22.1750722 0.0362270977,22.1117041 C0.0425634753,22.0483361 0.0452790657,22.01112 0.0516154433,21.953787 C0.057951821,21.8964541 0.0642881986,21.8310744 0.0724349699,21.769718 C0.0941596932,21.5859843 0.121013865,21.4035917 0.152997486,21.2225403 C0.16023906,21.1782832 0.168385831,21.1360379 0.176532602,21.0917809 C0.191920948,21.0103077 0.208214491,20.9298404 0.223602836,20.8493731 C0.236275592,20.7940518 0.24804315,20.7387305 0.260715905,20.684415 C0.273388661,20.6300996 0.287871809,20.5667316 0.302354958,20.5083928 C0.312312123,20.4661474 0.322269288,20.4259138 0.33313165,20.3856801 C0.343994011,20.3454465 0.353045979,20.3092362 0.363908341,20.2700083 C0.374770703,20.2307805 0.387443458,20.183506 0.400116213,20.139249 C0.412788969,20.0949919 0.422746133,20.0597875 0.435418889,20.0205597 C0.490334162,19.8348143 0.550680615,19.6514158 0.61645825,19.4703643 C0.636372579,19.4140372 0.657192106,19.3577101 0.678011632,19.3023888 C0.698831159,19.2470675 0.719650686,19.1907404 0.742280606,19.1354191 C0.764910526,19.0800978 0.785730052,19.0247766 0.809265169,18.9704611 C0.832800286,18.9161457 0.854525009,18.8608244 0.878965323,18.8075148 C0.903405637,18.7542052 0.926035557,18.6988839 0.951381068,18.6455743 C0.976726578,18.5922647 1.0002617,18.5379493 1.0265124,18.4856455 C1.05276311,18.4333418 1.07720342,18.3790263 1.10435933,18.3267226 C1.15686074,18.2261384 1.21117255,18.1165017 1.26729475,18.0129 C1.32341695,17.9092983 1.37591837,17.8187726 1.43113537,17.7232177 C1.61301827,17.4150094 1.81004636,17.1181715 2.02132369,16.8340538 C2.05119519,16.7928143 2.08106668,16.7535864 2.11184337,16.7133528 C2.22589817,16.5691822 2.34327202,16.4286996 2.46396493,16.2919052 C2.49383642,16.2567007 2.52280272,16.223508 2.55448461,16.191321 C2.6619013,16.0692789 2.77263704,15.9505896 2.88669184,15.8352531 L2.97268553,15.7487508 C3.10967198,15.6146386 3.25058095,15.4828733 3.39541244,15.3534551 L3.48593212,15.2760053 C3.56196865,15.2116314 3.63981558,15.1472576 3.7176625,15.0848954 C3.75387038,15.055726 3.79007825,15.0275624 3.82628612,15.0004047 C3.90684864,14.9370367 3.98922155,14.8756803 4.07159445,14.8153299 C4.11323351,14.7841488 4.15668295,14.7549794 4.2001324,14.7248041 L4.313282,14.6473543 L4.40380168,14.5890155 C4.44996672,14.5578344 4.49432136,14.5276592 4.54410719,14.4984898 L4.56040073,14.4884314 C4.60475537,14.459262 4.65092041,14.4321042 4.69618025,14.4049465 C4.74144009,14.3777888 4.7948467,14.3456019 4.84463253,14.3174383 L4.9948952,14.2319418 L5.14696826,14.1504686 L5.30175691,14.0710071 C5.40494935,14.0197092 5.50904698,13.970423 5.61495501,13.9221426 C5.72086303,13.8738622 5.81862429,13.8316169 5.92091153,13.7893715 C5.93811027,13.7139334 5.9562142,13.6395011 5.97431814,13.564063 C6.00147404,13.4534205 6.02862995,13.3417721 6.05759625,13.2331412 C6.08656254,13.1245103 6.11552884,13.0128619 6.14811593,12.9032252 C6.18070301,12.7935884 6.20966931,12.6849575 6.23863561,12.5763267 C6.2676019,12.4676958 6.30380978,12.3610766 6.33820725,12.2554632 C6.33859976,12.2534752 6.33859976,12.2514162 6.33820725,12.2494282 C6.37169954,12.148844 6.40428662,12.0482599 6.4395893,11.9476757 C6.4395893,11.9406348 6.4395893,11.9325881 6.44683087,11.9245414 C6.51683276,11.7233731 6.58985197,11.5222048 6.6658885,11.3210365 L6.68489763,11.2717502 C6.71838991,11.1852479 6.75188219,11.0987455 6.78718487,11.013249 L6.81162518,10.9528985 C6.84421227,10.873437 6.87679935,10.7939755 6.91029164,10.714514 L6.94287872,10.6390759 C6.97999179,10.5535794 7.01619966,10.4690887 7.05421793,10.384598 L7.07322706,10.3413468 C7.11577131,10.2467977 7.15922076,10.1522486 7.2026702,10.0587054 C7.24611965,9.96516212 7.29318988,9.87061301 7.33663933,9.77706975 L7.3737524,9.70263748 C7.40633948,9.63826363 7.43711618,9.57388977 7.47151365,9.51052176 C7.49414358,9.46425305 7.5167735,9.41798434 7.54211901,9.37272147 C7.56746452,9.3274586 7.60276719,9.25503801 7.63263869,9.19669921 C7.64621664,9.17155317 7.65979459,9.14640713 7.67337254,9.12126109 C7.71591679,9.03978793 7.76389222,8.95932061 7.80643647,8.87885329 C7.84898072,8.79838597 7.89695615,8.71791865 7.94402639,8.63745133 C7.98023426,8.576095 8.01553693,8.51373282 8.05265,8.45338233 L8.11329819,8.35279818 C8.14588527,8.29948858 8.17847236,8.24617898 8.21196464,8.19387522 C8.24545692,8.14157147 8.27623361,8.09329107 8.3097259,8.03897563 C8.34321818,7.98466019 8.35408054,7.96856673 8.37761566,7.93235643 C8.41472873,7.87401762 8.45274699,7.81366713 8.49257565,7.75633417 L8.54055108,7.68391358 C8.58490573,7.6165222 8.63107076,7.54913082 8.6763306,7.48274528 C8.76503989,7.35466813 8.85555957,7.22726154 8.94788964,7.10052551 C8.9886235,7.04419838 9.03026255,6.98787126 9.07190161,6.93154413 C9.16483514,6.80749035 9.25988081,6.68410712 9.3570386,6.56139446 C9.39686726,6.51009654 9.43760112,6.46081031 9.47924017,6.40850655 L9.51635324,6.36324368 C9.57428583,6.29182894 9.63312363,6.22041419 9.69196142,6.15000528 L9.71187575,6.12687093 C9.77704992,6.04942113 9.84312928,5.97297718 9.91101904,5.89653322 C10.2215015,5.54247701 10.5446568,5.20149674 10.8850108,4.87660994 C11.0183765,4.74853278 11.1535525,4.6228026 11.290539,4.49941937 C11.3756275,4.42297542 11.4616212,4.34854315 11.5476149,4.27411087 C11.5578995,4.26392548 11.5687862,4.25451659 11.580202,4.24594731 C11.6707216,4.16849752 11.7612413,4.0930594 11.851761,4.01862713 C11.9422807,3.94419486 12.0391367,3.86775091 12.1341824,3.79331863 L12.1396136,3.79331863 C12.2364696,3.71788052 12.3342309,3.64445409 12.431087,3.57102766 C12.527943,3.49760123 12.6284199,3.42719233 12.7270863,3.35678342 C12.9256261,3.21663617 13.1271833,3.08252397 13.3317578,2.95444682 C13.434045,2.89007296 13.5363322,2.82569911 13.6395247,2.76333693 C13.7427171,2.70097476 13.8459096,2.63961843 13.9509124,2.58027378 C14.0052242,2.54808685 14.0613464,2.5179116 14.1165634,2.48773636 C14.7963998,2.1026217 15.5003587,1.77251909 16.2229564,1.5 C15.9441558,1.72229097 8.73697879,5.44591623 9.02845216,13.2250944 C6.32426218,14.3136717 4.12889556,16.567126 2.93828805,19.4763994 C2.47135822,22.6358948 3.42507787,25.8493587 5.49184824,28.0803676 C7.20112947,29.9554302 9.50963516,31.0011055 11.911504,30.9882554 L39.3869426,30.9882554 C40.5750367,30.9901372 41.7521553,30.7356431 42.8529412,30.2389035 Z" id="Path" fill="#7BB2FF"></path>
            </g>
            <g id="github-copy-9" transform="translate(32.000000, 0.000000)" fill="#000000">
                <path d="M16.4999251,0 C8.40813018,0.000344065294 1.51075595,6.01787935 0.214555854,14.2079842 C-1.08164424,22.398089 3.60591312,30.3433918 11.2823332,32.9676143 C12.1072542,33.1156747 12.4165995,32.608172 12.4165995,32.1640415 C12.4165995,31.7622721 12.39596,30.430016 12.39596,29.0132072 C8.25071581,29.7956165 7.1783186,27.977072 6.84835022,27.0254727 C6.48221027,26.0999681 5.90179553,25.2798025 5.15726231,24.6358502 C4.57981766,24.3186504 3.75489673,23.5362242 5.13662279,23.5151114 C6.20738061,23.63425 7.15415912,24.2814387 7.67327116,25.2490862 C8.12900926,26.0885769 8.89184061,26.7075707 9.79337162,26.9694257 C10.6949026,27.2312808 11.6610011,27.114465 12.4784026,26.6447652 C12.549826,25.7847268 12.9236282,24.9806117 13.5302098,24.3821411 C9.85931163,23.959208 6.02342929,22.5000213 6.02342929,16.0292134 C6.00024524,14.3478777 6.60530432,12.7211619 7.7145172,11.4826831 C7.21013051,10.0213977 7.26914726,8.41774433 7.87950139,6.99959273 C7.87950139,6.99959273 9.26119445,6.55549611 12.4165665,8.73361824 C15.1161831,7.97229358 17.9661593,7.97229358 20.6657758,8.73361824 C23.8210654,6.53436638 25.202841,6.99959273 25.202841,6.99959273 C25.8132779,8.41772473 25.8722959,10.0214108 25.3678251,11.4826831 C26.4803782,12.7190421 27.0859655,14.3471783 27.0589131,16.0292134 C27.0589131,22.5211849 23.2023747,23.959208 19.5315096,24.3821411 C20.3282059,25.2101395 20.7346234,26.3523065 20.6451528,27.5118457 C20.6451528,29.7745713 20.6245133,31.5931158 20.6245133,32.1641092 C20.6245133,32.6082058 20.9338586,33.1368552 21.7587796,32.967682 C29.4210508,30.3222657 34.0870933,22.3755405 32.7820168,14.1940347 C31.4769403,6.01252892 24.5848693,0.00431475649 16.4999251,0 Z" id="Path"></path>
            </g>
        </g>
        <g id="Group-2-Copy-3" transform="translate(232.000000, 164.000000)" fill-rule="nonzero">
            <g id="Group-2-Copy" transform="translate(0.000000, 25.000000)">
                <path d="M47,21.8540475 C47,27.1725832 42.9257072,31.5 37.9162716,31.5 L10.4661197,31.5 C8.06577585,31.512661 5.75861652,30.496248 4.05035207,28.6733098 C2.34065404,26.8866755 1.37741201,24.4246454 1.38235294,21.8540475 C1.38235294,17.8113737 3.74104949,14.2282057 7.29079403,12.8242687 C9.03123465,5.39336609 15.1576416,0.141518259 22.2473341,0.00281018964 C29.3370266,-0.13589788 35.6352149,4.87286583 37.6232481,12.2308218 C37.8041268,12.2181121 37.908132,12.2181121 37.9162716,12.2181121 C38.0519306,12.2181121 38.1875896,12.2181121 38.3214399,12.2278888 C40.5770052,12.3229185 42.7189219,13.3229292 44.329326,15.0328298 C46.0366189,16.8222976 47,19.283341 47,21.8540475 Z" id="Path" fill="#C5DDFF"></path>
                <path d="M6.91176471,12 C6.83864276,12.3117978 6.76900282,12.6235955 6.70632686,12.9438202 C6.30937917,13.1207865 5.91939547,13.3019663 5.52941176,13.5 C5.97510742,12.9803371 6.43589174,12.4803371 6.91176471,12 Z" id="Path" fill="#607D8B"></path>
                <path d="M29.0294118,14.9644032 C29.6850637,14.2828701 30.4707216,13.6995241 31.3536886,13.2386425 C32.2496024,12.7714209 33.2278224,12.4289381 34.2512368,12.2241874 C36.3326902,11.8178043 38.5111357,11.9663945 40.4894623,12.6496924 C42.4672769,13.3229504 44.1646951,14.4801644 45.3660338,15.9742927 C45.9556606,16.7132646 46.4009303,17.5281855 46.6846656,18.3876184 C46.9612031,19.2372017 47.0569941,20.121854 46.9675368,21 C46.7982827,19.292525 46.0512642,17.6629825 44.8164246,16.3075746 C43.6057794,14.9793801 42.000099,13.9490566 40.1646443,13.3226478 C38.3334468,12.6924714 36.332385,12.5053646 34.3835302,12.782092 C32.3969496,13.0791653 30.5447752,13.8341021 29.0294118,14.9644032 L29.0294118,14.9644032 Z" id="Path" fill="#7BB2FF"></path>
                <path d="M5.52941176,15.0102015 C5.62458811,14.9585123 5.72059934,14.9088502 5.81828032,14.8602015 C5.72143422,14.9078366 5.62458811,14.9585123 5.52941176,15.0102015 Z M6.59304918,12.9804786 C6.65650008,12.7915617 6.72384708,12.6026448 6.79509019,12.413728 C6.72384708,12.5994962 6.65650008,12.7884131 6.59304918,12.9804786 Z M11.0588235,6 C10.9324783,6.11586902 10.8078029,6.23394207 10.6847972,6.35421914 C10.8066897,6.2361461 10.9344264,6.11618388 11.0588235,6 Z" id="Shape" fill="#55717C"></path>
                <path d="M42.8529412,30.2389035 C41.1515607,32.0174629 38.9022818,33.0053332 36.5663494,33 L9.09181594,33 C7.41665322,33.0064228 5.77220112,32.5004465 4.33862751,31.5374449 C4.26319445,31.4864823 4.18896831,31.4348491 4.1159491,31.3825453 C4.04262816,31.3302415 3.96930722,31.2759261 3.89689147,31.2206048 C3.82447573,31.1652835 3.75749116,31.1119739 3.6896014,31.0566527 L3.68235983,31.0506176 C3.61084928,30.9932846 3.54114913,30.93394 3.47144897,30.8735895 C3.40174882,30.813239 3.34019544,30.7579177 3.27502127,30.6985731 L3.24514977,30.6714154 C3.19898473,30.6281642 3.15463009,30.5859188 3.10846505,30.540656 L3.02880774,30.464212 C2.99169467,30.4280017 2.95639199,30.3927973 2.92018412,30.3545753 C2.83600082,30.2700846 2.75272271,30.1815705 2.6703498,30.0920507 C0.959133195,28.2539384 -0.00496439572,25.7209702 0,23.0763061 C0,22.9988564 0,22.9214066 0,22.8449626 C0,22.7936647 0,22.7443785 0,22.6880513 C0,22.5582978 0.0108815871,22.4315617 0.020838752,22.302814 C0.020838752,22.239446 0.02989072,22.1750722 0.0362270977,22.1117041 C0.0425634753,22.0483361 0.0452790657,22.01112 0.0516154433,21.953787 C0.057951821,21.8964541 0.0642881986,21.8310744 0.0724349699,21.769718 C0.0941596932,21.5859843 0.121013865,21.4035917 0.152997486,21.2225403 C0.16023906,21.1782832 0.168385831,21.1360379 0.176532602,21.0917809 C0.191920948,21.0103077 0.208214491,20.9298404 0.223602836,20.8493731 C0.236275592,20.7940518 0.24804315,20.7387305 0.260715905,20.684415 C0.273388661,20.6300996 0.287871809,20.5667316 0.302354958,20.5083928 C0.312312123,20.4661474 0.322269288,20.4259138 0.33313165,20.3856801 C0.343994011,20.3454465 0.353045979,20.3092362 0.363908341,20.2700083 C0.374770703,20.2307805 0.387443458,20.183506 0.400116213,20.139249 C0.412788969,20.0949919 0.422746133,20.0597875 0.435418889,20.0205597 C0.490334162,19.8348143 0.550680615,19.6514158 0.61645825,19.4703643 C0.636372579,19.4140372 0.657192106,19.3577101 0.678011632,19.3023888 C0.698831159,19.2470675 0.719650686,19.1907404 0.742280606,19.1354191 C0.764910526,19.0800978 0.785730052,19.0247766 0.809265169,18.9704611 C0.832800286,18.9161457 0.854525009,18.8608244 0.878965323,18.8075148 C0.903405637,18.7542052 0.926035557,18.6988839 0.951381068,18.6455743 C0.976726578,18.5922647 1.0002617,18.5379493 1.0265124,18.4856455 C1.05276311,18.4333418 1.07720342,18.3790263 1.10435933,18.3267226 C1.15686074,18.2261384 1.21117255,18.1165017 1.26729475,18.0129 C1.32341695,17.9092983 1.37591837,17.8187726 1.43113537,17.7232177 C1.61301827,17.4150094 1.81004636,17.1181715 2.02132369,16.8340538 C2.05119519,16.7928143 2.08106668,16.7535864 2.11184337,16.7133528 C2.22589817,16.5691822 2.34327202,16.4286996 2.46396493,16.2919052 C2.49383642,16.2567007 2.52280272,16.223508 2.55448461,16.191321 C2.6619013,16.0692789 2.77263704,15.9505896 2.88669184,15.8352531 L2.97268553,15.7487508 C3.10967198,15.6146386 3.25058095,15.4828733 3.39541244,15.3534551 L3.48593212,15.2760053 C3.56196865,15.2116314 3.63981558,15.1472576 3.7176625,15.0848954 C3.75387038,15.055726 3.79007825,15.0275624 3.82628612,15.0004047 C3.90684864,14.9370367 3.98922155,14.8756803 4.07159445,14.8153299 C4.11323351,14.7841488 4.15668295,14.7549794 4.2001324,14.7248041 L4.313282,14.6473543 L4.40380168,14.5890155 C4.44996672,14.5578344 4.49432136,14.5276592 4.54410719,14.4984898 L4.56040073,14.4884314 C4.60475537,14.459262 4.65092041,14.4321042 4.69618025,14.4049465 C4.74144009,14.3777888 4.7948467,14.3456019 4.84463253,14.3174383 L4.9948952,14.2319418 L5.14696826,14.1504686 L5.30175691,14.0710071 C5.40494935,14.0197092 5.50904698,13.970423 5.61495501,13.9221426 C5.72086303,13.8738622 5.81862429,13.8316169 5.92091153,13.7893715 C5.93811027,13.7139334 5.9562142,13.6395011 5.97431814,13.564063 C6.00147404,13.4534205 6.02862995,13.3417721 6.05759625,13.2331412 C6.08656254,13.1245103 6.11552884,13.0128619 6.14811593,12.9032252 C6.18070301,12.7935884 6.20966931,12.6849575 6.23863561,12.5763267 C6.2676019,12.4676958 6.30380978,12.3610766 6.33820725,12.2554632 C6.33859976,12.2534752 6.33859976,12.2514162 6.33820725,12.2494282 C6.37169954,12.148844 6.40428662,12.0482599 6.4395893,11.9476757 C6.4395893,11.9406348 6.4395893,11.9325881 6.44683087,11.9245414 C6.51683276,11.7233731 6.58985197,11.5222048 6.6658885,11.3210365 L6.68489763,11.2717502 C6.71838991,11.1852479 6.75188219,11.0987455 6.78718487,11.013249 L6.81162518,10.9528985 C6.84421227,10.873437 6.87679935,10.7939755 6.91029164,10.714514 L6.94287872,10.6390759 C6.97999179,10.5535794 7.01619966,10.4690887 7.05421793,10.384598 L7.07322706,10.3413468 C7.11577131,10.2467977 7.15922076,10.1522486 7.2026702,10.0587054 C7.24611965,9.96516212 7.29318988,9.87061301 7.33663933,9.77706975 L7.3737524,9.70263748 C7.40633948,9.63826363 7.43711618,9.57388977 7.47151365,9.51052176 C7.49414358,9.46425305 7.5167735,9.41798434 7.54211901,9.37272147 C7.56746452,9.3274586 7.60276719,9.25503801 7.63263869,9.19669921 C7.64621664,9.17155317 7.65979459,9.14640713 7.67337254,9.12126109 C7.71591679,9.03978793 7.76389222,8.95932061 7.80643647,8.87885329 C7.84898072,8.79838597 7.89695615,8.71791865 7.94402639,8.63745133 C7.98023426,8.576095 8.01553693,8.51373282 8.05265,8.45338233 L8.11329819,8.35279818 C8.14588527,8.29948858 8.17847236,8.24617898 8.21196464,8.19387522 C8.24545692,8.14157147 8.27623361,8.09329107 8.3097259,8.03897563 C8.34321818,7.98466019 8.35408054,7.96856673 8.37761566,7.93235643 C8.41472873,7.87401762 8.45274699,7.81366713 8.49257565,7.75633417 L8.54055108,7.68391358 C8.58490573,7.6165222 8.63107076,7.54913082 8.6763306,7.48274528 C8.76503989,7.35466813 8.85555957,7.22726154 8.94788964,7.10052551 C8.9886235,7.04419838 9.03026255,6.98787126 9.07190161,6.93154413 C9.16483514,6.80749035 9.25988081,6.68410712 9.3570386,6.56139446 C9.39686726,6.51009654 9.43760112,6.46081031 9.47924017,6.40850655 L9.51635324,6.36324368 C9.57428583,6.29182894 9.63312363,6.22041419 9.69196142,6.15000528 L9.71187575,6.12687093 C9.77704992,6.04942113 9.84312928,5.97297718 9.91101904,5.89653322 C10.2215015,5.54247701 10.5446568,5.20149674 10.8850108,4.87660994 C11.0183765,4.74853278 11.1535525,4.6228026 11.290539,4.49941937 C11.3756275,4.42297542 11.4616212,4.34854315 11.5476149,4.27411087 C11.5578995,4.26392548 11.5687862,4.25451659 11.580202,4.24594731 C11.6707216,4.16849752 11.7612413,4.0930594 11.851761,4.01862713 C11.9422807,3.94419486 12.0391367,3.86775091 12.1341824,3.79331863 L12.1396136,3.79331863 C12.2364696,3.71788052 12.3342309,3.64445409 12.431087,3.57102766 C12.527943,3.49760123 12.6284199,3.42719233 12.7270863,3.35678342 C12.9256261,3.21663617 13.1271833,3.08252397 13.3317578,2.95444682 C13.434045,2.89007296 13.5363322,2.82569911 13.6395247,2.76333693 C13.7427171,2.70097476 13.8459096,2.63961843 13.9509124,2.58027378 C14.0052242,2.54808685 14.0613464,2.5179116 14.1165634,2.48773636 C14.7963998,2.1026217 15.5003587,1.77251909 16.2229564,1.5 C15.9441558,1.72229097 8.73697879,5.44591623 9.02845216,13.2250944 C6.32426218,14.3136717 4.12889556,16.567126 2.93828805,19.4763994 C2.47135822,22.6358948 3.42507787,25.8493587 5.49184824,28.0803676 C7.20112947,29.9554302 9.50963516,31.0011055 11.911504,30.9882554 L39.3869426,30.9882554 C40.5750367,30.9901372 41.7521553,30.7356431 42.8529412,30.2389035 Z" id="Path" fill="#7BB2FF"></path>
            </g>
            <g id="github-copy-9" transform="translate(32.000000, 0.000000)" fill="#000000">
                <path d="M16.4999251,0 C8.40813018,0.000344065294 1.51075595,6.01787935 0.214555854,14.2079842 C-1.08164424,22.398089 3.60591312,30.3433918 11.2823332,32.9676143 C12.1072542,33.1156747 12.4165995,32.608172 12.4165995,32.1640415 C12.4165995,31.7622721 12.39596,30.430016 12.39596,29.0132072 C8.25071581,29.7956165 7.1783186,27.977072 6.84835022,27.0254727 C6.48221027,26.0999681 5.90179553,25.2798025 5.15726231,24.6358502 C4.57981766,24.3186504 3.75489673,23.5362242 5.13662279,23.5151114 C6.20738061,23.63425 7.15415912,24.2814387 7.67327116,25.2490862 C8.12900926,26.0885769 8.89184061,26.7075707 9.79337162,26.9694257 C10.6949026,27.2312808 11.6610011,27.114465 12.4784026,26.6447652 C12.549826,25.7847268 12.9236282,24.9806117 13.5302098,24.3821411 C9.85931163,23.959208 6.02342929,22.5000213 6.02342929,16.0292134 C6.00024524,14.3478777 6.60530432,12.7211619 7.7145172,11.4826831 C7.21013051,10.0213977 7.26914726,8.41774433 7.87950139,6.99959273 C7.87950139,6.99959273 9.26119445,6.55549611 12.4165665,8.73361824 C15.1161831,7.97229358 17.9661593,7.97229358 20.6657758,8.73361824 C23.8210654,6.53436638 25.202841,6.99959273 25.202841,6.99959273 C25.8132779,8.41772473 25.8722959,10.0214108 25.3678251,11.4826831 C26.4803782,12.7190421 27.0859655,14.3471783 27.0589131,16.0292134 C27.0589131,22.5211849 23.2023747,23.959208 19.5315096,24.3821411 C20.3282059,25.2101395 20.7346234,26.3523065 20.6451528,27.5118457 C20.6451528,29.7745713 20.6245133,31.5931158 20.6245133,32.1641092 C20.6245133,32.6082058 20.9338586,33.1368552 21.7587796,32.967682 C29.4210508,30.3222657 34.0870933,22.3755405 32.7820168,14.1940347 C31.4769403,6.01252892 24.5848693,0.00431475649 16.4999251,0 Z" id="Path"></path>
            </g>
        </g>
        <g id="Group-2-Copy-4" transform="translate(517.000000, 164.000000)" fill-rule="nonzero">
            <g id="Group-2-Copy" transform="translate(0.000000, 25.000000)">
                <path d="M47,21.8540475 C47,27.1725832 42.9257072,31.5 37.9162716,31.5 L10.4661197,31.5 C8.06577585,31.512661 5.75861652,30.496248 4.05035207,28.6733098 C2.34065404,26.8866755 1.37741201,24.4246454 1.38235294,21.8540475 C1.38235294,17.8113737 3.74104949,14.2282057 7.29079403,12.8242687 C9.03123465,5.39336609 15.1576416,0.141518259 22.2473341,0.00281018964 C29.3370266,-0.13589788 35.6352149,4.87286583 37.6232481,12.2308218 C37.8041268,12.2181121 37.908132,12.2181121 37.9162716,12.2181121 C38.0519306,12.2181121 38.1875896,12.2181121 38.3214399,12.2278888 C40.5770052,12.3229185 42.7189219,13.3229292 44.329326,15.0328298 C46.0366189,16.8222976 47,19.283341 47,21.8540475 Z" id="Path" fill="#C5DDFF"></path>
                <path d="M6.91176471,12 C6.83864276,12.3117978 6.76900282,12.6235955 6.70632686,12.9438202 C6.30937917,13.1207865 5.91939547,13.3019663 5.52941176,13.5 C5.97510742,12.9803371 6.43589174,12.4803371 6.91176471,12 Z" id="Path" fill="#607D8B"></path>
                <path d="M29.0294118,14.9644032 C29.6850637,14.2828701 30.4707216,13.6995241 31.3536886,13.2386425 C32.2496024,12.7714209 33.2278224,12.4289381 34.2512368,12.2241874 C36.3326902,11.8178043 38.5111357,11.9663945 40.4894623,12.6496924 C42.4672769,13.3229504 44.1646951,14.4801644 45.3660338,15.9742927 C45.9556606,16.7132646 46.4009303,17.5281855 46.6846656,18.3876184 C46.9612031,19.2372017 47.0569941,20.121854 46.9675368,21 C46.7982827,19.292525 46.0512642,17.6629825 44.8164246,16.3075746 C43.6057794,14.9793801 42.000099,13.9490566 40.1646443,13.3226478 C38.3334468,12.6924714 36.332385,12.5053646 34.3835302,12.782092 C32.3969496,13.0791653 30.5447752,13.8341021 29.0294118,14.9644032 L29.0294118,14.9644032 Z" id="Path" fill="#7BB2FF"></path>
                <path d="M5.52941176,15.0102015 C5.62458811,14.9585123 5.72059934,14.9088502 5.81828032,14.8602015 C5.72143422,14.9078366 5.62458811,14.9585123 5.52941176,15.0102015 Z M6.59304918,12.9804786 C6.65650008,12.7915617 6.72384708,12.6026448 6.79509019,12.413728 C6.72384708,12.5994962 6.65650008,12.7884131 6.59304918,12.9804786 Z M11.0588235,6 C10.9324783,6.11586902 10.8078029,6.23394207 10.6847972,6.35421914 C10.8066897,6.2361461 10.9344264,6.11618388 11.0588235,6 Z" id="Shape" fill="#55717C"></path>
                <path d="M42.8529412,30.2389035 C41.1515607,32.0174629 38.9022818,33.0053332 36.5663494,33 L9.09181594,33 C7.41665322,33.0064228 5.77220112,32.5004465 4.33862751,31.5374449 C4.26319445,31.4864823 4.18896831,31.4348491 4.1159491,31.3825453 C4.04262816,31.3302415 3.96930722,31.2759261 3.89689147,31.2206048 C3.82447573,31.1652835 3.75749116,31.1119739 3.6896014,31.0566527 L3.68235983,31.0506176 C3.61084928,30.9932846 3.54114913,30.93394 3.47144897,30.8735895 C3.40174882,30.813239 3.34019544,30.7579177 3.27502127,30.6985731 L3.24514977,30.6714154 C3.19898473,30.6281642 3.15463009,30.5859188 3.10846505,30.540656 L3.02880774,30.464212 C2.99169467,30.4280017 2.95639199,30.3927973 2.92018412,30.3545753 C2.83600082,30.2700846 2.75272271,30.1815705 2.6703498,30.0920507 C0.959133195,28.2539384 -0.00496439572,25.7209702 0,23.0763061 C0,22.9988564 0,22.9214066 0,22.8449626 C0,22.7936647 0,22.7443785 0,22.6880513 C0,22.5582978 0.0108815871,22.4315617 0.020838752,22.302814 C0.020838752,22.239446 0.02989072,22.1750722 0.0362270977,22.1117041 C0.0425634753,22.0483361 0.0452790657,22.01112 0.0516154433,21.953787 C0.057951821,21.8964541 0.0642881986,21.8310744 0.0724349699,21.769718 C0.0941596932,21.5859843 0.121013865,21.4035917 0.152997486,21.2225403 C0.16023906,21.1782832 0.168385831,21.1360379 0.176532602,21.0917809 C0.191920948,21.0103077 0.208214491,20.9298404 0.223602836,20.8493731 C0.236275592,20.7940518 0.24804315,20.7387305 0.260715905,20.684415 C0.273388661,20.6300996 0.287871809,20.5667316 0.302354958,20.5083928 C0.312312123,20.4661474 0.322269288,20.4259138 0.33313165,20.3856801 C0.343994011,20.3454465 0.353045979,20.3092362 0.363908341,20.2700083 C0.374770703,20.2307805 0.387443458,20.183506 0.400116213,20.139249 C0.412788969,20.0949919 0.422746133,20.0597875 0.435418889,20.0205597 C0.490334162,19.8348143 0.550680615,19.6514158 0.61645825,19.4703643 C0.636372579,19.4140372 0.657192106,19.3577101 0.678011632,19.3023888 C0.698831159,19.2470675 0.719650686,19.1907404 0.742280606,19.1354191 C0.764910526,19.0800978 0.785730052,19.0247766 0.809265169,18.9704611 C0.832800286,18.9161457 0.854525009,18.8608244 0.878965323,18.8075148 C0.903405637,18.7542052 0.926035557,18.6988839 0.951381068,18.6455743 C0.976726578,18.5922647 1.0002617,18.5379493 1.0265124,18.4856455 C1.05276311,18.4333418 1.07720342,18.3790263 1.10435933,18.3267226 C1.15686074,18.2261384 1.21117255,18.1165017 1.26729475,18.0129 C1.32341695,17.9092983 1.37591837,17.8187726 1.43113537,17.7232177 C1.61301827,17.4150094 1.81004636,17.1181715 2.02132369,16.8340538 C2.05119519,16.7928143 2.08106668,16.7535864 2.11184337,16.7133528 C2.22589817,16.5691822 2.34327202,16.4286996 2.46396493,16.2919052 C2.49383642,16.2567007 2.52280272,16.223508 2.55448461,16.191321 C2.6619013,16.0692789 2.77263704,15.9505896 2.88669184,15.8352531 L2.97268553,15.7487508 C3.10967198,15.6146386 3.25058095,15.4828733 3.39541244,15.3534551 L3.48593212,15.2760053 C3.56196865,15.2116314 3.63981558,15.1472576 3.7176625,15.0848954 C3.75387038,15.055726 3.79007825,15.0275624 3.82628612,15.0004047 C3.90684864,14.9370367 3.98922155,14.8756803 4.07159445,14.8153299 C4.11323351,14.7841488 4.15668295,14.7549794 4.2001324,14.7248041 L4.313282,14.6473543 L4.40380168,14.5890155 C4.44996672,14.5578344 4.49432136,14.5276592 4.54410719,14.4984898 L4.56040073,14.4884314 C4.60475537,14.459262 4.65092041,14.4321042 4.69618025,14.4049465 C4.74144009,14.3777888 4.7948467,14.3456019 4.84463253,14.3174383 L4.9948952,14.2319418 L5.14696826,14.1504686 L5.30175691,14.0710071 C5.40494935,14.0197092 5.50904698,13.970423 5.61495501,13.9221426 C5.72086303,13.8738622 5.81862429,13.8316169 5.92091153,13.7893715 C5.93811027,13.7139334 5.9562142,13.6395011 5.97431814,13.564063 C6.00147404,13.4534205 6.02862995,13.3417721 6.05759625,13.2331412 C6.08656254,13.1245103 6.11552884,13.0128619 6.14811593,12.9032252 C6.18070301,12.7935884 6.20966931,12.6849575 6.23863561,12.5763267 C6.2676019,12.4676958 6.30380978,12.3610766 6.33820725,12.2554632 C6.33859976,12.2534752 6.33859976,12.2514162 6.33820725,12.2494282 C6.37169954,12.148844 6.40428662,12.0482599 6.4395893,11.9476757 C6.4395893,11.9406348 6.4395893,11.9325881 6.44683087,11.9245414 C6.51683276,11.7233731 6.58985197,11.5222048 6.6658885,11.3210365 L6.68489763,11.2717502 C6.71838991,11.1852479 6.75188219,11.0987455 6.78718487,11.013249 L6.81162518,10.9528985 C6.84421227,10.873437 6.87679935,10.7939755 6.91029164,10.714514 L6.94287872,10.6390759 C6.97999179,10.5535794 7.01619966,10.4690887 7.05421793,10.384598 L7.07322706,10.3413468 C7.11577131,10.2467977 7.15922076,10.1522486 7.2026702,10.0587054 C7.24611965,9.96516212 7.29318988,9.87061301 7.33663933,9.77706975 L7.3737524,9.70263748 C7.40633948,9.63826363 7.43711618,9.57388977 7.47151365,9.51052176 C7.49414358,9.46425305 7.5167735,9.41798434 7.54211901,9.37272147 C7.56746452,9.3274586 7.60276719,9.25503801 7.63263869,9.19669921 C7.64621664,9.17155317 7.65979459,9.14640713 7.67337254,9.12126109 C7.71591679,9.03978793 7.76389222,8.95932061 7.80643647,8.87885329 C7.84898072,8.79838597 7.89695615,8.71791865 7.94402639,8.63745133 C7.98023426,8.576095 8.01553693,8.51373282 8.05265,8.45338233 L8.11329819,8.35279818 C8.14588527,8.29948858 8.17847236,8.24617898 8.21196464,8.19387522 C8.24545692,8.14157147 8.27623361,8.09329107 8.3097259,8.03897563 C8.34321818,7.98466019 8.35408054,7.96856673 8.37761566,7.93235643 C8.41472873,7.87401762 8.45274699,7.81366713 8.49257565,7.75633417 L8.54055108,7.68391358 C8.58490573,7.6165222 8.63107076,7.54913082 8.6763306,7.48274528 C8.76503989,7.35466813 8.85555957,7.22726154 8.94788964,7.10052551 C8.9886235,7.04419838 9.03026255,6.98787126 9.07190161,6.93154413 C9.16483514,6.80749035 9.25988081,6.68410712 9.3570386,6.56139446 C9.39686726,6.51009654 9.43760112,6.46081031 9.47924017,6.40850655 L9.51635324,6.36324368 C9.57428583,6.29182894 9.63312363,6.22041419 9.69196142,6.15000528 L9.71187575,6.12687093 C9.77704992,6.04942113 9.84312928,5.97297718 9.91101904,5.89653322 C10.2215015,5.54247701 10.5446568,5.20149674 10.8850108,4.87660994 C11.0183765,4.74853278 11.1535525,4.6228026 11.290539,4.49941937 C11.3756275,4.42297542 11.4616212,4.34854315 11.5476149,4.27411087 C11.5578995,4.26392548 11.5687862,4.25451659 11.580202,4.24594731 C11.6707216,4.16849752 11.7612413,4.0930594 11.851761,4.01862713 C11.9422807,3.94419486 12.0391367,3.86775091 12.1341824,3.79331863 L12.1396136,3.79331863 C12.2364696,3.71788052 12.3342309,3.64445409 12.431087,3.57102766 C12.527943,3.49760123 12.6284199,3.42719233 12.7270863,3.35678342 C12.9256261,3.21663617 13.1271833,3.08252397 13.3317578,2.95444682 C13.434045,2.89007296 13.5363322,2.82569911 13.6395247,2.76333693 C13.7427171,2.70097476 13.8459096,2.63961843 13.9509124,2.58027378 C14.0052242,2.54808685 14.0613464,2.5179116 14.1165634,2.48773636 C14.7963998,2.1026217 15.5003587,1.77251909 16.2229564,1.5 C15.9441558,1.72229097 8.73697879,5.44591623 9.02845216,13.2250944 C6.32426218,14.3136717 4.12889556,16.567126 2.93828805,19.4763994 C2.47135822,22.6358948 3.42507787,25.8493587 5.49184824,28.0803676 C7.20112947,29.9554302 9.50963516,31.0011055 11.911504,30.9882554 L39.3869426,30.9882554 C40.5750367,30.9901372 41.7521553,30.7356431 42.8529412,30.2389035 Z" id="Path" fill="#7BB2FF"></path>
            </g>
            <g id="github-copy-9" transform="translate(32.000000, 0.000000)" fill="#000000">
                <path d="M16.4999251,0 C8.40813018,0.000344065294 1.51075595,6.01787935 0.214555854,14.2079842 C-1.08164424,22.398089 3.60591312,30.3433918 11.2823332,32.9676143 C12.1072542,33.1156747 12.4165995,32.608172 12.4165995,32.1640415 C12.4165995,31.7622721 12.39596,30.430016 12.39596,29.0132072 C8.25071581,29.7956165 7.1783186,27.977072 6.84835022,27.0254727 C6.48221027,26.0999681 5.90179553,25.2798025 5.15726231,24.6358502 C4.57981766,24.3186504 3.75489673,23.5362242 5.13662279,23.5151114 C6.20738061,23.63425 7.15415912,24.2814387 7.67327116,25.2490862 C8.12900926,26.0885769 8.89184061,26.7075707 9.79337162,26.9694257 C10.6949026,27.2312808 11.6610011,27.114465 12.4784026,26.6447652 C12.549826,25.7847268 12.9236282,24.9806117 13.5302098,24.3821411 C9.85931163,23.959208 6.02342929,22.5000213 6.02342929,16.0292134 C6.00024524,14.3478777 6.60530432,12.7211619 7.7145172,11.4826831 C7.21013051,10.0213977 7.26914726,8.41774433 7.87950139,6.99959273 C7.87950139,6.99959273 9.26119445,6.55549611 12.4165665,8.73361824 C15.1161831,7.97229358 17.9661593,7.97229358 20.6657758,8.73361824 C23.8210654,6.53436638 25.202841,6.99959273 25.202841,6.99959273 C25.8132779,8.41772473 25.8722959,10.0214108 25.3678251,11.4826831 C26.4803782,12.7190421 27.0859655,14.3471783 27.0589131,16.0292134 C27.0589131,22.5211849 23.2023747,23.959208 19.5315096,24.3821411 C20.3282059,25.2101395 20.7346234,26.3523065 20.6451528,27.5118457 C20.6451528,29.7745713 20.6245133,31.5931158 20.6245133,32.1641092 C20.6245133,32.6082058 20.9338586,33.1368552 21.7587796,32.967682 C29.4210508,30.3222657 34.0870933,22.3755405 32.7820168,14.1940347 C31.4769403,6.01252892 24.5848693,0.00431475649 16.4999251,0 Z" id="Path"></path>
            </g>
        </g>
        <rect id="Rectangle-Copy-4" stroke="#006AE1" x="439.5" y="359.5" width="331" height="166"></rect>
        <rect id="Rectangle-Copy-5" stroke="#006AE1" x="449.5" y="397.5" width="310" height="117"></rect>
        <text id="$-git-clone" font-family="Helvetica" font-size="21" font-weight="normal" fill="#0055C2">
            <tspan x="606" y="328">$ git clone</tspan>
        </text>
        <g id="Group-Copy-3" transform="translate(572.000000, 208.000000)" fill-rule="nonzero">
            <path d="M60.6752039,9.55663117 C58.3936657,3.26815102 44.3762704,0 30.5151448,0 C16.6540191,0 2.79289353,3.23717328 0.386339588,9.46369797 C0.141413278,9.83133457 0.0109856476,10.2622511 0.0112922204,10.7028074 L0.0112922204,67.9031946 C-0.00376407347,68.0266562 -0.00376407347,68.1514658 0.0112922204,68.2749274 C0.00372671995,68.3832198 0.00372671995,68.4919012 0.0112922204,68.6001936 C0.0112922204,76.0813166 15.3569803,80 30.5151448,80 C45.6733092,80 60.9877434,76.0813166 60.9877434,68.6001936 C60.9953026,68.4970704 60.9953026,68.3935395 60.9877434,68.2904163 C61.0040855,68.1618505 61.0040855,68.0317603 60.9877434,67.9031946 L60.9877434,10.7028074 C60.9957218,10.2990554 60.8872972,9.90142993 60.6752039,9.55663117 Z" id="Path" fill="url(#linearGradient-8)"></path>
            <path d="M30.4971465,0 C50.2497133,0 60.9852057,5.64890487 60.9852057,8.55181432 C61.0049314,8.64214998 61.0049314,8.7360782 60.9852057,8.82641386 C60.3384893,11.8077803 49.5845193,17.1428571 30.4971465,17.1428571 C11.4097737,17.1428571 0.655803777,11.7489376 0.00908737032,8.82641386 C-0.00302912344,8.75506998 -0.00302912344,8.68200096 0.00908737032,8.61065708 C0.00908737032,5.64890487 10.7445797,0 30.4971465,0 Z" id="Path" fill="#A1E0E9"></path>
        </g>
        <g id="Group-Copy" transform="translate(652.000000, 373.000000)" fill-rule="nonzero">
            <path d="M59.8662012,9.55663117 C57.6150835,3.26815102 43.7845868,0 30.1082762,0 C16.4319656,0 2.75565495,3.23717328 0.381188393,9.46369797 C0.139527768,9.83133457 0.0108391723,10.2622511 0.0111416575,10.7028074 L0.0111416575,67.9031946 C-0.00371388583,68.0266562 -0.00371388583,68.1514658 0.0111416575,68.2749274 C0.00367703035,68.3832198 0.00367703035,68.4919012 0.0111416575,68.6001936 C0.0111416575,76.0813166 15.1522206,80 30.1082762,80 C45.0643317,80 60.1745734,76.0813166 60.1745734,68.6001936 C60.1820319,68.4970704 60.1820319,68.3935395 60.1745734,68.2904163 C60.1906977,68.1618505 60.1906977,68.0317603 60.1745734,67.9031946 L60.1745734,10.7028074 C60.1824455,10.2990554 60.0754666,9.90142993 59.8662012,9.55663117 Z" id="Path" fill="url(#linearGradient-9)"></path>
            <path d="M30.4971465,0.816326531 C50.2497133,0.816326531 60.9852057,6.4652314 60.9852057,9.36814085 C61.0049314,9.45847651 61.0049314,9.55240473 60.9852057,9.64274039 C60.3384893,12.6241069 49.5845193,17.9591837 30.4971465,17.9591837 C11.4097737,17.9591837 0.655803777,12.5652641 0.00908737032,9.64274039 C-0.00302912344,9.57139651 -0.00302912344,9.49832749 0.00908737032,9.42698361 C0.00908737032,6.4652314 10.7445797,0.816326531 30.4971465,0.816326531 Z" id="Path" fill="#7BB2FF"></path>
        </g>
        <g id="Path-Copy-6">
            <use fill="black" fill-opacity="1" filter="url(#filter-11)" xlink:href="#path-10"></use>
            <use stroke="#FFFFFF" stroke-width="1" fill="#199ABD" fill-rule="evenodd" xlink:href="#path-10"></use>
        </g>
        <g id="Path-Copy-8">
            <use fill="black" fill-opacity="1" filter="url(#filter-13)" xlink:href="#path-12"></use>
            <use stroke="#FFFFFF" stroke-width="1" fill="#199ABD" fill-rule="evenodd" xlink:href="#path-12"></use>
        </g>
        <g id="Path-Copy-9">
            <use fill="black" fill-opacity="1" filter="url(#filter-15)" xlink:href="#path-14"></use>
            <use stroke="#FFFFFF" stroke-width="1" fill="#199ABD" fill-rule="evenodd" xlink:href="#path-14"></use>
        </g>
        <path id="Line-2-Copy-3" d="M602,289.906863 L602,344 L606,344 L601.5,353 L597,344 L601,344 L601,289.906863 L602,289.906863 Z" fill="#0055C2" fill-rule="nonzero"></path>
        <text id="Remote-Repository" font-family="Helvetica" font-size="21" font-weight="normal" fill="#199ABD">
            <tspan x="474.234619" y="246">Remote </tspan>
            <tspan x="460.812256" y="271">Repository</tspan>
        </text>
        <text id="Local-Repository-（Co" font-family="Helvetica-Bold, Helvetica" font-size="18" font-weight="bold" fill="#0055C2">
            <tspan x="603.484863" y="470">Local Repository</tspan>
            <tspan x="749.515137" y="470" font-family="Helvetica" font-weight="normal"></tspan>
            <tspan x="611.167969" y="492" font-family="HiraginoSans-W3, Hiragino Sans" font-size="16" font-weight="300">（</tspan>
            <tspan x="627.167969" y="492" font-family="Helvetica" font-size="16" font-weight="normal">Commit History)</tspan>
        </text>
        <text id="Working-Tree-(Workin" font-family="Helvetica-Bold, Helvetica" font-size="18" font-weight="bold" fill="#0055C2">
            <tspan x="470.143555" y="468">Working Tree</tspan>
            <tspan x="583.856445" y="468" font-family="Helvetica" font-weight="normal"></tspan>
            <tspan x="495.136719" y="490" font-family="Helvetica" font-size="16" font-weight="normal">(Working </tspan>
            <tspan x="459.433594" y="509" font-family="Helvetica" font-size="16" font-weight="normal">Directories &amp; Files)</tspan>
        </text>
        <g id="documents-copy-25" transform="translate(600.000000, 248.000000)" fill-rule="nonzero">
            <path d="M26.2058824,7.2972973 L26.2058824,29.1891892 L6.35294118,29.1891892 L6.35294118,26.6872587 C6.35943582,26.6798154 23.245211,7.30717992 23.2537721,7.2972973 L26.2058824,7.2972973 Z" id="Path" fill="#A4C2F7"></path>
            <path d="M23.8235294,27.5675676 C23.0953509,27.5675676 0.447389452,27.5675676 0,27.5675676 C0,25.8591004 0,1.14064093 0,0 L17.2515213,0 L19.0314675,3.65381853 L23.8235294,5.25096525 C23.8235294,6.23361776 23.8235294,26.451278 23.8235294,27.5675676 Z" id="Path" fill="#FFFFFF"></path>
            <polygon id="Path" fill="#A4C2F7" points="23.8235294 6.48648649 17.4705882 6.48648649 17.4705882 0.810810811"></polygon>
            <path d="M23.0550285,27.5675676 L0.768500949,27.5675676 C0.344057875,27.5675676 0,27.2870049 0,26.9410319 L0,0.626535627 C0,0.2805 0.344057875,0 0.768500949,0 L16.9070209,0 C17.1108273,0 17.3062571,0.066036855 17.4504279,0.183512285 L23.5984355,5.1957973 C23.7425294,5.31327273 23.8235294,5.47266339 23.8235294,5.63882064 L23.8235294,26.9410319 C23.8235294,27.2870049 23.4793947,27.5675676 23.0550285,27.5675676 Z M1.5370019,26.3144963 L22.2865275,26.3144963 L22.2865275,5.8983317 L16.5886309,1.25307125 L1.5370019,1.25307125 L1.5370019,26.3144963 Z" id="Shape" fill="#418CFE"></path>
            <path d="M23.1530633,6.25 L16.9979646,6.25 C16.5731089,6.25 16.2285772,5.9701875 16.2285772,5.625 L16.2285772,0.625 C16.2285772,0.2798125 16.5731089,0 16.9979646,0 C17.4228203,0 17.7673519,0.2798125 17.7673519,0.625 L17.7673519,5 L23.1530633,5 C23.577919,5 23.9224506,5.2798125 23.9224506,5.625 C23.9224506,5.9701875 23.577919,6.25 23.1530633,6.25 Z M26.2306127,30 L5.53409322,30 C5.10916059,30 4.76470588,29.720125 4.76470588,29.375 L4.76470588,26.875 C4.76470588,26.529875 5.10916059,26.25 5.53409322,26.25 C5.95902585,26.25 6.30348056,26.529875 6.30348056,26.875 L6.30348056,28.75 L25.4612253,28.75 L25.4612253,8.125 L23.1530633,8.125 C22.7282076,8.125 22.383676,7.8451875 22.383676,7.5 C22.383676,7.1548125 22.7282076,6.875 23.1530633,6.875 L26.2306127,6.875 C26.6554683,6.875 27,7.1548125 27,7.5 L27,29.375 C27,29.720125 26.6554683,30 26.2306127,30 Z" id="Shape" fill="#418CFE"></path>
            <path d="M19.0933504,23.5135135 L3.14194373,23.5135135 C2.72242174,23.5135135 2.38235294,23.2329509 2.38235294,22.8869779 C2.38235294,22.5410049 2.72242174,22.2604423 3.14194373,22.2604423 L19.0933504,22.2604423 C19.5127964,22.2604423 19.8529412,22.5410049 19.8529412,22.8869779 C19.8529412,23.2329509 19.5127964,23.5135135 19.0933504,23.5135135 Z M19.0933504,21.007371 L3.14194373,21.007371 C2.72242174,21.007371 2.38235294,20.7268084 2.38235294,20.3808354 C2.38235294,20.0348624 2.72242174,19.7542998 3.14194373,19.7542998 L19.0933504,19.7542998 C19.5127964,19.7542998 19.8529412,20.0348624 19.8529412,20.3808354 C19.8529412,20.7268084 19.5127964,21.007371 19.0933504,21.007371 Z M19.0933504,18.5012285 L3.14194373,18.5012285 C2.72242174,18.5012285 2.38235294,18.2206658 2.38235294,17.8746929 C2.38235294,17.5287199 2.72242174,17.2481572 3.14194373,17.2481572 L19.0933504,17.2481572 C19.5127964,17.2481572 19.8529412,17.5287199 19.8529412,17.8746929 C19.8529412,18.2206658 19.5127964,18.5012285 19.0933504,18.5012285 Z M19.0933504,15.995086 L3.14194373,15.995086 C2.72242174,15.995086 2.38235294,15.714586 2.38235294,15.3685504 C2.38235294,15.0225147 2.72242174,14.7420147 3.14194373,14.7420147 L19.0933504,14.7420147 C19.5127964,14.7420147 19.8529412,15.0225147 19.8529412,15.3685504 C19.8529412,15.714586 19.5127964,15.995086 19.0933504,15.995086 Z M19.0933504,13.4889435 L3.14194373,13.4889435 C2.72242174,13.4889435 2.38235294,13.2084435 2.38235294,12.8624079 C2.38235294,12.5163722 2.72242174,12.2358722 3.14194373,12.2358722 L19.0933504,12.2358722 C19.5127964,12.2358722 19.8529412,12.5163722 19.8529412,12.8624079 C19.8529412,13.2084435 19.5127964,13.4889435 19.0933504,13.4889435 Z M9.97826087,10.982801 L3.14194373,10.982801 C2.72242174,10.982801 2.38235294,10.702301 2.38235294,10.3562654 C2.38235294,10.0102297 2.72242174,9.72972973 3.14194373,9.72972973 L9.97826087,9.72972973 C10.3977829,9.72972973 10.7378517,10.0102297 10.7378517,10.3562654 C10.7378517,10.702301 10.3977829,10.982801 9.97826087,10.982801 Z" id="Shape" fill="#418CFE"></path>
        </g>
        <g id="documents-copy-26" transform="translate(319.000000, 261.000000)" fill-rule="nonzero">
            <path d="M26.2058824,7.2972973 L26.2058824,29.1891892 L6.35294118,29.1891892 L6.35294118,26.6872587 C6.35943582,26.6798154 23.245211,7.30717992 23.2537721,7.2972973 L26.2058824,7.2972973 Z" id="Path" fill="#A4C2F7"></path>
            <path d="M23.8235294,27.5675676 C23.0953509,27.5675676 0.447389452,27.5675676 0,27.5675676 C0,25.8591004 0,1.14064093 0,0 L17.2515213,0 L19.0314675,3.65381853 L23.8235294,5.25096525 C23.8235294,6.23361776 23.8235294,26.451278 23.8235294,27.5675676 Z" id="Path" fill="#FFFFFF"></path>
            <polygon id="Path" fill="#A4C2F7" points="23.8235294 6.48648649 17.4705882 6.48648649 17.4705882 0.810810811"></polygon>
            <path d="M23.0550285,27.5675676 L0.768500949,27.5675676 C0.344057875,27.5675676 0,27.2870049 0,26.9410319 L0,0.626535627 C0,0.2805 0.344057875,0 0.768500949,0 L16.9070209,0 C17.1108273,0 17.3062571,0.066036855 17.4504279,0.183512285 L23.5984355,5.1957973 C23.7425294,5.31327273 23.8235294,5.47266339 23.8235294,5.63882064 L23.8235294,26.9410319 C23.8235294,27.2870049 23.4793947,27.5675676 23.0550285,27.5675676 Z M1.5370019,26.3144963 L22.2865275,26.3144963 L22.2865275,5.8983317 L16.5886309,1.25307125 L1.5370019,1.25307125 L1.5370019,26.3144963 Z" id="Shape" fill="#418CFE"></path>
            <path d="M23.1530633,6.25 L16.9979646,6.25 C16.5731089,6.25 16.2285772,5.9701875 16.2285772,5.625 L16.2285772,0.625 C16.2285772,0.2798125 16.5731089,0 16.9979646,0 C17.4228203,0 17.7673519,0.2798125 17.7673519,0.625 L17.7673519,5 L23.1530633,5 C23.577919,5 23.9224506,5.2798125 23.9224506,5.625 C23.9224506,5.9701875 23.577919,6.25 23.1530633,6.25 Z M26.2306127,30 L5.53409322,30 C5.10916059,30 4.76470588,29.720125 4.76470588,29.375 L4.76470588,26.875 C4.76470588,26.529875 5.10916059,26.25 5.53409322,26.25 C5.95902585,26.25 6.30348056,26.529875 6.30348056,26.875 L6.30348056,28.75 L25.4612253,28.75 L25.4612253,8.125 L23.1530633,8.125 C22.7282076,8.125 22.383676,7.8451875 22.383676,7.5 C22.383676,7.1548125 22.7282076,6.875 23.1530633,6.875 L26.2306127,6.875 C26.6554683,6.875 27,7.1548125 27,7.5 L27,29.375 C27,29.720125 26.6554683,30 26.2306127,30 Z" id="Shape" fill="#418CFE"></path>
            <path d="M19.0933504,23.5135135 L3.14194373,23.5135135 C2.72242174,23.5135135 2.38235294,23.2329509 2.38235294,22.8869779 C2.38235294,22.5410049 2.72242174,22.2604423 3.14194373,22.2604423 L19.0933504,22.2604423 C19.5127964,22.2604423 19.8529412,22.5410049 19.8529412,22.8869779 C19.8529412,23.2329509 19.5127964,23.5135135 19.0933504,23.5135135 Z M19.0933504,21.007371 L3.14194373,21.007371 C2.72242174,21.007371 2.38235294,20.7268084 2.38235294,20.3808354 C2.38235294,20.0348624 2.72242174,19.7542998 3.14194373,19.7542998 L19.0933504,19.7542998 C19.5127964,19.7542998 19.8529412,20.0348624 19.8529412,20.3808354 C19.8529412,20.7268084 19.5127964,21.007371 19.0933504,21.007371 Z M19.0933504,18.5012285 L3.14194373,18.5012285 C2.72242174,18.5012285 2.38235294,18.2206658 2.38235294,17.8746929 C2.38235294,17.5287199 2.72242174,17.2481572 3.14194373,17.2481572 L19.0933504,17.2481572 C19.5127964,17.2481572 19.8529412,17.5287199 19.8529412,17.8746929 C19.8529412,18.2206658 19.5127964,18.5012285 19.0933504,18.5012285 Z M19.0933504,15.995086 L3.14194373,15.995086 C2.72242174,15.995086 2.38235294,15.714586 2.38235294,15.3685504 C2.38235294,15.0225147 2.72242174,14.7420147 3.14194373,14.7420147 L19.0933504,14.7420147 C19.5127964,14.7420147 19.8529412,15.0225147 19.8529412,15.3685504 C19.8529412,15.714586 19.5127964,15.995086 19.0933504,15.995086 Z M19.0933504,13.4889435 L3.14194373,13.4889435 C2.72242174,13.4889435 2.38235294,13.2084435 2.38235294,12.8624079 C2.38235294,12.5163722 2.72242174,12.2358722 3.14194373,12.2358722 L19.0933504,12.2358722 C19.5127964,12.2358722 19.8529412,12.5163722 19.8529412,12.8624079 C19.8529412,13.2084435 19.5127964,13.4889435 19.0933504,13.4889435 Z M9.97826087,10.982801 L3.14194373,10.982801 C2.72242174,10.982801 2.38235294,10.702301 2.38235294,10.3562654 C2.38235294,10.0102297 2.72242174,9.72972973 3.14194373,9.72972973 L9.97826087,9.72972973 C10.3977829,9.72972973 10.7378517,10.0102297 10.7378517,10.3562654 C10.7378517,10.702301 10.3977829,10.982801 9.97826087,10.982801 Z" id="Shape" fill="#418CFE"></path>
        </g>
        <g id="documents-copy-29" transform="translate(111.000000, 261.000000)" fill-rule="nonzero">
            <path d="M26.2058824,7.2972973 L26.2058824,29.1891892 L6.35294118,29.1891892 L6.35294118,26.6872587 C6.35943582,26.6798154 23.245211,7.30717992 23.2537721,7.2972973 L26.2058824,7.2972973 Z" id="Path" fill="#A4C2F7"></path>
            <path d="M23.8235294,27.5675676 C23.0953509,27.5675676 0.447389452,27.5675676 0,27.5675676 C0,25.8591004 0,1.14064093 0,0 L17.2515213,0 L19.0314675,3.65381853 L23.8235294,5.25096525 C23.8235294,6.23361776 23.8235294,26.451278 23.8235294,27.5675676 Z" id="Path" fill="#FFFFFF"></path>
            <polygon id="Path" fill="#A4C2F7" points="23.8235294 6.48648649 17.4705882 6.48648649 17.4705882 0.810810811"></polygon>
            <path d="M23.0550285,27.5675676 L0.768500949,27.5675676 C0.344057875,27.5675676 0,27.2870049 0,26.9410319 L0,0.626535627 C0,0.2805 0.344057875,0 0.768500949,0 L16.9070209,0 C17.1108273,0 17.3062571,0.066036855 17.4504279,0.183512285 L23.5984355,5.1957973 C23.7425294,5.31327273 23.8235294,5.47266339 23.8235294,5.63882064 L23.8235294,26.9410319 C23.8235294,27.2870049 23.4793947,27.5675676 23.0550285,27.5675676 Z M1.5370019,26.3144963 L22.2865275,26.3144963 L22.2865275,5.8983317 L16.5886309,1.25307125 L1.5370019,1.25307125 L1.5370019,26.3144963 Z" id="Shape" fill="#418CFE"></path>
            <path d="M23.1530633,6.25 L16.9979646,6.25 C16.5731089,6.25 16.2285772,5.9701875 16.2285772,5.625 L16.2285772,0.625 C16.2285772,0.2798125 16.5731089,0 16.9979646,0 C17.4228203,0 17.7673519,0.2798125 17.7673519,0.625 L17.7673519,5 L23.1530633,5 C23.577919,5 23.9224506,5.2798125 23.9224506,5.625 C23.9224506,5.9701875 23.577919,6.25 23.1530633,6.25 Z M26.2306127,30 L5.53409322,30 C5.10916059,30 4.76470588,29.720125 4.76470588,29.375 L4.76470588,26.875 C4.76470588,26.529875 5.10916059,26.25 5.53409322,26.25 C5.95902585,26.25 6.30348056,26.529875 6.30348056,26.875 L6.30348056,28.75 L25.4612253,28.75 L25.4612253,8.125 L23.1530633,8.125 C22.7282076,8.125 22.383676,7.8451875 22.383676,7.5 C22.383676,7.1548125 22.7282076,6.875 23.1530633,6.875 L26.2306127,6.875 C26.6554683,6.875 27,7.1548125 27,7.5 L27,29.375 C27,29.720125 26.6554683,30 26.2306127,30 Z" id="Shape" fill="#418CFE"></path>
            <path d="M19.0933504,23.5135135 L3.14194373,23.5135135 C2.72242174,23.5135135 2.38235294,23.2329509 2.38235294,22.8869779 C2.38235294,22.5410049 2.72242174,22.2604423 3.14194373,22.2604423 L19.0933504,22.2604423 C19.5127964,22.2604423 19.8529412,22.5410049 19.8529412,22.8869779 C19.8529412,23.2329509 19.5127964,23.5135135 19.0933504,23.5135135 Z M19.0933504,21.007371 L3.14194373,21.007371 C2.72242174,21.007371 2.38235294,20.7268084 2.38235294,20.3808354 C2.38235294,20.0348624 2.72242174,19.7542998 3.14194373,19.7542998 L19.0933504,19.7542998 C19.5127964,19.7542998 19.8529412,20.0348624 19.8529412,20.3808354 C19.8529412,20.7268084 19.5127964,21.007371 19.0933504,21.007371 Z M19.0933504,18.5012285 L3.14194373,18.5012285 C2.72242174,18.5012285 2.38235294,18.2206658 2.38235294,17.8746929 C2.38235294,17.5287199 2.72242174,17.2481572 3.14194373,17.2481572 L19.0933504,17.2481572 C19.5127964,17.2481572 19.8529412,17.5287199 19.8529412,17.8746929 C19.8529412,18.2206658 19.5127964,18.5012285 19.0933504,18.5012285 Z M19.0933504,15.995086 L3.14194373,15.995086 C2.72242174,15.995086 2.38235294,15.714586 2.38235294,15.3685504 C2.38235294,15.0225147 2.72242174,14.7420147 3.14194373,14.7420147 L19.0933504,14.7420147 C19.5127964,14.7420147 19.8529412,15.0225147 19.8529412,15.3685504 C19.8529412,15.714586 19.5127964,15.995086 19.0933504,15.995086 Z M19.0933504,13.4889435 L3.14194373,13.4889435 C2.72242174,13.4889435 2.38235294,13.2084435 2.38235294,12.8624079 C2.38235294,12.5163722 2.72242174,12.2358722 3.14194373,12.2358722 L19.0933504,12.2358722 C19.5127964,12.2358722 19.8529412,12.5163722 19.8529412,12.8624079 C19.8529412,13.2084435 19.5127964,13.4889435 19.0933504,13.4889435 Z M9.97826087,10.982801 L3.14194373,10.982801 C2.72242174,10.982801 2.38235294,10.702301 2.38235294,10.3562654 C2.38235294,10.0102297 2.72242174,9.72972973 3.14194373,9.72972973 L9.97826087,9.72972973 C10.3977829,9.72972973 10.7378517,10.0102297 10.7378517,10.3562654 C10.7378517,10.702301 10.3977829,10.982801 9.97826087,10.982801 Z" id="Shape" fill="#418CFE"></path>
        </g>
        <g id="documents-copy-27" transform="translate(669.000000, 406.000000)" fill-rule="nonzero">
            <path d="M26.2058824,7.2972973 L26.2058824,29.1891892 L6.35294118,29.1891892 L6.35294118,26.6872587 C6.35943582,26.6798154 23.245211,7.30717992 23.2537721,7.2972973 L26.2058824,7.2972973 Z" id="Path" fill="#A4C2F7"></path>
            <path d="M23.8235294,27.5675676 C23.0953509,27.5675676 0.447389452,27.5675676 0,27.5675676 C0,25.8591004 0,1.14064093 0,0 L17.2515213,0 L19.0314675,3.65381853 L23.8235294,5.25096525 C23.8235294,6.23361776 23.8235294,26.451278 23.8235294,27.5675676 Z" id="Path" fill="#FFFFFF"></path>
            <polygon id="Path" fill="#A4C2F7" points="23.8235294 6.48648649 17.4705882 6.48648649 17.4705882 0.810810811"></polygon>
            <path d="M23.0550285,27.5675676 L0.768500949,27.5675676 C0.344057875,27.5675676 0,27.2870049 0,26.9410319 L0,0.626535627 C0,0.2805 0.344057875,0 0.768500949,0 L16.9070209,0 C17.1108273,0 17.3062571,0.066036855 17.4504279,0.183512285 L23.5984355,5.1957973 C23.7425294,5.31327273 23.8235294,5.47266339 23.8235294,5.63882064 L23.8235294,26.9410319 C23.8235294,27.2870049 23.4793947,27.5675676 23.0550285,27.5675676 Z M1.5370019,26.3144963 L22.2865275,26.3144963 L22.2865275,5.8983317 L16.5886309,1.25307125 L1.5370019,1.25307125 L1.5370019,26.3144963 Z" id="Shape" fill="#418CFE"></path>
            <path d="M23.1530633,6.25 L16.9979646,6.25 C16.5731089,6.25 16.2285772,5.9701875 16.2285772,5.625 L16.2285772,0.625 C16.2285772,0.2798125 16.5731089,0 16.9979646,0 C17.4228203,0 17.7673519,0.2798125 17.7673519,0.625 L17.7673519,5 L23.1530633,5 C23.577919,5 23.9224506,5.2798125 23.9224506,5.625 C23.9224506,5.9701875 23.577919,6.25 23.1530633,6.25 Z M26.2306127,30 L5.53409322,30 C5.10916059,30 4.76470588,29.720125 4.76470588,29.375 L4.76470588,26.875 C4.76470588,26.529875 5.10916059,26.25 5.53409322,26.25 C5.95902585,26.25 6.30348056,26.529875 6.30348056,26.875 L6.30348056,28.75 L25.4612253,28.75 L25.4612253,8.125 L23.1530633,8.125 C22.7282076,8.125 22.383676,7.8451875 22.383676,7.5 C22.383676,7.1548125 22.7282076,6.875 23.1530633,6.875 L26.2306127,6.875 C26.6554683,6.875 27,7.1548125 27,7.5 L27,29.375 C27,29.720125 26.6554683,30 26.2306127,30 Z" id="Shape" fill="#418CFE"></path>
            <path d="M19.0933504,23.5135135 L3.14194373,23.5135135 C2.72242174,23.5135135 2.38235294,23.2329509 2.38235294,22.8869779 C2.38235294,22.5410049 2.72242174,22.2604423 3.14194373,22.2604423 L19.0933504,22.2604423 C19.5127964,22.2604423 19.8529412,22.5410049 19.8529412,22.8869779 C19.8529412,23.2329509 19.5127964,23.5135135 19.0933504,23.5135135 Z M19.0933504,21.007371 L3.14194373,21.007371 C2.72242174,21.007371 2.38235294,20.7268084 2.38235294,20.3808354 C2.38235294,20.0348624 2.72242174,19.7542998 3.14194373,19.7542998 L19.0933504,19.7542998 C19.5127964,19.7542998 19.8529412,20.0348624 19.8529412,20.3808354 C19.8529412,20.7268084 19.5127964,21.007371 19.0933504,21.007371 Z M19.0933504,18.5012285 L3.14194373,18.5012285 C2.72242174,18.5012285 2.38235294,18.2206658 2.38235294,17.8746929 C2.38235294,17.5287199 2.72242174,17.2481572 3.14194373,17.2481572 L19.0933504,17.2481572 C19.5127964,17.2481572 19.8529412,17.5287199 19.8529412,17.8746929 C19.8529412,18.2206658 19.5127964,18.5012285 19.0933504,18.5012285 Z M19.0933504,15.995086 L3.14194373,15.995086 C2.72242174,15.995086 2.38235294,15.714586 2.38235294,15.3685504 C2.38235294,15.0225147 2.72242174,14.7420147 3.14194373,14.7420147 L19.0933504,14.7420147 C19.5127964,14.7420147 19.8529412,15.0225147 19.8529412,15.3685504 C19.8529412,15.714586 19.5127964,15.995086 19.0933504,15.995086 Z M19.0933504,13.4889435 L3.14194373,13.4889435 C2.72242174,13.4889435 2.38235294,13.2084435 2.38235294,12.8624079 C2.38235294,12.5163722 2.72242174,12.2358722 3.14194373,12.2358722 L19.0933504,12.2358722 C19.5127964,12.2358722 19.8529412,12.5163722 19.8529412,12.8624079 C19.8529412,13.2084435 19.5127964,13.4889435 19.0933504,13.4889435 Z M9.97826087,10.982801 L3.14194373,10.982801 C2.72242174,10.982801 2.38235294,10.702301 2.38235294,10.3562654 C2.38235294,10.0102297 2.72242174,9.72972973 3.14194373,9.72972973 L9.97826087,9.72972973 C10.3977829,9.72972973 10.7378517,10.0102297 10.7378517,10.3562654 C10.7378517,10.702301 10.3977829,10.982801 9.97826087,10.982801 Z" id="Shape" fill="#418CFE"></path>
        </g>
        <g id="documents-copy-28" transform="translate(513.000000, 414.000000)" fill-rule="nonzero">
            <path d="M26.2058824,7.2972973 L26.2058824,29.1891892 L6.35294118,29.1891892 L6.35294118,26.6872587 C6.35943582,26.6798154 23.245211,7.30717992 23.2537721,7.2972973 L26.2058824,7.2972973 Z" id="Path" fill="#A4C2F7"></path>
            <path d="M23.8235294,27.5675676 C23.0953509,27.5675676 0.447389452,27.5675676 0,27.5675676 C0,25.8591004 0,1.14064093 0,0 L17.2515213,0 L19.0314675,3.65381853 L23.8235294,5.25096525 C23.8235294,6.23361776 23.8235294,26.451278 23.8235294,27.5675676 Z" id="Path" fill="#FFFFFF"></path>
            <polygon id="Path" fill="#A4C2F7" points="23.8235294 6.48648649 17.4705882 6.48648649 17.4705882 0.810810811"></polygon>
            <path d="M23.0550285,27.5675676 L0.768500949,27.5675676 C0.344057875,27.5675676 0,27.2870049 0,26.9410319 L0,0.626535627 C0,0.2805 0.344057875,0 0.768500949,0 L16.9070209,0 C17.1108273,0 17.3062571,0.066036855 17.4504279,0.183512285 L23.5984355,5.1957973 C23.7425294,5.31327273 23.8235294,5.47266339 23.8235294,5.63882064 L23.8235294,26.9410319 C23.8235294,27.2870049 23.4793947,27.5675676 23.0550285,27.5675676 Z M1.5370019,26.3144963 L22.2865275,26.3144963 L22.2865275,5.8983317 L16.5886309,1.25307125 L1.5370019,1.25307125 L1.5370019,26.3144963 Z" id="Shape" fill="#418CFE"></path>
            <path d="M23.1530633,6.25 L16.9979646,6.25 C16.5731089,6.25 16.2285772,5.9701875 16.2285772,5.625 L16.2285772,0.625 C16.2285772,0.2798125 16.5731089,0 16.9979646,0 C17.4228203,0 17.7673519,0.2798125 17.7673519,0.625 L17.7673519,5 L23.1530633,5 C23.577919,5 23.9224506,5.2798125 23.9224506,5.625 C23.9224506,5.9701875 23.577919,6.25 23.1530633,6.25 Z M26.2306127,30 L5.53409322,30 C5.10916059,30 4.76470588,29.720125 4.76470588,29.375 L4.76470588,26.875 C4.76470588,26.529875 5.10916059,26.25 5.53409322,26.25 C5.95902585,26.25 6.30348056,26.529875 6.30348056,26.875 L6.30348056,28.75 L25.4612253,28.75 L25.4612253,8.125 L23.1530633,8.125 C22.7282076,8.125 22.383676,7.8451875 22.383676,7.5 C22.383676,7.1548125 22.7282076,6.875 23.1530633,6.875 L26.2306127,6.875 C26.6554683,6.875 27,7.1548125 27,7.5 L27,29.375 C27,29.720125 26.6554683,30 26.2306127,30 Z" id="Shape" fill="#418CFE"></path>
            <path d="M19.0933504,23.5135135 L3.14194373,23.5135135 C2.72242174,23.5135135 2.38235294,23.2329509 2.38235294,22.8869779 C2.38235294,22.5410049 2.72242174,22.2604423 3.14194373,22.2604423 L19.0933504,22.2604423 C19.5127964,22.2604423 19.8529412,22.5410049 19.8529412,22.8869779 C19.8529412,23.2329509 19.5127964,23.5135135 19.0933504,23.5135135 Z M19.0933504,21.007371 L3.14194373,21.007371 C2.72242174,21.007371 2.38235294,20.7268084 2.38235294,20.3808354 C2.38235294,20.0348624 2.72242174,19.7542998 3.14194373,19.7542998 L19.0933504,19.7542998 C19.5127964,19.7542998 19.8529412,20.0348624 19.8529412,20.3808354 C19.8529412,20.7268084 19.5127964,21.007371 19.0933504,21.007371 Z M19.0933504,18.5012285 L3.14194373,18.5012285 C2.72242174,18.5012285 2.38235294,18.2206658 2.38235294,17.8746929 C2.38235294,17.5287199 2.72242174,17.2481572 3.14194373,17.2481572 L19.0933504,17.2481572 C19.5127964,17.2481572 19.8529412,17.5287199 19.8529412,17.8746929 C19.8529412,18.2206658 19.5127964,18.5012285 19.0933504,18.5012285 Z M19.0933504,15.995086 L3.14194373,15.995086 C2.72242174,15.995086 2.38235294,15.714586 2.38235294,15.3685504 C2.38235294,15.0225147 2.72242174,14.7420147 3.14194373,14.7420147 L19.0933504,14.7420147 C19.5127964,14.7420147 19.8529412,15.0225147 19.8529412,15.3685504 C19.8529412,15.714586 19.5127964,15.995086 19.0933504,15.995086 Z M19.0933504,13.4889435 L3.14194373,13.4889435 C2.72242174,13.4889435 2.38235294,13.2084435 2.38235294,12.8624079 C2.38235294,12.5163722 2.72242174,12.2358722 3.14194373,12.2358722 L19.0933504,12.2358722 C19.5127964,12.2358722 19.8529412,12.5163722 19.8529412,12.8624079 C19.8529412,13.2084435 19.5127964,13.4889435 19.0933504,13.4889435 Z M9.97826087,10.982801 L3.14194373,10.982801 C2.72242174,10.982801 2.38235294,10.702301 2.38235294,10.3562654 C2.38235294,10.0102297 2.72242174,9.72972973 3.14194373,9.72972973 L9.97826087,9.72972973 C10.3977829,9.72972973 10.7378517,10.0102297 10.7378517,10.3562654 C10.7378517,10.702301 10.3977829,10.982801 9.97826087,10.982801 Z" id="Shape" fill="#418CFE"></path>
        </g>
        <g id="Path-Copy-10">
            <use fill="black" fill-opacity="1" filter="url(#filter-17)" xlink:href="#path-16"></use>
            <use fill="#199ABD" fill-rule="evenodd" xlink:href="#path-16"></use>
        </g>
        <g id="Path-Copy-7">
            <use fill="black" fill-opacity="1" filter="url(#filter-19)" xlink:href="#path-18"></use>
            <use fill="#7BB2FF" fill-rule="evenodd" xlink:href="#path-18"></use>
        </g>
        <g id="star-copy-2" transform="translate(490.000000, 376.000000)" fill="url(#linearGradient-20)" fill-rule="nonzero">
            <path d="M12.0477348,14.2321921 C11.5145894,14.6119273 8.09367648,12.2047136 7.43851045,12.1994411 C6.78334441,12.1941731 3.32392758,14.5460254 2.79699363,14.1577566 C2.27005968,13.7694923 3.50886355,9.78139044 3.31143599,9.15843081 C3.11400385,8.53547119 -0.198134752,5.98148451 0.00935103559,5.36178144 C0.216836824,4.74208293 4.40336871,4.68451399 4.93651415,4.3047779 C5.46965959,3.92504044 6.88206505,-0.00526630567 7.53723109,0 C8.19239713,0.00527735803 9.54101358,3.95779982 10.0679475,4.3460668 C10.5948815,4.73433379 14.779936,4.85926414 14.9773635,5.4822192 C15.1747957,6.10517883 11.8217518,8.60553727 11.614266,9.22524034 C11.4067802,9.84493885 12.5808803,13.8524524 12.0477348,14.2321921 L12.0477348,14.2321921 Z" id="Path"></path>
        </g>
        <g id="star-copy-3" transform="translate(473.000000, 369.000000)" fill="url(#linearGradient-20)" fill-rule="nonzero">
            <path d="M12.0477348,14.2321921 C11.5145894,14.6119273 8.09367648,12.2047136 7.43851045,12.1994411 C6.78334441,12.1941731 3.32392758,14.5460254 2.79699363,14.1577566 C2.27005968,13.7694923 3.50886355,9.78139044 3.31143599,9.15843081 C3.11400385,8.53547119 -0.198134752,5.98148451 0.00935103559,5.36178144 C0.216836824,4.74208293 4.40336871,4.68451399 4.93651415,4.3047779 C5.46965959,3.92504044 6.88206505,-0.00526630567 7.53723109,0 C8.19239713,0.00527735803 9.54101358,3.95779982 10.0679475,4.3460668 C10.5948815,4.73433379 14.779936,4.85926414 14.9773635,5.4822192 C15.1747957,6.10517883 11.8217518,8.60553727 11.614266,9.22524034 C11.4067802,9.84493885 12.5808803,13.8524524 12.0477348,14.2321921 L12.0477348,14.2321921 Z" id="Path"></path>
        </g>
    </g>
</svg>