<?xml version="1.0" encoding="UTF-8"?>
<svg width="800px" height="600px" viewBox="0 0 800 600" version="1.1" xmlns="http://www.w3.org/2000/svg" xmlns:xlink="http://www.w3.org/1999/xlink">
    <title>2041-10-17-17-10_GetRemoteRepositoryInformationtoLocalRepository—GitFetch</title>
    <defs>
        <path d="M8.68744595,14.5405413 C10.6544909,13.5649687 12,11.5915112 12,9.31636202 C12,6.07252388 9.26504479,3.44227578 5.89152197,3.44227578 C4.52034181,3.44227578 3.25480793,3.87689217 2.23537065,4.61058921 L2.23537065,1.05770107 C2.23537065,0.476155373 1.74046224,0 1.11695169,0 C0.493934821,0 0.0167986821,0.476630104 0.0167986821,1.05770107 L0.0167986821,1.80184219 L0,9.32158406 C-0.0041824725,11.2003327 0.951817666,12.865215 2.41753644,13.8939574 C2.4777647,13.9362085 2.55848043,13.9312238 2.6127846,13.8823265 C2.66758244,13.8334292 2.6779496,13.7558106 2.63746831,13.6950451 C0.724974359,10.8146136 1.16014819,5.53963813 5.89176881,5.53963813 C8.05899866,5.53963813 9.80709909,7.22944376 9.81623206,9.31351363 C9.82240299,10.8599505 9.11620201,12.0365717 8.19549958,12.7781018 C6.36026565,14.2561773 3.64974731,12.6382934 4.49738595,10.4697214 C4.5894562,10.2335427 4.71879884,9.9959397 4.88664808,9.76189723 L5.12361171,9.47705853 C5.19766284,9.39967734 5.25048599,9.29903433 5.2146946,9.19411874 C5.01401603,8.62800181 3.46832203,8.97526767 3.04005964,10.0315445 C3.34292878,9.79631524 3.65986763,9.66433998 3.96940137,9.71489885 C2.38890334,11.275815 3.44141679,13.9563846 5.46005069,14.7513219 C6.40494316,15.1232738 7.55964718,15.0976383 8.68744595,14.5405413" id="path-1"></path>
        <linearGradient x1="28.568518%" y1="104.445731%" x2="78.3472072%" y2="20.6880271%" id="linearGradient-3">
            <stop stop-color="#000F98" offset="0%"></stop>
            <stop stop-color="#00A5FD" offset="100%"></stop>
        </linearGradient>
        <rect id="path-4" x="20" y="62" width="766" height="140"></rect>
        <filter x="-0.5%" y="-2.9%" width="102.1%" height="111.4%" filterUnits="objectBoundingBox" id="filter-5">
            <feOffset dx="4" dy="4" in="SourceAlpha" result="shadowOffsetOuter1"></feOffset>
            <feGaussianBlur stdDeviation="2" in="shadowOffsetOuter1" result="shadowBlurOuter1"></feGaussianBlur>
            <feComposite in="shadowBlurOuter1" in2="SourceAlpha" operator="out" result="shadowBlurOuter1"></feComposite>
            <feColorMatrix values="0 0 0 0 0   0 0 0 0 0   0 0 0 0 0  0 0 0 0.5 0" type="matrix" in="shadowBlurOuter1"></feColorMatrix>
        </filter>
        <linearGradient x1="100%" y1="3.77218935%" x2="0%" y2="96.2278107%" id="linearGradient-6">
            <stop stop-color="#00C6FF" offset="0.0491695804%"></stop>
            <stop stop-color="#079DC2" offset="100%"></stop>
        </linearGradient>
        <linearGradient x1="100%" y1="3.77218935%" x2="0%" y2="96.2278107%" id="linearGradient-7">
            <stop stop-color="#00A5FF" offset="0.0491695804%"></stop>
            <stop stop-color="#0755C2" offset="100%"></stop>
        </linearGradient>
    </defs>
    <g id="2041-10-17-17-10_GetRemoteRepositoryInformationtoLocalRepository—GitFetch" stroke="none" stroke-width="1" fill="none" fill-rule="evenodd">
        <rect fill="#FFFFFF" x="0" y="0" width="800" height="600"></rect>
        <g id="bloovee-winner-logo" transform="translate(725.000000, 580.000000)">
            <path d="M13,13.7751507 C13,14.396312 13.4732558,14.8717809 14.0514961,14.8717809 C14.6474304,14.8717809 15.1204503,14.3968042 15.1204503,13.7751507 L15.1204503,2.09687626 C15.1204503,1.49368045 14.6474304,1 14.0514961,1 C13.4557977,1 13,1.49392656 13,2.09687626 L13,13.7751507 Z M21.7920364,15 C24.6483217,15 26.751078,12.7149437 26.751078,9.97312215 L26.751078,9.93645297 C26.751078,7.17641992 24.6657798,4.92778666 21.8269526,4.92778666 C18.9881254,4.92778666 16.885369,7.212843 16.885369,9.97312215 L16.885369,10.0095452 C16.885369,12.7516128 18.9706673,15 21.7920364,15 Z M21.8269526,13.0621935 C20.179994,13.0621935 19.0055834,11.6547366 19.0055834,9.97312215 L19.0055834,9.93645297 C19.0055834,8.25459244 20.0919958,6.86534709 21.7920364,6.86534709 C23.456689,6.86534709 24.6306277,8.27305008 24.6306277,9.97312215 L24.6306277,10.0095452 C24.6306277,11.6731942 23.5444513,13.0621935 21.8269526,13.0621935 Z M32.8092717,15 C35.665557,15 37.7683133,12.7149437 37.7683133,9.97312215 L37.7683133,9.93645297 C37.7683133,7.17641992 35.6830151,4.92778666 32.8441878,4.92778666 C30.0053606,4.92778666 27.9026043,7.212843 27.9026043,9.97312215 L27.9026043,10.0095452 C27.9026043,12.7516128 29.9879025,15 32.8092717,15 Z M32.8441878,13.0621935 C31.1969933,13.0621935 30.0228187,11.6547366 30.0228187,9.97312215 L30.0228187,9.93645297 C30.0228187,8.25459244 31.109231,6.86534709 32.8092717,6.86534709 C34.4739243,6.86534709 35.647863,8.27305008 35.647863,9.97312215 L35.647863,10.0095452 C35.647863,11.6731942 34.5614506,13.0621935 32.8441878,13.0621935 Z M44.1416963,13.9944275 L47.2261164,6.6096472 C47.2784906,6.49988574 47.3487948,6.28060893 47.3487948,6.07954366 C47.3487948,5.47610175 46.8929971,5.01933658 46.3147568,5.01933658 C45.7539746,5.01933658 45.4737015,5.40300947 45.3158709,5.78692847 L42.8976893,12.2215093 L40.5144239,5.82335156 C40.3393711,5.36634029 40.041404,5.01933658 39.4629278,5.01933658 C38.8846875,5.01933658 38.4116676,5.53098247 38.4116676,6.07954366 C38.4116676,6.28060893 38.4817358,6.46346265 38.534346,6.62785874 L41.6182943,13.9944275 C41.8638872,14.5796579 42.2491448,14.9633308 42.8273851,14.9633308 L42.9326055,14.9633308 C43.5108458,14.9633308 43.8965752,14.5612003 44.1416963,13.9944275 Z M50.0949054,9.27837643 C50.2876522,7.77961573 51.1987758,6.73762019 52.4956289,6.73762019 C53.8974665,6.73762019 54.7036056,7.8524619 54.8437422,9.27837643 L50.0949054,9.27837643 Z M56.070527,13.72027 C56.2281217,13.5558739 56.3508002,13.3181395 56.3508002,13.0439819 C56.3508002,12.5320899 55.9830006,12.1481709 55.5095089,12.1481709 C55.2641519,12.1481709 55.1242513,12.2215093 54.9664207,12.3492362 C54.3704864,12.8611282 53.6695676,13.1901665 52.7759021,13.1901665 C51.4089807,13.1901665 50.3402624,12.3128131 50.1123635,10.7409601 L55.9126964,10.7409601 C56.4560206,10.7409601 56.9115824,10.3021604 56.9115824,9.68050697 C56.9115824,7.45057746 55.4568987,4.92778666 52.513087,4.92778666 C49.8672425,4.92778666 47.9919132,7.19438536 47.9919132,9.95466451 L47.9919132,9.9913337 C47.9919132,12.9708897 50.0597533,15 52.7409859,15 C54.1779755,15 55.2292357,14.5063195 56.070527,13.72027 Z M60.1833231,9.27837643 C60.3763058,7.77961573 61.2871935,6.73762019 62.5842825,6.73762019 C63.9858841,6.73762019 64.7920233,7.8524619 64.9321598,9.27837643 L60.1833231,9.27837643 Z M66.1589447,13.72027 C66.3167752,13.5558739 66.4394537,13.3181395 66.4394537,13.0439819 C66.4394537,12.5320899 66.0714183,12.1481709 65.5981624,12.1481709 C65.3528055,12.1481709 65.2126689,12.2215093 65.0548383,12.3492362 C64.4591399,12.8611282 63.7582212,13.1901665 62.8643197,13.1901665 C61.4976342,13.1901665 60.4289159,12.3128131 60.2007812,10.7409601 L66.0011141,10.7409601 C66.5444382,10.7409601 67,10.3021604 67,9.68050697 C67,7.45057746 65.5455522,4.92778666 62.6015046,4.92778666 C59.9556601,4.92778666 58.0805667,7.19438536 58.0805667,9.95466451 L58.0805667,9.9913337 C58.0805667,12.9708897 60.1484069,15 62.8294035,15 C64.2663932,15 65.3178893,14.5063195 66.1589447,13.72027 L66.1589447,13.72027 Z" id="Fill-1" fill="#030060"></path>
            <g id="Group-4">
                <mask id="mask-2" fill="white">
                    <use xlink:href="#path-1"></use>
                </mask>
                <g id="Clip-3"></g>
                <path d="M8.68744595,14.5405413 C10.6544909,13.5649687 12,11.5915112 12,9.31636202 C12,6.07252388 9.26504479,3.44227578 5.89152197,3.44227578 C4.52034181,3.44227578 3.25480793,3.87689217 2.23537065,4.61058921 L2.23537065,1.05770107 C2.23537065,0.476155373 1.74046224,0 1.11695169,0 C0.493934821,0 0.0167986821,0.476630104 0.0167986821,1.05770107 L0.0167986821,1.80184219 L0,9.32158406 C-0.0041824725,11.2003327 0.951817666,12.865215 2.41753644,13.8939574 C2.4777647,13.9362085 2.55848043,13.9312238 2.6127846,13.8823265 C2.66758244,13.8334292 2.6779496,13.7558106 2.63746831,13.6950451 C0.724974359,10.8146136 1.16014819,5.53963813 5.89176881,5.53963813 C8.05899866,5.53963813 9.80709909,7.22944376 9.81623206,9.31351363 C9.82240299,10.8599505 9.11620201,12.0365717 8.19549958,12.7781018 C6.36026565,14.2561773 3.64974731,12.6382934 4.49738595,10.4697214 C4.5894562,10.2335427 4.71879884,9.9959397 4.88664808,9.76189723 L5.12361171,9.47705853 C5.19766284,9.39967734 5.25048599,9.29903433 5.2146946,9.19411874 C5.01401603,8.62800181 3.46832203,8.97526767 3.04005964,10.0315445 C3.34292878,9.79631524 3.65986763,9.66433998 3.96940137,9.71489885 C2.38890334,11.275815 3.44141679,13.9563846 5.46005069,14.7513219 C6.40494316,15.1232738 7.55964718,15.0976383 8.68744595,14.5405413" id="Fill-2" fill="url(#linearGradient-3)" mask="url(#mask-2)"></path>
            </g>
        </g>
        <g id="Rectangle-Copy-4">
            <use fill="black" fill-opacity="1" filter="url(#filter-5)" xlink:href="#path-4"></use>
            <rect stroke="#006AE1" stroke-width="4" stroke-linejoin="square" fill="#FFFFFF" fill-rule="evenodd" x="22" y="64" width="762" height="136"></rect>
        </g>
        <text id="Get-Remote-Repositor" fill-rule="nonzero" font-family="Helvetica" font-size="18" font-weight="normal" fill="#0055C2">
            <tspan x="10" y="23">Get Remote Repository Information to Local Repository — Git Fetch</tspan>
        </text>
        <g id="git" transform="translate(704.000000, 9.000000)">
            <path d="M46.8658496,11.2380575 C45.1623498,11.2380575 43.8939053,12.0891281 43.8939053,14.1376499 C43.8939053,15.6808485 44.7297841,16.7522856 46.7743573,16.7522856 C48.5071097,16.7522856 49.6846843,15.7131436 49.6846843,14.073693 C49.6846843,12.2157755 48.6309666,11.2380575 46.8658496,11.2380575 L46.8658496,11.2380575 Z M43.4607172,25.7011913 C43.0574041,26.2046147 42.6553359,26.7397 42.6553359,27.3710373 C42.6553359,28.6305458 44.2337339,29.0092215 46.4027864,29.0092215 C48.1984009,29.0092215 50.6450424,28.8813076 50.6450424,27.1823327 C50.6450424,26.1723196 49.4674678,26.1102624 47.9805621,26.0152768 L43.4607172,25.7011913 Z M52.6255087,11.3330431 C53.1825537,12.0580995 53.7719634,13.0662128 53.7719634,14.5156924 C53.7719634,18.0124273 51.0776081,20.0603158 47.1764255,20.0603158 C46.1843252,20.0603158 45.2862067,19.9349349 44.7291617,19.7772589 L43.7071863,21.4471049 L46.7413702,21.6351763 C52.0989611,21.9828234 55.257002,22.1404995 55.257002,26.3293624 C55.257002,29.9533779 52.1300809,32 46.7413702,32 C41.1360655,32 39,30.5505204 39,28.0625322 C39,26.6440812 39.6199071,25.8898959 40.7034998,24.848221 C39.680902,24.4087545 39.3410734,23.6216409 39.3410734,22.7705703 C39.3410734,22.0771758 39.6815244,21.4471049 40.2391918,20.8480627 C40.7968593,20.2502869 41.416144,19.6506115 42.1586633,18.9578502 C40.6412601,18.2017651 39.4960502,16.563581 39.4960502,14.231369 C39.4960502,10.6086199 41.8493321,8.12063165 46.5870158,8.12063165 C47.9189448,8.12063165 48.7249485,8.24537935 49.436348,8.43598369 L55.4754632,8.43598369 L55.4754632,11.1133099 L52.6255087,11.3330431 L52.6255087,11.3330431 Z M60.9233016,5.60858036 C59.1575621,5.60858036 58.1355867,4.56817192 58.1355867,2.77167847 C58.1355867,0.977717972 59.1575621,0 60.9233016,0 C62.7195385,0 63.7408917,0.977084735 63.7408917,2.77167847 C63.7415139,4.56817192 62.7195385,5.60858036 60.9233016,5.60858036 Z M56.9275147,24.5423675 L56.9275147,22.0543792 L58.50778,21.8340127 C58.9409681,21.770689 59.0025853,21.6763367 59.0025853,21.2026754 L59.0025853,11.9403174 C59.0025853,11.59457 58.9104706,11.372937 58.5998947,11.279218 L56.9275147,10.6801757 L57.2679657,8.12949697 L63.6792742,8.12949697 L63.6792742,21.2033087 C63.6792742,21.7086318 63.7091492,21.770689 64.174702,21.834646 L65.7543448,22.0550125 L65.7543448,24.5430008 L56.9275147,24.5430008 L56.9275147,24.5423675 Z M78,23.32022 C76.6674487,23.9806863 74.7174798,24.5803617 72.9511179,24.5803617 C69.2665294,24.5803617 67.8736056,23.0694582 67.8736056,19.5074999 L67.8736056,11.2532552 C67.8736056,11.0651838 67.8736056,10.9385364 67.6252693,10.9385364 L65.458084,10.9385364 L65.458084,8.13456287 C68.1841815,7.81857759 69.2671518,6.43242174 69.6076028,2.99837733 L72.5502944,2.99837733 L72.5502944,7.47346341 C72.5502944,7.69319666 72.5502944,7.78881545 72.7980083,7.78881545 L77.1641212,7.78881545 L77.1641212,10.9391697 L72.5502944,10.9391697 L72.5502944,18.4683579 C72.5502944,20.3269086 72.9841049,21.0513318 74.6558625,21.0513318 C75.5241059,21.0513318 76.4209796,20.8315985 77.1641212,20.5479083 L78,23.32022 L78,23.32022 Z" id="Shape" fill="#31251C" fill-rule="nonzero"></path>
            <path d="M32.3772539,15.0299695 L17.9690664,0.622277028 C17.140005,-0.207425676 15.7941261,-0.207425676 14.9644314,0.622277028 L11.9724635,3.61427365 L15.7668919,7.40937182 C16.6497884,7.11169223 17.6606226,7.31120089 18.3636464,8.01486479 C19.0704703,8.72232885 19.2687104,9.74203981 18.9634334,10.6274783 L22.6210571,14.2851371 C23.5052204,13.9804906 24.5268216,14.1774658 25.2336455,14.8849299 C26.221679,15.8723394 26.221679,17.4728423 25.2336455,18.4608852 C24.2449787,19.4489281 22.6451246,19.4489281 21.6570912,18.4608852 C20.914166,17.7173195 20.7304932,16.6260388 21.1067059,15.7108324 L17.6954571,12.2995509 L17.6948238,21.2768075 C17.9361319,21.3958793 18.1628729,21.5542195 18.3636464,21.7543616 C19.3516798,22.7417711 19.3516798,24.3416406 18.3636464,25.3309502 C17.375613,26.3183598 15.7744921,26.3183598 14.7877254,25.3309502 C13.799692,24.3416406 13.799692,22.7417711 14.7877254,21.7543616 C15.0322003,21.5105176 15.3140432,21.3262096 15.6155201,21.2027043 L15.6155201,12.1424774 C15.3140432,12.0196054 15.0322003,11.8359308 14.7877254,11.5908201 C14.0391001,10.842821 13.8592273,9.74520661 14.2430403,8.82620003 L10.5024471,5.08430417 L0.622746073,14.9634666 C-0.207582024,15.7938027 -0.207582024,17.1396945 0.622746073,17.9700305 L15.0309336,32.377723 C15.8606284,33.2074257 17.2058739,33.2074257 18.0368353,32.377723 L32.3772539,18.0359 C33.207582,17.2061973 33.207582,15.8596722 32.3772539,15.0299695 L32.3772539,15.0299695 Z" id="Path" fill="#F34F29" fill-rule="nonzero"></path>
            <polygon id="Path" points="1.12409637e-15 0 79 0 79 33 0 33"></polygon>
        </g>
        <text id="$-git-fetch-[-Remote" font-family="Helvetica-Bold, Helvetica" font-size="36" font-weight="bold" fill="#0055C2">
            <tspan x="73.9462891" y="149">$ git fetch [ Remote Repository name ]</tspan>
        </text>
        <text id="Related-commands" font-family="Helvetica-Bold, Helvetica" font-size="24" font-weight="bold" fill="#0055C2">
            <tspan x="403" y="338">Related commands</tspan>
        </text>
        <text id="Check-branch-status" font-family="Helvetica" font-size="21" font-weight="normal" fill="#0055C2">
            <tspan x="418" y="382">Check branch status including </tspan>
            <tspan x="418" y="407">Remote Repository</tspan>
        </text>
        <text id="$-git-branch--a" font-family="Helvetica-Bold, Helvetica" font-size="24" font-weight="bold" fill="#0055C2">
            <tspan x="418.191489" y="445">$ git branch -a</tspan>
        </text>
        <rect id="Rectangle-Copy-6" stroke="#0055C2" stroke-width="2" x="404" y="354" width="375" height="105" rx="10"></rect>
        <rect id="Rectangle-Copy-13" fill="#A1E0E9" x="55" y="245" width="307" height="140" rx="10"></rect>
        <rect id="Rectangle-Copy-14" fill="#C5DDFF" x="55" y="414" width="307" height="140" rx="10"></rect>
        <g id="Group-Copy-3" transform="translate(175.000000, 298.000000)" fill-rule="nonzero">
            <path d="M77.5846869,8.95934172 C74.6673103,3.06389158 56.7434277,0 39.0193654,0 C21.2953032,0 3.5712409,3.03484995 0.494007997,8.87221684 C0.180823536,9.21687616 0.0140472215,9.62086038 0.0144392327,10.0338819 L0.0144392327,63.6592449 C-0.00481307756,63.7749902 -0.00481307756,63.8919992 0.0144392327,64.0077444 C0.00476531403,64.1092686 0.00476531403,64.2111574 0.0144392327,64.3126815 C0.0144392327,71.3262343 19.6367945,75 39.0193654,75 C58.4019363,75 77.9843276,71.3262343 77.9843276,64.3126815 C77.9939934,64.2160035 77.9939934,64.1189433 77.9843276,64.0222652 C78.0052241,63.9017349 78.0052241,63.7797753 77.9843276,63.6592449 L77.9843276,10.0338819 C77.9945295,9.65536444 77.8558882,9.28259056 77.5846869,8.95934172 Z" id="Path" fill="url(#linearGradient-6)"></path>
            <path d="M38.9963513,0 C64.2537318,0 77.9810827,5.27231121 77.9810827,7.98169336 C78.0063058,8.06600665 78.0063058,8.15367298 77.9810827,8.23798627 C77.1541338,11.020595 63.4031558,16 38.9963513,16 C14.5895467,16 0.838568763,10.9656751 0.0116199161,8.23798627 C-0.00387330538,8.17139865 -0.00387330538,8.1032009 0.0116199161,8.03661327 C0.0116199161,5.27231121 13.7389708,0 38.9963513,0 Z" id="Path" fill="#199ABD"></path>
        </g>
        <g id="Group" transform="translate(175.000000, 457.000000)" fill-rule="nonzero">
            <path d="M77.5846869,8.95934172 C74.6673103,3.06389158 56.7434277,0 39.0193654,0 C21.2953032,0 3.5712409,3.03484995 0.494007997,8.87221684 C0.180823536,9.21687616 0.0140472215,9.62086038 0.0144392327,10.0338819 L0.0144392327,63.6592449 C-0.00481307756,63.7749902 -0.00481307756,63.8919992 0.0144392327,64.0077444 C0.00476531403,64.1092686 0.00476531403,64.2111574 0.0144392327,64.3126815 C0.0144392327,71.3262343 19.6367945,75 39.0193654,75 C58.4019363,75 77.9843276,71.3262343 77.9843276,64.3126815 C77.9939934,64.2160035 77.9939934,64.1189433 77.9843276,64.0222652 C78.0052241,63.9017349 78.0052241,63.7797753 77.9843276,63.6592449 L77.9843276,10.0338819 C77.9945295,9.65536444 77.8558882,9.28259056 77.5846869,8.95934172 Z" id="Path" fill="url(#linearGradient-7)"></path>
            <path d="M38.9963513,0 C64.2537318,0 77.9810827,5.27231121 77.9810827,7.98169336 C78.0063058,8.06600665 78.0063058,8.15367298 77.9810827,8.23798627 C77.1541338,11.020595 63.4031558,16 38.9963513,16 C14.5895467,16 0.838568763,10.9656751 0.0116199161,8.23798627 C-0.00387330538,8.17139865 -0.00387330538,8.1032009 0.0116199161,8.03661327 C0.0116199161,5.27231121 13.7389708,0 38.9963513,0 Z" id="Path" fill="#0055C2"></path>
        </g>
        <g id="laptop-(2)-copy-5" transform="translate(85.000000, 485.729730)" fill-rule="nonzero">
            <g id="laptop-(2)-copy-2" transform="translate(0.000000, 0.270270)">
                <path d="M39.0106124,0 L3.98938763,0 C2.37675981,0 1.075,1.43965083 1.075,3.22309888 L1.075,24.2054726 C1.075,24.9682726 1.31786564,25.655867 1.71616528,26.2145375 C2.24075505,26.9558503 3.06649822,27.4285714 3.98938763,27.4285714 L39.098044,27.4285714 C39.9723603,27.3963404 40.7592449,26.9343629 41.2838347,26.2252812 C41.6821344,25.6666107 41.925,24.9682726 41.925,24.2054726 L41.925,3.22309888 C41.925,1.43965083 40.6135256,0 39.0106124,0 Z M3.98938763,25.2798388 C3.45508323,25.2798388 3.01792509,24.796374 3.01792509,24.2054726 L3.01792509,3.22309888 C3.01792509,2.62145375 3.45508323,2.14873258 3.98938763,2.14873258 L39.0106124,2.14873258 C39.5449168,2.14873258 39.9820749,2.62145375 39.9820749,3.22309888 L39.9820749,24.2054726 C39.9820749,24.796374 39.5449168,25.2798388 39.0106124,25.2798388 L3.98938763,25.2798388 Z" id="Shape" fill="#1576ED"></path>
                <path d="M42.9335735,43.4780726 L40.6670347,30.3800758 C40.5326549,29.6004331 40.2011848,28.9210302 39.7442936,28.4086936 C39.2067745,27.7961173 38.4990411,27.4285714 37.728597,27.4285714 L5.26244431,27.4285714 C4.50095894,27.4285714 3.78426683,27.7961173 3.25570639,28.3975559 C2.78985652,28.9098925 2.45838642,29.5892954 2.32400665,30.3800758 L0.0664264887,43.4780726 C-0.121705191,44.58071 0.0933024429,45.7278985 0.666656134,46.607781 C1.24000982,47.4876634 2.09108171,48 3.00486415,48 L39.9951358,48 C40.9089183,48 41.7599902,47.4876634 42.3333439,46.607781 C42.9066976,45.7278985 43.1217052,44.58071 42.9335735,43.4780726 Z M40.9357942,45.2044242 C40.7028693,45.5608322 40.3624406,45.7724495 39.9951358,45.7724495 L3.00486415,45.7724495 C2.63755944,45.7724495 2.28817204,45.5608322 2.0552471,45.2044242 C1.83128082,44.8480161 1.7416943,44.3913682 1.81336351,43.9458581 L4.07990232,30.8478614 C4.19636479,30.1573208 4.69804927,29.6561219 5.26244431,29.6561219 L37.728597,29.6561219 C38.3019507,29.6561219 38.8036352,30.1573208 38.9200977,30.8478614 L41.1776778,43.9458581 C41.2583057,44.3913682 41.1687192,44.8480161 40.9357942,45.2044242 Z" id="Shape" fill="#1576ED"></path>
                <path d="M39.617671,31.3883718 C39.4943345,30.6774031 38.9937709,30.1707465 38.4153645,30.1714293 L5.6547734,30.1714293 C5.08525981,30.1714293 4.57902552,30.6832283 4.46150684,31.3883718 L2.17441259,44.7633512 C2.10209341,45.2182824 2.19249239,45.684587 2.41848984,46.048532 C2.6535272,46.412477 3.00608323,46.6285701 3.37671905,46.6285701 L40.7024588,46.6285701 C41.0730946,46.6285701 41.4166107,46.412477 41.6516481,46.048532 C41.8866854,45.684587 41.9770844,45.2182824 41.8957253,44.7633512 L39.617671,31.3883718 Z M7.12827681,33.2422167 L36.9418611,33.2422167 C37.4480954,33.2422167 37.8458509,33.7540144 37.8458509,34.3795449 C37.8458509,35.0050754 37.4480954,35.5168731 36.9418611,35.5168731 L7.12827681,35.5168731 C6.63108241,35.5168731 6.22428699,35.0050754 6.22428699,34.3795449 C6.22428699,33.7540144 6.63108241,33.2422167 7.12827681,33.2422167 Z M24.1684849,42.2043628 L4.98582093,42.2043628 C4.48862653,42.2043628 4.08183111,41.7039384 4.08183111,41.0670346 C4.08183111,40.4415041 4.48862653,39.9297064 4.98582093,39.9297064 L24.1684849,39.9297064 C24.6656793,39.9297064 25.0724748,40.4415041 25.0724748,41.0670346 C25.0724748,41.7039384 24.6656793,42.2043628 24.1684849,42.2043628 L24.1684849,42.2043628 Z M38.0085691,42.2043628 L29.492985,42.2043628 C28.9957906,42.2043628 28.5889952,41.7039384 28.5889952,41.0670346 C28.5889952,40.4415041 28.9957906,39.9297064 29.492985,39.9297064 L38.0085691,39.9297064 C38.5057635,39.9297064 38.9125589,40.4415041 38.9125589,41.0670346 C38.9125589,41.7039384 38.5057635,42.2043628 38.0085691,42.2043628 Z" id="Shape" fill="#D0E8F9"></path>
                <path d="M37.6464833,32.7611313 C37.6464833,33.431182 37.2536465,33.9794054 36.7536725,33.9794054 L7.30877239,33.9794054 C6.81772645,33.9794054 6.41596159,33.431182 6.41596159,32.7611313 C6.41596159,32.0910805 6.81772645,31.5428571 7.30877239,31.5428571 L36.7536725,31.5428571 C37.2536465,31.5428571 37.6464833,32.0910805 37.6464833,32.7611313 Z M25.0310667,39.924583 C25.0310667,40.6068165 24.6293018,41.1428571 24.1382559,41.1428571 L5.1928108,41.1428571 C4.70176486,41.1428571 4.3,40.6068165 4.3,39.924583 C4.3,39.2545323 4.70176486,38.7063089 5.1928108,38.7063089 L24.1382559,38.7063089 C24.6293018,38.7063089 25.0310667,39.2545323 25.0310667,39.924583 Z M38.7,39.924583 C38.7,40.6068165 38.2982351,41.1428571 37.8071892,41.1428571 L29.3969115,41.1428571 C28.9058656,41.1428571 28.5041007,40.6068165 28.5041007,39.924583 C28.5041007,39.2545323 28.9058656,38.7063089 29.3969115,38.7063089 L37.8071892,38.7063089 C38.2982351,38.7063089 38.7,39.2545323 38.7,39.924583 Z" id="Shape" fill="#1576ED"></path>
            </g>
        </g>
        <g id="Group-3" transform="translate(85.000000, 310.000000)" fill-rule="nonzero">
            <g id="Group-2-Copy" transform="translate(0.000000, 16.000000)">
                <path d="M50,23.1785352 C50,28.8194065 45.665646,33.4090909 40.3364591,33.4090909 L11.1341698,33.4090909 C8.5806126,33.4225193 6.12618779,32.3445054 4.30888518,30.4110861 C2.49005749,28.516171 1.46533193,25.9049269 1.47058824,23.1785352 C1.47058824,18.8908509 3.97983989,15.0905212 7.75616386,13.6014971 C9.60769644,5.72023676 16.1251506,0.150095124 23.6673767,0.00298050416 C31.2096028,-0.144134115 37.9098031,5.16819104 40.024732,12.9720837 C40.2171561,12.9586037 40.3278,12.9586037 40.3364591,12.9586037 C40.4807772,12.9586037 40.6250953,12.9586037 40.7674892,12.968973 C43.1670269,13.0697621 45.4456616,14.1303794 47.1588574,15.9439104 C48.9751265,17.8418308 50,20.4520283 50,23.1785352 Z" id="Path" fill="#C5DDFF"></path>
                <path d="M7.35294118,12.7272727 C7.27515187,13.0579673 7.20106682,13.3886619 7.13439028,13.7282942 C6.7121055,13.9159857 6.29722922,14.1081461 5.88235294,14.3181818 C6.35649726,13.7670242 6.84669334,13.2367211 7.35294118,12.7272727 Z" id="Path" fill="#607D8B"></path>
                <path d="M30.8823529,15.8713367 C31.579855,15.1484986 32.4156613,14.5297983 33.3549878,14.0409845 C34.3080877,13.5454464 35.3487473,13.1822071 36.4374859,12.9650472 C38.651798,12.5340348 40.9692933,12.6916306 43.0738961,13.4163404 C45.1779542,14.130402 46.9837181,15.3577502 48.261738,16.9424317 C48.8890007,17.7261897 49.3626918,18.5904998 49.6645378,19.5020195 C49.9587267,20.4030927 50.0606321,21.3413603 49.9654647,22.2727273 C49.7854072,20.4617689 48.9907066,18.7334663 47.6770474,17.2959124 C46.3891271,15.8872213 44.6809563,14.7944539 42.728345,14.130081 C40.7802625,13.4617121 38.6514734,13.2632655 36.5782236,13.5567643 C34.46484,13.871842 32.4944417,14.6725325 30.8823529,15.8713367 L30.8823529,15.8713367 Z" id="Path" fill="#7BB2FF"></path>
                <path d="M5.88235294,15.9199107 C5.98360437,15.8650888 6.08574398,15.8124168 6.18965992,15.7608198 C6.08663215,15.8113419 5.98360437,15.8650888 5.88235294,15.9199107 Z M7.0138821,13.7671743 C7.08138306,13.5668079 7.15302881,13.3664415 7.22881936,13.1660751 C7.15302881,13.3631021 7.08138306,13.5634684 7.0138821,13.7671743 Z M11.7647059,6.36363636 C11.6302961,6.48652775 11.4976626,6.61175674 11.3668055,6.73932333 C11.4964784,6.61409434 11.6323685,6.48686169 11.7647059,6.36363636 Z" id="Shape" fill="#55717C"></path>
                <path d="M45.5882353,32.0715643 C43.7782561,33.9579152 41.3854062,35.0056565 38.9003717,35 L9.67214461,35 C7.89005662,35.006812 6.14063949,34.4701705 4.61556118,33.4488052 C4.53531324,33.3947539 4.45634926,33.3399914 4.37866925,33.2845178 C4.30066825,33.2290441 4.22266725,33.1714368 4.14562922,33.1127627 C4.0685912,33.0540886 3.99733102,32.9975481 3.92510788,32.938874 L3.91740407,32.9324732 C3.84132902,32.8716655 3.76717992,32.8087242 3.69303082,32.7447161 C3.61888172,32.680708 3.5533994,32.622034 3.48406518,32.5590927 L3.45228699,32.530289 C3.40317525,32.4844166 3.35598946,32.4396109 3.30687772,32.3916048 L3.22213589,32.3105279 C3.1826539,32.272123 3.14509786,32.234785 3.10657885,32.1942465 C3.01702214,32.1046352 2.92842841,32.0107566 2.84079766,31.9158113 C1.02035446,29.9662983 -0.00528127204,27.2798169 0,24.4748702 C0,24.3927264 0,24.3105827 0,24.2295058 C0,24.1750989 0,24.1228256 0,24.0630847 C0,23.9254673 0.0115761565,23.7910503 0.0221688851,23.6544997 C0.0221688851,23.5872912 0.0317986383,23.5190159 0.0385394656,23.4518074 C0.0452802929,23.3845989 0.0481692188,23.3451273 0.0549100461,23.2843196 C0.0616508734,23.2235119 0.0683917006,23.1541698 0.0770584786,23.0890949 C0.100169886,22.8942258 0.128738154,22.7007791 0.162763282,22.5087548 C0.170467085,22.4618155 0.179133863,22.4170099 0.187800641,22.3700706 C0.204171221,22.2836597 0.221504777,22.1983155 0.237875358,22.1129714 C0.251357012,22.0542973 0.263875692,21.9956232 0.277357346,21.938016 C0.290839001,21.8804087 0.306246606,21.8132002 0.321654211,21.7513257 C0.33224694,21.70652 0.342839668,21.6638479 0.354395372,21.6211759 C0.365951076,21.5785038 0.375580829,21.540099 0.387136533,21.4984937 C0.398692237,21.4568884 0.412173892,21.4067488 0.425655546,21.3598095 C0.439137201,21.3128702 0.449729929,21.2755322 0.463211584,21.2339269 C0.521632087,21.0369242 0.585830442,20.8424107 0.655806649,20.6503864 C0.676992106,20.5906455 0.699140538,20.5309047 0.721288971,20.4722306 C0.743437403,20.4135565 0.765585836,20.3538156 0.789660219,20.2951415 C0.813734602,20.2364674 0.835883034,20.1777933 0.860920393,20.120186 C0.885957751,20.0625788 0.909069159,20.0039047 0.935069493,19.9473642 C0.961069827,19.8908237 0.98514421,19.8321496 1.01210752,19.7756091 C1.03907083,19.7190686 1.06410819,19.6614614 1.09203447,19.6059877 C1.11996076,19.550514 1.14596109,19.4929067 1.17485035,19.437433 C1.23070292,19.3307529 1.28848144,19.2144715 1.34818591,19.1045909 C1.40789038,18.9947104 1.46374295,18.8986982 1.52248444,18.7973521 C1.71597688,18.4704645 1.92558123,18.1556364 2.15034435,17.8542994 C2.18212254,17.8105606 2.21390072,17.7689553 2.24664188,17.7262833 C2.36797678,17.573375 2.49284258,17.4243784 2.62123929,17.2792934 C2.65301747,17.2419553 2.68383268,17.2067509 2.71753682,17.1726132 C2.83180989,17.0431746 2.94961387,16.917292 3.07094876,16.7949655 L3.16243142,16.7032205 C3.30816168,16.5609803 3.45806484,16.4212293 3.6121409,16.2839675 L3.70843843,16.2018238 C3.78932835,16.1335485 3.87214423,16.0652732 3.95496011,15.9991315 C3.99347912,15.9681942 4.03199814,15.9383238 4.07051715,15.9095201 C4.15622195,15.8423116 4.24385271,15.7772367 4.33148346,15.7132286 C4.37578033,15.6801578 4.42200314,15.6492205 4.46822596,15.6172165 L4.58859787,15.5350728 L4.68489541,15.4731983 C4.73400715,15.4401274 4.78119294,15.4081234 4.83415658,15.3771861 L4.85149014,15.3665181 C4.89867593,15.3355809 4.94778767,15.3067772 4.99593644,15.2779736 C5.0440852,15.2491699 5.10090075,15.2150323 5.15386439,15.1851618 L5.31371829,15.0944837 L5.47549815,15.0080728 L5.64016693,14.9237955 C5.74994612,14.8693886 5.86068828,14.8171153 5.97335639,14.7659088 C6.0860245,14.7147023 6.19002584,14.6698967 6.29884205,14.625091 C6.31713858,14.5450809 6.33639809,14.4661376 6.35565759,14.3861275 C6.38454685,14.2687793 6.41343611,14.1503643 6.44425132,14.0351497 C6.47506654,13.9199352 6.50588175,13.8015202 6.54054886,13.6852388 C6.57521597,13.5689574 6.60603118,13.4537429 6.63684639,13.3385283 C6.6676616,13.2233137 6.70618061,13.1102327 6.74277368,12.9982186 C6.74319123,12.99611 6.74319123,12.9939263 6.74277368,12.9918178 C6.77840376,12.8851376 6.81307087,12.7784574 6.85062691,12.6717773 C6.85062691,12.6643097 6.85062691,12.6557753 6.85833071,12.6472408 C6.93280081,12.4338805 7.01048082,12.2205202 7.09137074,12.0071599 L7.11159322,11.9548866 C7.14722331,11.8631417 7.1828534,11.7713967 7.22040944,11.6807186 L7.24640977,11.6167105 C7.28107688,11.5324332 7.31574399,11.4481559 7.35137408,11.3638785 L7.38604119,11.2838684 C7.42552318,11.1931903 7.46404219,11.1035789 7.50448716,11.0139676 L7.52470964,10.9680951 C7.56996948,10.8678158 7.61619229,10.7675364 7.66241511,10.6683239 C7.70863793,10.5691113 7.75871264,10.468832 7.80493546,10.3696194 L7.84441745,10.2906761 C7.87908456,10.2224008 7.91182572,10.1541255 7.94841878,10.086917 C7.97249316,10.0378441 7.99656755,9.98877127 8.02353086,9.94076519 C8.05049417,9.89275912 8.0880502,9.81594941 8.11982839,9.75407491 C8.13427302,9.72740488 8.14871765,9.70073484 8.16316228,9.6740648 C8.20842212,9.58765387 8.25945981,9.50230974 8.30471965,9.41696561 C8.34997949,9.33162148 8.40101718,9.24627735 8.4510919,9.16093323 C8.48961091,9.09585833 8.52716695,9.02971663 8.56664894,8.96570853 L8.63116829,8.85902837 C8.6658354,8.80248789 8.70050251,8.74594741 8.7361326,8.69047372 C8.77176268,8.63500004 8.80450385,8.58379356 8.84013393,8.52618628 C8.87576402,8.46857899 8.88731972,8.45151016 8.91235708,8.41310531 C8.95183907,8.35123081 8.99228403,8.28722272 9.03465495,8.22641503 L9.08569264,8.14960531 C9.13287843,8.07812961 9.18199017,8.0066539 9.23013894,7.93624499 C9.32451052,7.80040559 9.42080805,7.66527739 9.51903154,7.53086039 C9.56236543,7.4711195 9.60666229,7.41137861 9.65095916,7.35163772 C9.74982462,7.22006552 9.85093703,7.08920452 9.95429638,6.95905473 C9.9966673,6.90464785 10.0400012,6.85237457 10.0842981,6.79690089 L10.12378,6.74889481 C10.1854105,6.6731519 10.2480039,6.59740899 10.3105973,6.52273288 L10.3317827,6.49819644 C10.4011169,6.41605272 10.4714141,6.33497579 10.5436373,6.25389887 C10.8739378,5.87838471 11.21772,5.51673897 11.5797987,5.17216205 C11.7216771,5.03632265 11.8654814,4.90297245 12.0112117,4.77211145 C12.1017314,4.69103453 12.193214,4.61209122 12.2846967,4.5331479 C12.2956377,4.5223452 12.3072193,4.51236608 12.3193638,4.50327745 C12.4156613,4.42113373 12.5119588,4.34112361 12.6082564,4.26218029 C12.7045539,4.18323697 12.8075923,4.10216005 12.9087047,4.02321673 L12.9144825,4.02321673 C13.0175209,3.94320661 13.1215222,3.8653301 13.2245606,3.78745358 C13.3275989,3.70957706 13.4344892,3.63490095 13.5394535,3.56022484 C13.7506661,3.41158382 13.9650886,3.2693436 14.182721,3.1335042 C14.2915372,3.0652289 14.4003535,2.9969536 14.5101326,2.9308119 C14.6199118,2.8646702 14.729691,2.7995953 14.8413962,2.73665401 C14.8991747,2.70251636 14.9588791,2.67051231 15.0176206,2.63850826 C15.7408509,2.23005332 16.4897433,1.87994449 17.2584642,1.59090909 C16.9618678,1.82667224 9.29465829,5.77597176 9.60473634,14.0266153 C6.72793849,15.181167 4.39244209,17.5711942 3.12583836,20.6567872 C2.62910449,24.0077672 3.64369986,27.4159865 5.84239175,29.7822081 C7.66077603,31.7709108 10.1166331,32.8799604 12.6718127,32.8663315 L41.9010028,32.8663315 C43.1649327,32.8683273 44.4171865,32.5984094 45.5882353,32.0715643 Z" id="Path" fill="#7BB2FF"></path>
            </g>
            <g id="github-copy-9" transform="translate(25.000000, 0.000000)" fill="#000000">
                <path d="M15.9999274,0 C8.15333836,0.000364917736 1.46497546,6.38259931 0.208054161,15.0690741 C-1.04886714,23.755549 3.49664303,32.1823853 10.9404443,34.9656516 C11.7403677,35.1226853 12.0403389,34.5844248 12.0403389,34.1133774 C12.0403389,33.6872582 12.0203248,32.2742594 12.0203248,30.7715834 C8.00069412,31.6014114 6.96079379,29.6726521 6.64082446,28.6633801 C6.28577965,27.6817844 5.72295324,26.8119118 5.00098164,26.128932 C4.44103531,25.792508 3.64111198,24.9626621 4.98096755,24.9402697 C6.01927816,25.0666288 6.93736642,25.753041 7.44074779,26.7793338 C7.88267565,27.6697028 8.62239089,28.3262113 9.49660279,28.6039364 C10.3708147,28.8816614 11.3076374,28.7577659 12.1002692,28.2595995 C12.1695282,27.3474375 12.5320031,26.4945881 13.1202034,25.8598466 C9.56054461,25.4112813 5.84090113,23.863659 5.84090113,17.0006808 C5.81841963,15.217446 6.40514359,13.4921414 7.48074395,12.1786032 C6.9916417,10.6287551 7.04887007,8.92791065 7.64072862,7.42381047 C7.64072862,7.42381047 8.9805522,6.95279891 12.0403069,9.26292843 C14.6581169,8.45546289 17.4217302,8.45546289 20.0395402,9.26292843 C23.0992149,6.93038858 24.4391185,7.42381047 24.4391185,7.42381047 C25.0310574,8.92788987 25.0882869,10.6287691 24.5991032,12.1786032 C25.6779425,13.4898932 26.2651787,15.2167042 26.238946,17.0006808 C26.238946,23.8861052 22.4992724,25.4112813 18.9396456,25.8598466 C19.7121997,26.7380267 20.1063015,27.949416 20.0195421,29.1792302 C20.0195421,31.5790908 19.999528,33.50785 19.999528,34.1134492 C19.999528,34.5844607 20.2994993,35.1451495 21.0994226,34.9657233 C28.5295038,32.1599788 33.0541511,23.7316338 31.7886223,15.0542792 C30.5230936,6.37692462 23.8398733,0.00457625688 15.9999274,0 Z" id="Path"></path>
            </g>
        </g>
        <g id="git-copy-8" transform="translate(97.162162, 455.000000)">
            <path d="M33.6868029,9.48211105 C32.4200979,9.48211105 31.4768956,10.2002018 31.4768956,11.9286421 C31.4768956,13.230716 32.0984465,14.134741 33.6187702,14.134741 C34.9072271,14.134741 35.7828595,13.2579649 35.7828595,11.8746784 C35.7828595,10.3070606 34.9993258,9.48211105 33.6868029,9.48211105 L33.6868029,9.48211105 Z M31.1547814,21.6853801 C30.8548819,22.1101437 30.5559081,22.5616219 30.5559081,23.0943127 C30.5559081,24.157023 31.7295887,24.4765307 33.3424739,24.4765307 C34.6776744,24.4765307 36.4969719,24.3686033 36.4969719,22.9350932 C36.4969719,22.0828947 35.6213395,22.0305339 34.5156917,21.9503898 L31.1547814,21.6853801 Z M37.9696264,9.56225512 C38.3838393,10.1740215 38.8221183,11.0246171 38.8221183,12.2476155 C38.8221183,15.1979855 36.8186233,16.9258915 33.917744,16.9258915 C33.1800284,16.9258915 32.5121967,16.8201013 32.0979837,16.6870622 L31.3380533,18.0959948 L33.5942413,18.25468 C37.5780909,18.5480073 39.9263778,18.6810464 39.9263778,22.2153995 C39.9263778,25.2731626 37.6012313,27 33.5942413,27 C29.4261942,27 27.8378378,25.7770016 27.8378378,23.6777615 C27.8378378,22.4809435 28.2987944,21.8445997 29.1045428,20.9656865 C28.3441496,20.5948866 28.0914565,19.9307595 28.0914565,19.2126687 C28.0914565,18.627617 28.3446124,18.0959948 28.7592882,17.5905529 C29.173964,17.0861796 29.6344577,16.5802034 30.1865875,15.9956861 C29.058262,15.3577393 28.2066957,13.9755214 28.2066957,12.0077176 C28.2066957,8.95102307 29.956572,6.85178296 33.479465,6.85178296 C34.4698737,6.85178296 35.0692098,6.95703883 35.5981991,7.11786124 L40.0888233,7.11786124 L40.0888233,9.37685519 L37.9696264,9.56225512 L37.9696264,9.56225512 Z M44.13978,4.73223968 C42.8267943,4.73223968 42.0668639,3.85439506 42.0668639,2.33860371 C42.0668639,0.824949539 42.8267943,0 44.13978,0 C45.4754434,0 46.2349112,0.824415245 46.2349112,2.33860371 C46.2353738,3.85439506 45.4754434,4.73223968 44.13978,4.73223968 Z M41.1685539,20.7076226 L41.1685539,18.6083825 L42.3436229,18.4224483 C42.6657372,18.3690189 42.7115551,18.2894091 42.7115551,17.8897574 L42.7115551,10.0746428 C42.7115551,9.78291843 42.6430596,9.59591562 42.4121185,9.51684015 L41.1685539,9.01139827 L41.4217098,6.85926307 L46.189093,6.85926307 L46.189093,17.8902917 C46.189093,18.3166581 46.2113078,18.3690189 46.557488,18.4229825 L47.7320942,18.6089168 L47.7320942,20.7081569 L41.1685539,20.7081569 L41.1685539,20.7076226 Z M56.8378378,19.6764357 C55.8469663,20.233704 54.3969895,20.7396802 53.0835409,20.7396802 C50.3437187,20.7396802 49.3079548,19.4648553 49.3079548,16.459453 L49.3079548,9.4949341 C49.3079548,9.33624886 49.3079548,9.22939011 49.1232945,9.22939011 L47.5117977,9.22939011 L47.5117977,6.86353742 C49.5388959,6.59692484 50.3441815,5.42735584 50.5973374,2.52988087 L52.7854927,2.52988087 L52.7854927,6.30573475 C52.7854927,6.49113468 52.7854927,6.57181304 52.9696902,6.57181304 L56.216287,6.57181304 L56.216287,9.22992441 L52.7854927,9.22992441 L52.7854927,15.582677 C52.7854927,17.1508291 53.1080697,17.7620612 54.3511715,17.7620612 C54.9967884,17.7620612 55.6636944,17.5766613 56.216287,17.3372977 L56.8378378,19.6764357 L56.8378378,19.6764357 Z" id="Shape" fill="#31251C" fill-rule="nonzero"></path>
            <path d="M24.3660605,12.7527014 L13.4507669,0.52799263 C12.8226901,-0.175997543 11.8030849,-0.175997543 11.1745283,0.52799263 L8.90788592,3.06665643 L11.7824529,6.28673973 C12.4513139,6.0341631 13.2170974,6.20344318 13.7496912,6.80049133 C14.2851638,7.40076387 14.4353457,8.26597317 14.2040752,9.01725428 L16.9750023,12.1207224 C17.644823,11.8622344 18.4187633,12.0293649 18.954236,12.6296374 C19.7027461,13.4674395 19.7027461,14.8254419 18.954236,15.6637814 C18.205246,16.5021208 16.9932353,16.5021208 16.2447251,15.6637814 C15.681903,15.0328772 15.5427569,14.106942 15.8277665,13.3304032 L13.2434872,10.4359826 L13.2430074,18.0530488 C13.4258166,18.1540794 13.5975901,18.2884287 13.7496912,18.4582462 C14.4982013,19.2960482 14.4982013,20.6535132 13.7496912,21.4929275 C13.001181,22.3307295 11.7882107,22.3307295 11.0406601,21.4929275 C10.2921499,20.6535132 10.2921499,19.2960482 11.0406601,18.4582462 C11.2258684,18.2513483 11.4393857,18.0949657 11.6677773,17.9901733 L11.6677773,10.3027081 C11.4393857,10.1984531 11.2258684,10.0426079 11.0406601,9.83463524 C10.4735197,9.19996929 10.3372525,8.26866015 10.6280199,7.48889699 L7.79423712,4.31395505 L0.309615166,12.6962747 C-0.319421271,13.4008023 -0.319421271,14.542771 0.309615166,15.2472986 L11.2249088,27.4720074 C11.8534654,28.1759975 12.8725908,28.1759975 13.502107,27.4720074 L24.3660605,15.3031879 C24.9950969,14.5991977 24.9950969,13.4566916 24.3660605,12.7527014 L24.3660605,12.7527014 Z" id="Path" fill="#F34F29" fill-rule="nonzero"></path>
            <polygon id="Path" points="-0.162162162 0 57.8378378 0 57.8378378 28 -0.162162162 28"></polygon>
        </g>
        <text id="Remote-Repository" font-family="Helvetica-Bold, Helvetica" font-size="21" font-weight="bold" fill="#199ABD">
            <tspan x="65" y="272">Remote Repository</tspan>
        </text>
        <text id="Local-Repository" font-family="Helvetica-Bold, Helvetica" font-size="21" font-weight="bold" fill="#0055C2">
            <tspan x="65" y="443">Local Repository</tspan>
        </text>
        <g id="Group-2-Copy-2" transform="translate(187.000000, 327.000000)" stroke="#1576ED" stroke-width="2">
            <ellipse id="Oval" fill="#7BB2FF" cx="5.3" cy="5.4" rx="4.3" ry="4.4"></ellipse>
            <ellipse id="Oval-Copy" fill="#7BB2FF" cx="25.175" cy="21.6" rx="4.3" ry="4.4"></ellipse>
            <ellipse id="Oval-Copy-7" fill="#7BB2FF" cx="47.7" cy="21.6" rx="4.3" ry="4.4"></ellipse>
            <ellipse id="Oval-Copy-3" fill="#7BB2FF" cx="35.775" cy="5.4" rx="4.3" ry="4.4"></ellipse>
            <line x1="5.9625" y1="9.80625" x2="5.9625" y2="20.925" id="Line-6" stroke-linecap="square"></line>
            <line x1="5.64565217" y1="20.925" x2="20.8543478" y2="20.925" id="Line"></line>
            <line x1="28.1706522" y1="20.925" x2="43.3793478" y2="20.925" id="Line-Copy-3"></line>
            <line x1="10.9480415" y1="6.075" x2="30.475" y2="6.075" id="Line-Copy" stroke-linecap="round"></line>
        </g>
        <g id="Group-2" transform="translate(272.000000, 428.000000)">
            <g id="Group-2-Copy-3" transform="translate(12.000000, 31.000000)" stroke="#1576ED" stroke-width="2">
                <ellipse id="Oval" fill="#7BB2FF" cx="5.3" cy="5.4" rx="4.3" ry="4.4"></ellipse>
                <ellipse id="Oval-Copy" fill="#7BB2FF" cx="25.175" cy="21.6" rx="4.3" ry="4.4"></ellipse>
                <ellipse id="Oval-Copy-7" fill="#7BB2FF" cx="47.7" cy="21.6" rx="4.3" ry="4.4"></ellipse>
                <ellipse id="Oval-Copy-3" fill="#7BB2FF" cx="35.775" cy="5.4" rx="4.3" ry="4.4"></ellipse>
                <line x1="5.9625" y1="9.80625" x2="5.9625" y2="20.925" id="Line-6" stroke-linecap="square"></line>
                <line x1="5.64565217" y1="20.925" x2="20.8543478" y2="20.925" id="Line"></line>
                <line x1="28.1706522" y1="20.925" x2="43.3793478" y2="20.925" id="Line-Copy-3"></line>
                <line x1="10.9480415" y1="6.075" x2="30.475" y2="6.075" id="Line-Copy" stroke-linecap="round"></line>
            </g>
            <g id="Group-Copy-13" fill="#199ABD" fill-opacity="0.2" fill-rule="nonzero">
                <path d="M73.8212072,9.55663117 C71.0453467,3.26815102 53.9909163,0 37.1266132,0 C20.2623101,0 3.39800707,3.23717328 0.470044647,9.46369797 C0.172052144,9.83133457 0.0133658186,10.2622511 0.0137388141,10.7028074 L0.0137388141,67.9031946 C-0.00457960468,68.0266562 -0.00457960468,68.1514658 0.0137388141,68.2749274 C0.00453415808,68.3832198 0.00453415808,68.4919012 0.0137388141,68.6001936 C0.0137388141,76.0813166 18.6842525,80 37.1266132,80 C55.5689739,80 74.2014621,76.0813166 74.2014621,68.6001936 C74.2106591,68.4970704 74.2106591,68.3935395 74.2014621,68.2904163 C74.221345,68.1618505 74.221345,68.0317603 74.2014621,67.9031946 L74.2014621,10.7028074 C74.2111691,10.2990554 74.0792531,9.90142993 73.8212072,9.55663117 Z" id="Path" stroke="#12738D" stroke-dasharray="4"></path>
                <path d="M37.1047154,0 C61.1369104,0 74.1983746,5.27231121 74.1983746,7.98169336 C74.2223742,8.06600665 74.2223742,8.15367298 74.1983746,8.23798627 C73.4115394,11.020595 60.3275942,16 37.1047154,16 C13.8818367,16 0.797891451,10.9656751 0.011056257,8.23798627 C-0.003685419,8.17139865 -0.003685419,8.1032009 0.011056257,8.03661327 C0.011056257,5.27231121 13.0725205,0 37.1047154,0 Z" id="Path" stroke="#199ABD" stroke-dasharray="3"></path>
            </g>
        </g>
        <g id="Group-5" transform="translate(253.000000, 362.000000)" fill="#FFAA1D">
            <polygon id="Path" points="57.4296569 53.4116 57.2450069 51.25208 56.1609569 45.476 54.5288469 39.89916 52.3767569 34.55402 49.7327369 29.47255 46.6247269 24.68632 43.0804169 20.22671 39.1273469 16.12506 34.7929569 12.41281 30.1046969 9.12156 25.0901769 6.28314 19.7773869 3.9296 14.1947869 2.09303 8.3715069 0.80549 2.3759569 0.10319 0.2279188 0 0 4.74453 2.0666309 4.84381 1.9042789 4.83041 7.6996619 5.50927 7.4632369 5.46939 13.0530069 6.7053 12.8235469 6.64236 18.1810169 8.40486 17.9612569 8.32028 23.0597269 10.57888 22.8517469 10.47427 27.6645169 13.19848 27.4698369 13.07545 31.9702169 16.23481 31.7898969 16.09482 35.9512069 19.65883 35.7860669 19.50311 39.5815869 23.4413 39.4323469 23.27088 42.8354169 27.55277 42.7028469 27.36853 45.6867469 31.96363 45.5717669 31.76642 48.1098169 36.64425 48.0135469 36.43504 50.0790569 41.56513 50.0027969 41.34517 51.5690669 46.69703 51.5142069 46.46804 52.5545469 52.01119 52.5224269 51.77544 52.6969269 53.81627"></polygon>
            <polygon id="Triangle" transform="translate(55.907249, 55.399929) rotate(-192.000000) translate(-55.907249, -55.399929) " points="55.9072495 49.8999291 63.4072495 60.8999291 48.4072495 60.8999291"></polygon>
        </g>
        <g id="trial-copy" transform="translate(4.000000, 570.000000)" fill="#006AE1" fill-rule="nonzero">
            <path d="M24.7390408,0.0712262435 C23.8197062,-0.175854327 23.1591603,0.239201967 22.6859188,1.01735927 C22.6046689,1.15134921 22.52713,1.31717641 22.4478332,1.49316028 C22.1428011,1.2575123 21.7678493,1.130415 21.3824051,1.13201247 C21.3529129,1.13201247 21.3224442,1.13259843 21.2931474,1.134161 L15.1740157,1.4288998 C14.9503832,1.43964243 14.7687429,1.47870655 14.6234306,1.53906062 C14.2647714,1.59678794 13.9347315,1.76994119 13.6833929,2.03224516 L0.468959043,15.8746167 C-0.17420408,16.5457384 -0.153305673,17.6121889 0.516224599,18.2565516 L7.02930103,24.5302495 C7.34177077,24.8320424 7.7593469,25.0004949 8.19375245,25 C8.63515806,25 9.07597773,24.8259649 9.40566475,24.4831773 L22.6199033,10.6400244 C23.0124808,10.2306324 23.3675584,9.67455464 23.2691211,9.15636906 C23.2718554,9.11457045 23.2687304,9.07296716 23.2691211,9.02804342 L23.1146291,2.88735879 C23.1183122,2.59624806 23.0497989,2.30876172 22.9152153,2.0506053 C23.3099413,1.28006549 23.6851361,0.550347698 24.542752,0.780630696 C25.0023217,0.904854604 25.1966573,0.194082907 24.7390408,0.0712262435 Z M8.52812889,13.4245632 L9.32781975,14.170287 L8.29716074,16.7269943 L10.7727157,15.5176743 L11.5754357,16.2662228 L7.51909394,18.1808206 L6.90418013,17.6074042 L8.52812889,13.4245632 Z M10.8555796,8.86713434 L14.7160332,15.2007265 L13.8468014,16.1328635 L9.99486962,9.79013275 L10.8555796,8.86713434 Z M17.1802579,6.51873344 L17.7982008,7.09497455 L16.1742521,11.2778156 L15.3745612,10.5320918 L16.4052202,7.97538454 L13.9296652,9.1847045 L13.1269453,8.43615601 L17.1802579,6.51873344 Z M21.1763507,2.2398705 C21.4058425,2.2398705 21.6355297,2.32542139 21.8136544,2.49691289 C21.8259591,2.50882745 21.8343575,2.52289053 21.8460763,2.53539105 C21.6548656,2.73520403 21.419905,2.85845134 21.1132648,2.82387959 C20.6425624,2.7709477 20.6474452,3.50808768 21.1132648,3.56062893 C21.5214674,3.60652927 21.8320138,3.4873837 22.0857244,3.27643744 C22.062433,3.47297911 21.9760108,3.65665988 21.8394357,3.79989667 C21.6663502,3.98098016 21.4266486,4.08326003 21.1761554,4.0829171 C20.9384391,4.08306483 20.7099506,3.99090921 20.5388516,3.82587432 C20.1727885,3.47281343 20.1612599,2.89015669 20.5130704,2.52289053 C20.686209,2.34188379 20.9258761,2.23961864 21.1763507,2.2398705 Z" id="Shape"></path>
        </g>
    </g>
</svg>