<svg width="800" height="600" viewBox="0 0 800 600" fill="none" xmlns="http://www.w3.org/2000/svg">
<g clip-path="url(#clip0_5189_12483)">
<rect width="800" height="600" fill="url(#paint0_linear_5189_12483)"/>
<path d="M331.668 110.566C331.668 126.842 333.003 139.31 335.672 147.969C338.341 156.562 343.81 160.859 352.078 160.859C360.346 160.859 365.75 156.562 368.289 147.969C370.893 139.31 372.195 126.842 372.195 110.566C372.195 93.5091 370.893 80.8789 368.289 72.6758C365.75 64.4727 360.346 60.3711 352.078 60.3711C343.81 60.3711 338.341 64.4727 335.672 72.6758C333.003 80.8789 331.668 93.5091 331.668 110.566ZM352.078 37.4219C370.112 37.4219 382.742 43.7695 389.969 56.4648C397.26 69.1602 400.906 87.194 400.906 110.566C400.906 133.939 397.26 151.94 389.969 164.57C382.742 177.201 370.112 183.516 352.078 183.516C334.044 183.516 321.382 177.201 314.09 164.57C306.863 151.94 303.25 133.939 303.25 110.566C303.25 87.194 306.863 69.1602 314.09 56.4648C321.382 43.7695 334.044 37.4219 352.078 37.4219ZM442.508 135.176C442.508 142.793 444.559 149.01 448.66 153.828C452.762 158.646 457.97 161.055 464.285 161.055C470.47 161.055 475.32 158.743 478.836 154.121C482.417 149.434 484.207 143.379 484.207 135.957C484.207 127.689 482.189 121.374 478.152 117.012C474.116 112.585 469.168 110.371 463.309 110.371C458.556 110.371 454.357 111.803 450.711 114.668C445.242 118.9 442.508 125.736 442.508 135.176ZM481.668 74.043C481.668 71.7643 480.789 69.2578 479.031 66.5234C476.036 62.0964 471.512 59.8828 465.457 59.8828C456.408 59.8828 449.962 64.9609 446.121 75.1172C444.038 80.7161 442.605 88.9844 441.824 99.9219C445.275 95.8203 449.279 92.8255 453.836 90.9375C458.393 89.0495 463.602 88.1055 469.461 88.1055C482.026 88.1055 492.312 92.3698 500.32 100.898C508.393 109.427 512.43 120.332 512.43 133.613C512.43 146.829 508.491 158.483 500.613 168.574C492.736 178.665 480.496 183.711 463.895 183.711C446.056 183.711 432.905 176.257 424.441 161.348C417.866 149.694 414.578 134.655 414.578 116.23C414.578 105.423 415.034 96.6341 415.945 89.8633C417.573 77.819 420.73 67.793 425.418 59.7852C429.454 52.9492 434.728 47.4479 441.238 43.2812C447.814 39.1146 455.659 37.0312 464.773 37.0312C477.924 37.0312 488.406 40.4167 496.219 47.1875C504.031 53.8932 508.426 62.8451 509.402 74.043H481.668Z" fill="white" fill-opacity="0.5"/>
<path d="M310.945 323.422L318.562 356.391L320.203 365.57L321.883 356.586L328.367 323.422H341.062L347.898 356.391L349.656 365.57L351.414 356.742L359.109 323.422H371.336L355.125 381H343.641L336.688 347.328L334.656 336.195L332.625 347.328L325.672 381H314.5L298.172 323.422H310.945ZM395.438 373.148C398.693 373.148 401.193 371.99 402.938 369.672C404.682 367.354 405.555 364.06 405.555 359.789C405.555 355.518 404.682 352.237 402.938 349.945C401.193 347.628 398.693 346.469 395.438 346.469C392.182 346.469 389.669 347.628 387.898 349.945C386.154 352.237 385.281 355.518 385.281 359.789C385.281 364.06 386.154 367.354 387.898 369.672C389.669 371.99 392.182 373.148 395.438 373.148ZM417.234 359.789C417.234 366.039 415.438 371.391 411.844 375.844C408.25 380.271 402.794 382.484 395.477 382.484C388.159 382.484 382.703 380.271 379.109 375.844C375.516 371.391 373.719 366.039 373.719 359.789C373.719 353.643 375.516 348.318 379.109 343.812C382.703 339.307 388.159 337.055 395.477 337.055C402.794 337.055 408.25 339.307 411.844 343.812C415.438 348.318 417.234 353.643 417.234 359.789ZM448.367 337.406C448.576 337.406 448.745 337.419 448.875 337.445C449.031 337.445 449.357 337.458 449.852 337.484V348.891C449.148 348.812 448.523 348.76 447.977 348.734C447.43 348.708 446.987 348.695 446.648 348.695C442.169 348.695 439.161 350.154 437.625 353.07C436.766 354.711 436.336 357.237 436.336 360.648V381H425.125V338.422H435.75V345.844C437.469 343.005 438.966 341.065 440.242 340.023C442.326 338.279 445.034 337.406 448.367 337.406ZM456.297 323.617H467.234V354.633L481.102 338.617H494.891L480.008 354.906L495.477 381H482.039L471.844 362.797L467.234 367.602V381H456.297V323.617ZM543.289 338.422H554.578L561.062 369.086L567.703 338.422H579.305L566.961 381H555.516L548.836 349.984L542.078 381H530.516L518.562 338.422H530.516L537.156 368.969L543.289 338.422ZM596.922 333.344H585.633V323.07H596.922V333.344ZM585.633 338.422H596.922V381H585.633V338.422ZM603.367 346.742V338.812H609.305V326.938H620.32V338.812H627.234V346.742H620.32V369.242C620.32 370.987 620.542 372.081 620.984 372.523C621.427 372.94 622.781 373.148 625.047 373.148C625.385 373.148 625.737 373.148 626.102 373.148C626.492 373.122 626.87 373.096 627.234 373.07V381.391L621.961 381.586C616.701 381.768 613.107 380.857 611.18 378.852C609.93 377.576 609.305 375.609 609.305 372.953V346.742H603.367ZM657.859 337.328C660.49 337.328 662.872 337.784 665.008 338.695C667.169 339.607 668.94 341 670.32 342.875C671.492 344.464 672.208 346.104 672.469 347.797C672.729 349.464 672.859 352.198 672.859 356V381H661.492V355.102C661.492 352.81 661.102 350.961 660.32 349.555C659.305 347.576 657.378 346.586 654.539 346.586C651.596 346.586 649.357 347.576 647.82 349.555C646.31 351.508 645.555 354.307 645.555 357.953V381H634.461V323.617H645.555V343.969C647.169 341.495 649.031 339.776 651.141 338.812C653.276 337.823 655.516 337.328 657.859 337.328ZM314.773 425.422V438.117H328.914C331.44 438.117 333.484 437.648 335.047 436.711C336.635 435.747 337.43 434.055 337.43 431.633C337.43 428.951 336.388 427.18 334.305 426.32C332.508 425.721 330.216 425.422 327.43 425.422H314.773ZM314.773 447.648V463H328.914C331.44 463 333.406 462.661 334.812 461.984C337.365 460.734 338.641 458.339 338.641 454.797C338.641 451.802 337.404 449.745 334.93 448.625C333.549 448 331.609 447.674 329.109 447.648H314.773ZM331.258 415.422C338.315 415.526 343.315 417.57 346.258 421.555C348.029 424.003 348.914 426.932 348.914 430.344C348.914 433.859 348.029 436.685 346.258 438.82C345.268 440.018 343.81 441.112 341.883 442.102C344.826 443.169 347.039 444.862 348.523 447.18C350.034 449.497 350.789 452.31 350.789 455.617C350.789 459.029 349.93 462.089 348.211 464.797C347.117 466.594 345.75 468.104 344.109 469.328C342.26 470.734 340.073 471.698 337.547 472.219C335.047 472.74 332.326 473 329.383 473H303.289V415.422H331.258ZM383.133 429.406C383.341 429.406 383.51 429.419 383.641 429.445C383.797 429.445 384.122 429.458 384.617 429.484V440.891C383.914 440.812 383.289 440.76 382.742 440.734C382.195 440.708 381.753 440.695 381.414 440.695C376.935 440.695 373.927 442.154 372.391 445.07C371.531 446.711 371.102 449.237 371.102 452.648V473H359.891V430.422H370.516V437.844C372.234 435.005 373.732 433.065 375.008 432.023C377.091 430.279 379.799 429.406 383.133 429.406ZM414.656 452.297C413.953 452.74 413.237 453.104 412.508 453.391C411.805 453.651 410.828 453.898 409.578 454.133L407.078 454.602C404.734 455.018 403.055 455.526 402.039 456.125C400.32 457.141 399.461 458.716 399.461 460.852C399.461 462.753 399.982 464.133 401.023 464.992C402.091 465.826 403.38 466.242 404.891 466.242C407.286 466.242 409.487 465.539 411.492 464.133C413.523 462.727 414.578 460.161 414.656 456.438V452.297ZM407.898 447.102C409.956 446.841 411.427 446.516 412.312 446.125C413.901 445.448 414.695 444.393 414.695 442.961C414.695 441.216 414.083 440.018 412.859 439.367C411.661 438.69 409.891 438.352 407.547 438.352C404.917 438.352 403.055 439.003 401.961 440.305C401.18 441.268 400.659 442.57 400.398 444.211H389.656C389.891 440.487 390.932 437.427 392.781 435.031C395.724 431.281 400.776 429.406 407.938 429.406C412.599 429.406 416.74 430.331 420.359 432.18C423.979 434.029 425.789 437.518 425.789 442.648V462.18C425.789 463.534 425.815 465.174 425.867 467.102C425.945 468.56 426.167 469.549 426.531 470.07C426.896 470.591 427.443 471.021 428.172 471.359V473H416.062C415.724 472.141 415.49 471.333 415.359 470.578C415.229 469.823 415.125 468.964 415.047 468C413.51 469.667 411.74 471.086 409.734 472.258C407.339 473.638 404.63 474.328 401.609 474.328C397.755 474.328 394.565 473.234 392.039 471.047C389.539 468.833 388.289 465.708 388.289 461.672C388.289 456.438 390.307 452.648 394.344 450.305C396.557 449.029 399.812 448.117 404.109 447.57L407.898 447.102ZM459.305 429.406C463.706 429.406 467.299 430.565 470.086 432.883C472.898 435.174 474.305 438.99 474.305 444.328V473H462.898V447.102C462.898 444.862 462.599 443.143 462 441.945C460.906 439.758 458.823 438.664 455.75 438.664C451.974 438.664 449.383 440.266 447.977 443.469C447.247 445.161 446.883 447.323 446.883 449.953V473H435.789V430.5H446.531V436.711C447.964 434.523 449.318 432.948 450.594 431.984C452.885 430.266 455.789 429.406 459.305 429.406ZM510.047 445.695C509.839 444.107 509.305 442.674 508.445 441.398C507.195 439.68 505.255 438.82 502.625 438.82C498.875 438.82 496.31 440.682 494.93 444.406C494.201 446.385 493.836 449.016 493.836 452.297C493.836 455.422 494.201 457.935 494.93 459.836C496.258 463.378 498.758 465.148 502.43 465.148C505.034 465.148 506.883 464.445 507.977 463.039C509.07 461.633 509.734 459.81 509.969 457.57H521.336C521.076 460.956 519.852 464.159 517.664 467.18C514.174 472.049 509.005 474.484 502.156 474.484C495.307 474.484 490.268 472.453 487.039 468.391C483.81 464.328 482.195 459.055 482.195 452.57C482.195 445.253 483.979 439.562 487.547 435.5C491.115 431.438 496.036 429.406 502.312 429.406C507.651 429.406 512.013 430.604 515.398 433C518.81 435.396 520.828 439.628 521.453 445.695H510.047ZM552.625 429.328C555.255 429.328 557.638 429.784 559.773 430.695C561.935 431.607 563.706 433 565.086 434.875C566.258 436.464 566.974 438.104 567.234 439.797C567.495 441.464 567.625 444.198 567.625 448V473H556.258V447.102C556.258 444.81 555.867 442.961 555.086 441.555C554.07 439.576 552.143 438.586 549.305 438.586C546.362 438.586 544.122 439.576 542.586 441.555C541.076 443.508 540.32 446.307 540.32 449.953V473H529.227V415.617H540.32V435.969C541.935 433.495 543.797 431.776 545.906 430.812C548.042 429.823 550.281 429.328 552.625 429.328ZM594.852 438.469C592.273 438.469 590.268 439.276 588.836 440.891C587.43 442.505 586.544 444.693 586.18 447.453H603.484C603.302 444.51 602.404 442.284 600.789 440.773C599.201 439.237 597.221 438.469 594.852 438.469ZM594.852 429.289C598.393 429.289 601.583 429.953 604.422 431.281C607.26 432.609 609.604 434.706 611.453 437.57C613.12 440.096 614.201 443.026 614.695 446.359C614.982 448.312 615.099 451.125 615.047 454.797H585.906C586.062 459.068 587.404 462.062 589.93 463.781C591.466 464.849 593.315 465.383 595.477 465.383C597.768 465.383 599.63 464.732 601.062 463.43C601.844 462.727 602.534 461.75 603.133 460.5H614.5C614.214 463.026 612.898 465.591 610.555 468.195C606.909 472.336 601.805 474.406 595.242 474.406C589.826 474.406 585.047 472.661 580.906 469.172C576.766 465.682 574.695 460.005 574.695 452.141C574.695 444.771 576.557 439.12 580.281 435.188C584.031 431.255 588.888 429.289 594.852 429.289ZM631.258 459.406C631.492 461.385 632 462.792 632.781 463.625C634.161 465.109 636.714 465.852 640.438 465.852C642.625 465.852 644.357 465.526 645.633 464.875C646.935 464.224 647.586 463.247 647.586 461.945C647.586 460.695 647.065 459.745 646.023 459.094C644.982 458.443 641.115 457.323 634.422 455.734C629.604 454.536 626.206 453.039 624.227 451.242C622.247 449.471 621.258 446.919 621.258 443.586C621.258 439.654 622.794 436.281 625.867 433.469C628.966 430.63 633.315 429.211 638.914 429.211C644.227 429.211 648.549 430.279 651.883 432.414C655.242 434.523 657.169 438.182 657.664 443.391H646.531C646.375 441.958 645.971 440.826 645.32 439.992C644.096 438.482 642.013 437.727 639.07 437.727C636.648 437.727 634.917 438.104 633.875 438.859C632.859 439.615 632.352 440.5 632.352 441.516C632.352 442.792 632.898 443.716 633.992 444.289C635.086 444.888 638.953 445.917 645.594 447.375C650.021 448.417 653.341 449.992 655.555 452.102C657.742 454.237 658.836 456.906 658.836 460.109C658.836 464.328 657.26 467.779 654.109 470.461C650.984 473.117 646.141 474.445 639.578 474.445C632.885 474.445 627.938 473.039 624.734 470.227C621.557 467.388 619.969 463.781 619.969 459.406H631.258Z" fill="white" fill-opacity="0.8"/>
<circle cx="73" cy="300" r="173" fill="white"/>
<circle cx="132.5" cy="111.5" r="19.5" fill="white"/>
<circle cx="172" cy="76" r="10" fill="white"/>
<circle cx="212.5" cy="60.5" r="7.5" fill="white"/>
<circle cx="246.5" cy="56.5" r="5.5" fill="white"/>
<circle cx="270.5" cy="62.5" r="4.5" fill="white"/>
<circle cx="288.5" cy="76.5" r="3.5" fill="white"/>
<path d="M42.1621 368.176C41.752 366.406 40.75 365.17 39.1562 364.467C38.2656 364.08 37.2754 363.887 36.1855 363.887C34.0996 363.887 32.3828 364.678 31.0352 366.26C29.6992 367.83 29.0312 370.197 29.0312 373.361C29.0312 376.549 29.7578 378.805 31.2109 380.129C32.6641 381.453 34.3164 382.115 36.168 382.115C37.9844 382.115 39.4727 381.594 40.6328 380.551C41.793 379.496 42.5078 378.119 42.7773 376.42H36.7832V372.096H47.5762V386H43.9902L43.4453 382.766C42.4023 383.996 41.4648 384.863 40.6328 385.367C39.2031 386.246 37.4453 386.686 35.3594 386.686C31.9258 386.686 29.1133 385.496 26.9219 383.117C24.6367 380.727 23.4941 377.457 23.4941 373.309C23.4941 369.113 24.6484 365.75 26.957 363.219C29.2656 360.688 32.3184 359.422 36.1152 359.422C39.4082 359.422 42.0508 360.26 44.043 361.936C46.0469 363.6 47.1953 365.68 47.4883 368.176H42.1621ZM57.5078 364.555H52.4277V359.932H57.5078V364.555ZM52.4277 366.84H57.5078V386H52.4277V366.84ZM60.4082 370.584V367.016H63.0801V361.672H68.0371V367.016H71.1484V370.584H68.0371V380.709C68.0371 381.494 68.1367 381.986 68.3359 382.186C68.5352 382.373 69.1445 382.467 70.1641 382.467C70.3164 382.467 70.4746 382.467 70.6387 382.467C70.8145 382.455 70.9844 382.443 71.1484 382.432V386.176L68.7754 386.264C66.4082 386.346 64.791 385.936 63.9238 385.033C63.3613 384.459 63.0801 383.574 63.0801 382.379V370.584H60.4082ZM74.7344 386V360.09H80.0957V369.969H90.2207V360.09H95.5996V386H90.2207V374.434H80.0957V386H74.7344ZM105.373 366.84V378.389C105.373 379.479 105.502 380.299 105.76 380.85C106.217 381.822 107.113 382.309 108.449 382.309C110.16 382.309 111.332 381.617 111.965 380.234C112.293 379.484 112.457 378.494 112.457 377.264V366.84H117.537V386H112.668V383.293C112.621 383.352 112.504 383.527 112.316 383.82C112.129 384.113 111.906 384.371 111.648 384.594C110.863 385.297 110.102 385.777 109.363 386.035C108.637 386.293 107.781 386.422 106.797 386.422C103.961 386.422 102.051 385.402 101.066 383.363C100.516 382.238 100.24 380.58 100.24 378.389V366.84H105.373ZM132.742 366.418C135.262 366.418 137.23 367.326 138.648 369.143C140.078 370.959 140.793 373.303 140.793 376.174C140.793 379.15 140.09 381.617 138.684 383.574C137.277 385.531 135.314 386.51 132.795 386.51C131.213 386.51 129.941 386.193 128.98 385.561C128.406 385.186 127.785 384.529 127.117 383.592V386H122.213V360.125H127.205V369.336C127.838 368.445 128.535 367.766 129.297 367.297C130.199 366.711 131.348 366.418 132.742 366.418ZM131.459 382.379C132.748 382.379 133.75 381.857 134.465 380.814C135.18 379.771 135.537 378.4 135.537 376.701C135.537 375.342 135.361 374.217 135.01 373.326C134.342 371.639 133.111 370.795 131.318 370.795C129.502 370.795 128.254 371.621 127.574 373.273C127.223 374.152 127.047 375.289 127.047 376.684C127.047 378.324 127.41 379.684 128.137 380.762C128.863 381.84 129.971 382.379 131.459 382.379Z" fill="#363636"/>
<path fill-rule="evenodd" clip-rule="evenodd" d="M97.5328 219.551C97.5328 221.853 98.843 223.186 101.107 223.186C103.41 223.186 104.72 221.853 104.719 219.551C104.719 217.252 103.41 216 101.107 216C98.843 216 97.5328 217.253 97.5328 219.551ZM90.4686 230.52C91.1828 231.449 91.9384 232.741 91.9384 234.598C91.9384 239.078 88.4841 241.702 83.4826 241.702C82.2107 241.702 81.0592 241.542 80.3451 241.34L79.0349 243.479L82.9248 243.72L83.1521 243.735C89.8828 244.171 93.8423 244.427 93.8423 249.734C93.8423 254.378 89.8334 257 82.9248 257C75.7385 257 73 255.143 73 251.955C73 250.138 73.7948 249.171 75.184 247.837C73.873 247.274 73.4373 246.265 73.4373 245.175C73.4373 244.286 73.8737 243.479 74.5887 242.712C75.3037 241.946 76.0976 241.177 77.0496 240.29C75.1042 239.321 73.636 237.222 73.636 234.234C73.636 229.592 76.653 226.405 82.7269 226.405C84.4345 226.405 85.4679 226.564 86.3799 226.809H94.1224V230.239L90.4686 230.52ZM79.2742 234.114C79.2742 231.489 80.9004 230.399 83.0844 230.399C85.3474 230.399 86.6983 231.651 86.6983 234.032C86.6983 236.132 85.1886 237.464 82.9671 237.464C80.3459 237.464 79.2742 236.091 79.2742 234.114ZM77.6863 251.069C77.6863 250.26 78.2018 249.575 78.7189 248.93L84.5135 249.332L84.5862 249.337C86.4581 249.456 87.9295 249.55 87.9295 250.827C87.9295 253.004 84.7928 253.168 82.4908 253.168C79.7099 253.168 77.6863 252.683 77.6863 251.069ZM95.984 247.445V244.257L98.01 243.975C98.5653 243.894 98.6443 243.773 98.6443 243.166V231.299C98.6443 230.856 98.5262 230.572 98.1281 230.451L95.984 229.684L96.4205 226.416H104.64V243.167C104.64 243.814 104.678 243.894 105.275 243.976L107.3 244.258V247.446H95.984V247.445ZM116.527 247.494C118.792 247.494 121.292 246.725 123 245.879L121.928 242.327C120.976 242.69 119.826 242.972 118.713 242.972C116.569 242.972 116.013 242.044 116.013 239.663V230.016H121.928V225.979H116.331C116.013 225.979 116.013 225.857 116.013 225.575V219.842H112.241C111.804 224.242 110.416 226.018 106.921 226.422V230.015H109.699C110.017 230.015 110.017 230.177 110.017 230.418V240.994C110.017 245.558 111.803 247.494 116.527 247.494Z" fill="#31251C"/>
<path d="M63.2074 235.129L44.8697 216.792C43.8146 215.736 42.1016 215.736 41.0456 216.792L37.2377 220.6L42.067 225.43C43.1906 225.051 44.4772 225.305 45.3719 226.201C46.2715 227.101 46.5238 228.399 46.1353 229.526L50.7904 234.181C51.9157 233.793 53.216 234.044 54.1155 234.944C55.373 236.201 55.373 238.238 54.1155 239.496C52.8572 240.753 50.8211 240.753 49.5636 239.496C48.618 238.549 48.3843 237.16 48.8631 235.996L44.5215 231.654L44.5207 243.08C44.8278 243.231 45.1164 243.433 45.3719 243.687C46.6294 244.944 46.6294 246.98 45.3719 248.239C44.1144 249.496 42.0766 249.496 40.8207 248.239C39.5632 246.98 39.5632 244.944 40.8207 243.687C41.1319 243.377 41.4906 243.142 41.8743 242.985V231.454C41.4906 231.298 41.1319 231.064 40.8207 230.752C39.8679 229.8 39.639 228.403 40.1275 227.233L35.3668 222.471L22.7926 235.044C21.7358 236.101 21.7358 237.814 22.7926 238.871L41.1303 257.208C42.1863 258.264 43.8984 258.264 44.956 257.208L63.2074 238.955C64.2642 237.899 64.2642 236.185 63.2074 235.129V235.129Z" fill="#F34F29"/>
<path d="M84.4999 291C70.5231 291.001 58.6095 301.212 56.3706 315.111C54.1317 329.009 62.2284 342.492 75.4877 346.945C76.9125 347.196 77.4469 346.335 77.4469 345.581C77.4469 344.9 77.4112 342.639 77.4112 340.235C70.2512 341.562 68.3989 338.476 67.829 336.861C67.1965 335.291 66.194 333.899 64.908 332.806C63.9106 332.268 62.4857 330.94 64.8723 330.904C66.7218 331.107 68.3572 332.205 69.2538 333.847C70.041 335.272 71.3586 336.322 72.9158 336.766C74.473 337.211 76.1417 337.012 77.5536 336.215C77.677 334.756 78.3226 333.391 79.3704 332.376C73.0297 331.658 66.4041 329.182 66.4041 318.201C66.3641 315.348 67.4092 312.587 69.3251 310.486C68.4539 308.006 68.5558 305.285 69.61 302.878C69.61 302.878 71.9966 302.124 77.4468 305.821C82.1098 304.529 87.0325 304.529 91.6954 305.821C97.1455 302.089 99.5322 302.878 99.5322 302.878C100.587 305.285 100.689 308.006 99.8172 310.486C101.739 312.584 102.785 315.347 102.738 318.201C102.738 329.218 96.0768 331.658 89.7362 332.376C91.1124 333.781 91.8143 335.719 91.6598 337.687C91.6598 341.527 91.6242 344.613 91.6242 345.582C91.6242 346.335 92.1585 347.232 93.5833 346.945C106.818 342.456 114.878 328.971 112.623 315.087C110.369 301.203 98.4648 291.007 84.4999 291Z" fill="black"/>
<path d="M741.435 592.713C741.435 593.599 742.138 594.276 742.998 594.276C743.883 594.276 744.587 593.599 744.587 592.713V576.563C744.587 575.703 743.883 575 742.998 575C742.112 575 741.435 575.703 741.435 576.563V592.713Z" fill="white"/>
<path d="M748.654 576.849C748.654 577.787 749.435 578.412 750.451 578.412C751.467 578.412 752.248 577.787 752.248 576.849V576.693C752.248 575.755 751.467 575.156 750.451 575.156C749.435 575.156 748.654 575.755 748.654 576.693V576.849ZM748.888 592.713C748.888 593.599 749.591 594.276 750.451 594.276C751.337 594.276 752.04 593.599 752.04 592.713V581.825C752.04 580.939 751.337 580.236 750.451 580.236C749.565 580.236 748.888 580.939 748.888 581.825V592.713Z" fill="white"/>
<path d="M756.159 592.713C756.159 593.573 756.863 594.276 757.722 594.276C758.608 594.276 759.311 593.573 759.311 592.713V592.01C760.275 593.287 761.708 594.433 764 594.433C767.256 594.433 770.382 591.854 770.382 587.295V587.243C770.382 582.658 767.23 580.106 764 580.106C761.76 580.106 760.327 581.252 759.311 582.685V576.563C759.311 575.677 758.608 575 757.722 575C756.837 575 756.159 575.677 756.159 576.563V592.713ZM763.245 591.698C761.109 591.698 759.233 589.926 759.233 587.295V587.243C759.233 584.612 761.109 582.841 763.245 582.841C765.381 582.841 767.178 584.586 767.178 587.243V587.295C767.178 590.004 765.407 591.698 763.245 591.698Z" fill="white"/>
<path d="M773.818 592.713C773.818 593.599 774.521 594.276 775.381 594.276C776.267 594.276 776.97 593.599 776.97 592.713V576.563C776.97 575.703 776.267 575 775.381 575C774.495 575 773.818 575.703 773.818 576.563V592.713Z" fill="white"/>
<path d="M787.628 594.459C791.874 594.459 795 591.203 795 587.295V587.243C795 583.31 791.9 580.106 787.68 580.106C783.46 580.106 780.334 583.362 780.334 587.295V587.347C780.334 591.255 783.434 594.459 787.628 594.459ZM787.68 591.698C785.231 591.698 783.486 589.692 783.486 587.295V587.243C783.486 584.847 785.101 582.867 787.628 582.867C790.102 582.867 791.848 584.873 791.848 587.295V587.347C791.848 589.718 790.233 591.698 787.68 591.698Z" fill="white"/>
<path d="M736.96 590.09C735.74 590.65 734.453 591.046 733.208 591.294C728.074 592.314 725.36 589.099 729.634 586.781C730.099 586.529 730.632 586.291 731.228 586.075L732.011 585.826C732.241 585.763 732.463 585.661 732.534 585.515C732.905 584.722 729.731 584.467 727.622 585.589C728.458 585.431 729.186 585.408 729.668 585.608C724.878 586.845 723.788 590.757 726.335 592.642C727.649 593.615 729.127 593.873 731.832 593.682C733.637 593.555 735.48 592.837 736.96 591.969V590.09Z" fill="white"/>
<path d="M734.542 592.784C734.542 593.606 735.171 594.165 736.03 594.165C736.89 594.165 737.478 593.644 737.478 592.784V586.011C737.478 584.214 737.009 582.755 735.993 581.765C735.029 580.775 733.492 580.228 731.434 580.228C729.637 580.228 728.308 580.541 727.006 581.036C726.537 581.218 726.146 581.713 726.146 582.286C726.146 583.016 726.745 583.589 727.475 583.589C727.631 583.589 727.787 583.563 727.97 583.51C728.829 583.172 729.819 582.963 731.018 582.963C733.232 582.963 734.43 584.005 734.43 585.959V585.968L734.542 592.784Z" fill="white"/>
<path d="M733.611 578.379C733.611 578.591 733.273 578.721 732.805 578.721C732.077 578.721 731.583 578.64 730.984 578.282L729.216 577.24C728.956 577.093 728.774 576.93 728.774 576.751C728.774 576.442 729.814 576.116 730.646 576.116C731.192 576.116 731.609 576.295 731.895 576.588L733.377 578.021C733.481 578.119 733.611 578.265 733.611 578.379Z" fill="white"/>
</g>
<defs>
<linearGradient id="paint0_linear_5189_12483" x1="800" y1="-1.86968e-05" x2="1.22566" y2="601.627" gradientUnits="userSpaceOnUse">
<stop stop-color="#0087B1"/>
<stop offset="1" stop-color="#001B23"/>
</linearGradient>
<clipPath id="clip0_5189_12483">
<rect width="800" height="600" fill="white"/>
</clipPath>
</defs>
</svg>
