<svg width="800" height="600" viewBox="0 0 800 600" fill="none" xmlns="http://www.w3.org/2000/svg">
<g clip-path="url(#clip0_5188_12750)">
<rect width="800" height="600" fill="url(#paint0_linear_5188_12750)"/>
<path d="M338.406 217.594C335.229 219.547 331.323 220.523 326.688 220.523C319.057 220.523 312.807 217.88 307.938 212.594C302.859 207.281 300.32 200.016 300.32 190.797C300.32 181.474 302.885 174 308.016 168.375C313.146 162.75 319.93 159.938 328.367 159.938C335.685 159.938 341.557 161.799 345.984 165.523C350.438 169.221 352.99 173.844 353.641 179.391H341.805C340.893 175.458 338.667 172.711 335.125 171.148C333.146 170.289 330.945 169.859 328.523 169.859C323.888 169.859 320.073 171.617 317.078 175.133C314.109 178.622 312.625 183.883 312.625 190.914C312.625 197.997 314.24 203.01 317.469 205.953C320.698 208.896 324.37 210.367 328.484 210.367C332.521 210.367 335.828 209.208 338.406 206.891C340.984 204.547 342.573 201.487 343.172 197.711H329.852V188.102H353.836V219H345.867L344.656 211.812C342.339 214.547 340.255 216.474 338.406 217.594ZM375.906 176.422V219H364.617V176.422H375.906ZM375.906 161.07V171.344H364.617V161.07H375.906ZM406.219 211.07V219.391L400.945 219.586C395.685 219.768 392.091 218.857 390.164 216.852C388.914 215.576 388.289 213.609 388.289 210.953V184.742H382.352V176.812H388.289V164.938H399.305V176.812H406.219V184.742H399.305V207.242C399.305 208.987 399.526 210.081 399.969 210.523C400.411 210.94 401.766 211.148 404.031 211.148C404.37 211.148 404.721 211.148 405.086 211.148C405.477 211.122 405.854 211.096 406.219 211.07ZM453.367 220.406C447.534 220.406 442.977 218.688 439.695 215.25C436.414 211.812 434.773 207.997 434.773 203.805C434.773 200.341 435.633 197.372 437.352 194.898C439.07 192.424 441.883 189.977 445.789 187.555L447 186.812C445.333 184.938 444.044 183.023 443.133 181.07C442.221 179.117 441.766 177.086 441.766 174.977C441.766 170.784 443.172 167.516 445.984 165.172C448.797 162.802 452.443 161.617 456.922 161.617C461.01 161.617 464.383 162.828 467.039 165.25C469.721 167.646 471.062 170.719 471.062 174.469C471.062 177.854 470.255 180.602 468.641 182.711C467.052 184.82 464.708 186.773 461.609 188.57L469.773 198.648C470.711 197.294 471.427 195.823 471.922 194.234C472.443 192.646 472.716 190.966 472.742 189.195H482.625C482.469 192.685 481.635 196.214 480.125 199.781C479.292 201.786 477.938 204 476.062 206.422L486.531 219H473.016L469.031 214.117C467.104 215.914 465.307 217.242 463.641 218.102C460.672 219.638 457.247 220.406 453.367 220.406ZM452.742 193.922C449.956 195.771 448.107 197.398 447.195 198.805C446.31 200.211 445.867 201.76 445.867 203.453C445.867 205.354 446.635 207.099 448.172 208.688C449.734 210.276 451.727 211.07 454.148 211.07C455.971 211.07 457.69 210.654 459.305 209.82C460.945 208.961 462.273 208.01 463.289 206.969L452.742 193.922ZM452 174.586C452 175.628 452.365 176.721 453.094 177.867C453.562 178.622 454.578 179.964 456.141 181.891C457.703 180.797 458.823 179.872 459.5 179.117C460.802 177.711 461.453 176.188 461.453 174.547C461.453 173.349 461.062 172.281 460.281 171.344C459.5 170.406 458.315 169.938 456.727 169.938C455.737 169.938 454.812 170.211 453.953 170.758C452.651 171.565 452 172.841 452 174.586ZM338.406 309.594C335.229 311.547 331.323 312.523 326.688 312.523C319.057 312.523 312.807 309.88 307.938 304.594C302.859 299.281 300.32 292.016 300.32 282.797C300.32 273.474 302.885 266 308.016 260.375C313.146 254.75 319.93 251.938 328.367 251.938C335.685 251.938 341.557 253.799 345.984 257.523C350.438 261.221 352.99 265.844 353.641 271.391H341.805C340.893 267.458 338.667 264.711 335.125 263.148C333.146 262.289 330.945 261.859 328.523 261.859C323.888 261.859 320.073 263.617 317.078 267.133C314.109 270.622 312.625 275.883 312.625 282.914C312.625 289.997 314.24 295.01 317.469 297.953C320.698 300.896 324.37 302.367 328.484 302.367C332.521 302.367 335.828 301.208 338.406 298.891C340.984 296.547 342.573 293.487 343.172 289.711H329.852V280.102H353.836V311H345.867L344.656 303.812C342.339 306.547 340.255 308.474 338.406 309.594ZM375.906 268.422V311H364.617V268.422H375.906ZM375.906 253.07V263.344H364.617V253.07H375.906ZM406.219 303.07V311.391L400.945 311.586C395.685 311.768 392.091 310.857 390.164 308.852C388.914 307.576 388.289 305.609 388.289 302.953V276.742H382.352V268.812H388.289V256.938H399.305V268.812H406.219V276.742H399.305V299.242C399.305 300.987 399.526 302.081 399.969 302.523C400.411 302.94 401.766 303.148 404.031 303.148C404.37 303.148 404.721 303.148 405.086 303.148C405.477 303.122 405.854 303.096 406.219 303.07ZM448.602 311V285.297H426.102V311H414.188V253.422H426.102V275.375H448.602V253.422H460.555V311H448.602ZM498.484 304.984C498.38 305.115 498.12 305.505 497.703 306.156C497.286 306.807 496.792 307.38 496.219 307.875C494.474 309.438 492.781 310.505 491.141 311.078C489.526 311.651 487.625 311.938 485.438 311.938C479.135 311.938 474.891 309.672 472.703 305.141C471.479 302.641 470.867 298.956 470.867 294.086V268.422H482.273V294.086C482.273 296.508 482.56 298.331 483.133 299.555C484.148 301.716 486.141 302.797 489.109 302.797C492.911 302.797 495.516 301.26 496.922 298.188C497.651 296.521 498.016 294.32 498.016 291.586V268.422H509.305V311H498.484V304.984ZM543.211 312.133C539.695 312.133 536.87 311.43 534.734 310.023C533.458 309.19 532.078 307.732 530.594 305.648V311H519.695V253.5H530.789V273.969C532.195 271.99 533.745 270.479 535.438 269.438C537.443 268.135 539.995 267.484 543.094 267.484C548.693 267.484 553.068 269.503 556.219 273.539C559.396 277.576 560.984 282.784 560.984 289.164C560.984 295.779 559.422 301.26 556.297 305.609C553.172 309.958 548.81 312.133 543.211 312.133ZM549.305 290.336C549.305 287.315 548.914 284.815 548.133 282.836C546.648 279.086 543.914 277.211 539.93 277.211C535.893 277.211 533.12 279.047 531.609 282.719C530.828 284.672 530.438 287.198 530.438 290.297C530.438 293.943 531.245 296.964 532.859 299.359C534.474 301.755 536.935 302.953 540.242 302.953C543.107 302.953 545.333 301.794 546.922 299.477C548.51 297.159 549.305 294.112 549.305 290.336ZM302.156 345.422H314.109V403H302.156V345.422ZM344.5 368.664C340.724 368.664 338.133 370.266 336.727 373.469C335.997 375.161 335.633 377.323 335.633 379.953V403H324.539V360.5H335.281V366.711C336.714 364.523 338.068 362.948 339.344 361.984C341.635 360.266 344.539 359.406 348.055 359.406C352.456 359.406 356.049 360.565 358.836 362.883C361.648 365.174 363.055 368.99 363.055 374.328V403H351.648V377.102C351.648 374.862 351.349 373.143 350.75 371.945C349.656 369.758 347.573 368.664 344.5 368.664ZM392.859 395.07V403.391L387.586 403.586C382.326 403.768 378.732 402.857 376.805 400.852C375.555 399.576 374.93 397.609 374.93 394.953V368.742H368.992V360.812H374.93V348.938H385.945V360.812H392.859V368.742H385.945V391.242C385.945 392.987 386.167 394.081 386.609 394.523C387.052 394.94 388.406 395.148 390.672 395.148C391.01 395.148 391.362 395.148 391.727 395.148C392.117 395.122 392.495 395.096 392.859 395.07ZM421.414 370.695C416.935 370.695 413.927 372.154 412.391 375.07C411.531 376.711 411.102 379.237 411.102 382.648V403H399.891V360.422H410.516V367.844C412.234 365.005 413.732 363.065 415.008 362.023C417.091 360.279 419.799 359.406 423.133 359.406C423.341 359.406 423.51 359.419 423.641 359.445C423.797 359.445 424.122 359.458 424.617 359.484V370.891C423.914 370.812 423.289 370.76 422.742 370.734C422.195 370.708 421.753 370.695 421.414 370.695ZM466.688 365.812C470.281 370.318 472.078 375.643 472.078 381.789C472.078 388.039 470.281 393.391 466.688 397.844C463.094 402.271 457.638 404.484 450.32 404.484C443.003 404.484 437.547 402.271 433.953 397.844C430.359 393.391 428.562 388.039 428.562 381.789C428.562 375.643 430.359 370.318 433.953 365.812C437.547 361.307 443.003 359.055 450.32 359.055C457.638 359.055 463.094 361.307 466.688 365.812ZM450.281 368.469C447.026 368.469 444.513 369.628 442.742 371.945C440.997 374.237 440.125 377.518 440.125 381.789C440.125 386.06 440.997 389.354 442.742 391.672C444.513 393.99 447.026 395.148 450.281 395.148C453.536 395.148 456.036 393.99 457.781 391.672C459.526 389.354 460.398 386.06 460.398 381.789C460.398 377.518 459.526 374.237 457.781 371.945C456.036 369.628 453.536 368.469 450.281 368.469ZM518.836 345.5V403H508.016V397.102C506.427 399.628 504.617 401.464 502.586 402.609C500.555 403.755 498.029 404.328 495.008 404.328C490.034 404.328 485.841 402.323 482.43 398.312C479.044 394.276 477.352 389.107 477.352 382.805C477.352 375.539 479.018 369.823 482.352 365.656C485.711 361.49 490.19 359.406 495.789 359.406C498.367 359.406 500.659 359.979 502.664 361.125C504.669 362.245 506.297 363.807 507.547 365.812V345.5H518.836ZM488.836 381.984C488.836 385.917 489.617 389.055 491.18 391.398C492.716 393.768 495.06 394.953 498.211 394.953C501.362 394.953 503.758 393.781 505.398 391.438C507.039 389.094 507.859 386.06 507.859 382.336C507.859 377.128 506.544 373.404 503.914 371.164C502.299 369.81 500.424 369.133 498.289 369.133C495.034 369.133 492.638 370.37 491.102 372.844C489.591 375.292 488.836 378.339 488.836 381.984ZM556.297 396.984C556.193 397.115 555.932 397.505 555.516 398.156C555.099 398.807 554.604 399.38 554.031 399.875C552.286 401.438 550.594 402.505 548.953 403.078C547.339 403.651 545.438 403.938 543.25 403.938C536.948 403.938 532.703 401.672 530.516 397.141C529.292 394.641 528.68 390.956 528.68 386.086V360.422H540.086V386.086C540.086 388.508 540.372 390.331 540.945 391.555C541.961 393.716 543.953 394.797 546.922 394.797C550.724 394.797 553.328 393.26 554.734 390.188C555.464 388.521 555.828 386.32 555.828 383.586V360.422H567.117V403H556.297V396.984ZM614.734 375.695H603.328C603.12 374.107 602.586 372.674 601.727 371.398C600.477 369.68 598.536 368.82 595.906 368.82C592.156 368.82 589.591 370.682 588.211 374.406C587.482 376.385 587.117 379.016 587.117 382.297C587.117 385.422 587.482 387.935 588.211 389.836C589.539 393.378 592.039 395.148 595.711 395.148C598.315 395.148 600.164 394.445 601.258 393.039C602.352 391.633 603.016 389.81 603.25 387.57H614.617C614.357 390.956 613.133 394.159 610.945 397.18C607.456 402.049 602.286 404.484 595.438 404.484C588.589 404.484 583.549 402.453 580.32 398.391C577.091 394.328 575.477 389.055 575.477 382.57C575.477 375.253 577.26 369.562 580.828 365.5C584.396 361.438 589.318 359.406 595.594 359.406C600.932 359.406 605.294 360.604 608.68 363C612.091 365.396 614.109 369.628 614.734 375.695ZM641.922 395.07V403.391L636.648 403.586C631.388 403.768 627.794 402.857 625.867 400.852C624.617 399.576 623.992 397.609 623.992 394.953V368.742H618.055V360.812H623.992V348.938H635.008V360.812H641.922V368.742H635.008V391.242C635.008 392.987 635.229 394.081 635.672 394.523C636.115 394.94 637.469 395.148 639.734 395.148C640.073 395.148 640.424 395.148 640.789 395.148C641.18 395.122 641.557 395.096 641.922 395.07ZM660.516 360.422V403H649.227V360.422H660.516ZM660.516 345.07V355.344H649.227V345.07H660.516ZM706.844 365.812C710.438 370.318 712.234 375.643 712.234 381.789C712.234 388.039 710.438 393.391 706.844 397.844C703.25 402.271 697.794 404.484 690.477 404.484C683.159 404.484 677.703 402.271 674.109 397.844C670.516 393.391 668.719 388.039 668.719 381.789C668.719 375.643 670.516 370.318 674.109 365.812C677.703 361.307 683.159 359.055 690.477 359.055C697.794 359.055 703.25 361.307 706.844 365.812ZM690.438 368.469C687.182 368.469 684.669 369.628 682.898 371.945C681.154 374.237 680.281 377.518 680.281 381.789C680.281 386.06 681.154 389.354 682.898 391.672C684.669 393.99 687.182 395.148 690.438 395.148C693.693 395.148 696.193 393.99 697.938 391.672C699.682 389.354 700.555 386.06 700.555 381.789C700.555 377.518 699.682 374.237 697.938 371.945C696.193 369.628 693.693 368.469 690.438 368.469ZM740.281 368.664C736.505 368.664 733.914 370.266 732.508 373.469C731.779 375.161 731.414 377.323 731.414 379.953V403H720.32V360.5H731.062V366.711C732.495 364.523 733.849 362.948 735.125 361.984C737.417 360.266 740.32 359.406 743.836 359.406C748.237 359.406 751.831 360.565 754.617 362.883C757.43 365.174 758.836 368.99 758.836 374.328V403H747.43V377.102C747.43 374.862 747.13 373.143 746.531 371.945C745.438 369.758 743.354 368.664 740.281 368.664Z" fill="white" fill-opacity="0.8"/>
<circle cx="73" cy="300" r="173" fill="white"/>
<circle cx="132.5" cy="111.5" r="19.5" fill="white"/>
<circle cx="172" cy="76" r="10" fill="white"/>
<circle cx="212.5" cy="60.5" r="7.5" fill="white"/>
<circle cx="246.5" cy="56.5" r="5.5" fill="white"/>
<circle cx="270.5" cy="62.5" r="4.5" fill="white"/>
<circle cx="288.5" cy="76.5" r="3.5" fill="white"/>
<path d="M40.6328 385.367C39.2031 386.246 37.4453 386.686 35.3594 386.686C31.9258 386.686 29.1133 385.496 26.9219 383.117C24.6367 380.727 23.4941 377.457 23.4941 373.309C23.4941 369.113 24.6484 365.75 26.957 363.219C29.2656 360.688 32.3184 359.422 36.1152 359.422C39.4082 359.422 42.0508 360.26 44.043 361.936C46.0469 363.6 47.1953 365.68 47.4883 368.176H42.1621C41.752 366.406 40.75 365.17 39.1562 364.467C38.2656 364.08 37.2754 363.887 36.1855 363.887C34.0996 363.887 32.3828 364.678 31.0352 366.26C29.6992 367.83 29.0312 370.197 29.0312 373.361C29.0312 376.549 29.7578 378.805 31.2109 380.129C32.6641 381.453 34.3164 382.115 36.168 382.115C37.9844 382.115 39.4727 381.594 40.6328 380.551C41.793 379.496 42.5078 378.119 42.7773 376.42H36.7832V372.096H47.5762V386H43.9902L43.4453 382.766C42.4023 383.996 41.4648 384.863 40.6328 385.367ZM57.5078 366.84V386H52.4277V366.84H57.5078ZM57.5078 359.932V364.555H52.4277V359.932H57.5078ZM71.1484 382.432V386.176L68.7754 386.264C66.4082 386.346 64.791 385.936 63.9238 385.033C63.3613 384.459 63.0801 383.574 63.0801 382.379V370.584H60.4082V367.016H63.0801V361.672H68.0371V367.016H71.1484V370.584H68.0371V380.709C68.0371 381.494 68.1367 381.986 68.3359 382.186C68.5352 382.373 69.1445 382.467 70.1641 382.467C70.3164 382.467 70.4746 382.467 70.6387 382.467C70.8145 382.455 70.9844 382.443 71.1484 382.432ZM90.2207 386V374.434H80.0957V386H74.7344V360.09H80.0957V369.969H90.2207V360.09H95.5996V386H90.2207ZM112.668 383.293C112.621 383.352 112.504 383.527 112.316 383.82C112.129 384.113 111.906 384.371 111.648 384.594C110.863 385.297 110.102 385.777 109.363 386.035C108.637 386.293 107.781 386.422 106.797 386.422C103.961 386.422 102.051 385.402 101.066 383.363C100.516 382.238 100.24 380.58 100.24 378.389V366.84H105.373V378.389C105.373 379.479 105.502 380.299 105.76 380.85C106.217 381.822 107.113 382.309 108.449 382.309C110.16 382.309 111.332 381.617 111.965 380.234C112.293 379.484 112.457 378.494 112.457 377.264V366.84H117.537V386H112.668V383.293ZM132.795 386.51C131.213 386.51 129.941 386.193 128.98 385.561C128.406 385.186 127.785 384.529 127.117 383.592V386H122.213V360.125H127.205V369.336C127.838 368.445 128.535 367.766 129.297 367.297C130.199 366.711 131.348 366.418 132.742 366.418C135.262 366.418 137.23 367.326 138.648 369.143C140.078 370.959 140.793 373.303 140.793 376.174C140.793 379.15 140.09 381.617 138.684 383.574C137.277 385.531 135.314 386.51 132.795 386.51ZM135.537 376.701C135.537 375.342 135.361 374.217 135.01 373.326C134.342 371.639 133.111 370.795 131.318 370.795C129.502 370.795 128.254 371.621 127.574 373.273C127.223 374.152 127.047 375.289 127.047 376.684C127.047 378.324 127.41 379.684 128.137 380.762C128.863 381.84 129.971 382.379 131.459 382.379C132.748 382.379 133.75 381.857 134.465 380.814C135.18 379.771 135.537 378.4 135.537 376.701Z" fill="#363636"/>
<path fill-rule="evenodd" clip-rule="evenodd" d="M97.5328 219.551C97.5328 221.853 98.843 223.186 101.107 223.186C103.41 223.186 104.72 221.853 104.719 219.551C104.719 217.252 103.41 216 101.107 216C98.843 216 97.5328 217.253 97.5328 219.551ZM90.4686 230.52C91.1828 231.449 91.9384 232.741 91.9384 234.598C91.9384 239.078 88.4841 241.702 83.4826 241.702C82.2107 241.702 81.0592 241.542 80.3451 241.34L79.0349 243.479L82.9248 243.72L83.1521 243.735C89.8828 244.171 93.8423 244.427 93.8423 249.734C93.8423 254.378 89.8334 257 82.9248 257C75.7385 257 73 255.143 73 251.955C73 250.138 73.7948 249.171 75.184 247.837C73.873 247.274 73.4373 246.265 73.4373 245.175C73.4373 244.286 73.8737 243.479 74.5887 242.712C75.3037 241.946 76.0976 241.177 77.0496 240.29C75.1042 239.321 73.636 237.222 73.636 234.234C73.636 229.592 76.653 226.405 82.7269 226.405C84.4345 226.405 85.4679 226.564 86.3799 226.809H94.1224V230.239L90.4686 230.52ZM79.2742 234.114C79.2742 231.489 80.9004 230.399 83.0844 230.399C85.3474 230.399 86.6983 231.651 86.6983 234.032C86.6983 236.132 85.1886 237.464 82.9671 237.464C80.3459 237.464 79.2742 236.091 79.2742 234.114ZM77.6863 251.069C77.6863 250.26 78.2018 249.575 78.7189 248.93L84.5135 249.332L84.5862 249.337C86.4581 249.456 87.9295 249.55 87.9295 250.827C87.9295 253.004 84.7928 253.168 82.4908 253.168C79.7099 253.168 77.6863 252.683 77.6863 251.069ZM95.984 247.445V244.257L98.01 243.975C98.5653 243.894 98.6443 243.773 98.6443 243.166V231.299C98.6443 230.856 98.5262 230.572 98.1281 230.451L95.984 229.684L96.4205 226.416H104.64V243.167C104.64 243.814 104.678 243.894 105.275 243.976L107.3 244.258V247.446H95.984V247.445ZM116.527 247.494C118.792 247.494 121.292 246.725 123 245.879L121.928 242.327C120.976 242.69 119.826 242.972 118.713 242.972C116.569 242.972 116.013 242.044 116.013 239.663V230.016H121.928V225.979H116.331C116.013 225.979 116.013 225.857 116.013 225.575V219.842H112.241C111.804 224.242 110.416 226.018 106.921 226.422V230.015H109.699C110.017 230.015 110.017 230.177 110.017 230.418V240.994C110.017 245.558 111.803 247.494 116.527 247.494Z" fill="#31251C"/>
<path d="M63.2074 235.129L44.8697 216.792C43.8146 215.736 42.1016 215.736 41.0456 216.792L37.2377 220.6L42.067 225.43C43.1906 225.051 44.4772 225.305 45.3719 226.201C46.2715 227.101 46.5238 228.399 46.1353 229.526L50.7904 234.181C51.9157 233.793 53.216 234.044 54.1155 234.944C55.373 236.201 55.373 238.238 54.1155 239.496C52.8572 240.753 50.8211 240.753 49.5636 239.496C48.618 238.549 48.3843 237.16 48.8631 235.996L44.5215 231.654L44.5207 243.08C44.8278 243.231 45.1164 243.433 45.3719 243.687C46.6294 244.944 46.6294 246.98 45.3719 248.239C44.1144 249.496 42.0766 249.496 40.8207 248.239C39.5632 246.98 39.5632 244.944 40.8207 243.687C41.1319 243.377 41.4906 243.142 41.8743 242.985V231.454C41.4906 231.298 41.1319 231.064 40.8207 230.752C39.8679 229.8 39.639 228.403 40.1275 227.233L35.3668 222.471L22.7926 235.044C21.7358 236.101 21.7358 237.814 22.7926 238.871L41.1303 257.208C42.1863 258.264 43.8984 258.264 44.956 257.208L63.2074 238.955C64.2642 237.899 64.2642 236.185 63.2074 235.129V235.129Z" fill="#F34F29"/>
<path d="M84.4999 291C70.5231 291.001 58.6095 301.212 56.3706 315.111C54.1317 329.009 62.2284 342.492 75.4877 346.945C76.9125 347.196 77.4469 346.335 77.4469 345.581C77.4469 344.9 77.4112 342.639 77.4112 340.235C70.2512 341.562 68.3989 338.476 67.829 336.861C67.1965 335.291 66.194 333.899 64.908 332.806C63.9106 332.268 62.4857 330.94 64.8723 330.904C66.7218 331.107 68.3572 332.205 69.2538 333.847C70.041 335.272 71.3586 336.322 72.9158 336.766C74.473 337.211 76.1417 337.012 77.5536 336.215C77.677 334.756 78.3226 333.391 79.3704 332.376C73.0297 331.658 66.4041 329.182 66.4041 318.201C66.3641 315.348 67.4092 312.587 69.3251 310.486C68.4539 308.006 68.5558 305.285 69.61 302.878C69.61 302.878 71.9966 302.124 77.4468 305.821C82.1098 304.529 87.0325 304.529 91.6954 305.821C97.1455 302.089 99.5322 302.878 99.5322 302.878C100.587 305.285 100.689 308.006 99.8172 310.486C101.739 312.584 102.785 315.347 102.738 318.201C102.738 329.218 96.0768 331.658 89.7362 332.376C91.1124 333.781 91.8143 335.719 91.6598 337.687C91.6598 341.527 91.6242 344.613 91.6242 345.582C91.6242 346.335 92.1585 347.232 93.5833 346.945C106.818 342.456 114.878 328.971 112.623 315.087C110.369 301.203 98.4648 291.007 84.4999 291Z" fill="black"/>
<path d="M741.435 592.713C741.435 593.599 742.138 594.276 742.998 594.276C743.883 594.276 744.587 593.599 744.587 592.713V576.563C744.587 575.703 743.883 575 742.998 575C742.112 575 741.435 575.703 741.435 576.563V592.713Z" fill="white"/>
<path d="M748.654 576.849C748.654 577.787 749.435 578.412 750.451 578.412C751.467 578.412 752.248 577.787 752.248 576.849V576.693C752.248 575.755 751.467 575.156 750.451 575.156C749.435 575.156 748.654 575.755 748.654 576.693V576.849ZM748.888 592.713C748.888 593.599 749.591 594.276 750.451 594.276C751.337 594.276 752.04 593.599 752.04 592.713V581.825C752.04 580.939 751.337 580.236 750.451 580.236C749.565 580.236 748.888 580.939 748.888 581.825V592.713Z" fill="white"/>
<path d="M756.159 592.713C756.159 593.573 756.863 594.276 757.722 594.276C758.608 594.276 759.311 593.573 759.311 592.713V592.01C760.275 593.287 761.708 594.433 764 594.433C767.256 594.433 770.382 591.854 770.382 587.295V587.243C770.382 582.658 767.23 580.106 764 580.106C761.76 580.106 760.327 581.252 759.311 582.685V576.563C759.311 575.677 758.608 575 757.722 575C756.837 575 756.159 575.677 756.159 576.563V592.713ZM763.245 591.698C761.109 591.698 759.233 589.926 759.233 587.295V587.243C759.233 584.612 761.109 582.841 763.245 582.841C765.381 582.841 767.178 584.586 767.178 587.243V587.295C767.178 590.004 765.407 591.698 763.245 591.698Z" fill="white"/>
<path d="M773.818 592.713C773.818 593.599 774.521 594.276 775.381 594.276C776.267 594.276 776.97 593.599 776.97 592.713V576.563C776.97 575.703 776.267 575 775.381 575C774.495 575 773.818 575.703 773.818 576.563V592.713Z" fill="white"/>
<path d="M787.628 594.459C791.874 594.459 795 591.203 795 587.295V587.243C795 583.31 791.9 580.106 787.68 580.106C783.46 580.106 780.334 583.362 780.334 587.295V587.347C780.334 591.255 783.434 594.459 787.628 594.459ZM787.68 591.698C785.231 591.698 783.486 589.692 783.486 587.295V587.243C783.486 584.847 785.101 582.867 787.628 582.867C790.102 582.867 791.848 584.873 791.848 587.295V587.347C791.848 589.718 790.233 591.698 787.68 591.698Z" fill="white"/>
<path d="M736.96 590.09C735.74 590.65 734.453 591.046 733.208 591.294C728.074 592.314 725.36 589.099 729.634 586.781C730.099 586.529 730.632 586.291 731.228 586.075L732.011 585.826C732.241 585.763 732.463 585.661 732.534 585.515C732.905 584.723 729.731 584.467 727.622 585.589C728.458 585.431 729.186 585.408 729.668 585.609C724.878 586.845 723.788 590.757 726.335 592.642C727.649 593.615 729.127 593.873 731.832 593.682C733.637 593.555 735.48 592.837 736.96 591.969V590.09Z" fill="white"/>
<path d="M734.542 592.784C734.542 593.607 735.171 594.165 736.03 594.165C736.89 594.165 737.478 593.644 737.478 592.784V586.011C737.478 584.214 737.009 582.755 735.993 581.765C735.029 580.776 733.492 580.228 731.434 580.228C729.637 580.228 728.308 580.541 727.006 581.036C726.537 581.218 726.146 581.713 726.146 582.286C726.146 583.016 726.745 583.589 727.475 583.589C727.631 583.589 727.787 583.563 727.97 583.511C728.829 583.172 729.819 582.964 731.018 582.964C733.232 582.964 734.43 584.006 734.43 585.959V585.968L734.542 592.784Z" fill="white"/>
<path d="M733.611 578.379C733.611 578.591 733.273 578.721 732.805 578.721C732.077 578.721 731.583 578.64 730.984 578.282L729.216 577.24C728.956 577.093 728.774 576.93 728.774 576.751C728.774 576.442 729.814 576.116 730.646 576.116C731.192 576.116 731.609 576.295 731.895 576.589L733.377 578.021C733.481 578.119 733.611 578.265 733.611 578.379Z" fill="white"/>
</g>
<defs>
<linearGradient id="paint0_linear_5188_12750" x1="800" y1="-1.86968e-05" x2="1.22566" y2="601.627" gradientUnits="userSpaceOnUse">
<stop stop-color="#0087B1"/>
<stop offset="1" stop-color="#001B23"/>
</linearGradient>
<clipPath id="clip0_5188_12750">
<rect width="800" height="600" fill="white"/>
</clipPath>
</defs>
</svg>
