<?xml version="1.0" encoding="UTF-8"?>
<svg width="800px" height="600px" viewBox="0 0 800 600" version="1.1" xmlns="http://www.w3.org/2000/svg" xmlns:xlink="http://www.w3.org/1999/xlink">
    <title>2041-10-17-11-10_GitRegularWorkflow—RemoteCollaboration</title>
    <defs>
        <path d="M8.68744595,14.5405413 C10.6544909,13.5649687 12,11.5915112 12,9.31636202 C12,6.07252388 9.26504479,3.44227578 5.89152197,3.44227578 C4.52034181,3.44227578 3.25480793,3.87689217 2.23537065,4.61058921 L2.23537065,1.05770107 C2.23537065,0.476155373 1.74046224,0 1.11695169,0 C0.493934821,0 0.0167986821,0.476630104 0.0167986821,1.05770107 L0.0167986821,1.80184219 L0,9.32158406 C-0.0041824725,11.2003327 0.951817666,12.865215 2.41753644,13.8939574 C2.4777647,13.9362085 2.55848043,13.9312238 2.6127846,13.8823265 C2.66758244,13.8334292 2.6779496,13.7558106 2.63746831,13.6950451 C0.724974359,10.8146136 1.16014819,5.53963813 5.89176881,5.53963813 C8.05899866,5.53963813 9.80709909,7.22944376 9.81623206,9.31351363 C9.82240299,10.8599505 9.11620201,12.0365717 8.19549958,12.7781018 C6.36026565,14.2561773 3.64974731,12.6382934 4.49738595,10.4697214 C4.5894562,10.2335427 4.71879884,9.9959397 4.88664808,9.76189723 L5.12361171,9.47705853 C5.19766284,9.39967734 5.25048599,9.29903433 5.2146946,9.19411874 C5.01401603,8.62800181 3.46832203,8.97526767 3.04005964,10.0315445 C3.34292878,9.79631524 3.65986763,9.66433998 3.96940137,9.71489885 C2.38890334,11.275815 3.44141679,13.9563846 5.46005069,14.7513219 C6.40494316,15.1232738 7.55964718,15.0976383 8.68744595,14.5405413" id="path-1"></path>
        <linearGradient x1="28.568518%" y1="104.445731%" x2="78.3472072%" y2="20.6880271%" id="linearGradient-3">
            <stop stop-color="#000F98" offset="0%"></stop>
            <stop stop-color="#00A5FD" offset="100%"></stop>
        </linearGradient>
        <rect id="path-4" x="413" y="321" width="328" height="248"></rect>
        <filter x="-1.5%" y="-2.0%" width="104.3%" height="105.6%" filterUnits="objectBoundingBox" id="filter-5">
            <feOffset dx="2" dy="2" in="SourceAlpha" result="shadowOffsetOuter1"></feOffset>
            <feGaussianBlur stdDeviation="2" in="shadowOffsetOuter1" result="shadowBlurOuter1"></feGaussianBlur>
            <feComposite in="shadowBlurOuter1" in2="SourceAlpha" operator="out" result="shadowBlurOuter1"></feComposite>
            <feColorMatrix values="0 0 0 0 0   0 0 0 0 0   0 0 0 0 0  0 0 0 0.5 0" type="matrix" in="shadowBlurOuter1"></feColorMatrix>
        </filter>
        <rect id="path-6" x="69" y="321" width="328" height="248"></rect>
        <filter x="-1.5%" y="-2.0%" width="104.3%" height="105.6%" filterUnits="objectBoundingBox" id="filter-7">
            <feOffset dx="2" dy="2" in="SourceAlpha" result="shadowOffsetOuter1"></feOffset>
            <feGaussianBlur stdDeviation="2" in="shadowOffsetOuter1" result="shadowBlurOuter1"></feGaussianBlur>
            <feColorMatrix values="0 0 0 0 0   0 0 0 0 0   0 0 0 0 0  0 0 0 0.5 0" type="matrix" in="shadowBlurOuter1"></feColorMatrix>
        </filter>
        <rect id="path-8" x="242" y="58" width="328" height="248"></rect>
        <filter x="-1.5%" y="-2.0%" width="104.3%" height="105.6%" filterUnits="objectBoundingBox" id="filter-9">
            <feOffset dx="2" dy="2" in="SourceAlpha" result="shadowOffsetOuter1"></feOffset>
            <feGaussianBlur stdDeviation="2" in="shadowOffsetOuter1" result="shadowBlurOuter1"></feGaussianBlur>
            <feColorMatrix values="0 0 0 0 0   0 0 0 0 0   0 0 0 0 0  0 0 0 0.5 0" type="matrix" in="shadowBlurOuter1"></feColorMatrix>
        </filter>
        <linearGradient x1="78.125%" y1="0%" x2="21.875%" y2="100%" id="linearGradient-10">
            <stop stop-color="#00C6FF" offset="0.0491695804%"></stop>
            <stop stop-color="#079DC2" offset="100%"></stop>
        </linearGradient>
        <linearGradient x1="78.125%" y1="0%" x2="21.875%" y2="100%" id="linearGradient-11">
            <stop stop-color="#00A5FF" offset="0.0491695804%"></stop>
            <stop stop-color="#0755C2" offset="100%"></stop>
        </linearGradient>
    </defs>
    <g id="2041-10-17-11-10_GitRegularWorkflow—RemoteCollaboration" stroke="none" stroke-width="1" fill="none" fill-rule="evenodd">
        <rect fill="#FFFFFF" x="0" y="0" width="800" height="600"></rect>
        <g id="bloovee-winner-logo" transform="translate(725.000000, 580.000000)">
            <path d="M13,13.7751507 C13,14.396312 13.4732558,14.8717809 14.0514961,14.8717809 C14.6474304,14.8717809 15.1204503,14.3968042 15.1204503,13.7751507 L15.1204503,2.09687626 C15.1204503,1.49368045 14.6474304,1 14.0514961,1 C13.4557977,1 13,1.49392656 13,2.09687626 L13,13.7751507 Z M21.7920364,15 C24.6483217,15 26.751078,12.7149437 26.751078,9.97312215 L26.751078,9.93645297 C26.751078,7.17641992 24.6657798,4.92778666 21.8269526,4.92778666 C18.9881254,4.92778666 16.885369,7.212843 16.885369,9.97312215 L16.885369,10.0095452 C16.885369,12.7516128 18.9706673,15 21.7920364,15 Z M21.8269526,13.0621935 C20.179994,13.0621935 19.0055834,11.6547366 19.0055834,9.97312215 L19.0055834,9.93645297 C19.0055834,8.25459244 20.0919958,6.86534709 21.7920364,6.86534709 C23.456689,6.86534709 24.6306277,8.27305008 24.6306277,9.97312215 L24.6306277,10.0095452 C24.6306277,11.6731942 23.5444513,13.0621935 21.8269526,13.0621935 Z M32.8092717,15 C35.665557,15 37.7683133,12.7149437 37.7683133,9.97312215 L37.7683133,9.93645297 C37.7683133,7.17641992 35.6830151,4.92778666 32.8441878,4.92778666 C30.0053606,4.92778666 27.9026043,7.212843 27.9026043,9.97312215 L27.9026043,10.0095452 C27.9026043,12.7516128 29.9879025,15 32.8092717,15 Z M32.8441878,13.0621935 C31.1969933,13.0621935 30.0228187,11.6547366 30.0228187,9.97312215 L30.0228187,9.93645297 C30.0228187,8.25459244 31.109231,6.86534709 32.8092717,6.86534709 C34.4739243,6.86534709 35.647863,8.27305008 35.647863,9.97312215 L35.647863,10.0095452 C35.647863,11.6731942 34.5614506,13.0621935 32.8441878,13.0621935 Z M44.1416963,13.9944275 L47.2261164,6.6096472 C47.2784906,6.49988574 47.3487948,6.28060893 47.3487948,6.07954366 C47.3487948,5.47610175 46.8929971,5.01933658 46.3147568,5.01933658 C45.7539746,5.01933658 45.4737015,5.40300947 45.3158709,5.78692847 L42.8976893,12.2215093 L40.5144239,5.82335156 C40.3393711,5.36634029 40.041404,5.01933658 39.4629278,5.01933658 C38.8846875,5.01933658 38.4116676,5.53098247 38.4116676,6.07954366 C38.4116676,6.28060893 38.4817358,6.46346265 38.534346,6.62785874 L41.6182943,13.9944275 C41.8638872,14.5796579 42.2491448,14.9633308 42.8273851,14.9633308 L42.9326055,14.9633308 C43.5108458,14.9633308 43.8965752,14.5612003 44.1416963,13.9944275 Z M50.0949054,9.27837643 C50.2876522,7.77961573 51.1987758,6.73762019 52.4956289,6.73762019 C53.8974665,6.73762019 54.7036056,7.8524619 54.8437422,9.27837643 L50.0949054,9.27837643 Z M56.070527,13.72027 C56.2281217,13.5558739 56.3508002,13.3181395 56.3508002,13.0439819 C56.3508002,12.5320899 55.9830006,12.1481709 55.5095089,12.1481709 C55.2641519,12.1481709 55.1242513,12.2215093 54.9664207,12.3492362 C54.3704864,12.8611282 53.6695676,13.1901665 52.7759021,13.1901665 C51.4089807,13.1901665 50.3402624,12.3128131 50.1123635,10.7409601 L55.9126964,10.7409601 C56.4560206,10.7409601 56.9115824,10.3021604 56.9115824,9.68050697 C56.9115824,7.45057746 55.4568987,4.92778666 52.513087,4.92778666 C49.8672425,4.92778666 47.9919132,7.19438536 47.9919132,9.95466451 L47.9919132,9.9913337 C47.9919132,12.9708897 50.0597533,15 52.7409859,15 C54.1779755,15 55.2292357,14.5063195 56.070527,13.72027 Z M60.1833231,9.27837643 C60.3763058,7.77961573 61.2871935,6.73762019 62.5842825,6.73762019 C63.9858841,6.73762019 64.7920233,7.8524619 64.9321598,9.27837643 L60.1833231,9.27837643 Z M66.1589447,13.72027 C66.3167752,13.5558739 66.4394537,13.3181395 66.4394537,13.0439819 C66.4394537,12.5320899 66.0714183,12.1481709 65.5981624,12.1481709 C65.3528055,12.1481709 65.2126689,12.2215093 65.0548383,12.3492362 C64.4591399,12.8611282 63.7582212,13.1901665 62.8643197,13.1901665 C61.4976342,13.1901665 60.4289159,12.3128131 60.2007812,10.7409601 L66.0011141,10.7409601 C66.5444382,10.7409601 67,10.3021604 67,9.68050697 C67,7.45057746 65.5455522,4.92778666 62.6015046,4.92778666 C59.9556601,4.92778666 58.0805667,7.19438536 58.0805667,9.95466451 L58.0805667,9.9913337 C58.0805667,12.9708897 60.1484069,15 62.8294035,15 C64.2663932,15 65.3178893,14.5063195 66.1589447,13.72027 L66.1589447,13.72027 Z" id="Fill-1" fill="#030060"></path>
            <g id="Group-4">
                <mask id="mask-2" fill="white">
                    <use xlink:href="#path-1"></use>
                </mask>
                <g id="Clip-3"></g>
                <path d="M8.68744595,14.5405413 C10.6544909,13.5649687 12,11.5915112 12,9.31636202 C12,6.07252388 9.26504479,3.44227578 5.89152197,3.44227578 C4.52034181,3.44227578 3.25480793,3.87689217 2.23537065,4.61058921 L2.23537065,1.05770107 C2.23537065,0.476155373 1.74046224,0 1.11695169,0 C0.493934821,0 0.0167986821,0.476630104 0.0167986821,1.05770107 L0.0167986821,1.80184219 L0,9.32158406 C-0.0041824725,11.2003327 0.951817666,12.865215 2.41753644,13.8939574 C2.4777647,13.9362085 2.55848043,13.9312238 2.6127846,13.8823265 C2.66758244,13.8334292 2.6779496,13.7558106 2.63746831,13.6950451 C0.724974359,10.8146136 1.16014819,5.53963813 5.89176881,5.53963813 C8.05899866,5.53963813 9.80709909,7.22944376 9.81623206,9.31351363 C9.82240299,10.8599505 9.11620201,12.0365717 8.19549958,12.7781018 C6.36026565,14.2561773 3.64974731,12.6382934 4.49738595,10.4697214 C4.5894562,10.2335427 4.71879884,9.9959397 4.88664808,9.76189723 L5.12361171,9.47705853 C5.19766284,9.39967734 5.25048599,9.29903433 5.2146946,9.19411874 C5.01401603,8.62800181 3.46832203,8.97526767 3.04005964,10.0315445 C3.34292878,9.79631524 3.65986763,9.66433998 3.96940137,9.71489885 C2.38890334,11.275815 3.44141679,13.9563846 5.46005069,14.7513219 C6.40494316,15.1232738 7.55964718,15.0976383 8.68744595,14.5405413" id="Fill-2" fill="url(#linearGradient-3)" mask="url(#mask-2)"></path>
            </g>
        </g>
        <g id="git" transform="translate(661.000000, 9.000000)">
            <path d="M46.8658496,11.2380575 C45.1623498,11.2380575 43.8939053,12.0891281 43.8939053,14.1376499 C43.8939053,15.6808485 44.7297841,16.7522856 46.7743573,16.7522856 C48.5071097,16.7522856 49.6846843,15.7131436 49.6846843,14.073693 C49.6846843,12.2157755 48.6309666,11.2380575 46.8658496,11.2380575 L46.8658496,11.2380575 Z M43.4607172,25.7011913 C43.0574041,26.2046147 42.6553359,26.7397 42.6553359,27.3710373 C42.6553359,28.6305458 44.2337339,29.0092215 46.4027864,29.0092215 C48.1984009,29.0092215 50.6450424,28.8813076 50.6450424,27.1823327 C50.6450424,26.1723196 49.4674678,26.1102624 47.9805621,26.0152768 L43.4607172,25.7011913 Z M52.6255087,11.3330431 C53.1825537,12.0580995 53.7719634,13.0662128 53.7719634,14.5156924 C53.7719634,18.0124273 51.0776081,20.0603158 47.1764255,20.0603158 C46.1843252,20.0603158 45.2862067,19.9349349 44.7291617,19.7772589 L43.7071863,21.4471049 L46.7413702,21.6351763 C52.0989611,21.9828234 55.257002,22.1404995 55.257002,26.3293624 C55.257002,29.9533779 52.1300809,32 46.7413702,32 C41.1360655,32 39,30.5505204 39,28.0625322 C39,26.6440812 39.6199071,25.8898959 40.7034998,24.848221 C39.680902,24.4087545 39.3410734,23.6216409 39.3410734,22.7705703 C39.3410734,22.0771758 39.6815244,21.4471049 40.2391918,20.8480627 C40.7968593,20.2502869 41.416144,19.6506115 42.1586633,18.9578502 C40.6412601,18.2017651 39.4960502,16.563581 39.4960502,14.231369 C39.4960502,10.6086199 41.8493321,8.12063165 46.5870158,8.12063165 C47.9189448,8.12063165 48.7249485,8.24537935 49.436348,8.43598369 L55.4754632,8.43598369 L55.4754632,11.1133099 L52.6255087,11.3330431 L52.6255087,11.3330431 Z M60.9233016,5.60858036 C59.1575621,5.60858036 58.1355867,4.56817192 58.1355867,2.77167847 C58.1355867,0.977717972 59.1575621,0 60.9233016,0 C62.7195385,0 63.7408917,0.977084735 63.7408917,2.77167847 C63.7415139,4.56817192 62.7195385,5.60858036 60.9233016,5.60858036 Z M56.9275147,24.5423675 L56.9275147,22.0543792 L58.50778,21.8340127 C58.9409681,21.770689 59.0025853,21.6763367 59.0025853,21.2026754 L59.0025853,11.9403174 C59.0025853,11.59457 58.9104706,11.372937 58.5998947,11.279218 L56.9275147,10.6801757 L57.2679657,8.12949697 L63.6792742,8.12949697 L63.6792742,21.2033087 C63.6792742,21.7086318 63.7091492,21.770689 64.174702,21.834646 L65.7543448,22.0550125 L65.7543448,24.5430008 L56.9275147,24.5430008 L56.9275147,24.5423675 Z M78,23.32022 C76.6674487,23.9806863 74.7174798,24.5803617 72.9511179,24.5803617 C69.2665294,24.5803617 67.8736056,23.0694582 67.8736056,19.5074999 L67.8736056,11.2532552 C67.8736056,11.0651838 67.8736056,10.9385364 67.6252693,10.9385364 L65.458084,10.9385364 L65.458084,8.13456287 C68.1841815,7.81857759 69.2671518,6.43242174 69.6076028,2.99837733 L72.5502944,2.99837733 L72.5502944,7.47346341 C72.5502944,7.69319666 72.5502944,7.78881545 72.7980083,7.78881545 L77.1641212,7.78881545 L77.1641212,10.9391697 L72.5502944,10.9391697 L72.5502944,18.4683579 C72.5502944,20.3269086 72.9841049,21.0513318 74.6558625,21.0513318 C75.5241059,21.0513318 76.4209796,20.8315985 77.1641212,20.5479083 L78,23.32022 L78,23.32022 Z" id="Shape" fill="#31251C" fill-rule="nonzero"></path>
            <path d="M32.3772539,15.0299695 L17.9690664,0.622277028 C17.140005,-0.207425676 15.7941261,-0.207425676 14.9644314,0.622277028 L11.9724635,3.61427365 L15.7668919,7.40937182 C16.6497884,7.11169223 17.6606226,7.31120089 18.3636464,8.01486479 C19.0704703,8.72232885 19.2687104,9.74203981 18.9634334,10.6274783 L22.6210571,14.2851371 C23.5052204,13.9804906 24.5268216,14.1774658 25.2336455,14.8849299 C26.221679,15.8723394 26.221679,17.4728423 25.2336455,18.4608852 C24.2449787,19.4489281 22.6451246,19.4489281 21.6570912,18.4608852 C20.914166,17.7173195 20.7304932,16.6260388 21.1067059,15.7108324 L17.6954571,12.2995509 L17.6948238,21.2768075 C17.9361319,21.3958793 18.1628729,21.5542195 18.3636464,21.7543616 C19.3516798,22.7417711 19.3516798,24.3416406 18.3636464,25.3309502 C17.375613,26.3183598 15.7744921,26.3183598 14.7877254,25.3309502 C13.799692,24.3416406 13.799692,22.7417711 14.7877254,21.7543616 C15.0322003,21.5105176 15.3140432,21.3262096 15.6155201,21.2027043 L15.6155201,12.1424774 C15.3140432,12.0196054 15.0322003,11.8359308 14.7877254,11.5908201 C14.0391001,10.842821 13.8592273,9.74520661 14.2430403,8.82620003 L10.5024471,5.08430417 L0.622746073,14.9634666 C-0.207582024,15.7938027 -0.207582024,17.1396945 0.622746073,17.9700305 L15.0309336,32.377723 C15.8606284,33.2074257 17.2058739,33.2074257 18.0368353,32.377723 L32.3772539,18.0359 C33.207582,17.2061973 33.207582,15.8596722 32.3772539,15.0299695 L32.3772539,15.0299695 Z" id="Path" fill="#F34F29" fill-rule="nonzero"></path>
            <polygon id="Path" points="1.12409637e-15 0 79 0 79 33 0 33"></polygon>
        </g>
        <g id="github-copy" transform="translate(748.000000, 3.000000)" fill="#000000" fill-rule="nonzero">
            <path d="M22.9998956,0 C11.7204239,0.000469179946 2.10590223,8.20619911 0.299077857,19.3745239 C-1.50774651,30.5428487 5.02642435,41.3773525 15.7268887,44.9558377 C16.8767785,45.1577383 17.3079872,44.4656891 17.3079872,43.8600567 C17.3079872,43.3121892 17.279217,41.4954764 17.279217,39.5634644 C11.5009978,40.6303861 10.0061411,38.1505528 9.54618516,36.8529173 C9.03580825,35.5908656 8.22674528,34.472458 7.1889111,33.5943411 C6.38398825,33.161796 5.23409847,32.0948512 7.16014086,32.066061 C8.65271236,32.2285228 9.97246422,33.1110528 10.6960749,34.4305721 C11.3313462,35.5753322 12.3946869,36.4194146 13.6513665,36.7764896 C14.9080461,37.1335647 16.2547288,36.9742705 17.3941369,36.3337708 C17.4936968,35.160991 18.0147545,34.0644705 18.8602924,33.2483742 C13.7432829,32.6716473 8.39629538,30.6818473 8.39629538,21.8580182 C8.36397821,19.5652878 9.20739391,17.3470389 10.7535694,15.6582042 C10.0504849,13.6655423 10.1327507,11.4787423 10.9835474,9.54489918 C10.9835474,9.54489918 12.9095438,8.93931288 17.3079412,11.9094794 C21.0710431,10.8713094 25.0437372,10.8713094 28.806839,11.9094794 C33.2051215,8.9104996 35.1312329,9.54489918 35.1312329,9.54489918 C35.982145,11.4787155 36.0644125,13.6655602 35.3612108,15.6582042 C36.9120423,17.3441484 37.7561944,19.564334 37.7184849,21.8580182 C37.7184849,30.7107067 32.3427041,32.6716473 27.2257406,33.2483742 C28.336287,34.3774629 28.9028084,35.9349635 28.7780918,37.5161532 C28.7780918,40.6016882 28.7493216,43.0815215 28.7493216,43.8601489 C28.7493216,44.4657352 29.1805302,45.1866208 30.33042,44.95593 C41.0111617,41.3485442 47.5153422,30.5121007 45.6961446,19.3555019 C43.876947,8.19890308 34.2698179,0.00588375885 22.9998956,0 Z" id="Path"></path>
        </g>
        <g id="Rectangle-Copy-15">
            <use fill="black" fill-opacity="1" filter="url(#filter-5)" xlink:href="#path-4"></use>
            <use fill-opacity="0.5" fill="#C5DDFF" fill-rule="evenodd" xlink:href="#path-4"></use>
        </g>
        <g id="Rectangle-Copy-11">
            <use fill="black" fill-opacity="1" filter="url(#filter-7)" xlink:href="#path-6"></use>
            <use fill="#E6E6E6" fill-rule="evenodd" xlink:href="#path-6"></use>
        </g>
        <text id="—-git-branch-—-git-c" font-family="Helvetica" font-size="21" font-weight="normal" fill="#999999">
            <tspan x="156" y="424">— git branch</tspan>
            <tspan x="156" y="449">— git checkout</tspan>
            <tspan x="156" y="474">— git merge</tspan>
            <tspan x="156" y="499">— git stash</tspan>
            <tspan x="156" y="524">— (git status)</tspan>
            <tspan x="156" y="549">— (git diff)</tspan>
        </text>
        <text id="Work-with-Branches" font-family="Helvetica-Bold, Helvetica" font-size="28" font-weight="bold" fill="#999999">
            <tspan x="99.1669922" y="356">Work with Branches</tspan>
        </text>
        <ellipse id="Oval" stroke="#4F4F4F" stroke-width="2" fill="#999999" cx="312.601852" cy="534.333333" rx="3.60185185" ry="3.66666667"></ellipse>
        <ellipse id="Oval-Copy" stroke="#4F4F4F" stroke-width="2" fill="#999999" cx="331.009259" cy="550.333333" rx="3.60185185" ry="3.66666667"></ellipse>
        <ellipse id="Oval-Copy-4" stroke="#4F4F4F" stroke-width="2" fill="#999999" cx="359.935185" cy="519.666667" rx="3.60185185" ry="3.66666667"></ellipse>
        <ellipse id="Oval-Copy-3" stroke="#4F4F4F" stroke-width="2" fill="#999999" cx="341.527778" cy="534.333333" rx="3.60185185" ry="3.66666667"></ellipse>
        <line x1="313.259259" y1="539.333333" x2="313" y2="550" id="Line-6" stroke="#4F4F4F" stroke-width="2" stroke-linecap="square"></line>
        <line x1="340.87037" y1="519.333333" x2="340.87037" y2="530.666667" id="Line-6-Copy" stroke="#4F4F4F" stroke-width="2" stroke-linecap="square"></line>
        <line x1="313.573671" y1="549.666667" x2="327.40781" y2="549.666667" id="Line" stroke="#4F4F4F" stroke-width="2" stroke-linecap="round"></line>
        <line x1="335.93337" y1="549.666667" x2="368.159223" y2="549.666667" id="Line-Copy-3" stroke="#4F4F4F" stroke-width="2" stroke-linecap="round"></line>
        <line x1="346.12963" y1="533.666667" x2="379" y2="533.666667" id="Line-Copy-4" stroke="#4F4F4F" stroke-width="2" stroke-linecap="round"></line>
        <line x1="341.184783" y1="519" x2="355.018921" y2="519" id="Line-Copy-2" stroke="#4F4F4F" stroke-width="2" stroke-linecap="round"></line>
        <line x1="317.521804" y1="535" x2="336.607826" y2="535" id="Line-Copy" stroke="#4F4F4F" stroke-width="2" stroke-linecap="round"></line>
        <g id="Rectangle-Copy-16">
            <use fill="black" fill-opacity="1" filter="url(#filter-9)" xlink:href="#path-8"></use>
            <use fill="#E6E6E6" fill-rule="evenodd" xlink:href="#path-8"></use>
        </g>
        <text id="Edit-&amp;-Commit" font-family="Helvetica-Bold, Helvetica" font-size="28" font-weight="bold" fill="#999999">
            <tspan x="310.058594" y="89">Edit &amp; Commit</tspan>
        </text>
        <text id="—-git-add-—-git-comm" font-family="Helvetica" font-size="21" font-weight="normal" fill="#999999">
            <tspan x="260" y="150">— git add</tspan>
            <tspan x="260" y="175">— git commit</tspan>
            <tspan x="260" y="200">— git reset</tspan>
            <tspan x="260" y="225">— git restore</tspan>
            <tspan x="260" y="250">— git rm</tspan>
        </text>
        <text id="—-git-status-—-git-d" font-family="Helvetica" font-size="21" font-weight="normal" fill="#999999">
            <tspan x="415" y="150">— git status</tspan>
            <tspan x="415" y="175">— git diff</tspan>
            <tspan x="415" y="200">— git log</tspan>
        </text>
        <path d="M513.676471,237.487805 L513.676471,277 L479.264706,277 L479.264706,272.484321 C479.275963,272.470886 508.54464,237.505642 508.55948,237.487805 L513.676471,237.487805 Z" id="Path" fill="#E6E6E6" fill-rule="nonzero"></path>
        <path d="M508.382353,271.731707 C507.209176,271.731707 470.720794,271.731707 470,271.731707 C470,268.793242 470,226.27891 470,224.317073 L497.794118,224.317073 L500.661809,230.601431 L508.382353,233.348432 C508.382353,235.038538 508.382353,269.811753 508.382353,271.731707 Z" id="Path" fill="#FFFFFF" fill-rule="nonzero"></path>
        <polygon id="Path" fill="#E6E6E6" fill-rule="nonzero" points="508.382353 233.536585 497.794118 233.536585 497.794118 224.317073"></polygon>
        <path d="M509.705882,271.731707 L471.323529,271.731707 C470.592544,271.731707 470,271.235751 470,270.624169 L470,224.107539 C470,223.495845 470.592544,223 471.323529,223 L499.117647,223 C499.468647,223 499.805221,223.116735 500.053515,223.324398 L510.64175,232.184709 C510.889912,232.392372 511.029412,232.67413 511.029412,232.967849 L511.029412,270.624169 C511.029412,271.235751 510.436735,271.731707 509.705882,271.731707 Z M472.647059,269.51663 L508.382353,269.51663 L508.382353,233.426592 L498.569309,225.215078 L472.647059,225.215078 L472.647059,269.51663 Z" id="Shape" fill="#C5C4C4" fill-rule="nonzero"></path>
        <path d="M508.588439,234.25 L498.329941,234.25 C497.621848,234.25 497.047629,233.746337 497.047629,233.125 L497.047629,224.125 C497.047629,223.503662 497.621848,223 498.329941,223 C499.038034,223 499.612253,223.503662 499.612253,224.125 L499.612253,232 L508.588439,232 C509.296532,232 509.870751,232.503662 509.870751,233.125 C509.870751,233.746337 509.296532,234.25 508.588439,234.25 Z M513.717688,277 L479.223489,277 C478.515268,277 477.941176,276.496225 477.941176,275.875 L477.941176,271.375 C477.941176,270.753775 478.515268,270.25 479.223489,270.25 C479.93171,270.25 480.505801,270.753775 480.505801,271.375 L480.505801,274.75 L512.435376,274.75 L512.435376,237.625 L508.588439,237.625 C507.880346,237.625 507.306127,237.121337 507.306127,236.5 C507.306127,235.878662 507.880346,235.375 508.588439,235.375 L513.717688,235.375 C514.425781,235.375 515,235.878662 515,236.5 L515,275.875 C515,276.496225 514.425781,277 513.717688,277 Z" id="Shape" fill="#C5C4C4" fill-rule="nonzero"></path>
        <path d="M503.088235,265.146341 L475.294118,265.146341 C474.563132,265.146341 473.970588,264.636981 473.970588,264.008869 C473.970588,263.380757 474.563132,262.871397 475.294118,262.871397 L503.088235,262.871397 C503.819088,262.871397 504.411765,263.380757 504.411765,264.008869 C504.411765,264.636981 503.819088,265.146341 503.088235,265.146341 Z M503.088235,260.596452 L475.294118,260.596452 C474.563132,260.596452 473.970588,260.087092 473.970588,259.45898 C473.970588,258.830868 474.563132,258.321508 475.294118,258.321508 L503.088235,258.321508 C503.819088,258.321508 504.411765,258.830868 504.411765,259.45898 C504.411765,260.087092 503.819088,260.596452 503.088235,260.596452 Z M503.088235,256.046563 L475.294118,256.046563 C474.563132,256.046563 473.970588,255.537203 473.970588,254.909091 C473.970588,254.280979 474.563132,253.771619 475.294118,253.771619 L503.088235,253.771619 C503.819088,253.771619 504.411765,254.280979 504.411765,254.909091 C504.411765,255.537203 503.819088,256.046563 503.088235,256.046563 Z M503.088235,251.496674 L475.294118,251.496674 C474.563132,251.496674 473.970588,250.987428 473.970588,250.359202 C473.970588,249.730976 474.563132,249.221729 475.294118,249.221729 L503.088235,249.221729 C503.819088,249.221729 504.411765,249.730976 504.411765,250.359202 C504.411765,250.987428 503.819088,251.496674 503.088235,251.496674 Z M503.088235,246.946785 L475.294118,246.946785 C474.563132,246.946785 473.970588,246.437539 473.970588,245.809313 C473.970588,245.181087 474.563132,244.67184 475.294118,244.67184 L503.088235,244.67184 C503.819088,244.67184 504.411765,245.181087 504.411765,245.809313 C504.411765,246.437539 503.819088,246.946785 503.088235,246.946785 Z M487.205882,242.396896 L475.294118,242.396896 C474.563132,242.396896 473.970588,241.887649 473.970588,241.259424 C473.970588,240.631198 474.563132,240.121951 475.294118,240.121951 L487.205882,240.121951 C487.936868,240.121951 488.529412,240.631198 488.529412,241.259424 C488.529412,241.887649 487.936868,242.396896 487.205882,242.396896 Z" id="Shape" fill="#C5C4C4" fill-rule="nonzero"></path>
        <g id="Group" transform="translate(483.000000, 250.500000)">
            <rect id="Rectangle-Copy-2" fill="#C5C4C4" x="0" y="0.5" width="66" height="19" rx="2"></rect>
            <text id="Commit" font-family="Helvetica" font-size="16" font-weight="normal" fill="#FFFFFF">
                <tspan x="3.68179104" y="15">Commit</tspan>
            </text>
        </g>
        <path d="M513.857744,200.746176 L499.544643,215.05983 C499.41801,215.186467 499.332985,215.347478 499.296805,215.521152 L498.017815,221.918154 C497.958117,222.214848 498.050378,222.522396 498.265653,222.73587 C498.437512,222.907736 498.669069,223 498.906053,223 L499.083338,222.981909 L505.478284,221.70287 C505.65557,221.668497 505.814765,221.58166 505.941398,221.455023 L520.254498,207.141369 L513.857744,200.746176 Z M524.675785,196.322909 C522.911974,194.55903 520.042841,194.55903 518.280839,196.322909 L515.777132,198.826713 L522.172078,205.221906 L524.675785,202.718102 C525.52965,201.866013 526,200.729894 526,199.52141 C526,198.312927 525.52965,197.176808 524.675785,196.322909 Z" id="Shape" fill="#C5C4C4" fill-rule="nonzero"></path>
        <path d="M516.970452,203.950831 L498,222.735956 C498.173505,222.907765 498.407279,223 498.646533,223 L498.825517,222.981915 L505.281717,221.703289 C505.460701,221.668927 505.621421,221.582118 505.749266,221.455522 L520.199465,207.14649 L516.970452,203.950831 Z M524.663101,196.333333 L518.908225,202.031988 L522.137238,205.229456 L524.664927,202.726461 C525.525145,201.874647 526,200.738895 526,199.530801 C526,198.322708 525.525145,197.186956 524.663101,196.333333 L524.663101,196.333333 Z" id="Shape" fill="#999999" fill-rule="nonzero"></path>
        <path d="M411.656082,108.10703 C408.007212,108.10703 406.193979,110.011783 406.193979,112.754513 C406.193979,114.52008 407.076762,115.770848 408.245544,116.343323 C407.67307,116.868131 407.196405,117.327159 406.76693,117.779991 C406.336978,118.233776 406.074813,118.712824 406.074813,119.238108 C406.074813,119.882559 406.336978,120.47982 407.124429,120.812532 C406.289788,121.600936 405.81217,122.172934 405.81217,123.24686 C405.81217,125.131116 407.458094,126.228875 411.775724,126.228875 C415.926522,126.228875 418.33511,124.679238 418.33511,121.935555 C418.33511,118.764304 415.902689,118.644661 411.775724,118.381542 L409.43816,118.238542 L410.22561,116.974427 C410.654132,117.093593 411.346726,117.188926 412.11082,117.188926 C415.115715,117.188926 417.191114,115.638812 417.191114,112.990462 C417.191114,111.893179 416.649146,111.130039 416.220148,110.580921 L418.327483,110.414088 L418.327483,108.303416 L413.851123,108.303416 C413.302959,108.303416 412.681864,108.10703 411.656082,108.10703 L411.656082,108.10703 Z M412.729531,121.697222 C413.875433,121.768722 414.78205,121.816389 414.78205,122.580959 C414.78205,123.867478 412.89684,123.964241 411.514035,123.964241 C409.843802,123.964241 408.627353,123.677288 408.627353,122.723482 C408.627353,122.245864 408.937185,121.840699 409.247971,121.459367 L412.729531,121.697222 L412.729531,121.697222 Z M411.800511,114.684529 C410.22561,114.684529 409.581636,113.872769 409.581636,112.704463 C409.581636,111.153872 410.559276,110.509421 411.871534,110.509421 C413.230982,110.509421 414.042266,111.249205 414.042266,112.65632 C414.042266,113.897555 413.135649,114.684529 411.800511,114.684529 Z M422.69993,106.246607 C424.083211,106.246607 424.870662,105.459157 424.870662,104.098755 C424.870662,102.740261 424.083211,102 422.69993,102 C421.340005,102 420.552555,102.740261 420.552555,104.098755 C420.552555,105.45868 421.340005,106.246607 422.69993,106.246607 Z M424.524126,118.053596 L424.524126,108.303416 L419.884747,108.303416 L419.622582,110.160503 L420.893847,110.577108 C421.133132,110.648131 421.187472,110.778737 421.187472,111.040903 L421.187472,118.053596 C421.187472,118.412048 420.98632,118.483548 420.652178,118.531691 L419.280813,118.698524 L419.280813,120.696703 L426.430786,120.696703 L426.430786,118.698524 L425.059898,118.531691 C424.700969,118.483548 424.524126,118.436358 424.524126,118.053596 Z M435.209999,117.557865 C434.637048,117.772364 433.955418,117.93872 433.286657,117.93872 C431.999185,117.93872 431.674099,117.390555 431.674099,115.982964 L431.674099,110.210076 L435.010754,110.210076 L435.010754,107.826751 L431.846652,107.826751 C431.65551,107.826751 431.674099,107.825321 431.674099,107.658489 L431.674099,104.490097 L429.389445,104.490097 C429.127279,106.873422 427.86078,107.920178 425.954121,108.159463 L425.954121,110.210076 L427.86221,110.210076 C428.053353,110.210076 427.86078,110.378338 427.86078,110.520861 L427.86078,116.770414 C427.86078,119.466908 429.030516,120.61138 431.868579,120.61138 C433.22898,120.61138 434.779571,120.158072 435.805831,119.657573 L435.209999,117.557865 L435.209999,117.557865 Z M389.602705,102.490965 C388.974937,101.862721 387.955827,101.862721 387.327583,102.490965 L385.062948,104.7556 L387.935808,107.628459 C388.603615,107.402996 389.369139,107.554099 389.901573,108.086534 C390.436391,108.621828 390.586541,109.394025 390.355358,110.064216 L393.124305,112.833163 C393.794495,112.602457 394.567169,112.751653 395.101987,113.287424 C395.850351,114.034835 395.850351,115.246517 395.101987,115.994404 C394.3541,116.742768 393.142895,116.742768 392.394531,115.994404 C391.832066,115.431463 391.620427,114.605403 391.905949,113.912332 L389.250926,111.330238 L389.250926,118.126049 C389.250926,118.216139 389.677541,118.336258 389.829597,118.487838 C390.577008,119.235248 390.613234,120.446931 389.865347,121.195771 C389.11746,121.943182 387.923414,121.943182 387.176004,121.195771 C386.428593,120.446931 386.43765,119.235725 387.185537,118.487838 C387.370483,118.303369 387.344266,118.163706 387.820931,118.070279 L387.820931,111.211549 C387.344266,111.118122 387.379063,110.979413 387.194594,110.79399 C386.628316,110.227712 386.49199,109.396885 386.782279,108.701431 L383.949936,105.868612 L376.471541,113.347007 C375.84282,113.975728 375.84282,114.994838 376.471541,115.622605 L387.378586,126.529174 C388.006354,127.156942 389.024987,127.156942 389.653708,126.529174 L400.50975,115.672655 C401.137518,115.044411 401.137518,114.025301 400.50975,113.397057 L389.602705,102.490965 Z" id="Shape" fill="#C5C4C4" fill-rule="nonzero"></path>
        <path d="M239.656082,379.10703 C236.007212,379.10703 234.193979,381.011783 234.193979,383.754513 C234.193979,385.52008 235.076762,386.770848 236.245544,387.343323 C235.67307,387.868131 235.196405,388.327159 234.76693,388.779991 C234.336978,389.233776 234.074813,389.712824 234.074813,390.238108 C234.074813,390.882559 234.336978,391.47982 235.124429,391.812532 C234.289788,392.600936 233.81217,393.172934 233.81217,394.24686 C233.81217,396.131116 235.458094,397.228875 239.775724,397.228875 C243.926522,397.228875 246.33511,395.679238 246.33511,392.935555 C246.33511,389.764304 243.902689,389.644661 239.775724,389.381542 L237.43816,389.238542 L238.22561,387.974427 C238.654132,388.093593 239.346726,388.188926 240.11082,388.188926 C243.115715,388.188926 245.191114,386.638812 245.191114,383.990462 C245.191114,382.893179 244.649146,382.130039 244.220148,381.580921 L246.327483,381.414088 L246.327483,379.303416 L241.851123,379.303416 C241.302959,379.303416 240.681864,379.10703 239.656082,379.10703 L239.656082,379.10703 Z M240.729531,392.697222 C241.875433,392.768722 242.78205,392.816389 242.78205,393.580959 C242.78205,394.867478 240.89684,394.964241 239.514035,394.964241 C237.843802,394.964241 236.627353,394.677288 236.627353,393.723482 C236.627353,393.245864 236.937185,392.840699 237.247971,392.459367 L240.729531,392.697222 L240.729531,392.697222 Z M239.800511,385.684529 C238.22561,385.684529 237.581636,384.872769 237.581636,383.704463 C237.581636,382.153872 238.559276,381.509421 239.871534,381.509421 C241.230982,381.509421 242.042266,382.249205 242.042266,383.65632 C242.042266,384.897555 241.135649,385.684529 239.800511,385.684529 Z M250.69993,377.246607 C252.083211,377.246607 252.870662,376.459157 252.870662,375.098755 C252.870662,373.740261 252.083211,373 250.69993,373 C249.340005,373 248.552555,373.740261 248.552555,375.098755 C248.552555,376.45868 249.340005,377.246607 250.69993,377.246607 Z M252.524126,389.053596 L252.524126,379.303416 L247.884747,379.303416 L247.622582,381.160503 L248.893847,381.577108 C249.133132,381.648131 249.187472,381.778737 249.187472,382.040903 L249.187472,389.053596 C249.187472,389.412048 248.98632,389.483548 248.652178,389.531691 L247.280813,389.698524 L247.280813,391.696703 L254.430786,391.696703 L254.430786,389.698524 L253.059898,389.531691 C252.700969,389.483548 252.524126,389.436358 252.524126,389.053596 Z M263.209999,388.557865 C262.637048,388.772364 261.955418,388.93872 261.286657,388.93872 C259.999185,388.93872 259.674099,388.390555 259.674099,386.982964 L259.674099,381.210076 L263.010754,381.210076 L263.010754,378.826751 L259.846652,378.826751 C259.65551,378.826751 259.674099,378.825321 259.674099,378.658489 L259.674099,375.490097 L257.389445,375.490097 C257.127279,377.873422 255.86078,378.920178 253.954121,379.159463 L253.954121,381.210076 L255.86221,381.210076 C256.053353,381.210076 255.86078,381.378338 255.86078,381.520861 L255.86078,387.770414 C255.86078,390.466908 257.030516,391.61138 259.868579,391.61138 C261.22898,391.61138 262.779571,391.158072 263.805831,390.657573 L263.209999,388.557865 L263.209999,388.557865 Z M217.602705,373.490965 C216.974937,372.862721 215.955827,372.862721 215.327583,373.490965 L213.062948,375.7556 L215.935808,378.628459 C216.603615,378.402996 217.369139,378.554099 217.901573,379.086534 C218.436391,379.621828 218.586541,380.394025 218.355358,381.064216 L221.124305,383.833163 C221.794495,383.602457 222.567169,383.751653 223.101987,384.287424 C223.850351,385.034835 223.850351,386.246517 223.101987,386.994404 C222.3541,387.742768 221.142895,387.742768 220.394531,386.994404 C219.832066,386.431463 219.620427,385.605403 219.905949,384.912332 L217.250926,382.330238 L217.250926,389.126049 C217.250926,389.216139 217.677541,389.336258 217.829597,389.487838 C218.577008,390.235248 218.613234,391.446931 217.865347,392.195771 C217.11746,392.943182 215.923414,392.943182 215.176004,392.195771 C214.428593,391.446931 214.43765,390.235725 215.185537,389.487838 C215.370483,389.303369 215.344266,389.163706 215.820931,389.070279 L215.820931,382.211549 C215.344266,382.118122 215.379063,381.979413 215.194594,381.79399 C214.628316,381.227712 214.49199,380.396885 214.782279,379.701431 L211.949936,376.868612 L204.471541,384.347007 C203.84282,384.975728 203.84282,385.994838 204.471541,386.622605 L215.378586,397.529174 C216.006354,398.156942 217.024987,398.156942 217.653708,397.529174 L228.50975,386.672655 C229.137518,386.044411 229.137518,385.025301 228.50975,384.397057 L217.602705,373.490965 Z" id="Shape" fill="#C5C4C4" fill-rule="nonzero"></path>
        <text id="—-git-push-—-git-pul" font-family="Helvetica" font-size="21" font-weight="normal" fill="#0055C2">
            <tspan x="425" y="424">— git push</tspan>
            <tspan x="425" y="449">— git pull</tspan>
            <tspan x="425" y="474">— git fetch</tspan>
            <tspan x="425" y="499">— git remote</tspan>
        </text>
        <text id="—-Pull-Request-—-Mer" font-family="Helvetica" font-size="21" font-weight="normal" fill="#0055C2">
            <tspan x="552" y="423">— Pull Request</tspan>
            <tspan x="552" y="448">— Merge operation</tspan>
        </text>
        <text id="Remote-Collaboration" font-family="Helvetica-Bold, Helvetica" font-size="28" font-weight="bold" fill="#0055C2">
            <tspan x="431.544922" y="356">Remote Collaboration</tspan>
        </text>
        <path d="M642.499934,370 C635.388963,370.000302 629.327634,375.288439 628.188549,382.485804 C627.049464,389.683169 631.168833,396.665405 637.914778,398.97154 C638.639708,399.101654 638.911557,398.655666 638.911557,398.26537 C638.911557,397.9123 638.893419,396.741529 638.893419,395.496455 C635.250629,396.184027 634.308219,394.585912 634.018247,393.749658 C633.696488,392.936336 633.186426,392.215584 632.53214,391.649687 C632.024688,391.370935 631.299758,390.683349 632.514002,390.664795 C633.454971,390.769492 634.286988,391.338234 634.743178,392.188591 C635.143675,392.926325 635.814042,393.470289 636.606296,393.700404 C637.398551,393.930519 638.247546,393.827863 638.965869,393.415097 C639.028635,392.659305 639.357128,391.952659 639.890184,391.42673 C636.664244,391.055062 633.293317,389.772746 633.293317,384.086278 C633.272943,382.608741 633.804661,381.179203 634.779424,380.090843 C634.336175,378.806683 634.388039,377.397412 634.92441,376.151157 C634.92441,376.151157 636.138625,375.760891 638.911528,377.674998 C641.283918,377.005955 643.788443,377.005955 646.160833,377.674998 C648.933664,375.742322 650.147951,376.151157 650.147951,376.151157 C650.684396,377.397394 650.73626,378.806694 650.292937,380.090843 C651.270635,381.17734 651.802818,382.608126 651.779045,384.086278 C651.779045,389.791344 648.389966,391.055062 645.164054,391.42673 C645.864181,392.154365 646.221336,393.158088 646.14271,394.177076 C646.14271,396.165532 646.124572,397.763647 646.124572,398.265429 C646.124572,398.655696 646.396421,399.120267 647.121352,398.971599 C653.854863,396.64684 657.955324,389.663354 656.808439,382.473546 C655.661554,375.283738 649.604885,370.003792 642.499934,370 Z" id="Path" fill="#000000" fill-rule="nonzero"></path>
        <path d="M499.848965,381.263278 C498.58226,381.263278 497.639058,381.889065 497.639058,383.395331 C497.639058,384.530036 498.260609,385.317857 499.780932,385.317857 C501.069389,385.317857 501.945022,384.553782 501.945022,383.348304 C501.945022,381.982188 501.161488,381.263278 499.848965,381.263278 L499.848965,381.263278 Z M497.316944,391.897935 C497.017044,392.268099 496.71807,392.661544 496.71807,393.125763 C496.71807,394.051872 497.891751,394.33031 499.504636,394.33031 C500.839837,394.33031 502.659134,394.236256 502.659134,392.987009 C502.659134,392.244353 501.783502,392.198722 500.677854,392.12888 L497.316944,391.897935 Z M504.131789,381.33312 C504.546002,381.86625 504.98428,382.607509 504.98428,383.673303 C504.98428,386.244432 502.980785,387.750232 500.079906,387.750232 C499.342191,387.750232 498.674359,387.65804 498.260146,387.542102 L497.500215,388.76993 L499.756404,388.908218 C503.740253,389.163841 506.08854,389.279779 506.08854,392.359825 C506.08854,395.024543 503.763393,396.529412 499.756404,396.529412 C495.588356,396.529412 494,395.463618 494,393.634215 C494,392.591236 494.460957,392.036688 495.266705,391.270751 C494.506312,390.947614 494.253619,390.368854 494.253619,389.743066 C494.253619,389.233217 494.506775,388.76993 494.92145,388.329458 C495.336126,387.889917 495.79662,387.448979 496.34875,386.939596 C495.220424,386.383651 494.368858,385.179104 494.368858,383.464242 C494.368858,380.800456 496.118734,378.971053 499.641627,378.971053 C500.632036,378.971053 501.231372,379.062779 501.760361,379.202929 L506.250985,379.202929 L506.250985,381.171551 L504.131789,381.33312 L504.131789,381.33312 Z M510.301942,377.123956 C508.988956,377.123956 508.229026,376.35895 508.229026,375.037999 C508.229026,373.71891 508.988956,373 510.301942,373 C511.637606,373 512.397073,373.718445 512.397073,375.037999 C512.397536,376.35895 511.637606,377.123956 510.301942,377.123956 Z M507.330716,391.045858 L507.330716,389.216455 L508.505785,389.054421 C508.827899,389.00786 508.873717,388.938483 508.873717,388.590203 L508.873717,381.779645 C508.873717,381.525419 508.805222,381.362454 508.574281,381.293543 L507.330716,380.85307 L507.583872,378.977571 L512.351255,378.977571 L512.351255,388.590668 C512.351255,388.962229 512.37347,389.00786 512.71965,389.054887 L513.894256,389.216921 L513.894256,391.046324 L507.330716,391.046324 L507.330716,391.045858 Z M523,390.147221 C522.009128,390.632858 520.559152,391.073795 519.245703,391.073795 C516.505881,391.073795 515.470117,389.962837 515.470117,387.34375 L515.470117,381.274452 C515.470117,381.136165 515.470117,381.043041 515.285457,381.043041 L513.67396,381.043041 L513.67396,378.981296 C515.701058,378.748954 516.506344,377.729722 516.7595,375.204689 L518.947655,375.204689 L518.947655,378.495194 C518.947655,378.656762 518.947655,378.72707 519.131852,378.72707 L522.378449,378.72707 L522.378449,381.043507 L518.947655,381.043507 L518.947655,386.579675 C518.947655,387.946256 519.270232,388.47892 520.513334,388.47892 C521.158951,388.47892 521.825857,388.317352 522.378449,388.108756 L523,390.147221 L523,390.147221 Z" id="Shape" fill="#31251C" fill-rule="nonzero"></path>
        <path d="M489.184828,384.386341 L478.422348,373.471422 C477.803064,372.842859 476.797734,372.842859 476.177977,373.471422 L473.943067,375.738086 L476.77739,378.61316 C477.436887,378.387646 478.19195,378.538789 478.717087,379.071867 C479.245063,379.607825 479.393143,380.380333 479.16511,381.05112 L481.897244,383.822074 C482.557687,383.591281 483.320793,383.740504 483.848769,384.276462 C484.5868,385.0245 484.5868,386.237002 483.848769,386.985519 C483.110264,387.734036 481.915222,387.734036 481.177191,386.985519 C480.622248,386.422212 480.48505,385.595484 480.76607,384.902146 L478.21797,382.317842 L478.217497,389.118794 C478.397747,389.208999 478.567116,389.328954 478.717087,389.480577 C479.455118,390.228614 479.455118,391.440637 478.717087,392.190114 C477.979056,392.938151 476.783068,392.938151 476.045983,392.190114 C475.307952,391.440637 475.307952,390.228614 476.045983,389.480577 C476.228598,389.295847 476.439126,389.156219 476.66432,389.062655 L476.66432,382.198847 C476.439126,382.105762 476.228598,381.966614 476.045983,381.780924 C475.486782,381.214258 475.352423,380.382732 475.639119,379.686515 L472.84501,376.851746 L465.465172,384.33596 C464.844943,384.965002 464.844943,385.984617 465.465172,386.613659 L476.227652,397.528578 C476.847409,398.157141 477.852266,398.157141 478.472969,397.528578 L489.184828,386.663561 C489.805057,386.034998 489.805057,385.014903 489.184828,384.386341 L489.184828,384.386341 Z" id="Path" fill="#F34F29" fill-rule="nonzero"></path>
        <polygon id="Path" points="465 373 523 373 523 398 465 398"></polygon>
        <path d="M701.824291,472.256147 C700.590016,468.797483 693.006835,467 685.508193,467 C678.009551,467 670.51091,468.780445 669.209003,472.205034 C669.076502,472.407234 669.005943,472.644238 669.006109,472.886544 L669.006109,504.346757 C668.997964,504.414661 668.997964,504.483306 669.006109,504.55121 C669.002016,504.610771 669.002016,504.670546 669.006109,504.730106 C669.006109,508.844724 677.307875,511 685.508193,511 C693.708512,511 701.993369,508.844724 701.993369,504.730106 C701.997459,504.673389 701.997459,504.616447 701.993369,504.559729 C702.00221,504.489018 702.00221,504.417468 701.993369,504.346757 L701.993369,472.886544 C701.997686,472.66448 701.93903,472.445786 701.824291,472.256147 Z" id="Path" fill="url(#linearGradient-10)" fill-rule="nonzero"></path>
        <path d="M685.498456,467 C696.184271,467 701.991997,470.075515 701.991997,471.655988 C702.002668,471.705171 702.002668,471.756309 701.991997,471.805492 C701.642134,473.42868 695.824412,476.333333 685.498456,476.333333 C675.172501,476.333333 669.354779,473.396644 669.004916,471.805492 C668.998361,471.766649 668.998361,471.726867 669.004916,471.688024 C669.004916,470.075515 674.812641,467 685.498456,467 Z" id="Path" fill="#199ABD" fill-rule="nonzero"></path>
        <polyline id="Path-11" stroke="#FFAA1D" points="659 532 665.092646 511.54484 665.092646 521.77242 670.271289 506.408302 670.271289 519.204151 675 499"></polyline>
        <path d="M661.824291,525.256147 C660.590016,521.797483 653.006835,520 645.508193,520 C638.009551,520 630.51091,521.780445 629.209003,525.205034 C629.076502,525.407234 629.005943,525.644238 629.006109,525.886544 L629.006109,557.346757 C628.997964,557.414661 628.997964,557.483306 629.006109,557.55121 C629.002016,557.610771 629.002016,557.670546 629.006109,557.730106 C629.006109,561.844724 637.307875,564 645.508193,564 C653.708512,564 661.993369,561.844724 661.993369,557.730106 C661.997459,557.673389 661.997459,557.616447 661.993369,557.559729 C662.00221,557.489018 662.00221,557.417468 661.993369,557.346757 L661.993369,525.886544 C661.997686,525.66448 661.93903,525.445786 661.824291,525.256147 Z" id="Path" fill="url(#linearGradient-11)" fill-rule="nonzero"></path>
        <path d="M645.498456,520 C656.184271,520 661.991997,523.075515 661.991997,524.655988 C662.002668,524.705171 662.002668,524.756309 661.991997,524.805492 C661.642134,526.42868 655.824412,529.333333 645.498456,529.333333 C635.172501,529.333333 629.354779,526.396644 629.004916,524.805492 C628.998361,524.766649 628.998361,524.726867 629.004916,524.688024 C629.004916,523.075515 634.812641,520 645.498456,520 Z" id="Path" fill="#0055C2" fill-rule="nonzero"></path>
        <g id="Group-2-Copy-3" transform="translate(407.000000, 389.000000) scale(-1, 1) rotate(-360.000000) translate(-407.000000, -389.000000) translate(380.500000, 380.500000)" fill="#C5C4C4">
            <rect id="Rectangle" x="5.5" y="2.5" width="41" height="12"></rect>
            <polygon id="Triangle-Copy-3" transform="translate(4.000000, 8.500000) rotate(-90.000000) translate(-4.000000, -8.500000) " points="4 4.5 12.5 12.5 -4.5 12.5"></polygon>
            <polygon id="Triangle-Copy-4" transform="translate(49.000000, 8.500000) scale(1, -1) rotate(-270.000000) translate(-49.000000, -8.500000) " points="49 4.5 57.5 12.5 40.5 12.5"></polygon>
        </g>
        <g id="Group-2" transform="translate(532.000000, 309.000000) rotate(-300.000000) translate(-532.000000, -309.000000) translate(505.500000, 300.500000)" fill="#C5C4C4">
            <rect id="Rectangle" x="5.5" y="2.5" width="41" height="12"></rect>
            <polygon id="Triangle-Copy-3" transform="translate(4.000000, 8.500000) rotate(-90.000000) translate(-4.000000, -8.500000) " points="4 4.5 12.5 12.5 -4.5 12.5"></polygon>
            <polygon id="Triangle-Copy-4" transform="translate(49.000000, 8.500000) scale(1, -1) rotate(-270.000000) translate(-49.000000, -8.500000) " points="49 4.5 57.5 12.5 40.5 12.5"></polygon>
        </g>
        <g id="Group-2-Copy" transform="translate(294.000000, 309.000000) scale(-1, 1) rotate(-300.000000) translate(-294.000000, -309.000000) translate(267.500000, 300.500000)" fill="#C5C4C4">
            <rect id="Rectangle" x="5.5" y="2.5" width="41" height="12"></rect>
            <polygon id="Triangle-Copy-3" transform="translate(4.000000, 8.500000) rotate(-90.000000) translate(-4.000000, -8.500000) " points="4 4.5 12.5 12.5 -4.5 12.5"></polygon>
            <polygon id="Triangle-Copy-4" transform="translate(49.000000, 8.500000) scale(1, -1) rotate(-270.000000) translate(-49.000000, -8.500000) " points="49 4.5 57.5 12.5 40.5 12.5"></polygon>
        </g>
        <text id="Git-Regular-Workflow" fill-rule="nonzero" font-family="Helvetica" font-size="18" font-weight="normal" fill="#0055C2">
            <tspan x="10" y="23">Git Regular Workflow — Remote Collaboration</tspan>
        </text>
        <text id="Git-Regular-Workflow" font-family="Helvetica-Bold, Helvetica" font-size="28" font-weight="bold" fill="#0055C2">
            <tspan x="52.0449219" y="89">Git Regular </tspan>
            <tspan x="64.7529297" y="123">Workflow</tspan>
        </text>
    </g>
</svg>