<?xml version="1.0" encoding="UTF-8"?>
<svg width="800px" height="603px" viewBox="0 0 800 603" version="1.1" xmlns="http://www.w3.org/2000/svg" xmlns:xlink="http://www.w3.org/1999/xlink">
    <title>2041-10-14-11-10_Git&amp;GitHubProjectLaunchOverview(1)</title>
    <defs>
        <rect id="path-1" x="38" y="96" width="70" height="426"></rect>
        <filter x="-7.1%" y="-1.2%" width="120.0%" height="103.3%" filterUnits="objectBoundingBox" id="filter-2">
            <feOffset dx="2" dy="2" in="SourceAlpha" result="shadowOffsetOuter1"></feOffset>
            <feGaussianBlur stdDeviation="2" in="shadowOffsetOuter1" result="shadowBlurOuter1"></feGaussianBlur>
            <feColorMatrix values="0 0 0 0 0   0 0 0 0 0   0 0 0 0 0  0 0 0 0.5 0" type="matrix" in="shadowBlurOuter1"></feColorMatrix>
        </filter>
        <rect id="path-3" x="689" y="96" width="78" height="426"></rect>
        <filter x="-6.4%" y="-1.2%" width="117.9%" height="103.3%" filterUnits="objectBoundingBox" id="filter-4">
            <feOffset dx="2" dy="2" in="SourceAlpha" result="shadowOffsetOuter1"></feOffset>
            <feGaussianBlur stdDeviation="2" in="shadowOffsetOuter1" result="shadowBlurOuter1"></feGaussianBlur>
            <feColorMatrix values="0 0 0 0 0   0 0 0 0 0   0 0 0 0 0  0 0 0 0.5 0" type="matrix" in="shadowBlurOuter1"></feColorMatrix>
        </filter>
        <rect id="path-5" x="129" y="97" width="539" height="425"></rect>
        <filter x="-0.9%" y="-1.2%" width="102.6%" height="103.3%" filterUnits="objectBoundingBox" id="filter-6">
            <feOffset dx="2" dy="2" in="SourceAlpha" result="shadowOffsetOuter1"></feOffset>
            <feGaussianBlur stdDeviation="2" in="shadowOffsetOuter1" result="shadowBlurOuter1"></feGaussianBlur>
            <feComposite in="shadowBlurOuter1" in2="SourceAlpha" operator="out" result="shadowBlurOuter1"></feComposite>
            <feColorMatrix values="0 0 0 0 0   0 0 0 0 0   0 0 0 0 0  0 0 0 0.5 0" type="matrix" in="shadowBlurOuter1"></feColorMatrix>
        </filter>
        <path d="M8.68744595,14.5405413 C10.6544909,13.5649687 12,11.5915112 12,9.31636202 C12,6.07252388 9.26504479,3.44227578 5.89152197,3.44227578 C4.52034181,3.44227578 3.25480793,3.87689217 2.23537065,4.61058921 L2.23537065,1.05770107 C2.23537065,0.476155373 1.74046224,0 1.11695169,0 C0.493934821,0 0.0167986821,0.476630104 0.0167986821,1.05770107 L0.0167986821,1.80184219 L0,9.32158406 C-0.0041824725,11.2003327 0.951817666,12.865215 2.41753644,13.8939574 C2.4777647,13.9362085 2.55848043,13.9312238 2.6127846,13.8823265 C2.66758244,13.8334292 2.6779496,13.7558106 2.63746831,13.6950451 C0.724974359,10.8146136 1.16014819,5.53963813 5.89176881,5.53963813 C8.05899866,5.53963813 9.80709909,7.22944376 9.81623206,9.31351363 C9.82240299,10.8599505 9.11620201,12.0365717 8.19549958,12.7781018 C6.36026565,14.2561773 3.64974731,12.6382934 4.49738595,10.4697214 C4.5894562,10.2335427 4.71879884,9.9959397 4.88664808,9.76189723 L5.12361171,9.47705853 C5.19766284,9.39967734 5.25048599,9.29903433 5.2146946,9.19411874 C5.01401603,8.62800181 3.46832203,8.97526767 3.04005964,10.0315445 C3.34292878,9.79631524 3.65986763,9.66433998 3.96940137,9.71489885 C2.38890334,11.275815 3.44141679,13.9563846 5.46005069,14.7513219 C6.40494316,15.1232738 7.55964718,15.0976383 8.68744595,14.5405413" id="path-7"></path>
        <linearGradient x1="28.568518%" y1="104.445731%" x2="78.3472072%" y2="20.6880271%" id="linearGradient-9">
            <stop stop-color="#000F98" offset="0%"></stop>
            <stop stop-color="#00A5FD" offset="100%"></stop>
        </linearGradient>
        <linearGradient x1="78.2562717%" y1="0%" x2="21.7437283%" y2="100%" id="linearGradient-10">
            <stop stop-color="#00A5FF" offset="0.0491695804%"></stop>
            <stop stop-color="#0755C2" offset="100%"></stop>
        </linearGradient>
        <linearGradient x1="1.18752487e-05%" y1="49.9999884%" x2="100.000032%" y2="49.9999884%" id="linearGradient-11">
            <stop stop-color="#FCD635" offset="0%"></stop>
            <stop stop-color="#F7A928" offset="100%"></stop>
        </linearGradient>
        <linearGradient x1="79.5857988%" y1="0%" x2="20.4142012%" y2="100%" id="linearGradient-12">
            <stop stop-color="#00C6FF" offset="0.0491695804%"></stop>
            <stop stop-color="#079DC2" offset="100%"></stop>
        </linearGradient>
        <linearGradient x1="79.5857988%" y1="0%" x2="20.4142012%" y2="100%" id="linearGradient-13">
            <stop stop-color="#00C6FF" offset="0.0491695804%"></stop>
            <stop stop-color="#079DC2" offset="100%"></stop>
        </linearGradient>
        <linearGradient x1="79.5857988%" y1="0%" x2="20.4142012%" y2="100%" id="linearGradient-14">
            <stop stop-color="#00A5FF" offset="0.0491695804%"></stop>
            <stop stop-color="#0755C2" offset="100%"></stop>
        </linearGradient>
    </defs>
    <g id="2041-10-14-11-10_Git&amp;GitHubProjectLaunchOverview(1)" stroke="none" stroke-width="1" fill="none" fill-rule="evenodd">
        <rect fill="#FFFFFF" x="0" y="0" width="800" height="603"></rect>
        <text id="Git-&amp;-GitHub-Project" fill-rule="nonzero" font-family="Helvetica" font-size="18" font-weight="normal" fill="#0055C2">
            <tspan x="10" y="23">Git &amp; GitHub Project Launch Overview (1)</tspan>
        </text>
        <g id="git" transform="translate(661.000000, 9.000000)">
            <path d="M46.8658496,11.2380575 C45.1623498,11.2380575 43.8939053,12.0891281 43.8939053,14.1376499 C43.8939053,15.6808485 44.7297841,16.7522856 46.7743573,16.7522856 C48.5071097,16.7522856 49.6846843,15.7131436 49.6846843,14.073693 C49.6846843,12.2157755 48.6309666,11.2380575 46.8658496,11.2380575 L46.8658496,11.2380575 Z M43.4607172,25.7011913 C43.0574041,26.2046147 42.6553359,26.7397 42.6553359,27.3710373 C42.6553359,28.6305458 44.2337339,29.0092215 46.4027864,29.0092215 C48.1984009,29.0092215 50.6450424,28.8813076 50.6450424,27.1823327 C50.6450424,26.1723196 49.4674678,26.1102624 47.9805621,26.0152768 L43.4607172,25.7011913 Z M52.6255087,11.3330431 C53.1825537,12.0580995 53.7719634,13.0662128 53.7719634,14.5156924 C53.7719634,18.0124273 51.0776081,20.0603158 47.1764255,20.0603158 C46.1843252,20.0603158 45.2862067,19.9349349 44.7291617,19.7772589 L43.7071863,21.4471049 L46.7413702,21.6351763 C52.0989611,21.9828234 55.257002,22.1404995 55.257002,26.3293624 C55.257002,29.9533779 52.1300809,32 46.7413702,32 C41.1360655,32 39,30.5505204 39,28.0625322 C39,26.6440812 39.6199071,25.8898959 40.7034998,24.848221 C39.680902,24.4087545 39.3410734,23.6216409 39.3410734,22.7705703 C39.3410734,22.0771758 39.6815244,21.4471049 40.2391918,20.8480627 C40.7968593,20.2502869 41.416144,19.6506115 42.1586633,18.9578502 C40.6412601,18.2017651 39.4960502,16.563581 39.4960502,14.231369 C39.4960502,10.6086199 41.8493321,8.12063165 46.5870158,8.12063165 C47.9189448,8.12063165 48.7249485,8.24537935 49.436348,8.43598369 L55.4754632,8.43598369 L55.4754632,11.1133099 L52.6255087,11.3330431 L52.6255087,11.3330431 Z M60.9233016,5.60858036 C59.1575621,5.60858036 58.1355867,4.56817192 58.1355867,2.77167847 C58.1355867,0.977717972 59.1575621,0 60.9233016,0 C62.7195385,0 63.7408917,0.977084735 63.7408917,2.77167847 C63.7415139,4.56817192 62.7195385,5.60858036 60.9233016,5.60858036 Z M56.9275147,24.5423675 L56.9275147,22.0543792 L58.50778,21.8340127 C58.9409681,21.770689 59.0025853,21.6763367 59.0025853,21.2026754 L59.0025853,11.9403174 C59.0025853,11.59457 58.9104706,11.372937 58.5998947,11.279218 L56.9275147,10.6801757 L57.2679657,8.12949697 L63.6792742,8.12949697 L63.6792742,21.2033087 C63.6792742,21.7086318 63.7091492,21.770689 64.174702,21.834646 L65.7543448,22.0550125 L65.7543448,24.5430008 L56.9275147,24.5430008 L56.9275147,24.5423675 Z M78,23.32022 C76.6674487,23.9806863 74.7174798,24.5803617 72.9511179,24.5803617 C69.2665294,24.5803617 67.8736056,23.0694582 67.8736056,19.5074999 L67.8736056,11.2532552 C67.8736056,11.0651838 67.8736056,10.9385364 67.6252693,10.9385364 L65.458084,10.9385364 L65.458084,8.13456287 C68.1841815,7.81857759 69.2671518,6.43242174 69.6076028,2.99837733 L72.5502944,2.99837733 L72.5502944,7.47346341 C72.5502944,7.69319666 72.5502944,7.78881545 72.7980083,7.78881545 L77.1641212,7.78881545 L77.1641212,10.9391697 L72.5502944,10.9391697 L72.5502944,18.4683579 C72.5502944,20.3269086 72.9841049,21.0513318 74.6558625,21.0513318 C75.5241059,21.0513318 76.4209796,20.8315985 77.1641212,20.5479083 L78,23.32022 L78,23.32022 Z" id="Shape" fill="#31251C" fill-rule="nonzero"></path>
            <path d="M32.3772539,15.0299695 L17.9690664,0.622277028 C17.140005,-0.207425676 15.7941261,-0.207425676 14.9644314,0.622277028 L11.9724635,3.61427365 L15.7668919,7.40937182 C16.6497884,7.11169223 17.6606226,7.31120089 18.3636464,8.01486479 C19.0704703,8.72232885 19.2687104,9.74203981 18.9634334,10.6274783 L22.6210571,14.2851371 C23.5052204,13.9804906 24.5268216,14.1774658 25.2336455,14.8849299 C26.221679,15.8723394 26.221679,17.4728423 25.2336455,18.4608852 C24.2449787,19.4489281 22.6451246,19.4489281 21.6570912,18.4608852 C20.914166,17.7173195 20.7304932,16.6260388 21.1067059,15.7108324 L17.6954571,12.2995509 L17.6948238,21.2768075 C17.9361319,21.3958793 18.1628729,21.5542195 18.3636464,21.7543616 C19.3516798,22.7417711 19.3516798,24.3416406 18.3636464,25.3309502 C17.375613,26.3183598 15.7744921,26.3183598 14.7877254,25.3309502 C13.799692,24.3416406 13.799692,22.7417711 14.7877254,21.7543616 C15.0322003,21.5105176 15.3140432,21.3262096 15.6155201,21.2027043 L15.6155201,12.1424774 C15.3140432,12.0196054 15.0322003,11.8359308 14.7877254,11.5908201 C14.0391001,10.842821 13.8592273,9.74520661 14.2430403,8.82620003 L10.5024471,5.08430417 L0.622746073,14.9634666 C-0.207582024,15.7938027 -0.207582024,17.1396945 0.622746073,17.9700305 L15.0309336,32.377723 C15.8606284,33.2074257 17.2058739,33.2074257 18.0368353,32.377723 L32.3772539,18.0359 C33.207582,17.2061973 33.207582,15.8596722 32.3772539,15.0299695 L32.3772539,15.0299695 Z" id="Path" fill="#F34F29" fill-rule="nonzero"></path>
            <polygon id="Path" points="1.12409637e-15 0 79 0 79 33 0 33"></polygon>
        </g>
        <g id="github-copy" transform="translate(748.000000, 3.000000)" fill="#000000" fill-rule="nonzero">
            <path d="M22.9998956,0 C11.7204239,0.000469179946 2.10590223,8.20619911 0.299077857,19.3745239 C-1.50774651,30.5428487 5.02642435,41.3773525 15.7268887,44.9558377 C16.8767785,45.1577383 17.3079872,44.4656891 17.3079872,43.8600567 C17.3079872,43.3121892 17.279217,41.4954764 17.279217,39.5634644 C11.5009978,40.6303861 10.0061411,38.1505528 9.54618516,36.8529173 C9.03580825,35.5908656 8.22674528,34.472458 7.1889111,33.5943411 C6.38398825,33.161796 5.23409847,32.0948512 7.16014086,32.066061 C8.65271236,32.2285228 9.97246422,33.1110528 10.6960749,34.4305721 C11.3313462,35.5753322 12.3946869,36.4194146 13.6513665,36.7764896 C14.9080461,37.1335647 16.2547288,36.9742705 17.3941369,36.3337708 C17.4936968,35.160991 18.0147545,34.0644705 18.8602924,33.2483742 C13.7432829,32.6716473 8.39629538,30.6818473 8.39629538,21.8580182 C8.36397821,19.5652878 9.20739391,17.3470389 10.7535694,15.6582042 C10.0504849,13.6655423 10.1327507,11.4787423 10.9835474,9.54489918 C10.9835474,9.54489918 12.9095438,8.93931288 17.3079412,11.9094794 C21.0710431,10.8713094 25.0437372,10.8713094 28.806839,11.9094794 C33.2051215,8.9104996 35.1312329,9.54489918 35.1312329,9.54489918 C35.982145,11.4787155 36.0644125,13.6655602 35.3612108,15.6582042 C36.9120423,17.3441484 37.7561944,19.564334 37.7184849,21.8580182 C37.7184849,30.7107067 32.3427041,32.6716473 27.2257406,33.2483742 C28.336287,34.3774629 28.9028084,35.9349635 28.7780918,37.5161532 C28.7780918,40.6016882 28.7493216,43.0815215 28.7493216,43.8601489 C28.7493216,44.4657352 29.1805302,45.1866208 30.33042,44.95593 C41.0111617,41.3485442 47.5153422,30.5121007 45.6961446,19.3555019 C43.876947,8.19890308 34.2698179,0.00588375885 22.9998956,0 Z" id="Path"></path>
        </g>
        <path id="Line-4-Copy-19" d="M121,305 L130,309.5 L121,314 L121,310 L108,310 L108,309 L121,309 L121,305 Z" fill="#363636" fill-rule="nonzero"></path>
        <path id="Line-4-Copy-23" d="M681,305 L690,309.5 L681,314 L681,310 L668,310 L668,309 L681,309 L681,305 Z" fill="#363636" fill-rule="nonzero"></path>
        <g id="Rectangle-Copy-20">
            <use fill="black" fill-opacity="1" filter="url(#filter-2)" xlink:href="#path-1"></use>
            <use fill="#E6E6E6" fill-rule="evenodd" xlink:href="#path-1"></use>
        </g>
        <g id="Rectangle-Copy-21">
            <use fill="black" fill-opacity="1" filter="url(#filter-4)" xlink:href="#path-3"></use>
            <use fill="#E6E6E6" fill-rule="evenodd" xlink:href="#path-3"></use>
        </g>
        <text id="Initial-Setting" font-family="Helvetica" font-size="18" font-weight="normal" fill="#363636">
            <tspan x="45" y="302">Initial </tspan>
            <tspan x="45" y="324">Setting</tspan>
        </text>
        <text id="Regular-Workflow" font-family="Helvetica" font-size="18" font-weight="normal" fill="#363636">
            <tspan x="696.482422" y="305">Regular</tspan>
            <tspan x="691.15625" y="327">Workflow</tspan>
        </text>
        <g id="Rectangle-Copy-19">
            <use fill="black" fill-opacity="1" filter="url(#filter-6)" xlink:href="#path-5"></use>
            <use fill-opacity="0.5" fill="#C5DDFF" fill-rule="evenodd" xlink:href="#path-5"></use>
        </g>
        <text id="Create-a-Local-Repos" font-family="Helvetica" font-size="18" font-weight="normal" fill="#0055C2">
            <tspan x="219" y="229">Create a Local Repository</tspan>
        </text>
        <text id="Set-Up-a-Remote-Repo" font-family="Helvetica" font-size="18" font-weight="normal" fill="#0055C2">
            <tspan x="219" y="337">Set Up a Remote Repository</tspan>
        </text>
        <text id="Link-the-Remote-Repo" font-family="Helvetica" font-size="18" font-weight="normal" fill="#0055C2">
            <tspan x="219" y="444">Link the Remote Repository with the Local Repository</tspan>
        </text>
        <g id="git-copy-6" transform="translate(216.000000, 384.000000)">
            <path d="M23.033769,5.61902877 C22.1601794,5.61902877 21.509695,6.04456406 21.509695,7.06882495 C21.509695,7.84042427 21.9383508,8.37614279 22.9868499,8.37614279 C23.8754409,8.37614279 24.4793253,7.85657181 24.4793253,7.03684648 C24.4793253,6.10788776 23.9389572,5.61902877 23.033769,5.61902877 L23.033769,5.61902877 Z M21.2875473,12.8505956 C21.0807201,13.1023074 20.8745312,13.36985 20.8745312,13.6855187 C20.8745312,14.3152729 21.6839661,14.5046108 22.7963007,14.5046108 C23.7171287,14.5046108 24.9718166,14.4406538 24.9718166,13.5911663 C24.9718166,13.0861598 24.3679322,13.0551312 23.6054164,13.0076384 L21.2875473,12.8505956 Z M25.9874404,5.66652155 C26.2731045,6.02904975 26.5753659,6.53310642 26.5753659,7.2578462 C26.5753659,9.00621364 25.1936452,10.0301579 23.1930387,10.0301579 C22.6842693,10.0301579 22.2236958,9.96746745 21.9380316,9.88862944 L21.4139417,10.7235525 L22.9699335,10.8175882 C25.7174159,10.9914117 27.3369241,11.0702497 27.3369241,13.1646812 C27.3369241,14.976689 25.7333748,16 22.9699335,16 C20.0954182,16 19,15.2752602 19,14.0312661 C19,13.3220406 19.3179011,12.944948 19.8735896,12.4241105 C19.3491805,12.2043773 19.1749094,11.8108204 19.1749094,11.3852852 C19.1749094,11.0385879 19.3494997,10.7235525 19.635483,10.4240313 C19.9214663,10.1251435 20.2390482,9.82530573 20.6198273,9.47892508 C19.8416719,9.10088257 19.2543847,8.28179048 19.2543847,7.11568449 C19.2543847,5.30430997 20.461196,4.06031583 22.8907774,4.06031583 C23.5738178,4.06031583 23.9871531,4.12268967 24.3519733,4.21799185 L27.4489555,4.21799185 L27.4489555,5.55665493 L25.9874404,5.66652155 L25.9874404,5.66652155 Z M30.2427188,2.80429018 C29.3372113,2.80429018 28.8131214,2.28408596 28.8131214,1.38583924 C28.8131214,0.488858986 29.3372113,0 30.2427188,0 C31.1638659,0 31.6876368,0.488542368 31.6876368,1.38583924 C31.6879558,2.28408596 31.1638659,2.80429018 30.2427188,2.80429018 Z M28.1935973,12.2711838 L28.1935973,11.0271896 L29.0039897,10.9170064 C29.2261375,10.8853445 29.2577361,10.8381684 29.2577361,10.6013377 L29.2577361,5.97015871 C29.2577361,5.797285 29.2104978,5.68646852 29.051228,5.63960898 L28.1935973,5.34008786 L28.3681875,4.06474849 L31.656038,4.06474849 L31.656038,10.6016543 C31.656038,10.8543159 31.6713586,10.8853445 31.9101036,10.917323 L32.7201768,11.0275062 L32.7201768,12.2715004 L28.1935973,12.2715004 L28.1935973,12.2711838 Z M39,11.66011 C38.3166403,11.9903431 37.3166563,12.2901809 36.4108297,12.2901809 C34.5212971,12.2901809 33.8069772,11.5347291 33.8069772,9.75374995 L33.8069772,5.62662762 C33.8069772,5.53259192 33.8069772,5.46926822 33.6796253,5.46926822 L32.5682482,5.46926822 L32.5682482,4.06728143 C33.9662469,3.9092888 34.5216163,3.21621087 34.6962066,1.49918867 L36.2052792,1.49918867 L36.2052792,3.73673171 C36.2052792,3.84659833 36.2052792,3.89440773 36.332312,3.89440773 L38.5713442,3.89440773 L38.5713442,5.46958483 L36.2052792,5.46958483 L36.2052792,9.23417897 C36.2052792,10.1634543 36.4277461,10.5256659 37.2850577,10.5256659 C37.7303107,10.5256659 38.1902459,10.4157993 38.5713442,10.2739542 L39,11.66011 L39,11.66011 Z" id="Shape" fill="#31251C" fill-rule="nonzero"></path>
            <path d="M16.6791914,7.74271155 L9.25679177,0.320566954 C8.82969954,-0.106855651 8.136368,-0.106855651 7.70894949,0.320566954 L6.16763269,1.86189855 L8.12233823,3.81694912 C8.57716372,3.66359903 9.09789649,3.76637622 9.46006026,4.12886974 C9.82418168,4.49332092 9.92630533,5.01862657 9.76904143,5.47476153 L11.6532719,7.35901004 C12.1087499,7.2020709 12.6350293,7.30354298 12.9991507,7.66799417 C13.5081376,8.17665969 13.5081376,9.00116116 12.9991507,9.51015297 C12.4898375,10.0191448 11.6656703,10.0191448 11.1566833,9.51015297 C10.7739643,9.12710401 10.679345,8.56492908 10.8731515,8.09345911 L9.11584155,6.33613228 L9.11551527,10.9607796 C9.23982554,11.0221196 9.35663151,11.1036888 9.46006026,11.2067923 C9.96904718,11.7154578 9.96904718,12.539633 9.46006026,13.0492774 C8.95107334,13.5579429 8.12625351,13.5579429 7.61791914,13.0492774 C7.10893222,12.539633 7.10893222,11.7154578 7.61791914,11.2067923 C7.74386078,11.0811757 7.88905256,10.9862292 8.04435882,10.9226052 L8.04435882,6.25521563 C7.88905256,6.19191793 7.74386078,6.09729766 7.61791914,5.97102854 C7.23226367,5.58569564 7.13960195,5.02025795 7.33732379,4.54683032 L5.41035151,2.61918699 L0.320808583,7.70845249 C-0.106936194,8.13620137 -0.106936194,8.82953957 0.320808583,9.25728845 L7.74320823,16.679433 C8.17062673,17.1068557 8.863632,17.1068557 9.29170305,16.679433 L16.6791914,9.29122123 C17.1069362,8.86379863 17.1069362,8.17013416 16.6791914,7.74271155 L16.6791914,7.74271155 Z" id="Path" fill="#F34F29" fill-rule="nonzero"></path>
            <polygon id="Path" points="5.54933649e-16 0 39 0 39 17 0 17"></polygon>
        </g>
        <g id="git-copy-7" transform="translate(216.000000, 171.000000)">
            <path d="M23.033769,5.61902877 C22.1601794,5.61902877 21.509695,6.04456406 21.509695,7.06882495 C21.509695,7.84042427 21.9383508,8.37614279 22.9868499,8.37614279 C23.8754409,8.37614279 24.4793253,7.85657181 24.4793253,7.03684648 C24.4793253,6.10788776 23.9389572,5.61902877 23.033769,5.61902877 L23.033769,5.61902877 Z M21.2875473,12.8505956 C21.0807201,13.1023074 20.8745312,13.36985 20.8745312,13.6855187 C20.8745312,14.3152729 21.6839661,14.5046108 22.7963007,14.5046108 C23.7171287,14.5046108 24.9718166,14.4406538 24.9718166,13.5911663 C24.9718166,13.0861598 24.3679322,13.0551312 23.6054164,13.0076384 L21.2875473,12.8505956 Z M25.9874404,5.66652155 C26.2731045,6.02904975 26.5753659,6.53310642 26.5753659,7.2578462 C26.5753659,9.00621364 25.1936452,10.0301579 23.1930387,10.0301579 C22.6842693,10.0301579 22.2236958,9.96746745 21.9380316,9.88862944 L21.4139417,10.7235525 L22.9699335,10.8175882 C25.7174159,10.9914117 27.3369241,11.0702497 27.3369241,13.1646812 C27.3369241,14.976689 25.7333748,16 22.9699335,16 C20.0954182,16 19,15.2752602 19,14.0312661 C19,13.3220406 19.3179011,12.944948 19.8735896,12.4241105 C19.3491805,12.2043773 19.1749094,11.8108204 19.1749094,11.3852852 C19.1749094,11.0385879 19.3494997,10.7235525 19.635483,10.4240313 C19.9214663,10.1251435 20.2390482,9.82530573 20.6198273,9.47892508 C19.8416719,9.10088257 19.2543847,8.28179048 19.2543847,7.11568449 C19.2543847,5.30430997 20.461196,4.06031583 22.8907774,4.06031583 C23.5738178,4.06031583 23.9871531,4.12268967 24.3519733,4.21799185 L27.4489555,4.21799185 L27.4489555,5.55665493 L25.9874404,5.66652155 L25.9874404,5.66652155 Z M30.2427188,2.80429018 C29.3372113,2.80429018 28.8131214,2.28408596 28.8131214,1.38583924 C28.8131214,0.488858986 29.3372113,0 30.2427188,0 C31.1638659,0 31.6876368,0.488542368 31.6876368,1.38583924 C31.6879558,2.28408596 31.1638659,2.80429018 30.2427188,2.80429018 Z M28.1935973,12.2711838 L28.1935973,11.0271896 L29.0039897,10.9170064 C29.2261375,10.8853445 29.2577361,10.8381684 29.2577361,10.6013377 L29.2577361,5.97015871 C29.2577361,5.797285 29.2104978,5.68646852 29.051228,5.63960898 L28.1935973,5.34008786 L28.3681875,4.06474849 L31.656038,4.06474849 L31.656038,10.6016543 C31.656038,10.8543159 31.6713586,10.8853445 31.9101036,10.917323 L32.7201768,11.0275062 L32.7201768,12.2715004 L28.1935973,12.2715004 L28.1935973,12.2711838 Z M39,11.66011 C38.3166403,11.9903431 37.3166563,12.2901809 36.4108297,12.2901809 C34.5212971,12.2901809 33.8069772,11.5347291 33.8069772,9.75374995 L33.8069772,5.62662762 C33.8069772,5.53259192 33.8069772,5.46926822 33.6796253,5.46926822 L32.5682482,5.46926822 L32.5682482,4.06728143 C33.9662469,3.9092888 34.5216163,3.21621087 34.6962066,1.49918867 L36.2052792,1.49918867 L36.2052792,3.73673171 C36.2052792,3.84659833 36.2052792,3.89440773 36.332312,3.89440773 L38.5713442,3.89440773 L38.5713442,5.46958483 L36.2052792,5.46958483 L36.2052792,9.23417897 C36.2052792,10.1634543 36.4277461,10.5256659 37.2850577,10.5256659 C37.7303107,10.5256659 38.1902459,10.4157993 38.5713442,10.2739542 L39,11.66011 L39,11.66011 Z" id="Shape" fill="#31251C" fill-rule="nonzero"></path>
            <path d="M16.6791914,7.74271155 L9.25679177,0.320566954 C8.82969954,-0.106855651 8.136368,-0.106855651 7.70894949,0.320566954 L6.16763269,1.86189855 L8.12233823,3.81694912 C8.57716372,3.66359903 9.09789649,3.76637622 9.46006026,4.12886974 C9.82418168,4.49332092 9.92630533,5.01862657 9.76904143,5.47476153 L11.6532719,7.35901004 C12.1087499,7.2020709 12.6350293,7.30354298 12.9991507,7.66799417 C13.5081376,8.17665969 13.5081376,9.00116116 12.9991507,9.51015297 C12.4898375,10.0191448 11.6656703,10.0191448 11.1566833,9.51015297 C10.7739643,9.12710401 10.679345,8.56492908 10.8731515,8.09345911 L9.11584155,6.33613228 L9.11551527,10.9607796 C9.23982554,11.0221196 9.35663151,11.1036888 9.46006026,11.2067923 C9.96904718,11.7154578 9.96904718,12.539633 9.46006026,13.0492774 C8.95107334,13.5579429 8.12625351,13.5579429 7.61791914,13.0492774 C7.10893222,12.539633 7.10893222,11.7154578 7.61791914,11.2067923 C7.74386078,11.0811757 7.88905256,10.9862292 8.04435882,10.9226052 L8.04435882,6.25521563 C7.88905256,6.19191793 7.74386078,6.09729766 7.61791914,5.97102854 C7.23226367,5.58569564 7.13960195,5.02025795 7.33732379,4.54683032 L5.41035151,2.61918699 L0.320808583,7.70845249 C-0.106936194,8.13620137 -0.106936194,8.82953957 0.320808583,9.25728845 L7.74320823,16.679433 C8.17062673,17.1068557 8.863632,17.1068557 9.29170305,16.679433 L16.6791914,9.29122123 C17.1069362,8.86379863 17.1069362,8.17013416 16.6791914,7.74271155 L16.6791914,7.74271155 Z" id="Path" fill="#F34F29" fill-rule="nonzero"></path>
            <polygon id="Path" points="5.54933649e-16 0 39 0 39 17 0 17"></polygon>
        </g>
        <rect id="Rectangle-Copy-5" stroke="#0055C2" x="145.5" y="191.5" width="513" height="67" rx="3"></rect>
        <rect id="Rectangle-Copy-7" stroke="#0055C2" x="145.5" y="299.5" width="513" height="67" rx="3"></rect>
        <rect id="Rectangle-Copy-8" stroke="#0055C2" x="145.5" y="406.5" width="513" height="67" rx="3"></rect>
        <path id="Line-4-Copy-21" d="M370,259 L370,290 L374,290 L369.5,299 L365,290 L369,290 L369,259 L370,259 Z" fill="#0055C2" fill-rule="nonzero"></path>
        <path id="Line-4-Copy-22" d="M370,367 L370,398 L374,398 L369.5,407 L365,398 L369,398 L369,367 L370,367 Z" fill="#0055C2" fill-rule="nonzero"></path>
        <g id="github-copy-7" transform="translate(259.000000, 379.000000)" fill="#000000" fill-rule="nonzero">
            <path d="M10.9999501,0 C5.60542012,0.000229376862 1.00717063,4.01191956 0.143037236,9.47198947 C-0.721096158,14.9320594 2.40394208,20.2289279 7.52155549,21.9784096 C8.07150278,22.0771165 8.27773301,21.7387813 8.27773301,21.4426944 C8.27773301,21.174848 8.26397333,20.2866774 8.26397333,19.3421382 C5.50047721,19.8637443 4.78554573,18.6513813 4.56556682,18.0169818 C4.32147351,17.3999787 3.93453035,16.8532017 3.43817488,16.4239001 C3.05321177,16.2124336 2.50326449,15.6908162 3.42441519,15.6767409 C4.13825374,15.7561667 4.76943941,16.1876258 5.1155141,16.8327241 C5.41933951,17.3923846 5.92789374,17.8050471 6.52891442,17.9796172 C7.12993509,18.1541872 7.77400073,18.07631 8.31893506,17.7631768 C8.36655065,17.1898178 8.61575216,16.6537411 9.02013985,16.2547607 C6.57287442,15.9728054 4.01561953,15.0000142 4.01561953,10.6861422 C4.00016349,9.56525179 4.40353622,8.48077458 5.14301147,7.65512204 C4.80675367,6.68093181 4.84609817,5.61182955 5.25300093,4.66639515 C5.25300093,4.66639515 6.17412964,4.37033074 8.27771101,5.82241216 C10.0774554,5.31486239 11.9774395,5.31486239 13.7771839,5.82241216 C15.8807103,4.35624425 16.801894,4.66639515 16.801894,4.66639515 C17.208852,5.61181649 17.2481973,6.68094056 16.9118834,7.65512204 C17.6535854,8.47936143 18.0573104,9.56478553 18.0392754,10.6861422 C18.0392754,15.0141233 15.4682498,15.9728054 13.0210064,16.2547607 C13.5521373,16.8067597 13.8230823,17.5682044 13.7634352,18.3412304 C13.7634352,19.8497142 13.7496755,21.0620772 13.7496755,21.4427395 C13.7496755,21.7388039 13.9559058,22.0912368 14.505853,21.9784547 C19.6140338,20.2148438 22.7247289,14.917027 21.8546779,9.4626898 C20.9846268,4.00835262 16.3899129,0.00287650432 10.9999501,0 Z" id="Path"></path>
        </g>
        <g id="github-copy-8" transform="translate(216.000000, 274.000000)" fill="#000000" fill-rule="nonzero">
            <path d="M10.9999501,0 C5.60542012,0.000229376862 1.00717063,4.01191956 0.143037236,9.47198947 C-0.721096158,14.9320594 2.40394208,20.2289279 7.52155549,21.9784096 C8.07150278,22.0771165 8.27773301,21.7387813 8.27773301,21.4426944 C8.27773301,21.174848 8.26397333,20.2866774 8.26397333,19.3421382 C5.50047721,19.8637443 4.78554573,18.6513813 4.56556682,18.0169818 C4.32147351,17.3999787 3.93453035,16.8532017 3.43817488,16.4239001 C3.05321177,16.2124336 2.50326449,15.6908162 3.42441519,15.6767409 C4.13825374,15.7561667 4.76943941,16.1876258 5.1155141,16.8327241 C5.41933951,17.3923846 5.92789374,17.8050471 6.52891442,17.9796172 C7.12993509,18.1541872 7.77400073,18.07631 8.31893506,17.7631768 C8.36655065,17.1898178 8.61575216,16.6537411 9.02013985,16.2547607 C6.57287442,15.9728054 4.01561953,15.0000142 4.01561953,10.6861422 C4.00016349,9.56525179 4.40353622,8.48077458 5.14301147,7.65512204 C4.80675367,6.68093181 4.84609817,5.61182955 5.25300093,4.66639515 C5.25300093,4.66639515 6.17412964,4.37033074 8.27771101,5.82241216 C10.0774554,5.31486239 11.9774395,5.31486239 13.7771839,5.82241216 C15.8807103,4.35624425 16.801894,4.66639515 16.801894,4.66639515 C17.208852,5.61181649 17.2481973,6.68094056 16.9118834,7.65512204 C17.6535854,8.47936143 18.0573104,9.56478553 18.0392754,10.6861422 C18.0392754,15.0141233 15.4682498,15.9728054 13.0210064,16.2547607 C13.5521373,16.8067597 13.8230823,17.5682044 13.7634352,18.3412304 C13.7634352,19.8497142 13.7496755,21.0620772 13.7496755,21.4427395 C13.7496755,21.7388039 13.9559058,22.0912368 14.505853,21.9784547 C19.6140338,20.2148438 22.7247289,14.917027 21.8546779,9.4626898 C20.9846268,4.00835262 16.3899129,0.00287650432 10.9999501,0 Z" id="Path"></path>
        </g>
        <text id="Launch-a-Git-Project" font-family="Helvetica-Bold, Helvetica" font-size="28" font-weight="bold" fill="#0055C2">
            <tspan x="262" y="131">Launch a Git Project</tspan>
        </text>
        <text id="Step-1" font-family="Helvetica-Bold, Helvetica" font-size="21" font-weight="bold" fill="#0055C2">
            <tspan x="149" y="186">Step 1</tspan>
        </text>
        <text id="Step-2" font-family="Helvetica-Bold, Helvetica" font-size="21" font-weight="bold" fill="#0055C2">
            <tspan x="148.695067" y="291">Step 2</tspan>
        </text>
        <text id="Step-3" font-family="Helvetica-Bold, Helvetica" font-size="21" font-weight="bold" fill="#0055C2">
            <tspan x="148.695067" y="398">Step 3</tspan>
        </text>
        <g id="bloovee-winner-logo" transform="translate(725.000000, 580.000000)">
            <path d="M13,13.7751507 C13,14.396312 13.4732558,14.8717809 14.0514961,14.8717809 C14.6474304,14.8717809 15.1204503,14.3968042 15.1204503,13.7751507 L15.1204503,2.09687626 C15.1204503,1.49368045 14.6474304,1 14.0514961,1 C13.4557977,1 13,1.49392656 13,2.09687626 L13,13.7751507 Z M21.7920364,15 C24.6483217,15 26.751078,12.7149437 26.751078,9.97312215 L26.751078,9.93645297 C26.751078,7.17641992 24.6657798,4.92778666 21.8269526,4.92778666 C18.9881254,4.92778666 16.885369,7.212843 16.885369,9.97312215 L16.885369,10.0095452 C16.885369,12.7516128 18.9706673,15 21.7920364,15 Z M21.8269526,13.0621935 C20.179994,13.0621935 19.0055834,11.6547366 19.0055834,9.97312215 L19.0055834,9.93645297 C19.0055834,8.25459244 20.0919958,6.86534709 21.7920364,6.86534709 C23.456689,6.86534709 24.6306277,8.27305008 24.6306277,9.97312215 L24.6306277,10.0095452 C24.6306277,11.6731942 23.5444513,13.0621935 21.8269526,13.0621935 Z M32.8092717,15 C35.665557,15 37.7683133,12.7149437 37.7683133,9.97312215 L37.7683133,9.93645297 C37.7683133,7.17641992 35.6830151,4.92778666 32.8441878,4.92778666 C30.0053606,4.92778666 27.9026043,7.212843 27.9026043,9.97312215 L27.9026043,10.0095452 C27.9026043,12.7516128 29.9879025,15 32.8092717,15 Z M32.8441878,13.0621935 C31.1969933,13.0621935 30.0228187,11.6547366 30.0228187,9.97312215 L30.0228187,9.93645297 C30.0228187,8.25459244 31.109231,6.86534709 32.8092717,6.86534709 C34.4739243,6.86534709 35.647863,8.27305008 35.647863,9.97312215 L35.647863,10.0095452 C35.647863,11.6731942 34.5614506,13.0621935 32.8441878,13.0621935 Z M44.1416963,13.9944275 L47.2261164,6.6096472 C47.2784906,6.49988574 47.3487948,6.28060893 47.3487948,6.07954366 C47.3487948,5.47610175 46.8929971,5.01933658 46.3147568,5.01933658 C45.7539746,5.01933658 45.4737015,5.40300947 45.3158709,5.78692847 L42.8976893,12.2215093 L40.5144239,5.82335156 C40.3393711,5.36634029 40.041404,5.01933658 39.4629278,5.01933658 C38.8846875,5.01933658 38.4116676,5.53098247 38.4116676,6.07954366 C38.4116676,6.28060893 38.4817358,6.46346265 38.534346,6.62785874 L41.6182943,13.9944275 C41.8638872,14.5796579 42.2491448,14.9633308 42.8273851,14.9633308 L42.9326055,14.9633308 C43.5108458,14.9633308 43.8965752,14.5612003 44.1416963,13.9944275 Z M50.0949054,9.27837643 C50.2876522,7.77961573 51.1987758,6.73762019 52.4956289,6.73762019 C53.8974665,6.73762019 54.7036056,7.8524619 54.8437422,9.27837643 L50.0949054,9.27837643 Z M56.070527,13.72027 C56.2281217,13.5558739 56.3508002,13.3181395 56.3508002,13.0439819 C56.3508002,12.5320899 55.9830006,12.1481709 55.5095089,12.1481709 C55.2641519,12.1481709 55.1242513,12.2215093 54.9664207,12.3492362 C54.3704864,12.8611282 53.6695676,13.1901665 52.7759021,13.1901665 C51.4089807,13.1901665 50.3402624,12.3128131 50.1123635,10.7409601 L55.9126964,10.7409601 C56.4560206,10.7409601 56.9115824,10.3021604 56.9115824,9.68050697 C56.9115824,7.45057746 55.4568987,4.92778666 52.513087,4.92778666 C49.8672425,4.92778666 47.9919132,7.19438536 47.9919132,9.95466451 L47.9919132,9.9913337 C47.9919132,12.9708897 50.0597533,15 52.7409859,15 C54.1779755,15 55.2292357,14.5063195 56.070527,13.72027 Z M60.1833231,9.27837643 C60.3763058,7.77961573 61.2871935,6.73762019 62.5842825,6.73762019 C63.9858841,6.73762019 64.7920233,7.8524619 64.9321598,9.27837643 L60.1833231,9.27837643 Z M66.1589447,13.72027 C66.3167752,13.5558739 66.4394537,13.3181395 66.4394537,13.0439819 C66.4394537,12.5320899 66.0714183,12.1481709 65.5981624,12.1481709 C65.3528055,12.1481709 65.2126689,12.2215093 65.0548383,12.3492362 C64.4591399,12.8611282 63.7582212,13.1901665 62.8643197,13.1901665 C61.4976342,13.1901665 60.4289159,12.3128131 60.2007812,10.7409601 L66.0011141,10.7409601 C66.5444382,10.7409601 67,10.3021604 67,9.68050697 C67,7.45057746 65.5455522,4.92778666 62.6015046,4.92778666 C59.9556601,4.92778666 58.0805667,7.19438536 58.0805667,9.95466451 L58.0805667,9.9913337 C58.0805667,12.9708897 60.1484069,15 62.8294035,15 C64.2663932,15 65.3178893,14.5063195 66.1589447,13.72027 L66.1589447,13.72027 Z" id="Fill-1" fill="#030060"></path>
            <g id="Group-4">
                <mask id="mask-8" fill="white">
                    <use xlink:href="#path-7"></use>
                </mask>
                <g id="Clip-3"></g>
                <path d="M8.68744595,14.5405413 C10.6544909,13.5649687 12,11.5915112 12,9.31636202 C12,6.07252388 9.26504479,3.44227578 5.89152197,3.44227578 C4.52034181,3.44227578 3.25480793,3.87689217 2.23537065,4.61058921 L2.23537065,1.05770107 C2.23537065,0.476155373 1.74046224,0 1.11695169,0 C0.493934821,0 0.0167986821,0.476630104 0.0167986821,1.05770107 L0.0167986821,1.80184219 L0,9.32158406 C-0.0041824725,11.2003327 0.951817666,12.865215 2.41753644,13.8939574 C2.4777647,13.9362085 2.55848043,13.9312238 2.6127846,13.8823265 C2.66758244,13.8334292 2.6779496,13.7558106 2.63746831,13.6950451 C0.724974359,10.8146136 1.16014819,5.53963813 5.89176881,5.53963813 C8.05899866,5.53963813 9.80709909,7.22944376 9.81623206,9.31351363 C9.82240299,10.8599505 9.11620201,12.0365717 8.19549958,12.7781018 C6.36026565,14.2561773 3.64974731,12.6382934 4.49738595,10.4697214 C4.5894562,10.2335427 4.71879884,9.9959397 4.88664808,9.76189723 L5.12361171,9.47705853 C5.19766284,9.39967734 5.25048599,9.29903433 5.2146946,9.19411874 C5.01401603,8.62800181 3.46832203,8.97526767 3.04005964,10.0315445 C3.34292878,9.79631524 3.65986763,9.66433998 3.96940137,9.71489885 C2.38890334,11.275815 3.44141679,13.9563846 5.46005069,14.7513219 C6.40494316,15.1232738 7.55964718,15.0976383 8.68744595,14.5405413" id="Fill-2" fill="url(#linearGradient-9)" mask="url(#mask-8)"></path>
            </g>
        </g>
        <g id="Group-Copy-2" transform="translate(167.000000, 211.000000)" fill-rule="nonzero">
            <path d="M29.1620764,4.6588577 C28.06551,1.59322362 21.3283863,0 14.6663699,0 C8.00435346,0 1.34233705,1.57812197 0.185684824,4.61355276 C0.0679668885,4.7927756 0.00527998711,5.0028474 0.00542733396,5.21761859 L0.00542733396,33.1028074 C-0.00180911132,33.1629949 -0.00180911132,33.2238396 0.00542733396,33.2840271 C0.00179115825,33.3368197 0.00179115825,33.3898018 0.00542733396,33.4425944 C0.00542733396,37.0896418 7.38096298,39 14.6663699,39 C21.9517768,39 29.312291,37.0896418 29.312291,33.4425944 C29.3159241,33.3923218 29.3159241,33.3418505 29.312291,33.2915779 C29.3201454,33.2289021 29.3201454,33.1654831 29.312291,33.1028074 L29.312291,5.21761859 C29.3161256,5.02078951 29.2640139,4.82694709 29.1620764,4.6588577 Z" id="Path" fill="url(#linearGradient-10)"></path>
            <path d="M14.9985967,0.684210526 C24.7129738,0.684210526 29.9927241,3.38973865 29.9927241,4.78007949 C30.0024253,4.82334552 30.0024253,4.86833219 29.9927241,4.91159822 C29.6746669,6.33951584 24.3858292,8.89473684 14.9985967,8.89473684 C5.61136413,8.89473684 0.322526447,6.31133325 0.00446919852,4.91159822 C-0.00148973284,4.87742825 -0.00148973284,4.84243204 0.00446919852,4.80826207 C0.00446919852,3.38973865 5.28421953,0.684210526 14.9985967,0.684210526 Z" id="Path" fill="#7BB2FF"></path>
        </g>
        <g id="star-copy-5" transform="translate(197.000000, 202.000000)" fill="url(#linearGradient-11)" fill-rule="nonzero">
            <path d="M8.03946209,9.97153632 C7.68369376,10.2375911 5.40091613,8.55101897 4.96372336,8.54732488 C4.52653059,8.54363398 2.21805926,10.1914181 1.86643586,9.91938437 C1.51481246,9.64735382 2.34146716,6.85316002 2.20972361,6.41669426 C2.077977,5.9802285 -0.132215462,4.19082243 0.00623995276,3.75663832 C0.144695368,3.32245741 2.9383711,3.28212274 3.29413943,3.01606729 C3.64990777,2.75001089 4.59240695,-0.0036897449 5.02959971,0 C5.46679248,0.00369748854 6.36672521,2.77296318 6.71834861,3.04499564 C7.06997201,3.31702811 9.86266187,3.40455837 9.99440543,3.84102094 C10.126152,4.27748669 7.88866344,6.02931908 7.75020803,6.46350319 C7.61175261,6.8976841 8.39523042,9.70547832 8.03946209,9.97153632 L8.03946209,9.97153632 Z" id="Path"></path>
        </g>
        <g id="star-copy-6" transform="translate(202.000000, 215.000000)" fill="url(#linearGradient-11)" fill-rule="nonzero">
            <path d="M8.03946209,9.97153632 C7.68369376,10.2375911 5.40091613,8.55101897 4.96372336,8.54732488 C4.52653059,8.54363398 2.21805926,10.1914181 1.86643586,9.91938437 C1.51481246,9.64735382 2.34146716,6.85316002 2.20972361,6.41669426 C2.077977,5.9802285 -0.132215462,4.19082243 0.00623995276,3.75663832 C0.144695368,3.32245741 2.9383711,3.28212274 3.29413943,3.01606729 C3.64990777,2.75001089 4.59240695,-0.0036897449 5.02959971,0 C5.46679248,0.00369748854 6.36672521,2.77296318 6.71834861,3.04499564 C7.06997201,3.31702811 9.86266187,3.40455837 9.99440543,3.84102094 C10.126152,4.27748669 7.88866344,6.02931908 7.75020803,6.46350319 C7.61175261,6.8976841 8.39523042,9.70547832 8.03946209,9.97153632 L8.03946209,9.97153632 Z" id="Path"></path>
        </g>
        <g id="star-copy-7" transform="translate(184.000000, 199.000000)" fill="url(#linearGradient-11)" fill-rule="nonzero">
            <path d="M8.03946209,9.97153632 C7.68369376,10.2375911 5.40091613,8.55101897 4.96372336,8.54732488 C4.52653059,8.54363398 2.21805926,10.1914181 1.86643586,9.91938437 C1.51481246,9.64735382 2.34146716,6.85316002 2.20972361,6.41669426 C2.077977,5.9802285 -0.132215462,4.19082243 0.00623995276,3.75663832 C0.144695368,3.32245741 2.9383711,3.28212274 3.29413943,3.01606729 C3.64990777,2.75001089 4.59240695,-0.0036897449 5.02959971,0 C5.46679248,0.00369748854 6.36672521,2.77296318 6.71834861,3.04499564 C7.06997201,3.31702811 9.86266187,3.40455837 9.99440543,3.84102094 C10.126152,4.27748669 7.88866344,6.02931908 7.75020803,6.46350319 C7.61175261,6.8976841 8.39523042,9.70547832 8.03946209,9.97153632 L8.03946209,9.97153632 Z" id="Path"></path>
        </g>
        <g id="star-copy-5" transform="translate(197.000000, 311.000000)" fill="url(#linearGradient-11)" fill-rule="nonzero">
            <path d="M8.03946209,9.97153632 C7.68369376,10.2375911 5.40091613,8.55101897 4.96372336,8.54732488 C4.52653059,8.54363398 2.21805926,10.1914181 1.86643586,9.91938437 C1.51481246,9.64735382 2.34146716,6.85316002 2.20972361,6.41669426 C2.077977,5.9802285 -0.132215462,4.19082243 0.00623995276,3.75663832 C0.144695368,3.32245741 2.9383711,3.28212274 3.29413943,3.01606729 C3.64990777,2.75001089 4.59240695,-0.0036897449 5.02959971,0 C5.46679248,0.00369748854 6.36672521,2.77296318 6.71834861,3.04499564 C7.06997201,3.31702811 9.86266187,3.40455837 9.99440543,3.84102094 C10.126152,4.27748669 7.88866344,6.02931908 7.75020803,6.46350319 C7.61175261,6.8976841 8.39523042,9.70547832 8.03946209,9.97153632 L8.03946209,9.97153632 Z" id="Path"></path>
        </g>
        <g id="star-copy-6" transform="translate(202.000000, 324.000000)" fill="url(#linearGradient-11)" fill-rule="nonzero">
            <path d="M8.03946209,9.97153632 C7.68369376,10.2375911 5.40091613,8.55101897 4.96372336,8.54732488 C4.52653059,8.54363398 2.21805926,10.1914181 1.86643586,9.91938437 C1.51481246,9.64735382 2.34146716,6.85316002 2.20972361,6.41669426 C2.077977,5.9802285 -0.132215462,4.19082243 0.00623995276,3.75663832 C0.144695368,3.32245741 2.9383711,3.28212274 3.29413943,3.01606729 C3.64990777,2.75001089 4.59240695,-0.0036897449 5.02959971,0 C5.46679248,0.00369748854 6.36672521,2.77296318 6.71834861,3.04499564 C7.06997201,3.31702811 9.86266187,3.40455837 9.99440543,3.84102094 C10.126152,4.27748669 7.88866344,6.02931908 7.75020803,6.46350319 C7.61175261,6.8976841 8.39523042,9.70547832 8.03946209,9.97153632 L8.03946209,9.97153632 Z" id="Path"></path>
        </g>
        <g id="star-copy-7" transform="translate(184.000000, 308.000000)" fill="url(#linearGradient-11)" fill-rule="nonzero">
            <path d="M8.03946209,9.97153632 C7.68369376,10.2375911 5.40091613,8.55101897 4.96372336,8.54732488 C4.52653059,8.54363398 2.21805926,10.1914181 1.86643586,9.91938437 C1.51481246,9.64735382 2.34146716,6.85316002 2.20972361,6.41669426 C2.077977,5.9802285 -0.132215462,4.19082243 0.00623995276,3.75663832 C0.144695368,3.32245741 2.9383711,3.28212274 3.29413943,3.01606729 C3.64990777,2.75001089 4.59240695,-0.0036897449 5.02959971,0 C5.46679248,0.00369748854 6.36672521,2.77296318 6.71834861,3.04499564 C7.06997201,3.31702811 9.86266187,3.40455837 9.99440543,3.84102094 C10.126152,4.27748669 7.88866344,6.02931908 7.75020803,6.46350319 C7.61175261,6.8976841 8.39523042,9.70547832 8.03946209,9.97153632 L8.03946209,9.97153632 Z" id="Path"></path>
        </g>
        <g id="Group-Copy-4" transform="translate(167.000000, 320.000000)" fill-rule="nonzero">
            <path d="M29.8402642,4.6588577 C28.7181963,1.59322362 21.8243953,0 15.0074482,0 C8.19050122,0 1.37355419,1.57812197 0.190003076,4.61355276 C0.0695475138,4.7927756 0.00540277751,5.0028474 0.00555355103,5.21761859 L0.00555355103,33.1028074 C-0.00185118368,33.1629949 -0.00185118368,33.2238396 0.00555355103,33.2840271 C0.00183281309,33.3368197 0.00183281309,33.3898018 0.00555355103,33.4425944 C0.00555355103,37.0896418 7.55261328,39 15.0074482,39 C22.4622832,39 29.9939721,37.0896418 29.9939721,33.4425944 C29.9976898,33.3923218 29.9976898,33.3418505 29.9939721,33.2915779 C30.0020093,33.2289021 30.0020093,33.1654831 29.9939721,33.1028074 L29.9939721,5.21761859 C29.997896,5.02078951 29.9445724,4.82694709 29.8402642,4.6588577 Z" id="Path" fill="url(#linearGradient-12)"></path>
            <path d="M14.9985967,0 C24.7129738,0 29.9927241,2.72602455 29.9927241,4.12689827 C30.0024253,4.17049208 30.0024253,4.21581955 29.9927241,4.25941336 C29.6746669,5.69814853 24.3858292,8.27272727 14.9985967,8.27272727 C5.61136413,8.27272727 0.322526447,5.66975244 0.00446919852,4.25941336 C-0.00148973284,4.22498453 -0.00148973284,4.18972319 0.00446919852,4.15529436 C0.00446919852,2.72602455 5.28421953,0 14.9985967,0 Z" id="Path" fill="#199ABD"></path>
        </g>
        <g id="Group-7" transform="translate(162.000000, 412.000000)">
            <g id="Group-Copy-5" transform="translate(24.000000, 0.000000)" fill-rule="nonzero">
                <path d="M19.8935095,3.10590513 C19.1454642,1.06214908 14.5495968,0 10.0049655,0 C5.46033415,0 0.915702796,1.05208132 0.126668717,3.07570184 C0.0463650092,3.19518374 0.00360185167,3.3352316 0.00370236735,3.47841239 L0.00370236735,22.0685382 C-0.00123412245,22.1086633 -0.00123412245,22.1492264 0.00370236735,22.1893514 C0.00122187539,22.2245464 0.00122187539,22.2598679 0.00370236735,22.2950629 C0.00370236735,24.7264279 5.03507552,26 10.0049655,26 C14.9748555,26 19.9959814,24.7264279 19.9959814,22.2950629 C19.9984599,22.2615479 19.9984599,22.2279003 19.9959814,22.1943853 C20.0013395,22.1526014 20.0013395,22.1103221 19.9959814,22.0685382 L19.9959814,3.47841239 C19.9985973,3.34719301 19.9630483,3.21796473 19.8935095,3.10590513 Z" id="Path" fill="url(#linearGradient-13)"></path>
                <path d="M9.99906443,0 C16.4753158,0 19.9951494,1.8173497 19.9951494,2.75126552 C20.0016169,2.78032805 20.0016169,2.81054637 19.9951494,2.8396089 C19.7831112,3.79876569 16.2572194,5.51515152 9.99906443,5.51515152 C3.74090942,5.51515152 0.215017632,3.77983496 0.00297946568,2.8396089 C-0.000993155226,2.81665635 -0.000993155226,2.79314879 0.00297946568,2.77019624 C0.00297946568,1.8173497 3.52281302,0 9.99906443,0 Z" id="Path" fill="#199ABD"></path>
            </g>
            <polyline id="Path-11-Copy" stroke="#FFAA1D" points="19 39 22.807904 26.6029331 22.807904 32.8014665 26.0445558 23.4898801 26.0445558 31.24494 29 19"></polyline>
            <g id="Group-Copy-2" transform="translate(0.000000, 32.000000)" fill-rule="nonzero">
                <path d="M19.8935095,3.10590513 C19.1454642,1.06214908 14.5495968,0 10.0049655,0 C5.46033415,0 0.915702796,1.05208132 0.126668717,3.07570184 C0.0463650092,3.19518374 0.00360185167,3.3352316 0.00370236735,3.47841239 L0.00370236735,22.0685382 C-0.00123412245,22.1086633 -0.00123412245,22.1492264 0.00370236735,22.1893514 C0.00122187539,22.2245464 0.00122187539,22.2598679 0.00370236735,22.2950629 C0.00370236735,24.7264279 5.03507552,26 10.0049655,26 C14.9748555,26 19.9959814,24.7264279 19.9959814,22.2950629 C19.9984599,22.2615479 19.9984599,22.2279003 19.9959814,22.1943853 C20.0013395,22.1526014 20.0013395,22.1103221 19.9959814,22.0685382 L19.9959814,3.47841239 C19.9985973,3.34719301 19.9630483,3.21796473 19.8935095,3.10590513 Z" id="Path" fill="url(#linearGradient-14)"></path>
                <path d="M9.99906443,0 C16.4753158,0 19.9951494,1.8173497 19.9951494,2.75126552 C20.0016169,2.78032805 20.0016169,2.81054637 19.9951494,2.8396089 C19.7831112,3.79876569 16.2572194,5.51515152 9.99906443,5.51515152 C3.74090942,5.51515152 0.215017632,3.77983496 0.00297946568,2.8396089 C-0.000993155226,2.81665635 -0.000993155226,2.79314879 0.00297946568,2.77019624 C0.00297946568,1.8173497 3.52281302,0 9.99906443,0 Z" id="Path" fill="#0055C2"></path>
            </g>
        </g>
    </g>
</svg>