<svg width="800" height="600" viewBox="0 0 800 600" fill="none" xmlns="http://www.w3.org/2000/svg">
<g clip-path="url(#clip0_5189_12457)">
<rect width="800" height="600" fill="url(#paint0_linear_5189_12457)"/>
<path d="M331.668 110.566C331.668 126.842 333.003 139.31 335.672 147.969C338.341 156.562 343.81 160.859 352.078 160.859C360.346 160.859 365.75 156.562 368.289 147.969C370.893 139.31 372.195 126.842 372.195 110.566C372.195 93.5091 370.893 80.8789 368.289 72.6758C365.75 64.4727 360.346 60.3711 352.078 60.3711C343.81 60.3711 338.341 64.4727 335.672 72.6758C333.003 80.8789 331.668 93.5091 331.668 110.566ZM352.078 37.4219C370.112 37.4219 382.742 43.7695 389.969 56.4648C397.26 69.1602 400.906 87.194 400.906 110.566C400.906 133.939 397.26 151.94 389.969 164.57C382.742 177.201 370.112 183.516 352.078 183.516C334.044 183.516 321.382 177.201 314.09 164.57C306.863 151.94 303.25 133.939 303.25 110.566C303.25 87.194 306.863 69.1602 314.09 56.4648C321.382 43.7695 334.044 37.4219 352.078 37.4219ZM441.336 142.109C442.443 148.164 444.559 152.852 447.684 156.172C450.809 159.427 455.366 161.055 461.355 161.055C468.257 161.055 473.497 158.646 477.078 153.828C480.724 148.945 482.547 142.826 482.547 135.469C482.547 128.242 480.854 122.155 477.469 117.207C474.083 112.194 468.81 109.688 461.648 109.688C458.263 109.688 455.333 110.111 452.859 110.957C448.497 112.52 445.21 115.417 442.996 119.648L417.996 118.477L427.957 40.2539H505.984V63.8867H448.074L442.996 94.8438C447.293 92.0443 450.646 90.1888 453.055 89.2773C457.091 87.7799 462.007 87.0312 467.801 87.0312C479.52 87.0312 489.741 90.9701 498.465 98.8477C507.189 106.725 511.551 118.184 511.551 133.223C511.551 146.309 507.352 157.995 498.953 168.281C490.555 178.568 477.99 183.711 461.258 183.711C447.781 183.711 436.714 180.098 428.055 172.871C419.396 165.645 414.578 155.391 413.602 142.109H441.336Z" fill="white" fill-opacity="0.5"/>
<path d="M340.672 333.617H310.203V345.844H338.172V355.844H310.203V370.648H342.078V381H298.445V323.422H340.672V333.617ZM366.258 337.406C368.836 337.406 371.128 337.979 373.133 339.125C375.138 340.245 376.766 341.807 378.016 343.812V323.5H389.305V381H378.484V375.102C376.896 377.628 375.086 379.464 373.055 380.609C371.023 381.755 368.497 382.328 365.477 382.328C360.503 382.328 356.31 380.323 352.898 376.312C349.513 372.276 347.82 367.107 347.82 360.805C347.82 353.539 349.487 347.823 352.82 343.656C356.18 339.49 360.659 337.406 366.258 337.406ZM368.68 372.953C371.831 372.953 374.227 371.781 375.867 369.438C377.508 367.094 378.328 364.06 378.328 360.336C378.328 355.128 377.013 351.404 374.383 349.164C372.768 347.81 370.893 347.133 368.758 347.133C365.503 347.133 363.107 348.37 361.57 350.844C360.06 353.292 359.305 356.339 359.305 359.984C359.305 363.917 360.073 367.068 361.609 369.438C363.172 371.781 365.529 372.953 368.68 372.953ZM410.906 333.344H399.617V323.07H410.906V333.344ZM399.617 338.422H410.906V381H399.617V338.422ZM417.352 346.742V338.812H423.289V326.938H434.305V338.812H441.219V346.742H434.305V369.242C434.305 370.987 434.526 372.081 434.969 372.523C435.411 372.94 436.766 373.148 439.031 373.148C439.37 373.148 439.721 373.148 440.086 373.148C440.477 373.122 440.854 373.096 441.219 373.07V381.391L435.945 381.586C430.685 381.768 427.091 380.857 425.164 378.852C423.914 377.576 423.289 375.609 423.289 372.953V346.742H417.352ZM469.773 365.805C469.773 362.341 470.633 359.372 472.352 356.898C474.07 354.424 476.883 351.977 480.789 349.555L482 348.812C480.333 346.938 479.044 345.023 478.133 343.07C477.221 341.117 476.766 339.086 476.766 336.977C476.766 332.784 478.172 329.516 480.984 327.172C483.797 324.802 487.443 323.617 491.922 323.617C496.01 323.617 499.383 324.828 502.039 327.25C504.721 329.646 506.062 332.719 506.062 336.469C506.062 339.854 505.255 342.602 503.641 344.711C502.052 346.82 499.708 348.773 496.609 350.57L504.773 360.648C505.711 359.294 506.427 357.823 506.922 356.234C507.443 354.646 507.716 352.966 507.742 351.195H517.625C517.469 354.685 516.635 358.214 515.125 361.781C514.292 363.786 512.938 366 511.062 368.422L521.531 381H508.016L504.031 376.117C502.104 377.914 500.307 379.242 498.641 380.102C495.672 381.638 492.247 382.406 488.367 382.406C482.534 382.406 477.977 380.688 474.695 377.25C471.414 373.812 469.773 369.997 469.773 365.805ZM487 336.586C487 337.628 487.365 338.721 488.094 339.867C488.562 340.622 489.578 341.964 491.141 343.891C492.703 342.797 493.823 341.872 494.5 341.117C495.802 339.711 496.453 338.188 496.453 336.547C496.453 335.349 496.062 334.281 495.281 333.344C494.5 332.406 493.315 331.938 491.727 331.938C490.737 331.938 489.812 332.211 488.953 332.758C487.651 333.565 487 334.841 487 336.586ZM480.867 365.453C480.867 367.354 481.635 369.099 483.172 370.688C484.734 372.276 486.727 373.07 489.148 373.07C490.971 373.07 492.69 372.654 494.305 371.82C495.945 370.961 497.273 370.01 498.289 368.969L487.742 355.922C484.956 357.771 483.107 359.398 482.195 360.805C481.31 362.211 480.867 363.76 480.867 365.453ZM295.594 444.68C295.594 434.628 298.289 426.88 303.68 421.438C308.367 416.698 314.331 414.328 321.57 414.328C331.258 414.328 338.341 417.505 342.82 423.859C345.294 427.427 346.622 431.008 346.805 434.602H334.773C333.992 431.841 332.99 429.758 331.766 428.352C329.578 425.852 326.336 424.602 322.039 424.602C317.664 424.602 314.214 426.372 311.688 429.914C309.161 433.43 307.898 438.417 307.898 444.875C307.898 451.333 309.227 456.177 311.883 459.406C314.565 462.609 317.964 464.211 322.078 464.211C326.297 464.211 329.513 462.831 331.727 460.07C332.951 458.586 333.966 456.359 334.773 453.391H346.688C345.646 459.667 342.977 464.771 338.68 468.703C334.409 472.635 328.927 474.602 322.234 474.602C313.953 474.602 307.443 471.945 302.703 466.633C297.964 461.294 295.594 453.977 295.594 444.68ZM374.109 465.148C377.365 465.148 379.865 463.99 381.609 461.672C383.354 459.354 384.227 456.06 384.227 451.789C384.227 447.518 383.354 444.237 381.609 441.945C379.865 439.628 377.365 438.469 374.109 438.469C370.854 438.469 368.341 439.628 366.57 441.945C364.826 444.237 363.953 447.518 363.953 451.789C363.953 456.06 364.826 459.354 366.57 461.672C368.341 463.99 370.854 465.148 374.109 465.148ZM395.906 451.789C395.906 458.039 394.109 463.391 390.516 467.844C386.922 472.271 381.466 474.484 374.148 474.484C366.831 474.484 361.375 472.271 357.781 467.844C354.188 463.391 352.391 458.039 352.391 451.789C352.391 445.643 354.188 440.318 357.781 435.812C361.375 431.307 366.831 429.055 374.148 429.055C381.466 429.055 386.922 431.307 390.516 435.812C394.109 440.318 395.906 445.643 395.906 451.789ZM451.492 429.484C453.367 429.484 455.216 429.849 457.039 430.578C458.862 431.307 460.516 432.583 462 434.406C463.198 435.891 464.005 437.714 464.422 439.875C464.682 441.307 464.812 443.404 464.812 446.164L464.734 473H453.328V445.891C453.328 444.276 453.068 442.948 452.547 441.906C451.557 439.927 449.734 438.938 447.078 438.938C444.005 438.938 441.883 440.214 440.711 442.766C440.112 444.12 439.812 445.747 439.812 447.648V473H428.602V447.648C428.602 445.122 428.341 443.286 427.82 442.141C426.883 440.083 425.047 439.055 422.312 439.055C419.135 439.055 417 440.083 415.906 442.141C415.307 443.312 415.008 445.057 415.008 447.375V473H403.719V430.5H414.539V436.711C415.919 434.497 417.221 432.922 418.445 431.984C420.607 430.318 423.406 429.484 426.844 429.484C430.099 429.484 432.729 430.201 434.734 431.633C436.349 432.961 437.573 434.667 438.406 436.75C439.865 434.25 441.674 432.414 443.836 431.242C446.128 430.07 448.68 429.484 451.492 429.484ZM522.664 429.484C524.539 429.484 526.388 429.849 528.211 430.578C530.034 431.307 531.688 432.583 533.172 434.406C534.37 435.891 535.177 437.714 535.594 439.875C535.854 441.307 535.984 443.404 535.984 446.164L535.906 473H524.5V445.891C524.5 444.276 524.24 442.948 523.719 441.906C522.729 439.927 520.906 438.938 518.25 438.938C515.177 438.938 513.055 440.214 511.883 442.766C511.284 444.12 510.984 445.747 510.984 447.648V473H499.773V447.648C499.773 445.122 499.513 443.286 498.992 442.141C498.055 440.083 496.219 439.055 493.484 439.055C490.307 439.055 488.172 440.083 487.078 442.141C486.479 443.312 486.18 445.057 486.18 447.375V473H474.891V430.5H485.711V436.711C487.091 434.497 488.393 432.922 489.617 431.984C491.779 430.318 494.578 429.484 498.016 429.484C501.271 429.484 503.901 430.201 505.906 431.633C507.521 432.961 508.745 434.667 509.578 436.75C511.036 434.25 512.846 432.414 515.008 431.242C517.299 430.07 519.852 429.484 522.664 429.484ZM557.703 425.344H546.414V415.07H557.703V425.344ZM546.414 430.422H557.703V473H546.414V430.422ZM564.148 438.742V430.812H570.086V418.938H581.102V430.812H588.016V438.742H581.102V461.242C581.102 462.987 581.323 464.081 581.766 464.523C582.208 464.94 583.562 465.148 585.828 465.148C586.167 465.148 586.518 465.148 586.883 465.148C587.273 465.122 587.651 465.096 588.016 465.07V473.391L582.742 473.586C577.482 473.768 573.888 472.857 571.961 470.852C570.711 469.576 570.086 467.609 570.086 464.953V438.742H564.148Z" fill="white" fill-opacity="0.8"/>
<circle cx="73" cy="300" r="173" fill="white"/>
<circle cx="132.5" cy="111.5" r="19.5" fill="white"/>
<circle cx="172" cy="76" r="10" fill="white"/>
<circle cx="212.5" cy="60.5" r="7.5" fill="white"/>
<circle cx="246.5" cy="56.5" r="5.5" fill="white"/>
<circle cx="270.5" cy="62.5" r="4.5" fill="white"/>
<circle cx="288.5" cy="76.5" r="3.5" fill="white"/>
<path d="M42.1621 368.176C41.752 366.406 40.75 365.17 39.1562 364.467C38.2656 364.08 37.2754 363.887 36.1855 363.887C34.0996 363.887 32.3828 364.678 31.0352 366.26C29.6992 367.83 29.0312 370.197 29.0312 373.361C29.0312 376.549 29.7578 378.805 31.2109 380.129C32.6641 381.453 34.3164 382.115 36.168 382.115C37.9844 382.115 39.4727 381.594 40.6328 380.551C41.793 379.496 42.5078 378.119 42.7773 376.42H36.7832V372.096H47.5762V386H43.9902L43.4453 382.766C42.4023 383.996 41.4648 384.863 40.6328 385.367C39.2031 386.246 37.4453 386.686 35.3594 386.686C31.9258 386.686 29.1133 385.496 26.9219 383.117C24.6367 380.727 23.4941 377.457 23.4941 373.309C23.4941 369.113 24.6484 365.75 26.957 363.219C29.2656 360.688 32.3184 359.422 36.1152 359.422C39.4082 359.422 42.0508 360.26 44.043 361.936C46.0469 363.6 47.1953 365.68 47.4883 368.176H42.1621ZM57.5078 364.555H52.4277V359.932H57.5078V364.555ZM52.4277 366.84H57.5078V386H52.4277V366.84ZM60.4082 370.584V367.016H63.0801V361.672H68.0371V367.016H71.1484V370.584H68.0371V380.709C68.0371 381.494 68.1367 381.986 68.3359 382.186C68.5352 382.373 69.1445 382.467 70.1641 382.467C70.3164 382.467 70.4746 382.467 70.6387 382.467C70.8145 382.455 70.9844 382.443 71.1484 382.432V386.176L68.7754 386.264C66.4082 386.346 64.791 385.936 63.9238 385.033C63.3613 384.459 63.0801 383.574 63.0801 382.379V370.584H60.4082ZM74.7344 386V360.09H80.0957V369.969H90.2207V360.09H95.5996V386H90.2207V374.434H80.0957V386H74.7344ZM105.373 366.84V378.389C105.373 379.479 105.502 380.299 105.76 380.85C106.217 381.822 107.113 382.309 108.449 382.309C110.16 382.309 111.332 381.617 111.965 380.234C112.293 379.484 112.457 378.494 112.457 377.264V366.84H117.537V386H112.668V383.293C112.621 383.352 112.504 383.527 112.316 383.82C112.129 384.113 111.906 384.371 111.648 384.594C110.863 385.297 110.102 385.777 109.363 386.035C108.637 386.293 107.781 386.422 106.797 386.422C103.961 386.422 102.051 385.402 101.066 383.363C100.516 382.238 100.24 380.58 100.24 378.389V366.84H105.373ZM132.742 366.418C135.262 366.418 137.23 367.326 138.648 369.143C140.078 370.959 140.793 373.303 140.793 376.174C140.793 379.15 140.09 381.617 138.684 383.574C137.277 385.531 135.314 386.51 132.795 386.51C131.213 386.51 129.941 386.193 128.98 385.561C128.406 385.186 127.785 384.529 127.117 383.592V386H122.213V360.125H127.205V369.336C127.838 368.445 128.535 367.766 129.297 367.297C130.199 366.711 131.348 366.418 132.742 366.418ZM131.459 382.379C132.748 382.379 133.75 381.857 134.465 380.814C135.18 379.771 135.537 378.4 135.537 376.701C135.537 375.342 135.361 374.217 135.01 373.326C134.342 371.639 133.111 370.795 131.318 370.795C129.502 370.795 128.254 371.621 127.574 373.273C127.223 374.152 127.047 375.289 127.047 376.684C127.047 378.324 127.41 379.684 128.137 380.762C128.863 381.84 129.971 382.379 131.459 382.379Z" fill="#363636"/>
<path fill-rule="evenodd" clip-rule="evenodd" d="M97.5328 219.551C97.5328 221.853 98.843 223.186 101.107 223.186C103.41 223.186 104.72 221.853 104.719 219.551C104.719 217.252 103.41 216 101.107 216C98.843 216 97.5328 217.253 97.5328 219.551ZM90.4686 230.52C91.1828 231.449 91.9384 232.741 91.9384 234.598C91.9384 239.078 88.4841 241.702 83.4826 241.702C82.2107 241.702 81.0592 241.542 80.3451 241.34L79.0349 243.479L82.9248 243.72L83.1521 243.735C89.8828 244.171 93.8423 244.427 93.8423 249.734C93.8423 254.378 89.8334 257 82.9248 257C75.7385 257 73 255.143 73 251.955C73 250.138 73.7948 249.171 75.184 247.837C73.873 247.274 73.4373 246.265 73.4373 245.175C73.4373 244.286 73.8737 243.479 74.5887 242.712C75.3037 241.946 76.0976 241.177 77.0496 240.29C75.1042 239.321 73.636 237.222 73.636 234.234C73.636 229.592 76.653 226.405 82.7269 226.405C84.4345 226.405 85.4679 226.564 86.3799 226.809H94.1224V230.239L90.4686 230.52ZM79.2742 234.114C79.2742 231.489 80.9004 230.399 83.0844 230.399C85.3474 230.399 86.6983 231.651 86.6983 234.032C86.6983 236.132 85.1886 237.464 82.9671 237.464C80.3459 237.464 79.2742 236.091 79.2742 234.114ZM77.6863 251.069C77.6863 250.26 78.2018 249.575 78.7189 248.93L84.5135 249.332L84.5862 249.337C86.4581 249.456 87.9295 249.55 87.9295 250.827C87.9295 253.004 84.7928 253.168 82.4908 253.168C79.7099 253.168 77.6863 252.683 77.6863 251.069ZM95.984 247.445V244.257L98.01 243.975C98.5653 243.894 98.6443 243.773 98.6443 243.166V231.299C98.6443 230.856 98.5262 230.572 98.1281 230.451L95.984 229.684L96.4205 226.416H104.64V243.167C104.64 243.814 104.678 243.894 105.275 243.976L107.3 244.258V247.446H95.984V247.445ZM116.527 247.494C118.792 247.494 121.292 246.725 123 245.879L121.928 242.327C120.976 242.69 119.826 242.972 118.713 242.972C116.569 242.972 116.013 242.044 116.013 239.663V230.016H121.928V225.979H116.331C116.013 225.979 116.013 225.857 116.013 225.575V219.842H112.241C111.804 224.242 110.416 226.018 106.921 226.422V230.015H109.699C110.017 230.015 110.017 230.177 110.017 230.418V240.994C110.017 245.558 111.803 247.494 116.527 247.494Z" fill="#31251C"/>
<path d="M63.2074 235.129L44.8697 216.792C43.8146 215.736 42.1016 215.736 41.0456 216.792L37.2377 220.6L42.067 225.43C43.1906 225.051 44.4772 225.305 45.3719 226.201C46.2715 227.101 46.5238 228.399 46.1353 229.526L50.7904 234.181C51.9157 233.793 53.216 234.044 54.1155 234.944C55.373 236.201 55.373 238.238 54.1155 239.496C52.8572 240.753 50.8211 240.753 49.5636 239.496C48.618 238.549 48.3843 237.16 48.8631 235.996L44.5215 231.654L44.5207 243.08C44.8278 243.231 45.1164 243.433 45.3719 243.687C46.6294 244.944 46.6294 246.98 45.3719 248.239C44.1144 249.496 42.0766 249.496 40.8207 248.239C39.5632 246.98 39.5632 244.944 40.8207 243.687C41.1319 243.377 41.4906 243.142 41.8743 242.985V231.454C41.4906 231.298 41.1319 231.064 40.8207 230.752C39.8679 229.8 39.639 228.403 40.1275 227.233L35.3668 222.471L22.7926 235.044C21.7358 236.101 21.7358 237.814 22.7926 238.871L41.1303 257.208C42.1863 258.264 43.8984 258.264 44.956 257.208L63.2074 238.955C64.2642 237.899 64.2642 236.185 63.2074 235.129V235.129Z" fill="#F34F29"/>
<path d="M84.4999 291C70.5231 291.001 58.6095 301.212 56.3706 315.111C54.1317 329.009 62.2284 342.492 75.4877 346.945C76.9125 347.196 77.4469 346.335 77.4469 345.581C77.4469 344.9 77.4112 342.639 77.4112 340.235C70.2512 341.562 68.3989 338.476 67.829 336.861C67.1965 335.291 66.194 333.899 64.908 332.806C63.9106 332.268 62.4857 330.94 64.8723 330.904C66.7218 331.107 68.3572 332.205 69.2538 333.847C70.041 335.272 71.3586 336.322 72.9158 336.766C74.473 337.211 76.1417 337.012 77.5536 336.215C77.677 334.756 78.3226 333.391 79.3704 332.376C73.0297 331.658 66.4041 329.182 66.4041 318.201C66.3641 315.348 67.4092 312.587 69.3251 310.486C68.4539 308.006 68.5558 305.285 69.61 302.878C69.61 302.878 71.9966 302.124 77.4468 305.821C82.1098 304.529 87.0325 304.529 91.6954 305.821C97.1455 302.089 99.5322 302.878 99.5322 302.878C100.587 305.285 100.689 308.006 99.8172 310.486C101.739 312.584 102.785 315.347 102.738 318.201C102.738 329.218 96.0768 331.658 89.7362 332.376C91.1124 333.781 91.8143 335.719 91.6598 337.687C91.6598 341.527 91.6242 344.613 91.6242 345.582C91.6242 346.335 92.1585 347.232 93.5833 346.945C106.818 342.456 114.878 328.971 112.623 315.087C110.369 301.203 98.4648 291.007 84.4999 291Z" fill="black"/>
<path d="M741.435 592.713C741.435 593.599 742.138 594.276 742.998 594.276C743.883 594.276 744.587 593.599 744.587 592.713V576.563C744.587 575.703 743.883 575 742.998 575C742.112 575 741.435 575.703 741.435 576.563V592.713Z" fill="white"/>
<path d="M748.654 576.849C748.654 577.787 749.435 578.412 750.451 578.412C751.467 578.412 752.248 577.787 752.248 576.849V576.693C752.248 575.755 751.467 575.156 750.451 575.156C749.435 575.156 748.654 575.755 748.654 576.693V576.849ZM748.888 592.713C748.888 593.599 749.591 594.276 750.451 594.276C751.337 594.276 752.04 593.599 752.04 592.713V581.825C752.04 580.939 751.337 580.236 750.451 580.236C749.565 580.236 748.888 580.939 748.888 581.825V592.713Z" fill="white"/>
<path d="M756.159 592.713C756.159 593.573 756.863 594.276 757.722 594.276C758.608 594.276 759.311 593.573 759.311 592.713V592.01C760.275 593.287 761.708 594.433 764 594.433C767.256 594.433 770.382 591.854 770.382 587.295V587.243C770.382 582.658 767.23 580.106 764 580.106C761.76 580.106 760.327 581.252 759.311 582.685V576.563C759.311 575.677 758.608 575 757.722 575C756.837 575 756.159 575.677 756.159 576.563V592.713ZM763.245 591.698C761.109 591.698 759.233 589.926 759.233 587.295V587.243C759.233 584.612 761.109 582.841 763.245 582.841C765.381 582.841 767.178 584.586 767.178 587.243V587.295C767.178 590.004 765.407 591.698 763.245 591.698Z" fill="white"/>
<path d="M773.818 592.713C773.818 593.599 774.521 594.276 775.381 594.276C776.267 594.276 776.97 593.599 776.97 592.713V576.563C776.97 575.703 776.267 575 775.381 575C774.495 575 773.818 575.703 773.818 576.563V592.713Z" fill="white"/>
<path d="M787.628 594.459C791.874 594.459 795 591.203 795 587.295V587.243C795 583.31 791.9 580.106 787.68 580.106C783.46 580.106 780.334 583.362 780.334 587.295V587.347C780.334 591.255 783.434 594.459 787.628 594.459ZM787.68 591.698C785.231 591.698 783.486 589.692 783.486 587.295V587.243C783.486 584.847 785.101 582.867 787.628 582.867C790.102 582.867 791.848 584.873 791.848 587.295V587.347C791.848 589.718 790.233 591.698 787.68 591.698Z" fill="white"/>
<path d="M736.96 590.09C735.74 590.65 734.453 591.046 733.208 591.294C728.074 592.314 725.36 589.099 729.634 586.781C730.099 586.529 730.632 586.291 731.228 586.075L732.011 585.826C732.241 585.763 732.463 585.661 732.534 585.515C732.905 584.722 729.731 584.467 727.622 585.589C728.458 585.431 729.186 585.408 729.668 585.608C724.878 586.845 723.788 590.757 726.335 592.642C727.649 593.615 729.127 593.873 731.832 593.682C733.637 593.555 735.48 592.837 736.96 591.969V590.09Z" fill="white"/>
<path d="M734.542 592.784C734.542 593.606 735.171 594.165 736.03 594.165C736.89 594.165 737.478 593.644 737.478 592.784V586.011C737.478 584.214 737.009 582.755 735.993 581.765C735.029 580.775 733.492 580.228 731.434 580.228C729.637 580.228 728.308 580.541 727.006 581.036C726.537 581.218 726.146 581.713 726.146 582.286C726.146 583.016 726.745 583.589 727.475 583.589C727.631 583.589 727.787 583.563 727.97 583.51C728.829 583.172 729.819 582.963 731.018 582.963C733.232 582.963 734.43 584.005 734.43 585.959V585.968L734.542 592.784Z" fill="white"/>
<path d="M733.611 578.379C733.611 578.591 733.273 578.721 732.805 578.721C732.077 578.721 731.583 578.64 730.984 578.282L729.216 577.24C728.956 577.093 728.774 576.93 728.774 576.751C728.774 576.442 729.814 576.116 730.646 576.116C731.192 576.116 731.609 576.295 731.895 576.588L733.377 578.021C733.481 578.119 733.611 578.265 733.611 578.379Z" fill="white"/>
</g>
<defs>
<linearGradient id="paint0_linear_5189_12457" x1="800" y1="-1.86968e-05" x2="1.22566" y2="601.627" gradientUnits="userSpaceOnUse">
<stop stop-color="#0087B1"/>
<stop offset="1" stop-color="#001B23"/>
</linearGradient>
<clipPath id="clip0_5189_12457">
<rect width="800" height="600" fill="white"/>
</clipPath>
</defs>
</svg>
