<?xml version="1.0" encoding="UTF-8"?>
<svg width="800px" height="600px" viewBox="0 0 800 600" version="1.1" xmlns="http://www.w3.org/2000/svg" xmlns:xlink="http://www.w3.org/1999/xlink">
    <title>2041-10-15-22-10_UndoChanges—GitReset</title>
    <defs>
        <path d="M8.68744595,14.5405413 C10.6544909,13.5649687 12,11.5915112 12,9.31636202 C12,6.07252388 9.26504479,3.44227578 5.89152197,3.44227578 C4.52034181,3.44227578 3.25480793,3.87689217 2.23537065,4.61058921 L2.23537065,1.05770107 C2.23537065,0.476155373 1.74046224,0 1.11695169,0 C0.493934821,0 0.0167986821,0.476630104 0.0167986821,1.05770107 L0.0167986821,1.80184219 L0,9.32158406 C-0.0041824725,11.2003327 0.951817666,12.865215 2.41753644,13.8939574 C2.4777647,13.9362085 2.55848043,13.9312238 2.6127846,13.8823265 C2.66758244,13.8334292 2.6779496,13.7558106 2.63746831,13.6950451 C0.724974359,10.8146136 1.16014819,5.53963813 5.89176881,5.53963813 C8.05899866,5.53963813 9.80709909,7.22944376 9.81623206,9.31351363 C9.82240299,10.8599505 9.11620201,12.0365717 8.19549958,12.7781018 C6.36026565,14.2561773 3.64974731,12.6382934 4.49738595,10.4697214 C4.5894562,10.2335427 4.71879884,9.9959397 4.88664808,9.76189723 L5.12361171,9.47705853 C5.19766284,9.39967734 5.25048599,9.29903433 5.2146946,9.19411874 C5.01401603,8.62800181 3.46832203,8.97526767 3.04005964,10.0315445 C3.34292878,9.79631524 3.65986763,9.66433998 3.96940137,9.71489885 C2.38890334,11.275815 3.44141679,13.9563846 5.46005069,14.7513219 C6.40494316,15.1232738 7.55964718,15.0976383 8.68744595,14.5405413" id="path-1"></path>
        <linearGradient x1="28.568518%" y1="104.445731%" x2="78.3472072%" y2="20.6880271%" id="linearGradient-3">
            <stop stop-color="#000F98" offset="0%"></stop>
            <stop stop-color="#00A5FD" offset="100%"></stop>
        </linearGradient>
        <rect id="path-4" x="20" y="62" width="766" height="140"></rect>
        <filter x="-0.5%" y="-2.9%" width="102.1%" height="111.4%" filterUnits="objectBoundingBox" id="filter-5">
            <feOffset dx="4" dy="4" in="SourceAlpha" result="shadowOffsetOuter1"></feOffset>
            <feGaussianBlur stdDeviation="2" in="shadowOffsetOuter1" result="shadowBlurOuter1"></feGaussianBlur>
            <feComposite in="shadowBlurOuter1" in2="SourceAlpha" operator="out" result="shadowBlurOuter1"></feComposite>
            <feColorMatrix values="0 0 0 0 0   0 0 0 0 0   0 0 0 0 0  0 0 0 0.5 0" type="matrix" in="shadowBlurOuter1"></feColorMatrix>
        </filter>
        <circle id="path-6" cx="48" cy="327" r="15"></circle>
        <mask id="mask-7" maskContentUnits="userSpaceOnUse" maskUnits="objectBoundingBox" x="0" y="0" width="30" height="30" fill="white">
            <use xlink:href="#path-6"></use>
        </mask>
        <circle id="path-8" cx="300" cy="330" r="15"></circle>
        <mask id="mask-9" maskContentUnits="userSpaceOnUse" maskUnits="objectBoundingBox" x="0" y="0" width="30" height="30" fill="white">
            <use xlink:href="#path-8"></use>
        </mask>
        <circle id="path-10" cx="647" cy="330" r="15"></circle>
        <mask id="mask-11" maskContentUnits="userSpaceOnUse" maskUnits="objectBoundingBox" x="0" y="0" width="30" height="30" fill="white">
            <use xlink:href="#path-10"></use>
        </mask>
        <circle id="path-12" cx="292" cy="502" r="15"></circle>
        <mask id="mask-13" maskContentUnits="userSpaceOnUse" maskUnits="objectBoundingBox" x="0" y="0" width="30" height="30" fill="white">
            <use xlink:href="#path-12"></use>
        </mask>
        <circle id="path-14" cx="218" cy="330" r="15"></circle>
        <mask id="mask-15" maskContentUnits="userSpaceOnUse" maskUnits="objectBoundingBox" x="0" y="0" width="30" height="30" fill="white">
            <use xlink:href="#path-14"></use>
        </mask>
        <circle id="path-16" cx="484" cy="330" r="15"></circle>
        <mask id="mask-17" maskContentUnits="userSpaceOnUse" maskUnits="objectBoundingBox" x="0" y="0" width="30" height="30" fill="white">
            <use xlink:href="#path-16"></use>
        </mask>
        <circle id="path-18" cx="129" cy="502" r="15"></circle>
        <mask id="mask-19" maskContentUnits="userSpaceOnUse" maskUnits="objectBoundingBox" x="0" y="0" width="30" height="30" fill="white">
            <use xlink:href="#path-18"></use>
        </mask>
        <circle id="path-20" cx="652" cy="498" r="15"></circle>
        <mask id="mask-21" maskContentUnits="userSpaceOnUse" maskUnits="objectBoundingBox" x="0" y="0" width="30" height="30" fill="white">
            <use xlink:href="#path-20"></use>
        </mask>
    </defs>
    <g id="2041-10-15-22-10_UndoChanges—GitReset" stroke="none" stroke-width="1" fill="none" fill-rule="evenodd">
        <rect fill="#FFFFFF" x="0" y="0" width="800" height="600"></rect>
        <rect id="Rectangle" stroke="#C5C4C4" x="90.5" y="222.5" width="341" height="161"></rect>
        <rect id="Rectangle-Copy-2" stroke="#C5C4C4" x="90.5" y="394.5" width="341" height="161"></rect>
        <rect id="Rectangle-Copy" stroke="#C5C4C4" x="442.5" y="222.5" width="341" height="161"></rect>
        <rect id="Rectangle-Copy-3" stroke="#C5C4C4" x="442.5" y="394.5" width="341" height="161"></rect>
        <g id="bloovee-winner-logo" transform="translate(725.000000, 580.000000)">
            <path d="M13,13.7751507 C13,14.396312 13.4732558,14.8717809 14.0514961,14.8717809 C14.6474304,14.8717809 15.1204503,14.3968042 15.1204503,13.7751507 L15.1204503,2.09687626 C15.1204503,1.49368045 14.6474304,1 14.0514961,1 C13.4557977,1 13,1.49392656 13,2.09687626 L13,13.7751507 Z M21.7920364,15 C24.6483217,15 26.751078,12.7149437 26.751078,9.97312215 L26.751078,9.93645297 C26.751078,7.17641992 24.6657798,4.92778666 21.8269526,4.92778666 C18.9881254,4.92778666 16.885369,7.212843 16.885369,9.97312215 L16.885369,10.0095452 C16.885369,12.7516128 18.9706673,15 21.7920364,15 Z M21.8269526,13.0621935 C20.179994,13.0621935 19.0055834,11.6547366 19.0055834,9.97312215 L19.0055834,9.93645297 C19.0055834,8.25459244 20.0919958,6.86534709 21.7920364,6.86534709 C23.456689,6.86534709 24.6306277,8.27305008 24.6306277,9.97312215 L24.6306277,10.0095452 C24.6306277,11.6731942 23.5444513,13.0621935 21.8269526,13.0621935 Z M32.8092717,15 C35.665557,15 37.7683133,12.7149437 37.7683133,9.97312215 L37.7683133,9.93645297 C37.7683133,7.17641992 35.6830151,4.92778666 32.8441878,4.92778666 C30.0053606,4.92778666 27.9026043,7.212843 27.9026043,9.97312215 L27.9026043,10.0095452 C27.9026043,12.7516128 29.9879025,15 32.8092717,15 Z M32.8441878,13.0621935 C31.1969933,13.0621935 30.0228187,11.6547366 30.0228187,9.97312215 L30.0228187,9.93645297 C30.0228187,8.25459244 31.109231,6.86534709 32.8092717,6.86534709 C34.4739243,6.86534709 35.647863,8.27305008 35.647863,9.97312215 L35.647863,10.0095452 C35.647863,11.6731942 34.5614506,13.0621935 32.8441878,13.0621935 Z M44.1416963,13.9944275 L47.2261164,6.6096472 C47.2784906,6.49988574 47.3487948,6.28060893 47.3487948,6.07954366 C47.3487948,5.47610175 46.8929971,5.01933658 46.3147568,5.01933658 C45.7539746,5.01933658 45.4737015,5.40300947 45.3158709,5.78692847 L42.8976893,12.2215093 L40.5144239,5.82335156 C40.3393711,5.36634029 40.041404,5.01933658 39.4629278,5.01933658 C38.8846875,5.01933658 38.4116676,5.53098247 38.4116676,6.07954366 C38.4116676,6.28060893 38.4817358,6.46346265 38.534346,6.62785874 L41.6182943,13.9944275 C41.8638872,14.5796579 42.2491448,14.9633308 42.8273851,14.9633308 L42.9326055,14.9633308 C43.5108458,14.9633308 43.8965752,14.5612003 44.1416963,13.9944275 Z M50.0949054,9.27837643 C50.2876522,7.77961573 51.1987758,6.73762019 52.4956289,6.73762019 C53.8974665,6.73762019 54.7036056,7.8524619 54.8437422,9.27837643 L50.0949054,9.27837643 Z M56.070527,13.72027 C56.2281217,13.5558739 56.3508002,13.3181395 56.3508002,13.0439819 C56.3508002,12.5320899 55.9830006,12.1481709 55.5095089,12.1481709 C55.2641519,12.1481709 55.1242513,12.2215093 54.9664207,12.3492362 C54.3704864,12.8611282 53.6695676,13.1901665 52.7759021,13.1901665 C51.4089807,13.1901665 50.3402624,12.3128131 50.1123635,10.7409601 L55.9126964,10.7409601 C56.4560206,10.7409601 56.9115824,10.3021604 56.9115824,9.68050697 C56.9115824,7.45057746 55.4568987,4.92778666 52.513087,4.92778666 C49.8672425,4.92778666 47.9919132,7.19438536 47.9919132,9.95466451 L47.9919132,9.9913337 C47.9919132,12.9708897 50.0597533,15 52.7409859,15 C54.1779755,15 55.2292357,14.5063195 56.070527,13.72027 Z M60.1833231,9.27837643 C60.3763058,7.77961573 61.2871935,6.73762019 62.5842825,6.73762019 C63.9858841,6.73762019 64.7920233,7.8524619 64.9321598,9.27837643 L60.1833231,9.27837643 Z M66.1589447,13.72027 C66.3167752,13.5558739 66.4394537,13.3181395 66.4394537,13.0439819 C66.4394537,12.5320899 66.0714183,12.1481709 65.5981624,12.1481709 C65.3528055,12.1481709 65.2126689,12.2215093 65.0548383,12.3492362 C64.4591399,12.8611282 63.7582212,13.1901665 62.8643197,13.1901665 C61.4976342,13.1901665 60.4289159,12.3128131 60.2007812,10.7409601 L66.0011141,10.7409601 C66.5444382,10.7409601 67,10.3021604 67,9.68050697 C67,7.45057746 65.5455522,4.92778666 62.6015046,4.92778666 C59.9556601,4.92778666 58.0805667,7.19438536 58.0805667,9.95466451 L58.0805667,9.9913337 C58.0805667,12.9708897 60.1484069,15 62.8294035,15 C64.2663932,15 65.3178893,14.5063195 66.1589447,13.72027 L66.1589447,13.72027 Z" id="Fill-1" fill="#030060"></path>
            <g id="Group-4">
                <mask id="mask-2" fill="white">
                    <use xlink:href="#path-1"></use>
                </mask>
                <g id="Clip-3"></g>
                <path d="M8.68744595,14.5405413 C10.6544909,13.5649687 12,11.5915112 12,9.31636202 C12,6.07252388 9.26504479,3.44227578 5.89152197,3.44227578 C4.52034181,3.44227578 3.25480793,3.87689217 2.23537065,4.61058921 L2.23537065,1.05770107 C2.23537065,0.476155373 1.74046224,0 1.11695169,0 C0.493934821,0 0.0167986821,0.476630104 0.0167986821,1.05770107 L0.0167986821,1.80184219 L0,9.32158406 C-0.0041824725,11.2003327 0.951817666,12.865215 2.41753644,13.8939574 C2.4777647,13.9362085 2.55848043,13.9312238 2.6127846,13.8823265 C2.66758244,13.8334292 2.6779496,13.7558106 2.63746831,13.6950451 C0.724974359,10.8146136 1.16014819,5.53963813 5.89176881,5.53963813 C8.05899866,5.53963813 9.80709909,7.22944376 9.81623206,9.31351363 C9.82240299,10.8599505 9.11620201,12.0365717 8.19549958,12.7781018 C6.36026565,14.2561773 3.64974731,12.6382934 4.49738595,10.4697214 C4.5894562,10.2335427 4.71879884,9.9959397 4.88664808,9.76189723 L5.12361171,9.47705853 C5.19766284,9.39967734 5.25048599,9.29903433 5.2146946,9.19411874 C5.01401603,8.62800181 3.46832203,8.97526767 3.04005964,10.0315445 C3.34292878,9.79631524 3.65986763,9.66433998 3.96940137,9.71489885 C2.38890334,11.275815 3.44141679,13.9563846 5.46005069,14.7513219 C6.40494316,15.1232738 7.55964718,15.0976383 8.68744595,14.5405413" id="Fill-2" fill="url(#linearGradient-3)" mask="url(#mask-2)"></path>
            </g>
        </g>
        <g id="Rectangle-Copy-4">
            <use fill="black" fill-opacity="1" filter="url(#filter-5)" xlink:href="#path-4"></use>
            <rect stroke="#006AE1" stroke-width="4" stroke-linejoin="square" fill="#FFFFFF" fill-rule="evenodd" x="22" y="64" width="762" height="136"></rect>
        </g>
        <text id="Undo-Changes-—-Git-R" fill-rule="nonzero" font-family="Helvetica" font-size="18" font-weight="normal" fill="#0055C2">
            <tspan x="10" y="23">Undo Changes — Git Reset</tspan>
        </text>
        <g id="git" transform="translate(704.000000, 9.000000)">
            <path d="M46.8658496,11.2380575 C45.1623498,11.2380575 43.8939053,12.0891281 43.8939053,14.1376499 C43.8939053,15.6808485 44.7297841,16.7522856 46.7743573,16.7522856 C48.5071097,16.7522856 49.6846843,15.7131436 49.6846843,14.073693 C49.6846843,12.2157755 48.6309666,11.2380575 46.8658496,11.2380575 L46.8658496,11.2380575 Z M43.4607172,25.7011913 C43.0574041,26.2046147 42.6553359,26.7397 42.6553359,27.3710373 C42.6553359,28.6305458 44.2337339,29.0092215 46.4027864,29.0092215 C48.1984009,29.0092215 50.6450424,28.8813076 50.6450424,27.1823327 C50.6450424,26.1723196 49.4674678,26.1102624 47.9805621,26.0152768 L43.4607172,25.7011913 Z M52.6255087,11.3330431 C53.1825537,12.0580995 53.7719634,13.0662128 53.7719634,14.5156924 C53.7719634,18.0124273 51.0776081,20.0603158 47.1764255,20.0603158 C46.1843252,20.0603158 45.2862067,19.9349349 44.7291617,19.7772589 L43.7071863,21.4471049 L46.7413702,21.6351763 C52.0989611,21.9828234 55.257002,22.1404995 55.257002,26.3293624 C55.257002,29.9533779 52.1300809,32 46.7413702,32 C41.1360655,32 39,30.5505204 39,28.0625322 C39,26.6440812 39.6199071,25.8898959 40.7034998,24.848221 C39.680902,24.4087545 39.3410734,23.6216409 39.3410734,22.7705703 C39.3410734,22.0771758 39.6815244,21.4471049 40.2391918,20.8480627 C40.7968593,20.2502869 41.416144,19.6506115 42.1586633,18.9578502 C40.6412601,18.2017651 39.4960502,16.563581 39.4960502,14.231369 C39.4960502,10.6086199 41.8493321,8.12063165 46.5870158,8.12063165 C47.9189448,8.12063165 48.7249485,8.24537935 49.436348,8.43598369 L55.4754632,8.43598369 L55.4754632,11.1133099 L52.6255087,11.3330431 L52.6255087,11.3330431 Z M60.9233016,5.60858036 C59.1575621,5.60858036 58.1355867,4.56817192 58.1355867,2.77167847 C58.1355867,0.977717972 59.1575621,0 60.9233016,0 C62.7195385,0 63.7408917,0.977084735 63.7408917,2.77167847 C63.7415139,4.56817192 62.7195385,5.60858036 60.9233016,5.60858036 Z M56.9275147,24.5423675 L56.9275147,22.0543792 L58.50778,21.8340127 C58.9409681,21.770689 59.0025853,21.6763367 59.0025853,21.2026754 L59.0025853,11.9403174 C59.0025853,11.59457 58.9104706,11.372937 58.5998947,11.279218 L56.9275147,10.6801757 L57.2679657,8.12949697 L63.6792742,8.12949697 L63.6792742,21.2033087 C63.6792742,21.7086318 63.7091492,21.770689 64.174702,21.834646 L65.7543448,22.0550125 L65.7543448,24.5430008 L56.9275147,24.5430008 L56.9275147,24.5423675 Z M78,23.32022 C76.6674487,23.9806863 74.7174798,24.5803617 72.9511179,24.5803617 C69.2665294,24.5803617 67.8736056,23.0694582 67.8736056,19.5074999 L67.8736056,11.2532552 C67.8736056,11.0651838 67.8736056,10.9385364 67.6252693,10.9385364 L65.458084,10.9385364 L65.458084,8.13456287 C68.1841815,7.81857759 69.2671518,6.43242174 69.6076028,2.99837733 L72.5502944,2.99837733 L72.5502944,7.47346341 C72.5502944,7.69319666 72.5502944,7.78881545 72.7980083,7.78881545 L77.1641212,7.78881545 L77.1641212,10.9391697 L72.5502944,10.9391697 L72.5502944,18.4683579 C72.5502944,20.3269086 72.9841049,21.0513318 74.6558625,21.0513318 C75.5241059,21.0513318 76.4209796,20.8315985 77.1641212,20.5479083 L78,23.32022 L78,23.32022 Z" id="Shape" fill="#31251C" fill-rule="nonzero"></path>
            <path d="M32.3772539,15.0299695 L17.9690664,0.622277028 C17.140005,-0.207425676 15.7941261,-0.207425676 14.9644314,0.622277028 L11.9724635,3.61427365 L15.7668919,7.40937182 C16.6497884,7.11169223 17.6606226,7.31120089 18.3636464,8.01486479 C19.0704703,8.72232885 19.2687104,9.74203981 18.9634334,10.6274783 L22.6210571,14.2851371 C23.5052204,13.9804906 24.5268216,14.1774658 25.2336455,14.8849299 C26.221679,15.8723394 26.221679,17.4728423 25.2336455,18.4608852 C24.2449787,19.4489281 22.6451246,19.4489281 21.6570912,18.4608852 C20.914166,17.7173195 20.7304932,16.6260388 21.1067059,15.7108324 L17.6954571,12.2995509 L17.6948238,21.2768075 C17.9361319,21.3958793 18.1628729,21.5542195 18.3636464,21.7543616 C19.3516798,22.7417711 19.3516798,24.3416406 18.3636464,25.3309502 C17.375613,26.3183598 15.7744921,26.3183598 14.7877254,25.3309502 C13.799692,24.3416406 13.799692,22.7417711 14.7877254,21.7543616 C15.0322003,21.5105176 15.3140432,21.3262096 15.6155201,21.2027043 L15.6155201,12.1424774 C15.3140432,12.0196054 15.0322003,11.8359308 14.7877254,11.5908201 C14.0391001,10.842821 13.8592273,9.74520661 14.2430403,8.82620003 L10.5024471,5.08430417 L0.622746073,14.9634666 C-0.207582024,15.7938027 -0.207582024,17.1396945 0.622746073,17.9700305 L15.0309336,32.377723 C15.8606284,33.2074257 17.2058739,33.2074257 18.0368353,32.377723 L32.3772539,18.0359 C33.207582,17.2061973 33.207582,15.8596722 32.3772539,15.0299695 L32.3772539,15.0299695 Z" id="Path" fill="#F34F29" fill-rule="nonzero"></path>
            <polygon id="Path" points="1.12409637e-15 0 79 0 79 33 0 33"></polygon>
        </g>
        <text id="$-git-reset" font-family="Helvetica-Bold, Helvetica" font-size="36" font-weight="bold" fill="#0055C2">
            <tspan x="317.96582" y="149">$ git reset</tspan>
        </text>
        <text id="Status-A-Copy" font-family="Helvetica" font-size="18" font-weight="normal" fill="#0055C2">
            <tspan x="97.4741211" y="272">Status A</tspan>
        </text>
        <text id="Status-A-Copy-3" font-family="Helvetica" font-size="18" font-weight="normal" fill="#0055C2">
            <tspan x="97.4741211" y="444">Status A</tspan>
        </text>
        <text id="Status-A-Copy-2" font-family="Helvetica" font-size="18" font-weight="normal" fill="#0055C2">
            <tspan x="449.474121" y="272">Status A</tspan>
        </text>
        <text id="Status-A-Copy-4" font-family="Helvetica" font-size="18" font-weight="normal" fill="#0055C2">
            <tspan x="449.474121" y="444">Status A</tspan>
        </text>
        <use id="Oval-Copy-3" stroke="#0055C2" mask="url(#mask-7)" stroke-width="12" fill="#C5DDFF" stroke-dasharray="6,6" xlink:href="#path-6"></use>
        <use id="Oval-Copy-7" stroke="#4F4F4F" mask="url(#mask-9)" stroke-width="12" fill="#C5C4C4" stroke-dasharray="6,6" xlink:href="#path-8"></use>
        <use id="Oval-Copy-10" stroke="#4F4F4F" mask="url(#mask-11)" stroke-width="12" fill="#C5C4C4" stroke-dasharray="6,6" xlink:href="#path-10"></use>
        <use id="Oval-Copy-13" stroke="#4F4F4F" mask="url(#mask-13)" stroke-width="12" fill="#C5C4C4" stroke-dasharray="6,6" xlink:href="#path-12"></use>
        <line x1="285.5" y1="316.5" x2="315.5" y2="345.5" id="Line" stroke="#FF6464" stroke-width="3" stroke-linecap="square"></line>
        <line x1="632.5" y1="316.5" x2="662.5" y2="345.5" id="Line-Copy-4" stroke="#FF6464" stroke-width="3" stroke-linecap="square"></line>
        <line x1="277.5" y1="488.5" x2="307.5" y2="517.5" id="Line-Copy-10" stroke="#FF6464" stroke-width="3" stroke-linecap="square"></line>
        <line x1="285.5" y1="316.5" x2="315.5" y2="345.5" id="Line-Copy" stroke="#FF6464" stroke-width="3" stroke-linecap="square" transform="translate(300.500000, 331.000000) scale(-1, 1) translate(-300.500000, -331.000000) "></line>
        <line x1="632.5" y1="316.5" x2="662.5" y2="345.5" id="Line-Copy-5" stroke="#FF6464" stroke-width="3" stroke-linecap="square" transform="translate(647.500000, 331.000000) scale(-1, 1) translate(-647.500000, -331.000000) "></line>
        <line x1="277.5" y1="488.5" x2="307.5" y2="517.5" id="Line-Copy-11" stroke="#FF6464" stroke-width="3" stroke-linecap="square" transform="translate(292.500000, 503.000000) scale(-1, 1) translate(-292.500000, -503.000000) "></line>
        <use id="Oval-Copy-8" stroke="#0055C2" mask="url(#mask-15)" stroke-width="12" fill="#C5DDFF" stroke-dasharray="6,6" xlink:href="#path-14"></use>
        <use id="Oval-Copy-9" stroke="#0055C2" mask="url(#mask-17)" stroke-width="12" fill="#C5DDFF" stroke-dasharray="6,6" xlink:href="#path-16"></use>
        <use id="Oval-Copy-14" stroke="#0055C2" mask="url(#mask-19)" stroke-width="12" fill="#C5DDFF" stroke-dasharray="6,6" xlink:href="#path-18"></use>
        <use id="Oval-Copy-6" stroke="#0055C2" mask="url(#mask-21)" stroke-width="12" fill="#C5DDFF" stroke-dasharray="6,6" xlink:href="#path-20"></use>
        <g id="Group-2-Copy" transform="translate(371.000000, 351.000000)" fill-rule="nonzero">
            <path d="M21.75,7.56756757 L21.75,28 L4.5,28 L4.5,25.6648649 C4.50564312,25.6579178 19.1775056,7.57679135 19.1849442,7.56756757 L21.75,7.56756757 Z" id="Path" fill="#A4C2F7"></path>
            <path d="M19.5,24.972973 C18.9039724,24.972973 0.366196552,24.972973 0,24.972973 C0,23.5191009 0,2.48417658 0,1.51351351 L14.1206897,1.51351351 L15.5776086,4.62284144 L19.5,5.98198198 C19.5,6.8182 19.5,24.0230324 19.5,24.972973 Z" id="Path" fill="#FFFFFF"></path>
            <polygon id="Path" fill="#A4C2F7" points="20.25 5.2972973 15 5.2972973 15 0.756756757"></polygon>
            <path d="M19.5967742,25.7297297 L0.653225806,25.7297297 C0.292449194,25.7297297 0,25.4678713 0,25.1449631 L0,0.584766585 C0,0.2618 0.292449194,0 0.653225806,0 L14.3709677,0 C14.5442032,0 14.7103185,0.061634398 14.8328637,0.171278133 L20.0586702,4.84941081 C20.18115,4.95905455 20.25,5.10781916 20.25,5.26289926 L20.25,25.1449631 C20.25,25.4678713 19.9574855,25.7297297 19.5967742,25.7297297 Z M1.30645161,24.5601966 L18.9435484,24.5601966 L18.9435484,5.50510958 L14.1003363,1.16953317 L1.30645161,1.16953317 L1.30645161,24.5601966 Z" id="Shape" fill="#418CFE"></path>
            <path d="M20.6262976,5.83333333 L15.2283737,5.83333333 C14.855782,5.83333333 14.5536332,5.572175 14.5536332,5.25 L14.5536332,0.583333333 C14.5536332,0.261158333 14.855782,0 15.2283737,0 C15.6009654,0 15.9031142,0.261158333 15.9031142,0.583333333 L15.9031142,4.66666667 L20.6262976,4.66666667 C20.9988893,4.66666667 21.3010381,4.927825 21.3010381,5.25 C21.3010381,5.572175 20.9988893,5.83333333 20.6262976,5.83333333 Z M23.3252595,28 L5.17474048,28 C4.80208131,28 4.5,27.7387833 4.5,27.4166667 L4.5,25.0833333 C4.5,24.7612167 4.80208131,24.5 5.17474048,24.5 C5.54739965,24.5 5.84948097,24.7612167 5.84948097,25.0833333 L5.84948097,26.8333333 L22.650519,26.8333333 L22.650519,7.58333333 L20.6262976,7.58333333 C20.2537059,7.58333333 19.9515571,7.322175 19.9515571,7 C19.9515571,6.677825 20.2537059,6.41666667 20.6262976,6.41666667 L23.3252595,6.41666667 C23.6978512,6.41666667 24,6.677825 24,7 L24,27.4166667 C24,27.7387833 23.6978512,28 23.3252595,28 Z" id="Shape" fill="#418CFE"></path>
            <path d="M16.5978261,21.1891892 L2.90217391,21.1891892 C2.54197826,21.1891892 2.25,20.9273307 2.25,20.6044226 C2.25,20.2815145 2.54197826,20.019656 2.90217391,20.019656 L16.5978261,20.019656 C16.9579565,20.019656 17.25,20.2815145 17.25,20.6044226 C17.25,20.9273307 16.9579565,21.1891892 16.5978261,21.1891892 Z M16.5978261,18.8501229 L2.90217391,18.8501229 C2.54197826,18.8501229 2.25,18.5882644 2.25,18.2653563 C2.25,17.9424482 2.54197826,17.6805897 2.90217391,17.6805897 L16.5978261,17.6805897 C16.9579565,17.6805897 17.25,17.9424482 17.25,18.2653563 C17.25,18.5882644 16.9579565,18.8501229 16.5978261,18.8501229 Z M16.5978261,16.5110565 L2.90217391,16.5110565 C2.54197826,16.5110565 2.25,16.249198 2.25,15.9262899 C2.25,15.6033818 2.54197826,15.3415233 2.90217391,15.3415233 L16.5978261,15.3415233 C16.9579565,15.3415233 17.25,15.6033818 17.25,15.9262899 C17.25,16.249198 16.9579565,16.5110565 16.5978261,16.5110565 Z M16.5978261,14.1719902 L2.90217391,14.1719902 C2.54197826,14.1719902 2.25,13.9101902 2.25,13.5872236 C2.25,13.264257 2.54197826,13.002457 2.90217391,13.002457 L16.5978261,13.002457 C16.9579565,13.002457 17.25,13.264257 17.25,13.5872236 C17.25,13.9101902 16.9579565,14.1719902 16.5978261,14.1719902 Z M16.5978261,11.8329238 L2.90217391,11.8329238 C2.54197826,11.8329238 2.25,11.5711238 2.25,11.2481572 C2.25,10.9251907 2.54197826,10.6633907 2.90217391,10.6633907 L16.5978261,10.6633907 C16.9579565,10.6633907 17.25,10.9251907 17.25,11.2481572 C17.25,11.5711238 16.9579565,11.8329238 16.5978261,11.8329238 Z M8.77173913,9.49385749 L2.90217391,9.49385749 C2.54197826,9.49385749 2.25,9.23205749 2.25,8.90909091 C2.25,8.58612432 2.54197826,8.32432432 2.90217391,8.32432432 L8.77173913,8.32432432 C9.13193478,8.32432432 9.42391304,8.58612432 9.42391304,8.90909091 C9.42391304,9.23205749 9.13193478,9.49385749 8.77173913,9.49385749 Z" id="Shape" fill="#418CFE"></path>
        </g>
        <g id="Group-2-Copy-3" transform="translate(371.000000, 519.000000)" fill-rule="nonzero">
            <path d="M21.75,7.56756757 L21.75,28 L4.5,28 L4.5,25.6648649 C4.50564312,25.6579178 19.1775056,7.57679135 19.1849442,7.56756757 L21.75,7.56756757 Z" id="Path" fill="#A4C2F7"></path>
            <path d="M19.5,24.972973 C18.9039724,24.972973 0.366196552,24.972973 0,24.972973 C0,23.5191009 0,2.48417658 0,1.51351351 L14.1206897,1.51351351 L15.5776086,4.62284144 L19.5,5.98198198 C19.5,6.8182 19.5,24.0230324 19.5,24.972973 Z" id="Path" fill="#FFFFFF"></path>
            <polygon id="Path" fill="#A4C2F7" points="20.25 5.2972973 15 5.2972973 15 0.756756757"></polygon>
            <path d="M19.5967742,25.7297297 L0.653225806,25.7297297 C0.292449194,25.7297297 0,25.4678713 0,25.1449631 L0,0.584766585 C0,0.2618 0.292449194,0 0.653225806,0 L14.3709677,0 C14.5442032,0 14.7103185,0.061634398 14.8328637,0.171278133 L20.0586702,4.84941081 C20.18115,4.95905455 20.25,5.10781916 20.25,5.26289926 L20.25,25.1449631 C20.25,25.4678713 19.9574855,25.7297297 19.5967742,25.7297297 Z M1.30645161,24.5601966 L18.9435484,24.5601966 L18.9435484,5.50510958 L14.1003363,1.16953317 L1.30645161,1.16953317 L1.30645161,24.5601966 Z" id="Shape" fill="#418CFE"></path>
            <path d="M20.6262976,5.83333333 L15.2283737,5.83333333 C14.855782,5.83333333 14.5536332,5.572175 14.5536332,5.25 L14.5536332,0.583333333 C14.5536332,0.261158333 14.855782,0 15.2283737,0 C15.6009654,0 15.9031142,0.261158333 15.9031142,0.583333333 L15.9031142,4.66666667 L20.6262976,4.66666667 C20.9988893,4.66666667 21.3010381,4.927825 21.3010381,5.25 C21.3010381,5.572175 20.9988893,5.83333333 20.6262976,5.83333333 Z M23.3252595,28 L5.17474048,28 C4.80208131,28 4.5,27.7387833 4.5,27.4166667 L4.5,25.0833333 C4.5,24.7612167 4.80208131,24.5 5.17474048,24.5 C5.54739965,24.5 5.84948097,24.7612167 5.84948097,25.0833333 L5.84948097,26.8333333 L22.650519,26.8333333 L22.650519,7.58333333 L20.6262976,7.58333333 C20.2537059,7.58333333 19.9515571,7.322175 19.9515571,7 C19.9515571,6.677825 20.2537059,6.41666667 20.6262976,6.41666667 L23.3252595,6.41666667 C23.6978512,6.41666667 24,6.677825 24,7 L24,27.4166667 C24,27.7387833 23.6978512,28 23.3252595,28 Z" id="Shape" fill="#418CFE"></path>
            <path d="M16.5978261,21.1891892 L2.90217391,21.1891892 C2.54197826,21.1891892 2.25,20.9273307 2.25,20.6044226 C2.25,20.2815145 2.54197826,20.019656 2.90217391,20.019656 L16.5978261,20.019656 C16.9579565,20.019656 17.25,20.2815145 17.25,20.6044226 C17.25,20.9273307 16.9579565,21.1891892 16.5978261,21.1891892 Z M16.5978261,18.8501229 L2.90217391,18.8501229 C2.54197826,18.8501229 2.25,18.5882644 2.25,18.2653563 C2.25,17.9424482 2.54197826,17.6805897 2.90217391,17.6805897 L16.5978261,17.6805897 C16.9579565,17.6805897 17.25,17.9424482 17.25,18.2653563 C17.25,18.5882644 16.9579565,18.8501229 16.5978261,18.8501229 Z M16.5978261,16.5110565 L2.90217391,16.5110565 C2.54197826,16.5110565 2.25,16.249198 2.25,15.9262899 C2.25,15.6033818 2.54197826,15.3415233 2.90217391,15.3415233 L16.5978261,15.3415233 C16.9579565,15.3415233 17.25,15.6033818 17.25,15.9262899 C17.25,16.249198 16.9579565,16.5110565 16.5978261,16.5110565 Z M16.5978261,14.1719902 L2.90217391,14.1719902 C2.54197826,14.1719902 2.25,13.9101902 2.25,13.5872236 C2.25,13.264257 2.54197826,13.002457 2.90217391,13.002457 L16.5978261,13.002457 C16.9579565,13.002457 17.25,13.264257 17.25,13.5872236 C17.25,13.9101902 16.9579565,14.1719902 16.5978261,14.1719902 Z M16.5978261,11.8329238 L2.90217391,11.8329238 C2.54197826,11.8329238 2.25,11.5711238 2.25,11.2481572 C2.25,10.9251907 2.54197826,10.6633907 2.90217391,10.6633907 L16.5978261,10.6633907 C16.9579565,10.6633907 17.25,10.9251907 17.25,11.2481572 C17.25,11.5711238 16.9579565,11.8329238 16.5978261,11.8329238 Z M8.77173913,9.49385749 L2.90217391,9.49385749 C2.54197826,9.49385749 2.25,9.23205749 2.25,8.90909091 C2.25,8.58612432 2.54197826,8.32432432 2.90217391,8.32432432 L8.77173913,8.32432432 C9.13193478,8.32432432 9.42391304,8.58612432 9.42391304,8.90909091 C9.42391304,9.23205749 9.13193478,9.49385749 8.77173913,9.49385749 Z" id="Shape" fill="#418CFE"></path>
        </g>
        <g id="Group-2-Copy-5" transform="translate(36.000000, 394.000000)" fill-rule="nonzero">
            <path d="M21.75,7.56756757 L21.75,28 L4.5,28 L4.5,25.6648649 C4.50564312,25.6579178 19.1775056,7.57679135 19.1849442,7.56756757 L21.75,7.56756757 Z" id="Path" fill="#A4C2F7"></path>
            <path d="M19.5,24.972973 C18.9039724,24.972973 0.366196552,24.972973 0,24.972973 C0,23.5191009 0,2.48417658 0,1.51351351 L14.1206897,1.51351351 L15.5776086,4.62284144 L19.5,5.98198198 C19.5,6.8182 19.5,24.0230324 19.5,24.972973 Z" id="Path" fill="#FFFFFF"></path>
            <polygon id="Path" fill="#A4C2F7" points="20.25 5.2972973 15 5.2972973 15 0.756756757"></polygon>
            <path d="M19.5967742,25.7297297 L0.653225806,25.7297297 C0.292449194,25.7297297 0,25.4678713 0,25.1449631 L0,0.584766585 C0,0.2618 0.292449194,0 0.653225806,0 L14.3709677,0 C14.5442032,0 14.7103185,0.061634398 14.8328637,0.171278133 L20.0586702,4.84941081 C20.18115,4.95905455 20.25,5.10781916 20.25,5.26289926 L20.25,25.1449631 C20.25,25.4678713 19.9574855,25.7297297 19.5967742,25.7297297 Z M1.30645161,24.5601966 L18.9435484,24.5601966 L18.9435484,5.50510958 L14.1003363,1.16953317 L1.30645161,1.16953317 L1.30645161,24.5601966 Z" id="Shape" fill="#418CFE"></path>
            <path d="M20.6262976,5.83333333 L15.2283737,5.83333333 C14.855782,5.83333333 14.5536332,5.572175 14.5536332,5.25 L14.5536332,0.583333333 C14.5536332,0.261158333 14.855782,0 15.2283737,0 C15.6009654,0 15.9031142,0.261158333 15.9031142,0.583333333 L15.9031142,4.66666667 L20.6262976,4.66666667 C20.9988893,4.66666667 21.3010381,4.927825 21.3010381,5.25 C21.3010381,5.572175 20.9988893,5.83333333 20.6262976,5.83333333 Z M23.3252595,28 L5.17474048,28 C4.80208131,28 4.5,27.7387833 4.5,27.4166667 L4.5,25.0833333 C4.5,24.7612167 4.80208131,24.5 5.17474048,24.5 C5.54739965,24.5 5.84948097,24.7612167 5.84948097,25.0833333 L5.84948097,26.8333333 L22.650519,26.8333333 L22.650519,7.58333333 L20.6262976,7.58333333 C20.2537059,7.58333333 19.9515571,7.322175 19.9515571,7 C19.9515571,6.677825 20.2537059,6.41666667 20.6262976,6.41666667 L23.3252595,6.41666667 C23.6978512,6.41666667 24,6.677825 24,7 L24,27.4166667 C24,27.7387833 23.6978512,28 23.3252595,28 Z" id="Shape" fill="#418CFE"></path>
            <path d="M16.5978261,21.1891892 L2.90217391,21.1891892 C2.54197826,21.1891892 2.25,20.9273307 2.25,20.6044226 C2.25,20.2815145 2.54197826,20.019656 2.90217391,20.019656 L16.5978261,20.019656 C16.9579565,20.019656 17.25,20.2815145 17.25,20.6044226 C17.25,20.9273307 16.9579565,21.1891892 16.5978261,21.1891892 Z M16.5978261,18.8501229 L2.90217391,18.8501229 C2.54197826,18.8501229 2.25,18.5882644 2.25,18.2653563 C2.25,17.9424482 2.54197826,17.6805897 2.90217391,17.6805897 L16.5978261,17.6805897 C16.9579565,17.6805897 17.25,17.9424482 17.25,18.2653563 C17.25,18.5882644 16.9579565,18.8501229 16.5978261,18.8501229 Z M16.5978261,16.5110565 L2.90217391,16.5110565 C2.54197826,16.5110565 2.25,16.249198 2.25,15.9262899 C2.25,15.6033818 2.54197826,15.3415233 2.90217391,15.3415233 L16.5978261,15.3415233 C16.9579565,15.3415233 17.25,15.6033818 17.25,15.9262899 C17.25,16.249198 16.9579565,16.5110565 16.5978261,16.5110565 Z M16.5978261,14.1719902 L2.90217391,14.1719902 C2.54197826,14.1719902 2.25,13.9101902 2.25,13.5872236 C2.25,13.264257 2.54197826,13.002457 2.90217391,13.002457 L16.5978261,13.002457 C16.9579565,13.002457 17.25,13.264257 17.25,13.5872236 C17.25,13.9101902 16.9579565,14.1719902 16.5978261,14.1719902 Z M16.5978261,11.8329238 L2.90217391,11.8329238 C2.54197826,11.8329238 2.25,11.5711238 2.25,11.2481572 C2.25,10.9251907 2.54197826,10.6633907 2.90217391,10.6633907 L16.5978261,10.6633907 C16.9579565,10.6633907 17.25,10.9251907 17.25,11.2481572 C17.25,11.5711238 16.9579565,11.8329238 16.5978261,11.8329238 Z M8.77173913,9.49385749 L2.90217391,9.49385749 C2.54197826,9.49385749 2.25,9.23205749 2.25,8.90909091 C2.25,8.58612432 2.54197826,8.32432432 2.90217391,8.32432432 L8.77173913,8.32432432 C9.13193478,8.32432432 9.42391304,8.58612432 9.42391304,8.90909091 C9.42391304,9.23205749 9.13193478,9.49385749 8.77173913,9.49385749 Z" id="Shape" fill="#418CFE"></path>
        </g>
        <g id="Group-2-Copy-2" transform="translate(723.000000, 351.000000)" fill-rule="nonzero">
            <path d="M21.75,7.56756757 L21.75,28 L4.5,28 L4.5,25.6648649 C4.50564312,25.6579178 19.1775056,7.57679135 19.1849442,7.56756757 L21.75,7.56756757 Z" id="Path" fill="#C5C4C4"></path>
            <path d="M19.5,24.972973 C18.9039724,24.972973 0.366196552,24.972973 0,24.972973 C0,23.5191009 0,2.48417658 0,1.51351351 L14.1206897,1.51351351 L15.5776086,4.62284144 L19.5,5.98198198 C19.5,6.8182 19.5,24.0230324 19.5,24.972973 Z" id="Path" fill="#FFFFFF"></path>
            <polygon id="Path" fill="#FFFFFF" points="20.25 5.2972973 15 5.2972973 15 0.756756757"></polygon>
            <path d="M19.5967742,25.7297297 L0.653225806,25.7297297 C0.292449194,25.7297297 0,25.4678713 0,25.1449631 L0,0.584766585 C0,0.2618 0.292449194,0 0.653225806,0 L14.3709677,0 C14.5442032,0 14.7103185,0.061634398 14.8328637,0.171278133 L20.0586702,4.84941081 C20.18115,4.95905455 20.25,5.10781916 20.25,5.26289926 L20.25,25.1449631 C20.25,25.4678713 19.9574855,25.7297297 19.5967742,25.7297297 Z M1.30645161,24.5601966 L18.9435484,24.5601966 L18.9435484,5.50510958 L14.1003363,1.16953317 L1.30645161,1.16953317 L1.30645161,24.5601966 Z" id="Shape" fill="#999999"></path>
            <path d="M20.6262976,5.83333333 L15.2283737,5.83333333 C14.855782,5.83333333 14.5536332,5.572175 14.5536332,5.25 L14.5536332,0.583333333 C14.5536332,0.261158333 14.855782,0 15.2283737,0 C15.6009654,0 15.9031142,0.261158333 15.9031142,0.583333333 L15.9031142,4.66666667 L20.6262976,4.66666667 C20.9988893,4.66666667 21.3010381,4.927825 21.3010381,5.25 C21.3010381,5.572175 20.9988893,5.83333333 20.6262976,5.83333333 Z M23.3252595,28 L5.17474048,28 C4.80208131,28 4.5,27.7387833 4.5,27.4166667 L4.5,25.0833333 C4.5,24.7612167 4.80208131,24.5 5.17474048,24.5 C5.54739965,24.5 5.84948097,24.7612167 5.84948097,25.0833333 L5.84948097,26.8333333 L22.650519,26.8333333 L22.650519,7.58333333 L20.6262976,7.58333333 C20.2537059,7.58333333 19.9515571,7.322175 19.9515571,7 C19.9515571,6.677825 20.2537059,6.41666667 20.6262976,6.41666667 L23.3252595,6.41666667 C23.6978512,6.41666667 24,6.677825 24,7 L24,27.4166667 C24,27.7387833 23.6978512,28 23.3252595,28 Z" id="Shape" fill="#999999"></path>
            <path d="M16.5978261,21.1891892 L2.90217391,21.1891892 C2.54197826,21.1891892 2.25,20.9273307 2.25,20.6044226 C2.25,20.2815145 2.54197826,20.019656 2.90217391,20.019656 L16.5978261,20.019656 C16.9579565,20.019656 17.25,20.2815145 17.25,20.6044226 C17.25,20.9273307 16.9579565,21.1891892 16.5978261,21.1891892 Z M16.5978261,18.8501229 L2.90217391,18.8501229 C2.54197826,18.8501229 2.25,18.5882644 2.25,18.2653563 C2.25,17.9424482 2.54197826,17.6805897 2.90217391,17.6805897 L16.5978261,17.6805897 C16.9579565,17.6805897 17.25,17.9424482 17.25,18.2653563 C17.25,18.5882644 16.9579565,18.8501229 16.5978261,18.8501229 Z M16.5978261,16.5110565 L2.90217391,16.5110565 C2.54197826,16.5110565 2.25,16.249198 2.25,15.9262899 C2.25,15.6033818 2.54197826,15.3415233 2.90217391,15.3415233 L16.5978261,15.3415233 C16.9579565,15.3415233 17.25,15.6033818 17.25,15.9262899 C17.25,16.249198 16.9579565,16.5110565 16.5978261,16.5110565 Z M16.5978261,14.1719902 L2.90217391,14.1719902 C2.54197826,14.1719902 2.25,13.9101902 2.25,13.5872236 C2.25,13.264257 2.54197826,13.002457 2.90217391,13.002457 L16.5978261,13.002457 C16.9579565,13.002457 17.25,13.264257 17.25,13.5872236 C17.25,13.9101902 16.9579565,14.1719902 16.5978261,14.1719902 Z M16.5978261,11.8329238 L2.90217391,11.8329238 C2.54197826,11.8329238 2.25,11.5711238 2.25,11.2481572 C2.25,10.9251907 2.54197826,10.6633907 2.90217391,10.6633907 L16.5978261,10.6633907 C16.9579565,10.6633907 17.25,10.9251907 17.25,11.2481572 C17.25,11.5711238 16.9579565,11.8329238 16.5978261,11.8329238 Z M8.77173913,9.49385749 L2.90217391,9.49385749 C2.54197826,9.49385749 2.25,9.23205749 2.25,8.90909091 C2.25,8.58612432 2.54197826,8.32432432 2.90217391,8.32432432 L8.77173913,8.32432432 C9.13193478,8.32432432 9.42391304,8.58612432 9.42391304,8.90909091 C9.42391304,9.23205749 9.13193478,9.49385749 8.77173913,9.49385749 Z" id="Shape" fill="#999999"></path>
        </g>
        <g id="Group-2-Copy-6" transform="translate(473.000000, 351.000000)" fill-rule="nonzero">
            <path d="M21.75,7.56756757 L21.75,28 L4.5,28 L4.5,25.6648649 C4.50564312,25.6579178 19.1775056,7.57679135 19.1849442,7.56756757 L21.75,7.56756757 Z" id="Path" fill="#A4C2F7"></path>
            <path d="M19.5,24.972973 C18.9039724,24.972973 0.366196552,24.972973 0,24.972973 C0,23.5191009 0,2.48417658 0,1.51351351 L14.1206897,1.51351351 L15.5776086,4.62284144 L19.5,5.98198198 C19.5,6.8182 19.5,24.0230324 19.5,24.972973 Z" id="Path" fill="#FFFFFF"></path>
            <polygon id="Path" fill="#A4C2F7" points="20.25 5.2972973 15 5.2972973 15 0.756756757"></polygon>
            <path d="M19.5967742,25.7297297 L0.653225806,25.7297297 C0.292449194,25.7297297 0,25.4678713 0,25.1449631 L0,0.584766585 C0,0.2618 0.292449194,0 0.653225806,0 L14.3709677,0 C14.5442032,0 14.7103185,0.061634398 14.8328637,0.171278133 L20.0586702,4.84941081 C20.18115,4.95905455 20.25,5.10781916 20.25,5.26289926 L20.25,25.1449631 C20.25,25.4678713 19.9574855,25.7297297 19.5967742,25.7297297 Z M1.30645161,24.5601966 L18.9435484,24.5601966 L18.9435484,5.50510958 L14.1003363,1.16953317 L1.30645161,1.16953317 L1.30645161,24.5601966 Z" id="Shape" fill="#418CFE"></path>
            <path d="M20.6262976,5.83333333 L15.2283737,5.83333333 C14.855782,5.83333333 14.5536332,5.572175 14.5536332,5.25 L14.5536332,0.583333333 C14.5536332,0.261158333 14.855782,0 15.2283737,0 C15.6009654,0 15.9031142,0.261158333 15.9031142,0.583333333 L15.9031142,4.66666667 L20.6262976,4.66666667 C20.9988893,4.66666667 21.3010381,4.927825 21.3010381,5.25 C21.3010381,5.572175 20.9988893,5.83333333 20.6262976,5.83333333 Z M23.3252595,28 L5.17474048,28 C4.80208131,28 4.5,27.7387833 4.5,27.4166667 L4.5,25.0833333 C4.5,24.7612167 4.80208131,24.5 5.17474048,24.5 C5.54739965,24.5 5.84948097,24.7612167 5.84948097,25.0833333 L5.84948097,26.8333333 L22.650519,26.8333333 L22.650519,7.58333333 L20.6262976,7.58333333 C20.2537059,7.58333333 19.9515571,7.322175 19.9515571,7 C19.9515571,6.677825 20.2537059,6.41666667 20.6262976,6.41666667 L23.3252595,6.41666667 C23.6978512,6.41666667 24,6.677825 24,7 L24,27.4166667 C24,27.7387833 23.6978512,28 23.3252595,28 Z" id="Shape" fill="#418CFE"></path>
            <path d="M16.5978261,21.1891892 L2.90217391,21.1891892 C2.54197826,21.1891892 2.25,20.9273307 2.25,20.6044226 C2.25,20.2815145 2.54197826,20.019656 2.90217391,20.019656 L16.5978261,20.019656 C16.9579565,20.019656 17.25,20.2815145 17.25,20.6044226 C17.25,20.9273307 16.9579565,21.1891892 16.5978261,21.1891892 Z M16.5978261,18.8501229 L2.90217391,18.8501229 C2.54197826,18.8501229 2.25,18.5882644 2.25,18.2653563 C2.25,17.9424482 2.54197826,17.6805897 2.90217391,17.6805897 L16.5978261,17.6805897 C16.9579565,17.6805897 17.25,17.9424482 17.25,18.2653563 C17.25,18.5882644 16.9579565,18.8501229 16.5978261,18.8501229 Z M16.5978261,16.5110565 L2.90217391,16.5110565 C2.54197826,16.5110565 2.25,16.249198 2.25,15.9262899 C2.25,15.6033818 2.54197826,15.3415233 2.90217391,15.3415233 L16.5978261,15.3415233 C16.9579565,15.3415233 17.25,15.6033818 17.25,15.9262899 C17.25,16.249198 16.9579565,16.5110565 16.5978261,16.5110565 Z M16.5978261,14.1719902 L2.90217391,14.1719902 C2.54197826,14.1719902 2.25,13.9101902 2.25,13.5872236 C2.25,13.264257 2.54197826,13.002457 2.90217391,13.002457 L16.5978261,13.002457 C16.9579565,13.002457 17.25,13.264257 17.25,13.5872236 C17.25,13.9101902 16.9579565,14.1719902 16.5978261,14.1719902 Z M16.5978261,11.8329238 L2.90217391,11.8329238 C2.54197826,11.8329238 2.25,11.5711238 2.25,11.2481572 C2.25,10.9251907 2.54197826,10.6633907 2.90217391,10.6633907 L16.5978261,10.6633907 C16.9579565,10.6633907 17.25,10.9251907 17.25,11.2481572 C17.25,11.5711238 16.9579565,11.8329238 16.5978261,11.8329238 Z M8.77173913,9.49385749 L2.90217391,9.49385749 C2.54197826,9.49385749 2.25,9.23205749 2.25,8.90909091 C2.25,8.58612432 2.54197826,8.32432432 2.90217391,8.32432432 L8.77173913,8.32432432 C9.13193478,8.32432432 9.42391304,8.58612432 9.42391304,8.90909091 C9.42391304,9.23205749 9.13193478,9.49385749 8.77173913,9.49385749 Z" id="Shape" fill="#418CFE"></path>
        </g>
        <g id="Group-2-Copy-4" transform="translate(723.000000, 519.000000)" fill-rule="nonzero">
            <path d="M21.75,7.56756757 L21.75,28 L4.5,28 L4.5,25.6648649 C4.50564312,25.6579178 19.1775056,7.57679135 19.1849442,7.56756757 L21.75,7.56756757 Z" id="Path" fill="#A4C2F7"></path>
            <path d="M19.5,24.972973 C18.9039724,24.972973 0.366196552,24.972973 0,24.972973 C0,23.5191009 0,2.48417658 0,1.51351351 L14.1206897,1.51351351 L15.5776086,4.62284144 L19.5,5.98198198 C19.5,6.8182 19.5,24.0230324 19.5,24.972973 Z" id="Path" fill="#FFFFFF"></path>
            <polygon id="Path" fill="#A4C2F7" points="20.25 5.2972973 15 5.2972973 15 0.756756757"></polygon>
            <path d="M19.5967742,25.7297297 L0.653225806,25.7297297 C0.292449194,25.7297297 0,25.4678713 0,25.1449631 L0,0.584766585 C0,0.2618 0.292449194,0 0.653225806,0 L14.3709677,0 C14.5442032,0 14.7103185,0.061634398 14.8328637,0.171278133 L20.0586702,4.84941081 C20.18115,4.95905455 20.25,5.10781916 20.25,5.26289926 L20.25,25.1449631 C20.25,25.4678713 19.9574855,25.7297297 19.5967742,25.7297297 Z M1.30645161,24.5601966 L18.9435484,24.5601966 L18.9435484,5.50510958 L14.1003363,1.16953317 L1.30645161,1.16953317 L1.30645161,24.5601966 Z" id="Shape" fill="#418CFE"></path>
            <path d="M20.6262976,5.83333333 L15.2283737,5.83333333 C14.855782,5.83333333 14.5536332,5.572175 14.5536332,5.25 L14.5536332,0.583333333 C14.5536332,0.261158333 14.855782,0 15.2283737,0 C15.6009654,0 15.9031142,0.261158333 15.9031142,0.583333333 L15.9031142,4.66666667 L20.6262976,4.66666667 C20.9988893,4.66666667 21.3010381,4.927825 21.3010381,5.25 C21.3010381,5.572175 20.9988893,5.83333333 20.6262976,5.83333333 Z M23.3252595,28 L5.17474048,28 C4.80208131,28 4.5,27.7387833 4.5,27.4166667 L4.5,25.0833333 C4.5,24.7612167 4.80208131,24.5 5.17474048,24.5 C5.54739965,24.5 5.84948097,24.7612167 5.84948097,25.0833333 L5.84948097,26.8333333 L22.650519,26.8333333 L22.650519,7.58333333 L20.6262976,7.58333333 C20.2537059,7.58333333 19.9515571,7.322175 19.9515571,7 C19.9515571,6.677825 20.2537059,6.41666667 20.6262976,6.41666667 L23.3252595,6.41666667 C23.6978512,6.41666667 24,6.677825 24,7 L24,27.4166667 C24,27.7387833 23.6978512,28 23.3252595,28 Z" id="Shape" fill="#418CFE"></path>
            <path d="M16.5978261,21.1891892 L2.90217391,21.1891892 C2.54197826,21.1891892 2.25,20.9273307 2.25,20.6044226 C2.25,20.2815145 2.54197826,20.019656 2.90217391,20.019656 L16.5978261,20.019656 C16.9579565,20.019656 17.25,20.2815145 17.25,20.6044226 C17.25,20.9273307 16.9579565,21.1891892 16.5978261,21.1891892 Z M16.5978261,18.8501229 L2.90217391,18.8501229 C2.54197826,18.8501229 2.25,18.5882644 2.25,18.2653563 C2.25,17.9424482 2.54197826,17.6805897 2.90217391,17.6805897 L16.5978261,17.6805897 C16.9579565,17.6805897 17.25,17.9424482 17.25,18.2653563 C17.25,18.5882644 16.9579565,18.8501229 16.5978261,18.8501229 Z M16.5978261,16.5110565 L2.90217391,16.5110565 C2.54197826,16.5110565 2.25,16.249198 2.25,15.9262899 C2.25,15.6033818 2.54197826,15.3415233 2.90217391,15.3415233 L16.5978261,15.3415233 C16.9579565,15.3415233 17.25,15.6033818 17.25,15.9262899 C17.25,16.249198 16.9579565,16.5110565 16.5978261,16.5110565 Z M16.5978261,14.1719902 L2.90217391,14.1719902 C2.54197826,14.1719902 2.25,13.9101902 2.25,13.5872236 C2.25,13.264257 2.54197826,13.002457 2.90217391,13.002457 L16.5978261,13.002457 C16.9579565,13.002457 17.25,13.264257 17.25,13.5872236 C17.25,13.9101902 16.9579565,14.1719902 16.5978261,14.1719902 Z M16.5978261,11.8329238 L2.90217391,11.8329238 C2.54197826,11.8329238 2.25,11.5711238 2.25,11.2481572 C2.25,10.9251907 2.54197826,10.6633907 2.90217391,10.6633907 L16.5978261,10.6633907 C16.9579565,10.6633907 17.25,10.9251907 17.25,11.2481572 C17.25,11.5711238 16.9579565,11.8329238 16.5978261,11.8329238 Z M8.77173913,9.49385749 L2.90217391,9.49385749 C2.54197826,9.49385749 2.25,9.23205749 2.25,8.90909091 C2.25,8.58612432 2.54197826,8.32432432 2.90217391,8.32432432 L8.77173913,8.32432432 C9.13193478,8.32432432 9.42391304,8.58612432 9.42391304,8.90909091 C9.42391304,9.23205749 9.13193478,9.49385749 8.77173913,9.49385749 Z" id="Shape" fill="#418CFE"></path>
        </g>
        <g id="Group" transform="translate(117.000000, 281.000000)">
            <ellipse id="Oval-Copy-11" stroke="#0055C2" stroke-width="6" fill="#7BB2FF" cx="15.0649351" cy="15" rx="12.0649351" ry="12"></ellipse>
            <ellipse id="Oval-Copy-12" stroke="#0055C2" stroke-width="6" fill="#7BB2FF" cx="100.935065" cy="15" rx="12.0649351" ry="12"></ellipse>
            <path id="Line-13-Copy-9" d="M77.8689014,10.125 L86.8689014,14.625 L77.8689014,19.125 L77.868,15.125 L29.8843454,15.125 L29.8843454,14.125 L77.868,14.125 L77.8689014,10.125 Z" fill="#0055C2" fill-rule="nonzero"></path>
        </g>
        <g id="Group-Copy" transform="translate(469.000000, 281.000000)" stroke-width="6">
            <ellipse id="Oval-Copy-11" stroke="#0055C2" fill="#7BB2FF" cx="15.0649351" cy="15" rx="12.0649351" ry="12"></ellipse>
            <ellipse id="Oval-Copy-12" stroke="#999999" fill="#C5C4C4" cx="100.935065" cy="15" rx="12.0649351" ry="12"></ellipse>
        </g>
        <g id="Group-Copy-2" transform="translate(114.000000, 453.000000)" stroke-width="6">
            <ellipse id="Oval-Copy-11" stroke="#0055C2" fill="#7BB2FF" cx="15.0649351" cy="15" rx="12.0649351" ry="12"></ellipse>
            <ellipse id="Oval-Copy-12" stroke="#999999" fill="#C5C4C4" cx="100.935065" cy="15" rx="12.0649351" ry="12"></ellipse>
        </g>
        <g id="Group-Copy-3" transform="translate(469.000000, 453.000000)" fill="#7BB2FF" stroke="#0055C2" stroke-width="6">
            <ellipse id="Oval-Copy-11" cx="15.0649351" cy="15" rx="12.0649351" ry="12"></ellipse>
            <ellipse id="Oval-Copy-12" cx="100.935065" cy="15" rx="12.0649351" ry="12"></ellipse>
        </g>
        <text id="Status-B-Copy" font-family="Helvetica" font-size="18" font-weight="normal" fill="#0055C2">
            <tspan x="179.981934" y="272">Status B</tspan>
        </text>
        <text id="Status-B-Copy-3" font-family="Helvetica" font-size="18" font-weight="normal" fill="#0055C2">
            <tspan x="179.981934" y="444">Status B</tspan>
        </text>
        <line x1="720.5" y1="351.5" x2="750.5" y2="380.5" id="Line-Copy-8" stroke="#FF6464" stroke-width="3" stroke-linecap="square"></line>
        <text id="Status-B-Copy-2" font-family="Helvetica" font-size="18" font-weight="normal" fill="#0055C2">
            <tspan x="531.981934" y="272">Status B</tspan>
        </text>
        <text id="Status-B-Copy-4" font-family="Helvetica" font-size="18" font-weight="normal" fill="#0055C2">
            <tspan x="531.981934" y="444">Status B</tspan>
        </text>
        <text id="Status-C-Copy" font-family="Helvetica" font-size="18" font-weight="normal" fill="#0055C2">
            <tspan x="264.985352" y="272">Status C</tspan>
        </text>
        <line x1="720.5" y1="351.5" x2="750.5" y2="380.5" id="Line-Copy-9" stroke="#FF6464" stroke-width="3" stroke-linecap="square" transform="translate(735.500000, 366.000000) scale(-1, 1) translate(-735.500000, -366.000000) "></line>
        <line x1="555.5" y1="283.5" x2="585.5" y2="312.5" id="Line-Copy-2" stroke="#FF6464" stroke-width="3" stroke-linecap="square"></line>
        <line x1="200.5" y1="455.5" x2="230.5" y2="484.5" id="Line-Copy-12" stroke="#FF6464" stroke-width="3" stroke-linecap="square"></line>
        <line x1="555.5" y1="454.5" x2="585.5" y2="483.5" id="Line-Copy-6" stroke="#FF6464" stroke-width="3" stroke-linecap="square"></line>
        <text id="Status-C-Copy-3" font-family="Helvetica" font-size="18" font-weight="normal" fill="#0055C2">
            <tspan x="264.985352" y="444">Status C</tspan>
        </text>
        <line x1="555.5" y1="283.5" x2="585.5" y2="312.5" id="Line-Copy-3" stroke="#FF6464" stroke-width="3" stroke-linecap="square" transform="translate(570.500000, 298.000000) scale(-1, 1) translate(-570.500000, -298.000000) "></line>
        <line x1="200.5" y1="455.5" x2="230.5" y2="484.5" id="Line-Copy-13" stroke="#FF6464" stroke-width="3" stroke-linecap="square" transform="translate(215.500000, 470.000000) scale(-1, 1) translate(-215.500000, -470.000000) "></line>
        <line x1="555.5" y1="454.5" x2="585.5" y2="483.5" id="Line-Copy-7" stroke="#FF6464" stroke-width="3" stroke-linecap="square" transform="translate(570.500000, 469.000000) scale(-1, 1) translate(-570.500000, -469.000000) "></line>
        <path id="Line-13-Copy-9" d="M275.368901,322.625 L289.368901,329.625 L275.368901,336.625 L275.368,330.625 L232.384345,330.625 L232.384345,328.625 L275.368,328.625 L275.368901,322.625 Z" transform="translate(261.376623, 329.625000) scale(-1, 1) translate(-261.376623, -329.625000) " fill="#FF6464" fill-rule="nonzero"></path>
        <path id="Line-13-Copy-11" d="M617.868938,322.611955 L631.862408,329.625 L617.85589,336.611949 L617.861,330.611 L497.745821,330.5 L496.745822,330.499068 L496.747686,328.499068 L497.747685,328.5 L617.862,328.611 L617.868938,322.611955 Z" transform="translate(565.123377, 329.250000) scale(-1, 1) translate(-565.123377, -329.250000) " fill="#FF6464" fill-rule="nonzero"></path>
        <path id="Line-13-Copy-14" d="M262.868938,494.611955 L276.862408,501.625 L262.85589,508.611949 L262.861,502.611 L142.745821,502.5 L141.745822,502.499068 L141.747686,500.499068 L142.747685,500.5 L262.862,500.611 L262.868938,494.611955 Z" transform="translate(210.123377, 501.250000) scale(-1, 1) translate(-210.123377, -501.250000) " fill="#FF6464" fill-rule="nonzero"></path>
        <path id="Line-13-Copy-12" d="M706.850636,357.648593 L720.862408,364.625 L706.874219,371.648573 L706.864,365.648 L498.248438,365.999999 L497.248439,366.001683 L497.24507,364.001686 L498.245069,364.000001 L706.86,363.648 L706.850636,357.648593 Z" transform="translate(609.623377, 365.250000) scale(-1, 1) translate(-609.623377, -365.250000) " fill="#FF6464" fill-rule="nonzero"></path>
        <path id="Line-13-Copy-10" d="M542.368901,289.625 L556.368901,296.625 L542.368901,303.625 L542.368,297.625 L499.384345,297.625 L499.384345,295.625 L542.368,295.625 L542.368901,289.625 Z" transform="translate(528.376623, 296.625000) scale(-1, 1) translate(-528.376623, -296.625000) " fill="#FF6464" fill-rule="nonzero"></path>
        <path id="Line-13-Copy-15" d="M187.368901,461.625 L201.368901,468.625 L187.368901,475.625 L187.368,469.625 L144.384345,469.625 L144.384345,467.625 L187.368,467.625 L187.368901,461.625 Z" transform="translate(173.376623, 468.625000) scale(-1, 1) translate(-173.376623, -468.625000) " fill="#FF6464" fill-rule="nonzero"></path>
        <path id="Line-13-Copy-13" d="M542.368901,461.625 L556.368901,468.625 L542.368901,475.625 L542.368,469.625 L499.384345,469.625 L499.384345,467.625 L542.368,467.625 L542.368901,461.625 Z" transform="translate(528.376623, 468.625000) scale(-1, 1) translate(-528.376623, -468.625000) " fill="#FF6464" fill-rule="nonzero"></path>
        <text id="Status-C-Copy-2" font-family="Helvetica" font-size="18" font-weight="normal" fill="#0055C2">
            <tspan x="616.985352" y="272">Status C</tspan>
        </text>
        <text id="Status-C-Copy-4" font-family="Helvetica" font-size="18" font-weight="normal" fill="#0055C2">
            <tspan x="616.985352" y="444">Status C</tspan>
        </text>
        <text id="Status-D" font-family="Helvetica" font-size="18" font-weight="normal" fill="#0055C2">
            <tspan x="348.985352" y="272">Status D</tspan>
        </text>
        <text id="Status-D-Copy-2" font-family="Helvetica" font-size="18" font-weight="normal" fill="#0055C2">
            <tspan x="348.985352" y="444">Status D</tspan>
        </text>
        <text id="Status-D-Copy" font-family="Helvetica" font-size="18" font-weight="normal" fill="#0055C2">
            <tspan x="700.985352" y="272">Status D</tspan>
        </text>
        <text id="Status-D-Copy-3" font-family="Helvetica" font-size="18" font-weight="normal" fill="#0055C2">
            <tspan x="700.985352" y="444">Status D</tspan>
        </text>
        <line x1="169.5" y1="254.139186" x2="169.5" y2="383.860814" id="Line-12-Copy" stroke="#979797" stroke-linecap="square" stroke-dasharray="5"></line>
        <line x1="169.5" y1="426.139186" x2="169.5" y2="555.860814" id="Line-12-Copy-7" stroke="#979797" stroke-linecap="square" stroke-dasharray="5"></line>
        <line x1="521.5" y1="254.139186" x2="521.5" y2="383.860814" id="Line-12-Copy-4" stroke="#979797" stroke-linecap="square" stroke-dasharray="5"></line>
        <line x1="521.5" y1="426.139186" x2="521.5" y2="555.860814" id="Line-12-Copy-8" stroke="#979797" stroke-linecap="square" stroke-dasharray="5"></line>
        <line x1="254.5" y1="254.139186" x2="254.5" y2="383.860814" id="Line-12-Copy-2" stroke="#979797" stroke-linecap="square" stroke-dasharray="5" transform="translate(254.500000, 319.000000) scale(-1, 1) translate(-254.500000, -319.000000) "></line>
        <line x1="254.5" y1="426.139186" x2="254.5" y2="555.860814" id="Line-12-Copy-9" stroke="#979797" stroke-linecap="square" stroke-dasharray="5"></line>
        <line x1="606.5" y1="254.139186" x2="606.5" y2="383.860814" id="Line-12-Copy-5" stroke="#979797" stroke-linecap="square" stroke-dasharray="5"></line>
        <line x1="606.5" y1="426.139186" x2="606.5" y2="555.860814" id="Line-12-Copy-10" stroke="#979797" stroke-linecap="square" stroke-dasharray="5"></line>
        <line x1="339.5" y1="254.139186" x2="339.5" y2="383.860814" id="Line-12-Copy-3" stroke="#979797" stroke-linecap="square" stroke-dasharray="5"></line>
        <line x1="339.5" y1="426.139186" x2="339.5" y2="555.860814" id="Line-12-Copy-11" stroke="#979797" stroke-linecap="square" stroke-dasharray="5"></line>
        <line x1="691.5" y1="254.139186" x2="691.5" y2="383.860814" id="Line-12-Copy-6" stroke="#979797" stroke-linecap="square" stroke-dasharray="5"></line>
        <line x1="691.5" y1="426.139186" x2="691.5" y2="555.860814" id="Line-12-Copy-12" stroke="#979797" stroke-linecap="square" stroke-dasharray="5"></line>
        <text id="$-git-reset" font-family="Helvetica-Bold, Helvetica" font-size="21" font-weight="bold" fill="#0055C2">
            <tspan x="209.396729" y="246">$ git reset</tspan>
        </text>
        <text id="$-git-reset---mixed" font-family="Helvetica-Bold, Helvetica" font-size="21" font-weight="bold" fill="#0055C2">
            <tspan x="94.4658203" y="417">$ git reset --mixed [commit hash]</tspan>
        </text>
        <text id="$-git-reset---hard-[" font-family="Helvetica-Bold, Helvetica" font-size="21" font-weight="bold" fill="#0055C2">
            <tspan x="454.058838" y="246">$ git reset --hard [commit hash]</tspan>
        </text>
        <text id="$-git-reset---soft-[" font-family="Helvetica-Bold, Helvetica" font-size="21" font-weight="bold" fill="#0055C2">
            <tspan x="457.565674" y="417">$ git reset --soft [commit hash]</tspan>
        </text>
        <ellipse id="Oval-Copy-11" stroke="#0055C2" stroke-width="6" fill="#7BB2FF" cx="48.0649351" cy="250" rx="12.0649351" ry="12"></ellipse>
        <text id="Commit" font-family="Helvetica" font-size="18" font-weight="normal" fill="#0055C2">
            <tspan x="17.0009766" y="283">Commit</tspan>
        </text>
        <text id="Working-Tree" font-family="Helvetica" font-size="18" font-weight="normal" fill="#0055C2">
            <tspan x="15.6508789" y="444">Working </tspan>
            <tspan x="30.3242188" y="466">Tree</tspan>
        </text>
        <text id="INDEX" font-family="Helvetica" font-size="18" font-weight="normal" fill="#0055C2">
            <tspan x="20.9946289" y="364">INDEX</tspan>
        </text>
    </g>
</svg>