<?xml version="1.0" encoding="UTF-8"?>
<svg width="800px" height="600px" viewBox="0 0 800 600" version="1.1" xmlns="http://www.w3.org/2000/svg" xmlns:xlink="http://www.w3.org/1999/xlink">
    <title>2041-10-16-18-10_Fast-forwardMerge</title>
    <defs>
        <path d="M8.68744595,14.5405413 C10.6544909,13.5649687 12,11.5915112 12,9.31636202 C12,6.07252388 9.26504479,3.44227578 5.89152197,3.44227578 C4.52034181,3.44227578 3.25480793,3.87689217 2.23537065,4.61058921 L2.23537065,1.05770107 C2.23537065,0.476155373 1.74046224,0 1.11695169,0 C0.493934821,0 0.0167986821,0.476630104 0.0167986821,1.05770107 L0.0167986821,1.80184219 L0,9.32158406 C-0.0041824725,11.2003327 0.951817666,12.865215 2.41753644,13.8939574 C2.4777647,13.9362085 2.55848043,13.9312238 2.6127846,13.8823265 C2.66758244,13.8334292 2.6779496,13.7558106 2.63746831,13.6950451 C0.724974359,10.8146136 1.16014819,5.53963813 5.89176881,5.53963813 C8.05899866,5.53963813 9.80709909,7.22944376 9.81623206,9.31351363 C9.82240299,10.8599505 9.11620201,12.0365717 8.19549958,12.7781018 C6.36026565,14.2561773 3.64974731,12.6382934 4.49738595,10.4697214 C4.5894562,10.2335427 4.71879884,9.9959397 4.88664808,9.76189723 L5.12361171,9.47705853 C5.19766284,9.39967734 5.25048599,9.29903433 5.2146946,9.19411874 C5.01401603,8.62800181 3.46832203,8.97526767 3.04005964,10.0315445 C3.34292878,9.79631524 3.65986763,9.66433998 3.96940137,9.71489885 C2.38890334,11.275815 3.44141679,13.9563846 5.46005069,14.7513219 C6.40494316,15.1232738 7.55964718,15.0976383 8.68744595,14.5405413" id="path-1"></path>
        <linearGradient x1="28.568518%" y1="104.445731%" x2="78.3472072%" y2="20.6880271%" id="linearGradient-3">
            <stop stop-color="#000F98" offset="0%"></stop>
            <stop stop-color="#00A5FD" offset="100%"></stop>
        </linearGradient>
        <path d="M396.517667,322 L496.054054,322 C496.606339,322 497.054054,322.447715 497.054054,323 L497.054054,344.560976 C497.054054,345.11326 497.501769,345.560976 498.054054,345.560976 L541.384309,345.560976 C541.936593,345.560976 542.384309,346.008691 542.384309,346.560976 C542.384309,347.047317 542.034408,347.463139 541.555223,347.546262 L446.878361,363.969529 C446.762171,363.989684 446.643333,363.989129 446.527337,363.96789 L356.833468,347.544622 C356.290215,347.445151 355.930459,346.924119 356.02993,346.380866 C356.11689,345.905945 356.53076,345.560976 357.013577,345.560976 L394.517667,345.560976 C395.069952,345.560976 395.517667,345.11326 395.517667,344.560976 L395.517667,323 C395.517667,322.447715 395.965383,322 396.517667,322 Z" id="path-4"></path>
        <filter x="3.9%" y="-4.8%" width="93.9%" height="119.0%" filterUnits="objectBoundingBox" id="filter-5">
            <feOffset dx="2" dy="2" in="SourceAlpha" result="shadowOffsetOuter1"></feOffset>
            <feGaussianBlur stdDeviation="1" in="shadowOffsetOuter1" result="shadowBlurOuter1"></feGaussianBlur>
            <feColorMatrix values="0 0 0 0 0   0 0 0 0 0   0 0 0 0 0  0 0 0 0.5 0" type="matrix" in="shadowBlurOuter1"></feColorMatrix>
        </filter>
        <filter x="-54.5%" y="-38.7%" width="209.1%" height="177.4%" filterUnits="objectBoundingBox" id="filter-6">
            <feOffset dx="0" dy="2" in="SourceAlpha" result="shadowOffsetOuter1"></feOffset>
            <feGaussianBlur stdDeviation="2" in="shadowOffsetOuter1" result="shadowBlurOuter1"></feGaussianBlur>
            <feColorMatrix values="0 0 0 0 1   0 0 0 0 1   0 0 0 0 1  0 0 0 1 0" type="matrix" in="shadowBlurOuter1" result="shadowMatrixOuter1"></feColorMatrix>
            <feMerge>
                <feMergeNode in="shadowMatrixOuter1"></feMergeNode>
                <feMergeNode in="SourceGraphic"></feMergeNode>
            </feMerge>
        </filter>
        <filter x="-54.5%" y="-38.7%" width="209.1%" height="177.4%" filterUnits="objectBoundingBox" id="filter-7">
            <feOffset dx="0" dy="2" in="SourceAlpha" result="shadowOffsetOuter1"></feOffset>
            <feGaussianBlur stdDeviation="2" in="shadowOffsetOuter1" result="shadowBlurOuter1"></feGaussianBlur>
            <feColorMatrix values="0 0 0 0 1   0 0 0 0 1   0 0 0 0 1  0 0 0 1 0" type="matrix" in="shadowBlurOuter1" result="shadowMatrixOuter1"></feColorMatrix>
            <feMerge>
                <feMergeNode in="shadowMatrixOuter1"></feMergeNode>
                <feMergeNode in="SourceGraphic"></feMergeNode>
            </feMerge>
        </filter>
        <filter x="-56.8%" y="-40.3%" width="213.6%" height="180.6%" filterUnits="objectBoundingBox" id="filter-8">
            <feOffset dx="0" dy="2" in="SourceAlpha" result="shadowOffsetOuter1"></feOffset>
            <feGaussianBlur stdDeviation="2" in="shadowOffsetOuter1" result="shadowBlurOuter1"></feGaussianBlur>
            <feColorMatrix values="0 0 0 0 1   0 0 0 0 1   0 0 0 0 1  0 0 0 1 0" type="matrix" in="shadowBlurOuter1" result="shadowMatrixOuter1"></feColorMatrix>
            <feMerge>
                <feMergeNode in="shadowMatrixOuter1"></feMergeNode>
                <feMergeNode in="SourceGraphic"></feMergeNode>
            </feMerge>
        </filter>
        <path d="M576,89 L612,89 C614.209139,89 616,90.790861 616,93 L616,342.083514 C616,344.292653 614.209139,346.083514 612,346.083514 L601.618194,346.083514 L601.618194,346.083514 L616,375 L582.266667,346.083514 L576,346.083514 C573.790861,346.083514 572,344.292653 572,342.083514 L572,93 C572,90.790861 573.790861,89 576,89 Z" id="path-9"></path>
        <filter x="-7.4%" y="-1.1%" width="111.4%" height="101.8%" filterUnits="objectBoundingBox" id="filter-10">
            <feMorphology radius="0.25" operator="dilate" in="SourceAlpha" result="shadowSpreadOuter1"></feMorphology>
            <feOffset dx="-1" dy="-1" in="shadowSpreadOuter1" result="shadowOffsetOuter1"></feOffset>
            <feGaussianBlur stdDeviation="0.5" in="shadowOffsetOuter1" result="shadowBlurOuter1"></feGaussianBlur>
            <feComposite in="shadowBlurOuter1" in2="SourceAlpha" operator="out" result="shadowBlurOuter1"></feComposite>
            <feColorMatrix values="0 0 0 0 0   0 0 0 0 0   0 0 0 0 0  0 0 0 0.5 0" type="matrix" in="shadowBlurOuter1"></feColorMatrix>
        </filter>
        <filter x="-5.1%" y="-0.8%" width="106.9%" height="101.1%" filterUnits="objectBoundingBox" id="filter-11">
            <feOffset dx="0" dy="0" in="SourceAlpha" result="shadowOffsetInner1"></feOffset>
            <feComposite in="shadowOffsetInner1" in2="SourceAlpha" operator="arithmetic" k2="-1" k3="1" result="shadowInnerInner1"></feComposite>
            <feColorMatrix values="0 0 0 0 0   0 0 0 0 0   0 0 0 0 0  0 0 0 0.5 0" type="matrix" in="shadowInnerInner1"></feColorMatrix>
        </filter>
    </defs>
    <g id="2041-10-16-18-10_Fast-forwardMerge" stroke="none" stroke-width="1" fill="none" fill-rule="evenodd">
        <rect fill="#FFFFFF" x="0" y="0" width="800" height="600"></rect>
        <g id="bloovee-winner-logo" transform="translate(725.000000, 580.000000)">
            <path d="M13,13.7751507 C13,14.396312 13.4732558,14.8717809 14.0514961,14.8717809 C14.6474304,14.8717809 15.1204503,14.3968042 15.1204503,13.7751507 L15.1204503,2.09687626 C15.1204503,1.49368045 14.6474304,1 14.0514961,1 C13.4557977,1 13,1.49392656 13,2.09687626 L13,13.7751507 Z M21.7920364,15 C24.6483217,15 26.751078,12.7149437 26.751078,9.97312215 L26.751078,9.93645297 C26.751078,7.17641992 24.6657798,4.92778666 21.8269526,4.92778666 C18.9881254,4.92778666 16.885369,7.212843 16.885369,9.97312215 L16.885369,10.0095452 C16.885369,12.7516128 18.9706673,15 21.7920364,15 Z M21.8269526,13.0621935 C20.179994,13.0621935 19.0055834,11.6547366 19.0055834,9.97312215 L19.0055834,9.93645297 C19.0055834,8.25459244 20.0919958,6.86534709 21.7920364,6.86534709 C23.456689,6.86534709 24.6306277,8.27305008 24.6306277,9.97312215 L24.6306277,10.0095452 C24.6306277,11.6731942 23.5444513,13.0621935 21.8269526,13.0621935 Z M32.8092717,15 C35.665557,15 37.7683133,12.7149437 37.7683133,9.97312215 L37.7683133,9.93645297 C37.7683133,7.17641992 35.6830151,4.92778666 32.8441878,4.92778666 C30.0053606,4.92778666 27.9026043,7.212843 27.9026043,9.97312215 L27.9026043,10.0095452 C27.9026043,12.7516128 29.9879025,15 32.8092717,15 Z M32.8441878,13.0621935 C31.1969933,13.0621935 30.0228187,11.6547366 30.0228187,9.97312215 L30.0228187,9.93645297 C30.0228187,8.25459244 31.109231,6.86534709 32.8092717,6.86534709 C34.4739243,6.86534709 35.647863,8.27305008 35.647863,9.97312215 L35.647863,10.0095452 C35.647863,11.6731942 34.5614506,13.0621935 32.8441878,13.0621935 Z M44.1416963,13.9944275 L47.2261164,6.6096472 C47.2784906,6.49988574 47.3487948,6.28060893 47.3487948,6.07954366 C47.3487948,5.47610175 46.8929971,5.01933658 46.3147568,5.01933658 C45.7539746,5.01933658 45.4737015,5.40300947 45.3158709,5.78692847 L42.8976893,12.2215093 L40.5144239,5.82335156 C40.3393711,5.36634029 40.041404,5.01933658 39.4629278,5.01933658 C38.8846875,5.01933658 38.4116676,5.53098247 38.4116676,6.07954366 C38.4116676,6.28060893 38.4817358,6.46346265 38.534346,6.62785874 L41.6182943,13.9944275 C41.8638872,14.5796579 42.2491448,14.9633308 42.8273851,14.9633308 L42.9326055,14.9633308 C43.5108458,14.9633308 43.8965752,14.5612003 44.1416963,13.9944275 Z M50.0949054,9.27837643 C50.2876522,7.77961573 51.1987758,6.73762019 52.4956289,6.73762019 C53.8974665,6.73762019 54.7036056,7.8524619 54.8437422,9.27837643 L50.0949054,9.27837643 Z M56.070527,13.72027 C56.2281217,13.5558739 56.3508002,13.3181395 56.3508002,13.0439819 C56.3508002,12.5320899 55.9830006,12.1481709 55.5095089,12.1481709 C55.2641519,12.1481709 55.1242513,12.2215093 54.9664207,12.3492362 C54.3704864,12.8611282 53.6695676,13.1901665 52.7759021,13.1901665 C51.4089807,13.1901665 50.3402624,12.3128131 50.1123635,10.7409601 L55.9126964,10.7409601 C56.4560206,10.7409601 56.9115824,10.3021604 56.9115824,9.68050697 C56.9115824,7.45057746 55.4568987,4.92778666 52.513087,4.92778666 C49.8672425,4.92778666 47.9919132,7.19438536 47.9919132,9.95466451 L47.9919132,9.9913337 C47.9919132,12.9708897 50.0597533,15 52.7409859,15 C54.1779755,15 55.2292357,14.5063195 56.070527,13.72027 Z M60.1833231,9.27837643 C60.3763058,7.77961573 61.2871935,6.73762019 62.5842825,6.73762019 C63.9858841,6.73762019 64.7920233,7.8524619 64.9321598,9.27837643 L60.1833231,9.27837643 Z M66.1589447,13.72027 C66.3167752,13.5558739 66.4394537,13.3181395 66.4394537,13.0439819 C66.4394537,12.5320899 66.0714183,12.1481709 65.5981624,12.1481709 C65.3528055,12.1481709 65.2126689,12.2215093 65.0548383,12.3492362 C64.4591399,12.8611282 63.7582212,13.1901665 62.8643197,13.1901665 C61.4976342,13.1901665 60.4289159,12.3128131 60.2007812,10.7409601 L66.0011141,10.7409601 C66.5444382,10.7409601 67,10.3021604 67,9.68050697 C67,7.45057746 65.5455522,4.92778666 62.6015046,4.92778666 C59.9556601,4.92778666 58.0805667,7.19438536 58.0805667,9.95466451 L58.0805667,9.9913337 C58.0805667,12.9708897 60.1484069,15 62.8294035,15 C64.2663932,15 65.3178893,14.5063195 66.1589447,13.72027 L66.1589447,13.72027 Z" id="Fill-1" fill="#030060"></path>
            <g id="Group-4">
                <mask id="mask-2" fill="white">
                    <use xlink:href="#path-1"></use>
                </mask>
                <g id="Clip-3"></g>
                <path d="M8.68744595,14.5405413 C10.6544909,13.5649687 12,11.5915112 12,9.31636202 C12,6.07252388 9.26504479,3.44227578 5.89152197,3.44227578 C4.52034181,3.44227578 3.25480793,3.87689217 2.23537065,4.61058921 L2.23537065,1.05770107 C2.23537065,0.476155373 1.74046224,0 1.11695169,0 C0.493934821,0 0.0167986821,0.476630104 0.0167986821,1.05770107 L0.0167986821,1.80184219 L0,9.32158406 C-0.0041824725,11.2003327 0.951817666,12.865215 2.41753644,13.8939574 C2.4777647,13.9362085 2.55848043,13.9312238 2.6127846,13.8823265 C2.66758244,13.8334292 2.6779496,13.7558106 2.63746831,13.6950451 C0.724974359,10.8146136 1.16014819,5.53963813 5.89176881,5.53963813 C8.05899866,5.53963813 9.80709909,7.22944376 9.81623206,9.31351363 C9.82240299,10.8599505 9.11620201,12.0365717 8.19549958,12.7781018 C6.36026565,14.2561773 3.64974731,12.6382934 4.49738595,10.4697214 C4.5894562,10.2335427 4.71879884,9.9959397 4.88664808,9.76189723 L5.12361171,9.47705853 C5.19766284,9.39967734 5.25048599,9.29903433 5.2146946,9.19411874 C5.01401603,8.62800181 3.46832203,8.97526767 3.04005964,10.0315445 C3.34292878,9.79631524 3.65986763,9.66433998 3.96940137,9.71489885 C2.38890334,11.275815 3.44141679,13.9563846 5.46005069,14.7513219 C6.40494316,15.1232738 7.55964718,15.0976383 8.68744595,14.5405413" id="Fill-2" fill="url(#linearGradient-3)" mask="url(#mask-2)"></path>
            </g>
        </g>
        <text id="Fast-forward-Merge" fill-rule="nonzero" font-family="Helvetica" font-size="18" font-weight="normal" fill="#0055C2">
            <tspan x="10" y="23">Fast-forward Merge</tspan>
        </text>
        <text id="HEAD,-Master-(M3)" font-family="Helvetica" font-size="18" font-weight="normal" fill="#006AE1">
            <tspan x="417" y="255">HEAD, </tspan>
            <tspan x="417" y="277">Master</tspan>
            <tspan x="428.503418" y="299">(M3)</tspan>
        </text>
        <text id="HEAD,-Master-Copy" font-family="Helvetica" font-size="18" font-weight="normal" fill="#006AE1">
            <tspan x="574" y="507">HEAD, </tspan>
            <tspan x="574" y="529">Master</tspan>
        </text>
        <text id="HEAD,-Branch_A" font-family="Helvetica" font-size="18" font-weight="normal" fill="#199ABD">
            <tspan x="577.494629" y="105">HEAD, </tspan>
            <tspan x="562.975098" y="127"> Branch_A</tspan>
        </text>
        <text id="HEAD,-Branch_A-Copy" font-family="Helvetica" font-size="18" font-weight="normal" fill="#199ABD">
            <tspan x="577.494629" y="390">HEAD, </tspan>
            <tspan x="562.975098" y="412"> Branch_A</tspan>
        </text>
        <circle id="Oval-Copy-12" stroke="#1576ED" stroke-width="4" cx="294" cy="214" r="15"></circle>
        <circle id="Oval-Copy-19" stroke="#1576ED" stroke-width="4" cx="294" cy="451" r="15"></circle>
        <circle id="Oval-Copy-16" stroke="#199ABD" stroke-width="4" cx="527" cy="155" r="15"></circle>
        <circle id="Oval-Copy-20" stroke="#006AE1" stroke-width="4" cx="527" cy="451" r="15"></circle>
        <line x1="458.613636" y1="160.617647" x2="511.386364" y2="201.382353" id="Line-6-Copy-8" stroke="#199ABD" stroke-width="3" stroke-linecap="round" transform="translate(485.000000, 181.000000) scale(1, -1) translate(-485.000000, -181.000000) "></line>
        <line x1="313" y1="214.5" x2="355" y2="214.5" id="Line-Copy-7" stroke="#1576ED" stroke-width="3" stroke-linecap="round"></line>
        <line x1="313" y1="451.5" x2="355" y2="451.5" id="Line-Copy-8" stroke="#1576ED" stroke-width="3" stroke-linecap="round"></line>
        <line x1="543" y1="155" x2="589" y2="155" id="Line-Copy-10" stroke="#199ABD" stroke-width="3" stroke-linecap="round"></line>
        <line x1="543" y1="452" x2="589" y2="452" id="Line-Copy-12" stroke="#006AE1" stroke-width="3" stroke-linecap="round"></line>
        <line x1="464" y1="452" x2="510" y2="452" id="Line-Copy-15" stroke="#006AE1" stroke-width="3" stroke-linecap="round"></line>
        <line x1="387" y1="214.5" x2="429" y2="214.5" id="Line-Copy-9" stroke="#1576ED" stroke-width="3" stroke-linecap="round"></line>
        <line x1="387" y1="451.5" x2="429" y2="451.5" id="Line-Copy-13" stroke="#1576ED" stroke-width="3" stroke-linecap="round"></line>
        <text id="Branch-A-Master-Bran" font-family="Helvetica-Bold, Helvetica" font-size="21" font-weight="bold">
            <tspan x="56" y="449" fill="#199ABD">Branch A</tspan>
            <tspan x="56" y="474" fill="#006AE1">Master Branch</tspan>
        </text>
        <circle id="Oval-Copy-13" stroke="#1576ED" stroke-width="4" cx="372" cy="214" r="15"></circle>
        <circle id="Oval-Copy-21" stroke="#1576ED" stroke-width="4" cx="372" cy="451" r="15"></circle>
        <circle id="Oval-Copy-15" stroke="#1576ED" stroke-width="4" fill="#FF9696" cx="445" cy="214" r="15"></circle>
        <circle id="Oval-Copy-22" stroke="#1576ED" stroke-width="4" cx="445" cy="451" r="15"></circle>
        <g id="Path-2">
            <use fill="black" fill-opacity="1" filter="url(#filter-5)" xlink:href="#path-4"></use>
            <use fill="#FFC0C0" fill-rule="evenodd" xlink:href="#path-4"></use>
        </g>
        <circle id="Oval-Copy-17" stroke="#199ABD" stroke-width="4" cx="604" cy="155" r="15"></circle>
        <circle id="Oval-Copy-23" stroke="#006AE1" stroke-width="4" fill="#FF9696" cx="604" cy="451" r="15"></circle>
        <g id="location" filter="url(#filter-6)" transform="translate(434.000000, 176.000000)" fill-rule="nonzero">
            <path d="M11,0 C4.92486775,0 0,5.08831417 0,11.3650678 C0,17.36789 9.8,30.0657703 10.22,30.6133599 C10.4097968,30.8577825 10.6967035,31 11,31 C11.3032965,31 11.5902032,30.8577825 11.78,30.6133599 C12.2,30.0657703 22,17.36789 22,11.3650678 C22,5.08831417 17.0751322,0 11,0 Z M11,16.5310077 C8.23857625,16.5310077 6,14.2181376 6,11.3650678 C6,8.51199797 8.23857625,6.19912789 11,6.19912789 C13.7614237,6.19912789 16,8.51199797 16,11.3650678 C16,14.2181376 13.7614237,16.5310077 11,16.5310077 Z" id="Shape" fill="#FF9797"></path>
            <path d="M11,0 L11,6.1999988 C13.7614237,6.1999988 16,8.51319381 16,11.3666645 C16,14.2201351 13.7614237,16.5333301 11,16.5333301 L11,31 C11.3025884,31.0010572 11.5893699,30.8604852 11.78,30.6176608 C12.2,30.0699942 22,17.37033 22,11.3666645 C22,5.08902903 17.0751322,0 11,0 Z" id="Path" fill="#E47979"></path>
        </g>
        <g id="location-copy-2" filter="url(#filter-7)" transform="translate(593.000000, 421.000000)" fill-rule="nonzero">
            <path d="M11,0 C4.92486775,0 0,5.08831417 0,11.3650678 C0,17.36789 9.8,30.0657703 10.22,30.6133599 C10.4097968,30.8577825 10.6967035,31 11,31 C11.3032965,31 11.5902032,30.8577825 11.78,30.6133599 C12.2,30.0657703 22,17.36789 22,11.3650678 C22,5.08831417 17.0751322,0 11,0 Z M11,16.5310077 C8.23857625,16.5310077 6,14.2181376 6,11.3650678 C6,8.51199797 8.23857625,6.19912789 11,6.19912789 C13.7614237,6.19912789 16,8.51199797 16,11.3650678 C16,14.2181376 13.7614237,16.5310077 11,16.5310077 Z" id="Shape" fill="#FF9797"></path>
            <path d="M11,0 L11,6.1999988 C13.7614237,6.1999988 16,8.51319381 16,11.3666645 C16,14.2201351 13.7614237,16.5333301 11,16.5333301 L11,31 C11.3025884,31.0010572 11.5893699,30.8604852 11.78,30.6176608 C12.2,30.0699942 22,17.37033 22,11.3666645 C22,5.08902903 17.0751322,0 11,0 Z" id="Path" fill="#E47979"></path>
        </g>
        <g id="location-copy-3" filter="url(#filter-8)" transform="translate(434.000000, 416.000000)" fill-rule="nonzero" stroke="#979797" stroke-dasharray="2,2">
            <path d="M11,0 C4.92486775,0 0,5.08831417 0,11.3650678 C0,17.36789 9.8,30.0657703 10.22,30.6133599 C10.4097968,30.8577825 10.6967035,31 11,31 C11.3032965,31 11.5902032,30.8577825 11.78,30.6133599 C12.2,30.0657703 22,17.36789 22,11.3650678 C22,5.08831417 17.0751322,0 11,0 Z M11,16.5310077 C8.23857625,16.5310077 6,14.2181376 6,11.3650678 C6,8.51199797 8.23857625,6.19912789 11,6.19912789 C13.7614237,6.19912789 16,8.51199797 16,11.3650678 C16,14.2181376 13.7614237,16.5310077 11,16.5310077 Z" id="Shape" fill="#F2F2F2"></path>
            <path d="M11,0 L11,6.1999988 C13.7614237,6.1999988 16,8.51319381 16,11.3666645 C16,14.2201351 13.7614237,16.5333301 11,16.5333301 L11,31 C11.3025884,31.0010572 11.5893699,30.8604852 11.78,30.6176608 C12.2,30.0699942 22,17.37033 22,11.3666645 C22,5.08902903 17.0751322,0 11,0 Z" id="Path" fill="#ECEBEB"></path>
        </g>
        <g id="Rectangle-Copy-48" transform="translate(594.000000, 232.000000) scale(-1, 1) rotate(270.000000) translate(-594.000000, -232.000000) ">
            <use fill="black" fill-opacity="1" filter="url(#filter-10)" xlink:href="#path-9"></use>
            <use fill="#FFFFFF" fill-rule="evenodd" xlink:href="#path-9"></use>
            <use fill="black" fill-opacity="1" filter="url(#filter-11)" xlink:href="#path-9"></use>
            <use stroke="#0055C2" stroke-width="0.5" xlink:href="#path-9"></use>
        </g>
        <text id="$-git-merge-Branch_A" font-family="Helvetica" font-size="21" font-weight="normal" fill="#0055C2">
            <tspan x="503" y="237">$ git merge Branch_A</tspan>
        </text>
        <path id="Path-20" d="M597.985497,483.826726 L592.543322,498.502649 L584.067888,485.343355 L597.985497,483.826726 Z M589.188393,478.334663 C589.681093,479.349156 590.134875,480.342442 590.549718,481.314573 L590.853548,482.039705 L589.00381,482.800277 C588.621288,481.86997 588.200372,480.917619 587.741041,479.943274 L587.389339,479.208394 L589.188393,478.334663 Z M585.353216,471.227987 C585.803932,471.998287 586.244741,472.771985 586.680679,473.556313 L587.331562,474.74168 L585.573665,475.695515 C585.147948,474.910927 584.720129,474.140754 584.285245,473.377842 L583.626999,472.238024 L585.353216,471.227987 Z M581.020264,464.417636 C581.532028,465.156352 582.032967,465.901001 582.524169,466.652268 L583.253807,467.784216 L581.565818,468.85692 C581.093405,468.113539 580.612083,467.377142 580.12079,466.647056 L579.376239,465.556575 L581.020264,464.417636 Z M576.152911,457.990904 C576.726758,458.68358 577.289655,459.384203 577.842094,460.092747 L578.662969,461.161502 L577.068068,462.36827 C576.537666,461.667275 575.997357,460.974126 575.446664,460.288846 L574.612776,459.266829 L576.152911,457.990904 Z M570.691752,451.987327 C571.407987,452.703555 572.110446,453.431849 572.79955,454.171966 L573.484217,454.916016 L572.004603,456.261654 C571.340171,455.531069 570.662921,454.812051 569.972444,454.104828 L569.277544,453.401547 L570.691752,451.987327 Z M564.679121,446.536558 C565.463624,447.17981 566.234565,447.836629 566.992229,448.506736 L567.745478,449.181262 L566.40212,450.662946 C565.67157,450.000598 564.928225,449.351178 564.171802,448.714952 L563.41101,448.083133 L564.679121,446.536558 Z M558.171174,441.727819 C559.018025,442.28955 559.851675,442.865862 560.672332,443.456486 L561.488666,444.051871 L560.29995,445.660273 C559.508268,445.075167 558.704009,444.503943 557.88696,443.946856 L557.065641,443.394492 L558.171174,441.727819 Z M453.397444,438.797686 L454.157476,440.647645 C453.345569,440.981207 452.532021,441.322157 451.716832,441.670498 L450.492818,442.19855 L449.694258,440.364892 C450.932242,439.825749 452.166637,439.303347 453.397444,438.797686 Z M551.192447,437.593635 C552.093658,438.067562 552.982178,438.556627 553.858168,439.060589 L554.729986,439.569506 L553.710821,441.29035 C552.864867,440.789336 552.006716,440.302749 551.136203,439.830823 L550.261562,439.363792 L551.192447,437.593635 Z M460.90295,435.905682 L461.579537,437.787764 C460.753764,438.084619 459.926249,438.38931 459.096992,438.701838 L457.851801,439.176507 L457.132377,437.31038 C458.393041,436.824372 459.649899,436.356139 460.90295,435.905682 Z M543.852729,434.188313 C544.797715,434.571548 545.730672,434.97004 546.651723,435.383577 L547.568809,435.802122 L546.727252,437.616449 C545.836339,437.203208 544.933766,436.804542 544.019399,436.420655 L543.101095,436.041701 L543.852729,434.188313 Z M468.544516,433.3646 L469.128399,435.277472 C468.289882,435.53342 467.449521,435.797659 466.607315,436.07019 L465.342622,436.485205 L464.711234,434.587483 C465.993025,434.16102 467.270786,433.753392 468.544516,433.3646 Z M536.201465,431.502166 C537.178109,431.794596 538.143522,432.101995 539.097799,432.424183 L540.048367,432.751295 L539.386554,434.638622 C538.461559,434.314262 537.525587,434.00425 536.578534,433.708762 L535.627782,433.418122 L536.201465,431.502166 Z M476.321114,431.212526 L476.802272,433.153785 C475.951109,433.364753 475.097993,433.584498 474.242924,433.813019 L472.958854,434.162385 L472.425159,432.234908 C473.728082,431.874144 475.026734,431.533349 476.321114,431.212526 Z M528.357551,429.528764 C529.3571,429.734675 530.346226,429.955046 531.325008,430.189727 L532.300343,430.429173 L531.812958,432.368878 C530.967616,432.156471 530.11417,431.955061 529.252561,431.764753 L527.954016,431.48763 L528.357551,429.528764 Z M484.186511,429.49899 L484.554981,431.464754 C483.693117,431.626305 482.829193,431.79711 481.963211,431.97717 L480.662693,432.2542 L480.236524,430.300132 C481.557699,430.011993 482.874362,429.744944 484.186511,429.49899 Z M492.164476,428.25664 L492.409704,430.241549 C491.539469,430.349063 490.667076,430.46629 489.792524,430.593231 L488.479075,430.790927 L488.171051,428.814789 C489.506943,428.606561 490.838085,428.42051 492.164476,428.25664 Z M520.36559,428.20433 C521.257195,428.317209 522.146375,428.441257 523.033129,428.576475 L524.361441,428.787679 L524.034814,430.760828 C523.167211,430.617208 522.297209,430.484545 521.424803,430.362837 L520.114393,430.188493 L520.36559,428.20433 Z M500.181456,427.533021 L500.294238,429.529838 C499.418489,429.579301 498.540493,429.638901 497.660247,429.708638 L496.338191,429.820848 L496.157907,427.82899 C497.504065,427.707148 498.845249,427.608491 500.181456,427.533021 Z M512.30445,427.491469 C513.202968,427.537179 514.099112,427.593874 514.992882,427.661553 L516.331755,427.771311 L516.155941,429.763568 C515.281035,429.686359 514.403756,429.619929 513.524101,429.564278 L512.202836,429.488886 L512.30445,427.491469 Z M506.916093,427.349083 L508.25784,427.360097 L508.229441,429.359895 C507.352,429.347434 506.472237,429.345472 505.590152,429.354009 L504.265282,429.374688 L504.222245,427.375151 L505.570894,427.354101 L505.570894,427.354101 L506.916093,427.349083 Z" transform="translate(521.478154, 463.425726) scale(1, -1) rotate(-22.000000) translate(-521.478154, -463.425726) " fill="#DE4040" fill-rule="nonzero"></path>
        <text id="Master-Branch" font-family="Helvetica-Bold, Helvetica" font-size="21" font-weight="bold" fill="#006AE1">
            <tspan x="56" y="219">Master Branch</tspan>
        </text>
        <text id="M1" font-family="Helvetica" font-size="18" font-weight="normal" fill="#006AE1">
            <tspan x="284" y="252">M1</tspan>
        </text>
        <text id="M1-Copy" font-family="Helvetica" font-size="18" font-weight="normal" fill="#006AE1">
            <tspan x="284" y="483">M1</tspan>
        </text>
        <text id="A1" font-family="Helvetica" font-size="18" font-weight="normal" fill="#199ABD">
            <tspan x="518" y="191">A1</tspan>
        </text>
        <text id="A1-Copy" font-family="Helvetica" font-size="18" font-weight="normal" fill="#199ABD">
            <tspan x="518" y="481">A1</tspan>
        </text>
        <text id="M2" font-family="Helvetica" font-size="18" font-weight="normal" fill="#006AE1">
            <tspan x="361" y="252">M2</tspan>
        </text>
        <text id="M2-Copy" font-family="Helvetica" font-size="18" font-weight="normal" fill="#006AE1">
            <tspan x="361" y="483">M2</tspan>
        </text>
        <text id="M3" font-family="Helvetica" font-size="18" font-weight="normal" fill="#006AE1">
            <tspan x="435" y="483">M3</tspan>
        </text>
        <text id="A2" font-family="Helvetica" font-size="18" font-weight="normal" fill="#199ABD">
            <tspan x="595" y="191">A2</tspan>
        </text>
        <text id="A2-Copy" font-family="Helvetica" font-size="18" font-weight="normal" fill="#199ABD">
            <tspan x="600" y="481">A2</tspan>
        </text>
        <text id="Branch_A" font-family="Helvetica-Bold, Helvetica" font-size="21" font-weight="bold" fill="#199ABD">
            <tspan x="56" y="160">Branch_A</tspan>
        </text>
        <text id="Fast-forward-Merge" font-family="Helvetica-Bold, Helvetica" font-size="24" font-weight="bold" fill="#363636">
            <tspan x="50" y="83">Fast-forward Merge</tspan>
        </text>
        <g id="git" transform="translate(704.000000, 9.000000)">
            <path d="M46.8658496,11.2380575 C45.1623498,11.2380575 43.8939053,12.0891281 43.8939053,14.1376499 C43.8939053,15.6808485 44.7297841,16.7522856 46.7743573,16.7522856 C48.5071097,16.7522856 49.6846843,15.7131436 49.6846843,14.073693 C49.6846843,12.2157755 48.6309666,11.2380575 46.8658496,11.2380575 L46.8658496,11.2380575 Z M43.4607172,25.7011913 C43.0574041,26.2046147 42.6553359,26.7397 42.6553359,27.3710373 C42.6553359,28.6305458 44.2337339,29.0092215 46.4027864,29.0092215 C48.1984009,29.0092215 50.6450424,28.8813076 50.6450424,27.1823327 C50.6450424,26.1723196 49.4674678,26.1102624 47.9805621,26.0152768 L43.4607172,25.7011913 Z M52.6255087,11.3330431 C53.1825537,12.0580995 53.7719634,13.0662128 53.7719634,14.5156924 C53.7719634,18.0124273 51.0776081,20.0603158 47.1764255,20.0603158 C46.1843252,20.0603158 45.2862067,19.9349349 44.7291617,19.7772589 L43.7071863,21.4471049 L46.7413702,21.6351763 C52.0989611,21.9828234 55.257002,22.1404995 55.257002,26.3293624 C55.257002,29.9533779 52.1300809,32 46.7413702,32 C41.1360655,32 39,30.5505204 39,28.0625322 C39,26.6440812 39.6199071,25.8898959 40.7034998,24.848221 C39.680902,24.4087545 39.3410734,23.6216409 39.3410734,22.7705703 C39.3410734,22.0771758 39.6815244,21.4471049 40.2391918,20.8480627 C40.7968593,20.2502869 41.416144,19.6506115 42.1586633,18.9578502 C40.6412601,18.2017651 39.4960502,16.563581 39.4960502,14.231369 C39.4960502,10.6086199 41.8493321,8.12063165 46.5870158,8.12063165 C47.9189448,8.12063165 48.7249485,8.24537935 49.436348,8.43598369 L55.4754632,8.43598369 L55.4754632,11.1133099 L52.6255087,11.3330431 L52.6255087,11.3330431 Z M60.9233016,5.60858036 C59.1575621,5.60858036 58.1355867,4.56817192 58.1355867,2.77167847 C58.1355867,0.977717972 59.1575621,0 60.9233016,0 C62.7195385,0 63.7408917,0.977084735 63.7408917,2.77167847 C63.7415139,4.56817192 62.7195385,5.60858036 60.9233016,5.60858036 Z M56.9275147,24.5423675 L56.9275147,22.0543792 L58.50778,21.8340127 C58.9409681,21.770689 59.0025853,21.6763367 59.0025853,21.2026754 L59.0025853,11.9403174 C59.0025853,11.59457 58.9104706,11.372937 58.5998947,11.279218 L56.9275147,10.6801757 L57.2679657,8.12949697 L63.6792742,8.12949697 L63.6792742,21.2033087 C63.6792742,21.7086318 63.7091492,21.770689 64.174702,21.834646 L65.7543448,22.0550125 L65.7543448,24.5430008 L56.9275147,24.5430008 L56.9275147,24.5423675 Z M78,23.32022 C76.6674487,23.9806863 74.7174798,24.5803617 72.9511179,24.5803617 C69.2665294,24.5803617 67.8736056,23.0694582 67.8736056,19.5074999 L67.8736056,11.2532552 C67.8736056,11.0651838 67.8736056,10.9385364 67.6252693,10.9385364 L65.458084,10.9385364 L65.458084,8.13456287 C68.1841815,7.81857759 69.2671518,6.43242174 69.6076028,2.99837733 L72.5502944,2.99837733 L72.5502944,7.47346341 C72.5502944,7.69319666 72.5502944,7.78881545 72.7980083,7.78881545 L77.1641212,7.78881545 L77.1641212,10.9391697 L72.5502944,10.9391697 L72.5502944,18.4683579 C72.5502944,20.3269086 72.9841049,21.0513318 74.6558625,21.0513318 C75.5241059,21.0513318 76.4209796,20.8315985 77.1641212,20.5479083 L78,23.32022 L78,23.32022 Z" id="Shape" fill="#31251C" fill-rule="nonzero"></path>
            <path d="M32.3772539,15.0299695 L17.9690664,0.622277028 C17.140005,-0.207425676 15.7941261,-0.207425676 14.9644314,0.622277028 L11.9724635,3.61427365 L15.7668919,7.40937182 C16.6497884,7.11169223 17.6606226,7.31120089 18.3636464,8.01486479 C19.0704703,8.72232885 19.2687104,9.74203981 18.9634334,10.6274783 L22.6210571,14.2851371 C23.5052204,13.9804906 24.5268216,14.1774658 25.2336455,14.8849299 C26.221679,15.8723394 26.221679,17.4728423 25.2336455,18.4608852 C24.2449787,19.4489281 22.6451246,19.4489281 21.6570912,18.4608852 C20.914166,17.7173195 20.7304932,16.6260388 21.1067059,15.7108324 L17.6954571,12.2995509 L17.6948238,21.2768075 C17.9361319,21.3958793 18.1628729,21.5542195 18.3636464,21.7543616 C19.3516798,22.7417711 19.3516798,24.3416406 18.3636464,25.3309502 C17.375613,26.3183598 15.7744921,26.3183598 14.7877254,25.3309502 C13.799692,24.3416406 13.799692,22.7417711 14.7877254,21.7543616 C15.0322003,21.5105176 15.3140432,21.3262096 15.6155201,21.2027043 L15.6155201,12.1424774 C15.3140432,12.0196054 15.0322003,11.8359308 14.7877254,11.5908201 C14.0391001,10.842821 13.8592273,9.74520661 14.2430403,8.82620003 L10.5024471,5.08430417 L0.622746073,14.9634666 C-0.207582024,15.7938027 -0.207582024,17.1396945 0.622746073,17.9700305 L15.0309336,32.377723 C15.8606284,33.2074257 17.2058739,33.2074257 18.0368353,32.377723 L32.3772539,18.0359 C33.207582,17.2061973 33.207582,15.8596722 32.3772539,15.0299695 L32.3772539,15.0299695 Z" id="Path" fill="#F34F29" fill-rule="nonzero"></path>
            <polygon id="Path" points="1.12409637e-15 0 79 0 79 33 0 33"></polygon>
        </g>
    </g>
</svg>