<?xml version="1.0" encoding="UTF-8"?>
<svg width="800px" height="600px" viewBox="0 0 800 600" version="1.1" xmlns="http://www.w3.org/2000/svg" xmlns:xlink="http://www.w3.org/1999/xlink">
    <title>2041-10-13-16-10_GeneratingPAT(PersonalAccessToken)</title>
    <defs>
        <path d="M8.68744595,14.5405413 C10.6544909,13.5649687 12,11.5915112 12,9.31636202 C12,6.07252388 9.26504479,3.44227578 5.89152197,3.44227578 C4.52034181,3.44227578 3.25480793,3.87689217 2.23537065,4.61058921 L2.23537065,1.05770107 C2.23537065,0.476155373 1.74046224,0 1.11695169,0 C0.493934821,0 0.0167986821,0.476630104 0.0167986821,1.05770107 L0.0167986821,1.80184219 L0,9.32158406 C-0.0041824725,11.2003327 0.951817666,12.865215 2.41753644,13.8939574 C2.4777647,13.9362085 2.55848043,13.9312238 2.6127846,13.8823265 C2.66758244,13.8334292 2.6779496,13.7558106 2.63746831,13.6950451 C0.724974359,10.8146136 1.16014819,5.53963813 5.89176881,5.53963813 C8.05899866,5.53963813 9.80709909,7.22944376 9.81623206,9.31351363 C9.82240299,10.8599505 9.11620201,12.0365717 8.19549958,12.7781018 C6.36026565,14.2561773 3.64974731,12.6382934 4.49738595,10.4697214 C4.5894562,10.2335427 4.71879884,9.9959397 4.88664808,9.76189723 L5.12361171,9.47705853 C5.19766284,9.39967734 5.25048599,9.29903433 5.2146946,9.19411874 C5.01401603,8.62800181 3.46832203,8.97526767 3.04005964,10.0315445 C3.34292878,9.79631524 3.65986763,9.66433998 3.96940137,9.71489885 C2.38890334,11.275815 3.44141679,13.9563846 5.46005069,14.7513219 C6.40494316,15.1232738 7.55964718,15.0976383 8.68744595,14.5405413" id="path-1"></path>
        <linearGradient x1="28.568518%" y1="104.445731%" x2="78.3472072%" y2="20.6880271%" id="linearGradient-3">
            <stop stop-color="#000F98" offset="0%"></stop>
            <stop stop-color="#00A5FD" offset="100%"></stop>
        </linearGradient>
        <circle id="path-4" cx="17" cy="18" r="17"></circle>
        <filter x="-14.7%" y="-14.7%" width="141.2%" height="141.2%" filterUnits="objectBoundingBox" id="filter-5">
            <feOffset dx="2" dy="2" in="SourceAlpha" result="shadowOffsetOuter1"></feOffset>
            <feGaussianBlur stdDeviation="2" in="shadowOffsetOuter1" result="shadowBlurOuter1"></feGaussianBlur>
            <feColorMatrix values="0 0 0 0 0   0 0 0 0 0   0 0 0 0 0  0 0 0 0.5 0" type="matrix" in="shadowBlurOuter1"></feColorMatrix>
        </filter>
        <circle id="path-6" cx="17" cy="18" r="17"></circle>
        <filter x="-14.7%" y="-14.7%" width="141.2%" height="141.2%" filterUnits="objectBoundingBox" id="filter-7">
            <feOffset dx="2" dy="2" in="SourceAlpha" result="shadowOffsetOuter1"></feOffset>
            <feGaussianBlur stdDeviation="2" in="shadowOffsetOuter1" result="shadowBlurOuter1"></feGaussianBlur>
            <feColorMatrix values="0 0 0 0 0   0 0 0 0 0   0 0 0 0 0  0 0 0 0.5 0" type="matrix" in="shadowBlurOuter1"></feColorMatrix>
        </filter>
        <circle id="path-8" cx="17" cy="18" r="17"></circle>
        <filter x="-14.7%" y="-14.7%" width="141.2%" height="141.2%" filterUnits="objectBoundingBox" id="filter-9">
            <feOffset dx="2" dy="2" in="SourceAlpha" result="shadowOffsetOuter1"></feOffset>
            <feGaussianBlur stdDeviation="2" in="shadowOffsetOuter1" result="shadowBlurOuter1"></feGaussianBlur>
            <feColorMatrix values="0 0 0 0 0   0 0 0 0 0   0 0 0 0 0  0 0 0 0.5 0" type="matrix" in="shadowBlurOuter1"></feColorMatrix>
        </filter>
        <circle id="path-10" cx="17" cy="18" r="17"></circle>
        <filter x="-14.7%" y="-14.7%" width="141.2%" height="141.2%" filterUnits="objectBoundingBox" id="filter-11">
            <feOffset dx="2" dy="2" in="SourceAlpha" result="shadowOffsetOuter1"></feOffset>
            <feGaussianBlur stdDeviation="2" in="shadowOffsetOuter1" result="shadowBlurOuter1"></feGaussianBlur>
            <feColorMatrix values="0 0 0 0 0   0 0 0 0 0   0 0 0 0 0  0 0 0 0.5 0" type="matrix" in="shadowBlurOuter1"></feColorMatrix>
        </filter>
        <circle id="path-12" cx="51.5" cy="51.5" r="51.5"></circle>
        <filter x="-5.8%" y="-5.8%" width="123.3%" height="123.3%" filterUnits="objectBoundingBox" id="filter-13">
            <feOffset dx="6" dy="6" in="SourceAlpha" result="shadowOffsetOuter1"></feOffset>
            <feGaussianBlur stdDeviation="3" in="shadowOffsetOuter1" result="shadowBlurOuter1"></feGaussianBlur>
            <feComposite in="shadowBlurOuter1" in2="SourceAlpha" operator="out" result="shadowBlurOuter1"></feComposite>
            <feColorMatrix values="0 0 0 0 0   0 0 0 0 0   0 0 0 0 0  0 0 0 0.5 0" type="matrix" in="shadowBlurOuter1"></feColorMatrix>
        </filter>
    </defs>
    <g id="2041-10-13-16-10_GeneratingPAT(PersonalAccessToken)" stroke="none" stroke-width="1" fill="none" fill-rule="evenodd">
        <rect fill="#FFFFFF" x="0" y="0" width="800" height="600"></rect>
        <g id="bloovee-winner-logo" transform="translate(725.000000, 580.000000)">
            <path d="M13,13.7751507 C13,14.396312 13.4732558,14.8717809 14.0514961,14.8717809 C14.6474304,14.8717809 15.1204503,14.3968042 15.1204503,13.7751507 L15.1204503,2.09687626 C15.1204503,1.49368045 14.6474304,1 14.0514961,1 C13.4557977,1 13,1.49392656 13,2.09687626 L13,13.7751507 Z M21.7920364,15 C24.6483217,15 26.751078,12.7149437 26.751078,9.97312215 L26.751078,9.93645297 C26.751078,7.17641992 24.6657798,4.92778666 21.8269526,4.92778666 C18.9881254,4.92778666 16.885369,7.212843 16.885369,9.97312215 L16.885369,10.0095452 C16.885369,12.7516128 18.9706673,15 21.7920364,15 Z M21.8269526,13.0621935 C20.179994,13.0621935 19.0055834,11.6547366 19.0055834,9.97312215 L19.0055834,9.93645297 C19.0055834,8.25459244 20.0919958,6.86534709 21.7920364,6.86534709 C23.456689,6.86534709 24.6306277,8.27305008 24.6306277,9.97312215 L24.6306277,10.0095452 C24.6306277,11.6731942 23.5444513,13.0621935 21.8269526,13.0621935 Z M32.8092717,15 C35.665557,15 37.7683133,12.7149437 37.7683133,9.97312215 L37.7683133,9.93645297 C37.7683133,7.17641992 35.6830151,4.92778666 32.8441878,4.92778666 C30.0053606,4.92778666 27.9026043,7.212843 27.9026043,9.97312215 L27.9026043,10.0095452 C27.9026043,12.7516128 29.9879025,15 32.8092717,15 Z M32.8441878,13.0621935 C31.1969933,13.0621935 30.0228187,11.6547366 30.0228187,9.97312215 L30.0228187,9.93645297 C30.0228187,8.25459244 31.109231,6.86534709 32.8092717,6.86534709 C34.4739243,6.86534709 35.647863,8.27305008 35.647863,9.97312215 L35.647863,10.0095452 C35.647863,11.6731942 34.5614506,13.0621935 32.8441878,13.0621935 Z M44.1416963,13.9944275 L47.2261164,6.6096472 C47.2784906,6.49988574 47.3487948,6.28060893 47.3487948,6.07954366 C47.3487948,5.47610175 46.8929971,5.01933658 46.3147568,5.01933658 C45.7539746,5.01933658 45.4737015,5.40300947 45.3158709,5.78692847 L42.8976893,12.2215093 L40.5144239,5.82335156 C40.3393711,5.36634029 40.041404,5.01933658 39.4629278,5.01933658 C38.8846875,5.01933658 38.4116676,5.53098247 38.4116676,6.07954366 C38.4116676,6.28060893 38.4817358,6.46346265 38.534346,6.62785874 L41.6182943,13.9944275 C41.8638872,14.5796579 42.2491448,14.9633308 42.8273851,14.9633308 L42.9326055,14.9633308 C43.5108458,14.9633308 43.8965752,14.5612003 44.1416963,13.9944275 Z M50.0949054,9.27837643 C50.2876522,7.77961573 51.1987758,6.73762019 52.4956289,6.73762019 C53.8974665,6.73762019 54.7036056,7.8524619 54.8437422,9.27837643 L50.0949054,9.27837643 Z M56.070527,13.72027 C56.2281217,13.5558739 56.3508002,13.3181395 56.3508002,13.0439819 C56.3508002,12.5320899 55.9830006,12.1481709 55.5095089,12.1481709 C55.2641519,12.1481709 55.1242513,12.2215093 54.9664207,12.3492362 C54.3704864,12.8611282 53.6695676,13.1901665 52.7759021,13.1901665 C51.4089807,13.1901665 50.3402624,12.3128131 50.1123635,10.7409601 L55.9126964,10.7409601 C56.4560206,10.7409601 56.9115824,10.3021604 56.9115824,9.68050697 C56.9115824,7.45057746 55.4568987,4.92778666 52.513087,4.92778666 C49.8672425,4.92778666 47.9919132,7.19438536 47.9919132,9.95466451 L47.9919132,9.9913337 C47.9919132,12.9708897 50.0597533,15 52.7409859,15 C54.1779755,15 55.2292357,14.5063195 56.070527,13.72027 Z M60.1833231,9.27837643 C60.3763058,7.77961573 61.2871935,6.73762019 62.5842825,6.73762019 C63.9858841,6.73762019 64.7920233,7.8524619 64.9321598,9.27837643 L60.1833231,9.27837643 Z M66.1589447,13.72027 C66.3167752,13.5558739 66.4394537,13.3181395 66.4394537,13.0439819 C66.4394537,12.5320899 66.0714183,12.1481709 65.5981624,12.1481709 C65.3528055,12.1481709 65.2126689,12.2215093 65.0548383,12.3492362 C64.4591399,12.8611282 63.7582212,13.1901665 62.8643197,13.1901665 C61.4976342,13.1901665 60.4289159,12.3128131 60.2007812,10.7409601 L66.0011141,10.7409601 C66.5444382,10.7409601 67,10.3021604 67,9.68050697 C67,7.45057746 65.5455522,4.92778666 62.6015046,4.92778666 C59.9556601,4.92778666 58.0805667,7.19438536 58.0805667,9.95466451 L58.0805667,9.9913337 C58.0805667,12.9708897 60.1484069,15 62.8294035,15 C64.2663932,15 65.3178893,14.5063195 66.1589447,13.72027 L66.1589447,13.72027 Z" id="Fill-1" fill="#030060"></path>
            <g id="Group-4">
                <mask id="mask-2" fill="white">
                    <use xlink:href="#path-1"></use>
                </mask>
                <g id="Clip-3"></g>
                <path d="M8.68744595,14.5405413 C10.6544909,13.5649687 12,11.5915112 12,9.31636202 C12,6.07252388 9.26504479,3.44227578 5.89152197,3.44227578 C4.52034181,3.44227578 3.25480793,3.87689217 2.23537065,4.61058921 L2.23537065,1.05770107 C2.23537065,0.476155373 1.74046224,0 1.11695169,0 C0.493934821,0 0.0167986821,0.476630104 0.0167986821,1.05770107 L0.0167986821,1.80184219 L0,9.32158406 C-0.0041824725,11.2003327 0.951817666,12.865215 2.41753644,13.8939574 C2.4777647,13.9362085 2.55848043,13.9312238 2.6127846,13.8823265 C2.66758244,13.8334292 2.6779496,13.7558106 2.63746831,13.6950451 C0.724974359,10.8146136 1.16014819,5.53963813 5.89176881,5.53963813 C8.05899866,5.53963813 9.80709909,7.22944376 9.81623206,9.31351363 C9.82240299,10.8599505 9.11620201,12.0365717 8.19549958,12.7781018 C6.36026565,14.2561773 3.64974731,12.6382934 4.49738595,10.4697214 C4.5894562,10.2335427 4.71879884,9.9959397 4.88664808,9.76189723 L5.12361171,9.47705853 C5.19766284,9.39967734 5.25048599,9.29903433 5.2146946,9.19411874 C5.01401603,8.62800181 3.46832203,8.97526767 3.04005964,10.0315445 C3.34292878,9.79631524 3.65986763,9.66433998 3.96940137,9.71489885 C2.38890334,11.275815 3.44141679,13.9563846 5.46005069,14.7513219 C6.40494316,15.1232738 7.55964718,15.0976383 8.68744595,14.5405413" id="Fill-2" fill="url(#linearGradient-3)" mask="url(#mask-2)"></path>
            </g>
        </g>
        <g id="github-copy" transform="translate(748.000000, 3.000000)" fill="#000000" fill-rule="nonzero">
            <path d="M22.9998956,0 C11.7204239,0.000469179946 2.10590223,8.20619911 0.299077857,19.3745239 C-1.50774651,30.5428487 5.02642435,41.3773525 15.7268887,44.9558377 C16.8767785,45.1577383 17.3079872,44.4656891 17.3079872,43.8600567 C17.3079872,43.3121892 17.279217,41.4954764 17.279217,39.5634644 C11.5009978,40.6303861 10.0061411,38.1505528 9.54618516,36.8529173 C9.03580825,35.5908656 8.22674528,34.472458 7.1889111,33.5943411 C6.38398825,33.161796 5.23409847,32.0948512 7.16014086,32.066061 C8.65271236,32.2285228 9.97246422,33.1110528 10.6960749,34.4305721 C11.3313462,35.5753322 12.3946869,36.4194146 13.6513665,36.7764896 C14.9080461,37.1335647 16.2547288,36.9742705 17.3941369,36.3337708 C17.4936968,35.160991 18.0147545,34.0644705 18.8602924,33.2483742 C13.7432829,32.6716473 8.39629538,30.6818473 8.39629538,21.8580182 C8.36397821,19.5652878 9.20739391,17.3470389 10.7535694,15.6582042 C10.0504849,13.6655423 10.1327507,11.4787423 10.9835474,9.54489918 C10.9835474,9.54489918 12.9095438,8.93931288 17.3079412,11.9094794 C21.0710431,10.8713094 25.0437372,10.8713094 28.806839,11.9094794 C33.2051215,8.9104996 35.1312329,9.54489918 35.1312329,9.54489918 C35.982145,11.4787155 36.0644125,13.6655602 35.3612108,15.6582042 C36.9120423,17.3441484 37.7561944,19.564334 37.7184849,21.8580182 C37.7184849,30.7107067 32.3427041,32.6716473 27.2257406,33.2483742 C28.336287,34.3774629 28.9028084,35.9349635 28.7780918,37.5161532 C28.7780918,40.6016882 28.7493216,43.0815215 28.7493216,43.8601489 C28.7493216,44.4657352 29.1805302,45.1866208 30.33042,44.95593 C41.0111617,41.3485442 47.5153422,30.5121007 45.6961446,19.3555019 C43.876947,8.19890308 34.2698179,0.00588375885 22.9998956,0 Z" id="Path"></path>
        </g>
        <text id="Generating-PAT-(Pers" fill-rule="nonzero" font-family="Helvetica" font-size="18" font-weight="normal" fill="#0055C2">
            <tspan x="10" y="23">Generating PAT (Personal Access Token)</tspan>
        </text>
        <rect id="Rectangle" stroke="#0055C2" x="88.5" y="300.5" width="624" height="262"></rect>
        <text id="Log-in-to-GitHub-and" font-family="Helvetica" font-size="24" font-weight="normal" fill="#0055C2">
            <tspan x="187" y="390">Log in to GitHub and got to user settings</tspan>
        </text>
        <text id="Generate-a-new-token" font-family="Helvetica" font-size="24" font-weight="normal" fill="#0055C2">
            <tspan x="187" y="473">Generate a new token</tspan>
        </text>
        <text id="Be-ready-for-HTTPS-c" font-family="Helvetica" font-size="24" font-weight="normal" fill="#0055C2">
            <tspan x="187" y="516">Be ready for HTTPS connection</tspan>
        </text>
        <text id="Move-to-Developer-Se" font-family="Helvetica" font-size="24" font-weight="normal" fill="#0055C2">
            <tspan x="187" y="430">Move to Developer Setting page</tspan>
        </text>
        <text id="Key-Steps-to-generat" font-family="Helvetica-Bold, Helvetica" font-size="28" font-weight="bold" fill="#0055C2">
            <tspan x="148" y="343">Key Steps to generate PAT</tspan>
        </text>
        <g id="Group-2-Copy-3" transform="translate(139.000000, 365.000000)">
            <g id="Oval">
                <use fill="black" fill-opacity="1" filter="url(#filter-5)" xlink:href="#path-4"></use>
                <use fill="#006AE1" fill-rule="evenodd" xlink:href="#path-4"></use>
            </g>
            <text id="1" font-family="Helvetica-Bold, Helvetica" font-size="28" font-weight="bold" fill="#FFFFFF">
                <tspan x="9.71386719" y="28">1</tspan>
            </text>
        </g>
        <g id="Group-2-Copy-4" transform="translate(139.000000, 407.000000)">
            <g id="Oval">
                <use fill="black" fill-opacity="1" filter="url(#filter-7)" xlink:href="#path-6"></use>
                <use fill="#006AE1" fill-rule="evenodd" xlink:href="#path-6"></use>
            </g>
            <text id="2" font-family="Helvetica-Bold, Helvetica" font-size="28" font-weight="bold" fill="#FFFFFF">
                <tspan x="9.71386719" y="28">2</tspan>
            </text>
        </g>
        <g id="Group-2-Copy-5" transform="translate(139.000000, 450.000000)">
            <g id="Oval">
                <use fill="black" fill-opacity="1" filter="url(#filter-9)" xlink:href="#path-8"></use>
                <use fill="#006AE1" fill-rule="evenodd" xlink:href="#path-8"></use>
            </g>
            <text id="3" font-family="Helvetica-Bold, Helvetica" font-size="28" font-weight="bold" fill="#FFFFFF">
                <tspan x="9.71386719" y="28">3</tspan>
            </text>
        </g>
        <g id="Group-2-Copy-6" transform="translate(139.000000, 492.000000)">
            <g id="Oval">
                <use fill="black" fill-opacity="1" filter="url(#filter-11)" xlink:href="#path-10"></use>
                <use fill="#006AE1" fill-rule="evenodd" xlink:href="#path-10"></use>
            </g>
            <text id="4" font-family="Helvetica-Bold, Helvetica" font-size="28" font-weight="bold" fill="#FFFFFF">
                <tspan x="9.71386719" y="28">4</tspan>
            </text>
        </g>
        <g id="Group-6" transform="translate(109.000000, 53.000000)">
            <circle id="Oval" fill-opacity="0.3" fill="#C5DDFF" cx="106.5" cy="106.5" r="106.5"></circle>
            <circle id="Oval-Copy-2" fill-opacity="0.3" fill="#C5DDFF" cx="475.5" cy="106.5" r="106.5"></circle>
            <text id="GitHub" fill-rule="nonzero" font-family="Helvetica-Bold, Helvetica" font-size="30" font-weight="bold" fill="#000000">
                <tspan x="57.012207" y="199">GitHub</tspan>
            </text>
            <g id="Group-2" transform="translate(37.000000, 45.000000)" fill-rule="nonzero">
                <g id="Group-2-Copy" transform="translate(0.000000, 53.142857)">
                    <path d="M101.156069,46.924708 C101.156069,58.3445943 92.3871451,67.6363636 81.6055531,67.6363636 L22.5257771,67.6363636 C17.3596209,67.6635492 12.3940215,65.4811212 8.71739777,61.5669336 C5.03768856,57.7306972 2.96454436,52.4442602 2.97517851,46.924708 C2.97517851,38.2443348 8.05169919,30.5506063 15.691661,27.5360922 C19.4375361,11.5805609 32.6231371,0.303866046 47.881976,0.00603400027 C63.1408149,-0.291798046 76.6961335,10.46295 80.9748913,26.2618512 C81.3641887,26.234561 81.5880347,26.234561 81.6055531,26.234561 C81.8975262,26.234561 82.1894992,26.234561 82.4775793,26.2555534 C87.3321352,26.4596 91.94209,28.606809 95.408093,32.2782839 C99.0826259,36.1206044 101.156069,41.4049226 101.156069,46.924708 Z" id="Path" fill="#C5DDFF"></path>
                    <path d="M14.8758926,25.7662338 C14.7185154,26.4357216 14.5686323,27.1052094 14.4337376,27.7927915 C13.5794042,28.172771 12.7400591,28.5617978 11.900714,28.987013 C12.8599656,27.8712 13.8516917,26.7976069 14.8758926,25.7662338 Z" id="Path" fill="#607D8B"></path>
                    <path d="M62.4787487,32.1313592 C63.8898801,30.6679808 65.5808177,29.4154284 67.4811892,28.4258297 C69.4094259,27.422618 71.5148066,26.6872438 73.717457,26.2476058 C78.1972793,25.3750256 82.8858535,25.6940766 87.1437203,27.1612443 C91.4004854,28.6068546 95.053765,31.0916085 97.6393544,34.2997801 C98.9083828,35.8864902 99.8667175,37.6362771 100.477389,39.4816394 C101.072568,41.3058529 101.278735,43.2053663 101.0862,45.0909091 C100.721922,41.4246424 99.1141463,37.9257114 96.4564543,35.0153982 C93.8508351,32.1635174 90.3949984,29.951221 86.4446287,28.6062047 C82.5034213,27.2530987 78.1966225,26.8513457 74.0021864,27.445531 C69.7265549,28.0834026 65.7402,29.7043923 62.4787487,32.1313592 L62.4787487,32.1313592 Z" id="Path" fill="#7BB2FF"></path>
                    <path d="M11.900714,32.2296968 C12.105558,32.1187104 12.3121988,32.0120765 12.5224334,31.9076188 C12.3139957,32.0099003 12.105558,32.1187104 11.900714,32.2296968 Z M14.1899349,27.8715038 C14.3264975,27.4658641 14.4714456,27.0602244 14.624779,26.6545847 C14.4714456,27.0534637 14.3264975,27.4591034 14.1899349,27.8715038 Z M23.8014281,12.8831169 C23.5295008,13.1319092 23.2611672,13.385434 22.9964273,13.6436913 C23.2587713,13.3901665 23.5336935,13.1325853 23.8014281,12.8831169 Z" id="Shape" fill="#55717C"></path>
                    <path d="M92.2305338,64.9285547 C88.5687262,68.7474528 83.7277004,70.8685943 78.7001739,70.8571429 L19.5679226,70.8571429 C15.9625423,70.8709337 12.4232591,69.7845085 9.33784054,67.7167648 C9.17548921,67.6073385 9.0157355,67.4964725 8.85857941,67.3841665 C8.70077392,67.2718606 8.54296843,67.1552353 8.38711115,67.0364502 C8.23125387,66.9176651 8.08708589,66.8031995 7.94096969,66.6844144 L7.92538396,66.671456 C7.7714749,66.5483514 7.62146227,66.4209274 7.47144964,66.2913437 C7.32143701,66.16176 7.18895832,66.0429749 7.04868677,65.9155509 L6.98439565,65.8572382 C6.88503663,65.7643698 6.78957405,65.6736612 6.69021503,65.5764734 L6.51877203,65.412334 C6.43889517,65.3345838 6.36291475,65.2589933 6.28498611,65.1769236 C6.10380203,64.9955063 5.92456616,64.8054502 5.7472785,64.6132343 C2.06430094,60.6664652 -0.0106846544,55.227711 0,49.5491249 C0,49.3828258 0,49.2165266 0,49.0523872 C0,48.9422411 0,48.8364143 0,48.7154695 C0,48.4368645 0.0234199698,48.1647386 0.0448503455,47.8882933 C0.0448503455,47.7522304 0.0643325053,47.6140078 0.0779700171,47.4779448 C0.0916075289,47.3418819 0.0974521768,47.2619719 0.111089689,47.1388674 C0.1247272,47.0157628 0.138364712,46.8753805 0.155898656,46.743637 C0.202655839,46.3491265 0.260452913,45.9574957 0.329289878,45.5687444 C0.344875606,45.4737164 0.362409549,45.3830078 0.379943493,45.2879797 C0.413063165,45.1130416 0.448131052,44.9402633 0.481250724,44.767485 C0.508525747,44.6486999 0.533852555,44.5299148 0.561127579,44.4132895 C0.588402602,44.2966641 0.619574058,44.1606012 0.650745514,44.0353369 C0.672175889,43.9446283 0.693606265,43.8582391 0.716984857,43.77185 C0.740363448,43.6854608 0.759845608,43.6077106 0.7832242,43.5234811 C0.806602792,43.4392517 0.833877815,43.3377444 0.861152839,43.2427164 C0.888427863,43.1476883 0.909858238,43.0720978 0.937133262,42.9878683 C1.05532503,42.5890384 1.1852061,42.1952478 1.32677646,41.8064966 C1.36963721,41.6855518 1.41444618,41.564607 1.45925514,41.4458219 C1.50406411,41.3270368 1.54887308,41.206092 1.59757848,41.0873069 C1.64628388,40.9685218 1.69109284,40.8497367 1.74174646,40.7331113 C1.79240007,40.616486 1.83915726,40.4977009 1.89175909,40.3832352 C1.94436092,40.2687696 1.99306632,40.1499845 2.04761637,40.0355189 C2.10216641,39.9210532 2.15282003,39.8044279 2.20931829,39.692122 C2.26581656,39.5798161 2.31841839,39.4631907 2.37686487,39.3508848 C2.48986139,39.1349119 2.60675435,38.8995014 2.72754374,38.6770494 C2.84833313,38.4545973 2.96132966,38.2602217 3.08017083,38.0550474 C3.47162954,37.3932669 3.89568458,36.7559007 4.35040765,36.145847 C4.41469878,36.0572982 4.4789899,35.9730687 4.54522925,35.8866796 C4.79070446,35.5771184 5.04332313,35.2754763 5.30308526,34.9817531 C5.36737639,34.9061626 5.4297193,34.8348916 5.49790686,34.7657802 C5.72909515,34.5037331 5.96742691,34.2488851 6.21290212,34.0012362 L6.39798264,33.8154995 C6.69281266,33.5275356 6.99608494,33.2446112 7.3077995,32.966726 L7.5026211,32.8004269 C7.66627124,32.6622042 7.83381781,32.5239816 8.00136439,32.3900784 C8.07929302,32.3274463 8.15722166,32.2669738 8.2351503,32.2086612 C8.40854152,32.0725982 8.58582918,31.9408548 8.76311683,31.811271 C8.85273477,31.7443194 8.94624913,31.6816873 9.0397635,31.6168954 L9.2832905,31.4505963 L9.47811209,31.325332 C9.57747111,31.2583804 9.67293369,31.1935886 9.78008557,31.1309564 L9.81515346,31.1093591 C9.91061604,31.046727 10.0099751,30.9884143 10.1073859,30.9301016 C10.2047967,30.8717889 10.3197414,30.8026776 10.4268933,30.7422052 L10.7502971,30.5586282 L11.0775974,30.3836902 L11.4107423,30.2130716 C11.632839,30.1029254 11.8568838,29.9970987 12.0848251,29.8934317 C12.3127663,29.7897647 12.5231737,29.6990561 12.7433221,29.6083475 C12.7803382,29.4463678 12.8193025,29.2865479 12.8582668,29.1245682 C12.9167133,28.886998 12.9751598,28.6472681 13.0375027,28.4140174 C13.0998456,28.1807667 13.1621885,27.9410368 13.2323243,27.7056263 C13.3024601,27.4702159 13.364803,27.2369651 13.4271459,27.0037144 C13.4894888,26.7704637 13.5674174,26.5415324 13.6414496,26.3147609 C13.6422944,26.3104922 13.6422944,26.3060712 13.6414496,26.3018025 C13.7135336,26.0858296 13.7836694,25.8698567 13.8596498,25.6538838 C13.8596498,25.6387657 13.8596498,25.6214879 13.8752355,25.60421 C14.0258976,25.1722643 14.1830537,24.7403185 14.3467038,24.3083727 L14.3876164,24.202546 C14.4597003,24.0168093 14.5317843,23.8310726 14.6077648,23.6474956 L14.6603666,23.5179119 C14.7305024,23.3472933 14.8006381,23.1766747 14.8727221,23.0060561 L14.9428579,22.8440764 C15.0227348,22.6604995 15.1006634,22.4790823 15.1824885,22.297665 L15.223401,22.2047967 C15.3149672,22.0017822 15.4084815,21.7987676 15.5019959,21.5979128 C15.5955103,21.3970581 15.6968175,21.1940435 15.7903319,20.9931887 L15.8702087,20.8333688 C15.9403445,20.6951461 16.0065838,20.5569235 16.080616,20.4208606 C16.1293214,20.321513 16.1780268,20.2221655 16.2325769,20.1249777 C16.2871269,20.0277899 16.3631073,19.8722894 16.4273985,19.7470251 C16.4566217,19.6930319 16.485845,19.6390387 16.5150682,19.5850455 C16.6066343,19.4101074 16.7098898,19.2373291 16.8014559,19.0645508 C16.8930221,18.8917725 16.9962775,18.7189942 17.0975848,18.5462158 C17.1755134,18.4144724 17.2514938,18.2805692 17.3313707,18.1509854 L17.4619012,17.9350125 C17.5320369,17.8205469 17.6021727,17.7060813 17.6742567,17.5937754 C17.7463407,17.4814695 17.81258,17.3778025 17.884664,17.2611771 C17.956748,17.1445518 17.9801266,17.1099961 18.0307802,17.0322458 C18.1106571,16.9069816 18.1924821,16.7773978 18.2782037,16.6542933 L18.3814591,16.4987928 C18.4769217,16.354091 18.5762807,16.2093891 18.6736915,16.066847 C18.8646167,15.7918415 19.0594383,15.5182759 19.2581563,15.24615 C19.345826,15.1252052 19.4354439,15.0042604 19.5250619,14.8833155 C19.7250787,14.616949 19.9296414,14.3520222 20.1387499,14.0885353 C20.2244714,13.9783891 20.3121411,13.8725624 20.4017591,13.7602565 L20.4816359,13.6630687 C20.6063217,13.5097279 20.7329558,13.3563872 20.8595898,13.2052061 L20.9024506,13.1555324 C21.0427221,12.9892333 21.1849419,12.8250939 21.3310581,12.6609545 C21.9992962,11.9007299 22.6948093,11.1685818 23.4273385,10.4709893 C23.7143756,10.1959838 24.0053092,9.9260177 24.3001392,9.66109094 C24.4832715,9.49695154 24.668352,9.3371316 24.8534326,9.17731166 C24.8755676,9.15544172 24.8989986,9.13523908 24.9235683,9.11683925 C25.1183899,8.95054012 25.3132115,8.78856045 25.5080331,8.62874051 C25.7028547,8.46892057 25.9113138,8.30478117 26.1158765,8.14496122 L26.1275658,8.14496122 C26.3360249,7.98298155 26.5464322,7.82532134 26.7548914,7.66766113 C26.9633505,7.51000091 27.1796024,7.35881989 27.391958,7.20763886 C27.8192667,6.90671663 28.2530694,6.61875277 28.6933663,6.34374728 C28.9135147,6.20552463 29.1336631,6.06730197 29.3557597,5.93339878 C29.5778563,5.79949559 29.7999529,5.66775212 30.025946,5.54032811 C30.1428389,5.47121679 30.2636283,5.40642492 30.3824695,5.34163305 C31.8456521,4.51472019 33.3607524,3.80592843 34.9159681,3.22077922 C34.3159176,3.69807932 18.804222,11.6933959 19.4315475,28.3967396 C13.6114362,30.7341176 8.88644353,35.5727034 6.32395043,41.819455 C5.31899753,48.6034798 7.37164711,55.503385 11.8198677,60.2937764 C15.4986798,64.3198847 20.4671769,66.5651443 25.6366154,66.5375528 L84.7708149,66.5375528 C87.3278985,66.5415933 89.8613599,65.9951472 92.2305338,64.9285547 Z" id="Path" fill="#7BB2FF"></path>
                </g>
                <g id="github-copy-9" transform="translate(68.786127, 0.000000)" fill="#000000">
                    <path d="M35.6067748,0 C18.1447125,0.000738772232 3.26020551,12.9215072 0.463010706,30.5071868 C-2.3341841,48.0928665 7.78154662,65.1529106 24.3472316,70.7876048 C26.1274078,71.1055181 26.7949739,70.0158152 26.7949739,69.0621844 C26.7949739,68.1995106 26.7504339,65.3389089 26.7504339,62.2967567 C17.8050129,63.9767349 15.4907839,60.0719815 14.7787134,58.0287205 C13.9885848,56.04149 12.736052,54.2804418 11.1293522,52.8977562 C9.88322886,52.2166692 8.10305267,50.5366546 11.0848122,50.4913215 C13.3955034,50.7471343 15.4386478,52.1367688 16.5588896,54.2144881 C17.5423707,56.017031 19.1885578,57.3461258 21.1340582,57.9083773 C23.0795587,58.4706289 25.1643954,58.2198036 26.9283447,57.2112708 C27.0824761,55.3646081 27.8891399,53.6380233 29.1981406,52.3529956 C21.2763565,51.4448796 12.9985372,48.3117342 12.9985372,34.4177049 C12.9485061,30.8075642 14.2542213,27.3147025 16.6478984,24.655458 C15.5594338,21.5178063 15.6867918,18.074464 17.0039336,15.0294285 C17.0039336,15.0294285 19.9856219,14.0758704 26.7949027,18.7527041 C32.6206648,17.1179983 38.7709025,17.1179983 44.5966646,18.7527041 C51.4057673,14.030501 54.3876337,15.0294285 54.3876337,15.0294285 C55.7049543,18.0744219 55.8323148,21.5178345 54.7436689,24.655458 C57.1445541,27.3101511 58.4514093,30.8060625 58.3930301,34.4177049 C58.3930301,48.3571763 50.0706352,51.4448796 42.1489224,52.3529956 C43.8681901,54.1308623 44.7452374,56.5833075 44.5521602,59.0730539 C44.5521602,63.9315471 44.5076202,67.8363005 44.5076202,69.0623297 C44.5076202,70.0158878 45.1751863,71.1509965 46.9553625,70.7877501 C63.4905142,65.1075489 73.559816,48.0444506 70.7434659,30.4772347 C67.9271158,12.9100188 53.0540533,0.00926458536 35.6067748,0 Z" id="Path"></path>
                </g>
            </g>
            <g id="Group-3" transform="translate(423.000000, 52.000000)">
                <g id="Group">
                    <g id="Oval">
                        <use fill="black" fill-opacity="1" filter="url(#filter-13)" xlink:href="#path-12"></use>
                        <circle stroke="#0055C2" stroke-width="5" stroke-linejoin="square" fill="#FFFFFF" fill-rule="evenodd" cx="51.5" cy="51.5" r="49"></circle>
                    </g>
                    <circle id="Oval-Copy" stroke="#0055C2" stroke-width="5" fill="#FFFFFF" cx="51.5" cy="51.5" r="37.6456693"></circle>
                </g>
                <text id="PAT" font-family="Helvetica-Bold, Helvetica" font-size="32" font-weight="bold" fill="#0055C2">
                    <tspan x="21.859375" y="65">PAT</tspan>
                </text>
            </g>
            <g id="Group-5-Copy-3" transform="translate(299.000000, 107.000000) rotate(-180.000000) translate(-299.000000, -107.000000) translate(182.000000, 75.000000)" fill="#C5DDFF">
                <rect id="Rectangle" transform="translate(112.546713, 31.189873) rotate(-540.000000) translate(-112.546713, -31.189873) " x="0" y="13.7721519" width="225.093426" height="34.835443"></rect>
                <path d="M226.354645,24.1316137 L254.163888,38.2046302 C254.656667,38.4540038 254.853986,39.0556374 254.604613,39.5484165 C254.434371,39.8848253 254.089389,40.0968858 253.712357,40.0968858 L198.093871,40.0968858 C197.541587,40.0968858 197.093871,39.6491706 197.093871,39.0968858 C197.093871,38.719854 197.305932,38.3748717 197.642341,38.2046302 L225.451583,24.1316137 C225.735464,23.9879545 226.070764,23.9879545 226.354645,24.1316137 Z" id="Triangle-Copy" transform="translate(225.903114, 32.000000) scale(-1, 1) rotate(-450.000000) translate(-225.903114, -32.000000) "></path>
            </g>
            <g id="Group-5" transform="translate(236.000000, 53.000000)">
                <rect id="Rectangle-Copy-2" stroke="#0055C2" fill="#0055C2" x="0.5" y="0.5" width="132" height="107" rx="6"></rect>
                <path d="M39.5654848,34.0538507 C39.4639212,33.3599104 39.4300667,32.8521493 39.4300667,31.8704776 L39.4300667,28.0453433 L46.2348303,28.0453433 L46.2348303,31.8704776 C46.2348303,32.8690746 46.2009758,33.3937612 46.0994121,34.0538507 L48.6215758,34.0538507 C48.5200121,33.3429851 48.4861576,32.8521493 48.4861576,31.8704776 L48.4861576,22.7477015 C48.4861576,21.7829552 48.5200121,21.275194 48.6215758,20.5812537 L46.0994121,20.5812537 C46.2009758,21.1905672 46.2348303,21.7998806 46.2348303,22.7646269 L46.2348303,26.0142985 L39.4300667,26.0142985 L39.4300667,22.7477015 C39.4300667,21.8506567 39.4639212,21.2921194 39.5654848,20.5812537 L37.0433212,20.5812537 C37.1448848,21.2413433 37.1787394,21.7660299 37.1787394,22.7646269 L37.1787394,31.8704776 C37.1787394,32.8690746 37.1448848,33.4106866 37.0433212,34.0538507 L39.5654848,34.0538507 Z M57.1021394,34.0538507 C57.0005758,33.3599104 56.9667212,32.7675224 56.9667212,31.8535522 L56.9667212,22.6122985 L59.0826303,22.6122985 C60.3013939,22.6122985 60.9446303,22.6461493 61.5709394,22.7307761 L61.5709394,20.4627761 C60.9705855,20.5417612 60.3849771,20.5765146 59.3186642,20.5807974 L52.3794303,20.5812537 C51.4145758,20.5812537 50.686703,20.547403 50.0773212,20.4627761 L50.0773212,22.7307761 C50.6697758,22.6461493 51.3976485,22.6122985 52.3963576,22.6122985 L54.6815394,22.6122985 L54.6815394,31.8535522 C54.6815394,32.7675224 54.6476848,33.3429851 54.5461212,34.0538507 L57.1021394,34.0538507 Z M69.1035758,34.0538507 C69.0020121,33.3599104 68.9681576,32.7675224 68.9681576,31.8535522 L68.9681576,22.6122985 L71.0840667,22.6122985 C72.3028303,22.6122985 72.9460667,22.6461493 73.5723758,22.7307761 L73.5723758,20.4627761 C72.9720218,20.5417612 72.3864134,20.5765146 71.3201006,20.5807974 L64.3808667,20.5812537 C63.4160121,20.5812537 62.6881394,20.547403 62.0787576,20.4627761 L62.0787576,22.7307761 C62.6712121,22.6461493 63.3990848,22.6122985 64.3977939,22.6122985 L66.6829758,22.6122985 L66.6829758,31.8535522 C66.6829758,32.7675224 66.6491212,33.3429851 66.5475576,34.0538507 L69.1035758,34.0538507 Z M77.5333576,34.0538507 C77.4317939,33.4106866 77.3979394,32.7675224 77.3979394,31.8535522 L77.3979394,29.0270149 L80.6310485,29.0270149 C82.2560667,29.0270149 83.4071212,28.6377313 84.2365576,27.8083881 C84.9813576,27.0298209 85.3706848,25.9804478 85.3706848,24.6941194 C85.3706848,23.4754925 85.0152121,22.4599701 84.3211939,21.7829552 C83.5086848,20.9705373 82.3576303,20.5812537 80.7156848,20.5812537 L77.1778848,20.5812537 C76.2807394,20.5812537 75.7559939,20.5643284 75.0281212,20.5304776 C75.1296848,21.2921194 75.1635394,21.9014328 75.1635394,22.7138507 L75.1635394,31.8704776 C75.1635394,32.7844478 75.1296848,33.3768358 75.0281212,34.0538507 L77.5333576,34.0538507 Z M80.6310485,27.080597 L77.3979394,27.080597 L77.3979394,22.5276716 L80.6310485,22.5276716 C81.5281939,22.5276716 82.0867939,22.7138507 82.4761212,23.1369851 C82.8485212,23.5262687 83.0347212,24.084806 83.0347212,24.7618209 C83.0347212,26.2512537 82.1883576,27.080597 80.6310485,27.080597 Z M91.9892485,34.3246567 C93.8004667,34.3246567 95.1377212,33.9015224 96.0348667,33.0383284 C96.7288848,32.3443881 97.1012848,31.3627164 97.1012848,30.1610149 C97.1012848,28.8916119 96.6611758,27.9607164 95.6963212,27.2498507 C95.0869394,26.8267164 94.2744303,26.5051343 92.9371758,26.217403 C91.3937712,25.8698284 91.0267905,25.7849208 90.7385372,25.6812514 L90.6644049,25.6535965 C90.6275098,25.6393713 90.5903303,25.6244104 90.5504303,25.6080896 C89.7717758,25.2695821 89.3993758,24.7787463 89.3993758,24.0678806 C89.3993758,22.9677313 90.3980848,22.2230149 91.8707576,22.2230149 C92.8017576,22.2230149 93.5465576,22.5107463 93.9866667,23.0354328 C94.2744303,23.3739403 94.3929212,23.6616716 94.4944848,24.2371343 L96.9150848,23.949403 C96.7119576,23.0523582 96.5088303,22.544597 96.0856485,21.9860597 C95.2562121,20.8689851 93.8004667,20.276597 91.8707576,20.276597 C88.9592667,20.276597 87.0634121,21.7998806 87.0634121,24.1525075 C87.0634121,25.2865075 87.5035212,26.217403 88.3668121,26.8944179 C88.9761939,27.3683284 89.6532848,27.6391343 90.9228303,27.9268657 C93.2587939,28.4684776 93.3603576,28.485403 93.8681758,28.756209 C94.3929212,29.0439403 94.7145394,29.619403 94.7145394,30.3133433 C94.7145394,31.5827463 93.698903,32.3443881 92.0061758,32.3443881 C90.905903,32.3443881 90.0256848,31.9889552 89.5347939,31.345791 C89.230103,30.9565075 89.1285394,30.618 89.0608303,29.8563582 L86.623303,30.1102388 C86.7248667,30.8041791 86.7925758,31.1257612 86.9449212,31.5150448 C87.2665394,32.3443881 87.7574303,32.9875522 88.4345212,33.4445373 C89.2470303,33.9861493 90.6012121,34.3246567 91.9892485,34.3246567 Z" id="HTTPS-Copy" fill="#FFFFFF" fill-rule="nonzero"></path>
                <g id="https-copy" transform="translate(49.975758, 53.194030)" fill="#FFFFFF" fill-rule="nonzero">
                    <path d="M23.8339413,16.6716063 C23.8334147,17.1546583 23.4463699,17.5461271 22.9687392,17.5466978 L22.8185779,17.5466978 L22.8185779,15.7495056 L22.9687392,15.7495056 C23.4115103,15.7495056 23.8339413,16.0908582 23.8339413,16.6716063 Z M1.09208211,8.8358209 L32.7624633,8.8358209 C33.3656036,8.8358209 33.8545455,9.33031237 33.8545455,9.94029851 L33.8545455,26.5074627 C33.8545455,28.3374211 32.38772,29.8208955 30.5782991,29.8208955 L3.27624633,29.8208955 C1.46682545,29.8208955 0,28.3374211 0,26.5074627 L0,9.94029851 C0,9.33031237 0.488941816,8.8358209 1.09208211,8.8358209 Z M6.75725806,14.645028 C6.75725806,14.0350418 6.26831625,13.5405504 5.66517595,13.5405504 C5.06203566,13.5405504 4.57309384,14.0350418 4.57309384,14.645028 L4.57309384,16.636194 L3.61752199,16.636194 L3.61752199,14.645028 C3.61752199,14.0350418 3.12858018,13.5405504 2.52543988,13.5405504 C1.92229959,13.5405504 1.43335777,14.0350418 1.43335777,14.645028 L1.43335777,20.8363153 C1.43335777,21.4463014 1.92229959,21.9407929 2.52543988,21.9407929 C3.12858018,21.9407929 3.61752199,21.4463014 3.61752199,20.8363153 L3.61752199,18.8451493 L4.57309384,18.8451493 L4.57309384,20.8363153 C4.57309384,21.4463014 5.06203566,21.9407929 5.66517595,21.9407929 C6.26831625,21.9407929 6.75725806,21.4463014 6.75725806,20.8363153 L6.75725806,14.645028 Z M13.2414956,14.6343284 C13.2414956,14.0243422 12.7525538,13.5298507 12.1494135,13.5298507 L8.87316716,13.5298507 C8.27002686,13.5298507 7.78108504,14.0243422 7.78108504,14.6343284 C7.78108504,15.2443145 8.27002686,15.738806 8.87316716,15.738806 L9.41920821,15.738806 L9.41920821,20.8470149 C9.41920821,21.4570011 9.90815003,21.9514925 10.5112903,21.9514925 C11.1144306,21.9514925 11.6033724,21.4570011 11.6033724,20.8470149 L11.6033724,15.738806 L12.1494135,15.738806 C12.7525538,15.738806 13.2414956,15.2443145 13.2414956,14.6343284 Z M19.657478,14.6343284 C19.657478,14.0243422 19.1685362,13.5298507 18.5653959,13.5298507 L15.2891496,13.5298507 C14.6860093,13.5298507 14.1970674,14.0243422 14.1970674,14.6343284 C14.1970674,15.2443145 14.6860093,15.738806 15.2891496,15.738806 L15.8351906,15.738806 L15.8351906,20.8470149 C15.8351906,21.4570011 16.3241324,21.9514925 16.9272727,21.9514925 C17.530413,21.9514925 18.0193548,21.4570011 18.0193548,20.8470149 L18.0193548,15.738806 L18.5653959,15.738806 C19.1685362,15.738806 19.657478,15.2443145 19.657478,14.6343284 Z M22.9687392,13.5405504 L21.7264958,13.5405504 C21.1233555,13.5405504 20.6344137,14.0350418 20.6344137,14.645028 L20.6344137,20.8363153 C20.6344137,21.4463014 21.1233555,21.9407929 21.7264958,21.9407929 C22.3296361,21.9407929 22.8185779,21.4463014 22.8185779,20.8363153 L22.8185779,19.755653 C24.8241867,19.755653 26.018242,18.245625 26.018242,16.6716063 C26.0181055,14.8469403 24.5910272,13.5405504 22.9687392,13.5405504 Z M29.2814516,16.1846698 C29.2818649,15.9446611 29.4741438,15.7501997 29.7114589,15.7497817 L31.3291056,15.7497817 C31.9322459,15.7497817 32.4211877,15.2552902 32.4211877,14.6453041 C32.4211877,14.035318 31.9322459,13.5408265 31.3291056,13.5408265 L29.7114589,13.5408265 C29.0154919,13.5415143 28.3484667,13.8225681 27.8578893,14.3218356 C27.367312,14.8211032 27.0936019,15.497449 27.0972506,16.201306 C27.0972506,17.5630578 28.1415909,18.8451493 29.8070161,18.8451493 C30.045429,18.8503608 30.2360122,19.0473182 30.2360122,19.2884935 C30.2360122,19.5296688 30.045429,19.7266262 29.8070161,19.7318377 L28.1893695,19.7318377 C27.5862292,19.7318377 27.0972506,20.2263292 27.0972506,20.8363153 C27.0972506,21.4463014 27.5862292,21.9407929 28.1893695,21.9407929 L29.8070161,21.9407929 C31.2500504,21.9390053 32.4194201,20.7563628 32.4211877,19.2969496 C32.4211877,17.8925373 31.3584553,16.636194 29.7114589,16.636194 C29.5945784,16.6360471 29.4827729,16.5878792 29.4016913,16.5027404 C29.3206096,16.4176015 29.2772111,16.3027992 29.2814516,16.1846698 L29.2814516,16.1846698 Z M32.7624633,6.62686567 L1.09208211,6.62686567 C0.488941816,6.62686567 0,6.1323742 0,5.52238806 L0,3.31343284 C0,1.48347441 1.46682545,0 3.27624633,0 L30.5782991,0 C32.38772,0 33.8545455,1.48347441 33.8545455,3.31343284 L33.8545455,5.52238806 C33.8545455,6.1323742 33.3656036,6.62686567 32.7624633,6.62686567 Z M10.7071826,4.8106903 C11.1278467,4.89590049 11.5588738,4.7241196 11.8089734,4.37158428 C12.0590731,4.01904895 12.0819091,3.55107347 11.867347,3.17534612 C11.6527849,2.79961877 11.2405765,2.58575062 10.8136606,2.62865672 C9.58807141,2.7479403 9.46521217,4.53940299 10.7071826,4.8106903 Z M7.53741422,4.82656716 C7.97701459,4.87048955 8.39948525,4.64225148 8.60780286,4.24829402 C8.81612047,3.85433656 8.76925374,3.37225556 8.48905944,3.02687425 C8.20886513,2.68149293 7.75053173,2.54083934 7.32780752,2.67050867 C6.90508332,2.800178 6.60123021,3.17462991 6.55795308,3.61923507 C6.49907314,4.22607827 6.93743906,4.76642971 7.53741422,4.82656716 L7.53741422,4.82656716 Z M4.78604985,4.74718284 C6.07286386,4.20488433 5.35256745,2.27591418 4.05094208,2.67145522 C3.66539264,2.78961877 3.37556062,3.11297641 3.29701265,3.51259364 C3.21846468,3.91221086 3.36397613,4.32309228 3.67552625,4.58140444 C3.98707637,4.8397166 4.41399339,4.90344655 4.78604985,4.74718284 L4.78604985,4.74718284 Z" id="Shape"></path>
                </g>
            </g>
            <g id="laptop-copy-2" transform="translate(489.000000, 155.000000)" fill-rule="nonzero">
                <path d="M80.7609058,0 L11.4303986,0 C8.23792586,0 5.66086957,2.593396 5.66086957,5.80611046 L5.66086957,43.6038895 C5.66086957,44.9780024 6.14166365,46.2166392 6.93016595,47.2230317 C7.96868118,48.5584371 9.60338107,49.41 11.4303986,49.41 L80.9339916,49.41 C82.6648503,49.3519389 84.2226232,48.5197297 85.2611384,47.2423854 C86.0496407,46.2359929 86.5304348,44.9780024 86.5304348,43.6038895 L86.5304348,5.80611046 C86.5304348,2.593396 83.9341467,0 80.7609058,0 Z M11.4303986,45.5392597 C10.3726516,45.5392597 9.50722225,44.6683431 9.50722225,43.6038895 L9.50722225,5.80611046 C9.50722225,4.72230317 10.3726516,3.87074031 11.4303986,3.87074031 L80.7609058,3.87074031 C81.8186527,3.87074031 82.6840821,4.72230317 82.6840821,5.80611046 L82.6840821,43.6038895 C82.6840821,44.6683431 81.8186527,45.5392597 80.7609058,45.5392597 L11.4303986,45.5392597 Z" id="Shape" fill="#0055C2"></path>
                <path d="M82.4869565,5.19633999 L82.4869565,43.40366 C82.4869565,44.479647 81.6166257,45.36 80.5528881,45.36 L10.8297206,45.36 C9.76598297,45.36 8.89565217,44.479647 8.89565217,43.40366 L8.89565217,5.19633999 C8.89565217,4.1007896 9.76598297,3.24 10.8297206,3.24 L80.5528881,3.24 C81.6166257,3.24 82.4869565,4.1007896 82.4869565,5.19633999 Z" id="Path" fill="#FFFFFF"></path>
                <path d="M92.8563334,73.3438116 L87.9542844,51.1672658 C87.663649,49.8472334 86.9467486,48.6969193 85.9585885,47.8294694 C84.7960472,46.792301 83.2653679,46.17 81.5990587,46.17 L11.3815656,46.17 C9.73463212,46.17 8.18457709,46.792301 7.0414115,47.8106118 C6.03387573,48.6780617 5.31697527,49.8283757 5.02633995,51.1672658 L0.143666592,73.3438116 C-0.263222855,75.2107147 0.201793656,77.1530482 1.44183768,78.6427991 C2.68188171,80.1325501 4.52257207,81 6.49889224,81 L86.5011078,81 C88.4774279,81 90.3181183,80.1325501 91.5581623,78.6427991 C92.7982063,77.1530482 93.2632229,75.2107147 92.8563334,73.3438116 Z M88.535555,76.2667407 C88.0317871,76.8701841 87.295511,77.2284786 86.5011078,77.2284786 L6.49889224,77.2284786 C5.70448903,77.2284786 4.9488372,76.8701841 4.44506932,76.2667407 C3.96067712,75.6632972 3.76692024,74.8901354 3.92192574,74.1358311 L8.82397479,51.9592853 C9.07585873,50.7901137 10.1608973,49.9415214 11.3815656,49.9415214 L81.5990587,49.9415214 C82.8391027,49.9415214 83.9241413,50.7901137 84.1760252,51.9592853 L89.0586986,74.1358311 C89.2330798,74.8901354 89.0393229,75.6632972 88.535555,76.2667407 Z" id="Shape" fill="#0055C2"></path>
                <path d="M89.7015304,74.5468697 L84.7456276,51.506374 C84.4773094,50.2816191 83.3883341,49.4088238 82.1300122,49.4100012 L10.8594103,49.4100012 C9.6204346,49.4100012 8.51912287,50.291654 8.26346122,51.506374 L3.28789216,74.5468697 C3.13056191,75.33056 3.32722472,76.1338426 3.81888174,76.7607948 C4.33020504,77.3877471 5.09719,77.76 5.90350751,77.76 L87.1055813,77.76 C87.9118988,77.76 88.6592175,77.3877471 89.1705408,76.7607948 C89.6818641,76.1338426 89.8785269,75.33056 89.7015304,74.5468697 L89.7015304,74.5468697 Z M14.0332914,54.725626 L78.9667086,54.725626 C80.0692773,54.725626 80.9355812,55.5229697 80.9355812,56.4975009 C80.9355812,57.4720321 80.0692773,58.2693758 78.9667086,58.2693758 L14.0332914,58.2693758 C12.9504115,58.2693758 12.0644188,57.4720321 12.0644188,56.4975009 C12.0644188,55.5229697 12.9504115,54.725626 14.0332914,54.725626 Z M50.7033936,70.6725003 L8.74398887,70.6725003 C7.65644539,70.6725003 6.76663709,69.8928753 6.76663709,68.9006254 C6.76663709,67.9260942 7.65644539,67.1287504 8.74398887,67.1287504 L50.7033936,67.1287504 C51.790937,67.1287504 52.6807453,67.9260942 52.6807453,68.9006254 C52.6807453,69.8928753 51.790937,70.6725003 50.7033936,70.6725003 L50.7033936,70.6725003 Z M80.6912585,70.6725003 L61.7547042,70.6725003 C60.6490668,70.6725003 59.7444543,69.8928753 59.7444543,68.9006254 C59.7444543,67.9260942 60.6490668,67.1287504 61.7547042,67.1287504 L80.6912585,67.1287504 C81.796896,67.1287504 82.7015084,67.9260942 82.7015084,68.9006254 C82.7015084,69.8928753 81.796896,70.6725003 80.6912585,70.6725003 Z" id="Shape" fill="#D0E8F9"></path>
                <path d="M80.7379171,56.07 C80.7379171,57.06 79.8798977,57.87 78.7878731,57.87 L14.4754231,57.87 C13.402899,57.87 12.5253792,57.06 12.5253792,56.07 C12.5253792,55.08 13.402899,54.27 14.4754231,54.27 L78.7878731,54.27 C79.8798977,54.27 80.7379171,55.08 80.7379171,56.07 Z M52.7532861,68.67 C52.7532861,69.678 51.8719872,70.47 50.7948441,70.47 L9.23670296,70.47 C8.15955981,70.47 7.27826087,69.678 7.27826087,68.67 C7.27826087,67.68 8.15955981,66.87 9.23670296,66.87 L50.7948441,66.87 C51.8719872,66.87 52.7532861,67.68 52.7532861,68.67 Z M82.4869565,68.67 C82.4869565,69.678 81.590995,70.47 80.4959309,70.47 L61.7404695,70.47 C60.6454054,70.47 59.7494439,69.678 59.7494439,68.67 C59.7494439,67.68 60.6454054,66.87 61.7404695,66.87 L80.4959309,66.87 C81.590995,66.87 82.4869565,67.68 82.4869565,68.67 Z" id="Shape" fill="#0055C2"></path>
                <path d="M22.6434783,45.36 L36.1829561,45.36 L54.2880907,3.24 L40.7486129,3.24 L22.6434783,45.36 Z M44.7851263,45.36 L63.0782609,3.24 L58.5166778,3.24 L40.2238185,45.36 L44.7851263,45.36 Z" id="Shape" fill="#C5DDFF"></path>
            </g>
        </g>
    </g>
</svg>