<?xml version="1.0" encoding="UTF-8"?>
<svg width="800px" height="600px" viewBox="0 0 800 600" version="1.1" xmlns="http://www.w3.org/2000/svg" xmlns:xlink="http://www.w3.org/1999/xlink">
    <title>2041-10-15-20-10_DeleteFilesFromStagingArea—GitRm</title>
    <defs>
        <path d="M8.68744595,14.5405413 C10.6544909,13.5649687 12,11.5915112 12,9.31636202 C12,6.07252388 9.26504479,3.44227578 5.89152197,3.44227578 C4.52034181,3.44227578 3.25480793,3.87689217 2.23537065,4.61058921 L2.23537065,1.05770107 C2.23537065,0.476155373 1.74046224,0 1.11695169,0 C0.493934821,0 0.0167986821,0.476630104 0.0167986821,1.05770107 L0.0167986821,1.80184219 L0,9.32158406 C-0.0041824725,11.2003327 0.951817666,12.865215 2.41753644,13.8939574 C2.4777647,13.9362085 2.55848043,13.9312238 2.6127846,13.8823265 C2.66758244,13.8334292 2.6779496,13.7558106 2.63746831,13.6950451 C0.724974359,10.8146136 1.16014819,5.53963813 5.89176881,5.53963813 C8.05899866,5.53963813 9.80709909,7.22944376 9.81623206,9.31351363 C9.82240299,10.8599505 9.11620201,12.0365717 8.19549958,12.7781018 C6.36026565,14.2561773 3.64974731,12.6382934 4.49738595,10.4697214 C4.5894562,10.2335427 4.71879884,9.9959397 4.88664808,9.76189723 L5.12361171,9.47705853 C5.19766284,9.39967734 5.25048599,9.29903433 5.2146946,9.19411874 C5.01401603,8.62800181 3.46832203,8.97526767 3.04005964,10.0315445 C3.34292878,9.79631524 3.65986763,9.66433998 3.96940137,9.71489885 C2.38890334,11.275815 3.44141679,13.9563846 5.46005069,14.7513219 C6.40494316,15.1232738 7.55964718,15.0976383 8.68744595,14.5405413" id="path-1"></path>
        <linearGradient x1="28.568518%" y1="104.445731%" x2="78.3472072%" y2="20.6880271%" id="linearGradient-3">
            <stop stop-color="#000F98" offset="0%"></stop>
            <stop stop-color="#00A5FD" offset="100%"></stop>
        </linearGradient>
        <rect id="path-4" x="20" y="62" width="766" height="140"></rect>
        <filter x="-0.5%" y="-2.9%" width="102.1%" height="111.4%" filterUnits="objectBoundingBox" id="filter-5">
            <feOffset dx="4" dy="4" in="SourceAlpha" result="shadowOffsetOuter1"></feOffset>
            <feGaussianBlur stdDeviation="2" in="shadowOffsetOuter1" result="shadowBlurOuter1"></feGaussianBlur>
            <feComposite in="shadowBlurOuter1" in2="SourceAlpha" operator="out" result="shadowBlurOuter1"></feComposite>
            <feColorMatrix values="0 0 0 0 0   0 0 0 0 0   0 0 0 0 0  0 0 0 0.5 0" type="matrix" in="shadowBlurOuter1"></feColorMatrix>
        </filter>
        <path d="M19.0004229,312 L19.0000919,330 C18.9999492,332.761424 21.2384843,335.000041 23.9999081,335.000092 C23.9999387,335.000092 23.9999694,335.000092 24,335 L44,335 C46.7614237,335 49,332.761424 49,330 L49,318.060381 C49,315.298957 46.7614237,313.060381 44,313.060381 L36.4730647,313.060381 C34.8233775,313.060381 33.2798617,312.246659 32.3477305,310.885556 L31.1761602,309.174824 C30.244029,307.813722 28.7005132,307 27.050826,307 L24.0005148,307 C21.239127,307.000092 19.0005656,309.238612 19.0004229,312 Z" id="path-6"></path>
        <filter x="-43.3%" y="-39.3%" width="186.7%" height="192.9%" filterUnits="objectBoundingBox" id="filter-7">
            <feOffset dx="0" dy="2" in="SourceAlpha" result="shadowOffsetOuter1"></feOffset>
            <feGaussianBlur stdDeviation="4" in="shadowOffsetOuter1" result="shadowBlurOuter1"></feGaussianBlur>
            <feColorMatrix values="0 0 0 0 0   0 0 0 0 0   0 0 0 0 0  0 0 0 0.5 0" type="matrix" in="shadowBlurOuter1"></feColorMatrix>
        </filter>
    </defs>
    <g id="2041-10-15-20-10_DeleteFilesFromStagingArea—GitRm" stroke="none" stroke-width="1" fill="none" fill-rule="evenodd">
        <rect fill="#FFFFFF" x="0" y="0" width="800" height="600"></rect>
        <g id="bloovee-winner-logo" transform="translate(725.000000, 580.000000)">
            <path d="M13,13.7751507 C13,14.396312 13.4732558,14.8717809 14.0514961,14.8717809 C14.6474304,14.8717809 15.1204503,14.3968042 15.1204503,13.7751507 L15.1204503,2.09687626 C15.1204503,1.49368045 14.6474304,1 14.0514961,1 C13.4557977,1 13,1.49392656 13,2.09687626 L13,13.7751507 Z M21.7920364,15 C24.6483217,15 26.751078,12.7149437 26.751078,9.97312215 L26.751078,9.93645297 C26.751078,7.17641992 24.6657798,4.92778666 21.8269526,4.92778666 C18.9881254,4.92778666 16.885369,7.212843 16.885369,9.97312215 L16.885369,10.0095452 C16.885369,12.7516128 18.9706673,15 21.7920364,15 Z M21.8269526,13.0621935 C20.179994,13.0621935 19.0055834,11.6547366 19.0055834,9.97312215 L19.0055834,9.93645297 C19.0055834,8.25459244 20.0919958,6.86534709 21.7920364,6.86534709 C23.456689,6.86534709 24.6306277,8.27305008 24.6306277,9.97312215 L24.6306277,10.0095452 C24.6306277,11.6731942 23.5444513,13.0621935 21.8269526,13.0621935 Z M32.8092717,15 C35.665557,15 37.7683133,12.7149437 37.7683133,9.97312215 L37.7683133,9.93645297 C37.7683133,7.17641992 35.6830151,4.92778666 32.8441878,4.92778666 C30.0053606,4.92778666 27.9026043,7.212843 27.9026043,9.97312215 L27.9026043,10.0095452 C27.9026043,12.7516128 29.9879025,15 32.8092717,15 Z M32.8441878,13.0621935 C31.1969933,13.0621935 30.0228187,11.6547366 30.0228187,9.97312215 L30.0228187,9.93645297 C30.0228187,8.25459244 31.109231,6.86534709 32.8092717,6.86534709 C34.4739243,6.86534709 35.647863,8.27305008 35.647863,9.97312215 L35.647863,10.0095452 C35.647863,11.6731942 34.5614506,13.0621935 32.8441878,13.0621935 Z M44.1416963,13.9944275 L47.2261164,6.6096472 C47.2784906,6.49988574 47.3487948,6.28060893 47.3487948,6.07954366 C47.3487948,5.47610175 46.8929971,5.01933658 46.3147568,5.01933658 C45.7539746,5.01933658 45.4737015,5.40300947 45.3158709,5.78692847 L42.8976893,12.2215093 L40.5144239,5.82335156 C40.3393711,5.36634029 40.041404,5.01933658 39.4629278,5.01933658 C38.8846875,5.01933658 38.4116676,5.53098247 38.4116676,6.07954366 C38.4116676,6.28060893 38.4817358,6.46346265 38.534346,6.62785874 L41.6182943,13.9944275 C41.8638872,14.5796579 42.2491448,14.9633308 42.8273851,14.9633308 L42.9326055,14.9633308 C43.5108458,14.9633308 43.8965752,14.5612003 44.1416963,13.9944275 Z M50.0949054,9.27837643 C50.2876522,7.77961573 51.1987758,6.73762019 52.4956289,6.73762019 C53.8974665,6.73762019 54.7036056,7.8524619 54.8437422,9.27837643 L50.0949054,9.27837643 Z M56.070527,13.72027 C56.2281217,13.5558739 56.3508002,13.3181395 56.3508002,13.0439819 C56.3508002,12.5320899 55.9830006,12.1481709 55.5095089,12.1481709 C55.2641519,12.1481709 55.1242513,12.2215093 54.9664207,12.3492362 C54.3704864,12.8611282 53.6695676,13.1901665 52.7759021,13.1901665 C51.4089807,13.1901665 50.3402624,12.3128131 50.1123635,10.7409601 L55.9126964,10.7409601 C56.4560206,10.7409601 56.9115824,10.3021604 56.9115824,9.68050697 C56.9115824,7.45057746 55.4568987,4.92778666 52.513087,4.92778666 C49.8672425,4.92778666 47.9919132,7.19438536 47.9919132,9.95466451 L47.9919132,9.9913337 C47.9919132,12.9708897 50.0597533,15 52.7409859,15 C54.1779755,15 55.2292357,14.5063195 56.070527,13.72027 Z M60.1833231,9.27837643 C60.3763058,7.77961573 61.2871935,6.73762019 62.5842825,6.73762019 C63.9858841,6.73762019 64.7920233,7.8524619 64.9321598,9.27837643 L60.1833231,9.27837643 Z M66.1589447,13.72027 C66.3167752,13.5558739 66.4394537,13.3181395 66.4394537,13.0439819 C66.4394537,12.5320899 66.0714183,12.1481709 65.5981624,12.1481709 C65.3528055,12.1481709 65.2126689,12.2215093 65.0548383,12.3492362 C64.4591399,12.8611282 63.7582212,13.1901665 62.8643197,13.1901665 C61.4976342,13.1901665 60.4289159,12.3128131 60.2007812,10.7409601 L66.0011141,10.7409601 C66.5444382,10.7409601 67,10.3021604 67,9.68050697 C67,7.45057746 65.5455522,4.92778666 62.6015046,4.92778666 C59.9556601,4.92778666 58.0805667,7.19438536 58.0805667,9.95466451 L58.0805667,9.9913337 C58.0805667,12.9708897 60.1484069,15 62.8294035,15 C64.2663932,15 65.3178893,14.5063195 66.1589447,13.72027 L66.1589447,13.72027 Z" id="Fill-1" fill="#030060"></path>
            <g id="Group-4">
                <mask id="mask-2" fill="white">
                    <use xlink:href="#path-1"></use>
                </mask>
                <g id="Clip-3"></g>
                <path d="M8.68744595,14.5405413 C10.6544909,13.5649687 12,11.5915112 12,9.31636202 C12,6.07252388 9.26504479,3.44227578 5.89152197,3.44227578 C4.52034181,3.44227578 3.25480793,3.87689217 2.23537065,4.61058921 L2.23537065,1.05770107 C2.23537065,0.476155373 1.74046224,0 1.11695169,0 C0.493934821,0 0.0167986821,0.476630104 0.0167986821,1.05770107 L0.0167986821,1.80184219 L0,9.32158406 C-0.0041824725,11.2003327 0.951817666,12.865215 2.41753644,13.8939574 C2.4777647,13.9362085 2.55848043,13.9312238 2.6127846,13.8823265 C2.66758244,13.8334292 2.6779496,13.7558106 2.63746831,13.6950451 C0.724974359,10.8146136 1.16014819,5.53963813 5.89176881,5.53963813 C8.05899866,5.53963813 9.80709909,7.22944376 9.81623206,9.31351363 C9.82240299,10.8599505 9.11620201,12.0365717 8.19549958,12.7781018 C6.36026565,14.2561773 3.64974731,12.6382934 4.49738595,10.4697214 C4.5894562,10.2335427 4.71879884,9.9959397 4.88664808,9.76189723 L5.12361171,9.47705853 C5.19766284,9.39967734 5.25048599,9.29903433 5.2146946,9.19411874 C5.01401603,8.62800181 3.46832203,8.97526767 3.04005964,10.0315445 C3.34292878,9.79631524 3.65986763,9.66433998 3.96940137,9.71489885 C2.38890334,11.275815 3.44141679,13.9563846 5.46005069,14.7513219 C6.40494316,15.1232738 7.55964718,15.0976383 8.68744595,14.5405413" id="Fill-2" fill="url(#linearGradient-3)" mask="url(#mask-2)"></path>
            </g>
        </g>
        <g id="Rectangle-Copy-4">
            <use fill="black" fill-opacity="1" filter="url(#filter-5)" xlink:href="#path-4"></use>
            <rect stroke="#006AE1" stroke-width="4" stroke-linejoin="square" fill="#FFFFFF" fill-rule="evenodd" x="22" y="64" width="762" height="136"></rect>
        </g>
        <text id="Delete-Files-From-St" fill-rule="nonzero" font-family="Helvetica" font-size="18" font-weight="normal" fill="#0055C2">
            <tspan x="10" y="23">Delete Files From Staging Area — Git Rm</tspan>
        </text>
        <g id="git" transform="translate(704.000000, 9.000000)">
            <path d="M46.8658496,11.2380575 C45.1623498,11.2380575 43.8939053,12.0891281 43.8939053,14.1376499 C43.8939053,15.6808485 44.7297841,16.7522856 46.7743573,16.7522856 C48.5071097,16.7522856 49.6846843,15.7131436 49.6846843,14.073693 C49.6846843,12.2157755 48.6309666,11.2380575 46.8658496,11.2380575 L46.8658496,11.2380575 Z M43.4607172,25.7011913 C43.0574041,26.2046147 42.6553359,26.7397 42.6553359,27.3710373 C42.6553359,28.6305458 44.2337339,29.0092215 46.4027864,29.0092215 C48.1984009,29.0092215 50.6450424,28.8813076 50.6450424,27.1823327 C50.6450424,26.1723196 49.4674678,26.1102624 47.9805621,26.0152768 L43.4607172,25.7011913 Z M52.6255087,11.3330431 C53.1825537,12.0580995 53.7719634,13.0662128 53.7719634,14.5156924 C53.7719634,18.0124273 51.0776081,20.0603158 47.1764255,20.0603158 C46.1843252,20.0603158 45.2862067,19.9349349 44.7291617,19.7772589 L43.7071863,21.4471049 L46.7413702,21.6351763 C52.0989611,21.9828234 55.257002,22.1404995 55.257002,26.3293624 C55.257002,29.9533779 52.1300809,32 46.7413702,32 C41.1360655,32 39,30.5505204 39,28.0625322 C39,26.6440812 39.6199071,25.8898959 40.7034998,24.848221 C39.680902,24.4087545 39.3410734,23.6216409 39.3410734,22.7705703 C39.3410734,22.0771758 39.6815244,21.4471049 40.2391918,20.8480627 C40.7968593,20.2502869 41.416144,19.6506115 42.1586633,18.9578502 C40.6412601,18.2017651 39.4960502,16.563581 39.4960502,14.231369 C39.4960502,10.6086199 41.8493321,8.12063165 46.5870158,8.12063165 C47.9189448,8.12063165 48.7249485,8.24537935 49.436348,8.43598369 L55.4754632,8.43598369 L55.4754632,11.1133099 L52.6255087,11.3330431 L52.6255087,11.3330431 Z M60.9233016,5.60858036 C59.1575621,5.60858036 58.1355867,4.56817192 58.1355867,2.77167847 C58.1355867,0.977717972 59.1575621,0 60.9233016,0 C62.7195385,0 63.7408917,0.977084735 63.7408917,2.77167847 C63.7415139,4.56817192 62.7195385,5.60858036 60.9233016,5.60858036 Z M56.9275147,24.5423675 L56.9275147,22.0543792 L58.50778,21.8340127 C58.9409681,21.770689 59.0025853,21.6763367 59.0025853,21.2026754 L59.0025853,11.9403174 C59.0025853,11.59457 58.9104706,11.372937 58.5998947,11.279218 L56.9275147,10.6801757 L57.2679657,8.12949697 L63.6792742,8.12949697 L63.6792742,21.2033087 C63.6792742,21.7086318 63.7091492,21.770689 64.174702,21.834646 L65.7543448,22.0550125 L65.7543448,24.5430008 L56.9275147,24.5430008 L56.9275147,24.5423675 Z M78,23.32022 C76.6674487,23.9806863 74.7174798,24.5803617 72.9511179,24.5803617 C69.2665294,24.5803617 67.8736056,23.0694582 67.8736056,19.5074999 L67.8736056,11.2532552 C67.8736056,11.0651838 67.8736056,10.9385364 67.6252693,10.9385364 L65.458084,10.9385364 L65.458084,8.13456287 C68.1841815,7.81857759 69.2671518,6.43242174 69.6076028,2.99837733 L72.5502944,2.99837733 L72.5502944,7.47346341 C72.5502944,7.69319666 72.5502944,7.78881545 72.7980083,7.78881545 L77.1641212,7.78881545 L77.1641212,10.9391697 L72.5502944,10.9391697 L72.5502944,18.4683579 C72.5502944,20.3269086 72.9841049,21.0513318 74.6558625,21.0513318 C75.5241059,21.0513318 76.4209796,20.8315985 77.1641212,20.5479083 L78,23.32022 L78,23.32022 Z" id="Shape" fill="#31251C" fill-rule="nonzero"></path>
            <path d="M32.3772539,15.0299695 L17.9690664,0.622277028 C17.140005,-0.207425676 15.7941261,-0.207425676 14.9644314,0.622277028 L11.9724635,3.61427365 L15.7668919,7.40937182 C16.6497884,7.11169223 17.6606226,7.31120089 18.3636464,8.01486479 C19.0704703,8.72232885 19.2687104,9.74203981 18.9634334,10.6274783 L22.6210571,14.2851371 C23.5052204,13.9804906 24.5268216,14.1774658 25.2336455,14.8849299 C26.221679,15.8723394 26.221679,17.4728423 25.2336455,18.4608852 C24.2449787,19.4489281 22.6451246,19.4489281 21.6570912,18.4608852 C20.914166,17.7173195 20.7304932,16.6260388 21.1067059,15.7108324 L17.6954571,12.2995509 L17.6948238,21.2768075 C17.9361319,21.3958793 18.1628729,21.5542195 18.3636464,21.7543616 C19.3516798,22.7417711 19.3516798,24.3416406 18.3636464,25.3309502 C17.375613,26.3183598 15.7744921,26.3183598 14.7877254,25.3309502 C13.799692,24.3416406 13.799692,22.7417711 14.7877254,21.7543616 C15.0322003,21.5105176 15.3140432,21.3262096 15.6155201,21.2027043 L15.6155201,12.1424774 C15.3140432,12.0196054 15.0322003,11.8359308 14.7877254,11.5908201 C14.0391001,10.842821 13.8592273,9.74520661 14.2430403,8.82620003 L10.5024471,5.08430417 L0.622746073,14.9634666 C-0.207582024,15.7938027 -0.207582024,17.1396945 0.622746073,17.9700305 L15.0309336,32.377723 C15.8606284,33.2074257 17.2058739,33.2074257 18.0368353,32.377723 L32.3772539,18.0359 C33.207582,17.2061973 33.207582,15.8596722 32.3772539,15.0299695 L32.3772539,15.0299695 Z" id="Path" fill="#F34F29" fill-rule="nonzero"></path>
            <polygon id="Path" points="1.12409637e-15 0 79 0 79 33 0 33"></polygon>
        </g>
        <text id="$-git-rm-[file-path]" font-family="Helvetica-Bold, Helvetica" font-size="36" font-weight="bold" fill="#0055C2">
            <tspan x="251.995117" y="149">$ git rm [file path]</tspan>
        </text>
        <text id="Illustration-Copy" font-family="Helvetica-Bold, Helvetica" font-size="24" font-weight="bold" fill="#0055C2">
            <tspan x="140.164062" y="275">Illustration</tspan>
        </text>
        <text id="Local-Working-Direct" font-family="Helvetica" font-size="21" font-weight="normal" fill="#0055C2">
            <tspan x="56" y="323">Local Working Directory</tspan>
        </text>
        <rect id="Rectangle-Copy-3" stroke="#006AE1" x="32.5" y="330.5" width="350" height="192" rx="8"></rect>
        <rect id="Rectangle" fill="#C5DDFF" opacity="0.5" x="44" y="346" width="101" height="169"></rect>
        <rect id="Rectangle-Copy" fill="#C5DDFF" opacity="0.5" x="157" y="346" width="101" height="169"></rect>
        <rect id="Rectangle-Copy-2" fill="#C5DDFF" opacity="0.5" x="270" y="346" width="101" height="169"></rect>
        <g id="documents-copy-8" transform="translate(298.000000, 407.000000)" fill-rule="nonzero">
            <path d="M44.8051948,14.7096774 L44.8051948,56.3870968 L9.55844156,56.3870968 L9.55844156,51.6239631 C9.56997209,51.6097928 39.5488426,14.7284918 39.5640419,14.7096774 L44.8051948,14.7096774 Z" id="Path" fill="#A4C2F7"></path>
            <path d="M39.4285714,50.8709677 C38.2416767,50.8709677 1.32662517,50.8709677 0.597402597,50.8709677 C0.597402597,47.794268 0.597402597,3.2799341 0.597402597,1.22580645 L28.7165249,1.22580645 L31.6177488,7.80579977 L39.4285714,10.6820276 C39.4285714,12.4516412 39.4285714,48.8606933 39.4285714,50.8709677 Z" id="Path" fill="#FFFFFF"></path>
            <polygon id="Path" fill="#A4C2F7" points="40.025974 11.0322581 29.2727273 11.0322581 29.2727273 1.22580645"></polygon>
            <path d="M39.8910767,51.483871 L1.32970256,51.483871 C0.595307834,51.483871 0,50.9599056 0,50.313783 L0,1.17008798 C0,0.523848387 0.595307834,0 1.32970256,0 L29.2534562,0 C29.6060933,0 29.9442367,0.123327273 30.1936889,0.342718768 L40.8313093,9.70342258 C41.0806286,9.92281408 41.2207792,10.2204845 41.2207792,10.5307918 L41.2207792,50.313783 C41.2207792,50.9599056 40.6253384,51.483871 39.8910767,51.483871 Z M2.65940511,49.143695 L38.5613741,49.143695 L38.5613741,11.0154422 L28.7025605,2.34017595 L2.65940511,2.34017595 L2.65940511,49.143695 Z" id="Shape" fill="#418CFE"></path>
            <path d="M39.4885184,11.875 L29.0701478,11.875 C28.3510198,11.875 27.7678515,11.3433562 27.7678515,10.6875 L27.7678515,1.1875 C27.7678515,0.53164375 28.3510198,0 29.0701478,0 C29.7892759,0 30.3724442,0.53164375 30.3724442,1.1875 L30.3724442,9.5 L39.4885184,9.5 C40.2076464,9.5 40.7908147,10.0316438 40.7908147,10.6875 C40.7908147,11.3433562 40.2076464,11.875 39.4885184,11.875 Z M44.6977037,57 L9.66593268,57 C8.94667443,57 8.36363636,56.4682375 8.36363636,55.8125 L8.36363636,51.0625 C8.36363636,50.4067625 8.94667443,49.875 9.66593268,49.875 C10.3851909,49.875 10.968229,50.4067625 10.968229,51.0625 L10.968229,54.625 L43.3954074,54.625 L43.3954074,15.4375 L39.4885184,15.4375 C38.7693904,15.4375 38.1862221,14.9058562 38.1862221,14.25 C38.1862221,13.5941438 38.7693904,13.0625 39.4885184,13.0625 L44.6977037,13.0625 C45.4168317,13.0625 46,13.5941438 46,14.25 L46,55.8125 C46,56.4682375 45.4168317,57 44.6977037,57 Z" id="Shape" fill="#418CFE"></path>
            <path d="M33.8961039,44.1290323 L5.53246753,44.1290323 C4.7865039,44.1290323 4.18181818,43.5925915 4.18181818,42.931085 C4.18181818,42.2695786 4.7865039,41.7331378 5.53246753,41.7331378 L33.8961039,41.7331378 C34.6419325,41.7331378 35.2467532,42.2695786 35.2467532,42.931085 C35.2467532,43.5925915 34.6419325,44.1290323 33.8961039,44.1290323 Z M33.8961039,39.3372434 L5.53246753,39.3372434 C4.7865039,39.3372434 4.18181818,38.8008026 4.18181818,38.1392962 C4.18181818,37.4777897 4.7865039,36.941349 5.53246753,36.941349 L33.8961039,36.941349 C34.6419325,36.941349 35.2467532,37.4777897 35.2467532,38.1392962 C35.2467532,38.8008026 34.6419325,39.3372434 33.8961039,39.3372434 Z M33.8961039,34.5454545 L5.53246753,34.5454545 C4.7865039,34.5454545 4.18181818,34.0090138 4.18181818,33.3475073 C4.18181818,32.6860009 4.7865039,32.1495601 5.53246753,32.1495601 L33.8961039,32.1495601 C34.6419325,32.1495601 35.2467532,32.6860009 35.2467532,33.3475073 C35.2467532,34.0090138 34.6419325,34.5454545 33.8961039,34.5454545 Z M33.8961039,29.7536657 L5.53246753,29.7536657 C4.7865039,29.7536657 4.18181818,29.2173447 4.18181818,28.5557185 C4.18181818,27.8940922 4.7865039,27.3577713 5.53246753,27.3577713 L33.8961039,27.3577713 C34.6419325,27.3577713 35.2467532,27.8940922 35.2467532,28.5557185 C35.2467532,29.2173447 34.6419325,29.7536657 33.8961039,29.7536657 Z M33.8961039,24.9618768 L5.53246753,24.9618768 C4.7865039,24.9618768 4.18181818,24.4255559 4.18181818,23.7639296 C4.18181818,23.1023034 4.7865039,22.5659824 5.53246753,22.5659824 L33.8961039,22.5659824 C34.6419325,22.5659824 35.2467532,23.1023034 35.2467532,23.7639296 C35.2467532,24.4255559 34.6419325,24.9618768 33.8961039,24.9618768 Z M17.6883117,20.170088 L5.53246753,20.170088 C4.7865039,20.170088 4.18181818,19.633767 4.18181818,18.9721408 C4.18181818,18.3105145 4.7865039,17.7741935 5.53246753,17.7741935 L17.6883117,17.7741935 C18.4342753,17.7741935 19.038961,18.3105145 19.038961,18.9721408 C19.038961,19.633767 18.4342753,20.170088 17.6883117,20.170088 Z" id="Shape" fill="#418CFE"></path>
        </g>
        <g id="documents-copy-9" transform="translate(335.000000, 472.000000)" fill-rule="nonzero">
            <path d="M17,6 L17,22 L3,22 L3,20.1714286 C3.00457993,20.1659886 14.9121784,6.00722286 14.9182156,6 L17,6 Z" id="Path" fill="#A4C2F7"></path>
            <path d="M15,20 C14.5415172,20 0.281689655,20 0,20 C0,18.8224976 0,1.78614762 0,1 L10.862069,1 L11.9827759,3.51826905 L15,4.61904762 C15,5.29630714 15,19.2306357 15,20 Z" id="Path" fill="#FFFFFF"></path>
            <polygon id="Path" fill="#A4C2F7" points="15 4 11 4 11 0"></polygon>
            <path d="M15.483871,20 L0.516129032,20 C0.231070968,20 0,19.7964545 0,19.5454545 L0,0.454545455 C0,0.2035 0.231070968,0 0.516129032,0 L11.3548387,0 C11.4917161,0 11.6229677,0.0479090909 11.7197935,0.133136364 L15.8488258,3.7695 C15.9456,3.85472727 16,3.97036364 16,4.09090909 L16,19.5454545 C16,19.7964545 15.7688774,20 15.483871,20 Z M1.03225806,19.0909091 L14.9677419,19.0909091 L14.9677419,4.27918182 L11.1410065,0.909090909 L1.03225806,0.909090909 L1.03225806,19.0909091 Z" id="Shape" fill="#418CFE"></path>
            <path d="M15.4048443,4.58333333 L11.2525952,4.58333333 C10.9659862,4.58333333 10.733564,4.3781375 10.733564,4.125 L10.733564,0.458333333 C10.733564,0.205195833 10.9659862,0 11.2525952,0 C11.5392042,0 11.7716263,0.205195833 11.7716263,0.458333333 L11.7716263,3.66666667 L15.4048443,3.66666667 C15.6914533,3.66666667 15.9238754,3.8718625 15.9238754,4.125 C15.9238754,4.3781375 15.6914533,4.58333333 15.4048443,4.58333333 Z M17.4809689,22 L3.51903114,22 C3.23237024,22 3,21.7947583 3,21.5416667 L3,19.7083333 C3,19.4552417 3.23237024,19.25 3.51903114,19.25 C3.80569204,19.25 4.03806228,19.4552417 4.03806228,19.7083333 L4.03806228,21.0833333 L16.9619377,21.0833333 L16.9619377,5.95833333 L15.4048443,5.95833333 C15.1182353,5.95833333 14.8858131,5.7531375 14.8858131,5.5 C14.8858131,5.2468625 15.1182353,5.04166667 15.4048443,5.04166667 L17.4809689,5.04166667 C17.7675779,5.04166667 18,5.2468625 18,5.5 L18,21.5416667 C18,21.7947583 17.7675779,22 17.4809689,22 Z" id="Shape" fill="#418CFE"></path>
            <path d="M13.4782609,17 L2.52173913,17 C2.23358261,17 2,16.7964545 2,16.5454545 C2,16.2944545 2.23358261,16.0909091 2.52173913,16.0909091 L13.4782609,16.0909091 C13.7663652,16.0909091 14,16.2944545 14,16.5454545 C14,16.7964545 13.7663652,17 13.4782609,17 Z M13.4782609,15.1818182 L2.52173913,15.1818182 C2.23358261,15.1818182 2,14.9782727 2,14.7272727 C2,14.4762727 2.23358261,14.2727273 2.52173913,14.2727273 L13.4782609,14.2727273 C13.7663652,14.2727273 14,14.4762727 14,14.7272727 C14,14.9782727 13.7663652,15.1818182 13.4782609,15.1818182 Z M13.4782609,13.3636364 L2.52173913,13.3636364 C2.23358261,13.3636364 2,13.1600909 2,12.9090909 C2,12.6580909 2.23358261,12.4545455 2.52173913,12.4545455 L13.4782609,12.4545455 C13.7663652,12.4545455 14,12.6580909 14,12.9090909 C14,13.1600909 13.7663652,13.3636364 13.4782609,13.3636364 Z M13.4782609,11.5454545 L2.52173913,11.5454545 C2.23358261,11.5454545 2,11.3419545 2,11.0909091 C2,10.8398636 2.23358261,10.6363636 2.52173913,10.6363636 L13.4782609,10.6363636 C13.7663652,10.6363636 14,10.8398636 14,11.0909091 C14,11.3419545 13.7663652,11.5454545 13.4782609,11.5454545 Z M13.4782609,9.72727273 L2.52173913,9.72727273 C2.23358261,9.72727273 2,9.52377273 2,9.27272727 C2,9.02168182 2.23358261,8.81818182 2.52173913,8.81818182 L13.4782609,8.81818182 C13.7663652,8.81818182 14,9.02168182 14,9.27272727 C14,9.52377273 13.7663652,9.72727273 13.4782609,9.72727273 Z M7.2173913,7.90909091 L2.52173913,7.90909091 C2.23358261,7.90909091 2,7.70559091 2,7.45454545 C2,7.2035 2.23358261,7 2.52173913,7 L7.2173913,7 C7.50554783,7 7.73913043,7.2035 7.73913043,7.45454545 C7.73913043,7.70559091 7.50554783,7.90909091 7.2173913,7.90909091 Z" id="Shape" fill="#418CFE"></path>
        </g>
        <text id="Staging-Area" font-family="Helvetica" font-size="21" font-weight="normal" fill="#0055C2">
            <tspan x="171.388184" y="363">Staging </tspan>
            <tspan x="184.820801" y="388">Area</tspan>
        </text>
        <text id="Working-Tree" font-family="Helvetica" font-size="21" font-weight="normal" fill="#0055C2">
            <tspan x="55.6760254" y="363">Working</tspan>
            <tspan x="72.7949219" y="388">Tree</tspan>
        </text>
        <text id="Local-Repository" font-family="Helvetica" font-size="21" font-weight="normal" fill="#0055C2">
            <tspan x="298.398438" y="367">Local </tspan>
            <tspan x="273.312256" y="392">Repository</tspan>
        </text>
        <g id="Path-Copy-5">
            <use fill="black" fill-opacity="1" filter="url(#filter-7)" xlink:href="#path-6"></use>
            <use fill="#418CFE" fill-rule="evenodd" xlink:href="#path-6"></use>
        </g>
        <g id="Group-3-Copy" transform="translate(279.000000, 434.000000)">
            <rect id="Rectangle" fill="#DE4040" x="0" y="0" width="87" height="20" rx="2"></rect>
            <text id="comitted" font-family="Helvetica" font-size="16" font-weight="normal" fill="#FFFFFF">
                <tspan x="16" y="15">comitted</tspan>
            </text>
        </g>
        <g id="documents-copy-11" transform="translate(70.000000, 407.000000)" fill-rule="nonzero">
            <path d="M45.0816327,14.4915254 L45.0816327,56.0338983 L9.59183673,56.0338983 L9.59183673,51.2861985 C9.60344678,51.2720741 39.7890354,14.5102788 39.8043396,14.4915254 L45.0816327,14.4915254 Z" id="Path" fill="#A4C2F7"></path>
            <path d="M40.2857143,51.2033898 C39.0836785,51.2033898 1.6977088,51.2033898 0.959183673,51.2033898 C0.959183673,48.1498667 0.959183673,3.97085738 0.959183673,1.93220339 L29.4370162,1.93220339 L32.3752505,8.4626299 L40.2857143,11.3171913 C40.2857143,13.0734745 40.2857143,49.2082587 40.2857143,51.2033898 Z" id="Path" fill="#FFFFFF"></path>
            <polygon id="Path" fill="#A4C2F7" points="41.244898 10.6271186 30.6938776 10.6271186 30.6938776 0.966101695"></polygon>
            <path d="M40.8426596,52.1694915 L1.36142199,52.1694915 C0.609508624,52.1694915 0,51.6385484 0,50.9838213 L0,1.18567026 C0,0.530824576 0.609508624,0 1.36142199,0 L29.9512837,0 C30.3123329,0 30.6585425,0.124969646 30.9139452,0.34728282 L41.8053211,9.83264492 C42.0605878,10.0549581 42.2040816,10.3565926 42.2040816,10.6710324 L42.2040816,50.9838213 C42.2040816,51.6385484 41.5944369,52.1694915 40.8426596,52.1694915 Z M2.72284398,49.798151 L39.4812377,49.798151 L39.4812377,11.162137 L29.3872466,2.37134052 L2.72284398,2.37134052 L2.72284398,49.798151 Z" id="Shape" fill="#418CFE"></path>
            <path d="M40.3620507,11.875 L29.7413318,11.875 C29.0082367,11.875 28.413742,11.3433562 28.413742,10.6875 L28.413742,1.1875 C28.413742,0.53164375 29.0082367,0 29.7413318,0 C30.4744269,0 31.0689217,0.53164375 31.0689217,1.1875 L31.0689217,9.5 L40.3620507,9.5 C41.0951458,9.5 41.6896406,10.0316438 41.6896406,10.6875 C41.6896406,11.3433562 41.0951458,11.875 40.3620507,11.875 Z M45.6724101,57 L9.96024292,57 C9.22701504,57 8.63265306,56.4682375 8.63265306,55.8125 L8.63265306,51.0625 C8.63265306,50.4067625 9.22701504,49.875 9.96024292,49.875 C10.6934708,49.875 11.2878328,50.4067625 11.2878328,51.0625 L11.2878328,54.625 L44.3448203,54.625 L44.3448203,15.4375 L40.3620507,15.4375 C39.6289556,15.4375 39.0344608,14.9058563 39.0344608,14.25 C39.0344608,13.5941438 39.6289556,13.0625 40.3620507,13.0625 L45.6724101,13.0625 C46.4055053,13.0625 47,13.5941438 47,14.25 L47,55.8125 C47,56.4682375 46.4055053,57 45.6724101,57 Z" id="Shape" fill="#418CFE"></path>
            <path d="M35.0727595,44.440678 L6.17213842,44.440678 C5.41205209,44.440678 4.79591837,43.8900703 4.79591837,43.211094 C4.79591837,42.5321177 5.41205209,41.98151 6.17213842,41.98151 L35.0727595,41.98151 C35.8327083,41.98151 36.4489796,42.5321177 36.4489796,43.211094 C36.4489796,43.8900703 35.8327083,44.440678 35.0727595,44.440678 Z M35.0727595,39.5223421 L6.17213842,39.5223421 C5.41205209,39.5223421 4.79591837,38.9717344 4.79591837,38.2927581 C4.79591837,37.6137818 5.41205209,37.0631741 6.17213842,37.0631741 L35.0727595,37.0631741 C35.8327083,37.0631741 36.4489796,37.6137818 36.4489796,38.2927581 C36.4489796,38.9717344 35.8327083,39.5223421 35.0727595,39.5223421 Z M35.0727595,34.6040062 L6.17213842,34.6040062 C5.41205209,34.6040062 4.79591837,34.0533985 4.79591837,33.3744222 C4.79591837,32.6954459 5.41205209,32.1448382 6.17213842,32.1448382 L35.0727595,32.1448382 C35.8327083,32.1448382 36.4489796,32.6954459 36.4489796,33.3744222 C36.4489796,34.0533985 35.8327083,34.6040062 35.0727595,34.6040062 Z M35.0727595,29.6856703 L6.17213842,29.6856703 C5.41205209,29.6856703 4.79591837,29.1351855 4.79591837,28.4560863 C4.79591837,27.7769871 5.41205209,27.2265023 6.17213842,27.2265023 L35.0727595,27.2265023 C35.8327083,27.2265023 36.4489796,27.7769871 36.4489796,28.4560863 C36.4489796,29.1351855 35.8327083,29.6856703 35.0727595,29.6856703 Z M35.0727595,24.7673344 L6.17213842,24.7673344 C5.41205209,24.7673344 4.79591837,24.2168496 4.79591837,23.5377504 C4.79591837,22.8586512 5.41205209,22.3081664 6.17213842,22.3081664 L35.0727595,22.3081664 C35.8327083,22.3081664 36.4489796,22.8586512 36.4489796,23.5377504 C36.4489796,24.2168496 35.8327083,24.7673344 35.0727595,24.7673344 Z M18.5581189,19.8489985 L6.17213842,19.8489985 C5.41205209,19.8489985 4.79591837,19.2985137 4.79591837,18.6194145 C4.79591837,17.9403153 5.41205209,17.3898305 6.17213842,17.3898305 L18.5581189,17.3898305 C19.3182052,17.3898305 19.934339,17.9403153 19.934339,18.6194145 C19.934339,19.2985137 19.3182052,19.8489985 18.5581189,19.8489985 Z" id="Shape" fill="#418CFE"></path>
        </g>
        <g id="documents-copy-12" transform="translate(183.000000, 407.000000)" fill-rule="nonzero">
            <path d="M45.0816327,14.4915254 L45.0816327,56.0338983 L9.59183673,56.0338983 L9.59183673,51.2861985 C9.60344678,51.2720741 39.7890354,14.5102788 39.8043396,14.4915254 L45.0816327,14.4915254 Z" id="Path" fill="#A4C2F7"></path>
            <path d="M40.2857143,51.2033898 C39.0836785,51.2033898 1.6977088,51.2033898 0.959183673,51.2033898 C0.959183673,48.1498667 0.959183673,3.97085738 0.959183673,1.93220339 L29.4370162,1.93220339 L32.3752505,8.4626299 L40.2857143,11.3171913 C40.2857143,13.0734745 40.2857143,49.2082587 40.2857143,51.2033898 Z" id="Path" fill="#FFFFFF"></path>
            <polygon id="Path" fill="#A4C2F7" points="41.244898 10.6271186 30.6938776 10.6271186 30.6938776 0.966101695"></polygon>
            <path d="M40.8426596,52.1694915 L1.36142199,52.1694915 C0.609508624,52.1694915 0,51.6385484 0,50.9838213 L0,1.18567026 C0,0.530824576 0.609508624,0 1.36142199,0 L29.9512837,0 C30.3123329,0 30.6585425,0.124969646 30.9139452,0.34728282 L41.8053211,9.83264492 C42.0605878,10.0549581 42.2040816,10.3565926 42.2040816,10.6710324 L42.2040816,50.9838213 C42.2040816,51.6385484 41.5944369,52.1694915 40.8426596,52.1694915 Z M2.72284398,49.798151 L39.4812377,49.798151 L39.4812377,11.162137 L29.3872466,2.37134052 L2.72284398,2.37134052 L2.72284398,49.798151 Z" id="Shape" fill="#418CFE"></path>
            <path d="M40.3620507,11.875 L29.7413318,11.875 C29.0082367,11.875 28.413742,11.3433562 28.413742,10.6875 L28.413742,1.1875 C28.413742,0.53164375 29.0082367,0 29.7413318,0 C30.4744269,0 31.0689217,0.53164375 31.0689217,1.1875 L31.0689217,9.5 L40.3620507,9.5 C41.0951458,9.5 41.6896406,10.0316438 41.6896406,10.6875 C41.6896406,11.3433562 41.0951458,11.875 40.3620507,11.875 Z M45.6724101,57 L9.96024292,57 C9.22701504,57 8.63265306,56.4682375 8.63265306,55.8125 L8.63265306,51.0625 C8.63265306,50.4067625 9.22701504,49.875 9.96024292,49.875 C10.6934708,49.875 11.2878328,50.4067625 11.2878328,51.0625 L11.2878328,54.625 L44.3448203,54.625 L44.3448203,15.4375 L40.3620507,15.4375 C39.6289556,15.4375 39.0344608,14.9058563 39.0344608,14.25 C39.0344608,13.5941438 39.6289556,13.0625 40.3620507,13.0625 L45.6724101,13.0625 C46.4055053,13.0625 47,13.5941438 47,14.25 L47,55.8125 C47,56.4682375 46.4055053,57 45.6724101,57 Z" id="Shape" fill="#418CFE"></path>
            <path d="M35.0727595,44.440678 L6.17213842,44.440678 C5.41205209,44.440678 4.79591837,43.8900703 4.79591837,43.211094 C4.79591837,42.5321177 5.41205209,41.98151 6.17213842,41.98151 L35.0727595,41.98151 C35.8327083,41.98151 36.4489796,42.5321177 36.4489796,43.211094 C36.4489796,43.8900703 35.8327083,44.440678 35.0727595,44.440678 Z M35.0727595,39.5223421 L6.17213842,39.5223421 C5.41205209,39.5223421 4.79591837,38.9717344 4.79591837,38.2927581 C4.79591837,37.6137818 5.41205209,37.0631741 6.17213842,37.0631741 L35.0727595,37.0631741 C35.8327083,37.0631741 36.4489796,37.6137818 36.4489796,38.2927581 C36.4489796,38.9717344 35.8327083,39.5223421 35.0727595,39.5223421 Z M35.0727595,34.6040062 L6.17213842,34.6040062 C5.41205209,34.6040062 4.79591837,34.0533985 4.79591837,33.3744222 C4.79591837,32.6954459 5.41205209,32.1448382 6.17213842,32.1448382 L35.0727595,32.1448382 C35.8327083,32.1448382 36.4489796,32.6954459 36.4489796,33.3744222 C36.4489796,34.0533985 35.8327083,34.6040062 35.0727595,34.6040062 Z M35.0727595,29.6856703 L6.17213842,29.6856703 C5.41205209,29.6856703 4.79591837,29.1351855 4.79591837,28.4560863 C4.79591837,27.7769871 5.41205209,27.2265023 6.17213842,27.2265023 L35.0727595,27.2265023 C35.8327083,27.2265023 36.4489796,27.7769871 36.4489796,28.4560863 C36.4489796,29.1351855 35.8327083,29.6856703 35.0727595,29.6856703 Z M35.0727595,24.7673344 L6.17213842,24.7673344 C5.41205209,24.7673344 4.79591837,24.2168496 4.79591837,23.5377504 C4.79591837,22.8586512 5.41205209,22.3081664 6.17213842,22.3081664 L35.0727595,22.3081664 C35.8327083,22.3081664 36.4489796,22.8586512 36.4489796,23.5377504 C36.4489796,24.2168496 35.8327083,24.7673344 35.0727595,24.7673344 Z M18.5581189,19.8489985 L6.17213842,19.8489985 C5.41205209,19.8489985 4.79591837,19.2985137 4.79591837,18.6194145 C4.79591837,17.9403153 5.41205209,17.3898305 6.17213842,17.3898305 L18.5581189,17.3898305 C19.3182052,17.3898305 19.934339,17.9403153 19.934339,18.6194145 C19.934339,19.2985137 19.3182052,19.8489985 18.5581189,19.8489985 Z" id="Shape" fill="#418CFE"></path>
        </g>
        <g id="delete-copy-3" transform="translate(86.000000, 438.000000)" fill-rule="nonzero">
            <path d="M16.1575586,0 C7.23605028,0 0,7.23602497 0,16.1575519 C0,25.0790788 7.23605028,32.3151038 16.1575586,32.3151038 C25.0790535,32.3151038 32.3151038,25.0790788 32.3151038,16.1575519 C32.3151038,7.23602497 25.0790535,0 16.1575586,0 Z" id="Path" fill="#EE4C45"></path>
            <path d="M13.709438,7.83396455 L13.709438,9.22122911 L9.79245569,9.22122911 L9.79245569,10.6084937 L21.5434025,10.6084937 L21.5434025,9.22122911 L17.6264202,9.22122911 L17.6264202,7.83396455 L13.709438,7.83396455 Z M11.0981164,11.9957582 L11.0981164,24.4811392 L20.2377418,24.4811392 L20.2377418,11.9957582 L11.0981164,11.9957582 Z M12.4037772,13.3830228 L13.709438,13.3830228 L13.709438,23.0938747 L12.4037772,23.0938747 L12.4037772,13.3830228 Z M15.0150987,13.3830228 L16.3207595,13.3830228 L16.3207595,23.0938747 L15.0150987,23.0938747 L15.0150987,13.3830228 Z M17.6264202,13.3830228 L18.932081,13.3830228 L18.932081,23.0938747 L17.6264202,23.0938747 L17.6264202,13.3830228 Z" id="Shape" fill="#FFFFFF"></path>
        </g>
        <g id="delete-copy-4" transform="translate(199.000000, 438.000000)" fill-rule="nonzero">
            <path d="M16.1575586,0 C7.23605028,0 0,7.23602497 0,16.1575519 C0,25.0790788 7.23605028,32.3151038 16.1575586,32.3151038 C25.0790535,32.3151038 32.3151038,25.0790788 32.3151038,16.1575519 C32.3151038,7.23602497 25.0790535,0 16.1575586,0 Z" id="Path" fill="#EE4C45"></path>
            <path d="M13.709438,7.83396455 L13.709438,9.22122911 L9.79245569,9.22122911 L9.79245569,10.6084937 L21.5434025,10.6084937 L21.5434025,9.22122911 L17.6264202,9.22122911 L17.6264202,7.83396455 L13.709438,7.83396455 Z M11.0981164,11.9957582 L11.0981164,24.4811392 L20.2377418,24.4811392 L20.2377418,11.9957582 L11.0981164,11.9957582 Z M12.4037772,13.3830228 L13.709438,13.3830228 L13.709438,23.0938747 L12.4037772,23.0938747 L12.4037772,13.3830228 Z M15.0150987,13.3830228 L16.3207595,13.3830228 L16.3207595,23.0938747 L15.0150987,23.0938747 L15.0150987,13.3830228 Z M17.6264202,13.3830228 L18.932081,13.3830228 L18.932081,23.0938747 L17.6264202,23.0938747 L17.6264202,13.3830228 Z" id="Shape" fill="#FFFFFF"></path>
        </g>
        <g id="delete-copy-5" transform="translate(341.000000, 481.000000)" fill-rule="nonzero">
            <path d="M8,0 C3.58274587,0 0,3.58273333 0,8 C0,12.4172667 3.58274587,16 8,16 C12.4172541,16 16,12.4172667 16,8 C16,3.58273333 12.4172541,0 8,0 Z" id="Path" fill="#EE4C45"></path>
            <path d="M7,4 L7,4.66666667 L5,4.66666667 L5,5.33333333 L11,5.33333333 L11,4.66666667 L9,4.66666667 L9,4 L7,4 Z M5.66666667,6 L5.66666667,12 L10.3333333,12 L10.3333333,6 L5.66666667,6 Z M6.33333333,6.66666667 L7,6.66666667 L7,11.3333333 L6.33333333,11.3333333 L6.33333333,6.66666667 Z M7.66666667,6.66666667 L8.33333333,6.66666667 L8.33333333,11.3333333 L7.66666667,11.3333333 L7.66666667,6.66666667 Z M9,6.66666667 L9.66666667,6.66666667 L9.66666667,11.3333333 L9,11.3333333 L9,6.66666667 Z" id="Shape" fill="#FFFFFF"></path>
        </g>
        <path id="Line-16" d="M211.5,473.5 L225.5,480.5 L211.5,487.5 L211.5,481.5 L92.5,481.5 L92.5,487.5 L78.5,480.5 L92.5,473.5 L92.5,479.5 L211.5,479.5 L211.5,473.5 Z" fill="#0055C2" fill-rule="nonzero"></path>
        <text id="git-rm" font-family="Helvetica-Bold, Helvetica" font-size="21" font-weight="bold" fill="#0055C2">
            <tspan x="125" y="502">git rm</tspan>
        </text>
        <path id="Path-6-Copy-6" d="M310.437775,455.868469 C312.545992,458.027105 314.347201,461.144591 315.859137,465.217958 C316.238004,466.238677 316.495169,467.424672 316.663844,468.789774 C316.816864,470.028176 316.867441,470.920449 316.941657,473.003242 C317.000202,474.646241 316.943745,476.054452 316.760959,477.455651 L322.36236,480.359035 L309.704943,489.567172 L309.932883,473.916356 L314.86001,476.470579 C314.961525,475.413708 314.987398,474.322526 314.942926,473.074463 C314.870825,471.051023 314.822332,470.195521 314.678939,469.035033 C314.527774,467.81164 314.301937,466.770125 313.984132,465.913915 C312.624033,462.249619 311.041559,459.453745 309.252231,457.523696 L309.006951,457.265874 L310.437775,455.868469 Z" transform="translate(312.834378, 473.067172) scale(1, -1) rotate(-135.000000) translate(-312.834378, -473.067172) " fill="#FF6464" fill-rule="nonzero"></path>
        <text id="git-commit" font-family="Helvetica-Bold, Helvetica" font-size="21" font-weight="bold" fill="#0055C2">
            <tspan x="212" y="505">git commit</tspan>
        </text>
        <text id="Commit-new-status-af" font-family="Helvetica-Light, Helvetica" font-size="21" font-weight="300" fill="#0055C2">
            <tspan x="157" y="551">Commit new status after </tspan>
            <tspan x="157" y="576">deleting some files</tspan>
        </text>
        <g id="Group-5" transform="translate(236.000000, 472.500000)" fill="#7BB2FF">
            <rect id="Rectangle" transform="translate(23.500000, 9.000000) rotate(-540.000000) translate(-23.500000, -9.000000) " x="0" y="4.5" width="47" height="9"></rect>
            <path d="M52.8221922,3.68761094 L59.9136239,13.93079 C60.2279899,14.3848742 60.1147259,15.0078262 59.6606416,15.3221922 C59.4934041,15.437972 59.2948361,15.5 59.0914317,15.5 L44.9085683,15.5 C44.3562836,15.5 43.9085683,15.0522847 43.9085683,14.5 C43.9085683,14.2965955 43.9705963,14.0980276 44.0863761,13.93079 L51.1778078,3.68761094 C51.4921738,3.23352673 52.1151258,3.12026274 52.56921,3.43462873 C52.6680593,3.50306291 52.753758,3.58876158 52.8221922,3.68761094 Z" id="Triangle-Copy" transform="translate(52.000000, 9.000000) scale(-1, 1) rotate(-450.000000) translate(-52.000000, -9.000000) "></path>
        </g>
        <line x1="257.5" y1="534.5" x2="265.5" y2="510.5" id="Line-17" stroke="#979797" stroke-linecap="square"></line>
        <text id="$-git-rm--r-[directo" font-family="Helvetica-Bold, Helvetica" font-size="24" font-weight="bold" fill="#0055C2">
            <tspan x="416" y="437">$ git rm -r [directory path]</tspan>
        </text>
        <text id="Delete-a-directory" font-family="Helvetica" font-size="21" font-weight="normal" fill="#0055C2">
            <tspan x="404" y="398">Delete a directory</tspan>
        </text>
        <rect id="Rectangle" stroke="#0055C2" stroke-width="2" x="398" y="373" width="389" height="92" rx="10"></rect>
        <text id="Related-commands-/-o" font-family="Helvetica-Bold, Helvetica" font-size="24" font-weight="bold" fill="#0055C2">
            <tspan x="425.140625" y="275">Related commands / options</tspan>
        </text>
    </g>
</svg>