<svg width="800" height="600" viewBox="0 0 800 600" fill="none" xmlns="http://www.w3.org/2000/svg">
<rect width="800" height="600" fill="url(#paint0_linear_5188_12914)"/>
<g filter="url(#filter0_d_5188_12914)">
<path d="M347.055 407.695V367.422H359.086V407.5C359.086 412.396 358.24 416.276 356.547 419.141C353.682 423.984 348.513 426.406 341.039 426.406C333.565 426.406 328.552 424.453 326 420.547C323.448 416.615 322.172 411.263 322.172 404.492V403.164H333.539V404.492C333.643 408.945 334.125 412.083 334.984 413.906C335.87 415.703 337.745 416.602 340.609 416.602C343.448 416.602 345.323 415.612 346.234 413.633C346.781 412.461 347.055 410.482 347.055 407.695ZM371.742 387.031C374.685 383.281 379.737 381.406 386.898 381.406C391.56 381.406 395.701 382.331 399.32 384.18C402.94 386.029 404.75 389.518 404.75 394.648V414.18C404.75 415.534 404.776 417.174 404.828 419.102C404.906 420.56 405.128 421.549 405.492 422.07C405.857 422.591 406.404 423.021 407.133 423.359V425H395.023C394.685 424.141 394.451 423.333 394.32 422.578C394.19 421.823 394.086 420.964 394.008 420C392.471 421.667 390.701 423.086 388.695 424.258C386.299 425.638 383.591 426.328 380.57 426.328C376.716 426.328 373.526 425.234 371 423.047C368.5 420.833 367.25 417.708 367.25 413.672C367.25 408.438 369.268 404.648 373.305 402.305C375.518 401.029 378.773 400.117 383.07 399.57L386.859 399.102C388.917 398.841 390.388 398.516 391.273 398.125C392.862 397.448 393.656 396.393 393.656 394.961C393.656 393.216 393.044 392.018 391.82 391.367C390.622 390.69 388.852 390.352 386.508 390.352C383.878 390.352 382.016 391.003 380.922 392.305C380.141 393.268 379.62 394.57 379.359 396.211H368.617C368.852 392.487 369.893 389.427 371.742 387.031ZM380.023 416.953C381.065 417.812 382.341 418.242 383.852 418.242C386.247 418.242 388.448 417.539 390.453 416.133C392.484 414.727 393.539 412.161 393.617 408.438V404.297C392.914 404.74 392.198 405.104 391.469 405.391C390.766 405.651 389.789 405.898 388.539 406.133L386.039 406.602C383.695 407.018 382.016 407.526 381 408.125C379.281 409.141 378.422 410.716 378.422 412.852C378.422 414.753 378.956 416.12 380.023 416.953ZM410.492 382.422H422.992L431.859 413.828L440.922 382.422H452.875L437.523 425H425.766L410.492 382.422ZM460.805 387.031C463.747 383.281 468.799 381.406 475.961 381.406C480.622 381.406 484.763 382.331 488.383 384.18C492.003 386.029 493.812 389.518 493.812 394.648V414.18C493.812 415.534 493.839 417.174 493.891 419.102C493.969 420.56 494.19 421.549 494.555 422.07C494.919 422.591 495.466 423.021 496.195 423.359V425H484.086C483.747 424.141 483.513 423.333 483.383 422.578C483.253 421.823 483.148 420.964 483.07 420C481.534 421.667 479.763 423.086 477.758 424.258C475.362 425.638 472.654 426.328 469.633 426.328C465.779 426.328 462.589 425.234 460.062 423.047C457.562 420.833 456.312 417.708 456.312 413.672C456.312 408.438 458.331 404.648 462.367 402.305C464.581 401.029 467.836 400.117 472.133 399.57L475.922 399.102C477.979 398.841 479.451 398.516 480.336 398.125C481.924 397.448 482.719 396.393 482.719 394.961C482.719 393.216 482.107 392.018 480.883 391.367C479.685 390.69 477.914 390.352 475.57 390.352C472.94 390.352 471.078 391.003 469.984 392.305C469.203 393.268 468.682 394.57 468.422 396.211H457.68C457.914 392.487 458.956 389.427 460.805 387.031ZM469.086 416.953C470.128 417.812 471.404 418.242 472.914 418.242C475.31 418.242 477.51 417.539 479.516 416.133C481.547 414.727 482.602 412.161 482.68 408.438V404.297C481.977 404.74 481.26 405.104 480.531 405.391C479.828 405.651 478.852 405.898 477.602 406.133L475.102 406.602C472.758 407.018 471.078 407.526 470.062 408.125C468.344 409.141 467.484 410.716 467.484 412.852C467.484 414.753 468.018 416.12 469.086 416.953ZM533.07 384.375C536.404 386.51 538.318 390.182 538.812 395.391H527.68C527.523 393.958 527.12 392.826 526.469 391.992C525.245 390.482 523.161 389.727 520.219 389.727C517.797 389.727 516.065 390.104 515.023 390.859C514.008 391.615 513.5 392.5 513.5 393.516C513.5 394.792 514.047 395.716 515.141 396.289C516.234 396.888 520.102 397.917 526.742 399.375C531.169 400.417 534.49 401.992 536.703 404.102C538.891 406.237 539.984 408.906 539.984 412.109C539.984 416.328 538.409 419.779 535.258 422.461C532.133 425.117 527.289 426.445 520.727 426.445C514.034 426.445 509.086 425.039 505.883 422.227C502.706 419.388 501.117 415.781 501.117 411.406H512.406C512.641 413.385 513.148 414.792 513.93 415.625C515.31 417.109 517.862 417.852 521.586 417.852C523.773 417.852 525.505 417.526 526.781 416.875C528.083 416.224 528.734 415.247 528.734 413.945C528.734 412.695 528.214 411.745 527.172 411.094C526.13 410.443 522.263 409.323 515.57 407.734C510.753 406.536 507.354 405.039 505.375 403.242C503.396 401.471 502.406 398.919 502.406 395.586C502.406 391.654 503.943 388.281 507.016 385.469C510.115 382.63 514.464 381.211 520.062 381.211C525.375 381.211 529.711 382.266 533.07 384.375ZM585.102 397.695H573.695C573.487 396.107 572.953 394.674 572.094 393.398C570.844 391.68 568.904 390.82 566.273 390.82C562.523 390.82 559.958 392.682 558.578 396.406C557.849 398.385 557.484 401.016 557.484 404.297C557.484 407.422 557.849 409.935 558.578 411.836C559.906 415.378 562.406 417.148 566.078 417.148C568.682 417.148 570.531 416.445 571.625 415.039C572.719 413.633 573.383 411.81 573.617 409.57H584.984C584.724 412.956 583.5 416.159 581.312 419.18C577.823 424.049 572.654 426.484 565.805 426.484C558.956 426.484 553.917 424.453 550.688 420.391C547.458 416.328 545.844 411.055 545.844 404.57C545.844 397.253 547.628 391.562 551.195 387.5C554.763 383.438 559.685 381.406 565.961 381.406C571.299 381.406 575.661 382.604 579.047 385C582.458 387.396 584.477 391.628 585.102 397.695ZM614.203 392.695C609.724 392.695 606.716 394.154 605.18 397.07C604.32 398.711 603.891 401.237 603.891 404.648V425H592.68V382.422H603.305V389.844C605.023 387.005 606.521 385.065 607.797 384.023C609.88 382.279 612.589 381.406 615.922 381.406C616.13 381.406 616.299 381.419 616.43 381.445C616.586 381.445 616.911 381.458 617.406 381.484V392.891C616.703 392.812 616.078 392.76 615.531 392.734C614.984 392.708 614.542 392.695 614.203 392.695ZM635.414 382.422V425H624.125V382.422H635.414ZM635.414 367.07V377.344H624.125V367.07H635.414ZM681.898 386.992C685.336 390.664 687.055 396.055 687.055 403.164C687.055 410.664 685.362 416.38 681.977 420.312C678.617 424.245 674.281 426.211 668.969 426.211C665.583 426.211 662.771 425.365 660.531 423.672C659.307 422.734 658.109 421.367 656.938 419.57V441.758H645.922V382.422H656.586V388.711C657.784 386.862 659.06 385.404 660.414 384.336C662.888 382.435 665.831 381.484 669.242 381.484C674.216 381.484 678.435 383.32 681.898 386.992ZM675.57 403.711C675.57 400.43 674.815 397.526 673.305 395C671.82 392.474 669.398 391.211 666.039 391.211C662.003 391.211 659.229 393.125 657.719 396.953C656.938 398.984 656.547 401.562 656.547 404.688C656.547 409.635 657.862 413.112 660.492 415.117C662.055 416.289 663.904 416.875 666.039 416.875C669.138 416.875 671.495 415.677 673.109 413.281C674.75 410.885 675.57 407.695 675.57 403.711ZM714.633 417.07V425.391L709.359 425.586C704.099 425.768 700.505 424.857 698.578 422.852C697.328 421.576 696.703 419.609 696.703 416.953V390.742H690.766V382.812H696.703V370.938H707.719V382.812H714.633V390.742H707.719V413.242C707.719 414.987 707.94 416.081 708.383 416.523C708.826 416.94 710.18 417.148 712.445 417.148C712.784 417.148 713.135 417.148 713.5 417.148C713.891 417.122 714.268 417.096 714.633 417.07ZM290.18 459.422H302.133V517H290.18V459.422ZM332.523 482.664C328.747 482.664 326.156 484.266 324.75 487.469C324.021 489.161 323.656 491.323 323.656 493.953V517H312.562V474.5H323.305V480.711C324.737 478.523 326.091 476.948 327.367 475.984C329.659 474.266 332.562 473.406 336.078 473.406C340.479 473.406 344.073 474.565 346.859 476.883C349.672 479.174 351.078 482.99 351.078 488.328V517H339.672V491.102C339.672 488.862 339.372 487.143 338.773 485.945C337.68 483.758 335.596 482.664 332.523 482.664ZM380.883 509.07V517.391L375.609 517.586C370.349 517.768 366.755 516.857 364.828 514.852C363.578 513.576 362.953 511.609 362.953 508.953V482.742H357.016V474.812H362.953V462.938H373.969V474.812H380.883V482.742H373.969V505.242C373.969 506.987 374.19 508.081 374.633 508.523C375.076 508.94 376.43 509.148 378.695 509.148C379.034 509.148 379.385 509.148 379.75 509.148C380.141 509.122 380.518 509.096 380.883 509.07ZM409.438 484.695C404.958 484.695 401.951 486.154 400.414 489.07C399.555 490.711 399.125 493.237 399.125 496.648V517H387.914V474.422H398.539V481.844C400.258 479.005 401.755 477.065 403.031 476.023C405.115 474.279 407.823 473.406 411.156 473.406C411.365 473.406 411.534 473.419 411.664 473.445C411.82 473.445 412.146 473.458 412.641 473.484V484.891C411.938 484.812 411.312 484.76 410.766 484.734C410.219 484.708 409.776 484.695 409.438 484.695ZM454.711 479.812C458.305 484.318 460.102 489.643 460.102 495.789C460.102 502.039 458.305 507.391 454.711 511.844C451.117 516.271 445.661 518.484 438.344 518.484C431.026 518.484 425.57 516.271 421.977 511.844C418.383 507.391 416.586 502.039 416.586 495.789C416.586 489.643 418.383 484.318 421.977 479.812C425.57 475.307 431.026 473.055 438.344 473.055C445.661 473.055 451.117 475.307 454.711 479.812ZM438.305 482.469C435.049 482.469 432.536 483.628 430.766 485.945C429.021 488.237 428.148 491.518 428.148 495.789C428.148 500.06 429.021 503.354 430.766 505.672C432.536 507.99 435.049 509.148 438.305 509.148C441.56 509.148 444.06 507.99 445.805 505.672C447.549 503.354 448.422 500.06 448.422 495.789C448.422 491.518 447.549 488.237 445.805 485.945C444.06 483.628 441.56 482.469 438.305 482.469ZM506.859 459.5V517H496.039V511.102C494.451 513.628 492.641 515.464 490.609 516.609C488.578 517.755 486.052 518.328 483.031 518.328C478.057 518.328 473.865 516.323 470.453 512.312C467.068 508.276 465.375 503.107 465.375 496.805C465.375 489.539 467.042 483.823 470.375 479.656C473.734 475.49 478.214 473.406 483.812 473.406C486.391 473.406 488.682 473.979 490.688 475.125C492.693 476.245 494.32 477.807 495.57 479.812V459.5H506.859ZM476.859 495.984C476.859 499.917 477.641 503.055 479.203 505.398C480.74 507.768 483.083 508.953 486.234 508.953C489.385 508.953 491.781 507.781 493.422 505.438C495.062 503.094 495.883 500.06 495.883 496.336C495.883 491.128 494.568 487.404 491.938 485.164C490.323 483.81 488.448 483.133 486.312 483.133C483.057 483.133 480.661 484.37 479.125 486.844C477.615 489.292 476.859 492.339 476.859 495.984ZM544.32 510.984C544.216 511.115 543.956 511.505 543.539 512.156C543.122 512.807 542.628 513.38 542.055 513.875C540.31 515.438 538.617 516.505 536.977 517.078C535.362 517.651 533.461 517.938 531.273 517.938C524.971 517.938 520.727 515.672 518.539 511.141C517.315 508.641 516.703 504.956 516.703 500.086V474.422H528.109V500.086C528.109 502.508 528.396 504.331 528.969 505.555C529.984 507.716 531.977 508.797 534.945 508.797C538.747 508.797 541.352 507.26 542.758 504.188C543.487 502.521 543.852 500.32 543.852 497.586V474.422H555.141V517H544.32V510.984ZM602.758 489.695H591.352C591.143 488.107 590.609 486.674 589.75 485.398C588.5 483.68 586.56 482.82 583.93 482.82C580.18 482.82 577.615 484.682 576.234 488.406C575.505 490.385 575.141 493.016 575.141 496.297C575.141 499.422 575.505 501.935 576.234 503.836C577.562 507.378 580.062 509.148 583.734 509.148C586.339 509.148 588.188 508.445 589.281 507.039C590.375 505.633 591.039 503.81 591.273 501.57H602.641C602.38 504.956 601.156 508.159 598.969 511.18C595.479 516.049 590.31 518.484 583.461 518.484C576.612 518.484 571.573 516.453 568.344 512.391C565.115 508.328 563.5 503.055 563.5 496.57C563.5 489.253 565.284 483.562 568.852 479.5C572.419 475.438 577.341 473.406 583.617 473.406C588.956 473.406 593.318 474.604 596.703 477C600.115 479.396 602.133 483.628 602.758 489.695ZM629.945 509.07V517.391L624.672 517.586C619.411 517.768 615.818 516.857 613.891 514.852C612.641 513.576 612.016 511.609 612.016 508.953V482.742H606.078V474.812H612.016V462.938H623.031V474.812H629.945V482.742H623.031V505.242C623.031 506.987 623.253 508.081 623.695 508.523C624.138 508.94 625.492 509.148 627.758 509.148C628.096 509.148 628.448 509.148 628.812 509.148C629.203 509.122 629.581 509.096 629.945 509.07ZM648.539 474.422V517H637.25V474.422H648.539ZM648.539 459.07V469.344H637.25V459.07H648.539ZM694.867 479.812C698.461 484.318 700.258 489.643 700.258 495.789C700.258 502.039 698.461 507.391 694.867 511.844C691.273 516.271 685.818 518.484 678.5 518.484C671.182 518.484 665.727 516.271 662.133 511.844C658.539 507.391 656.742 502.039 656.742 495.789C656.742 489.643 658.539 484.318 662.133 479.812C665.727 475.307 671.182 473.055 678.5 473.055C685.818 473.055 691.273 475.307 694.867 479.812ZM678.461 482.469C675.206 482.469 672.693 483.628 670.922 485.945C669.177 488.237 668.305 491.518 668.305 495.789C668.305 500.06 669.177 503.354 670.922 505.672C672.693 507.99 675.206 509.148 678.461 509.148C681.716 509.148 684.216 507.99 685.961 505.672C687.706 503.354 688.578 500.06 688.578 495.789C688.578 491.518 687.706 488.237 685.961 485.945C684.216 483.628 681.716 482.469 678.461 482.469ZM728.305 482.664C724.529 482.664 721.938 484.266 720.531 487.469C719.802 489.161 719.438 491.323 719.438 493.953V517H708.344V474.5H719.086V480.711C720.518 478.523 721.872 476.948 723.148 475.984C725.44 474.266 728.344 473.406 731.859 473.406C736.26 473.406 739.854 474.565 742.641 476.883C745.453 479.174 746.859 482.99 746.859 488.328V517H735.453V491.102C735.453 488.862 735.154 487.143 734.555 485.945C733.461 483.758 731.378 482.664 728.305 482.664Z" fill="black"/>
</g>
<path d="M227.323 182.8C234.564 195.125 244.7 203.825 261.353 203.825C275.834 203.825 285.246 196.575 285.246 186.425C285.246 174.825 275.834 170.475 259.905 163.225L251.217 159.6C225.875 148.725 209.223 135.675 209.223 107.4C209.223 81.3 228.772 61 259.905 61C282.35 61 298.279 68.975 309.139 89.275L282.35 106.675C276.558 95.8 270.042 91.45 259.905 91.45C249.769 91.45 243.252 97.975 243.252 106.675C243.252 116.825 249.769 121.175 264.973 127.7L273.662 131.325C303.347 144.375 320 156.7 320 186.425C320 217.6 295.383 235 262.077 235C229.496 235 208.499 219.775 198.362 199.475L227.323 182.8ZM104.237 185.7C110.03 195.125 114.374 203.825 126.682 203.825C138.267 203.825 145.507 199.475 145.507 182.075V61.725H180.261V180.625C180.261 216.875 159.264 232.825 128.131 232.825C99.8932 232.825 83.9644 218.325 76 200.925L104.237 185.7Z" fill="black"/>
<line x1="93.9393" y1="528.939" x2="562.939" y2="59.9393" stroke="black" stroke-width="3"/>
<path d="M741.435 592.713C741.435 593.599 742.138 594.276 742.998 594.276C743.883 594.276 744.587 593.599 744.587 592.713V576.563C744.587 575.703 743.883 575 742.998 575C742.112 575 741.435 575.703 741.435 576.563V592.713Z" fill="#030060"/>
<path d="M748.654 576.849C748.654 577.787 749.435 578.412 750.451 578.412C751.467 578.412 752.248 577.787 752.248 576.849V576.693C752.248 575.755 751.467 575.156 750.451 575.156C749.435 575.156 748.654 575.755 748.654 576.693V576.849ZM748.888 592.713C748.888 593.599 749.591 594.276 750.451 594.276C751.337 594.276 752.04 593.599 752.04 592.713V581.825C752.04 580.939 751.337 580.236 750.451 580.236C749.565 580.236 748.888 580.939 748.888 581.825V592.713Z" fill="#030060"/>
<path d="M756.159 592.713C756.159 593.573 756.863 594.276 757.722 594.276C758.608 594.276 759.311 593.573 759.311 592.713V592.01C760.275 593.287 761.708 594.433 764 594.433C767.256 594.433 770.382 591.854 770.382 587.295V587.243C770.382 582.658 767.23 580.106 764 580.106C761.76 580.106 760.327 581.252 759.311 582.685V576.563C759.311 575.677 758.608 575 757.722 575C756.837 575 756.159 575.677 756.159 576.563V592.713ZM763.245 591.698C761.109 591.698 759.233 589.926 759.233 587.295V587.243C759.233 584.612 761.109 582.841 763.245 582.841C765.381 582.841 767.178 584.586 767.178 587.243V587.295C767.178 590.004 765.407 591.698 763.245 591.698Z" fill="#030060"/>
<path d="M773.818 592.713C773.818 593.599 774.521 594.276 775.381 594.276C776.267 594.276 776.97 593.599 776.97 592.713V576.563C776.97 575.703 776.267 575 775.381 575C774.495 575 773.818 575.703 773.818 576.563V592.713Z" fill="#030060"/>
<path d="M787.628 594.459C791.874 594.459 795 591.203 795 587.295V587.243C795 583.31 791.9 580.106 787.68 580.106C783.46 580.106 780.334 583.362 780.334 587.295V587.347C780.334 591.255 783.434 594.459 787.628 594.459ZM787.68 591.698C785.231 591.698 783.486 589.692 783.486 587.295V587.243C783.486 584.847 785.101 582.867 787.628 582.867C790.102 582.867 791.848 584.873 791.848 587.295V587.347C791.848 589.718 790.233 591.698 787.68 591.698Z" fill="#030060"/>
<path d="M736.96 590.09C735.74 590.65 734.453 591.046 733.208 591.294C728.074 592.314 725.36 589.099 729.634 586.781C730.099 586.529 730.632 586.291 731.228 586.075L732.011 585.826C732.241 585.763 732.463 585.661 732.534 585.515C732.905 584.723 729.731 584.467 727.622 585.589C728.458 585.431 729.186 585.408 729.668 585.609C724.878 586.845 723.788 590.757 726.335 592.642C727.649 593.615 729.127 593.873 731.832 593.682C733.637 593.555 735.48 592.837 736.96 591.969V590.09Z" fill="url(#paint1_linear_5188_12914)"/>
<path d="M734.542 592.784C734.542 593.607 735.171 594.165 736.03 594.165C736.89 594.165 737.478 593.644 737.478 592.784V586.011C737.478 584.214 737.009 582.755 735.993 581.765C735.029 580.776 733.492 580.228 731.434 580.228C729.637 580.228 728.308 580.541 727.006 581.036C726.537 581.218 726.146 581.713 726.146 582.286C726.146 583.016 726.745 583.589 727.475 583.589C727.631 583.589 727.787 583.563 727.97 583.511C728.829 583.172 729.819 582.964 731.018 582.964C733.232 582.964 734.43 584.006 734.43 585.959V585.968L734.542 592.784Z" fill="url(#paint2_linear_5188_12914)"/>
<path d="M733.611 578.379C733.611 578.591 733.273 578.721 732.805 578.721C732.077 578.721 731.583 578.64 730.984 578.282L729.216 577.24C728.956 577.093 728.774 576.93 728.774 576.751C728.774 576.442 729.814 576.116 730.646 576.116C731.192 576.116 731.609 576.295 731.895 576.589L733.377 578.021C733.481 578.119 733.611 578.265 733.611 578.379Z" fill="url(#paint3_linear_5188_12914)"/>
<defs>
<filter id="filter0_d_5188_12914" x="280.18" y="357.07" width="496.68" height="191.414" filterUnits="userSpaceOnUse" color-interpolation-filters="sRGB">
<feFlood flood-opacity="0" result="BackgroundImageFix"/>
<feColorMatrix in="SourceAlpha" type="matrix" values="0 0 0 0 0 0 0 0 0 0 0 0 0 0 0 0 0 0 127 0" result="hardAlpha"/>
<feOffset dx="10" dy="10"/>
<feGaussianBlur stdDeviation="10"/>
<feComposite in2="hardAlpha" operator="out"/>
<feColorMatrix type="matrix" values="0 0 0 0 0 0 0 0 0 0 0 0 0 0 0 0 0 0 0.25 0"/>
<feBlend mode="normal" in2="BackgroundImageFix" result="effect1_dropShadow_5188_12914"/>
<feBlend mode="normal" in="SourceGraphic" in2="effect1_dropShadow_5188_12914" result="shape"/>
</filter>
<linearGradient id="paint0_linear_5188_12914" x1="800" y1="3.28848e-05" x2="-2.41943" y2="596.747" gradientUnits="userSpaceOnUse">
<stop stop-color="#FAFF00"/>
<stop offset="1" stop-color="#E2BE00"/>
</linearGradient>
<linearGradient id="paint1_linear_5188_12914" x1="725" y1="576.116" x2="725" y2="594.165" gradientUnits="userSpaceOnUse">
<stop stop-color="#008EE3"/>
<stop offset="1" stop-color="#0055C2"/>
</linearGradient>
<linearGradient id="paint2_linear_5188_12914" x1="725" y1="576.116" x2="725" y2="594.165" gradientUnits="userSpaceOnUse">
<stop stop-color="#008EE3"/>
<stop offset="1" stop-color="#0055C2"/>
</linearGradient>
<linearGradient id="paint3_linear_5188_12914" x1="725" y1="576.116" x2="725" y2="594.165" gradientUnits="userSpaceOnUse">
<stop stop-color="#008EE3"/>
<stop offset="1" stop-color="#0055C2"/>
</linearGradient>
</defs>
</svg>
