<svg width="800" height="600" viewBox="0 0 800 600" fill="none" xmlns="http://www.w3.org/2000/svg">
<rect width="800" height="600" fill="url(#paint0_linear_5188_12918)"/>
<g filter="url(#filter0_d_5188_12918)">
<path d="M308.547 410H296.516L273 369.102V410H261.789V352.422H274.406L297.336 392.617V352.422H308.547V410ZM354.406 372.812C358 377.318 359.797 382.643 359.797 388.789C359.797 395.039 358 400.391 354.406 404.844C350.812 409.271 345.357 411.484 338.039 411.484C330.721 411.484 325.266 409.271 321.672 404.844C318.078 400.391 316.281 395.039 316.281 388.789C316.281 382.643 318.078 377.318 321.672 372.812C325.266 368.307 330.721 366.055 338.039 366.055C345.357 366.055 350.812 368.307 354.406 372.812ZM338 375.469C334.745 375.469 332.232 376.628 330.461 378.945C328.716 381.237 327.844 384.518 327.844 388.789C327.844 393.06 328.716 396.354 330.461 398.672C332.232 400.99 334.745 402.148 338 402.148C341.255 402.148 343.755 400.99 345.5 398.672C347.245 396.354 348.117 393.06 348.117 388.789C348.117 384.518 347.245 381.237 345.5 378.945C343.755 376.628 341.255 375.469 338 375.469ZM406.555 352.5V410H395.734V404.102C394.146 406.628 392.336 408.464 390.305 409.609C388.273 410.755 385.747 411.328 382.727 411.328C377.753 411.328 373.56 409.323 370.148 405.312C366.763 401.276 365.07 396.107 365.07 389.805C365.07 382.539 366.737 376.823 370.07 372.656C373.43 368.49 377.909 366.406 383.508 366.406C386.086 366.406 388.378 366.979 390.383 368.125C392.388 369.245 394.016 370.807 395.266 372.812V352.5H406.555ZM376.555 388.984C376.555 392.917 377.336 396.055 378.898 398.398C380.435 400.768 382.779 401.953 385.93 401.953C389.081 401.953 391.477 400.781 393.117 398.438C394.758 396.094 395.578 393.06 395.578 389.336C395.578 384.128 394.263 380.404 391.633 378.164C390.018 376.81 388.143 376.133 386.008 376.133C382.753 376.133 380.357 377.37 378.82 379.844C377.31 382.292 376.555 385.339 376.555 388.984ZM453.156 397.5C452.87 400.026 451.555 402.591 449.211 405.195C445.565 409.336 440.461 411.406 433.898 411.406C428.482 411.406 423.703 409.661 419.562 406.172C415.422 402.682 413.352 397.005 413.352 389.141C413.352 381.771 415.214 376.12 418.938 372.188C422.688 368.255 427.544 366.289 433.508 366.289C437.049 366.289 440.24 366.953 443.078 368.281C445.917 369.609 448.26 371.706 450.109 374.57C451.776 377.096 452.857 380.026 453.352 383.359C453.638 385.312 453.755 388.125 453.703 391.797H424.562C424.719 396.068 426.06 399.062 428.586 400.781C430.122 401.849 431.971 402.383 434.133 402.383C436.424 402.383 438.286 401.732 439.719 400.43C440.5 399.727 441.19 398.75 441.789 397.5H453.156ZM442.141 384.453C441.958 381.51 441.06 379.284 439.445 377.773C437.857 376.237 435.878 375.469 433.508 375.469C430.93 375.469 428.924 376.276 427.492 377.891C426.086 379.505 425.201 381.693 424.836 384.453H442.141ZM461.047 398.359H472.883V410H461.047V398.359ZM484.016 367.617H495.148V414.57C495.148 418.867 494.302 422.044 492.609 424.102C490.917 426.159 487.596 427.188 482.648 427.188C482.31 427.188 481.802 427.174 481.125 427.148C480.474 427.122 479.654 427.096 478.664 427.07V418.164C479.289 418.216 479.732 418.242 479.992 418.242C480.253 418.268 480.487 418.281 480.695 418.281C481.789 418.281 482.609 418.008 483.156 417.461C483.729 416.94 484.016 415.911 484.016 414.375V367.617ZM484.016 352.07H495.148V362.344H484.016V352.07ZM535.109 369.375C538.443 371.51 540.357 375.182 540.852 380.391H529.719C529.562 378.958 529.159 377.826 528.508 376.992C527.284 375.482 525.201 374.727 522.258 374.727C519.836 374.727 518.104 375.104 517.062 375.859C516.047 376.615 515.539 377.5 515.539 378.516C515.539 379.792 516.086 380.716 517.18 381.289C518.273 381.888 522.141 382.917 528.781 384.375C533.208 385.417 536.529 386.992 538.742 389.102C540.93 391.237 542.023 393.906 542.023 397.109C542.023 401.328 540.448 404.779 537.297 407.461C534.172 410.117 529.328 411.445 522.766 411.445C516.073 411.445 511.125 410.039 507.922 407.227C504.745 404.388 503.156 400.781 503.156 396.406H514.445C514.68 398.385 515.188 399.792 515.969 400.625C517.349 402.109 519.901 402.852 523.625 402.852C525.812 402.852 527.544 402.526 528.82 401.875C530.122 401.224 530.773 400.247 530.773 398.945C530.773 397.695 530.253 396.745 529.211 396.094C528.169 395.443 524.302 394.323 517.609 392.734C512.792 391.536 509.393 390.039 507.414 388.242C505.435 386.471 504.445 383.919 504.445 380.586C504.445 376.654 505.982 373.281 509.055 370.469C512.154 367.63 516.503 366.211 522.102 366.211C527.414 366.211 531.75 367.266 535.109 369.375ZM172.18 444.422H184.133V502H172.18V444.422ZM214.523 467.664C210.747 467.664 208.156 469.266 206.75 472.469C206.021 474.161 205.656 476.323 205.656 478.953V502H194.562V459.5H205.305V465.711C206.737 463.523 208.091 461.948 209.367 460.984C211.659 459.266 214.562 458.406 218.078 458.406C222.479 458.406 226.073 459.565 228.859 461.883C231.672 464.174 233.078 467.99 233.078 473.328V502H221.672V476.102C221.672 473.862 221.372 472.143 220.773 470.945C219.68 468.758 217.596 467.664 214.523 467.664ZM262.883 494.07V502.391L257.609 502.586C252.349 502.768 248.755 501.857 246.828 499.852C245.578 498.576 244.953 496.609 244.953 493.953V467.742H239.016V459.812H244.953V447.938H255.969V459.812H262.883V467.742H255.969V490.242C255.969 491.987 256.19 493.081 256.633 493.523C257.076 493.94 258.43 494.148 260.695 494.148C261.034 494.148 261.385 494.148 261.75 494.148C262.141 494.122 262.518 494.096 262.883 494.07ZM291.438 469.695C286.958 469.695 283.951 471.154 282.414 474.07C281.555 475.711 281.125 478.237 281.125 481.648V502H269.914V459.422H280.539V466.844C282.258 464.005 283.755 462.065 285.031 461.023C287.115 459.279 289.823 458.406 293.156 458.406C293.365 458.406 293.534 458.419 293.664 458.445C293.82 458.445 294.146 458.458 294.641 458.484V469.891C293.938 469.812 293.312 469.76 292.766 469.734C292.219 469.708 291.776 469.695 291.438 469.695ZM336.711 464.812C340.305 469.318 342.102 474.643 342.102 480.789C342.102 487.039 340.305 492.391 336.711 496.844C333.117 501.271 327.661 503.484 320.344 503.484C313.026 503.484 307.57 501.271 303.977 496.844C300.383 492.391 298.586 487.039 298.586 480.789C298.586 474.643 300.383 469.318 303.977 464.812C307.57 460.307 313.026 458.055 320.344 458.055C327.661 458.055 333.117 460.307 336.711 464.812ZM320.305 467.469C317.049 467.469 314.536 468.628 312.766 470.945C311.021 473.237 310.148 476.518 310.148 480.789C310.148 485.06 311.021 488.354 312.766 490.672C314.536 492.99 317.049 494.148 320.305 494.148C323.56 494.148 326.06 492.99 327.805 490.672C329.549 488.354 330.422 485.06 330.422 480.789C330.422 476.518 329.549 473.237 327.805 470.945C326.06 468.628 323.56 467.469 320.305 467.469ZM388.859 444.5V502H378.039V496.102C376.451 498.628 374.641 500.464 372.609 501.609C370.578 502.755 368.052 503.328 365.031 503.328C360.057 503.328 355.865 501.323 352.453 497.312C349.068 493.276 347.375 488.107 347.375 481.805C347.375 474.539 349.042 468.823 352.375 464.656C355.734 460.49 360.214 458.406 365.812 458.406C368.391 458.406 370.682 458.979 372.688 460.125C374.693 461.245 376.32 462.807 377.57 464.812V444.5H388.859ZM358.859 480.984C358.859 484.917 359.641 488.055 361.203 490.398C362.74 492.768 365.083 493.953 368.234 493.953C371.385 493.953 373.781 492.781 375.422 490.438C377.062 488.094 377.883 485.06 377.883 481.336C377.883 476.128 376.568 472.404 373.938 470.164C372.323 468.81 370.448 468.133 368.312 468.133C365.057 468.133 362.661 469.37 361.125 471.844C359.615 474.292 358.859 477.339 358.859 480.984ZM426.32 495.984C426.216 496.115 425.956 496.505 425.539 497.156C425.122 497.807 424.628 498.38 424.055 498.875C422.31 500.438 420.617 501.505 418.977 502.078C417.362 502.651 415.461 502.938 413.273 502.938C406.971 502.938 402.727 500.672 400.539 496.141C399.315 493.641 398.703 489.956 398.703 485.086V459.422H410.109V485.086C410.109 487.508 410.396 489.331 410.969 490.555C411.984 492.716 413.977 493.797 416.945 493.797C420.747 493.797 423.352 492.26 424.758 489.188C425.487 487.521 425.852 485.32 425.852 482.586V459.422H437.141V502H426.32V495.984ZM484.758 474.695H473.352C473.143 473.107 472.609 471.674 471.75 470.398C470.5 468.68 468.56 467.82 465.93 467.82C462.18 467.82 459.615 469.682 458.234 473.406C457.505 475.385 457.141 478.016 457.141 481.297C457.141 484.422 457.505 486.935 458.234 488.836C459.562 492.378 462.062 494.148 465.734 494.148C468.339 494.148 470.188 493.445 471.281 492.039C472.375 490.633 473.039 488.81 473.273 486.57H484.641C484.38 489.956 483.156 493.159 480.969 496.18C477.479 501.049 472.31 503.484 465.461 503.484C458.612 503.484 453.573 501.453 450.344 497.391C447.115 493.328 445.5 488.055 445.5 481.57C445.5 474.253 447.284 468.562 450.852 464.5C454.419 460.438 459.341 458.406 465.617 458.406C470.956 458.406 475.318 459.604 478.703 462C482.115 464.396 484.133 468.628 484.758 474.695ZM511.945 494.07V502.391L506.672 502.586C501.411 502.768 497.818 501.857 495.891 499.852C494.641 498.576 494.016 496.609 494.016 493.953V467.742H488.078V459.812H494.016V447.938H505.031V459.812H511.945V467.742H505.031V490.242C505.031 491.987 505.253 493.081 505.695 493.523C506.138 493.94 507.492 494.148 509.758 494.148C510.096 494.148 510.448 494.148 510.812 494.148C511.203 494.122 511.581 494.096 511.945 494.07ZM530.539 459.422V502H519.25V459.422H530.539ZM530.539 444.07V454.344H519.25V444.07H530.539ZM576.867 464.812C580.461 469.318 582.258 474.643 582.258 480.789C582.258 487.039 580.461 492.391 576.867 496.844C573.273 501.271 567.818 503.484 560.5 503.484C553.182 503.484 547.727 501.271 544.133 496.844C540.539 492.391 538.742 487.039 538.742 480.789C538.742 474.643 540.539 469.318 544.133 464.812C547.727 460.307 553.182 458.055 560.5 458.055C567.818 458.055 573.273 460.307 576.867 464.812ZM560.461 467.469C557.206 467.469 554.693 468.628 552.922 470.945C551.177 473.237 550.305 476.518 550.305 480.789C550.305 485.06 551.177 488.354 552.922 490.672C554.693 492.99 557.206 494.148 560.461 494.148C563.716 494.148 566.216 492.99 567.961 490.672C569.706 488.354 570.578 485.06 570.578 480.789C570.578 476.518 569.706 473.237 567.961 470.945C566.216 468.628 563.716 467.469 560.461 467.469ZM610.305 467.664C606.529 467.664 603.938 469.266 602.531 472.469C601.802 474.161 601.438 476.323 601.438 478.953V502H590.344V459.5H601.086V465.711C602.518 463.523 603.872 461.948 605.148 460.984C607.44 459.266 610.344 458.406 613.859 458.406C618.26 458.406 621.854 459.565 624.641 461.883C627.453 464.174 628.859 467.99 628.859 473.328V502H617.453V476.102C617.453 473.862 617.154 472.143 616.555 470.945C615.461 468.758 613.378 467.664 610.305 467.664Z" fill="black"/>
</g>
<path d="M398.036 263.571C397.042 263.571 396.114 263.306 395.252 262.842L386.436 257.606C385.11 256.876 385.773 256.612 386.171 256.479C387.96 255.883 388.292 255.75 390.148 254.69C390.347 254.557 390.612 254.623 390.811 254.756L397.572 258.799C397.837 258.931 398.169 258.931 398.367 258.799L424.816 243.487C425.081 243.354 425.214 243.089 425.214 242.758V212.2C425.214 211.868 425.081 211.603 424.816 211.47L398.367 196.224C398.102 196.091 397.771 196.091 397.572 196.224L371.123 211.47C370.858 211.603 370.725 211.934 370.725 212.199V242.757C370.725 243.023 370.858 243.354 371.123 243.487L378.349 247.663C382.26 249.651 384.712 247.331 384.712 245.011V214.85C384.712 214.453 385.044 214.055 385.508 214.055H388.888C389.286 214.055 389.684 214.386 389.684 214.85V245.011C389.684 250.248 386.833 253.297 381.862 253.297C380.337 253.297 379.144 253.297 375.763 251.64L368.803 247.663C367.08 246.669 366.02 244.812 366.02 242.824V212.266C366.02 210.277 367.08 208.421 368.803 207.427L395.252 192.114C396.909 191.186 399.163 191.186 400.82 192.114L427.268 207.427C428.992 208.421 430.053 210.277 430.053 212.266V242.824C430.053 244.812 428.992 246.669 427.268 247.663L400.82 262.975C399.958 263.373 398.964 263.571 398.036 263.571H398.036ZM406.189 242.559C394.589 242.559 392.203 237.256 392.203 232.748C392.203 232.35 392.534 231.953 392.998 231.953H396.445C396.843 231.953 397.174 232.218 397.174 232.616C397.705 236.129 399.229 237.852 406.256 237.852C411.823 237.852 414.211 236.593 414.211 233.61C414.211 231.886 413.547 230.627 404.864 229.765C397.638 229.036 393.131 227.445 393.131 221.678C393.131 216.309 397.639 213.127 405.195 213.127C413.679 213.127 417.856 216.044 418.386 222.407C418.386 222.606 418.32 222.805 418.187 223.004C418.054 223.136 417.856 223.269 417.657 223.269H414.21C413.878 223.269 413.547 223.004 413.481 222.672C412.685 219.027 410.63 217.833 405.195 217.833C399.097 217.833 398.367 219.955 398.367 221.545C398.367 223.468 399.229 224.064 407.449 225.125C415.602 226.186 419.447 227.71 419.447 233.411C419.38 239.244 414.608 242.559 406.189 242.559Z" fill="#539E43"/>
<path d="M315.973 144.056C315.973 142.864 315.31 141.736 314.249 141.139L286.144 124.966C285.679 124.7 285.149 124.568 284.619 124.501H284.354C283.824 124.501 283.293 124.7 282.829 124.966L254.723 141.139C253.662 141.736 253 142.863 253 144.056L253.067 187.54C253.067 188.137 253.398 188.733 253.928 188.999C254.459 189.33 255.121 189.33 255.586 188.999L272.29 179.454C273.35 178.857 274.013 177.73 274.013 176.537V156.187C274.013 154.994 274.676 153.867 275.737 153.27L282.829 149.16C283.36 148.829 283.956 148.696 284.553 148.696C285.149 148.696 285.746 148.829 286.21 149.16L293.303 153.27C294.364 153.867 295.026 154.993 295.026 156.187V176.537C295.026 177.73 295.689 178.857 296.75 179.454L313.454 188.999C313.984 189.33 314.647 189.33 315.177 188.999C315.708 188.733 316.039 188.137 316.039 187.54L315.973 144.056ZM451.066 84.1992C450.536 83.9336 449.873 83.9336 449.408 84.1992C448.878 84.5307 448.547 85.0606 448.547 85.6571V128.744C448.547 129.142 448.348 129.539 447.95 129.805C447.553 130.003 447.155 130.003 446.757 129.805L439.731 125.761C439.216 125.468 438.633 125.314 438.04 125.314C437.448 125.314 436.865 125.468 436.35 125.761L408.244 142.002C407.184 142.598 406.521 143.725 406.521 144.918V177.332C406.521 178.525 407.184 179.653 408.244 180.249L436.35 196.489C436.865 196.783 437.448 196.937 438.04 196.937C438.633 196.937 439.216 196.783 439.731 196.489L467.837 180.249C468.897 179.653 469.56 178.526 469.56 177.332V96.5285C469.56 95.269 468.897 94.1426 467.837 93.5455L451.066 84.1992H451.066ZM448.481 166.66C448.481 166.992 448.348 167.257 448.083 167.389L438.471 172.957C438.337 173.023 438.19 173.057 438.04 173.057C437.891 173.057 437.744 173.023 437.609 172.957L427.998 167.389C427.733 167.257 427.6 166.925 427.6 166.66V155.524C427.6 155.192 427.733 154.927 427.998 154.795L437.609 149.226C437.744 149.161 437.891 149.127 438.04 149.127C438.19 149.127 438.337 149.161 438.471 149.226L448.083 154.795C448.348 154.927 448.481 155.259 448.481 155.524V166.66ZM544.597 155.259C545.658 154.662 546.254 153.535 546.254 152.342V144.454C546.254 143.261 545.591 142.134 544.597 141.538L516.69 125.364C516.175 125.071 515.592 124.916 515 124.916C514.407 124.916 513.825 125.071 513.31 125.364L485.204 141.603C484.143 142.2 483.48 143.327 483.48 144.52V176.935C483.48 178.128 484.143 179.255 485.204 179.851L513.111 195.76C514.172 196.356 515.431 196.356 516.425 195.76L533.328 186.348C533.858 186.083 534.19 185.486 534.19 184.89C534.19 184.293 533.858 183.697 533.328 183.431L505.09 167.191C504.56 166.86 504.228 166.329 504.228 165.733V155.591C504.228 154.994 504.56 154.398 505.09 154.132L513.906 149.094C514.164 148.932 514.463 148.846 514.768 148.846C515.073 148.846 515.371 148.932 515.63 149.094L524.445 154.132C524.976 154.464 525.307 154.994 525.307 155.591V163.545C525.307 164.142 525.639 164.738 526.169 165.003C526.699 165.335 527.362 165.335 527.892 165.003L544.597 155.259V155.259Z" fill="#333333"/>
<path d="M514.567 153.734C514.666 153.67 514.781 153.635 514.898 153.635C515.016 153.635 515.131 153.67 515.23 153.734L520.599 156.85C520.798 156.982 520.931 157.181 520.931 157.446V163.677C520.931 163.942 520.798 164.141 520.599 164.274L515.23 167.389C515.131 167.454 515.016 167.488 514.898 167.488C514.781 167.488 514.666 167.454 514.567 167.389L509.198 164.274C508.999 164.141 508.866 163.942 508.866 163.677V157.446C508.866 157.181 508.999 156.982 509.198 156.85L514.567 153.734V153.734Z" fill="#539E43"/>
<mask id="mask0_5188_12918" style="mask-type:alpha" maskUnits="userSpaceOnUse" x="330" y="125" width="63" height="72">
<path d="M362.97 125.496C362.455 125.203 361.872 125.049 361.28 125.049C360.687 125.049 360.105 125.203 359.59 125.496L331.683 141.603C330.622 142.199 330.025 143.326 330.025 144.519V176.802C330.025 177.995 330.688 179.122 331.683 179.718L359.59 195.826C360.105 196.119 360.687 196.273 361.28 196.273C361.872 196.273 362.455 196.119 362.97 195.826L390.877 179.718C391.938 179.122 392.535 177.995 392.535 176.802V144.52C392.535 143.327 391.871 142.2 390.877 141.604L362.97 125.496Z" fill="white"/>
</mask>
<g mask="url(#mask0_5188_12918)">
<path d="M362.97 125.496C362.455 125.203 361.872 125.049 361.28 125.049C360.687 125.049 360.105 125.203 359.59 125.496L331.683 141.603C330.622 142.199 330.025 143.326 330.025 144.519V176.802C330.025 177.995 330.688 179.122 331.683 179.718L359.59 195.826C360.105 196.119 360.687 196.273 361.28 196.273C361.872 196.273 362.455 196.119 362.97 195.826L390.877 179.718C391.938 179.122 392.535 177.995 392.535 176.802V144.52C392.535 143.327 391.871 142.2 390.877 141.604L362.97 125.496Z" fill="url(#paint1_linear_5188_12918)"/>
<path d="M390.943 141.603L362.904 125.496C362.629 125.357 362.34 125.246 362.042 125.165L330.622 178.99C330.882 179.308 331.197 179.577 331.551 179.786L359.59 195.893C360.385 196.357 361.313 196.49 362.175 196.224L391.673 142.267C391.474 142.002 391.208 141.803 390.943 141.604V141.603Z" fill="url(#paint2_linear_5188_12918)"/>
<path fill-rule="evenodd" clip-rule="evenodd" d="M391.011 179.718C391.806 179.254 392.403 178.459 392.669 177.598L361.91 125.098C361.115 124.966 360.253 125.032 359.524 125.496L331.684 141.537L361.711 196.29C362.148 196.219 362.572 196.085 362.971 195.893L391.01 179.719L391.011 179.718Z" fill="url(#paint3_linear_5188_12918)"/>
<path fill-rule="evenodd" clip-rule="evenodd" d="M391.014 179.719L363.041 195.826C362.646 196.028 362.22 196.162 361.781 196.224L362.312 197.218L393.334 179.255V178.857L392.538 177.531C392.406 178.459 391.809 179.255 391.014 179.719V179.719Z" fill="url(#paint4_linear_5188_12918)"/>
<path fill-rule="evenodd" clip-rule="evenodd" d="M391.014 179.719L363.041 195.826C362.646 196.028 362.22 196.162 361.781 196.224L362.312 197.218L393.334 179.255V178.857L392.538 177.531C392.406 178.459 391.809 179.255 391.014 179.719V179.719Z" fill="url(#paint5_linear_5188_12918)"/>
</g>
<path d="M741.435 592.713C741.435 593.599 742.138 594.276 742.998 594.276C743.883 594.276 744.587 593.599 744.587 592.713V576.563C744.587 575.703 743.883 575 742.998 575C742.112 575 741.435 575.703 741.435 576.563V592.713Z" fill="#030060"/>
<path d="M748.654 576.849C748.654 577.787 749.435 578.412 750.451 578.412C751.467 578.412 752.248 577.787 752.248 576.849V576.693C752.248 575.755 751.467 575.156 750.451 575.156C749.435 575.156 748.654 575.755 748.654 576.693V576.849ZM748.888 592.713C748.888 593.599 749.591 594.276 750.451 594.276C751.337 594.276 752.04 593.599 752.04 592.713V581.825C752.04 580.939 751.337 580.236 750.451 580.236C749.565 580.236 748.888 580.939 748.888 581.825V592.713Z" fill="#030060"/>
<path d="M756.159 592.713C756.159 593.573 756.863 594.276 757.722 594.276C758.608 594.276 759.311 593.573 759.311 592.713V592.01C760.275 593.287 761.708 594.433 764 594.433C767.256 594.433 770.382 591.854 770.382 587.295V587.243C770.382 582.658 767.23 580.106 764 580.106C761.76 580.106 760.327 581.252 759.311 582.685V576.563C759.311 575.677 758.608 575 757.722 575C756.837 575 756.159 575.677 756.159 576.563V592.713ZM763.245 591.698C761.109 591.698 759.233 589.926 759.233 587.295V587.243C759.233 584.612 761.109 582.841 763.245 582.841C765.381 582.841 767.178 584.586 767.178 587.243V587.295C767.178 590.004 765.407 591.698 763.245 591.698Z" fill="#030060"/>
<path d="M773.818 592.713C773.818 593.599 774.521 594.276 775.381 594.276C776.267 594.276 776.97 593.599 776.97 592.713V576.563C776.97 575.703 776.267 575 775.381 575C774.495 575 773.818 575.703 773.818 576.563V592.713Z" fill="#030060"/>
<path d="M787.628 594.459C791.874 594.459 795 591.203 795 587.295V587.243C795 583.31 791.9 580.106 787.68 580.106C783.46 580.106 780.334 583.362 780.334 587.295V587.347C780.334 591.255 783.434 594.459 787.628 594.459ZM787.68 591.698C785.231 591.698 783.486 589.692 783.486 587.295V587.243C783.486 584.847 785.101 582.867 787.628 582.867C790.102 582.867 791.848 584.873 791.848 587.295V587.347C791.848 589.718 790.233 591.698 787.68 591.698Z" fill="#030060"/>
<path d="M736.96 590.09C735.74 590.65 734.453 591.046 733.208 591.294C728.074 592.314 725.36 589.099 729.634 586.781C730.099 586.529 730.632 586.291 731.228 586.075L732.011 585.826C732.241 585.763 732.463 585.661 732.534 585.515C732.905 584.723 729.731 584.467 727.622 585.589C728.458 585.431 729.186 585.408 729.668 585.609C724.878 586.845 723.788 590.757 726.335 592.642C727.649 593.615 729.127 593.873 731.832 593.682C733.637 593.555 735.48 592.837 736.96 591.969V590.09Z" fill="url(#paint6_linear_5188_12918)"/>
<path d="M734.542 592.784C734.542 593.607 735.171 594.165 736.03 594.165C736.89 594.165 737.478 593.644 737.478 592.784V586.011C737.478 584.214 737.009 582.755 735.993 581.765C735.029 580.776 733.492 580.228 731.434 580.228C729.637 580.228 728.308 580.541 727.006 581.036C726.537 581.218 726.146 581.713 726.146 582.286C726.146 583.016 726.745 583.589 727.475 583.589C727.631 583.589 727.787 583.563 727.97 583.511C728.829 583.172 729.819 582.964 731.018 582.964C733.232 582.964 734.43 584.006 734.43 585.959V585.968L734.542 592.784Z" fill="url(#paint7_linear_5188_12918)"/>
<path d="M733.611 578.379C733.611 578.591 733.273 578.721 732.805 578.721C732.077 578.721 731.583 578.64 730.984 578.282L729.216 577.24C728.956 577.093 728.774 576.93 728.774 576.751C728.774 576.442 729.814 576.116 730.646 576.116C731.192 576.116 731.609 576.295 731.895 576.589L733.377 578.021C733.481 578.119 733.611 578.265 733.611 578.379Z" fill="url(#paint8_linear_5188_12918)"/>
<defs>
<filter id="filter0_d_5188_12918" x="162.18" y="342.07" width="496.68" height="191.414" filterUnits="userSpaceOnUse" color-interpolation-filters="sRGB">
<feFlood flood-opacity="0" result="BackgroundImageFix"/>
<feColorMatrix in="SourceAlpha" type="matrix" values="0 0 0 0 0 0 0 0 0 0 0 0 0 0 0 0 0 0 127 0" result="hardAlpha"/>
<feOffset dx="10" dy="10"/>
<feGaussianBlur stdDeviation="10"/>
<feComposite in2="hardAlpha" operator="out"/>
<feColorMatrix type="matrix" values="0 0 0 0 0 0 0 0 0 0 0 0 0 0 0 0 0 0 0.25 0"/>
<feBlend mode="normal" in2="BackgroundImageFix" result="effect1_dropShadow_5188_12918"/>
<feBlend mode="normal" in="SourceGraphic" in2="effect1_dropShadow_5188_12918" result="shape"/>
</filter>
<linearGradient id="paint0_linear_5188_12918" x1="800" y1="2.84559e-05" x2="-2.41943" y2="596.747" gradientUnits="userSpaceOnUse">
<stop stop-color="#EDFFDE"/>
<stop offset="1" stop-color="#85EB7C"/>
</linearGradient>
<linearGradient id="paint1_linear_5188_12918" x1="372.649" y1="137.504" x2="342.061" y2="185.567" gradientUnits="userSpaceOnUse">
<stop stop-color="#41873F"/>
<stop offset="0.3288" stop-color="#418B3D"/>
<stop offset="0.6352" stop-color="#419637"/>
<stop offset="0.9319" stop-color="#3FA92D"/>
<stop offset="1" stop-color="#3FAE2A"/>
</linearGradient>
<linearGradient id="paint2_linear_5188_12918" x1="357.043" y1="164.442" x2="433.65" y2="122.821" gradientUnits="userSpaceOnUse">
<stop offset="0.1376" stop-color="#41873F"/>
<stop offset="0.4032" stop-color="#54A044"/>
<stop offset="0.7136" stop-color="#66B848"/>
<stop offset="0.9081" stop-color="#6CC04A"/>
</linearGradient>
<linearGradient id="paint3_linear_5188_12918" x1="329.007" y1="160.662" x2="393.583" y2="160.662" gradientUnits="userSpaceOnUse">
<stop offset="0.09192" stop-color="#6CC04A"/>
<stop offset="0.2864" stop-color="#66B848"/>
<stop offset="0.5968" stop-color="#54A044"/>
<stop offset="0.8624" stop-color="#41873F"/>
</linearGradient>
<linearGradient id="paint4_linear_5188_12918" x1="329.01" y1="187.429" x2="393.585" y2="187.429" gradientUnits="userSpaceOnUse">
<stop offset="0.09192" stop-color="#6CC04A"/>
<stop offset="0.2864" stop-color="#66B848"/>
<stop offset="0.5968" stop-color="#54A044"/>
<stop offset="0.8624" stop-color="#41873F"/>
</linearGradient>
<linearGradient id="paint5_linear_5188_12918" x1="402.993" y1="135.977" x2="386.634" y2="221.7" gradientUnits="userSpaceOnUse">
<stop stop-color="#41873F"/>
<stop offset="0.3288" stop-color="#418B3D"/>
<stop offset="0.6352" stop-color="#419637"/>
<stop offset="0.9319" stop-color="#3FA92D"/>
<stop offset="1" stop-color="#3FAE2A"/>
</linearGradient>
<linearGradient id="paint6_linear_5188_12918" x1="725" y1="576.116" x2="725" y2="594.165" gradientUnits="userSpaceOnUse">
<stop stop-color="#008EE3"/>
<stop offset="1" stop-color="#0055C2"/>
</linearGradient>
<linearGradient id="paint7_linear_5188_12918" x1="725" y1="576.116" x2="725" y2="594.165" gradientUnits="userSpaceOnUse">
<stop stop-color="#008EE3"/>
<stop offset="1" stop-color="#0055C2"/>
</linearGradient>
<linearGradient id="paint8_linear_5188_12918" x1="725" y1="576.116" x2="725" y2="594.165" gradientUnits="userSpaceOnUse">
<stop stop-color="#008EE3"/>
<stop offset="1" stop-color="#0055C2"/>
</linearGradient>
</defs>
</svg>
