<svg width="800" height="600" viewBox="0 0 800 600" fill="none" xmlns="http://www.w3.org/2000/svg">
<rect width="800" height="600" fill="url(#paint0_linear_5188_12926)"/>
<path d="M139 313.359C146.378 313.359 152.359 307.378 152.359 300C152.359 292.622 146.378 286.641 139 286.641C131.622 286.641 125.641 292.622 125.641 300C125.641 307.378 131.622 313.359 139 313.359Z" fill="#61DAFB"/>
<path d="M189.742 277.969C187.164 277.031 184.469 276.094 181.656 275.273C182.359 272.461 182.945 269.648 183.414 266.953C185.875 251.484 183.18 240.586 175.68 236.367C173.453 235.078 170.992 234.492 168.18 234.492C159.977 234.492 149.547 240.586 139 250.781C128.453 240.586 118.023 234.492 109.82 234.492C107.008 234.492 104.547 235.078 102.32 236.367C94.8203 240.703 92.125 251.602 94.5859 266.953C95.0547 269.648 95.6406 272.461 96.3438 275.273C93.5313 276.094 90.8359 276.914 88.2578 277.969C73.6094 283.594 65.6406 291.328 65.6406 300C65.6406 308.672 73.7266 316.406 88.2578 322.031C90.8359 322.969 93.5313 323.906 96.3438 324.727C95.6406 327.539 95.0547 330.352 94.5859 333.047C92.125 348.516 94.8203 359.414 102.32 363.633C104.547 364.922 107.008 365.508 109.82 365.508C118.141 365.508 128.57 359.414 139 349.219C149.547 359.414 159.977 365.508 168.18 365.508C170.992 365.508 173.453 364.922 175.68 363.633C183.18 359.297 185.875 348.398 183.414 333.047C182.945 330.352 182.359 327.539 181.656 324.727C184.469 323.906 187.164 323.086 189.742 322.031C204.391 316.406 212.359 308.672 212.359 300C212.359 291.328 204.391 283.594 189.742 277.969ZM172.398 242.227C177.203 245.039 178.844 253.711 176.852 266.016C176.5 268.477 175.914 271.055 175.211 273.75C169.117 272.344 162.672 271.406 155.875 270.82C151.891 265.195 147.789 260.156 143.687 255.586C152.359 247.031 161.148 241.172 168.297 241.172C169.82 241.172 171.227 241.523 172.398 242.227V242.227ZM159.273 311.719C157.164 315.469 154.703 319.219 152.125 322.969C147.789 323.32 143.453 323.438 139 323.438C134.43 323.438 130.094 323.32 125.875 322.969C123.297 319.219 120.953 315.469 118.844 311.719C116.617 307.852 114.508 303.867 112.633 300C114.508 296.133 116.617 292.148 118.844 288.281C120.953 284.531 123.414 280.781 125.992 277.031C130.328 276.68 134.664 276.563 139.117 276.563C143.687 276.563 148.023 276.68 152.242 277.031C154.82 280.781 157.164 284.531 159.273 288.281C161.5 292.148 163.609 296.133 165.484 300C163.492 303.867 161.5 307.734 159.273 311.719ZM169 307.852C170.758 311.953 172.164 315.938 173.453 319.922C169.469 320.859 165.25 321.563 160.797 322.148C162.203 319.922 163.727 317.578 165.016 315.117C166.422 312.656 167.711 310.195 169 307.852ZM139 339.609C136.187 336.563 133.492 333.281 130.914 329.883C133.609 330 136.305 330.117 139 330.117C141.695 330.117 144.391 330 147.086 329.883C144.508 333.281 141.812 336.563 139 339.609ZM117.203 322.031C112.75 321.445 108.531 320.742 104.547 319.805C105.836 315.938 107.242 311.836 109 307.734C110.289 310.078 111.578 312.539 112.984 314.883C114.391 317.461 115.797 319.688 117.203 322.031V322.031ZM109 292.148C107.242 288.047 105.836 284.063 104.547 280.078C108.531 279.141 112.75 278.438 117.203 277.852C115.797 280.078 114.273 282.422 112.984 284.883C111.578 287.344 110.289 289.805 109 292.148V292.148ZM139 260.391C141.812 263.438 144.508 266.719 147.086 270.117C144.391 270 141.695 269.883 139 269.883C136.305 269.883 133.609 270 130.914 270.117C133.492 266.719 136.187 263.438 139 260.391V260.391ZM165.016 285L160.797 277.969C165.25 278.555 169.469 279.258 173.453 280.195C172.164 284.062 170.758 288.164 169 292.266C167.711 289.805 166.422 287.344 165.016 285V285ZM101.148 266.016C99.1563 253.711 100.797 245.039 105.602 242.227C106.773 241.523 108.18 241.172 109.703 241.172C116.734 241.172 125.523 246.914 134.312 255.586C130.211 260.039 126.109 265.195 122.125 270.82C115.328 271.406 108.883 272.461 102.789 273.75C102.086 271.055 101.617 268.477 101.148 266.016ZM72.2031 300C72.2031 294.492 78.8828 288.633 90.6016 284.297C92.9453 283.359 95.5234 282.539 98.1016 281.836C99.9766 287.695 102.32 293.906 105.133 300.117C102.32 306.328 99.8594 312.422 98.1016 318.281C81.9297 313.594 72.2031 306.563 72.2031 300V300ZM105.602 357.773C100.797 354.961 99.1563 346.289 101.148 333.984C101.5 331.523 102.086 328.945 102.789 326.25C108.883 327.656 115.328 328.594 122.125 329.18C126.109 334.805 130.211 339.844 134.312 344.414C125.641 352.969 116.852 358.828 109.703 358.828C108.18 358.828 106.773 358.477 105.602 357.773ZM176.852 333.984C178.844 346.289 177.203 354.961 172.398 357.773C171.227 358.477 169.82 358.828 168.297 358.828C161.266 358.828 152.477 353.086 143.687 344.414C147.789 339.961 151.891 334.805 155.875 329.18C162.672 328.594 169.117 327.539 175.211 326.25C175.914 328.945 176.383 331.523 176.852 333.984V333.984ZM187.398 315.703C185.055 316.641 182.477 317.461 179.898 318.164C178.023 312.305 175.68 306.094 172.867 299.883C175.68 293.672 178.141 287.578 179.898 281.719C196.07 286.406 205.797 293.438 205.797 300C205.797 305.508 199 311.367 187.398 315.703V315.703Z" fill="#61DAFB"/>
<path d="M335.547 259.422H323.125V282H311.367V224.422H339.609C343.646 224.5 346.745 224.995 348.906 225.906C351.094 226.818 352.943 228.159 354.453 229.93C355.703 231.388 356.693 233.003 357.422 234.773C358.151 236.544 358.516 238.562 358.516 240.828C358.516 243.562 357.826 246.258 356.445 248.914C355.065 251.544 352.786 253.406 349.609 254.5C352.266 255.568 354.141 257.091 355.234 259.07C356.354 261.023 356.914 264.018 356.914 268.055V271.922C356.914 274.552 357.018 276.336 357.227 277.273C357.539 278.758 358.268 279.852 359.414 280.555V282H346.172C345.807 280.724 345.547 279.695 345.391 278.914C345.078 277.299 344.909 275.646 344.883 273.953L344.805 268.602C344.753 264.93 344.076 262.482 342.773 261.258C341.497 260.034 339.089 259.422 335.547 259.422ZM342.852 248.953C345.247 247.859 346.445 245.698 346.445 242.469C346.445 238.979 345.286 236.635 342.969 235.438C341.667 234.76 339.714 234.422 337.109 234.422H323.125V249.891H336.758C339.466 249.891 341.497 249.578 342.852 248.953ZM404.453 269.5C404.167 272.026 402.852 274.591 400.508 277.195C396.862 281.336 391.758 283.406 385.195 283.406C379.779 283.406 375 281.661 370.859 278.172C366.719 274.682 364.648 269.005 364.648 261.141C364.648 253.771 366.51 248.12 370.234 244.188C373.984 240.255 378.841 238.289 384.805 238.289C388.346 238.289 391.536 238.953 394.375 240.281C397.214 241.609 399.557 243.706 401.406 246.57C403.073 249.096 404.154 252.026 404.648 255.359C404.935 257.312 405.052 260.125 405 263.797H375.859C376.016 268.068 377.357 271.062 379.883 272.781C381.419 273.849 383.268 274.383 385.43 274.383C387.721 274.383 389.583 273.732 391.016 272.43C391.797 271.727 392.487 270.75 393.086 269.5H404.453ZM393.438 256.453C393.255 253.51 392.357 251.284 390.742 249.773C389.154 248.237 387.174 247.469 384.805 247.469C382.227 247.469 380.221 248.276 378.789 249.891C377.383 251.505 376.497 253.693 376.133 256.453H393.438ZM414.141 244.031C417.083 240.281 422.135 238.406 429.297 238.406C433.958 238.406 438.099 239.331 441.719 241.18C445.339 243.029 447.148 246.518 447.148 251.648V271.18C447.148 272.534 447.174 274.174 447.227 276.102C447.305 277.56 447.526 278.549 447.891 279.07C448.255 279.591 448.802 280.021 449.531 280.359V282H437.422C437.083 281.141 436.849 280.333 436.719 279.578C436.589 278.823 436.484 277.964 436.406 277C434.87 278.667 433.099 280.086 431.094 281.258C428.698 282.638 425.99 283.328 422.969 283.328C419.115 283.328 415.924 282.234 413.398 280.047C410.898 277.833 409.648 274.708 409.648 270.672C409.648 265.438 411.667 261.648 415.703 259.305C417.917 258.029 421.172 257.117 425.469 256.57L429.258 256.102C431.315 255.841 432.786 255.516 433.672 255.125C435.26 254.448 436.055 253.393 436.055 251.961C436.055 250.216 435.443 249.018 434.219 248.367C433.021 247.69 431.25 247.352 428.906 247.352C426.276 247.352 424.414 248.003 423.32 249.305C422.539 250.268 422.018 251.57 421.758 253.211H411.016C411.25 249.487 412.292 246.427 414.141 244.031ZM422.422 273.953C423.464 274.812 424.74 275.242 426.25 275.242C428.646 275.242 430.846 274.539 432.852 273.133C434.883 271.727 435.938 269.161 436.016 265.438V261.297C435.312 261.74 434.596 262.104 433.867 262.391C433.164 262.651 432.188 262.898 430.938 263.133L428.438 263.602C426.094 264.018 424.414 264.526 423.398 265.125C421.68 266.141 420.82 267.716 420.82 269.852C420.82 271.753 421.354 273.12 422.422 273.953ZM493.906 254.695H482.5C482.292 253.107 481.758 251.674 480.898 250.398C479.648 248.68 477.708 247.82 475.078 247.82C471.328 247.82 468.763 249.682 467.383 253.406C466.654 255.385 466.289 258.016 466.289 261.297C466.289 264.422 466.654 266.935 467.383 268.836C468.711 272.378 471.211 274.148 474.883 274.148C477.487 274.148 479.336 273.445 480.43 272.039C481.523 270.633 482.188 268.81 482.422 266.57H493.789C493.529 269.956 492.305 273.159 490.117 276.18C486.628 281.049 481.458 283.484 474.609 283.484C467.76 283.484 462.721 281.453 459.492 277.391C456.263 273.328 454.648 268.055 454.648 261.57C454.648 254.253 456.432 248.562 460 244.5C463.568 240.438 468.49 238.406 474.766 238.406C480.104 238.406 484.466 239.604 487.852 242C491.263 244.396 493.281 248.628 493.906 254.695ZM521.094 274.07V282.391L515.82 282.586C510.56 282.768 506.966 281.857 505.039 279.852C503.789 278.576 503.164 276.609 503.164 273.953V247.742H497.227V239.812H503.164V227.938H514.18V239.812H521.094V247.742H514.18V270.242C514.18 271.987 514.401 273.081 514.844 273.523C515.286 273.94 516.641 274.148 518.906 274.148C519.245 274.148 519.596 274.148 519.961 274.148C520.352 274.122 520.729 274.096 521.094 274.07ZM571.953 264.695V224.422H583.984V264.5C583.984 269.396 583.138 273.276 581.445 276.141C578.581 280.984 573.411 283.406 565.938 283.406C558.464 283.406 553.451 281.453 550.898 277.547C548.346 273.615 547.07 268.263 547.07 261.492V260.164H558.438V261.492C558.542 265.945 559.023 269.083 559.883 270.906C560.768 272.703 562.643 273.602 565.508 273.602C568.346 273.602 570.221 272.612 571.133 270.633C571.68 269.461 571.953 267.482 571.953 264.695ZM616.836 273.68C619.674 273.68 621.979 273.367 623.75 272.742C627.109 271.544 628.789 269.318 628.789 266.062C628.789 264.161 627.956 262.69 626.289 261.648C624.622 260.633 622.005 259.734 618.438 258.953L612.344 257.586C606.354 256.232 602.214 254.76 599.922 253.172C596.042 250.516 594.102 246.362 594.102 240.711C594.102 235.555 595.977 231.271 599.727 227.859C603.477 224.448 608.984 222.742 616.25 222.742C622.318 222.742 627.487 224.357 631.758 227.586C636.055 230.789 638.307 235.451 638.516 241.57H626.953C626.745 238.107 625.234 235.646 622.422 234.188C620.547 233.224 618.216 232.742 615.43 232.742C612.331 232.742 609.857 233.367 608.008 234.617C606.159 235.867 605.234 237.612 605.234 239.852C605.234 241.909 606.146 243.445 607.969 244.461C609.141 245.138 611.641 245.932 615.469 246.844L625.391 249.227C629.74 250.268 633.021 251.661 635.234 253.406C638.672 256.115 640.391 260.034 640.391 265.164C640.391 270.424 638.372 274.799 634.336 278.289C630.326 281.753 624.648 283.484 617.305 283.484C609.805 283.484 603.906 281.779 599.609 278.367C595.312 274.93 593.164 270.216 593.164 264.227H604.648C605.013 266.857 605.729 268.823 606.797 270.125C608.75 272.495 612.096 273.68 616.836 273.68ZM310.156 316.422H322.109V374H310.156V316.422ZM352.5 339.664C348.724 339.664 346.133 341.266 344.727 344.469C343.997 346.161 343.633 348.323 343.633 350.953V374H332.539V331.5H343.281V337.711C344.714 335.523 346.068 333.948 347.344 332.984C349.635 331.266 352.539 330.406 356.055 330.406C360.456 330.406 364.049 331.565 366.836 333.883C369.648 336.174 371.055 339.99 371.055 345.328V374H359.648V348.102C359.648 345.862 359.349 344.143 358.75 342.945C357.656 340.758 355.573 339.664 352.5 339.664ZM400.859 366.07V374.391L395.586 374.586C390.326 374.768 386.732 373.857 384.805 371.852C383.555 370.576 382.93 368.609 382.93 365.953V339.742H376.992V331.812H382.93V319.938H393.945V331.812H400.859V339.742H393.945V362.242C393.945 363.987 394.167 365.081 394.609 365.523C395.052 365.94 396.406 366.148 398.672 366.148C399.01 366.148 399.362 366.148 399.727 366.148C400.117 366.122 400.495 366.096 400.859 366.07ZM429.414 341.695C424.935 341.695 421.927 343.154 420.391 346.07C419.531 347.711 419.102 350.237 419.102 353.648V374H407.891V331.422H418.516V338.844C420.234 336.005 421.732 334.065 423.008 333.023C425.091 331.279 427.799 330.406 431.133 330.406C431.341 330.406 431.51 330.419 431.641 330.445C431.797 330.445 432.122 330.458 432.617 330.484V341.891C431.914 341.812 431.289 341.76 430.742 341.734C430.195 341.708 429.753 341.695 429.414 341.695ZM474.688 336.812C478.281 341.318 480.078 346.643 480.078 352.789C480.078 359.039 478.281 364.391 474.688 368.844C471.094 373.271 465.638 375.484 458.32 375.484C451.003 375.484 445.547 373.271 441.953 368.844C438.359 364.391 436.562 359.039 436.562 352.789C436.562 346.643 438.359 341.318 441.953 336.812C445.547 332.307 451.003 330.055 458.32 330.055C465.638 330.055 471.094 332.307 474.688 336.812ZM458.281 339.469C455.026 339.469 452.513 340.628 450.742 342.945C448.997 345.237 448.125 348.518 448.125 352.789C448.125 357.06 448.997 360.354 450.742 362.672C452.513 364.99 455.026 366.148 458.281 366.148C461.536 366.148 464.036 364.99 465.781 362.672C467.526 360.354 468.398 357.06 468.398 352.789C468.398 348.518 467.526 345.237 465.781 342.945C464.036 340.628 461.536 339.469 458.281 339.469ZM526.836 316.5V374H516.016V368.102C514.427 370.628 512.617 372.464 510.586 373.609C508.555 374.755 506.029 375.328 503.008 375.328C498.034 375.328 493.841 373.323 490.43 369.312C487.044 365.276 485.352 360.107 485.352 353.805C485.352 346.539 487.018 340.823 490.352 336.656C493.711 332.49 498.19 330.406 503.789 330.406C506.367 330.406 508.659 330.979 510.664 332.125C512.669 333.245 514.297 334.807 515.547 336.812V316.5H526.836ZM496.836 352.984C496.836 356.917 497.617 360.055 499.18 362.398C500.716 364.768 503.06 365.953 506.211 365.953C509.362 365.953 511.758 364.781 513.398 362.438C515.039 360.094 515.859 357.06 515.859 353.336C515.859 348.128 514.544 344.404 511.914 342.164C510.299 340.81 508.424 340.133 506.289 340.133C503.034 340.133 500.638 341.37 499.102 343.844C497.591 346.292 496.836 349.339 496.836 352.984ZM564.297 367.984C564.193 368.115 563.932 368.505 563.516 369.156C563.099 369.807 562.604 370.38 562.031 370.875C560.286 372.438 558.594 373.505 556.953 374.078C555.339 374.651 553.438 374.938 551.25 374.938C544.948 374.938 540.703 372.672 538.516 368.141C537.292 365.641 536.68 361.956 536.68 357.086V331.422H548.086V357.086C548.086 359.508 548.372 361.331 548.945 362.555C549.961 364.716 551.953 365.797 554.922 365.797C558.724 365.797 561.328 364.26 562.734 361.188C563.464 359.521 563.828 357.32 563.828 354.586V331.422H575.117V374H564.297V367.984ZM622.734 346.695H611.328C611.12 345.107 610.586 343.674 609.727 342.398C608.477 340.68 606.536 339.82 603.906 339.82C600.156 339.82 597.591 341.682 596.211 345.406C595.482 347.385 595.117 350.016 595.117 353.297C595.117 356.422 595.482 358.935 596.211 360.836C597.539 364.378 600.039 366.148 603.711 366.148C606.315 366.148 608.164 365.445 609.258 364.039C610.352 362.633 611.016 360.81 611.25 358.57H622.617C622.357 361.956 621.133 365.159 618.945 368.18C615.456 373.049 610.286 375.484 603.438 375.484C596.589 375.484 591.549 373.453 588.32 369.391C585.091 365.328 583.477 360.055 583.477 353.57C583.477 346.253 585.26 340.562 588.828 336.5C592.396 332.438 597.318 330.406 603.594 330.406C608.932 330.406 613.294 331.604 616.68 334C620.091 336.396 622.109 340.628 622.734 346.695ZM649.922 366.07V374.391L644.648 374.586C639.388 374.768 635.794 373.857 633.867 371.852C632.617 370.576 631.992 368.609 631.992 365.953V339.742H626.055V331.812H631.992V319.938H643.008V331.812H649.922V339.742H643.008V362.242C643.008 363.987 643.229 365.081 643.672 365.523C644.115 365.94 645.469 366.148 647.734 366.148C648.073 366.148 648.424 366.148 648.789 366.148C649.18 366.122 649.557 366.096 649.922 366.07ZM668.516 331.422V374H657.227V331.422H668.516ZM668.516 316.07V326.344H657.227V316.07H668.516ZM714.844 336.812C718.438 341.318 720.234 346.643 720.234 352.789C720.234 359.039 718.438 364.391 714.844 368.844C711.25 373.271 705.794 375.484 698.477 375.484C691.159 375.484 685.703 373.271 682.109 368.844C678.516 364.391 676.719 359.039 676.719 352.789C676.719 346.643 678.516 341.318 682.109 336.812C685.703 332.307 691.159 330.055 698.477 330.055C705.794 330.055 711.25 332.307 714.844 336.812ZM698.438 339.469C695.182 339.469 692.669 340.628 690.898 342.945C689.154 345.237 688.281 348.518 688.281 352.789C688.281 357.06 689.154 360.354 690.898 362.672C692.669 364.99 695.182 366.148 698.438 366.148C701.693 366.148 704.193 364.99 705.938 362.672C707.682 360.354 708.555 357.06 708.555 352.789C708.555 348.518 707.682 345.237 705.938 342.945C704.193 340.628 701.693 339.469 698.438 339.469ZM748.281 339.664C744.505 339.664 741.914 341.266 740.508 344.469C739.779 346.161 739.414 348.323 739.414 350.953V374H728.32V331.5H739.062V337.711C740.495 335.523 741.849 333.948 743.125 332.984C745.417 331.266 748.32 330.406 751.836 330.406C756.237 330.406 759.831 331.565 762.617 333.883C765.43 336.174 766.836 339.99 766.836 345.328V374H755.43V348.102C755.43 345.862 755.13 344.143 754.531 342.945C753.438 340.758 751.354 339.664 748.281 339.664Z" fill="white" fill-opacity="0.8"/>
<path d="M741.435 592.713C741.435 593.599 742.138 594.276 742.998 594.276C743.883 594.276 744.587 593.599 744.587 592.713V576.563C744.587 575.703 743.883 575 742.998 575C742.112 575 741.435 575.703 741.435 576.563V592.713Z" fill="white"/>
<path d="M748.654 576.849C748.654 577.787 749.435 578.412 750.451 578.412C751.467 578.412 752.248 577.787 752.248 576.849V576.693C752.248 575.755 751.467 575.156 750.451 575.156C749.435 575.156 748.654 575.755 748.654 576.693V576.849ZM748.888 592.713C748.888 593.599 749.591 594.276 750.451 594.276C751.337 594.276 752.04 593.599 752.04 592.713V581.825C752.04 580.939 751.337 580.236 750.451 580.236C749.565 580.236 748.888 580.939 748.888 581.825V592.713Z" fill="white"/>
<path d="M756.159 592.713C756.159 593.573 756.863 594.276 757.722 594.276C758.608 594.276 759.311 593.573 759.311 592.713V592.01C760.275 593.287 761.708 594.433 764 594.433C767.256 594.433 770.382 591.854 770.382 587.295V587.243C770.382 582.658 767.23 580.106 764 580.106C761.76 580.106 760.327 581.252 759.311 582.685V576.563C759.311 575.677 758.608 575 757.722 575C756.837 575 756.159 575.677 756.159 576.563V592.713ZM763.245 591.698C761.109 591.698 759.233 589.926 759.233 587.295V587.243C759.233 584.612 761.109 582.841 763.245 582.841C765.381 582.841 767.178 584.586 767.178 587.243V587.295C767.178 590.004 765.407 591.698 763.245 591.698Z" fill="white"/>
<path d="M773.818 592.713C773.818 593.599 774.521 594.276 775.381 594.276C776.267 594.276 776.97 593.599 776.97 592.713V576.563C776.97 575.703 776.267 575 775.381 575C774.495 575 773.818 575.703 773.818 576.563V592.713Z" fill="white"/>
<path d="M787.628 594.459C791.874 594.459 795 591.203 795 587.295V587.243C795 583.31 791.9 580.106 787.68 580.106C783.46 580.106 780.334 583.362 780.334 587.295V587.347C780.334 591.255 783.434 594.459 787.628 594.459ZM787.68 591.698C785.231 591.698 783.486 589.692 783.486 587.295V587.243C783.486 584.847 785.101 582.867 787.628 582.867C790.102 582.867 791.848 584.873 791.848 587.295V587.347C791.848 589.718 790.233 591.698 787.68 591.698Z" fill="white"/>
<path d="M736.96 590.09C735.74 590.65 734.453 591.046 733.208 591.294C728.074 592.314 725.36 589.099 729.634 586.781C730.099 586.529 730.632 586.291 731.228 586.075L732.011 585.826C732.241 585.763 732.463 585.661 732.534 585.515C732.905 584.723 729.731 584.467 727.622 585.589C728.458 585.431 729.186 585.408 729.668 585.609C724.878 586.845 723.788 590.757 726.335 592.642C727.649 593.615 729.127 593.873 731.832 593.682C733.637 593.555 735.48 592.837 736.96 591.969V590.09Z" fill="url(#paint1_linear_5188_12926)"/>
<path d="M734.542 592.784C734.542 593.607 735.171 594.165 736.03 594.165C736.89 594.165 737.478 593.644 737.478 592.784V586.011C737.478 584.214 737.009 582.755 735.993 581.765C735.029 580.775 733.492 580.228 731.434 580.228C729.637 580.228 728.308 580.541 727.006 581.036C726.537 581.218 726.146 581.713 726.146 582.286C726.146 583.016 726.745 583.589 727.475 583.589C727.631 583.589 727.787 583.563 727.97 583.511C728.829 583.172 729.819 582.964 731.018 582.964C733.232 582.964 734.43 584.006 734.43 585.959V585.968L734.542 592.784Z" fill="url(#paint2_linear_5188_12926)"/>
<path d="M733.611 578.379C733.611 578.591 733.273 578.721 732.805 578.721C732.077 578.721 731.583 578.64 730.984 578.282L729.216 577.24C728.956 577.093 728.774 576.93 728.774 576.751C728.774 576.442 729.814 576.116 730.646 576.116C731.192 576.116 731.609 576.295 731.895 576.589L733.377 578.021C733.481 578.119 733.611 578.265 733.611 578.379Z" fill="url(#paint3_linear_5188_12926)"/>
<defs>
<linearGradient id="paint0_linear_5188_12926" x1="800" y1="0" x2="-2.41939" y2="596.747" gradientUnits="userSpaceOnUse">
<stop stop-color="#22007E"/>
<stop offset="1" stop-color="#0F0725"/>
</linearGradient>
<linearGradient id="paint1_linear_5188_12926" x1="719.394" y1="601.3" x2="738.186" y2="600.76" gradientUnits="userSpaceOnUse">
<stop stop-color="white"/>
<stop offset="1" stop-color="#009AF9"/>
</linearGradient>
<linearGradient id="paint2_linear_5188_12926" x1="719.394" y1="601.3" x2="738.186" y2="600.76" gradientUnits="userSpaceOnUse">
<stop stop-color="white"/>
<stop offset="1" stop-color="#009AF9"/>
</linearGradient>
<linearGradient id="paint3_linear_5188_12926" x1="719.394" y1="601.3" x2="738.186" y2="600.76" gradientUnits="userSpaceOnUse">
<stop stop-color="white"/>
<stop offset="1" stop-color="#009AF9"/>
</linearGradient>
</defs>
</svg>
