<svg width="800" height="600" viewBox="0 0 800 600" fill="none" xmlns="http://www.w3.org/2000/svg">
<rect width="800" height="600" fill="url(#paint0_linear_5188_12932)"/>
<path d="M285.391 316.422H298.242L310.742 360.133L323.359 316.422H335.859L316.211 374H304.844L285.391 316.422ZM366.445 367.984C366.341 368.115 366.081 368.505 365.664 369.156C365.247 369.807 364.753 370.38 364.18 370.875C362.435 372.438 360.742 373.505 359.102 374.078C357.487 374.651 355.586 374.938 353.398 374.938C347.096 374.938 342.852 372.672 340.664 368.141C339.44 365.641 338.828 361.956 338.828 357.086V331.422H350.234V357.086C350.234 359.508 350.521 361.331 351.094 362.555C352.109 364.716 354.102 365.797 357.07 365.797C360.872 365.797 363.477 364.26 364.883 361.188C365.612 359.521 365.977 357.32 365.977 354.586V331.422H377.266V374H366.445V367.984ZM424.492 361.5C424.206 364.026 422.891 366.591 420.547 369.195C416.901 373.336 411.797 375.406 405.234 375.406C399.818 375.406 395.039 373.661 390.898 370.172C386.758 366.682 384.688 361.005 384.688 353.141C384.688 345.771 386.549 340.12 390.273 336.188C394.023 332.255 398.88 330.289 404.844 330.289C408.385 330.289 411.576 330.953 414.414 332.281C417.253 333.609 419.596 335.706 421.445 338.57C423.112 341.096 424.193 344.026 424.688 347.359C424.974 349.312 425.091 352.125 425.039 355.797H395.898C396.055 360.068 397.396 363.062 399.922 364.781C401.458 365.849 403.307 366.383 405.469 366.383C407.76 366.383 409.622 365.732 411.055 364.43C411.836 363.727 412.526 362.75 413.125 361.5H424.492ZM413.477 348.453C413.294 345.51 412.396 343.284 410.781 341.773C409.193 340.237 407.214 339.469 404.844 339.469C402.266 339.469 400.26 340.276 398.828 341.891C397.422 343.505 396.536 345.693 396.172 348.453H413.477ZM432.383 362.359H444.219V374H432.383V362.359ZM455.352 331.617H466.484V378.57C466.484 382.867 465.638 386.044 463.945 388.102C462.253 390.159 458.932 391.188 453.984 391.188C453.646 391.188 453.138 391.174 452.461 391.148C451.81 391.122 450.99 391.096 450 391.07V382.164C450.625 382.216 451.068 382.242 451.328 382.242C451.589 382.268 451.823 382.281 452.031 382.281C453.125 382.281 453.945 382.008 454.492 381.461C455.065 380.94 455.352 379.911 455.352 378.375V331.617ZM455.352 316.07H466.484V326.344H455.352V316.07ZM506.445 333.375C509.779 335.51 511.693 339.182 512.188 344.391H501.055C500.898 342.958 500.495 341.826 499.844 340.992C498.62 339.482 496.536 338.727 493.594 338.727C491.172 338.727 489.44 339.104 488.398 339.859C487.383 340.615 486.875 341.5 486.875 342.516C486.875 343.792 487.422 344.716 488.516 345.289C489.609 345.888 493.477 346.917 500.117 348.375C504.544 349.417 507.865 350.992 510.078 353.102C512.266 355.237 513.359 357.906 513.359 361.109C513.359 365.328 511.784 368.779 508.633 371.461C505.508 374.117 500.664 375.445 494.102 375.445C487.409 375.445 482.461 374.039 479.258 371.227C476.081 368.388 474.492 364.781 474.492 360.406H485.781C486.016 362.385 486.523 363.792 487.305 364.625C488.685 366.109 491.237 366.852 494.961 366.852C497.148 366.852 498.88 366.526 500.156 365.875C501.458 365.224 502.109 364.247 502.109 362.945C502.109 361.695 501.589 360.745 500.547 360.094C499.505 359.443 495.638 358.323 488.945 356.734C484.128 355.536 480.729 354.039 478.75 352.242C476.771 350.471 475.781 347.919 475.781 344.586C475.781 340.654 477.318 337.281 480.391 334.469C483.49 331.63 487.839 330.211 493.438 330.211C498.75 330.211 503.086 331.266 506.445 333.375ZM171.68 408.422H183.633V466H171.68V408.422ZM214.023 431.664C210.247 431.664 207.656 433.266 206.25 436.469C205.521 438.161 205.156 440.323 205.156 442.953V466H194.062V423.5H204.805V429.711C206.237 427.523 207.591 425.948 208.867 424.984C211.159 423.266 214.062 422.406 217.578 422.406C221.979 422.406 225.573 423.565 228.359 425.883C231.172 428.174 232.578 431.99 232.578 437.328V466H221.172V440.102C221.172 437.862 220.872 436.143 220.273 434.945C219.18 432.758 217.096 431.664 214.023 431.664ZM262.383 458.07V466.391L257.109 466.586C251.849 466.768 248.255 465.857 246.328 463.852C245.078 462.576 244.453 460.609 244.453 457.953V431.742H238.516V423.812H244.453V411.938H255.469V423.812H262.383V431.742H255.469V454.242C255.469 455.987 255.69 457.081 256.133 457.523C256.576 457.94 257.93 458.148 260.195 458.148C260.534 458.148 260.885 458.148 261.25 458.148C261.641 458.122 262.018 458.096 262.383 458.07ZM290.938 433.695C286.458 433.695 283.451 435.154 281.914 438.07C281.055 439.711 280.625 442.237 280.625 445.648V466H269.414V423.422H280.039V430.844C281.758 428.005 283.255 426.065 284.531 425.023C286.615 423.279 289.323 422.406 292.656 422.406C292.865 422.406 293.034 422.419 293.164 422.445C293.32 422.445 293.646 422.458 294.141 422.484V433.891C293.438 433.812 292.812 433.76 292.266 433.734C291.719 433.708 291.276 433.695 290.938 433.695ZM336.211 428.812C339.805 433.318 341.602 438.643 341.602 444.789C341.602 451.039 339.805 456.391 336.211 460.844C332.617 465.271 327.161 467.484 319.844 467.484C312.526 467.484 307.07 465.271 303.477 460.844C299.883 456.391 298.086 451.039 298.086 444.789C298.086 438.643 299.883 433.318 303.477 428.812C307.07 424.307 312.526 422.055 319.844 422.055C327.161 422.055 332.617 424.307 336.211 428.812ZM319.805 431.469C316.549 431.469 314.036 432.628 312.266 434.945C310.521 437.237 309.648 440.518 309.648 444.789C309.648 449.06 310.521 452.354 312.266 454.672C314.036 456.99 316.549 458.148 319.805 458.148C323.06 458.148 325.56 456.99 327.305 454.672C329.049 452.354 329.922 449.06 329.922 444.789C329.922 440.518 329.049 437.237 327.305 434.945C325.56 432.628 323.06 431.469 319.805 431.469ZM388.359 408.5V466H377.539V460.102C375.951 462.628 374.141 464.464 372.109 465.609C370.078 466.755 367.552 467.328 364.531 467.328C359.557 467.328 355.365 465.323 351.953 461.312C348.568 457.276 346.875 452.107 346.875 445.805C346.875 438.539 348.542 432.823 351.875 428.656C355.234 424.49 359.714 422.406 365.312 422.406C367.891 422.406 370.182 422.979 372.188 424.125C374.193 425.245 375.82 426.807 377.07 428.812V408.5H388.359ZM358.359 444.984C358.359 448.917 359.141 452.055 360.703 454.398C362.24 456.768 364.583 457.953 367.734 457.953C370.885 457.953 373.281 456.781 374.922 454.438C376.562 452.094 377.383 449.06 377.383 445.336C377.383 440.128 376.068 436.404 373.438 434.164C371.823 432.81 369.948 432.133 367.812 432.133C364.557 432.133 362.161 433.37 360.625 435.844C359.115 438.292 358.359 441.339 358.359 444.984ZM425.82 459.984C425.716 460.115 425.456 460.505 425.039 461.156C424.622 461.807 424.128 462.38 423.555 462.875C421.81 464.438 420.117 465.505 418.477 466.078C416.862 466.651 414.961 466.938 412.773 466.938C406.471 466.938 402.227 464.672 400.039 460.141C398.815 457.641 398.203 453.956 398.203 449.086V423.422H409.609V449.086C409.609 451.508 409.896 453.331 410.469 454.555C411.484 456.716 413.477 457.797 416.445 457.797C420.247 457.797 422.852 456.26 424.258 453.188C424.987 451.521 425.352 449.32 425.352 446.586V423.422H436.641V466H425.82V459.984ZM484.258 438.695H472.852C472.643 437.107 472.109 435.674 471.25 434.398C470 432.68 468.06 431.82 465.43 431.82C461.68 431.82 459.115 433.682 457.734 437.406C457.005 439.385 456.641 442.016 456.641 445.297C456.641 448.422 457.005 450.935 457.734 452.836C459.062 456.378 461.562 458.148 465.234 458.148C467.839 458.148 469.688 457.445 470.781 456.039C471.875 454.633 472.539 452.81 472.773 450.57H484.141C483.88 453.956 482.656 457.159 480.469 460.18C476.979 465.049 471.81 467.484 464.961 467.484C458.112 467.484 453.073 465.453 449.844 461.391C446.615 457.328 445 452.055 445 445.57C445 438.253 446.784 432.562 450.352 428.5C453.919 424.438 458.841 422.406 465.117 422.406C470.456 422.406 474.818 423.604 478.203 426C481.615 428.396 483.633 432.628 484.258 438.695ZM511.445 458.07V466.391L506.172 466.586C500.911 466.768 497.318 465.857 495.391 463.852C494.141 462.576 493.516 460.609 493.516 457.953V431.742H487.578V423.812H493.516V411.938H504.531V423.812H511.445V431.742H504.531V454.242C504.531 455.987 504.753 457.081 505.195 457.523C505.638 457.94 506.992 458.148 509.258 458.148C509.596 458.148 509.948 458.148 510.312 458.148C510.703 458.122 511.081 458.096 511.445 458.07ZM530.039 423.422V466H518.75V423.422H530.039ZM530.039 408.07V418.344H518.75V408.07H530.039ZM576.367 428.812C579.961 433.318 581.758 438.643 581.758 444.789C581.758 451.039 579.961 456.391 576.367 460.844C572.773 465.271 567.318 467.484 560 467.484C552.682 467.484 547.227 465.271 543.633 460.844C540.039 456.391 538.242 451.039 538.242 444.789C538.242 438.643 540.039 433.318 543.633 428.812C547.227 424.307 552.682 422.055 560 422.055C567.318 422.055 572.773 424.307 576.367 428.812ZM559.961 431.469C556.706 431.469 554.193 432.628 552.422 434.945C550.677 437.237 549.805 440.518 549.805 444.789C549.805 449.06 550.677 452.354 552.422 454.672C554.193 456.99 556.706 458.148 559.961 458.148C563.216 458.148 565.716 456.99 567.461 454.672C569.206 452.354 570.078 449.06 570.078 444.789C570.078 440.518 569.206 437.237 567.461 434.945C565.716 432.628 563.216 431.469 559.961 431.469ZM609.805 431.664C606.029 431.664 603.438 433.266 602.031 436.469C601.302 438.161 600.938 440.323 600.938 442.953V466H589.844V423.5H600.586V429.711C602.018 427.523 603.372 425.948 604.648 424.984C606.94 423.266 609.844 422.406 613.359 422.406C617.76 422.406 621.354 423.565 624.141 425.883C626.953 428.174 628.359 431.99 628.359 437.328V466H616.953V440.102C616.953 437.862 616.654 436.143 616.055 434.945C614.961 432.758 612.878 431.664 609.805 431.664Z" fill="black"/>
<g clip-path="url(#clip0_5188_12932)">
<path d="M371.121 95.3282L401.311 95.3396L421.046 128.097L440.711 95.3422L470.875 95.3347L421.197 181.507L371.121 95.3282Z" fill="#35495E"/>
<path d="M338.195 95.5588L371.094 95.3342L421.168 181.51L470.848 95.3395L503.805 95.374L421.162 237.203L338.195 95.5588Z" fill="#41B883"/>
</g>
<path d="M741.435 592.713C741.435 593.599 742.138 594.276 742.998 594.276C743.883 594.276 744.587 593.599 744.587 592.713V576.563C744.587 575.703 743.883 575 742.998 575C742.112 575 741.435 575.703 741.435 576.563V592.713Z" fill="#030060"/>
<path d="M748.654 576.849C748.654 577.787 749.435 578.412 750.451 578.412C751.467 578.412 752.248 577.787 752.248 576.849V576.693C752.248 575.755 751.467 575.156 750.451 575.156C749.435 575.156 748.654 575.755 748.654 576.693V576.849ZM748.888 592.713C748.888 593.599 749.591 594.276 750.451 594.276C751.337 594.276 752.04 593.599 752.04 592.713V581.825C752.04 580.939 751.337 580.236 750.451 580.236C749.565 580.236 748.888 580.939 748.888 581.825V592.713Z" fill="#030060"/>
<path d="M756.159 592.713C756.159 593.573 756.863 594.276 757.722 594.276C758.608 594.276 759.311 593.573 759.311 592.713V592.01C760.275 593.287 761.708 594.433 764 594.433C767.256 594.433 770.382 591.854 770.382 587.295V587.243C770.382 582.658 767.23 580.106 764 580.106C761.76 580.106 760.327 581.252 759.311 582.685V576.563C759.311 575.677 758.608 575 757.722 575C756.837 575 756.159 575.677 756.159 576.563V592.713ZM763.245 591.698C761.109 591.698 759.233 589.926 759.233 587.295V587.243C759.233 584.612 761.109 582.841 763.245 582.841C765.381 582.841 767.178 584.586 767.178 587.243V587.295C767.178 590.004 765.407 591.698 763.245 591.698Z" fill="#030060"/>
<path d="M773.818 592.713C773.818 593.599 774.521 594.276 775.381 594.276C776.267 594.276 776.97 593.599 776.97 592.713V576.563C776.97 575.703 776.267 575 775.381 575C774.495 575 773.818 575.703 773.818 576.563V592.713Z" fill="#030060"/>
<path d="M787.628 594.459C791.874 594.459 795 591.203 795 587.295V587.243C795 583.31 791.9 580.106 787.68 580.106C783.46 580.106 780.334 583.362 780.334 587.295V587.347C780.334 591.255 783.434 594.459 787.628 594.459ZM787.68 591.698C785.231 591.698 783.486 589.692 783.486 587.295V587.243C783.486 584.847 785.101 582.867 787.628 582.867C790.102 582.867 791.848 584.873 791.848 587.295V587.347C791.848 589.718 790.233 591.698 787.68 591.698Z" fill="#030060"/>
<path d="M736.96 590.09C735.74 590.65 734.453 591.046 733.208 591.294C728.074 592.314 725.36 589.099 729.634 586.781C730.099 586.529 730.632 586.291 731.228 586.075L732.011 585.826C732.241 585.763 732.463 585.661 732.534 585.515C732.905 584.723 729.731 584.467 727.622 585.589C728.458 585.431 729.186 585.408 729.668 585.609C724.878 586.845 723.788 590.757 726.335 592.642C727.649 593.615 729.127 593.873 731.832 593.682C733.637 593.555 735.48 592.837 736.96 591.969V590.09Z" fill="url(#paint1_linear_5188_12932)"/>
<path d="M734.542 592.784C734.542 593.607 735.171 594.165 736.03 594.165C736.89 594.165 737.478 593.644 737.478 592.784V586.011C737.478 584.214 737.009 582.755 735.993 581.765C735.029 580.776 733.492 580.228 731.434 580.228C729.637 580.228 728.308 580.541 727.006 581.036C726.537 581.218 726.146 581.713 726.146 582.286C726.146 583.016 726.745 583.589 727.475 583.589C727.631 583.589 727.787 583.563 727.97 583.511C728.829 583.172 729.819 582.964 731.018 582.964C733.232 582.964 734.43 584.006 734.43 585.959V585.968L734.542 592.784Z" fill="url(#paint2_linear_5188_12932)"/>
<path d="M733.611 578.379C733.611 578.591 733.273 578.721 732.805 578.721C732.077 578.721 731.583 578.64 730.984 578.282L729.216 577.24C728.956 577.093 728.774 576.93 728.774 576.751C728.774 576.442 729.814 576.116 730.646 576.116C731.192 576.116 731.609 576.295 731.895 576.589L733.377 578.021C733.481 578.119 733.611 578.265 733.611 578.379Z" fill="url(#paint3_linear_5188_12932)"/>
<defs>
<linearGradient id="paint0_linear_5188_12932" x1="800" y1="2.20924e-05" x2="1.22569" y2="601.627" gradientUnits="userSpaceOnUse">
<stop stop-color="#ECFAFF"/>
<stop offset="1" stop-color="#75BBD1"/>
</linearGradient>
<linearGradient id="paint1_linear_5188_12932" x1="725" y1="576.116" x2="725" y2="594.165" gradientUnits="userSpaceOnUse">
<stop stop-color="#008EE3"/>
<stop offset="1" stop-color="#0055C2"/>
</linearGradient>
<linearGradient id="paint2_linear_5188_12932" x1="725" y1="576.116" x2="725" y2="594.165" gradientUnits="userSpaceOnUse">
<stop stop-color="#008EE3"/>
<stop offset="1" stop-color="#0055C2"/>
</linearGradient>
<linearGradient id="paint3_linear_5188_12932" x1="725" y1="576.116" x2="725" y2="594.165" gradientUnits="userSpaceOnUse">
<stop stop-color="#008EE3"/>
<stop offset="1" stop-color="#0055C2"/>
</linearGradient>
<clipPath id="clip0_5188_12932">
<rect width="168" height="168" fill="white" transform="translate(337 83)"/>
</clipPath>
</defs>
</svg>
