<svg width="800" height="600" viewBox="0 0 800 600" fill="none" xmlns="http://www.w3.org/2000/svg">
<rect width="800" height="600" fill="url(#paint0_linear_5188_12938)"/>
<path d="M301.805 270.164H280.594L276.609 282H264.031L284.578 224.422H298.172L318.562 282H305.516L301.805 270.164ZM298.445 260.242L291.258 237.586L283.836 260.242H298.445ZM345.047 247.664C341.271 247.664 338.68 249.266 337.273 252.469C336.544 254.161 336.18 256.323 336.18 258.953V282H325.086V239.5H335.828V245.711C337.26 243.523 338.615 241.948 339.891 240.984C342.182 239.266 345.086 238.406 348.602 238.406C353.003 238.406 356.596 239.565 359.383 241.883C362.195 244.174 363.602 247.99 363.602 253.328V282H352.195V256.102C352.195 253.862 351.896 252.143 351.297 250.945C350.203 248.758 348.12 247.664 345.047 247.664ZM385.945 289.461C387.143 290.477 389.161 290.984 392 290.984C396.01 290.984 398.693 289.643 400.047 286.961C400.932 285.242 401.375 282.352 401.375 278.289V275.555C400.307 277.378 399.161 278.745 397.938 279.656C395.724 281.349 392.846 282.195 389.305 282.195C383.836 282.195 379.461 280.281 376.18 276.453C372.924 272.599 371.297 267.391 371.297 260.828C371.297 254.5 372.872 249.188 376.023 244.891C379.174 240.568 383.641 238.406 389.422 238.406C391.557 238.406 393.419 238.732 395.008 239.383C397.716 240.503 399.904 242.56 401.57 245.555V239.422H412.391V279.812C412.391 285.307 411.466 289.448 409.617 292.234C406.44 297.026 400.346 299.422 391.336 299.422C385.893 299.422 381.453 298.354 378.016 296.219C374.578 294.083 372.677 290.893 372.312 286.648H384.422C384.734 287.951 385.242 288.888 385.945 289.461ZM384.07 267.469C385.581 271.062 388.289 272.859 392.195 272.859C394.799 272.859 397 271.883 398.797 269.93C400.594 267.951 401.492 264.812 401.492 260.516C401.492 256.479 400.633 253.406 398.914 251.297C397.221 249.188 394.943 248.133 392.078 248.133C388.172 248.133 385.477 249.969 383.992 253.641C383.211 255.594 382.82 258.003 382.82 260.867C382.82 263.341 383.237 265.542 384.07 267.469ZM450.125 275.984C450.021 276.115 449.76 276.505 449.344 277.156C448.927 277.807 448.432 278.38 447.859 278.875C446.115 280.438 444.422 281.505 442.781 282.078C441.167 282.651 439.266 282.938 437.078 282.938C430.776 282.938 426.531 280.672 424.344 276.141C423.12 273.641 422.508 269.956 422.508 265.086V239.422H433.914V265.086C433.914 267.508 434.201 269.331 434.773 270.555C435.789 272.716 437.781 273.797 440.75 273.797C444.552 273.797 447.156 272.26 448.562 269.188C449.292 267.521 449.656 265.32 449.656 262.586V239.422H460.945V282H450.125V275.984ZM471.961 224.422H483.094V282H471.961V224.422ZM495.594 244.031C498.536 240.281 503.589 238.406 510.75 238.406C515.411 238.406 519.552 239.331 523.172 241.18C526.792 243.029 528.602 246.518 528.602 251.648V271.18C528.602 272.534 528.628 274.174 528.68 276.102C528.758 277.56 528.979 278.549 529.344 279.07C529.708 279.591 530.255 280.021 530.984 280.359V282H518.875C518.536 281.141 518.302 280.333 518.172 279.578C518.042 278.823 517.938 277.964 517.859 277C516.323 278.667 514.552 280.086 512.547 281.258C510.151 282.638 507.443 283.328 504.422 283.328C500.568 283.328 497.378 282.234 494.852 280.047C492.352 277.833 491.102 274.708 491.102 270.672C491.102 265.438 493.12 261.648 497.156 259.305C499.37 258.029 502.625 257.117 506.922 256.57L510.711 256.102C512.768 255.841 514.24 255.516 515.125 255.125C516.714 254.448 517.508 253.393 517.508 251.961C517.508 250.216 516.896 249.018 515.672 248.367C514.474 247.69 512.703 247.352 510.359 247.352C507.729 247.352 505.867 248.003 504.773 249.305C503.992 250.268 503.471 251.57 503.211 253.211H492.469C492.703 249.487 493.745 246.427 495.594 244.031ZM503.875 273.953C504.917 274.812 506.193 275.242 507.703 275.242C510.099 275.242 512.299 274.539 514.305 273.133C516.336 271.727 517.391 269.161 517.469 265.438V261.297C516.766 261.74 516.049 262.104 515.32 262.391C514.617 262.651 513.641 262.898 512.391 263.133L509.891 263.602C507.547 264.018 505.867 264.526 504.852 265.125C503.133 266.141 502.273 267.716 502.273 269.852C502.273 271.753 502.807 273.12 503.875 273.953ZM559.93 249.695C555.451 249.695 552.443 251.154 550.906 254.07C550.047 255.711 549.617 258.237 549.617 261.648V282H538.406V239.422H549.031V246.844C550.75 244.005 552.247 242.065 553.523 241.023C555.607 239.279 558.315 238.406 561.648 238.406C561.857 238.406 562.026 238.419 562.156 238.445C562.312 238.445 562.638 238.458 563.133 238.484V249.891C562.43 249.812 561.805 249.76 561.258 249.734C560.711 249.708 560.268 249.695 559.93 249.695ZM565.125 270.359H576.961V282H565.125V270.359ZM588.094 239.617H599.227V286.57C599.227 290.867 598.38 294.044 596.688 296.102C594.995 298.159 591.674 299.188 586.727 299.188C586.388 299.188 585.88 299.174 585.203 299.148C584.552 299.122 583.732 299.096 582.742 299.07V290.164C583.367 290.216 583.81 290.242 584.07 290.242C584.331 290.268 584.565 290.281 584.773 290.281C585.867 290.281 586.688 290.008 587.234 289.461C587.807 288.94 588.094 287.911 588.094 286.375V239.617ZM588.094 224.07H599.227V234.344H588.094V224.07ZM639.188 241.375C642.521 243.51 644.435 247.182 644.93 252.391H633.797C633.641 250.958 633.237 249.826 632.586 248.992C631.362 247.482 629.279 246.727 626.336 246.727C623.914 246.727 622.182 247.104 621.141 247.859C620.125 248.615 619.617 249.5 619.617 250.516C619.617 251.792 620.164 252.716 621.258 253.289C622.352 253.888 626.219 254.917 632.859 256.375C637.286 257.417 640.607 258.992 642.82 261.102C645.008 263.237 646.102 265.906 646.102 269.109C646.102 273.328 644.526 276.779 641.375 279.461C638.25 282.117 633.406 283.445 626.844 283.445C620.151 283.445 615.203 282.039 612 279.227C608.823 276.388 607.234 272.781 607.234 268.406H618.523C618.758 270.385 619.266 271.792 620.047 272.625C621.427 274.109 623.979 274.852 627.703 274.852C629.891 274.852 631.622 274.526 632.898 273.875C634.201 273.224 634.852 272.247 634.852 270.945C634.852 269.695 634.331 268.745 633.289 268.094C632.247 267.443 628.38 266.323 621.688 264.734C616.87 263.536 613.471 262.039 611.492 260.242C609.513 258.471 608.523 255.919 608.523 252.586C608.523 248.654 610.06 245.281 613.133 242.469C616.232 239.63 620.581 238.211 626.18 238.211C631.492 238.211 635.828 239.266 639.188 241.375ZM267.156 316.422H279.109V374H267.156V316.422ZM309.5 339.664C305.724 339.664 303.133 341.266 301.727 344.469C300.997 346.161 300.633 348.323 300.633 350.953V374H289.539V331.5H300.281V337.711C301.714 335.523 303.068 333.948 304.344 332.984C306.635 331.266 309.539 330.406 313.055 330.406C317.456 330.406 321.049 331.565 323.836 333.883C326.648 336.174 328.055 339.99 328.055 345.328V374H316.648V348.102C316.648 345.862 316.349 344.143 315.75 342.945C314.656 340.758 312.573 339.664 309.5 339.664ZM357.859 366.07V374.391L352.586 374.586C347.326 374.768 343.732 373.857 341.805 371.852C340.555 370.576 339.93 368.609 339.93 365.953V339.742H333.992V331.812H339.93V319.938H350.945V331.812H357.859V339.742H350.945V362.242C350.945 363.987 351.167 365.081 351.609 365.523C352.052 365.94 353.406 366.148 355.672 366.148C356.01 366.148 356.362 366.148 356.727 366.148C357.117 366.122 357.495 366.096 357.859 366.07ZM386.414 341.695C381.935 341.695 378.927 343.154 377.391 346.07C376.531 347.711 376.102 350.237 376.102 353.648V374H364.891V331.422H375.516V338.844C377.234 336.005 378.732 334.065 380.008 333.023C382.091 331.279 384.799 330.406 388.133 330.406C388.341 330.406 388.51 330.419 388.641 330.445C388.797 330.445 389.122 330.458 389.617 330.484V341.891C388.914 341.812 388.289 341.76 387.742 341.734C387.195 341.708 386.753 341.695 386.414 341.695ZM431.688 336.812C435.281 341.318 437.078 346.643 437.078 352.789C437.078 359.039 435.281 364.391 431.688 368.844C428.094 373.271 422.638 375.484 415.32 375.484C408.003 375.484 402.547 373.271 398.953 368.844C395.359 364.391 393.562 359.039 393.562 352.789C393.562 346.643 395.359 341.318 398.953 336.812C402.547 332.307 408.003 330.055 415.32 330.055C422.638 330.055 428.094 332.307 431.688 336.812ZM415.281 339.469C412.026 339.469 409.513 340.628 407.742 342.945C405.997 345.237 405.125 348.518 405.125 352.789C405.125 357.06 405.997 360.354 407.742 362.672C409.513 364.99 412.026 366.148 415.281 366.148C418.536 366.148 421.036 364.99 422.781 362.672C424.526 360.354 425.398 357.06 425.398 352.789C425.398 348.518 424.526 345.237 422.781 342.945C421.036 340.628 418.536 339.469 415.281 339.469ZM483.836 316.5V374H473.016V368.102C471.427 370.628 469.617 372.464 467.586 373.609C465.555 374.755 463.029 375.328 460.008 375.328C455.034 375.328 450.841 373.323 447.43 369.312C444.044 365.276 442.352 360.107 442.352 353.805C442.352 346.539 444.018 340.823 447.352 336.656C450.711 332.49 455.19 330.406 460.789 330.406C463.367 330.406 465.659 330.979 467.664 332.125C469.669 333.245 471.297 334.807 472.547 336.812V316.5H483.836ZM453.836 352.984C453.836 356.917 454.617 360.055 456.18 362.398C457.716 364.768 460.06 365.953 463.211 365.953C466.362 365.953 468.758 364.781 470.398 362.438C472.039 360.094 472.859 357.06 472.859 353.336C472.859 348.128 471.544 344.404 468.914 342.164C467.299 340.81 465.424 340.133 463.289 340.133C460.034 340.133 457.638 341.37 456.102 343.844C454.591 346.292 453.836 349.339 453.836 352.984ZM521.297 367.984C521.193 368.115 520.932 368.505 520.516 369.156C520.099 369.807 519.604 370.38 519.031 370.875C517.286 372.438 515.594 373.505 513.953 374.078C512.339 374.651 510.438 374.938 508.25 374.938C501.948 374.938 497.703 372.672 495.516 368.141C494.292 365.641 493.68 361.956 493.68 357.086V331.422H505.086V357.086C505.086 359.508 505.372 361.331 505.945 362.555C506.961 364.716 508.953 365.797 511.922 365.797C515.724 365.797 518.328 364.26 519.734 361.188C520.464 359.521 520.828 357.32 520.828 354.586V331.422H532.117V374H521.297V367.984ZM579.734 346.695H568.328C568.12 345.107 567.586 343.674 566.727 342.398C565.477 340.68 563.536 339.82 560.906 339.82C557.156 339.82 554.591 341.682 553.211 345.406C552.482 347.385 552.117 350.016 552.117 353.297C552.117 356.422 552.482 358.935 553.211 360.836C554.539 364.378 557.039 366.148 560.711 366.148C563.315 366.148 565.164 365.445 566.258 364.039C567.352 362.633 568.016 360.81 568.25 358.57H579.617C579.357 361.956 578.133 365.159 575.945 368.18C572.456 373.049 567.286 375.484 560.438 375.484C553.589 375.484 548.549 373.453 545.32 369.391C542.091 365.328 540.477 360.055 540.477 353.57C540.477 346.253 542.26 340.562 545.828 336.5C549.396 332.438 554.318 330.406 560.594 330.406C565.932 330.406 570.294 331.604 573.68 334C577.091 336.396 579.109 340.628 579.734 346.695ZM606.922 366.07V374.391L601.648 374.586C596.388 374.768 592.794 373.857 590.867 371.852C589.617 370.576 588.992 368.609 588.992 365.953V339.742H583.055V331.812H588.992V319.938H600.008V331.812H606.922V339.742H600.008V362.242C600.008 363.987 600.229 365.081 600.672 365.523C601.115 365.94 602.469 366.148 604.734 366.148C605.073 366.148 605.424 366.148 605.789 366.148C606.18 366.122 606.557 366.096 606.922 366.07ZM625.516 331.422V374H614.227V331.422H625.516ZM625.516 316.07V326.344H614.227V316.07H625.516ZM671.844 336.812C675.438 341.318 677.234 346.643 677.234 352.789C677.234 359.039 675.438 364.391 671.844 368.844C668.25 373.271 662.794 375.484 655.477 375.484C648.159 375.484 642.703 373.271 639.109 368.844C635.516 364.391 633.719 359.039 633.719 352.789C633.719 346.643 635.516 341.318 639.109 336.812C642.703 332.307 648.159 330.055 655.477 330.055C662.794 330.055 668.25 332.307 671.844 336.812ZM655.438 339.469C652.182 339.469 649.669 340.628 647.898 342.945C646.154 345.237 645.281 348.518 645.281 352.789C645.281 357.06 646.154 360.354 647.898 362.672C649.669 364.99 652.182 366.148 655.438 366.148C658.693 366.148 661.193 364.99 662.938 362.672C664.682 360.354 665.555 357.06 665.555 352.789C665.555 348.518 664.682 345.237 662.938 342.945C661.193 340.628 658.693 339.469 655.438 339.469ZM705.281 339.664C701.505 339.664 698.914 341.266 697.508 344.469C696.779 346.161 696.414 348.323 696.414 350.953V374H685.32V331.5H696.062V337.711C697.495 335.523 698.849 333.948 700.125 332.984C702.417 331.266 705.32 330.406 708.836 330.406C713.237 330.406 716.831 331.565 719.617 333.883C722.43 336.174 723.836 339.99 723.836 345.328V374H712.43V348.102C712.43 345.862 712.13 344.143 711.531 342.945C710.438 340.758 708.354 339.664 705.281 339.664Z" fill="#FDEBEF"/>
<path d="M145.763 221.282L71.6914 247.35L83.3952 344.396L145.841 378.717L208.609 343.932L220.309 246.889L145.763 221.282Z" fill="#B3B3B3"/>
<path d="M212.92 252.498L145.59 229.536V370.517L202.016 339.289L212.92 252.498Z" fill="#A6120D"/>
<path d="M80.001 252.911L90.0335 339.704L145.588 370.518V229.534L80.001 252.911Z" fill="#DD1B16"/>
<path d="M164.124 304.588L145.59 313.255H126.055L116.872 336.223L99.793 336.54L145.59 234.655L164.124 304.588ZM162.332 300.224L145.713 267.323L132.08 299.658H145.589L162.332 300.224Z" fill="#F2F2F2"/>
<path d="M145.589 234.655L145.711 267.323L161.18 299.683H145.623L145.589 313.234L167.1 313.255L177.153 336.543L193.495 336.845L145.589 234.655Z" fill="#B3B3B3"/>
<path d="M741.435 592.713C741.435 593.599 742.138 594.276 742.998 594.276C743.883 594.276 744.587 593.599 744.587 592.713V576.563C744.587 575.703 743.883 575 742.998 575C742.112 575 741.435 575.703 741.435 576.563V592.713Z" fill="white"/>
<path d="M748.654 576.849C748.654 577.787 749.435 578.412 750.451 578.412C751.467 578.412 752.248 577.787 752.248 576.849V576.693C752.248 575.755 751.467 575.156 750.451 575.156C749.435 575.156 748.654 575.755 748.654 576.693V576.849ZM748.888 592.713C748.888 593.599 749.591 594.276 750.451 594.276C751.337 594.276 752.04 593.599 752.04 592.713V581.825C752.04 580.939 751.337 580.236 750.451 580.236C749.565 580.236 748.888 580.939 748.888 581.825V592.713Z" fill="white"/>
<path d="M756.159 592.713C756.159 593.573 756.863 594.276 757.722 594.276C758.608 594.276 759.311 593.573 759.311 592.713V592.01C760.275 593.287 761.708 594.433 764 594.433C767.256 594.433 770.382 591.854 770.382 587.295V587.243C770.382 582.658 767.23 580.106 764 580.106C761.76 580.106 760.327 581.252 759.311 582.685V576.563C759.311 575.677 758.608 575 757.722 575C756.837 575 756.159 575.677 756.159 576.563V592.713ZM763.245 591.698C761.109 591.698 759.233 589.926 759.233 587.295V587.243C759.233 584.612 761.109 582.841 763.245 582.841C765.381 582.841 767.178 584.586 767.178 587.243V587.295C767.178 590.004 765.407 591.698 763.245 591.698Z" fill="white"/>
<path d="M773.818 592.713C773.818 593.599 774.521 594.276 775.381 594.276C776.267 594.276 776.97 593.599 776.97 592.713V576.563C776.97 575.703 776.267 575 775.381 575C774.495 575 773.818 575.703 773.818 576.563V592.713Z" fill="white"/>
<path d="M787.628 594.459C791.874 594.459 795 591.203 795 587.295V587.243C795 583.31 791.9 580.106 787.68 580.106C783.46 580.106 780.334 583.362 780.334 587.295V587.347C780.334 591.255 783.434 594.459 787.628 594.459ZM787.68 591.698C785.231 591.698 783.486 589.692 783.486 587.295V587.243C783.486 584.847 785.101 582.867 787.628 582.867C790.102 582.867 791.848 584.873 791.848 587.295V587.347C791.848 589.718 790.233 591.698 787.68 591.698Z" fill="white"/>
<path d="M736.96 590.09C735.74 590.65 734.453 591.046 733.208 591.294C728.074 592.314 725.36 589.099 729.634 586.781C730.099 586.529 730.632 586.291 731.228 586.075L732.011 585.826C732.241 585.763 732.463 585.661 732.534 585.515C732.905 584.723 729.731 584.467 727.622 585.589C728.458 585.431 729.186 585.408 729.668 585.609C724.878 586.845 723.788 590.757 726.335 592.642C727.649 593.615 729.127 593.873 731.832 593.682C733.637 593.555 735.48 592.837 736.96 591.969V590.09Z" fill="white"/>
<path d="M734.542 592.784C734.542 593.607 735.171 594.165 736.03 594.165C736.89 594.165 737.478 593.644 737.478 592.784V586.011C737.478 584.214 737.009 582.755 735.993 581.765C735.029 580.776 733.492 580.228 731.434 580.228C729.637 580.228 728.308 580.541 727.006 581.036C726.537 581.218 726.146 581.713 726.146 582.286C726.146 583.016 726.745 583.589 727.475 583.589C727.631 583.589 727.787 583.563 727.97 583.511C728.829 583.172 729.819 582.964 731.018 582.964C733.232 582.964 734.43 584.006 734.43 585.959V585.968L734.542 592.784Z" fill="white"/>
<path d="M733.611 578.379C733.611 578.591 733.273 578.721 732.805 578.721C732.077 578.721 731.583 578.64 730.984 578.282L729.216 577.24C728.956 577.093 728.774 576.93 728.774 576.751C728.774 576.442 729.814 576.116 730.646 576.116C731.192 576.116 731.609 576.295 731.895 576.589L733.377 578.021C733.481 578.119 733.611 578.265 733.611 578.379Z" fill="white"/>
<defs>
<linearGradient id="paint0_linear_5188_12938" x1="800" y1="4.75322e-05" x2="-2.41942" y2="596.747" gradientUnits="userSpaceOnUse">
<stop stop-color="#FF8585"/>
<stop offset="1" stop-color="#FF0000"/>
</linearGradient>
</defs>
</svg>
