<svg width="800" height="600" viewBox="0 0 800 600" fill="none" xmlns="http://www.w3.org/2000/svg">
<rect width="800" height="600" fill="url(#paint0_linear_5188_12950)"/>
<path d="M465.83 183.037L466.078 178.069V176.578H464.091C461.109 176.578 457.88 177.323 455.644 178.814C452.166 180.802 450.178 184.528 450.178 189.745C450.178 197.198 453.905 201.422 460.364 201.422C462.352 201.422 463.594 201.173 466.078 200.428V189.745L465.83 183.037V183.037ZM280.495 189.497C280.495 197.447 284.47 201.67 292.172 201.67C293.911 201.67 294.656 201.67 297.141 201.173V177.572C294.656 177.075 294.159 176.827 292.172 176.827C284.719 176.827 280.495 181.547 280.495 189.497ZM354.033 199.186C354.033 202.167 355.772 203.409 359.747 203.409C361.983 203.409 364.219 203.161 366.703 202.664V192.727C356.766 193.72 354.033 195.211 354.033 199.186V199.186ZM510.548 176.578C504.834 176.578 501.356 181.298 501.356 189.497C501.356 197.695 504.586 202.416 510.548 202.416C516.263 202.416 519.492 197.695 519.492 189.497C519.492 181.547 516.263 176.578 510.548 176.578ZM553.031 139.064C553.031 129.623 545.33 121.922 535.889 121.922H259.627C250.186 121.922 242.484 129.623 242.484 139.064V238.688C242.484 248.377 250.186 256.078 259.627 256.078H535.641C545.081 256.078 552.783 248.377 552.783 238.936V139.064H553.031ZM265.589 189.745C265.589 174.839 275.527 164.902 290.93 164.902C293.414 164.902 294.905 165.15 297.389 165.647V144.281H312.295V211.359C304.842 212.85 299.128 213.347 293.166 213.347C275.03 213.347 265.589 205.397 265.589 189.745V189.745ZM334.406 200.18C334.406 211.856 333.909 217.57 331.425 222.539C328.941 227.259 326.208 230.241 319.748 233.47L306.084 227.011C312.544 224.03 315.277 221.297 317.264 217.073C319.252 212.85 319.5 207.881 319.5 195.211V166.641H334.406V200.18V200.18ZM334.406 159.188H319.5V144.281H334.406V159.188ZM379.125 212.105C374.156 213.098 364.716 213.844 358.505 213.844C346.083 213.844 340.866 209.62 340.866 199.931C340.866 189.497 349.064 184.777 366.455 183.286V180.056C366.455 177.323 365.213 176.33 361.486 176.33C356.02 176.33 349.064 177.82 344.095 180.802V169.373C351.548 166.392 356.766 164.902 363.473 164.902C370.927 164.902 375.398 166.889 377.634 170.864C378.877 173.1 378.877 175.833 378.877 182.044V212.105H379.125ZM431.297 213.844H416.391V184.528C416.391 178.814 413.906 176.827 408.689 176.827C406.702 176.827 403.969 177.075 401.484 177.82V213.844H386.578V168.38C396.516 166.144 402.727 165.15 409.931 165.15C417.384 165.15 423.347 166.889 426.577 170.119C429.806 173.348 431.297 176.578 431.297 184.031V213.844V213.844ZM479.245 185.025L480.984 198.938V203.161C480.984 215.831 479.494 221.794 476.264 226.514C471.792 233.719 463.594 237.197 452.166 237.197C446.452 237.197 440.986 236.452 436.017 234.216V220.552C440.986 223.284 446.452 224.527 451.917 224.527C461.606 224.527 465.83 220.552 465.83 211.359V211.111C463.345 212.602 459.867 213.098 456.141 213.098C443.222 213.098 435.023 204.652 435.023 191.236C435.023 174.591 447.197 165.15 468.562 165.15C474.773 165.15 480.736 165.895 487.692 167.138L481.978 177.82C478.003 177.075 485.208 177.82 480.239 177.323L479.245 185.025ZM510.3 214.092C495.642 214.092 486.45 204.9 486.45 189.994C486.45 174.591 495.891 164.902 510.797 164.902C525.455 164.902 534.398 174.094 534.398 189.248C534.647 204.403 525.206 214.092 510.3 214.092Z" fill="#E0F7F9"/>
<path d="M294.234 371H269.43V313.422H294.234C297.802 313.474 300.771 313.891 303.141 314.672C307.177 316 310.445 318.435 312.945 321.977C314.951 324.841 316.318 327.94 317.047 331.273C317.776 334.607 318.141 337.784 318.141 340.805C318.141 348.461 316.604 354.945 313.531 360.258C309.365 367.419 302.932 371 294.234 371ZM303.18 328.109C301.331 324.984 297.672 323.422 292.203 323.422H281.109V361H292.203C297.88 361 301.839 358.201 304.078 352.602C305.302 349.529 305.914 345.87 305.914 341.625C305.914 335.766 305.003 331.26 303.18 328.109ZM326.852 328.617H337.984V375.57C337.984 379.867 337.138 383.044 335.445 385.102C333.753 387.159 330.432 388.188 325.484 388.188C325.146 388.188 324.638 388.174 323.961 388.148C323.31 388.122 322.49 388.096 321.5 388.07V379.164C322.125 379.216 322.568 379.242 322.828 379.242C323.089 379.268 323.323 379.281 323.531 379.281C324.625 379.281 325.445 379.008 325.992 378.461C326.565 377.94 326.852 376.911 326.852 375.375V328.617ZM326.852 313.07H337.984V323.344H326.852V313.07ZM350.211 333.031C353.154 329.281 358.206 327.406 365.367 327.406C370.029 327.406 374.169 328.331 377.789 330.18C381.409 332.029 383.219 335.518 383.219 340.648V360.18C383.219 361.534 383.245 363.174 383.297 365.102C383.375 366.56 383.596 367.549 383.961 368.07C384.326 368.591 384.872 369.021 385.602 369.359V371H373.492C373.154 370.141 372.919 369.333 372.789 368.578C372.659 367.823 372.555 366.964 372.477 366C370.94 367.667 369.169 369.086 367.164 370.258C364.768 371.638 362.06 372.328 359.039 372.328C355.185 372.328 351.995 371.234 349.469 369.047C346.969 366.833 345.719 363.708 345.719 359.672C345.719 354.438 347.737 350.648 351.773 348.305C353.987 347.029 357.242 346.117 361.539 345.57L365.328 345.102C367.385 344.841 368.857 344.516 369.742 344.125C371.331 343.448 372.125 342.393 372.125 340.961C372.125 339.216 371.513 338.018 370.289 337.367C369.091 336.69 367.32 336.352 364.977 336.352C362.346 336.352 360.484 337.003 359.391 338.305C358.609 339.268 358.089 340.57 357.828 342.211H347.086C347.32 338.487 348.362 335.427 350.211 333.031ZM358.492 362.953C359.534 363.812 360.81 364.242 362.32 364.242C364.716 364.242 366.917 363.539 368.922 362.133C370.953 360.727 372.008 358.161 372.086 354.438V350.297C371.383 350.74 370.667 351.104 369.938 351.391C369.234 351.651 368.258 351.898 367.008 352.133L364.508 352.602C362.164 353.018 360.484 353.526 359.469 354.125C357.75 355.141 356.891 356.716 356.891 358.852C356.891 360.753 357.424 362.12 358.492 362.953ZM413.18 336.664C409.404 336.664 406.812 338.266 405.406 341.469C404.677 343.161 404.312 345.323 404.312 347.953V371H393.219V328.5H403.961V334.711C405.393 332.523 406.747 330.948 408.023 329.984C410.315 328.266 413.219 327.406 416.734 327.406C421.135 327.406 424.729 328.565 427.516 330.883C430.328 333.174 431.734 336.99 431.734 342.328V371H420.328V345.102C420.328 342.862 420.029 341.143 419.43 339.945C418.336 337.758 416.253 336.664 413.18 336.664ZM454.078 378.461C455.276 379.477 457.294 379.984 460.133 379.984C464.143 379.984 466.826 378.643 468.18 375.961C469.065 374.242 469.508 371.352 469.508 367.289V364.555C468.44 366.378 467.294 367.745 466.07 368.656C463.857 370.349 460.979 371.195 457.438 371.195C451.969 371.195 447.594 369.281 444.312 365.453C441.057 361.599 439.43 356.391 439.43 349.828C439.43 343.5 441.005 338.188 444.156 333.891C447.307 329.568 451.773 327.406 457.555 327.406C459.69 327.406 461.552 327.732 463.141 328.383C465.849 329.503 468.036 331.56 469.703 334.555V328.422H480.523V368.812C480.523 374.307 479.599 378.448 477.75 381.234C474.573 386.026 468.479 388.422 459.469 388.422C454.026 388.422 449.586 387.354 446.148 385.219C442.711 383.083 440.81 379.893 440.445 375.648H452.555C452.867 376.951 453.375 377.888 454.078 378.461ZM452.203 356.469C453.714 360.062 456.422 361.859 460.328 361.859C462.932 361.859 465.133 360.883 466.93 358.93C468.727 356.951 469.625 353.812 469.625 349.516C469.625 345.479 468.766 342.406 467.047 340.297C465.354 338.188 463.076 337.133 460.211 337.133C456.305 337.133 453.609 338.969 452.125 342.641C451.344 344.594 450.953 347.003 450.953 349.867C450.953 352.341 451.37 354.542 452.203 356.469ZM526.461 333.812C530.055 338.318 531.852 343.643 531.852 349.789C531.852 356.039 530.055 361.391 526.461 365.844C522.867 370.271 517.411 372.484 510.094 372.484C502.776 372.484 497.32 370.271 493.727 365.844C490.133 361.391 488.336 356.039 488.336 349.789C488.336 343.643 490.133 338.318 493.727 333.812C497.32 329.307 502.776 327.055 510.094 327.055C517.411 327.055 522.867 329.307 526.461 333.812ZM510.055 336.469C506.799 336.469 504.286 337.628 502.516 339.945C500.771 342.237 499.898 345.518 499.898 349.789C499.898 354.06 500.771 357.354 502.516 359.672C504.286 361.99 506.799 363.148 510.055 363.148C513.31 363.148 515.81 361.99 517.555 359.672C519.299 357.354 520.172 354.06 520.172 349.789C520.172 345.518 519.299 342.237 517.555 339.945C515.81 337.628 513.31 336.469 510.055 336.469ZM170.68 405.422H182.633V463H170.68V405.422ZM213.023 428.664C209.247 428.664 206.656 430.266 205.25 433.469C204.521 435.161 204.156 437.323 204.156 439.953V463H193.062V420.5H203.805V426.711C205.237 424.523 206.591 422.948 207.867 421.984C210.159 420.266 213.062 419.406 216.578 419.406C220.979 419.406 224.573 420.565 227.359 422.883C230.172 425.174 231.578 428.99 231.578 434.328V463H220.172V437.102C220.172 434.862 219.872 433.143 219.273 431.945C218.18 429.758 216.096 428.664 213.023 428.664ZM261.383 455.07V463.391L256.109 463.586C250.849 463.768 247.255 462.857 245.328 460.852C244.078 459.576 243.453 457.609 243.453 454.953V428.742H237.516V420.812H243.453V408.938H254.469V420.812H261.383V428.742H254.469V451.242C254.469 452.987 254.69 454.081 255.133 454.523C255.576 454.94 256.93 455.148 259.195 455.148C259.534 455.148 259.885 455.148 260.25 455.148C260.641 455.122 261.018 455.096 261.383 455.07ZM289.938 430.695C285.458 430.695 282.451 432.154 280.914 435.07C280.055 436.711 279.625 439.237 279.625 442.648V463H268.414V420.422H279.039V427.844C280.758 425.005 282.255 423.065 283.531 422.023C285.615 420.279 288.323 419.406 291.656 419.406C291.865 419.406 292.034 419.419 292.164 419.445C292.32 419.445 292.646 419.458 293.141 419.484V430.891C292.438 430.812 291.812 430.76 291.266 430.734C290.719 430.708 290.276 430.695 289.938 430.695ZM335.211 425.812C338.805 430.318 340.602 435.643 340.602 441.789C340.602 448.039 338.805 453.391 335.211 457.844C331.617 462.271 326.161 464.484 318.844 464.484C311.526 464.484 306.07 462.271 302.477 457.844C298.883 453.391 297.086 448.039 297.086 441.789C297.086 435.643 298.883 430.318 302.477 425.812C306.07 421.307 311.526 419.055 318.844 419.055C326.161 419.055 331.617 421.307 335.211 425.812ZM318.805 428.469C315.549 428.469 313.036 429.628 311.266 431.945C309.521 434.237 308.648 437.518 308.648 441.789C308.648 446.06 309.521 449.354 311.266 451.672C313.036 453.99 315.549 455.148 318.805 455.148C322.06 455.148 324.56 453.99 326.305 451.672C328.049 449.354 328.922 446.06 328.922 441.789C328.922 437.518 328.049 434.237 326.305 431.945C324.56 429.628 322.06 428.469 318.805 428.469ZM387.359 405.5V463H376.539V457.102C374.951 459.628 373.141 461.464 371.109 462.609C369.078 463.755 366.552 464.328 363.531 464.328C358.557 464.328 354.365 462.323 350.953 458.312C347.568 454.276 345.875 449.107 345.875 442.805C345.875 435.539 347.542 429.823 350.875 425.656C354.234 421.49 358.714 419.406 364.312 419.406C366.891 419.406 369.182 419.979 371.188 421.125C373.193 422.245 374.82 423.807 376.07 425.812V405.5H387.359ZM357.359 441.984C357.359 445.917 358.141 449.055 359.703 451.398C361.24 453.768 363.583 454.953 366.734 454.953C369.885 454.953 372.281 453.781 373.922 451.438C375.562 449.094 376.383 446.06 376.383 442.336C376.383 437.128 375.068 433.404 372.438 431.164C370.823 429.81 368.948 429.133 366.812 429.133C363.557 429.133 361.161 430.37 359.625 432.844C358.115 435.292 357.359 438.339 357.359 441.984ZM424.82 456.984C424.716 457.115 424.456 457.505 424.039 458.156C423.622 458.807 423.128 459.38 422.555 459.875C420.81 461.438 419.117 462.505 417.477 463.078C415.862 463.651 413.961 463.938 411.773 463.938C405.471 463.938 401.227 461.672 399.039 457.141C397.815 454.641 397.203 450.956 397.203 446.086V420.422H408.609V446.086C408.609 448.508 408.896 450.331 409.469 451.555C410.484 453.716 412.477 454.797 415.445 454.797C419.247 454.797 421.852 453.26 423.258 450.188C423.987 448.521 424.352 446.32 424.352 443.586V420.422H435.641V463H424.82V456.984ZM483.258 435.695H471.852C471.643 434.107 471.109 432.674 470.25 431.398C469 429.68 467.06 428.82 464.43 428.82C460.68 428.82 458.115 430.682 456.734 434.406C456.005 436.385 455.641 439.016 455.641 442.297C455.641 445.422 456.005 447.935 456.734 449.836C458.062 453.378 460.562 455.148 464.234 455.148C466.839 455.148 468.688 454.445 469.781 453.039C470.875 451.633 471.539 449.81 471.773 447.57H483.141C482.88 450.956 481.656 454.159 479.469 457.18C475.979 462.049 470.81 464.484 463.961 464.484C457.112 464.484 452.073 462.453 448.844 458.391C445.615 454.328 444 449.055 444 442.57C444 435.253 445.784 429.562 449.352 425.5C452.919 421.438 457.841 419.406 464.117 419.406C469.456 419.406 473.818 420.604 477.203 423C480.615 425.396 482.633 429.628 483.258 435.695ZM510.445 455.07V463.391L505.172 463.586C499.911 463.768 496.318 462.857 494.391 460.852C493.141 459.576 492.516 457.609 492.516 454.953V428.742H486.578V420.812H492.516V408.938H503.531V420.812H510.445V428.742H503.531V451.242C503.531 452.987 503.753 454.081 504.195 454.523C504.638 454.94 505.992 455.148 508.258 455.148C508.596 455.148 508.948 455.148 509.312 455.148C509.703 455.122 510.081 455.096 510.445 455.07ZM529.039 420.422V463H517.75V420.422H529.039ZM529.039 405.07V415.344H517.75V405.07H529.039ZM575.367 425.812C578.961 430.318 580.758 435.643 580.758 441.789C580.758 448.039 578.961 453.391 575.367 457.844C571.773 462.271 566.318 464.484 559 464.484C551.682 464.484 546.227 462.271 542.633 457.844C539.039 453.391 537.242 448.039 537.242 441.789C537.242 435.643 539.039 430.318 542.633 425.812C546.227 421.307 551.682 419.055 559 419.055C566.318 419.055 571.773 421.307 575.367 425.812ZM558.961 428.469C555.706 428.469 553.193 429.628 551.422 431.945C549.677 434.237 548.805 437.518 548.805 441.789C548.805 446.06 549.677 449.354 551.422 451.672C553.193 453.99 555.706 455.148 558.961 455.148C562.216 455.148 564.716 453.99 566.461 451.672C568.206 449.354 569.078 446.06 569.078 441.789C569.078 437.518 568.206 434.237 566.461 431.945C564.716 429.628 562.216 428.469 558.961 428.469ZM608.805 428.664C605.029 428.664 602.438 430.266 601.031 433.469C600.302 435.161 599.938 437.323 599.938 439.953V463H588.844V420.5H599.586V426.711C601.018 424.523 602.372 422.948 603.648 421.984C605.94 420.266 608.844 419.406 612.359 419.406C616.76 419.406 620.354 420.565 623.141 422.883C625.953 425.174 627.359 428.99 627.359 434.328V463H615.953V437.102C615.953 434.862 615.654 433.143 615.055 431.945C613.961 429.758 611.878 428.664 608.805 428.664Z" fill="#E0F7F9"/>
<path d="M741.435 592.713C741.435 593.599 742.138 594.276 742.998 594.276C743.883 594.276 744.587 593.599 744.587 592.713V576.563C744.587 575.703 743.883 575 742.998 575C742.112 575 741.435 575.703 741.435 576.563V592.713Z" fill="white"/>
<path d="M748.654 576.849C748.654 577.787 749.435 578.412 750.451 578.412C751.467 578.412 752.248 577.787 752.248 576.849V576.693C752.248 575.755 751.467 575.156 750.451 575.156C749.435 575.156 748.654 575.755 748.654 576.693V576.849ZM748.888 592.713C748.888 593.599 749.591 594.276 750.451 594.276C751.337 594.276 752.04 593.599 752.04 592.713V581.825C752.04 580.939 751.337 580.236 750.451 580.236C749.565 580.236 748.888 580.939 748.888 581.825V592.713Z" fill="white"/>
<path d="M756.159 592.713C756.159 593.573 756.863 594.276 757.722 594.276C758.608 594.276 759.311 593.573 759.311 592.713V592.01C760.275 593.287 761.708 594.433 764 594.433C767.256 594.433 770.382 591.854 770.382 587.295V587.243C770.382 582.658 767.23 580.106 764 580.106C761.76 580.106 760.327 581.252 759.311 582.685V576.563C759.311 575.677 758.608 575 757.722 575C756.837 575 756.159 575.677 756.159 576.563V592.713ZM763.245 591.698C761.109 591.698 759.233 589.926 759.233 587.295V587.243C759.233 584.612 761.109 582.841 763.245 582.841C765.381 582.841 767.178 584.586 767.178 587.243V587.295C767.178 590.004 765.407 591.698 763.245 591.698Z" fill="white"/>
<path d="M773.818 592.713C773.818 593.599 774.521 594.276 775.381 594.276C776.267 594.276 776.97 593.599 776.97 592.713V576.563C776.97 575.703 776.267 575 775.381 575C774.495 575 773.818 575.703 773.818 576.563V592.713Z" fill="white"/>
<path d="M787.628 594.459C791.874 594.459 795 591.203 795 587.295V587.243C795 583.31 791.9 580.106 787.68 580.106C783.46 580.106 780.334 583.362 780.334 587.295V587.347C780.334 591.255 783.434 594.459 787.628 594.459ZM787.68 591.698C785.231 591.698 783.486 589.692 783.486 587.295V587.243C783.486 584.847 785.101 582.867 787.628 582.867C790.102 582.867 791.848 584.873 791.848 587.295V587.347C791.848 589.718 790.233 591.698 787.68 591.698Z" fill="white"/>
<path d="M736.96 590.09C735.74 590.65 734.453 591.046 733.208 591.294C728.074 592.314 725.36 589.099 729.634 586.781C730.099 586.529 730.632 586.291 731.228 586.075L732.011 585.826C732.241 585.763 732.463 585.661 732.534 585.515C732.905 584.723 729.731 584.467 727.622 585.589C728.458 585.431 729.186 585.408 729.668 585.609C724.878 586.845 723.788 590.757 726.335 592.642C727.649 593.615 729.127 593.873 731.832 593.682C733.637 593.555 735.48 592.837 736.96 591.969V590.09Z" fill="url(#paint1_linear_5188_12950)"/>
<path d="M734.542 592.784C734.542 593.607 735.171 594.165 736.03 594.165C736.89 594.165 737.478 593.644 737.478 592.784V586.011C737.478 584.214 737.009 582.755 735.993 581.765C735.029 580.775 733.492 580.228 731.434 580.228C729.637 580.228 728.308 580.541 727.006 581.036C726.537 581.218 726.146 581.713 726.146 582.286C726.146 583.016 726.745 583.589 727.475 583.589C727.631 583.589 727.787 583.563 727.97 583.511C728.829 583.172 729.819 582.964 731.018 582.964C733.232 582.964 734.43 584.006 734.43 585.959V585.968L734.542 592.784Z" fill="url(#paint2_linear_5188_12950)"/>
<path d="M733.611 578.379C733.611 578.591 733.273 578.721 732.805 578.721C732.077 578.721 731.583 578.64 730.984 578.282L729.216 577.24C728.956 577.093 728.774 576.93 728.774 576.751C728.774 576.442 729.814 576.116 730.646 576.116C731.192 576.116 731.609 576.295 731.895 576.589L733.377 578.021C733.481 578.119 733.611 578.265 733.611 578.379Z" fill="url(#paint3_linear_5188_12950)"/>
<defs>
<linearGradient id="paint0_linear_5188_12950" x1="800" y1="5.44067e-05" x2="-2.41941" y2="596.747" gradientUnits="userSpaceOnUse">
<stop stop-color="#419401"/>
<stop offset="1" stop-color="#011200"/>
</linearGradient>
<linearGradient id="paint1_linear_5188_12950" x1="719.394" y1="601.3" x2="738.186" y2="600.76" gradientUnits="userSpaceOnUse">
<stop stop-color="white"/>
<stop offset="1" stop-color="#009AF9"/>
</linearGradient>
<linearGradient id="paint2_linear_5188_12950" x1="719.394" y1="601.3" x2="738.186" y2="600.76" gradientUnits="userSpaceOnUse">
<stop stop-color="white"/>
<stop offset="1" stop-color="#009AF9"/>
</linearGradient>
<linearGradient id="paint3_linear_5188_12950" x1="719.394" y1="601.3" x2="738.186" y2="600.76" gradientUnits="userSpaceOnUse">
<stop stop-color="white"/>
<stop offset="1" stop-color="#009AF9"/>
</linearGradient>
</defs>
</svg>
