<svg width="800" height="600" viewBox="0 0 800 600" fill="none" xmlns="http://www.w3.org/2000/svg">
<rect width="800" height="600" fill="url(#paint0_linear_5189_11495)"/>
<path d="M266.359 316.422H278.391V363.648H306.906V374H266.359V316.422ZM315.969 336.031C318.911 332.281 323.964 330.406 331.125 330.406C335.786 330.406 339.927 331.331 343.547 333.18C347.167 335.029 348.977 338.518 348.977 343.648V363.18C348.977 364.534 349.003 366.174 349.055 368.102C349.133 369.56 349.354 370.549 349.719 371.07C350.083 371.591 350.63 372.021 351.359 372.359V374H339.25C338.911 373.141 338.677 372.333 338.547 371.578C338.417 370.823 338.312 369.964 338.234 369C336.698 370.667 334.927 372.086 332.922 373.258C330.526 374.638 327.818 375.328 324.797 375.328C320.943 375.328 317.753 374.234 315.227 372.047C312.727 369.833 311.477 366.708 311.477 362.672C311.477 357.438 313.495 353.648 317.531 351.305C319.745 350.029 323 349.117 327.297 348.57L331.086 348.102C333.143 347.841 334.615 347.516 335.5 347.125C337.089 346.448 337.883 345.393 337.883 343.961C337.883 342.216 337.271 341.018 336.047 340.367C334.849 339.69 333.078 339.352 330.734 339.352C328.104 339.352 326.242 340.003 325.148 341.305C324.367 342.268 323.846 343.57 323.586 345.211H312.844C313.078 341.487 314.12 338.427 315.969 336.031ZM324.25 365.953C325.292 366.812 326.568 367.242 328.078 367.242C330.474 367.242 332.674 366.539 334.68 365.133C336.711 363.727 337.766 361.161 337.844 357.438V353.297C337.141 353.74 336.424 354.104 335.695 354.391C334.992 354.651 334.016 354.898 332.766 355.133L330.266 355.602C327.922 356.018 326.242 356.526 325.227 357.125C323.508 358.141 322.648 359.716 322.648 361.852C322.648 363.753 323.182 365.12 324.25 365.953ZM380.305 341.695C375.826 341.695 372.818 343.154 371.281 346.07C370.422 347.711 369.992 350.237 369.992 353.648V374H358.781V331.422H369.406V338.844C371.125 336.005 372.622 334.065 373.898 333.023C375.982 331.279 378.69 330.406 382.023 330.406C382.232 330.406 382.401 330.419 382.531 330.445C382.688 330.445 383.013 330.458 383.508 330.484V341.891C382.805 341.812 382.18 341.76 381.633 341.734C381.086 341.708 380.643 341.695 380.305 341.695ZM391.672 336.031C394.615 332.281 399.667 330.406 406.828 330.406C411.49 330.406 415.63 331.331 419.25 333.18C422.87 335.029 424.68 338.518 424.68 343.648V363.18C424.68 364.534 424.706 366.174 424.758 368.102C424.836 369.56 425.057 370.549 425.422 371.07C425.786 371.591 426.333 372.021 427.062 372.359V374H414.953C414.615 373.141 414.38 372.333 414.25 371.578C414.12 370.823 414.016 369.964 413.938 369C412.401 370.667 410.63 372.086 408.625 373.258C406.229 374.638 403.521 375.328 400.5 375.328C396.646 375.328 393.456 374.234 390.93 372.047C388.43 369.833 387.18 366.708 387.18 362.672C387.18 357.438 389.198 353.648 393.234 351.305C395.448 350.029 398.703 349.117 403 348.57L406.789 348.102C408.846 347.841 410.318 347.516 411.203 347.125C412.792 346.448 413.586 345.393 413.586 343.961C413.586 342.216 412.974 341.018 411.75 340.367C410.552 339.69 408.781 339.352 406.438 339.352C403.807 339.352 401.945 340.003 400.852 341.305C400.07 342.268 399.549 343.57 399.289 345.211H388.547C388.781 341.487 389.823 338.427 391.672 336.031ZM399.953 365.953C400.995 366.812 402.271 367.242 403.781 367.242C406.177 367.242 408.378 366.539 410.383 365.133C412.414 363.727 413.469 361.161 413.547 357.438V353.297C412.844 353.74 412.128 354.104 411.398 354.391C410.695 354.651 409.719 354.898 408.469 355.133L405.969 355.602C403.625 356.018 401.945 356.526 400.93 357.125C399.211 358.141 398.352 359.716 398.352 361.852C398.352 363.753 398.885 365.12 399.953 365.953ZM430.422 331.422H442.922L451.789 362.828L460.852 331.422H472.805L457.453 374H445.695L430.422 331.422ZM515.578 361.5C515.292 364.026 513.977 366.591 511.633 369.195C507.987 373.336 502.883 375.406 496.32 375.406C490.904 375.406 486.125 373.661 481.984 370.172C477.844 366.682 475.773 361.005 475.773 353.141C475.773 345.771 477.635 340.12 481.359 336.188C485.109 332.255 489.966 330.289 495.93 330.289C499.471 330.289 502.661 330.953 505.5 332.281C508.339 333.609 510.682 335.706 512.531 338.57C514.198 341.096 515.279 344.026 515.773 347.359C516.06 349.312 516.177 352.125 516.125 355.797H486.984C487.141 360.068 488.482 363.062 491.008 364.781C492.544 365.849 494.393 366.383 496.555 366.383C498.846 366.383 500.708 365.732 502.141 364.43C502.922 363.727 503.612 362.75 504.211 361.5H515.578ZM504.562 348.453C504.38 345.51 503.482 343.284 501.867 341.773C500.279 340.237 498.299 339.469 495.93 339.469C493.352 339.469 491.346 340.276 489.914 341.891C488.508 343.505 487.622 345.693 487.258 348.453H504.562ZM523.898 316.422H535.031V374H523.898V316.422ZM172.18 408.422H184.133V466H172.18V408.422ZM214.523 431.664C210.747 431.664 208.156 433.266 206.75 436.469C206.021 438.161 205.656 440.323 205.656 442.953V466H194.562V423.5H205.305V429.711C206.737 427.523 208.091 425.948 209.367 424.984C211.659 423.266 214.562 422.406 218.078 422.406C222.479 422.406 226.073 423.565 228.859 425.883C231.672 428.174 233.078 431.99 233.078 437.328V466H221.672V440.102C221.672 437.862 221.372 436.143 220.773 434.945C219.68 432.758 217.596 431.664 214.523 431.664ZM262.883 458.07V466.391L257.609 466.586C252.349 466.768 248.755 465.857 246.828 463.852C245.578 462.576 244.953 460.609 244.953 457.953V431.742H239.016V423.812H244.953V411.938H255.969V423.812H262.883V431.742H255.969V454.242C255.969 455.987 256.19 457.081 256.633 457.523C257.076 457.94 258.43 458.148 260.695 458.148C261.034 458.148 261.385 458.148 261.75 458.148C262.141 458.122 262.518 458.096 262.883 458.07ZM291.438 433.695C286.958 433.695 283.951 435.154 282.414 438.07C281.555 439.711 281.125 442.237 281.125 445.648V466H269.914V423.422H280.539V430.844C282.258 428.005 283.755 426.065 285.031 425.023C287.115 423.279 289.823 422.406 293.156 422.406C293.365 422.406 293.534 422.419 293.664 422.445C293.82 422.445 294.146 422.458 294.641 422.484V433.891C293.938 433.812 293.312 433.76 292.766 433.734C292.219 433.708 291.776 433.695 291.438 433.695ZM336.711 428.812C340.305 433.318 342.102 438.643 342.102 444.789C342.102 451.039 340.305 456.391 336.711 460.844C333.117 465.271 327.661 467.484 320.344 467.484C313.026 467.484 307.57 465.271 303.977 460.844C300.383 456.391 298.586 451.039 298.586 444.789C298.586 438.643 300.383 433.318 303.977 428.812C307.57 424.307 313.026 422.055 320.344 422.055C327.661 422.055 333.117 424.307 336.711 428.812ZM320.305 431.469C317.049 431.469 314.536 432.628 312.766 434.945C311.021 437.237 310.148 440.518 310.148 444.789C310.148 449.06 311.021 452.354 312.766 454.672C314.536 456.99 317.049 458.148 320.305 458.148C323.56 458.148 326.06 456.99 327.805 454.672C329.549 452.354 330.422 449.06 330.422 444.789C330.422 440.518 329.549 437.237 327.805 434.945C326.06 432.628 323.56 431.469 320.305 431.469ZM388.859 408.5V466H378.039V460.102C376.451 462.628 374.641 464.464 372.609 465.609C370.578 466.755 368.052 467.328 365.031 467.328C360.057 467.328 355.865 465.323 352.453 461.312C349.068 457.276 347.375 452.107 347.375 445.805C347.375 438.539 349.042 432.823 352.375 428.656C355.734 424.49 360.214 422.406 365.812 422.406C368.391 422.406 370.682 422.979 372.688 424.125C374.693 425.245 376.32 426.807 377.57 428.812V408.5H388.859ZM358.859 444.984C358.859 448.917 359.641 452.055 361.203 454.398C362.74 456.768 365.083 457.953 368.234 457.953C371.385 457.953 373.781 456.781 375.422 454.438C377.062 452.094 377.883 449.06 377.883 445.336C377.883 440.128 376.568 436.404 373.938 434.164C372.323 432.81 370.448 432.133 368.312 432.133C365.057 432.133 362.661 433.37 361.125 435.844C359.615 438.292 358.859 441.339 358.859 444.984ZM426.32 459.984C426.216 460.115 425.956 460.505 425.539 461.156C425.122 461.807 424.628 462.38 424.055 462.875C422.31 464.438 420.617 465.505 418.977 466.078C417.362 466.651 415.461 466.938 413.273 466.938C406.971 466.938 402.727 464.672 400.539 460.141C399.315 457.641 398.703 453.956 398.703 449.086V423.422H410.109V449.086C410.109 451.508 410.396 453.331 410.969 454.555C411.984 456.716 413.977 457.797 416.945 457.797C420.747 457.797 423.352 456.26 424.758 453.188C425.487 451.521 425.852 449.32 425.852 446.586V423.422H437.141V466H426.32V459.984ZM484.758 438.695H473.352C473.143 437.107 472.609 435.674 471.75 434.398C470.5 432.68 468.56 431.82 465.93 431.82C462.18 431.82 459.615 433.682 458.234 437.406C457.505 439.385 457.141 442.016 457.141 445.297C457.141 448.422 457.505 450.935 458.234 452.836C459.562 456.378 462.062 458.148 465.734 458.148C468.339 458.148 470.188 457.445 471.281 456.039C472.375 454.633 473.039 452.81 473.273 450.57H484.641C484.38 453.956 483.156 457.159 480.969 460.18C477.479 465.049 472.31 467.484 465.461 467.484C458.612 467.484 453.573 465.453 450.344 461.391C447.115 457.328 445.5 452.055 445.5 445.57C445.5 438.253 447.284 432.562 450.852 428.5C454.419 424.438 459.341 422.406 465.617 422.406C470.956 422.406 475.318 423.604 478.703 426C482.115 428.396 484.133 432.628 484.758 438.695ZM511.945 458.07V466.391L506.672 466.586C501.411 466.768 497.818 465.857 495.891 463.852C494.641 462.576 494.016 460.609 494.016 457.953V431.742H488.078V423.812H494.016V411.938H505.031V423.812H511.945V431.742H505.031V454.242C505.031 455.987 505.253 457.081 505.695 457.523C506.138 457.94 507.492 458.148 509.758 458.148C510.096 458.148 510.448 458.148 510.812 458.148C511.203 458.122 511.581 458.096 511.945 458.07ZM530.539 423.422V466H519.25V423.422H530.539ZM530.539 408.07V418.344H519.25V408.07H530.539ZM576.867 428.812C580.461 433.318 582.258 438.643 582.258 444.789C582.258 451.039 580.461 456.391 576.867 460.844C573.273 465.271 567.818 467.484 560.5 467.484C553.182 467.484 547.727 465.271 544.133 460.844C540.539 456.391 538.742 451.039 538.742 444.789C538.742 438.643 540.539 433.318 544.133 428.812C547.727 424.307 553.182 422.055 560.5 422.055C567.818 422.055 573.273 424.307 576.867 428.812ZM560.461 431.469C557.206 431.469 554.693 432.628 552.922 434.945C551.177 437.237 550.305 440.518 550.305 444.789C550.305 449.06 551.177 452.354 552.922 454.672C554.693 456.99 557.206 458.148 560.461 458.148C563.716 458.148 566.216 456.99 567.961 454.672C569.706 452.354 570.578 449.06 570.578 444.789C570.578 440.518 569.706 437.237 567.961 434.945C566.216 432.628 563.716 431.469 560.461 431.469ZM610.305 431.664C606.529 431.664 603.938 433.266 602.531 436.469C601.802 438.161 601.438 440.323 601.438 442.953V466H590.344V423.5H601.086V429.711C602.518 427.523 603.872 425.948 605.148 424.984C607.44 423.266 610.344 422.406 613.859 422.406C618.26 422.406 621.854 423.565 624.641 425.883C627.453 428.174 628.859 431.99 628.859 437.328V466H617.453V440.102C617.453 437.862 617.154 436.143 616.555 434.945C615.461 432.758 613.378 431.664 610.305 431.664Z" fill="#E5F3FF"/>
<g clip-path="url(#clip0_5189_11495)">
<path d="M475 141.513C474.006 140.306 472.719 138.681 471.45 137.038L471.063 136.506V136.444C469.5 134.319 468.375 134.631 467.125 134.944C465.875 135.256 437.313 140.381 435.563 140.569C433.813 140.881 434.375 141.819 435.125 142.819L460.125 177.206L475 173.65V141.513ZM325.125 209.663L352.187 203.163C354.375 202.663 353.813 202.412 352.75 200.475L325.125 152.763V209.663ZM345 267H389.938C384.063 257.431 368.062 228.544 359.75 213.475H359.688V213.412L325 222.481V247.056C325.038 258.075 333.975 267 345 267Z" fill="#E5F3FF"/>
<path d="M475 196.844V183.15L466.562 185.469L467.188 186.344L475 196.844Z" fill="#E5F3FF"/>
<path d="M451 179.4L422.688 139.256C420.313 135.944 422.688 134.444 426.563 133.819C430.313 133.131 463.062 127.631 465.937 127.256C468.25 126.881 470.188 126.131 473.438 129.131C470.438 122 463.375 117 455.125 117H345C344.994 117 344.981 117 344.969 117C335.294 117 327.237 123.913 325.438 133.194L365.375 199.906L451 179.4ZM475 211.538L459 189.656C458 188.094 457.437 187.781 455 188.594L371.5 210.35C371.5 210.35 397.125 254.744 399.063 257.556C401.063 260.431 402.25 260.181 403.812 259.556C404.937 259.056 452.563 242.925 475 235.356V211.538ZM474.938 248.619L423.75 266.937H455.125C465.625 266.937 474.188 258.806 474.938 248.619Z" fill="#E5F3FF"/>
</g>
<path d="M741.436 592.713C741.436 593.599 742.139 594.276 742.999 594.276C743.884 594.276 744.588 593.599 744.588 592.713V576.563C744.588 575.703 743.884 575 742.999 575C742.113 575 741.436 575.703 741.436 576.563V592.713Z" fill="white"/>
<path d="M748.655 576.849C748.655 577.787 749.436 578.412 750.452 578.412C751.468 578.412 752.249 577.787 752.249 576.849V576.693C752.249 575.755 751.468 575.156 750.452 575.156C749.436 575.156 748.655 575.755 748.655 576.693V576.849ZM748.889 592.713C748.889 593.599 749.592 594.276 750.452 594.276C751.338 594.276 752.041 593.599 752.041 592.713V581.825C752.041 580.939 751.338 580.236 750.452 580.236C749.566 580.236 748.889 580.939 748.889 581.825V592.713Z" fill="white"/>
<path d="M756.16 592.713C756.16 593.573 756.864 594.276 757.723 594.276C758.609 594.276 759.312 593.573 759.312 592.713V592.01C760.276 593.287 761.709 594.433 764.001 594.433C767.257 594.433 770.383 591.854 770.383 587.295V587.243C770.383 582.658 767.231 580.106 764.001 580.106C761.761 580.106 760.328 581.252 759.312 582.685V576.563C759.312 575.677 758.609 575 757.723 575C756.838 575 756.16 575.677 756.16 576.563V592.713ZM763.246 591.698C761.11 591.698 759.234 589.926 759.234 587.295V587.243C759.234 584.612 761.11 582.841 763.246 582.841C765.382 582.841 767.179 584.586 767.179 587.243V587.295C767.179 590.004 765.408 591.698 763.246 591.698Z" fill="white"/>
<path d="M773.819 592.713C773.819 593.599 774.522 594.276 775.382 594.276C776.268 594.276 776.971 593.599 776.971 592.713V576.563C776.971 575.703 776.268 575 775.382 575C774.496 575 773.819 575.703 773.819 576.563V592.713Z" fill="white"/>
<path d="M787.629 594.459C791.875 594.459 795.001 591.203 795.001 587.295V587.243C795.001 583.31 791.901 580.106 787.681 580.106C783.461 580.106 780.335 583.362 780.335 587.295V587.347C780.335 591.255 783.435 594.459 787.629 594.459ZM787.681 591.698C785.232 591.698 783.487 589.692 783.487 587.295V587.243C783.487 584.847 785.102 582.867 787.629 582.867C790.103 582.867 791.849 584.873 791.849 587.295V587.347C791.849 589.718 790.234 591.698 787.681 591.698Z" fill="white"/>
<path d="M736.96 590.09C735.74 590.65 734.453 591.046 733.208 591.294C728.074 592.314 725.36 589.099 729.634 586.781C730.099 586.529 730.632 586.291 731.228 586.075L732.011 585.826C732.241 585.763 732.463 585.661 732.534 585.515C732.905 584.723 729.731 584.467 727.622 585.589C728.458 585.431 729.186 585.408 729.668 585.609C724.878 586.845 723.788 590.757 726.335 592.642C727.649 593.615 729.127 593.873 731.832 593.682C733.637 593.555 735.48 592.837 736.96 591.969V590.09Z" fill="url(#paint1_linear_5189_11495)"/>
<path d="M734.542 592.784C734.542 593.607 735.171 594.165 736.03 594.165C736.89 594.165 737.478 593.644 737.478 592.784V586.011C737.478 584.214 737.009 582.755 735.993 581.765C735.029 580.775 733.492 580.228 731.434 580.228C729.637 580.228 728.308 580.541 727.006 581.036C726.537 581.218 726.146 581.713 726.146 582.286C726.146 583.016 726.745 583.589 727.475 583.589C727.631 583.589 727.787 583.563 727.97 583.511C728.829 583.172 729.819 582.964 731.018 582.964C733.232 582.964 734.43 584.006 734.43 585.959V585.968L734.542 592.784Z" fill="url(#paint2_linear_5189_11495)"/>
<path d="M733.611 578.379C733.611 578.591 733.273 578.721 732.805 578.721C732.077 578.721 731.583 578.64 730.984 578.282L729.216 577.24C728.956 577.093 728.774 576.93 728.774 576.751C728.774 576.442 729.814 576.116 730.646 576.116C731.192 576.116 731.609 576.295 731.895 576.589L733.377 578.021C733.481 578.119 733.611 578.265 733.611 578.379Z" fill="url(#paint3_linear_5189_11495)"/>
<defs>
<linearGradient id="paint0_linear_5189_11495" x1="800" y1="-1.86968e-05" x2="1.22566" y2="601.627" gradientUnits="userSpaceOnUse">
<stop stop-color="#0087B1"/>
<stop offset="1" stop-color="#001B23"/>
</linearGradient>
<linearGradient id="paint1_linear_5189_11495" x1="719.394" y1="601.3" x2="738.186" y2="600.76" gradientUnits="userSpaceOnUse">
<stop stop-color="white"/>
<stop offset="1" stop-color="#009AF9"/>
</linearGradient>
<linearGradient id="paint2_linear_5189_11495" x1="719.394" y1="601.3" x2="738.186" y2="600.76" gradientUnits="userSpaceOnUse">
<stop stop-color="white"/>
<stop offset="1" stop-color="#009AF9"/>
</linearGradient>
<linearGradient id="paint3_linear_5189_11495" x1="719.394" y1="601.3" x2="738.186" y2="600.76" gradientUnits="userSpaceOnUse">
<stop stop-color="white"/>
<stop offset="1" stop-color="#009AF9"/>
</linearGradient>
<clipPath id="clip0_5189_11495">
<rect width="150" height="150" fill="white" transform="translate(325 117)"/>
</clipPath>
</defs>
</svg>
