<svg width="800" height="600" viewBox="0 0 800 600" fill="none" xmlns="http://www.w3.org/2000/svg">
<rect width="800" height="600" fill="url(#paint0_linear_5189_11508)"/>
<path d="M156.914 351.422H144.492V374H132.734V316.422H160.977C165.013 316.5 168.112 316.995 170.273 317.906C172.461 318.818 174.31 320.159 175.82 321.93C177.07 323.388 178.06 325.003 178.789 326.773C179.518 328.544 179.883 330.562 179.883 332.828C179.883 335.562 179.193 338.258 177.812 340.914C176.432 343.544 174.154 345.406 170.977 346.5C173.633 347.568 175.508 349.091 176.602 351.07C177.721 353.023 178.281 356.018 178.281 360.055V363.922C178.281 366.552 178.385 368.336 178.594 369.273C178.906 370.758 179.635 371.852 180.781 372.555V374H167.539C167.174 372.724 166.914 371.695 166.758 370.914C166.445 369.299 166.276 367.646 166.25 365.953L166.172 360.602C166.12 356.93 165.443 354.482 164.141 353.258C162.865 352.034 160.456 351.422 156.914 351.422ZM164.219 340.953C166.615 339.859 167.812 337.698 167.812 334.469C167.812 330.979 166.654 328.635 164.336 327.438C163.034 326.76 161.081 326.422 158.477 326.422H144.492V341.891H158.125C160.833 341.891 162.865 341.578 164.219 340.953ZM216.68 367.984C216.576 368.115 216.315 368.505 215.898 369.156C215.482 369.807 214.987 370.38 214.414 370.875C212.669 372.438 210.977 373.505 209.336 374.078C207.721 374.651 205.82 374.938 203.633 374.938C197.331 374.938 193.086 372.672 190.898 368.141C189.674 365.641 189.062 361.956 189.062 357.086V331.422H200.469V357.086C200.469 359.508 200.755 361.331 201.328 362.555C202.344 364.716 204.336 365.797 207.305 365.797C211.107 365.797 213.711 364.26 215.117 361.188C215.846 359.521 216.211 357.32 216.211 354.586V331.422H227.5V374H216.68V367.984ZM261.406 375.133C257.891 375.133 255.065 374.43 252.93 373.023C251.654 372.19 250.273 370.732 248.789 368.648V374H237.891V316.5H248.984V336.969C250.391 334.99 251.94 333.479 253.633 332.438C255.638 331.135 258.19 330.484 261.289 330.484C266.888 330.484 271.263 332.503 274.414 336.539C277.591 340.576 279.18 345.784 279.18 352.164C279.18 358.779 277.617 364.26 274.492 368.609C271.367 372.958 267.005 375.133 261.406 375.133ZM267.5 353.336C267.5 350.315 267.109 347.815 266.328 345.836C264.844 342.086 262.109 340.211 258.125 340.211C254.089 340.211 251.315 342.047 249.805 345.719C249.023 347.672 248.633 350.198 248.633 353.297C248.633 356.943 249.44 359.964 251.055 362.359C252.669 364.755 255.13 365.953 258.438 365.953C261.302 365.953 263.529 364.794 265.117 362.477C266.706 360.159 267.5 357.112 267.5 353.336ZM304.492 362.828L313.281 331.422H325.117L310.508 373.297C307.695 381.37 305.469 386.37 303.828 388.297C302.188 390.25 298.906 391.227 293.984 391.227C292.995 391.227 292.201 391.214 291.602 391.188C291.003 391.188 290.104 391.148 288.906 391.07V382.164L290.312 382.242C291.406 382.294 292.448 382.255 293.438 382.125C294.427 381.995 295.26 381.695 295.938 381.227C296.589 380.784 297.188 379.859 297.734 378.453C298.307 377.047 298.542 376.188 298.438 375.875L282.812 331.422H295.195L304.492 362.828ZM380.352 375.602C372.122 375.602 365.833 373.362 361.484 368.883C355.651 363.388 352.734 355.471 352.734 345.133C352.734 334.586 355.651 326.669 361.484 321.383C365.833 316.904 372.122 314.664 380.352 314.664C388.581 314.664 394.87 316.904 399.219 321.383C405.026 326.669 407.93 334.586 407.93 345.133C407.93 355.471 405.026 363.388 399.219 368.883C394.87 373.362 388.581 375.602 380.352 375.602ZM391.719 360.133C394.505 356.617 395.898 351.617 395.898 345.133C395.898 338.674 394.492 333.688 391.68 330.172C388.893 326.63 385.117 324.859 380.352 324.859C375.586 324.859 371.784 326.617 368.945 330.133C366.107 333.648 364.688 338.648 364.688 345.133C364.688 351.617 366.107 356.617 368.945 360.133C371.784 363.648 375.586 365.406 380.352 365.406C385.117 365.406 388.906 363.648 391.719 360.133ZM436.289 339.664C432.513 339.664 429.922 341.266 428.516 344.469C427.786 346.161 427.422 348.323 427.422 350.953V374H416.328V331.5H427.07V337.711C428.503 335.523 429.857 333.948 431.133 332.984C433.424 331.266 436.328 330.406 439.844 330.406C444.245 330.406 447.839 331.565 450.625 333.883C453.438 336.174 454.844 339.99 454.844 345.328V374H443.438V348.102C443.438 345.862 443.138 344.143 442.539 342.945C441.445 340.758 439.362 339.664 436.289 339.664ZM512.773 351.422H500.352V374H488.594V316.422H516.836C520.872 316.5 523.971 316.995 526.133 317.906C528.32 318.818 530.169 320.159 531.68 321.93C532.93 323.388 533.919 325.003 534.648 326.773C535.378 328.544 535.742 330.562 535.742 332.828C535.742 335.562 535.052 338.258 533.672 340.914C532.292 343.544 530.013 345.406 526.836 346.5C529.492 347.568 531.367 349.091 532.461 351.07C533.581 353.023 534.141 356.018 534.141 360.055V363.922C534.141 366.552 534.245 368.336 534.453 369.273C534.766 370.758 535.495 371.852 536.641 372.555V374H523.398C523.034 372.724 522.773 371.695 522.617 370.914C522.305 369.299 522.135 367.646 522.109 365.953L522.031 360.602C521.979 356.93 521.302 354.482 520 353.258C518.724 352.034 516.315 351.422 512.773 351.422ZM520.078 340.953C522.474 339.859 523.672 337.698 523.672 334.469C523.672 330.979 522.513 328.635 520.195 327.438C518.893 326.76 516.94 326.422 514.336 326.422H500.352V341.891H513.984C516.693 341.891 518.724 341.578 520.078 340.953ZM546.836 336.031C549.779 332.281 554.831 330.406 561.992 330.406C566.654 330.406 570.794 331.331 574.414 333.18C578.034 335.029 579.844 338.518 579.844 343.648V363.18C579.844 364.534 579.87 366.174 579.922 368.102C580 369.56 580.221 370.549 580.586 371.07C580.951 371.591 581.497 372.021 582.227 372.359V374H570.117C569.779 373.141 569.544 372.333 569.414 371.578C569.284 370.823 569.18 369.964 569.102 369C567.565 370.667 565.794 372.086 563.789 373.258C561.393 374.638 558.685 375.328 555.664 375.328C551.81 375.328 548.62 374.234 546.094 372.047C543.594 369.833 542.344 366.708 542.344 362.672C542.344 357.438 544.362 353.648 548.398 351.305C550.612 350.029 553.867 349.117 558.164 348.57L561.953 348.102C564.01 347.841 565.482 347.516 566.367 347.125C567.956 346.448 568.75 345.393 568.75 343.961C568.75 342.216 568.138 341.018 566.914 340.367C565.716 339.69 563.945 339.352 561.602 339.352C558.971 339.352 557.109 340.003 556.016 341.305C555.234 342.268 554.714 343.57 554.453 345.211H543.711C543.945 341.487 544.987 338.427 546.836 336.031ZM555.117 365.953C556.159 366.812 557.435 367.242 558.945 367.242C561.341 367.242 563.542 366.539 565.547 365.133C567.578 363.727 568.633 361.161 568.711 357.438V353.297C568.008 353.74 567.292 354.104 566.562 354.391C565.859 354.651 564.883 354.898 563.633 355.133L561.133 355.602C558.789 356.018 557.109 356.526 556.094 357.125C554.375 358.141 553.516 359.716 553.516 361.852C553.516 363.753 554.049 365.12 555.117 365.953ZM601.211 331.422V374H589.922V331.422H601.211ZM601.211 316.07V326.344H589.922V316.07H601.211ZM612.266 316.422H623.398V374H612.266V316.422ZM663.633 333.375C666.966 335.51 668.88 339.182 669.375 344.391H658.242C658.086 342.958 657.682 341.826 657.031 340.992C655.807 339.482 653.724 338.727 650.781 338.727C648.359 338.727 646.628 339.104 645.586 339.859C644.57 340.615 644.062 341.5 644.062 342.516C644.062 343.792 644.609 344.716 645.703 345.289C646.797 345.888 650.664 346.917 657.305 348.375C661.732 349.417 665.052 350.992 667.266 353.102C669.453 355.237 670.547 357.906 670.547 361.109C670.547 365.328 668.971 368.779 665.82 371.461C662.695 374.117 657.852 375.445 651.289 375.445C644.596 375.445 639.648 374.039 636.445 371.227C633.268 368.388 631.68 364.781 631.68 360.406H642.969C643.203 362.385 643.711 363.792 644.492 364.625C645.872 366.109 648.424 366.852 652.148 366.852C654.336 366.852 656.068 366.526 657.344 365.875C658.646 365.224 659.297 364.247 659.297 362.945C659.297 361.695 658.776 360.745 657.734 360.094C656.693 359.443 652.826 358.323 646.133 356.734C641.315 355.536 637.917 354.039 635.938 352.242C633.958 350.471 632.969 347.919 632.969 344.586C632.969 340.654 634.505 337.281 637.578 334.469C640.677 331.63 645.026 330.211 650.625 330.211C655.938 330.211 660.273 331.266 663.633 333.375ZM171.68 408.422H183.633V466H171.68V408.422ZM214.023 431.664C210.247 431.664 207.656 433.266 206.25 436.469C205.521 438.161 205.156 440.323 205.156 442.953V466H194.062V423.5H204.805V429.711C206.237 427.523 207.591 425.948 208.867 424.984C211.159 423.266 214.062 422.406 217.578 422.406C221.979 422.406 225.573 423.565 228.359 425.883C231.172 428.174 232.578 431.99 232.578 437.328V466H221.172V440.102C221.172 437.862 220.872 436.143 220.273 434.945C219.18 432.758 217.096 431.664 214.023 431.664ZM262.383 458.07V466.391L257.109 466.586C251.849 466.768 248.255 465.857 246.328 463.852C245.078 462.576 244.453 460.609 244.453 457.953V431.742H238.516V423.812H244.453V411.938H255.469V423.812H262.383V431.742H255.469V454.242C255.469 455.987 255.69 457.081 256.133 457.523C256.576 457.94 257.93 458.148 260.195 458.148C260.534 458.148 260.885 458.148 261.25 458.148C261.641 458.122 262.018 458.096 262.383 458.07ZM290.938 433.695C286.458 433.695 283.451 435.154 281.914 438.07C281.055 439.711 280.625 442.237 280.625 445.648V466H269.414V423.422H280.039V430.844C281.758 428.005 283.255 426.065 284.531 425.023C286.615 423.279 289.323 422.406 292.656 422.406C292.865 422.406 293.034 422.419 293.164 422.445C293.32 422.445 293.646 422.458 294.141 422.484V433.891C293.438 433.812 292.812 433.76 292.266 433.734C291.719 433.708 291.276 433.695 290.938 433.695ZM336.211 428.812C339.805 433.318 341.602 438.643 341.602 444.789C341.602 451.039 339.805 456.391 336.211 460.844C332.617 465.271 327.161 467.484 319.844 467.484C312.526 467.484 307.07 465.271 303.477 460.844C299.883 456.391 298.086 451.039 298.086 444.789C298.086 438.643 299.883 433.318 303.477 428.812C307.07 424.307 312.526 422.055 319.844 422.055C327.161 422.055 332.617 424.307 336.211 428.812ZM319.805 431.469C316.549 431.469 314.036 432.628 312.266 434.945C310.521 437.237 309.648 440.518 309.648 444.789C309.648 449.06 310.521 452.354 312.266 454.672C314.036 456.99 316.549 458.148 319.805 458.148C323.06 458.148 325.56 456.99 327.305 454.672C329.049 452.354 329.922 449.06 329.922 444.789C329.922 440.518 329.049 437.237 327.305 434.945C325.56 432.628 323.06 431.469 319.805 431.469ZM388.359 408.5V466H377.539V460.102C375.951 462.628 374.141 464.464 372.109 465.609C370.078 466.755 367.552 467.328 364.531 467.328C359.557 467.328 355.365 465.323 351.953 461.312C348.568 457.276 346.875 452.107 346.875 445.805C346.875 438.539 348.542 432.823 351.875 428.656C355.234 424.49 359.714 422.406 365.312 422.406C367.891 422.406 370.182 422.979 372.188 424.125C374.193 425.245 375.82 426.807 377.07 428.812V408.5H388.359ZM358.359 444.984C358.359 448.917 359.141 452.055 360.703 454.398C362.24 456.768 364.583 457.953 367.734 457.953C370.885 457.953 373.281 456.781 374.922 454.438C376.562 452.094 377.383 449.06 377.383 445.336C377.383 440.128 376.068 436.404 373.438 434.164C371.823 432.81 369.948 432.133 367.812 432.133C364.557 432.133 362.161 433.37 360.625 435.844C359.115 438.292 358.359 441.339 358.359 444.984ZM425.82 459.984C425.716 460.115 425.456 460.505 425.039 461.156C424.622 461.807 424.128 462.38 423.555 462.875C421.81 464.438 420.117 465.505 418.477 466.078C416.862 466.651 414.961 466.938 412.773 466.938C406.471 466.938 402.227 464.672 400.039 460.141C398.815 457.641 398.203 453.956 398.203 449.086V423.422H409.609V449.086C409.609 451.508 409.896 453.331 410.469 454.555C411.484 456.716 413.477 457.797 416.445 457.797C420.247 457.797 422.852 456.26 424.258 453.188C424.987 451.521 425.352 449.32 425.352 446.586V423.422H436.641V466H425.82V459.984ZM484.258 438.695H472.852C472.643 437.107 472.109 435.674 471.25 434.398C470 432.68 468.06 431.82 465.43 431.82C461.68 431.82 459.115 433.682 457.734 437.406C457.005 439.385 456.641 442.016 456.641 445.297C456.641 448.422 457.005 450.935 457.734 452.836C459.062 456.378 461.562 458.148 465.234 458.148C467.839 458.148 469.688 457.445 470.781 456.039C471.875 454.633 472.539 452.81 472.773 450.57H484.141C483.88 453.956 482.656 457.159 480.469 460.18C476.979 465.049 471.81 467.484 464.961 467.484C458.112 467.484 453.073 465.453 449.844 461.391C446.615 457.328 445 452.055 445 445.57C445 438.253 446.784 432.562 450.352 428.5C453.919 424.438 458.841 422.406 465.117 422.406C470.456 422.406 474.818 423.604 478.203 426C481.615 428.396 483.633 432.628 484.258 438.695ZM511.445 458.07V466.391L506.172 466.586C500.911 466.768 497.318 465.857 495.391 463.852C494.141 462.576 493.516 460.609 493.516 457.953V431.742H487.578V423.812H493.516V411.938H504.531V423.812H511.445V431.742H504.531V454.242C504.531 455.987 504.753 457.081 505.195 457.523C505.638 457.94 506.992 458.148 509.258 458.148C509.596 458.148 509.948 458.148 510.312 458.148C510.703 458.122 511.081 458.096 511.445 458.07ZM530.039 423.422V466H518.75V423.422H530.039ZM530.039 408.07V418.344H518.75V408.07H530.039ZM576.367 428.812C579.961 433.318 581.758 438.643 581.758 444.789C581.758 451.039 579.961 456.391 576.367 460.844C572.773 465.271 567.318 467.484 560 467.484C552.682 467.484 547.227 465.271 543.633 460.844C540.039 456.391 538.242 451.039 538.242 444.789C538.242 438.643 540.039 433.318 543.633 428.812C547.227 424.307 552.682 422.055 560 422.055C567.318 422.055 572.773 424.307 576.367 428.812ZM559.961 431.469C556.706 431.469 554.193 432.628 552.422 434.945C550.677 437.237 549.805 440.518 549.805 444.789C549.805 449.06 550.677 452.354 552.422 454.672C554.193 456.99 556.706 458.148 559.961 458.148C563.216 458.148 565.716 456.99 567.461 454.672C569.206 452.354 570.078 449.06 570.078 444.789C570.078 440.518 569.206 437.237 567.461 434.945C565.716 432.628 563.216 431.469 559.961 431.469ZM609.805 431.664C606.029 431.664 603.438 433.266 602.031 436.469C601.302 438.161 600.938 440.323 600.938 442.953V466H589.844V423.5H600.586V429.711C602.018 427.523 603.372 425.948 604.648 424.984C606.94 423.266 609.844 422.406 613.359 422.406C617.76 422.406 621.354 423.565 624.141 425.883C626.953 428.174 628.359 431.99 628.359 437.328V466H616.953V440.102C616.953 437.862 616.654 436.143 616.055 434.945C614.961 432.758 612.878 431.664 609.805 431.664Z" fill="#BF3133"/>
<g clip-path="url(#clip0_5189_11508)">
<path d="M320.85 160.662C319.863 163.65 319.188 166.65 318.575 169.55L324.713 174.713C325.013 171.563 325.55 168.412 326.3 165.262L320.85 160.662ZM317.437 190.087C317.587 194.375 317.962 197.85 318.35 200.275L327.438 203.75C326.75 200.6 326.075 197.037 325.625 193.237L317.437 190.087ZM285.388 131.163L280.013 126.15C278.038 128.175 276.15 130.187 274.412 132.212L280.25 137.538C281.838 135.35 283.588 133.175 285.4 131.15L285.388 131.163ZM337.687 143.625L334.275 138.125C332.538 139.825 330.938 141.675 329.575 143.537L333.213 149.35C334.5 147.325 336.012 145.462 337.687 143.625ZM345.562 98.675L344.05 93.75C341.7 93.75 339.275 93.9125 336.775 94.2375L338.213 99C340.413 98.7625 342.613 98.675 344.8 98.675H345.562ZM310.612 101.587C308.712 102.637 306.75 103.775 304.7 105.05L308.188 110.713C310.163 109.425 312.05 108.212 314.025 107.162L310.612 101.587ZM262.5 167.288L253.788 163.888C252.35 167.363 250.763 171.413 250 173.588L258.713 176.975C259.7 174.225 261.287 170.275 262.5 167.288Z" fill="#C70B00"/>
<path d="M380.338 101.338C379.651 100.938 377.763 99.9625 372.988 98.5125L372.676 103.85C375.176 104.738 377.601 105.713 380.026 106.75V106.763L380.338 101.338Z" fill="#C70B00"/>
<path d="M380.337 124.938C377.762 124.375 375.262 124.05 372.837 123.888V123.9L372.538 128.988C375.038 129.063 377.537 129.388 380.037 129.95L380.337 124.938ZM356.763 131.175L355.1 125.85C352.525 126.65 350.325 127.55 348.437 128.438L350.175 134.013C352.375 132.875 354.575 131.9 356.763 131.175ZM346.625 206.25H361.188V192.35L373.75 206.25H395.275L378.362 188.075V188.063C378.362 188.063 391.638 186.863 391.638 168.6C391.638 150.325 375.562 148.625 375.562 148.625H346.625V206.25ZM361.162 163.088H372.837C372.837 163.088 376.1 164.388 376.1 169.638C376.1 174.9 372.762 176.263 372.762 176.263H361.162V163.088Z" fill="#C70B00"/>
<path d="M470.062 149.025V206.238H506.05V191.463H485.363V149.025H470.062Z" fill="#C70B00"/>
<path d="M463.762 206.238V149.025H448.387V206.238H463.762Z" fill="#C70B00"/>
<path d="M427.537 149.025H412.762C402.237 149.025 398.662 159.2 398.662 164.063V206.25H413.437V196.15H427.3V206.25H441.612V164.063C441.637 151.788 431.175 149.025 427.537 149.025ZM413.375 179.813V165.825C413.375 165.825 413.375 162.675 418 162.675H423.075C427.162 162.675 427.237 165.825 427.237 165.825V179.813H413.375ZM548.037 163.738V149.025H524.55C518.487 149.025 510.387 154.363 510.387 164.313V169.4C510.387 179.338 518.412 184.425 524.55 184.425C528.5 184.45 530.362 184.45 531.137 184.463C529.95 184.45 527.712 184.425 536.212 184.425V191.55L511.137 191.625V206.25H535.912C540.987 206.25 549.712 202.288 550.012 191.213V185.563C550.012 176.1 542.737 170.525 535.912 170.525H523.562V163.738H548.037V163.738Z" fill="#C70B00"/>
<path d="M390.25 177.638H346.625V206.25H361.188V192.35L373.75 206.25H395.275L378.362 188.075V188.063C378.375 188.063 386.85 187.288 390.25 177.638Z" fill="#AD0A00"/>
<path d="M485.363 177.638H470.062V206.238H506.05V191.463H485.363V177.638Z" fill="#AD0A00"/>
<path d="M463.762 177.638H448.387V206.238H463.762V177.638Z" fill="#AD0A00"/>
<path d="M441.638 177.638H427.251V179.813H413.376V177.638H398.676V206.25H413.451V196.15H427.326V206.25H441.638V177.638Z" fill="#AD0A00"/>
<path d="M530.713 184.463C530.85 184.463 531 184.463 531.137 184.463C531.012 184.463 530.875 184.463 530.713 184.463ZM547.963 177.638H512.638C515.463 182.138 520.425 184.425 524.537 184.425C527.912 184.45 529.75 184.45 530.7 184.463C529.562 184.45 528.65 184.425 536.2 184.425V191.55L511.125 191.625V206.25H535.9C540.975 206.25 549.7 202.288 550 191.213V185.563C550 182.488 549.238 179.825 547.963 177.638Z" fill="#AD0A00"/>
<path d="M255.85 202.288C255.437 204.775 255.287 206.225 255.287 206.225L255.3 206.238H315.162C315.162 206.238 303.725 150.563 341.6 128C349.875 123.713 376.162 107.713 419.2 141.663C420.575 140.45 421.862 139.463 421.862 139.463C421.862 139.463 382.45 97.525 338.575 102.2C316.437 104.3 289.325 125.725 273.412 154.013C261.312 175.5 257.162 194.413 255.85 202.288Z" fill="#C70B00"/>
<path d="M330.287 103.812C310 109.638 287.387 129.175 273.4 154.013C261.312 175.5 257.15 194.4 255.85 202.275C255.437 204.762 255.287 206.213 255.287 206.213L255.3 206.225H315.162C315.162 206.225 306.225 162.762 330.287 137.075V103.812Z" fill="#AD0A00"/>
</g>
<path d="M741.436 592.713C741.436 593.599 742.139 594.276 742.999 594.276C743.884 594.276 744.588 593.599 744.588 592.713V576.563C744.588 575.703 743.884 575 742.999 575C742.113 575 741.436 575.703 741.436 576.563V592.713Z" fill="#030060"/>
<path d="M748.655 576.849C748.655 577.787 749.436 578.412 750.452 578.412C751.468 578.412 752.249 577.787 752.249 576.849V576.693C752.249 575.755 751.468 575.156 750.452 575.156C749.436 575.156 748.655 575.755 748.655 576.693V576.849ZM748.889 592.713C748.889 593.599 749.592 594.276 750.452 594.276C751.338 594.276 752.041 593.599 752.041 592.713V581.825C752.041 580.939 751.338 580.236 750.452 580.236C749.566 580.236 748.889 580.939 748.889 581.825V592.713Z" fill="#030060"/>
<path d="M756.16 592.713C756.16 593.573 756.864 594.276 757.723 594.276C758.609 594.276 759.312 593.573 759.312 592.713V592.01C760.276 593.287 761.709 594.433 764.001 594.433C767.257 594.433 770.383 591.854 770.383 587.295V587.243C770.383 582.658 767.231 580.106 764.001 580.106C761.761 580.106 760.328 581.252 759.312 582.685V576.563C759.312 575.677 758.609 575 757.723 575C756.838 575 756.16 575.677 756.16 576.563V592.713ZM763.246 591.698C761.11 591.698 759.234 589.926 759.234 587.295V587.243C759.234 584.612 761.11 582.841 763.246 582.841C765.382 582.841 767.179 584.586 767.179 587.243V587.295C767.179 590.004 765.408 591.698 763.246 591.698Z" fill="#030060"/>
<path d="M773.819 592.713C773.819 593.599 774.522 594.276 775.382 594.276C776.268 594.276 776.971 593.599 776.971 592.713V576.563C776.971 575.703 776.268 575 775.382 575C774.496 575 773.819 575.703 773.819 576.563V592.713Z" fill="#030060"/>
<path d="M787.629 594.459C791.875 594.459 795.001 591.203 795.001 587.295V587.243C795.001 583.31 791.901 580.106 787.681 580.106C783.461 580.106 780.335 583.362 780.335 587.295V587.347C780.335 591.255 783.435 594.459 787.629 594.459ZM787.681 591.698C785.232 591.698 783.487 589.692 783.487 587.295V587.243C783.487 584.847 785.102 582.867 787.629 582.867C790.103 582.867 791.849 584.873 791.849 587.295V587.347C791.849 589.718 790.234 591.698 787.681 591.698Z" fill="#030060"/>
<path d="M736.96 590.09C735.74 590.65 734.453 591.046 733.208 591.294C728.074 592.314 725.36 589.099 729.634 586.781C730.099 586.529 730.632 586.291 731.228 586.075L732.011 585.826C732.241 585.763 732.463 585.661 732.534 585.515C732.905 584.723 729.731 584.467 727.622 585.589C728.458 585.431 729.186 585.408 729.668 585.609C724.878 586.845 723.788 590.757 726.335 592.642C727.649 593.615 729.127 593.873 731.832 593.682C733.637 593.555 735.48 592.837 736.96 591.969V590.09Z" fill="url(#paint1_linear_5189_11508)"/>
<path d="M734.542 592.784C734.542 593.607 735.171 594.165 736.03 594.165C736.89 594.165 737.478 593.644 737.478 592.784V586.011C737.478 584.214 737.009 582.755 735.993 581.765C735.029 580.776 733.492 580.228 731.434 580.228C729.637 580.228 728.308 580.541 727.006 581.036C726.537 581.218 726.146 581.713 726.146 582.286C726.146 583.016 726.745 583.589 727.475 583.589C727.631 583.589 727.787 583.563 727.97 583.511C728.829 583.172 729.819 582.964 731.018 582.964C733.232 582.964 734.43 584.006 734.43 585.959V585.968L734.542 592.784Z" fill="url(#paint2_linear_5189_11508)"/>
<path d="M733.611 578.379C733.611 578.591 733.273 578.721 732.805 578.721C732.077 578.721 731.583 578.64 730.984 578.282L729.216 577.24C728.956 577.093 728.774 576.93 728.774 576.751C728.774 576.442 729.814 576.116 730.646 576.116C731.192 576.116 731.609 576.295 731.895 576.589L733.377 578.021C733.481 578.119 733.611 578.265 733.611 578.379Z" fill="url(#paint3_linear_5189_11508)"/>
<defs>
<linearGradient id="paint0_linear_5189_11508" x1="800" y1="-30.5" x2="2.05509e-05" y2="600" gradientUnits="userSpaceOnUse">
<stop stop-color="#FFC7DB"/>
<stop stop-color="white"/>
<stop offset="1" stop-color="#FFCCEB"/>
</linearGradient>
<linearGradient id="paint1_linear_5189_11508" x1="725" y1="576.116" x2="725" y2="594.165" gradientUnits="userSpaceOnUse">
<stop stop-color="#008EE3"/>
<stop offset="1" stop-color="#0055C2"/>
</linearGradient>
<linearGradient id="paint2_linear_5189_11508" x1="725" y1="576.116" x2="725" y2="594.165" gradientUnits="userSpaceOnUse">
<stop stop-color="#008EE3"/>
<stop offset="1" stop-color="#0055C2"/>
</linearGradient>
<linearGradient id="paint3_linear_5189_11508" x1="725" y1="576.116" x2="725" y2="594.165" gradientUnits="userSpaceOnUse">
<stop stop-color="#008EE3"/>
<stop offset="1" stop-color="#0055C2"/>
</linearGradient>
<clipPath id="clip0_5189_11508">
<rect width="300" height="300" fill="white" transform="translate(250)"/>
</clipPath>
</defs>
</svg>
