<svg width="800" height="600" viewBox="0 0 800 600" fill="none" xmlns="http://www.w3.org/2000/svg">
<rect width="800" height="600" fill="#FFF8E1"/>
<path d="M134.2 416L156.84 358.4H163L185.08 416H179.48L172.84 397.92H146.6L139.8 416H134.2ZM148.44 393.28H171L159.72 363.04L148.44 393.28ZM235.071 408.32H235.231L247.791 358.4H253.391L238.271 416H232.271L218.911 365.12H218.751L205.391 416H199.391L184.511 358.4H189.951L202.351 408.32H202.511L215.871 358.4H221.951L235.071 408.32ZM263.204 398.8C263.418 401.36 263.978 403.547 264.884 405.36C265.844 407.12 267.044 408.56 268.484 409.68C269.978 410.8 271.684 411.627 273.604 412.16C275.524 412.64 277.578 412.88 279.764 412.88C282.324 412.88 284.538 412.56 286.404 411.92C288.271 411.28 289.791 410.427 290.964 409.36C292.138 408.24 292.991 406.96 293.524 405.52C294.111 404.08 294.404 402.56 294.404 400.96C294.404 398.72 293.898 396.907 292.884 395.52C291.871 394.133 290.538 393.013 288.884 392.16C287.284 391.253 285.418 390.533 283.284 390C281.204 389.467 279.044 388.96 276.804 388.48C274.618 387.947 272.458 387.333 270.324 386.64C268.244 385.947 266.378 385.013 264.724 383.84C263.124 382.667 261.818 381.173 260.804 379.36C259.791 377.493 259.284 375.147 259.284 372.32C259.284 370.347 259.684 368.427 260.484 366.56C261.338 364.693 262.564 363.04 264.164 361.6C265.818 360.16 267.871 359.013 270.324 358.16C272.778 357.307 275.604 356.88 278.804 356.88C282.058 356.88 284.884 357.333 287.284 358.24C289.738 359.147 291.764 360.4 293.364 362C294.964 363.547 296.164 365.36 296.964 367.44C297.764 369.52 298.164 371.733 298.164 374.08H292.964C292.964 371.893 292.564 370 291.764 368.4C291.018 366.8 289.978 365.493 288.644 364.48C287.311 363.467 285.791 362.72 284.084 362.24C282.378 361.76 280.618 361.52 278.804 361.52C276.031 361.52 273.684 361.92 271.764 362.72C269.898 363.467 268.404 364.453 267.284 365.68C266.164 366.907 265.391 368.267 264.964 369.76C264.538 371.253 264.458 372.747 264.724 374.24C265.044 376.107 265.791 377.6 266.964 378.72C268.138 379.84 269.578 380.773 271.284 381.52C272.991 382.213 274.858 382.8 276.884 383.28C278.964 383.707 281.071 384.187 283.204 384.72C285.338 385.2 287.391 385.787 289.364 386.48C291.391 387.173 293.178 388.107 294.724 389.28C296.271 390.453 297.498 391.973 298.404 393.84C299.364 395.653 299.844 397.947 299.844 400.72C299.844 406.053 298.004 410.187 294.324 413.12C290.644 416.053 285.471 417.52 278.804 417.52C275.818 417.52 273.044 417.12 270.484 416.32C267.924 415.573 265.711 414.427 263.844 412.88C261.978 411.28 260.511 409.333 259.444 407.04C258.431 404.693 257.924 401.947 257.924 398.8H263.204Z" fill="black"/>
<path d="M331.75 358.422H343.781V405.648H372.297V416H331.75V358.422ZM391.203 373.422V416H379.914V373.422H391.203ZM391.203 358.07V368.344H379.914V358.07H391.203ZM414.055 423.461C415.253 424.477 417.271 424.984 420.109 424.984C424.12 424.984 426.802 423.643 428.156 420.961C429.042 419.242 429.484 416.352 429.484 412.289V409.555C428.417 411.378 427.271 412.745 426.047 413.656C423.833 415.349 420.956 416.195 417.414 416.195C411.945 416.195 407.57 414.281 404.289 410.453C401.034 406.599 399.406 401.391 399.406 394.828C399.406 388.5 400.982 383.188 404.133 378.891C407.284 374.568 411.75 372.406 417.531 372.406C419.667 372.406 421.529 372.732 423.117 373.383C425.826 374.503 428.013 376.56 429.68 379.555V373.422H440.5V413.812C440.5 419.307 439.576 423.448 437.727 426.234C434.549 431.026 428.456 433.422 419.445 433.422C414.003 433.422 409.562 432.354 406.125 430.219C402.688 428.083 400.786 424.893 400.422 420.648H412.531C412.844 421.951 413.352 422.888 414.055 423.461ZM412.18 401.469C413.69 405.062 416.398 406.859 420.305 406.859C422.909 406.859 425.109 405.883 426.906 403.93C428.703 401.951 429.602 398.812 429.602 394.516C429.602 390.479 428.742 387.406 427.023 385.297C425.331 383.188 423.052 382.133 420.188 382.133C416.281 382.133 413.586 383.969 412.102 387.641C411.32 389.594 410.93 392.003 410.93 394.867C410.93 397.341 411.346 399.542 412.18 401.469ZM489.406 391V416H478.039V390.102C478.039 387.81 477.648 385.961 476.867 384.555C475.852 382.576 473.924 381.586 471.086 381.586C468.143 381.586 465.904 382.576 464.367 384.555C462.857 386.508 462.102 389.307 462.102 392.953V416H451.008V358.617H462.102V378.969C463.716 376.495 465.578 374.776 467.688 373.812C469.823 372.823 472.062 372.328 474.406 372.328C477.036 372.328 479.419 372.784 481.555 373.695C483.716 374.607 485.487 376 486.867 377.875C488.039 379.464 488.755 381.104 489.016 382.797C489.276 384.464 489.406 387.198 489.406 391ZM519.328 408.07V416.391L514.055 416.586C508.794 416.768 505.201 415.857 503.273 413.852C502.023 412.576 501.398 410.609 501.398 407.953V381.742H495.461V373.812H501.398V361.938H512.414V373.812H519.328V381.742H512.414V404.242C512.414 405.987 512.635 407.081 513.078 407.523C513.521 407.94 514.875 408.148 517.141 408.148C517.479 408.148 517.831 408.148 518.195 408.148C518.586 408.122 518.964 408.096 519.328 408.07ZM555.812 375.375C559.146 377.51 561.06 381.182 561.555 386.391H550.422C550.266 384.958 549.862 383.826 549.211 382.992C547.987 381.482 545.904 380.727 542.961 380.727C540.539 380.727 538.807 381.104 537.766 381.859C536.75 382.615 536.242 383.5 536.242 384.516C536.242 385.792 536.789 386.716 537.883 387.289C538.977 387.888 542.844 388.917 549.484 390.375C553.911 391.417 557.232 392.992 559.445 395.102C561.633 397.237 562.727 399.906 562.727 403.109C562.727 407.328 561.151 410.779 558 413.461C554.875 416.117 550.031 417.445 543.469 417.445C536.776 417.445 531.828 416.039 528.625 413.227C525.448 410.388 523.859 406.781 523.859 402.406H535.148C535.383 404.385 535.891 405.792 536.672 406.625C538.052 408.109 540.604 408.852 544.328 408.852C546.516 408.852 548.247 408.526 549.523 407.875C550.826 407.224 551.477 406.247 551.477 404.945C551.477 403.695 550.956 402.745 549.914 402.094C548.872 401.443 545.005 400.323 538.312 398.734C533.495 397.536 530.096 396.039 528.117 394.242C526.138 392.471 525.148 389.919 525.148 386.586C525.148 382.654 526.685 379.281 529.758 376.469C532.857 373.63 537.206 372.211 542.805 372.211C548.117 372.211 552.453 373.266 555.812 375.375ZM572.609 378.031C575.552 374.281 580.604 372.406 587.766 372.406C592.427 372.406 596.568 373.331 600.188 375.18C603.807 377.029 605.617 380.518 605.617 385.648V405.18C605.617 406.534 605.643 408.174 605.695 410.102C605.773 411.56 605.995 412.549 606.359 413.07C606.724 413.591 607.271 414.021 608 414.359V416H595.891C595.552 415.141 595.318 414.333 595.188 413.578C595.057 412.823 594.953 411.964 594.875 411C593.339 412.667 591.568 414.086 589.562 415.258C587.167 416.638 584.458 417.328 581.438 417.328C577.583 417.328 574.393 416.234 571.867 414.047C569.367 411.833 568.117 408.708 568.117 404.672C568.117 399.438 570.135 395.648 574.172 393.305C576.385 392.029 579.641 391.117 583.938 390.57L587.727 390.102C589.784 389.841 591.255 389.516 592.141 389.125C593.729 388.448 594.523 387.393 594.523 385.961C594.523 384.216 593.911 383.018 592.688 382.367C591.49 381.69 589.719 381.352 587.375 381.352C584.745 381.352 582.883 382.003 581.789 383.305C581.008 384.268 580.487 385.57 580.227 387.211H569.484C569.719 383.487 570.76 380.427 572.609 378.031ZM580.891 407.953C581.932 408.812 583.208 409.242 584.719 409.242C587.115 409.242 589.315 408.539 591.32 407.133C593.352 405.727 594.406 403.161 594.484 399.438V395.297C593.781 395.74 593.065 396.104 592.336 396.391C591.633 396.651 590.656 396.898 589.406 397.133L586.906 397.602C584.562 398.018 582.883 398.526 581.867 399.125C580.148 400.141 579.289 401.716 579.289 403.852C579.289 405.753 579.823 407.12 580.891 407.953ZM626.984 373.422V416H615.695V373.422H626.984ZM626.984 358.07V368.344H615.695V358.07H626.984ZM638.039 358.422H649.172V416H638.039V358.422Z" fill="#FF9900"/>
<g clip-path="url(#clip0_5188_13004)">
<path d="M249.917 185.328C249.883 186.632 250.044 187.933 250.396 189.189C250.783 190.263 251.249 191.308 251.79 192.314C251.984 192.611 252.09 192.957 252.096 193.312C252.096 193.745 251.834 194.179 251.268 194.613L248.523 196.435C248.192 196.673 247.798 196.808 247.39 196.825C246.894 196.791 246.428 196.575 246.083 196.218C245.496 195.59 244.971 194.907 244.514 194.179C244.079 193.442 243.643 192.617 243.164 191.62C239.765 195.61 235.495 197.605 230.354 197.605C226.693 197.605 223.775 196.564 221.64 194.481C219.505 192.398 218.416 189.623 218.416 186.152C218.416 182.465 219.723 179.472 222.381 177.216C225.039 174.96 228.568 173.832 233.055 173.832C234.601 173.845 236.144 173.961 237.674 174.179C239.286 174.396 240.941 174.743 242.684 175.134V171.967C242.684 168.669 241.987 166.371 240.636 165.026C239.242 163.681 236.889 163.03 233.534 163.03C231.949 163.03 230.369 163.219 228.829 163.594C227.227 163.974 225.655 164.467 224.123 165.069C223.628 165.29 223.118 165.478 222.598 165.633C222.373 165.707 222.138 165.751 221.901 165.763C221.291 165.763 220.986 165.329 220.986 164.418V162.293C220.986 161.598 221.073 161.077 221.291 160.774C221.62 160.379 222.038 160.067 222.511 159.863C224.259 159.002 226.101 158.347 228.001 157.911C230.221 157.344 232.506 157.067 234.798 157.087C239.984 157.087 243.773 158.258 246.213 160.601C248.61 162.943 249.829 166.5 249.829 171.273V185.328H249.917ZM232.228 191.922C233.756 191.905 235.272 191.642 236.715 191.141C238.314 190.59 239.741 189.633 240.854 188.364C241.556 187.564 242.063 186.614 242.336 185.587C242.635 184.351 242.781 183.083 242.771 181.812V179.992C241.45 179.672 240.112 179.426 238.763 179.255C237.405 179.083 236.037 178.997 234.667 178.996C231.748 178.996 229.613 179.559 228.176 180.731C226.738 181.903 226.041 183.551 226.041 185.72C226.041 187.759 226.564 189.277 227.653 190.319C228.699 191.403 230.223 191.924 232.228 191.924V191.922ZM267.214 196.607C266.429 196.607 265.907 196.477 265.558 196.174C265.209 195.913 264.904 195.306 264.643 194.482L254.404 160.948C254.205 160.386 254.074 159.804 254.012 159.212C254.012 158.518 254.36 158.127 255.058 158.127H259.327C260.155 158.127 260.722 158.257 261.027 158.561C261.375 158.821 261.637 159.429 261.898 160.253L269.218 188.971L276.015 160.254C276.232 159.386 276.494 158.822 276.842 158.562C277.191 158.301 277.801 158.128 278.586 158.128H282.072C282.9 158.128 283.467 158.258 283.816 158.562C284.164 158.822 284.469 159.43 284.644 160.254L291.528 189.319L299.063 160.254C299.324 159.386 299.629 158.822 299.934 158.562C300.283 158.301 300.849 158.128 301.634 158.128H305.686C306.383 158.128 306.775 158.475 306.775 159.213C306.765 159.446 306.736 159.678 306.688 159.907C306.619 160.277 306.517 160.64 306.383 160.992L295.882 194.526C295.621 195.393 295.316 195.957 294.967 196.218C294.475 196.532 293.896 196.683 293.312 196.651H289.565C288.737 196.651 288.17 196.521 287.821 196.218C287.473 195.914 287.168 195.35 286.993 194.482L280.241 166.5L273.531 194.438C273.313 195.306 273.052 195.87 272.703 196.174C272.354 196.478 271.744 196.608 270.96 196.608L267.214 196.607ZM323.2 197.779C320.94 197.781 318.688 197.519 316.49 196.998C314.312 196.477 312.613 195.913 311.48 195.262C310.783 194.872 310.304 194.438 310.129 194.047C309.96 193.664 309.871 193.25 309.868 192.832V190.621C309.868 189.71 310.217 189.276 310.87 189.276C311.137 189.277 311.402 189.321 311.654 189.406C311.916 189.493 312.308 189.667 312.744 189.84C314.283 190.514 315.889 191.023 317.536 191.358C319.243 191.703 320.98 191.878 322.721 191.879C325.466 191.879 327.601 191.402 329.082 190.447C329.792 190.021 330.376 189.415 330.774 188.691C331.172 187.967 331.37 187.151 331.349 186.326C331.364 185.768 331.268 185.212 331.066 184.691C330.864 184.169 330.56 183.693 330.172 183.29C329.388 182.465 327.906 181.727 325.772 181.033L319.453 179.081C316.272 178.084 313.92 176.609 312.482 174.656C311.079 172.856 310.314 170.644 310.304 168.366C310.268 166.686 310.674 165.026 311.48 163.55C312.258 162.154 313.328 160.941 314.618 159.993C315.976 158.969 317.512 158.204 319.149 157.736C320.933 157.225 322.782 156.977 324.638 157C325.614 156.993 326.589 157.051 327.557 157.174C328.559 157.304 329.475 157.477 330.389 157.651C331.261 157.868 332.088 158.084 332.872 158.345C333.508 158.541 334.122 158.803 334.702 159.126C335.215 159.383 335.662 159.755 336.009 160.211C336.293 160.633 336.43 161.135 336.401 161.642V163.681C336.401 164.592 336.053 165.07 335.399 165.07C335.051 165.07 334.484 164.896 333.744 164.549C331.26 163.421 328.472 162.857 325.378 162.857C322.895 162.857 320.934 163.247 319.584 164.072C318.233 164.897 317.536 166.155 317.536 167.933C317.524 168.509 317.634 169.081 317.859 169.612C318.085 170.143 318.42 170.62 318.843 171.013C319.715 171.837 321.326 172.662 323.636 173.399L329.823 175.35C332.961 176.348 335.225 177.736 336.576 179.515C337.906 181.26 338.611 183.398 338.58 185.588C338.602 187.331 338.214 189.054 337.447 190.62C336.674 192.105 335.589 193.407 334.267 194.438C332.828 195.553 331.185 196.378 329.43 196.868C327.412 197.486 325.311 197.794 323.2 197.779L323.2 197.779Z" fill="#252F3E"/>
<path d="M331.435 218.861C317.1 229.403 296.274 234.999 278.367 234.999C253.271 235 230.659 225.76 213.58 210.403C212.23 209.188 213.45 207.54 215.062 208.493C233.535 219.165 256.322 225.629 279.893 225.629C295.795 225.629 313.267 222.331 329.344 215.564C331.74 214.479 333.788 217.126 331.436 218.862L331.435 218.861Z" fill="#FF9900"/>
<path d="M337.404 212.095C335.574 209.752 325.292 210.967 320.63 211.531C319.235 211.704 319.018 210.489 320.281 209.579C328.472 203.852 341.935 205.501 343.503 207.41C345.072 209.362 343.068 222.767 335.4 229.187C334.223 230.185 333.09 229.664 333.613 228.363C335.356 224.068 339.234 214.394 337.404 212.095Z" fill="#FF9900"/>
</g>
<path d="M508.258 253.438L508.531 243.633C508.57 242.148 508.961 208.047 474.859 199.414C472.828 198.906 471.422 197.07 471.383 195C471.383 192.891 472.75 191.055 474.781 190.508C508.609 181.367 508.492 146.641 508.492 146.289L508.375 137.578L514.82 143.438C515.719 144.258 537.125 164.023 538.18 193.125C538.844 211.68 531.031 229.57 515.016 246.367L508.258 253.438V253.438ZM485.094 194.844C506.617 203.906 513.219 223.203 515.211 234.688C525.953 221.367 531.148 207.539 530.641 193.398C530.055 176.25 521.148 162.383 515.133 154.922C513.063 166.25 506.422 185.469 485.094 194.844V194.844ZM428.375 198.75H421.695C419.625 198.75 417.906 197.07 417.906 194.961C417.906 192.891 419.586 191.172 421.695 191.172H428.375C430.445 191.172 432.164 192.852 432.164 194.961C432.164 197.031 430.484 198.75 428.375 198.75ZM409.586 198.75H402.867C400.797 198.75 399.078 197.07 399.078 194.961C399.078 192.891 400.758 191.172 402.867 191.172H409.586C411.656 191.172 413.375 192.852 413.375 194.961C413.336 197.031 411.656 198.75 409.586 198.75V198.75ZM446.461 198.75H438.453C436.383 198.75 434.664 197.07 434.664 194.961C434.664 192.891 436.344 191.172 438.453 191.172H446.461C448.531 191.172 450.25 192.852 450.25 194.961C450.211 197.031 448.531 198.75 446.461 198.75ZM463.18 198.75H456.461C454.391 198.75 452.672 197.07 452.672 194.961C452.672 192.891 454.352 191.172 456.461 191.172H463.18C465.25 191.172 466.969 192.852 466.969 194.961C466.969 197.031 465.289 198.75 463.18 198.75ZM491.383 152.5C485.719 152.5 481.148 147.93 481.148 142.266C481.148 147.93 476.578 152.5 470.914 152.5C476.578 152.5 481.148 157.07 481.148 162.734C481.148 157.07 485.719 152.5 491.383 152.5ZM566.344 209.766C560.25 209.766 555.328 204.844 555.328 198.75C555.328 204.844 550.406 209.766 544.312 209.766C550.406 209.766 555.328 214.687 555.328 220.781C555.328 214.687 560.25 209.766 566.344 209.766ZM481.148 232.148C473.336 232.148 466.969 225.82 466.969 217.969C466.969 225.781 460.641 232.148 452.789 232.148C460.602 232.148 466.969 238.477 466.969 246.328C467.008 238.477 473.336 232.148 481.148 232.148V232.148Z" fill="#E17107"/>
<path d="M503.727 274.18C464.938 274.18 432.126 246.523 425.641 208.32C425.251 206.055 426.774 203.867 429.079 203.477C431.383 203.125 433.532 204.609 433.922 206.914C439.743 241.055 469.079 265.781 503.727 265.781H504.001C522.907 265.703 540.68 258.281 554 244.844C567.321 231.406 574.625 213.594 574.547 194.688C574.469 175.781 567.047 158.008 553.61 144.687C540.25 131.406 522.555 124.141 503.727 124.141H503.454C468.844 124.258 439.547 149.102 433.844 183.203C433.454 185.508 431.305 187.031 429.001 186.641C426.696 186.25 425.172 184.102 425.563 181.797C432.008 143.672 464.743 115.898 503.454 115.742H503.766C524.821 115.742 544.625 123.906 559.586 138.75C574.586 153.672 582.907 173.516 582.985 194.688C583.063 215.859 574.899 235.781 559.977 250.781C545.055 265.781 525.211 274.102 504.04 274.18H503.727V274.18Z" fill="#E17107"/>
<path d="M741.436 592.713C741.436 593.599 742.139 594.276 742.999 594.276C743.884 594.276 744.588 593.599 744.588 592.713V576.563C744.588 575.703 743.884 575 742.999 575C742.113 575 741.436 575.703 741.436 576.563V592.713Z" fill="#030060"/>
<path d="M748.655 576.849C748.655 577.787 749.436 578.412 750.452 578.412C751.468 578.412 752.249 577.787 752.249 576.849V576.693C752.249 575.755 751.468 575.156 750.452 575.156C749.436 575.156 748.655 575.755 748.655 576.693V576.849ZM748.889 592.713C748.889 593.599 749.592 594.276 750.452 594.276C751.338 594.276 752.041 593.599 752.041 592.713V581.825C752.041 580.939 751.338 580.236 750.452 580.236C749.566 580.236 748.889 580.939 748.889 581.825V592.713Z" fill="#030060"/>
<path d="M756.16 592.713C756.16 593.573 756.864 594.276 757.723 594.276C758.609 594.276 759.312 593.573 759.312 592.713V592.01C760.276 593.287 761.709 594.433 764.001 594.433C767.257 594.433 770.383 591.854 770.383 587.295V587.243C770.383 582.658 767.231 580.106 764.001 580.106C761.761 580.106 760.328 581.252 759.312 582.685V576.563C759.312 575.677 758.609 575 757.723 575C756.838 575 756.16 575.677 756.16 576.563V592.713ZM763.246 591.698C761.11 591.698 759.234 589.926 759.234 587.295V587.243C759.234 584.612 761.11 582.841 763.246 582.841C765.382 582.841 767.179 584.586 767.179 587.243V587.295C767.179 590.004 765.408 591.698 763.246 591.698Z" fill="#030060"/>
<path d="M773.819 592.713C773.819 593.599 774.522 594.276 775.382 594.276C776.268 594.276 776.971 593.599 776.971 592.713V576.563C776.971 575.703 776.268 575 775.382 575C774.496 575 773.819 575.703 773.819 576.563V592.713Z" fill="#030060"/>
<path d="M787.629 594.459C791.875 594.459 795.001 591.203 795.001 587.295V587.243C795.001 583.31 791.901 580.106 787.681 580.106C783.461 580.106 780.335 583.362 780.335 587.295V587.347C780.335 591.255 783.435 594.459 787.629 594.459ZM787.681 591.698C785.232 591.698 783.487 589.692 783.487 587.295V587.243C783.487 584.847 785.102 582.867 787.629 582.867C790.103 582.867 791.849 584.873 791.849 587.295V587.347C791.849 589.718 790.234 591.698 787.681 591.698Z" fill="#030060"/>
<path d="M736.96 590.09C735.74 590.65 734.453 591.046 733.208 591.294C728.074 592.314 725.36 589.099 729.634 586.781C730.099 586.529 730.632 586.291 731.228 586.075L732.011 585.826C732.241 585.763 732.463 585.661 732.534 585.515C732.905 584.723 729.731 584.467 727.622 585.589C728.458 585.431 729.186 585.408 729.668 585.609C724.878 586.845 723.788 590.757 726.335 592.642C727.649 593.615 729.127 593.873 731.832 593.682C733.637 593.555 735.48 592.837 736.96 591.969V590.09Z" fill="url(#paint0_linear_5188_13004)"/>
<path d="M734.542 592.784C734.542 593.607 735.171 594.165 736.03 594.165C736.89 594.165 737.478 593.644 737.478 592.784V586.011C737.478 584.214 737.009 582.755 735.993 581.765C735.029 580.776 733.492 580.228 731.434 580.228C729.637 580.228 728.308 580.541 727.006 581.036C726.537 581.218 726.146 581.713 726.146 582.286C726.146 583.016 726.745 583.589 727.475 583.589C727.631 583.589 727.787 583.563 727.97 583.511C728.829 583.172 729.819 582.964 731.018 582.964C733.232 582.964 734.43 584.006 734.43 585.959V585.968L734.542 592.784Z" fill="url(#paint1_linear_5188_13004)"/>
<path d="M733.611 578.379C733.611 578.591 733.273 578.721 732.805 578.721C732.077 578.721 731.583 578.64 730.984 578.282L729.216 577.24C728.956 577.093 728.774 576.93 728.774 576.751C728.774 576.442 729.814 576.116 730.646 576.116C731.192 576.116 731.609 576.295 731.895 576.589L733.377 578.021C733.481 578.119 733.611 578.265 733.611 578.379Z" fill="url(#paint2_linear_5188_13004)"/>
<defs>
<linearGradient id="paint0_linear_5188_13004" x1="725" y1="576.116" x2="725" y2="594.165" gradientUnits="userSpaceOnUse">
<stop stop-color="#008EE3"/>
<stop offset="1" stop-color="#0055C2"/>
</linearGradient>
<linearGradient id="paint1_linear_5188_13004" x1="725" y1="576.116" x2="725" y2="594.165" gradientUnits="userSpaceOnUse">
<stop stop-color="#008EE3"/>
<stop offset="1" stop-color="#0055C2"/>
</linearGradient>
<linearGradient id="paint2_linear_5188_13004" x1="725" y1="576.116" x2="725" y2="594.165" gradientUnits="userSpaceOnUse">
<stop stop-color="#008EE3"/>
<stop offset="1" stop-color="#0055C2"/>
</linearGradient>
<clipPath id="clip0_5188_13004">
<rect width="131" height="78" fill="white" transform="translate(213 157)"/>
</clipPath>
</defs>
</svg>
