<svg width="800" height="600" viewBox="0 0 800 600" fill="none" xmlns="http://www.w3.org/2000/svg">
<rect width="800" height="600" fill="#E5F3FF"/>
<path d="M328.094 362.164H306.883L302.898 374H290.32L310.867 316.422H324.461L344.852 374H331.805L328.094 362.164ZM324.734 352.242L317.547 329.586L310.125 352.242H324.734ZM384.148 374H347.391V365.328L369.227 340.484H348.875V331.422H383.406V340.68L361.805 364.859H384.148V374ZM418.602 367.984C418.497 368.115 418.237 368.505 417.82 369.156C417.404 369.807 416.909 370.38 416.336 370.875C414.591 372.438 412.898 373.505 411.258 374.078C409.643 374.651 407.742 374.938 405.555 374.938C399.253 374.938 395.008 372.672 392.82 368.141C391.596 365.641 390.984 361.956 390.984 357.086V331.422H402.391V357.086C402.391 359.508 402.677 361.331 403.25 362.555C404.266 364.716 406.258 365.797 409.227 365.797C413.029 365.797 415.633 364.26 417.039 361.188C417.768 359.521 418.133 357.32 418.133 354.586V331.422H429.422V374H418.602V367.984ZM461.609 341.695C457.13 341.695 454.122 343.154 452.586 346.07C451.727 347.711 451.297 350.237 451.297 353.648V374H440.086V331.422H450.711V338.844C452.43 336.005 453.927 334.065 455.203 333.023C457.286 331.279 459.995 330.406 463.328 330.406C463.536 330.406 463.706 330.419 463.836 330.445C463.992 330.445 464.318 330.458 464.812 330.484V341.891C464.109 341.812 463.484 341.76 462.938 341.734C462.391 341.708 461.948 341.695 461.609 341.695ZM507.82 361.5C507.534 364.026 506.219 366.591 503.875 369.195C500.229 373.336 495.125 375.406 488.562 375.406C483.146 375.406 478.367 373.661 474.227 370.172C470.086 366.682 468.016 361.005 468.016 353.141C468.016 345.771 469.878 340.12 473.602 336.188C477.352 332.255 482.208 330.289 488.172 330.289C491.714 330.289 494.904 330.953 497.742 332.281C500.581 333.609 502.924 335.706 504.773 338.57C506.44 341.096 507.521 344.026 508.016 347.359C508.302 349.312 508.419 352.125 508.367 355.797H479.227C479.383 360.068 480.724 363.062 483.25 364.781C484.786 365.849 486.635 366.383 488.797 366.383C491.089 366.383 492.951 365.732 494.383 364.43C495.164 363.727 495.854 362.75 496.453 361.5H507.82ZM496.805 348.453C496.622 345.51 495.724 343.284 494.109 341.773C492.521 340.237 490.542 339.469 488.172 339.469C485.594 339.469 483.589 340.276 482.156 341.891C480.75 343.505 479.865 345.693 479.5 348.453H496.805ZM171.18 408.422H183.133V466H171.18V408.422ZM213.523 431.664C209.747 431.664 207.156 433.266 205.75 436.469C205.021 438.161 204.656 440.323 204.656 442.953V466H193.562V423.5H204.305V429.711C205.737 427.523 207.091 425.948 208.367 424.984C210.659 423.266 213.562 422.406 217.078 422.406C221.479 422.406 225.073 423.565 227.859 425.883C230.672 428.174 232.078 431.99 232.078 437.328V466H220.672V440.102C220.672 437.862 220.372 436.143 219.773 434.945C218.68 432.758 216.596 431.664 213.523 431.664ZM261.883 458.07V466.391L256.609 466.586C251.349 466.768 247.755 465.857 245.828 463.852C244.578 462.576 243.953 460.609 243.953 457.953V431.742H238.016V423.812H243.953V411.938H254.969V423.812H261.883V431.742H254.969V454.242C254.969 455.987 255.19 457.081 255.633 457.523C256.076 457.94 257.43 458.148 259.695 458.148C260.034 458.148 260.385 458.148 260.75 458.148C261.141 458.122 261.518 458.096 261.883 458.07ZM290.438 433.695C285.958 433.695 282.951 435.154 281.414 438.07C280.555 439.711 280.125 442.237 280.125 445.648V466H268.914V423.422H279.539V430.844C281.258 428.005 282.755 426.065 284.031 425.023C286.115 423.279 288.823 422.406 292.156 422.406C292.365 422.406 292.534 422.419 292.664 422.445C292.82 422.445 293.146 422.458 293.641 422.484V433.891C292.938 433.812 292.312 433.76 291.766 433.734C291.219 433.708 290.776 433.695 290.438 433.695ZM335.711 428.812C339.305 433.318 341.102 438.643 341.102 444.789C341.102 451.039 339.305 456.391 335.711 460.844C332.117 465.271 326.661 467.484 319.344 467.484C312.026 467.484 306.57 465.271 302.977 460.844C299.383 456.391 297.586 451.039 297.586 444.789C297.586 438.643 299.383 433.318 302.977 428.812C306.57 424.307 312.026 422.055 319.344 422.055C326.661 422.055 332.117 424.307 335.711 428.812ZM319.305 431.469C316.049 431.469 313.536 432.628 311.766 434.945C310.021 437.237 309.148 440.518 309.148 444.789C309.148 449.06 310.021 452.354 311.766 454.672C313.536 456.99 316.049 458.148 319.305 458.148C322.56 458.148 325.06 456.99 326.805 454.672C328.549 452.354 329.422 449.06 329.422 444.789C329.422 440.518 328.549 437.237 326.805 434.945C325.06 432.628 322.56 431.469 319.305 431.469ZM387.859 408.5V466H377.039V460.102C375.451 462.628 373.641 464.464 371.609 465.609C369.578 466.755 367.052 467.328 364.031 467.328C359.057 467.328 354.865 465.323 351.453 461.312C348.068 457.276 346.375 452.107 346.375 445.805C346.375 438.539 348.042 432.823 351.375 428.656C354.734 424.49 359.214 422.406 364.812 422.406C367.391 422.406 369.682 422.979 371.688 424.125C373.693 425.245 375.32 426.807 376.57 428.812V408.5H387.859ZM357.859 444.984C357.859 448.917 358.641 452.055 360.203 454.398C361.74 456.768 364.083 457.953 367.234 457.953C370.385 457.953 372.781 456.781 374.422 454.438C376.062 452.094 376.883 449.06 376.883 445.336C376.883 440.128 375.568 436.404 372.938 434.164C371.323 432.81 369.448 432.133 367.312 432.133C364.057 432.133 361.661 433.37 360.125 435.844C358.615 438.292 357.859 441.339 357.859 444.984ZM425.32 459.984C425.216 460.115 424.956 460.505 424.539 461.156C424.122 461.807 423.628 462.38 423.055 462.875C421.31 464.438 419.617 465.505 417.977 466.078C416.362 466.651 414.461 466.938 412.273 466.938C405.971 466.938 401.727 464.672 399.539 460.141C398.315 457.641 397.703 453.956 397.703 449.086V423.422H409.109V449.086C409.109 451.508 409.396 453.331 409.969 454.555C410.984 456.716 412.977 457.797 415.945 457.797C419.747 457.797 422.352 456.26 423.758 453.188C424.487 451.521 424.852 449.32 424.852 446.586V423.422H436.141V466H425.32V459.984ZM483.758 438.695H472.352C472.143 437.107 471.609 435.674 470.75 434.398C469.5 432.68 467.56 431.82 464.93 431.82C461.18 431.82 458.615 433.682 457.234 437.406C456.505 439.385 456.141 442.016 456.141 445.297C456.141 448.422 456.505 450.935 457.234 452.836C458.562 456.378 461.062 458.148 464.734 458.148C467.339 458.148 469.188 457.445 470.281 456.039C471.375 454.633 472.039 452.81 472.273 450.57H483.641C483.38 453.956 482.156 457.159 479.969 460.18C476.479 465.049 471.31 467.484 464.461 467.484C457.612 467.484 452.573 465.453 449.344 461.391C446.115 457.328 444.5 452.055 444.5 445.57C444.5 438.253 446.284 432.562 449.852 428.5C453.419 424.438 458.341 422.406 464.617 422.406C469.956 422.406 474.318 423.604 477.703 426C481.115 428.396 483.133 432.628 483.758 438.695ZM510.945 458.07V466.391L505.672 466.586C500.411 466.768 496.818 465.857 494.891 463.852C493.641 462.576 493.016 460.609 493.016 457.953V431.742H487.078V423.812H493.016V411.938H504.031V423.812H510.945V431.742H504.031V454.242C504.031 455.987 504.253 457.081 504.695 457.523C505.138 457.94 506.492 458.148 508.758 458.148C509.096 458.148 509.448 458.148 509.812 458.148C510.203 458.122 510.581 458.096 510.945 458.07ZM529.539 423.422V466H518.25V423.422H529.539ZM529.539 408.07V418.344H518.25V408.07H529.539ZM575.867 428.812C579.461 433.318 581.258 438.643 581.258 444.789C581.258 451.039 579.461 456.391 575.867 460.844C572.273 465.271 566.818 467.484 559.5 467.484C552.182 467.484 546.727 465.271 543.133 460.844C539.539 456.391 537.742 451.039 537.742 444.789C537.742 438.643 539.539 433.318 543.133 428.812C546.727 424.307 552.182 422.055 559.5 422.055C566.818 422.055 572.273 424.307 575.867 428.812ZM559.461 431.469C556.206 431.469 553.693 432.628 551.922 434.945C550.177 437.237 549.305 440.518 549.305 444.789C549.305 449.06 550.177 452.354 551.922 454.672C553.693 456.99 556.206 458.148 559.461 458.148C562.716 458.148 565.216 456.99 566.961 454.672C568.706 452.354 569.578 449.06 569.578 444.789C569.578 440.518 568.706 437.237 566.961 434.945C565.216 432.628 562.716 431.469 559.461 431.469ZM609.305 431.664C605.529 431.664 602.938 433.266 601.531 436.469C600.802 438.161 600.438 440.323 600.438 442.953V466H589.344V423.5H600.086V429.711C601.518 427.523 602.872 425.948 604.148 424.984C606.44 423.266 609.344 422.406 612.859 422.406C617.26 422.406 620.854 423.565 623.641 425.883C626.453 428.174 627.859 431.99 627.859 437.328V466H616.453V440.102C616.453 437.862 616.154 436.143 615.555 434.945C614.461 432.758 612.378 431.664 609.305 431.664Z" fill="#3B68D7"/>
<g clip-path="url(#clip0_5188_13016)">
<path d="M409.274 66L350.302 126.58L300 233.58H345.363L409.274 66ZM417.116 80.172L391.952 164.204L440.198 236.028L346.589 255.084H500L417.116 80.172Z" fill="#0072C6"/>
</g>
<path d="M741.436 592.713C741.436 593.599 742.139 594.276 742.999 594.276C743.884 594.276 744.588 593.599 744.588 592.713V576.563C744.588 575.703 743.884 575 742.999 575C742.113 575 741.436 575.703 741.436 576.563V592.713Z" fill="#030060"/>
<path d="M748.655 576.849C748.655 577.787 749.436 578.412 750.452 578.412C751.468 578.412 752.249 577.787 752.249 576.849V576.693C752.249 575.755 751.468 575.156 750.452 575.156C749.436 575.156 748.655 575.755 748.655 576.693V576.849ZM748.889 592.713C748.889 593.599 749.592 594.276 750.452 594.276C751.338 594.276 752.041 593.599 752.041 592.713V581.825C752.041 580.939 751.338 580.236 750.452 580.236C749.566 580.236 748.889 580.939 748.889 581.825V592.713Z" fill="#030060"/>
<path d="M756.16 592.713C756.16 593.573 756.864 594.276 757.723 594.276C758.609 594.276 759.312 593.573 759.312 592.713V592.01C760.276 593.287 761.709 594.433 764.001 594.433C767.257 594.433 770.383 591.854 770.383 587.295V587.243C770.383 582.658 767.231 580.106 764.001 580.106C761.761 580.106 760.328 581.252 759.312 582.685V576.563C759.312 575.677 758.609 575 757.723 575C756.838 575 756.16 575.677 756.16 576.563V592.713ZM763.246 591.698C761.11 591.698 759.234 589.926 759.234 587.295V587.243C759.234 584.612 761.11 582.841 763.246 582.841C765.382 582.841 767.179 584.586 767.179 587.243V587.295C767.179 590.004 765.408 591.698 763.246 591.698Z" fill="#030060"/>
<path d="M773.819 592.713C773.819 593.599 774.522 594.276 775.382 594.276C776.268 594.276 776.971 593.599 776.971 592.713V576.563C776.971 575.703 776.268 575 775.382 575C774.496 575 773.819 575.703 773.819 576.563V592.713Z" fill="#030060"/>
<path d="M787.629 594.459C791.875 594.459 795.001 591.203 795.001 587.295V587.243C795.001 583.31 791.901 580.106 787.681 580.106C783.461 580.106 780.335 583.362 780.335 587.295V587.347C780.335 591.255 783.435 594.459 787.629 594.459ZM787.681 591.698C785.232 591.698 783.487 589.692 783.487 587.295V587.243C783.487 584.847 785.102 582.867 787.629 582.867C790.103 582.867 791.849 584.873 791.849 587.295V587.347C791.849 589.718 790.234 591.698 787.681 591.698Z" fill="#030060"/>
<path d="M736.96 590.09C735.74 590.65 734.453 591.046 733.208 591.294C728.074 592.314 725.36 589.099 729.634 586.781C730.099 586.529 730.632 586.291 731.228 586.075L732.011 585.826C732.241 585.763 732.463 585.661 732.534 585.515C732.905 584.723 729.731 584.467 727.622 585.589C728.458 585.431 729.186 585.408 729.668 585.609C724.878 586.845 723.788 590.757 726.335 592.642C727.649 593.615 729.127 593.873 731.832 593.682C733.637 593.555 735.48 592.837 736.96 591.969V590.09Z" fill="url(#paint0_linear_5188_13016)"/>
<path d="M734.542 592.784C734.542 593.607 735.171 594.165 736.03 594.165C736.89 594.165 737.478 593.644 737.478 592.784V586.011C737.478 584.214 737.009 582.755 735.993 581.765C735.029 580.776 733.492 580.228 731.434 580.228C729.637 580.228 728.308 580.541 727.006 581.036C726.537 581.218 726.146 581.713 726.146 582.286C726.146 583.016 726.745 583.589 727.475 583.589C727.631 583.589 727.787 583.563 727.97 583.511C728.829 583.172 729.819 582.964 731.018 582.964C733.232 582.964 734.43 584.006 734.43 585.959V585.968L734.542 592.784Z" fill="url(#paint1_linear_5188_13016)"/>
<path d="M733.611 578.379C733.611 578.591 733.273 578.721 732.805 578.721C732.077 578.721 731.583 578.64 730.984 578.282L729.216 577.24C728.956 577.093 728.774 576.93 728.774 576.751C728.774 576.442 729.814 576.116 730.646 576.116C731.192 576.116 731.609 576.295 731.895 576.589L733.377 578.021C733.481 578.119 733.611 578.265 733.611 578.379Z" fill="url(#paint2_linear_5188_13016)"/>
<defs>
<linearGradient id="paint0_linear_5188_13016" x1="725" y1="576.116" x2="725" y2="594.165" gradientUnits="userSpaceOnUse">
<stop stop-color="#008EE3"/>
<stop offset="1" stop-color="#0055C2"/>
</linearGradient>
<linearGradient id="paint1_linear_5188_13016" x1="725" y1="576.116" x2="725" y2="594.165" gradientUnits="userSpaceOnUse">
<stop stop-color="#008EE3"/>
<stop offset="1" stop-color="#0055C2"/>
</linearGradient>
<linearGradient id="paint2_linear_5188_13016" x1="725" y1="576.116" x2="725" y2="594.165" gradientUnits="userSpaceOnUse">
<stop stop-color="#008EE3"/>
<stop offset="1" stop-color="#0055C2"/>
</linearGradient>
<clipPath id="clip0_5188_13016">
<rect width="200" height="189.084" fill="white" transform="translate(300 66)"/>
</clipPath>
</defs>
</svg>
