<svg width="800" height="600" viewBox="0 0 800 600" fill="none" xmlns="http://www.w3.org/2000/svg">
<rect width="800" height="600" fill="url(#paint0_linear_5188_13022)"/>
<path d="M152.898 436H128.094V378.422H152.898C156.466 378.474 159.435 378.891 161.805 379.672C165.841 381 169.109 383.435 171.609 386.977C173.615 389.841 174.982 392.94 175.711 396.273C176.44 399.607 176.805 402.784 176.805 405.805C176.805 413.461 175.268 419.945 172.195 425.258C168.029 432.419 161.596 436 152.898 436ZM161.844 393.109C159.995 389.984 156.336 388.422 150.867 388.422H139.773V426H150.867C156.544 426 160.503 423.201 162.742 417.602C163.966 414.529 164.578 410.87 164.578 406.625C164.578 400.766 163.667 396.26 161.844 393.109ZM221.453 423.5C221.167 426.026 219.852 428.591 217.508 431.195C213.862 435.336 208.758 437.406 202.195 437.406C196.779 437.406 192 435.661 187.859 432.172C183.719 428.682 181.648 423.005 181.648 415.141C181.648 407.771 183.51 402.12 187.234 398.188C190.984 394.255 195.841 392.289 201.805 392.289C205.346 392.289 208.536 392.953 211.375 394.281C214.214 395.609 216.557 397.706 218.406 400.57C220.073 403.096 221.154 406.026 221.648 409.359C221.935 411.312 222.052 414.125 222 417.797H192.859C193.016 422.068 194.357 425.062 196.883 426.781C198.419 427.849 200.268 428.383 202.43 428.383C204.721 428.383 206.583 427.732 208.016 426.43C208.797 425.727 209.487 424.75 210.086 423.5H221.453ZM210.438 410.453C210.255 407.51 209.357 405.284 207.742 403.773C206.154 402.237 204.174 401.469 201.805 401.469C199.227 401.469 197.221 402.276 195.789 403.891C194.383 405.505 193.497 407.693 193.133 410.453H210.438ZM258.875 395.375C262.208 397.51 264.122 401.182 264.617 406.391H253.484C253.328 404.958 252.924 403.826 252.273 402.992C251.049 401.482 248.966 400.727 246.023 400.727C243.602 400.727 241.87 401.104 240.828 401.859C239.812 402.615 239.305 403.5 239.305 404.516C239.305 405.792 239.852 406.716 240.945 407.289C242.039 407.888 245.906 408.917 252.547 410.375C256.974 411.417 260.294 412.992 262.508 415.102C264.695 417.237 265.789 419.906 265.789 423.109C265.789 427.328 264.214 430.779 261.062 433.461C257.938 436.117 253.094 437.445 246.531 437.445C239.839 437.445 234.891 436.039 231.688 433.227C228.51 430.388 226.922 426.781 226.922 422.406H238.211C238.445 424.385 238.953 425.792 239.734 426.625C241.115 428.109 243.667 428.852 247.391 428.852C249.578 428.852 251.31 428.526 252.586 427.875C253.888 427.224 254.539 426.247 254.539 424.945C254.539 423.695 254.018 422.745 252.977 422.094C251.935 421.443 248.068 420.323 241.375 418.734C236.557 417.536 233.159 416.039 231.18 414.242C229.201 412.471 228.211 409.919 228.211 406.586C228.211 402.654 229.747 399.281 232.82 396.469C235.919 393.63 240.268 392.211 245.867 392.211C251.18 392.211 255.516 393.266 258.875 395.375ZM285.516 393.422V436H274.227V393.422H285.516ZM285.516 378.07V388.344H274.227V378.07H285.516ZM308.367 443.461C309.565 444.477 311.583 444.984 314.422 444.984C318.432 444.984 321.115 443.643 322.469 440.961C323.354 439.242 323.797 436.352 323.797 432.289V429.555C322.729 431.378 321.583 432.745 320.359 433.656C318.146 435.349 315.268 436.195 311.727 436.195C306.258 436.195 301.883 434.281 298.602 430.453C295.346 426.599 293.719 421.391 293.719 414.828C293.719 408.5 295.294 403.188 298.445 398.891C301.596 394.568 306.062 392.406 311.844 392.406C313.979 392.406 315.841 392.732 317.43 393.383C320.138 394.503 322.326 396.56 323.992 399.555V393.422H334.812V433.812C334.812 439.307 333.888 443.448 332.039 446.234C328.862 451.026 322.768 453.422 313.758 453.422C308.315 453.422 303.875 452.354 300.438 450.219C297 448.083 295.099 444.893 294.734 440.648H306.844C307.156 441.951 307.664 442.888 308.367 443.461ZM306.492 421.469C308.003 425.062 310.711 426.859 314.617 426.859C317.221 426.859 319.422 425.883 321.219 423.93C323.016 421.951 323.914 418.812 323.914 414.516C323.914 410.479 323.055 407.406 321.336 405.297C319.643 403.188 317.365 402.133 314.5 402.133C310.594 402.133 307.898 403.969 306.414 407.641C305.633 409.594 305.242 412.003 305.242 414.867C305.242 417.341 305.659 419.542 306.492 421.469ZM365.281 401.664C361.505 401.664 358.914 403.266 357.508 406.469C356.779 408.161 356.414 410.323 356.414 412.953V436H345.32V393.5H356.062V399.711C357.495 397.523 358.849 395.948 360.125 394.984C362.417 393.266 365.32 392.406 368.836 392.406C373.237 392.406 376.831 393.565 379.617 395.883C382.43 398.174 383.836 401.99 383.836 407.328V436H372.43V410.102C372.43 407.862 372.13 406.143 371.531 404.945C370.438 402.758 368.354 401.664 365.281 401.664ZM459.148 378.422V388.617H441.922V436H429.812V388.617H412.508V378.422H459.148ZM503.797 411V436H492.43V410.102C492.43 407.81 492.039 405.961 491.258 404.555C490.242 402.576 488.315 401.586 485.477 401.586C482.534 401.586 480.294 402.576 478.758 404.555C477.247 406.508 476.492 409.307 476.492 412.953V436H465.398V378.617H476.492V398.969C478.107 396.495 479.969 394.776 482.078 393.812C484.214 392.823 486.453 392.328 488.797 392.328C491.427 392.328 493.81 392.784 495.945 393.695C498.107 394.607 499.878 396 501.258 397.875C502.43 399.464 503.146 401.104 503.406 402.797C503.667 404.464 503.797 407.198 503.797 411ZM550.672 423.5C550.385 426.026 549.07 428.591 546.727 431.195C543.081 435.336 537.977 437.406 531.414 437.406C525.997 437.406 521.219 435.661 517.078 432.172C512.938 428.682 510.867 423.005 510.867 415.141C510.867 407.771 512.729 402.12 516.453 398.188C520.203 394.255 525.06 392.289 531.023 392.289C534.565 392.289 537.755 392.953 540.594 394.281C543.432 395.609 545.776 397.706 547.625 400.57C549.292 403.096 550.372 406.026 550.867 409.359C551.154 411.312 551.271 414.125 551.219 417.797H522.078C522.234 422.068 523.576 425.062 526.102 426.781C527.638 427.849 529.487 428.383 531.648 428.383C533.94 428.383 535.802 427.732 537.234 426.43C538.016 425.727 538.706 424.75 539.305 423.5H550.672ZM539.656 410.453C539.474 407.51 538.576 405.284 536.961 403.773C535.372 402.237 533.393 401.469 531.023 401.469C528.445 401.469 526.44 402.276 525.008 403.891C523.602 405.505 522.716 407.693 522.352 410.453H539.656ZM594.266 398.812C597.859 403.318 599.656 408.643 599.656 414.789C599.656 421.039 597.859 426.391 594.266 430.844C590.672 435.271 585.216 437.484 577.898 437.484C570.581 437.484 565.125 435.271 561.531 430.844C557.938 426.391 556.141 421.039 556.141 414.789C556.141 408.643 557.938 403.318 561.531 398.812C565.125 394.307 570.581 392.055 577.898 392.055C585.216 392.055 590.672 394.307 594.266 398.812ZM577.859 401.469C574.604 401.469 572.091 402.628 570.32 404.945C568.576 407.237 567.703 410.518 567.703 414.789C567.703 419.06 568.576 422.354 570.32 424.672C572.091 426.99 574.604 428.148 577.859 428.148C581.115 428.148 583.615 426.99 585.359 424.672C587.104 422.354 587.977 419.06 587.977 414.789C587.977 410.518 587.104 407.237 585.359 404.945C583.615 402.628 581.115 401.469 577.859 401.469ZM629.07 403.695C624.591 403.695 621.583 405.154 620.047 408.07C619.188 409.711 618.758 412.237 618.758 415.648V436H607.547V393.422H618.172V400.844C619.891 398.005 621.388 396.065 622.664 395.023C624.747 393.279 627.456 392.406 630.789 392.406C630.997 392.406 631.167 392.419 631.297 392.445C631.453 392.445 631.779 392.458 632.273 392.484V403.891C631.57 403.812 630.945 403.76 630.398 403.734C629.852 403.708 629.409 403.695 629.07 403.695ZM656.141 424.828L664.93 393.422H676.766L662.156 435.297C659.344 443.37 657.117 448.37 655.477 450.297C653.836 452.25 650.555 453.227 645.633 453.227C644.643 453.227 643.849 453.214 643.25 453.188C642.651 453.188 641.753 453.148 640.555 453.07V444.164L641.961 444.242C643.055 444.294 644.096 444.255 645.086 444.125C646.076 443.995 646.909 443.695 647.586 443.227C648.237 442.784 648.836 441.859 649.383 440.453C649.956 439.047 650.19 438.188 650.086 437.875L634.461 393.422H646.844L656.141 424.828Z" fill="white" fill-opacity="0.8"/>
<path d="M406.893 109.476C425.355 108.683 487.751 119.016 480.903 170.074C478.809 185.706 468.968 196.581 453.493 200.247C431.988 205.343 415.303 212.583 419.053 240.403C422.803 268.222 389.466 285.259 363.948 277.027C355.187 274.072 347.094 269.419 340.133 263.334C333.171 257.249 327.478 249.852 323.377 241.565C311.233 216.159 311.625 181.604 327.866 154.134C344.16 126.576 368.219 111.139 406.893 109.476Z" fill="#BFE0FF"/>
<path d="M404.213 156.45C411.903 156.45 418.138 150.215 418.138 142.524C418.138 134.833 411.903 128.599 404.213 128.599C396.522 128.599 390.287 134.833 390.287 142.524C390.287 150.215 396.522 156.45 404.213 156.45Z" fill="#FFC639"/>
<path d="M444.912 174.998C452.603 174.998 458.837 168.764 458.837 161.073C458.837 153.382 452.603 147.147 444.912 147.147C437.221 147.147 430.986 153.382 430.986 161.073C430.986 168.764 437.221 174.998 444.912 174.998Z" fill="#61D6A0"/>
<path d="M364.834 174.998C372.525 174.998 378.759 168.764 378.759 161.073C378.759 153.382 372.525 147.147 364.834 147.147C357.143 147.147 350.908 153.382 350.908 161.073C350.908 168.764 357.143 174.998 364.834 174.998Z" fill="#584360"/>
<path d="M349.717 220.462C357.407 220.462 363.642 214.227 363.642 206.536C363.642 198.846 357.407 192.611 349.717 192.611C342.026 192.611 335.791 198.846 335.791 206.536C335.791 214.227 342.026 220.462 349.717 220.462Z" fill="#FF736C"/>
<path d="M377.909 259.418C386.464 259.418 393.399 252.483 393.399 243.929C393.399 235.374 386.464 228.439 377.909 228.439C369.355 228.439 362.42 235.374 362.42 243.929C362.42 252.483 369.355 259.418 377.909 259.418Z" fill="white"/>
<path d="M525.003 140.022C539.659 146.247 472.768 259.42 472.768 259.42L462.234 254.32C462.234 254.32 509.829 133.58 525.003 140.022Z" fill="#419BFF"/>
<path d="M487.276 233.975C479.005 248.841 472.766 259.414 472.766 259.414L462.234 254.326C462.234 254.326 466.736 242.894 473.415 227.275L487.276 233.975Z" fill="#3B68D7"/>
<path d="M472.769 259.42L462.235 254.32C447.219 259.27 443.651 265.639 437.11 279.125C433.789 285.984 426.941 289.533 421.011 291.363C420.444 291.539 419.951 291.899 419.611 292.387C419.272 292.875 419.105 293.462 419.137 294.056C419.169 294.649 419.398 295.215 419.788 295.664C420.178 296.112 420.706 296.418 421.29 296.532C431.125 299.357 441.616 298.865 451.144 295.134C465.658 289.738 473.837 269.138 472.769 259.42Z" fill="#97CEFF"/>
<path d="M451.15 295.133C441.621 298.862 431.13 299.355 421.293 296.536C420.711 296.422 420.183 296.117 419.793 295.669C419.404 295.221 419.174 294.657 419.14 294.064C419.107 293.472 419.271 292.885 419.608 292.396C419.945 291.907 420.434 291.544 421 291.365C426.946 289.522 433.793 285.984 437.101 279.116C438.19 276.876 439.174 274.845 440.179 272.982C438.336 279.095 442.042 285.251 448.449 284.937C454.446 284.631 456.749 291.428 451.15 295.133ZM344.911 292.219C344.568 294.773 342.286 298.63 340.022 298.324C339.125 298.175 338.271 297.834 337.517 297.325C336.763 296.816 336.127 296.15 335.653 295.374C335.179 294.598 334.877 293.729 334.768 292.826C334.659 291.923 334.746 291.007 335.022 290.14C335.663 287.644 336.907 286.432 339.17 286.738C341.433 287.043 345.255 289.656 344.911 292.219ZM400.063 294.951C386.164 293.758 363.294 291 361.466 297.139C358.518 307.036 381.715 308.502 392.77 304.484C403.825 300.466 406.472 295.502 400.063 294.951Z" fill="#FF736C"/>
<path d="M487.276 236.067C486.961 236.066 486.65 235.994 486.366 235.857L472.505 229.157C472.25 229.043 472.02 228.878 471.83 228.673C471.639 228.468 471.492 228.227 471.396 227.964C471.3 227.701 471.258 227.421 471.272 227.142C471.286 226.862 471.356 226.588 471.478 226.336C471.6 226.085 471.771 225.86 471.981 225.675C472.191 225.49 472.437 225.349 472.702 225.261C472.968 225.173 473.248 225.138 473.527 225.16C473.806 225.182 474.078 225.26 474.327 225.389L488.187 232.089C488.614 232.295 488.957 232.64 489.162 233.067C489.367 233.494 489.421 233.978 489.315 234.44C489.21 234.902 488.951 235.314 488.58 235.61C488.21 235.905 487.75 236.066 487.276 236.067Z" fill="#584360"/>
<path d="M741.436 592.713C741.436 593.599 742.139 594.276 742.999 594.276C743.884 594.276 744.588 593.599 744.588 592.713V576.563C744.588 575.703 743.884 575 742.999 575C742.113 575 741.436 575.703 741.436 576.563V592.713Z" fill="white"/>
<path d="M748.655 576.849C748.655 577.787 749.436 578.412 750.452 578.412C751.468 578.412 752.249 577.787 752.249 576.849V576.693C752.249 575.755 751.468 575.156 750.452 575.156C749.436 575.156 748.655 575.755 748.655 576.693V576.849ZM748.889 592.713C748.889 593.599 749.592 594.276 750.452 594.276C751.338 594.276 752.041 593.599 752.041 592.713V581.825C752.041 580.939 751.338 580.236 750.452 580.236C749.566 580.236 748.889 580.939 748.889 581.825V592.713Z" fill="white"/>
<path d="M756.16 592.713C756.16 593.573 756.864 594.276 757.723 594.276C758.609 594.276 759.312 593.573 759.312 592.713V592.01C760.276 593.287 761.709 594.433 764.001 594.433C767.257 594.433 770.383 591.854 770.383 587.295V587.243C770.383 582.658 767.231 580.106 764.001 580.106C761.761 580.106 760.328 581.252 759.312 582.685V576.563C759.312 575.677 758.609 575 757.723 575C756.838 575 756.16 575.677 756.16 576.563V592.713ZM763.246 591.698C761.11 591.698 759.234 589.926 759.234 587.295V587.243C759.234 584.612 761.11 582.841 763.246 582.841C765.382 582.841 767.179 584.586 767.179 587.243V587.295C767.179 590.004 765.408 591.698 763.246 591.698Z" fill="white"/>
<path d="M773.819 592.713C773.819 593.599 774.522 594.276 775.382 594.276C776.268 594.276 776.971 593.599 776.971 592.713V576.563C776.971 575.703 776.268 575 775.382 575C774.496 575 773.819 575.703 773.819 576.563V592.713Z" fill="white"/>
<path d="M787.629 594.459C791.875 594.459 795.001 591.203 795.001 587.295V587.243C795.001 583.31 791.901 580.106 787.681 580.106C783.461 580.106 780.335 583.362 780.335 587.295V587.347C780.335 591.255 783.435 594.459 787.629 594.459ZM787.681 591.698C785.232 591.698 783.487 589.692 783.487 587.295V587.243C783.487 584.847 785.102 582.867 787.629 582.867C790.103 582.867 791.849 584.873 791.849 587.295V587.347C791.849 589.718 790.234 591.698 787.681 591.698Z" fill="white"/>
<path d="M736.96 590.09C735.74 590.65 734.453 591.046 733.208 591.294C728.074 592.314 725.36 589.099 729.634 586.781C730.099 586.529 730.632 586.291 731.228 586.075L732.011 585.826C732.241 585.763 732.463 585.661 732.534 585.515C732.905 584.723 729.731 584.467 727.622 585.589C728.458 585.431 729.186 585.408 729.668 585.609C724.878 586.845 723.788 590.757 726.335 592.642C727.649 593.615 729.127 593.873 731.832 593.682C733.637 593.555 735.48 592.837 736.96 591.969V590.09Z" fill="white"/>
<path d="M734.542 592.784C734.542 593.607 735.171 594.165 736.03 594.165C736.89 594.165 737.478 593.644 737.478 592.784V586.011C737.478 584.214 737.009 582.755 735.993 581.765C735.029 580.776 733.492 580.228 731.434 580.228C729.637 580.228 728.308 580.541 727.006 581.036C726.537 581.218 726.146 581.713 726.146 582.286C726.146 583.016 726.745 583.589 727.475 583.589C727.631 583.589 727.787 583.563 727.97 583.511C728.829 583.172 729.819 582.964 731.018 582.964C733.232 582.964 734.43 584.006 734.43 585.959V585.968L734.542 592.784Z" fill="white"/>
<path d="M733.611 578.379C733.611 578.591 733.273 578.721 732.805 578.721C732.077 578.721 731.583 578.64 730.984 578.282L729.216 577.24C728.956 577.093 728.774 576.93 728.774 576.751C728.774 576.442 729.814 576.116 730.646 576.116C731.192 576.116 731.609 576.295 731.895 576.589L733.377 578.021C733.481 578.119 733.611 578.265 733.611 578.379Z" fill="white"/>
<defs>
<linearGradient id="paint0_linear_5188_13022" x1="1567.09" y1="-429.661" x2="-3.9657" y2="593.913" gradientUnits="userSpaceOnUse">
<stop offset="0.473944" stop-color="#BDC3C7"/>
<stop offset="1" stop-color="#2C3E50"/>
</linearGradient>
</defs>
</svg>
