<svg width="800" height="600" viewBox="0 0 800 600" fill="none" xmlns="http://www.w3.org/2000/svg">
<rect width="800" height="600" fill="url(#paint0_linear_5189_12167)"/>
<path d="M115.914 395.617H87.0469V408.859H112.32V418.859H87.0469V443H75.0938V385.5H115.914V395.617ZM134.547 400.422V443H123.258V400.422H134.547ZM134.547 385.07V395.344H123.258V385.07H134.547ZM157.398 450.461C158.596 451.477 160.615 451.984 163.453 451.984C167.464 451.984 170.146 450.643 171.5 447.961C172.385 446.242 172.828 443.352 172.828 439.289V436.555C171.76 438.378 170.615 439.745 169.391 440.656C167.177 442.349 164.299 443.195 160.758 443.195C155.289 443.195 150.914 441.281 147.633 437.453C144.378 433.599 142.75 428.391 142.75 421.828C142.75 415.5 144.326 410.188 147.477 405.891C150.628 401.568 155.094 399.406 160.875 399.406C163.01 399.406 164.872 399.732 166.461 400.383C169.169 401.503 171.357 403.56 173.023 406.555V400.422H183.844V440.812C183.844 446.307 182.919 450.448 181.07 453.234C177.893 458.026 171.799 460.422 162.789 460.422C157.346 460.422 152.906 459.354 149.469 457.219C146.031 455.083 144.13 451.893 143.766 447.648H155.875C156.188 448.951 156.695 449.888 157.398 450.461ZM155.523 428.469C157.034 432.062 159.742 433.859 163.648 433.859C166.253 433.859 168.453 432.883 170.25 430.93C172.047 428.951 172.945 425.812 172.945 421.516C172.945 417.479 172.086 414.406 170.367 412.297C168.674 410.188 166.396 409.133 163.531 409.133C159.625 409.133 156.93 410.969 155.445 414.641C154.664 416.594 154.273 419.003 154.273 421.867C154.273 424.341 154.69 426.542 155.523 428.469ZM218.18 412.141C217.242 410.083 215.406 409.055 212.672 409.055C209.495 409.055 207.359 410.083 206.266 412.141C205.667 413.312 205.367 415.057 205.367 417.375V443H194.078V400.5H204.898V406.711C206.279 404.497 207.581 402.922 208.805 401.984C210.966 400.318 213.766 399.484 217.203 399.484C220.458 399.484 223.089 400.201 225.094 401.633C226.708 402.961 227.932 404.667 228.766 406.75C230.224 404.25 232.034 402.414 234.195 401.242C236.487 400.07 239.039 399.484 241.852 399.484C243.727 399.484 245.576 399.849 247.398 400.578C249.221 401.307 250.875 402.583 252.359 404.406C253.557 405.891 254.365 407.714 254.781 409.875C255.042 411.307 255.172 413.404 255.172 416.164L255.094 443H243.688V415.891C243.688 414.276 243.427 412.948 242.906 411.906C241.917 409.927 240.094 408.938 237.438 408.938C234.365 408.938 232.242 410.214 231.07 412.766C230.471 414.12 230.172 415.747 230.172 417.648V443H218.961V417.648C218.961 415.122 218.701 413.286 218.18 412.141ZM267.047 405.031C269.99 401.281 275.042 399.406 282.203 399.406C286.865 399.406 291.005 400.331 294.625 402.18C298.245 404.029 300.055 407.518 300.055 412.648V432.18C300.055 433.534 300.081 435.174 300.133 437.102C300.211 438.56 300.432 439.549 300.797 440.07C301.161 440.591 301.708 441.021 302.438 441.359V443H290.328C289.99 442.141 289.755 441.333 289.625 440.578C289.495 439.823 289.391 438.964 289.312 438C287.776 439.667 286.005 441.086 284 442.258C281.604 443.638 278.896 444.328 275.875 444.328C272.021 444.328 268.831 443.234 266.305 441.047C263.805 438.833 262.555 435.708 262.555 431.672C262.555 426.438 264.573 422.648 268.609 420.305C270.823 419.029 274.078 418.117 278.375 417.57L282.164 417.102C284.221 416.841 285.693 416.516 286.578 416.125C288.167 415.448 288.961 414.393 288.961 412.961C288.961 411.216 288.349 410.018 287.125 409.367C285.927 408.69 284.156 408.352 281.812 408.352C279.182 408.352 277.32 409.003 276.227 410.305C275.445 411.268 274.924 412.57 274.664 414.211H263.922C264.156 410.487 265.198 407.427 267.047 405.031ZM275.328 434.953C276.37 435.812 277.646 436.242 279.156 436.242C281.552 436.242 283.753 435.539 285.758 434.133C287.789 432.727 288.844 430.161 288.922 426.438V422.297C288.219 422.74 287.503 423.104 286.773 423.391C286.07 423.651 285.094 423.898 283.844 424.133L281.344 424.602C279 425.018 277.32 425.526 276.305 426.125C274.586 427.141 273.727 428.716 273.727 430.852C273.727 432.753 274.26 434.12 275.328 434.953ZM384.156 443H368.688L350.914 417.844L345.172 423.742V443H333.336V385.422H345.172V409.133L367.398 385.422H382.945L359.352 409.133L384.156 443ZM426.5 430.5C426.214 433.026 424.898 435.591 422.555 438.195C418.909 442.336 413.805 444.406 407.242 444.406C401.826 444.406 397.047 442.661 392.906 439.172C388.766 435.682 386.695 430.005 386.695 422.141C386.695 414.771 388.557 409.12 392.281 405.188C396.031 401.255 400.888 399.289 406.852 399.289C410.393 399.289 413.583 399.953 416.422 401.281C419.26 402.609 421.604 404.706 423.453 407.57C425.12 410.096 426.201 413.026 426.695 416.359C426.982 418.312 427.099 421.125 427.047 424.797H397.906C398.062 429.068 399.404 432.062 401.93 433.781C403.466 434.849 405.315 435.383 407.477 435.383C409.768 435.383 411.63 434.732 413.062 433.43C413.844 432.727 414.534 431.75 415.133 430.5H426.5ZM415.484 417.453C415.302 414.51 414.404 412.284 412.789 410.773C411.201 409.237 409.221 408.469 406.852 408.469C404.273 408.469 402.268 409.276 400.836 410.891C399.43 412.505 398.544 414.693 398.18 417.453H415.484ZM451.891 431.828L460.68 400.422H472.516L457.906 442.297C455.094 450.37 452.867 455.37 451.227 457.297C449.586 459.25 446.305 460.227 441.383 460.227C440.393 460.227 439.599 460.214 439 460.188C438.401 460.188 437.503 460.148 436.305 460.07V451.164L437.711 451.242C438.805 451.294 439.846 451.255 440.836 451.125C441.826 450.995 442.659 450.695 443.336 450.227C443.987 449.784 444.586 448.859 445.133 447.453C445.706 446.047 445.94 445.188 445.836 444.875L430.211 400.422H442.594L451.891 431.828ZM115.914 487.617H87.0469V500.859H112.32V510.859H87.0469V535H75.0938V477.5H115.914V487.617ZM159.547 522.5C159.26 525.026 157.945 527.591 155.602 530.195C151.956 534.336 146.852 536.406 140.289 536.406C134.872 536.406 130.094 534.661 125.953 531.172C121.812 527.682 119.742 522.005 119.742 514.141C119.742 506.771 121.604 501.12 125.328 497.188C129.078 493.255 133.935 491.289 139.898 491.289C143.44 491.289 146.63 491.953 149.469 493.281C152.307 494.609 154.651 496.706 156.5 499.57C158.167 502.096 159.247 505.026 159.742 508.359C160.029 510.312 160.146 513.125 160.094 516.797H130.953C131.109 521.068 132.451 524.062 134.977 525.781C136.513 526.849 138.362 527.383 140.523 527.383C142.815 527.383 144.677 526.732 146.109 525.43C146.891 524.727 147.581 523.75 148.18 522.5H159.547ZM148.531 509.453C148.349 506.51 147.451 504.284 145.836 502.773C144.247 501.237 142.268 500.469 139.898 500.469C137.32 500.469 135.315 501.276 133.883 502.891C132.477 504.505 131.591 506.693 131.227 509.453H148.531ZM169.234 497.031C172.177 493.281 177.229 491.406 184.391 491.406C189.052 491.406 193.193 492.331 196.812 494.18C200.432 496.029 202.242 499.518 202.242 504.648V524.18C202.242 525.534 202.268 527.174 202.32 529.102C202.398 530.56 202.62 531.549 202.984 532.07C203.349 532.591 203.896 533.021 204.625 533.359V535H192.516C192.177 534.141 191.943 533.333 191.812 532.578C191.682 531.823 191.578 530.964 191.5 530C189.964 531.667 188.193 533.086 186.188 534.258C183.792 535.638 181.083 536.328 178.062 536.328C174.208 536.328 171.018 535.234 168.492 533.047C165.992 530.833 164.742 527.708 164.742 523.672C164.742 518.438 166.76 514.648 170.797 512.305C173.01 511.029 176.266 510.117 180.562 509.57L184.352 509.102C186.409 508.841 187.88 508.516 188.766 508.125C190.354 507.448 191.148 506.393 191.148 504.961C191.148 503.216 190.536 502.018 189.312 501.367C188.115 500.69 186.344 500.352 184 500.352C181.37 500.352 179.508 501.003 178.414 502.305C177.633 503.268 177.112 504.57 176.852 506.211H166.109C166.344 502.487 167.385 499.427 169.234 497.031ZM177.516 526.953C178.557 527.812 179.833 528.242 181.344 528.242C183.74 528.242 185.94 527.539 187.945 526.133C189.977 524.727 191.031 522.161 191.109 518.438V514.297C190.406 514.74 189.69 515.104 188.961 515.391C188.258 515.651 187.281 515.898 186.031 516.133L183.531 516.602C181.188 517.018 179.508 517.526 178.492 518.125C176.773 519.141 175.914 520.716 175.914 522.852C175.914 524.753 176.448 526.12 177.516 526.953ZM231.656 527.07V535.391L226.383 535.586C221.122 535.768 217.529 534.857 215.602 532.852C214.352 531.576 213.727 529.609 213.727 526.953V500.742H207.789V492.812H213.727V480.938H224.742V492.812H231.656V500.742H224.742V523.242C224.742 524.987 224.964 526.081 225.406 526.523C225.849 526.94 227.203 527.148 229.469 527.148C229.807 527.148 230.159 527.148 230.523 527.148C230.914 527.122 231.292 527.096 231.656 527.07ZM266.109 528.984C266.005 529.115 265.745 529.505 265.328 530.156C264.911 530.807 264.417 531.38 263.844 531.875C262.099 533.438 260.406 534.505 258.766 535.078C257.151 535.651 255.25 535.938 253.062 535.938C246.76 535.938 242.516 533.672 240.328 529.141C239.104 526.641 238.492 522.956 238.492 518.086V492.422H249.898V518.086C249.898 520.508 250.185 522.331 250.758 523.555C251.773 525.716 253.766 526.797 256.734 526.797C260.536 526.797 263.141 525.26 264.547 522.188C265.276 520.521 265.641 518.32 265.641 515.586V492.422H276.93V535H266.109V528.984ZM309.117 502.695C304.638 502.695 301.63 504.154 300.094 507.07C299.234 508.711 298.805 511.237 298.805 514.648V535H287.594V492.422H298.219V499.844C299.938 497.005 301.435 495.065 302.711 494.023C304.794 492.279 307.503 491.406 310.836 491.406C311.044 491.406 311.214 491.419 311.344 491.445C311.5 491.445 311.826 491.458 312.32 491.484V502.891C311.617 502.812 310.992 502.76 310.445 502.734C309.898 502.708 309.456 502.695 309.117 502.695ZM355.328 522.5C355.042 525.026 353.727 527.591 351.383 530.195C347.737 534.336 342.633 536.406 336.07 536.406C330.654 536.406 325.875 534.661 321.734 531.172C317.594 527.682 315.523 522.005 315.523 514.141C315.523 506.771 317.385 501.12 321.109 497.188C324.859 493.255 329.716 491.289 335.68 491.289C339.221 491.289 342.411 491.953 345.25 493.281C348.089 494.609 350.432 496.706 352.281 499.57C353.948 502.096 355.029 505.026 355.523 508.359C355.81 510.312 355.927 513.125 355.875 516.797H326.734C326.891 521.068 328.232 524.062 330.758 525.781C332.294 526.849 334.143 527.383 336.305 527.383C338.596 527.383 340.458 526.732 341.891 525.43C342.672 524.727 343.362 523.75 343.961 522.5H355.328ZM344.312 509.453C344.13 506.51 343.232 504.284 341.617 502.773C340.029 501.237 338.049 500.469 335.68 500.469C333.102 500.469 331.096 501.276 329.664 502.891C328.258 504.505 327.372 506.693 327.008 509.453H344.312ZM392.75 494.375C396.083 496.51 397.997 500.182 398.492 505.391H387.359C387.203 503.958 386.799 502.826 386.148 501.992C384.924 500.482 382.841 499.727 379.898 499.727C377.477 499.727 375.745 500.104 374.703 500.859C373.688 501.615 373.18 502.5 373.18 503.516C373.18 504.792 373.727 505.716 374.82 506.289C375.914 506.888 379.781 507.917 386.422 509.375C390.849 510.417 394.169 511.992 396.383 514.102C398.57 516.237 399.664 518.906 399.664 522.109C399.664 526.328 398.089 529.779 394.938 532.461C391.812 535.117 386.969 536.445 380.406 536.445C373.714 536.445 368.766 535.039 365.562 532.227C362.385 529.388 360.797 525.781 360.797 521.406H372.086C372.32 523.385 372.828 524.792 373.609 525.625C374.99 527.109 377.542 527.852 381.266 527.852C383.453 527.852 385.185 527.526 386.461 526.875C387.763 526.224 388.414 525.247 388.414 523.945C388.414 522.695 387.893 521.745 386.852 521.094C385.81 520.443 381.943 519.323 375.25 517.734C370.432 516.536 367.034 515.039 365.055 513.242C363.076 511.471 362.086 508.919 362.086 505.586C362.086 501.654 363.622 498.281 366.695 495.469C369.794 492.63 374.143 491.211 379.742 491.211C385.055 491.211 389.391 492.266 392.75 494.375Z" fill="white" fill-opacity="0.8"/>
<path d="M103.668 257.566C103.668 273.842 105.003 286.31 107.672 294.969C110.341 303.562 115.81 307.859 124.078 307.859C132.346 307.859 137.75 303.562 140.289 294.969C142.893 286.31 144.195 273.842 144.195 257.566C144.195 240.509 142.893 227.879 140.289 219.676C137.75 211.473 132.346 207.371 124.078 207.371C115.81 207.371 110.341 211.473 107.672 219.676C105.003 227.879 103.668 240.509 103.668 257.566ZM124.078 184.422C142.112 184.422 154.742 190.77 161.969 203.465C169.26 216.16 172.906 234.194 172.906 257.566C172.906 280.939 169.26 298.94 161.969 311.57C154.742 324.201 142.112 330.516 124.078 330.516C106.044 330.516 93.3815 324.201 86.0898 311.57C78.8633 298.94 75.25 280.939 75.25 257.566C75.25 234.194 78.8633 216.16 86.0898 203.465C93.3815 190.77 106.044 184.422 124.078 184.422ZM186.578 327C186.839 316.844 189.02 307.566 193.121 299.168C197.092 289.728 206.467 279.734 221.246 269.188C234.072 260.008 242.372 253.432 246.148 249.461C251.943 243.276 254.84 236.505 254.84 229.148C254.84 223.159 253.18 218.178 249.859 214.207C246.539 210.236 241.786 208.25 235.602 208.25C227.138 208.25 221.376 211.408 218.316 217.723C216.559 221.368 215.517 227.163 215.191 235.105H188.141C188.596 223.061 190.777 213.328 194.684 205.906C202.105 191.779 215.289 184.715 234.234 184.715C249.208 184.715 261.122 188.882 269.977 197.215C278.831 205.483 283.258 216.453 283.258 230.125C283.258 240.607 280.133 249.917 273.883 258.055C269.781 263.458 263.043 269.48 253.668 276.121L242.535 284.031C235.569 288.979 230.784 292.56 228.18 294.773C225.641 296.987 223.492 299.559 221.734 302.488H283.551V327H186.578Z" fill="white" fill-opacity="0.5"/>
<path d="M560 125C560 69.7717 604.772 25 660 25C715.228 25 760 69.7717 760 125C760 180.228 715.228 225 660 225C604.772 225 560 180.228 560 125Z" fill="#333333"/>
<path d="M640.62 184.69C651.751 184.69 660.775 175.666 660.775 164.535V144.38H640.62C629.488 144.38 620.465 153.404 620.465 164.535C620.465 175.666 629.488 184.69 640.62 184.69Z" fill="#0ACF83"/>
<path d="M620.465 124.225C620.465 113.093 629.488 104.07 640.62 104.07H660.775V144.38H640.62C629.488 144.38 620.465 135.356 620.465 124.225Z" fill="#A259FF"/>
<path d="M620.465 85.4651C620.465 74.3337 629.488 65.3101 640.62 65.3101H660.775V105.62H640.62C629.488 105.62 620.465 96.5962 620.465 85.4651Z" fill="#F24E1E"/>
<path d="M659.225 65.3101H679.38C690.511 65.3101 699.535 74.3337 699.535 85.4651C699.535 96.5962 690.511 105.62 679.38 105.62H659.225V65.3101Z" fill="#FF7262"/>
<path d="M699.535 124.225C699.535 135.356 690.511 144.38 679.38 144.38C668.248 144.38 659.225 135.356 659.225 124.225C659.225 113.093 668.248 104.07 679.38 104.07C690.511 104.07 699.535 113.093 699.535 124.225Z" fill="#1ABCFE"/>
<path d="M741.436 592.713C741.436 593.599 742.139 594.276 742.999 594.276C743.884 594.276 744.588 593.599 744.588 592.713V576.563C744.588 575.703 743.884 575 742.999 575C742.113 575 741.436 575.703 741.436 576.563V592.713Z" fill="white"/>
<path d="M748.655 576.849C748.655 577.787 749.436 578.412 750.452 578.412C751.468 578.412 752.249 577.787 752.249 576.849V576.693C752.249 575.755 751.468 575.156 750.452 575.156C749.436 575.156 748.655 575.755 748.655 576.693V576.849ZM748.889 592.713C748.889 593.599 749.592 594.276 750.452 594.276C751.338 594.276 752.041 593.599 752.041 592.713V581.825C752.041 580.939 751.338 580.236 750.452 580.236C749.566 580.236 748.889 580.939 748.889 581.825V592.713Z" fill="white"/>
<path d="M756.16 592.713C756.16 593.573 756.864 594.276 757.723 594.276C758.609 594.276 759.312 593.573 759.312 592.713V592.01C760.276 593.287 761.709 594.433 764.001 594.433C767.257 594.433 770.383 591.854 770.383 587.295V587.243C770.383 582.658 767.231 580.106 764.001 580.106C761.761 580.106 760.328 581.252 759.312 582.685V576.563C759.312 575.677 758.609 575 757.723 575C756.838 575 756.16 575.677 756.16 576.563V592.713ZM763.246 591.698C761.11 591.698 759.234 589.926 759.234 587.295V587.243C759.234 584.612 761.11 582.841 763.246 582.841C765.382 582.841 767.179 584.586 767.179 587.243V587.295C767.179 590.004 765.408 591.698 763.246 591.698Z" fill="white"/>
<path d="M773.819 592.713C773.819 593.599 774.522 594.276 775.382 594.276C776.268 594.276 776.971 593.599 776.971 592.713V576.563C776.971 575.703 776.268 575 775.382 575C774.496 575 773.819 575.703 773.819 576.563V592.713Z" fill="white"/>
<path d="M787.629 594.459C791.875 594.459 795.001 591.203 795.001 587.295V587.243C795.001 583.31 791.901 580.106 787.681 580.106C783.461 580.106 780.335 583.362 780.335 587.295V587.347C780.335 591.255 783.435 594.459 787.629 594.459ZM787.681 591.698C785.232 591.698 783.487 589.692 783.487 587.295V587.243C783.487 584.847 785.102 582.867 787.629 582.867C790.103 582.867 791.849 584.873 791.849 587.295V587.347C791.849 589.718 790.234 591.698 787.681 591.698Z" fill="white"/>
<path d="M736.96 590.09C735.74 590.65 734.453 591.047 733.208 591.294C728.074 592.315 725.36 589.099 729.634 586.781C730.099 586.529 730.632 586.291 731.228 586.075L732.011 585.826C732.241 585.763 732.463 585.662 732.534 585.515C732.905 584.723 729.731 584.467 727.622 585.589C728.458 585.431 729.186 585.408 729.668 585.609C724.878 586.845 723.788 590.757 726.335 592.642C727.649 593.615 729.127 593.873 731.832 593.682C733.637 593.555 735.48 592.837 736.96 591.969V590.09Z" fill="white"/>
<path d="M734.542 592.784C734.542 593.607 735.171 594.165 736.03 594.165C736.89 594.165 737.478 593.644 737.478 592.784V586.011C737.478 584.214 737.009 582.755 735.993 581.765C735.029 580.776 733.492 580.229 731.434 580.229C729.637 580.229 728.308 580.541 727.006 581.036C726.537 581.218 726.146 581.713 726.146 582.286C726.146 583.016 726.745 583.589 727.475 583.589C727.631 583.589 727.787 583.563 727.97 583.511C728.829 583.172 729.819 582.964 731.018 582.964C733.232 582.964 734.43 584.006 734.43 585.959V585.968L734.542 592.784Z" fill="white"/>
<path d="M733.611 578.379C733.611 578.591 733.273 578.721 732.805 578.721C732.077 578.721 731.583 578.64 730.984 578.282L729.216 577.24C728.956 577.093 728.774 576.93 728.774 576.751C728.774 576.442 729.814 576.116 730.646 576.116C731.192 576.116 731.609 576.296 731.895 576.589L733.377 578.021C733.481 578.119 733.611 578.266 733.611 578.379Z" fill="white"/>
<defs>
<linearGradient id="paint0_linear_5189_12167" x1="800" y1="0" x2="-2.41943" y2="596.747" gradientUnits="userSpaceOnUse">
<stop stop-color="#8E56FF"/>
<stop offset="0.983883" stop-color="#4700C2"/>
</linearGradient>
</defs>
</svg>
