<svg width="800" height="600" viewBox="0 0 800 600" fill="none" xmlns="http://www.w3.org/2000/svg">
<rect width="800" height="600" fill="white"/>
<rect width="800" height="600" fill="url(#paint0_linear_5188_13028)"/>
<path d="M304.703 318.5H345.523V328.617H316.656V341.859H341.93V351.859H316.656V376H304.703V318.5ZM364.156 328.344H352.867V318.07H364.156V328.344ZM352.867 333.422H364.156V376H352.867V333.422ZM393.258 366.859C395.862 366.859 398.062 365.883 399.859 363.93C401.656 361.951 402.555 358.812 402.555 354.516C402.555 350.479 401.695 347.406 399.977 345.297C398.284 343.188 396.005 342.133 393.141 342.133C389.234 342.133 386.539 343.969 385.055 347.641C384.273 349.594 383.883 352.003 383.883 354.867C383.883 357.341 384.299 359.542 385.133 361.469C386.643 365.062 389.352 366.859 393.258 366.859ZM390.484 332.406C392.62 332.406 394.482 332.732 396.07 333.383C398.779 334.503 400.966 336.56 402.633 339.555V333.422H413.453V373.812C413.453 379.307 412.529 383.448 410.68 386.234C407.503 391.026 401.409 393.422 392.398 393.422C386.956 393.422 382.516 392.354 379.078 390.219C375.641 388.083 373.74 384.893 373.375 380.648H385.484C385.797 381.951 386.305 382.888 387.008 383.461C388.206 384.477 390.224 384.984 393.062 384.984C397.073 384.984 399.755 383.643 401.109 380.961C401.995 379.242 402.438 376.352 402.438 372.289V369.555C401.37 371.378 400.224 372.745 399 373.656C396.786 375.349 393.909 376.195 390.367 376.195C384.898 376.195 380.523 374.281 377.242 370.453C373.987 366.599 372.359 361.391 372.359 354.828C372.359 348.5 373.935 343.188 377.086 338.891C380.237 334.568 384.703 332.406 390.484 332.406ZM471.461 332.484C473.336 332.484 475.185 332.849 477.008 333.578C478.831 334.307 480.484 335.583 481.969 337.406C483.167 338.891 483.974 340.714 484.391 342.875C484.651 344.307 484.781 346.404 484.781 349.164L484.703 376H473.297V348.891C473.297 347.276 473.036 345.948 472.516 344.906C471.526 342.927 469.703 341.938 467.047 341.938C463.974 341.938 461.852 343.214 460.68 345.766C460.081 347.12 459.781 348.747 459.781 350.648V376H448.57V350.648C448.57 348.122 448.31 346.286 447.789 345.141C446.852 343.083 445.016 342.055 442.281 342.055C439.104 342.055 436.969 343.083 435.875 345.141C435.276 346.312 434.977 348.057 434.977 350.375V376H423.688V333.5H434.508V339.711C435.888 337.497 437.19 335.922 438.414 334.984C440.576 333.318 443.375 332.484 446.812 332.484C450.068 332.484 452.698 333.201 454.703 334.633C456.318 335.961 457.542 337.667 458.375 339.75C459.833 337.25 461.643 335.414 463.805 334.242C466.096 333.07 468.648 332.484 471.461 332.484ZM518.531 355.297C517.828 355.74 517.112 356.104 516.383 356.391C515.68 356.651 514.703 356.898 513.453 357.133L510.953 357.602C508.609 358.018 506.93 358.526 505.914 359.125C504.195 360.141 503.336 361.716 503.336 363.852C503.336 365.753 503.857 367.133 504.898 367.992C505.966 368.826 507.255 369.242 508.766 369.242C511.161 369.242 513.362 368.539 515.367 367.133C517.398 365.727 518.453 363.161 518.531 359.438V355.297ZM511.773 350.102C513.831 349.841 515.302 349.516 516.188 349.125C517.776 348.448 518.57 347.393 518.57 345.961C518.57 344.216 517.958 343.018 516.734 342.367C515.536 341.69 513.766 341.352 511.422 341.352C508.792 341.352 506.93 342.003 505.836 343.305C505.055 344.268 504.534 345.57 504.273 347.211H493.531C493.766 343.487 494.807 340.427 496.656 338.031C499.599 334.281 504.651 332.406 511.812 332.406C516.474 332.406 520.615 333.331 524.234 335.18C527.854 337.029 529.664 340.518 529.664 345.648V365.18C529.664 366.534 529.69 368.174 529.742 370.102C529.82 371.56 530.042 372.549 530.406 373.07C530.771 373.591 531.318 374.021 532.047 374.359V376H519.938C519.599 375.141 519.365 374.333 519.234 373.578C519.104 372.823 519 371.964 518.922 371C517.385 372.667 515.615 374.086 513.609 375.258C511.214 376.638 508.505 377.328 505.484 377.328C501.63 377.328 498.44 376.234 495.914 374.047C493.414 371.833 492.164 368.708 492.164 364.672C492.164 359.438 494.182 355.648 498.219 353.305C500.432 352.029 503.688 351.117 507.984 350.57L511.773 350.102ZM200.133 468H188.18V410.422H200.133V468ZM234.078 424.406C238.479 424.406 242.073 425.565 244.859 427.883C247.672 430.174 249.078 433.99 249.078 439.328V468H237.672V442.102C237.672 439.862 237.372 438.143 236.773 436.945C235.68 434.758 233.596 433.664 230.523 433.664C226.747 433.664 224.156 435.266 222.75 438.469C222.021 440.161 221.656 442.323 221.656 444.953V468H210.562V425.5H221.305V431.711C222.737 429.523 224.091 427.948 225.367 426.984C227.659 425.266 230.562 424.406 234.078 424.406ZM255.016 433.742V425.812H260.953V413.938H271.969V425.812H278.883V433.742H271.969V456.242C271.969 457.987 272.19 459.081 272.633 459.523C273.076 459.94 274.43 460.148 276.695 460.148C277.034 460.148 277.385 460.148 277.75 460.148C278.141 460.122 278.518 460.096 278.883 460.07V468.391L273.609 468.586C268.349 468.768 264.755 467.857 262.828 465.852C261.578 464.576 260.953 462.609 260.953 459.953V433.742H255.016ZM309.156 424.406C309.365 424.406 309.534 424.419 309.664 424.445C309.82 424.445 310.146 424.458 310.641 424.484V435.891C309.938 435.812 309.312 435.76 308.766 435.734C308.219 435.708 307.776 435.695 307.438 435.695C302.958 435.695 299.951 437.154 298.414 440.07C297.555 441.711 297.125 444.237 297.125 447.648V468H285.914V425.422H296.539V432.844C298.258 430.005 299.755 428.065 301.031 427.023C303.115 425.279 305.823 424.406 309.156 424.406ZM336.305 460.148C339.56 460.148 342.06 458.99 343.805 456.672C345.549 454.354 346.422 451.06 346.422 446.789C346.422 442.518 345.549 439.237 343.805 436.945C342.06 434.628 339.56 433.469 336.305 433.469C333.049 433.469 330.536 434.628 328.766 436.945C327.021 439.237 326.148 442.518 326.148 446.789C326.148 451.06 327.021 454.354 328.766 456.672C330.536 458.99 333.049 460.148 336.305 460.148ZM358.102 446.789C358.102 453.039 356.305 458.391 352.711 462.844C349.117 467.271 343.661 469.484 336.344 469.484C329.026 469.484 323.57 467.271 319.977 462.844C316.383 458.391 314.586 453.039 314.586 446.789C314.586 440.643 316.383 435.318 319.977 430.812C323.57 426.307 329.026 424.055 336.344 424.055C343.661 424.055 349.117 426.307 352.711 430.812C356.305 435.318 358.102 440.643 358.102 446.789ZM381.812 424.406C384.391 424.406 386.682 424.979 388.688 426.125C390.693 427.245 392.32 428.807 393.57 430.812V410.5H404.859V468H394.039V462.102C392.451 464.628 390.641 466.464 388.609 467.609C386.578 468.755 384.052 469.328 381.031 469.328C376.057 469.328 371.865 467.323 368.453 463.312C365.068 459.276 363.375 454.107 363.375 447.805C363.375 440.539 365.042 434.823 368.375 430.656C371.734 426.49 376.214 424.406 381.812 424.406ZM384.234 459.953C387.385 459.953 389.781 458.781 391.422 456.438C393.062 454.094 393.883 451.06 393.883 447.336C393.883 442.128 392.568 438.404 389.938 436.164C388.323 434.81 386.448 434.133 384.312 434.133C381.057 434.133 378.661 435.37 377.125 437.844C375.615 440.292 374.859 443.339 374.859 446.984C374.859 450.917 375.628 454.068 377.164 456.438C378.727 458.781 381.083 459.953 384.234 459.953ZM426.109 425.422V451.086C426.109 453.508 426.396 455.331 426.969 456.555C427.984 458.716 429.977 459.797 432.945 459.797C436.747 459.797 439.352 458.26 440.758 455.188C441.487 453.521 441.852 451.32 441.852 448.586V425.422H453.141V468H442.32V461.984C442.216 462.115 441.956 462.505 441.539 463.156C441.122 463.807 440.628 464.38 440.055 464.875C438.31 466.438 436.617 467.505 434.977 468.078C433.362 468.651 431.461 468.938 429.273 468.938C422.971 468.938 418.727 466.672 416.539 462.141C415.315 459.641 414.703 455.956 414.703 451.086V425.422H426.109ZM489.352 440.695C489.143 439.107 488.609 437.674 487.75 436.398C486.5 434.68 484.56 433.82 481.93 433.82C478.18 433.82 475.615 435.682 474.234 439.406C473.505 441.385 473.141 444.016 473.141 447.297C473.141 450.422 473.505 452.935 474.234 454.836C475.562 458.378 478.062 460.148 481.734 460.148C484.339 460.148 486.188 459.445 487.281 458.039C488.375 456.633 489.039 454.81 489.273 452.57H500.641C500.38 455.956 499.156 459.159 496.969 462.18C493.479 467.049 488.31 469.484 481.461 469.484C474.612 469.484 469.573 467.453 466.344 463.391C463.115 459.328 461.5 454.055 461.5 447.57C461.5 440.253 463.284 434.562 466.852 430.5C470.419 426.438 475.341 424.406 481.617 424.406C486.956 424.406 491.318 425.604 494.703 428C498.115 430.396 500.133 434.628 500.758 440.695H489.352ZM504.078 433.742V425.812H510.016V413.938H521.031V425.812H527.945V433.742H521.031V456.242C521.031 457.987 521.253 459.081 521.695 459.523C522.138 459.94 523.492 460.148 525.758 460.148C526.096 460.148 526.448 460.148 526.812 460.148C527.203 460.122 527.581 460.096 527.945 460.07V468.391L522.672 468.586C517.411 468.768 513.818 467.857 511.891 465.852C510.641 464.576 510.016 462.609 510.016 459.953V433.742H504.078ZM546.539 420.344H535.25V410.07H546.539V420.344ZM535.25 425.422H546.539V468H535.25V425.422ZM576.461 460.148C579.716 460.148 582.216 458.99 583.961 456.672C585.706 454.354 586.578 451.06 586.578 446.789C586.578 442.518 585.706 439.237 583.961 436.945C582.216 434.628 579.716 433.469 576.461 433.469C573.206 433.469 570.693 434.628 568.922 436.945C567.177 439.237 566.305 442.518 566.305 446.789C566.305 451.06 567.177 454.354 568.922 456.672C570.693 458.99 573.206 460.148 576.461 460.148ZM598.258 446.789C598.258 453.039 596.461 458.391 592.867 462.844C589.273 467.271 583.818 469.484 576.5 469.484C569.182 469.484 563.727 467.271 560.133 462.844C556.539 458.391 554.742 453.039 554.742 446.789C554.742 440.643 556.539 435.318 560.133 430.812C563.727 426.307 569.182 424.055 576.5 424.055C583.818 424.055 589.273 426.307 592.867 430.812C596.461 435.318 598.258 440.643 598.258 446.789ZM629.859 424.406C634.26 424.406 637.854 425.565 640.641 427.883C643.453 430.174 644.859 433.99 644.859 439.328V468H633.453V442.102C633.453 439.862 633.154 438.143 632.555 436.945C631.461 434.758 629.378 433.664 626.305 433.664C622.529 433.664 619.938 435.266 618.531 438.469C617.802 440.161 617.438 442.323 617.438 444.953V468H606.344V425.5H617.086V431.711C618.518 429.523 619.872 427.948 621.148 426.984C623.44 425.266 626.344 424.406 629.859 424.406Z" fill="white" fill-opacity="0.8"/>
<path d="M315 165C315 109.772 359.772 65 415 65C470.228 65 515 109.772 515 165C515 220.228 470.228 265 415 265C359.772 265 315 220.228 315 165Z" fill="#333333"/>
<path d="M395.62 224.69C406.751 224.69 415.775 215.666 415.775 204.535V184.38H395.62C384.488 184.38 375.465 193.404 375.465 204.535C375.465 215.666 384.488 224.69 395.62 224.69Z" fill="#0ACF83"/>
<path d="M375.465 164.225C375.465 153.093 384.488 144.07 395.62 144.07H415.775V184.38H395.62C384.488 184.38 375.465 175.356 375.465 164.225Z" fill="#A259FF"/>
<path d="M375.465 125.465C375.465 114.334 384.488 105.31 395.62 105.31H415.775V145.62H395.62C384.488 145.62 375.465 136.596 375.465 125.465Z" fill="#F24E1E"/>
<path d="M414.225 105.31H434.38C445.511 105.31 454.535 114.334 454.535 125.465C454.535 136.596 445.511 145.62 434.38 145.62H414.225V105.31Z" fill="#FF7262"/>
<path d="M454.535 164.225C454.535 175.356 445.511 184.38 434.38 184.38C423.248 184.38 414.225 175.356 414.225 164.225C414.225 153.093 423.248 144.07 434.38 144.07C445.511 144.07 454.535 153.093 454.535 164.225Z" fill="#1ABCFE"/>
<path d="M741.436 592.713C741.436 593.599 742.139 594.276 742.999 594.276C743.884 594.276 744.588 593.599 744.588 592.713V576.563C744.588 575.703 743.884 575 742.999 575C742.113 575 741.436 575.703 741.436 576.563V592.713Z" fill="white"/>
<path d="M748.655 576.849C748.655 577.787 749.436 578.412 750.452 578.412C751.468 578.412 752.249 577.787 752.249 576.849V576.693C752.249 575.755 751.468 575.156 750.452 575.156C749.436 575.156 748.655 575.755 748.655 576.693V576.849ZM748.889 592.713C748.889 593.599 749.592 594.276 750.452 594.276C751.338 594.276 752.041 593.599 752.041 592.713V581.825C752.041 580.939 751.338 580.236 750.452 580.236C749.566 580.236 748.889 580.939 748.889 581.825V592.713Z" fill="white"/>
<path d="M756.16 592.713C756.16 593.573 756.864 594.276 757.723 594.276C758.609 594.276 759.312 593.573 759.312 592.713V592.01C760.276 593.287 761.709 594.433 764.001 594.433C767.257 594.433 770.383 591.854 770.383 587.295V587.243C770.383 582.658 767.231 580.106 764.001 580.106C761.761 580.106 760.328 581.252 759.312 582.685V576.563C759.312 575.677 758.609 575 757.723 575C756.838 575 756.16 575.677 756.16 576.563V592.713ZM763.246 591.698C761.11 591.698 759.234 589.926 759.234 587.295V587.243C759.234 584.612 761.11 582.841 763.246 582.841C765.382 582.841 767.179 584.586 767.179 587.243V587.295C767.179 590.004 765.408 591.698 763.246 591.698Z" fill="white"/>
<path d="M773.819 592.713C773.819 593.599 774.522 594.276 775.382 594.276C776.268 594.276 776.971 593.599 776.971 592.713V576.563C776.971 575.703 776.268 575 775.382 575C774.496 575 773.819 575.703 773.819 576.563V592.713Z" fill="white"/>
<path d="M787.629 594.459C791.875 594.459 795.001 591.203 795.001 587.295V587.243C795.001 583.31 791.901 580.106 787.681 580.106C783.461 580.106 780.335 583.362 780.335 587.295V587.347C780.335 591.255 783.435 594.459 787.629 594.459ZM787.681 591.698C785.232 591.698 783.487 589.692 783.487 587.295V587.243C783.487 584.847 785.102 582.867 787.629 582.867C790.103 582.867 791.849 584.873 791.849 587.295V587.347C791.849 589.718 790.234 591.698 787.681 591.698Z" fill="white"/>
<path d="M736.96 590.09C735.74 590.65 734.453 591.046 733.208 591.294C728.074 592.314 725.36 589.099 729.634 586.781C730.099 586.529 730.632 586.291 731.228 586.075L732.011 585.826C732.241 585.763 732.463 585.661 732.534 585.515C732.905 584.723 729.731 584.467 727.622 585.589C728.458 585.431 729.186 585.408 729.668 585.609C724.878 586.845 723.788 590.757 726.335 592.642C727.649 593.615 729.127 593.873 731.832 593.682C733.637 593.555 735.48 592.837 736.96 591.969V590.09Z" fill="url(#paint1_linear_5188_13028)"/>
<path d="M734.542 592.784C734.542 593.607 735.171 594.165 736.03 594.165C736.89 594.165 737.478 593.644 737.478 592.784V586.011C737.478 584.214 737.009 582.755 735.993 581.765C735.029 580.775 733.492 580.228 731.434 580.228C729.637 580.228 728.308 580.541 727.006 581.036C726.537 581.218 726.146 581.713 726.146 582.286C726.146 583.016 726.745 583.589 727.475 583.589C727.631 583.589 727.787 583.563 727.97 583.511C728.829 583.172 729.819 582.964 731.018 582.964C733.232 582.964 734.43 584.006 734.43 585.959V585.968L734.542 592.784Z" fill="url(#paint2_linear_5188_13028)"/>
<path d="M733.611 578.379C733.611 578.591 733.273 578.721 732.805 578.721C732.077 578.721 731.583 578.64 730.984 578.282L729.216 577.24C728.956 577.093 728.774 576.93 728.774 576.751C728.774 576.442 729.814 576.116 730.646 576.116C731.192 576.116 731.609 576.295 731.895 576.589L733.377 578.021C733.481 578.119 733.611 578.265 733.611 578.379Z" fill="url(#paint3_linear_5188_13028)"/>
<defs>
<linearGradient id="paint0_linear_5188_13028" x1="800" y1="0" x2="-2.41943" y2="596.747" gradientUnits="userSpaceOnUse">
<stop stop-color="#8E56FF"/>
<stop offset="0.983883" stop-color="#4700C2"/>
</linearGradient>
<linearGradient id="paint1_linear_5188_13028" x1="719.394" y1="601.3" x2="738.186" y2="600.76" gradientUnits="userSpaceOnUse">
<stop stop-color="white"/>
<stop offset="1" stop-color="#009AF9"/>
</linearGradient>
<linearGradient id="paint2_linear_5188_13028" x1="719.394" y1="601.3" x2="738.186" y2="600.76" gradientUnits="userSpaceOnUse">
<stop stop-color="white"/>
<stop offset="1" stop-color="#009AF9"/>
</linearGradient>
<linearGradient id="paint3_linear_5188_13028" x1="719.394" y1="601.3" x2="738.186" y2="600.76" gradientUnits="userSpaceOnUse">
<stop stop-color="white"/>
<stop offset="1" stop-color="#009AF9"/>
</linearGradient>
</defs>
</svg>
