<svg width="800" height="600" viewBox="0 0 800 600" fill="none" xmlns="http://www.w3.org/2000/svg">
<rect width="800" height="600" fill="url(#paint0_linear_5189_12261)"/>
<path d="M109.156 316.812V281.422H121.383V316.812C121.383 322.932 120.432 327.698 118.531 331.109C114.99 337.359 108.232 340.484 98.2578 340.484C88.2839 340.484 81.513 337.359 77.9453 331.109C76.0443 327.698 75.0938 322.932 75.0938 316.812V281.422H87.3203V316.812C87.3203 320.771 87.7891 323.661 88.7266 325.484C90.1849 328.714 93.362 330.328 98.2578 330.328C103.128 330.328 106.292 328.714 107.75 325.484C108.688 323.661 109.156 320.771 109.156 316.812ZM131.969 281.422H143.922V339H131.969V281.422ZM218.062 334.703C213.766 338.635 208.271 340.602 201.578 340.602C193.297 340.602 186.786 337.945 182.047 332.633C177.307 327.294 174.938 319.977 174.938 310.68C174.938 300.628 177.633 292.88 183.023 287.438C187.711 282.698 193.674 280.328 200.914 280.328C210.602 280.328 217.685 283.505 222.164 289.859C224.638 293.427 225.966 297.008 226.148 300.602H214.117C213.336 297.841 212.333 295.758 211.109 294.352C208.922 291.852 205.68 290.602 201.383 290.602C197.008 290.602 193.557 292.372 191.031 295.914C188.505 299.43 187.242 304.417 187.242 310.875C187.242 317.333 188.57 322.177 191.227 325.406C193.909 328.609 197.307 330.211 201.422 330.211C205.641 330.211 208.857 328.831 211.07 326.07C212.294 324.586 213.31 322.359 214.117 319.391H226.031C224.99 325.667 222.333 330.771 218.062 334.703ZM269.859 301.812C273.453 306.318 275.25 311.643 275.25 317.789C275.25 324.039 273.453 329.391 269.859 333.844C266.266 338.271 260.81 340.484 253.492 340.484C246.174 340.484 240.719 338.271 237.125 333.844C233.531 329.391 231.734 324.039 231.734 317.789C231.734 311.643 233.531 306.318 237.125 301.812C240.719 297.307 246.174 295.055 253.492 295.055C260.81 295.055 266.266 297.307 269.859 301.812ZM253.453 304.469C250.198 304.469 247.685 305.628 245.914 307.945C244.169 310.237 243.297 313.518 243.297 317.789C243.297 322.06 244.169 325.354 245.914 327.672C247.685 329.99 250.198 331.148 253.453 331.148C256.708 331.148 259.208 329.99 260.953 327.672C262.698 325.354 263.57 322.06 263.57 317.789C263.57 313.518 262.698 310.237 260.953 307.945C259.208 305.628 256.708 304.469 253.453 304.469ZM303.297 304.664C299.521 304.664 296.93 306.266 295.523 309.469C294.794 311.161 294.43 313.323 294.43 315.953V339H283.336V296.5H294.078V302.711C295.51 300.523 296.865 298.948 298.141 297.984C300.432 296.266 303.336 295.406 306.852 295.406C311.253 295.406 314.846 296.565 317.633 298.883C320.445 301.174 321.852 304.99 321.852 310.328V339H310.445V313.102C310.445 310.862 310.146 309.143 309.547 307.945C308.453 305.758 306.37 304.664 303.297 304.664ZM369 311.695H357.594C357.385 310.107 356.852 308.674 355.992 307.398C354.742 305.68 352.802 304.82 350.172 304.82C346.422 304.82 343.857 306.682 342.477 310.406C341.747 312.385 341.383 315.016 341.383 318.297C341.383 321.422 341.747 323.935 342.477 325.836C343.805 329.378 346.305 331.148 349.977 331.148C352.581 331.148 354.43 330.445 355.523 329.039C356.617 327.633 357.281 325.81 357.516 323.57H368.883C368.622 326.956 367.398 330.159 365.211 333.18C361.721 338.049 356.552 340.484 349.703 340.484C342.854 340.484 337.815 338.453 334.586 334.391C331.357 330.328 329.742 325.055 329.742 318.57C329.742 311.253 331.526 305.562 335.094 301.5C338.661 297.438 343.583 295.406 349.859 295.406C355.198 295.406 359.56 296.604 362.945 299C366.357 301.396 368.375 305.628 369 311.695ZM413.141 326.5C412.854 329.026 411.539 331.591 409.195 334.195C405.549 338.336 400.445 340.406 393.883 340.406C388.466 340.406 383.688 338.661 379.547 335.172C375.406 331.682 373.336 326.005 373.336 318.141C373.336 310.771 375.198 305.12 378.922 301.188C382.672 297.255 387.529 295.289 393.492 295.289C397.034 295.289 400.224 295.953 403.062 297.281C405.901 298.609 408.245 300.706 410.094 303.57C411.76 306.096 412.841 309.026 413.336 312.359C413.622 314.312 413.74 317.125 413.688 320.797H384.547C384.703 325.068 386.044 328.062 388.57 329.781C390.107 330.849 391.956 331.383 394.117 331.383C396.409 331.383 398.271 330.732 399.703 329.43C400.484 328.727 401.174 327.75 401.773 326.5H413.141ZM402.125 313.453C401.943 310.51 401.044 308.284 399.43 306.773C397.841 305.237 395.862 304.469 393.492 304.469C390.914 304.469 388.909 305.276 387.477 306.891C386.07 308.505 385.185 310.693 384.82 313.453H402.125ZM456.891 300.992C460.328 304.664 462.047 310.055 462.047 317.164C462.047 324.664 460.354 330.38 456.969 334.312C453.609 338.245 449.273 340.211 443.961 340.211C440.576 340.211 437.763 339.365 435.523 337.672C434.299 336.734 433.102 335.367 431.93 333.57V355.758H420.914V296.422H431.578V302.711C432.776 300.862 434.052 299.404 435.406 298.336C437.88 296.435 440.823 295.484 444.234 295.484C449.208 295.484 453.427 297.32 456.891 300.992ZM450.562 317.711C450.562 314.43 449.807 311.526 448.297 309C446.812 306.474 444.391 305.211 441.031 305.211C436.995 305.211 434.221 307.125 432.711 310.953C431.93 312.984 431.539 315.562 431.539 318.688C431.539 323.635 432.854 327.112 435.484 329.117C437.047 330.289 438.896 330.875 441.031 330.875C444.13 330.875 446.487 329.677 448.102 327.281C449.742 324.885 450.562 321.695 450.562 317.711ZM489.625 331.07V339.391L484.352 339.586C479.091 339.768 475.497 338.857 473.57 336.852C472.32 335.576 471.695 333.609 471.695 330.953V304.742H465.758V296.812H471.695V284.938H482.711V296.812H489.625V304.742H482.711V327.242C482.711 328.987 482.932 330.081 483.375 330.523C483.818 330.94 485.172 331.148 487.438 331.148C487.776 331.148 488.128 331.148 488.492 331.148C488.883 331.122 489.26 331.096 489.625 331.07ZM99.8984 431H75.0938V373.422H99.8984C103.466 373.474 106.435 373.891 108.805 374.672C112.841 376 116.109 378.435 118.609 381.977C120.615 384.841 121.982 387.94 122.711 391.273C123.44 394.607 123.805 397.784 123.805 400.805C123.805 408.461 122.268 414.945 119.195 420.258C115.029 427.419 108.596 431 99.8984 431ZM108.844 388.109C106.995 384.984 103.336 383.422 97.8672 383.422H86.7734V421H97.8672C103.544 421 107.503 418.201 109.742 412.602C110.966 409.529 111.578 405.87 111.578 401.625C111.578 395.766 110.667 391.26 108.844 388.109ZM168.453 418.5C168.167 421.026 166.852 423.591 164.508 426.195C160.862 430.336 155.758 432.406 149.195 432.406C143.779 432.406 139 430.661 134.859 427.172C130.719 423.682 128.648 418.005 128.648 410.141C128.648 402.771 130.51 397.12 134.234 393.188C137.984 389.255 142.841 387.289 148.805 387.289C152.346 387.289 155.536 387.953 158.375 389.281C161.214 390.609 163.557 392.706 165.406 395.57C167.073 398.096 168.154 401.026 168.648 404.359C168.935 406.312 169.052 409.125 169 412.797H139.859C140.016 417.068 141.357 420.062 143.883 421.781C145.419 422.849 147.268 423.383 149.43 423.383C151.721 423.383 153.583 422.732 155.016 421.43C155.797 420.727 156.487 419.75 157.086 418.5H168.453ZM157.438 405.453C157.255 402.51 156.357 400.284 154.742 398.773C153.154 397.237 151.174 396.469 148.805 396.469C146.227 396.469 144.221 397.276 142.789 398.891C141.383 400.505 140.497 402.693 140.133 405.453H157.438ZM205.875 390.375C209.208 392.51 211.122 396.182 211.617 401.391H200.484C200.328 399.958 199.924 398.826 199.273 397.992C198.049 396.482 195.966 395.727 193.023 395.727C190.602 395.727 188.87 396.104 187.828 396.859C186.812 397.615 186.305 398.5 186.305 399.516C186.305 400.792 186.852 401.716 187.945 402.289C189.039 402.888 192.906 403.917 199.547 405.375C203.974 406.417 207.294 407.992 209.508 410.102C211.695 412.237 212.789 414.906 212.789 418.109C212.789 422.328 211.214 425.779 208.062 428.461C204.938 431.117 200.094 432.445 193.531 432.445C186.839 432.445 181.891 431.039 178.688 428.227C175.51 425.388 173.922 421.781 173.922 417.406H185.211C185.445 419.385 185.953 420.792 186.734 421.625C188.115 423.109 190.667 423.852 194.391 423.852C196.578 423.852 198.31 423.526 199.586 422.875C200.888 422.224 201.539 421.247 201.539 419.945C201.539 418.695 201.018 417.745 199.977 417.094C198.935 416.443 195.068 415.323 188.375 413.734C183.557 412.536 180.159 411.039 178.18 409.242C176.201 407.471 175.211 404.919 175.211 401.586C175.211 397.654 176.747 394.281 179.82 391.469C182.919 388.63 187.268 387.211 192.867 387.211C198.18 387.211 202.516 388.266 205.875 390.375ZM232.516 388.422V431H221.227V388.422H232.516ZM232.516 373.07V383.344H221.227V373.07H232.516ZM255.367 438.461C256.565 439.477 258.583 439.984 261.422 439.984C265.432 439.984 268.115 438.643 269.469 435.961C270.354 434.242 270.797 431.352 270.797 427.289V424.555C269.729 426.378 268.583 427.745 267.359 428.656C265.146 430.349 262.268 431.195 258.727 431.195C253.258 431.195 248.883 429.281 245.602 425.453C242.346 421.599 240.719 416.391 240.719 409.828C240.719 403.5 242.294 398.188 245.445 393.891C248.596 389.568 253.062 387.406 258.844 387.406C260.979 387.406 262.841 387.732 264.43 388.383C267.138 389.503 269.326 391.56 270.992 394.555V388.422H281.812V428.812C281.812 434.307 280.888 438.448 279.039 441.234C275.862 446.026 269.768 448.422 260.758 448.422C255.315 448.422 250.875 447.354 247.438 445.219C244 443.083 242.099 439.893 241.734 435.648H253.844C254.156 436.951 254.664 437.888 255.367 438.461ZM253.492 416.469C255.003 420.062 257.711 421.859 261.617 421.859C264.221 421.859 266.422 420.883 268.219 418.93C270.016 416.951 270.914 413.812 270.914 409.516C270.914 405.479 270.055 402.406 268.336 400.297C266.643 398.188 264.365 397.133 261.5 397.133C257.594 397.133 254.898 398.969 253.414 402.641C252.633 404.594 252.242 407.003 252.242 409.867C252.242 412.341 252.659 414.542 253.492 416.469ZM312.281 396.664C308.505 396.664 305.914 398.266 304.508 401.469C303.779 403.161 303.414 405.323 303.414 407.953V431H292.32V388.5H303.062V394.711C304.495 392.523 305.849 390.948 307.125 389.984C309.417 388.266 312.32 387.406 315.836 387.406C320.237 387.406 323.831 388.565 326.617 390.883C329.43 393.174 330.836 396.99 330.836 402.328V431H319.43V405.102C319.43 402.862 319.13 401.143 318.531 399.945C317.438 397.758 315.354 396.664 312.281 396.664ZM395.719 431L389.039 399.984L382.281 431H370.719L358.766 388.422H370.719L377.359 418.969L383.492 388.422H394.781L401.266 419.086L407.906 388.422H419.508L407.164 431H395.719ZM437.125 388.422V431H425.836V388.422H437.125ZM437.125 373.07V383.344H425.836V373.07H437.125ZM467.438 423.07V431.391L462.164 431.586C456.904 431.768 453.31 430.857 451.383 428.852C450.133 427.576 449.508 425.609 449.508 422.953V396.742H443.57V388.812H449.508V376.938H460.523V388.812H467.438V396.742H460.523V419.242C460.523 420.987 460.745 422.081 461.188 422.523C461.63 422.94 462.984 423.148 465.25 423.148C465.589 423.148 465.94 423.148 466.305 423.148C466.695 423.122 467.073 423.096 467.438 423.07ZM513.062 406V431H501.695V405.102C501.695 402.81 501.305 400.961 500.523 399.555C499.508 397.576 497.581 396.586 494.742 396.586C491.799 396.586 489.56 397.576 488.023 399.555C486.513 401.508 485.758 404.307 485.758 407.953V431H474.664V373.617H485.758V393.969C487.372 391.495 489.234 389.776 491.344 388.812C493.479 387.823 495.719 387.328 498.062 387.328C500.693 387.328 503.076 387.784 505.211 388.695C507.372 389.607 509.143 391 510.523 392.875C511.695 394.464 512.411 396.104 512.672 397.797C512.932 399.464 513.062 402.198 513.062 406ZM115.914 475.617H87.0469V488.859H112.32V498.859H87.0469V523H75.0938V465.5H115.914V475.617ZM134.547 480.422V523H123.258V480.422H134.547ZM134.547 465.07V475.344H123.258V465.07H134.547ZM157.398 530.461C158.596 531.477 160.615 531.984 163.453 531.984C167.464 531.984 170.146 530.643 171.5 527.961C172.385 526.242 172.828 523.352 172.828 519.289V516.555C171.76 518.378 170.615 519.745 169.391 520.656C167.177 522.349 164.299 523.195 160.758 523.195C155.289 523.195 150.914 521.281 147.633 517.453C144.378 513.599 142.75 508.391 142.75 501.828C142.75 495.5 144.326 490.188 147.477 485.891C150.628 481.568 155.094 479.406 160.875 479.406C163.01 479.406 164.872 479.732 166.461 480.383C169.169 481.503 171.357 483.56 173.023 486.555V480.422H183.844V520.812C183.844 526.307 182.919 530.448 181.07 533.234C177.893 538.026 171.799 540.422 162.789 540.422C157.346 540.422 152.906 539.354 149.469 537.219C146.031 535.083 144.13 531.893 143.766 527.648H155.875C156.188 528.951 156.695 529.888 157.398 530.461ZM155.523 508.469C157.034 512.062 159.742 513.859 163.648 513.859C166.253 513.859 168.453 512.883 170.25 510.93C172.047 508.951 172.945 505.812 172.945 501.516C172.945 497.479 172.086 494.406 170.367 492.297C168.674 490.188 166.396 489.133 163.531 489.133C159.625 489.133 156.93 490.969 155.445 494.641C154.664 496.594 154.273 499.003 154.273 501.867C154.273 504.341 154.69 506.542 155.523 508.469ZM218.18 492.141C217.242 490.083 215.406 489.055 212.672 489.055C209.495 489.055 207.359 490.083 206.266 492.141C205.667 493.312 205.367 495.057 205.367 497.375V523H194.078V480.5H204.898V486.711C206.279 484.497 207.581 482.922 208.805 481.984C210.966 480.318 213.766 479.484 217.203 479.484C220.458 479.484 223.089 480.201 225.094 481.633C226.708 482.961 227.932 484.667 228.766 486.75C230.224 484.25 232.034 482.414 234.195 481.242C236.487 480.07 239.039 479.484 241.852 479.484C243.727 479.484 245.576 479.849 247.398 480.578C249.221 481.307 250.875 482.583 252.359 484.406C253.557 485.891 254.365 487.714 254.781 489.875C255.042 491.307 255.172 493.404 255.172 496.164L255.094 523H243.688V495.891C243.688 494.276 243.427 492.948 242.906 491.906C241.917 489.927 240.094 488.938 237.438 488.938C234.365 488.938 232.242 490.214 231.07 492.766C230.471 494.12 230.172 495.747 230.172 497.648V523H218.961V497.648C218.961 495.122 218.701 493.286 218.18 492.141ZM267.047 485.031C269.99 481.281 275.042 479.406 282.203 479.406C286.865 479.406 291.005 480.331 294.625 482.18C298.245 484.029 300.055 487.518 300.055 492.648V512.18C300.055 513.534 300.081 515.174 300.133 517.102C300.211 518.56 300.432 519.549 300.797 520.07C301.161 520.591 301.708 521.021 302.438 521.359V523H290.328C289.99 522.141 289.755 521.333 289.625 520.578C289.495 519.823 289.391 518.964 289.312 518C287.776 519.667 286.005 521.086 284 522.258C281.604 523.638 278.896 524.328 275.875 524.328C272.021 524.328 268.831 523.234 266.305 521.047C263.805 518.833 262.555 515.708 262.555 511.672C262.555 506.438 264.573 502.648 268.609 500.305C270.823 499.029 274.078 498.117 278.375 497.57L282.164 497.102C284.221 496.841 285.693 496.516 286.578 496.125C288.167 495.448 288.961 494.393 288.961 492.961C288.961 491.216 288.349 490.018 287.125 489.367C285.927 488.69 284.156 488.352 281.812 488.352C279.182 488.352 277.32 489.003 276.227 490.305C275.445 491.268 274.924 492.57 274.664 494.211H263.922C264.156 490.487 265.198 487.427 267.047 485.031ZM275.328 514.953C276.37 515.812 277.646 516.242 279.156 516.242C281.552 516.242 283.753 515.539 285.758 514.133C287.789 512.727 288.844 510.161 288.922 506.438V502.297C288.219 502.74 287.503 503.104 286.773 503.391C286.07 503.651 285.094 503.898 283.844 504.133L281.344 504.602C279 505.018 277.32 505.526 276.305 506.125C274.586 507.141 273.727 508.716 273.727 510.852C273.727 512.753 274.26 514.12 275.328 514.953Z" fill="white" fill-opacity="0.8"/>
<path d="M124.078 195.516C106.044 195.516 93.3815 189.201 86.0898 176.57C78.8633 163.94 75.25 145.939 75.25 122.566C75.25 99.194 78.8633 81.1602 86.0898 68.4648C93.3815 55.7695 106.044 49.4219 124.078 49.4219C142.112 49.4219 154.775 55.7695 162.066 68.4648C169.293 81.1602 172.906 99.194 172.906 122.566C172.906 145.939 169.26 163.94 161.969 176.57C154.742 189.201 142.112 195.516 124.078 195.516ZM140.387 159.871C142.926 151.277 144.195 138.842 144.195 122.566C144.195 105.509 142.893 92.8789 140.289 84.6758C137.75 76.4727 132.346 72.3711 124.078 72.3711C115.81 72.3711 110.341 76.4727 107.672 84.6758C105.003 92.8789 103.668 105.509 103.668 122.566C103.668 138.842 105.003 151.31 107.672 159.969C110.341 168.562 115.81 172.859 124.078 172.859C132.346 172.859 137.783 168.53 140.387 159.871ZM284.918 139.754V161.531H268.902V192H241.656V161.531H185.602V137.215L237.652 51.2773H268.902V139.754H284.918ZM206.207 139.754H241.656V78.6211L206.207 139.754Z" fill="white" fill-opacity="0.5"/>
<path d="M560 125C560 69.7717 604.772 25 660 25C715.228 25 760 69.7717 760 125C760 180.228 715.228 225 660 225C604.772 225 560 180.228 560 125Z" fill="#333333"/>
<path d="M640.62 184.69C651.751 184.69 660.775 175.666 660.775 164.535V144.38H640.62C629.488 144.38 620.465 153.404 620.465 164.535C620.465 175.666 629.488 184.69 640.62 184.69Z" fill="#0ACF83"/>
<path d="M620.465 124.225C620.465 113.093 629.488 104.07 640.62 104.07H660.775V144.38H640.62C629.488 144.38 620.465 135.356 620.465 124.225Z" fill="#A259FF"/>
<path d="M620.465 85.4651C620.465 74.3337 629.488 65.3101 640.62 65.3101H660.775V105.62H640.62C629.488 105.62 620.465 96.5962 620.465 85.4651Z" fill="#F24E1E"/>
<path d="M659.225 65.3101H679.38C690.511 65.3101 699.535 74.3337 699.535 85.4651C699.535 96.5962 690.511 105.62 679.38 105.62H659.225V65.3101Z" fill="#FF7262"/>
<path d="M699.535 124.225C699.535 135.356 690.511 144.38 679.38 144.38C668.248 144.38 659.225 135.356 659.225 124.225C659.225 113.093 668.248 104.07 679.38 104.07C690.511 104.07 699.535 113.093 699.535 124.225Z" fill="#1ABCFE"/>
<path d="M741.436 592.713C741.436 593.599 742.139 594.276 742.999 594.276C743.884 594.276 744.588 593.599 744.588 592.713V576.563C744.588 575.703 743.884 575 742.999 575C742.113 575 741.436 575.703 741.436 576.563V592.713Z" fill="white"/>
<path d="M748.655 576.849C748.655 577.787 749.436 578.412 750.452 578.412C751.468 578.412 752.249 577.787 752.249 576.849V576.693C752.249 575.755 751.468 575.156 750.452 575.156C749.436 575.156 748.655 575.755 748.655 576.693V576.849ZM748.889 592.713C748.889 593.599 749.592 594.276 750.452 594.276C751.338 594.276 752.041 593.599 752.041 592.713V581.825C752.041 580.939 751.338 580.236 750.452 580.236C749.566 580.236 748.889 580.939 748.889 581.825V592.713Z" fill="white"/>
<path d="M756.16 592.713C756.16 593.573 756.864 594.276 757.723 594.276C758.609 594.276 759.312 593.573 759.312 592.713V592.01C760.276 593.287 761.709 594.433 764.001 594.433C767.257 594.433 770.383 591.854 770.383 587.295V587.243C770.383 582.658 767.231 580.106 764.001 580.106C761.761 580.106 760.328 581.252 759.312 582.685V576.563C759.312 575.677 758.609 575 757.723 575C756.838 575 756.16 575.677 756.16 576.563V592.713ZM763.246 591.698C761.11 591.698 759.234 589.926 759.234 587.295V587.243C759.234 584.612 761.11 582.841 763.246 582.841C765.382 582.841 767.179 584.586 767.179 587.243V587.295C767.179 590.004 765.408 591.698 763.246 591.698Z" fill="white"/>
<path d="M773.819 592.713C773.819 593.599 774.522 594.276 775.382 594.276C776.268 594.276 776.971 593.599 776.971 592.713V576.563C776.971 575.703 776.268 575 775.382 575C774.496 575 773.819 575.703 773.819 576.563V592.713Z" fill="white"/>
<path d="M787.629 594.459C791.875 594.459 795.001 591.203 795.001 587.295V587.243C795.001 583.31 791.901 580.106 787.681 580.106C783.461 580.106 780.335 583.362 780.335 587.295V587.347C780.335 591.255 783.435 594.459 787.629 594.459ZM787.681 591.698C785.232 591.698 783.487 589.692 783.487 587.295V587.243C783.487 584.847 785.102 582.867 787.629 582.867C790.103 582.867 791.849 584.873 791.849 587.295V587.347C791.849 589.718 790.234 591.698 787.681 591.698Z" fill="white"/>
<path d="M736.96 590.09C735.74 590.65 734.453 591.047 733.208 591.294C728.074 592.315 725.36 589.099 729.634 586.781C730.099 586.529 730.632 586.291 731.228 586.075L732.011 585.826C732.241 585.763 732.463 585.662 732.534 585.515C732.905 584.723 729.731 584.467 727.622 585.589C728.458 585.431 729.186 585.408 729.668 585.609C724.878 586.845 723.788 590.757 726.335 592.642C727.649 593.615 729.127 593.873 731.832 593.682C733.637 593.555 735.48 592.837 736.96 591.969V590.09Z" fill="white"/>
<path d="M734.542 592.784C734.542 593.607 735.171 594.165 736.03 594.165C736.89 594.165 737.478 593.644 737.478 592.784V586.011C737.478 584.214 737.009 582.755 735.993 581.765C735.029 580.776 733.492 580.229 731.434 580.229C729.637 580.229 728.308 580.541 727.006 581.036C726.537 581.218 726.146 581.713 726.146 582.286C726.146 583.016 726.745 583.589 727.475 583.589C727.631 583.589 727.787 583.563 727.97 583.511C728.829 583.172 729.819 582.964 731.018 582.964C733.232 582.964 734.43 584.006 734.43 585.959V585.968L734.542 592.784Z" fill="white"/>
<path d="M733.611 578.379C733.611 578.591 733.273 578.721 732.805 578.721C732.077 578.721 731.583 578.64 730.984 578.282L729.216 577.24C728.956 577.093 728.774 576.93 728.774 576.751C728.774 576.442 729.814 576.116 730.646 576.116C731.192 576.116 731.609 576.296 731.895 576.589L733.377 578.021C733.481 578.119 733.611 578.266 733.611 578.379Z" fill="white"/>
<defs>
<linearGradient id="paint0_linear_5189_12261" x1="800" y1="0" x2="-2.41943" y2="596.747" gradientUnits="userSpaceOnUse">
<stop stop-color="#8E56FF"/>
<stop offset="0.983883" stop-color="#4700C2"/>
</linearGradient>
</defs>
</svg>
