<svg width="800" height="600" viewBox="0 0 800 600" fill="none" xmlns="http://www.w3.org/2000/svg">
<rect width="800" height="600" fill="url(#paint0_linear_5189_12222)"/>
<path d="M86.1094 407H74.8984V349.422H92.3984L102.867 394.695L113.258 349.422H130.562V407H119.352V368.055C119.352 366.935 119.365 365.372 119.391 363.367C119.417 361.336 119.43 359.773 119.43 358.68L108.531 407H96.8516L86.0312 358.68C86.0312 359.773 86.0443 361.336 86.0703 363.367C86.0964 365.372 86.1094 366.935 86.1094 368.055V407ZM176.344 369.812C179.938 374.318 181.734 379.643 181.734 385.789C181.734 392.039 179.938 397.391 176.344 401.844C172.75 406.271 167.294 408.484 159.977 408.484C152.659 408.484 147.203 406.271 143.609 401.844C140.016 397.391 138.219 392.039 138.219 385.789C138.219 379.643 140.016 374.318 143.609 369.812C147.203 365.307 152.659 363.055 159.977 363.055C167.294 363.055 172.75 365.307 176.344 369.812ZM159.938 372.469C156.682 372.469 154.169 373.628 152.398 375.945C150.654 378.237 149.781 381.518 149.781 385.789C149.781 390.06 150.654 393.354 152.398 395.672C154.169 397.99 156.682 399.148 159.938 399.148C163.193 399.148 165.693 397.99 167.438 395.672C169.182 393.354 170.055 390.06 170.055 385.789C170.055 381.518 169.182 378.237 167.438 375.945C165.693 373.628 163.193 372.469 159.938 372.469ZM226.578 379.695H215.172C214.964 378.107 214.43 376.674 213.57 375.398C212.32 373.68 210.38 372.82 207.75 372.82C204 372.82 201.435 374.682 200.055 378.406C199.326 380.385 198.961 383.016 198.961 386.297C198.961 389.422 199.326 391.935 200.055 393.836C201.383 397.378 203.883 399.148 207.555 399.148C210.159 399.148 212.008 398.445 213.102 397.039C214.195 395.633 214.859 393.81 215.094 391.57H226.461C226.201 394.956 224.977 398.159 222.789 401.18C219.299 406.049 214.13 408.484 207.281 408.484C200.432 408.484 195.393 406.453 192.164 402.391C188.935 398.328 187.32 393.055 187.32 386.57C187.32 379.253 189.104 373.562 192.672 369.5C196.24 365.438 201.161 363.406 207.438 363.406C212.776 363.406 217.138 364.604 220.523 367C223.935 369.396 225.953 373.628 226.578 379.695ZM273.336 407H259.898L249.703 388.797L245.094 393.602V407H234.156V349.617H245.094V380.633L258.961 364.617H272.75L257.867 380.906L273.336 407ZM306.109 400.984C306.005 401.115 305.745 401.505 305.328 402.156C304.911 402.807 304.417 403.38 303.844 403.875C302.099 405.438 300.406 406.505 298.766 407.078C297.151 407.651 295.25 407.938 293.062 407.938C286.76 407.938 282.516 405.672 280.328 401.141C279.104 398.641 278.492 394.956 278.492 390.086V364.422H289.898V390.086C289.898 392.508 290.185 394.331 290.758 395.555C291.773 397.716 293.766 398.797 296.734 398.797C300.536 398.797 303.141 397.26 304.547 394.188C305.276 392.521 305.641 390.32 305.641 387.586V364.422H316.93V407H306.109V400.984ZM363.375 368.992C366.812 372.664 368.531 378.055 368.531 385.164C368.531 392.664 366.839 398.38 363.453 402.312C360.094 406.245 355.758 408.211 350.445 408.211C347.06 408.211 344.247 407.365 342.008 405.672C340.784 404.734 339.586 403.367 338.414 401.57V423.758H327.398V364.422H338.062V370.711C339.26 368.862 340.536 367.404 341.891 366.336C344.365 364.435 347.307 363.484 350.719 363.484C355.693 363.484 359.911 365.32 363.375 368.992ZM357.047 385.711C357.047 382.43 356.292 379.526 354.781 377C353.297 374.474 350.875 373.211 347.516 373.211C343.479 373.211 340.706 375.125 339.195 378.953C338.414 380.984 338.023 383.562 338.023 386.688C338.023 391.635 339.339 395.112 341.969 397.117C343.531 398.289 345.38 398.875 347.516 398.875C350.615 398.875 352.971 397.677 354.586 395.281C356.227 392.885 357.047 389.695 357.047 385.711ZM424.586 407H399.781V349.422H424.586C428.154 349.474 431.122 349.891 433.492 350.672C437.529 352 440.797 354.435 443.297 357.977C445.302 360.841 446.669 363.94 447.398 367.273C448.128 370.607 448.492 373.784 448.492 376.805C448.492 384.461 446.956 390.945 443.883 396.258C439.716 403.419 433.284 407 424.586 407ZM433.531 364.109C431.682 360.984 428.023 359.422 422.555 359.422H411.461V397H422.555C428.232 397 432.19 394.201 434.43 388.602C435.654 385.529 436.266 381.87 436.266 377.625C436.266 371.766 435.354 367.26 433.531 364.109ZM493.141 394.5C492.854 397.026 491.539 399.591 489.195 402.195C485.549 406.336 480.445 408.406 473.883 408.406C468.466 408.406 463.688 406.661 459.547 403.172C455.406 399.682 453.336 394.005 453.336 386.141C453.336 378.771 455.198 373.12 458.922 369.188C462.672 365.255 467.529 363.289 473.492 363.289C477.034 363.289 480.224 363.953 483.062 365.281C485.901 366.609 488.245 368.706 490.094 371.57C491.76 374.096 492.841 377.026 493.336 380.359C493.622 382.312 493.74 385.125 493.688 388.797H464.547C464.703 393.068 466.044 396.062 468.57 397.781C470.107 398.849 471.956 399.383 474.117 399.383C476.409 399.383 478.271 398.732 479.703 397.43C480.484 396.727 481.174 395.75 481.773 394.5H493.141ZM482.125 381.453C481.943 378.51 481.044 376.284 479.43 374.773C477.841 373.237 475.862 372.469 473.492 372.469C470.914 372.469 468.909 373.276 467.477 374.891C466.07 376.505 465.185 378.693 464.82 381.453H482.125ZM530.562 366.375C533.896 368.51 535.81 372.182 536.305 377.391H525.172C525.016 375.958 524.612 374.826 523.961 373.992C522.737 372.482 520.654 371.727 517.711 371.727C515.289 371.727 513.557 372.104 512.516 372.859C511.5 373.615 510.992 374.5 510.992 375.516C510.992 376.792 511.539 377.716 512.633 378.289C513.727 378.888 517.594 379.917 524.234 381.375C528.661 382.417 531.982 383.992 534.195 386.102C536.383 388.237 537.477 390.906 537.477 394.109C537.477 398.328 535.901 401.779 532.75 404.461C529.625 407.117 524.781 408.445 518.219 408.445C511.526 408.445 506.578 407.039 503.375 404.227C500.198 401.388 498.609 397.781 498.609 393.406H509.898C510.133 395.385 510.641 396.792 511.422 397.625C512.802 399.109 515.354 399.852 519.078 399.852C521.266 399.852 522.997 399.526 524.273 398.875C525.576 398.224 526.227 397.247 526.227 395.945C526.227 394.695 525.706 393.745 524.664 393.094C523.622 392.443 519.755 391.323 513.062 389.734C508.245 388.536 504.846 387.039 502.867 385.242C500.888 383.471 499.898 380.919 499.898 377.586C499.898 373.654 501.435 370.281 504.508 367.469C507.607 364.63 511.956 363.211 517.555 363.211C522.867 363.211 527.203 364.266 530.562 366.375ZM557.203 364.422V407H545.914V364.422H557.203ZM557.203 349.07V359.344H545.914V349.07H557.203ZM580.055 414.461C581.253 415.477 583.271 415.984 586.109 415.984C590.12 415.984 592.802 414.643 594.156 411.961C595.042 410.242 595.484 407.352 595.484 403.289V400.555C594.417 402.378 593.271 403.745 592.047 404.656C589.833 406.349 586.956 407.195 583.414 407.195C577.945 407.195 573.57 405.281 570.289 401.453C567.034 397.599 565.406 392.391 565.406 385.828C565.406 379.5 566.982 374.188 570.133 369.891C573.284 365.568 577.75 363.406 583.531 363.406C585.667 363.406 587.529 363.732 589.117 364.383C591.826 365.503 594.013 367.56 595.68 370.555V364.422H606.5V404.812C606.5 410.307 605.576 414.448 603.727 417.234C600.549 422.026 594.456 424.422 585.445 424.422C580.003 424.422 575.562 423.354 572.125 421.219C568.688 419.083 566.786 415.893 566.422 411.648H578.531C578.844 412.951 579.352 413.888 580.055 414.461ZM578.18 392.469C579.69 396.062 582.398 397.859 586.305 397.859C588.909 397.859 591.109 396.883 592.906 394.93C594.703 392.951 595.602 389.812 595.602 385.516C595.602 381.479 594.742 378.406 593.023 376.297C591.331 374.188 589.052 373.133 586.188 373.133C582.281 373.133 579.586 374.969 578.102 378.641C577.32 380.594 576.93 383.003 576.93 385.867C576.93 388.341 577.346 390.542 578.18 392.469ZM636.969 372.664C633.193 372.664 630.602 374.266 629.195 377.469C628.466 379.161 628.102 381.323 628.102 383.953V407H617.008V364.5H627.75V370.711C629.182 368.523 630.536 366.948 631.812 365.984C634.104 364.266 637.008 363.406 640.523 363.406C644.924 363.406 648.518 364.565 651.305 366.883C654.117 369.174 655.523 372.99 655.523 378.328V407H644.117V381.102C644.117 378.862 643.818 377.143 643.219 375.945C642.125 373.758 640.042 372.664 636.969 372.664ZM106.5 499L99.8203 467.984L93.0625 499H81.5L69.5469 456.422H81.5L88.1406 486.969L94.2734 456.422H105.562L112.047 487.086L118.688 456.422H130.289L117.945 499H106.5ZM147.906 456.422V499H136.617V456.422H147.906ZM147.906 441.07V451.344H136.617V441.07H147.906ZM178.219 491.07V499.391L172.945 499.586C167.685 499.768 164.091 498.857 162.164 496.852C160.914 495.576 160.289 493.609 160.289 490.953V464.742H154.352V456.812H160.289V444.938H171.305V456.812H178.219V464.742H171.305V487.242C171.305 488.987 171.526 490.081 171.969 490.523C172.411 490.94 173.766 491.148 176.031 491.148C176.37 491.148 176.721 491.148 177.086 491.148C177.477 491.122 177.854 491.096 178.219 491.07ZM223.844 474V499H212.477V473.102C212.477 470.81 212.086 468.961 211.305 467.555C210.289 465.576 208.362 464.586 205.523 464.586C202.581 464.586 200.341 465.576 198.805 467.555C197.294 469.508 196.539 472.307 196.539 475.953V499H185.445V441.617H196.539V461.969C198.154 459.495 200.016 457.776 202.125 456.812C204.26 455.823 206.5 455.328 208.844 455.328C211.474 455.328 213.857 455.784 215.992 456.695C218.154 457.607 219.924 459 221.305 460.875C222.477 462.464 223.193 464.104 223.453 465.797C223.714 467.464 223.844 470.198 223.844 474ZM298.258 451.617H269.391V464.859H294.664V474.859H269.391V499H257.438V441.5H298.258V451.617ZM316.891 456.422V499H305.602V456.422H316.891ZM316.891 441.07V451.344H305.602V441.07H316.891ZM339.742 506.461C340.94 507.477 342.958 507.984 345.797 507.984C349.807 507.984 352.49 506.643 353.844 503.961C354.729 502.242 355.172 499.352 355.172 495.289V492.555C354.104 494.378 352.958 495.745 351.734 496.656C349.521 498.349 346.643 499.195 343.102 499.195C337.633 499.195 333.258 497.281 329.977 493.453C326.721 489.599 325.094 484.391 325.094 477.828C325.094 471.5 326.669 466.188 329.82 461.891C332.971 457.568 337.438 455.406 343.219 455.406C345.354 455.406 347.216 455.732 348.805 456.383C351.513 457.503 353.701 459.56 355.367 462.555V456.422H366.188V496.812C366.188 502.307 365.263 506.448 363.414 509.234C360.237 514.026 354.143 516.422 345.133 516.422C339.69 516.422 335.25 515.354 331.812 513.219C328.375 511.083 326.474 507.893 326.109 503.648H338.219C338.531 504.951 339.039 505.888 339.742 506.461ZM337.867 484.469C339.378 488.062 342.086 489.859 345.992 489.859C348.596 489.859 350.797 488.883 352.594 486.93C354.391 484.951 355.289 481.812 355.289 477.516C355.289 473.479 354.43 470.406 352.711 468.297C351.018 466.188 348.74 465.133 345.875 465.133C341.969 465.133 339.273 466.969 337.789 470.641C337.008 472.594 336.617 475.003 336.617 477.867C336.617 480.341 337.034 482.542 337.867 484.469ZM400.523 468.141C399.586 466.083 397.75 465.055 395.016 465.055C391.839 465.055 389.703 466.083 388.609 468.141C388.01 469.312 387.711 471.057 387.711 473.375V499H376.422V456.5H387.242V462.711C388.622 460.497 389.924 458.922 391.148 457.984C393.31 456.318 396.109 455.484 399.547 455.484C402.802 455.484 405.432 456.201 407.438 457.633C409.052 458.961 410.276 460.667 411.109 462.75C412.568 460.25 414.378 458.414 416.539 457.242C418.831 456.07 421.383 455.484 424.195 455.484C426.07 455.484 427.919 455.849 429.742 456.578C431.565 457.307 433.219 458.583 434.703 460.406C435.901 461.891 436.708 463.714 437.125 465.875C437.385 467.307 437.516 469.404 437.516 472.164L437.438 499H426.031V471.891C426.031 470.276 425.771 468.948 425.25 467.906C424.26 465.927 422.438 464.938 419.781 464.938C416.708 464.938 414.586 466.214 413.414 468.766C412.815 470.12 412.516 471.747 412.516 473.648V499H401.305V473.648C401.305 471.122 401.044 469.286 400.523 468.141ZM449.391 461.031C452.333 457.281 457.385 455.406 464.547 455.406C469.208 455.406 473.349 456.331 476.969 458.18C480.589 460.029 482.398 463.518 482.398 468.648V488.18C482.398 489.534 482.424 491.174 482.477 493.102C482.555 494.56 482.776 495.549 483.141 496.07C483.505 496.591 484.052 497.021 484.781 497.359V499H472.672C472.333 498.141 472.099 497.333 471.969 496.578C471.839 495.823 471.734 494.964 471.656 494C470.12 495.667 468.349 497.086 466.344 498.258C463.948 499.638 461.24 500.328 458.219 500.328C454.365 500.328 451.174 499.234 448.648 497.047C446.148 494.833 444.898 491.708 444.898 487.672C444.898 482.438 446.917 478.648 450.953 476.305C453.167 475.029 456.422 474.117 460.719 473.57L464.508 473.102C466.565 472.841 468.036 472.516 468.922 472.125C470.51 471.448 471.305 470.393 471.305 468.961C471.305 467.216 470.693 466.018 469.469 465.367C468.271 464.69 466.5 464.352 464.156 464.352C461.526 464.352 459.664 465.003 458.57 466.305C457.789 467.268 457.268 468.57 457.008 470.211H446.266C446.5 466.487 447.542 463.427 449.391 461.031ZM457.672 490.953C458.714 491.812 459.99 492.242 461.5 492.242C463.896 492.242 466.096 491.539 468.102 490.133C470.133 488.727 471.188 486.161 471.266 482.438V478.297C470.562 478.74 469.846 479.104 469.117 479.391C468.414 479.651 467.438 479.898 466.188 480.133L463.688 480.602C461.344 481.018 459.664 481.526 458.648 482.125C456.93 483.141 456.07 484.716 456.07 486.852C456.07 488.753 456.604 490.12 457.672 490.953Z" fill="white" fill-opacity="0.8"/>
<path d="M124.078 259.516C106.044 259.516 93.3815 253.201 86.0898 240.57C78.8633 227.94 75.25 209.939 75.25 186.566C75.25 163.194 78.8633 145.16 86.0898 132.465C93.3815 119.77 106.044 113.422 124.078 113.422C142.112 113.422 154.775 119.77 162.066 132.465C169.293 145.16 172.906 163.194 172.906 186.566C172.906 209.939 169.26 227.94 161.969 240.57C154.742 253.201 142.112 259.516 124.078 259.516ZM140.387 223.871C142.926 215.277 144.195 202.842 144.195 186.566C144.195 169.509 142.893 156.879 140.289 148.676C137.75 140.473 132.346 136.371 124.078 136.371C115.81 136.371 110.341 140.473 107.672 148.676C105.003 156.879 103.668 169.509 103.668 186.566C103.668 202.842 105.003 215.31 107.672 223.969C110.341 232.562 115.81 236.859 124.078 236.859C132.346 236.859 137.783 232.53 140.387 223.871ZM241.461 164.105C254.026 164.105 264.312 168.37 272.32 176.898C280.393 185.427 284.43 196.332 284.43 209.613C284.43 222.829 280.491 234.483 272.613 244.574C264.736 254.665 252.496 259.711 235.895 259.711C218.056 259.711 204.905 252.257 196.441 237.348C189.866 225.694 186.578 210.655 186.578 192.23C186.578 181.423 187.034 172.634 187.945 165.863C189.573 153.819 192.73 143.793 197.418 135.785C201.454 128.949 206.728 123.448 213.238 119.281C219.814 115.115 227.659 113.031 236.773 113.031C249.924 113.031 260.406 116.417 268.219 123.188C276.031 129.893 280.426 138.845 281.402 150.043H253.668C253.668 147.764 252.789 145.258 251.031 142.523C248.036 138.096 243.512 135.883 237.457 135.883C228.408 135.883 221.962 140.961 218.121 151.117C216.038 156.716 214.605 164.984 213.824 175.922C217.275 171.82 221.279 168.826 225.836 166.938C230.393 165.049 235.602 164.105 241.461 164.105ZM222.711 190.668C217.242 194.9 214.508 201.736 214.508 211.176C214.508 218.793 216.559 225.01 220.66 229.828C224.762 234.646 229.97 237.055 236.285 237.055C242.47 237.055 247.32 234.743 250.836 230.121C254.417 225.434 256.207 219.379 256.207 211.957C256.207 203.689 254.189 197.374 250.152 193.012C246.116 188.585 241.168 186.371 235.309 186.371C230.556 186.371 226.357 187.803 222.711 190.668Z" fill="white" fill-opacity="0.5"/>
<path d="M560 125C560 69.7717 604.772 25 660 25C715.228 25 760 69.7717 760 125C760 180.228 715.228 225 660 225C604.772 225 560 180.228 560 125Z" fill="#333333"/>
<path d="M640.62 184.69C651.751 184.69 660.775 175.666 660.775 164.535V144.38H640.62C629.488 144.38 620.465 153.404 620.465 164.535C620.465 175.666 629.488 184.69 640.62 184.69Z" fill="#0ACF83"/>
<path d="M620.465 124.225C620.465 113.093 629.488 104.07 640.62 104.07H660.775V144.38H640.62C629.488 144.38 620.465 135.356 620.465 124.225Z" fill="#A259FF"/>
<path d="M620.465 85.4651C620.465 74.3337 629.488 65.3101 640.62 65.3101H660.775V105.62H640.62C629.488 105.62 620.465 96.5962 620.465 85.4651Z" fill="#F24E1E"/>
<path d="M659.225 65.3101H679.38C690.511 65.3101 699.535 74.3337 699.535 85.4651C699.535 96.5962 690.511 105.62 679.38 105.62H659.225V65.3101Z" fill="#FF7262"/>
<path d="M699.535 124.225C699.535 135.356 690.511 144.38 679.38 144.38C668.248 144.38 659.225 135.356 659.225 124.225C659.225 113.093 668.248 104.07 679.38 104.07C690.511 104.07 699.535 113.093 699.535 124.225Z" fill="#1ABCFE"/>
<path d="M741.436 592.713C741.436 593.599 742.139 594.276 742.999 594.276C743.884 594.276 744.588 593.599 744.588 592.713V576.563C744.588 575.703 743.884 575 742.999 575C742.113 575 741.436 575.703 741.436 576.563V592.713Z" fill="white"/>
<path d="M748.655 576.849C748.655 577.787 749.436 578.412 750.452 578.412C751.468 578.412 752.249 577.787 752.249 576.849V576.693C752.249 575.755 751.468 575.156 750.452 575.156C749.436 575.156 748.655 575.755 748.655 576.693V576.849ZM748.889 592.713C748.889 593.599 749.592 594.276 750.452 594.276C751.338 594.276 752.041 593.599 752.041 592.713V581.825C752.041 580.939 751.338 580.236 750.452 580.236C749.566 580.236 748.889 580.939 748.889 581.825V592.713Z" fill="white"/>
<path d="M756.16 592.713C756.16 593.573 756.864 594.276 757.723 594.276C758.609 594.276 759.312 593.573 759.312 592.713V592.01C760.276 593.287 761.709 594.433 764.001 594.433C767.257 594.433 770.383 591.854 770.383 587.295V587.243C770.383 582.658 767.231 580.106 764.001 580.106C761.761 580.106 760.328 581.252 759.312 582.685V576.563C759.312 575.677 758.609 575 757.723 575C756.838 575 756.16 575.677 756.16 576.563V592.713ZM763.246 591.698C761.11 591.698 759.234 589.926 759.234 587.295V587.243C759.234 584.612 761.11 582.841 763.246 582.841C765.382 582.841 767.179 584.586 767.179 587.243V587.295C767.179 590.004 765.408 591.698 763.246 591.698Z" fill="white"/>
<path d="M773.819 592.713C773.819 593.599 774.522 594.276 775.382 594.276C776.268 594.276 776.971 593.599 776.971 592.713V576.563C776.971 575.703 776.268 575 775.382 575C774.496 575 773.819 575.703 773.819 576.563V592.713Z" fill="white"/>
<path d="M787.629 594.459C791.875 594.459 795.001 591.203 795.001 587.295V587.243C795.001 583.31 791.901 580.106 787.681 580.106C783.461 580.106 780.335 583.362 780.335 587.295V587.347C780.335 591.255 783.435 594.459 787.629 594.459ZM787.681 591.698C785.232 591.698 783.487 589.692 783.487 587.295V587.243C783.487 584.847 785.102 582.867 787.629 582.867C790.103 582.867 791.849 584.873 791.849 587.295V587.347C791.849 589.718 790.234 591.698 787.681 591.698Z" fill="white"/>
<path d="M736.96 590.09C735.74 590.65 734.453 591.046 733.208 591.294C728.074 592.314 725.36 589.099 729.634 586.781C730.099 586.529 730.632 586.291 731.228 586.075L732.011 585.826C732.241 585.763 732.463 585.661 732.534 585.515C732.905 584.722 729.731 584.467 727.622 585.589C728.458 585.431 729.186 585.408 729.668 585.608C724.878 586.845 723.788 590.757 726.335 592.642C727.649 593.615 729.127 593.873 731.832 593.682C733.637 593.555 735.48 592.837 736.96 591.969V590.09Z" fill="white"/>
<path d="M734.542 592.784C734.542 593.606 735.171 594.165 736.03 594.165C736.89 594.165 737.478 593.644 737.478 592.784V586.011C737.478 584.214 737.009 582.755 735.993 581.765C735.029 580.775 733.492 580.228 731.434 580.228C729.637 580.228 728.308 580.541 727.006 581.036C726.537 581.218 726.146 581.713 726.146 582.286C726.146 583.016 726.745 583.589 727.475 583.589C727.631 583.589 727.787 583.563 727.97 583.51C728.829 583.172 729.819 582.963 731.018 582.963C733.232 582.963 734.43 584.005 734.43 585.959V585.968L734.542 592.784Z" fill="white"/>
<path d="M733.611 578.379C733.611 578.591 733.273 578.721 732.805 578.721C732.077 578.721 731.583 578.64 730.984 578.282L729.216 577.24C728.956 577.093 728.774 576.93 728.774 576.751C728.774 576.442 729.814 576.116 730.646 576.116C731.192 576.116 731.609 576.295 731.895 576.588L733.377 578.021C733.481 578.119 733.611 578.265 733.611 578.379Z" fill="white"/>
<defs>
<linearGradient id="paint0_linear_5189_12222" x1="800" y1="0" x2="-2.41943" y2="596.747" gradientUnits="userSpaceOnUse">
<stop stop-color="#8E56FF"/>
<stop offset="0.983883" stop-color="#4700C2"/>
</linearGradient>
</defs>
</svg>
