<svg width="800" height="600" viewBox="0 0 800 600" fill="none" xmlns="http://www.w3.org/2000/svg">
<rect width="800" height="600" fill="url(#paint0_linear_5189_12248)"/>
<path d="M65.5469 425.297H53.3203V446H41.3672V388.422H66.4453C72.2266 388.422 76.8359 389.906 80.2734 392.875C83.7109 395.844 85.4297 400.44 85.4297 406.664C85.4297 413.461 83.7109 418.266 80.2734 421.078C76.8359 423.891 71.9271 425.297 65.5469 425.297ZM71.1719 413.305C72.7344 411.924 73.5156 409.737 73.5156 406.742C73.5156 403.747 72.7214 401.612 71.1328 400.336C69.5703 399.06 67.3698 398.422 64.5312 398.422H53.3203V415.375H64.5312C67.3698 415.375 69.5833 414.685 71.1719 413.305ZM114.961 413.695C110.482 413.695 107.474 415.154 105.938 418.07C105.078 419.711 104.648 422.237 104.648 425.648V446H93.4375V403.422H104.062V410.844C105.781 408.005 107.279 406.065 108.555 405.023C110.638 403.279 113.346 402.406 116.68 402.406C116.888 402.406 117.057 402.419 117.188 402.445C117.344 402.445 117.669 402.458 118.164 402.484V413.891C117.461 413.812 116.836 413.76 116.289 413.734C115.742 413.708 115.299 413.695 114.961 413.695ZM160.234 408.812C163.828 413.318 165.625 418.643 165.625 424.789C165.625 431.039 163.828 436.391 160.234 440.844C156.641 445.271 151.185 447.484 143.867 447.484C136.549 447.484 131.094 445.271 127.5 440.844C123.906 436.391 122.109 431.039 122.109 424.789C122.109 418.643 123.906 413.318 127.5 408.812C131.094 404.307 136.549 402.055 143.867 402.055C151.185 402.055 156.641 404.307 160.234 408.812ZM143.828 411.469C140.573 411.469 138.06 412.628 136.289 414.945C134.544 417.237 133.672 420.518 133.672 424.789C133.672 429.06 134.544 432.354 136.289 434.672C138.06 436.99 140.573 438.148 143.828 438.148C147.083 438.148 149.583 436.99 151.328 434.672C153.073 432.354 153.945 429.06 153.945 424.789C153.945 420.518 153.073 417.237 151.328 414.945C149.583 412.628 147.083 411.469 143.828 411.469ZM193.125 438.07V446.391L187.852 446.586C182.591 446.768 178.997 445.857 177.07 443.852C175.82 442.576 175.195 440.609 175.195 437.953V411.742H169.258V403.812H175.195V391.938H186.211V403.812H193.125V411.742H186.211V434.242C186.211 435.987 186.432 437.081 186.875 437.523C187.318 437.94 188.672 438.148 190.938 438.148C191.276 438.148 191.628 438.148 191.992 438.148C192.383 438.122 192.76 438.096 193.125 438.07ZM235.781 408.812C239.375 413.318 241.172 418.643 241.172 424.789C241.172 431.039 239.375 436.391 235.781 440.844C232.188 445.271 226.732 447.484 219.414 447.484C212.096 447.484 206.641 445.271 203.047 440.844C199.453 436.391 197.656 431.039 197.656 424.789C197.656 418.643 199.453 413.318 203.047 408.812C206.641 404.307 212.096 402.055 219.414 402.055C226.732 402.055 232.188 404.307 235.781 408.812ZM219.375 411.469C216.12 411.469 213.607 412.628 211.836 414.945C210.091 417.237 209.219 420.518 209.219 424.789C209.219 429.06 210.091 432.354 211.836 434.672C213.607 436.99 216.12 438.148 219.375 438.148C222.63 438.148 225.13 436.99 226.875 434.672C228.62 432.354 229.492 429.06 229.492 424.789C229.492 420.518 228.62 417.237 226.875 414.945C225.13 412.628 222.63 411.469 219.375 411.469ZM268.672 438.07V446.391L263.398 446.586C258.138 446.768 254.544 445.857 252.617 443.852C251.367 442.576 250.742 440.609 250.742 437.953V411.742H244.805V403.812H250.742V391.938H261.758V403.812H268.672V411.742H261.758V434.242C261.758 435.987 261.979 437.081 262.422 437.523C262.865 437.94 264.219 438.148 266.484 438.148C266.823 438.148 267.174 438.148 267.539 438.148C267.93 438.122 268.307 438.096 268.672 438.07ZM293.125 434.828L301.914 403.422H313.75L299.141 445.297C296.328 453.37 294.102 458.37 292.461 460.297C290.82 462.25 287.539 463.227 282.617 463.227C281.628 463.227 280.833 463.214 280.234 463.188C279.635 463.188 278.737 463.148 277.539 463.07V454.164L278.945 454.242C280.039 454.294 281.081 454.255 282.07 454.125C283.06 453.995 283.893 453.695 284.57 453.227C285.221 452.784 285.82 451.859 286.367 450.453C286.94 449.047 287.174 448.188 287.07 447.875L271.445 403.422H283.828L293.125 434.828ZM356.016 407.992C359.453 411.664 361.172 417.055 361.172 424.164C361.172 431.664 359.479 437.38 356.094 441.312C352.734 445.245 348.398 447.211 343.086 447.211C339.701 447.211 336.888 446.365 334.648 444.672C333.424 443.734 332.227 442.367 331.055 440.57V462.758H320.039V403.422H330.703V409.711C331.901 407.862 333.177 406.404 334.531 405.336C337.005 403.435 339.948 402.484 343.359 402.484C348.333 402.484 352.552 404.32 356.016 407.992ZM349.688 424.711C349.688 421.43 348.932 418.526 347.422 416C345.938 413.474 343.516 412.211 340.156 412.211C336.12 412.211 333.346 414.125 331.836 417.953C331.055 419.984 330.664 422.562 330.664 425.688C330.664 430.635 331.979 434.112 334.609 436.117C336.172 437.289 338.021 437.875 340.156 437.875C343.255 437.875 345.612 436.677 347.227 434.281C348.867 431.885 349.688 428.695 349.688 424.711ZM380.703 403.422V446H369.414V403.422H380.703ZM380.703 388.07V398.344H369.414V388.07H380.703ZM411.562 411.664C407.786 411.664 405.195 413.266 403.789 416.469C403.06 418.161 402.695 420.323 402.695 422.953V446H391.602V403.5H402.344V409.711C403.776 407.523 405.13 405.948 406.406 404.984C408.698 403.266 411.602 402.406 415.117 402.406C419.518 402.406 423.112 403.565 425.898 405.883C428.711 408.174 430.117 411.99 430.117 417.328V446H418.711V420.102C418.711 417.862 418.411 416.143 417.812 414.945C416.719 412.758 414.635 411.664 411.562 411.664ZM452.461 453.461C453.659 454.477 455.677 454.984 458.516 454.984C462.526 454.984 465.208 453.643 466.562 450.961C467.448 449.242 467.891 446.352 467.891 442.289V439.555C466.823 441.378 465.677 442.745 464.453 443.656C462.24 445.349 459.362 446.195 455.82 446.195C450.352 446.195 445.977 444.281 442.695 440.453C439.44 436.599 437.812 431.391 437.812 424.828C437.812 418.5 439.388 413.188 442.539 408.891C445.69 404.568 450.156 402.406 455.938 402.406C458.073 402.406 459.935 402.732 461.523 403.383C464.232 404.503 466.419 406.56 468.086 409.555V403.422H478.906V443.812C478.906 449.307 477.982 453.448 476.133 456.234C472.956 461.026 466.862 463.422 457.852 463.422C452.409 463.422 447.969 462.354 444.531 460.219C441.094 458.083 439.193 454.893 438.828 450.648H450.938C451.25 451.951 451.758 452.888 452.461 453.461ZM450.586 431.469C452.096 435.062 454.805 436.859 458.711 436.859C461.315 436.859 463.516 435.883 465.312 433.93C467.109 431.951 468.008 428.812 468.008 424.516C468.008 420.479 467.148 417.406 465.43 415.297C463.737 413.188 461.458 412.133 458.594 412.133C454.688 412.133 451.992 413.969 450.508 417.641C449.727 419.594 449.336 422.003 449.336 424.867C449.336 427.341 449.753 429.542 450.586 431.469ZM543.906 446L537.227 414.984L530.469 446H518.906L506.953 403.422H518.906L525.547 433.969L531.68 403.422H542.969L549.453 434.086L556.094 403.422H567.695L555.352 446H543.906ZM585.312 403.422V446H574.023V403.422H585.312ZM585.312 388.07V398.344H574.023V388.07H585.312ZM615.625 438.07V446.391L610.352 446.586C605.091 446.768 601.497 445.857 599.57 443.852C598.32 442.576 597.695 440.609 597.695 437.953V411.742H591.758V403.812H597.695V391.938H608.711V403.812H615.625V411.742H608.711V434.242C608.711 435.987 608.932 437.081 609.375 437.523C609.818 437.94 611.172 438.148 613.438 438.148C613.776 438.148 614.128 438.148 614.492 438.148C614.883 438.122 615.26 438.096 615.625 438.07ZM661.25 421V446H649.883V420.102C649.883 417.81 649.492 415.961 648.711 414.555C647.695 412.576 645.768 411.586 642.93 411.586C639.987 411.586 637.747 412.576 636.211 414.555C634.701 416.508 633.945 419.307 633.945 422.953V446H622.852V388.617H633.945V408.969C635.56 406.495 637.422 404.776 639.531 403.812C641.667 402.823 643.906 402.328 646.25 402.328C648.88 402.328 651.263 402.784 653.398 403.695C655.56 404.607 657.331 406 658.711 407.875C659.883 409.464 660.599 411.104 660.859 412.797C661.12 414.464 661.25 417.198 661.25 421ZM81.9141 490.617H53.0469V503.859H78.3203V513.859H53.0469V538H41.0938V480.5H81.9141V490.617ZM100.547 495.422V538H89.2578V495.422H100.547ZM100.547 480.07V490.344H89.2578V480.07H100.547ZM123.398 545.461C124.596 546.477 126.615 546.984 129.453 546.984C133.464 546.984 136.146 545.643 137.5 542.961C138.385 541.242 138.828 538.352 138.828 534.289V531.555C137.76 533.378 136.615 534.745 135.391 535.656C133.177 537.349 130.299 538.195 126.758 538.195C121.289 538.195 116.914 536.281 113.633 532.453C110.378 528.599 108.75 523.391 108.75 516.828C108.75 510.5 110.326 505.188 113.477 500.891C116.628 496.568 121.094 494.406 126.875 494.406C129.01 494.406 130.872 494.732 132.461 495.383C135.169 496.503 137.357 498.56 139.023 501.555V495.422H149.844V535.812C149.844 541.307 148.919 545.448 147.07 548.234C143.893 553.026 137.799 555.422 128.789 555.422C123.346 555.422 118.906 554.354 115.469 552.219C112.031 550.083 110.13 546.893 109.766 542.648H121.875C122.188 543.951 122.695 544.888 123.398 545.461ZM121.523 523.469C123.034 527.062 125.742 528.859 129.648 528.859C132.253 528.859 134.453 527.883 136.25 525.93C138.047 523.951 138.945 520.812 138.945 516.516C138.945 512.479 138.086 509.406 136.367 507.297C134.674 505.188 132.396 504.133 129.531 504.133C125.625 504.133 122.93 505.969 121.445 509.641C120.664 511.594 120.273 514.003 120.273 516.867C120.273 519.341 120.69 521.542 121.523 523.469ZM184.18 507.141C183.242 505.083 181.406 504.055 178.672 504.055C175.495 504.055 173.359 505.083 172.266 507.141C171.667 508.312 171.367 510.057 171.367 512.375V538H160.078V495.5H170.898V501.711C172.279 499.497 173.581 497.922 174.805 496.984C176.966 495.318 179.766 494.484 183.203 494.484C186.458 494.484 189.089 495.201 191.094 496.633C192.708 497.961 193.932 499.667 194.766 501.75C196.224 499.25 198.034 497.414 200.195 496.242C202.487 495.07 205.039 494.484 207.852 494.484C209.727 494.484 211.576 494.849 213.398 495.578C215.221 496.307 216.875 497.583 218.359 499.406C219.557 500.891 220.365 502.714 220.781 504.875C221.042 506.307 221.172 508.404 221.172 511.164L221.094 538H209.688V510.891C209.688 509.276 209.427 507.948 208.906 506.906C207.917 504.927 206.094 503.938 203.438 503.938C200.365 503.938 198.242 505.214 197.07 507.766C196.471 509.12 196.172 510.747 196.172 512.648V538H184.961V512.648C184.961 510.122 184.701 508.286 184.18 507.141ZM233.047 500.031C235.99 496.281 241.042 494.406 248.203 494.406C252.865 494.406 257.005 495.331 260.625 497.18C264.245 499.029 266.055 502.518 266.055 507.648V527.18C266.055 528.534 266.081 530.174 266.133 532.102C266.211 533.56 266.432 534.549 266.797 535.07C267.161 535.591 267.708 536.021 268.438 536.359V538H256.328C255.99 537.141 255.755 536.333 255.625 535.578C255.495 534.823 255.391 533.964 255.312 533C253.776 534.667 252.005 536.086 250 537.258C247.604 538.638 244.896 539.328 241.875 539.328C238.021 539.328 234.831 538.234 232.305 536.047C229.805 533.833 228.555 530.708 228.555 526.672C228.555 521.438 230.573 517.648 234.609 515.305C236.823 514.029 240.078 513.117 244.375 512.57L248.164 512.102C250.221 511.841 251.693 511.516 252.578 511.125C254.167 510.448 254.961 509.393 254.961 507.961C254.961 506.216 254.349 505.018 253.125 504.367C251.927 503.69 250.156 503.352 247.812 503.352C245.182 503.352 243.32 504.003 242.227 505.305C241.445 506.268 240.924 507.57 240.664 509.211H229.922C230.156 505.487 231.198 502.427 233.047 500.031ZM241.328 529.953C242.37 530.812 243.646 531.242 245.156 531.242C247.552 531.242 249.753 530.539 251.758 529.133C253.789 527.727 254.844 525.161 254.922 521.438V517.297C254.219 517.74 253.503 518.104 252.773 518.391C252.07 518.651 251.094 518.898 249.844 519.133L247.344 519.602C245 520.018 243.32 520.526 242.305 521.125C240.586 522.141 239.727 523.716 239.727 525.852C239.727 527.753 240.26 529.12 241.328 529.953Z" fill="white" fill-opacity="0.8"/>
<path d="M124.078 330.516C106.044 330.516 93.3815 324.201 86.0898 311.57C78.8633 298.94 75.25 280.939 75.25 257.566C75.25 234.194 78.8633 216.16 86.0898 203.465C93.3815 190.77 106.044 184.422 124.078 184.422C142.112 184.422 154.775 190.77 162.066 203.465C169.293 216.16 172.906 234.194 172.906 257.566C172.906 280.939 169.26 298.94 161.969 311.57C154.742 324.201 142.112 330.516 124.078 330.516ZM140.387 294.871C142.926 286.277 144.195 273.842 144.195 257.566C144.195 240.509 142.893 227.879 140.289 219.676C137.75 211.473 132.346 207.371 124.078 207.371C115.81 207.371 110.341 211.473 107.672 219.676C105.003 227.879 103.668 240.509 103.668 257.566C103.668 273.842 105.003 286.31 107.672 294.969C110.341 303.562 115.81 307.859 124.078 307.859C132.346 307.859 137.783 303.53 140.387 294.871ZM268.414 230.906C260.992 241.453 254.775 252.326 249.762 263.523C245.79 272.312 242.21 283.055 239.02 295.75C235.829 308.445 234.234 318.862 234.234 327H205.328C206.174 301.609 214.508 275.21 230.328 247.801C240.549 230.809 249.111 218.96 256.012 212.254H185.406L185.797 187.254H285.797V209.031C281.63 213.133 275.836 220.424 268.414 230.906Z" fill="white" fill-opacity="0.5"/>
<path d="M560 125C560 69.7717 604.772 25 660 25C715.228 25 760 69.7717 760 125C760 180.228 715.228 225 660 225C604.772 225 560 180.228 560 125Z" fill="#333333"/>
<path d="M640.62 184.69C651.751 184.69 660.775 175.666 660.775 164.535V144.38H640.62C629.488 144.38 620.465 153.404 620.465 164.535C620.465 175.666 629.488 184.69 640.62 184.69Z" fill="#0ACF83"/>
<path d="M620.465 124.225C620.465 113.093 629.488 104.07 640.62 104.07H660.775V144.38H640.62C629.488 144.38 620.465 135.356 620.465 124.225Z" fill="#A259FF"/>
<path d="M620.465 85.4651C620.465 74.3337 629.488 65.3101 640.62 65.3101H660.775V105.62H640.62C629.488 105.62 620.465 96.5962 620.465 85.4651Z" fill="#F24E1E"/>
<path d="M659.225 65.3101H679.38C690.511 65.3101 699.535 74.3337 699.535 85.4651C699.535 96.5962 690.511 105.62 679.38 105.62H659.225V65.3101Z" fill="#FF7262"/>
<path d="M699.535 124.225C699.535 135.356 690.511 144.38 679.38 144.38C668.248 144.38 659.225 135.356 659.225 124.225C659.225 113.093 668.248 104.07 679.38 104.07C690.511 104.07 699.535 113.093 699.535 124.225Z" fill="#1ABCFE"/>
<path d="M741.436 592.713C741.436 593.599 742.139 594.276 742.999 594.276C743.884 594.276 744.588 593.599 744.588 592.713V576.563C744.588 575.703 743.884 575 742.999 575C742.113 575 741.436 575.703 741.436 576.563V592.713Z" fill="white"/>
<path d="M748.655 576.849C748.655 577.787 749.436 578.412 750.452 578.412C751.468 578.412 752.249 577.787 752.249 576.849V576.693C752.249 575.755 751.468 575.156 750.452 575.156C749.436 575.156 748.655 575.755 748.655 576.693V576.849ZM748.889 592.713C748.889 593.599 749.592 594.276 750.452 594.276C751.338 594.276 752.041 593.599 752.041 592.713V581.825C752.041 580.939 751.338 580.236 750.452 580.236C749.566 580.236 748.889 580.939 748.889 581.825V592.713Z" fill="white"/>
<path d="M756.16 592.713C756.16 593.573 756.864 594.276 757.723 594.276C758.609 594.276 759.312 593.573 759.312 592.713V592.01C760.276 593.287 761.709 594.433 764.001 594.433C767.257 594.433 770.383 591.854 770.383 587.295V587.243C770.383 582.658 767.231 580.106 764.001 580.106C761.761 580.106 760.328 581.252 759.312 582.685V576.563C759.312 575.677 758.609 575 757.723 575C756.838 575 756.16 575.677 756.16 576.563V592.713ZM763.246 591.698C761.11 591.698 759.234 589.926 759.234 587.295V587.243C759.234 584.612 761.11 582.841 763.246 582.841C765.382 582.841 767.179 584.586 767.179 587.243V587.295C767.179 590.004 765.408 591.698 763.246 591.698Z" fill="white"/>
<path d="M773.819 592.713C773.819 593.599 774.522 594.276 775.382 594.276C776.268 594.276 776.971 593.599 776.971 592.713V576.563C776.971 575.703 776.268 575 775.382 575C774.496 575 773.819 575.703 773.819 576.563V592.713Z" fill="white"/>
<path d="M787.629 594.459C791.875 594.459 795.001 591.203 795.001 587.295V587.243C795.001 583.31 791.901 580.106 787.681 580.106C783.461 580.106 780.335 583.362 780.335 587.295V587.347C780.335 591.255 783.435 594.459 787.629 594.459ZM787.681 591.698C785.232 591.698 783.487 589.692 783.487 587.295V587.243C783.487 584.847 785.102 582.867 787.629 582.867C790.103 582.867 791.849 584.873 791.849 587.295V587.347C791.849 589.718 790.234 591.698 787.681 591.698Z" fill="white"/>
<path d="M736.96 590.09C735.74 590.65 734.453 591.046 733.208 591.294C728.074 592.314 725.36 589.099 729.634 586.781C730.099 586.529 730.632 586.291 731.228 586.075L732.011 585.826C732.241 585.763 732.463 585.661 732.534 585.515C732.905 584.722 729.731 584.467 727.622 585.589C728.458 585.431 729.186 585.408 729.668 585.608C724.878 586.845 723.788 590.757 726.335 592.642C727.649 593.615 729.127 593.873 731.832 593.682C733.637 593.555 735.48 592.837 736.96 591.969V590.09Z" fill="white"/>
<path d="M734.542 592.784C734.542 593.606 735.171 594.165 736.03 594.165C736.89 594.165 737.478 593.644 737.478 592.784V586.011C737.478 584.214 737.009 582.755 735.993 581.765C735.029 580.775 733.492 580.228 731.434 580.228C729.637 580.228 728.308 580.541 727.006 581.036C726.537 581.218 726.146 581.713 726.146 582.286C726.146 583.016 726.745 583.589 727.475 583.589C727.631 583.589 727.787 583.563 727.97 583.51C728.829 583.172 729.819 582.963 731.018 582.963C733.232 582.963 734.43 584.005 734.43 585.959V585.968L734.542 592.784Z" fill="white"/>
<path d="M733.611 578.379C733.611 578.591 733.273 578.721 732.805 578.721C732.077 578.721 731.583 578.64 730.984 578.282L729.216 577.24C728.956 577.093 728.774 576.93 728.774 576.751C728.774 576.442 729.814 576.116 730.646 576.116C731.192 576.116 731.609 576.295 731.895 576.588L733.377 578.021C733.481 578.119 733.611 578.265 733.611 578.379Z" fill="white"/>
<defs>
<linearGradient id="paint0_linear_5189_12248" x1="800" y1="0" x2="-2.41943" y2="596.747" gradientUnits="userSpaceOnUse">
<stop stop-color="#8E56FF"/>
<stop offset="0.983883" stop-color="#4700C2"/>
</linearGradient>
</defs>
</svg>
