<svg width="800" height="600" viewBox="0 0 800 600" fill="none" xmlns="http://www.w3.org/2000/svg">
<rect width="800" height="600" fill="url(#paint0_linear_5189_12274)"/>
<path d="M131.109 333.422H143.336L127.125 391H115.641L108.688 357.328L106.656 346.195L104.625 357.328L97.6719 391H86.5L70.1719 333.422H82.9453L90.5625 366.391L92.2031 375.57L93.8828 366.586L100.367 333.422H113.062L119.898 366.391L121.656 375.57L123.414 366.742L131.109 333.422ZM160.484 348.422V391H149.195V348.422H160.484ZM160.484 333.07V343.344H149.195V333.07H160.484ZM192.711 358.695C188.232 358.695 185.224 360.154 183.688 363.07C182.828 364.711 182.398 367.237 182.398 370.648V391H171.188V348.422H181.812V355.844C183.531 353.005 185.029 351.065 186.305 350.023C188.388 348.279 191.096 347.406 194.43 347.406C194.638 347.406 194.807 347.419 194.938 347.445C195.094 347.445 195.419 347.458 195.914 347.484V358.891C195.211 358.812 194.586 358.76 194.039 358.734C193.492 358.708 193.049 358.695 192.711 358.695ZM238.922 378.5C238.635 381.026 237.32 383.591 234.977 386.195C231.331 390.336 226.227 392.406 219.664 392.406C214.247 392.406 209.469 390.661 205.328 387.172C201.188 383.682 199.117 378.005 199.117 370.141C199.117 362.771 200.979 357.12 204.703 353.188C208.453 349.255 213.31 347.289 219.273 347.289C222.815 347.289 226.005 347.953 228.844 349.281C231.682 350.609 234.026 352.706 235.875 355.57C237.542 358.096 238.622 361.026 239.117 364.359C239.404 366.312 239.521 369.125 239.469 372.797H210.328C210.484 377.068 211.826 380.062 214.352 381.781C215.888 382.849 217.737 383.383 219.898 383.383C222.19 383.383 224.052 382.732 225.484 381.43C226.266 380.727 226.956 379.75 227.555 378.5H238.922ZM227.906 365.453C227.724 362.51 226.826 360.284 225.211 358.773C223.622 357.237 221.643 356.469 219.273 356.469C216.695 356.469 214.69 357.276 213.258 358.891C211.852 360.505 210.966 362.693 210.602 365.453H227.906ZM266.969 333.07V342.133C266.344 342.055 265.289 342.003 263.805 341.977C262.346 341.924 261.331 342.25 260.758 342.953C260.211 343.63 259.938 344.385 259.938 345.219V348.812H267.242V356.664H259.938V391H248.844V356.664H242.633V348.812H248.727V346.078C248.727 341.521 249.495 338.383 251.031 336.664C252.646 334.112 256.539 332.836 262.711 332.836C263.414 332.836 264.052 332.862 264.625 332.914C265.198 332.94 265.979 332.992 266.969 333.07ZM295.055 358.695C290.576 358.695 287.568 360.154 286.031 363.07C285.172 364.711 284.742 367.237 284.742 370.648V391H273.531V348.422H284.156V355.844C285.875 353.005 287.372 351.065 288.648 350.023C290.732 348.279 293.44 347.406 296.773 347.406C296.982 347.406 297.151 347.419 297.281 347.445C297.438 347.445 297.763 347.458 298.258 347.484V358.891C297.555 358.812 296.93 358.76 296.383 358.734C295.836 358.708 295.393 358.695 295.055 358.695ZM306.422 353.031C309.365 349.281 314.417 347.406 321.578 347.406C326.24 347.406 330.38 348.331 334 350.18C337.62 352.029 339.43 355.518 339.43 360.648V380.18C339.43 381.534 339.456 383.174 339.508 385.102C339.586 386.56 339.807 387.549 340.172 388.07C340.536 388.591 341.083 389.021 341.812 389.359V391H329.703C329.365 390.141 329.13 389.333 329 388.578C328.87 387.823 328.766 386.964 328.688 386C327.151 387.667 325.38 389.086 323.375 390.258C320.979 391.638 318.271 392.328 315.25 392.328C311.396 392.328 308.206 391.234 305.68 389.047C303.18 386.833 301.93 383.708 301.93 379.672C301.93 374.438 303.948 370.648 307.984 368.305C310.198 367.029 313.453 366.117 317.75 365.57L321.539 365.102C323.596 364.841 325.068 364.516 325.953 364.125C327.542 363.448 328.336 362.393 328.336 360.961C328.336 359.216 327.724 358.018 326.5 357.367C325.302 356.69 323.531 356.352 321.188 356.352C318.557 356.352 316.695 357.003 315.602 358.305C314.82 359.268 314.299 360.57 314.039 362.211H303.297C303.531 358.487 304.573 355.427 306.422 353.031ZM314.703 382.953C315.745 383.812 317.021 384.242 318.531 384.242C320.927 384.242 323.128 383.539 325.133 382.133C327.164 380.727 328.219 378.161 328.297 374.438V370.297C327.594 370.74 326.878 371.104 326.148 371.391C325.445 371.651 324.469 371.898 323.219 372.133L320.719 372.602C318.375 373.018 316.695 373.526 315.68 374.125C313.961 375.141 313.102 376.716 313.102 378.852C313.102 380.753 313.635 382.12 314.703 382.953ZM373.258 360.141C372.32 358.083 370.484 357.055 367.75 357.055C364.573 357.055 362.438 358.083 361.344 360.141C360.745 361.312 360.445 363.057 360.445 365.375V391H349.156V348.5H359.977V354.711C361.357 352.497 362.659 350.922 363.883 349.984C366.044 348.318 368.844 347.484 372.281 347.484C375.536 347.484 378.167 348.201 380.172 349.633C381.786 350.961 383.01 352.667 383.844 354.75C385.302 352.25 387.112 350.414 389.273 349.242C391.565 348.07 394.117 347.484 396.93 347.484C398.805 347.484 400.654 347.849 402.477 348.578C404.299 349.307 405.953 350.583 407.438 352.406C408.635 353.891 409.443 355.714 409.859 357.875C410.12 359.307 410.25 361.404 410.25 364.164L410.172 391H398.766V363.891C398.766 362.276 398.505 360.948 397.984 359.906C396.995 357.927 395.172 356.938 392.516 356.938C389.443 356.938 387.32 358.214 386.148 360.766C385.549 362.12 385.25 363.747 385.25 365.648V391H374.039V365.648C374.039 363.122 373.779 361.286 373.258 360.141ZM431.969 348.422V391H420.68V348.422H431.969ZM431.969 333.07V343.344H420.68V333.07H431.969ZM462.828 356.664C459.052 356.664 456.461 358.266 455.055 361.469C454.326 363.161 453.961 365.323 453.961 367.953V391H442.867V348.5H453.609V354.711C455.042 352.523 456.396 350.948 457.672 349.984C459.964 348.266 462.867 347.406 466.383 347.406C470.784 347.406 474.378 348.565 477.164 350.883C479.977 353.174 481.383 356.99 481.383 362.328V391H469.977V365.102C469.977 362.862 469.677 361.143 469.078 359.945C467.984 357.758 465.901 356.664 462.828 356.664ZM503.727 398.461C504.924 399.477 506.943 399.984 509.781 399.984C513.792 399.984 516.474 398.643 517.828 395.961C518.714 394.242 519.156 391.352 519.156 387.289V384.555C518.089 386.378 516.943 387.745 515.719 388.656C513.505 390.349 510.628 391.195 507.086 391.195C501.617 391.195 497.242 389.281 493.961 385.453C490.706 381.599 489.078 376.391 489.078 369.828C489.078 363.5 490.654 358.188 493.805 353.891C496.956 349.568 501.422 347.406 507.203 347.406C509.339 347.406 511.201 347.732 512.789 348.383C515.497 349.503 517.685 351.56 519.352 354.555V348.422H530.172V388.812C530.172 394.307 529.247 398.448 527.398 401.234C524.221 406.026 518.128 408.422 509.117 408.422C503.674 408.422 499.234 407.354 495.797 405.219C492.359 403.083 490.458 399.893 490.094 395.648H502.203C502.516 396.951 503.023 397.888 503.727 398.461ZM501.852 376.469C503.362 380.062 506.07 381.859 509.977 381.859C512.581 381.859 514.781 380.883 516.578 378.93C518.375 376.951 519.273 373.812 519.273 369.516C519.273 365.479 518.414 362.406 516.695 360.297C515.003 358.188 512.724 357.133 509.859 357.133C505.953 357.133 503.258 358.969 501.773 362.641C500.992 364.594 500.602 367.003 500.602 369.867C500.602 372.341 501.018 374.542 501.852 376.469ZM595.172 391L588.492 359.984L581.734 391H570.172L558.219 348.422H570.172L576.812 378.969L582.945 348.422H594.234L600.719 379.086L607.359 348.422H618.961L606.617 391H595.172ZM636.578 348.422V391H625.289V348.422H636.578ZM636.578 333.07V343.344H625.289V333.07H636.578ZM666.891 383.07V391.391L661.617 391.586C656.357 391.768 652.763 390.857 650.836 388.852C649.586 387.576 648.961 385.609 648.961 382.953V356.742H643.023V348.812H648.961V336.938H659.977V348.812H666.891V356.742H659.977V379.242C659.977 380.987 660.198 382.081 660.641 382.523C661.083 382.94 662.438 383.148 664.703 383.148C665.042 383.148 665.393 383.148 665.758 383.148C666.148 383.122 666.526 383.096 666.891 383.07ZM712.516 366V391H701.148V365.102C701.148 362.81 700.758 360.961 699.977 359.555C698.961 357.576 697.034 356.586 694.195 356.586C691.253 356.586 689.013 357.576 687.477 359.555C685.966 361.508 685.211 364.307 685.211 367.953V391H674.117V333.617H685.211V353.969C686.826 351.495 688.688 349.776 690.797 348.812C692.932 347.823 695.172 347.328 697.516 347.328C700.146 347.328 702.529 347.784 704.664 348.695C706.826 349.607 708.596 351 709.977 352.875C711.148 354.464 711.865 356.104 712.125 357.797C712.385 359.464 712.516 362.198 712.516 366ZM115.914 435.617H87.0469V448.859H112.32V458.859H87.0469V483H75.0938V425.5H115.914V435.617ZM134.547 440.422V483H123.258V440.422H134.547ZM134.547 425.07V435.344H123.258V425.07H134.547ZM157.398 490.461C158.596 491.477 160.615 491.984 163.453 491.984C167.464 491.984 170.146 490.643 171.5 487.961C172.385 486.242 172.828 483.352 172.828 479.289V476.555C171.76 478.378 170.615 479.745 169.391 480.656C167.177 482.349 164.299 483.195 160.758 483.195C155.289 483.195 150.914 481.281 147.633 477.453C144.378 473.599 142.75 468.391 142.75 461.828C142.75 455.5 144.326 450.188 147.477 445.891C150.628 441.568 155.094 439.406 160.875 439.406C163.01 439.406 164.872 439.732 166.461 440.383C169.169 441.503 171.357 443.56 173.023 446.555V440.422H183.844V480.812C183.844 486.307 182.919 490.448 181.07 493.234C177.893 498.026 171.799 500.422 162.789 500.422C157.346 500.422 152.906 499.354 149.469 497.219C146.031 495.083 144.13 491.893 143.766 487.648H155.875C156.188 488.951 156.695 489.888 157.398 490.461ZM155.523 468.469C157.034 472.062 159.742 473.859 163.648 473.859C166.253 473.859 168.453 472.883 170.25 470.93C172.047 468.951 172.945 465.812 172.945 461.516C172.945 457.479 172.086 454.406 170.367 452.297C168.674 450.188 166.396 449.133 163.531 449.133C159.625 449.133 156.93 450.969 155.445 454.641C154.664 456.594 154.273 459.003 154.273 461.867C154.273 464.341 154.69 466.542 155.523 468.469ZM218.18 452.141C217.242 450.083 215.406 449.055 212.672 449.055C209.495 449.055 207.359 450.083 206.266 452.141C205.667 453.312 205.367 455.057 205.367 457.375V483H194.078V440.5H204.898V446.711C206.279 444.497 207.581 442.922 208.805 441.984C210.966 440.318 213.766 439.484 217.203 439.484C220.458 439.484 223.089 440.201 225.094 441.633C226.708 442.961 227.932 444.667 228.766 446.75C230.224 444.25 232.034 442.414 234.195 441.242C236.487 440.07 239.039 439.484 241.852 439.484C243.727 439.484 245.576 439.849 247.398 440.578C249.221 441.307 250.875 442.583 252.359 444.406C253.557 445.891 254.365 447.714 254.781 449.875C255.042 451.307 255.172 453.404 255.172 456.164L255.094 483H243.688V455.891C243.688 454.276 243.427 452.948 242.906 451.906C241.917 449.927 240.094 448.938 237.438 448.938C234.365 448.938 232.242 450.214 231.07 452.766C230.471 454.12 230.172 455.747 230.172 457.648V483H218.961V457.648C218.961 455.122 218.701 453.286 218.18 452.141ZM267.047 445.031C269.99 441.281 275.042 439.406 282.203 439.406C286.865 439.406 291.005 440.331 294.625 442.18C298.245 444.029 300.055 447.518 300.055 452.648V472.18C300.055 473.534 300.081 475.174 300.133 477.102C300.211 478.56 300.432 479.549 300.797 480.07C301.161 480.591 301.708 481.021 302.438 481.359V483H290.328C289.99 482.141 289.755 481.333 289.625 480.578C289.495 479.823 289.391 478.964 289.312 478C287.776 479.667 286.005 481.086 284 482.258C281.604 483.638 278.896 484.328 275.875 484.328C272.021 484.328 268.831 483.234 266.305 481.047C263.805 478.833 262.555 475.708 262.555 471.672C262.555 466.438 264.573 462.648 268.609 460.305C270.823 459.029 274.078 458.117 278.375 457.57L282.164 457.102C284.221 456.841 285.693 456.516 286.578 456.125C288.167 455.448 288.961 454.393 288.961 452.961C288.961 451.216 288.349 450.018 287.125 449.367C285.927 448.69 284.156 448.352 281.812 448.352C279.182 448.352 277.32 449.003 276.227 450.305C275.445 451.268 274.924 452.57 274.664 454.211H263.922C264.156 450.487 265.198 447.427 267.047 445.031ZM275.328 474.953C276.37 475.812 277.646 476.242 279.156 476.242C281.552 476.242 283.753 475.539 285.758 474.133C287.789 472.727 288.844 470.161 288.922 466.438V462.297C288.219 462.74 287.503 463.104 286.773 463.391C286.07 463.651 285.094 463.898 283.844 464.133L281.344 464.602C279 465.018 277.32 465.526 276.305 466.125C274.586 467.141 273.727 468.716 273.727 470.852C273.727 472.753 274.26 474.12 275.328 474.953Z" fill="white" fill-opacity="0.8"/>
<path d="M124.078 277.516C106.044 277.516 93.3815 271.201 86.0898 258.57C78.8633 245.94 75.25 227.939 75.25 204.566C75.25 181.194 78.8633 163.16 86.0898 150.465C93.3815 137.77 106.044 131.422 124.078 131.422C142.112 131.422 154.775 137.77 162.066 150.465C169.293 163.16 172.906 181.194 172.906 204.566C172.906 227.939 169.26 245.94 161.969 258.57C154.742 271.201 142.112 277.516 124.078 277.516ZM140.387 241.871C142.926 233.277 144.195 220.842 144.195 204.566C144.195 187.509 142.893 174.879 140.289 166.676C137.75 158.473 132.346 154.371 124.078 154.371C115.81 154.371 110.341 158.473 107.672 166.676C105.003 174.879 103.668 187.509 103.668 204.566C103.668 220.842 105.003 233.31 107.672 241.969C110.341 250.562 115.81 254.859 124.078 254.859C132.346 254.859 137.783 250.53 140.387 241.871ZM233.648 203.688C230.263 203.688 227.333 204.111 224.859 204.957C220.497 206.52 217.21 209.417 214.996 213.648L189.996 212.477L199.957 134.254H277.984V157.887H220.074L214.996 188.844C219.293 186.044 222.646 184.189 225.055 183.277C229.091 181.78 234.007 181.031 239.801 181.031C251.52 181.031 261.741 184.97 270.465 192.848C279.189 200.725 283.551 212.184 283.551 227.223C283.551 240.309 279.352 251.995 270.953 262.281C262.555 272.568 249.99 277.711 233.258 277.711C219.781 277.711 208.714 274.098 200.055 266.871C191.396 259.645 186.578 249.391 185.602 236.109H213.336C214.443 242.164 216.559 246.852 219.684 250.172C222.809 253.427 227.366 255.055 233.355 255.055C240.257 255.055 245.497 252.646 249.078 247.828C252.724 242.945 254.547 236.826 254.547 229.469C254.547 222.242 252.854 216.155 249.469 211.207C246.083 206.194 240.81 203.688 233.648 203.688Z" fill="white" fill-opacity="0.5"/>
<path d="M560 125C560 69.7717 604.772 25 660 25C715.228 25 760 69.7717 760 125C760 180.228 715.228 225 660 225C604.772 225 560 180.228 560 125Z" fill="#333333"/>
<path d="M640.62 184.69C651.751 184.69 660.775 175.666 660.775 164.535V144.38H640.62C629.488 144.38 620.465 153.404 620.465 164.535C620.465 175.666 629.488 184.69 640.62 184.69Z" fill="#0ACF83"/>
<path d="M620.465 124.225C620.465 113.093 629.488 104.07 640.62 104.07H660.775V144.38H640.62C629.488 144.38 620.465 135.356 620.465 124.225Z" fill="#A259FF"/>
<path d="M620.465 85.4651C620.465 74.3337 629.488 65.3101 640.62 65.3101H660.775V105.62H640.62C629.488 105.62 620.465 96.5962 620.465 85.4651Z" fill="#F24E1E"/>
<path d="M659.225 65.3101H679.38C690.511 65.3101 699.535 74.3337 699.535 85.4651C699.535 96.5962 690.511 105.62 679.38 105.62H659.225V65.3101Z" fill="#FF7262"/>
<path d="M699.535 124.225C699.535 135.356 690.511 144.38 679.38 144.38C668.248 144.38 659.225 135.356 659.225 124.225C659.225 113.093 668.248 104.07 679.38 104.07C690.511 104.07 699.535 113.093 699.535 124.225Z" fill="#1ABCFE"/>
<path d="M741.436 592.713C741.436 593.599 742.139 594.276 742.999 594.276C743.884 594.276 744.588 593.599 744.588 592.713V576.563C744.588 575.703 743.884 575 742.999 575C742.113 575 741.436 575.703 741.436 576.563V592.713Z" fill="white"/>
<path d="M748.655 576.849C748.655 577.787 749.436 578.412 750.452 578.412C751.468 578.412 752.249 577.787 752.249 576.849V576.693C752.249 575.755 751.468 575.156 750.452 575.156C749.436 575.156 748.655 575.755 748.655 576.693V576.849ZM748.889 592.713C748.889 593.599 749.592 594.276 750.452 594.276C751.338 594.276 752.041 593.599 752.041 592.713V581.825C752.041 580.939 751.338 580.236 750.452 580.236C749.566 580.236 748.889 580.939 748.889 581.825V592.713Z" fill="white"/>
<path d="M756.16 592.713C756.16 593.573 756.864 594.276 757.723 594.276C758.609 594.276 759.312 593.573 759.312 592.713V592.01C760.276 593.287 761.709 594.433 764.001 594.433C767.257 594.433 770.383 591.854 770.383 587.295V587.243C770.383 582.658 767.231 580.106 764.001 580.106C761.761 580.106 760.328 581.252 759.312 582.685V576.563C759.312 575.677 758.609 575 757.723 575C756.838 575 756.16 575.677 756.16 576.563V592.713ZM763.246 591.698C761.11 591.698 759.234 589.926 759.234 587.295V587.243C759.234 584.612 761.11 582.841 763.246 582.841C765.382 582.841 767.179 584.586 767.179 587.243V587.295C767.179 590.004 765.408 591.698 763.246 591.698Z" fill="white"/>
<path d="M773.819 592.713C773.819 593.599 774.522 594.276 775.382 594.276C776.268 594.276 776.971 593.599 776.971 592.713V576.563C776.971 575.703 776.268 575 775.382 575C774.496 575 773.819 575.703 773.819 576.563V592.713Z" fill="white"/>
<path d="M787.629 594.459C791.875 594.459 795.001 591.203 795.001 587.295V587.243C795.001 583.31 791.901 580.106 787.681 580.106C783.461 580.106 780.335 583.362 780.335 587.295V587.347C780.335 591.255 783.435 594.459 787.629 594.459ZM787.681 591.698C785.232 591.698 783.487 589.692 783.487 587.295V587.243C783.487 584.847 785.102 582.867 787.629 582.867C790.103 582.867 791.849 584.873 791.849 587.295V587.347C791.849 589.718 790.234 591.698 787.681 591.698Z" fill="white"/>
<path d="M736.96 590.09C735.74 590.65 734.453 591.046 733.208 591.294C728.074 592.314 725.36 589.099 729.634 586.781C730.099 586.529 730.632 586.291 731.228 586.075L732.011 585.826C732.241 585.763 732.463 585.661 732.534 585.515C732.905 584.722 729.731 584.467 727.622 585.589C728.458 585.431 729.186 585.408 729.668 585.608C724.878 586.845 723.788 590.757 726.335 592.642C727.649 593.615 729.127 593.873 731.832 593.682C733.637 593.555 735.48 592.837 736.96 591.969V590.09Z" fill="white"/>
<path d="M734.542 592.784C734.542 593.606 735.171 594.165 736.03 594.165C736.89 594.165 737.478 593.644 737.478 592.784V586.011C737.478 584.214 737.009 582.755 735.993 581.765C735.029 580.775 733.492 580.228 731.434 580.228C729.637 580.228 728.308 580.541 727.006 581.036C726.537 581.218 726.146 581.713 726.146 582.286C726.146 583.016 726.745 583.589 727.475 583.589C727.631 583.589 727.787 583.563 727.97 583.51C728.829 583.172 729.819 582.963 731.018 582.963C733.232 582.963 734.43 584.005 734.43 585.959V585.968L734.542 592.784Z" fill="white"/>
<path d="M733.611 578.379C733.611 578.591 733.273 578.721 732.805 578.721C732.077 578.721 731.583 578.64 730.984 578.282L729.216 577.24C728.956 577.093 728.774 576.93 728.774 576.751C728.774 576.442 729.814 576.116 730.646 576.116C731.192 576.116 731.609 576.295 731.895 576.588L733.377 578.021C733.481 578.119 733.611 578.265 733.611 578.379Z" fill="white"/>
<defs>
<linearGradient id="paint0_linear_5189_12274" x1="800" y1="0" x2="-2.41943" y2="596.747" gradientUnits="userSpaceOnUse">
<stop stop-color="#8E56FF"/>
<stop offset="0.983883" stop-color="#4700C2"/>
</linearGradient>
</defs>
</svg>
