<svg width="800" height="600" viewBox="0 0 800 600" fill="none" xmlns="http://www.w3.org/2000/svg">
<rect width="800" height="600" fill="url(#paint0_linear_5189_12209)"/>
<path d="M86.1094 443H74.1562V385.422H86.1094V443ZM120.055 399.406C124.456 399.406 128.049 400.565 130.836 402.883C133.648 405.174 135.055 408.99 135.055 414.328V443H123.648V417.102C123.648 414.862 123.349 413.143 122.75 411.945C121.656 409.758 119.573 408.664 116.5 408.664C112.724 408.664 110.133 410.266 108.727 413.469C107.997 415.161 107.633 417.323 107.633 419.953V443H96.5391V400.5H107.281V406.711C108.714 404.523 110.068 402.948 111.344 401.984C113.635 400.266 116.539 399.406 120.055 399.406ZM140.992 408.742V400.812H146.93V388.938H157.945V400.812H164.859V408.742H157.945V431.242C157.945 432.987 158.167 434.081 158.609 434.523C159.052 434.94 160.406 435.148 162.672 435.148C163.01 435.148 163.362 435.148 163.727 435.148C164.117 435.122 164.495 435.096 164.859 435.07V443.391L159.586 443.586C154.326 443.768 150.732 442.857 148.805 440.852C147.555 439.576 146.93 437.609 146.93 434.953V408.742H140.992ZM195.133 399.406C195.341 399.406 195.51 399.419 195.641 399.445C195.797 399.445 196.122 399.458 196.617 399.484V410.891C195.914 410.812 195.289 410.76 194.742 410.734C194.195 410.708 193.753 410.695 193.414 410.695C188.935 410.695 185.927 412.154 184.391 415.07C183.531 416.711 183.102 419.237 183.102 422.648V443H171.891V400.422H182.516V407.844C184.234 405.005 185.732 403.065 187.008 402.023C189.091 400.279 191.799 399.406 195.133 399.406ZM222.281 435.148C225.536 435.148 228.036 433.99 229.781 431.672C231.526 429.354 232.398 426.06 232.398 421.789C232.398 417.518 231.526 414.237 229.781 411.945C228.036 409.628 225.536 408.469 222.281 408.469C219.026 408.469 216.513 409.628 214.742 411.945C212.997 414.237 212.125 417.518 212.125 421.789C212.125 426.06 212.997 429.354 214.742 431.672C216.513 433.99 219.026 435.148 222.281 435.148ZM244.078 421.789C244.078 428.039 242.281 433.391 238.688 437.844C235.094 442.271 229.638 444.484 222.32 444.484C215.003 444.484 209.547 442.271 205.953 437.844C202.359 433.391 200.562 428.039 200.562 421.789C200.562 415.643 202.359 410.318 205.953 405.812C209.547 401.307 215.003 399.055 222.32 399.055C229.638 399.055 235.094 401.307 238.688 405.812C242.281 410.318 244.078 415.643 244.078 421.789ZM267.789 399.406C270.367 399.406 272.659 399.979 274.664 401.125C276.669 402.245 278.297 403.807 279.547 405.812V385.5H290.836V443H280.016V437.102C278.427 439.628 276.617 441.464 274.586 442.609C272.555 443.755 270.029 444.328 267.008 444.328C262.034 444.328 257.841 442.323 254.43 438.312C251.044 434.276 249.352 429.107 249.352 422.805C249.352 415.539 251.018 409.823 254.352 405.656C257.711 401.49 262.19 399.406 267.789 399.406ZM270.211 434.953C273.362 434.953 275.758 433.781 277.398 431.438C279.039 429.094 279.859 426.06 279.859 422.336C279.859 417.128 278.544 413.404 275.914 411.164C274.299 409.81 272.424 409.133 270.289 409.133C267.034 409.133 264.638 410.37 263.102 412.844C261.591 415.292 260.836 418.339 260.836 421.984C260.836 425.917 261.604 429.068 263.141 431.438C264.703 433.781 267.06 434.953 270.211 434.953ZM312.086 400.422V426.086C312.086 428.508 312.372 430.331 312.945 431.555C313.961 433.716 315.953 434.797 318.922 434.797C322.724 434.797 325.328 433.26 326.734 430.188C327.464 428.521 327.828 426.32 327.828 423.586V400.422H339.117V443H328.297V436.984C328.193 437.115 327.932 437.505 327.516 438.156C327.099 438.807 326.604 439.38 326.031 439.875C324.286 441.438 322.594 442.505 320.953 443.078C319.339 443.651 317.438 443.938 315.25 443.938C308.948 443.938 304.703 441.672 302.516 437.141C301.292 434.641 300.68 430.956 300.68 426.086V400.422H312.086ZM375.328 415.695C375.12 414.107 374.586 412.674 373.727 411.398C372.477 409.68 370.536 408.82 367.906 408.82C364.156 408.82 361.591 410.682 360.211 414.406C359.482 416.385 359.117 419.016 359.117 422.297C359.117 425.422 359.482 427.935 360.211 429.836C361.539 433.378 364.039 435.148 367.711 435.148C370.315 435.148 372.164 434.445 373.258 433.039C374.352 431.633 375.016 429.81 375.25 427.57H386.617C386.357 430.956 385.133 434.159 382.945 437.18C379.456 442.049 374.286 444.484 367.438 444.484C360.589 444.484 355.549 442.453 352.32 438.391C349.091 434.328 347.477 429.055 347.477 422.57C347.477 415.253 349.26 409.562 352.828 405.5C356.396 401.438 361.318 399.406 367.594 399.406C372.932 399.406 377.294 400.604 380.68 403C384.091 405.396 386.109 409.628 386.734 415.695H375.328ZM390.055 408.742V400.812H395.992V388.938H407.008V400.812H413.922V408.742H407.008V431.242C407.008 432.987 407.229 434.081 407.672 434.523C408.115 434.94 409.469 435.148 411.734 435.148C412.073 435.148 412.424 435.148 412.789 435.148C413.18 435.122 413.557 435.096 413.922 435.07V443.391L408.648 443.586C403.388 443.768 399.794 442.857 397.867 440.852C396.617 439.576 395.992 437.609 395.992 434.953V408.742H390.055ZM432.516 395.344H421.227V385.07H432.516V395.344ZM421.227 400.422H432.516V443H421.227V400.422ZM462.438 435.148C465.693 435.148 468.193 433.99 469.938 431.672C471.682 429.354 472.555 426.06 472.555 421.789C472.555 417.518 471.682 414.237 469.938 411.945C468.193 409.628 465.693 408.469 462.438 408.469C459.182 408.469 456.669 409.628 454.898 411.945C453.154 414.237 452.281 417.518 452.281 421.789C452.281 426.06 453.154 429.354 454.898 431.672C456.669 433.99 459.182 435.148 462.438 435.148ZM484.234 421.789C484.234 428.039 482.438 433.391 478.844 437.844C475.25 442.271 469.794 444.484 462.477 444.484C455.159 444.484 449.703 442.271 446.109 437.844C442.516 433.391 440.719 428.039 440.719 421.789C440.719 415.643 442.516 410.318 446.109 405.812C449.703 401.307 455.159 399.055 462.477 399.055C469.794 399.055 475.25 401.307 478.844 405.812C482.438 410.318 484.234 415.643 484.234 421.789ZM515.836 399.406C520.237 399.406 523.831 400.565 526.617 402.883C529.43 405.174 530.836 408.99 530.836 414.328V443H519.43V417.102C519.43 414.862 519.13 413.143 518.531 411.945C517.438 409.758 515.354 408.664 512.281 408.664C508.505 408.664 505.914 410.266 504.508 413.469C503.779 415.161 503.414 417.323 503.414 419.953V443H492.32V400.5H503.062V406.711C504.495 404.523 505.849 402.948 507.125 401.984C509.417 400.266 512.32 399.406 515.836 399.406ZM559.039 408.742V400.812H564.977V388.938H575.992V400.812H582.906V408.742H575.992V431.242C575.992 432.987 576.214 434.081 576.656 434.523C577.099 434.94 578.453 435.148 580.719 435.148C581.057 435.148 581.409 435.148 581.773 435.148C582.164 435.122 582.542 435.096 582.906 435.07V443.391L577.633 443.586C572.372 443.768 568.779 442.857 566.852 440.852C565.602 439.576 564.977 437.609 564.977 434.953V408.742H559.039ZM609.156 435.148C612.411 435.148 614.911 433.99 616.656 431.672C618.401 429.354 619.273 426.06 619.273 421.789C619.273 417.518 618.401 414.237 616.656 411.945C614.911 409.628 612.411 408.469 609.156 408.469C605.901 408.469 603.388 409.628 601.617 411.945C599.872 414.237 599 417.518 599 421.789C599 426.06 599.872 429.354 601.617 431.672C603.388 433.99 605.901 435.148 609.156 435.148ZM630.953 421.789C630.953 428.039 629.156 433.391 625.562 437.844C621.969 442.271 616.513 444.484 609.195 444.484C601.878 444.484 596.422 442.271 592.828 437.844C589.234 433.391 587.438 428.039 587.438 421.789C587.438 415.643 589.234 410.318 592.828 405.812C596.422 401.307 601.878 399.055 609.195 399.055C616.513 399.055 621.969 401.307 625.562 405.812C629.156 410.318 630.953 415.643 630.953 421.789ZM75.0938 477.5H115.914V487.617H87.0469V500.859H112.32V510.859H87.0469V535H75.0938V477.5ZM134.547 487.344H123.258V477.07H134.547V487.344ZM123.258 492.422H134.547V535H123.258V492.422ZM163.648 525.859C166.253 525.859 168.453 524.883 170.25 522.93C172.047 520.951 172.945 517.812 172.945 513.516C172.945 509.479 172.086 506.406 170.367 504.297C168.674 502.188 166.396 501.133 163.531 501.133C159.625 501.133 156.93 502.969 155.445 506.641C154.664 508.594 154.273 511.003 154.273 513.867C154.273 516.341 154.69 518.542 155.523 520.469C157.034 524.062 159.742 525.859 163.648 525.859ZM160.875 491.406C163.01 491.406 164.872 491.732 166.461 492.383C169.169 493.503 171.357 495.56 173.023 498.555V492.422H183.844V532.812C183.844 538.307 182.919 542.448 181.07 545.234C177.893 550.026 171.799 552.422 162.789 552.422C157.346 552.422 152.906 551.354 149.469 549.219C146.031 547.083 144.13 543.893 143.766 539.648H155.875C156.188 540.951 156.695 541.888 157.398 542.461C158.596 543.477 160.615 543.984 163.453 543.984C167.464 543.984 170.146 542.643 171.5 539.961C172.385 538.242 172.828 535.352 172.828 531.289V528.555C171.76 530.378 170.615 531.745 169.391 532.656C167.177 534.349 164.299 535.195 160.758 535.195C155.289 535.195 150.914 533.281 147.633 529.453C144.378 525.599 142.75 520.391 142.75 513.828C142.75 507.5 144.326 502.188 147.477 497.891C150.628 493.568 155.094 491.406 160.875 491.406ZM241.852 491.484C243.727 491.484 245.576 491.849 247.398 492.578C249.221 493.307 250.875 494.583 252.359 496.406C253.557 497.891 254.365 499.714 254.781 501.875C255.042 503.307 255.172 505.404 255.172 508.164L255.094 535H243.688V507.891C243.688 506.276 243.427 504.948 242.906 503.906C241.917 501.927 240.094 500.938 237.438 500.938C234.365 500.938 232.242 502.214 231.07 504.766C230.471 506.12 230.172 507.747 230.172 509.648V535H218.961V509.648C218.961 507.122 218.701 505.286 218.18 504.141C217.242 502.083 215.406 501.055 212.672 501.055C209.495 501.055 207.359 502.083 206.266 504.141C205.667 505.312 205.367 507.057 205.367 509.375V535H194.078V492.5H204.898V498.711C206.279 496.497 207.581 494.922 208.805 493.984C210.966 492.318 213.766 491.484 217.203 491.484C220.458 491.484 223.089 492.201 225.094 493.633C226.708 494.961 227.932 496.667 228.766 498.75C230.224 496.25 232.034 494.414 234.195 493.242C236.487 492.07 239.039 491.484 241.852 491.484ZM288.922 514.297C288.219 514.74 287.503 515.104 286.773 515.391C286.07 515.651 285.094 515.898 283.844 516.133L281.344 516.602C279 517.018 277.32 517.526 276.305 518.125C274.586 519.141 273.727 520.716 273.727 522.852C273.727 524.753 274.247 526.133 275.289 526.992C276.357 527.826 277.646 528.242 279.156 528.242C281.552 528.242 283.753 527.539 285.758 526.133C287.789 524.727 288.844 522.161 288.922 518.438V514.297ZM282.164 509.102C284.221 508.841 285.693 508.516 286.578 508.125C288.167 507.448 288.961 506.393 288.961 504.961C288.961 503.216 288.349 502.018 287.125 501.367C285.927 500.69 284.156 500.352 281.812 500.352C279.182 500.352 277.32 501.003 276.227 502.305C275.445 503.268 274.924 504.57 274.664 506.211H263.922C264.156 502.487 265.198 499.427 267.047 497.031C269.99 493.281 275.042 491.406 282.203 491.406C286.865 491.406 291.005 492.331 294.625 494.18C298.245 496.029 300.055 499.518 300.055 504.648V524.18C300.055 525.534 300.081 527.174 300.133 529.102C300.211 530.56 300.432 531.549 300.797 532.07C301.161 532.591 301.708 533.021 302.438 533.359V535H290.328C289.99 534.141 289.755 533.333 289.625 532.578C289.495 531.823 289.391 530.964 289.312 530C287.776 531.667 286.005 533.086 284 534.258C281.604 535.638 278.896 536.328 275.875 536.328C272.021 536.328 268.831 535.234 266.305 533.047C263.805 530.833 262.555 527.708 262.555 523.672C262.555 518.438 264.573 514.648 268.609 512.305C270.823 511.029 274.078 510.117 278.375 509.57L282.164 509.102Z" fill="white" fill-opacity="0.8"/>
<path d="M103.668 257.566C103.668 273.842 105.003 286.31 107.672 294.969C110.341 303.562 115.81 307.859 124.078 307.859C132.346 307.859 137.75 303.562 140.289 294.969C142.893 286.31 144.195 273.842 144.195 257.566C144.195 240.509 142.893 227.879 140.289 219.676C137.75 211.473 132.346 207.371 124.078 207.371C115.81 207.371 110.341 211.473 107.672 219.676C105.003 227.879 103.668 240.509 103.668 257.566ZM124.078 184.422C142.112 184.422 154.742 190.77 161.969 203.465C169.26 216.16 172.906 234.194 172.906 257.566C172.906 280.939 169.26 298.94 161.969 311.57C154.742 324.201 142.112 330.516 124.078 330.516C106.044 330.516 93.3815 324.201 86.0898 311.57C78.8633 298.94 75.25 280.939 75.25 257.566C75.25 234.194 78.8633 216.16 86.0898 203.465C93.3815 190.77 106.044 184.422 124.078 184.422ZM194.195 229.344V210.398C202.984 210.008 209.137 209.422 212.652 208.641C218.251 207.404 222.809 204.93 226.324 201.219C228.733 198.68 230.556 195.294 231.793 191.062C232.509 188.523 232.867 186.635 232.867 185.398H256.012V327H227.496V229.344H194.195Z" fill="white" fill-opacity="0.5"/>
<path d="M560 125C560 69.7717 604.772 25 660 25C715.228 25 760 69.7717 760 125C760 180.228 715.228 225 660 225C604.772 225 560 180.228 560 125Z" fill="#333333"/>
<path d="M640.62 184.69C651.751 184.69 660.775 175.666 660.775 164.535V144.38H640.62C629.488 144.38 620.465 153.404 620.465 164.535C620.465 175.666 629.488 184.69 640.62 184.69Z" fill="#0ACF83"/>
<path d="M620.465 124.225C620.465 113.093 629.488 104.07 640.62 104.07H660.775V144.38H640.62C629.488 144.38 620.465 135.356 620.465 124.225Z" fill="#A259FF"/>
<path d="M620.465 85.4651C620.465 74.3337 629.488 65.3101 640.62 65.3101H660.775V105.62H640.62C629.488 105.62 620.465 96.5962 620.465 85.4651Z" fill="#F24E1E"/>
<path d="M659.225 65.3101H679.38C690.511 65.3101 699.535 74.3337 699.535 85.4651C699.535 96.5962 690.511 105.62 679.38 105.62H659.225V65.3101Z" fill="#FF7262"/>
<path d="M699.535 124.225C699.535 135.356 690.511 144.38 679.38 144.38C668.248 144.38 659.225 135.356 659.225 124.225C659.225 113.093 668.248 104.07 679.38 104.07C690.511 104.07 699.535 113.093 699.535 124.225Z" fill="#1ABCFE"/>
<path d="M741.436 592.713C741.436 593.599 742.139 594.276 742.999 594.276C743.884 594.276 744.588 593.599 744.588 592.713V576.563C744.588 575.703 743.884 575 742.999 575C742.113 575 741.436 575.703 741.436 576.563V592.713Z" fill="white"/>
<path d="M748.655 576.849C748.655 577.787 749.436 578.412 750.452 578.412C751.468 578.412 752.249 577.787 752.249 576.849V576.693C752.249 575.755 751.468 575.156 750.452 575.156C749.436 575.156 748.655 575.755 748.655 576.693V576.849ZM748.889 592.713C748.889 593.599 749.592 594.276 750.452 594.276C751.338 594.276 752.041 593.599 752.041 592.713V581.825C752.041 580.939 751.338 580.236 750.452 580.236C749.566 580.236 748.889 580.939 748.889 581.825V592.713Z" fill="white"/>
<path d="M756.16 592.713C756.16 593.573 756.864 594.276 757.723 594.276C758.609 594.276 759.312 593.573 759.312 592.713V592.01C760.276 593.287 761.709 594.433 764.001 594.433C767.257 594.433 770.383 591.854 770.383 587.295V587.243C770.383 582.658 767.231 580.106 764.001 580.106C761.761 580.106 760.328 581.252 759.312 582.685V576.563C759.312 575.677 758.609 575 757.723 575C756.838 575 756.16 575.677 756.16 576.563V592.713ZM763.246 591.698C761.11 591.698 759.234 589.926 759.234 587.295V587.243C759.234 584.612 761.11 582.841 763.246 582.841C765.382 582.841 767.179 584.586 767.179 587.243V587.295C767.179 590.004 765.408 591.698 763.246 591.698Z" fill="white"/>
<path d="M773.819 592.713C773.819 593.599 774.522 594.276 775.382 594.276C776.268 594.276 776.971 593.599 776.971 592.713V576.563C776.971 575.703 776.268 575 775.382 575C774.496 575 773.819 575.703 773.819 576.563V592.713Z" fill="white"/>
<path d="M787.629 594.459C791.875 594.459 795.001 591.203 795.001 587.295V587.243C795.001 583.31 791.901 580.106 787.681 580.106C783.461 580.106 780.335 583.362 780.335 587.295V587.347C780.335 591.255 783.435 594.459 787.629 594.459ZM787.681 591.698C785.232 591.698 783.487 589.692 783.487 587.295V587.243C783.487 584.847 785.102 582.867 787.629 582.867C790.103 582.867 791.849 584.873 791.849 587.295V587.347C791.849 589.718 790.234 591.698 787.681 591.698Z" fill="white"/>
<path d="M736.96 590.09C735.74 590.65 734.453 591.047 733.208 591.294C728.074 592.315 725.36 589.099 729.634 586.781C730.099 586.529 730.632 586.291 731.228 586.075L732.011 585.826C732.241 585.763 732.463 585.662 732.534 585.515C732.905 584.723 729.731 584.467 727.622 585.589C728.458 585.431 729.186 585.408 729.668 585.609C724.878 586.845 723.788 590.757 726.335 592.642C727.649 593.615 729.127 593.873 731.832 593.682C733.637 593.555 735.48 592.837 736.96 591.969V590.09Z" fill="white"/>
<path d="M734.542 592.784C734.542 593.607 735.171 594.165 736.03 594.165C736.89 594.165 737.478 593.644 737.478 592.784V586.011C737.478 584.214 737.009 582.755 735.993 581.765C735.029 580.776 733.492 580.229 731.434 580.229C729.637 580.229 728.308 580.541 727.006 581.036C726.537 581.218 726.146 581.713 726.146 582.286C726.146 583.016 726.745 583.589 727.475 583.589C727.631 583.589 727.787 583.563 727.97 583.511C728.829 583.172 729.819 582.964 731.018 582.964C733.232 582.964 734.43 584.006 734.43 585.959V585.968L734.542 592.784Z" fill="white"/>
<path d="M733.611 578.379C733.611 578.591 733.273 578.721 732.805 578.721C732.077 578.721 731.583 578.64 730.984 578.282L729.216 577.24C728.956 577.093 728.774 576.93 728.774 576.751C728.774 576.442 729.814 576.116 730.646 576.116C731.192 576.116 731.609 576.296 731.895 576.589L733.377 578.021C733.481 578.119 733.611 578.266 733.611 578.379Z" fill="white"/>
<defs>
<linearGradient id="paint0_linear_5189_12209" x1="800" y1="0" x2="-2.41943" y2="596.747" gradientUnits="userSpaceOnUse">
<stop stop-color="#8E56FF"/>
<stop offset="0.983883" stop-color="#4700C2"/>
</linearGradient>
</defs>
</svg>
