<svg width="800" height="600" viewBox="0 0 800 600" fill="none" xmlns="http://www.w3.org/2000/svg">
<rect width="800" height="600" fill="white"/>
<path d="M741.436 592.713C741.436 593.599 742.139 594.276 742.999 594.276C743.884 594.276 744.588 593.599 744.588 592.713V576.563C744.588 575.703 743.884 575 742.999 575C742.113 575 741.436 575.703 741.436 576.563V592.713Z" fill="white"/>
<path d="M748.655 576.849C748.655 577.787 749.436 578.412 750.452 578.412C751.468 578.412 752.249 577.787 752.249 576.849V576.693C752.249 575.755 751.468 575.156 750.452 575.156C749.436 575.156 748.655 575.755 748.655 576.693V576.849ZM748.889 592.713C748.889 593.599 749.592 594.276 750.452 594.276C751.338 594.276 752.041 593.599 752.041 592.713V581.825C752.041 580.939 751.338 580.236 750.452 580.236C749.566 580.236 748.889 580.939 748.889 581.825V592.713Z" fill="white"/>
<path d="M756.16 592.713C756.16 593.573 756.864 594.276 757.723 594.276C758.609 594.276 759.312 593.573 759.312 592.713V592.01C760.276 593.287 761.709 594.433 764.001 594.433C767.257 594.433 770.383 591.854 770.383 587.295V587.243C770.383 582.658 767.231 580.106 764.001 580.106C761.761 580.106 760.328 581.252 759.312 582.685V576.563C759.312 575.677 758.609 575 757.723 575C756.838 575 756.16 575.677 756.16 576.563V592.713ZM763.246 591.698C761.11 591.698 759.234 589.926 759.234 587.295V587.243C759.234 584.612 761.11 582.841 763.246 582.841C765.382 582.841 767.179 584.586 767.179 587.243V587.295C767.179 590.004 765.408 591.698 763.246 591.698Z" fill="white"/>
<path d="M773.819 592.713C773.819 593.599 774.522 594.276 775.382 594.276C776.268 594.276 776.971 593.599 776.971 592.713V576.563C776.971 575.703 776.268 575 775.382 575C774.496 575 773.819 575.703 773.819 576.563V592.713Z" fill="white"/>
<path d="M787.629 594.459C791.875 594.459 795.001 591.203 795.001 587.295V587.243C795.001 583.31 791.901 580.106 787.681 580.106C783.461 580.106 780.335 583.362 780.335 587.295V587.347C780.335 591.255 783.435 594.459 787.629 594.459ZM787.681 591.698C785.232 591.698 783.487 589.692 783.487 587.295V587.243C783.487 584.847 785.102 582.867 787.629 582.867C790.103 582.867 791.849 584.873 791.849 587.295V587.347C791.849 589.718 790.234 591.698 787.681 591.698Z" fill="white"/>
<path d="M736.96 590.09C735.74 590.65 734.453 591.046 733.208 591.294C728.074 592.314 725.36 589.099 729.634 586.781C730.099 586.529 730.632 586.291 731.228 586.075L732.011 585.826C732.241 585.763 732.463 585.661 732.534 585.515C732.905 584.723 729.731 584.467 727.622 585.589C728.458 585.431 729.186 585.408 729.668 585.609C724.878 586.845 723.788 590.757 726.335 592.642C727.649 593.615 729.127 593.873 731.832 593.682C733.637 593.555 735.48 592.837 736.96 591.969V590.09Z" fill="url(#paint0_linear_5229_11476)"/>
<path d="M734.542 592.784C734.542 593.607 735.171 594.165 736.03 594.165C736.89 594.165 737.478 593.644 737.478 592.784V586.011C737.478 584.214 737.009 582.755 735.993 581.765C735.029 580.775 733.492 580.228 731.434 580.228C729.637 580.228 728.308 580.541 727.006 581.036C726.537 581.218 726.146 581.713 726.146 582.286C726.146 583.016 726.745 583.589 727.475 583.589C727.631 583.589 727.787 583.563 727.97 583.511C728.829 583.172 729.819 582.964 731.018 582.964C733.232 582.964 734.43 584.006 734.43 585.959V585.968L734.542 592.784Z" fill="url(#paint1_linear_5229_11476)"/>
<path d="M733.611 578.379C733.611 578.591 733.273 578.721 732.805 578.721C732.077 578.721 731.583 578.64 730.984 578.282L729.216 577.24C728.956 577.093 728.774 576.93 728.774 576.751C728.774 576.442 729.814 576.116 730.646 576.116C731.192 576.116 731.609 576.295 731.895 576.589L733.377 578.021C733.481 578.119 733.611 578.265 733.611 578.379Z" fill="url(#paint2_linear_5229_11476)"/>
<g clip-path="url(#clip0_5229_11476)">
<path d="M362.537 253.125C362.537 260.584 359.574 267.738 354.299 273.012C349.025 278.287 341.871 281.25 334.412 281.25C326.953 281.25 319.799 278.287 314.525 273.012C309.25 267.738 306.287 260.584 306.287 253.125C306.287 245.666 309.25 238.512 314.525 233.238C319.799 227.963 326.953 225 334.412 225C341.871 225 349.025 227.963 354.299 233.238C359.574 238.512 362.537 245.666 362.537 253.125V253.125Z" fill="#BFE0FF"/>
<path d="M278.125 187.5C270.666 187.5 263.512 190.463 258.238 195.738C252.963 201.012 250 208.166 250 215.625V384.375C250 391.834 252.963 398.988 258.238 404.262C263.512 409.537 270.666 412.5 278.125 412.5H521.875C529.334 412.5 536.488 409.537 541.762 404.262C547.037 398.988 550 391.834 550 384.375V215.625C550 208.166 547.037 201.012 541.762 195.738C536.488 190.463 529.334 187.5 521.875 187.5H278.125ZM521.875 206.25C524.361 206.25 526.746 207.238 528.504 208.996C530.262 210.754 531.25 213.139 531.25 215.625V328.125L460.469 291.619C458.71 290.738 456.72 290.432 454.778 290.745C452.837 291.058 451.043 291.974 449.65 293.362L380.088 362.925L330.212 329.7C328.412 328.501 326.252 327.962 324.099 328.174C321.946 328.386 319.932 329.336 318.4 330.862L268.787 375V385.125C268.765 384.876 268.753 384.625 268.75 384.375V215.625C268.75 213.139 269.738 210.754 271.496 208.996C273.254 207.238 275.639 206.25 278.125 206.25H521.875Z" fill="#BFE0FF"/>
</g>
<defs>
<linearGradient id="paint0_linear_5229_11476" x1="719.394" y1="601.3" x2="738.186" y2="600.76" gradientUnits="userSpaceOnUse">
<stop stop-color="white"/>
<stop offset="1" stop-color="#009AF9"/>
</linearGradient>
<linearGradient id="paint1_linear_5229_11476" x1="719.394" y1="601.3" x2="738.186" y2="600.76" gradientUnits="userSpaceOnUse">
<stop stop-color="white"/>
<stop offset="1" stop-color="#009AF9"/>
</linearGradient>
<linearGradient id="paint2_linear_5229_11476" x1="719.394" y1="601.3" x2="738.186" y2="600.76" gradientUnits="userSpaceOnUse">
<stop stop-color="white"/>
<stop offset="1" stop-color="#009AF9"/>
</linearGradient>
<clipPath id="clip0_5229_11476">
<rect width="300" height="300" fill="white" transform="translate(250 150)"/>
</clipPath>
</defs>
</svg>
