<?xml version="1.0" encoding="UTF-8"?>
<svg width="257px" height="257px" viewBox="0 0 257 257" version="1.1" xmlns="http://www.w3.org/2000/svg" xmlns:xlink="http://www.w3.org/1999/xlink">
    <title>GitAndGitHub</title>
    <g id="Symbols" stroke="none" stroke-width="1" fill="none" fill-rule="evenodd">
        <g id="GitAndGitHub">
            <circle id="Oval" stroke="#979797" fill="#FFFFFF" cx="128.5" cy="128.5" r="128"></circle>
            <g id="git" transform="translate(13.000000, 105.000000)">
                <path d="M74.81725,17.748 C72.08025,17.748 70.04225,19.092 70.04225,22.327 C70.04225,24.764 71.38525,26.456 74.67025,26.456 C77.45425,26.456 79.34625,24.815 79.34625,22.226 C79.34625,19.292 77.65325,17.748 74.81725,17.748 L74.81725,17.748 Z M69.34625,40.588 C68.69825,41.383 68.05225,42.228 68.05225,43.225 C68.05225,45.214 70.58825,45.812 74.07325,45.812 C76.95825,45.812 80.88925,45.61 80.88925,42.927 C80.88925,41.332 78.99725,41.234 76.60825,41.084 L69.34625,40.588 Z M84.07125,17.898 C84.96625,19.043 85.91325,20.635 85.91325,22.924 C85.91325,28.446 81.58425,31.68 75.31625,31.68 C73.72225,31.68 72.27925,31.482 71.38425,31.233 L69.74225,33.87 L74.61725,34.167 C83.22525,34.716 88.29925,34.965 88.29925,41.58 C88.29925,47.303 83.27525,50.535 74.61725,50.535 C65.61125,50.535 62.17925,48.246 62.17925,44.317 C62.17925,42.077 63.17525,40.886 64.91625,39.241 C63.27325,38.547 62.72725,37.304 62.72725,35.96 C62.72725,34.865 63.27425,33.87 64.17025,32.924 C65.06625,31.98 66.06125,31.033 67.25425,29.939 C64.81625,28.745 62.97625,26.158 62.97625,22.475 C62.97625,16.754 66.75725,12.825 74.36925,12.825 C76.50925,12.825 77.80425,13.022 78.94725,13.323 L88.65025,13.323 L88.65025,17.551 L84.07125,17.898 L84.07125,17.898 Z M97.40325,8.858 C94.56625,8.858 92.92425,7.215 92.92425,4.378 C92.92425,1.545 94.56625,0.001 97.40325,0.001 C100.28925,0.001 101.93025,1.544 101.93025,4.378 C101.93125,7.215 100.28925,8.858 97.40325,8.858 Z M90.98325,38.758 L90.98325,34.829 L93.52225,34.481 C94.21825,34.381 94.31725,34.232 94.31725,33.484 L94.31725,18.857 C94.31725,18.311 94.16925,17.961 93.67025,17.813 L90.98325,16.867 L91.53025,12.839 L101.83125,12.839 L101.83125,33.485 C101.83125,34.283 101.87925,34.381 102.62725,34.482 L105.16525,34.83 L105.16525,38.759 L90.98325,38.759 L90.98325,38.758 Z M124.84025,36.828 C122.69925,37.871 119.56625,38.818 116.72825,38.818 C110.80825,38.818 108.57025,36.432 108.57025,30.807 L108.57025,17.772 C108.57025,17.475 108.57025,17.275 108.17125,17.275 L104.68925,17.275 L104.68925,12.847 C109.06925,12.348 110.80925,10.159 111.35625,4.736 L116.08425,4.736 L116.08425,11.803 C116.08425,12.15 116.08425,12.301 116.48225,12.301 L123.49725,12.301 L123.49725,17.276 L116.08425,17.276 L116.08425,29.166 C116.08425,32.101 116.78125,33.245 119.46725,33.245 C120.86225,33.245 122.30325,32.898 123.49725,32.45 L124.84025,36.828 L124.84025,36.828 Z" id="Shape" fill="#31251C" fill-rule="nonzero"></path>
                <path d="M51.12025,23.772 L28.37125,1.024 C27.06225,-0.286 24.93725,-0.286 23.62725,1.024 L18.90325,5.748 L24.89425,11.74 C26.28825,11.27 27.88425,11.585 28.99425,12.696 C30.11025,13.813 30.42325,15.423 29.94125,16.821 L35.71625,22.596 C37.11225,22.115 38.72525,22.426 39.84125,23.543 C41.40125,25.102 41.40125,27.629 39.84125,29.189 C38.28025,30.749 35.75425,30.749 34.19425,29.189 C33.02125,28.015 32.73125,26.292 33.32525,24.847 L27.93925,19.461 L27.93825,33.635 C28.31925,33.823 28.67725,34.073 28.99425,34.389 C30.55425,35.948 30.55425,38.474 28.99425,40.036 C27.43425,41.595 24.90625,41.595 23.34825,40.036 C21.78825,38.474 21.78825,35.948 23.34825,34.389 C23.73425,34.004 24.17925,33.713 24.65525,33.518 L24.65525,19.213 C24.17925,19.019 23.73425,18.729 23.34825,18.342 C22.16625,17.161 21.88225,15.428 22.48825,13.977 L16.58225,8.069 L0.98325,23.667 C-0.32775,24.978 -0.32775,27.103 0.98325,28.414 L23.73225,51.162 C25.04225,52.472 27.16625,52.472 28.47825,51.162 L51.12025,28.518 C52.43125,27.208 52.43125,25.082 51.12025,23.772 L51.12025,23.772 Z" id="Path" fill="#F34F29" fill-rule="nonzero"></path>
                <polygon id="Path" points="0.00025 0 124.84025 0 124.84025 52.143 0.00025 52.143"></polygon>
            </g>
            <g id="github" transform="translate(152.000000, 88.000000)" fill="#000000" fill-rule="nonzero">
                <path d="M44.4944355,0 C19.9248884,0 0,19.9689412 0,44.6024849 C-0.0205593426,63.7741968 12.2348367,80.8137745 30.4380068,86.9226464 C32.6630054,87.3335757 33.4751299,85.9564073 33.4751299,84.7735974 C33.4751299,83.7129556 33.4361924,80.908641 33.4139425,77.1880652 C21.0373877,79.8813179 18.4230143,71.2073784 18.4230143,71.2073784 C16.4038281,66.0541033 13.4835174,64.682488 13.4835174,64.682488 C9.43958248,61.9170451 13.7838923,61.9725761 13.7838923,61.9725761 C18.250577,62.2891027 20.5979505,66.5705414 20.5979505,66.5705414 C24.569573,73.3841929 31.0165065,71.4183962 33.5530049,70.2744579 C33.9535046,67.3924 35.1049414,65.4266032 36.3787531,64.3104305 C26.4997593,63.1831515 16.1090158,59.3570668 16.1090158,42.2701836 C16.1090158,37.4001165 17.8445147,33.4185451 20.6925129,30.2977039 C20.2308257,29.1704249 18.7067017,24.6335437 21.1263877,18.4973702 C21.1263877,18.4973702 24.8643853,17.2979009 33.36388,23.06757 C36.9947827,22.0769668 40.7415131,21.5727691 44.5055605,21.5682335 C48.2697805,21.575694 52.0163682,22.0817399 55.647241,23.0731231 C64.1411732,17.303454 67.8736084,18.5029233 67.8736084,18.5029233 C70.2988568,24.6446499 68.7747328,29.175978 68.3186081,30.303257 C71.1721688,33.4240982 72.8909802,37.4056696 72.8909802,42.2757367 C72.8909802,59.4070447 62.4891117,63.1775984 52.576743,64.282665 C54.1731795,65.6598333 55.5971786,68.3808515 55.5971786,72.540122 C55.5971786,78.5041495 55.5415536,83.3131326 55.5415536,84.7735974 C55.5415536,85.9675135 56.3425531,87.3557881 58.6009267,86.9170933 C76.7856973,80.7940016 89.0220643,63.7613249 89,44.6024849 C89,19.9689412 69.0751076,0 44.4944355,0 Z" id="Path"></path>
            </g>
        </g>
    </g>
</svg>