<?xml version="1.0" encoding="UTF-8"?>
<svg width="50px" height="50px" viewBox="0 0 50 50" version="1.1" xmlns="http://www.w3.org/2000/svg" xmlns:xlink="http://www.w3.org/1999/xlink">
    <title>aqua_icon_L</title>
    <defs>
        <path d="M8.6952202,-3.53986646e-23 L41.3047798,-3.53986646e-23 C46.0872864,-3.53986646e-23 50,3.91271361 50,8.6952202 L50,41.3047798 C50,46.0872864 46.0872864,50 41.3047798,50 L8.6952202,50 C3.91271361,50 -2.74612602e-23,46.0872864 -2.74612602e-23,41.3047798 L-2.74612602e-23,8.6952202 C-2.74612602e-23,3.91271361 3.91271361,-3.53986646e-23 8.6952202,-3.53986646e-23" id="path-1"></path>
        <linearGradient x1="93.3595867%" y1="87.0786517%" x2="23.9676289%" y2="19.2438311%" id="linearGradient-3">
            <stop stop-color="#2190EB" offset="0%"></stop>
            <stop stop-color="#16D2DF" offset="100%"></stop>
        </linearGradient>
    </defs>
    <g id="D-Libra-Logo" stroke="none" stroke-width="1" fill="none" fill-rule="evenodd">
        <g id="Group">
            <g id="Fill-332-Clipped">
                <mask id="mask-2" fill="white">
                    <use xlink:href="#path-1"></use>
                </mask>
                <g id="path-1"></g>
                <path d="M8.6952202,-3.53986646e-23 L41.3047798,-3.53986646e-23 C46.0872864,-3.53986646e-23 50,3.91271361 50,8.6952202 L50,41.3047798 C50,46.0872864 46.0872864,50 41.3047798,50 L8.6952202,50 C3.91271361,50 -2.74612602e-23,46.0872864 -2.74612602e-23,41.3047798 L-2.74612602e-23,8.6952202 C-2.74612602e-23,3.91271361 3.91271361,-3.53986646e-23 8.6952202,-3.53986646e-23" id="Fill-332" fill="url(#linearGradient-3)" fill-rule="nonzero" mask="url(#mask-2)"></path>
            </g>
            <path d="M6.68815736,39.5342166 L33.0848245,39.5342166 C34.5436416,39.5342166 35.9669444,39.2856167 37.3246824,38.7542685 C38.6223194,38.2447753 39.781997,37.5017074 40.7886901,36.5373583 C41.8254337,35.5429586 42.6053818,34.361426 43.1517552,33.0323726 C43.7445704,31.5885808 44,30.0655648 44,28.5097664 L44,20.9998634 C44,19.4467969 43.7459363,17.9183172 43.1517552,16.4786231 C42.6026499,15.1468379 41.8254337,13.9625734 40.7873241,12.9640759 C39.7847289,11.9997268 38.6250512,11.2634886 37.3274143,10.7662888 C35.9655785,10.2445021 34.5409097,10 33.0848245,10 L20.2942221,10 C19.9363475,10 19.5784729,10.0696626 19.2533807,10.1980604 C18.9337522,10.3332878 18.6400765,10.5190548 18.3955744,10.7635569 C18.1483404,11.0107909 17.951646,11.2976369 17.8123207,11.6172654 C17.6702636,11.9437235 17.6074307,12.2934025 17.6074307,12.6485453 L17.6074307,23.0583254 C17.6074307,24.5389974 18.8176479,25.7505805 20.2983199,25.7505805 C21.7789919,25.7505805 22.9892091,24.5389974 22.9892091,23.0583254 L22.9892091,15.4063653 L33.0848245,15.4063653 C34.4685152,15.4063653 35.831717,15.7246278 36.8889496,16.6575604 C38.1415107,17.7626007 38.5704139,19.3252288 38.5704139,20.9534217 L38.5704139,28.5562082 C38.5704139,30.184401 38.136047,31.7333698 36.8903155,32.8425079 C35.8235214,33.7931977 34.494468,34.1510723 33.0848245,34.1510723 L23.7131539,34.1510723 L10.1385057,20.576424 L9.03756317,21.6760005 L19.577107,32.2141784 L6.66903428,24.7630105 L5.89181806,26.111187 L18.7985248,33.5623549 L4.40295042,29.7049583 L4,31.2074853 L14.9834722,34.1510723 L4,34.1510723 L4,36.8856714 C4,37.24218 4.06693075,37.5904931 4.20352411,37.9114875 C4.34967901,38.231116 4.54364158,38.5220598 4.78950963,38.7706597 C5.03264581,39.0165278 5.32905341,39.1995629 5.63775441,39.3320585 C5.97240814,39.464554 6.32755088,39.5342166 6.68815736,39.5342166" id="Fill-335" fill="#FFFFFF" fill-rule="nonzero"></path>
        </g>
    </g>
</svg>