<?xml version="1.0" encoding="UTF-8"?>
<svg width="50px" height="50px" viewBox="0 0 50 50" version="1.1" xmlns="http://www.w3.org/2000/svg" xmlns:xlink="http://www.w3.org/1999/xlink">
    <title>aqua_icon</title>
    <defs>
        <path d="M8.6952202,-3.53986646e-23 L41.3047798,-3.53986646e-23 C46.0872864,-3.53986646e-23 50,3.91271361 50,8.6952202 L50,41.3047798 C50,46.0872864 46.0872864,50 41.3047798,50 L8.6952202,50 C3.91271361,50 -2.74612602e-23,46.0872864 -2.74612602e-23,41.3047798 L-2.74612602e-23,8.6952202 C-2.74612602e-23,3.91271361 3.91271361,-3.53986646e-23 8.6952202,-3.53986646e-23" id="path-1"></path>
        <linearGradient x1="93.3595867%" y1="87.0786517%" x2="23.9676289%" y2="19.2438311%" id="linearGradient-3">
            <stop stop-color="#2190EB" offset="0%"></stop>
            <stop stop-color="#16D2DF" offset="100%"></stop>
        </linearGradient>
    </defs>
    <g id="D-Libra-Logo" stroke="none" stroke-width="1" fill="none" fill-rule="evenodd">
        <g id="aqua_icon">
            <g id="Fill-332-Clipped">
                <mask id="mask-2" fill="white">
                    <use xlink:href="#path-1"></use>
                </mask>
                <g id="path-1"></g>
                <path d="M8.6952202,-3.53986646e-23 L41.3047798,-3.53986646e-23 C46.0872864,-3.53986646e-23 50,3.91271361 50,8.6952202 L50,41.3047798 C50,46.0872864 46.0872864,50 41.3047798,50 L8.6952202,50 C3.91271361,50 -2.74612602e-23,46.0872864 -2.74612602e-23,41.3047798 L-2.74612602e-23,8.6952202 C-2.74612602e-23,3.91271361 3.91271361,-3.53986646e-23 8.6952202,-3.53986646e-23" id="Fill-332" fill="url(#linearGradient-3)" fill-rule="nonzero" mask="url(#mask-2)"></path>
            </g>
            <path d="M12.4652263,34.764623 L29.9197948,34.764623 C30.884425,34.764623 31.8255717,34.6002384 32.7233643,34.248889 C33.5814155,33.911991 34.3482423,33.4206438 35.0139095,32.7829763 C35.6994472,32.1254381 36.2151812,31.3441598 36.5764659,30.4653347 C36.9684598,29.5106398 37.1373605,28.5035587 37.1373605,27.4748004 L37.1373605,22.5089418 C37.1373605,21.48199 36.9693631,20.4712959 36.5764659,19.5193107 C36.2133748,18.6386791 35.6994472,17.8555945 35.0130063,17.1953467 C34.3500488,16.5576791 33.5832219,16.0708479 32.7251707,15.7420788 C31.8246685,15.3970519 30.8826186,15.235377 29.9197948,15.235377 L21.4621193,15.235377 C21.2254778,15.235377 20.9888363,15.2814408 20.7738719,15.3663427 C20.5625203,15.4557607 20.3683298,15.5785975 20.2066549,15.7402724 C20.0431735,15.9037537 19.913111,16.0934282 19.8209834,16.3047798 C19.7270494,16.5206474 19.6855016,16.7518696 19.6855016,16.9867047 L19.6855016,23.870082 C19.6855016,24.8491636 20.4857473,25.6503125 21.4648289,25.6503125 C22.4439105,25.6503125 23.2441562,24.8491636 23.2441562,23.870082 L23.2441562,18.8102894 L29.9197948,18.8102894 C30.8347484,18.8102894 31.7361538,19.0207377 32.4352397,19.6376314 C33.263485,20.3683298 33.5470935,21.4016041 33.5470935,22.4782326 L33.5470935,27.5055096 C33.5470935,28.5821381 33.2598721,29.6063803 32.4361429,30.3397883 C31.7307345,30.9684237 30.8519094,31.2050652 29.9197948,31.2050652 L23.7228585,31.2050652 L14.7467394,22.2289461 L14.0187507,22.9560316 L20.9879331,29.9243108 L12.4525814,24.9972904 L11.9386539,25.8887604 L20.4731024,30.8157809 L10.954153,28.2651107 L10.6877055,29.2586437 L17.9504317,31.2050652 L10.6877055,31.2050652 L10.6877055,33.0132953 C10.6877055,33.2490336 10.7319629,33.4793526 10.822284,33.6916074 C10.9189277,33.9029589 11.0471838,34.095343 11.2097619,34.2597276 C11.3705336,34.4223057 11.5665306,34.5433361 11.7706565,34.6309476 C11.9919434,34.7185592 12.2267784,34.764623 12.4652263,34.764623" id="Fill-335" fill="#FFFFFF" fill-rule="nonzero"></path>
        </g>
    </g>
</svg>