<svg width="20" height="20" viewBox="0 0 20 20" fill="none" xmlns="http://www.w3.org/2000/svg">
<path fill-rule="evenodd" clip-rule="evenodd" d="M10.7187 19.7169C10.2355 20.1858 9.42612 19.8434 9.42612 19.1701C9.42612 18.9641 9.50956 18.7668 9.65741 18.6234L16.3247 12.1529C16.7178 11.7714 16.9836 11.3092 17.1222 10.8186H0.901549C0.403637 10.8186 0 10.415 0 9.91706C0 9.41915 0.403637 9.01551 0.901548 9.01551H17.07C16.9216 8.58689 16.6731 8.1853 16.3247 7.84716L9.65741 1.37668C9.50956 1.23319 9.42612 1.03594 9.42612 0.829909C9.42612 0.1566 10.2355 -0.185777 10.7187 0.28314L18.5128 7.84716C19.727 9.02557 19.727 10.9745 18.5128 12.1529L10.7187 19.7169Z" fill="white"/>
</svg>
