<svg width="21" height="20" viewBox="0 0 21 20" fill="none" xmlns="http://www.w3.org/2000/svg">
<path fill-rule="evenodd" clip-rule="evenodd" d="M20.4817 9.28133C20.9506 9.76451 20.6082 10.5739 19.9349 10.5739C19.7289 10.5739 19.5316 10.4904 19.3881 10.3426L12.9176 3.6753C12.5362 3.28225 12.074 3.01643 11.5834 2.87783L11.5834 19.0985C11.5834 19.5964 11.1797 20 10.6818 20C10.1839 20 9.78028 19.5964 9.78028 19.0985L9.78028 2.92995C9.35166 3.07841 8.95007 3.32686 8.61192 3.6753L2.14145 10.3426C1.99796 10.4904 1.80071 10.5739 1.59468 10.5739C0.921369 10.5739 0.578993 9.76451 1.04791 9.28133L8.61192 1.48724C9.79034 0.272981 11.7392 0.272981 12.9176 1.48724L20.4817 9.28133Z" fill="white"/>
</svg>
