<svg width="20" height="21" viewBox="0 0 20 21" fill="none" xmlns="http://www.w3.org/2000/svg">
<path fill-rule="evenodd" clip-rule="evenodd" d="M10.7187 20.4816C10.2355 20.9505 9.42612 20.6081 9.42612 19.9348C9.42612 19.7288 9.50956 19.5315 9.65741 19.3881L16.3247 12.9176C16.7178 12.5361 16.9836 12.074 17.1222 11.5833H0.901549C0.403637 11.5833 0 11.1797 0 10.6818C0 10.1839 0.403637 9.78022 0.901548 9.78022H17.07C16.9216 9.3516 16.6731 8.95001 16.3247 8.61187L9.65741 2.14139C9.50956 1.9979 9.42612 1.80065 9.42612 1.59462C9.42612 0.921309 10.2355 0.578933 10.7187 1.04785L18.5128 8.61187C19.727 9.79028 19.727 11.7392 18.5128 12.9176L10.7187 20.4816Z" fill="url(#paint0_linear_283_793)"/>
<defs>
<linearGradient id="paint0_linear_283_793" x1="-8.72648" y1="28.5527" x2="20.5012" y2="27.3655" gradientUnits="userSpaceOnUse">
<stop stop-color="#004CB6"/>
<stop offset="1" stop-color="#009AF9"/>
</linearGradient>
</defs>
</svg>
