<svg width="20" height="20" viewBox="0 0 20 20" fill="none" xmlns="http://www.w3.org/2000/svg">
<path fill-rule="evenodd" clip-rule="evenodd" d="M9.28134 0.283118C9.76452 -0.185798 10.5739 0.156579 10.5739 0.829888C10.5739 1.03592 10.4904 1.23317 10.3426 1.37666L3.6753 7.84713C3.28225 8.22858 3.01643 8.69075 2.87784 9.1814L19.0985 9.1814C19.5964 9.1814 20 9.58503 20 10.0829C20 10.5809 19.5964 10.9845 19.0985 10.9845L2.92996 10.9845C3.07842 11.4131 3.32687 11.8147 3.6753 12.1528L10.3426 18.6233C10.4904 18.7668 10.5739 18.9641 10.5739 19.1701C10.5739 19.8434 9.76451 20.1858 9.28133 19.7169L1.48724 12.1528C0.272986 10.9744 0.272986 9.02554 1.48724 7.84713L9.28134 0.283118Z" fill="white"/>
</svg>
