<?xml version="1.0" encoding="UTF-8"?>
<svg width="50px" height="50px" viewBox="0 0 50 50" version="1.1" xmlns="http://www.w3.org/2000/svg" xmlns:xlink="http://www.w3.org/1999/xlink">
    <title>black_icon_L</title>
    <defs>
        <path d="M2.68815736,29.5342166 L29.0848245,29.5342166 C30.5436416,29.5342166 31.9669444,29.2856167 33.3246824,28.7542685 C34.6223194,28.2447753 35.781997,27.5017074 36.7873241,26.5373583 C37.8254337,25.5429586 38.6053818,24.361426 39.1517552,23.0323726 C39.7445704,21.5885808 40,20.0655648 40,18.5097664 L40,10.9998634 C40,9.44679689 39.7459363,7.91831717 39.1517552,6.47862314 C38.6026499,5.14683786 37.8240678,3.96257342 36.7873241,2.96407595 C35.7847289,1.99972681 34.6250512,1.26348859 33.3260484,0.766288758 C31.9655785,0.244502117 30.5395438,0 29.0848245,0 L16.2942221,0 C15.9349816,0 15.5784729,0.0696626144 15.2520148,0.198060374 C14.9337522,0.333287802 14.6387106,0.519054774 14.3942084,0.763556891 C14.1469745,1.01079088 13.951646,1.29763693 13.8123207,1.6172654 C13.6702636,1.94372354 13.6060647,2.29340254 13.6060647,2.64854528 L13.6060647,13.0583254 C13.6060647,14.5389974 14.8176479,15.7505805 16.2983199,15.7505805 C17.777626,15.7505805 18.9892091,14.5389974 18.9892091,13.0583254 L18.9892091,5.40636525 L29.0848245,5.40636525 C30.4685152,5.40636525 31.830351,5.72462778 32.8889496,6.65756044 C34.1415107,7.76260074 34.5704139,9.32522879 34.5704139,10.9534217 L34.5704139,18.5562082 C34.5704139,20.184401 34.136047,21.7333698 32.8903155,22.8425079 C31.8235214,23.7931977 30.494468,24.1510723 29.0848245,24.1510723 L19.7131539,24.1510723 L6.13850567,10.576424 L5.03756317,11.6760005 L15.577107,22.2141784 L2.66903428,14.7630105 L1.89181806,16.111187 L14.7985248,23.5623549 L0.402950417,19.7049583 L0,21.2074853 L10.9834722,24.1510723 L0,24.1510723 L0,26.8856714 C0,27.24218 0.0655648136,27.5904931 0.203524109,27.9114875 C0.348313072,28.231116 0.543641579,28.5220598 0.78950963,28.7706597 C1.03264581,29.0165278 1.32905341,29.1995629 1.63775441,29.3320585 C1.97240814,29.464554 2.32755088,29.5342166 2.68815736,29.5342166" id="path-1"></path>
        <linearGradient x1="83.3117061%" y1="75.8187388%" x2="34.0151619%" y2="27.6304834%" id="linearGradient-3">
            <stop stop-color="#2190EB" offset="0%"></stop>
            <stop stop-color="#16D2DF" offset="100%"></stop>
        </linearGradient>
    </defs>
    <g id="D-Libra-Logo" stroke="none" stroke-width="1" fill="none" fill-rule="evenodd">
        <g id="black_icon_L">
            <path d="M8.6952202,0 L41.3047798,0 C46.0872864,0 50,3.91271361 50,8.6952202 L50,41.3047798 C50,46.0872864 46.0872864,50 41.3047798,50 L8.6952202,50 C3.9118104,50 0,46.0872864 0,41.3047798 L0,8.6952202 C0,3.91271361 3.9118104,0 8.6952202,0" id="Fill-328" fill="#051826" fill-rule="nonzero"></path>
            <g id="Fill-329-Clipped" transform="translate(4.000000, 10.000000)">
                <mask id="mask-2" fill="white">
                    <use xlink:href="#path-1"></use>
                </mask>
                <g id="path-1"></g>
                <path d="M2.68815736,29.5342166 L29.0848245,29.5342166 C30.5436416,29.5342166 31.9669444,29.2856167 33.3246824,28.7542685 C34.6223194,28.2447753 35.781997,27.5017074 36.7873241,26.5373583 C37.8254337,25.5429586 38.6053818,24.361426 39.1517552,23.0323726 C39.7445704,21.5885808 40,20.0655648 40,18.5097664 L40,10.9998634 C40,9.44679689 39.7459363,7.91831717 39.1517552,6.47862314 C38.6026499,5.14683786 37.8240678,3.96257342 36.7873241,2.96407595 C35.7847289,1.99972681 34.6250512,1.26348859 33.3260484,0.766288758 C31.9655785,0.244502117 30.5395438,0 29.0848245,0 L16.2942221,0 C15.9349816,0 15.5784729,0.0696626144 15.2520148,0.198060374 C14.9337522,0.333287802 14.6387106,0.519054774 14.3942084,0.763556891 C14.1469745,1.01079088 13.951646,1.29763693 13.8123207,1.6172654 C13.6702636,1.94372354 13.6060647,2.29340254 13.6060647,2.64854528 L13.6060647,13.0583254 C13.6060647,14.5389974 14.8176479,15.7505805 16.2983199,15.7505805 C17.777626,15.7505805 18.9892091,14.5389974 18.9892091,13.0583254 L18.9892091,5.40636525 L29.0848245,5.40636525 C30.4685152,5.40636525 31.830351,5.72462778 32.8889496,6.65756044 C34.1415107,7.76260074 34.5704139,9.32522879 34.5704139,10.9534217 L34.5704139,18.5562082 C34.5704139,20.184401 34.136047,21.7333698 32.8903155,22.8425079 C31.8235214,23.7931977 30.494468,24.1510723 29.0848245,24.1510723 L19.7131539,24.1510723 L6.13850567,10.576424 L5.03756317,11.6760005 L15.577107,22.2141784 L2.66903428,14.7630105 L1.89181806,16.111187 L14.7985248,23.5623549 L0.402950417,19.7049583 L0,21.2074853 L10.9834722,24.1510723 L0,24.1510723 L0,26.8856714 C0,27.24218 0.0655648136,27.5904931 0.203524109,27.9114875 C0.348313072,28.231116 0.543641579,28.5220598 0.78950963,28.7706597 C1.03264581,29.0165278 1.32905341,29.1995629 1.63775441,29.3320585 C1.97240814,29.464554 2.32755088,29.5342166 2.68815736,29.5342166" id="Fill-329" fill="url(#linearGradient-3)" fill-rule="nonzero" mask="url(#mask-2)"></path>
            </g>
        </g>
    </g>
</svg>