<?xml version="1.0" encoding="UTF-8"?>
<svg width="50px" height="50px" viewBox="0 0 50 50" version="1.1" xmlns="http://www.w3.org/2000/svg" xmlns:xlink="http://www.w3.org/1999/xlink">
    <title>blue_icon_L</title>
    <defs>
        <path d="M8.6952202,-3.53986646e-23 L41.3047798,-3.53986646e-23 C46.0872864,-3.53986646e-23 50,3.91271361 50,8.6952202 L50,41.3047798 C50,46.0872864 46.0872864,50 41.3047798,50 L8.6952202,50 C3.91271361,50 0,46.0872864 0,41.3047798 L0,8.6952202 C0,3.91271361 3.91271361,-3.53986646e-23 8.6952202,-3.53986646e-23" id="path-1"></path>
        <linearGradient x1="10.3110662%" y1="88.8055927%" x2="77.5208642%" y2="11.154666%" id="linearGradient-3">
            <stop stop-color="#033D8A" offset="0%"></stop>
            <stop stop-color="#2190EA" offset="100%"></stop>
        </linearGradient>
    </defs>
    <g id="D-Libra-Logo" stroke="none" stroke-width="1" fill="none" fill-rule="evenodd">
        <g id="Group-2">
            <g id="Fill-336-Clipped">
                <mask id="mask-2" fill="white">
                    <use xlink:href="#path-1"></use>
                </mask>
                <g id="path-1"></g>
                <path d="M8.6952202,-3.53986646e-23 L41.3047798,-3.53986646e-23 C46.0872864,-3.53986646e-23 50,3.91271361 50,8.6952202 L50,41.3047798 C50,46.0872864 46.0872864,50 41.3047798,50 L8.6952202,50 C3.91271361,50 0,46.0872864 0,41.3047798 L0,8.6952202 C0,3.91271361 3.91271361,-3.53986646e-23 8.6952202,-3.53986646e-23" id="Fill-336" fill="url(#linearGradient-3)" fill-rule="nonzero" mask="url(#mask-2)"></path>
            </g>
            <path d="M34.0858177,39.5352252 C35.5433186,39.5352252 36.9680361,39.2866168 38.3244545,38.7552505 C39.6221357,38.2457398 40.781853,37.5026466 41.7885804,36.5382645 C42.8253594,35.5438309 43.6053342,34.362258 44.1517263,33.0331592 C44.7459277,31.589318 45,30.06625 45,28.5103985 L45,21.000239 C45,19.4471195 44.7459277,17.9185876 44.1517263,16.4788444 C43.6026022,15.1470136 42.8253594,13.9627087 41.7872144,12.9641772 C40.7859509,11.9997951 39.6262337,11.2635317 38.3271864,10.7663149 C36.9653041,10.2445105 35.5405867,10 34.0858177,10 L21.2947785,10 C20.9355257,10 20.5790049,10.069665 20.2525356,10.1980671 C19.9328962,10.3332992 19.6392105,10.5190725 19.3947,10.763583 C19.1474576,11.0108254 18.9507564,11.2976812 18.8114264,11.6173206 C18.6693645,11.9437899 18.6065294,12.2934809 18.6065294,12.6486357 L18.6065294,23.0587713 C18.6065294,24.5394939 19.8167879,25.7511184 21.2975105,25.7511184 C22.7782331,25.7511184 23.9884916,24.5394939 23.9884916,23.0587713 L23.9884916,15.4065499 L34.0858177,15.4065499 C35.4695557,15.4065499 36.831438,15.7248233 37.8887068,16.6577878 C39.1413107,17.7628658 39.5715944,19.3255472 39.5715944,20.9537957 L39.5715944,28.5568419 C39.5715944,30.1850903 39.1358467,31.7341119 37.8900727,32.8432879 C36.8232422,33.7940102 35.4941434,34.151897 34.0858177,34.151897 L24.7138271,34.151897 L11.1387153,20.5767852 L10.0377352,21.6763993 L20.5762729,32.214937 L7.66912543,24.7635147 L6.89051668,26.1117372 L19.7976642,33.5631595 L5.4015982,29.7056313 L5,31.2082095 L15.9838473,34.151897 L5,34.151897 L5,36.8865895 C5,37.2431103 5.06556705,37.5914353 5.20216508,37.9124407 C5.34832497,38.23208 5.54229416,38.5230338 5.78953659,38.7716422 C6.0313151,39.0175187 6.32773281,39.2005601 6.63644435,39.3330601 C6.97110952,39.4655602 7.32626439,39.5352252 7.68688317,39.5352252 L34.0858177,39.5352252 Z" id="Fill-339" fill="#FFFFFF" fill-rule="nonzero"></path>
        </g>
    </g>
</svg>