<?xml version="1.0" encoding="UTF-8"?>
<svg width="110px" height="24px" viewBox="0 0 110 24" version="1.1" xmlns="http://www.w3.org/2000/svg" xmlns:xlink="http://www.w3.org/1999/xlink">
    <title>darkmode_logo</title>
    <defs>
        <path d="M2.03,22.309 L21.97,22.309 C23.072,22.309 24.147,22.122 25.172,21.72 C26.152,21.335 27.028,20.774 27.788,20.046 C28.572,19.295 29.161,18.401 29.574,17.398 C30.022,16.307 30.215,15.157 30.215,13.981 L30.215,8.31 C30.215,7.136 30.022,5.981 29.574,4.893 C29.159,3.888 28.572,2.993 27.788,2.239 C27.031,1.51 26.155,0.955 25.174,0.578 C24.146,0.184 23.069,0 21.97,0 L12.308,0 C12.037,0 11.768,0.052 11.521,0.15 C11.28,0.252 11.058,0.392 10.873,0.577 C10.686,0.764 10.538,0.981 10.433,1.222 C10.326,1.468 10.278,1.732 10.278,2 L10.278,9.864 C10.278,10.982 11.192,11.897 12.311,11.897 C13.429,11.897 14.344,10.983 14.344,9.864 L14.344,4.083 L21.97,4.083 C23.015,4.083 24.044,4.324 24.843,5.029 C25.789,5.864 26.113,7.045 26.113,8.274 L26.113,14.017 C26.113,15.247 25.785,16.417 24.844,17.255 C24.038,17.973 23.034,18.243 21.97,18.243 L14.891,18.243 L4.636,7.989 L3.805,8.82 L11.766,16.78 L2.016,11.152 L1.428,12.169 L11.178,17.798 L0.304,14.885 L-5.68434189e-14,16.02 L8.296,18.243 L-5.68434189e-14,18.243 L-5.68434189e-14,20.309 C-5.68434189e-14,20.578 0.049,20.841 0.153,21.084 C0.263,21.325 0.41,21.545 0.596,21.733 C0.779,21.918 1.003,22.057 1.237,22.157 C1.49,22.257 1.758,22.309 2.03,22.309" id="path-1"></path>
        <linearGradient x1="83.3096144%" y1="75.8181405%" x2="34.0162171%" y2="27.6298171%" id="linearGradient-3">
            <stop stop-color="#2190EB" offset="0%"></stop>
            <stop stop-color="#16D2DF" offset="100%"></stop>
        </linearGradient>
    </defs>
    <g id="D-Libra-Logo" stroke="none" stroke-width="1" fill="none" fill-rule="evenodd">
        <g id="delibra-all-file-rgb" transform="translate(-305.000000, -348.000000)">
            <g id="darkmode_logo" transform="translate(305.507000, 348.846000)">
                <path d="M100.818,22.309 C102.249,22.309 103.587,21.953 104.838,21.256 L105.062,21.131 L105.195,21.351 C105.373,21.646 105.603,21.889 105.902,22.061 C106.21,22.237 106.55,22.309 106.903,22.309 C107.186,22.309 107.454,22.258 107.717,22.145 C107.972,22.042 108.197,21.891 108.391,21.696 C108.798,21.29 108.986,20.799 108.986,20.226 L108.986,14.022 C108.964,12.942 108.746,11.896 108.312,10.907 C107.886,9.936 107.295,9.075 106.544,8.327 C105.791,7.577 104.921,6.993 103.939,6.584 C102.942,6.169 101.898,5.967 100.818,5.967 C99.729,5.967 98.678,6.169 97.676,6.595 C96.688,7.014 95.816,7.603 95.057,8.362 C94.293,9.125 93.699,10.004 93.279,10.998 C92.853,12.005 92.644,13.061 92.644,14.153 C92.644,15.245 92.851,16.296 93.278,17.3 C93.698,18.288 94.295,19.157 95.056,19.913 C95.818,20.669 96.688,21.261 97.676,21.681 C98.678,22.107 99.729,22.309 100.818,22.309 Z M34.831,13.733 L41.541,13.733 C41.815,13.733 42.087,13.68 42.345,13.569 C42.593,13.469 42.821,13.327 43.011,13.138 C43.198,12.95 43.341,12.727 43.445,12.484 C43.552,12.232 43.606,11.972 43.606,11.697 C43.606,11.423 43.55,11.157 43.444,10.903 C43.338,10.651 43.194,10.42 43.012,10.227 C42.819,10.034 42.587,9.889 42.338,9.781 C42.087,9.672 41.815,9.614 41.541,9.614 L34.831,9.614 C34.256,9.614 33.767,9.799 33.362,10.208 C33.169,10.403 33.026,10.638 32.921,10.899 C32.813,11.152 32.76,11.423 32.76,11.697 C32.76,11.971 32.811,12.231 32.923,12.486 C33.025,12.732 33.172,12.95 33.36,13.137 C33.77,13.544 34.254,13.733 34.831,13.733 Z M51.482,22.309 C51.759,22.309 52.029,22.259 52.287,22.157 C52.523,22.063 52.743,21.933 52.922,21.751 C53.103,21.567 53.241,21.353 53.336,21.113 C53.437,20.861 53.482,20.597 53.482,20.326 C53.482,20.056 53.438,19.797 53.335,19.542 C53.243,19.302 53.104,19.091 52.918,18.903 C52.743,18.718 52.53,18.578 52.288,18.482 C52.03,18.375 51.761,18.326 51.482,18.326 C50.643,18.326 49.937,18.011 49.871,17.074 L49.871,2.037 C49.871,1.767 49.815,1.508 49.707,1.267 C49.588,1.017 49.433,0.795 49.243,0.6 C49.044,0.411 48.811,0.268 48.55,0.163 C48.298,0.054 48.026,0.001 47.752,0.001 C47.209,0.001 46.76,0.197 46.383,0.596 C45.986,0.998 45.805,1.473 45.805,2.037 L45.805,16.974 C45.805,17.716 45.942,18.436 46.247,19.113 C46.542,19.767 46.951,20.337 47.483,20.82 C48.015,21.304 48.632,21.666 49.304,21.919 C50.002,22.182 50.736,22.309 51.482,22.309 Z M57.924,4.381 C58.219,4.381 58.504,4.329 58.776,4.213 C59.042,4.1 59.278,3.939 59.482,3.734 C59.907,3.305 60.131,2.804 60.131,2.197 C60.131,1.583 59.917,1.072 59.483,0.639 C59.279,0.435 59.043,0.276 58.783,0.167 C58.508,0.059 58.22,0.002 57.924,0.002 C57.321,0.002 56.809,0.213 56.383,0.639 C55.949,1.073 55.717,1.58 55.717,2.197 C55.717,2.484 55.783,2.762 55.894,3.02 C56.015,3.289 56.175,3.525 56.383,3.733 C56.81,4.16 57.319,4.381 57.924,4.381 Z M57.924,22.309 C58.194,22.309 58.454,22.259 58.705,22.147 C58.947,22.045 59.162,21.899 59.347,21.714 C59.534,21.527 59.678,21.306 59.782,21.056 C59.889,20.817 59.942,20.559 59.942,20.297 L59.942,8.336 C59.942,8.065 59.898,7.801 59.794,7.546 C59.702,7.305 59.564,7.093 59.383,6.913 C59.196,6.726 58.975,6.582 58.726,6.478 C58.481,6.371 58.227,6.318 57.959,6.318 C57.679,6.318 57.412,6.373 57.152,6.48 C56.907,6.581 56.678,6.724 56.484,6.917 C56.287,7.103 56.135,7.325 56.024,7.572 C55.915,7.813 55.858,8.071 55.858,8.336 L55.858,20.297 C55.858,20.558 55.916,20.817 56.024,21.055 C56.135,21.301 56.287,21.523 56.489,21.714 C56.675,21.9 56.897,22.044 57.138,22.147 C57.387,22.255 57.652,22.309 57.924,22.309 Z M70.866,22.309 C71.957,22.309 73.005,22.099 74.009,21.675 C74.996,21.258 75.871,20.671 76.628,19.914 C77.386,19.155 77.977,18.284 78.395,17.295 C78.818,16.292 79.023,15.241 79.023,14.153 C79.023,13.061 78.815,12.005 78.389,10.998 C77.97,10.007 77.385,9.124 76.627,8.361 C75.873,7.601 74.995,7.017 74.009,6.601 C73.005,6.176 71.956,5.967 70.866,5.967 C70.157,5.967 69.462,6.137 68.805,6.396 C68.241,6.619 67.612,6.938 67.217,7.412 L66.747,7.975 L66.747,2.126 C66.747,1.836 66.7,1.547 66.598,1.275 C66.504,1.024 66.366,0.793 66.188,0.603 C65.998,0.414 65.775,0.272 65.529,0.17 C65.273,0.063 65.006,0.008 64.729,0.008 C64.455,0.008 64.189,0.061 63.932,0.171 C63.685,0.272 63.464,0.414 63.281,0.597 C63.093,0.796 62.948,1.032 62.844,1.284 C62.733,1.552 62.681,1.837 62.681,2.126 L62.681,14.153 C62.681,15.245 62.887,16.296 63.314,17.3 C63.735,18.289 64.333,19.156 65.093,19.913 C65.854,20.671 66.735,21.261 67.724,21.681 C68.725,22.104 69.779,22.309 70.866,22.309 Z M70.866,18.226 C70.32,18.226 69.792,18.121 69.288,17.91 C68.797,17.704 68.357,17.414 67.981,17.038 C67.602,16.658 67.301,16.221 67.087,15.728 C66.87,15.227 66.764,14.699 66.764,14.153 C66.764,13.606 66.87,13.079 67.087,12.577 C67.3,12.086 67.605,11.65 67.983,11.265 C68.36,10.895 68.8,10.606 69.288,10.401 C69.792,10.19 70.32,10.085 70.866,10.085 C71.413,10.085 71.946,10.19 72.45,10.401 C72.938,10.605 73.379,10.894 73.752,11.267 C74.132,11.647 74.433,12.084 74.641,12.58 C74.852,13.081 74.957,13.609 74.957,14.153 C74.957,14.697 74.852,15.224 74.641,15.725 C74.432,16.222 74.133,16.657 73.752,17.038 C73.377,17.413 72.94,17.705 72.45,17.91 C71.946,18.121 71.413,18.226 70.866,18.226 Z M83.393,22.309 C83.945,22.309 84.408,22.119 84.799,21.731 C84.982,21.55 85.124,21.342 85.224,21.112 C85.328,20.855 85.376,20.585 85.376,20.309 L85.376,14.684 C85.388,14.091 85.511,13.524 85.746,12.979 C85.977,12.443 86.305,11.962 86.715,11.546 C87.119,11.137 87.587,10.807 88.113,10.575 C88.651,10.338 89.215,10.216 89.808,10.204 L89.915,10.204 C90.196,10.204 90.477,10.154 90.738,10.051 C90.993,9.951 91.226,9.81 91.42,9.626 C91.824,9.223 92.033,8.745 92.033,8.174 C92.033,7.614 91.88,7.11 91.48,6.71 C91.061,6.29 90.493,6.156 89.915,6.156 L89.779,6.156 C88.665,6.178 87.59,6.404 86.567,6.842 C85.565,7.273 84.67,7.872 83.892,8.635 C83.104,9.409 82.488,10.309 82.036,11.317 C81.582,12.33 81.344,13.398 81.31,14.501 L81.31,20.309 C81.31,20.579 81.361,20.837 81.474,21.082 C81.587,21.327 81.748,21.542 81.939,21.731 C82.129,21.918 82.35,22.057 82.592,22.156 C82.851,22.256 83.115,22.309 83.393,22.309 Z M100.818,18.226 C100.277,18.226 99.751,18.119 99.252,17.91 C98.761,17.704 98.321,17.414 97.945,17.038 C97.565,16.658 97.267,16.221 97.051,15.729 C96.831,15.229 96.728,14.699 96.728,14.153 C96.728,13.606 96.831,13.076 97.051,12.576 C97.267,12.084 97.565,11.647 97.945,11.267 C98.32,10.892 98.763,10.606 99.252,10.401 C99.751,10.193 100.277,10.085 100.818,10.085 C101.367,10.085 101.899,10.193 102.406,10.401 C102.9,10.603 103.344,10.89 103.721,11.267 C104.1,11.646 104.397,12.086 104.604,12.58 C104.816,13.081 104.921,13.609 104.921,14.153 C104.921,14.697 104.815,15.224 104.604,15.726 C104.396,16.22 104.1,16.659 103.721,17.038 C103.343,17.417 102.902,17.707 102.406,17.91 C101.899,18.119 101.367,18.226 100.818,18.226 L100.818,18.226 Z" id="Fill-8" fill="#F8F8F8"></path>
                <g id="Group-11">
                    <mask id="mask-2" fill="white">
                        <use xlink:href="#path-1"></use>
                    </mask>
                    <g id="Clip-10"></g>
                    <path d="M2.03,22.309 L21.97,22.309 C23.072,22.309 24.147,22.122 25.172,21.72 C26.152,21.335 27.028,20.774 27.788,20.046 C28.572,19.295 29.161,18.401 29.574,17.398 C30.022,16.307 30.215,15.157 30.215,13.981 L30.215,8.31 C30.215,7.136 30.022,5.981 29.574,4.893 C29.159,3.888 28.572,2.993 27.788,2.239 C27.031,1.51 26.155,0.955 25.174,0.578 C24.146,0.184 23.069,0 21.97,0 L12.308,0 C12.037,0 11.768,0.052 11.521,0.15 C11.28,0.252 11.058,0.392 10.873,0.577 C10.686,0.764 10.538,0.981 10.433,1.222 C10.326,1.468 10.278,1.732 10.278,2 L10.278,9.864 C10.278,10.982 11.192,11.897 12.311,11.897 C13.429,11.897 14.344,10.983 14.344,9.864 L14.344,4.083 L21.97,4.083 C23.015,4.083 24.044,4.324 24.843,5.029 C25.789,5.864 26.113,7.045 26.113,8.274 L26.113,14.017 C26.113,15.247 25.785,16.417 24.844,17.255 C24.038,17.973 23.034,18.243 21.97,18.243 L14.891,18.243 L4.636,7.989 L3.805,8.82 L11.766,16.78 L2.016,11.152 L1.428,12.169 L11.178,17.798 L0.304,14.885 L-5.68434189e-14,16.02 L8.296,18.243 L-5.68434189e-14,18.243 L-5.68434189e-14,20.309 C-5.68434189e-14,20.578 0.049,20.841 0.153,21.084 C0.263,21.325 0.41,21.545 0.596,21.733 C0.779,21.918 1.003,22.057 1.237,22.157 C1.49,22.257 1.758,22.309 2.03,22.309" id="Fill-9" fill="url(#linearGradient-3)" mask="url(#mask-2)"></path>
                </g>
            </g>
        </g>
    </g>
</svg>