<svg xmlns="http://www.w3.org/2000/svg" xmlns:xlink="http://www.w3.org/1999/xlink" version="1.1" width="1000" height="1000" viewBox="0 0 1000 1000" xml:space="preserve">
<desc>Created with Fabric.js 3.5.0</desc>
<defs>
</defs>
<rect x="0" y="0" width="100%" height="100%" fill="rgba(255,255,255,0)"/>
<g transform="matrix(64.8053 0 0 64.8053 499.9998 499.9997)" id="59898">
<path style="stroke: none; stroke-width: 1; stroke-dasharray: none; stroke-linecap: butt; stroke-dashoffset: 0; stroke-linejoin: miter; stroke-miterlimit: 4; is-custom-font: none; font-file-url: none; fill: rgb(255,255,255); fill-rule: nonzero; opacity: 1;" vector-effect="non-scaling-stroke" transform=" translate(-8, -8)" d="M 8 0.986 A 7.022 7.022 0 0 0 0.986 8 c 0 1.874 0.73 3.635 2.055 4.959 A 6.965 6.965 0 0 0 8 15.014 A 7.022 7.022 0 0 0 15.014 8 A 7.022 7.022 0 0 0 8 0.986 z m 0 1 A 6.021 6.021 0 0 1 14.014 8 a 5.984 5.984 0 0 1 -1.606 4.074 a 5.836 5.836 0 0 0 -2.564 -1.754 a 2.999 2.999 0 0 0 1.11 -2.326 A 2.997 2.997 0 0 0 7.94 5.006 a 2.997 2.997 0 0 0 -2.988 3.012 c 0 0.929 0.436 1.75 1.104 2.298 a 5.846 5.846 0 0 0 -2.526 1.698 A 5.964 5.964 0 0 1 1.986 8 A 6.021 6.021 0 0 1 8 1.986 z m -0.035 4.02 c 1.097 0 1.988 0.892 1.988 2.012 A 1.988 1.988 0 0 1 8.03 10 c -0.029 0 -0.057 -0.006 -0.086 -0.006 c -0.025 0 -0.049 0.005 -0.074 0.006 a 1.994 1.994 0 0 1 -1.916 -2.006 c 0 -1.096 0.892 -1.988 2.012 -1.988 z m -0.096 4.992 c 0.024 0.001 0.048 0.008 0.072 0.008 h 0.024 c 0.022 0 0.04 -0.007 0.062 -0.008 a 4.84 4.84 0 0 1 3.643 1.752 A 5.963 5.963 0 0 1 8 14.014 a 5.965 5.965 0 0 1 -3.742 -1.31 a 4.848 4.848 0 0 1 3.611 -1.706 z" stroke-linecap="round"/>
</g>
</svg>