<?xml version="1.0" encoding="UTF-8"?>
<svg width="50px" height="50px" viewBox="0 0 50 50" version="1.1" xmlns="http://www.w3.org/2000/svg" xmlns:xlink="http://www.w3.org/1999/xlink">
    <title>white_icon_L</title>
    <defs>
        <path d="M2.68688317,29.5352252 L29.0858177,29.5352252 C30.5446846,29.5352252 31.9680361,29.2866168 33.3244545,28.7552505 C34.6221357,28.2457398 35.781853,27.5026466 36.7885804,26.5382645 C37.8253594,25.5438309 38.6053342,24.362258 39.1517263,23.0331592 C39.7459277,21.589318 40,20.06625 40,18.5103985 L40,11.000239 C40,9.44711949 39.7459277,7.91858758 39.1517263,6.47884438 C38.6026022,5.14701363 37.8253594,3.96270874 36.7885804,2.96417717 C35.7859509,1.9997951 34.6262337,1.26353174 33.3271864,0.766314927 C31.9666701,0.244510467 30.5405867,0 29.0858177,0 L16.2947785,0 C15.9355257,0 15.5790049,0.0696649933 15.2525356,0.198067138 C14.9342622,0.333299184 14.6392105,0.519072499 14.3947,0.763582966 C14.1474576,1.01082539 13.9507564,1.29768125 13.8127924,1.61732063 C13.6707305,1.94378991 13.6065294,2.29348086 13.6065294,2.64863573 L13.6065294,13.0587713 C13.6065294,14.5394939 14.8167879,15.7511184 16.2975105,15.7511184 C17.7782331,15.7511184 18.9898576,14.5394939 18.9898576,13.0587713 L18.9898576,5.40654988 L29.0858177,5.40654988 C30.4695557,5.40654988 31.831438,5.72482328 32.8900727,6.65778779 C34.1426766,7.76286583 34.5715944,9.32554725 34.5715944,10.9537957 L34.5715944,18.5568419 C34.5715944,20.1850903 34.1358467,21.7341119 32.8900727,22.8432879 C31.8246081,23.7940102 30.4941434,24.151897 29.0858177,24.151897 L19.7138271,24.151897 L6.1387153,10.5767852 L5.0377352,11.6763993 L15.5762729,22.214937 L2.66912543,14.7635147 L1.89188266,16.1117372 L14.7990302,23.5631595 L0.402964177,19.7056313 L-4.15312759e-23,21.2082095 L10.9838473,24.151897 L-4.15312759e-23,24.151897 L-4.15312759e-23,26.8865895 C-4.15312759e-23,27.2431103 0.0655670526,27.5914353 0.203531059,27.9124407 C0.348324967,28.23208 0.543660144,28.5230338 0.789536591,28.7716422 C1.0313151,29.0175187 1.32773281,29.2005601 1.63781033,29.3330601 C1.9724755,29.4655602 2.32626439,29.5352252 2.68688317,29.5352252" id="path-1"></path>
        <linearGradient x1="83.3111362%" y1="75.8205022%" x2="34.0163235%" y2="27.6289555%" id="linearGradient-3">
            <stop stop-color="#2190EB" offset="0%"></stop>
            <stop stop-color="#16D2DF" offset="100%"></stop>
        </linearGradient>
    </defs>
    <g id="D-Libra-Logo" stroke="none" stroke-width="1" fill="none" fill-rule="evenodd">
        <g id="white_icon_L">
            <path d="M8.6952202,0 L41.3047798,0 C46.0872864,0 50,3.91271361 50,8.6952202 L50,41.3047798 C50,46.0872864 46.0872864,50 41.3047798,50 L8.6952202,50 C3.91271361,50 0,46.0872864 0,41.3047798 L0,8.6952202 C0,3.91271361 3.91271361,0 8.6952202,0" id="Fill-324" fill="#FFFFFF" fill-rule="nonzero"></path>
            <g id="Fill-325-Clipped" transform="translate(4.000000, 10.000000)">
                <mask id="mask-2" fill="white">
                    <use xlink:href="#path-1"></use>
                </mask>
                <g id="path-1"></g>
                <path d="M2.68688317,29.5352252 L29.0858177,29.5352252 C30.5446846,29.5352252 31.9680361,29.2866168 33.3244545,28.7552505 C34.6221357,28.2457398 35.781853,27.5026466 36.7885804,26.5382645 C37.8253594,25.5438309 38.6053342,24.362258 39.1517263,23.0331592 C39.7459277,21.589318 40,20.06625 40,18.5103985 L40,11.000239 C40,9.44711949 39.7459277,7.91858758 39.1517263,6.47884438 C38.6026022,5.14701363 37.8253594,3.96270874 36.7885804,2.96417717 C35.7859509,1.9997951 34.6262337,1.26353174 33.3271864,0.766314927 C31.9666701,0.244510467 30.5405867,0 29.0858177,0 L16.2947785,0 C15.9355257,0 15.5790049,0.0696649933 15.2525356,0.198067138 C14.9342622,0.333299184 14.6392105,0.519072499 14.3947,0.763582966 C14.1474576,1.01082539 13.9507564,1.29768125 13.8127924,1.61732063 C13.6707305,1.94378991 13.6065294,2.29348086 13.6065294,2.64863573 L13.6065294,13.0587713 C13.6065294,14.5394939 14.8167879,15.7511184 16.2975105,15.7511184 C17.7782331,15.7511184 18.9898576,14.5394939 18.9898576,13.0587713 L18.9898576,5.40654988 L29.0858177,5.40654988 C30.4695557,5.40654988 31.831438,5.72482328 32.8900727,6.65778779 C34.1426766,7.76286583 34.5715944,9.32554725 34.5715944,10.9537957 L34.5715944,18.5568419 C34.5715944,20.1850903 34.1358467,21.7341119 32.8900727,22.8432879 C31.8246081,23.7940102 30.4941434,24.151897 29.0858177,24.151897 L19.7138271,24.151897 L6.1387153,10.5767852 L5.0377352,11.6763993 L15.5762729,22.214937 L2.66912543,14.7635147 L1.89188266,16.1117372 L14.7990302,23.5631595 L0.402964177,19.7056313 L-4.15312759e-23,21.2082095 L10.9838473,24.151897 L-4.15312759e-23,24.151897 L-4.15312759e-23,26.8865895 C-4.15312759e-23,27.2431103 0.0655670526,27.5914353 0.203531059,27.9124407 C0.348324967,28.23208 0.543660144,28.5230338 0.789536591,28.7716422 C1.0313151,29.0175187 1.32773281,29.2005601 1.63781033,29.3330601 C1.9724755,29.4655602 2.32626439,29.5352252 2.68688317,29.5352252" id="Fill-325" fill="url(#linearGradient-3)" fill-rule="nonzero" mask="url(#mask-2)"></path>
            </g>
        </g>
    </g>
</svg>