<?xml version="1.0" encoding="UTF-8"?>
<svg width="50px" height="50px" viewBox="0 0 50 50" version="1.1" xmlns="http://www.w3.org/2000/svg" xmlns:xlink="http://www.w3.org/1999/xlink">
    <title>white_icon</title>
    <defs>
        <path d="M1.77661765,19.529246 L19.2320893,19.529246 C20.1967195,19.529246 21.1378663,19.3648614 22.0347556,19.013512 C22.8928068,18.676614 23.6596337,18.1852668 24.3253008,17.5475993 C25.0108385,16.8900611 25.5265725,16.1087828 25.8878572,15.2299577 C26.2807544,14.2752628 26.4487518,13.2681817 26.4487518,12.2394234 L26.4487518,7.2735648 C26.4487518,6.24661296 26.2807544,5.23591893 25.8878572,4.28393367 C25.5247661,3.40330214 25.0108385,2.62021749 24.3253008,1.95996965 C23.6623433,1.32230211 22.8955165,0.835470935 22.036562,0.506701832 C21.136963,0.161674916 20.1940099,0 19.2320893,0 L10.7744138,0 C10.5368691,0 10.3011308,0.0460638029 10.0852632,0.130965714 C9.87481484,0.220383684 9.67972109,0.343220492 9.51804617,0.504895408 C9.35456483,0.668376748 9.22450233,0.85805123 9.13327794,1.0694028 C9.03934391,1.28527042 8.99689295,1.51649265 8.99689295,1.75132772 L8.99689295,8.63470501 C8.99689295,9.61378663 9.79713862,10.4149355 10.7762202,10.4149355 C11.7553019,10.4149355 12.5564507,9.61378663 12.5564507,8.63470501 L12.5564507,3.57491239 L19.2320893,3.57491239 C20.1470429,3.57491239 21.0475451,3.78536074 21.7475342,4.40225442 C22.5757795,5.13295278 22.859388,6.1662271 22.859388,7.24285559 L22.859388,12.2701326 C22.859388,13.3467611 22.5712634,14.3710033 21.7475342,15.1044113 C21.043029,15.7330467 20.1633007,15.9696882 19.2320893,15.9696882 L13.035153,15.9696882 L4.05903392,6.99356913 L3.3310452,7.72065465 L10.2993244,14.6889338 L1.7648759,9.76191336 L1.25094837,10.6533834 L9.78539687,15.5804039 L0.266447487,13.0297337 L-2.74612602e-23,14.0232667 L7.26272625,15.9696882 L-2.74612602e-23,15.9696882 L-2.74612602e-23,17.7779183 C-2.74612602e-23,18.0136566 0.0433541674,18.2439756 0.134578561,18.4562304 C0.230319014,18.6675819 0.359478305,18.859966 0.522056433,19.0243506 C0.681924925,19.1869287 0.87792189,19.3079591 1.08295097,19.3955706 C1.30423787,19.4831822 1.53816973,19.529246 1.77661765,19.529246" id="path-1"></path>
        <linearGradient x1="83.3111362%" y1="75.8205022%" x2="34.0163235%" y2="27.6289555%" id="linearGradient-3">
            <stop stop-color="#2190EB" offset="0%"></stop>
            <stop stop-color="#16D2DF" offset="100%"></stop>
        </linearGradient>
    </defs>
    <g id="D-Libra-Logo" stroke="none" stroke-width="1" fill="none" fill-rule="evenodd">
        <g id="white_icon">
            <path d="M8.6952202,0 L41.3047798,0 C46.0872864,0 50,3.91271361 50,8.6952202 L50,41.3047798 C50,46.0872864 46.0872864,50 41.3047798,50 L8.6952202,50 C3.91271361,50 0,46.0872864 0,41.3047798 L0,8.6952202 C0,3.91271361 3.91271361,0 8.6952202,0" id="Fill-324" fill="#FFFFFF" fill-rule="nonzero"></path>
            <g id="Fill-325-Clipped" transform="translate(10.688609, 15.235377)">
                <mask id="mask-2" fill="white">
                    <use xlink:href="#path-1"></use>
                </mask>
                <g id="path-1"></g>
                <path d="M1.77661765,19.529246 L19.2320893,19.529246 C20.1967195,19.529246 21.1378663,19.3648614 22.0347556,19.013512 C22.8928068,18.676614 23.6596337,18.1852668 24.3253008,17.5475993 C25.0108385,16.8900611 25.5265725,16.1087828 25.8878572,15.2299577 C26.2807544,14.2752628 26.4487518,13.2681817 26.4487518,12.2394234 L26.4487518,7.2735648 C26.4487518,6.24661296 26.2807544,5.23591893 25.8878572,4.28393367 C25.5247661,3.40330214 25.0108385,2.62021749 24.3253008,1.95996965 C23.6623433,1.32230211 22.8955165,0.835470935 22.036562,0.506701832 C21.136963,0.161674916 20.1940099,0 19.2320893,0 L10.7744138,0 C10.5368691,0 10.3011308,0.0460638029 10.0852632,0.130965714 C9.87481484,0.220383684 9.67972109,0.343220492 9.51804617,0.504895408 C9.35456483,0.668376748 9.22450233,0.85805123 9.13327794,1.0694028 C9.03934391,1.28527042 8.99689295,1.51649265 8.99689295,1.75132772 L8.99689295,8.63470501 C8.99689295,9.61378663 9.79713862,10.4149355 10.7762202,10.4149355 C11.7553019,10.4149355 12.5564507,9.61378663 12.5564507,8.63470501 L12.5564507,3.57491239 L19.2320893,3.57491239 C20.1470429,3.57491239 21.0475451,3.78536074 21.7475342,4.40225442 C22.5757795,5.13295278 22.859388,6.1662271 22.859388,7.24285559 L22.859388,12.2701326 C22.859388,13.3467611 22.5712634,14.3710033 21.7475342,15.1044113 C21.043029,15.7330467 20.1633007,15.9696882 19.2320893,15.9696882 L13.035153,15.9696882 L4.05903392,6.99356913 L3.3310452,7.72065465 L10.2993244,14.6889338 L1.7648759,9.76191336 L1.25094837,10.6533834 L9.78539687,15.5804039 L0.266447487,13.0297337 L-2.74612602e-23,14.0232667 L7.26272625,15.9696882 L-2.74612602e-23,15.9696882 L-2.74612602e-23,17.7779183 C-2.74612602e-23,18.0136566 0.0433541674,18.2439756 0.134578561,18.4562304 C0.230319014,18.6675819 0.359478305,18.859966 0.522056433,19.0243506 C0.681924925,19.1869287 0.87792189,19.3079591 1.08295097,19.3955706 C1.30423787,19.4831822 1.53816973,19.529246 1.77661765,19.529246" id="Fill-325" fill="url(#linearGradient-3)" fill-rule="nonzero" mask="url(#mask-2)"></path>
            </g>
        </g>
    </g>
</svg>