<?xml version="1.0" encoding="UTF-8"?>
<svg width="800px" height="600px" viewBox="0 0 800 600" version="1.1" xmlns="http://www.w3.org/2000/svg" xmlns:xlink="http://www.w3.org/1999/xlink">
    <title>2041-10-16-20-10_NonFastForwardMerge(--no-ffOption)</title>
    <defs>
        <path d="M8.68744595,14.5405413 C10.6544909,13.5649687 12,11.5915112 12,9.31636202 C12,6.07252388 9.26504479,3.44227578 5.89152197,3.44227578 C4.52034181,3.44227578 3.25480793,3.87689217 2.23537065,4.61058921 L2.23537065,1.05770107 C2.23537065,0.476155373 1.74046224,0 1.11695169,0 C0.493934821,0 0.0167986821,0.476630104 0.0167986821,1.05770107 L0.0167986821,1.80184219 L0,9.32158406 C-0.0041824725,11.2003327 0.951817666,12.865215 2.41753644,13.8939574 C2.4777647,13.9362085 2.55848043,13.9312238 2.6127846,13.8823265 C2.66758244,13.8334292 2.6779496,13.7558106 2.63746831,13.6950451 C0.724974359,10.8146136 1.16014819,5.53963813 5.89176881,5.53963813 C8.05899866,5.53963813 9.80709909,7.22944376 9.81623206,9.31351363 C9.82240299,10.8599505 9.11620201,12.0365717 8.19549958,12.7781018 C6.36026565,14.2561773 3.64974731,12.6382934 4.49738595,10.4697214 C4.5894562,10.2335427 4.71879884,9.9959397 4.88664808,9.76189723 L5.12361171,9.47705853 C5.19766284,9.39967734 5.25048599,9.29903433 5.2146946,9.19411874 C5.01401603,8.62800181 3.46832203,8.97526767 3.04005964,10.0315445 C3.34292878,9.79631524 3.65986763,9.66433998 3.96940137,9.71489885 C2.38890334,11.275815 3.44141679,13.9563846 5.46005069,14.7513219 C6.40494316,15.1232738 7.55964718,15.0976383 8.68744595,14.5405413" id="path-1"></path>
        <linearGradient x1="28.568518%" y1="104.445731%" x2="78.3472072%" y2="20.6880271%" id="linearGradient-3">
            <stop stop-color="#000F98" offset="0%"></stop>
            <stop stop-color="#00A5FD" offset="100%"></stop>
        </linearGradient>
        <filter x="-57.1%" y="-40.0%" width="214.3%" height="180.0%" filterUnits="objectBoundingBox" id="filter-4">
            <feOffset dx="0" dy="2" in="SourceAlpha" result="shadowOffsetOuter1"></feOffset>
            <feGaussianBlur stdDeviation="2" in="shadowOffsetOuter1" result="shadowBlurOuter1"></feGaussianBlur>
            <feColorMatrix values="0 0 0 0 1   0 0 0 0 1   0 0 0 0 1  0 0 0 1 0" type="matrix" in="shadowBlurOuter1" result="shadowMatrixOuter1"></feColorMatrix>
            <feMerge>
                <feMergeNode in="shadowMatrixOuter1"></feMergeNode>
                <feMergeNode in="SourceGraphic"></feMergeNode>
            </feMerge>
        </filter>
        <filter x="-57.1%" y="-40.0%" width="214.3%" height="180.0%" filterUnits="objectBoundingBox" id="filter-5">
            <feOffset dx="0" dy="2" in="SourceAlpha" result="shadowOffsetOuter1"></feOffset>
            <feGaussianBlur stdDeviation="2" in="shadowOffsetOuter1" result="shadowBlurOuter1"></feGaussianBlur>
            <feColorMatrix values="0 0 0 0 1   0 0 0 0 1   0 0 0 0 1  0 0 0 1 0" type="matrix" in="shadowBlurOuter1" result="shadowMatrixOuter1"></feColorMatrix>
            <feMerge>
                <feMergeNode in="shadowMatrixOuter1"></feMergeNode>
                <feMergeNode in="SourceGraphic"></feMergeNode>
            </feMerge>
        </filter>
        <filter x="-59.5%" y="-41.7%" width="219.0%" height="183.3%" filterUnits="objectBoundingBox" id="filter-6">
            <feOffset dx="0" dy="2" in="SourceAlpha" result="shadowOffsetOuter1"></feOffset>
            <feGaussianBlur stdDeviation="2" in="shadowOffsetOuter1" result="shadowBlurOuter1"></feGaussianBlur>
            <feColorMatrix values="0 0 0 0 1   0 0 0 0 1   0 0 0 0 1  0 0 0 1 0" type="matrix" in="shadowBlurOuter1" result="shadowMatrixOuter1"></feColorMatrix>
            <feMerge>
                <feMergeNode in="shadowMatrixOuter1"></feMergeNode>
                <feMergeNode in="SourceGraphic"></feMergeNode>
            </feMerge>
        </filter>
        <path d="M541.5,66.5 L577.5,66.5 C579.709139,66.5 581.5,68.290861 581.5,70.5 L581.5,356.438143 C581.5,358.647282 579.709139,360.438143 577.5,360.438143 L567.118194,360.438143 L567.118194,360.438143 L581.5,393.5 L547.766667,360.438143 L541.5,360.438143 C539.290861,360.438143 537.5,358.647282 537.5,356.438143 L537.5,70.5 C537.5,68.290861 539.290861,66.5 541.5,66.5 Z" id="path-7"></path>
        <filter x="-7.4%" y="-1.0%" width="111.3%" height="101.6%" filterUnits="objectBoundingBox" id="filter-8">
            <feMorphology radius="0.25" operator="dilate" in="SourceAlpha" result="shadowSpreadOuter1"></feMorphology>
            <feOffset dx="-1" dy="-1" in="shadowSpreadOuter1" result="shadowOffsetOuter1"></feOffset>
            <feGaussianBlur stdDeviation="0.5" in="shadowOffsetOuter1" result="shadowBlurOuter1"></feGaussianBlur>
            <feComposite in="shadowBlurOuter1" in2="SourceAlpha" operator="out" result="shadowBlurOuter1"></feComposite>
            <feColorMatrix values="0 0 0 0 0   0 0 0 0 0   0 0 0 0 0  0 0 0 0.5 0" type="matrix" in="shadowBlurOuter1"></feColorMatrix>
        </filter>
        <filter x="-5.1%" y="-0.7%" width="106.8%" height="101.0%" filterUnits="objectBoundingBox" id="filter-9">
            <feOffset dx="0" dy="0" in="SourceAlpha" result="shadowOffsetInner1"></feOffset>
            <feComposite in="shadowOffsetInner1" in2="SourceAlpha" operator="arithmetic" k2="-1" k3="1" result="shadowInnerInner1"></feComposite>
            <feColorMatrix values="0 0 0 0 0   0 0 0 0 0   0 0 0 0 0  0 0 0 0.5 0" type="matrix" in="shadowInnerInner1"></feColorMatrix>
        </filter>
        <path d="M337.517667,322 L437.054054,322 C437.606339,322 438.054054,322.447715 438.054054,323 L438.054054,344.560976 C438.054054,345.11326 438.501769,345.560976 439.054054,345.560976 L482.384309,345.560976 C482.936593,345.560976 483.384309,346.008691 483.384309,346.560976 C483.384309,347.047317 483.034408,347.463139 482.555223,347.546262 L387.878361,363.969529 C387.762171,363.989684 387.643333,363.989129 387.527337,363.96789 L297.833468,347.544622 C297.290215,347.445151 296.930459,346.924119 297.02993,346.380866 C297.11689,345.905945 297.53076,345.560976 298.013577,345.560976 L335.517667,345.560976 C336.069952,345.560976 336.517667,345.11326 336.517667,344.560976 L336.517667,323 C336.517667,322.447715 336.965383,322 337.517667,322 Z" id="path-10"></path>
        <filter x="3.9%" y="-4.8%" width="93.9%" height="119.0%" filterUnits="objectBoundingBox" id="filter-11">
            <feOffset dx="2" dy="2" in="SourceAlpha" result="shadowOffsetOuter1"></feOffset>
            <feGaussianBlur stdDeviation="1" in="shadowOffsetOuter1" result="shadowBlurOuter1"></feGaussianBlur>
            <feColorMatrix values="0 0 0 0 0   0 0 0 0 0   0 0 0 0 0  0 0 0 0.5 0" type="matrix" in="shadowBlurOuter1"></feColorMatrix>
        </filter>
    </defs>
    <g id="2041-10-16-20-10_NonFastForwardMerge(--no-ffOption)" stroke="none" stroke-width="1" fill="none" fill-rule="evenodd">
        <rect fill="#FFFFFF" x="0" y="0" width="800" height="600"></rect>
        <g id="bloovee-winner-logo" transform="translate(725.000000, 580.000000)">
            <path d="M13,13.7751507 C13,14.396312 13.4732558,14.8717809 14.0514961,14.8717809 C14.6474304,14.8717809 15.1204503,14.3968042 15.1204503,13.7751507 L15.1204503,2.09687626 C15.1204503,1.49368045 14.6474304,1 14.0514961,1 C13.4557977,1 13,1.49392656 13,2.09687626 L13,13.7751507 Z M21.7920364,15 C24.6483217,15 26.751078,12.7149437 26.751078,9.97312215 L26.751078,9.93645297 C26.751078,7.17641992 24.6657798,4.92778666 21.8269526,4.92778666 C18.9881254,4.92778666 16.885369,7.212843 16.885369,9.97312215 L16.885369,10.0095452 C16.885369,12.7516128 18.9706673,15 21.7920364,15 Z M21.8269526,13.0621935 C20.179994,13.0621935 19.0055834,11.6547366 19.0055834,9.97312215 L19.0055834,9.93645297 C19.0055834,8.25459244 20.0919958,6.86534709 21.7920364,6.86534709 C23.456689,6.86534709 24.6306277,8.27305008 24.6306277,9.97312215 L24.6306277,10.0095452 C24.6306277,11.6731942 23.5444513,13.0621935 21.8269526,13.0621935 Z M32.8092717,15 C35.665557,15 37.7683133,12.7149437 37.7683133,9.97312215 L37.7683133,9.93645297 C37.7683133,7.17641992 35.6830151,4.92778666 32.8441878,4.92778666 C30.0053606,4.92778666 27.9026043,7.212843 27.9026043,9.97312215 L27.9026043,10.0095452 C27.9026043,12.7516128 29.9879025,15 32.8092717,15 Z M32.8441878,13.0621935 C31.1969933,13.0621935 30.0228187,11.6547366 30.0228187,9.97312215 L30.0228187,9.93645297 C30.0228187,8.25459244 31.109231,6.86534709 32.8092717,6.86534709 C34.4739243,6.86534709 35.647863,8.27305008 35.647863,9.97312215 L35.647863,10.0095452 C35.647863,11.6731942 34.5614506,13.0621935 32.8441878,13.0621935 Z M44.1416963,13.9944275 L47.2261164,6.6096472 C47.2784906,6.49988574 47.3487948,6.28060893 47.3487948,6.07954366 C47.3487948,5.47610175 46.8929971,5.01933658 46.3147568,5.01933658 C45.7539746,5.01933658 45.4737015,5.40300947 45.3158709,5.78692847 L42.8976893,12.2215093 L40.5144239,5.82335156 C40.3393711,5.36634029 40.041404,5.01933658 39.4629278,5.01933658 C38.8846875,5.01933658 38.4116676,5.53098247 38.4116676,6.07954366 C38.4116676,6.28060893 38.4817358,6.46346265 38.534346,6.62785874 L41.6182943,13.9944275 C41.8638872,14.5796579 42.2491448,14.9633308 42.8273851,14.9633308 L42.9326055,14.9633308 C43.5108458,14.9633308 43.8965752,14.5612003 44.1416963,13.9944275 Z M50.0949054,9.27837643 C50.2876522,7.77961573 51.1987758,6.73762019 52.4956289,6.73762019 C53.8974665,6.73762019 54.7036056,7.8524619 54.8437422,9.27837643 L50.0949054,9.27837643 Z M56.070527,13.72027 C56.2281217,13.5558739 56.3508002,13.3181395 56.3508002,13.0439819 C56.3508002,12.5320899 55.9830006,12.1481709 55.5095089,12.1481709 C55.2641519,12.1481709 55.1242513,12.2215093 54.9664207,12.3492362 C54.3704864,12.8611282 53.6695676,13.1901665 52.7759021,13.1901665 C51.4089807,13.1901665 50.3402624,12.3128131 50.1123635,10.7409601 L55.9126964,10.7409601 C56.4560206,10.7409601 56.9115824,10.3021604 56.9115824,9.68050697 C56.9115824,7.45057746 55.4568987,4.92778666 52.513087,4.92778666 C49.8672425,4.92778666 47.9919132,7.19438536 47.9919132,9.95466451 L47.9919132,9.9913337 C47.9919132,12.9708897 50.0597533,15 52.7409859,15 C54.1779755,15 55.2292357,14.5063195 56.070527,13.72027 Z M60.1833231,9.27837643 C60.3763058,7.77961573 61.2871935,6.73762019 62.5842825,6.73762019 C63.9858841,6.73762019 64.7920233,7.8524619 64.9321598,9.27837643 L60.1833231,9.27837643 Z M66.1589447,13.72027 C66.3167752,13.5558739 66.4394537,13.3181395 66.4394537,13.0439819 C66.4394537,12.5320899 66.0714183,12.1481709 65.5981624,12.1481709 C65.3528055,12.1481709 65.2126689,12.2215093 65.0548383,12.3492362 C64.4591399,12.8611282 63.7582212,13.1901665 62.8643197,13.1901665 C61.4976342,13.1901665 60.4289159,12.3128131 60.2007812,10.7409601 L66.0011141,10.7409601 C66.5444382,10.7409601 67,10.3021604 67,9.68050697 C67,7.45057746 65.5455522,4.92778666 62.6015046,4.92778666 C59.9556601,4.92778666 58.0805667,7.19438536 58.0805667,9.95466451 L58.0805667,9.9913337 C58.0805667,12.9708897 60.1484069,15 62.8294035,15 C64.2663932,15 65.3178893,14.5063195 66.1589447,13.72027 L66.1589447,13.72027 Z" id="Fill-1" fill="#030060"></path>
            <g id="Group-4">
                <mask id="mask-2" fill="white">
                    <use xlink:href="#path-1"></use>
                </mask>
                <g id="Clip-3"></g>
                <path d="M8.68744595,14.5405413 C10.6544909,13.5649687 12,11.5915112 12,9.31636202 C12,6.07252388 9.26504479,3.44227578 5.89152197,3.44227578 C4.52034181,3.44227578 3.25480793,3.87689217 2.23537065,4.61058921 L2.23537065,1.05770107 C2.23537065,0.476155373 1.74046224,0 1.11695169,0 C0.493934821,0 0.0167986821,0.476630104 0.0167986821,1.05770107 L0.0167986821,1.80184219 L0,9.32158406 C-0.0041824725,11.2003327 0.951817666,12.865215 2.41753644,13.8939574 C2.4777647,13.9362085 2.55848043,13.9312238 2.6127846,13.8823265 C2.66758244,13.8334292 2.6779496,13.7558106 2.63746831,13.6950451 C0.724974359,10.8146136 1.16014819,5.53963813 5.89176881,5.53963813 C8.05899866,5.53963813 9.80709909,7.22944376 9.81623206,9.31351363 C9.82240299,10.8599505 9.11620201,12.0365717 8.19549958,12.7781018 C6.36026565,14.2561773 3.64974731,12.6382934 4.49738595,10.4697214 C4.5894562,10.2335427 4.71879884,9.9959397 4.88664808,9.76189723 L5.12361171,9.47705853 C5.19766284,9.39967734 5.25048599,9.29903433 5.2146946,9.19411874 C5.01401603,8.62800181 3.46832203,8.97526767 3.04005964,10.0315445 C3.34292878,9.79631524 3.65986763,9.66433998 3.96940137,9.71489885 C2.38890334,11.275815 3.44141679,13.9563846 5.46005069,14.7513219 C6.40494316,15.1232738 7.55964718,15.0976383 8.68744595,14.5405413" id="Fill-2" fill="url(#linearGradient-3)" mask="url(#mask-2)"></path>
            </g>
        </g>
        <text id="Non-Fast-Forward-Mer" fill-rule="nonzero" font-family="Helvetica" font-size="18" font-weight="normal" fill="#0055C2">
            <tspan x="10" y="23">Non Fast Forward Merge (--no-ff Option)</tspan>
        </text>
        <g id="git" transform="translate(661.000000, 9.000000)">
            <path d="M46.8658496,11.2380575 C45.1623498,11.2380575 43.8939053,12.0891281 43.8939053,14.1376499 C43.8939053,15.6808485 44.7297841,16.7522856 46.7743573,16.7522856 C48.5071097,16.7522856 49.6846843,15.7131436 49.6846843,14.073693 C49.6846843,12.2157755 48.6309666,11.2380575 46.8658496,11.2380575 L46.8658496,11.2380575 Z M43.4607172,25.7011913 C43.0574041,26.2046147 42.6553359,26.7397 42.6553359,27.3710373 C42.6553359,28.6305458 44.2337339,29.0092215 46.4027864,29.0092215 C48.1984009,29.0092215 50.6450424,28.8813076 50.6450424,27.1823327 C50.6450424,26.1723196 49.4674678,26.1102624 47.9805621,26.0152768 L43.4607172,25.7011913 Z M52.6255087,11.3330431 C53.1825537,12.0580995 53.7719634,13.0662128 53.7719634,14.5156924 C53.7719634,18.0124273 51.0776081,20.0603158 47.1764255,20.0603158 C46.1843252,20.0603158 45.2862067,19.9349349 44.7291617,19.7772589 L43.7071863,21.4471049 L46.7413702,21.6351763 C52.0989611,21.9828234 55.257002,22.1404995 55.257002,26.3293624 C55.257002,29.9533779 52.1300809,32 46.7413702,32 C41.1360655,32 39,30.5505204 39,28.0625322 C39,26.6440812 39.6199071,25.8898959 40.7034998,24.848221 C39.680902,24.4087545 39.3410734,23.6216409 39.3410734,22.7705703 C39.3410734,22.0771758 39.6815244,21.4471049 40.2391918,20.8480627 C40.7968593,20.2502869 41.416144,19.6506115 42.1586633,18.9578502 C40.6412601,18.2017651 39.4960502,16.563581 39.4960502,14.231369 C39.4960502,10.6086199 41.8493321,8.12063165 46.5870158,8.12063165 C47.9189448,8.12063165 48.7249485,8.24537935 49.436348,8.43598369 L55.4754632,8.43598369 L55.4754632,11.1133099 L52.6255087,11.3330431 L52.6255087,11.3330431 Z M60.9233016,5.60858036 C59.1575621,5.60858036 58.1355867,4.56817192 58.1355867,2.77167847 C58.1355867,0.977717972 59.1575621,0 60.9233016,0 C62.7195385,0 63.7408917,0.977084735 63.7408917,2.77167847 C63.7415139,4.56817192 62.7195385,5.60858036 60.9233016,5.60858036 Z M56.9275147,24.5423675 L56.9275147,22.0543792 L58.50778,21.8340127 C58.9409681,21.770689 59.0025853,21.6763367 59.0025853,21.2026754 L59.0025853,11.9403174 C59.0025853,11.59457 58.9104706,11.372937 58.5998947,11.279218 L56.9275147,10.6801757 L57.2679657,8.12949697 L63.6792742,8.12949697 L63.6792742,21.2033087 C63.6792742,21.7086318 63.7091492,21.770689 64.174702,21.834646 L65.7543448,22.0550125 L65.7543448,24.5430008 L56.9275147,24.5430008 L56.9275147,24.5423675 Z M78,23.32022 C76.6674487,23.9806863 74.7174798,24.5803617 72.9511179,24.5803617 C69.2665294,24.5803617 67.8736056,23.0694582 67.8736056,19.5074999 L67.8736056,11.2532552 C67.8736056,11.0651838 67.8736056,10.9385364 67.6252693,10.9385364 L65.458084,10.9385364 L65.458084,8.13456287 C68.1841815,7.81857759 69.2671518,6.43242174 69.6076028,2.99837733 L72.5502944,2.99837733 L72.5502944,7.47346341 C72.5502944,7.69319666 72.5502944,7.78881545 72.7980083,7.78881545 L77.1641212,7.78881545 L77.1641212,10.9391697 L72.5502944,10.9391697 L72.5502944,18.4683579 C72.5502944,20.3269086 72.9841049,21.0513318 74.6558625,21.0513318 C75.5241059,21.0513318 76.4209796,20.8315985 77.1641212,20.5479083 L78,23.32022 L78,23.32022 Z" id="Shape" fill="#31251C" fill-rule="nonzero"></path>
            <path d="M32.3772539,15.0299695 L17.9690664,0.622277028 C17.140005,-0.207425676 15.7941261,-0.207425676 14.9644314,0.622277028 L11.9724635,3.61427365 L15.7668919,7.40937182 C16.6497884,7.11169223 17.6606226,7.31120089 18.3636464,8.01486479 C19.0704703,8.72232885 19.2687104,9.74203981 18.9634334,10.6274783 L22.6210571,14.2851371 C23.5052204,13.9804906 24.5268216,14.1774658 25.2336455,14.8849299 C26.221679,15.8723394 26.221679,17.4728423 25.2336455,18.4608852 C24.2449787,19.4489281 22.6451246,19.4489281 21.6570912,18.4608852 C20.914166,17.7173195 20.7304932,16.6260388 21.1067059,15.7108324 L17.6954571,12.2995509 L17.6948238,21.2768075 C17.9361319,21.3958793 18.1628729,21.5542195 18.3636464,21.7543616 C19.3516798,22.7417711 19.3516798,24.3416406 18.3636464,25.3309502 C17.375613,26.3183598 15.7744921,26.3183598 14.7877254,25.3309502 C13.799692,24.3416406 13.799692,22.7417711 14.7877254,21.7543616 C15.0322003,21.5105176 15.3140432,21.3262096 15.6155201,21.2027043 L15.6155201,12.1424774 C15.3140432,12.0196054 15.0322003,11.8359308 14.7877254,11.5908201 C14.0391001,10.842821 13.8592273,9.74520661 14.2430403,8.82620003 L10.5024471,5.08430417 L0.622746073,14.9634666 C-0.207582024,15.7938027 -0.207582024,17.1396945 0.622746073,17.9700305 L15.0309336,32.377723 C15.8606284,33.2074257 17.2058739,33.2074257 18.0368353,32.377723 L32.3772539,18.0359 C33.207582,17.2061973 33.207582,15.8596722 32.3772539,15.0299695 L32.3772539,15.0299695 Z" id="Path" fill="#F34F29" fill-rule="nonzero"></path>
            <polygon id="Path" points="1.12409637e-15 0 79 0 79 33 0 33"></polygon>
        </g>
        <text id="A1" font-family="Helvetica" font-size="18" font-weight="normal" fill="#199ABD">
            <tspan x="461" y="184">A1</tspan>
        </text>
        <text id="A1-Copy-2" font-family="Helvetica" font-size="18" font-weight="normal" fill="#199ABD">
            <tspan x="461" y="452">A1</tspan>
        </text>
        <text id="A2" font-family="Helvetica" font-size="18" font-weight="normal" fill="#199ABD">
            <tspan x="537" y="184">A2</tspan>
        </text>
        <text id="A2-Copy-2" font-family="Helvetica" font-size="18" font-weight="normal" fill="#199ABD">
            <tspan x="537" y="452">A2</tspan>
        </text>
        <text id="HEAD,-Master" font-family="Helvetica" font-size="18" font-weight="normal" fill="#006AE1">
            <tspan x="610" y="515">HEAD, </tspan>
            <tspan x="610" y="537">Master</tspan>
        </text>
        <text id="HEAD,-Branch_A" font-family="Helvetica" font-size="18" font-weight="normal" fill="#199ABD">
            <tspan x="520.494629" y="106">HEAD, </tspan>
            <tspan x="505.975098" y="128"> Branch_A</tspan>
        </text>
        <text id="HEAD,-Branch_A-Copy-2" font-family="Helvetica" font-size="18" font-weight="normal" fill="#199ABD">
            <tspan x="520.494629" y="375">HEAD, </tspan>
            <tspan x="505.975098" y="397"> Branch_A</tspan>
        </text>
        <text id="Merge" font-family="Helvetica" font-size="18" font-weight="normal" fill="#DE4040">
            <tspan x="605.489746" y="425">Merge</tspan>
        </text>
        <circle id="Oval-Copy-12" stroke="#1576ED" stroke-width="4" cx="241.5" cy="213.5" r="14.5"></circle>
        <circle id="Oval-Copy-19" stroke="#1576ED" stroke-width="4" cx="241.5" cy="472.5" r="14.5"></circle>
        <circle id="Oval-Copy-16" stroke="#199ABD" stroke-width="4" cx="470.5" cy="154.5" r="14.5"></circle>
        <circle id="Oval-Copy-18" stroke="#199ABD" stroke-width="4" cx="470.5" cy="421.5" r="14.5"></circle>
        <line x1="404.602273" y1="160.602941" x2="456.397727" y2="200.397059" id="Line-6-Copy-8" stroke="#199ABD" stroke-width="3" stroke-linecap="round" transform="translate(430.500000, 180.500000) scale(1, -1) translate(-430.500000, -180.500000) "></line>
        <line x1="404.602273" y1="427.602941" x2="456.397727" y2="467.397059" id="Line-6-Copy-9" stroke="#199ABD" stroke-width="3" stroke-linecap="round" transform="translate(430.500000, 447.500000) scale(1, -1) translate(-430.500000, -447.500000) "></line>
        <line x1="559.602273" y1="427.602941" x2="611.397727" y2="467.397059" id="Line-6-Copy-10" stroke="#199ABD" stroke-width="3" stroke-linecap="round" transform="translate(585.500000, 447.500000) scale(-1, -1) translate(-585.500000, -447.500000) "></line>
        <text id="HEAD,-Master-(M3)-Copy" font-family="Helvetica" font-size="18" font-weight="normal" fill="#006AE1">
            <tspan x="361" y="252">HEAD, </tspan>
            <tspan x="361" y="274">Master</tspan>
            <tspan x="372.003418" y="296">(M3)</tspan>
        </text>
        <text id="M1-Copy-2" font-family="Helvetica" font-size="18" font-weight="normal" fill="#006AE1">
            <tspan x="231" y="249">M1</tspan>
        </text>
        <text id="M1-Copy-3" font-family="Helvetica" font-size="18" font-weight="normal" fill="#006AE1">
            <tspan x="231" y="503">M1</tspan>
        </text>
        <text id="M2-Copy-2" font-family="Helvetica" font-size="18" font-weight="normal" fill="#006AE1">
            <tspan x="307" y="249">M2</tspan>
        </text>
        <text id="M2-Copy-3" font-family="Helvetica" font-size="18" font-weight="normal" fill="#006AE1">
            <tspan x="307" y="503">M2</tspan>
        </text>
        <text id="M3-Copy" font-family="Helvetica" font-size="18" font-weight="normal" fill="#006AE1">
            <tspan x="379" y="503">M3</tspan>
        </text>
        <line x1="260" y1="213.5" x2="301" y2="213.5" id="Line-Copy-7" stroke="#1576ED" stroke-width="3" stroke-linecap="round"></line>
        <line x1="260" y1="473.5" x2="301" y2="473.5" id="Line-Copy-8" stroke="#1576ED" stroke-width="3" stroke-linecap="round"></line>
        <line x1="486" y1="156" x2="531" y2="156" id="Line-Copy-10" stroke="#199ABD" stroke-width="3" stroke-linecap="round"></line>
        <line x1="486" y1="423" x2="531" y2="423" id="Line-Copy-11" stroke="#199ABD" stroke-width="3" stroke-linecap="round"></line>
        <line x1="409" y1="474" x2="606.392638" y2="474.5" id="Line-Copy-15" stroke="#006AE1" stroke-width="3" stroke-linecap="round"></line>
        <line x1="333" y1="213.5" x2="374" y2="213.5" id="Line-Copy-9" stroke="#1576ED" stroke-width="3" stroke-linecap="round"></line>
        <line x1="333" y1="473.5" x2="374" y2="473.5" id="Line-Copy-13" stroke="#1576ED" stroke-width="3" stroke-linecap="round"></line>
        <circle id="Oval-Copy-13" stroke="#1576ED" stroke-width="4" cx="317.5" cy="213.5" r="14.5"></circle>
        <circle id="Oval-Copy-21" stroke="#1576ED" stroke-width="4" cx="317.5" cy="472.5" r="14.5"></circle>
        <circle id="Oval-Copy-15" stroke="#1576ED" stroke-width="4" fill="#FF9696" cx="390.5" cy="213.5" r="14.5"></circle>
        <circle id="Oval-Copy-22" stroke="#1576ED" stroke-width="4" cx="390.5" cy="472.5" r="14.5"></circle>
        <circle id="Oval-Copy-17" stroke="#199ABD" stroke-width="4" cx="545.5" cy="154.5" r="14.5"></circle>
        <circle id="Oval-Copy-24" stroke="#199ABD" stroke-width="4" cx="545.5" cy="421.5" r="14.5"></circle>
        <circle id="Oval-Copy-25" stroke="#006AE1" stroke-width="4" fill="#FF9696" cx="622.5" cy="472.5" r="14.5"></circle>
        <g id="location" filter="url(#filter-4)" transform="translate(379.000000, 176.000000)" fill-rule="nonzero">
            <path d="M10.5,0 C4.70101013,0 0,4.924175 0,10.9984527 C0,16.8076355 9.35454545,29.0959067 9.75545455,29.6258322 C9.93662417,29.8623702 10.2104897,30 10.5,30 C10.7895103,30 11.0633758,29.8623702 11.2445455,29.6258322 C11.6454545,29.0959067 21,16.8076355 21,10.9984527 C21,4.924175 16.2989899,0 10.5,0 Z M10.5,15.9977494 C7.86409551,15.9977494 5.72727273,13.759488 5.72727273,10.9984527 C5.72727273,8.23741739 7.86409551,5.99915602 10.5,5.99915602 C13.1359045,5.99915602 15.2727273,8.23741739 15.2727273,10.9984527 C15.2727273,13.759488 13.1359045,15.9977494 10.5,15.9977494 Z" id="Shape" fill="#FF9797"></path>
            <path d="M10.5,0 L10.5,6 C13.1359045,6 15.2727273,8.23857466 15.2727273,11 C15.2727273,13.7614211 13.1359045,16 10.5,16 L10.5,30 C10.7888344,30.0010231 11.0625804,29.8649857 11.2445455,29.6299943 C11.6454545,29.0999944 21,16.8099968 21,11 C21,4.9248668 16.2989899,0 10.5,0 Z" id="Path" fill="#E47979"></path>
        </g>
        <g id="location-copy-2" filter="url(#filter-5)" transform="translate(613.000000, 438.000000)" fill-rule="nonzero">
            <path d="M10.5,0 C4.70101013,0 0,4.924175 0,10.9984527 C0,16.8076355 9.35454545,29.0959067 9.75545455,29.6258322 C9.93662417,29.8623702 10.2104897,30 10.5,30 C10.7895103,30 11.0633758,29.8623702 11.2445455,29.6258322 C11.6454545,29.0959067 21,16.8076355 21,10.9984527 C21,4.924175 16.2989899,0 10.5,0 Z M10.5,15.9977494 C7.86409551,15.9977494 5.72727273,13.759488 5.72727273,10.9984527 C5.72727273,8.23741739 7.86409551,5.99915602 10.5,5.99915602 C13.1359045,5.99915602 15.2727273,8.23741739 15.2727273,10.9984527 C15.2727273,13.759488 13.1359045,15.9977494 10.5,15.9977494 Z" id="Shape" fill="#FF9797"></path>
            <path d="M10.5,0 L10.5,6 C13.1359045,6 15.2727273,8.23857466 15.2727273,11 C15.2727273,13.7614211 13.1359045,16 10.5,16 L10.5,30 C10.7888344,30.0010231 11.0625804,29.8649857 11.2445455,29.6299943 C11.6454545,29.0999944 21,16.8099968 21,11 C21,4.9248668 16.2989899,0 10.5,0 Z" id="Path" fill="#E47979"></path>
        </g>
        <g id="location-copy-3" filter="url(#filter-6)" transform="translate(379.000000, 438.000000)" fill-rule="nonzero" stroke="#979797" stroke-dasharray="2,2">
            <path d="M10.5,0 C4.70101013,0 0,4.924175 0,10.9984527 C0,16.8076355 9.35454545,29.0959067 9.75545455,29.6258322 C9.93662417,29.8623702 10.2104897,30 10.5,30 C10.7895103,30 11.0633758,29.8623702 11.2445455,29.6258322 C11.6454545,29.0959067 21,16.8076355 21,10.9984527 C21,4.924175 16.2989899,0 10.5,0 Z M10.5,15.9977494 C7.86409551,15.9977494 5.72727273,13.759488 5.72727273,10.9984527 C5.72727273,8.23741739 7.86409551,5.99915602 10.5,5.99915602 C13.1359045,5.99915602 15.2727273,8.23741739 15.2727273,10.9984527 C15.2727273,13.759488 13.1359045,15.9977494 10.5,15.9977494 Z" id="Shape" fill="#F2F2F2"></path>
            <path d="M10.5,0 L10.5,6 C13.1359045,6 15.2727273,8.23857466 15.2727273,11 C15.2727273,13.7614211 13.1359045,16 10.5,16 L10.5,30 C10.7888344,30.0010231 11.0625804,29.8649857 11.2445455,29.6299943 C11.6454545,29.0999944 21,16.8099968 21,11 C21,4.9248668 16.2989899,0 10.5,0 Z" id="Path" fill="#ECEBEB"></path>
        </g>
        <g id="Rectangle-Copy-48" transform="translate(559.500000, 230.000000) scale(-1, 1) rotate(270.000000) translate(-559.500000, -230.000000) ">
            <use fill="black" fill-opacity="1" filter="url(#filter-8)" xlink:href="#path-7"></use>
            <use fill="#FFFFFF" fill-rule="evenodd" xlink:href="#path-7"></use>
            <use fill="black" fill-opacity="1" filter="url(#filter-9)" xlink:href="#path-7"></use>
            <use stroke="#0055C2" stroke-width="0.5" xlink:href="#path-7"></use>
        </g>
        <text id="$-git-merge---no-ff" font-family="Helvetica" font-size="21" font-weight="normal" fill="#0055C2">
            <tspan x="444" y="235">$ git merge </tspan>
            <tspan x="554.885742" y="235" font-family="Helvetica-Bold, Helvetica" font-weight="bold">--no-ff</tspan>
            <tspan x="615.506836" y="235"> Branch_A</tspan>
        </text>
        <path id="Path-20" d="M602.643793,517.170072 L596.622632,531.618104 L588.676903,518.132357 L602.643793,517.170072 Z M593.461623,510.123015 C593.944363,511.13813 594.389233,512.134831 594.796212,513.113164 L595.09434,513.843469 L593.237632,514.586863 C592.862349,513.649552 592.449771,512.693022 591.999875,511.717316 L591.655455,510.981942 L593.461623,510.123015 Z M589.630512,502.994693 C590.162872,503.890016 590.670049,504.772968 591.152038,505.643566 L591.625631,506.510048 L589.865411,507.459587 C589.410281,506.615884 588.930131,505.759438 588.424959,504.890266 L587.911445,504.016852 L589.630512,502.994693 Z M585.331095,496.169271 C585.828572,496.913165 586.318011,497.660594 586.801531,498.413966 L587.522636,499.548785 L585.829831,500.613872 C585.358153,499.864206 584.88179,499.121764 584.398649,498.384154 L583.668592,497.281065 L585.331095,496.169271 Z M580.642505,489.59818 C581.186638,490.312391 581.722037,491.031036 582.249409,491.754528 L583.034536,492.843451 L581.406231,494.004754 C580.894749,493.287586 580.375771,492.575472 579.8486,491.868002 L579.051612,490.810228 L580.642505,489.59818 Z M575.55066,483.351151 C576.14131,484.028266 576.723168,484.71083 577.296594,485.398877 L578.150455,486.435066 L576.599961,487.698382 C576.044235,487.016327 575.480434,486.339732 574.908205,485.668557 L574.043495,484.665857 L575.55066,483.351151 Z M570.054176,477.471006 C570.69063,478.106091 571.318403,478.747466 571.93772,479.395066 L572.860381,480.371126 L571.399047,481.736594 C570.798678,481.094074 570.190138,480.457669 569.573206,479.827442 L568.641487,478.886742 L570.054176,477.471006 Z M564.139104,471.973921 C564.819515,472.562337 565.491431,473.157695 566.155009,473.759897 L567.144143,474.668322 L565.782581,476.133296 C565.138904,475.535056 564.48713,474.943508 563.827105,474.358744 L562.83086,473.486699 L564.139104,471.973921 Z M557.835033,466.908313 C558.556514,467.446282 559.269737,467.991663 559.974817,468.544354 L561.026344,469.378863 L559.773677,470.937973 C559.089185,470.388018 558.396758,469.845197 557.696279,469.309608 L556.639507,468.511659 L557.835033,466.908313 Z M551.18028,462.311083 C551.939251,462.795913 552.690235,463.288469 553.433324,463.788655 L554.542045,464.544643 L553.405448,466.190287 C552.683357,465.69156 551.953543,465.200272 551.215918,464.716516 L550.103608,463.996543 L551.18028,462.311083 Z M544.240461,458.218155 C545.032411,458.648249 545.816684,459.086239 546.593349,459.532036 L547.752652,460.206576 L546.736643,461.929284 C545.981076,461.483671 545.218047,461.045669 544.447482,460.615366 L543.285971,459.975696 L544.240461,458.218155 Z M399.735186,457.259467 L400.435587,459.132817 C399.610471,459.441309 398.784164,459.75463 397.956667,460.072782 L396.714528,460.553631 L395.988241,458.690165 C397.239857,458.202347 398.488838,457.725448 399.735186,457.259467 Z M537.011092,454.612039 C537.831489,454.986564 538.644543,455.369033 539.450314,455.759365 L540.653515,456.350752 L539.761015,458.140568 C538.976148,457.749191 538.184111,457.365486 537.384845,456.98953 L536.180515,456.431418 L537.011092,454.612039 Z M407.292171,454.55688 L407.938076,456.449711 C407.104598,456.734124 406.269885,457.023553 405.433935,457.317998 L404.179083,457.763426 L403.505483,455.880274 C404.770448,455.427798 406.032678,454.986667 407.292171,454.55688 Z M414.941882,452.075681 L415.529396,453.987441 C414.686532,454.246466 413.842381,454.510714 412.996942,454.780185 L411.727818,455.188308 L411.110647,453.285914 C412.390575,452.870682 413.667653,452.467271 414.941882,452.075681 Z M529.555605,451.506365 C530.399004,451.825392 531.235429,452.152295 532.064928,452.487003 L533.303987,452.994909 L532.535231,454.841261 C531.726146,454.504386 530.91022,454.175134 530.087405,453.853572 L528.848008,453.377008 L529.555605,451.506365 Z M422.656387,449.839846 L423.181617,451.769648 C422.331319,452.001071 421.479686,452.23791 420.626717,452.480163 L419.346262,452.847605 L418.789379,450.926699 C420.081338,450.552151 421.37034,450.189867 422.656387,449.839846 Z M521.932067,448.897811 C522.793506,449.162678 523.648351,449.435265 524.496643,449.71551 L525.764171,450.141613 L525.116954,452.033995 C524.288351,451.750603 523.453256,451.4747 522.611629,451.206347 L521.344284,450.809489 L521.932067,448.897811 Z M430.438227,447.863057 L430.897078,449.80971 C430.039921,450.011753 429.181379,450.219404 428.321455,450.432665 L427.03053,450.756762 L426.53796,448.818367 C427.841112,448.48722 429.141202,448.168783 430.438227,447.863057 Z M514.154572,446.761664 C515.03101,446.974662 515.90122,447.195185 516.765235,447.423178 L518.056613,447.770763 L517.527247,449.699434 C516.682062,449.467454 515.830724,449.242791 514.973199,449.025499 L513.682265,448.705096 L514.154572,446.761664 Z M438.299029,446.158381 L438.687146,448.120361 C437.823314,448.291244 436.958049,448.467936 436.09135,448.650437 L434.790229,448.928546 L434.366258,446.974 C435.680357,446.688952 436.99128,446.417079 438.299029,446.158381 Z M506.271735,445.081358 C507.1578,445.244657 508.038017,445.415216 508.912411,445.592987 L510.219641,445.865046 L509.803067,447.821181 C508.946487,447.638766 508.084112,447.463427 507.215914,447.29521 L505.909244,447.048234 L506.271735,445.081358 Z M446.221852,444.746133 L446.534917,446.721479 C445.664395,446.859444 444.792389,447.00343 443.918899,447.153435 L442.60755,447.382957 L442.25645,445.414016 C443.581544,445.177726 444.903344,444.955098 446.221852,444.746133 Z M498.368822,443.827923 C499.256395,443.946542 500.142235,444.0723 501.026341,444.205196 L502.351199,444.409893 L502.037719,446.385172 C501.166122,446.246849 500.2928,446.115574 499.417753,445.991349 L498.103888,445.810298 L498.368822,443.827923 Z M454.198273,443.643929 L454.432002,445.630225 C453.557206,445.733163 452.680881,445.842307 451.803025,445.957657 L450.485094,446.135337 L450.21124,444.154175 C451.54365,443.969997 452.872661,443.799915 454.198273,443.643929 Z M490.354612,442.954828 C491.24723,443.030279 492.138138,443.112784 493.027335,443.202342 L494.359848,443.34197 L494.143406,445.330224 C493.26658,445.234772 492.388045,445.146288 491.507803,445.064771 L490.186158,444.947721 L490.354612,442.954828 Z M462.187058,442.87143 L462.337639,444.865754 C461.458888,444.932103 460.578562,445.004849 459.696659,445.083992 L458.372624,445.207503 L458.179884,443.216811 C459.519116,443.087146 460.854841,442.972019 462.187058,442.87143 Z M482.30582,442.467356 C483.201441,442.50038 484.095382,442.540346 484.987643,442.587253 L486.324773,442.66282 L486.204065,444.659174 C485.323937,444.605957 484.442126,444.5596 483.55863,444.520101 L482.232123,444.465997 L482.30582,442.467356 Z M470.224541,442.439613 L470.28793,444.438608 C469.40699,444.466544 468.524432,444.501048 467.640257,444.542122 L466.312782,444.608661 L466.205364,442.611548 C467.548698,442.539294 468.888424,442.481982 470.224541,442.439613 Z M476.93495,442.352637 L478.273386,442.365723 L478.246189,444.365538 C477.364881,444.353552 476.48192,444.348289 475.597306,444.349749 L474.269144,444.356981 L474.250679,442.357067 C475.14708,442.34879 476.041837,442.347314 476.93495,442.352637 Z" transform="translate(496.711565, 487.483808) scale(1, -1) rotate(-22.000000) translate(-496.711565, -487.483808) " fill="#DE4040" fill-rule="nonzero"></path>
        <text id="Master-Branch" font-family="Helvetica-Bold, Helvetica" font-size="21" font-weight="bold" fill="#006AE1">
            <tspan x="50" y="218">Master Branch</tspan>
        </text>
        <text id="Master-Branch-Copy" font-family="Helvetica-Bold, Helvetica" font-size="21" font-weight="bold" fill="#006AE1">
            <tspan x="50" y="479">Master Branch</tspan>
        </text>
        <path id="Line-42" d="M604.347271,431.951133 L610.403226,446.384615 L595.222867,442.56929 L599.133,438.018 L598.215104,437.229604 L599.51859,435.712725 L600.436,436.501 L604.347271,431.951133 Z M593.451072,430.49878 L596.484831,433.105752 L595.181345,434.622632 L592.147586,432.015659 L593.451072,430.49878 Z M587.383554,425.284835 L590.417313,427.891807 L589.113827,429.408687 L586.080068,426.801714 L587.383554,425.284835 Z M581.316036,420.07089 L584.349795,422.677862 L583.046308,424.194742 L580.012549,421.587769 L581.316036,420.07089 Z M575.248517,414.856945 L578.282276,417.463917 L576.97879,418.980797 L573.945031,416.373824 L575.248517,414.856945 Z" fill="#DE4040" fill-rule="nonzero"></path>
        <text id="Branch_A" font-family="Helvetica-Bold, Helvetica" font-size="21" font-weight="bold" fill="#199ABD">
            <tspan x="50" y="163">Branch_A</tspan>
        </text>
        <text id="Branch_A-Copy" font-family="Helvetica-Bold, Helvetica" font-size="21" font-weight="bold" fill="#199ABD">
            <tspan x="50" y="395">Branch_A</tspan>
        </text>
        <text id="Non-Fast-Forward-Mer" font-family="Helvetica-Bold, Helvetica" font-size="24" font-weight="bold" fill="#363636">
            <tspan x="50" y="83">Non Fast Forward Merge</tspan>
            <tspan x="50" y="112" font-family="Helvetica" font-weight="normal">(</tspan>
            <tspan x="57.9921875" y="112">"--no-ff"</tspan>
            <tspan x="150.03125" y="112" font-family="Helvetica" font-weight="normal"> option)</tspan>
        </text>
        <g id="Path-2-Copy-2">
            <use fill="black" fill-opacity="1" filter="url(#filter-11)" xlink:href="#path-10"></use>
            <use fill="#FFC0C0" fill-rule="evenodd" xlink:href="#path-10"></use>
        </g>
    </g>
</svg>