<?xml version="1.0" encoding="UTF-8"?>
<svg width="800px" height="600px" viewBox="0 0 800 600" version="1.1" xmlns="http://www.w3.org/2000/svg" xmlns:xlink="http://www.w3.org/1999/xlink">
    <title>2041-10-16-24-10_StashChanges—GitStash</title>
    <defs>
        <path d="M8.68744595,14.5405413 C10.6544909,13.5649687 12,11.5915112 12,9.31636202 C12,6.07252388 9.26504479,3.44227578 5.89152197,3.44227578 C4.52034181,3.44227578 3.25480793,3.87689217 2.23537065,4.61058921 L2.23537065,1.05770107 C2.23537065,0.476155373 1.74046224,0 1.11695169,0 C0.493934821,0 0.0167986821,0.476630104 0.0167986821,1.05770107 L0.0167986821,1.80184219 L0,9.32158406 C-0.0041824725,11.2003327 0.951817666,12.865215 2.41753644,13.8939574 C2.4777647,13.9362085 2.55848043,13.9312238 2.6127846,13.8823265 C2.66758244,13.8334292 2.6779496,13.7558106 2.63746831,13.6950451 C0.724974359,10.8146136 1.16014819,5.53963813 5.89176881,5.53963813 C8.05899866,5.53963813 9.80709909,7.22944376 9.81623206,9.31351363 C9.82240299,10.8599505 9.11620201,12.0365717 8.19549958,12.7781018 C6.36026565,14.2561773 3.64974731,12.6382934 4.49738595,10.4697214 C4.5894562,10.2335427 4.71879884,9.9959397 4.88664808,9.76189723 L5.12361171,9.47705853 C5.19766284,9.39967734 5.25048599,9.29903433 5.2146946,9.19411874 C5.01401603,8.62800181 3.46832203,8.97526767 3.04005964,10.0315445 C3.34292878,9.79631524 3.65986763,9.66433998 3.96940137,9.71489885 C2.38890334,11.275815 3.44141679,13.9563846 5.46005069,14.7513219 C6.40494316,15.1232738 7.55964718,15.0976383 8.68744595,14.5405413" id="path-1"></path>
        <linearGradient x1="28.568518%" y1="104.445731%" x2="78.3472072%" y2="20.6880271%" id="linearGradient-3">
            <stop stop-color="#000F98" offset="0%"></stop>
            <stop stop-color="#00A5FD" offset="100%"></stop>
        </linearGradient>
        <rect id="path-4" x="20" y="62" width="766" height="140"></rect>
        <filter x="-0.5%" y="-2.9%" width="102.1%" height="111.4%" filterUnits="objectBoundingBox" id="filter-5">
            <feOffset dx="4" dy="4" in="SourceAlpha" result="shadowOffsetOuter1"></feOffset>
            <feGaussianBlur stdDeviation="2" in="shadowOffsetOuter1" result="shadowBlurOuter1"></feGaussianBlur>
            <feComposite in="shadowBlurOuter1" in2="SourceAlpha" operator="out" result="shadowBlurOuter1"></feComposite>
            <feColorMatrix values="0 0 0 0 0   0 0 0 0 0   0 0 0 0 0  0 0 0 0.5 0" type="matrix" in="shadowBlurOuter1"></feColorMatrix>
        </filter>
        <path d="M58,329 L147,329 C149.209139,329 151,330.790861 151,333 L151,461.4903 C151,463.699439 149.209139,465.4903 147,465.4903 L88.4888889,465.4903 L88.4888889,465.4903 L81.5644167,488 L76.6333333,465.4903 L58,465.4903 C55.790861,465.4903 54,463.699439 54,461.4903 L54,333 C54,330.790861 55.790861,329 58,329 Z" id="path-6"></path>
        <filter x="-2.6%" y="-1.6%" width="109.3%" height="106.6%" filterUnits="objectBoundingBox" id="filter-7">
            <feMorphology radius="0.5" operator="dilate" in="SourceAlpha" result="shadowSpreadOuter1"></feMorphology>
            <feOffset dx="2" dy="2" in="shadowSpreadOuter1" result="shadowOffsetOuter1"></feOffset>
            <feGaussianBlur stdDeviation="1" in="shadowOffsetOuter1" result="shadowBlurOuter1"></feGaussianBlur>
            <feComposite in="shadowBlurOuter1" in2="SourceAlpha" operator="out" result="shadowBlurOuter1"></feComposite>
            <feColorMatrix values="0 0 0 0 0   0 0 0 0 0   0 0 0 0 0  0 0 0 0.5 0" type="matrix" in="shadowBlurOuter1"></feColorMatrix>
        </filter>
    </defs>
    <g id="2041-10-16-24-10_StashChanges—GitStash" stroke="none" stroke-width="1" fill="none" fill-rule="evenodd">
        <rect fill="#FFFFFF" x="0" y="0" width="800" height="600"></rect>
        <g id="bloovee-winner-logo" transform="translate(725.000000, 580.000000)">
            <path d="M13,13.7751507 C13,14.396312 13.4732558,14.8717809 14.0514961,14.8717809 C14.6474304,14.8717809 15.1204503,14.3968042 15.1204503,13.7751507 L15.1204503,2.09687626 C15.1204503,1.49368045 14.6474304,1 14.0514961,1 C13.4557977,1 13,1.49392656 13,2.09687626 L13,13.7751507 Z M21.7920364,15 C24.6483217,15 26.751078,12.7149437 26.751078,9.97312215 L26.751078,9.93645297 C26.751078,7.17641992 24.6657798,4.92778666 21.8269526,4.92778666 C18.9881254,4.92778666 16.885369,7.212843 16.885369,9.97312215 L16.885369,10.0095452 C16.885369,12.7516128 18.9706673,15 21.7920364,15 Z M21.8269526,13.0621935 C20.179994,13.0621935 19.0055834,11.6547366 19.0055834,9.97312215 L19.0055834,9.93645297 C19.0055834,8.25459244 20.0919958,6.86534709 21.7920364,6.86534709 C23.456689,6.86534709 24.6306277,8.27305008 24.6306277,9.97312215 L24.6306277,10.0095452 C24.6306277,11.6731942 23.5444513,13.0621935 21.8269526,13.0621935 Z M32.8092717,15 C35.665557,15 37.7683133,12.7149437 37.7683133,9.97312215 L37.7683133,9.93645297 C37.7683133,7.17641992 35.6830151,4.92778666 32.8441878,4.92778666 C30.0053606,4.92778666 27.9026043,7.212843 27.9026043,9.97312215 L27.9026043,10.0095452 C27.9026043,12.7516128 29.9879025,15 32.8092717,15 Z M32.8441878,13.0621935 C31.1969933,13.0621935 30.0228187,11.6547366 30.0228187,9.97312215 L30.0228187,9.93645297 C30.0228187,8.25459244 31.109231,6.86534709 32.8092717,6.86534709 C34.4739243,6.86534709 35.647863,8.27305008 35.647863,9.97312215 L35.647863,10.0095452 C35.647863,11.6731942 34.5614506,13.0621935 32.8441878,13.0621935 Z M44.1416963,13.9944275 L47.2261164,6.6096472 C47.2784906,6.49988574 47.3487948,6.28060893 47.3487948,6.07954366 C47.3487948,5.47610175 46.8929971,5.01933658 46.3147568,5.01933658 C45.7539746,5.01933658 45.4737015,5.40300947 45.3158709,5.78692847 L42.8976893,12.2215093 L40.5144239,5.82335156 C40.3393711,5.36634029 40.041404,5.01933658 39.4629278,5.01933658 C38.8846875,5.01933658 38.4116676,5.53098247 38.4116676,6.07954366 C38.4116676,6.28060893 38.4817358,6.46346265 38.534346,6.62785874 L41.6182943,13.9944275 C41.8638872,14.5796579 42.2491448,14.9633308 42.8273851,14.9633308 L42.9326055,14.9633308 C43.5108458,14.9633308 43.8965752,14.5612003 44.1416963,13.9944275 Z M50.0949054,9.27837643 C50.2876522,7.77961573 51.1987758,6.73762019 52.4956289,6.73762019 C53.8974665,6.73762019 54.7036056,7.8524619 54.8437422,9.27837643 L50.0949054,9.27837643 Z M56.070527,13.72027 C56.2281217,13.5558739 56.3508002,13.3181395 56.3508002,13.0439819 C56.3508002,12.5320899 55.9830006,12.1481709 55.5095089,12.1481709 C55.2641519,12.1481709 55.1242513,12.2215093 54.9664207,12.3492362 C54.3704864,12.8611282 53.6695676,13.1901665 52.7759021,13.1901665 C51.4089807,13.1901665 50.3402624,12.3128131 50.1123635,10.7409601 L55.9126964,10.7409601 C56.4560206,10.7409601 56.9115824,10.3021604 56.9115824,9.68050697 C56.9115824,7.45057746 55.4568987,4.92778666 52.513087,4.92778666 C49.8672425,4.92778666 47.9919132,7.19438536 47.9919132,9.95466451 L47.9919132,9.9913337 C47.9919132,12.9708897 50.0597533,15 52.7409859,15 C54.1779755,15 55.2292357,14.5063195 56.070527,13.72027 Z M60.1833231,9.27837643 C60.3763058,7.77961573 61.2871935,6.73762019 62.5842825,6.73762019 C63.9858841,6.73762019 64.7920233,7.8524619 64.9321598,9.27837643 L60.1833231,9.27837643 Z M66.1589447,13.72027 C66.3167752,13.5558739 66.4394537,13.3181395 66.4394537,13.0439819 C66.4394537,12.5320899 66.0714183,12.1481709 65.5981624,12.1481709 C65.3528055,12.1481709 65.2126689,12.2215093 65.0548383,12.3492362 C64.4591399,12.8611282 63.7582212,13.1901665 62.8643197,13.1901665 C61.4976342,13.1901665 60.4289159,12.3128131 60.2007812,10.7409601 L66.0011141,10.7409601 C66.5444382,10.7409601 67,10.3021604 67,9.68050697 C67,7.45057746 65.5455522,4.92778666 62.6015046,4.92778666 C59.9556601,4.92778666 58.0805667,7.19438536 58.0805667,9.95466451 L58.0805667,9.9913337 C58.0805667,12.9708897 60.1484069,15 62.8294035,15 C64.2663932,15 65.3178893,14.5063195 66.1589447,13.72027 L66.1589447,13.72027 Z" id="Fill-1" fill="#030060"></path>
            <g id="Group-4">
                <mask id="mask-2" fill="white">
                    <use xlink:href="#path-1"></use>
                </mask>
                <g id="Clip-3"></g>
                <path d="M8.68744595,14.5405413 C10.6544909,13.5649687 12,11.5915112 12,9.31636202 C12,6.07252388 9.26504479,3.44227578 5.89152197,3.44227578 C4.52034181,3.44227578 3.25480793,3.87689217 2.23537065,4.61058921 L2.23537065,1.05770107 C2.23537065,0.476155373 1.74046224,0 1.11695169,0 C0.493934821,0 0.0167986821,0.476630104 0.0167986821,1.05770107 L0.0167986821,1.80184219 L0,9.32158406 C-0.0041824725,11.2003327 0.951817666,12.865215 2.41753644,13.8939574 C2.4777647,13.9362085 2.55848043,13.9312238 2.6127846,13.8823265 C2.66758244,13.8334292 2.6779496,13.7558106 2.63746831,13.6950451 C0.724974359,10.8146136 1.16014819,5.53963813 5.89176881,5.53963813 C8.05899866,5.53963813 9.80709909,7.22944376 9.81623206,9.31351363 C9.82240299,10.8599505 9.11620201,12.0365717 8.19549958,12.7781018 C6.36026565,14.2561773 3.64974731,12.6382934 4.49738595,10.4697214 C4.5894562,10.2335427 4.71879884,9.9959397 4.88664808,9.76189723 L5.12361171,9.47705853 C5.19766284,9.39967734 5.25048599,9.29903433 5.2146946,9.19411874 C5.01401603,8.62800181 3.46832203,8.97526767 3.04005964,10.0315445 C3.34292878,9.79631524 3.65986763,9.66433998 3.96940137,9.71489885 C2.38890334,11.275815 3.44141679,13.9563846 5.46005069,14.7513219 C6.40494316,15.1232738 7.55964718,15.0976383 8.68744595,14.5405413" id="Fill-2" fill="url(#linearGradient-3)" mask="url(#mask-2)"></path>
            </g>
        </g>
        <g id="Rectangle-Copy-4">
            <use fill="black" fill-opacity="1" filter="url(#filter-5)" xlink:href="#path-4"></use>
            <rect stroke="#006AE1" stroke-width="4" stroke-linejoin="square" fill="#FFFFFF" fill-rule="evenodd" x="22" y="64" width="762" height="136"></rect>
        </g>
        <text id="Stash-Changes-—-Git" fill-rule="nonzero" font-family="Helvetica" font-size="18" font-weight="normal" fill="#0055C2">
            <tspan x="10" y="23">Stash Changes — Git Stash</tspan>
        </text>
        <g id="git" transform="translate(704.000000, 9.000000)">
            <path d="M46.8658496,11.2380575 C45.1623498,11.2380575 43.8939053,12.0891281 43.8939053,14.1376499 C43.8939053,15.6808485 44.7297841,16.7522856 46.7743573,16.7522856 C48.5071097,16.7522856 49.6846843,15.7131436 49.6846843,14.073693 C49.6846843,12.2157755 48.6309666,11.2380575 46.8658496,11.2380575 L46.8658496,11.2380575 Z M43.4607172,25.7011913 C43.0574041,26.2046147 42.6553359,26.7397 42.6553359,27.3710373 C42.6553359,28.6305458 44.2337339,29.0092215 46.4027864,29.0092215 C48.1984009,29.0092215 50.6450424,28.8813076 50.6450424,27.1823327 C50.6450424,26.1723196 49.4674678,26.1102624 47.9805621,26.0152768 L43.4607172,25.7011913 Z M52.6255087,11.3330431 C53.1825537,12.0580995 53.7719634,13.0662128 53.7719634,14.5156924 C53.7719634,18.0124273 51.0776081,20.0603158 47.1764255,20.0603158 C46.1843252,20.0603158 45.2862067,19.9349349 44.7291617,19.7772589 L43.7071863,21.4471049 L46.7413702,21.6351763 C52.0989611,21.9828234 55.257002,22.1404995 55.257002,26.3293624 C55.257002,29.9533779 52.1300809,32 46.7413702,32 C41.1360655,32 39,30.5505204 39,28.0625322 C39,26.6440812 39.6199071,25.8898959 40.7034998,24.848221 C39.680902,24.4087545 39.3410734,23.6216409 39.3410734,22.7705703 C39.3410734,22.0771758 39.6815244,21.4471049 40.2391918,20.8480627 C40.7968593,20.2502869 41.416144,19.6506115 42.1586633,18.9578502 C40.6412601,18.2017651 39.4960502,16.563581 39.4960502,14.231369 C39.4960502,10.6086199 41.8493321,8.12063165 46.5870158,8.12063165 C47.9189448,8.12063165 48.7249485,8.24537935 49.436348,8.43598369 L55.4754632,8.43598369 L55.4754632,11.1133099 L52.6255087,11.3330431 L52.6255087,11.3330431 Z M60.9233016,5.60858036 C59.1575621,5.60858036 58.1355867,4.56817192 58.1355867,2.77167847 C58.1355867,0.977717972 59.1575621,0 60.9233016,0 C62.7195385,0 63.7408917,0.977084735 63.7408917,2.77167847 C63.7415139,4.56817192 62.7195385,5.60858036 60.9233016,5.60858036 Z M56.9275147,24.5423675 L56.9275147,22.0543792 L58.50778,21.8340127 C58.9409681,21.770689 59.0025853,21.6763367 59.0025853,21.2026754 L59.0025853,11.9403174 C59.0025853,11.59457 58.9104706,11.372937 58.5998947,11.279218 L56.9275147,10.6801757 L57.2679657,8.12949697 L63.6792742,8.12949697 L63.6792742,21.2033087 C63.6792742,21.7086318 63.7091492,21.770689 64.174702,21.834646 L65.7543448,22.0550125 L65.7543448,24.5430008 L56.9275147,24.5430008 L56.9275147,24.5423675 Z M78,23.32022 C76.6674487,23.9806863 74.7174798,24.5803617 72.9511179,24.5803617 C69.2665294,24.5803617 67.8736056,23.0694582 67.8736056,19.5074999 L67.8736056,11.2532552 C67.8736056,11.0651838 67.8736056,10.9385364 67.6252693,10.9385364 L65.458084,10.9385364 L65.458084,8.13456287 C68.1841815,7.81857759 69.2671518,6.43242174 69.6076028,2.99837733 L72.5502944,2.99837733 L72.5502944,7.47346341 C72.5502944,7.69319666 72.5502944,7.78881545 72.7980083,7.78881545 L77.1641212,7.78881545 L77.1641212,10.9391697 L72.5502944,10.9391697 L72.5502944,18.4683579 C72.5502944,20.3269086 72.9841049,21.0513318 74.6558625,21.0513318 C75.5241059,21.0513318 76.4209796,20.8315985 77.1641212,20.5479083 L78,23.32022 L78,23.32022 Z" id="Shape" fill="#31251C" fill-rule="nonzero"></path>
            <path d="M32.3772539,15.0299695 L17.9690664,0.622277028 C17.140005,-0.207425676 15.7941261,-0.207425676 14.9644314,0.622277028 L11.9724635,3.61427365 L15.7668919,7.40937182 C16.6497884,7.11169223 17.6606226,7.31120089 18.3636464,8.01486479 C19.0704703,8.72232885 19.2687104,9.74203981 18.9634334,10.6274783 L22.6210571,14.2851371 C23.5052204,13.9804906 24.5268216,14.1774658 25.2336455,14.8849299 C26.221679,15.8723394 26.221679,17.4728423 25.2336455,18.4608852 C24.2449787,19.4489281 22.6451246,19.4489281 21.6570912,18.4608852 C20.914166,17.7173195 20.7304932,16.6260388 21.1067059,15.7108324 L17.6954571,12.2995509 L17.6948238,21.2768075 C17.9361319,21.3958793 18.1628729,21.5542195 18.3636464,21.7543616 C19.3516798,22.7417711 19.3516798,24.3416406 18.3636464,25.3309502 C17.375613,26.3183598 15.7744921,26.3183598 14.7877254,25.3309502 C13.799692,24.3416406 13.799692,22.7417711 14.7877254,21.7543616 C15.0322003,21.5105176 15.3140432,21.3262096 15.6155201,21.2027043 L15.6155201,12.1424774 C15.3140432,12.0196054 15.0322003,11.8359308 14.7877254,11.5908201 C14.0391001,10.842821 13.8592273,9.74520661 14.2430403,8.82620003 L10.5024471,5.08430417 L0.622746073,14.9634666 C-0.207582024,15.7938027 -0.207582024,17.1396945 0.622746073,17.9700305 L15.0309336,32.377723 C15.8606284,33.2074257 17.2058739,33.2074257 18.0368353,32.377723 L32.3772539,18.0359 C33.207582,17.2061973 33.207582,15.8596722 32.3772539,15.0299695 L32.3772539,15.0299695 Z" id="Path" fill="#F34F29" fill-rule="nonzero"></path>
            <polygon id="Path" points="1.12409637e-15 0 79 0 79 33 0 33"></polygon>
        </g>
        <text id="$-git-stash--u" font-family="Helvetica-Bold, Helvetica" font-size="36" font-weight="bold" fill="#0055C2">
            <tspan x="291.985352" y="149">$ git stash -u</tspan>
        </text>
        <text id="Related-commands-/-o" font-family="Helvetica-Bold, Helvetica" font-size="24" font-weight="bold" fill="#0055C2">
            <tspan x="319" y="244">Related commands / options</tspan>
        </text>
        <text id="$-git-stash-save-&quot;[s" font-family="Helvetica-Bold, Helvetica" font-size="24" font-weight="bold" fill="#0055C2">
            <tspan x="327" y="299">$ git stash save "[stash message]"</tspan>
        </text>
        <text id="$-git-stash-pop-[sta" font-family="Helvetica-Bold, Helvetica" font-size="24" font-weight="bold" fill="#0055C2">
            <tspan x="327" y="427">$ git stash pop [stash number]</tspan>
        </text>
        <text id="$-git-stash-list" font-family="Helvetica-Bold, Helvetica" font-size="24" font-weight="bold" fill="#0055C2">
            <tspan x="327" y="363">$ git stash list</tspan>
        </text>
        <text id="$-git-stash-drop-[st" font-family="Helvetica-Bold, Helvetica" font-size="24" font-weight="bold" fill="#0055C2">
            <tspan x="327" y="490">$ git stash drop [stash number] </tspan>
        </text>
        <text id="$-git-stash-clear" font-family="Helvetica-Bold, Helvetica" font-size="24" font-weight="bold" fill="#0055C2">
            <tspan x="327" y="552">$ git stash clear</tspan>
        </text>
        <text id="Stash-with-comments" font-family="Helvetica" font-size="18" font-weight="normal" fill="#0055C2">
            <tspan x="327" y="275">Stash with comments</tspan>
        </text>
        <text id="Restore-stashed-item" font-family="Helvetica" font-size="18" font-weight="normal" fill="#0055C2">
            <tspan x="327" y="402">Restore stashed item and delete it from stash list </tspan>
        </text>
        <text id="Check-stashed-items" font-family="Helvetica" font-size="18" font-weight="normal" fill="#0055C2">
            <tspan x="327" y="339">Check stashed items</tspan>
        </text>
        <text id="Clear-stashed-items" font-family="Helvetica" font-size="18" font-weight="normal" fill="#0055C2">
            <tspan x="327" y="466">Clear stashed items</tspan>
        </text>
        <text id="Clear-all-stashed-it" font-family="Helvetica" font-size="18" font-weight="normal" fill="#0055C2">
            <tspan x="327" y="528">Clear all stashed items</tspan>
        </text>
        <rect id="Rectangle" stroke="#0055C2" stroke-width="2" x="320" y="257" width="430" height="58" rx="10"></rect>
        <rect id="Rectangle-Copy-2" stroke="#0055C2" stroke-width="2" x="320" y="384" width="430" height="58" rx="10"></rect>
        <rect id="Rectangle-Copy" stroke="#0055C2" stroke-width="2" x="320" y="321" width="430" height="58" rx="10"></rect>
        <rect id="Rectangle-Copy-3" stroke="#0055C2" stroke-width="2" x="320" y="448" width="430" height="58" rx="10"></rect>
        <rect id="Rectangle-Copy-5" stroke="#0055C2" stroke-width="2" x="320" y="510" width="430" height="58" rx="10"></rect>
        <g id="Group" transform="translate(178.000000, 422.083584)" fill-rule="nonzero">
            <polygon id="Path" fill="#D0AC88" points="58.9782348 0 107.579825 22.3643699 107.579012 46.1945173 13.0210121 46.1945173 13.0210121 21.3645173"></polygon>
            <polygon id="Path" fill="#E9B47F" points="60.3000121 106.916517 13.0210121 82.2015321 13.0210121 30.5685173 60.3000121 46.1945173"></polygon>
            <path d="M60.3000121,107.916624 C60.1945433,107.916624 60.0885863,107.900023 59.9860473,107.866331 L12.7067504,92.2403469 C12.2975707,92.1046047 12.0207152,91.7217922 12.0207152,91.2906399 L12.0207152,30.5679837 C12.0207152,30.2471829 12.1750121,29.9454251 12.4347777,29.7574368 C12.6955199,29.5694485 13.0299925,29.5186673 13.33468,29.6182766 L60.6139769,45.2447414 C61.0231566,45.3804837 61.3000121,45.7632962 61.3000121,46.1944485 L61.3000121,106.916624 C61.3000121,107.237425 61.1457152,107.539183 60.8859496,107.727171 C60.713098,107.851683 60.5075316,107.916624 60.3000121,107.916624 Z M14.0207152,90.5679837 L59.3000121,105.532835 L59.3000121,46.9171048 L14.0207152,31.9517728 L14.0207152,90.5679837 Z" id="Shape" fill="#FFFFFF"></path>
            <polygon id="Path" fill="#EEC59B" points="106.579309 79.6960551 60.3000121 106.916517 60.3000121 46.1945173 107.579012 30.5685173"></polygon>
            <path d="M60.3000121,107.916624 C60.0924926,107.916624 59.8869262,107.851683 59.7140746,107.727171 C59.454309,107.539183 59.3000121,107.237425 59.3000121,106.916624 L59.3000121,46.1944485 C59.3000121,45.7632962 59.5768676,45.3804837 59.9860473,45.2447415 L107.265344,29.6182767 C107.570032,29.5186673 107.904504,29.5694486 108.165247,29.7574369 C108.425012,29.9454252 108.579309,30.247183 108.579309,30.5679838 L108.579309,91.2906401 C108.579309,91.7217924 108.302454,92.1046049 107.893274,92.2403471 L60.6139769,107.866331 C60.5114379,107.900023 60.4054809,107.916624 60.3000121,107.916624 Z M61.3000121,46.9171048 L61.3000121,105.532835 L106.579309,90.5679837 L106.579309,31.9517727 L61.3000121,46.9171048 Z" id="Shape" fill="#FFFFFF"></path>
            <polygon id="Path" fill="#F6DFC7" points="107.579012 21.3645173 60.3000121 46.1945173 72.3200121 71.0245173 119.600012 46.1945173"></polygon>
            <path d="M72.3200316,72.0240384 C72.2145628,72.0240384 72.1090941,72.0074368 72.0070433,71.9737454 C71.7497191,71.8892727 71.537805,71.7037259 71.4201292,71.4595852 L59.4001098,46.6299954 C59.1647582,46.1446438 59.357141,45.5601712 59.8351684,45.3091946 L107.114465,20.4791165 C107.353723,20.3526517 107.634973,20.330679 107.892297,20.4146634 C108.149622,20.4991361 108.361536,20.6846829 108.479211,20.9288236 L120.499719,45.7589017 C120.735071,46.2442533 120.542688,46.8287259 120.064661,47.0797025 L72.7848754,71.9092923 C72.6403441,71.9854641 72.4806762,72.0240384 72.3200316,72.0240384 Z M61.6217894,46.6299954 L72.7697386,69.6583157 L118.278039,45.7589016 L107.129602,22.730093 L61.6217894,46.6299954 Z" id="Shape" fill="#FFFFFF"></path>
            <polygon id="Path" fill="#F6DFC7" points="13.0210121 21.3645173 60.3000121 46.1945173 48.2800121 71.0245173 1.00001211 46.1945173"></polygon>
            <path d="M48.2799926,72.0240384 C48.1193481,72.0240384 47.9596801,71.9854642 47.8151488,71.9092923 L0.535363708,47.0797024 C0.0573364075,46.8287258 -0.135046492,46.2442532 0.100305108,45.7589016 L12.1208129,20.9288235 C12.2384887,20.6846829 12.4504027,20.499136 12.707727,20.4146633 C12.9650512,20.3306789 13.2467895,20.3526516 13.485559,20.4791164 L60.7648559,45.3091945 C61.2428832,45.5601711 61.4352661,46.1446437 61.1999145,46.6299953 L49.179895,71.4595851 C49.0622192,71.7037257 48.8503052,71.8892726 48.5929809,71.9737453 C48.4909301,72.0074368 48.3854613,72.0240384 48.2799926,72.0240384 Z M2.32198481,45.7589016 L47.8302856,69.6583157 L58.9782348,46.6299954 L13.4704223,22.730093 L2.32198481,45.7589016 Z" id="Shape" fill="#FFFFFF"></path>
        </g>
        <circle id="Oval-Copy-10" stroke="#0055C2" stroke-width="6" fill="#7BB2FF" cx="38" cy="268" r="15"></circle>
        <circle id="Oval-Copy-11" stroke="#0055C2" stroke-width="6" fill="#7BB2FF" cx="144" cy="268" r="15"></circle>
        <line x1="56.3063063" y1="267.5" x2="123.693694" y2="267.5" id="Line-13-Copy-9" stroke="#0055C2" stroke-linecap="square"></line>
        <line x1="162.306306" y1="267.5" x2="229.693694" y2="267.5" id="Line-13-Copy-11" stroke="#4F4F4F" stroke-linecap="square" stroke-dasharray="6"></line>
        <g id="documents-copy-12" transform="translate(231.000000, 252.000000)" fill-rule="nonzero">
            <path d="M23.5625,29.4324324 C22.8423,29.4324324 0.4424875,29.4324324 0,29.4324324 C0,27.7189403 0,2.92777954 0,1.78378378 L17.0625,1.78378378 L18.8229438,5.44834884 L23.5625,7.05019305 C23.5625,8.03573571 23.5625,28.3128597 23.5625,29.4324324 Z" id="Path" fill="#FFFFFF"></path>
            <polygon id="Path" fill="#FFFFFF" points="24.46875 6.24324324 18.125 6.24324324 18.125 0.891891892"></polygon>
            <path d="M23.6794355,30.3243243 L0.789314516,30.3243243 C0.353376109,30.3243243 0,30.0157054 0,29.6351351 L0,0.689189189 C0,0.30855 0.353376109,0 0.789314516,0 L17.3649194,0 C17.5742456,0 17.7749682,0.0726405405 17.9230436,0.201863514 L24.2375598,5.71537703 C24.3855563,5.8446 24.46875,6.01992973 24.46875,6.2027027 L24.46875,29.6351351 C24.46875,30.0157054 24.115295,30.3243243 23.6794355,30.3243243 Z M1.57862903,28.9459459 L22.890121,28.9459459 L22.890121,6.48816486 L17.0379064,1.37837838 L1.57862903,1.37837838 L1.57862903,28.9459459 Z" id="Shape" fill="#999999"></path>
            <path d="M24.9234429,6.875 L18.4009516,6.875 C17.9507366,6.875 17.5856401,6.56720625 17.5856401,6.1875 L17.5856401,0.6875 C17.5856401,0.30779375 17.9507366,0 18.4009516,0 C18.8511665,0 19.216263,0.30779375 19.216263,0.6875 L19.216263,5.5 L24.9234429,5.5 C25.3736579,5.5 25.7387543,5.80779375 25.7387543,6.1875 C25.7387543,6.56720625 25.3736579,6.875 24.9234429,6.875 Z M28.1846886,33 L6.25281142,33 C5.80251492,33 5.4375,32.6921375 5.4375,32.3125 L5.4375,29.5625 C5.4375,29.1828625 5.80251492,28.875 6.25281142,28.875 C6.70310792,28.875 7.06812284,29.1828625 7.06812284,29.5625 L7.06812284,31.625 L27.3693772,31.625 L27.3693772,8.9375 L24.9234429,8.9375 C24.4732279,8.9375 24.1081315,8.62970625 24.1081315,8.25 C24.1081315,7.87029375 24.4732279,7.5625 24.9234429,7.5625 L28.1846886,7.5625 C28.6349035,7.5625 29,7.87029375 29,8.25 L29,32.3125 C29,32.6921375 28.6349035,33 28.1846886,33 Z" id="Shape" fill="#999999"></path>
            <path d="M20.0557065,24.972973 L3.50679348,24.972973 C3.07155707,24.972973 2.71875,24.6643541 2.71875,24.2837838 C2.71875,23.9032135 3.07155707,23.5945946 3.50679348,23.5945946 L20.0557065,23.5945946 C20.4908641,23.5945946 20.84375,23.9032135 20.84375,24.2837838 C20.84375,24.6643541 20.4908641,24.972973 20.0557065,24.972973 Z M20.0557065,22.2162162 L3.50679348,22.2162162 C3.07155707,22.2162162 2.71875,21.9075973 2.71875,21.527027 C2.71875,21.1464568 3.07155707,20.8378378 3.50679348,20.8378378 L20.0557065,20.8378378 C20.4908641,20.8378378 20.84375,21.1464568 20.84375,21.527027 C20.84375,21.9075973 20.4908641,22.2162162 20.0557065,22.2162162 Z M20.0557065,19.4594595 L3.50679348,19.4594595 C3.07155707,19.4594595 2.71875,19.1508405 2.71875,18.7702703 C2.71875,18.3897 3.07155707,18.0810811 3.50679348,18.0810811 L20.0557065,18.0810811 C20.4908641,18.0810811 20.84375,18.3897 20.84375,18.7702703 C20.84375,19.1508405 20.4908641,19.4594595 20.0557065,19.4594595 Z M20.0557065,16.7027027 L3.50679348,16.7027027 C3.07155707,16.7027027 2.71875,16.3941527 2.71875,16.0135135 C2.71875,15.6328743 3.07155707,15.3243243 3.50679348,15.3243243 L20.0557065,15.3243243 C20.4908641,15.3243243 20.84375,15.6328743 20.84375,16.0135135 C20.84375,16.3941527 20.4908641,16.7027027 20.0557065,16.7027027 Z M20.0557065,13.9459459 L3.50679348,13.9459459 C3.07155707,13.9459459 2.71875,13.6373959 2.71875,13.2567568 C2.71875,12.8761176 3.07155707,12.5675676 3.50679348,12.5675676 L20.0557065,12.5675676 C20.4908641,12.5675676 20.84375,12.8761176 20.84375,13.2567568 C20.84375,13.6373959 20.4908641,13.9459459 20.0557065,13.9459459 Z M10.5991848,11.1891892 L3.50679348,11.1891892 C3.07155707,11.1891892 2.71875,10.8806392 2.71875,10.5 C2.71875,10.1193608 3.07155707,9.81081081 3.50679348,9.81081081 L10.5991848,9.81081081 C11.0344212,9.81081081 11.3872283,10.1193608 11.3872283,10.5 C11.3872283,10.8806392 11.0344212,11.1891892 10.5991848,11.1891892 Z" id="Shape" fill="#999999"></path>
        </g>
        <g id="documents-copy-13" transform="translate(231.000000, 422.000000)" fill-rule="nonzero">
            <path d="M26.28125,8.91891892 L26.28125,33 L5.4375,33 L5.4375,30.2478764 C5.44431877,30.2396889 23.1728192,8.92978981 23.1818076,8.91891892 L26.28125,8.91891892 Z" id="Path" fill="#A4C2F7"></path>
            <path d="M23.5625,29.4324324 C22.8423,29.4324324 0.4424875,29.4324324 0,29.4324324 C0,27.7189403 0,2.92777954 0,1.78378378 L17.0625,1.78378378 L18.8229438,5.44834884 L23.5625,7.05019305 C23.5625,8.03573571 23.5625,28.3128597 23.5625,29.4324324 Z" id="Path" fill="#FFFFFF"></path>
            <polygon id="Path" fill="#A4C2F7" points="24.46875 6.24324324 18.125 6.24324324 18.125 0.891891892"></polygon>
            <path d="M23.6794355,30.3243243 L0.789314516,30.3243243 C0.353376109,30.3243243 0,30.0157054 0,29.6351351 L0,0.689189189 C0,0.30855 0.353376109,0 0.789314516,0 L17.3649194,0 C17.5742456,0 17.7749682,0.0726405405 17.9230436,0.201863514 L24.2375598,5.71537703 C24.3855563,5.8446 24.46875,6.01992973 24.46875,6.2027027 L24.46875,29.6351351 C24.46875,30.0157054 24.115295,30.3243243 23.6794355,30.3243243 Z M1.57862903,28.9459459 L22.890121,28.9459459 L22.890121,6.48816486 L17.0379064,1.37837838 L1.57862903,1.37837838 L1.57862903,28.9459459 Z" id="Shape" fill="#418CFE"></path>
            <path d="M24.9234429,6.875 L18.4009516,6.875 C17.9507366,6.875 17.5856401,6.56720625 17.5856401,6.1875 L17.5856401,0.6875 C17.5856401,0.30779375 17.9507366,0 18.4009516,0 C18.8511665,0 19.216263,0.30779375 19.216263,0.6875 L19.216263,5.5 L24.9234429,5.5 C25.3736579,5.5 25.7387543,5.80779375 25.7387543,6.1875 C25.7387543,6.56720625 25.3736579,6.875 24.9234429,6.875 Z M28.1846886,33 L6.25281142,33 C5.80251492,33 5.4375,32.6921375 5.4375,32.3125 L5.4375,29.5625 C5.4375,29.1828625 5.80251492,28.875 6.25281142,28.875 C6.70310792,28.875 7.06812284,29.1828625 7.06812284,29.5625 L7.06812284,31.625 L27.3693772,31.625 L27.3693772,8.9375 L24.9234429,8.9375 C24.4732279,8.9375 24.1081315,8.62970625 24.1081315,8.25 C24.1081315,7.87029375 24.4732279,7.5625 24.9234429,7.5625 L28.1846886,7.5625 C28.6349035,7.5625 29,7.87029375 29,8.25 L29,32.3125 C29,32.6921375 28.6349035,33 28.1846886,33 Z" id="Shape" fill="#418CFE"></path>
            <path d="M20.0557065,24.972973 L3.50679348,24.972973 C3.07155707,24.972973 2.71875,24.6643541 2.71875,24.2837838 C2.71875,23.9032135 3.07155707,23.5945946 3.50679348,23.5945946 L20.0557065,23.5945946 C20.4908641,23.5945946 20.84375,23.9032135 20.84375,24.2837838 C20.84375,24.6643541 20.4908641,24.972973 20.0557065,24.972973 Z M20.0557065,22.2162162 L3.50679348,22.2162162 C3.07155707,22.2162162 2.71875,21.9075973 2.71875,21.527027 C2.71875,21.1464568 3.07155707,20.8378378 3.50679348,20.8378378 L20.0557065,20.8378378 C20.4908641,20.8378378 20.84375,21.1464568 20.84375,21.527027 C20.84375,21.9075973 20.4908641,22.2162162 20.0557065,22.2162162 Z M20.0557065,19.4594595 L3.50679348,19.4594595 C3.07155707,19.4594595 2.71875,19.1508405 2.71875,18.7702703 C2.71875,18.3897 3.07155707,18.0810811 3.50679348,18.0810811 L20.0557065,18.0810811 C20.4908641,18.0810811 20.84375,18.3897 20.84375,18.7702703 C20.84375,19.1508405 20.4908641,19.4594595 20.0557065,19.4594595 Z M20.0557065,16.7027027 L3.50679348,16.7027027 C3.07155707,16.7027027 2.71875,16.3941527 2.71875,16.0135135 C2.71875,15.6328743 3.07155707,15.3243243 3.50679348,15.3243243 L20.0557065,15.3243243 C20.4908641,15.3243243 20.84375,15.6328743 20.84375,16.0135135 C20.84375,16.3941527 20.4908641,16.7027027 20.0557065,16.7027027 Z M20.0557065,13.9459459 L3.50679348,13.9459459 C3.07155707,13.9459459 2.71875,13.6373959 2.71875,13.2567568 C2.71875,12.8761176 3.07155707,12.5675676 3.50679348,12.5675676 L20.0557065,12.5675676 C20.4908641,12.5675676 20.84375,12.8761176 20.84375,13.2567568 C20.84375,13.6373959 20.4908641,13.9459459 20.0557065,13.9459459 Z M10.5991848,11.1891892 L3.50679348,11.1891892 C3.07155707,11.1891892 2.71875,10.8806392 2.71875,10.5 C2.71875,10.1193608 3.07155707,9.81081081 3.50679348,9.81081081 L10.5991848,9.81081081 C11.0344212,9.81081081 11.3872283,10.1193608 11.3872283,10.5 C11.3872283,10.8806392 11.0344212,11.1891892 10.5991848,11.1891892 Z" id="Shape" fill="#418CFE"></path>
        </g>
        <text id="HEAD" font-family="Helvetica-Bold, Helvetica" font-size="21" font-weight="bold" fill="#0055C2">
            <tspan x="113.748291" y="311">HEAD</tspan>
        </text>
        <text id="Working-Tree-Copy" font-family="Helvetica-Bold, Helvetica" font-size="21" font-weight="bold" fill="#0055C2">
            <tspan x="200.689697" y="311">Working </tspan>
            <tspan x="220.89502" y="336">Tree</tspan>
        </text>
        <text id="Stashed-items" font-family="Helvetica" font-size="21" font-weight="normal" fill="#0055C2">
            <tspan x="203.970947" y="550">Stashed </tspan>
            <tspan x="217.413818" y="575">items</tspan>
        </text>
        <g id="Group-5-Copy-7" transform="translate(242.500000, 385.500000) scale(1, -1) rotate(-90.000000) translate(-242.500000, -385.500000) translate(212.000000, 371.000000)" fill="#FFC159">
            <rect id="Rectangle" transform="translate(25.000000, 15.000000) rotate(-540.000000) translate(-25.000000, -15.000000) " x="0" y="7" width="50" height="16"></rect>
            <path d="M55.167545,8.59848863 L67.0541341,19.2554306 C67.4653484,19.6241055 67.4998334,20.2563307 67.1311585,20.667545 C66.9414746,20.8791155 66.6707405,21 66.3865891,21 L42.6134109,21 C42.0611262,21 41.6134109,20.5522847 41.6134109,20 C41.6134109,19.7158485 41.7342954,19.4451145 41.9458659,19.2554306 L53.832455,8.59848863 C54.2123261,8.25791456 54.7876739,8.25791456 55.167545,8.59848863 Z" id="Triangle-Copy" transform="translate(54.500000, 14.500000) scale(-1, 1) rotate(-450.000000) translate(-54.500000, -14.500000) "></path>
        </g>
        <text id="$-git-stash" font-family="Helvetica-Bold, Helvetica" font-size="21" font-weight="bold" fill="#0055C2">
            <tspan x="190.569092" y="393">$ git stash</tspan>
        </text>
        <g id="Rectangle-Copy-48" transform="translate(102.500000, 408.500000) scale(1, -1) rotate(-90.000000) translate(-102.500000, -408.500000) ">
            <use fill="black" fill-opacity="1" filter="url(#filter-7)" xlink:href="#path-6"></use>
            <use stroke="#0055C2" stroke-width="1" fill="#FFFFFF" fill-rule="evenodd" xlink:href="#path-6"></use>
        </g>
        <text id="Stash-makes-Working" font-family="Helvetica" font-size="21" font-weight="normal" fill="#0055C2">
            <tspan x="29.3071289" y="391">Stash makes </tspan>
            <tspan x="51.6760254" y="416">Working </tspan>
            <tspan x="40.776123" y="441">Tree clean</tspan>
        </text>
        <g id="trial-copy" transform="translate(4.000000, 570.000000)" fill="#006AE1" fill-rule="nonzero">
            <path d="M24.7390408,0.0712262435 C23.8197062,-0.175854327 23.1591603,0.239201967 22.6859188,1.01735927 C22.6046689,1.15134921 22.52713,1.31717641 22.4478332,1.49316028 C22.1428011,1.2575123 21.7678493,1.130415 21.3824051,1.13201247 C21.3529129,1.13201247 21.3224442,1.13259843 21.2931474,1.134161 L15.1740157,1.4288998 C14.9503832,1.43964243 14.7687429,1.47870655 14.6234306,1.53906062 C14.2647714,1.59678794 13.9347315,1.76994119 13.6833929,2.03224516 L0.468959043,15.8746167 C-0.17420408,16.5457384 -0.153305673,17.6121889 0.516224599,18.2565516 L7.02930103,24.5302495 C7.34177077,24.8320424 7.7593469,25.0004949 8.19375245,25 C8.63515806,25 9.07597773,24.8259649 9.40566475,24.4831773 L22.6199033,10.6400244 C23.0124808,10.2306324 23.3675584,9.67455464 23.2691211,9.15636906 C23.2718554,9.11457045 23.2687304,9.07296716 23.2691211,9.02804342 L23.1146291,2.88735879 C23.1183122,2.59624806 23.0497989,2.30876172 22.9152153,2.0506053 C23.3099413,1.28006549 23.6851361,0.550347698 24.542752,0.780630696 C25.0023217,0.904854604 25.1966573,0.194082907 24.7390408,0.0712262435 Z M8.52812889,13.4245632 L9.32781975,14.170287 L8.29716074,16.7269943 L10.7727157,15.5176743 L11.5754357,16.2662228 L7.51909394,18.1808206 L6.90418013,17.6074042 L8.52812889,13.4245632 Z M10.8555796,8.86713434 L14.7160332,15.2007265 L13.8468014,16.1328635 L9.99486962,9.79013275 L10.8555796,8.86713434 Z M17.1802579,6.51873344 L17.7982008,7.09497455 L16.1742521,11.2778156 L15.3745612,10.5320918 L16.4052202,7.97538454 L13.9296652,9.1847045 L13.1269453,8.43615601 L17.1802579,6.51873344 Z M21.1763507,2.2398705 C21.4058425,2.2398705 21.6355297,2.32542139 21.8136544,2.49691289 C21.8259591,2.50882745 21.8343575,2.52289053 21.8460763,2.53539105 C21.6548656,2.73520403 21.419905,2.85845134 21.1132648,2.82387959 C20.6425624,2.7709477 20.6474452,3.50808768 21.1132648,3.56062893 C21.5214674,3.60652927 21.8320138,3.4873837 22.0857244,3.27643744 C22.062433,3.47297911 21.9760108,3.65665988 21.8394357,3.79989667 C21.6663502,3.98098016 21.4266486,4.08326003 21.1761554,4.0829171 C20.9384391,4.08306483 20.7099506,3.99090921 20.5388516,3.82587432 C20.1727885,3.47281343 20.1612599,2.89015669 20.5130704,2.52289053 C20.686209,2.34188379 20.9258761,2.23961864 21.1763507,2.2398705 Z" id="Shape"></path>
        </g>
    </g>
</svg>