<?xml version="1.0" encoding="UTF-8"?>
<svg width="800px" height="600px" viewBox="0 0 800 600" version="1.1" xmlns="http://www.w3.org/2000/svg" xmlns:xlink="http://www.w3.org/1999/xlink">
    <title>2041-10-13-15-10_GitHubAccessAuthenticationSettings</title>
    <defs>
        <path d="M8.68744595,14.5405413 C10.6544909,13.5649687 12,11.5915112 12,9.31636202 C12,6.07252388 9.26504479,3.44227578 5.89152197,3.44227578 C4.52034181,3.44227578 3.25480793,3.87689217 2.23537065,4.61058921 L2.23537065,1.05770107 C2.23537065,0.476155373 1.74046224,0 1.11695169,0 C0.493934821,0 0.0167986821,0.476630104 0.0167986821,1.05770107 L0.0167986821,1.80184219 L0,9.32158406 C-0.0041824725,11.2003327 0.951817666,12.865215 2.41753644,13.8939574 C2.4777647,13.9362085 2.55848043,13.9312238 2.6127846,13.8823265 C2.66758244,13.8334292 2.6779496,13.7558106 2.63746831,13.6950451 C0.724974359,10.8146136 1.16014819,5.53963813 5.89176881,5.53963813 C8.05899866,5.53963813 9.80709909,7.22944376 9.81623206,9.31351363 C9.82240299,10.8599505 9.11620201,12.0365717 8.19549958,12.7781018 C6.36026565,14.2561773 3.64974731,12.6382934 4.49738595,10.4697214 C4.5894562,10.2335427 4.71879884,9.9959397 4.88664808,9.76189723 L5.12361171,9.47705853 C5.19766284,9.39967734 5.25048599,9.29903433 5.2146946,9.19411874 C5.01401603,8.62800181 3.46832203,8.97526767 3.04005964,10.0315445 C3.34292878,9.79631524 3.65986763,9.66433998 3.96940137,9.71489885 C2.38890334,11.275815 3.44141679,13.9563846 5.46005069,14.7513219 C6.40494316,15.1232738 7.55964718,15.0976383 8.68744595,14.5405413" id="path-1"></path>
        <linearGradient x1="28.568518%" y1="104.445731%" x2="78.3472072%" y2="20.6880271%" id="linearGradient-3">
            <stop stop-color="#000F98" offset="0%"></stop>
            <stop stop-color="#00A5FD" offset="100%"></stop>
        </linearGradient>
        <linearGradient x1="79.1204986%" y1="0%" x2="20.8795014%" y2="100%" id="linearGradient-4">
            <stop stop-color="#00C6FF" offset="0.0491695804%"></stop>
            <stop stop-color="#079DC2" offset="100%"></stop>
        </linearGradient>
        <linearGradient x1="79.1204986%" y1="0%" x2="20.8795014%" y2="100%" id="linearGradient-5">
            <stop stop-color="#00A5FF" offset="0.0491695804%"></stop>
            <stop stop-color="#0755C2" offset="100%"></stop>
        </linearGradient>
    </defs>
    <g id="2041-10-13-15-10_GitHubAccessAuthenticationSettings" stroke="none" stroke-width="1" fill="none" fill-rule="evenodd">
        <rect fill="#FFFFFF" x="0" y="0" width="800" height="600"></rect>
        <rect id="Rectangle" stroke="#0055C2" fill="#0055C2" x="319.5" y="163.5" width="164" height="133" rx="6"></rect>
        <rect id="Rectangle-Copy" stroke="#0055C2" fill="#0055C2" x="319.5" y="343.5" width="164" height="133" rx="6"></rect>
        <g id="bloovee-winner-logo" transform="translate(725.000000, 580.000000)">
            <path d="M13,13.7751507 C13,14.396312 13.4732558,14.8717809 14.0514961,14.8717809 C14.6474304,14.8717809 15.1204503,14.3968042 15.1204503,13.7751507 L15.1204503,2.09687626 C15.1204503,1.49368045 14.6474304,1 14.0514961,1 C13.4557977,1 13,1.49392656 13,2.09687626 L13,13.7751507 Z M21.7920364,15 C24.6483217,15 26.751078,12.7149437 26.751078,9.97312215 L26.751078,9.93645297 C26.751078,7.17641992 24.6657798,4.92778666 21.8269526,4.92778666 C18.9881254,4.92778666 16.885369,7.212843 16.885369,9.97312215 L16.885369,10.0095452 C16.885369,12.7516128 18.9706673,15 21.7920364,15 Z M21.8269526,13.0621935 C20.179994,13.0621935 19.0055834,11.6547366 19.0055834,9.97312215 L19.0055834,9.93645297 C19.0055834,8.25459244 20.0919958,6.86534709 21.7920364,6.86534709 C23.456689,6.86534709 24.6306277,8.27305008 24.6306277,9.97312215 L24.6306277,10.0095452 C24.6306277,11.6731942 23.5444513,13.0621935 21.8269526,13.0621935 Z M32.8092717,15 C35.665557,15 37.7683133,12.7149437 37.7683133,9.97312215 L37.7683133,9.93645297 C37.7683133,7.17641992 35.6830151,4.92778666 32.8441878,4.92778666 C30.0053606,4.92778666 27.9026043,7.212843 27.9026043,9.97312215 L27.9026043,10.0095452 C27.9026043,12.7516128 29.9879025,15 32.8092717,15 Z M32.8441878,13.0621935 C31.1969933,13.0621935 30.0228187,11.6547366 30.0228187,9.97312215 L30.0228187,9.93645297 C30.0228187,8.25459244 31.109231,6.86534709 32.8092717,6.86534709 C34.4739243,6.86534709 35.647863,8.27305008 35.647863,9.97312215 L35.647863,10.0095452 C35.647863,11.6731942 34.5614506,13.0621935 32.8441878,13.0621935 Z M44.1416963,13.9944275 L47.2261164,6.6096472 C47.2784906,6.49988574 47.3487948,6.28060893 47.3487948,6.07954366 C47.3487948,5.47610175 46.8929971,5.01933658 46.3147568,5.01933658 C45.7539746,5.01933658 45.4737015,5.40300947 45.3158709,5.78692847 L42.8976893,12.2215093 L40.5144239,5.82335156 C40.3393711,5.36634029 40.041404,5.01933658 39.4629278,5.01933658 C38.8846875,5.01933658 38.4116676,5.53098247 38.4116676,6.07954366 C38.4116676,6.28060893 38.4817358,6.46346265 38.534346,6.62785874 L41.6182943,13.9944275 C41.8638872,14.5796579 42.2491448,14.9633308 42.8273851,14.9633308 L42.9326055,14.9633308 C43.5108458,14.9633308 43.8965752,14.5612003 44.1416963,13.9944275 Z M50.0949054,9.27837643 C50.2876522,7.77961573 51.1987758,6.73762019 52.4956289,6.73762019 C53.8974665,6.73762019 54.7036056,7.8524619 54.8437422,9.27837643 L50.0949054,9.27837643 Z M56.070527,13.72027 C56.2281217,13.5558739 56.3508002,13.3181395 56.3508002,13.0439819 C56.3508002,12.5320899 55.9830006,12.1481709 55.5095089,12.1481709 C55.2641519,12.1481709 55.1242513,12.2215093 54.9664207,12.3492362 C54.3704864,12.8611282 53.6695676,13.1901665 52.7759021,13.1901665 C51.4089807,13.1901665 50.3402624,12.3128131 50.1123635,10.7409601 L55.9126964,10.7409601 C56.4560206,10.7409601 56.9115824,10.3021604 56.9115824,9.68050697 C56.9115824,7.45057746 55.4568987,4.92778666 52.513087,4.92778666 C49.8672425,4.92778666 47.9919132,7.19438536 47.9919132,9.95466451 L47.9919132,9.9913337 C47.9919132,12.9708897 50.0597533,15 52.7409859,15 C54.1779755,15 55.2292357,14.5063195 56.070527,13.72027 Z M60.1833231,9.27837643 C60.3763058,7.77961573 61.2871935,6.73762019 62.5842825,6.73762019 C63.9858841,6.73762019 64.7920233,7.8524619 64.9321598,9.27837643 L60.1833231,9.27837643 Z M66.1589447,13.72027 C66.3167752,13.5558739 66.4394537,13.3181395 66.4394537,13.0439819 C66.4394537,12.5320899 66.0714183,12.1481709 65.5981624,12.1481709 C65.3528055,12.1481709 65.2126689,12.2215093 65.0548383,12.3492362 C64.4591399,12.8611282 63.7582212,13.1901665 62.8643197,13.1901665 C61.4976342,13.1901665 60.4289159,12.3128131 60.2007812,10.7409601 L66.0011141,10.7409601 C66.5444382,10.7409601 67,10.3021604 67,9.68050697 C67,7.45057746 65.5455522,4.92778666 62.6015046,4.92778666 C59.9556601,4.92778666 58.0805667,7.19438536 58.0805667,9.95466451 L58.0805667,9.9913337 C58.0805667,12.9708897 60.1484069,15 62.8294035,15 C64.2663932,15 65.3178893,14.5063195 66.1589447,13.72027 L66.1589447,13.72027 Z" id="Fill-1" fill="#030060"></path>
            <g id="Group-4">
                <mask id="mask-2" fill="white">
                    <use xlink:href="#path-1"></use>
                </mask>
                <g id="Clip-3"></g>
                <path d="M8.68744595,14.5405413 C10.6544909,13.5649687 12,11.5915112 12,9.31636202 C12,6.07252388 9.26504479,3.44227578 5.89152197,3.44227578 C4.52034181,3.44227578 3.25480793,3.87689217 2.23537065,4.61058921 L2.23537065,1.05770107 C2.23537065,0.476155373 1.74046224,0 1.11695169,0 C0.493934821,0 0.0167986821,0.476630104 0.0167986821,1.05770107 L0.0167986821,1.80184219 L0,9.32158406 C-0.0041824725,11.2003327 0.951817666,12.865215 2.41753644,13.8939574 C2.4777647,13.9362085 2.55848043,13.9312238 2.6127846,13.8823265 C2.66758244,13.8334292 2.6779496,13.7558106 2.63746831,13.6950451 C0.724974359,10.8146136 1.16014819,5.53963813 5.89176881,5.53963813 C8.05899866,5.53963813 9.80709909,7.22944376 9.81623206,9.31351363 C9.82240299,10.8599505 9.11620201,12.0365717 8.19549958,12.7781018 C6.36026565,14.2561773 3.64974731,12.6382934 4.49738595,10.4697214 C4.5894562,10.2335427 4.71879884,9.9959397 4.88664808,9.76189723 L5.12361171,9.47705853 C5.19766284,9.39967734 5.25048599,9.29903433 5.2146946,9.19411874 C5.01401603,8.62800181 3.46832203,8.97526767 3.04005964,10.0315445 C3.34292878,9.79631524 3.65986763,9.66433998 3.96940137,9.71489885 C2.38890334,11.275815 3.44141679,13.9563846 5.46005069,14.7513219 C6.40494316,15.1232738 7.55964718,15.0976383 8.68744595,14.5405413" id="Fill-2" fill="url(#linearGradient-3)" mask="url(#mask-2)"></path>
            </g>
        </g>
        <g id="github-copy" transform="translate(748.000000, 3.000000)" fill="#000000" fill-rule="nonzero">
            <path d="M22.9998956,0 C11.7204239,0.000469179946 2.10590223,8.20619911 0.299077857,19.3745239 C-1.50774651,30.5428487 5.02642435,41.3773525 15.7268887,44.9558377 C16.8767785,45.1577383 17.3079872,44.4656891 17.3079872,43.8600567 C17.3079872,43.3121892 17.279217,41.4954764 17.279217,39.5634644 C11.5009978,40.6303861 10.0061411,38.1505528 9.54618516,36.8529173 C9.03580825,35.5908656 8.22674528,34.472458 7.1889111,33.5943411 C6.38398825,33.161796 5.23409847,32.0948512 7.16014086,32.066061 C8.65271236,32.2285228 9.97246422,33.1110528 10.6960749,34.4305721 C11.3313462,35.5753322 12.3946869,36.4194146 13.6513665,36.7764896 C14.9080461,37.1335647 16.2547288,36.9742705 17.3941369,36.3337708 C17.4936968,35.160991 18.0147545,34.0644705 18.8602924,33.2483742 C13.7432829,32.6716473 8.39629538,30.6818473 8.39629538,21.8580182 C8.36397821,19.5652878 9.20739391,17.3470389 10.7535694,15.6582042 C10.0504849,13.6655423 10.1327507,11.4787423 10.9835474,9.54489918 C10.9835474,9.54489918 12.9095438,8.93931288 17.3079412,11.9094794 C21.0710431,10.8713094 25.0437372,10.8713094 28.806839,11.9094794 C33.2051215,8.9104996 35.1312329,9.54489918 35.1312329,9.54489918 C35.982145,11.4787155 36.0644125,13.6655602 35.3612108,15.6582042 C36.9120423,17.3441484 37.7561944,19.564334 37.7184849,21.8580182 C37.7184849,30.7107067 32.3427041,32.6716473 27.2257406,33.2483742 C28.336287,34.3774629 28.9028084,35.9349635 28.7780918,37.5161532 C28.7780918,40.6016882 28.7493216,43.0815215 28.7493216,43.8601489 C28.7493216,44.4657352 29.1805302,45.1866208 30.33042,44.95593 C41.0111617,41.3485442 47.5153422,30.5121007 45.6961446,19.3555019 C43.876947,8.19890308 34.2698179,0.00588375885 22.9998956,0 Z" id="Path"></path>
        </g>
        <text id="GitHub-Access-Authen" fill-rule="nonzero" font-family="Helvetica" font-size="18" font-weight="normal" fill="#0055C2">
            <tspan x="10" y="23">GitHub Access Authentication Settings</tspan>
        </text>
        <text id="Remote-Repository" font-family="Helvetica" font-size="21" font-weight="normal" fill="#199ABD">
            <tspan x="68.6296387" y="206">Remote Repository</tspan>
        </text>
        <text id="Local-Repository" font-family="Helvetica" font-size="21" font-weight="normal" fill="#0055C2">
            <tspan x="80.0598505" y="445">Local Repository</tspan>
        </text>
        <text id="Communication-Protoc" font-family="Helvetica-Bold, Helvetica" font-size="21" font-weight="bold" fill="#0055C2">
            <tspan x="322.165527" y="116">Communication</tspan>
            <tspan x="358.915527" y="141">Protocol</tspan>
        </text>
        <path d="M385.414,388.588 C387.661,388.588 389.32,388.063 390.433,386.992 C391.294,386.131 391.756,384.913 391.756,383.422 C391.756,381.847 391.21,380.692 390.013,379.81 C389.257,379.285 388.249,378.886 386.59,378.529 C384.67525,378.09775 384.219973,377.992402 383.862366,377.863775 L383.770397,377.829462 C383.724625,377.811812 383.6785,377.79325 383.629,377.773 C382.663,377.353 382.201,376.744 382.201,375.862 C382.201,374.497 383.44,373.573 385.267,373.573 C386.422,373.573 387.346,373.93 387.892,374.581 C388.249,375.001 388.396,375.358 388.522,376.072 L391.525,375.715 C391.273,374.602 391.021,373.972 390.496,373.279 C389.467,371.893 387.661,371.158 385.267,371.158 C381.655,371.158 379.303,373.048 379.303,375.967 C379.303,377.374 379.849,378.529 380.92,379.369 C381.676,379.957 382.516,380.293 384.091,380.65 C386.989,381.322 387.115,381.343 387.745,381.679 C388.396,382.036 388.795,382.75 388.795,383.611 C388.795,385.186 387.535,386.131 385.435,386.131 C384.07,386.131 382.978,385.69 382.369,384.892 C381.991,384.409 381.865,383.989 381.781,383.044 L378.757,383.359 C378.883,384.22 378.967,384.619 379.156,385.102 C379.555,386.131 380.164,386.929 381.004,387.496 C382.012,388.168 383.692,388.588 385.414,388.588 Z M400.429,388.588 C402.676,388.588 404.335,388.063 405.448,386.992 C406.309,386.131 406.771,384.913 406.771,383.422 C406.771,381.847 406.225,380.692 405.028,379.81 C404.272,379.285 403.264,378.886 401.605,378.529 C399.69025,378.09775 399.234973,377.992402 398.877366,377.863775 L398.785397,377.829462 C398.739625,377.811812 398.6935,377.79325 398.644,377.773 C397.678,377.353 397.216,376.744 397.216,375.862 C397.216,374.497 398.455,373.573 400.282,373.573 C401.437,373.573 402.361,373.93 402.907,374.581 C403.264,375.001 403.411,375.358 403.537,376.072 L406.54,375.715 C406.288,374.602 406.036,373.972 405.511,373.279 C404.482,371.893 402.676,371.158 400.282,371.158 C396.67,371.158 394.318,373.048 394.318,375.967 C394.318,377.374 394.864,378.529 395.935,379.369 C396.691,379.957 397.531,380.293 399.106,380.65 C402.004,381.322 402.13,381.343 402.76,381.679 C403.411,382.036 403.81,382.75 403.81,383.611 C403.81,385.186 402.55,386.131 400.45,386.131 C399.085,386.131 397.993,385.69 397.384,384.892 C397.006,384.409 396.88,383.989 396.796,383.044 L393.772,383.359 C393.898,384.22 393.982,384.619 394.171,385.102 C394.57,386.131 395.179,386.929 396.019,387.496 C397.027,388.168 398.707,388.588 400.429,388.588 Z M412.462,388.252 C412.336,387.391 412.294,386.761 412.294,385.543 L412.294,380.797 L420.736,380.797 L420.736,385.543 C420.736,386.782 420.694,387.433 420.568,388.252 L423.697,388.252 C423.571,387.37 423.529,386.761 423.529,385.543 L423.529,374.224 C423.529,373.027 423.571,372.397 423.697,371.536 L420.568,371.536 C420.694,372.292 420.736,373.048 420.736,374.245 L420.736,378.277 L412.294,378.277 L412.294,374.224 C412.294,373.111 412.336,372.418 412.462,371.536 L409.333,371.536 C409.459,372.355 409.501,373.006 409.501,374.245 L409.501,385.543 C409.501,386.782 409.459,387.454 409.333,388.252 L412.462,388.252 Z" id="SSH" fill="#FFFFFF" fill-rule="nonzero"></path>
        <path d="M368.085,205.252 C367.959,204.391 367.917,203.761 367.917,202.543 L367.917,197.797 L376.359,197.797 L376.359,202.543 C376.359,203.782 376.317,204.433 376.191,205.252 L379.32,205.252 C379.194,204.37 379.152,203.761 379.152,202.543 L379.152,191.224 C379.152,190.027 379.194,189.397 379.32,188.536 L376.191,188.536 C376.317,189.292 376.359,190.048 376.359,191.245 L376.359,195.277 L367.917,195.277 L367.917,191.224 C367.917,190.111 367.959,189.418 368.085,188.536 L364.956,188.536 C365.082,189.355 365.124,190.006 365.124,191.245 L365.124,202.543 C365.124,203.782 365.082,204.454 364.956,205.252 L368.085,205.252 Z M389.841,205.252 C389.715,204.391 389.673,203.656 389.673,202.522 L389.673,191.056 L392.298,191.056 C393.81,191.056 394.608,191.098 395.385,191.203 L395.385,188.389 C394.6402,188.487 393.913693,188.53012 392.590824,188.535434 L383.982,188.536 C382.785,188.536 381.882,188.494 381.126,188.389 L381.126,191.203 C381.861,191.098 382.764,191.056 384.003,191.056 L386.838,191.056 L386.838,202.522 C386.838,203.656 386.796,204.37 386.67,205.252 L389.841,205.252 Z M404.73,205.252 C404.604,204.391 404.562,203.656 404.562,202.522 L404.562,191.056 L407.187,191.056 C408.699,191.056 409.497,191.098 410.274,191.203 L410.274,188.389 C409.5292,188.487 408.802693,188.53012 407.479824,188.535434 L398.871,188.536 C397.674,188.536 396.771,188.494 396.015,188.389 L396.015,191.203 C396.75,191.098 397.653,191.056 398.892,191.056 L401.727,191.056 L401.727,202.522 C401.727,203.656 401.685,204.37 401.559,205.252 L404.73,205.252 Z M415.188,205.252 C415.062,204.454 415.02,203.656 415.02,202.522 L415.02,199.015 L419.031,199.015 C421.047,199.015 422.475,198.532 423.504,197.503 C424.428,196.537 424.911,195.235 424.911,193.639 C424.911,192.127 424.47,190.867 423.609,190.027 C422.601,189.019 421.173,188.536 419.136,188.536 L414.747,188.536 C413.634,188.536 412.983,188.515 412.08,188.473 C412.206,189.418 412.248,190.174 412.248,191.182 L412.248,202.543 C412.248,203.677 412.206,204.412 412.08,205.252 L415.188,205.252 Z M419.031,196.6 L415.02,196.6 L415.02,190.951 L419.031,190.951 C420.144,190.951 420.837,191.182 421.32,191.707 C421.782,192.19 422.013,192.883 422.013,193.723 C422.013,195.571 420.963,196.6 419.031,196.6 Z M433.122,205.588 C435.369,205.588 437.028,205.063 438.141,203.992 C439.002,203.131 439.464,201.913 439.464,200.422 C439.464,198.847 438.918,197.692 437.721,196.81 C436.965,196.285 435.957,195.886 434.298,195.529 C432.38325,195.09775 431.927973,194.992402 431.570366,194.863775 L431.478397,194.829462 C431.432625,194.811812 431.3865,194.79325 431.337,194.773 C430.371,194.353 429.909,193.744 429.909,192.862 C429.909,191.497 431.148,190.573 432.975,190.573 C434.13,190.573 435.054,190.93 435.6,191.581 C435.957,192.001 436.104,192.358 436.23,193.072 L439.233,192.715 C438.981,191.602 438.729,190.972 438.204,190.279 C437.175,188.893 435.369,188.158 432.975,188.158 C429.363,188.158 427.011,190.048 427.011,192.967 C427.011,194.374 427.557,195.529 428.628,196.369 C429.384,196.957 430.224,197.293 431.799,197.65 C434.697,198.322 434.823,198.343 435.453,198.679 C436.104,199.036 436.503,199.75 436.503,200.611 C436.503,202.186 435.243,203.131 433.143,203.131 C431.778,203.131 430.686,202.69 430.077,201.892 C429.699,201.409 429.573,200.989 429.489,200.044 L426.465,200.359 C426.591,201.22 426.675,201.619 426.864,202.102 C427.263,203.131 427.872,203.929 428.712,204.496 C429.72,205.168 431.4,205.588 433.122,205.588 Z" id="HTTPS" fill="#FFFFFF" fill-rule="nonzero"></path>
        <text id="Account-Verification" font-family="Helvetica-Bold, Helvetica" font-size="21" font-weight="bold" fill="#0055C2">
            <tspan x="559.5" y="116">Account </tspan>
            <tspan x="544.893311" y="141">Verification</tspan>
        </text>
        <text id="Secret-Key-&amp;-Public" font-family="Helvetica-Bold, Helvetica" font-size="21" font-weight="bold" fill="#0055C2">
            <tspan x="547.21582" y="388">Secret Key</tspan>
            <tspan x="593.917236" y="413">&amp; </tspan>
            <tspan x="547.815674" y="438">Public Key</tspan>
        </text>
        <text id="Username-&amp;-Personal" font-family="Helvetica-Bold, Helvetica" font-size="21" font-weight="bold" fill="#0055C2">
            <tspan x="550.722656" y="200">Username </tspan>
            <tspan x="593.917236" y="225">&amp; </tspan>
            <tspan x="517.833252" y="250">Personal Access </tspan>
            <tspan x="541.991455" y="275">Token (PAT)</tspan>
        </text>
        <line x1="319.5" y1="151.5" x2="701.5" y2="151.5" id="Line-20" stroke="#0055C2" stroke-linecap="square"></line>
        <g id="Group-7" transform="translate(95.000000, 234.000000)">
            <g id="Group-Copy-5" transform="translate(69.000000, 0.000000)" fill-rule="nonzero">
                <path d="M57.6911775,9.07879961 C55.5218461,3.10474347 42.1938309,0 29.0143999,0 C15.834969,0 2.65553811,3.07531462 0.36733928,8.99051307 C0.134458527,9.33976784 0.0104453699,9.74913852 0.0107368653,10.167667 L0.0107368653,64.5080348 C-0.00357895511,64.6253234 -0.00357895511,64.7438925 0.0107368653,64.861181 C0.00354343864,64.9640588 0.00354343864,65.0673061 0.0107368653,65.1701839 C0.0107368653,72.2772507 14.601719,76 29.0143999,76 C43.4270809,76 57.9883461,72.2772507 57.9883461,65.1701839 C57.9955336,65.0722169 57.9955336,64.9738625 57.9883461,64.8758955 C58.0038846,64.753758 58.0038846,64.6301723 57.9883461,64.5080348 L57.9883461,10.167667 C57.9959322,9.78410264 57.89284,9.40635843 57.6911775,9.07879961 Z" id="Path" fill="url(#linearGradient-4)"></path>
                <path d="M28.9972869,0 C47.778416,0 57.9859333,5.31225296 57.9859333,8.04216074 C58.0046889,8.12711276 58.0046889,8.21544323 57.9859333,8.30039526 C57.3710226,11.1040843 47.1459364,16.1212121 28.9972869,16.1212121 C10.8486373,16.1212121 0.623551132,11.0487484 0.00864045047,8.30039526 C-0.00288015016,8.23330318 -0.00288015016,8.16458878 0.00864045047,8.09749671 C0.00864045047,5.31225296 10.2161578,0 28.9972869,0 Z" id="Path" fill="#199ABD"></path>
            </g>
            <polyline id="Path-11-Copy" stroke="#FFAA1D" points="55 114 65.6621313 78.0485059 65.6621313 96.024253 74.7247562 69.0206523 74.7247562 91.5103261 83 56"></polyline>
            <g id="Group-Copy-2" transform="translate(0.000000, 93.000000)" fill-rule="nonzero">
                <path d="M57.6911775,9.07879961 C55.5218461,3.10474347 42.1938309,0 29.0143999,0 C15.834969,0 2.65553811,3.07531462 0.36733928,8.99051307 C0.134458527,9.33976784 0.0104453699,9.74913852 0.0107368653,10.167667 L0.0107368653,64.5080348 C-0.00357895511,64.6253234 -0.00357895511,64.7438925 0.0107368653,64.861181 C0.00354343864,64.9640588 0.00354343864,65.0673061 0.0107368653,65.1701839 C0.0107368653,72.2772507 14.601719,76 29.0143999,76 C43.4270809,76 57.9883461,72.2772507 57.9883461,65.1701839 C57.9955336,65.0722169 57.9955336,64.9738625 57.9883461,64.8758955 C58.0038846,64.753758 58.0038846,64.6301723 57.9883461,64.5080348 L57.9883461,10.167667 C57.9959322,9.78410264 57.89284,9.40635843 57.6911775,9.07879961 Z" id="Path" fill="url(#linearGradient-5)"></path>
                <path d="M28.9972869,0 C47.778416,0 57.9859333,5.31225296 57.9859333,8.04216074 C58.0046889,8.12711276 58.0046889,8.21544323 57.9859333,8.30039526 C57.3710226,11.1040843 47.1459364,16.1212121 28.9972869,16.1212121 C10.8486373,16.1212121 0.623551132,11.0487484 0.00864045047,8.30039526 C-0.00288015016,8.23330318 -0.00288015016,8.16458878 0.00864045047,8.09749671 C0.00864045047,5.31225296 10.2161578,0 28.9972869,0 Z" id="Path" fill="#0055C2"></path>
            </g>
        </g>
        <g id="https" transform="translate(381.000000, 229.000000)" fill="#FFFFFF" fill-rule="nonzero">
            <path d="M29.5684234,20.6851412 C29.5677701,21.2844834 29.0876017,21.7701948 28.4950524,21.7709028 L28.3087621,21.7709028 L28.3087621,19.5410532 L28.4950524,19.5410532 C29.0443548,19.5410532 29.5684234,19.9645833 29.5684234,20.6851412 Z M1.35483871,10.962963 L40.6451613,10.962963 C41.393418,10.962963 42,11.5764987 42,12.3333333 L42,32.8888889 C42,35.1593929 40.1802541,37 37.9354839,37 L4.06451613,37 C1.81974586,37 0,35.1593929 0,32.8888889 L0,12.3333333 C0,11.5764987 0.606581952,10.962963 1.35483871,10.962963 Z M8.38306452,18.1706829 C8.38306452,17.4138482 7.77648256,16.8003125 7.02822581,16.8003125 C6.27996905,16.8003125 5.6733871,17.4138482 5.6733871,18.1706829 L5.6733871,20.6412037 L4.48790323,20.6412037 L4.48790323,18.1706829 C4.48790323,17.4138482 3.88132127,16.8003125 3.13306452,16.8003125 C2.38480776,16.8003125 1.77822581,17.4138482 1.77822581,18.1706829 L1.77822581,25.8524653 C1.77822581,26.6092999 2.38480776,27.2228356 3.13306452,27.2228356 C3.88132127,27.2228356 4.48790323,26.6092999 4.48790323,25.8524653 L4.48790323,23.3819444 L5.6733871,23.3819444 L5.6733871,25.8524653 C5.6733871,26.6092999 6.27996905,27.2228356 7.02822581,27.2228356 C7.77648256,27.2228356 8.38306452,26.6092999 8.38306452,25.8524653 L8.38306452,18.1706829 Z M16.4274194,18.1574074 C16.4274194,17.4005728 15.8208374,16.787037 15.0725806,16.787037 L11.0080645,16.787037 C10.2598078,16.787037 9.65322581,17.4005728 9.65322581,18.1574074 C9.65322581,18.9142421 10.2598078,19.5277778 11.0080645,19.5277778 L11.6854839,19.5277778 L11.6854839,25.8657407 C11.6854839,26.6225754 12.2920658,27.2361111 13.0403226,27.2361111 C13.7885793,27.2361111 14.3951613,26.6225754 14.3951613,25.8657407 L14.3951613,19.5277778 L15.0725806,19.5277778 C15.8208374,19.5277778 16.4274194,18.9142421 16.4274194,18.1574074 Z M24.3870968,18.1574074 C24.3870968,17.4005728 23.7805148,16.787037 23.0322581,16.787037 L18.9677419,16.787037 C18.2194852,16.787037 17.6129032,17.4005728 17.6129032,18.1574074 C17.6129032,18.9142421 18.2194852,19.5277778 18.9677419,19.5277778 L19.6451613,19.5277778 L19.6451613,25.8657407 C19.6451613,26.6225754 20.2517432,27.2361111 21,27.2361111 C21.7482568,27.2361111 22.3548387,26.6225754 22.3548387,25.8657407 L22.3548387,19.5277778 L23.0322581,19.5277778 C23.7805148,19.5277778 24.3870968,18.9142421 24.3870968,18.1574074 Z M28.4950524,16.8003125 L26.9539234,16.8003125 C26.2056666,16.8003125 25.5990847,17.4138482 25.5990847,18.1706829 L25.5990847,25.8524653 C25.5990847,26.6092999 26.2056666,27.2228356 26.9539234,27.2228356 C27.7021801,27.2228356 28.3087621,26.6092999 28.3087621,25.8524653 L28.3087621,24.5116435 C30.7969234,24.5116435 32.2782702,22.6380903 32.2782702,20.6851412 C32.2781008,18.4212037 30.5076653,16.8003125 28.4950524,16.8003125 Z M36.3266129,20.0809792 C36.3271256,19.7831906 36.5656672,19.5419144 36.8600806,19.5413958 L38.8669355,19.5413958 C39.6151922,19.5413958 40.2217742,18.9278601 40.2217742,18.1710255 C40.2217742,17.4141908 39.6151922,16.8006551 38.8669355,16.8006551 L36.8600806,16.8006551 C35.9966629,16.8015085 35.1691504,17.1502234 34.5605394,17.7696849 C33.9519284,18.3891465 33.6123633,19.2283164 33.6168899,20.1016204 C33.6168899,21.7912014 34.9125,23.3819444 36.978629,23.3819444 C37.2744045,23.3884106 37.5108422,23.6327837 37.5108422,23.9320197 C37.5108422,24.2312557 37.2744045,24.4756287 36.978629,24.4820949 L34.9717742,24.4820949 C34.2235174,24.4820949 33.6168899,25.0956306 33.6168899,25.8524653 C33.6168899,26.6092999 34.2235174,27.2228356 34.9717742,27.2228356 L36.978629,27.2228356 C38.7688595,27.2206177 40.2195813,25.753265 40.2217742,23.9425116 C40.2217742,22.2 38.9033468,20.6412037 36.8600806,20.6412037 C36.7150785,20.6410214 36.5763724,20.5812576 36.4757824,20.4756223 C36.3751924,20.3699871 36.3213521,20.2275471 36.3266129,20.0809792 L36.3266129,20.0809792 Z M40.6451613,8.22222222 L1.35483871,8.22222222 C0.606581952,8.22222222 0,7.60868651 0,6.85185185 L0,4.11111111 C0,1.84060714 1.81974586,0 4.06451613,0 L37.9354839,0 C40.1802541,0 42,1.84060714 42,4.11111111 L42,6.85185185 C42,7.60868651 41.393418,8.22222222 40.6451613,8.22222222 Z M13.2833468,5.96881944 C13.8052233,6.0745432 14.3399563,5.86140766 14.6502302,5.42400271 C14.9605042,4.98659777 14.9888346,4.40596153 14.7226485,3.9397813 C14.4564624,3.47360106 13.9450761,3.20824614 13.4154435,3.26148148 C11.8949758,3.40948148 11.7425565,5.63222222 13.2833468,5.96881944 Z M9.35092742,5.98851852 C9.89629629,6.04301481 10.420414,5.75983054 10.6788532,5.27103147 C10.9372923,4.7822324 10.8791494,4.18409487 10.5315399,3.7555662 C10.1839304,3.32703753 9.61532132,3.15252289 9.09088903,3.3134089 C8.56645675,3.47429492 8.18949612,3.93889266 8.13580645,4.49053241 C8.0627599,5.24346748 8.60659732,5.91390353 9.35092742,5.98851852 L9.35092742,5.98851852 Z M5.93758065,5.89002315 C7.53400403,5.2171713 6.64040323,2.82381944 5.02560484,3.31458333 C4.54729162,3.46119365 4.18772558,3.86239666 4.09027886,4.35821803 C3.99283213,4.8540394 4.17335384,5.36383672 4.5598634,5.68433514 C4.94637295,6.00483356 5.47600683,6.08390591 5.93758065,5.89002315 L5.93758065,5.89002315 Z" id="Shape"></path>
        </g>
        <g id="Group" transform="translate(180.724756, 238.506250)" stroke="#0055C2">
            <polyline id="Path-14" points="0 87 100.417197 87 100.417197 0 138.275244 0"></polyline>
            <polyline id="Path-15" points="100.417197 87.0327083 100.417197 178.032708 138.275244 178.032708"></polyline>
        </g>
        <g id="Group-2" transform="translate(378.000000, 404.000000)" fill="#FFFFFF" fill-rule="nonzero">
            <path d="M45.972,7.262 L15.177,7.262 C14.411,3.107 11.346,0 7.68,0 C3.44,0 0,4.159 0,9.29 C0,14.42 3.44,18.58 7.68,18.58 C11.346,18.58 14.41,15.472 15.176,11.318 L45.971,11.318 C47.0910335,11.3182761 47.9995,10.4105335 47.9995,9.2905 C47.9995,8.17046654 47.0920335,7.26227616 45.972,7.262 L45.972,7.262 Z M11.5,12.293 C11.501107,14.0793038 10.2641332,15.6278652 8.52173444,16.0214758 C6.77933571,16.4150864 4.99680685,15.5486354 4.22993437,13.9353191 C3.46306189,12.3220029 3.91663347,10.3926457 5.322,9.29 C4.04095054,8.28420462 3.53851092,6.57678672 4.0706048,5.03744005 C4.60269867,3.49809338 6.05228515,2.465417 7.681,2.465417 C9.30971485,2.465417 10.7593013,3.49809338 11.2913952,5.03744005 C11.8234891,6.57678672 11.3210495,8.28420462 10.04,9.29 C10.9627498,10.0130767 11.5012245,11.1206922 11.5,12.293 Z" id="Shape"></path>
            <polygon id="Path" points="33.767 10.428 35.464 10.428 35.464 15.483 33.767 15.483"></polygon>
            <circle id="Oval" cx="34.616" cy="15.484" r="2.079"></circle>
            <circle id="Oval" cx="34.616" cy="15.484" r="1.056"></circle>
            <g id="Group" transform="translate(37.441000, 10.428000)">
                <polygon id="Path" points="1.23 0 2.927 0 2.927 9.546 1.23 9.546"></polygon>
                <circle id="Oval" cx="2.079" cy="9.546" r="2.079"></circle>
                <circle id="Oval" cx="2.079" cy="9.546" r="1.056"></circle>
            </g>
            <g id="Group" transform="translate(42.345000, 10.428000)">
                <polygon id="Path" points="1.23 0 2.927 0 2.927 5.055 1.23 5.055"></polygon>
                <circle id="Oval" cx="2.079" cy="5.056" r="2.079"></circle>
                <circle id="Oval" cx="2.079" cy="5.056" r="1.056"></circle>
            </g>
            <g id="Group" transform="translate(0.001000, 26.007000)">
                <path d="M2.028,14.792 L32.823,14.792 C33.589,18.947 36.653,22.054 40.319,22.054 C44.56,22.054 47.999,17.895 47.999,12.764 C47.999,7.634 44.559,3.474 40.319,3.474 C36.653,3.474 33.589,6.582 32.823,10.736 L2.028,10.736 C0.907966527,10.736 0,11.6439665 0,12.764 C0,13.8840335 0.907966527,14.792 2.028,14.792 Z M36.499,9.76 C36.497893,7.97369616 37.7348668,6.42513482 39.4772656,6.03152424 C41.2196643,5.63791365 43.0021932,6.50436463 43.7690656,8.11768086 C44.5359381,9.73099708 44.0823665,11.6603543 42.677,12.763 C43.9580495,13.7687954 44.4604891,15.4762133 43.9283952,17.01556 C43.3963013,18.5549066 41.9467149,19.587583 40.318,19.587583 C38.6892851,19.587583 37.2396987,18.5549066 36.7076048,17.01556 C36.1755109,15.4762133 36.6779505,13.7687954 37.959,12.763 C37.0362502,12.0399233 36.4977755,10.9323078 36.499,9.76 L36.499,9.76 Z" id="Shape"></path>
                <polygon id="Path" points="12.535 6.57 14.232 6.57 14.232 11.626 12.535 11.626"></polygon>
                <circle id="Oval" cx="13.383" cy="6.57" r="2.079"></circle>
                <circle id="Oval" cx="13.383" cy="6.57" r="1.056"></circle>
                <g transform="translate(6.400000, -0.000000)">
                    <polygon id="Path" points="1.231 2.079 2.928 2.079 2.928 11.625 1.231 11.625"></polygon>
                    <circle id="Oval" cx="2.079" cy="2.079" r="2.079"></circle>
                    <circle id="Oval" cx="2.079" cy="2.079" r="1.056"></circle>
                </g>
                <g transform="translate(1.496000, 4.491000)">
                    <polygon id="Path" points="1.231 2.079 2.928 2.079 2.928 7.135 1.231 7.135"></polygon>
                    <circle id="Oval" cx="2.079" cy="2.079" r="2.079"></circle>
                    <circle id="Oval" cx="2.079" cy="2.079" r="1.056"></circle>
                </g>
            </g>
        </g>
    </g>
</svg>