<?xml version="1.0" encoding="UTF-8"?>
<svg width="800px" height="600px" viewBox="0 0 800 600" version="1.1" xmlns="http://www.w3.org/2000/svg" xmlns:xlink="http://www.w3.org/1999/xlink">
    <title>2041-10-17-12-10_RemoteCollaborationOverview</title>
    <defs>
        <path d="M8.68744595,14.5405413 C10.6544909,13.5649687 12,11.5915112 12,9.31636202 C12,6.07252388 9.26504479,3.44227578 5.89152197,3.44227578 C4.52034181,3.44227578 3.25480793,3.87689217 2.23537065,4.61058921 L2.23537065,1.05770107 C2.23537065,0.476155373 1.74046224,0 1.11695169,0 C0.493934821,0 0.0167986821,0.476630104 0.0167986821,1.05770107 L0.0167986821,1.80184219 L0,9.32158406 C-0.0041824725,11.2003327 0.951817666,12.865215 2.41753644,13.8939574 C2.4777647,13.9362085 2.55848043,13.9312238 2.6127846,13.8823265 C2.66758244,13.8334292 2.6779496,13.7558106 2.63746831,13.6950451 C0.724974359,10.8146136 1.16014819,5.53963813 5.89176881,5.53963813 C8.05899866,5.53963813 9.80709909,7.22944376 9.81623206,9.31351363 C9.82240299,10.8599505 9.11620201,12.0365717 8.19549958,12.7781018 C6.36026565,14.2561773 3.64974731,12.6382934 4.49738595,10.4697214 C4.5894562,10.2335427 4.71879884,9.9959397 4.88664808,9.76189723 L5.12361171,9.47705853 C5.19766284,9.39967734 5.25048599,9.29903433 5.2146946,9.19411874 C5.01401603,8.62800181 3.46832203,8.97526767 3.04005964,10.0315445 C3.34292878,9.79631524 3.65986763,9.66433998 3.96940137,9.71489885 C2.38890334,11.275815 3.44141679,13.9563846 5.46005069,14.7513219 C6.40494316,15.1232738 7.55964718,15.0976383 8.68744595,14.5405413" id="path-1"></path>
        <linearGradient x1="28.568518%" y1="104.445731%" x2="78.3472072%" y2="20.6880271%" id="linearGradient-3">
            <stop stop-color="#000F98" offset="0%"></stop>
            <stop stop-color="#00A5FD" offset="100%"></stop>
        </linearGradient>
        <linearGradient x1="32.1347447%" y1="14.4184139%" x2="56.5507815%" y2="75.461337%" id="linearGradient-4">
            <stop stop-color="#000000" offset="0%"></stop>
            <stop stop-color="#191919" offset="100%"></stop>
        </linearGradient>
        <linearGradient x1="41.256555%" y1="27.4242437%" x2="66.2542373%" y2="91.8289958%" id="linearGradient-5">
            <stop stop-color="#000000" offset="0%"></stop>
            <stop stop-color="#191919" offset="100%"></stop>
        </linearGradient>
        <linearGradient x1="37.7767324%" y1="54.6472168%" x2="54.5561385%" y2="48.5166165%" id="linearGradient-6">
            <stop stop-color="#FFB268" offset="26.3%"></stop>
            <stop stop-color="#FFBD82" offset="89%"></stop>
        </linearGradient>
        <linearGradient x1="62.3385512%" y1="55.2275559%" x2="45.33121%" y2="48.4943619%" id="linearGradient-7">
            <stop stop-color="#FFB268" offset="26.3%"></stop>
            <stop stop-color="#FFBD82" offset="89%"></stop>
        </linearGradient>
        <linearGradient x1="50%" y1="34.4268793%" x2="50%" y2="102.16082%" id="linearGradient-8">
            <stop stop-color="#F9B701" offset="21.5%"></stop>
            <stop stop-color="#F9DD01" offset="85.2%"></stop>
        </linearGradient>
        <linearGradient x1="-0.126903553%" y1="49.9990888%" x2="100.126904%" y2="49.9990888%" id="linearGradient-9">
            <stop stop-color="#F9B701" offset="6.4%"></stop>
            <stop stop-color="#F9DD01" offset="85.2%"></stop>
        </linearGradient>
        <linearGradient x1="94.6898239%" y1="49.9981326%" x2="18.68591%" y2="49.9981326%" id="linearGradient-10">
            <stop stop-color="#FFB268" offset="26.3%"></stop>
            <stop stop-color="#FFBD82" offset="89%"></stop>
        </linearGradient>
        <linearGradient x1="42.9653078%" y1="23.0349219%" x2="67.7077887%" y2="98.8866064%" id="linearGradient-11">
            <stop stop-color="#FFB268" offset="26.3%"></stop>
            <stop stop-color="#FFBD82" offset="89%"></stop>
        </linearGradient>
        <linearGradient x1="50%" y1="120.60429%" x2="50%" y2="27.1566046%" id="linearGradient-12">
            <stop stop-color="#BB0020" offset="12.3%"></stop>
            <stop stop-color="#640520" offset="85.2%"></stop>
        </linearGradient>
        <linearGradient x1="64.4410833%" y1="13.9130435%" x2="40.5627198%" y2="71.0543478%" id="linearGradient-13">
            <stop stop-color="#F9B701" offset="6.4%"></stop>
            <stop stop-color="#F9B901" offset="29.1%"></stop>
            <stop stop-color="#F9DD01" offset="85.2%"></stop>
        </linearGradient>
        <linearGradient x1="64.7746701%" y1="13.826087%" x2="40.8855458%" y2="70.9565217%" id="linearGradient-14">
            <stop stop-color="#F9B701" offset="6.4%"></stop>
            <stop stop-color="#F9B901" offset="29.1%"></stop>
            <stop stop-color="#F9DD01" offset="85.2%"></stop>
        </linearGradient>
        <linearGradient x1="18.8518519%" y1="791.490613%" x2="67.6944444%" y2="-375.677452%" id="linearGradient-15">
            <stop stop-color="#7212DE" offset="12.3%"></stop>
            <stop stop-color="#450078" offset="85.2%"></stop>
        </linearGradient>
        <linearGradient x1="31.1388889%" y1="497.808781%" x2="79.9814815%" y2="-669.350176%" id="linearGradient-16">
            <stop stop-color="#7212DE" offset="12.3%"></stop>
            <stop stop-color="#450078" offset="85.2%"></stop>
        </linearGradient>
        <linearGradient x1="43.4351852%" y1="204.136058%" x2="92.2777778%" y2="-963.0229%" id="linearGradient-17">
            <stop stop-color="#7212DE" offset="12.3%"></stop>
            <stop stop-color="#450078" offset="85.2%"></stop>
        </linearGradient>
        <linearGradient x1="15.2494472%" y1="21.5232725%" x2="104.890049%" y2="118.727393%" id="linearGradient-18">
            <stop stop-color="#000000" offset="0%"></stop>
            <stop stop-color="#191919" offset="100%"></stop>
        </linearGradient>
        <linearGradient x1="36.55911%" y1="40.4899497%" x2="64.1818664%" y2="65.9434673%" id="linearGradient-19">
            <stop stop-color="#F9B701" offset="6.4%"></stop>
            <stop stop-color="#F9B901" offset="29.1%"></stop>
            <stop stop-color="#F9DD01" offset="100%"></stop>
        </linearGradient>
        <linearGradient x1="56.8072846%" y1="36.2347716%" x2="36.2375903%" y2="74.3540609%" id="linearGradient-20">
            <stop stop-color="#F9B701" offset="6.4%"></stop>
            <stop stop-color="#F9B901" offset="29.1%"></stop>
            <stop stop-color="#F9DD01" offset="95.3%"></stop>
        </linearGradient>
        <linearGradient x1="29.5644653%" y1="14.4184139%" x2="57.4932443%" y2="75.461337%" id="linearGradient-21">
            <stop stop-color="#000000" offset="0%"></stop>
            <stop stop-color="#191919" offset="100%"></stop>
        </linearGradient>
        <linearGradient x1="41.0790276%" y1="27.4242437%" x2="66.5842642%" y2="91.8289958%" id="linearGradient-22">
            <stop stop-color="#000000" offset="0%"></stop>
            <stop stop-color="#191919" offset="100%"></stop>
        </linearGradient>
        <linearGradient x1="37.5285505%" y1="54.6472168%" x2="54.6486466%" y2="48.5166165%" id="linearGradient-23">
            <stop stop-color="#FFB268" offset="26.3%"></stop>
            <stop stop-color="#FFBD82" offset="89%"></stop>
        </linearGradient>
        <linearGradient x1="62.5890738%" y1="55.2275559%" x2="45.2364147%" y2="48.4943619%" id="linearGradient-24">
            <stop stop-color="#FFB268" offset="26.3%"></stop>
            <stop stop-color="#FFBD82" offset="89%"></stop>
        </linearGradient>
        <linearGradient x1="50%" y1="34.4268793%" x2="50%" y2="102.16082%" id="linearGradient-25">
            <stop stop-color="#F9B701" offset="21.5%"></stop>
            <stop stop-color="#F9DD01" offset="85.2%"></stop>
        </linearGradient>
        <linearGradient x1="-0.126903553%" y1="49.9990888%" x2="100.126904%" y2="49.9990888%" id="linearGradient-26">
            <stop stop-color="#F9B701" offset="6.4%"></stop>
            <stop stop-color="#F9DD01" offset="85.2%"></stop>
        </linearGradient>
        <linearGradient x1="94.6898239%" y1="49.9981326%" x2="18.68591%" y2="49.9981326%" id="linearGradient-27">
            <stop stop-color="#FFB268" offset="26.3%"></stop>
            <stop stop-color="#FFBD82" offset="89%"></stop>
        </linearGradient>
        <linearGradient x1="42.822475%" y1="23.0349219%" x2="68.0673285%" y2="98.8866064%" id="linearGradient-28">
            <stop stop-color="#FFB268" offset="26.3%"></stop>
            <stop stop-color="#FFBD82" offset="89%"></stop>
        </linearGradient>
        <linearGradient x1="50%" y1="120.60429%" x2="50%" y2="27.1566046%" id="linearGradient-29">
            <stop stop-color="#BB0020" offset="12.3%"></stop>
            <stop stop-color="#640520" offset="85.2%"></stop>
        </linearGradient>
        <linearGradient x1="64.5869565%" y1="14.2739039%" x2="40.4673913%" y2="70.8438097%" id="linearGradient-30">
            <stop stop-color="#F9B701" offset="6.4%"></stop>
            <stop stop-color="#F9B901" offset="29.1%"></stop>
            <stop stop-color="#F9DD01" offset="85.2%"></stop>
        </linearGradient>
        <linearGradient x1="64.923913%" y1="14.1878169%" x2="40.7934783%" y2="70.7469618%" id="linearGradient-31">
            <stop stop-color="#F9B701" offset="6.4%"></stop>
            <stop stop-color="#F9B901" offset="29.1%"></stop>
            <stop stop-color="#F9DD01" offset="85.2%"></stop>
        </linearGradient>
        <linearGradient x1="18.8518519%" y1="400.470172%" x2="67.6944444%" y2="-151.199108%" id="linearGradient-32">
            <stop stop-color="#7212DE" offset="12.3%"></stop>
            <stop stop-color="#450078" offset="85.2%"></stop>
        </linearGradient>
        <linearGradient x1="31.1388889%" y1="261.659619%" x2="79.9814815%" y2="-290.005357%" id="linearGradient-33">
            <stop stop-color="#7212DE" offset="12.3%"></stop>
            <stop stop-color="#450078" offset="85.2%"></stop>
        </linearGradient>
        <linearGradient x1="43.4351852%" y1="122.853371%" x2="92.2777778%" y2="-428.811605%" id="linearGradient-34">
            <stop stop-color="#7212DE" offset="12.3%"></stop>
            <stop stop-color="#450078" offset="85.2%"></stop>
        </linearGradient>
        <linearGradient x1="15.2494472%" y1="22.0899593%" x2="104.890049%" y2="117.359717%" id="linearGradient-35">
            <stop stop-color="#000000" offset="0%"></stop>
            <stop stop-color="#191919" offset="100%"></stop>
        </linearGradient>
        <linearGradient x1="36.2862055%" y1="40.4899497%" x2="64.4698157%" y2="65.9434673%" id="linearGradient-36">
            <stop stop-color="#F9B701" offset="6.4%"></stop>
            <stop stop-color="#F9B901" offset="29.1%"></stop>
            <stop stop-color="#F9DD01" offset="100%"></stop>
        </linearGradient>
        <linearGradient x1="56.9455%" y1="36.2347716%" x2="35.9581576%" y2="74.3540609%" id="linearGradient-37">
            <stop stop-color="#F9B701" offset="6.4%"></stop>
            <stop stop-color="#F9B901" offset="29.1%"></stop>
            <stop stop-color="#F9DD01" offset="95.3%"></stop>
        </linearGradient>
        <path d="M383.00041,234 L383.000096,250.306776 C382.999947,253.0682 385.23848,255.306819 387.999904,255.306873 C387.999936,255.306873 387.999968,255.306873 388,255.306776 L407.467446,255.306776 C410.22887,255.306776 412.467446,253.0682 412.467446,250.306776 L412.467446,239.693896 C412.467446,236.932472 410.22887,234.693896 407.467446,234.693896 L400.143298,234.693896 C398.530514,234.693896 397.016759,233.91596 396.077881,232.604633 L394.992914,231.089263 C394.054037,229.777936 392.540281,229 390.927498,229 L388.000506,229 C385.239119,229.000096 383.000559,231.238614 383.00041,234 Z" id="path-38"></path>
        <filter x="-17.0%" y="-19.0%" width="147.5%" height="153.2%" filterUnits="objectBoundingBox" id="filter-39">
            <feOffset dx="2" dy="2" in="SourceAlpha" result="shadowOffsetOuter1"></feOffset>
            <feGaussianBlur stdDeviation="2" in="shadowOffsetOuter1" result="shadowBlurOuter1"></feGaussianBlur>
            <feColorMatrix values="0 0 0 0 0   0 0 0 0 0   0 0 0 0 0  0 0 0 0.5 0" type="matrix" in="shadowBlurOuter1"></feColorMatrix>
        </filter>
        <path d="M692.00041,243 L692.000096,259.306776 C691.999947,262.0682 694.23848,264.306819 696.999904,264.306873 C696.999936,264.306873 696.999968,264.306873 697,264.306776 L716.467446,264.306776 C719.22887,264.306776 721.467446,262.0682 721.467446,259.306776 L721.467446,248.693896 C721.467446,245.932472 719.22887,243.693896 716.467446,243.693896 L709.143298,243.693896 C707.530514,243.693896 706.016759,242.91596 705.077881,241.604633 L703.992914,240.089263 C703.054037,238.777936 701.540281,238 699.927498,238 L697.000506,238 C694.239119,238.000096 692.000559,240.238614 692.00041,243 Z" id="path-40"></path>
        <filter x="-17.0%" y="-19.0%" width="147.5%" height="153.2%" filterUnits="objectBoundingBox" id="filter-41">
            <feOffset dx="2" dy="2" in="SourceAlpha" result="shadowOffsetOuter1"></feOffset>
            <feGaussianBlur stdDeviation="2" in="shadowOffsetOuter1" result="shadowBlurOuter1"></feGaussianBlur>
            <feColorMatrix values="0 0 0 0 0   0 0 0 0 0   0 0 0 0 0  0 0 0 0.5 0" type="matrix" in="shadowBlurOuter1"></feColorMatrix>
        </filter>
        <path d="M663.00041,326 L663.000096,342.306776 C662.999947,345.0682 665.23848,347.306819 667.999904,347.306873 C667.999936,347.306873 667.999968,347.306873 668,347.306776 L687.467446,347.306776 C690.22887,347.306776 692.467446,345.0682 692.467446,342.306776 L692.467446,331.693896 C692.467446,328.932472 690.22887,326.693896 687.467446,326.693896 L680.143298,326.693896 C678.530514,326.693896 677.016759,325.91596 676.077881,324.604633 L674.992914,323.089263 C674.054037,321.777936 672.540281,321 670.927498,321 L668.000506,321 C665.239119,321.000096 663.000559,323.238614 663.00041,326 Z" id="path-42"></path>
        <filter x="-17.0%" y="-19.0%" width="147.5%" height="153.2%" filterUnits="objectBoundingBox" id="filter-43">
            <feOffset dx="2" dy="2" in="SourceAlpha" result="shadowOffsetOuter1"></feOffset>
            <feGaussianBlur stdDeviation="2" in="shadowOffsetOuter1" result="shadowBlurOuter1"></feGaussianBlur>
            <feColorMatrix values="0 0 0 0 0   0 0 0 0 0   0 0 0 0 0  0 0 0 0.5 0" type="matrix" in="shadowBlurOuter1"></feColorMatrix>
        </filter>
        <path d="M73.0004096,243 L73.0000961,259.306776 C72.9999469,262.0682 75.2384801,264.306819 77.9999039,264.306873 C77.9999359,264.306873 77.999968,264.306873 78,264.306776 L97.467446,264.306776 C100.22887,264.306776 102.467446,262.0682 102.467446,259.306776 L102.467446,248.693896 C102.467446,245.932472 100.22887,243.693896 97.467446,243.693896 L90.1432978,243.693896 C88.5305144,243.693896 87.0167591,242.91596 86.0778815,241.604633 L84.9929142,240.089263 C84.0540366,238.777936 82.5402813,238 80.9274979,238 L78.0005057,238 C75.2391195,238.000096 73.0005588,240.238614 73.0004096,243 Z" id="path-44"></path>
        <filter x="-17.0%" y="-19.0%" width="147.5%" height="153.2%" filterUnits="objectBoundingBox" id="filter-45">
            <feOffset dx="2" dy="2" in="SourceAlpha" result="shadowOffsetOuter1"></feOffset>
            <feGaussianBlur stdDeviation="2" in="shadowOffsetOuter1" result="shadowBlurOuter1"></feGaussianBlur>
            <feColorMatrix values="0 0 0 0 0   0 0 0 0 0   0 0 0 0 0  0 0 0 0.5 0" type="matrix" in="shadowBlurOuter1"></feColorMatrix>
        </filter>
        <path d="M350.00041,326 L350.000096,342.306776 C349.999947,345.0682 352.23848,347.306819 354.999904,347.306873 C354.999936,347.306873 354.999968,347.306873 355,347.306776 L374.467446,347.306776 C377.22887,347.306776 379.467446,345.0682 379.467446,342.306776 L379.467446,331.693896 C379.467446,328.932472 377.22887,326.693896 374.467446,326.693896 L367.143298,326.693896 C365.530514,326.693896 364.016759,325.91596 363.077881,324.604633 L361.992914,323.089263 C361.054037,321.777936 359.540281,321 357.927498,321 L355.000506,321 C352.239119,321.000096 350.000559,323.238614 350.00041,326 Z" id="path-46"></path>
        <filter x="-17.0%" y="-19.0%" width="147.5%" height="153.2%" filterUnits="objectBoundingBox" id="filter-47">
            <feOffset dx="2" dy="2" in="SourceAlpha" result="shadowOffsetOuter1"></feOffset>
            <feGaussianBlur stdDeviation="2" in="shadowOffsetOuter1" result="shadowBlurOuter1"></feGaussianBlur>
            <feColorMatrix values="0 0 0 0 0   0 0 0 0 0   0 0 0 0 0  0 0 0 0.5 0" type="matrix" in="shadowBlurOuter1"></feColorMatrix>
        </filter>
        <path d="M0.000409566566,5 L9.6111809e-05,21.3067765 C-5.30801626e-05,24.0682002 2.23848014,26.3068195 4.99990389,26.3068726 C4.99993593,26.3068726 4.99996796,26.3068726 5,26.3067765 L24.467446,26.3067765 C27.2288697,26.3067765 29.467446,24.0682002 29.467446,21.3067765 L29.467446,10.6938958 C29.467446,7.93247203 27.2288697,5.69389578 24.467446,5.69389578 L17.1432978,5.69389578 C15.5305144,5.69389578 14.0167591,4.91596002 13.0778815,3.60463287 L11.9929142,2.08926291 C11.0540366,0.777935762 9.54028129,-2.96263497e-16 7.92749793,0 L5.00050568,0 C2.23911946,9.61127328e-05 0.000558759664,2.23861379 0.000409566566,5 Z" id="path-48"></path>
        <filter x="-17.0%" y="-19.0%" width="147.5%" height="153.2%" filterUnits="objectBoundingBox" id="filter-49">
            <feOffset dx="2" dy="2" in="SourceAlpha" result="shadowOffsetOuter1"></feOffset>
            <feGaussianBlur stdDeviation="2" in="shadowOffsetOuter1" result="shadowBlurOuter1"></feGaussianBlur>
            <feColorMatrix values="0 0 0 0 0   0 0 0 0 0   0 0 0 0 0  0 0 0 0.5 0" type="matrix" in="shadowBlurOuter1"></feColorMatrix>
        </filter>
        <path d="M29.000277,25.5910494 L29.0000961,35 C28.9999469,37.7614237 31.2384801,40.000043 33.9999039,40.0000961 C33.9999359,40.0000961 33.999968,40.0000961 34,40 L44.1626387,40 C46.9240624,40 49.1626387,37.7614237 49.1626387,35 L49.1626387,30.8959591 C49.1626387,28.1345353 46.9240624,25.8959591 44.1626387,25.8959591 L41.3676481,25.8959591 C39.8639269,25.8959591 38.4525372,25.1706301 37.5771498,23.9479795 C36.7017623,22.725329 35.2903726,22 33.7866514,22 L32.5913954,22 C30.6081024,22 29.0003151,23.6077564 29.000277,25.5910494 Z" id="path-50"></path>
        <filter x="-24.8%" y="-27.8%" width="169.4%" height="177.8%" filterUnits="objectBoundingBox" id="filter-51">
            <feOffset dx="2" dy="2" in="SourceAlpha" result="shadowOffsetOuter1"></feOffset>
            <feGaussianBlur stdDeviation="2" in="shadowOffsetOuter1" result="shadowBlurOuter1"></feGaussianBlur>
            <feColorMatrix values="0 0 0 0 0   0 0 0 0 0   0 0 0 0 0  0 0 0 0.5 0" type="matrix" in="shadowBlurOuter1"></feColorMatrix>
        </filter>
        <path d="M411.00041,326 L411.000096,342.306776 C410.999947,345.0682 413.23848,347.306819 415.999904,347.306873 C415.999936,347.306873 415.999968,347.306873 416,347.306776 L435.467446,347.306776 C438.22887,347.306776 440.467446,345.0682 440.467446,342.306776 L440.467446,331.693896 C440.467446,328.932472 438.22887,326.693896 435.467446,326.693896 L428.143298,326.693896 C426.530514,326.693896 425.016759,325.91596 424.077881,324.604633 L422.992914,323.089263 C422.054037,321.777936 420.540281,321 418.927498,321 L416.000506,321 C413.239119,321.000096 411.000559,323.238614 411.00041,326 Z" id="path-52"></path>
        <filter x="-17.0%" y="-19.0%" width="147.5%" height="153.2%" filterUnits="objectBoundingBox" id="filter-53">
            <feOffset dx="2" dy="2" in="SourceAlpha" result="shadowOffsetOuter1"></feOffset>
            <feGaussianBlur stdDeviation="2" in="shadowOffsetOuter1" result="shadowBlurOuter1"></feGaussianBlur>
            <feColorMatrix values="0 0 0 0 0   0 0 0 0 0   0 0 0 0 0  0 0 0 0.5 0" type="matrix" in="shadowBlurOuter1"></feColorMatrix>
        </filter>
        <path d="M221.587931,359.087931 L263.587931,359.087931 C265.79707,359.087931 267.587931,360.878792 267.587931,363.087931 L267.587931,440.072457 C267.587931,442.281596 265.79707,444.072457 263.587931,444.072457 L235.365709,444.072457 L235.365709,444.072457 L231.796393,458.087931 L229.254598,444.072457 L221.587931,444.072457 C219.378792,444.072457 217.587931,442.281596 217.587931,440.072457 L217.587931,363.087931 C217.587931,360.878792 219.378792,359.087931 221.587931,359.087931 Z" id="path-54"></path>
        <filter x="-31.0%" y="-15.7%" width="142.0%" height="123.1%" filterUnits="objectBoundingBox" id="filter-55">
            <feMorphology radius="0.5" operator="dilate" in="SourceAlpha" result="shadowSpreadOuter1"></feMorphology>
            <feOffset dx="-5" dy="-5" in="shadowSpreadOuter1" result="shadowOffsetOuter1"></feOffset>
            <feGaussianBlur stdDeviation="2.5" in="shadowOffsetOuter1" result="shadowBlurOuter1"></feGaussianBlur>
            <feComposite in="shadowBlurOuter1" in2="SourceAlpha" operator="out" result="shadowBlurOuter1"></feComposite>
            <feColorMatrix values="0 0 0 0 0   0 0 0 0 0   0 0 0 0 0  0 0 0 0.5 0" type="matrix" in="shadowBlurOuter1"></feColorMatrix>
        </filter>
    </defs>
    <g id="2041-10-17-12-10_RemoteCollaborationOverview" stroke="none" stroke-width="1" fill="none" fill-rule="evenodd">
        <rect fill="#FFFFFF" x="0" y="0" width="800" height="600"></rect>
        <rect id="Rectangle-Copy-21" fill-opacity="0.5" fill="#A1E0E9" x="211" y="156" width="327" height="415"></rect>
        <text id="Master-Branch" font-family="Helvetica" font-size="14" font-weight="normal" fill="#12738D">
            <tspan x="343.106934" y="299">Master </tspan>
            <tspan x="342.320801" y="316">Branch</tspan>
        </text>
        <text id="Topic-Branch" font-family="Helvetica" font-size="14" font-weight="normal" fill="#A16363">
            <tspan x="409.158691" y="299">Topic </tspan>
            <tspan x="403.320801" y="316">Branch</tspan>
        </text>
        <rect id="Rectangle-Copy-19" fill-opacity="0.5" fill="#C5DDFF" x="34" y="156" width="177" height="415"></rect>
        <rect id="Rectangle-Copy-20" fill-opacity="0.5" fill="#C5DDFF" x="538" y="156" width="233" height="415"></rect>
        <g id="bloovee-winner-logo" transform="translate(725.000000, 580.000000)">
            <path d="M13,13.7751507 C13,14.396312 13.4732558,14.8717809 14.0514961,14.8717809 C14.6474304,14.8717809 15.1204503,14.3968042 15.1204503,13.7751507 L15.1204503,2.09687626 C15.1204503,1.49368045 14.6474304,1 14.0514961,1 C13.4557977,1 13,1.49392656 13,2.09687626 L13,13.7751507 Z M21.7920364,15 C24.6483217,15 26.751078,12.7149437 26.751078,9.97312215 L26.751078,9.93645297 C26.751078,7.17641992 24.6657798,4.92778666 21.8269526,4.92778666 C18.9881254,4.92778666 16.885369,7.212843 16.885369,9.97312215 L16.885369,10.0095452 C16.885369,12.7516128 18.9706673,15 21.7920364,15 Z M21.8269526,13.0621935 C20.179994,13.0621935 19.0055834,11.6547366 19.0055834,9.97312215 L19.0055834,9.93645297 C19.0055834,8.25459244 20.0919958,6.86534709 21.7920364,6.86534709 C23.456689,6.86534709 24.6306277,8.27305008 24.6306277,9.97312215 L24.6306277,10.0095452 C24.6306277,11.6731942 23.5444513,13.0621935 21.8269526,13.0621935 Z M32.8092717,15 C35.665557,15 37.7683133,12.7149437 37.7683133,9.97312215 L37.7683133,9.93645297 C37.7683133,7.17641992 35.6830151,4.92778666 32.8441878,4.92778666 C30.0053606,4.92778666 27.9026043,7.212843 27.9026043,9.97312215 L27.9026043,10.0095452 C27.9026043,12.7516128 29.9879025,15 32.8092717,15 Z M32.8441878,13.0621935 C31.1969933,13.0621935 30.0228187,11.6547366 30.0228187,9.97312215 L30.0228187,9.93645297 C30.0228187,8.25459244 31.109231,6.86534709 32.8092717,6.86534709 C34.4739243,6.86534709 35.647863,8.27305008 35.647863,9.97312215 L35.647863,10.0095452 C35.647863,11.6731942 34.5614506,13.0621935 32.8441878,13.0621935 Z M44.1416963,13.9944275 L47.2261164,6.6096472 C47.2784906,6.49988574 47.3487948,6.28060893 47.3487948,6.07954366 C47.3487948,5.47610175 46.8929971,5.01933658 46.3147568,5.01933658 C45.7539746,5.01933658 45.4737015,5.40300947 45.3158709,5.78692847 L42.8976893,12.2215093 L40.5144239,5.82335156 C40.3393711,5.36634029 40.041404,5.01933658 39.4629278,5.01933658 C38.8846875,5.01933658 38.4116676,5.53098247 38.4116676,6.07954366 C38.4116676,6.28060893 38.4817358,6.46346265 38.534346,6.62785874 L41.6182943,13.9944275 C41.8638872,14.5796579 42.2491448,14.9633308 42.8273851,14.9633308 L42.9326055,14.9633308 C43.5108458,14.9633308 43.8965752,14.5612003 44.1416963,13.9944275 Z M50.0949054,9.27837643 C50.2876522,7.77961573 51.1987758,6.73762019 52.4956289,6.73762019 C53.8974665,6.73762019 54.7036056,7.8524619 54.8437422,9.27837643 L50.0949054,9.27837643 Z M56.070527,13.72027 C56.2281217,13.5558739 56.3508002,13.3181395 56.3508002,13.0439819 C56.3508002,12.5320899 55.9830006,12.1481709 55.5095089,12.1481709 C55.2641519,12.1481709 55.1242513,12.2215093 54.9664207,12.3492362 C54.3704864,12.8611282 53.6695676,13.1901665 52.7759021,13.1901665 C51.4089807,13.1901665 50.3402624,12.3128131 50.1123635,10.7409601 L55.9126964,10.7409601 C56.4560206,10.7409601 56.9115824,10.3021604 56.9115824,9.68050697 C56.9115824,7.45057746 55.4568987,4.92778666 52.513087,4.92778666 C49.8672425,4.92778666 47.9919132,7.19438536 47.9919132,9.95466451 L47.9919132,9.9913337 C47.9919132,12.9708897 50.0597533,15 52.7409859,15 C54.1779755,15 55.2292357,14.5063195 56.070527,13.72027 Z M60.1833231,9.27837643 C60.3763058,7.77961573 61.2871935,6.73762019 62.5842825,6.73762019 C63.9858841,6.73762019 64.7920233,7.8524619 64.9321598,9.27837643 L60.1833231,9.27837643 Z M66.1589447,13.72027 C66.3167752,13.5558739 66.4394537,13.3181395 66.4394537,13.0439819 C66.4394537,12.5320899 66.0714183,12.1481709 65.5981624,12.1481709 C65.3528055,12.1481709 65.2126689,12.2215093 65.0548383,12.3492362 C64.4591399,12.8611282 63.7582212,13.1901665 62.8643197,13.1901665 C61.4976342,13.1901665 60.4289159,12.3128131 60.2007812,10.7409601 L66.0011141,10.7409601 C66.5444382,10.7409601 67,10.3021604 67,9.68050697 C67,7.45057746 65.5455522,4.92778666 62.6015046,4.92778666 C59.9556601,4.92778666 58.0805667,7.19438536 58.0805667,9.95466451 L58.0805667,9.9913337 C58.0805667,12.9708897 60.1484069,15 62.8294035,15 C64.2663932,15 65.3178893,14.5063195 66.1589447,13.72027 L66.1589447,13.72027 Z" id="Fill-1" fill="#030060"></path>
            <g id="Group-4">
                <mask id="mask-2" fill="white">
                    <use xlink:href="#path-1"></use>
                </mask>
                <g id="Clip-3"></g>
                <path d="M8.68744595,14.5405413 C10.6544909,13.5649687 12,11.5915112 12,9.31636202 C12,6.07252388 9.26504479,3.44227578 5.89152197,3.44227578 C4.52034181,3.44227578 3.25480793,3.87689217 2.23537065,4.61058921 L2.23537065,1.05770107 C2.23537065,0.476155373 1.74046224,0 1.11695169,0 C0.493934821,0 0.0167986821,0.476630104 0.0167986821,1.05770107 L0.0167986821,1.80184219 L0,9.32158406 C-0.0041824725,11.2003327 0.951817666,12.865215 2.41753644,13.8939574 C2.4777647,13.9362085 2.55848043,13.9312238 2.6127846,13.8823265 C2.66758244,13.8334292 2.6779496,13.7558106 2.63746831,13.6950451 C0.724974359,10.8146136 1.16014819,5.53963813 5.89176881,5.53963813 C8.05899866,5.53963813 9.80709909,7.22944376 9.81623206,9.31351363 C9.82240299,10.8599505 9.11620201,12.0365717 8.19549958,12.7781018 C6.36026565,14.2561773 3.64974731,12.6382934 4.49738595,10.4697214 C4.5894562,10.2335427 4.71879884,9.9959397 4.88664808,9.76189723 L5.12361171,9.47705853 C5.19766284,9.39967734 5.25048599,9.29903433 5.2146946,9.19411874 C5.01401603,8.62800181 3.46832203,8.97526767 3.04005964,10.0315445 C3.34292878,9.79631524 3.65986763,9.66433998 3.96940137,9.71489885 C2.38890334,11.275815 3.44141679,13.9563846 5.46005069,14.7513219 C6.40494316,15.1232738 7.55964718,15.0976383 8.68744595,14.5405413" id="Fill-2" fill="url(#linearGradient-3)" mask="url(#mask-2)"></path>
            </g>
        </g>
        <g id="git" transform="translate(661.000000, 9.000000)">
            <path d="M46.8658496,11.2380575 C45.1623498,11.2380575 43.8939053,12.0891281 43.8939053,14.1376499 C43.8939053,15.6808485 44.7297841,16.7522856 46.7743573,16.7522856 C48.5071097,16.7522856 49.6846843,15.7131436 49.6846843,14.073693 C49.6846843,12.2157755 48.6309666,11.2380575 46.8658496,11.2380575 L46.8658496,11.2380575 Z M43.4607172,25.7011913 C43.0574041,26.2046147 42.6553359,26.7397 42.6553359,27.3710373 C42.6553359,28.6305458 44.2337339,29.0092215 46.4027864,29.0092215 C48.1984009,29.0092215 50.6450424,28.8813076 50.6450424,27.1823327 C50.6450424,26.1723196 49.4674678,26.1102624 47.9805621,26.0152768 L43.4607172,25.7011913 Z M52.6255087,11.3330431 C53.1825537,12.0580995 53.7719634,13.0662128 53.7719634,14.5156924 C53.7719634,18.0124273 51.0776081,20.0603158 47.1764255,20.0603158 C46.1843252,20.0603158 45.2862067,19.9349349 44.7291617,19.7772589 L43.7071863,21.4471049 L46.7413702,21.6351763 C52.0989611,21.9828234 55.257002,22.1404995 55.257002,26.3293624 C55.257002,29.9533779 52.1300809,32 46.7413702,32 C41.1360655,32 39,30.5505204 39,28.0625322 C39,26.6440812 39.6199071,25.8898959 40.7034998,24.848221 C39.680902,24.4087545 39.3410734,23.6216409 39.3410734,22.7705703 C39.3410734,22.0771758 39.6815244,21.4471049 40.2391918,20.8480627 C40.7968593,20.2502869 41.416144,19.6506115 42.1586633,18.9578502 C40.6412601,18.2017651 39.4960502,16.563581 39.4960502,14.231369 C39.4960502,10.6086199 41.8493321,8.12063165 46.5870158,8.12063165 C47.9189448,8.12063165 48.7249485,8.24537935 49.436348,8.43598369 L55.4754632,8.43598369 L55.4754632,11.1133099 L52.6255087,11.3330431 L52.6255087,11.3330431 Z M60.9233016,5.60858036 C59.1575621,5.60858036 58.1355867,4.56817192 58.1355867,2.77167847 C58.1355867,0.977717972 59.1575621,0 60.9233016,0 C62.7195385,0 63.7408917,0.977084735 63.7408917,2.77167847 C63.7415139,4.56817192 62.7195385,5.60858036 60.9233016,5.60858036 Z M56.9275147,24.5423675 L56.9275147,22.0543792 L58.50778,21.8340127 C58.9409681,21.770689 59.0025853,21.6763367 59.0025853,21.2026754 L59.0025853,11.9403174 C59.0025853,11.59457 58.9104706,11.372937 58.5998947,11.279218 L56.9275147,10.6801757 L57.2679657,8.12949697 L63.6792742,8.12949697 L63.6792742,21.2033087 C63.6792742,21.7086318 63.7091492,21.770689 64.174702,21.834646 L65.7543448,22.0550125 L65.7543448,24.5430008 L56.9275147,24.5430008 L56.9275147,24.5423675 Z M78,23.32022 C76.6674487,23.9806863 74.7174798,24.5803617 72.9511179,24.5803617 C69.2665294,24.5803617 67.8736056,23.0694582 67.8736056,19.5074999 L67.8736056,11.2532552 C67.8736056,11.0651838 67.8736056,10.9385364 67.6252693,10.9385364 L65.458084,10.9385364 L65.458084,8.13456287 C68.1841815,7.81857759 69.2671518,6.43242174 69.6076028,2.99837733 L72.5502944,2.99837733 L72.5502944,7.47346341 C72.5502944,7.69319666 72.5502944,7.78881545 72.7980083,7.78881545 L77.1641212,7.78881545 L77.1641212,10.9391697 L72.5502944,10.9391697 L72.5502944,18.4683579 C72.5502944,20.3269086 72.9841049,21.0513318 74.6558625,21.0513318 C75.5241059,21.0513318 76.4209796,20.8315985 77.1641212,20.5479083 L78,23.32022 L78,23.32022 Z" id="Shape" fill="#31251C" fill-rule="nonzero"></path>
            <path d="M32.3772539,15.0299695 L17.9690664,0.622277028 C17.140005,-0.207425676 15.7941261,-0.207425676 14.9644314,0.622277028 L11.9724635,3.61427365 L15.7668919,7.40937182 C16.6497884,7.11169223 17.6606226,7.31120089 18.3636464,8.01486479 C19.0704703,8.72232885 19.2687104,9.74203981 18.9634334,10.6274783 L22.6210571,14.2851371 C23.5052204,13.9804906 24.5268216,14.1774658 25.2336455,14.8849299 C26.221679,15.8723394 26.221679,17.4728423 25.2336455,18.4608852 C24.2449787,19.4489281 22.6451246,19.4489281 21.6570912,18.4608852 C20.914166,17.7173195 20.7304932,16.6260388 21.1067059,15.7108324 L17.6954571,12.2995509 L17.6948238,21.2768075 C17.9361319,21.3958793 18.1628729,21.5542195 18.3636464,21.7543616 C19.3516798,22.7417711 19.3516798,24.3416406 18.3636464,25.3309502 C17.375613,26.3183598 15.7744921,26.3183598 14.7877254,25.3309502 C13.799692,24.3416406 13.799692,22.7417711 14.7877254,21.7543616 C15.0322003,21.5105176 15.3140432,21.3262096 15.6155201,21.2027043 L15.6155201,12.1424774 C15.3140432,12.0196054 15.0322003,11.8359308 14.7877254,11.5908201 C14.0391001,10.842821 13.8592273,9.74520661 14.2430403,8.82620003 L10.5024471,5.08430417 L0.622746073,14.9634666 C-0.207582024,15.7938027 -0.207582024,17.1396945 0.622746073,17.9700305 L15.0309336,32.377723 C15.8606284,33.2074257 17.2058739,33.2074257 18.0368353,32.377723 L32.3772539,18.0359 C33.207582,17.2061973 33.207582,15.8596722 32.3772539,15.0299695 L32.3772539,15.0299695 Z" id="Path" fill="#F34F29" fill-rule="nonzero"></path>
            <polygon id="Path" points="1.12409637e-15 0 79 0 79 33 0 33"></polygon>
        </g>
        <g id="github-copy" transform="translate(748.000000, 3.000000)" fill="#000000" fill-rule="nonzero">
            <path d="M22.9998956,0 C11.7204239,0.000469179946 2.10590223,8.20619911 0.299077857,19.3745239 C-1.50774651,30.5428487 5.02642435,41.3773525 15.7268887,44.9558377 C16.8767785,45.1577383 17.3079872,44.4656891 17.3079872,43.8600567 C17.3079872,43.3121892 17.279217,41.4954764 17.279217,39.5634644 C11.5009978,40.6303861 10.0061411,38.1505528 9.54618516,36.8529173 C9.03580825,35.5908656 8.22674528,34.472458 7.1889111,33.5943411 C6.38398825,33.161796 5.23409847,32.0948512 7.16014086,32.066061 C8.65271236,32.2285228 9.97246422,33.1110528 10.6960749,34.4305721 C11.3313462,35.5753322 12.3946869,36.4194146 13.6513665,36.7764896 C14.9080461,37.1335647 16.2547288,36.9742705 17.3941369,36.3337708 C17.4936968,35.160991 18.0147545,34.0644705 18.8602924,33.2483742 C13.7432829,32.6716473 8.39629538,30.6818473 8.39629538,21.8580182 C8.36397821,19.5652878 9.20739391,17.3470389 10.7535694,15.6582042 C10.0504849,13.6655423 10.1327507,11.4787423 10.9835474,9.54489918 C10.9835474,9.54489918 12.9095438,8.93931288 17.3079412,11.9094794 C21.0710431,10.8713094 25.0437372,10.8713094 28.806839,11.9094794 C33.2051215,8.9104996 35.1312329,9.54489918 35.1312329,9.54489918 C35.982145,11.4787155 36.0644125,13.6655602 35.3612108,15.6582042 C36.9120423,17.3441484 37.7561944,19.564334 37.7184849,21.8580182 C37.7184849,30.7107067 32.3427041,32.6716473 27.2257406,33.2483742 C28.336287,34.3774629 28.9028084,35.9349635 28.7780918,37.5161532 C28.7780918,40.6016882 28.7493216,43.0815215 28.7493216,43.8601489 C28.7493216,44.4657352 29.1805302,45.1866208 30.33042,44.95593 C41.0111617,41.3485442 47.5153422,30.5121007 45.6961446,19.3555019 C43.876947,8.19890308 34.2698179,0.00588375885 22.9998956,0 Z" id="Path"></path>
        </g>
        <text id="Remote-Collaboration" fill-rule="nonzero" font-family="Helvetica" font-size="18" font-weight="normal" fill="#0055C2">
            <tspan x="10" y="23">Remote Collaboration Overview</tspan>
        </text>
        <g id="laptop" transform="translate(36.000000, 215.000000)" fill-rule="nonzero">
            <path d="M45.7181926,0 L6.28180737,0 C4.46587396,0 3,1.46964356 3,3.29024677 L3,24.7097532 C3,25.488445 3.27348395,26.1903643 3.72199762,26.7606737 C4.31272295,27.5174305 5.24256837,28 6.28180737,28 L45.8166468,28 C46.8011891,27.9670975 47.6872771,27.4954955 48.2780024,26.7716412 C48.7265161,26.2013318 49,25.488445 49,24.7097532 L49,3.29024677 C49,1.46964356 47.5231867,0 45.7181926,0 Z M6.28180737,25.8065022 C5.68014269,25.8065022 5.18787158,25.3129651 5.18787158,24.7097532 L5.18787158,3.29024677 C5.18787158,2.67606737 5.68014269,2.19349785 6.28180737,2.19349785 L45.7181926,2.19349785 C46.3198573,2.19349785 46.8121284,2.67606737 46.8121284,3.29024677 L46.8121284,24.7097532 C46.8121284,25.3129651 46.3198573,25.8065022 45.7181926,25.8065022 L6.28180737,25.8065022 Z" id="Shape" fill="#0055C2"></path>
            <path d="M47,3.11472364 L47,24.8852764 C47,25.4983744 46.5032852,26 45.8961892,26 L6.10381078,26 C5.49671485,26 5,25.4983744 5,24.8852764 L5,3.11472364 C5,2.4904784 5.49671485,2 6.10381078,2 L45.8961892,2 C46.5032852,2 47,2.4904784 47,3.11472364 Z" id="Path" fill="#FFFFFF"></path>
            <path d="M52.9181255,41.6036816 L50.1244846,28.8695181 C49.9588538,28.1115322 49.5502976,27.4510016 48.9871526,26.9528966 C48.3246291,26.3573362 47.4523064,26 46.5026894,26 L6.48626857,26 C5.54769358,26 4.66432888,26.3573362 4.01284741,26.9420682 C3.43866036,27.4401733 3.03010419,28.1007038 2.86447331,28.8695181 L0.0818745093,41.6036816 C-0.150008724,42.6756903 0.115000685,43.7910125 0.821692444,44.6464537 C1.5283842,45.501895 2.57737978,46 3.70366977,46 L49.2963302,46 C50.4226202,46 51.4716158,45.501895 52.1783076,44.6464537 C52.8849993,43.7910125 53.1500087,42.6756903 52.9181255,41.6036816 Z M50.4557464,43.282079 C50.1686529,43.6285869 49.7490546,43.8343259 49.2963302,43.8343259 L3.70366977,43.8343259 C3.25094536,43.8343259 2.82030507,43.6285869 2.53321155,43.282079 C2.25716008,42.9355712 2.14673949,42.491608 2.23507596,42.0584732 L5.02871682,29.3243097 C5.17226358,28.6529507 5.79061887,28.1656741 6.48626857,28.1656741 L46.5026894,28.1656741 C47.2093811,28.1656741 47.8277364,28.6529507 47.9712832,29.3243097 L50.753882,42.0584732 C50.8532605,42.491608 50.7428399,42.9355712 50.4557464,43.282079 Z" id="Shape" fill="#0055C2"></path>
            <path d="M50.9639357,42.186593 L48.1575331,29.1831381 C48.0055912,28.4919184 47.3889321,27.9993355 46.6763761,28 L6.31763411,28 C5.61603346,28 4.99238844,28.4975819 4.8476137,29.1831381 L2.03007459,42.186593 C1.94098245,42.6288874 2.05234763,43.0822392 2.33076059,43.4360747 C2.62031006,43.7899102 3.05463427,44 3.51123152,44 L49.4939152,44 C49.9505125,44 50.3737002,43.7899102 50.6632497,43.4360747 C50.9527991,43.0822392 51.0641643,42.6288874 50.9639357,42.186593 L50.9639357,42.186593 Z M8.11492281,31 L44.8850772,31 C45.509434,31 46,31.45 46,32 C46,32.55 45.509434,33 44.8850772,33 L8.11492281,33 C7.50171527,33 7,32.55 7,32 C7,31.45 7.50171527,31 8.11492281,31 Z M28.8802756,40 L5.11972438,40 C4.50387597,40 4,39.56 4,39 C4,38.45 4.50387597,38 5.11972438,38 L28.8802756,38 C29.496124,38 30,38.45 30,39 C30,39.56 29.496124,40 28.8802756,40 L28.8802756,40 Z M45.8616462,40 L35.1383538,40 C34.5122592,40 34,39.56 34,39 C34,38.45 34.5122592,38 35.1383538,38 L45.8616462,38 C46.4877408,38 47,38.45 47,39 C47,39.56 46.4877408,40 45.8616462,40 Z" id="Shape" fill="#D0E8F9"></path>
            <path d="M46,32 C46,32.55 45.509434,33 44.8850772,33 L8.11492281,33 C7.50171527,33 7,32.55 7,32 C7,31.45 7.50171527,31 8.11492281,31 L44.8850772,31 C45.509434,31 46,31.45 46,32 Z M30,39 C30,39.56 29.496124,40 28.8802756,40 L5.11972438,40 C4.50387597,40 4,39.56 4,39 C4,38.45 4.50387597,38 5.11972438,38 L28.8802756,38 C29.496124,38 30,38.45 30,39 Z M47,39 C47,39.56 46.4877408,40 45.8616462,40 L35.1383538,40 C34.5122592,40 34,39.56 34,39 C34,38.45 34.5122592,38 35.1383538,38 L45.8616462,38 C46.4877408,38 47,38.45 47,39 Z" id="Shape" fill="#0055C2"></path>
            <path d="M13,26 L20.7014879,26 L31,2 L23.2985121,2 L13,26 Z M25.5945503,26 L36,2 L33.4052931,2 L23,26 L25.5945503,26 Z" id="Shape" fill="#C5DDFF"></path>
        </g>
        <g id="laptop-copy" transform="translate(652.000000, 215.000000)" fill-rule="nonzero">
            <path d="M45.7181926,0 L6.28180737,0 C4.46587396,0 3,1.46964356 3,3.29024677 L3,24.7097532 C3,25.488445 3.27348395,26.1903643 3.72199762,26.7606737 C4.31272295,27.5174305 5.24256837,28 6.28180737,28 L45.8166468,28 C46.8011891,27.9670975 47.6872771,27.4954955 48.2780024,26.7716412 C48.7265161,26.2013318 49,25.488445 49,24.7097532 L49,3.29024677 C49,1.46964356 47.5231867,0 45.7181926,0 Z M6.28180737,25.8065022 C5.68014269,25.8065022 5.18787158,25.3129651 5.18787158,24.7097532 L5.18787158,3.29024677 C5.18787158,2.67606737 5.68014269,2.19349785 6.28180737,2.19349785 L45.7181926,2.19349785 C46.3198573,2.19349785 46.8121284,2.67606737 46.8121284,3.29024677 L46.8121284,24.7097532 C46.8121284,25.3129651 46.3198573,25.8065022 45.7181926,25.8065022 L6.28180737,25.8065022 Z" id="Shape" fill="#0055C2"></path>
            <path d="M47,3.11472364 L47,24.8852764 C47,25.4983744 46.5032852,26 45.8961892,26 L6.10381078,26 C5.49671485,26 5,25.4983744 5,24.8852764 L5,3.11472364 C5,2.4904784 5.49671485,2 6.10381078,2 L45.8961892,2 C46.5032852,2 47,2.4904784 47,3.11472364 Z" id="Path" fill="#FFFFFF"></path>
            <path d="M52.9181255,41.6036816 L50.1244846,28.8695181 C49.9588538,28.1115322 49.5502976,27.4510016 48.9871526,26.9528966 C48.3246291,26.3573362 47.4523064,26 46.5026894,26 L6.48626857,26 C5.54769358,26 4.66432888,26.3573362 4.01284741,26.9420682 C3.43866036,27.4401733 3.03010419,28.1007038 2.86447331,28.8695181 L0.0818745093,41.6036816 C-0.150008724,42.6756903 0.115000685,43.7910125 0.821692444,44.6464537 C1.5283842,45.501895 2.57737978,46 3.70366977,46 L49.2963302,46 C50.4226202,46 51.4716158,45.501895 52.1783076,44.6464537 C52.8849993,43.7910125 53.1500087,42.6756903 52.9181255,41.6036816 Z M50.4557464,43.282079 C50.1686529,43.6285869 49.7490546,43.8343259 49.2963302,43.8343259 L3.70366977,43.8343259 C3.25094536,43.8343259 2.82030507,43.6285869 2.53321155,43.282079 C2.25716008,42.9355712 2.14673949,42.491608 2.23507596,42.0584732 L5.02871682,29.3243097 C5.17226358,28.6529507 5.79061887,28.1656741 6.48626857,28.1656741 L46.5026894,28.1656741 C47.2093811,28.1656741 47.8277364,28.6529507 47.9712832,29.3243097 L50.753882,42.0584732 C50.8532605,42.491608 50.7428399,42.9355712 50.4557464,43.282079 Z" id="Shape" fill="#0055C2"></path>
            <path d="M50.9639357,42.186593 L48.1575331,29.1831381 C48.0055912,28.4919184 47.3889321,27.9993355 46.6763761,28 L6.31763411,28 C5.61603346,28 4.99238844,28.4975819 4.8476137,29.1831381 L2.03007459,42.186593 C1.94098245,42.6288874 2.05234763,43.0822392 2.33076059,43.4360747 C2.62031006,43.7899102 3.05463427,44 3.51123152,44 L49.4939152,44 C49.9505125,44 50.3737002,43.7899102 50.6632497,43.4360747 C50.9527991,43.0822392 51.0641643,42.6288874 50.9639357,42.186593 L50.9639357,42.186593 Z M8.11492281,31 L44.8850772,31 C45.509434,31 46,31.45 46,32 C46,32.55 45.509434,33 44.8850772,33 L8.11492281,33 C7.50171527,33 7,32.55 7,32 C7,31.45 7.50171527,31 8.11492281,31 Z M28.8802756,40 L5.11972438,40 C4.50387597,40 4,39.56 4,39 C4,38.45 4.50387597,38 5.11972438,38 L28.8802756,38 C29.496124,38 30,38.45 30,39 C30,39.56 29.496124,40 28.8802756,40 L28.8802756,40 Z M45.8616462,40 L35.1383538,40 C34.5122592,40 34,39.56 34,39 C34,38.45 34.5122592,38 35.1383538,38 L45.8616462,38 C46.4877408,38 47,38.45 47,39 C47,39.56 46.4877408,40 45.8616462,40 Z" id="Shape" fill="#D0E8F9"></path>
            <path d="M46,32 C46,32.55 45.509434,33 44.8850772,33 L8.11492281,33 C7.50171527,33 7,32.55 7,32 C7,31.45 7.50171527,31 8.11492281,31 L44.8850772,31 C45.509434,31 46,31.45 46,32 Z M30,39 C30,39.56 29.496124,40 28.8802756,40 L5.11972438,40 C4.50387597,40 4,39.56 4,39 C4,38.45 4.50387597,38 5.11972438,38 L28.8802756,38 C29.496124,38 30,38.45 30,39 Z M47,39 C47,39.56 46.4877408,40 45.8616462,40 L35.1383538,40 C34.5122592,40 34,39.56 34,39 C34,38.45 34.5122592,38 35.1383538,38 L45.8616462,38 C46.4877408,38 47,38.45 47,39 Z" id="Shape" fill="#0055C2"></path>
            <path d="M13,26 L20.7014879,26 L31,2 L23.2985121,2 L13,26 Z M25.5945503,26 L36,2 L33.4052931,2 L23,26 L25.5945503,26 Z" id="Shape" fill="#C5DDFF"></path>
        </g>
        <text id="Push" font-family="Helvetica-Bold, Helvetica" font-size="18" font-weight="bold" fill="#0055C2">
            <tspan x="138" y="263">Push</tspan>
        </text>
        <text id="Connect-with-Remote" font-family="Helvetica-Bold, Helvetica" font-size="18" font-weight="bold" fill="#0055C2">
            <tspan x="138" y="215">Connect with </tspan>
            <tspan x="138" y="237">Remote Repository</tspan>
        </text>
        <text id="Push-Copy" font-family="Helvetica-Bold, Helvetica" font-size="18" font-weight="bold" fill="#0055C2">
            <tspan x="568.496582" y="360">Push</tspan>
        </text>
        <text id="Clone-(for-the-first" font-family="Helvetica-Bold, Helvetica" font-size="18" font-weight="bold" fill="#0055C2">
            <tspan x="563.596527" y="215">Clone</tspan>
            <tspan x="535.700531" y="237" font-family="Helvetica" font-size="14" font-weight="normal">(for the first time)</tspan>
        </text>
        <text id="Pull-or-Fetch" font-family="Helvetica-Bold, Helvetica" font-size="18" font-weight="bold" fill="#0055C2">
            <tspan x="536.089202" y="263">Pull </tspan>
            <tspan x="574.093109" y="263" font-family="Helvetica" font-weight="normal">or </tspan>
            <tspan x="595.098968" y="263">Fetch</tspan>
        </text>
        <text id="Edit-&amp;-commit-on-top" font-family="Helvetica-Bold, Helvetica" font-size="18" font-weight="bold" fill="#0055C2">
            <tspan x="706.501953" y="319">Edit &amp; </tspan>
            <tspan x="700.494629" y="341">commit </tspan>
            <tspan x="707.98291" y="363" font-family="Helvetica" font-size="14" font-weight="normal">on topic </tspan>
            <tspan x="711.09668" y="380" font-family="Helvetica" font-size="14" font-weight="normal">branch</tspan>
        </text>
        <line x1="34.5" y1="149.5" x2="383.5" y2="149.5" id="Line" stroke="#006AE1" stroke-linecap="square"></line>
        <line x1="421.5" y1="149.5" x2="770.5" y2="149.5" id="Line-Copy" stroke="#006AE1" stroke-linecap="square"></line>
        <text id="Remote-Repository" font-family="Helvetica-Bold, Helvetica" font-size="18" font-weight="bold" fill="#12738D">
            <tspan x="303" y="176">Remote Repository</tspan>
        </text>
        <text id="Local-computer" font-family="Helvetica-Bold, Helvetica" font-size="18" font-weight="bold" fill="#006AE1">
            <tspan x="572" y="176">Local computer</tspan>
        </text>
        <text id="Local-computer-Copy" font-family="Helvetica-Bold, Helvetica" font-size="18" font-weight="bold" fill="#006AE1">
            <tspan x="43" y="176">Local computer</tspan>
        </text>
        <text id="Developer-B-(Team-me" fill-rule="nonzero" font-family="Helvetica-Bold, Helvetica" font-size="18" font-weight="bold" fill="#0055C2">
            <tspan x="543.980957" y="113">Developer B</tspan>
            <tspan x="530.142578" y="135">(Team member)</tspan>
        </text>
        <g id="avatar" transform="translate(578.000000, 40.000000)" fill-rule="nonzero">
            <path d="M18.0092747,2.6318291 C18.0092747,0.942283281 19.595251,-0.315693769 21.2554251,0.0699634288 C27.0984957,1.44731056 28.6937467,6.72714125 28.5360766,12.6130047 C28.4340547,16.4053004 28.7122962,19.7752098 28.9812629,22.0248768 C29.1667572,23.5766879 27.9517695,24.9448527 26.3657932,24.954035 L20.671118,25 C19.1964383,25.0091289 18,23.8337927 18,22.3738047 L18,2.6318291 L18.0092747,2.6318291 Z" id="XMLID_283_" fill="url(#linearGradient-4)"></path>
            <g id="XMLID_161_">
                <g id="XMLID_167_">
                    <path d="M18,2.91103884 C18,1.22135068 16.4375635,-0.0367323513 14.8020305,0.348957337 C9.04568528,1.72642051 7.47411168,7.006696 7.62944162,12.8930553 C7.72994924,16.6856706 7.45583756,20.0558638 7.19086294,22.3057203 C7.00812183,23.8576621 8.20507614,25.2259422 9.76751269,25.2351253 L15.377665,25.2810942 C16.8304569,25.2902238 18.0091371,24.1147886 18.0091371,22.6546776 L18.0091371,2.91103884 L18,2.91103884 Z" id="XMLID_284_" fill="url(#linearGradient-5)"></path>
                    <path d="M10.9553299,15.1796442 C10.9553299,15.1796442 10.5715736,14.114406 9.84974619,14.0225751 C9.23756345,13.9399273 8.47918782,14.7204898 8.61624365,15.785728 C8.75329949,16.8509661 9.05482234,18.6416683 9.05482234,18.6416683 C9.05482234,18.6416683 9.34720812,19.8997513 10.3979695,19.550794 C11.4304569,19.2018366 10.9553299,15.1796442 10.9553299,15.1796442 Z" id="XMLID_791_" fill="url(#linearGradient-6)"></path>
                    <path d="M25.1269036,15.1520949 C25.1269036,15.1520949 25.528934,14.0960398 26.2507614,14.013392 C26.8720812,13.9399273 27.6121827,14.7296729 27.4568528,15.794911 C27.3015228,16.8601492 26.9817259,18.6416683 26.9817259,18.6416683 C26.9817259,18.6416683 26.671066,19.8997513 25.6203046,19.5232447 C24.5786802,19.1651043 25.1269036,15.1520949 25.1269036,15.1520949 L25.1269036,15.1520949 Z" id="XMLID_759_" fill="url(#linearGradient-7)"></path>
                    <g id="XMLID_272_" transform="translate(0.000000, 4.233403)">
                        <g id="XMLID_276_">
                            <path d="M30.8192893,28.7063325 C27.0182741,27.9992347 24.3411168,26.6125885 22.1299492,23.6097188 L13.8609137,23.6097188 C11.6497462,26.6125885 8.98172589,27.9992347 5.1715736,28.7063325 C0.603045685,29.5603597 0,35.0518462 0,36.5854218 L0,43.7665965 L36,43.7665965 L36,36.5854218 C36,35.0518462 35.3969543,29.5603597 30.8192893,28.7063325 L30.8192893,28.7063325 Z" id="XMLID_282_" stroke="url(#linearGradient-9)" fill="url(#linearGradient-8)"></path>
                            <path d="M18.0730964,19.1100057 L13.4040609,19.1100057 L13.4040609,28.026784 C13.4040609,28.9267266 14.884264,28.9450928 18.0730964,28.9450928 C21.2619289,28.9450928 22.742132,28.9359097 22.742132,28.026784 L22.742132,19.1100057 L18.0730964,19.1100057 L18.0730964,19.1100057 Z" id="XMLID_281_" fill="url(#linearGradient-10)"></path>
                            <path d="M25.9035533,10.9095083 C25.8761421,4.85785345 24.7888325,0 18,0 C11.2111675,0 10.1238579,4.85785345 10.0964467,10.9095083 C10.0142132,10.5330017 10.315736,13.6368854 10.3431472,13.5358714 C11.4121827,18.6600344 15.7248731,22.3516357 18,22.3516357 C20.2751269,22.3516357 24.5878173,18.6692175 25.6568528,13.5450545 C25.684264,13.4807729 25.9857868,10.5330017 25.9035533,10.9095083 Z" id="XMLID_280_" fill="url(#linearGradient-11)"></path>
                        </g>
                        <path d="M18.6304569,17.0713602 C18.2832487,17.0713602 18.2467005,17.2917544 18,17.2917544 C17.7532995,17.2917544 17.7167513,17.0621772 17.3695431,17.0713602 C16.857868,17.0713602 15.4507614,17.7692749 15.4507614,17.7692749 C15.4507614,17.7692749 15.5969543,17.8427396 15.9258883,17.9713029 C16.7025381,18.2743447 16.7847716,18.7794146 18,18.7794146 C19.2152284,18.7794146 19.2974619,18.2743447 20.0741117,17.9713029 C20.4030457,17.8427396 20.5492386,17.7692749 20.5492386,17.7692749 C20.5492386,17.7692749 19.142132,17.0713602 18.6304569,17.0713602 L18.6304569,17.0713602 Z" id="XMLID_275_" fill="url(#linearGradient-12)"></path>
                        <ellipse id="XMLID_274_" fill="url(#linearGradient-13)" cx="25.9857868" cy="14.6837574" rx="1" ry="1"></ellipse>
                        <ellipse id="XMLID_273_" fill="url(#linearGradient-14)" cx="10.1055838" cy="14.8031376" rx="1" ry="1"></ellipse>
                    </g>
                    <g id="XMLID_172_" transform="translate(16.081218, 37.669026)">
                        <ellipse id="XMLID_260_" fill="url(#linearGradient-15)" cx="0.5" cy="0.495886742" rx="1" ry="1"></ellipse>
                        <ellipse id="XMLID_220_" fill="url(#linearGradient-16)" cx="0.5" cy="3.46202411" rx="1" ry="1"></ellipse>
                        <ellipse id="XMLID_210_" fill="url(#linearGradient-17)" cx="0.5" cy="6.42816147" rx="1" ry="1"></ellipse>
                    </g>
                    <path d="M26.2324873,5.48230342 C25.3918782,1.94681462 22.4406091,0 18,0 C13.5593909,0 10.6081218,1.94681462 9.76751269,5.48230342 C8.54314721,10.5972833 10.2426396,16.1806007 10.4071066,16.6397551 C10.4071066,16.6397551 9.94111675,14.1878707 10.8822335,12.0849436 C10.6903553,13.4073082 10.7360406,14.3990817 10.7360406,14.3990817 C10.7360406,14.3990817 14.8477157,13.2971112 18,11.295198 C19.3705584,10.4228047 20.5492386,9.38511575 21.1431472,8.19131433 C21.3350254,7.79644155 21.8284264,7.65869524 22.1939086,7.89745552 C23.1898477,8.54027167 24.057868,9.50449589 24.8345178,10.9095083 C26.1411168,13.278745 25.4101523,16.8142338 25.4101523,16.8142338 C25.5654822,16.3550794 27.4568528,10.5972833 26.2324873,5.48230342 L26.2324873,5.48230342 Z" id="XMLID_171_" fill="url(#linearGradient-18)"></path>
                </g>
                <g id="XMLID_163_" transform="translate(11.530964, 28.908360)">
                    <polygon id="XMLID_166_" fill="url(#linearGradient-19)" points="11.1380711 0 6.40507614 4.31605127 7.65685279 7.3097379 12.9015228 1.64377272"></polygon>
                    <polygon id="XMLID_165_" fill="url(#linearGradient-20)" points="0 1.68968816 5.19898477 7.27300555 6.32284264 4.21503731 1.78172589 0.0367323513"></polygon>
                </g>
            </g>
        </g>
        <g id="avatar-copy" transform="translate(502.000000, 386.000000)" fill-rule="nonzero">
            <path d="M12.1942452,1.78964379 C12.1942452,0.640752631 13.3476826,-0.214671763 14.5550819,0.0475751316 C18.8045878,0.984171183 19.9647704,4.57445605 19.8501012,8.57684317 C19.7759034,11.1556043 19.9782609,13.4471426 20.173873,14.9769162 C20.308778,16.0321477 19.4251506,16.9624998 18.2717132,16.9687438 L14.1301313,17 C13.0576369,17.0062076 12.1875,16.206979 12.1875,15.2141872 L12.1875,1.78964379 L12.1942452,1.78964379 Z" id="XMLID_283_" fill="url(#linearGradient-21)"></path>
            <g id="XMLID_161_" transform="translate(0.187500, 0.000000)">
                <g id="XMLID_167_">
                    <path d="M12.5,2.0013392 C12.5,0.839678592 11.4149746,-0.0252534915 10.2791878,0.239908169 C6.28172589,1.1869141 5.19035533,4.8171035 5.29822335,8.86397551 C5.3680203,11.4713985 5.17766497,13.7884064 4.99365482,15.3351827 C4.86675127,16.4021427 5.69796954,17.3428353 6.78299492,17.3491487 L10.678934,17.3807523 C11.6878173,17.3870289 12.5063452,16.5789172 12.5063452,15.5750909 L12.5063452,2.0013392 L12.5,2.0013392 Z" id="XMLID_284_" fill="url(#linearGradient-22)"></path>
                    <path d="M7.60786802,10.4360054 C7.60786802,10.4360054 7.34137056,9.7036541 6.84010152,9.64052037 C6.41497462,9.58370002 5.88832487,10.1203367 5.98350254,10.852688 C6.0786802,11.5850392 6.28807107,12.8161469 6.28807107,12.8161469 C6.28807107,12.8161469 6.49111675,13.681079 7.22081218,13.4411708 C7.93781726,13.2012627 7.60786802,10.4360054 7.60786802,10.4360054 Z" id="XMLID_791_" fill="url(#linearGradient-23)"></path>
                    <path d="M17.4492386,10.4170652 C17.4492386,10.4170652 17.7284264,9.69102736 18.2296954,9.634207 C18.6611675,9.58370002 19.1751269,10.1266501 19.0672589,10.8590013 C18.9593909,11.5913526 18.7373096,12.8161469 18.7373096,12.8161469 C18.7373096,12.8161469 18.5215736,13.681079 17.7918782,13.4222307 C17.0685279,13.1760092 17.4492386,10.4170652 17.4492386,10.4170652 L17.4492386,10.4170652 Z" id="XMLID_759_" fill="url(#linearGradient-24)"></path>
                    <g id="XMLID_272_" transform="translate(0.000000, 2.910465)">
                        <g id="XMLID_276_">
                            <path d="M21.4022843,19.7356036 C18.7626904,19.2494739 16.9035533,18.2961546 15.3680203,16.2316817 L9.62563452,16.2316817 C8.09010152,18.2961546 6.23730964,19.2494739 3.59137056,19.7356036 C0.418781726,20.3227473 0,24.0981443 0,25.1524775 L0,30.0895351 L25,30.0895351 L25,25.1524775 C25,24.0981443 24.5812183,20.3227473 21.4022843,19.7356036 L21.4022843,19.7356036 Z" id="XMLID_282_" stroke="url(#linearGradient-26)" fill="url(#linearGradient-25)"></path>
                            <path d="M12.5507614,13.1381289 L9.30837563,13.1381289 L9.30837563,19.268414 C9.30837563,19.8871245 10.3362944,19.8997513 12.5507614,19.8997513 C14.7652284,19.8997513 15.7931472,19.8934379 15.7931472,19.268414 L15.7931472,13.1381289 L12.5507614,13.1381289 L12.5507614,13.1381289 Z" id="XMLID_281_" fill="url(#linearGradient-27)"></path>
                            <path d="M17.9885787,7.50028697 C17.9695431,3.33977425 17.214467,0 12.5,0 C7.78553299,0 7.03045685,3.33977425 7.01142132,7.50028697 C6.95431472,7.24143868 7.16370558,9.37535871 7.18274112,9.30591161 C7.9251269,12.8287737 10.9200508,15.3667496 12.5,15.3667496 C14.0799492,15.3667496 17.0748731,12.835087 17.8172589,9.31222499 C17.8362944,9.26803138 18.0456853,7.24143868 17.9885787,7.50028697 Z" id="XMLID_280_" fill="url(#linearGradient-28)"></path>
                        </g>
                        <path d="M12.9378173,11.7365602 C12.6967005,11.7365602 12.6713198,11.8880811 12.5,11.8880811 C12.3286802,11.8880811 12.3032995,11.7302468 12.0621827,11.7365602 C11.7068528,11.7365602 10.7296954,12.2163765 10.7296954,12.2163765 C10.7296954,12.2163765 10.8312183,12.2668835 11.0596447,12.3552707 C11.5989848,12.563612 11.6560914,12.9108475 12.5,12.9108475 C13.3439086,12.9108475 13.4010152,12.563612 13.9403553,12.3552707 C14.1687817,12.2668835 14.2703046,12.2163765 14.2703046,12.2163765 C14.2703046,12.2163765 13.2931472,11.7365602 12.9378173,11.7365602 L12.9378173,11.7365602 Z" id="XMLID_275_" fill="url(#linearGradient-29)"></path>
                        <ellipse id="XMLID_274_" fill="url(#linearGradient-30)" cx="18.0456853" cy="10.0950832" rx="1" ry="1"></ellipse>
                        <ellipse id="XMLID_273_" fill="url(#linearGradient-31)" cx="7.0177665" cy="10.1771571" rx="1" ry="1"></ellipse>
                    </g>
                    <g id="XMLID_172_" transform="translate(11.167513, 25.897456)">
                        <ellipse id="XMLID_260_" fill="url(#linearGradient-32)" cx="0.5" cy="0.340922135" rx="1" ry="1"></ellipse>
                        <ellipse id="XMLID_220_" fill="url(#linearGradient-33)" cx="0.5" cy="2.38014157" rx="1" ry="1"></ellipse>
                        <ellipse id="XMLID_210_" fill="url(#linearGradient-34)" cx="0.5" cy="4.41936101" rx="1" ry="1"></ellipse>
                    </g>
                    <path d="M18.2170051,3.7690836 C17.6332487,1.33843505 15.5837563,0 12.5,0 C9.41624365,0 7.36675127,1.33843505 6.78299492,3.7690836 C5.93274112,7.28563229 7.11294416,11.124163 7.22715736,11.4398316 C7.22715736,11.4398316 6.9035533,9.75416109 7.5571066,8.3083987 C7.42385787,9.21752439 7.45558376,9.89936866 7.45558376,9.89936866 C7.45558376,9.89936866 10.3109137,9.14176392 12.5,7.76544863 C13.4517766,7.16567821 14.2703046,6.45226707 14.6827411,5.6315286 C14.8159898,5.36005357 15.1586294,5.26535297 15.4124365,5.42950067 C16.1040609,5.87143677 16.7068528,6.53434092 17.2461929,7.50028697 C18.1535533,9.12913717 17.6459391,11.5597857 17.6459391,11.5597857 C17.7538071,11.2441171 19.0672589,7.28563229 18.2170051,3.7690836 L18.2170051,3.7690836 Z" id="XMLID_171_" fill="url(#linearGradient-35)"></path>
                </g>
                <g id="XMLID_163_" transform="translate(8.007614, 19.874498)">
                    <polygon id="XMLID_166_" fill="url(#linearGradient-36)" points="7.73477157 0 4.44796954 2.96728525 5.31725888 5.02544481 8.95939086 1.13009374"></polygon>
                    <polygon id="XMLID_165_" fill="url(#linearGradient-37)" points="0 1.16166061 3.61040609 5.00019131 4.39086294 2.89783815 1.23730964 0.0252534915"></polygon>
                </g>
            </g>
        </g>
        <text id="Developer-A-(Project" fill-rule="nonzero" font-family="Helvetica-Bold, Helvetica" font-size="18" font-weight="bold" fill="#0055C2">
            <tspan x="157.310547" y="113">Developer A</tspan>
            <tspan x="140.980469" y="135">(Project Leader)</tspan>
        </text>
        <g id="Path-Copy-5">
            <use fill="black" fill-opacity="1" filter="url(#filter-39)" xlink:href="#path-38"></use>
            <use fill="#12738D" fill-rule="evenodd" xlink:href="#path-38"></use>
        </g>
        <g id="Path-Copy-7">
            <use fill="black" fill-opacity="1" filter="url(#filter-41)" xlink:href="#path-40"></use>
            <use fill="#12738D" fill-rule="evenodd" xlink:href="#path-40"></use>
        </g>
        <g id="Path-Copy-11">
            <use fill="black" fill-opacity="1" filter="url(#filter-43)" xlink:href="#path-42"></use>
            <use fill="#FFC159" fill-rule="evenodd" xlink:href="#path-42"></use>
        </g>
        <g id="edit-(3)-copy" transform="translate(679.000000, 321.000000)" fill-rule="nonzero">
            <path d="M10.1942637,3.69397018 L0.992984571,12.8956048 C0.911577905,12.9770147 0.856919144,13.0805214 0.833660096,13.1921692 L0.0114527722,17.3045276 C-0.026924656,17.4952592 0.0323859148,17.6929687 0.170777247,17.8302024 C0.281257722,17.9406871 0.430115625,18 0.582462385,18 L0.696431717,17.98837 L4.80746834,17.1661309 C4.92143767,17.144034 5.02377748,17.0882101 5.10518414,17.0068003 L14.3064633,7.80516565 L10.1942637,3.69397018 Z M17.1487189,0.850441777 C16.0148403,-0.283480592 14.1703979,-0.283480592 13.0376822,0.850441777 L11.4281562,2.46003004 L15.5391928,6.57122551 L17.1487189,4.96163724 C17.6976324,4.41386551 18,3.68350321 18,2.90662101 C18,2.12973881 17.6976324,1.3993765 17.1487189,0.850441777 Z" id="Shape" fill="#42A5F5"></path>
            <path d="M12.1952906,5.81855758 L0,17.8311506 C0.111538712,17.9410184 0.261822451,18 0.415628465,18 L0.530689453,17.988435 L4.68110365,17.1707876 C4.79616463,17.148814 4.8994847,17.0933019 4.98167112,17.0123467 L14.2710847,7.86209777 L12.1952906,5.81855758 Z M17.1405649,0.947368421 L13.4410019,4.59150827 L15.516796,6.63620496 L17.141739,5.03560529 C17.6947362,4.49089254 18,3.76460888 18,2.99206511 C18,2.21952134 17.6947362,1.49323767 17.1405649,0.947368421 L17.1405649,0.947368421 Z" id="Shape" fill="#1576ED"></path>
        </g>
        <g id="Path-Copy-6">
            <use fill="black" fill-opacity="1" filter="url(#filter-45)" xlink:href="#path-44"></use>
            <use fill="#12738D" fill-rule="evenodd" xlink:href="#path-44"></use>
        </g>
        <g id="Path-Copy-8">
            <use fill="black" fill-opacity="1" filter="url(#filter-47)" xlink:href="#path-46"></use>
            <use fill="#12738D" fill-rule="evenodd" xlink:href="#path-46"></use>
        </g>
        <g id="Group-5" transform="translate(378.000000, 469.000000)">
            <g id="Path-Copy-10">
                <use fill="black" fill-opacity="1" filter="url(#filter-49)" xlink:href="#path-48"></use>
                <use fill="#12738D" fill-rule="evenodd" xlink:href="#path-48"></use>
            </g>
            <g id="Path-Copy-12">
                <use fill="black" fill-opacity="1" filter="url(#filter-51)" xlink:href="#path-50"></use>
                <use fill="#FFC159" fill-rule="evenodd" xlink:href="#path-50"></use>
            </g>
        </g>
        <g id="Path-Copy-9">
            <use fill="black" fill-opacity="1" filter="url(#filter-53)" xlink:href="#path-52"></use>
            <use fill="#FFC159" fill-rule="evenodd" xlink:href="#path-52"></use>
        </g>
        <g id="web-designer" transform="translate(187.000000, 40.000000)" fill-rule="nonzero">
            <path d="M40.1,34 L27.9,29 L27.9,29 L27.5,30.8 L26.5,35 C26.4,35.4 25.9,35.5 25.7,35.2 L21.7,31.1 L21.7,31.1 L17.8,35.3 C17.5,35.6 17.1,35.5 17,35.1 L16,30.9 L15.5,29 L15.5,29 L3.3,34 C1.3,34.8 0,36.8 0,38.9 L0,46 C0,47.1 0.9,47.9 1.9,47.9 L41.5,47.9 C42.6,47.9 43.4,47 43.4,46 L43.4,38.9 C43.4,36.8 42.1,34.8 40.1,34 Z" id="Path" fill="#444445"></path>
            <path d="M27.9,23.9 L27.9,26.6 L21.7,31.1 L15.5,26.6 L15.5,23.9 C15.7,24.1 15.9,24.2 16,24.3 L19.2,26.5 C19.5,26.7 19.9,26.9 20.3,26.9 L23,26.9 C23.4,26.9 23.8,26.8 24.1,26.5 L27.3,24.3 C27.5,24.2 27.7,24 27.9,23.9 Z" id="Path" fill="#F7BA49"></path>
            <path d="M29.5,6.3 L23.3,4.3 L16.6,4.7 L14.1,7.3 L13,10 L13,18.5 C13,20.8 14.1,23 16,24.3 L19.1,26.5 C19.4,26.7 19.8,26.9 20.3,26.9 L23,26.9 C23.4,26.9 23.8,26.8 24.1,26.5 L27.3,24.3 C29.2,23 30.4,20.8 30.4,18.5 L30.4,9.4 L29.5,6.3 Z" id="Path" fill="#FFCB66"></path>
            <path d="M27.9,26.6 L27.9,29 L27.5,30.9 L26.5,35.1 C26.4,35.5 25.9,35.6 25.7,35.3 L21.7,31.1 L27.9,26.6 Z M21.7,31.1 L17.8,35.3 C17.5,35.6 17.1,35.5 17,35.1 L16,30.9 L15.5,29 L15.5,26.6 L21.7,31.1 Z" id="Shape" fill="#E5E5E4"></path>
            <path d="M28.9,4.1 C28.9,4.1 26.8,-0.7 21.5,0.5 C21.5,0.5 17.2,0.5 15.7,0 C15.7,0 15.7,1 16.5,1.9 C16.5,1.9 7,4 13.1,16.6 C13.1,16.6 11.7,5 19.8,6.7 C19.8,6.7 21.4,9.4 25.7,7.4 C25.7,7.4 30,6 30,10 L30.2,16.6 C30.3,16.6 36.6,7.3 28.9,4.1 Z" id="Path" fill="#EA715F"></path>
        </g>
        <g id="web-designer-copy" transform="translate(290.000000, 386.000000)" fill-rule="nonzero">
            <path d="M27.718894,23.4391534 L19.2857143,20 L19.2857143,20 L19.0092166,21.2380952 L18.3179724,24.1269841 C18.2488479,24.4021164 17.9032258,24.4708995 17.764977,24.2645503 L15,21.4444444 L15,21.4444444 L12.3041475,24.3333333 C12.0967742,24.5396825 11.8202765,24.4708995 11.7511521,24.1957672 L11.0599078,21.3068783 L10.7142857,20 L10.7142857,20 L2.28110599,23.4391534 C0.898617512,23.989418 0,25.3650794 0,26.8095238 L0,31.6931217 C0,32.4497354 0.622119816,33 1.31336406,33 L28.6866359,33 C29.4470046,33 30,32.3809524 30,31.6931217 L30,26.8095238 C30,25.3650794 29.1013825,23.989418 27.718894,23.4391534 Z" id="Path" fill="#444445"></path>
            <path d="M19,16 L19,17.875 L14.5,21 L10,17.875 L10,16 C10.1451613,16.1388889 10.2903226,16.2083333 10.3629032,16.2777778 L12.6854839,17.8055556 C12.9032258,17.9444444 13.1935484,18.0833333 13.483871,18.0833333 L15.4435484,18.0833333 C15.733871,18.0833333 16.0241935,18.0138889 16.2419355,17.8055556 L18.5645161,16.2777778 C18.7096774,16.2083333 18.8548387,16.0694444 19,16 Z" id="Path" fill="#F7BA49"></path>
            <path d="M20.3793103,4.4159292 L16.1034483,3 L11.4827586,3.28318584 L9.75862069,5.12389381 L9,7.03539823 L9,13.0530973 C9,14.6814159 9.75862069,16.2389381 11.0689655,17.159292 L13.2068966,18.7168142 C13.4137931,18.8584071 13.6896552,19 14.0344828,19 L15.8965517,19 C16.1724138,19 16.4482759,18.9292035 16.6551724,18.7168142 L18.862069,17.159292 C20.1724138,16.2389381 21,14.6814159 21,13.0530973 L21,6.61061947 L20.3793103,4.4159292 Z" id="Path" fill="#FFCB66"></path>
            <path d="M19,18 L19,19.6226388 L18.7096774,20.9072279 L17.983871,23.7468458 C17.9112903,24.0172856 17.5483871,24.0848956 17.4032258,23.8820657 L14.5,21.0424478 L19,18 Z M14.5,21.0424478 L11.6693548,23.8820657 C11.4516129,24.0848956 11.1612903,24.0172856 11.0887097,23.7468458 L10.3629032,20.9072279 L10,19.6226388 L10,18 L14.5,21.0424478 Z" id="Shape" fill="#E5E5E4"></path>
            <path d="M20.3540492,2.71686747 C20.3540492,2.71686747 18.9001074,-0.463855422 15.2306354,0.331325301 C15.2306354,0.331325301 12.2535166,0.331325301 11.2149867,0 C11.2149867,0 11.2149867,0.662650602 11.7688693,1.25903614 C11.7688693,1.25903614 5.19151376,2.65060241 9.41486837,11 C9.41486837,11 8.44557387,3.31325301 14.0536349,4.43975904 C14.0536349,4.43975904 15.1614001,6.22891566 18.1385189,4.90361446 C18.1385189,4.90361446 21.1156377,3.97590361 21.1156377,6.62650602 L21.2541084,11 C21.3233437,11 25.6851689,4.8373494 20.3540492,2.71686747 Z" id="Path" fill="#EA715F"></path>
        </g>
        <g id="github-copy-2" transform="translate(267.000000, 156.000000)" fill="#000000" fill-rule="nonzero">
            <path d="M13.4999387,0 C6.87937924,0.000271081747 1.23607305,4.74135949 0.175545699,11.1941694 C-0.884981649,17.6469793 2.95029255,23.9069148 9.23099992,25.974484 C9.90593522,26.0911377 10.159036,25.691287 10.159036,25.3413661 C10.159036,25.0248204 10.1421491,23.9751642 10.1421491,22.8588906 C6.75058566,23.4753342 5.87316976,22.0425416 5.60319564,21.2927966 C5.30362658,20.5636112 4.8287418,19.9174202 4.21957826,19.4100638 C3.74712354,19.1601488 3.07218823,18.5436918 4.20269137,18.5270575 C5.07876595,18.6209243 5.85340291,19.1308305 6.27813095,19.8932194 C6.65100758,20.5546364 7.27514232,21.0423284 8.0127586,21.2486385 C8.75037489,21.4549485 9.54081908,21.3629118 10.2096021,20.9928453 C10.2680394,20.3152393 10.5738776,19.681694 11.0701716,19.2101718 C8.06670951,18.8769518 4.92826033,17.7272895 4.92826033,12.6290772 C4.90929156,11.3043885 5.4043399,10.0227336 6.31187771,9.04696241 C5.89919769,7.89564668 5.94748412,6.6321622 6.44686477,5.51483064 C6.44686477,5.51483064 7.57734092,5.16493633 10.159009,6.88103255 C12.3677861,6.28120101 14.6995849,6.28120101 16.908362,6.88103255 C19.4899626,5.14828866 20.6205062,5.51483064 20.6205062,5.51483064 C21.1199547,6.63214676 21.1682421,7.89565703 20.7554933,9.04696241 C21.665764,10.0210635 22.1612445,11.3038374 22.1391107,12.6290772 C22.1391107,17.7439639 18.9837611,18.8769518 15.980326,19.2101718 C16.6321685,19.8625341 16.9646919,20.7624233 16.8914887,21.6759996 C16.8914887,23.4587532 16.8746018,24.8915458 16.8746018,25.3414194 C16.8746018,25.6913137 17.1277025,26.1078253 17.8026378,25.9745373 C24.0717688,23.89027 27.88944,17.6292137 26.8216501,11.1831789 C25.7538602,4.737144 20.1148931,0.00339950511 13.4999387,0 Z" id="Path"></path>
        </g>
        <path id="Line-45" d="M336,239 L345,243.5 L336,248 L336,244 L108,244 L108,243 L336,243 L336,239 Z" fill="#0055C2" fill-rule="nonzero"></path>
        <path id="Line-45-Copy-4" d="M352,494 L361,498.5 L352,503 L352,499 L304,499 L304,498 L352,498 L352,494 Z" fill="#0055C2" fill-rule="nonzero"></path>
        <path id="Line-45-Copy-6" d="M516,446 L516,451 L515,451 L515,446 L516,446 Z M516,438 L516,443 L515,443 L515,438 L516,438 Z M515.5,422 L520,431 L516,431 L516,435 L515,435 L515,431 L511,431 L515.5,422 Z" fill="#0055C2" fill-rule="nonzero"></path>
        <g id="Group-6" transform="translate(529.000000, 365.000000)">
            <path id="Line-45-Copy-8" d="M150,35 L150,40 L149,40 L149,35 L150,35 Z M150,27 L150,32 L149,32 L149,27 L150,27 Z M150,19 L150,24 L149,24 L149,19 L150,19 Z M150,11 L150,16 L149,16 L149,11 L150,11 Z M149.5,0 L154,9 L145,9 L149.5,0 Z" fill="#0055C2" fill-rule="nonzero"></path>
            <line x1="0.524475524" y1="39.5" x2="149.475524" y2="39.5" id="Line-45-Copy-7" stroke="#0055C2" stroke-linecap="square" stroke-dasharray="4"></line>
        </g>
        <line x1="304.5" y1="450.5" x2="515.5" y2="450.5" id="Line-45-Copy-5" stroke="#0055C2" stroke-linecap="square" stroke-dasharray="4"></line>
        <line x1="304.5" y1="498.5" x2="304.5" y2="426.5" id="Line-2" stroke="#0055C2" stroke-linecap="square"></line>
        <path id="Line-45-Copy" d="M639.921512,239 L648.921512,243.5 L639.921512,248 L639.921,244 L450.078488,244 L450.078488,243 L639.921,243 L639.921512,239 Z" fill="#0055C2" fill-rule="nonzero"></path>
        <path id="Line-45-Copy-3" d="M639.921512,337 L648.921512,341.5 L639.921512,346 L639.921,342 L450.078488,342 L450.078488,341 L639.921,341 L639.921512,337 Z" transform="translate(549.500000, 341.500000) scale(-1, 1) translate(-549.500000, -341.500000) " fill="#0055C2" fill-rule="nonzero"></path>
        <path id="Line-45-Copy-2" d="M679,280 L679,298 L683,298 L678.5,307 L674,298 L678,298 L678,280 L679,280 Z" fill="#0055C2" fill-rule="nonzero"></path>
        <g id="Rectangle-Copy-48" transform="translate(242.587931, 408.587931) rotate(-90.000000) translate(-242.587931, -408.587931) ">
            <use fill="black" fill-opacity="1" filter="url(#filter-55)" xlink:href="#path-54"></use>
            <use stroke="#199ABD" stroke-width="1" fill="#FFFFFF" fill-rule="evenodd" xlink:href="#path-54"></use>
        </g>
        <text id="Review-code" font-family="Helvetica-Bold, Helvetica" font-size="18" font-weight="bold" fill="#199ABD">
            <tspan x="201.983398" y="403">Review </tspan>
            <tspan x="211.994141" y="425">code</tspan>
        </text>
        <g id="Group-5-Copy-8" transform="translate(408.250000, 398.000000) scale(-1, 1) translate(-408.250000, -398.000000) translate(322.500000, 379.500000)" fill="#FFC0C0">
            <rect id="Rectangle" transform="translate(79.000000, 18.000000) rotate(-540.000000) translate(-79.000000, -18.000000) " x="0" y="7.5" width="158" height="21"></rect>
            <path d="M164.154152,11.065753 L179.969205,24.7436368 C180.386933,25.104915 180.432694,25.7364241 180.071416,26.1541519 C179.881466,26.3737818 179.605429,26.5 179.315053,26.5 L147.684947,26.5 C147.132662,26.5 146.684947,26.0522847 146.684947,25.5 C146.684947,25.2096238 146.811165,24.933587 147.030795,24.7436368 L162.845848,11.065753 C163.221455,10.7409039 163.778545,10.7409039 164.154152,11.065753 Z" id="Triangle-Copy" transform="translate(163.500000, 18.500000) scale(-1, 1) rotate(-450.000000) translate(-163.500000, -18.500000) "></path>
        </g>
        <path d="M404.91847,487.408889 L404.918177,489.433439 L412.150456,489.433889 L412.150456,493.933889 L404.918177,493.933439 L404.91847,496.408889 L399.304257,492.166947 C399.121974,492.029219 399.10172,491.85097 399.243496,491.704238 L399.304257,491.650831 L404.91847,487.408889 Z" id="Path" fill="#DE4040" transform="translate(405.650456, 491.908889) rotate(43.000000) translate(-405.650456, -491.908889) "></path>
        <text id="Pull-Request" font-family="Helvetica-Bold, Helvetica" font-size="18" font-weight="bold" fill="#199ABD">
            <tspan x="357.490234" y="402">Pull Request</tspan>
        </text>
        <text id="If-further-edit-is-r" font-family="Helvetica" font-size="14" font-weight="normal" fill="#006AE1">
            <tspan x="336.631348" y="431">If further edit is required, </tspan>
            <tspan x="359.186523" y="448">provide feedback</tspan>
        </text>
        <text id="If-ready-to-merge-wi" font-family="Helvetica" font-size="14" font-weight="normal" fill="#006AE1">
            <tspan x="216.693359" y="515">If ready to merge with </tspan>
            <tspan x="227.583008" y="532">the master branch</tspan>
        </text>
        <text id="continue-edits-based" font-family="Helvetica" font-size="14" font-weight="normal" fill="#006AE1">
            <tspan x="570.303711" y="419">continue edits </tspan>
            <tspan x="554.341797" y="436">based on feedback</tspan>
        </text>
        <text id="Merge" font-family="Helvetica-Bold, Helvetica" font-size="18" font-weight="bold" fill="#199ABD">
            <tspan x="375.992188" y="528">Merge</tspan>
        </text>
        <g id="Group-2-Copy-4" transform="translate(110.000000, 245.000000)">
            <circle id="Oval" fill="#006AE1" cx="10" cy="12" r="10"></circle>
            <text id="2" font-family="Helvetica-Bold, Helvetica" font-size="18" font-weight="bold" fill="#FFFFFF">
                <tspan x="5.49462891" y="18">2</tspan>
            </text>
        </g>
        <g id="Group-2-Copy-12" transform="translate(110.000000, 198.000000)">
            <circle id="Oval" fill="#006AE1" cx="10" cy="12" r="10"></circle>
            <text id="1" font-family="Helvetica-Bold, Helvetica" font-size="18" font-weight="bold" fill="#FFFFFF">
                <tspan x="5.49462891" y="18">1</tspan>
            </text>
        </g>
        <g id="Group-2-Copy-5" transform="translate(534.000000, 198.000000)">
            <circle id="Oval" fill="#006AE1" cx="10" cy="12" r="10"></circle>
            <text id="3" font-family="Helvetica-Bold, Helvetica" font-size="18" font-weight="bold" fill="#FFFFFF">
                <tspan x="5.49462891" y="18">3</tspan>
            </text>
        </g>
        <g id="Group-2-Copy-6" transform="translate(513.000000, 245.000000)">
            <circle id="Oval" fill="#006AE1" cx="10" cy="12" r="10"></circle>
            <text id="4" font-family="Helvetica-Bold, Helvetica" font-size="18" font-weight="bold" fill="#FFFFFF">
                <tspan x="5.49462891" y="18">4</tspan>
            </text>
        </g>
        <g id="Group-2-Copy-7" transform="translate(723.000000, 277.000000)">
            <circle id="Oval" fill="#006AE1" cx="10" cy="12" r="10"></circle>
            <text id="5" font-family="Helvetica-Bold, Helvetica" font-size="18" font-weight="bold" fill="#FFFFFF">
                <tspan x="5.49462891" y="18">5</tspan>
            </text>
        </g>
        <g id="Group-2-Copy-8" transform="translate(546.000000, 342.000000)">
            <circle id="Oval" fill="#006AE1" cx="10" cy="12" r="10"></circle>
            <text id="6" font-family="Helvetica-Bold, Helvetica" font-size="18" font-weight="bold" fill="#FFFFFF">
                <tspan x="5.49462891" y="18">6</tspan>
            </text>
        </g>
        <g id="Group-2-Copy-9" transform="translate(402.000000, 365.000000)">
            <circle id="Oval" fill="#006AE1" cx="10" cy="12" r="10"></circle>
            <text id="7" font-family="Helvetica-Bold, Helvetica" font-size="18" font-weight="bold" fill="#FFFFFF">
                <tspan x="5.49462891" y="18">7</tspan>
            </text>
        </g>
        <g id="Group-2-Copy-10" transform="translate(183.000000, 373.000000)">
            <circle id="Oval" fill="#006AE1" cx="10" cy="12" r="10"></circle>
            <text id="8" font-family="Helvetica-Bold, Helvetica" font-size="18" font-weight="bold" fill="#FFFFFF">
                <tspan x="5.49462891" y="18">8</tspan>
            </text>
        </g>
        <g id="Group-2-Copy-11" transform="translate(353.000000, 511.000000)">
            <circle id="Oval" fill="#006AE1" cx="10" cy="12" r="10"></circle>
            <text id="9" font-family="Helvetica-Bold, Helvetica" font-size="18" font-weight="bold" fill="#FFFFFF">
                <tspan x="5.49462891" y="18">9</tspan>
            </text>
        </g>
    </g>
</svg>