<?xml version="1.0" encoding="UTF-8"?>
<svg width="800px" height="600px" viewBox="0 0 800 600" version="1.1" xmlns="http://www.w3.org/2000/svg" xmlns:xlink="http://www.w3.org/1999/xlink">
    <title>2041-10-17-19-10_MergeOperationOnGitHub</title>
    <defs>
        <path d="M8.68744595,14.5405413 C10.6544909,13.5649687 12,11.5915112 12,9.31636202 C12,6.07252388 9.26504479,3.44227578 5.89152197,3.44227578 C4.52034181,3.44227578 3.25480793,3.87689217 2.23537065,4.61058921 L2.23537065,1.05770107 C2.23537065,0.476155373 1.74046224,0 1.11695169,0 C0.493934821,0 0.0167986821,0.476630104 0.0167986821,1.05770107 L0.0167986821,1.80184219 L0,9.32158406 C-0.0041824725,11.2003327 0.951817666,12.865215 2.41753644,13.8939574 C2.4777647,13.9362085 2.55848043,13.9312238 2.6127846,13.8823265 C2.66758244,13.8334292 2.6779496,13.7558106 2.63746831,13.6950451 C0.724974359,10.8146136 1.16014819,5.53963813 5.89176881,5.53963813 C8.05899866,5.53963813 9.80709909,7.22944376 9.81623206,9.31351363 C9.82240299,10.8599505 9.11620201,12.0365717 8.19549958,12.7781018 C6.36026565,14.2561773 3.64974731,12.6382934 4.49738595,10.4697214 C4.5894562,10.2335427 4.71879884,9.9959397 4.88664808,9.76189723 L5.12361171,9.47705853 C5.19766284,9.39967734 5.25048599,9.29903433 5.2146946,9.19411874 C5.01401603,8.62800181 3.46832203,8.97526767 3.04005964,10.0315445 C3.34292878,9.79631524 3.65986763,9.66433998 3.96940137,9.71489885 C2.38890334,11.275815 3.44141679,13.9563846 5.46005069,14.7513219 C6.40494316,15.1232738 7.55964718,15.0976383 8.68744595,14.5405413" id="path-1"></path>
        <linearGradient x1="28.568518%" y1="104.445731%" x2="78.3472072%" y2="20.6880271%" id="linearGradient-3">
            <stop stop-color="#000F98" offset="0%"></stop>
            <stop stop-color="#00A5FD" offset="100%"></stop>
        </linearGradient>
        <path d="M307,180.175862 L492,180.175862 C494.209139,180.175862 496,181.966723 496,184.175862 L496,236.25675 C496,238.465889 494.209139,240.25675 492,240.25675 C491.996943,240.25675 491.993887,240.256747 491.99083,240.25674 L380,240 L380,240 L353.771689,262.339568 L348.033333,240.265931 L307,240.265931 C304.790861,240.265931 303,238.47507 303,236.265931 L303,184.175862 C303,181.966723 304.790861,180.175862 307,180.175862 Z" id="path-4"></path>
        <filter x="-1.6%" y="-1.2%" width="102.1%" height="104.9%" filterUnits="objectBoundingBox" id="filter-5">
            <feOffset dx="-1" dy="1" in="SourceAlpha" result="shadowOffsetOuter1"></feOffset>
            <feGaussianBlur stdDeviation="0.5" in="shadowOffsetOuter1" result="shadowBlurOuter1"></feGaussianBlur>
            <feColorMatrix values="0 0 0 0 0   0 0 0 0 0   0 0 0 0 0  0 0 0 0.5 0" type="matrix" in="shadowBlurOuter1"></feColorMatrix>
        </filter>
        <circle id="path-6" cx="622" cy="238" r="11"></circle>
        <mask id="mask-7" maskContentUnits="userSpaceOnUse" maskUnits="objectBoundingBox" x="0" y="0" width="22" height="22" fill="white">
            <use xlink:href="#path-6"></use>
        </mask>
        <circle id="path-8" cx="666" cy="238" r="11"></circle>
        <mask id="mask-9" maskContentUnits="userSpaceOnUse" maskUnits="objectBoundingBox" x="0" y="0" width="22" height="22" fill="white">
            <use xlink:href="#path-8"></use>
        </mask>
    </defs>
    <g id="2041-10-17-19-10_MergeOperationOnGitHub" stroke="none" stroke-width="1" fill="none" fill-rule="evenodd">
        <rect fill="#FFFFFF" x="0" y="0" width="800" height="600"></rect>
        <g id="bloovee-winner-logo" transform="translate(725.000000, 580.000000)">
            <path d="M13,13.7751507 C13,14.396312 13.4732558,14.8717809 14.0514961,14.8717809 C14.6474304,14.8717809 15.1204503,14.3968042 15.1204503,13.7751507 L15.1204503,2.09687626 C15.1204503,1.49368045 14.6474304,1 14.0514961,1 C13.4557977,1 13,1.49392656 13,2.09687626 L13,13.7751507 Z M21.7920364,15 C24.6483217,15 26.751078,12.7149437 26.751078,9.97312215 L26.751078,9.93645297 C26.751078,7.17641992 24.6657798,4.92778666 21.8269526,4.92778666 C18.9881254,4.92778666 16.885369,7.212843 16.885369,9.97312215 L16.885369,10.0095452 C16.885369,12.7516128 18.9706673,15 21.7920364,15 Z M21.8269526,13.0621935 C20.179994,13.0621935 19.0055834,11.6547366 19.0055834,9.97312215 L19.0055834,9.93645297 C19.0055834,8.25459244 20.0919958,6.86534709 21.7920364,6.86534709 C23.456689,6.86534709 24.6306277,8.27305008 24.6306277,9.97312215 L24.6306277,10.0095452 C24.6306277,11.6731942 23.5444513,13.0621935 21.8269526,13.0621935 Z M32.8092717,15 C35.665557,15 37.7683133,12.7149437 37.7683133,9.97312215 L37.7683133,9.93645297 C37.7683133,7.17641992 35.6830151,4.92778666 32.8441878,4.92778666 C30.0053606,4.92778666 27.9026043,7.212843 27.9026043,9.97312215 L27.9026043,10.0095452 C27.9026043,12.7516128 29.9879025,15 32.8092717,15 Z M32.8441878,13.0621935 C31.1969933,13.0621935 30.0228187,11.6547366 30.0228187,9.97312215 L30.0228187,9.93645297 C30.0228187,8.25459244 31.109231,6.86534709 32.8092717,6.86534709 C34.4739243,6.86534709 35.647863,8.27305008 35.647863,9.97312215 L35.647863,10.0095452 C35.647863,11.6731942 34.5614506,13.0621935 32.8441878,13.0621935 Z M44.1416963,13.9944275 L47.2261164,6.6096472 C47.2784906,6.49988574 47.3487948,6.28060893 47.3487948,6.07954366 C47.3487948,5.47610175 46.8929971,5.01933658 46.3147568,5.01933658 C45.7539746,5.01933658 45.4737015,5.40300947 45.3158709,5.78692847 L42.8976893,12.2215093 L40.5144239,5.82335156 C40.3393711,5.36634029 40.041404,5.01933658 39.4629278,5.01933658 C38.8846875,5.01933658 38.4116676,5.53098247 38.4116676,6.07954366 C38.4116676,6.28060893 38.4817358,6.46346265 38.534346,6.62785874 L41.6182943,13.9944275 C41.8638872,14.5796579 42.2491448,14.9633308 42.8273851,14.9633308 L42.9326055,14.9633308 C43.5108458,14.9633308 43.8965752,14.5612003 44.1416963,13.9944275 Z M50.0949054,9.27837643 C50.2876522,7.77961573 51.1987758,6.73762019 52.4956289,6.73762019 C53.8974665,6.73762019 54.7036056,7.8524619 54.8437422,9.27837643 L50.0949054,9.27837643 Z M56.070527,13.72027 C56.2281217,13.5558739 56.3508002,13.3181395 56.3508002,13.0439819 C56.3508002,12.5320899 55.9830006,12.1481709 55.5095089,12.1481709 C55.2641519,12.1481709 55.1242513,12.2215093 54.9664207,12.3492362 C54.3704864,12.8611282 53.6695676,13.1901665 52.7759021,13.1901665 C51.4089807,13.1901665 50.3402624,12.3128131 50.1123635,10.7409601 L55.9126964,10.7409601 C56.4560206,10.7409601 56.9115824,10.3021604 56.9115824,9.68050697 C56.9115824,7.45057746 55.4568987,4.92778666 52.513087,4.92778666 C49.8672425,4.92778666 47.9919132,7.19438536 47.9919132,9.95466451 L47.9919132,9.9913337 C47.9919132,12.9708897 50.0597533,15 52.7409859,15 C54.1779755,15 55.2292357,14.5063195 56.070527,13.72027 Z M60.1833231,9.27837643 C60.3763058,7.77961573 61.2871935,6.73762019 62.5842825,6.73762019 C63.9858841,6.73762019 64.7920233,7.8524619 64.9321598,9.27837643 L60.1833231,9.27837643 Z M66.1589447,13.72027 C66.3167752,13.5558739 66.4394537,13.3181395 66.4394537,13.0439819 C66.4394537,12.5320899 66.0714183,12.1481709 65.5981624,12.1481709 C65.3528055,12.1481709 65.2126689,12.2215093 65.0548383,12.3492362 C64.4591399,12.8611282 63.7582212,13.1901665 62.8643197,13.1901665 C61.4976342,13.1901665 60.4289159,12.3128131 60.2007812,10.7409601 L66.0011141,10.7409601 C66.5444382,10.7409601 67,10.3021604 67,9.68050697 C67,7.45057746 65.5455522,4.92778666 62.6015046,4.92778666 C59.9556601,4.92778666 58.0805667,7.19438536 58.0805667,9.95466451 L58.0805667,9.9913337 C58.0805667,12.9708897 60.1484069,15 62.8294035,15 C64.2663932,15 65.3178893,14.5063195 66.1589447,13.72027 L66.1589447,13.72027 Z" id="Fill-1" fill="#030060"></path>
            <g id="Group-4">
                <mask id="mask-2" fill="white">
                    <use xlink:href="#path-1"></use>
                </mask>
                <g id="Clip-3"></g>
                <path d="M8.68744595,14.5405413 C10.6544909,13.5649687 12,11.5915112 12,9.31636202 C12,6.07252388 9.26504479,3.44227578 5.89152197,3.44227578 C4.52034181,3.44227578 3.25480793,3.87689217 2.23537065,4.61058921 L2.23537065,1.05770107 C2.23537065,0.476155373 1.74046224,0 1.11695169,0 C0.493934821,0 0.0167986821,0.476630104 0.0167986821,1.05770107 L0.0167986821,1.80184219 L0,9.32158406 C-0.0041824725,11.2003327 0.951817666,12.865215 2.41753644,13.8939574 C2.4777647,13.9362085 2.55848043,13.9312238 2.6127846,13.8823265 C2.66758244,13.8334292 2.6779496,13.7558106 2.63746831,13.6950451 C0.724974359,10.8146136 1.16014819,5.53963813 5.89176881,5.53963813 C8.05899866,5.53963813 9.80709909,7.22944376 9.81623206,9.31351363 C9.82240299,10.8599505 9.11620201,12.0365717 8.19549958,12.7781018 C6.36026565,14.2561773 3.64974731,12.6382934 4.49738595,10.4697214 C4.5894562,10.2335427 4.71879884,9.9959397 4.88664808,9.76189723 L5.12361171,9.47705853 C5.19766284,9.39967734 5.25048599,9.29903433 5.2146946,9.19411874 C5.01401603,8.62800181 3.46832203,8.97526767 3.04005964,10.0315445 C3.34292878,9.79631524 3.65986763,9.66433998 3.96940137,9.71489885 C2.38890334,11.275815 3.44141679,13.9563846 5.46005069,14.7513219 C6.40494316,15.1232738 7.55964718,15.0976383 8.68744595,14.5405413" id="Fill-2" fill="url(#linearGradient-3)" mask="url(#mask-2)"></path>
            </g>
        </g>
        <text id="Merge-Operation-On-G" fill-rule="nonzero" font-family="Helvetica" font-size="18" font-weight="normal" fill="#0055C2">
            <tspan x="10" y="23">Merge Operation On GitHub</tspan>
        </text>
        <g id="github-copy" transform="translate(748.000000, 3.000000)" fill="#000000" fill-rule="nonzero">
            <path d="M22.9998956,0 C11.7204239,0.000469179946 2.10590223,8.20619911 0.299077857,19.3745239 C-1.50774651,30.5428487 5.02642435,41.3773525 15.7268887,44.9558377 C16.8767785,45.1577383 17.3079872,44.4656891 17.3079872,43.8600567 C17.3079872,43.3121892 17.279217,41.4954764 17.279217,39.5634644 C11.5009978,40.6303861 10.0061411,38.1505528 9.54618516,36.8529173 C9.03580825,35.5908656 8.22674528,34.472458 7.1889111,33.5943411 C6.38398825,33.161796 5.23409847,32.0948512 7.16014086,32.066061 C8.65271236,32.2285228 9.97246422,33.1110528 10.6960749,34.4305721 C11.3313462,35.5753322 12.3946869,36.4194146 13.6513665,36.7764896 C14.9080461,37.1335647 16.2547288,36.9742705 17.3941369,36.3337708 C17.4936968,35.160991 18.0147545,34.0644705 18.8602924,33.2483742 C13.7432829,32.6716473 8.39629538,30.6818473 8.39629538,21.8580182 C8.36397821,19.5652878 9.20739391,17.3470389 10.7535694,15.6582042 C10.0504849,13.6655423 10.1327507,11.4787423 10.9835474,9.54489918 C10.9835474,9.54489918 12.9095438,8.93931288 17.3079412,11.9094794 C21.0710431,10.8713094 25.0437372,10.8713094 28.806839,11.9094794 C33.2051215,8.9104996 35.1312329,9.54489918 35.1312329,9.54489918 C35.982145,11.4787155 36.0644125,13.6655602 35.3612108,15.6582042 C36.9120423,17.3441484 37.7561944,19.564334 37.7184849,21.8580182 C37.7184849,30.7107067 32.3427041,32.6716473 27.2257406,33.2483742 C28.336287,34.3774629 28.9028084,35.9349635 28.7780918,37.5161532 C28.7780918,40.6016882 28.7493216,43.0815215 28.7493216,43.8601489 C28.7493216,44.4657352 29.1805302,45.1866208 30.33042,44.95593 C41.0111617,41.3485442 47.5153422,30.5121007 45.6961446,19.3555019 C43.876947,8.19890308 34.2698179,0.00588375885 22.9998956,0 Z" id="Path"></path>
        </g>
        <rect id="Rectangle" stroke="#979797" fill="#006AE1" x="28.5" y="111.5" width="237" height="45" rx="5"></rect>
        <rect id="Rectangle-Copy" stroke="#979797" fill="#006AE1" x="281.5" y="111.5" width="237" height="45" rx="5"></rect>
        <rect id="Rectangle-Copy-2" stroke="#979797" fill="#006AE1" x="534.5" y="111.5" width="237" height="45" rx="5"></rect>
        <text id="Create-a-merge-commi" font-family="Helvetica-Bold, Helvetica" font-size="18" font-weight="bold" fill="#FFFFFF">
            <tspan x="47.4594727" y="141">Create a merge commit</tspan>
        </text>
        <text id="Squash-and-merge" font-family="Helvetica-Bold, Helvetica" font-size="18" font-weight="bold" fill="#FFFFFF">
            <tspan x="319.479004" y="141">Squash and merge</tspan>
        </text>
        <text id="Rebase-and-merge" font-family="Helvetica-Bold, Helvetica" font-size="18" font-weight="bold" fill="#FFFFFF">
            <tspan x="572.966797" y="141">Rebase and merge</tspan>
        </text>
        <text id="All-commits-from-req" font-family="Helvetica" font-size="24" font-weight="normal" fill="#006AE1">
            <tspan x="58.3300781" y="435">All commits from </tspan>
            <tspan x="53.6015625" y="464">requested branch </tspan>
            <tspan x="63.609375" y="493">will be added to </tspan>
            <tspan x="62.2792969" y="522">base branch via </tspan>
            <tspan x="70.9863281" y="551">merge commit </tspan>
        </text>
        <text id="Three-approaches-of" font-family="Helvetica-Bold, Helvetica" font-size="24" font-weight="bold" fill="#006AE1">
            <tspan x="28" y="94">Three approaches of Merge operation on Git Hub</tspan>
        </text>
        <text id="Commits-from-request" font-family="Helvetica" font-size="24" font-weight="normal" fill="#006AE1">
            <tspan x="325.333984" y="435">Commits from </tspan>
            <tspan x="306.601562" y="464">requested branch </tspan>
            <tspan x="311.289062" y="493">will be combined </tspan>
            <tspan x="302.623047" y="522">into one commit in </tspan>
            <tspan x="313.9375" y="551">the base branch</tspan>
        </text>
        <text id="Commits-from-request" font-family="Helvetica" font-size="24" font-weight="normal" fill="#006AE1">
            <tspan x="578.333984" y="435">Commits from </tspan>
            <tspan x="559.601562" y="464">requested branch </tspan>
            <tspan x="549.599609" y="493">will be rebased and </tspan>
            <tspan x="576.933594" y="522">added to base </tspan>
            <tspan x="616.308594" y="551">branch</tspan>
        </text>
        <circle id="Oval-Copy-10" stroke="#1576ED" stroke-width="4" cx="181.5" cy="293.5" r="11.5"></circle>
        <circle id="Oval-Copy-13" stroke="#006AE1" stroke-width="4" fill="#C5DDFF" cx="242.5" cy="293.5" r="11.5"></circle>
        <circle id="Oval-Copy-11" stroke="#199ABD" stroke-width="4" cx="158.5" cy="256.5" r="11.5"></circle>
        <circle id="Oval-Copy-14" stroke="#199ABD" stroke-width="4" cx="211.5" cy="256.5" r="11.5"></circle>
        <circle id="Oval-Copy-12" stroke="#1576ED" stroke-width="4" cx="60.5" cy="293.5" r="11.5"></circle>
        <line x1="120.123746" y1="257.687802" x2="135.73913" y2="282.326087" id="Line-6-Copy-2" stroke="#199ABD" stroke-width="3" stroke-linecap="round" transform="translate(128.000000, 270.000000) scale(1, -1) translate(-128.000000, -270.000000) "></line>
        <path id="Line-6-Copy-3" d="M224.04808,279.330378 L225.686544,280.477303 L225.113081,281.296535 L222.819232,284.573462 L222.24577,285.392694 L220.607306,284.24577 L221.180768,283.426538 L223.474617,280.14961 L224.04808,279.330378 Z M236,264 L233.706151,279.483483 L228.79,276.042 L227.406931,278.019607 L226.833468,278.838839 L225.195004,277.691914 L225.768467,276.872682 L227.152,274.896 L222.236904,271.45501 L236,264 Z" transform="translate(229.000000, 274.000000) scale(1, -1) translate(-229.000000, -274.000000) " fill="#DE4040" fill-rule="nonzero"></path>
        <line x1="74" y1="293" x2="107.394738" y2="293.021739" id="Line-Copy-6" stroke="#1576ED" stroke-width="3" stroke-linecap="round"></line>
        <line x1="135" y1="293" x2="168.394738" y2="293.021739" id="Line-Copy-8" stroke="#1576ED" stroke-width="3" stroke-linecap="round"></line>
        <line x1="194" y1="293.488603" x2="229.6" y2="293.988603" id="Line-Copy-9" stroke="#1576ED" stroke-width="3" stroke-linecap="round"></line>
        <line x1="136" y1="257" x2="146" y2="257" id="Line-Copy-10" stroke="#199ABD" stroke-width="3" stroke-linecap="round"></line>
        <line x1="172" y1="257" x2="199" y2="257" id="Line-Copy-11" stroke="#199ABD" stroke-width="3" stroke-linecap="round"></line>
        <circle id="Oval-Copy-9" stroke="#1576ED" stroke-width="4" cx="120.5" cy="293.5" r="11.5"></circle>
        <text id="Master-Branch" font-family="Helvetica-Bold, Helvetica" font-size="18" font-weight="bold" fill="#0055C2">
            <tspan x="29.9790039" y="329">Master Branch</tspan>
        </text>
        <text id="Master-Branch-Copy" font-family="Helvetica-Bold, Helvetica" font-size="18" font-weight="bold" fill="#0055C2">
            <tspan x="528.979004" y="329">Master Branch</tspan>
        </text>
        <text id="Topic-Branch" font-family="Helvetica-Bold, Helvetica" font-size="18" font-weight="bold" fill="#199ABD">
            <tspan x="77.6567383" y="235">Topic Branch</tspan>
        </text>
        <text id="Topic-Branch-Copy" font-family="Helvetica-Bold, Helvetica" font-size="18" font-weight="bold" fill="#199ABD">
            <tspan x="576.656738" y="212">Topic Branch</tspan>
        </text>
        <circle id="Oval-Copy-10" stroke="#1576ED" stroke-width="4" cx="387.5" cy="293.5" r="11.5"></circle>
        <circle id="Oval-Copy-13" stroke="#006AE1" stroke-width="4" fill="#C5DDFF" cx="448.5" cy="293.5" r="11.5"></circle>
        <line x1="341" y1="293" x2="374.394738" y2="293.021739" id="Line-Copy-8" stroke="#1576ED" stroke-width="3" stroke-linecap="round"></line>
        <line x1="400" y1="293.488603" x2="435.6" y2="293.988603" id="Line-Copy-9" stroke="#1576ED" stroke-width="3" stroke-linecap="round"></line>
        <circle id="Oval-Copy-9" stroke="#1576ED" stroke-width="4" cx="326.5" cy="293.5" r="11.5"></circle>
        <text id="Master-Branch" font-family="Helvetica-Bold, Helvetica" font-size="18" font-weight="bold" fill="#0055C2">
            <tspan x="292.979004" y="329">Master Branch</tspan>
        </text>
        <text id="Combined-into-one-co" font-family="Helvetica" font-size="16" font-weight="normal" fill="#DE4040">
            <tspan x="425.035156" y="323">Combined </tspan>
            <tspan x="433.03125" y="342">into one </tspan>
            <tspan x="435.722656" y="361">commit</tspan>
        </text>
        <path d="M443.576177,270.164971 L443.576177,273.481291 L462.490601,273.481291 L462.490601,280.862253 L443.576177,280.862253 L443.576177,284.164971 L428.892851,277.168411 C428.41611,277.016785 428.363139,276.82055 428.733937,276.659011 L428.892851,276.600215 L443.576177,270.164971 Z" id="Path-Copy-4" fill="#DE4040" transform="translate(445.490601, 277.164971) rotate(-98.000000) translate(-445.490601, -277.164971) "></path>
        <g id="Rectangle-Copy-48" transform="translate(399.500000, 221.257715) scale(1, -1) rotate(-180.000000) translate(-399.500000, -221.257715) ">
            <use fill="black" fill-opacity="1" filter="url(#filter-5)" xlink:href="#path-4"></use>
            <use fill="#FFFFFF" fill-rule="evenodd" xlink:href="#path-4"></use>
        </g>
        <circle id="Oval-Copy-11" stroke="#199ABD" stroke-width="4" cx="364.5" cy="218.5" r="11.5"></circle>
        <circle id="Oval-Copy-14" stroke="#199ABD" stroke-width="4" cx="417.5" cy="218.5" r="11.5"></circle>
        <circle id="Oval-Copy-15" stroke="#199ABD" stroke-width="4" cx="470.5" cy="218.5" r="11.5"></circle>
        <line x1="378" y1="219" x2="405" y2="219" id="Line-Copy-11" stroke="#199ABD" stroke-width="3" stroke-linecap="round"></line>
        <line x1="431" y1="219" x2="458" y2="219" id="Line-Copy-12" stroke="#199ABD" stroke-width="3" stroke-linecap="round"></line>
        <text id="Topic-Branch" font-family="Helvetica-Bold, Helvetica" font-size="18" font-weight="bold" fill="#199ABD">
            <tspan x="309.656738" y="199">Topic Branch</tspan>
        </text>
        <circle id="Oval-Copy-11" stroke="#199ABD" stroke-width="4" cx="721" cy="296" r="9"></circle>
        <circle id="Oval-Copy-14" stroke="#199ABD" stroke-width="4" cx="764" cy="296" r="9"></circle>
        <line x1="702" y1="296.5" x2="710" y2="296.5" id="Line-Copy-10" stroke="#199ABD" stroke-width="3" stroke-linecap="round"></line>
        <line x1="732" y1="296.5" x2="754" y2="296.5" id="Line-Copy-11" stroke="#199ABD" stroke-width="3" stroke-linecap="round"></line>
        <circle id="Oval-Copy-9" stroke="#1576ED" stroke-width="4" cx="591" cy="296" r="9"></circle>
        <circle id="Oval-Copy-13" stroke="#006AE1" stroke-width="4" cx="690" cy="296" r="9"></circle>
        <circle id="Oval-Copy-10" stroke="#1576ED" stroke-width="4" cx="641" cy="296" r="9"></circle>
        <use id="Oval-Copy-11" stroke="#199ABD" mask="url(#mask-7)" stroke-width="8" stroke-dasharray="6" xlink:href="#path-6"></use>
        <use id="Oval-Copy-14" stroke="#199ABD" mask="url(#mask-9)" stroke-width="8" stroke-dasharray="6" xlink:href="#path-8"></use>
        <circle id="Oval-Copy-12" stroke="#1576ED" stroke-width="4" cx="542" cy="296" r="9"></circle>
        <line x1="591.5" y1="238.5" x2="602.804348" y2="285.481605" id="Line-6-Copy-2" stroke="#199ABD" stroke-width="3" stroke-linecap="square" stroke-dasharray="6" transform="translate(597.000000, 262.000000) scale(1, -1) translate(-597.000000, -262.000000) "></line>
        <line x1="553" y1="295.5" x2="580.501549" y2="295.51087" id="Line-Copy-6" stroke="#1576ED" stroke-width="3" stroke-linecap="round"></line>
        <line x1="651" y1="295.5" x2="678.501549" y2="295.51087" id="Line-Copy-7" stroke="#006AE1" stroke-width="3" stroke-linecap="round"></line>
        <line x1="603" y1="295.5" x2="630.501549" y2="295.51087" id="Line-Copy-8" stroke="#1576ED" stroke-width="3" stroke-linecap="round"></line>
        <line x1="603" y1="238.5" x2="611" y2="238.5" id="Line-Copy-10" stroke="#199ABD" stroke-width="3" stroke-linecap="round" stroke-dasharray="6"></line>
        <line x1="633" y1="238.5" x2="655" y2="238.5" id="Line-Copy-11" stroke="#199ABD" stroke-width="3" stroke-linecap="round" stroke-dasharray="6"></line>
        <circle id="Oval" fill="#DE4040" cx="591" cy="285" r="3"></circle>
        <circle id="Oval-Copy" fill="#DE4040" cx="699" cy="296" r="3"></circle>
        <path id="Path-22" d="M702.685025,284.116274 L699.046779,293.497807 L693.7245,284.95829 L697.657,284.588 L698.598169,284.358624 L698.631,284.497 L702.685025,284.116274 Z M594.442864,280.795644 L595.326023,281.264716 C595.119834,281.652925 594.92206,282.044057 594.732699,282.438115 L594.454966,283.031396 L593.545034,282.616641 C593.824846,282.002759 594.124126,281.395756 594.442864,280.795644 Z M697.371017,280.441229 C697.533549,280.864497 697.686842,281.289675 697.830895,281.716759 L698.040043,282.358815 L697.086041,282.658614 C696.955379,282.242828 696.815743,281.82884 696.667129,281.416647 L696.437477,280.799701 L697.371017,280.441229 Z M596.553079,277.329271 L597.376127,277.897243 C597.125497,278.260432 596.882946,278.626408 596.648471,278.995172 L596.302815,279.550409 L595.448858,279.030065 C595.798342,278.456514 596.166419,277.889581 596.553079,277.329271 Z M695.680015,276.723485 C695.89206,277.125353 696.095323,277.529056 696.2898,277.934592 L696.574927,278.544269 L695.665001,278.959042 C695.484661,278.563413 695.295747,278.16948 695.098255,277.777242 L694.795583,277.190155 L695.680015,276.723485 Z M599.039396,274.112571 L599.797653,274.764527 C599.508916,275.100343 599.227764,275.438766 598.954195,275.779796 L598.549529,276.293296 L597.758744,275.681202 C598.168271,275.152119 598.595159,274.629242 599.039396,274.112571 Z M693.603095,273.257778 C693.856946,273.635054 694.102637,274.014045 694.340165,274.394748 L694.690335,274.967089 L693.832758,275.481445 C693.609369,275.108991 693.377968,274.738111 693.138553,274.368805 L692.77342,273.816025 L693.603095,273.257778 Z M601.818039,271.178195 L602.511743,271.898455 C602.191718,272.20668 601.87871,272.517314 601.572717,272.830356 L601.118987,273.301724 L600.393187,272.613818 C600.852164,272.129557 601.327117,271.651016 601.818039,271.178195 Z M691.169325,269.995009 C691.457806,270.346401 691.738824,270.699362 692.012376,271.053894 L692.417106,271.586868 L691.616039,272.185444 C691.356063,271.83752 691.088721,271.49104 690.814013,271.146005 L690.396424,270.629535 L691.169325,269.995009 Z M604.856031,268.490468 L605.487829,269.265601 C605.142583,269.547006 604.80376,269.830617 604.47136,270.116433 L603.977577,270.546811 L603.315446,269.797423 C603.814411,269.356557 604.32794,268.920907 604.856031,268.490468 Z M688.471731,266.97794 C688.787888,267.30415 689.09727,267.631784 689.399876,267.96084 L689.848704,268.455493 L689.103616,269.12246 C688.813694,268.79858 688.517059,268.476017 688.213708,268.154773 L687.753645,267.673895 L688.471731,266.97794 Z M608.094026,266.044061 L608.668447,266.862621 C608.303371,267.118812 607.944142,267.377014 607.59076,267.637227 L607.065072,268.029055 L606.462763,267.230791 C606.9933,266.830489 607.537055,266.434913 608.094026,266.044061 Z M685.559445,264.183995 C685.897507,264.486537 686.229438,264.790363 686.555237,265.095474 L687.039337,265.554104 L686.347374,266.276038 C686.033228,265.974933 685.712986,265.675027 685.386648,265.376322 L684.89257,264.929165 L685.559445,264.183995 Z M611.489006,263.820038 L612.011245,264.672837 C611.630462,264.906022 611.255,265.14104 610.884857,265.377892 L610.333633,265.734545 L609.786147,264.89773 C610.341767,264.534216 610.909386,264.174987 611.489006,263.820038 Z M614.933182,261.837544 L615.40937,262.716888 C615.016548,262.929612 614.62858,263.144012 614.245466,263.360088 L613.674434,263.685458 L613.17553,262.818801 C613.750481,262.487822 614.336366,262.160737 614.933182,261.837544 Z M682.443189,261.59509 C682.79342,261.86266 683.143763,262.138417 683.494944,262.422811 L684.022437,262.855936 L683.382714,263.624542 C683.037533,263.337242 682.693703,263.058765 682.350508,262.788661 L681.836103,262.389726 L682.443189,261.59509 Z M618.524295,260.003292 L618.958538,260.904088 L618.06024,261.343325 L618.06024,261.343325 L617.176912,261.787741 L616.722324,260.89704 C617.313,260.595575 617.913657,260.29766 618.524295,260.003292 Z M679.130179,259.30709 C679.509625,259.541427 679.886926,259.783828 680.2627,260.034579 L680.82529,260.417003 L680.256119,261.239222 C679.891176,260.986596 679.525184,260.742339 679.15753,260.506161 L678.604729,260.157914 L679.130179,259.30709 Z M622.207678,258.352517 L622.587837,259.277438 C622.184125,259.443371 621.779681,259.614711 621.37421,259.791601 L620.765196,260.061114 L620.355734,259.148787 C620.975253,258.870741 621.592234,258.605475 622.207678,258.352517 Z M675.556001,257.368645 C675.964143,257.56049 676.368125,257.760027 676.768469,257.967429 L677.366319,258.284453 L676.889421,259.163412 C676.503821,258.954196 676.114984,258.752731 675.722387,258.558838 L675.130606,258.273653 L675.556001,257.368645 Z M625.990001,256.945172 L626.306168,257.893876 C625.890155,258.032517 625.474634,258.176377 625.059252,258.325601 L624.436238,258.553479 L624.087339,257.616318 C624.721168,257.380348 625.354993,257.156797 625.990001,256.945172 Z M671.771065,255.85028 C672.202166,255.995365 672.627671,256.147452 673.048007,256.306639 L673.674687,256.550754 L673.302911,257.479077 C672.899268,257.317425 672.490743,257.162697 672.076901,257.014794 L671.452097,256.798045 L671.771065,255.85028 Z M629.868396,255.8031 L630.116926,256.771724 C629.689378,256.881425 629.263805,256.995913 628.839794,257.115335 L628.204896,257.298184 L627.9225,256.338886 C628.567594,256.148985 629.215762,255.970553 629.868396,255.8031 Z M633.824197,254.930776 L634.007134,255.913901 C633.570121,255.995218 633.13669,256.08068 632.706361,256.170418 L632.063136,256.308251 L631.848202,255.331622 C632.499922,255.188193 633.158049,255.054731 633.824197,254.930776 Z M667.856984,254.759739 C668.30256,254.859991 668.741803,254.966349 669.175054,255.078864 L669.82048,255.252262 L669.552881,256.215792 C669.136216,256.100073 668.713736,255.990347 668.285098,255.886567 L667.637478,255.73535 L667.856984,254.759739 Z M637.791247,254.314871 L637.916704,255.30697 C637.472348,255.363162 637.03314,255.422746 636.598529,255.485842 L635.949993,255.583132 L635.796908,254.594919 C636.451425,254.493527 637.115583,254.400313 637.791247,254.314871 Z M663.879599,254.04953 C664.332657,254.111047 664.779192,254.177769 665.219474,254.249719 L665.875242,254.361569 L665.700183,255.346127 C665.275131,255.270551 664.843933,255.200081 664.406319,255.134698 L663.745053,255.040437 L663.879599,254.04953 Z M641.805043,253.907221 L641.883605,254.90413 C641.433979,254.939563 640.990976,254.977625 640.55395,255.018416 L639.902813,255.081659 L639.802347,254.086719 C640.456566,254.020657 641.1234,253.960938 641.805043,253.907221 Z M659.858084,253.651042 C660.314105,253.680814 660.763745,253.714995 661.207216,253.753592 L661.867824,253.814799 L661.769947,254.809997 C661.339919,254.767704 660.903792,254.729745 660.461353,254.696115 L659.792935,254.648917 L659.858084,253.651042 Z M645.829006,253.665257 L645.872381,254.664316 C645.418758,254.68401 644.9732,254.705646 644.534907,254.729301 L643.882817,254.766308 L643.823338,253.768079 C644.475646,253.729211 645.143296,253.695027 645.829006,253.665257 Z M649.825975,253.543779 L649.844961,254.543599 C649.388163,254.552273 648.941051,254.562317 648.502546,254.573789 L647.851109,254.592077 L647.821097,253.592527 C648.47011,253.57304 649.137182,253.556859 649.825975,253.543779 Z M655.833118,253.5041 C656.289448,253.508627 656.739702,253.516903 657.184048,253.528927 L657.84616,253.549774 L657.810215,254.549127 C657.377569,254.533566 656.939064,254.521699 656.494534,254.51353 L655.823197,254.50405 L655.833118,253.5041 Z M653.82371,253.501864 L653.826972,254.501858 C653.36646,254.50336 652.91803,254.505784 652.479989,254.50917 L651.83051,254.514977 L651.820328,253.515028 C652.464815,253.508466 653.130699,253.504124 653.82371,253.501864 Z" fill="#DE4040" fill-rule="nonzero"></path>
        <g id="trial-copy" transform="translate(4.000000, 570.000000)" fill="#006AE1" fill-rule="nonzero">
            <path d="M24.7390408,0.0712262435 C23.8197062,-0.175854327 23.1591603,0.239201967 22.6859188,1.01735927 C22.6046689,1.15134921 22.52713,1.31717641 22.4478332,1.49316028 C22.1428011,1.2575123 21.7678493,1.130415 21.3824051,1.13201247 C21.3529129,1.13201247 21.3224442,1.13259843 21.2931474,1.134161 L15.1740157,1.4288998 C14.9503832,1.43964243 14.7687429,1.47870655 14.6234306,1.53906062 C14.2647714,1.59678794 13.9347315,1.76994119 13.6833929,2.03224516 L0.468959043,15.8746167 C-0.17420408,16.5457384 -0.153305673,17.6121889 0.516224599,18.2565516 L7.02930103,24.5302495 C7.34177077,24.8320424 7.7593469,25.0004949 8.19375245,25 C8.63515806,25 9.07597773,24.8259649 9.40566475,24.4831773 L22.6199033,10.6400244 C23.0124808,10.2306324 23.3675584,9.67455464 23.2691211,9.15636906 C23.2718554,9.11457045 23.2687304,9.07296716 23.2691211,9.02804342 L23.1146291,2.88735879 C23.1183122,2.59624806 23.0497989,2.30876172 22.9152153,2.0506053 C23.3099413,1.28006549 23.6851361,0.550347698 24.542752,0.780630696 C25.0023217,0.904854604 25.1966573,0.194082907 24.7390408,0.0712262435 Z M8.52812889,13.4245632 L9.32781975,14.170287 L8.29716074,16.7269943 L10.7727157,15.5176743 L11.5754357,16.2662228 L7.51909394,18.1808206 L6.90418013,17.6074042 L8.52812889,13.4245632 Z M10.8555796,8.86713434 L14.7160332,15.2007265 L13.8468014,16.1328635 L9.99486962,9.79013275 L10.8555796,8.86713434 Z M17.1802579,6.51873344 L17.7982008,7.09497455 L16.1742521,11.2778156 L15.3745612,10.5320918 L16.4052202,7.97538454 L13.9296652,9.1847045 L13.1269453,8.43615601 L17.1802579,6.51873344 Z M21.1763507,2.2398705 C21.4058425,2.2398705 21.6355297,2.32542139 21.8136544,2.49691289 C21.8259591,2.50882745 21.8343575,2.52289053 21.8460763,2.53539105 C21.6548656,2.73520403 21.419905,2.85845134 21.1132648,2.82387959 C20.6425624,2.7709477 20.6474452,3.50808768 21.1132648,3.56062893 C21.5214674,3.60652927 21.8320138,3.4873837 22.0857244,3.27643744 C22.062433,3.47297911 21.9760108,3.65665988 21.8394357,3.79989667 C21.6663502,3.98098016 21.4266486,4.08326003 21.1761554,4.0829171 C20.9384391,4.08306483 20.7099506,3.99090921 20.5388516,3.82587432 C20.1727885,3.47281343 20.1612599,2.89015669 20.5130704,2.52289053 C20.686209,2.34188379 20.9258761,2.23961864 21.1763507,2.2398705 Z" id="Shape"></path>
        </g>
    </g>
</svg>