<?xml version="1.0" encoding="UTF-8"?>
<svg width="800px" height="600px" viewBox="0 0 800 600" version="1.1" xmlns="http://www.w3.org/2000/svg" xmlns:xlink="http://www.w3.org/1999/xlink">
    <title>2041-10-15-20-10_RestoreFilesToWorkingTree—GitRestore</title>
    <defs>
        <path d="M8.68744595,14.5405413 C10.6544909,13.5649687 12,11.5915112 12,9.31636202 C12,6.07252388 9.26504479,3.44227578 5.89152197,3.44227578 C4.52034181,3.44227578 3.25480793,3.87689217 2.23537065,4.61058921 L2.23537065,1.05770107 C2.23537065,0.476155373 1.74046224,0 1.11695169,0 C0.493934821,0 0.0167986821,0.476630104 0.0167986821,1.05770107 L0.0167986821,1.80184219 L0,9.32158406 C-0.0041824725,11.2003327 0.951817666,12.865215 2.41753644,13.8939574 C2.4777647,13.9362085 2.55848043,13.9312238 2.6127846,13.8823265 C2.66758244,13.8334292 2.6779496,13.7558106 2.63746831,13.6950451 C0.724974359,10.8146136 1.16014819,5.53963813 5.89176881,5.53963813 C8.05899866,5.53963813 9.80709909,7.22944376 9.81623206,9.31351363 C9.82240299,10.8599505 9.11620201,12.0365717 8.19549958,12.7781018 C6.36026565,14.2561773 3.64974731,12.6382934 4.49738595,10.4697214 C4.5894562,10.2335427 4.71879884,9.9959397 4.88664808,9.76189723 L5.12361171,9.47705853 C5.19766284,9.39967734 5.25048599,9.29903433 5.2146946,9.19411874 C5.01401603,8.62800181 3.46832203,8.97526767 3.04005964,10.0315445 C3.34292878,9.79631524 3.65986763,9.66433998 3.96940137,9.71489885 C2.38890334,11.275815 3.44141679,13.9563846 5.46005069,14.7513219 C6.40494316,15.1232738 7.55964718,15.0976383 8.68744595,14.5405413" id="path-1"></path>
        <linearGradient x1="28.568518%" y1="104.445731%" x2="78.3472072%" y2="20.6880271%" id="linearGradient-3">
            <stop stop-color="#000F98" offset="0%"></stop>
            <stop stop-color="#00A5FD" offset="100%"></stop>
        </linearGradient>
        <rect id="path-4" x="20" y="62" width="766" height="140"></rect>
        <filter x="-0.5%" y="-2.9%" width="102.1%" height="111.4%" filterUnits="objectBoundingBox" id="filter-5">
            <feOffset dx="4" dy="4" in="SourceAlpha" result="shadowOffsetOuter1"></feOffset>
            <feGaussianBlur stdDeviation="2" in="shadowOffsetOuter1" result="shadowBlurOuter1"></feGaussianBlur>
            <feComposite in="shadowBlurOuter1" in2="SourceAlpha" operator="out" result="shadowBlurOuter1"></feComposite>
            <feColorMatrix values="0 0 0 0 0   0 0 0 0 0   0 0 0 0 0  0 0 0 0.5 0" type="matrix" in="shadowBlurOuter1"></feColorMatrix>
        </filter>
        <linearGradient x1="78.125%" y1="0%" x2="21.875%" y2="100%" id="linearGradient-6">
            <stop stop-color="#00A5FF" offset="0.0491695804%"></stop>
            <stop stop-color="#0755C2" offset="100%"></stop>
        </linearGradient>
        <path d="M93.5548834,344.478712 L93.5544119,369.478712 C93.5542655,372.240135 95.7927996,374.478754 98.5542233,374.478806 C98.5542548,374.478806 98.5542862,374.478806 98.5543176,374.478712 L127.021763,374.478712 C129.783187,374.478712 132.021763,372.240135 132.021763,369.478712 L132.021763,352.054187 C132.021763,349.292764 129.783187,347.054187 127.021763,347.054187 L115.177145,347.054187 C113.54854,347.054187 112.021984,346.261005 111.085803,344.928369 L108.750795,341.60453 C107.814614,340.271894 106.288058,339.478712 104.659453,339.478712 L98.5549777,339.478712 C95.7935908,339.478806 93.5550298,341.717325 93.5548834,344.478712 Z" id="path-7"></path>
        <filter x="-13.0%" y="-14.3%" width="136.4%" height="140.0%" filterUnits="objectBoundingBox" id="filter-8">
            <feOffset dx="2" dy="2" in="SourceAlpha" result="shadowOffsetOuter1"></feOffset>
            <feGaussianBlur stdDeviation="2" in="shadowOffsetOuter1" result="shadowBlurOuter1"></feGaussianBlur>
            <feColorMatrix values="0 0 0 0 0   0 0 0 0 0   0 0 0 0 0  0 0 0 0.5 0" type="matrix" in="shadowBlurOuter1"></feColorMatrix>
        </filter>
    </defs>
    <g id="2041-10-15-20-10_RestoreFilesToWorkingTree—GitRestore" stroke="none" stroke-width="1" fill="none" fill-rule="evenodd">
        <rect fill="#FFFFFF" x="0" y="0" width="800" height="600"></rect>
        <g id="bloovee-winner-logo" transform="translate(725.000000, 580.000000)">
            <path d="M13,13.7751507 C13,14.396312 13.4732558,14.8717809 14.0514961,14.8717809 C14.6474304,14.8717809 15.1204503,14.3968042 15.1204503,13.7751507 L15.1204503,2.09687626 C15.1204503,1.49368045 14.6474304,1 14.0514961,1 C13.4557977,1 13,1.49392656 13,2.09687626 L13,13.7751507 Z M21.7920364,15 C24.6483217,15 26.751078,12.7149437 26.751078,9.97312215 L26.751078,9.93645297 C26.751078,7.17641992 24.6657798,4.92778666 21.8269526,4.92778666 C18.9881254,4.92778666 16.885369,7.212843 16.885369,9.97312215 L16.885369,10.0095452 C16.885369,12.7516128 18.9706673,15 21.7920364,15 Z M21.8269526,13.0621935 C20.179994,13.0621935 19.0055834,11.6547366 19.0055834,9.97312215 L19.0055834,9.93645297 C19.0055834,8.25459244 20.0919958,6.86534709 21.7920364,6.86534709 C23.456689,6.86534709 24.6306277,8.27305008 24.6306277,9.97312215 L24.6306277,10.0095452 C24.6306277,11.6731942 23.5444513,13.0621935 21.8269526,13.0621935 Z M32.8092717,15 C35.665557,15 37.7683133,12.7149437 37.7683133,9.97312215 L37.7683133,9.93645297 C37.7683133,7.17641992 35.6830151,4.92778666 32.8441878,4.92778666 C30.0053606,4.92778666 27.9026043,7.212843 27.9026043,9.97312215 L27.9026043,10.0095452 C27.9026043,12.7516128 29.9879025,15 32.8092717,15 Z M32.8441878,13.0621935 C31.1969933,13.0621935 30.0228187,11.6547366 30.0228187,9.97312215 L30.0228187,9.93645297 C30.0228187,8.25459244 31.109231,6.86534709 32.8092717,6.86534709 C34.4739243,6.86534709 35.647863,8.27305008 35.647863,9.97312215 L35.647863,10.0095452 C35.647863,11.6731942 34.5614506,13.0621935 32.8441878,13.0621935 Z M44.1416963,13.9944275 L47.2261164,6.6096472 C47.2784906,6.49988574 47.3487948,6.28060893 47.3487948,6.07954366 C47.3487948,5.47610175 46.8929971,5.01933658 46.3147568,5.01933658 C45.7539746,5.01933658 45.4737015,5.40300947 45.3158709,5.78692847 L42.8976893,12.2215093 L40.5144239,5.82335156 C40.3393711,5.36634029 40.041404,5.01933658 39.4629278,5.01933658 C38.8846875,5.01933658 38.4116676,5.53098247 38.4116676,6.07954366 C38.4116676,6.28060893 38.4817358,6.46346265 38.534346,6.62785874 L41.6182943,13.9944275 C41.8638872,14.5796579 42.2491448,14.9633308 42.8273851,14.9633308 L42.9326055,14.9633308 C43.5108458,14.9633308 43.8965752,14.5612003 44.1416963,13.9944275 Z M50.0949054,9.27837643 C50.2876522,7.77961573 51.1987758,6.73762019 52.4956289,6.73762019 C53.8974665,6.73762019 54.7036056,7.8524619 54.8437422,9.27837643 L50.0949054,9.27837643 Z M56.070527,13.72027 C56.2281217,13.5558739 56.3508002,13.3181395 56.3508002,13.0439819 C56.3508002,12.5320899 55.9830006,12.1481709 55.5095089,12.1481709 C55.2641519,12.1481709 55.1242513,12.2215093 54.9664207,12.3492362 C54.3704864,12.8611282 53.6695676,13.1901665 52.7759021,13.1901665 C51.4089807,13.1901665 50.3402624,12.3128131 50.1123635,10.7409601 L55.9126964,10.7409601 C56.4560206,10.7409601 56.9115824,10.3021604 56.9115824,9.68050697 C56.9115824,7.45057746 55.4568987,4.92778666 52.513087,4.92778666 C49.8672425,4.92778666 47.9919132,7.19438536 47.9919132,9.95466451 L47.9919132,9.9913337 C47.9919132,12.9708897 50.0597533,15 52.7409859,15 C54.1779755,15 55.2292357,14.5063195 56.070527,13.72027 Z M60.1833231,9.27837643 C60.3763058,7.77961573 61.2871935,6.73762019 62.5842825,6.73762019 C63.9858841,6.73762019 64.7920233,7.8524619 64.9321598,9.27837643 L60.1833231,9.27837643 Z M66.1589447,13.72027 C66.3167752,13.5558739 66.4394537,13.3181395 66.4394537,13.0439819 C66.4394537,12.5320899 66.0714183,12.1481709 65.5981624,12.1481709 C65.3528055,12.1481709 65.2126689,12.2215093 65.0548383,12.3492362 C64.4591399,12.8611282 63.7582212,13.1901665 62.8643197,13.1901665 C61.4976342,13.1901665 60.4289159,12.3128131 60.2007812,10.7409601 L66.0011141,10.7409601 C66.5444382,10.7409601 67,10.3021604 67,9.68050697 C67,7.45057746 65.5455522,4.92778666 62.6015046,4.92778666 C59.9556601,4.92778666 58.0805667,7.19438536 58.0805667,9.95466451 L58.0805667,9.9913337 C58.0805667,12.9708897 60.1484069,15 62.8294035,15 C64.2663932,15 65.3178893,14.5063195 66.1589447,13.72027 L66.1589447,13.72027 Z" id="Fill-1" fill="#030060"></path>
            <g id="Group-4">
                <mask id="mask-2" fill="white">
                    <use xlink:href="#path-1"></use>
                </mask>
                <g id="Clip-3"></g>
                <path d="M8.68744595,14.5405413 C10.6544909,13.5649687 12,11.5915112 12,9.31636202 C12,6.07252388 9.26504479,3.44227578 5.89152197,3.44227578 C4.52034181,3.44227578 3.25480793,3.87689217 2.23537065,4.61058921 L2.23537065,1.05770107 C2.23537065,0.476155373 1.74046224,0 1.11695169,0 C0.493934821,0 0.0167986821,0.476630104 0.0167986821,1.05770107 L0.0167986821,1.80184219 L0,9.32158406 C-0.0041824725,11.2003327 0.951817666,12.865215 2.41753644,13.8939574 C2.4777647,13.9362085 2.55848043,13.9312238 2.6127846,13.8823265 C2.66758244,13.8334292 2.6779496,13.7558106 2.63746831,13.6950451 C0.724974359,10.8146136 1.16014819,5.53963813 5.89176881,5.53963813 C8.05899866,5.53963813 9.80709909,7.22944376 9.81623206,9.31351363 C9.82240299,10.8599505 9.11620201,12.0365717 8.19549958,12.7781018 C6.36026565,14.2561773 3.64974731,12.6382934 4.49738595,10.4697214 C4.5894562,10.2335427 4.71879884,9.9959397 4.88664808,9.76189723 L5.12361171,9.47705853 C5.19766284,9.39967734 5.25048599,9.29903433 5.2146946,9.19411874 C5.01401603,8.62800181 3.46832203,8.97526767 3.04005964,10.0315445 C3.34292878,9.79631524 3.65986763,9.66433998 3.96940137,9.71489885 C2.38890334,11.275815 3.44141679,13.9563846 5.46005069,14.7513219 C6.40494316,15.1232738 7.55964718,15.0976383 8.68744595,14.5405413" id="Fill-2" fill="url(#linearGradient-3)" mask="url(#mask-2)"></path>
            </g>
        </g>
        <g id="Rectangle-Copy-4">
            <use fill="black" fill-opacity="1" filter="url(#filter-5)" xlink:href="#path-4"></use>
            <rect stroke="#006AE1" stroke-width="4" stroke-linejoin="square" fill="#FFFFFF" fill-rule="evenodd" x="22" y="64" width="762" height="136"></rect>
        </g>
        <text id="Restore-Files-To-Wor" fill-rule="nonzero" font-family="Helvetica" font-size="18" font-weight="normal" fill="#0055C2">
            <tspan x="10" y="23">Restore Files To Working Tree — Git Restore</tspan>
        </text>
        <g id="git" transform="translate(704.000000, 9.000000)">
            <path d="M46.8658496,11.2380575 C45.1623498,11.2380575 43.8939053,12.0891281 43.8939053,14.1376499 C43.8939053,15.6808485 44.7297841,16.7522856 46.7743573,16.7522856 C48.5071097,16.7522856 49.6846843,15.7131436 49.6846843,14.073693 C49.6846843,12.2157755 48.6309666,11.2380575 46.8658496,11.2380575 L46.8658496,11.2380575 Z M43.4607172,25.7011913 C43.0574041,26.2046147 42.6553359,26.7397 42.6553359,27.3710373 C42.6553359,28.6305458 44.2337339,29.0092215 46.4027864,29.0092215 C48.1984009,29.0092215 50.6450424,28.8813076 50.6450424,27.1823327 C50.6450424,26.1723196 49.4674678,26.1102624 47.9805621,26.0152768 L43.4607172,25.7011913 Z M52.6255087,11.3330431 C53.1825537,12.0580995 53.7719634,13.0662128 53.7719634,14.5156924 C53.7719634,18.0124273 51.0776081,20.0603158 47.1764255,20.0603158 C46.1843252,20.0603158 45.2862067,19.9349349 44.7291617,19.7772589 L43.7071863,21.4471049 L46.7413702,21.6351763 C52.0989611,21.9828234 55.257002,22.1404995 55.257002,26.3293624 C55.257002,29.9533779 52.1300809,32 46.7413702,32 C41.1360655,32 39,30.5505204 39,28.0625322 C39,26.6440812 39.6199071,25.8898959 40.7034998,24.848221 C39.680902,24.4087545 39.3410734,23.6216409 39.3410734,22.7705703 C39.3410734,22.0771758 39.6815244,21.4471049 40.2391918,20.8480627 C40.7968593,20.2502869 41.416144,19.6506115 42.1586633,18.9578502 C40.6412601,18.2017651 39.4960502,16.563581 39.4960502,14.231369 C39.4960502,10.6086199 41.8493321,8.12063165 46.5870158,8.12063165 C47.9189448,8.12063165 48.7249485,8.24537935 49.436348,8.43598369 L55.4754632,8.43598369 L55.4754632,11.1133099 L52.6255087,11.3330431 L52.6255087,11.3330431 Z M60.9233016,5.60858036 C59.1575621,5.60858036 58.1355867,4.56817192 58.1355867,2.77167847 C58.1355867,0.977717972 59.1575621,0 60.9233016,0 C62.7195385,0 63.7408917,0.977084735 63.7408917,2.77167847 C63.7415139,4.56817192 62.7195385,5.60858036 60.9233016,5.60858036 Z M56.9275147,24.5423675 L56.9275147,22.0543792 L58.50778,21.8340127 C58.9409681,21.770689 59.0025853,21.6763367 59.0025853,21.2026754 L59.0025853,11.9403174 C59.0025853,11.59457 58.9104706,11.372937 58.5998947,11.279218 L56.9275147,10.6801757 L57.2679657,8.12949697 L63.6792742,8.12949697 L63.6792742,21.2033087 C63.6792742,21.7086318 63.7091492,21.770689 64.174702,21.834646 L65.7543448,22.0550125 L65.7543448,24.5430008 L56.9275147,24.5430008 L56.9275147,24.5423675 Z M78,23.32022 C76.6674487,23.9806863 74.7174798,24.5803617 72.9511179,24.5803617 C69.2665294,24.5803617 67.8736056,23.0694582 67.8736056,19.5074999 L67.8736056,11.2532552 C67.8736056,11.0651838 67.8736056,10.9385364 67.6252693,10.9385364 L65.458084,10.9385364 L65.458084,8.13456287 C68.1841815,7.81857759 69.2671518,6.43242174 69.6076028,2.99837733 L72.5502944,2.99837733 L72.5502944,7.47346341 C72.5502944,7.69319666 72.5502944,7.78881545 72.7980083,7.78881545 L77.1641212,7.78881545 L77.1641212,10.9391697 L72.5502944,10.9391697 L72.5502944,18.4683579 C72.5502944,20.3269086 72.9841049,21.0513318 74.6558625,21.0513318 C75.5241059,21.0513318 76.4209796,20.8315985 77.1641212,20.5479083 L78,23.32022 L78,23.32022 Z" id="Shape" fill="#31251C" fill-rule="nonzero"></path>
            <path d="M32.3772539,15.0299695 L17.9690664,0.622277028 C17.140005,-0.207425676 15.7941261,-0.207425676 14.9644314,0.622277028 L11.9724635,3.61427365 L15.7668919,7.40937182 C16.6497884,7.11169223 17.6606226,7.31120089 18.3636464,8.01486479 C19.0704703,8.72232885 19.2687104,9.74203981 18.9634334,10.6274783 L22.6210571,14.2851371 C23.5052204,13.9804906 24.5268216,14.1774658 25.2336455,14.8849299 C26.221679,15.8723394 26.221679,17.4728423 25.2336455,18.4608852 C24.2449787,19.4489281 22.6451246,19.4489281 21.6570912,18.4608852 C20.914166,17.7173195 20.7304932,16.6260388 21.1067059,15.7108324 L17.6954571,12.2995509 L17.6948238,21.2768075 C17.9361319,21.3958793 18.1628729,21.5542195 18.3636464,21.7543616 C19.3516798,22.7417711 19.3516798,24.3416406 18.3636464,25.3309502 C17.375613,26.3183598 15.7744921,26.3183598 14.7877254,25.3309502 C13.799692,24.3416406 13.799692,22.7417711 14.7877254,21.7543616 C15.0322003,21.5105176 15.3140432,21.3262096 15.6155201,21.2027043 L15.6155201,12.1424774 C15.3140432,12.0196054 15.0322003,11.8359308 14.7877254,11.5908201 C14.0391001,10.842821 13.8592273,9.74520661 14.2430403,8.82620003 L10.5024471,5.08430417 L0.622746073,14.9634666 C-0.207582024,15.7938027 -0.207582024,17.1396945 0.622746073,17.9700305 L15.0309336,32.377723 C15.8606284,33.2074257 17.2058739,33.2074257 18.0368353,32.377723 L32.3772539,18.0359 C33.207582,17.2061973 33.207582,15.8596722 32.3772539,15.0299695 L32.3772539,15.0299695 Z" id="Path" fill="#F34F29" fill-rule="nonzero"></path>
            <polygon id="Path" points="1.12409637e-15 0 79 0 79 33 0 33"></polygon>
        </g>
        <text id="$-git-restore-[direc" font-family="Helvetica-Bold, Helvetica" font-size="36" font-weight="bold" fill="#0055C2">
            <tspan x="108.944336" y="149">$ git restore [directory or file path]</tspan>
        </text>
        <rect id="Rectangle-Copy-5" stroke="#006AE1" x="359.5" y="431.5" width="416" height="108" rx="8"></rect>
        <rect id="Rectangle-Copy-6" stroke="#006AE1" x="359.5" y="273.5" width="416" height="147" rx="8"></rect>
        <text id="$-git-checkout-—-[di" font-family="Helvetica-Bold, Helvetica" font-size="18" font-weight="bold" fill="#0055C2">
            <tspan x="397" y="509">$ git checkout — [directory or file path]</tspan>
        </text>
        <text id="$-git-restore-[-file" font-family="Helvetica-Bold, Helvetica" font-size="18" font-weight="bold" fill="#0055C2">
            <tspan x="384" y="334">$ git restore [ file path ] -s [commit hash]</tspan>
        </text>
        <text id="$-git-restore-[-file" font-family="Helvetica-Bold, Helvetica" font-size="18" font-weight="bold" fill="#0055C2">
            <tspan x="384" y="396">$ git restore [ file path ] -s Head</tspan>
        </text>
        <text id="or" font-family="Helvetica" font-size="18" font-weight="normal" fill="#0055C2">
            <tspan x="554.997559" y="362">or</tspan>
        </text>
        <text id="The-following-comman" font-family="Helvetica" font-size="18" font-weight="normal" fill="#0055C2">
            <tspan x="372" y="460">The following command gives the same results</tspan>
        </text>
        <text id="Restore-a-file-from" font-family="Helvetica" font-size="18" font-weight="normal" fill="#0055C2">
            <tspan x="372" y="306">Restore a file from a specific commit or Head</tspan>
        </text>
        <text id="Related-commands-/-o" font-family="Helvetica-Bold, Helvetica" font-size="24" font-weight="bold" fill="#0055C2">
            <tspan x="399.140625" y="245">Related commands / options</tspan>
        </text>
        <g id="2041-10-15-12-10_EditAndCommitCodesOverveiw(1)_IMG_3" transform="translate(247.000000, 373.000000)">
            <g id="Group-Copy-2" fill-rule="nonzero" stroke="#0055C2">
                <path d="M68.6326077,9.91500484 C66.0518514,3.39070668 50.1961091,0 34.517131,0 C18.8381528,0 3.15917465,3.35856728 0.437007075,9.81858664 C0.159959282,10.2000096 0.0124263883,10.6470855 0.0127731674,11.1041626 L0.0127731674,70.4495644 C-0.00425772246,70.5776558 -0.00425772246,70.7071457 0.0127731674,70.8352372 C0.00421547011,70.9475906 0.00421547011,71.0603475 0.0127731674,71.1727009 C0.0127731674,78.9343659 17.3710105,83 34.517131,83 C51.6632514,83 68.9861359,78.9343659 68.9861359,71.1727009 C68.9946865,71.0657105 68.9946865,70.9582972 68.9861359,70.8513069 C69.0046214,70.7179199 69.0046214,70.5829513 68.9861359,70.4495644 L68.9861359,11.1041626 C68.9951607,10.68527 68.8725165,10.2727335 68.6326077,9.91500484 Z" id="Path" stroke-width="3"></path>
                <path d="M34.4967723,0 C56.8398397,0 68.9832654,5.98283753 68.9832654,9.05735126 C69.0055782,9.15302708 69.0055782,9.25250782 68.9832654,9.34818364 C68.2517338,12.5057923 56.0874071,18.15625 34.4967723,18.15625 C12.9061375,18.15625 0.741810829,12.4434711 0.0102791566,9.34818364 C-0.00342638553,9.27262229 -0.00342638553,9.19523383 0.0102791566,9.11967248 C0.0102791566,5.98283753 12.1537049,0 34.4967723,0 Z" id="Path" stroke-width="2"></path>
            </g>
            <g id="documents-copy-14" transform="translate(5.000000, 25.000000)" fill-rule="nonzero">
                <path d="M27.3488372,8.5 L27.3488372,33.3461538 L5.86046512,33.3461538 L5.86046512,30.5065934 C5.86749477,30.4981457 24.1442739,8.51121626 24.1535402,8.5 L27.3488372,8.5 Z" id="Path" fill="#A4C2F7"></path>
                <path d="M24.744186,30.7307692 C24.0077703,30.7307692 1.10361315,30.7307692 0.651162791,30.7307692 C0.651162791,28.8667877 0.651162791,1.89831465 0.651162791,0.653846154 L18.0978348,0.653846154 L19.897916,4.64025586 L24.744186,6.38278388 C24.744186,7.45488297 24.744186,29.5128687 24.744186,30.7307692 Z" id="Path" fill="#FFFFFF"></path>
                <polygon id="Path" fill="#A4C2F7" points="24.744186 6.53846154 18.2325581 6.53846154 18.2325581 0.653846154"></polygon>
                <path d="M23.9459865,30.7307692 L0.79819955,30.7307692 C0.357353938,30.7307692 0,30.4180138 0,30.0323427 L0,0.698426573 C0,0.312685577 0.357353938,0 0.79819955,0 L17.5603901,0 C17.7720726,0 17.9750548,0.0736141608 18.124797,0.204569143 L24.5103934,5.79198173 C24.6600558,5.92293671 24.744186,6.10061643 24.744186,6.28583916 L24.744186,30.0323427 C24.744186,30.4180138 24.3867523,30.7307692 23.9459865,30.7307692 Z M1.5963991,29.3339161 L23.1477869,29.3339161 L23.1477869,6.57512745 L17.229696,1.39685315 L1.5963991,1.39685315 L1.5963991,29.3339161 Z" id="Shape" fill="#418CFE"></path>
                <path d="M24.0569727,7.08333333 L17.7481291,7.08333333 C17.3126611,7.08333333 16.9595236,6.7662125 16.9595236,6.375 L16.9595236,0.708333333 C16.9595236,0.317120833 17.3126611,0 17.7481291,0 C18.183597,0 18.5367345,0.317120833 18.5367345,0.708333333 L18.5367345,5.66666667 L24.0569727,5.66666667 C24.4924407,5.66666667 24.8455782,5.9837875 24.8455782,6.375 C24.8455782,6.7662125 24.4924407,7.08333333 24.0569727,7.08333333 Z M27.2113945,34 L5.99790778,34 C5.56236099,34 5.20930233,33.6828083 5.20930233,33.2916667 L5.20930233,30.4583333 C5.20930233,30.0671917 5.56236099,29.75 5.99790778,29.75 C6.43345457,29.75 6.78651324,30.0671917 6.78651324,30.4583333 L6.78651324,32.5833333 L26.4227891,32.5833333 L26.4227891,9.20833333 L24.0569727,9.20833333 C23.6215048,9.20833333 23.2683673,8.8912125 23.2683673,8.5 C23.2683673,8.1087875 23.6215048,7.79166667 24.0569727,7.79166667 L27.2113945,7.79166667 C27.6468625,7.79166667 28,8.1087875 28,8.5 L28,33.2916667 C28,33.6828083 27.6468625,34 27.2113945,34 Z" id="Shape" fill="#418CFE"></path>
                <path d="M20.6673407,26.1538462 L3.42568251,26.1538462 C2.9722269,26.1538462 2.60465116,25.8344364 2.60465116,25.4405594 C2.60465116,25.0466825 2.9722269,24.7272727 3.42568251,24.7272727 L20.6673407,24.7272727 C21.1207143,24.7272727 21.4883721,25.0466825 21.4883721,25.4405594 C21.4883721,25.8344364 21.1207143,26.1538462 20.6673407,26.1538462 Z M20.6673407,23.3006993 L3.42568251,23.3006993 C2.9722269,23.3006993 2.60465116,22.9812895 2.60465116,22.5874126 C2.60465116,22.1935357 2.9722269,21.8741259 3.42568251,21.8741259 L20.6673407,21.8741259 C21.1207143,21.8741259 21.4883721,22.1935357 21.4883721,22.5874126 C21.4883721,22.9812895 21.1207143,23.3006993 20.6673407,23.3006993 Z M20.6673407,20.4475524 L3.42568251,20.4475524 C2.9722269,20.4475524 2.60465116,20.1281427 2.60465116,19.7342657 C2.60465116,19.3403888 2.9722269,19.020979 3.42568251,19.020979 L20.6673407,19.020979 C21.1207143,19.020979 21.4883721,19.3403888 21.4883721,19.7342657 C21.4883721,20.1281427 21.1207143,20.4475524 20.6673407,20.4475524 Z M20.6673407,17.5944056 L3.42568251,17.5944056 C2.9722269,17.5944056 2.60465116,17.2750671 2.60465116,16.8811189 C2.60465116,16.4871706 2.9722269,16.1678322 3.42568251,16.1678322 L20.6673407,16.1678322 C21.1207143,16.1678322 21.4883721,16.4871706 21.4883721,16.8811189 C21.4883721,17.2750671 21.1207143,17.5944056 20.6673407,17.5944056 Z M20.6673407,14.7412587 L3.42568251,14.7412587 C2.9722269,14.7412587 2.60465116,14.4219203 2.60465116,14.027972 C2.60465116,13.6340238 2.9722269,13.3146853 3.42568251,13.3146853 L20.6673407,13.3146853 C21.1207143,13.3146853 21.4883721,13.6340238 21.4883721,14.027972 C21.4883721,14.4219203 21.1207143,14.7412587 20.6673407,14.7412587 Z M10.8149646,11.8881119 L3.42568251,11.8881119 C2.9722269,11.8881119 2.60465116,11.5687734 2.60465116,11.1748252 C2.60465116,10.7808769 2.9722269,10.4615385 3.42568251,10.4615385 L10.8149646,10.4615385 C11.2684202,10.4615385 11.635996,10.7808769 11.635996,11.1748252 C11.635996,11.5687734 11.2684202,11.8881119 10.8149646,11.8881119 Z" id="Shape" fill="#418CFE"></path>
            </g>
            <g id="documents-copy-16" transform="translate(38.000000, 25.000000)" fill-rule="nonzero">
                <path d="M27.3488372,8.5 L27.3488372,33.3461538 L5.86046512,33.3461538 L5.86046512,30.5065934 C5.86749477,30.4981457 24.1442739,8.51121626 24.1535402,8.5 L27.3488372,8.5 Z" id="Path" fill="#A4C2F7"></path>
                <path d="M24.744186,30.7307692 C24.0077703,30.7307692 1.10361315,30.7307692 0.651162791,30.7307692 C0.651162791,28.8667877 0.651162791,1.89831465 0.651162791,0.653846154 L18.0978348,0.653846154 L19.897916,4.64025586 L24.744186,6.38278388 C24.744186,7.45488297 24.744186,29.5128687 24.744186,30.7307692 Z" id="Path" fill="#FFFFFF"></path>
                <polygon id="Path" fill="#A4C2F7" points="24.744186 6.53846154 18.2325581 6.53846154 18.2325581 0.653846154"></polygon>
                <path d="M23.9459865,30.7307692 L0.79819955,30.7307692 C0.357353938,30.7307692 0,30.4180138 0,30.0323427 L0,0.698426573 C0,0.312685577 0.357353938,0 0.79819955,0 L17.5603901,0 C17.7720726,0 17.9750548,0.0736141608 18.124797,0.204569143 L24.5103934,5.79198173 C24.6600558,5.92293671 24.744186,6.10061643 24.744186,6.28583916 L24.744186,30.0323427 C24.744186,30.4180138 24.3867523,30.7307692 23.9459865,30.7307692 Z M1.5963991,29.3339161 L23.1477869,29.3339161 L23.1477869,6.57512745 L17.229696,1.39685315 L1.5963991,1.39685315 L1.5963991,29.3339161 Z" id="Shape" fill="#418CFE"></path>
                <path d="M24.0569727,7.08333333 L17.7481291,7.08333333 C17.3126611,7.08333333 16.9595236,6.7662125 16.9595236,6.375 L16.9595236,0.708333333 C16.9595236,0.317120833 17.3126611,0 17.7481291,0 C18.183597,0 18.5367345,0.317120833 18.5367345,0.708333333 L18.5367345,5.66666667 L24.0569727,5.66666667 C24.4924407,5.66666667 24.8455782,5.9837875 24.8455782,6.375 C24.8455782,6.7662125 24.4924407,7.08333333 24.0569727,7.08333333 Z M27.2113945,34 L5.99790778,34 C5.56236099,34 5.20930233,33.6828083 5.20930233,33.2916667 L5.20930233,30.4583333 C5.20930233,30.0671917 5.56236099,29.75 5.99790778,29.75 C6.43345457,29.75 6.78651324,30.0671917 6.78651324,30.4583333 L6.78651324,32.5833333 L26.4227891,32.5833333 L26.4227891,9.20833333 L24.0569727,9.20833333 C23.6215048,9.20833333 23.2683673,8.8912125 23.2683673,8.5 C23.2683673,8.1087875 23.6215048,7.79166667 24.0569727,7.79166667 L27.2113945,7.79166667 C27.6468625,7.79166667 28,8.1087875 28,8.5 L28,33.2916667 C28,33.6828083 27.6468625,34 27.2113945,34 Z" id="Shape" fill="#418CFE"></path>
                <path d="M20.6673407,26.1538462 L3.42568251,26.1538462 C2.9722269,26.1538462 2.60465116,25.8344364 2.60465116,25.4405594 C2.60465116,25.0466825 2.9722269,24.7272727 3.42568251,24.7272727 L20.6673407,24.7272727 C21.1207143,24.7272727 21.4883721,25.0466825 21.4883721,25.4405594 C21.4883721,25.8344364 21.1207143,26.1538462 20.6673407,26.1538462 Z M20.6673407,23.3006993 L3.42568251,23.3006993 C2.9722269,23.3006993 2.60465116,22.9812895 2.60465116,22.5874126 C2.60465116,22.1935357 2.9722269,21.8741259 3.42568251,21.8741259 L20.6673407,21.8741259 C21.1207143,21.8741259 21.4883721,22.1935357 21.4883721,22.5874126 C21.4883721,22.9812895 21.1207143,23.3006993 20.6673407,23.3006993 Z M20.6673407,20.4475524 L3.42568251,20.4475524 C2.9722269,20.4475524 2.60465116,20.1281427 2.60465116,19.7342657 C2.60465116,19.3403888 2.9722269,19.020979 3.42568251,19.020979 L20.6673407,19.020979 C21.1207143,19.020979 21.4883721,19.3403888 21.4883721,19.7342657 C21.4883721,20.1281427 21.1207143,20.4475524 20.6673407,20.4475524 Z M20.6673407,17.5944056 L3.42568251,17.5944056 C2.9722269,17.5944056 2.60465116,17.2750671 2.60465116,16.8811189 C2.60465116,16.4871706 2.9722269,16.1678322 3.42568251,16.1678322 L20.6673407,16.1678322 C21.1207143,16.1678322 21.4883721,16.4871706 21.4883721,16.8811189 C21.4883721,17.2750671 21.1207143,17.5944056 20.6673407,17.5944056 Z M20.6673407,14.7412587 L3.42568251,14.7412587 C2.9722269,14.7412587 2.60465116,14.4219203 2.60465116,14.027972 C2.60465116,13.6340238 2.9722269,13.3146853 3.42568251,13.3146853 L20.6673407,13.3146853 C21.1207143,13.3146853 21.4883721,13.6340238 21.4883721,14.027972 C21.4883721,14.4219203 21.1207143,14.7412587 20.6673407,14.7412587 Z M10.8149646,11.8881119 L3.42568251,11.8881119 C2.9722269,11.8881119 2.60465116,11.5687734 2.60465116,11.1748252 C2.60465116,10.7808769 2.9722269,10.4615385 3.42568251,10.4615385 L10.8149646,10.4615385 C11.2684202,10.4615385 11.635996,10.7808769 11.635996,11.1748252 C11.635996,11.5687734 11.2684202,11.8881119 10.8149646,11.8881119 Z" id="Shape" fill="#418CFE"></path>
            </g>
            <rect id="Rectangle-Copy-4" fill="#DE4040" x="6" y="63" width="60" height="11" rx="2"></rect>
            <text id="Committed" font-family="Helvetica" font-size="10" font-weight="normal" fill="#FFFFFF">
                <tspan x="12.3276367" y="72">Committed</tspan>
            </text>
        </g>
        <polyline id="Path-19" stroke="#006AE1" stroke-width="3" points="83 399 83 380.579336 154.791467 380.579336 154.791467 364.461255 232.562753 364.461255 232.562753 347 301 347"></polyline>
        <g id="Group-Copy" transform="translate(249.000000, 295.000000)" fill-rule="nonzero">
            <path d="M38.7923435,6.21181026 C37.3336551,2.12429816 28.3717139,0 19.5096827,0 C10.6476516,0 1.78562045,2.10416263 0.247003999,6.15140368 C0.090411768,6.39036747 0.00702361076,6.6704632 0.00721961634,6.95682478 L0.00721961634,44.1370765 C-0.00240653878,44.2173265 -0.00240653878,44.2984528 0.00721961634,44.3787028 C0.00238265702,44.4490929 0.00238265702,44.5197358 0.00721961634,44.5901258 C0.00721961634,49.4528558 9.81839726,52 19.5096827,52 C29.2009682,52 38.9921638,49.4528558 38.9921638,44.5901258 C38.9969967,44.5230958 38.9969967,44.4558007 38.9921638,44.3887706 C39.0026121,44.3052029 39.0026121,44.2206442 38.9921638,44.1370765 L38.9921638,6.95682478 C38.9972647,6.69438601 38.9279441,6.43592945 38.7923435,6.21181026 Z" id="Path" fill="url(#linearGradient-6)"></path>
            <path d="M19.4981756,0 C32.1268659,0 38.9905413,3.62471396 38.9905413,5.48741419 C39.0031529,5.54537957 39.0031529,5.60565018 38.9905413,5.66361556 C38.5770669,7.57665904 31.7015779,11 19.4981756,11 C7.29477337,11 0.419284382,7.5389016 0.00580995807,5.66361556 C-0.00193665269,5.61783657 -0.00193665269,5.57095062 0.00580995807,5.52517162 C0.00580995807,3.62471396 6.86948539,0 19.4981756,0 Z" id="Path" fill="#7BB2FF"></path>
        </g>
        <g id="Path-Copy-5">
            <use fill="black" fill-opacity="1" filter="url(#filter-8)" xlink:href="#path-7"></use>
            <use fill="#7BB2FF" fill-rule="evenodd" xlink:href="#path-7"></use>
        </g>
        <ellipse id="Oval-Copy" fill-opacity="0.5" fill="#FFC0C0" cx="191.5" cy="338.5" rx="46.5" ry="28.5"></ellipse>
        <text id="Staging-Area" font-family="Helvetica-Bold, Helvetica" font-size="18" font-weight="bold" fill="#0055C2">
            <tspan x="157.501465" y="332">Staging</tspan>
            <tspan x="170.487305" y="354">Area</tspan>
        </text>
        <text id="Commit-History" font-family="Helvetica-Bold, Helvetica" font-size="18" font-weight="bold" fill="#0055C2">
            <tspan x="239.000488" y="260">Commit </tspan>
            <tspan x="241.492188" y="282">History</tspan>
        </text>
        <path d="M187.397277,479.215269 L187.106163,478.933136 L184.379695,476.779869 L181.498179,474.942546 L178.486341,473.422101 L175.368787,472.2193 L172.170071,471.334812 L168.914601,470.769245 L165.626758,470.523199 L162.330834,470.597298 L159.05115,470.992204 L155.812075,471.708573 L152.638021,472.747089 L149.553543,474.108353 L146.583273,475.792903 L143.751933,477.801098 L141.08424,480.133147 L138.665459,482.725412 L136.534689,485.533077 L134.702811,488.530669 L133.180357,491.69306 L131.977852,494.995154 L131.105837,498.411905 L130.57488,501.918208 L130.397277,505.45431 L131.750185,505.523199 L131.926059,502.021447 L131.919179,502.0898 L132.439866,498.651314 L132.426289,498.718259 L133.281421,495.367668 L133.261337,495.43271 L134.440528,492.194637 L134.414098,492.257341 L135.906954,489.156422 L135.874326,489.216344 L137.670479,486.277208 L137.631803,486.333887 L139.72087,483.581156 L139.676322,483.634047 L142.047916,481.092366 L141.998329,481.14037 L144.614089,478.853722 L144.560105,478.896285 L147.335472,476.927794 L147.277811,476.964458 L150.188842,475.313508 L150.12834,475.343921 L153.151116,474.009882 L153.08854,474.033864 L156.199127,473.016112 L156.135119,473.033617 L159.309591,472.331536 L159.244708,472.342588 L162.459137,471.955546 L162.393836,471.960199 L165.624297,471.887573 L165.558972,471.885866 L168.781529,472.127025 L168.716569,472.118966 L171.907296,472.673294 L171.843095,472.658875 L174.978065,473.52574 L174.915086,473.504938 L177.970366,474.68371 L177.909152,474.656531 L180.860822,476.146594 L180.802023,476.113118 L183.626149,477.913848 L183.570501,477.874285 L186.243163,479.985058 L186.191478,479.939806 L186.457891,480.198003 L187.397277,479.215269 Z M187.177621,479.379352 L183.397277,481.091658 L189.397277,481.523199 L188.738308,475.523199 L187.177621,479.379352 Z" id="Fill-1-Copy" fill="#006AE1" transform="translate(159.897277, 488.023199) rotate(-186.000000) translate(-159.897277, -488.023199) "></path>
        <g id="documents-copy-10" transform="translate(65.000000, 414.000000)" fill-rule="nonzero">
            <path d="M33,11 L33,42 L7,42 L7,38.4571429 C7.00850558,38.4466029 29.1226171,11.0139943 29.133829,11 L33,11 Z" id="Path" fill="#C5C4C4"></path>
            <path d="M29,38 C28.1136,38 0.5446,38 0,38 C0,35.706969 0,2.53091905 0,1 L21,1 L23.1667,5.90399762 L29,8.04761905 C29,9.36649286 29,36.5017643 29,38 Z" id="Path" fill="#FFFFFF"></path>
            <polygon id="Path" fill="#C5C4C4" points="30 8 22 8 22 1"></polygon>
            <path d="M29.0322581,38 L0.967741935,38 C0.433258065,38 0,37.6132636 0,37.1363636 L0,0.863636364 C0,0.38665 0.433258065,0 0.967741935,0 L21.2903226,0 C21.5469677,0 21.7930645,0.0910272727 21.9746129,0.252959091 L29.7165484,7.16205 C29.898,7.32398182 30,7.54369091 30,7.77272727 L30,37.1363636 C30,37.6132636 29.5666452,38 29.0322581,38 Z M1.93548387,36.2727273 L28.0645161,36.2727273 L28.0645161,8.13044545 L20.8893871,1.72727273 L1.93548387,1.72727273 L1.93548387,36.2727273 Z" id="Shape" fill="#999999"></path>
            <path d="M29.1557093,8.75 L21.4048443,8.75 C20.8698408,8.75 20.4359862,8.3582625 20.4359862,7.875 L20.4359862,0.875 C20.4359862,0.3917375 20.8698408,0 21.4048443,0 C21.9398478,0 22.3737024,0.3917375 22.3737024,0.875 L22.3737024,7 L29.1557093,7 C29.6907128,7 30.1245675,7.3917375 30.1245675,7.875 C30.1245675,8.3582625 29.6907128,8.75 29.1557093,8.75 Z M33.0311419,42 L6.96885813,42 C6.43375779,42 6,41.608175 6,41.125 L6,37.625 C6,37.141825 6.43375779,36.75 6.96885813,36.75 C7.50395848,36.75 7.93771626,37.141825 7.93771626,37.625 L7.93771626,40.25 L32.0622837,40.25 L32.0622837,11.375 L29.1557093,11.375 C28.6207059,11.375 28.1868512,10.9832625 28.1868512,10.5 C28.1868512,10.0167375 28.6207059,9.625 29.1557093,9.625 L33.0311419,9.625 C33.5661453,9.625 34,10.0167375 34,10.5 L34,41.125 C34,41.608175 33.5661453,42 33.0311419,42 Z" id="Shape" fill="#999999"></path>
            <path d="M25,32 L4,32 C3.4477,32 3,31.6132636 3,31.1363636 C3,30.6594636 3.4477,30.2727273 4,30.2727273 L25,30.2727273 C25.5522,30.2727273 26,30.6594636 26,31.1363636 C26,31.6132636 25.5522,32 25,32 Z M25,28.5454545 L4,28.5454545 C3.4477,28.5454545 3,28.1587182 3,27.6818182 C3,27.2049182 3.4477,26.8181818 4,26.8181818 L25,26.8181818 C25.5522,26.8181818 26,27.2049182 26,27.6818182 C26,28.1587182 25.5522,28.5454545 25,28.5454545 Z M25,25.0909091 L4,25.0909091 C3.4477,25.0909091 3,24.7041727 3,24.2272727 C3,23.7503727 3.4477,23.3636364 4,23.3636364 L25,23.3636364 C25.5522,23.3636364 26,23.7503727 26,24.2272727 C26,24.7041727 25.5522,25.0909091 25,25.0909091 Z M25,21.6363636 L4,21.6363636 C3.4477,21.6363636 3,21.2497136 3,20.7727273 C3,20.2957409 3.4477,19.9090909 4,19.9090909 L25,19.9090909 C25.5522,19.9090909 26,20.2957409 26,20.7727273 C26,21.2497136 25.5522,21.6363636 25,21.6363636 Z M25,18.1818182 L4,18.1818182 C3.4477,18.1818182 3,17.7951682 3,17.3181818 C3,16.8411955 3.4477,16.4545455 4,16.4545455 L25,16.4545455 C25.5522,16.4545455 26,16.8411955 26,17.3181818 C26,17.7951682 25.5522,18.1818182 25,18.1818182 Z M13,14.7272727 L4,14.7272727 C3.4477,14.7272727 3,14.3406227 3,13.8636364 C3,13.38665 3.4477,13 4,13 L13,13 C13.5523,13 14,13.38665 14,13.8636364 C14,14.3406227 13.5523,14.7272727 13,14.7272727 Z" id="Shape" fill="#999999"></path>
        </g>
        <g id="documents-copy-9" transform="translate(80.000000, 446.000000)" fill-rule="nonzero">
            <path d="M44.8051948,14.7096774 L44.8051948,56.3870968 L9.55844156,56.3870968 L9.55844156,51.6239631 C9.56997209,51.6097928 39.5488426,14.7284918 39.5640419,14.7096774 L44.8051948,14.7096774 Z" id="Path" fill="#A4C2F7"></path>
            <path d="M39.4285714,50.8709677 C38.2416767,50.8709677 1.32662517,50.8709677 0.597402597,50.8709677 C0.597402597,47.794268 0.597402597,3.2799341 0.597402597,1.22580645 L28.7165249,1.22580645 L31.6177488,7.80579977 L39.4285714,10.6820276 C39.4285714,12.4516412 39.4285714,48.8606933 39.4285714,50.8709677 Z" id="Path" fill="#FFFFFF"></path>
            <polygon id="Path" fill="#A4C2F7" points="40.025974 11.0322581 29.2727273 11.0322581 29.2727273 1.22580645"></polygon>
            <path d="M39.8910767,51.483871 L1.32970256,51.483871 C0.595307834,51.483871 0,50.9599056 0,50.313783 L0,1.17008798 C0,0.523848387 0.595307834,0 1.32970256,0 L29.2534562,0 C29.6060933,0 29.9442367,0.123327273 30.1936889,0.342718768 L40.8313093,9.70342258 C41.0806286,9.92281408 41.2207792,10.2204845 41.2207792,10.5307918 L41.2207792,50.313783 C41.2207792,50.9599056 40.6253384,51.483871 39.8910767,51.483871 Z M2.65940511,49.143695 L38.5613741,49.143695 L38.5613741,11.0154422 L28.7025605,2.34017595 L2.65940511,2.34017595 L2.65940511,49.143695 Z" id="Shape" fill="#418CFE"></path>
            <path d="M39.4885184,11.875 L29.0701478,11.875 C28.3510198,11.875 27.7678515,11.3433562 27.7678515,10.6875 L27.7678515,1.1875 C27.7678515,0.53164375 28.3510198,0 29.0701478,0 C29.7892759,0 30.3724442,0.53164375 30.3724442,1.1875 L30.3724442,9.5 L39.4885184,9.5 C40.2076464,9.5 40.7908147,10.0316438 40.7908147,10.6875 C40.7908147,11.3433562 40.2076464,11.875 39.4885184,11.875 Z M44.6977037,57 L9.66593268,57 C8.94667443,57 8.36363636,56.4682375 8.36363636,55.8125 L8.36363636,51.0625 C8.36363636,50.4067625 8.94667443,49.875 9.66593268,49.875 C10.3851909,49.875 10.968229,50.4067625 10.968229,51.0625 L10.968229,54.625 L43.3954074,54.625 L43.3954074,15.4375 L39.4885184,15.4375 C38.7693904,15.4375 38.1862221,14.9058562 38.1862221,14.25 C38.1862221,13.5941438 38.7693904,13.0625 39.4885184,13.0625 L44.6977037,13.0625 C45.4168317,13.0625 46,13.5941438 46,14.25 L46,55.8125 C46,56.4682375 45.4168317,57 44.6977037,57 Z" id="Shape" fill="#418CFE"></path>
            <path d="M33.8961039,44.1290323 L5.53246753,44.1290323 C4.7865039,44.1290323 4.18181818,43.5925915 4.18181818,42.931085 C4.18181818,42.2695786 4.7865039,41.7331378 5.53246753,41.7331378 L33.8961039,41.7331378 C34.6419325,41.7331378 35.2467532,42.2695786 35.2467532,42.931085 C35.2467532,43.5925915 34.6419325,44.1290323 33.8961039,44.1290323 Z M33.8961039,39.3372434 L5.53246753,39.3372434 C4.7865039,39.3372434 4.18181818,38.8008026 4.18181818,38.1392962 C4.18181818,37.4777897 4.7865039,36.941349 5.53246753,36.941349 L33.8961039,36.941349 C34.6419325,36.941349 35.2467532,37.4777897 35.2467532,38.1392962 C35.2467532,38.8008026 34.6419325,39.3372434 33.8961039,39.3372434 Z M33.8961039,34.5454545 L5.53246753,34.5454545 C4.7865039,34.5454545 4.18181818,34.0090138 4.18181818,33.3475073 C4.18181818,32.6860009 4.7865039,32.1495601 5.53246753,32.1495601 L33.8961039,32.1495601 C34.6419325,32.1495601 35.2467532,32.6860009 35.2467532,33.3475073 C35.2467532,34.0090138 34.6419325,34.5454545 33.8961039,34.5454545 Z M33.8961039,29.7536657 L5.53246753,29.7536657 C4.7865039,29.7536657 4.18181818,29.2173447 4.18181818,28.5557185 C4.18181818,27.8940922 4.7865039,27.3577713 5.53246753,27.3577713 L33.8961039,27.3577713 C34.6419325,27.3577713 35.2467532,27.8940922 35.2467532,28.5557185 C35.2467532,29.2173447 34.6419325,29.7536657 33.8961039,29.7536657 Z M33.8961039,24.9618768 L5.53246753,24.9618768 C4.7865039,24.9618768 4.18181818,24.4255559 4.18181818,23.7639296 C4.18181818,23.1023034 4.7865039,22.5659824 5.53246753,22.5659824 L33.8961039,22.5659824 C34.6419325,22.5659824 35.2467532,23.1023034 35.2467532,23.7639296 C35.2467532,24.4255559 34.6419325,24.9618768 33.8961039,24.9618768 Z M17.6883117,20.170088 L5.53246753,20.170088 C4.7865039,20.170088 4.18181818,19.633767 4.18181818,18.9721408 C4.18181818,18.3105145 4.7865039,17.7741935 5.53246753,17.7741935 L17.6883117,17.7741935 C18.4342753,17.7741935 19.038961,18.3105145 19.038961,18.9721408 C19.038961,19.633767 18.4342753,20.170088 17.6883117,20.170088 Z" id="Shape" fill="#418CFE"></path>
        </g>
        <g id="documents-copy-13" transform="translate(169.000000, 405.000000)" fill-rule="nonzero">
            <path d="M44.8051948,14.7096774 L44.8051948,56.3870968 L9.55844156,56.3870968 L9.55844156,51.6239631 C9.56997209,51.6097928 39.5488426,14.7284918 39.5640419,14.7096774 L44.8051948,14.7096774 Z" id="Path" fill="#A4C2F7"></path>
            <path d="M39.4285714,50.8709677 C38.2416767,50.8709677 1.32662517,50.8709677 0.597402597,50.8709677 C0.597402597,47.794268 0.597402597,3.2799341 0.597402597,1.22580645 L28.7165249,1.22580645 L31.6177488,7.80579977 L39.4285714,10.6820276 C39.4285714,12.4516412 39.4285714,48.8606933 39.4285714,50.8709677 Z" id="Path" fill="#FFFFFF"></path>
            <polygon id="Path" fill="#A4C2F7" points="40.025974 11.0322581 29.2727273 11.0322581 29.2727273 1.22580645"></polygon>
            <path d="M39.8910767,51.483871 L1.32970256,51.483871 C0.595307834,51.483871 0,50.9599056 0,50.313783 L0,1.17008798 C0,0.523848387 0.595307834,0 1.32970256,0 L29.2534562,0 C29.6060933,0 29.9442367,0.123327273 30.1936889,0.342718768 L40.8313093,9.70342258 C41.0806286,9.92281408 41.2207792,10.2204845 41.2207792,10.5307918 L41.2207792,50.313783 C41.2207792,50.9599056 40.6253384,51.483871 39.8910767,51.483871 Z M2.65940511,49.143695 L38.5613741,49.143695 L38.5613741,11.0154422 L28.7025605,2.34017595 L2.65940511,2.34017595 L2.65940511,49.143695 Z" id="Shape" fill="#418CFE"></path>
            <path d="M39.4885184,11.875 L29.0701478,11.875 C28.3510198,11.875 27.7678515,11.3433562 27.7678515,10.6875 L27.7678515,1.1875 C27.7678515,0.53164375 28.3510198,0 29.0701478,0 C29.7892759,0 30.3724442,0.53164375 30.3724442,1.1875 L30.3724442,9.5 L39.4885184,9.5 C40.2076464,9.5 40.7908147,10.0316438 40.7908147,10.6875 C40.7908147,11.3433562 40.2076464,11.875 39.4885184,11.875 Z M44.6977037,57 L9.66593268,57 C8.94667443,57 8.36363636,56.4682375 8.36363636,55.8125 L8.36363636,51.0625 C8.36363636,50.4067625 8.94667443,49.875 9.66593268,49.875 C10.3851909,49.875 10.968229,50.4067625 10.968229,51.0625 L10.968229,54.625 L43.3954074,54.625 L43.3954074,15.4375 L39.4885184,15.4375 C38.7693904,15.4375 38.1862221,14.9058562 38.1862221,14.25 C38.1862221,13.5941438 38.7693904,13.0625 39.4885184,13.0625 L44.6977037,13.0625 C45.4168317,13.0625 46,13.5941438 46,14.25 L46,55.8125 C46,56.4682375 45.4168317,57 44.6977037,57 Z" id="Shape" fill="#418CFE"></path>
            <path d="M33.8961039,44.1290323 L5.53246753,44.1290323 C4.7865039,44.1290323 4.18181818,43.5925915 4.18181818,42.931085 C4.18181818,42.2695786 4.7865039,41.7331378 5.53246753,41.7331378 L33.8961039,41.7331378 C34.6419325,41.7331378 35.2467532,42.2695786 35.2467532,42.931085 C35.2467532,43.5925915 34.6419325,44.1290323 33.8961039,44.1290323 Z M33.8961039,39.3372434 L5.53246753,39.3372434 C4.7865039,39.3372434 4.18181818,38.8008026 4.18181818,38.1392962 C4.18181818,37.4777897 4.7865039,36.941349 5.53246753,36.941349 L33.8961039,36.941349 C34.6419325,36.941349 35.2467532,37.4777897 35.2467532,38.1392962 C35.2467532,38.8008026 34.6419325,39.3372434 33.8961039,39.3372434 Z M33.8961039,34.5454545 L5.53246753,34.5454545 C4.7865039,34.5454545 4.18181818,34.0090138 4.18181818,33.3475073 C4.18181818,32.6860009 4.7865039,32.1495601 5.53246753,32.1495601 L33.8961039,32.1495601 C34.6419325,32.1495601 35.2467532,32.6860009 35.2467532,33.3475073 C35.2467532,34.0090138 34.6419325,34.5454545 33.8961039,34.5454545 Z M33.8961039,29.7536657 L5.53246753,29.7536657 C4.7865039,29.7536657 4.18181818,29.2173447 4.18181818,28.5557185 C4.18181818,27.8940922 4.7865039,27.3577713 5.53246753,27.3577713 L33.8961039,27.3577713 C34.6419325,27.3577713 35.2467532,27.8940922 35.2467532,28.5557185 C35.2467532,29.2173447 34.6419325,29.7536657 33.8961039,29.7536657 Z M33.8961039,24.9618768 L5.53246753,24.9618768 C4.7865039,24.9618768 4.18181818,24.4255559 4.18181818,23.7639296 C4.18181818,23.1023034 4.7865039,22.5659824 5.53246753,22.5659824 L33.8961039,22.5659824 C34.6419325,22.5659824 35.2467532,23.1023034 35.2467532,23.7639296 C35.2467532,24.4255559 34.6419325,24.9618768 33.8961039,24.9618768 Z M17.6883117,20.170088 L5.53246753,20.170088 C4.7865039,20.170088 4.18181818,19.633767 4.18181818,18.9721408 C4.18181818,18.3105145 4.7865039,17.7741935 5.53246753,17.7741935 L17.6883117,17.7741935 C18.4342753,17.7741935 19.038961,18.3105145 19.038961,18.9721408 C19.038961,19.633767 18.4342753,20.170088 17.6883117,20.170088 Z" id="Shape" fill="#418CFE"></path>
        </g>
        <g id="Group-2" transform="translate(59.000000, 421.000000)" stroke="#DE4040" stroke-linecap="square" stroke-width="5">
            <line x1="0.511111111" y1="0.222222222" x2="45.4888889" y2="19.7777778" id="Line-38"></line>
            <line x1="0.511111111" y1="0.222222222" x2="45.4888889" y2="19.7777778" id="Line-38-Copy" transform="translate(23.000000, 10.000000) scale(-1, 1) translate(-23.000000, -10.000000) "></line>
        </g>
        <path d="M256.899505,475.571902 L253.957848,472.810638 L248.047684,468.291366 L241.807414,464.442455 L235.290103,461.265256 L228.548749,458.760888 L221.636138,456.930505 L214.604916,455.774904 L207.507728,455.295205 L200.396969,455.492317 L193.325207,456.367429 L186.344976,457.92159 L179.508964,460.155884 L172.869972,463.071431 L166.480947,466.669167 L160.394991,470.94987 L154.665274,475.913987 L149.510753,481.384341 L144.971131,487.301008 L141.068939,493.611612 L137.826412,500.264035 L135.265744,507.206263 L133.409166,514.38625 L132.278921,521.751913 L131.899505,529.206518 L133.649773,529.295205 L134.02694,521.88482 L134.017983,521.972799 L135.134842,514.694404 L135.117138,514.780509 L136.95172,507.685564 L136.925584,507.769123 L139.455931,500.90909 L139.421603,500.989501 L142.625754,494.415832 L142.583483,494.492536 L146.43945,488.256685 L146.389496,488.329074 L150.875343,482.482501 L150.817965,482.549909 L155.911702,477.144075 L155.847791,477.205362 L161.510553,472.299239 L161.440922,472.353672 L167.454765,468.123702 L167.38057,468.170525 L173.693437,464.615666 L173.615758,464.654473 L180.175585,461.77369 L180.095368,461.804327 L186.850097,459.596592 L186.768156,459.619045 L193.665716,458.083308 L193.582731,458.097647 L200.571058,457.232888 L200.487554,457.239183 L207.514598,457.044379 L207.431037,457.042701 L214.444664,457.516804 L214.361524,457.507151 L221.309747,458.649112 L221.227378,458.631486 L228.058111,460.440213 L227.977144,460.414521 L234.638372,462.889078 L234.559438,462.855272 L240.999006,465.994588 L240.922947,465.952717 L247.08884,469.755756 L247.016565,469.706024 L252.856698,474.171745 L252.789261,474.11459 L255.698671,476.845574 L256.899505,475.571902 Z M256.425575,476.002752 L252.041488,478.053544 L259.041488,478.477356 L258.193748,471.477356 L256.425575,476.002752 Z" id="Fill-1" fill="#4472C4" transform="translate(195.470497, 492.295205) rotate(-180.000000) translate(-195.470497, -492.295205) "></path>
        <g id="trial-copy" transform="translate(4.000000, 570.000000)" fill="#006AE1" fill-rule="nonzero">
            <path d="M24.7390408,0.0712262435 C23.8197062,-0.175854327 23.1591603,0.239201967 22.6859188,1.01735927 C22.6046689,1.15134921 22.52713,1.31717641 22.4478332,1.49316028 C22.1428011,1.2575123 21.7678493,1.130415 21.3824051,1.13201247 C21.3529129,1.13201247 21.3224442,1.13259843 21.2931474,1.134161 L15.1740157,1.4288998 C14.9503832,1.43964243 14.7687429,1.47870655 14.6234306,1.53906062 C14.2647714,1.59678794 13.9347315,1.76994119 13.6833929,2.03224516 L0.468959043,15.8746167 C-0.17420408,16.5457384 -0.153305673,17.6121889 0.516224599,18.2565516 L7.02930103,24.5302495 C7.34177077,24.8320424 7.7593469,25.0004949 8.19375245,25 C8.63515806,25 9.07597773,24.8259649 9.40566475,24.4831773 L22.6199033,10.6400244 C23.0124808,10.2306324 23.3675584,9.67455464 23.2691211,9.15636906 C23.2718554,9.11457045 23.2687304,9.07296716 23.2691211,9.02804342 L23.1146291,2.88735879 C23.1183122,2.59624806 23.0497989,2.30876172 22.9152153,2.0506053 C23.3099413,1.28006549 23.6851361,0.550347698 24.542752,0.780630696 C25.0023217,0.904854604 25.1966573,0.194082907 24.7390408,0.0712262435 Z M8.52812889,13.4245632 L9.32781975,14.170287 L8.29716074,16.7269943 L10.7727157,15.5176743 L11.5754357,16.2662228 L7.51909394,18.1808206 L6.90418013,17.6074042 L8.52812889,13.4245632 Z M10.8555796,8.86713434 L14.7160332,15.2007265 L13.8468014,16.1328635 L9.99486962,9.79013275 L10.8555796,8.86713434 Z M17.1802579,6.51873344 L17.7982008,7.09497455 L16.1742521,11.2778156 L15.3745612,10.5320918 L16.4052202,7.97538454 L13.9296652,9.1847045 L13.1269453,8.43615601 L17.1802579,6.51873344 Z M21.1763507,2.2398705 C21.4058425,2.2398705 21.6355297,2.32542139 21.8136544,2.49691289 C21.8259591,2.50882745 21.8343575,2.52289053 21.8460763,2.53539105 C21.6548656,2.73520403 21.419905,2.85845134 21.1132648,2.82387959 C20.6425624,2.7709477 20.6474452,3.50808768 21.1132648,3.56062893 C21.5214674,3.60652927 21.8320138,3.4873837 22.0857244,3.27643744 C22.062433,3.47297911 21.9760108,3.65665988 21.8394357,3.79989667 C21.6663502,3.98098016 21.4266486,4.08326003 21.1761554,4.0829171 C20.9384391,4.08306483 20.7099506,3.99090921 20.5388516,3.82587432 C20.1727885,3.47281343 20.1612599,2.89015669 20.5130704,2.52289053 C20.686209,2.34188379 20.9258761,2.23961864 21.1763507,2.2398705 Z" id="Shape"></path>
        </g>
    </g>
</svg>