<?xml version="1.0" encoding="UTF-8"?>
<svg width="800px" height="600px" viewBox="0 0 800 600" version="1.1" xmlns="http://www.w3.org/2000/svg" xmlns:xlink="http://www.w3.org/1999/xlink">
    <title>2041-10-11-13-10_HowToMakeARecordOnGit?</title>
    <defs>
        <path d="M8.68744595,14.5405413 C10.6544909,13.5649687 12,11.5915112 12,9.31636202 C12,6.07252388 9.26504479,3.44227578 5.89152197,3.44227578 C4.52034181,3.44227578 3.25480793,3.87689217 2.23537065,4.61058921 L2.23537065,1.05770107 C2.23537065,0.476155373 1.74046224,0 1.11695169,0 C0.493934821,0 0.0167986821,0.476630104 0.0167986821,1.05770107 L0.0167986821,1.80184219 L0,9.32158406 C-0.0041824725,11.2003327 0.951817666,12.865215 2.41753644,13.8939574 C2.4777647,13.9362085 2.55848043,13.9312238 2.6127846,13.8823265 C2.66758244,13.8334292 2.6779496,13.7558106 2.63746831,13.6950451 C0.724974359,10.8146136 1.16014819,5.53963813 5.89176881,5.53963813 C8.05899866,5.53963813 9.80709909,7.22944376 9.81623206,9.31351363 C9.82240299,10.8599505 9.11620201,12.0365717 8.19549958,12.7781018 C6.36026565,14.2561773 3.64974731,12.6382934 4.49738595,10.4697214 C4.5894562,10.2335427 4.71879884,9.9959397 4.88664808,9.76189723 L5.12361171,9.47705853 C5.19766284,9.39967734 5.25048599,9.29903433 5.2146946,9.19411874 C5.01401603,8.62800181 3.46832203,8.97526767 3.04005964,10.0315445 C3.34292878,9.79631524 3.65986763,9.66433998 3.96940137,9.71489885 C2.38890334,11.275815 3.44141679,13.9563846 5.46005069,14.7513219 C6.40494316,15.1232738 7.55964718,15.0976383 8.68744595,14.5405413" id="path-1"></path>
        <linearGradient x1="28.568518%" y1="104.445731%" x2="78.3472072%" y2="20.6880271%" id="linearGradient-3">
            <stop stop-color="#000F98" offset="0%"></stop>
            <stop stop-color="#00A5FD" offset="100%"></stop>
        </linearGradient>
        <path d="M33.0005847,123 L33.0000943,149 C32.9999479,151.761424 35.2384819,154.000042 37.9999057,154.000094 C37.9999371,154.000094 37.9999686,154.000094 38,154 L67.5665157,154 C70.3279394,154 72.5665157,151.761424 72.5665157,149 L72.5665157,130.791918 C72.5665157,128.030494 70.3279394,125.791918 67.5665157,125.791918 L55.1663955,125.791918 C53.5377906,125.791918 52.0112346,124.998736 51.0750534,123.6661 L48.587994,120.125818 C47.6518127,118.793182 46.1252567,118 44.4966518,118 L38.000679,118 C35.2392921,118.000094 33.0007311,120.238613 33.0005847,123 Z" id="path-4"></path>
        <filter x="-32.9%" y="-30.6%" width="165.7%" height="172.2%" filterUnits="objectBoundingBox" id="filter-5">
            <feOffset dx="0" dy="2" in="SourceAlpha" result="shadowOffsetOuter1"></feOffset>
            <feGaussianBlur stdDeviation="4" in="shadowOffsetOuter1" result="shadowBlurOuter1"></feGaussianBlur>
            <feColorMatrix values="0 0 0 0 0   0 0 0 0 0   0 0 0 0 0  0 0 0 0.5 0" type="matrix" in="shadowBlurOuter1"></feColorMatrix>
        </filter>
        <linearGradient x1="78.5361153%" y1="0%" x2="21.4638847%" y2="100%" id="linearGradient-6">
            <stop stop-color="#00A5FF" offset="0.0491695804%"></stop>
            <stop stop-color="#0755C2" offset="100%"></stop>
        </linearGradient>
    </defs>
    <g id="2041-10-11-13-10_HowToMakeARecordOnGit?" stroke="none" stroke-width="1" fill="none" fill-rule="evenodd">
        <rect fill="#FFFFFF" x="0" y="0" width="800" height="600"></rect>
        <rect id="Rectangle" fill="#C5DDFF" x="584" y="118" width="192" height="264"></rect>
        <rect id="Rectangle-Copy-3" stroke="#006AE1" x="24.5" y="136.5" width="552" height="318" rx="8"></rect>
        <rect id="Rectangle" fill="#C5DDFF" opacity="0.5" x="29" y="164" width="167" height="278"></rect>
        <rect id="Rectangle-Copy" fill="#C5DDFF" opacity="0.5" x="216" y="164" width="167" height="278"></rect>
        <rect id="Rectangle-Copy-2" fill="#C5DDFF" opacity="0.5" x="403" y="164" width="167" height="278"></rect>
        <g id="documents-copy-4" transform="translate(454.000000, 264.000000)" fill-rule="nonzero">
            <path d="M75,24 L75,92 L16,92 L16,84.2285714 C16.0193011,84.2054514 66.2013234,24.0306971 66.2267658,24 L75,24 Z" id="Path" fill="#A4C2F7"></path>
            <path d="M66,83 C64.0132414,83 2.22065517,83 1,83 C1,77.9801214 1,5.35147143 1,2 L48.0689655,2 L52.9253621,12.7357786 L66,17.4285714 C66,20.3158357 66,79.7200786 66,83 Z" id="Path" fill="#FFFFFF"></path>
            <polygon id="Path" fill="#A4C2F7" points="67 18 49 18 49 2"></polygon>
            <path d="M66.7741935,84 L2.22580645,84 C0.996493548,84 0,83.1451091 0,82.0909091 L0,1.90909091 C0,0.8547 0.996493548,0 2.22580645,0 L48.9677419,0 C49.5580258,0 50.1240484,0.201218182 50.5416097,0.559172727 L68.3480613,15.8319 C68.7654,16.1898545 69,16.6755273 69,17.1818182 L69,82.0909091 C69,83.1451091 68.0032839,84 66.7741935,84 Z M4.4516129,80.1818182 L64.5483871,80.1818182 L64.5483871,17.9725636 L48.0455903,3.81818182 L4.4516129,3.81818182 L4.4516129,80.1818182 Z" id="Shape" fill="#418CFE"></path>
            <path d="M66.100346,19.375 L48.6608997,19.375 C47.4571419,19.375 46.4809689,18.5075812 46.4809689,17.4375 L46.4809689,1.9375 C46.4809689,0.86741875 47.4571419,0 48.6608997,0 C49.8646574,0 50.8408304,0.86741875 50.8408304,1.9375 L50.8408304,15.5 L66.100346,15.5 C67.3041038,15.5 68.2802768,16.3674187 68.2802768,17.4375 C68.2802768,18.5075812 67.3041038,19.375 66.100346,19.375 Z M74.8200692,93 L16.1799308,93 C14.975955,93 14,92.1323875 14,91.0625 L14,83.3125 C14,82.2426125 14.975955,81.375 16.1799308,81.375 C17.3839066,81.375 18.3598616,82.2426125 18.3598616,83.3125 L18.3598616,89.125 L72.6401384,89.125 L72.6401384,25.1875 L66.100346,25.1875 C64.8965882,25.1875 63.9204152,24.3200813 63.9204152,23.25 C63.9204152,22.1799188 64.8965882,21.3125 66.100346,21.3125 L74.8200692,21.3125 C76.023827,21.3125 77,22.1799188 77,23.25 L77,91.0625 C77,92.1323875 76.023827,93 74.8200692,93 Z" id="Shape" fill="#418CFE"></path>
            <path d="M56.7391304,72 L9.26086957,72 C8.0121913,72 7,71.1247545 7,70.0454545 C7,68.9661545 8.0121913,68.0909091 9.26086957,68.0909091 L56.7391304,68.0909091 C57.9875826,68.0909091 59,68.9661545 59,70.0454545 C59,71.1247545 57.9875826,72 56.7391304,72 Z M56.7391304,64.1818182 L9.26086957,64.1818182 C8.0121913,64.1818182 7,63.3065727 7,62.2272727 C7,61.1479727 8.0121913,60.2727273 9.26086957,60.2727273 L56.7391304,60.2727273 C57.9875826,60.2727273 59,61.1479727 59,62.2272727 C59,63.3065727 57.9875826,64.1818182 56.7391304,64.1818182 Z M56.7391304,56.3636364 L9.26086957,56.3636364 C8.0121913,56.3636364 7,55.4883909 7,54.4090909 C7,53.3297909 8.0121913,52.4545455 9.26086957,52.4545455 L56.7391304,52.4545455 C57.9875826,52.4545455 59,53.3297909 59,54.4090909 C59,55.4883909 57.9875826,56.3636364 56.7391304,56.3636364 Z M56.7391304,48.5454545 L9.26086957,48.5454545 C8.0121913,48.5454545 7,47.6704045 7,46.5909091 C7,45.5114136 8.0121913,44.6363636 9.26086957,44.6363636 L56.7391304,44.6363636 C57.9875826,44.6363636 59,45.5114136 59,46.5909091 C59,47.6704045 57.9875826,48.5454545 56.7391304,48.5454545 Z M56.7391304,40.7272727 L9.26086957,40.7272727 C8.0121913,40.7272727 7,39.8522227 7,38.7727273 C7,37.6932318 8.0121913,36.8181818 9.26086957,36.8181818 L56.7391304,36.8181818 C57.9875826,36.8181818 59,37.6932318 59,38.7727273 C59,39.8522227 57.9875826,40.7272727 56.7391304,40.7272727 Z M29.6086957,32.9090909 L9.26086957,32.9090909 C8.0121913,32.9090909 7,32.0340409 7,30.9545455 C7,29.87505 8.0121913,29 9.26086957,29 L29.6086957,29 C30.8573739,29 31.8695652,29.87505 31.8695652,30.9545455 C31.8695652,32.0340409 30.8573739,32.9090909 29.6086957,32.9090909 Z" id="Shape" fill="#418CFE"></path>
        </g>
        <g id="documents-copy-6" transform="translate(75.000000, 264.000000)" fill-rule="nonzero">
            <path d="M75,24 L75,92 L16,92 L16,84.2285714 C16.0193011,84.2054514 66.2013234,24.0306971 66.2267658,24 L75,24 Z" id="Path" fill="#A4C2F7"></path>
            <path d="M66,83 C64.0132414,83 2.22065517,83 1,83 C1,77.9801214 1,5.35147143 1,2 L48.0689655,2 L52.9253621,12.7357786 L66,17.4285714 C66,20.3158357 66,79.7200786 66,83 Z" id="Path" fill="#FFFFFF"></path>
            <polygon id="Path" fill="#A4C2F7" points="67 18 49 18 49 2"></polygon>
            <path d="M66.7741935,84 L2.22580645,84 C0.996493548,84 0,83.1451091 0,82.0909091 L0,1.90909091 C0,0.8547 0.996493548,0 2.22580645,0 L48.9677419,0 C49.5580258,0 50.1240484,0.201218182 50.5416097,0.559172727 L68.3480613,15.8319 C68.7654,16.1898545 69,16.6755273 69,17.1818182 L69,82.0909091 C69,83.1451091 68.0032839,84 66.7741935,84 Z M4.4516129,80.1818182 L64.5483871,80.1818182 L64.5483871,17.9725636 L48.0455903,3.81818182 L4.4516129,3.81818182 L4.4516129,80.1818182 Z" id="Shape" fill="#418CFE"></path>
            <path d="M66.100346,19.375 L48.6608997,19.375 C47.4571419,19.375 46.4809689,18.5075812 46.4809689,17.4375 L46.4809689,1.9375 C46.4809689,0.86741875 47.4571419,0 48.6608997,0 C49.8646574,0 50.8408304,0.86741875 50.8408304,1.9375 L50.8408304,15.5 L66.100346,15.5 C67.3041038,15.5 68.2802768,16.3674187 68.2802768,17.4375 C68.2802768,18.5075812 67.3041038,19.375 66.100346,19.375 Z M74.8200692,93 L16.1799308,93 C14.975955,93 14,92.1323875 14,91.0625 L14,83.3125 C14,82.2426125 14.975955,81.375 16.1799308,81.375 C17.3839066,81.375 18.3598616,82.2426125 18.3598616,83.3125 L18.3598616,89.125 L72.6401384,89.125 L72.6401384,25.1875 L66.100346,25.1875 C64.8965882,25.1875 63.9204152,24.3200813 63.9204152,23.25 C63.9204152,22.1799188 64.8965882,21.3125 66.100346,21.3125 L74.8200692,21.3125 C76.023827,21.3125 77,22.1799188 77,23.25 L77,91.0625 C77,92.1323875 76.023827,93 74.8200692,93 Z" id="Shape" fill="#418CFE"></path>
            <path d="M56.7391304,72 L9.26086957,72 C8.0121913,72 7,71.1247545 7,70.0454545 C7,68.9661545 8.0121913,68.0909091 9.26086957,68.0909091 L56.7391304,68.0909091 C57.9875826,68.0909091 59,68.9661545 59,70.0454545 C59,71.1247545 57.9875826,72 56.7391304,72 Z M56.7391304,64.1818182 L9.26086957,64.1818182 C8.0121913,64.1818182 7,63.3065727 7,62.2272727 C7,61.1479727 8.0121913,60.2727273 9.26086957,60.2727273 L56.7391304,60.2727273 C57.9875826,60.2727273 59,61.1479727 59,62.2272727 C59,63.3065727 57.9875826,64.1818182 56.7391304,64.1818182 Z M56.7391304,56.3636364 L9.26086957,56.3636364 C8.0121913,56.3636364 7,55.4883909 7,54.4090909 C7,53.3297909 8.0121913,52.4545455 9.26086957,52.4545455 L56.7391304,52.4545455 C57.9875826,52.4545455 59,53.3297909 59,54.4090909 C59,55.4883909 57.9875826,56.3636364 56.7391304,56.3636364 Z M56.7391304,48.5454545 L9.26086957,48.5454545 C8.0121913,48.5454545 7,47.6704045 7,46.5909091 C7,45.5114136 8.0121913,44.6363636 9.26086957,44.6363636 L56.7391304,44.6363636 C57.9875826,44.6363636 59,45.5114136 59,46.5909091 C59,47.6704045 57.9875826,48.5454545 56.7391304,48.5454545 Z M56.7391304,40.7272727 L9.26086957,40.7272727 C8.0121913,40.7272727 7,39.8522227 7,38.7727273 C7,37.6932318 8.0121913,36.8181818 9.26086957,36.8181818 L56.7391304,36.8181818 C57.9875826,36.8181818 59,37.6932318 59,38.7727273 C59,39.8522227 57.9875826,40.7272727 56.7391304,40.7272727 Z M29.6086957,32.9090909 L9.26086957,32.9090909 C8.0121913,32.9090909 7,32.0340409 7,30.9545455 C7,29.87505 8.0121913,29 9.26086957,29 L29.6086957,29 C30.8573739,29 31.8695652,29.87505 31.8695652,30.9545455 C31.8695652,32.0340409 30.8573739,32.9090909 29.6086957,32.9090909 Z" id="Shape" fill="#418CFE"></path>
        </g>
        <g id="documents-copy-7" transform="translate(261.000000, 264.000000)" fill-rule="nonzero">
            <path d="M75,24 L75,92 L16,92 L16,84.2285714 C16.0193011,84.2054514 66.2013234,24.0306971 66.2267658,24 L75,24 Z" id="Path" fill="#A4C2F7"></path>
            <path d="M66,83 C64.0132414,83 2.22065517,83 1,83 C1,77.9801214 1,5.35147143 1,2 L48.0689655,2 L52.9253621,12.7357786 L66,17.4285714 C66,20.3158357 66,79.7200786 66,83 Z" id="Path" fill="#FFFFFF"></path>
            <polygon id="Path" fill="#A4C2F7" points="67 18 49 18 49 2"></polygon>
            <path d="M66.7741935,84 L2.22580645,84 C0.996493548,84 0,83.1451091 0,82.0909091 L0,1.90909091 C0,0.8547 0.996493548,0 2.22580645,0 L48.9677419,0 C49.5580258,0 50.1240484,0.201218182 50.5416097,0.559172727 L68.3480613,15.8319 C68.7654,16.1898545 69,16.6755273 69,17.1818182 L69,82.0909091 C69,83.1451091 68.0032839,84 66.7741935,84 Z M4.4516129,80.1818182 L64.5483871,80.1818182 L64.5483871,17.9725636 L48.0455903,3.81818182 L4.4516129,3.81818182 L4.4516129,80.1818182 Z" id="Shape" fill="#418CFE"></path>
            <path d="M66.100346,19.375 L48.6608997,19.375 C47.4571419,19.375 46.4809689,18.5075812 46.4809689,17.4375 L46.4809689,1.9375 C46.4809689,0.86741875 47.4571419,0 48.6608997,0 C49.8646574,0 50.8408304,0.86741875 50.8408304,1.9375 L50.8408304,15.5 L66.100346,15.5 C67.3041038,15.5 68.2802768,16.3674187 68.2802768,17.4375 C68.2802768,18.5075812 67.3041038,19.375 66.100346,19.375 Z M74.8200692,93 L16.1799308,93 C14.975955,93 14,92.1323875 14,91.0625 L14,83.3125 C14,82.2426125 14.975955,81.375 16.1799308,81.375 C17.3839066,81.375 18.3598616,82.2426125 18.3598616,83.3125 L18.3598616,89.125 L72.6401384,89.125 L72.6401384,25.1875 L66.100346,25.1875 C64.8965882,25.1875 63.9204152,24.3200813 63.9204152,23.25 C63.9204152,22.1799188 64.8965882,21.3125 66.100346,21.3125 L74.8200692,21.3125 C76.023827,21.3125 77,22.1799188 77,23.25 L77,91.0625 C77,92.1323875 76.023827,93 74.8200692,93 Z" id="Shape" fill="#418CFE"></path>
            <path d="M56.7391304,72 L9.26086957,72 C8.0121913,72 7,71.1247545 7,70.0454545 C7,68.9661545 8.0121913,68.0909091 9.26086957,68.0909091 L56.7391304,68.0909091 C57.9875826,68.0909091 59,68.9661545 59,70.0454545 C59,71.1247545 57.9875826,72 56.7391304,72 Z M56.7391304,64.1818182 L9.26086957,64.1818182 C8.0121913,64.1818182 7,63.3065727 7,62.2272727 C7,61.1479727 8.0121913,60.2727273 9.26086957,60.2727273 L56.7391304,60.2727273 C57.9875826,60.2727273 59,61.1479727 59,62.2272727 C59,63.3065727 57.9875826,64.1818182 56.7391304,64.1818182 Z M56.7391304,56.3636364 L9.26086957,56.3636364 C8.0121913,56.3636364 7,55.4883909 7,54.4090909 C7,53.3297909 8.0121913,52.4545455 9.26086957,52.4545455 L56.7391304,52.4545455 C57.9875826,52.4545455 59,53.3297909 59,54.4090909 C59,55.4883909 57.9875826,56.3636364 56.7391304,56.3636364 Z M56.7391304,48.5454545 L9.26086957,48.5454545 C8.0121913,48.5454545 7,47.6704045 7,46.5909091 C7,45.5114136 8.0121913,44.6363636 9.26086957,44.6363636 L56.7391304,44.6363636 C57.9875826,44.6363636 59,45.5114136 59,46.5909091 C59,47.6704045 57.9875826,48.5454545 56.7391304,48.5454545 Z M56.7391304,40.7272727 L9.26086957,40.7272727 C8.0121913,40.7272727 7,39.8522227 7,38.7727273 C7,37.6932318 8.0121913,36.8181818 9.26086957,36.8181818 L56.7391304,36.8181818 C57.9875826,36.8181818 59,37.6932318 59,38.7727273 C59,39.8522227 57.9875826,40.7272727 56.7391304,40.7272727 Z M29.6086957,32.9090909 L9.26086957,32.9090909 C8.0121913,32.9090909 7,32.0340409 7,30.9545455 C7,29.87505 8.0121913,29 9.26086957,29 L29.6086957,29 C30.8573739,29 31.8695652,29.87505 31.8695652,30.9545455 C31.8695652,32.0340409 30.8573739,32.9090909 29.6086957,32.9090909 Z" id="Shape" fill="#418CFE"></path>
        </g>
        <text id="“git-commit”-command" font-family="Helvetica-Bold, Helvetica" font-size="24" font-weight="bold" fill="#0055C2">
            <tspan x="153.132812" y="527">“git commit” command confirms the edits </tspan>
            <tspan x="159.097656" y="556">and record the set of files as one version</tspan>
        </text>
        <text id="When-you-commit,-you" font-family="Helvetica" font-size="21" font-weight="normal" fill="#0055C2">
            <tspan x="612" y="202">When you </tspan>
            <tspan x="612" y="227">commit, you </tspan>
            <tspan x="612" y="252">need to add a </tspan>
            <tspan x="612" y="277">message to </tspan>
            <tspan x="612" y="302">describe what </tspan>
            <tspan x="612" y="327">is the commit </tspan>
            <tspan x="612" y="352">about</tspan>
        </text>
        <text id="Working-Tree" font-family="Helvetica" font-size="21" font-weight="normal" fill="#0055C2">
            <tspan x="48.7382812" y="190">Working Tree</tspan>
        </text>
        <text id="Preparation-for-comm" font-family="Helvetica" font-size="21" font-weight="normal" fill="#0055C2">
            <tspan x="243" y="404">Preparation </tspan>
            <tspan x="243" y="429">for commit</tspan>
        </text>
        <text id="Store-Committed-file" font-family="Helvetica" font-size="21" font-weight="normal" fill="#0055C2">
            <tspan x="409" y="404">Store </tspan>
            <tspan x="409" y="429">Committed files</tspan>
        </text>
        <text id="Staging-Area-(Index)" font-family="Helvetica" font-size="21" font-weight="normal" fill="#0055C2">
            <tspan x="238.865967" y="190">Staging Area</tspan>
            <tspan x="266.320801" y="215">(Index)</tspan>
        </text>
        <text id="git-add" font-family="Helvetica" font-size="21" font-weight="normal" fill="#0055C2">
            <tspan x="158" y="277">git add</tspan>
        </text>
        <text id="git-commit" font-family="Helvetica" font-size="21" font-weight="normal" fill="#0055C2">
            <tspan x="333" y="277">git commit</tspan>
        </text>
        <text id="Local-Repository" font-family="Helvetica" font-size="21" font-weight="normal" fill="#0055C2">
            <tspan x="482.398438" y="190">Local </tspan>
            <tspan x="457.312256" y="215">Repository</tspan>
        </text>
        <g id="bloovee-winner-logo" transform="translate(725.000000, 580.000000)">
            <path d="M13,13.7751507 C13,14.396312 13.4732558,14.8717809 14.0514961,14.8717809 C14.6474304,14.8717809 15.1204503,14.3968042 15.1204503,13.7751507 L15.1204503,2.09687626 C15.1204503,1.49368045 14.6474304,1 14.0514961,1 C13.4557977,1 13,1.49392656 13,2.09687626 L13,13.7751507 Z M21.7920364,15 C24.6483217,15 26.751078,12.7149437 26.751078,9.97312215 L26.751078,9.93645297 C26.751078,7.17641992 24.6657798,4.92778666 21.8269526,4.92778666 C18.9881254,4.92778666 16.885369,7.212843 16.885369,9.97312215 L16.885369,10.0095452 C16.885369,12.7516128 18.9706673,15 21.7920364,15 Z M21.8269526,13.0621935 C20.179994,13.0621935 19.0055834,11.6547366 19.0055834,9.97312215 L19.0055834,9.93645297 C19.0055834,8.25459244 20.0919958,6.86534709 21.7920364,6.86534709 C23.456689,6.86534709 24.6306277,8.27305008 24.6306277,9.97312215 L24.6306277,10.0095452 C24.6306277,11.6731942 23.5444513,13.0621935 21.8269526,13.0621935 Z M32.8092717,15 C35.665557,15 37.7683133,12.7149437 37.7683133,9.97312215 L37.7683133,9.93645297 C37.7683133,7.17641992 35.6830151,4.92778666 32.8441878,4.92778666 C30.0053606,4.92778666 27.9026043,7.212843 27.9026043,9.97312215 L27.9026043,10.0095452 C27.9026043,12.7516128 29.9879025,15 32.8092717,15 Z M32.8441878,13.0621935 C31.1969933,13.0621935 30.0228187,11.6547366 30.0228187,9.97312215 L30.0228187,9.93645297 C30.0228187,8.25459244 31.109231,6.86534709 32.8092717,6.86534709 C34.4739243,6.86534709 35.647863,8.27305008 35.647863,9.97312215 L35.647863,10.0095452 C35.647863,11.6731942 34.5614506,13.0621935 32.8441878,13.0621935 Z M44.1416963,13.9944275 L47.2261164,6.6096472 C47.2784906,6.49988574 47.3487948,6.28060893 47.3487948,6.07954366 C47.3487948,5.47610175 46.8929971,5.01933658 46.3147568,5.01933658 C45.7539746,5.01933658 45.4737015,5.40300947 45.3158709,5.78692847 L42.8976893,12.2215093 L40.5144239,5.82335156 C40.3393711,5.36634029 40.041404,5.01933658 39.4629278,5.01933658 C38.8846875,5.01933658 38.4116676,5.53098247 38.4116676,6.07954366 C38.4116676,6.28060893 38.4817358,6.46346265 38.534346,6.62785874 L41.6182943,13.9944275 C41.8638872,14.5796579 42.2491448,14.9633308 42.8273851,14.9633308 L42.9326055,14.9633308 C43.5108458,14.9633308 43.8965752,14.5612003 44.1416963,13.9944275 Z M50.0949054,9.27837643 C50.2876522,7.77961573 51.1987758,6.73762019 52.4956289,6.73762019 C53.8974665,6.73762019 54.7036056,7.8524619 54.8437422,9.27837643 L50.0949054,9.27837643 Z M56.070527,13.72027 C56.2281217,13.5558739 56.3508002,13.3181395 56.3508002,13.0439819 C56.3508002,12.5320899 55.9830006,12.1481709 55.5095089,12.1481709 C55.2641519,12.1481709 55.1242513,12.2215093 54.9664207,12.3492362 C54.3704864,12.8611282 53.6695676,13.1901665 52.7759021,13.1901665 C51.4089807,13.1901665 50.3402624,12.3128131 50.1123635,10.7409601 L55.9126964,10.7409601 C56.4560206,10.7409601 56.9115824,10.3021604 56.9115824,9.68050697 C56.9115824,7.45057746 55.4568987,4.92778666 52.513087,4.92778666 C49.8672425,4.92778666 47.9919132,7.19438536 47.9919132,9.95466451 L47.9919132,9.9913337 C47.9919132,12.9708897 50.0597533,15 52.7409859,15 C54.1779755,15 55.2292357,14.5063195 56.070527,13.72027 Z M60.1833231,9.27837643 C60.3763058,7.77961573 61.2871935,6.73762019 62.5842825,6.73762019 C63.9858841,6.73762019 64.7920233,7.8524619 64.9321598,9.27837643 L60.1833231,9.27837643 Z M66.1589447,13.72027 C66.3167752,13.5558739 66.4394537,13.3181395 66.4394537,13.0439819 C66.4394537,12.5320899 66.0714183,12.1481709 65.5981624,12.1481709 C65.3528055,12.1481709 65.2126689,12.2215093 65.0548383,12.3492362 C64.4591399,12.8611282 63.7582212,13.1901665 62.8643197,13.1901665 C61.4976342,13.1901665 60.4289159,12.3128131 60.2007812,10.7409601 L66.0011141,10.7409601 C66.5444382,10.7409601 67,10.3021604 67,9.68050697 C67,7.45057746 65.5455522,4.92778666 62.6015046,4.92778666 C59.9556601,4.92778666 58.0805667,7.19438536 58.0805667,9.95466451 L58.0805667,9.9913337 C58.0805667,12.9708897 60.1484069,15 62.8294035,15 C64.2663932,15 65.3178893,14.5063195 66.1589447,13.72027 L66.1589447,13.72027 Z" id="Fill-1" fill="#030060"></path>
            <g id="Group-4">
                <mask id="mask-2" fill="white">
                    <use xlink:href="#path-1"></use>
                </mask>
                <g id="Clip-3"></g>
                <path d="M8.68744595,14.5405413 C10.6544909,13.5649687 12,11.5915112 12,9.31636202 C12,6.07252388 9.26504479,3.44227578 5.89152197,3.44227578 C4.52034181,3.44227578 3.25480793,3.87689217 2.23537065,4.61058921 L2.23537065,1.05770107 C2.23537065,0.476155373 1.74046224,0 1.11695169,0 C0.493934821,0 0.0167986821,0.476630104 0.0167986821,1.05770107 L0.0167986821,1.80184219 L0,9.32158406 C-0.0041824725,11.2003327 0.951817666,12.865215 2.41753644,13.8939574 C2.4777647,13.9362085 2.55848043,13.9312238 2.6127846,13.8823265 C2.66758244,13.8334292 2.6779496,13.7558106 2.63746831,13.6950451 C0.724974359,10.8146136 1.16014819,5.53963813 5.89176881,5.53963813 C8.05899866,5.53963813 9.80709909,7.22944376 9.81623206,9.31351363 C9.82240299,10.8599505 9.11620201,12.0365717 8.19549958,12.7781018 C6.36026565,14.2561773 3.64974731,12.6382934 4.49738595,10.4697214 C4.5894562,10.2335427 4.71879884,9.9959397 4.88664808,9.76189723 L5.12361171,9.47705853 C5.19766284,9.39967734 5.25048599,9.29903433 5.2146946,9.19411874 C5.01401603,8.62800181 3.46832203,8.97526767 3.04005964,10.0315445 C3.34292878,9.79631524 3.65986763,9.66433998 3.96940137,9.71489885 C2.38890334,11.275815 3.44141679,13.9563846 5.46005069,14.7513219 C6.40494316,15.1232738 7.55964718,15.0976383 8.68744595,14.5405413" id="Fill-2" fill="url(#linearGradient-3)" mask="url(#mask-2)"></path>
            </g>
        </g>
        <g id="Group-2" transform="translate(353.000000, 284.000000)" fill="#DE4040">
            <rect id="Rectangle" transform="translate(36.000000, 23.500000) rotate(-540.000000) translate(-36.000000, -23.500000) " x="0" y="9" width="72" height="29"></rect>
            <path d="M79.7348034,11.7960371 L101.450818,35.3217199 C101.825422,35.7275406 101.800116,36.3601997 101.394295,36.7348034 C101.209573,36.9053163 100.967405,37 100.716015,37 L57.2839851,37 C56.7317003,37 56.2839851,36.5522847 56.2839851,36 C56.2839851,35.74861 56.3786688,35.5064422 56.5491816,35.3217199 L78.2651966,11.7960371 C78.6398003,11.3902163 79.2724594,11.36491 79.6782801,11.7395137 C79.697867,11.757594 79.7167232,11.7764501 79.7348034,11.7960371 Z" id="Triangle-Copy" transform="translate(79.000000, 24.000000) scale(-1, 1) rotate(-450.000000) translate(-79.000000, -24.000000) "></path>
        </g>
        <g id="Group-5" transform="translate(161.000000, 284.000000)" fill="#7BB2FF">
            <rect id="Rectangle" transform="translate(38.500000, 13.500000) rotate(-540.000000) translate(-38.500000, -13.500000) " x="0" y="6" width="77" height="15"></rect>
            <path d="M85.8436615,4.32575377 L98.0219883,23.4631245 C98.3184965,23.9290659 98.1811437,24.5471533 97.7152023,24.8436615 C97.5547514,24.9457666 97.3685109,25 97.1783268,25 L72.8216732,25 C72.2693884,25 71.8216732,24.5522847 71.8216732,24 C71.8216732,23.809816 71.8759065,23.6235754 71.9780117,23.4631245 L84.1563385,4.32575377 C84.4528467,3.85981239 85.0709341,3.72245962 85.5368755,4.01896777 C85.6603563,4.09754646 85.7650828,4.20227296 85.8436615,4.32575377 Z" id="Triangle-Copy" transform="translate(85.000000, 14.000000) scale(-1, 1) rotate(-450.000000) translate(-85.000000, -14.000000) "></path>
        </g>
        <text id="Edit-files" font-family="Helvetica" font-size="21" font-weight="normal" fill="#0055C2">
            <tspan x="66" y="423">Edit files</tspan>
        </text>
        <path id="Line-2" d="M112.5,366 L117,375 L113,375 L113,397 L112,397 L112,375 L108,375 L112.5,366 Z" fill="#0055C2" fill-rule="nonzero"></path>
        <text id="Local-Directory" font-family="Helvetica" font-size="21" font-weight="normal" fill="#0055C2">
            <tspan x="77" y="154">Local Directory</tspan>
        </text>
        <g id="Path-Copy-5">
            <use fill="black" fill-opacity="1" filter="url(#filter-5)" xlink:href="#path-4"></use>
            <use fill="#418CFE" fill-rule="evenodd" xlink:href="#path-4"></use>
        </g>
        <g id="git" transform="translate(704.000000, 9.000000)">
            <path d="M46.8658496,11.2380575 C45.1623498,11.2380575 43.8939053,12.0891281 43.8939053,14.1376499 C43.8939053,15.6808485 44.7297841,16.7522856 46.7743573,16.7522856 C48.5071097,16.7522856 49.6846843,15.7131436 49.6846843,14.073693 C49.6846843,12.2157755 48.6309666,11.2380575 46.8658496,11.2380575 L46.8658496,11.2380575 Z M43.4607172,25.7011913 C43.0574041,26.2046147 42.6553359,26.7397 42.6553359,27.3710373 C42.6553359,28.6305458 44.2337339,29.0092215 46.4027864,29.0092215 C48.1984009,29.0092215 50.6450424,28.8813076 50.6450424,27.1823327 C50.6450424,26.1723196 49.4674678,26.1102624 47.9805621,26.0152768 L43.4607172,25.7011913 Z M52.6255087,11.3330431 C53.1825537,12.0580995 53.7719634,13.0662128 53.7719634,14.5156924 C53.7719634,18.0124273 51.0776081,20.0603158 47.1764255,20.0603158 C46.1843252,20.0603158 45.2862067,19.9349349 44.7291617,19.7772589 L43.7071863,21.4471049 L46.7413702,21.6351763 C52.0989611,21.9828234 55.257002,22.1404995 55.257002,26.3293624 C55.257002,29.9533779 52.1300809,32 46.7413702,32 C41.1360655,32 39,30.5505204 39,28.0625322 C39,26.6440812 39.6199071,25.8898959 40.7034998,24.848221 C39.680902,24.4087545 39.3410734,23.6216409 39.3410734,22.7705703 C39.3410734,22.0771758 39.6815244,21.4471049 40.2391918,20.8480627 C40.7968593,20.2502869 41.416144,19.6506115 42.1586633,18.9578502 C40.6412601,18.2017651 39.4960502,16.563581 39.4960502,14.231369 C39.4960502,10.6086199 41.8493321,8.12063165 46.5870158,8.12063165 C47.9189448,8.12063165 48.7249485,8.24537935 49.436348,8.43598369 L55.4754632,8.43598369 L55.4754632,11.1133099 L52.6255087,11.3330431 L52.6255087,11.3330431 Z M60.9233016,5.60858036 C59.1575621,5.60858036 58.1355867,4.56817192 58.1355867,2.77167847 C58.1355867,0.977717972 59.1575621,0 60.9233016,0 C62.7195385,0 63.7408917,0.977084735 63.7408917,2.77167847 C63.7415139,4.56817192 62.7195385,5.60858036 60.9233016,5.60858036 Z M56.9275147,24.5423675 L56.9275147,22.0543792 L58.50778,21.8340127 C58.9409681,21.770689 59.0025853,21.6763367 59.0025853,21.2026754 L59.0025853,11.9403174 C59.0025853,11.59457 58.9104706,11.372937 58.5998947,11.279218 L56.9275147,10.6801757 L57.2679657,8.12949697 L63.6792742,8.12949697 L63.6792742,21.2033087 C63.6792742,21.7086318 63.7091492,21.770689 64.174702,21.834646 L65.7543448,22.0550125 L65.7543448,24.5430008 L56.9275147,24.5430008 L56.9275147,24.5423675 Z M78,23.32022 C76.6674487,23.9806863 74.7174798,24.5803617 72.9511179,24.5803617 C69.2665294,24.5803617 67.8736056,23.0694582 67.8736056,19.5074999 L67.8736056,11.2532552 C67.8736056,11.0651838 67.8736056,10.9385364 67.6252693,10.9385364 L65.458084,10.9385364 L65.458084,8.13456287 C68.1841815,7.81857759 69.2671518,6.43242174 69.6076028,2.99837733 L72.5502944,2.99837733 L72.5502944,7.47346341 C72.5502944,7.69319666 72.5502944,7.78881545 72.7980083,7.78881545 L77.1641212,7.78881545 L77.1641212,10.9391697 L72.5502944,10.9391697 L72.5502944,18.4683579 C72.5502944,20.3269086 72.9841049,21.0513318 74.6558625,21.0513318 C75.5241059,21.0513318 76.4209796,20.8315985 77.1641212,20.5479083 L78,23.32022 L78,23.32022 Z" id="Shape" fill="#31251C" fill-rule="nonzero"></path>
            <path d="M32.3772539,15.0299695 L17.9690664,0.622277028 C17.140005,-0.207425676 15.7941261,-0.207425676 14.9644314,0.622277028 L11.9724635,3.61427365 L15.7668919,7.40937182 C16.6497884,7.11169223 17.6606226,7.31120089 18.3636464,8.01486479 C19.0704703,8.72232885 19.2687104,9.74203981 18.9634334,10.6274783 L22.6210571,14.2851371 C23.5052204,13.9804906 24.5268216,14.1774658 25.2336455,14.8849299 C26.221679,15.8723394 26.221679,17.4728423 25.2336455,18.4608852 C24.2449787,19.4489281 22.6451246,19.4489281 21.6570912,18.4608852 C20.914166,17.7173195 20.7304932,16.6260388 21.1067059,15.7108324 L17.6954571,12.2995509 L17.6948238,21.2768075 C17.9361319,21.3958793 18.1628729,21.5542195 18.3636464,21.7543616 C19.3516798,22.7417711 19.3516798,24.3416406 18.3636464,25.3309502 C17.375613,26.3183598 15.7744921,26.3183598 14.7877254,25.3309502 C13.799692,24.3416406 13.799692,22.7417711 14.7877254,21.7543616 C15.0322003,21.5105176 15.3140432,21.3262096 15.6155201,21.2027043 L15.6155201,12.1424774 C15.3140432,12.0196054 15.0322003,11.8359308 14.7877254,11.5908201 C14.0391001,10.842821 13.8592273,9.74520661 14.2430403,8.82620003 L10.5024471,5.08430417 L0.622746073,14.9634666 C-0.207582024,15.7938027 -0.207582024,17.1396945 0.622746073,17.9700305 L15.0309336,32.377723 C15.8606284,33.2074257 17.2058739,33.2074257 18.0368353,32.377723 L32.3772539,18.0359 C33.207582,17.2061973 33.207582,15.8596722 32.3772539,15.0299695 L32.3772539,15.0299695 Z" id="Path" fill="#F34F29" fill-rule="nonzero"></path>
            <polygon id="Path" points="1.12409637e-15 0 79 0 79 33 0 33"></polygon>
        </g>
        <g id="Group-Copy" transform="translate(408.862069, 170.000000)" fill-rule="nonzero">
            <path d="M30.9469372,4.89777348 C29.7884422,1.6749274 22.6708391,0 15.6325849,0 C8.59433078,0 1.55607664,1.65905131 0.334102419,4.85014521 C0.209736357,5.03855897 0.143509209,5.25940368 0.143664877,5.48518877 L0.143664877,34.8003872 C0.136019754,34.8636613 0.136019754,34.9276262 0.143664877,34.9909003 C0.139823348,35.0464002 0.139823348,35.1020994 0.143664877,35.1575992 C0.143664877,38.9916747 7.93573428,41 15.6325849,41 C23.3294356,41 31.1056352,38.9916747 31.1056352,35.1575992 C31.1094735,35.1047486 31.1094735,35.051689 31.1056352,34.9988383 C31.1139332,34.9329484 31.1139332,34.8662772 31.1056352,34.8003872 L31.1056352,5.48518877 C31.1096864,5.2782659 31.0546317,5.07448284 30.9469372,4.89777348 Z" id="Path" fill="url(#linearGradient-6)"></path>
            <path d="M15.4985499,0.189655172 C25.5367396,0.189655172 30.9924816,3.15533023 30.9924816,4.67935769 C31.0025061,4.72678391 31.0025061,4.77609623 30.9924816,4.82352245 C30.6638224,6.38873984 25.1986901,9.18965517 15.4985499,9.18965517 C5.7984096,9.18965517 0.333277329,6.35784739 0.0046181718,4.82352245 C-0.0015393906,4.78606691 -0.0015393906,4.74770568 0.0046181718,4.71025014 C0.0046181718,3.15533023 5.46036018,0.189655172 15.4985499,0.189655172 Z" id="Path" fill="#7BB2FF"></path>
        </g>
        <g id="Group-2" transform="translate(595.000000, 134.000000)" fill-rule="nonzero">
            <g id="edit-(3)-copy" transform="translate(15.000000, 0.000000)">
                <path d="M16.4240915,5.9513964 L1.59980848,20.7762522 C1.46865329,20.9074125 1.38059195,21.0741734 1.34311904,21.2540503 L0.0184516885,27.8795167 C-0.0433786124,28.1868064 0.0521773072,28.5053385 0.27514112,28.7264372 C0.45313744,28.9044404 0.692964062,29 0.93841162,29 L1.12202888,28.9812628 L7.74536566,27.6565443 C7.92898291,27.6209436 8.09386371,27.5310052 8.2250189,27.3998449 L23.049302,12.5749891 L16.4240915,5.9513964 Z M27.6284915,1.3701562 C25.8016872,-0.456718732 22.8300854,-0.456718732 21.0051547,1.3701562 L18.4120294,3.96338174 L25.0353662,10.5869744 L27.6284915,7.99374889 C28.5128522,7.11122777 29,5.93453294 29,4.6828894 C29,3.43124586 28.5128522,2.25455103 27.6284915,1.3701562 Z" id="Shape" fill="#42A5F5"></path>
                <path d="M19.6479682,9.37434277 L0,28.7279649 C0.179701259,28.904974 0.42182506,29 0.669623638,29 L0.854999674,28.9813675 L7.5417781,27.6640467 C7.72715413,27.6286449 7.89361425,27.5392087 8.0260257,27.4087809 L22.9923032,12.6667131 L19.6479682,9.37434277 Z M27.6153545,1.52631579 L21.6549475,7.39742999 L24.9992825,10.6916635 L27.6172461,8.11291963 C28.508186,7.23532687 29,6.06520319 29,4.82054934 C29,3.57589549 28.508186,2.4057718 27.6153545,1.52631579 L27.6153545,1.52631579 Z" id="Shape" fill="#1576ED"></path>
            </g>
            <path d="M30.1012458,35 L3.89635415,35 C1.75717932,35 0,33.2426966 0,31.1033708 L0,4.89662921 C0,2.75730337 1.75717932,1 3.89635415,1 L18.3357842,1 L18.3357842,3.59775281 L3.89635415,3.59775281 C3.20876224,3.59775281 2.59756943,4.20898876 2.59756943,4.89662921 L2.59756943,31.1033708 C2.59756943,31.7910112 3.20876224,32.4022472 3.89635415,32.4022472 L30.1012458,32.4022472 C30.7888377,32.4022472 31.4000305,31.7910112 31.4000305,31.1033708 L31.4000305,16.6629213 L33.9975999,16.6629213 L33.9975999,31.1033708 C34.073999,33.2426966 32.3168197,35 30.1012458,35" id="Path-Copy-2" fill="#1576ED"></path>
        </g>
        <line x1="391.5" y1="153.5" x2="594.5" y2="153.5" id="Line-9" stroke="#0055C2" stroke-linecap="square"></line>
        <line x1="391.5" y1="256.5" x2="391.5" y2="153.5" id="Line-9-Copy" stroke="#0055C2" stroke-linecap="square"></line>
        <text id="How-To-Make-A-Record" fill-rule="nonzero" font-family="Helvetica" font-size="18" font-weight="normal" fill="#0055C2">
            <tspan x="10" y="23">How To Make A Record On Git?</tspan>
        </text>
        <g id="Group" transform="translate(451.000000, 360.000000)">
            <rect id="Rectangle-Copy-2" fill="#DE4040" x="4.54747351e-13" y="2" width="88.7142857" height="18" rx="2"></rect>
            <text id="Committed" font-family="Helvetica" font-size="16" font-weight="normal" fill="#FFFFFF">
                <tspan x="4.14285714" y="15">Committed</tspan>
            </text>
        </g>
    </g>
</svg>