<?xml version="1.0" encoding="UTF-8"?>
<svg width="800px" height="600px" viewBox="0 0 800 600" version="1.1" xmlns="http://www.w3.org/2000/svg" xmlns:xlink="http://www.w3.org/1999/xlink">
    <title>2041-10-16-14-10_CreateBranchAndCheckBranchStatus—GitBranch</title>
    <defs>
        <rect id="path-1" x="20" y="62" width="766" height="140"></rect>
        <filter x="-0.5%" y="-2.9%" width="102.1%" height="111.4%" filterUnits="objectBoundingBox" id="filter-2">
            <feOffset dx="4" dy="4" in="SourceAlpha" result="shadowOffsetOuter1"></feOffset>
            <feGaussianBlur stdDeviation="2" in="shadowOffsetOuter1" result="shadowBlurOuter1"></feGaussianBlur>
            <feComposite in="shadowBlurOuter1" in2="SourceAlpha" operator="out" result="shadowBlurOuter1"></feComposite>
            <feColorMatrix values="0 0 0 0 0   0 0 0 0 0   0 0 0 0 0  0 0 0 0.5 0" type="matrix" in="shadowBlurOuter1"></feColorMatrix>
        </filter>
        <rect id="path-3" x="489" y="371" width="250" height="64" rx="32"></rect>
        <filter x="-1.0%" y="-3.9%" width="102.8%" height="110.9%" filterUnits="objectBoundingBox" id="filter-4">
            <feOffset dx="1" dy="1" in="SourceAlpha" result="shadowOffsetOuter1"></feOffset>
            <feGaussianBlur stdDeviation="1" in="shadowOffsetOuter1" result="shadowBlurOuter1"></feGaussianBlur>
            <feColorMatrix values="0 0 0 0 0   0 0 0 0 0   0 0 0 0 0  0 0 0 0.5 0" type="matrix" in="shadowBlurOuter1"></feColorMatrix>
        </filter>
        <rect id="path-5" x="538" y="251" width="152" height="64" rx="32"></rect>
        <filter x="-1.6%" y="-3.9%" width="104.6%" height="110.9%" filterUnits="objectBoundingBox" id="filter-6">
            <feOffset dx="1" dy="1" in="SourceAlpha" result="shadowOffsetOuter1"></feOffset>
            <feGaussianBlur stdDeviation="1" in="shadowOffsetOuter1" result="shadowBlurOuter1"></feGaussianBlur>
            <feColorMatrix values="0 0 0 0 0   0 0 0 0 0   0 0 0 0 0  0 0 0 0.5 0" type="matrix" in="shadowBlurOuter1"></feColorMatrix>
        </filter>
        <path d="M8.68744595,14.5405413 C10.6544909,13.5649687 12,11.5915112 12,9.31636202 C12,6.07252388 9.26504479,3.44227578 5.89152197,3.44227578 C4.52034181,3.44227578 3.25480793,3.87689217 2.23537065,4.61058921 L2.23537065,1.05770107 C2.23537065,0.476155373 1.74046224,0 1.11695169,0 C0.493934821,0 0.0167986821,0.476630104 0.0167986821,1.05770107 L0.0167986821,1.80184219 L0,9.32158406 C-0.0041824725,11.2003327 0.951817666,12.865215 2.41753644,13.8939574 C2.4777647,13.9362085 2.55848043,13.9312238 2.6127846,13.8823265 C2.66758244,13.8334292 2.6779496,13.7558106 2.63746831,13.6950451 C0.724974359,10.8146136 1.16014819,5.53963813 5.89176881,5.53963813 C8.05899866,5.53963813 9.80709909,7.22944376 9.81623206,9.31351363 C9.82240299,10.8599505 9.11620201,12.0365717 8.19549958,12.7781018 C6.36026565,14.2561773 3.64974731,12.6382934 4.49738595,10.4697214 C4.5894562,10.2335427 4.71879884,9.9959397 4.88664808,9.76189723 L5.12361171,9.47705853 C5.19766284,9.39967734 5.25048599,9.29903433 5.2146946,9.19411874 C5.01401603,8.62800181 3.46832203,8.97526767 3.04005964,10.0315445 C3.34292878,9.79631524 3.65986763,9.66433998 3.96940137,9.71489885 C2.38890334,11.275815 3.44141679,13.9563846 5.46005069,14.7513219 C6.40494316,15.1232738 7.55964718,15.0976383 8.68744595,14.5405413" id="path-7"></path>
        <linearGradient x1="28.568518%" y1="104.445731%" x2="78.3472072%" y2="20.6880271%" id="linearGradient-9">
            <stop stop-color="#000F98" offset="0%"></stop>
            <stop stop-color="#00A5FD" offset="100%"></stop>
        </linearGradient>
        <linearGradient x1="1.18752487e-05%" y1="49.9999884%" x2="100.000032%" y2="49.9999884%" id="linearGradient-10">
            <stop stop-color="#FCD635" offset="0%"></stop>
            <stop stop-color="#F7A928" offset="100%"></stop>
        </linearGradient>
    </defs>
    <g id="2041-10-16-14-10_CreateBranchAndCheckBranchStatus—GitBranch" stroke="none" stroke-width="1" fill="none" fill-rule="evenodd">
        <rect fill="#FFFFFF" x="0" y="0" width="800" height="600"></rect>
        <g id="Rectangle-Copy-4">
            <use fill="black" fill-opacity="1" filter="url(#filter-2)" xlink:href="#path-1"></use>
            <rect stroke="#006AE1" stroke-width="4" stroke-linejoin="square" fill="#FFFFFF" fill-rule="evenodd" x="22" y="64" width="762" height="136"></rect>
        </g>
        <text id="Create-Branch-And-Ch" fill-rule="nonzero" font-family="Helvetica" font-size="18" font-weight="normal" fill="#0055C2">
            <tspan x="10" y="23">Create Branch And Check Branch Status — Git Branch</tspan>
        </text>
        <g id="git" transform="translate(704.000000, 9.000000)">
            <path d="M46.8658496,11.2380575 C45.1623498,11.2380575 43.8939053,12.0891281 43.8939053,14.1376499 C43.8939053,15.6808485 44.7297841,16.7522856 46.7743573,16.7522856 C48.5071097,16.7522856 49.6846843,15.7131436 49.6846843,14.073693 C49.6846843,12.2157755 48.6309666,11.2380575 46.8658496,11.2380575 L46.8658496,11.2380575 Z M43.4607172,25.7011913 C43.0574041,26.2046147 42.6553359,26.7397 42.6553359,27.3710373 C42.6553359,28.6305458 44.2337339,29.0092215 46.4027864,29.0092215 C48.1984009,29.0092215 50.6450424,28.8813076 50.6450424,27.1823327 C50.6450424,26.1723196 49.4674678,26.1102624 47.9805621,26.0152768 L43.4607172,25.7011913 Z M52.6255087,11.3330431 C53.1825537,12.0580995 53.7719634,13.0662128 53.7719634,14.5156924 C53.7719634,18.0124273 51.0776081,20.0603158 47.1764255,20.0603158 C46.1843252,20.0603158 45.2862067,19.9349349 44.7291617,19.7772589 L43.7071863,21.4471049 L46.7413702,21.6351763 C52.0989611,21.9828234 55.257002,22.1404995 55.257002,26.3293624 C55.257002,29.9533779 52.1300809,32 46.7413702,32 C41.1360655,32 39,30.5505204 39,28.0625322 C39,26.6440812 39.6199071,25.8898959 40.7034998,24.848221 C39.680902,24.4087545 39.3410734,23.6216409 39.3410734,22.7705703 C39.3410734,22.0771758 39.6815244,21.4471049 40.2391918,20.8480627 C40.7968593,20.2502869 41.416144,19.6506115 42.1586633,18.9578502 C40.6412601,18.2017651 39.4960502,16.563581 39.4960502,14.231369 C39.4960502,10.6086199 41.8493321,8.12063165 46.5870158,8.12063165 C47.9189448,8.12063165 48.7249485,8.24537935 49.436348,8.43598369 L55.4754632,8.43598369 L55.4754632,11.1133099 L52.6255087,11.3330431 L52.6255087,11.3330431 Z M60.9233016,5.60858036 C59.1575621,5.60858036 58.1355867,4.56817192 58.1355867,2.77167847 C58.1355867,0.977717972 59.1575621,0 60.9233016,0 C62.7195385,0 63.7408917,0.977084735 63.7408917,2.77167847 C63.7415139,4.56817192 62.7195385,5.60858036 60.9233016,5.60858036 Z M56.9275147,24.5423675 L56.9275147,22.0543792 L58.50778,21.8340127 C58.9409681,21.770689 59.0025853,21.6763367 59.0025853,21.2026754 L59.0025853,11.9403174 C59.0025853,11.59457 58.9104706,11.372937 58.5998947,11.279218 L56.9275147,10.6801757 L57.2679657,8.12949697 L63.6792742,8.12949697 L63.6792742,21.2033087 C63.6792742,21.7086318 63.7091492,21.770689 64.174702,21.834646 L65.7543448,22.0550125 L65.7543448,24.5430008 L56.9275147,24.5430008 L56.9275147,24.5423675 Z M78,23.32022 C76.6674487,23.9806863 74.7174798,24.5803617 72.9511179,24.5803617 C69.2665294,24.5803617 67.8736056,23.0694582 67.8736056,19.5074999 L67.8736056,11.2532552 C67.8736056,11.0651838 67.8736056,10.9385364 67.6252693,10.9385364 L65.458084,10.9385364 L65.458084,8.13456287 C68.1841815,7.81857759 69.2671518,6.43242174 69.6076028,2.99837733 L72.5502944,2.99837733 L72.5502944,7.47346341 C72.5502944,7.69319666 72.5502944,7.78881545 72.7980083,7.78881545 L77.1641212,7.78881545 L77.1641212,10.9391697 L72.5502944,10.9391697 L72.5502944,18.4683579 C72.5502944,20.3269086 72.9841049,21.0513318 74.6558625,21.0513318 C75.5241059,21.0513318 76.4209796,20.8315985 77.1641212,20.5479083 L78,23.32022 L78,23.32022 Z" id="Shape" fill="#31251C" fill-rule="nonzero"></path>
            <path d="M32.3772539,15.0299695 L17.9690664,0.622277028 C17.140005,-0.207425676 15.7941261,-0.207425676 14.9644314,0.622277028 L11.9724635,3.61427365 L15.7668919,7.40937182 C16.6497884,7.11169223 17.6606226,7.31120089 18.3636464,8.01486479 C19.0704703,8.72232885 19.2687104,9.74203981 18.9634334,10.6274783 L22.6210571,14.2851371 C23.5052204,13.9804906 24.5268216,14.1774658 25.2336455,14.8849299 C26.221679,15.8723394 26.221679,17.4728423 25.2336455,18.4608852 C24.2449787,19.4489281 22.6451246,19.4489281 21.6570912,18.4608852 C20.914166,17.7173195 20.7304932,16.6260388 21.1067059,15.7108324 L17.6954571,12.2995509 L17.6948238,21.2768075 C17.9361319,21.3958793 18.1628729,21.5542195 18.3636464,21.7543616 C19.3516798,22.7417711 19.3516798,24.3416406 18.3636464,25.3309502 C17.375613,26.3183598 15.7744921,26.3183598 14.7877254,25.3309502 C13.799692,24.3416406 13.799692,22.7417711 14.7877254,21.7543616 C15.0322003,21.5105176 15.3140432,21.3262096 15.6155201,21.2027043 L15.6155201,12.1424774 C15.3140432,12.0196054 15.0322003,11.8359308 14.7877254,11.5908201 C14.0391001,10.842821 13.8592273,9.74520661 14.2430403,8.82620003 L10.5024471,5.08430417 L0.622746073,14.9634666 C-0.207582024,15.7938027 -0.207582024,17.1396945 0.622746073,17.9700305 L15.0309336,32.377723 C15.8606284,33.2074257 17.2058739,33.2074257 18.0368353,32.377723 L32.3772539,18.0359 C33.207582,17.2061973 33.207582,15.8596722 32.3772539,15.0299695 L32.3772539,15.0299695 Z" id="Path" fill="#F34F29" fill-rule="nonzero"></path>
            <polygon id="Path" points="1.12409637e-15 0 79 0 79 33 0 33"></polygon>
        </g>
        <text id="$-git-branch-[new-br" font-family="Helvetica-Bold, Helvetica" font-size="36" font-weight="bold" fill="#0055C2">
            <tspan x="64.9541016" y="149">$ git branch [new branch name]</tspan>
        </text>
        <text id="$-git-branch" font-family="Helvetica-Bold, Helvetica" font-size="24" font-weight="bold" fill="#0055C2">
            <tspan x="57" y="298">$ git branch</tspan>
        </text>
        <text id="Delete-a-branch" font-family="Helvetica" font-size="21" font-weight="normal" fill="#0055C2">
            <tspan x="46" y="490">Delete a branch</tspan>
        </text>
        <text id="Check-branch-status" font-family="Helvetica" font-size="21" font-weight="normal" fill="#0055C2">
            <tspan x="47" y="371">Check branch status including Remote Repository</tspan>
        </text>
        <text id="Check-branch-status" font-family="Helvetica" font-size="21" font-weight="normal" fill="#0055C2">
            <tspan x="46" y="254">Check branch status</tspan>
        </text>
        <text id="$-git-branch--d-[exi" font-family="Helvetica-Bold, Helvetica" font-size="24" font-weight="bold" fill="#0055C2">
            <tspan x="59" y="534">$ git branch -d [existing branch name]</tspan>
        </text>
        <text id="$-git-branch--a" font-family="Helvetica-Bold, Helvetica" font-size="24" font-weight="bold" fill="#0055C2">
            <tspan x="59" y="415">$ git branch -a</tspan>
        </text>
        <path d="M747,223 C749.485281,223 751.735281,224.007359 753.363961,225.636039 C754.992641,227.264719 756,229.514719 756,232 L756,232 L756,319 C756,321.485281 754.992641,323.735281 753.363961,325.363961 C751.735281,326.992641 749.485281,328 747,328 L747,328 L38,328 C35.5147186,328 33.2647186,326.992641 31.636039,325.363961 C30.0073593,323.735281 29,321.485281 29,319 L29,319 L29,232 C29,229.514719 30.0073593,227.264719 31.636039,225.636039 C33.2647186,224.007359 35.5147186,223 38,223 L38,223 Z" id="Rectangle" stroke="#0055C2" stroke-width="2"></path>
        <rect id="Rectangle-Copy-5" stroke="#0055C2" stroke-width="2" x="29" y="463" width="727" height="105" rx="10"></rect>
        <rect id="Rectangle-Copy-6" stroke="#0055C2" stroke-width="2" x="29" y="343" width="727" height="105" rx="10"></rect>
        <text id="Create-new-branch" font-family="Helvetica" font-size="21" font-weight="normal" fill="#0055C2">
            <tspan x="28" y="88">Create new branch</tspan>
        </text>
        <g id="Rectangle-Copy">
            <use fill="black" fill-opacity="1" filter="url(#filter-4)" xlink:href="#path-3"></use>
            <use fill="#FFFFFF" fill-rule="evenodd" xlink:href="#path-3"></use>
        </g>
        <g id="Group-Copy" transform="translate(622.000000, 378.000000)" stroke="#D8D8D8" stroke-width="3">
            <circle id="Oval-Copy-5" cx="51.5" cy="28.5" r="6"></circle>
            <circle id="Oval-Copy-6" cx="72.5" cy="7.5" r="6"></circle>
            <circle id="Oval-Copy-7" cx="7.5" cy="28.5" r="6"></circle>
            <line x1="51" y1="8.36111111" x2="51" y2="20.6388889" id="Line-6-Copy" fill="#D8D8D8" stroke-linecap="square" transform="translate(51.000000, 14.500000) scale(1, -1) translate(-51.000000, -14.500000) "></line>
            <line x1="14.5253456" y1="29" x2="44" y2="29" id="Line-Copy-2" fill="#D8D8D8" stroke-linecap="round"></line>
            <line x1="59.5253456" y1="29" x2="73" y2="29" id="Line-Copy-3" fill="#D8D8D8" stroke-linecap="round"></line>
            <line x1="51.5253456" y1="8" x2="65" y2="8" id="Line-Copy-4" fill="#D8D8D8" stroke-linecap="round"></line>
        </g>
        <g id="Group-Copy-3" transform="translate(507.000000, 378.000000)" stroke="#006AE1" stroke-width="3">
            <circle id="Oval-Copy-5" cx="51.5" cy="28.5" r="6"></circle>
            <circle id="Oval-Copy-6" cx="72.5" cy="7.5" r="6"></circle>
            <circle id="Oval-Copy-7" cx="7.5" cy="28.5" r="6"></circle>
            <line x1="51" y1="8.36111111" x2="51" y2="20.6388889" id="Line-6-Copy" stroke-linecap="square" transform="translate(51.000000, 14.500000) scale(1, -1) translate(-51.000000, -14.500000) "></line>
            <line x1="14.5253456" y1="29" x2="44" y2="29" id="Line-Copy-2" stroke-linecap="round"></line>
            <line x1="59.5253456" y1="29" x2="73" y2="29" id="Line-Copy-3" stroke-linecap="round"></line>
            <line x1="51.5253456" y1="8" x2="65" y2="8" id="Line-Copy-4" stroke-linecap="round"></line>
        </g>
        <text id="remote-repository" font-family="Helvetica" font-size="16" font-weight="normal" fill="#4F4F4F">
            <tspan x="598" y="428">remote repository</tspan>
        </text>
        <g id="magnifying-glass" transform="translate(709.000000, 360.000000)" fill="#006AE1" fill-rule="nonzero">
            <path d="M12.5,25 C5.60795455,25 0,19.3920455 0,12.5 C0,5.60795455 5.60795455,0 12.5,0 C19.3920455,0 25,5.60795455 25,12.5 C25,19.3920455 19.3920455,25 12.5,25 Z M12.5,2.27272727 C6.86136364,2.27272727 2.27272727,6.86136364 2.27272727,12.5 C2.27272727,18.1386364 6.86136364,22.7272727 12.5,22.7272727 C18.1386364,22.7272727 22.7272727,18.1386364 22.7272727,12.5 C22.7272727,6.86136364 18.1386364,2.27272727 12.5,2.27272727 Z" id="Shape"></path>
            <path d="M6.125,14 C5.504,14 5,13.496 5,12.875 C5,8.5325 8.5325,5 12.875,5 C13.496,5 14,5.504 14,6.125 C14,6.746 13.496,7.25 12.875,7.25 C9.773375,7.25 7.25,9.773375 7.25,12.875 C7.25,13.496 6.746,14 6.125,14 Z" id="Path"></path>
            <path d="M23.7845063,25 C23.4734177,25 23.1623291,24.8809054 22.9253671,24.6439313 L19.3563544,21.074738 C18.8812152,20.5995747 18.8812152,19.8315358 19.3563544,19.3563725 C19.8314937,18.8812092 20.5994937,18.8812092 21.0746329,19.3563725 L24.6436456,22.9255659 C25.1187848,23.4007292 25.1187848,24.168768 24.6436456,24.6439313 C24.4066835,24.8809054 24.0955949,25 23.7845063,25 Z" id="Path"></path>
            <path d="M31.0695071,33 C30.4890768,33 29.9086465,32.7789377 29.4665218,32.336813 L22.3324437,25.2027349 C21.8891854,24.7594766 21.8891854,24.043008 22.3324437,23.5997497 L24.5997497,21.3324437 C25.043008,20.8891854 25.7594766,20.8891854 26.2027349,21.3324437 L33.336813,28.4665218 C34.2210623,29.3507711 34.2210623,30.7882431 33.336813,31.6724924 L32.6724924,32.336813 C32.2303677,32.7789377 31.6499374,33 31.0695071,33 Z M24.7369217,24.4012423 L31.0695071,30.7338277 L31.7349614,30.0683734 L25.4012423,23.7369217 L24.7369217,24.4012423 Z" id="Shape"></path>
        </g>
        <g id="Group-3" transform="translate(564.000000, 490.000000)">
            <g id="Group-Copy-2" transform="translate(0.000000, 3.000000)" stroke="#1576ED">
                <ellipse id="Oval-Copy-5" stroke-width="4" cx="73.2857143" cy="40.4268293" rx="8.64835165" ry="8.57317073"></ellipse>
                <ellipse id="Oval-Copy-6" stroke-width="4" cx="103.351648" cy="10.5731707" rx="8.64835165" ry="8.57317073"></ellipse>
                <ellipse id="Oval-Copy-7" stroke-width="4" cx="10.6483516" cy="40.4268293" rx="8.64835165" ry="8.57317073"></ellipse>
                <line x1="72.6593407" y1="11.7134146" x2="72.6593407" y2="29.3353659" id="Line-6-Copy" stroke-width="3" stroke-linecap="square" transform="translate(72.659341, 20.524390) scale(1, -1) translate(-72.659341, -20.524390) "></line>
                <line x1="20.7898314" y1="41.0487805" x2="62.6373626" y2="41.0487805" id="Line-Copy-2" stroke-width="3" stroke-linecap="round"></line>
                <line x1="84.6862091" y1="41.0487805" x2="103.978022" y2="41.0487805" id="Line-Copy-3" stroke-width="3" stroke-linecap="round"></line>
                <line x1="73.4114838" y1="11.195122" x2="92.7032967" y2="11.195122" id="Line-Copy-4" stroke-width="3" stroke-linecap="round"></line>
            </g>
            <g id="Group-6" transform="translate(89.000000, 0.000000)" stroke="#DE4040" stroke-linecap="square" stroke-width="3">
                <g id="Group-2">
                    <line x1="0.5" y1="0.5" x2="24.5" y2="24.5" id="Line-40"></line>
                    <line x1="24" y1="1" x2="0" y2="25" id="Line-40-Copy"></line>
                </g>
            </g>
        </g>
        <g id="Rectangle">
            <use fill="black" fill-opacity="1" filter="url(#filter-6)" xlink:href="#path-5"></use>
            <use fill="#FFFFFF" fill-rule="evenodd" xlink:href="#path-5"></use>
        </g>
        <g id="magnifying-glass-copy" transform="translate(675.000000, 236.000000)" fill="#006AE1" fill-rule="nonzero">
            <path d="M12.5,25 C5.60795455,25 0,19.3920455 0,12.5 C0,5.60795455 5.60795455,0 12.5,0 C19.3920455,0 25,5.60795455 25,12.5 C25,19.3920455 19.3920455,25 12.5,25 Z M12.5,2.27272727 C6.86136364,2.27272727 2.27272727,6.86136364 2.27272727,12.5 C2.27272727,18.1386364 6.86136364,22.7272727 12.5,22.7272727 C18.1386364,22.7272727 22.7272727,18.1386364 22.7272727,12.5 C22.7272727,6.86136364 18.1386364,2.27272727 12.5,2.27272727 Z" id="Shape"></path>
            <path d="M6.125,14 C5.504,14 5,13.496 5,12.875 C5,8.5325 8.5325,5 12.875,5 C13.496,5 14,5.504 14,6.125 C14,6.746 13.496,7.25 12.875,7.25 C9.773375,7.25 7.25,9.773375 7.25,12.875 C7.25,13.496 6.746,14 6.125,14 Z" id="Path"></path>
            <path d="M23.7845063,25 C23.4734177,25 23.1623291,24.8809054 22.9253671,24.6439313 L19.3563544,21.074738 C18.8812152,20.5995747 18.8812152,19.8315358 19.3563544,19.3563725 C19.8314937,18.8812092 20.5994937,18.8812092 21.0746329,19.3563725 L24.6436456,22.9255659 C25.1187848,23.4007292 25.1187848,24.168768 24.6436456,24.6439313 C24.4066835,24.8809054 24.0955949,25 23.7845063,25 Z" id="Path"></path>
            <path d="M31.0695071,33 C30.4890768,33 29.9086465,32.7789377 29.4665218,32.336813 L22.3324437,25.2027349 C21.8891854,24.7594766 21.8891854,24.043008 22.3324437,23.5997497 L24.5997497,21.3324437 C25.043008,20.8891854 25.7594766,20.8891854 26.2027349,21.3324437 L33.336813,28.4665218 C34.2210623,29.3507711 34.2210623,30.7882431 33.336813,31.6724924 L32.6724924,32.336813 C32.2303677,32.7789377 31.6499374,33 31.0695071,33 Z M24.7369217,24.4012423 L31.0695071,30.7338277 L31.7349614,30.0683734 L25.4012423,23.7369217 L24.7369217,24.4012423 Z" id="Shape"></path>
        </g>
        <g id="Group-Copy-4" transform="translate(574.000000, 265.000000)" stroke="#006AE1" stroke-width="3">
            <circle id="Oval-Copy-5" cx="51.5" cy="28.5" r="6"></circle>
            <circle id="Oval-Copy-6" cx="72.5" cy="7.5" r="6"></circle>
            <circle id="Oval-Copy-7" cx="7.5" cy="28.5" r="6"></circle>
            <line x1="51" y1="8.36111111" x2="51" y2="20.6388889" id="Line-6-Copy" stroke-linecap="square" transform="translate(51.000000, 14.500000) scale(1, -1) translate(-51.000000, -14.500000) "></line>
            <line x1="14.5253456" y1="29" x2="44" y2="29" id="Line-Copy-2" stroke-linecap="round"></line>
            <line x1="59.5253456" y1="29" x2="73" y2="29" id="Line-Copy-3" stroke-linecap="round"></line>
            <line x1="51.5253456" y1="8" x2="65" y2="8" id="Line-Copy-4" stroke-linecap="round"></line>
        </g>
        <g id="bloovee-winner-logo" transform="translate(725.000000, 580.000000)">
            <path d="M13,13.7751507 C13,14.396312 13.4732558,14.8717809 14.0514961,14.8717809 C14.6474304,14.8717809 15.1204503,14.3968042 15.1204503,13.7751507 L15.1204503,2.09687626 C15.1204503,1.49368045 14.6474304,1 14.0514961,1 C13.4557977,1 13,1.49392656 13,2.09687626 L13,13.7751507 Z M21.7920364,15 C24.6483217,15 26.751078,12.7149437 26.751078,9.97312215 L26.751078,9.93645297 C26.751078,7.17641992 24.6657798,4.92778666 21.8269526,4.92778666 C18.9881254,4.92778666 16.885369,7.212843 16.885369,9.97312215 L16.885369,10.0095452 C16.885369,12.7516128 18.9706673,15 21.7920364,15 Z M21.8269526,13.0621935 C20.179994,13.0621935 19.0055834,11.6547366 19.0055834,9.97312215 L19.0055834,9.93645297 C19.0055834,8.25459244 20.0919958,6.86534709 21.7920364,6.86534709 C23.456689,6.86534709 24.6306277,8.27305008 24.6306277,9.97312215 L24.6306277,10.0095452 C24.6306277,11.6731942 23.5444513,13.0621935 21.8269526,13.0621935 Z M32.8092717,15 C35.665557,15 37.7683133,12.7149437 37.7683133,9.97312215 L37.7683133,9.93645297 C37.7683133,7.17641992 35.6830151,4.92778666 32.8441878,4.92778666 C30.0053606,4.92778666 27.9026043,7.212843 27.9026043,9.97312215 L27.9026043,10.0095452 C27.9026043,12.7516128 29.9879025,15 32.8092717,15 Z M32.8441878,13.0621935 C31.1969933,13.0621935 30.0228187,11.6547366 30.0228187,9.97312215 L30.0228187,9.93645297 C30.0228187,8.25459244 31.109231,6.86534709 32.8092717,6.86534709 C34.4739243,6.86534709 35.647863,8.27305008 35.647863,9.97312215 L35.647863,10.0095452 C35.647863,11.6731942 34.5614506,13.0621935 32.8441878,13.0621935 Z M44.1416963,13.9944275 L47.2261164,6.6096472 C47.2784906,6.49988574 47.3487948,6.28060893 47.3487948,6.07954366 C47.3487948,5.47610175 46.8929971,5.01933658 46.3147568,5.01933658 C45.7539746,5.01933658 45.4737015,5.40300947 45.3158709,5.78692847 L42.8976893,12.2215093 L40.5144239,5.82335156 C40.3393711,5.36634029 40.041404,5.01933658 39.4629278,5.01933658 C38.8846875,5.01933658 38.4116676,5.53098247 38.4116676,6.07954366 C38.4116676,6.28060893 38.4817358,6.46346265 38.534346,6.62785874 L41.6182943,13.9944275 C41.8638872,14.5796579 42.2491448,14.9633308 42.8273851,14.9633308 L42.9326055,14.9633308 C43.5108458,14.9633308 43.8965752,14.5612003 44.1416963,13.9944275 Z M50.0949054,9.27837643 C50.2876522,7.77961573 51.1987758,6.73762019 52.4956289,6.73762019 C53.8974665,6.73762019 54.7036056,7.8524619 54.8437422,9.27837643 L50.0949054,9.27837643 Z M56.070527,13.72027 C56.2281217,13.5558739 56.3508002,13.3181395 56.3508002,13.0439819 C56.3508002,12.5320899 55.9830006,12.1481709 55.5095089,12.1481709 C55.2641519,12.1481709 55.1242513,12.2215093 54.9664207,12.3492362 C54.3704864,12.8611282 53.6695676,13.1901665 52.7759021,13.1901665 C51.4089807,13.1901665 50.3402624,12.3128131 50.1123635,10.7409601 L55.9126964,10.7409601 C56.4560206,10.7409601 56.9115824,10.3021604 56.9115824,9.68050697 C56.9115824,7.45057746 55.4568987,4.92778666 52.513087,4.92778666 C49.8672425,4.92778666 47.9919132,7.19438536 47.9919132,9.95466451 L47.9919132,9.9913337 C47.9919132,12.9708897 50.0597533,15 52.7409859,15 C54.1779755,15 55.2292357,14.5063195 56.070527,13.72027 Z M60.1833231,9.27837643 C60.3763058,7.77961573 61.2871935,6.73762019 62.5842825,6.73762019 C63.9858841,6.73762019 64.7920233,7.8524619 64.9321598,9.27837643 L60.1833231,9.27837643 Z M66.1589447,13.72027 C66.3167752,13.5558739 66.4394537,13.3181395 66.4394537,13.0439819 C66.4394537,12.5320899 66.0714183,12.1481709 65.5981624,12.1481709 C65.3528055,12.1481709 65.2126689,12.2215093 65.0548383,12.3492362 C64.4591399,12.8611282 63.7582212,13.1901665 62.8643197,13.1901665 C61.4976342,13.1901665 60.4289159,12.3128131 60.2007812,10.7409601 L66.0011141,10.7409601 C66.5444382,10.7409601 67,10.3021604 67,9.68050697 C67,7.45057746 65.5455522,4.92778666 62.6015046,4.92778666 C59.9556601,4.92778666 58.0805667,7.19438536 58.0805667,9.95466451 L58.0805667,9.9913337 C58.0805667,12.9708897 60.1484069,15 62.8294035,15 C64.2663932,15 65.3178893,14.5063195 66.1589447,13.72027 L66.1589447,13.72027 Z" id="Fill-1" fill="#030060"></path>
            <g id="Group-4">
                <mask id="mask-8" fill="white">
                    <use xlink:href="#path-7"></use>
                </mask>
                <g id="Clip-3"></g>
                <path d="M8.68744595,14.5405413 C10.6544909,13.5649687 12,11.5915112 12,9.31636202 C12,6.07252388 9.26504479,3.44227578 5.89152197,3.44227578 C4.52034181,3.44227578 3.25480793,3.87689217 2.23537065,4.61058921 L2.23537065,1.05770107 C2.23537065,0.476155373 1.74046224,0 1.11695169,0 C0.493934821,0 0.0167986821,0.476630104 0.0167986821,1.05770107 L0.0167986821,1.80184219 L0,9.32158406 C-0.0041824725,11.2003327 0.951817666,12.865215 2.41753644,13.8939574 C2.4777647,13.9362085 2.55848043,13.9312238 2.6127846,13.8823265 C2.66758244,13.8334292 2.6779496,13.7558106 2.63746831,13.6950451 C0.724974359,10.8146136 1.16014819,5.53963813 5.89176881,5.53963813 C8.05899866,5.53963813 9.80709909,7.22944376 9.81623206,9.31351363 C9.82240299,10.8599505 9.11620201,12.0365717 8.19549958,12.7781018 C6.36026565,14.2561773 3.64974731,12.6382934 4.49738595,10.4697214 C4.5894562,10.2335427 4.71879884,9.9959397 4.88664808,9.76189723 L5.12361171,9.47705853 C5.19766284,9.39967734 5.25048599,9.29903433 5.2146946,9.19411874 C5.01401603,8.62800181 3.46832203,8.97526767 3.04005964,10.0315445 C3.34292878,9.79631524 3.65986763,9.66433998 3.96940137,9.71489885 C2.38890334,11.275815 3.44141679,13.9563846 5.46005069,14.7513219 C6.40494316,15.1232738 7.55964718,15.0976383 8.68744595,14.5405413" id="Fill-2" fill="url(#linearGradient-9)" mask="url(#mask-8)"></path>
            </g>
        </g>
        <g id="Group" transform="translate(633.000000, 95.000000)">
            <circle id="Oval-Copy-5" stroke="#1576ED" stroke-width="3" fill="#7BB2FF" cx="66.5" cy="64.5" r="8"></circle>
            <circle id="Oval-Copy-6" stroke="#1576ED" stroke-width="3" cx="94.5" cy="37.5" r="8"></circle>
            <circle id="Oval-Copy-7" stroke="#1576ED" stroke-width="3" cx="9.5" cy="64.5" r="8"></circle>
            <line x1="66.5" y1="38.4722222" x2="66.5" y2="54.5277778" id="Line-6-Copy" stroke="#1576ED" stroke-width="3" stroke-linecap="square" transform="translate(66.500000, 46.500000) scale(1, -1) translate(-66.500000, -46.500000) "></line>
            <line x1="18.6829493" y1="64.5" x2="57" y2="64.5" id="Line-Copy-2" stroke="#1576ED" stroke-width="3" stroke-linecap="round"></line>
            <line x1="66.6754444" y1="37.5" x2="84" y2="37.5" id="Line-Copy-4" stroke="#1576ED" stroke-width="3" stroke-linecap="round"></line>
            <g id="star-copy-3" transform="translate(86.000000, 0.000000)" fill="url(#linearGradient-10)" fill-rule="nonzero">
                <path d="M15.274978,18.945919 C14.5990181,19.4514231 10.2617406,16.2469361 9.43107438,16.2399173 C8.60040812,16.2329046 4.21431259,19.3636944 3.54622813,18.8468303 C2.87814367,18.3299723 4.44878761,13.021004 4.19847486,12.1917191 C3.94815631,11.3624342 -0.251209379,7.96256262 0.0118559102,7.13761281 C0.274921199,6.31266908 5.58290509,6.2360332 6.25886492,5.73052786 C6.93482476,5.22502069 8.7255732,-0.0070105153 9.55623945,0 C10.3869057,0.00702522823 12.0967779,5.26863004 12.7648624,5.78549172 C13.4329468,6.30235341 18.7390576,6.46866091 18.9893703,7.29793978 C19.2396889,8.12722472 14.9884605,11.4557062 14.7253953,12.2806561 C14.46233,13.1055998 15.9509378,18.4404088 15.274978,18.945919 L15.274978,18.945919 Z" id="Path"></path>
            </g>
            <g id="star-copy-4" transform="translate(107.000000, 19.000000)" fill="url(#linearGradient-10)" fill-rule="nonzero">
                <path d="M15.274978,18.945919 C14.5990181,19.4514231 10.2617406,16.2469361 9.43107438,16.2399173 C8.60040812,16.2329046 4.21431259,19.3636944 3.54622813,18.8468303 C2.87814367,18.3299723 4.44878761,13.021004 4.19847486,12.1917191 C3.94815631,11.3624342 -0.251209379,7.96256262 0.0118559102,7.13761281 C0.274921199,6.31266908 5.58290509,6.2360332 6.25886492,5.73052786 C6.93482476,5.22502069 8.7255732,-0.0070105153 9.55623945,0 C10.3869057,0.00702522823 12.0967779,5.26863004 12.7648624,5.78549172 C13.4329468,6.30235341 18.7390576,6.46866091 18.9893703,7.29793978 C19.2396889,8.12722472 14.9884605,11.4557062 14.7253953,12.2806561 C14.46233,13.1055998 15.9509378,18.4404088 15.274978,18.945919 L15.274978,18.945919 Z" id="Path"></path>
            </g>
        </g>
    </g>
</svg>