<svg width="24" height="24" viewBox="0 0 24 24" fill="none" xmlns="http://www.w3.org/2000/svg">
<path d="M11.9998 2.01001C6.48977 2.01001 2.00977 6.48001 2.00977 12C2.00977 17.51 6.47977 21.99 11.9998 21.99C17.5198 21.99 21.9898 17.52 21.9898 12C21.9898 6.49001 17.5198 2.01001 11.9998 2.01001ZM11.9998 19.87C7.65977 19.87 4.12977 16.34 4.12977 12C4.12977 7.66001 7.65977 4.13001 11.9998 4.13001C16.3398 4.13001 19.8698 7.66001 19.8698 12C19.8698 16.34 16.3398 19.87 11.9998 19.87Z" fill="#4F4F4F"/>
<path d="M17.7199 10.9401V13.0601H13.0599V17.6501H10.9399V13.0601H6.41992V10.9401H10.9399V6.3501H13.0599V10.9401H17.7199Z" fill="#4F4F4F"/>
</svg>
