<svg width="20" height="21" viewBox="0 0 20 21" fill="none" xmlns="http://www.w3.org/2000/svg">
<path fill-rule="evenodd" clip-rule="evenodd" d="M9.28134 1.04783C9.76452 0.578912 10.5739 0.921289 10.5739 1.5946C10.5739 1.80063 10.4904 1.99788 10.3426 2.14137L3.6753 8.61184C3.28225 8.99328 3.01643 9.45546 2.87784 9.94611L19.0985 9.94611C19.5964 9.94611 20 10.3497 20 10.8477C20 11.3456 19.5964 11.7492 19.0985 11.7492L2.92996 11.7492C3.07842 12.1778 3.32687 12.5794 3.6753 12.9176L10.3426 19.388C10.4904 19.5315 10.5739 19.7288 10.5739 19.9348C10.5739 20.6081 9.76451 20.9505 9.28133 20.4816L1.48724 12.9176C0.272986 11.7391 0.272986 9.79025 1.48724 8.61184L9.28134 1.04783Z" fill="url(#paint0_linear_283_795)"/>
<defs>
<linearGradient id="paint0_linear_283_795" x1="28.7265" y1="-7.02327" x2="-0.501224" y2="-5.8361" gradientUnits="userSpaceOnUse">
<stop stop-color="#004CB6"/>
<stop offset="1" stop-color="#009AF9"/>
</linearGradient>
</defs>
</svg>
