<svg width="25" height="30" viewBox="0 0 25 30" fill="none" xmlns="http://www.w3.org/2000/svg">
<path d="M1.7866 30C1.47986 29.9991 1.17854 29.9245 0.911674 29.7833C0.635865 29.6386 0.406202 29.4281 0.246194 29.1733C0.0861867 28.9185 0.00158045 28.6287 0.00103521 28.3333V3.88333C-0.0231026 2.88386 0.375696 1.91577 1.111 1.18887C1.84631 0.461973 2.85889 0.0348242 3.92928 0H21.0707C22.1411 0.0348242 23.1537 0.461973 23.889 1.18887C24.6243 1.91577 25.0231 2.88386 24.999 3.88333V28.3333C24.9971 28.6242 24.9137 28.9095 24.7571 29.161C24.6004 29.4124 24.376 29.6212 24.1062 29.7667C23.8347 29.9129 23.5268 29.99 23.2134 29.99C22.9 29.99 22.5921 29.9129 22.3206 29.7667L12.1965 24.4167L2.67938 29.75C2.41075 29.9056 2.10266 29.9919 1.7866 30Z" fill="#DE4040"/>
</svg>
