<?xml version="1.0" encoding="UTF-8"?>
<svg width="800px" height="600px" viewBox="0 0 800 600" version="1.1" xmlns="http://www.w3.org/2000/svg" xmlns:xlink="http://www.w3.org/1999/xlink">
    <title>2041-10-12-11-10_Git&amp;GitHubBasicLifeCycleOverview</title>
    <defs>
        <path d="M8.68744595,14.5405413 C10.6544909,13.5649687 12,11.5915112 12,9.31636202 C12,6.07252388 9.26504479,3.44227578 5.89152197,3.44227578 C4.52034181,3.44227578 3.25480793,3.87689217 2.23537065,4.61058921 L2.23537065,1.05770107 C2.23537065,0.476155373 1.74046224,0 1.11695169,0 C0.493934821,0 0.0167986821,0.476630104 0.0167986821,1.05770107 L0.0167986821,1.80184219 L0,9.32158406 C-0.0041824725,11.2003327 0.951817666,12.865215 2.41753644,13.8939574 C2.4777647,13.9362085 2.55848043,13.9312238 2.6127846,13.8823265 C2.66758244,13.8334292 2.6779496,13.7558106 2.63746831,13.6950451 C0.724974359,10.8146136 1.16014819,5.53963813 5.89176881,5.53963813 C8.05899866,5.53963813 9.80709909,7.22944376 9.81623206,9.31351363 C9.82240299,10.8599505 9.11620201,12.0365717 8.19549958,12.7781018 C6.36026565,14.2561773 3.64974731,12.6382934 4.49738595,10.4697214 C4.5894562,10.2335427 4.71879884,9.9959397 4.88664808,9.76189723 L5.12361171,9.47705853 C5.19766284,9.39967734 5.25048599,9.29903433 5.2146946,9.19411874 C5.01401603,8.62800181 3.46832203,8.97526767 3.04005964,10.0315445 C3.34292878,9.79631524 3.65986763,9.66433998 3.96940137,9.71489885 C2.38890334,11.275815 3.44141679,13.9563846 5.46005069,14.7513219 C6.40494316,15.1232738 7.55964718,15.0976383 8.68744595,14.5405413" id="path-1"></path>
        <linearGradient x1="28.568518%" y1="104.445731%" x2="78.3472072%" y2="20.6880271%" id="linearGradient-3">
            <stop stop-color="#000F98" offset="0%"></stop>
            <stop stop-color="#00A5FD" offset="100%"></stop>
        </linearGradient>
        <linearGradient x1="78.125%" y1="0%" x2="21.875%" y2="100%" id="linearGradient-4">
            <stop stop-color="#00C6FF" offset="0.0491695804%"></stop>
            <stop stop-color="#079DC2" offset="100%"></stop>
        </linearGradient>
        <linearGradient x1="78.125%" y1="0%" x2="21.875%" y2="100%" id="linearGradient-5">
            <stop stop-color="#00A5FF" offset="0.0491695804%"></stop>
            <stop stop-color="#0755C2" offset="100%"></stop>
        </linearGradient>
        <rect id="path-6" x="537" y="422" width="214" height="127"></rect>
        <filter x="-2.3%" y="-3.9%" width="106.5%" height="111.0%" filterUnits="objectBoundingBox" id="filter-7">
            <feOffset dx="2" dy="2" in="SourceAlpha" result="shadowOffsetOuter1"></feOffset>
            <feGaussianBlur stdDeviation="2" in="shadowOffsetOuter1" result="shadowBlurOuter1"></feGaussianBlur>
            <feComposite in="shadowBlurOuter1" in2="SourceAlpha" operator="out" result="shadowBlurOuter1"></feComposite>
            <feColorMatrix values="0 0 0 0 0   0 0 0 0 0   0 0 0 0 0  0 0 0 0.5 0" type="matrix" in="shadowBlurOuter1"></feColorMatrix>
        </filter>
        <rect id="path-8" x="537" y="260" width="214" height="127"></rect>
        <filter x="-2.3%" y="-3.9%" width="106.5%" height="111.0%" filterUnits="objectBoundingBox" id="filter-9">
            <feOffset dx="2" dy="2" in="SourceAlpha" result="shadowOffsetOuter1"></feOffset>
            <feGaussianBlur stdDeviation="2" in="shadowOffsetOuter1" result="shadowBlurOuter1"></feGaussianBlur>
            <feComposite in="shadowBlurOuter1" in2="SourceAlpha" operator="out" result="shadowBlurOuter1"></feComposite>
            <feColorMatrix values="0 0 0 0 0   0 0 0 0 0   0 0 0 0 0  0 0 0 0.5 0" type="matrix" in="shadowBlurOuter1"></feColorMatrix>
        </filter>
        <rect id="path-10" x="537" y="98" width="214" height="127"></rect>
        <filter x="-2.3%" y="-3.9%" width="106.5%" height="111.0%" filterUnits="objectBoundingBox" id="filter-11">
            <feOffset dx="2" dy="2" in="SourceAlpha" result="shadowOffsetOuter1"></feOffset>
            <feGaussianBlur stdDeviation="2" in="shadowOffsetOuter1" result="shadowBlurOuter1"></feGaussianBlur>
            <feComposite in="shadowBlurOuter1" in2="SourceAlpha" operator="out" result="shadowBlurOuter1"></feComposite>
            <feColorMatrix values="0 0 0 0 0   0 0 0 0 0   0 0 0 0 0  0 0 0 0.5 0" type="matrix" in="shadowBlurOuter1"></feColorMatrix>
        </filter>
        <rect id="path-12" x="0" y="0" width="214" height="127"></rect>
        <filter x="-2.3%" y="-3.9%" width="106.5%" height="111.0%" filterUnits="objectBoundingBox" id="filter-13">
            <feOffset dx="2" dy="2" in="SourceAlpha" result="shadowOffsetOuter1"></feOffset>
            <feGaussianBlur stdDeviation="2" in="shadowOffsetOuter1" result="shadowBlurOuter1"></feGaussianBlur>
            <feComposite in="shadowBlurOuter1" in2="SourceAlpha" operator="out" result="shadowBlurOuter1"></feComposite>
            <feColorMatrix values="0 0 0 0 0   0 0 0 0 0   0 0 0 0 0  0 0 0 0.5 0" type="matrix" in="shadowBlurOuter1"></feColorMatrix>
        </filter>
        <rect id="path-14" x="0" y="0" width="214" height="127"></rect>
        <filter x="-2.3%" y="-3.9%" width="106.5%" height="111.0%" filterUnits="objectBoundingBox" id="filter-15">
            <feOffset dx="2" dy="2" in="SourceAlpha" result="shadowOffsetOuter1"></feOffset>
            <feGaussianBlur stdDeviation="2" in="shadowOffsetOuter1" result="shadowBlurOuter1"></feGaussianBlur>
            <feComposite in="shadowBlurOuter1" in2="SourceAlpha" operator="out" result="shadowBlurOuter1"></feComposite>
            <feColorMatrix values="0 0 0 0 0   0 0 0 0 0   0 0 0 0 0  0 0 0 0.5 0" type="matrix" in="shadowBlurOuter1"></feColorMatrix>
        </filter>
        <linearGradient x1="78.6960514%" y1="0%" x2="21.3039486%" y2="100%" id="linearGradient-16">
            <stop stop-color="#00C6FF" offset="0.0491695804%"></stop>
            <stop stop-color="#079DC2" offset="100%"></stop>
        </linearGradient>
        <linearGradient x1="78.6960514%" y1="0%" x2="21.3039486%" y2="100%" id="linearGradient-17">
            <stop stop-color="#00A5FF" offset="0.0491695804%"></stop>
            <stop stop-color="#0755C2" offset="100%"></stop>
        </linearGradient>
        <rect id="path-18" x="282" y="183" width="201" height="282" rx="5"></rect>
        <mask id="mask-19" maskContentUnits="userSpaceOnUse" maskUnits="objectBoundingBox" x="0" y="0" width="201" height="282" fill="white">
            <use xlink:href="#path-18"></use>
        </mask>
    </defs>
    <g id="2041-10-12-11-10_Git&amp;GitHubBasicLifeCycleOverview" stroke="none" stroke-width="1" fill="none" fill-rule="evenodd">
        <rect fill="#FFFFFF" x="0" y="0" width="800" height="600"></rect>
        <g id="bloovee-winner-logo" transform="translate(725.000000, 580.000000)">
            <path d="M13,13.7751507 C13,14.396312 13.4732558,14.8717809 14.0514961,14.8717809 C14.6474304,14.8717809 15.1204503,14.3968042 15.1204503,13.7751507 L15.1204503,2.09687626 C15.1204503,1.49368045 14.6474304,1 14.0514961,1 C13.4557977,1 13,1.49392656 13,2.09687626 L13,13.7751507 Z M21.7920364,15 C24.6483217,15 26.751078,12.7149437 26.751078,9.97312215 L26.751078,9.93645297 C26.751078,7.17641992 24.6657798,4.92778666 21.8269526,4.92778666 C18.9881254,4.92778666 16.885369,7.212843 16.885369,9.97312215 L16.885369,10.0095452 C16.885369,12.7516128 18.9706673,15 21.7920364,15 Z M21.8269526,13.0621935 C20.179994,13.0621935 19.0055834,11.6547366 19.0055834,9.97312215 L19.0055834,9.93645297 C19.0055834,8.25459244 20.0919958,6.86534709 21.7920364,6.86534709 C23.456689,6.86534709 24.6306277,8.27305008 24.6306277,9.97312215 L24.6306277,10.0095452 C24.6306277,11.6731942 23.5444513,13.0621935 21.8269526,13.0621935 Z M32.8092717,15 C35.665557,15 37.7683133,12.7149437 37.7683133,9.97312215 L37.7683133,9.93645297 C37.7683133,7.17641992 35.6830151,4.92778666 32.8441878,4.92778666 C30.0053606,4.92778666 27.9026043,7.212843 27.9026043,9.97312215 L27.9026043,10.0095452 C27.9026043,12.7516128 29.9879025,15 32.8092717,15 Z M32.8441878,13.0621935 C31.1969933,13.0621935 30.0228187,11.6547366 30.0228187,9.97312215 L30.0228187,9.93645297 C30.0228187,8.25459244 31.109231,6.86534709 32.8092717,6.86534709 C34.4739243,6.86534709 35.647863,8.27305008 35.647863,9.97312215 L35.647863,10.0095452 C35.647863,11.6731942 34.5614506,13.0621935 32.8441878,13.0621935 Z M44.1416963,13.9944275 L47.2261164,6.6096472 C47.2784906,6.49988574 47.3487948,6.28060893 47.3487948,6.07954366 C47.3487948,5.47610175 46.8929971,5.01933658 46.3147568,5.01933658 C45.7539746,5.01933658 45.4737015,5.40300947 45.3158709,5.78692847 L42.8976893,12.2215093 L40.5144239,5.82335156 C40.3393711,5.36634029 40.041404,5.01933658 39.4629278,5.01933658 C38.8846875,5.01933658 38.4116676,5.53098247 38.4116676,6.07954366 C38.4116676,6.28060893 38.4817358,6.46346265 38.534346,6.62785874 L41.6182943,13.9944275 C41.8638872,14.5796579 42.2491448,14.9633308 42.8273851,14.9633308 L42.9326055,14.9633308 C43.5108458,14.9633308 43.8965752,14.5612003 44.1416963,13.9944275 Z M50.0949054,9.27837643 C50.2876522,7.77961573 51.1987758,6.73762019 52.4956289,6.73762019 C53.8974665,6.73762019 54.7036056,7.8524619 54.8437422,9.27837643 L50.0949054,9.27837643 Z M56.070527,13.72027 C56.2281217,13.5558739 56.3508002,13.3181395 56.3508002,13.0439819 C56.3508002,12.5320899 55.9830006,12.1481709 55.5095089,12.1481709 C55.2641519,12.1481709 55.1242513,12.2215093 54.9664207,12.3492362 C54.3704864,12.8611282 53.6695676,13.1901665 52.7759021,13.1901665 C51.4089807,13.1901665 50.3402624,12.3128131 50.1123635,10.7409601 L55.9126964,10.7409601 C56.4560206,10.7409601 56.9115824,10.3021604 56.9115824,9.68050697 C56.9115824,7.45057746 55.4568987,4.92778666 52.513087,4.92778666 C49.8672425,4.92778666 47.9919132,7.19438536 47.9919132,9.95466451 L47.9919132,9.9913337 C47.9919132,12.9708897 50.0597533,15 52.7409859,15 C54.1779755,15 55.2292357,14.5063195 56.070527,13.72027 Z M60.1833231,9.27837643 C60.3763058,7.77961573 61.2871935,6.73762019 62.5842825,6.73762019 C63.9858841,6.73762019 64.7920233,7.8524619 64.9321598,9.27837643 L60.1833231,9.27837643 Z M66.1589447,13.72027 C66.3167752,13.5558739 66.4394537,13.3181395 66.4394537,13.0439819 C66.4394537,12.5320899 66.0714183,12.1481709 65.5981624,12.1481709 C65.3528055,12.1481709 65.2126689,12.2215093 65.0548383,12.3492362 C64.4591399,12.8611282 63.7582212,13.1901665 62.8643197,13.1901665 C61.4976342,13.1901665 60.4289159,12.3128131 60.2007812,10.7409601 L66.0011141,10.7409601 C66.5444382,10.7409601 67,10.3021604 67,9.68050697 C67,7.45057746 65.5455522,4.92778666 62.6015046,4.92778666 C59.9556601,4.92778666 58.0805667,7.19438536 58.0805667,9.95466451 L58.0805667,9.9913337 C58.0805667,12.9708897 60.1484069,15 62.8294035,15 C64.2663932,15 65.3178893,14.5063195 66.1589447,13.72027 L66.1589447,13.72027 Z" id="Fill-1" fill="#030060"></path>
            <g id="Group-4">
                <mask id="mask-2" fill="white">
                    <use xlink:href="#path-1"></use>
                </mask>
                <g id="Clip-3"></g>
                <path d="M8.68744595,14.5405413 C10.6544909,13.5649687 12,11.5915112 12,9.31636202 C12,6.07252388 9.26504479,3.44227578 5.89152197,3.44227578 C4.52034181,3.44227578 3.25480793,3.87689217 2.23537065,4.61058921 L2.23537065,1.05770107 C2.23537065,0.476155373 1.74046224,0 1.11695169,0 C0.493934821,0 0.0167986821,0.476630104 0.0167986821,1.05770107 L0.0167986821,1.80184219 L0,9.32158406 C-0.0041824725,11.2003327 0.951817666,12.865215 2.41753644,13.8939574 C2.4777647,13.9362085 2.55848043,13.9312238 2.6127846,13.8823265 C2.66758244,13.8334292 2.6779496,13.7558106 2.63746831,13.6950451 C0.724974359,10.8146136 1.16014819,5.53963813 5.89176881,5.53963813 C8.05899866,5.53963813 9.80709909,7.22944376 9.81623206,9.31351363 C9.82240299,10.8599505 9.11620201,12.0365717 8.19549958,12.7781018 C6.36026565,14.2561773 3.64974731,12.6382934 4.49738595,10.4697214 C4.5894562,10.2335427 4.71879884,9.9959397 4.88664808,9.76189723 L5.12361171,9.47705853 C5.19766284,9.39967734 5.25048599,9.29903433 5.2146946,9.19411874 C5.01401603,8.62800181 3.46832203,8.97526767 3.04005964,10.0315445 C3.34292878,9.79631524 3.65986763,9.66433998 3.96940137,9.71489885 C2.38890334,11.275815 3.44141679,13.9563846 5.46005069,14.7513219 C6.40494316,15.1232738 7.55964718,15.0976383 8.68744595,14.5405413" id="Fill-2" fill="url(#linearGradient-3)" mask="url(#mask-2)"></path>
            </g>
        </g>
        <text id="Git-&amp;-GitHub-Basic-L" fill-rule="nonzero" font-family="Helvetica" font-size="18" font-weight="normal" fill="#0055C2">
            <tspan x="10" y="23">Git &amp; GitHub Basic Life Cycle</tspan>
        </text>
        <text id="Linked" font-family="Helvetica" font-size="18" font-weight="normal" fill="#0055C2">
            <tspan x="374" y="354">Linked</tspan>
        </text>
        <text id="Remote-Repository" font-family="Helvetica" font-size="18" font-weight="normal" fill="#199ABD">
            <tspan x="300.968262" y="269">Remote Repository</tspan>
        </text>
        <text id="Local-Repository" font-family="Helvetica" font-size="18" font-weight="normal" fill="#0055C2">
            <tspan x="300.760902" y="443.8125">Local Repository</tspan>
        </text>
        <g id="Group-3" transform="translate(300.000000, 276.000000)">
            <rect id="Rectangle-Copy-13" fill="#A1E0E9" x="0" y="0" width="126" height="63" rx="31.5"></rect>
            <g id="Group-Copy-3" transform="translate(75.000000, 7.000000)" fill-rule="nonzero">
                <path d="M29.8402642,4.77831559 C28.7181963,1.63407551 21.8243953,0 15.0074482,0 C8.19050122,0 1.37355419,1.61858664 0.190003076,4.73184898 C0.0695475138,4.91566728 0.00540277751,5.13112554 0.00555355103,5.35140368 L0.00555355103,33.9515973 C-0.00185118368,34.0133281 -0.00185118368,34.0757329 0.00555355103,34.1374637 C0.00183281309,34.1916099 0.00183281309,34.2459506 0.00555355103,34.3000968 C0.00555355103,38.0406583 7.55261328,40 15.0074482,40 C22.4622832,40 29.9939721,38.0406583 29.9939721,34.3000968 C29.9976898,34.2485352 29.9976898,34.1967697 29.9939721,34.1452081 C30.0020093,34.0809253 30.0020093,34.0158802 29.9939721,33.9515973 L29.9939721,5.35140368 C29.997896,5.1495277 29.9445724,4.95071496 29.8402642,4.77831559 Z" id="Path" fill="url(#linearGradient-4)"></path>
                <path d="M14.9985967,0 C24.7129738,0 29.9927241,2.79592261 29.9927241,4.23271618 C30.0024253,4.27742777 30.0024253,4.32391749 29.9927241,4.36862908 C29.6746669,5.84425491 24.3858292,8.48484848 14.9985967,8.48484848 C5.61136413,8.48484848 0.322526447,5.81513071 0.00446919852,4.36862908 C-0.00148973284,4.33331746 -0.00148973284,4.29715199 0.00446919852,4.26184037 C0.00446919852,2.79592261 5.28421953,0 14.9985967,0 Z" id="Path" fill="#199ABD"></path>
            </g>
            <g id="Group-2-Copy" transform="translate(7.000000, 17.000000)" fill-rule="nonzero">
                <path d="M41,17.8805843 C41,22.2321136 37.4458297,25.7727273 33.0758965,25.7727273 L9.13001927,25.7727273 C7.03610233,25.7830863 5.02347399,24.9514756 3.53328585,23.4599807 C2.04184714,21.9981891 1.20157218,19.9838008 1.20588235,17.8805843 C1.20588235,14.5729421 3.26346871,11.6412592 6.36005437,10.4925835 C7.87831108,4.41275407 13.2226235,0.115787667 19.4072489,0.00229924607 C25.5918743,-0.111189175 31.0860386,3.98689023 32.8202802,10.007036 C32.978068,9.99663716 33.068796,9.99663716 33.0758965,9.99663716 C33.1942373,9.99663716 33.3125782,9.99663716 33.4293411,10.0046363 C35.396962,10.0823879 37.2654425,10.9005784 38.6702631,12.299588 C40.1596037,13.7636981 41,15.777279 41,17.8805843 Z" id="Path" fill="#C5DDFF"></path>
                <path d="M6.02941176,9.81818182 C5.96562454,10.0732891 5.9048748,10.3283963 5.85020003,10.5903984 C5.50392651,10.735189 5.16372796,10.883427 4.82352941,11.0454545 C5.21232775,10.6202758 5.61428854,10.2111849 6.02941176,9.81818182 Z" id="Path" fill="#607D8B"></path>
                <path d="M25.3235294,12.2436026 C25.8954811,11.6859846 26.5808423,11.2087016 27.35109,10.8316166 C28.1326319,10.4493444 28.9859727,10.1691312 29.8787384,10.0016079 C31.6944744,9.66911259 33.5948205,9.79068643 35.3205948,10.3497483 C37.0459224,10.9005958 38.5266489,11.8474073 39.5746252,13.0698759 C40.0889805,13.6744892 40.4774073,14.3412427 40.724921,15.044415 C40.9661559,15.7395286 41.0497183,16.4633351 40.9716811,17.1818182 C40.8240339,15.7847932 40.1723794,14.4515312 39.0951789,13.342561 C38.0390842,12.2558564 36.6383842,11.4128645 35.0372429,10.9003482 C33.4398153,10.3847493 31.6942082,10.231662 29.9941433,10.4580753 C28.2611688,10.7011353 26.6454422,11.3188108 25.3235294,12.2436026 L25.3235294,12.2436026 Z" id="Path" fill="#7BB2FF"></path>
                <path d="M4.82352941,12.281074 C4.90655559,12.2387828 4.99031006,12.1981501 5.07552113,12.1583467 C4.99103836,12.1973209 4.90655559,12.2387828 4.82352941,12.281074 Z M5.75138333,10.6203916 C5.80673411,10.4658232 5.86548362,10.3112549 5.92763187,10.1566865 C5.86548362,10.3086787 5.80673411,10.4632471 5.75138333,10.6203916 Z M9.64705882,4.90909091 C9.53684279,5.00389283 9.42808336,5.10049805 9.32078052,5.19890657 C9.42711229,5.10230135 9.53854216,5.00415045 9.64705882,4.90909091 Z" id="Shape" fill="#55717C"></path>
                <path d="M37.3823529,24.7409211 C35.89817,26.196106 33.9360331,27.0043636 31.8983048,27 L7.93115858,27 C6.46984643,27.005255 5.03532438,26.5912744 3.78476017,25.803364 C3.71895686,25.7616673 3.6542064,25.719422 3.59050879,25.676628 C3.52654797,25.633834 3.46258715,25.5893941 3.39941596,25.5441312 C3.33624478,25.4988684 3.27781144,25.4552514 3.21858846,25.4099885 L3.21227134,25.4050508 C3.1498898,25.358142 3.08908754,25.3095873 3.02828527,25.2602096 C2.96748301,25.2108319 2.91378751,25.1655691 2.85693345,25.1170143 L2.83087533,25.0947944 C2.7906037,25.0594071 2.75191136,25.0248427 2.71163973,24.9878094 L2.64215143,24.9252644 C2.6097762,24.8956378 2.57898025,24.8668341 2.54739466,24.8355616 C2.47395816,24.7664329 2.4013113,24.6940123 2.32945408,24.6207687 C0.836690659,23.1168587 -0.00433064307,21.0444302 0,18.8806141 C0,18.8172461 0,18.7538781 0,18.691333 C0,18.649362 0,18.6090369 0,18.5629511 C0,18.4567891 0.00949244833,18.353096 0.0181784858,18.2477569 C0.0181784858,18.1959104 0.0260748834,18.1432409 0.0316023618,18.0913943 C0.0371298401,18.0395477 0.0394987594,18.0090982 0.0450262378,17.9621894 C0.0505537162,17.9152806 0.0560811945,17.8617881 0.0631879524,17.8115875 C0.0821393068,17.6612599 0.105565287,17.5120296 0.133465892,17.3638966 C0.13978301,17.3276863 0.146889768,17.2931219 0.153996526,17.2569116 C0.167420402,17.1902518 0.181633917,17.1244149 0.195057793,17.058578 C0.20611275,17.0133151 0.216378067,16.9680522 0.227433024,16.9236123 C0.238487981,16.8791724 0.251122217,16.8273258 0.263756453,16.7795941 C0.27244249,16.7450297 0.281128528,16.7121113 0.290604205,16.6791928 C0.300079882,16.6462744 0.30797628,16.6166478 0.317451957,16.5845523 C0.326927634,16.5524568 0.337982591,16.5137776 0.349037548,16.4775673 C0.360092505,16.441357 0.368778542,16.4125534 0.379833499,16.3804579 C0.427738311,16.2284844 0.480380962,16.0784311 0.537761452,15.9302981 C0.555133527,15.8842123 0.573295241,15.8381264 0.591456956,15.7928636 C0.609618671,15.7476007 0.627780385,15.7015149 0.647521379,15.656252 C0.667262374,15.6109891 0.685424088,15.5657263 0.705954722,15.5212864 C0.726485356,15.4768465 0.74543671,15.4315836 0.766756984,15.3879667 C0.788077258,15.3443497 0.807818252,15.2990868 0.829928165,15.2554699 C0.852038079,15.2118529 0.872568713,15.167413 0.895468266,15.1246191 C0.918367819,15.0818251 0.939688093,15.0373852 0.963377286,14.9945912 C1.00917639,14.9122951 1.05655478,14.8225923 1.10551244,14.7378273 C1.15447011,14.6530623 1.20026922,14.5789958 1.24843724,14.5008144 C1.40710105,14.248644 1.57897661,14.0057767 1.76328237,13.7733167 C1.78934048,13.7395753 1.81539859,13.7074798 1.84224635,13.6745614 C1.94174096,13.5566036 2.04413091,13.4416633 2.14941621,13.3297406 C2.17547433,13.300937 2.2007428,13.2737792 2.22838019,13.2474445 C2.32208411,13.1475919 2.41868337,13.0504824 2.51817799,12.9561162 L2.59319376,12.8853415 C2.71269258,12.7756134 2.83561317,12.6678055 2.96195553,12.5619178 L3.04091951,12.4985498 C3.10724925,12.4458802 3.17515827,12.3932107 3.24306729,12.3421871 C3.27465288,12.3183213 3.30623847,12.2952783 3.33782406,12.2730584 C3.408102,12.2212118 3.47995922,12.1710112 3.55181644,12.1216335 C3.58813987,12.0961217 3.62604258,12.0722558 3.66394529,12.047567 L3.76265026,11.984199 L3.84161423,11.9364672 C3.88188586,11.9109554 3.92057821,11.8862666 3.9640084,11.8624007 L3.97822191,11.8541711 C4.01691426,11.8303052 4.05718589,11.8080853 4.09666788,11.7858653 C4.13614987,11.7636454 4.18273861,11.7373106 4.2261688,11.7142677 L4.357249,11.644316 L4.48990848,11.5776561 L4.62493688,11.5126422 C4.71495581,11.4706712 4.80576439,11.4303461 4.89815224,11.3908439 C4.99054009,11.3513418 5.07582119,11.3167774 5.16505048,11.2822131 C5.18005364,11.220491 5.19584643,11.1595918 5.21163923,11.0978697 C5.23532842,11.007344 5.25901761,10.9159953 5.28428609,10.8271155 C5.30955456,10.7382357 5.33482303,10.646887 5.36325006,10.5571842 C5.39167709,10.4674814 5.41694557,10.3786016 5.44221404,10.2897218 C5.46748251,10.200842 5.4990681,10.1136081 5.52907441,10.0271972 C5.52941681,10.0255706 5.52941681,10.023886 5.52907441,10.0222594 C5.55829109,9.93996329 5.58671812,9.85766717 5.61751407,9.77537105 C5.61751407,9.76961032 5.61751407,9.76302663 5.62383119,9.75644294 C5.68489666,9.59185069 5.74859427,9.42725845 5.81492401,9.2626662 L5.83150644,9.2223411 C5.86072312,9.15156643 5.88993979,9.08079177 5.92073574,9.01084006 L5.94205601,8.96146239 C5.97048304,8.89644845 5.99891007,8.83143451 6.02812675,8.76642058 L6.05655378,8.70469848 C6.08892901,8.63474678 6.1205146,8.56561804 6.15367947,8.49648929 L6.1702619,8.46110196 C6.20737497,8.3837436 6.24527768,8.30638525 6.28318039,8.22984985 C6.3210831,8.15331446 6.36214437,8.0759561 6.40004708,7.99942071 L6.43242231,7.93852158 C6.46084934,7.88585206 6.48769709,7.83318254 6.5177034,7.78133598 C6.5374444,7.74347977 6.55718539,7.70562355 6.5792953,7.66859029 C6.60140522,7.63155704 6.63220117,7.57230383 6.65825928,7.52457208 C6.67010388,7.50399805 6.68194847,7.48342402 6.69379307,7.46284998 C6.73090614,7.39619012 6.77275705,7.33035323 6.80987011,7.26451633 C6.84698318,7.19867943 6.88883409,7.13284253 6.92989536,7.06700563 C6.96148095,7.016805 6.9922769,6.9657814 7.02465213,6.91640373 L7.077558,6.8341076 C7.10598503,6.79049066 7.13441206,6.74687371 7.16362873,6.70407973 C7.1928454,6.66128574 7.21969315,6.62178361 7.24890982,6.5773437 C7.2781265,6.53290379 7.28760217,6.51973641 7.30813281,6.49010981 C7.34050804,6.44237806 7.37367291,6.39300038 7.40841706,6.34609159 L7.45026796,6.28683838 C7.48896031,6.23169998 7.52923194,6.17656158 7.56871393,6.12224614 C7.64609863,6.01745574 7.7250626,5.91321398 7.80560586,5.80952087 C7.84113965,5.76343504 7.87746308,5.71734921 7.91378651,5.67126338 C7.99485619,5.56976483 8.07776837,5.46881492 8.16252303,5.36841365 C8.19726718,5.32644263 8.23280097,5.28611753 8.2691244,5.24332354 L8.30149963,5.20629029 C8.35203658,5.14786004 8.40336316,5.08942979 8.45468975,5.0318225 L8.47206182,5.0128944 C8.52891589,4.94952638 8.58655959,4.88698133 8.64578257,4.82443627 C8.91662901,4.53475392 9.19853041,4.25577006 9.49543496,3.98995358 C9.61177522,3.88516319 9.72969476,3.78229303 9.84919357,3.68134312 C9.92341971,3.61879807 9.99843549,3.55789894 10.0734513,3.49699981 C10.0824229,3.4886663 10.0919198,3.48096812 10.1018783,3.47395689 C10.1808423,3.41058888 10.2598063,3.34886678 10.3387702,3.28796765 C10.4177342,3.22706852 10.5022257,3.16452347 10.5851378,3.10362434 L10.5898757,3.10362434 C10.6743671,3.04190224 10.7596482,2.98182607 10.8441397,2.9217499 C10.9286311,2.86167373 11.0162811,2.80406645 11.1023519,2.74645916 C11.2755462,2.63179323 11.4513727,2.52206507 11.6298312,2.41727467 C11.7190605,2.36460515 11.8082898,2.31193563 11.8983088,2.26091204 C11.9883277,2.20988844 12.0783466,2.1596878 12.1699448,2.11113309 C12.2173232,2.08479833 12.2662809,2.06010949 12.3144489,2.03542066 C12.9074977,1.72032685 13.5215895,1.45024289 14.1519407,1.22727273 C13.9087316,1.40914716 7.62161979,4.45574964 7.8758838,10.8205318 C5.51690956,11.7111859 3.60180251,13.5549212 2.56318745,15.9352359 C2.15586568,18.5202776 2.98783388,21.1494753 4.79076123,22.9748463 C6.28183635,24.5089883 8.29563918,25.3645409 10.3908865,25.3540272 L34.3588223,25.3540272 C35.3952448,25.3555668 36.4220929,25.1473444 37.3823529,24.7409211 Z" id="Path" fill="#7BB2FF"></path>
            </g>
            <g id="github-copy-9" transform="translate(28.000000, 3.000000)" fill="#000000" fill-rule="nonzero">
                <path d="M13.4999387,0 C6.87937924,0.000281507968 1.23607305,4.92371947 0.175545699,11.6247143 C-0.884981649,18.3257092 2.95029255,24.8264115 9.23099992,26.9735026 C9.90593522,27.094643 10.159036,26.6794135 10.159036,26.316034 C10.159036,25.9873135 10.1421491,24.8972858 10.1421491,23.7380786 C6.75058566,24.3782317 5.87316976,22.8903317 5.60319564,22.1117504 C5.30362658,21.3545194 4.8287418,20.6834748 4.21957826,20.1566047 C3.74712354,19.8970776 3.07218823,19.2569107 4.20269137,19.2396366 C5.07876595,19.3371137 5.85340291,19.8666317 6.27813095,20.6583432 C6.65100758,21.3451993 7.27514232,21.8516487 8.0127586,22.0658938 C8.75037489,22.2801388 9.54081908,22.1845623 10.2096021,21.8002625 C10.2680394,21.0965946 10.5738776,20.4386823 11.0701716,19.9490245 C8.06670951,19.6029884 4.92826033,18.4091084 4.92826033,13.1148109 C4.90929156,11.7391727 5.4043399,10.4082233 6.31187771,9.39492251 C5.89919769,8.1993254 5.94748412,6.88724536 6.44686477,5.72693951 C6.44686477,5.72693951 7.57734092,5.36358773 10.159009,7.14568765 C12.3677861,6.52278566 14.6995849,6.52278566 16.908362,7.14568765 C19.4899626,5.34629976 20.6205062,5.72693951 20.6205062,5.72693951 C21.1199547,6.88722933 21.1682421,8.19933614 20.7554933,9.39492251 C21.665764,10.406489 22.1612445,11.7386004 22.1391107,13.1148109 C22.1391107,18.426424 18.9837611,19.6029884 15.980326,19.9490245 C16.6321685,20.6264778 16.9646919,21.5609781 16.8914887,22.5096919 C16.8914887,24.3610129 16.8746018,25.8489129 16.8746018,26.3160894 C16.8746018,26.6794411 17.1277025,27.1119725 17.8026378,26.973558 C24.0717688,24.8091265 27.88944,18.3072604 26.8216501,11.6133011 C25.7538602,4.91934185 20.1148931,0.00353025531 13.4999387,0 Z" id="Path"></path>
            </g>
        </g>
        <g id="Group-5" transform="translate(300.000000, 363.000000)">
            <rect id="Rectangle-Copy-14" fill="#C5DDFF" x="0" y="0" width="126" height="63" rx="31.5"></rect>
            <g id="Group" transform="translate(75.000000, 11.000000)" fill-rule="nonzero">
                <path d="M29.8402642,4.77831559 C28.7181963,1.63407551 21.8243953,-3.44505569e-14 15.0074482,-3.44505569e-14 C8.19050122,-3.44505569e-14 1.37355419,1.61858664 0.190003076,4.73184898 C0.0695475138,4.91566728 0.00540277751,5.13112554 0.00555355103,5.35140368 L0.00555355103,33.9515973 C-0.00185118368,34.0133281 -0.00185118368,34.0757329 0.00555355103,34.1374637 C0.00183281309,34.1916099 0.00183281309,34.2459506 0.00555355103,34.3000968 C0.00555355103,38.0406583 7.55261328,40 15.0074482,40 C22.4622832,40 29.9939721,38.0406583 29.9939721,34.3000968 C29.9976898,34.2485352 29.9976898,34.1967697 29.9939721,34.1452081 C30.0020093,34.0809253 30.0020093,34.0158802 29.9939721,33.9515973 L29.9939721,5.35140368 C29.997896,5.1495277 29.9445724,4.95071496 29.8402642,4.77831559 Z" id="Path" fill="url(#linearGradient-5)"></path>
                <path d="M14.9985967,-3.44505569e-14 C24.7129738,-3.44505569e-14 29.9927241,2.79592261 29.9927241,4.23271618 C30.0024253,4.27742777 30.0024253,4.32391749 29.9927241,4.36862908 C29.6746669,5.84425491 24.3858292,8.48484848 14.9985967,8.48484848 C5.61136413,8.48484848 0.322526447,5.81513071 0.00446919852,4.36862908 C-0.00148973284,4.33331746 -0.00148973284,4.29715199 0.00446919852,4.26184037 C0.00446919852,2.79592261 5.28421953,-3.44505569e-14 14.9985967,-3.44505569e-14 Z" id="Path" fill="#0055C2"></path>
            </g>
            <g id="laptop-(2)-copy-5" transform="translate(13.000000, 25.000000)" fill-rule="nonzero">
                <g id="laptop-(2)-copy-2">
                    <path d="M24.4950357,0 L2.50496433,0 C1.49238407,0 0.675,0.839796318 0.675,1.88014101 L0.675,14.119859 C0.675,14.5648257 0.827497027,14.9659224 1.07759215,15.2918136 C1.40698573,15.724246 1.92547562,16 2.50496433,16 L24.5499346,16 C25.0989239,15.9811986 25.5930143,15.7117117 25.9224078,15.2980807 C26.172503,14.9721896 26.325,14.5648257 26.325,14.119859 L26.325,1.88014101 C26.325,0.839796318 25.5015161,0 24.4950357,0 Z M2.50496433,14.7465727 C2.16947087,14.7465727 1.89497622,14.4645515 1.89497622,14.119859 L1.89497622,1.88014101 C1.89497622,1.52918136 2.16947087,1.25342734 2.50496433,1.25342734 L24.4950357,1.25342734 C24.8305291,1.25342734 25.1050238,1.52918136 25.1050238,1.88014101 L25.1050238,14.119859 C25.1050238,14.4645515 24.8305291,14.7465727 24.4950357,14.7465727 L2.50496433,14.7465727 Z" id="Shape" fill="#1576ED"></path>
                    <path d="M26.9582903,25.362209 L25.5351148,17.7217109 C25.4507368,17.2669193 25.2426044,16.870601 24.9557192,16.571738 C24.6182073,16.2144017 24.1738165,16 23.6900493,16 L3.3043255,16 C2.82618352,16 2.37616754,16.2144017 2.04428076,16.5652409 C1.75177037,16.864104 1.54363798,17.2604223 1.45925999,17.7217109 L0.0417096557,25.362209 C-0.0764195386,26.0054142 0.0585852549,26.6746075 0.418598037,27.1878722 C0.77861082,27.701137 1.31300479,28 1.88677517,28 L25.1132248,28 C25.6869952,28 26.2213892,27.701137 26.581402,27.1878722 C26.9414147,26.6746075 27.0764195,26.0054142 26.9582903,25.362209 Z M25.7038708,26.3692474 C25.5576156,26.5771521 25.343858,26.7005956 25.1132248,26.7005956 L1.88677517,26.7005956 C1.65614198,26.7005956 1.43675919,26.5771521 1.29050399,26.3692474 C1.149874,26.1613427 1.093622,25.8949648 1.1386236,25.6350839 L2.56179913,17.9945858 C2.63492673,17.5917704 2.94993791,17.2994044 3.3043255,17.2994044 L23.6900493,17.2994044 C24.0500621,17.2994044 24.3650733,17.5917704 24.4382009,17.9945858 L25.8557512,25.6350839 C25.906378,25.8949648 25.850126,26.1613427 25.7038708,26.3692474 Z" id="Shape" fill="#1576ED"></path>
                    <path d="M24.876212,18.3098835 C24.7987682,17.8951518 24.4844608,17.5996021 24.1212754,17.6000004 L3.55067167,17.6000004 C3.19307012,17.6000004 2.87520207,17.8985499 2.80141127,18.3098835 L1.36532884,26.1119548 C1.31991912,26.3773314 1.37668127,26.6493424 1.51858665,26.8616437 C1.66616824,27.0739449 1.88754063,27.1999992 2.12026545,27.1999992 L25.5573578,27.1999992 C25.7900826,27.1999992 26.0057788,27.0739449 26.1533604,26.8616437 C26.300942,26.6493424 26.3577042,26.3773314 26.3066182,26.1119548 L24.876212,18.3098835 Z M4.47589474,19.3912931 L23.1960523,19.3912931 C23.5139204,19.3912931 23.7636738,19.6898417 23.7636738,20.0547345 C23.7636738,20.4196273 23.5139204,20.718176 23.1960523,20.718176 L4.47589474,20.718176 C4.16370291,20.718176 3.90827323,20.4196273 3.90827323,20.0547345 C3.90827323,19.6898417 4.16370291,19.3912931 4.47589474,19.3912931 Z M15.1755603,24.6192116 L3.13063175,24.6192116 C2.81843992,24.6192116 2.56301023,24.3272974 2.56301023,23.9557702 C2.56301023,23.5908774 2.81843992,23.2923287 3.13063175,23.2923287 L15.1755603,23.2923287 C15.4877521,23.2923287 15.7431818,23.5908774 15.7431818,23.9557702 C15.7431818,24.3272974 15.4877521,24.6192116 15.1755603,24.6192116 L15.1755603,24.6192116 Z M23.8658457,24.6192116 L18.518851,24.6192116 C18.2066592,24.6192116 17.9512295,24.3272974 17.9512295,23.9557702 C17.9512295,23.5908774 18.2066592,23.2923287 18.518851,23.2923287 L23.8658457,23.2923287 C24.1780375,23.2923287 24.4334672,23.5908774 24.4334672,23.9557702 C24.4334672,24.3272974 24.1780375,24.6192116 23.8658457,24.6192116 Z" id="Shape" fill="#D0E8F9"></path>
                    <path d="M23.6384895,19.1106599 C23.6384895,19.5015228 23.3918246,19.8213198 23.0778874,19.8213198 L4.58922917,19.8213198 C4.280898,19.8213198 4.02862704,19.5015228 4.02862704,19.1106599 C4.02862704,18.719797 4.280898,18.4 4.58922917,18.4 L23.0778874,18.4 C23.3918246,18.4 23.6384895,18.719797 23.6384895,19.1106599 Z M15.7171814,23.2893401 C15.7171814,23.6873096 15.4649105,24 15.1565793,24 L3.26060213,24 C2.95227096,24 2.7,23.6873096 2.7,23.2893401 C2.7,22.8984772 2.95227096,22.5786802 3.26060213,22.5786802 L15.1565793,22.5786802 C15.4649105,22.5786802 15.7171814,22.8984772 15.7171814,23.2893401 Z M24.3,23.2893401 C24.3,23.6873096 24.047729,24 23.7393979,24 L18.4585258,24 C18.1501947,24 17.8979237,23.6873096 17.8979237,23.2893401 C17.8979237,22.8984772 18.1501947,22.5786802 18.4585258,22.5786802 L23.7393979,22.5786802 C24.047729,22.5786802 24.3,22.8984772 24.3,23.2893401 Z" id="Shape" fill="#1576ED"></path>
                </g>
            </g>
            <g id="git-copy-8" transform="translate(18.000000, 3.000000)">
                <path d="M26.5525304,6.25555938 C25.5431802,6.25555938 24.7916071,6.72929983 24.7916071,7.86959028 C24.7916071,8.72859733 25.2868783,9.32500272 26.4983198,9.32500272 C27.5250026,9.32500272 28.2227339,8.74657409 28.2227339,7.83398924 C28.2227339,6.79979692 27.5983898,6.25555938 26.5525304,6.25555938 L26.5525304,6.25555938 Z M24.5349364,14.3063272 C24.2959671,14.5865531 24.0577354,14.8844033 24.0577354,15.2358313 C24.0577354,15.9369249 24.9929608,16.1477112 26.2781583,16.1477112 C27.3420879,16.1477112 28.7917611,16.0765091 28.7917611,15.1307907 C28.7917611,14.5685764 28.0940298,14.5340328 27.2130149,14.48116 L24.5349364,14.3063272 Z M29.9652182,6.30843219 C30.2952761,6.71202804 30.6445106,7.27318489 30.6445106,8.08002409 C30.6445106,10.0264488 29.048063,11.1663867 26.7365515,11.1663867 C26.1487166,11.1663867 25.6165674,11.0965946 25.2865095,11.0088257 L24.6809732,11.9383299 L26.4787745,12.0430181 C29.6532306,12.2365326 31.524419,12.3243015 31.524419,14.6559927 C31.524419,16.673267 29.6716696,17.8125 26.4787745,17.8125 C23.157544,17.8125 21.8918919,17.0056608 21.8918919,15.6207454 C21.8918919,14.831178 22.2591965,14.4113678 22.9012421,13.8315293 C22.2953369,13.5869044 22.0939832,13.1487649 22.0939832,12.6750245 C22.0939832,12.2890529 22.2957057,11.9383299 22.6261324,11.6048786 C22.956559,11.2721324 23.3234949,10.9383287 23.7634491,10.5527096 C22.8643641,10.1318419 22.1858094,9.21996206 22.1858094,7.92175812 C22.1858094,5.90518883 23.5801656,4.52027348 26.3873171,4.52027348 C27.1765058,4.52027348 27.6540755,4.58971311 28.0755908,4.69581124 L31.6538607,4.69581124 L31.6538607,6.18611974 L29.9652182,6.30843219 L29.9652182,6.30843219 Z M34.8817899,3.12196368 C33.8355618,3.12196368 33.2300254,2.54283007 33.2300254,1.54282884 C33.2300254,0.544237543 33.8355618,0 34.8817899,0 C35.9460883,0 36.551256,0.543885058 36.551256,1.54282884 C36.5516246,2.54283007 35.9460883,3.12196368 34.8817899,3.12196368 Z M32.5142239,13.6612788 L32.5142239,12.2763634 L33.4505557,12.1536985 C33.7072264,12.11845 33.7437356,12.0659296 33.7437356,11.8022705 L33.7437356,6.64646575 C33.7437356,6.45400869 33.6891562,6.33063878 33.5051351,6.27847093 L32.5142239,5.94501969 L32.7159464,4.52520828 L36.5147467,4.52520828 L36.5147467,11.802623 C36.5147467,12.0839064 36.5324481,12.11845 36.8082953,12.154051 L37.7442584,12.2767159 L37.7442584,13.6616313 L32.5142239,13.6616313 L32.5142239,13.6612788 Z M45,12.9809819 C44.2104425,13.3486242 43.0550556,13.6824279 42.0084586,13.6824279 C39.8252825,13.6824279 38.9999534,12.8413976 38.9999534,10.8586669 L38.9999534,6.26401903 C38.9999534,6.15933085 38.9999534,6.08883376 38.8528103,6.08883376 L37.5687192,6.08883376 L37.5687192,4.52802816 C39.1839745,4.35213792 39.8256513,3.58054726 40.0273738,1.66901863 L41.7709645,1.66901863 L41.7709645,4.16003334 C41.7709645,4.2823458 41.7709645,4.3355711 41.9177388,4.3355711 L44.5047288,4.3355711 L44.5047288,6.08918624 L41.7709645,6.08918624 L41.7709645,10.2802383 C41.7709645,11.3147831 42.028004,11.7180265 43.0185464,11.7180265 C43.5329941,11.7180265 44.0644058,11.595714 44.5047288,11.4378005 L45,12.9809819 L45,12.9809819 Z" id="Shape" fill="#31251C" fill-rule="nonzero"></path>
                <path d="M19.0922382,8.65361879 L10.5960097,0.358280713 C10.1071282,-0.119426904 9.3134896,-0.119426904 8.82423472,0.358280713 L7.05992931,2.08094544 L9.29743009,4.26600196 C9.81805704,4.09461068 10.4141264,4.2094793 10.8286858,4.61461912 C11.2454862,5.02194691 11.3623845,5.60905322 11.1823686,6.11885112 L13.3391983,8.22477592 C13.8605722,8.04937336 14.4629906,8.16278333 14.879791,8.57011113 C15.4624151,9.13861966 15.4624151,10.0601213 14.879791,10.6289945 C14.2967934,11.1978677 13.3533904,11.1978677 12.7707663,10.6289945 C12.3326778,10.2008809 12.2243694,9.5725678 12.4462148,9.04563077 L10.4346676,7.0815596 L10.4342941,12.2502831 C10.5765889,12.3188396 10.7102936,12.4100052 10.8286858,12.5252385 C11.41131,13.093747 11.41131,14.014884 10.8286858,14.5844865 C10.2460617,15.152995 9.30191181,15.152995 8.72003463,14.5844865 C8.13741049,14.014884 8.13741049,13.093747 8.72003463,12.5252385 C8.86419676,12.3848435 9.03039403,12.2787268 9.20816908,12.2076176 L9.20816908,6.99112335 C9.03039403,6.92037886 8.86419676,6.8146268 8.72003463,6.67350249 C8.2785848,6.24283631 8.17251733,5.61087653 8.3988444,5.08175153 L6.19308917,2.92732664 L0.367221271,8.61532925 C-0.12240709,9.09340153 -0.12240709,9.86830893 0.367221271,10.3463812 L8.8634498,18.6417193 C9.35270469,19.1194269 10.1459699,19.1194269 10.6359717,18.6417193 L19.0922382,10.3843061 C19.5818665,9.90659847 19.5818665,9.13132641 19.0922382,8.65361879 L19.0922382,8.65361879 Z" id="Path" fill="#F34F29" fill-rule="nonzero"></path>
                <polygon id="Path" points="6.40308056e-16 0 45 0 45 19 0 19"></polygon>
            </g>
        </g>
        <path id="Line-18" d="M371.5,323 L376,332 L372,332 L372,366 L376,366 L371.5,375 L367,366 L371,366 L371,332 L367,332 L371.5,323 Z" fill="#0055C2" fill-rule="nonzero"></path>
        <text id="Ready-for-a-Project" font-family="Helvetica-Bold, Helvetica" font-size="18" font-weight="bold" fill="#0055C2">
            <tspan x="303.97168" y="214">Ready for a Project </tspan>
            <tspan x="311.512695" y="236">with Git &amp; GitHub</tspan>
        </text>
        <text id="Regular-Work-Flow" font-family="Helvetica-Bold, Helvetica" font-size="18" font-weight="bold" fill="#0055C2">
            <tspan x="562.652832" y="67">Regular Work Flow</tspan>
        </text>
        <text id="Step-1" font-family="Helvetica-Bold, Helvetica" font-size="18" font-weight="bold" fill="#0055C2">
            <tspan x="25" y="90">Step 1</tspan>
        </text>
        <text id="Step-3" font-family="Helvetica-Bold, Helvetica" font-size="18" font-weight="bold" fill="#0055C2">
            <tspan x="537" y="90">Step 3</tspan>
        </text>
        <text id="Step-4" font-family="Helvetica-Bold, Helvetica" font-size="18" font-weight="bold" fill="#0055C2">
            <tspan x="537" y="253">Step 4</tspan>
        </text>
        <text id="Step-5" font-family="Helvetica-Bold, Helvetica" font-size="18" font-weight="bold" fill="#0055C2">
            <tspan x="537" y="414">Step 5</tspan>
        </text>
        <text id="Step-2" font-family="Helvetica-Bold, Helvetica" font-size="18" font-weight="bold" fill="#0055C2">
            <tspan x="25" y="253">Step 2</tspan>
        </text>
        <g id="Rectangle-Copy-21">
            <use fill="black" fill-opacity="1" filter="url(#filter-7)" xlink:href="#path-6"></use>
            <use fill-opacity="0.5" fill="#C5DDFF" fill-rule="evenodd" xlink:href="#path-6"></use>
        </g>
        <g id="Rectangle-Copy-22">
            <use fill="black" fill-opacity="1" filter="url(#filter-9)" xlink:href="#path-8"></use>
            <use fill-opacity="0.5" fill="#C5DDFF" fill-rule="evenodd" xlink:href="#path-8"></use>
        </g>
        <g id="Rectangle-Copy-23">
            <use fill="black" fill-opacity="1" filter="url(#filter-11)" xlink:href="#path-10"></use>
            <use fill-opacity="0.5" fill="#C5DDFF" fill-rule="evenodd" xlink:href="#path-10"></use>
        </g>
        <g id="Group-10" transform="translate(25.000000, 98.000000)">
            <g id="Rectangle-Copy-24">
                <use fill="black" fill-opacity="1" filter="url(#filter-13)" xlink:href="#path-12"></use>
                <use fill-opacity="0.5" fill="#C5DDFF" fill-rule="evenodd" xlink:href="#path-12"></use>
            </g>
            <text id="Initial-Settings" font-family="Helvetica-Bold, Helvetica" font-size="18" font-weight="bold" fill="#0055C2">
                <tspan x="45.4941406" y="23">Initial Settings</tspan>
            </text>
            <g id="Group-8" transform="translate(76.000000, 43.000000)">
                <circle id="Oval" fill="#0055C2" fill-rule="nonzero" cx="31.5" cy="31.5" r="31.5"></circle>
                <circle id="Oval" stroke="#FFFFFF" fill="#FFFFFF" fill-rule="nonzero" stroke-linecap="round" stroke-linejoin="round" cx="26" cy="22" r="8"></circle>
                <path d="M36,45 L36,39.6098907 C35.9876484,35.4123644 32.5236308,32.0125023 28.2465107,32 L22.7534893,32 C18.4763692,32.0125023 15.0123516,35.4123644 15,39.6098907 L15,45 L36,45" id="Path" stroke="#FFFFFF" fill="#FFFFFF" fill-rule="nonzero" stroke-linecap="round" stroke-linejoin="round"></path>
                <line x1="39" y1="40.5" x2="51" y2="40.5" id="Path" stroke="#FFFFFF" stroke-width="3" stroke-linecap="round" stroke-linejoin="round"></line>
                <polyline id="Path" stroke="#FFFFFF" stroke-width="3" stroke-linecap="round" stroke-linejoin="round" points="44.5 34 44.5 40 44.5 46"></polyline>
            </g>
        </g>
        <g id="Group-11" transform="translate(25.000000, 260.000000)">
            <g id="Rectangle-Copy-25">
                <use fill="black" fill-opacity="1" filter="url(#filter-15)" xlink:href="#path-14"></use>
                <use fill-opacity="0.5" fill="#C5DDFF" fill-rule="evenodd" xlink:href="#path-14"></use>
            </g>
            <g id="Group-9" transform="translate(78.015028, 47.590050)" fill-rule="nonzero">
                <path d="M27.9259719,12.2669502 C27.9259719,12.2669502 24.8259719,17.5359502 23.5419719,20.1419502 C22.0619719,23.1329502 20.6839719,25.9329502 19.7499719,28.4049502 L9.78497188,27.6439502 C10.7589719,24.5739502 15.3989719,17.2409502 27.9259719,12.2669502 Z M46.6549719,30.4219502 C46.6549719,30.4219502 41.1899719,33.5639502 38.5289719,34.8219502 C35.4759719,36.2719502 32.6269719,37.5479502 30.1019719,38.4619502 L30.8689719,48.2969502 C34.0039719,47.3429502 41.5759719,42.6929502 46.6549719,30.4219502 Z" id="Shape" fill="#006AE1"></path>
                <path d="M58.8439719,0.151950224 C59.0959719,3.70995022 59.2209719,10.0859502 57.2819719,16.3539502 L42.3059719,1.68595022 C48.7099719,-0.236049776 55.2329719,-0.120049776 58.8439719,0.151950224 Z" id="Path" fill="#0093FD"></path>
                <path d="M42.3059719,1.68595022 L57.2809719,16.3549502 C56.0569719,20.3099502 54.0139719,24.2219502 50.6559719,27.3559502 C46.9529719,30.8219502 41.5629719,33.3609502 36.8319719,35.5779502 C31.4009719,38.1569502 26.5869719,39.8099502 23.1719719,40.8169502 L17.3709719,35.1339502 C18.3999719,31.7889502 20.0869719,27.0739502 22.7199719,21.7539502 C25.0239719,17.0789502 27.6159719,11.8799502 31.1129719,8.21295022 C34.2919719,4.91195022 38.2749719,2.89595022 42.3059719,1.68595022 Z" id="Path" fill="#0055C2"></path>
                <path d="M43.7439719,21.0689502 C42.0169719,22.7609502 39.2169719,22.7609502 37.4899719,21.0689502 C35.7629719,19.3769502 35.7629719,16.6349502 37.4899719,14.9429502 C39.2169719,13.2509502 42.0169719,13.2509502 43.7439719,14.9429502 C45.4709719,16.6349502 45.4709719,19.3769502 43.7439719,21.0689502 Z" id="Path" fill="#FFFFFF"></path>
                <path d="M3.50397188,57.9649502 C1.77597188,57.9649502 0.870971877,55.8169502 2.06297188,54.5779502 L13.8499719,42.3269502 C14.6149719,41.5309502 15.8799719,41.5059502 16.6779719,42.2719502 C17.4739719,43.0379502 17.4979719,44.3039502 16.7329719,45.0999502 L4.94497188,57.3509502 C4.55197188,57.7599502 4.02797188,57.9649502 3.50397188,57.9649502 Z M12.7969719,59.4819502 C11.1089719,59.4819502 10.1859719,57.4159502 11.2999719,56.1569502 L18.9399719,47.5249502 C19.6719719,46.6969502 20.9359719,46.6199502 21.7629719,47.3519502 C22.5899719,48.0839502 22.6669719,49.3479502 21.9349719,50.1749502 L14.2949719,58.8069502 C13.9009719,59.2549502 13.3499719,59.4819502 12.7969719,59.4819502 Z M1.98397188,49.2089502 C0.295971877,49.2089502 -0.627028123,47.1429502 0.486971877,45.8839502 L8.12697188,37.2519502 C8.85897188,36.4239502 10.1229719,36.3469502 10.9499719,37.0789502 C11.7769719,37.8109502 11.8539719,39.0749502 11.1219719,39.9019502 L3.48197188,48.5339502 C3.08797188,48.9809502 2.53697188,49.2089502 1.98397188,49.2089502 Z" id="Shape" fill="#7BB2FF"></path>
            </g>
            <text id="Launch-a-Project" font-family="Helvetica-Bold, Helvetica" font-size="18" font-weight="bold" fill="#0055C2">
                <tspan x="34.4814453" y="23">Launch a Project</tspan>
            </text>
        </g>
        <text id="Edit-&amp;-Commit-Copy-2" font-family="Helvetica-Bold, Helvetica" font-size="18" font-weight="bold" fill="#0055C2">
            <tspan x="582.501953" y="126">Edit &amp; Commit</tspan>
        </text>
        <text id="Work-with-Branches-Copy" font-family="Helvetica-Bold, Helvetica" font-size="18" font-weight="bold" fill="#0055C2">
            <tspan x="558.143066" y="285">Work with Branches</tspan>
        </text>
        <text id="Remote-Collaboration-Copy" font-family="Helvetica-Bold, Helvetica" font-size="18" font-weight="bold" fill="#0055C2">
            <tspan x="550.993164" y="448">Remote Collaboration</tspan>
        </text>
        <g id="Group-7" transform="translate(614.000000, 461.000000)">
            <g id="Group-Copy-5" transform="translate(30.000000, 0.000000)" fill-rule="nonzero">
                <path d="M24.8668868,3.94211036 C23.9318302,1.34811229 18.1869961,0 12.5062069,0 C6.82541768,0 1.1446285,1.33533398 0.158335897,3.90377541 C0.0579562615,4.05542551 0.00450231459,4.23317857 0.00462795919,4.41490803 L0.00462795919,28.0100678 C-0.00154265306,28.0609957 -0.00154265306,28.1124796 0.00462795919,28.1634076 C0.00152734424,28.2080782 0.00152734424,28.2529092 0.00462795919,28.2975799 C0.00462795919,31.3835431 6.2938444,33 12.5062069,33 C18.7185693,33 24.9949768,31.3835431 24.9949768,28.2975799 C24.9980748,28.2550415 24.9980748,28.212335 24.9949768,28.1697967 C25.0016744,28.1167633 25.0016744,28.0631011 24.9949768,28.0100678 L24.9949768,4.41490803 C24.9982466,4.24836036 24.9538103,4.08433984 24.8668868,3.94211036 Z" id="Path" fill="url(#linearGradient-16)"></path>
                <path d="M12.4988305,0 C20.5941448,0 24.9939368,2.30663616 24.9939368,3.49199085 C25.0020211,3.52887791 25.0020211,3.56723193 24.9939368,3.60411899 C24.728889,4.8215103 20.3215243,7 12.4988305,7 C4.67613678,7 0.26877204,4.79748284 0.0037243321,3.60411899 C-0.00124144403,3.57498691 -0.00124144403,3.54515039 0.0037243321,3.51601831 C0.0037243321,2.30663616 4.40351628,0 12.4988305,0 Z" id="Path" fill="#199ABD"></path>
            </g>
            <polyline id="Path-11-Copy" stroke="#FFAA1D" points="24 49 28.5694849 33.5036664 28.5694849 41.2518332 32.4534669 29.6123501 32.4534669 39.3061751 36 24"></polyline>
            <g id="Group-Copy-2" transform="translate(0.000000, 40.000000)" fill-rule="nonzero">
                <path d="M24.8668868,3.94211036 C23.9318302,1.34811229 18.1869961,0 12.5062069,0 C6.82541768,0 1.1446285,1.33533398 0.158335897,3.90377541 C0.0579562615,4.05542551 0.00450231459,4.23317857 0.00462795919,4.41490803 L0.00462795919,28.0100678 C-0.00154265306,28.0609957 -0.00154265306,28.1124796 0.00462795919,28.1634076 C0.00152734424,28.2080782 0.00152734424,28.2529092 0.00462795919,28.2975799 C0.00462795919,31.3835431 6.2938444,33 12.5062069,33 C18.7185693,33 24.9949768,31.3835431 24.9949768,28.2975799 C24.9980748,28.2550415 24.9980748,28.212335 24.9949768,28.1697967 C25.0016744,28.1167633 25.0016744,28.0631011 24.9949768,28.0100678 L24.9949768,4.41490803 C24.9982466,4.24836036 24.9538103,4.08433984 24.8668868,3.94211036 Z" id="Path" fill="url(#linearGradient-17)"></path>
                <path d="M12.4988305,0 C20.5941448,0 24.9939368,2.30663616 24.9939368,3.49199085 C25.0020211,3.52887791 25.0020211,3.56723193 24.9939368,3.60411899 C24.728889,4.8215103 20.3215243,7 12.4988305,7 C4.67613678,7 0.26877204,4.79748284 0.0037243321,3.60411899 C-0.00124144403,3.57498691 -0.00124144403,3.54515039 0.0037243321,3.51601831 C0.0037243321,2.30663616 4.40351628,0 12.4988305,0 Z" id="Path" fill="#0055C2"></path>
            </g>
        </g>
        <g id="Group-2-Copy" transform="translate(596.000000, 313.000000)" stroke="#1576ED" stroke-width="2">
            <circle id="Oval" fill="#7BB2FF" cx="6.5" cy="26.5" r="5.5"></circle>
            <circle id="Oval-Copy" fill="#7BB2FF" cx="31.5" cy="47.5" r="5.5"></circle>
            <circle id="Oval-Copy-4" fill="#7BB2FF" cx="71.5" cy="6.5" r="5.5"></circle>
            <circle id="Oval-Copy-3" fill="#7BB2FF" cx="45.5" cy="26.5" r="5.5"></circle>
            <line x1="7" y1="33.4444444" x2="7" y2="48.5555556" id="Line-6" stroke-linecap="square"></line>
            <line x1="45" y1="6.44444444" x2="45" y2="21.5555556" id="Line-6-Copy" stroke-linecap="square"></line>
            <line x1="7.43478261" y1="47" x2="26.5652174" y2="47" id="Line" stroke-linecap="round"></line>
            <line x1="38.4411765" y1="47" x2="82.5588235" y2="47" id="Line-Copy-3" stroke-linecap="round"></line>
            <line x1="52" y1="25" x2="97" y2="25" id="Line-Copy-4" stroke-linecap="round"></line>
            <line x1="45.4347826" y1="5" x2="64.5652174" y2="5" id="Line-Copy-2" stroke-linecap="round"></line>
            <line x1="13.4354839" y1="27" x2="39.5645161" y2="27" id="Line-Copy" stroke-linecap="round"></line>
        </g>
        <g id="Group-2" transform="translate(614.000000, 149.000000)">
            <g id="documents-copy-5" transform="translate(0.000000, 5.000000)" fill-rule="nonzero">
                <path d="M33,11 L33,41 L7,41 L7,37.5714286 C7.00850558,37.5612286 29.1226171,11.0135429 29.133829,11 L33,11 Z" id="Path" fill="#A4C2F7"></path>
                <path d="M29,37 C28.1136,37 0.5446,37 0,37 C0,34.7689429 0,2.48954286 0,1 L21,1 L23.1667,5.77145714 L29,7.85714286 C29,9.14037143 29,35.5422571 29,37 Z" id="Path" fill="#FFFFFF"></path>
                <polygon id="Path" fill="#A4C2F7" points="29 8 21 8 21 1"></polygon>
                <path d="M30,37 L1,37 C0.4477,37 0,36.6234409 0,36.1590909 L0,0.840909091 C0,0.376475 0.4477,0 1,0 L22,0 C22.2652,0 22.5195,0.0886318182 22.7071,0.246302273 L30.7071,6.973575 C30.8946,7.13124545 31,7.34517273 31,7.56818182 L31,36.1590909 C31,36.6234409 30.5522,37 30,37 Z M2,35.3181818 L29,35.3181818 L29,7.91648636 L21.5857,1.68181818 L2,1.68181818 L2,35.3181818 Z" id="Shape" fill="#418CFE"></path>
                <path d="M29.1557093,8.54166667 L21.4048443,8.54166667 C20.8698408,8.54166667 20.4359862,8.15925625 20.4359862,7.6875 L20.4359862,0.854166667 C20.4359862,0.382410417 20.8698408,0 21.4048443,0 C21.9398478,0 22.3737024,0.382410417 22.3737024,0.854166667 L22.3737024,6.83333333 L29.1557093,6.83333333 C29.6907128,6.83333333 30.1245675,7.21574375 30.1245675,7.6875 C30.1245675,8.15925625 29.6907128,8.54166667 29.1557093,8.54166667 Z M33.0311419,41 L6.96885813,41 C6.43375779,41 6,40.6175042 6,40.1458333 L6,36.7291667 C6,36.2574958 6.43375779,35.875 6.96885813,35.875 C7.50395848,35.875 7.93771626,36.2574958 7.93771626,36.7291667 L7.93771626,39.2916667 L32.0622837,39.2916667 L32.0622837,11.1041667 L29.1557093,11.1041667 C28.6207059,11.1041667 28.1868512,10.7217563 28.1868512,10.25 C28.1868512,9.77824375 28.6207059,9.39583333 29.1557093,9.39583333 L33.0311419,9.39583333 C33.5661453,9.39583333 34,9.77824375 34,10.25 L34,40.1458333 C34,40.6175042 33.5661453,41 33.0311419,41 Z" id="Shape" fill="#418CFE"></path>
                <path d="M25,32 L4,32 C3.4477,32 3,31.6132636 3,31.1363636 C3,30.6594636 3.4477,30.2727273 4,30.2727273 L25,30.2727273 C25.5522,30.2727273 26,30.6594636 26,31.1363636 C26,31.6132636 25.5522,32 25,32 Z M25,28.5454545 L4,28.5454545 C3.4477,28.5454545 3,28.1587182 3,27.6818182 C3,27.2049182 3.4477,26.8181818 4,26.8181818 L25,26.8181818 C25.5522,26.8181818 26,27.2049182 26,27.6818182 C26,28.1587182 25.5522,28.5454545 25,28.5454545 Z M25,25.0909091 L4,25.0909091 C3.4477,25.0909091 3,24.7041727 3,24.2272727 C3,23.7503727 3.4477,23.3636364 4,23.3636364 L25,23.3636364 C25.5522,23.3636364 26,23.7503727 26,24.2272727 C26,24.7041727 25.5522,25.0909091 25,25.0909091 Z M25,21.6363636 L4,21.6363636 C3.4477,21.6363636 3,21.2497136 3,20.7727273 C3,20.2957409 3.4477,19.9090909 4,19.9090909 L25,19.9090909 C25.5522,19.9090909 26,20.2957409 26,20.7727273 C26,21.2497136 25.5522,21.6363636 25,21.6363636 Z M25,18.1818182 L4,18.1818182 C3.4477,18.1818182 3,17.7951682 3,17.3181818 C3,16.8411955 3.4477,16.4545455 4,16.4545455 L25,16.4545455 C25.5522,16.4545455 26,16.8411955 26,17.3181818 C26,17.7951682 25.5522,18.1818182 25,18.1818182 Z M13,14.7272727 L4,14.7272727 C3.4477,14.7272727 3,14.3406227 3,13.8636364 C3,13.38665 3.4477,13 4,13 L13,13 C13.5523,13 14,13.38665 14,13.8636364 C14,14.3406227 13.5523,14.7272727 13,14.7272727 Z" id="Shape" fill="#418CFE"></path>
            </g>
            <g id="Group" transform="translate(10.000000, 26.000000)">
                <rect id="Rectangle-Copy-2" fill="#DE4040" x="0" y="0" width="50" height="14" rx="2"></rect>
                <text id="Commit" font-family="Helvetica" font-size="12" font-weight="normal" fill="#FFFFFF">
                    <tspan x="4.91044776" y="11">Commit</tspan>
                </text>
            </g>
            <g id="edit-(3)-copy" transform="translate(21.000000, 0.000000)" fill-rule="nonzero">
                <path d="M11.8933077,4.30963188 L1.158482,15.0448723 C1.06350756,15.1398504 0.999739001,15.2606083 0.972603446,15.390864 L0.0133615676,20.1886155 C-0.0314120986,20.4111357 0.0377835673,20.6417968 0.199240121,20.8019028 C0.328134008,20.9308017 0.501801562,21 0.679539449,21 L0.81250367,20.9864317 L5.60871306,20.0271528 C5.74167728,20.001373 5.86107372,19.9362451 5.95604817,19.841267 L16.6908738,9.10602659 L11.8933077,4.30963188 Z M20.0068387,0.992182074 C18.6839804,-0.330727358 16.5321308,-0.330727358 15.2106293,0.992182074 L13.3328489,2.87003505 L18.1290583,7.66642976 L20.0068387,5.78857678 C20.6472378,5.14950976 21,4.29742041 21,3.39105784 C21,2.48469528 20.6472378,1.63260592 20.0068387,0.992182074 Z" id="Shape" fill="#42A5F5"></path>
                <path d="M14.227839,6.71312309 L0,20.8019668 C0.130128498,20.930824 0.305459526,21 0.484899876,21 L0.619137695,20.9864361 L5.46128759,20.0274669 C5.59552541,20.0016955 5.71606549,19.9365887 5.81194964,19.8416412 L16.6495989,9.10986775 L14.227839,6.71312309 Z M19.9973257,1 L15.6811689,5.27399118 L18.1029287,7.67209223 L19.9986955,5.79484571 C20.6438588,5.15598508 21,4.30417091 21,3.39810105 C21,2.4920312 20.6438588,1.64021702 19.9973257,1 L19.9973257,1 Z" id="Shape" fill="#1576ED"></path>
            </g>
        </g>
        <path id="Line-24" d="M133.5,225.5 L133.5,250.5 L139.5,250.5 L132.5,264.5 L125.5,250.5 L131.5,250.5 L131.5,225.5 L133.5,225.5 Z" fill="#0055C2" fill-rule="nonzero"></path>
        <path id="Line-24-Copy-4" d="M505.5,304.5 L505.5,329.5 L511.5,329.5 L504.5,343.5 L497.5,329.5 L503.5,329.5 L503.5,304.5 L505.5,304.5 Z" transform="translate(504.500000, 324.500000) rotate(-90.000000) translate(-504.500000, -324.500000) " fill="#0055C2" fill-rule="nonzero"></path>
        <path id="Line-24-Copy-5" d="M261.5,304.5 L261.5,329.5 L267.5,329.5 L260.5,343.5 L253.5,329.5 L259.5,329.5 L259.5,304.5 L261.5,304.5 Z" transform="translate(260.500000, 324.500000) rotate(-90.000000) translate(-260.500000, -324.500000) " fill="#0055C2" fill-rule="nonzero"></path>
        <g id="Group-6" transform="translate(626.000000, 225.000000)" fill="#0055C2" fill-rule="nonzero">
            <path id="Line-24-Copy-2" d="M1.5,-0.551282051 L1.5,20.551 L7.5,20.5512821 L0.5,34.5512821 L-6.5,20.5512821 L-0.5,20.551 L-0.5,-0.551282051 L1.5,-0.551282051 Z"></path>
            <path id="Line-24-Copy-3" d="M35.5,0 L42.5,14 L36.5,14 L36.5,35 L34.5,35 L34.5,14 L28.5,14 L35.5,0 Z"></path>
        </g>
        <g id="Group-6-Copy" transform="translate(626.000000, 386.861386)" fill="#0055C2" fill-rule="nonzero">
            <path id="Line-24-Copy-2" d="M1.5,-0.41266819 L1.5,20.689 L7.5,20.6898959 L0.5,34.6898959 L-6.5,20.6898959 L-0.5,20.689 L-0.5,-0.41266819 L1.5,-0.41266819 Z"></path>
            <path id="Line-24-Copy-3" d="M35.5,1.13861386 L42.5,15.1386139 L36.5,15.138 L36.5,36.1386139 L34.5,36.1386139 L34.5,15.138 L28.5,15.1386139 L35.5,1.13861386 Z"></path>
        </g>
        <use id="Rectangle" stroke="#0055C2" mask="url(#mask-19)" stroke-width="2" stroke-dasharray="13" xlink:href="#path-18"></use>
        <rect id="Rectangle-Copy" stroke="#0055C2" x="523.5" y="72.5" width="245" height="491" rx="5"></rect>
        <g id="git" transform="translate(661.000000, 9.000000)">
            <path d="M46.8658496,11.2380575 C45.1623498,11.2380575 43.8939053,12.0891281 43.8939053,14.1376499 C43.8939053,15.6808485 44.7297841,16.7522856 46.7743573,16.7522856 C48.5071097,16.7522856 49.6846843,15.7131436 49.6846843,14.073693 C49.6846843,12.2157755 48.6309666,11.2380575 46.8658496,11.2380575 L46.8658496,11.2380575 Z M43.4607172,25.7011913 C43.0574041,26.2046147 42.6553359,26.7397 42.6553359,27.3710373 C42.6553359,28.6305458 44.2337339,29.0092215 46.4027864,29.0092215 C48.1984009,29.0092215 50.6450424,28.8813076 50.6450424,27.1823327 C50.6450424,26.1723196 49.4674678,26.1102624 47.9805621,26.0152768 L43.4607172,25.7011913 Z M52.6255087,11.3330431 C53.1825537,12.0580995 53.7719634,13.0662128 53.7719634,14.5156924 C53.7719634,18.0124273 51.0776081,20.0603158 47.1764255,20.0603158 C46.1843252,20.0603158 45.2862067,19.9349349 44.7291617,19.7772589 L43.7071863,21.4471049 L46.7413702,21.6351763 C52.0989611,21.9828234 55.257002,22.1404995 55.257002,26.3293624 C55.257002,29.9533779 52.1300809,32 46.7413702,32 C41.1360655,32 39,30.5505204 39,28.0625322 C39,26.6440812 39.6199071,25.8898959 40.7034998,24.848221 C39.680902,24.4087545 39.3410734,23.6216409 39.3410734,22.7705703 C39.3410734,22.0771758 39.6815244,21.4471049 40.2391918,20.8480627 C40.7968593,20.2502869 41.416144,19.6506115 42.1586633,18.9578502 C40.6412601,18.2017651 39.4960502,16.563581 39.4960502,14.231369 C39.4960502,10.6086199 41.8493321,8.12063165 46.5870158,8.12063165 C47.9189448,8.12063165 48.7249485,8.24537935 49.436348,8.43598369 L55.4754632,8.43598369 L55.4754632,11.1133099 L52.6255087,11.3330431 L52.6255087,11.3330431 Z M60.9233016,5.60858036 C59.1575621,5.60858036 58.1355867,4.56817192 58.1355867,2.77167847 C58.1355867,0.977717972 59.1575621,0 60.9233016,0 C62.7195385,0 63.7408917,0.977084735 63.7408917,2.77167847 C63.7415139,4.56817192 62.7195385,5.60858036 60.9233016,5.60858036 Z M56.9275147,24.5423675 L56.9275147,22.0543792 L58.50778,21.8340127 C58.9409681,21.770689 59.0025853,21.6763367 59.0025853,21.2026754 L59.0025853,11.9403174 C59.0025853,11.59457 58.9104706,11.372937 58.5998947,11.279218 L56.9275147,10.6801757 L57.2679657,8.12949697 L63.6792742,8.12949697 L63.6792742,21.2033087 C63.6792742,21.7086318 63.7091492,21.770689 64.174702,21.834646 L65.7543448,22.0550125 L65.7543448,24.5430008 L56.9275147,24.5430008 L56.9275147,24.5423675 Z M78,23.32022 C76.6674487,23.9806863 74.7174798,24.5803617 72.9511179,24.5803617 C69.2665294,24.5803617 67.8736056,23.0694582 67.8736056,19.5074999 L67.8736056,11.2532552 C67.8736056,11.0651838 67.8736056,10.9385364 67.6252693,10.9385364 L65.458084,10.9385364 L65.458084,8.13456287 C68.1841815,7.81857759 69.2671518,6.43242174 69.6076028,2.99837733 L72.5502944,2.99837733 L72.5502944,7.47346341 C72.5502944,7.69319666 72.5502944,7.78881545 72.7980083,7.78881545 L77.1641212,7.78881545 L77.1641212,10.9391697 L72.5502944,10.9391697 L72.5502944,18.4683579 C72.5502944,20.3269086 72.9841049,21.0513318 74.6558625,21.0513318 C75.5241059,21.0513318 76.4209796,20.8315985 77.1641212,20.5479083 L78,23.32022 L78,23.32022 Z" id="Shape" fill="#31251C" fill-rule="nonzero"></path>
            <path d="M32.3772539,15.0299695 L17.9690664,0.622277028 C17.140005,-0.207425676 15.7941261,-0.207425676 14.9644314,0.622277028 L11.9724635,3.61427365 L15.7668919,7.40937182 C16.6497884,7.11169223 17.6606226,7.31120089 18.3636464,8.01486479 C19.0704703,8.72232885 19.2687104,9.74203981 18.9634334,10.6274783 L22.6210571,14.2851371 C23.5052204,13.9804906 24.5268216,14.1774658 25.2336455,14.8849299 C26.221679,15.8723394 26.221679,17.4728423 25.2336455,18.4608852 C24.2449787,19.4489281 22.6451246,19.4489281 21.6570912,18.4608852 C20.914166,17.7173195 20.7304932,16.6260388 21.1067059,15.7108324 L17.6954571,12.2995509 L17.6948238,21.2768075 C17.9361319,21.3958793 18.1628729,21.5542195 18.3636464,21.7543616 C19.3516798,22.7417711 19.3516798,24.3416406 18.3636464,25.3309502 C17.375613,26.3183598 15.7744921,26.3183598 14.7877254,25.3309502 C13.799692,24.3416406 13.799692,22.7417711 14.7877254,21.7543616 C15.0322003,21.5105176 15.3140432,21.3262096 15.6155201,21.2027043 L15.6155201,12.1424774 C15.3140432,12.0196054 15.0322003,11.8359308 14.7877254,11.5908201 C14.0391001,10.842821 13.8592273,9.74520661 14.2430403,8.82620003 L10.5024471,5.08430417 L0.622746073,14.9634666 C-0.207582024,15.7938027 -0.207582024,17.1396945 0.622746073,17.9700305 L15.0309336,32.377723 C15.8606284,33.2074257 17.2058739,33.2074257 18.0368353,32.377723 L32.3772539,18.0359 C33.207582,17.2061973 33.207582,15.8596722 32.3772539,15.0299695 L32.3772539,15.0299695 Z" id="Path" fill="#F34F29" fill-rule="nonzero"></path>
            <polygon id="Path" points="1.12409637e-15 0 79 0 79 33 0 33"></polygon>
        </g>
        <g id="github-copy" transform="translate(748.000000, 3.000000)" fill="#000000" fill-rule="nonzero">
            <path d="M22.9998956,0 C11.7204239,0.000469179946 2.10590223,8.20619911 0.299077857,19.3745239 C-1.50774651,30.5428487 5.02642435,41.3773525 15.7268887,44.9558377 C16.8767785,45.1577383 17.3079872,44.4656891 17.3079872,43.8600567 C17.3079872,43.3121892 17.279217,41.4954764 17.279217,39.5634644 C11.5009978,40.6303861 10.0061411,38.1505528 9.54618516,36.8529173 C9.03580825,35.5908656 8.22674528,34.472458 7.1889111,33.5943411 C6.38398825,33.161796 5.23409847,32.0948512 7.16014086,32.066061 C8.65271236,32.2285228 9.97246422,33.1110528 10.6960749,34.4305721 C11.3313462,35.5753322 12.3946869,36.4194146 13.6513665,36.7764896 C14.9080461,37.1335647 16.2547288,36.9742705 17.3941369,36.3337708 C17.4936968,35.160991 18.0147545,34.0644705 18.8602924,33.2483742 C13.7432829,32.6716473 8.39629538,30.6818473 8.39629538,21.8580182 C8.36397821,19.5652878 9.20739391,17.3470389 10.7535694,15.6582042 C10.0504849,13.6655423 10.1327507,11.4787423 10.9835474,9.54489918 C10.9835474,9.54489918 12.9095438,8.93931288 17.3079412,11.9094794 C21.0710431,10.8713094 25.0437372,10.8713094 28.806839,11.9094794 C33.2051215,8.9104996 35.1312329,9.54489918 35.1312329,9.54489918 C35.982145,11.4787155 36.0644125,13.6655602 35.3612108,15.6582042 C36.9120423,17.3441484 37.7561944,19.564334 37.7184849,21.8580182 C37.7184849,30.7107067 32.3427041,32.6716473 27.2257406,33.2483742 C28.336287,34.3774629 28.9028084,35.9349635 28.7780918,37.5161532 C28.7780918,40.6016882 28.7493216,43.0815215 28.7493216,43.8601489 C28.7493216,44.4657352 29.1805302,45.1866208 30.33042,44.95593 C41.0111617,41.3485442 47.5153422,30.5121007 45.6961446,19.3555019 C43.876947,8.19890308 34.2698179,0.00588375885 22.9998956,0 Z" id="Path"></path>
        </g>
    </g>
</svg>