<?xml version="1.0" encoding="UTF-8"?>
<svg width="800px" height="600px" viewBox="0 0 800 600" version="1.1" xmlns="http://www.w3.org/2000/svg" xmlns:xlink="http://www.w3.org/1999/xlink">
    <title>2041-10-16-11-10_GitRegularWorkflow—WorkWithBranches</title>
    <defs>
        <rect id="path-1" x="242" y="58" width="328" height="248"></rect>
        <filter x="-1.5%" y="-2.0%" width="104.3%" height="105.6%" filterUnits="objectBoundingBox" id="filter-2">
            <feOffset dx="2" dy="2" in="SourceAlpha" result="shadowOffsetOuter1"></feOffset>
            <feGaussianBlur stdDeviation="2" in="shadowOffsetOuter1" result="shadowBlurOuter1"></feGaussianBlur>
            <feColorMatrix values="0 0 0 0 0   0 0 0 0 0   0 0 0 0 0  0 0 0 0.5 0" type="matrix" in="shadowBlurOuter1"></feColorMatrix>
        </filter>
        <path d="M8.68744595,14.5405413 C10.6544909,13.5649687 12,11.5915112 12,9.31636202 C12,6.07252388 9.26504479,3.44227578 5.89152197,3.44227578 C4.52034181,3.44227578 3.25480793,3.87689217 2.23537065,4.61058921 L2.23537065,1.05770107 C2.23537065,0.476155373 1.74046224,0 1.11695169,0 C0.493934821,0 0.0167986821,0.476630104 0.0167986821,1.05770107 L0.0167986821,1.80184219 L0,9.32158406 C-0.0041824725,11.2003327 0.951817666,12.865215 2.41753644,13.8939574 C2.4777647,13.9362085 2.55848043,13.9312238 2.6127846,13.8823265 C2.66758244,13.8334292 2.6779496,13.7558106 2.63746831,13.6950451 C0.724974359,10.8146136 1.16014819,5.53963813 5.89176881,5.53963813 C8.05899866,5.53963813 9.80709909,7.22944376 9.81623206,9.31351363 C9.82240299,10.8599505 9.11620201,12.0365717 8.19549958,12.7781018 C6.36026565,14.2561773 3.64974731,12.6382934 4.49738595,10.4697214 C4.5894562,10.2335427 4.71879884,9.9959397 4.88664808,9.76189723 L5.12361171,9.47705853 C5.19766284,9.39967734 5.25048599,9.29903433 5.2146946,9.19411874 C5.01401603,8.62800181 3.46832203,8.97526767 3.04005964,10.0315445 C3.34292878,9.79631524 3.65986763,9.66433998 3.96940137,9.71489885 C2.38890334,11.275815 3.44141679,13.9563846 5.46005069,14.7513219 C6.40494316,15.1232738 7.55964718,15.0976383 8.68744595,14.5405413" id="path-3"></path>
        <linearGradient x1="28.568518%" y1="104.445731%" x2="78.3472072%" y2="20.6880271%" id="linearGradient-5">
            <stop stop-color="#000F98" offset="0%"></stop>
            <stop stop-color="#00A5FD" offset="100%"></stop>
        </linearGradient>
        <rect id="path-6" x="69" y="321" width="328" height="248"></rect>
        <filter x="-1.5%" y="-2.0%" width="104.3%" height="105.6%" filterUnits="objectBoundingBox" id="filter-7">
            <feOffset dx="2" dy="2" in="SourceAlpha" result="shadowOffsetOuter1"></feOffset>
            <feGaussianBlur stdDeviation="2" in="shadowOffsetOuter1" result="shadowBlurOuter1"></feGaussianBlur>
            <feComposite in="shadowBlurOuter1" in2="SourceAlpha" operator="out" result="shadowBlurOuter1"></feComposite>
            <feColorMatrix values="0 0 0 0 0   0 0 0 0 0   0 0 0 0 0  0 0 0 0.5 0" type="matrix" in="shadowBlurOuter1"></feColorMatrix>
        </filter>
        <rect id="path-8" x="413" y="321" width="328" height="248"></rect>
        <filter x="-1.5%" y="-2.0%" width="104.3%" height="105.6%" filterUnits="objectBoundingBox" id="filter-9">
            <feOffset dx="2" dy="2" in="SourceAlpha" result="shadowOffsetOuter1"></feOffset>
            <feGaussianBlur stdDeviation="2" in="shadowOffsetOuter1" result="shadowBlurOuter1"></feGaussianBlur>
            <feColorMatrix values="0 0 0 0 0   0 0 0 0 0   0 0 0 0 0  0 0 0 0.5 0" type="matrix" in="shadowBlurOuter1"></feColorMatrix>
        </filter>
        <linearGradient x1="78.125%" y1="0%" x2="21.875%" y2="100%" id="linearGradient-10">
            <stop stop-color="#D0D8DC" offset="0.0491695804%"></stop>
            <stop stop-color="#676767" offset="100%"></stop>
        </linearGradient>
    </defs>
    <g id="2041-10-16-11-10_GitRegularWorkflow—WorkWithBranches" stroke="none" stroke-width="1" fill="none" fill-rule="evenodd">
        <rect fill="#FFFFFF" x="0" y="0" width="800" height="600"></rect>
        <g id="Rectangle-Copy-16">
            <use fill="black" fill-opacity="1" filter="url(#filter-2)" xlink:href="#path-1"></use>
            <use fill="#E6E6E6" fill-rule="evenodd" xlink:href="#path-1"></use>
        </g>
        <g id="bloovee-winner-logo" transform="translate(725.000000, 580.000000)">
            <path d="M13,13.7751507 C13,14.396312 13.4732558,14.8717809 14.0514961,14.8717809 C14.6474304,14.8717809 15.1204503,14.3968042 15.1204503,13.7751507 L15.1204503,2.09687626 C15.1204503,1.49368045 14.6474304,1 14.0514961,1 C13.4557977,1 13,1.49392656 13,2.09687626 L13,13.7751507 Z M21.7920364,15 C24.6483217,15 26.751078,12.7149437 26.751078,9.97312215 L26.751078,9.93645297 C26.751078,7.17641992 24.6657798,4.92778666 21.8269526,4.92778666 C18.9881254,4.92778666 16.885369,7.212843 16.885369,9.97312215 L16.885369,10.0095452 C16.885369,12.7516128 18.9706673,15 21.7920364,15 Z M21.8269526,13.0621935 C20.179994,13.0621935 19.0055834,11.6547366 19.0055834,9.97312215 L19.0055834,9.93645297 C19.0055834,8.25459244 20.0919958,6.86534709 21.7920364,6.86534709 C23.456689,6.86534709 24.6306277,8.27305008 24.6306277,9.97312215 L24.6306277,10.0095452 C24.6306277,11.6731942 23.5444513,13.0621935 21.8269526,13.0621935 Z M32.8092717,15 C35.665557,15 37.7683133,12.7149437 37.7683133,9.97312215 L37.7683133,9.93645297 C37.7683133,7.17641992 35.6830151,4.92778666 32.8441878,4.92778666 C30.0053606,4.92778666 27.9026043,7.212843 27.9026043,9.97312215 L27.9026043,10.0095452 C27.9026043,12.7516128 29.9879025,15 32.8092717,15 Z M32.8441878,13.0621935 C31.1969933,13.0621935 30.0228187,11.6547366 30.0228187,9.97312215 L30.0228187,9.93645297 C30.0228187,8.25459244 31.109231,6.86534709 32.8092717,6.86534709 C34.4739243,6.86534709 35.647863,8.27305008 35.647863,9.97312215 L35.647863,10.0095452 C35.647863,11.6731942 34.5614506,13.0621935 32.8441878,13.0621935 Z M44.1416963,13.9944275 L47.2261164,6.6096472 C47.2784906,6.49988574 47.3487948,6.28060893 47.3487948,6.07954366 C47.3487948,5.47610175 46.8929971,5.01933658 46.3147568,5.01933658 C45.7539746,5.01933658 45.4737015,5.40300947 45.3158709,5.78692847 L42.8976893,12.2215093 L40.5144239,5.82335156 C40.3393711,5.36634029 40.041404,5.01933658 39.4629278,5.01933658 C38.8846875,5.01933658 38.4116676,5.53098247 38.4116676,6.07954366 C38.4116676,6.28060893 38.4817358,6.46346265 38.534346,6.62785874 L41.6182943,13.9944275 C41.8638872,14.5796579 42.2491448,14.9633308 42.8273851,14.9633308 L42.9326055,14.9633308 C43.5108458,14.9633308 43.8965752,14.5612003 44.1416963,13.9944275 Z M50.0949054,9.27837643 C50.2876522,7.77961573 51.1987758,6.73762019 52.4956289,6.73762019 C53.8974665,6.73762019 54.7036056,7.8524619 54.8437422,9.27837643 L50.0949054,9.27837643 Z M56.070527,13.72027 C56.2281217,13.5558739 56.3508002,13.3181395 56.3508002,13.0439819 C56.3508002,12.5320899 55.9830006,12.1481709 55.5095089,12.1481709 C55.2641519,12.1481709 55.1242513,12.2215093 54.9664207,12.3492362 C54.3704864,12.8611282 53.6695676,13.1901665 52.7759021,13.1901665 C51.4089807,13.1901665 50.3402624,12.3128131 50.1123635,10.7409601 L55.9126964,10.7409601 C56.4560206,10.7409601 56.9115824,10.3021604 56.9115824,9.68050697 C56.9115824,7.45057746 55.4568987,4.92778666 52.513087,4.92778666 C49.8672425,4.92778666 47.9919132,7.19438536 47.9919132,9.95466451 L47.9919132,9.9913337 C47.9919132,12.9708897 50.0597533,15 52.7409859,15 C54.1779755,15 55.2292357,14.5063195 56.070527,13.72027 Z M60.1833231,9.27837643 C60.3763058,7.77961573 61.2871935,6.73762019 62.5842825,6.73762019 C63.9858841,6.73762019 64.7920233,7.8524619 64.9321598,9.27837643 L60.1833231,9.27837643 Z M66.1589447,13.72027 C66.3167752,13.5558739 66.4394537,13.3181395 66.4394537,13.0439819 C66.4394537,12.5320899 66.0714183,12.1481709 65.5981624,12.1481709 C65.3528055,12.1481709 65.2126689,12.2215093 65.0548383,12.3492362 C64.4591399,12.8611282 63.7582212,13.1901665 62.8643197,13.1901665 C61.4976342,13.1901665 60.4289159,12.3128131 60.2007812,10.7409601 L66.0011141,10.7409601 C66.5444382,10.7409601 67,10.3021604 67,9.68050697 C67,7.45057746 65.5455522,4.92778666 62.6015046,4.92778666 C59.9556601,4.92778666 58.0805667,7.19438536 58.0805667,9.95466451 L58.0805667,9.9913337 C58.0805667,12.9708897 60.1484069,15 62.8294035,15 C64.2663932,15 65.3178893,14.5063195 66.1589447,13.72027 L66.1589447,13.72027 Z" id="Fill-1" fill="#030060"></path>
            <g id="Group-4">
                <mask id="mask-4" fill="white">
                    <use xlink:href="#path-3"></use>
                </mask>
                <g id="Clip-3"></g>
                <path d="M8.68744595,14.5405413 C10.6544909,13.5649687 12,11.5915112 12,9.31636202 C12,6.07252388 9.26504479,3.44227578 5.89152197,3.44227578 C4.52034181,3.44227578 3.25480793,3.87689217 2.23537065,4.61058921 L2.23537065,1.05770107 C2.23537065,0.476155373 1.74046224,0 1.11695169,0 C0.493934821,0 0.0167986821,0.476630104 0.0167986821,1.05770107 L0.0167986821,1.80184219 L0,9.32158406 C-0.0041824725,11.2003327 0.951817666,12.865215 2.41753644,13.8939574 C2.4777647,13.9362085 2.55848043,13.9312238 2.6127846,13.8823265 C2.66758244,13.8334292 2.6779496,13.7558106 2.63746831,13.6950451 C0.724974359,10.8146136 1.16014819,5.53963813 5.89176881,5.53963813 C8.05899866,5.53963813 9.80709909,7.22944376 9.81623206,9.31351363 C9.82240299,10.8599505 9.11620201,12.0365717 8.19549958,12.7781018 C6.36026565,14.2561773 3.64974731,12.6382934 4.49738595,10.4697214 C4.5894562,10.2335427 4.71879884,9.9959397 4.88664808,9.76189723 L5.12361171,9.47705853 C5.19766284,9.39967734 5.25048599,9.29903433 5.2146946,9.19411874 C5.01401603,8.62800181 3.46832203,8.97526767 3.04005964,10.0315445 C3.34292878,9.79631524 3.65986763,9.66433998 3.96940137,9.71489885 C2.38890334,11.275815 3.44141679,13.9563846 5.46005069,14.7513219 C6.40494316,15.1232738 7.55964718,15.0976383 8.68744595,14.5405413" id="Fill-2" fill="url(#linearGradient-5)" mask="url(#mask-4)"></path>
            </g>
        </g>
        <g id="git" transform="translate(661.000000, 9.000000)">
            <path d="M46.8658496,11.2380575 C45.1623498,11.2380575 43.8939053,12.0891281 43.8939053,14.1376499 C43.8939053,15.6808485 44.7297841,16.7522856 46.7743573,16.7522856 C48.5071097,16.7522856 49.6846843,15.7131436 49.6846843,14.073693 C49.6846843,12.2157755 48.6309666,11.2380575 46.8658496,11.2380575 L46.8658496,11.2380575 Z M43.4607172,25.7011913 C43.0574041,26.2046147 42.6553359,26.7397 42.6553359,27.3710373 C42.6553359,28.6305458 44.2337339,29.0092215 46.4027864,29.0092215 C48.1984009,29.0092215 50.6450424,28.8813076 50.6450424,27.1823327 C50.6450424,26.1723196 49.4674678,26.1102624 47.9805621,26.0152768 L43.4607172,25.7011913 Z M52.6255087,11.3330431 C53.1825537,12.0580995 53.7719634,13.0662128 53.7719634,14.5156924 C53.7719634,18.0124273 51.0776081,20.0603158 47.1764255,20.0603158 C46.1843252,20.0603158 45.2862067,19.9349349 44.7291617,19.7772589 L43.7071863,21.4471049 L46.7413702,21.6351763 C52.0989611,21.9828234 55.257002,22.1404995 55.257002,26.3293624 C55.257002,29.9533779 52.1300809,32 46.7413702,32 C41.1360655,32 39,30.5505204 39,28.0625322 C39,26.6440812 39.6199071,25.8898959 40.7034998,24.848221 C39.680902,24.4087545 39.3410734,23.6216409 39.3410734,22.7705703 C39.3410734,22.0771758 39.6815244,21.4471049 40.2391918,20.8480627 C40.7968593,20.2502869 41.416144,19.6506115 42.1586633,18.9578502 C40.6412601,18.2017651 39.4960502,16.563581 39.4960502,14.231369 C39.4960502,10.6086199 41.8493321,8.12063165 46.5870158,8.12063165 C47.9189448,8.12063165 48.7249485,8.24537935 49.436348,8.43598369 L55.4754632,8.43598369 L55.4754632,11.1133099 L52.6255087,11.3330431 L52.6255087,11.3330431 Z M60.9233016,5.60858036 C59.1575621,5.60858036 58.1355867,4.56817192 58.1355867,2.77167847 C58.1355867,0.977717972 59.1575621,0 60.9233016,0 C62.7195385,0 63.7408917,0.977084735 63.7408917,2.77167847 C63.7415139,4.56817192 62.7195385,5.60858036 60.9233016,5.60858036 Z M56.9275147,24.5423675 L56.9275147,22.0543792 L58.50778,21.8340127 C58.9409681,21.770689 59.0025853,21.6763367 59.0025853,21.2026754 L59.0025853,11.9403174 C59.0025853,11.59457 58.9104706,11.372937 58.5998947,11.279218 L56.9275147,10.6801757 L57.2679657,8.12949697 L63.6792742,8.12949697 L63.6792742,21.2033087 C63.6792742,21.7086318 63.7091492,21.770689 64.174702,21.834646 L65.7543448,22.0550125 L65.7543448,24.5430008 L56.9275147,24.5430008 L56.9275147,24.5423675 Z M78,23.32022 C76.6674487,23.9806863 74.7174798,24.5803617 72.9511179,24.5803617 C69.2665294,24.5803617 67.8736056,23.0694582 67.8736056,19.5074999 L67.8736056,11.2532552 C67.8736056,11.0651838 67.8736056,10.9385364 67.6252693,10.9385364 L65.458084,10.9385364 L65.458084,8.13456287 C68.1841815,7.81857759 69.2671518,6.43242174 69.6076028,2.99837733 L72.5502944,2.99837733 L72.5502944,7.47346341 C72.5502944,7.69319666 72.5502944,7.78881545 72.7980083,7.78881545 L77.1641212,7.78881545 L77.1641212,10.9391697 L72.5502944,10.9391697 L72.5502944,18.4683579 C72.5502944,20.3269086 72.9841049,21.0513318 74.6558625,21.0513318 C75.5241059,21.0513318 76.4209796,20.8315985 77.1641212,20.5479083 L78,23.32022 L78,23.32022 Z" id="Shape" fill="#31251C" fill-rule="nonzero"></path>
            <path d="M32.3772539,15.0299695 L17.9690664,0.622277028 C17.140005,-0.207425676 15.7941261,-0.207425676 14.9644314,0.622277028 L11.9724635,3.61427365 L15.7668919,7.40937182 C16.6497884,7.11169223 17.6606226,7.31120089 18.3636464,8.01486479 C19.0704703,8.72232885 19.2687104,9.74203981 18.9634334,10.6274783 L22.6210571,14.2851371 C23.5052204,13.9804906 24.5268216,14.1774658 25.2336455,14.8849299 C26.221679,15.8723394 26.221679,17.4728423 25.2336455,18.4608852 C24.2449787,19.4489281 22.6451246,19.4489281 21.6570912,18.4608852 C20.914166,17.7173195 20.7304932,16.6260388 21.1067059,15.7108324 L17.6954571,12.2995509 L17.6948238,21.2768075 C17.9361319,21.3958793 18.1628729,21.5542195 18.3636464,21.7543616 C19.3516798,22.7417711 19.3516798,24.3416406 18.3636464,25.3309502 C17.375613,26.3183598 15.7744921,26.3183598 14.7877254,25.3309502 C13.799692,24.3416406 13.799692,22.7417711 14.7877254,21.7543616 C15.0322003,21.5105176 15.3140432,21.3262096 15.6155201,21.2027043 L15.6155201,12.1424774 C15.3140432,12.0196054 15.0322003,11.8359308 14.7877254,11.5908201 C14.0391001,10.842821 13.8592273,9.74520661 14.2430403,8.82620003 L10.5024471,5.08430417 L0.622746073,14.9634666 C-0.207582024,15.7938027 -0.207582024,17.1396945 0.622746073,17.9700305 L15.0309336,32.377723 C15.8606284,33.2074257 17.2058739,33.2074257 18.0368353,32.377723 L32.3772539,18.0359 C33.207582,17.2061973 33.207582,15.8596722 32.3772539,15.0299695 L32.3772539,15.0299695 Z" id="Path" fill="#F34F29" fill-rule="nonzero"></path>
            <polygon id="Path" points="1.12409637e-15 0 79 0 79 33 0 33"></polygon>
        </g>
        <g id="github-copy" transform="translate(748.000000, 3.000000)" fill="#000000" fill-rule="nonzero">
            <path d="M22.9998956,0 C11.7204239,0.000469179946 2.10590223,8.20619911 0.299077857,19.3745239 C-1.50774651,30.5428487 5.02642435,41.3773525 15.7268887,44.9558377 C16.8767785,45.1577383 17.3079872,44.4656891 17.3079872,43.8600567 C17.3079872,43.3121892 17.279217,41.4954764 17.279217,39.5634644 C11.5009978,40.6303861 10.0061411,38.1505528 9.54618516,36.8529173 C9.03580825,35.5908656 8.22674528,34.472458 7.1889111,33.5943411 C6.38398825,33.161796 5.23409847,32.0948512 7.16014086,32.066061 C8.65271236,32.2285228 9.97246422,33.1110528 10.6960749,34.4305721 C11.3313462,35.5753322 12.3946869,36.4194146 13.6513665,36.7764896 C14.9080461,37.1335647 16.2547288,36.9742705 17.3941369,36.3337708 C17.4936968,35.160991 18.0147545,34.0644705 18.8602924,33.2483742 C13.7432829,32.6716473 8.39629538,30.6818473 8.39629538,21.8580182 C8.36397821,19.5652878 9.20739391,17.3470389 10.7535694,15.6582042 C10.0504849,13.6655423 10.1327507,11.4787423 10.9835474,9.54489918 C10.9835474,9.54489918 12.9095438,8.93931288 17.3079412,11.9094794 C21.0710431,10.8713094 25.0437372,10.8713094 28.806839,11.9094794 C33.2051215,8.9104996 35.1312329,9.54489918 35.1312329,9.54489918 C35.982145,11.4787155 36.0644125,13.6655602 35.3612108,15.6582042 C36.9120423,17.3441484 37.7561944,19.564334 37.7184849,21.8580182 C37.7184849,30.7107067 32.3427041,32.6716473 27.2257406,33.2483742 C28.336287,34.3774629 28.9028084,35.9349635 28.7780918,37.5161532 C28.7780918,40.6016882 28.7493216,43.0815215 28.7493216,43.8601489 C28.7493216,44.4657352 29.1805302,45.1866208 30.33042,44.95593 C41.0111617,41.3485442 47.5153422,30.5121007 45.6961446,19.3555019 C43.876947,8.19890308 34.2698179,0.00588375885 22.9998956,0 Z" id="Path"></path>
        </g>
        <g id="Rectangle-Copy-11">
            <use fill="black" fill-opacity="1" filter="url(#filter-7)" xlink:href="#path-6"></use>
            <use fill-opacity="0.5" fill="#C5DDFF" fill-rule="evenodd" xlink:href="#path-6"></use>
        </g>
        <g id="Rectangle-Copy-15">
            <use fill="black" fill-opacity="1" filter="url(#filter-9)" xlink:href="#path-8"></use>
            <use fill="#E6E6E6" fill-rule="evenodd" xlink:href="#path-8"></use>
        </g>
        <text id="—-Pull-Request-—-Mer" font-family="Helvetica" font-size="21" font-weight="normal" fill="#999999">
            <tspan x="552" y="423">— Pull Request</tspan>
            <tspan x="552" y="448">— Merge operation</tspan>
        </text>
        <text id="Remote-Collaboration" font-family="Helvetica-Bold, Helvetica" font-size="28" font-weight="bold" fill="#999999">
            <tspan x="431.544922" y="356">Remote Collaboration</tspan>
        </text>
        <g id="github-copy-8" transform="translate(628.000000, 370.000000)" fill="#C5C4C4" fill-rule="nonzero">
            <path d="M14.4999342,0 C7.38896289,0.00030236041 1.32763401,5.28843943 0.188549084,12.4858043 C-0.950535845,19.6831692 3.16883274,26.6654049 9.91477769,28.9715399 C10.6397082,29.1016536 10.9115571,28.6556663 10.9115571,28.2653698 C10.9115571,27.9122997 10.8934194,26.7415292 10.8934194,25.4964548 C7.25062904,26.1840266 6.30821937,24.5859118 6.01824717,23.7496578 C5.69648781,22.9363356 5.18642637,22.215584 4.53213961,21.6496865 C4.02468825,21.3709352 3.29975773,20.6833486 4.51400185,20.6647949 C5.45497084,20.7694925 6.28698831,21.338234 6.74317768,22.1885909 C7.1436748,22.9263252 7.81404175,23.4702894 8.60629627,23.7004044 C9.3985508,23.9305195 10.2475464,23.8278632 10.9658689,23.4150967 C11.0286349,22.6593053 11.3571278,21.9526587 11.8901843,21.42673 C8.66424355,21.0550616 5.29331665,19.772746 5.29331665,14.0862784 C5.27294279,12.608741 5.80466138,11.1792029 6.77942421,10.0908427 C6.33617529,8.80668283 6.3880385,7.39741168 6.92441031,6.15115725 C6.92441031,6.15115725 8.13862543,5.76089052 10.9115281,7.67499784 C13.2839184,7.00595497 15.788443,7.00595497 18.1608333,7.67499784 C20.9336635,5.74232197 22.1479511,6.15115725 22.1479511,6.15115725 C22.6843958,7.39739446 22.73626,8.80669438 22.2929373,10.0908427 C23.2706354,11.1773401 23.8028182,12.6081264 23.7790448,14.0862784 C23.7790448,19.7913443 20.3899657,21.0550616 17.1640539,21.42673 C17.864181,22.154365 18.2213357,23.1580876 18.14271,24.1770765 C18.14271,26.1655324 18.1245723,27.7636472 18.1245723,28.2654293 C18.1245723,28.655696 18.3964212,29.1202667 19.1213517,28.9715993 C25.8548628,26.6468396 29.9553244,19.6633538 28.808439,12.4735456 C27.6615536,5.28373754 21.6048852,0.0037917557 14.4999342,0 Z" id="Path"></path>
        </g>
        <polyline id="Path-11" stroke="#C5C4C4" points="659 532 665.092646 511.54484 665.092646 521.77242 670.271289 506.408302 670.271289 519.204151 675 499"></polyline>
        <g id="Group-Copy" transform="translate(629.000000, 520.000000)" fill-rule="nonzero">
            <path d="M32.8242906,5.25614714 C31.5900159,1.79748306 24.0068348,0 16.5081931,0 C9.00955134,0 1.51090961,1.7804453 0.209003384,5.20503388 C0.0765022652,5.40723401 0.00594305526,5.64423809 0.00610890613,5.88654405 L0.00610890613,37.346757 C-0.00203630204,37.4146609 -0.00203630204,37.4833062 0.00610890613,37.5512101 C0.0020160944,37.6107709 0.0020160944,37.6705457 0.00610890613,37.7301065 C0.00610890613,41.8447241 8.30787461,44 16.5081931,44 C24.7085115,44 32.9933694,41.8447241 32.9933694,37.7301065 C32.9974588,37.6733887 32.9974588,37.6164467 32.9933694,37.5597289 C33.0022102,37.4890178 33.0022102,37.4174682 32.9933694,37.346757 L32.9933694,5.88654405 C32.9976856,5.66448047 32.9390296,5.44578646 32.8242906,5.25614714 Z" id="Path" fill="url(#linearGradient-10)"></path>
            <path d="M16.4984563,0 C27.1842711,0 32.9919965,3.07551487 32.9919965,4.6559878 C33.0026678,4.70517055 33.0026678,4.75630924 32.9919965,4.80549199 C32.6421335,6.4286804 26.8244121,9.33333333 16.4984563,9.33333333 C6.17250054,9.33333333 0.354779092,6.39664378 0.00491611837,4.80549199 C-0.00163870612,4.76664921 -0.00163870612,4.72686719 0.00491611837,4.68802441 C0.00491611837,3.07551487 5.81264148,0 16.4984563,0 Z" id="Path" fill="#C5C4C4"></path>
        </g>
        <g id="Group-Copy-2" transform="translate(678.000000, 466.000000)" fill-rule="nonzero">
            <path d="M32.8242906,5.25614714 C31.5900159,1.79748306 24.0068348,0 16.5081931,0 C9.00955134,0 1.51090961,1.7804453 0.209003384,5.20503388 C0.0765022652,5.40723401 0.00594305526,5.64423809 0.00610890613,5.88654405 L0.00610890613,37.346757 C-0.00203630204,37.4146609 -0.00203630204,37.4833062 0.00610890613,37.5512101 C0.0020160944,37.6107709 0.0020160944,37.6705457 0.00610890613,37.7301065 C0.00610890613,41.8447241 8.30787461,44 16.5081931,44 C24.7085115,44 32.9933694,41.8447241 32.9933694,37.7301065 C32.9974588,37.6733887 32.9974588,37.6164467 32.9933694,37.5597289 C33.0022102,37.4890178 33.0022102,37.4174682 32.9933694,37.346757 L32.9933694,5.88654405 C32.9976856,5.66448047 32.9390296,5.44578646 32.8242906,5.25614714 Z" id="Path" fill="url(#linearGradient-10)"></path>
            <path d="M16.4984563,0 C27.1842711,0 32.9919965,3.07551487 32.9919965,4.6559878 C33.0026678,4.70517055 33.0026678,4.75630924 32.9919965,4.80549199 C32.6421335,6.4286804 26.8244121,9.33333333 16.4984563,9.33333333 C6.17250054,9.33333333 0.354779092,6.39664378 0.00491611837,4.80549199 C-0.00163870612,4.76664921 -0.00163870612,4.72686719 0.00491611837,4.68802441 C0.00491611837,3.07551487 5.81264148,0 16.4984563,0 Z" id="Path" fill="#C5C4C4"></path>
        </g>
        <g id="Group-2-Copy-3" transform="translate(407.000000, 389.000000) scale(-1, 1) rotate(-360.000000) translate(-407.000000, -389.000000) translate(380.500000, 380.500000)" fill="#C5C4C4">
            <rect id="Rectangle" x="5.5" y="2.5" width="41" height="12"></rect>
            <polygon id="Triangle-Copy-3" transform="translate(4.000000, 8.500000) rotate(-90.000000) translate(-4.000000, -8.500000) " points="4 4.5 12.5 12.5 -4.5 12.5"></polygon>
            <polygon id="Triangle-Copy-4" transform="translate(49.000000, 8.500000) scale(1, -1) rotate(-270.000000) translate(-49.000000, -8.500000) " points="49 4.5 57.5 12.5 40.5 12.5"></polygon>
        </g>
        <text id="—-git-restore-—-git" font-family="Helvetica" font-size="21" font-weight="normal" fill="#999999">
            <tspan x="415" y="150">— git restore</tspan>
            <tspan x="415" y="175">— git rm</tspan>
            <tspan x="415" y="200">— git reset</tspan>
        </text>
        <g id="git-copy" transform="translate(454.000000, 373.000000)" fill="#C5C4C4" fill-rule="nonzero">
            <path d="M35.6560815,6.10703033 C32.0072119,6.10703033 30.1939788,8.01178316 30.1939788,10.7545128 C30.1939788,12.5200795 31.0767621,13.7708481 32.2455444,14.3433226 C31.6730699,14.8681307 31.196405,15.3271589 30.7669299,15.7799906 C30.3369782,16.2337755 30.0748126,16.7128237 30.0748126,17.2381084 C30.0748126,17.8825593 30.3369782,18.4798204 31.1244286,18.8125325 C30.2897884,19.6009362 29.8121702,20.172934 29.8121702,21.24686 C29.8121702,23.1311162 31.458094,24.2288754 35.7757244,24.2288754 C39.9265221,24.2288754 42.3351097,22.6792379 42.3351097,19.9355549 C42.3351097,16.7643035 39.9026889,16.6446606 35.7757244,16.3815416 L33.4381599,16.2385422 L34.2256103,14.9744269 C34.654132,15.0935931 35.346726,15.1889261 36.1108198,15.1889261 C39.1157152,15.1889261 41.191114,13.638812 41.191114,10.9904619 C41.191114,9.8931794 40.6491461,9.13003894 40.2201477,8.58092101 L42.3274831,8.41408831 L42.3274831,6.30341626 L37.8511233,6.30341626 C37.3029587,6.30341626 36.6818643,6.10703033 35.6560815,6.10703033 L35.6560815,6.10703033 Z M36.7295308,19.6972225 C37.8754332,19.7687222 38.7820498,19.8163887 38.7820498,20.5809591 C38.7820498,21.8674776 36.8968402,21.9642406 35.5140354,21.9642406 C33.8438017,21.9642406 32.6273529,21.6772883 32.6273529,20.7234819 C32.6273529,20.2458637 32.9371851,19.8406986 33.2479706,19.4593667 L36.7295308,19.6972225 L36.7295308,19.6972225 Z M35.800511,12.6845289 C34.2256103,12.6845289 33.581636,11.8727686 33.581636,10.704463 C33.581636,9.15387219 34.5592757,8.50942128 35.8715341,8.50942128 C37.2309823,8.50942128 38.0422659,9.24920516 38.0422659,10.6563199 C38.0422659,11.8975552 37.1356493,12.6845289 35.800511,12.6845289 Z M46.6999299,4.24660734 C48.0832114,4.24660734 48.8706618,3.45915697 48.8706618,2.09875543 C48.8706618,0.740260545 48.0832114,0 46.6999299,0 C45.3400051,0 44.5525547,0.740260545 44.5525547,2.09875543 C44.5525547,3.45868031 45.3400051,4.24660734 46.6999299,4.24660734 Z M48.5241264,16.0535962 L48.5241264,6.30341626 L43.8847472,6.30341626 L43.6225815,8.1605026 L44.8938467,8.57710769 C45.1331325,8.64813076 45.1874723,8.77873693 45.1874723,9.04090261 L45.1874723,16.0535962 C45.1874723,16.4120482 44.9863197,16.4835479 44.6521776,16.5316911 L43.2808128,16.6985238 L43.2808128,18.6967029 L50.4307859,18.6967029 L50.4307859,16.6985238 L49.0598977,16.5316911 C48.7009691,16.4835479 48.5241264,16.4363581 48.5241264,16.0535962 Z M59.2099995,15.5578647 C58.6370483,15.7723639 57.9554175,15.93872 57.2866567,15.93872 C55.9991849,15.93872 55.6740995,15.3905554 55.6740995,13.982964 L55.6740995,8.21007574 L59.0107536,8.21007574 L59.0107536,5.82675139 L55.8466521,5.82675139 C55.6555095,5.82675139 55.6740995,5.82532139 55.6740995,5.65848869 L55.6740995,2.49009729 L53.3894447,2.49009729 C53.1272791,4.87342164 51.8607805,5.9201777 49.954121,6.15946347 L49.954121,8.21007574 L51.8622105,8.21007574 C52.0533531,8.21007574 51.8607805,8.37833844 51.8607805,8.52086124 L51.8607805,14.7704144 C51.8607805,17.4669075 53.0305161,18.6113799 55.8685787,18.6113799 C57.2289803,18.6113799 58.7795711,18.1580716 59.8058306,17.6575735 L59.2099995,15.5578647 L59.2099995,15.5578647 Z M13.6027046,0.490964817 C12.974937,-0.137279483 11.9558275,-0.137279483 11.3275832,0.490964817 L9.06294836,2.75559962 L11.9358075,5.6284588 C12.603615,5.40299632 13.3691388,5.55409908 13.9015735,6.08653374 C14.4363915,6.62182839 14.5865409,7.39402548 14.3553584,8.06421629 L17.1243047,10.8331625 C17.7944955,10.6024567 18.5671692,10.7516528 19.1019872,11.2874242 C19.8503511,12.0348347 19.8503511,13.2465168 19.1019872,13.994404 C18.3541,14.7427678 17.1428946,14.7427678 16.3945307,13.994404 C15.8320662,13.4314627 15.620427,12.6054025 15.9059493,11.9123318 L13.2509259,9.33023819 L13.2509259,16.1260493 C13.2509259,16.2161389 13.677541,16.3362585 13.8295971,16.4878379 C14.5770076,17.2352484 14.6132341,18.4469305 13.8653469,19.195771 C13.1174598,19.9431815 11.9234143,19.9431815 11.1760037,19.195771 C10.4285932,18.4469305 10.4376499,17.2357251 11.185537,16.4878379 C11.370483,16.3033686 11.3442664,16.1637058 11.8209313,16.0702795 L11.8209313,9.21154864 C11.3442664,9.11812232 11.379063,8.97941284 11.1945937,8.79399021 C10.6283158,8.22771234 10.4919896,7.39688547 10.7822786,6.70143142 L7.94993589,3.86861209 L0.471540724,11.3470073 C-0.157180241,11.9757282 -0.157180241,12.9948377 0.471540724,13.6226054 L11.3785863,24.5291743 C12.0063539,25.1569419 13.0249868,25.1569419 13.6537077,24.5291743 L24.5097502,13.6726552 C25.1375178,13.0444109 25.1375178,12.0253014 24.5097502,11.3970571 L13.6027046,0.490964817 Z" id="Shape"></path>
        </g>
        <text id="Edit-&amp;-Commit" font-family="Helvetica-Bold, Helvetica" font-size="28" font-weight="bold" fill="#999999">
            <tspan x="310.058594" y="89">Edit &amp; Commit</tspan>
        </text>
        <text id="Work-with-Branches" font-family="Helvetica-Bold, Helvetica" font-size="28" font-weight="bold" fill="#0055C2">
            <tspan x="99.1669922" y="356">Work with Branches</tspan>
        </text>
        <g id="git-copy-9" transform="translate(204.000000, 373.000000)">
            <path d="M34.8489651,8.26327761 C33.5822601,8.26327761 32.6390578,8.88906479 32.6390578,10.3953308 C32.6390578,11.5300357 33.2606087,12.3178571 34.7809323,12.3178571 C36.0693893,12.3178571 36.9450216,11.5537821 36.9450216,10.3483036 C36.9450216,8.98218788 36.161488,8.26327761 34.8489651,8.26327761 L34.8489651,8.26327761 Z M32.3169436,18.8979348 C32.0170441,19.2680991 31.7180703,19.6615441 31.7180703,20.1257627 C31.7180703,21.0518719 32.8917508,21.3303099 34.5046361,21.3303099 C35.8398366,21.3303099 37.6591341,21.2362556 37.6591341,19.9870093 C37.6591341,19.2443527 36.7835017,19.1987224 35.6778538,19.12888 L32.3169436,18.8979348 Z M39.1317885,8.33311993 C39.5460015,8.86624963 39.9842805,9.60750945 39.9842805,10.6733032 C39.9842805,13.2444318 37.9807855,14.7502322 35.0799062,14.7502322 C34.3421905,14.7502322 33.6743589,14.6580404 33.2601459,14.5421021 L32.5002154,15.7699301 L34.7564035,15.9082179 C38.7402531,16.1638408 41.0885399,16.279779 41.0885399,19.3598253 C41.0885399,22.0245426 38.7633935,23.5294118 34.7564035,23.5294118 C30.5883564,23.5294118 29,22.463618 29,20.6342148 C29,19.5912362 29.4609566,19.0366882 30.266705,18.2707507 C29.5063117,17.9476136 29.2536187,17.3688536 29.2536187,16.7430664 C29.2536187,16.2332175 29.5067745,15.7699301 29.9214503,15.3294579 C30.3361261,14.8899169 30.7966199,14.448979 31.3487496,13.9395957 C30.2204242,13.3836508 29.3688578,12.1791036 29.3688578,10.4642419 C29.3688578,7.80045584 31.1187341,5.97105269 34.6416272,5.97105269 C35.6320359,5.97105269 36.231372,6.06277893 36.7603613,6.20292919 L41.2509855,6.20292919 L41.2509855,8.17155136 L39.1317885,8.33311993 L39.1317885,8.33311993 Z M45.3019422,4.12395615 C43.9889564,4.12395615 43.229026,3.35894994 43.229026,2.03799888 C43.229026,0.718910274 43.9889564,0 45.3019422,0 C46.6376055,0 47.3970734,0.718444658 47.3970734,2.03799888 C47.3975359,3.35894994 46.6376055,4.12395615 45.3019422,4.12395615 Z M42.3307161,18.0458585 L42.3307161,16.2164553 L43.5057851,16.0544211 C43.8278993,16.0078596 43.8737173,15.9384829 43.8737173,15.5902025 L43.8737173,8.77964515 C43.8737173,8.52541911 43.8052217,8.3624537 43.5742807,8.29354261 L42.3307161,7.85307038 L42.5838719,5.9775713 L47.3512552,5.9775713 L47.3512552,15.5906681 C47.3512552,15.9622293 47.3734699,16.0078596 47.7196502,16.0548868 L48.8942564,16.2169209 L48.8942564,18.0463241 L42.3307161,18.0463241 L42.3307161,18.0458585 Z M58,17.1472206 C57.0091285,17.6328576 55.5591516,18.0737954 54.2457031,18.0737954 C51.5058809,18.0737954 50.470117,16.9628369 50.470117,14.3437499 L50.470117,8.27445238 C50.470117,8.13616459 50.470117,8.04304149 50.2854567,8.04304149 L48.6739599,8.04304149 L48.6739599,5.98129623 C50.7010581,5.74895411 51.5063437,4.72972186 51.7594995,2.20468921 L53.9476548,2.20468921 L53.9476548,5.49519368 C53.9476548,5.65676225 53.9476548,5.72707018 54.1318523,5.72707018 L57.3784491,5.72707018 L57.3784491,8.04350711 L53.9476548,8.04350711 L53.9476548,13.579675 C53.9476548,14.9462563 54.2702319,15.4789204 55.5133337,15.4789204 C56.1589505,15.4789204 56.8258566,15.3173519 57.3784491,15.1087561 L58,17.1472206 L58,17.1472206 Z" id="Shape" fill="#31251C" fill-rule="nonzero"></path>
            <path d="M24.1848276,11.3863405 L13.4223481,0.471421991 C12.8030643,-0.157140664 11.7977336,-0.157140664 11.1779768,0.471421991 L8.9430674,2.7380861 L11.7773904,5.61316047 C12.4368874,5.38764563 13.1919499,5.53878855 13.7170874,6.07186726 C14.2450634,6.60782489 14.3931427,7.38033319 14.1651101,8.0511199 L16.8972442,10.8220736 C17.5576873,10.5912807 18.3207925,10.7405044 18.8487686,11.276462 C19.5867996,12.0244995 19.5867996,13.2370017 18.8487686,13.9855191 C18.1102644,14.7340364 16.9152219,14.7340364 16.1771908,13.9855191 C15.6222483,13.4222118 15.4850502,12.5954839 15.7660697,11.9021457 L13.2179702,9.31784158 L13.2174971,16.1187935 C13.397747,16.2089995 13.5671157,16.3289542 13.7170874,16.4805769 C14.4551184,17.2286145 14.4551184,18.4406368 13.7170874,19.1901138 C12.9790563,19.9381514 11.7830676,19.9381514 11.0459828,19.1901138 C10.3079517,18.4406368 10.3079517,17.2286145 11.0459828,16.4805769 C11.2285981,16.2958467 11.4391262,16.1562194 11.6643203,16.0626547 L11.6643203,9.19884652 C11.4391262,9.10576166 11.2285981,8.96661421 11.0459828,8.78092432 C10.4867823,8.2142583 10.3524228,7.38273228 10.6391195,6.68651517 L7.84500969,3.85174558 L0.465172445,11.3359595 C-0.155057482,11.965002 -0.155057482,12.984617 0.465172445,13.6136595 L11.2276519,24.528578 C11.8474088,25.1571407 12.8522664,25.1571407 13.4729694,24.528578 L24.1848276,13.6635606 C24.8050575,13.034998 24.8050575,12.0149032 24.1848276,11.3863405 L24.1848276,11.3863405 Z" id="Path" fill="#F34F29" fill-rule="nonzero"></path>
            <polygon id="Path" points="8.25285939e-16 0 58 0 58 25 0 25"></polygon>
        </g>
        <g id="Group-2" transform="translate(308.000000, 515.000000)" stroke="#1576ED" stroke-width="2">
            <ellipse id="Oval" fill="#7BB2FF" cx="4.60185185" cy="19.3333333" rx="3.60185185" ry="3.66666667"></ellipse>
            <ellipse id="Oval-Copy" fill="#7BB2FF" cx="23.0092593" cy="35.3333333" rx="3.60185185" ry="3.66666667"></ellipse>
            <ellipse id="Oval-Copy-4" fill="#7BB2FF" cx="51.9351852" cy="4.66666667" rx="3.60185185" ry="3.66666667"></ellipse>
            <ellipse id="Oval-Copy-3" fill="#7BB2FF" cx="33.5277778" cy="19.3333333" rx="3.60185185" ry="3.66666667"></ellipse>
            <line x1="5.25925926" y1="24.3333333" x2="5.25925926" y2="35.6666667" id="Line-6" stroke-linecap="square"></line>
            <line x1="32.8703704" y1="4.33333333" x2="32.8703704" y2="15.6666667" id="Line-6-Copy" stroke-linecap="square"></line>
            <line x1="5.5736715" y1="34.6666667" x2="19.40781" y2="34.6666667" id="Line" stroke-linecap="round"></line>
            <line x1="27.9333696" y1="34.6666667" x2="60.1592229" y2="34.6666667" id="Line-Copy-3" stroke-linecap="round"></line>
            <line x1="38.1296296" y1="18.6666667" x2="71" y2="18.6666667" id="Line-Copy-4" stroke-linecap="round"></line>
            <line x1="33.1847826" y1="4" x2="47.0189211" y2="4" id="Line-Copy-2" stroke-linecap="round"></line>
            <line x1="9.52180406" y1="20" x2="28.6078256" y2="20" id="Line-Copy" stroke-linecap="round"></line>
        </g>
        <g id="documents-copy-4" transform="translate(470.000000, 223.000000)" fill-rule="nonzero">
            <path d="M43.6764706,14.4878049 L43.6764706,54 L9.26470588,54 L9.26470588,49.4843206 C9.27596326,49.4708864 38.5446403,14.5056418 38.5594796,14.4878049 L43.6764706,14.4878049 Z" id="Path" fill="#E6E6E6"></path>
            <path d="M38.3823529,48.7317073 C37.2091765,48.7317073 0.720794118,48.7317073 0,48.7317073 C0,45.7932418 0,3.2789101 0,1.31707317 L27.7941176,1.31707317 L30.6618088,7.60143136 L38.3823529,10.3484321 C38.3823529,12.038538 38.3823529,46.8117533 38.3823529,48.7317073 Z" id="Path" fill="#FFFFFF"></path>
            <polygon id="Path" fill="#E6E6E6" points="38.3823529 10.5365854 27.7941176 10.5365854 27.7941176 1.31707317"></polygon>
            <path d="M39.7058824,48.7317073 L1.32352941,48.7317073 C0.592544118,48.7317073 0,48.2357514 0,47.6241685 L0,1.1075388 C0,0.495845122 0.592544118,0 1.32352941,0 L29.1176471,0 C29.4686471,0 29.8052206,0.11673459 30.0535147,0.324398115 L40.64175,9.18470854 C40.8899118,9.39237206 41.0294118,9.67412993 41.0294118,9.96784922 L41.0294118,47.6241685 C41.0294118,48.2357514 40.4367353,48.7317073 39.7058824,48.7317073 Z M2.64705882,46.5166297 L38.3823529,46.5166297 L38.3823529,10.4265918 L28.5693088,2.21507761 L2.64705882,2.21507761 L2.64705882,46.5166297 Z" id="Shape" fill="#C5C4C4"></path>
            <path d="M38.5884388,11.25 L28.329941,11.25 C27.6218482,11.25 27.0476287,10.7463375 27.0476287,10.125 L27.0476287,1.125 C27.0476287,0.5036625 27.6218482,0 28.329941,0 C29.0380338,0 29.6122532,0.5036625 29.6122532,1.125 L29.6122532,9 L38.5884388,9 C39.2965317,9 39.8707511,9.5036625 39.8707511,10.125 C39.8707511,10.7463375 39.2965317,11.25 38.5884388,11.25 Z M43.7176878,54 L9.2234887,54 C8.51526766,54 7.94117647,53.496225 7.94117647,52.875 L7.94117647,48.375 C7.94117647,47.753775 8.51526766,47.25 9.2234887,47.25 C9.93170975,47.25 10.5058009,47.753775 10.5058009,48.375 L10.5058009,51.75 L42.4353755,51.75 L42.4353755,14.625 L38.5884388,14.625 C37.880346,14.625 37.3061266,14.1213375 37.3061266,13.5 C37.3061266,12.8786625 37.880346,12.375 38.5884388,12.375 L43.7176878,12.375 C44.4257806,12.375 45,12.8786625 45,13.5 L45,52.875 C45,53.496225 44.4257806,54 43.7176878,54 Z" id="Shape" fill="#C5C4C4"></path>
            <path d="M33.0882353,42.1463415 L5.29411765,42.1463415 C4.56313235,42.1463415 3.97058824,41.6369814 3.97058824,41.0088692 C3.97058824,40.380757 4.56313235,39.8713969 5.29411765,39.8713969 L33.0882353,39.8713969 C33.8190882,39.8713969 34.4117647,40.380757 34.4117647,41.0088692 C34.4117647,41.6369814 33.8190882,42.1463415 33.0882353,42.1463415 Z M33.0882353,37.5964523 L5.29411765,37.5964523 C4.56313235,37.5964523 3.97058824,37.0870922 3.97058824,36.45898 C3.97058824,35.8308678 4.56313235,35.3215078 5.29411765,35.3215078 L33.0882353,35.3215078 C33.8190882,35.3215078 34.4117647,35.8308678 34.4117647,36.45898 C34.4117647,37.0870922 33.8190882,37.5964523 33.0882353,37.5964523 Z M33.0882353,33.0465632 L5.29411765,33.0465632 C4.56313235,33.0465632 3.97058824,32.5372031 3.97058824,31.9090909 C3.97058824,31.2809787 4.56313235,30.7716186 5.29411765,30.7716186 L33.0882353,30.7716186 C33.8190882,30.7716186 34.4117647,31.2809787 34.4117647,31.9090909 C34.4117647,32.5372031 33.8190882,33.0465632 33.0882353,33.0465632 Z M33.0882353,28.4966741 L5.29411765,28.4966741 C4.56313235,28.4966741 3.97058824,27.9874277 3.97058824,27.3592018 C3.97058824,26.7309758 4.56313235,26.2217295 5.29411765,26.2217295 L33.0882353,26.2217295 C33.8190882,26.2217295 34.4117647,26.7309758 34.4117647,27.3592018 C34.4117647,27.9874277 33.8190882,28.4966741 33.0882353,28.4966741 Z M33.0882353,23.9467849 L5.29411765,23.9467849 C4.56313235,23.9467849 3.97058824,23.4375386 3.97058824,22.8093126 C3.97058824,22.1810867 4.56313235,21.6718404 5.29411765,21.6718404 L33.0882353,21.6718404 C33.8190882,21.6718404 34.4117647,22.1810867 34.4117647,22.8093126 C34.4117647,23.4375386 33.8190882,23.9467849 33.0882353,23.9467849 Z M17.2058824,19.3968958 L5.29411765,19.3968958 C4.56313235,19.3968958 3.97058824,18.8876494 3.97058824,18.2594235 C3.97058824,17.6311976 4.56313235,17.1219512 5.29411765,17.1219512 L17.2058824,17.1219512 C17.9368676,17.1219512 18.5294118,17.6311976 18.5294118,18.2594235 C18.5294118,18.8876494 17.9368676,19.3968958 17.2058824,19.3968958 Z" id="Shape" fill="#C5C4C4"></path>
        </g>
        <g id="Group" transform="translate(483.000000, 250.500000)">
            <rect id="Rectangle-Copy-2" fill="#C5C4C4" x="0" y="0.5" width="66" height="19" rx="2"></rect>
            <text id="Commit" font-family="Helvetica" font-size="16" font-weight="normal" fill="#FFFFFF">
                <tspan x="3.68179104" y="15">Commit</tspan>
            </text>
        </g>
        <g id="edit-(3)" transform="translate(498.000000, 219.000000)" fill-rule="nonzero">
            <path d="M15.8577435,5.74617584 L1.54464267,20.0598298 C1.41801007,20.1864672 1.33298533,20.3474777 1.29680459,20.521152 L0.0178154234,26.9181541 C-0.0418827981,27.2148476 0.0503780897,27.5223958 0.265653495,27.7358704 C0.437512011,27.9077355 0.669068749,28 0.906052599,28 L1.08333823,27.9819089 L7.47828408,26.7028703 C7.65556971,26.6684973 7.81476497,26.5816602 7.94139756,26.4550227 L22.2544984,12.1413688 L15.8577435,5.74617584 Z M26.6757849,1.32290943 C24.9119738,-0.440969811 22.0428411,-0.440969811 20.280839,1.32290943 L17.7771318,3.8267134 L24.1720777,10.2219063 L26.6757849,7.71810238 C27.5296504,6.86601302 28,5.72989388 28,4.52141046 C28,3.31292704 27.5296504,2.1768079 26.6757849,1.32290943 Z" id="Shape" fill="#C5C4C4"></path>
            <path d="M18.970452,8.95083079 L0,27.7359557 C0.173504664,27.9077653 0.407279369,28 0.646533168,28 L0.825516926,27.9819148 L7.28171678,26.7032893 C7.46070054,26.6689273 7.62142065,26.5821182 7.74926619,26.4555216 L22.1994651,12.1464903 L18.970452,8.95083079 Z M26.6631009,1.33333333 L20.9082252,7.03198824 L24.1372383,10.2294563 L26.6649273,7.72646095 C27.5251451,6.87464677 28,5.73889454 28,4.5308014 C28,3.32270826 27.5251451,2.18695603 26.6631009,1.33333333 L26.6631009,1.33333333 Z" id="Shape" fill="#999999"></path>
        </g>
        <g id="git-copy-2" transform="translate(376.000000, 102.000000)" fill="#C5C4C4" fill-rule="nonzero">
            <path d="M35.6560815,6.10703033 C32.0072119,6.10703033 30.1939788,8.01178316 30.1939788,10.7545128 C30.1939788,12.5200795 31.0767621,13.7708481 32.2455444,14.3433226 C31.6730699,14.8681307 31.196405,15.3271589 30.7669299,15.7799906 C30.3369782,16.2337755 30.0748126,16.7128237 30.0748126,17.2381084 C30.0748126,17.8825593 30.3369782,18.4798204 31.1244286,18.8125325 C30.2897884,19.6009362 29.8121702,20.172934 29.8121702,21.24686 C29.8121702,23.1311162 31.458094,24.2288754 35.7757244,24.2288754 C39.9265221,24.2288754 42.3351097,22.6792379 42.3351097,19.9355549 C42.3351097,16.7643035 39.9026889,16.6446606 35.7757244,16.3815416 L33.4381599,16.2385422 L34.2256103,14.9744269 C34.654132,15.0935931 35.346726,15.1889261 36.1108198,15.1889261 C39.1157152,15.1889261 41.191114,13.638812 41.191114,10.9904619 C41.191114,9.8931794 40.6491461,9.13003894 40.2201477,8.58092101 L42.3274831,8.41408831 L42.3274831,6.30341626 L37.8511233,6.30341626 C37.3029587,6.30341626 36.6818643,6.10703033 35.6560815,6.10703033 L35.6560815,6.10703033 Z M36.7295308,19.6972225 C37.8754332,19.7687222 38.7820498,19.8163887 38.7820498,20.5809591 C38.7820498,21.8674776 36.8968402,21.9642406 35.5140354,21.9642406 C33.8438017,21.9642406 32.6273529,21.6772883 32.6273529,20.7234819 C32.6273529,20.2458637 32.9371851,19.8406986 33.2479706,19.4593667 L36.7295308,19.6972225 L36.7295308,19.6972225 Z M35.800511,12.6845289 C34.2256103,12.6845289 33.581636,11.8727686 33.581636,10.704463 C33.581636,9.15387219 34.5592757,8.50942128 35.8715341,8.50942128 C37.2309823,8.50942128 38.0422659,9.24920516 38.0422659,10.6563199 C38.0422659,11.8975552 37.1356493,12.6845289 35.800511,12.6845289 Z M46.6999299,4.24660734 C48.0832114,4.24660734 48.8706618,3.45915697 48.8706618,2.09875543 C48.8706618,0.740260545 48.0832114,0 46.6999299,0 C45.3400051,0 44.5525547,0.740260545 44.5525547,2.09875543 C44.5525547,3.45868031 45.3400051,4.24660734 46.6999299,4.24660734 Z M48.5241264,16.0535962 L48.5241264,6.30341626 L43.8847472,6.30341626 L43.6225815,8.1605026 L44.8938467,8.57710769 C45.1331325,8.64813076 45.1874723,8.77873693 45.1874723,9.04090261 L45.1874723,16.0535962 C45.1874723,16.4120482 44.9863197,16.4835479 44.6521776,16.5316911 L43.2808128,16.6985238 L43.2808128,18.6967029 L50.4307859,18.6967029 L50.4307859,16.6985238 L49.0598977,16.5316911 C48.7009691,16.4835479 48.5241264,16.4363581 48.5241264,16.0535962 Z M59.2099995,15.5578647 C58.6370483,15.7723639 57.9554175,15.93872 57.2866567,15.93872 C55.9991849,15.93872 55.6740995,15.3905554 55.6740995,13.982964 L55.6740995,8.21007574 L59.0107536,8.21007574 L59.0107536,5.82675139 L55.8466521,5.82675139 C55.6555095,5.82675139 55.6740995,5.82532139 55.6740995,5.65848869 L55.6740995,2.49009729 L53.3894447,2.49009729 C53.1272791,4.87342164 51.8607805,5.9201777 49.954121,6.15946347 L49.954121,8.21007574 L51.8622105,8.21007574 C52.0533531,8.21007574 51.8607805,8.37833844 51.8607805,8.52086124 L51.8607805,14.7704144 C51.8607805,17.4669075 53.0305161,18.6113799 55.8685787,18.6113799 C57.2289803,18.6113799 58.7795711,18.1580716 59.8058306,17.6575735 L59.2099995,15.5578647 L59.2099995,15.5578647 Z M13.6027046,0.490964817 C12.974937,-0.137279483 11.9558275,-0.137279483 11.3275832,0.490964817 L9.06294836,2.75559962 L11.9358075,5.6284588 C12.603615,5.40299632 13.3691388,5.55409908 13.9015735,6.08653374 C14.4363915,6.62182839 14.5865409,7.39402548 14.3553584,8.06421629 L17.1243047,10.8331625 C17.7944955,10.6024567 18.5671692,10.7516528 19.1019872,11.2874242 C19.8503511,12.0348347 19.8503511,13.2465168 19.1019872,13.994404 C18.3541,14.7427678 17.1428946,14.7427678 16.3945307,13.994404 C15.8320662,13.4314627 15.620427,12.6054025 15.9059493,11.9123318 L13.2509259,9.33023819 L13.2509259,16.1260493 C13.2509259,16.2161389 13.677541,16.3362585 13.8295971,16.4878379 C14.5770076,17.2352484 14.6132341,18.4469305 13.8653469,19.195771 C13.1174598,19.9431815 11.9234143,19.9431815 11.1760037,19.195771 C10.4285932,18.4469305 10.4376499,17.2357251 11.185537,16.4878379 C11.370483,16.3033686 11.3442664,16.1637058 11.8209313,16.0702795 L11.8209313,9.21154864 C11.3442664,9.11812232 11.379063,8.97941284 11.1945937,8.79399021 C10.6283158,8.22771234 10.4919896,7.39688547 10.7822786,6.70143142 L7.94993589,3.86861209 L0.471540724,11.3470073 C-0.157180241,11.9757282 -0.157180241,12.9948377 0.471540724,13.6226054 L11.3785863,24.5291743 C12.0063539,25.1569419 13.0249868,25.1569419 13.6537077,24.5291743 L24.5097502,13.6726552 C25.1375178,13.0444109 25.1375178,12.0253014 24.5097502,11.3970571 L13.6027046,0.490964817 Z" id="Shape"></path>
        </g>
        <g id="Group-2" transform="translate(532.000000, 309.000000) rotate(-300.000000) translate(-532.000000, -309.000000) translate(505.500000, 300.500000)" fill="#C5C4C4">
            <rect id="Rectangle" x="5.5" y="2.5" width="41" height="12"></rect>
            <polygon id="Triangle-Copy-3" transform="translate(4.000000, 8.500000) rotate(-90.000000) translate(-4.000000, -8.500000) " points="4 4.5 12.5 12.5 -4.5 12.5"></polygon>
            <polygon id="Triangle-Copy-4" transform="translate(49.000000, 8.500000) scale(1, -1) rotate(-270.000000) translate(-49.000000, -8.500000) " points="49 4.5 57.5 12.5 40.5 12.5"></polygon>
        </g>
        <g id="Group-2-Copy" transform="translate(294.000000, 309.000000) scale(-1, 1) rotate(-300.000000) translate(-294.000000, -309.000000) translate(267.500000, 300.500000)" fill="#C5C4C4">
            <rect id="Rectangle" x="5.5" y="2.5" width="41" height="12"></rect>
            <polygon id="Triangle-Copy-3" transform="translate(4.000000, 8.500000) rotate(-90.000000) translate(-4.000000, -8.500000) " points="4 4.5 12.5 12.5 -4.5 12.5"></polygon>
            <polygon id="Triangle-Copy-4" transform="translate(49.000000, 8.500000) scale(1, -1) rotate(-270.000000) translate(-49.000000, -8.500000) " points="49 4.5 57.5 12.5 40.5 12.5"></polygon>
        </g>
        <text id="Git-Regular-Workflow" fill-rule="nonzero" font-family="Helvetica" font-size="18" font-weight="normal" fill="#0055C2">
            <tspan x="10" y="23">Git Regular Workflow — Work With Branches</tspan>
        </text>
        <text id="Git-Regular-Workflow" font-family="Helvetica-Bold, Helvetica" font-size="28" font-weight="bold" fill="#0055C2">
            <tspan x="52.0449219" y="89">Git Regular </tspan>
            <tspan x="64.7529297" y="123">Workflow</tspan>
        </text>
        <text id="—-git-add-—-git-stat" font-family="Helvetica" font-size="21" font-weight="normal" fill="#999999">
            <tspan x="260" y="150">— git add</tspan>
            <tspan x="260" y="175">— git status</tspan>
            <tspan x="260" y="200">— git commit</tspan>
            <tspan x="260" y="225">— git log</tspan>
            <tspan x="260" y="250">— git diff</tspan>
        </text>
        <text id="—-git-branch-—-git-c" font-family="Helvetica" font-size="21" font-weight="normal" fill="#0055C2">
            <tspan x="156" y="424">— git branch</tspan>
            <tspan x="156" y="449">— git checkout</tspan>
            <tspan x="156" y="474">— git switch</tspan>
            <tspan x="156" y="499">— git merge</tspan>
            <tspan x="156" y="524">— git rebase</tspan>
            <tspan x="156" y="549">— git stash</tspan>
        </text>
        <text id="—-git-remote-—-git-p" font-family="Helvetica" font-size="21" font-weight="normal" fill="#999999">
            <tspan x="425" y="424">— git remote</tspan>
            <tspan x="425" y="449">— git push</tspan>
            <tspan x="425" y="474">— git pull</tspan>
            <tspan x="425" y="499">— git fetch</tspan>
        </text>
    </g>
</svg>