<svg xmlns="http://www.w3.org/2000/svg" xmlns:xlink="http://www.w3.org/1999/xlink" version="1.1" width="1000" height="1000" viewBox="0 0 1000 1000" xml:space="preserve">
<desc>Created with Fabric.js 3.5.0</desc>
<defs>
</defs>
<rect x="0" y="0" width="100%" height="100%" fill="rgba(255,255,255,0)"/>
<g transform="matrix(1.1905 0 0 1.1905 522.9994 476.9345)" id="728428">
<g style="" vector-effect="non-scaling-stroke">
		<g transform="matrix(1 0 0 1 -450 -450)">
<rect style="stroke: none; stroke-width: 1; stroke-dasharray: none; stroke-linecap: butt; stroke-dashoffset: 0; stroke-linejoin: miter; stroke-miterlimit: 4; is-custom-font: none; font-file-url: none; fill: rgb(255,255,255); fill-opacity: 0; fill-rule: nonzero; opacity: 1;" x="-50" y="-50" rx="0" ry="0" width="100" height="100"/>
</g>
		<g transform="matrix(27.7582 0 0 27.7582 -19.0223 20.2686)" id="644660">
<path style="stroke: none; stroke-width: 1; stroke-dasharray: none; stroke-linecap: butt; stroke-dashoffset: 0; stroke-linejoin: miter; stroke-miterlimit: 4; is-custom-font: none; font-file-url: none; fill: rgb(57,181,74); fill-rule: nonzero; opacity: 1;" vector-effect="non-scaling-stroke" transform=" translate(-12.5, -15)" d="M 1.7866 30 C 1.47986 29.9991 1.17854 29.9245 0.911674 29.7833 C 0.635865 29.6386 0.406202 29.4281 0.246194 29.1733 C 0.0861867 28.9185 0.00158045 28.6287 0.00103521 28.3333 V 3.88333 C -0.0231026 2.88386 0.375696 1.91577 1.111 1.18887 C 1.84631 0.461973 2.85889 0.0348242 3.92928 0 H 21.0707 C 22.1411 0.0348242 23.1537 0.461973 23.889 1.18887 C 24.6243 1.91577 25.0231 2.88386 24.999 3.88333 V 28.3333 C 24.9971 28.6242 24.9137 28.9095 24.7571 29.161 C 24.6004 29.4124 24.376 29.6212 24.1062 29.7667 C 23.8347 29.9129 23.5268 29.99 23.2134 29.99 C 22.9 29.99 22.5921 29.9129 22.3206 29.7667 L 12.1965 24.4167 L 2.67938 29.75 C 2.41075 29.9056 2.10266 29.9919 1.7866 30 Z" stroke-linecap="round"/>
</g>
</g>
</g>
</svg>