<svg width="60" height="60" viewBox="0 0 60 60" fill="none" xmlns="http://www.w3.org/2000/svg">
<g clip-path="url(#clip0_636_2915)">
<path d="M7.5 7.5H52.5V52.5H7.5V7.5Z" fill="#ECEFF1"/>
<path d="M30 34.7325L52.5 52.5V17.4225L30 34.7325Z" fill="#CFD8DC"/>
<path d="M54.375 7.5H52.5L30 25.2675L7.5 7.5H5.625C4.13316 7.5 2.70242 8.09263 1.64752 9.14752C0.592632 10.2024 0 11.6332 0 13.125L0 46.875C0 48.3668 0.592632 49.7976 1.64752 50.8525C2.70242 51.9074 4.13316 52.5 5.625 52.5H7.5V17.4225L30 34.7287L52.5 17.4187V52.5H54.375C55.8668 52.5 57.2976 51.9074 58.3525 50.8525C59.4074 49.7976 60 48.3668 60 46.875V13.125C60 11.6332 59.4074 10.2024 58.3525 9.14752C57.2976 8.09263 55.8668 7.5 54.375 7.5Z" fill="#F44336"/>
</g>
<defs>
<clipPath id="clip0_636_2915">
<rect width="60" height="60" fill="white"/>
</clipPath>
</defs>
</svg>
