<svg width="50" height="50" viewBox="0 0 50 50" fill="none" xmlns="http://www.w3.org/2000/svg">
<path d="M25 50C38.8071 50 50 38.8071 50 25C50 11.1929 38.8071 0 25 0C11.1929 0 0 11.1929 0 25C0 38.8071 11.1929 50 25 50Z" fill="url(#paint0_linear_636_2927)"/>
<path d="M20.4169 36.4585C19.607 36.4585 19.7446 36.1526 19.4652 35.3815L17.0835 27.543L35.4169 16.6667" fill="#C8DAEA"/>
<path d="M20.4165 36.4582C21.0415 36.4582 21.3176 36.1725 21.6665 35.8332L24.9998 32.592L20.8419 30.0847" fill="#A9C9DD"/>
<path d="M20.8417 30.0854L30.9167 37.5289C32.0663 38.1633 32.8961 37.8348 33.1824 36.4615L37.2836 17.1359C37.7034 15.4525 36.6418 14.689 35.5419 15.1883L11.4607 24.4739C9.81697 25.1333 9.82656 26.0503 11.1611 26.4589L17.3409 28.3878L31.6478 19.3618C32.3232 18.9522 32.9431 19.1724 32.4343 19.6239" fill="url(#paint1_linear_636_2927)"/>
<defs>
<linearGradient id="paint0_linear_636_2927" x1="33.335" y1="8.335" x2="20.835" y2="37.5" gradientUnits="userSpaceOnUse">
<stop stop-color="#31AEFF"/>
<stop offset="1" stop-color="#1E80FF"/>
</linearGradient>
<linearGradient id="paint1_linear_636_2927" x1="28.1263" y1="25" x2="32.0388" y2="33.9025" gradientUnits="userSpaceOnUse">
<stop stop-color="#EFF7FC"/>
<stop offset="1" stop-color="white"/>
</linearGradient>
</defs>
</svg>
