<svg width="50" height="50" viewBox="0 0 50 50" fill="none" xmlns="http://www.w3.org/2000/svg">
<path d="M43.75 0H6.25C2.80312 0 0 2.80312 0 6.25V43.75C0 47.1969 2.80312 50 6.25 50H43.75C47.1969 50 50 47.1969 50 43.75V6.25C50 2.80312 47.1969 0 43.75 0Z" fill="#1976D2"/>
<path fill-rule="evenodd" clip-rule="evenodd" d="M42.1875 25H34.375V18.75C34.375 17.025 35.775 17.1875 37.5 17.1875H40.625V9.375H34.375C31.8886 9.375 29.504 10.3627 27.7459 12.1209C25.9877 13.879 25 16.2636 25 18.75V25H18.75V32.8125H25V50H34.375V32.8125H39.0625L42.1875 25Z" fill="#FAFAFA"/>
</svg>
