<svg width="200" height="117" viewBox="0 0 200 117" fill="none" xmlns="http://www.w3.org/2000/svg">
<path d="M150.743 16.9098C93.1857 16.9098 80.8015 50.0919 29.4606 61.8546C2.18002 68.0948 -14.4534 91.0794 17.3547 96.8619C34.0124 99.8884 53.188 94.3867 70.3238 96.6747C91.1156 99.4516 107.186 109.935 127.984 114.199C148.782 118.463 172.509 116.336 186.613 102.114C212.586 75.9314 200.837 16.9098 150.743 16.9098Z" fill="#D4EEFF"/>
<path d="M163.158 2.69935H50.9848C49.1635 2.69985 47.4084 3.38249 46.0654 4.61275C44.7224 5.84302 43.8889 7.53168 43.7292 9.34597L37.4886 80.9249C37.3999 81.9305 37.5214 82.9436 37.8454 83.8997C38.1694 84.8558 38.6887 85.734 39.3703 86.4786C40.052 87.2232 40.8811 87.8178 41.8049 88.2248C42.7288 88.6317 43.7272 88.8419 44.7367 88.8422H156.917C158.739 88.8434 160.495 88.1614 161.838 86.9308C163.182 85.7002 164.015 84.0105 164.173 82.1956L170.421 10.6091C170.509 9.60286 170.386 8.58938 170.06 7.63314C169.735 6.6769 169.214 5.79886 168.531 5.05487C167.848 4.31088 167.017 3.71723 166.092 3.3117C165.167 2.90617 164.168 2.69763 163.158 2.69935Z" fill="#346790"/>
<path d="M159.632 2.69175H47.4587C45.7664 2.69159 44.1271 3.28175 42.8232 4.36054C41.5193 5.43932 40.6326 6.93914 40.3158 8.60152C40.2707 8.84964 40.2331 9.09024 40.2106 9.3534L33.9549 80.9248C33.8674 81.9305 33.9899 82.9433 34.3148 83.899C34.6397 84.8548 35.1599 85.7324 35.8422 86.4763C36.5246 87.2202 37.3542 87.814 38.2784 88.22C39.2026 88.626 40.2011 88.8353 41.2106 88.8346H153.384C155.206 88.8393 156.964 88.1584 158.308 86.9272C159.652 85.6959 160.484 84.0042 160.639 82.188L166.917 10.609C167.005 9.60053 166.882 8.58479 166.555 7.62661C166.228 6.66842 165.706 5.78883 165.02 5.04391C164.335 4.29899 163.502 3.7051 162.574 3.30012C161.646 2.89513 160.644 2.68794 159.632 2.69175Z" fill="#D1D9E8"/>
<path d="M159.639 7.06022H47.4512C46.7204 7.05418 46.0145 7.32551 45.4759 7.81947C44.9373 8.31344 44.606 8.99328 44.549 9.72187L38.2933 81.3083C38.2601 81.7123 38.3108 82.1187 38.4422 82.5021C38.5736 82.8854 38.7829 83.2375 39.0568 83.5362C39.3308 83.8349 39.6635 84.0737 40.0342 84.2376C40.4048 84.4015 40.8053 84.487 41.2106 84.4888H153.384C154.115 84.4913 154.821 84.218 155.36 83.7233C155.9 83.2286 156.233 82.5489 156.293 81.8196L162.541 10.2407C162.577 9.83627 162.528 9.42892 162.397 9.04453C162.267 8.66014 162.058 8.30713 161.783 8.00797C161.509 7.70881 161.175 7.47005 160.803 7.30688C160.432 7.14371 160.03 7.05971 159.624 7.06022H159.639Z" fill="#143549"/>
<path d="M159.639 7.06022H47.451C46.7202 7.05418 46.0144 7.32551 45.4757 7.81947C44.9371 8.31344 44.6059 8.99328 44.5488 9.72187L44.1729 13.955H162.218L162.541 10.2407C162.577 9.83627 162.528 9.42892 162.397 9.04453C162.267 8.66014 162.057 8.30713 161.783 8.00797C161.509 7.70881 161.175 7.47005 160.803 7.30688C160.432 7.14371 160.03 7.05971 159.624 7.06022H159.639Z" fill="#7BC3F4"/>
<path d="M70.6541 12.3009H136.88L137.248 8.70691H71.03L70.6541 12.3009Z" fill="#387BFE"/>
<path d="M47.6013 9.39091C47.5529 9.34706 47.4899 9.32277 47.4246 9.32277C47.3593 9.32277 47.2963 9.34706 47.2479 9.39091C47.2024 9.43848 47.177 9.50177 47.177 9.5676C47.177 9.63343 47.2024 9.69672 47.2479 9.74429L49.5035 12.218C49.526 12.2412 49.5528 12.2596 49.5825 12.2722C49.6123 12.2848 49.6442 12.2913 49.6765 12.2913C49.7087 12.2913 49.7407 12.2848 49.7704 12.2722C49.8001 12.2596 49.827 12.2412 49.8494 12.218C49.8726 12.1955 49.891 12.1687 49.9036 12.139C49.9162 12.1093 49.9227 12.0773 49.9227 12.045C49.9227 12.0128 49.9162 11.9808 49.9036 11.9511C49.891 11.9214 49.8726 11.8945 49.8494 11.8721L47.6013 9.39091Z" fill="white"/>
<path d="M49.7217 9.39098L47.0375 11.8722C47.0147 11.8929 46.9963 11.9179 46.9833 11.9458C46.9702 11.9736 46.9628 12.0038 46.9614 12.0345C46.96 12.0652 46.9647 12.0959 46.9752 12.1248C46.9856 12.1537 47.0017 12.1803 47.0224 12.203C47.0431 12.2257 47.0682 12.2441 47.096 12.2572C47.1239 12.2702 47.154 12.2777 47.1847 12.279C47.2154 12.2804 47.2461 12.2758 47.275 12.2653C47.304 12.2548 47.3305 12.2388 47.3532 12.218L50.045 9.74437C50.0684 9.72128 50.087 9.69377 50.0997 9.66344C50.1124 9.63311 50.1189 9.60055 50.1189 9.56767C50.1189 9.53479 50.1124 9.50224 50.0997 9.47191C50.087 9.44157 50.0684 9.41407 50.045 9.39098C49.9988 9.35501 49.9419 9.33548 49.8833 9.33548C49.8248 9.33548 49.7679 9.35501 49.7217 9.39098ZM53.6014 9.13534C53.147 9.14242 52.7112 9.31648 52.377 9.62433C52.0428 9.93219 51.8336 10.3523 51.7893 10.8045C51.766 11.0154 51.7875 11.2289 51.8526 11.4309C51.9176 11.6329 52.0247 11.8188 52.1667 11.9765C52.3088 12.1341 52.4826 12.2599 52.6767 12.3456C52.8708 12.4313 53.0809 12.475 53.2931 12.4737C53.7474 12.4666 54.1833 12.2926 54.5175 11.9847C54.8517 11.6768 55.0608 11.2567 55.1051 10.8045C55.1285 10.5936 55.1069 10.3801 55.0419 10.1781C54.9768 9.97615 54.8698 9.79022 54.7277 9.63256C54.5857 9.4749 54.4119 9.34908 54.2178 9.26339C54.0236 9.17769 53.8136 9.13405 53.6014 9.13534ZM53.3382 12.0977C53.1732 12.0998 53.0096 12.0668 52.8582 12.0009C52.7069 11.9349 52.5713 11.8376 52.4604 11.7154C52.3495 11.5931 52.2659 11.4487 52.215 11.2917C52.1641 11.1346 52.1472 10.9686 52.1653 10.8045C52.202 10.4554 52.3653 10.1318 52.6244 9.89492C52.8834 9.65803 53.2203 9.52423 53.5713 9.5188C53.7356 9.51686 53.8985 9.54971 54.0493 9.61518C54.2 9.68065 54.3352 9.77727 54.446 9.89869C54.5568 10.0201 54.6406 10.1636 54.692 10.3197C54.7434 10.4758 54.7612 10.641 54.7442 10.8045C54.7092 11.155 54.5467 11.4804 54.2874 11.7188C54.0282 11.9573 53.6904 12.0921 53.3382 12.0977ZM59.7818 11.8346H56.7743C56.7222 11.8343 56.6718 11.8533 56.6329 11.8881C56.594 11.9228 56.5694 11.9707 56.5638 12.0226C56.5617 12.0465 56.5646 12.0706 56.5723 12.0934C56.5801 12.1161 56.5925 12.137 56.6088 12.1547C56.6251 12.1724 56.6448 12.1865 56.6669 12.1961C56.6889 12.2057 56.7127 12.2106 56.7367 12.2105H59.7442C59.7956 12.2107 59.845 12.1914 59.8827 12.1565C59.9204 12.1216 59.9434 12.0738 59.9472 12.0226C59.9505 11.999 59.9486 11.9751 59.9418 11.9523C59.9349 11.9296 59.9232 11.9086 59.9075 11.8907C59.8918 11.8729 59.8725 11.8586 59.8508 11.849C59.8291 11.8393 59.8056 11.8344 59.7818 11.8346ZM157.18 11.7218H154.173C154.121 11.7251 154.073 11.7466 154.035 11.7823C153.998 11.8181 153.975 11.866 153.97 11.9173C153.968 11.9412 153.971 11.9654 153.978 11.9881C153.986 12.0109 153.999 12.0317 154.015 12.0494C154.031 12.0671 154.051 12.0812 154.073 12.0908C154.095 12.1004 154.119 12.1054 154.143 12.1053H157.15C157.201 12.1037 157.25 12.0839 157.287 12.0493C157.324 12.0148 157.348 11.9679 157.353 11.9173C157.356 11.8928 157.354 11.8678 157.347 11.8442C157.34 11.8205 157.328 11.7987 157.311 11.7802C157.295 11.7616 157.275 11.7468 157.252 11.7368C157.23 11.7267 157.205 11.7216 157.18 11.7218ZM157.278 10.6165H154.271C154.22 10.6181 154.171 10.6379 154.134 10.6725C154.097 10.7071 154.073 10.7539 154.068 10.8045C154.065 10.8285 154.068 10.8526 154.076 10.8753C154.084 10.8981 154.096 10.919 154.113 10.9366C154.129 10.9543 154.149 10.9684 154.171 10.978C154.193 10.9877 154.216 10.9926 154.24 10.9925H157.248C157.299 10.9926 157.349 10.9733 157.386 10.9384C157.424 10.9036 157.447 10.8557 157.451 10.8045C157.453 10.7806 157.45 10.7565 157.442 10.7337C157.435 10.711 157.422 10.6901 157.406 10.6724C157.39 10.6547 157.37 10.6406 157.348 10.631C157.326 10.6214 157.302 10.6165 157.278 10.6165ZM157.376 9.51128H154.368C154.317 9.51114 154.267 9.53045 154.23 9.56533C154.192 9.60021 154.169 9.64806 154.165 9.69925C154.163 9.72319 154.166 9.74731 154.174 9.77006C154.182 9.79281 154.194 9.81369 154.21 9.83138C154.227 9.84906 154.246 9.86316 154.268 9.87278C154.29 9.88239 154.314 9.88731 154.338 9.88722H157.346C157.397 9.88736 157.447 9.86805 157.484 9.83317C157.522 9.7983 157.545 9.75045 157.549 9.69925C157.551 9.67531 157.548 9.6512 157.54 9.62845C157.532 9.6057 157.52 9.58482 157.504 9.56713C157.487 9.54944 157.468 9.53534 157.446 9.52573C157.424 9.51611 157.4 9.51119 157.376 9.51128Z" fill="white"/>
<path fill-rule="evenodd" clip-rule="evenodd" d="M45.3834 49.1429C45.4198 49.0792 45.4429 49.0087 45.4513 48.9357C45.4597 48.8628 45.4531 48.7889 45.432 48.7185C45.4109 48.6482 45.3757 48.5829 45.3286 48.5266C45.2814 48.4703 45.2233 48.4242 45.1578 48.391C45.3232 48.1053 45.0676 47.9023 44.812 47.8722C45.0901 47.4211 45.2856 47.0226 44.8796 46.9098C44.6841 46.8497 43.9999 48.0827 43.6916 48.5038C43.4805 48.8043 43.3953 49.1755 43.4543 49.5381C43.5133 49.9006 43.7119 50.2256 44.0074 50.4437C44.2336 50.5519 44.4889 50.5834 44.7346 50.5331C44.9803 50.4829 45.2028 50.3538 45.3683 50.1655C45.7217 49.7068 45.7593 49.3685 45.3834 49.1429Z" fill="#F0BF97"/>
<path d="M157.248 18.7594H134.932C134.629 18.7639 134.337 18.8809 134.115 19.0879C133.893 19.2949 133.755 19.5771 133.729 19.8797C133.717 20.024 133.734 20.1693 133.781 20.3063C133.828 20.4433 133.903 20.569 134.002 20.6752C134.1 20.7815 134.22 20.8659 134.353 20.9231C134.486 20.9804 134.63 21.0091 134.774 21.0075H157.09C157.395 21.0012 157.686 20.8825 157.908 20.6743C158.13 20.4661 158.267 20.183 158.293 19.8797C158.305 19.736 158.286 19.5915 158.239 19.4554C158.191 19.3193 158.116 19.1945 158.018 19.0891C157.919 18.9837 157.8 18.9 157.668 18.8432C157.535 18.7864 157.392 18.7579 157.248 18.7594ZM157.09 24.6015H152.579C152.342 24.6078 152.115 24.7009 151.942 24.863C151.769 25.0251 151.661 25.245 151.639 25.4812C151.63 25.593 151.644 25.7056 151.68 25.8117C151.717 25.9178 151.775 26.015 151.852 26.0971C151.928 26.1793 152.021 26.2445 152.124 26.2886C152.228 26.3328 152.339 26.3548 152.451 26.3534H156.962C157.199 26.3504 157.425 26.2593 157.597 26.0979C157.77 25.9366 157.876 25.7166 157.895 25.4812C157.905 25.3694 157.892 25.2567 157.856 25.1502C157.821 25.0437 157.763 24.9459 157.687 24.8631C157.612 24.7802 157.519 24.7141 157.416 24.6691C157.314 24.624 157.202 24.601 157.09 24.6015Z" fill="#387BFE"/>
<path d="M156.308 30.0678H139.767C139.619 30.0691 139.478 30.1252 139.369 30.2253C139.261 30.3254 139.193 30.4622 139.18 30.6092C139.175 30.6791 139.185 30.7493 139.208 30.8153C139.231 30.8814 139.268 30.9418 139.316 30.9927C139.365 31.0437 139.423 31.084 139.487 31.1112C139.552 31.1384 139.622 31.1518 139.692 31.1505H156.233C156.379 31.1474 156.519 31.0904 156.626 30.9905C156.733 30.8906 156.799 30.7548 156.812 30.6092C156.818 30.5397 156.81 30.4696 156.787 30.4036C156.765 30.3375 156.729 30.277 156.681 30.2259C156.634 30.1748 156.576 30.1343 156.511 30.1071C156.447 30.0798 156.378 30.0665 156.308 30.0678ZM156 34.4964H139.459C139.313 34.5011 139.174 34.5586 139.067 34.6582C138.961 34.7578 138.894 34.8927 138.88 35.0377C138.874 35.108 138.884 35.1785 138.907 35.245C138.931 35.3114 138.967 35.3723 139.015 35.4238C139.063 35.4754 139.122 35.5164 139.186 35.5444C139.251 35.5724 139.32 35.5868 139.391 35.5866H155.932C156.08 35.5835 156.222 35.5257 156.331 35.4244C156.439 35.3231 156.506 35.1854 156.519 35.0377C156.524 34.9672 156.514 34.8963 156.491 34.8298C156.467 34.7632 156.429 34.7024 156.38 34.6513C156.331 34.6003 156.272 34.5601 156.207 34.5334C156.141 34.5067 156.071 34.4941 156 34.4964ZM155.684 38.925H139.143C138.996 38.9299 138.856 38.9885 138.749 39.0896C138.643 39.1907 138.577 39.3274 138.564 39.4738C138.559 39.5431 138.568 39.6126 138.591 39.6782C138.614 39.7437 138.65 39.8038 138.697 39.8546C138.745 39.9054 138.802 39.9459 138.866 39.9736C138.929 40.0012 138.998 40.0154 139.068 40.0152H155.609C155.756 40.0122 155.897 39.9555 156.005 39.8558C156.113 39.756 156.181 39.6202 156.195 39.4738C156.201 39.4036 156.191 39.333 156.168 39.2666C156.144 39.2002 156.108 39.1393 156.06 39.0877C156.012 39.0362 155.953 38.9951 155.889 38.9671C155.824 38.9391 155.755 38.9248 155.684 38.925ZM155.376 43.361H138.835C138.688 43.3625 138.547 43.4189 138.44 43.5191C138.333 43.6193 138.267 43.7561 138.256 43.9024C138.249 43.9719 138.258 44.0419 138.28 44.108C138.303 44.174 138.339 44.2346 138.386 44.2857C138.434 44.3367 138.492 44.3772 138.556 44.4045C138.62 44.4317 138.69 44.4451 138.759 44.4438H155.301C155.448 44.4425 155.59 44.3863 155.698 44.2863C155.807 44.1862 155.874 44.0494 155.887 43.9024C155.892 43.8325 155.883 43.7623 155.86 43.6963C155.836 43.6302 155.799 43.5698 155.751 43.5188C155.703 43.4679 155.645 43.4275 155.58 43.4004C155.516 43.3732 155.446 43.3598 155.376 43.361ZM155.068 47.7896H149.511C149.364 47.7909 149.222 47.847 149.113 47.9471C149.005 48.0472 148.938 48.184 148.925 48.331C148.92 48.4009 148.929 48.4711 148.952 48.5371C148.976 48.6032 149.013 48.6636 149.061 48.7145C149.109 48.7655 149.167 48.8058 149.232 48.833C149.296 48.8602 149.366 48.8736 149.436 48.8723H154.992C155.14 48.8726 155.282 48.8168 155.389 48.7163C155.497 48.6157 155.562 48.4779 155.571 48.331C155.578 48.2615 155.569 48.1914 155.547 48.1254C155.524 48.0593 155.488 47.9988 155.44 47.9477C155.393 47.8966 155.335 47.8561 155.271 47.8289C155.207 47.8017 155.137 47.7883 155.068 47.7896ZM145.361 47.7896H144.068C143.921 47.7927 143.781 47.8497 143.675 47.9496C143.568 48.0495 143.502 48.1853 143.489 48.331C143.482 48.4005 143.491 48.4705 143.513 48.5366C143.536 48.6026 143.572 48.6631 143.62 48.7142C143.667 48.7653 143.725 48.8058 143.789 48.833C143.853 48.8603 143.923 48.8737 143.992 48.8723H145.286C145.433 48.871 145.575 48.8149 145.683 48.7148C145.792 48.6148 145.859 48.4779 145.872 48.331C145.877 48.2611 145.868 48.1909 145.845 48.1248C145.821 48.0588 145.784 47.9984 145.736 47.9474C145.688 47.8965 145.63 47.8561 145.565 47.8289C145.5 47.8018 145.431 47.7884 145.361 47.7896ZM154.759 52.2483H138.218C138.07 52.2499 137.928 52.3073 137.821 52.4091C137.713 52.5109 137.649 52.6495 137.639 52.7971C137.633 52.8666 137.641 52.9367 137.664 53.0027C137.686 53.0688 137.722 53.1293 137.77 53.1804C137.817 53.2315 137.875 53.272 137.939 53.2992C138.004 53.3265 138.073 53.3398 138.143 53.3385H154.684C154.831 53.337 154.972 53.2806 155.079 53.1804C155.186 53.0802 155.252 52.9434 155.263 52.7971C155.269 52.7273 155.261 52.6569 155.239 52.5905C155.216 52.524 155.18 52.463 155.132 52.4114C155.085 52.3597 155.027 52.3185 154.963 52.2904C154.899 52.2623 154.829 52.248 154.759 52.2483Z" fill="#4AF6D1"/>
<path d="M151.632 77.1202H146.616C146.412 77.1231 146.216 77.2015 146.066 77.3403C145.916 77.4792 145.823 77.6686 145.804 77.8721C145.797 77.9689 145.81 78.0662 145.842 78.1577C145.875 78.2492 145.926 78.333 145.992 78.4037C146.059 78.4745 146.139 78.5306 146.229 78.5685C146.318 78.6064 146.414 78.6253 146.511 78.624H151.526C151.731 78.6211 151.927 78.5427 152.077 78.4039C152.226 78.265 152.32 78.0756 152.338 77.8721C152.346 77.7753 152.333 77.6781 152.3 77.5865C152.268 77.495 152.217 77.4112 152.151 77.3405C152.084 77.2698 152.004 77.2137 151.914 77.1757C151.825 77.1378 151.729 77.1189 151.632 77.1202ZM151.88 73.5037H146.857C146.654 73.5084 146.46 73.5876 146.312 73.7263C146.163 73.8649 146.071 74.0533 146.053 74.2556C146.045 74.3517 146.058 74.4483 146.09 74.5393C146.122 74.6304 146.172 74.7138 146.238 74.7844C146.303 74.855 146.383 74.9113 146.471 74.9497C146.56 74.988 146.655 75.0077 146.752 75.0074H151.774C151.977 75.0027 152.172 74.9235 152.32 74.7849C152.468 74.6462 152.56 74.4578 152.579 74.2556C152.586 74.1594 152.573 74.0628 152.542 73.9718C152.51 73.8808 152.459 73.7973 152.394 73.7267C152.328 73.6561 152.248 73.5999 152.16 73.5615C152.071 73.5231 151.976 73.5034 151.88 73.5037ZM152.135 69.8871H147.12C146.916 69.89 146.72 69.9684 146.57 70.1073C146.42 70.2461 146.327 70.4355 146.308 70.639C146.302 70.7356 146.316 70.8323 146.348 70.9234C146.381 71.0144 146.432 71.0977 146.499 71.1682C146.565 71.2387 146.645 71.2948 146.734 71.3331C146.822 71.3714 146.918 71.3911 147.015 71.3909H152.03C152.234 71.388 152.43 71.3096 152.58 71.1708C152.73 71.032 152.823 70.8425 152.842 70.639C152.849 70.5422 152.836 70.445 152.804 70.3534C152.772 70.2619 152.721 70.1781 152.654 70.1074C152.588 70.0367 152.507 69.9806 152.418 69.9426C152.329 69.9047 152.232 69.8858 152.135 69.8871ZM152.391 66.2706H147.368C147.164 66.2735 146.968 66.3519 146.818 66.4907C146.668 66.6296 146.575 66.819 146.556 67.0225C146.549 67.1193 146.562 67.2165 146.594 67.3081C146.627 67.3996 146.678 67.4834 146.744 67.5541C146.811 67.6248 146.891 67.6809 146.98 67.7189C147.07 67.7568 147.166 67.7757 147.263 67.7744H152.278C152.482 67.7715 152.678 67.6931 152.828 67.5542C152.978 67.4154 153.072 67.226 153.09 67.0225C153.097 66.9263 153.085 66.8297 153.053 66.7387C153.021 66.6477 152.971 66.5643 152.905 66.4937C152.839 66.423 152.76 66.3668 152.671 66.3284C152.583 66.29 152.487 66.2703 152.391 66.2706ZM141.932 66.2706H138.684C138.48 66.2735 138.284 66.3519 138.134 66.4907C137.984 66.6296 137.891 66.819 137.872 67.0225C137.865 67.1193 137.878 67.2165 137.91 67.3081C137.942 67.3996 137.993 67.4834 138.06 67.5541C138.126 67.6248 138.207 67.6809 138.296 67.7189C138.386 67.7568 138.482 67.7757 138.579 67.7744H141.827C142.031 67.7715 142.227 67.6931 142.377 67.5542C142.527 67.4154 142.62 67.226 142.639 67.0225C142.648 66.9254 142.635 66.8277 142.604 66.7356C142.572 66.6436 142.521 66.5593 142.454 66.4883C142.387 66.4174 142.306 66.3613 142.216 66.3237C142.126 66.2862 142.03 66.2681 141.932 66.2706ZM141.353 74.2706H138.105C137.901 74.2735 137.705 74.3519 137.555 74.4907C137.405 74.6296 137.312 74.819 137.293 75.0225C137.285 75.1195 137.297 75.2173 137.329 75.3093C137.361 75.4014 137.412 75.4857 137.478 75.5566C137.545 75.6276 137.626 75.6837 137.716 75.7212C137.806 75.7587 137.903 75.7769 138 75.7744H141.248C141.452 75.7715 141.648 75.6931 141.798 75.5542C141.948 75.4154 142.042 75.226 142.06 75.0225C142.067 74.9257 142.054 74.8284 142.022 74.7369C141.99 74.6454 141.939 74.5616 141.872 74.4909C141.806 74.4201 141.725 74.364 141.636 74.3261C141.547 74.2882 141.45 74.2693 141.353 74.2706Z" fill="#7BC3F4"/>
<path fill-rule="evenodd" clip-rule="evenodd" d="M138.165 47.4512C137.764 46.6283 137.202 45.8945 136.511 45.2933C136.158 44.97 135.504 44.4362 135.173 44.1505C134.842 43.8648 134.526 44.534 134.865 44.9024C134.639 44.9776 134.398 45.5189 134.601 45.7445C134.488 45.859 134.414 46.0072 134.391 46.167C134.368 46.3267 134.397 46.4897 134.474 46.6317C134.173 46.9024 134.21 47.2934 134.616 47.6317C135.022 47.97 135.466 48.5415 136.624 49.5565C136.812 49.7294 137.12 50.143 137.286 50.3084C137.838 49.6221 138.444 48.9809 139.098 48.3911C138.872 48.1956 138.346 47.8723 138.165 47.4512Z" fill="#E8D7B9"/>
<path fill-rule="evenodd" clip-rule="evenodd" d="M135.474 45.4211C135.437 46.2235 135.105 46.984 134.541 47.5564C134.776 47.754 135 47.9648 135.21 48.188C135.379 48.3612 135.598 48.4758 135.836 48.5151C136.074 48.5543 136.319 48.5161 136.534 48.406C136.733 48.3212 136.943 48.2631 137.158 48.2331C137.564 48.173 137.714 47.6391 137.511 47.2557C137.03 46.3684 135.481 45.0752 135.474 45.4211Z" fill="#F0BF97"/>
<path fill-rule="evenodd" clip-rule="evenodd" d="M134.647 46.8045C134.624 46.7768 134.596 46.7539 134.564 46.7371C134.533 46.7202 134.498 46.7098 134.463 46.7063C134.427 46.7028 134.391 46.7063 134.357 46.7167C134.323 46.7271 134.291 46.7442 134.263 46.7669C134.235 46.7896 134.213 46.8175 134.196 46.8491C134.179 46.8807 134.168 46.9152 134.165 46.9508C134.161 46.9864 134.165 47.0224 134.175 47.0566C134.186 47.0909 134.203 47.1227 134.225 47.1503C134.225 47.1503 135.098 48.2631 135.451 48.2932C135.549 48.2932 135.699 48.1579 135.601 48.0451L134.647 46.8045ZM133.789 42.8797C133.639 42.7293 133.428 42.9248 133.428 43.0526C133.428 43.5564 134.865 44.8947 134.865 44.8947C134.936 44.9645 135.033 45.0029 135.133 45.0015C135.183 45.0008 135.232 44.9904 135.277 44.9707C135.323 44.9511 135.364 44.9227 135.398 44.8872C135.433 44.8516 135.46 44.8096 135.478 44.7636C135.497 44.7175 135.506 44.6683 135.505 44.6187C135.504 44.5691 135.494 44.5202 135.474 44.4747C135.455 44.4291 135.426 44.3879 135.391 44.3534L133.789 42.8797ZM135.143 45.1804C135.065 45.1168 134.966 45.0859 134.867 45.0943C134.767 45.1027 134.674 45.1498 134.609 45.2255C134.576 45.2623 134.551 45.3052 134.535 45.3518C134.52 45.3983 134.513 45.4476 134.517 45.4966C134.52 45.5457 134.534 45.5935 134.556 45.6374C134.578 45.6812 134.609 45.7201 134.647 45.7518C134.647 45.7518 136.113 47.0676 136.609 47.0225C136.737 47.0225 136.91 46.7819 136.752 46.6466L135.143 45.1804Z" fill="#E8D7B9"/>
<path fill-rule="evenodd" clip-rule="evenodd" d="M134.992 46.0076C134.961 45.9758 134.924 45.9505 134.882 45.9333C134.841 45.916 134.797 45.9071 134.752 45.9071C134.707 45.9071 134.663 45.916 134.621 45.9333C134.58 45.9505 134.543 45.9758 134.511 46.0076C134.478 46.0385 134.452 46.0758 134.435 46.1172C134.417 46.1586 134.407 46.2031 134.407 46.2482C134.407 46.2933 134.417 46.3378 134.435 46.3792C134.452 46.4206 134.478 46.4579 134.511 46.4888C134.511 46.4888 135.842 47.6843 136.293 47.6467C136.413 47.6467 136.571 47.4287 136.429 47.3008L134.992 46.0076Z" fill="#E8D7B9"/>
<path d="M40.2935 84.2105H94.3912L100.241 17.1353H46.1506L40.2935 84.2105Z" fill="#4AF6D1"/>
<path d="M89.4133 82.4887L136.586 80.579L141.992 0.503784L94.3381 18.4963L89.4133 82.4887Z" fill="#4AF6D1"/>
<path d="M48.1203 18.5866L42.5112 82.7671H88.8872L94.4887 18.5866C80.5112 9.81217 61.3082 18.5866 48.1203 18.5866Z" fill="white"/>
<path d="M42.8573 79.0826L42.5415 82.7668H88.9099L89.2332 79.0826C75.2257 70.2932 56.0302 79.0826 42.8573 79.0826Z" fill="white"/>
<path d="M42.8573 79.0826L42.5415 82.7668H88.9099L89.2332 79.0826C75.2257 70.2932 56.0302 79.0826 42.8573 79.0826Z" fill="#E9F6FF"/>
<path d="M89.2781 82.4887L131.068 79.1353L136.451 1.26317L94.4736 18.5113L89.2781 82.4887Z" fill="#E9F6FF"/>
<path d="M89.2781 82.4887L126.015 79.1729L131.556 0.669159L94.4736 18.5113L89.2781 82.4887Z" fill="#7BC3F4"/>
<path d="M89.2781 82.4887L120.361 79.218L126.083 0L94.4736 18.5113L89.2781 82.4887Z" fill="#E9F6FF"/>
<path d="M131.068 79.1354L134.714 79.1053L139.985 1.69174L136.451 1.26317L131.068 79.1354Z" fill="#7BC3F4"/>
<path d="M136.586 80.579L138.526 80.5564L143.872 0.729348L141.992 0.503784L136.586 80.579Z" fill="#3BC3A6"/>
<path fill-rule="evenodd" clip-rule="evenodd" d="M53.4286 22.1729C55.4888 22.0075 57.5489 21.8647 59.6091 21.7444C59.6467 21.2105 59.6918 20.6842 59.7294 20.1504C57.6692 20.2707 55.6066 20.4135 53.5414 20.5789L53.4286 22.1729ZM53.2181 24.9549C56.3209 24.7043 59.4236 24.5113 62.5264 24.3759C62.564 23.8421 62.6091 23.3083 62.6542 22.782C59.5564 22.9173 56.4437 23.1128 53.3384 23.3609C53.2933 23.8947 53.2557 24.4286 53.2181 24.9549ZM61.9775 21.6165C64.9349 21.4712 67.8772 21.381 70.8046 21.3459L70.9399 19.7368C68.0076 19.782 65.0627 19.8747 62.1053 20.015C62.0677 20.5489 62.0226 21.0827 61.9775 21.6165ZM72.1053 21.3308C73.7043 21.3308 75.3033 21.3308 76.9023 21.3308C76.9474 20.797 76.9925 20.2632 77.0452 19.7293C75.4437 19.7293 73.8497 19.7293 72.2482 19.7293C72.1805 20.2556 72.1805 20.7895 72.1053 21.3308ZM78.4136 21.3534C80.3534 21.3885 82.2908 21.4436 84.2256 21.5188C84.2707 20.985 84.3234 20.4436 84.3685 19.9098C82.4336 19.8346 80.4963 19.7794 78.5564 19.7444C78.5113 20.2857 78.4587 20.8195 78.4136 21.3534ZM70.9249 22.5414L70.7895 24.1429C74.2031 24.1078 77.5991 24.1378 80.9775 24.2331C81.0301 23.6993 81.0752 23.1654 81.1279 22.6241C77.7394 22.5338 74.3384 22.5063 70.9249 22.5414ZM53.0076 27.7368C55.0577 27.5714 57.1103 27.4336 59.1655 27.3233C59.2106 26.7895 59.2482 26.2632 59.2933 25.7293C57.2382 25.8446 55.183 25.9825 53.1279 26.1429C53.0828 26.6842 53.0452 27.203 53.0076 27.7368ZM52.797 30.5263C58.9725 30.0251 65.1204 29.7744 71.2407 29.7744L71.376 28.1729C65.2557 28.183 59.1028 28.4386 52.9174 28.9399C52.8722 29.4662 52.8346 29.9925 52.797 30.5263ZM61.5339 27.203C65.3133 27.0326 69.0727 26.9424 72.8121 26.9323L72.9474 25.3308C69.188 25.3308 65.4136 25.4211 61.6241 25.6015C61.6542 26.1353 61.579 26.6842 61.5339 27.203ZM74.6542 26.9399C76.6767 26.9399 78.7068 26.985 80.7219 27.0451C80.7745 26.5113 80.8196 25.9699 80.8722 25.4361C78.8672 25.3759 76.8397 25.3409 74.7895 25.3308L74.6542 26.9399ZM82.7895 27.1203C85.2557 27.2105 87.7219 27.3459 90.173 27.5113C90.2256 26.9774 90.2783 26.4361 90.3234 25.9023C87.8722 25.7293 85.4061 25.6015 82.9399 25.5038C82.8873 26.0451 82.8422 26.5789 82.7895 27.1203ZM73.0452 29.7444C76.5188 29.7444 79.9925 29.8271 83.4437 29.9774C83.4888 29.4361 83.5414 28.9023 83.594 28.3609C80.1354 28.2206 76.6642 28.1454 73.1805 28.1353L73.0452 29.7444ZM64.1279 24.3083C65.6316 24.2531 67.1554 24.2105 68.6993 24.1805L68.8346 22.5789C67.3309 22.609 65.8046 22.6541 64.2557 22.7143C64.2106 23.2481 64.1655 23.782 64.1279 24.3083ZM51.1279 52.1805C53.1329 52.0451 55.158 51.9273 57.2031 51.8271L57.3309 50.2331C55.3259 50.3233 53.3008 50.4411 51.2557 50.5865C51.2106 51.1203 51.173 51.6541 51.1279 52.1805ZM50.9098 54.9774C53.9675 54.7669 57.0176 54.609 60.0602 54.5038C60.1053 53.9699 60.1429 53.4361 60.188 52.9023C57.1504 53.0075 54.1003 53.1679 51.0377 53.3835C50.9925 53.9098 50.9549 54.4436 50.9098 54.9774ZM59.5339 51.7293C62.4361 51.6165 65.3234 51.5639 68.2031 51.5564C68.2557 51.0226 68.3008 50.4812 68.3459 49.9474C65.4587 49.9474 62.5715 50.0226 59.6692 50.1278L59.5339 51.7293ZM69.4888 51.5564C71.0602 51.5564 72.6241 51.5564 74.1955 51.609C74.2407 51.0752 74.2933 50.5338 74.3384 50C72.7745 50 71.2031 49.9474 69.6316 49.9474C69.579 50.4812 69.5339 51.015 69.4888 51.5564ZM75.6767 51.6466C77.5865 51.6967 79.4888 51.7719 81.3835 51.8722C81.4361 51.3308 81.4888 50.797 81.5339 50.2556C79.6392 50.1579 77.7369 50.0902 75.8271 50.0376C75.7745 50.5714 75.7294 51.1053 75.6767 51.6466ZM68.1805 54.3609C71.5239 54.3609 74.8597 54.4261 78.188 54.5564C78.2331 54.0226 78.2858 53.4812 78.3384 52.9474C75.0051 52.812 71.6667 52.7494 68.3234 52.7594C68.2707 53.2932 68.2256 53.8271 68.1805 54.3609ZM50.6918 57.7594C52.7143 57.6241 54.7369 57.5113 56.7444 57.4211L56.8798 55.8195C54.8647 55.9098 52.8422 56.0301 50.8196 56.1654C50.7745 56.6992 50.7369 57.2331 50.6918 57.7594ZM50.4737 60.5564C56.5489 60.1404 62.589 59.9474 68.594 59.9774C68.6467 59.4436 68.6918 58.9098 68.7369 58.3759C62.7219 58.3459 56.6768 58.5414 50.6016 58.9624C50.5564 59.4887 50.5189 60.0226 50.4737 60.5564ZM59.0752 57.3233C62.7895 57.198 66.4938 57.1479 70.188 57.1729C70.2331 56.6391 70.2858 56.1053 70.3309 55.5714C66.6391 55.5714 62.9249 55.5714 59.2106 55.7218L59.0752 57.3233ZM71.9625 57.203C73.9474 57.203 75.9399 57.2857 77.9249 57.3684C77.97 56.8346 78.0226 56.2932 78.0752 55.7594C76.0702 55.6742 74.0803 55.619 72.1053 55.594C72.0527 56.1278 72.0076 56.6617 71.9625 57.203ZM79.9474 57.4586C82.3735 57.5789 84.7895 57.7343 87.1955 57.9248L87.3534 56.3158C84.9474 56.1203 82.5264 55.9699 80.1053 55.8496L79.9474 57.4586ZM70.3685 59.9925C73.782 60.0376 77.188 60.1429 80.579 60.3308C80.6241 59.7895 80.6767 59.2556 80.7294 58.7143C77.3409 58.5338 73.9349 58.4261 70.5113 58.391C70.4587 58.9248 70.4136 59.4586 70.3685 59.9925ZM61.6542 54.4586C63.158 54.4135 64.6617 54.391 66.1655 54.3759C66.2106 53.8421 66.2557 53.3083 66.3083 52.7669C64.8046 52.7669 63.3008 52.812 61.7971 52.8571L61.6542 54.4586ZM50.2331 63.6241C52.2381 63.4887 54.2432 63.3784 56.2482 63.2932L56.3835 61.6917C54.3785 61.782 52.3735 61.8947 50.3685 62.0301C50.3159 62.5564 50.2707 63.0902 50.2331 63.6241ZM50.0076 66.4135C53.0452 66.218 56.0752 66.0752 59.0978 65.985L59.2331 64.3835C56.2256 64.4737 53.193 64.619 50.1354 64.8195C50.0978 65.3534 50.0527 65.8872 50.0076 66.4135ZM58.5865 63.203C61.4587 63.1078 64.3284 63.0627 67.1955 63.0677C67.2407 62.5263 67.2858 61.9925 67.3384 61.4586C64.4712 61.4586 61.5965 61.5063 58.7143 61.6015C58.6467 62.1353 58.6467 62.6692 58.5865 63.203ZM68.4662 63.0677C70.0226 63.0677 71.5865 63.0677 73.1354 63.1429C73.188 62.609 73.2407 62.0677 73.2858 61.5338C71.7319 61.4987 70.173 61.4762 68.6091 61.4662C68.564 62.0226 68.5113 62.5338 68.4662 63.0677ZM74.6166 63.188C76.5038 63.2406 78.376 63.3233 80.2783 63.4286L80.4361 61.8196C78.5514 61.7143 76.6617 61.6341 74.767 61.5789C74.7143 62.1128 74.6617 62.6466 74.6166 63.188ZM67.1655 65.8722C70.4888 65.8722 73.7995 65.9499 77.0978 66.1053C77.1504 65.5714 77.1955 65.0376 77.2482 64.4962C73.9449 64.3509 70.6316 64.2757 67.3083 64.2707C67.2557 64.8045 67.2106 65.3383 67.1655 65.8722ZM49.7895 69.203C51.7945 69.0727 53.7996 68.9674 55.8046 68.8872C55.8497 68.3534 55.8948 67.8195 55.9324 67.2857C53.9274 67.3659 51.9224 67.4737 49.9173 67.609C49.8722 68.1353 49.8346 68.6692 49.7895 69.203ZM49.564 72C55.579 71.609 61.579 71.4411 67.564 71.4962C67.6166 70.9624 67.6617 70.4286 67.7068 69.8947C61.7369 69.8446 55.7219 70.0125 49.6617 70.3985C49.6241 70.9323 49.6241 71.4662 49.564 72ZM58.2482 67.203L58.1128 68.7895C61.8021 68.6692 65.4813 68.6341 69.1504 68.6842C69.2031 68.1504 69.2482 67.6165 69.2933 67.0752C65.6291 67.0401 61.9474 67.0827 58.2482 67.203ZM70.9098 68.7293C72.8848 68.7694 74.8597 68.8346 76.8346 68.9248L76.985 67.3083C75.0151 67.2256 73.0376 67.1579 71.0602 67.1203C71.0076 67.6541 70.9625 68.1955 70.9098 68.7293ZM78.8422 69.0226C81.2482 69.1479 83.6467 69.3108 86.0376 69.5113C86.0903 68.9774 86.1504 68.4361 86.2031 67.8947C83.8121 67.6992 81.4061 67.5338 79.0001 67.406L78.8422 69.0226ZM69.3234 71.5188C72.7168 71.5739 76.0978 71.6992 79.4662 71.8947C79.5113 71.3534 79.564 70.8196 79.6166 70.2782C76.2482 70.0927 72.8647 69.9699 69.4662 69.9098C69.4211 70.4436 69.3685 70.985 69.3234 71.5188ZM60.6617 65.9398C62.1655 65.9098 63.6542 65.8897 65.1279 65.8797L65.2632 64.2782C63.7595 64.2782 62.2707 64.3008 60.797 64.3459L60.6617 65.9398ZM58.0978 35.7068C59.8873 35.609 61.6767 35.5263 63.4587 35.4737L63.594 33.8722C61.8046 33.9323 60.0151 34.01 58.2256 34.1053C58.1805 34.6617 58.1354 35.1955 58.0978 35.7068ZM66.4437 33.812L66.3083 35.4135C71.7068 35.3033 77.0752 35.3609 82.4136 35.5865C82.4662 35.0526 82.5189 34.5113 82.564 33.9774C77.2256 33.7519 71.8522 33.6967 66.4437 33.812ZM52.1579 38.8797C55.6316 38.6241 59.0978 38.4286 62.5564 38.3158C62.594 37.782 62.6392 37.2481 62.6843 36.7143C59.2256 36.8346 55.7569 37.0276 52.2783 37.2932C52.2331 37.8195 52.1955 38.3534 52.1579 38.8797ZM51.9399 41.6767C55.8046 41.391 59.6567 41.1905 63.4963 41.0752L63.6316 39.4737C59.792 39.589 55.9374 39.792 52.0677 40.0827C52.0226 40.609 51.985 41.1429 51.9399 41.6767ZM51.7294 44.4662C54.3986 44.2707 57.0677 44.1128 59.7294 44.0075C59.7745 43.4662 59.8196 42.9323 59.8572 42.3985C57.1955 42.5138 54.5264 42.6692 51.8497 42.8647C51.8121 43.3985 51.767 43.9323 51.7294 44.4662ZM65.97 39.4211L65.8346 41.0226C68.7118 40.9875 71.579 40.9699 74.4361 40.9699C74.4888 40.4361 74.5339 39.8947 74.579 39.3609C71.7269 39.3459 68.8572 39.3659 65.97 39.4211ZM61.6542 42.3308L61.5189 43.9323C66.4813 43.7619 71.4211 43.7368 76.3384 43.8571C76.3835 43.3158 76.4361 42.782 76.4813 42.2406C71.569 42.1203 66.6266 42.1504 61.6542 42.3308ZM77.7971 43.8947C79.1354 43.9398 80.4737 43.9925 81.8046 44.0526C81.8572 43.5113 81.9098 42.9699 81.9549 42.4361C80.6241 42.3684 79.2858 42.3233 77.9474 42.2782C77.8948 42.8196 77.8497 43.3609 77.7971 43.8947ZM57.7745 46.8722C60.2557 46.7519 62.7319 46.6717 65.2031 46.6316L65.3384 45.0226C62.8672 45.0777 60.3885 45.1629 57.9023 45.2782C57.8948 45.8045 57.8196 46.3383 57.7745 46.8722ZM66.5264 45.0075L66.391 46.609C70.9023 46.5489 75.3685 46.609 79.7895 46.7895C79.8346 46.2481 79.8873 45.7143 79.9399 45.1805C75.4888 45 71.0176 44.9424 66.5264 45.0075ZM81.3459 46.8571C82.7595 46.9248 84.1655 47 85.5715 47.0902L85.7143 45.4812C84.3083 45.391 82.8948 45.3083 81.4813 45.2481C81.4512 45.782 81.3986 46.3158 81.3459 46.8571Z" fill="#D1D9E8"/>
</svg>
