<?xml version="1.0" encoding="UTF-8"?>
<svg width="166px" height="34px" viewBox="0 0 166 34" version="1.1" xmlns="http://www.w3.org/2000/svg" xmlns:xlink="http://www.w3.org/1999/xlink">
    <title>default_logo</title>
    <defs>
        <path d="M3.076,33.796 L33.282,33.796 C34.952,33.796 36.58,33.513 38.134,32.904 C39.618,32.321 40.946,31.471 42.097,30.368 C43.284,29.23 44.176,27.877 44.802,26.356 C45.481,24.704 45.772,22.962 45.772,21.181 L45.772,12.588 C45.772,10.811 45.482,9.061 44.802,7.414 C44.173,5.89 43.284,4.535 42.096,3.392 C40.949,2.288 39.622,1.447 38.136,0.877 C36.579,0.28 34.947,0 33.282,0 L18.646,0 C18.236,0 17.827,0.08 17.453,0.227 C17.089,0.382 16.752,0.595 16.472,0.875 C16.189,1.157 15.965,1.486 15.805,1.851 C15.643,2.224 15.57,2.624 15.57,3.03 L15.57,14.943 C15.57,16.637 16.956,18.023 18.65,18.023 C20.344,18.023 21.73,16.638 21.73,14.943 L21.73,6.186 L33.282,6.186 C34.866,6.186 36.425,6.551 37.635,7.619 C39.069,8.883 39.56,10.672 39.56,12.535 L39.56,21.235 C39.56,23.098 39.062,24.87 37.637,26.14 C36.417,27.228 34.895,27.637 33.282,27.637 L22.558,27.637 L7.024,12.103 L5.765,13.362 L17.824,25.421 L3.055,16.894 L2.165,18.436 L16.934,26.963 L0.461,22.549 L-7.10542736e-15,24.269 L12.569,27.637 L-7.10542736e-15,27.637 L-7.10542736e-15,30.766 C-7.10542736e-15,31.174 0.076,31.572 0.233,31.94 C0.399,32.306 0.622,32.638 0.904,32.924 C1.181,33.205 1.52,33.415 1.874,33.565 C2.257,33.717 2.663,33.796 3.076,33.796" id="path-1"></path>
        <linearGradient x1="83.3129424%" y1="75.8195302%" x2="34.0164293%" y2="27.6293112%" id="linearGradient-3">
            <stop stop-color="#2190EB" offset="0%"></stop>
            <stop stop-color="#16D2DF" offset="100%"></stop>
        </linearGradient>
    </defs>
    <g id="D-Libra-Logo" stroke="none" stroke-width="1" fill="none" fill-rule="evenodd">
        <g id="delibra-all-file-rgb" transform="translate(-37.000000, -283.000000)">
            <g id="default_logo" transform="translate(37.448000, 283.102000)">
                <path d="M152.73,33.796 C154.898,33.796 156.924,33.257 158.819,32.201 L159.159,32.013 L159.36,32.346 C159.629,32.791 159.979,33.161 160.431,33.42 C160.898,33.686 161.413,33.796 161.948,33.796 C162.376,33.796 162.782,33.719 163.182,33.548 C163.568,33.391 163.908,33.163 164.202,32.868 C164.818,32.253 165.104,31.509 165.104,30.64 L165.104,21.242 C165.07,19.606 164.74,18.022 164.083,16.524 C163.437,15.053 162.541,13.747 161.405,12.615 C160.263,11.478 158.945,10.594 157.457,9.974 C155.947,9.346 154.366,9.04 152.73,9.04 C151.08,9.04 149.488,9.346 147.97,9.991 C146.474,10.626 145.152,11.518 144.002,12.668 C142.845,13.824 141.945,15.154 141.308,16.662 C140.663,18.187 140.347,19.786 140.347,21.44 C140.347,23.095 140.66,24.687 141.307,26.209 C141.944,27.705 142.848,29.022 144.001,30.167 C145.155,31.312 146.473,32.208 147.97,32.845 C149.488,33.489 151.079,33.796 152.73,33.796 Z M52.766,20.804 L62.931,20.804 C63.346,20.804 63.757,20.724 64.149,20.557 C64.525,20.405 64.87,20.19 65.158,19.903 C65.442,19.619 65.658,19.28 65.815,18.912 C65.977,18.53 66.059,18.136 66.059,17.721 C66.059,17.304 65.974,16.902 65.814,16.517 C65.654,16.135 65.435,15.787 65.159,15.493 C64.867,15.201 64.516,14.981 64.138,14.817 C63.758,14.653 63.345,14.565 62.931,14.565 L52.766,14.565 C51.895,14.565 51.155,14.845 50.54,15.465 C50.247,15.76 50.031,16.116 49.873,16.512 C49.709,16.894 49.628,17.305 49.628,17.721 C49.628,18.135 49.706,18.528 49.875,18.916 C50.03,19.288 50.252,19.618 50.538,19.902 C51.159,20.518 51.892,20.804 52.766,20.804 Z M77.991,33.796 C78.41,33.796 78.819,33.721 79.21,33.565 C79.568,33.423 79.9,33.226 80.172,32.951 C80.446,32.672 80.655,32.348 80.8,31.985 C80.951,31.603 81.021,31.204 81.021,30.793 C81.021,30.384 80.954,29.991 80.798,29.605 C80.658,29.241 80.448,28.921 80.166,28.637 C79.9,28.356 79.578,28.144 79.212,27.999 C78.821,27.836 78.414,27.762 77.991,27.762 C76.72,27.762 75.65,27.286 75.549,25.866 L75.549,3.086 C75.549,2.677 75.466,2.284 75.302,1.919 C75.121,1.541 74.886,1.204 74.599,0.909 C74.297,0.622 73.945,0.406 73.549,0.247 C73.167,0.083 72.755,0.003 72.34,0.003 C71.517,0.003 70.838,0.299 70.266,0.902 C69.664,1.512 69.39,2.231 69.39,3.086 L69.39,25.714 C69.39,26.839 69.598,27.929 70.061,28.955 C70.508,29.945 71.127,30.809 71.932,31.541 C72.738,32.274 73.672,32.821 74.691,33.205 C75.749,33.604 76.86,33.796 77.991,33.796 Z M87.75,6.637 C88.197,6.637 88.629,6.558 89.04,6.383 C89.443,6.212 89.801,5.968 90.11,5.657 C90.754,5.007 91.093,4.247 91.093,3.329 C91.093,2.399 90.768,1.625 90.111,0.968 C89.803,0.66 89.444,0.418 89.051,0.253 C88.634,0.089 88.198,0.004 87.75,0.004 C86.836,0.004 86.06,0.322 85.415,0.968 C84.757,1.626 84.407,2.395 84.407,3.329 C84.407,3.763 84.506,4.185 84.674,4.576 C84.858,4.983 85.1,5.34 85.415,5.655 C86.062,6.302 86.833,6.637 87.75,6.637 Z M87.75,33.796 C88.159,33.796 88.553,33.721 88.933,33.551 C89.299,33.396 89.625,33.175 89.905,32.895 C90.188,32.611 90.407,32.276 90.565,31.898 C90.727,31.536 90.807,31.145 90.807,30.748 L90.807,12.628 C90.807,12.218 90.74,11.818 90.583,11.431 C90.444,11.068 90.234,10.747 89.959,10.472 C89.676,10.189 89.341,9.971 88.965,9.814 C88.593,9.652 88.208,9.571 87.803,9.571 C87.378,9.571 86.974,9.655 86.581,9.817 C86.209,9.97 85.861,10.186 85.568,10.48 C85.269,10.762 85.04,11.098 84.871,11.47 C84.706,11.836 84.621,12.228 84.621,12.628 L84.621,30.748 C84.621,31.143 84.708,31.536 84.871,31.896 C85.039,32.269 85.269,32.605 85.576,32.895 C85.858,33.177 86.194,33.395 86.559,33.552 C86.937,33.715 87.338,33.796 87.75,33.796 Z M107.356,33.796 C109.008,33.796 110.596,33.478 112.117,32.835 C113.612,32.203 114.937,31.314 116.083,30.168 C117.233,29.018 118.128,27.699 118.761,26.201 C119.402,24.682 119.712,23.088 119.712,21.44 C119.712,19.786 119.397,18.187 118.752,16.662 C118.117,15.161 117.23,13.823 116.083,12.666 C114.941,11.516 113.611,10.631 112.117,10 C110.596,9.357 109.007,9.04 107.356,9.04 C106.282,9.04 105.228,9.297 104.232,9.69 C103.379,10.028 102.426,10.511 101.827,11.229 L101.115,12.081 L101.115,3.222 C101.115,2.782 101.044,2.345 100.89,1.932 C100.747,1.552 100.539,1.201 100.268,0.913 C99.981,0.628 99.642,0.413 99.271,0.258 C98.882,0.096 98.479,0.013 98.058,0.013 C97.643,0.013 97.24,0.093 96.851,0.259 C96.478,0.412 96.142,0.628 95.865,0.906 C95.58,1.207 95.361,1.563 95.202,1.946 C95.034,2.351 94.955,2.784 94.955,3.222 L94.955,21.44 C94.955,23.095 95.268,24.687 95.916,26.209 C96.552,27.706 97.459,29.02 98.61,30.167 C99.763,31.316 101.097,32.209 102.596,32.844 C104.112,33.486 105.709,33.796 107.356,33.796 Z M107.356,27.61 C106.528,27.61 105.729,27.451 104.965,27.132 C104.221,26.821 103.555,26.382 102.985,25.812 C102.41,25.236 101.954,24.573 101.631,23.827 C101.302,23.067 101.142,22.267 101.142,21.44 C101.142,20.613 101.302,19.813 101.631,19.053 C101.953,18.309 102.415,17.65 102.987,17.066 C103.559,16.505 104.226,16.067 104.965,15.757 C105.729,15.438 106.528,15.279 107.356,15.279 C108.184,15.279 108.992,15.438 109.756,15.757 C110.494,16.066 111.162,16.503 111.728,17.069 C112.303,17.645 112.759,18.306 113.075,19.058 C113.394,19.817 113.553,20.616 113.553,21.44 C113.553,22.265 113.394,23.063 113.075,23.822 C112.758,24.575 112.304,25.234 111.728,25.812 C111.16,26.379 110.497,26.822 109.756,27.132 C108.992,27.451 108.184,27.61 107.356,27.61 Z M126.332,33.796 C127.168,33.796 127.87,33.509 128.462,32.921 C128.74,32.646 128.954,32.332 129.106,31.982 C129.264,31.593 129.337,31.185 129.337,30.766 L129.337,22.245 C129.355,21.348 129.542,20.487 129.896,19.663 C130.246,18.85 130.744,18.122 131.365,17.492 C131.976,16.871 132.686,16.372 133.483,16.02 C134.298,15.661 135.152,15.476 136.051,15.458 L136.213,15.458 C136.638,15.458 137.063,15.383 137.459,15.227 C137.845,15.075 138.199,14.862 138.493,14.584 C139.104,13.973 139.422,13.248 139.422,12.383 C139.422,11.535 139.189,10.771 138.583,10.165 C137.948,9.529 137.088,9.326 136.213,9.326 L136.006,9.326 C134.319,9.36 132.69,9.701 131.141,10.366 C129.622,11.018 128.268,11.925 127.089,13.082 C125.894,14.254 124.961,15.617 124.277,17.143 C123.589,18.679 123.229,20.298 123.177,21.968 L123.177,30.766 C123.177,31.175 123.254,31.566 123.426,31.938 C123.597,32.308 123.84,32.634 124.13,32.92 C124.417,33.203 124.752,33.415 125.119,33.564 C125.511,33.716 125.911,33.796 126.332,33.796 Z M152.73,27.61 C151.91,27.61 151.113,27.448 150.357,27.132 C149.613,26.821 148.947,26.382 148.377,25.812 C147.801,25.236 147.351,24.573 147.023,23.829 C146.69,23.071 146.533,22.268 146.533,21.44 C146.533,20.612 146.689,19.81 147.023,19.051 C147.35,18.307 147.802,17.644 148.377,17.069 C148.945,16.501 149.616,16.067 150.357,15.757 C151.113,15.441 151.91,15.279 152.73,15.279 C153.561,15.279 154.366,15.441 155.135,15.756 C155.883,16.063 156.555,16.497 157.128,17.069 C157.701,17.644 158.151,18.309 158.466,19.057 C158.786,19.817 158.945,20.616 158.945,21.44 C158.945,22.265 158.785,23.063 158.466,23.823 C158.15,24.573 157.702,25.237 157.128,25.812 C156.554,26.385 155.886,26.825 155.135,27.132 C154.366,27.448 153.561,27.61 152.73,27.61 L152.73,27.61 Z" id="Fill-12" fill="#033E8A"></path>
                <g id="Group-15">
                    <mask id="mask-2" fill="white">
                        <use xlink:href="#path-1"></use>
                    </mask>
                    <g id="Clip-14"></g>
                    <path d="M3.076,33.796 L33.282,33.796 C34.952,33.796 36.58,33.513 38.134,32.904 C39.618,32.321 40.946,31.471 42.097,30.368 C43.284,29.23 44.176,27.877 44.802,26.356 C45.481,24.704 45.772,22.962 45.772,21.181 L45.772,12.588 C45.772,10.811 45.482,9.061 44.802,7.414 C44.173,5.89 43.284,4.535 42.096,3.392 C40.949,2.288 39.622,1.447 38.136,0.877 C36.579,0.28 34.947,0 33.282,0 L18.646,0 C18.236,0 17.827,0.08 17.453,0.227 C17.089,0.382 16.752,0.595 16.472,0.875 C16.189,1.157 15.965,1.486 15.805,1.851 C15.643,2.224 15.57,2.624 15.57,3.03 L15.57,14.943 C15.57,16.637 16.956,18.023 18.65,18.023 C20.344,18.023 21.73,16.638 21.73,14.943 L21.73,6.186 L33.282,6.186 C34.866,6.186 36.425,6.551 37.635,7.619 C39.069,8.883 39.56,10.672 39.56,12.535 L39.56,21.235 C39.56,23.098 39.062,24.87 37.637,26.14 C36.417,27.228 34.895,27.637 33.282,27.637 L22.558,27.637 L7.024,12.103 L5.765,13.362 L17.824,25.421 L3.055,16.894 L2.165,18.436 L16.934,26.963 L0.461,22.549 L-7.10542736e-15,24.269 L12.569,27.637 L-7.10542736e-15,27.637 L-7.10542736e-15,30.766 C-7.10542736e-15,31.174 0.076,31.572 0.233,31.94 C0.399,32.306 0.622,32.638 0.904,32.924 C1.181,33.205 1.52,33.415 1.874,33.565 C2.257,33.717 2.663,33.796 3.076,33.796" id="Fill-13" fill="url(#linearGradient-3)" mask="url(#mask-2)"></path>
                </g>
            </g>
        </g>
    </g>
</svg>