<svg width="58" height="58" viewBox="0 0 58 58" fill="none" xmlns="http://www.w3.org/2000/svg">
<g filter="url(#filter0_d_6816_1068)">
<circle cx="29" cy="25" r="25" fill="#C4C4C4"/>
<path d="M29.4167 29.6081C29.2692 29.6081 29.1208 29.5727 28.9845 29.5027C27.4611 28.708 25.7682 28.293 24.05 28.293C22.3318 28.293 20.6389 28.708 19.1155 29.5027C18.9731 29.5764 18.8142 29.6124 18.6539 29.607C18.4936 29.6016 18.3375 29.5551 18.2003 29.472C18.0632 29.3889 17.9498 29.2719 17.8709 29.1323C17.7921 28.9927 17.7504 28.8351 17.75 28.6748V10.9415C17.75 10.7909 17.7864 10.6426 17.8561 10.5092C17.9258 10.3757 18.0268 10.2612 18.1504 10.1752C21.6793 7.7196 26.4207 7.7196 29.9505 10.1752C30.2007 10.3497 30.35 10.6363 30.35 10.9415V28.6748C30.35 28.9223 30.2517 29.1597 30.0766 29.3347C29.9016 29.5098 29.6642 29.6081 29.4167 29.6081V29.6081ZM24.05 26.4264C25.5527 26.4264 27.0563 26.6961 28.4833 27.2356V11.4455C27.1481 10.6306 25.6142 10.1995 24.05 10.1995C22.4858 10.1995 20.9519 10.6306 19.6167 11.4455V27.2356C21.0335 26.7004 22.5355 26.4262 24.05 26.4264V26.4264Z" fill="white"/>
<path d="M40.1491 29.6081C40.0016 29.6081 39.8532 29.5727 39.717 29.5027C38.1935 28.708 36.5007 28.293 34.7824 28.293C33.0642 28.293 31.3713 28.708 29.8479 29.5027C29.7055 29.5764 29.5466 29.6124 29.3863 29.607C29.2261 29.6016 29.0699 29.5551 28.9328 29.472C28.7957 29.3889 28.6822 29.2719 28.6034 29.1323C28.5245 28.9927 28.4828 28.8351 28.4824 28.6748V10.9415C28.4824 10.7909 28.5188 10.6426 28.5885 10.5092C28.6583 10.3757 28.7592 10.2612 28.8828 10.1752C32.4118 7.7196 37.1531 7.7196 40.6829 10.1752C40.9331 10.3497 41.0824 10.6363 41.0824 10.9415V28.6748C41.0824 28.9223 40.9841 29.1597 40.809 29.3347C40.634 29.5098 40.3966 29.6081 40.1491 29.6081V29.6081ZM34.7824 26.4264C36.2851 26.4264 37.7887 26.6961 39.2157 27.2356V11.4455C37.8806 10.6306 36.3466 10.1995 34.7824 10.1995C33.2182 10.1995 31.6843 10.6306 30.3491 11.4455V27.2356C31.7659 26.7004 33.2679 26.4262 34.7824 26.4264V26.4264Z" fill="white"/>
<path d="M13.9954 41.5V34.3H14.6754V40.92H18.5354V41.5H13.9954ZM19.402 41.5V36.32H20.002V41.5H19.402ZM19.372 35.19V34.3H20.032V35.19H19.372ZM22.0488 38.89C22.0488 39.2033 22.0855 39.4967 22.1588 39.77C22.2388 40.0367 22.3521 40.27 22.4988 40.47C22.6455 40.6633 22.8288 40.8167 23.0488 40.93C23.2688 41.0433 23.5188 41.1 23.7988 41.1C24.0521 41.1 24.2855 41.0567 24.4988 40.97C24.7121 40.8767 24.8988 40.7433 25.0588 40.57C25.2188 40.3967 25.3421 40.1867 25.4288 39.94C25.5221 39.6867 25.5688 39.3967 25.5688 39.07C25.5821 38.7433 25.5555 38.44 25.4888 38.16C25.4221 37.8733 25.3155 37.6233 25.1688 37.41C25.0221 37.1967 24.8321 37.03 24.5988 36.91C24.3721 36.7833 24.1055 36.72 23.7988 36.72C23.5255 36.72 23.2788 36.78 23.0588 36.9C22.8455 37.0133 22.6621 37.17 22.5088 37.37C22.3621 37.5633 22.2488 37.7933 22.1688 38.06C22.0888 38.32 22.0488 38.5967 22.0488 38.89ZM22.0488 41.5H21.4488V34.3H22.0488V37.15C22.2421 36.83 22.5055 36.59 22.8388 36.43C23.1788 36.2633 23.5321 36.18 23.8988 36.18C24.2921 36.18 24.6321 36.2567 24.9188 36.41C25.2121 36.5567 25.4521 36.7567 25.6388 37.01C25.8321 37.2567 25.9755 37.5467 26.0688 37.88C26.1621 38.2133 26.2088 38.56 26.2088 38.92C26.2088 39.3 26.1655 39.6567 26.0788 39.99C25.9921 40.3233 25.8521 40.6133 25.6588 40.86C25.4721 41.1 25.2321 41.29 24.9388 41.43C24.6455 41.57 24.2888 41.64 23.8688 41.64C23.7021 41.64 23.5321 41.6167 23.3588 41.57C23.1855 41.5233 23.0155 41.4567 22.8488 41.37C22.6888 41.2833 22.5388 41.1767 22.3988 41.05C22.2655 40.9167 22.1555 40.7633 22.0688 40.59H22.0488V41.5ZM27.9721 41.5H27.3721V36.32H27.9721V37.29H27.9921C28.1587 36.8767 28.3721 36.59 28.6321 36.43C28.8987 36.2633 29.2487 36.18 29.6821 36.18V36.83C29.3421 36.8233 29.0621 36.8767 28.8421 36.99C28.6221 37.1033 28.4454 37.2567 28.3121 37.45C28.1854 37.6433 28.0954 37.8733 28.0421 38.14C27.9954 38.4 27.9721 38.6733 27.9721 38.96V41.5ZM33.9121 38.78C33.6588 38.8867 33.4021 38.9567 33.1421 38.99C32.8821 39.0233 32.6221 39.05 32.3621 39.07C31.9021 39.1033 31.5421 39.2067 31.2821 39.38C31.0288 39.5533 30.9021 39.8167 30.9021 40.17C30.9021 40.33 30.9321 40.47 30.9921 40.59C31.0588 40.7033 31.1421 40.8 31.2421 40.88C31.3488 40.9533 31.4688 41.01 31.6021 41.05C31.7421 41.0833 31.8821 41.1 32.0221 41.1C32.2621 41.1 32.4955 41.07 32.7221 41.01C32.9488 40.95 33.1488 40.86 33.3221 40.74C33.5021 40.6133 33.6455 40.4567 33.7521 40.27C33.8588 40.0767 33.9121 39.85 33.9121 39.59V38.78ZM32.9021 38.48C33.0155 38.4667 33.1488 38.4467 33.3021 38.42C33.4621 38.3933 33.5921 38.3567 33.6921 38.31C33.7921 38.2633 33.8521 38.1867 33.8721 38.08C33.8988 37.9667 33.9121 37.8633 33.9121 37.77C33.9121 37.4633 33.8121 37.2133 33.6121 37.02C33.4188 36.82 33.0888 36.72 32.6221 36.72C32.4155 36.72 32.2255 36.74 32.0521 36.78C31.8788 36.8133 31.7255 36.8767 31.5921 36.97C31.4655 37.0567 31.3588 37.1767 31.2721 37.33C31.1921 37.4767 31.1388 37.6633 31.1121 37.89H30.5021C30.5221 37.5833 30.5921 37.3233 30.7121 37.11C30.8321 36.89 30.9855 36.7133 31.1721 36.58C31.3655 36.44 31.5855 36.34 31.8321 36.28C32.0855 36.2133 32.3521 36.18 32.6321 36.18C32.8921 36.18 33.1355 36.21 33.3621 36.27C33.5955 36.3233 33.7955 36.4133 33.9621 36.54C34.1355 36.66 34.2688 36.8233 34.3621 37.03C34.4621 37.2367 34.5121 37.49 34.5121 37.79V40.61C34.5121 40.8433 34.5521 40.9933 34.6321 41.06C34.7188 41.12 34.8888 41.1033 35.1421 41.01V41.48C35.0955 41.4933 35.0255 41.5133 34.9321 41.54C34.8455 41.5667 34.7588 41.58 34.6721 41.58C34.5788 41.58 34.4888 41.57 34.4021 41.55C34.3021 41.5367 34.2221 41.5067 34.1621 41.46C34.1021 41.4067 34.0521 41.3467 34.0121 41.28C33.9788 41.2067 33.9555 41.13 33.9421 41.05C33.9288 40.9633 33.9221 40.8733 33.9221 40.78C33.6688 41.06 33.3788 41.2733 33.0521 41.42C32.7255 41.5667 32.3721 41.64 31.9921 41.64C31.7655 41.64 31.5455 41.61 31.3321 41.55C31.1255 41.49 30.9421 41.3967 30.7821 41.27C30.6221 41.1433 30.4955 40.99 30.4021 40.81C30.3088 40.6233 30.2621 40.4033 30.2621 40.15C30.2621 39.27 30.8655 38.75 32.0721 38.59L32.9021 38.48ZM36.5588 41.5H35.9588V36.32H36.5588V37.29H36.5788C36.7455 36.8767 36.9588 36.59 37.2188 36.43C37.4855 36.2633 37.8355 36.18 38.2688 36.18V36.83C37.9288 36.8233 37.6488 36.8767 37.4288 36.99C37.2088 37.1033 37.0321 37.2567 36.8988 37.45C36.7721 37.6433 36.6821 37.8733 36.6288 38.14C36.5821 38.4 36.5588 38.6733 36.5588 38.96V41.5ZM39.2446 42.91C39.3246 42.9233 39.4046 42.9367 39.4846 42.95C39.5713 42.9633 39.658 42.97 39.7446 42.97C39.9113 42.97 40.048 42.9167 40.1546 42.81C40.2613 42.7033 40.348 42.5733 40.4146 42.42C40.488 42.2733 40.548 42.1167 40.5946 41.95C40.6413 41.79 40.6946 41.6533 40.7546 41.54L38.7446 36.32H39.4146L41.0746 40.77L42.7346 36.32H43.3846L41.4546 41.43C41.3346 41.7567 41.218 42.05 41.1046 42.31C40.998 42.57 40.8813 42.79 40.7546 42.97C40.6346 43.1567 40.498 43.2967 40.3446 43.39C40.198 43.49 40.0213 43.54 39.8146 43.54C39.708 43.54 39.6046 43.5333 39.5046 43.52C39.4113 43.5067 39.3246 43.49 39.2446 43.47V42.91Z" fill="white"/>
</g>
<defs>
<filter id="filter0_d_6816_1068" x="0" y="0" width="58" height="58" filterUnits="userSpaceOnUse" color-interpolation-filters="sRGB">
<feFlood flood-opacity="0" result="BackgroundImageFix"/>
<feColorMatrix in="SourceAlpha" type="matrix" values="0 0 0 0 0 0 0 0 0 0 0 0 0 0 0 0 0 0 127 0" result="hardAlpha"/>
<feOffset dy="4"/>
<feGaussianBlur stdDeviation="2"/>
<feComposite in2="hardAlpha" operator="out"/>
<feColorMatrix type="matrix" values="0 0 0 0 0 0 0 0 0 0 0 0 0 0 0 0 0 0 0.25 0"/>
<feBlend mode="normal" in2="BackgroundImageFix" result="effect1_dropShadow_6816_1068"/>
<feBlend mode="normal" in="SourceGraphic" in2="effect1_dropShadow_6816_1068" result="shape"/>
</filter>
</defs>
</svg>
