<svg width="18" height="18" viewBox="0 0 18 18" fill="none" xmlns="http://www.w3.org/2000/svg">
<path d="M8.99983 16.0771C8.90176 16.0771 8.80307 16.0535 8.71245 16.007C7.69932 15.4785 6.57354 15.2026 5.43087 15.2026C4.28819 15.2026 3.16241 15.4785 2.14928 16.007C2.0546 16.056 1.9489 16.0799 1.84233 16.0764C1.73575 16.0728 1.63189 16.0419 1.5407 15.9866C1.44952 15.9313 1.37408 15.8535 1.32163 15.7607C1.26919 15.6678 1.24149 15.5631 1.24121 15.4564V3.66332C1.24121 3.5632 1.26542 3.46457 1.31179 3.37583C1.35815 3.2871 1.4253 3.2109 1.50749 3.15373C3.85431 1.5207 7.00742 1.5207 9.35487 3.15373C9.52121 3.2698 9.62052 3.46035 9.62052 3.66332V15.4564C9.62052 15.621 9.55513 15.7789 9.43873 15.8953C9.32232 16.0117 9.16445 16.0771 8.99983 16.0771ZM5.43087 13.9612C6.43018 13.9612 7.43011 14.1406 8.37914 14.4993V3.99849C7.49121 3.45658 6.4711 3.16988 5.43087 3.16988C4.39063 3.16988 3.37052 3.45658 2.48259 3.99849V14.4993C3.42479 14.1434 4.42367 13.9611 5.43087 13.9612Z" fill="#008EEC"/>
<path d="M16.138 16.0771C16.0399 16.0771 15.9413 16.0535 15.8506 16.007C14.8375 15.4785 13.7117 15.2026 12.569 15.2026C11.4264 15.2026 10.3006 15.4785 9.28746 16.007C9.19279 16.056 9.08708 16.0799 8.98051 16.0764C8.87394 16.0728 8.77007 16.0419 8.67889 15.9866C8.5877 15.9313 8.51227 15.8535 8.45982 15.7607C8.40737 15.6678 8.37968 15.5631 8.37939 15.4564V3.66332C8.37939 3.5632 8.4036 3.46457 8.44997 3.37583C8.49634 3.2871 8.56348 3.2109 8.64567 3.15373C10.9925 1.5207 14.1456 1.5207 16.4931 3.15373C16.6594 3.2698 16.7587 3.46035 16.7587 3.66332V15.4564C16.7587 15.621 16.6933 15.7789 16.5769 15.8953C16.4605 16.0117 16.3026 16.0771 16.138 16.0771ZM12.569 13.9612C13.5684 13.9612 14.5683 14.1406 15.5173 14.4993V3.99849C14.6294 3.45658 13.6093 3.16988 12.569 3.16988C11.5288 3.16988 10.5087 3.45658 9.62077 3.99849V14.4993C10.563 14.1434 11.5619 13.9611 12.569 13.9612Z" fill="#008EEC"/>
</svg>
