<?xml version="1.0" encoding="UTF-8"?>
<svg width="16px" height="16px" viewBox="0 0 16 16" version="1.1" xmlns="http://www.w3.org/2000/svg" xmlns:xlink="http://www.w3.org/1999/xlink">
    <title>Sidebar_My_library</title>
    <g id="Page-1" stroke="none" stroke-width="1" fill="none" fill-rule="evenodd">
        <g id="Sidebar_My_library" transform="translate(0.241330, 0.928947)" fill="#FFFFFF" fill-rule="nonzero">
            <path d="M7.75862,14.1481525 C7.66056,14.1481525 7.56187,14.1245525 7.47124,14.0780525 C6.45811,13.5495525 5.33234,13.2735525 4.18966,13.2735525 C3.04698,13.2735525 1.92121,13.5495525 0.90807,14.0780525 C0.81339,14.1270525 0.70769,14.1509525 0.60112,14.1474525 C0.49455,14.1438525 0.39068,14.1129525 0.2995,14.0576525 C0.20831,14.0023525 0.13287,13.9245525 0.08043,13.8317525 C0.02798,13.7388525 0.00029,13.6340525 8.8817842e-16,13.5274525 L8.8817842e-16,1.7343625 C8.8817842e-16,1.6342425 0.02421,1.5356125 0.07058,1.4468825 C0.11694,1.3581425 0.18409,1.2819425 0.26628,1.2247725 C2.61311,-0.4082575 5.76621,-0.4082575 8.11366,1.2247725 C8.28,1.3408425 8.37931,1.5313925 8.37931,1.7343625 L8.37931,13.5274525 C8.37931,13.6920525 8.31392,13.8499525 8.19752,13.9663525 C8.08112,14.0827525 7.92324,14.1481525 7.75862,14.1481525 Z M4.18966,12.0322525 C5.18897,12.0322525 6.1889,12.2116525 7.13793,12.5703525 L7.13793,2.0695325 C6.25,1.5276225 5.22989,1.2409225 4.18966,1.2409225 C3.14942,1.2409225 2.12931,1.5276225 1.24138,2.0695325 L1.24138,12.5703525 C2.18358,12.2144525 3.18247,12.0320525 4.18966,12.0322525 Z" id="Shape"></path>
            <path d="M14.89657,14.1481525 C14.79847,14.1481525 14.69977,14.1245525 14.60917,14.0780525 C13.59607,13.5495525 12.47027,13.2735525 11.32757,13.2735525 C10.18497,13.2735525 9.05917,13.5495525 8.04601,14.0780525 C7.95133,14.1270525 7.84563,14.1509525 7.73906,14.1474525 C7.63248,14.1438525 7.52862,14.1129525 7.43743,14.0576525 C7.34625,14.0023525 7.27081,13.9245525 7.21837,13.8317525 C7.16592,13.7388525 7.13822,13.6340525 7.13794,13.5274525 L7.13794,1.7343625 C7.13794,1.6342425 7.16215,1.5356125 7.20852,1.4468825 C7.25488,1.3581425 7.32203,1.2819425 7.40422,1.2247725 C9.75107,-0.4082575 12.90417,-0.4082575 15.25157,1.2247725 C15.41797,1.3408425 15.51727,1.5313925 15.51727,1.7343625 L15.51727,13.5274525 C15.51727,13.6920525 15.45187,13.8499525 15.33547,13.9663525 C15.21907,14.0827525 15.06117,14.1481525 14.89657,14.1481525 Z M11.32757,12.0322525 C12.32687,12.0322525 13.32687,12.2116525 14.27587,12.5703525 L14.27587,2.0695325 C13.38797,1.5276225 12.36787,1.2409225 11.32757,1.2409225 C10.28737,1.2409225 9.26727,1.5276225 8.37932,2.0695325 L8.37932,12.5703525 C9.32157,12.2144525 10.32037,12.0320525 11.32757,12.0322525 Z" id="Shape"></path>
        </g>
    </g>
</svg>