<svg width="44" height="44" viewBox="0 0 44 44" fill="none" xmlns="http://www.w3.org/2000/svg">
<path d="M3.70416 20.6031L24.1729 41.2047L34.6729 20.275H38.1026L40.5479 21.3297L42.9229 17.9625L27.1417 2.18909L23.712 3.2594L24.2432 7.26721L23.9776 9.11877L23.3526 10.3063L3.70416 20.6031Z" fill="#00A5FD"/>
<path d="M42.626 15.8454L28.8448 2.06417C28.2973 1.53618 27.6075 1.17952 26.8602 1.03797C26.1129 0.896416 25.3405 0.976126 24.6378 1.26732C23.9351 1.55851 23.3327 2.04851 22.9046 2.67719C22.4764 3.30586 22.2412 4.04586 22.2276 4.80636C22.2278 5.31301 22.328 5.81463 22.5224 6.2825C22.7168 6.75037 23.0015 7.17529 23.3604 7.53292C23.5202 7.68882 23.6422 7.87928 23.717 8.08967C23.7917 8.30007 23.8172 8.52479 23.7916 8.74658C23.7659 8.96838 23.6898 9.18134 23.569 9.36912C23.4482 9.5569 23.286 9.71449 23.0948 9.8298L2.78229 19.361C2.61307 19.4426 2.46546 19.563 2.35144 19.7123C2.23742 19.8616 2.1602 20.0357 2.12604 20.2204C2.09448 20.406 2.10779 20.5965 2.16488 20.7759C2.22196 20.9553 2.32115 21.1184 2.45417 21.2517L9.03229 27.8454L1.01667 42.0798C0.897868 42.2996 0.852436 42.5516 0.887001 42.7991C0.921567 43.0466 1.03432 43.2765 1.2088 43.4553C1.38328 43.6342 1.61036 43.7526 1.85689 43.7932C2.10342 43.8339 2.35649 43.7947 2.57917 43.6814L16.8448 35.6579L23.4229 42.236C23.5565 42.371 23.7206 42.4718 23.9015 42.5297C24.0823 42.5876 24.2744 42.6011 24.4616 42.5689C24.6487 42.5367 24.8253 42.4598 24.9763 42.3447C25.1274 42.2296 25.2484 42.0798 25.3292 41.9079L34.8135 21.6814C34.9183 21.4743 35.0711 21.2954 35.2592 21.1595C35.4473 21.0236 35.6651 20.9347 35.8946 20.9003C36.1241 20.8659 36.3585 20.8869 36.5781 20.9616C36.7978 21.0363 36.9964 21.1626 37.1573 21.3298C37.5168 21.6905 37.9442 21.9764 38.4149 22.1708C38.8856 22.3653 39.3902 22.4645 39.8995 22.4626C40.6586 22.4461 41.3965 22.2087 42.0229 21.7794C42.6493 21.3501 43.1369 20.7475 43.4262 20.0454C43.7155 19.3434 43.7939 18.5722 43.6518 17.8262C43.5096 17.0803 43.1532 16.392 42.626 15.8454ZM5.12604 39.5642L10.7745 29.5407L15.1495 33.9157L5.12604 39.5642ZM40.9854 19.6579C40.6941 19.9395 40.3047 20.097 39.8995 20.097C39.4943 20.097 39.1049 19.9395 38.8135 19.6579C38.3883 19.2385 37.8705 18.9249 37.3018 18.7423C36.7331 18.5597 36.1294 18.5133 35.5395 18.6068C34.9496 18.7003 34.3899 18.9311 33.9056 19.2806C33.4212 19.6301 33.0257 20.0885 32.751 20.6189L23.9307 39.3689L5.2901 20.8142L24.1026 11.9314C24.6254 11.6515 25.0756 11.2535 25.4176 10.7691C25.7596 10.2847 25.9839 9.72714 26.0726 9.14084C26.1614 8.55454 26.1121 7.95562 25.9288 7.39169C25.7455 6.82775 25.4332 6.31436 25.0167 5.8923C24.8109 5.59152 24.7167 5.22826 24.7504 4.86537C24.7841 4.50248 24.9436 4.16279 25.2013 3.90508C25.459 3.64737 25.7987 3.48786 26.1616 3.45414C26.5245 3.42042 26.8878 3.51461 27.1885 3.72042L40.9698 17.5017C41.2514 17.793 41.4088 18.1824 41.4088 18.5876C41.4088 18.9928 41.2514 19.3822 40.9698 19.6735L40.9854 19.6579Z" fill="#009AF9"/>
</svg>
