<svg width="44" height="44" viewBox="0 0 44 44" fill="none" xmlns="http://www.w3.org/2000/svg">
<path d="M3.2663 20.6031L23.735 41.2047L34.235 20.275H37.6647L40.1101 21.3297L42.4851 17.9625L26.7038 2.18909L23.2741 3.2594L23.8054 7.26721L23.5397 9.11877L22.9147 10.3063L3.2663 20.6031Z" fill="#CCCCCC"/>
<path d="M42.1882 15.8454L28.4069 2.06417C27.8594 1.53618 27.1697 1.17952 26.4223 1.03797C25.675 0.896416 24.9026 0.976126 24.1999 1.26732C23.4972 1.55851 22.8949 2.04851 22.4667 2.67719C22.0386 3.30586 21.8033 4.04586 21.7897 4.80636C21.7899 5.31301 21.8901 5.81463 22.0845 6.2825C22.2789 6.75037 22.5637 7.17529 22.9225 7.53292C23.0824 7.68882 23.2044 7.87928 23.2791 8.08967C23.3538 8.30007 23.3794 8.52479 23.3537 8.74658C23.3281 8.96838 23.2519 9.18134 23.1311 9.36912C23.0103 9.5569 22.8481 9.71449 22.6569 9.8298L2.34442 19.361C2.1752 19.4426 2.02759 19.563 1.91357 19.7123C1.79955 19.8616 1.72233 20.0357 1.68817 20.2204C1.65661 20.406 1.66993 20.5965 1.72701 20.7759C1.78409 20.9553 1.88329 21.1184 2.0163 21.2517L8.59442 27.8454L0.5788 42.0798C0.460002 42.2996 0.41457 42.5516 0.449135 42.7991C0.4837 43.0466 0.596453 43.2765 0.770935 43.4553C0.945418 43.6342 1.1725 43.7526 1.41902 43.7932C1.66555 43.8339 1.91862 43.7947 2.1413 43.6814L16.4069 35.6579L22.985 42.236C23.1186 42.371 23.2828 42.4718 23.4636 42.5297C23.6444 42.5876 23.8366 42.6011 24.0237 42.5689C24.2108 42.5367 24.3874 42.4598 24.5385 42.3447C24.6895 42.2296 24.8106 42.0798 24.8913 41.9079L34.3757 21.6814C34.4804 21.4743 34.6332 21.2954 34.8213 21.1595C35.0094 21.0236 35.2273 20.9347 35.4568 20.9003C35.6862 20.8659 35.9206 20.8869 36.1403 20.9616C36.36 21.0363 36.5585 21.1626 36.7194 21.3298C37.0789 21.6905 37.5064 21.9764 37.9771 22.1708C38.4478 22.3653 38.9523 22.4645 39.4616 22.4626C40.2208 22.4461 40.9587 22.2087 41.585 21.7794C42.2114 21.3501 42.699 20.7475 42.9883 20.0454C43.2776 19.3434 43.356 18.5722 43.2139 17.8262C43.0718 17.0803 42.7153 16.392 42.1882 15.8454ZM4.68817 39.5642L10.3366 29.5407L14.7116 33.9157L4.68817 39.5642ZM40.5475 19.6579C40.2562 19.9395 39.8668 20.097 39.4616 20.097C39.0564 20.097 38.667 19.9395 38.3757 19.6579C37.9504 19.2385 37.4326 18.9249 36.8639 18.7423C36.2952 18.5597 35.6916 18.5133 35.1017 18.6068C34.5117 18.7003 33.9521 18.9311 33.4677 19.2806C32.9833 19.6301 32.5879 20.0885 32.3132 20.6189L23.4929 39.3689L4.85224 20.8142L23.6647 11.9314C24.1875 11.6515 24.6378 11.2535 24.9798 10.7691C25.3218 10.2847 25.546 9.72714 25.6348 9.14084C25.7235 8.55454 25.6743 7.95562 25.491 7.39169C25.3076 6.82775 24.9953 6.31436 24.5788 5.8923C24.373 5.59152 24.2788 5.22826 24.3125 4.86537C24.3462 4.50248 24.5057 4.16279 24.7635 3.90508C25.0212 3.64737 25.3608 3.48786 25.7237 3.45414C26.0866 3.42042 26.4499 3.51461 26.7507 3.72042L40.5319 17.5017C40.8135 17.793 40.971 18.1824 40.971 18.5876C40.971 18.9928 40.8135 19.3822 40.5319 19.6735L40.5475 19.6579Z" fill="#BBBBBB"/>
</svg>
