<svg width="58" height="58" viewBox="0 0 58 58" fill="none" xmlns="http://www.w3.org/2000/svg">
<g filter="url(#filter0_d_6816_1060)">
<circle cx="29" cy="25" r="25" fill="#C4C4C4"/>
<path d="M42.2915 16.6241C42.2352 16.4514 42.1316 16.2981 41.9926 16.1813C41.8535 16.0646 41.6845 15.9891 41.5048 15.9636L34.0358 14.8467L30.6947 8.04789C30.6152 7.88368 30.491 7.74519 30.3364 7.64829C30.1818 7.55139 30.003 7.5 29.8206 7.5C29.6381 7.5 29.4594 7.55139 29.3048 7.64829C29.1502 7.74519 29.026 7.88368 28.9465 8.04789L25.6054 14.8467L18.1656 15.9636C17.9869 15.9896 17.819 16.0648 17.6807 16.1809C17.5424 16.297 17.4392 16.4494 17.3827 16.6209C17.3263 16.7924 17.3187 16.9762 17.3609 17.1518C17.4031 17.3273 17.4934 17.4877 17.6217 17.6147L23.0218 22.8886L21.7301 30.3867C21.7108 30.5611 21.739 30.7375 21.8119 30.8971C21.8848 31.0567 21.9996 31.1935 22.144 31.2931C22.2884 31.3928 22.4572 31.4514 22.6322 31.4628C22.8073 31.4742 22.9822 31.438 23.1384 31.358L29.8206 27.842L36.5028 31.358C36.659 31.438 36.8339 31.4742 37.0089 31.4628C37.184 31.4514 37.3527 31.3928 37.4972 31.2931C37.6416 31.1935 37.7564 31.0567 37.8293 30.8971C37.9021 30.7375 37.9304 30.5611 37.9111 30.3867L36.6194 22.8886L42.0292 17.6147C42.161 17.4905 42.2553 17.3318 42.3016 17.1568C42.348 16.9817 42.3445 16.7972 42.2915 16.6241V16.6241ZM34.9197 21.8591C34.8073 21.9683 34.7229 22.103 34.6739 22.2519C34.6248 22.4007 34.6125 22.5592 34.638 22.7138L35.6481 28.7259L30.2577 25.8898C30.1171 25.815 29.9604 25.7758 29.8012 25.7758C29.642 25.7758 29.4852 25.815 29.3447 25.8898L23.9931 28.7259L24.9643 22.7138C24.9898 22.5592 24.9775 22.4007 24.9285 22.2519C24.8794 22.103 24.7951 21.9683 24.6827 21.8591L20.3606 17.5953L26.3921 16.7212C26.5467 16.6988 26.6937 16.6394 26.8205 16.5481C26.9473 16.4568 27.0502 16.3363 27.1205 16.1967L29.8206 10.7286L32.5207 16.1967C32.5909 16.3363 32.6939 16.4568 32.8207 16.5481C32.9475 16.6394 33.0945 16.6988 33.2491 16.7212L39.2806 17.5953L34.9197 21.8591Z" fill="white"/>
<path d="M19.1 41.5H18.5V36.32H19.1V37.29H19.12C19.2867 36.8767 19.5 36.59 19.76 36.43C20.0267 36.2633 20.3767 36.18 20.81 36.18V36.83C20.47 36.8233 20.19 36.8767 19.97 36.99C19.75 37.1033 19.5733 37.2567 19.44 37.45C19.3133 37.6433 19.2233 37.8733 19.17 38.14C19.1233 38.4 19.1 38.6733 19.1 38.96V41.5ZM25.0401 38.78C24.7867 38.8867 24.5301 38.9567 24.2701 38.99C24.0101 39.0233 23.7501 39.05 23.4901 39.07C23.0301 39.1033 22.6701 39.2067 22.4101 39.38C22.1567 39.5533 22.0301 39.8167 22.0301 40.17C22.0301 40.33 22.0601 40.47 22.1201 40.59C22.1867 40.7033 22.2701 40.8 22.3701 40.88C22.4767 40.9533 22.5967 41.01 22.7301 41.05C22.8701 41.0833 23.0101 41.1 23.1501 41.1C23.3901 41.1 23.6234 41.07 23.8501 41.01C24.0767 40.95 24.2767 40.86 24.4501 40.74C24.6301 40.6133 24.7734 40.4567 24.8801 40.27C24.9867 40.0767 25.0401 39.85 25.0401 39.59V38.78ZM24.0301 38.48C24.1434 38.4667 24.2767 38.4467 24.4301 38.42C24.5901 38.3933 24.7201 38.3567 24.8201 38.31C24.9201 38.2633 24.9801 38.1867 25.0001 38.08C25.0267 37.9667 25.0401 37.8633 25.0401 37.77C25.0401 37.4633 24.9401 37.2133 24.7401 37.02C24.5467 36.82 24.2167 36.72 23.7501 36.72C23.5434 36.72 23.3534 36.74 23.1801 36.78C23.0067 36.8133 22.8534 36.8767 22.7201 36.97C22.5934 37.0567 22.4867 37.1767 22.4001 37.33C22.3201 37.4767 22.2667 37.6633 22.2401 37.89H21.6301C21.6501 37.5833 21.7201 37.3233 21.8401 37.11C21.9601 36.89 22.1134 36.7133 22.3001 36.58C22.4934 36.44 22.7134 36.34 22.9601 36.28C23.2134 36.2133 23.4801 36.18 23.7601 36.18C24.0201 36.18 24.2634 36.21 24.4901 36.27C24.7234 36.3233 24.9234 36.4133 25.0901 36.54C25.2634 36.66 25.3967 36.8233 25.4901 37.03C25.5901 37.2367 25.6401 37.49 25.6401 37.79V40.61C25.6401 40.8433 25.6801 40.9933 25.7601 41.06C25.8467 41.12 26.0167 41.1033 26.2701 41.01V41.48C26.2234 41.4933 26.1534 41.5133 26.0601 41.54C25.9734 41.5667 25.8867 41.58 25.8001 41.58C25.7067 41.58 25.6167 41.57 25.5301 41.55C25.4301 41.5367 25.3501 41.5067 25.2901 41.46C25.2301 41.4067 25.1801 41.3467 25.1401 41.28C25.1067 41.2067 25.0834 41.13 25.0701 41.05C25.0567 40.9633 25.0501 40.8733 25.0501 40.78C24.7967 41.06 24.5067 41.2733 24.1801 41.42C23.8534 41.5667 23.5001 41.64 23.1201 41.64C22.8934 41.64 22.6734 41.61 22.4601 41.55C22.2534 41.49 22.0701 41.3967 21.9101 41.27C21.7501 41.1433 21.6234 40.99 21.5301 40.81C21.4367 40.6233 21.3901 40.4033 21.3901 40.15C21.3901 39.27 21.9934 38.75 23.2001 38.59L24.0301 38.48ZM28.8767 41.52C28.8034 41.5333 28.7067 41.5567 28.5867 41.59C28.4667 41.6233 28.3334 41.64 28.1867 41.64C27.8867 41.64 27.6567 41.5667 27.4967 41.42C27.3434 41.2667 27.2667 40.9967 27.2667 40.61V36.82H26.5367V36.32H27.2667V34.88H27.8667V36.32H28.8367V36.82H27.8667V40.37C27.8667 40.4967 27.8701 40.6067 27.8767 40.7C27.8834 40.7933 27.9034 40.87 27.9367 40.93C27.9701 40.99 28.0201 41.0333 28.0867 41.06C28.1601 41.0867 28.2601 41.1 28.3867 41.1C28.4667 41.1 28.5467 41.0933 28.6267 41.08C28.7134 41.0667 28.7967 41.05 28.8767 41.03V41.52ZM29.6041 41.5V36.32H30.2041V41.5H29.6041ZM29.5741 35.19V34.3H30.2341V35.19H29.5741ZM32.1809 41.5H31.5809V36.32H32.1809V37.04C32.4209 36.7867 32.6676 36.58 32.9209 36.42C33.1809 36.26 33.4909 36.18 33.8509 36.18C34.1709 36.18 34.4676 36.2367 34.7409 36.35C35.0143 36.4567 35.2443 36.6467 35.4309 36.92C35.5576 37.1067 35.6309 37.3 35.6509 37.5C35.6776 37.6933 35.6909 37.8967 35.6909 38.11V41.5H35.0909V38.12C35.0909 37.6533 34.9876 37.3033 34.7809 37.07C34.5743 36.8367 34.2309 36.72 33.7509 36.72C33.5643 36.72 33.3943 36.75 33.2409 36.81C33.0876 36.8633 32.9476 36.9367 32.8209 37.03C32.7009 37.1233 32.5976 37.23 32.5109 37.35C32.4243 37.47 32.3576 37.5967 32.3109 37.73C32.2509 37.8967 32.2143 38.0567 32.2009 38.21C32.1876 38.3633 32.1809 38.53 32.1809 38.71V41.5ZM40.9876 38.93C40.9876 38.6167 40.9476 38.3267 40.8676 38.06C40.7942 37.7867 40.6842 37.5533 40.5376 37.36C40.3909 37.16 40.2076 37.0033 39.9876 36.89C39.7676 36.7767 39.5176 36.72 39.2376 36.72C38.9842 36.72 38.7509 36.7667 38.5376 36.86C38.3242 36.9467 38.1376 37.0767 37.9776 37.25C37.8176 37.4233 37.6909 37.6367 37.5976 37.89C37.5109 38.1367 37.4676 38.4233 37.4676 38.75C37.4542 39.0767 37.4809 39.3833 37.5476 39.67C37.6142 39.95 37.7209 40.1967 37.8676 40.41C38.0142 40.6233 38.2009 40.7933 38.4276 40.92C38.6542 41.04 38.9242 41.1 39.2376 41.1C39.5109 41.1 39.7542 41.0433 39.9676 40.93C40.1876 40.81 40.3709 40.6533 40.5176 40.46C40.6709 40.26 40.7876 40.03 40.8676 39.77C40.9476 39.5033 40.9876 39.2233 40.9876 38.93ZM40.9876 36.32H41.5876V41C41.5876 41.3467 41.5509 41.6767 41.4776 41.99C41.4109 42.31 41.2876 42.59 41.1076 42.83C40.9276 43.07 40.6809 43.26 40.3676 43.4C40.0542 43.5467 39.6509 43.62 39.1576 43.62C38.7776 43.62 38.4509 43.57 38.1776 43.47C37.9042 43.3767 37.6809 43.2567 37.5076 43.11C37.3342 42.9633 37.2009 42.8 37.1076 42.62C37.0209 42.4467 36.9742 42.2833 36.9676 42.13H37.6076C37.6542 42.3233 37.7276 42.48 37.8276 42.6C37.9276 42.7267 38.0442 42.8233 38.1776 42.89C38.3176 42.9633 38.4709 43.0133 38.6376 43.04C38.8042 43.0667 38.9776 43.08 39.1576 43.08C39.5642 43.08 39.8909 43.01 40.1376 42.87C40.3842 42.73 40.5709 42.5467 40.6976 42.32C40.8242 42.0933 40.9042 41.8367 40.9376 41.55C40.9776 41.2633 40.9942 40.97 40.9876 40.67C40.7942 40.99 40.5276 41.2333 40.1876 41.4C39.8542 41.56 39.5042 41.64 39.1376 41.64C38.7442 41.64 38.4009 41.5667 38.1076 41.42C37.8209 41.2667 37.5809 41.0667 37.3876 40.82C37.2009 40.5667 37.0609 40.2733 36.9676 39.94C36.8742 39.6067 36.8276 39.26 36.8276 38.9C36.8276 38.52 36.8709 38.1633 36.9576 37.83C37.0442 37.4967 37.1809 37.21 37.3676 36.97C37.5609 36.7233 37.8042 36.53 38.0976 36.39C38.3909 36.25 38.7476 36.18 39.1676 36.18C39.3342 36.18 39.5042 36.2033 39.6776 36.25C39.8509 36.2967 40.0176 36.3633 40.1776 36.45C40.3442 36.5367 40.4942 36.6467 40.6276 36.78C40.7676 36.9133 40.8809 37.0633 40.9676 37.23H40.9876V36.32Z" fill="white"/>
</g>
<defs>
<filter id="filter0_d_6816_1060" x="0" y="0" width="58" height="58" filterUnits="userSpaceOnUse" color-interpolation-filters="sRGB">
<feFlood flood-opacity="0" result="BackgroundImageFix"/>
<feColorMatrix in="SourceAlpha" type="matrix" values="0 0 0 0 0 0 0 0 0 0 0 0 0 0 0 0 0 0 127 0" result="hardAlpha"/>
<feOffset dy="4"/>
<feGaussianBlur stdDeviation="2"/>
<feComposite in2="hardAlpha" operator="out"/>
<feColorMatrix type="matrix" values="0 0 0 0 0 0 0 0 0 0 0 0 0 0 0 0 0 0 0.25 0"/>
<feBlend mode="normal" in2="BackgroundImageFix" result="effect1_dropShadow_6816_1060"/>
<feBlend mode="normal" in="SourceGraphic" in2="effect1_dropShadow_6816_1060" result="shape"/>
</filter>
</defs>
</svg>
