<?xml version="1.0" encoding="UTF-8"?>
<svg width="24px" height="22px" viewBox="0 0 24 22" version="1.1" xmlns="http://www.w3.org/2000/svg" xmlns:xlink="http://www.w3.org/1999/xlink">
    <title>Shape</title>
    <g id="Page-1" stroke="none" stroke-width="1" fill="none" fill-rule="evenodd">
        <g id="Recent-view-light" transform="translate(-4.000000, -5.000000)" fill="#FFFFFF" fill-rule="nonzero">
            <path d="M7.999,16.434 C8.014,16.701 8.038,16.967 8.074,17.231 C8.674,21.528 12.66,25.146 17.246,25.03 C21.254,24.928 25.026,21.872 25.855,17.826 C26.674,13.828 24.453,9.408 20.626,7.734 C19.491,7.237 18.254,6.986 17.01,6.982 C17.01,6.982 16.263,6.857 16.069,6.319 C15.874,5.777 16.246,5.094 16.842,4.991 C16.939,4.974 16.975,4.97586159 17.084,4.97586159 C21.239,5.016 25.214,7.552 26.985,11.285 C28.971,15.473 27.994,20.892 24.478,24.127 C21.694,26.688 17.542,27.684 13.855,26.576 C9.504,25.27 6.194,21.141 5.991,16.413 L5.688,16.716 C5.688,16.716 5.37,17.014 4.969,17.01 C4.217,17.003 3.66,15.957 4.242,15.327 C4.251,15.317 4.26,15.308 4.27,15.298 L6.275,13.293 C6.362,13.209 6.381,13.199 6.427,13.168 C6.547,13.088 6.685,13.034 6.827,13.011 C6.892,13.001 6.958,12.998 7.024,13 C7.241,13.012 7.416,13.061 7.603,13.212 C7.628,13.233 7.653,13.254 7.677,13.277 C7.682,13.282 7.688,13.287 7.693,13.293 L9.699,15.298 C10.236,15.857 9.864,16.968 9.04,17.009 C8.761,17.023 8.481,16.908 8.281,16.716 L7.999,16.434 Z M17.076,8.989 C17.269,9.008 17.3,9.025 17.382,9.058 C17.714,9.189 17.963,9.507 18.008,9.865 C18.015,9.92 18.014,9.934 18.016,9.99 L18.016,15.592 L21.977,19.553 C21.977,19.553 22.537,20.48 21.931,21.014 C21.585,21.319 21.022,21.341 20.653,21.054 C20.609,21.02 20.599,21.009 20.558,20.971 L16.304,16.716 C16.122,16.524 16.018,16.273 16.01,16.007 L16.01,9.99 C16.016,9.797 16.032,9.765 16.059,9.68 C16.176,9.321 16.51,9.043 16.887,8.995 C17.008,8.98 17.037,8.988 17.076,8.989 Z" id="Shape"></path>
        </g>
    </g>
</svg>