<svg width="15" height="19" viewBox="0 0 15 19" fill="none" xmlns="http://www.w3.org/2000/svg">
<path d="M6.43972 7.89568L5.58166 8.75H6.7925H13.75C13.8605 8.75 13.9665 8.7939 14.0446 8.87204C14.1228 8.95018 14.1667 9.05616 14.1667 9.16667C14.1667 9.27717 14.1228 9.38315 14.0446 9.46129C13.9665 9.53944 13.8605 9.58333 13.75 9.58333H6.7925H5.58166L6.43972 10.4377L8.54805 12.5368L8.54873 12.5375C8.58779 12.5762 8.61878 12.6223 8.63994 12.6731L9.10148 12.4808L8.63994 12.6731C8.66109 12.7239 8.67198 12.7783 8.67198 12.8333C8.67198 12.8883 8.66109 12.9428 8.63994 12.9936L9.10148 13.1859L8.63994 12.9936C8.61878 13.0443 8.58779 13.0904 8.54873 13.1292L8.54583 13.1321C8.5071 13.1711 8.46101 13.2021 8.41024 13.2233C8.35947 13.2444 8.305 13.2553 8.25 13.2553C8.19499 13.2553 8.14053 13.2444 8.08976 13.2233C8.03899 13.2021 7.9929 13.1711 7.95417 13.1321L7.95272 13.1306L4.29065 9.46854C4.25416 9.42961 4.22548 9.38402 4.20618 9.33425L4.20628 9.33421L4.20249 9.325C4.16082 9.22356 4.16082 9.10978 4.20249 9.00833L4.20258 9.00837L4.20618 8.99909C4.22548 8.94931 4.25416 8.90372 4.29065 8.86479L7.95272 5.20272L7.59917 4.84917L7.95272 5.20272C7.99176 5.16368 8.0381 5.13271 8.08911 5.11159C8.14012 5.09046 8.19479 5.07958 8.25 5.07958C8.30521 5.07958 8.35988 5.09046 8.41088 5.11158C8.46189 5.13271 8.50824 5.16368 8.54728 5.20272L8.90083 4.84917L8.54728 5.20272C8.58632 5.24176 8.61729 5.28811 8.63841 5.33911C8.65954 5.39012 8.67042 5.44479 8.67042 5.5C8.67042 5.55521 8.65954 5.60988 8.63841 5.66089C8.61734 5.71177 8.58646 5.75802 8.54755 5.797C8.54746 5.7971 8.54737 5.79719 8.54728 5.79728L6.43972 7.89568ZM13.4554 12.5387L13.1018 12.1852L13.4554 12.5387C13.5335 12.4606 13.6395 12.4167 13.75 12.4167C13.8605 12.4167 13.9665 12.4606 14.0446 12.5387C14.1228 12.6168 14.1667 12.7228 14.1667 12.8333V15.5833C14.1667 16.1801 13.9296 16.7524 13.5077 17.1743C13.0857 17.5963 12.5134 17.8333 11.9167 17.8333H2.75C2.15326 17.8333 1.58097 17.5963 1.15901 17.1743C0.737053 16.7524 0.5 16.1801 0.5 15.5833V2.75C0.5 2.15326 0.737053 1.58097 1.15901 1.15901C1.58097 0.737053 2.15326 0.5 2.75 0.5H11.9167C12.5134 0.5 13.0857 0.737053 13.5077 1.15901C13.9296 1.58097 14.1667 2.15326 14.1667 2.75V5.5C14.1667 5.61051 14.1228 5.71649 14.0446 5.79463C13.9665 5.87277 13.8605 5.91667 13.75 5.91667C13.6395 5.91667 13.5335 5.87277 13.4554 5.79463L13.1018 6.14818L13.4554 5.79463C13.3772 5.71649 13.3333 5.61051 13.3333 5.5V2.75C13.3333 2.37428 13.1841 2.01394 12.9184 1.74827C12.6527 1.48259 12.2924 1.33333 11.9167 1.33333H2.75C2.37428 1.33333 2.01394 1.48259 1.74827 1.74827C1.48259 2.01394 1.33333 2.37428 1.33333 2.75V15.5833C1.33333 15.9591 1.48259 16.3194 1.74826 16.5851L2.09602 16.2373L1.74827 16.5851C2.01394 16.8507 2.37428 17 2.75 17H11.9167C12.2924 17 12.6527 16.8507 12.9184 16.5851C13.1841 16.3194 13.3333 15.9591 13.3333 15.5833V12.8333C13.3333 12.7228 13.3772 12.6168 13.4554 12.5387Z" fill="white" stroke="white"/>
</svg>
