<svg width="15" height="16" viewBox="0 0 15 16" fill="none" xmlns="http://www.w3.org/2000/svg">
<path d="M0 14.3438C0 14.7664 0.167913 15.1718 0.466799 15.4707C0.765685 15.7696 1.17106 15.9375 1.59375 15.9375H4.25C4.3909 15.9375 4.52602 15.8815 4.62565 15.7819C4.72528 15.6823 4.78125 15.5471 4.78125 15.4062C4.78125 15.2654 4.72528 15.1302 4.62565 15.0306C4.52602 14.931 4.3909 14.875 4.25 14.875H1.59375C1.45285 14.875 1.31773 14.819 1.2181 14.7194C1.11847 14.6198 1.0625 14.4846 1.0625 14.3438V2.65625C1.0625 2.51535 1.11847 2.38023 1.2181 2.2806C1.31773 2.18097 1.45285 2.125 1.59375 2.125H2.65625V2.65625C2.65625 2.79715 2.71222 2.93227 2.81185 3.0319C2.91148 3.13153 3.0466 3.1875 3.1875 3.1875C3.3284 3.1875 3.46352 3.13153 3.56315 3.0319C3.66278 2.93227 3.71875 2.79715 3.71875 2.65625V2.125H5.84375V2.65625C5.84375 2.79715 5.89972 2.93227 5.99935 3.0319C6.09898 3.13153 6.2341 3.1875 6.375 3.1875C6.5159 3.1875 6.65102 3.13153 6.75065 3.0319C6.85028 2.93227 6.90625 2.79715 6.90625 2.65625V2.125H9.03125V2.65625C9.03125 2.79715 9.08722 2.93227 9.18685 3.0319C9.28648 3.13153 9.4216 3.1875 9.5625 3.1875C9.7034 3.1875 9.83852 3.13153 9.93815 3.0319C10.0378 2.93227 10.0938 2.79715 10.0938 2.65625V2.125H11.1562C11.2971 2.125 11.4323 2.18097 11.5319 2.2806C11.6315 2.38023 11.6875 2.51535 11.6875 2.65625V5.84375C11.6875 5.98465 11.7435 6.11977 11.8431 6.2194C11.9427 6.31903 12.0779 6.375 12.2188 6.375C12.3596 6.375 12.4948 6.31903 12.5944 6.2194C12.694 6.11977 12.75 5.98465 12.75 5.84375V2.65625C12.75 2.23356 12.5821 1.82818 12.2832 1.5293C11.9843 1.23041 11.5789 1.0625 11.1562 1.0625H10.0938V0.53125C10.0938 0.390354 10.0378 0.255228 9.93815 0.1556C9.83852 0.0559708 9.7034 0 9.5625 0C9.4216 0 9.28648 0.0559708 9.18685 0.1556C9.08722 0.255228 9.03125 0.390354 9.03125 0.53125V1.0625H6.90625V0.53125C6.90625 0.390354 6.85028 0.255228 6.75065 0.1556C6.65102 0.0559708 6.5159 0 6.375 0C6.2341 0 6.09898 0.0559708 5.99935 0.1556C5.89972 0.255228 5.84375 0.390354 5.84375 0.53125V1.0625H3.71875V0.53125C3.71875 0.390354 3.66278 0.255228 3.56315 0.1556C3.46352 0.0559708 3.3284 0 3.1875 0C3.0466 0 2.91148 0.0559708 2.81185 0.1556C2.71222 0.255228 2.65625 0.390354 2.65625 0.53125V1.0625H1.59375C1.17106 1.0625 0.765685 1.23041 0.466799 1.5293C0.167913 1.82818 0 2.23356 0 2.65625V14.3438Z" fill="white"/>
<path d="M3.1875 5.84375H9.5625C9.7034 5.84375 9.83852 5.78778 9.93815 5.68815C10.0378 5.58852 10.0938 5.4534 10.0938 5.3125C10.0938 5.1716 10.0378 5.03648 9.93815 4.93685C9.83852 4.83722 9.7034 4.78125 9.5625 4.78125H3.1875C3.0466 4.78125 2.91148 4.83722 2.81185 4.93685C2.71222 5.03648 2.65625 5.1716 2.65625 5.3125C2.65625 5.4534 2.71222 5.58852 2.81185 5.68815C2.91148 5.78778 3.0466 5.84375 3.1875 5.84375ZM3.1875 7.96875H8.5C8.6409 7.96875 8.77602 7.91278 8.87565 7.81315C8.97528 7.71352 9.03125 7.5784 9.03125 7.4375C9.03125 7.2966 8.97528 7.16148 8.87565 7.06185C8.77602 6.96222 8.6409 6.90625 8.5 6.90625H3.1875C3.0466 6.90625 2.91148 6.96222 2.81185 7.06185C2.71222 7.16148 2.65625 7.2966 2.65625 7.4375C2.65625 7.5784 2.71222 7.71352 2.81185 7.81315C2.91148 7.91278 3.0466 7.96875 3.1875 7.96875ZM7.4375 9.5625C7.4375 9.4216 7.38153 9.28648 7.2819 9.18685C7.18227 9.08722 7.04715 9.03125 6.90625 9.03125H3.1875C3.0466 9.03125 2.91148 9.08722 2.81185 9.18685C2.71222 9.28648 2.65625 9.4216 2.65625 9.5625C2.65625 9.7034 2.71222 9.83852 2.81185 9.93815C2.91148 10.0378 3.0466 10.0938 3.1875 10.0938H6.90625C7.04715 10.0938 7.18227 10.0378 7.2819 9.93815C7.38153 9.83852 7.4375 9.7034 7.4375 9.5625ZM3.1875 11.1562C3.0466 11.1562 2.91148 11.2122 2.81185 11.3118C2.71222 11.4115 2.65625 11.5466 2.65625 11.6875C2.65625 11.8284 2.71222 11.9635 2.81185 12.0632C2.91148 12.1628 3.0466 12.2188 3.1875 12.2188H5.3125C5.4534 12.2188 5.58852 12.1628 5.68815 12.0632C5.78778 11.9635 5.84375 11.8284 5.84375 11.6875C5.84375 11.5466 5.78778 11.4115 5.68815 11.3118C5.58852 11.2122 5.4534 11.1562 5.3125 11.1562H3.1875ZM6.375 15.9375C6.41611 15.9386 6.45719 15.9343 6.49719 15.9248L8.46813 15.4594C8.56414 15.4369 8.65193 15.3879 8.72153 15.3181L14.4335 9.60341C14.7238 9.30282 14.8845 8.90024 14.8809 8.48236C14.8772 8.06448 14.7096 7.66475 14.4141 7.36926C14.1186 7.07376 13.7189 6.90615 13.301 6.90252C12.8831 6.89889 12.4806 7.05953 12.18 7.34984L6.46797 13.0618C6.39835 13.1314 6.34943 13.219 6.32666 13.3147L5.86022 15.2841C5.84286 15.3618 5.84302 15.4424 5.8607 15.5201C5.87837 15.5977 5.91311 15.6705 5.9624 15.7331C6.01169 15.7956 6.07429 15.8464 6.14565 15.8818C6.21702 15.9172 6.29536 15.9362 6.375 15.9375ZM7.32328 13.7062L12.9312 8.10103C13.0339 8.01887 13.1633 7.97746 13.2946 7.98473C13.4259 7.992 13.5499 8.04745 13.6429 8.14045C13.7359 8.23345 13.7914 8.35748 13.7986 8.4888C13.8059 8.62012 13.7645 8.74952 13.6823 8.85222L8.075 14.458L7.09113 14.6907L7.32328 13.7062Z" fill="white"/>
</svg>
