<svg width="16" height="18" viewBox="0 0 16 18" fill="none" xmlns="http://www.w3.org/2000/svg">
<path d="M11.306 13.0859C11.742 12.65 12.1779 12.214 12.6139 11.7781C13.3029 11.089 13.992 10.4 14.681 9.7109C14.8392 9.5527 14.9975 9.39449 15.1557 9.23629C15.4914 8.90055 15.4914 8.32926 15.1557 7.99352C14.7197 7.55758 14.2838 7.12164 13.8478 6.68571C13.1588 5.99664 12.4697 5.30758 11.7807 4.61852C11.6225 4.46032 11.4642 4.30211 11.306 4.14391C11.1461 3.98395 10.9105 3.88727 10.6838 3.88727C10.4676 3.88727 10.2109 3.98219 10.0615 4.14391C9.90859 4.3109 9.79433 4.53063 9.80487 4.76617C9.81542 4.99996 9.89452 5.21969 10.0615 5.38844C10.4975 5.82438 10.9334 6.26031 11.3693 6.69625C12.0584 7.38531 12.7475 8.07438 13.4365 8.76344C13.5947 8.92164 13.7529 9.07985 13.9111 9.23805C13.9111 8.82321 13.9111 8.41012 13.9111 7.99528C13.4752 8.43121 13.0392 8.86715 12.6033 9.30309C11.9142 9.99215 11.2252 10.6812 10.5361 11.3703C10.3779 11.5285 10.2197 11.6867 10.0615 11.8449C9.90155 12.0048 9.80487 12.2404 9.80487 12.4672C9.80487 12.6834 9.8998 12.94 10.0615 13.0894C10.2285 13.2423 10.4482 13.3566 10.6838 13.3461C10.9176 13.332 11.1373 13.2547 11.306 13.0859Z" fill="white"/>
<path d="M14.5334 7.73687C14.1977 7.73687 13.8619 7.73687 13.5244 7.73687C12.7176 7.73687 11.9108 7.73687 11.1022 7.73687C10.1248 7.73687 9.14923 7.73687 8.17189 7.73687C7.32638 7.73687 6.48263 7.73687 5.63713 7.73687C5.2258 7.73687 4.81447 7.7316 4.40314 7.73687C4.39787 7.73687 4.39084 7.73687 4.38556 7.73687C4.16056 7.73687 3.92326 7.83531 3.7633 7.99351C3.61037 8.14644 3.49611 8.39605 3.50666 8.61578C3.5172 8.84253 3.59103 9.07808 3.7633 9.23804C3.93556 9.39624 4.1465 9.49468 4.38556 9.49468C4.72131 9.49468 5.05705 9.49468 5.39455 9.49468C6.20138 9.49468 7.00822 9.49468 7.81681 9.49468C8.79416 9.49468 9.76974 9.49468 10.7471 9.49468C11.5926 9.49468 12.4363 9.49468 13.2819 9.49468C13.6932 9.49468 14.1045 9.49995 14.5158 9.49468C14.5211 9.49468 14.5281 9.49468 14.5334 9.49468C14.7584 9.49468 14.9957 9.39624 15.1557 9.23804C15.3086 9.08511 15.4229 8.8355 15.4123 8.61578C15.4018 8.38902 15.3279 8.15347 15.1557 7.99351C14.9834 7.83707 14.7725 7.73687 14.5334 7.73687Z" fill="white"/>
<path d="M13.0111 13.9596C13.0111 14.4166 13.0111 14.8754 13.0111 15.3324C13.0111 15.4221 13.0146 15.5117 13.0023 15.6014C13.0129 15.524 13.0234 15.4449 13.034 15.3676C13.0234 15.4379 13.0041 15.5064 12.9777 15.5732C13.0076 15.5029 13.0375 15.4326 13.0656 15.3641C13.0357 15.4361 12.9971 15.5029 12.9514 15.5645C12.9971 15.5047 13.0428 15.4467 13.0885 15.3869C13.041 15.4484 12.9865 15.5012 12.9268 15.5486C12.9865 15.5029 13.0445 15.4572 13.1043 15.4115C13.041 15.459 12.976 15.4959 12.9039 15.5258C12.9742 15.4959 13.0445 15.466 13.1131 15.4379C13.0463 15.4643 12.9777 15.4818 12.9074 15.4941C12.9848 15.4836 13.0639 15.473 13.1412 15.4625C13.0094 15.4783 12.874 15.4713 12.7422 15.4713C12.4715 15.4713 12.2008 15.4713 11.9301 15.4713C11.0266 15.4713 10.123 15.4713 9.21777 15.4713C8.12617 15.4713 7.03457 15.4713 5.94121 15.4713C4.99551 15.4713 4.0498 15.4713 3.1041 15.4713C2.65762 15.4713 2.20938 15.473 1.76289 15.4713C1.71895 15.4713 1.67324 15.4678 1.6293 15.4625C1.70664 15.473 1.78574 15.4836 1.86309 15.4941C1.79277 15.4836 1.72422 15.4643 1.65742 15.4379C1.72773 15.4678 1.79805 15.4977 1.8666 15.5258C1.79453 15.4959 1.72773 15.4572 1.66621 15.4115C1.72598 15.4572 1.78398 15.5029 1.84375 15.5486C1.78223 15.5012 1.72949 15.4467 1.68203 15.3869C1.72773 15.4467 1.77344 15.5047 1.81914 15.5645C1.77168 15.5012 1.73477 15.4361 1.70488 15.3641C1.73477 15.4344 1.76465 15.5047 1.79277 15.5732C1.76641 15.5064 1.74883 15.4379 1.73652 15.3676C1.74707 15.4449 1.75762 15.524 1.76816 15.6014C1.74883 15.4484 1.75938 15.2902 1.75938 15.1355C1.75938 14.8051 1.75938 14.4746 1.75938 14.1441C1.75938 13.652 1.75938 13.1598 1.75938 12.6676C1.75938 12.0629 1.75938 11.4564 1.75938 10.8518C1.75938 10.1873 1.75938 9.52285 1.75938 8.86016C1.75938 8.19043 1.75938 7.51895 1.75938 6.84922C1.75938 6.22695 1.75938 5.60645 1.75938 4.98418C1.75938 4.45859 1.75938 3.93125 1.75938 3.40566C1.75938 3.03125 1.75938 2.65508 1.75938 2.28066C1.75938 2.1084 1.75938 1.93789 1.75938 1.76563C1.75938 1.71992 1.76289 1.67422 1.76816 1.62852C1.75762 1.70586 1.74707 1.78496 1.73652 1.8623C1.74707 1.79199 1.76641 1.72344 1.79277 1.65664C1.76289 1.72695 1.73301 1.79727 1.70488 1.86582C1.73477 1.79375 1.77344 1.72695 1.81914 1.66543C1.77344 1.7252 1.72773 1.7832 1.68203 1.84297C1.72949 1.78145 1.78398 1.72871 1.84375 1.68125C1.78398 1.72695 1.72598 1.77266 1.66621 1.81836C1.72949 1.7709 1.79453 1.73398 1.8666 1.7041C1.79629 1.73398 1.72598 1.76387 1.65742 1.79199C1.72422 1.76563 1.79277 1.74805 1.86309 1.73574C1.78574 1.74629 1.70664 1.75684 1.6293 1.76738C1.76113 1.75156 1.89648 1.75859 2.02832 1.75859C2.29902 1.75859 2.56973 1.75859 2.84043 1.75859C3.74395 1.75859 4.64746 1.75859 5.55273 1.75859C6.64434 1.75859 7.73594 1.75859 8.8293 1.75859C9.775 1.75859 10.7207 1.75859 11.6664 1.75859C12.1129 1.75859 12.5611 1.75684 13.0076 1.75859C13.0516 1.75859 13.0973 1.76211 13.1412 1.76738C13.0639 1.75684 12.9848 1.74629 12.9074 1.73574C12.9777 1.74629 13.0463 1.76563 13.1131 1.79199C13.0428 1.76211 12.9725 1.73223 12.9039 1.7041C12.976 1.73398 13.0428 1.77266 13.1043 1.81836C13.0445 1.77266 12.9865 1.72695 12.9268 1.68125C12.9883 1.72871 13.041 1.7832 13.0885 1.84297C13.0428 1.7832 12.9971 1.7252 12.9514 1.66543C12.9988 1.72871 13.0357 1.79375 13.0656 1.86582C13.0357 1.79551 13.0059 1.7252 12.9777 1.65664C13.0041 1.72344 13.0217 1.79199 13.034 1.8623C13.0234 1.78496 13.0129 1.70586 13.0023 1.62852C13.027 1.82012 13.0111 2.01875 13.0111 2.21211C13.0111 2.49688 13.0111 2.78164 13.0111 3.06641C13.0111 3.13496 13.0111 3.20352 13.0111 3.27207C13.0111 3.49707 13.1096 3.73437 13.2678 3.89434C13.4207 4.04727 13.6703 4.16152 13.89 4.15098C14.1168 4.14043 14.3523 4.0666 14.5123 3.89434C14.6705 3.72207 14.7689 3.51113 14.7689 3.27207C14.7689 2.88711 14.7689 2.50215 14.7689 2.11719C14.7689 1.97129 14.7777 1.82188 14.7654 1.67773C14.7391 1.3666 14.667 1.05723 14.4842 0.79707C14.3102 0.549219 14.0939 0.322461 13.8127 0.194141C13.5455 0.0728516 13.2906 0.00253906 12.9936 0.00078125C12.9443 0.00078125 12.8951 0.00078125 12.8441 0.00078125C12.6279 0.00078125 12.4135 0.00078125 12.1973 0.00078125C11.4221 0.00078125 10.6469 0.00078125 9.87168 0.00078125C8.86094 0.00078125 7.85195 0.00078125 6.84121 0.00078125C5.88496 0.00078125 4.92871 0.00078125 3.97246 0.00078125C3.34141 0.00078125 2.70859 0.00078125 2.07754 0.00078125C1.97031 0.00078125 1.86133 -0.000976562 1.7541 0.00078125C1.28125 0.00605469 0.778516 0.197656 0.467383 0.563281C0.26875 0.79707 0.101758 1.0625 0.0455078 1.37012C0.0226563 1.49668 0.00332031 1.62676 0.0015625 1.75684C-0.00195312 2.08027 0.0015625 2.40195 0.0015625 2.72539C0.0015625 3.46543 0.0015625 4.20547 0.0015625 4.94551C0.0015625 5.92285 0.0015625 6.9002 0.0015625 7.87754C0.0015625 8.89355 0.0015625 9.91133 0.0015625 10.9273C0.0015625 11.8027 0.0015625 12.6781 0.0015625 13.5535C0.0015625 14.1037 0.0015625 14.6521 0.0015625 15.2023C0.0015625 15.2938 -0.000195312 15.3852 0.0015625 15.4766C0.00683594 15.9424 0.189648 16.41 0.530664 16.7334C0.864648 17.0498 1.29707 17.2256 1.75762 17.2291C2.13379 17.2326 2.50996 17.2291 2.88613 17.2291C3.72461 17.2291 4.56484 17.2291 5.40332 17.2291C6.41934 17.2291 7.43535 17.2291 8.45137 17.2291C9.37246 17.2291 10.2918 17.2291 11.2129 17.2291C11.7631 17.2291 12.3115 17.2291 12.8617 17.2291C13.2238 17.2291 13.5736 17.1781 13.8971 16.9936C14.435 16.6842 14.7619 16.0953 14.7707 15.4783C14.7725 15.3377 14.7707 15.1988 14.7707 15.0582C14.7707 14.6908 14.7707 14.3252 14.7707 13.9578C14.7707 13.7328 14.6723 13.4955 14.5141 13.3355C14.3611 13.1826 14.1115 13.0684 13.8918 13.0789C13.665 13.0895 13.4295 13.1633 13.2695 13.3355C13.1096 13.5096 13.0111 13.7223 13.0111 13.9596Z" fill="white"/>
</svg>
