<?xml version="1.0" encoding="UTF-8"?>
<svg width="800px" height="600px" viewBox="0 0 800 600" version="1.1" xmlns="http://www.w3.org/2000/svg" xmlns:xlink="http://www.w3.org/1999/xlink">
    <title>2041-10-11-16-10_WhatYouCanDoOnGitHubBeyondCollaborativeCoding</title>
    <defs>
        <path d="M8.68744595,14.5405413 C10.6544909,13.5649687 12,11.5915112 12,9.31636202 C12,6.07252388 9.26504479,3.44227578 5.89152197,3.44227578 C4.52034181,3.44227578 3.25480793,3.87689217 2.23537065,4.61058921 L2.23537065,1.05770107 C2.23537065,0.476155373 1.74046224,0 1.11695169,0 C0.493934821,0 0.0167986821,0.476630104 0.0167986821,1.05770107 L0.0167986821,1.80184219 L0,9.32158406 C-0.0041824725,11.2003327 0.951817666,12.865215 2.41753644,13.8939574 C2.4777647,13.9362085 2.55848043,13.9312238 2.6127846,13.8823265 C2.66758244,13.8334292 2.6779496,13.7558106 2.63746831,13.6950451 C0.724974359,10.8146136 1.16014819,5.53963813 5.89176881,5.53963813 C8.05899866,5.53963813 9.80709909,7.22944376 9.81623206,9.31351363 C9.82240299,10.8599505 9.11620201,12.0365717 8.19549958,12.7781018 C6.36026565,14.2561773 3.64974731,12.6382934 4.49738595,10.4697214 C4.5894562,10.2335427 4.71879884,9.9959397 4.88664808,9.76189723 L5.12361171,9.47705853 C5.19766284,9.39967734 5.25048599,9.29903433 5.2146946,9.19411874 C5.01401603,8.62800181 3.46832203,8.97526767 3.04005964,10.0315445 C3.34292878,9.79631524 3.65986763,9.66433998 3.96940137,9.71489885 C2.38890334,11.275815 3.44141679,13.9563846 5.46005069,14.7513219 C6.40494316,15.1232738 7.55964718,15.0976383 8.68744595,14.5405413" id="path-1"></path>
        <linearGradient x1="28.568518%" y1="104.445731%" x2="78.3472072%" y2="20.6880271%" id="linearGradient-3">
            <stop stop-color="#000F98" offset="0%"></stop>
            <stop stop-color="#00A5FD" offset="100%"></stop>
        </linearGradient>
    </defs>
    <g id="2041-10-11-16-10_WhatYouCanDoOnGitHubBeyondCollaborativeCoding" stroke="none" stroke-width="1" fill="none" fill-rule="evenodd">
        <rect fill="#FFFFFF" x="0" y="0" width="800" height="600"></rect>
        <g id="bloovee-winner-logo" transform="translate(725.000000, 580.000000)">
            <path d="M13,13.7751507 C13,14.396312 13.4732558,14.8717809 14.0514961,14.8717809 C14.6474304,14.8717809 15.1204503,14.3968042 15.1204503,13.7751507 L15.1204503,2.09687626 C15.1204503,1.49368045 14.6474304,1 14.0514961,1 C13.4557977,1 13,1.49392656 13,2.09687626 L13,13.7751507 Z M21.7920364,15 C24.6483217,15 26.751078,12.7149437 26.751078,9.97312215 L26.751078,9.93645297 C26.751078,7.17641992 24.6657798,4.92778666 21.8269526,4.92778666 C18.9881254,4.92778666 16.885369,7.212843 16.885369,9.97312215 L16.885369,10.0095452 C16.885369,12.7516128 18.9706673,15 21.7920364,15 Z M21.8269526,13.0621935 C20.179994,13.0621935 19.0055834,11.6547366 19.0055834,9.97312215 L19.0055834,9.93645297 C19.0055834,8.25459244 20.0919958,6.86534709 21.7920364,6.86534709 C23.456689,6.86534709 24.6306277,8.27305008 24.6306277,9.97312215 L24.6306277,10.0095452 C24.6306277,11.6731942 23.5444513,13.0621935 21.8269526,13.0621935 Z M32.8092717,15 C35.665557,15 37.7683133,12.7149437 37.7683133,9.97312215 L37.7683133,9.93645297 C37.7683133,7.17641992 35.6830151,4.92778666 32.8441878,4.92778666 C30.0053606,4.92778666 27.9026043,7.212843 27.9026043,9.97312215 L27.9026043,10.0095452 C27.9026043,12.7516128 29.9879025,15 32.8092717,15 Z M32.8441878,13.0621935 C31.1969933,13.0621935 30.0228187,11.6547366 30.0228187,9.97312215 L30.0228187,9.93645297 C30.0228187,8.25459244 31.109231,6.86534709 32.8092717,6.86534709 C34.4739243,6.86534709 35.647863,8.27305008 35.647863,9.97312215 L35.647863,10.0095452 C35.647863,11.6731942 34.5614506,13.0621935 32.8441878,13.0621935 Z M44.1416963,13.9944275 L47.2261164,6.6096472 C47.2784906,6.49988574 47.3487948,6.28060893 47.3487948,6.07954366 C47.3487948,5.47610175 46.8929971,5.01933658 46.3147568,5.01933658 C45.7539746,5.01933658 45.4737015,5.40300947 45.3158709,5.78692847 L42.8976893,12.2215093 L40.5144239,5.82335156 C40.3393711,5.36634029 40.041404,5.01933658 39.4629278,5.01933658 C38.8846875,5.01933658 38.4116676,5.53098247 38.4116676,6.07954366 C38.4116676,6.28060893 38.4817358,6.46346265 38.534346,6.62785874 L41.6182943,13.9944275 C41.8638872,14.5796579 42.2491448,14.9633308 42.8273851,14.9633308 L42.9326055,14.9633308 C43.5108458,14.9633308 43.8965752,14.5612003 44.1416963,13.9944275 Z M50.0949054,9.27837643 C50.2876522,7.77961573 51.1987758,6.73762019 52.4956289,6.73762019 C53.8974665,6.73762019 54.7036056,7.8524619 54.8437422,9.27837643 L50.0949054,9.27837643 Z M56.070527,13.72027 C56.2281217,13.5558739 56.3508002,13.3181395 56.3508002,13.0439819 C56.3508002,12.5320899 55.9830006,12.1481709 55.5095089,12.1481709 C55.2641519,12.1481709 55.1242513,12.2215093 54.9664207,12.3492362 C54.3704864,12.8611282 53.6695676,13.1901665 52.7759021,13.1901665 C51.4089807,13.1901665 50.3402624,12.3128131 50.1123635,10.7409601 L55.9126964,10.7409601 C56.4560206,10.7409601 56.9115824,10.3021604 56.9115824,9.68050697 C56.9115824,7.45057746 55.4568987,4.92778666 52.513087,4.92778666 C49.8672425,4.92778666 47.9919132,7.19438536 47.9919132,9.95466451 L47.9919132,9.9913337 C47.9919132,12.9708897 50.0597533,15 52.7409859,15 C54.1779755,15 55.2292357,14.5063195 56.070527,13.72027 Z M60.1833231,9.27837643 C60.3763058,7.77961573 61.2871935,6.73762019 62.5842825,6.73762019 C63.9858841,6.73762019 64.7920233,7.8524619 64.9321598,9.27837643 L60.1833231,9.27837643 Z M66.1589447,13.72027 C66.3167752,13.5558739 66.4394537,13.3181395 66.4394537,13.0439819 C66.4394537,12.5320899 66.0714183,12.1481709 65.5981624,12.1481709 C65.3528055,12.1481709 65.2126689,12.2215093 65.0548383,12.3492362 C64.4591399,12.8611282 63.7582212,13.1901665 62.8643197,13.1901665 C61.4976342,13.1901665 60.4289159,12.3128131 60.2007812,10.7409601 L66.0011141,10.7409601 C66.5444382,10.7409601 67,10.3021604 67,9.68050697 C67,7.45057746 65.5455522,4.92778666 62.6015046,4.92778666 C59.9556601,4.92778666 58.0805667,7.19438536 58.0805667,9.95466451 L58.0805667,9.9913337 C58.0805667,12.9708897 60.1484069,15 62.8294035,15 C64.2663932,15 65.3178893,14.5063195 66.1589447,13.72027 L66.1589447,13.72027 Z" id="Fill-1" fill="#030060"></path>
            <g id="Group-4">
                <mask id="mask-2" fill="white">
                    <use xlink:href="#path-1"></use>
                </mask>
                <g id="Clip-3"></g>
                <path d="M8.68744595,14.5405413 C10.6544909,13.5649687 12,11.5915112 12,9.31636202 C12,6.07252388 9.26504479,3.44227578 5.89152197,3.44227578 C4.52034181,3.44227578 3.25480793,3.87689217 2.23537065,4.61058921 L2.23537065,1.05770107 C2.23537065,0.476155373 1.74046224,0 1.11695169,0 C0.493934821,0 0.0167986821,0.476630104 0.0167986821,1.05770107 L0.0167986821,1.80184219 L0,9.32158406 C-0.0041824725,11.2003327 0.951817666,12.865215 2.41753644,13.8939574 C2.4777647,13.9362085 2.55848043,13.9312238 2.6127846,13.8823265 C2.66758244,13.8334292 2.6779496,13.7558106 2.63746831,13.6950451 C0.724974359,10.8146136 1.16014819,5.53963813 5.89176881,5.53963813 C8.05899866,5.53963813 9.80709909,7.22944376 9.81623206,9.31351363 C9.82240299,10.8599505 9.11620201,12.0365717 8.19549958,12.7781018 C6.36026565,14.2561773 3.64974731,12.6382934 4.49738595,10.4697214 C4.5894562,10.2335427 4.71879884,9.9959397 4.88664808,9.76189723 L5.12361171,9.47705853 C5.19766284,9.39967734 5.25048599,9.29903433 5.2146946,9.19411874 C5.01401603,8.62800181 3.46832203,8.97526767 3.04005964,10.0315445 C3.34292878,9.79631524 3.65986763,9.66433998 3.96940137,9.71489885 C2.38890334,11.275815 3.44141679,13.9563846 5.46005069,14.7513219 C6.40494316,15.1232738 7.55964718,15.0976383 8.68744595,14.5405413" id="Fill-2" fill="url(#linearGradient-3)" mask="url(#mask-2)"></path>
            </g>
        </g>
        <text id="What-You-Can-Do-On-G" fill-rule="nonzero" font-family="Helvetica" font-size="18" font-weight="normal" fill="#0055C2">
            <tspan x="10" y="23">What You Can Do On GitHub Beyond Collaborative Coding</tspan>
        </text>
        <g id="github-copy" transform="translate(748.000000, 3.000000)" fill="#000000" fill-rule="nonzero">
            <path d="M22.9998956,0 C11.7204239,0.000469179946 2.10590223,8.20619911 0.299077857,19.3745239 C-1.50774651,30.5428487 5.02642435,41.3773525 15.7268887,44.9558377 C16.8767785,45.1577383 17.3079872,44.4656891 17.3079872,43.8600567 C17.3079872,43.3121892 17.279217,41.4954764 17.279217,39.5634644 C11.5009978,40.6303861 10.0061411,38.1505528 9.54618516,36.8529173 C9.03580825,35.5908656 8.22674528,34.472458 7.1889111,33.5943411 C6.38398825,33.161796 5.23409847,32.0948512 7.16014086,32.066061 C8.65271236,32.2285228 9.97246422,33.1110528 10.6960749,34.4305721 C11.3313462,35.5753322 12.3946869,36.4194146 13.6513665,36.7764896 C14.9080461,37.1335647 16.2547288,36.9742705 17.3941369,36.3337708 C17.4936968,35.160991 18.0147545,34.0644705 18.8602924,33.2483742 C13.7432829,32.6716473 8.39629538,30.6818473 8.39629538,21.8580182 C8.36397821,19.5652878 9.20739391,17.3470389 10.7535694,15.6582042 C10.0504849,13.6655423 10.1327507,11.4787423 10.9835474,9.54489918 C10.9835474,9.54489918 12.9095438,8.93931288 17.3079412,11.9094794 C21.0710431,10.8713094 25.0437372,10.8713094 28.806839,11.9094794 C33.2051215,8.9104996 35.1312329,9.54489918 35.1312329,9.54489918 C35.982145,11.4787155 36.0644125,13.6655602 35.3612108,15.6582042 C36.9120423,17.3441484 37.7561944,19.564334 37.7184849,21.8580182 C37.7184849,30.7107067 32.3427041,32.6716473 27.2257406,33.2483742 C28.336287,34.3774629 28.9028084,35.9349635 28.7780918,37.5161532 C28.7780918,40.6016882 28.7493216,43.0815215 28.7493216,43.8601489 C28.7493216,44.4657352 29.1805302,45.1866208 30.33042,44.95593 C41.0111617,41.3485442 47.5153422,30.5121007 45.6961446,19.3555019 C43.876947,8.19890308 34.2698179,0.00588375885 22.9998956,0 Z" id="Path"></path>
        </g>
        <g id="Group-5" transform="translate(78.000000, 438.000000)">
            <g id="github-copy-3" transform="translate(66.000000, 15.000000)" fill="#000000" fill-rule="nonzero">
                <path d="M22.9998956,0 C11.7204239,0.000469179946 2.10590223,8.20619911 0.299077857,19.3745239 C-1.50774651,30.5428487 5.02642435,41.3773525 15.7268887,44.9558377 C16.8767785,45.1577383 17.3079872,44.4656891 17.3079872,43.8600567 C17.3079872,43.3121892 17.279217,41.4954764 17.279217,39.5634644 C11.5009978,40.6303861 10.0061411,38.1505528 9.54618516,36.8529173 C9.03580825,35.5908656 8.22674528,34.472458 7.1889111,33.5943411 C6.38398825,33.161796 5.23409847,32.0948512 7.16014086,32.066061 C8.65271236,32.2285228 9.97246422,33.1110528 10.6960749,34.4305721 C11.3313462,35.5753322 12.3946869,36.4194146 13.6513665,36.7764896 C14.9080461,37.1335647 16.2547288,36.9742705 17.3941369,36.3337708 C17.4936968,35.160991 18.0147545,34.0644705 18.8602924,33.2483742 C13.7432829,32.6716473 8.39629538,30.6818473 8.39629538,21.8580182 C8.36397821,19.5652878 9.20739391,17.3470389 10.7535694,15.6582042 C10.0504849,13.6655423 10.1327507,11.4787423 10.9835474,9.54489918 C10.9835474,9.54489918 12.9095438,8.93931288 17.3079412,11.9094794 C21.0710431,10.8713094 25.0437372,10.8713094 28.806839,11.9094794 C33.2051215,8.9104996 35.1312329,9.54489918 35.1312329,9.54489918 C35.982145,11.4787155 36.0644125,13.6655602 35.3612108,15.6582042 C36.9120423,17.3441484 37.7561944,19.564334 37.7184849,21.8580182 C37.7184849,30.7107067 32.3427041,32.6716473 27.2257406,33.2483742 C28.336287,34.3774629 28.9028084,35.9349635 28.7780918,37.5161532 C28.7780918,40.6016882 28.7493216,43.0815215 28.7493216,43.8601489 C28.7493216,44.4657352 29.1805302,45.1866208 30.33042,44.95593 C41.0111617,41.3485442 47.5153422,30.5121007 45.6961446,19.3555019 C43.876947,8.19890308 34.2698179,0.00588375885 22.9998956,0 Z" id="Path"></path>
            </g>
            <g id="desktop">
                <polygon id="Path" points="0 0 61 0 61 61 0 61"></polygon>
                <path d="M53.9090909,5 L8.09090909,5 C5.27818182,5 3,7.28225 3,10.1 L3,40.7 C3,43.51775 5.27818182,45.8 8.09090909,45.8 L25.9090909,45.8 L25.9090909,50.9 L20.8181818,50.9 L20.8181818,56 L41.1818182,56 L41.1818182,50.9 L36.0909091,50.9 L36.0909091,45.8 L53.9090909,45.8 C56.7218182,45.8 59,43.51775 59,40.7 L59,10.1 C59,7.28225 56.7218182,5 53.9090909,5 Z M53.9090909,40.7 L8.09090909,40.7 L8.09090909,10.1 L53.9090909,10.1 L53.9090909,40.7 Z" id="Shape" fill="#000000" fill-rule="nonzero"></path>
            </g>
        </g>
        <text id="GitHub-Desktop" font-family="Helvetica-Bold, Helvetica" font-size="21" font-weight="bold" fill="#000000">
            <tspan x="54.1655273" y="529">GitHub Desktop</tspan>
        </text>
        <g id="Group-3" transform="translate(323.000000, 445.000000)" fill="#000000" fill-rule="nonzero">
            <g id="github-copy-4" transform="translate(59.000000, 8.000000)">
                <path d="M22.9998956,0 C11.7204239,0.000469179946 2.10590223,8.20619911 0.299077857,19.3745239 C-1.50774651,30.5428487 5.02642435,41.3773525 15.7268887,44.9558377 C16.8767785,45.1577383 17.3079872,44.4656891 17.3079872,43.8600567 C17.3079872,43.3121892 17.279217,41.4954764 17.279217,39.5634644 C11.5009978,40.6303861 10.0061411,38.1505528 9.54618516,36.8529173 C9.03580825,35.5908656 8.22674528,34.472458 7.1889111,33.5943411 C6.38398825,33.161796 5.23409847,32.0948512 7.16014086,32.066061 C8.65271236,32.2285228 9.97246422,33.1110528 10.6960749,34.4305721 C11.3313462,35.5753322 12.3946869,36.4194146 13.6513665,36.7764896 C14.9080461,37.1335647 16.2547288,36.9742705 17.3941369,36.3337708 C17.4936968,35.160991 18.0147545,34.0644705 18.8602924,33.2483742 C13.7432829,32.6716473 8.39629538,30.6818473 8.39629538,21.8580182 C8.36397821,19.5652878 9.20739391,17.3470389 10.7535694,15.6582042 C10.0504849,13.6655423 10.1327507,11.4787423 10.9835474,9.54489918 C10.9835474,9.54489918 12.9095438,8.93931288 17.3079412,11.9094794 C21.0710431,10.8713094 25.0437372,10.8713094 28.806839,11.9094794 C33.2051215,8.9104996 35.1312329,9.54489918 35.1312329,9.54489918 C35.982145,11.4787155 36.0644125,13.6655602 35.3612108,15.6582042 C36.9120423,17.3441484 37.7561944,19.564334 37.7184849,21.8580182 C37.7184849,30.7107067 32.3427041,32.6716473 27.2257406,33.2483742 C28.336287,34.3774629 28.9028084,35.9349635 28.7780918,37.5161532 C28.7780918,40.6016882 28.7493216,43.0815215 28.7493216,43.8601489 C28.7493216,44.4657352 29.1805302,45.1866208 30.33042,44.95593 C41.0111617,41.3485442 47.5153422,30.5121007 45.6961446,19.3555019 C43.876947,8.19890308 34.2698179,0.00588375885 22.9998956,0 Z" id="Path"></path>
            </g>
            <g id="command-line-(1)">
                <path d="M1.47222222,47 L51.5277778,47 C52.3410333,47 53,46.3425875 53,45.53125 L53,4.40625 C53,1.97635 51.0189778,0 48.5833333,0 L4.41666667,0 C1.98102222,0 0,1.97635 0,4.40625 L0,45.53125 C0,46.3425875 0.658966667,47 1.47222222,47 Z M2.94444444,44.0625 L2.94444444,11.75 L50.0555556,11.75 L50.0555556,44.0625 L2.94444444,44.0625 Z M4.41666667,2.9375 L48.5833333,2.9375 C49.3954111,2.9375 50.0555556,3.5960875 50.0555556,4.40625 L50.0555556,8.8125 L2.94444444,8.8125 L2.94444444,4.40625 C2.94444444,3.5960875 3.60458889,2.9375 4.41666667,2.9375 Z" id="Shape"></path>
                <path d="M12.7244766,18.9396994 L8.43873171,14.4396544 C7.880442,13.8534485 6.97643555,13.8534485 6.41871728,14.4396544 C5.86099901,15.0258603 5.86042757,15.9750698 6.41871728,16.5606756 L9.69416924,19.99991 L6.41871728,23.4391444 C5.86042757,24.0253503 5.86042757,24.9745597 6.41871728,25.5601656 C6.69757641,25.8541685 7.06272188,26.00057 7.42843877,26.00057 C7.79415567,26.00057 8.15930114,25.8541685 8.43873171,25.5613656 L12.7244766,21.0613206 C13.2821949,20.4751148 13.2821949,19.5259053 12.7244766,18.9396994 Z M24.5714184,25.99997 L15.9999286,25.99997 C15.2107801,25.99997 14.5713469,26.6713767 14.5713469,27.499985 C14.5713469,28.3285933 15.2107801,29 15.9999286,29 L24.5714184,29 C25.3605669,29 26,28.3285933 26,27.499985 C26,26.6713767 25.3605669,25.99997 24.5714184,25.99997 Z" id="Shape"></path>
            </g>
        </g>
        <text id="GitHub-CLI" font-family="Helvetica-Bold, Helvetica" font-size="21" font-weight="bold" fill="#000000">
            <tspan x="320.67749" y="529">GitHub CLI</tspan>
        </text>
        <text id="GitHub-Issues" font-family="Helvetica-Bold, Helvetica" font-size="24" font-weight="bold" fill="#0055C2">
            <tspan x="138.316406" y="125">GitHub Issues</tspan>
        </text>
        <text id="Task-Management:-—-t" font-family="Helvetica-Bold, Helvetica" font-size="21" font-weight="bold" fill="#0055C2">
            <tspan x="49" y="270">Task Management: </tspan>
            <tspan x="49" y="295" font-family="Helvetica" font-weight="normal">— task list</tspan>
            <tspan x="49" y="320" font-family="Helvetica" font-weight="normal">— quick image uploader </tspan>
            <tspan x="49" y="345" font-family="Helvetica" font-weight="normal">— task assignment </tspan>
        </text>
        <text id="CI/CD-and-DevOps:-—" font-family="Helvetica-Bold, Helvetica" font-size="21" font-weight="bold" fill="#0055C2">
            <tspan x="424" y="270">CI/CD and DevOps: </tspan>
            <tspan x="424" y="295" font-family="Helvetica" font-weight="normal">— workflow automation</tspan>
            <tspan x="424" y="320" font-family="Helvetica" font-weight="normal">— seamless integration in GitHub </tspan>
            <tspan x="424" y="345" font-family="Helvetica" font-weight="normal">repositories</tspan>
        </text>
        <text id="GitHub-Actions" font-family="Helvetica-Bold, Helvetica" font-size="24" font-weight="bold" fill="#0055C2">
            <tspan x="506.111328" y="125">GitHub Actions</tspan>
        </text>
        <rect id="Rectangle" stroke="#0055C2" x="39.5" y="82.5" width="349" height="288" rx="4"></rect>
        <rect id="Rectangle-Copy" stroke="#0055C2" x="412.5" y="82.5" width="349" height="288" rx="4"></rect>
        <text id="GitHub-Key-Tools" font-family="Helvetica-Bold, Helvetica" font-size="21" font-weight="bold" fill="#0055C2">
            <tspan x="39" y="69">GitHub Key Tools</tspan>
        </text>
        <text id="GitHub-Client-Apps" font-family="Helvetica-Bold, Helvetica" font-size="21" font-weight="bold" fill="#363636">
            <tspan x="39" y="412">GitHub Client Apps</tspan>
        </text>
        <g id="Group-6" transform="translate(612.000000, 438.000000)" fill="#000000" fill-rule="nonzero">
            <g id="github-copy-2" transform="translate(40.000000, 15.000000)">
                <path d="M22.9998956,0 C11.7204239,0.000469179946 2.10590223,8.20619911 0.299077857,19.3745239 C-1.50774651,30.5428487 5.02642435,41.3773525 15.7268887,44.9558377 C16.8767785,45.1577383 17.3079872,44.4656891 17.3079872,43.8600567 C17.3079872,43.3121892 17.279217,41.4954764 17.279217,39.5634644 C11.5009978,40.6303861 10.0061411,38.1505528 9.54618516,36.8529173 C9.03580825,35.5908656 8.22674528,34.472458 7.1889111,33.5943411 C6.38398825,33.161796 5.23409847,32.0948512 7.16014086,32.066061 C8.65271236,32.2285228 9.97246422,33.1110528 10.6960749,34.4305721 C11.3313462,35.5753322 12.3946869,36.4194146 13.6513665,36.7764896 C14.9080461,37.1335647 16.2547288,36.9742705 17.3941369,36.3337708 C17.4936968,35.160991 18.0147545,34.0644705 18.8602924,33.2483742 C13.7432829,32.6716473 8.39629538,30.6818473 8.39629538,21.8580182 C8.36397821,19.5652878 9.20739391,17.3470389 10.7535694,15.6582042 C10.0504849,13.6655423 10.1327507,11.4787423 10.9835474,9.54489918 C10.9835474,9.54489918 12.9095438,8.93931288 17.3079412,11.9094794 C21.0710431,10.8713094 25.0437372,10.8713094 28.806839,11.9094794 C33.2051215,8.9104996 35.1312329,9.54489918 35.1312329,9.54489918 C35.982145,11.4787155 36.0644125,13.6655602 35.3612108,15.6582042 C36.9120423,17.3441484 37.7561944,19.564334 37.7184849,21.8580182 C37.7184849,30.7107067 32.3427041,32.6716473 27.2257406,33.2483742 C28.336287,34.3774629 28.9028084,35.9349635 28.7780918,37.5161532 C28.7780918,40.6016882 28.7493216,43.0815215 28.7493216,43.8601489 C28.7493216,44.4657352 29.1805302,45.1866208 30.33042,44.95593 C41.0111617,41.3485442 47.5153422,30.5121007 45.6961446,19.3555019 C43.876947,8.19890308 34.2698179,0.00588375885 22.9998956,0 Z" id="Path"></path>
            </g>
            <g id="mobile" transform="translate(0.000000, -0.000000)">
                <path d="M30.2222222,60 C32.3086313,60 34,58.3210678 34,56.25 L34,3.75 C34,1.67893219 32.3086313,0 30.2222222,0 L3.77777778,0 C1.69136872,0 0,1.67893219 0,3.75 L0,56.25 C0,58.3210678 1.69136872,60 3.77777778,60 L30.2222222,60 Z M15.1111111,54.1425 C15.0880386,53.3749116 15.4873992,52.6556227 16.1534934,52.2650643 C16.8195875,51.8745059 17.646968,51.8745059 18.3130622,52.2650643 C18.9791563,52.6556227 19.378517,53.3749116 19.3554444,54.1425 C19.3212091,55.2814585 18.3811837,56.1871455 17.2332778,56.1871455 C16.0853719,56.1871455 15.1453465,55.2814585 15.1111111,54.1425 Z M24.5555556,3.75 C25.5987601,3.75 26.4444444,4.58946609 26.4444444,5.625 C26.4444444,6.66053391 25.5987601,7.5 24.5555556,7.5 L20.7777778,7.5 C19.7345733,7.5 18.8888889,6.66053391 18.8888889,5.625 C18.8888889,4.58946609 19.7345733,3.75 20.7777778,3.75 L24.5555556,3.75 Z M15.1111111,5.625 C15.1111111,6.66053391 14.2654267,7.5 13.2222222,7.5 C12.1790177,7.5 11.3333333,6.66053391 11.3333333,5.625 C11.3333333,4.58946609 12.1790177,3.75 13.2222222,3.75 C14.2654267,3.75 15.1111111,4.58946609 15.1111111,5.625 L15.1111111,5.625 Z M3.77777778,11.25 L30.2222222,11.25 L30.2222222,48.75 L3.77777778,48.75 L3.77777778,11.25 Z" id="Shape"></path>
            </g>
        </g>
        <text id="GitHub-Mobile-App" font-family="Helvetica-Bold, Helvetica" font-size="21" font-weight="bold" fill="#000000">
            <tspan x="556" y="529">GitHub Mobile App</tspan>
        </text>
        <g id="task-management-(1)" transform="translate(178.000000, 148.000000)" fill="#0055C2" fill-rule="nonzero">
            <path d="M75.85,7.9 L69.44375,7.9 L69.44375,1.01935484 C69.44375,0.509677419 69.059375,0 68.41875,0 L62.525,0 C62.0125,0 61.5,0.382258065 61.5,1.01935484 L61.5,7.9 L52.915625,7.9 L52.915625,1.01935484 C52.915625,0.509677419 52.53125,0 51.890625,0 L45.996875,0 C45.484375,0 44.971875,0.382258065 44.971875,1.01935484 L44.971875,7.9 L36.3875,7.9 L36.3875,1.01935484 C36.3875,0.509677419 36.003125,0 35.3625,0 L29.46875,0 C28.95625,0 28.44375,0.382258065 28.44375,1.01935484 L28.44375,7.9 L19.859375,7.9 L19.859375,1.01935484 C19.859375,0.509677419 19.475,0 18.834375,0 L12.940625,0 C12.428125,0 11.915625,0.382258065 11.915625,1.01935484 L11.915625,7.9 L5.509375,7.9 C2.690625,7.9 0,10.5758065 0,14.016129 L0,72.883871 C0,76.1967742 2.690625,79 6.15,79 L75.85,79 C79.18125,79 82,76.3241935 82,72.883871 L82,14.016129 C82,10.5758065 79.309375,7.9 75.85,7.9 Z M67.521875,1.91129032 L67.521875,14.9080645 L63.55,14.9080645 L63.55,1.91129032 L67.521875,1.91129032 Z M51.121875,1.91129032 L51.121875,14.9080645 L47.15,14.9080645 L47.15,1.91129032 L51.121875,1.91129032 Z M34.721875,1.91129032 L34.721875,14.9080645 L30.75,14.9080645 L30.75,1.91129032 L34.721875,1.91129032 L34.721875,1.91129032 Z M18.321875,1.91129032 L18.321875,14.9080645 L14.35,14.9080645 L14.35,1.91129032 L18.321875,1.91129032 Z M1.921875,14.016129 C1.921875,11.7225806 3.84375,9.81129032 6.15,9.81129032 L12.55625,9.81129032 L12.55625,16.0548387 C12.55625,16.5645161 12.940625,17.0741935 13.58125,17.0741935 L19.475,17.0741935 C19.9875,17.0741935 20.5,16.6919355 20.5,16.0548387 L20.5,9.81129032 L29.084375,9.81129032 L29.084375,16.0548387 C29.084375,16.5645161 29.46875,17.0741935 30.109375,17.0741935 L36.003125,17.0741935 C36.515625,17.0741935 37.028125,16.6919355 37.028125,16.0548387 L37.028125,9.81129032 L45.6125,9.81129032 L45.6125,16.0548387 C45.6125,16.5645161 45.996875,17.0741935 46.6375,17.0741935 L52.53125,17.0741935 C53.04375,17.0741935 53.55625,16.6919355 53.55625,16.0548387 L53.55625,9.81129032 L62.140625,9.81129032 L62.140625,16.0548387 C62.140625,16.5645161 62.525,17.0741935 63.165625,17.0741935 L69.059375,17.0741935 C69.571875,17.0741935 70.084375,16.6919355 70.084375,16.0548387 L70.084375,9.81129032 L76.490625,9.81129032 C78.796875,9.81129032 80.71875,11.7225806 80.71875,14.016129 L80.71875,19.8774194 L2.5625,19.8774194 L2.5625,14.016129 L1.921875,14.016129 Z M75.85,77.0887097 L6.15,77.0887097 C3.84375,77.0887097 1.921875,75.1774194 1.921875,72.883871 L1.921875,21.7887097 L80.078125,21.7887097 L80.078125,72.883871 C80.078125,75.1774194 78.15625,77.0887097 75.85,77.0887097 Z" id="Shape"></path>
            <path d="M17.9803922,25 L7.01960784,25 C6.50980392,25 6,25.40625 6,26.0833333 L6,36.9166667 C6,37.4583333 6.38235294,38 7.01960784,38 L17.9803922,38 C18.4901961,38 19,37.59375 19,36.9166667 L19,26.0833333 C18.872549,25.5416667 18.4901961,25 17.9803922,25 Z M16.9607843,35.8333333 L8.03921569,35.8333333 L8.03921569,27.03125 L16.9607843,27.03125 L16.9607843,35.8333333 Z" id="Shape"></path>
            <path d="M12.2372263,34.1803659 C12.3649635,34.3104886 12.620438,34.4406113 12.8759124,34.4406113 C13.1313869,34.4406113 13.3868613,34.3104886 13.5145985,34.0502432 L16.4525547,30.6670526 C16.8357664,30.2766845 16.7080292,29.6260709 16.3248175,29.2357028 C15.9416058,28.8453346 15.3029197,28.9754573 14.919708,29.3658255 L12.7481752,31.9682797 L11.7262774,31.0574207 C11.3430657,30.6670526 10.7043796,30.6670526 10.3211679,31.0574207 C9.9379562,31.4477889 9.9379562,32.0984025 10.3211679,32.4887706 L12.2372263,34.1803659 Z M75.9781022,30.6670526 L25.7773723,30.6670526 C25.2664234,30.6670526 24.7554745,31.0574207 24.7554745,31.7080343 C24.7554745,32.2285252 25.1386861,32.749016 25.7773723,32.749016 L75.9781022,32.749016 C76.4890511,32.749016 77,32.3586479 77,31.7080343 C76.8722628,31.1875435 76.4890511,30.6670526 75.9781022,30.6670526 L75.9781022,30.6670526 Z M19.0072993,42.5082195 L8.02189781,42.5082195 C7.51094891,42.5082195 7,42.8985877 7,43.5492012 L7,53.9590183 C7,54.4795091 7.38321168,55 8.02189781,55 L19.0072993,55 C19.5182482,55 20.0291971,54.6096319 20.0291971,53.9590183 L20.0291971,43.5492012 C19.9014599,42.8985877 19.5182482,42.5082195 19.0072993,42.5082195 Z M17.9854015,52.9180366 L9.04379562,52.9180366 L9.04379562,44.4600602 L17.9854015,44.4600602 L17.9854015,52.9180366 Z" id="Shape"></path>
            <path d="M12.2372263,51.1803659 C12.3649635,51.3104886 12.620438,51.4406113 12.8759124,51.4406113 C13.1313869,51.4406113 13.3868613,51.3104886 13.5145985,51.0502432 L16.4525547,47.6670526 C16.8357664,47.2766845 16.7080292,46.6260709 16.3248175,46.2357028 C15.9416058,45.8453346 15.3029197,45.9754573 14.919708,46.3658255 L12.7481752,48.9682797 L11.7262774,48.0574207 C11.3430657,47.6670526 10.7043796,47.6670526 10.3211679,48.0574207 C9.9379562,48.4477889 9.9379562,49.0984025 10.3211679,49.4887706 L12.2372263,51.1803659 Z M75.9781022,47.7971753 L25.7773723,47.7971753 C25.2664234,47.7971753 24.7554745,48.1875435 24.7554745,48.838157 C24.7554745,49.3586479 25.1386861,49.8791387 25.7773723,49.8791387 L75.9781022,49.8791387 C76.4890511,49.8791387 77,49.4887706 77,48.838157 C76.8722628,48.1875435 76.4890511,47.7971753 75.9781022,47.7971753 L75.9781022,47.7971753 Z M19.0072993,59.6383422 L8.02189781,59.6383422 C7.51094891,59.6383422 7,60.0287104 7,60.6793239 L7,71.089141 C7.12773723,71.4795091 7.51094891,72 8.02189781,72 L19.0072993,72 C19.5182482,72 20.0291971,71.6096319 20.0291971,70.9590183 L20.0291971,60.5492012 C19.9014599,60.0287104 19.5182482,59.6383422 19.0072993,59.6383422 Z M17.9854015,70.0481593 L9.04379562,70.0481593 L9.04379562,61.5901829 L17.9854015,61.5901829 L17.9854015,70.0481593 Z" id="Shape"></path>
            <path d="M11.1716738,67.7129969 C11.297568,67.8564984 11.5493562,68 11.8011445,68 C12.0529328,68 12.304721,67.8564984 12.4306152,67.5694953 L15.3261803,63.8384544 C15.7038627,63.4079497 15.5779685,62.6904418 15.2002861,62.2599371 C14.8226037,61.8294324 14.193133,61.9729339 13.8154506,62.4034386 L11.6752504,65.2734701 L10.6680973,64.2689591 C10.2904149,63.8384544 9.66094421,63.8384544 9.2832618,64.2689591 C8.9055794,64.6994638 8.9055794,65.4169717 9.2832618,65.8474764 L11.1716738,67.7129969 Z M73.9928469,64.1254575 L24.5164521,64.1254575 C24.0128755,64.1254575 23.509299,64.5559622 23.509299,65.2734701 C23.509299,65.8474764 23.8869814,66.4214827 24.5164521,66.4214827 L73.9928469,66.4214827 C74.4964235,66.4214827 75,65.990978 75,65.2734701 C74.8741059,64.5559622 74.4964235,64.1254575 73.9928469,64.1254575 L73.9928469,64.1254575 Z" id="Shape"></path>
        </g>
        <g id="Group-2" transform="translate(550.000000, 148.000000)" fill="#0055C2" fill-rule="nonzero">
            <g id="Group" transform="translate(15.700006, 12.000000)">
                <path d="M32.625,54 L21.375,54 C20.7536797,54 20.25,53.4963203 20.25,52.875 L20.25,48.072375 C19.2068793,47.6661725 18.2082596,47.1538569 17.269875,46.5435 L17.05275,46.413 L13.170375,50.295375 C12.7310627,50.7345547 12.0189373,50.7345547 11.579625,50.295375 L3.704625,42.420375 C3.26544532,41.9810627 3.26544532,41.2689373 3.704625,40.829625 L7.587,36.94725 L7.4565,36.730125 C6.84614307,35.7917404 6.33382745,34.7931207 5.927625,33.75 L1.125,33.75 C0.503679656,33.75 0,33.2463203 0,32.625 L0,21.375 C0,20.7536797 0.503679656,20.25 1.125,20.25 L5.927625,20.25 C6.33382745,19.2068793 6.84614307,18.2082596 7.4565,17.269875 L7.587,17.05275 L3.704625,13.170375 C3.26544532,12.7310627 3.26544532,12.0189373 3.704625,11.579625 L11.579625,3.704625 C12.0189373,3.26544532 12.7310627,3.26544532 13.170375,3.704625 L17.05275,7.587 L17.269875,7.4565 C18.2082596,6.84614307 19.2068793,6.33382745 20.25,5.927625 L20.25,1.125 C20.25,0.503679656 20.7536797,0 21.375,0 L32.625,0 C33.2463203,0 33.75,0.503679656 33.75,1.125 L33.75,5.927625 C34.7931207,6.33382745 35.7917404,6.84614307 36.730125,7.4565 L36.94725,7.587 L40.829625,3.704625 C41.2689373,3.26544532 41.9810627,3.26544532 42.420375,3.704625 L50.295375,11.579625 C50.7345547,12.0189373 50.7345547,12.7310627 50.295375,13.170375 L46.413,17.05275 L46.5435,17.269875 C47.1538569,18.2082596 47.6661725,19.2068793 48.072375,20.25 L52.875,20.25 C53.4963203,20.25 54,20.7536797 54,21.375 L54,32.625 C54,33.2463203 53.4963203,33.75 52.875,33.75 L48.072375,33.75 C47.6661725,34.7931207 47.1538569,35.7917404 46.5435,36.730125 L46.413,36.94725 L50.295375,40.829625 C50.7345547,41.2689373 50.7345547,41.9810627 50.295375,42.420375 L42.420375,50.295375 C41.9810627,50.7345547 41.2689373,50.7345547 40.829625,50.295375 L36.94725,46.413 L36.730125,46.5435 C35.7917404,47.1538569 34.7931207,47.6661725 33.75,48.072375 L33.75,52.875 C33.75,53.4963203 33.2463203,54 32.625,54 Z M22.5,51.75 L31.5,51.75 L31.5,47.25 C31.4998964,46.7425439 31.8395334,46.297836 32.329125,46.164375 C33.4781878,45.8112064 34.5688196,45.2903416 35.56575,44.618625 C35.88525,44.424 36.214875,44.226 36.563625,44.024625 C37.0045598,43.7709922 37.5608286,43.8447923 37.920375,44.204625 L41.625,47.90925 L47.90925,41.625 L44.204625,37.920375 C43.8447923,37.5608286 43.7709922,37.0045598 44.024625,36.563625 C44.226,36.214875 44.424,35.888625 44.618625,35.56575 C45.2903416,34.5688196 45.8112064,33.4781878 46.164375,32.329125 C46.297836,31.8395334 46.7425439,31.4998964 47.25,31.5 L51.75,31.5 L51.75,22.5 L47.25,22.5 C46.7425439,22.5001036 46.297836,22.1604666 46.164375,21.670875 C45.8112064,20.5218122 45.2903416,19.4311804 44.618625,18.43425 C44.424,18.11475 44.226,17.785125 44.024625,17.436375 C43.7709922,16.9954402 43.8447923,16.4391714 44.204625,16.079625 L47.90925,12.375 L41.625,6.09075 L37.920375,9.795375 C37.5608286,10.1552077 37.0045598,10.2290078 36.563625,9.975375 C36.214875,9.774 35.888625,9.576 35.56575,9.381375 C34.5688196,8.70965837 33.4781878,8.18879356 32.329125,7.835625 C31.8395334,7.70216405 31.4998964,7.25745611 31.5,6.75 L31.5,2.25 L22.5,2.25 L22.5,6.75 C22.5001036,7.25745611 22.1604666,7.70216405 21.670875,7.835625 C20.5218122,8.18879356 19.4311804,8.70965837 18.43425,9.381375 C18.11475,9.576 17.785125,9.774 17.436375,9.975375 C16.9954402,10.2290078 16.4391714,10.1552077 16.079625,9.795375 L12.375,6.09075 L6.09075,12.375 L9.795375,16.079625 C10.1552077,16.4391714 10.2290078,16.9954402 9.975375,17.436375 C9.774,17.785125 9.576,18.111375 9.381375,18.43425 C8.70965837,19.4311804 8.18879356,20.5218122 7.835625,21.670875 C7.70216405,22.1604666 7.25745611,22.5001036 6.75,22.5 L2.25,22.5 L2.25,31.5 L6.75,31.5 C7.25745611,31.4998964 7.70216405,31.8395334 7.835625,32.329125 C8.18879356,33.4781878 8.70965837,34.5688196 9.381375,35.56575 C9.576,35.88525 9.774,36.214875 9.975375,36.563625 C10.2290078,37.0045598 10.1552077,37.5608286 9.795375,37.920375 L6.09075,41.625 L12.375,47.90925 L16.079625,44.204625 C16.4391714,43.8447923 16.9954402,43.7709922 17.436375,44.024625 C17.785125,44.226 18.111375,44.424 18.43425,44.618625 C19.4311804,45.2903416 20.5218122,45.8112064 21.670875,46.164375 C22.1604666,46.297836 22.5001036,46.7425439 22.5,47.25 L22.5,51.75 Z" id="Shape"></path>
                <path d="M27.3,41.4 C19.1814142,41.4 12.6,34.8185858 12.6,26.7 C12.6,18.5814142 19.1814142,12 27.3,12 C35.4185858,12 42,18.5814142 42,26.7 C41.990653,34.814711 35.414711,41.390653 27.3,41.4 L27.3,41.4 Z M27.3,14.2615385 C20.4304274,14.2615385 14.8615385,19.8304274 14.8615385,26.7 C14.8615385,33.5695726 20.4304274,39.1384615 27.3,39.1384615 C34.1695726,39.1384615 39.7384615,33.5695726 39.7384615,26.7 C39.7303613,19.8337854 34.1662146,14.2696387 27.3,14.2615385 Z" id="Shape"></path>
            </g>
            <path d="M78.3966021,32.9995055 C77.7633455,32.9993382 77.2219816,32.5553284 77.1136948,31.9473049 C74.0639538,14.9431535 58.9135966,2.53569386 41.2001052,2.53569386 C23.4866138,2.53569386 8.33625664,14.9431535 5.28651571,31.9473049 C5.163512,32.638123 4.48912907,33.1009695 3.78023927,32.9811015 C3.07134948,32.8612335 2.59639497,32.2040426 2.71939868,31.5132246 C5.98752298,13.2939373 22.2207111,0 41.2001052,0 C60.1794994,0 76.4126875,13.2939373 79.6808118,31.5132246 C79.7465695,31.8824487 79.6415347,32.261119 79.3938497,32.5477773 C79.1461647,32.8344357 78.781149,33 78.3966021,32.9995055 Z" id="Path"></path>
            <path d="M79.7519831,35.0004827 C79.4441064,35.0000207 79.145959,34.8911446 78.9085676,34.692488 L71.0138829,28.0259362 C70.6523889,27.7205985 70.4791087,27.2430307 70.5593154,26.773128 C70.6395221,26.3032254 70.9610302,25.9123773 71.4027309,25.7478123 C71.8444316,25.5832474 72.3392199,25.6699671 72.7007139,25.9753049 L79.0414614,31.3325459 L81.1177635,23.9686728 C81.3168754,23.2602877 82.0449969,22.8495907 82.7440686,23.0513552 C83.4431402,23.2531198 83.8484376,23.9909418 83.6493257,24.6993268 L81.0177642,34.0324994 C80.8959411,34.4665777 80.5656949,34.8087494 80.1401384,34.941817 C80.0142516,34.9803708 79.8834932,35.0001335 79.7519831,35.0004827 L79.7519831,35.0004827 Z M41.5943404,78.9998627 C22.4020891,79.050548 5.97452299,65.0612418 2.71959726,45.8949617 C2.59533401,45.169272 3.07515198,44.478907 3.7913007,44.3529882 C4.50744942,44.2270695 5.18873793,44.7132799 5.31300117,45.4389695 C8.393971,63.3014688 23.6994655,76.3352412 41.5943404,76.3352412 C59.4892153,76.3352412 74.7947098,63.3014688 77.8756797,45.4389695 C77.9999429,44.7132799 78.6812314,44.2270696 79.3973801,44.3529883 C80.1135288,44.4789071 80.5933468,45.169272 80.4690836,45.8949617 C77.2141579,65.0612418 60.7865917,79.050548 41.5943404,78.9998627 L41.5943404,78.9998627 Z" id="Shape"></path>
            <path d="M1.00192549,55 C0.881063733,54.9996676 0.760799332,54.9840448 0.644370743,54.9535522 C0.3125892,54.8648018 0.031921325,54.6557429 -0.135850275,54.3723951 C-0.303621874,54.0890473 -0.344744604,53.7546372 -0.250166236,53.4427775 L2.35023196,44.8866099 C2.47086474,44.4895879 2.79655809,44.1766561 3.21614935,44.0546215 C3.6357406,43.9325869 4.09250748,44.0179467 4.43055051,44.2815666 L12.2317451,50.3931149 C12.7839487,50.8258303 12.8584599,51.597448 12.3981705,52.1165714 C11.9378812,52.6356949 11.1170935,52.7057425 10.5648899,52.2730271 L4.3044312,47.361787 L2.25271703,54.1126031 C2.09352163,54.6378995 1.58293063,55.0001476 1.00192549,55 Z" id="Path"></path>
        </g>
    </g>
</svg>