<?xml version="1.0" encoding="UTF-8"?>
<svg width="800px" height="600px" viewBox="0 0 800 600" version="1.1" xmlns="http://www.w3.org/2000/svg" xmlns:xlink="http://www.w3.org/1999/xlink">
    <title>2041-10-16-10-10_Chapter6.WorkWithBranches</title>
    <defs>
        <linearGradient x1="50%" y1="0%" x2="50%" y2="100%" id="linearGradient-1">
            <stop stop-color="#008EE3" offset="0%"></stop>
            <stop stop-color="#0055C2" offset="100%"></stop>
        </linearGradient>
        <path d="M8.68744595,14.5405413 C10.6544909,13.5649687 12,11.5915112 12,9.31636202 C12,6.07252388 9.26504479,3.44227578 5.89152197,3.44227578 C4.52034181,3.44227578 3.25480793,3.87689217 2.23537065,4.61058921 L2.23537065,1.05770107 C2.23537065,0.476155373 1.74046224,0 1.11695169,0 C0.493934821,0 0.0167986821,0.476630104 0.0167986821,1.05770107 L0.0167986821,1.80184219 L0,9.32158406 C-0.0041824725,11.2003327 0.951817666,12.865215 2.41753644,13.8939574 C2.4777647,13.9362085 2.55848043,13.9312238 2.6127846,13.8823265 C2.66758244,13.8334292 2.6779496,13.7558106 2.63746831,13.6950451 C0.724974359,10.8146136 1.16014819,5.53963813 5.89176881,5.53963813 C8.05899866,5.53963813 9.80709909,7.22944376 9.81623206,9.31351363 C9.82240299,10.8599505 9.11620201,12.0365717 8.19549958,12.7781018 C6.36026565,14.2561773 3.64974731,12.6382934 4.49738595,10.4697214 C4.5894562,10.2335427 4.71879884,9.9959397 4.88664808,9.76189723 L5.12361171,9.47705853 C5.19766284,9.39967734 5.25048599,9.29903433 5.2146946,9.19411874 C5.01401603,8.62800181 3.46832203,8.97526767 3.04005964,10.0315445 C3.34292878,9.79631524 3.65986763,9.66433998 3.96940137,9.71489885 C2.38890334,11.275815 3.44141679,13.9563846 5.46005069,14.7513219 C6.40494316,15.1232738 7.55964718,15.0976383 8.68744595,14.5405413" id="path-2"></path>
    </defs>
    <g id="2041-10-16-10-10_Chapter6.WorkWithBranches" stroke="none" stroke-width="1" fill="none" fill-rule="evenodd">
        <rect fill="#FFFFFF" x="0" y="0" width="800" height="600"></rect>
        <rect id="Rectangle" fill="url(#linearGradient-1)" x="0" y="0" width="800" height="600"></rect>
        <text id="06" font-family="Helvetica-Bold, Helvetica" font-size="200" font-weight="bold" fill="#FFFFFF" fill-opacity="0.5">
            <tspan x="297" y="224">06</tspan>
        </text>
        <text id="Work-with-Branches" font-family="Helvetica-Bold, Helvetica" font-size="80" font-weight="bold" fill="#FFFFFF" fill-opacity="0.8">
            <tspan x="297" y="336">Work with </tspan>
            <tspan x="297" y="432">Branches</tspan>
        </text>
        <circle id="Oval" fill="#FFFFFF" cx="73" cy="300" r="173"></circle>
        <circle id="Oval-Copy" fill="#FFFFFF" cx="132.5" cy="111.5" r="19.5"></circle>
        <circle id="Oval-Copy-2" fill="#FFFFFF" cx="172" cy="76" r="10"></circle>
        <circle id="Oval-Copy-3" fill="#FFFFFF" cx="212.5" cy="60.5" r="7.5"></circle>
        <circle id="Oval-Copy-4" fill="#FFFFFF" cx="246.5" cy="56.5" r="5.5"></circle>
        <circle id="Oval-Copy-5" fill="#FFFFFF" cx="270.5" cy="62.5" r="4.5"></circle>
        <circle id="Oval-Copy-6" fill="#FFFFFF" cx="288.5" cy="76.5" r="3.5"></circle>
        <text id="GitHub" font-family="Helvetica-Bold, Helvetica" font-size="36" font-weight="bold" fill="#363636">
            <tspan x="22" y="388">GitHub </tspan>
        </text>
        <g id="git-copy" transform="translate(22.000000, 216.000000)">
            <path d="M61.0844225,14.3987612 C58.9004484,14.3987612 57.2742376,15.4891954 57.2742376,18.1138639 C57.2742376,20.0910872 58.345877,21.4638659 60.9671247,21.4638659 C63.1886022,21.4638659 64.6983131,20.1324653 64.6983131,18.0319191 C64.6983131,15.6514624 63.3473931,14.3987612 61.0844225,14.3987612 L61.0844225,14.3987612 Z M56.7188682,32.9296513 C56.2018002,33.5746626 55.686328,34.2602406 55.686328,35.0691416 C55.686328,36.6828868 57.7099153,37.1680651 60.4907518,37.1680651 C62.7928217,37.1680651 65.9295415,37.0041754 65.9295415,34.8273638 C65.9295415,33.5332845 64.4198305,33.4537737 62.5135411,33.3320735 L56.7188682,32.9296513 Z M68.4686009,14.5204615 C69.1827612,15.44944 69.9384146,16.7410852 69.9384146,18.5982309 C69.9384146,23.0784224 66.4841129,25.7022797 61.4825968,25.7022797 C60.2106733,25.7022797 59.0592394,25.5416353 58.3450791,25.3396129 L57.0348542,27.4791032 L60.9248336,27.7200697 C67.7935398,28.1654925 71.8423102,28.3675149 71.8423102,33.7344956 C71.8423102,38.3777655 67.8334371,41 60.9248336,41 C53.7385455,41 51,39.1428543 51,35.9551193 C51,34.1377291 51.7947527,33.1714291 53.1839741,31.8367832 C51.8729513,31.2737167 51.4372736,30.2652274 51.4372736,29.1747932 C51.4372736,28.2863814 51.8737492,27.4791032 52.5887075,26.7115803 C53.3036658,25.9456801 54.0976205,25.1773459 55.0495683,24.2897455 C53.1041796,23.3210116 51.6359618,21.2220881 51.6359618,18.2339415 C51.6359618,13.5922943 54.6529899,10.4045593 60.7269434,10.4045593 C62.4345446,10.4045593 63.4678827,10.5643923 64.3799333,10.8086041 L72.1223887,10.8086041 L72.1223887,14.2389282 L68.4686009,14.5204615 L68.4686009,14.5204615 Z M79.1067969,7.18599359 C76.8430284,7.18599359 75.5328035,5.85297028 75.5328035,3.55121304 C75.5328035,1.25270115 76.8430284,0 79.1067969,0 C81.4096647,0 82.719092,1.25188982 82.719092,3.55121304 C82.7198896,5.85297028 81.4096647,7.18599359 79.1067969,7.18599359 Z M73.9839932,31.4449084 L73.9839932,28.2571734 L76.0099743,27.9748288 C76.5653437,27.8936953 76.6443402,27.7728064 76.6443402,27.1659279 L76.6443402,15.2985317 C76.6443402,14.8555428 76.5262444,14.5715756 76.1280701,14.451498 L73.9839932,13.6839751 L74.4204689,10.415918 L82.6400951,10.415918 L82.6400951,27.1667392 C82.6400951,27.8141845 82.6783965,27.8936953 83.2752589,27.9756402 L85.3004421,28.2579847 L85.3004421,31.4457197 L73.9839932,31.4457197 L73.9839932,31.4449084 Z M101,29.8790319 C99.2916008,30.7252543 96.7916407,31.4935885 94.5270743,31.4935885 C89.8032428,31.4935885 88.0174431,29.5577433 88.0174431,24.9939842 L88.0174431,14.4182333 C88.0174431,14.1772668 88.0174431,14.0149998 87.6990632,14.0149998 L84.9206205,14.0149998 L84.9206205,10.4224087 C88.4156174,10.0175525 89.8040408,8.24154035 90.2405164,3.84167095 L94.013198,3.84167095 L94.013198,9.575375 C94.013198,9.85690822 94.013198,9.9794198 94.3307799,9.9794198 L99.9283605,9.9794198 L99.9283605,14.0158111 L94.013198,14.0158111 L94.013198,23.6625836 C94.013198,26.0438517 94.5693653,26.9720188 96.7126442,26.9720188 C97.8257768,26.9720188 98.9756148,26.6904856 99.9283605,26.3270076 L101,29.8790319 L101,29.8790319 Z" id="Shape" fill="#31251C" fill-rule="nonzero"></path>
            <path d="M41.2074141,19.1290521 L22.8697208,0.791988945 C21.8145518,-0.263996315 20.1016151,-0.263996315 19.0456399,0.791988945 L15.2376808,4.59998465 L20.0669533,9.43010959 C21.1906398,9.05124465 22.477156,9.30516477 23.3719136,10.200737 C24.2715077,11.1011458 24.5238132,12.3989598 24.1352788,13.5258814 L28.7904363,18.1810836 C29.915735,17.7933516 31.2159548,18.0440474 32.1155489,18.9444562 C33.373046,20.2011592 33.373046,22.2381629 32.1155489,23.495672 C30.8572457,24.7531812 28.8210677,24.7531812 27.5635706,23.495672 C26.6180295,22.5493158 26.384264,21.160413 26.8630802,19.9956049 L22.5214909,15.6539739 L22.5206848,27.0795732 C22.8278043,27.2311191 23.1163837,27.432643 23.3719136,27.6873692 C24.6294107,28.9440723 24.6294107,30.9802699 23.3719136,32.2393912 C22.1144165,33.4960943 20.0766263,33.4960943 18.8207414,32.2393912 C17.5632443,30.9802699 17.5632443,28.9440723 18.8207414,27.6873692 C19.1318913,27.3770224 19.4906004,27.1424486 19.8742983,26.98526 L19.8742983,15.4540621 C19.4906004,15.2976796 19.1318913,15.0639119 18.8207414,14.7519529 C17.8679455,13.7999539 17.6390166,12.4029902 18.1275058,11.2333455 L13.3667508,6.47093258 L0.792585911,19.044412 C-0.264195304,20.1012034 -0.264195304,21.8141566 0.792585911,22.8709479 L19.1302792,41.2080111 C20.1862543,42.2639963 21.8983849,42.2639963 22.9559722,41.2080111 L41.2074141,22.9547819 C42.2641953,21.8987966 42.2641953,20.1850373 41.2074141,19.1290521 L41.2074141,19.1290521 Z" id="Path" fill="#F34F29" fill-rule="nonzero"></path>
            <polygon id="Path" points="1.45136493e-15 0 102 0 102 42 0 42"></polygon>
        </g>
        <g id="github-copy" transform="translate(56.000000, 291.000000)" fill="#000000" fill-rule="nonzero">
            <path d="M28.4998707,0 C14.523134,0.000583868377 2.60948754,10.2121589 0.370596475,24.1105186 C-1.86829459,38.0088784 6.22839539,51.4918164 19.4876665,55.9450425 C20.9125299,56.1962965 21.4468537,55.3350798 21.4468537,54.5814038 C21.4468537,53.8996132 21.4112036,51.6388151 21.4112036,49.2345335 C14.2512364,50.5622582 12.3989139,47.4762434 11.8289686,45.8614081 C11.196545,44.290855 10.1940105,42.8990588 8.90799854,41.8062912 C7.91059414,41.2680128 6.48573071,39.9402593 8.87234846,39.9044315 C10.7218392,40.1066061 12.3571839,41.2048657 13.253832,42.8469341 C14.041016,44.2715245 15.3586338,45.3219381 16.9158237,45.7662982 C18.4730136,46.2106583 20.1417292,46.0124255 21.5536045,45.2153592 C21.6769721,43.7558999 22.3226306,42.391341 23.3703623,41.3757546 C17.0297201,40.65805 10.4041051,38.1818544 10.4041051,27.2010893 C10.36406,24.3479137 11.409162,21.5874262 13.3250752,19.4857652 C12.4538618,17.0060082 12.5557998,14.284657 13.6100479,11.8780968 C13.6100479,11.8780968 15.9966086,11.1244782 21.4467967,14.8206855 C26.1097707,13.5287406 31.032457,13.5287406 35.695431,14.8206855 C41.1454766,11.0886217 43.5321798,11.8780968 43.5321798,11.8780968 C44.586571,14.2846238 44.6885111,17.0060305 43.8171525,19.4857652 C45.738835,21.5838291 46.7848496,24.3467268 46.7381226,27.2010893 C46.7381226,38.2177683 40.076829,40.65805 33.7362438,41.3757546 C35.1123557,42.7808428 35.8143495,44.7190656 35.6598094,46.6867684 C35.6598094,50.5265453 35.6241593,53.6125601 35.6241593,54.5815187 C35.6241593,55.3351372 36.1584831,56.2322392 37.5833465,55.9451573 C50.8181786,51.4559661 58.8777066,37.9706141 56.6234835,24.0868468 C54.3692604,10.2030794 42.4647743,0.00732201101 28.4998707,0 Z" id="Path"></path>
        </g>
        <g id="bloovee-winner-logo" transform="translate(725.000000, 580.000000)">
            <path d="M13,13.7751507 C13,14.396312 13.4732558,14.8717809 14.0514961,14.8717809 C14.6474304,14.8717809 15.1204503,14.3968042 15.1204503,13.7751507 L15.1204503,2.09687626 C15.1204503,1.49368045 14.6474304,1 14.0514961,1 C13.4557977,1 13,1.49392656 13,2.09687626 L13,13.7751507 Z M21.7920364,15 C24.6483217,15 26.751078,12.7149437 26.751078,9.97312215 L26.751078,9.93645297 C26.751078,7.17641992 24.6657798,4.92778666 21.8269526,4.92778666 C18.9881254,4.92778666 16.885369,7.212843 16.885369,9.97312215 L16.885369,10.0095452 C16.885369,12.7516128 18.9706673,15 21.7920364,15 Z M21.8269526,13.0621935 C20.179994,13.0621935 19.0055834,11.6547366 19.0055834,9.97312215 L19.0055834,9.93645297 C19.0055834,8.25459244 20.0919958,6.86534709 21.7920364,6.86534709 C23.456689,6.86534709 24.6306277,8.27305008 24.6306277,9.97312215 L24.6306277,10.0095452 C24.6306277,11.6731942 23.5444513,13.0621935 21.8269526,13.0621935 Z M32.8092717,15 C35.665557,15 37.7683133,12.7149437 37.7683133,9.97312215 L37.7683133,9.93645297 C37.7683133,7.17641992 35.6830151,4.92778666 32.8441878,4.92778666 C30.0053606,4.92778666 27.9026043,7.212843 27.9026043,9.97312215 L27.9026043,10.0095452 C27.9026043,12.7516128 29.9879025,15 32.8092717,15 Z M32.8441878,13.0621935 C31.1969933,13.0621935 30.0228187,11.6547366 30.0228187,9.97312215 L30.0228187,9.93645297 C30.0228187,8.25459244 31.109231,6.86534709 32.8092717,6.86534709 C34.4739243,6.86534709 35.647863,8.27305008 35.647863,9.97312215 L35.647863,10.0095452 C35.647863,11.6731942 34.5614506,13.0621935 32.8441878,13.0621935 Z M44.1416963,13.9944275 L47.2261164,6.6096472 C47.2784906,6.49988574 47.3487948,6.28060893 47.3487948,6.07954366 C47.3487948,5.47610175 46.8929971,5.01933658 46.3147568,5.01933658 C45.7539746,5.01933658 45.4737015,5.40300947 45.3158709,5.78692847 L42.8976893,12.2215093 L40.5144239,5.82335156 C40.3393711,5.36634029 40.041404,5.01933658 39.4629278,5.01933658 C38.8846875,5.01933658 38.4116676,5.53098247 38.4116676,6.07954366 C38.4116676,6.28060893 38.4817358,6.46346265 38.534346,6.62785874 L41.6182943,13.9944275 C41.8638872,14.5796579 42.2491448,14.9633308 42.8273851,14.9633308 L42.9326055,14.9633308 C43.5108458,14.9633308 43.8965752,14.5612003 44.1416963,13.9944275 Z M50.0949054,9.27837643 C50.2876522,7.77961573 51.1987758,6.73762019 52.4956289,6.73762019 C53.8974665,6.73762019 54.7036056,7.8524619 54.8437422,9.27837643 L50.0949054,9.27837643 Z M56.070527,13.72027 C56.2281217,13.5558739 56.3508002,13.3181395 56.3508002,13.0439819 C56.3508002,12.5320899 55.9830006,12.1481709 55.5095089,12.1481709 C55.2641519,12.1481709 55.1242513,12.2215093 54.9664207,12.3492362 C54.3704864,12.8611282 53.6695676,13.1901665 52.7759021,13.1901665 C51.4089807,13.1901665 50.3402624,12.3128131 50.1123635,10.7409601 L55.9126964,10.7409601 C56.4560206,10.7409601 56.9115824,10.3021604 56.9115824,9.68050697 C56.9115824,7.45057746 55.4568987,4.92778666 52.513087,4.92778666 C49.8672425,4.92778666 47.9919132,7.19438536 47.9919132,9.95466451 L47.9919132,9.9913337 C47.9919132,12.9708897 50.0597533,15 52.7409859,15 C54.1779755,15 55.2292357,14.5063195 56.070527,13.72027 Z M60.1833231,9.27837643 C60.3763058,7.77961573 61.2871935,6.73762019 62.5842825,6.73762019 C63.9858841,6.73762019 64.7920233,7.8524619 64.9321598,9.27837643 L60.1833231,9.27837643 Z M66.1589447,13.72027 C66.3167752,13.5558739 66.4394537,13.3181395 66.4394537,13.0439819 C66.4394537,12.5320899 66.0714183,12.1481709 65.5981624,12.1481709 C65.3528055,12.1481709 65.2126689,12.2215093 65.0548383,12.3492362 C64.4591399,12.8611282 63.7582212,13.1901665 62.8643197,13.1901665 C61.4976342,13.1901665 60.4289159,12.3128131 60.2007812,10.7409601 L66.0011141,10.7409601 C66.5444382,10.7409601 67,10.3021604 67,9.68050697 C67,7.45057746 65.5455522,4.92778666 62.6015046,4.92778666 C59.9556601,4.92778666 58.0805667,7.19438536 58.0805667,9.95466451 L58.0805667,9.9913337 C58.0805667,12.9708897 60.1484069,15 62.8294035,15 C64.2663932,15 65.3178893,14.5063195 66.1589447,13.72027 L66.1589447,13.72027 Z" id="Fill-1" fill="#FFFFFF"></path>
            <g id="Group-4">
                <mask id="mask-3" fill="white">
                    <use xlink:href="#path-2"></use>
                </mask>
                <g id="Clip-3"></g>
                <path d="M8.68744595,14.5405413 C10.6544909,13.5649687 12,11.5915112 12,9.31636202 C12,6.07252388 9.26504479,3.44227578 5.89152197,3.44227578 C4.52034181,3.44227578 3.25480793,3.87689217 2.23537065,4.61058921 L2.23537065,1.05770107 C2.23537065,0.476155373 1.74046224,0 1.11695169,0 C0.493934821,0 0.0167986821,0.476630104 0.0167986821,1.05770107 L0.0167986821,1.80184219 L0,9.32158406 C-0.0041824725,11.2003327 0.951817666,12.865215 2.41753644,13.8939574 C2.4777647,13.9362085 2.55848043,13.9312238 2.6127846,13.8823265 C2.66758244,13.8334292 2.6779496,13.7558106 2.63746831,13.6950451 C0.724974359,10.8146136 1.16014819,5.53963813 5.89176881,5.53963813 C8.05899866,5.53963813 9.80709909,7.22944376 9.81623206,9.31351363 C9.82240299,10.8599505 9.11620201,12.0365717 8.19549958,12.7781018 C6.36026565,14.2561773 3.64974731,12.6382934 4.49738595,10.4697214 C4.5894562,10.2335427 4.71879884,9.9959397 4.88664808,9.76189723 L5.12361171,9.47705853 C5.19766284,9.39967734 5.25048599,9.29903433 5.2146946,9.19411874 C5.01401603,8.62800181 3.46832203,8.97526767 3.04005964,10.0315445 C3.34292878,9.79631524 3.65986763,9.66433998 3.96940137,9.71489885 C2.38890334,11.275815 3.44141679,13.9563846 5.46005069,14.7513219 C6.40494316,15.1232738 7.55964718,15.0976383 8.68744595,14.5405413" id="Fill-2" fill="#FFFFFF" mask="url(#mask-3)"></path>
            </g>
        </g>
    </g>
</svg>