<svg width="50" height="50" viewBox="0 0 50 50" fill="none" xmlns="http://www.w3.org/2000/svg">
<g clip-path="url(#clip0_636_2912)">
<path d="M49.9972 37.361C49.9972 37.6347 49.9889 38.2284 49.9724 38.6871C49.9322 39.8093 49.8432 41.2573 49.7087 41.9171C49.5065 42.9086 49.2013 43.8445 48.8033 44.6234C48.3325 45.5448 47.7319 46.3702 47.0182 47.0826C46.3061 47.7935 45.4815 48.3918 44.5614 48.8607C43.7784 49.2597 42.8367 49.5651 41.8396 49.7664C41.1863 49.8983 39.7491 49.9856 38.6341 50.0252C38.175 50.0416 37.5811 50.0499 37.3084 50.0499L12.6879 50.0459C12.4141 50.0459 11.8205 50.0375 11.3618 50.0211C10.2396 49.9808 8.79157 49.8919 8.13176 49.7574C7.14025 49.5551 6.20436 49.25 5.42545 48.852C4.50397 48.3811 3.67862 47.7805 2.96627 47.0669C2.25533 46.3548 1.65708 45.5302 1.18819 44.6101C0.789064 43.8271 0.483693 42.8854 0.282374 41.8883C0.150537 41.235 0.0632814 39.7978 0.023584 38.6827C0.00727541 38.2237 -0.000976562 37.6299 -0.000976562 37.3572L0.0029297 12.7366C0.0029297 12.4629 0.0112793 11.8692 0.0277344 11.4105C0.0680177 10.2883 0.156934 8.84026 0.291456 8.18049C0.493654 7.18899 0.79883 6.2531 1.19683 5.47415C1.66768 4.55271 2.26832 3.72732 2.98194 3.01497C3.69405 2.30408 4.51866 1.70579 5.43873 1.23684C6.22179 0.837817 7.16354 0.532446 8.16066 0.331128C8.81384 0.199243 10.2511 0.111987 11.3661 0.0723389C11.8252 0.0559814 12.4191 0.0477295 12.6918 0.0477295L37.3123 0.0516846C37.5861 0.0516846 38.1798 0.0600342 38.6384 0.0764893C39.7606 0.116772 41.2086 0.205688 41.8685 0.34021C42.86 0.542407 43.7959 0.847583 44.5748 1.24558C45.4963 1.71643 46.3216 2.31707 47.034 3.03069C47.7448 3.7428 48.3431 4.56736 48.812 5.48748C49.2112 6.27053 49.5165 7.21223 49.7178 8.20935C49.8497 8.86257 49.9369 10.2998 49.9766 11.4149C49.993 11.874 50.0012 12.4678 50.0012 12.7406L49.9972 37.361Z" fill="url(#paint0_linear_636_2912)"/>
<path d="M38.2472 11.8772C34.862 8.48918 30.36 6.62239 25.5634 6.62048C15.6805 6.62048 7.63696 14.6609 7.63301 24.5439C7.63174 27.7031 8.45737 30.7868 10.0264 33.505L7.48267 42.7935L16.9878 40.301C19.6068 41.7289 22.5553 42.4814 25.5563 42.4827H25.5637C35.4456 42.4827 43.4899 34.4413 43.4939 24.5582C43.4958 19.7688 41.6325 15.2653 38.2472 11.8772ZM25.5637 39.4554H25.5576C22.8834 39.4544 20.2605 38.7362 17.9724 37.3788L17.4281 37.0559L11.7877 38.5351L13.2932 33.0374L12.9388 32.4738C11.447 30.1017 10.6591 27.36 10.6603 24.5451C10.6635 16.3308 17.349 9.64783 25.5694 9.64783C29.5499 9.64934 33.2918 11.2011 36.1055 14.0171C38.9192 16.833 40.4679 20.5762 40.4665 24.5571C40.4632 32.772 33.7778 39.4554 25.5637 39.4554ZM33.7382 28.2974C33.2901 28.0733 31.0875 26.9897 30.6768 26.8403C30.2662 26.6908 29.9676 26.616 29.6688 27.0645C29.3702 27.5128 28.5116 28.5217 28.2502 28.8205C27.9889 29.1195 27.7275 29.1569 27.2795 28.9326C26.8315 28.7085 25.3879 28.2355 23.6767 26.7097C22.3449 25.5222 21.4457 24.0554 21.1843 23.607C20.923 23.1586 21.1566 22.9163 21.3808 22.6929C21.5823 22.4923 21.8288 22.1699 22.0529 21.9083C22.2768 21.6469 22.3515 21.4599 22.5009 21.1611C22.6502 20.8621 22.5755 20.6006 22.4635 20.3764C22.3515 20.1522 21.4555 17.9477 21.0822 17.051C20.7185 16.1777 20.3491 16.2958 20.0741 16.2821C19.8131 16.2691 19.5141 16.2664 19.2154 16.2664C18.9168 16.2664 18.4314 16.3784 18.0208 16.8268C17.6101 17.2752 16.4528 18.3588 16.4528 20.5632C16.4528 22.7677 18.0581 24.8974 18.2821 25.1963C18.5061 25.4952 21.4412 30.0191 25.9355 31.9591C27.0044 32.4205 27.8389 32.6961 28.4896 32.9025C29.5628 33.2433 30.5395 33.1952 31.3115 33.08C32.1723 32.9514 33.9621 31.9965 34.3355 30.9503C34.7089 29.9041 34.7089 29.0074 34.5969 28.8206C34.4849 28.6338 34.1862 28.5217 33.7382 28.2974Z" fill="white"/>
</g>
<defs>
<linearGradient id="paint0_linear_636_2912" x1="25.0001" y1="0.0477295" x2="25.0001" y2="50.0499" gradientUnits="userSpaceOnUse">
<stop stop-color="#61FD7D"/>
<stop offset="1" stop-color="#2BB826"/>
</linearGradient>
<clipPath id="clip0_636_2912">
<rect width="50" height="50" fill="white"/>
</clipPath>
</defs>
</svg>
