<svg width="50" height="50" viewBox="0 0 50 50" fill="none" xmlns="http://www.w3.org/2000/svg">
<path d="M32.5556 0C37.5556 0 40.0556 0 42.7778 0.833333C45.7222 1.88889 48.0556 4.22222 49.1111 7.16667C50 9.88889 50 12.4444 50 17.4444V32.5556C50 37.5556 50 40.0556 49.1667 42.7778C48.1111 45.7222 45.7778 48.0556 42.8333 49.1111C40.0556 50 37.5556 50 32.5556 50H17.4444C12.4444 50 9.94444 50 7.22222 49.1667C4.22222 48.0556 1.94444 45.7778 0.833333 42.7778C0 40.1111 0 37.6111 0 32.5556V17.4444C0 12.4444 0 9.94444 0.833333 7.22222C1.94444 4.27778 4.22222 1.94444 7.22222 0.888889C9.88889 -6.62274e-08 12.3889 0 17.4444 0H32.5556Z" fill="url(#paint0_linear_636_2909)"/>
<path d="M21.3887 39.2779C22.5554 39.4445 23.7221 39.5556 24.9443 39.5556C35.0554 39.5556 43.2776 32.7223 43.2776 24.3334C43.2776 15.9445 35.1109 9.16675 24.9998 9.16675C14.8887 9.16675 6.6665 16.0001 6.6665 24.389C6.6665 29.889 10.1665 34.6667 15.3887 37.3334V37.889C15.3887 39.5001 12.7221 41.6112 12.8887 41.6112C15.5554 41.6112 17.4443 39.9445 18.7221 39.5556C19.7776 39.2779 20.3887 39.2223 21.3887 39.2779Z" fill="white"/>
<defs>
<linearGradient id="paint0_linear_636_2909" x1="24.9889" y1="0.0222222" x2="24.9889" y2="49.9889" gradientUnits="userSpaceOnUse">
<stop stop-color="#67FF81"/>
<stop offset="1" stop-color="#01B41F"/>
</linearGradient>
</defs>
</svg>
