<svg width="48" height="48" viewBox="0 0 48 48" fill="none" xmlns="http://www.w3.org/2000/svg">
<g filter="url(#filter0_d_1203_17950)">
<circle cx="24" cy="20" r="20" fill="url(#paint0_linear_1203_17950)"/>
<path d="M15.872 31.28C15.8933 31.536 15.9493 31.7547 16.04 31.936C16.136 32.112 16.256 32.256 16.4 32.368C16.5493 32.48 16.72 32.5627 16.912 32.616C17.104 32.664 17.3093 32.688 17.528 32.688C17.784 32.688 18.0053 32.656 18.192 32.592C18.3787 32.528 18.5307 32.4427 18.648 32.336C18.7653 32.224 18.8507 32.096 18.904 31.952C18.9627 31.808 18.992 31.656 18.992 31.496C18.992 31.272 18.9413 31.0907 18.84 30.952C18.7387 30.8133 18.6053 30.7013 18.44 30.616C18.28 30.5253 18.0933 30.4533 17.88 30.4C17.672 30.3467 17.456 30.296 17.232 30.248C17.0133 30.1947 16.7973 30.1333 16.584 30.064C16.376 29.9947 16.1893 29.9013 16.024 29.784C15.864 29.6667 15.7333 29.5173 15.632 29.336C15.5307 29.1493 15.48 28.9147 15.48 28.632C15.48 28.4347 15.52 28.2427 15.6 28.056C15.6853 27.8693 15.808 27.704 15.968 27.56C16.1333 27.416 16.3387 27.3013 16.584 27.216C16.8293 27.1307 17.112 27.088 17.432 27.088C17.7573 27.088 18.04 27.1333 18.28 27.224C18.5253 27.3147 18.728 27.44 18.888 27.6C19.048 27.7547 19.168 27.936 19.248 28.144C19.328 28.352 19.368 28.5733 19.368 28.808H18.848C18.848 28.5893 18.808 28.4 18.728 28.24C18.6533 28.08 18.5493 27.9493 18.416 27.848C18.2827 27.7467 18.1307 27.672 17.96 27.624C17.7893 27.576 17.6133 27.552 17.432 27.552C17.1547 27.552 16.92 27.592 16.728 27.672C16.5413 27.7467 16.392 27.8453 16.28 27.968C16.168 28.0907 16.0907 28.2267 16.048 28.376C16.0053 28.5253 15.9973 28.6747 16.024 28.824C16.056 29.0107 16.1307 29.16 16.248 29.272C16.3653 29.384 16.5093 29.4773 16.68 29.552C16.8507 29.6213 17.0373 29.68 17.24 29.728C17.448 29.7707 17.6587 29.8187 17.872 29.872C18.0853 29.92 18.2907 29.9787 18.488 30.048C18.6907 30.1173 18.8693 30.2107 19.024 30.328C19.1787 30.4453 19.3013 30.5973 19.392 30.784C19.488 30.9653 19.536 31.1947 19.536 31.472C19.536 32.0053 19.352 32.4187 18.984 32.712C18.616 33.0053 18.0987 33.152 17.432 33.152C17.1333 33.152 16.856 33.112 16.6 33.032C16.344 32.9573 16.1227 32.8427 15.936 32.688C15.7493 32.528 15.6027 32.3333 15.496 32.104C15.3947 31.8693 15.344 31.5947 15.344 31.28H15.872ZM20.3466 33V27.24H20.8266V29.432C21.0186 29.2293 21.216 29.064 21.4186 28.936C21.6266 28.808 21.8746 28.744 22.1626 28.744C22.4186 28.744 22.656 28.7893 22.8746 28.88C23.0933 28.9653 23.2773 29.1173 23.4266 29.336C23.528 29.4853 23.5866 29.64 23.6026 29.8C23.624 29.9547 23.6346 30.1173 23.6346 30.288V33H23.1546V30.296C23.1546 29.9227 23.072 29.6427 22.9066 29.456C22.7413 29.2693 22.4666 29.176 22.0826 29.176C21.9333 29.176 21.7973 29.2 21.6746 29.248C21.552 29.2907 21.44 29.3493 21.3386 29.424C21.2426 29.4987 21.16 29.584 21.0906 29.68C21.0213 29.776 20.968 29.8773 20.9306 29.984C20.8826 30.1173 20.8533 30.2453 20.8426 30.368C20.832 30.4907 20.8266 30.624 20.8266 30.768V33H20.3466ZM27.3839 30.824C27.1813 30.9093 26.9759 30.9653 26.7679 30.992C26.5599 31.0187 26.3519 31.04 26.1439 31.056C25.7759 31.0827 25.4879 31.1653 25.2799 31.304C25.0773 31.4427 24.9759 31.6533 24.9759 31.936C24.9759 32.064 24.9999 32.176 25.0479 32.272C25.1013 32.3627 25.1679 32.44 25.2479 32.504C25.3333 32.5627 25.4293 32.608 25.5359 32.64C25.6479 32.6667 25.7599 32.68 25.8719 32.68C26.0639 32.68 26.2506 32.656 26.4319 32.608C26.6133 32.56 26.7733 32.488 26.9119 32.392C27.0559 32.2907 27.1706 32.1653 27.2559 32.016C27.3413 31.8613 27.3839 31.68 27.3839 31.472V30.824ZM26.5759 30.584C26.6666 30.5733 26.7733 30.5573 26.8959 30.536C27.0239 30.5147 27.1279 30.4853 27.2079 30.448C27.2879 30.4107 27.3359 30.3493 27.3519 30.264C27.3733 30.1733 27.3839 30.0907 27.3839 30.016C27.3839 29.7707 27.3039 29.5707 27.1439 29.416C26.9893 29.256 26.7253 29.176 26.3519 29.176C26.1866 29.176 26.0346 29.192 25.8959 29.224C25.7573 29.2507 25.6346 29.3013 25.5279 29.376C25.4266 29.4453 25.3413 29.5413 25.2719 29.664C25.2079 29.7813 25.1653 29.9307 25.1439 30.112H24.6559C24.6719 29.8667 24.7279 29.6587 24.8239 29.488C24.9199 29.312 25.0426 29.1707 25.1919 29.064C25.3466 28.952 25.5226 28.872 25.7199 28.824C25.9226 28.7707 26.1359 28.744 26.3599 28.744C26.5679 28.744 26.7626 28.768 26.9439 28.816C27.1306 28.8587 27.2906 28.9307 27.4239 29.032C27.5626 29.128 27.6693 29.2587 27.7439 29.424C27.8239 29.5893 27.8639 29.792 27.8639 30.032V32.288C27.8639 32.4747 27.8959 32.5947 27.9599 32.648C28.0293 32.696 28.1653 32.6827 28.3679 32.608V32.984C28.3306 32.9947 28.2746 33.0107 28.1999 33.032C28.1306 33.0533 28.0613 33.064 27.9919 33.064C27.9173 33.064 27.8453 33.056 27.7759 33.04C27.6959 33.0293 27.6319 33.0053 27.5839 32.968C27.5359 32.9253 27.4959 32.8773 27.4639 32.824C27.4373 32.7653 27.4186 32.704 27.4079 32.64C27.3973 32.5707 27.3919 32.4987 27.3919 32.424C27.1893 32.648 26.9573 32.8187 26.6959 32.936C26.4346 33.0533 26.1519 33.112 25.8479 33.112C25.6666 33.112 25.4906 33.088 25.3199 33.04C25.1546 32.992 25.0079 32.9173 24.8799 32.816C24.7519 32.7147 24.6506 32.592 24.5759 32.448C24.5013 32.2987 24.4639 32.1227 24.4639 31.92C24.4639 31.216 24.9466 30.8 25.9119 30.672L26.5759 30.584ZM29.5013 33H29.0213V28.856H29.5013V29.632H29.5173C29.6506 29.3013 29.8213 29.072 30.0293 28.944C30.2426 28.8107 30.5226 28.744 30.8693 28.744V29.264C30.5973 29.2587 30.3733 29.3013 30.1973 29.392C30.0213 29.4827 29.8799 29.6053 29.7733 29.76C29.6719 29.9147 29.5999 30.0987 29.5573 30.312C29.5199 30.52 29.5013 30.7387 29.5013 30.968V33ZM34.4007 30.64C34.4007 30.4373 34.3714 30.248 34.3127 30.072C34.2594 29.8907 34.1767 29.736 34.0647 29.608C33.958 29.4747 33.822 29.3707 33.6567 29.296C33.4914 29.216 33.302 29.176 33.0887 29.176C32.8754 29.176 32.686 29.216 32.5207 29.296C32.3607 29.376 32.222 29.4827 32.1047 29.616C31.9927 29.7493 31.902 29.904 31.8327 30.08C31.7634 30.256 31.718 30.4427 31.6967 30.64H34.4007ZM31.6967 31.04C31.6967 31.264 31.726 31.4773 31.7847 31.68C31.8434 31.8773 31.9287 32.0507 32.0407 32.2C32.158 32.344 32.3047 32.4613 32.4807 32.552C32.6567 32.6373 32.8594 32.68 33.0887 32.68C33.4034 32.68 33.6727 32.5973 33.8967 32.432C34.1207 32.2667 34.27 32.032 34.3447 31.728H34.8807C34.822 31.9253 34.7447 32.1093 34.6487 32.28C34.5527 32.4453 34.4327 32.592 34.2887 32.72C34.1447 32.8427 33.974 32.9387 33.7767 33.008C33.5794 33.0773 33.35 33.112 33.0887 33.112C32.758 33.112 32.4727 33.056 32.2327 32.944C31.9927 32.832 31.7954 32.68 31.6407 32.488C31.486 32.2907 31.3714 32.0613 31.2967 31.8C31.222 31.5333 31.1847 31.248 31.1847 30.944C31.1847 30.64 31.2274 30.3547 31.3127 30.088C31.4034 29.8213 31.5287 29.5893 31.6887 29.392C31.854 29.1893 32.054 29.032 32.2887 28.92C32.5234 28.8027 32.79 28.744 33.0887 28.744C33.6594 28.744 34.1074 28.9413 34.4327 29.336C34.758 29.7253 34.918 30.2933 34.9127 31.04H31.6967Z" fill="white"/>
<path d="M29.5426 17.4683C29.0187 17.4719 28.5024 17.5945 28.0329 17.8269C27.5633 18.0593 27.1527 18.3954 26.832 18.8098L21.4593 16.4242C21.7686 15.9029 21.9333 15.3085 21.9364 14.7024C21.9331 14.3932 21.8866 14.086 21.7981 13.7897L26.8528 10.6296C27.3658 11.2649 28.0871 11.6981 28.889 11.8524C29.6908 12.0068 30.5214 11.8724 31.2336 11.473C31.9459 11.0736 32.4937 10.435 32.7802 9.67029C33.0667 8.90563 33.0732 8.06425 32.7987 7.2952C32.5243 6.52616 31.9864 5.87908 31.2806 5.4686C30.5747 5.05812 29.7463 4.91073 28.9421 5.05255C28.138 5.19436 27.41 5.61622 26.8871 6.24339C26.3642 6.87057 26.0801 7.66258 26.0852 8.47913C26.0885 8.78834 26.1351 9.09557 26.2235 9.39187L21.1689 12.5519C20.7487 12.0209 20.1819 11.6249 19.5388 11.4131C18.8956 11.2013 18.2044 11.183 17.551 11.3605C16.8975 11.5381 16.3106 11.9036 15.863 12.4117C15.4154 12.9198 15.1269 13.5481 15.0332 14.2188C14.9396 14.8894 15.0449 15.5727 15.3361 16.184C15.6274 16.7953 16.0917 17.3077 16.6715 17.6574C17.2513 18.0072 17.9211 18.179 18.5977 18.1515C19.2742 18.124 19.9278 17.8985 20.4774 17.5029L26.1959 20.0475C26.1239 20.3347 26.0867 20.6296 26.0852 20.9257C26.0852 21.6095 26.288 22.2779 26.6679 22.8465C27.0478 23.4151 27.5878 23.8582 28.2195 24.1199C28.8513 24.3816 29.5465 24.45 30.2171 24.3166C30.8878 24.1832 31.5038 23.8539 31.9874 23.3704C32.4709 22.8869 32.8002 22.2708 32.9336 21.6002C33.067 20.9295 32.9985 20.2344 32.7368 19.6026C32.4751 18.9708 32.032 18.4309 31.4634 18.051C30.8949 17.6711 30.2264 17.4683 29.5426 17.4683ZM29.5426 6.4047C29.9529 6.4047 30.354 6.52636 30.6951 6.7543C31.0362 6.98224 31.3021 7.30623 31.4591 7.68528C31.6161 8.06433 31.6572 8.48143 31.5772 8.88383C31.4971 9.28622 31.2996 9.65585 31.0095 9.94597C30.7193 10.2361 30.3497 10.4336 29.9473 10.5137C29.5449 10.5937 29.1278 10.5527 28.7488 10.3956C28.3697 10.2386 28.0457 9.97275 27.8178 9.63161C27.5899 9.29048 27.4682 8.88941 27.4682 8.47913C27.4682 7.92895 27.6868 7.40132 28.0758 7.01229C28.4648 6.62326 28.9925 6.4047 29.5426 6.4047ZM16.4046 14.7024C16.4046 14.2921 16.5263 13.8911 16.7542 13.5499C16.9821 13.2088 17.3061 12.9429 17.6852 12.7859C18.0642 12.6289 18.4813 12.5878 18.8837 12.6678C19.2861 12.7479 19.6557 12.9454 19.9459 13.2356C20.236 13.5257 20.4335 13.8953 20.5136 14.2977C20.5936 14.7001 20.5525 15.1172 20.3955 15.4963C20.2385 15.8753 19.9726 16.1993 19.6315 16.4272C19.2904 16.6552 18.8893 16.7768 18.479 16.7768C17.9288 16.7768 17.4012 16.5583 17.0122 16.1692C16.6231 15.7802 16.4046 15.2526 16.4046 14.7024ZM29.5426 23.0001C29.1323 23.0001 28.7313 22.8784 28.3901 22.6505C28.049 22.4226 27.7831 22.0986 27.6261 21.7195C27.4691 21.3405 27.428 20.9234 27.5081 20.521C27.5881 20.1186 27.7857 19.749 28.0758 19.4588C28.3659 19.1687 28.7355 18.9712 29.1379 18.8911C29.5403 18.8111 29.9574 18.8522 30.3365 19.0092C30.7155 19.1662 31.0395 19.4321 31.2674 19.7732C31.4954 20.1143 31.617 20.5154 31.617 20.9257C31.617 21.4758 31.3985 22.0035 31.0095 22.3925C30.6204 22.7815 30.0928 23.0001 29.5426 23.0001Z" fill="white"/>
</g>
<defs>
<filter id="filter0_d_1203_17950" x="0" y="0" width="48" height="48" filterUnits="userSpaceOnUse" color-interpolation-filters="sRGB">
<feFlood flood-opacity="0" result="BackgroundImageFix"/>
<feColorMatrix in="SourceAlpha" type="matrix" values="0 0 0 0 0 0 0 0 0 0 0 0 0 0 0 0 0 0 127 0" result="hardAlpha"/>
<feOffset dy="4"/>
<feGaussianBlur stdDeviation="2"/>
<feComposite in2="hardAlpha" operator="out"/>
<feColorMatrix type="matrix" values="0 0 0 0 0 0 0 0 0 0 0 0 0 0 0 0 0 0 0.25 0"/>
<feBlend mode="normal" in2="BackgroundImageFix" result="effect1_dropShadow_1203_17950"/>
<feBlend mode="normal" in="SourceGraphic" in2="effect1_dropShadow_1203_17950" result="shape"/>
</filter>
<linearGradient id="paint0_linear_1203_17950" x1="-13.971" y1="55.814" x2="46.215" y2="53.3135" gradientUnits="userSpaceOnUse">
<stop stop-color="#004CB6"/>
<stop offset="1" stop-color="#009AF9"/>
</linearGradient>
</defs>
</svg>
