<svg width="48" height="48" viewBox="0 0 48 48" fill="none" xmlns="http://www.w3.org/2000/svg">
<g filter="url(#filter0_d_666_24470)">
<circle cx="24" cy="20" r="20" fill="#C4C4C4"/>
<path d="M17.3325 16.0897C17.345 16.3093 17.365 16.5281 17.395 16.7452C17.895 20.2791 21.2167 23.2546 25.0384 23.1592C28.3784 23.0753 31.5217 20.562 32.2126 17.2345C32.8951 13.9465 31.0442 10.3115 27.855 8.93477C26.9092 8.52604 25.8784 8.31961 24.8417 8.31632C24.8417 8.31632 24.2192 8.21352 24.0575 7.77106C23.895 7.32531 24.205 6.76361 24.7017 6.6789C24.7825 6.66492 24.8125 6.66656 24.9034 6.66656C28.3659 6.69946 31.6784 8.78509 33.1542 11.8552C34.8092 15.2994 33.9951 19.7561 31.0651 22.4166C28.745 24.5228 25.285 25.3419 22.2125 24.4306C18.5867 23.3566 15.8283 19.9608 15.6592 16.0725L15.4067 16.3217C15.4067 16.3217 15.1417 16.5667 14.8075 16.5635C14.1808 16.5577 13.7167 15.6975 14.2017 15.1793C14.2092 15.1711 14.2167 15.1637 14.225 15.1555L15.8958 13.5066C15.9683 13.4375 15.9842 13.4292 16.0225 13.4038C16.1225 13.338 16.2375 13.2936 16.3558 13.2746C16.41 13.2664 16.465 13.2639 16.52 13.2656C16.7008 13.2755 16.8467 13.3158 17.0025 13.4399C17.0233 13.4572 17.0442 13.4745 17.0642 13.4934C17.0683 13.4975 17.0733 13.5016 17.0775 13.5066L18.7492 15.1555C19.1967 15.6152 18.8867 16.5289 18.2 16.5626C17.9675 16.5742 17.7342 16.4796 17.5675 16.3217L17.3325 16.0897ZM24.8967 9.9669C25.0575 9.98253 25.0834 9.99651 25.1517 10.0236C25.4284 10.1314 25.6359 10.3929 25.6734 10.6873C25.6792 10.7326 25.6784 10.7441 25.68 10.7901V15.3973L28.9809 18.6548C28.9809 18.6548 29.4475 19.4172 28.9425 19.8564C28.6542 20.1072 28.185 20.1253 27.8775 19.8893C27.8409 19.8613 27.8325 19.8523 27.7984 19.821L24.2534 16.3217C24.1017 16.1638 24.015 15.9573 24.0084 15.7386V10.7901C24.0134 10.6314 24.0267 10.6051 24.0492 10.5352C24.1467 10.2399 24.425 10.0113 24.7392 9.97183C24.84 9.9595 24.8642 9.96608 24.8967 9.9669Z" fill="white"/>
<path d="M13.576 33V27.24H14.056V29.432C14.248 29.2293 14.4453 29.064 14.648 28.936C14.856 28.808 15.104 28.744 15.392 28.744C15.648 28.744 15.8853 28.7893 16.104 28.88C16.3227 28.9653 16.5067 29.1173 16.656 29.336C16.7573 29.4853 16.816 29.64 16.832 29.8C16.8533 29.9547 16.864 30.1173 16.864 30.288V33H16.384V30.296C16.384 29.9227 16.3013 29.6427 16.136 29.456C15.9707 29.2693 15.696 29.176 15.312 29.176C15.1627 29.176 15.0267 29.2 14.904 29.248C14.7813 29.2907 14.6693 29.3493 14.568 29.424C14.472 29.4987 14.3893 29.584 14.32 29.68C14.2507 29.776 14.1973 29.8773 14.16 29.984C14.112 30.1173 14.0827 30.2453 14.072 30.368C14.0613 30.4907 14.056 30.624 14.056 30.768V33H13.576ZM17.8327 33V28.856H18.3127V33H17.8327ZM17.8087 27.952V27.24H18.3367V27.952H17.8087ZM19.6941 31.704C19.7688 32.0613 19.9021 32.3147 20.0941 32.464C20.2915 32.608 20.5715 32.68 20.9341 32.68C21.1101 32.68 21.2621 32.6587 21.3901 32.616C21.5181 32.5733 21.6221 32.5173 21.7021 32.448C21.7875 32.3733 21.8515 32.2907 21.8941 32.2C21.9368 32.1093 21.9581 32.0133 21.9581 31.912C21.9581 31.7093 21.8915 31.56 21.7581 31.464C21.6301 31.3627 21.4675 31.2853 21.2701 31.232C21.0728 31.1733 20.8595 31.1253 20.6301 31.088C20.4008 31.0453 20.1875 30.984 19.9901 30.904C19.7928 30.824 19.6275 30.7093 19.4941 30.56C19.3661 30.4107 19.3021 30.2 19.3021 29.928C19.3021 29.5813 19.4275 29.2987 19.6781 29.08C19.9341 28.856 20.2941 28.744 20.7581 28.744C21.2061 28.744 21.5688 28.8453 21.8461 29.048C22.1288 29.2453 22.2995 29.5787 22.3581 30.048H21.8701C21.8275 29.728 21.7048 29.504 21.5021 29.376C21.3048 29.2427 21.0541 29.176 20.7501 29.176C20.4461 29.176 20.2141 29.2427 20.0541 29.376C19.8941 29.504 19.8141 29.6747 19.8141 29.888C19.8141 30.0747 19.8781 30.2187 20.0061 30.32C20.1395 30.416 20.3048 30.496 20.5021 30.56C20.6995 30.6187 20.9128 30.672 21.1421 30.72C21.3715 30.768 21.5848 30.8373 21.7821 30.928C21.9795 31.0133 22.1421 31.1307 22.2701 31.28C22.4035 31.4293 22.4701 31.6373 22.4701 31.904C22.4701 32.1013 22.4275 32.2773 22.3421 32.432C22.2568 32.5813 22.1395 32.7067 21.9901 32.808C21.8408 32.9093 21.6621 32.984 21.4541 33.032C21.2515 33.0853 21.0275 33.112 20.7821 33.112C20.5368 33.112 20.3181 33.0747 20.1261 33C19.9395 32.9307 19.7795 32.832 19.6461 32.704C19.5128 32.576 19.4088 32.4267 19.3341 32.256C19.2595 32.0853 19.2168 31.9013 19.2061 31.704H19.6941ZM24.7501 33.016C24.6915 33.0267 24.6141 33.0453 24.5181 33.072C24.4221 33.0987 24.3155 33.112 24.1981 33.112C23.9581 33.112 23.7741 33.0533 23.6461 32.936C23.5235 32.8133 23.4621 32.5973 23.4621 32.288V29.256H22.8781V28.856H23.4621V27.704H23.9421V28.856H24.7181V29.256H23.9421V32.096C23.9421 32.1973 23.9448 32.2853 23.9501 32.36C23.9555 32.4347 23.9715 32.496 23.9981 32.544C24.0248 32.592 24.0648 32.6267 24.1181 32.648C24.1768 32.6693 24.2568 32.68 24.3581 32.68C24.4221 32.68 24.4861 32.6747 24.5501 32.664C24.6195 32.6533 24.6861 32.64 24.7501 32.624V33.016ZM27.0487 33.112C26.782 33.1067 26.5314 33.0587 26.2967 32.968C26.0674 32.8773 25.8647 32.7413 25.6887 32.56C25.518 32.3787 25.382 32.152 25.2807 31.88C25.1794 31.608 25.1287 31.2907 25.1287 30.928C25.1287 30.624 25.1687 30.3413 25.2487 30.08C25.3287 29.8133 25.4487 29.5813 25.6087 29.384C25.7687 29.1867 25.9687 29.032 26.2087 28.92C26.4487 28.8027 26.7287 28.744 27.0487 28.744C27.374 28.744 27.6567 28.8027 27.8967 28.92C28.1367 29.032 28.3367 29.1867 28.4967 29.384C28.6567 29.576 28.774 29.8053 28.8487 30.072C28.9287 30.3387 28.9687 30.624 28.9687 30.928C28.9687 31.2587 28.9234 31.5573 28.8327 31.824C28.742 32.0907 28.6114 32.32 28.4407 32.512C28.2754 32.704 28.0727 32.8533 27.8327 32.96C27.598 33.0613 27.3367 33.112 27.0487 33.112ZM28.4567 30.928C28.4567 30.6827 28.43 30.4533 28.3767 30.24C28.3234 30.0267 28.2407 29.8427 28.1287 29.688C28.0167 29.528 27.8727 29.4027 27.6967 29.312C27.5207 29.2213 27.3047 29.176 27.0487 29.176C26.798 29.176 26.582 29.2267 26.4007 29.328C26.2247 29.424 26.0807 29.5547 25.9687 29.72C25.8567 29.88 25.774 30.0667 25.7207 30.28C25.6674 30.488 25.6407 30.704 25.6407 30.928C25.6407 31.184 25.67 31.4213 25.7287 31.64C25.7927 31.8533 25.8834 32.0373 26.0007 32.192C26.118 32.3467 26.2647 32.4667 26.4407 32.552C26.6167 32.6373 26.8194 32.68 27.0487 32.68C27.2994 32.68 27.5127 32.632 27.6887 32.536C27.87 32.4347 28.0167 32.3013 28.1287 32.136C28.2407 31.9707 28.3234 31.784 28.3767 31.576C28.43 31.368 28.4567 31.152 28.4567 30.928ZM30.23 33H29.75V28.856H30.23V29.632H30.246C30.3793 29.3013 30.55 29.072 30.758 28.944C30.9713 28.8107 31.2513 28.744 31.598 28.744V29.264C31.326 29.2587 31.102 29.3013 30.926 29.392C30.75 29.4827 30.6087 29.6053 30.502 29.76C30.4007 29.9147 30.3287 30.0987 30.286 30.312C30.2487 30.52 30.23 30.7387 30.23 30.968V33ZM32.3787 34.128C32.4427 34.1387 32.5067 34.1493 32.5707 34.16C32.64 34.1707 32.7094 34.176 32.7787 34.176C32.912 34.176 33.0214 34.1333 33.1067 34.048C33.192 33.9627 33.2614 33.8587 33.3147 33.736C33.3734 33.6187 33.4214 33.4933 33.4587 33.36C33.496 33.232 33.5387 33.1227 33.5867 33.032L31.9787 28.856H32.5147L33.8427 32.416L35.1707 28.856H35.6907L34.1467 32.944C34.0507 33.2053 33.9574 33.44 33.8667 33.648C33.7814 33.856 33.688 34.032 33.5867 34.176C33.4907 34.3253 33.3814 34.4373 33.2587 34.512C33.1414 34.592 33 34.632 32.8347 34.632C32.7494 34.632 32.6667 34.6267 32.5867 34.616C32.512 34.6053 32.4427 34.592 32.3787 34.576V34.128Z" fill="white"/>
</g>
<defs>
<filter id="filter0_d_666_24470" x="0" y="0" width="48" height="48" filterUnits="userSpaceOnUse" color-interpolation-filters="sRGB">
<feFlood flood-opacity="0" result="BackgroundImageFix"/>
<feColorMatrix in="SourceAlpha" type="matrix" values="0 0 0 0 0 0 0 0 0 0 0 0 0 0 0 0 0 0 127 0" result="hardAlpha"/>
<feOffset dy="4"/>
<feGaussianBlur stdDeviation="2"/>
<feComposite in2="hardAlpha" operator="out"/>
<feColorMatrix type="matrix" values="0 0 0 0 0 0 0 0 0 0 0 0 0 0 0 0 0 0 0.25 0"/>
<feBlend mode="normal" in2="BackgroundImageFix" result="effect1_dropShadow_666_24470"/>
<feBlend mode="normal" in="SourceGraphic" in2="effect1_dropShadow_666_24470" result="shape"/>
</filter>
</defs>
</svg>
