<svg width="30" height="30" viewBox="0 0 30 30" fill="none" xmlns="http://www.w3.org/2000/svg">
<mask id="mask0_666_13643" style="mask-type:alpha" maskUnits="userSpaceOnUse" x="0" y="0" width="30" height="30">
<path d="M15 29.6053C23.2843 29.6053 30 23.0663 30 15C30 6.93374 23.2843 0.394745 15 0.394745C6.71573 0.394745 0 6.93374 0 15C0 23.0663 6.71573 29.6053 15 29.6053Z" fill="white"/>
</mask>
<g mask="url(#mask0_666_13643)">
<path d="M15 29.6053C23.2843 29.6053 30 23.0663 30 15C30 6.93374 23.2843 0.394745 15 0.394745C6.71573 0.394745 0 6.93374 0 15C0 23.0663 6.71573 29.6053 15 29.6053Z" fill="url(#paint0_linear_666_13643)"/>
<path fill-rule="evenodd" clip-rule="evenodd" d="M14.6911 6.3158C17.4986 6.3158 19.8381 7.80939 19.8381 10.6472C19.8381 12.2902 19.3702 13.6344 19.3702 13.6344C19.3702 13.6344 19.8381 13.7838 19.8381 14.3812C19.8381 14.9787 19.6822 15.5761 19.3702 16.1735C19.0583 16.771 18.7463 16.771 18.4344 17.0697C18.2456 17.2505 18.2784 18.4596 18.2784 18.862C18.2784 19.4595 17.4986 20.0569 17.4986 20.505C17.4986 20.9531 17.3426 21.9986 17.8105 22.4467C18.2784 22.8947 19.2143 23.4922 21.2419 23.9403C23.1247 24.3563 24.1687 25.3084 24.3082 25.4423L24.3243 25.4581L24.2101 28.3243C24.7974 29.2744 25.1352 30.3879 25.1352 31.5789V33.158C25.1352 36.6461 22.2261 39.4737 18.6525 39.4737H10.5367C6.95646 39.4737 4.05408 36.6492 4.05408 33.158V31.5789C4.05408 30.4284 4.37052 29.3499 4.92289 28.4209L4.86489 28.4211V26.0313L5.30144 25.093L5.37309 25.0585C5.60569 24.947 6.37312 24.5829 7.20887 24.2273L7.54571 24.0862C8.16588 23.8305 8.78933 23.5982 9.23209 23.4922C10.4799 23.1935 10.9478 22.596 11.2597 22.2973C11.5717 21.9986 11.5717 21.2518 11.5717 20.505C11.5717 19.7582 10.7918 19.3101 10.7918 18.7127C10.7918 18.1152 10.9478 17.0697 10.4799 16.9203C10.0119 16.771 9.85597 16.4723 9.7 16.0242C9.54403 15.5761 9.23209 15.128 9.23209 14.3812C9.23209 13.6344 9.7 13.6344 9.7 13.6344C9.7 13.6344 9.38806 11.9915 9.38806 10.3485C9.38806 8.70555 10.7918 7.95875 10.7918 7.95875C10.7918 7.95875 12.5075 6.3158 14.6911 6.3158Z" fill="white"/>
</g>
<defs>
<linearGradient id="paint0_linear_666_13643" x1="15" y1="0.394745" x2="15" y2="29.6053" gradientUnits="userSpaceOnUse">
<stop stop-color="#A5ABB8"/>
<stop offset="1" stop-color="#858A94"/>
</linearGradient>
</defs>
</svg>
