<svg width="18" height="18" viewBox="0 0 18 18" fill="none" xmlns="http://www.w3.org/2000/svg">
<path d="M16.2225 7.21688C16.1899 7.11691 16.13 7.02808 16.0494 6.96047C15.9689 6.89286 15.871 6.84917 15.7669 6.83438L11.4413 6.1875L9.50629 2.25C9.46023 2.1549 9.38831 2.07469 9.29878 2.01857C9.20924 1.96245 9.10571 1.93269 9.00004 1.93269C8.89437 1.93269 8.79084 1.96245 8.7013 2.01857C8.61177 2.07469 8.53985 2.1549 8.49379 2.25L6.55879 6.1875L2.25004 6.83438C2.14656 6.84941 2.04932 6.893 1.96923 6.96024C1.88915 7.02748 1.82939 7.11572 1.79667 7.21504C1.76396 7.31436 1.75957 7.42083 1.78401 7.52251C1.80846 7.62418 1.86076 7.71703 1.93504 7.79063L5.06254 10.845L4.31442 15.1875C4.30323 15.2885 4.31962 15.3906 4.36183 15.4831C4.40404 15.5755 4.4705 15.6548 4.55415 15.7125C4.6378 15.7702 4.73552 15.8041 4.83692 15.8107C4.93832 15.8173 5.03961 15.7963 5.13004 15.75L9.00004 13.7138L12.87 15.75C12.9605 15.7963 13.0618 15.8173 13.1632 15.8107C13.2646 15.8041 13.3623 15.7702 13.4459 15.7125C13.5296 15.6548 13.596 15.5755 13.6383 15.4831C13.6805 15.3906 13.6969 15.2885 13.6857 15.1875L12.9375 10.845L16.0707 7.79063C16.147 7.71866 16.2016 7.6268 16.2284 7.52541C16.2553 7.42403 16.2532 7.31716 16.2225 7.21688ZM11.9532 10.2488C11.8881 10.312 11.8392 10.39 11.8108 10.4762C11.7824 10.5624 11.7753 10.6542 11.79 10.7438L12.375 14.2256L9.25317 12.5831C9.17178 12.5398 9.08099 12.5171 8.98879 12.5171C8.89659 12.5171 8.8058 12.5398 8.72442 12.5831L5.62504 14.2256L6.18754 10.7438C6.2023 10.6542 6.19517 10.5624 6.16677 10.4762C6.13836 10.39 6.08952 10.312 6.02442 10.2488L3.52129 7.77938L7.01442 7.27313C7.10399 7.26017 7.18911 7.22579 7.26255 7.17291C7.33599 7.12003 7.3956 7.05021 7.43629 6.96938L9.00004 3.8025L10.5638 6.96938C10.6045 7.05021 10.6641 7.12003 10.7375 7.17291C10.811 7.22579 10.8961 7.26017 10.9857 7.27313L14.4788 7.77938L11.9532 10.2488Z" fill="white"/>
</svg>
