<svg width="18" height="18" viewBox="0 0 18 18" fill="none" xmlns="http://www.w3.org/2000/svg">
<path d="M8.99995 16.0771C8.90189 16.0771 8.8032 16.0535 8.71257 16.007C7.69944 15.4785 6.57367 15.2025 5.43099 15.2025C4.28831 15.2025 3.16254 15.4785 2.1494 16.007C2.05472 16.056 1.94902 16.0799 1.84245 16.0764C1.73588 16.0728 1.63201 16.0419 1.54083 15.9866C1.44964 15.9313 1.3742 15.8535 1.32176 15.7607C1.26931 15.6678 1.24162 15.563 1.24133 15.4564V3.66331C1.24133 3.56319 1.26554 3.46456 1.31191 3.37583C1.35827 3.28709 1.42542 3.21089 1.50761 3.15372C3.85444 1.52069 7.00754 1.52069 9.35499 3.15372C9.52133 3.26979 9.62064 3.46034 9.62064 3.66331V15.4564C9.62064 15.621 9.55525 15.7789 9.43885 15.8953C9.32245 16.0117 9.16457 16.0771 8.99995 16.0771ZM5.43099 13.9612C6.4303 13.9612 7.43023 14.1406 8.37926 14.4993V3.99848C7.49133 3.45657 6.47122 3.16987 5.43099 3.16987C4.39075 3.16987 3.37064 3.45657 2.48271 3.99848V14.4993C3.42491 14.1434 4.4238 13.961 5.43099 13.9612Z" fill="white"/>
<path d="M16.1379 16.0771C16.0398 16.0771 15.9411 16.0535 15.8505 16.007C14.8374 15.4785 13.7116 15.2025 12.5689 15.2025C11.4263 15.2025 10.3005 15.4785 9.28734 16.007C9.19266 16.056 9.08696 16.0799 8.98039 16.0764C8.87381 16.0728 8.76995 16.0419 8.67876 15.9866C8.58758 15.9313 8.51214 15.8535 8.4597 15.7607C8.40725 15.6678 8.37955 15.563 8.37927 15.4564V3.66331C8.37927 3.56319 8.40348 3.46456 8.44985 3.37583C8.49621 3.28709 8.56336 3.21089 8.64555 3.15372C10.9924 1.52069 14.1455 1.52069 16.4929 3.15372C16.6593 3.26979 16.7586 3.46034 16.7586 3.66331V15.4564C16.7586 15.621 16.6932 15.7789 16.5768 15.8953C16.4604 16.0117 16.3025 16.0771 16.1379 16.0771ZM12.5689 13.9612C13.5682 13.9612 14.5682 14.1406 15.5172 14.4993V3.99848C14.6293 3.45657 13.6092 3.16987 12.5689 3.16987C11.5287 3.16987 10.5086 3.45657 9.62065 3.99848V14.4993C10.5629 14.1434 11.5617 13.961 12.5689 13.9612Z" fill="white"/>
</svg>
