<svg width="17" height="17" viewBox="0 0 17 17" fill="none" xmlns="http://www.w3.org/2000/svg">
<path d="M8.43756 0C6.20057 0.00253095 4.05593 0.892292 2.47414 2.47408C0.892354 4.05587 0.00259278 6.20051 6.1829e-05 8.4375C-0.00522914 9.81708 0.329134 11.1768 0.973645 12.3965C1.61816 13.6163 2.553 14.6587 3.69568 15.4317C4.83836 16.2048 6.15375 16.6846 7.52577 16.829C8.89779 16.9734 10.2842 16.7778 11.5628 16.2596C12.212 16.7173 13.0019 16.9311 13.7933 16.8632C14.5847 16.7952 15.3267 16.45 15.8884 15.8883C16.45 15.3267 16.7953 14.5847 16.8632 13.7933C16.9312 13.0019 16.7174 12.2119 16.2597 11.5627C16.664 10.5703 16.873 9.50915 16.8751 8.4375C16.8725 6.20051 15.9828 4.05587 14.401 2.47408C12.8192 0.892292 10.6745 0.00253095 8.43756 0ZM8.43756 1.125C10.3763 1.12723 12.2349 1.89837 13.6058 3.26925C14.9767 4.64012 15.7478 6.49879 15.7501 8.4375C15.7512 9.2074 15.6291 9.97251 15.3884 10.7038C14.9133 10.3816 14.3637 10.1866 13.7918 10.1374C13.22 10.0882 12.645 10.1863 12.1219 10.4226C11.6904 10.2125 11.2416 10.0401 10.7804 9.90731C11.446 9.41446 11.9393 8.72425 12.19 7.93488C12.4408 7.14551 12.4362 6.29716 12.177 5.51053C11.9178 4.7239 11.4171 4.03903 10.7462 3.55336C10.0753 3.06768 9.26838 2.80593 8.44014 2.80533C7.6119 2.80474 6.80456 3.06533 6.13297 3.55004C5.46137 4.03475 4.95973 4.71889 4.69938 5.50515C4.43904 6.29141 4.43326 7.13974 4.68287 7.92948C4.93248 8.71921 5.42476 9.41012 6.08969 9.90394C4.60599 10.3279 3.26978 11.1569 2.23094 12.2979C1.50508 11.1414 1.12166 9.80294 1.12506 8.4375C1.12729 6.49879 1.89843 4.64012 3.26931 3.26925C4.64019 1.89837 6.49885 1.12723 8.43756 1.125ZM5.62506 6.75C5.62506 6.19374 5.79001 5.64997 6.09905 5.18746C6.40809 4.72495 6.84735 4.36446 7.36126 4.15159C7.87518 3.93872 8.44068 3.88302 8.98625 3.99154C9.53182 4.10006 10.033 4.36793 10.4263 4.76126C10.8196 5.1546 11.0875 5.65574 11.196 6.20131C11.3045 6.74688 11.2488 7.31238 11.036 7.8263C10.8231 8.34021 10.4626 8.77947 10.0001 9.08851C9.53759 9.39755 8.99382 9.5625 8.43756 9.5625C7.69191 9.56161 6.97706 9.265 6.44981 8.73775C5.92256 8.2105 5.62595 7.49565 5.62506 6.75ZM2.92506 13.2188C3.60565 12.4226 4.45111 11.7839 5.40294 11.3469C6.35476 10.9098 7.39019 10.6848 8.43756 10.6875C9.33456 10.6876 10.2239 10.8522 11.0616 11.1729C10.5286 11.7285 10.2022 12.4501 10.1371 13.2173C10.072 13.9845 10.2721 14.7508 10.7039 15.3883C9.33798 15.8357 7.87017 15.8684 6.48572 15.4822C5.10126 15.0961 3.86224 14.3085 2.92506 13.2188ZM13.5001 15.75C13.0551 15.75 12.62 15.618 12.25 15.3708C11.88 15.1236 11.5916 14.7722 11.4213 14.361C11.251 13.9499 11.2065 13.4975 11.2933 13.061C11.3801 12.6246 11.5944 12.2237 11.9091 11.909C12.2237 11.5943 12.6247 11.38 13.0611 11.2932C13.4976 11.2064 13.95 11.251 14.3611 11.4213C14.7722 11.5916 15.1236 11.88 15.3709 12.25C15.6181 12.62 15.7501 13.055 15.7501 13.5C15.7501 14.0967 15.513 14.669 15.0911 15.091C14.6691 15.5129 14.0968 15.75 13.5001 15.75Z" fill="white"/>
<path d="M14.6251 12.9375H14.0626V12.375C14.0626 12.2258 14.0034 12.0827 13.8979 11.9773C13.7924 11.8718 13.6493 11.8125 13.5001 11.8125C13.3509 11.8125 13.2079 11.8718 13.1024 11.9773C12.9969 12.0827 12.9376 12.2258 12.9376 12.375V12.9375H12.3751C12.2259 12.9375 12.0829 12.9968 11.9774 13.1023C11.8719 13.2077 11.8126 13.3508 11.8126 13.5C11.8126 13.6492 11.8719 13.7923 11.9774 13.8977C12.0829 14.0032 12.2259 14.0625 12.3751 14.0625H12.9376V14.625C12.9376 14.7742 12.9969 14.9173 13.1024 15.0227C13.2079 15.1282 13.3509 15.1875 13.5001 15.1875C13.6493 15.1875 13.7924 15.1282 13.8979 15.0227C14.0034 14.9173 14.0626 14.7742 14.0626 14.625V14.0625H14.6251C14.7743 14.0625 14.9174 14.0032 15.0229 13.8977C15.1284 13.7923 15.1876 13.6492 15.1876 13.5C15.1876 13.3508 15.1284 13.2077 15.0229 13.1023C14.9174 12.9968 14.7743 12.9375 14.6251 12.9375Z" fill="white"/>
</svg>
