<svg width="113" height="65" viewBox="0 0 113 65" fill="none" xmlns="http://www.w3.org/2000/svg">
<path d="M41.875 41.875L37.2021 37.1937L41.875 41.875ZM39.7916 30.9375C39.7916 33.2858 38.8588 35.5378 37.1983 37.1983C35.5378 38.8588 33.2858 39.7916 30.9375 39.7916C28.5892 39.7916 26.3371 38.8588 24.6766 37.1983C23.0162 35.5378 22.0833 33.2858 22.0833 30.9375C22.0833 28.5892 23.0162 26.3371 24.6766 24.6766C26.3371 23.0162 28.5892 22.0833 30.9375 22.0833C33.2858 22.0833 35.5378 23.0162 37.1983 24.6766C38.8588 26.3371 39.7916 28.5892 39.7916 30.9375V30.9375Z" stroke="url(#paint0_linear_688_26973)" stroke-width="2" stroke-linecap="round"/>
<path d="M89.875 41.875L85.2021 37.1937L89.875 41.875ZM87.7916 30.9375C87.7916 33.2858 86.8588 35.5378 85.1983 37.1983C83.5378 38.8588 81.2858 39.7916 78.9375 39.7916C76.5892 39.7916 74.3371 38.8588 72.6766 37.1983C71.0162 35.5378 70.0833 33.2858 70.0833 30.9375C70.0833 28.5892 71.0162 26.3371 72.6766 24.6766C74.3371 23.0162 76.5892 22.0833 78.9375 22.0833C81.2858 22.0833 83.5378 23.0162 85.1983 24.6766C86.8588 26.3371 87.7916 28.5892 87.7916 30.9375V30.9375Z" stroke="white" stroke-width="2" stroke-linecap="round"/>
<rect x="0.5" y="0.5" width="112" height="64" rx="4.5" stroke="#7B61FF" stroke-dasharray="10 5"/>
<defs>
<linearGradient id="paint0_linear_688_26973" x1="13.1914" y1="49.6996" x2="42.9709" y2="48.4624" gradientUnits="userSpaceOnUse">
<stop stop-color="#004CB6"/>
<stop offset="1" stop-color="#009AF9"/>
</linearGradient>
</defs>
</svg>
