<svg width="210" height="60" viewBox="0 0 210 60" fill="none" xmlns="http://www.w3.org/2000/svg">
<path fill-rule="evenodd" clip-rule="evenodd" d="M31.7187 41.4816C31.2355 41.9505 30.4261 41.6081 30.4261 40.9348C30.4261 40.7288 30.5096 40.5315 30.6574 40.3881L37.3247 33.9176C37.7178 33.5361 37.9836 33.074 38.1222 32.5833H21.9015C21.4036 32.5833 21 32.1797 21 31.6818C21 31.1839 21.4036 30.7802 21.9015 30.7802H38.07C37.9216 30.3516 37.6731 29.95 37.3247 29.6119L30.6574 23.1414C30.5096 22.9979 30.4261 22.8007 30.4261 22.5946C30.4261 21.9213 31.2355 21.5789 31.7187 22.0478L39.5128 29.6119C40.727 30.7903 40.727 32.7392 39.5128 33.9176L31.7187 41.4816Z" fill="url(#paint0_linear_283_796)"/>
<path fill-rule="evenodd" clip-rule="evenodd" d="M163.281 22.0478C163.765 21.5789 164.574 21.9213 164.574 22.5946C164.574 22.8006 164.49 22.9979 164.343 23.1414L157.675 29.6118C157.282 29.9933 157.016 30.4555 156.878 30.9461L173.098 30.9461C173.596 30.9461 174 31.3497 174 31.8477C174 32.3456 173.596 32.7492 173.098 32.7492L156.93 32.7492C157.078 33.1778 157.327 33.5794 157.675 33.9176L164.343 40.388C164.49 40.5315 164.574 40.7288 164.574 40.9348C164.574 41.6081 163.765 41.9505 163.281 41.4816L155.487 33.9176C154.273 32.7391 154.273 30.7902 155.487 29.6118L163.281 22.0478Z" fill="url(#paint1_linear_283_796)"/>
<path fill-rule="evenodd" clip-rule="evenodd" d="M108.482 29.2813C108.951 29.7645 108.608 30.5739 107.935 30.5739C107.729 30.5739 107.532 30.4904 107.388 30.3426L100.918 23.6753C100.536 23.2822 100.074 23.0164 99.5834 22.8778L99.5834 39.0985C99.5834 39.5964 99.1797 40 98.6818 40C98.1839 40 97.7803 39.5964 97.7803 39.0985L97.7803 22.9299C97.3517 23.0784 96.9501 23.3269 96.6119 23.6753L90.1414 30.3426C89.998 30.4904 89.8007 30.5739 89.5947 30.5739C88.9214 30.5739 88.579 29.7645 89.0479 29.2813L96.6119 21.4872C97.7903 20.273 99.7392 20.273 100.918 21.4872L108.482 29.2813Z" fill="url(#paint2_linear_283_796)"/>
<rect x="0.5" y="0.5" width="209" height="59" rx="4.5" stroke="#7B61FF" stroke-dasharray="10 5"/>
<defs>
<linearGradient id="paint0_linear_283_796" x1="12.2735" y1="49.5527" x2="41.5012" y2="48.3655" gradientUnits="userSpaceOnUse">
<stop stop-color="#004CB6"/>
<stop offset="1" stop-color="#009AF9"/>
</linearGradient>
<linearGradient id="paint1_linear_283_796" x1="182.726" y1="13.9767" x2="153.499" y2="15.1639" gradientUnits="userSpaceOnUse">
<stop stop-color="#004CB6"/>
<stop offset="1" stop-color="#009AF9"/>
</linearGradient>
<linearGradient id="paint2_linear_283_796" x1="116.553" y1="48.7265" x2="115.366" y2="19.4988" gradientUnits="userSpaceOnUse">
<stop stop-color="#004CB6"/>
<stop offset="1" stop-color="#009AF9"/>
</linearGradient>
</defs>
</svg>
