<svg width="140" height="189" viewBox="0 0 140 189" fill="none" xmlns="http://www.w3.org/2000/svg">
<path fill-rule="evenodd" clip-rule="evenodd" d="M112.505 104.47C113.818 104.47 115.046 104.143 116.194 103.503L116.4 103.389L116.522 103.591C116.684 103.86 116.896 104.084 117.17 104.242C117.453 104.403 117.765 104.47 118.089 104.47C118.347 104.47 118.594 104.423 118.836 104.319C119.07 104.225 119.275 104.086 119.454 103.907C119.827 103.535 120 103.084 120 102.558V96.8659C119.98 95.875 119.78 94.9152 119.382 94.0078C118.991 93.1168 118.448 92.3259 117.759 91.6405C117.068 90.9523 116.269 90.4165 115.368 90.0412C114.454 89.6604 113.496 89.4751 112.505 89.4751C111.506 89.4751 110.542 89.6604 109.623 90.0513C108.716 90.4357 107.915 90.9762 107.219 91.6726C106.518 92.3727 105.973 93.1783 105.587 94.0913C105.197 95.0152 105.005 95.9832 105.005 96.9861C105.005 97.9881 105.194 98.9524 105.587 99.8736C105.973 100.78 106.52 101.578 107.219 102.271C107.918 102.965 108.716 103.508 109.623 103.893C110.542 104.284 111.505 104.47 112.505 104.47ZM51.9592 96.6007H58.1159C58.3673 96.6007 58.616 96.5521 58.8527 96.4503C59.0812 96.3585 59.2904 96.2282 59.4647 96.0548C59.6363 95.8823 59.7675 95.6777 59.862 95.4547C59.9611 95.2235 60.0107 94.985 60.0107 94.7326C60.0107 94.4812 59.9584 94.2371 59.862 94.0041C59.7648 93.7729 59.6326 93.5609 59.4647 93.3838C59.2886 93.2067 59.0757 93.0737 58.8472 92.9746C58.6169 92.8746 58.3664 92.8214 58.1159 92.8214H51.9592C51.4316 92.8214 50.9829 92.9911 50.6113 93.3664C50.4333 93.5453 50.303 93.7609 50.2067 94.0004C50.1076 94.2326 50.058 94.4812 50.058 94.7326C50.058 94.984 50.1057 95.2217 50.2076 95.4566C50.3021 95.6823 50.4361 95.8823 50.6095 96.0539C50.9857 96.4273 51.4298 96.6007 51.9592 96.6007ZM67.2373 104.47C67.4915 104.47 67.7392 104.424 67.975 104.33C68.1925 104.244 68.3934 104.125 68.5576 103.958C68.7246 103.789 68.8503 103.592 68.9384 103.372C69.0302 103.141 69.0724 102.899 69.0724 102.65C69.0724 102.402 69.032 102.165 68.9366 101.931C68.8522 101.711 68.7256 101.517 68.554 101.344C68.3934 101.175 68.1989 101.046 67.9768 100.958C67.7401 100.86 67.4933 100.815 67.2373 100.815C66.4675 100.815 65.8197 100.526 65.7582 99.6663V85.8691C65.7582 85.6204 65.7077 85.3837 65.6086 85.1626C65.4994 84.9332 65.3572 84.7295 65.1829 84.5506C64.9994 84.3772 64.7865 84.245 64.547 84.1496C64.3149 84.0496 64.0662 84.001 63.8148 84.001C63.3166 84.001 62.9046 84.1808 62.5587 84.546C62.1935 84.9158 62.0274 85.3516 62.0274 85.8691V99.5745C62.0274 100.255 62.1541 100.916 62.4339 101.537C62.7046 102.137 63.0799 102.66 63.5671 103.103C64.0552 103.548 64.6214 103.879 65.2379 104.112C65.8793 104.353 66.5528 104.47 67.2373 104.47ZM73.1481 88.0198C73.4188 88.0198 73.6803 87.9721 73.9299 87.8657C74.1739 87.762 74.3905 87.6143 74.5777 87.4262C74.9676 87.0326 75.1732 86.5729 75.1732 86.0159C75.1732 85.4525 74.9759 84.9837 74.5786 84.5854C74.3914 84.3992 74.174 84.2533 73.9363 84.1533C73.684 84.0542 73.4197 84.0019 73.1481 84.0019C72.5949 84.0019 72.1251 84.1955 71.7342 84.5854C71.3351 84.9846 71.1231 85.4498 71.1231 86.0159C71.1231 86.2792 71.1827 86.5343 71.2855 86.7711C71.3965 87.0179 71.5434 87.2344 71.7342 87.4253C72.126 87.8171 72.593 88.0198 73.1481 88.0198ZM73.1481 104.47C73.3959 104.47 73.6344 104.424 73.8647 104.321C74.0859 104.227 74.2841 104.093 74.4538 103.924C74.6254 103.752 74.7575 103.549 74.8529 103.32C74.9511 103.101 74.9998 102.864 74.9998 102.624V91.6488C74.9998 91.4001 74.9594 91.1579 74.8639 90.9239C74.7795 90.7028 74.6529 90.5082 74.4859 90.3422C74.3143 90.1715 74.1116 90.0385 73.884 89.9439C73.6592 89.8458 73.4262 89.7971 73.1803 89.7971C72.9233 89.7971 72.6783 89.8476 72.4398 89.9458C72.215 90.0385 72.0039 90.1697 71.8259 90.3467C71.6461 90.5174 71.5066 90.7211 71.4039 90.9468C71.3048 91.1689 71.2525 91.4056 71.2525 91.6488V102.624C71.2525 102.863 71.3057 103.101 71.4039 103.319C71.5066 103.545 71.6461 103.748 71.8315 103.924C72.0021 104.094 72.2058 104.226 72.4269 104.321C72.6554 104.42 72.8986 104.47 73.1481 104.47ZM85.023 104.47C86.0241 104.47 86.9857 104.277 87.9069 103.888C88.8125 103.505 89.6154 102.967 90.309 102.272C91.0055 101.576 91.5477 100.777 91.9304 99.8691C92.3194 98.9488 92.5075 97.9844 92.5075 96.9861C92.5075 95.9832 92.3166 95.0152 91.9258 94.0913C91.5413 93.182 91.0036 92.3718 90.309 91.6717C89.6172 90.9743 88.8116 90.4385 87.9069 90.0568C86.9857 89.6668 86.0232 89.4751 85.023 89.4751C84.3725 89.4751 83.7339 89.6311 83.1311 89.8687C82.6145 90.0733 82.0373 90.366 81.6749 90.8009L81.2427 91.3175V85.9508C81.2427 85.6847 81.2005 85.4195 81.107 85.1699C81.0207 84.9396 80.8941 84.7277 80.7298 84.5533C80.5564 84.3799 80.3509 84.2496 80.1261 84.156C79.8912 84.0579 79.6462 84.0074 79.3911 84.0074C79.1397 84.0074 78.8957 84.056 78.6608 84.157C78.4341 84.2496 78.2313 84.3799 78.0634 84.5478C77.89 84.7304 77.7579 84.947 77.6616 85.1782C77.5597 85.4241 77.5129 85.6856 77.5129 85.9508V96.9861C77.5129 97.9872 77.7019 98.9524 78.0937 99.8736C78.48 100.78 79.0287 101.577 79.726 102.271C80.4243 102.967 81.2326 103.508 82.1401 103.893C83.0586 104.282 84.0257 104.47 85.023 104.47ZM85.023 100.722C84.5211 100.722 84.0376 100.627 83.5752 100.433C83.1246 100.244 82.7209 99.9783 82.3759 99.6333C82.0273 99.2846 81.7511 98.8836 81.5556 98.4313C81.3565 97.9716 81.2593 97.4862 81.2593 96.9861C81.2593 96.4842 81.3565 95.9998 81.5556 95.5401C81.7511 95.0896 82.03 94.6895 82.3777 94.3362C82.7237 93.9967 83.1274 93.7316 83.5752 93.5435C84.0376 93.3499 84.5211 93.2535 85.023 93.2535C85.5249 93.2535 86.014 93.3499 86.4764 93.5435C86.9233 93.7307 87.3279 93.9958 87.6711 94.3381C88.0198 94.6868 88.296 95.0877 88.4868 95.5428C88.6804 96.0025 88.7767 96.487 88.7767 96.9861C88.7767 97.4853 88.6804 97.9688 88.4868 98.4285C88.295 98.8845 88.0198 99.2837 87.6711 99.6333C87.327 99.9773 86.926 100.245 86.4764 100.433C86.014 100.627 85.5249 100.722 85.023 100.722ZM96.5172 104.47C97.0227 104.47 97.4476 104.295 97.8073 103.939C97.9752 103.773 98.1054 103.582 98.1972 103.37C98.2926 103.136 98.3367 102.888 98.3367 102.634V97.4733C98.3477 96.9292 98.4605 96.4081 98.6762 95.9089C98.8872 95.4162 99.1891 94.9758 99.5653 94.5941C99.936 94.2179 100.365 93.916 100.848 93.7031C101.342 93.4848 101.859 93.3737 102.403 93.3627H102.501C102.758 93.3627 103.016 93.3169 103.257 93.2223C103.49 93.1306 103.704 93.0012 103.882 92.8333C104.253 92.4626 104.445 92.024 104.445 91.5001C104.445 90.9863 104.303 90.5238 103.936 90.1568C103.552 89.7714 103.032 89.6485 102.501 89.6485H102.376C101.354 89.6687 100.367 89.8751 99.4295 90.2779C98.5092 90.6734 97.6889 91.223 96.975 91.9231C96.252 92.6333 95.6868 93.4582 95.2721 94.383C94.8555 95.3134 94.6371 96.2934 94.6059 97.3054V102.634C94.6059 102.881 94.6527 103.119 94.7564 103.344C94.8601 103.568 95.0069 103.766 95.1831 103.938C95.3565 104.11 95.5602 104.238 95.7822 104.329C96.0199 104.421 96.2612 104.47 96.5172 104.47ZM112.505 100.722C112.009 100.722 111.526 100.624 111.069 100.433C110.617 100.244 110.214 99.9783 109.868 99.6333C109.521 99.2846 109.247 98.8836 109.049 98.4322C108.847 97.9734 108.752 97.4871 108.752 96.9861C108.752 96.4842 108.846 95.9979 109.049 95.5391C109.247 95.0877 109.521 94.6868 109.868 94.3381C110.212 93.994 110.62 93.7316 111.069 93.5435C111.526 93.3517 112.009 93.2535 112.505 93.2535C113.008 93.2535 113.496 93.3517 113.963 93.5435C114.415 93.7288 114.822 93.9922 115.169 94.3381C115.517 94.6858 115.788 95.0896 115.979 95.5419C116.174 96.0025 116.269 96.487 116.269 96.9861C116.269 97.4853 116.173 97.9688 115.979 98.4294C115.788 98.8827 115.517 99.2855 115.169 99.6333C114.821 99.981 114.418 100.247 113.963 100.433C113.496 100.624 113.008 100.722 112.505 100.722Z" fill="white"/>
<path fill-rule="evenodd" clip-rule="evenodd" d="M21.8626 104.47H40.1576C41.1688 104.47 42.1551 104.298 43.0965 103.929C43.9957 103.576 44.7995 103.061 45.4969 102.393C46.2162 101.704 46.7566 100.884 47.1347 99.9635C47.5466 98.9625 47.7228 97.9073 47.7228 96.8282V91.6239C47.7228 90.5476 47.5466 89.4879 47.1347 88.4905C46.7548 87.5674 46.2153 86.7462 45.4969 86.0544C44.8014 85.3855 43.9976 84.8763 43.0975 84.5303C42.1551 84.1688 41.167 84 40.1576 84H31.2932C31.0445 84 30.7968 84.0477 30.5711 84.1376C30.35 84.2312 30.1453 84.3597 29.9765 84.5294C29.8049 84.701 29.6691 84.8992 29.5728 85.1212C29.4737 85.347 29.4306 85.5892 29.4306 85.8351V93.0507C29.4306 94.0765 30.2692 94.9161 31.295 94.9161C32.3218 94.9161 33.1604 94.0774 33.1604 93.0507V87.7464H40.1576C41.1174 87.7464 42.0616 87.9675 42.7947 88.6144C43.6627 89.3805 43.96 90.4632 43.96 91.5918V96.8613C43.96 97.9899 43.659 99.0634 42.7956 99.8323C42.0561 100.491 41.1348 100.739 40.1576 100.739H33.6623L24.2538 91.3303L23.4913 92.0928L30.795 99.3965L21.8498 94.2325L21.3103 95.1657L30.2564 100.331L20.2789 97.6577L20 98.6991L27.612 100.739H20V102.634C20 102.881 20.045 103.123 20.1404 103.346C20.2413 103.567 20.3762 103.769 20.5469 103.941C20.7148 104.111 20.9203 104.238 21.1341 104.33C21.3663 104.422 21.6121 104.47 21.8626 104.47Z" fill="white"/>
<path fill-rule="evenodd" clip-rule="evenodd" d="M112.505 168.47C113.818 168.47 115.046 168.143 116.194 167.503L116.4 167.389L116.522 167.591C116.685 167.861 116.896 168.084 117.17 168.242C117.453 168.404 117.765 168.47 118.089 168.47C118.348 168.47 118.594 168.423 118.836 168.319C119.07 168.225 119.276 168.086 119.454 167.907C119.827 167.535 120 167.084 120 166.558V160.866C119.98 159.875 119.78 158.915 119.382 158.008C118.991 157.117 118.448 156.327 117.759 155.64C117.068 154.952 116.27 154.416 115.369 154.041C114.454 153.66 113.496 153.475 112.505 153.475C111.506 153.475 110.542 153.66 109.623 154.051C108.716 154.436 107.916 154.976 107.219 155.673C106.518 156.373 105.973 157.179 105.588 158.091C105.197 159.015 105.005 159.984 105.005 160.986C105.005 161.988 105.195 162.952 105.587 163.874C105.973 164.78 106.52 165.578 107.219 166.271C107.918 166.965 108.716 167.508 109.623 167.893C110.542 168.284 111.506 168.47 112.505 168.47ZM51.9591 160.601H58.1159C58.3673 160.601 58.6169 160.552 58.8536 160.45C59.0812 160.359 59.2904 160.228 59.4647 160.055C59.6363 159.882 59.7675 159.678 59.8629 159.455C59.9611 159.224 60.0106 158.985 60.0106 158.733C60.0106 158.481 59.9593 158.237 59.862 158.004C59.7647 157.773 59.6326 157.561 59.4656 157.384C59.2885 157.207 59.0757 157.074 58.8472 156.975C58.6169 156.875 58.3673 156.821 58.1159 156.821H51.9591C51.4316 156.821 50.9829 156.991 50.6113 157.366C50.4342 157.545 50.303 157.761 50.2066 158C50.1075 158.233 50.0589 158.481 50.0589 158.733C50.0589 158.984 50.1057 159.223 50.2085 159.457C50.3021 159.682 50.4369 159.882 50.6094 160.054C50.9856 160.427 51.4297 160.601 51.9591 160.601ZM67.2373 168.47C67.4914 168.47 67.7392 168.424 67.9759 168.33C68.1924 168.244 68.3943 168.125 68.5585 167.958C68.7246 167.789 68.8512 167.592 68.9384 167.372C69.0311 167.141 69.0724 166.899 69.0724 166.65C69.0724 166.402 69.032 166.165 68.9375 165.931C68.8531 165.711 68.7255 165.517 68.5549 165.344C68.3943 165.175 68.1988 165.046 67.9768 164.958C67.7401 164.86 67.4932 164.815 67.2373 164.815C66.4674 164.815 65.8196 164.526 65.7591 163.666V149.869C65.7591 149.621 65.7077 149.384 65.6086 149.163C65.4994 148.933 65.3572 148.73 65.1829 148.551C65.0003 148.377 64.7865 148.246 64.547 148.15C64.3158 148.05 64.0662 148.001 63.8148 148.001C63.3166 148.001 62.9046 148.181 62.5587 148.547C62.1944 148.916 62.0283 149.352 62.0283 149.869V163.575C62.0283 164.255 62.154 164.916 62.4339 165.537C62.7046 166.137 63.0798 166.66 63.568 167.103C64.0561 167.548 64.6222 167.88 65.2388 168.112C65.8793 168.353 66.5528 168.47 67.2373 168.47ZM73.1481 152.02C73.4188 152.02 73.6803 151.972 73.9299 151.866C74.1739 151.762 74.3905 151.614 74.5776 151.426C74.9676 151.033 75.1731 150.573 75.1731 150.016C75.1731 149.453 74.9768 148.984 74.5786 148.586C74.3914 148.399 74.1748 148.253 73.9363 148.153C73.684 148.054 73.4197 148.002 73.1481 148.002C72.5948 148.002 72.125 148.195 71.7342 148.586C71.3359 148.985 71.1231 149.45 71.1231 150.016C71.1231 150.279 71.1836 150.534 71.2855 150.771C71.3965 151.018 71.5433 151.234 71.7342 151.425C72.126 151.817 72.593 152.02 73.1481 152.02ZM73.1481 168.47C73.3958 168.47 73.6344 168.424 73.8647 168.321C74.0868 168.227 74.284 168.093 74.4538 167.924C74.6254 167.752 74.7575 167.549 74.8529 167.32C74.9511 167.101 74.9997 166.864 74.9997 166.624V155.649C74.9997 155.4 74.9593 155.158 74.8639 154.924C74.7795 154.703 74.6529 154.508 74.4868 154.343C74.3152 154.171 74.1125 154.039 73.884 153.944C73.6592 153.846 73.4261 153.797 73.1802 153.797C72.9233 153.797 72.6783 153.848 72.4398 153.946C72.215 154.038 72.0048 154.17 71.8268 154.347C71.6461 154.517 71.5066 154.721 71.4048 154.948C71.3047 155.169 71.2525 155.406 71.2525 155.649V166.624C71.2525 166.863 71.3057 167.101 71.4048 167.319C71.5066 167.545 71.6461 167.748 71.8314 167.924C72.0021 168.094 72.2058 168.227 72.4269 168.321C72.6554 168.42 72.8985 168.47 73.1481 168.47ZM85.023 168.47C86.0241 168.47 86.9857 168.277 87.9069 167.888C88.8125 167.505 89.6154 166.967 90.3099 166.272C91.0054 165.576 91.5477 164.777 91.9312 163.869C92.3194 162.949 92.5075 161.984 92.5075 160.986C92.5075 159.984 92.3166 159.015 91.9257 158.091C91.5413 157.182 91.0045 156.372 90.309 155.672C89.6172 154.974 88.8116 154.439 87.9069 154.057C86.9857 153.667 86.0232 153.475 85.023 153.475C84.3725 153.475 83.7348 153.631 83.132 153.869C82.6145 154.073 82.0373 154.366 81.6749 154.801L81.2436 155.318V149.951C81.2436 149.685 81.2005 149.42 81.1069 149.17C81.0207 148.94 80.8941 148.728 80.7307 148.553C80.5564 148.38 80.3518 148.25 80.1261 148.156C79.8912 148.058 79.6462 148.007 79.392 148.007C79.1406 148.007 78.8965 148.056 78.6607 148.157C78.4341 148.25 78.2313 148.38 78.0634 148.548C77.8909 148.73 77.7579 148.947 77.6624 149.178C77.5606 149.424 77.5129 149.686 77.5129 149.951V160.986C77.5129 161.988 77.7019 162.952 78.0937 163.874C78.48 164.781 79.0287 165.577 79.726 166.271C80.4243 166.967 81.2326 167.508 82.1401 167.893C83.0586 168.282 84.0256 168.47 85.023 168.47ZM85.023 164.723C84.522 164.723 84.0376 164.627 83.5751 164.433C83.1246 164.244 82.7209 163.978 82.3759 163.633C82.0281 163.285 81.752 162.884 81.5556 162.431C81.3565 161.972 81.2592 161.487 81.2592 160.986C81.2592 160.484 81.3565 160.001 81.5556 159.54C81.751 159.09 82.0309 158.69 82.3777 158.336C82.7236 157.997 83.1274 157.732 83.5751 157.543C84.0376 157.35 84.522 157.254 85.023 157.254C85.5249 157.254 86.014 157.35 86.4764 157.543C86.9242 157.731 87.3288 157.996 87.6711 158.338C88.0197 158.687 88.2959 159.088 88.4868 159.543C88.6804 160.003 88.7767 160.487 88.7767 160.986C88.7767 161.485 88.6804 161.969 88.4868 162.429C88.295 162.885 88.0207 163.284 87.6711 163.633C87.327 163.977 86.926 164.245 86.4764 164.433C86.014 164.627 85.5249 164.723 85.023 164.723ZM96.5172 168.47C97.0236 168.47 97.4485 168.295 97.8072 167.939C97.9752 167.773 98.1054 167.582 98.1972 167.371C98.2926 167.136 98.3367 166.888 98.3367 166.635V161.473C98.3477 160.929 98.4605 160.409 98.6762 159.909C98.8881 159.417 99.1891 158.976 99.5653 158.594C99.9359 158.219 100.365 157.916 100.848 157.703C101.342 157.486 101.859 157.374 102.403 157.363H102.501C102.759 157.363 103.017 157.317 103.257 157.222C103.491 157.131 103.704 157.001 103.882 156.832C104.253 156.463 104.445 156.024 104.445 155.5C104.445 154.986 104.304 154.524 103.937 154.157C103.553 153.771 103.032 153.648 102.501 153.648H102.377C101.354 153.669 100.368 153.876 99.4295 154.278C98.5101 154.673 97.6889 155.223 96.975 155.923C96.252 156.633 95.6868 157.459 95.2721 158.384C94.8555 159.313 94.6371 160.293 94.6059 161.305V166.635C94.6059 166.882 94.6527 167.119 94.7564 167.344C94.8601 167.569 95.0078 167.766 95.183 167.939C95.3574 168.111 95.5602 168.238 95.7822 168.329C96.0199 168.421 96.2621 168.47 96.5172 168.47ZM112.505 164.723C112.009 164.723 111.526 164.625 111.069 164.433C110.618 164.244 110.214 163.978 109.869 163.633C109.521 163.285 109.247 162.884 109.049 162.432C108.847 161.973 108.753 161.487 108.753 160.986C108.753 160.484 108.847 159.998 109.049 159.539C109.247 159.088 109.521 158.687 109.869 158.338C110.213 157.994 110.62 157.732 111.069 157.543C111.526 157.353 112.009 157.254 112.505 157.254C113.009 157.254 113.497 157.353 113.963 157.543C114.416 157.729 114.823 157.992 115.169 158.338C115.517 158.686 115.789 159.09 115.979 159.543C116.174 160.003 116.27 160.487 116.27 160.986C116.27 161.485 116.173 161.969 115.979 162.429C115.788 162.883 115.517 163.286 115.169 163.633C114.822 163.981 114.418 164.247 113.963 164.433C113.497 164.625 113.009 164.723 112.505 164.723Z" fill="#F8F8F8"/>
<mask id="mask0_688_20505" style="mask-type:alpha" maskUnits="userSpaceOnUse" x="20" y="148" width="28" height="21">
<path d="M21.8626 168.47H40.1586C41.1697 168.47 42.1561 168.298 43.0965 167.929C43.9957 167.576 44.7995 167.061 45.4969 166.393C46.2162 165.704 46.7566 164.884 47.1356 163.964C47.5467 162.962 47.7237 161.907 47.7237 160.828V155.625C47.7237 154.548 47.5467 153.488 47.1356 152.49C46.7548 151.567 46.2162 150.746 45.4969 150.054C44.8023 149.385 43.9985 148.876 43.0984 148.53C42.1551 148.169 41.1669 148 40.1586 148H31.2932C31.0445 148 30.7977 148.048 30.5711 148.138C30.35 148.231 30.1463 148.36 29.9765 148.529C29.8049 148.701 29.6691 148.9 29.5728 149.121C29.4746 149.347 29.4306 149.589 29.4306 149.835V157.051C29.4306 158.077 30.2692 158.916 31.2959 158.916C32.3218 158.916 33.1613 158.077 33.1613 157.051V151.746H40.1586C41.1174 151.746 42.0616 151.967 42.7947 152.614C43.6627 153.381 43.96 154.464 43.96 155.592V160.861C43.96 161.99 43.659 163.063 42.7956 163.832C42.056 164.491 41.1348 164.739 40.1586 164.739H33.6632L24.2538 155.33L23.4913 156.093L30.7959 163.396L21.8498 158.233L21.3103 159.166L30.2564 164.331L20.2789 161.658L20 162.699L27.612 164.739H20V166.635C20 166.881 20.045 167.123 20.1404 167.346C20.2413 167.567 20.3762 167.769 20.5469 167.941C20.7148 168.111 20.9203 168.238 21.135 168.33C21.3671 168.422 21.6131 168.47 21.8626 168.47Z" fill="white"/>
</mask>
<g mask="url(#mask0_688_20505)">
<path fill-rule="evenodd" clip-rule="evenodd" d="M21.8626 168.47H40.1586C41.1697 168.47 42.1561 168.298 43.0965 167.929C43.9957 167.576 44.7995 167.061 45.4969 166.393C46.2162 165.704 46.7566 164.884 47.1356 163.964C47.5467 162.962 47.7237 161.907 47.7237 160.828V155.625C47.7237 154.548 47.5467 153.488 47.1356 152.49C46.7548 151.567 46.2162 150.746 45.4969 150.054C44.8023 149.385 43.9985 148.876 43.0984 148.53C42.1551 148.169 41.1669 148 40.1586 148H31.2932C31.0445 148 30.7977 148.048 30.5711 148.138C30.35 148.231 30.1463 148.36 29.9765 148.529C29.8049 148.701 29.6691 148.9 29.5728 149.121C29.4746 149.347 29.4306 149.589 29.4306 149.835V157.051C29.4306 158.077 30.2692 158.916 31.2959 158.916C32.3218 158.916 33.1613 158.077 33.1613 157.051V151.746H40.1586C41.1174 151.746 42.0616 151.967 42.7947 152.614C43.6627 153.381 43.96 154.464 43.96 155.592V160.861C43.96 161.99 43.659 163.063 42.7956 163.832C42.056 164.491 41.1348 164.739 40.1586 164.739H33.6632L24.2538 155.33L23.4913 156.093L30.7959 163.396L21.8498 158.233L21.3103 159.166L30.2564 164.331L20.2789 161.658L20 162.699L27.612 164.739H20V166.635C20 166.881 20.045 167.123 20.1404 167.346C20.2413 167.567 20.3762 167.769 20.5469 167.941C20.7148 168.111 20.9203 168.238 21.135 168.33C21.3671 168.422 21.6131 168.47 21.8626 168.47Z" fill="url(#paint0_linear_688_20505)"/>
</g>
<path fill-rule="evenodd" clip-rule="evenodd" d="M112.505 40.4694C113.818 40.4694 115.046 40.143 116.193 39.5034L116.399 39.3895L116.521 39.5912C116.684 39.8607 116.896 40.0848 117.17 40.2417C117.453 40.4028 117.764 40.4694 118.088 40.4694C118.348 40.4694 118.594 40.4228 118.836 40.3192C119.07 40.2241 119.276 40.086 119.454 39.9073C119.827 39.5348 120 39.0842 120 38.5579V32.8657C119.979 31.8748 119.78 30.9154 119.382 30.0081C118.99 29.1172 118.448 28.3262 117.76 27.6405C117.068 26.9519 116.27 26.4164 115.368 26.0409C114.454 25.6606 113.496 25.4752 112.505 25.4752C111.506 25.4752 110.542 25.6606 109.622 26.0512C108.716 26.4358 107.915 26.9761 107.219 27.6726C106.518 28.3728 105.973 29.1783 105.587 30.0917C105.197 31.0154 105.005 31.9838 105.005 32.9856C105.005 33.988 105.195 34.9523 105.587 35.8741C105.972 36.7802 106.52 37.5779 107.218 38.2714C107.917 38.9649 108.716 39.5076 109.622 39.8934C110.542 40.2835 111.505 40.4694 112.505 40.4694ZM51.9592 32.6004H58.116C58.3673 32.6004 58.6163 32.552 58.8537 32.4508C59.0814 32.3588 59.2904 32.2285 59.4648 32.0547C59.6368 31.8827 59.7677 31.6774 59.8628 31.4545C59.9609 31.2231 60.0105 30.9845 60.0105 30.7331C60.0105 30.4806 59.9591 30.2371 59.8621 30.0039C59.7652 29.7725 59.6326 29.5617 59.4654 29.3837C59.2886 29.2068 59.076 29.0736 58.847 28.9742C58.6169 28.8749 58.3667 28.8216 58.116 28.8216H51.9592C51.4317 28.8216 50.9835 28.9912 50.611 29.3667C50.4335 29.5454 50.3027 29.761 50.207 30.0009C50.1077 30.2322 50.0586 30.4812 50.0586 30.7331C50.0586 30.9839 50.1059 31.2219 50.2082 31.4569C50.3021 31.6822 50.4366 31.8821 50.6098 32.0541C50.9859 32.4272 51.4299 32.6004 51.9592 32.6004ZM67.2375 40.4694C67.4913 40.4694 67.739 40.424 67.9758 40.3295C68.1926 40.2435 68.3937 40.1242 68.5585 39.9576C68.7244 39.7886 68.851 39.5924 68.9388 39.3725C69.0303 39.1412 69.0727 38.8995 69.0727 38.6505C69.0727 38.4028 69.0321 38.1648 68.9376 37.931C68.8528 37.7105 68.7256 37.5167 68.5548 37.3447C68.3937 37.1745 68.1987 37.0461 67.977 36.9583C67.7402 36.8596 67.4937 36.8148 67.2375 36.8148C66.4677 36.8148 65.8196 36.5264 65.7584 35.6664V21.869C65.7584 21.6213 65.7082 21.3833 65.6088 21.1622C65.4992 20.9332 65.3569 20.7291 65.183 20.5504C65.0001 20.3766 64.7869 20.2458 64.5471 20.1495C64.3157 20.0502 64.0662 20.0017 63.8148 20.0017C63.3163 20.0017 62.9051 20.181 62.5586 20.5462C62.194 20.9157 62.0281 21.3511 62.0281 21.869V35.5743C62.0281 36.2557 62.154 36.9159 62.4345 37.5373C62.7052 38.1369 63.0801 38.6602 63.5677 39.1036C64.0559 39.5476 64.6216 39.8789 65.2388 40.1115C65.8796 40.3531 66.5525 40.4694 67.2375 40.4694ZM73.1483 24.0198C73.4191 24.0198 73.6807 23.9719 73.9296 23.8659C74.1737 23.7624 74.3906 23.6146 74.5777 23.4262C74.9678 23.0325 75.1731 22.5722 75.1731 22.0162C75.1731 21.4529 74.9763 20.9841 74.5783 20.5862C74.3918 20.3996 74.1743 20.2531 73.9363 20.1531C73.6837 20.0538 73.4197 20.0023 73.1483 20.0023C72.5947 20.0023 72.1247 20.1949 71.7341 20.5862C71.3355 20.9847 71.1235 21.4505 71.1235 22.0162C71.1235 22.2791 71.1835 22.5347 71.2852 22.7715C71.3967 23.018 71.5433 23.2342 71.7341 23.425C72.1259 23.8169 72.5929 24.0198 73.1483 24.0198ZM73.1483 40.4694C73.396 40.4694 73.6347 40.424 73.8648 40.321C74.0865 40.2271 74.284 40.0933 74.4536 39.9237C74.625 39.7517 74.7576 39.5488 74.8533 39.3198C74.9514 39.1006 74.9999 38.8638 74.9999 38.6233V27.6484C74.9999 27.4001 74.9593 27.1578 74.8642 26.9234C74.78 26.7035 74.6528 26.5091 74.4863 26.3426C74.3149 26.1712 74.112 26.0391 73.8842 25.944C73.6589 25.8459 73.4257 25.7968 73.1804 25.7968C72.923 25.7968 72.6783 25.8477 72.4403 25.9458C72.215 26.0385 72.0042 26.1693 71.8267 26.3474C71.6456 26.5182 71.5069 26.7217 71.4046 26.947C71.3046 27.1687 71.2531 27.4061 71.2531 27.6484V38.6233C71.2531 38.8625 71.3058 39.1006 71.4046 39.3186C71.5063 39.5445 71.6456 39.7481 71.8316 39.9237C72.0024 40.0945 72.2059 40.2265 72.427 40.3216C72.6559 40.4203 72.8988 40.4694 73.1483 40.4694ZM85.0233 40.4694C86.0238 40.4694 86.9857 40.2768 87.9069 39.8874C88.8124 39.5046 89.6149 38.9661 90.309 38.272C91.0056 37.5755 91.5476 36.7766 91.931 35.8693C92.3193 34.9493 92.507 33.9838 92.507 32.9856C92.507 31.9838 92.3162 31.0154 91.9256 30.0917C91.541 29.1826 91.0037 28.3722 90.309 27.6714C89.6173 26.9749 88.8118 26.4389 87.9069 26.0567C86.9857 25.6672 86.0232 25.4752 85.0233 25.4752C84.3728 25.4752 83.7344 25.6309 83.1311 25.8689C82.6145 26.0736 82.0373 26.3662 81.6745 26.801L81.2432 27.3171V21.9514C81.2432 21.6849 81.2002 21.4202 81.1069 21.1701C81.0203 20.9399 80.8943 20.7273 80.7302 20.5529C80.5564 20.3803 80.351 20.25 80.1263 20.1561C79.8907 20.058 79.6466 20.0078 79.3917 20.0078C79.1403 20.0078 78.8962 20.0562 78.6606 20.1568C78.4347 20.2494 78.2312 20.3802 78.0634 20.5486C77.8908 20.7309 77.7581 20.9466 77.6618 21.1785C77.5601 21.4238 77.5122 21.6861 77.5122 21.9514V32.9856C77.5122 33.988 77.7018 34.9523 78.0943 35.8741C78.4795 36.7808 79.0289 37.5767 79.726 38.2714C80.4243 38.9673 81.2323 39.5082 82.1402 39.8928C83.0584 40.2817 84.0257 40.4694 85.0233 40.4694ZM85.0233 36.7227C84.5218 36.7227 84.0378 36.6264 83.5751 36.4332C83.1245 36.2448 82.7211 35.9789 82.3758 35.6337C82.0276 35.2848 81.7514 34.8832 81.5557 34.4314C81.3565 33.9711 81.2596 33.4865 81.2596 32.9856C81.2596 32.4847 81.3565 32.0002 81.5557 31.5399C81.7508 31.0893 82.0306 30.6901 82.377 30.3364C82.7235 29.9966 83.1275 29.7313 83.5751 29.5436C84.0378 29.3504 84.5218 29.2541 85.0233 29.2541C85.5248 29.2541 86.0141 29.3504 86.4769 29.5436C86.9239 29.7307 87.3285 29.9954 87.6713 30.3382C88.0195 30.6871 88.2957 31.0874 88.4871 31.5429C88.6803 32.0026 88.7767 32.4866 88.7767 32.9856C88.7767 33.4853 88.6803 33.9687 88.4871 34.4284C88.2951 34.8844 88.0202 35.2836 87.6713 35.6337C87.3273 35.9771 86.9257 36.2454 86.4769 36.4332C86.0141 36.6264 85.5248 36.7227 85.0233 36.7227ZM96.5166 40.4694C97.023 40.4694 97.4482 40.2956 97.8067 39.9394C97.9751 39.7729 98.1047 39.5827 98.1968 39.3707C98.2925 39.1351 98.3367 38.888 98.3367 38.6342V33.4732C98.3476 32.9299 98.4608 32.4084 98.6753 31.9094C98.8872 31.4169 99.1889 30.976 99.565 30.5944C99.9351 30.2183 100.365 29.9161 100.848 29.7029C101.341 29.4854 101.859 29.3734 102.403 29.3625H102.501C102.759 29.3625 103.016 29.317 103.256 29.2226C103.49 29.1305 103.704 29.0015 103.882 28.8331C104.252 28.463 104.445 28.0239 104.445 27.5C104.445 26.9864 104.304 26.5237 103.937 26.1566C103.552 25.7714 103.031 25.6485 102.501 25.6485H102.376C101.354 25.669 100.368 25.8756 99.4293 26.2783C98.5093 26.6732 97.6892 27.2226 96.9751 27.9234C96.2513 28.6332 95.6862 29.4588 95.2719 30.383C94.8552 31.3134 94.6372 32.294 94.6057 33.3054V38.6342C94.6057 38.8819 94.6523 39.1187 94.7565 39.3441C94.8601 39.5682 95.0073 39.7656 95.1829 39.9388C95.3567 40.1102 95.5596 40.2386 95.7819 40.3289C96.0194 40.4209 96.2616 40.4694 96.5166 40.4694ZM112.505 36.7227C112.009 36.7227 111.526 36.6246 111.068 36.4332C110.617 36.2448 110.214 35.9789 109.869 35.6337C109.52 35.2848 109.247 34.8832 109.049 34.4326C108.847 33.9735 108.752 33.4871 108.752 32.9856C108.752 32.4841 108.846 31.9984 109.049 31.5387C109.247 31.0881 109.521 30.6865 109.869 30.3382C110.213 29.9942 110.619 29.7313 111.068 29.5436C111.526 29.3522 112.009 29.2541 112.505 29.2541C113.009 29.2541 113.496 29.3522 113.962 29.543C114.415 29.7289 114.822 29.9918 115.169 30.3382C115.516 30.6865 115.789 31.0893 115.979 31.5423C116.173 32.0026 116.27 32.4866 116.27 32.9856C116.27 33.4853 116.173 33.9686 115.979 34.429C115.788 34.8832 115.517 35.2854 115.169 35.6337C114.821 35.9807 114.417 36.2472 113.962 36.4332C113.496 36.6246 113.009 36.7227 112.505 36.7227Z" fill="#033E8A"/>
<mask id="mask1_688_20505" style="mask-type:alpha" maskUnits="userSpaceOnUse" x="20" y="20" width="28" height="21">
<path d="M21.8631 40.4695H40.1582C41.1697 40.4695 42.1557 40.2981 43.097 39.9293C43.9958 39.5761 44.8001 39.0613 45.4973 38.3933C46.2162 37.704 46.7565 36.8845 47.1356 35.9633C47.5469 34.9627 47.7231 33.9076 47.7231 32.8289V27.6243C47.7231 26.548 47.5475 25.4881 47.1356 24.4905C46.7547 23.5674 46.2162 22.7468 45.4967 22.0545C44.8019 21.3858 43.9982 20.8764 43.0982 20.5312C42.1551 20.1696 41.1667 20 40.1582 20H31.2935C31.0452 20 30.7974 20.0485 30.5709 20.1375C30.3504 20.2314 30.1463 20.3604 29.9767 20.53C29.8053 20.7008 29.6697 20.9 29.5728 21.1211C29.4746 21.347 29.4304 21.5893 29.4304 21.8352V29.0507C29.4304 30.0767 30.2699 30.9161 31.2959 30.9161C32.3219 30.9161 33.1614 30.0773 33.1614 29.0507V23.7467H40.1582C41.1176 23.7467 42.0619 23.9678 42.7947 24.6147C43.6633 25.3802 43.9607 26.4638 43.9607 27.5922V32.8616C43.9607 33.99 43.659 35.0632 42.7959 35.8324C42.057 36.4914 41.1352 36.7391 40.1582 36.7391H33.6629L24.2543 27.3305L23.4917 28.0931L30.7956 35.397L21.8503 30.2323L21.3113 31.1663L30.2566 36.3309L20.2792 33.6575L20 34.6992L27.6128 36.7391H20V38.6343C20 38.8814 20.046 39.1225 20.1411 39.3454C20.2417 39.5671 20.3767 39.7681 20.5475 39.9414C20.7153 40.1116 20.9206 40.2388 21.135 40.3296C21.367 40.4217 21.6129 40.4695 21.8631 40.4695Z" fill="white"/>
</mask>
<g mask="url(#mask1_688_20505)">
<path fill-rule="evenodd" clip-rule="evenodd" d="M21.8631 40.4695H40.1582C41.1697 40.4695 42.1557 40.2981 43.097 39.9293C43.9958 39.5761 44.8001 39.0613 45.4973 38.3933C46.2162 37.704 46.7565 36.8845 47.1356 35.9633C47.5469 34.9627 47.7231 33.9076 47.7231 32.8289V27.6243C47.7231 26.548 47.5475 25.4881 47.1356 24.4905C46.7547 23.5674 46.2162 22.7468 45.4967 22.0545C44.8019 21.3858 43.9982 20.8764 43.0982 20.5312C42.1551 20.1696 41.1667 20 40.1582 20H31.2935C31.0452 20 30.7974 20.0485 30.5709 20.1375C30.3504 20.2314 30.1463 20.3604 29.9767 20.53C29.8053 20.7008 29.6697 20.9 29.5728 21.1211C29.4746 21.347 29.4304 21.5893 29.4304 21.8352V29.0507C29.4304 30.0767 30.2699 30.9161 31.2959 30.9161C32.3219 30.9161 33.1614 30.0773 33.1614 29.0507V23.7467H40.1582C41.1176 23.7467 42.0619 23.9678 42.7947 24.6147C43.6633 25.3802 43.9607 26.4638 43.9607 27.5922V32.8616C43.9607 33.99 43.659 35.0632 42.7959 35.8324C42.057 36.4914 41.1352 36.7391 40.1582 36.7391H33.6629L24.2543 27.3305L23.4917 28.0931L30.7956 35.397L21.8503 30.2323L21.3113 31.1663L30.2566 36.3309L20.2792 33.6575L20 34.6992L27.6128 36.7391H20V38.6343C20 38.8814 20.046 39.1225 20.1411 39.3454C20.2417 39.5671 20.3767 39.7681 20.5475 39.9414C20.7153 40.1116 20.9206 40.2388 21.135 40.3296C21.367 40.4217 21.6129 40.4695 21.8631 40.4695Z" fill="url(#paint1_linear_688_20505)"/>
</g>
<rect x="0.5" y="0.5" width="139" height="187.47" rx="4.5" stroke="#7B61FF" stroke-dasharray="10 5"/>
<defs>
<linearGradient id="paint0_linear_688_20505" x1="43.0965" y1="163.52" x2="33.3887" y2="150.666" gradientUnits="userSpaceOnUse">
<stop stop-color="#2190EB"/>
<stop offset="1" stop-color="#16D2DF"/>
</linearGradient>
<linearGradient id="paint1_linear_688_20505" x1="43.097" y1="35.5199" x2="33.3884" y2="22.6661" gradientUnits="userSpaceOnUse">
<stop stop-color="#2190EB"/>
<stop offset="1" stop-color="#16D2DF"/>
</linearGradient>
</defs>
</svg>
