<svg width="30" height="30" viewBox="0 0 30 30" fill="none" xmlns="http://www.w3.org/2000/svg">
<path d="M17.6944 8.37935L5.25 20.8237L9.2634 24.8371L21.7078 12.3927L17.6944 8.37935Z" fill="url(#paint0_linear_2294_16734)"/>
<path d="M3.21973 26.8674L7.65495 25.6387L4.44836 22.4321L3.21973 26.8674Z" fill="url(#paint1_linear_2294_16734)"/>
<path d="M22.8175 6.27007C22.4176 5.87106 21.8758 5.64697 21.3109 5.64697C20.746 5.64697 20.2042 5.87106 19.8043 6.27007L18.9004 7.17399L22.9138 11.1874L23.8177 10.2835C24.2167 9.88361 24.4408 9.34179 24.4408 8.7769C24.4408 8.21202 24.2167 7.6702 23.8177 7.2703L22.8175 6.27007Z" fill="url(#paint2_linear_2294_16734)"/>
<defs>
<linearGradient id="paint0_linear_2294_16734" x1="11.4722" y1="14.6015" x2="15.4856" y2="18.6149" gradientUnits="userSpaceOnUse">
<stop stop-color="#FFAA1D"/>
<stop offset="0.9999" stop-color="#E7BF35" stop-opacity="0.751085"/>
<stop offset="1" stop-color="#E0C53C" stop-opacity="0.677083"/>
</linearGradient>
<linearGradient id="paint1_linear_2294_16734" x1="5.43734" y1="22.4321" x2="5.43734" y2="26.8674" gradientUnits="userSpaceOnUse">
<stop stop-color="#FFAA1D"/>
<stop offset="0.9999" stop-color="#E7BF35" stop-opacity="0.751085"/>
<stop offset="1" stop-color="#E0C53C" stop-opacity="0.677083"/>
</linearGradient>
<linearGradient id="paint2_linear_2294_16734" x1="21.6706" y1="5.64697" x2="21.6706" y2="11.1874" gradientUnits="userSpaceOnUse">
<stop stop-color="#FFAA1D"/>
<stop offset="0.9999" stop-color="#E7BF35" stop-opacity="0.751085"/>
<stop offset="1" stop-color="#E0C53C" stop-opacity="0.677083"/>
</linearGradient>
</defs>
</svg>
