<svg width="50" height="50" viewBox="0 0 50 50" fill="none" xmlns="http://www.w3.org/2000/svg">
<mask id="mask0_666_13091" style="mask-type:alpha" maskUnits="userSpaceOnUse" x="0" y="0" width="50" height="50">
<path d="M25 49.3422C38.8071 49.3422 50 38.4438 50 25.0001C50 11.5563 38.8071 0.657959 25 0.657959C11.1929 0.657959 0 11.5563 0 25.0001C0 38.4438 11.1929 49.3422 25 49.3422Z" fill="white"/>
</mask>
<g mask="url(#mask0_666_13091)">
<path d="M25 49.3422C38.8071 49.3422 50 38.4438 50 25.0001C50 11.5563 38.8071 0.657959 25 0.657959C11.1929 0.657959 0 11.5563 0 25.0001C0 38.4438 11.1929 49.3422 25 49.3422Z" fill="url(#paint0_linear_666_13091)"/>
<path fill-rule="evenodd" clip-rule="evenodd" d="M24.4851 10.5264C29.1642 10.5264 33.0635 13.0157 33.0635 17.7454C33.0635 20.4837 32.2837 22.7241 32.2837 22.7241C32.2837 22.7241 33.0635 22.973 33.0635 23.9688C33.0635 24.9645 32.8036 25.9602 32.2837 26.956C31.7638 27.9517 31.2439 27.9517 30.724 28.4496C30.4093 28.7508 30.464 30.7661 30.464 31.4367C30.464 32.4325 29.1642 33.4282 29.1642 34.175C29.1642 34.9218 28.9043 36.6643 29.6842 37.4111C30.464 38.1579 32.0237 39.1537 35.4031 39.9005C38.5411 40.5939 40.2811 42.1808 40.5137 42.4039L40.5405 42.4302L40.3502 47.2072C41.3289 48.7908 41.8919 50.6465 41.8919 52.6315V55.2634C41.8919 61.0768 37.0434 65.7895 31.0875 65.7895H17.5612C11.5941 65.7895 6.75676 61.082 6.75676 55.2634V52.6315C6.75676 50.7141 7.28417 48.9165 8.20477 47.3682L8.10811 47.3685V43.3855L8.8357 41.8217L8.95511 41.7642C9.34277 41.5784 10.6218 40.9715 12.0148 40.3789L12.5762 40.1437C13.6098 39.7176 14.6488 39.3303 15.3868 39.1537C17.4664 38.6558 18.2463 37.6601 18.7662 37.1622C19.2861 36.6643 19.2861 35.4197 19.2861 34.175C19.2861 32.9303 17.9863 32.1835 17.9863 31.1878C17.9863 30.1921 18.2463 28.4496 17.4664 28.2006C16.6865 27.9517 16.4266 27.4538 16.1666 26.707C15.9067 25.9602 15.3868 25.2134 15.3868 23.9688C15.3868 22.7241 16.1666 22.7241 16.1666 22.7241C16.1666 22.7241 15.6467 19.9858 15.6467 17.2476C15.6467 14.5093 17.9863 13.2646 17.9863 13.2646C17.9863 13.2646 20.8458 10.5264 24.4851 10.5264Z" fill="white"/>
</g>
<defs>
<linearGradient id="paint0_linear_666_13091" x1="25" y1="0.657959" x2="25" y2="49.3422" gradientUnits="userSpaceOnUse">
<stop stop-color="#A5ABB8"/>
<stop offset="1" stop-color="#858A94"/>
</linearGradient>
</defs>
</svg>
