<svg width="58" height="58" viewBox="0 0 58 58" fill="none" xmlns="http://www.w3.org/2000/svg">
<g filter="url(#filter0_d_6816_1074)">
<circle cx="29" cy="25" r="25" fill="#C4C4C4"/>
<path d="M20.6656 20.1126C20.6813 20.387 20.7063 20.6605 20.7438 20.9319C21.3688 25.3493 25.5209 29.0686 30.298 28.9494C34.473 28.8445 38.4022 25.7029 39.2657 21.5435C40.1188 17.4335 37.8053 12.8897 33.8188 11.1688C32.6365 10.6579 31.348 10.3999 30.0521 10.3958C30.0521 10.3958 29.274 10.2673 29.0719 9.71419C28.8688 9.15701 29.2563 8.45488 29.8771 8.34899C29.9782 8.33151 30.0157 8.33357 30.1292 8.33357C34.4573 8.37469 38.598 10.9817 40.4428 14.8193C42.5115 19.1246 41.4938 24.6954 37.8313 28.0211C34.9313 30.6538 30.6063 31.6777 26.7657 30.5387C22.2333 29.1961 18.7854 24.9514 18.574 20.091L18.2583 20.4025C18.2583 20.4025 17.9271 20.7088 17.5094 20.7047C16.726 20.6975 16.1458 19.6222 16.7521 18.9745C16.7615 18.9643 16.7708 18.955 16.7812 18.9447L18.8698 16.8836C18.9604 16.7972 18.9802 16.7869 19.0281 16.7551C19.1531 16.6728 19.2969 16.6173 19.4448 16.5937C19.5125 16.5834 19.5813 16.5803 19.65 16.5824C19.876 16.5947 20.0583 16.6451 20.2531 16.8003C20.2792 16.8219 20.3052 16.8435 20.3302 16.8671C20.3354 16.8723 20.3417 16.8774 20.3469 16.8836L22.4365 18.9447C22.9958 19.5194 22.6083 20.6615 21.75 20.7037C21.4594 20.7181 21.1677 20.5998 20.9594 20.4025L20.6656 20.1126V20.1126ZM30.1209 12.459C30.3219 12.4785 30.3542 12.496 30.4396 12.5299C30.7855 12.6646 31.0448 12.9915 31.0917 13.3595C31.099 13.4161 31.098 13.4305 31.1 13.488V19.247L35.2261 23.3189C35.2261 23.3189 35.8094 24.2719 35.1782 24.8209C34.8178 25.1344 34.2313 25.157 33.8469 24.862C33.8011 24.827 33.7907 24.8157 33.748 24.7767L29.3167 20.4025C29.1271 20.2051 29.0188 19.947 29.0105 19.6736V13.488C29.0167 13.2896 29.0334 13.2567 29.0615 13.1693C29.1834 12.8003 29.5313 12.5145 29.924 12.4652C30.05 12.4497 30.0802 12.458 30.1209 12.459Z" fill="white"/>
<path d="M15.97 41.5V34.3H16.57V37.04C16.81 36.7867 17.0567 36.58 17.31 36.42C17.57 36.26 17.88 36.18 18.24 36.18C18.56 36.18 18.8567 36.2367 19.13 36.35C19.4033 36.4567 19.6333 36.6467 19.82 36.92C19.9467 37.1067 20.02 37.3 20.04 37.5C20.0667 37.6933 20.08 37.8967 20.08 38.11V41.5H19.48V38.12C19.48 37.6533 19.3767 37.3033 19.17 37.07C18.9633 36.8367 18.62 36.72 18.14 36.72C17.9533 36.72 17.7833 36.75 17.63 36.81C17.4767 36.8633 17.3367 36.9367 17.21 37.03C17.09 37.1233 16.9867 37.23 16.9 37.35C16.8133 37.47 16.7467 37.5967 16.7 37.73C16.64 37.8967 16.6033 38.0567 16.59 38.21C16.5767 38.3633 16.57 38.53 16.57 38.71V41.5H15.97ZM21.2909 41.5V36.32H21.8909V41.5H21.2909ZM21.2609 35.19V34.3H21.9209V35.19H21.2609ZM23.6177 39.88C23.711 40.3267 23.8777 40.6433 24.1177 40.83C24.3643 41.01 24.7143 41.1 25.1677 41.1C25.3877 41.1 25.5777 41.0733 25.7377 41.02C25.8977 40.9667 26.0277 40.8967 26.1277 40.81C26.2343 40.7167 26.3143 40.6133 26.3677 40.5C26.421 40.3867 26.4477 40.2667 26.4477 40.14C26.4477 39.8867 26.3643 39.7 26.1977 39.58C26.0377 39.4533 25.8343 39.3567 25.5877 39.29C25.341 39.2167 25.0743 39.1567 24.7877 39.11C24.501 39.0567 24.2343 38.98 23.9877 38.88C23.741 38.78 23.5343 38.6367 23.3677 38.45C23.2077 38.2633 23.1277 38 23.1277 37.66C23.1277 37.2267 23.2843 36.8733 23.5977 36.6C23.9177 36.32 24.3677 36.18 24.9477 36.18C25.5077 36.18 25.961 36.3067 26.3077 36.56C26.661 36.8067 26.8743 37.2233 26.9477 37.81H26.3377C26.2843 37.41 26.131 37.13 25.8777 36.97C25.631 36.8033 25.3177 36.72 24.9377 36.72C24.5577 36.72 24.2677 36.8033 24.0677 36.97C23.8677 37.13 23.7677 37.3433 23.7677 37.61C23.7677 37.8433 23.8477 38.0233 24.0077 38.15C24.1743 38.27 24.381 38.37 24.6277 38.45C24.8743 38.5233 25.141 38.59 25.4277 38.65C25.7143 38.71 25.981 38.7967 26.2277 38.91C26.4743 39.0167 26.6777 39.1633 26.8377 39.35C27.0043 39.5367 27.0877 39.7967 27.0877 40.13C27.0877 40.3767 27.0343 40.5967 26.9277 40.79C26.821 40.9767 26.6743 41.1333 26.4877 41.26C26.301 41.3867 26.0777 41.48 25.8177 41.54C25.5643 41.6067 25.2843 41.64 24.9777 41.64C24.671 41.64 24.3977 41.5933 24.1577 41.5C23.9243 41.4133 23.7243 41.29 23.5577 41.13C23.391 40.97 23.261 40.7833 23.1677 40.57C23.0743 40.3567 23.021 40.1267 23.0077 39.88H23.6177ZM29.9377 41.52C29.8643 41.5333 29.7677 41.5567 29.6477 41.59C29.5277 41.6233 29.3943 41.64 29.2477 41.64C28.9477 41.64 28.7177 41.5667 28.5577 41.42C28.4043 41.2667 28.3277 40.9967 28.3277 40.61V36.82H27.5977V36.32H28.3277V34.88H28.9277V36.32H29.8977V36.82H28.9277V40.37C28.9277 40.4967 28.931 40.6067 28.9377 40.7C28.9443 40.7933 28.9643 40.87 28.9977 40.93C29.031 40.99 29.081 41.0333 29.1477 41.06C29.221 41.0867 29.321 41.1 29.4477 41.1C29.5277 41.1 29.6077 41.0933 29.6877 41.08C29.7743 41.0667 29.8577 41.05 29.9377 41.03V41.52ZM32.8109 41.64C32.4775 41.6333 32.1642 41.5733 31.8709 41.46C31.5842 41.3467 31.3309 41.1767 31.1109 40.95C30.8975 40.7233 30.7275 40.44 30.6009 40.1C30.4742 39.76 30.4109 39.3633 30.4109 38.91C30.4109 38.53 30.4609 38.1767 30.5609 37.85C30.6609 37.5167 30.8109 37.2267 31.0109 36.98C31.2109 36.7333 31.4609 36.54 31.7609 36.4C32.0609 36.2533 32.4109 36.18 32.8109 36.18C33.2175 36.18 33.5709 36.2533 33.8709 36.4C34.1709 36.54 34.4209 36.7333 34.6209 36.98C34.8209 37.22 34.9675 37.5067 35.0609 37.84C35.1609 38.1733 35.2109 38.53 35.2109 38.91C35.2109 39.3233 35.1542 39.6967 35.0409 40.03C34.9275 40.3633 34.7642 40.65 34.5509 40.89C34.3442 41.13 34.0909 41.3167 33.7909 41.45C33.4975 41.5767 33.1709 41.64 32.8109 41.64ZM34.5709 38.91C34.5709 38.6033 34.5375 38.3167 34.4709 38.05C34.4042 37.7833 34.3009 37.5533 34.1609 37.36C34.0209 37.16 33.8409 37.0033 33.6209 36.89C33.4009 36.7767 33.1309 36.72 32.8109 36.72C32.4975 36.72 32.2275 36.7833 32.0009 36.91C31.7809 37.03 31.6009 37.1933 31.4609 37.4C31.3209 37.6 31.2175 37.8333 31.1509 38.1C31.0842 38.36 31.0509 38.63 31.0509 38.91C31.0509 39.23 31.0875 39.5267 31.1609 39.8C31.2409 40.0667 31.3542 40.2967 31.5009 40.49C31.6475 40.6833 31.8309 40.8333 32.0509 40.94C32.2709 41.0467 32.5242 41.1 32.8109 41.1C33.1242 41.1 33.3909 41.04 33.6109 40.92C33.8375 40.7933 34.0209 40.6267 34.1609 40.42C34.3009 40.2133 34.4042 39.98 34.4709 39.72C34.5375 39.46 34.5709 39.19 34.5709 38.91ZM36.7875 41.5H36.1875V36.32H36.7875V37.29H36.8075C36.9742 36.8767 37.1875 36.59 37.4475 36.43C37.7142 36.2633 38.0642 36.18 38.4975 36.18V36.83C38.1575 36.8233 37.8775 36.8767 37.6575 36.99C37.4375 37.1033 37.2608 37.2567 37.1275 37.45C37.0008 37.6433 36.9108 37.8733 36.8575 38.14C36.8108 38.4 36.7875 38.6733 36.7875 38.96V41.5ZM39.4734 42.91C39.5534 42.9233 39.6334 42.9367 39.7134 42.95C39.8 42.9633 39.8867 42.97 39.9734 42.97C40.14 42.97 40.2767 42.9167 40.3834 42.81C40.49 42.7033 40.5767 42.5733 40.6434 42.42C40.7167 42.2733 40.7767 42.1167 40.8234 41.95C40.87 41.79 40.9234 41.6533 40.9834 41.54L38.9734 36.32H39.6434L41.3034 40.77L42.9634 36.32H43.6134L41.6834 41.43C41.5634 41.7567 41.4467 42.05 41.3334 42.31C41.2267 42.57 41.11 42.79 40.9834 42.97C40.8634 43.1567 40.7267 43.2967 40.5734 43.39C40.4267 43.49 40.25 43.54 40.0434 43.54C39.9367 43.54 39.8334 43.5333 39.7334 43.52C39.64 43.5067 39.5534 43.49 39.4734 43.47V42.91Z" fill="white"/>
</g>
<defs>
<filter id="filter0_d_6816_1074" x="0" y="0" width="58" height="58" filterUnits="userSpaceOnUse" color-interpolation-filters="sRGB">
<feFlood flood-opacity="0" result="BackgroundImageFix"/>
<feColorMatrix in="SourceAlpha" type="matrix" values="0 0 0 0 0 0 0 0 0 0 0 0 0 0 0 0 0 0 127 0" result="hardAlpha"/>
<feOffset dy="4"/>
<feGaussianBlur stdDeviation="2"/>
<feComposite in2="hardAlpha" operator="out"/>
<feColorMatrix type="matrix" values="0 0 0 0 0 0 0 0 0 0 0 0 0 0 0 0 0 0 0.25 0"/>
<feBlend mode="normal" in2="BackgroundImageFix" result="effect1_dropShadow_6816_1074"/>
<feBlend mode="normal" in="SourceGraphic" in2="effect1_dropShadow_6816_1074" result="shape"/>
</filter>
</defs>
</svg>
