<svg width="218" height="86" viewBox="0 0 218 86" fill="none" xmlns="http://www.w3.org/2000/svg">
<g filter="url(#filter0_d_694_47009)">
<path d="M88 44C88 43.4477 88.4477 43 89 43H124C124.552 43 125 43.4477 125 44V69.7053C125 70.2576 124.552 70.7053 124 70.7053H89C88.4477 70.7053 88 70.2576 88 69.7053V44Z" fill="white"/>
</g>
<rect x="89.9663" y="46.0387" width="10.9034" height="10.9034" fill="#7BC3F4"/>
<circle cx="117.94" cy="51.4904" r="5.45169" fill="#D4EEFF"/>
<path fill-rule="evenodd" clip-rule="evenodd" d="M106.594 55.0599C106.594 55.7573 107.509 56.0169 107.875 55.4236L109.472 52.8376C109.671 52.5155 109.671 52.1087 109.472 51.7867L107.875 49.2007C107.509 48.6074 106.594 48.8671 106.594 49.5645C106.594 49.9468 106.284 50.2567 105.902 50.2567H104.551C103.998 50.2567 103.551 50.7044 103.551 51.2567V53.3678C103.551 53.9201 103.998 54.3678 104.551 54.3678H105.902C106.284 54.3678 106.594 54.6777 106.594 55.0599Z" fill="#A1E0E9"/>
<rect x="90.6814" y="62.3045" width="32.7101" height="1.25121" fill="#C4C4C4"/>
<rect x="90.6814" y="64.8067" width="32.7101" height="1.25121" fill="#C4C4C4"/>
<rect x="90.6814" y="67.3094" width="32.7101" height="1.25121" fill="#C4C4C4"/>
<g filter="url(#filter1_d_694_47009)">
<path d="M134 44C134 43.4477 134.448 43 135 43H170C170.552 43 171 43.4477 171 44V69.7053C171 70.2576 170.552 70.7053 170 70.7053H135C134.448 70.7053 134 70.2576 134 69.7053V44Z" fill="white"/>
</g>
<rect x="135.966" y="46.0387" width="10.9034" height="10.9034" fill="#7BC3F4"/>
<circle cx="163.94" cy="51.4904" r="5.45169" fill="#D4EEFF"/>
<path fill-rule="evenodd" clip-rule="evenodd" d="M152.594 55.0599C152.594 55.7573 153.509 56.0169 153.875 55.4236L155.472 52.8376C155.671 52.5155 155.671 52.1087 155.472 51.7867L153.875 49.2007C153.509 48.6074 152.594 48.8671 152.594 49.5645C152.594 49.9468 152.284 50.2567 151.902 50.2567H150.551C149.998 50.2567 149.551 50.7044 149.551 51.2567V53.3678C149.551 53.9201 149.998 54.3678 150.551 54.3678H151.902C152.284 54.3678 152.594 54.6777 152.594 55.0599Z" fill="#A1E0E9"/>
<rect x="136.681" y="62.3045" width="32.7101" height="1.25121" fill="#C4C4C4"/>
<rect x="136.681" y="64.8067" width="32.7101" height="1.25121" fill="#C4C4C4"/>
<rect x="136.681" y="67.3094" width="32.7101" height="1.25121" fill="#C4C4C4"/>
<g filter="url(#filter2_d_694_47009)">
<path d="M180 44C180 43.4477 180.448 43 181 43H216C216.552 43 217 43.4477 217 44V69.7053C217 70.2576 216.552 70.7053 216 70.7053H181C180.448 70.7053 180 70.2576 180 69.7053V44Z" fill="white"/>
</g>
<rect x="181.966" y="46.0387" width="10.9034" height="10.9034" fill="#7BC3F4"/>
<circle cx="209.94" cy="51.4904" r="5.45169" fill="#D4EEFF"/>
<path fill-rule="evenodd" clip-rule="evenodd" d="M198.594 55.0599C198.594 55.7573 199.509 56.0169 199.875 55.4236L201.472 52.8376C201.671 52.5155 201.671 52.1087 201.472 51.7867L199.875 49.2007C199.509 48.6074 198.594 48.8671 198.594 49.5645C198.594 49.9468 198.284 50.2567 197.902 50.2567H196.551C195.998 50.2567 195.551 50.7044 195.551 51.2567V53.3678C195.551 53.9201 195.998 54.3678 196.551 54.3678H197.902C198.284 54.3678 198.594 54.6777 198.594 55.0599Z" fill="#A1E0E9"/>
<rect x="182.681" y="62.3045" width="32.7101" height="1.25121" fill="#C4C4C4"/>
<rect x="182.681" y="64.8067" width="32.7101" height="1.25121" fill="#C4C4C4"/>
<rect x="182.681" y="67.3094" width="32.7101" height="1.25121" fill="#C4C4C4"/>
<path d="M165.858 51C165.71 50.9996 165.566 50.9623 165.438 50.8917C165.305 50.8193 165.195 50.7141 165.118 50.5867C165.041 50.4593 165.001 50.3143 165 50.1667V37.9417C164.989 37.4419 165.18 36.9579 165.533 36.5944C165.886 36.231 166.372 36.0174 166.886 36H175.114C175.628 36.0174 176.114 36.231 176.467 36.5944C176.82 36.9579 177.011 37.4419 177 37.9417V50.1667C176.999 50.3121 176.959 50.4548 176.883 50.5805C176.808 50.7062 176.701 50.8106 176.571 50.8833C176.441 50.9565 176.293 50.995 176.142 50.995C175.992 50.995 175.844 50.9565 175.714 50.8833L170.854 48.2083L166.286 50.875C166.157 50.9528 166.009 50.996 165.858 51Z" fill="#DE4040"/>
<path d="M41.215 67.5949C40.682 67.2852 39.9439 67.3288 39.1292 67.7993L34.2052 70.6421L36.7389 72.1146L41.663 69.2717C42.4778 68.8014 43.2159 68.7577 43.7488 69.0675L41.215 67.5949ZM26.9286 65.4322L24.3951 63.9597L24.43 76.2858L19.5059 79.1287C17.887 80.0634 16.5799 82.3281 16.5852 84.1875L19.1189 85.6599C19.1137 83.8005 20.4207 81.5357 22.0396 80.6011L26.9637 77.7583L26.9286 65.4322Z" fill="#AEB2D4"/>
<path d="M41.6629 69.2715L36.7388 72.1143L36.7039 59.7881L26.9287 65.4319L26.9636 77.7582L22.0396 80.601C20.4207 81.5356 19.1136 83.8004 19.1189 85.6598L44.6033 70.9464C44.598 69.0871 43.2816 68.3369 41.6629 69.2715Z" fill="#C8CBE3"/>
<path d="M59.5563 41.902C59.5579 42.4733 59.1568 43.1665 58.6625 43.4522L57.0947 44.3573L52.9996 46.7211L50.9424 47.9102L50.5283 48.1494L46.4332 50.5132L44.3615 51.7102L43.9603 51.9413L39.8651 54.3051L37.7775 55.5102L37.3923 55.7332L33.2971 58.097L31.1949 59.3118L30.8258 59.5236L26.7307 61.889L24.6141 63.1117L24.2578 63.3171L20.1627 65.6809L18.03 66.9117L4.60973 74.6608C4.11383 74.9464 3.71105 74.7154 3.70943 74.1441L3.66603 58.6186L3.62424 43.913L3.62263 43.1203L3.6194 42.1061L3.6065 37.791L3.60328 36.5329C3.60166 35.9617 4.00122 35.2684 4.49711 34.9812L5.6043 34.3425L6.30078 33.9397L9.03201 32.3639L9.05767 32.3479L9.71237 31.9708L12.1868 30.541L12.8849 30.1382L15.6146 28.5624L15.6242 28.5576L16.2951 28.1692L18.7695 26.741L19.4676 26.3382L22.1924 24.7656L22.1956 24.7624L22.8776 24.3693L25.3521 22.9412L26.0502 22.5384L28.759 20.9737L28.7782 20.9624L29.4602 20.5693L31.933 19.1412L31.9346 19.1395L32.6327 18.7368L35.327 17.1818L35.3607 17.1626L36.0427 16.7694L38.5172 15.3397L39.2153 14.9369L41.9433 13.3627L42.6253 12.968L58.5487 3.77458C59.0446 3.48895 59.4474 3.72003 59.449 4.28968L59.5563 41.902Z" fill="white"/>
<path d="M60.851 2.06981C60.8496 1.53535 60.471 1.31893 60.0044 1.58829L3.37465 34.2835C2.90867 34.5525 2.53199 35.205 2.53345 35.7395L2.65457 78.4752C2.65603 79.0106 3.03521 79.2267 3.50119 78.9576L26.9285 65.432L36.7037 59.7883L60.1308 46.2626C60.5974 45.9933 60.9735 45.3411 60.972 44.8057L60.851 2.06981ZM58.6617 43.4531L4.60955 74.6601C4.1138 74.9464 3.71087 74.7157 3.70926 74.1444L3.60266 36.5329C3.60105 35.9623 4.00134 35.2679 4.49709 34.9817L58.5491 3.77465C59.0441 3.48887 59.4471 3.71937 59.4487 4.29005L59.5553 41.9016C59.557 42.4729 59.1567 43.1673 58.6617 43.4531Z" fill="#7477A3"/>
<path d="M58.0715 0.056913C57.9181 -0.0322366 57.7057 -0.0196265 57.4708 0.115857L0.841206 32.811C0.375224 33.0801 -0.00146201 33.7326 4.26619e-06 34.267L0.121117 77.0028C0.12185 77.2688 0.215841 77.456 0.367307 77.544L2.90088 79.0164C2.74941 78.9285 2.65543 78.7412 2.6547 78.4752L2.53358 35.7395C2.53211 35.205 2.9088 34.5525 3.37478 34.2834L60.0045 1.58829C60.2394 1.45266 60.4518 1.4402 60.6052 1.52935L58.0715 0.056913Z" fill="#57598A"/>
<path d="M57.1608 21.3606L57.1478 25.9453L57.1353 30.2606L57.1329 31.2747L57.1307 32.0672L57.0888 46.7143L52.9937 49.0942L53.0354 34.4225L53.0378 33.63L53.0401 32.615L53.0526 28.3005L53.0656 23.7398L57.1608 21.3606Z" fill="#E6A22E"/>
<path d="M57.1604 21.3603L53.0651 23.7401L38.5168 15.3395L39.2149 14.9367L41.9429 13.3625L42.6249 12.9678L57.1604 21.3603Z" fill="#FFCB70"/>
<path d="M55.6152 21.3617L53.0652 22.8446L39.2151 14.9365L41.9431 13.3623L55.6152 21.3617Z" fill="white"/>
<path d="M53.0652 23.7399L53.0524 28.3006V28.3342L53.0395 32.6156V32.635L53.0381 33.6298V33.6474L53.0348 34.4225V34.437L52.9995 46.721L52.993 49.0943L50.9422 47.9102L50.5298 47.6726L46.4474 45.3153L43.9842 43.8919L40.3384 41.7882L39.9018 41.5363L39.8746 41.5201L37.437 40.1128L35.2642 38.858V38.5867L35.2674 37.7587V37.5759L35.269 37.3062L35.2787 34.0534L35.2803 33.2751V33.1564L35.2819 32.4199L35.2851 31.7892V31.5325L35.2867 30.9998L35.29 29.9888L35.293 28.6809L35.2963 27.8175L35.3011 25.6866L35.3043 24.7814L35.306 24.2005L35.3076 23.9438L35.3092 23.4111L35.3108 22.4001L35.314 21.0923V21.0907L35.3172 20.2706L35.3235 18.0995L35.3268 17.1816V17.1414L35.3605 17.1622L36.0425 16.7691L38.5169 15.3394L53.0652 23.7399Z" fill="#FFBC47"/>
<path d="M53.0526 28.3345L53.0402 32.6349L35.3113 22.4001L35.3237 18.0989L53.0526 28.3345Z" fill="#FFDC9E"/>
<path d="M53.0377 33.6469L53.0354 34.4364L35.3066 24.2007L35.3088 23.4111L53.0377 33.6469Z" fill="#FFDC9E"/>
<path d="M57.1478 25.9453L57.1353 30.2606L53.0401 32.615L53.006 32.6351L52.9937 28.3346L53.0526 28.3004L57.1478 25.9453Z" fill="#EBC27A"/>
<path d="M57.1329 31.2747L57.1307 32.0672L53.0354 34.4225L53.0106 34.4364L53.0083 33.6469L53.0378 33.6299L57.1329 31.2747Z" fill="#EBC27A"/>
<path d="M48.7297 37.9306L38.9587 32.2894C38.8937 32.2518 38.8412 32.1609 38.8415 32.0863L38.842 31.9042C38.8423 31.8295 38.895 31.7995 38.96 31.8369L48.731 37.4781C48.7959 37.5156 48.8484 37.6064 48.8481 37.6812L48.8477 37.8633C48.8474 37.938 48.7946 37.9681 48.7297 37.9306ZM38.9472 36.347L48.7182 41.9882C48.7832 42.0257 48.8357 42.1165 48.8354 42.1913L48.8349 42.3734C48.8346 42.448 48.7818 42.4782 48.7169 42.4405L38.9459 36.7993C38.881 36.7618 38.8285 36.6709 38.8286 36.5963L38.8292 36.4141C38.8294 36.3395 38.8823 36.3095 38.9472 36.347ZM48.7236 40.0369L43.3575 36.9386C43.2926 36.9011 43.2401 36.8102 43.2404 36.7356L43.2408 36.5534C43.2411 36.4788 43.2937 36.4486 43.3588 36.4861L48.725 39.5844C48.7899 39.6219 48.8424 39.7128 48.8423 39.7875L48.8418 39.9696C48.8415 40.0444 48.7886 40.0744 48.7236 40.0369ZM38.9386 33.9342L41.2905 35.292C41.3549 35.3292 41.4074 35.42 41.4071 35.4946L41.4065 35.6768C41.4062 35.7514 41.3536 35.7816 41.289 35.7444L38.9371 34.3864C38.8722 34.3489 38.8197 34.258 38.8198 34.1834L38.8203 34.0012C38.8207 33.9269 38.8736 33.8967 38.9386 33.9342Z" fill="white"/>
<path d="M50.5934 25.1697L50.5802 29.7544L50.5679 34.0697L50.5656 35.0838L50.5632 35.8763L50.5214 50.5233L46.4263 52.9033L46.4681 38.2314L46.4704 37.4389L46.4728 36.4241L46.4851 32.1096L46.4983 27.5489L50.5934 25.1697Z" fill="#CF4256"/>
<path d="M50.5939 25.1698L49.0871 26.0443V26.0459L46.4987 27.5495L35.3139 21.0922L31.9329 19.1407L31.9343 19.1393L32.6324 18.7365L35.3267 17.1815V17.1413L35.3604 17.1622L36.0424 16.769L50.5939 25.1698Z" fill="#F26F81"/>
<path d="M49.0471 25.1714L48.3138 25.5982L46.4972 26.6541L35.3173 20.2705L32.6326 18.7365L35.3268 17.1815V17.1414L35.3606 17.1622L49.0471 25.1714Z" fill="white"/>
<path d="M46.4988 27.5481V27.5497L46.4939 28.8558L46.4907 29.8668V29.8684L46.4891 30.6579L46.4844 32.1102V32.144L46.4731 36.1749V36.6274L46.4699 37.4394V37.4555L46.4683 38.2322V38.2819L46.4667 38.7344L46.4618 40.6857L46.4602 41.1382L46.4475 45.3154L46.4329 50.513L46.4266 52.9025L44.3614 51.7101L43.9617 51.479L39.8794 49.1233L37.4162 47.7L33.7734 45.5962L33.3354 45.3426L33.3065 45.3267L30.8705 43.9208L28.6978 42.6659V42.3963L28.701 41.5683V41.3854L28.7026 41.1158L28.7123 37.863L28.7139 37.0849V36.9661L28.7153 36.2294L28.7186 35.5988V35.342L28.7202 34.8077L28.7234 33.7967L28.7266 32.4906L28.7299 31.6272L28.7347 29.4961L28.7379 28.591L28.7395 28.0102V27.7535L28.7412 27.2206L28.7444 26.2096L28.7476 24.9019L28.7491 24.0803L28.7555 21.9074L28.7588 20.9736V20.951L28.778 20.9623L29.4601 20.5692L31.9329 19.1409L31.9344 19.1394L35.314 21.0907V21.0923L46.4988 27.5481Z" fill="#E35669"/>
<path d="M46.4851 32.1437L46.4728 36.4442L28.7439 26.2093L28.7564 21.908L46.4851 32.1437Z" fill="#FF8C9C"/>
<path d="M46.4702 37.456L46.4679 38.2454L28.739 28.0097L28.7414 27.2202L46.4702 37.456Z" fill="#FF8C9C"/>
<path d="M50.5802 29.7544L50.5679 34.0696L46.4728 36.424L46.4386 36.4441L46.4263 32.1437L46.4851 32.1095L50.5802 29.7544Z" fill="#EB6A7C"/>
<path d="M50.5656 35.0837L50.5632 35.8763L46.468 38.2314L46.4433 38.2455L46.4409 37.456L46.4704 37.4389L50.5656 35.0837Z" fill="#EB6A7C"/>
<path d="M42.1624 41.7397L32.3914 36.0984C32.3264 36.0609 32.2739 35.97 32.2742 35.8954L32.2747 35.7133C32.275 35.6386 32.3278 35.6086 32.3927 35.646L42.1637 41.2872C42.2287 41.3247 42.2811 41.4156 42.2809 41.4902L42.2804 41.6724C42.2801 41.747 42.2273 41.777 42.1624 41.7397ZM32.38 40.1559L42.1509 45.7971C42.2159 45.8347 42.2684 45.9254 42.2681 46.0002L42.2677 46.1823C42.2674 46.257 42.2146 46.2872 42.1496 46.2495L32.3786 40.6083C32.3137 40.5707 32.2612 40.4798 32.2613 40.4052L32.2619 40.2231C32.2621 40.1486 32.3149 40.1185 32.38 40.1559ZM42.1564 43.846L36.7902 40.7479C36.7253 40.7103 36.6728 40.6194 36.6731 40.5448L36.6737 40.3627C36.6738 40.288 36.7266 40.258 36.7917 40.2954L42.1578 43.3935C42.2228 43.431 42.2753 43.5219 42.2751 43.5966L42.2745 43.7787C42.2741 43.8534 42.2213 43.8835 42.1564 43.846ZM32.3713 37.7433L34.7232 39.1012C34.7876 39.1385 34.8401 39.2292 34.8398 39.3039L34.8393 39.486C34.8391 39.5606 34.7863 39.5908 34.7219 39.5536L32.37 38.1957C32.305 38.1581 32.2525 38.0672 32.2527 37.9926L32.2531 37.8105C32.2534 37.7358 32.3062 37.7058 32.3713 37.7433Z" fill="white"/>
<path d="M44.0258 28.9785L44.0126 33.5634L44.0003 37.8787L43.9979 38.8927L43.9956 39.6853L43.9538 54.3322L39.8586 56.7122L39.9004 42.0404L39.9028 41.2479L39.905 40.2329L39.9174 35.9185L39.9306 31.3577L44.0258 28.9785Z" fill="#4696F0"/>
<path d="M44.0259 28.9777L43.8045 29.1077H43.8029L42.5176 29.8538L39.9308 31.3575L35.2931 28.6808L28.7476 24.9018L25.3521 22.9408L26.05 22.538L28.7588 20.9735V20.9509L28.778 20.9622L29.4601 20.5691L35.3076 23.9437L44.0259 28.9777Z" fill="#7DBAFF"/>
<path d="M42.4807 28.981L41.7458 29.4078L39.9292 30.4621L35.2964 27.8175L28.7492 24.0803L26.05 22.538L28.7588 20.9735V20.9509L28.7781 20.9622L35.3044 24.7814L42.4807 28.981Z" fill="white"/>
<path d="M39.9307 31.3576L39.9275 32.3959V32.6656L39.9259 32.8484L39.9242 33.6764L39.9226 34.466V34.5029L39.921 34.9554L39.9178 35.9182V35.9519L39.9146 36.9051L39.9131 37.3576L39.905 39.9846V40.4371L39.9034 41.2475V41.2651L39.9018 41.5364L39.9002 42.0402V42.0899L39.8986 42.5425L39.8937 44.4939L39.8921 44.9463L39.8794 49.1233L39.8649 54.305L39.8584 56.712L37.7772 55.5101L37.3936 55.2887L33.3128 52.933L30.8496 51.5095L27.2053 49.4059L26.7672 49.1522L26.7383 49.1362L24.3024 47.7305L22.1296 46.4757V46.206L22.1329 45.378V45.195L22.1345 44.9255L22.144 41.6727V41.6711L22.1456 40.8928V40.7757L22.1472 40.0392L22.1505 39.4069V39.1502L22.1521 38.6173L22.1553 37.6063L22.1585 36.2985L22.1618 35.4352L22.1666 33.3057L22.1697 32.3991L22.1714 31.8182L22.1729 31.5631L22.1745 31.0287L22.1761 30.0178L22.1793 28.7098L22.1826 27.8883L22.189 25.717L22.1922 24.7656V24.7607L22.1955 24.7623L22.8774 24.3692L25.3519 22.9409L28.7475 24.9019L35.293 28.6809L39.9307 31.3576Z" fill="#5EAAFF"/>
<path d="M39.9175 35.9527L39.905 40.2533L22.1763 30.0184L22.1886 25.717L39.9175 35.9527Z" fill="#85BEFF"/>
<path d="M39.9028 41.2649L39.9005 42.0544L22.1716 31.8187L22.174 31.0293L39.9028 41.2649Z" fill="#85BEFF"/>
<path d="M44.0126 33.5635L44.0003 37.8787L39.905 40.233L39.871 40.2532L39.8586 35.9526L39.9174 35.9186L44.0126 33.5635Z" fill="#6AA9F0"/>
<path d="M43.9979 38.8928L43.9956 39.6853L39.9004 42.0405L39.8756 42.0544L39.8733 41.265L39.9028 41.248L43.9979 38.8928Z" fill="#6AA9F0"/>
<path d="M35.5947 45.5487L25.8237 39.9075C25.7587 39.87 25.7062 39.7791 25.7065 39.7044L25.7071 39.5223C25.7074 39.4477 25.7602 39.4176 25.8251 39.455L35.5961 45.0962C35.6611 45.1338 35.7136 45.2247 35.7133 45.2993L35.7129 45.4814C35.7124 45.5561 35.6596 45.5861 35.5947 45.5487ZM25.8121 43.965L35.5831 49.6062C35.6481 49.6438 35.7005 49.7345 35.7003 49.8093L35.6998 49.9914C35.6995 50.066 35.6469 50.0961 35.5818 50.0586L25.8108 44.4174C25.7458 44.3798 25.6933 44.2891 25.6935 44.2143L25.6941 44.0322C25.6943 43.9575 25.7471 43.9275 25.8121 43.965ZM35.5887 47.655L30.2225 44.5568C30.1576 44.5193 30.1051 44.4284 30.1054 44.3537L30.1058 44.1716C30.1061 44.097 30.1587 44.0669 30.2238 44.1043L35.59 47.2025C35.6549 47.2401 35.7074 47.331 35.7073 47.4056L35.7068 47.5877C35.7064 47.6624 35.6536 47.6926 35.5887 47.655ZM25.8034 41.5524L28.1554 42.9103C28.2197 42.9476 28.2722 43.0383 28.2719 43.113L28.2715 43.2951C28.2712 43.3697 28.2185 43.3999 28.154 43.3627L25.8021 42.0047C25.7372 41.9672 25.6847 41.8763 25.6848 41.8017L25.6853 41.6196C25.6857 41.5449 25.7385 41.5149 25.8034 41.5524Z" fill="white"/>
<path d="M37.4586 32.7876L37.4454 37.3723L37.433 41.6876L37.4307 42.7017L37.4284 43.4943L37.3864 58.1413L33.2913 60.5212L33.3332 45.8495L33.3355 45.057L33.3377 44.042L33.3502 39.7276L33.3634 35.1668L37.4586 32.7876Z" fill="#0A6C8C"/>
<path d="M37.4579 32.7873L37.2365 32.9158L35.9527 33.662L35.2788 34.0535L33.3628 35.1672L28.7267 32.4905L22.1795 28.7098L18.7695 26.7408L19.4676 26.3381L22.1924 24.7655V24.7606L22.1956 24.7622L22.8776 24.3691L28.7396 27.7535L35.2852 31.5325L37.4579 32.7873Z" fill="#1490BA"/>
<path d="M35.9125 32.7888L35.2803 33.1562L35.1793 33.2156L33.3627 34.2716L28.7298 31.6271L22.1826 27.8881L19.4675 26.3379L22.1923 24.7653V24.7605L22.1955 24.7621L28.7379 28.5909L35.2819 32.4197L35.9125 32.7888Z" fill="white"/>
<path d="M33.3628 35.1674L33.3596 36.2039V36.4735L33.358 36.6564L33.3563 37.4845L33.3547 38.2756V38.3109L33.3531 38.7634L33.3499 39.7279V39.7615L33.3467 40.7147L33.3451 41.1672L33.3418 42.3147L33.3386 43.791V43.7926L33.3371 44.0253V44.2451L33.3355 45.0571V45.3427L33.3339 45.8498V45.8996L33.3323 46.3521V46.6024L33.3275 48.3034L33.3258 48.7559L33.3129 52.9331L33.297 58.097L33.2905 60.5218L31.1948 59.3118L30.8273 59.0999L26.7449 56.7426L24.2817 55.3193L20.6358 53.2155L20.1993 52.9635L20.172 52.9474L15.5618 50.2853V50.014L15.565 49.186V49.0031L15.5665 48.7335L15.5777 44.704L15.5826 43.2165L15.5842 42.427L15.5874 41.416L15.5923 40.1081L15.5937 39.2448L15.6002 37.1138L15.6034 36.2087L15.605 35.6278V35.3726L15.6066 34.8383L15.6082 33.8273L15.6115 32.5196V32.5179L15.6147 31.6979L15.6212 29.5267L15.6242 28.5687V28.5575L16.295 28.1691L18.7695 26.741L22.1795 28.7099L28.7267 32.4907L33.3628 35.1674Z" fill="#117CA0"/>
<path d="M33.3501 39.7618L33.3376 44.0623L15.6089 33.8274L15.6212 29.5261L33.3501 39.7618Z" fill="#59B8D9"/>
<path d="M33.3355 45.074L33.3331 45.8634L15.6042 35.6278L15.6066 34.8384L33.3355 45.074Z" fill="#59B8D9"/>
<path d="M37.4454 37.3723L37.4331 41.6876L33.3377 44.042L33.3037 44.0622L33.2913 39.7616L33.3502 39.7276L37.4454 37.3723Z" fill="#3F9EBF"/>
<path d="M37.4305 42.7017L37.4282 43.4943L33.333 45.8495L33.3083 45.8634L33.3059 45.0739L33.3354 45.0569L37.4305 42.7017Z" fill="#3F9EBF"/>
<path d="M29.0271 49.3576L19.2561 43.7164C19.1912 43.6788 19.1387 43.5879 19.139 43.5133L19.1396 43.3312C19.1399 43.2565 19.1927 43.2265 19.2576 43.2639L29.0286 48.9051C29.0935 48.9426 29.146 49.0335 29.1457 49.1082L29.1453 49.2903C29.145 49.3651 29.0922 49.3951 29.0271 49.3576ZM19.2447 47.774L29.0157 53.4152C29.0806 53.4527 29.1331 53.5435 29.1328 53.6183L29.1324 53.8004C29.1323 53.875 29.0795 53.9052 29.0144 53.8677L19.2434 48.2265C19.1784 48.1889 19.1259 48.098 19.1261 48.0234L19.1267 47.8413C19.127 47.7665 19.1798 47.7365 19.2447 47.774ZM29.0211 51.4639L23.655 48.3658C23.59 48.3282 23.5375 48.2373 23.5378 48.1627L23.5383 47.9806C23.5386 47.906 23.5912 47.8759 23.6563 47.9133L29.0224 51.0114C29.0874 51.0489 29.1399 51.1398 29.1397 51.2145L29.1391 51.3966C29.139 51.4714 29.0862 51.5014 29.0211 51.4639ZM19.2361 45.3614L21.588 46.7193C21.6523 46.7565 21.7048 46.8473 21.7045 46.9219L21.7041 47.1041C21.7038 47.1787 21.651 47.2089 21.5866 47.1716L19.2347 45.8139C19.1698 45.7763 19.1173 45.6854 19.1174 45.6108L19.1179 45.4287C19.1183 45.3539 19.1711 45.3238 19.2361 45.3614Z" fill="white"/>
<path d="M30.8909 36.5967L30.8777 41.1814L30.8653 45.4967L30.8631 46.5108L30.8607 47.3033L30.8188 61.9504L26.7236 64.3303L26.7654 49.6586L26.7678 48.866L26.7701 47.8511L26.7826 43.5366L26.7958 38.9759L30.8909 36.5967Z" fill="#44A68A"/>
<path d="M30.8913 36.597L30.6698 36.7253L29.3844 37.4714V37.4731L28.7121 37.8629L26.796 38.9767L22.1585 36.2984L15.6113 32.5194V32.5178L12.1868 30.5408L12.8849 30.138L15.6145 28.5621L15.624 28.5574L16.2948 28.1689L22.1728 31.5629L28.7184 35.342L30.8913 36.597Z" fill="#78C4AE"/>
<path d="M29.3461 36.5985L28.7139 36.966L28.6111 37.0254L26.7947 38.0812L22.1618 35.435L15.6146 31.6976L12.885 30.138L15.6146 28.562L15.6242 28.5685L28.7154 36.2293L29.3461 36.5985Z" fill="white"/>
<path d="M26.7962 38.9751V38.9767L26.793 40.0134V40.2845L26.7915 40.4658L26.7898 41.2955L26.7883 42.0849V42.1202L26.7867 42.5727L26.7835 43.5373V43.571L26.7802 44.5242L26.7786 44.9751L26.7754 46.1257L26.7722 47.6019L26.7706 47.833V48.0546L26.7673 48.8664V49.1521L26.7657 49.6592V49.709L26.7641 50.1614L26.7594 52.1128L26.7578 52.5653L26.7449 56.7424L26.7305 61.8887L26.7241 64.3295L24.6138 63.1114L24.2593 62.906L20.1769 60.5503L8.99536 54.093L8.99844 52.9953L9.00006 52.5428L9.01618 47.0258V47.0242L9.0178 46.2348L9.02088 45.2238L9.03217 40.9232L9.037 39.4373L9.03862 38.6477L9.04184 37.6367L9.04507 36.3289L9.04815 35.5072L9.0546 33.3345L9.05782 32.3782V32.3477L9.71251 31.9705L12.187 30.5408L15.6115 32.5178V32.5194L22.1587 36.2984L26.7962 38.9751Z" fill="#62C0A6"/>
<path d="M26.7826 43.5708L26.7702 47.8713L9.04126 37.6364L9.05373 33.3352L26.7826 43.5708Z" fill="#7DD4BB"/>
<path d="M26.7677 48.883L26.7654 49.6724L9.03662 39.4367L9.03897 38.6472L26.7677 48.883Z" fill="#7DD4BB"/>
<path d="M30.8777 41.1814L30.8652 45.4966L26.7701 47.851L26.7361 47.8711L26.7236 43.5707L26.7826 43.5365L30.8777 41.1814Z" fill="#68C4AA"/>
<path d="M30.8632 46.5107L30.8609 47.3033L26.7655 49.6585L26.7407 49.6725L26.7385 48.883L26.7679 48.866L30.8632 46.5107Z" fill="#68C4AA"/>
<path d="M22.4597 53.1667L12.6888 47.5255C12.6238 47.488 12.5713 47.3971 12.5716 47.3224L12.5722 47.1403C12.5725 47.0657 12.6251 47.0355 12.6902 47.073L22.4612 52.7142C22.5261 52.7518 22.5786 52.8427 22.5783 52.9173L22.5779 53.0994C22.5776 53.1742 22.5247 53.2043 22.4597 53.1667ZM12.6773 51.5831L22.4483 57.2243C22.5132 57.2619 22.5657 57.3526 22.5654 57.4274L22.5648 57.6095C22.5645 57.6842 22.5119 57.7142 22.4468 57.6767L12.6759 52.0355C12.6109 51.9979 12.5584 51.9072 12.5586 51.8324L12.5591 51.6503C12.5594 51.5757 12.6124 51.5456 12.6773 51.5831ZM22.4537 55.273L17.0876 52.1749C17.0226 52.1374 16.9701 52.0465 16.9704 51.9718L16.9709 51.7897C16.9712 51.7151 17.0238 51.6849 17.0889 51.7224L22.455 54.8205C22.52 54.8581 22.5725 54.949 22.5723 55.0236L22.5717 55.2057C22.5716 55.2805 22.5186 55.3106 22.4537 55.273ZM12.6687 49.1704L15.0206 50.5283C15.0849 50.5655 15.1374 50.6563 15.1371 50.7309L15.1367 50.913C15.1364 50.9877 15.0836 51.0179 15.0193 50.9806L12.6673 49.6229C12.6024 49.5853 12.5499 49.4944 12.55 49.4198L12.5505 49.2377C12.5509 49.163 12.6037 49.1328 12.6687 49.1704Z" fill="white"/>
<path d="M24.3234 40.4055L24.3104 44.9904L24.2979 49.3057L24.2956 50.3197L24.2932 51.1123L24.2514 65.7592L20.1562 68.1392L20.198 53.4674L20.2004 52.6749L20.2027 51.6601L20.215 47.3455L20.2282 42.7848L24.3234 40.4055Z" fill="#CF4256"/>
<path d="M24.3234 40.405L24.1019 40.5333L22.8182 41.2811H22.8165L22.1441 41.6711L20.2281 42.7848L15.5922 40.1081L9.04497 36.3291L5.60449 34.3424L6.30083 33.9396L9.03206 32.3638L9.05772 32.3478L9.71241 31.9707L15.6049 35.3726L22.1506 39.1502L24.3234 40.405Z" fill="#F26F81"/>
<path d="M22.7779 40.4082L22.1457 40.7756L22.043 40.835L20.2264 41.8893L15.5936 39.2447L9.048 35.5073L6.30078 33.9396L9.03202 32.3638L9.05767 32.3783L15.6033 36.2086L22.1473 40.0391L22.7779 40.4082Z" fill="white"/>
<path d="M20.2282 42.7847L20.2249 43.8229V44.0926L20.2233 44.2756L20.2217 45.1036L20.2201 45.893V45.93L20.2185 46.3825L20.2153 47.3452V47.3806L20.212 48.3322L20.2104 48.7847L20.2072 49.7876L20.204 51.41L20.2023 51.6603V51.8625L20.2007 52.6745V52.6921L20.1975 53.4672V53.5169L20.1959 53.9694L20.1911 55.9207L20.1894 56.3732L20.1765 60.5504L20.162 65.6806L20.1556 68.1391L18.0293 66.9115L3.66555 58.6184L3.62376 43.9128L3.62215 43.1201L3.61892 42.1059L3.60601 37.7908L3.60279 36.5328C3.60118 35.9615 4.00074 35.2682 4.49663 34.981L5.60381 34.3423L9.04429 36.3289L15.5915 40.108L20.2282 42.7847Z" fill="#E35669"/>
<path d="M20.2152 47.3805L20.212 48.3321L20.2104 48.7846L20.2072 49.7875L20.2039 51.41L20.2023 51.6603V51.6795L20.1863 51.6698L20.1686 51.6603L15.5648 49.0029L12.572 47.2746L9.02066 45.2238L3.61935 42.1059L3.60645 37.7908L9.03195 40.9232L15.5775 44.7038L20.1847 47.3629L20.2152 47.3805Z" fill="#FF8C9C"/>
<path d="M20.2009 52.6921L20.1976 53.4672V53.4817L20.1849 53.4752L20.1736 53.4672L3.62417 43.9128L3.62256 43.1201L20.1849 52.684L20.2009 52.6921Z" fill="#FF8C9C"/>
<path d="M24.3104 44.9905L24.2979 49.3057L20.2027 51.6601L20.1686 51.6802L20.1562 47.3798L20.215 47.3456L24.3104 44.9905Z" fill="#EB6A7C"/>
<path d="M24.2955 50.3198L24.2932 51.1123L20.198 53.4675L20.1732 53.4814L20.1709 52.692L20.2004 52.675L24.2955 50.3198Z" fill="#EB6A7C"/>
<path d="M15.8923 56.9758L6.12137 51.3346C6.05642 51.2971 6.00393 51.2062 6.00422 51.1315L6.00466 50.9494C6.00495 50.8748 6.05774 50.8446 6.12269 50.8821L15.8937 56.5233C15.9586 56.5608 16.0111 56.6516 16.0108 56.7264L16.0104 56.9085C16.0101 56.9831 15.9573 57.0133 15.8923 56.9758ZM6.10994 55.3921L15.8809 61.0333C15.9459 61.0708 15.9984 61.1616 15.9981 61.2364L15.9975 61.4185C15.9972 61.4931 15.9444 61.5233 15.8794 61.4856L6.10847 55.8444C6.04352 55.8069 5.99102 55.7161 5.99117 55.6413L5.99175 55.4592C5.99205 55.3847 6.04498 55.3547 6.10994 55.3921ZM15.8863 59.0821L10.5202 55.9839C10.4552 55.9463 10.4028 55.8554 10.4031 55.7808L10.4035 55.5987C10.4038 55.524 10.4564 55.4938 10.5215 55.5314L15.8877 58.6296C15.9526 58.6672 16.0051 58.7581 16.005 58.8327L16.0044 59.0148C16.0041 59.0896 15.9513 59.1196 15.8863 59.0821ZM6.10129 52.9795L8.4532 54.3374C8.51757 54.3745 8.57006 54.4654 8.56976 54.54L8.56932 54.7221C8.56903 54.7968 8.51639 54.827 8.45188 54.7897L6.09997 53.4318C6.03501 53.3943 5.98252 53.3034 5.98267 53.2287L5.98325 53.0466C5.9834 52.972 6.03633 52.9419 6.10129 52.9795Z" fill="white"/>
<path d="M64 24L69.5633 25.5437L68.1185 19.9539L64 24ZM153.291 38.5934L152.282 37.8712L151.7 38.6843L152.709 39.4066L153.291 38.5934ZM68.6305 22.2867L68.2317 22.3898L68.4819 23.358L68.8808 23.2549L68.6305 22.2867ZM152.282 37.8712C128.082 20.546 97.4464 14.8386 68.6305 22.2867L68.8808 23.2549C97.41 15.8809 127.74 21.5315 151.7 38.6843L152.282 37.8712Z" fill="url(#paint0_linear_694_47009)"/>
<defs>
<filter id="filter0_d_694_47009" x="87" y="42" width="39" height="29.7053" filterUnits="userSpaceOnUse" color-interpolation-filters="sRGB">
<feFlood flood-opacity="0" result="BackgroundImageFix"/>
<feColorMatrix in="SourceAlpha" type="matrix" values="0 0 0 0 0 0 0 0 0 0 0 0 0 0 0 0 0 0 127 0" result="hardAlpha"/>
<feOffset/>
<feGaussianBlur stdDeviation="0.5"/>
<feComposite in2="hardAlpha" operator="out"/>
<feColorMatrix type="matrix" values="0 0 0 0 0 0 0 0 0 0.603922 0 0 0 0 0.976471 0 0 0 1 0"/>
<feBlend mode="normal" in2="BackgroundImageFix" result="effect1_dropShadow_694_47009"/>
<feBlend mode="normal" in="SourceGraphic" in2="effect1_dropShadow_694_47009" result="shape"/>
</filter>
<filter id="filter1_d_694_47009" x="133" y="42" width="39" height="29.7053" filterUnits="userSpaceOnUse" color-interpolation-filters="sRGB">
<feFlood flood-opacity="0" result="BackgroundImageFix"/>
<feColorMatrix in="SourceAlpha" type="matrix" values="0 0 0 0 0 0 0 0 0 0 0 0 0 0 0 0 0 0 127 0" result="hardAlpha"/>
<feOffset/>
<feGaussianBlur stdDeviation="0.5"/>
<feComposite in2="hardAlpha" operator="out"/>
<feColorMatrix type="matrix" values="0 0 0 0 0 0 0 0 0 0.603922 0 0 0 0 0.976471 0 0 0 1 0"/>
<feBlend mode="normal" in2="BackgroundImageFix" result="effect1_dropShadow_694_47009"/>
<feBlend mode="normal" in="SourceGraphic" in2="effect1_dropShadow_694_47009" result="shape"/>
</filter>
<filter id="filter2_d_694_47009" x="179" y="42" width="39" height="29.7053" filterUnits="userSpaceOnUse" color-interpolation-filters="sRGB">
<feFlood flood-opacity="0" result="BackgroundImageFix"/>
<feColorMatrix in="SourceAlpha" type="matrix" values="0 0 0 0 0 0 0 0 0 0 0 0 0 0 0 0 0 0 127 0" result="hardAlpha"/>
<feOffset/>
<feGaussianBlur stdDeviation="0.5"/>
<feComposite in2="hardAlpha" operator="out"/>
<feColorMatrix type="matrix" values="0 0 0 0 0 0 0 0 0 0.603922 0 0 0 0 0.976471 0 0 0 1 0"/>
<feBlend mode="normal" in2="BackgroundImageFix" result="effect1_dropShadow_694_47009"/>
<feBlend mode="normal" in="SourceGraphic" in2="effect1_dropShadow_694_47009" result="shape"/>
</filter>
<linearGradient id="paint0_linear_694_47009" x1="40.9995" y1="82.9739" x2="157.366" y2="41.0598" gradientUnits="userSpaceOnUse">
<stop stop-color="#004CB6"/>
<stop offset="1" stop-color="white"/>
</linearGradient>
</defs>
</svg>
