<svg width="48" height="48" viewBox="0 0 48 48" fill="none" xmlns="http://www.w3.org/2000/svg">
<g filter="url(#filter0_d_1203_17954)">
<circle cx="24" cy="20" r="20" fill="url(#paint0_linear_1203_17954)"/>
<path d="M24.3333 23.6863C24.2154 23.6863 24.0966 23.6579 23.9876 23.6019C22.7689 22.9662 21.4146 22.6343 20.04 22.6343C18.6654 22.6343 17.3111 22.9662 16.0924 23.6019C15.9785 23.661 15.8513 23.6897 15.7231 23.6854C15.5949 23.6811 15.47 23.6439 15.3603 23.5774C15.2506 23.5109 15.1598 23.4173 15.0967 23.3057C15.0337 23.194 15.0003 23.0679 15 22.9397V8.753C15 8.63256 15.0291 8.51391 15.0849 8.40717C15.1407 8.30042 15.2214 8.20876 15.3203 8.13999C18.1435 6.17551 21.9365 6.17551 24.7604 8.13999C24.9605 8.27961 25.08 8.50884 25.08 8.753V22.9397C25.08 23.1377 25.0013 23.3276 24.8613 23.4676C24.7213 23.6077 24.5314 23.6863 24.3333 23.6863ZM20.04 21.1409C21.2421 21.1409 22.445 21.3567 23.5867 21.7883V9.1562C22.5185 8.5043 21.2914 8.15941 20.04 8.15941C18.7886 8.15941 17.5615 8.5043 16.4933 9.1562V21.7883C17.6268 21.3601 18.8284 21.1408 20.04 21.1409Z" fill="white"/>
<path d="M32.92 23.6863C32.802 23.6863 32.6833 23.6579 32.5743 23.6019C31.3555 22.9662 30.0013 22.6343 28.6267 22.6343C27.2521 22.6343 25.8978 22.9662 24.679 23.6019C24.5651 23.661 24.438 23.6897 24.3098 23.6854C24.1816 23.6811 24.0566 23.6439 23.9469 23.5774C23.8373 23.5109 23.7465 23.4173 23.6834 23.3057C23.6203 23.194 23.587 23.0679 23.5867 22.9397V8.753C23.5867 8.63256 23.6158 8.51391 23.6716 8.40717C23.7273 8.30042 23.8081 8.20876 23.907 8.13999C26.7301 6.17551 30.5232 6.17551 33.3471 8.13999C33.5472 8.27961 33.6667 8.50884 33.6667 8.753V22.9397C33.6667 23.1377 33.588 23.3276 33.448 23.4676C33.3079 23.6077 33.118 23.6863 32.92 23.6863ZM28.6267 21.1409C29.8288 21.1409 31.0317 21.3567 32.1733 21.7883V9.1562C31.1052 8.5043 29.878 8.15941 28.6267 8.15941C27.3753 8.15941 26.1482 8.5043 25.08 9.1562V21.7883C26.2134 21.3601 27.4151 21.1408 28.6267 21.1409Z" fill="white"/>
<path d="M11.9963 33V27.24H12.5403V32.536H15.6283V33H11.9963ZM16.3216 33V28.856H16.8016V33H16.3216ZM16.2976 27.952V27.24H16.8256V27.952H16.2976ZM18.439 30.912C18.439 31.1627 18.4684 31.3973 18.527 31.616C18.591 31.8293 18.6817 32.016 18.799 32.176C18.9164 32.3307 19.063 32.4533 19.239 32.544C19.415 32.6347 19.615 32.68 19.839 32.68C20.0417 32.68 20.2284 32.6453 20.399 32.576C20.5697 32.5013 20.719 32.3947 20.847 32.256C20.975 32.1173 21.0737 31.9493 21.143 31.752C21.2177 31.5493 21.255 31.3173 21.255 31.056C21.2657 30.7947 21.2444 30.552 21.191 30.328C21.1377 30.0987 21.0524 29.8987 20.935 29.728C20.8177 29.5573 20.6657 29.424 20.479 29.328C20.2977 29.2267 20.0844 29.176 19.839 29.176C19.6204 29.176 19.423 29.224 19.247 29.32C19.0764 29.4107 18.9297 29.536 18.807 29.696C18.6897 29.8507 18.599 30.0347 18.535 30.248C18.471 30.456 18.439 30.6773 18.439 30.912ZM18.439 33H17.959V27.24H18.439V29.52C18.5937 29.264 18.8044 29.072 19.071 28.944C19.343 28.8107 19.6257 28.744 19.919 28.744C20.2337 28.744 20.5057 28.8053 20.735 28.928C20.9697 29.0453 21.1617 29.2053 21.311 29.408C21.4657 29.6053 21.5804 29.8373 21.655 30.104C21.7297 30.3707 21.767 30.648 21.767 30.936C21.767 31.24 21.7324 31.5253 21.663 31.792C21.5937 32.0587 21.4817 32.2907 21.327 32.488C21.1777 32.68 20.9857 32.832 20.751 32.944C20.5164 33.056 20.231 33.112 19.895 33.112C19.7617 33.112 19.6257 33.0933 19.487 33.056C19.3484 33.0187 19.2124 32.9653 19.079 32.896C18.951 32.8267 18.831 32.7413 18.719 32.64C18.6124 32.5333 18.5244 32.4107 18.455 32.272H18.439V33ZM23.1777 33H22.6977V28.856H23.1777V29.632H23.1937C23.327 29.3013 23.4977 29.072 23.7057 28.944C23.919 28.8107 24.199 28.744 24.5457 28.744V29.264C24.2737 29.2587 24.0497 29.3013 23.8737 29.392C23.6977 29.4827 23.5563 29.6053 23.4497 29.76C23.3483 29.9147 23.2763 30.0987 23.2337 30.312C23.1963 30.52 23.1777 30.7387 23.1777 30.968V33ZM27.9297 30.824C27.7271 30.9093 27.5217 30.9653 27.3137 30.992C27.1057 31.0187 26.8977 31.04 26.6897 31.056C26.3217 31.0827 26.0337 31.1653 25.8257 31.304C25.6231 31.4427 25.5217 31.6533 25.5217 31.936C25.5217 32.064 25.5457 32.176 25.5937 32.272C25.6471 32.3627 25.7137 32.44 25.7937 32.504C25.8791 32.5627 25.9751 32.608 26.0817 32.64C26.1937 32.6667 26.3057 32.68 26.4177 32.68C26.6097 32.68 26.7964 32.656 26.9777 32.608C27.1591 32.56 27.3191 32.488 27.4577 32.392C27.6017 32.2907 27.7164 32.1653 27.8017 32.016C27.8871 31.8613 27.9297 31.68 27.9297 31.472V30.824ZM27.1217 30.584C27.2124 30.5733 27.3191 30.5573 27.4417 30.536C27.5697 30.5147 27.6737 30.4853 27.7537 30.448C27.8337 30.4107 27.8817 30.3493 27.8977 30.264C27.9191 30.1733 27.9297 30.0907 27.9297 30.016C27.9297 29.7707 27.8497 29.5707 27.6897 29.416C27.5351 29.256 27.2711 29.176 26.8977 29.176C26.7324 29.176 26.5804 29.192 26.4417 29.224C26.3031 29.2507 26.1804 29.3013 26.0737 29.376C25.9724 29.4453 25.8871 29.5413 25.8177 29.664C25.7537 29.7813 25.7111 29.9307 25.6897 30.112H25.2017C25.2177 29.8667 25.2737 29.6587 25.3697 29.488C25.4657 29.312 25.5884 29.1707 25.7377 29.064C25.8924 28.952 26.0684 28.872 26.2657 28.824C26.4684 28.7707 26.6817 28.744 26.9057 28.744C27.1137 28.744 27.3084 28.768 27.4897 28.816C27.6764 28.8587 27.8364 28.9307 27.9697 29.032C28.1084 29.128 28.2151 29.2587 28.2897 29.424C28.3697 29.5893 28.4097 29.792 28.4097 30.032V32.288C28.4097 32.4747 28.4417 32.5947 28.5057 32.648C28.5751 32.696 28.7111 32.6827 28.9137 32.608V32.984C28.8764 32.9947 28.8204 33.0107 28.7457 33.032C28.6764 33.0533 28.6071 33.064 28.5377 33.064C28.4631 33.064 28.3911 33.056 28.3217 33.04C28.2417 33.0293 28.1777 33.0053 28.1297 32.968C28.0817 32.9253 28.0417 32.8773 28.0097 32.824C27.9831 32.7653 27.9644 32.704 27.9537 32.64C27.9431 32.5707 27.9377 32.4987 27.9377 32.424C27.7351 32.648 27.5031 32.8187 27.2417 32.936C26.9804 33.0533 26.6977 33.112 26.3937 33.112C26.2124 33.112 26.0364 33.088 25.8657 33.04C25.7004 32.992 25.5537 32.9173 25.4257 32.816C25.2977 32.7147 25.1964 32.592 25.1217 32.448C25.0471 32.2987 25.0097 32.1227 25.0097 31.92C25.0097 31.216 25.4924 30.8 26.4577 30.672L27.1217 30.584ZM30.047 33H29.567V28.856H30.047V29.632H30.063C30.1964 29.3013 30.367 29.072 30.575 28.944C30.7884 28.8107 31.0684 28.744 31.415 28.744V29.264C31.143 29.2587 30.919 29.3013 30.743 29.392C30.567 29.4827 30.4257 29.6053 30.319 29.76C30.2177 29.9147 30.1457 30.0987 30.103 30.312C30.0657 30.52 30.047 30.7387 30.047 30.968V33ZM32.1957 34.128C32.2597 34.1387 32.3237 34.1493 32.3877 34.16C32.4571 34.1707 32.5264 34.176 32.5957 34.176C32.7291 34.176 32.8384 34.1333 32.9237 34.048C33.0091 33.9627 33.0784 33.8587 33.1317 33.736C33.1904 33.6187 33.2384 33.4933 33.2757 33.36C33.3131 33.232 33.3557 33.1227 33.4037 33.032L31.7957 28.856H32.3317L33.6597 32.416L34.9877 28.856H35.5077L33.9637 32.944C33.8677 33.2053 33.7744 33.44 33.6837 33.648C33.5984 33.856 33.5051 34.032 33.4037 34.176C33.3077 34.3253 33.1984 34.4373 33.0757 34.512C32.9584 34.592 32.8171 34.632 32.6517 34.632C32.5664 34.632 32.4837 34.6267 32.4037 34.616C32.3291 34.6053 32.2597 34.592 32.1957 34.576V34.128Z" fill="white"/>
</g>
<defs>
<filter id="filter0_d_1203_17954" x="0" y="0" width="48" height="48" filterUnits="userSpaceOnUse" color-interpolation-filters="sRGB">
<feFlood flood-opacity="0" result="BackgroundImageFix"/>
<feColorMatrix in="SourceAlpha" type="matrix" values="0 0 0 0 0 0 0 0 0 0 0 0 0 0 0 0 0 0 127 0" result="hardAlpha"/>
<feOffset dy="4"/>
<feGaussianBlur stdDeviation="2"/>
<feComposite in2="hardAlpha" operator="out"/>
<feColorMatrix type="matrix" values="0 0 0 0 0 0 0 0 0 0 0 0 0 0 0 0 0 0 0.25 0"/>
<feBlend mode="normal" in2="BackgroundImageFix" result="effect1_dropShadow_1203_17954"/>
<feBlend mode="normal" in="SourceGraphic" in2="effect1_dropShadow_1203_17954" result="shape"/>
</filter>
<linearGradient id="paint0_linear_1203_17954" x1="-13.971" y1="55.814" x2="46.215" y2="53.3135" gradientUnits="userSpaceOnUse">
<stop stop-color="#004CB6"/>
<stop offset="1" stop-color="#009AF9"/>
</linearGradient>
</defs>
</svg>
