<svg width="166" height="83" viewBox="0 0 166 83" fill="none" xmlns="http://www.w3.org/2000/svg">
<path d="M26.2663 39.6031L46.735 60.2047L57.235 39.275H60.6647L63.1101 40.3297L65.4851 36.9625L49.7038 21.1891L46.2741 22.2594L46.8054 26.2672L46.5397 28.1188L45.9147 29.3063L26.2663 39.6031Z" fill="#CCCCCC"/>
<path d="M65.1882 34.8454L51.4069 21.0642C50.8594 20.5362 50.1697 20.1795 49.4223 20.038C48.675 19.8964 47.9026 19.9761 47.1999 20.2673C46.4972 20.5585 45.8949 21.0485 45.4667 21.6772C45.0386 22.3059 44.8033 23.0459 44.7897 23.8064C44.7899 24.313 44.8901 24.8146 45.0845 25.2825C45.2789 25.7504 45.5637 26.1753 45.9225 26.5329C46.0824 26.6888 46.2044 26.8793 46.2791 27.0897C46.3538 27.3001 46.3794 27.5248 46.3537 27.7466C46.3281 27.9684 46.2519 28.1813 46.1311 28.3691C46.0103 28.5569 45.8481 28.7145 45.6569 28.8298L25.3444 38.361C25.1752 38.4426 25.0276 38.563 24.9136 38.7123C24.7996 38.8616 24.7223 39.0357 24.6882 39.2204C24.6566 39.406 24.6699 39.5965 24.727 39.7759C24.7841 39.9553 24.8833 40.1184 25.0163 40.2517L31.5944 46.8454L23.5788 61.0798C23.46 61.2996 23.4146 61.5516 23.4491 61.7991C23.4837 62.0466 23.5965 62.2765 23.7709 62.4553C23.9454 62.6342 24.1725 62.7526 24.419 62.7932C24.6656 62.8339 24.9186 62.7947 25.1413 62.6814L39.4069 54.6579L45.985 61.236C46.1186 61.371 46.2828 61.4718 46.4636 61.5297C46.6444 61.5876 46.8366 61.6011 47.0237 61.5689C47.2108 61.5367 47.3874 61.4598 47.5385 61.3447C47.6895 61.2296 47.8106 61.0798 47.8913 60.9079L57.3757 40.6814C57.4804 40.4743 57.6332 40.2954 57.8213 40.1595C58.0094 40.0236 58.2273 39.9347 58.4568 39.9003C58.6862 39.8659 58.9206 39.8869 59.1403 39.9616C59.36 40.0363 59.5585 40.1626 59.7194 40.3298C60.0789 40.6905 60.5064 40.9764 60.9771 41.1708C61.4478 41.3653 61.9523 41.4645 62.4616 41.4626C63.2208 41.4461 63.9587 41.2087 64.585 40.7794C65.2114 40.3501 65.699 39.7475 65.9883 39.0454C66.2776 38.3434 66.356 37.5722 66.2139 36.8262C66.0718 36.0803 65.7153 35.392 65.1882 34.8454ZM27.6882 58.5642L33.3366 48.5407L37.7116 52.9157L27.6882 58.5642ZM63.5475 38.6579C63.2562 38.9395 62.8668 39.097 62.4616 39.097C62.0564 39.097 61.667 38.9395 61.3757 38.6579C60.9504 38.2385 60.4326 37.9249 59.8639 37.7423C59.2952 37.5597 58.6916 37.5133 58.1017 37.6068C57.5117 37.7003 56.9521 37.9311 56.4677 38.2806C55.9833 38.6301 55.5879 39.0885 55.3132 39.6189L46.4929 58.3689L27.8522 39.8142L46.6647 30.9314C47.1875 30.6515 47.6378 30.2535 47.9798 29.7691C48.3218 29.2847 48.546 28.7271 48.6348 28.1408C48.7235 27.5545 48.6743 26.9556 48.491 26.3917C48.3076 25.8278 47.9953 25.3144 47.5788 24.8923C47.373 24.5915 47.2788 24.2283 47.3125 23.8654C47.3462 23.5025 47.5057 23.1628 47.7635 22.9051C48.0212 22.6474 48.3608 22.4879 48.7237 22.4541C49.0866 22.4204 49.4499 22.5146 49.7507 22.7204L63.5319 36.5017C63.8135 36.793 63.971 37.1824 63.971 37.5876C63.971 37.9928 63.8135 38.3822 63.5319 38.6735L63.5475 38.6579Z" fill="#BBBBBB"/>
<path d="M98.7042 39.6031L119.173 60.2047L129.673 39.275H133.103L135.548 40.3297L137.923 36.9625L122.142 21.1891L118.712 22.2594L119.243 26.2672L118.978 28.1188L118.353 29.3063L98.7042 39.6031Z" fill="#00A5FD"/>
<path d="M137.626 34.8454L123.845 21.0642C123.297 20.5362 122.608 20.1795 121.86 20.038C121.113 19.8964 120.34 19.9761 119.638 20.2673C118.935 20.5585 118.333 21.0485 117.905 21.6772C117.476 22.3059 117.241 23.0459 117.228 23.8064C117.228 24.313 117.328 24.8146 117.522 25.2825C117.717 25.7504 118.002 26.1753 118.36 26.5329C118.52 26.6888 118.642 26.8793 118.717 27.0897C118.792 27.3001 118.817 27.5248 118.792 27.7466C118.766 27.9684 118.69 28.1813 118.569 28.3691C118.448 28.5569 118.286 28.7145 118.095 28.8298L97.7823 38.361C97.6131 38.4426 97.4655 38.563 97.3514 38.7123C97.2374 38.8616 97.1602 39.0357 97.126 39.2204C97.0945 39.406 97.1078 39.5965 97.1649 39.7759C97.222 39.9553 97.3212 40.1184 97.4542 40.2517L104.032 46.8454L96.0167 61.0798C95.8979 61.2996 95.8524 61.5516 95.887 61.7991C95.9216 62.0466 96.0343 62.2765 96.2088 62.4553C96.3833 62.6342 96.6104 62.7526 96.8569 62.7932C97.1034 62.8339 97.3565 62.7947 97.5792 62.6814L111.845 54.6579L118.423 61.236C118.556 61.371 118.721 61.4718 118.901 61.5297C119.082 61.5876 119.274 61.6011 119.462 61.5689C119.649 61.5367 119.825 61.4598 119.976 61.3447C120.127 61.2296 120.248 61.0798 120.329 60.9079L129.814 40.6814C129.918 40.4743 130.071 40.2954 130.259 40.1595C130.447 40.0236 130.665 39.9347 130.895 39.9003C131.124 39.8659 131.358 39.8869 131.578 39.9616C131.798 40.0363 131.996 40.1626 132.157 40.3298C132.517 40.6905 132.944 40.9764 133.415 41.1708C133.886 41.3653 134.39 41.4645 134.899 41.4626C135.659 41.4461 136.397 41.2087 137.023 40.7794C137.649 40.3501 138.137 39.7475 138.426 39.0454C138.715 38.3434 138.794 37.5722 138.652 36.8262C138.51 36.0803 138.153 35.392 137.626 34.8454ZM100.126 58.5642L105.774 48.5407L110.149 52.9157L100.126 58.5642ZM135.985 38.6579C135.694 38.9395 135.305 39.097 134.899 39.097C134.494 39.097 134.105 38.9395 133.814 38.6579C133.388 38.2385 132.87 37.9249 132.302 37.7423C131.733 37.5597 131.129 37.5133 130.54 37.6068C129.95 37.7003 129.39 37.9311 128.906 38.2806C128.421 38.6301 128.026 39.0885 127.751 39.6189L118.931 58.3689L100.29 39.8142L119.103 30.9314C119.625 30.6515 120.076 30.2535 120.418 29.7691C120.76 29.2847 120.984 28.7271 121.073 28.1408C121.161 27.5545 121.112 26.9556 120.929 26.3917C120.746 25.8278 120.433 25.3144 120.017 24.8923C119.811 24.5915 119.717 24.2283 119.75 23.8654C119.784 23.5025 119.944 23.1628 120.201 22.9051C120.459 22.6474 120.799 22.4879 121.162 22.4541C121.524 22.4204 121.888 22.5146 122.189 22.7204L135.97 36.5017C136.251 36.793 136.409 37.1824 136.409 37.5876C136.409 37.9928 136.251 38.3822 135.97 38.6735L135.985 38.6579Z" fill="#009AF9"/>
<rect x="0.5" y="0.5" width="165" height="82" rx="4.5" stroke="#7B61FF" stroke-dasharray="10 5"/>
</svg>
