<svg width="48" height="48" viewBox="0 0 48 48" fill="none" xmlns="http://www.w3.org/2000/svg">
<g filter="url(#filter0_d_1203_17946)">
<circle cx="24" cy="20" r="20" fill="url(#paint0_linear_1203_17946)"/>
<path d="M34.6327 13.2992C34.5877 13.1611 34.5049 13.0384 34.3936 12.9451C34.2824 12.8517 34.1472 12.7913 34.0034 12.7709L28.0282 11.8773L25.3553 6.43831C25.2917 6.30695 25.1924 6.19616 25.0687 6.11864C24.945 6.04112 24.802 6 24.656 6C24.5101 6 24.3671 6.04112 24.2434 6.11864C24.1197 6.19616 24.0204 6.30695 23.9567 6.43831L21.2838 11.8773L15.332 12.7709C15.1891 12.7917 15.0547 12.8519 14.9441 12.9447C14.8335 13.0376 14.751 13.1595 14.7058 13.2967C14.6606 13.4339 14.6545 13.581 14.6883 13.7214C14.722 13.8619 14.7943 13.9901 14.8969 14.0918L19.217 18.3109L18.1836 24.3094C18.1682 24.4489 18.1908 24.59 18.2491 24.7176C18.3074 24.8453 18.3992 24.9548 18.5148 25.0345C18.6303 25.1142 18.7653 25.1611 18.9054 25.1702C19.0454 25.1794 19.1853 25.1504 19.3103 25.0864L24.656 22.2736L30.0018 25.0864C30.1267 25.1504 30.2666 25.1794 30.4067 25.1702C30.5468 25.1611 30.6818 25.1142 30.7973 25.0345C30.9129 24.9548 31.0047 24.8453 31.063 24.7176C31.1213 24.59 31.1439 24.4489 31.1285 24.3094L30.095 18.3109L34.4229 14.0918C34.5283 13.9924 34.6038 13.8655 34.6409 13.7254C34.6779 13.5854 34.6751 13.4378 34.6327 13.2992ZM28.7353 17.4873C28.6454 17.5746 28.5779 17.6824 28.5387 17.8015C28.4994 17.9206 28.4896 18.0473 28.51 18.171L29.318 22.9807L25.0057 20.7118C24.8933 20.652 24.7679 20.6207 24.6405 20.6207C24.5131 20.6207 24.3877 20.652 24.2753 20.7118L19.994 22.9807L20.771 18.171C20.7914 18.0473 20.7816 17.9206 20.7423 17.8015C20.7031 17.6824 20.6356 17.5746 20.5457 17.4873L17.088 14.0762L21.9132 13.3769C22.0369 13.359 22.1545 13.3116 22.256 13.2385C22.3574 13.1655 22.4398 13.069 22.496 12.9574L24.656 8.58284L26.8161 12.9574C26.8723 13.069 26.9546 13.1655 27.0561 13.2385C27.1575 13.3116 27.2751 13.359 27.3989 13.3769L32.224 14.0762L28.7353 17.4873Z" fill="white"/>
<path d="M16.08 33H15.6V28.856H16.08V29.632H16.096C16.2293 29.3013 16.4 29.072 16.608 28.944C16.8213 28.8107 17.1013 28.744 17.448 28.744V29.264C17.176 29.2587 16.952 29.3013 16.776 29.392C16.6 29.4827 16.4587 29.6053 16.352 29.76C16.2507 29.9147 16.1787 30.0987 16.136 30.312C16.0987 30.52 16.08 30.7387 16.08 30.968V33ZM20.8321 30.824C20.6294 30.9093 20.4241 30.9653 20.2161 30.992C20.0081 31.0187 19.8001 31.04 19.5921 31.056C19.2241 31.0827 18.9361 31.1653 18.7281 31.304C18.5254 31.4427 18.4241 31.6533 18.4241 31.936C18.4241 32.064 18.4481 32.176 18.4961 32.272C18.5494 32.3627 18.6161 32.44 18.6961 32.504C18.7814 32.5627 18.8774 32.608 18.9841 32.64C19.0961 32.6667 19.2081 32.68 19.3201 32.68C19.5121 32.68 19.6987 32.656 19.8801 32.608C20.0614 32.56 20.2214 32.488 20.3601 32.392C20.5041 32.2907 20.6187 32.1653 20.7041 32.016C20.7894 31.8613 20.8321 31.68 20.8321 31.472V30.824ZM20.0241 30.584C20.1147 30.5733 20.2214 30.5573 20.3441 30.536C20.4721 30.5147 20.5761 30.4853 20.6561 30.448C20.7361 30.4107 20.7841 30.3493 20.8001 30.264C20.8214 30.1733 20.8321 30.0907 20.8321 30.016C20.8321 29.7707 20.7521 29.5707 20.5921 29.416C20.4374 29.256 20.1734 29.176 19.8001 29.176C19.6347 29.176 19.4827 29.192 19.3441 29.224C19.2054 29.2507 19.0827 29.3013 18.9761 29.376C18.8747 29.4453 18.7894 29.5413 18.7201 29.664C18.6561 29.7813 18.6134 29.9307 18.5921 30.112H18.1041C18.1201 29.8667 18.1761 29.6587 18.2721 29.488C18.3681 29.312 18.4907 29.1707 18.6401 29.064C18.7947 28.952 18.9707 28.872 19.1681 28.824C19.3707 28.7707 19.5841 28.744 19.8081 28.744C20.0161 28.744 20.2107 28.768 20.3921 28.816C20.5787 28.8587 20.7387 28.9307 20.8721 29.032C21.0107 29.128 21.1174 29.2587 21.1921 29.424C21.2721 29.5893 21.3121 29.792 21.3121 30.032V32.288C21.3121 32.4747 21.3441 32.5947 21.4081 32.648C21.4774 32.696 21.6134 32.6827 21.8161 32.608V32.984C21.7787 32.9947 21.7227 33.0107 21.6481 33.032C21.5787 33.0533 21.5094 33.064 21.4401 33.064C21.3654 33.064 21.2934 33.056 21.2241 33.04C21.1441 33.0293 21.0801 33.0053 21.0321 32.968C20.9841 32.9253 20.9441 32.8773 20.9121 32.824C20.8854 32.7653 20.8667 32.704 20.8561 32.64C20.8454 32.5707 20.8401 32.4987 20.8401 32.424C20.6374 32.648 20.4054 32.8187 20.1441 32.936C19.8827 33.0533 19.6001 33.112 19.2961 33.112C19.1147 33.112 18.9387 33.088 18.7681 33.04C18.6027 32.992 18.4561 32.9173 18.3281 32.816C18.2001 32.7147 18.0987 32.592 18.0241 32.448C17.9494 32.2987 17.9121 32.1227 17.9121 31.92C17.9121 31.216 18.3947 30.8 19.3601 30.672L20.0241 30.584ZM23.9014 33.016C23.8427 33.0267 23.7654 33.0453 23.6694 33.072C23.5734 33.0987 23.4667 33.112 23.3494 33.112C23.1094 33.112 22.9254 33.0533 22.7974 32.936C22.6747 32.8133 22.6134 32.5973 22.6134 32.288V29.256H22.0294V28.856H22.6134V27.704H23.0934V28.856H23.8694V29.256H23.0934V32.096C23.0934 32.1973 23.096 32.2853 23.1014 32.36C23.1067 32.4347 23.1227 32.496 23.1494 32.544C23.176 32.592 23.216 32.6267 23.2694 32.648C23.328 32.6693 23.408 32.68 23.5094 32.68C23.5734 32.68 23.6374 32.6747 23.7014 32.664C23.7707 32.6533 23.8374 32.64 23.9014 32.624V33.016ZM24.4833 33V28.856H24.9633V33H24.4833ZM24.4593 27.952V27.24H24.9873V27.952H24.4593ZM26.5448 33H26.0648V28.856H26.5448V29.432C26.7368 29.2293 26.9341 29.064 27.1368 28.936C27.3448 28.808 27.5928 28.744 27.8808 28.744C28.1368 28.744 28.3741 28.7893 28.5928 28.88C28.8114 28.9653 28.9954 29.1173 29.1448 29.336C29.2461 29.4853 29.3048 29.64 29.3208 29.8C29.3421 29.9547 29.3528 30.1173 29.3528 30.288V33H28.8728V30.296C28.8728 29.9227 28.7901 29.6427 28.6248 29.456C28.4594 29.2693 28.1848 29.176 27.8008 29.176C27.6514 29.176 27.5154 29.2 27.3928 29.248C27.2701 29.2907 27.1581 29.3493 27.0568 29.424C26.9608 29.4987 26.8781 29.584 26.8088 29.68C26.7394 29.776 26.6861 29.8773 26.6488 29.984C26.6008 30.1173 26.5714 30.2453 26.5608 30.368C26.5501 30.4907 26.5448 30.624 26.5448 30.768V33ZM33.5901 30.944C33.5901 30.6933 33.5581 30.4613 33.4941 30.248C33.4354 30.0293 33.3474 29.8427 33.2301 29.688C33.1127 29.528 32.9661 29.4027 32.7901 29.312C32.6141 29.2213 32.4141 29.176 32.1901 29.176C31.9874 29.176 31.8007 29.2133 31.6301 29.288C31.4594 29.3573 31.3101 29.4613 31.1821 29.6C31.0541 29.7387 30.9527 29.9093 30.8781 30.112C30.8087 30.3093 30.7741 30.5387 30.7741 30.8C30.7634 31.0613 30.7847 31.3067 30.8381 31.536C30.8914 31.76 30.9767 31.9573 31.0941 32.128C31.2114 32.2987 31.3607 32.4347 31.5421 32.536C31.7234 32.632 31.9394 32.68 32.1901 32.68C32.4087 32.68 32.6034 32.6347 32.7741 32.544C32.9501 32.448 33.0967 32.3227 33.2141 32.168C33.3367 32.008 33.4301 31.824 33.4941 31.616C33.5581 31.4027 33.5901 31.1787 33.5901 30.944ZM33.5901 28.856H34.0701V32.6C34.0701 32.8773 34.0407 33.1413 33.9821 33.392C33.9287 33.648 33.8301 33.872 33.6861 34.064C33.5421 34.256 33.3447 34.408 33.0941 34.52C32.8434 34.6373 32.5207 34.696 32.1261 34.696C31.8221 34.696 31.5607 34.656 31.3421 34.576C31.1234 34.5013 30.9447 34.4053 30.8061 34.288C30.6674 34.1707 30.5607 34.04 30.4861 33.896C30.4167 33.7573 30.3794 33.6267 30.3741 33.504H30.8861C30.9234 33.6587 30.9821 33.784 31.0621 33.88C31.1421 33.9813 31.2354 34.0587 31.3421 34.112C31.4541 34.1707 31.5767 34.2107 31.7101 34.232C31.8434 34.2533 31.9821 34.264 32.1261 34.264C32.4514 34.264 32.7127 34.208 32.9101 34.096C33.1074 33.984 33.2567 33.8373 33.3581 33.656C33.4594 33.4747 33.5234 33.2693 33.5501 33.04C33.5821 32.8107 33.5954 32.576 33.5901 32.336C33.4354 32.592 33.2221 32.7867 32.9501 32.92C32.6834 33.048 32.4034 33.112 32.1101 33.112C31.7954 33.112 31.5207 33.0533 31.2861 32.936C31.0567 32.8133 30.8647 32.6533 30.7101 32.456C30.5607 32.2533 30.4487 32.0187 30.3741 31.752C30.2994 31.4853 30.2621 31.208 30.2621 30.92C30.2621 30.616 30.2967 30.3307 30.3661 30.064C30.4354 29.7973 30.5447 29.568 30.6941 29.376C30.8487 29.1787 31.0434 29.024 31.2781 28.912C31.5127 28.8 31.7981 28.744 32.1341 28.744C32.2674 28.744 32.4034 28.7627 32.5421 28.8C32.6807 28.8373 32.8141 28.8907 32.9421 28.96C33.0754 29.0293 33.1954 29.1173 33.3021 29.224C33.4141 29.3307 33.5047 29.4507 33.5741 29.584H33.5901V28.856Z" fill="white"/>
</g>
<defs>
<filter id="filter0_d_1203_17946" x="0" y="0" width="48" height="48" filterUnits="userSpaceOnUse" color-interpolation-filters="sRGB">
<feFlood flood-opacity="0" result="BackgroundImageFix"/>
<feColorMatrix in="SourceAlpha" type="matrix" values="0 0 0 0 0 0 0 0 0 0 0 0 0 0 0 0 0 0 127 0" result="hardAlpha"/>
<feOffset dy="4"/>
<feGaussianBlur stdDeviation="2"/>
<feComposite in2="hardAlpha" operator="out"/>
<feColorMatrix type="matrix" values="0 0 0 0 0 0 0 0 0 0 0 0 0 0 0 0 0 0 0.25 0"/>
<feBlend mode="normal" in2="BackgroundImageFix" result="effect1_dropShadow_1203_17946"/>
<feBlend mode="normal" in="SourceGraphic" in2="effect1_dropShadow_1203_17946" result="shape"/>
</filter>
<linearGradient id="paint0_linear_1203_17946" x1="-13.971" y1="55.814" x2="46.215" y2="53.3135" gradientUnits="userSpaceOnUse">
<stop stop-color="#004CB6"/>
<stop offset="1" stop-color="#009AF9"/>
</linearGradient>
</defs>
</svg>
