<?xml version="1.0" encoding="UTF-8"?>
<svg width="100px" height="100px" viewBox="0 0 100 100" version="1.1" xmlns="http://www.w3.org/2000/svg" xmlns:xlink="http://www.w3.org/1999/xlink">
    <title>Shape</title>
    <g id="Page-1" stroke="none" stroke-width="1" fill="none" fill-rule="evenodd">
        <path d="M97.3471468,0 L59.2426922,0 C58.5473555,0 57.8520187,0.277777778 57.2957493,0.833333333 L0.834404116,57.0833333 C-0.278134705,58.1944444 -0.278134705,60 0.834404116,60.9722222 L38.9388587,99.1666667 C40.0513976,100.277778 41.7202058,100.277778 42.8327446,99.1666667 L99.1550224,42.9166667 C99.7112918,42.3611111 99.9894265,41.6666667 99.9894265,40.9722222 L99.9894265,2.77777778 C100.128494,1.25 98.8768877,0 97.3471468,0 L97.3471468,0 Z M94.4099379,39.678827 L41.0596352,93.1677019 L6.83229814,59.078937 L60.321173,5.59006211 L94.4099379,5.59006211 L94.4099379,39.678827 Z M75.1552795,13.6645963 C69.0062112,13.6645963 63.9751553,18.6956522 63.9751553,24.8447205 C63.9751553,30.9937888 69.0062112,36.0248447 75.1552795,36.0248447 C81.3043478,36.0248447 86.3354037,30.9937888 86.3354037,24.8447205 C86.3354037,18.6956522 81.3043478,13.6645963 75.1552795,13.6645963 Z M79.0890269,28.8674755 C77.0186335,30.9572183 73.2919255,30.9572183 71.2215321,28.8674755 C69.0131125,26.6384164 69.0131125,23.1555117 71.2215321,20.9264527 C73.4299517,18.6973936 76.8806073,18.6973936 79.0890269,20.9264527 C81.2974465,23.1555117 81.2974465,26.6384164 79.0890269,28.8674755 Z" id="Shape" fill="#FFFFFF" fill-rule="nonzero"></path>
    </g>
</svg>