<svg width="26" height="25" viewBox="0 0 26 25" fill="none" xmlns="http://www.w3.org/2000/svg">
<path d="M25.2915 9.62405C25.2352 9.45144 25.1316 9.29805 24.9926 9.18131C24.8535 9.06457 24.6845 8.98915 24.5048 8.9636L17.0358 7.84666L13.6947 1.04789C13.6152 0.883683 13.491 0.745195 13.3364 0.648294C13.1818 0.551394 13.003 0.5 12.8206 0.5C12.6381 0.5 12.4594 0.551394 12.3048 0.648294C12.1502 0.745195 12.026 0.883683 11.9465 1.04789L8.60536 7.84666L1.16557 8.9636C0.986884 8.98956 0.818977 9.06482 0.680697 9.18093C0.542417 9.29703 0.439238 9.44938 0.382746 9.62088C0.326254 9.79237 0.318685 9.97622 0.360889 10.1518C0.403092 10.3273 0.493397 10.4877 0.621665 10.6147L6.02183 15.8886L4.73006 23.3867C4.71075 23.5611 4.73904 23.7375 4.81193 23.8971C4.88481 24.0567 4.99957 24.1935 5.144 24.2931C5.28844 24.3928 5.45716 24.4514 5.63225 24.4628C5.80733 24.4742 5.98223 24.438 6.13838 24.358L12.8206 20.842L19.5028 24.358C19.659 24.438 19.8339 24.4742 20.0089 24.4628C20.184 24.4514 20.3527 24.3928 20.4972 24.2931C20.6416 24.1935 20.7564 24.0567 20.8293 23.8971C20.9021 23.7375 20.9304 23.5611 20.9111 23.3867L19.6194 15.8886L25.0292 10.6147C25.161 10.4905 25.2553 10.3318 25.3016 10.1568C25.348 9.98174 25.3445 9.79721 25.2915 9.62405V9.62405ZM17.9197 14.8591C17.8073 14.9683 17.7229 15.103 17.6739 15.2519C17.6248 15.4007 17.6125 15.5592 17.638 15.7138L18.6481 21.7259L13.2577 18.8898C13.1171 18.815 12.9604 18.7758 12.8012 18.7758C12.642 18.7758 12.4852 18.815 12.3447 18.8898L6.99308 21.7259L7.96433 15.7138C7.98982 15.5592 7.97751 15.4007 7.92846 15.2519C7.87942 15.103 7.79509 14.9683 7.68267 14.8591L3.3606 10.5953L9.39207 9.72118C9.54673 9.6988 9.6937 9.63944 9.82051 9.54814C9.94733 9.45683 10.0502 9.33627 10.1205 9.1967L12.8206 3.72855L15.5207 9.1967C15.5909 9.33627 15.6939 9.45683 15.8207 9.54814C15.9475 9.63944 16.0945 9.6988 16.2491 9.72118L22.2806 10.5953L17.9197 14.8591Z" fill="white"/>
</svg>
